<?xml version="1.0" encoding="UTF-8" standalone="no"?>
<!DOCTYPE svg PUBLIC "-//W3C//DTD SVG 1.1//EN"
 "http://www.w3.org/Graphics/SVG/1.1/DTD/svg11.dtd">
<!-- Generated by graphviz version 2.43.0 (0)
 -->
<!-- Title: mlir::shard::ReshardingPattern Pages: 1 -->
<svg width="375pt" height="172pt"
 viewBox="0.00 0.00 375.00 171.50" xmlns="http://www.w3.org/2000/svg" xmlns:xlink="http://www.w3.org/1999/xlink">
<g id="graph0" class="graph" transform="scale(1 1) rotate(0) translate(4 167.5)">
<title>mlir::shard::ReshardingPattern</title>
<!-- Node1 -->
<g id="Node000001" class="node">
<title>Node1</title>
<g id="a_Node000001"><a xlink:title="Base class for resharding patterns.">
<polygon fill="#999999" stroke="#666666" points="164,-86 0,-86 0,-67 164,-67 164,-86"/>
<text text-anchor="middle" x="82" y="-74" font-family="Helvetica,sans-Serif" font-size="10.00">mlir::shard::ReshardingPattern</text>
</a>
</g>
</g>
<!-- Node2 -->
<g id="Node000002" class="node">
<title>Node2</title>
<g id="a_Node000002"><a xlink:href="classmlir_1_1shard_1_1MoveLastSplitAxisPattern.html" target="_top" xlink:title="Move the last split axis of one tensor dimension to the front of another tensor dimension&#39;s split axe...">
<polygon fill="white" stroke="#666666" points="355.5,-163.5 211.5,-163.5 211.5,-133.5 355.5,-133.5 355.5,-163.5"/>
<text text-anchor="start" x="219.5" y="-151.5" font-family="Helvetica,sans-Serif" font-size="10.00">mlir::shard::MoveLastSplit</text>
<text text-anchor="middle" x="283.5" y="-140.5" font-family="Helvetica,sans-Serif" font-size="10.00">AxisPattern</text>
</a>
</g>
</g>
<!-- Node1&#45;&gt;Node2 -->
<g id="edge1_Node000001_Node000002" class="edge">
<title>Node1&#45;&gt;Node2</title>
<g id="a_edge1_Node000001_Node000002"><a xlink:title=" ">
<path fill="none" stroke="#63b8ff" d="M113.69,-90.14C137.1,-100.28 170.26,-114.11 200,-124.5 208.87,-127.6 218.37,-130.63 227.66,-133.43"/>
<polygon fill="#63b8ff" stroke="#63b8ff" points="114.87,-86.83 104.3,-86.04 112.07,-93.25 114.87,-86.83"/>
</a>
</g>
</g>
<!-- Node3 -->
<g id="Node000003" class="node">
<title>Node3</title>
<g id="a_Node000003"><a xlink:href="classmlir_1_1shard_1_1SplitLastAxisPattern.html" target="_top" xlink:title="Split a replicated axis: e.g. [[0, 1]] &#45;&gt; [[0, 1, 2]].">
<polygon fill="white" stroke="#666666" points="352.5,-115.5 214.5,-115.5 214.5,-85.5 352.5,-85.5 352.5,-115.5"/>
<text text-anchor="start" x="222.5" y="-103.5" font-family="Helvetica,sans-Serif" font-size="10.00">mlir::shard::SplitLastAxis</text>
<text text-anchor="middle" x="283.5" y="-92.5" font-family="Helvetica,sans-Serif" font-size="10.00">Pattern</text>
</a>
</g>
</g>
<!-- Node1&#45;&gt;Node3 -->
<g id="edge2_Node000001_Node000003" class="edge">
<title>Node1&#45;&gt;Node3</title>
<g id="a_edge2_Node000001_Node000003"><a xlink:title=" ">
<path fill="none" stroke="#63b8ff" d="M172.35,-87.25C186.47,-88.95 200.88,-90.68 214.42,-92.31"/>
<polygon fill="#63b8ff" stroke="#63b8ff" points="172.48,-83.74 162.13,-86.02 171.64,-90.69 172.48,-83.74"/>
</a>
</g>
</g>
<!-- Node4 -->
<g id="Node000004" class="node">
<title>Node4</title>
<g id="a_Node000004"><a xlink:href="classmlir_1_1shard_1_1UnsplitLastAxesPattern.html" target="_top" xlink:title="Unsplit trailing axes: e.g. [[0, 1, 2]] &#45;&gt; [[0, 1]] or [[0, 1, 2]] &#45;&gt; [].">
<polygon fill="white" stroke="#666666" points="348.5,-67.5 218.5,-67.5 218.5,-37.5 348.5,-37.5 348.5,-67.5"/>
<text text-anchor="start" x="226.5" y="-55.5" font-family="Helvetica,sans-Serif" font-size="10.00">mlir::shard::UnsplitLast</text>
<text text-anchor="middle" x="283.5" y="-44.5" font-family="Helvetica,sans-Serif" font-size="10.00">AxesPattern</text>
</a>
</g>
</g>
<!-- Node1&#45;&gt;Node4 -->
<g id="edge3_Node000001_Node000004" class="edge">
<title>Node1&#45;&gt;Node4</title>
<g id="a_edge3_Node000001_Node000004"><a xlink:title=" ">
<path fill="none" stroke="#63b8ff" d="M172.24,-65.76C187.73,-63.9 203.55,-62 218.2,-60.24"/>
<polygon fill="#63b8ff" stroke="#63b8ff" points="171.64,-62.31 162.13,-66.98 172.48,-69.26 171.64,-62.31"/>
</a>
</g>
</g>
<!-- Node5 -->
<g id="Node000005" class="node">
<title>Node5</title>
<g id="a_Node000005"><a xlink:href="classmlir_1_1shard_1_1UpdateHaloPattern.html" target="_top" xlink:title="Update halo sizes: handles cases where only the halo sizes differ between source and target sharding.">
<polygon fill="white" stroke="#666666" points="367,-19 200,-19 200,0 367,0 367,-19"/>
<text text-anchor="middle" x="283.5" y="-7" font-family="Helvetica,sans-Serif" font-size="10.00">mlir::shard::UpdateHaloPattern</text>
</a>
</g>
</g>
<!-- Node1&#45;&gt;Node5 -->
<g id="edge4_Node000001_Node000005" class="edge">
<title>Node1&#45;&gt;Node5</title>
<g id="a_edge4_Node000001_Node000005"><a xlink:title=" ">
<path fill="none" stroke="#63b8ff" d="M112.68,-62.75C136.04,-52.31 169.61,-38.16 200,-28.5 211.21,-24.94 223.46,-21.75 235.02,-19.04"/>
<polygon fill="#63b8ff" stroke="#63b8ff" points="111.01,-59.66 103.34,-66.97 113.89,-66.04 111.01,-59.66"/>
</a>
</g>
</g>
</g>
</svg>
