<?xml version="1.0" encoding="UTF-8" standalone="no"?>
<!DOCTYPE svg PUBLIC "-//W3C//DTD SVG 1.1//EN"
 "http://www.w3.org/Graphics/SVG/1.1/DTD/svg11.dtd">
<!-- Generated by graphviz version 2.43.0 (0)
 -->
<!-- Title: mlir::ValueUserIterator&lt; UseIteratorT, OperandType &gt; Pages: 1 -->
<svg width="743pt" height="86pt"
 viewBox="0.00 0.00 743.00 86.00" xmlns="http://www.w3.org/2000/svg" xmlns:xlink="http://www.w3.org/1999/xlink">
<g id="graph0" class="graph" transform="scale(1 1) rotate(0) translate(4 82)">
<title>mlir::ValueUserIterator&lt; UseIteratorT, OperandType &gt;</title>
<!-- Node1 -->
<g id="Node000001" class="node">
<title>Node1</title>
<g id="a_Node000001"><a xlink:title="An iterator over the users of an IRObject.">
<polygon fill="#999999" stroke="#666666" points="375,-54 205,-54 205,-24 375,-24 375,-54"/>
<text text-anchor="start" x="213" y="-42" font-family="Helvetica,sans-Serif" font-size="10.00">mlir::ValueUserIterator</text>
<text text-anchor="middle" x="290" y="-31" font-family="Helvetica,sans-Serif" font-size="10.00">&lt; UseIteratorT, OperandType &gt;</text>
</a>
</g>
</g>
<!-- Node3 -->
<g id="Node000003" class="node">
<title>Node3</title>
<g id="a_Node000003"><a xlink:href="classmlir_1_1ValueUserIterator.html" target="_top" xlink:title=" ">
<polygon fill="white" stroke="#666666" points="730.5,-78 572.5,-78 572.5,-48 730.5,-48 730.5,-78"/>
<text text-anchor="start" x="580.5" y="-66" font-family="Helvetica,sans-Serif" font-size="10.00">mlir::ValueUserIterator</text>
<text text-anchor="middle" x="651.5" y="-55" font-family="Helvetica,sans-Serif" font-size="10.00">&lt; use_iterator, OpOperand &gt;</text>
</a>
</g>
</g>
<!-- Node1&#45;&gt;Node3 -->
<g id="edge2_Node000001_Node000003" class="edge">
<title>Node1&#45;&gt;Node3</title>
<g id="a_edge2_Node000001_Node000003"><a xlink:title=" ">
<path fill="none" stroke="orange" stroke-dasharray="5,2" d="M385.59,-45.31C443.76,-49.2 517.41,-54.11 572.27,-57.78"/>
<polygon fill="orange" stroke="orange" points="385.5,-41.8 375.29,-44.63 385.03,-48.79 385.5,-41.8"/>
</a>
</g>
<text text-anchor="start" x="400.5" y="-60.5" font-family="Helvetica,sans-Serif" font-size="10.00" fill="grey">&lt; use_iterator, OpOperand &gt;</text>
</g>
<!-- Node4 -->
<g id="Node000004" class="node">
<title>Node4</title>
<g id="a_Node000004"><a xlink:href="classmlir_1_1ValueUserIterator.html" target="_top" xlink:title=" ">
<polygon fill="white" stroke="#666666" points="735,-30 568,-30 568,0 735,0 735,-30"/>
<text text-anchor="start" x="576" y="-18" font-family="Helvetica,sans-Serif" font-size="10.00">mlir::ValueUserIterator</text>
<text text-anchor="middle" x="651.5" y="-7" font-family="Helvetica,sans-Serif" font-size="10.00">&lt; use_iterator, OperandType &gt;</text>
</a>
</g>
</g>
<!-- Node1&#45;&gt;Node4 -->
<g id="edge3_Node000001_Node000004" class="edge">
<title>Node1&#45;&gt;Node4</title>
<g id="a_edge3_Node000001_Node000004"><a xlink:title=" ">
<path fill="none" stroke="orange" stroke-dasharray="5,2" d="M385.32,-25.72C387.9,-25.46 390.47,-25.22 393,-25 451.27,-19.88 517.19,-17.38 567.74,-16.16"/>
<polygon fill="orange" stroke="orange" points="384.83,-22.25 375.25,-26.78 385.57,-29.21 384.83,-22.25"/>
</a>
</g>
<text text-anchor="start" x="396.5" y="-30.5" font-family="Helvetica,sans-Serif" font-size="10.00" fill="grey">&lt; use_iterator, OperandType &gt;</text>
</g>
<!-- Node2 -->
<g id="Node000002" class="node">
<title>Node2</title>
<g id="a_Node000002"><a xlink:title=" ">
<polygon fill="white" stroke="#666666" points="168,-65 0,-65 0,-13 168,-13 168,-65"/>
<text text-anchor="start" x="8" y="-53" font-family="Helvetica,sans-Serif" font-size="10.00">llvm::mapped_iterator</text>
<text text-anchor="start" x="8" y="-42" font-family="Helvetica,sans-Serif" font-size="10.00">_base&lt; ValueUserIterator</text>
<text text-anchor="start" x="8" y="-31" font-family="Helvetica,sans-Serif" font-size="10.00">&lt; UseIteratorT, OperandType</text>
<text text-anchor="middle" x="84" y="-20" font-family="Helvetica,sans-Serif" font-size="10.00"> &gt;, UseIteratorT, Operation * &gt;</text>
</a>
</g>
</g>
<!-- Node2&#45;&gt;Node1 -->
<g id="edge1_Node000001_Node000002" class="edge">
<title>Node2&#45;&gt;Node1</title>
<g id="a_edge1_Node000001_Node000002"><a xlink:title=" ">
<path fill="none" stroke="#63b8ff" d="M178.47,-39C187.21,-39 196.03,-39 204.67,-39"/>
<polygon fill="#63b8ff" stroke="#63b8ff" points="178.27,-35.5 168.27,-39 178.27,-42.5 178.27,-35.5"/>
</a>
</g>
</g>
</g>
</svg>
