<?xml version="1.0" encoding="UTF-8" standalone="no"?>
<!DOCTYPE svg PUBLIC "-//W3C//DTD SVG 1.1//EN"
 "http://www.w3.org/Graphics/SVG/1.1/DTD/svg11.dtd">
<!-- Generated by graphviz version 2.43.0 (0)
 -->
<!-- Title: mlir::AffineExpr Pages: 1 -->
<svg width="273pt" height="138pt"
 viewBox="0.00 0.00 273.00 138.00" xmlns="http://www.w3.org/2000/svg" xmlns:xlink="http://www.w3.org/1999/xlink">
<g id="graph0" class="graph" transform="scale(1 1) rotate(0) translate(4 134)">
<title>mlir::AffineExpr</title>
<!-- Node1 -->
<g id="Node000001" class="node">
<title>Node1</title>
<g id="a_Node000001"><a xlink:title="Base type for affine expression.">
<polygon fill="#999999" stroke="#666666" points="92,-74 0,-74 0,-55 92,-55 92,-74"/>
<text text-anchor="middle" x="46" y="-62" font-family="Helvetica,sans-Serif" font-size="10.00">mlir::AffineExpr</text>
</a>
</g>
</g>
<!-- Node2 -->
<g id="Node000002" class="node">
<title>Node2</title>
<g id="a_Node000002"><a xlink:href="classmlir_1_1AffineBinaryOpExpr.html" target="_top" xlink:title="Affine binary operation expression.">
<polygon fill="white" stroke="#666666" points="265,-130 128,-130 128,-111 265,-111 265,-130"/>
<text text-anchor="middle" x="196.5" y="-118" font-family="Helvetica,sans-Serif" font-size="10.00">mlir::AffineBinaryOpExpr</text>
</a>
</g>
</g>
<!-- Node1&#45;&gt;Node2 -->
<g id="edge1_Node000001_Node000002" class="edge">
<title>Node1&#45;&gt;Node2</title>
<g id="a_edge1_Node000001_Node000002"><a xlink:title=" ">
<path fill="none" stroke="#63b8ff" d="M73.97,-78.63C89.48,-86.38 109.51,-95.76 128,-102.5 136.55,-105.62 145.88,-108.45 154.8,-110.9"/>
<polygon fill="#63b8ff" stroke="#63b8ff" points="75.44,-75.45 64.94,-74.05 72.28,-81.7 75.44,-75.45"/>
</a>
</g>
</g>
<!-- Node3 -->
<g id="Node000003" class="node">
<title>Node3</title>
<g id="a_Node000003"><a xlink:href="classmlir_1_1AffineConstantExpr.html" target="_top" xlink:title="An integer constant appearing in affine expression.">
<polygon fill="white" stroke="#666666" points="264.5,-93 128.5,-93 128.5,-74 264.5,-74 264.5,-93"/>
<text text-anchor="middle" x="196.5" y="-81" font-family="Helvetica,sans-Serif" font-size="10.00">mlir::AffineConstantExpr</text>
</a>
</g>
</g>
<!-- Node1&#45;&gt;Node3 -->
<g id="edge2_Node000001_Node000003" class="edge">
<title>Node1&#45;&gt;Node3</title>
<g id="a_edge2_Node000001_Node000003"><a xlink:title=" ">
<path fill="none" stroke="#63b8ff" d="M102.43,-71.59C110.86,-72.67 119.63,-73.79 128.27,-74.9"/>
<polygon fill="#63b8ff" stroke="#63b8ff" points="102.73,-68.1 92.36,-70.3 101.84,-75.04 102.73,-68.1"/>
</a>
</g>
</g>
<!-- Node4 -->
<g id="Node000004" class="node">
<title>Node4</title>
<g id="a_Node000004"><a xlink:href="classmlir_1_1AffineDimExpr.html" target="_top" xlink:title="A dimensional identifier appearing in an affine expression.">
<polygon fill="white" stroke="#666666" points="253,-56 140,-56 140,-37 253,-37 253,-56"/>
<text text-anchor="middle" x="196.5" y="-44" font-family="Helvetica,sans-Serif" font-size="10.00">mlir::AffineDimExpr</text>
</a>
</g>
</g>
<!-- Node1&#45;&gt;Node4 -->
<g id="edge3_Node000001_Node000004" class="edge">
<title>Node1&#45;&gt;Node4</title>
<g id="a_edge3_Node000001_Node000004"><a xlink:title=" ">
<path fill="none" stroke="#63b8ff" d="M102.45,-57.78C114.7,-56.29 127.68,-54.72 139.94,-53.23"/>
<polygon fill="#63b8ff" stroke="#63b8ff" points="101.87,-54.32 92.36,-59 102.71,-61.27 101.87,-54.32"/>
</a>
</g>
</g>
<!-- Node5 -->
<g id="Node000005" class="node">
<title>Node5</title>
<g id="a_Node000005"><a xlink:href="classmlir_1_1AffineSymbolExpr.html" target="_top" xlink:title="A symbolic identifier appearing in an affine expression.">
<polygon fill="white" stroke="#666666" points="261,-19 132,-19 132,0 261,0 261,-19"/>
<text text-anchor="middle" x="196.5" y="-7" font-family="Helvetica,sans-Serif" font-size="10.00">mlir::AffineSymbolExpr</text>
</a>
</g>
</g>
<!-- Node1&#45;&gt;Node5 -->
<g id="edge4_Node000001_Node000005" class="edge">
<title>Node1&#45;&gt;Node5</title>
<g id="a_edge4_Node000001_Node000005"><a xlink:title=" ">
<path fill="none" stroke="#63b8ff" d="M75.74,-50.51C91.04,-43.38 110.31,-34.88 128,-28.5 137.62,-25.03 148.19,-21.79 158.06,-19"/>
<polygon fill="#63b8ff" stroke="#63b8ff" points="73.86,-47.53 66.32,-54.97 76.86,-53.86 73.86,-47.53"/>
</a>
</g>
</g>
</g>
</svg>
