<?xml version="1.0" encoding="UTF-8" standalone="no"?>
<!DOCTYPE svg PUBLIC "-//W3C//DTD SVG 1.1//EN"
 "http://www.w3.org/Graphics/SVG/1.1/DTD/svg11.dtd">
<!-- Generated by graphviz version 2.43.0 (0)
 -->
<!-- Title: mlir::OpTrait::tosa::TosaElementwiseOperator&lt; ConcreteType &gt; Pages: 1 -->
<svg width="273pt" height="218pt"
 viewBox="0.00 0.00 272.50 218.00" xmlns="http://www.w3.org/2000/svg" xmlns:xlink="http://www.w3.org/1999/xlink">
<g id="graph0" class="graph" transform="scale(1 1) rotate(0) translate(4 214)">
<title>mlir::OpTrait::tosa::TosaElementwiseOperator&lt; ConcreteType &gt;</title>
<!-- Node1 -->
<g id="node1" class="node">
<title>Node1</title>
<g id="a_node1"><a xlink:title="This class indicates that an op is tosa&#45;elementwise (permits broadcasting, unlike Elementwise trait).">
<polygon fill="#bfbfbf" stroke="black" points="17.5,-0.5 17.5,-41.5 167.5,-41.5 167.5,-0.5 17.5,-0.5"/>
<text text-anchor="start" x="25.5" y="-29.5" font-family="Helvetica,sans-Serif" font-size="10.00">mlir::OpTrait::tosa</text>
<text text-anchor="start" x="25.5" y="-18.5" font-family="Helvetica,sans-Serif" font-size="10.00">::TosaElementwiseOperator</text>
<text text-anchor="middle" x="92.5" y="-7.5" font-family="Helvetica,sans-Serif" font-size="10.00">&lt; ConcreteType &gt;</text>
</a>
</g>
</g>
<!-- Node2 -->
<g id="node2" class="node">
<title>Node2</title>
<g id="a_node2"><a xlink:href="classmlir_1_1OpTrait_1_1TraitBase.html" target="_top" xlink:title=" ">
<polygon fill="none" stroke="black" points="0,-79.5 0,-120.5 185,-120.5 185,-79.5 0,-79.5"/>
<text text-anchor="start" x="8" y="-108.5" font-family="Helvetica,sans-Serif" font-size="10.00">mlir::OpTrait::TraitBase</text>
<text text-anchor="start" x="8" y="-97.5" font-family="Helvetica,sans-Serif" font-size="10.00">&lt; ConcreteType, TosaElementwise</text>
<text text-anchor="middle" x="92.5" y="-86.5" font-family="Helvetica,sans-Serif" font-size="10.00">Operator &gt;</text>
</a>
</g>
</g>
<!-- Node2&#45;&gt;Node1 -->
<g id="edge1" class="edge">
<title>Node2&#45;&gt;Node1</title>
<path fill="none" stroke="midnightblue" d="M92.5,-68.91C92.5,-59.79 92.5,-50.02 92.5,-41.76"/>
<polygon fill="midnightblue" stroke="midnightblue" points="89,-69.17 92.5,-79.17 96,-69.17 89,-69.17"/>
</g>
<!-- Node3 -->
<g id="node3" class="node">
<title>Node3</title>
<g id="a_node3"><a xlink:href="classmlir_1_1OpTrait_1_1TraitBase.html" target="_top" xlink:title="Helper class for implementing traits.">
<polygon fill="none" stroke="black" points="15,-179.5 15,-209.5 170,-209.5 170,-179.5 15,-179.5"/>
<text text-anchor="start" x="23" y="-197.5" font-family="Helvetica,sans-Serif" font-size="10.00">mlir::OpTrait::TraitBase</text>
<text text-anchor="middle" x="92.5" y="-186.5" font-family="Helvetica,sans-Serif" font-size="10.00">&lt; ConcreteType, TraitType &gt;</text>
</a>
</g>
</g>
<!-- Node3&#45;&gt;Node2 -->
<g id="edge2" class="edge">
<title>Node3&#45;&gt;Node2</title>
<path fill="none" stroke="orange" stroke-dasharray="5,2" d="M92.5,-169.28C92.5,-154.14 92.5,-134.88 92.5,-120.68"/>
<polygon fill="orange" stroke="orange" points="89,-169.45 92.5,-179.45 96,-169.45 89,-169.45"/>
<text text-anchor="start" x="92.5" y="-153" font-family="Helvetica,sans-Serif" font-size="10.00"> &lt; ConcreteType, TosaElementwise</text>
<text text-anchor="middle" x="178.5" y="-142" font-family="Helvetica,sans-Serif" font-size="10.00">Operator &gt;</text>
</g>
</g>
</svg>
