<?xml version="1.0" encoding="UTF-8" standalone="no"?>
<!DOCTYPE svg PUBLIC "-//W3C//DTD SVG 1.1//EN"
 "http://www.w3.org/Graphics/SVG/1.1/DTD/svg11.dtd">
<!-- Generated by graphviz version 2.43.0 (0)
 -->
<!-- Title: ConvInferShapeAdaptor&lt; AdaptorT &gt; Pages: 1 -->
<svg width="444pt" height="146pt"
 viewBox="0.00 0.00 444.00 145.50" xmlns="http://www.w3.org/2000/svg" xmlns:xlink="http://www.w3.org/1999/xlink">
<g id="graph0" class="graph" transform="scale(1 1) rotate(0) translate(4 141.5)">
<title>ConvInferShapeAdaptor&lt; AdaptorT &gt;</title>
<!-- Node1 -->
<g id="Node000001" class="node">
<title>Node1</title>
<g id="a_Node000001"><a xlink:title=" ">
<polygon fill="#999999" stroke="#666666" points="132,-78 0,-78 0,-48 132,-48 132,-78"/>
<text text-anchor="start" x="8" y="-66" font-family="Helvetica,sans-Serif" font-size="10.00">ConvInferShapeAdaptor</text>
<text text-anchor="middle" x="66" y="-55" font-family="Helvetica,sans-Serif" font-size="10.00">&lt; AdaptorT &gt;</text>
</a>
</g>
</g>
<!-- Node2 -->
<g id="Node000002" class="node">
<title>Node2</title>
<g id="a_Node000002"><a xlink:href="classConvInferShapeAdaptor_3_01Conv2DBlockScaledOp_1_1Adaptor_01_4.html" target="_top" xlink:title=" ">
<polygon fill="white" stroke="#666666" points="436,-137.5 297,-137.5 297,-96.5 436,-96.5 436,-137.5"/>
<text text-anchor="start" x="305" y="-125.5" font-family="Helvetica,sans-Serif" font-size="10.00">ConvInferShapeAdaptor</text>
<text text-anchor="start" x="305" y="-114.5" font-family="Helvetica,sans-Serif" font-size="10.00">&lt; Conv2DBlockScaledOp</text>
<text text-anchor="middle" x="366.5" y="-103.5" font-family="Helvetica,sans-Serif" font-size="10.00">::Adaptor &gt;</text>
</a>
</g>
</g>
<!-- Node1&#45;&gt;Node2 -->
<g id="edge1_Node000001_Node000002" class="edge">
<title>Node1&#45;&gt;Node2</title>
<g id="a_edge1_Node000001_Node000002"><a xlink:title=" ">
<path fill="none" stroke="orange" stroke-dasharray="5,2" d="M133.52,-80.43C139.08,-81.7 144.63,-82.91 150,-84 198.78,-93.88 254.31,-102.32 296.78,-108.19"/>
<polygon fill="orange" stroke="orange" points="134.07,-76.96 123.54,-78.07 132.47,-83.77 134.07,-76.96"/>
</a>
</g>
<text text-anchor="start" x="153.5" y="-126" font-family="Helvetica,sans-Serif" font-size="10.00" fill="grey">&lt; Conv2DBlockScaledOp</text>
<text text-anchor="start" x="153.5" y="-111" font-family="Helvetica,sans-Serif" font-size="10.00" fill="grey">  ::Adaptor &gt;</text>
</g>
<!-- Node3 -->
<g id="Node000003" class="node">
<title>Node3</title>
<g id="a_Node000003"><a xlink:href="classConvInferShapeAdaptor_3_01Conv2DOp_1_1Adaptor_01_4.html" target="_top" xlink:title=" ">
<polygon fill="white" stroke="#666666" points="434,-78 299,-78 299,-48 434,-48 434,-78"/>
<text text-anchor="start" x="307" y="-66" font-family="Helvetica,sans-Serif" font-size="10.00">ConvInferShapeAdaptor</text>
<text text-anchor="middle" x="366.5" y="-55" font-family="Helvetica,sans-Serif" font-size="10.00">&lt; Conv2DOp::Adaptor &gt;</text>
</a>
</g>
</g>
<!-- Node1&#45;&gt;Node3 -->
<g id="edge2_Node000001_Node000003" class="edge">
<title>Node1&#45;&gt;Node3</title>
<g id="a_edge2_Node000001_Node000003"><a xlink:title=" ">
<path fill="none" stroke="orange" stroke-dasharray="5,2" d="M142.21,-63C190.45,-63 252.51,-63 298.95,-63"/>
<polygon fill="orange" stroke="orange" points="142.14,-59.5 132.14,-63 142.14,-66.5 142.14,-59.5"/>
</a>
</g>
<text text-anchor="start" x="155.5" y="-68.5" font-family="Helvetica,sans-Serif" font-size="10.00" fill="grey">&lt; Conv2DOp::Adaptor &gt;</text>
</g>
<!-- Node4 -->
<g id="Node000004" class="node">
<title>Node4</title>
<g id="a_Node000004"><a xlink:href="classConvInferShapeAdaptor_3_01Conv3DOp_1_1Adaptor_01_4.html" target="_top" xlink:title=" ">
<polygon fill="white" stroke="#666666" points="434,-30 299,-30 299,0 434,0 434,-30"/>
<text text-anchor="start" x="307" y="-18" font-family="Helvetica,sans-Serif" font-size="10.00">ConvInferShapeAdaptor</text>
<text text-anchor="middle" x="366.5" y="-7" font-family="Helvetica,sans-Serif" font-size="10.00">&lt; Conv3DOp::Adaptor &gt;</text>
</a>
</g>
</g>
<!-- Node1&#45;&gt;Node4 -->
<g id="edge3_Node000001_Node000004" class="edge">
<title>Node1&#45;&gt;Node4</title>
<g id="a_edge3_Node000001_Node000004"><a xlink:title=" ">
<path fill="none" stroke="orange" stroke-dasharray="5,2" d="M132.49,-45.64C138.39,-44.31 144.29,-43.08 150,-42 199.47,-32.68 255.95,-25.74 298.67,-21.23"/>
<polygon fill="orange" stroke="orange" points="131.55,-42.26 122.6,-47.93 133.13,-49.08 131.55,-42.26"/>
</a>
</g>
<text text-anchor="start" x="155.5" y="-47.5" font-family="Helvetica,sans-Serif" font-size="10.00" fill="grey">&lt; Conv3DOp::Adaptor &gt;</text>
</g>
</g>
</svg>
