<?xml version="1.0" encoding="UTF-8" standalone="no"?>
<!DOCTYPE svg PUBLIC "-//W3C//DTD SVG 1.1//EN"
 "http://www.w3.org/Graphics/SVG/1.1/DTD/svg11.dtd">
<!-- Generated by graphviz version 2.43.0 (0)
 -->
<!-- Title: mlir::OwningOpRef&lt; OpTy &gt; Pages: 1 -->
<svg width="263pt" height="117pt"
 viewBox="0.00 0.00 262.50 117.00" xmlns="http://www.w3.org/2000/svg" xmlns:xlink="http://www.w3.org/1999/xlink">
<g id="graph0" class="graph" transform="scale(1 1) rotate(0) translate(4 113)">
<title>mlir::OwningOpRef&lt; OpTy &gt;</title>
<!-- Node1 -->
<g id="node1" class="node">
<title>Node1</title>
<g id="a_node1"><a xlink:title="This class acts as an owning reference to an op, and will automatically destroy the held op on destru...">
<polygon fill="#bfbfbf" stroke="black" points="67,-78.5 67,-108.5 184,-108.5 184,-78.5 67,-78.5"/>
<text text-anchor="start" x="75" y="-96.5" font-family="Helvetica,sans-Serif" font-size="10.00">mlir::OwningOpRef&lt;</text>
<text text-anchor="middle" x="125.5" y="-85.5" font-family="Helvetica,sans-Serif" font-size="10.00"> OpTy &gt;</text>
</a>
</g>
</g>
<!-- Node2 -->
<g id="node2" class="node">
<title>Node2</title>
<g id="a_node2"><a xlink:href="classmlir_1_1OwningOpRef.html" target="_top" xlink:title=" ">
<polygon fill="none" stroke="black" points="0,-0.5 0,-30.5 117,-30.5 117,-0.5 0,-0.5"/>
<text text-anchor="start" x="8" y="-18.5" font-family="Helvetica,sans-Serif" font-size="10.00">mlir::OwningOpRef&lt;</text>
<text text-anchor="middle" x="58.5" y="-7.5" font-family="Helvetica,sans-Serif" font-size="10.00"> spirv::ModuleOp &gt;</text>
</a>
</g>
</g>
<!-- Node1&#45;&gt;Node2 -->
<g id="edge1" class="edge">
<title>Node1&#45;&gt;Node2</title>
<path fill="none" stroke="orange" stroke-dasharray="5,2" d="M79.56,-72.85C74.58,-69.18 70.05,-64.92 66.5,-60 60.39,-51.53 58.52,-39.78 58.1,-30.63"/>
<polygon fill="orange" stroke="orange" points="77.95,-75.98 88.25,-78.47 81.75,-70.1 77.95,-75.98"/>
<text text-anchor="middle" x="119" y="-52" font-family="Helvetica,sans-Serif" font-size="10.00"> &lt; spirv::ModuleOp &gt;</text>
</g>
<!-- Node3 -->
<g id="node3" class="node">
<title>Node3</title>
<g id="a_node3"><a xlink:href="classmlir_1_1OwningOpRef.html" target="_top" xlink:title=" ">
<polygon fill="none" stroke="black" points="135,-0.5 135,-30.5 252,-30.5 252,-0.5 135,-0.5"/>
<text text-anchor="start" x="143" y="-18.5" font-family="Helvetica,sans-Serif" font-size="10.00">mlir::OwningOpRef&lt;</text>
<text text-anchor="middle" x="193.5" y="-7.5" font-family="Helvetica,sans-Serif" font-size="10.00"> ModuleOp &gt;</text>
</a>
</g>
</g>
<!-- Node1&#45;&gt;Node3 -->
<g id="edge2" class="edge">
<title>Node1&#45;&gt;Node3</title>
<path fill="none" stroke="orange" stroke-dasharray="5,2" d="M158.31,-72.37C163.07,-68.62 167.65,-64.46 171.5,-60 178.91,-51.41 184.59,-39.9 188.32,-30.87"/>
<polygon fill="orange" stroke="orange" points="156.23,-69.55 150.23,-78.29 160.37,-75.2 156.23,-69.55"/>
<text text-anchor="middle" x="216.5" y="-52" font-family="Helvetica,sans-Serif" font-size="10.00"> &lt; ModuleOp &gt;</text>
</g>
</g>
</svg>
