<?xml version="1.0" encoding="UTF-8" standalone="no"?>
<!DOCTYPE svg PUBLIC "-//W3C//DTD SVG 1.1//EN"
 "http://www.w3.org/Graphics/SVG/1.1/DTD/svg11.dtd">
<!-- Generated by graphviz version 2.43.0 (0)
 -->
<!-- Title: mlir::TypeStorage Pages: 1 -->
<svg width="700pt" height="802pt"
 viewBox="0.00 0.00 700.00 802.00" xmlns="http://www.w3.org/2000/svg" xmlns:xlink="http://www.w3.org/1999/xlink">
<g id="graph0" class="graph" transform="scale(1 1) rotate(0) translate(4 798)">
<title>mlir::TypeStorage</title>
<!-- Node1 -->
<g id="node1" class="node">
<title>Node1</title>
<g id="a_node1"><a xlink:title="Base storage class appearing in a Type.">
<polygon fill="#bfbfbf" stroke="black" points="154,-398 154,-417 256,-417 256,-398 154,-398"/>
<text text-anchor="middle" x="205" y="-405" font-family="Helvetica,sans-Serif" font-size="10.00">mlir::TypeStorage</text>
</a>
</g>
</g>
<!-- Node3 -->
<g id="node3" class="node">
<title>Node3</title>
<g id="a_node3"><a xlink:href="structmlir_1_1LLVM_1_1detail_1_1LLVMStructTypeStorage.html" target="_top" xlink:title="Type storage for LLVM structure types.">
<polygon fill="none" stroke="black" points="314.5,-763.5 314.5,-793.5 451.5,-793.5 451.5,-763.5 314.5,-763.5"/>
<text text-anchor="start" x="322.5" y="-781.5" font-family="Helvetica,sans-Serif" font-size="10.00">mlir::LLVM::detail</text>
<text text-anchor="middle" x="383" y="-770.5" font-family="Helvetica,sans-Serif" font-size="10.00">::LLVMStructTypeStorage</text>
</a>
</g>
</g>
<!-- Node1&#45;&gt;Node3 -->
<g id="edge2" class="edge">
<title>Node1&#45;&gt;Node3</title>
<path fill="none" stroke="midnightblue" d="M208.25,-427.2C216.22,-493.45 245.12,-706.79 292,-754.5 298.23,-760.84 305.94,-765.57 314.21,-769.08"/>
<polygon fill="midnightblue" stroke="midnightblue" points="211.73,-426.76 207.08,-417.23 204.77,-427.57 211.73,-426.76"/>
</g>
<!-- Node4 -->
<g id="node4" class="node">
<title>Node4</title>
<g id="a_node4"><a xlink:href="structmlir_1_1LLVM_1_1detail_1_1LLVMTypeAndSizeStorage.html" target="_top" xlink:title="Common storage used for LLVM dialect types that need an element type and a number: arrays,...">
<polygon fill="none" stroke="black" points="309.5,-714.5 309.5,-744.5 456.5,-744.5 456.5,-714.5 309.5,-714.5"/>
<text text-anchor="start" x="317.5" y="-732.5" font-family="Helvetica,sans-Serif" font-size="10.00">mlir::LLVM::detail</text>
<text text-anchor="middle" x="383" y="-721.5" font-family="Helvetica,sans-Serif" font-size="10.00">::LLVMTypeAndSizeStorage</text>
</a>
</g>
</g>
<!-- Node1&#45;&gt;Node4 -->
<g id="edge3" class="edge">
<title>Node1&#45;&gt;Node4</title>
<path fill="none" stroke="midnightblue" d="M205.5,-427.28C205.27,-480.39 212.27,-627.38 292,-705.5 296.97,-710.37 302.8,-714.28 309.08,-717.41"/>
<polygon fill="midnightblue" stroke="midnightblue" points="209,-427.21 205.64,-417.17 202,-427.12 209,-427.21"/>
</g>
<!-- Node5 -->
<g id="node5" class="node">
<title>Node5</title>
<g id="a_node5"><a xlink:href="structmlir_1_1detail_1_1DynamicTypeStorage.html" target="_top" xlink:title="Storage of DynamicType.">
<polygon fill="none" stroke="black" points="312,-665.5 312,-695.5 454,-695.5 454,-665.5 312,-665.5"/>
<text text-anchor="start" x="320" y="-683.5" font-family="Helvetica,sans-Serif" font-size="10.00">mlir::detail::DynamicType</text>
<text text-anchor="middle" x="383" y="-672.5" font-family="Helvetica,sans-Serif" font-size="10.00">Storage</text>
</a>
</g>
</g>
<!-- Node1&#45;&gt;Node5 -->
<g id="edge4" class="edge">
<title>Node1&#45;&gt;Node5</title>
<path fill="none" stroke="midnightblue" d="M206.8,-427.12C209.81,-474 224.11,-593.32 292,-656.5 297.68,-661.79 304.4,-665.94 311.56,-669.19"/>
<polygon fill="midnightblue" stroke="midnightblue" points="210.29,-426.87 206.26,-417.07 203.3,-427.24 210.29,-426.87"/>
</g>
<!-- Node6 -->
<g id="node6" class="node">
<title>Node6</title>
<g id="a_node6"><a xlink:href="structmlir_1_1detail_1_1FunctionTypeStorage.html" target="_top" xlink:title="Function Type Storage and Uniquing.">
<polygon fill="none" stroke="black" points="313,-616.5 313,-646.5 453,-646.5 453,-616.5 313,-616.5"/>
<text text-anchor="start" x="321" y="-634.5" font-family="Helvetica,sans-Serif" font-size="10.00">mlir::detail::FunctionType</text>
<text text-anchor="middle" x="383" y="-623.5" font-family="Helvetica,sans-Serif" font-size="10.00">Storage</text>
</a>
</g>
</g>
<!-- Node1&#45;&gt;Node6 -->
<g id="edge5" class="edge">
<title>Node1&#45;&gt;Node6</title>
<path fill="none" stroke="midnightblue" d="M208.78,-427.12C215.5,-467.03 236.36,-558 292,-606.5 298.11,-611.83 305.27,-616.03 312.83,-619.34"/>
<polygon fill="midnightblue" stroke="midnightblue" points="212.22,-426.43 207.22,-417.09 205.3,-427.51 212.22,-426.43"/>
</g>
<!-- Node7 -->
<g id="node7" class="node">
<title>Node7</title>
<g id="a_node7"><a xlink:href="structmlir_1_1detail_1_1IntegerTypeStorage.html" target="_top" xlink:title="Integer Type Storage and Uniquing.">
<polygon fill="none" stroke="black" points="316.5,-567.5 316.5,-597.5 449.5,-597.5 449.5,-567.5 316.5,-567.5"/>
<text text-anchor="start" x="324.5" y="-585.5" font-family="Helvetica,sans-Serif" font-size="10.00">mlir::detail::IntegerType</text>
<text text-anchor="middle" x="383" y="-574.5" font-family="Helvetica,sans-Serif" font-size="10.00">Storage</text>
</a>
</g>
</g>
<!-- Node1&#45;&gt;Node7 -->
<g id="edge6" class="edge">
<title>Node1&#45;&gt;Node7</title>
<path fill="none" stroke="midnightblue" d="M211.74,-426.87C222.25,-458.98 247.7,-523.08 292,-557.5 299.17,-563.07 307.51,-567.4 316.17,-570.77"/>
<polygon fill="midnightblue" stroke="midnightblue" points="215.07,-425.8 208.74,-417.3 208.39,-427.89 215.07,-425.8"/>
</g>
<!-- Node8 -->
<g id="node8" class="node">
<title>Node8</title>
<g id="a_node8"><a xlink:href="structmlir_1_1detail_1_1TupleTypeStorage.html" target="_top" xlink:title="A type representing a collection of other types.">
<polygon fill="none" stroke="black" points="302.5,-529 302.5,-548 463.5,-548 463.5,-529 302.5,-529"/>
<text text-anchor="middle" x="383" y="-536" font-family="Helvetica,sans-Serif" font-size="10.00">mlir::detail::TupleTypeStorage</text>
</a>
</g>
</g>
<!-- Node1&#45;&gt;Node8 -->
<g id="edge7" class="edge">
<title>Node1&#45;&gt;Node8</title>
<path fill="none" stroke="midnightblue" d="M214.93,-426.12C228.09,-451.46 255.19,-496.32 292,-519.5 298.08,-523.33 304.8,-526.4 311.76,-528.86"/>
<polygon fill="midnightblue" stroke="midnightblue" points="218.04,-424.52 210.43,-417.15 211.78,-427.66 218.04,-424.52"/>
</g>
<!-- Node9 -->
<g id="node9" class="node">
<title>Node9</title>
<g id="a_node9"><a xlink:href="structmlir_1_1gpu_1_1MMAMatrixStorageType.html" target="_top" xlink:title="MMAMatrixType storage and uniquing.">
<polygon fill="none" stroke="black" points="292,-491 292,-510 474,-510 474,-491 292,-491"/>
<text text-anchor="middle" x="383" y="-498" font-family="Helvetica,sans-Serif" font-size="10.00">mlir::gpu::MMAMatrixStorageType</text>
</a>
</g>
</g>
<!-- Node1&#45;&gt;Node9 -->
<g id="edge8" class="edge">
<title>Node1&#45;&gt;Node9</title>
<path fill="none" stroke="midnightblue" d="M221.42,-424.76C237.41,-441.57 263.97,-466.57 292,-480.5 300.74,-484.85 310.43,-488.26 320.11,-490.93"/>
<polygon fill="midnightblue" stroke="midnightblue" points="223.82,-422.21 214.46,-417.25 218.69,-426.97 223.82,-422.21"/>
</g>
<!-- Node10 -->
<g id="node10" class="node">
<title>Node10</title>
<g id="a_node10"><a xlink:href="structmlir_1_1quant_1_1detail_1_1QuantizedTypeStorage.html" target="_top" xlink:title=" ">
<polygon fill="none" stroke="black" points="317,-441.5 317,-471.5 449,-471.5 449,-441.5 317,-441.5"/>
<text text-anchor="start" x="325" y="-459.5" font-family="Helvetica,sans-Serif" font-size="10.00">mlir::quant::detail</text>
<text text-anchor="middle" x="383" y="-448.5" font-family="Helvetica,sans-Serif" font-size="10.00">::QuantizedTypeStorage</text>
</a>
</g>
</g>
<!-- Node1&#45;&gt;Node10 -->
<g id="edge9" class="edge">
<title>Node1&#45;&gt;Node10</title>
<path fill="none" stroke="midnightblue" d="M250.26,-419.86C263.67,-423.6 278.43,-427.72 292,-431.5 303.56,-434.72 315.96,-438.17 327.74,-441.44"/>
<polygon fill="midnightblue" stroke="midnightblue" points="250.89,-416.4 240.31,-417.09 249,-423.15 250.89,-416.4"/>
</g>
<!-- Node16 -->
<g id="node16" class="node">
<title>Node16</title>
<g id="a_node16"><a xlink:href="structspirv_1_1detail_1_1ArrayTypeStorage.html" target="_top" xlink:title=" ">
<polygon fill="none" stroke="black" points="328.5,-392.5 328.5,-422.5 437.5,-422.5 437.5,-392.5 328.5,-392.5"/>
<text text-anchor="start" x="336.5" y="-410.5" font-family="Helvetica,sans-Serif" font-size="10.00">mlir::spirv::detail</text>
<text text-anchor="middle" x="383" y="-399.5" font-family="Helvetica,sans-Serif" font-size="10.00">::ArrayTypeStorage</text>
</a>
</g>
</g>
<!-- Node1&#45;&gt;Node16 -->
<g id="edge15" class="edge">
<title>Node1&#45;&gt;Node16</title>
<path fill="none" stroke="midnightblue" d="M266.44,-407.5C286.6,-407.5 308.9,-407.5 328.49,-407.5"/>
<polygon fill="midnightblue" stroke="midnightblue" points="266.43,-404 256.43,-407.5 266.43,-411 266.43,-404"/>
</g>
<!-- Node17 -->
<g id="node17" class="node">
<title>Node17</title>
<g id="a_node17"><a xlink:href="structspirv_1_1detail_1_1CooperativeMatrixTypeStorage.html" target="_top" xlink:title=" ">
<polygon fill="none" stroke="black" points="296.5,-343.5 296.5,-373.5 469.5,-373.5 469.5,-343.5 296.5,-343.5"/>
<text text-anchor="start" x="304.5" y="-361.5" font-family="Helvetica,sans-Serif" font-size="10.00">mlir::spirv::detail</text>
<text text-anchor="middle" x="383" y="-350.5" font-family="Helvetica,sans-Serif" font-size="10.00">::CooperativeMatrixTypeStorage</text>
</a>
</g>
</g>
<!-- Node1&#45;&gt;Node17 -->
<g id="edge16" class="edge">
<title>Node1&#45;&gt;Node17</title>
<path fill="none" stroke="midnightblue" d="M248.04,-395.07C262.01,-391 277.66,-386.5 292,-382.5 302.59,-379.55 313.91,-376.47 324.82,-373.54"/>
<polygon fill="midnightblue" stroke="midnightblue" points="246.83,-391.78 238.21,-397.95 248.79,-398.5 246.83,-391.78"/>
</g>
<!-- Node18 -->
<g id="node18" class="node">
<title>Node18</title>
<g id="a_node18"><a xlink:href="structspirv_1_1detail_1_1ImageTypeStorage.html" target="_top" xlink:title=" ">
<polygon fill="none" stroke="black" points="326.5,-294.5 326.5,-324.5 439.5,-324.5 439.5,-294.5 326.5,-294.5"/>
<text text-anchor="start" x="334.5" y="-312.5" font-family="Helvetica,sans-Serif" font-size="10.00">mlir::spirv::detail</text>
<text text-anchor="middle" x="383" y="-301.5" font-family="Helvetica,sans-Serif" font-size="10.00">::ImageTypeStorage</text>
</a>
</g>
</g>
<!-- Node1&#45;&gt;Node18 -->
<g id="edge17" class="edge">
<title>Node1&#45;&gt;Node18</title>
<path fill="none" stroke="midnightblue" d="M221.5,-390.24C237.55,-373.39 264.15,-348.19 292,-333.5 302.58,-327.92 314.57,-323.55 326.26,-320.17"/>
<polygon fill="midnightblue" stroke="midnightblue" points="218.75,-388.06 214.51,-397.76 223.88,-392.82 218.75,-388.06"/>
</g>
<!-- Node19 -->
<g id="node19" class="node">
<title>Node19</title>
<g id="a_node19"><a xlink:href="structspirv_1_1detail_1_1MatrixTypeStorage.html" target="_top" xlink:title=" ">
<polygon fill="none" stroke="black" points="326,-245.5 326,-275.5 440,-275.5 440,-245.5 326,-245.5"/>
<text text-anchor="start" x="334" y="-263.5" font-family="Helvetica,sans-Serif" font-size="10.00">mlir::spirv::detail</text>
<text text-anchor="middle" x="383" y="-252.5" font-family="Helvetica,sans-Serif" font-size="10.00">::MatrixTypeStorage</text>
</a>
</g>
</g>
<!-- Node1&#45;&gt;Node19 -->
<g id="edge18" class="edge">
<title>Node1&#45;&gt;Node19</title>
<path fill="none" stroke="midnightblue" d="M214.08,-388.53C226.67,-361.28 253.57,-311.39 292,-284.5 301.94,-277.55 313.78,-272.61 325.55,-269.1"/>
<polygon fill="midnightblue" stroke="midnightblue" points="210.83,-387.21 209.96,-397.77 217.23,-390.06 210.83,-387.21"/>
</g>
<!-- Node20 -->
<g id="node20" class="node">
<title>Node20</title>
<g id="a_node20"><a xlink:href="structspirv_1_1detail_1_1PointerTypeStorage.html" target="_top" xlink:title=" ">
<polygon fill="none" stroke="black" points="324.5,-196.5 324.5,-226.5 441.5,-226.5 441.5,-196.5 324.5,-196.5"/>
<text text-anchor="start" x="332.5" y="-214.5" font-family="Helvetica,sans-Serif" font-size="10.00">mlir::spirv::detail</text>
<text text-anchor="middle" x="383" y="-203.5" font-family="Helvetica,sans-Serif" font-size="10.00">::PointerTypeStorage</text>
</a>
</g>
</g>
<!-- Node1&#45;&gt;Node20 -->
<g id="edge19" class="edge">
<title>Node1&#45;&gt;Node20</title>
<path fill="none" stroke="midnightblue" d="M210.22,-387.82C218.95,-351.94 242.5,-275.85 292,-235.5 301.28,-227.94 312.71,-222.74 324.28,-219.18"/>
<polygon fill="midnightblue" stroke="midnightblue" points="206.72,-387.44 207.89,-397.97 213.54,-389 206.72,-387.44"/>
</g>
<!-- Node21 -->
<g id="node21" class="node">
<title>Node21</title>
<g id="a_node21"><a xlink:href="structspirv_1_1detail_1_1RuntimeArrayTypeStorage.html" target="_top" xlink:title=" ">
<polygon fill="none" stroke="black" points="308,-147.5 308,-177.5 458,-177.5 458,-147.5 308,-147.5"/>
<text text-anchor="start" x="316" y="-165.5" font-family="Helvetica,sans-Serif" font-size="10.00">mlir::spirv::detail</text>
<text text-anchor="middle" x="383" y="-154.5" font-family="Helvetica,sans-Serif" font-size="10.00">::RuntimeArrayTypeStorage</text>
</a>
</g>
</g>
<!-- Node1&#45;&gt;Node21 -->
<g id="edge20" class="edge">
<title>Node1&#45;&gt;Node21</title>
<path fill="none" stroke="midnightblue" d="M207.8,-387.77C212.81,-344.58 230.89,-241.2 292,-186.5 296.7,-182.29 302.06,-178.81 307.76,-175.93"/>
<polygon fill="midnightblue" stroke="midnightblue" points="204.31,-387.51 206.74,-397.82 211.27,-388.24 204.31,-387.51"/>
</g>
<!-- Node22 -->
<g id="node22" class="node">
<title>Node22</title>
<g id="a_node22"><a xlink:href="structspirv_1_1detail_1_1SampledImageTypeStorage.html" target="_top" xlink:title=" ">
<polygon fill="none" stroke="black" points="305,-98.5 305,-128.5 461,-128.5 461,-98.5 305,-98.5"/>
<text text-anchor="start" x="313" y="-116.5" font-family="Helvetica,sans-Serif" font-size="10.00">mlir::spirv::detail</text>
<text text-anchor="middle" x="383" y="-105.5" font-family="Helvetica,sans-Serif" font-size="10.00">::SampledImageTypeStorage</text>
</a>
</g>
</g>
<!-- Node1&#45;&gt;Node22 -->
<g id="edge21" class="edge">
<title>Node1&#45;&gt;Node22</title>
<path fill="none" stroke="midnightblue" d="M206.19,-387.93C207.77,-338.4 219,-207.1 292,-137.5 295.86,-133.82 300.22,-130.69 304.89,-128.02"/>
<polygon fill="midnightblue" stroke="midnightblue" points="202.69,-387.87 205.97,-397.95 209.69,-388.02 202.69,-387.87"/>
</g>
<!-- Node23 -->
<g id="node23" class="node">
<title>Node23</title>
<g id="a_node23"><a xlink:href="structspirv_1_1detail_1_1StructTypeStorage.html" target="_top" xlink:title="Type storage for SPIR&#45;V structure types:">
<polygon fill="none" stroke="black" points="327.5,-49.5 327.5,-79.5 438.5,-79.5 438.5,-49.5 327.5,-49.5"/>
<text text-anchor="start" x="335.5" y="-67.5" font-family="Helvetica,sans-Serif" font-size="10.00">mlir::spirv::detail</text>
<text text-anchor="middle" x="383" y="-56.5" font-family="Helvetica,sans-Serif" font-size="10.00">::StructTypeStorage</text>
</a>
</g>
</g>
<!-- Node1&#45;&gt;Node23 -->
<g id="edge22" class="edge">
<title>Node1&#45;&gt;Node23</title>
<path fill="none" stroke="midnightblue" d="M208.71,-387.79C217.73,-325.09 248.6,-131.78 292,-88.5 301.5,-79.02 314.31,-73.17 327.27,-69.58"/>
<polygon fill="midnightblue" stroke="midnightblue" points="205.22,-387.53 207.29,-397.92 212.15,-388.5 205.22,-387.53"/>
</g>
<!-- Node24 -->
<g id="node24" class="node">
<title>Node24</title>
<g id="a_node24"><a xlink:href="structspirv_1_1detail_1_1TensorArmTypeStorage.html" target="_top" xlink:title=" ">
<polygon fill="none" stroke="black" points="316,-0.5 316,-30.5 450,-30.5 450,-0.5 316,-0.5"/>
<text text-anchor="start" x="324" y="-18.5" font-family="Helvetica,sans-Serif" font-size="10.00">mlir::spirv::detail</text>
<text text-anchor="middle" x="383" y="-7.5" font-family="Helvetica,sans-Serif" font-size="10.00">::TensorArmTypeStorage</text>
</a>
</g>
</g>
<!-- Node1&#45;&gt;Node24 -->
<g id="edge23" class="edge">
<title>Node1&#45;&gt;Node24</title>
<path fill="none" stroke="midnightblue" d="M207.98,-387.54C215.24,-318.39 242.57,-90.49 292,-39.5 298.64,-32.65 307,-27.68 315.94,-24.09"/>
<polygon fill="midnightblue" stroke="midnightblue" points="204.46,-387.58 206.92,-397.88 211.42,-388.29 204.46,-387.58"/>
</g>
<!-- Node2 -->
<g id="node2" class="node">
<title>Node2</title>
<g id="a_node2"><a xlink:href="classmlir_1_1StorageUniquer_1_1BaseStorage.html" target="_top" xlink:title="This class acts as the base storage that all storage classes must derived from.">
<polygon fill="none" stroke="black" points="0,-392.5 0,-422.5 118,-422.5 118,-392.5 0,-392.5"/>
<text text-anchor="start" x="8" y="-410.5" font-family="Helvetica,sans-Serif" font-size="10.00">mlir::StorageUniquer</text>
<text text-anchor="middle" x="59" y="-399.5" font-family="Helvetica,sans-Serif" font-size="10.00">::BaseStorage</text>
</a>
</g>
</g>
<!-- Node2&#45;&gt;Node1 -->
<g id="edge1" class="edge">
<title>Node2&#45;&gt;Node1</title>
<path fill="none" stroke="midnightblue" d="M128.26,-407.5C136.92,-407.5 145.65,-407.5 153.96,-407.5"/>
<polygon fill="midnightblue" stroke="midnightblue" points="128.16,-404 118.16,-407.5 128.16,-411 128.16,-404"/>
</g>
<!-- Node11 -->
<g id="node11" class="node">
<title>Node11</title>
<g id="a_node11"><a xlink:href="structmlir_1_1quant_1_1detail_1_1AnyQuantizedTypeStorage.html" target="_top" xlink:title=" ">
<polygon fill="none" stroke="black" points="525.5,-545.5 525.5,-575.5 676.5,-575.5 676.5,-545.5 525.5,-545.5"/>
<text text-anchor="start" x="533.5" y="-563.5" font-family="Helvetica,sans-Serif" font-size="10.00">mlir::quant::detail</text>
<text text-anchor="middle" x="601" y="-552.5" font-family="Helvetica,sans-Serif" font-size="10.00">::AnyQuantizedTypeStorage</text>
</a>
</g>
</g>
<!-- Node10&#45;&gt;Node11 -->
<g id="edge10" class="edge">
<title>Node10&#45;&gt;Node11</title>
<path fill="none" stroke="midnightblue" d="M458.45,-472.46C463.95,-475.03 469.2,-478.03 474,-481.5 497.36,-498.42 486.64,-518.58 510,-535.5 515.38,-539.4 521.35,-542.69 527.58,-545.47"/>
<polygon fill="midnightblue" stroke="midnightblue" points="459.61,-469.15 449.03,-468.5 456.9,-475.6 459.61,-469.15"/>
</g>
<!-- Node12 -->
<g id="node12" class="node">
<title>Node12</title>
<g id="a_node12"><a xlink:href="structmlir_1_1quant_1_1detail_1_1CalibratedQuantizedTypeStorage.html" target="_top" xlink:title=" ">
<polygon fill="none" stroke="black" points="510,-496.5 510,-526.5 692,-526.5 692,-496.5 510,-496.5"/>
<text text-anchor="start" x="518" y="-514.5" font-family="Helvetica,sans-Serif" font-size="10.00">mlir::quant::detail</text>
<text text-anchor="middle" x="601" y="-503.5" font-family="Helvetica,sans-Serif" font-size="10.00">::CalibratedQuantizedTypeStorage</text>
</a>
</g>
</g>
<!-- Node10&#45;&gt;Node12 -->
<g id="edge11" class="edge">
<title>Node10&#45;&gt;Node12</title>
<path fill="none" stroke="midnightblue" d="M452.87,-474.04C481.25,-481.26 513.79,-489.55 541.05,-496.49"/>
<polygon fill="midnightblue" stroke="midnightblue" points="453.58,-470.6 443.02,-471.53 451.85,-477.39 453.58,-470.6"/>
</g>
<!-- Node13 -->
<g id="node13" class="node">
<title>Node13</title>
<g id="a_node13"><a xlink:href="structmlir_1_1quant_1_1detail_1_1UniformQuantizedPerAxisTypeStorage.html" target="_top" xlink:title=" ">
<polygon fill="none" stroke="black" points="515.5,-436 515.5,-477 686.5,-477 686.5,-436 515.5,-436"/>
<text text-anchor="start" x="523.5" y="-465" font-family="Helvetica,sans-Serif" font-size="10.00">mlir::quant::detail</text>
<text text-anchor="start" x="523.5" y="-454" font-family="Helvetica,sans-Serif" font-size="10.00">::UniformQuantizedPerAxisType</text>
<text text-anchor="middle" x="601" y="-443" font-family="Helvetica,sans-Serif" font-size="10.00">Storage</text>
</a>
</g>
</g>
<!-- Node10&#45;&gt;Node13 -->
<g id="edge12" class="edge">
<title>Node10&#45;&gt;Node13</title>
<path fill="none" stroke="midnightblue" d="M459.31,-456.5C477.44,-456.5 496.92,-456.5 515.44,-456.5"/>
<polygon fill="midnightblue" stroke="midnightblue" points="459.1,-453 449.1,-456.5 459.1,-460 459.1,-453"/>
</g>
<!-- Node14 -->
<g id="node14" class="node">
<title>Node14</title>
<g id="a_node14"><a xlink:href="structmlir_1_1quant_1_1detail_1_1UniformQuantizedSubChannelTypeStorage.html" target="_top" xlink:title=" ">
<polygon fill="none" stroke="black" points="516,-376 516,-417 686,-417 686,-376 516,-376"/>
<text text-anchor="start" x="524" y="-405" font-family="Helvetica,sans-Serif" font-size="10.00">mlir::quant::detail</text>
<text text-anchor="start" x="524" y="-394" font-family="Helvetica,sans-Serif" font-size="10.00">::UniformQuantizedSubChannel</text>
<text text-anchor="middle" x="601" y="-383" font-family="Helvetica,sans-Serif" font-size="10.00">TypeStorage</text>
</a>
</g>
</g>
<!-- Node10&#45;&gt;Node14 -->
<g id="edge13" class="edge">
<title>Node10&#45;&gt;Node14</title>
<path fill="none" stroke="midnightblue" d="M448.14,-438.68C472.66,-431.87 500.81,-424.05 526.16,-417.01"/>
<polygon fill="midnightblue" stroke="midnightblue" points="446.93,-435.39 438.23,-441.44 448.8,-442.13 446.93,-435.39"/>
</g>
<!-- Node15 -->
<g id="node15" class="node">
<title>Node15</title>
<g id="a_node15"><a xlink:href="structmlir_1_1quant_1_1detail_1_1UniformQuantizedTypeStorage.html" target="_top" xlink:title=" ">
<polygon fill="none" stroke="black" points="515,-326.5 515,-356.5 687,-356.5 687,-326.5 515,-326.5"/>
<text text-anchor="start" x="523" y="-344.5" font-family="Helvetica,sans-Serif" font-size="10.00">mlir::quant::detail</text>
<text text-anchor="middle" x="601" y="-333.5" font-family="Helvetica,sans-Serif" font-size="10.00">::UniformQuantizedTypeStorage</text>
</a>
</g>
</g>
<!-- Node10&#45;&gt;Node15 -->
<g id="edge14" class="edge">
<title>Node10&#45;&gt;Node15</title>
<path fill="none" stroke="midnightblue" d="M458.78,-440.97C464.2,-438.3 469.35,-435.17 474,-431.5 499.93,-411.05 484.07,-386.95 510,-366.5 514.84,-362.68 520.22,-359.45 525.89,-356.71"/>
<polygon fill="midnightblue" stroke="midnightblue" points="457.21,-437.83 449.45,-445.05 460.01,-444.25 457.21,-437.83"/>
</g>
</g>
</svg>
