<?xml version="1.0" encoding="UTF-8" standalone="no"?>
<!DOCTYPE svg PUBLIC "-//W3C//DTD SVG 1.1//EN"
 "http://www.w3.org/Graphics/SVG/1.1/DTD/svg11.dtd">
<!-- Generated by graphviz version 2.43.0 (0)
 -->
<!-- Title: mlir::impl::ArithToLLVMConversionPassBase&lt; DerivedT &gt; Pages: 1 -->
<svg width="192pt" height="159pt"
 viewBox="0.00 0.00 192.00 159.00" xmlns="http://www.w3.org/2000/svg" xmlns:xlink="http://www.w3.org/1999/xlink">
<g id="graph0" class="graph" transform="scale(1 1) rotate(0) translate(4 155)">
<title>mlir::impl::ArithToLLVMConversionPassBase&lt; DerivedT &gt;</title>
<!-- Node1 -->
<g id="Node000001" class="node">
<title>Node1</title>
<g id="a_Node000001"><a xlink:title=" ">
<polygon fill="#999999" stroke="#666666" points="184,-30 0,-30 0,0 184,0 184,-30"/>
<text text-anchor="start" x="8" y="-18" font-family="Helvetica,sans-Serif" font-size="10.00">mlir::impl::ArithToLLVMConversion</text>
<text text-anchor="middle" x="92" y="-7" font-family="Helvetica,sans-Serif" font-size="10.00">PassBase&lt; DerivedT &gt;</text>
</a>
</g>
</g>
<!-- Node2 -->
<g id="Node000002" class="node">
<title>Node2</title>
<g id="a_Node000002"><a xlink:href="classmlir_1_1OperationPass.html" target="_top" xlink:title="Pass to transform an operation of a specific type.">
<polygon fill="white" stroke="#666666" points="148,-96 36,-96 36,-66 148,-66 148,-96"/>
<text text-anchor="start" x="44" y="-84" font-family="Helvetica,sans-Serif" font-size="10.00">mlir::OperationPass</text>
<text text-anchor="middle" x="92" y="-73" font-family="Helvetica,sans-Serif" font-size="10.00">&lt; OpT &gt;</text>
</a>
</g>
</g>
<!-- Node2&#45;&gt;Node1 -->
<g id="edge1_Node000001_Node000002" class="edge">
<title>Node2&#45;&gt;Node1</title>
<g id="a_edge1_Node000001_Node000002"><a xlink:title=" ">
<path fill="none" stroke="#63b8ff" d="M92,-55.54C92,-46.96 92,-37.61 92,-30.16"/>
<polygon fill="#63b8ff" stroke="#63b8ff" points="88.5,-55.8 92,-65.8 95.5,-55.8 88.5,-55.8"/>
</a>
</g>
</g>
<!-- Node3 -->
<g id="Node000003" class="node">
<title>Node3</title>
<g id="a_Node000003"><a xlink:href="classmlir_1_1Pass.html" target="_top" xlink:title="The abstract base pass class.">
<polygon fill="white" stroke="#666666" points="124,-151 60,-151 60,-132 124,-132 124,-151"/>
<text text-anchor="middle" x="92" y="-139" font-family="Helvetica,sans-Serif" font-size="10.00">mlir::Pass</text>
</a>
</g>
</g>
<!-- Node3&#45;&gt;Node2 -->
<g id="edge2_Node000002_Node000003" class="edge">
<title>Node3&#45;&gt;Node2</title>
<g id="a_edge2_Node000002_Node000003"><a xlink:title=" ">
<path fill="none" stroke="#63b8ff" d="M92,-121.65C92,-113.36 92,-103.78 92,-96.11"/>
<polygon fill="#63b8ff" stroke="#63b8ff" points="88.5,-121.87 92,-131.87 95.5,-121.87 88.5,-121.87"/>
</a>
</g>
</g>
</g>
</svg>
