<?xml version="1.0" encoding="UTF-8" standalone="no"?>
<!DOCTYPE svg PUBLIC "-//W3C//DTD SVG 1.1//EN"
 "http://www.w3.org/Graphics/SVG/1.1/DTD/svg11.dtd">
<!-- Generated by graphviz version 2.43.0 (0)
 -->
<!-- Title: mlir::DynamicDialect Pages: 1 -->
<svg width="286pt" height="137pt"
 viewBox="0.00 0.00 285.50 137.00" xmlns="http://www.w3.org/2000/svg" xmlns:xlink="http://www.w3.org/1999/xlink">
<g id="graph0" class="graph" transform="scale(1 1) rotate(0) translate(4 133)">
<title>mlir::DynamicDialect</title>
<!-- Node1 -->
<g id="Node000001" class="node">
<title>Node1</title>
<g id="a_Node000001"><a xlink:title="A dialect that can be defined at runtime.">
<polygon fill="#999999" stroke="#666666" points="199.5,-19 79.5,-19 79.5,0 199.5,0 199.5,-19"/>
<text text-anchor="middle" x="139.5" y="-7" font-family="Helvetica,sans-Serif" font-size="10.00">mlir::DynamicDialect</text>
</a>
</g>
</g>
<!-- Node2 -->
<g id="Node000002" class="node">
<title>Node2</title>
<g id="a_Node000002"><a xlink:href="classmlir_1_1SelfOwningTypeID.html" target="_top" xlink:title="Defines a TypeID for each instance of this class by using a pointer to the instance.">
<polygon fill="white" stroke="#666666" points="131,-74 0,-74 0,-55 131,-55 131,-74"/>
<text text-anchor="middle" x="65.5" y="-62" font-family="Helvetica,sans-Serif" font-size="10.00">mlir::SelfOwningTypeID</text>
</a>
</g>
</g>
<!-- Node2&#45;&gt;Node1 -->
<g id="edge1_Node000001_Node000002" class="edge">
<title>Node2&#45;&gt;Node1</title>
<g id="a_edge1_Node000001_Node000002"><a xlink:title=" ">
<path fill="none" stroke="#63b8ff" d="M85.53,-49.15C98.91,-39.57 116.06,-27.29 127.39,-19.17"/>
<polygon fill="#63b8ff" stroke="#63b8ff" points="83.48,-46.32 77.39,-54.98 87.56,-52.01 83.48,-46.32"/>
</a>
</g>
</g>
<!-- Node3 -->
<g id="Node000003" class="node">
<title>Node3</title>
<g id="a_Node000003"><a xlink:href="classmlir_1_1ExtensibleDialect.html" target="_top" xlink:title="A dialect that can be extended with new operations/types/attributes at runtime.">
<polygon fill="white" stroke="#666666" points="277.5,-74 149.5,-74 149.5,-55 277.5,-55 277.5,-74"/>
<text text-anchor="middle" x="213.5" y="-62" font-family="Helvetica,sans-Serif" font-size="10.00">mlir::ExtensibleDialect</text>
</a>
</g>
</g>
<!-- Node3&#45;&gt;Node1 -->
<g id="edge2_Node000001_Node000003" class="edge">
<title>Node3&#45;&gt;Node1</title>
<g id="a_edge2_Node000001_Node000003"><a xlink:title=" ">
<path fill="none" stroke="#63b8ff" d="M193.47,-49.15C180.09,-39.57 162.94,-27.29 151.61,-19.17"/>
<polygon fill="#63b8ff" stroke="#63b8ff" points="191.44,-52.01 201.61,-54.98 195.52,-46.32 191.44,-52.01"/>
</a>
</g>
</g>
<!-- Node4 -->
<g id="Node000004" class="node">
<title>Node4</title>
<g id="a_Node000004"><a xlink:href="classmlir_1_1Dialect.html" target="_top" xlink:title="Dialects are groups of MLIR operations, types and attributes, as well as behavior associated with the...">
<polygon fill="white" stroke="#666666" points="252,-129 175,-129 175,-110 252,-110 252,-129"/>
<text text-anchor="middle" x="213.5" y="-117" font-family="Helvetica,sans-Serif" font-size="10.00">mlir::Dialect</text>
</a>
</g>
</g>
<!-- Node4&#45;&gt;Node3 -->
<g id="edge3_Node000003_Node000004" class="edge">
<title>Node4&#45;&gt;Node3</title>
<g id="a_edge3_Node000003_Node000004"><a xlink:title=" ">
<path fill="none" stroke="#63b8ff" d="M213.5,-99.66C213.5,-90.93 213.5,-80.99 213.5,-74.09"/>
<polygon fill="#63b8ff" stroke="#63b8ff" points="210,-99.75 213.5,-109.75 217,-99.75 210,-99.75"/>
</a>
</g>
</g>
</g>
</svg>
