<?xml version="1.0" encoding="UTF-8" standalone="no"?>
<!DOCTYPE svg PUBLIC "-//W3C//DTD SVG 1.1//EN"
 "http://www.w3.org/Graphics/SVG/1.1/DTD/svg11.dtd">
<!-- Generated by graphviz version 2.43.0 (0)
 -->
<!-- Title: mlir::SideEffects::Resource::Base&lt; DerivedResource, BaseResource &gt; Pages: 1 -->
<svg width="971pt" height="372pt"
 viewBox="0.00 0.00 971.00 371.50" xmlns="http://www.w3.org/2000/svg" xmlns:xlink="http://www.w3.org/1999/xlink">
<g id="graph0" class="graph" transform="scale(1 1) rotate(0) translate(4 367.5)">
<title>mlir::SideEffects::Resource::Base&lt; DerivedResource, BaseResource &gt;</title>
<!-- Node1 -->
<g id="Node000001" class="node">
<title>Node1</title>
<g id="a_Node000001"><a xlink:title="This base class is used for derived effects that are non&#45;parametric.">
<polygon fill="#999999" stroke="#666666" points="328,-197 139,-197 139,-156 328,-156 328,-197"/>
<text text-anchor="start" x="147" y="-185" font-family="Helvetica,sans-Serif" font-size="10.00">mlir::SideEffects::</text>
<text text-anchor="start" x="147" y="-174" font-family="Helvetica,sans-Serif" font-size="10.00">Resource::Base&lt; DerivedResource,</text>
<text text-anchor="middle" x="233.5" y="-163" font-family="Helvetica,sans-Serif" font-size="10.00"> BaseResource &gt;</text>
</a>
</g>
</g>
<!-- Node3 -->
<g id="Node000003" class="node">
<title>Node3</title>
<g id="a_Node000003"><a xlink:href="classmlir_1_1SideEffects_1_1Resource_1_1Base.html" target="_top" xlink:title=" ">
<polygon fill="white" stroke="#666666" points="733.5,-353 531.5,-353 531.5,-312 733.5,-312 733.5,-353"/>
<text text-anchor="start" x="539.5" y="-341" font-family="Helvetica,sans-Serif" font-size="10.00">mlir::SideEffects::</text>
<text text-anchor="start" x="539.5" y="-330" font-family="Helvetica,sans-Serif" font-size="10.00">Resource::Base&lt; AutomaticAllocation</text>
<text text-anchor="middle" x="632.5" y="-319" font-family="Helvetica,sans-Serif" font-size="10.00">ScopeResource &gt;</text>
</a>
</g>
</g>
<!-- Node1&#45;&gt;Node3 -->
<g id="edge2_Node000001_Node000003" class="edge">
<title>Node1&#45;&gt;Node3</title>
<g id="a_edge2_Node000001_Node000003"><a xlink:title=" ">
<path fill="none" stroke="orange" stroke-dasharray="5,2" d="M253.84,-205.42C273.6,-232.45 306.88,-271.54 346,-291.5 402.98,-320.57 474.19,-330.84 531.24,-333.83"/>
<polygon fill="orange" stroke="orange" points="256.56,-203.22 247.9,-197.11 250.86,-207.28 256.56,-203.22"/>
</a>
</g>
<text text-anchor="start" x="358.5" y="-352.5" font-family="Helvetica,sans-Serif" font-size="10.00" fill="grey">&lt; AutomaticAllocationScope</text>
<text text-anchor="start" x="358.5" y="-337.5" font-family="Helvetica,sans-Serif" font-size="10.00" fill="grey">  Resource &gt;</text>
</g>
<!-- Node5 -->
<g id="Node000005" class="node">
<title>Node5</title>
<g id="a_Node000005"><a xlink:href="classmlir_1_1SideEffects_1_1Resource_1_1Base.html" target="_top" xlink:title=" ">
<polygon fill="white" stroke="#666666" points="730,-293.5 535,-293.5 535,-263.5 730,-263.5 730,-293.5"/>
<text text-anchor="start" x="543" y="-281.5" font-family="Helvetica,sans-Serif" font-size="10.00">mlir::SideEffects::</text>
<text text-anchor="middle" x="632.5" y="-270.5" font-family="Helvetica,sans-Serif" font-size="10.00">Resource::Base&lt; DefaultResource &gt;</text>
</a>
</g>
</g>
<!-- Node1&#45;&gt;Node5 -->
<g id="edge4_Node000001_Node000005" class="edge">
<title>Node1&#45;&gt;Node5</title>
<g id="a_edge4_Node000001_Node000005"><a xlink:title=" ">
<path fill="none" stroke="orange" stroke-dasharray="5,2" d="M272.85,-202.46C293.64,-215.31 320.27,-229.88 346,-238.5 406.98,-258.93 478.68,-268.93 534.97,-273.82"/>
<polygon fill="orange" stroke="orange" points="274.65,-199.46 264.32,-197.08 270.91,-205.38 274.65,-199.46"/>
</a>
</g>
<text text-anchor="start" x="376.5" y="-276" font-family="Helvetica,sans-Serif" font-size="10.00" fill="grey">&lt; DefaultResource &gt;</text>
</g>
<!-- Node7 -->
<g id="Node000007" class="node">
<title>Node7</title>
<g id="a_Node000007"><a xlink:href="classmlir_1_1SideEffects_1_1Resource_1_1Base.html" target="_top" xlink:title=" ">
<polygon fill="white" stroke="#666666" points="735.5,-245.5 529.5,-245.5 529.5,-215.5 735.5,-215.5 735.5,-245.5"/>
<text text-anchor="start" x="537.5" y="-233.5" font-family="Helvetica,sans-Serif" font-size="10.00">mlir::SideEffects::</text>
<text text-anchor="middle" x="632.5" y="-222.5" font-family="Helvetica,sans-Serif" font-size="10.00">Resource::Base&lt; ConstructResource &gt;</text>
</a>
</g>
</g>
<!-- Node1&#45;&gt;Node7 -->
<g id="edge6_Node000001_Node000007" class="edge">
<title>Node1&#45;&gt;Node7</title>
<g id="a_edge6_Node000001_Node000007"><a xlink:title=" ">
<path fill="none" stroke="orange" stroke-dasharray="5,2" d="M338.25,-196.29C340.86,-196.71 343.44,-197.11 346,-197.5 406.55,-206.69 474.68,-214.65 529.19,-220.46"/>
<polygon fill="orange" stroke="orange" points="338.54,-192.79 328.11,-194.63 337.41,-199.7 338.54,-192.79"/>
</a>
</g>
<text text-anchor="start" x="371.5" y="-223" font-family="Helvetica,sans-Serif" font-size="10.00" fill="grey">&lt; ConstructResource &gt;</text>
</g>
<!-- Node9 -->
<g id="Node000009" class="node">
<title>Node9</title>
<g id="a_Node000009"><a xlink:href="classmlir_1_1SideEffects_1_1Resource_1_1Base.html" target="_top" xlink:title=" ">
<polygon fill="white" stroke="#666666" points="719,-197 546,-197 546,-156 719,-156 719,-197"/>
<text text-anchor="start" x="554" y="-185" font-family="Helvetica,sans-Serif" font-size="10.00">mlir::SideEffects::</text>
<text text-anchor="start" x="554" y="-174" font-family="Helvetica,sans-Serif" font-size="10.00">Resource::Base&lt; CurrentDevice</text>
<text text-anchor="middle" x="632.5" y="-163" font-family="Helvetica,sans-Serif" font-size="10.00">IdResource &gt;</text>
</a>
</g>
</g>
<!-- Node1&#45;&gt;Node9 -->
<g id="edge8_Node000001_Node000009" class="edge">
<title>Node1&#45;&gt;Node9</title>
<g id="a_edge8_Node000001_Node000009"><a xlink:title=" ">
<path fill="none" stroke="orange" stroke-dasharray="5,2" d="M338.3,-176.5C402.95,-176.5 485.11,-176.5 546,-176.5"/>
<polygon fill="orange" stroke="orange" points="338.08,-173 328.08,-176.5 338.08,-180 338.08,-173"/>
</a>
</g>
<text text-anchor="start" x="355.5" y="-182" font-family="Helvetica,sans-Serif" font-size="10.00" fill="grey">&lt; CurrentDeviceIdResource &gt;</text>
</g>
<!-- Node11 -->
<g id="Node000011" class="node">
<title>Node11</title>
<g id="a_Node000011"><a xlink:href="classmlir_1_1SideEffects_1_1Resource_1_1Base.html" target="_top" xlink:title=" ">
<polygon fill="white" stroke="#666666" points="732,-137.5 533,-137.5 533,-107.5 732,-107.5 732,-137.5"/>
<text text-anchor="start" x="541" y="-125.5" font-family="Helvetica,sans-Serif" font-size="10.00">mlir::SideEffects::</text>
<text text-anchor="middle" x="632.5" y="-114.5" font-family="Helvetica,sans-Serif" font-size="10.00">Resource::Base&lt; RuntimeCounters &gt;</text>
</a>
</g>
</g>
<!-- Node1&#45;&gt;Node11 -->
<g id="edge10_Node000001_Node000011" class="edge">
<title>Node1&#45;&gt;Node11</title>
<g id="a_edge10_Node000001_Node000011"><a xlink:title=" ">
<path fill="none" stroke="orange" stroke-dasharray="5,2" d="M338.25,-156.71C340.86,-156.29 343.44,-155.89 346,-155.5 407.91,-146.1 477.73,-137.99 532.83,-132.16"/>
<polygon fill="orange" stroke="orange" points="337.41,-153.3 328.11,-158.37 338.54,-160.21 337.41,-153.3"/>
</a>
</g>
<text text-anchor="start" x="374.5" y="-161" font-family="Helvetica,sans-Serif" font-size="10.00" fill="grey">&lt; RuntimeCounters &gt;</text>
</g>
<!-- Node13 -->
<g id="Node000013" class="node">
<title>Node13</title>
<g id="a_Node000013"><a xlink:href="classmlir_1_1SideEffects_1_1Resource_1_1Base.html" target="_top" xlink:title=" ">
<polygon fill="white" stroke="#666666" points="736,-89.5 529,-89.5 529,-59.5 736,-59.5 736,-89.5"/>
<text text-anchor="start" x="537" y="-77.5" font-family="Helvetica,sans-Serif" font-size="10.00">mlir::SideEffects::</text>
<text text-anchor="middle" x="632.5" y="-66.5" font-family="Helvetica,sans-Serif" font-size="10.00">Resource::Base&lt; PayloadIRResource &gt;</text>
</a>
</g>
</g>
<!-- Node1&#45;&gt;Node13 -->
<g id="edge12_Node000001_Node000013" class="edge">
<title>Node1&#45;&gt;Node13</title>
<g id="a_edge12_Node000001_Node000013"><a xlink:title=" ">
<path fill="none" stroke="orange" stroke-dasharray="5,2" d="M272.85,-150.54C293.64,-137.69 320.27,-123.12 346,-114.5 404.85,-94.78 473.67,-84.78 529,-79.71"/>
<polygon fill="orange" stroke="orange" points="270.91,-147.62 264.32,-155.92 274.65,-153.54 270.91,-147.62"/>
</a>
</g>
<text text-anchor="start" x="370.5" y="-120" font-family="Helvetica,sans-Serif" font-size="10.00" fill="grey">&lt; PayloadIRResource &gt;</text>
</g>
<!-- Node15 -->
<g id="Node000015" class="node">
<title>Node15</title>
<g id="a_Node000015"><a xlink:href="classmlir_1_1SideEffects_1_1Resource_1_1Base.html" target="_top" xlink:title=" ">
<polygon fill="white" stroke="#666666" points="729.5,-41 535.5,-41 535.5,0 729.5,0 729.5,-41"/>
<text text-anchor="start" x="543.5" y="-29" font-family="Helvetica,sans-Serif" font-size="10.00">mlir::SideEffects::</text>
<text text-anchor="start" x="543.5" y="-18" font-family="Helvetica,sans-Serif" font-size="10.00">Resource::Base&lt; TransformMapping</text>
<text text-anchor="middle" x="632.5" y="-7" font-family="Helvetica,sans-Serif" font-size="10.00">Resource &gt;</text>
</a>
</g>
</g>
<!-- Node1&#45;&gt;Node15 -->
<g id="edge14_Node000001_Node000015" class="edge">
<title>Node1&#45;&gt;Node15</title>
<g id="a_edge14_Node000001_Node000015"><a xlink:title=" ">
<path fill="none" stroke="orange" stroke-dasharray="5,2" d="M253.84,-147.58C273.6,-120.55 306.88,-81.46 346,-61.5 404.32,-31.75 477.54,-21.69 535.23,-18.97"/>
<polygon fill="orange" stroke="orange" points="250.86,-145.72 247.9,-155.89 256.56,-149.78 250.86,-145.72"/>
</a>
</g>
<text text-anchor="start" x="349.5" y="-67" font-family="Helvetica,sans-Serif" font-size="10.00" fill="grey">&lt; TransformMappingResource &gt;</text>
</g>
<!-- Node2 -->
<g id="Node000002" class="node">
<title>Node2</title>
<g id="a_Node000002"><a xlink:href="classmlir_1_1SideEffects_1_1Resource.html" target="_top" xlink:title="This class represents a specific resource that an effect applies to.">
<polygon fill="white" stroke="#666666" points="102,-191.5 0,-191.5 0,-161.5 102,-161.5 102,-191.5"/>
<text text-anchor="start" x="8" y="-179.5" font-family="Helvetica,sans-Serif" font-size="10.00">mlir::SideEffects::</text>
<text text-anchor="middle" x="51" y="-168.5" font-family="Helvetica,sans-Serif" font-size="10.00">Resource</text>
</a>
</g>
</g>
<!-- Node2&#45;&gt;Node1 -->
<g id="edge1_Node000001_Node000002" class="edge">
<title>Node2&#45;&gt;Node1</title>
<g id="a_edge1_Node000001_Node000002"><a xlink:title=" ">
<path fill="none" stroke="#63b8ff" d="M112.48,-176.5C121.02,-176.5 129.96,-176.5 138.95,-176.5"/>
<polygon fill="#63b8ff" stroke="#63b8ff" points="112.28,-173 102.28,-176.5 112.28,-180 112.28,-173"/>
</a>
</g>
</g>
<!-- Node4 -->
<g id="Node000004" class="node">
<title>Node4</title>
<g id="a_Node000004"><a xlink:href="structmlir_1_1SideEffects_1_1AutomaticAllocationScopeResource.html" target="_top" xlink:title="An automatic allocation&#45;scope resource that is valid in the context of a parent AutomaticAllocationSc...">
<polygon fill="white" stroke="#666666" points="963,-347.5 773,-347.5 773,-317.5 963,-317.5 963,-347.5"/>
<text text-anchor="start" x="781" y="-335.5" font-family="Helvetica,sans-Serif" font-size="10.00">mlir::SideEffects::</text>
<text text-anchor="middle" x="868" y="-324.5" font-family="Helvetica,sans-Serif" font-size="10.00">AutomaticAllocationScopeResource</text>
</a>
</g>
</g>
<!-- Node3&#45;&gt;Node4 -->
<g id="edge3_Node000003_Node000004" class="edge">
<title>Node3&#45;&gt;Node4</title>
<g id="a_edge3_Node000003_Node000004"><a xlink:title=" ">
<path fill="none" stroke="#63b8ff" d="M743.64,-332.5C753.36,-332.5 763.14,-332.5 772.72,-332.5"/>
<polygon fill="#63b8ff" stroke="#63b8ff" points="743.54,-329 733.54,-332.5 743.54,-336 743.54,-329"/>
</a>
</g>
</g>
<!-- Node6 -->
<g id="Node000006" class="node">
<title>Node6</title>
<g id="a_Node000006"><a xlink:href="structmlir_1_1SideEffects_1_1DefaultResource.html" target="_top" xlink:title="A conservative default resource kind.">
<polygon fill="white" stroke="#666666" points="919,-293.5 817,-293.5 817,-263.5 919,-263.5 919,-293.5"/>
<text text-anchor="start" x="825" y="-281.5" font-family="Helvetica,sans-Serif" font-size="10.00">mlir::SideEffects::</text>
<text text-anchor="middle" x="868" y="-270.5" font-family="Helvetica,sans-Serif" font-size="10.00">DefaultResource</text>
</a>
</g>
</g>
<!-- Node5&#45;&gt;Node6 -->
<g id="edge5_Node000005_Node000006" class="edge">
<title>Node5&#45;&gt;Node6</title>
<g id="a_edge5_Node000005_Node000006"><a xlink:title=" ">
<path fill="none" stroke="#63b8ff" d="M740.32,-278.5C766.96,-278.5 794.29,-278.5 816.71,-278.5"/>
<polygon fill="#63b8ff" stroke="#63b8ff" points="740.16,-275 730.16,-278.5 740.16,-282 740.16,-275"/>
</a>
</g>
</g>
<!-- Node8 -->
<g id="Node000008" class="node">
<title>Node8</title>
<g id="a_Node000008"><a xlink:href="structmlir_1_1acc_1_1ConstructResource.html" target="_top" xlink:title=" ">
<polygon fill="white" stroke="#666666" points="946,-240 790,-240 790,-221 946,-221 946,-240"/>
<text text-anchor="middle" x="868" y="-228" font-family="Helvetica,sans-Serif" font-size="10.00">mlir::acc::ConstructResource</text>
</a>
</g>
</g>
<!-- Node7&#45;&gt;Node8 -->
<g id="edge7_Node000007_Node000008" class="edge">
<title>Node7&#45;&gt;Node8</title>
<g id="a_edge7_Node000007_Node000008"><a xlink:title=" ">
<path fill="none" stroke="#63b8ff" d="M745.83,-230.5C760.68,-230.5 775.63,-230.5 789.71,-230.5"/>
<polygon fill="#63b8ff" stroke="#63b8ff" points="745.58,-227 735.58,-230.5 745.58,-234 745.58,-227"/>
</a>
</g>
</g>
<!-- Node10 -->
<g id="Node000010" class="node">
<title>Node10</title>
<g id="a_Node000010"><a xlink:href="structmlir_1_1acc_1_1CurrentDeviceIdResource.html" target="_top" xlink:title=" ">
<polygon fill="white" stroke="#666666" points="935,-191.5 801,-191.5 801,-161.5 935,-161.5 935,-191.5"/>
<text text-anchor="start" x="809" y="-179.5" font-family="Helvetica,sans-Serif" font-size="10.00">mlir::acc::CurrentDevice</text>
<text text-anchor="middle" x="868" y="-168.5" font-family="Helvetica,sans-Serif" font-size="10.00">IdResource</text>
</a>
</g>
</g>
<!-- Node9&#45;&gt;Node10 -->
<g id="edge9_Node000009_Node000010" class="edge">
<title>Node9&#45;&gt;Node10</title>
<g id="a_edge9_Node000009_Node000010"><a xlink:title=" ">
<path fill="none" stroke="#63b8ff" d="M729.32,-176.5C753.33,-176.5 778.56,-176.5 800.77,-176.5"/>
<polygon fill="#63b8ff" stroke="#63b8ff" points="729.12,-173 719.12,-176.5 729.12,-180 729.12,-173"/>
</a>
</g>
</g>
<!-- Node12 -->
<g id="Node000012" class="node">
<title>Node12</title>
<g id="a_Node000012"><a xlink:href="structmlir_1_1acc_1_1RuntimeCounters.html" target="_top" xlink:title=" ">
<polygon fill="white" stroke="#666666" points="942.5,-132 793.5,-132 793.5,-113 942.5,-113 942.5,-132"/>
<text text-anchor="middle" x="868" y="-120" font-family="Helvetica,sans-Serif" font-size="10.00">mlir::acc::RuntimeCounters</text>
</a>
</g>
</g>
<!-- Node11&#45;&gt;Node12 -->
<g id="edge11_Node000011_Node000012" class="edge">
<title>Node11&#45;&gt;Node12</title>
<g id="a_edge11_Node000011_Node000012"><a xlink:title=" ">
<path fill="none" stroke="#63b8ff" d="M742.34,-122.5C759.66,-122.5 777.21,-122.5 793.47,-122.5"/>
<polygon fill="#63b8ff" stroke="#63b8ff" points="742.19,-119 732.19,-122.5 742.19,-126 742.19,-119"/>
</a>
</g>
</g>
<!-- Node14 -->
<g id="Node000014" class="node">
<title>Node14</title>
<g id="a_Node000014"><a xlink:href="structmlir_1_1transform_1_1PayloadIRResource.html" target="_top" xlink:title="Side effect resource corresponding to the Payload IR itself.">
<polygon fill="white" stroke="#666666" points="935,-89.5 801,-89.5 801,-59.5 935,-59.5 935,-89.5"/>
<text text-anchor="start" x="809" y="-77.5" font-family="Helvetica,sans-Serif" font-size="10.00">mlir::transform::Payload</text>
<text text-anchor="middle" x="868" y="-66.5" font-family="Helvetica,sans-Serif" font-size="10.00">IRResource</text>
</a>
</g>
</g>
<!-- Node13&#45;&gt;Node14 -->
<g id="edge13_Node000013_Node000014" class="edge">
<title>Node13&#45;&gt;Node14</title>
<g id="a_edge13_Node000013_Node000014"><a xlink:title=" ">
<path fill="none" stroke="#63b8ff" d="M746.3,-74.5C764.98,-74.5 783.79,-74.5 800.82,-74.5"/>
<polygon fill="#63b8ff" stroke="#63b8ff" points="746.26,-71 736.26,-74.5 746.26,-78 746.26,-71"/>
</a>
</g>
</g>
<!-- Node16 -->
<g id="Node000016" class="node">
<title>Node16</title>
<g id="a_Node000016"><a xlink:href="structmlir_1_1transform_1_1TransformMappingResource.html" target="_top" xlink:title="Side effect resource corresponding to the mapping between Transform IR values and Payload IR operatio...">
<polygon fill="white" stroke="#666666" points="940.5,-35.5 795.5,-35.5 795.5,-5.5 940.5,-5.5 940.5,-35.5"/>
<text text-anchor="start" x="803.5" y="-23.5" font-family="Helvetica,sans-Serif" font-size="10.00">mlir::transform::Transform</text>
<text text-anchor="middle" x="868" y="-12.5" font-family="Helvetica,sans-Serif" font-size="10.00">MappingResource</text>
</a>
</g>
</g>
<!-- Node15&#45;&gt;Node16 -->
<g id="edge15_Node000015_Node000016" class="edge">
<title>Node15&#45;&gt;Node16</title>
<g id="a_edge15_Node000015_Node000016"><a xlink:title=" ">
<path fill="none" stroke="#63b8ff" d="M739.87,-20.5C758.59,-20.5 777.67,-20.5 795.16,-20.5"/>
<polygon fill="#63b8ff" stroke="#63b8ff" points="739.82,-17 729.82,-20.5 739.82,-24 739.82,-17"/>
</a>
</g>
</g>
</g>
</svg>
