<?xml version="1.0" encoding="UTF-8" standalone="no"?>
<!DOCTYPE svg PUBLIC "-//W3C//DTD SVG 1.1//EN"
 "http://www.w3.org/Graphics/SVG/1.1/DTD/svg11.dtd">
<!-- Generated by graphviz version 2.43.0 (0)
 -->
<!-- Title: Convert1DExtractStridedSliceIntoShuffle Pages: 1 -->
<svg width="1131pt" height="61pt"
 viewBox="0.00 0.00 1131.00 61.00" xmlns="http://www.w3.org/2000/svg" xmlns:xlink="http://www.w3.org/1999/xlink">
<g id="graph0" class="graph" transform="scale(1 1) rotate(0) translate(4 57)">
<title>Convert1DExtractStridedSliceIntoShuffle</title>
<!-- Node1 -->
<g id="node1" class="node">
<title>Node1</title>
<g id="a_node1"><a xlink:title="RewritePattern for ExtractStridedSliceOp where source and destination vectors are 1&#45;D.">
<polygon fill="#bfbfbf" stroke="black" points="962,-22.5 962,-52.5 1123,-52.5 1123,-22.5 962,-22.5"/>
<text text-anchor="start" x="970" y="-40.5" font-family="Helvetica,sans-Serif" font-size="10.00">Convert1DExtractStridedSlice</text>
<text text-anchor="middle" x="1042.5" y="-29.5" font-family="Helvetica,sans-Serif" font-size="10.00">IntoShuffle</text>
</a>
</g>
</g>
<!-- Node2 -->
<g id="node2" class="node">
<title>Node2</title>
<g id="a_node2"><a xlink:href="structmlir_1_1OpRewritePattern.html" target="_top" xlink:title=" ">
<polygon fill="none" stroke="black" points="780,-22.5 780,-52.5 925,-52.5 925,-22.5 780,-22.5"/>
<text text-anchor="start" x="788" y="-40.5" font-family="Helvetica,sans-Serif" font-size="10.00">mlir::OpRewritePattern</text>
<text text-anchor="middle" x="852.5" y="-29.5" font-family="Helvetica,sans-Serif" font-size="10.00">&lt; ExtractStridedSliceOp &gt;</text>
</a>
</g>
</g>
<!-- Node2&#45;&gt;Node1 -->
<g id="edge1" class="edge">
<title>Node2&#45;&gt;Node1</title>
<path fill="none" stroke="midnightblue" d="M935.37,-37.5C944.18,-37.5 953.14,-37.5 961.93,-37.5"/>
<polygon fill="midnightblue" stroke="midnightblue" points="935.11,-34 925.11,-37.5 935.11,-41 935.11,-34"/>
</g>
<!-- Node3 -->
<g id="node3" class="node">
<title>Node3</title>
<g id="a_node3"><a xlink:href="structmlir_1_1detail_1_1OpOrInterfaceRewritePatternBase.html" target="_top" xlink:title="OpOrInterfaceRewritePatternBase is a wrapper around RewritePattern that allows for matching and rewri...">
<polygon fill="none" stroke="black" points="265,-22.5 265,-52.5 447,-52.5 447,-22.5 265,-22.5"/>
<text text-anchor="start" x="273" y="-40.5" font-family="Helvetica,sans-Serif" font-size="10.00">mlir::detail::OpOrInterface</text>
<text text-anchor="middle" x="356" y="-29.5" font-family="Helvetica,sans-Serif" font-size="10.00">RewritePatternBase&lt; SourceOp &gt;</text>
</a>
</g>
</g>
<!-- Node3&#45;&gt;Node2 -->
<g id="edge2" class="edge">
<title>Node3&#45;&gt;Node2</title>
<path fill="none" stroke="midnightblue" d="M457.18,-43.06C539.17,-46.75 658.14,-50.13 762,-45.5 767.77,-45.24 773.74,-44.89 779.73,-44.48"/>
<polygon fill="midnightblue" stroke="midnightblue" points="457.27,-39.56 447.12,-42.6 456.95,-46.55 457.27,-39.56"/>
</g>
<!-- Node6 -->
<g id="node6" class="node">
<title>Node6</title>
<g id="a_node6"><a xlink:href="structmlir_1_1OpRewritePattern.html" target="_top" xlink:title="OpRewritePattern is a wrapper around RewritePattern that allows for matching and rewriting against an...">
<polygon fill="none" stroke="black" points="484,-0.5 484,-30.5 612,-30.5 612,-0.5 484,-0.5"/>
<text text-anchor="start" x="492" y="-18.5" font-family="Helvetica,sans-Serif" font-size="10.00">mlir::OpRewritePattern</text>
<text text-anchor="middle" x="548" y="-7.5" font-family="Helvetica,sans-Serif" font-size="10.00">&lt; SourceOp &gt;</text>
</a>
</g>
</g>
<!-- Node3&#45;&gt;Node6 -->
<g id="edge6" class="edge">
<title>Node3&#45;&gt;Node6</title>
<path fill="none" stroke="midnightblue" d="M457.41,-25.87C466.38,-24.83 475.29,-23.8 483.81,-22.82"/>
<polygon fill="midnightblue" stroke="midnightblue" points="456.8,-22.42 447.27,-27.05 457.61,-29.37 456.8,-22.42"/>
</g>
<!-- Node4 -->
<g id="node4" class="node">
<title>Node4</title>
<g id="a_node4"><a xlink:href="classmlir_1_1RewritePattern.html" target="_top" xlink:title="RewritePattern is the common base class for all DAG to DAG replacements.">
<polygon fill="none" stroke="black" points="114,-28 114,-47 228,-47 228,-28 114,-28"/>
<text text-anchor="middle" x="171" y="-35" font-family="Helvetica,sans-Serif" font-size="10.00">mlir::RewritePattern</text>
</a>
</g>
</g>
<!-- Node4&#45;&gt;Node3 -->
<g id="edge3" class="edge">
<title>Node4&#45;&gt;Node3</title>
<path fill="none" stroke="midnightblue" d="M238.62,-37.5C247.14,-37.5 255.97,-37.5 264.78,-37.5"/>
<polygon fill="midnightblue" stroke="midnightblue" points="238.4,-34 228.4,-37.5 238.4,-41 238.4,-34"/>
</g>
<!-- Node5 -->
<g id="node5" class="node">
<title>Node5</title>
<g id="a_node5"><a xlink:href="classmlir_1_1Pattern.html" target="_top" xlink:title="This class contains all of the data related to a pattern, but does not contain any methods or logic f...">
<polygon fill="none" stroke="black" points="0,-28 0,-47 77,-47 77,-28 0,-28"/>
<text text-anchor="middle" x="38.5" y="-35" font-family="Helvetica,sans-Serif" font-size="10.00">mlir::Pattern</text>
</a>
</g>
</g>
<!-- Node5&#45;&gt;Node4 -->
<g id="edge4" class="edge">
<title>Node5&#45;&gt;Node4</title>
<path fill="none" stroke="midnightblue" d="M87.47,-37.5C96.06,-37.5 105.09,-37.5 113.89,-37.5"/>
<polygon fill="midnightblue" stroke="midnightblue" points="87.25,-34 77.25,-37.5 87.25,-41 87.25,-34"/>
</g>
<!-- Node6&#45;&gt;Node2 -->
<g id="edge5" class="edge">
<title>Node6&#45;&gt;Node2</title>
<path fill="none" stroke="orange" stroke-dasharray="5,2" d="M622.03,-20.81C669.9,-24.29 732.18,-28.82 779.78,-32.28"/>
<polygon fill="orange" stroke="orange" points="622.27,-17.32 612.05,-20.09 621.77,-24.3 622.27,-17.32"/>
<text text-anchor="middle" x="696" y="-33.5" font-family="Helvetica,sans-Serif" font-size="10.00"> &lt; ExtractStridedSliceOp &gt;</text>
</g>
</g>
</svg>
