<?xml version="1.0" encoding="UTF-8" standalone="no"?>
<!DOCTYPE svg PUBLIC "-//W3C//DTD SVG 1.1//EN"
 "http://www.w3.org/Graphics/SVG/1.1/DTD/svg11.dtd">
<!-- Generated by graphviz version 2.43.0 (0)
 -->
<!-- Title: mlir::pdll::ast::OpRewriteStmt Pages: 1 -->
<svg width="834pt" height="167pt"
 viewBox="0.00 0.00 834.00 167.00" xmlns="http://www.w3.org/2000/svg" xmlns:xlink="http://www.w3.org/1999/xlink">
<g id="graph0" class="graph" transform="scale(1 1) rotate(0) translate(4 163)">
<title>mlir::pdll::ast::OpRewriteStmt</title>
<!-- Node1 -->
<g id="Node000001" class="node">
<title>Node1</title>
<g id="a_Node000001"><a xlink:title="This class represents a base operation rewrite statement.">
<polygon fill="#999999" stroke="#666666" points="456,-89 295,-89 295,-70 456,-70 456,-89"/>
<text text-anchor="middle" x="375.5" y="-77" font-family="Helvetica,sans-Serif" font-size="10.00">mlir::pdll::ast::OpRewriteStmt</text>
</a>
</g>
</g>
<!-- Node4 -->
<g id="Node000004" class="node">
<title>Node4</title>
<g id="a_Node000004"><a xlink:href="classmlir_1_1pdll_1_1ast_1_1Node_1_1NodeBase.html" target="_top" xlink:title=" ">
<polygon fill="white" stroke="#666666" points="635,-159 498,-159 498,-118 635,-118 635,-159"/>
<text text-anchor="start" x="506" y="-147" font-family="Helvetica,sans-Serif" font-size="10.00">mlir::pdll::ast::Node</text>
<text text-anchor="start" x="506" y="-136" font-family="Helvetica,sans-Serif" font-size="10.00">::NodeBase&lt; EraseStmt,</text>
<text text-anchor="middle" x="566.5" y="-125" font-family="Helvetica,sans-Serif" font-size="10.00"> OpRewriteStmt &gt;</text>
</a>
</g>
</g>
<!-- Node1&#45;&gt;Node4 -->
<g id="edge3_Node000001_Node000004" class="edge">
<title>Node1&#45;&gt;Node4</title>
<g id="a_edge3_Node000001_Node000004"><a xlink:title=" ">
<path fill="none" stroke="#63b8ff" d="M417.11,-92.18C441.09,-99.66 472.04,-109.32 499.45,-117.88"/>
<polygon fill="#63b8ff" stroke="#63b8ff" points="417.88,-88.75 407.29,-89.11 415.79,-95.43 417.88,-88.75"/>
</a>
</g>
</g>
<!-- Node6 -->
<g id="Node000006" class="node">
<title>Node6</title>
<g id="a_Node000006"><a xlink:href="classmlir_1_1pdll_1_1ast_1_1Node_1_1NodeBase.html" target="_top" xlink:title=" ">
<polygon fill="white" stroke="#666666" points="641,-100 492,-100 492,-59 641,-59 641,-100"/>
<text text-anchor="start" x="500" y="-88" font-family="Helvetica,sans-Serif" font-size="10.00">mlir::pdll::ast::Node</text>
<text text-anchor="start" x="500" y="-77" font-family="Helvetica,sans-Serif" font-size="10.00">::NodeBase&lt; ReplaceStmt,</text>
<text text-anchor="middle" x="566.5" y="-66" font-family="Helvetica,sans-Serif" font-size="10.00"> OpRewriteStmt &gt;</text>
</a>
</g>
</g>
<!-- Node1&#45;&gt;Node6 -->
<g id="edge5_Node000001_Node000006" class="edge">
<title>Node1&#45;&gt;Node6</title>
<g id="a_edge5_Node000001_Node000006"><a xlink:title=" ">
<path fill="none" stroke="#63b8ff" d="M466.12,-79.5C474.69,-79.5 483.31,-79.5 491.71,-79.5"/>
<polygon fill="#63b8ff" stroke="#63b8ff" points="466.11,-76 456.11,-79.5 466.11,-83 466.11,-76"/>
</a>
</g>
</g>
<!-- Node8 -->
<g id="Node000008" class="node">
<title>Node8</title>
<g id="a_Node000008"><a xlink:href="classmlir_1_1pdll_1_1ast_1_1Node_1_1NodeBase.html" target="_top" xlink:title=" ">
<polygon fill="white" stroke="#666666" points="640,-41 493,-41 493,0 640,0 640,-41"/>
<text text-anchor="start" x="501" y="-29" font-family="Helvetica,sans-Serif" font-size="10.00">mlir::pdll::ast::Node</text>
<text text-anchor="start" x="501" y="-18" font-family="Helvetica,sans-Serif" font-size="10.00">::NodeBase&lt; RewriteStmt,</text>
<text text-anchor="middle" x="566.5" y="-7" font-family="Helvetica,sans-Serif" font-size="10.00"> OpRewriteStmt &gt;</text>
</a>
</g>
</g>
<!-- Node1&#45;&gt;Node8 -->
<g id="edge7_Node000001_Node000008" class="edge">
<title>Node1&#45;&gt;Node8</title>
<g id="a_edge7_Node000001_Node000008"><a xlink:title=" ">
<path fill="none" stroke="#63b8ff" d="M417.11,-66.82C441.09,-59.34 472.04,-49.68 499.45,-41.12"/>
<polygon fill="#63b8ff" stroke="#63b8ff" points="415.79,-63.57 407.29,-69.89 417.88,-70.25 415.79,-63.57"/>
</a>
</g>
</g>
<!-- Node2 -->
<g id="Node000002" class="node">
<title>Node2</title>
<g id="a_Node000002"><a xlink:href="classmlir_1_1pdll_1_1ast_1_1Stmt.html" target="_top" xlink:title="This class represents a base AST Statement node.">
<polygon fill="white" stroke="#666666" points="259,-89 149,-89 149,-70 259,-70 259,-89"/>
<text text-anchor="middle" x="204" y="-77" font-family="Helvetica,sans-Serif" font-size="10.00">mlir::pdll::ast::Stmt</text>
</a>
</g>
</g>
<!-- Node2&#45;&gt;Node1 -->
<g id="edge1_Node000001_Node000002" class="edge">
<title>Node2&#45;&gt;Node1</title>
<g id="a_edge1_Node000001_Node000002"><a xlink:title=" ">
<path fill="none" stroke="#63b8ff" d="M269.2,-79.5C277.62,-79.5 286.33,-79.5 294.97,-79.5"/>
<polygon fill="#63b8ff" stroke="#63b8ff" points="269.1,-76 259.1,-79.5 269.1,-83 269.1,-76"/>
</a>
</g>
</g>
<!-- Node3 -->
<g id="Node000003" class="node">
<title>Node3</title>
<g id="a_Node000003"><a xlink:href="classmlir_1_1pdll_1_1ast_1_1Node.html" target="_top" xlink:title="This class represents a base AST node.">
<polygon fill="white" stroke="#666666" points="113,-89 0,-89 0,-70 113,-70 113,-89"/>
<text text-anchor="middle" x="56.5" y="-77" font-family="Helvetica,sans-Serif" font-size="10.00">mlir::pdll::ast::Node</text>
</a>
</g>
</g>
<!-- Node3&#45;&gt;Node2 -->
<g id="edge2_Node000002_Node000003" class="edge">
<title>Node3&#45;&gt;Node2</title>
<g id="a_edge2_Node000002_Node000003"><a xlink:title=" ">
<path fill="none" stroke="#63b8ff" d="M123.61,-79.5C132.1,-79.5 140.72,-79.5 148.99,-79.5"/>
<polygon fill="#63b8ff" stroke="#63b8ff" points="123.34,-76 113.34,-79.5 123.34,-83 123.34,-76"/>
</a>
</g>
</g>
<!-- Node5 -->
<g id="Node000005" class="node">
<title>Node5</title>
<g id="a_Node000005"><a xlink:href="classmlir_1_1pdll_1_1ast_1_1EraseStmt.html" target="_top" xlink:title="This statement represents the erase statement in PDLL.">
<polygon fill="white" stroke="#666666" points="820,-148 683,-148 683,-129 820,-129 820,-148"/>
<text text-anchor="middle" x="751.5" y="-136" font-family="Helvetica,sans-Serif" font-size="10.00">mlir::pdll::ast::EraseStmt</text>
</a>
</g>
</g>
<!-- Node4&#45;&gt;Node5 -->
<g id="edge4_Node000004_Node000005" class="edge">
<title>Node4&#45;&gt;Node5</title>
<g id="a_edge4_Node000004_Node000005"><a xlink:title=" ">
<path fill="none" stroke="#63b8ff" d="M645.47,-138.5C657.9,-138.5 670.68,-138.5 682.85,-138.5"/>
<polygon fill="#63b8ff" stroke="#63b8ff" points="645.12,-135 635.12,-138.5 645.12,-142 645.12,-135"/>
</a>
</g>
</g>
<!-- Node7 -->
<g id="Node000007" class="node">
<title>Node7</title>
<g id="a_Node000007"><a xlink:href="classmlir_1_1pdll_1_1ast_1_1ReplaceStmt.html" target="_top" xlink:title="This statement represents the replace statement in PDLL.">
<polygon fill="white" stroke="#666666" points="826,-89 677,-89 677,-70 826,-70 826,-89"/>
<text text-anchor="middle" x="751.5" y="-77" font-family="Helvetica,sans-Serif" font-size="10.00">mlir::pdll::ast::ReplaceStmt</text>
</a>
</g>
</g>
<!-- Node6&#45;&gt;Node7 -->
<g id="edge6_Node000006_Node000007" class="edge">
<title>Node6&#45;&gt;Node7</title>
<g id="a_edge6_Node000006_Node000007"><a xlink:title=" ">
<path fill="none" stroke="#63b8ff" d="M651.39,-79.5C659.84,-79.5 668.38,-79.5 676.71,-79.5"/>
<polygon fill="#63b8ff" stroke="#63b8ff" points="651.14,-76 641.14,-79.5 651.14,-83 651.14,-76"/>
</a>
</g>
</g>
<!-- Node9 -->
<g id="Node000009" class="node">
<title>Node9</title>
<g id="a_Node000009"><a xlink:href="classmlir_1_1pdll_1_1ast_1_1RewriteStmt.html" target="_top" xlink:title="This statement represents an operation rewrite that contains a block of nested rewrite commands.">
<polygon fill="white" stroke="#666666" points="825.5,-30 677.5,-30 677.5,-11 825.5,-11 825.5,-30"/>
<text text-anchor="middle" x="751.5" y="-18" font-family="Helvetica,sans-Serif" font-size="10.00">mlir::pdll::ast::RewriteStmt</text>
</a>
</g>
</g>
<!-- Node8&#45;&gt;Node9 -->
<g id="edge8_Node000008_Node000009" class="edge">
<title>Node8&#45;&gt;Node9</title>
<g id="a_edge8_Node000008_Node000009"><a xlink:title=" ">
<path fill="none" stroke="#63b8ff" d="M650.25,-20.5C659.3,-20.5 668.47,-20.5 677.4,-20.5"/>
<polygon fill="#63b8ff" stroke="#63b8ff" points="650.09,-17 640.09,-20.5 650.09,-24 650.09,-17"/>
</a>
</g>
</g>
</g>
</svg>
