<?xml version="1.0" encoding="UTF-8" standalone="no"?>
<!DOCTYPE svg PUBLIC "-//W3C//DTD SVG 1.1//EN"
 "http://www.w3.org/Graphics/SVG/1.1/DTD/svg11.dtd">
<!-- Generated by graphviz version 2.43.0 (0)
 -->
<!-- Title: llvm::PointerUnion&lt; PT &gt; Pages: 1 -->
<svg width="511pt" height="1239pt"
 viewBox="0.00 0.00 511.00 1239.33" xmlns="http://www.w3.org/2000/svg" xmlns:xlink="http://www.w3.org/1999/xlink">
<g id="graph0" class="graph" transform="scale(1 1) rotate(0) translate(4 1235.33)">
<title>llvm::PointerUnion&lt; PT &gt;</title>
<!-- Node1 -->
<g id="Node000001" class="node">
<title>Node1</title>
<g id="a_Node000001"><a xlink:title=" ">
<polygon fill="#999999" stroke="#666666" points="107,-635.33 0,-635.33 0,-605.33 107,-605.33 107,-635.33"/>
<text text-anchor="start" x="8" y="-623.33" font-family="Helvetica,sans-Serif" font-size="10.00">llvm::PointerUnion</text>
<text text-anchor="middle" x="53.5" y="-612.33" font-family="Helvetica,sans-Serif" font-size="10.00">&lt; PT &gt;</text>
</a>
</g>
</g>
<!-- Node2 -->
<g id="Node000002" class="node">
<title>Node2</title>
<g id="a_Node000002"><a xlink:href="structmlir_1_1CallInterfaceCallable.html" target="_top" xlink:title="A callable is either a symbol, or an SSA value, that is referenced by a call&#45;like operation.">
<polygon fill="white" stroke="#666666" points="484,-1231.33 340,-1231.33 340,-1201.33 484,-1201.33 484,-1231.33"/>
<text text-anchor="start" x="348" y="-1219.33" font-family="Helvetica,sans-Serif" font-size="10.00">mlir::CallInterfaceCallable</text>
<text text-anchor="middle" x="412" y="-1208.33" font-family="Helvetica,sans-Serif" font-size="10.00">&lt; SymbolRefAttr, Value &gt;</text>
</a>
</g>
</g>
<!-- Node1&#45;&gt;Node2 -->
<g id="edge1_Node000001_Node000002" class="edge">
<title>Node1&#45;&gt;Node2</title>
<g id="a_edge1_Node000001_Node000002"><a xlink:title=" ">
<path fill="none" stroke="#63b8ff" d="M54.24,-645.42C53.77,-739.98 57.06,-1073.18 125,-1148.33 178.74,-1207.77 274.13,-1219.88 339.88,-1220.35"/>
<polygon fill="#63b8ff" stroke="#63b8ff" points="57.74,-645.37 54.31,-635.35 50.74,-645.32 57.74,-645.37"/>
</a>
</g>
</g>
<!-- Node3 -->
<g id="Node000003" class="node">
<title>Node3</title>
<g id="a_Node000003"><a xlink:href="classmlir_1_1IRUnit.html" target="_top" xlink:title="IRUnit is a union of the different types of IR objects that constitute the IR structure (other than T...">
<polygon fill="white" stroke="#666666" points="477.5,-1182.83 346.5,-1182.83 346.5,-1141.83 477.5,-1141.83 477.5,-1182.83"/>
<text text-anchor="start" x="354.5" y="-1170.83" font-family="Helvetica,sans-Serif" font-size="10.00">mlir::IRUnit&lt; Operation</text>
<text text-anchor="start" x="354.5" y="-1159.83" font-family="Helvetica,sans-Serif" font-size="10.00"> *, Region *, Block *,</text>
<text text-anchor="middle" x="412" y="-1148.83" font-family="Helvetica,sans-Serif" font-size="10.00"> Value &gt;</text>
</a>
</g>
</g>
<!-- Node1&#45;&gt;Node3 -->
<g id="edge2_Node000001_Node000003" class="edge">
<title>Node1&#45;&gt;Node3</title>
<g id="a_edge2_Node000001_Node000003"><a xlink:title=" ">
<path fill="none" stroke="#63b8ff" d="M54.55,-645.83C55.27,-735.5 62.39,-1034.53 125,-1101.33 181.25,-1161.33 280.84,-1169.82 346.39,-1167.97"/>
<polygon fill="#63b8ff" stroke="#63b8ff" points="58.05,-645.71 54.49,-635.73 51.05,-645.75 58.05,-645.71"/>
</a>
</g>
</g>
<!-- Node4 -->
<g id="Node000004" class="node">
<title>Node4</title>
<g id="a_Node000004"><a xlink:href="classmlir_1_1LLVM_1_1GEPArg.html" target="_top" xlink:title="Class used for building a &#39;llvm.getelementptr&#39;.">
<polygon fill="white" stroke="#666666" points="493,-1123.33 331,-1123.33 331,-1093.33 493,-1093.33 493,-1123.33"/>
<text text-anchor="start" x="339" y="-1111.33" font-family="Helvetica,sans-Serif" font-size="10.00">mlir::LLVM::GEPArg</text>
<text text-anchor="middle" x="412" y="-1100.33" font-family="Helvetica,sans-Serif" font-size="10.00">&lt; Value, GEPConstantIndex &gt;</text>
</a>
</g>
</g>
<!-- Node1&#45;&gt;Node4 -->
<g id="edge3_Node000001_Node000004" class="edge">
<title>Node1&#45;&gt;Node4</title>
<g id="a_edge3_Node000001_Node000004"><a xlink:title=" ">
<path fill="none" stroke="#63b8ff" d="M54.89,-646.01C56.73,-730.6 67.11,-998.47 125,-1057.33 177.79,-1110.99 266.23,-1119.42 330.82,-1117.12"/>
<polygon fill="#63b8ff" stroke="#63b8ff" points="58.39,-645.69 54.69,-635.76 51.39,-645.82 58.39,-645.69"/>
</a>
</g>
</g>
<!-- Node5 -->
<g id="Node000005" class="node">
<title>Node5</title>
<g id="a_Node000005"><a xlink:href="structmlir_1_1LatticeAnchor.html" target="_top" xlink:title="Fundamental IR components are supported as first&#45;class lattice anchor.">
<polygon fill="white" stroke="#666666" points="486.5,-1074.83 337.5,-1074.83 337.5,-1033.83 486.5,-1033.83 486.5,-1074.83"/>
<text text-anchor="start" x="345.5" y="-1062.83" font-family="Helvetica,sans-Serif" font-size="10.00">mlir::LatticeAnchor</text>
<text text-anchor="start" x="345.5" y="-1051.83" font-family="Helvetica,sans-Serif" font-size="10.00">&lt; GenericLatticeAnchor</text>
<text text-anchor="middle" x="412" y="-1040.83" font-family="Helvetica,sans-Serif" font-size="10.00"> *, ProgramPoint *, Value &gt;</text>
</a>
</g>
</g>
<!-- Node1&#45;&gt;Node5 -->
<g id="edge4_Node000001_Node000005" class="edge">
<title>Node1&#45;&gt;Node5</title>
<g id="a_edge4_Node000001_Node000005"><a xlink:title=" ">
<path fill="none" stroke="#63b8ff" d="M55.2,-645.37C57.95,-724.46 70.73,-966.71 125,-1018.33 180.75,-1071.36 272.7,-1073.67 337.25,-1067.07"/>
<polygon fill="#63b8ff" stroke="#63b8ff" points="58.69,-645.21 54.87,-635.33 51.7,-645.44 58.69,-645.21"/>
</a>
</g>
</g>
<!-- Node6 -->
<g id="Node000006" class="node">
<title>Node6</title>
<g id="a_Node000006"><a xlink:href="classmlir_1_1OpFoldResult.html" target="_top" xlink:title="This class represents a single result from folding an operation.">
<polygon fill="white" stroke="#666666" points="469.5,-1015.33 354.5,-1015.33 354.5,-985.33 469.5,-985.33 469.5,-1015.33"/>
<text text-anchor="start" x="362.5" y="-1003.33" font-family="Helvetica,sans-Serif" font-size="10.00">mlir::OpFoldResult</text>
<text text-anchor="middle" x="412" y="-992.33" font-family="Helvetica,sans-Serif" font-size="10.00">&lt; Attribute, Value &gt;</text>
</a>
</g>
</g>
<!-- Node1&#45;&gt;Node6 -->
<g id="edge5_Node000001_Node000006" class="edge">
<title>Node1&#45;&gt;Node6</title>
<g id="a_edge5_Node000001_Node000006"><a xlink:title=" ">
<path fill="none" stroke="#63b8ff" d="M55.54,-645.73C59.17,-720.71 74.01,-938.68 125,-983.33 187.59,-1038.13 290.47,-1028.58 354.28,-1015.38"/>
<polygon fill="#63b8ff" stroke="#63b8ff" points="59.02,-645.18 55.06,-635.35 52.02,-645.5 59.02,-645.18"/>
</a>
</g>
</g>
<!-- Node7 -->
<g id="Node000007" class="node">
<title>Node7</title>
<g id="a_Node000007"><a xlink:href="classllvm_1_1PointerUnion.html" target="_top" xlink:title=" ">
<polygon fill="white" stroke="#666666" points="474,-966.83 350,-966.83 350,-925.83 474,-925.83 474,-966.83"/>
<text text-anchor="start" x="358" y="-954.83" font-family="Helvetica,sans-Serif" font-size="10.00">llvm::PointerUnion</text>
<text text-anchor="start" x="358" y="-943.83" font-family="Helvetica,sans-Serif" font-size="10.00">&lt; Operation *, Param,</text>
<text text-anchor="middle" x="412" y="-932.83" font-family="Helvetica,sans-Serif" font-size="10.00"> Value &gt;</text>
</a>
</g>
</g>
<!-- Node1&#45;&gt;Node7 -->
<g id="edge6_Node000001_Node000007" class="edge">
<title>Node1&#45;&gt;Node7</title>
<g id="a_edge6_Node000001_Node000007"><a xlink:title=" ">
<path fill="none" stroke="orange" stroke-dasharray="5,2" d="M56.81,-645.7C63.3,-710.84 83.93,-881.35 125,-917.33 157.38,-945.69 275.98,-949 349.9,-948.14"/>
<polygon fill="orange" stroke="orange" points="60.27,-645.12 55.83,-635.5 53.3,-645.79 60.27,-645.12"/>
</a>
</g>
<text text-anchor="start" x="160" y="-968.33" font-family="Helvetica,sans-Serif" font-size="10.00" fill="grey">&lt; Operation *, Param,</text>
<text text-anchor="start" x="160" y="-953.33" font-family="Helvetica,sans-Serif" font-size="10.00" fill="grey">   Value &gt;</text>
</g>
<!-- Node8 -->
<g id="Node000008" class="node">
<title>Node8</title>
<g id="a_Node000008"><a xlink:href="classllvm_1_1PointerUnion.html" target="_top" xlink:title=" ">
<polygon fill="white" stroke="#666666" points="469,-907.33 355,-907.33 355,-877.33 469,-877.33 469,-907.33"/>
<text text-anchor="start" x="363" y="-895.33" font-family="Helvetica,sans-Serif" font-size="10.00">llvm::PointerUnion</text>
<text text-anchor="middle" x="412" y="-884.33" font-family="Helvetica,sans-Serif" font-size="10.00">&lt; Type, StringAttr &gt;</text>
</a>
</g>
</g>
<!-- Node1&#45;&gt;Node8 -->
<g id="edge7_Node000001_Node000008" class="edge">
<title>Node1&#45;&gt;Node8</title>
<g id="a_edge7_Node000001_Node000008"><a xlink:title=" ">
<path fill="none" stroke="orange" stroke-dasharray="5,2" d="M57.94,-645.57C66.35,-703.17 89.85,-841.53 125,-870.33 158.95,-898.14 281.72,-898.08 354.91,-895.35"/>
<polygon fill="orange" stroke="orange" points="61.38,-644.9 56.51,-635.49 54.45,-645.89 61.38,-644.9"/>
</a>
</g>
<text text-anchor="start" x="165" y="-901.83" font-family="Helvetica,sans-Serif" font-size="10.00" fill="grey">&lt; Type, StringAttr &gt;</text>
</g>
<!-- Node9 -->
<g id="Node000009" class="node">
<title>Node9</title>
<g id="a_Node000009"><a xlink:href="classllvm_1_1PointerUnion.html" target="_top" xlink:title=" ">
<polygon fill="white" stroke="#666666" points="480.5,-858.83 343.5,-858.83 343.5,-817.83 480.5,-817.83 480.5,-858.83"/>
<text text-anchor="start" x="351.5" y="-846.83" font-family="Helvetica,sans-Serif" font-size="10.00">llvm::PointerUnion</text>
<text text-anchor="start" x="351.5" y="-835.83" font-family="Helvetica,sans-Serif" font-size="10.00">&lt; BlockOperand *, Block</text>
<text text-anchor="middle" x="412" y="-824.83" font-family="Helvetica,sans-Serif" font-size="10.00"> *const * &gt;</text>
</a>
</g>
</g>
<!-- Node1&#45;&gt;Node9 -->
<g id="edge8_Node000001_Node000009" class="edge">
<title>Node1&#45;&gt;Node9</title>
<g id="a_edge8_Node000001_Node000009"><a xlink:title=" ">
<path fill="none" stroke="orange" stroke-dasharray="5,2" d="M55.39,-645.52C58.38,-688.23 71.17,-774.23 125,-815.33 141.95,-828.27 264.2,-834.19 343.29,-836.69"/>
<polygon fill="orange" stroke="orange" points="58.87,-645.19 54.81,-635.41 51.89,-645.59 58.87,-645.19"/>
</a>
</g>
<text text-anchor="start" x="154" y="-855.33" font-family="Helvetica,sans-Serif" font-size="10.00" fill="grey">&lt; BlockOperand *, Block</text>
<text text-anchor="start" x="154" y="-840.33" font-family="Helvetica,sans-Serif" font-size="10.00" fill="grey">   *const * &gt;</text>
</g>
<!-- Node10 -->
<g id="Node000010" class="node">
<title>Node10</title>
<g id="a_Node000010"><a xlink:href="classllvm_1_1PointerUnion.html" target="_top" xlink:title=" ">
<polygon fill="white" stroke="#666666" points="481.5,-799.33 342.5,-799.33 342.5,-747.33 481.5,-747.33 481.5,-799.33"/>
<text text-anchor="start" x="350.5" y="-787.33" font-family="Helvetica,sans-Serif" font-size="10.00">llvm::PointerUnion</text>
<text text-anchor="start" x="350.5" y="-776.33" font-family="Helvetica,sans-Serif" font-size="10.00">&lt; const Value *, const</text>
<text text-anchor="start" x="350.5" y="-765.33" font-family="Helvetica,sans-Serif" font-size="10.00"> Type *, OpOperand *,</text>
<text text-anchor="middle" x="412" y="-754.33" font-family="Helvetica,sans-Serif" font-size="10.00"> detail::OpResultImpl * &gt;</text>
</a>
</g>
</g>
<!-- Node1&#45;&gt;Node10 -->
<g id="edge9_Node000001_Node000010" class="edge">
<title>Node1&#45;&gt;Node10</title>
<g id="a_edge9_Node000001_Node000010"><a xlink:title=" ">
<path fill="none" stroke="orange" stroke-dasharray="5,2" d="M61.21,-645.53C70.39,-674.64 89.89,-721.45 125,-744.33 142.8,-755.92 263.41,-764.92 342.22,-769.65"/>
<polygon fill="orange" stroke="orange" points="64.48,-644.27 58.28,-635.68 57.78,-646.27 64.48,-644.27"/>
</a>
</g>
<text text-anchor="start" x="150" y="-801.83" font-family="Helvetica,sans-Serif" font-size="10.00" fill="grey">&lt; const Value *, const</text>
<text text-anchor="start" x="150" y="-786.83" font-family="Helvetica,sans-Serif" font-size="10.00" fill="grey">   Type *, OpOperand *,</text>
<text text-anchor="start" x="150" y="-771.83" font-family="Helvetica,sans-Serif" font-size="10.00" fill="grey">   detail::OpResultImpl * &gt;</text>
</g>
<!-- Node11 -->
<g id="Node000011" class="node">
<title>Node11</title>
<g id="a_Node000011"><a xlink:href="classllvm_1_1PointerUnion.html" target="_top" xlink:title=" ">
<polygon fill="white" stroke="#666666" points="496,-729.33 328,-729.33 328,-677.33 496,-677.33 496,-729.33"/>
<text text-anchor="start" x="336" y="-717.33" font-family="Helvetica,sans-Serif" font-size="10.00">llvm::PointerUnion</text>
<text text-anchor="start" x="336" y="-706.33" font-family="Helvetica,sans-Serif" font-size="10.00">&lt; NamedAttribute *,</text>
<text text-anchor="start" x="336" y="-695.33" font-family="Helvetica,sans-Serif" font-size="10.00"> NamedProperty *, NamedType</text>
<text text-anchor="middle" x="412" y="-684.33" font-family="Helvetica,sans-Serif" font-size="10.00">Constraint * &gt;</text>
</a>
</g>
</g>
<!-- Node1&#45;&gt;Node11 -->
<g id="edge10_Node000001_Node000011" class="edge">
<title>Node1&#45;&gt;Node11</title>
<g id="a_edge10_Node000001_Node000011"><a xlink:title=" ">
<path fill="none" stroke="orange" stroke-dasharray="5,2" d="M87.28,-640.35C98.85,-646.65 112.17,-653.06 125,-657.33 191.33,-679.41 269.94,-691.07 327.95,-697.12"/>
<polygon fill="orange" stroke="orange" points="88.86,-637.23 78.43,-635.38 85.43,-643.33 88.86,-637.23"/>
</a>
</g>
<text text-anchor="start" x="135" y="-728.83" font-family="Helvetica,sans-Serif" font-size="10.00" fill="grey">&lt; NamedAttribute *,</text>
<text text-anchor="start" x="135" y="-713.83" font-family="Helvetica,sans-Serif" font-size="10.00" fill="grey">   NamedProperty *, NamedType</text>
<text text-anchor="start" x="135" y="-698.83" font-family="Helvetica,sans-Serif" font-size="10.00" fill="grey">  Constraint * &gt;</text>
</g>
<!-- Node12 -->
<g id="Node000012" class="node">
<title>Node12</title>
<g id="a_Node000012"><a xlink:href="classllvm_1_1PointerUnion.html" target="_top" xlink:title=" ">
<polygon fill="white" stroke="#666666" points="500,-659.33 324,-659.33 324,-629.33 500,-629.33 500,-659.33"/>
<text text-anchor="start" x="332" y="-647.33" font-family="Helvetica,sans-Serif" font-size="10.00">llvm::PointerUnion</text>
<text text-anchor="middle" x="412" y="-636.33" font-family="Helvetica,sans-Serif" font-size="10.00">&lt; Operation *, BlockArgument &gt;</text>
</a>
</g>
</g>
<!-- Node1&#45;&gt;Node12 -->
<g id="edge11_Node000001_Node000012" class="edge">
<title>Node1&#45;&gt;Node12</title>
<g id="a_edge11_Node000001_Node000012"><a xlink:title=" ">
<path fill="none" stroke="orange" stroke-dasharray="5,2" d="M117.12,-624.54C174.48,-628.41 259.95,-634.16 323.95,-638.47"/>
<polygon fill="orange" stroke="orange" points="117.32,-621.05 107.1,-623.87 116.85,-628.03 117.32,-621.05"/>
</a>
</g>
<text text-anchor="start" x="134" y="-641.83" font-family="Helvetica,sans-Serif" font-size="10.00" fill="grey">&lt; Operation *, BlockArgument &gt;</text>
</g>
<!-- Node13 -->
<g id="Node000013" class="node">
<title>Node13</title>
<g id="a_Node000013"><a xlink:href="classllvm_1_1PointerUnion.html" target="_top" xlink:title=" ">
<polygon fill="white" stroke="#666666" points="480.5,-611.33 343.5,-611.33 343.5,-581.33 480.5,-581.33 480.5,-611.33"/>
<text text-anchor="start" x="351.5" y="-599.33" font-family="Helvetica,sans-Serif" font-size="10.00">llvm::PointerUnion</text>
<text text-anchor="middle" x="412" y="-588.33" font-family="Helvetica,sans-Serif" font-size="10.00">&lt; Operation *, Block * &gt;</text>
</a>
</g>
</g>
<!-- Node1&#45;&gt;Node13 -->
<g id="edge12_Node000001_Node000013" class="edge">
<title>Node1&#45;&gt;Node13</title>
<g id="a_edge12_Node000001_Node000013"><a xlink:title=" ">
<path fill="none" stroke="orange" stroke-dasharray="5,2" d="M116.93,-605.49C119.65,-605.05 122.35,-604.66 125,-604.33 199.29,-594.95 285.26,-593.84 343.39,-594.52"/>
<polygon fill="orange" stroke="orange" points="116.28,-602.05 107.04,-607.23 117.5,-608.94 116.28,-602.05"/>
</a>
</g>
<text text-anchor="start" x="154" y="-609.83" font-family="Helvetica,sans-Serif" font-size="10.00" fill="grey">&lt; Operation *, Block * &gt;</text>
</g>
<!-- Node14 -->
<g id="Node000014" class="node">
<title>Node14</title>
<g id="a_Node000014"><a xlink:href="classllvm_1_1PointerUnion.html" target="_top" xlink:title=" ">
<polygon fill="white" stroke="#666666" points="483.5,-563.33 340.5,-563.33 340.5,-533.33 483.5,-533.33 483.5,-563.33"/>
<text text-anchor="start" x="348.5" y="-551.33" font-family="Helvetica,sans-Serif" font-size="10.00">llvm::PointerUnion</text>
<text text-anchor="middle" x="412" y="-540.33" font-family="Helvetica,sans-Serif" font-size="10.00">&lt; SymbolRefAttr, Value &gt;</text>
</a>
</g>
</g>
<!-- Node1&#45;&gt;Node14 -->
<g id="edge13_Node000001_Node000014" class="edge">
<title>Node1&#45;&gt;Node14</title>
<g id="a_edge13_Node000001_Node000014"><a xlink:title=" ">
<path fill="none" stroke="orange" stroke-dasharray="5,2" d="M79.92,-598.85C92.64,-589.34 108.76,-579.03 125,-573.33 195.43,-548.61 281.32,-544.25 340.49,-544.9"/>
<polygon fill="orange" stroke="orange" points="77.44,-596.34 71.7,-605.24 81.74,-601.87 77.44,-596.34"/>
</a>
</g>
<text text-anchor="start" x="151" y="-578.83" font-family="Helvetica,sans-Serif" font-size="10.00" fill="grey">&lt; SymbolRefAttr, Value &gt;</text>
</g>
<!-- Node15 -->
<g id="Node000015" class="node">
<title>Node15</title>
<g id="a_Node000015"><a xlink:href="classllvm_1_1PointerUnion.html" target="_top" xlink:title=" ">
<polygon fill="white" stroke="#666666" points="474,-514.83 350,-514.83 350,-473.83 474,-473.83 474,-514.83"/>
<text text-anchor="start" x="358" y="-502.83" font-family="Helvetica,sans-Serif" font-size="10.00">llvm::PointerUnion</text>
<text text-anchor="start" x="358" y="-491.83" font-family="Helvetica,sans-Serif" font-size="10.00">&lt; Operation *, Region</text>
<text text-anchor="middle" x="412" y="-480.83" font-family="Helvetica,sans-Serif" font-size="10.00"> *, Block *, Value &gt;</text>
</a>
</g>
</g>
<!-- Node1&#45;&gt;Node15 -->
<g id="edge14_Node000001_Node000015" class="edge">
<title>Node1&#45;&gt;Node15</title>
<g id="a_edge14_Node000001_Node000015"><a xlink:title=" ">
<path fill="none" stroke="orange" stroke-dasharray="5,2" d="M62.34,-595.58C72.25,-568.86 92.11,-527.55 125,-508.33 193.78,-468.13 288.52,-472.77 349.76,-481.87"/>
<polygon fill="orange" stroke="orange" points="59.03,-594.44 59.02,-605.03 65.64,-596.76 59.03,-594.44"/>
</a>
</g>
<text text-anchor="start" x="160" y="-529.33" font-family="Helvetica,sans-Serif" font-size="10.00" fill="grey">&lt; Operation *, Region</text>
<text text-anchor="start" x="160" y="-514.33" font-family="Helvetica,sans-Serif" font-size="10.00" fill="grey">   *, Block *, Value &gt;</text>
</g>
<!-- Node16 -->
<g id="Node000016" class="node">
<title>Node16</title>
<g id="a_Node000016"><a xlink:href="classllvm_1_1PointerUnion.html" target="_top" xlink:title=" ">
<polygon fill="white" stroke="#666666" points="493,-455.33 331,-455.33 331,-425.33 493,-425.33 493,-455.33"/>
<text text-anchor="start" x="339" y="-443.33" font-family="Helvetica,sans-Serif" font-size="10.00">llvm::PointerUnion</text>
<text text-anchor="middle" x="412" y="-432.33" font-family="Helvetica,sans-Serif" font-size="10.00">&lt; Value, GEPConstantIndex &gt;</text>
</a>
</g>
</g>
<!-- Node1&#45;&gt;Node16 -->
<g id="edge15_Node000001_Node000016" class="edge">
<title>Node1&#45;&gt;Node16</title>
<g id="a_edge15_Node000001_Node000016"><a xlink:title=" ">
<path fill="none" stroke="orange" stroke-dasharray="5,2" d="M57.05,-594.93C62.34,-557.1 78.25,-486.94 125,-454.33 157.11,-431.93 257.96,-431.8 330.82,-435.01"/>
<polygon fill="orange" stroke="orange" points="53.54,-594.76 55.77,-605.12 60.49,-595.63 53.54,-594.76"/>
</a>
</g>
<text text-anchor="start" x="141" y="-459.83" font-family="Helvetica,sans-Serif" font-size="10.00" fill="grey">&lt; Value, GEPConstantIndex &gt;</text>
</g>
<!-- Node17 -->
<g id="Node000017" class="node">
<title>Node17</title>
<g id="a_Node000017"><a xlink:href="classllvm_1_1PointerUnion.html" target="_top" xlink:title=" ">
<polygon fill="white" stroke="#666666" points="486.5,-406.83 337.5,-406.83 337.5,-365.83 486.5,-365.83 486.5,-406.83"/>
<text text-anchor="start" x="345.5" y="-394.83" font-family="Helvetica,sans-Serif" font-size="10.00">llvm::PointerUnion</text>
<text text-anchor="start" x="345.5" y="-383.83" font-family="Helvetica,sans-Serif" font-size="10.00">&lt; GenericLatticeAnchor</text>
<text text-anchor="middle" x="412" y="-372.83" font-family="Helvetica,sans-Serif" font-size="10.00"> *, ProgramPoint *, Value &gt;</text>
</a>
</g>
</g>
<!-- Node1&#45;&gt;Node17 -->
<g id="edge16_Node000001_Node000017" class="edge">
<title>Node1&#45;&gt;Node17</title>
<g id="a_edge16_Node000001_Node000017"><a xlink:title=" ">
<path fill="none" stroke="orange" stroke-dasharray="5,2" d="M53.89,-595.07C54.26,-547.43 62.7,-444.84 125,-397.33 185.06,-351.53 274.62,-356.24 337.48,-367.62"/>
<polygon fill="orange" stroke="orange" points="50.39,-595.16 53.92,-605.15 57.39,-595.14 50.39,-595.16"/>
</a>
</g>
<text text-anchor="start" x="145" y="-418.33" font-family="Helvetica,sans-Serif" font-size="10.00" fill="grey">&lt; GenericLatticeAnchor</text>
<text text-anchor="start" x="145" y="-403.33" font-family="Helvetica,sans-Serif" font-size="10.00" fill="grey">   *, ProgramPoint *, Value &gt;</text>
</g>
<!-- Node18 -->
<g id="Node000018" class="node">
<title>Node18</title>
<g id="a_Node000018"><a xlink:href="classllvm_1_1PointerUnion.html" target="_top" xlink:title=" ">
<polygon fill="white" stroke="#666666" points="469.5,-347.33 354.5,-347.33 354.5,-317.33 469.5,-317.33 469.5,-347.33"/>
<text text-anchor="start" x="362.5" y="-335.33" font-family="Helvetica,sans-Serif" font-size="10.00">llvm::PointerUnion</text>
<text text-anchor="middle" x="412" y="-324.33" font-family="Helvetica,sans-Serif" font-size="10.00">&lt; Attribute, Value &gt;</text>
</a>
</g>
</g>
<!-- Node1&#45;&gt;Node18 -->
<g id="edge17_Node000001_Node000018" class="edge">
<title>Node1&#45;&gt;Node18</title>
<g id="a_edge17_Node000001_Node000018"><a xlink:title=" ">
<path fill="none" stroke="orange" stroke-dasharray="5,2" d="M56.99,-594.78C63.74,-531.56 84.62,-370.54 125,-338.33 159.12,-311.11 281.18,-318.44 354.36,-325.7"/>
<polygon fill="orange" stroke="orange" points="53.48,-594.76 55.93,-605.07 60.44,-595.48 53.48,-594.76"/>
</a>
</g>
<text text-anchor="start" x="165" y="-343.83" font-family="Helvetica,sans-Serif" font-size="10.00" fill="grey">&lt; Attribute, Value &gt;</text>
</g>
<!-- Node19 -->
<g id="Node000019" class="node">
<title>Node19</title>
<g id="a_Node000019"><a xlink:href="classllvm_1_1PointerUnion.html" target="_top" xlink:title=" ">
<polygon fill="white" stroke="#666666" points="472.5,-298.83 351.5,-298.83 351.5,-257.83 472.5,-257.83 472.5,-298.83"/>
<text text-anchor="start" x="359.5" y="-286.83" font-family="Helvetica,sans-Serif" font-size="10.00">llvm::PointerUnion</text>
<text text-anchor="start" x="359.5" y="-275.83" font-family="Helvetica,sans-Serif" font-size="10.00">&lt; mlir::Region *, mlir</text>
<text text-anchor="middle" x="412" y="-264.83" font-family="Helvetica,sans-Serif" font-size="10.00">::Operation * &gt;</text>
</a>
</g>
</g>
<!-- Node1&#45;&gt;Node19 -->
<g id="edge18_Node000001_Node000019" class="edge">
<title>Node1&#45;&gt;Node19</title>
<g id="a_edge18_Node000001_Node000019"><a xlink:title=" ">
<path fill="none" stroke="orange" stroke-dasharray="5,2" d="M55.85,-594.68C60.22,-522.83 76.6,-322.24 125,-282.33 158.24,-254.92 277.79,-262.83 351.39,-270.77"/>
<polygon fill="orange" stroke="orange" points="52.33,-594.87 55.25,-605.06 59.32,-595.28 52.33,-594.87"/>
</a>
</g>
<text text-anchor="start" x="162" y="-303.33" font-family="Helvetica,sans-Serif" font-size="10.00" fill="grey">&lt; mlir::Region *, mlir</text>
<text text-anchor="start" x="162" y="-288.33" font-family="Helvetica,sans-Serif" font-size="10.00" fill="grey">  ::Operation * &gt;</text>
</g>
<!-- Node20 -->
<g id="Node000020" class="node">
<title>Node20</title>
<g id="a_Node000020"><a xlink:href="classllvm_1_1PointerUnion.html" target="_top" xlink:title=" ">
<polygon fill="white" stroke="#666666" points="498.5,-239.83 325.5,-239.83 325.5,-198.83 498.5,-198.83 498.5,-239.83"/>
<text text-anchor="start" x="333.5" y="-227.83" font-family="Helvetica,sans-Serif" font-size="10.00">llvm::PointerUnion</text>
<text text-anchor="start" x="333.5" y="-216.83" font-family="Helvetica,sans-Serif" font-size="10.00">&lt; mlir::ShapedTypeComponents</text>
<text text-anchor="middle" x="412" y="-205.83" font-family="Helvetica,sans-Serif" font-size="10.00"> *, mlir::Type, mlir::Attribute &gt;</text>
</a>
</g>
</g>
<!-- Node1&#45;&gt;Node20 -->
<g id="edge19_Node000001_Node000020" class="edge">
<title>Node1&#45;&gt;Node20</title>
<g id="a_edge19_Node000001_Node000020"><a xlink:title=" ">
<path fill="none" stroke="orange" stroke-dasharray="5,2" d="M55.05,-594.77C57.33,-515.23 68.84,-274.51 125,-226.33 154.07,-201.39 251.94,-203.96 325.15,-209.95"/>
<polygon fill="orange" stroke="orange" points="51.54,-594.8 54.78,-604.89 58.54,-594.99 51.54,-594.8"/>
</a>
</g>
<text text-anchor="start" x="136" y="-247.33" font-family="Helvetica,sans-Serif" font-size="10.00" fill="grey">&lt; mlir::ShapedTypeComponents</text>
<text text-anchor="start" x="136" y="-232.33" font-family="Helvetica,sans-Serif" font-size="10.00" fill="grey">   *, mlir::Type, mlir::Attribute &gt;</text>
</g>
<!-- Node21 -->
<g id="Node000021" class="node">
<title>Node21</title>
<g id="a_Node000021"><a xlink:href="classllvm_1_1PointerUnion.html" target="_top" xlink:title=" ">
<polygon fill="white" stroke="#666666" points="494,-180.33 330,-180.33 330,-128.33 494,-128.33 494,-180.33"/>
<text text-anchor="start" x="338" y="-168.33" font-family="Helvetica,sans-Serif" font-size="10.00">llvm::PointerUnion</text>
<text text-anchor="start" x="338" y="-157.33" font-family="Helvetica,sans-Serif" font-size="10.00">&lt; SymbolRefAttr, mlir</text>
<text text-anchor="start" x="338" y="-146.33" font-family="Helvetica,sans-Serif" font-size="10.00">::OpOperand *, mlir::OpResult,</text>
<text text-anchor="middle" x="412" y="-135.33" font-family="Helvetica,sans-Serif" font-size="10.00"> mlir::BlockArgument &gt;</text>
</a>
</g>
</g>
<!-- Node1&#45;&gt;Node21 -->
<g id="edge20_Node000001_Node000021" class="edge">
<title>Node1&#45;&gt;Node21</title>
<g id="a_edge20_Node000001_Node000021"><a xlink:title=" ">
<path fill="none" stroke="orange" stroke-dasharray="5,2" d="M54.22,-594.88C53.85,-506.07 57.78,-212.15 125,-154.33 154.64,-128.83 256.07,-134.71 329.73,-143"/>
<polygon fill="orange" stroke="orange" points="50.72,-595.14 54.29,-605.11 57.72,-595.09 50.72,-595.14"/>
</a>
</g>
<text text-anchor="start" x="130" y="-189.83" font-family="Helvetica,sans-Serif" font-size="10.00" fill="grey">&lt; SymbolRefAttr, mlir</text>
<text text-anchor="start" x="130" y="-174.83" font-family="Helvetica,sans-Serif" font-size="10.00" fill="grey">  ::OpOperand *, mlir::</text>
<text text-anchor="start" x="130" y="-159.83" font-family="Helvetica,sans-Serif" font-size="10.00" fill="grey">  OpResult, mlir::BlockArgument &gt;</text>
</g>
<!-- Node22 -->
<g id="Node000022" class="node">
<title>Node22</title>
<g id="a_Node000022"><a xlink:href="classllvm_1_1PointerUnion.html" target="_top" xlink:title=" ">
<polygon fill="white" stroke="#666666" points="473,-109.83 351,-109.83 351,-68.83 473,-68.83 473,-109.83"/>
<text text-anchor="start" x="359" y="-97.83" font-family="Helvetica,sans-Serif" font-size="10.00">llvm::PointerUnion</text>
<text text-anchor="start" x="359" y="-86.83" font-family="Helvetica,sans-Serif" font-size="10.00">&lt; mlir::Attribute, mlir</text>
<text text-anchor="middle" x="412" y="-75.83" font-family="Helvetica,sans-Serif" font-size="10.00">::Type &gt;</text>
</a>
</g>
</g>
<!-- Node1&#45;&gt;Node22 -->
<g id="edge21_Node000001_Node000022" class="edge">
<title>Node1&#45;&gt;Node22</title>
<g id="a_edge21_Node000001_Node000022"><a xlink:title=" ">
<path fill="none" stroke="orange" stroke-dasharray="5,2" d="M56.04,-594.98C62.35,-495.17 87.7,-133.09 125,-99.33 156.95,-70.41 276.96,-76.09 350.99,-82.76"/>
<polygon fill="orange" stroke="orange" points="52.54,-594.87 55.41,-605.07 59.53,-595.3 52.54,-594.87"/>
</a>
</g>
<text text-anchor="start" x="173" y="-120.33" font-family="Helvetica,sans-Serif" font-size="10.00" fill="grey">&lt; mlir::Attribute,</text>
<text text-anchor="start" x="173" y="-105.33" font-family="Helvetica,sans-Serif" font-size="10.00" fill="grey">   mlir::Type &gt;</text>
</g>
<!-- Node23 -->
<g id="Node000023" class="node">
<title>Node23</title>
<g id="a_Node000023"><a xlink:href="classllvm_1_1PointerUnion.html" target="_top" xlink:title=" ">
<polygon fill="white" stroke="#666666" points="503,-50.83 321,-50.83 321,-9.83 503,-9.83 503,-50.83"/>
<text text-anchor="start" x="329" y="-38.83" font-family="Helvetica,sans-Serif" font-size="10.00">llvm::PointerUnion</text>
<text text-anchor="start" x="329" y="-27.83" font-family="Helvetica,sans-Serif" font-size="10.00">&lt; mlir::detail::NestedAnalysis</text>
<text text-anchor="middle" x="412" y="-16.83" font-family="Helvetica,sans-Serif" font-size="10.00">Map *, mlir::PassInstrumentor * &gt;</text>
</a>
</g>
</g>
<!-- Node1&#45;&gt;Node23 -->
<g id="edge22_Node000001_Node000023" class="edge">
<title>Node1&#45;&gt;Node23</title>
<g id="a_edge22_Node000001_Node000023"><a xlink:title=" ">
<path fill="none" stroke="orange" stroke-dasharray="5,2" d="M55.69,-595.01C60.96,-488.5 83.71,-80.46 125,-42.33 181.22,9.6 273.3,3.39 337.75,-9.8"/>
<polygon fill="orange" stroke="orange" points="52.19,-595 55.2,-605.16 59.18,-595.34 52.19,-595"/>
</a>
</g>
<text text-anchor="start" x="128" y="-63.33" font-family="Helvetica,sans-Serif" font-size="10.00" fill="grey">&lt; mlir::detail::NestedAnalysis</text>
<text text-anchor="start" x="128" y="-48.33" font-family="Helvetica,sans-Serif" font-size="10.00" fill="grey">  Map *, mlir::PassInstrumentor * &gt;</text>
</g>
</g>
</svg>
