<?xml version="1.0" encoding="UTF-8" standalone="no"?>
<!DOCTYPE svg PUBLIC "-//W3C//DTD SVG 1.1//EN"
 "http://www.w3.org/Graphics/SVG/1.1/DTD/svg11.dtd">
<!-- Generated by graphviz version 2.43.0 (0)
 -->
<!-- Title: mlir::python::BaseContextObject Pages: 1 -->
<svg width="1071pt" height="392pt"
 viewBox="0.00 0.00 1071.00 391.50" xmlns="http://www.w3.org/2000/svg" xmlns:xlink="http://www.w3.org/1999/xlink">
<g id="graph0" class="graph" transform="scale(1 1) rotate(0) translate(4 387.5)">
<title>mlir::python::BaseContextObject</title>
<!-- Node1 -->
<g id="Node000001" class="node">
<title>Node1</title>
<g id="a_Node000001"><a xlink:title="Base class for all objects that directly or indirectly depend on an MlirContext.">
<polygon fill="#999999" stroke="#666666" points="144,-222 0,-222 0,-192 144,-192 144,-222"/>
<text text-anchor="start" x="8" y="-210" font-family="Helvetica,sans-Serif" font-size="10.00">mlir::python::BaseContext</text>
<text text-anchor="middle" x="72" y="-199" font-family="Helvetica,sans-Serif" font-size="10.00">Object</text>
</a>
</g>
</g>
<!-- Node2 -->
<g id="Node000002" class="node">
<title>Node2</title>
<g id="a_Node000002"><a xlink:href="classmlir_1_1python_1_1PyAffineExpr.html" target="_top" xlink:title="Wrapper around MlirAffineExpr. Affine expressions are owned by the context.">
<polygon fill="white" stroke="#666666" points="342.5,-383.5 198.5,-383.5 198.5,-364.5 342.5,-364.5 342.5,-383.5"/>
<text text-anchor="middle" x="270.5" y="-371.5" font-family="Helvetica,sans-Serif" font-size="10.00">mlir::python::PyAffineExpr</text>
</a>
</g>
</g>
<!-- Node1&#45;&gt;Node2 -->
<g id="edge1_Node000001_Node000002" class="edge">
<title>Node1&#45;&gt;Node2</title>
<g id="a_edge1_Node000001_Node000002"><a xlink:title=" ">
<path fill="none" stroke="#63b8ff" d="M83.55,-231.27C99.5,-264.94 133.08,-325.14 181,-356 186.27,-359.4 192.06,-362.17 198.07,-364.43"/>
<polygon fill="#63b8ff" stroke="#63b8ff" points="86.7,-229.75 79.34,-222.13 80.34,-232.68 86.7,-229.75"/>
</a>
</g>
</g>
<!-- Node3 -->
<g id="Node000003" class="node">
<title>Node3</title>
<g id="a_Node000003"><a xlink:href="classmlir_1_1python_1_1PyAffineMap.html" target="_top" xlink:title=" ">
<polygon fill="white" stroke="#666666" points="342,-346.5 199,-346.5 199,-327.5 342,-327.5 342,-346.5"/>
<text text-anchor="middle" x="270.5" y="-334.5" font-family="Helvetica,sans-Serif" font-size="10.00">mlir::python::PyAffineMap</text>
</a>
</g>
</g>
<!-- Node1&#45;&gt;Node3 -->
<g id="edge2_Node000001_Node000003" class="edge">
<title>Node1&#45;&gt;Node3</title>
<g id="a_edge2_Node000001_Node000003"><a xlink:title=" ">
<path fill="none" stroke="#63b8ff" d="M88.96,-230.61C107.8,-256.55 141.6,-297.37 181,-319 187.18,-322.4 193.93,-325.15 200.85,-327.39"/>
<polygon fill="#63b8ff" stroke="#63b8ff" points="91.57,-228.25 82.93,-222.12 85.86,-232.3 91.57,-228.25"/>
</a>
</g>
</g>
<!-- Node4 -->
<g id="Node000004" class="node">
<title>Node4</title>
<g id="a_Node000004"><a xlink:href="classmlir_1_1python_1_1PyAttribute.html" target="_top" xlink:title="Wrapper around the generic MlirAttribute.">
<polygon fill="white" stroke="#666666" points="339,-309.5 202,-309.5 202,-290.5 339,-290.5 339,-309.5"/>
<text text-anchor="middle" x="270.5" y="-297.5" font-family="Helvetica,sans-Serif" font-size="10.00">mlir::python::PyAttribute</text>
</a>
</g>
</g>
<!-- Node1&#45;&gt;Node4 -->
<g id="edge3_Node000001_Node000004" class="edge">
<title>Node1&#45;&gt;Node4</title>
<g id="a_edge3_Node000001_Node000004"><a xlink:title=" ">
<path fill="none" stroke="#63b8ff" d="M97.73,-228.59C118.56,-245.63 149.87,-268.7 181,-282 188.93,-285.39 197.54,-288.15 206.17,-290.4"/>
<polygon fill="#63b8ff" stroke="#63b8ff" points="99.93,-225.87 90.01,-222.15 95.45,-231.24 99.93,-225.87"/>
</a>
</g>
</g>
<!-- Node8 -->
<g id="Node000008" class="node">
<title>Node8</title>
<g id="a_Node000008"><a xlink:href="classmlir_1_1python_1_1PyDialectDescriptor.html" target="_top" xlink:title="Wrapper around an MlirDialect.">
<polygon fill="white" stroke="#666666" points="360,-272.5 181,-272.5 181,-253.5 360,-253.5 360,-272.5"/>
<text text-anchor="middle" x="270.5" y="-260.5" font-family="Helvetica,sans-Serif" font-size="10.00">mlir::python::PyDialectDescriptor</text>
</a>
</g>
</g>
<!-- Node1&#45;&gt;Node8 -->
<g id="edge8_Node000001_Node000008" class="edge">
<title>Node1&#45;&gt;Node8</title>
<g id="a_edge8_Node000001_Node000008"><a xlink:title=" ">
<path fill="none" stroke="#63b8ff" d="M120.99,-225.48C139.56,-232.21 161.1,-239.5 181,-245 192.33,-248.13 204.62,-250.97 216.34,-253.42"/>
<polygon fill="#63b8ff" stroke="#63b8ff" points="122.17,-222.19 111.58,-222.03 119.76,-228.76 122.17,-222.19"/>
</a>
</g>
</g>
<!-- Node9 -->
<g id="Node000009" class="node">
<title>Node9</title>
<g id="a_Node000009"><a xlink:href="classmlir_1_1python_1_1PyDialects.html" target="_top" xlink:title="User&#45;level object for accessing dialects with dotted syntax such as: ctx.dialect.std.">
<polygon fill="white" stroke="#666666" points="337.5,-235.5 203.5,-235.5 203.5,-216.5 337.5,-216.5 337.5,-235.5"/>
<text text-anchor="middle" x="270.5" y="-223.5" font-family="Helvetica,sans-Serif" font-size="10.00">mlir::python::PyDialects</text>
</a>
</g>
</g>
<!-- Node1&#45;&gt;Node9 -->
<g id="edge9_Node000001_Node000009" class="edge">
<title>Node1&#45;&gt;Node9</title>
<g id="a_edge9_Node000001_Node000009"><a xlink:title=" ">
<path fill="none" stroke="#63b8ff" d="M154.3,-214.86C170.66,-216.44 187.67,-218.09 203.43,-219.61"/>
<polygon fill="#63b8ff" stroke="#63b8ff" points="154.51,-211.37 144.22,-213.89 153.84,-218.33 154.51,-211.37"/>
</a>
</g>
</g>
<!-- Node10 -->
<g id="Node000010" class="node">
<title>Node10</title>
<g id="a_Node000010"><a xlink:href="classmlir_1_1python_1_1PyIntegerSet.html" target="_top" xlink:title=" ">
<polygon fill="white" stroke="#666666" points="342.5,-198.5 198.5,-198.5 198.5,-179.5 342.5,-179.5 342.5,-198.5"/>
<text text-anchor="middle" x="270.5" y="-186.5" font-family="Helvetica,sans-Serif" font-size="10.00">mlir::python::PyIntegerSet</text>
</a>
</g>
</g>
<!-- Node1&#45;&gt;Node10 -->
<g id="edge10_Node000001_Node000010" class="edge">
<title>Node1&#45;&gt;Node10</title>
<g id="a_edge10_Node000001_Node000010"><a xlink:title=" ">
<path fill="none" stroke="#63b8ff" d="M154.22,-199.56C168.81,-198.22 183.91,-196.84 198.19,-195.53"/>
<polygon fill="#63b8ff" stroke="#63b8ff" points="153.86,-196.08 144.22,-200.48 154.5,-203.05 153.86,-196.08"/>
</a>
</g>
</g>
<!-- Node11 -->
<g id="Node000011" class="node">
<title>Node11</title>
<g id="a_Node000011"><a xlink:href="classmlir_1_1python_1_1PyLocation.html" target="_top" xlink:title="Wrapper around an MlirLocation.">
<polygon fill="white" stroke="#666666" points="338,-161.5 203,-161.5 203,-142.5 338,-142.5 338,-161.5"/>
<text text-anchor="middle" x="270.5" y="-149.5" font-family="Helvetica,sans-Serif" font-size="10.00">mlir::python::PyLocation</text>
</a>
</g>
</g>
<!-- Node1&#45;&gt;Node11 -->
<g id="edge11_Node000001_Node000011" class="edge">
<title>Node1&#45;&gt;Node11</title>
<g id="a_edge11_Node000001_Node000011"><a xlink:title=" ">
<path fill="none" stroke="#63b8ff" d="M124.12,-188.67C141.99,-182.61 162.26,-176.12 181,-171 193.58,-167.56 207.31,-164.36 220.11,-161.6"/>
<polygon fill="#63b8ff" stroke="#63b8ff" points="122.79,-185.43 114.47,-191.98 125.07,-192.05 122.79,-185.43"/>
</a>
</g>
</g>
<!-- Node12 -->
<g id="Node000012" class="node">
<title>Node12</title>
<g id="a_Node000012"><a xlink:href="classmlir_1_1python_1_1PyModule.html" target="_top" xlink:title=" ">
<polygon fill="white" stroke="#666666" points="335.5,-124.5 205.5,-124.5 205.5,-105.5 335.5,-105.5 335.5,-124.5"/>
<text text-anchor="middle" x="270.5" y="-112.5" font-family="Helvetica,sans-Serif" font-size="10.00">mlir::python::PyModule</text>
</a>
</g>
</g>
<!-- Node1&#45;&gt;Node12 -->
<g id="edge12_Node000001_Node000012" class="edge">
<title>Node1&#45;&gt;Node12</title>
<g id="a_edge12_Node000001_Node000012"><a xlink:title=" ">
<path fill="none" stroke="#63b8ff" d="M98.89,-185.29C119.79,-168.85 150.63,-146.95 181,-134 189.96,-130.18 199.78,-127.1 209.5,-124.61"/>
<polygon fill="#63b8ff" stroke="#63b8ff" points="96.46,-182.75 90.85,-191.74 100.84,-188.22 96.46,-182.75"/>
</a>
</g>
</g>
<!-- Node13 -->
<g id="Node000013" class="node">
<title>Node13</title>
<g id="a_Node000013"><a xlink:href="classmlir_1_1python_1_1PyOperation.html" target="_top" xlink:title=" ">
<polygon fill="white" stroke="#666666" points="341.5,-87.5 199.5,-87.5 199.5,-68.5 341.5,-68.5 341.5,-87.5"/>
<text text-anchor="middle" x="270.5" y="-75.5" font-family="Helvetica,sans-Serif" font-size="10.00">mlir::python::PyOperation</text>
</a>
</g>
</g>
<!-- Node1&#45;&gt;Node13 -->
<g id="edge13_Node000001_Node000013" class="edge">
<title>Node1&#45;&gt;Node13</title>
<g id="a_edge13_Node000001_Node000013"><a xlink:title=" ">
<path fill="none" stroke="#63b8ff" d="M89.4,-183.48C108.43,-158.07 142.2,-118.35 181,-97 188.02,-93.14 195.76,-90.06 203.65,-87.61"/>
<polygon fill="#63b8ff" stroke="#63b8ff" points="86.38,-181.68 83.3,-191.82 92.03,-185.81 86.38,-181.68"/>
</a>
</g>
</g>
<!-- Node14 -->
<g id="Node000014" class="node">
<title>Node14</title>
<g id="a_Node000014"><a xlink:href="classmlir_1_1python_1_1PyType.html" target="_top" xlink:title="Wrapper around the generic MlirType.">
<polygon fill="white" stroke="#666666" points="328.5,-50.5 212.5,-50.5 212.5,-31.5 328.5,-31.5 328.5,-50.5"/>
<text text-anchor="middle" x="270.5" y="-38.5" font-family="Helvetica,sans-Serif" font-size="10.00">mlir::python::PyType</text>
</a>
</g>
</g>
<!-- Node1&#45;&gt;Node14 -->
<g id="edge14_Node000001_Node000014" class="edge">
<title>Node1&#45;&gt;Node14</title>
<g id="a_edge14_Node000001_Node000014"><a xlink:title=" ">
<path fill="none" stroke="#63b8ff" d="M83.93,-182.61C100.14,-149.38 133.81,-90.53 181,-60 190.37,-53.94 201.35,-49.78 212.32,-46.93"/>
<polygon fill="#63b8ff" stroke="#63b8ff" points="80.77,-181.12 79.64,-191.65 87.09,-184.12 80.77,-181.12"/>
</a>
</g>
</g>
<!-- Node5 -->
<g id="Node000005" class="node">
<title>Node5</title>
<g id="a_Node000005"><a xlink:href="classmlir_1_1python_1_1PyConcreteAttribute.html" target="_top" xlink:title=" ">
<polygon fill="white" stroke="#666666" points="861,-322 696,-322 696,-292 861,-292 861,-322"/>
<text text-anchor="start" x="704" y="-310" font-family="Helvetica,sans-Serif" font-size="10.00">mlir::python::PyConcrete</text>
<text text-anchor="middle" x="778.5" y="-299" font-family="Helvetica,sans-Serif" font-size="10.00">Attribute&lt; PyStringAttribute &gt;</text>
</a>
</g>
</g>
<!-- Node4&#45;&gt;Node5 -->
<g id="edge4_Node000004_Node000005" class="edge">
<title>Node4&#45;&gt;Node5</title>
<g id="a_edge4_Node000004_Node000005"><a xlink:title=" ">
<path fill="none" stroke="#63b8ff" d="M349.32,-303.75C431.13,-307.26 563.6,-311.72 678,-310 683.79,-309.91 689.77,-309.8 695.78,-309.66"/>
<polygon fill="#63b8ff" stroke="#63b8ff" points="349.25,-300.24 339.1,-303.3 348.94,-307.23 349.25,-300.24"/>
</a>
</g>
</g>
<!-- Node7 -->
<g id="Node000007" class="node">
<title>Node7</title>
<g id="a_Node000007"><a xlink:href="classmlir_1_1python_1_1PyConcreteAttribute.html" target="_top" xlink:title="CRTP base classes for Python attributes that subclass Attribute and should be castable from it (i....">
<polygon fill="white" stroke="#666666" points="541,-295.5 404,-295.5 404,-254.5 541,-254.5 541,-295.5"/>
<text text-anchor="start" x="412" y="-283.5" font-family="Helvetica,sans-Serif" font-size="10.00">mlir::python::PyConcrete</text>
<text text-anchor="start" x="412" y="-272.5" font-family="Helvetica,sans-Serif" font-size="10.00">Attribute&lt; DerivedTy,</text>
<text text-anchor="middle" x="472.5" y="-261.5" font-family="Helvetica,sans-Serif" font-size="10.00"> BaseTy &gt;</text>
</a>
</g>
</g>
<!-- Node4&#45;&gt;Node7 -->
<g id="edge6_Node000004_Node000007" class="edge">
<title>Node4&#45;&gt;Node7</title>
<g id="a_edge6_Node000004_Node000007"><a xlink:title=" ">
<path fill="none" stroke="#63b8ff" d="M349.37,-290.27C367.36,-288.02 386.35,-285.64 403.86,-283.46"/>
<polygon fill="#63b8ff" stroke="#63b8ff" points="348.7,-286.82 339.21,-291.54 349.57,-293.77 348.7,-286.82"/>
</a>
</g>
</g>
<!-- Node6 -->
<g id="Node000006" class="node">
<title>Node6</title>
<g id="a_Node000006"><a xlink:href="classmlir_1_1python_1_1PyStringAttribute.html" target="_top" xlink:title=" ">
<polygon fill="white" stroke="#666666" points="1063,-316.5 898,-316.5 898,-297.5 1063,-297.5 1063,-316.5"/>
<text text-anchor="middle" x="980.5" y="-304.5" font-family="Helvetica,sans-Serif" font-size="10.00">mlir::python::PyStringAttribute</text>
</a>
</g>
</g>
<!-- Node5&#45;&gt;Node6 -->
<g id="edge5_Node000005_Node000006" class="edge">
<title>Node5&#45;&gt;Node6</title>
<g id="a_edge5_Node000005_Node000006"><a xlink:title=" ">
<path fill="none" stroke="#63b8ff" d="M871.41,-307C880.22,-307 889.1,-307 897.8,-307"/>
<polygon fill="#63b8ff" stroke="#63b8ff" points="871.14,-303.5 861.14,-307 871.14,-310.5 871.14,-303.5"/>
</a>
</g>
</g>
<!-- Node7&#45;&gt;Node5 -->
<g id="edge7_Node000007_Node000005" class="edge">
<title>Node7&#45;&gt;Node5</title>
<g id="a_edge7_Node000007_Node000005"><a xlink:title=" ">
<path fill="none" stroke="orange" stroke-dasharray="5,2" d="M551.32,-280.89C589.54,-284.03 636.23,-288.23 678,-293 683.81,-293.66 689.8,-294.39 695.82,-295.16"/>
<polygon fill="orange" stroke="orange" points="551.54,-277.4 541.29,-280.08 550.97,-284.38 551.54,-277.4"/>
</a>
</g>
<text text-anchor="start" x="569" y="-298.5" font-family="Helvetica,sans-Serif" font-size="10.00" fill="grey">&lt; PyStringAttribute &gt;</text>
</g>
<!-- Node15 -->
<g id="Node000015" class="node">
<title>Node15</title>
<g id="a_Node000015"><a xlink:href="classmlir_1_1python_1_1PyConcreteType.html" target="_top" xlink:title=" ">
<polygon fill="white" stroke="#666666" points="847,-57 710,-57 710,-27 847,-27 847,-57"/>
<text text-anchor="start" x="718" y="-45" font-family="Helvetica,sans-Serif" font-size="10.00">mlir::python::PyConcrete</text>
<text text-anchor="middle" x="778.5" y="-34" font-family="Helvetica,sans-Serif" font-size="10.00">Type&lt; PyShapedType &gt;</text>
</a>
</g>
</g>
<!-- Node14&#45;&gt;Node15 -->
<g id="edge15_Node000014_Node000015" class="edge">
<title>Node14&#45;&gt;Node15</title>
<g id="a_edge15_Node000014_Node000015"><a xlink:title=" ">
<path fill="none" stroke="#63b8ff" d="M338.74,-42.21C419.35,-43.5 558.55,-45.2 678,-44 688.28,-43.9 699.16,-43.73 709.8,-43.54"/>
<polygon fill="#63b8ff" stroke="#63b8ff" points="338.78,-38.71 328.72,-42.05 338.66,-45.71 338.78,-38.71"/>
</a>
</g>
</g>
<!-- Node17 -->
<g id="Node000017" class="node">
<title>Node17</title>
<g id="a_Node000017"><a xlink:href="classmlir_1_1python_1_1PyConcreteType.html" target="_top" xlink:title="CRTP base classes for Python types that subclass Type and should be castable from it (i....">
<polygon fill="white" stroke="#666666" points="548,-30 397,-30 397,0 548,0 548,-30"/>
<text text-anchor="start" x="405" y="-18" font-family="Helvetica,sans-Serif" font-size="10.00">mlir::python::PyConcrete</text>
<text text-anchor="middle" x="472.5" y="-7" font-family="Helvetica,sans-Serif" font-size="10.00">Type&lt; DerivedTy, BaseTy &gt;</text>
</a>
</g>
</g>
<!-- Node14&#45;&gt;Node17 -->
<g id="edge17_Node000014_Node000017" class="edge">
<title>Node14&#45;&gt;Node17</title>
<g id="a_edge17_Node000014_Node000017"><a xlink:title=" ">
<path fill="none" stroke="#63b8ff" d="M338.72,-32.26C357.38,-29.84 377.76,-27.19 396.82,-24.71"/>
<polygon fill="#63b8ff" stroke="#63b8ff" points="338.01,-28.82 328.54,-33.58 338.91,-35.77 338.01,-28.82"/>
</a>
</g>
</g>
<!-- Node16 -->
<g id="Node000016" class="node">
<title>Node16</title>
<g id="a_Node000016"><a xlink:href="classmlir_1_1PyShapedType.html" target="_top" xlink:title="Shaped Type Interface &#45; ShapedType.">
<polygon fill="white" stroke="#666666" points="1037,-51.5 924,-51.5 924,-32.5 1037,-32.5 1037,-51.5"/>
<text text-anchor="middle" x="980.5" y="-39.5" font-family="Helvetica,sans-Serif" font-size="10.00">mlir::PyShapedType</text>
</a>
</g>
</g>
<!-- Node15&#45;&gt;Node16 -->
<g id="edge16_Node000015_Node000016" class="edge">
<title>Node15&#45;&gt;Node16</title>
<g id="a_edge16_Node000015_Node000016"><a xlink:title=" ">
<path fill="none" stroke="#63b8ff" d="M857.29,-42C879.49,-42 903.23,-42 923.82,-42"/>
<polygon fill="#63b8ff" stroke="#63b8ff" points="857.21,-38.5 847.21,-42 857.21,-45.5 857.21,-38.5"/>
</a>
</g>
</g>
<!-- Node17&#45;&gt;Node15 -->
<g id="edge18_Node000017_Node000015" class="edge">
<title>Node17&#45;&gt;Node15</title>
<g id="a_edge18_Node000017_Node000015"><a xlink:title=" ">
<path fill="none" stroke="orange" stroke-dasharray="5,2" d="M558.61,-18.26C595.39,-20.12 638.88,-22.91 678,-27 688.34,-28.08 699.25,-29.47 709.9,-30.96"/>
<polygon fill="orange" stroke="orange" points="558.58,-14.75 548.42,-17.76 558.24,-21.75 558.58,-14.75"/>
</a>
</g>
<text text-anchor="start" x="575" y="-32.5" font-family="Helvetica,sans-Serif" font-size="10.00" fill="grey">&lt; PyShapedType &gt;</text>
</g>
</g>
</svg>
