<?xml version="1.0" encoding="UTF-8" standalone="no"?>
<!DOCTYPE svg PUBLIC "-//W3C//DTD SVG 1.1//EN"
 "http://www.w3.org/Graphics/SVG/1.1/DTD/svg11.dtd">
<!-- Generated by graphviz version 2.43.0 (0)
 -->
<!-- Title: mlir::pdll::ast::TypeRangeType Pages: 1 -->
<svg width="296pt" height="299pt"
 viewBox="0.00 0.00 295.50 299.00" xmlns="http://www.w3.org/2000/svg" xmlns:xlink="http://www.w3.org/1999/xlink">
<g id="graph0" class="graph" transform="scale(1 1) rotate(0) translate(4 295)">
<title>mlir::pdll::ast::TypeRangeType</title>
<!-- Node1 -->
<g id="node1" class="node">
<title>Node1</title>
<g id="a_node1"><a xlink:title="This class represents a PDLL type that corresponds to an mlir::TypeRange.">
<polygon fill="#bfbfbf" stroke="black" points="2,-0.5 2,-19.5 165,-19.5 165,-0.5 2,-0.5"/>
<text text-anchor="middle" x="83.5" y="-7.5" font-family="Helvetica,sans-Serif" font-size="10.00">mlir::pdll::ast::TypeRangeType</text>
</a>
</g>
</g>
<!-- Node2 -->
<g id="node2" class="node">
<title>Node2</title>
<g id="a_node2"><a xlink:href="classmlir_1_1pdll_1_1ast_1_1RangeType.html" target="_top" xlink:title="This class represents a PDLL type that corresponds to a range of elements with a given element type.">
<polygon fill="none" stroke="black" points="13.5,-57.5 13.5,-76.5 153.5,-76.5 153.5,-57.5 13.5,-57.5"/>
<text text-anchor="middle" x="83.5" y="-64.5" font-family="Helvetica,sans-Serif" font-size="10.00">mlir::pdll::ast::RangeType</text>
</a>
</g>
</g>
<!-- Node2&#45;&gt;Node1 -->
<g id="edge1" class="edge">
<title>Node2&#45;&gt;Node1</title>
<path fill="none" stroke="midnightblue" d="M83.5,-47.12C83.5,-37.82 83.5,-27.06 83.5,-19.71"/>
<polygon fill="midnightblue" stroke="midnightblue" points="80,-47.41 83.5,-57.41 87,-47.41 80,-47.41"/>
</g>
<!-- Node3 -->
<g id="node3" class="node">
<title>Node3</title>
<g id="a_node3"><a xlink:href="classmlir_1_1pdll_1_1ast_1_1Type_1_1TypeBase.html" target="_top" xlink:title=" ">
<polygon fill="none" stroke="black" points="0,-114.5 0,-155.5 167,-155.5 167,-114.5 0,-114.5"/>
<text text-anchor="start" x="8" y="-143.5" font-family="Helvetica,sans-Serif" font-size="10.00">mlir::pdll::ast::Type</text>
<text text-anchor="start" x="8" y="-132.5" font-family="Helvetica,sans-Serif" font-size="10.00">::TypeBase&lt; detail::RangeType</text>
<text text-anchor="middle" x="83.5" y="-121.5" font-family="Helvetica,sans-Serif" font-size="10.00">Storage &gt;</text>
</a>
</g>
</g>
<!-- Node3&#45;&gt;Node2 -->
<g id="edge2" class="edge">
<title>Node3&#45;&gt;Node2</title>
<path fill="none" stroke="midnightblue" d="M83.5,-104.12C83.5,-94.17 83.5,-83.84 83.5,-76.79"/>
<polygon fill="midnightblue" stroke="midnightblue" points="80,-104.2 83.5,-114.2 87,-104.2 80,-104.2"/>
</g>
<!-- Node4 -->
<g id="node4" class="node">
<title>Node4</title>
<g id="a_node4"><a xlink:href="classmlir_1_1pdll_1_1ast_1_1Type.html" target="_top" xlink:title=" ">
<polygon fill="none" stroke="black" points="24.5,-271.5 24.5,-290.5 134.5,-290.5 134.5,-271.5 24.5,-271.5"/>
<text text-anchor="middle" x="79.5" y="-278.5" font-family="Helvetica,sans-Serif" font-size="10.00">mlir::pdll::ast::Type</text>
</a>
</g>
</g>
<!-- Node4&#45;&gt;Node3 -->
<g id="edge3" class="edge">
<title>Node4&#45;&gt;Node3</title>
<path fill="none" stroke="midnightblue" d="M80.02,-261.26C80.78,-233.92 82.19,-183.32 82.96,-155.53"/>
<polygon fill="midnightblue" stroke="midnightblue" points="76.52,-261.33 79.74,-271.42 83.51,-261.52 76.52,-261.33"/>
</g>
<!-- Node5 -->
<g id="node5" class="node">
<title>Node5</title>
<g id="a_node5"><a xlink:href="classmlir_1_1pdll_1_1ast_1_1Type_1_1TypeBase.html" target="_top" xlink:title="This class provides several utilities when defining derived type classes.">
<polygon fill="none" stroke="black" points="96,-203.5 96,-233.5 251,-233.5 251,-203.5 96,-203.5"/>
<text text-anchor="start" x="104" y="-221.5" font-family="Helvetica,sans-Serif" font-size="10.00">mlir::pdll::ast::Type</text>
<text text-anchor="middle" x="173.5" y="-210.5" font-family="Helvetica,sans-Serif" font-size="10.00">::TypeBase&lt; ImplT, BaseT &gt;</text>
</a>
</g>
</g>
<!-- Node4&#45;&gt;Node5 -->
<g id="edge5" class="edge">
<title>Node4&#45;&gt;Node5</title>
<path fill="none" stroke="midnightblue" d="M101.67,-265.73C116.77,-256.01 136.68,-243.2 151.71,-233.53"/>
<polygon fill="midnightblue" stroke="midnightblue" points="99.48,-262.98 92.97,-271.33 103.27,-268.86 99.48,-262.98"/>
</g>
<!-- Node5&#45;&gt;Node3 -->
<g id="edge4" class="edge">
<title>Node5&#45;&gt;Node3</title>
<path fill="none" stroke="orange" stroke-dasharray="5,2" d="M150.1,-196.31C136.18,-183.71 118.65,-167.83 105.06,-155.53"/>
<polygon fill="orange" stroke="orange" points="148.06,-199.19 157.82,-203.3 152.76,-194 148.06,-199.19"/>
<text text-anchor="middle" x="212" y="-177" font-family="Helvetica,sans-Serif" font-size="10.00"> &lt; detail::RangeTypeStorage &gt;</text>
</g>
</g>
</svg>
