<?xml version="1.0" encoding="UTF-8" standalone="no"?>
<!DOCTYPE svg PUBLIC "-//W3C//DTD SVG 1.1//EN"
 "http://www.w3.org/Graphics/SVG/1.1/DTD/svg11.dtd">
<!-- Generated by graphviz version 2.43.0 (0)
 -->
<!-- Title: mlir::LLVMTranslationDialectInterface Pages: 1 -->
<svg width="370pt" height="244pt"
 viewBox="0.00 0.00 370.00 244.00" xmlns="http://www.w3.org/2000/svg" xmlns:xlink="http://www.w3.org/1999/xlink">
<g id="graph0" class="graph" transform="scale(1 1) rotate(0) translate(4 240)">
<title>mlir::LLVMTranslationDialectInterface</title>
<!-- Node1 -->
<g id="Node000001" class="node">
<title>Node1</title>
<g id="a_Node000001"><a xlink:title="Base class for dialect interfaces providing translation to LLVM IR.">
<polygon fill="#999999" stroke="#666666" points="175.5,-30 20.5,-30 20.5,0 175.5,0 175.5,-30"/>
<text text-anchor="start" x="28.5" y="-18" font-family="Helvetica,sans-Serif" font-size="10.00">mlir::LLVMTranslationDialect</text>
<text text-anchor="middle" x="98" y="-7" font-family="Helvetica,sans-Serif" font-size="10.00">Interface</text>
</a>
</g>
</g>
<!-- Node2 -->
<g id="Node000002" class="node">
<title>Node2</title>
<g id="a_Node000002"><a xlink:href="classmlir_1_1detail_1_1DialectInterfaceBase.html" target="_top" xlink:title=" ">
<polygon fill="white" stroke="#666666" points="196,-97 0,-97 0,-67 196,-67 196,-97"/>
<text text-anchor="start" x="8" y="-85" font-family="Helvetica,sans-Serif" font-size="10.00">DialectInterface::Base</text>
<text text-anchor="middle" x="98" y="-74" font-family="Helvetica,sans-Serif" font-size="10.00">&lt; LLVMTranslationDialectInterface &gt;</text>
</a>
</g>
</g>
<!-- Node2&#45;&gt;Node1 -->
<g id="edge1_Node000001_Node000002" class="edge">
<title>Node2&#45;&gt;Node1</title>
<g id="a_edge1_Node000001_Node000002"><a xlink:title=" ">
<path fill="none" stroke="#63b8ff" d="M98,-56.61C98,-47.65 98,-37.82 98,-30.08"/>
<polygon fill="#63b8ff" stroke="#63b8ff" points="94.5,-56.9 98,-66.9 101.5,-56.9 94.5,-56.9"/>
</a>
</g>
</g>
<!-- Node3 -->
<g id="Node000003" class="node">
<title>Node3</title>
<g id="a_Node000003"><a xlink:href="classmlir_1_1DialectInterface.html" target="_top" xlink:title="This class represents an interface overridden for a single dialect.">
<polygon fill="white" stroke="#666666" points="142,-174.5 22,-174.5 22,-155.5 142,-155.5 142,-174.5"/>
<text text-anchor="middle" x="82" y="-162.5" font-family="Helvetica,sans-Serif" font-size="10.00">mlir::DialectInterface</text>
</a>
</g>
</g>
<!-- Node3&#45;&gt;Node2 -->
<g id="edge2_Node000002_Node000003" class="edge">
<title>Node3&#45;&gt;Node2</title>
<g id="a_edge2_Node000002_Node000003"><a xlink:title=" ">
<path fill="none" stroke="#63b8ff" d="M85.69,-145.34C88.59,-130.61 92.59,-110.38 95.23,-97.01"/>
<polygon fill="#63b8ff" stroke="#63b8ff" points="82.22,-144.84 83.71,-155.33 89.08,-146.2 82.22,-144.84"/>
</a>
</g>
</g>
<!-- Node4 -->
<g id="Node000004" class="node">
<title>Node4</title>
<g id="a_Node000004"><a xlink:href="classmlir_1_1detail_1_1DialectInterfaceBase.html" target="_top" xlink:title="The base class used for all derived interface types.">
<polygon fill="white" stroke="#666666" points="325.5,-180 160.5,-180 160.5,-150 325.5,-150 325.5,-180"/>
<text text-anchor="start" x="168.5" y="-168" font-family="Helvetica,sans-Serif" font-size="10.00">mlir::detail::DialectInterface</text>
<text text-anchor="middle" x="243" y="-157" font-family="Helvetica,sans-Serif" font-size="10.00">Base&lt; ConcreteType, BaseT &gt;</text>
</a>
</g>
</g>
<!-- Node4&#45;&gt;Node2 -->
<g id="edge3_Node000002_Node000004" class="edge">
<title>Node4&#45;&gt;Node2</title>
<g id="a_edge3_Node000002_Node000004"><a xlink:title=" ">
<path fill="none" stroke="orange" stroke-dasharray="5,2" d="M208.91,-144.96C182.74,-130.34 147.18,-110.47 123.45,-97.22"/>
<polygon fill="orange" stroke="orange" points="207.31,-148.07 217.74,-149.89 210.72,-141.96 207.31,-148.07"/>
</a>
</g>
<text text-anchor="start" x="186.5" y="-120.5" font-family="Helvetica,sans-Serif" font-size="10.00" fill="grey">&lt; ConcreteType, DialectInterface &gt;</text>
</g>
<!-- Node5 -->
<g id="Node000005" class="node">
<title>Node5</title>
<g id="a_Node000005"><a xlink:title=" ">
<polygon fill="white" stroke="#666666" points="266.5,-236 219.5,-236 219.5,-217 266.5,-217 266.5,-236"/>
<text text-anchor="middle" x="243" y="-224" font-family="Helvetica,sans-Serif" font-size="10.00">BaseT</text>
</a>
</g>
</g>
<!-- Node5&#45;&gt;Node4 -->
<g id="edge4_Node000004_Node000005" class="edge">
<title>Node5&#45;&gt;Node4</title>
<g id="a_edge4_Node000004_Node000005"><a xlink:title=" ">
<path fill="none" stroke="#63b8ff" d="M243,-206.73C243,-198.09 243,-188 243,-180.02"/>
<polygon fill="#63b8ff" stroke="#63b8ff" points="239.5,-206.98 243,-216.98 246.5,-206.98 239.5,-206.98"/>
</a>
</g>
</g>
</g>
</svg>
