<?xml version="1.0" encoding="UTF-8" standalone="no"?>
<!DOCTYPE svg PUBLIC "-//W3C//DTD SVG 1.1//EN"
 "http://www.w3.org/Graphics/SVG/1.1/DTD/svg11.dtd">
<!-- Generated by graphviz version 2.43.0 (0)
 -->
<!-- Title: mlir::Pass Pages: 1 -->
<svg width="599pt" height="156pt"
 viewBox="0.00 0.00 599.00 156.00" xmlns="http://www.w3.org/2000/svg" xmlns:xlink="http://www.w3.org/1999/xlink">
<g id="graph0" class="graph" transform="scale(1 1) rotate(0) translate(4 152)">
<title>mlir::Pass</title>
<!-- Node1 -->
<g id="Node000001" class="node">
<title>Node1</title>
<g id="a_Node000001"><a xlink:title="The abstract base pass class.">
<polygon fill="#999999" stroke="#666666" points="64,-118.5 0,-118.5 0,-99.5 64,-99.5 64,-118.5"/>
<text text-anchor="middle" x="32" y="-106.5" font-family="Helvetica,sans-Serif" font-size="10.00">mlir::Pass</text>
</a>
</g>
</g>
<!-- Node2 -->
<g id="Node000002" class="node">
<title>Node2</title>
<g id="a_Node000002"><a xlink:href="classmlir_1_1OperationPass_3_01void_01_4.html" target="_top" xlink:title="Pass to transform an operation.">
<polygon fill="white" stroke="#666666" points="415,-148 303,-148 303,-118 415,-118 415,-148"/>
<text text-anchor="start" x="311" y="-136" font-family="Helvetica,sans-Serif" font-size="10.00">mlir::OperationPass</text>
<text text-anchor="middle" x="359" y="-125" font-family="Helvetica,sans-Serif" font-size="10.00">&lt; void &gt;</text>
</a>
</g>
</g>
<!-- Node1&#45;&gt;Node2 -->
<g id="edge1_Node000001_Node000002" class="edge">
<title>Node1&#45;&gt;Node2</title>
<g id="a_edge1_Node000001_Node000002"><a xlink:title=" ">
<path fill="none" stroke="#63b8ff" d="M74.44,-107.37C132.54,-109.1 238.35,-116.74 303,-123.73"/>
<polygon fill="#63b8ff" stroke="#63b8ff" points="74.25,-103.87 64.16,-107.12 74.07,-110.87 74.25,-103.87"/>
</a>
</g>
</g>
<!-- Node1&#45;&gt;Node2 -->
<g id="edge8_Node000001_Node000002" class="edge">
<title>Node1&#45;&gt;Node2</title>
<g id="a_edge8_Node000001_Node000002"><a xlink:title=" ">
<path fill="none" stroke="#63b8ff" d="M74.44,-116.75C132.54,-123.6 238.35,-131.59 303,-134.15"/>
<polygon fill="#63b8ff" stroke="#63b8ff" points="74.52,-113.23 64.16,-115.48 73.66,-120.18 74.52,-113.23"/>
</a>
</g>
</g>
<!-- Node3 -->
<g id="Node000003" class="node">
<title>Node3</title>
<g id="a_Node000003"><a xlink:href="classmlir_1_1ExternalPass.html" target="_top" xlink:title="This pass class wraps external passes defined in other languages using the MLIR C&#45;interface.">
<polygon fill="white" stroke="#666666" points="209,-95.5 105,-95.5 105,-76.5 209,-76.5 209,-95.5"/>
<text text-anchor="middle" x="157" y="-83.5" font-family="Helvetica,sans-Serif" font-size="10.00">mlir::ExternalPass</text>
</a>
</g>
</g>
<!-- Node1&#45;&gt;Node3 -->
<g id="edge2_Node000001_Node000003" class="edge">
<title>Node1&#45;&gt;Node3</title>
<g id="a_edge2_Node000001_Node000003"><a xlink:title=" ">
<path fill="none" stroke="#63b8ff" d="M74.01,-101.33C83.89,-99.48 94.58,-97.48 104.87,-95.56"/>
<polygon fill="#63b8ff" stroke="#63b8ff" points="73.22,-97.92 64.04,-103.2 74.51,-104.8 73.22,-97.92"/>
</a>
</g>
</g>
<!-- Node4 -->
<g id="Node000004" class="node">
<title>Node4</title>
<g id="a_Node000004"><a xlink:href="classmlir_1_1OperationPass.html" target="_top" xlink:title="Pass to transform an operation of a specific type.">
<polygon fill="white" stroke="#666666" points="213,-58 101,-58 101,-28 213,-28 213,-58"/>
<text text-anchor="start" x="109" y="-46" font-family="Helvetica,sans-Serif" font-size="10.00">mlir::OperationPass</text>
<text text-anchor="middle" x="157" y="-35" font-family="Helvetica,sans-Serif" font-size="10.00">&lt; OpT &gt;</text>
</a>
</g>
</g>
<!-- Node1&#45;&gt;Node4 -->
<g id="edge3_Node000001_Node000004" class="edge">
<title>Node1&#45;&gt;Node4</title>
<g id="a_edge3_Node000001_Node000004"><a xlink:title=" ">
<path fill="none" stroke="#63b8ff" d="M56.55,-93.88C69.47,-85.82 85.88,-75.96 101,-68 107.4,-64.63 114.35,-61.26 121.08,-58.13"/>
<polygon fill="#63b8ff" stroke="#63b8ff" points="54.43,-91.08 47.84,-99.37 58.16,-97 54.43,-91.08"/>
</a>
</g>
</g>
<!-- Node4&#45;&gt;Node2 -->
<g id="edge7_Node000004_Node000002" class="edge">
<title>Node4&#45;&gt;Node2</title>
<g id="a_edge7_Node000004_Node000002"><a xlink:title=" ">
<path fill="none" stroke="orange" stroke-dasharray="5,2" d="M207.16,-61.77C229.85,-70.74 257.01,-81.92 281,-93 297.69,-100.7 315.95,-110.15 330.51,-117.93"/>
<polygon fill="orange" stroke="orange" points="208.32,-58.46 197.73,-58.07 205.76,-64.98 208.32,-58.46"/>
</a>
</g>
<text text-anchor="start" x="234" y="-98.5" font-family="Helvetica,sans-Serif" font-size="10.00" fill="grey">&lt; void &gt;</text>
</g>
<!-- Node5 -->
<g id="Node000005" class="node">
<title>Node5</title>
<g id="a_Node000005"><a xlink:href="classmlir_1_1PassWrapper.html" target="_top" xlink:title=" ">
<polygon fill="white" stroke="#666666" points="419,-89.5 299,-89.5 299,-48.5 419,-48.5 419,-89.5"/>
<text text-anchor="start" x="307" y="-77.5" font-family="Helvetica,sans-Serif" font-size="10.00">mlir::PassWrapper&lt;</text>
<text text-anchor="start" x="307" y="-66.5" font-family="Helvetica,sans-Serif" font-size="10.00"> OpToOpPassAdaptor,</text>
<text text-anchor="middle" x="359" y="-55.5" font-family="Helvetica,sans-Serif" font-size="10.00"> OperationPass&lt;&gt; &gt;</text>
</a>
</g>
</g>
<!-- Node4&#45;&gt;Node5 -->
<g id="edge4_Node000004_Node000005" class="edge">
<title>Node4&#45;&gt;Node5</title>
<g id="a_edge4_Node000004_Node000005"><a xlink:title=" ">
<path fill="none" stroke="#63b8ff" d="M223.38,-51.5C247.68,-54.66 275.09,-58.22 298.8,-61.3"/>
<polygon fill="#63b8ff" stroke="#63b8ff" points="223.55,-47.99 213.18,-50.17 222.65,-54.93 223.55,-47.99"/>
</a>
</g>
</g>
<!-- Node7 -->
<g id="Node000007" class="node">
<title>Node7</title>
<g id="a_Node000007"><a xlink:href="classmlir_1_1InterfacePass.html" target="_top" xlink:title="Pass to transform an operation that implements the given interface.">
<polygon fill="white" stroke="#666666" points="412.5,-30 305.5,-30 305.5,0 412.5,0 412.5,-30"/>
<text text-anchor="start" x="313.5" y="-18" font-family="Helvetica,sans-Serif" font-size="10.00">mlir::InterfacePass</text>
<text text-anchor="middle" x="359" y="-7" font-family="Helvetica,sans-Serif" font-size="10.00">&lt; InterfaceT &gt;</text>
</a>
</g>
</g>
<!-- Node4&#45;&gt;Node7 -->
<g id="edge6_Node000004_Node000007" class="edge">
<title>Node4&#45;&gt;Node7</title>
<g id="a_edge6_Node000004_Node000007"><a xlink:title=" ">
<path fill="none" stroke="#63b8ff" d="M223.19,-33.87C249.82,-30.14 280.23,-25.89 305.41,-22.36"/>
<polygon fill="#63b8ff" stroke="#63b8ff" points="222.6,-30.42 213.18,-35.27 223.57,-37.35 222.6,-30.42"/>
</a>
</g>
</g>
<!-- Node6 -->
<g id="Node000006" class="node">
<title>Node6</title>
<g id="a_Node000006"><a xlink:href="classmlir_1_1detail_1_1OpToOpPassAdaptor.html" target="_top" xlink:title="An adaptor pass used to run operation passes over nested operations.">
<polygon fill="white" stroke="#666666" points="591,-84 456,-84 456,-54 591,-54 591,-84"/>
<text text-anchor="start" x="464" y="-72" font-family="Helvetica,sans-Serif" font-size="10.00">mlir::detail::OpToOpPass</text>
<text text-anchor="middle" x="523.5" y="-61" font-family="Helvetica,sans-Serif" font-size="10.00">Adaptor</text>
</a>
</g>
</g>
<!-- Node5&#45;&gt;Node6 -->
<g id="edge5_Node000005_Node000006" class="edge">
<title>Node5&#45;&gt;Node6</title>
<g id="a_edge5_Node000005_Node000006"><a xlink:title=" ">
<path fill="none" stroke="#63b8ff" d="M429.37,-69C438.2,-69 447.21,-69 455.99,-69"/>
<polygon fill="#63b8ff" stroke="#63b8ff" points="429.13,-65.5 419.13,-69 429.13,-72.5 429.13,-65.5"/>
</a>
</g>
</g>
</g>
</svg>
