<?xml version="1.0" encoding="UTF-8" standalone="no"?>
<!DOCTYPE svg PUBLIC "-//W3C//DTD SVG 1.1//EN"
 "http://www.w3.org/Graphics/SVG/1.1/DTD/svg11.dtd">
<!-- Generated by graphviz version 2.43.0 (0)
 -->
<!-- Title: mlir::TypeInterface&lt; ConcreteType, Traits &gt; Pages: 1 -->
<svg width="724pt" height="100pt"
 viewBox="0.00 0.00 724.00 100.00" xmlns="http://www.w3.org/2000/svg" xmlns:xlink="http://www.w3.org/1999/xlink">
<g id="graph0" class="graph" transform="scale(1 1) rotate(0) translate(4 96)">
<title>mlir::TypeInterface&lt; ConcreteType, Traits &gt;</title>
<!-- Node1 -->
<g id="Node000001" class="node">
<title>Node1</title>
<g id="a_Node000001"><a xlink:title="This class represents the base of a type interface.">
<polygon fill="#999999" stroke="#666666" points="716,-66.5 579,-66.5 579,-36.5 716,-36.5 716,-66.5"/>
<text text-anchor="start" x="587" y="-54.5" font-family="Helvetica,sans-Serif" font-size="10.00">mlir::TypeInterface</text>
<text text-anchor="middle" x="647.5" y="-43.5" font-family="Helvetica,sans-Serif" font-size="10.00">&lt; ConcreteType, Traits &gt;</text>
</a>
</g>
</g>
<!-- Node2 -->
<g id="Node000002" class="node">
<title>Node2</title>
<g id="a_Node000002"><a xlink:href="classmlir_1_1detail_1_1Interface.html" target="_top" xlink:title=" ">
<polygon fill="white" stroke="#666666" points="542,-77.5 417,-77.5 417,-25.5 542,-25.5 542,-77.5"/>
<text text-anchor="start" x="425" y="-65.5" font-family="Helvetica,sans-Serif" font-size="10.00">mlir::detail::Interface</text>
<text text-anchor="start" x="425" y="-54.5" font-family="Helvetica,sans-Serif" font-size="10.00">&lt; ConcreteType, Type,</text>
<text text-anchor="start" x="425" y="-43.5" font-family="Helvetica,sans-Serif" font-size="10.00"> Traits, Type, TypeTrait</text>
<text text-anchor="middle" x="479.5" y="-32.5" font-family="Helvetica,sans-Serif" font-size="10.00">::TraitBase &gt;</text>
</a>
</g>
</g>
<!-- Node2&#45;&gt;Node1 -->
<g id="edge1_Node000001_Node000002" class="edge">
<title>Node2&#45;&gt;Node1</title>
<g id="a_edge1_Node000001_Node000002"><a xlink:title=" ">
<path fill="none" stroke="#63b8ff" d="M552.47,-51.5C561.21,-51.5 570.11,-51.5 578.78,-51.5"/>
<polygon fill="#63b8ff" stroke="#63b8ff" points="552.31,-48 542.31,-51.5 552.31,-55 552.31,-48"/>
</a>
</g>
</g>
<!-- Node3 -->
<g id="Node000003" class="node">
<title>Node3</title>
<g id="a_Node000003"><a xlink:href="classmlir_1_1Type.html" target="_top" xlink:title="Instances of the Type class are uniqued, have an immutable identifier and an optional mutable compone...">
<polygon fill="white" stroke="#666666" points="213,-92 148,-92 148,-73 213,-73 213,-92"/>
<text text-anchor="middle" x="180.5" y="-80" font-family="Helvetica,sans-Serif" font-size="10.00">mlir::Type</text>
</a>
</g>
</g>
<!-- Node3&#45;&gt;Node2 -->
<g id="edge2_Node000002_Node000003" class="edge">
<title>Node3&#45;&gt;Node2</title>
<g id="a_edge2_Node000002_Node000003"><a xlink:title=" ">
<path fill="none" stroke="#63b8ff" d="M223.37,-81.62C267.3,-80.28 338.28,-76.9 399,-68.5 404.73,-67.71 410.67,-66.73 416.59,-65.65"/>
<polygon fill="#63b8ff" stroke="#63b8ff" points="223.24,-78.12 213.34,-81.91 223.44,-85.12 223.24,-78.12"/>
</a>
</g>
</g>
<!-- Node4 -->
<g id="Node000004" class="node">
<title>Node4</title>
<g id="a_Node000004"><a xlink:href="classmlir_1_1detail_1_1Interface.html" target="_top" xlink:title="This class represents an abstract interface.">
<polygon fill="white" stroke="#666666" points="261,-41 100,-41 100,0 261,0 261,-41"/>
<text text-anchor="start" x="108" y="-29" font-family="Helvetica,sans-Serif" font-size="10.00">mlir::detail::Interface</text>
<text text-anchor="start" x="108" y="-18" font-family="Helvetica,sans-Serif" font-size="10.00">&lt; ConcreteType, ValueT,</text>
<text text-anchor="middle" x="180.5" y="-7" font-family="Helvetica,sans-Serif" font-size="10.00"> Traits, BaseType, BaseTrait &gt;</text>
</a>
</g>
</g>
<!-- Node4&#45;&gt;Node2 -->
<g id="edge3_Node000002_Node000004" class="edge">
<title>Node4&#45;&gt;Node2</title>
<g id="a_edge3_Node000002_Node000004"><a xlink:title=" ">
<path fill="none" stroke="orange" stroke-dasharray="5,2" d="M271.2,-10.66C310.75,-8.52 357.56,-9.01 399,-17.5 407.82,-19.31 416.88,-22.14 425.57,-25.41"/>
<polygon fill="orange" stroke="orange" points="270.82,-7.18 261.05,-11.28 271.24,-14.17 270.82,-7.18"/>
</a>
</g>
<text text-anchor="start" x="282" y="-53" font-family="Helvetica,sans-Serif" font-size="10.00" fill="grey">&lt; ConcreteType, Type,</text>
<text text-anchor="start" x="282" y="-38" font-family="Helvetica,sans-Serif" font-size="10.00" fill="grey">   Traits, Type, TypeTrait</text>
<text text-anchor="start" x="282" y="-23" font-family="Helvetica,sans-Serif" font-size="10.00" fill="grey">  ::TraitBase &gt;</text>
</g>
<!-- Node5 -->
<g id="Node000005" class="node">
<title>Node5</title>
<g id="a_Node000005"><a xlink:title=" ">
<polygon fill="white" stroke="#666666" points="63,-30 0,-30 0,-11 63,-11 63,-30"/>
<text text-anchor="middle" x="31.5" y="-18" font-family="Helvetica,sans-Serif" font-size="10.00">BaseType</text>
</a>
</g>
</g>
<!-- Node5&#45;&gt;Node4 -->
<g id="edge4_Node000004_Node000005" class="edge">
<title>Node5&#45;&gt;Node4</title>
<g id="a_edge4_Node000004_Node000005"><a xlink:title=" ">
<path fill="none" stroke="#63b8ff" d="M73.45,-20.5C81.78,-20.5 90.8,-20.5 99.96,-20.5"/>
<polygon fill="#63b8ff" stroke="#63b8ff" points="73.32,-17 63.32,-20.5 73.32,-24 73.32,-17"/>
</a>
</g>
</g>
</g>
</svg>
