<?xml version="1.0" encoding="UTF-8" standalone="no"?>
<!DOCTYPE svg PUBLIC "-//W3C//DTD SVG 1.1//EN"
 "http://www.w3.org/Graphics/SVG/1.1/DTD/svg11.dtd">
<!-- Generated by graphviz version 2.43.0 (0)
 -->
<!-- Title: mlir::OpTrait::NRegions&lt; N &gt;::Impl&lt; ConcreteType &gt; Pages: 1 -->
<svg width="1008pt" height="120pt"
 viewBox="0.00 0.00 1008.00 119.50" xmlns="http://www.w3.org/2000/svg" xmlns:xlink="http://www.w3.org/1999/xlink">
<g id="graph0" class="graph" transform="scale(1 1) rotate(0) translate(4 115.5)">
<title>mlir::OpTrait::NRegions&lt; N &gt;::Impl&lt; ConcreteType &gt;</title>
<!-- Node1 -->
<g id="Node000001" class="node">
<title>Node1</title>
<g id="a_Node000001"><a xlink:title=" ">
<polygon fill="#999999" stroke="#666666" points="1000,-64.5 837,-64.5 837,-34.5 1000,-34.5 1000,-64.5"/>
<text text-anchor="start" x="845" y="-52.5" font-family="Helvetica,sans-Serif" font-size="10.00">mlir::OpTrait::NRegions</text>
<text text-anchor="middle" x="918.5" y="-41.5" font-family="Helvetica,sans-Serif" font-size="10.00">&lt; N &gt;::Impl&lt; ConcreteType &gt;</text>
</a>
</g>
</g>
<!-- Node2 -->
<g id="Node000002" class="node">
<title>Node2</title>
<g id="a_Node000002"><a xlink:href="structmlir_1_1OpTrait_1_1detail_1_1MultiRegionTraitBase.html" target="_top" xlink:title=" ">
<polygon fill="white" stroke="#666666" points="800,-75.5 654,-75.5 654,-23.5 800,-23.5 800,-75.5"/>
<text text-anchor="start" x="662" y="-63.5" font-family="Helvetica,sans-Serif" font-size="10.00">mlir::OpTrait::detail</text>
<text text-anchor="start" x="662" y="-52.5" font-family="Helvetica,sans-Serif" font-size="10.00">::MultiRegionTraitBase</text>
<text text-anchor="start" x="662" y="-41.5" font-family="Helvetica,sans-Serif" font-size="10.00">&lt; ConcreteType, NRegions</text>
<text text-anchor="middle" x="727" y="-30.5" font-family="Helvetica,sans-Serif" font-size="10.00">&lt; N &gt;::Impl &gt;</text>
</a>
</g>
</g>
<!-- Node2&#45;&gt;Node1 -->
<g id="edge1_Node000001_Node000002" class="edge">
<title>Node2&#45;&gt;Node1</title>
<g id="a_edge1_Node000001_Node000002"><a xlink:title=" ">
<path fill="none" stroke="#63b8ff" d="M810.44,-49.5C819.24,-49.5 828.19,-49.5 836.98,-49.5"/>
<polygon fill="#63b8ff" stroke="#63b8ff" points="810.18,-46 800.18,-49.5 810.18,-53 810.18,-46"/>
</a>
</g>
</g>
<!-- Node3 -->
<g id="Node000003" class="node">
<title>Node3</title>
<g id="a_Node000003"><a xlink:href="classmlir_1_1OpTrait_1_1TraitBase.html" target="_top" xlink:title=" ">
<polygon fill="white" stroke="#666666" points="477.5,-100 331.5,-100 331.5,-59 477.5,-59 477.5,-100"/>
<text text-anchor="start" x="339.5" y="-88" font-family="Helvetica,sans-Serif" font-size="10.00">mlir::OpTrait::TraitBase</text>
<text text-anchor="start" x="339.5" y="-77" font-family="Helvetica,sans-Serif" font-size="10.00">&lt; ConcreteType, NRegions</text>
<text text-anchor="middle" x="404.5" y="-66" font-family="Helvetica,sans-Serif" font-size="10.00">&lt; N &gt;::Impl &gt;</text>
</a>
</g>
</g>
<!-- Node3&#45;&gt;Node2 -->
<g id="edge2_Node000002_Node000003" class="edge">
<title>Node3&#45;&gt;Node2</title>
<g id="a_edge2_Node000002_Node000003"><a xlink:title=" ">
<path fill="none" stroke="#63b8ff" d="M487.6,-74.84C531.67,-71.99 586.87,-67.85 636,-62.5 641.81,-61.87 647.82,-61.15 653.85,-60.37"/>
<polygon fill="#63b8ff" stroke="#63b8ff" points="487.27,-71.36 477.52,-75.49 487.72,-78.34 487.27,-71.36"/>
</a>
</g>
</g>
<!-- Node4 -->
<g id="Node000004" class="node">
<title>Node4</title>
<g id="a_Node000004"><a xlink:href="classmlir_1_1OpTrait_1_1TraitBase.html" target="_top" xlink:title="Helper class for implementing traits.">
<polygon fill="white" stroke="#666666" points="155,-94.5 0,-94.5 0,-64.5 155,-64.5 155,-94.5"/>
<text text-anchor="start" x="8" y="-82.5" font-family="Helvetica,sans-Serif" font-size="10.00">mlir::OpTrait::TraitBase</text>
<text text-anchor="middle" x="77.5" y="-71.5" font-family="Helvetica,sans-Serif" font-size="10.00">&lt; ConcreteType, TraitType &gt;</text>
</a>
</g>
</g>
<!-- Node4&#45;&gt;Node3 -->
<g id="edge3_Node000003_Node000004" class="edge">
<title>Node4&#45;&gt;Node3</title>
<g id="a_edge3_Node000003_Node000004"><a xlink:title=" ">
<path fill="none" stroke="orange" stroke-dasharray="5,2" d="M165.3,-79.5C217.16,-79.5 282.27,-79.5 331.31,-79.5"/>
<polygon fill="orange" stroke="orange" points="165.11,-76 155.11,-79.5 165.11,-83 165.11,-76"/>
</a>
</g>
<text text-anchor="start" x="176" y="-100.5" font-family="Helvetica,sans-Serif" font-size="10.00" fill="grey">&lt; ConcreteType, NRegions</text>
<text text-anchor="start" x="176" y="-85.5" font-family="Helvetica,sans-Serif" font-size="10.00" fill="grey">  &lt; N &gt;::Impl &gt;</text>
</g>
<!-- Node5 -->
<g id="Node000005" class="node">
<title>Node5</title>
<g id="a_Node000005"><a xlink:href="structmlir_1_1OpTrait_1_1detail_1_1MultiRegionTraitBase.html" target="_top" xlink:title="Utility trait base that provides accessors for derived traits that have multiple regions.">
<polygon fill="white" stroke="#666666" points="482,-41 327,-41 327,0 482,0 482,-41"/>
<text text-anchor="start" x="335" y="-29" font-family="Helvetica,sans-Serif" font-size="10.00">mlir::OpTrait::detail</text>
<text text-anchor="start" x="335" y="-18" font-family="Helvetica,sans-Serif" font-size="10.00">::MultiRegionTraitBase</text>
<text text-anchor="middle" x="404.5" y="-7" font-family="Helvetica,sans-Serif" font-size="10.00">&lt; ConcreteType, TraitType &gt;</text>
</a>
</g>
</g>
<!-- Node5&#45;&gt;Node2 -->
<g id="edge4_Node000002_Node000005" class="edge">
<title>Node5&#45;&gt;Node2</title>
<g id="a_edge4_Node000002_Node000005"><a xlink:title=" ">
<path fill="none" stroke="orange" stroke-dasharray="5,2" d="M492.3,-20.89C535.61,-21.94 588.73,-24.53 636,-30.5 641.86,-31.24 647.91,-32.16 653.97,-33.2"/>
<polygon fill="orange" stroke="orange" points="492.15,-17.39 482.07,-20.67 492,-24.39 492.15,-17.39"/>
</a>
</g>
<text text-anchor="start" x="503" y="-51.5" font-family="Helvetica,sans-Serif" font-size="10.00" fill="grey">&lt; ConcreteType, NRegions</text>
<text text-anchor="start" x="503" y="-36.5" font-family="Helvetica,sans-Serif" font-size="10.00" fill="grey">  &lt; N &gt;::Impl &gt;</text>
</g>
<!-- Node6 -->
<g id="Node000006" class="node">
<title>Node6</title>
<g id="a_Node000006"><a xlink:href="classmlir_1_1OpTrait_1_1TraitBase.html" target="_top" xlink:title="Helper class for implementing traits.">
<polygon fill="white" stroke="#666666" points="155,-35.5 0,-35.5 0,-5.5 155,-5.5 155,-35.5"/>
<text text-anchor="start" x="8" y="-23.5" font-family="Helvetica,sans-Serif" font-size="10.00">mlir::OpTrait::TraitBase</text>
<text text-anchor="middle" x="77.5" y="-12.5" font-family="Helvetica,sans-Serif" font-size="10.00">&lt; ConcreteType, TraitType &gt;</text>
</a>
</g>
</g>
<!-- Node6&#45;&gt;Node5 -->
<g id="edge5_Node000005_Node000006" class="edge">
<title>Node6&#45;&gt;Node5</title>
<g id="a_edge5_Node000005_Node000006"><a xlink:title=" ">
<path fill="none" stroke="#63b8ff" d="M165.32,-20.5C215.62,-20.5 278.38,-20.5 326.84,-20.5"/>
<polygon fill="#63b8ff" stroke="#63b8ff" points="165.11,-17 155.11,-20.5 165.11,-24 165.11,-17"/>
</a>
</g>
</g>
</g>
</svg>
