<?xml version="1.0" encoding="UTF-8" standalone="no"?>
<!DOCTYPE svg PUBLIC "-//W3C//DTD SVG 1.1//EN"
 "http://www.w3.org/Graphics/SVG/1.1/DTD/svg11.dtd">
<!-- Generated by graphviz version 2.43.0 (0)
 -->
<!-- Title: mlir::shard::impl::ShardingPropagationBase&lt; DerivedT &gt; Pages: 1 -->
<svg width="281pt" height="472pt"
 viewBox="0.00 0.00 280.50 472.00" xmlns="http://www.w3.org/2000/svg" xmlns:xlink="http://www.w3.org/1999/xlink">
<g id="graph0" class="graph" transform="scale(1 1) rotate(0) translate(4 468)">
<title>mlir::shard::impl::ShardingPropagationBase&lt; DerivedT &gt;</title>
<!-- Node1 -->
<g id="Node000001" class="node">
<title>Node1</title>
<g id="a_Node000001"><a xlink:title=" ">
<polygon fill="#999999" stroke="#666666" points="152.5,-191 10.5,-191 10.5,-150 152.5,-150 152.5,-191"/>
<text text-anchor="start" x="18.5" y="-179" font-family="Helvetica,sans-Serif" font-size="10.00">mlir::shard::impl::</text>
<text text-anchor="start" x="18.5" y="-168" font-family="Helvetica,sans-Serif" font-size="10.00">ShardingPropagationBase</text>
<text text-anchor="middle" x="81.5" y="-157" font-family="Helvetica,sans-Serif" font-size="10.00">&lt; DerivedT &gt;</text>
</a>
</g>
</g>
<!-- Node6 -->
<g id="Node000006" class="node">
<title>Node6</title>
<g id="a_Node000006"><a xlink:href="classmlir_1_1shard_1_1impl_1_1ShardingPropagationBase.html" target="_top" xlink:title=" ">
<polygon fill="white" stroke="#666666" points="152.5,-97 10.5,-97 10.5,-56 152.5,-56 152.5,-97"/>
<text text-anchor="start" x="18.5" y="-85" font-family="Helvetica,sans-Serif" font-size="10.00">mlir::shard::impl::</text>
<text text-anchor="start" x="18.5" y="-74" font-family="Helvetica,sans-Serif" font-size="10.00">ShardingPropagationBase</text>
<text text-anchor="middle" x="81.5" y="-63" font-family="Helvetica,sans-Serif" font-size="10.00">&lt; ShardingPropagation &gt;</text>
</a>
</g>
</g>
<!-- Node1&#45;&gt;Node6 -->
<g id="edge6_Node000001_Node000006" class="edge">
<title>Node1&#45;&gt;Node6</title>
<g id="a_edge6_Node000001_Node000006"><a xlink:title=" ">
<path fill="none" stroke="orange" stroke-dasharray="5,2" d="M81.5,-139.89C81.5,-125.96 81.5,-109.72 81.5,-97.3"/>
<polygon fill="orange" stroke="orange" points="78,-139.99 81.5,-149.99 85,-139.99 78,-139.99"/>
</a>
</g>
<text text-anchor="start" x="84.5" y="-120.5" font-family="Helvetica,sans-Serif" font-size="10.00" fill="grey">&lt; ShardingPropagation &gt;</text>
</g>
<!-- Node2 -->
<g id="Node000002" class="node">
<title>Node2</title>
<g id="a_Node000002"><a xlink:href="classmlir_1_1InterfacePass.html" target="_top" xlink:title=" ">
<polygon fill="white" stroke="#666666" points="163,-258 0,-258 0,-228 163,-228 163,-258"/>
<text text-anchor="start" x="8" y="-246" font-family="Helvetica,sans-Serif" font-size="10.00">mlir::InterfacePass</text>
<text text-anchor="middle" x="81.5" y="-235" font-family="Helvetica,sans-Serif" font-size="10.00">&lt; mlir::FunctionOpInterface &gt;</text>
</a>
</g>
</g>
<!-- Node2&#45;&gt;Node1 -->
<g id="edge1_Node000001_Node000002" class="edge">
<title>Node2&#45;&gt;Node1</title>
<g id="a_edge1_Node000001_Node000002"><a xlink:title=" ">
<path fill="none" stroke="#63b8ff" d="M81.5,-217.48C81.5,-208.85 81.5,-199.26 81.5,-191.09"/>
<polygon fill="#63b8ff" stroke="#63b8ff" points="78,-217.73 81.5,-227.73 85,-217.73 78,-217.73"/>
</a>
</g>
</g>
<!-- Node3 -->
<g id="Node000003" class="node">
<title>Node3</title>
<g id="a_Node000003"><a xlink:href="classmlir_1_1OperationPass.html" target="_top" xlink:title="Pass to transform an operation of a specific type.">
<polygon fill="white" stroke="#666666" points="133.5,-408 21.5,-408 21.5,-378 133.5,-378 133.5,-408"/>
<text text-anchor="start" x="29.5" y="-396" font-family="Helvetica,sans-Serif" font-size="10.00">mlir::OperationPass</text>
<text text-anchor="middle" x="77.5" y="-385" font-family="Helvetica,sans-Serif" font-size="10.00">&lt; OpT &gt;</text>
</a>
</g>
</g>
<!-- Node3&#45;&gt;Node2 -->
<g id="edge2_Node000002_Node000003" class="edge">
<title>Node3&#45;&gt;Node2</title>
<g id="a_edge2_Node000002_Node000003"><a xlink:title=" ">
<path fill="none" stroke="#63b8ff" d="M78.15,-367.81C78.99,-336.72 80.43,-283.73 81.11,-258.37"/>
<polygon fill="#63b8ff" stroke="#63b8ff" points="74.66,-367.72 77.88,-377.81 81.65,-367.91 74.66,-367.72"/>
</a>
</g>
</g>
<!-- Node5 -->
<g id="Node000005" class="node">
<title>Node5</title>
<g id="a_Node000005"><a xlink:href="classmlir_1_1InterfacePass.html" target="_top" xlink:title="Pass to transform an operation that implements the given interface.">
<polygon fill="white" stroke="#666666" points="201,-341 94,-341 94,-311 201,-311 201,-341"/>
<text text-anchor="start" x="102" y="-329" font-family="Helvetica,sans-Serif" font-size="10.00">mlir::InterfacePass</text>
<text text-anchor="middle" x="147.5" y="-318" font-family="Helvetica,sans-Serif" font-size="10.00">&lt; InterfaceT &gt;</text>
</a>
</g>
</g>
<!-- Node3&#45;&gt;Node5 -->
<g id="edge5_Node000005_Node000003" class="edge">
<title>Node3&#45;&gt;Node5</title>
<g id="a_edge5_Node000005_Node000003"><a xlink:title=" ">
<path fill="none" stroke="#63b8ff" d="M100.32,-370.81C110.82,-361.06 122.99,-349.76 132.34,-341.08"/>
<polygon fill="#63b8ff" stroke="#63b8ff" points="97.64,-368.53 92.69,-377.9 102.4,-373.66 97.64,-368.53"/>
</a>
</g>
</g>
<!-- Node4 -->
<g id="Node000004" class="node">
<title>Node4</title>
<g id="a_Node000004"><a xlink:href="classmlir_1_1Pass.html" target="_top" xlink:title="The abstract base pass class.">
<polygon fill="white" stroke="#666666" points="109.5,-464 45.5,-464 45.5,-445 109.5,-445 109.5,-464"/>
<text text-anchor="middle" x="77.5" y="-452" font-family="Helvetica,sans-Serif" font-size="10.00">mlir::Pass</text>
</a>
</g>
</g>
<!-- Node4&#45;&gt;Node3 -->
<g id="edge3_Node000003_Node000004" class="edge">
<title>Node4&#45;&gt;Node3</title>
<g id="a_edge3_Node000003_Node000004"><a xlink:title=" ">
<path fill="none" stroke="#63b8ff" d="M77.5,-434.73C77.5,-426.09 77.5,-416 77.5,-408.02"/>
<polygon fill="#63b8ff" stroke="#63b8ff" points="74,-434.98 77.5,-444.98 81,-434.98 74,-434.98"/>
</a>
</g>
</g>
<!-- Node5&#45;&gt;Node2 -->
<g id="edge4_Node000002_Node000005" class="edge">
<title>Node5&#45;&gt;Node2</title>
<g id="a_edge4_Node000002_Node000005"><a xlink:title=" ">
<path fill="none" stroke="orange" stroke-dasharray="5,2" d="M129.59,-303.02C117.97,-288.76 103.18,-270.61 93.09,-258.22"/>
<polygon fill="orange" stroke="orange" points="126.97,-305.35 136,-310.89 132.4,-300.93 126.97,-305.35"/>
</a>
</g>
<text text-anchor="start" x="123" y="-281.5" font-family="Helvetica,sans-Serif" font-size="10.00" fill="grey">&lt; mlir::FunctionOpInterface &gt;</text>
</g>
<!-- Node7 -->
<g id="Node000007" class="node">
<title>Node7</title>
<g id="a_Node000007"><a xlink:href="structShardingPropagation.html" target="_top" xlink:title=" ">
<polygon fill="white" stroke="#666666" points="140.5,-19 22.5,-19 22.5,0 140.5,0 140.5,-19"/>
<text text-anchor="middle" x="81.5" y="-7" font-family="Helvetica,sans-Serif" font-size="10.00">ShardingPropagation</text>
</a>
</g>
</g>
<!-- Node6&#45;&gt;Node7 -->
<g id="edge7_Node000006_Node000007" class="edge">
<title>Node6&#45;&gt;Node7</title>
<g id="a_edge7_Node000006_Node000007"><a xlink:title=" ">
<path fill="none" stroke="#63b8ff" d="M81.5,-45.76C81.5,-36.06 81.5,-26.02 81.5,-19.15"/>
<polygon fill="#63b8ff" stroke="#63b8ff" points="78,-46 81.5,-56 85,-46 78,-46"/>
</a>
</g>
</g>
</g>
</svg>
