<?xml version="1.0" encoding="UTF-8" standalone="no"?>
<!DOCTYPE svg PUBLIC "-//W3C//DTD SVG 1.1//EN"
 "http://www.w3.org/Graphics/SVG/1.1/DTD/svg11.dtd">
<!-- Generated by graphviz version 2.43.0 (0)
 -->
<!-- Title: mlir::impl::ConvertArmSMEToLLVMBase&lt; DerivedT &gt; Pages: 1 -->
<svg width="253pt" height="311pt"
 viewBox="0.00 0.00 253.00 311.00" xmlns="http://www.w3.org/2000/svg" xmlns:xlink="http://www.w3.org/1999/xlink">
<g id="graph0" class="graph" transform="scale(1 1) rotate(0) translate(4 307)">
<title>mlir::impl::ConvertArmSMEToLLVMBase&lt; DerivedT &gt;</title>
<!-- Node1 -->
<g id="Node000001" class="node">
<title>Node1</title>
<g id="a_Node000001"><a xlink:title=" ">
<polygon fill="#999999" stroke="#666666" points="160,-30 0,-30 0,0 160,0 160,-30"/>
<text text-anchor="start" x="8" y="-18" font-family="Helvetica,sans-Serif" font-size="10.00">mlir::impl::ConvertArmSMETo</text>
<text text-anchor="middle" x="80" y="-7" font-family="Helvetica,sans-Serif" font-size="10.00">LLVMBase&lt; DerivedT &gt;</text>
</a>
</g>
</g>
<!-- Node2 -->
<g id="Node000002" class="node">
<title>Node2</title>
<g id="a_Node000002"><a xlink:href="classmlir_1_1InterfacePass.html" target="_top" xlink:title=" ">
<polygon fill="white" stroke="#666666" points="148.5,-97 11.5,-97 11.5,-67 148.5,-67 148.5,-97"/>
<text text-anchor="start" x="19.5" y="-85" font-family="Helvetica,sans-Serif" font-size="10.00">mlir::InterfacePass</text>
<text text-anchor="middle" x="80" y="-74" font-family="Helvetica,sans-Serif" font-size="10.00">&lt; FunctionOpInterface &gt;</text>
</a>
</g>
</g>
<!-- Node2&#45;&gt;Node1 -->
<g id="edge1_Node000001_Node000002" class="edge">
<title>Node2&#45;&gt;Node1</title>
<g id="a_edge1_Node000001_Node000002"><a xlink:title=" ">
<path fill="none" stroke="#63b8ff" d="M80,-56.61C80,-47.65 80,-37.82 80,-30.08"/>
<polygon fill="#63b8ff" stroke="#63b8ff" points="76.5,-56.9 80,-66.9 83.5,-56.9 76.5,-56.9"/>
</a>
</g>
</g>
<!-- Node3 -->
<g id="Node000003" class="node">
<title>Node3</title>
<g id="a_Node000003"><a xlink:href="classmlir_1_1OperationPass.html" target="_top" xlink:title="Pass to transform an operation of a specific type.">
<polygon fill="white" stroke="#666666" points="132,-247 20,-247 20,-217 132,-217 132,-247"/>
<text text-anchor="start" x="28" y="-235" font-family="Helvetica,sans-Serif" font-size="10.00">mlir::OperationPass</text>
<text text-anchor="middle" x="76" y="-224" font-family="Helvetica,sans-Serif" font-size="10.00">&lt; OpT &gt;</text>
</a>
</g>
</g>
<!-- Node3&#45;&gt;Node2 -->
<g id="edge2_Node000002_Node000003" class="edge">
<title>Node3&#45;&gt;Node2</title>
<g id="a_edge2_Node000002_Node000003"><a xlink:title=" ">
<path fill="none" stroke="#63b8ff" d="M76.65,-206.81C77.49,-175.72 78.93,-122.73 79.61,-97.37"/>
<polygon fill="#63b8ff" stroke="#63b8ff" points="73.16,-206.72 76.38,-216.81 80.15,-206.91 73.16,-206.72"/>
</a>
</g>
</g>
<!-- Node5 -->
<g id="Node000005" class="node">
<title>Node5</title>
<g id="a_Node000005"><a xlink:href="classmlir_1_1InterfacePass.html" target="_top" xlink:title="Pass to transform an operation that implements the given interface.">
<polygon fill="white" stroke="#666666" points="199.5,-180 92.5,-180 92.5,-150 199.5,-150 199.5,-180"/>
<text text-anchor="start" x="100.5" y="-168" font-family="Helvetica,sans-Serif" font-size="10.00">mlir::InterfacePass</text>
<text text-anchor="middle" x="146" y="-157" font-family="Helvetica,sans-Serif" font-size="10.00">&lt; InterfaceT &gt;</text>
</a>
</g>
</g>
<!-- Node3&#45;&gt;Node5 -->
<g id="edge5_Node000005_Node000003" class="edge">
<title>Node3&#45;&gt;Node5</title>
<g id="a_edge5_Node000005_Node000003"><a xlink:title=" ">
<path fill="none" stroke="#63b8ff" d="M98.82,-209.81C109.32,-200.06 121.49,-188.76 130.84,-180.08"/>
<polygon fill="#63b8ff" stroke="#63b8ff" points="96.14,-207.53 91.19,-216.9 100.9,-212.66 96.14,-207.53"/>
</a>
</g>
</g>
<!-- Node4 -->
<g id="Node000004" class="node">
<title>Node4</title>
<g id="a_Node000004"><a xlink:href="classmlir_1_1Pass.html" target="_top" xlink:title="The abstract base pass class.">
<polygon fill="white" stroke="#666666" points="108,-303 44,-303 44,-284 108,-284 108,-303"/>
<text text-anchor="middle" x="76" y="-291" font-family="Helvetica,sans-Serif" font-size="10.00">mlir::Pass</text>
</a>
</g>
</g>
<!-- Node4&#45;&gt;Node3 -->
<g id="edge3_Node000003_Node000004" class="edge">
<title>Node4&#45;&gt;Node3</title>
<g id="a_edge3_Node000003_Node000004"><a xlink:title=" ">
<path fill="none" stroke="#63b8ff" d="M76,-273.73C76,-265.09 76,-255 76,-247.02"/>
<polygon fill="#63b8ff" stroke="#63b8ff" points="72.5,-273.98 76,-283.98 79.5,-273.98 72.5,-273.98"/>
</a>
</g>
</g>
<!-- Node5&#45;&gt;Node2 -->
<g id="edge4_Node000002_Node000005" class="edge">
<title>Node5&#45;&gt;Node2</title>
<g id="a_edge4_Node000002_Node000005"><a xlink:title=" ">
<path fill="none" stroke="orange" stroke-dasharray="5,2" d="M128.09,-142.02C116.47,-127.76 101.68,-109.61 91.59,-97.22"/>
<polygon fill="orange" stroke="orange" points="125.47,-144.35 134.5,-149.89 130.9,-139.93 125.47,-144.35"/>
</a>
</g>
<text text-anchor="start" x="121.5" y="-120.5" font-family="Helvetica,sans-Serif" font-size="10.00" fill="grey">&lt; FunctionOpInterface &gt;</text>
</g>
</g>
</svg>
