<?xml version="1.0" encoding="UTF-8" standalone="no"?>
<!DOCTYPE svg PUBLIC "-//W3C//DTD SVG 1.1//EN"
 "http://www.w3.org/Graphics/SVG/1.1/DTD/svg11.dtd">
<!-- Generated by graphviz version 2.43.0 (0)
 -->
<!-- Title: mlir::OpTrait::HasOnlyGraphRegion&lt; ConcreteType &gt; Pages: 1 -->
<svg width="276pt" height="203pt"
 viewBox="0.00 0.00 275.50 203.00" xmlns="http://www.w3.org/2000/svg" xmlns:xlink="http://www.w3.org/1999/xlink">
<g id="graph0" class="graph" transform="scale(1 1) rotate(0) translate(4 199)">
<title>mlir::OpTrait::HasOnlyGraphRegion&lt; ConcreteType &gt;</title>
<!-- Node1 -->
<g id="Node000001" class="node">
<title>Node1</title>
<g id="a_Node000001"><a xlink:title="A trait that specifies that an operation only defines graph regions.">
<polygon fill="#999999" stroke="#666666" points="184,-30 31,-30 31,0 184,0 184,-30"/>
<text text-anchor="start" x="39" y="-18" font-family="Helvetica,sans-Serif" font-size="10.00">mlir::OpTrait::HasOnlyGraph</text>
<text text-anchor="middle" x="107.5" y="-7" font-family="Helvetica,sans-Serif" font-size="10.00">Region&lt; ConcreteType &gt;</text>
</a>
</g>
</g>
<!-- Node2 -->
<g id="Node000002" class="node">
<title>Node2</title>
<g id="a_Node000002"><a xlink:href="classmlir_1_1OpTrait_1_1TraitBase.html" target="_top" xlink:title=" ">
<polygon fill="white" stroke="#666666" points="215,-97 0,-97 0,-67 215,-67 215,-97"/>
<text text-anchor="start" x="8" y="-85" font-family="Helvetica,sans-Serif" font-size="10.00">mlir::OpTrait::TraitBase</text>
<text text-anchor="middle" x="107.5" y="-74" font-family="Helvetica,sans-Serif" font-size="10.00">&lt; ConcreteType, HasOnlyGraphRegion &gt;</text>
</a>
</g>
</g>
<!-- Node2&#45;&gt;Node1 -->
<g id="edge1_Node000001_Node000002" class="edge">
<title>Node2&#45;&gt;Node1</title>
<g id="a_edge1_Node000001_Node000002"><a xlink:title=" ">
<path fill="none" stroke="#63b8ff" d="M107.5,-56.61C107.5,-47.65 107.5,-37.82 107.5,-30.08"/>
<polygon fill="#63b8ff" stroke="#63b8ff" points="104,-56.9 107.5,-66.9 111,-56.9 104,-56.9"/>
</a>
</g>
</g>
<!-- Node3 -->
<g id="Node000003" class="node">
<title>Node3</title>
<g id="a_Node000003"><a xlink:href="classmlir_1_1OpTrait_1_1TraitBase.html" target="_top" xlink:title="Helper class for implementing traits.">
<polygon fill="white" stroke="#666666" points="185,-195 30,-195 30,-165 185,-165 185,-195"/>
<text text-anchor="start" x="38" y="-183" font-family="Helvetica,sans-Serif" font-size="10.00">mlir::OpTrait::TraitBase</text>
<text text-anchor="middle" x="107.5" y="-172" font-family="Helvetica,sans-Serif" font-size="10.00">&lt; ConcreteType, TraitType &gt;</text>
</a>
</g>
</g>
<!-- Node3&#45;&gt;Node2 -->
<g id="edge2_Node000002_Node000003" class="edge">
<title>Node3&#45;&gt;Node2</title>
<g id="a_edge2_Node000002_Node000003"><a xlink:title=" ">
<path fill="none" stroke="orange" stroke-dasharray="5,2" d="M107.5,-154.7C107.5,-136.55 107.5,-112.35 107.5,-97.22"/>
<polygon fill="orange" stroke="orange" points="104,-154.83 107.5,-164.83 111,-154.83 104,-154.83"/>
</a>
</g>
<text text-anchor="start" x="110.5" y="-136" font-family="Helvetica,sans-Serif" font-size="10.00" fill="grey">&lt; ConcreteType, HasOnlyGraph</text>
<text text-anchor="start" x="110.5" y="-121" font-family="Helvetica,sans-Serif" font-size="10.00" fill="grey">  Region &gt;</text>
</g>
</g>
</svg>
