<?xml version="1.0" encoding="UTF-8" standalone="no"?>
<!DOCTYPE svg PUBLIC "-//W3C//DTD SVG 1.1//EN"
 "http://www.w3.org/Graphics/SVG/1.1/DTD/svg11.dtd">
<!-- Generated by graphviz version 2.43.0 (0)
 -->
<!-- Title: mlir::tblgen::Method Pages: 1 -->
<svg width="276pt" height="299pt"
 viewBox="0.00 0.00 275.50 299.00" xmlns="http://www.w3.org/2000/svg" xmlns:xlink="http://www.w3.org/1999/xlink">
<g id="graph0" class="graph" transform="scale(1 1) rotate(0) translate(4 295)">
<title>mlir::tblgen::Method</title>
<!-- Node1 -->
<g id="node1" class="node">
<title>Node1</title>
<g id="a_node1"><a xlink:title="Class for holding an op&#39;s method for C++ code emission.">
<polygon fill="#bfbfbf" stroke="black" points="36,-57.5 36,-76.5 152,-76.5 152,-57.5 36,-57.5"/>
<text text-anchor="middle" x="94" y="-64.5" font-family="Helvetica,sans-Serif" font-size="10.00">mlir::tblgen::Method</text>
</a>
</g>
</g>
<!-- Node5 -->
<g id="node5" class="node">
<title>Node5</title>
<g id="a_node5"><a xlink:href="classmlir_1_1tblgen_1_1Constructor.html" target="_top" xlink:title=" ">
<polygon fill="none" stroke="black" points="26.5,-0.5 26.5,-19.5 161.5,-19.5 161.5,-0.5 26.5,-0.5"/>
<text text-anchor="middle" x="94" y="-7.5" font-family="Helvetica,sans-Serif" font-size="10.00">mlir::tblgen::Constructor</text>
</a>
</g>
</g>
<!-- Node1&#45;&gt;Node5 -->
<g id="edge5" class="edge">
<title>Node1&#45;&gt;Node5</title>
<path fill="none" stroke="midnightblue" d="M94,-47.12C94,-37.82 94,-27.06 94,-19.71"/>
<polygon fill="midnightblue" stroke="midnightblue" points="90.5,-47.41 94,-57.41 97.5,-47.41 90.5,-47.41"/>
</g>
<!-- Node2 -->
<g id="node2" class="node">
<title>Node2</title>
<g id="a_node2"><a xlink:href="classmlir_1_1tblgen_1_1ClassDeclarationBase.html" target="_top" xlink:title=" ">
<polygon fill="none" stroke="black" points="0,-114.5 0,-144.5 188,-144.5 188,-114.5 0,-114.5"/>
<text text-anchor="start" x="8" y="-132.5" font-family="Helvetica,sans-Serif" font-size="10.00">mlir::tblgen::ClassDeclaration</text>
<text text-anchor="middle" x="94" y="-121.5" font-family="Helvetica,sans-Serif" font-size="10.00">Base&lt; ClassDeclaration::Method &gt;</text>
</a>
</g>
</g>
<!-- Node2&#45;&gt;Node1 -->
<g id="edge1" class="edge">
<title>Node2&#45;&gt;Node1</title>
<path fill="none" stroke="midnightblue" d="M94,-104.35C94,-94.51 94,-83.78 94,-76.54"/>
<polygon fill="midnightblue" stroke="midnightblue" points="90.5,-104.47 94,-114.47 97.5,-104.47 90.5,-104.47"/>
</g>
<!-- Node3 -->
<g id="node3" class="node">
<title>Node3</title>
<g id="a_node3"><a xlink:href="classmlir_1_1tblgen_1_1ClassDeclaration.html" target="_top" xlink:title="A class declaration is a class element that appears as part of its declaration.">
<polygon fill="none" stroke="black" points="9.5,-271.5 9.5,-290.5 170.5,-290.5 170.5,-271.5 9.5,-271.5"/>
<text text-anchor="middle" x="90" y="-278.5" font-family="Helvetica,sans-Serif" font-size="10.00">mlir::tblgen::ClassDeclaration</text>
</a>
</g>
</g>
<!-- Node3&#45;&gt;Node2 -->
<g id="edge2" class="edge">
<title>Node3&#45;&gt;Node2</title>
<path fill="none" stroke="midnightblue" d="M90.51,-260.95C91.32,-230.5 92.9,-171.55 93.62,-144.59"/>
<polygon fill="midnightblue" stroke="midnightblue" points="87.01,-261.01 90.24,-271.1 94,-261.19 87.01,-261.01"/>
</g>
<!-- Node4 -->
<g id="node4" class="node">
<title>Node4</title>
<g id="a_node4"><a xlink:href="classmlir_1_1tblgen_1_1ClassDeclarationBase.html" target="_top" xlink:title="Base class for class declarations.">
<polygon fill="none" stroke="black" points="106.5,-203.5 106.5,-233.5 267.5,-233.5 267.5,-203.5 106.5,-203.5"/>
<text text-anchor="start" x="114.5" y="-221.5" font-family="Helvetica,sans-Serif" font-size="10.00">mlir::tblgen::ClassDeclaration</text>
<text text-anchor="middle" x="187" y="-210.5" font-family="Helvetica,sans-Serif" font-size="10.00">Base&lt; DeclKind &gt;</text>
</a>
</g>
</g>
<!-- Node3&#45;&gt;Node4 -->
<g id="edge4" class="edge">
<title>Node3&#45;&gt;Node4</title>
<path fill="none" stroke="midnightblue" d="M112.43,-266.01C128.07,-256.25 148.86,-243.29 164.51,-233.53"/>
<polygon fill="midnightblue" stroke="midnightblue" points="110.53,-263.07 103.9,-271.33 114.23,-269.01 110.53,-263.07"/>
</g>
<!-- Node4&#45;&gt;Node2 -->
<g id="edge3" class="edge">
<title>Node4&#45;&gt;Node2</title>
<path fill="none" stroke="orange" stroke-dasharray="5,2" d="M164.22,-196.19C147.06,-180.13 124,-158.57 109.07,-144.6"/>
<polygon fill="orange" stroke="orange" points="161.95,-198.86 171.64,-203.13 166.73,-193.75 161.95,-198.86"/>
<text text-anchor="start" x="151" y="-177" font-family="Helvetica,sans-Serif" font-size="10.00"> &lt; ClassDeclaration</text>
<text text-anchor="middle" x="199.5" y="-166" font-family="Helvetica,sans-Serif" font-size="10.00">::Method &gt;</text>
</g>
</g>
</svg>
