<?xml version="1.0" encoding="UTF-8" standalone="no"?>
<!DOCTYPE svg PUBLIC "-//W3C//DTD SVG 1.1//EN"
 "http://www.w3.org/Graphics/SVG/1.1/DTD/svg11.dtd">
<!-- Generated by graphviz version 2.43.0 (0)
 -->
<!-- Title: mlir::OpTrait::NoTerminator&lt; ConcreteType &gt; Pages: 1 -->
<svg width="261pt" height="185pt"
 viewBox="0.00 0.00 260.50 185.00" xmlns="http://www.w3.org/2000/svg" xmlns:xlink="http://www.w3.org/1999/xlink">
<g id="graph0" class="graph" transform="scale(1 1) rotate(0) translate(4 181)">
<title>mlir::OpTrait::NoTerminator&lt; ConcreteType &gt;</title>
<!-- Node1 -->
<g id="node1" class="node">
<title>Node1</title>
<g id="a_node1"><a xlink:title="This class indicates that the regions associated with this op don&#39;t have terminators.">
<polygon fill="#bfbfbf" stroke="black" points="14,-0.5 14,-30.5 163,-30.5 163,-0.5 14,-0.5"/>
<text text-anchor="start" x="22" y="-18.5" font-family="Helvetica,sans-Serif" font-size="10.00">mlir::OpTrait::NoTerminator</text>
<text text-anchor="middle" x="88.5" y="-7.5" font-family="Helvetica,sans-Serif" font-size="10.00">&lt; ConcreteType &gt;</text>
</a>
</g>
</g>
<!-- Node2 -->
<g id="node2" class="node">
<title>Node2</title>
<g id="a_node2"><a xlink:href="classmlir_1_1OpTrait_1_1TraitBase.html" target="_top" xlink:title=" ">
<polygon fill="none" stroke="black" points="0,-68.5 0,-98.5 177,-98.5 177,-68.5 0,-68.5"/>
<text text-anchor="start" x="8" y="-86.5" font-family="Helvetica,sans-Serif" font-size="10.00">mlir::OpTrait::TraitBase</text>
<text text-anchor="middle" x="88.5" y="-75.5" font-family="Helvetica,sans-Serif" font-size="10.00">&lt; ConcreteType, NoTerminator &gt;</text>
</a>
</g>
</g>
<!-- Node2&#45;&gt;Node1 -->
<g id="edge1" class="edge">
<title>Node2&#45;&gt;Node1</title>
<path fill="none" stroke="midnightblue" d="M88.5,-58.03C88.5,-48.86 88.5,-38.74 88.5,-30.79"/>
<polygon fill="midnightblue" stroke="midnightblue" points="85,-58.18 88.5,-68.18 92,-58.18 85,-58.18"/>
</g>
<!-- Node3 -->
<g id="node3" class="node">
<title>Node3</title>
<g id="a_node3"><a xlink:href="classmlir_1_1OpTrait_1_1TraitBase.html" target="_top" xlink:title="Helper class for implementing traits.">
<polygon fill="none" stroke="black" points="11,-146.5 11,-176.5 166,-176.5 166,-146.5 11,-146.5"/>
<text text-anchor="start" x="19" y="-164.5" font-family="Helvetica,sans-Serif" font-size="10.00">mlir::OpTrait::TraitBase</text>
<text text-anchor="middle" x="88.5" y="-153.5" font-family="Helvetica,sans-Serif" font-size="10.00">&lt; ConcreteType, TraitType &gt;</text>
</a>
</g>
</g>
<!-- Node3&#45;&gt;Node2 -->
<g id="edge2" class="edge">
<title>Node3&#45;&gt;Node2</title>
<path fill="none" stroke="orange" stroke-dasharray="5,2" d="M88.5,-136.09C88.5,-123.76 88.5,-109.22 88.5,-98.73"/>
<polygon fill="orange" stroke="orange" points="85,-136.2 88.5,-146.2 92,-136.21 85,-136.2"/>
<text text-anchor="middle" x="170.5" y="-120" font-family="Helvetica,sans-Serif" font-size="10.00"> &lt; ConcreteType, NoTerminator &gt;</text>
</g>
</g>
</svg>
