<?xml version="1.0" encoding="UTF-8" standalone="no"?>
<!DOCTYPE svg PUBLIC "-//W3C//DTD SVG 1.1//EN"
 "http://www.w3.org/Graphics/SVG/1.1/DTD/svg11.dtd">
<!-- Generated by graphviz version 2.43.0 (0)
 -->
<!-- Title: ApplyConversionAction Pages: 1 -->
<svg width="267pt" height="231pt"
 viewBox="0.00 0.00 267.00 231.00" xmlns="http://www.w3.org/2000/svg" xmlns:xlink="http://www.w3.org/1999/xlink">
<g id="graph0" class="graph" transform="scale(1 1) rotate(0) translate(4 227)">
<title>ApplyConversionAction</title>
<!-- Node1 -->
<g id="node1" class="node">
<title>Node1</title>
<g id="a_node1"><a xlink:title="This is the type of Action that is dispatched when a conversion is applied.">
<polygon fill="#bfbfbf" stroke="black" points="11,-0.5 11,-19.5 141,-19.5 141,-0.5 11,-0.5"/>
<text text-anchor="middle" x="76" y="-7.5" font-family="Helvetica,sans-Serif" font-size="10.00">ApplyConversionAction</text>
</a>
</g>
</g>
<!-- Node2 -->
<g id="node2" class="node">
<title>Node2</title>
<g id="a_node2"><a xlink:href="classmlir_1_1tracing_1_1ActionImpl.html" target="_top" xlink:title=" ">
<polygon fill="none" stroke="black" points="0,-57.5 0,-87.5 152,-87.5 152,-57.5 0,-57.5"/>
<text text-anchor="start" x="8" y="-75.5" font-family="Helvetica,sans-Serif" font-size="10.00">mlir::tracing::ActionImpl</text>
<text text-anchor="middle" x="76" y="-64.5" font-family="Helvetica,sans-Serif" font-size="10.00">&lt; ApplyConversionAction &gt;</text>
</a>
</g>
</g>
<!-- Node2&#45;&gt;Node1 -->
<g id="edge1" class="edge">
<title>Node2&#45;&gt;Node1</title>
<path fill="none" stroke="midnightblue" d="M76,-47.35C76,-37.51 76,-26.78 76,-19.54"/>
<polygon fill="midnightblue" stroke="midnightblue" points="72.5,-47.47 76,-57.47 79.5,-47.47 72.5,-47.47"/>
</g>
<!-- Node3 -->
<g id="node3" class="node">
<title>Node3</title>
<g id="a_node3"><a xlink:href="classmlir_1_1tracing_1_1Action.html" target="_top" xlink:title="An action is a specific action that is to be taken by the compiler, that can be toggled and controlle...">
<polygon fill="none" stroke="black" points="15.5,-203.5 15.5,-222.5 128.5,-222.5 128.5,-203.5 15.5,-203.5"/>
<text text-anchor="middle" x="72" y="-210.5" font-family="Helvetica,sans-Serif" font-size="10.00">mlir::tracing::Action</text>
</a>
</g>
</g>
<!-- Node3&#45;&gt;Node2 -->
<g id="edge2" class="edge">
<title>Node3&#45;&gt;Node2</title>
<path fill="none" stroke="midnightblue" d="M72.54,-193.25C73.35,-165.19 74.86,-112.88 75.59,-87.73"/>
<polygon fill="midnightblue" stroke="midnightblue" points="69.04,-193.24 72.25,-203.34 76.04,-193.44 69.04,-193.24"/>
</g>
<!-- Node4 -->
<g id="node4" class="node">
<title>Node4</title>
<g id="a_node4"><a xlink:href="classmlir_1_1tracing_1_1ActionImpl.html" target="_top" xlink:title="CRTP Implementation of an action.">
<polygon fill="none" stroke="black" points="88,-135.5 88,-165.5 222,-165.5 222,-135.5 88,-135.5"/>
<text text-anchor="start" x="96" y="-153.5" font-family="Helvetica,sans-Serif" font-size="10.00">mlir::tracing::ActionImpl</text>
<text text-anchor="middle" x="155" y="-142.5" font-family="Helvetica,sans-Serif" font-size="10.00">&lt; Derived &gt;</text>
</a>
</g>
</g>
<!-- Node3&#45;&gt;Node4 -->
<g id="edge4" class="edge">
<title>Node3&#45;&gt;Node4</title>
<path fill="none" stroke="midnightblue" d="M92.33,-197.18C105.57,-187.53 122.74,-175.01 135.76,-165.53"/>
<polygon fill="midnightblue" stroke="midnightblue" points="89.91,-194.61 83.89,-203.33 94.03,-200.27 89.91,-194.61"/>
</g>
<!-- Node4&#45;&gt;Node2 -->
<g id="edge3" class="edge">
<title>Node4&#45;&gt;Node2</title>
<path fill="none" stroke="orange" stroke-dasharray="5,2" d="M132.69,-128.03C119.27,-115.13 102.58,-99.07 90.79,-87.73"/>
<polygon fill="orange" stroke="orange" points="130.51,-130.79 140.14,-135.2 135.36,-125.75 130.51,-130.79"/>
<text text-anchor="middle" x="189.5" y="-109" font-family="Helvetica,sans-Serif" font-size="10.00"> &lt; ApplyConversionAction &gt;</text>
</g>
</g>
</svg>
