<?xml version="1.0" encoding="UTF-8" standalone="no"?>
<!DOCTYPE svg PUBLIC "-//W3C//DTD SVG 1.1//EN"
 "http://www.w3.org/Graphics/SVG/1.1/DTD/svg11.dtd">
<!-- Generated by graphviz version 2.43.0 (0)
 -->
<!-- Title: mlir::Attribute Pages: 1 -->
<svg width="683pt" height="353pt"
 viewBox="0.00 0.00 683.00 352.50" xmlns="http://www.w3.org/2000/svg" xmlns:xlink="http://www.w3.org/1999/xlink">
<g id="graph0" class="graph" transform="scale(1 1) rotate(0) translate(4 348.5)">
<title>mlir::Attribute</title>
<!-- Node1 -->
<g id="Node000001" class="node">
<title>Node1</title>
<g id="a_Node000001"><a xlink:title="Attributes are known&#45;constant values of operations.">
<polygon fill="#999999" stroke="#666666" points="85,-148 0,-148 0,-129 85,-129 85,-148"/>
<text text-anchor="middle" x="42.5" y="-136" font-family="Helvetica,sans-Serif" font-size="10.00">mlir::Attribute</text>
</a>
</g>
</g>
<!-- Node2 -->
<g id="Node000002" class="node">
<title>Node2</title>
<g id="a_Node000002"><a xlink:href="classmlir_1_1detail_1_1Interface.html" target="_top" xlink:title=" ">
<polygon fill="white" stroke="#666666" points="294.5,-344.5 130.5,-344.5 130.5,-292.5 294.5,-292.5 294.5,-344.5"/>
<text text-anchor="start" x="138.5" y="-332.5" font-family="Helvetica,sans-Serif" font-size="10.00">mlir::detail::Interface</text>
<text text-anchor="start" x="138.5" y="-321.5" font-family="Helvetica,sans-Serif" font-size="10.00">&lt; ConcreteType, Attribute,</text>
<text text-anchor="start" x="138.5" y="-310.5" font-family="Helvetica,sans-Serif" font-size="10.00"> Traits, Attribute, AttributeTrait</text>
<text text-anchor="middle" x="212.5" y="-299.5" font-family="Helvetica,sans-Serif" font-size="10.00">::TraitBase &gt;</text>
</a>
</g>
</g>
<!-- Node1&#45;&gt;Node2 -->
<g id="edge1_Node000001_Node000002" class="edge">
<title>Node1&#45;&gt;Node2</title>
<g id="a_edge1_Node000001_Node000002"><a xlink:title=" ">
<path fill="none" stroke="#63b8ff" d="M49.05,-158.02C58.75,-188.78 81.59,-248.62 121,-283.5 124.66,-286.74 128.65,-289.69 132.85,-292.38"/>
<polygon fill="#63b8ff" stroke="#63b8ff" points="52.3,-156.67 46.07,-148.1 45.6,-158.68 52.3,-156.67"/>
</a>
</g>
</g>
<!-- Node4 -->
<g id="Node000004" class="node">
<title>Node4</title>
<g id="a_Node000004"><a xlink:href="classmlir_1_1detail_1_1StorageUserBase.html" target="_top" xlink:title=" ">
<polygon fill="white" stroke="#666666" points="304,-274.5 121,-274.5 121,-222.5 304,-222.5 304,-274.5"/>
<text text-anchor="start" x="129" y="-262.5" font-family="Helvetica,sans-Serif" font-size="10.00">mlir::detail::StorageUser</text>
<text text-anchor="start" x="129" y="-251.5" font-family="Helvetica,sans-Serif" font-size="10.00">Base&lt; DistinctAttr, Attribute,</text>
<text text-anchor="start" x="129" y="-240.5" font-family="Helvetica,sans-Serif" font-size="10.00"> detail::DistinctAttrStorage,</text>
<text text-anchor="middle" x="212.5" y="-229.5" font-family="Helvetica,sans-Serif" font-size="10.00"> detail::DistinctAttributeUniquer &gt;</text>
</a>
</g>
</g>
<!-- Node1&#45;&gt;Node4 -->
<g id="edge3_Node000001_Node000004" class="edge">
<title>Node1&#45;&gt;Node4</title>
<g id="a_edge3_Node000001_Node000004"><a xlink:title=" ">
<path fill="none" stroke="#63b8ff" d="M57.81,-155.93C72.28,-172.6 96.02,-197.52 121,-213.5 125.97,-216.68 131.27,-219.64 136.72,-222.39"/>
<polygon fill="#63b8ff" stroke="#63b8ff" points="60.27,-153.41 51.13,-148.05 54.93,-157.94 60.27,-153.41"/>
</a>
</g>
</g>
<!-- Node6 -->
<g id="Node000006" class="node">
<title>Node6</title>
<g id="a_Node000006"><a xlink:href="classmlir_1_1BoolAttr.html" target="_top" xlink:title="Special case of IntegerAttr to represent boolean integers, i.e., signless i1 integers.">
<polygon fill="white" stroke="#666666" points="253.5,-204 171.5,-204 171.5,-185 253.5,-185 253.5,-204"/>
<text text-anchor="middle" x="212.5" y="-192" font-family="Helvetica,sans-Serif" font-size="10.00">mlir::BoolAttr</text>
</a>
</g>
</g>
<!-- Node1&#45;&gt;Node6 -->
<g id="edge5_Node000001_Node000006" class="edge">
<title>Node1&#45;&gt;Node6</title>
<g id="a_edge5_Node000001_Node000006"><a xlink:title=" ">
<path fill="none" stroke="#63b8ff" d="M68.92,-153.05C83.71,-160.98 102.95,-170.4 121,-176.5 137.09,-181.94 155.37,-185.96 171.27,-188.81"/>
<polygon fill="#63b8ff" stroke="#63b8ff" points="70.35,-149.84 59.9,-148.1 66.98,-155.98 70.35,-149.84"/>
</a>
</g>
</g>
<!-- Node7 -->
<g id="Node000007" class="node">
<title>Node7</title>
<g id="a_Node000007"><a xlink:href="classmlir_1_1DenseElementsAttr.html" target="_top" xlink:title="An attribute that represents a reference to a dense vector or tensor object.">
<polygon fill="white" stroke="#666666" points="281,-167 144,-167 144,-148 281,-148 281,-167"/>
<text text-anchor="middle" x="212.5" y="-155" font-family="Helvetica,sans-Serif" font-size="10.00">mlir::DenseElementsAttr</text>
</a>
</g>
</g>
<!-- Node1&#45;&gt;Node7 -->
<g id="edge6_Node000001_Node000007" class="edge">
<title>Node1&#45;&gt;Node7</title>
<g id="a_edge6_Node000001_Node000007"><a xlink:title=" ">
<path fill="none" stroke="#63b8ff" d="M95.36,-144.37C110.72,-146.1 127.78,-148.03 143.98,-149.86"/>
<polygon fill="#63b8ff" stroke="#63b8ff" points="95.36,-140.84 85.03,-143.2 94.57,-147.8 95.36,-140.84"/>
</a>
</g>
</g>
<!-- Node9 -->
<g id="Node000009" class="node">
<title>Node9</title>
<g id="a_Node000009"><a xlink:href="classmlir_1_1LLVM_1_1DINodeAttr.html" target="_top" xlink:title="This class represents the base attribute for all debug info attributes.">
<polygon fill="white" stroke="#666666" points="276.5,-130 148.5,-130 148.5,-111 276.5,-111 276.5,-130"/>
<text text-anchor="middle" x="212.5" y="-118" font-family="Helvetica,sans-Serif" font-size="10.00">mlir::LLVM::DINodeAttr</text>
</a>
</g>
</g>
<!-- Node1&#45;&gt;Node9 -->
<g id="edge8_Node000001_Node000009" class="edge">
<title>Node1&#45;&gt;Node9</title>
<g id="a_edge8_Node000001_Node000009"><a xlink:title=" ">
<path fill="none" stroke="#63b8ff" d="M95.17,-132.96C111.92,-131.17 130.7,-129.16 148.2,-127.28"/>
<polygon fill="#63b8ff" stroke="#63b8ff" points="94.6,-129.51 85.03,-134.05 95.34,-136.47 94.6,-129.51"/>
</a>
</g>
</g>
<!-- Node14 -->
<g id="Node000014" class="node">
<title>Node14</title>
<g id="a_Node000014"><a xlink:href="classmlir_1_1LLVM_1_1TBAANodeAttr.html" target="_top" xlink:title="Base class for LLVM attributes participating in the TBAA graph.">
<polygon fill="white" stroke="#666666" points="284,-93 141,-93 141,-74 284,-74 284,-93"/>
<text text-anchor="middle" x="212.5" y="-81" font-family="Helvetica,sans-Serif" font-size="10.00">mlir::LLVM::TBAANodeAttr</text>
</a>
</g>
</g>
<!-- Node1&#45;&gt;Node14 -->
<g id="edge13_Node000001_Node000014" class="edge">
<title>Node1&#45;&gt;Node14</title>
<g id="a_edge13_Node000001_Node000014"><a xlink:title=" ">
<path fill="none" stroke="#63b8ff" d="M70.19,-124.26C84.85,-116.91 103.56,-108.3 121,-102.5 132.12,-98.8 144.26,-95.67 155.93,-93.08"/>
<polygon fill="#63b8ff" stroke="#63b8ff" points="68.5,-121.19 61.19,-128.87 71.69,-127.43 68.5,-121.19"/>
</a>
</g>
</g>
<!-- Node15 -->
<g id="Node000015" class="node">
<title>Node15</title>
<g id="a_Node000015"><a xlink:href="classmlir_1_1LocationAttr.html" target="_top" xlink:title="Location objects represent source locations information in MLIR.">
<polygon fill="white" stroke="#666666" points="263,-56 162,-56 162,-37 263,-37 263,-56"/>
<text text-anchor="middle" x="212.5" y="-44" font-family="Helvetica,sans-Serif" font-size="10.00">mlir::LocationAttr</text>
</a>
</g>
</g>
<!-- Node1&#45;&gt;Node15 -->
<g id="edge14_Node000001_Node000015" class="edge">
<title>Node1&#45;&gt;Node15</title>
<g id="a_edge14_Node000001_Node000015"><a xlink:title=" ">
<path fill="none" stroke="#63b8ff" d="M57.16,-120.94C71.29,-104.04 94.91,-79.12 121,-65.5 133.52,-58.96 148.13,-54.67 161.91,-51.86"/>
<polygon fill="#63b8ff" stroke="#63b8ff" points="54.26,-118.96 50.68,-128.94 59.69,-123.37 54.26,-118.96"/>
</a>
</g>
</g>
<!-- Node16 -->
<g id="Node000016" class="node">
<title>Node16</title>
<g id="a_Node000016"><a xlink:href="classmlir_1_1acc_1_1VariableInfoAttr.html" target="_top" xlink:title="Base attribute class for language&#45;specific variable information carried through the OpenACC type inte...">
<polygon fill="white" stroke="#666666" points="283,-19 142,-19 142,0 283,0 283,-19"/>
<text text-anchor="middle" x="212.5" y="-7" font-family="Helvetica,sans-Serif" font-size="10.00">mlir::acc::VariableInfoAttr</text>
</a>
</g>
</g>
<!-- Node1&#45;&gt;Node16 -->
<g id="edge15_Node000001_Node000016" class="edge">
<title>Node1&#45;&gt;Node16</title>
<g id="a_edge15_Node000001_Node000016"><a xlink:title=" ">
<path fill="none" stroke="#63b8ff" d="M51.2,-119.67C62.55,-94.44 86.24,-50.21 121,-27.5 127.3,-23.38 134.34,-20.17 141.63,-17.67"/>
<polygon fill="#63b8ff" stroke="#63b8ff" points="47.96,-118.34 47.22,-128.91 54.39,-121.11 47.96,-118.34"/>
</a>
</g>
</g>
<!-- Node3 -->
<g id="Node000003" class="node">
<title>Node3</title>
<g id="a_Node000003"><a xlink:href="classmlir_1_1AttributeInterface.html" target="_top" xlink:title="This class represents the base of an attribute interface.">
<polygon fill="white" stroke="#666666" points="479.5,-333.5 342.5,-333.5 342.5,-303.5 479.5,-303.5 479.5,-333.5"/>
<text text-anchor="start" x="350.5" y="-321.5" font-family="Helvetica,sans-Serif" font-size="10.00">mlir::AttributeInterface</text>
<text text-anchor="middle" x="411" y="-310.5" font-family="Helvetica,sans-Serif" font-size="10.00">&lt; ConcreteType, Traits &gt;</text>
</a>
</g>
</g>
<!-- Node2&#45;&gt;Node3 -->
<g id="edge2_Node000002_Node000003" class="edge">
<title>Node2&#45;&gt;Node3</title>
<g id="a_edge2_Node000002_Node000003"><a xlink:title=" ">
<path fill="none" stroke="#63b8ff" d="M304.66,-318.5C317.32,-318.5 330.13,-318.5 342.26,-318.5"/>
<polygon fill="#63b8ff" stroke="#63b8ff" points="304.56,-315 294.56,-318.5 304.56,-322 304.56,-315"/>
</a>
</g>
</g>
<!-- Node5 -->
<g id="Node000005" class="node">
<title>Node5</title>
<g id="a_Node000005"><a xlink:href="classmlir_1_1DistinctAttr.html" target="_top" xlink:title="An attribute that associates a referenced attribute with a unique identifier.">
<polygon fill="white" stroke="#666666" points="460,-258 362,-258 362,-239 460,-239 460,-258"/>
<text text-anchor="middle" x="411" y="-246" font-family="Helvetica,sans-Serif" font-size="10.00">mlir::DistinctAttr</text>
</a>
</g>
</g>
<!-- Node4&#45;&gt;Node5 -->
<g id="edge4_Node000004_Node000005" class="edge">
<title>Node4&#45;&gt;Node5</title>
<g id="a_edge4_Node000004_Node000005"><a xlink:title=" ">
<path fill="none" stroke="#63b8ff" d="M314.56,-248.5C331.08,-248.5 347.5,-248.5 361.94,-248.5"/>
<polygon fill="#63b8ff" stroke="#63b8ff" points="314.27,-245 304.27,-248.5 314.27,-252 314.27,-245"/>
</a>
</g>
</g>
<!-- Node8 -->
<g id="Node000008" class="node">
<title>Node8</title>
<g id="a_Node000008"><a xlink:href="classmlir_1_1SplatElementsAttr.html" target="_top" xlink:title="An attribute that represents a reference to a splat vector or tensor constant, meaning all of the ele...">
<polygon fill="white" stroke="#666666" points="476.5,-185 345.5,-185 345.5,-166 476.5,-166 476.5,-185"/>
<text text-anchor="middle" x="411" y="-173" font-family="Helvetica,sans-Serif" font-size="10.00">mlir::SplatElementsAttr</text>
</a>
</g>
</g>
<!-- Node7&#45;&gt;Node8 -->
<g id="edge7_Node000007_Node000008" class="edge">
<title>Node7&#45;&gt;Node8</title>
<g id="a_edge7_Node000007_Node000008"><a xlink:title=" ">
<path fill="none" stroke="#63b8ff" d="M291.49,-164.64C309.3,-166.28 328.05,-167.99 345.24,-169.57"/>
<polygon fill="#63b8ff" stroke="#63b8ff" points="291.4,-161.12 281.12,-163.69 290.76,-168.09 291.4,-161.12"/>
</a>
</g>
</g>
<!-- Node10 -->
<g id="Node000010" class="node">
<title>Node10</title>
<g id="a_Node000010"><a xlink:href="classmlir_1_1LLVM_1_1DIScopeAttr.html" target="_top" xlink:title="This class represents a LLVM attribute that describes a debug info scope.">
<polygon fill="white" stroke="#666666" points="476.5,-148 345.5,-148 345.5,-129 476.5,-129 476.5,-148"/>
<text text-anchor="middle" x="411" y="-136" font-family="Helvetica,sans-Serif" font-size="10.00">mlir::LLVM::DIScopeAttr</text>
</a>
</g>
</g>
<!-- Node9&#45;&gt;Node10 -->
<g id="edge9_Node000009_Node000010" class="edge">
<title>Node9&#45;&gt;Node10</title>
<g id="a_edge9_Node000009_Node000010"><a xlink:title=" ">
<path fill="none" stroke="#63b8ff" d="M286.92,-127.23C306.05,-128.98 326.53,-130.85 345.18,-132.56"/>
<polygon fill="#63b8ff" stroke="#63b8ff" points="287.03,-123.72 276.76,-126.29 286.39,-130.69 287.03,-123.72"/>
</a>
</g>
</g>
<!-- Node12 -->
<g id="Node000012" class="node">
<title>Node12</title>
<g id="a_Node000012"><a xlink:href="classmlir_1_1LLVM_1_1DITypeAttr.html" target="_top" xlink:title="This class represents a LLVM attribute that describes a debug info type.">
<polygon fill="white" stroke="#666666" points="473.5,-111 348.5,-111 348.5,-92 473.5,-92 473.5,-111"/>
<text text-anchor="middle" x="411" y="-99" font-family="Helvetica,sans-Serif" font-size="10.00">mlir::LLVM::DITypeAttr</text>
</a>
</g>
</g>
<!-- Node9&#45;&gt;Node12 -->
<g id="edge11_Node000009_Node000012" class="edge">
<title>Node9&#45;&gt;Node12</title>
<g id="a_edge11_Node000009_Node000012"><a xlink:title=" ">
<path fill="none" stroke="#63b8ff" d="M286.84,-113.41C307.04,-111.46 328.73,-109.36 348.21,-107.48"/>
<polygon fill="#63b8ff" stroke="#63b8ff" points="286.37,-109.94 276.76,-114.38 287.05,-116.9 286.37,-109.94"/>
</a>
</g>
</g>
<!-- Node13 -->
<g id="Node000013" class="node">
<title>Node13</title>
<g id="a_Node000013"><a xlink:href="classmlir_1_1LLVM_1_1DIVariableAttr.html" target="_top" xlink:title="This class represents a LLVM attribute that describes a debug info variable.">
<polygon fill="white" stroke="#666666" points="482,-74 340,-74 340,-55 482,-55 482,-74"/>
<text text-anchor="middle" x="411" y="-62" font-family="Helvetica,sans-Serif" font-size="10.00">mlir::LLVM::DIVariableAttr</text>
</a>
</g>
</g>
<!-- Node9&#45;&gt;Node13 -->
<g id="edge12_Node000009_Node000013" class="edge">
<title>Node9&#45;&gt;Node13</title>
<g id="a_edge12_Node000009_Node000013"><a xlink:title=" ">
<path fill="none" stroke="#63b8ff" d="M284.04,-108.55C290.86,-106.78 297.61,-104.77 304,-102.5 321.05,-96.45 323.17,-90.13 340,-83.5 349.14,-79.9 359.21,-76.73 368.79,-74.06"/>
<polygon fill="#63b8ff" stroke="#63b8ff" points="282.92,-105.22 274.04,-110.99 284.58,-112.02 282.92,-105.22"/>
</a>
</g>
</g>
<!-- Node11 -->
<g id="Node000011" class="node">
<title>Node11</title>
<g id="a_Node000011"><a xlink:href="classmlir_1_1LLVM_1_1DILocalScopeAttr.html" target="_top" xlink:title="This class represents a LLVM attribute that describes a local debug info scope.">
<polygon fill="white" stroke="#666666" points="675,-148 518,-148 518,-129 675,-129 675,-148"/>
<text text-anchor="middle" x="596.5" y="-136" font-family="Helvetica,sans-Serif" font-size="10.00">mlir::LLVM::DILocalScopeAttr</text>
</a>
</g>
</g>
<!-- Node10&#45;&gt;Node11 -->
<g id="edge10_Node000010_Node000011" class="edge">
<title>Node10&#45;&gt;Node11</title>
<g id="a_edge10_Node000010_Node000011"><a xlink:title=" ">
<path fill="none" stroke="#63b8ff" d="M486.82,-138.5C497.05,-138.5 507.58,-138.5 517.87,-138.5"/>
<polygon fill="#63b8ff" stroke="#63b8ff" points="486.7,-135 476.7,-138.5 486.7,-142 486.7,-135"/>
</a>
</g>
</g>
</g>
</svg>
