<?xml version="1.0" encoding="UTF-8" standalone="no"?>
<!DOCTYPE svg PUBLIC "-//W3C//DTD SVG 1.1//EN"
 "http://www.w3.org/Graphics/SVG/1.1/DTD/svg11.dtd">
<!-- Generated by graphviz version 2.43.0 (0)
 -->
<!-- Title: mlir::sparse_tensor::MutSparseTensorDescriptor Pages: 1 -->
<svg width="201pt" height="218pt"
 viewBox="0.00 0.00 200.50 218.00" xmlns="http://www.w3.org/2000/svg" xmlns:xlink="http://www.w3.org/1999/xlink">
<g id="graph0" class="graph" transform="scale(1 1) rotate(0) translate(4 214)">
<title>mlir::sparse_tensor::MutSparseTensorDescriptor</title>
<!-- Node1 -->
<g id="node1" class="node">
<title>Node1</title>
<g id="a_node1"><a xlink:title="Using SmallVector for mutable descriptor allows users to reuse it as a tmp buffers to append value fo...">
<polygon fill="#bfbfbf" stroke="black" points="11.5,-0.5 11.5,-30.5 167.5,-30.5 167.5,-0.5 11.5,-0.5"/>
<text text-anchor="start" x="19.5" y="-18.5" font-family="Helvetica,sans-Serif" font-size="10.00">mlir::sparse_tensor</text>
<text text-anchor="middle" x="89.5" y="-7.5" font-family="Helvetica,sans-Serif" font-size="10.00">::MutSparseTensorDescriptor</text>
</a>
</g>
</g>
<!-- Node2 -->
<g id="node2" class="node">
<title>Node2</title>
<g id="a_node2"><a xlink:href="classmlir_1_1sparse__tensor_1_1SparseTensorDescriptorImpl.html" target="_top" xlink:title=" ">
<polygon fill="none" stroke="black" points="0,-68.5 0,-109.5 179,-109.5 179,-68.5 0,-68.5"/>
<text text-anchor="start" x="8" y="-97.5" font-family="Helvetica,sans-Serif" font-size="10.00">mlir::sparse_tensor</text>
<text text-anchor="start" x="8" y="-86.5" font-family="Helvetica,sans-Serif" font-size="10.00">::SparseTensorDescriptorImpl</text>
<text text-anchor="middle" x="89.5" y="-75.5" font-family="Helvetica,sans-Serif" font-size="10.00">&lt; SmallVectorImpl&lt; Value &gt; &amp; &gt;</text>
</a>
</g>
</g>
<!-- Node2&#45;&gt;Node1 -->
<g id="edge1" class="edge">
<title>Node2&#45;&gt;Node1</title>
<path fill="none" stroke="midnightblue" d="M89.5,-58.16C89.5,-48.69 89.5,-38.65 89.5,-30.8"/>
<polygon fill="midnightblue" stroke="midnightblue" points="86,-58.46 89.5,-68.46 93,-58.46 86,-58.46"/>
</g>
<!-- Node3 -->
<g id="node3" class="node">
<title>Node3</title>
<g id="a_node3"><a xlink:href="classmlir_1_1sparse__tensor_1_1SparseTensorDescriptorImpl.html" target="_top" xlink:title="A helper class around an array of values that corresponds to a sparse tensor.">
<polygon fill="none" stroke="black" points="10,-168.5 10,-209.5 169,-209.5 169,-168.5 10,-168.5"/>
<text text-anchor="start" x="18" y="-197.5" font-family="Helvetica,sans-Serif" font-size="10.00">mlir::sparse_tensor</text>
<text text-anchor="start" x="18" y="-186.5" font-family="Helvetica,sans-Serif" font-size="10.00">::SparseTensorDescriptorImpl</text>
<text text-anchor="middle" x="89.5" y="-175.5" font-family="Helvetica,sans-Serif" font-size="10.00">&lt; ValueArrayRef &gt;</text>
</a>
</g>
</g>
<!-- Node3&#45;&gt;Node2 -->
<g id="edge2" class="edge">
<title>Node3&#45;&gt;Node2</title>
<path fill="none" stroke="orange" stroke-dasharray="5,2" d="M89.5,-157.92C89.5,-142.29 89.5,-123.61 89.5,-109.8"/>
<polygon fill="orange" stroke="orange" points="86,-158.17 89.5,-168.17 93,-158.17 86,-158.17"/>
<text text-anchor="start" x="89.5" y="-142" font-family="Helvetica,sans-Serif" font-size="10.00"> &lt; SmallVectorImpl&lt;</text>
<text text-anchor="middle" x="141" y="-131" font-family="Helvetica,sans-Serif" font-size="10.00"> Value &gt; &amp; &gt;</text>
</g>
</g>
</svg>
