<?xml version="1.0" encoding="UTF-8" standalone="no"?>
<!DOCTYPE svg PUBLIC "-//W3C//DTD SVG 1.1//EN"
 "http://www.w3.org/Graphics/SVG/1.1/DTD/svg11.dtd">
<!-- Generated by graphviz version 2.43.0 (0)
 -->
<!-- Title: mlir::impl::StageSparseOperationsBase&lt; DerivedT &gt; Pages: 1 -->
<svg width="232pt" height="244pt"
 viewBox="0.00 0.00 232.00 244.00" xmlns="http://www.w3.org/2000/svg" xmlns:xlink="http://www.w3.org/1999/xlink">
<g id="graph0" class="graph" transform="scale(1 1) rotate(0) translate(4 240)">
<title>mlir::impl::StageSparseOperationsBase&lt; DerivedT &gt;</title>
<!-- Node1 -->
<g id="Node000001" class="node">
<title>Node1</title>
<g id="a_Node000001"><a xlink:title=" ">
<polygon fill="#999999" stroke="#666666" points="184,-30 0,-30 0,0 184,0 184,-30"/>
<text text-anchor="start" x="8" y="-18" font-family="Helvetica,sans-Serif" font-size="10.00">mlir::impl::StageSparseOperations</text>
<text text-anchor="middle" x="92" y="-7" font-family="Helvetica,sans-Serif" font-size="10.00">Base&lt; DerivedT &gt;</text>
</a>
</g>
</g>
<!-- Node2 -->
<g id="Node000002" class="node">
<title>Node2</title>
<g id="a_Node000002"><a xlink:href="classmlir_1_1OperationPass.html" target="_top" xlink:title=" ">
<polygon fill="white" stroke="#666666" points="148,-97 36,-97 36,-67 148,-67 148,-97"/>
<text text-anchor="start" x="44" y="-85" font-family="Helvetica,sans-Serif" font-size="10.00">mlir::OperationPass</text>
<text text-anchor="middle" x="92" y="-74" font-family="Helvetica,sans-Serif" font-size="10.00">&lt; func::FuncOp &gt;</text>
</a>
</g>
</g>
<!-- Node2&#45;&gt;Node1 -->
<g id="edge1_Node000001_Node000002" class="edge">
<title>Node2&#45;&gt;Node1</title>
<g id="a_edge1_Node000001_Node000002"><a xlink:title=" ">
<path fill="none" stroke="#63b8ff" d="M92,-56.61C92,-47.65 92,-37.82 92,-30.08"/>
<polygon fill="#63b8ff" stroke="#63b8ff" points="88.5,-56.9 92,-66.9 95.5,-56.9 88.5,-56.9"/>
</a>
</g>
</g>
<!-- Node3 -->
<g id="Node000003" class="node">
<title>Node3</title>
<g id="a_Node000003"><a xlink:href="classmlir_1_1Pass.html" target="_top" xlink:title="The abstract base pass class.">
<polygon fill="white" stroke="#666666" points="120,-236 56,-236 56,-217 120,-217 120,-236"/>
<text text-anchor="middle" x="88" y="-224" font-family="Helvetica,sans-Serif" font-size="10.00">mlir::Pass</text>
</a>
</g>
</g>
<!-- Node3&#45;&gt;Node2 -->
<g id="edge2_Node000002_Node000003" class="edge">
<title>Node3&#45;&gt;Node2</title>
<g id="a_edge2_Node000002_Node000003"><a xlink:title=" ">
<path fill="none" stroke="#63b8ff" d="M88.53,-206.54C89.35,-177.58 90.88,-122.99 91.6,-97.19"/>
<polygon fill="#63b8ff" stroke="#63b8ff" points="85.03,-206.49 88.25,-216.59 92.03,-206.69 85.03,-206.49"/>
</a>
</g>
</g>
<!-- Node4 -->
<g id="Node000004" class="node">
<title>Node4</title>
<g id="a_Node000004"><a xlink:href="classmlir_1_1OperationPass.html" target="_top" xlink:title="Pass to transform an operation of a specific type.">
<polygon fill="white" stroke="#666666" points="216,-180 104,-180 104,-150 216,-150 216,-180"/>
<text text-anchor="start" x="112" y="-168" font-family="Helvetica,sans-Serif" font-size="10.00">mlir::OperationPass</text>
<text text-anchor="middle" x="160" y="-157" font-family="Helvetica,sans-Serif" font-size="10.00">&lt; OpT &gt;</text>
</a>
</g>
</g>
<!-- Node3&#45;&gt;Node4 -->
<g id="edge4_Node000004_Node000003" class="edge">
<title>Node3&#45;&gt;Node4</title>
<g id="a_edge4_Node000004_Node000003"><a xlink:title=" ">
<path fill="none" stroke="#63b8ff" d="M106.25,-210.42C117.55,-201.08 131.97,-189.16 143.03,-180.02"/>
<polygon fill="#63b8ff" stroke="#63b8ff" points="103.79,-207.91 98.32,-216.98 108.25,-213.3 103.79,-207.91"/>
</a>
</g>
</g>
<!-- Node4&#45;&gt;Node2 -->
<g id="edge3_Node000002_Node000004" class="edge">
<title>Node4&#45;&gt;Node2</title>
<g id="a_edge3_Node000002_Node000004"><a xlink:title=" ">
<path fill="none" stroke="orange" stroke-dasharray="5,2" d="M141.55,-142.02C129.58,-127.76 114.34,-109.61 103.94,-97.22"/>
<polygon fill="orange" stroke="orange" points="139.04,-144.48 148.16,-149.89 144.41,-139.98 139.04,-144.48"/>
</a>
</g>
<text text-anchor="start" x="135" y="-120.5" font-family="Helvetica,sans-Serif" font-size="10.00" fill="grey">&lt; func::FuncOp &gt;</text>
</g>
</g>
</svg>
