<?xml version="1.0" encoding="UTF-8" standalone="no"?>
<!DOCTYPE svg PUBLIC "-//W3C//DTD SVG 1.1//EN"
 "http://www.w3.org/Graphics/SVG/1.1/DTD/svg11.dtd">
<!-- Generated by graphviz version 2.43.0 (0)
 -->
<!-- Title: mlir::InterfacePass&lt; InterfaceT &gt; Pages: 1 -->
<svg width="1499pt" height="570pt"
 viewBox="0.00 0.00 1499.00 569.97" xmlns="http://www.w3.org/2000/svg" xmlns:xlink="http://www.w3.org/1999/xlink">
<g id="graph0" class="graph" transform="scale(1 1) rotate(0) translate(4 565.97)">
<title>mlir::InterfacePass&lt; InterfaceT &gt;</title>
<!-- Node1 -->
<g id="Node000001" class="node">
<title>Node1</title>
<g id="a_Node000001"><a xlink:title="Pass to transform an operation that implements the given interface.">
<polygon fill="#999999" stroke="#666666" points="357,-344 250,-344 250,-314 357,-314 357,-344"/>
<text text-anchor="start" x="258" y="-332" font-family="Helvetica,sans-Serif" font-size="10.00">mlir::InterfacePass</text>
<text text-anchor="middle" x="303.5" y="-321" font-family="Helvetica,sans-Serif" font-size="10.00">&lt; InterfaceT &gt;</text>
</a>
</g>
</g>
<!-- Node4 -->
<g id="Node000004" class="node">
<title>Node4</title>
<g id="a_Node000004"><a xlink:href="classmlir_1_1InterfacePass.html" target="_top" xlink:title=" ">
<polygon fill="white" stroke="#666666" points="709,-532 546,-532 546,-502 709,-502 709,-532"/>
<text text-anchor="start" x="554" y="-520" font-family="Helvetica,sans-Serif" font-size="10.00">mlir::InterfacePass</text>
<text text-anchor="middle" x="627.5" y="-509" font-family="Helvetica,sans-Serif" font-size="10.00">&lt; mlir::FunctionOpInterface &gt;</text>
</a>
</g>
</g>
<!-- Node1&#45;&gt;Node4 -->
<g id="edge3_Node000001_Node000004" class="edge">
<title>Node1&#45;&gt;Node4</title>
<g id="a_edge3_Node000001_Node000004"><a xlink:title=" ">
<path fill="none" stroke="orange" stroke-dasharray="5,2" d="M338.96,-349.12C403.86,-387.01 542.87,-468.17 600.57,-501.86"/>
<polygon fill="orange" stroke="orange" points="340.71,-346.09 330.31,-344.07 337.18,-352.13 340.71,-346.09"/>
</a>
</g>
<text text-anchor="start" x="378.5" y="-461.5" font-family="Helvetica,sans-Serif" font-size="10.00" fill="grey">&lt; mlir::FunctionOpInterface &gt;</text>
</g>
<!-- Node9 -->
<g id="Node000009" class="node">
<title>Node9</title>
<g id="a_Node000009"><a xlink:href="classmlir_1_1InterfacePass.html" target="_top" xlink:title=" ">
<polygon fill="white" stroke="#666666" points="696,-236 559,-236 559,-206 696,-206 696,-236"/>
<text text-anchor="start" x="567" y="-224" font-family="Helvetica,sans-Serif" font-size="10.00">mlir::InterfacePass</text>
<text text-anchor="middle" x="627.5" y="-213" font-family="Helvetica,sans-Serif" font-size="10.00">&lt; FunctionOpInterface &gt;</text>
</a>
</g>
</g>
<!-- Node1&#45;&gt;Node9 -->
<g id="edge9_Node000001_Node000009" class="edge">
<title>Node1&#45;&gt;Node9</title>
<g id="a_edge9_Node000001_Node000009"><a xlink:title=" ">
<path fill="none" stroke="orange" stroke-dasharray="5,2" d="M358.98,-310.73C421.62,-289.72 523.29,-255.62 581.59,-236.06"/>
<polygon fill="orange" stroke="orange" points="357.64,-307.48 349.27,-313.98 359.87,-314.12 357.64,-307.48"/>
</a>
</g>
<text text-anchor="start" x="391.5" y="-308.5" font-family="Helvetica,sans-Serif" font-size="10.00" fill="grey">&lt; FunctionOpInterface &gt;</text>
</g>
<!-- Node2 -->
<g id="Node000002" class="node">
<title>Node2</title>
<g id="a_Node000002"><a xlink:href="classmlir_1_1OperationPass.html" target="_top" xlink:title="Pass to transform an operation of a specific type.">
<polygon fill="white" stroke="#666666" points="213,-344 101,-344 101,-314 213,-314 213,-344"/>
<text text-anchor="start" x="109" y="-332" font-family="Helvetica,sans-Serif" font-size="10.00">mlir::OperationPass</text>
<text text-anchor="middle" x="157" y="-321" font-family="Helvetica,sans-Serif" font-size="10.00">&lt; OpT &gt;</text>
</a>
</g>
</g>
<!-- Node2&#45;&gt;Node1 -->
<g id="edge1_Node000001_Node000002" class="edge">
<title>Node2&#45;&gt;Node1</title>
<g id="a_edge1_Node000001_Node000002"><a xlink:title=" ">
<path fill="none" stroke="#63b8ff" d="M223.11,-329C232.11,-329 241.26,-329 249.99,-329"/>
<polygon fill="#63b8ff" stroke="#63b8ff" points="223.04,-325.5 213.04,-329 223.04,-332.5 223.04,-325.5"/>
</a>
</g>
</g>
<!-- Node3 -->
<g id="Node000003" class="node">
<title>Node3</title>
<g id="a_Node000003"><a xlink:href="classmlir_1_1Pass.html" target="_top" xlink:title="The abstract base pass class.">
<polygon fill="white" stroke="#666666" points="64,-338.5 0,-338.5 0,-319.5 64,-319.5 64,-338.5"/>
<text text-anchor="middle" x="32" y="-326.5" font-family="Helvetica,sans-Serif" font-size="10.00">mlir::Pass</text>
</a>
</g>
</g>
<!-- Node3&#45;&gt;Node2 -->
<g id="edge2_Node000002_Node000003" class="edge">
<title>Node3&#45;&gt;Node2</title>
<g id="a_edge2_Node000002_Node000003"><a xlink:title=" ">
<path fill="none" stroke="#63b8ff" d="M74.06,-329C82.55,-329 91.64,-329 100.55,-329"/>
<polygon fill="#63b8ff" stroke="#63b8ff" points="74.04,-325.5 64.04,-329 74.04,-332.5 74.04,-325.5"/>
</a>
</g>
</g>
<!-- Node5 -->
<g id="Node000005" class="node">
<title>Node5</title>
<g id="a_Node000005"><a xlink:href="classmlir_1_1shard_1_1impl_1_1ShardingPropagationBase.html" target="_top" xlink:title=" ">
<polygon fill="white" stroke="#666666" points="1283,-512.5 1141,-512.5 1141,-471.5 1283,-471.5 1283,-512.5"/>
<text text-anchor="start" x="1149" y="-500.5" font-family="Helvetica,sans-Serif" font-size="10.00">mlir::shard::impl::</text>
<text text-anchor="start" x="1149" y="-489.5" font-family="Helvetica,sans-Serif" font-size="10.00">ShardingPropagationBase</text>
<text text-anchor="middle" x="1212" y="-478.5" font-family="Helvetica,sans-Serif" font-size="10.00">&lt; ShardingPropagation &gt;</text>
</a>
</g>
</g>
<!-- Node4&#45;&gt;Node5 -->
<g id="edge4_Node000004_Node000005" class="edge">
<title>Node4&#45;&gt;Node5</title>
<g id="a_edge4_Node000004_Node000005"><a xlink:title=" ">
<path fill="none" stroke="#63b8ff" d="M674.3,-535.5C695.7,-543.18 721.76,-551.18 746,-555 888.64,-577.49 1056.67,-538.64 1146.56,-512.6"/>
<polygon fill="#63b8ff" stroke="#63b8ff" points="675.41,-532.18 664.82,-532.01 673,-538.75 675.41,-532.18"/>
</a>
</g>
</g>
<!-- Node7 -->
<g id="Node000007" class="node">
<title>Node7</title>
<g id="a_Node000007"><a xlink:href="classmlir_1_1shard_1_1impl_1_1PartitionBase.html" target="_top" xlink:title=" ">
<polygon fill="white" stroke="#666666" points="908,-546 760,-546 760,-516 908,-516 908,-546"/>
<text text-anchor="start" x="768" y="-534" font-family="Helvetica,sans-Serif" font-size="10.00">mlir::shard::impl::</text>
<text text-anchor="middle" x="834" y="-523" font-family="Helvetica,sans-Serif" font-size="10.00">PartitionBase&lt; DerivedT &gt;</text>
</a>
</g>
</g>
<!-- Node4&#45;&gt;Node7 -->
<g id="edge6_Node000004_Node000007" class="edge">
<title>Node4&#45;&gt;Node7</title>
<g id="a_edge6_Node000004_Node000007"><a xlink:title=" ">
<path fill="none" stroke="#63b8ff" d="M719.33,-523.22C732.89,-524.15 746.73,-525.09 759.86,-525.99"/>
<polygon fill="#63b8ff" stroke="#63b8ff" points="719.25,-519.7 709.03,-522.51 718.77,-526.69 719.25,-519.7"/>
</a>
</g>
</g>
<!-- Node8 -->
<g id="Node000008" class="node">
<title>Node8</title>
<g id="a_Node000008"><a xlink:href="classmlir_1_1shard_1_1impl_1_1ShardingPropagationBase.html" target="_top" xlink:title=" ">
<polygon fill="white" stroke="#666666" points="905,-497.5 763,-497.5 763,-456.5 905,-456.5 905,-497.5"/>
<text text-anchor="start" x="771" y="-485.5" font-family="Helvetica,sans-Serif" font-size="10.00">mlir::shard::impl::</text>
<text text-anchor="start" x="771" y="-474.5" font-family="Helvetica,sans-Serif" font-size="10.00">ShardingPropagationBase</text>
<text text-anchor="middle" x="834" y="-463.5" font-family="Helvetica,sans-Serif" font-size="10.00">&lt; DerivedT &gt;</text>
</a>
</g>
</g>
<!-- Node4&#45;&gt;Node8 -->
<g id="edge7_Node000004_Node000008" class="edge">
<title>Node4&#45;&gt;Node8</title>
<g id="a_edge7_Node000004_Node000008"><a xlink:title=" ">
<path fill="none" stroke="#63b8ff" d="M715.09,-500.06C731.04,-496.94 747.53,-493.72 762.92,-490.71"/>
<polygon fill="#63b8ff" stroke="#63b8ff" points="714.37,-496.64 705.23,-501.99 715.72,-503.51 714.37,-496.64"/>
</a>
</g>
</g>
<!-- Node6 -->
<g id="Node000006" class="node">
<title>Node6</title>
<g id="a_Node000006"><a xlink:href="structShardingPropagation.html" target="_top" xlink:title=" ">
<polygon fill="white" stroke="#666666" points="1477,-501.5 1359,-501.5 1359,-482.5 1477,-482.5 1477,-501.5"/>
<text text-anchor="middle" x="1418" y="-489.5" font-family="Helvetica,sans-Serif" font-size="10.00">ShardingPropagation</text>
</a>
</g>
</g>
<!-- Node5&#45;&gt;Node6 -->
<g id="edge5_Node000005_Node000006" class="edge">
<title>Node5&#45;&gt;Node6</title>
<g id="a_edge5_Node000005_Node000006"><a xlink:title=" ">
<path fill="none" stroke="#63b8ff" d="M1293.46,-492C1315.3,-492 1338.51,-492 1358.85,-492"/>
<polygon fill="#63b8ff" stroke="#63b8ff" points="1293.21,-488.5 1283.21,-492 1293.21,-495.5 1293.21,-488.5"/>
</a>
</g>
</g>
<!-- Node8&#45;&gt;Node5 -->
<g id="edge8_Node000008_Node000005" class="edge">
<title>Node8&#45;&gt;Node5</title>
<g id="a_edge8_Node000008_Node000005"><a xlink:title=" ">
<path fill="none" stroke="orange" stroke-dasharray="5,2" d="M915.37,-480.21C982.33,-482.88 1076.76,-486.64 1140.74,-489.2"/>
<polygon fill="orange" stroke="orange" points="915.41,-476.71 905.28,-479.8 915.13,-483.7 915.41,-476.71"/>
</a>
</g>
<text text-anchor="start" x="957" y="-492.5" font-family="Helvetica,sans-Serif" font-size="10.00" fill="grey">&lt; ShardingPropagation &gt;</text>
</g>
<!-- Node10 -->
<g id="Node000010" class="node">
<title>Node10</title>
<g id="a_Node000010"><a xlink:href="classmlir_1_1affine_1_1impl_1_1SimplifyAffineMinMaxPassBase.html" target="_top" xlink:title=" ">
<polygon fill="white" stroke="#666666" points="1308,-442.5 1116,-442.5 1116,-401.5 1308,-401.5 1308,-442.5"/>
<text text-anchor="start" x="1124" y="-430.5" font-family="Helvetica,sans-Serif" font-size="10.00">mlir::affine::impl</text>
<text text-anchor="start" x="1124" y="-419.5" font-family="Helvetica,sans-Serif" font-size="10.00">::SimplifyAffineMinMaxPass</text>
<text text-anchor="middle" x="1212" y="-408.5" font-family="Helvetica,sans-Serif" font-size="10.00">Base&lt; SimplifyAffineMinMaxPass &gt;</text>
</a>
</g>
</g>
<!-- Node9&#45;&gt;Node10 -->
<g id="edge10_Node000009_Node000010" class="edge">
<title>Node9&#45;&gt;Node10</title>
<g id="a_edge10_Node000009_Node000010"><a xlink:title=" ">
<path fill="none" stroke="#63b8ff" d="M635.56,-245.78C649.08,-288.04 683.03,-372.94 746,-409 806.75,-443.79 998.49,-437.42 1115.94,-429.68"/>
<polygon fill="#63b8ff" stroke="#63b8ff" points="638.84,-244.55 632.56,-236.02 632.15,-246.6 638.84,-244.55"/>
</a>
</g>
</g>
<!-- Node12 -->
<g id="Node000012" class="node">
<title>Node12</title>
<g id="a_Node000012"><a xlink:href="classmlir_1_1affine_1_1impl_1_1AffineLoopUnrollAndJamBase.html" target="_top" xlink:title=" ">
<polygon fill="white" stroke="#666666" points="916.5,-399.5 751.5,-399.5 751.5,-358.5 916.5,-358.5 916.5,-399.5"/>
<text text-anchor="start" x="759.5" y="-387.5" font-family="Helvetica,sans-Serif" font-size="10.00">mlir::affine::impl</text>
<text text-anchor="start" x="759.5" y="-376.5" font-family="Helvetica,sans-Serif" font-size="10.00">::AffineLoopUnrollAndJamBase</text>
<text text-anchor="middle" x="834" y="-365.5" font-family="Helvetica,sans-Serif" font-size="10.00">&lt; DerivedT &gt;</text>
</a>
</g>
</g>
<!-- Node9&#45;&gt;Node12 -->
<g id="edge12_Node000009_Node000012" class="edge">
<title>Node9&#45;&gt;Node12</title>
<g id="a_edge12_Node000009_Node000012"><a xlink:title=" ">
<path fill="none" stroke="#63b8ff" d="M644.39,-244.47C664.8,-272.96 702.78,-320.68 746,-349 751.35,-352.5 757.14,-355.64 763.12,-358.45"/>
<polygon fill="#63b8ff" stroke="#63b8ff" points="647.25,-242.46 638.63,-236.29 641.53,-246.48 647.25,-242.46"/>
</a>
</g>
</g>
<!-- Node13 -->
<g id="Node000013" class="node">
<title>Node13</title>
<g id="a_Node000013"><a xlink:href="classmlir_1_1affine_1_1impl_1_1AffineLoopUnrollBase.html" target="_top" xlink:title=" ">
<polygon fill="white" stroke="#666666" points="898,-340.5 770,-340.5 770,-299.5 898,-299.5 898,-340.5"/>
<text text-anchor="start" x="778" y="-328.5" font-family="Helvetica,sans-Serif" font-size="10.00">mlir::affine::impl</text>
<text text-anchor="start" x="778" y="-317.5" font-family="Helvetica,sans-Serif" font-size="10.00">::AffineLoopUnrollBase</text>
<text text-anchor="middle" x="834" y="-306.5" font-family="Helvetica,sans-Serif" font-size="10.00">&lt; DerivedT &gt;</text>
</a>
</g>
</g>
<!-- Node9&#45;&gt;Node13 -->
<g id="edge13_Node000009_Node000013" class="edge">
<title>Node9&#45;&gt;Node13</title>
<g id="a_edge13_Node000009_Node000013"><a xlink:title=" ">
<path fill="none" stroke="#63b8ff" d="M659.87,-241.74C683.02,-256.46 715.65,-276.02 746,-290 753.55,-293.47 761.62,-296.78 769.69,-299.83"/>
<polygon fill="#63b8ff" stroke="#63b8ff" points="661.48,-238.61 651.17,-236.15 657.69,-244.5 661.48,-238.61"/>
</a>
</g>
</g>
<!-- Node14 -->
<g id="Node000014" class="node">
<title>Node14</title>
<g id="a_Node000014"><a xlink:href="classmlir_1_1affine_1_1impl_1_1SimplifyAffineMinMaxPassBase.html" target="_top" xlink:title=" ">
<polygon fill="white" stroke="#666666" points="910,-281.5 758,-281.5 758,-240.5 910,-240.5 910,-281.5"/>
<text text-anchor="start" x="766" y="-269.5" font-family="Helvetica,sans-Serif" font-size="10.00">mlir::affine::impl</text>
<text text-anchor="start" x="766" y="-258.5" font-family="Helvetica,sans-Serif" font-size="10.00">::SimplifyAffineMinMaxPass</text>
<text text-anchor="middle" x="834" y="-247.5" font-family="Helvetica,sans-Serif" font-size="10.00">Base&lt; DerivedT &gt;</text>
</a>
</g>
</g>
<!-- Node9&#45;&gt;Node14 -->
<g id="edge14_Node000009_Node000014" class="edge">
<title>Node9&#45;&gt;Node14</title>
<g id="a_edge14_Node000009_Node000014"><a xlink:title=" ">
<path fill="none" stroke="#63b8ff" d="M705.91,-236.14C722.9,-239.46 740.87,-242.98 757.78,-246.29"/>
<polygon fill="#63b8ff" stroke="#63b8ff" points="706.51,-232.69 696.03,-234.21 705.17,-239.56 706.51,-232.69"/>
</a>
</g>
</g>
<!-- Node15 -->
<g id="Node000015" class="node">
<title>Node15</title>
<g id="a_Node000015"><a xlink:href="classmlir_1_1impl_1_1ConvertAffineForToGPUPassBase.html" target="_top" xlink:title=" ">
<polygon fill="white" stroke="#666666" points="922,-222 746,-222 746,-192 922,-192 922,-222"/>
<text text-anchor="start" x="754" y="-210" font-family="Helvetica,sans-Serif" font-size="10.00">mlir::impl::ConvertAffine</text>
<text text-anchor="middle" x="834" y="-199" font-family="Helvetica,sans-Serif" font-size="10.00">ForToGPUPassBase&lt; DerivedT &gt;</text>
</a>
</g>
</g>
<!-- Node9&#45;&gt;Node15 -->
<g id="edge16_Node000009_Node000015" class="edge">
<title>Node9&#45;&gt;Node15</title>
<g id="a_edge16_Node000009_Node000015"><a xlink:title=" ">
<path fill="none" stroke="#63b8ff" d="M706.27,-215.68C719.2,-214.79 732.7,-213.87 745.85,-212.97"/>
<polygon fill="#63b8ff" stroke="#63b8ff" points="705.77,-212.2 696.03,-216.38 706.24,-219.19 705.77,-212.2"/>
</a>
</g>
</g>
<!-- Node16 -->
<g id="Node000016" class="node">
<title>Node16</title>
<g id="a_Node000016"><a xlink:href="classmlir_1_1impl_1_1ConvertArmSMEToLLVMBase.html" target="_top" xlink:title=" ">
<polygon fill="white" stroke="#666666" points="914,-174 754,-174 754,-144 914,-144 914,-174"/>
<text text-anchor="start" x="762" y="-162" font-family="Helvetica,sans-Serif" font-size="10.00">mlir::impl::ConvertArmSMETo</text>
<text text-anchor="middle" x="834" y="-151" font-family="Helvetica,sans-Serif" font-size="10.00">LLVMBase&lt; DerivedT &gt;</text>
</a>
</g>
</g>
<!-- Node9&#45;&gt;Node16 -->
<g id="edge17_Node000009_Node000016" class="edge">
<title>Node9&#45;&gt;Node16</title>
<g id="a_edge17_Node000009_Node000016"><a xlink:title=" ">
<path fill="none" stroke="#63b8ff" d="M683.29,-202.73C703,-196.31 725.44,-189.16 746,-183 756.06,-179.99 766.81,-176.91 777.2,-174"/>
<polygon fill="#63b8ff" stroke="#63b8ff" points="681.97,-199.48 673.55,-205.92 684.14,-206.14 681.97,-199.48"/>
</a>
</g>
</g>
<!-- Node17 -->
<g id="Node000017" class="node">
<title>Node17</title>
<g id="a_Node000017"><a xlink:href="classmlir_1_1impl_1_1LinalgDetensorizePassBase.html" target="_top" xlink:title=" ">
<polygon fill="white" stroke="#666666" points="913,-126 755,-126 755,-96 913,-96 913,-126"/>
<text text-anchor="start" x="763" y="-114" font-family="Helvetica,sans-Serif" font-size="10.00">mlir::impl::LinalgDetensorize</text>
<text text-anchor="middle" x="834" y="-103" font-family="Helvetica,sans-Serif" font-size="10.00">PassBase&lt; DerivedT &gt;</text>
</a>
</g>
</g>
<!-- Node9&#45;&gt;Node17 -->
<g id="edge18_Node000009_Node000017" class="edge">
<title>Node9&#45;&gt;Node17</title>
<g id="a_edge18_Node000009_Node000017"><a xlink:title=" ">
<path fill="none" stroke="#63b8ff" d="M652.87,-199.02C675.52,-179.66 710.94,-151.96 746,-135 752.91,-131.66 760.36,-128.71 767.9,-126.14"/>
<polygon fill="#63b8ff" stroke="#63b8ff" points="650.38,-196.55 645.13,-205.75 654.97,-201.83 650.38,-196.55"/>
</a>
</g>
</g>
<!-- Node18 -->
<g id="Node000018" class="node">
<title>Node18</title>
<g id="a_Node000018"><a xlink:href="classmlir_1_1impl_1_1TosaToLinalgBase.html" target="_top" xlink:title=" ">
<polygon fill="white" stroke="#666666" points="899.5,-78 768.5,-78 768.5,-48 899.5,-48 899.5,-78"/>
<text text-anchor="start" x="776.5" y="-66" font-family="Helvetica,sans-Serif" font-size="10.00">mlir::impl::TosaToLinalg</text>
<text text-anchor="middle" x="834" y="-55" font-family="Helvetica,sans-Serif" font-size="10.00">Base&lt; DerivedT &gt;</text>
</a>
</g>
</g>
<!-- Node9&#45;&gt;Node18 -->
<g id="edge19_Node000009_Node000018" class="edge">
<title>Node9&#45;&gt;Node18</title>
<g id="a_edge19_Node000009_Node000018"><a xlink:title=" ">
<path fill="none" stroke="#63b8ff" d="M642.9,-197.37C662.5,-167.23 700.39,-115.6 746,-87 752.9,-82.67 760.59,-79.11 768.46,-76.19"/>
<polygon fill="#63b8ff" stroke="#63b8ff" points="639.84,-195.66 637.42,-205.98 645.74,-199.42 639.84,-195.66"/>
</a>
</g>
</g>
<!-- Node19 -->
<g id="Node000019" class="node">
<title>Node19</title>
<g id="a_Node000019"><a xlink:href="classmlir_1_1impl_1_1TosaToLinalgNamedBase.html" target="_top" xlink:title=" ">
<polygon fill="white" stroke="#666666" points="905.5,-30 762.5,-30 762.5,0 905.5,0 905.5,-30"/>
<text text-anchor="start" x="770.5" y="-18" font-family="Helvetica,sans-Serif" font-size="10.00">mlir::impl::TosaToLinalg</text>
<text text-anchor="middle" x="834" y="-7" font-family="Helvetica,sans-Serif" font-size="10.00">NamedBase&lt; DerivedT &gt;</text>
</a>
</g>
</g>
<!-- Node9&#45;&gt;Node19 -->
<g id="edge20_Node000009_Node000019" class="edge">
<title>Node9&#45;&gt;Node19</title>
<g id="a_edge20_Node000009_Node000019"><a xlink:title=" ">
<path fill="none" stroke="#63b8ff" d="M637.57,-196.5C653.39,-157.19 689.81,-80.26 746,-39 751.05,-35.29 756.65,-32.15 762.5,-29.5"/>
<polygon fill="#63b8ff" stroke="#63b8ff" points="634.29,-195.28 633.9,-205.86 640.81,-197.83 634.29,-195.28"/>
</a>
</g>
</g>
<!-- Node11 -->
<g id="Node000011" class="node">
<title>Node11</title>
<g id="a_Node000011"><a xlink:href="structSimplifyAffineMinMaxPass.html" target="_top" xlink:title="Creates a simplification pass for affine min/max/apply.">
<polygon fill="white" stroke="#666666" points="1491,-431.5 1345,-431.5 1345,-412.5 1491,-412.5 1491,-431.5"/>
<text text-anchor="middle" x="1418" y="-419.5" font-family="Helvetica,sans-Serif" font-size="10.00">SimplifyAffineMinMaxPass</text>
</a>
</g>
</g>
<!-- Node10&#45;&gt;Node11 -->
<g id="edge11_Node000010_Node000011" class="edge">
<title>Node10&#45;&gt;Node11</title>
<g id="a_edge11_Node000010_Node000011"><a xlink:title=" ">
<path fill="none" stroke="#63b8ff" d="M1318.29,-422C1327.28,-422 1336.24,-422 1344.89,-422"/>
<polygon fill="#63b8ff" stroke="#63b8ff" points="1318.13,-418.5 1308.13,-422 1318.13,-425.5 1318.13,-418.5"/>
</a>
</g>
</g>
<!-- Node14&#45;&gt;Node10 -->
<g id="edge15_Node000014_Node000010" class="edge">
<title>Node14&#45;&gt;Node10</title>
<g id="a_edge15_Node000014_Node000010"><a xlink:title=" ">
<path fill="none" stroke="orange" stroke-dasharray="5,2" d="M909.08,-285.09C913.47,-286.71 917.8,-288.35 922,-290 1011.82,-325.36 1113.89,-374.06 1169.49,-401.34"/>
<polygon fill="orange" stroke="orange" points="910.01,-281.71 899.42,-281.61 907.64,-288.29 910.01,-281.71"/>
</a>
</g>
<text text-anchor="start" x="943" y="-370.5" font-family="Helvetica,sans-Serif" font-size="10.00" fill="grey">&lt; SimplifyAffineMinMaxPass &gt;</text>
</g>
</g>
</svg>
