<?xml version="1.0" encoding="UTF-8" standalone="no"?>
<!DOCTYPE svg PUBLIC "-//W3C//DTD SVG 1.1//EN"
 "http://www.w3.org/Graphics/SVG/1.1/DTD/svg11.dtd">
<!-- Generated by graphviz version 2.43.0 (0)
 -->
<!-- Title: mlir::impl::ShapeToShapeLoweringPassBase&lt; DerivedT &gt; Pages: 1 -->
<svg width="227pt" height="244pt"
 viewBox="0.00 0.00 226.50 244.00" xmlns="http://www.w3.org/2000/svg" xmlns:xlink="http://www.w3.org/1999/xlink">
<g id="graph0" class="graph" transform="scale(1 1) rotate(0) translate(4 240)">
<title>mlir::impl::ShapeToShapeLoweringPassBase&lt; DerivedT &gt;</title>
<!-- Node1 -->
<g id="Node000001" class="node">
<title>Node1</title>
<g id="a_Node000001"><a xlink:title=" ">
<polygon fill="#999999" stroke="#666666" points="173,-30 0,-30 0,0 173,0 173,-30"/>
<text text-anchor="start" x="8" y="-18" font-family="Helvetica,sans-Serif" font-size="10.00">mlir::impl::ShapeToShape</text>
<text text-anchor="middle" x="86.5" y="-7" font-family="Helvetica,sans-Serif" font-size="10.00">LoweringPassBase&lt; DerivedT &gt;</text>
</a>
</g>
</g>
<!-- Node2 -->
<g id="Node000002" class="node">
<title>Node2</title>
<g id="a_Node000002"><a xlink:href="classmlir_1_1OperationPass.html" target="_top" xlink:title=" ">
<polygon fill="white" stroke="#666666" points="142.5,-97 30.5,-97 30.5,-67 142.5,-67 142.5,-97"/>
<text text-anchor="start" x="38.5" y="-85" font-family="Helvetica,sans-Serif" font-size="10.00">mlir::OperationPass</text>
<text text-anchor="middle" x="86.5" y="-74" font-family="Helvetica,sans-Serif" font-size="10.00">&lt; func::FuncOp &gt;</text>
</a>
</g>
</g>
<!-- Node2&#45;&gt;Node1 -->
<g id="edge1_Node000001_Node000002" class="edge">
<title>Node2&#45;&gt;Node1</title>
<g id="a_edge1_Node000001_Node000002"><a xlink:title=" ">
<path fill="none" stroke="#63b8ff" d="M86.5,-56.61C86.5,-47.65 86.5,-37.82 86.5,-30.08"/>
<polygon fill="#63b8ff" stroke="#63b8ff" points="83,-56.9 86.5,-66.9 90,-56.9 83,-56.9"/>
</a>
</g>
</g>
<!-- Node3 -->
<g id="Node000003" class="node">
<title>Node3</title>
<g id="a_Node000003"><a xlink:href="classmlir_1_1Pass.html" target="_top" xlink:title="The abstract base pass class.">
<polygon fill="white" stroke="#666666" points="114.5,-236 50.5,-236 50.5,-217 114.5,-217 114.5,-236"/>
<text text-anchor="middle" x="82.5" y="-224" font-family="Helvetica,sans-Serif" font-size="10.00">mlir::Pass</text>
</a>
</g>
</g>
<!-- Node3&#45;&gt;Node2 -->
<g id="edge2_Node000002_Node000003" class="edge">
<title>Node3&#45;&gt;Node2</title>
<g id="a_edge2_Node000002_Node000003"><a xlink:title=" ">
<path fill="none" stroke="#63b8ff" d="M83.03,-206.54C83.85,-177.58 85.38,-122.99 86.1,-97.19"/>
<polygon fill="#63b8ff" stroke="#63b8ff" points="79.53,-206.49 82.75,-216.59 86.53,-206.69 79.53,-206.49"/>
</a>
</g>
</g>
<!-- Node4 -->
<g id="Node000004" class="node">
<title>Node4</title>
<g id="a_Node000004"><a xlink:href="classmlir_1_1OperationPass.html" target="_top" xlink:title="Pass to transform an operation of a specific type.">
<polygon fill="white" stroke="#666666" points="210.5,-180 98.5,-180 98.5,-150 210.5,-150 210.5,-180"/>
<text text-anchor="start" x="106.5" y="-168" font-family="Helvetica,sans-Serif" font-size="10.00">mlir::OperationPass</text>
<text text-anchor="middle" x="154.5" y="-157" font-family="Helvetica,sans-Serif" font-size="10.00">&lt; OpT &gt;</text>
</a>
</g>
</g>
<!-- Node3&#45;&gt;Node4 -->
<g id="edge4_Node000004_Node000003" class="edge">
<title>Node3&#45;&gt;Node4</title>
<g id="a_edge4_Node000004_Node000003"><a xlink:title=" ">
<path fill="none" stroke="#63b8ff" d="M100.75,-210.42C112.05,-201.08 126.47,-189.16 137.53,-180.02"/>
<polygon fill="#63b8ff" stroke="#63b8ff" points="98.29,-207.91 92.82,-216.98 102.75,-213.3 98.29,-207.91"/>
</a>
</g>
</g>
<!-- Node4&#45;&gt;Node2 -->
<g id="edge3_Node000002_Node000004" class="edge">
<title>Node4&#45;&gt;Node2</title>
<g id="a_edge3_Node000002_Node000004"><a xlink:title=" ">
<path fill="none" stroke="orange" stroke-dasharray="5,2" d="M136.05,-142.02C124.08,-127.76 108.84,-109.61 98.44,-97.22"/>
<polygon fill="orange" stroke="orange" points="133.54,-144.48 142.66,-149.89 138.91,-139.98 133.54,-144.48"/>
</a>
</g>
<text text-anchor="start" x="129.5" y="-120.5" font-family="Helvetica,sans-Serif" font-size="10.00" fill="grey">&lt; func::FuncOp &gt;</text>
</g>
</g>
</svg>
