<?xml version="1.0" encoding="UTF-8" standalone="no"?>
<!DOCTYPE svg PUBLIC "-//W3C//DTD SVG 1.1//EN"
 "http://www.w3.org/Graphics/SVG/1.1/DTD/svg11.dtd">
<!-- Generated by graphviz version 2.43.0 (0)
 -->
<!-- Title: mlir::DialectInterfaceCollection&lt; InterfaceType &gt; Pages: 1 -->
<svg width="966pt" height="235pt"
 viewBox="0.00 0.00 966.00 235.00" xmlns="http://www.w3.org/2000/svg" xmlns:xlink="http://www.w3.org/1999/xlink">
<g id="graph0" class="graph" transform="scale(1 1) rotate(0) translate(4 231)">
<title>mlir::DialectInterfaceCollection&lt; InterfaceType &gt;</title>
<!-- Node1 -->
<g id="node1" class="node">
<title>Node1</title>
<g id="a_node1"><a xlink:title="A collection of dialect interfaces within a context, for a given concrete interface type.">
<polygon fill="#bfbfbf" stroke="black" points="191,-98.5 191,-128.5 360,-128.5 360,-98.5 191,-98.5"/>
<text text-anchor="start" x="199" y="-116.5" font-family="Helvetica,sans-Serif" font-size="10.00">mlir::DialectInterfaceCollection</text>
<text text-anchor="middle" x="275.5" y="-105.5" font-family="Helvetica,sans-Serif" font-size="10.00">&lt; InterfaceType &gt;</text>
</a>
</g>
</g>
<!-- Node3 -->
<g id="node3" class="node">
<title>Node3</title>
<g id="a_node3"><a xlink:href="classmlir_1_1DialectInterfaceCollection.html" target="_top" xlink:title=" ">
<polygon fill="none" stroke="black" points="561,-196.5 561,-226.5 757,-226.5 757,-196.5 561,-196.5"/>
<text text-anchor="start" x="569" y="-214.5" font-family="Helvetica,sans-Serif" font-size="10.00">mlir::DialectInterfaceCollection</text>
<text text-anchor="middle" x="659" y="-203.5" font-family="Helvetica,sans-Serif" font-size="10.00">&lt; LLVMTranslationDialectInterface &gt;</text>
</a>
</g>
</g>
<!-- Node1&#45;&gt;Node3 -->
<g id="edge2" class="edge">
<title>Node1&#45;&gt;Node3</title>
<path fill="none" stroke="orange" stroke-dasharray="5,2" d="M310.87,-133.52C330.05,-143.9 354.72,-155.95 378,-163.5 437.23,-182.72 506.14,-194.65 560.77,-201.82"/>
<polygon fill="orange" stroke="orange" points="312.37,-130.35 301.92,-128.59 308.99,-136.48 312.37,-130.35"/>
<text text-anchor="start" x="396.5" y="-212.5" font-family="Helvetica,sans-Serif" font-size="10.00"> &lt; LLVMTranslationDialect</text>
<text text-anchor="middle" x="460.5" y="-201.5" font-family="Helvetica,sans-Serif" font-size="10.00">Interface &gt;</text>
</g>
<!-- Node5 -->
<g id="node5" class="node">
<title>Node5</title>
<g id="a_node5"><a xlink:href="classmlir_1_1DialectInterfaceCollection.html" target="_top" xlink:title=" ">
<polygon fill="none" stroke="black" points="570,-147.5 570,-177.5 748,-177.5 748,-147.5 570,-147.5"/>
<text text-anchor="start" x="578" y="-165.5" font-family="Helvetica,sans-Serif" font-size="10.00">mlir::DialectInterfaceCollection</text>
<text text-anchor="middle" x="659" y="-154.5" font-family="Helvetica,sans-Serif" font-size="10.00">&lt; mlir::OpAsmDialectInterface &gt;</text>
</a>
</g>
</g>
<!-- Node1&#45;&gt;Node5 -->
<g id="edge4" class="edge">
<title>Node1&#45;&gt;Node5</title>
<path fill="none" stroke="orange" stroke-dasharray="5,2" d="M370.26,-127.45C372.87,-127.8 375.45,-128.16 378,-128.5 442.18,-137.14 514.78,-145.92 569.96,-152.4"/>
<polygon fill="orange" stroke="orange" points="370.5,-123.95 360.11,-126.03 369.53,-130.88 370.5,-123.95"/>
<text text-anchor="middle" x="460.5" y="-151.5" font-family="Helvetica,sans-Serif" font-size="10.00"> &lt; mlir::OpAsmDialectInterface &gt;</text>
</g>
<!-- Node6 -->
<g id="node6" class="node">
<title>Node6</title>
<g id="a_node6"><a xlink:href="classmlir_1_1DialectInterfaceCollection.html" target="_top" xlink:title=" ">
<polygon fill="none" stroke="black" points="571.5,-98.5 571.5,-128.5 746.5,-128.5 746.5,-98.5 571.5,-98.5"/>
<text text-anchor="start" x="579.5" y="-116.5" font-family="Helvetica,sans-Serif" font-size="10.00">mlir::DialectInterfaceCollection</text>
<text text-anchor="middle" x="659" y="-105.5" font-family="Helvetica,sans-Serif" font-size="10.00">&lt; LLVMImportDialectInterface &gt;</text>
</a>
</g>
</g>
<!-- Node1&#45;&gt;Node6 -->
<g id="edge5" class="edge">
<title>Node1&#45;&gt;Node6</title>
<path fill="none" stroke="orange" stroke-dasharray="5,2" d="M370.31,-113.5C431.79,-113.5 511.55,-113.5 571.5,-113.5"/>
<polygon fill="orange" stroke="orange" points="370.22,-110 360.22,-113.5 370.22,-117 370.22,-110"/>
<text text-anchor="middle" x="460.5" y="-116.5" font-family="Helvetica,sans-Serif" font-size="10.00"> &lt; LLVMImportDialectInterface &gt;</text>
</g>
<!-- Node8 -->
<g id="node8" class="node">
<title>Node8</title>
<g id="a_node8"><a xlink:href="classmlir_1_1DialectInterfaceCollection.html" target="_top" xlink:title=" ">
<polygon fill="none" stroke="black" points="574.5,-49.5 574.5,-79.5 743.5,-79.5 743.5,-49.5 574.5,-49.5"/>
<text text-anchor="start" x="582.5" y="-67.5" font-family="Helvetica,sans-Serif" font-size="10.00">mlir::DialectInterfaceCollection</text>
<text text-anchor="middle" x="659" y="-56.5" font-family="Helvetica,sans-Serif" font-size="10.00">&lt; mlir::DialectFoldInterface &gt;</text>
</a>
</g>
</g>
<!-- Node1&#45;&gt;Node8 -->
<g id="edge7" class="edge">
<title>Node1&#45;&gt;Node8</title>
<path fill="none" stroke="orange" stroke-dasharray="5,2" d="M370.26,-99.55C372.87,-99.2 375.45,-98.84 378,-98.5 443.88,-89.63 518.62,-80.61 574.31,-74.09"/>
<polygon fill="orange" stroke="orange" points="369.53,-96.12 360.11,-100.97 370.5,-103.05 369.53,-96.12"/>
<text text-anchor="middle" x="460.5" y="-101.5" font-family="Helvetica,sans-Serif" font-size="10.00"> &lt; mlir::DialectFoldInterface &gt;</text>
</g>
<!-- Node9 -->
<g id="node9" class="node">
<title>Node9</title>
<g id="a_node9"><a xlink:href="classmlir_1_1DialectInterfaceCollection.html" target="_top" xlink:title=" ">
<polygon fill="none" stroke="black" points="574.5,-0.5 574.5,-30.5 743.5,-30.5 743.5,-0.5 574.5,-0.5"/>
<text text-anchor="start" x="582.5" y="-18.5" font-family="Helvetica,sans-Serif" font-size="10.00">mlir::DialectInterfaceCollection</text>
<text text-anchor="middle" x="659" y="-7.5" font-family="Helvetica,sans-Serif" font-size="10.00">&lt; DialectInlinerInterface &gt;</text>
</a>
</g>
</g>
<!-- Node1&#45;&gt;Node9 -->
<g id="edge8" class="edge">
<title>Node1&#45;&gt;Node9</title>
<path fill="none" stroke="orange" stroke-dasharray="5,2" d="M310.87,-93.48C330.05,-83.1 354.72,-71.05 378,-63.5 442.27,-42.65 517.94,-30.37 574.4,-23.45"/>
<polygon fill="orange" stroke="orange" points="308.99,-90.52 301.92,-98.41 312.37,-96.65 308.99,-90.52"/>
<text text-anchor="middle" x="460.5" y="-66.5" font-family="Helvetica,sans-Serif" font-size="10.00"> &lt; DialectInlinerInterface &gt;</text>
</g>
<!-- Node2 -->
<g id="node2" class="node">
<title>Node2</title>
<g id="a_node2"><a xlink:href="classmlir_1_1detail_1_1DialectInterfaceCollectionBase.html" target="_top" xlink:title="This class is the base class for a collection of instances for a specific interface kind.">
<polygon fill="none" stroke="black" points="0,-98.5 0,-128.5 154,-128.5 154,-98.5 0,-98.5"/>
<text text-anchor="start" x="8" y="-116.5" font-family="Helvetica,sans-Serif" font-size="10.00">mlir::detail::DialectInterface</text>
<text text-anchor="middle" x="77" y="-105.5" font-family="Helvetica,sans-Serif" font-size="10.00">CollectionBase</text>
</a>
</g>
</g>
<!-- Node2&#45;&gt;Node1 -->
<g id="edge1" class="edge">
<title>Node2&#45;&gt;Node1</title>
<path fill="none" stroke="midnightblue" d="M164.45,-113.5C173.2,-113.5 182.07,-113.5 190.79,-113.5"/>
<polygon fill="midnightblue" stroke="midnightblue" points="164.25,-110 154.25,-113.5 164.25,-117 164.25,-110"/>
</g>
<!-- Node4 -->
<g id="node4" class="node">
<title>Node4</title>
<g id="a_node4"><a xlink:href="classmlir_1_1LLVMTranslationInterface.html" target="_top" xlink:title="Interface collection for translation to LLVM IR, dispatches to a concrete interface implementation ba...">
<polygon fill="none" stroke="black" points="794,-202 794,-221 958,-221 958,-202 794,-202"/>
<text text-anchor="middle" x="876" y="-209" font-family="Helvetica,sans-Serif" font-size="10.00">mlir::LLVMTranslationInterface</text>
</a>
</g>
</g>
<!-- Node3&#45;&gt;Node4 -->
<g id="edge3" class="edge">
<title>Node3&#45;&gt;Node4</title>
<path fill="none" stroke="midnightblue" d="M767.19,-211.5C776.12,-211.5 785.06,-211.5 793.75,-211.5"/>
<polygon fill="midnightblue" stroke="midnightblue" points="767.12,-208 757.12,-211.5 767.12,-215 767.12,-208"/>
</g>
<!-- Node7 -->
<g id="node7" class="node">
<title>Node7</title>
<g id="a_node7"><a xlink:href="classmlir_1_1LLVMImportInterface.html" target="_top" xlink:title="Interface collection for the import of LLVM IR that dispatches to a concrete dialect interface implem...">
<polygon fill="none" stroke="black" points="804.5,-104 804.5,-123 947.5,-123 947.5,-104 804.5,-104"/>
<text text-anchor="middle" x="876" y="-111" font-family="Helvetica,sans-Serif" font-size="10.00">mlir::LLVMImportInterface</text>
</a>
</g>
</g>
<!-- Node6&#45;&gt;Node7 -->
<g id="edge6" class="edge">
<title>Node6&#45;&gt;Node7</title>
<path fill="none" stroke="midnightblue" d="M756.97,-113.5C772.97,-113.5 789.29,-113.5 804.48,-113.5"/>
<polygon fill="midnightblue" stroke="midnightblue" points="756.52,-110 746.52,-113.5 756.52,-117 756.52,-110"/>
</g>
<!-- Node10 -->
<g id="node10" class="node">
<title>Node10</title>
<g id="a_node10"><a xlink:href="classmlir_1_1InlinerInterface.html" target="_top" xlink:title="This interface provides the hooks into the inlining interface.">
<polygon fill="none" stroke="black" points="818,-6 818,-25 934,-25 934,-6 818,-6"/>
<text text-anchor="middle" x="876" y="-13" font-family="Helvetica,sans-Serif" font-size="10.00">mlir::InlinerInterface</text>
</a>
</g>
</g>
<!-- Node9&#45;&gt;Node10 -->
<g id="edge9" class="edge">
<title>Node9&#45;&gt;Node10</title>
<path fill="none" stroke="midnightblue" d="M753.98,-15.5C775.68,-15.5 798.13,-15.5 817.71,-15.5"/>
<polygon fill="midnightblue" stroke="midnightblue" points="753.74,-12 743.74,-15.5 753.74,-19 753.74,-12"/>
</g>
</g>
</svg>
