<?xml version="1.0" encoding="UTF-8" standalone="no"?>
<!DOCTYPE svg PUBLIC "-//W3C//DTD SVG 1.1//EN"
 "http://www.w3.org/Graphics/SVG/1.1/DTD/svg11.dtd">
<!-- Generated by graphviz version 2.43.0 (0)
 -->
<!-- Title: mlir::DynamicType Pages: 1 -->
<svg width="491pt" height="66pt"
 viewBox="0.00 0.00 491.00 66.00" xmlns="http://www.w3.org/2000/svg" xmlns:xlink="http://www.w3.org/1999/xlink">
<g id="graph0" class="graph" transform="scale(1 1) rotate(0) translate(4 62)">
<title>mlir::DynamicType</title>
<!-- Node1 -->
<g id="node1" class="node">
<title>Node1</title>
<g id="a_node1"><a xlink:title="A dynamic type instance.">
<polygon fill="#bfbfbf" stroke="black" points="375,-19.5 375,-38.5 483,-38.5 483,-19.5 375,-19.5"/>
<text text-anchor="middle" x="429" y="-26.5" font-family="Helvetica,sans-Serif" font-size="10.00">mlir::DynamicType</text>
</a>
</g>
</g>
<!-- Node2 -->
<g id="node2" class="node">
<title>Node2</title>
<g id="a_node2"><a xlink:href="classmlir_1_1detail_1_1StorageUserBase.html" target="_top" xlink:title="Utility class for implementing users of storage classes uniqued by a StorageUniquer.">
<polygon fill="none" stroke="black" points="151,-8.5 151,-49.5 339,-49.5 339,-8.5 151,-8.5"/>
<text text-anchor="start" x="159" y="-37.5" font-family="Helvetica,sans-Serif" font-size="10.00">Type::TypeBase&lt; DynamicType,</text>
<text text-anchor="start" x="159" y="-26.5" font-family="Helvetica,sans-Serif" font-size="10.00"> Type, detail::DynamicTypeStorage,</text>
<text text-anchor="middle" x="245" y="-15.5" font-family="Helvetica,sans-Serif" font-size="10.00"> TypeTrait::IsDynamicType &gt;</text>
</a>
</g>
</g>
<!-- Node2&#45;&gt;Node1 -->
<g id="edge1" class="edge">
<title>Node2&#45;&gt;Node1</title>
<path fill="none" stroke="midnightblue" d="M349.15,-29C357.97,-29 366.65,-29 374.82,-29"/>
<polygon fill="midnightblue" stroke="midnightblue" points="349.13,-25.5 339.13,-29 349.13,-32.5 349.13,-25.5"/>
</g>
<!-- Node3 -->
<g id="node3" class="node">
<title>Node3</title>
<g id="a_node3"><a xlink:href="classBaseT.html" target="_top" xlink:title=" ">
<polygon fill="none" stroke="black" points="34,-38.5 34,-57.5 81,-57.5 81,-38.5 34,-38.5"/>
<text text-anchor="middle" x="57.5" y="-45.5" font-family="Helvetica,sans-Serif" font-size="10.00">BaseT</text>
</a>
</g>
</g>
<!-- Node3&#45;&gt;Node2 -->
<g id="edge2" class="edge">
<title>Node3&#45;&gt;Node2</title>
<path fill="none" stroke="midnightblue" d="M91.53,-44.62C108.24,-42.91 129.44,-40.73 150.69,-38.56"/>
<polygon fill="midnightblue" stroke="midnightblue" points="90.84,-41.17 81.25,-45.67 91.55,-48.13 90.84,-41.17"/>
</g>
<!-- Node4 -->
<g id="node4" class="node">
<title>Node4</title>
<g id="a_node4"><a xlink:title=" ">
<polygon fill="none" stroke="#bfbfbf" points="0,-0.5 0,-19.5 115,-19.5 115,-0.5 0,-0.5"/>
<text text-anchor="middle" x="57.5" y="-7.5" font-family="Helvetica,sans-Serif" font-size="10.00">Traits&lt; ConcreteT &gt;</text>
</a>
</g>
</g>
<!-- Node4&#45;&gt;Node2 -->
<g id="edge3" class="edge">
<title>Node4&#45;&gt;Node2</title>
<path fill="none" stroke="midnightblue" d="M125.15,-16.83C133.48,-17.68 142.11,-18.56 150.75,-19.45"/>
<polygon fill="midnightblue" stroke="midnightblue" points="125.47,-13.34 115.16,-15.8 124.76,-20.3 125.47,-13.34"/>
</g>
</g>
</svg>
