<?xml version="1.0" encoding="UTF-8" standalone="no"?>
<!DOCTYPE svg PUBLIC "-//W3C//DTD SVG 1.1//EN"
 "http://www.w3.org/Graphics/SVG/1.1/DTD/svg11.dtd">
<!-- Generated by graphviz version 2.43.0 (0)
 -->
<!-- Title: mlir::detail::DenseArrayAttrImpl&lt; T &gt; Pages: 1 -->
<svg width="502pt" height="326pt"
 viewBox="0.00 0.00 502.00 326.00" xmlns="http://www.w3.org/2000/svg" xmlns:xlink="http://www.w3.org/1999/xlink">
<g id="graph0" class="graph" transform="scale(1 1) rotate(0) translate(4 322)">
<title>mlir::detail::DenseArrayAttrImpl&lt; T &gt;</title>
<!-- Node1 -->
<g id="Node000001" class="node">
<title>Node1</title>
<g id="a_Node000001"><a xlink:title="Base class for DenseArrayAttr that is instantiated and specialized for each supported element type be...">
<polygon fill="#999999" stroke="#666666" points="262,-174 129,-174 129,-144 262,-144 262,-174"/>
<text text-anchor="start" x="137" y="-162" font-family="Helvetica,sans-Serif" font-size="10.00">mlir::detail::DenseArray</text>
<text text-anchor="middle" x="195.5" y="-151" font-family="Helvetica,sans-Serif" font-size="10.00">AttrImpl&lt; T &gt;</text>
</a>
</g>
</g>
<!-- Node3 -->
<g id="Node000003" class="node">
<title>Node3</title>
<g id="a_Node000003"><a xlink:href="classmlir_1_1detail_1_1DenseArrayAttrImpl.html" target="_top" xlink:title=" ">
<polygon fill="white" stroke="#666666" points="494,-318 361,-318 361,-288 494,-288 494,-318"/>
<text text-anchor="start" x="369" y="-306" font-family="Helvetica,sans-Serif" font-size="10.00">mlir::detail::DenseArray</text>
<text text-anchor="middle" x="427.5" y="-295" font-family="Helvetica,sans-Serif" font-size="10.00">AttrImpl&lt; bool &gt;</text>
</a>
</g>
</g>
<!-- Node1&#45;&gt;Node3 -->
<g id="edge2_Node000001_Node000003" class="edge">
<title>Node1&#45;&gt;Node3</title>
<g id="a_edge2_Node000001_Node000003"><a xlink:title=" ">
<path fill="none" stroke="orange" stroke-dasharray="5,2" d="M211.17,-182.52C226,-204.48 250.86,-236.69 280,-256 304.16,-272.01 334.15,-282.89 360.7,-290.12"/>
<polygon fill="orange" stroke="orange" points="214.04,-180.52 205.62,-174.08 208.19,-184.36 214.04,-180.52"/>
</a>
</g>
<text text-anchor="start" x="289.5" y="-289.5" font-family="Helvetica,sans-Serif" font-size="10.00" fill="grey">&lt; bool &gt;</text>
</g>
<!-- Node4 -->
<g id="Node000004" class="node">
<title>Node4</title>
<g id="a_Node000004"><a xlink:href="classmlir_1_1detail_1_1DenseArrayAttrImpl.html" target="_top" xlink:title=" ">
<polygon fill="white" stroke="#666666" points="494,-270 361,-270 361,-240 494,-240 494,-270"/>
<text text-anchor="start" x="369" y="-258" font-family="Helvetica,sans-Serif" font-size="10.00">mlir::detail::DenseArray</text>
<text text-anchor="middle" x="427.5" y="-247" font-family="Helvetica,sans-Serif" font-size="10.00">AttrImpl&lt; int8_t &gt;</text>
</a>
</g>
</g>
<!-- Node1&#45;&gt;Node4 -->
<g id="edge3_Node000001_Node000004" class="edge">
<title>Node1&#45;&gt;Node4</title>
<g id="a_edge3_Node000001_Node000004"><a xlink:title=" ">
<path fill="none" stroke="orange" stroke-dasharray="5,2" d="M224.33,-179.97C240.03,-191.01 260.37,-204.08 280,-213 305.53,-224.61 335.04,-233.8 360.85,-240.59"/>
<polygon fill="orange" stroke="orange" points="226.29,-177.06 216.12,-174.08 222.21,-182.75 226.29,-177.06"/>
</a>
</g>
<text text-anchor="start" x="286.5" y="-240.5" font-family="Helvetica,sans-Serif" font-size="10.00" fill="grey">&lt; int8_t &gt;</text>
</g>
<!-- Node5 -->
<g id="Node000005" class="node">
<title>Node5</title>
<g id="a_Node000005"><a xlink:href="classmlir_1_1detail_1_1DenseArrayAttrImpl.html" target="_top" xlink:title=" ">
<polygon fill="white" stroke="#666666" points="494,-222 361,-222 361,-192 494,-192 494,-222"/>
<text text-anchor="start" x="369" y="-210" font-family="Helvetica,sans-Serif" font-size="10.00">mlir::detail::DenseArray</text>
<text text-anchor="middle" x="427.5" y="-199" font-family="Helvetica,sans-Serif" font-size="10.00">AttrImpl&lt; int16_t &gt;</text>
</a>
</g>
</g>
<!-- Node1&#45;&gt;Node5 -->
<g id="edge4_Node000001_Node000005" class="edge">
<title>Node1&#45;&gt;Node5</title>
<g id="a_edge4_Node000001_Node000005"><a xlink:title=" ">
<path fill="none" stroke="orange" stroke-dasharray="5,2" d="M264.44,-176.47C269.69,-177.7 274.93,-178.9 280,-180 306.28,-185.72 335.39,-191.25 360.69,-195.8"/>
<polygon fill="orange" stroke="orange" points="264.87,-172.98 254.33,-174.06 263.24,-179.78 264.87,-172.98"/>
</a>
</g>
<text text-anchor="start" x="283.5" y="-197.5" font-family="Helvetica,sans-Serif" font-size="10.00" fill="grey">&lt; int16_t &gt;</text>
</g>
<!-- Node6 -->
<g id="Node000006" class="node">
<title>Node6</title>
<g id="a_Node000006"><a xlink:href="classmlir_1_1detail_1_1DenseArrayAttrImpl.html" target="_top" xlink:title=" ">
<polygon fill="white" stroke="#666666" points="494,-174 361,-174 361,-144 494,-144 494,-174"/>
<text text-anchor="start" x="369" y="-162" font-family="Helvetica,sans-Serif" font-size="10.00">mlir::detail::DenseArray</text>
<text text-anchor="middle" x="427.5" y="-151" font-family="Helvetica,sans-Serif" font-size="10.00">AttrImpl&lt; int32_t &gt;</text>
</a>
</g>
</g>
<!-- Node1&#45;&gt;Node6 -->
<g id="edge5_Node000001_Node000006" class="edge">
<title>Node1&#45;&gt;Node6</title>
<g id="a_edge5_Node000001_Node000006"><a xlink:title=" ">
<path fill="none" stroke="orange" stroke-dasharray="5,2" d="M272.45,-159C301.02,-159 333.25,-159 360.81,-159"/>
<polygon fill="orange" stroke="orange" points="272.1,-155.5 262.1,-159 272.1,-162.5 272.1,-155.5"/>
</a>
</g>
<text text-anchor="start" x="283.5" y="-164.5" font-family="Helvetica,sans-Serif" font-size="10.00" fill="grey">&lt; int32_t &gt;</text>
</g>
<!-- Node7 -->
<g id="Node000007" class="node">
<title>Node7</title>
<g id="a_Node000007"><a xlink:href="classmlir_1_1detail_1_1DenseArrayAttrImpl.html" target="_top" xlink:title=" ">
<polygon fill="white" stroke="#666666" points="494,-126 361,-126 361,-96 494,-96 494,-126"/>
<text text-anchor="start" x="369" y="-114" font-family="Helvetica,sans-Serif" font-size="10.00">mlir::detail::DenseArray</text>
<text text-anchor="middle" x="427.5" y="-103" font-family="Helvetica,sans-Serif" font-size="10.00">AttrImpl&lt; int64_t &gt;</text>
</a>
</g>
</g>
<!-- Node1&#45;&gt;Node7 -->
<g id="edge6_Node000001_Node000007" class="edge">
<title>Node1&#45;&gt;Node7</title>
<g id="a_edge6_Node000001_Node000007"><a xlink:title=" ">
<path fill="none" stroke="orange" stroke-dasharray="5,2" d="M264.44,-141.53C269.69,-140.3 274.93,-139.1 280,-138 306.28,-132.28 335.39,-126.75 360.69,-122.2"/>
<polygon fill="orange" stroke="orange" points="263.24,-138.22 254.33,-143.94 264.87,-145.02 263.24,-138.22"/>
</a>
</g>
<text text-anchor="start" x="283.5" y="-143.5" font-family="Helvetica,sans-Serif" font-size="10.00" fill="grey">&lt; int64_t &gt;</text>
</g>
<!-- Node8 -->
<g id="Node000008" class="node">
<title>Node8</title>
<g id="a_Node000008"><a xlink:href="classmlir_1_1detail_1_1DenseArrayAttrImpl.html" target="_top" xlink:title=" ">
<polygon fill="white" stroke="#666666" points="494,-78 361,-78 361,-48 494,-48 494,-78"/>
<text text-anchor="start" x="369" y="-66" font-family="Helvetica,sans-Serif" font-size="10.00">mlir::detail::DenseArray</text>
<text text-anchor="middle" x="427.5" y="-55" font-family="Helvetica,sans-Serif" font-size="10.00">AttrImpl&lt; float &gt;</text>
</a>
</g>
</g>
<!-- Node1&#45;&gt;Node8 -->
<g id="edge7_Node000001_Node000008" class="edge">
<title>Node1&#45;&gt;Node8</title>
<g id="a_edge7_Node000001_Node000008"><a xlink:title=" ">
<path fill="none" stroke="orange" stroke-dasharray="5,2" d="M224.33,-138.03C240.03,-126.99 260.37,-113.92 280,-105 305.53,-93.39 335.04,-84.2 360.85,-77.41"/>
<polygon fill="orange" stroke="orange" points="222.21,-135.25 216.12,-143.92 226.29,-140.94 222.21,-135.25"/>
</a>
</g>
<text text-anchor="start" x="289.5" y="-110.5" font-family="Helvetica,sans-Serif" font-size="10.00" fill="grey">&lt; float &gt;</text>
</g>
<!-- Node9 -->
<g id="Node000009" class="node">
<title>Node9</title>
<g id="a_Node000009"><a xlink:href="classmlir_1_1detail_1_1DenseArrayAttrImpl.html" target="_top" xlink:title=" ">
<polygon fill="white" stroke="#666666" points="494,-30 361,-30 361,0 494,0 494,-30"/>
<text text-anchor="start" x="369" y="-18" font-family="Helvetica,sans-Serif" font-size="10.00">mlir::detail::DenseArray</text>
<text text-anchor="middle" x="427.5" y="-7" font-family="Helvetica,sans-Serif" font-size="10.00">AttrImpl&lt; double &gt;</text>
</a>
</g>
</g>
<!-- Node1&#45;&gt;Node9 -->
<g id="edge8_Node000001_Node000009" class="edge">
<title>Node1&#45;&gt;Node9</title>
<g id="a_edge8_Node000001_Node000009"><a xlink:title=" ">
<path fill="none" stroke="orange" stroke-dasharray="5,2" d="M211.17,-135.48C226,-113.52 250.86,-81.31 280,-62 304.16,-45.99 334.15,-35.11 360.7,-27.88"/>
<polygon fill="orange" stroke="orange" points="208.19,-133.64 205.62,-143.92 214.04,-137.48 208.19,-133.64"/>
</a>
</g>
<text text-anchor="start" x="283.5" y="-67.5" font-family="Helvetica,sans-Serif" font-size="10.00" fill="grey">&lt; double &gt;</text>
</g>
<!-- Node2 -->
<g id="Node000002" class="node">
<title>Node2</title>
<g id="a_Node000002"><a xlink:title=" ">
<polygon fill="white" stroke="#666666" points="92,-168.5 0,-168.5 0,-149.5 92,-149.5 92,-168.5"/>
<text text-anchor="middle" x="46" y="-156.5" font-family="Helvetica,sans-Serif" font-size="10.00">DenseArrayAttr</text>
</a>
</g>
</g>
<!-- Node2&#45;&gt;Node1 -->
<g id="edge1_Node000001_Node000002" class="edge">
<title>Node2&#45;&gt;Node1</title>
<g id="a_edge1_Node000001_Node000002"><a xlink:title=" ">
<path fill="none" stroke="#63b8ff" d="M102.08,-159C110.8,-159 119.89,-159 128.81,-159"/>
<polygon fill="#63b8ff" stroke="#63b8ff" points="102.06,-155.5 92.06,-159 102.06,-162.5 102.06,-155.5"/>
</a>
</g>
</g>
</g>
</svg>
