<?xml version="1.0" encoding="UTF-8" standalone="no"?>
<!DOCTYPE svg PUBLIC "-//W3C//DTD SVG 1.1//EN"
 "http://www.w3.org/Graphics/SVG/1.1/DTD/svg11.dtd">
<!-- Generated by graphviz version 2.43.0 (0)
 -->
<!-- Title: mlir::dataflow::IntegerDivisibilityAnalysis Pages: 1 -->
<svg width="1150pt" height="66pt"
 viewBox="0.00 0.00 1150.00 65.50" xmlns="http://www.w3.org/2000/svg" xmlns:xlink="http://www.w3.org/1999/xlink">
<g id="graph0" class="graph" transform="scale(1 1) rotate(0) translate(4 61.5)">
<title>mlir::dataflow::IntegerDivisibilityAnalysis</title>
<!-- Node1 -->
<g id="Node000001" class="node">
<title>Node1</title>
<g id="a_Node000001"><a xlink:title="Integer divisibility analysis determines, for each integer&#45;typed SSA value, a divisor that the value ...">
<polygon fill="#999999" stroke="#666666" points="1142,-52 966,-52 966,-22 1142,-22 1142,-52"/>
<text text-anchor="start" x="974" y="-40" font-family="Helvetica,sans-Serif" font-size="10.00">mlir::dataflow::IntegerDivisibility</text>
<text text-anchor="middle" x="1054" y="-29" font-family="Helvetica,sans-Serif" font-size="10.00">Analysis</text>
</a>
</g>
</g>
<!-- Node2 -->
<g id="Node000002" class="node">
<title>Node2</title>
<g id="a_Node000002"><a xlink:href="classmlir_1_1dataflow_1_1SparseForwardDataFlowAnalysis.html" target="_top" xlink:title=" ">
<polygon fill="white" stroke="#666666" points="929,-57.5 726,-57.5 726,-16.5 929,-16.5 929,-57.5"/>
<text text-anchor="start" x="734" y="-45.5" font-family="Helvetica,sans-Serif" font-size="10.00">mlir::dataflow::SparseForward</text>
<text text-anchor="start" x="734" y="-34.5" font-family="Helvetica,sans-Serif" font-size="10.00">DataFlowAnalysis&lt; IntegerDivisibility</text>
<text text-anchor="middle" x="827.5" y="-23.5" font-family="Helvetica,sans-Serif" font-size="10.00">Lattice &gt;</text>
</a>
</g>
</g>
<!-- Node2&#45;&gt;Node1 -->
<g id="edge1_Node000001_Node000002" class="edge">
<title>Node2&#45;&gt;Node1</title>
<g id="a_edge1_Node000001_Node000002"><a xlink:title=" ">
<path fill="none" stroke="#63b8ff" d="M939.33,-37C948.26,-37 957.21,-37 965.94,-37"/>
<polygon fill="#63b8ff" stroke="#63b8ff" points="939.26,-33.5 929.26,-37 939.26,-40.5 939.26,-33.5"/>
</a>
</g>
</g>
<!-- Node3 -->
<g id="Node000003" class="node">
<title>Node3</title>
<g id="a_Node000003"><a xlink:href="classmlir_1_1dataflow_1_1AbstractSparseForwardDataFlowAnalysis.html" target="_top" xlink:title="Base class for sparse forward data&#45;flow analyses.">
<polygon fill="white" stroke="#666666" points="343,-51 167,-51 167,-21 343,-21 343,-51"/>
<text text-anchor="start" x="175" y="-39" font-family="Helvetica,sans-Serif" font-size="10.00">mlir::dataflow::Abstract</text>
<text text-anchor="middle" x="255" y="-28" font-family="Helvetica,sans-Serif" font-size="10.00">SparseForwardDataFlowAnalysis</text>
</a>
</g>
</g>
<!-- Node3&#45;&gt;Node2 -->
<g id="edge2_Node000002_Node000003" class="edge">
<title>Node3&#45;&gt;Node2</title>
<g id="a_edge2_Node000002_Node000003"><a xlink:title=" ">
<path fill="none" stroke="#63b8ff" d="M353.17,-40.37C444.71,-43.86 585.69,-47.61 708,-44 713.87,-43.83 719.9,-43.61 725.99,-43.35"/>
<polygon fill="#63b8ff" stroke="#63b8ff" points="353.22,-36.87 343.09,-39.98 352.94,-43.86 353.22,-36.87"/>
</a>
</g>
</g>
<!-- Node5 -->
<g id="Node000005" class="node">
<title>Node5</title>
<g id="a_Node000005"><a xlink:href="classmlir_1_1dataflow_1_1SparseForwardDataFlowAnalysis.html" target="_top" xlink:title="A sparse forward data&#45;flow analysis for propagating SSA value lattices across the IR by implementing ...">
<polygon fill="white" stroke="#666666" points="541,-30 380,-30 380,0 541,0 541,-30"/>
<text text-anchor="start" x="388" y="-18" font-family="Helvetica,sans-Serif" font-size="10.00">mlir::dataflow::SparseForward</text>
<text text-anchor="middle" x="460.5" y="-7" font-family="Helvetica,sans-Serif" font-size="10.00">DataFlowAnalysis&lt; StateT &gt;</text>
</a>
</g>
</g>
<!-- Node3&#45;&gt;Node5 -->
<g id="edge5_Node000005_Node000003" class="edge">
<title>Node3&#45;&gt;Node5</title>
<g id="a_edge5_Node000005_Node000003"><a xlink:title=" ">
<path fill="none" stroke="#63b8ff" d="M353.24,-25.97C362.17,-25.04 371.15,-24.12 379.89,-23.21"/>
<polygon fill="#63b8ff" stroke="#63b8ff" points="352.78,-22.49 343.19,-27 353.49,-29.46 352.78,-22.49"/>
</a>
</g>
</g>
<!-- Node4 -->
<g id="Node000004" class="node">
<title>Node4</title>
<g id="a_Node000004"><a xlink:href="classmlir_1_1DataFlowAnalysis.html" target="_top" xlink:title="Base class for all data&#45;flow analyses.">
<polygon fill="white" stroke="#666666" points="130,-45.5 0,-45.5 0,-26.5 130,-26.5 130,-45.5"/>
<text text-anchor="middle" x="65" y="-33.5" font-family="Helvetica,sans-Serif" font-size="10.00">mlir::DataFlowAnalysis</text>
</a>
</g>
</g>
<!-- Node4&#45;&gt;Node3 -->
<g id="edge3_Node000003_Node000004" class="edge">
<title>Node4&#45;&gt;Node3</title>
<g id="a_edge3_Node000003_Node000004"><a xlink:title=" ">
<path fill="none" stroke="#63b8ff" d="M140.28,-36C149,-36 157.96,-36 166.84,-36"/>
<polygon fill="#63b8ff" stroke="#63b8ff" points="140.17,-32.5 130.17,-36 140.17,-39.5 140.17,-32.5"/>
</a>
</g>
</g>
<!-- Node5&#45;&gt;Node2 -->
<g id="edge4_Node000002_Node000005" class="edge">
<title>Node5&#45;&gt;Node2</title>
<g id="a_edge4_Node000002_Node000005"><a xlink:title=" ">
<path fill="none" stroke="orange" stroke-dasharray="5,2" d="M551.29,-18.6C598.04,-20.67 656.12,-23.55 708,-27 713.87,-27.39 719.9,-27.82 725.99,-28.27"/>
<polygon fill="orange" stroke="orange" points="551.34,-15.1 541.19,-18.16 551.03,-22.1 551.34,-15.1"/>
</a>
</g>
<text text-anchor="start" x="562.5" y="-32.5" font-family="Helvetica,sans-Serif" font-size="10.00" fill="grey">&lt; IntegerDivisibilityLattice &gt;</text>
</g>
</g>
</svg>
