<?xml version="1.0" encoding="UTF-8" standalone="no"?>
<!DOCTYPE svg PUBLIC "-//W3C//DTD SVG 1.1//EN"
 "http://www.w3.org/Graphics/SVG/1.1/DTD/svg11.dtd">
<!-- Generated by graphviz version 2.43.0 (0)
 -->
<!-- Title: llvm::SmallString&lt; N &gt; Pages: 1 -->
<svg width="270pt" height="106pt"
 viewBox="0.00 0.00 270.00 106.00" xmlns="http://www.w3.org/2000/svg" xmlns:xlink="http://www.w3.org/1999/xlink">
<g id="graph0" class="graph" transform="scale(1 1) rotate(0) translate(4 102)">
<title>llvm::SmallString&lt; N &gt;</title>
<!-- Node1 -->
<g id="node1" class="node">
<title>Node1</title>
<g id="a_node1"><a xlink:title=" ">
<polygon fill="#bfbfbf" stroke="black" points="72,-78.5 72,-97.5 203,-97.5 203,-78.5 72,-78.5"/>
<text text-anchor="middle" x="137.5" y="-85.5" font-family="Helvetica,sans-Serif" font-size="10.00">llvm::SmallString&lt; N &gt;</text>
</a>
</g>
</g>
<!-- Node2 -->
<g id="node2" class="node">
<title>Node2</title>
<g id="a_node2"><a xlink:href="classllvm_1_1SmallString.html" target="_top" xlink:title=" ">
<polygon fill="none" stroke="black" points="0,-6 0,-25 135,-25 135,-6 0,-6"/>
<text text-anchor="middle" x="67.5" y="-13" font-family="Helvetica,sans-Serif" font-size="10.00">llvm::SmallString&lt; 64 &gt;</text>
</a>
</g>
</g>
<!-- Node1&#45;&gt;Node2 -->
<g id="edge1" class="edge">
<title>Node1&#45;&gt;Node2</title>
<path fill="none" stroke="orange" stroke-dasharray="5,2" d="M121.8,-71.19C107.71,-56.99 87.53,-36.67 76.15,-25.22"/>
<polygon fill="orange" stroke="orange" points="119.39,-73.73 128.92,-78.36 124.35,-68.79 119.39,-73.73"/>
<text text-anchor="middle" x="128.5" y="-52" font-family="Helvetica,sans-Serif" font-size="10.00"> &lt; 64 &gt;</text>
</g>
<!-- Node3 -->
<g id="node3" class="node">
<title>Node3</title>
<g id="a_node3"><a xlink:href="classllvm_1_1SmallString.html" target="_top" xlink:title=" ">
<polygon fill="none" stroke="black" points="153,-0.5 153,-30.5 262,-30.5 262,-0.5 153,-0.5"/>
<text text-anchor="start" x="161" y="-18.5" font-family="Helvetica,sans-Serif" font-size="10.00">llvm::SmallString&lt;</text>
<text text-anchor="middle" x="207.5" y="-7.5" font-family="Helvetica,sans-Serif" font-size="10.00"> 256 &gt;</text>
</a>
</g>
</g>
<!-- Node1&#45;&gt;Node3 -->
<g id="edge2" class="edge">
<title>Node1&#45;&gt;Node3</title>
<path fill="none" stroke="orange" stroke-dasharray="5,2" d="M153.29,-71.09C165.39,-58.91 181.91,-42.27 193.52,-30.58"/>
<polygon fill="orange" stroke="orange" points="150.65,-68.79 146.08,-78.36 155.61,-73.73 150.65,-68.79"/>
<text text-anchor="middle" x="196.5" y="-52" font-family="Helvetica,sans-Serif" font-size="10.00"> &lt; 256 &gt;</text>
</g>
</g>
</svg>
