<?xml version="1.0" encoding="UTF-8" standalone="no"?>
<!DOCTYPE svg PUBLIC "-//W3C//DTD SVG 1.1//EN"
 "http://www.w3.org/Graphics/SVG/1.1/DTD/svg11.dtd">
<!-- Generated by graphviz version 2.43.0 (0)
 -->
<!-- Title: mlir::ValueTypeRange&lt; ValueRangeT &gt; Pages: 1 -->
<svg width="221pt" height="207pt"
 viewBox="0.00 0.00 220.50 207.00" xmlns="http://www.w3.org/2000/svg" xmlns:xlink="http://www.w3.org/1999/xlink">
<g id="graph0" class="graph" transform="scale(1 1) rotate(0) translate(4 203)">
<title>mlir::ValueTypeRange&lt; ValueRangeT &gt;</title>
<!-- Node1 -->
<g id="node1" class="node">
<title>Node1</title>
<g id="a_node1"><a xlink:title="This class implements iteration on the types of a given range of values.">
<polygon fill="#bfbfbf" stroke="black" points="12.5,-0.5 12.5,-30.5 134.5,-30.5 134.5,-0.5 12.5,-0.5"/>
<text text-anchor="start" x="20.5" y="-18.5" font-family="Helvetica,sans-Serif" font-size="10.00">mlir::ValueTypeRange</text>
<text text-anchor="middle" x="73.5" y="-7.5" font-family="Helvetica,sans-Serif" font-size="10.00">&lt; ValueRangeT &gt;</text>
</a>
</g>
</g>
<!-- Node2 -->
<g id="node2" class="node">
<title>Node2</title>
<g id="a_node2"><a xlink:href="classllvm_1_1iterator__range.html" target="_top" xlink:title=" ">
<polygon fill="none" stroke="black" points="0,-68.5 0,-109.5 147,-109.5 147,-68.5 0,-68.5"/>
<text text-anchor="start" x="8" y="-97.5" font-family="Helvetica,sans-Serif" font-size="10.00">llvm::iterator_range</text>
<text text-anchor="start" x="8" y="-86.5" font-family="Helvetica,sans-Serif" font-size="10.00">&lt; ValueTypeIterator&lt;</text>
<text text-anchor="middle" x="73.5" y="-75.5" font-family="Helvetica,sans-Serif" font-size="10.00"> ValueRangeT::iterator &gt; &gt;</text>
</a>
</g>
</g>
<!-- Node2&#45;&gt;Node1 -->
<g id="edge1" class="edge">
<title>Node2&#45;&gt;Node1</title>
<path fill="none" stroke="midnightblue" d="M73.5,-58.16C73.5,-48.69 73.5,-38.65 73.5,-30.8"/>
<polygon fill="midnightblue" stroke="midnightblue" points="70,-58.46 73.5,-68.46 77,-58.46 70,-58.46"/>
</g>
<!-- Node3 -->
<g id="node3" class="node">
<title>Node3</title>
<g id="a_node3"><a xlink:href="classllvm_1_1iterator__range.html" target="_top" xlink:title=" ">
<polygon fill="none" stroke="black" points="17,-168.5 17,-198.5 130,-198.5 130,-168.5 17,-168.5"/>
<text text-anchor="start" x="25" y="-186.5" font-family="Helvetica,sans-Serif" font-size="10.00">llvm::iterator_range</text>
<text text-anchor="middle" x="73.5" y="-175.5" font-family="Helvetica,sans-Serif" font-size="10.00">&lt; IteratorT &gt;</text>
</a>
</g>
</g>
<!-- Node3&#45;&gt;Node2 -->
<g id="edge2" class="edge">
<title>Node3&#45;&gt;Node2</title>
<path fill="none" stroke="orange" stroke-dasharray="5,2" d="M73.5,-158.28C73.5,-143.14 73.5,-123.88 73.5,-109.68"/>
<polygon fill="orange" stroke="orange" points="70,-158.45 73.5,-168.45 77,-158.45 70,-158.45"/>
<text text-anchor="start" x="73.5" y="-142" font-family="Helvetica,sans-Serif" font-size="10.00"> &lt; ValueTypeIterator</text>
<text text-anchor="middle" x="143" y="-131" font-family="Helvetica,sans-Serif" font-size="10.00">&lt; ValueRangeT::iterator &gt; &gt;</text>
</g>
</g>
</svg>
