<?xml version="1.0" encoding="UTF-8" standalone="no"?>
<!DOCTYPE svg PUBLIC "-//W3C//DTD SVG 1.1//EN"
 "http://www.w3.org/Graphics/SVG/1.1/DTD/svg11.dtd">
<!-- Generated by graphviz version 2.43.0 (0)
 -->
<!-- Title: mlir::shard::impl::PartitionBase&lt; DerivedT &gt; Pages: 1 -->
<svg width="281pt" height="311pt"
 viewBox="0.00 0.00 280.50 311.00" xmlns="http://www.w3.org/2000/svg" xmlns:xlink="http://www.w3.org/1999/xlink">
<g id="graph0" class="graph" transform="scale(1 1) rotate(0) translate(4 307)">
<title>mlir::shard::impl::PartitionBase&lt; DerivedT &gt;</title>
<!-- Node1 -->
<g id="Node000001" class="node">
<title>Node1</title>
<g id="a_Node000001"><a xlink:title=" ">
<polygon fill="#999999" stroke="#666666" points="155.5,-30 7.5,-30 7.5,0 155.5,0 155.5,-30"/>
<text text-anchor="start" x="15.5" y="-18" font-family="Helvetica,sans-Serif" font-size="10.00">mlir::shard::impl::</text>
<text text-anchor="middle" x="81.5" y="-7" font-family="Helvetica,sans-Serif" font-size="10.00">PartitionBase&lt; DerivedT &gt;</text>
</a>
</g>
</g>
<!-- Node2 -->
<g id="Node000002" class="node">
<title>Node2</title>
<g id="a_Node000002"><a xlink:href="classmlir_1_1InterfacePass.html" target="_top" xlink:title=" ">
<polygon fill="white" stroke="#666666" points="163,-97 0,-97 0,-67 163,-67 163,-97"/>
<text text-anchor="start" x="8" y="-85" font-family="Helvetica,sans-Serif" font-size="10.00">mlir::InterfacePass</text>
<text text-anchor="middle" x="81.5" y="-74" font-family="Helvetica,sans-Serif" font-size="10.00">&lt; mlir::FunctionOpInterface &gt;</text>
</a>
</g>
</g>
<!-- Node2&#45;&gt;Node1 -->
<g id="edge1_Node000001_Node000002" class="edge">
<title>Node2&#45;&gt;Node1</title>
<g id="a_edge1_Node000001_Node000002"><a xlink:title=" ">
<path fill="none" stroke="#63b8ff" d="M81.5,-56.61C81.5,-47.65 81.5,-37.82 81.5,-30.08"/>
<polygon fill="#63b8ff" stroke="#63b8ff" points="78,-56.9 81.5,-66.9 85,-56.9 78,-56.9"/>
</a>
</g>
</g>
<!-- Node3 -->
<g id="Node000003" class="node">
<title>Node3</title>
<g id="a_Node000003"><a xlink:href="classmlir_1_1OperationPass.html" target="_top" xlink:title="Pass to transform an operation of a specific type.">
<polygon fill="white" stroke="#666666" points="133.5,-247 21.5,-247 21.5,-217 133.5,-217 133.5,-247"/>
<text text-anchor="start" x="29.5" y="-235" font-family="Helvetica,sans-Serif" font-size="10.00">mlir::OperationPass</text>
<text text-anchor="middle" x="77.5" y="-224" font-family="Helvetica,sans-Serif" font-size="10.00">&lt; OpT &gt;</text>
</a>
</g>
</g>
<!-- Node3&#45;&gt;Node2 -->
<g id="edge2_Node000002_Node000003" class="edge">
<title>Node3&#45;&gt;Node2</title>
<g id="a_edge2_Node000002_Node000003"><a xlink:title=" ">
<path fill="none" stroke="#63b8ff" d="M78.15,-206.81C78.99,-175.72 80.43,-122.73 81.11,-97.37"/>
<polygon fill="#63b8ff" stroke="#63b8ff" points="74.66,-206.72 77.88,-216.81 81.65,-206.91 74.66,-206.72"/>
</a>
</g>
</g>
<!-- Node5 -->
<g id="Node000005" class="node">
<title>Node5</title>
<g id="a_Node000005"><a xlink:href="classmlir_1_1InterfacePass.html" target="_top" xlink:title="Pass to transform an operation that implements the given interface.">
<polygon fill="white" stroke="#666666" points="201,-180 94,-180 94,-150 201,-150 201,-180"/>
<text text-anchor="start" x="102" y="-168" font-family="Helvetica,sans-Serif" font-size="10.00">mlir::InterfacePass</text>
<text text-anchor="middle" x="147.5" y="-157" font-family="Helvetica,sans-Serif" font-size="10.00">&lt; InterfaceT &gt;</text>
</a>
</g>
</g>
<!-- Node3&#45;&gt;Node5 -->
<g id="edge5_Node000005_Node000003" class="edge">
<title>Node3&#45;&gt;Node5</title>
<g id="a_edge5_Node000005_Node000003"><a xlink:title=" ">
<path fill="none" stroke="#63b8ff" d="M100.32,-209.81C110.82,-200.06 122.99,-188.76 132.34,-180.08"/>
<polygon fill="#63b8ff" stroke="#63b8ff" points="97.64,-207.53 92.69,-216.9 102.4,-212.66 97.64,-207.53"/>
</a>
</g>
</g>
<!-- Node4 -->
<g id="Node000004" class="node">
<title>Node4</title>
<g id="a_Node000004"><a xlink:href="classmlir_1_1Pass.html" target="_top" xlink:title="The abstract base pass class.">
<polygon fill="white" stroke="#666666" points="109.5,-303 45.5,-303 45.5,-284 109.5,-284 109.5,-303"/>
<text text-anchor="middle" x="77.5" y="-291" font-family="Helvetica,sans-Serif" font-size="10.00">mlir::Pass</text>
</a>
</g>
</g>
<!-- Node4&#45;&gt;Node3 -->
<g id="edge3_Node000003_Node000004" class="edge">
<title>Node4&#45;&gt;Node3</title>
<g id="a_edge3_Node000003_Node000004"><a xlink:title=" ">
<path fill="none" stroke="#63b8ff" d="M77.5,-273.73C77.5,-265.09 77.5,-255 77.5,-247.02"/>
<polygon fill="#63b8ff" stroke="#63b8ff" points="74,-273.98 77.5,-283.98 81,-273.98 74,-273.98"/>
</a>
</g>
</g>
<!-- Node5&#45;&gt;Node2 -->
<g id="edge4_Node000002_Node000005" class="edge">
<title>Node5&#45;&gt;Node2</title>
<g id="a_edge4_Node000002_Node000005"><a xlink:title=" ">
<path fill="none" stroke="orange" stroke-dasharray="5,2" d="M129.59,-142.02C117.97,-127.76 103.18,-109.61 93.09,-97.22"/>
<polygon fill="orange" stroke="orange" points="126.97,-144.35 136,-149.89 132.4,-139.93 126.97,-144.35"/>
</a>
</g>
<text text-anchor="start" x="123" y="-120.5" font-family="Helvetica,sans-Serif" font-size="10.00" fill="grey">&lt; mlir::FunctionOpInterface &gt;</text>
</g>
</g>
</svg>
