<?xml version="1.0" encoding="UTF-8" standalone="no"?>
<!DOCTYPE svg PUBLIC "-//W3C//DTD SVG 1.1//EN"
 "http://www.w3.org/Graphics/SVG/1.1/DTD/svg11.dtd">
<!-- Generated by graphviz version 2.43.0 (0)
 -->
<!-- Title: mlir::dataflow::AbstractSparseBackwardDataFlowAnalysis Pages: 1 -->
<svg width="1014pt" height="60pt"
 viewBox="0.00 0.00 1014.00 60.00" xmlns="http://www.w3.org/2000/svg" xmlns:xlink="http://www.w3.org/1999/xlink">
<g id="graph0" class="graph" transform="scale(1 1) rotate(0) translate(4 56)">
<title>mlir::dataflow::AbstractSparseBackwardDataFlowAnalysis</title>
<!-- Node1 -->
<g id="Node000001" class="node">
<title>Node1</title>
<g id="a_Node000001"><a xlink:title="Base class for sparse backward data&#45;flow analyses.">
<polygon fill="#999999" stroke="#666666" points="352,-51 167,-51 167,-21 352,-21 352,-51"/>
<text text-anchor="start" x="175" y="-39" font-family="Helvetica,sans-Serif" font-size="10.00">mlir::dataflow::Abstract</text>
<text text-anchor="middle" x="259.5" y="-28" font-family="Helvetica,sans-Serif" font-size="10.00">SparseBackwardDataFlowAnalysis</text>
</a>
</g>
</g>
<!-- Node3 -->
<g id="Node000003" class="node">
<title>Node3</title>
<g id="a_Node000003"><a xlink:href="classmlir_1_1dataflow_1_1SparseBackwardDataFlowAnalysis.html" target="_top" xlink:title=" ">
<polygon fill="white" stroke="#666666" points="837,-52 667,-52 667,-22 837,-22 837,-52"/>
<text text-anchor="start" x="675" y="-40" font-family="Helvetica,sans-Serif" font-size="10.00">mlir::dataflow::SparseBackward</text>
<text text-anchor="middle" x="752" y="-29" font-family="Helvetica,sans-Serif" font-size="10.00">DataFlowAnalysis&lt; Liveness &gt;</text>
</a>
</g>
</g>
<!-- Node1&#45;&gt;Node3 -->
<g id="edge2_Node000001_Node000003" class="edge">
<title>Node1&#45;&gt;Node3</title>
<g id="a_edge2_Node000001_Node000003"><a xlink:title=" ">
<path fill="none" stroke="#63b8ff" d="M362.71,-41.16C441.07,-44.38 551.89,-47.33 649,-44 654.85,-43.8 660.89,-43.53 666.97,-43.22"/>
<polygon fill="#63b8ff" stroke="#63b8ff" points="362.5,-37.65 352.36,-40.73 362.2,-44.64 362.5,-37.65"/>
</a>
</g>
</g>
<!-- Node5 -->
<g id="Node000005" class="node">
<title>Node5</title>
<g id="a_Node000005"><a xlink:href="classmlir_1_1dataflow_1_1SparseBackwardDataFlowAnalysis.html" target="_top" xlink:title="A sparse (backward) data&#45;flow analysis for propagating SSA value lattices backwards across the IR by ...">
<polygon fill="white" stroke="#666666" points="559,-30 389,-30 389,0 559,0 559,-30"/>
<text text-anchor="start" x="397" y="-18" font-family="Helvetica,sans-Serif" font-size="10.00">mlir::dataflow::SparseBackward</text>
<text text-anchor="middle" x="474" y="-7" font-family="Helvetica,sans-Serif" font-size="10.00">DataFlowAnalysis&lt; StateT &gt;</text>
</a>
</g>
</g>
<!-- Node1&#45;&gt;Node5 -->
<g id="edge4_Node000001_Node000005" class="edge">
<title>Node1&#45;&gt;Node5</title>
<g id="a_edge4_Node000001_Node000005"><a xlink:title=" ">
<path fill="none" stroke="#63b8ff" d="M362.16,-25.95C371.04,-25.08 379.96,-24.19 388.68,-23.33"/>
<polygon fill="#63b8ff" stroke="#63b8ff" points="361.77,-22.48 352.16,-26.94 362.46,-29.44 361.77,-22.48"/>
</a>
</g>
</g>
<!-- Node2 -->
<g id="Node000002" class="node">
<title>Node2</title>
<g id="a_Node000002"><a xlink:href="classmlir_1_1DataFlowAnalysis.html" target="_top" xlink:title="Base class for all data&#45;flow analyses.">
<polygon fill="white" stroke="#666666" points="130,-45.5 0,-45.5 0,-26.5 130,-26.5 130,-45.5"/>
<text text-anchor="middle" x="65" y="-33.5" font-family="Helvetica,sans-Serif" font-size="10.00">mlir::DataFlowAnalysis</text>
</a>
</g>
</g>
<!-- Node2&#45;&gt;Node1 -->
<g id="edge1_Node000001_Node000002" class="edge">
<title>Node2&#45;&gt;Node1</title>
<g id="a_edge1_Node000001_Node000002"><a xlink:title=" ">
<path fill="none" stroke="#63b8ff" d="M140.22,-36C148.96,-36 157.95,-36 166.89,-36"/>
<polygon fill="#63b8ff" stroke="#63b8ff" points="140.1,-32.5 130.1,-36 140.1,-39.5 140.1,-32.5"/>
</a>
</g>
</g>
<!-- Node4 -->
<g id="Node000004" class="node">
<title>Node4</title>
<g id="a_Node000004"><a xlink:href="classmlir_1_1dataflow_1_1LivenessAnalysis.html" target="_top" xlink:title="An analysis that, by going backwards along the dataflow graph, annotates each value with a boolean st...">
<polygon fill="white" stroke="#666666" points="1006,-52 874,-52 874,-22 1006,-22 1006,-52"/>
<text text-anchor="start" x="882" y="-40" font-family="Helvetica,sans-Serif" font-size="10.00">mlir::dataflow::Liveness</text>
<text text-anchor="middle" x="940" y="-29" font-family="Helvetica,sans-Serif" font-size="10.00">Analysis</text>
</a>
</g>
</g>
<!-- Node3&#45;&gt;Node4 -->
<g id="edge3_Node000003_Node000004" class="edge">
<title>Node3&#45;&gt;Node4</title>
<g id="a_edge3_Node000003_Node000004"><a xlink:title=" ">
<path fill="none" stroke="#63b8ff" d="M847.16,-37C856.15,-37 865.13,-37 873.75,-37"/>
<polygon fill="#63b8ff" stroke="#63b8ff" points="847.02,-33.5 837.02,-37 847.02,-40.5 847.02,-33.5"/>
</a>
</g>
</g>
<!-- Node5&#45;&gt;Node3 -->
<g id="edge5_Node000005_Node000003" class="edge">
<title>Node5&#45;&gt;Node3</title>
<g id="a_edge5_Node000005_Node000003"><a xlink:title=" ">
<path fill="none" stroke="orange" stroke-dasharray="5,2" d="M569.28,-21C595.14,-22.79 623.16,-24.84 649,-27 654.85,-27.49 660.89,-28.02 666.97,-28.57"/>
<polygon fill="orange" stroke="orange" points="569.33,-17.5 559.11,-20.31 568.85,-24.48 569.33,-17.5"/>
</a>
</g>
<text text-anchor="start" x="580" y="-32.5" font-family="Helvetica,sans-Serif" font-size="10.00" fill="grey">&lt; Liveness &gt;</text>
</g>
</g>
</svg>
