<?xml version="1.0" encoding="UTF-8" standalone="no"?>
<!DOCTYPE svg PUBLIC "-//W3C//DTD SVG 1.1//EN"
 "http://www.w3.org/Graphics/SVG/1.1/DTD/svg11.dtd">
<!-- Generated by graphviz version 2.43.0 (0)
 -->
<!-- Title: mlir::vector::impl::LowerVectorMaskPassBase&lt; DerivedT &gt; Pages: 1 -->
<svg width="218pt" height="255pt"
 viewBox="0.00 0.00 217.50 255.00" xmlns="http://www.w3.org/2000/svg" xmlns:xlink="http://www.w3.org/1999/xlink">
<g id="graph0" class="graph" transform="scale(1 1) rotate(0) translate(4 251)">
<title>mlir::vector::impl::LowerVectorMaskPassBase&lt; DerivedT &gt;</title>
<!-- Node1 -->
<g id="Node000001" class="node">
<title>Node1</title>
<g id="a_Node000001"><a xlink:title=" ">
<polygon fill="#999999" stroke="#666666" points="155,-41 0,-41 0,0 155,0 155,-41"/>
<text text-anchor="start" x="8" y="-29" font-family="Helvetica,sans-Serif" font-size="10.00">mlir::vector::impl</text>
<text text-anchor="start" x="8" y="-18" font-family="Helvetica,sans-Serif" font-size="10.00">::LowerVectorMaskPassBase</text>
<text text-anchor="middle" x="77.5" y="-7" font-family="Helvetica,sans-Serif" font-size="10.00">&lt; DerivedT &gt;</text>
</a>
</g>
</g>
<!-- Node2 -->
<g id="Node000002" class="node">
<title>Node2</title>
<g id="a_Node000002"><a xlink:href="classmlir_1_1OperationPass.html" target="_top" xlink:title=" ">
<polygon fill="white" stroke="#666666" points="133.5,-108 21.5,-108 21.5,-78 133.5,-78 133.5,-108"/>
<text text-anchor="start" x="29.5" y="-96" font-family="Helvetica,sans-Serif" font-size="10.00">mlir::OperationPass</text>
<text text-anchor="middle" x="77.5" y="-85" font-family="Helvetica,sans-Serif" font-size="10.00">&lt; func::FuncOp &gt;</text>
</a>
</g>
</g>
<!-- Node2&#45;&gt;Node1 -->
<g id="edge1_Node000001_Node000002" class="edge">
<title>Node2&#45;&gt;Node1</title>
<g id="a_edge1_Node000001_Node000002"><a xlink:title=" ">
<path fill="none" stroke="#63b8ff" d="M77.5,-67.48C77.5,-58.85 77.5,-49.26 77.5,-41.09"/>
<polygon fill="#63b8ff" stroke="#63b8ff" points="74,-67.73 77.5,-77.73 81,-67.73 74,-67.73"/>
</a>
</g>
</g>
<!-- Node3 -->
<g id="Node000003" class="node">
<title>Node3</title>
<g id="a_Node000003"><a xlink:href="classmlir_1_1Pass.html" target="_top" xlink:title="The abstract base pass class.">
<polygon fill="white" stroke="#666666" points="105.5,-247 41.5,-247 41.5,-228 105.5,-228 105.5,-247"/>
<text text-anchor="middle" x="73.5" y="-235" font-family="Helvetica,sans-Serif" font-size="10.00">mlir::Pass</text>
</a>
</g>
</g>
<!-- Node3&#45;&gt;Node2 -->
<g id="edge2_Node000002_Node000003" class="edge">
<title>Node3&#45;&gt;Node2</title>
<g id="a_edge2_Node000002_Node000003"><a xlink:title=" ">
<path fill="none" stroke="#63b8ff" d="M74.03,-217.54C74.85,-188.58 76.38,-133.99 77.1,-108.19"/>
<polygon fill="#63b8ff" stroke="#63b8ff" points="70.53,-217.49 73.75,-227.59 77.53,-217.69 70.53,-217.49"/>
</a>
</g>
</g>
<!-- Node4 -->
<g id="Node000004" class="node">
<title>Node4</title>
<g id="a_Node000004"><a xlink:href="classmlir_1_1OperationPass.html" target="_top" xlink:title="Pass to transform an operation of a specific type.">
<polygon fill="white" stroke="#666666" points="201.5,-191 89.5,-191 89.5,-161 201.5,-161 201.5,-191"/>
<text text-anchor="start" x="97.5" y="-179" font-family="Helvetica,sans-Serif" font-size="10.00">mlir::OperationPass</text>
<text text-anchor="middle" x="145.5" y="-168" font-family="Helvetica,sans-Serif" font-size="10.00">&lt; OpT &gt;</text>
</a>
</g>
</g>
<!-- Node3&#45;&gt;Node4 -->
<g id="edge4_Node000004_Node000003" class="edge">
<title>Node3&#45;&gt;Node4</title>
<g id="a_edge4_Node000004_Node000003"><a xlink:title=" ">
<path fill="none" stroke="#63b8ff" d="M91.75,-221.42C103.05,-212.08 117.47,-200.16 128.53,-191.02"/>
<polygon fill="#63b8ff" stroke="#63b8ff" points="89.29,-218.91 83.82,-227.98 93.75,-224.3 89.29,-218.91"/>
</a>
</g>
</g>
<!-- Node4&#45;&gt;Node2 -->
<g id="edge3_Node000002_Node000004" class="edge">
<title>Node4&#45;&gt;Node2</title>
<g id="a_edge3_Node000002_Node000004"><a xlink:title=" ">
<path fill="none" stroke="orange" stroke-dasharray="5,2" d="M127.05,-153.02C115.08,-138.76 99.84,-120.61 89.44,-108.22"/>
<polygon fill="orange" stroke="orange" points="124.54,-155.48 133.66,-160.89 129.91,-150.98 124.54,-155.48"/>
</a>
</g>
<text text-anchor="start" x="120.5" y="-131.5" font-family="Helvetica,sans-Serif" font-size="10.00" fill="grey">&lt; func::FuncOp &gt;</text>
</g>
</g>
</svg>
