<?xml version="1.0" encoding="UTF-8" standalone="no"?>
<!DOCTYPE svg PUBLIC "-//W3C//DTD SVG 1.1//EN"
 "http://www.w3.org/Graphics/SVG/1.1/DTD/svg11.dtd">
<!-- Generated by graphviz version 2.43.0 (0)
 -->
<!-- Title: mlir::pdll::ast::AttributeType Pages: 1 -->
<svg width="303pt" height="242pt"
 viewBox="0.00 0.00 302.50 242.00" xmlns="http://www.w3.org/2000/svg" xmlns:xlink="http://www.w3.org/1999/xlink">
<g id="graph0" class="graph" transform="scale(1 1) rotate(0) translate(4 238)">
<title>mlir::pdll::ast::AttributeType</title>
<!-- Node1 -->
<g id="node1" class="node">
<title>Node1</title>
<g id="a_node1"><a xlink:title="This class represents a PDLL type that corresponds to an mlir::Attribute.">
<polygon fill="#bfbfbf" stroke="black" points="2.5,-0.5 2.5,-19.5 154.5,-19.5 154.5,-0.5 2.5,-0.5"/>
<text text-anchor="middle" x="78.5" y="-7.5" font-family="Helvetica,sans-Serif" font-size="10.00">mlir::pdll::ast::AttributeType</text>
</a>
</g>
</g>
<!-- Node2 -->
<g id="node2" class="node">
<title>Node2</title>
<g id="a_node2"><a xlink:href="classmlir_1_1pdll_1_1ast_1_1Type_1_1TypeBase.html" target="_top" xlink:title=" ">
<polygon fill="none" stroke="black" points="0,-57.5 0,-98.5 157,-98.5 157,-57.5 0,-57.5"/>
<text text-anchor="start" x="8" y="-86.5" font-family="Helvetica,sans-Serif" font-size="10.00">mlir::pdll::ast::Type</text>
<text text-anchor="start" x="8" y="-75.5" font-family="Helvetica,sans-Serif" font-size="10.00">::TypeBase&lt; detail::Attribute</text>
<text text-anchor="middle" x="78.5" y="-64.5" font-family="Helvetica,sans-Serif" font-size="10.00">TypeStorage &gt;</text>
</a>
</g>
</g>
<!-- Node2&#45;&gt;Node1 -->
<g id="edge1" class="edge">
<title>Node2&#45;&gt;Node1</title>
<path fill="none" stroke="midnightblue" d="M78.5,-47.12C78.5,-37.17 78.5,-26.84 78.5,-19.79"/>
<polygon fill="midnightblue" stroke="midnightblue" points="75,-47.2 78.5,-57.2 82,-47.2 75,-47.2"/>
</g>
<!-- Node3 -->
<g id="node3" class="node">
<title>Node3</title>
<g id="a_node3"><a xlink:href="classmlir_1_1pdll_1_1ast_1_1Type.html" target="_top" xlink:title=" ">
<polygon fill="none" stroke="black" points="19.5,-214.5 19.5,-233.5 129.5,-233.5 129.5,-214.5 19.5,-214.5"/>
<text text-anchor="middle" x="74.5" y="-221.5" font-family="Helvetica,sans-Serif" font-size="10.00">mlir::pdll::ast::Type</text>
</a>
</g>
</g>
<!-- Node3&#45;&gt;Node2 -->
<g id="edge2" class="edge">
<title>Node3&#45;&gt;Node2</title>
<path fill="none" stroke="midnightblue" d="M75.02,-204.26C75.78,-176.92 77.19,-126.32 77.96,-98.53"/>
<polygon fill="midnightblue" stroke="midnightblue" points="71.52,-204.33 74.74,-214.42 78.51,-204.52 71.52,-204.33"/>
</g>
<!-- Node4 -->
<g id="node4" class="node">
<title>Node4</title>
<g id="a_node4"><a xlink:href="classmlir_1_1pdll_1_1ast_1_1Type_1_1TypeBase.html" target="_top" xlink:title="This class provides several utilities when defining derived type classes.">
<polygon fill="none" stroke="black" points="91,-146.5 91,-176.5 246,-176.5 246,-146.5 91,-146.5"/>
<text text-anchor="start" x="99" y="-164.5" font-family="Helvetica,sans-Serif" font-size="10.00">mlir::pdll::ast::Type</text>
<text text-anchor="middle" x="168.5" y="-153.5" font-family="Helvetica,sans-Serif" font-size="10.00">::TypeBase&lt; ImplT, BaseT &gt;</text>
</a>
</g>
</g>
<!-- Node3&#45;&gt;Node4 -->
<g id="edge4" class="edge">
<title>Node3&#45;&gt;Node4</title>
<path fill="none" stroke="midnightblue" d="M96.67,-208.73C111.77,-199.01 131.68,-186.2 146.71,-176.53"/>
<polygon fill="midnightblue" stroke="midnightblue" points="94.48,-205.98 87.97,-214.33 98.27,-211.86 94.48,-205.98"/>
</g>
<!-- Node4&#45;&gt;Node2 -->
<g id="edge3" class="edge">
<title>Node4&#45;&gt;Node2</title>
<path fill="none" stroke="orange" stroke-dasharray="5,2" d="M145.1,-139.31C131.18,-126.71 113.65,-110.83 100.06,-98.53"/>
<polygon fill="orange" stroke="orange" points="143.06,-142.19 152.82,-146.3 147.76,-137 143.06,-142.19"/>
<text text-anchor="middle" x="213" y="-120" font-family="Helvetica,sans-Serif" font-size="10.00"> &lt; detail::AttributeTypeStorage &gt;</text>
</g>
</g>
</svg>
