<?xml version="1.0" encoding="UTF-8" standalone="no"?>
<!DOCTYPE svg PUBLIC "-//W3C//DTD SVG 1.1//EN"
 "http://www.w3.org/Graphics/SVG/1.1/DTD/svg11.dtd">
<!-- Generated by graphviz version 2.43.0 (0)
 -->
<!-- Title: mlir::Op&lt; ConcreteType, Traits &gt; Pages: 1 -->
<svg width="1485pt" height="208pt"
 viewBox="0.00 0.00 1485.00 208.00" xmlns="http://www.w3.org/2000/svg" xmlns:xlink="http://www.w3.org/1999/xlink">
<g id="graph0" class="graph" transform="scale(1 1) rotate(0) translate(4 204)">
<title>mlir::Op&lt; ConcreteType, Traits &gt;</title>
<!-- Node1 -->
<g id="Node000001" class="node">
<title>Node1</title>
<g id="a_Node000001"><a xlink:title="This provides public APIs that all operations should have.">
<polygon fill="#999999" stroke="#666666" points="304,-105 168,-105 168,-75 304,-75 304,-105"/>
<text text-anchor="start" x="176" y="-93" font-family="Helvetica,sans-Serif" font-size="10.00">mlir::Op&lt; ConcreteType,</text>
<text text-anchor="middle" x="236" y="-82" font-family="Helvetica,sans-Serif" font-size="10.00"> Traits &gt;</text>
</a>
</g>
</g>
<!-- Node4 -->
<g id="Node000004" class="node">
<title>Node4</title>
<g id="a_Node000004"><a xlink:href="classmlir_1_1detail_1_1Interface.html" target="_top" xlink:title=" ">
<polygon fill="white" stroke="#666666" points="659,-116 505,-116 505,-64 659,-64 659,-116"/>
<text text-anchor="start" x="513" y="-104" font-family="Helvetica,sans-Serif" font-size="10.00">mlir::detail::Interface</text>
<text text-anchor="start" x="513" y="-93" font-family="Helvetica,sans-Serif" font-size="10.00">&lt; ConcreteType, Operation</text>
<text text-anchor="start" x="513" y="-82" font-family="Helvetica,sans-Serif" font-size="10.00"> *, Traits, Op&lt; ConcreteType</text>
<text text-anchor="middle" x="582" y="-71" font-family="Helvetica,sans-Serif" font-size="10.00"> &gt;, OpTrait::TraitBase &gt;</text>
</a>
</g>
</g>
<!-- Node1&#45;&gt;Node4 -->
<g id="edge3_Node000001_Node000004" class="edge">
<title>Node1&#45;&gt;Node4</title>
<g id="a_edge3_Node000001_Node000004"><a xlink:title=" ">
<path fill="none" stroke="#63b8ff" d="M314.16,-90C371.05,-90 448.07,-90 504.74,-90"/>
<polygon fill="#63b8ff" stroke="#63b8ff" points="314.14,-86.5 304.14,-90 314.14,-93.5 314.14,-86.5"/>
</a>
</g>
</g>
<!-- Node10 -->
<g id="Node000010" class="node">
<title>Node10</title>
<g id="a_Node000010"><a xlink:href="classmlir_1_1Op.html" target="_top" xlink:title=" ">
<polygon fill="white" stroke="#666666" points="679,-162.5 485,-162.5 485,-143.5 679,-143.5 679,-162.5"/>
<text text-anchor="middle" x="582" y="-150.5" font-family="Helvetica,sans-Serif" font-size="10.00">mlir::Op&lt; ArmSMETileOpInterface &gt;</text>
</a>
</g>
</g>
<!-- Node1&#45;&gt;Node10 -->
<g id="edge9_Node000001_Node000010" class="edge">
<title>Node1&#45;&gt;Node10</title>
<g id="a_edge9_Node000001_Node000010"><a xlink:title=" ">
<path fill="none" stroke="orange" stroke-dasharray="5,2" d="M314.01,-104.1C379.5,-116.1 471.77,-133 528.9,-143.46"/>
<polygon fill="orange" stroke="orange" points="314.61,-100.66 304.14,-102.3 313.35,-107.54 314.61,-100.66"/>
</a>
</g>
<text text-anchor="start" x="325.5" y="-135.5" font-family="Helvetica,sans-Serif" font-size="10.00" fill="grey">&lt; ArmSMETileOpInterface &gt;</text>
</g>
<!-- Node12 -->
<g id="Node000012" class="node">
<title>Node12</title>
<g id="a_Node000012"><a xlink:href="classmlir_1_1Op.html" target="_top" xlink:title=" ">
<polygon fill="white" stroke="#666666" points="638.5,-41.5 525.5,-41.5 525.5,-22.5 638.5,-22.5 638.5,-41.5"/>
<text text-anchor="middle" x="582" y="-29.5" font-family="Helvetica,sans-Serif" font-size="10.00">mlir::Op&lt; TosaOp &gt;</text>
</a>
</g>
</g>
<!-- Node1&#45;&gt;Node12 -->
<g id="edge12_Node000001_Node000012" class="edge">
<title>Node1&#45;&gt;Node12</title>
<g id="a_edge12_Node000001_Node000012"><a xlink:title=" ">
<path fill="none" stroke="orange" stroke-dasharray="5,2" d="M304.4,-72.69C310.34,-71.37 316.26,-70.12 322,-69 391.67,-55.45 472.78,-44.66 525.41,-38.3"/>
<polygon fill="orange" stroke="orange" points="303.4,-69.33 294.44,-74.98 304.97,-76.16 303.4,-69.33"/>
</a>
</g>
<text text-anchor="start" x="365.5" y="-74.5" font-family="Helvetica,sans-Serif" font-size="10.00" fill="grey">&lt; TosaOp &gt;</text>
</g>
<!-- Node2 -->
<g id="Node000002" class="node">
<title>Node2</title>
<g id="a_Node000002"><a xlink:href="classmlir_1_1OpState.html" target="_top" xlink:title="This is the concrete base class that holds the operation pointer and has non&#45;generic methods that onl...">
<polygon fill="white" stroke="#666666" points="106,-118.5 25,-118.5 25,-99.5 106,-99.5 106,-118.5"/>
<text text-anchor="middle" x="65.5" y="-106.5" font-family="Helvetica,sans-Serif" font-size="10.00">mlir::OpState</text>
</a>
</g>
</g>
<!-- Node2&#45;&gt;Node1 -->
<g id="edge1_Node000001_Node000002" class="edge">
<title>Node2&#45;&gt;Node1</title>
<g id="a_edge1_Node000001_Node000002"><a xlink:title=" ">
<path fill="none" stroke="#63b8ff" d="M116.27,-103.39C132.39,-101.57 150.54,-99.52 167.71,-97.59"/>
<polygon fill="#63b8ff" stroke="#63b8ff" points="115.55,-99.95 106.01,-104.55 116.33,-106.9 115.55,-99.95"/>
</a>
</g>
</g>
<!-- Node3 -->
<g id="Node000003" class="node">
<title>Node3</title>
<g id="a_Node000003"><a xlink:title=" ">
<polygon fill="white" stroke="#666666" points="131,-81.5 0,-81.5 0,-62.5 131,-62.5 131,-81.5"/>
<text text-anchor="middle" x="65.5" y="-69.5" font-family="Helvetica,sans-Serif" font-size="10.00">Traits&lt; ConcreteType &gt;</text>
</a>
</g>
</g>
<!-- Node3&#45;&gt;Node1 -->
<g id="edge2_Node000001_Node000003" class="edge">
<title>Node3&#45;&gt;Node1</title>
<g id="a_edge2_Node000001_Node000003"><a xlink:title=" ">
<path fill="none" stroke="#63b8ff" d="M141.17,-79.98C150.1,-80.93 159.18,-81.9 168,-82.84"/>
<polygon fill="#63b8ff" stroke="#63b8ff" points="141.48,-76.49 131.16,-78.91 140.74,-83.45 141.48,-76.49"/>
</a>
</g>
</g>
<!-- Node5 -->
<g id="Node000005" class="node">
<title>Node5</title>
<g id="a_Node000005"><a xlink:href="classmlir_1_1OpInterface.html" target="_top" xlink:title="This class represents the base of an operation interface.">
<polygon fill="white" stroke="#666666" points="878.5,-105 749.5,-105 749.5,-75 878.5,-75 878.5,-105"/>
<text text-anchor="start" x="757.5" y="-93" font-family="Helvetica,sans-Serif" font-size="10.00">mlir::OpInterface&lt;</text>
<text text-anchor="middle" x="814" y="-82" font-family="Helvetica,sans-Serif" font-size="10.00"> ConcreteType, Traits &gt;</text>
</a>
</g>
</g>
<!-- Node4&#45;&gt;Node5 -->
<g id="edge4_Node000004_Node000005" class="edge">
<title>Node4&#45;&gt;Node5</title>
<g id="a_edge4_Node000004_Node000005"><a xlink:title=" ">
<path fill="none" stroke="#63b8ff" d="M669.31,-90C695.82,-90 724.51,-90 749.23,-90"/>
<polygon fill="#63b8ff" stroke="#63b8ff" points="669.27,-86.5 659.27,-90 669.27,-93.5 669.27,-86.5"/>
</a>
</g>
</g>
<!-- Node6 -->
<g id="Node000006" class="node">
<title>Node6</title>
<g id="a_Node000006"><a xlink:href="classmlir_1_1OpInterface.html" target="_top" xlink:title=" ">
<polygon fill="white" stroke="#666666" points="1285.5,-140 1115.5,-140 1115.5,-88 1285.5,-88 1285.5,-140"/>
<text text-anchor="start" x="1123.5" y="-128" font-family="Helvetica,sans-Serif" font-size="10.00">mlir::OpInterface&lt;</text>
<text text-anchor="start" x="1123.5" y="-117" font-family="Helvetica,sans-Serif" font-size="10.00"> ArmSMETileOpInterface,</text>
<text text-anchor="start" x="1123.5" y="-106" font-family="Helvetica,sans-Serif" font-size="10.00"> detail::ArmSMETileOpInterface</text>
<text text-anchor="middle" x="1200.5" y="-95" font-family="Helvetica,sans-Serif" font-size="10.00">InterfaceTraits &gt;</text>
</a>
</g>
</g>
<!-- Node5&#45;&gt;Node6 -->
<g id="edge5_Node000005_Node000006" class="edge">
<title>Node5&#45;&gt;Node6</title>
<g id="a_edge5_Node000005_Node000006"><a xlink:title=" ">
<path fill="none" stroke="orange" stroke-dasharray="5,2" d="M888.95,-93.27C945.65,-95.94 1025.81,-100.08 1096,-105 1102.3,-105.44 1108.81,-105.93 1115.35,-106.45"/>
<polygon fill="orange" stroke="orange" points="888.8,-89.76 878.65,-92.79 888.48,-96.75 888.8,-89.76"/>
</a>
</g>
<text text-anchor="start" x="933" y="-140.5" font-family="Helvetica,sans-Serif" font-size="10.00" fill="grey">&lt; ArmSMETileOpInterface,</text>
<text text-anchor="start" x="933" y="-125.5" font-family="Helvetica,sans-Serif" font-size="10.00" fill="grey">   detail::ArmSMETileOpInterface</text>
<text text-anchor="start" x="933" y="-110.5" font-family="Helvetica,sans-Serif" font-size="10.00" fill="grey">  InterfaceTraits &gt;</text>
</g>
<!-- Node8 -->
<g id="Node000008" class="node">
<title>Node8</title>
<g id="a_Node000008"><a xlink:href="classmlir_1_1OpInterface.html" target="_top" xlink:title=" ">
<polygon fill="white" stroke="#666666" points="1287,-58.5 1114,-58.5 1114,-17.5 1287,-17.5 1287,-58.5"/>
<text text-anchor="start" x="1122" y="-46.5" font-family="Helvetica,sans-Serif" font-size="10.00">mlir::OpInterface&lt;</text>
<text text-anchor="start" x="1122" y="-35.5" font-family="Helvetica,sans-Serif" font-size="10.00"> TosaOp, detail::TosaOpInterface</text>
<text text-anchor="middle" x="1200.5" y="-24.5" font-family="Helvetica,sans-Serif" font-size="10.00">Traits &gt;</text>
</a>
</g>
</g>
<!-- Node5&#45;&gt;Node8 -->
<g id="edge7_Node000005_Node000008" class="edge">
<title>Node5&#45;&gt;Node8</title>
<g id="a_edge7_Node000005_Node000008"><a xlink:title=" ">
<path fill="none" stroke="orange" stroke-dasharray="5,2" d="M875.09,-72.22C892.65,-67.6 911.98,-63.06 930,-60 990.97,-49.64 1060.57,-44.12 1113.76,-41.19"/>
<polygon fill="orange" stroke="orange" points="873.72,-68.97 864.97,-74.94 875.54,-75.73 873.72,-68.97"/>
</a>
</g>
<text text-anchor="start" x="952" y="-81" font-family="Helvetica,sans-Serif" font-size="10.00" fill="grey">&lt; TosaOp, detail::TosaOp</text>
<text text-anchor="start" x="952" y="-66" font-family="Helvetica,sans-Serif" font-size="10.00" fill="grey">  InterfaceTraits &gt;</text>
</g>
<!-- Node7 -->
<g id="Node000007" class="node">
<title>Node7</title>
<g id="a_Node000007"><a xlink:href="classmlir_1_1arm__sme_1_1ArmSMETileOpInterface.html" target="_top" xlink:title=" ">
<polygon fill="white" stroke="#666666" points="1477,-129 1324,-129 1324,-99 1477,-99 1477,-129"/>
<text text-anchor="start" x="1332" y="-117" font-family="Helvetica,sans-Serif" font-size="10.00">mlir::arm_sme::ArmSMETile</text>
<text text-anchor="middle" x="1400.5" y="-106" font-family="Helvetica,sans-Serif" font-size="10.00">OpInterface</text>
</a>
</g>
</g>
<!-- Node6&#45;&gt;Node7 -->
<g id="edge6_Node000006_Node000007" class="edge">
<title>Node6&#45;&gt;Node7</title>
<g id="a_edge6_Node000006_Node000007"><a xlink:title=" ">
<path fill="none" stroke="#63b8ff" d="M1295.88,-114C1305.23,-114 1314.65,-114 1323.78,-114"/>
<polygon fill="#63b8ff" stroke="#63b8ff" points="1295.76,-110.5 1285.76,-114 1295.76,-117.5 1295.76,-110.5"/>
</a>
</g>
</g>
<!-- Node9 -->
<g id="Node000009" class="node">
<title>Node9</title>
<g id="a_Node000009"><a xlink:href="classmlir_1_1tosa_1_1TosaOp.html" target="_top" xlink:title=" ">
<polygon fill="white" stroke="#666666" points="1452.5,-47.5 1348.5,-47.5 1348.5,-28.5 1452.5,-28.5 1452.5,-47.5"/>
<text text-anchor="middle" x="1400.5" y="-35.5" font-family="Helvetica,sans-Serif" font-size="10.00">mlir::tosa::TosaOp</text>
</a>
</g>
</g>
<!-- Node8&#45;&gt;Node9 -->
<g id="edge8_Node000008_Node000009" class="edge">
<title>Node8&#45;&gt;Node9</title>
<g id="a_edge8_Node000008_Node000009"><a xlink:title=" ">
<path fill="none" stroke="#63b8ff" d="M1297.48,-38C1315,-38 1332.65,-38 1348.22,-38"/>
<polygon fill="#63b8ff" stroke="#63b8ff" points="1297.19,-34.5 1287.19,-38 1297.19,-41.5 1297.19,-34.5"/>
</a>
</g>
</g>
<!-- Node11 -->
<g id="Node000011" class="node">
<title>Node11</title>
<g id="a_Node000011"><a xlink:href="classmlir_1_1detail_1_1Interface.html" target="_top" xlink:title=" ">
<polygon fill="white" stroke="#666666" points="912,-200 716,-200 716,-126 912,-126 912,-200"/>
<text text-anchor="start" x="724" y="-188" font-family="Helvetica,sans-Serif" font-size="10.00">mlir::detail::Interface</text>
<text text-anchor="start" x="724" y="-177" font-family="Helvetica,sans-Serif" font-size="10.00">&lt; ArmSMETileOpInterface,</text>
<text text-anchor="start" x="724" y="-166" font-family="Helvetica,sans-Serif" font-size="10.00"> Operation *, detail::ArmSMETile</text>
<text text-anchor="start" x="724" y="-155" font-family="Helvetica,sans-Serif" font-size="10.00">OpInterfaceInterfaceTraits, Op</text>
<text text-anchor="start" x="724" y="-144" font-family="Helvetica,sans-Serif" font-size="10.00">&lt; ArmSMETileOpInterface &gt;, OpTrait</text>
<text text-anchor="middle" x="814" y="-133" font-family="Helvetica,sans-Serif" font-size="10.00">::TraitBase &gt;</text>
</a>
</g>
</g>
<!-- Node10&#45;&gt;Node11 -->
<g id="edge10_Node000010_Node000011" class="edge">
<title>Node10&#45;&gt;Node11</title>
<g id="a_edge10_Node000010_Node000011"><a xlink:title=" ">
<path fill="none" stroke="#63b8ff" d="M689.44,-157.63C698.2,-158.01 707.02,-158.39 715.7,-158.77"/>
<polygon fill="#63b8ff" stroke="#63b8ff" points="689.35,-154.12 679.21,-157.18 689.05,-161.11 689.35,-154.12"/>
</a>
</g>
</g>
<!-- Node11&#45;&gt;Node6 -->
<g id="edge11_Node000011_Node000006" class="edge">
<title>Node11&#45;&gt;Node6</title>
<g id="a_edge11_Node000011_Node000006"><a xlink:title=" ">
<path fill="none" stroke="#63b8ff" d="M922.17,-166.61C974.97,-166.42 1039.31,-163.23 1096,-152 1109.99,-149.23 1124.6,-144.85 1138.29,-140.04"/>
<polygon fill="#63b8ff" stroke="#63b8ff" points="922.11,-163.11 912.11,-166.62 922.11,-170.11 922.11,-163.11"/>
</a>
</g>
</g>
<!-- Node13 -->
<g id="Node000013" class="node">
<title>Node13</title>
<g id="a_Node000013"><a xlink:href="classmlir_1_1detail_1_1Interface.html" target="_top" xlink:title=" ">
<polygon fill="white" stroke="#666666" points="911,-52 717,-52 717,0 911,0 911,-52"/>
<text text-anchor="start" x="725" y="-40" font-family="Helvetica,sans-Serif" font-size="10.00">mlir::detail::Interface</text>
<text text-anchor="start" x="725" y="-29" font-family="Helvetica,sans-Serif" font-size="10.00">&lt; TosaOp, Operation *,</text>
<text text-anchor="start" x="725" y="-18" font-family="Helvetica,sans-Serif" font-size="10.00"> detail::TosaOpInterfaceTraits,</text>
<text text-anchor="middle" x="814" y="-7" font-family="Helvetica,sans-Serif" font-size="10.00"> Op&lt; TosaOp &gt;, OpTrait::TraitBase &gt;</text>
</a>
</g>
</g>
<!-- Node12&#45;&gt;Node13 -->
<g id="edge13_Node000012_Node000013" class="edge">
<title>Node12&#45;&gt;Node13</title>
<g id="a_edge13_Node000012_Node000013"><a xlink:title=" ">
<path fill="none" stroke="#63b8ff" d="M648.86,-30.28C670.08,-29.73 694.06,-29.1 716.99,-28.5"/>
<polygon fill="#63b8ff" stroke="#63b8ff" points="648.58,-26.79 638.68,-30.55 648.76,-33.79 648.58,-26.79"/>
</a>
</g>
</g>
<!-- Node13&#45;&gt;Node8 -->
<g id="edge14_Node000013_Node000008" class="edge">
<title>Node13&#45;&gt;Node8</title>
<g id="a_edge14_Node000013_Node000008"><a xlink:title=" ">
<path fill="none" stroke="#63b8ff" d="M921.3,-25.94C973.89,-26.31 1038.31,-27.36 1096,-30 1101.85,-30.27 1107.88,-30.6 1113.96,-30.97"/>
<polygon fill="#63b8ff" stroke="#63b8ff" points="921.31,-22.44 911.28,-25.87 921.26,-29.44 921.31,-22.44"/>
</a>
</g>
</g>
</g>
</svg>
