<?xml version="1.0" encoding="UTF-8" standalone="no"?>
<!DOCTYPE svg PUBLIC "-//W3C//DTD SVG 1.1//EN"
 "http://www.w3.org/Graphics/SVG/1.1/DTD/svg11.dtd">
<!-- Generated by graphviz version 2.43.0 (0)
 -->
<!-- Title: mlir::AnalysisState Pages: 1 -->
<svg width="1007pt" height="220pt"
 viewBox="0.00 0.00 1007.00 220.00" xmlns="http://www.w3.org/2000/svg" xmlns:xlink="http://www.w3.org/1999/xlink">
<g id="graph0" class="graph" transform="scale(1 1) rotate(0) translate(4 216)">
<title>mlir::AnalysisState</title>
<!-- Node1 -->
<g id="Node000001" class="node">
<title>Node1</title>
<g id="a_Node000001"><a xlink:title="Base class for generic analysis states.">
<polygon fill="#999999" stroke="#666666" points="109,-110.5 0,-110.5 0,-91.5 109,-91.5 109,-110.5"/>
<text text-anchor="middle" x="54.5" y="-98.5" font-family="Helvetica,sans-Serif" font-size="10.00">mlir::AnalysisState</text>
</a>
</g>
</g>
<!-- Node2 -->
<g id="Node000002" class="node">
<title>Node2</title>
<g id="a_Node000002"><a xlink:href="classmlir_1_1bufferization_1_1OneShotAnalysisState.html" target="_top" xlink:title="State for analysis&#45;enabled bufferization.">
<polygon fill="white" stroke="#666666" points="286,-212 155,-212 155,-182 286,-182 286,-212"/>
<text text-anchor="start" x="163" y="-200" font-family="Helvetica,sans-Serif" font-size="10.00">mlir::bufferization</text>
<text text-anchor="middle" x="220.5" y="-189" font-family="Helvetica,sans-Serif" font-size="10.00">::OneShotAnalysisState</text>
</a>
</g>
</g>
<!-- Node1&#45;&gt;Node2 -->
<g id="edge1_Node000001_Node000002" class="edge">
<title>Node1&#45;&gt;Node2</title>
<g id="a_edge1_Node000001_Node000002"><a xlink:title=" ">
<path fill="none" stroke="#63b8ff" d="M72.81,-117.93C90.1,-134.02 118.05,-157.95 146,-173 152.15,-176.31 158.83,-179.26 165.57,-181.87"/>
<polygon fill="#63b8ff" stroke="#63b8ff" points="74.89,-115.07 65.23,-110.73 70.07,-120.15 74.89,-115.07"/>
</a>
</g>
</g>
<!-- Node3 -->
<g id="Node000003" class="node">
<title>Node3</title>
<g id="a_Node000003"><a xlink:href="classmlir_1_1dataflow_1_1AbstractDenseLattice.html" target="_top" xlink:title="This class represents a dense lattice.">
<polygon fill="white" stroke="#666666" points="285.5,-164 155.5,-164 155.5,-134 285.5,-134 285.5,-164"/>
<text text-anchor="start" x="163.5" y="-152" font-family="Helvetica,sans-Serif" font-size="10.00">mlir::dataflow::Abstract</text>
<text text-anchor="middle" x="220.5" y="-141" font-family="Helvetica,sans-Serif" font-size="10.00">DenseLattice</text>
</a>
</g>
</g>
<!-- Node1&#45;&gt;Node3 -->
<g id="edge2_Node000001_Node000003" class="edge">
<title>Node1&#45;&gt;Node3</title>
<g id="a_edge2_Node000001_Node000003"><a xlink:title=" ">
<path fill="none" stroke="#63b8ff" d="M98.07,-113.46C119.45,-119.72 145.53,-127.35 168.03,-133.94"/>
<polygon fill="#63b8ff" stroke="#63b8ff" points="98.87,-110.05 88.29,-110.6 96.91,-116.77 98.87,-110.05"/>
</a>
</g>
</g>
<!-- Node4 -->
<g id="Node000004" class="node">
<title>Node4</title>
<g id="a_Node000004"><a xlink:href="classmlir_1_1dataflow_1_1AbstractSparseLattice.html" target="_top" xlink:title="This class represents an abstract lattice.">
<polygon fill="white" stroke="#666666" points="285.5,-116 155.5,-116 155.5,-86 285.5,-86 285.5,-116"/>
<text text-anchor="start" x="163.5" y="-104" font-family="Helvetica,sans-Serif" font-size="10.00">mlir::dataflow::Abstract</text>
<text text-anchor="middle" x="220.5" y="-93" font-family="Helvetica,sans-Serif" font-size="10.00">SparseLattice</text>
</a>
</g>
</g>
<!-- Node1&#45;&gt;Node4 -->
<g id="edge3_Node000001_Node000004" class="edge">
<title>Node1&#45;&gt;Node4</title>
<g id="a_edge3_Node000001_Node000004"><a xlink:title=" ">
<path fill="none" stroke="#63b8ff" d="M119.42,-101C131.23,-101 143.58,-101 155.4,-101"/>
<polygon fill="#63b8ff" stroke="#63b8ff" points="119.2,-97.5 109.2,-101 119.2,-104.5 119.2,-97.5"/>
</a>
</g>
</g>
<!-- Node11 -->
<g id="Node000011" class="node">
<title>Node11</title>
<g id="a_Node000011"><a xlink:href="classmlir_1_1dataflow_1_1Executable.html" target="_top" xlink:title="This is a simple analysis state that represents whether the associated lattice anchor (either a block...">
<polygon fill="white" stroke="#666666" points="292,-67.5 149,-67.5 149,-48.5 292,-48.5 292,-67.5"/>
<text text-anchor="middle" x="220.5" y="-55.5" font-family="Helvetica,sans-Serif" font-size="10.00">mlir::dataflow::Executable</text>
</a>
</g>
</g>
<!-- Node1&#45;&gt;Node11 -->
<g id="edge12_Node000001_Node000011" class="edge">
<title>Node1&#45;&gt;Node11</title>
<g id="a_edge12_Node000001_Node000011"><a xlink:title=" ">
<path fill="none" stroke="#63b8ff" d="M100.86,-88.91C115.28,-85.08 131.31,-80.85 146,-77 157.86,-73.9 170.8,-70.54 182.47,-67.52"/>
<polygon fill="#63b8ff" stroke="#63b8ff" points="99.93,-85.54 91.16,-91.49 101.73,-92.3 99.93,-85.54"/>
</a>
</g>
</g>
<!-- Node12 -->
<g id="Node000012" class="node">
<title>Node12</title>
<g id="a_Node000012"><a xlink:href="classmlir_1_1dataflow_1_1PredecessorState.html" target="_top" xlink:title="This analysis state represents a set of live control&#45;flow &quot;predecessors&quot; of a program point (either a...">
<polygon fill="white" stroke="#666666" points="295,-30 146,-30 146,0 295,0 295,-30"/>
<text text-anchor="start" x="154" y="-18" font-family="Helvetica,sans-Serif" font-size="10.00">mlir::dataflow::Predecessor</text>
<text text-anchor="middle" x="220.5" y="-7" font-family="Helvetica,sans-Serif" font-size="10.00">State</text>
</a>
</g>
</g>
<!-- Node1&#45;&gt;Node12 -->
<g id="edge13_Node000001_Node000012" class="edge">
<title>Node1&#45;&gt;Node12</title>
<g id="a_edge13_Node000001_Node000012"><a xlink:title=" ">
<path fill="none" stroke="#63b8ff" d="M75.85,-84.98C93.59,-71.58 120.42,-52.69 146,-40 153.37,-36.35 161.39,-33.01 169.35,-30.06"/>
<polygon fill="#63b8ff" stroke="#63b8ff" points="73.26,-82.55 67.45,-91.42 77.52,-88.11 73.26,-82.55"/>
</a>
</g>
</g>
<!-- Node5 -->
<g id="Node000005" class="node">
<title>Node5</title>
<g id="a_Node000005"><a xlink:href="classmlir_1_1dataflow_1_1Lattice.html" target="_top" xlink:title=" ">
<polygon fill="white" stroke="#666666" points="782,-182 651,-182 651,-152 782,-152 782,-182"/>
<text text-anchor="start" x="659" y="-170" font-family="Helvetica,sans-Serif" font-size="10.00">mlir::dataflow::Lattice</text>
<text text-anchor="middle" x="716.5" y="-159" font-family="Helvetica,sans-Serif" font-size="10.00">&lt; IntegerValueRange &gt;</text>
</a>
</g>
</g>
<!-- Node4&#45;&gt;Node5 -->
<g id="edge4_Node000004_Node000005" class="edge">
<title>Node4&#45;&gt;Node5</title>
<g id="a_edge4_Node000004_Node000005"><a xlink:title=" ">
<path fill="none" stroke="#63b8ff" d="M283.43,-119.72C287.4,-121.38 291.29,-123.14 295,-125 312.97,-134 313.38,-143.44 332,-151 437.27,-193.73 572.43,-186.64 650.97,-177.14"/>
<polygon fill="#63b8ff" stroke="#63b8ff" points="284.66,-116.45 274.07,-116.04 282.09,-122.96 284.66,-116.45"/>
</a>
</g>
</g>
<!-- Node7 -->
<g id="Node000007" class="node">
<title>Node7</title>
<g id="a_Node000007"><a xlink:href="classmlir_1_1dataflow_1_1Lattice.html" target="_top" xlink:title=" ">
<polygon fill="white" stroke="#666666" points="792,-122 641,-122 641,-92 792,-92 792,-122"/>
<text text-anchor="start" x="649" y="-110" font-family="Helvetica,sans-Serif" font-size="10.00">mlir::dataflow::Lattice</text>
<text text-anchor="middle" x="716.5" y="-99" font-family="Helvetica,sans-Serif" font-size="10.00">&lt; StridedMetadataRange &gt;</text>
</a>
</g>
</g>
<!-- Node4&#45;&gt;Node7 -->
<g id="edge6_Node000004_Node000007" class="edge">
<title>Node4&#45;&gt;Node7</title>
<g id="a_edge6_Node000004_Node000007"><a xlink:title=" ">
<path fill="none" stroke="#63b8ff" d="M295.88,-101.47C343.86,-101.8 407.62,-102.32 464,-103 523.49,-103.72 590.9,-104.81 640.94,-105.66"/>
<polygon fill="#63b8ff" stroke="#63b8ff" points="295.6,-97.96 285.58,-101.39 295.55,-104.96 295.6,-97.96"/>
</a>
</g>
</g>
<!-- Node9 -->
<g id="Node000009" class="node">
<title>Node9</title>
<g id="a_Node000009"><a xlink:href="classmlir_1_1dataflow_1_1Lattice.html" target="_top" xlink:title="This class represents a lattice holding a specific value of type ValueT.">
<polygon fill="white" stroke="#666666" points="459,-142 337,-142 337,-112 459,-112 459,-142"/>
<text text-anchor="start" x="345" y="-130" font-family="Helvetica,sans-Serif" font-size="10.00">mlir::dataflow::Lattice</text>
<text text-anchor="middle" x="398" y="-119" font-family="Helvetica,sans-Serif" font-size="10.00">&lt; ValueT &gt;</text>
</a>
</g>
</g>
<!-- Node4&#45;&gt;Node9 -->
<g id="edge8_Node000004_Node000009" class="edge">
<title>Node4&#45;&gt;Node9</title>
<g id="a_edge8_Node000004_Node000009"><a xlink:title=" ">
<path fill="none" stroke="#63b8ff" d="M296.12,-112.05C309.67,-114.06 323.66,-116.13 336.74,-118.07"/>
<polygon fill="#63b8ff" stroke="#63b8ff" points="296.26,-108.54 285.85,-110.53 295.23,-115.46 296.26,-108.54"/>
</a>
</g>
</g>
<!-- Node10 -->
<g id="Node000010" class="node">
<title>Node10</title>
<g id="a_Node000010"><a xlink:href="structmlir_1_1dataflow_1_1Liveness.html" target="_top" xlink:title="This lattice represents, for a given value, whether or not it is &quot;live&quot;.">
<polygon fill="white" stroke="#666666" points="464,-55.5 332,-55.5 332,-36.5 464,-36.5 464,-55.5"/>
<text text-anchor="middle" x="398" y="-43.5" font-family="Helvetica,sans-Serif" font-size="10.00">mlir::dataflow::Liveness</text>
</a>
</g>
</g>
<!-- Node4&#45;&gt;Node10 -->
<g id="edge11_Node000004_Node000010" class="edge">
<title>Node4&#45;&gt;Node10</title>
<g id="a_edge11_Node000004_Node000010"><a xlink:title=" ">
<path fill="none" stroke="#63b8ff" d="M278.88,-82.6C284.34,-80.75 289.79,-78.86 295,-77 303.08,-74.11 304.86,-72.74 313,-70 328.52,-64.78 345.9,-59.69 360.8,-55.55"/>
<polygon fill="#63b8ff" stroke="#63b8ff" points="277.45,-79.39 269.08,-85.89 279.67,-86.03 277.45,-79.39"/>
</a>
</g>
</g>
<!-- Node6 -->
<g id="Node000006" class="node">
<title>Node6</title>
<g id="a_Node000006"><a xlink:href="classmlir_1_1dataflow_1_1IntegerValueRangeLattice.html" target="_top" xlink:title="This lattice element represents the integer value range of an SSA value.">
<polygon fill="white" stroke="#666666" points="989.5,-182 838.5,-182 838.5,-152 989.5,-152 989.5,-182"/>
<text text-anchor="start" x="846.5" y="-170" font-family="Helvetica,sans-Serif" font-size="10.00">mlir::dataflow::IntegerValue</text>
<text text-anchor="middle" x="914" y="-159" font-family="Helvetica,sans-Serif" font-size="10.00">RangeLattice</text>
</a>
</g>
</g>
<!-- Node5&#45;&gt;Node6 -->
<g id="edge5_Node000005_Node000006" class="edge">
<title>Node5&#45;&gt;Node6</title>
<g id="a_edge5_Node000005_Node000006"><a xlink:title=" ">
<path fill="none" stroke="#63b8ff" d="M792.35,-167C807.43,-167 823.28,-167 838.35,-167"/>
<polygon fill="#63b8ff" stroke="#63b8ff" points="792.06,-163.5 782.06,-167 792.06,-170.5 792.06,-163.5"/>
</a>
</g>
</g>
<!-- Node8 -->
<g id="Node000008" class="node">
<title>Node8</title>
<g id="a_Node000008"><a xlink:href="classmlir_1_1dataflow_1_1StridedMetadataRangeLattice.html" target="_top" xlink:title="This lattice element represents the strided metadata of an SSA value.">
<polygon fill="white" stroke="#666666" points="999,-122 829,-122 829,-92 999,-92 999,-122"/>
<text text-anchor="start" x="837" y="-110" font-family="Helvetica,sans-Serif" font-size="10.00">mlir::dataflow::StridedMetadata</text>
<text text-anchor="middle" x="914" y="-99" font-family="Helvetica,sans-Serif" font-size="10.00">RangeLattice</text>
</a>
</g>
</g>
<!-- Node7&#45;&gt;Node8 -->
<g id="edge7_Node000007_Node000008" class="edge">
<title>Node7&#45;&gt;Node8</title>
<g id="a_edge7_Node000007_Node000008"><a xlink:title=" ">
<path fill="none" stroke="#63b8ff" d="M802.44,-107C811.19,-107 820.09,-107 828.83,-107"/>
<polygon fill="#63b8ff" stroke="#63b8ff" points="802.25,-103.5 792.25,-107 802.25,-110.5 802.25,-103.5"/>
</a>
</g>
</g>
<!-- Node9&#45;&gt;Node5 -->
<g id="edge9_Node000009_Node000005" class="edge">
<title>Node9&#45;&gt;Node5</title>
<g id="a_edge9_Node000009_Node000005"><a xlink:title=" ">
<path fill="none" stroke="orange" stroke-dasharray="5,2" d="M469.5,-135.91C523.74,-142.77 598.1,-152.16 650.82,-158.83"/>
<polygon fill="orange" stroke="orange" points="469.64,-132.4 459.28,-134.62 468.76,-139.34 469.64,-132.4"/>
</a>
</g>
<text text-anchor="start" x="495.5" y="-160.5" font-family="Helvetica,sans-Serif" font-size="10.00" fill="grey">&lt; IntegerValueRange &gt;</text>
</g>
<!-- Node9&#45;&gt;Node7 -->
<g id="edge10_Node000009_Node000007" class="edge">
<title>Node9&#45;&gt;Node7</title>
<g id="a_edge10_Node000009_Node000007"><a xlink:title=" ">
<path fill="none" stroke="orange" stroke-dasharray="5,2" d="M469.3,-119.08C473.6,-118.69 477.85,-118.32 482,-118 535,-113.88 594.91,-111.1 640.77,-109.36"/>
<polygon fill="orange" stroke="orange" points="468.88,-115.6 459.25,-120.03 469.54,-122.57 468.88,-115.6"/>
</a>
</g>
<text text-anchor="start" x="485.5" y="-123.5" font-family="Helvetica,sans-Serif" font-size="10.00" fill="grey">&lt; StridedMetadataRange &gt;</text>
</g>
</g>
</svg>
