<?xml version="1.0" encoding="UTF-8" standalone="no"?>
<!DOCTYPE svg PUBLIC "-//W3C//DTD SVG 1.1//EN"
 "http://www.w3.org/Graphics/SVG/1.1/DTD/svg11.dtd">
<!-- Generated by graphviz version 2.43.0 (0)
 -->
<!-- Title: mlir::AsmPrinter Pages: 1 -->
<svg width="268pt" height="84pt"
 viewBox="0.00 0.00 267.50 84.00" xmlns="http://www.w3.org/2000/svg" xmlns:xlink="http://www.w3.org/1999/xlink">
<g id="graph0" class="graph" transform="scale(1 1) rotate(0) translate(4 80)">
<title>mlir::AsmPrinter</title>
<!-- Node1 -->
<g id="node1" class="node">
<title>Node1</title>
<g id="a_node1"><a xlink:title="This base class exposes generic asm printer hooks, usable across the various derived printers.">
<polygon fill="#bfbfbf" stroke="black" points="86.5,-56.5 86.5,-75.5 182.5,-75.5 182.5,-56.5 86.5,-56.5"/>
<text text-anchor="middle" x="134.5" y="-63.5" font-family="Helvetica,sans-Serif" font-size="10.00">mlir::AsmPrinter</text>
</a>
</g>
</g>
<!-- Node2 -->
<g id="node2" class="node">
<title>Node2</title>
<g id="a_node2"><a xlink:href="classmlir_1_1DialectAsmPrinter.html" target="_top" xlink:title="This is a pure&#45;virtual base class that exposes the asmprinter hooks necessary to implement a custom p...">
<polygon fill="none" stroke="black" points="0,-0.5 0,-19.5 131,-19.5 131,-0.5 0,-0.5"/>
<text text-anchor="middle" x="65.5" y="-7.5" font-family="Helvetica,sans-Serif" font-size="10.00">mlir::DialectAsmPrinter</text>
</a>
</g>
</g>
<!-- Node1&#45;&gt;Node2 -->
<g id="edge1" class="edge">
<title>Node1&#45;&gt;Node2</title>
<path fill="none" stroke="midnightblue" d="M115.46,-50.1C103.04,-40.38 87.26,-28.03 76.79,-19.83"/>
<polygon fill="midnightblue" stroke="midnightblue" points="113.38,-52.92 123.41,-56.32 117.7,-47.4 113.38,-52.92"/>
</g>
<!-- Node3 -->
<g id="node3" class="node">
<title>Node3</title>
<g id="a_node3"><a xlink:href="classmlir_1_1OpAsmPrinter.html" target="_top" xlink:title="This is a pure&#45;virtual base class that exposes the asmprinter hooks necessary to implement a custom p...">
<polygon fill="none" stroke="black" points="149.5,-0.5 149.5,-19.5 259.5,-19.5 259.5,-0.5 149.5,-0.5"/>
<text text-anchor="middle" x="204.5" y="-7.5" font-family="Helvetica,sans-Serif" font-size="10.00">mlir::OpAsmPrinter</text>
</a>
</g>
</g>
<!-- Node1&#45;&gt;Node3 -->
<g id="edge2" class="edge">
<title>Node1&#45;&gt;Node3</title>
<path fill="none" stroke="midnightblue" d="M153.81,-50.1C166.41,-40.38 182.43,-28.03 193.05,-19.83"/>
<polygon fill="midnightblue" stroke="midnightblue" points="151.53,-47.44 145.75,-56.32 155.8,-52.99 151.53,-47.44"/>
</g>
</g>
</svg>
