<?xml version="1.0" encoding="UTF-8" standalone="no"?>
<!DOCTYPE svg PUBLIC "-//W3C//DTD SVG 1.1//EN"
 "http://www.w3.org/Graphics/SVG/1.1/DTD/svg11.dtd">
<!-- Generated by graphviz version 2.43.0 (0)
 -->
<!-- Title: mlir::OpTrait::AtLeastNRegions&lt; N &gt;::Impl&lt; ConcreteType &gt; Pages: 1 -->
<svg width="947pt" height="83pt"
 viewBox="0.00 0.00 947.00 82.50" xmlns="http://www.w3.org/2000/svg" xmlns:xlink="http://www.w3.org/1999/xlink">
<g id="graph0" class="graph" transform="scale(1 1) rotate(0) translate(4 78.5)">
<title>mlir::OpTrait::AtLeastNRegions&lt; N &gt;::Impl&lt; ConcreteType &gt;</title>
<!-- Node1 -->
<g id="node1" class="node">
<title>Node1</title>
<g id="a_node1"><a xlink:title=" ">
<polygon fill="#bfbfbf" stroke="black" points="773,-33 773,-63 939,-63 939,-33 773,-33"/>
<text text-anchor="start" x="781" y="-51" font-family="Helvetica,sans-Serif" font-size="10.00">mlir::OpTrait::AtLeastNRegions</text>
<text text-anchor="middle" x="856" y="-40" font-family="Helvetica,sans-Serif" font-size="10.00">&lt; N &gt;::Impl&lt; ConcreteType &gt;</text>
</a>
</g>
</g>
<!-- Node2 -->
<g id="node2" class="node">
<title>Node2</title>
<g id="a_node2"><a xlink:href="structmlir_1_1OpTrait_1_1detail_1_1MultiRegionTraitBase.html" target="_top" xlink:title=" ">
<polygon fill="none" stroke="black" points="553,-22 553,-74 736,-74 736,-22 553,-22"/>
<text text-anchor="start" x="561" y="-62" font-family="Helvetica,sans-Serif" font-size="10.00">mlir::OpTrait::detail</text>
<text text-anchor="start" x="561" y="-51" font-family="Helvetica,sans-Serif" font-size="10.00">::MultiRegionTraitBase</text>
<text text-anchor="start" x="561" y="-40" font-family="Helvetica,sans-Serif" font-size="10.00">&lt; ConcreteType, AtLeastNRegions</text>
<text text-anchor="middle" x="644.5" y="-29" font-family="Helvetica,sans-Serif" font-size="10.00">&lt; N &gt;::Impl &gt;</text>
</a>
</g>
</g>
<!-- Node2&#45;&gt;Node1 -->
<g id="edge1" class="edge">
<title>Node2&#45;&gt;Node1</title>
<path fill="none" stroke="midnightblue" d="M746.19,-48C755.1,-48 764.04,-48 772.77,-48"/>
<polygon fill="midnightblue" stroke="midnightblue" points="746.17,-44.5 736.17,-48 746.17,-51.5 746.17,-44.5"/>
</g>
<!-- Node3 -->
<g id="node3" class="node">
<title>Node3</title>
<g id="a_node3"><a xlink:href="classmlir_1_1OpTrait_1_1TraitBase.html" target="_top" xlink:title="Helper class for implementing traits.">
<polygon fill="none" stroke="black" points="0,-30 0,-60 155,-60 155,-30 0,-30"/>
<text text-anchor="start" x="8" y="-48" font-family="Helvetica,sans-Serif" font-size="10.00">mlir::OpTrait::TraitBase</text>
<text text-anchor="middle" x="77.5" y="-37" font-family="Helvetica,sans-Serif" font-size="10.00">&lt; ConcreteType, TraitType &gt;</text>
</a>
</g>
</g>
<!-- Node3&#45;&gt;Node2 -->
<g id="edge2" class="edge">
<title>Node3&#45;&gt;Node2</title>
<path fill="none" stroke="midnightblue" d="M165.27,-49.8C174.3,-50.24 183.33,-50.65 192,-51 344.33,-57.23 382.64,-61.61 535,-56 540.85,-55.78 546.88,-55.5 552.95,-55.18"/>
<polygon fill="midnightblue" stroke="midnightblue" points="165.27,-46.3 155.11,-49.3 164.93,-53.29 165.27,-46.3"/>
</g>
<!-- Node4 -->
<g id="node4" class="node">
<title>Node4</title>
<g id="a_node4"><a xlink:href="structmlir_1_1OpTrait_1_1detail_1_1MultiRegionTraitBase.html" target="_top" xlink:title="Utility trait base that provides accessors for derived traits that have multiple regions.">
<polygon fill="none" stroke="black" points="192,-0.5 192,-41.5 347,-41.5 347,-0.5 192,-0.5"/>
<text text-anchor="start" x="200" y="-29.5" font-family="Helvetica,sans-Serif" font-size="10.00">mlir::OpTrait::detail</text>
<text text-anchor="start" x="200" y="-18.5" font-family="Helvetica,sans-Serif" font-size="10.00">::MultiRegionTraitBase</text>
<text text-anchor="middle" x="269.5" y="-7.5" font-family="Helvetica,sans-Serif" font-size="10.00">&lt; ConcreteType, TraitType &gt;</text>
</a>
</g>
</g>
<!-- Node3&#45;&gt;Node4 -->
<g id="edge4" class="edge">
<title>Node3&#45;&gt;Node4</title>
<path fill="none" stroke="midnightblue" d="M165.19,-34.05C174.06,-32.93 183.04,-31.8 191.79,-30.69"/>
<polygon fill="midnightblue" stroke="midnightblue" points="164.72,-30.58 155.23,-35.31 165.59,-37.53 164.72,-30.58"/>
</g>
<!-- Node4&#45;&gt;Node2 -->
<g id="edge3" class="edge">
<title>Node4&#45;&gt;Node2</title>
<path fill="none" stroke="orange" stroke-dasharray="5,2" d="M357.13,-23.53C408.84,-25.47 475.75,-28.73 535,-34 540.86,-34.52 546.9,-35.12 552.98,-35.78"/>
<polygon fill="orange" stroke="orange" points="357.12,-20.02 347,-23.16 356.87,-27.02 357.12,-20.02"/>
<text text-anchor="start" x="365" y="-48" font-family="Helvetica,sans-Serif" font-size="10.00"> &lt; ConcreteType, AtLeastNRegions</text>
<text text-anchor="middle" x="450" y="-37" font-family="Helvetica,sans-Serif" font-size="10.00">&lt; N &gt;::Impl &gt;</text>
</g>
</g>
</svg>
