<?xml version="1.0" encoding="UTF-8" standalone="no"?>
<!DOCTYPE svg PUBLIC "-//W3C//DTD SVG 1.1//EN"
 "http://www.w3.org/Graphics/SVG/1.1/DTD/svg11.dtd">
<!-- Generated by graphviz version 2.43.0 (0)
 -->
<!-- Title: mlir::python::MLIR_BINDINGS_PYTHON_DOMAIN::PyConcreteLocation&lt; DerivedTy, BaseTy &gt; Pages: 1 -->
<svg width="1186pt" height="319pt"
 viewBox="0.00 0.00 1186.00 319.00" xmlns="http://www.w3.org/2000/svg" xmlns:xlink="http://www.w3.org/1999/xlink">
<g id="graph0" class="graph" transform="scale(1 1) rotate(0) translate(4 315)">
<title>mlir::python::MLIR_BINDINGS_PYTHON_DOMAIN::PyConcreteLocation&lt; DerivedTy, BaseTy &gt;</title>
<!-- Node1 -->
<g id="Node000001" class="node">
<title>Node1</title>
<g id="a_Node000001"><a xlink:title="CRTP base class for Python classes that subclass Location and should be castable from it (i....">
<polygon fill="#999999" stroke="#666666" points="582,-176 400,-176 400,-124 582,-124 582,-176"/>
<text text-anchor="start" x="408" y="-164" font-family="Helvetica,sans-Serif" font-size="10.00">mlir::python::MLIR</text>
<text text-anchor="start" x="408" y="-153" font-family="Helvetica,sans-Serif" font-size="10.00">_BINDINGS_PYTHON_DOMAIN</text>
<text text-anchor="start" x="408" y="-142" font-family="Helvetica,sans-Serif" font-size="10.00">::PyConcreteLocation&lt; DerivedTy,</text>
<text text-anchor="middle" x="491" y="-131" font-family="Helvetica,sans-Serif" font-size="10.00"> BaseTy &gt;</text>
</a>
</g>
</g>
<!-- Node4 -->
<g id="Node000004" class="node">
<title>Node4</title>
<g id="a_Node000004"><a xlink:href="classmlir_1_1python_1_1MLIR__BINDINGS__PYTHON__DOMAIN_1_1PyConcreteLocation.html" target="_top" xlink:title=" ">
<polygon fill="white" stroke="#666666" points="956,-311 776,-311 776,-259 956,-259 956,-311"/>
<text text-anchor="start" x="784" y="-299" font-family="Helvetica,sans-Serif" font-size="10.00">mlir::python::MLIR</text>
<text text-anchor="start" x="784" y="-288" font-family="Helvetica,sans-Serif" font-size="10.00">_BINDINGS_PYTHON_DOMAIN</text>
<text text-anchor="start" x="784" y="-277" font-family="Helvetica,sans-Serif" font-size="10.00">::PyConcreteLocation&lt; PyCallSite</text>
<text text-anchor="middle" x="866" y="-266" font-family="Helvetica,sans-Serif" font-size="10.00">Location &gt;</text>
</a>
</g>
</g>
<!-- Node1&#45;&gt;Node4 -->
<g id="edge3_Node000001_Node000004" class="edge">
<title>Node1&#45;&gt;Node4</title>
<g id="a_edge3_Node000001_Node000004"><a xlink:title=" ">
<path fill="none" stroke="orange" stroke-dasharray="5,2" d="M538.67,-181.44C557.18,-192.89 579.02,-205.17 600,-214 656.63,-237.83 723.48,-255.68 775.86,-267.51"/>
<polygon fill="orange" stroke="orange" points="540.48,-178.45 530.15,-176.09 536.75,-184.37 540.48,-178.45"/>
</a>
</g>
<text text-anchor="start" x="611" y="-262.5" font-family="Helvetica,sans-Serif" font-size="10.00" fill="grey">&lt; PyCallSiteLocation &gt;</text>
</g>
<!-- Node6 -->
<g id="Node000006" class="node">
<title>Node6</title>
<g id="a_Node000006"><a xlink:href="classmlir_1_1python_1_1MLIR__BINDINGS__PYTHON__DOMAIN_1_1PyConcreteLocation.html" target="_top" xlink:title=" ">
<polygon fill="white" stroke="#666666" points="956,-241 776,-241 776,-189 956,-189 956,-241"/>
<text text-anchor="start" x="784" y="-229" font-family="Helvetica,sans-Serif" font-size="10.00">mlir::python::MLIR</text>
<text text-anchor="start" x="784" y="-218" font-family="Helvetica,sans-Serif" font-size="10.00">_BINDINGS_PYTHON_DOMAIN</text>
<text text-anchor="start" x="784" y="-207" font-family="Helvetica,sans-Serif" font-size="10.00">::PyConcreteLocation&lt; PyFileLine</text>
<text text-anchor="middle" x="866" y="-196" font-family="Helvetica,sans-Serif" font-size="10.00">ColLocation &gt;</text>
</a>
</g>
</g>
<!-- Node1&#45;&gt;Node6 -->
<g id="edge5_Node000001_Node000006" class="edge">
<title>Node1&#45;&gt;Node6</title>
<g id="a_edge5_Node000001_Node000006"><a xlink:title=" ">
<path fill="none" stroke="orange" stroke-dasharray="5,2" d="M591.98,-169.54C594.68,-170.04 597.36,-170.52 600,-171 658.52,-181.55 724.48,-192.5 775.96,-200.84"/>
<polygon fill="orange" stroke="orange" points="592.6,-166.1 582.13,-167.72 591.32,-172.98 592.6,-166.1"/>
</a>
</g>
<text text-anchor="start" x="603" y="-198.5" font-family="Helvetica,sans-Serif" font-size="10.00" fill="grey">&lt; PyFileLineColLocation &gt;</text>
</g>
<!-- Node8 -->
<g id="Node000008" class="node">
<title>Node8</title>
<g id="a_Node000008"><a xlink:href="classmlir_1_1python_1_1MLIR__BINDINGS__PYTHON__DOMAIN_1_1PyConcreteLocation.html" target="_top" xlink:title=" ">
<polygon fill="white" stroke="#666666" points="978,-170.5 754,-170.5 754,-129.5 978,-129.5 978,-170.5"/>
<text text-anchor="start" x="762" y="-158.5" font-family="Helvetica,sans-Serif" font-size="10.00">mlir::python::MLIR</text>
<text text-anchor="start" x="762" y="-147.5" font-family="Helvetica,sans-Serif" font-size="10.00">_BINDINGS_PYTHON_DOMAIN</text>
<text text-anchor="middle" x="866" y="-136.5" font-family="Helvetica,sans-Serif" font-size="10.00">::PyConcreteLocation&lt; PyFusedLocation &gt;</text>
</a>
</g>
</g>
<!-- Node1&#45;&gt;Node8 -->
<g id="edge7_Node000001_Node000008" class="edge">
<title>Node1&#45;&gt;Node8</title>
<g id="a_edge7_Node000001_Node000008"><a xlink:title=" ">
<path fill="none" stroke="orange" stroke-dasharray="5,2" d="M592.44,-150C642.29,-150 702.65,-150 753.88,-150"/>
<polygon fill="orange" stroke="orange" points="592.29,-146.5 582.29,-150 592.29,-153.5 592.29,-146.5"/>
</a>
</g>
<text text-anchor="start" x="616" y="-155.5" font-family="Helvetica,sans-Serif" font-size="10.00" fill="grey">&lt; PyFusedLocation &gt;</text>
</g>
<!-- Node10 -->
<g id="Node000010" class="node">
<title>Node10</title>
<g id="a_Node000010"><a xlink:href="classmlir_1_1python_1_1MLIR__BINDINGS__PYTHON__DOMAIN_1_1PyConcreteLocation.html" target="_top" xlink:title=" ">
<polygon fill="white" stroke="#666666" points="978,-111.5 754,-111.5 754,-70.5 978,-70.5 978,-111.5"/>
<text text-anchor="start" x="762" y="-99.5" font-family="Helvetica,sans-Serif" font-size="10.00">mlir::python::MLIR</text>
<text text-anchor="start" x="762" y="-88.5" font-family="Helvetica,sans-Serif" font-size="10.00">_BINDINGS_PYTHON_DOMAIN</text>
<text text-anchor="middle" x="866" y="-77.5" font-family="Helvetica,sans-Serif" font-size="10.00">::PyConcreteLocation&lt; PyNameLocation &gt;</text>
</a>
</g>
</g>
<!-- Node1&#45;&gt;Node10 -->
<g id="edge9_Node000001_Node000010" class="edge">
<title>Node1&#45;&gt;Node10</title>
<g id="a_edge9_Node000001_Node000010"><a xlink:title=" ">
<path fill="none" stroke="orange" stroke-dasharray="5,2" d="M591.97,-130.38C594.67,-129.91 597.35,-129.45 600,-129 650.41,-120.49 706.43,-112.28 753.93,-105.68"/>
<polygon fill="orange" stroke="orange" points="591.33,-126.94 582.1,-132.13 592.56,-133.83 591.33,-126.94"/>
</a>
</g>
<text text-anchor="start" x="615" y="-134.5" font-family="Helvetica,sans-Serif" font-size="10.00" fill="grey">&lt; PyNameLocation &gt;</text>
</g>
<!-- Node12 -->
<g id="Node000012" class="node">
<title>Node12</title>
<g id="a_Node000012"><a xlink:href="classmlir_1_1python_1_1MLIR__BINDINGS__PYTHON__DOMAIN_1_1PyConcreteLocation.html" target="_top" xlink:title=" ">
<polygon fill="white" stroke="#666666" points="960,-52 772,-52 772,0 960,0 960,-52"/>
<text text-anchor="start" x="780" y="-40" font-family="Helvetica,sans-Serif" font-size="10.00">mlir::python::MLIR</text>
<text text-anchor="start" x="780" y="-29" font-family="Helvetica,sans-Serif" font-size="10.00">_BINDINGS_PYTHON_DOMAIN</text>
<text text-anchor="start" x="780" y="-18" font-family="Helvetica,sans-Serif" font-size="10.00">::PyConcreteLocation&lt; PyUnknown</text>
<text text-anchor="middle" x="866" y="-7" font-family="Helvetica,sans-Serif" font-size="10.00">Location &gt;</text>
</a>
</g>
</g>
<!-- Node1&#45;&gt;Node12 -->
<g id="edge11_Node000001_Node000012" class="edge">
<title>Node1&#45;&gt;Node12</title>
<g id="a_edge11_Node000001_Node000012"><a xlink:title=" ">
<path fill="none" stroke="orange" stroke-dasharray="5,2" d="M540.58,-118.72C558.68,-108.11 579.76,-96.94 600,-89 655.36,-67.29 720.27,-51.7 772,-41.47"/>
<polygon fill="orange" stroke="orange" points="538.74,-115.74 531.95,-123.87 542.33,-121.75 538.74,-115.74"/>
</a>
</g>
<text text-anchor="start" x="607" y="-94.5" font-family="Helvetica,sans-Serif" font-size="10.00" fill="grey">&lt; PyUnknownLocation &gt;</text>
</g>
<!-- Node2 -->
<g id="Node000002" class="node">
<title>Node2</title>
<g id="a_Node000002"><a xlink:href="classmlir_1_1python_1_1MLIR__BINDINGS__PYTHON__DOMAIN_1_1PyLocation.html" target="_top" xlink:title="Wrapper around an MlirLocation.">
<polygon fill="white" stroke="#666666" points="363,-170.5 200,-170.5 200,-129.5 363,-129.5 363,-170.5"/>
<text text-anchor="start" x="208" y="-158.5" font-family="Helvetica,sans-Serif" font-size="10.00">mlir::python::MLIR</text>
<text text-anchor="start" x="208" y="-147.5" font-family="Helvetica,sans-Serif" font-size="10.00">_BINDINGS_PYTHON_DOMAIN</text>
<text text-anchor="middle" x="281.5" y="-136.5" font-family="Helvetica,sans-Serif" font-size="10.00">::PyLocation</text>
</a>
</g>
</g>
<!-- Node2&#45;&gt;Node1 -->
<g id="edge1_Node000001_Node000002" class="edge">
<title>Node2&#45;&gt;Node1</title>
<g id="a_edge1_Node000001_Node000002"><a xlink:title=" ">
<path fill="none" stroke="#63b8ff" d="M373.3,-150C382.12,-150 391.06,-150 399.88,-150"/>
<polygon fill="#63b8ff" stroke="#63b8ff" points="373.02,-146.5 363.02,-150 373.02,-153.5 373.02,-146.5"/>
</a>
</g>
</g>
<!-- Node3 -->
<g id="Node000003" class="node">
<title>Node3</title>
<g id="a_Node000003"><a xlink:href="classmlir_1_1python_1_1MLIR__BINDINGS__PYTHON__DOMAIN_1_1BaseContextObject.html" target="_top" xlink:title="Base class for all objects that directly or indirectly depend on an MlirContext.">
<polygon fill="white" stroke="#666666" points="163,-170.5 0,-170.5 0,-129.5 163,-129.5 163,-170.5"/>
<text text-anchor="start" x="8" y="-158.5" font-family="Helvetica,sans-Serif" font-size="10.00">mlir::python::MLIR</text>
<text text-anchor="start" x="8" y="-147.5" font-family="Helvetica,sans-Serif" font-size="10.00">_BINDINGS_PYTHON_DOMAIN</text>
<text text-anchor="middle" x="81.5" y="-136.5" font-family="Helvetica,sans-Serif" font-size="10.00">::BaseContextObject</text>
</a>
</g>
</g>
<!-- Node3&#45;&gt;Node2 -->
<g id="edge2_Node000002_Node000003" class="edge">
<title>Node3&#45;&gt;Node2</title>
<g id="a_edge2_Node000002_Node000003"><a xlink:title=" ">
<path fill="none" stroke="#63b8ff" d="M173.32,-150C182.12,-150 191.02,-150 199.72,-150"/>
<polygon fill="#63b8ff" stroke="#63b8ff" points="173.03,-146.5 163.03,-150 173.03,-153.5 173.03,-146.5"/>
</a>
</g>
</g>
<!-- Node5 -->
<g id="Node000005" class="node">
<title>Node5</title>
<g id="a_Node000005"><a xlink:href="classmlir_1_1python_1_1MLIR__BINDINGS__PYTHON__DOMAIN_1_1PyCallSiteLocation.html" target="_top" xlink:title=" ">
<polygon fill="white" stroke="#666666" points="1178,-305.5 1015,-305.5 1015,-264.5 1178,-264.5 1178,-305.5"/>
<text text-anchor="start" x="1023" y="-293.5" font-family="Helvetica,sans-Serif" font-size="10.00">mlir::python::MLIR</text>
<text text-anchor="start" x="1023" y="-282.5" font-family="Helvetica,sans-Serif" font-size="10.00">_BINDINGS_PYTHON_DOMAIN</text>
<text text-anchor="middle" x="1096.5" y="-271.5" font-family="Helvetica,sans-Serif" font-size="10.00">::PyCallSiteLocation</text>
</a>
</g>
</g>
<!-- Node4&#45;&gt;Node5 -->
<g id="edge4_Node000004_Node000005" class="edge">
<title>Node4&#45;&gt;Node5</title>
<g id="a_edge4_Node000004_Node000005"><a xlink:title=" ">
<path fill="none" stroke="#63b8ff" d="M966.34,-285C982.53,-285 999.13,-285 1014.8,-285"/>
<polygon fill="#63b8ff" stroke="#63b8ff" points="966.33,-281.5 956.33,-285 966.33,-288.5 966.33,-281.5"/>
</a>
</g>
</g>
<!-- Node7 -->
<g id="Node000007" class="node">
<title>Node7</title>
<g id="a_Node000007"><a xlink:href="classmlir_1_1python_1_1MLIR__BINDINGS__PYTHON__DOMAIN_1_1PyFileLineColLocation.html" target="_top" xlink:title=" ">
<polygon fill="white" stroke="#666666" points="1178,-235.5 1015,-235.5 1015,-194.5 1178,-194.5 1178,-235.5"/>
<text text-anchor="start" x="1023" y="-223.5" font-family="Helvetica,sans-Serif" font-size="10.00">mlir::python::MLIR</text>
<text text-anchor="start" x="1023" y="-212.5" font-family="Helvetica,sans-Serif" font-size="10.00">_BINDINGS_PYTHON_DOMAIN</text>
<text text-anchor="middle" x="1096.5" y="-201.5" font-family="Helvetica,sans-Serif" font-size="10.00">::PyFileLineColLocation</text>
</a>
</g>
</g>
<!-- Node6&#45;&gt;Node7 -->
<g id="edge6_Node000006_Node000007" class="edge">
<title>Node6&#45;&gt;Node7</title>
<g id="a_edge6_Node000006_Node000007"><a xlink:title=" ">
<path fill="none" stroke="#63b8ff" d="M966.34,-215C982.53,-215 999.13,-215 1014.8,-215"/>
<polygon fill="#63b8ff" stroke="#63b8ff" points="966.33,-211.5 956.33,-215 966.33,-218.5 966.33,-211.5"/>
</a>
</g>
</g>
<!-- Node9 -->
<g id="Node000009" class="node">
<title>Node9</title>
<g id="a_Node000009"><a xlink:href="classmlir_1_1python_1_1MLIR__BINDINGS__PYTHON__DOMAIN_1_1PyFusedLocation.html" target="_top" xlink:title=" ">
<polygon fill="white" stroke="#666666" points="1178,-170.5 1015,-170.5 1015,-129.5 1178,-129.5 1178,-170.5"/>
<text text-anchor="start" x="1023" y="-158.5" font-family="Helvetica,sans-Serif" font-size="10.00">mlir::python::MLIR</text>
<text text-anchor="start" x="1023" y="-147.5" font-family="Helvetica,sans-Serif" font-size="10.00">_BINDINGS_PYTHON_DOMAIN</text>
<text text-anchor="middle" x="1096.5" y="-136.5" font-family="Helvetica,sans-Serif" font-size="10.00">::PyFusedLocation</text>
</a>
</g>
</g>
<!-- Node8&#45;&gt;Node9 -->
<g id="edge8_Node000008_Node000009" class="edge">
<title>Node8&#45;&gt;Node9</title>
<g id="a_edge8_Node000008_Node000009"><a xlink:title=" ">
<path fill="none" stroke="#63b8ff" d="M988.38,-150C997.36,-150 1006.28,-150 1014.91,-150"/>
<polygon fill="#63b8ff" stroke="#63b8ff" points="988.24,-146.5 978.24,-150 988.24,-153.5 988.24,-146.5"/>
</a>
</g>
</g>
<!-- Node11 -->
<g id="Node000011" class="node">
<title>Node11</title>
<g id="a_Node000011"><a xlink:href="classmlir_1_1python_1_1MLIR__BINDINGS__PYTHON__DOMAIN_1_1PyNameLocation.html" target="_top" xlink:title=" ">
<polygon fill="white" stroke="#666666" points="1178,-111.5 1015,-111.5 1015,-70.5 1178,-70.5 1178,-111.5"/>
<text text-anchor="start" x="1023" y="-99.5" font-family="Helvetica,sans-Serif" font-size="10.00">mlir::python::MLIR</text>
<text text-anchor="start" x="1023" y="-88.5" font-family="Helvetica,sans-Serif" font-size="10.00">_BINDINGS_PYTHON_DOMAIN</text>
<text text-anchor="middle" x="1096.5" y="-77.5" font-family="Helvetica,sans-Serif" font-size="10.00">::PyNameLocation</text>
</a>
</g>
</g>
<!-- Node10&#45;&gt;Node11 -->
<g id="edge10_Node000010_Node000011" class="edge">
<title>Node10&#45;&gt;Node11</title>
<g id="a_edge10_Node000010_Node000011"><a xlink:title=" ">
<path fill="none" stroke="#63b8ff" d="M988.38,-91C997.36,-91 1006.28,-91 1014.91,-91"/>
<polygon fill="#63b8ff" stroke="#63b8ff" points="988.24,-87.5 978.24,-91 988.24,-94.5 988.24,-87.5"/>
</a>
</g>
</g>
<!-- Node13 -->
<g id="Node000013" class="node">
<title>Node13</title>
<g id="a_Node000013"><a xlink:href="classmlir_1_1python_1_1MLIR__BINDINGS__PYTHON__DOMAIN_1_1PyUnknownLocation.html" target="_top" xlink:title=" ">
<polygon fill="white" stroke="#666666" points="1178,-46.5 1015,-46.5 1015,-5.5 1178,-5.5 1178,-46.5"/>
<text text-anchor="start" x="1023" y="-34.5" font-family="Helvetica,sans-Serif" font-size="10.00">mlir::python::MLIR</text>
<text text-anchor="start" x="1023" y="-23.5" font-family="Helvetica,sans-Serif" font-size="10.00">_BINDINGS_PYTHON_DOMAIN</text>
<text text-anchor="middle" x="1096.5" y="-12.5" font-family="Helvetica,sans-Serif" font-size="10.00">::PyUnknownLocation</text>
</a>
</g>
</g>
<!-- Node12&#45;&gt;Node13 -->
<g id="edge12_Node000012_Node000013" class="edge">
<title>Node12&#45;&gt;Node13</title>
<g id="a_edge12_Node000012_Node000013"><a xlink:title=" ">
<path fill="none" stroke="#63b8ff" d="M970.54,-26C985.44,-26 1000.6,-26 1014.97,-26"/>
<polygon fill="#63b8ff" stroke="#63b8ff" points="970.27,-22.5 960.27,-26 970.27,-29.5 970.27,-22.5"/>
</a>
</g>
</g>
</g>
</svg>
