<?xml version="1.0" encoding="UTF-8" standalone="no"?>
<!DOCTYPE svg PUBLIC "-//W3C//DTD SVG 1.1//EN"
 "http://www.w3.org/Graphics/SVG/1.1/DTD/svg11.dtd">
<!-- Generated by graphviz version 2.43.0 (0)
 -->
<!-- Title: mlir::CyclicAttrTypeReplacer Pages: 1 -->
<svg width="235pt" height="174pt"
 viewBox="0.00 0.00 235.00 174.00" xmlns="http://www.w3.org/2000/svg" xmlns:xlink="http://www.w3.org/1999/xlink">
<g id="graph0" class="graph" transform="scale(1 1) rotate(0) translate(4 170)">
<title>mlir::CyclicAttrTypeReplacer</title>
<!-- Node1 -->
<g id="node1" class="node">
<title>Node1</title>
<g id="a_node1"><a xlink:title="This is an attribute/type replacer that supports custom handling of cycles in the replacer logic.">
<polygon fill="#bfbfbf" stroke="black" points="10.5,-0.5 10.5,-19.5 165.5,-19.5 165.5,-0.5 10.5,-0.5"/>
<text text-anchor="middle" x="88" y="-7.5" font-family="Helvetica,sans-Serif" font-size="10.00">mlir::CyclicAttrTypeReplacer</text>
</a>
</g>
</g>
<!-- Node2 -->
<g id="node2" class="node">
<title>Node2</title>
<g id="a_node2"><a xlink:href="classmlir_1_1detail_1_1AttrTypeReplacerBase.html" target="_top" xlink:title=" ">
<polygon fill="none" stroke="black" points="0,-57.5 0,-87.5 176,-87.5 176,-57.5 0,-57.5"/>
<text text-anchor="start" x="8" y="-75.5" font-family="Helvetica,sans-Serif" font-size="10.00">mlir::detail::AttrTypeReplacer</text>
<text text-anchor="middle" x="88" y="-64.5" font-family="Helvetica,sans-Serif" font-size="10.00">Base&lt; CyclicAttrTypeReplacer &gt;</text>
</a>
</g>
</g>
<!-- Node2&#45;&gt;Node1 -->
<g id="edge1" class="edge">
<title>Node2&#45;&gt;Node1</title>
<path fill="none" stroke="midnightblue" d="M88,-47.35C88,-37.51 88,-26.78 88,-19.54"/>
<polygon fill="midnightblue" stroke="midnightblue" points="84.5,-47.47 88,-57.47 91.5,-47.47 84.5,-47.47"/>
</g>
<!-- Node3 -->
<g id="node3" class="node">
<title>Node3</title>
<g id="a_node3"><a xlink:href="classmlir_1_1detail_1_1AttrTypeReplacerBase.html" target="_top" xlink:title="This class provides a base utility for replacing attributes/types, and their sub elements.">
<polygon fill="none" stroke="black" points="8.5,-135.5 8.5,-165.5 167.5,-165.5 167.5,-135.5 8.5,-135.5"/>
<text text-anchor="start" x="16.5" y="-153.5" font-family="Helvetica,sans-Serif" font-size="10.00">mlir::detail::AttrTypeReplacer</text>
<text text-anchor="middle" x="88" y="-142.5" font-family="Helvetica,sans-Serif" font-size="10.00">Base&lt; Concrete &gt;</text>
</a>
</g>
</g>
<!-- Node3&#45;&gt;Node2 -->
<g id="edge2" class="edge">
<title>Node3&#45;&gt;Node2</title>
<path fill="none" stroke="orange" stroke-dasharray="5,2" d="M88,-125.09C88,-112.76 88,-98.22 88,-87.73"/>
<polygon fill="orange" stroke="orange" points="84.5,-125.2 88,-135.2 91.5,-125.21 84.5,-125.2"/>
<text text-anchor="middle" x="157.5" y="-109" font-family="Helvetica,sans-Serif" font-size="10.00"> &lt; CyclicAttrTypeReplacer &gt;</text>
</g>
</g>
</svg>
