<?xml version="1.0" encoding="UTF-8" standalone="no"?>
<!DOCTYPE svg PUBLIC "-//W3C//DTD SVG 1.1//EN"
 "http://www.w3.org/Graphics/SVG/1.1/DTD/svg11.dtd">
<!-- Generated by graphviz version 2.43.0 (0)
 -->
<!-- Title: mlir::dataflow::IntegerDivisibilityLattice Pages: 1 -->
<svg width="255pt" height="311pt"
 viewBox="0.00 0.00 255.00 311.00" xmlns="http://www.w3.org/2000/svg" xmlns:xlink="http://www.w3.org/1999/xlink">
<g id="graph0" class="graph" transform="scale(1 1) rotate(0) translate(4 307)">
<title>mlir::dataflow::IntegerDivisibilityLattice</title>
<!-- Node1 -->
<g id="Node000001" class="node">
<title>Node1</title>
<g id="a_Node000001"><a xlink:title="This lattice element represents the integer divisibility of an SSA value.">
<polygon fill="#999999" stroke="#666666" points="176,-30 0,-30 0,0 176,0 176,-30"/>
<text text-anchor="start" x="8" y="-18" font-family="Helvetica,sans-Serif" font-size="10.00">mlir::dataflow::IntegerDivisibility</text>
<text text-anchor="middle" x="88" y="-7" font-family="Helvetica,sans-Serif" font-size="10.00">Lattice</text>
</a>
</g>
</g>
<!-- Node2 -->
<g id="Node000002" class="node">
<title>Node2</title>
<g id="a_Node000002"><a xlink:href="classmlir_1_1dataflow_1_1Lattice.html" target="_top" xlink:title=" ">
<polygon fill="white" stroke="#666666" points="151,-97 25,-97 25,-67 151,-67 151,-97"/>
<text text-anchor="start" x="33" y="-85" font-family="Helvetica,sans-Serif" font-size="10.00">mlir::dataflow::Lattice</text>
<text text-anchor="middle" x="88" y="-74" font-family="Helvetica,sans-Serif" font-size="10.00">&lt; IntegerDivisibility &gt;</text>
</a>
</g>
</g>
<!-- Node2&#45;&gt;Node1 -->
<g id="edge1_Node000001_Node000002" class="edge">
<title>Node2&#45;&gt;Node1</title>
<g id="a_edge1_Node000001_Node000002"><a xlink:title=" ">
<path fill="none" stroke="#63b8ff" d="M88,-56.61C88,-47.65 88,-37.82 88,-30.08"/>
<polygon fill="#63b8ff" stroke="#63b8ff" points="84.5,-56.9 88,-66.9 91.5,-56.9 84.5,-56.9"/>
</a>
</g>
</g>
<!-- Node3 -->
<g id="Node000003" class="node">
<title>Node3</title>
<g id="a_Node000003"><a xlink:href="classmlir_1_1dataflow_1_1AbstractSparseLattice.html" target="_top" xlink:title="This class represents an abstract lattice.">
<polygon fill="white" stroke="#666666" points="149,-247 19,-247 19,-217 149,-217 149,-247"/>
<text text-anchor="start" x="27" y="-235" font-family="Helvetica,sans-Serif" font-size="10.00">mlir::dataflow::Abstract</text>
<text text-anchor="middle" x="84" y="-224" font-family="Helvetica,sans-Serif" font-size="10.00">SparseLattice</text>
</a>
</g>
</g>
<!-- Node3&#45;&gt;Node2 -->
<g id="edge2_Node000002_Node000003" class="edge">
<title>Node3&#45;&gt;Node2</title>
<g id="a_edge2_Node000002_Node000003"><a xlink:title=" ">
<path fill="none" stroke="#63b8ff" d="M84.65,-206.81C85.49,-175.72 86.93,-122.73 87.61,-97.37"/>
<polygon fill="#63b8ff" stroke="#63b8ff" points="81.16,-206.72 84.38,-216.81 88.15,-206.91 81.16,-206.72"/>
</a>
</g>
</g>
<!-- Node5 -->
<g id="Node000005" class="node">
<title>Node5</title>
<g id="a_Node000005"><a xlink:href="classmlir_1_1dataflow_1_1Lattice.html" target="_top" xlink:title="This class represents a lattice holding a specific value of type ValueT.">
<polygon fill="white" stroke="#666666" points="222,-180 100,-180 100,-150 222,-150 222,-180"/>
<text text-anchor="start" x="108" y="-168" font-family="Helvetica,sans-Serif" font-size="10.00">mlir::dataflow::Lattice</text>
<text text-anchor="middle" x="161" y="-157" font-family="Helvetica,sans-Serif" font-size="10.00">&lt; ValueT &gt;</text>
</a>
</g>
</g>
<!-- Node3&#45;&gt;Node5 -->
<g id="edge5_Node000005_Node000003" class="edge">
<title>Node3&#45;&gt;Node5</title>
<g id="a_edge5_Node000005_Node000003"><a xlink:title=" ">
<path fill="none" stroke="#63b8ff" d="M108.42,-210.38C120.12,-200.51 133.84,-188.93 144.32,-180.08"/>
<polygon fill="#63b8ff" stroke="#63b8ff" points="106.09,-207.77 100.71,-216.9 110.61,-213.12 106.09,-207.77"/>
</a>
</g>
</g>
<!-- Node4 -->
<g id="Node000004" class="node">
<title>Node4</title>
<g id="a_Node000004"><a xlink:href="classmlir_1_1AnalysisState.html" target="_top" xlink:title="Base class for generic analysis states.">
<polygon fill="white" stroke="#666666" points="138.5,-303 29.5,-303 29.5,-284 138.5,-284 138.5,-303"/>
<text text-anchor="middle" x="84" y="-291" font-family="Helvetica,sans-Serif" font-size="10.00">mlir::AnalysisState</text>
</a>
</g>
</g>
<!-- Node4&#45;&gt;Node3 -->
<g id="edge3_Node000003_Node000004" class="edge">
<title>Node4&#45;&gt;Node3</title>
<g id="a_edge3_Node000003_Node000004"><a xlink:title=" ">
<path fill="none" stroke="#63b8ff" d="M84,-273.73C84,-265.09 84,-255 84,-247.02"/>
<polygon fill="#63b8ff" stroke="#63b8ff" points="80.5,-273.98 84,-283.98 87.5,-273.98 80.5,-273.98"/>
</a>
</g>
</g>
<!-- Node5&#45;&gt;Node2 -->
<g id="edge4_Node000002_Node000005" class="edge">
<title>Node5&#45;&gt;Node2</title>
<g id="a_edge4_Node000002_Node000005"><a xlink:title=" ">
<path fill="none" stroke="orange" stroke-dasharray="5,2" d="M141.55,-142.42C128.65,-128.1 112.08,-109.72 100.81,-97.22"/>
<polygon fill="orange" stroke="orange" points="138.99,-144.81 148.28,-149.89 144.19,-140.12 138.99,-144.81"/>
</a>
</g>
<text text-anchor="start" x="134" y="-120.5" font-family="Helvetica,sans-Serif" font-size="10.00" fill="grey">&lt; IntegerDivisibility &gt;</text>
</g>
</g>
</svg>
