<?xml version="1.0" encoding="UTF-8" standalone="no"?>
<!DOCTYPE svg PUBLIC "-//W3C//DTD SVG 1.1//EN"
 "http://www.w3.org/Graphics/SVG/1.1/DTD/svg11.dtd">
<!-- Generated by graphviz version 2.43.0 (0)
 -->
<!-- Title: mlir::tracing::BreakpointManager Pages: 1 -->
<svg width="906pt" height="111pt"
 viewBox="0.00 0.00 906.00 110.50" xmlns="http://www.w3.org/2000/svg" xmlns:xlink="http://www.w3.org/1999/xlink">
<g id="graph0" class="graph" transform="scale(1 1) rotate(0) translate(4 106.5)">
<title>mlir::tracing::BreakpointManager</title>
<!-- Node1 -->
<g id="node1" class="node">
<title>Node1</title>
<g id="a_node1"><a xlink:title="A breakpoint manager is responsible for managing a set of breakpoints and matching them to a given ac...">
<polygon fill="#bfbfbf" stroke="black" points="0,-36 0,-66 135,-66 135,-36 0,-36"/>
<text text-anchor="start" x="8" y="-54" font-family="Helvetica,sans-Serif" font-size="10.00">mlir::tracing::Breakpoint</text>
<text text-anchor="middle" x="67.5" y="-43" font-family="Helvetica,sans-Serif" font-size="10.00">Manager</text>
</a>
</g>
</g>
<!-- Node2 -->
<g id="node2" class="node">
<title>Node2</title>
<g id="a_node2"><a xlink:href="classmlir_1_1tracing_1_1BreakpointManagerBase.html" target="_top" xlink:title=" ">
<polygon fill="none" stroke="black" points="491,-72 491,-102 709,-102 709,-72 491,-72"/>
<text text-anchor="start" x="499" y="-90" font-family="Helvetica,sans-Serif" font-size="10.00">mlir::tracing::Breakpoint</text>
<text text-anchor="middle" x="600" y="-79" font-family="Helvetica,sans-Serif" font-size="10.00">ManagerBase&lt; TagBreakpointManager &gt;</text>
</a>
</g>
</g>
<!-- Node1&#45;&gt;Node2 -->
<g id="edge1" class="edge">
<title>Node1&#45;&gt;Node2</title>
<path fill="none" stroke="midnightblue" d="M133.52,-68.41C146.21,-71.33 159.46,-74.03 172,-76 279.51,-92.85 404.08,-94 490.82,-91.91"/>
<polygon fill="midnightblue" stroke="midnightblue" points="134.03,-64.94 123.49,-66.04 132.42,-71.75 134.03,-64.94"/>
</g>
<!-- Node4 -->
<g id="node4" class="node">
<title>Node4</title>
<g id="a_node4"><a xlink:href="classmlir_1_1tracing_1_1BreakpointManagerBase.html" target="_top" xlink:title=" ">
<polygon fill="none" stroke="black" points="491,-0.5 491,-41.5 709,-41.5 709,-0.5 491,-0.5"/>
<text text-anchor="start" x="499" y="-29.5" font-family="Helvetica,sans-Serif" font-size="10.00">mlir::tracing::Breakpoint</text>
<text text-anchor="start" x="499" y="-18.5" font-family="Helvetica,sans-Serif" font-size="10.00">ManagerBase&lt; FileLineColLocBreakpoint</text>
<text text-anchor="middle" x="600" y="-7.5" font-family="Helvetica,sans-Serif" font-size="10.00">Manager &gt;</text>
</a>
</g>
</g>
<!-- Node1&#45;&gt;Node4 -->
<g id="edge3" class="edge">
<title>Node1&#45;&gt;Node4</title>
<path fill="none" stroke="midnightblue" d="M135.19,-33.7C147.37,-31.06 160.01,-28.67 172,-27 279.76,-11.97 404.29,-12.2 490.95,-15.13"/>
<polygon fill="midnightblue" stroke="midnightblue" points="134.1,-30.36 125.1,-35.96 135.62,-37.19 134.1,-30.36"/>
</g>
<!-- Node6 -->
<g id="node6" class="node">
<title>Node6</title>
<g id="a_node6"><a xlink:href="classmlir_1_1tracing_1_1BreakpointManagerBase.html" target="_top" xlink:title="CRTP base class for BreakpointManager implementations.">
<polygon fill="none" stroke="black" points="172,-36 172,-66 316,-66 316,-36 172,-36"/>
<text text-anchor="start" x="180" y="-54" font-family="Helvetica,sans-Serif" font-size="10.00">mlir::tracing::Breakpoint</text>
<text text-anchor="middle" x="244" y="-43" font-family="Helvetica,sans-Serif" font-size="10.00">ManagerBase&lt; Derived &gt;</text>
</a>
</g>
</g>
<!-- Node1&#45;&gt;Node6 -->
<g id="edge5" class="edge">
<title>Node1&#45;&gt;Node6</title>
<path fill="none" stroke="midnightblue" d="M145.63,-51C154.36,-51 163.22,-51 171.87,-51"/>
<polygon fill="midnightblue" stroke="midnightblue" points="145.47,-47.5 135.47,-51 145.47,-54.5 145.47,-47.5"/>
</g>
<!-- Node3 -->
<g id="node3" class="node">
<title>Node3</title>
<g id="a_node3"><a xlink:href="classmlir_1_1tracing_1_1TagBreakpointManager.html" target="_top" xlink:title="This is a manager to store a collection of breakpoints that trigger on tags.">
<polygon fill="none" stroke="black" points="746,-72 746,-102 898,-102 898,-72 746,-72"/>
<text text-anchor="start" x="754" y="-90" font-family="Helvetica,sans-Serif" font-size="10.00">mlir::tracing::TagBreakpoint</text>
<text text-anchor="middle" x="822" y="-79" font-family="Helvetica,sans-Serif" font-size="10.00">Manager</text>
</a>
</g>
</g>
<!-- Node2&#45;&gt;Node3 -->
<g id="edge2" class="edge">
<title>Node2&#45;&gt;Node3</title>
<path fill="none" stroke="midnightblue" d="M719.22,-87C728.2,-87 737.11,-87 745.7,-87"/>
<polygon fill="midnightblue" stroke="midnightblue" points="719.07,-83.5 709.07,-87 719.07,-90.5 719.07,-83.5"/>
</g>
<!-- Node5 -->
<g id="node5" class="node">
<title>Node5</title>
<g id="a_node5"><a xlink:href="classmlir_1_1tracing_1_1FileLineColLocBreakpointManager.html" target="_top" xlink:title="This breakpoint manager is responsible for matching FileLineColLocBreakpoint.">
<polygon fill="none" stroke="black" points="754.5,-6 754.5,-36 889.5,-36 889.5,-6 754.5,-6"/>
<text text-anchor="start" x="762.5" y="-24" font-family="Helvetica,sans-Serif" font-size="10.00">mlir::tracing::FileLineCol</text>
<text text-anchor="middle" x="822" y="-13" font-family="Helvetica,sans-Serif" font-size="10.00">LocBreakpointManager</text>
</a>
</g>
</g>
<!-- Node4&#45;&gt;Node5 -->
<g id="edge4" class="edge">
<title>Node4&#45;&gt;Node5</title>
<path fill="none" stroke="midnightblue" d="M719.19,-21C731.21,-21 743.11,-21 754.3,-21"/>
<polygon fill="midnightblue" stroke="midnightblue" points="719.07,-17.5 709.07,-21 719.07,-24.5 719.07,-17.5"/>
</g>
<!-- Node6&#45;&gt;Node2 -->
<g id="edge6" class="edge">
<title>Node6&#45;&gt;Node2</title>
<path fill="none" stroke="orange" stroke-dasharray="5,2" d="M326.41,-59.28C375.25,-64.25 437.96,-70.62 490.92,-76.01"/>
<polygon fill="orange" stroke="orange" points="326.51,-55.77 316.21,-58.24 325.81,-62.74 326.51,-55.77"/>
<text text-anchor="middle" x="403.5" y="-76" font-family="Helvetica,sans-Serif" font-size="10.00"> &lt; TagBreakpointManager &gt;</text>
</g>
<!-- Node6&#45;&gt;Node4 -->
<g id="edge7" class="edge">
<title>Node6&#45;&gt;Node4</title>
<path fill="none" stroke="orange" stroke-dasharray="5,2" d="M324,-34.37C327.37,-33.86 330.71,-33.4 334,-33 385.31,-26.69 442.57,-23.6 490.7,-22.13"/>
<polygon fill="orange" stroke="orange" points="323.15,-30.96 313.82,-35.99 324.25,-37.87 323.15,-30.96"/>
<text text-anchor="start" x="334.5" y="-47" font-family="Helvetica,sans-Serif" font-size="10.00"> &lt; FileLineColLocBreakpoint</text>
<text text-anchor="middle" x="403.5" y="-36" font-family="Helvetica,sans-Serif" font-size="10.00">Manager &gt;</text>
</g>
</g>
</svg>
