<?xml version="1.0" encoding="UTF-8" standalone="no"?>
<!DOCTYPE svg PUBLIC "-//W3C//DTD SVG 1.1//EN"
 "http://www.w3.org/Graphics/SVG/1.1/DTD/svg11.dtd">
<!-- Generated by graphviz version 2.43.0 (0)
 -->
<!-- Title: mlir::sparse_tensor::SparseTensorDescriptor Pages: 1 -->
<svg width="175pt" height="210pt"
 viewBox="0.00 0.00 174.50 210.00" xmlns="http://www.w3.org/2000/svg" xmlns:xlink="http://www.w3.org/1999/xlink">
<g id="graph0" class="graph" transform="scale(1 1) rotate(0) translate(4 206)">
<title>mlir::sparse_tensor::SparseTensorDescriptor</title>
<!-- Node1 -->
<g id="Node000001" class="node">
<title>Node1</title>
<g id="a_Node000001"><a xlink:title="Uses ValueRange for immutable descriptors.">
<polygon fill="#999999" stroke="#666666" points="148,-30 11,-30 11,0 148,0 148,-30"/>
<text text-anchor="start" x="19" y="-18" font-family="Helvetica,sans-Serif" font-size="10.00">mlir::sparse_tensor</text>
<text text-anchor="middle" x="79.5" y="-7" font-family="Helvetica,sans-Serif" font-size="10.00">::SparseTensorDescriptor</text>
</a>
</g>
</g>
<!-- Node2 -->
<g id="Node000002" class="node">
<title>Node2</title>
<g id="a_Node000002"><a xlink:href="classmlir_1_1sparse__tensor_1_1SparseTensorDescriptorImpl.html" target="_top" xlink:title=" ">
<polygon fill="white" stroke="#666666" points="159,-108 0,-108 0,-67 159,-67 159,-108"/>
<text text-anchor="start" x="8" y="-96" font-family="Helvetica,sans-Serif" font-size="10.00">mlir::sparse_tensor</text>
<text text-anchor="start" x="8" y="-85" font-family="Helvetica,sans-Serif" font-size="10.00">::SparseTensorDescriptorImpl</text>
<text text-anchor="middle" x="79.5" y="-74" font-family="Helvetica,sans-Serif" font-size="10.00">&lt; ValueRange &gt;</text>
</a>
</g>
</g>
<!-- Node2&#45;&gt;Node1 -->
<g id="edge1_Node000001_Node000002" class="edge">
<title>Node2&#45;&gt;Node1</title>
<g id="a_edge1_Node000001_Node000002"><a xlink:title=" ">
<path fill="none" stroke="#63b8ff" d="M79.5,-56.58C79.5,-47.51 79.5,-37.95 79.5,-30.39"/>
<polygon fill="#63b8ff" stroke="#63b8ff" points="76,-56.86 79.5,-66.86 83,-56.86 76,-56.86"/>
</a>
</g>
</g>
<!-- Node3 -->
<g id="Node000003" class="node">
<title>Node3</title>
<g id="a_Node000003"><a xlink:href="classmlir_1_1sparse__tensor_1_1SparseTensorDescriptorImpl.html" target="_top" xlink:title="A helper class around an array of values that corresponds to a sparse tensor.">
<polygon fill="white" stroke="#666666" points="159,-202 0,-202 0,-161 159,-161 159,-202"/>
<text text-anchor="start" x="8" y="-190" font-family="Helvetica,sans-Serif" font-size="10.00">mlir::sparse_tensor</text>
<text text-anchor="start" x="8" y="-179" font-family="Helvetica,sans-Serif" font-size="10.00">::SparseTensorDescriptorImpl</text>
<text text-anchor="middle" x="79.5" y="-168" font-family="Helvetica,sans-Serif" font-size="10.00">&lt; ValueArrayRef &gt;</text>
</a>
</g>
</g>
<!-- Node3&#45;&gt;Node2 -->
<g id="edge2_Node000002_Node000003" class="edge">
<title>Node3&#45;&gt;Node2</title>
<g id="a_edge2_Node000002_Node000003"><a xlink:title=" ">
<path fill="none" stroke="orange" stroke-dasharray="5,2" d="M79.5,-150.89C79.5,-136.96 79.5,-120.72 79.5,-108.3"/>
<polygon fill="orange" stroke="orange" points="76,-150.99 79.5,-160.99 83,-150.99 76,-150.99"/>
</a>
</g>
<text text-anchor="start" x="83" y="-131.5" font-family="Helvetica,sans-Serif" font-size="10.00" fill="grey">&lt; ValueRange &gt;</text>
</g>
</g>
</svg>
