<?xml version="1.0" encoding="UTF-8" standalone="no"?>
<!DOCTYPE svg PUBLIC "-//W3C//DTD SVG 1.1//EN"
 "http://www.w3.org/Graphics/SVG/1.1/DTD/svg11.dtd">
<!-- Generated by graphviz version 2.43.0 (0)
 -->
<!-- Title: mlir::ReductionNode::iterator&lt; SinglePath &gt; Pages: 1 -->
<svg width="258pt" height="121pt"
 viewBox="0.00 0.00 258.00 121.00" xmlns="http://www.w3.org/2000/svg" xmlns:xlink="http://www.w3.org/1999/xlink">
<g id="graph0" class="graph" transform="scale(1 1) rotate(0) translate(4 117)">
<title>mlir::ReductionNode::iterator&lt; SinglePath &gt;</title>
<!-- Node1 -->
<g id="Node000001" class="node">
<title>Node1</title>
<g id="a_Node000001"><a xlink:title=" ">
<polygon fill="#999999" stroke="#666666" points="191,-30 59,-30 59,0 191,0 191,-30"/>
<text text-anchor="start" x="67" y="-18" font-family="Helvetica,sans-Serif" font-size="10.00">mlir::ReductionNode</text>
<text text-anchor="middle" x="125" y="-7" font-family="Helvetica,sans-Serif" font-size="10.00">::iterator&lt; SinglePath &gt;</text>
</a>
</g>
</g>
<!-- Node2 -->
<g id="Node000002" class="node">
<title>Node2</title>
<g id="a_Node000002"><a xlink:title=" ">
<polygon fill="white" stroke="#666666" points="116,-113 0,-113 0,-83 116,-83 116,-113"/>
<text text-anchor="start" x="8" y="-101" font-family="Helvetica,sans-Serif" font-size="10.00">mlir::ReductionNode</text>
<text text-anchor="middle" x="58" y="-90" font-family="Helvetica,sans-Serif" font-size="10.00">::BaseIterator&lt; T &gt;</text>
</a>
</g>
</g>
<!-- Node2&#45;&gt;Node1 -->
<g id="edge1_Node000001_Node000002" class="edge">
<title>Node2&#45;&gt;Node1</title>
<g id="a_edge1_Node000001_Node000002"><a xlink:title=" ">
<path fill="none" stroke="#63b8ff" d="M76.18,-75.02C87.97,-60.76 102.99,-42.61 113.24,-30.22"/>
<polygon fill="#63b8ff" stroke="#63b8ff" points="73.35,-72.95 69.67,-82.89 78.74,-77.42 73.35,-72.95"/>
</a>
</g>
</g>
<!-- Node3 -->
<g id="Node000003" class="node">
<title>Node3</title>
<g id="a_Node000003"><a xlink:href="classmlir_1_1ReductionNode_1_1iterator.html" target="_top" xlink:title=" ">
<polygon fill="white" stroke="#666666" points="250,-113 134,-113 134,-83 250,-83 250,-113"/>
<text text-anchor="start" x="142" y="-101" font-family="Helvetica,sans-Serif" font-size="10.00">mlir::ReductionNode</text>
<text text-anchor="middle" x="192" y="-90" font-family="Helvetica,sans-Serif" font-size="10.00">::iterator&lt; mode &gt;</text>
</a>
</g>
</g>
<!-- Node3&#45;&gt;Node1 -->
<g id="edge2_Node000001_Node000003" class="edge">
<title>Node3&#45;&gt;Node1</title>
<g id="a_edge2_Node000001_Node000003"><a xlink:title=" ">
<path fill="none" stroke="orange" stroke-dasharray="5,2" d="M173.82,-75.02C162.03,-60.76 147.01,-42.61 136.76,-30.22"/>
<polygon fill="orange" stroke="orange" points="171.26,-77.42 180.33,-82.89 176.65,-72.95 171.26,-77.42"/>
</a>
</g>
<text text-anchor="start" x="167" y="-53.5" font-family="Helvetica,sans-Serif" font-size="10.00" fill="grey">&lt; SinglePath &gt;</text>
</g>
</g>
</svg>
