<?xml version="1.0" encoding="UTF-8" standalone="no"?>
<!DOCTYPE svg PUBLIC "-//W3C//DTD SVG 1.1//EN"
 "http://www.w3.org/Graphics/SVG/1.1/DTD/svg11.dtd">
<!-- Generated by graphviz version 2.43.0 (0)
 -->
<!-- Title: mlir::pdll::ast::NamedAttributeDecl Pages: 1 -->
<svg width="304pt" height="259pt"
 viewBox="0.00 0.00 303.50 259.00" xmlns="http://www.w3.org/2000/svg" xmlns:xlink="http://www.w3.org/1999/xlink">
<g id="graph0" class="graph" transform="scale(1 1) rotate(0) translate(4 255)">
<title>mlir::pdll::ast::NamedAttributeDecl</title>
<!-- Node1 -->
<g id="Node000001" class="node">
<title>Node1</title>
<g id="a_Node000001"><a xlink:title="This Decl represents a NamedAttribute, and contains a string name and attribute value.">
<polygon fill="#999999" stroke="#666666" points="220,-19 33,-19 33,0 220,0 220,-19"/>
<text text-anchor="middle" x="126.5" y="-7" font-family="Helvetica,sans-Serif" font-size="10.00">mlir::pdll::ast::NamedAttributeDecl</text>
</a>
</g>
</g>
<!-- Node2 -->
<g id="Node000002" class="node">
<title>Node2</title>
<g id="a_Node000002"><a xlink:href="classmlir_1_1pdll_1_1ast_1_1Node_1_1NodeBase.html" target="_top" xlink:title=" ">
<polygon fill="white" stroke="#666666" points="219.5,-97 33.5,-97 33.5,-56 219.5,-56 219.5,-97"/>
<text text-anchor="start" x="41.5" y="-85" font-family="Helvetica,sans-Serif" font-size="10.00">mlir::pdll::ast::Node</text>
<text text-anchor="start" x="41.5" y="-74" font-family="Helvetica,sans-Serif" font-size="10.00">::NodeBase&lt; NamedAttributeDecl,</text>
<text text-anchor="middle" x="126.5" y="-63" font-family="Helvetica,sans-Serif" font-size="10.00"> Decl &gt;</text>
</a>
</g>
</g>
<!-- Node2&#45;&gt;Node1 -->
<g id="edge1_Node000001_Node000002" class="edge">
<title>Node2&#45;&gt;Node1</title>
<g id="a_edge1_Node000001_Node000002"><a xlink:title=" ">
<path fill="none" stroke="#63b8ff" d="M126.5,-45.76C126.5,-36.06 126.5,-26.02 126.5,-19.15"/>
<polygon fill="#63b8ff" stroke="#63b8ff" points="123,-46 126.5,-56 130,-46 123,-46"/>
</a>
</g>
</g>
<!-- Node3 -->
<g id="Node000003" class="node">
<title>Node3</title>
<g id="a_Node000003"><a xlink:href="classmlir_1_1pdll_1_1ast_1_1Decl.html" target="_top" xlink:title="This class represents the base Decl node.">
<polygon fill="white" stroke="#666666" points="111,-189.5 2,-189.5 2,-170.5 111,-170.5 111,-189.5"/>
<text text-anchor="middle" x="56.5" y="-177.5" font-family="Helvetica,sans-Serif" font-size="10.00">mlir::pdll::ast::Decl</text>
</a>
</g>
</g>
<!-- Node3&#45;&gt;Node2 -->
<g id="edge2_Node000002_Node000003" class="edge">
<title>Node3&#45;&gt;Node2</title>
<g id="a_edge2_Node000002_Node000003"><a xlink:title=" ">
<path fill="none" stroke="#63b8ff" d="M68.2,-162.03C80.54,-144.14 99.95,-116 112.94,-97.16"/>
<polygon fill="#63b8ff" stroke="#63b8ff" points="65.26,-160.13 62.47,-170.35 71.03,-164.1 65.26,-160.13"/>
</a>
</g>
</g>
<!-- Node4 -->
<g id="Node000004" class="node">
<title>Node4</title>
<g id="a_Node000004"><a xlink:href="classmlir_1_1pdll_1_1ast_1_1Node.html" target="_top" xlink:title="This class represents a base AST node.">
<polygon fill="white" stroke="#666666" points="113,-251 0,-251 0,-232 113,-232 113,-251"/>
<text text-anchor="middle" x="56.5" y="-239" font-family="Helvetica,sans-Serif" font-size="10.00">mlir::pdll::ast::Node</text>
</a>
</g>
</g>
<!-- Node4&#45;&gt;Node3 -->
<g id="edge3_Node000003_Node000004" class="edge">
<title>Node4&#45;&gt;Node3</title>
<g id="a_edge3_Node000003_Node000004"><a xlink:title=" ">
<path fill="none" stroke="#63b8ff" d="M56.5,-221.82C56.5,-211 56.5,-197.9 56.5,-189.51"/>
<polygon fill="#63b8ff" stroke="#63b8ff" points="53,-221.98 56.5,-231.98 60,-221.98 53,-221.98"/>
</a>
</g>
</g>
<!-- Node5 -->
<g id="Node000005" class="node">
<title>Node5</title>
<g id="a_Node000005"><a xlink:href="classmlir_1_1pdll_1_1ast_1_1Node_1_1NodeBase.html" target="_top" xlink:title="This CRTP class provides several utilies when defining new AST nodes.">
<polygon fill="white" stroke="#666666" points="266,-195 129,-195 129,-165 266,-165 266,-195"/>
<text text-anchor="start" x="137" y="-183" font-family="Helvetica,sans-Serif" font-size="10.00">mlir::pdll::ast::Node</text>
<text text-anchor="middle" x="197.5" y="-172" font-family="Helvetica,sans-Serif" font-size="10.00">::NodeBase&lt; T, BaseT &gt;</text>
</a>
</g>
</g>
<!-- Node5&#45;&gt;Node2 -->
<g id="edge4_Node000002_Node000005" class="edge">
<title>Node5&#45;&gt;Node2</title>
<g id="a_edge4_Node000002_Node000005"><a xlink:title=" ">
<path fill="none" stroke="orange" stroke-dasharray="5,2" d="M181.6,-156.27C169.15,-138.47 152.02,-113.98 140.18,-97.06"/>
<polygon fill="orange" stroke="orange" points="179.03,-158.7 187.63,-164.89 184.76,-154.69 179.03,-158.7"/>
</a>
</g>
<text text-anchor="start" x="178" y="-136" font-family="Helvetica,sans-Serif" font-size="10.00" fill="grey">&lt; NamedAttributeDecl,</text>
<text text-anchor="start" x="178" y="-121" font-family="Helvetica,sans-Serif" font-size="10.00" fill="grey">   Decl &gt;</text>
</g>
<!-- Node6 -->
<g id="Node000006" class="node">
<title>Node6</title>
<g id="a_Node000006"><a xlink:title=" ">
<polygon fill="white" stroke="#666666" points="221,-251 174,-251 174,-232 221,-232 221,-251"/>
<text text-anchor="middle" x="197.5" y="-239" font-family="Helvetica,sans-Serif" font-size="10.00">BaseT</text>
</a>
</g>
</g>
<!-- Node6&#45;&gt;Node5 -->
<g id="edge5_Node000005_Node000006" class="edge">
<title>Node6&#45;&gt;Node5</title>
<g id="a_edge5_Node000005_Node000006"><a xlink:title=" ">
<path fill="none" stroke="#63b8ff" d="M197.5,-221.73C197.5,-213.09 197.5,-203 197.5,-195.02"/>
<polygon fill="#63b8ff" stroke="#63b8ff" points="194,-221.98 197.5,-231.98 201,-221.98 194,-221.98"/>
</a>
</g>
</g>
</g>
</svg>
