<?xml version="1.0" encoding="UTF-8" standalone="no"?>
<!DOCTYPE svg PUBLIC "-//W3C//DTD SVG 1.1//EN"
 "http://www.w3.org/Graphics/SVG/1.1/DTD/svg11.dtd">
<!-- Generated by graphviz version 2.43.0 (0)
 -->
<!-- Title: mlir::pdll::ast::CallExpr Pages: 1 -->
<svg width="867pt" height="107pt"
 viewBox="0.00 0.00 867.00 106.50" xmlns="http://www.w3.org/2000/svg" xmlns:xlink="http://www.w3.org/1999/xlink">
<g id="graph0" class="graph" transform="scale(1 1) rotate(0) translate(4 102.5)">
<title>mlir::pdll::ast::CallExpr</title>
<!-- Node1 -->
<g id="Node000001" class="node">
<title>Node1</title>
<g id="a_Node000001"><a xlink:title="This expression represents a call to a decl, such as a UserConstraintDecl/UserRewriteDecl.">
<polygon fill="#999999" stroke="#666666" points="859,-36.5 731,-36.5 731,-17.5 859,-17.5 859,-36.5"/>
<text text-anchor="middle" x="795" y="-24.5" font-family="Helvetica,sans-Serif" font-size="10.00">mlir::pdll::ast::CallExpr</text>
</a>
</g>
</g>
<!-- Node2 -->
<g id="Node000002" class="node">
<title>Node2</title>
<g id="a_Node000002"><a xlink:href="classmlir_1_1pdll_1_1ast_1_1Node_1_1NodeBase.html" target="_top" xlink:title=" ">
<polygon fill="white" stroke="#666666" points="694,-89.5 567,-89.5 567,-48.5 694,-48.5 694,-89.5"/>
<text text-anchor="start" x="575" y="-77.5" font-family="Helvetica,sans-Serif" font-size="10.00">mlir::pdll::ast::Node</text>
<text text-anchor="start" x="575" y="-66.5" font-family="Helvetica,sans-Serif" font-size="10.00">::NodeBase&lt; CallExpr,</text>
<text text-anchor="middle" x="630.5" y="-55.5" font-family="Helvetica,sans-Serif" font-size="10.00"> Expr &gt;</text>
</a>
</g>
</g>
<!-- Node2&#45;&gt;Node1 -->
<g id="edge1_Node000001_Node000002" class="edge">
<title>Node2&#45;&gt;Node1</title>
<g id="a_edge1_Node000001_Node000002"><a xlink:title=" ">
<path fill="none" stroke="#63b8ff" d="M704.14,-50.22C722.5,-45.48 741.44,-40.58 757.18,-36.52"/>
<polygon fill="#63b8ff" stroke="#63b8ff" points="703.13,-46.87 694.33,-52.76 704.88,-53.65 703.13,-46.87"/>
</a>
</g>
</g>
<!-- Node3 -->
<g id="Node000003" class="node">
<title>Node3</title>
<g id="a_Node000003"><a xlink:href="classmlir_1_1pdll_1_1ast_1_1Expr.html" target="_top" xlink:title="This class represents a base AST Expression node.">
<polygon fill="white" stroke="#666666" points="420,-98.5 311,-98.5 311,-79.5 420,-79.5 420,-98.5"/>
<text text-anchor="middle" x="365.5" y="-86.5" font-family="Helvetica,sans-Serif" font-size="10.00">mlir::pdll::ast::Expr</text>
</a>
</g>
</g>
<!-- Node3&#45;&gt;Node2 -->
<g id="edge2_Node000002_Node000003" class="edge">
<title>Node3&#45;&gt;Node2</title>
<g id="a_edge2_Node000002_Node000003"><a xlink:title=" ">
<path fill="none" stroke="#63b8ff" d="M430.03,-84.17C471.52,-81.01 525.46,-76.91 566.78,-73.77"/>
<polygon fill="#63b8ff" stroke="#63b8ff" points="429.74,-80.68 420.04,-84.93 430.28,-87.66 429.74,-80.68"/>
</a>
</g>
</g>
<!-- Node4 -->
<g id="Node000004" class="node">
<title>Node4</title>
<g id="a_Node000004"><a xlink:href="classmlir_1_1pdll_1_1ast_1_1Stmt.html" target="_top" xlink:title="This class represents a base AST Statement node.">
<polygon fill="white" stroke="#666666" points="260,-98.5 150,-98.5 150,-79.5 260,-79.5 260,-98.5"/>
<text text-anchor="middle" x="205" y="-86.5" font-family="Helvetica,sans-Serif" font-size="10.00">mlir::pdll::ast::Stmt</text>
</a>
</g>
</g>
<!-- Node4&#45;&gt;Node3 -->
<g id="edge3_Node000003_Node000004" class="edge">
<title>Node4&#45;&gt;Node3</title>
<g id="a_edge3_Node000003_Node000004"><a xlink:title=" ">
<path fill="none" stroke="#63b8ff" d="M270.28,-89C283.77,-89 297.86,-89 310.91,-89"/>
<polygon fill="#63b8ff" stroke="#63b8ff" points="270.1,-85.5 260.1,-89 270.1,-92.5 270.1,-85.5"/>
</a>
</g>
</g>
<!-- Node5 -->
<g id="Node000005" class="node">
<title>Node5</title>
<g id="a_Node000005"><a xlink:href="classmlir_1_1pdll_1_1ast_1_1Node.html" target="_top" xlink:title="This class represents a base AST node.">
<polygon fill="white" stroke="#666666" points="113,-98.5 0,-98.5 0,-79.5 113,-79.5 113,-98.5"/>
<text text-anchor="middle" x="56.5" y="-86.5" font-family="Helvetica,sans-Serif" font-size="10.00">mlir::pdll::ast::Node</text>
</a>
</g>
</g>
<!-- Node5&#45;&gt;Node4 -->
<g id="edge4_Node000004_Node000005" class="edge">
<title>Node5&#45;&gt;Node4</title>
<g id="a_edge4_Node000004_Node000005"><a xlink:title=" ">
<path fill="none" stroke="#63b8ff" d="M123.53,-89C132.32,-89 141.25,-89 149.8,-89"/>
<polygon fill="#63b8ff" stroke="#63b8ff" points="123.3,-85.5 113.3,-89 123.3,-92.5 123.3,-85.5"/>
</a>
</g>
</g>
<!-- Node6 -->
<g id="Node000006" class="node">
<title>Node6</title>
<g id="a_Node000006"><a xlink:href="classmlir_1_1pdll_1_1ast_1_1Node_1_1NodeBase.html" target="_top" xlink:title="This CRTP class provides several utilies when defining new AST nodes.">
<polygon fill="white" stroke="#666666" points="434,-61 297,-61 297,-31 434,-31 434,-61"/>
<text text-anchor="start" x="305" y="-49" font-family="Helvetica,sans-Serif" font-size="10.00">mlir::pdll::ast::Node</text>
<text text-anchor="middle" x="365.5" y="-38" font-family="Helvetica,sans-Serif" font-size="10.00">::NodeBase&lt; T, BaseT &gt;</text>
</a>
</g>
</g>
<!-- Node6&#45;&gt;Node2 -->
<g id="edge5_Node000002_Node000006" class="edge">
<title>Node6&#45;&gt;Node2</title>
<g id="a_edge5_Node000002_Node000006"><a xlink:title=" ">
<path fill="none" stroke="orange" stroke-dasharray="5,2" d="M444.59,-47.01C476.98,-48.06 514.88,-50.09 549,-54 554.79,-54.66 560.79,-55.5 566.79,-56.43"/>
<polygon fill="orange" stroke="orange" points="444.38,-43.51 434.28,-46.71 444.17,-50.5 444.38,-43.51"/>
</a>
</g>
<text text-anchor="start" x="455.5" y="-59.5" font-family="Helvetica,sans-Serif" font-size="10.00" fill="grey">&lt; CallExpr, Expr &gt;</text>
</g>
<!-- Node7 -->
<g id="Node000007" class="node">
<title>Node7</title>
<g id="a_Node000007"><a xlink:title=" ">
<polygon fill="white" stroke="#666666" points="228.5,-55.5 181.5,-55.5 181.5,-36.5 228.5,-36.5 228.5,-55.5"/>
<text text-anchor="middle" x="205" y="-43.5" font-family="Helvetica,sans-Serif" font-size="10.00">BaseT</text>
</a>
</g>
</g>
<!-- Node7&#45;&gt;Node6 -->
<g id="edge6_Node000006_Node000007" class="edge">
<title>Node7&#45;&gt;Node6</title>
<g id="a_edge6_Node000006_Node000007"><a xlink:title=" ">
<path fill="none" stroke="#63b8ff" d="M239.07,-46C255.86,-46 276.9,-46 296.91,-46"/>
<polygon fill="#63b8ff" stroke="#63b8ff" points="238.71,-42.5 228.71,-46 238.71,-49.5 238.71,-42.5"/>
</a>
</g>
</g>
<!-- Node8 -->
<g id="Node000008" class="node">
<title>Node8</title>
<g id="a_Node000008"><a xlink:title=" ">
<polygon fill="white" stroke="#666666" points="688.5,-30 572.5,-30 572.5,0 688.5,0 688.5,-30"/>
<text text-anchor="start" x="580.5" y="-18" font-family="Helvetica,sans-Serif" font-size="10.00">llvm::TrailingObjects</text>
<text text-anchor="middle" x="630.5" y="-7" font-family="Helvetica,sans-Serif" font-size="10.00">&lt; CallExpr, Expr * &gt;</text>
</a>
</g>
</g>
<!-- Node8&#45;&gt;Node1 -->
<g id="edge7_Node000001_Node000008" class="edge">
<title>Node8&#45;&gt;Node1</title>
<g id="a_edge7_Node000001_Node000008"><a xlink:title=" ">
<path fill="none" stroke="#8b1a1a" d="M698.83,-19.97C709.44,-20.76 720.36,-21.56 730.87,-22.34"/>
<polygon fill="#8b1a1a" stroke="#8b1a1a" points="699.02,-16.48 688.79,-19.23 698.51,-23.46 699.02,-16.48"/>
</a>
</g>
</g>
</g>
</svg>
