<?xml version="1.0" encoding="UTF-8" standalone="no"?>
<!DOCTYPE svg PUBLIC "-//W3C//DTD SVG 1.1//EN"
 "http://www.w3.org/Graphics/SVG/1.1/DTD/svg11.dtd">
<!-- Generated by graphviz version 2.43.0 (0)
 -->
<!-- Title: mlir::TensorType Pages: 1 -->
<svg width="202pt" height="95pt"
 viewBox="0.00 0.00 201.50 95.00" xmlns="http://www.w3.org/2000/svg" xmlns:xlink="http://www.w3.org/1999/xlink">
<g id="graph0" class="graph" transform="scale(1 1) rotate(0) translate(4 91)">
<title>mlir::TensorType</title>
<!-- Node1 -->
<g id="node1" class="node">
<title>Node1</title>
<g id="a_node1"><a xlink:title="Tensor types represent multi&#45;dimensional arrays, and have two variants: RankedTensorType and Unranked...">
<polygon fill="#bfbfbf" stroke="black" points="37.5,-0.5 37.5,-19.5 133.5,-19.5 133.5,-0.5 37.5,-0.5"/>
<text text-anchor="middle" x="85.5" y="-7.5" font-family="Helvetica,sans-Serif" font-size="10.00">mlir::TensorType</text>
</a>
</g>
</g>
<!-- Node2 -->
<g id="node2" class="node">
<title>Node2</title>
<g id="a_node2"><a xlink:href="classmlir_1_1Type.html" target="_top" xlink:title="Instances of the Type class are uniqued, have an immutable identifier and an optional mutable compone...">
<polygon fill="none" stroke="black" points="0,-62 0,-81 65,-81 65,-62 0,-62"/>
<text text-anchor="middle" x="32.5" y="-69" font-family="Helvetica,sans-Serif" font-size="10.00">mlir::Type</text>
</a>
</g>
</g>
<!-- Node2&#45;&gt;Node1 -->
<g id="edge1" class="edge">
<title>Node2&#45;&gt;Node1</title>
<path fill="none" stroke="midnightblue" d="M46.75,-54.5C56.79,-43.24 69.82,-28.6 77.92,-19.51"/>
<polygon fill="midnightblue" stroke="midnightblue" points="44.13,-52.18 40.09,-61.98 49.36,-56.84 44.13,-52.18"/>
</g>
<!-- Node3 -->
<g id="node3" class="node">
<title>Node3</title>
<g id="a_node3"><a xlink:title=" ">
<polygon fill="none" stroke="#bfbfbf" points="83.5,-56.5 83.5,-86.5 193.5,-86.5 193.5,-56.5 83.5,-56.5"/>
<text text-anchor="start" x="91.5" y="-74.5" font-family="Helvetica,sans-Serif" font-size="10.00">ShapedType::Trait&lt;</text>
<text text-anchor="middle" x="138.5" y="-63.5" font-family="Helvetica,sans-Serif" font-size="10.00"> TensorType &gt;</text>
</a>
</g>
</g>
<!-- Node3&#45;&gt;Node1 -->
<g id="edge2" class="edge">
<title>Node3&#45;&gt;Node1</title>
<path fill="none" stroke="midnightblue" d="M119.08,-48.7C110.12,-38.64 99.98,-27.26 93.21,-19.66"/>
<polygon fill="midnightblue" stroke="midnightblue" points="116.67,-51.26 125.94,-56.4 121.9,-46.6 116.67,-51.26"/>
</g>
</g>
</svg>
