<?xml version="1.0" encoding="UTF-8" standalone="no"?>
<!DOCTYPE svg PUBLIC "-//W3C//DTD SVG 1.1//EN"
 "http://www.w3.org/Graphics/SVG/1.1/DTD/svg11.dtd">
<!-- Generated by graphviz version 2.43.0 (0)
 -->
<!-- Title: mlir::detail::DominanceInfoBase&lt; IsPostDom &gt; Pages: 1 -->
<svg width="326pt" height="177pt"
 viewBox="0.00 0.00 326.00 177.00" xmlns="http://www.w3.org/2000/svg" xmlns:xlink="http://www.w3.org/1999/xlink">
<g id="graph0" class="graph" transform="scale(1 1) rotate(0) translate(4 173)">
<title>mlir::detail::DominanceInfoBase&lt; IsPostDom &gt;</title>
<!-- Node1 -->
<g id="Node000001" class="node">
<title>Node1</title>
<g id="a_Node000001"><a xlink:title=" ">
<polygon fill="#999999" stroke="#666666" points="234,-169 84,-169 84,-139 234,-139 234,-169"/>
<text text-anchor="start" x="92" y="-157" font-family="Helvetica,sans-Serif" font-size="10.00">mlir::detail::DominanceInfo</text>
<text text-anchor="middle" x="159" y="-146" font-family="Helvetica,sans-Serif" font-size="10.00">Base&lt; IsPostDom &gt;</text>
</a>
</g>
</g>
<!-- Node2 -->
<g id="Node000002" class="node">
<title>Node2</title>
<g id="a_Node000002"><a xlink:href="classmlir_1_1detail_1_1DominanceInfoBase.html" target="_top" xlink:title=" ">
<polygon fill="white" stroke="#666666" points="150,-86 0,-86 0,-56 150,-56 150,-86"/>
<text text-anchor="start" x="8" y="-74" font-family="Helvetica,sans-Serif" font-size="10.00">mlir::detail::DominanceInfo</text>
<text text-anchor="middle" x="75" y="-63" font-family="Helvetica,sans-Serif" font-size="10.00">Base&lt; false &gt;</text>
</a>
</g>
</g>
<!-- Node1&#45;&gt;Node2 -->
<g id="edge1_Node000001_Node000002" class="edge">
<title>Node1&#45;&gt;Node2</title>
<g id="a_edge1_Node000001_Node000002"><a xlink:title=" ">
<path fill="none" stroke="orange" stroke-dasharray="5,2" d="M137.03,-131.82C122.13,-117.45 102.83,-98.84 89.75,-86.22"/>
<polygon fill="orange" stroke="orange" points="134.74,-134.47 144.37,-138.89 139.6,-129.43 134.74,-134.47"/>
</a>
</g>
<text text-anchor="start" x="128.5" y="-109.5" font-family="Helvetica,sans-Serif" font-size="10.00" fill="grey">&lt; false &gt;</text>
</g>
<!-- Node4 -->
<g id="Node000004" class="node">
<title>Node4</title>
<g id="a_Node000004"><a xlink:href="classmlir_1_1detail_1_1DominanceInfoBase.html" target="_top" xlink:title=" ">
<polygon fill="white" stroke="#666666" points="318,-86 168,-86 168,-56 318,-56 318,-86"/>
<text text-anchor="start" x="176" y="-74" font-family="Helvetica,sans-Serif" font-size="10.00">mlir::detail::DominanceInfo</text>
<text text-anchor="middle" x="243" y="-63" font-family="Helvetica,sans-Serif" font-size="10.00">Base&lt; true &gt;</text>
</a>
</g>
</g>
<!-- Node1&#45;&gt;Node4 -->
<g id="edge3_Node000001_Node000004" class="edge">
<title>Node1&#45;&gt;Node4</title>
<g id="a_edge3_Node000001_Node000004"><a xlink:title=" ">
<path fill="none" stroke="orange" stroke-dasharray="5,2" d="M180.97,-131.82C195.87,-117.45 215.17,-98.84 228.25,-86.22"/>
<polygon fill="orange" stroke="orange" points="178.4,-129.43 173.63,-138.89 183.26,-134.47 178.4,-129.43"/>
</a>
</g>
<text text-anchor="start" x="212.5" y="-109.5" font-family="Helvetica,sans-Serif" font-size="10.00" fill="grey">&lt; true &gt;</text>
</g>
<!-- Node3 -->
<g id="Node000003" class="node">
<title>Node3</title>
<g id="a_Node000003"><a xlink:href="classmlir_1_1DominanceInfo.html" target="_top" xlink:title="A class for computing basic dominance information.">
<polygon fill="white" stroke="#666666" points="133,-19 17,-19 17,0 133,0 133,-19"/>
<text text-anchor="middle" x="75" y="-7" font-family="Helvetica,sans-Serif" font-size="10.00">mlir::DominanceInfo</text>
</a>
</g>
</g>
<!-- Node2&#45;&gt;Node3 -->
<g id="edge2_Node000002_Node000003" class="edge">
<title>Node2&#45;&gt;Node3</title>
<g id="a_edge2_Node000002_Node000003"><a xlink:title=" ">
<path fill="none" stroke="#63b8ff" d="M75,-45.79C75,-36.36 75,-26.15 75,-19.16"/>
<polygon fill="#63b8ff" stroke="#63b8ff" points="71.5,-45.9 75,-55.9 78.5,-45.9 71.5,-45.9"/>
</a>
</g>
</g>
<!-- Node5 -->
<g id="Node000005" class="node">
<title>Node5</title>
<g id="a_Node000005"><a xlink:href="classmlir_1_1PostDominanceInfo.html" target="_top" xlink:title="A class for computing basic postdominance information.">
<polygon fill="white" stroke="#666666" points="311.5,-19 174.5,-19 174.5,0 311.5,0 311.5,-19"/>
<text text-anchor="middle" x="243" y="-7" font-family="Helvetica,sans-Serif" font-size="10.00">mlir::PostDominanceInfo</text>
</a>
</g>
</g>
<!-- Node4&#45;&gt;Node5 -->
<g id="edge4_Node000004_Node000005" class="edge">
<title>Node4&#45;&gt;Node5</title>
<g id="a_edge4_Node000004_Node000005"><a xlink:title=" ">
<path fill="none" stroke="#63b8ff" d="M243,-45.79C243,-36.36 243,-26.15 243,-19.16"/>
<polygon fill="#63b8ff" stroke="#63b8ff" points="239.5,-45.9 243,-55.9 246.5,-45.9 239.5,-45.9"/>
</a>
</g>
</g>
</g>
</svg>
