<?xml version="1.0" encoding="UTF-8" standalone="no"?>
<!DOCTYPE svg PUBLIC "-//W3C//DTD SVG 1.1//EN"
 "http://www.w3.org/Graphics/SVG/1.1/DTD/svg11.dtd">
<!-- Generated by graphviz version 2.43.0 (0)
 -->
<!-- Title: mlir::Block Pages: 1 -->
<svg width="529pt" height="88pt"
 viewBox="0.00 0.00 529.00 88.00" xmlns="http://www.w3.org/2000/svg" xmlns:xlink="http://www.w3.org/1999/xlink">
<g id="graph0" class="graph" transform="scale(1 1) rotate(0) translate(4 84)">
<title>mlir::Block</title>
<!-- Node1 -->
<g id="node1" class="node">
<title>Node1</title>
<g id="a_node1"><a xlink:title="Block represents an ordered list of Operations.">
<polygon fill="#bfbfbf" stroke="black" points="452,-18 452,-37 521,-37 521,-18 452,-18"/>
<text text-anchor="middle" x="486.5" y="-25" font-family="Helvetica,sans-Serif" font-size="10.00">mlir::Block</text>
</a>
</g>
</g>
<!-- Node2 -->
<g id="node2" class="node">
<title>Node2</title>
<g id="a_node2"><a xlink:href="classmlir_1_1IRObjectWithUseList.html" target="_top" xlink:title=" ">
<polygon fill="none" stroke="black" points="272.5,-49.5 272.5,-79.5 414.5,-79.5 414.5,-49.5 272.5,-49.5"/>
<text text-anchor="start" x="280.5" y="-67.5" font-family="Helvetica,sans-Serif" font-size="10.00">mlir::IRObjectWithUseList</text>
<text text-anchor="middle" x="343.5" y="-56.5" font-family="Helvetica,sans-Serif" font-size="10.00">&lt; BlockOperand &gt;</text>
</a>
</g>
</g>
<!-- Node2&#45;&gt;Node1 -->
<g id="edge1" class="edge">
<title>Node2&#45;&gt;Node1</title>
<path fill="none" stroke="midnightblue" d="M411.86,-46.82C425.68,-43.2 439.67,-39.53 451.68,-36.37"/>
<polygon fill="midnightblue" stroke="midnightblue" points="410.63,-43.53 401.85,-49.45 412.41,-50.3 410.63,-43.53"/>
</g>
<!-- Node3 -->
<g id="node3" class="node">
<title>Node3</title>
<g id="a_node3"><a xlink:href="classmlir_1_1IRObjectWithUseList.html" target="_top" xlink:title="This class represents a single IR object that contains a use list.">
<polygon fill="none" stroke="black" points="0,-49.5 0,-79.5 142,-79.5 142,-49.5 0,-49.5"/>
<text text-anchor="start" x="8" y="-67.5" font-family="Helvetica,sans-Serif" font-size="10.00">mlir::IRObjectWithUseList</text>
<text text-anchor="middle" x="71" y="-56.5" font-family="Helvetica,sans-Serif" font-size="10.00">&lt; OperandType &gt;</text>
</a>
</g>
</g>
<!-- Node3&#45;&gt;Node2 -->
<g id="edge2" class="edge">
<title>Node3&#45;&gt;Node2</title>
<path fill="none" stroke="orange" stroke-dasharray="5,2" d="M152.07,-64.5C190.24,-64.5 235.5,-64.5 272.31,-64.5"/>
<polygon fill="orange" stroke="orange" points="152.01,-61 142.01,-64.5 152.01,-68 152.01,-61"/>
<text text-anchor="middle" x="207" y="-67.5" font-family="Helvetica,sans-Serif" font-size="10.00"> &lt; BlockOperand &gt;</text>
</g>
<!-- Node4 -->
<g id="node4" class="node">
<title>Node4</title>
<g id="a_node4"><a xlink:title=" ">
<polygon fill="none" stroke="#bfbfbf" points="272,-0.5 272,-30.5 415,-30.5 415,-0.5 272,-0.5"/>
<text text-anchor="start" x="280" y="-18.5" font-family="Helvetica,sans-Serif" font-size="10.00">llvm::ilist_node_with</text>
<text text-anchor="middle" x="343.5" y="-7.5" font-family="Helvetica,sans-Serif" font-size="10.00">_parent&lt; Block, Region &gt;</text>
</a>
</g>
</g>
<!-- Node4&#45;&gt;Node1 -->
<g id="edge3" class="edge">
<title>Node4&#45;&gt;Node1</title>
<path fill="none" stroke="midnightblue" d="M425.54,-22.4C434.82,-23.19 443.84,-23.95 451.96,-24.65"/>
<polygon fill="midnightblue" stroke="midnightblue" points="425.67,-18.9 415.41,-21.54 425.08,-25.87 425.67,-18.9"/>
</g>
</g>
</svg>
