<?xml version="1.0" encoding="UTF-8" standalone="no"?>
<!DOCTYPE svg PUBLIC "-//W3C//DTD SVG 1.1//EN"
 "http://www.w3.org/Graphics/SVG/1.1/DTD/svg11.dtd">
<!-- Generated by graphviz version 2.43.0 (0)
 -->
<!-- Title: mlir::python::adaptors::pure_subclass Pages: 1 -->
<svg width="306pt" height="137pt"
 viewBox="0.00 0.00 306.00 137.00" xmlns="http://www.w3.org/2000/svg" xmlns:xlink="http://www.w3.org/1999/xlink">
<g id="graph0" class="graph" transform="scale(1 1) rotate(0) translate(4 133)">
<title>mlir::python::adaptors::pure_subclass</title>
<!-- Node1 -->
<g id="node1" class="node">
<title>Node1</title>
<g id="a_node1"><a xlink:title="Provides a facility like py::class_ for defining a new class in a scope, but this allows extension of...">
<polygon fill="#bfbfbf" stroke="black" points="0,-49.5 0,-79.5 125,-79.5 125,-49.5 0,-49.5"/>
<text text-anchor="start" x="8" y="-67.5" font-family="Helvetica,sans-Serif" font-size="10.00">mlir::python::adaptors</text>
<text text-anchor="middle" x="62.5" y="-56.5" font-family="Helvetica,sans-Serif" font-size="10.00">::pure_subclass</text>
</a>
</g>
</g>
<!-- Node2 -->
<g id="node2" class="node">
<title>Node2</title>
<g id="a_node2"><a xlink:href="classmlir_1_1python_1_1adaptors_1_1mlir__attribute__subclass.html" target="_top" xlink:title="Creates a custom subclass of mlir.ir.Attribute, implementing a casting constructor and type checking ...">
<polygon fill="none" stroke="black" points="161,-98.5 161,-128.5 298,-128.5 298,-98.5 161,-98.5"/>
<text text-anchor="start" x="169" y="-116.5" font-family="Helvetica,sans-Serif" font-size="10.00">mlir::python::adaptors</text>
<text text-anchor="middle" x="229.5" y="-105.5" font-family="Helvetica,sans-Serif" font-size="10.00">::mlir_attribute_subclass</text>
</a>
</g>
</g>
<!-- Node1&#45;&gt;Node2 -->
<g id="edge1" class="edge">
<title>Node1&#45;&gt;Node2</title>
<path fill="none" stroke="midnightblue" d="M124,-82.47C141.68,-87.72 160.81,-93.4 177.82,-98.45"/>
<polygon fill="midnightblue" stroke="midnightblue" points="124.93,-79.09 114.35,-79.6 122.94,-85.8 124.93,-79.09"/>
</g>
<!-- Node3 -->
<g id="node3" class="node">
<title>Node3</title>
<g id="a_node3"><a xlink:href="classmlir_1_1python_1_1adaptors_1_1mlir__type__subclass.html" target="_top" xlink:title="Creates a custom subclass of mlir.ir.Type, implementing a casting constructor and type checking metho...">
<polygon fill="none" stroke="black" points="167,-49.5 167,-79.5 292,-79.5 292,-49.5 167,-49.5"/>
<text text-anchor="start" x="175" y="-67.5" font-family="Helvetica,sans-Serif" font-size="10.00">mlir::python::adaptors</text>
<text text-anchor="middle" x="229.5" y="-56.5" font-family="Helvetica,sans-Serif" font-size="10.00">::mlir_type_subclass</text>
</a>
</g>
</g>
<!-- Node1&#45;&gt;Node3 -->
<g id="edge2" class="edge">
<title>Node1&#45;&gt;Node3</title>
<path fill="none" stroke="midnightblue" d="M135.68,-64.5C146.05,-64.5 156.65,-64.5 166.79,-64.5"/>
<polygon fill="midnightblue" stroke="midnightblue" points="135.41,-61 125.41,-64.5 135.41,-68 135.41,-61"/>
</g>
<!-- Node4 -->
<g id="node4" class="node">
<title>Node4</title>
<g id="a_node4"><a xlink:href="classmlir_1_1python_1_1adaptors_1_1mlir__value__subclass.html" target="_top" xlink:title="Creates a custom subclass of mlir.ir.Value, implementing a casting constructor and type checking meth...">
<polygon fill="none" stroke="black" points="167,-0.5 167,-30.5 292,-30.5 292,-0.5 167,-0.5"/>
<text text-anchor="start" x="175" y="-18.5" font-family="Helvetica,sans-Serif" font-size="10.00">mlir::python::adaptors</text>
<text text-anchor="middle" x="229.5" y="-7.5" font-family="Helvetica,sans-Serif" font-size="10.00">::mlir_value_subclass</text>
</a>
</g>
</g>
<!-- Node1&#45;&gt;Node4 -->
<g id="edge3" class="edge">
<title>Node1&#45;&gt;Node4</title>
<path fill="none" stroke="midnightblue" d="M124,-46.53C141.68,-41.28 160.81,-35.6 177.82,-30.55"/>
<polygon fill="midnightblue" stroke="midnightblue" points="122.94,-43.2 114.35,-49.4 124.93,-49.91 122.94,-43.2"/>
</g>
</g>
</svg>
