<?xml version="1.0" encoding="UTF-8" standalone="no"?>
<!DOCTYPE svg PUBLIC "-//W3C//DTD SVG 1.1//EN"
 "http://www.w3.org/Graphics/SVG/1.1/DTD/svg11.dtd">
<!-- Generated by graphviz version 2.43.0 (0)
 -->
<!-- Title: mlir::OpTrait::OneOperand&lt; ConcreteType &gt; Pages: 1 -->
<svg width="253pt" height="185pt"
 viewBox="0.00 0.00 253.00 185.00" xmlns="http://www.w3.org/2000/svg" xmlns:xlink="http://www.w3.org/1999/xlink">
<g id="graph0" class="graph" transform="scale(1 1) rotate(0) translate(4 181)">
<title>mlir::OpTrait::OneOperand&lt; ConcreteType &gt;</title>
<!-- Node1 -->
<g id="node1" class="node">
<title>Node1</title>
<g id="a_node1"><a xlink:title="This class provides the API for ops that are known to have exactly one SSA operand.">
<polygon fill="#bfbfbf" stroke="black" points="14.5,-0.5 14.5,-30.5 157.5,-30.5 157.5,-0.5 14.5,-0.5"/>
<text text-anchor="start" x="22.5" y="-18.5" font-family="Helvetica,sans-Serif" font-size="10.00">mlir::OpTrait::OneOperand</text>
<text text-anchor="middle" x="86" y="-7.5" font-family="Helvetica,sans-Serif" font-size="10.00">&lt; ConcreteType &gt;</text>
</a>
</g>
</g>
<!-- Node2 -->
<g id="node2" class="node">
<title>Node2</title>
<g id="a_node2"><a xlink:href="classmlir_1_1OpTrait_1_1TraitBase.html" target="_top" xlink:title=" ">
<polygon fill="none" stroke="black" points="0,-68.5 0,-98.5 172,-98.5 172,-68.5 0,-68.5"/>
<text text-anchor="start" x="8" y="-86.5" font-family="Helvetica,sans-Serif" font-size="10.00">mlir::OpTrait::TraitBase</text>
<text text-anchor="middle" x="86" y="-75.5" font-family="Helvetica,sans-Serif" font-size="10.00">&lt; ConcreteType, OneOperand &gt;</text>
</a>
</g>
</g>
<!-- Node2&#45;&gt;Node1 -->
<g id="edge1" class="edge">
<title>Node2&#45;&gt;Node1</title>
<path fill="none" stroke="midnightblue" d="M86,-58.03C86,-48.86 86,-38.74 86,-30.79"/>
<polygon fill="midnightblue" stroke="midnightblue" points="82.5,-58.18 86,-68.18 89.5,-58.18 82.5,-58.18"/>
</g>
<!-- Node3 -->
<g id="node3" class="node">
<title>Node3</title>
<g id="a_node3"><a xlink:href="classmlir_1_1OpTrait_1_1TraitBase.html" target="_top" xlink:title="Helper class for implementing traits.">
<polygon fill="none" stroke="black" points="8.5,-146.5 8.5,-176.5 163.5,-176.5 163.5,-146.5 8.5,-146.5"/>
<text text-anchor="start" x="16.5" y="-164.5" font-family="Helvetica,sans-Serif" font-size="10.00">mlir::OpTrait::TraitBase</text>
<text text-anchor="middle" x="86" y="-153.5" font-family="Helvetica,sans-Serif" font-size="10.00">&lt; ConcreteType, TraitType &gt;</text>
</a>
</g>
</g>
<!-- Node3&#45;&gt;Node2 -->
<g id="edge2" class="edge">
<title>Node3&#45;&gt;Node2</title>
<path fill="none" stroke="orange" stroke-dasharray="5,2" d="M86,-136.09C86,-123.76 86,-109.22 86,-98.73"/>
<polygon fill="orange" stroke="orange" points="82.5,-136.2 86,-146.2 89.5,-136.21 82.5,-136.2"/>
<text text-anchor="middle" x="165.5" y="-120" font-family="Helvetica,sans-Serif" font-size="10.00"> &lt; ConcreteType, OneOperand &gt;</text>
</g>
</g>
</svg>
