<?xml version="1.0" encoding="UTF-8" standalone="no"?>
<!DOCTYPE svg PUBLIC "-//W3C//DTD SVG 1.1//EN"
 "http://www.w3.org/Graphics/SVG/1.1/DTD/svg11.dtd">
<!-- Generated by graphviz version 2.43.0 (0)
 -->
<!-- Title: mlir::DynamicOpTrait Pages: 1 -->
<svg width="806pt" height="154pt"
 viewBox="0.00 0.00 806.00 153.50" xmlns="http://www.w3.org/2000/svg" xmlns:xlink="http://www.w3.org/1999/xlink">
<g id="graph0" class="graph" transform="scale(1 1) rotate(0) translate(4 149.5)">
<title>mlir::DynamicOpTrait</title>
<!-- Node1 -->
<g id="Node000001" class="node">
<title>Node1</title>
<g id="a_Node000001"><a xlink:title="Base class of traits for dynamic&#45;defined operations.">
<polygon fill="#999999" stroke="#666666" points="120,-78 0,-78 0,-59 120,-59 120,-78"/>
<text text-anchor="middle" x="60" y="-66" font-family="Helvetica,sans-Serif" font-size="10.00">mlir::DynamicOpTrait</text>
</a>
</g>
</g>
<!-- Node2 -->
<g id="Node000002" class="node">
<title>Node2</title>
<g id="a_Node000002"><a xlink:href="classmlir_1_1DynamicOpTraitImpl.html" target="_top" xlink:title=" ">
<polygon fill="white" stroke="#666666" points="634,-145.5 492,-145.5 492,-115.5 634,-115.5 634,-145.5"/>
<text text-anchor="start" x="500" y="-133.5" font-family="Helvetica,sans-Serif" font-size="10.00">mlir::DynamicOpTraitImpl</text>
<text text-anchor="middle" x="563" y="-122.5" font-family="Helvetica,sans-Serif" font-size="10.00">&lt; OpTrait::IsTerminator &gt;</text>
</a>
</g>
</g>
<!-- Node1&#45;&gt;Node2 -->
<g id="edge1_Node000001_Node000002" class="edge">
<title>Node1&#45;&gt;Node2</title>
<g id="a_edge1_Node000001_Node000002"><a xlink:title=" ">
<path fill="none" stroke="#63b8ff" d="M85.85,-83.09C104.74,-93.5 131.7,-106.95 157,-114.5 270.45,-148.36 409.71,-144.63 491.85,-138.08"/>
<polygon fill="#63b8ff" stroke="#63b8ff" points="87.45,-79.97 77.02,-78.11 84.01,-86.07 87.45,-79.97"/>
</a>
</g>
</g>
<!-- Node4 -->
<g id="Node000004" class="node">
<title>Node4</title>
<g id="a_Node000004"><a xlink:href="classmlir_1_1DynamicOpTraitImpl.html" target="_top" xlink:title=" ">
<polygon fill="white" stroke="#666666" points="636,-85.5 490,-85.5 490,-55.5 636,-55.5 636,-85.5"/>
<text text-anchor="start" x="498" y="-73.5" font-family="Helvetica,sans-Serif" font-size="10.00">mlir::DynamicOpTraitImpl</text>
<text text-anchor="middle" x="563" y="-62.5" font-family="Helvetica,sans-Serif" font-size="10.00">&lt; OpTrait::NoTerminator &gt;</text>
</a>
</g>
</g>
<!-- Node1&#45;&gt;Node4 -->
<g id="edge3_Node000001_Node000004" class="edge">
<title>Node1&#45;&gt;Node4</title>
<g id="a_edge3_Node000001_Node000004"><a xlink:title=" ">
<path fill="none" stroke="#63b8ff" d="M130.24,-66.89C139.24,-66.73 148.34,-66.59 157,-66.5 273.54,-65.29 408.95,-67.32 489.94,-68.91"/>
<polygon fill="#63b8ff" stroke="#63b8ff" points="130.08,-63.39 120.15,-67.07 130.21,-70.39 130.08,-63.39"/>
</a>
</g>
</g>
<!-- Node6 -->
<g id="Node000006" class="node">
<title>Node6</title>
<g id="a_Node000006"><a xlink:href="classmlir_1_1DynamicOpTraitImpl.html" target="_top" xlink:title=" ">
<polygon fill="white" stroke="#666666" points="308.5,-105.5 166.5,-105.5 166.5,-75.5 308.5,-75.5 308.5,-105.5"/>
<text text-anchor="start" x="174.5" y="-93.5" font-family="Helvetica,sans-Serif" font-size="10.00">mlir::DynamicOpTraitImpl</text>
<text text-anchor="middle" x="237.5" y="-82.5" font-family="Helvetica,sans-Serif" font-size="10.00">&lt; Trait &gt;</text>
</a>
</g>
</g>
<!-- Node1&#45;&gt;Node6 -->
<g id="edge5_Node000001_Node000006" class="edge">
<title>Node1&#45;&gt;Node6</title>
<g id="a_edge5_Node000001_Node000006"><a xlink:title=" ">
<path fill="none" stroke="#63b8ff" d="M130.58,-77.22C142.3,-78.69 154.48,-80.22 166.22,-81.69"/>
<polygon fill="#63b8ff" stroke="#63b8ff" points="130.77,-73.72 120.42,-75.95 129.9,-80.66 130.77,-73.72"/>
</a>
</g>
</g>
<!-- Node7 -->
<g id="Node000007" class="node">
<title>Node7</title>
<g id="a_Node000007"><a xlink:href="classmlir_1_1ExternalDynamicOpTrait.html" target="_top" xlink:title=" ">
<polygon fill="white" stroke="#666666" points="318,-19 157,-19 157,0 318,0 318,-19"/>
<text text-anchor="middle" x="237.5" y="-7" font-family="Helvetica,sans-Serif" font-size="10.00">mlir::ExternalDynamicOpTrait</text>
</a>
</g>
</g>
<!-- Node1&#45;&gt;Node7 -->
<g id="edge8_Node000001_Node000007" class="edge">
<title>Node1&#45;&gt;Node7</title>
<g id="a_edge8_Node000001_Node000007"><a xlink:title=" ">
<path fill="none" stroke="#63b8ff" d="M88.91,-54.28C103.31,-47.34 121.31,-39.27 138,-33.5 154.47,-27.81 172.93,-22.93 189.38,-19.08"/>
<polygon fill="#63b8ff" stroke="#63b8ff" points="87.02,-51.31 79.58,-58.86 90.1,-57.59 87.02,-51.31"/>
</a>
</g>
</g>
<!-- Node3 -->
<g id="Node000003" class="node">
<title>Node3</title>
<g id="a_Node000003"><a xlink:href="classmlir_1_1DynamicOpTraits_1_1IsTerminator.html" target="_top" xlink:title=" ">
<polygon fill="white" stroke="#666666" points="798,-145.5 673,-145.5 673,-115.5 798,-115.5 798,-145.5"/>
<text text-anchor="start" x="681" y="-133.5" font-family="Helvetica,sans-Serif" font-size="10.00">mlir::DynamicOpTraits</text>
<text text-anchor="middle" x="735.5" y="-122.5" font-family="Helvetica,sans-Serif" font-size="10.00">::IsTerminator</text>
</a>
</g>
</g>
<!-- Node2&#45;&gt;Node3 -->
<g id="edge2_Node000002_Node000003" class="edge">
<title>Node2&#45;&gt;Node3</title>
<g id="a_edge2_Node000002_Node000003"><a xlink:title=" ">
<path fill="none" stroke="#63b8ff" d="M644.57,-130.5C654.05,-130.5 663.61,-130.5 672.77,-130.5"/>
<polygon fill="#63b8ff" stroke="#63b8ff" points="644.33,-127 634.33,-130.5 644.33,-134 644.33,-127"/>
</a>
</g>
</g>
<!-- Node5 -->
<g id="Node000005" class="node">
<title>Node5</title>
<g id="a_Node000005"><a xlink:href="classmlir_1_1DynamicOpTraits_1_1NoTerminator.html" target="_top" xlink:title=" ">
<polygon fill="white" stroke="#666666" points="798,-85.5 673,-85.5 673,-55.5 798,-55.5 798,-85.5"/>
<text text-anchor="start" x="681" y="-73.5" font-family="Helvetica,sans-Serif" font-size="10.00">mlir::DynamicOpTraits</text>
<text text-anchor="middle" x="735.5" y="-62.5" font-family="Helvetica,sans-Serif" font-size="10.00">::NoTerminator</text>
</a>
</g>
</g>
<!-- Node4&#45;&gt;Node5 -->
<g id="edge4_Node000004_Node000005" class="edge">
<title>Node4&#45;&gt;Node5</title>
<g id="a_edge4_Node000004_Node000005"><a xlink:title=" ">
<path fill="none" stroke="#63b8ff" d="M646.34,-70.5C655.27,-70.5 664.23,-70.5 672.85,-70.5"/>
<polygon fill="#63b8ff" stroke="#63b8ff" points="646.31,-67 636.31,-70.5 646.31,-74 646.31,-67"/>
</a>
</g>
</g>
<!-- Node6&#45;&gt;Node2 -->
<g id="edge6_Node000006_Node000002" class="edge">
<title>Node6&#45;&gt;Node2</title>
<g id="a_edge6_Node000006_Node000002"><a xlink:title=" ">
<path fill="none" stroke="orange" stroke-dasharray="5,2" d="M318.77,-100.42C371.93,-107 441,-115.54 491.94,-121.84"/>
<polygon fill="orange" stroke="orange" points="319.05,-96.93 308.69,-99.18 318.19,-103.88 319.05,-96.93"/>
</a>
</g>
<text text-anchor="start" x="342" y="-124" font-family="Helvetica,sans-Serif" font-size="10.00" fill="grey">&lt; OpTrait::IsTerminator &gt;</text>
</g>
<!-- Node6&#45;&gt;Node4 -->
<g id="edge7_Node000006_Node000004" class="edge">
<title>Node6&#45;&gt;Node4</title>
<g id="a_edge7_Node000006_Node000004"><a xlink:title=" ">
<path fill="none" stroke="orange" stroke-dasharray="5,2" d="M318.48,-82.83C324.41,-82.35 330.3,-81.9 336,-81.5 387.43,-77.88 445.53,-75.08 489.94,-73.21"/>
<polygon fill="orange" stroke="orange" points="318.18,-79.35 308.5,-83.67 318.76,-86.32 318.18,-79.35"/>
</a>
</g>
<text text-anchor="start" x="339" y="-87" font-family="Helvetica,sans-Serif" font-size="10.00" fill="grey">&lt; OpTrait::NoTerminator &gt;</text>
</g>
</g>
</svg>
