<?xml version="1.0" encoding="UTF-8" standalone="no"?>
<!DOCTYPE svg PUBLIC "-//W3C//DTD SVG 1.1//EN"
 "http://www.w3.org/Graphics/SVG/1.1/DTD/svg11.dtd">
<!-- Generated by graphviz version 2.43.0 (0)
 -->
<!-- Title: mlir::dataflow::Lattice&lt; ValueT &gt; Pages: 1 -->
<svg width="202pt" height="310pt"
 viewBox="0.00 0.00 201.50 310.00" xmlns="http://www.w3.org/2000/svg" xmlns:xlink="http://www.w3.org/1999/xlink">
<g id="graph0" class="graph" transform="scale(1 1) rotate(0) translate(4 306)">
<title>mlir::dataflow::Lattice&lt; ValueT &gt;</title>
<!-- Node1 -->
<g id="node1" class="node">
<title>Node1</title>
<g id="a_node1"><a xlink:title="This class represents a lattice holding a specific value of type ValueT.">
<polygon fill="#bfbfbf" stroke="black" points="14.5,-146.5 14.5,-176.5 136.5,-176.5 136.5,-146.5 14.5,-146.5"/>
<text text-anchor="start" x="22.5" y="-164.5" font-family="Helvetica,sans-Serif" font-size="10.00">mlir::dataflow::Lattice</text>
<text text-anchor="middle" x="75.5" y="-153.5" font-family="Helvetica,sans-Serif" font-size="10.00">&lt; ValueT &gt;</text>
</a>
</g>
</g>
<!-- Node4 -->
<g id="node4" class="node">
<title>Node4</title>
<g id="a_node4"><a xlink:href="classmlir_1_1dataflow_1_1Lattice.html" target="_top" xlink:title=" ">
<polygon fill="none" stroke="black" points="10,-68.5 10,-98.5 141,-98.5 141,-68.5 10,-68.5"/>
<text text-anchor="start" x="18" y="-86.5" font-family="Helvetica,sans-Serif" font-size="10.00">mlir::dataflow::Lattice</text>
<text text-anchor="middle" x="75.5" y="-75.5" font-family="Helvetica,sans-Serif" font-size="10.00">&lt; IntegerValueRange &gt;</text>
</a>
</g>
</g>
<!-- Node1&#45;&gt;Node4 -->
<g id="edge3" class="edge">
<title>Node1&#45;&gt;Node4</title>
<path fill="none" stroke="orange" stroke-dasharray="5,2" d="M75.5,-136.09C75.5,-123.76 75.5,-109.22 75.5,-98.73"/>
<polygon fill="orange" stroke="orange" points="72,-136.2 75.5,-146.2 79,-136.21 72,-136.2"/>
<text text-anchor="middle" x="134.5" y="-120" font-family="Helvetica,sans-Serif" font-size="10.00"> &lt; IntegerValueRange &gt;</text>
</g>
<!-- Node2 -->
<g id="node2" class="node">
<title>Node2</title>
<g id="a_node2"><a xlink:href="classmlir_1_1dataflow_1_1AbstractSparseLattice.html" target="_top" xlink:title="This class represents an abstract lattice.">
<polygon fill="none" stroke="black" points="10.5,-214.5 10.5,-244.5 140.5,-244.5 140.5,-214.5 10.5,-214.5"/>
<text text-anchor="start" x="18.5" y="-232.5" font-family="Helvetica,sans-Serif" font-size="10.00">mlir::dataflow::Abstract</text>
<text text-anchor="middle" x="75.5" y="-221.5" font-family="Helvetica,sans-Serif" font-size="10.00">SparseLattice</text>
</a>
</g>
</g>
<!-- Node2&#45;&gt;Node1 -->
<g id="edge1" class="edge">
<title>Node2&#45;&gt;Node1</title>
<path fill="none" stroke="midnightblue" d="M75.5,-204.03C75.5,-194.86 75.5,-184.74 75.5,-176.79"/>
<polygon fill="midnightblue" stroke="midnightblue" points="72,-204.18 75.5,-214.18 79,-204.18 72,-204.18"/>
</g>
<!-- Node3 -->
<g id="node3" class="node">
<title>Node3</title>
<g id="a_node3"><a xlink:href="classmlir_1_1AnalysisState.html" target="_top" xlink:title="Base class for generic analysis states.">
<polygon fill="none" stroke="black" points="21,-282.5 21,-301.5 130,-301.5 130,-282.5 21,-282.5"/>
<text text-anchor="middle" x="75.5" y="-289.5" font-family="Helvetica,sans-Serif" font-size="10.00">mlir::AnalysisState</text>
</a>
</g>
</g>
<!-- Node3&#45;&gt;Node2 -->
<g id="edge2" class="edge">
<title>Node3&#45;&gt;Node2</title>
<path fill="none" stroke="midnightblue" d="M75.5,-272.22C75.5,-263.36 75.5,-252.96 75.5,-244.76"/>
<polygon fill="midnightblue" stroke="midnightblue" points="72,-272.33 75.5,-282.33 79,-272.33 72,-272.33"/>
</g>
<!-- Node5 -->
<g id="node5" class="node">
<title>Node5</title>
<g id="a_node5"><a xlink:href="classmlir_1_1dataflow_1_1IntegerValueRangeLattice.html" target="_top" xlink:title="This lattice element represents the integer value range of an SSA value.">
<polygon fill="none" stroke="black" points="0,-0.5 0,-30.5 151,-30.5 151,-0.5 0,-0.5"/>
<text text-anchor="start" x="8" y="-18.5" font-family="Helvetica,sans-Serif" font-size="10.00">mlir::dataflow::IntegerValue</text>
<text text-anchor="middle" x="75.5" y="-7.5" font-family="Helvetica,sans-Serif" font-size="10.00">RangeLattice</text>
</a>
</g>
</g>
<!-- Node4&#45;&gt;Node5 -->
<g id="edge4" class="edge">
<title>Node4&#45;&gt;Node5</title>
<path fill="none" stroke="midnightblue" d="M75.5,-58.03C75.5,-48.86 75.5,-38.74 75.5,-30.79"/>
<polygon fill="midnightblue" stroke="midnightblue" points="72,-58.18 75.5,-68.18 79,-58.18 72,-58.18"/>
</g>
</g>
</svg>
