<?xml version="1.0" encoding="UTF-8" standalone="no"?>
<!DOCTYPE svg PUBLIC "-//W3C//DTD SVG 1.1//EN"
 "http://www.w3.org/Graphics/SVG/1.1/DTD/svg11.dtd">
<!-- Generated by graphviz version 2.43.0 (0)
 -->
<!-- Title: PassPipelineOptions Pages: 1 -->
<svg width="377pt" height="264pt"
 viewBox="0.00 0.00 377.00 263.50" xmlns="http://www.w3.org/2000/svg" xmlns:xlink="http://www.w3.org/1999/xlink">
<g id="graph0" class="graph" transform="scale(1 1) rotate(0) translate(4 259.5)">
<title>PassPipelineOptions</title>
<!-- Node1 -->
<g id="Node000001" class="node">
<title>Node1</title>
<g id="a_Node000001"><a xlink:title=" ">
<polygon fill="#999999" stroke="#666666" points="115,-132 0,-132 0,-113 115,-113 115,-132"/>
<text text-anchor="middle" x="57.5" y="-120" font-family="Helvetica,sans-Serif" font-size="10.00">PassPipelineOptions</text>
</a>
</g>
</g>
<!-- Node2 -->
<g id="Node000002" class="node">
<title>Node2</title>
<g id="a_Node000002"><a xlink:href="structmlir_1_1bufferization_1_1BufferDeallocationPipelineOptions.html" target="_top" xlink:title="Options for the buffer deallocation pipeline.">
<polygon fill="white" stroke="#666666" points="357.5,-255.5 162.5,-255.5 162.5,-203.5 357.5,-203.5 357.5,-255.5"/>
<text text-anchor="start" x="170.5" y="-243.5" font-family="Helvetica,sans-Serif" font-size="10.00">mlir::bufferization</text>
<text text-anchor="start" x="170.5" y="-232.5" font-family="Helvetica,sans-Serif" font-size="10.00">::BufferDeallocationPipeline</text>
<text text-anchor="start" x="170.5" y="-221.5" font-family="Helvetica,sans-Serif" font-size="10.00">Options&lt; BufferDeallocationPipeline</text>
<text text-anchor="middle" x="260" y="-210.5" font-family="Helvetica,sans-Serif" font-size="10.00">Options &gt;</text>
</a>
</g>
</g>
<!-- Node1&#45;&gt;Node2 -->
<g id="edge1_Node000001_Node000002" class="edge">
<title>Node1&#45;&gt;Node2</title>
<g id="a_edge1_Node000001_Node000002"><a xlink:title=" ">
<path fill="none" stroke="#63b8ff" d="M76.26,-139.42C93.97,-155.51 122.57,-179.43 151,-194.5 157.01,-197.68 163.36,-200.65 169.85,-203.39"/>
<polygon fill="#63b8ff" stroke="#63b8ff" points="78.2,-136.45 68.48,-132.22 73.44,-141.58 78.2,-136.45"/>
</a>
</g>
</g>
<!-- Node3 -->
<g id="Node000003" class="node">
<title>Node3</title>
<g id="a_Node000003"><a xlink:href="structmlir_1_1gpu_1_1GPUToNVVMPipelineOptions.html" target="_top" xlink:title="Options for the gpu to nvvm pipeline.">
<polygon fill="white" stroke="#666666" points="367.5,-185.5 152.5,-185.5 152.5,-155.5 367.5,-155.5 367.5,-185.5"/>
<text text-anchor="start" x="160.5" y="-173.5" font-family="Helvetica,sans-Serif" font-size="10.00">mlir::gpu::GPUToNVVMPipeline</text>
<text text-anchor="middle" x="260" y="-162.5" font-family="Helvetica,sans-Serif" font-size="10.00">Options&lt; GPUToNVVMPipelineOptions &gt;</text>
</a>
</g>
</g>
<!-- Node1&#45;&gt;Node3 -->
<g id="edge2_Node000001_Node000003" class="edge">
<title>Node1&#45;&gt;Node3</title>
<g id="a_edge2_Node000001_Node000003"><a xlink:title=" ">
<path fill="none" stroke="#63b8ff" d="M104.03,-134.65C118.97,-138.55 135.67,-142.81 151,-146.5 163.51,-149.51 176.87,-152.59 189.78,-155.5"/>
<polygon fill="#63b8ff" stroke="#63b8ff" points="104.57,-131.18 94.01,-132.02 102.79,-137.95 104.57,-131.18"/>
</a>
</g>
</g>
<!-- Node4 -->
<g id="Node000004" class="node">
<title>Node4</title>
<g id="a_Node000004"><a xlink:href="structmlir_1_1gpu_1_1GPUToROCDLPipelineOptions.html" target="_top" xlink:title="Options for the gpu to rocdl pipeline.">
<polygon fill="white" stroke="#666666" points="369,-137.5 151,-137.5 151,-107.5 369,-107.5 369,-137.5"/>
<text text-anchor="start" x="159" y="-125.5" font-family="Helvetica,sans-Serif" font-size="10.00">mlir::gpu::GPUToROCDLPipeline</text>
<text text-anchor="middle" x="260" y="-114.5" font-family="Helvetica,sans-Serif" font-size="10.00">Options&lt; GPUToROCDLPipelineOptions &gt;</text>
</a>
</g>
</g>
<!-- Node1&#45;&gt;Node4 -->
<g id="edge3_Node000001_Node000004" class="edge">
<title>Node1&#45;&gt;Node4</title>
<g id="a_edge3_Node000001_Node000004"><a xlink:title=" ">
<path fill="none" stroke="#63b8ff" d="M125.38,-122.5C133.61,-122.5 142.18,-122.5 150.82,-122.5"/>
<polygon fill="#63b8ff" stroke="#63b8ff" points="125.15,-119 115.15,-122.5 125.15,-126 125.15,-119"/>
</a>
</g>
</g>
<!-- Node5 -->
<g id="Node000005" class="node">
<title>Node5</title>
<g id="a_Node000005"><a xlink:href="structmlir_1_1gpu_1_1GPUToXeVMPipelineOptions.html" target="_top" xlink:title=" ">
<polygon fill="white" stroke="#666666" points="366.5,-89.5 153.5,-89.5 153.5,-59.5 366.5,-59.5 366.5,-89.5"/>
<text text-anchor="start" x="161.5" y="-77.5" font-family="Helvetica,sans-Serif" font-size="10.00">mlir::gpu::GPUToXeVMPipeline</text>
<text text-anchor="middle" x="260" y="-66.5" font-family="Helvetica,sans-Serif" font-size="10.00">Options&lt; GPUToXeVMPipelineOptions &gt;</text>
</a>
</g>
</g>
<!-- Node1&#45;&gt;Node5 -->
<g id="edge4_Node000001_Node000005" class="edge">
<title>Node1&#45;&gt;Node5</title>
<g id="a_edge4_Node000001_Node000005"><a xlink:title=" ">
<path fill="none" stroke="#63b8ff" d="M104.03,-110.35C118.97,-106.45 135.67,-102.19 151,-98.5 163.51,-95.49 176.87,-92.41 189.78,-89.5"/>
<polygon fill="#63b8ff" stroke="#63b8ff" points="102.79,-107.05 94.01,-112.98 104.57,-113.82 102.79,-107.05"/>
</a>
</g>
</g>
<!-- Node6 -->
<g id="Node000006" class="node">
<title>Node6</title>
<g id="a_Node000006"><a xlink:href="structmlir_1_1sparse__tensor_1_1SparsifierOptions.html" target="_top" xlink:title="Options for the &quot;sparsifier&quot; pipeline.">
<polygon fill="white" stroke="#666666" points="321,-41 199,-41 199,0 321,0 321,-41"/>
<text text-anchor="start" x="207" y="-29" font-family="Helvetica,sans-Serif" font-size="10.00">mlir::sparse_tensor</text>
<text text-anchor="start" x="207" y="-18" font-family="Helvetica,sans-Serif" font-size="10.00">::SparsifierOptions</text>
<text text-anchor="middle" x="260" y="-7" font-family="Helvetica,sans-Serif" font-size="10.00">&lt; SparsifierOptions &gt;</text>
</a>
</g>
</g>
<!-- Node1&#45;&gt;Node6 -->
<g id="edge5_Node000001_Node000006" class="edge">
<title>Node1&#45;&gt;Node6</title>
<g id="a_edge5_Node000001_Node000006"><a xlink:title=" ">
<path fill="none" stroke="#63b8ff" d="M75.83,-105.58C93.42,-89.29 122.1,-65.04 151,-50.5 165.86,-43.02 182.84,-37.19 198.87,-32.74"/>
<polygon fill="#63b8ff" stroke="#63b8ff" points="73,-103.45 68.14,-112.86 77.81,-108.53 73,-103.45"/>
</a>
</g>
</g>
</g>
</svg>
