<?xml version="1.0" encoding="UTF-8" standalone="no"?>
<!DOCTYPE svg PUBLIC "-//W3C//DTD SVG 1.1//EN"
 "http://www.w3.org/Graphics/SVG/1.1/DTD/svg11.dtd">
<!-- Generated by graphviz version 2.43.0 (0)
 -->
<!-- Title: mlir::python::MLIR_BINDINGS_PYTHON_DOMAIN::PyDenseElementsAttribute Pages: 1 -->
<svg width="1538pt" height="152pt"
 viewBox="0.00 0.00 1538.00 152.00" xmlns="http://www.w3.org/2000/svg" xmlns:xlink="http://www.w3.org/1999/xlink">
<g id="graph0" class="graph" transform="scale(1 1) rotate(0) translate(4 148)">
<title>mlir::python::MLIR_BINDINGS_PYTHON_DOMAIN::PyDenseElementsAttribute</title>
<!-- Node1 -->
<g id="Node000001" class="node">
<title>Node1</title>
<g id="a_Node000001"><a xlink:title=" ">
<polygon fill="#999999" stroke="#666666" points="1122,-92 959,-92 959,-51 1122,-51 1122,-92"/>
<text text-anchor="start" x="967" y="-80" font-family="Helvetica,sans-Serif" font-size="10.00">mlir::python::MLIR</text>
<text text-anchor="start" x="967" y="-69" font-family="Helvetica,sans-Serif" font-size="10.00">_BINDINGS_PYTHON_DOMAIN</text>
<text text-anchor="middle" x="1040.5" y="-58" font-family="Helvetica,sans-Serif" font-size="10.00">::PyDenseElementsAttribute</text>
</a>
</g>
</g>
<!-- Node6 -->
<g id="Node000006" class="node">
<title>Node6</title>
<g id="a_Node000006"><a xlink:href="classmlir_1_1python_1_1MLIR__BINDINGS__PYTHON__DOMAIN_1_1PyConcreteAttribute.html" target="_top" xlink:title=" ">
<polygon fill="white" stroke="#666666" points="1325.5,-144 1159.5,-144 1159.5,-81 1325.5,-81 1325.5,-144"/>
<text text-anchor="start" x="1167.5" y="-132" font-family="Helvetica,sans-Serif" font-size="10.00">mlir::python::MLIR</text>
<text text-anchor="start" x="1167.5" y="-121" font-family="Helvetica,sans-Serif" font-size="10.00">_BINDINGS_PYTHON_DOMAIN</text>
<text text-anchor="start" x="1167.5" y="-110" font-family="Helvetica,sans-Serif" font-size="10.00">::PyConcreteAttribute&lt;</text>
<text text-anchor="start" x="1167.5" y="-99" font-family="Helvetica,sans-Serif" font-size="10.00"> PyDenseFPElementsAttribute,</text>
<text text-anchor="middle" x="1242.5" y="-88" font-family="Helvetica,sans-Serif" font-size="10.00"> PyDenseElementsAttribute &gt;</text>
</a>
</g>
</g>
<!-- Node1&#45;&gt;Node6 -->
<g id="edge6_Node000001_Node000006" class="edge">
<title>Node1&#45;&gt;Node6</title>
<g id="a_edge6_Node000001_Node000006"><a xlink:title=" ">
<path fill="none" stroke="#63b8ff" d="M1132.1,-90.07C1141.22,-91.94 1150.43,-93.83 1159.45,-95.68"/>
<polygon fill="#63b8ff" stroke="#63b8ff" points="1132.77,-86.64 1122.27,-88.06 1131.36,-93.5 1132.77,-86.64"/>
</a>
</g>
</g>
<!-- Node8 -->
<g id="Node000008" class="node">
<title>Node8</title>
<g id="a_Node000008"><a xlink:href="classmlir_1_1python_1_1MLIR__BINDINGS__PYTHON__DOMAIN_1_1PyConcreteAttribute.html" target="_top" xlink:title=" ">
<polygon fill="white" stroke="#666666" points="1326,-63 1159,-63 1159,0 1326,0 1326,-63"/>
<text text-anchor="start" x="1167" y="-51" font-family="Helvetica,sans-Serif" font-size="10.00">mlir::python::MLIR</text>
<text text-anchor="start" x="1167" y="-40" font-family="Helvetica,sans-Serif" font-size="10.00">_BINDINGS_PYTHON_DOMAIN</text>
<text text-anchor="start" x="1167" y="-29" font-family="Helvetica,sans-Serif" font-size="10.00">::PyConcreteAttribute&lt;</text>
<text text-anchor="start" x="1167" y="-18" font-family="Helvetica,sans-Serif" font-size="10.00"> PyDenseIntElementsAttribute,</text>
<text text-anchor="middle" x="1242.5" y="-7" font-family="Helvetica,sans-Serif" font-size="10.00"> PyDenseElementsAttribute &gt;</text>
</a>
</g>
</g>
<!-- Node1&#45;&gt;Node8 -->
<g id="edge8_Node000001_Node000008" class="edge">
<title>Node1&#45;&gt;Node8</title>
<g id="a_edge8_Node000001_Node000008"><a xlink:title=" ">
<path fill="none" stroke="#63b8ff" d="M1132.21,-53.36C1141.07,-51.59 1150.03,-49.79 1158.8,-48.04"/>
<polygon fill="#63b8ff" stroke="#63b8ff" points="1131.39,-49.95 1122.27,-55.35 1132.76,-56.82 1131.39,-49.95"/>
</a>
</g>
</g>
<!-- Node2 -->
<g id="Node000002" class="node">
<title>Node2</title>
<g id="a_Node000002"><a xlink:href="classmlir_1_1python_1_1MLIR__BINDINGS__PYTHON__DOMAIN_1_1PyConcreteAttribute.html" target="_top" xlink:title=" ">
<polygon fill="white" stroke="#666666" points="922,-97.5 759,-97.5 759,-45.5 922,-45.5 922,-97.5"/>
<text text-anchor="start" x="767" y="-85.5" font-family="Helvetica,sans-Serif" font-size="10.00">mlir::python::MLIR</text>
<text text-anchor="start" x="767" y="-74.5" font-family="Helvetica,sans-Serif" font-size="10.00">_BINDINGS_PYTHON_DOMAIN</text>
<text text-anchor="start" x="767" y="-63.5" font-family="Helvetica,sans-Serif" font-size="10.00">::PyConcreteAttribute&lt;</text>
<text text-anchor="middle" x="840.5" y="-52.5" font-family="Helvetica,sans-Serif" font-size="10.00"> PyDenseElementsAttribute &gt;</text>
</a>
</g>
</g>
<!-- Node2&#45;&gt;Node1 -->
<g id="edge1_Node000001_Node000002" class="edge">
<title>Node2&#45;&gt;Node1</title>
<g id="a_edge1_Node000001_Node000002"><a xlink:title=" ">
<path fill="none" stroke="#63b8ff" d="M932.32,-71.5C941.12,-71.5 950.02,-71.5 958.72,-71.5"/>
<polygon fill="#63b8ff" stroke="#63b8ff" points="932.03,-68 922.03,-71.5 932.03,-75 932.03,-68"/>
</a>
</g>
</g>
<!-- Node3 -->
<g id="Node000003" class="node">
<title>Node3</title>
<g id="a_Node000003"><a xlink:href="classmlir_1_1python_1_1MLIR__BINDINGS__PYTHON__DOMAIN_1_1PyAttribute.html" target="_top" xlink:title="Wrapper around the generic MlirAttribute.">
<polygon fill="white" stroke="#666666" points="363,-92 200,-92 200,-51 363,-51 363,-92"/>
<text text-anchor="start" x="208" y="-80" font-family="Helvetica,sans-Serif" font-size="10.00">mlir::python::MLIR</text>
<text text-anchor="start" x="208" y="-69" font-family="Helvetica,sans-Serif" font-size="10.00">_BINDINGS_PYTHON_DOMAIN</text>
<text text-anchor="middle" x="281.5" y="-58" font-family="Helvetica,sans-Serif" font-size="10.00">::PyAttribute</text>
</a>
</g>
</g>
<!-- Node3&#45;&gt;Node2 -->
<g id="edge2_Node000002_Node000003" class="edge">
<title>Node3&#45;&gt;Node2</title>
<g id="a_edge2_Node000002_Node000003"><a xlink:title=" ">
<path fill="none" stroke="#63b8ff" d="M373.25,-78.05C382.28,-78.59 391.32,-79.08 400,-79.5 551.4,-86.74 589.75,-94.44 741,-84.5 746.85,-84.12 752.89,-83.6 758.95,-83.01"/>
<polygon fill="#63b8ff" stroke="#63b8ff" points="373.26,-74.54 363.06,-77.42 372.83,-81.53 373.26,-74.54"/>
</a>
</g>
</g>
<!-- Node5 -->
<g id="Node000005" class="node">
<title>Node5</title>
<g id="a_Node000005"><a xlink:href="classmlir_1_1python_1_1MLIR__BINDINGS__PYTHON__DOMAIN_1_1PyConcreteAttribute.html" target="_top" xlink:title="CRTP base classes for Python attributes that subclass Attribute and should be castable from it (i....">
<polygon fill="white" stroke="#666666" points="563,-70.5 400,-70.5 400,-18.5 563,-18.5 563,-70.5"/>
<text text-anchor="start" x="408" y="-58.5" font-family="Helvetica,sans-Serif" font-size="10.00">mlir::python::MLIR</text>
<text text-anchor="start" x="408" y="-47.5" font-family="Helvetica,sans-Serif" font-size="10.00">_BINDINGS_PYTHON_DOMAIN</text>
<text text-anchor="start" x="408" y="-36.5" font-family="Helvetica,sans-Serif" font-size="10.00">::PyConcreteAttribute&lt;</text>
<text text-anchor="middle" x="481.5" y="-25.5" font-family="Helvetica,sans-Serif" font-size="10.00"> DerivedTy, BaseTy &gt;</text>
</a>
</g>
</g>
<!-- Node3&#45;&gt;Node5 -->
<g id="edge5_Node000005_Node000003" class="edge">
<title>Node3&#45;&gt;Node5</title>
<g id="a_edge5_Node000005_Node000003"><a xlink:title=" ">
<path fill="none" stroke="#63b8ff" d="M373.03,-59.16C381.93,-57.94 390.92,-56.72 399.72,-55.52"/>
<polygon fill="#63b8ff" stroke="#63b8ff" points="372.47,-55.7 363.03,-60.52 373.42,-62.63 372.47,-55.7"/>
</a>
</g>
</g>
<!-- Node4 -->
<g id="Node000004" class="node">
<title>Node4</title>
<g id="a_Node000004"><a xlink:href="classmlir_1_1python_1_1MLIR__BINDINGS__PYTHON__DOMAIN_1_1BaseContextObject.html" target="_top" xlink:title="Base class for all objects that directly or indirectly depend on an MlirContext.">
<polygon fill="white" stroke="#666666" points="163,-92 0,-92 0,-51 163,-51 163,-92"/>
<text text-anchor="start" x="8" y="-80" font-family="Helvetica,sans-Serif" font-size="10.00">mlir::python::MLIR</text>
<text text-anchor="start" x="8" y="-69" font-family="Helvetica,sans-Serif" font-size="10.00">_BINDINGS_PYTHON_DOMAIN</text>
<text text-anchor="middle" x="81.5" y="-58" font-family="Helvetica,sans-Serif" font-size="10.00">::BaseContextObject</text>
</a>
</g>
</g>
<!-- Node4&#45;&gt;Node3 -->
<g id="edge3_Node000003_Node000004" class="edge">
<title>Node4&#45;&gt;Node3</title>
<g id="a_edge3_Node000003_Node000004"><a xlink:title=" ">
<path fill="none" stroke="#63b8ff" d="M173.32,-71.5C182.12,-71.5 191.02,-71.5 199.72,-71.5"/>
<polygon fill="#63b8ff" stroke="#63b8ff" points="173.03,-68 163.03,-71.5 173.03,-75 173.03,-68"/>
</a>
</g>
</g>
<!-- Node5&#45;&gt;Node2 -->
<g id="edge4_Node000002_Node000005" class="edge">
<title>Node5&#45;&gt;Node2</title>
<g id="a_edge4_Node000002_Node000005"><a xlink:title=" ">
<path fill="none" stroke="orange" stroke-dasharray="5,2" d="M573.19,-51.36C630.44,-55.69 703.72,-61.23 758.92,-65.41"/>
<polygon fill="orange" stroke="orange" points="573.3,-47.86 563.06,-50.59 572.77,-54.84 573.3,-47.86"/>
</a>
</g>
<text text-anchor="start" x="584" y="-70" font-family="Helvetica,sans-Serif" font-size="10.00" fill="grey">&lt; PyDenseElementsAttribute &gt;</text>
</g>
<!-- Node7 -->
<g id="Node000007" class="node">
<title>Node7</title>
<g id="a_Node000007"><a xlink:href="classmlir_1_1python_1_1MLIR__BINDINGS__PYTHON__DOMAIN_1_1PyDenseFPElementsAttribute.html" target="_top" xlink:title="Refinement of PyDenseElementsAttribute for attributes containing floating&#45;point values.">
<polygon fill="white" stroke="#666666" points="1529.5,-133 1363.5,-133 1363.5,-92 1529.5,-92 1529.5,-133"/>
<text text-anchor="start" x="1371.5" y="-121" font-family="Helvetica,sans-Serif" font-size="10.00">mlir::python::MLIR</text>
<text text-anchor="start" x="1371.5" y="-110" font-family="Helvetica,sans-Serif" font-size="10.00">_BINDINGS_PYTHON_DOMAIN</text>
<text text-anchor="middle" x="1446.5" y="-99" font-family="Helvetica,sans-Serif" font-size="10.00">::PyDenseFPElementsAttribute</text>
</a>
</g>
</g>
<!-- Node6&#45;&gt;Node7 -->
<g id="edge7_Node000006_Node000007" class="edge">
<title>Node6&#45;&gt;Node7</title>
<g id="a_edge7_Node000006_Node000007"><a xlink:title=" ">
<path fill="none" stroke="#63b8ff" d="M1335.95,-112.5C1345.11,-112.5 1354.37,-112.5 1363.41,-112.5"/>
<polygon fill="#63b8ff" stroke="#63b8ff" points="1335.66,-109 1325.66,-112.5 1335.66,-116 1335.66,-109"/>
</a>
</g>
</g>
<!-- Node9 -->
<g id="Node000009" class="node">
<title>Node9</title>
<g id="a_Node000009"><a xlink:href="classmlir_1_1python_1_1MLIR__BINDINGS__PYTHON__DOMAIN_1_1PyDenseIntElementsAttribute.html" target="_top" xlink:title="Refinement of the PyDenseElementsAttribute for attributes containing integer (and boolean) values.">
<polygon fill="white" stroke="#666666" points="1530,-52 1363,-52 1363,-11 1530,-11 1530,-52"/>
<text text-anchor="start" x="1371" y="-40" font-family="Helvetica,sans-Serif" font-size="10.00">mlir::python::MLIR</text>
<text text-anchor="start" x="1371" y="-29" font-family="Helvetica,sans-Serif" font-size="10.00">_BINDINGS_PYTHON_DOMAIN</text>
<text text-anchor="middle" x="1446.5" y="-18" font-family="Helvetica,sans-Serif" font-size="10.00">::PyDenseIntElementsAttribute</text>
</a>
</g>
</g>
<!-- Node8&#45;&gt;Node9 -->
<g id="edge9_Node000008_Node000009" class="edge">
<title>Node8&#45;&gt;Node9</title>
<g id="a_edge9_Node000008_Node000009"><a xlink:title=" ">
<path fill="none" stroke="#63b8ff" d="M1336.52,-31.5C1345.32,-31.5 1354.19,-31.5 1362.88,-31.5"/>
<polygon fill="#63b8ff" stroke="#63b8ff" points="1336.24,-28 1326.24,-31.5 1336.24,-35 1336.24,-28"/>
</a>
</g>
</g>
</g>
</svg>
