<?xml version="1.0" encoding="UTF-8" standalone="no"?>
<!DOCTYPE svg PUBLIC "-//W3C//DTD SVG 1.1//EN"
 "http://www.w3.org/Graphics/SVG/1.1/DTD/svg11.dtd">
<!-- Generated by graphviz version 2.43.0 (0)
 -->
<!-- Title: mlir::dataflow::IntegerRangeAnalysis Pages: 1 -->
<svg width="1136pt" height="67pt"
 viewBox="0.00 0.00 1136.00 66.50" xmlns="http://www.w3.org/2000/svg" xmlns:xlink="http://www.w3.org/1999/xlink">
<g id="graph0" class="graph" transform="scale(1 1) rotate(0) translate(4 62.5)">
<title>mlir::dataflow::IntegerRangeAnalysis</title>
<!-- Node1 -->
<g id="node1" class="node">
<title>Node1</title>
<g id="a_node1"><a xlink:title="Integer range analysis determines the integer value range of SSA values using operations that define ...">
<polygon fill="#bfbfbf" stroke="black" points="973,-22.5 973,-52.5 1128,-52.5 1128,-22.5 973,-22.5"/>
<text text-anchor="start" x="981" y="-40.5" font-family="Helvetica,sans-Serif" font-size="10.00">mlir::dataflow::IntegerRange</text>
<text text-anchor="middle" x="1050.5" y="-29.5" font-family="Helvetica,sans-Serif" font-size="10.00">Analysis</text>
</a>
</g>
</g>
<!-- Node2 -->
<g id="node2" class="node">
<title>Node2</title>
<g id="a_node2"><a xlink:href="classmlir_1_1dataflow_1_1SparseForwardDataFlowAnalysis.html" target="_top" xlink:title=" ">
<polygon fill="none" stroke="black" points="728,-17 728,-58 936,-58 936,-17 728,-17"/>
<text text-anchor="start" x="736" y="-46" font-family="Helvetica,sans-Serif" font-size="10.00">mlir::dataflow::SparseForward</text>
<text text-anchor="start" x="736" y="-35" font-family="Helvetica,sans-Serif" font-size="10.00">DataFlowAnalysis&lt; IntegerValueRange</text>
<text text-anchor="middle" x="832" y="-24" font-family="Helvetica,sans-Serif" font-size="10.00">Lattice &gt;</text>
</a>
</g>
</g>
<!-- Node2&#45;&gt;Node1 -->
<g id="edge1" class="edge">
<title>Node2&#45;&gt;Node1</title>
<path fill="none" stroke="midnightblue" d="M946.28,-37.5C955.22,-37.5 964.12,-37.5 972.72,-37.5"/>
<polygon fill="midnightblue" stroke="midnightblue" points="946.18,-34 936.18,-37.5 946.18,-41 946.18,-34"/>
</g>
<!-- Node3 -->
<g id="node3" class="node">
<title>Node3</title>
<g id="a_node3"><a xlink:href="classmlir_1_1dataflow_1_1AbstractSparseForwardDataFlowAnalysis.html" target="_top" xlink:title="Base class for sparse forward data&#45;flow analyses.">
<polygon fill="none" stroke="black" points="167,-22.5 167,-52.5 343,-52.5 343,-22.5 167,-22.5"/>
<text text-anchor="start" x="175" y="-40.5" font-family="Helvetica,sans-Serif" font-size="10.00">mlir::dataflow::Abstract</text>
<text text-anchor="middle" x="255" y="-29.5" font-family="Helvetica,sans-Serif" font-size="10.00">SparseForwardDataFlowAnalysis</text>
</a>
</g>
</g>
<!-- Node3&#45;&gt;Node2 -->
<g id="edge2" class="edge">
<title>Node3&#45;&gt;Node2</title>
<path fill="none" stroke="midnightblue" d="M353.18,-42.06C445.12,-45.69 586.97,-49.56 710,-45.5 715.79,-45.31 721.73,-45.07 727.72,-44.79"/>
<polygon fill="midnightblue" stroke="midnightblue" points="353.19,-38.55 343.05,-41.65 352.91,-45.55 353.19,-38.55"/>
</g>
<!-- Node5 -->
<g id="node5" class="node">
<title>Node5</title>
<g id="a_node5"><a xlink:href="classmlir_1_1dataflow_1_1SparseForwardDataFlowAnalysis.html" target="_top" xlink:title="A sparse forward data&#45;flow analysis for propagating SSA value lattices across the IR by implementing ...">
<polygon fill="none" stroke="black" points="380,-0.5 380,-30.5 541,-30.5 541,-0.5 380,-0.5"/>
<text text-anchor="start" x="388" y="-18.5" font-family="Helvetica,sans-Serif" font-size="10.00">mlir::dataflow::SparseForward</text>
<text text-anchor="middle" x="460.5" y="-7.5" font-family="Helvetica,sans-Serif" font-size="10.00">DataFlowAnalysis&lt; StateT &gt;</text>
</a>
</g>
</g>
<!-- Node3&#45;&gt;Node5 -->
<g id="edge5" class="edge">
<title>Node3&#45;&gt;Node5</title>
<path fill="none" stroke="midnightblue" d="M353.24,-26.99C362.17,-26.02 371.15,-25.05 379.89,-24.11"/>
<polygon fill="midnightblue" stroke="midnightblue" points="352.75,-23.52 343.19,-28.07 353.51,-30.48 352.75,-23.52"/>
</g>
<!-- Node4 -->
<g id="node4" class="node">
<title>Node4</title>
<g id="a_node4"><a xlink:href="classmlir_1_1DataFlowAnalysis.html" target="_top" xlink:title="Base class for all data&#45;flow analyses.">
<polygon fill="none" stroke="black" points="0,-28 0,-47 130,-47 130,-28 0,-28"/>
<text text-anchor="middle" x="65" y="-35" font-family="Helvetica,sans-Serif" font-size="10.00">mlir::DataFlowAnalysis</text>
</a>
</g>
</g>
<!-- Node4&#45;&gt;Node3 -->
<g id="edge3" class="edge">
<title>Node4&#45;&gt;Node3</title>
<path fill="none" stroke="midnightblue" d="M140.28,-37.5C149,-37.5 157.96,-37.5 166.84,-37.5"/>
<polygon fill="midnightblue" stroke="midnightblue" points="140.17,-34 130.17,-37.5 140.17,-41 140.17,-34"/>
</g>
<!-- Node5&#45;&gt;Node2 -->
<g id="edge4" class="edge">
<title>Node5&#45;&gt;Node2</title>
<path fill="none" stroke="orange" stroke-dasharray="5,2" d="M551.34,-20.85C604.64,-24.02 672.4,-28.06 727.88,-31.36"/>
<polygon fill="orange" stroke="orange" points="551.41,-17.35 541.22,-20.25 551,-24.33 551.41,-17.35"/>
<text text-anchor="middle" x="634.5" y="-33.5" font-family="Helvetica,sans-Serif" font-size="10.00"> &lt; IntegerValueRangeLattice &gt;</text>
</g>
</g>
</svg>
