<?xml version="1.0" encoding="UTF-8" standalone="no"?>
<!DOCTYPE svg PUBLIC "-//W3C//DTD SVG 1.1//EN"
 "http://www.w3.org/Graphics/SVG/1.1/DTD/svg11.dtd">
<!-- Generated by graphviz version 2.43.0 (0)
 -->
<!-- Title: mlir::transform::ParamProducerTransformOpTrait&lt; OpTy &gt; Pages: 1 -->
<svg width="265pt" height="207pt"
 viewBox="0.00 0.00 265.00 207.00" xmlns="http://www.w3.org/2000/svg" xmlns:xlink="http://www.w3.org/1999/xlink">
<g id="graph0" class="graph" transform="scale(1 1) rotate(0) translate(4 203)">
<title>mlir::transform::ParamProducerTransformOpTrait&lt; OpTy &gt;</title>
<!-- Node1 -->
<g id="node1" class="node">
<title>Node1</title>
<g id="a_node1"><a xlink:title="Trait implementing the MemoryEffectsOpInterface for operations that produce transform dialect paramet...">
<polygon fill="#bfbfbf" stroke="black" points="5,-0.5 5,-30.5 175,-30.5 175,-0.5 5,-0.5"/>
<text text-anchor="start" x="13" y="-18.5" font-family="Helvetica,sans-Serif" font-size="10.00">mlir::transform::ParamProducer</text>
<text text-anchor="middle" x="90" y="-7.5" font-family="Helvetica,sans-Serif" font-size="10.00">TransformOpTrait&lt; OpTy &gt;</text>
</a>
</g>
</g>
<!-- Node2 -->
<g id="node2" class="node">
<title>Node2</title>
<g id="a_node2"><a xlink:href="classmlir_1_1OpTrait_1_1TraitBase.html" target="_top" xlink:title=" ">
<polygon fill="none" stroke="black" points="0,-68.5 0,-109.5 180,-109.5 180,-68.5 0,-68.5"/>
<text text-anchor="start" x="8" y="-97.5" font-family="Helvetica,sans-Serif" font-size="10.00">mlir::OpTrait::TraitBase</text>
<text text-anchor="start" x="8" y="-86.5" font-family="Helvetica,sans-Serif" font-size="10.00">&lt; OpTy, ParamProducerTransform</text>
<text text-anchor="middle" x="90" y="-75.5" font-family="Helvetica,sans-Serif" font-size="10.00">OpTrait &gt;</text>
</a>
</g>
</g>
<!-- Node2&#45;&gt;Node1 -->
<g id="edge1" class="edge">
<title>Node2&#45;&gt;Node1</title>
<path fill="none" stroke="midnightblue" d="M90,-58.16C90,-48.69 90,-38.65 90,-30.8"/>
<polygon fill="midnightblue" stroke="midnightblue" points="86.5,-58.46 90,-68.46 93.5,-58.46 86.5,-58.46"/>
</g>
<!-- Node3 -->
<g id="node3" class="node">
<title>Node3</title>
<g id="a_node3"><a xlink:href="classmlir_1_1OpTrait_1_1TraitBase.html" target="_top" xlink:title="Helper class for implementing traits.">
<polygon fill="none" stroke="black" points="12.5,-168.5 12.5,-198.5 167.5,-198.5 167.5,-168.5 12.5,-168.5"/>
<text text-anchor="start" x="20.5" y="-186.5" font-family="Helvetica,sans-Serif" font-size="10.00">mlir::OpTrait::TraitBase</text>
<text text-anchor="middle" x="90" y="-175.5" font-family="Helvetica,sans-Serif" font-size="10.00">&lt; ConcreteType, TraitType &gt;</text>
</a>
</g>
</g>
<!-- Node3&#45;&gt;Node2 -->
<g id="edge2" class="edge">
<title>Node3&#45;&gt;Node2</title>
<path fill="none" stroke="orange" stroke-dasharray="5,2" d="M90,-158.28C90,-143.14 90,-123.88 90,-109.68"/>
<polygon fill="orange" stroke="orange" points="86.5,-158.45 90,-168.45 93.5,-158.45 86.5,-158.45"/>
<text text-anchor="start" x="90" y="-142" font-family="Helvetica,sans-Serif" font-size="10.00"> &lt; OpTy, ParamProducerTransform</text>
<text text-anchor="middle" x="173.5" y="-131" font-family="Helvetica,sans-Serif" font-size="10.00">OpTrait &gt;</text>
</g>
</g>
</svg>
