<?xml version="1.0" encoding="UTF-8" standalone="no"?>
<!DOCTYPE svg PUBLIC "-//W3C//DTD SVG 1.1//EN"
 "http://www.w3.org/Graphics/SVG/1.1/DTD/svg11.dtd">
<!-- Generated by graphviz version 2.43.0 (0)
 -->
<!-- Title: mlir::detail::OpToOpPassAdaptor Pages: 1 -->
<svg width="287pt" height="264pt"
 viewBox="0.00 0.00 287.00 264.00" xmlns="http://www.w3.org/2000/svg" xmlns:xlink="http://www.w3.org/1999/xlink">
<g id="graph0" class="graph" transform="scale(1 1) rotate(0) translate(4 260)">
<title>mlir::detail::OpToOpPassAdaptor</title>
<!-- Node1 -->
<g id="node1" class="node">
<title>Node1</title>
<g id="a_node1"><a xlink:title="An adaptor pass used to run operation passes over nested operations.">
<polygon fill="#bfbfbf" stroke="black" points="53.5,-0.5 53.5,-30.5 188.5,-30.5 188.5,-0.5 53.5,-0.5"/>
<text text-anchor="start" x="61.5" y="-18.5" font-family="Helvetica,sans-Serif" font-size="10.00">mlir::detail::OpToOpPass</text>
<text text-anchor="middle" x="121" y="-7.5" font-family="Helvetica,sans-Serif" font-size="10.00">Adaptor</text>
</a>
</g>
</g>
<!-- Node2 -->
<g id="node2" class="node">
<title>Node2</title>
<g id="a_node2"><a xlink:href="classmlir_1_1PassWrapper.html" target="_top" xlink:title=" ">
<polygon fill="none" stroke="black" points="61,-68.5 61,-109.5 181,-109.5 181,-68.5 61,-68.5"/>
<text text-anchor="start" x="69" y="-97.5" font-family="Helvetica,sans-Serif" font-size="10.00">mlir::PassWrapper&lt;</text>
<text text-anchor="start" x="69" y="-86.5" font-family="Helvetica,sans-Serif" font-size="10.00"> OpToOpPassAdaptor,</text>
<text text-anchor="middle" x="121" y="-75.5" font-family="Helvetica,sans-Serif" font-size="10.00"> OperationPass&lt;&gt; &gt;</text>
</a>
</g>
</g>
<!-- Node2&#45;&gt;Node1 -->
<g id="edge1" class="edge">
<title>Node2&#45;&gt;Node1</title>
<path fill="none" stroke="midnightblue" d="M121,-58.16C121,-48.69 121,-38.65 121,-30.8"/>
<polygon fill="midnightblue" stroke="midnightblue" points="117.5,-58.46 121,-68.46 124.5,-58.46 117.5,-58.46"/>
</g>
<!-- Node3 -->
<g id="node3" class="node">
<title>Node3</title>
<g id="a_node3"><a xlink:href="classmlir_1_1OperationPass.html" target="_top" xlink:title="Pass to transform an operation of a specific type.">
<polygon fill="none" stroke="black" points="0,-168.5 0,-198.5 112,-198.5 112,-168.5 0,-168.5"/>
<text text-anchor="start" x="8" y="-186.5" font-family="Helvetica,sans-Serif" font-size="10.00">mlir::OperationPass</text>
<text text-anchor="middle" x="56" y="-175.5" font-family="Helvetica,sans-Serif" font-size="10.00">&lt; OpT &gt;</text>
</a>
</g>
</g>
<!-- Node3&#45;&gt;Node2 -->
<g id="edge2" class="edge">
<title>Node3&#45;&gt;Node2</title>
<path fill="none" stroke="midnightblue" d="M71.79,-160.03C82.6,-144.64 96.8,-124.43 107.17,-109.68"/>
<polygon fill="midnightblue" stroke="midnightblue" points="68.76,-158.26 65.87,-168.45 74.49,-162.28 68.76,-158.26"/>
</g>
<!-- Node4 -->
<g id="node4" class="node">
<title>Node4</title>
<g id="a_node4"><a xlink:href="classmlir_1_1Pass.html" target="_top" xlink:title="The abstract base pass class.">
<polygon fill="none" stroke="black" points="24,-236.5 24,-255.5 88,-255.5 88,-236.5 24,-236.5"/>
<text text-anchor="middle" x="56" y="-243.5" font-family="Helvetica,sans-Serif" font-size="10.00">mlir::Pass</text>
</a>
</g>
</g>
<!-- Node4&#45;&gt;Node3 -->
<g id="edge3" class="edge">
<title>Node4&#45;&gt;Node3</title>
<path fill="none" stroke="midnightblue" d="M56,-226.22C56,-217.36 56,-206.96 56,-198.76"/>
<polygon fill="midnightblue" stroke="midnightblue" points="52.5,-226.33 56,-236.33 59.5,-226.33 52.5,-226.33"/>
</g>
<!-- Node5 -->
<g id="node5" class="node">
<title>Node5</title>
<g id="a_node5"><a xlink:href="classmlir_1_1PassWrapper.html" target="_top" xlink:title="This class provides a CRTP wrapper around a base pass class to define several necessary utility metho...">
<polygon fill="none" stroke="black" points="130.5,-168.5 130.5,-198.5 243.5,-198.5 243.5,-168.5 130.5,-168.5"/>
<text text-anchor="start" x="138.5" y="-186.5" font-family="Helvetica,sans-Serif" font-size="10.00">mlir::PassWrapper&lt;</text>
<text text-anchor="middle" x="187" y="-175.5" font-family="Helvetica,sans-Serif" font-size="10.00"> PassT, BaseT &gt;</text>
</a>
</g>
</g>
<!-- Node5&#45;&gt;Node2 -->
<g id="edge4" class="edge">
<title>Node5&#45;&gt;Node2</title>
<path fill="none" stroke="orange" stroke-dasharray="5,2" d="M170.97,-160.03C159.99,-144.64 145.57,-124.43 135.04,-109.68"/>
<polygon fill="orange" stroke="orange" points="168.32,-162.34 176.98,-168.45 174.02,-158.28 168.32,-162.34"/>
<text text-anchor="start" x="164" y="-142" font-family="Helvetica,sans-Serif" font-size="10.00"> &lt; OpToOpPassAdaptor,</text>
<text text-anchor="middle" x="221.5" y="-131" font-family="Helvetica,sans-Serif" font-size="10.00"> OperationPass&lt;&gt; &gt;</text>
</g>
<!-- Node6 -->
<g id="node6" class="node">
<title>Node6</title>
<g id="a_node6"><a xlink:href="classBaseT.html" target="_top" xlink:title=" ">
<polygon fill="none" stroke="black" points="163.5,-236.5 163.5,-255.5 210.5,-255.5 210.5,-236.5 163.5,-236.5"/>
<text text-anchor="middle" x="187" y="-243.5" font-family="Helvetica,sans-Serif" font-size="10.00">BaseT</text>
</a>
</g>
</g>
<!-- Node6&#45;&gt;Node5 -->
<g id="edge5" class="edge">
<title>Node6&#45;&gt;Node5</title>
<path fill="none" stroke="midnightblue" d="M187,-226.22C187,-217.36 187,-206.96 187,-198.76"/>
<polygon fill="midnightblue" stroke="midnightblue" points="183.5,-226.33 187,-236.33 190.5,-226.33 183.5,-226.33"/>
</g>
</g>
</svg>
