<?xml version="1.0" encoding="UTF-8" standalone="no"?>
<!DOCTYPE svg PUBLIC "-//W3C//DTD SVG 1.1//EN"
 "http://www.w3.org/Graphics/SVG/1.1/DTD/svg11.dtd">
<!-- Generated by graphviz version 2.43.0 (0)
 -->
<!-- Title: mlir::AsmDialectResourceHandle Pages: 1 -->
<svg width="918pt" height="81pt"
 viewBox="0.00 0.00 918.00 80.50" xmlns="http://www.w3.org/2000/svg" xmlns:xlink="http://www.w3.org/1999/xlink">
<g id="graph0" class="graph" transform="scale(1 1) rotate(0) translate(4 76.5)">
<title>mlir::AsmDialectResourceHandle</title>
<!-- Node1 -->
<g id="node1" class="node">
<title>Node1</title>
<g id="a_node1"><a xlink:title="This class represents an opaque handle to a dialect resource entry.">
<polygon fill="#bfbfbf" stroke="black" points="0,-30 0,-60 143,-60 143,-30 0,-30"/>
<text text-anchor="start" x="8" y="-48" font-family="Helvetica,sans-Serif" font-size="10.00">mlir::AsmDialectResource</text>
<text text-anchor="middle" x="71.5" y="-37" font-family="Helvetica,sans-Serif" font-size="10.00">Handle</text>
</a>
</g>
</g>
<!-- Node2 -->
<g id="node2" class="node">
<title>Node2</title>
<g id="a_node2"><a xlink:href="classmlir_1_1AsmDialectResourceHandleBase.html" target="_top" xlink:title=" ">
<polygon fill="none" stroke="black" points="530,-20 530,-72 730,-72 730,-20 530,-20"/>
<text text-anchor="start" x="538" y="-60" font-family="Helvetica,sans-Serif" font-size="10.00">mlir::AsmDialectResource</text>
<text text-anchor="start" x="538" y="-49" font-family="Helvetica,sans-Serif" font-size="10.00">HandleBase&lt; DialectResourceBlob</text>
<text text-anchor="start" x="538" y="-38" font-family="Helvetica,sans-Serif" font-size="10.00">Handle&lt; DialectT &gt;, DialectResource</text>
<text text-anchor="middle" x="630" y="-27" font-family="Helvetica,sans-Serif" font-size="10.00">BlobManager::BlobEntry, DialectT &gt;</text>
</a>
</g>
</g>
<!-- Node1&#45;&gt;Node2 -->
<g id="edge1" class="edge">
<title>Node1&#45;&gt;Node2</title>
<path fill="none" stroke="midnightblue" d="M153.52,-50.31C241.73,-55.32 386.93,-61.33 512,-56 517.8,-55.75 523.77,-55.44 529.78,-55.07"/>
<polygon fill="midnightblue" stroke="midnightblue" points="153.5,-46.8 143.32,-49.72 153.1,-53.79 153.5,-46.8"/>
</g>
<!-- Node4 -->
<g id="node4" class="node">
<title>Node4</title>
<g id="a_node4"><a xlink:href="classmlir_1_1AsmDialectResourceHandleBase.html" target="_top" xlink:title="This class represents a CRTP base class for dialect resource handles.">
<polygon fill="none" stroke="black" points="180,-0.5 180,-41.5 323,-41.5 323,-0.5 180,-0.5"/>
<text text-anchor="start" x="188" y="-29.5" font-family="Helvetica,sans-Serif" font-size="10.00">mlir::AsmDialectResource</text>
<text text-anchor="start" x="188" y="-18.5" font-family="Helvetica,sans-Serif" font-size="10.00">HandleBase&lt; DerivedT,</text>
<text text-anchor="middle" x="251.5" y="-7.5" font-family="Helvetica,sans-Serif" font-size="10.00"> ResourceT, DialectT &gt;</text>
</a>
</g>
</g>
<!-- Node1&#45;&gt;Node4 -->
<g id="edge3" class="edge">
<title>Node1&#45;&gt;Node4</title>
<path fill="none" stroke="midnightblue" d="M153.15,-34.13C162.1,-32.92 171.17,-31.7 179.98,-30.51"/>
<polygon fill="midnightblue" stroke="midnightblue" points="152.55,-30.68 143.11,-35.48 153.48,-37.61 152.55,-30.68"/>
</g>
<!-- Node3 -->
<g id="node3" class="node">
<title>Node3</title>
<g id="a_node3"><a xlink:href="structmlir_1_1DialectResourceBlobHandle.html" target="_top" xlink:title="This class defines a dialect specific handle to a resource blob.">
<polygon fill="none" stroke="black" points="767,-31 767,-61 910,-61 910,-31 767,-31"/>
<text text-anchor="start" x="775" y="-49" font-family="Helvetica,sans-Serif" font-size="10.00">mlir::DialectResourceBlob</text>
<text text-anchor="middle" x="838.5" y="-38" font-family="Helvetica,sans-Serif" font-size="10.00">Handle&lt; DialectT &gt;</text>
</a>
</g>
</g>
<!-- Node2&#45;&gt;Node3 -->
<g id="edge2" class="edge">
<title>Node2&#45;&gt;Node3</title>
<path fill="none" stroke="midnightblue" d="M740.21,-46C749.23,-46 758.18,-46 766.8,-46"/>
<polygon fill="midnightblue" stroke="midnightblue" points="740.02,-42.5 730.02,-46 740.02,-49.5 740.02,-42.5"/>
</g>
<!-- Node4&#45;&gt;Node2 -->
<g id="edge4" class="edge">
<title>Node4&#45;&gt;Node2</title>
<path fill="none" stroke="orange" stroke-dasharray="5,2" d="M333.22,-17.76C384.54,-16.66 452.33,-16.96 512,-23 517.87,-23.59 523.88,-24.34 529.93,-25.2"/>
<polygon fill="orange" stroke="orange" points="333.1,-14.27 323.18,-18 333.26,-21.26 333.1,-14.27"/>
<text text-anchor="start" x="341" y="-48" font-family="Helvetica,sans-Serif" font-size="10.00"> &lt; DialectResourceBlobHandle</text>
<text text-anchor="start" x="341" y="-37" font-family="Helvetica,sans-Serif" font-size="10.00">&lt; DialectT &gt;, DialectResourceBlob</text>
<text text-anchor="middle" x="426.5" y="-26" font-family="Helvetica,sans-Serif" font-size="10.00">Manager::BlobEntry, DialectT &gt;</text>
</g>
</g>
</svg>
