<?xml version="1.0" encoding="UTF-8" standalone="no"?>
<!DOCTYPE svg PUBLIC "-//W3C//DTD SVG 1.1//EN"
 "http://www.w3.org/Graphics/SVG/1.1/DTD/svg11.dtd">
<!-- Generated by graphviz version 2.43.0 (0)
 -->
<!-- Title: mlir::transform::PDLMatchHooks Pages: 1 -->
<svg width="844pt" height="65pt"
 viewBox="0.00 0.00 844.00 65.00" xmlns="http://www.w3.org/2000/svg" xmlns:xlink="http://www.w3.org/1999/xlink">
<g id="graph0" class="graph" transform="scale(1 1) rotate(0) translate(4 61)">
<title>mlir::transform::PDLMatchHooks</title>
<!-- Node1 -->
<g id="node1" class="node">
<title>Node1</title>
<g id="a_node1"><a xlink:title="PDL constraint callbacks that can be used by the PDL extension of the Transform dialect.">
<polygon fill="#bfbfbf" stroke="black" points="691,-26.5 691,-56.5 836,-56.5 836,-26.5 691,-26.5"/>
<text text-anchor="start" x="699" y="-44.5" font-family="Helvetica,sans-Serif" font-size="10.00">mlir::transform::PDLMatch</text>
<text text-anchor="middle" x="763.5" y="-33.5" font-family="Helvetica,sans-Serif" font-size="10.00">Hooks</text>
</a>
</g>
</g>
<!-- Node2 -->
<g id="node2" class="node">
<title>Node2</title>
<g id="a_node2"><a xlink:href="classmlir_1_1transform_1_1TransformDialectData.html" target="_top" xlink:title=" ">
<polygon fill="none" stroke="black" points="478,-26.5 478,-56.5 654,-56.5 654,-26.5 478,-26.5"/>
<text text-anchor="start" x="486" y="-44.5" font-family="Helvetica,sans-Serif" font-size="10.00">mlir::transform::Transform</text>
<text text-anchor="middle" x="566" y="-33.5" font-family="Helvetica,sans-Serif" font-size="10.00">DialectData&lt; PDLMatchHooks &gt;</text>
</a>
</g>
</g>
<!-- Node2&#45;&gt;Node1 -->
<g id="edge1" class="edge">
<title>Node2&#45;&gt;Node1</title>
<path fill="none" stroke="midnightblue" d="M664.23,-41.5C673.15,-41.5 682.08,-41.5 690.72,-41.5"/>
<polygon fill="midnightblue" stroke="midnightblue" points="664.17,-38 654.17,-41.5 664.17,-45 664.17,-38"/>
</g>
<!-- Node3 -->
<g id="node3" class="node">
<title>Node3</title>
<g id="a_node3"><a xlink:href="classmlir_1_1transform_1_1detail_1_1TransformDialectDataBase.html" target="_top" xlink:title="Concrete base class for CRTP TransformDialectDataBase.">
<polygon fill="none" stroke="black" points="0,-22.5 0,-52.5 153,-52.5 153,-22.5 0,-22.5"/>
<text text-anchor="start" x="8" y="-40.5" font-family="Helvetica,sans-Serif" font-size="10.00">mlir::transform::detail</text>
<text text-anchor="middle" x="76.5" y="-29.5" font-family="Helvetica,sans-Serif" font-size="10.00">::TransformDialectDataBase</text>
</a>
</g>
</g>
<!-- Node3&#45;&gt;Node2 -->
<g id="edge2" class="edge">
<title>Node3&#45;&gt;Node2</title>
<path fill="none" stroke="midnightblue" d="M163.54,-41.26C241.06,-44.18 358.15,-47.44 460,-45.5 465.84,-45.39 471.85,-45.24 477.92,-45.07"/>
<polygon fill="midnightblue" stroke="midnightblue" points="163.46,-37.76 153.34,-40.87 163.2,-44.75 163.46,-37.76"/>
</g>
<!-- Node4 -->
<g id="node4" class="node">
<title>Node4</title>
<g id="a_node4"><a xlink:href="classmlir_1_1transform_1_1TransformDialectData.html" target="_top" xlink:title="Base class for additional data owned by the Transform dialect.">
<polygon fill="none" stroke="black" points="190,-0.5 190,-30.5 336,-30.5 336,-0.5 190,-0.5"/>
<text text-anchor="start" x="198" y="-18.5" font-family="Helvetica,sans-Serif" font-size="10.00">mlir::transform::Transform</text>
<text text-anchor="middle" x="263" y="-7.5" font-family="Helvetica,sans-Serif" font-size="10.00">DialectData&lt; DerivedTy &gt;</text>
</a>
</g>
</g>
<!-- Node3&#45;&gt;Node4 -->
<g id="edge4" class="edge">
<title>Node3&#45;&gt;Node4</title>
<path fill="none" stroke="midnightblue" d="M163.11,-27.29C172.04,-26.23 181.05,-25.15 189.81,-24.11"/>
<polygon fill="midnightblue" stroke="midnightblue" points="162.59,-23.83 153.08,-28.49 163.42,-30.78 162.59,-23.83"/>
</g>
<!-- Node4&#45;&gt;Node2 -->
<g id="edge3" class="edge">
<title>Node4&#45;&gt;Node2</title>
<path fill="none" stroke="orange" stroke-dasharray="5,2" d="M346.29,-22.61C387.13,-26.14 436.47,-30.4 477.94,-33.98"/>
<polygon fill="orange" stroke="orange" points="346.36,-19.1 336.1,-21.73 345.76,-26.08 346.36,-19.1"/>
<text text-anchor="middle" x="407" y="-35.5" font-family="Helvetica,sans-Serif" font-size="10.00"> &lt; PDLMatchHooks &gt;</text>
</g>
</g>
</svg>
