<?xml version="1.0" encoding="UTF-8" standalone="no"?>
<!DOCTYPE svg PUBLIC "-//W3C//DTD SVG 1.1//EN"
 "http://www.w3.org/Graphics/SVG/1.1/DTD/svg11.dtd">
<!-- Generated by graphviz version 2.43.0 (0)
 -->
<!-- Title: mlir::tracing::TagBreakpointManager Pages: 1 -->
<svg width="303pt" height="253pt"
 viewBox="0.00 0.00 303.00 253.00" xmlns="http://www.w3.org/2000/svg" xmlns:xlink="http://www.w3.org/1999/xlink">
<g id="graph0" class="graph" transform="scale(1 1) rotate(0) translate(4 249)">
<title>mlir::tracing::TagBreakpointManager</title>
<!-- Node1 -->
<g id="node1" class="node">
<title>Node1</title>
<g id="a_node1"><a xlink:title="This is a manager to store a collection of breakpoints that trigger on tags.">
<polygon fill="#bfbfbf" stroke="black" points="33,-0.5 33,-30.5 185,-30.5 185,-0.5 33,-0.5"/>
<text text-anchor="start" x="41" y="-18.5" font-family="Helvetica,sans-Serif" font-size="10.00">mlir::tracing::TagBreakpoint</text>
<text text-anchor="middle" x="109" y="-7.5" font-family="Helvetica,sans-Serif" font-size="10.00">Manager</text>
</a>
</g>
</g>
<!-- Node2 -->
<g id="node2" class="node">
<title>Node2</title>
<g id="a_node2"><a xlink:href="classmlir_1_1tracing_1_1BreakpointManagerBase.html" target="_top" xlink:title=" ">
<polygon fill="none" stroke="black" points="0,-68.5 0,-98.5 218,-98.5 218,-68.5 0,-68.5"/>
<text text-anchor="start" x="8" y="-86.5" font-family="Helvetica,sans-Serif" font-size="10.00">mlir::tracing::Breakpoint</text>
<text text-anchor="middle" x="109" y="-75.5" font-family="Helvetica,sans-Serif" font-size="10.00">ManagerBase&lt; TagBreakpointManager &gt;</text>
</a>
</g>
</g>
<!-- Node2&#45;&gt;Node1 -->
<g id="edge1" class="edge">
<title>Node2&#45;&gt;Node1</title>
<path fill="none" stroke="midnightblue" d="M109,-58.03C109,-48.86 109,-38.74 109,-30.79"/>
<polygon fill="midnightblue" stroke="midnightblue" points="105.5,-58.18 109,-68.18 112.5,-58.18 105.5,-58.18"/>
</g>
<!-- Node3 -->
<g id="node3" class="node">
<title>Node3</title>
<g id="a_node3"><a xlink:href="classmlir_1_1tracing_1_1BreakpointManager.html" target="_top" xlink:title="A breakpoint manager is responsible for managing a set of breakpoints and matching them to a given ac...">
<polygon fill="none" stroke="black" points="37.5,-214.5 37.5,-244.5 172.5,-244.5 172.5,-214.5 37.5,-214.5"/>
<text text-anchor="start" x="45.5" y="-232.5" font-family="Helvetica,sans-Serif" font-size="10.00">mlir::tracing::Breakpoint</text>
<text text-anchor="middle" x="105" y="-221.5" font-family="Helvetica,sans-Serif" font-size="10.00">Manager</text>
</a>
</g>
</g>
<!-- Node3&#45;&gt;Node2 -->
<g id="edge2" class="edge">
<title>Node3&#45;&gt;Node2</title>
<path fill="none" stroke="midnightblue" d="M105.67,-204.32C106.51,-174.14 107.92,-123.49 108.6,-98.84"/>
<polygon fill="midnightblue" stroke="midnightblue" points="102.17,-204.34 105.39,-214.43 109.17,-204.53 102.17,-204.34"/>
</g>
<!-- Node4 -->
<g id="node4" class="node">
<title>Node4</title>
<g id="a_node4"><a xlink:href="classmlir_1_1tracing_1_1BreakpointManagerBase.html" target="_top" xlink:title="CRTP base class for BreakpointManager implementations.">
<polygon fill="none" stroke="black" points="121,-146.5 121,-176.5 265,-176.5 265,-146.5 121,-146.5"/>
<text text-anchor="start" x="129" y="-164.5" font-family="Helvetica,sans-Serif" font-size="10.00">mlir::tracing::Breakpoint</text>
<text text-anchor="middle" x="193" y="-153.5" font-family="Helvetica,sans-Serif" font-size="10.00">ManagerBase&lt; Derived &gt;</text>
</a>
</g>
</g>
<!-- Node3&#45;&gt;Node4 -->
<g id="edge4" class="edge">
<title>Node3&#45;&gt;Node4</title>
<path fill="none" stroke="midnightblue" d="M132.2,-208.1C145.84,-197.87 162.01,-185.74 174.24,-176.57"/>
<polygon fill="midnightblue" stroke="midnightblue" points="129.99,-205.38 124.09,-214.18 134.19,-210.98 129.99,-205.38"/>
</g>
<!-- Node4&#45;&gt;Node2 -->
<g id="edge3" class="edge">
<title>Node4&#45;&gt;Node2</title>
<path fill="none" stroke="orange" stroke-dasharray="5,2" d="M169.67,-139.39C155.35,-126.43 137.38,-110.18 124.73,-98.73"/>
<polygon fill="orange" stroke="orange" points="167.44,-142.09 177.2,-146.2 172.13,-136.9 167.44,-142.09"/>
<text text-anchor="middle" x="225.5" y="-120" font-family="Helvetica,sans-Serif" font-size="10.00"> &lt; TagBreakpointManager &gt;</text>
</g>
</g>
</svg>
