<?xml version="1.0" encoding="UTF-8" standalone="no"?>
<!DOCTYPE svg PUBLIC "-//W3C//DTD SVG 1.1//EN"
 "http://www.w3.org/Graphics/SVG/1.1/DTD/svg11.dtd">
<!-- Generated by graphviz version 2.43.0 (0)
 -->
<!-- Title: mlir::detail::DenseElementIndexedIteratorImpl&lt; ConcreteT, T, PointerT, ReferenceT &gt; Pages: 1 -->
<svg width="931pt" height="252pt"
 viewBox="0.00 0.00 931.00 252.00" xmlns="http://www.w3.org/2000/svg" xmlns:xlink="http://www.w3.org/1999/xlink">
<g id="graph0" class="graph" transform="scale(1 1) rotate(0) translate(4 248)">
<title>mlir::detail::DenseElementIndexedIteratorImpl&lt; ConcreteT, T, PointerT, ReferenceT &gt;</title>
<!-- Node1 -->
<g id="node1" class="node">
<title>Node1</title>
<g id="a_node1"><a xlink:title="Impl iterator for indexed DenseElementsAttr iterators that records a data pointer and data index that...">
<polygon fill="#bfbfbf" stroke="black" points="168,-111.5 168,-152.5 344,-152.5 344,-111.5 168,-111.5"/>
<text text-anchor="start" x="176" y="-140.5" font-family="Helvetica,sans-Serif" font-size="10.00">mlir::detail::DenseElement</text>
<text text-anchor="start" x="176" y="-129.5" font-family="Helvetica,sans-Serif" font-size="10.00">IndexedIteratorImpl&lt; ConcreteT,</text>
<text text-anchor="middle" x="256" y="-118.5" font-family="Helvetica,sans-Serif" font-size="10.00"> T, PointerT, ReferenceT &gt;</text>
</a>
</g>
</g>
<!-- Node3 -->
<g id="node3" class="node">
<title>Node3</title>
<g id="a_node3"><a xlink:href="classmlir_1_1detail_1_1DenseElementIndexedIteratorImpl.html" target="_top" xlink:title=" ">
<polygon fill="none" stroke="black" points="531,-202.5 531,-243.5 731,-243.5 731,-202.5 531,-202.5"/>
<text text-anchor="start" x="539" y="-231.5" font-family="Helvetica,sans-Serif" font-size="10.00">mlir::detail::DenseElement</text>
<text text-anchor="start" x="539" y="-220.5" font-family="Helvetica,sans-Serif" font-size="10.00">IndexedIteratorImpl&lt; ElementIterator</text>
<text text-anchor="middle" x="631" y="-209.5" font-family="Helvetica,sans-Serif" font-size="10.00">&lt; T &gt;, const T &gt;</text>
</a>
</g>
</g>
<!-- Node1&#45;&gt;Node3 -->
<g id="edge2" class="edge">
<title>Node1&#45;&gt;Node3</title>
<path fill="none" stroke="orange" stroke-dasharray="5,2" d="M306.77,-156.8C323.93,-164.54 343.49,-172.48 362,-178 416.82,-194.34 479.83,-205.29 530.98,-212.3"/>
<polygon fill="orange" stroke="orange" points="308.06,-153.54 297.51,-152.54 305.13,-159.9 308.06,-153.54"/>
<text text-anchor="start" x="387.5" y="-222" font-family="Helvetica,sans-Serif" font-size="10.00"> &lt; ElementIterator&lt;</text>
<text text-anchor="middle" x="437.5" y="-211" font-family="Helvetica,sans-Serif" font-size="10.00"> T &gt;, const T &gt;</text>
</g>
<!-- Node5 -->
<g id="node5" class="node">
<title>Node5</title>
<g id="a_node5"><a xlink:href="classmlir_1_1detail_1_1DenseElementIndexedIteratorImpl.html" target="_top" xlink:title=" ">
<polygon fill="none" stroke="black" points="538,-142.5 538,-183.5 724,-183.5 724,-142.5 538,-142.5"/>
<text text-anchor="start" x="546" y="-171.5" font-family="Helvetica,sans-Serif" font-size="10.00">mlir::detail::DenseElement</text>
<text text-anchor="start" x="546" y="-160.5" font-family="Helvetica,sans-Serif" font-size="10.00">IndexedIteratorImpl&lt; BoolElement</text>
<text text-anchor="middle" x="631" y="-149.5" font-family="Helvetica,sans-Serif" font-size="10.00">Iterator, bool, bool, bool &gt;</text>
</a>
</g>
</g>
<!-- Node1&#45;&gt;Node5 -->
<g id="edge4" class="edge">
<title>Node1&#45;&gt;Node5</title>
<path fill="none" stroke="orange" stroke-dasharray="5,2" d="M354.5,-140.1C411.17,-144.81 482.17,-150.71 537.89,-155.34"/>
<polygon fill="orange" stroke="orange" points="354.71,-136.61 344.45,-139.27 354.13,-143.58 354.71,-136.61"/>
<text text-anchor="start" x="379.5" y="-166" font-family="Helvetica,sans-Serif" font-size="10.00"> &lt; BoolElementIterator,</text>
<text text-anchor="middle" x="437.5" y="-155" font-family="Helvetica,sans-Serif" font-size="10.00"> bool, bool, bool &gt;</text>
</g>
<!-- Node7 -->
<g id="node7" class="node">
<title>Node7</title>
<g id="a_node7"><a xlink:href="classmlir_1_1detail_1_1DenseElementIndexedIteratorImpl.html" target="_top" xlink:title=" ">
<polygon fill="none" stroke="black" points="542.5,-82.5 542.5,-123.5 719.5,-123.5 719.5,-82.5 542.5,-82.5"/>
<text text-anchor="start" x="550.5" y="-111.5" font-family="Helvetica,sans-Serif" font-size="10.00">mlir::detail::DenseElement</text>
<text text-anchor="start" x="550.5" y="-100.5" font-family="Helvetica,sans-Serif" font-size="10.00">IndexedIteratorImpl&lt; IntElement</text>
<text text-anchor="middle" x="631" y="-89.5" font-family="Helvetica,sans-Serif" font-size="10.00">Iterator, APInt, APInt, APInt &gt;</text>
</a>
</g>
</g>
<!-- Node1&#45;&gt;Node7 -->
<g id="edge6" class="edge">
<title>Node1&#45;&gt;Node7</title>
<path fill="none" stroke="orange" stroke-dasharray="5,2" d="M354.32,-115.84C356.91,-115.54 359.47,-115.26 362,-115 422,-108.82 489.87,-105.82 542.3,-104.37"/>
<polygon fill="orange" stroke="orange" points="353.77,-112.38 344.27,-117.08 354.63,-119.33 353.77,-112.38"/>
<text text-anchor="start" x="384" y="-129" font-family="Helvetica,sans-Serif" font-size="10.00"> &lt; IntElementIterator,</text>
<text text-anchor="middle" x="437.5" y="-118" font-family="Helvetica,sans-Serif" font-size="10.00"> APInt, APInt, APInt &gt;</text>
</g>
<!-- Node9 -->
<g id="node9" class="node">
<title>Node9</title>
<g id="a_node9"><a xlink:href="classmlir_1_1detail_1_1DenseElementIndexedIteratorImpl.html" target="_top" xlink:title=" ">
<polygon fill="none" stroke="black" points="541,-0.5 541,-63.5 721,-63.5 721,-0.5 541,-0.5"/>
<text text-anchor="start" x="549" y="-51.5" font-family="Helvetica,sans-Serif" font-size="10.00">mlir::detail::DenseElement</text>
<text text-anchor="start" x="549" y="-40.5" font-family="Helvetica,sans-Serif" font-size="10.00">IndexedIteratorImpl&lt; ComplexInt</text>
<text text-anchor="start" x="549" y="-29.5" font-family="Helvetica,sans-Serif" font-size="10.00">ElementIterator, std::complex</text>
<text text-anchor="start" x="549" y="-18.5" font-family="Helvetica,sans-Serif" font-size="10.00">&lt; APInt &gt;, std::complex&lt; APInt</text>
<text text-anchor="middle" x="631" y="-7.5" font-family="Helvetica,sans-Serif" font-size="10.00"> &gt;, std::complex&lt; APInt &gt; &gt;</text>
</a>
</g>
</g>
<!-- Node1&#45;&gt;Node9 -->
<g id="edge8" class="edge">
<title>Node1&#45;&gt;Node9</title>
<path fill="none" stroke="orange" stroke-dasharray="5,2" d="M286.51,-104.86C306.33,-88.32 333.88,-68.43 362,-58 419.08,-36.82 487.46,-30.46 540.85,-29.32"/>
<polygon fill="orange" stroke="orange" points="284.11,-102.31 278.78,-111.47 288.66,-107.63 284.11,-102.31"/>
<text text-anchor="start" x="362" y="-94" font-family="Helvetica,sans-Serif" font-size="10.00"> &lt; ComplexIntElementIterator,</text>
<text text-anchor="start" x="362" y="-83" font-family="Helvetica,sans-Serif" font-size="10.00"> std::complex&lt; APInt &gt;,</text>
<text text-anchor="start" x="362" y="-72" font-family="Helvetica,sans-Serif" font-size="10.00"> std::complex&lt; APInt &gt;, std</text>
<text text-anchor="middle" x="437.5" y="-61" font-family="Helvetica,sans-Serif" font-size="10.00">::complex&lt; APInt &gt; &gt;</text>
</g>
<!-- Node2 -->
<g id="node2" class="node">
<title>Node2</title>
<g id="a_node2"><a xlink:title=" ">
<polygon fill="none" stroke="#bfbfbf" points="0,-106 0,-158 131,-158 131,-106 0,-106"/>
<text text-anchor="start" x="8" y="-146" font-family="Helvetica,sans-Serif" font-size="10.00">llvm::indexed_accessor</text>
<text text-anchor="start" x="8" y="-135" font-family="Helvetica,sans-Serif" font-size="10.00">_iterator&lt; ConcreteT,</text>
<text text-anchor="start" x="8" y="-124" font-family="Helvetica,sans-Serif" font-size="10.00"> DenseIterPtrAndSplat,</text>
<text text-anchor="middle" x="65.5" y="-113" font-family="Helvetica,sans-Serif" font-size="10.00"> T, T *, T &amp; &gt;</text>
</a>
</g>
</g>
<!-- Node2&#45;&gt;Node1 -->
<g id="edge1" class="edge">
<title>Node2&#45;&gt;Node1</title>
<path fill="none" stroke="midnightblue" d="M141.23,-132C149.97,-132 158.94,-132 167.82,-132"/>
<polygon fill="midnightblue" stroke="midnightblue" points="141.11,-128.5 131.11,-132 141.11,-135.5 141.11,-128.5"/>
</g>
<!-- Node4 -->
<g id="node4" class="node">
<title>Node4</title>
<g id="a_node4"><a xlink:href="classmlir_1_1DenseElementsAttr_1_1ElementIterator.html" target="_top" xlink:title="Iterator for walking raw element values of the specified type &#39;T&#39;, which may be any c++ data type mat...">
<polygon fill="none" stroke="black" points="777,-208 777,-238 914,-238 914,-208 777,-208"/>
<text text-anchor="start" x="785" y="-226" font-family="Helvetica,sans-Serif" font-size="10.00">mlir::DenseElementsAttr</text>
<text text-anchor="middle" x="845.5" y="-215" font-family="Helvetica,sans-Serif" font-size="10.00">::ElementIterator&lt; T &gt;</text>
</a>
</g>
</g>
<!-- Node3&#45;&gt;Node4 -->
<g id="edge3" class="edge">
<title>Node3&#45;&gt;Node4</title>
<path fill="none" stroke="midnightblue" d="M741.26,-223C753.37,-223 765.43,-223 776.8,-223"/>
<polygon fill="midnightblue" stroke="midnightblue" points="741.1,-219.5 731.1,-223 741.1,-226.5 741.1,-219.5"/>
</g>
<!-- Node6 -->
<g id="node6" class="node">
<title>Node6</title>
<g id="a_node6"><a xlink:href="classmlir_1_1DenseElementsAttr_1_1BoolElementIterator.html" target="_top" xlink:title="A utility iterator that allows walking over the internal bool values.">
<polygon fill="none" stroke="black" points="777,-148 777,-178 914,-178 914,-148 777,-148"/>
<text text-anchor="start" x="785" y="-166" font-family="Helvetica,sans-Serif" font-size="10.00">mlir::DenseElementsAttr</text>
<text text-anchor="middle" x="845.5" y="-155" font-family="Helvetica,sans-Serif" font-size="10.00">::BoolElementIterator</text>
</a>
</g>
</g>
<!-- Node5&#45;&gt;Node6 -->
<g id="edge5" class="edge">
<title>Node5&#45;&gt;Node6</title>
<path fill="none" stroke="midnightblue" d="M734.69,-163C749.04,-163 763.47,-163 776.94,-163"/>
<polygon fill="midnightblue" stroke="midnightblue" points="734.28,-159.5 724.28,-163 734.28,-166.5 734.28,-159.5"/>
</g>
<!-- Node8 -->
<g id="node8" class="node">
<title>Node8</title>
<g id="a_node8"><a xlink:href="classmlir_1_1DenseElementsAttr_1_1IntElementIterator.html" target="_top" xlink:title="A utility iterator that allows walking over the internal raw APInt values.">
<polygon fill="none" stroke="black" points="777,-88 777,-118 914,-118 914,-88 777,-88"/>
<text text-anchor="start" x="785" y="-106" font-family="Helvetica,sans-Serif" font-size="10.00">mlir::DenseElementsAttr</text>
<text text-anchor="middle" x="845.5" y="-95" font-family="Helvetica,sans-Serif" font-size="10.00">::IntElementIterator</text>
</a>
</g>
</g>
<!-- Node7&#45;&gt;Node8 -->
<g id="edge7" class="edge">
<title>Node7&#45;&gt;Node8</title>
<path fill="none" stroke="midnightblue" d="M730.02,-103C745.85,-103 761.94,-103 776.85,-103"/>
<polygon fill="midnightblue" stroke="midnightblue" points="729.66,-99.5 719.66,-103 729.66,-106.5 729.66,-99.5"/>
</g>
<!-- Node10 -->
<g id="node10" class="node">
<title>Node10</title>
<g id="a_node10"><a xlink:href="classmlir_1_1DenseElementsAttr_1_1ComplexIntElementIterator.html" target="_top" xlink:title="A utility iterator that allows walking over the internal raw complex APInt values.">
<polygon fill="none" stroke="black" points="768,-17 768,-47 923,-47 923,-17 768,-17"/>
<text text-anchor="start" x="776" y="-35" font-family="Helvetica,sans-Serif" font-size="10.00">mlir::DenseElementsAttr</text>
<text text-anchor="middle" x="845.5" y="-24" font-family="Helvetica,sans-Serif" font-size="10.00">::ComplexIntElementIterator</text>
</a>
</g>
</g>
<!-- Node9&#45;&gt;Node10 -->
<g id="edge9" class="edge">
<title>Node9&#45;&gt;Node10</title>
<path fill="none" stroke="midnightblue" d="M731.46,-32C743.74,-32 756.14,-32 768,-32"/>
<polygon fill="midnightblue" stroke="midnightblue" points="731.2,-28.5 721.2,-32 731.2,-35.5 731.2,-28.5"/>
</g>
</g>
</svg>
