<?xml version="1.0" encoding="UTF-8" standalone="no"?>
<!DOCTYPE svg PUBLIC "-//W3C//DTD SVG 1.1//EN"
 "http://www.w3.org/Graphics/SVG/1.1/DTD/svg11.dtd">
<!-- Generated by graphviz version 2.43.0 (0)
 -->
<!-- Title: mlir::dataflow::Lattice&lt; ValueT &gt; Pages: 1 -->
<svg width="984pt" height="182pt"
 viewBox="0.00 0.00 984.00 182.00" xmlns="http://www.w3.org/2000/svg" xmlns:xlink="http://www.w3.org/1999/xlink">
<g id="graph0" class="graph" transform="scale(1 1) rotate(0) translate(4 178)">
<title>mlir::dataflow::Lattice&lt; ValueT &gt;</title>
<!-- Node1 -->
<g id="Node000001" class="node">
<title>Node1</title>
<g id="a_Node000001"><a xlink:title="This class represents a lattice holding a specific value of type ValueT.">
<polygon fill="#999999" stroke="#666666" points="435,-100 313,-100 313,-70 435,-70 435,-100"/>
<text text-anchor="start" x="321" y="-88" font-family="Helvetica,sans-Serif" font-size="10.00">mlir::dataflow::Lattice</text>
<text text-anchor="middle" x="374" y="-77" font-family="Helvetica,sans-Serif" font-size="10.00">&lt; ValueT &gt;</text>
</a>
</g>
</g>
<!-- Node4 -->
<g id="Node000004" class="node">
<title>Node4</title>
<g id="a_Node000004"><a xlink:href="classmlir_1_1dataflow_1_1Lattice.html" target="_top" xlink:title=" ">
<polygon fill="white" stroke="#666666" points="748.5,-174 626.5,-174 626.5,-144 748.5,-144 748.5,-174"/>
<text text-anchor="start" x="634.5" y="-162" font-family="Helvetica,sans-Serif" font-size="10.00">mlir::dataflow::Lattice</text>
<text text-anchor="middle" x="687.5" y="-151" font-family="Helvetica,sans-Serif" font-size="10.00">&lt; AxisInfo &gt;</text>
</a>
</g>
</g>
<!-- Node1&#45;&gt;Node4 -->
<g id="edge3_Node000001_Node000004" class="edge">
<title>Node1&#45;&gt;Node4</title>
<g id="a_edge3_Node000001_Node000004"><a xlink:title=" ">
<path fill="none" stroke="orange" stroke-dasharray="5,2" d="M410.04,-104.85C423.16,-111.53 438.42,-118.44 453,-123 510.35,-140.94 578.53,-150.14 626.36,-154.72"/>
<polygon fill="orange" stroke="orange" points="411.38,-101.6 400.9,-100.06 408.13,-107.8 411.38,-101.6"/>
</a>
</g>
<text text-anchor="start" x="492.5" y="-155.5" font-family="Helvetica,sans-Serif" font-size="10.00" fill="grey">&lt; AxisInfo &gt;</text>
</g>
<!-- Node5 -->
<g id="Node000005" class="node">
<title>Node5</title>
<g id="a_Node000005"><a xlink:href="classmlir_1_1dataflow_1_1Lattice.html" target="_top" xlink:title=" ">
<polygon fill="white" stroke="#666666" points="750.5,-126 624.5,-126 624.5,-96 750.5,-96 750.5,-126"/>
<text text-anchor="start" x="632.5" y="-114" font-family="Helvetica,sans-Serif" font-size="10.00">mlir::dataflow::Lattice</text>
<text text-anchor="middle" x="687.5" y="-103" font-family="Helvetica,sans-Serif" font-size="10.00">&lt; IntegerDivisibility &gt;</text>
</a>
</g>
</g>
<!-- Node1&#45;&gt;Node5 -->
<g id="edge4_Node000001_Node000005" class="edge">
<title>Node1&#45;&gt;Node5</title>
<g id="a_edge4_Node000001_Node000005"><a xlink:title=" ">
<path fill="none" stroke="orange" stroke-dasharray="5,2" d="M445.22,-90.86C499.1,-95.36 572.78,-101.51 624.49,-105.82"/>
<polygon fill="orange" stroke="orange" points="445.32,-87.36 435.06,-90.01 444.73,-94.33 445.32,-87.36"/>
</a>
</g>
<text text-anchor="start" x="468.5" y="-107.5" font-family="Helvetica,sans-Serif" font-size="10.00" fill="grey">&lt; IntegerDivisibility &gt;</text>
</g>
<!-- Node7 -->
<g id="Node000007" class="node">
<title>Node7</title>
<g id="a_Node000007"><a xlink:href="classmlir_1_1dataflow_1_1Lattice.html" target="_top" xlink:title=" ">
<polygon fill="white" stroke="#666666" points="753,-78 622,-78 622,-48 753,-48 753,-78"/>
<text text-anchor="start" x="630" y="-66" font-family="Helvetica,sans-Serif" font-size="10.00">mlir::dataflow::Lattice</text>
<text text-anchor="middle" x="687.5" y="-55" font-family="Helvetica,sans-Serif" font-size="10.00">&lt; IntegerValueRange &gt;</text>
</a>
</g>
</g>
<!-- Node1&#45;&gt;Node7 -->
<g id="edge6_Node000001_Node000007" class="edge">
<title>Node1&#45;&gt;Node7</title>
<g id="a_edge6_Node000001_Node000007"><a xlink:title=" ">
<path fill="none" stroke="orange" stroke-dasharray="5,2" d="M445.32,-69.03C447.9,-68.64 450.47,-68.3 453,-68 509.77,-61.27 574.84,-60.44 621.85,-61.05"/>
<polygon fill="orange" stroke="orange" points="444.58,-65.6 435.27,-70.66 445.7,-72.51 444.58,-65.6"/>
</a>
</g>
<text text-anchor="start" x="466.5" y="-73.5" font-family="Helvetica,sans-Serif" font-size="10.00" fill="grey">&lt; IntegerValueRange &gt;</text>
</g>
<!-- Node9 -->
<g id="Node000009" class="node">
<title>Node9</title>
<g id="a_Node000009"><a xlink:href="classmlir_1_1dataflow_1_1Lattice.html" target="_top" xlink:title=" ">
<polygon fill="white" stroke="#666666" points="763,-30 612,-30 612,0 763,0 763,-30"/>
<text text-anchor="start" x="620" y="-18" font-family="Helvetica,sans-Serif" font-size="10.00">mlir::dataflow::Lattice</text>
<text text-anchor="middle" x="687.5" y="-7" font-family="Helvetica,sans-Serif" font-size="10.00">&lt; StridedMetadataRange &gt;</text>
</a>
</g>
</g>
<!-- Node1&#45;&gt;Node9 -->
<g id="edge8_Node000001_Node000009" class="edge">
<title>Node1&#45;&gt;Node9</title>
<g id="a_edge8_Node000001_Node000009"><a xlink:title=" ">
<path fill="none" stroke="orange" stroke-dasharray="5,2" d="M404.42,-64.12C418.48,-55.19 435.93,-45.56 453,-40 504.36,-23.27 565.11,-17.16 611.77,-15.16"/>
<polygon fill="orange" stroke="orange" points="402.15,-61.42 395.71,-69.83 405.99,-67.27 402.15,-61.42"/>
</a>
</g>
<text text-anchor="start" x="456.5" y="-45.5" font-family="Helvetica,sans-Serif" font-size="10.00" fill="grey">&lt; StridedMetadataRange &gt;</text>
</g>
<!-- Node2 -->
<g id="Node000002" class="node">
<title>Node2</title>
<g id="a_Node000002"><a xlink:href="classmlir_1_1dataflow_1_1AbstractSparseLattice.html" target="_top" xlink:title="This class represents an abstract lattice.">
<polygon fill="white" stroke="#666666" points="276,-100 146,-100 146,-70 276,-70 276,-100"/>
<text text-anchor="start" x="154" y="-88" font-family="Helvetica,sans-Serif" font-size="10.00">mlir::dataflow::Abstract</text>
<text text-anchor="middle" x="211" y="-77" font-family="Helvetica,sans-Serif" font-size="10.00">SparseLattice</text>
</a>
</g>
</g>
<!-- Node2&#45;&gt;Node1 -->
<g id="edge1_Node000001_Node000002" class="edge">
<title>Node2&#45;&gt;Node1</title>
<g id="a_edge1_Node000001_Node000002"><a xlink:title=" ">
<path fill="none" stroke="#63b8ff" d="M286.11,-85C295.05,-85 304.09,-85 312.79,-85"/>
<polygon fill="#63b8ff" stroke="#63b8ff" points="286.09,-81.5 276.09,-85 286.09,-88.5 286.09,-81.5"/>
</a>
</g>
</g>
<!-- Node3 -->
<g id="Node000003" class="node">
<title>Node3</title>
<g id="a_Node000003"><a xlink:href="classmlir_1_1AnalysisState.html" target="_top" xlink:title="Base class for generic analysis states.">
<polygon fill="white" stroke="#666666" points="109,-94.5 0,-94.5 0,-75.5 109,-75.5 109,-94.5"/>
<text text-anchor="middle" x="54.5" y="-82.5" font-family="Helvetica,sans-Serif" font-size="10.00">mlir::AnalysisState</text>
</a>
</g>
</g>
<!-- Node3&#45;&gt;Node2 -->
<g id="edge2_Node000002_Node000003" class="edge">
<title>Node3&#45;&gt;Node2</title>
<g id="a_edge2_Node000002_Node000003"><a xlink:title=" ">
<path fill="none" stroke="#63b8ff" d="M119.27,-85C128.05,-85 137.07,-85 145.86,-85"/>
<polygon fill="#63b8ff" stroke="#63b8ff" points="119.1,-81.5 109.1,-85 119.1,-88.5 119.1,-81.5"/>
</a>
</g>
</g>
<!-- Node6 -->
<g id="Node000006" class="node">
<title>Node6</title>
<g id="a_Node000006"><a xlink:href="classmlir_1_1dataflow_1_1IntegerDivisibilityLattice.html" target="_top" xlink:title="This lattice element represents the integer divisibility of an SSA value.">
<polygon fill="white" stroke="#666666" points="976,-126 800,-126 800,-96 976,-96 976,-126"/>
<text text-anchor="start" x="808" y="-114" font-family="Helvetica,sans-Serif" font-size="10.00">mlir::dataflow::IntegerDivisibility</text>
<text text-anchor="middle" x="888" y="-103" font-family="Helvetica,sans-Serif" font-size="10.00">Lattice</text>
</a>
</g>
</g>
<!-- Node5&#45;&gt;Node6 -->
<g id="edge5_Node000005_Node000006" class="edge">
<title>Node5&#45;&gt;Node6</title>
<g id="a_edge5_Node000005_Node000006"><a xlink:title=" ">
<path fill="none" stroke="#63b8ff" d="M760.79,-111C773.49,-111 786.82,-111 799.87,-111"/>
<polygon fill="#63b8ff" stroke="#63b8ff" points="760.76,-107.5 750.76,-111 760.76,-114.5 760.76,-107.5"/>
</a>
</g>
</g>
<!-- Node8 -->
<g id="Node000008" class="node">
<title>Node8</title>
<g id="a_Node000008"><a xlink:href="classmlir_1_1dataflow_1_1IntegerValueRangeLattice.html" target="_top" xlink:title="This lattice element represents the integer value range of an SSA value.">
<polygon fill="white" stroke="#666666" points="963.5,-78 812.5,-78 812.5,-48 963.5,-48 963.5,-78"/>
<text text-anchor="start" x="820.5" y="-66" font-family="Helvetica,sans-Serif" font-size="10.00">mlir::dataflow::IntegerValue</text>
<text text-anchor="middle" x="888" y="-55" font-family="Helvetica,sans-Serif" font-size="10.00">RangeLattice</text>
</a>
</g>
</g>
<!-- Node7&#45;&gt;Node8 -->
<g id="edge7_Node000007_Node000008" class="edge">
<title>Node7&#45;&gt;Node8</title>
<g id="a_edge7_Node000007_Node000008"><a xlink:title=" ">
<path fill="none" stroke="#63b8ff" d="M763.57,-63C779.55,-63 796.41,-63 812.37,-63"/>
<polygon fill="#63b8ff" stroke="#63b8ff" points="763.22,-59.5 753.22,-63 763.22,-66.5 763.22,-59.5"/>
</a>
</g>
</g>
<!-- Node10 -->
<g id="Node000010" class="node">
<title>Node10</title>
<g id="a_Node000010"><a xlink:href="classmlir_1_1dataflow_1_1StridedMetadataRangeLattice.html" target="_top" xlink:title="This lattice element represents the strided metadata of an SSA value.">
<polygon fill="white" stroke="#666666" points="973,-30 803,-30 803,0 973,0 973,-30"/>
<text text-anchor="start" x="811" y="-18" font-family="Helvetica,sans-Serif" font-size="10.00">mlir::dataflow::StridedMetadata</text>
<text text-anchor="middle" x="888" y="-7" font-family="Helvetica,sans-Serif" font-size="10.00">RangeLattice</text>
</a>
</g>
</g>
<!-- Node9&#45;&gt;Node10 -->
<g id="edge9_Node000009_Node000010" class="edge">
<title>Node9&#45;&gt;Node10</title>
<g id="a_edge9_Node000009_Node000010"><a xlink:title=" ">
<path fill="none" stroke="#63b8ff" d="M773.39,-15C783.2,-15 793.19,-15 802.99,-15"/>
<polygon fill="#63b8ff" stroke="#63b8ff" points="773.26,-11.5 763.26,-15 773.26,-18.5 773.26,-11.5"/>
</a>
</g>
</g>
</g>
</svg>
