<?xml version="1.0" encoding="UTF-8" standalone="no"?>
<!DOCTYPE svg PUBLIC "-//W3C//DTD SVG 1.1//EN"
 "http://www.w3.org/Graphics/SVG/1.1/DTD/svg11.dtd">
<!-- Generated by graphviz version 2.43.0 (0)
 -->
<!-- Title: mlir::SPIRVToLLVMConversion&lt; SPIRVOp &gt; Pages: 1 -->
<svg width="246pt" height="356pt"
 viewBox="0.00 0.00 246.00 356.00" xmlns="http://www.w3.org/2000/svg" xmlns:xlink="http://www.w3.org/1999/xlink">
<g id="graph0" class="graph" transform="scale(1 1) rotate(0) translate(4 352)">
<title>mlir::SPIRVToLLVMConversion&lt; SPIRVOp &gt;</title>
<!-- Node1 -->
<g id="node1" class="node">
<title>Node1</title>
<g id="a_node1"><a xlink:title=" ">
<polygon fill="#bfbfbf" stroke="black" points="0,-0.5 0,-30.5 161,-30.5 161,-0.5 0,-0.5"/>
<text text-anchor="start" x="8" y="-18.5" font-family="Helvetica,sans-Serif" font-size="10.00">mlir::SPIRVToLLVMConversion</text>
<text text-anchor="middle" x="80.5" y="-7.5" font-family="Helvetica,sans-Serif" font-size="10.00">&lt; SPIRVOp &gt;</text>
</a>
</g>
</g>
<!-- Node2 -->
<g id="node2" class="node">
<title>Node2</title>
<g id="a_node2"><a xlink:href="classmlir_1_1OpConversionPattern.html" target="_top" xlink:title=" ">
<polygon fill="none" stroke="black" points="8,-68.5 8,-98.5 153,-98.5 153,-68.5 8,-68.5"/>
<text text-anchor="start" x="16" y="-86.5" font-family="Helvetica,sans-Serif" font-size="10.00">mlir::OpConversionPattern</text>
<text text-anchor="middle" x="80.5" y="-75.5" font-family="Helvetica,sans-Serif" font-size="10.00">&lt; SPIRVOp &gt;</text>
</a>
</g>
</g>
<!-- Node2&#45;&gt;Node1 -->
<g id="edge1" class="edge">
<title>Node2&#45;&gt;Node1</title>
<path fill="none" stroke="midnightblue" d="M80.5,-58.03C80.5,-48.86 80.5,-38.74 80.5,-30.79"/>
<polygon fill="midnightblue" stroke="midnightblue" points="77,-58.18 80.5,-68.18 84,-58.18 77,-58.18"/>
</g>
<!-- Node3 -->
<g id="node3" class="node">
<title>Node3</title>
<g id="a_node3"><a xlink:href="classmlir_1_1ConversionPattern.html" target="_top" xlink:title="Base class for the conversion patterns.">
<polygon fill="none" stroke="black" points="11,-214.5 11,-233.5 142,-233.5 142,-214.5 11,-214.5"/>
<text text-anchor="middle" x="76.5" y="-221.5" font-family="Helvetica,sans-Serif" font-size="10.00">mlir::ConversionPattern</text>
</a>
</g>
</g>
<!-- Node3&#45;&gt;Node2 -->
<g id="edge2" class="edge">
<title>Node3&#45;&gt;Node2</title>
<path fill="none" stroke="midnightblue" d="M77.04,-204.25C77.85,-176.19 79.36,-123.88 80.09,-98.73"/>
<polygon fill="midnightblue" stroke="midnightblue" points="73.54,-204.24 76.75,-214.34 80.54,-204.44 73.54,-204.24"/>
</g>
<!-- Node6 -->
<g id="node6" class="node">
<title>Node6</title>
<g id="a_node6"><a xlink:href="classmlir_1_1OpConversionPattern.html" target="_top" xlink:title="OpConversionPattern is a wrapper around ConversionPattern that allows for matching and rewriting agai...">
<polygon fill="none" stroke="black" points="93,-146.5 93,-176.5 238,-176.5 238,-146.5 93,-146.5"/>
<text text-anchor="start" x="101" y="-164.5" font-family="Helvetica,sans-Serif" font-size="10.00">mlir::OpConversionPattern</text>
<text text-anchor="middle" x="165.5" y="-153.5" font-family="Helvetica,sans-Serif" font-size="10.00">&lt; SourceOp &gt;</text>
</a>
</g>
</g>
<!-- Node3&#45;&gt;Node6 -->
<g id="edge6" class="edge">
<title>Node3&#45;&gt;Node6</title>
<path fill="none" stroke="midnightblue" d="M97.89,-208.46C112.15,-198.77 130.77,-186.11 144.87,-176.53"/>
<polygon fill="midnightblue" stroke="midnightblue" points="95.55,-205.82 89.25,-214.33 99.49,-211.6 95.55,-205.82"/>
</g>
<!-- Node4 -->
<g id="node4" class="node">
<title>Node4</title>
<g id="a_node4"><a xlink:href="classmlir_1_1RewritePattern.html" target="_top" xlink:title="RewritePattern is the common base class for all DAG to DAG replacements.">
<polygon fill="none" stroke="black" points="19.5,-271.5 19.5,-290.5 133.5,-290.5 133.5,-271.5 19.5,-271.5"/>
<text text-anchor="middle" x="76.5" y="-278.5" font-family="Helvetica,sans-Serif" font-size="10.00">mlir::RewritePattern</text>
</a>
</g>
</g>
<!-- Node4&#45;&gt;Node3 -->
<g id="edge3" class="edge">
<title>Node4&#45;&gt;Node3</title>
<path fill="none" stroke="midnightblue" d="M76.5,-261.12C76.5,-251.82 76.5,-241.06 76.5,-233.71"/>
<polygon fill="midnightblue" stroke="midnightblue" points="73,-261.41 76.5,-271.41 80,-261.41 73,-261.41"/>
</g>
<!-- Node5 -->
<g id="node5" class="node">
<title>Node5</title>
<g id="a_node5"><a xlink:href="classmlir_1_1Pattern.html" target="_top" xlink:title="This class contains all of the data related to a pattern, but does not contain any methods or logic f...">
<polygon fill="none" stroke="black" points="38,-328.5 38,-347.5 115,-347.5 115,-328.5 38,-328.5"/>
<text text-anchor="middle" x="76.5" y="-335.5" font-family="Helvetica,sans-Serif" font-size="10.00">mlir::Pattern</text>
</a>
</g>
</g>
<!-- Node5&#45;&gt;Node4 -->
<g id="edge4" class="edge">
<title>Node5&#45;&gt;Node4</title>
<path fill="none" stroke="midnightblue" d="M76.5,-318.12C76.5,-308.82 76.5,-298.06 76.5,-290.71"/>
<polygon fill="midnightblue" stroke="midnightblue" points="73,-318.41 76.5,-328.41 80,-318.41 73,-318.41"/>
</g>
<!-- Node6&#45;&gt;Node2 -->
<g id="edge5" class="edge">
<title>Node6&#45;&gt;Node2</title>
<path fill="none" stroke="orange" stroke-dasharray="5,2" d="M141.89,-139.39C127.4,-126.43 109.22,-110.18 96.42,-98.73"/>
<polygon fill="orange" stroke="orange" points="139.72,-142.15 149.51,-146.2 144.39,-136.93 139.72,-142.15"/>
<text text-anchor="middle" x="161.5" y="-120" font-family="Helvetica,sans-Serif" font-size="10.00"> &lt; SPIRVOp &gt;</text>
</g>
</g>
</svg>
