<?xml version="1.0" encoding="UTF-8" standalone="no"?>
<!DOCTYPE svg PUBLIC "-//W3C//DTD SVG 1.1//EN"
 "http://www.w3.org/Graphics/SVG/1.1/DTD/svg11.dtd">
<!-- Generated by graphviz version 2.43.0 (0)
 -->
<!-- Title: mlir::tensor::impl::ScalarizeSingleElementTensorReturnPassBase&lt; DerivedT &gt; Pages: 1 -->
<svg width="217pt" height="255pt"
 viewBox="0.00 0.00 216.50 255.00" xmlns="http://www.w3.org/2000/svg" xmlns:xlink="http://www.w3.org/1999/xlink">
<g id="graph0" class="graph" transform="scale(1 1) rotate(0) translate(4 251)">
<title>mlir::tensor::impl::ScalarizeSingleElementTensorReturnPassBase&lt; DerivedT &gt;</title>
<!-- Node1 -->
<g id="Node000001" class="node">
<title>Node1</title>
<g id="a_Node000001"><a xlink:title=" ">
<polygon fill="#999999" stroke="#666666" points="169,-41 0,-41 0,0 169,0 169,-41"/>
<text text-anchor="start" x="8" y="-29" font-family="Helvetica,sans-Serif" font-size="10.00">mlir::tensor::impl</text>
<text text-anchor="start" x="8" y="-18" font-family="Helvetica,sans-Serif" font-size="10.00">::ScalarizeSingleElementTensor</text>
<text text-anchor="middle" x="84.5" y="-7" font-family="Helvetica,sans-Serif" font-size="10.00">ReturnPassBase&lt; DerivedT &gt;</text>
</a>
</g>
</g>
<!-- Node2 -->
<g id="Node000002" class="node">
<title>Node2</title>
<g id="a_Node000002"><a xlink:href="classmlir_1_1OperationPass.html" target="_top" xlink:title=" ">
<polygon fill="white" stroke="#666666" points="140.5,-108 28.5,-108 28.5,-78 140.5,-78 140.5,-108"/>
<text text-anchor="start" x="36.5" y="-96" font-family="Helvetica,sans-Serif" font-size="10.00">mlir::OperationPass</text>
<text text-anchor="middle" x="84.5" y="-85" font-family="Helvetica,sans-Serif" font-size="10.00">&lt; ModuleOp &gt;</text>
</a>
</g>
</g>
<!-- Node2&#45;&gt;Node1 -->
<g id="edge1_Node000001_Node000002" class="edge">
<title>Node2&#45;&gt;Node1</title>
<g id="a_edge1_Node000001_Node000002"><a xlink:title=" ">
<path fill="none" stroke="#63b8ff" d="M84.5,-67.48C84.5,-58.85 84.5,-49.26 84.5,-41.09"/>
<polygon fill="#63b8ff" stroke="#63b8ff" points="81,-67.73 84.5,-77.73 88,-67.73 81,-67.73"/>
</a>
</g>
</g>
<!-- Node3 -->
<g id="Node000003" class="node">
<title>Node3</title>
<g id="a_Node000003"><a xlink:href="classmlir_1_1Pass.html" target="_top" xlink:title="The abstract base pass class.">
<polygon fill="white" stroke="#666666" points="112.5,-247 48.5,-247 48.5,-228 112.5,-228 112.5,-247"/>
<text text-anchor="middle" x="80.5" y="-235" font-family="Helvetica,sans-Serif" font-size="10.00">mlir::Pass</text>
</a>
</g>
</g>
<!-- Node3&#45;&gt;Node2 -->
<g id="edge2_Node000002_Node000003" class="edge">
<title>Node3&#45;&gt;Node2</title>
<g id="a_edge2_Node000002_Node000003"><a xlink:title=" ">
<path fill="none" stroke="#63b8ff" d="M81.03,-217.54C81.85,-188.58 83.38,-133.99 84.1,-108.19"/>
<polygon fill="#63b8ff" stroke="#63b8ff" points="77.53,-217.49 80.75,-227.59 84.53,-217.69 77.53,-217.49"/>
</a>
</g>
</g>
<!-- Node4 -->
<g id="Node000004" class="node">
<title>Node4</title>
<g id="a_Node000004"><a xlink:href="classmlir_1_1OperationPass.html" target="_top" xlink:title="Pass to transform an operation of a specific type.">
<polygon fill="white" stroke="#666666" points="208.5,-191 96.5,-191 96.5,-161 208.5,-161 208.5,-191"/>
<text text-anchor="start" x="104.5" y="-179" font-family="Helvetica,sans-Serif" font-size="10.00">mlir::OperationPass</text>
<text text-anchor="middle" x="152.5" y="-168" font-family="Helvetica,sans-Serif" font-size="10.00">&lt; OpT &gt;</text>
</a>
</g>
</g>
<!-- Node3&#45;&gt;Node4 -->
<g id="edge4_Node000004_Node000003" class="edge">
<title>Node3&#45;&gt;Node4</title>
<g id="a_edge4_Node000004_Node000003"><a xlink:title=" ">
<path fill="none" stroke="#63b8ff" d="M98.75,-221.42C110.05,-212.08 124.47,-200.16 135.53,-191.02"/>
<polygon fill="#63b8ff" stroke="#63b8ff" points="96.29,-218.91 90.82,-227.98 100.75,-224.3 96.29,-218.91"/>
</a>
</g>
</g>
<!-- Node4&#45;&gt;Node2 -->
<g id="edge3_Node000002_Node000004" class="edge">
<title>Node4&#45;&gt;Node2</title>
<g id="a_edge3_Node000002_Node000004"><a xlink:title=" ">
<path fill="none" stroke="orange" stroke-dasharray="5,2" d="M134.05,-153.02C122.08,-138.76 106.84,-120.61 96.44,-108.22"/>
<polygon fill="orange" stroke="orange" points="131.54,-155.48 140.66,-160.89 136.91,-150.98 131.54,-155.48"/>
</a>
</g>
<text text-anchor="start" x="128" y="-131.5" font-family="Helvetica,sans-Serif" font-size="10.00" fill="grey">&lt; ModuleOp &gt;</text>
</g>
</g>
</svg>
