<?xml version="1.0" encoding="UTF-8" standalone="no"?>
<!DOCTYPE svg PUBLIC "-//W3C//DTD SVG 1.1//EN"
 "http://www.w3.org/Graphics/SVG/1.1/DTD/svg11.dtd">
<!-- Generated by graphviz version 2.43.0 (0)
 -->
<!-- Title: mlir::detail::AttrTypeReplacerBase&lt; Concrete &gt; Pages: 1 -->
<svg width="710pt" height="88pt"
 viewBox="0.00 0.00 710.00 88.00" xmlns="http://www.w3.org/2000/svg" xmlns:xlink="http://www.w3.org/1999/xlink">
<g id="graph0" class="graph" transform="scale(1 1) rotate(0) translate(4 84)">
<title>mlir::detail::AttrTypeReplacerBase&lt; Concrete &gt;</title>
<!-- Node1 -->
<g id="node1" class="node">
<title>Node1</title>
<g id="a_node1"><a xlink:title="This class provides a base utility for replacing attributes/types, and their sub elements.">
<polygon fill="#bfbfbf" stroke="black" points="0,-24.5 0,-54.5 159,-54.5 159,-24.5 0,-24.5"/>
<text text-anchor="start" x="8" y="-42.5" font-family="Helvetica,sans-Serif" font-size="10.00">mlir::detail::AttrTypeReplacer</text>
<text text-anchor="middle" x="79.5" y="-31.5" font-family="Helvetica,sans-Serif" font-size="10.00">Base&lt; Concrete &gt;</text>
</a>
</g>
</g>
<!-- Node2 -->
<g id="node2" class="node">
<title>Node2</title>
<g id="a_node2"><a xlink:href="classmlir_1_1detail_1_1AttrTypeReplacerBase.html" target="_top" xlink:title=" ">
<polygon fill="none" stroke="black" points="342.5,-49.5 342.5,-79.5 501.5,-79.5 501.5,-49.5 342.5,-49.5"/>
<text text-anchor="start" x="350.5" y="-67.5" font-family="Helvetica,sans-Serif" font-size="10.00">mlir::detail::AttrTypeReplacer</text>
<text text-anchor="middle" x="422" y="-56.5" font-family="Helvetica,sans-Serif" font-size="10.00">Base&lt; AttrTypeReplacer &gt;</text>
</a>
</g>
</g>
<!-- Node1&#45;&gt;Node2 -->
<g id="edge1" class="edge">
<title>Node1&#45;&gt;Node2</title>
<path fill="none" stroke="orange" stroke-dasharray="5,2" d="M169.23,-46.01C222.83,-49.95 290.56,-54.92 342.26,-58.72"/>
<polygon fill="orange" stroke="orange" points="169.27,-42.51 159.05,-45.27 168.76,-49.49 169.27,-42.51"/>
<text text-anchor="middle" x="246.5" y="-58.5" font-family="Helvetica,sans-Serif" font-size="10.00"> &lt; AttrTypeReplacer &gt;</text>
</g>
<!-- Node4 -->
<g id="node4" class="node">
<title>Node4</title>
<g id="a_node4"><a xlink:href="classmlir_1_1detail_1_1AttrTypeReplacerBase.html" target="_top" xlink:title=" ">
<polygon fill="none" stroke="black" points="334,-0.5 334,-30.5 510,-30.5 510,-0.5 334,-0.5"/>
<text text-anchor="start" x="342" y="-18.5" font-family="Helvetica,sans-Serif" font-size="10.00">mlir::detail::AttrTypeReplacer</text>
<text text-anchor="middle" x="422" y="-7.5" font-family="Helvetica,sans-Serif" font-size="10.00">Base&lt; CyclicAttrTypeReplacer &gt;</text>
</a>
</g>
</g>
<!-- Node1&#45;&gt;Node4 -->
<g id="edge3" class="edge">
<title>Node1&#45;&gt;Node4</title>
<path fill="none" stroke="orange" stroke-dasharray="5,2" d="M169.29,-28.2C171.89,-27.96 174.46,-27.72 177,-27.5 228.97,-23 287.33,-20.05 333.94,-18.21"/>
<polygon fill="orange" stroke="orange" points="168.78,-24.74 159.18,-29.22 169.48,-31.7 168.78,-24.74"/>
<text text-anchor="middle" x="246.5" y="-30.5" font-family="Helvetica,sans-Serif" font-size="10.00"> &lt; CyclicAttrTypeReplacer &gt;</text>
</g>
<!-- Node3 -->
<g id="node3" class="node">
<title>Node3</title>
<g id="a_node3"><a xlink:href="classmlir_1_1AttrTypeReplacer.html" target="_top" xlink:title="This is an attribute/type replacer that is naively cached.">
<polygon fill="none" stroke="black" points="562,-55 562,-74 687,-74 687,-55 562,-55"/>
<text text-anchor="middle" x="624.5" y="-62" font-family="Helvetica,sans-Serif" font-size="10.00">mlir::AttrTypeReplacer</text>
</a>
</g>
</g>
<!-- Node2&#45;&gt;Node3 -->
<g id="edge2" class="edge">
<title>Node2&#45;&gt;Node3</title>
<path fill="none" stroke="midnightblue" d="M512.05,-64.5C528.85,-64.5 546.06,-64.5 561.79,-64.5"/>
<polygon fill="midnightblue" stroke="midnightblue" points="511.67,-61 501.67,-64.5 511.67,-68 511.67,-61"/>
</g>
<!-- Node5 -->
<g id="node5" class="node">
<title>Node5</title>
<g id="a_node5"><a xlink:href="classmlir_1_1CyclicAttrTypeReplacer.html" target="_top" xlink:title="This is an attribute/type replacer that supports custom handling of cycles in the replacer logic.">
<polygon fill="none" stroke="black" points="547,-6 547,-25 702,-25 702,-6 547,-6"/>
<text text-anchor="middle" x="624.5" y="-13" font-family="Helvetica,sans-Serif" font-size="10.00">mlir::CyclicAttrTypeReplacer</text>
</a>
</g>
</g>
<!-- Node4&#45;&gt;Node5 -->
<g id="edge4" class="edge">
<title>Node4&#45;&gt;Node5</title>
<path fill="none" stroke="midnightblue" d="M520.17,-15.5C529.14,-15.5 538.15,-15.5 546.9,-15.5"/>
<polygon fill="midnightblue" stroke="midnightblue" points="520.07,-12 510.07,-15.5 520.07,-19 520.07,-12"/>
</g>
</g>
</svg>
