<?xml version="1.0" encoding="UTF-8" standalone="no"?>
<!DOCTYPE svg PUBLIC "-//W3C//DTD SVG 1.1//EN"
 "http://www.w3.org/Graphics/SVG/1.1/DTD/svg11.dtd">
<!-- Generated by graphviz version 2.43.0 (0)
 -->
<!-- Title: mlir::quant::UniformQuantizedPerAxisType Pages: 1 -->
<svg width="562pt" height="66pt"
 viewBox="0.00 0.00 562.00 66.00" xmlns="http://www.w3.org/2000/svg" xmlns:xlink="http://www.w3.org/1999/xlink">
<g id="graph0" class="graph" transform="scale(1 1) rotate(0) translate(4 62)">
<title>mlir::quant::UniformQuantizedPerAxisType</title>
<!-- Node1 -->
<g id="node1" class="node">
<title>Node1</title>
<g id="a_node1"><a xlink:title="Represents per&#45;axis (also known as per&#45;channel quantization).">
<polygon fill="#bfbfbf" stroke="black" points="389,-14 389,-44 554,-44 554,-14 389,-14"/>
<text text-anchor="start" x="397" y="-32" font-family="Helvetica,sans-Serif" font-size="10.00">mlir::quant::UniformQuantized</text>
<text text-anchor="middle" x="471.5" y="-21" font-family="Helvetica,sans-Serif" font-size="10.00">PerAxisType</text>
</a>
</g>
</g>
<!-- Node2 -->
<g id="node2" class="node">
<title>Node2</title>
<g id="a_node2"><a xlink:href="classmlir_1_1detail_1_1StorageUserBase.html" target="_top" xlink:title="Utility class for implementing users of storage classes uniqued by a StorageUniquer.">
<polygon fill="none" stroke="black" points="151,-3 151,-55 353,-55 353,-3 151,-3"/>
<text text-anchor="start" x="159" y="-43" font-family="Helvetica,sans-Serif" font-size="10.00">Type::TypeBase&lt; UniformQuantized</text>
<text text-anchor="start" x="159" y="-32" font-family="Helvetica,sans-Serif" font-size="10.00">PerAxisType, QuantizedType,</text>
<text text-anchor="start" x="159" y="-21" font-family="Helvetica,sans-Serif" font-size="10.00"> detail::UniformQuantizedPerAxisType</text>
<text text-anchor="middle" x="252" y="-10" font-family="Helvetica,sans-Serif" font-size="10.00">Storage &gt;</text>
</a>
</g>
</g>
<!-- Node2&#45;&gt;Node1 -->
<g id="edge1" class="edge">
<title>Node2&#45;&gt;Node1</title>
<path fill="none" stroke="midnightblue" d="M363.24,-29C371.84,-29 380.42,-29 388.78,-29"/>
<polygon fill="midnightblue" stroke="midnightblue" points="363.16,-25.5 353.16,-29 363.16,-32.5 363.16,-25.5"/>
</g>
<!-- Node3 -->
<g id="node3" class="node">
<title>Node3</title>
<g id="a_node3"><a xlink:href="classBaseT.html" target="_top" xlink:title=" ">
<polygon fill="none" stroke="black" points="34,-38.5 34,-57.5 81,-57.5 81,-38.5 34,-38.5"/>
<text text-anchor="middle" x="57.5" y="-45.5" font-family="Helvetica,sans-Serif" font-size="10.00">BaseT</text>
</a>
</g>
</g>
<!-- Node3&#45;&gt;Node2 -->
<g id="edge2" class="edge">
<title>Node3&#45;&gt;Node2</title>
<path fill="none" stroke="midnightblue" d="M91.58,-44.74C108.22,-43.09 129.37,-41 150.79,-38.89"/>
<polygon fill="midnightblue" stroke="midnightblue" points="90.95,-41.28 81.34,-45.75 91.63,-48.25 90.95,-41.28"/>
</g>
<!-- Node4 -->
<g id="node4" class="node">
<title>Node4</title>
<g id="a_node4"><a xlink:title=" ">
<polygon fill="none" stroke="#bfbfbf" points="0,-0.5 0,-19.5 115,-19.5 115,-0.5 0,-0.5"/>
<text text-anchor="middle" x="57.5" y="-7.5" font-family="Helvetica,sans-Serif" font-size="10.00">Traits&lt; ConcreteT &gt;</text>
</a>
</g>
</g>
<!-- Node4&#45;&gt;Node2 -->
<g id="edge3" class="edge">
<title>Node4&#45;&gt;Node2</title>
<path fill="none" stroke="midnightblue" d="M125.23,-16.59C133.58,-17.41 142.27,-18.27 151,-19.13"/>
<polygon fill="midnightblue" stroke="midnightblue" points="125.51,-13.1 115.22,-15.6 124.82,-20.06 125.51,-13.1"/>
</g>
</g>
</svg>
