<?xml version="1.0" encoding="UTF-8" standalone="no"?>
<!DOCTYPE svg PUBLIC "-//W3C//DTD SVG 1.1//EN"
 "http://www.w3.org/Graphics/SVG/1.1/DTD/svg11.dtd">
<!-- Generated by graphviz version 2.43.0 (0)
 -->
<!-- Title: mlir::detail::BlockArgumentImpl Pages: 1 -->
<svg width="181pt" height="231pt"
 viewBox="0.00 0.00 181.00 231.00" xmlns="http://www.w3.org/2000/svg" xmlns:xlink="http://www.w3.org/1999/xlink">
<g id="graph0" class="graph" transform="scale(1 1) rotate(0) translate(4 227)">
<title>mlir::detail::BlockArgumentImpl</title>
<!-- Node1 -->
<g id="node1" class="node">
<title>Node1</title>
<g id="a_node1"><a xlink:title="The internal implementation of a BlockArgument.">
<polygon fill="#bfbfbf" stroke="black" points="0,-0.5 0,-19.5 173,-19.5 173,-0.5 0,-0.5"/>
<text text-anchor="middle" x="86.5" y="-7.5" font-family="Helvetica,sans-Serif" font-size="10.00">mlir::detail::BlockArgumentImpl</text>
</a>
</g>
</g>
<!-- Node2 -->
<g id="node2" class="node">
<title>Node2</title>
<g id="a_node2"><a xlink:href="classmlir_1_1detail_1_1ValueImpl.html" target="_top" xlink:title="The base class for all derived Value classes.">
<polygon fill="none" stroke="black" points="24,-57.5 24,-76.5 149,-76.5 149,-57.5 24,-57.5"/>
<text text-anchor="middle" x="86.5" y="-64.5" font-family="Helvetica,sans-Serif" font-size="10.00">mlir::detail::ValueImpl</text>
</a>
</g>
</g>
<!-- Node2&#45;&gt;Node1 -->
<g id="edge1" class="edge">
<title>Node2&#45;&gt;Node1</title>
<path fill="none" stroke="midnightblue" d="M86.5,-47.12C86.5,-37.82 86.5,-27.06 86.5,-19.71"/>
<polygon fill="midnightblue" stroke="midnightblue" points="83,-47.41 86.5,-57.41 90,-47.41 83,-47.41"/>
</g>
<!-- Node3 -->
<g id="node3" class="node">
<title>Node3</title>
<g id="a_node3"><a xlink:href="classmlir_1_1IRObjectWithUseList.html" target="_top" xlink:title=" ">
<polygon fill="none" stroke="black" points="15.5,-114.5 15.5,-144.5 157.5,-144.5 157.5,-114.5 15.5,-114.5"/>
<text text-anchor="start" x="23.5" y="-132.5" font-family="Helvetica,sans-Serif" font-size="10.00">mlir::IRObjectWithUseList</text>
<text text-anchor="middle" x="86.5" y="-121.5" font-family="Helvetica,sans-Serif" font-size="10.00">&lt; OpOperand &gt;</text>
</a>
</g>
</g>
<!-- Node3&#45;&gt;Node2 -->
<g id="edge2" class="edge">
<title>Node3&#45;&gt;Node2</title>
<path fill="none" stroke="midnightblue" d="M86.5,-104.35C86.5,-94.51 86.5,-83.78 86.5,-76.54"/>
<polygon fill="midnightblue" stroke="midnightblue" points="83,-104.47 86.5,-114.47 90,-104.47 83,-104.47"/>
</g>
<!-- Node4 -->
<g id="node4" class="node">
<title>Node4</title>
<g id="a_node4"><a xlink:href="classmlir_1_1IRObjectWithUseList.html" target="_top" xlink:title="This class represents a single IR object that contains a use list.">
<polygon fill="none" stroke="black" points="15.5,-192.5 15.5,-222.5 157.5,-222.5 157.5,-192.5 15.5,-192.5"/>
<text text-anchor="start" x="23.5" y="-210.5" font-family="Helvetica,sans-Serif" font-size="10.00">mlir::IRObjectWithUseList</text>
<text text-anchor="middle" x="86.5" y="-199.5" font-family="Helvetica,sans-Serif" font-size="10.00">&lt; OperandType &gt;</text>
</a>
</g>
</g>
<!-- Node4&#45;&gt;Node3 -->
<g id="edge3" class="edge">
<title>Node4&#45;&gt;Node3</title>
<path fill="none" stroke="orange" stroke-dasharray="5,2" d="M86.5,-182.09C86.5,-169.76 86.5,-155.22 86.5,-144.73"/>
<polygon fill="orange" stroke="orange" points="83,-182.2 86.5,-192.2 90,-182.21 83,-182.2"/>
<text text-anchor="middle" x="127" y="-166" font-family="Helvetica,sans-Serif" font-size="10.00"> &lt; OpOperand &gt;</text>
</g>
</g>
</svg>
