<?xml version="1.0" encoding="UTF-8" standalone="no"?>
<!DOCTYPE svg PUBLIC "-//W3C//DTD SVG 1.1//EN"
 "http://www.w3.org/Graphics/SVG/1.1/DTD/svg11.dtd">
<!-- Generated by graphviz version 2.43.0 (0)
 -->
<!-- Title: mlir::LLVM::DINodeAttr Pages: 1 -->
<svg width="456pt" height="196pt"
 viewBox="0.00 0.00 455.50 196.00" xmlns="http://www.w3.org/2000/svg" xmlns:xlink="http://www.w3.org/1999/xlink">
<g id="graph0" class="graph" transform="scale(1 1) rotate(0) translate(4 192)">
<title>mlir::LLVM::DINodeAttr</title>
<!-- Node1 -->
<g id="node1" class="node">
<title>Node1</title>
<g id="a_node1"><a xlink:title="This class represents the base attribute for all debug info attributes.">
<polygon fill="#bfbfbf" stroke="black" points="160.5,-112.5 160.5,-131.5 288.5,-131.5 288.5,-112.5 160.5,-112.5"/>
<text text-anchor="middle" x="224.5" y="-119.5" font-family="Helvetica,sans-Serif" font-size="10.00">mlir::LLVM::DINodeAttr</text>
</a>
</g>
</g>
<!-- Node3 -->
<g id="node3" class="node">
<title>Node3</title>
<g id="a_node3"><a xlink:href="classmlir_1_1LLVM_1_1DIScopeAttr.html" target="_top" xlink:title="This class represents a LLVM attribute that describes a debug info scope.">
<polygon fill="none" stroke="black" points="13,-56.5 13,-75.5 144,-75.5 144,-56.5 13,-56.5"/>
<text text-anchor="middle" x="78.5" y="-63.5" font-family="Helvetica,sans-Serif" font-size="10.00">mlir::LLVM::DIScopeAttr</text>
</a>
</g>
</g>
<!-- Node1&#45;&gt;Node3 -->
<g id="edge2" class="edge">
<title>Node1&#45;&gt;Node3</title>
<path fill="none" stroke="midnightblue" d="M191.8,-108.91C164.35,-98.75 125.83,-84.51 101.53,-75.52"/>
<polygon fill="midnightblue" stroke="midnightblue" points="190.77,-112.26 201.37,-112.44 193.2,-105.69 190.77,-112.26"/>
</g>
<!-- Node5 -->
<g id="node5" class="node">
<title>Node5</title>
<g id="a_node5"><a xlink:href="classmlir_1_1LLVM_1_1DITypeAttr.html" target="_top" xlink:title="This class represents a LLVM attribute that describes a debug info type.">
<polygon fill="none" stroke="black" points="162,-56.5 162,-75.5 287,-75.5 287,-56.5 162,-56.5"/>
<text text-anchor="middle" x="224.5" y="-63.5" font-family="Helvetica,sans-Serif" font-size="10.00">mlir::LLVM::DITypeAttr</text>
</a>
</g>
</g>
<!-- Node1&#45;&gt;Node5 -->
<g id="edge4" class="edge">
<title>Node1&#45;&gt;Node5</title>
<path fill="none" stroke="midnightblue" d="M224.5,-101.8C224.5,-92.91 224.5,-82.78 224.5,-75.75"/>
<polygon fill="midnightblue" stroke="midnightblue" points="221,-102.08 224.5,-112.08 228,-102.08 221,-102.08"/>
</g>
<!-- Node6 -->
<g id="node6" class="node">
<title>Node6</title>
<g id="a_node6"><a xlink:href="classmlir_1_1LLVM_1_1DIVariableAttr.html" target="_top" xlink:title="This class represents a LLVM attribute that describes a debug info variable.">
<polygon fill="none" stroke="black" points="305.5,-56.5 305.5,-75.5 447.5,-75.5 447.5,-56.5 305.5,-56.5"/>
<text text-anchor="middle" x="376.5" y="-63.5" font-family="Helvetica,sans-Serif" font-size="10.00">mlir::LLVM::DIVariableAttr</text>
</a>
</g>
</g>
<!-- Node1&#45;&gt;Node6 -->
<g id="edge5" class="edge">
<title>Node1&#45;&gt;Node6</title>
<path fill="none" stroke="midnightblue" d="M258.17,-109.04C286.77,-98.88 327.11,-84.55 352.53,-75.52"/>
<polygon fill="midnightblue" stroke="midnightblue" points="256.84,-105.8 248.58,-112.44 259.18,-112.39 256.84,-105.8"/>
</g>
<!-- Node2 -->
<g id="node2" class="node">
<title>Node2</title>
<g id="a_node2"><a xlink:href="classmlir_1_1Attribute.html" target="_top" xlink:title="Attributes are known&#45;constant values of operations.">
<polygon fill="none" stroke="black" points="182,-168.5 182,-187.5 267,-187.5 267,-168.5 182,-168.5"/>
<text text-anchor="middle" x="224.5" y="-175.5" font-family="Helvetica,sans-Serif" font-size="10.00">mlir::Attribute</text>
</a>
</g>
</g>
<!-- Node2&#45;&gt;Node1 -->
<g id="edge1" class="edge">
<title>Node2&#45;&gt;Node1</title>
<path fill="none" stroke="midnightblue" d="M224.5,-157.8C224.5,-148.91 224.5,-138.78 224.5,-131.75"/>
<polygon fill="midnightblue" stroke="midnightblue" points="221,-158.08 224.5,-168.08 228,-158.08 221,-158.08"/>
</g>
<!-- Node4 -->
<g id="node4" class="node">
<title>Node4</title>
<g id="a_node4"><a xlink:href="classmlir_1_1LLVM_1_1DILocalScopeAttr.html" target="_top" xlink:title="This class represents a LLVM attribute that describes a local debug info scope.">
<polygon fill="none" stroke="black" points="0,-0.5 0,-19.5 157,-19.5 157,-0.5 0,-0.5"/>
<text text-anchor="middle" x="78.5" y="-7.5" font-family="Helvetica,sans-Serif" font-size="10.00">mlir::LLVM::DILocalScopeAttr</text>
</a>
</g>
</g>
<!-- Node3&#45;&gt;Node4 -->
<g id="edge3" class="edge">
<title>Node3&#45;&gt;Node4</title>
<path fill="none" stroke="midnightblue" d="M78.5,-45.8C78.5,-36.91 78.5,-26.78 78.5,-19.75"/>
<polygon fill="midnightblue" stroke="midnightblue" points="75,-46.08 78.5,-56.08 82,-46.08 75,-46.08"/>
</g>
</g>
</svg>
