<?xml version="1.0" encoding="UTF-8" standalone="no"?>
<!DOCTYPE svg PUBLIC "-//W3C//DTD SVG 1.1//EN"
 "http://www.w3.org/Graphics/SVG/1.1/DTD/svg11.dtd">
<!-- Generated by graphviz version 2.43.0 (0)
 -->
<!-- Title: mlir::pdll::ast::AllResultsMemberAccessExpr Pages: 1 -->
<svg width="191pt" height="218pt"
 viewBox="0.00 0.00 191.00 218.00" xmlns="http://www.w3.org/2000/svg" xmlns:xlink="http://www.w3.org/1999/xlink">
<g id="graph0" class="graph" transform="scale(1 1) rotate(0) translate(4 214)">
<title>mlir::pdll::ast::AllResultsMemberAccessExpr</title>
<!-- Node1 -->
<g id="node1" class="node">
<title>Node1</title>
<g id="a_node1"><a xlink:title="This class represents an instance of MemberAccessExpr that references all results of an operation.">
<polygon fill="#bfbfbf" stroke="black" points="23.5,-0.5 23.5,-30.5 159.5,-30.5 159.5,-0.5 23.5,-0.5"/>
<text text-anchor="start" x="31.5" y="-18.5" font-family="Helvetica,sans-Serif" font-size="10.00">mlir::pdll::ast::AllResults</text>
<text text-anchor="middle" x="91.5" y="-7.5" font-family="Helvetica,sans-Serif" font-size="10.00">MemberAccessExpr</text>
</a>
</g>
</g>
<!-- Node2 -->
<g id="node2" class="node">
<title>Node2</title>
<g id="a_node2"><a xlink:href="classmlir_1_1pdll_1_1ast_1_1MemberAccessExpr.html" target="_top" xlink:title="This expression represents a named member or field access of a given parent expression.">
<polygon fill="none" stroke="black" points="0,-67.5 0,-86.5 183,-86.5 183,-67.5 0,-67.5"/>
<text text-anchor="middle" x="91.5" y="-74.5" font-family="Helvetica,sans-Serif" font-size="10.00">mlir::pdll::ast::MemberAccessExpr</text>
</a>
</g>
</g>
<!-- Node2&#45;&gt;Node1 -->
<g id="edge1" class="edge">
<title>Node2&#45;&gt;Node1</title>
<path fill="none" stroke="midnightblue" d="M91.5,-57.23C91.5,-48.59 91.5,-38.5 91.5,-30.52"/>
<polygon fill="midnightblue" stroke="midnightblue" points="88,-57.48 91.5,-67.48 95,-57.48 88,-57.48"/>
</g>
<!-- Node3 -->
<g id="node3" class="node">
<title>Node3</title>
<g id="a_node3"><a xlink:href="classmlir_1_1pdll_1_1ast_1_1Node_1_1NodeBase.html" target="_top" xlink:title="This CRTP class provides several utilies when defining new AST nodes.">
<polygon fill="none" stroke="black" points="23,-123.5 23,-153.5 160,-153.5 160,-123.5 23,-123.5"/>
<text text-anchor="start" x="31" y="-141.5" font-family="Helvetica,sans-Serif" font-size="10.00">mlir::pdll::ast::Node</text>
<text text-anchor="middle" x="91.5" y="-130.5" font-family="Helvetica,sans-Serif" font-size="10.00">::NodeBase&lt; T, BaseT &gt;</text>
</a>
</g>
</g>
<!-- Node3&#45;&gt;Node2 -->
<g id="edge2" class="edge">
<title>Node3&#45;&gt;Node2</title>
<path fill="none" stroke="midnightblue" d="M91.5,-113.29C91.5,-103.86 91.5,-93.65 91.5,-86.66"/>
<polygon fill="midnightblue" stroke="midnightblue" points="88,-113.4 91.5,-123.4 95,-113.4 88,-113.4"/>
</g>
<!-- Node4 -->
<g id="node4" class="node">
<title>Node4</title>
<g id="a_node4"><a xlink:href="classBaseT.html" target="_top" xlink:title=" ">
<polygon fill="none" stroke="black" points="68,-190.5 68,-209.5 115,-209.5 115,-190.5 68,-190.5"/>
<text text-anchor="middle" x="91.5" y="-197.5" font-family="Helvetica,sans-Serif" font-size="10.00">BaseT</text>
</a>
</g>
</g>
<!-- Node4&#45;&gt;Node3 -->
<g id="edge3" class="edge">
<title>Node4&#45;&gt;Node3</title>
<path fill="none" stroke="midnightblue" d="M91.5,-180.23C91.5,-171.59 91.5,-161.5 91.5,-153.52"/>
<polygon fill="midnightblue" stroke="midnightblue" points="88,-180.48 91.5,-190.48 95,-180.48 88,-180.48"/>
</g>
</g>
</svg>
