<?xml version="1.0" encoding="UTF-8" standalone="no"?>
<!DOCTYPE svg PUBLIC "-//W3C//DTD SVG 1.1//EN"
 "http://www.w3.org/Graphics/SVG/1.1/DTD/svg11.dtd">
<!-- Generated by graphviz version 2.43.0 (0)
 -->
<!-- Title: mlir::StructBuilder Pages: 1 -->
<svg width="508pt" height="82pt"
 viewBox="0.00 0.00 507.50 82.00" xmlns="http://www.w3.org/2000/svg" xmlns:xlink="http://www.w3.org/1999/xlink">
<g id="graph0" class="graph" transform="scale(1 1) rotate(0) translate(4 78)">
<title>mlir::StructBuilder</title>
<!-- Node1 -->
<g id="Node000001" class="node">
<title>Node1</title>
<g id="a_Node000001"><a xlink:title="Helper class to produce LLVM dialect operations extracting or inserting values to a struct.">
<polygon fill="#999999" stroke="#666666" points="287,-74 182,-74 182,-55 287,-55 287,-74"/>
<text text-anchor="middle" x="234.5" y="-62" font-family="Helvetica,sans-Serif" font-size="10.00">mlir::StructBuilder</text>
</a>
</g>
</g>
<!-- Node2 -->
<g id="Node000002" class="node">
<title>Node2</title>
<g id="a_Node000002"><a xlink:href="classmlir_1_1ComplexStructBuilder.html" target="_top" xlink:title=" ">
<polygon fill="white" stroke="#666666" points="149,-19 0,-19 0,0 149,0 149,-19"/>
<text text-anchor="middle" x="74.5" y="-7" font-family="Helvetica,sans-Serif" font-size="10.00">mlir::ComplexStructBuilder</text>
</a>
</g>
</g>
<!-- Node1&#45;&gt;Node2 -->
<g id="edge1_Node000001_Node000002" class="edge">
<title>Node1&#45;&gt;Node2</title>
<g id="a_edge1_Node000001_Node000002"><a xlink:title=" ">
<path fill="none" stroke="#63b8ff" d="M199.17,-51.8C169.31,-41.91 127.23,-27.97 100.41,-19.08"/>
<polygon fill="#63b8ff" stroke="#63b8ff" points="198.2,-55.16 208.79,-54.98 200.4,-48.52 198.2,-55.16"/>
</a>
</g>
</g>
<!-- Node3 -->
<g id="Node000003" class="node">
<title>Node3</title>
<g id="a_Node000003"><a xlink:href="classmlir_1_1MemRefDescriptor.html" target="_top" xlink:title="Helper class to produce LLVM dialect operations extracting or inserting elements of a MemRef descript...">
<polygon fill="white" stroke="#666666" points="301.5,-19 167.5,-19 167.5,0 301.5,0 301.5,-19"/>
<text text-anchor="middle" x="234.5" y="-7" font-family="Helvetica,sans-Serif" font-size="10.00">mlir::MemRefDescriptor</text>
</a>
</g>
</g>
<!-- Node1&#45;&gt;Node3 -->
<g id="edge2_Node000001_Node000003" class="edge">
<title>Node1&#45;&gt;Node3</title>
<g id="a_edge2_Node000001_Node000003"><a xlink:title=" ">
<path fill="none" stroke="#63b8ff" d="M234.5,-44.66C234.5,-35.93 234.5,-25.99 234.5,-19.09"/>
<polygon fill="#63b8ff" stroke="#63b8ff" points="231,-44.75 234.5,-54.75 238,-44.75 231,-44.75"/>
</a>
</g>
</g>
<!-- Node4 -->
<g id="Node000004" class="node">
<title>Node4</title>
<g id="a_Node000004"><a xlink:href="classmlir_1_1UnrankedMemRefDescriptor.html" target="_top" xlink:title=" ">
<polygon fill="white" stroke="#666666" points="499.5,-19 319.5,-19 319.5,0 499.5,0 499.5,-19"/>
<text text-anchor="middle" x="409.5" y="-7" font-family="Helvetica,sans-Serif" font-size="10.00">mlir::UnrankedMemRefDescriptor</text>
</a>
</g>
</g>
<!-- Node1&#45;&gt;Node4 -->
<g id="edge3_Node000001_Node000004" class="edge">
<title>Node1&#45;&gt;Node4</title>
<g id="a_edge3_Node000001_Node000004"><a xlink:title=" ">
<path fill="none" stroke="#63b8ff" d="M272.29,-52.06C305,-42.15 351.57,-28.04 381.16,-19.08"/>
<polygon fill="#63b8ff" stroke="#63b8ff" points="271.17,-48.74 262.62,-54.98 273.2,-55.44 271.17,-48.74"/>
</a>
</g>
</g>
</g>
</svg>
