<?xml version="1.0" encoding="UTF-8" standalone="no"?>
<!DOCTYPE svg PUBLIC "-//W3C//DTD SVG 1.1//EN"
 "http://www.w3.org/Graphics/SVG/1.1/DTD/svg11.dtd">
<!-- Generated by graphviz version 2.43.0 (0)
 -->
<!-- Title: mlir::detail::DialectInterfaceBase&lt; ConcreteType, BaseT &gt; Pages: 1 -->
<svg width="1560pt" height="567pt"
 viewBox="0.00 0.00 1560.00 566.50" xmlns="http://www.w3.org/2000/svg" xmlns:xlink="http://www.w3.org/1999/xlink">
<g id="graph0" class="graph" transform="scale(1 1) rotate(0) translate(4 562.5)">
<title>mlir::detail::DialectInterfaceBase&lt; ConcreteType, BaseT &gt;</title>
<!-- Node1 -->
<g id="Node000001" class="node">
<title>Node1</title>
<g id="a_Node000001"><a xlink:title="The base class used for all derived interface types.">
<polygon fill="#999999" stroke="#666666" points="249,-316.5 84,-316.5 84,-286.5 249,-286.5 249,-316.5"/>
<text text-anchor="start" x="92" y="-304.5" font-family="Helvetica,sans-Serif" font-size="10.00">mlir::detail::DialectInterface</text>
<text text-anchor="middle" x="166.5" y="-293.5" font-family="Helvetica,sans-Serif" font-size="10.00">Base&lt; ConcreteType, BaseT &gt;</text>
</a>
</g>
</g>
<!-- Node3 -->
<g id="Node000003" class="node">
<title>Node3</title>
<g id="a_Node000003"><a xlink:href="classmlir_1_1detail_1_1DialectInterfaceBase.html" target="_top" xlink:title=" ">
<polygon fill="white" stroke="#666666" points="677,-316.5 464,-316.5 464,-286.5 677,-286.5 677,-316.5"/>
<text text-anchor="start" x="472" y="-304.5" font-family="Helvetica,sans-Serif" font-size="10.00">mlir::detail::DialectInterface</text>
<text text-anchor="middle" x="570.5" y="-293.5" font-family="Helvetica,sans-Serif" font-size="10.00">Base&lt; ConcreteType, DialectInterface &gt;</text>
</a>
</g>
</g>
<!-- Node1&#45;&gt;Node3 -->
<g id="edge2_Node000001_Node000003" class="edge">
<title>Node1&#45;&gt;Node3</title>
<g id="a_edge2_Node000001_Node000003"><a xlink:title=" ">
<path fill="none" stroke="orange" stroke-dasharray="5,2" d="M259.69,-301.5C320.49,-301.5 400.31,-301.5 463.71,-301.5"/>
<polygon fill="orange" stroke="orange" points="259.34,-298 249.34,-301.5 259.34,-305 259.34,-298"/>
</a>
</g>
<text text-anchor="start" x="270.5" y="-307" font-family="Helvetica,sans-Serif" font-size="10.00" fill="grey">&lt; ConcreteType, DialectInterface &gt;</text>
</g>
<!-- Node2 -->
<g id="Node000002" class="node">
<title>Node2</title>
<g id="a_Node000002"><a xlink:title=" ">
<polygon fill="white" stroke="#666666" points="47,-311 0,-311 0,-292 47,-292 47,-311"/>
<text text-anchor="middle" x="23.5" y="-299" font-family="Helvetica,sans-Serif" font-size="10.00">BaseT</text>
</a>
</g>
</g>
<!-- Node2&#45;&gt;Node1 -->
<g id="edge1_Node000001_Node000002" class="edge">
<title>Node2&#45;&gt;Node1</title>
<g id="a_edge1_Node000001_Node000002"><a xlink:title=" ">
<path fill="none" stroke="#63b8ff" d="M57.29,-301.5C65.46,-301.5 74.59,-301.5 83.98,-301.5"/>
<polygon fill="#63b8ff" stroke="#63b8ff" points="57.15,-298 47.15,-301.5 57.15,-305 57.15,-298"/>
</a>
</g>
</g>
<!-- Node4 -->
<g id="Node000004" class="node">
<title>Node4</title>
<g id="a_Node000004"><a xlink:href="classmlir_1_1BytecodeDialectInterface.html" target="_top" xlink:title=" ">
<polygon fill="white" stroke="#666666" points="891.5,-558.5 725.5,-558.5 725.5,-528.5 891.5,-528.5 891.5,-558.5"/>
<text text-anchor="start" x="733.5" y="-546.5" font-family="Helvetica,sans-Serif" font-size="10.00">mlir::BytecodeDialectInterface</text>
<text text-anchor="middle" x="808.5" y="-535.5" font-family="Helvetica,sans-Serif" font-size="10.00">&lt; BytecodeDialectInterface &gt;</text>
</a>
</g>
</g>
<!-- Node3&#45;&gt;Node4 -->
<g id="edge3_Node000003_Node000004" class="edge">
<title>Node3&#45;&gt;Node4</title>
<g id="a_edge3_Node000003_Node000004"><a xlink:title=" ">
<path fill="none" stroke="#63b8ff" d="M580.54,-326.1C598.56,-371.62 643.43,-468.95 714,-519.5 718.77,-522.92 723.98,-525.85 729.43,-528.36"/>
<polygon fill="#63b8ff" stroke="#63b8ff" points="583.78,-324.77 576.91,-316.7 577.25,-327.29 583.78,-324.77"/>
</a>
</g>
</g>
<!-- Node5 -->
<g id="Node000005" class="node">
<title>Node5</title>
<g id="a_Node000005"><a xlink:href="classmlir_1_1ConvertToEmitCPatternInterface.html" target="_top" xlink:title=" ">
<polygon fill="white" stroke="#666666" points="900.5,-510 716.5,-510 716.5,-469 900.5,-469 900.5,-510"/>
<text text-anchor="start" x="724.5" y="-498" font-family="Helvetica,sans-Serif" font-size="10.00">mlir::ConvertToEmitCPattern</text>
<text text-anchor="start" x="724.5" y="-487" font-family="Helvetica,sans-Serif" font-size="10.00">Interface&lt; ConvertToEmitCPattern</text>
<text text-anchor="middle" x="808.5" y="-476" font-family="Helvetica,sans-Serif" font-size="10.00">Interface &gt;</text>
</a>
</g>
</g>
<!-- Node3&#45;&gt;Node5 -->
<g id="edge4_Node000003_Node000005" class="edge">
<title>Node3&#45;&gt;Node5</title>
<g id="a_edge4_Node000003_Node000005"><a xlink:title=" ">
<path fill="none" stroke="#63b8ff" d="M586.55,-325.21C609.76,-359.9 657.58,-424.3 714,-460.5 718.86,-463.62 724.08,-466.42 729.48,-468.94"/>
<polygon fill="#63b8ff" stroke="#63b8ff" points="589.34,-323.09 580.92,-316.66 583.5,-326.94 589.34,-323.09"/>
</a>
</g>
</g>
<!-- Node6 -->
<g id="Node000006" class="node">
<title>Node6</title>
<g id="a_Node000006"><a xlink:href="classmlir_1_1ConvertToLLVMPatternInterface.html" target="_top" xlink:title="Base class for dialect interfaces providing translation to LLVM IR.">
<polygon fill="white" stroke="#666666" points="898.5,-451 718.5,-451 718.5,-410 898.5,-410 898.5,-451"/>
<text text-anchor="start" x="726.5" y="-439" font-family="Helvetica,sans-Serif" font-size="10.00">mlir::ConvertToLLVMPattern</text>
<text text-anchor="start" x="726.5" y="-428" font-family="Helvetica,sans-Serif" font-size="10.00">Interface&lt; ConvertToLLVMPattern</text>
<text text-anchor="middle" x="808.5" y="-417" font-family="Helvetica,sans-Serif" font-size="10.00">Interface &gt;</text>
</a>
</g>
</g>
<!-- Node3&#45;&gt;Node6 -->
<g id="edge5_Node000003_Node000006" class="edge">
<title>Node3&#45;&gt;Node6</title>
<g id="a_edge5_Node000003_Node000006"><a xlink:title=" ">
<path fill="none" stroke="#63b8ff" d="M597.68,-323.28C625.19,-345.27 670.43,-378.98 714,-400.5 720.88,-403.9 728.23,-407.03 735.67,-409.88"/>
<polygon fill="#63b8ff" stroke="#63b8ff" points="599.71,-320.42 589.74,-316.86 595.31,-325.87 599.71,-320.42"/>
</a>
</g>
</g>
<!-- Node7 -->
<g id="Node000007" class="node">
<title>Node7</title>
<g id="a_Node000007"><a xlink:href="classmlir_1_1DataLayoutDialectInterface.html" target="_top" xlink:title="An interface to be implemented by dialects that can have identifiers in the data layout specification...">
<polygon fill="white" stroke="#666666" points="896.5,-391.5 720.5,-391.5 720.5,-361.5 896.5,-361.5 896.5,-391.5"/>
<text text-anchor="start" x="728.5" y="-379.5" font-family="Helvetica,sans-Serif" font-size="10.00">mlir::DataLayoutDialectInterface</text>
<text text-anchor="middle" x="808.5" y="-368.5" font-family="Helvetica,sans-Serif" font-size="10.00">&lt; DataLayoutDialectInterface &gt;</text>
</a>
</g>
</g>
<!-- Node3&#45;&gt;Node7 -->
<g id="edge6_Node000003_Node000007" class="edge">
<title>Node3&#45;&gt;Node7</title>
<g id="a_edge6_Node000003_Node000007"><a xlink:title=" ">
<path fill="none" stroke="#63b8ff" d="M620.21,-320.19C647.57,-330.37 682.45,-342.83 714,-352.5 724.17,-355.62 735.05,-358.67 745.66,-361.49"/>
<polygon fill="#63b8ff" stroke="#63b8ff" points="621.08,-316.78 610.49,-316.55 618.63,-323.34 621.08,-316.78"/>
</a>
</g>
</g>
<!-- Node8 -->
<g id="Node000008" class="node">
<title>Node8</title>
<g id="a_Node000008"><a xlink:href="classmlir_1_1DialectFoldInterface.html" target="_top" xlink:title="Define a fold interface to allow for dialects to control specific aspects of the folding behavior for...">
<polygon fill="white" stroke="#666666" points="878.5,-343.5 738.5,-343.5 738.5,-313.5 878.5,-313.5 878.5,-343.5"/>
<text text-anchor="start" x="746.5" y="-331.5" font-family="Helvetica,sans-Serif" font-size="10.00">mlir::DialectFoldInterface</text>
<text text-anchor="middle" x="808.5" y="-320.5" font-family="Helvetica,sans-Serif" font-size="10.00">&lt; DialectFoldInterface &gt;</text>
</a>
</g>
</g>
<!-- Node3&#45;&gt;Node8 -->
<g id="edge7_Node000003_Node000008" class="edge">
<title>Node3&#45;&gt;Node8</title>
<g id="a_edge7_Node000003_Node000008"><a xlink:title=" ">
<path fill="none" stroke="#63b8ff" d="M687.31,-314.75C704.74,-316.74 722.22,-318.74 738.25,-320.58"/>
<polygon fill="#63b8ff" stroke="#63b8ff" points="687.41,-311.24 677.08,-313.58 686.61,-318.19 687.41,-311.24"/>
</a>
</g>
</g>
<!-- Node9 -->
<g id="Node000009" class="node">
<title>Node9</title>
<g id="a_Node000009"><a xlink:href="classmlir_1_1DialectReductionPatternInterface.html" target="_top" xlink:title="This is used to report the reduction patterns for a Dialect.">
<polygon fill="white" stroke="#666666" points="903,-295 714,-295 714,-254 903,-254 903,-295"/>
<text text-anchor="start" x="722" y="-283" font-family="Helvetica,sans-Serif" font-size="10.00">mlir::DialectReductionPattern</text>
<text text-anchor="start" x="722" y="-272" font-family="Helvetica,sans-Serif" font-size="10.00">Interface&lt; DialectReductionPattern</text>
<text text-anchor="middle" x="808.5" y="-261" font-family="Helvetica,sans-Serif" font-size="10.00">Interface &gt;</text>
</a>
</g>
</g>
<!-- Node3&#45;&gt;Node9 -->
<g id="edge8_Node000003_Node000009" class="edge">
<title>Node3&#45;&gt;Node9</title>
<g id="a_edge8_Node000003_Node000009"><a xlink:title=" ">
<path fill="none" stroke="#63b8ff" d="M687.17,-288.27C696.13,-287.24 705.11,-286.21 713.9,-285.21"/>
<polygon fill="#63b8ff" stroke="#63b8ff" points="686.61,-284.81 677.08,-289.42 687.41,-291.76 686.61,-284.81"/>
</a>
</g>
</g>
<!-- Node10 -->
<g id="Node000010" class="node">
<title>Node10</title>
<g id="a_Node000010"><a xlink:href="classmlir_1_1LLVMImportDialectInterface.html" target="_top" xlink:title="Base class for dialect interfaces used to import LLVM IR.">
<polygon fill="white" stroke="#666666" points="897.5,-235.5 719.5,-235.5 719.5,-205.5 897.5,-205.5 897.5,-235.5"/>
<text text-anchor="start" x="727.5" y="-223.5" font-family="Helvetica,sans-Serif" font-size="10.00">mlir::LLVMImportDialectInterface</text>
<text text-anchor="middle" x="808.5" y="-212.5" font-family="Helvetica,sans-Serif" font-size="10.00">&lt; LLVMImportDialectInterface &gt;</text>
</a>
</g>
</g>
<!-- Node3&#45;&gt;Node10 -->
<g id="edge9_Node000003_Node000010" class="edge">
<title>Node3&#45;&gt;Node10</title>
<g id="a_edge9_Node000003_Node000010"><a xlink:title=" ">
<path fill="none" stroke="#63b8ff" d="M615.07,-282.37C643.01,-270.53 680.24,-255.53 714,-244.5 723.72,-241.32 734.11,-238.3 744.31,-235.53"/>
<polygon fill="#63b8ff" stroke="#63b8ff" points="613.42,-279.27 605.6,-286.41 616.17,-285.71 613.42,-279.27"/>
</a>
</g>
</g>
<!-- Node11 -->
<g id="Node000011" class="node">
<title>Node11</title>
<g id="a_Node000011"><a xlink:href="classmlir_1_1LLVMTranslationDialectInterface.html" target="_top" xlink:title="Base class for dialect interfaces providing translation to LLVM IR.">
<polygon fill="white" stroke="#666666" points="901,-187 716,-187 716,-146 901,-146 901,-187"/>
<text text-anchor="start" x="724" y="-175" font-family="Helvetica,sans-Serif" font-size="10.00">mlir::LLVMTranslationDialect</text>
<text text-anchor="start" x="724" y="-164" font-family="Helvetica,sans-Serif" font-size="10.00">Interface&lt; LLVMTranslationDialect</text>
<text text-anchor="middle" x="808.5" y="-153" font-family="Helvetica,sans-Serif" font-size="10.00">Interface &gt;</text>
</a>
</g>
</g>
<!-- Node3&#45;&gt;Node11 -->
<g id="edge10_Node000003_Node000011" class="edge">
<title>Node3&#45;&gt;Node11</title>
<g id="a_edge10_Node000003_Node000011"><a xlink:title=" ">
<path fill="none" stroke="#63b8ff" d="M596.08,-279.47C623.25,-256.1 669.12,-219.45 714,-196.5 720.68,-193.08 727.82,-189.96 735.08,-187.12"/>
<polygon fill="#63b8ff" stroke="#63b8ff" points="593.52,-277.06 588.27,-286.27 598.12,-282.34 593.52,-277.06"/>
</a>
</g>
</g>
<!-- Node12 -->
<g id="Node000012" class="node">
<title>Node12</title>
<g id="a_Node000012"><a xlink:href="classmlir_1_1OpAsmDialectInterface.html" target="_top" xlink:title=" ">
<polygon fill="white" stroke="#666666" points="886,-127.5 731,-127.5 731,-97.5 886,-97.5 886,-127.5"/>
<text text-anchor="start" x="739" y="-115.5" font-family="Helvetica,sans-Serif" font-size="10.00">mlir::OpAsmDialectInterface</text>
<text text-anchor="middle" x="808.5" y="-104.5" font-family="Helvetica,sans-Serif" font-size="10.00">&lt; OpAsmDialectInterface &gt;</text>
</a>
</g>
</g>
<!-- Node3&#45;&gt;Node12 -->
<g id="edge11_Node000003_Node000012" class="edge">
<title>Node3&#45;&gt;Node12</title>
<g id="a_edge11_Node000003_Node000012"><a xlink:title=" ">
<path fill="none" stroke="#63b8ff" d="M585.75,-277.06C608.25,-240.7 655.53,-172.74 714,-136.5 719.56,-133.06 725.59,-130.11 731.82,-127.58"/>
<polygon fill="#63b8ff" stroke="#63b8ff" points="582.52,-275.64 580.32,-286.01 588.5,-279.28 582.52,-275.64"/>
</a>
</g>
</g>
<!-- Node13 -->
<g id="Node000013" class="node">
<title>Node13</title>
<g id="a_Node000013"><a xlink:href="classmlir_1_1ResourceBlobManagerDialectInterface.html" target="_top" xlink:title="This class implements a dialect interface that provides common functionality for interacting with a r...">
<polygon fill="white" stroke="#666666" points="895,-79 722,-79 722,-38 895,-38 895,-79"/>
<text text-anchor="start" x="730" y="-67" font-family="Helvetica,sans-Serif" font-size="10.00">mlir::ResourceBlobManager</text>
<text text-anchor="start" x="730" y="-56" font-family="Helvetica,sans-Serif" font-size="10.00">DialectInterface&lt; ResourceBlob</text>
<text text-anchor="middle" x="808.5" y="-45" font-family="Helvetica,sans-Serif" font-size="10.00">ManagerDialectInterface &gt;</text>
</a>
</g>
</g>
<!-- Node3&#45;&gt;Node13 -->
<g id="edge12_Node000003_Node000013" class="edge">
<title>Node3&#45;&gt;Node13</title>
<g id="a_edge12_Node000003_Node000013"><a xlink:title=" ">
<path fill="none" stroke="#63b8ff" d="M581.37,-276.93C600.38,-232.7 646.26,-139.55 714,-88.5 718.63,-85.01 723.68,-81.92 728.95,-79.18"/>
<polygon fill="#63b8ff" stroke="#63b8ff" points="578.07,-275.75 577.42,-286.33 584.52,-278.46 578.07,-275.75"/>
</a>
</g>
</g>
<!-- Node14 -->
<g id="Node000014" class="node">
<title>Node14</title>
<g id="a_Node000014"><a xlink:href="classmlir_1_1ResourceBlobManagerDialectInterfaceBase.html" target="_top" xlink:title=" ">
<polygon fill="white" stroke="#666666" points="1552,-107 1343,-107 1343,-66 1552,-66 1552,-107"/>
<text text-anchor="start" x="1351" y="-95" font-family="Helvetica,sans-Serif" font-size="10.00">mlir::ResourceBlobManager</text>
<text text-anchor="start" x="1351" y="-84" font-family="Helvetica,sans-Serif" font-size="10.00">DialectInterfaceBase&lt; DialectResource</text>
<text text-anchor="middle" x="1447.5" y="-73" font-family="Helvetica,sans-Serif" font-size="10.00">BlobHandle&lt; DialectT &gt; &gt;</text>
</a>
</g>
</g>
<!-- Node13&#45;&gt;Node14 -->
<g id="edge13_Node000013_Node000014" class="edge">
<title>Node13&#45;&gt;Node14</title>
<g id="a_edge13_Node000013_Node000014"><a xlink:title=" ">
<path fill="none" stroke="#63b8ff" d="M904.89,-76.75C916.69,-78.8 928.61,-80.77 940,-82.5 1109.5,-108.23 1154.13,-120.47 1325,-106.5 1330.86,-106.02 1336.86,-105.41 1342.91,-104.71"/>
<polygon fill="#63b8ff" stroke="#63b8ff" points="905.47,-73.3 895.01,-75.02 904.25,-80.2 905.47,-73.3"/>
</a>
</g>
</g>
<!-- Node15 -->
<g id="Node000015" class="node">
<title>Node15</title>
<g id="a_Node000015"><a xlink:href="classmlir_1_1ResourceBlobManagerDialectInterfaceBase.html" target="_top" xlink:title=" ">
<polygon fill="white" stroke="#666666" points="1550.5,-41 1344.5,-41 1344.5,0 1550.5,0 1550.5,-41"/>
<text text-anchor="start" x="1352.5" y="-29" font-family="Helvetica,sans-Serif" font-size="10.00">mlir::ResourceBlobManager</text>
<text text-anchor="start" x="1352.5" y="-18" font-family="Helvetica,sans-Serif" font-size="10.00">DialectInterfaceBase&lt; DenseResource</text>
<text text-anchor="middle" x="1447.5" y="-7" font-family="Helvetica,sans-Serif" font-size="10.00">ElementsHandle &gt;</text>
</a>
</g>
</g>
<!-- Node13&#45;&gt;Node15 -->
<g id="edge14_Node000013_Node000015" class="edge">
<title>Node13&#45;&gt;Node15</title>
<g id="a_edge14_Node000013_Node000015"><a xlink:title=" ">
<path fill="none" stroke="#63b8ff" d="M905.42,-39.43C917.04,-37.54 928.77,-35.84 940,-34.5 1079.33,-17.92 1241.66,-16.57 1344.24,-17.9"/>
<polygon fill="#63b8ff" stroke="#63b8ff" points="904.54,-36.03 895.26,-41.13 905.7,-42.93 904.54,-36.03"/>
</a>
</g>
</g>
<!-- Node16 -->
<g id="Node000016" class="node">
<title>Node16</title>
<g id="a_Node000016"><a xlink:href="classmlir_1_1ResourceBlobManagerDialectInterfaceBase.html" target="_top" xlink:title="This class provides a base class for dialects implementing the resource blob interface.">
<polygon fill="white" stroke="#666666" points="1122,-73.5 940,-73.5 940,-43.5 1122,-43.5 1122,-73.5"/>
<text text-anchor="start" x="948" y="-61.5" font-family="Helvetica,sans-Serif" font-size="10.00">mlir::ResourceBlobManager</text>
<text text-anchor="middle" x="1031" y="-50.5" font-family="Helvetica,sans-Serif" font-size="10.00">DialectInterfaceBase&lt; HandleT &gt;</text>
</a>
</g>
</g>
<!-- Node13&#45;&gt;Node16 -->
<g id="edge15_Node000013_Node000016" class="edge">
<title>Node13&#45;&gt;Node16</title>
<g id="a_edge15_Node000013_Node000016"><a xlink:title=" ">
<path fill="none" stroke="#63b8ff" d="M905.1,-58.5C916.6,-58.5 928.32,-58.5 939.74,-58.5"/>
<polygon fill="#63b8ff" stroke="#63b8ff" points="905.07,-55 895.07,-58.5 905.07,-62 905.07,-55"/>
</a>
</g>
</g>
<!-- Node16&#45;&gt;Node14 -->
<g id="edge16_Node000016_Node000014" class="edge">
<title>Node16&#45;&gt;Node14</title>
<g id="a_edge16_Node000016_Node000014"><a xlink:title=" ">
<path fill="none" stroke="orange" stroke-dasharray="5,2" d="M1132.19,-62.88C1188.82,-65.63 1260.91,-69.59 1325,-74.5 1330.81,-74.95 1336.78,-75.43 1342.8,-75.95"/>
<polygon fill="orange" stroke="orange" points="1132.31,-59.38 1122.16,-62.4 1131.98,-66.38 1132.31,-59.38"/>
</a>
</g>
<text text-anchor="start" x="1158.5" y="-95.5" font-family="Helvetica,sans-Serif" font-size="10.00" fill="grey">&lt; DialectResourceBlobHandle</text>
<text text-anchor="start" x="1158.5" y="-80.5" font-family="Helvetica,sans-Serif" font-size="10.00" fill="grey">  &lt; DialectT &gt; &gt;</text>
</g>
<!-- Node16&#45;&gt;Node15 -->
<g id="edge17_Node000016_Node000015" class="edge">
<title>Node16&#45;&gt;Node15</title>
<g id="a_edge17_Node000016_Node000015"><a xlink:title=" ">
<path fill="none" stroke="orange" stroke-dasharray="5,2" d="M1132.25,-43.38C1134.86,-43.08 1137.44,-42.78 1140,-42.5 1207.88,-35.05 1284.5,-29.55 1344.16,-25.91"/>
<polygon fill="orange" stroke="orange" points="1131.59,-39.94 1122.1,-44.63 1132.45,-46.89 1131.59,-39.94"/>
</a>
</g>
<text text-anchor="start" x="1143.5" y="-48" font-family="Helvetica,sans-Serif" font-size="10.00" fill="grey">&lt; DenseResourceElementsHandle &gt;</text>
</g>
</g>
</svg>
