<?xml version="1.0" encoding="UTF-8" standalone="no"?>
<!DOCTYPE svg PUBLIC "-//W3C//DTD SVG 1.1//EN"
 "http://www.w3.org/Graphics/SVG/1.1/DTD/svg11.dtd">
<!-- Generated by graphviz version 2.43.0 (0)
 -->
<!-- Title: DefaultDoCastIfPossible Pages: 1 -->
<svg width="350pt" height="703pt"
 viewBox="0.00 0.00 350.00 702.50" xmlns="http://www.w3.org/2000/svg" xmlns:xlink="http://www.w3.org/1999/xlink">
<g id="graph0" class="graph" transform="scale(1 1) rotate(0) translate(4 698.5)">
<title>DefaultDoCastIfPossible</title>
<!-- Node1 -->
<g id="node1" class="node">
<title>Node1</title>
<g id="a_node1"><a xlink:title=" ">
<polygon fill="#bfbfbf" stroke="black" points="0,-334.5 0,-353.5 135,-353.5 135,-334.5 0,-334.5"/>
<text text-anchor="middle" x="67.5" y="-341.5" font-family="Helvetica,sans-Serif" font-size="10.00">DefaultDoCastIfPossible</text>
</a>
</g>
</g>
<!-- Node2 -->
<g id="node2" class="node">
<title>Node2</title>
<g id="a_node2"><a xlink:href="structllvm_1_1CastInfo_3_01T_00_01_1_1mlir_1_1Operation_01_4.html" target="_top" xlink:title="Cast from an (const) Operation &amp; to a derived operation type.">
<polygon fill="none" stroke="black" points="201.5,-664 201.5,-694 311.5,-694 311.5,-664 201.5,-664"/>
<text text-anchor="start" x="209.5" y="-682" font-family="Helvetica,sans-Serif" font-size="10.00">llvm::CastInfo&lt; T,</text>
<text text-anchor="middle" x="256.5" y="-671" font-family="Helvetica,sans-Serif" font-size="10.00"> ::mlir::Operation &gt;</text>
</a>
</g>
</g>
<!-- Node1&#45;&gt;Node2 -->
<g id="edge1" class="edge">
<title>Node1&#45;&gt;Node2</title>
<path fill="none" stroke="midnightblue" d="M69.02,-363.81C71.55,-418.3 86.24,-571.88 171,-654 179.35,-662.09 190.19,-667.58 201.31,-671.3"/>
<polygon fill="midnightblue" stroke="midnightblue" points="72.52,-363.6 68.64,-353.74 65.52,-363.86 72.52,-363.6"/>
</g>
<!-- Node3 -->
<g id="node3" class="node">
<title>Node3</title>
<g id="a_node3"><a xlink:href="structllvm_1_1CastInfo_3_01To_00_01From_00_01std_1_1enable__if__t_3_01std_1_1is__same__v_3_01mli6b1a430db3146c196b022fb0da1dd755.html" target="_top" xlink:title="Add support for llvm style casts.">
<polygon fill="none" stroke="black" points="176,-559.5 176,-644.5 337,-644.5 337,-559.5 176,-559.5"/>
<text text-anchor="start" x="184" y="-632.5" font-family="Helvetica,sans-Serif" font-size="10.00">llvm::CastInfo&lt; To,</text>
<text text-anchor="start" x="184" y="-621.5" font-family="Helvetica,sans-Serif" font-size="10.00"> From, std::enable_if</text>
<text text-anchor="start" x="184" y="-610.5" font-family="Helvetica,sans-Serif" font-size="10.00">_t&lt; std::is_same_v&lt; mlir</text>
<text text-anchor="start" x="184" y="-599.5" font-family="Helvetica,sans-Serif" font-size="10.00">::AffineExpr, std::remove</text>
<text text-anchor="start" x="184" y="-588.5" font-family="Helvetica,sans-Serif" font-size="10.00">_const_t&lt; From &gt; &gt;||std::is</text>
<text text-anchor="start" x="184" y="-577.5" font-family="Helvetica,sans-Serif" font-size="10.00">_base_of_v&lt; mlir::AffineExpr,</text>
<text text-anchor="middle" x="256.5" y="-566.5" font-family="Helvetica,sans-Serif" font-size="10.00"> From &gt; &gt; &gt;</text>
</a>
</g>
</g>
<!-- Node1&#45;&gt;Node3 -->
<g id="edge2" class="edge">
<title>Node1&#45;&gt;Node3</title>
<path fill="none" stroke="midnightblue" d="M74.12,-363.35C86.29,-402.51 118.29,-492.32 171,-550 173.91,-553.18 177.05,-556.23 180.36,-559.16"/>
<polygon fill="midnightblue" stroke="midnightblue" points="77.45,-362.28 71.21,-353.72 70.75,-364.3 77.45,-362.28"/>
</g>
<!-- Node4 -->
<g id="node4" class="node">
<title>Node4</title>
<g id="a_node4"><a xlink:href="structllvm_1_1CastInfo_3_01To_00_01From_00_01std_1_1enable__if__t_3_01std_1_1is__same__v_3_01mli774ff16a31cb722e154d89b18c1bd274.html" target="_top" xlink:title="Add support for llvm style casts.">
<polygon fill="none" stroke="black" points="175.5,-455.5 175.5,-540.5 337.5,-540.5 337.5,-455.5 175.5,-455.5"/>
<text text-anchor="start" x="183.5" y="-528.5" font-family="Helvetica,sans-Serif" font-size="10.00">llvm::CastInfo&lt; To,</text>
<text text-anchor="start" x="183.5" y="-517.5" font-family="Helvetica,sans-Serif" font-size="10.00"> From, std::enable_if</text>
<text text-anchor="start" x="183.5" y="-506.5" font-family="Helvetica,sans-Serif" font-size="10.00">_t&lt; std::is_same_v&lt; mlir</text>
<text text-anchor="start" x="183.5" y="-495.5" font-family="Helvetica,sans-Serif" font-size="10.00">::Attribute, std::remove</text>
<text text-anchor="start" x="183.5" y="-484.5" font-family="Helvetica,sans-Serif" font-size="10.00">_const_t&lt; From &gt; &gt;||std::</text>
<text text-anchor="start" x="183.5" y="-473.5" font-family="Helvetica,sans-Serif" font-size="10.00">is_base_of_v&lt; mlir::Attribute,</text>
<text text-anchor="middle" x="256.5" y="-462.5" font-family="Helvetica,sans-Serif" font-size="10.00"> From &gt; &gt; &gt;</text>
</a>
</g>
</g>
<!-- Node1&#45;&gt;Node4 -->
<g id="edge3" class="edge">
<title>Node1&#45;&gt;Node4</title>
<path fill="none" stroke="midnightblue" d="M83.65,-361.38C102.77,-382.73 137.23,-419.39 171,-446 175.06,-449.2 179.33,-452.36 183.7,-455.45"/>
<polygon fill="midnightblue" stroke="midnightblue" points="86.14,-358.91 76.89,-353.75 80.9,-363.55 86.14,-358.91"/>
</g>
<!-- Node5 -->
<g id="node5" class="node">
<title>Node5</title>
<g id="a_node5"><a xlink:href="structllvm_1_1CastInfo_3_01To_00_01From_00_01std_1_1enable__if__t_3_01std_1_1is__same__v_3_01mli6a5e3ead6c5b460698f7884024a29008.html" target="_top" xlink:title="Add support for llvm style casts.">
<polygon fill="none" stroke="black" points="176,-351.5 176,-436.5 337,-436.5 337,-351.5 176,-351.5"/>
<text text-anchor="start" x="184" y="-424.5" font-family="Helvetica,sans-Serif" font-size="10.00">llvm::CastInfo&lt; To,</text>
<text text-anchor="start" x="184" y="-413.5" font-family="Helvetica,sans-Serif" font-size="10.00"> From, std::enable_if</text>
<text text-anchor="start" x="184" y="-402.5" font-family="Helvetica,sans-Serif" font-size="10.00">_t&lt; std::is_same_v&lt; mlir</text>
<text text-anchor="start" x="184" y="-391.5" font-family="Helvetica,sans-Serif" font-size="10.00">::Location, std::remove</text>
<text text-anchor="start" x="184" y="-380.5" font-family="Helvetica,sans-Serif" font-size="10.00">_const_t&lt; From &gt; &gt;||std::</text>
<text text-anchor="start" x="184" y="-369.5" font-family="Helvetica,sans-Serif" font-size="10.00">is_base_of_v&lt; mlir::Location,</text>
<text text-anchor="middle" x="256.5" y="-358.5" font-family="Helvetica,sans-Serif" font-size="10.00"> From &gt; &gt; &gt;</text>
</a>
</g>
</g>
<!-- Node1&#45;&gt;Node5 -->
<g id="edge4" class="edge">
<title>Node1&#45;&gt;Node5</title>
<path fill="none" stroke="midnightblue" d="M113.81,-356.11C132.46,-361.1 154.65,-367.03 175.86,-372.7"/>
<polygon fill="midnightblue" stroke="midnightblue" points="114.68,-352.72 104.11,-353.52 112.87,-359.49 114.68,-352.72"/>
</g>
<!-- Node6 -->
<g id="node6" class="node">
<title>Node6</title>
<g id="a_node6"><a xlink:href="structllvm_1_1CastInfo_3_01To_00_01From_00_01std_1_1enable__if__t_3_01std_1_1is__same__v_3_01mlie03e405a48f00681f1cc8e16950ec198.html" target="_top" xlink:title="Add support for llvm style casts.">
<polygon fill="none" stroke="black" points="173,-258 173,-332 340,-332 340,-258 173,-258"/>
<text text-anchor="start" x="181" y="-320" font-family="Helvetica,sans-Serif" font-size="10.00">llvm::CastInfo&lt; To,</text>
<text text-anchor="start" x="181" y="-309" font-family="Helvetica,sans-Serif" font-size="10.00"> From, std::enable_if</text>
<text text-anchor="start" x="181" y="-298" font-family="Helvetica,sans-Serif" font-size="10.00">_t&lt; std::is_same_v&lt; mlir</text>
<text text-anchor="start" x="181" y="-287" font-family="Helvetica,sans-Serif" font-size="10.00">::Type, std::remove_const</text>
<text text-anchor="start" x="181" y="-276" font-family="Helvetica,sans-Serif" font-size="10.00">_t&lt; From &gt; &gt;||std::is_base</text>
<text text-anchor="middle" x="256.5" y="-265" font-family="Helvetica,sans-Serif" font-size="10.00">_of_v&lt; mlir::Type, From &gt; &gt; &gt;</text>
</a>
</g>
</g>
<!-- Node1&#45;&gt;Node6 -->
<g id="edge5" class="edge">
<title>Node1&#45;&gt;Node6</title>
<path fill="none" stroke="midnightblue" d="M114.92,-331.84C132.39,-327.26 152.84,-321.9 172.64,-316.71"/>
<polygon fill="midnightblue" stroke="midnightblue" points="113.79,-328.52 105,-334.44 115.56,-335.29 113.79,-328.52"/>
</g>
<!-- Node7 -->
<g id="node7" class="node">
<title>Node7</title>
<g id="a_node7"><a xlink:href="structllvm_1_1CastInfo_3_01To_00_01From_00_01std_1_1enable__if__t_3_01std_1_1is__same__v_3_01mli5e51822f1eb56c00b332c0f6947c867d.html" target="_top" xlink:title="Add support for llvm style casts.">
<polygon fill="none" stroke="black" points="171,-165 171,-239 342,-239 342,-165 171,-165"/>
<text text-anchor="start" x="179" y="-227" font-family="Helvetica,sans-Serif" font-size="10.00">llvm::CastInfo&lt; To,</text>
<text text-anchor="start" x="179" y="-216" font-family="Helvetica,sans-Serif" font-size="10.00"> From, std::enable_if</text>
<text text-anchor="start" x="179" y="-205" font-family="Helvetica,sans-Serif" font-size="10.00">_t&lt; std::is_same_v&lt; mlir</text>
<text text-anchor="start" x="179" y="-194" font-family="Helvetica,sans-Serif" font-size="10.00">::Value, std::remove_const</text>
<text text-anchor="start" x="179" y="-183" font-family="Helvetica,sans-Serif" font-size="10.00">_t&lt; From &gt; &gt;||std::is_base</text>
<text text-anchor="middle" x="256.5" y="-172" font-family="Helvetica,sans-Serif" font-size="10.00">_of_v&lt; mlir::Value, From &gt; &gt; &gt;</text>
</a>
</g>
</g>
<!-- Node1&#45;&gt;Node7 -->
<g id="edge6" class="edge">
<title>Node1&#45;&gt;Node7</title>
<path fill="none" stroke="midnightblue" d="M84.55,-326.79C103.87,-306.67 137.86,-273.04 171,-249 175.62,-245.65 180.5,-242.36 185.5,-239.17"/>
<polygon fill="midnightblue" stroke="midnightblue" points="81.79,-324.62 77.45,-334.28 86.87,-329.44 81.79,-324.62"/>
</g>
<!-- Node8 -->
<g id="node8" class="node">
<title>Node8</title>
<g id="a_node8"><a xlink:href="structllvm_1_1CastInfo_3_01To_00_01From_00_01std_1_1enable__if__t_3_01std_1_1is__same__v_3_01mlia7e24ec0b86dd4ca24e1cbeb31f438b6.html" target="_top" xlink:title="Add support for llvm style casts.">
<polygon fill="none" stroke="black" points="178.5,-60.5 178.5,-145.5 334.5,-145.5 334.5,-60.5 178.5,-60.5"/>
<text text-anchor="start" x="186.5" y="-133.5" font-family="Helvetica,sans-Serif" font-size="10.00">llvm::CastInfo&lt; To,</text>
<text text-anchor="start" x="186.5" y="-122.5" font-family="Helvetica,sans-Serif" font-size="10.00"> From, std::enable_if</text>
<text text-anchor="start" x="186.5" y="-111.5" font-family="Helvetica,sans-Serif" font-size="10.00">_t&lt; std::is_same_v&lt; mlir</text>
<text text-anchor="start" x="186.5" y="-100.5" font-family="Helvetica,sans-Serif" font-size="10.00">::pdll::ast::Type, std::</text>
<text text-anchor="start" x="186.5" y="-89.5" font-family="Helvetica,sans-Serif" font-size="10.00">remove_const_t&lt; From &gt; &gt;|</text>
<text text-anchor="start" x="186.5" y="-78.5" font-family="Helvetica,sans-Serif" font-size="10.00">|std::is_base_of_v&lt; mlir::</text>
<text text-anchor="middle" x="256.5" y="-67.5" font-family="Helvetica,sans-Serif" font-size="10.00">pdll::ast::Type, From &gt; &gt; &gt;</text>
</a>
</g>
</g>
<!-- Node1&#45;&gt;Node8 -->
<g id="edge7" class="edge">
<title>Node1&#45;&gt;Node8</title>
<path fill="none" stroke="midnightblue" d="M75.15,-324.91C88.56,-288.54 121.85,-208.24 171,-156 174.32,-152.47 177.93,-149.08 181.72,-145.83"/>
<polygon fill="midnightblue" stroke="midnightblue" points="71.85,-323.74 71.76,-334.34 78.44,-326.11 71.85,-323.74"/>
</g>
<!-- Node9 -->
<g id="node9" class="node">
<title>Node9</title>
<g id="a_node9"><a xlink:href="structllvm_1_1CastInfo_3_1_1mlir_1_1Operation_01_5_00_01_1_1mlir_1_1Operation_01_5_01_4.html" target="_top" xlink:title="Cast (const) Operation * to itself.">
<polygon fill="none" stroke="black" points="197,-0.5 197,-41.5 316,-41.5 316,-0.5 197,-0.5"/>
<text text-anchor="start" x="205" y="-29.5" font-family="Helvetica,sans-Serif" font-size="10.00">llvm::CastInfo&lt;::mlir</text>
<text text-anchor="start" x="205" y="-18.5" font-family="Helvetica,sans-Serif" font-size="10.00">::Operation *, ::mlir</text>
<text text-anchor="middle" x="256.5" y="-7.5" font-family="Helvetica,sans-Serif" font-size="10.00">::Operation * &gt;</text>
</a>
</g>
</g>
<!-- Node1&#45;&gt;Node9 -->
<g id="edge8" class="edge">
<title>Node1&#45;&gt;Node9</title>
<path fill="none" stroke="midnightblue" d="M69.72,-324.14C73.97,-272 92.53,-129.83 171,-51 178.25,-43.72 187.38,-38.2 196.93,-34.01"/>
<polygon fill="midnightblue" stroke="midnightblue" points="66.21,-324.13 68.98,-334.35 73.19,-324.63 66.21,-324.13"/>
</g>
</g>
</svg>
