<?xml version="1.0" encoding="UTF-8" standalone="no"?>
<!DOCTYPE svg PUBLIC "-//W3C//DTD SVG 1.1//EN"
 "http://www.w3.org/Graphics/SVG/1.1/DTD/svg11.dtd">
<!-- Generated by graphviz version 2.43.0 (0)
 -->
<!-- Title: mlir::quant::UniformQuantizedType Pages: 1 -->
<svg width="949pt" height="144pt"
 viewBox="0.00 0.00 949.00 144.00" xmlns="http://www.w3.org/2000/svg" xmlns:xlink="http://www.w3.org/1999/xlink">
<g id="graph0" class="graph" transform="scale(1 1) rotate(0) translate(4 140)">
<title>mlir::quant::UniformQuantizedType</title>
<!-- Node1 -->
<g id="Node000001" class="node">
<title>Node1</title>
<g id="a_Node000001"><a xlink:title="Represents a family of uniform, quantized types.">
<polygon fill="#999999" stroke="#666666" points="941,-99 753,-99 753,-80 941,-80 941,-99"/>
<text text-anchor="middle" x="847" y="-87" font-family="Helvetica,sans-Serif" font-size="10.00">mlir::quant::UniformQuantizedType</text>
</a>
</g>
</g>
<!-- Node2 -->
<g id="Node000002" class="node">
<title>Node2</title>
<g id="a_Node000002"><a xlink:href="classmlir_1_1detail_1_1StorageUserBase.html" target="_top" xlink:title=" ">
<polygon fill="white" stroke="#666666" points="716,-110 524,-110 524,-69 716,-69 716,-110"/>
<text text-anchor="start" x="532" y="-98" font-family="Helvetica,sans-Serif" font-size="10.00">Type::TypeBase&lt; UniformQuantized</text>
<text text-anchor="start" x="532" y="-87" font-family="Helvetica,sans-Serif" font-size="10.00">Type, QuantizedType, detail</text>
<text text-anchor="middle" x="620" y="-76" font-family="Helvetica,sans-Serif" font-size="10.00">::UniformQuantizedTypeStorage &gt;</text>
</a>
</g>
</g>
<!-- Node2&#45;&gt;Node1 -->
<g id="edge1_Node000001_Node000002" class="edge">
<title>Node2&#45;&gt;Node1</title>
<g id="a_edge1_Node000001_Node000002"><a xlink:title=" ">
<path fill="none" stroke="#63b8ff" d="M726.37,-89.5C735.15,-89.5 744,-89.5 752.68,-89.5"/>
<polygon fill="#63b8ff" stroke="#63b8ff" points="726.09,-86 716.09,-89.5 726.09,-93 726.09,-86"/>
</a>
</g>
</g>
<!-- Node3 -->
<g id="Node000003" class="node">
<title>Node3</title>
<g id="a_Node000003"><a xlink:title=" ">
<polygon fill="white" stroke="#666666" points="262,-136 199,-136 199,-117 262,-117 262,-136"/>
<text text-anchor="middle" x="230.5" y="-124" font-family="Helvetica,sans-Serif" font-size="10.00">BaseType</text>
</a>
</g>
</g>
<!-- Node3&#45;&gt;Node2 -->
<g id="edge2_Node000002_Node000003" class="edge">
<title>Node3&#45;&gt;Node2</title>
<g id="a_edge2_Node000002_Node000003"><a xlink:title=" ">
<path fill="none" stroke="#63b8ff" d="M272.13,-123.6C325.75,-119.66 423.05,-112.11 506,-103.5 511.8,-102.9 517.76,-102.25 523.78,-101.57"/>
<polygon fill="#63b8ff" stroke="#63b8ff" points="271.72,-120.12 262,-124.34 272.23,-127.1 271.72,-120.12"/>
</a>
</g>
</g>
<!-- Node4 -->
<g id="Node000004" class="node">
<title>Node4</title>
<g id="a_Node000004"><a xlink:title=" ">
<polygon fill="white" stroke="#666666" points="296,-99 165,-99 165,-80 296,-80 296,-99"/>
<text text-anchor="middle" x="230.5" y="-87" font-family="Helvetica,sans-Serif" font-size="10.00">Traits&lt; ConcreteType &gt;</text>
</a>
</g>
</g>
<!-- Node4&#45;&gt;Node2 -->
<g id="edge3_Node000002_Node000004" class="edge">
<title>Node4&#45;&gt;Node2</title>
<g id="a_edge3_Node000002_Node000004"><a xlink:title=" ">
<path fill="none" stroke="#63b8ff" d="M306.45,-89.5C368.42,-89.5 456.79,-89.5 523.77,-89.5"/>
<polygon fill="#63b8ff" stroke="#63b8ff" points="306.36,-86 296.36,-89.5 306.36,-93 306.36,-86"/>
</a>
</g>
</g>
<!-- Node5 -->
<g id="Node000005" class="node">
<title>Node5</title>
<g id="a_Node000005"><a xlink:href="classmlir_1_1detail_1_1StorageUserBase.html" target="_top" xlink:title="Utility class for implementing users of storage classes uniqued by a StorageUniquer.">
<polygon fill="white" stroke="#666666" points="309,-48 152,-48 152,-7 309,-7 309,-48"/>
<text text-anchor="start" x="160" y="-36" font-family="Helvetica,sans-Serif" font-size="10.00">mlir::detail::StorageUser</text>
<text text-anchor="start" x="160" y="-25" font-family="Helvetica,sans-Serif" font-size="10.00">Base&lt; ConcreteT, BaseT,</text>
<text text-anchor="middle" x="230.5" y="-14" font-family="Helvetica,sans-Serif" font-size="10.00"> StorageT, UniquerT, Traits &gt;</text>
</a>
</g>
</g>
<!-- Node5&#45;&gt;Node2 -->
<g id="edge4_Node000002_Node000005" class="edge">
<title>Node5&#45;&gt;Node2</title>
<g id="a_edge4_Node000002_Node000005"><a xlink:title=" ">
<path fill="none" stroke="orange" stroke-dasharray="5,2" d="M319.49,-22.55C373.92,-21.56 444.84,-24.05 506,-38.5 532.92,-44.86 561.28,-57.68 582.86,-68.88"/>
<polygon fill="orange" stroke="orange" points="319.1,-19.06 309.18,-22.78 319.26,-26.05 319.1,-19.06"/>
</a>
</g>
<text text-anchor="start" x="330.5" y="-74" font-family="Helvetica,sans-Serif" font-size="10.00" fill="grey">&lt; ConcreteType, BaseType,</text>
<text text-anchor="start" x="330.5" y="-59" font-family="Helvetica,sans-Serif" font-size="10.00" fill="grey">   StorageType, detail::TypeUniquer,</text>
<text text-anchor="start" x="330.5" y="-44" font-family="Helvetica,sans-Serif" font-size="10.00" fill="grey">   Traits... &gt;</text>
</g>
<!-- Node6 -->
<g id="Node000006" class="node">
<title>Node6</title>
<g id="a_Node000006"><a xlink:title=" ">
<polygon fill="white" stroke="#666666" points="81,-56 34,-56 34,-37 81,-37 81,-56"/>
<text text-anchor="middle" x="57.5" y="-44" font-family="Helvetica,sans-Serif" font-size="10.00">BaseT</text>
</a>
</g>
</g>
<!-- Node6&#45;&gt;Node5 -->
<g id="edge5_Node000005_Node000006" class="edge">
<title>Node6&#45;&gt;Node5</title>
<g id="a_edge5_Node000005_Node000006"><a xlink:title=" ">
<path fill="none" stroke="#63b8ff" d="M91.28,-42.86C108.49,-40.95 130.39,-38.51 151.65,-36.15"/>
<polygon fill="#63b8ff" stroke="#63b8ff" points="90.76,-39.39 81.21,-43.98 91.53,-46.35 90.76,-39.39"/>
</a>
</g>
</g>
<!-- Node7 -->
<g id="Node000007" class="node">
<title>Node7</title>
<g id="a_Node000007"><a xlink:title=" ">
<polygon fill="white" stroke="#666666" points="115,-19 0,-19 0,0 115,0 115,-19"/>
<text text-anchor="middle" x="57.5" y="-7" font-family="Helvetica,sans-Serif" font-size="10.00">Traits&lt; ConcreteT &gt;</text>
</a>
</g>
</g>
<!-- Node7&#45;&gt;Node5 -->
<g id="edge6_Node000005_Node000007" class="edge">
<title>Node7&#45;&gt;Node5</title>
<g id="a_edge6_Node000005_Node000007"><a xlink:title=" ">
<path fill="none" stroke="#63b8ff" d="M125.44,-16.55C134.09,-17.46 143,-18.39 151.8,-19.32"/>
<polygon fill="#63b8ff" stroke="#63b8ff" points="125.75,-13.06 115.44,-15.49 125.02,-20.02 125.75,-13.06"/>
</a>
</g>
</g>
</g>
</svg>
