<?xml version="1.0" encoding="UTF-8" standalone="no"?>
<!DOCTYPE svg PUBLIC "-//W3C//DTD SVG 1.1//EN"
 "http://www.w3.org/Graphics/SVG/1.1/DTD/svg11.dtd">
<!-- Generated by graphviz version 2.43.0 (0)
 -->
<!-- Title: mlir::OpTrait::tosa::TosaShapeOperator&lt; ConcreteType &gt; Pages: 1 -->
<svg width="253pt" height="214pt"
 viewBox="0.00 0.00 253.00 214.00" xmlns="http://www.w3.org/2000/svg" xmlns:xlink="http://www.w3.org/1999/xlink">
<g id="graph0" class="graph" transform="scale(1 1) rotate(0) translate(4 210)">
<title>mlir::OpTrait::tosa::TosaShapeOperator&lt; ConcreteType &gt;</title>
<!-- Node1 -->
<g id="Node000001" class="node">
<title>Node1</title>
<g id="a_Node000001"><a xlink:title="This class indicates that op operates on tosa shape types.">
<polygon fill="#999999" stroke="#666666" points="161.5,-41 44.5,-41 44.5,0 161.5,0 161.5,-41"/>
<text text-anchor="start" x="52.5" y="-29" font-family="Helvetica,sans-Serif" font-size="10.00">mlir::OpTrait::tosa</text>
<text text-anchor="start" x="52.5" y="-18" font-family="Helvetica,sans-Serif" font-size="10.00">::TosaShapeOperator</text>
<text text-anchor="middle" x="103" y="-7" font-family="Helvetica,sans-Serif" font-size="10.00">&lt; ConcreteType &gt;</text>
</a>
</g>
</g>
<!-- Node2 -->
<g id="Node000002" class="node">
<title>Node2</title>
<g id="a_Node000002"><a xlink:href="classmlir_1_1OpTrait_1_1TraitBase.html" target="_top" xlink:title=" ">
<polygon fill="white" stroke="#666666" points="206,-108 0,-108 0,-78 206,-78 206,-108"/>
<text text-anchor="start" x="8" y="-96" font-family="Helvetica,sans-Serif" font-size="10.00">mlir::OpTrait::TraitBase</text>
<text text-anchor="middle" x="103" y="-85" font-family="Helvetica,sans-Serif" font-size="10.00">&lt; ConcreteType, TosaShapeOperator &gt;</text>
</a>
</g>
</g>
<!-- Node2&#45;&gt;Node1 -->
<g id="edge1_Node000001_Node000002" class="edge">
<title>Node2&#45;&gt;Node1</title>
<g id="a_edge1_Node000001_Node000002"><a xlink:title=" ">
<path fill="none" stroke="#63b8ff" d="M103,-67.48C103,-58.85 103,-49.26 103,-41.09"/>
<polygon fill="#63b8ff" stroke="#63b8ff" points="99.5,-67.73 103,-77.73 106.5,-67.73 99.5,-67.73"/>
</a>
</g>
</g>
<!-- Node3 -->
<g id="Node000003" class="node">
<title>Node3</title>
<g id="a_Node000003"><a xlink:href="classmlir_1_1OpTrait_1_1TraitBase.html" target="_top" xlink:title="Helper class for implementing traits.">
<polygon fill="white" stroke="#666666" points="180.5,-206 25.5,-206 25.5,-176 180.5,-176 180.5,-206"/>
<text text-anchor="start" x="33.5" y="-194" font-family="Helvetica,sans-Serif" font-size="10.00">mlir::OpTrait::TraitBase</text>
<text text-anchor="middle" x="103" y="-183" font-family="Helvetica,sans-Serif" font-size="10.00">&lt; ConcreteType, TraitType &gt;</text>
</a>
</g>
</g>
<!-- Node3&#45;&gt;Node2 -->
<g id="edge2_Node000002_Node000003" class="edge">
<title>Node3&#45;&gt;Node2</title>
<g id="a_edge2_Node000002_Node000003"><a xlink:title=" ">
<path fill="none" stroke="orange" stroke-dasharray="5,2" d="M103,-165.7C103,-147.55 103,-123.35 103,-108.22"/>
<polygon fill="orange" stroke="orange" points="99.5,-165.83 103,-175.83 106.5,-165.83 99.5,-165.83"/>
</a>
</g>
<text text-anchor="start" x="106" y="-147" font-family="Helvetica,sans-Serif" font-size="10.00" fill="grey">&lt; ConcreteType, TosaShape</text>
<text text-anchor="start" x="106" y="-132" font-family="Helvetica,sans-Serif" font-size="10.00" fill="grey">  Operator &gt;</text>
</g>
</g>
</svg>
