<?xml version="1.0" encoding="UTF-8" standalone="no"?>
<!DOCTYPE svg PUBLIC "-//W3C//DTD SVG 1.1//EN"
 "http://www.w3.org/Graphics/SVG/1.1/DTD/svg11.dtd">
<!-- Generated by graphviz version 2.43.0 (0)
 -->
<!-- Title: llvm::SmallVectorImpl&lt; T &gt; Pages: 1 -->
<svg width="276pt" height="110pt"
 viewBox="0.00 0.00 276.00 110.00" xmlns="http://www.w3.org/2000/svg" xmlns:xlink="http://www.w3.org/1999/xlink">
<g id="graph0" class="graph" transform="scale(1 1) rotate(0) translate(4 106)">
<title>llvm::SmallVectorImpl&lt; T &gt;</title>
<!-- Node1 -->
<g id="Node000001" class="node">
<title>Node1</title>
<g id="a_Node000001"><a xlink:title=" ">
<polygon fill="#999999" stroke="#666666" points="210,-102 57,-102 57,-83 210,-83 210,-102"/>
<text text-anchor="middle" x="133.5" y="-90" font-family="Helvetica,sans-Serif" font-size="10.00">llvm::SmallVectorImpl&lt; T &gt;</text>
</a>
</g>
</g>
<!-- Node2 -->
<g id="Node000002" class="node">
<title>Node2</title>
<g id="a_Node000002"><a xlink:href="classllvm_1_1SmallVectorImpl.html" target="_top" xlink:title=" ">
<polygon fill="white" stroke="#666666" points="125,-30 0,-30 0,0 125,0 125,-30"/>
<text text-anchor="start" x="8" y="-18" font-family="Helvetica,sans-Serif" font-size="10.00">llvm::SmallVectorImpl</text>
<text text-anchor="middle" x="62.5" y="-7" font-family="Helvetica,sans-Serif" font-size="10.00">&lt; Value &gt;</text>
</a>
</g>
</g>
<!-- Node1&#45;&gt;Node2 -->
<g id="edge1_Node000001_Node000002" class="edge">
<title>Node1&#45;&gt;Node2</title>
<g id="a_edge1_Node000001_Node000002"><a xlink:title=" ">
<path fill="none" stroke="orange" stroke-dasharray="5,2" d="M118.26,-75.3C105.66,-61.89 87.92,-43.03 75.86,-30.21"/>
<polygon fill="orange" stroke="orange" points="115.96,-77.95 125.36,-82.84 121.05,-73.16 115.96,-77.95"/>
</a>
</g>
<text text-anchor="start" x="112.5" y="-53.5" font-family="Helvetica,sans-Serif" font-size="10.00" fill="grey">&lt; Value &gt;</text>
</g>
<!-- Node3 -->
<g id="Node000003" class="node">
<title>Node3</title>
<g id="a_Node000003"><a xlink:href="classllvm_1_1SmallVectorImpl.html" target="_top" xlink:title=" ">
<polygon fill="white" stroke="#666666" points="268,-30 143,-30 143,0 268,0 268,-30"/>
<text text-anchor="start" x="151" y="-18" font-family="Helvetica,sans-Serif" font-size="10.00">llvm::SmallVectorImpl</text>
<text text-anchor="middle" x="205.5" y="-7" font-family="Helvetica,sans-Serif" font-size="10.00">&lt; mlir::Value &gt;</text>
</a>
</g>
</g>
<!-- Node1&#45;&gt;Node3 -->
<g id="edge2_Node000001_Node000003" class="edge">
<title>Node1&#45;&gt;Node3</title>
<g id="a_edge2_Node000001_Node000003"><a xlink:title=" ">
<path fill="none" stroke="orange" stroke-dasharray="5,2" d="M155.64,-76.84C160.43,-73.23 165.32,-69.19 169.5,-65 180.09,-54.4 190.01,-40.48 196.74,-30.19"/>
<polygon fill="orange" stroke="orange" points="153.37,-74.16 147.26,-82.82 157.44,-79.86 153.37,-74.16"/>
</a>
</g>
<text text-anchor="start" x="186.5" y="-53.5" font-family="Helvetica,sans-Serif" font-size="10.00" fill="grey">&lt; mlir::Value &gt;</text>
</g>
</g>
</svg>
