<?xml version="1.0" encoding="UTF-8" standalone="no"?>
<!DOCTYPE svg PUBLIC "-//W3C//DTD SVG 1.1//EN"
 "http://www.w3.org/Graphics/SVG/1.1/DTD/svg11.dtd">
<!-- Generated by graphviz version 2.43.0 (0)
 -->
<!-- Title: mlir::affine::FlatAffineValueConstraints Pages: 1 -->
<svg width="181pt" height="346pt"
 viewBox="0.00 0.00 181.00 346.00" xmlns="http://www.w3.org/2000/svg" xmlns:xlink="http://www.w3.org/1999/xlink">
<g id="graph0" class="graph" transform="scale(1 1) rotate(0) translate(4 342)">
<title>mlir::affine::FlatAffineValueConstraints</title>
<!-- Node1 -->
<g id="Node000001" class="node">
<title>Node1</title>
<g id="a_Node000001"><a xlink:title="FlatAffineValueConstraints is an extension of FlatLinearValueConstraints with helper functions for Af...">
<polygon fill="#999999" stroke="#666666" points="148,-96 25,-96 25,-66 148,-66 148,-96"/>
<text text-anchor="start" x="33" y="-84" font-family="Helvetica,sans-Serif" font-size="10.00">mlir::affine::FlatAffine</text>
<text text-anchor="middle" x="86.5" y="-73" font-family="Helvetica,sans-Serif" font-size="10.00">ValueConstraints</text>
</a>
</g>
</g>
<!-- Node6 -->
<g id="Node000006" class="node">
<title>Node6</title>
<g id="a_Node000006"><a xlink:href="classmlir_1_1affine_1_1FlatAffineRelation.html" target="_top" xlink:title="A FlatAffineRelation represents a set of ordered pairs (domain &#45;&gt; range) where &quot;domain&quot; and &quot;range&quot; a...">
<polygon fill="white" stroke="#666666" points="148,-30 25,-30 25,0 148,0 148,-30"/>
<text text-anchor="start" x="33" y="-18" font-family="Helvetica,sans-Serif" font-size="10.00">mlir::affine::FlatAffine</text>
<text text-anchor="middle" x="86.5" y="-7" font-family="Helvetica,sans-Serif" font-size="10.00">Relation</text>
</a>
</g>
</g>
<!-- Node1&#45;&gt;Node6 -->
<g id="edge5_Node000001_Node000006" class="edge">
<title>Node1&#45;&gt;Node6</title>
<g id="a_edge5_Node000001_Node000006"><a xlink:title=" ">
<path fill="none" stroke="#63b8ff" d="M86.5,-55.54C86.5,-46.96 86.5,-37.61 86.5,-30.16"/>
<polygon fill="#63b8ff" stroke="#63b8ff" points="83,-55.8 86.5,-65.8 90,-55.8 83,-55.8"/>
</a>
</g>
</g>
<!-- Node2 -->
<g id="Node000002" class="node">
<title>Node2</title>
<g id="a_Node000002"><a xlink:href="classmlir_1_1FlatLinearValueConstraints.html" target="_top" xlink:title="FlatLinearValueConstraints represents an extension of FlatLinearConstraints where each non&#45;local vari...">
<polygon fill="white" stroke="#666666" points="173,-151 0,-151 0,-132 173,-132 173,-151"/>
<text text-anchor="middle" x="86.5" y="-139" font-family="Helvetica,sans-Serif" font-size="10.00">mlir::FlatLinearValueConstraints</text>
</a>
</g>
</g>
<!-- Node2&#45;&gt;Node1 -->
<g id="edge1_Node000001_Node000002" class="edge">
<title>Node2&#45;&gt;Node1</title>
<g id="a_edge1_Node000001_Node000002"><a xlink:title=" ">
<path fill="none" stroke="#63b8ff" d="M86.5,-121.65C86.5,-113.36 86.5,-103.78 86.5,-96.11"/>
<polygon fill="#63b8ff" stroke="#63b8ff" points="83,-121.87 86.5,-131.87 90,-121.87 83,-121.87"/>
</a>
</g>
</g>
<!-- Node3 -->
<g id="Node000003" class="node">
<title>Node3</title>
<g id="a_Node000003"><a xlink:href="classmlir_1_1FlatLinearConstraints.html" target="_top" xlink:title="FlatLinearConstraints is an extension of IntegerPolyhedron.">
<polygon fill="white" stroke="#666666" points="159.5,-206 13.5,-206 13.5,-187 159.5,-187 159.5,-206"/>
<text text-anchor="middle" x="86.5" y="-194" font-family="Helvetica,sans-Serif" font-size="10.00">mlir::FlatLinearConstraints</text>
</a>
</g>
</g>
<!-- Node3&#45;&gt;Node2 -->
<g id="edge2_Node000002_Node000003" class="edge">
<title>Node3&#45;&gt;Node2</title>
<g id="a_edge2_Node000002_Node000003"><a xlink:title=" ">
<path fill="none" stroke="#63b8ff" d="M86.5,-176.66C86.5,-167.93 86.5,-157.99 86.5,-151.09"/>
<polygon fill="#63b8ff" stroke="#63b8ff" points="83,-176.75 86.5,-186.75 90,-176.75 83,-176.75"/>
</a>
</g>
</g>
<!-- Node4 -->
<g id="Node000004" class="node">
<title>Node4</title>
<g id="a_Node000004"><a xlink:href="classmlir_1_1presburger_1_1IntegerPolyhedron.html" target="_top" xlink:title="An IntegerPolyhedron represents the set of points from a PresburgerSpace that satisfy a list of affin...">
<polygon fill="white" stroke="#666666" points="154,-272 19,-272 19,-242 154,-242 154,-272"/>
<text text-anchor="start" x="27" y="-260" font-family="Helvetica,sans-Serif" font-size="10.00">mlir::presburger::Integer</text>
<text text-anchor="middle" x="86.5" y="-249" font-family="Helvetica,sans-Serif" font-size="10.00">Polyhedron</text>
</a>
</g>
</g>
<!-- Node4&#45;&gt;Node3 -->
<g id="edge3_Node000003_Node000004" class="edge">
<title>Node4&#45;&gt;Node3</title>
<g id="a_edge3_Node000003_Node000004"><a xlink:title=" ">
<path fill="none" stroke="#63b8ff" d="M86.5,-231.75C86.5,-222.72 86.5,-213.03 86.5,-206.27"/>
<polygon fill="#63b8ff" stroke="#63b8ff" points="83,-231.84 86.5,-241.84 90,-231.84 83,-231.84"/>
</a>
</g>
</g>
<!-- Node5 -->
<g id="Node000005" class="node">
<title>Node5</title>
<g id="a_Node000005"><a xlink:href="classmlir_1_1presburger_1_1IntegerRelation.html" target="_top" xlink:title="An IntegerRelation represents the set of points from a PresburgerSpace that satisfy a list of affine ...">
<polygon fill="white" stroke="#666666" points="154,-338 19,-338 19,-308 154,-308 154,-338"/>
<text text-anchor="start" x="27" y="-326" font-family="Helvetica,sans-Serif" font-size="10.00">mlir::presburger::Integer</text>
<text text-anchor="middle" x="86.5" y="-315" font-family="Helvetica,sans-Serif" font-size="10.00">Relation</text>
</a>
</g>
</g>
<!-- Node5&#45;&gt;Node4 -->
<g id="edge4_Node000004_Node000005" class="edge">
<title>Node5&#45;&gt;Node4</title>
<g id="a_edge4_Node000004_Node000005"><a xlink:title=" ">
<path fill="none" stroke="#63b8ff" d="M86.5,-297.54C86.5,-288.96 86.5,-279.61 86.5,-272.16"/>
<polygon fill="#63b8ff" stroke="#63b8ff" points="83,-297.8 86.5,-307.8 90,-297.8 83,-297.8"/>
</a>
</g>
</g>
</g>
</svg>
