<?xml version="1.0" encoding="UTF-8" standalone="no"?>
<!DOCTYPE svg PUBLIC "-//W3C//DTD SVG 1.1//EN"
 "http://www.w3.org/Graphics/SVG/1.1/DTD/svg11.dtd">
<!-- Generated by graphviz version 2.43.0 (0)
 -->
<!-- Title: llvm::cl::parser&lt; std::vector&lt; T &gt; &gt; Pages: 1 -->
<svg width="269pt" height="253pt"
 viewBox="0.00 0.00 269.00 253.00" xmlns="http://www.w3.org/2000/svg" xmlns:xlink="http://www.w3.org/1999/xlink">
<g id="graph0" class="graph" transform="scale(1 1) rotate(0) translate(4 249)">
<title>llvm::cl::parser&lt; std::vector&lt; T &gt; &gt;</title>
<!-- Node1 -->
<g id="node1" class="node">
<title>Node1</title>
<g id="a_node1"><a xlink:title=" ">
<polygon fill="#bfbfbf" stroke="black" points="9,-0.5 9,-30.5 125,-30.5 125,-0.5 9,-0.5"/>
<text text-anchor="start" x="17" y="-18.5" font-family="Helvetica,sans-Serif" font-size="10.00">llvm::cl::parser&lt; std</text>
<text text-anchor="middle" x="67" y="-7.5" font-family="Helvetica,sans-Serif" font-size="10.00">::vector&lt; T &gt; &gt;</text>
</a>
</g>
</g>
<!-- Node2 -->
<g id="node2" class="node">
<title>Node2</title>
<g id="a_node2"><a xlink:href="classllvm_1_1cl_1_1detail_1_1VectorParserBase.html" target="_top" xlink:title=" ">
<polygon fill="none" stroke="black" points="0,-68.5 0,-109.5 134,-109.5 134,-68.5 0,-68.5"/>
<text text-anchor="start" x="8" y="-97.5" font-family="Helvetica,sans-Serif" font-size="10.00">llvm::cl::detail::Vector</text>
<text text-anchor="start" x="8" y="-86.5" font-family="Helvetica,sans-Serif" font-size="10.00">ParserBase&lt; std::vector</text>
<text text-anchor="middle" x="67" y="-75.5" font-family="Helvetica,sans-Serif" font-size="10.00">&lt; T &gt;, T &gt;</text>
</a>
</g>
</g>
<!-- Node2&#45;&gt;Node1 -->
<g id="edge1" class="edge">
<title>Node2&#45;&gt;Node1</title>
<path fill="none" stroke="midnightblue" d="M67,-58.16C67,-48.69 67,-38.65 67,-30.8"/>
<polygon fill="midnightblue" stroke="midnightblue" points="63.5,-58.46 67,-68.46 70.5,-58.46 63.5,-58.46"/>
</g>
<!-- Node3 -->
<g id="node3" class="node">
<title>Node3</title>
<g id="a_node3"><a xlink:title=" ">
<polygon fill="none" stroke="#bfbfbf" points="10.5,-225.5 10.5,-244.5 115.5,-244.5 115.5,-225.5 10.5,-225.5"/>
<text text-anchor="middle" x="63" y="-232.5" font-family="Helvetica,sans-Serif" font-size="10.00">basic_parser_impl</text>
</a>
</g>
</g>
<!-- Node3&#45;&gt;Node2 -->
<g id="edge2" class="edge">
<title>Node3&#45;&gt;Node2</title>
<path fill="none" stroke="midnightblue" d="M63.52,-215.26C64.28,-187.92 65.69,-137.32 66.46,-109.53"/>
<polygon fill="midnightblue" stroke="midnightblue" points="60.02,-215.33 63.24,-225.42 67.01,-215.52 60.02,-215.33"/>
</g>
<!-- Node4 -->
<g id="node4" class="node">
<title>Node4</title>
<g id="a_node4"><a xlink:href="classllvm_1_1cl_1_1detail_1_1VectorParserBase.html" target="_top" xlink:title=" ">
<polygon fill="none" stroke="black" points="79,-157.5 79,-187.5 261,-187.5 261,-157.5 79,-157.5"/>
<text text-anchor="start" x="87" y="-175.5" font-family="Helvetica,sans-Serif" font-size="10.00">llvm::cl::detail::Vector</text>
<text text-anchor="middle" x="170" y="-164.5" font-family="Helvetica,sans-Serif" font-size="10.00">ParserBase&lt; VectorT, ElementT &gt;</text>
</a>
</g>
</g>
<!-- Node3&#45;&gt;Node4 -->
<g id="edge4" class="edge">
<title>Node3&#45;&gt;Node4</title>
<path fill="none" stroke="midnightblue" d="M87.26,-220.28C104.57,-210.5 127.77,-197.38 145.19,-187.53"/>
<polygon fill="midnightblue" stroke="midnightblue" points="85.31,-217.36 78.33,-225.33 88.76,-223.46 85.31,-217.36"/>
</g>
<!-- Node4&#45;&gt;Node2 -->
<g id="edge3" class="edge">
<title>Node4&#45;&gt;Node2</title>
<path fill="none" stroke="orange" stroke-dasharray="5,2" d="M144.11,-151.02C128.04,-138.3 107.52,-122.06 91.68,-109.53"/>
<polygon fill="orange" stroke="orange" points="142.04,-153.84 152.06,-157.3 146.39,-148.35 142.04,-153.84"/>
<text text-anchor="middle" x="186" y="-131" font-family="Helvetica,sans-Serif" font-size="10.00"> &lt; std::vector&lt; T &gt;, T &gt;</text>
</g>
</g>
</svg>
