<?xml version="1.0" encoding="UTF-8" standalone="no"?>
<!DOCTYPE svg PUBLIC "-//W3C//DTD SVG 1.1//EN"
 "http://www.w3.org/Graphics/SVG/1.1/DTD/svg11.dtd">
<!-- Generated by graphviz version 2.43.0 (0)
 -->
<!-- Title: mlir::ConvertToEmitCPatternInterface Pages: 1 -->
<svg width="370pt" height="244pt"
 viewBox="0.00 0.00 369.50 244.00" xmlns="http://www.w3.org/2000/svg" xmlns:xlink="http://www.w3.org/1999/xlink">
<g id="graph0" class="graph" transform="scale(1 1) rotate(0) translate(4 240)">
<title>mlir::ConvertToEmitCPatternInterface</title>
<!-- Node1 -->
<g id="Node000001" class="node">
<title>Node1</title>
<g id="a_Node000001"><a xlink:title=" ">
<polygon fill="#999999" stroke="#666666" points="175,-30 20,-30 20,0 175,0 175,-30"/>
<text text-anchor="start" x="28" y="-18" font-family="Helvetica,sans-Serif" font-size="10.00">mlir::ConvertToEmitCPattern</text>
<text text-anchor="middle" x="97.5" y="-7" font-family="Helvetica,sans-Serif" font-size="10.00">Interface</text>
</a>
</g>
</g>
<!-- Node2 -->
<g id="Node000002" class="node">
<title>Node2</title>
<g id="a_Node000002"><a xlink:href="classmlir_1_1detail_1_1DialectInterfaceBase.html" target="_top" xlink:title=" ">
<polygon fill="white" stroke="#666666" points="195,-97 0,-97 0,-67 195,-67 195,-97"/>
<text text-anchor="start" x="8" y="-85" font-family="Helvetica,sans-Serif" font-size="10.00">DialectInterface::Base</text>
<text text-anchor="middle" x="97.5" y="-74" font-family="Helvetica,sans-Serif" font-size="10.00">&lt; ConvertToEmitCPatternInterface &gt;</text>
</a>
</g>
</g>
<!-- Node2&#45;&gt;Node1 -->
<g id="edge1_Node000001_Node000002" class="edge">
<title>Node2&#45;&gt;Node1</title>
<g id="a_edge1_Node000001_Node000002"><a xlink:title=" ">
<path fill="none" stroke="#63b8ff" d="M97.5,-56.61C97.5,-47.65 97.5,-37.82 97.5,-30.08"/>
<polygon fill="#63b8ff" stroke="#63b8ff" points="94,-56.9 97.5,-66.9 101,-56.9 94,-56.9"/>
</a>
</g>
</g>
<!-- Node3 -->
<g id="Node000003" class="node">
<title>Node3</title>
<g id="a_Node000003"><a xlink:href="classmlir_1_1DialectInterface.html" target="_top" xlink:title="This class represents an interface overridden for a single dialect.">
<polygon fill="white" stroke="#666666" points="141.5,-174.5 21.5,-174.5 21.5,-155.5 141.5,-155.5 141.5,-174.5"/>
<text text-anchor="middle" x="81.5" y="-162.5" font-family="Helvetica,sans-Serif" font-size="10.00">mlir::DialectInterface</text>
</a>
</g>
</g>
<!-- Node3&#45;&gt;Node2 -->
<g id="edge2_Node000002_Node000003" class="edge">
<title>Node3&#45;&gt;Node2</title>
<g id="a_edge2_Node000002_Node000003"><a xlink:title=" ">
<path fill="none" stroke="#63b8ff" d="M85.19,-145.34C88.09,-130.61 92.09,-110.38 94.73,-97.01"/>
<polygon fill="#63b8ff" stroke="#63b8ff" points="81.72,-144.84 83.21,-155.33 88.58,-146.2 81.72,-144.84"/>
</a>
</g>
</g>
<!-- Node4 -->
<g id="Node000004" class="node">
<title>Node4</title>
<g id="a_Node000004"><a xlink:href="classmlir_1_1detail_1_1DialectInterfaceBase.html" target="_top" xlink:title="The base class used for all derived interface types.">
<polygon fill="white" stroke="#666666" points="325,-180 160,-180 160,-150 325,-150 325,-180"/>
<text text-anchor="start" x="168" y="-168" font-family="Helvetica,sans-Serif" font-size="10.00">mlir::detail::DialectInterface</text>
<text text-anchor="middle" x="242.5" y="-157" font-family="Helvetica,sans-Serif" font-size="10.00">Base&lt; ConcreteType, BaseT &gt;</text>
</a>
</g>
</g>
<!-- Node4&#45;&gt;Node2 -->
<g id="edge3_Node000002_Node000004" class="edge">
<title>Node4&#45;&gt;Node2</title>
<g id="a_edge3_Node000002_Node000004"><a xlink:title=" ">
<path fill="none" stroke="orange" stroke-dasharray="5,2" d="M208.41,-144.96C182.24,-130.34 146.68,-110.47 122.95,-97.22"/>
<polygon fill="orange" stroke="orange" points="206.81,-148.07 217.24,-149.89 210.22,-141.96 206.81,-148.07"/>
</a>
</g>
<text text-anchor="start" x="186" y="-120.5" font-family="Helvetica,sans-Serif" font-size="10.00" fill="grey">&lt; ConcreteType, DialectInterface &gt;</text>
</g>
<!-- Node5 -->
<g id="Node000005" class="node">
<title>Node5</title>
<g id="a_Node000005"><a xlink:title=" ">
<polygon fill="white" stroke="#666666" points="266,-236 219,-236 219,-217 266,-217 266,-236"/>
<text text-anchor="middle" x="242.5" y="-224" font-family="Helvetica,sans-Serif" font-size="10.00">BaseT</text>
</a>
</g>
</g>
<!-- Node5&#45;&gt;Node4 -->
<g id="edge4_Node000004_Node000005" class="edge">
<title>Node5&#45;&gt;Node4</title>
<g id="a_edge4_Node000004_Node000005"><a xlink:title=" ">
<path fill="none" stroke="#63b8ff" d="M242.5,-206.73C242.5,-198.09 242.5,-188 242.5,-180.02"/>
<polygon fill="#63b8ff" stroke="#63b8ff" points="239,-206.98 242.5,-216.98 246,-206.98 239,-206.98"/>
</a>
</g>
</g>
</g>
</svg>
