<?xml version="1.0" encoding="UTF-8" standalone="no"?>
<!DOCTYPE svg PUBLIC "-//W3C//DTD SVG 1.1//EN"
 "http://www.w3.org/Graphics/SVG/1.1/DTD/svg11.dtd">
<!-- Generated by graphviz version 2.43.0 (0)
 -->
<!-- Title: mlir::pdl_to_pdl_interp::Position Pages: 1 -->
<svg width="754pt" height="874pt"
 viewBox="0.00 0.00 754.00 874.00" xmlns="http://www.w3.org/2000/svg" xmlns:xlink="http://www.w3.org/1999/xlink">
<g id="graph0" class="graph" transform="scale(1 1) rotate(0) translate(4 870)">
<title>mlir::pdl_to_pdl_interp::Position</title>
<!-- Node1 -->
<g id="Node000001" class="node">
<title>Node1</title>
<g id="a_Node000001"><a xlink:title="A position describes a value on the input IR on which a predicate may be applied, such as an operatio...">
<polygon fill="#999999" stroke="#666666" points="280,-448 154,-448 154,-418 280,-418 280,-448"/>
<text text-anchor="start" x="162" y="-436" font-family="Helvetica,sans-Serif" font-size="10.00">mlir::pdl_to_pdl_interp</text>
<text text-anchor="middle" x="217" y="-425" font-family="Helvetica,sans-Serif" font-size="10.00">::Position</text>
</a>
</g>
</g>
<!-- Node3 -->
<g id="Node000003" class="node">
<title>Node3</title>
<g id="a_Node000003"><a xlink:href="classmlir_1_1pdl__to__pdl__interp_1_1PredicateBase.html" target="_top" xlink:title=" ">
<polygon fill="white" stroke="#666666" points="535,-866 356,-866 356,-814 535,-814 535,-866"/>
<text text-anchor="start" x="364" y="-854" font-family="Helvetica,sans-Serif" font-size="10.00">mlir::pdl_to_pdl_interp</text>
<text text-anchor="start" x="364" y="-843" font-family="Helvetica,sans-Serif" font-size="10.00">::PredicateBase&lt; AttributeLiteral</text>
<text text-anchor="start" x="364" y="-832" font-family="Helvetica,sans-Serif" font-size="10.00">Position, Position, Attribute,</text>
<text text-anchor="middle" x="445.5" y="-821" font-family="Helvetica,sans-Serif" font-size="10.00"> Predicates::AttributeLiteralPos &gt;</text>
</a>
</g>
</g>
<!-- Node1&#45;&gt;Node3 -->
<g id="edge2_Node000001_Node000003" class="edge">
<title>Node1&#45;&gt;Node3</title>
<g id="a_edge2_Node000001_Node000003"><a xlink:title=" ">
<path fill="none" stroke="#63b8ff" d="M221.33,-458.17C231.79,-533.46 266.25,-754.83 316,-805 326.99,-816.08 341.12,-823.75 355.97,-829.04"/>
<polygon fill="#63b8ff" stroke="#63b8ff" points="224.79,-457.59 219.96,-448.16 217.85,-458.54 224.79,-457.59"/>
</a>
</g>
</g>
<!-- Node5 -->
<g id="Node000005" class="node">
<title>Node5</title>
<g id="a_Node000005"><a xlink:href="classmlir_1_1pdl__to__pdl__interp_1_1PredicateBase.html" target="_top" xlink:title=" ">
<polygon fill="white" stroke="#666666" points="557,-796 334,-796 334,-744 557,-744 557,-796"/>
<text text-anchor="start" x="342" y="-784" font-family="Helvetica,sans-Serif" font-size="10.00">mlir::pdl_to_pdl_interp</text>
<text text-anchor="start" x="342" y="-773" font-family="Helvetica,sans-Serif" font-size="10.00">::PredicateBase&lt; AttributePosition,</text>
<text text-anchor="start" x="342" y="-762" font-family="Helvetica,sans-Serif" font-size="10.00"> Position, std::pair&lt; OperationPosition</text>
<text text-anchor="middle" x="445.5" y="-751" font-family="Helvetica,sans-Serif" font-size="10.00"> *, StringAttr &gt;, Predicates::AttributePos &gt;</text>
</a>
</g>
</g>
<!-- Node1&#45;&gt;Node5 -->
<g id="edge4_Node000001_Node000005" class="edge">
<title>Node1&#45;&gt;Node5</title>
<g id="a_edge4_Node000001_Node000005"><a xlink:title=" ">
<path fill="none" stroke="#63b8ff" d="M218.52,-458.21C221.12,-515.92 235.79,-658.54 316,-735 321.36,-740.11 327.38,-744.48 333.82,-748.23"/>
<polygon fill="#63b8ff" stroke="#63b8ff" points="222.02,-458.01 218.15,-448.15 215.02,-458.27 222.02,-458.01"/>
</a>
</g>
</g>
<!-- Node7 -->
<g id="Node000007" class="node">
<title>Node7</title>
<g id="a_Node000007"><a xlink:href="classmlir_1_1pdl__to__pdl__interp_1_1PredicateBase.html" target="_top" xlink:title=" ">
<polygon fill="white" stroke="#666666" points="575,-726 316,-726 316,-674 575,-674 575,-726"/>
<text text-anchor="start" x="324" y="-714" font-family="Helvetica,sans-Serif" font-size="10.00">mlir::pdl_to_pdl_interp</text>
<text text-anchor="start" x="324" y="-703" font-family="Helvetica,sans-Serif" font-size="10.00">::PredicateBase&lt; ConstraintPosition,</text>
<text text-anchor="start" x="324" y="-692" font-family="Helvetica,sans-Serif" font-size="10.00"> Position, std::pair&lt; ConstraintQuestion</text>
<text text-anchor="middle" x="445.5" y="-681" font-family="Helvetica,sans-Serif" font-size="10.00"> *, unsigned &gt;, Predicates::ConstraintResultPos &gt;</text>
</a>
</g>
</g>
<!-- Node1&#45;&gt;Node7 -->
<g id="edge6_Node000001_Node000007" class="edge">
<title>Node1&#45;&gt;Node7</title>
<g id="a_edge6_Node000001_Node000007"><a xlink:title=" ">
<path fill="none" stroke="#63b8ff" d="M221.35,-458.17C229.04,-505.83 252.49,-609.46 316,-665 319.74,-668.27 323.76,-671.24 327.99,-673.94"/>
<polygon fill="#63b8ff" stroke="#63b8ff" points="224.78,-457.46 219.82,-448.1 217.86,-458.51 224.78,-457.46"/>
</a>
</g>
</g>
<!-- Node9 -->
<g id="Node000009" class="node">
<title>Node9</title>
<g id="a_Node000009"><a xlink:href="classmlir_1_1pdl__to__pdl__interp_1_1PredicateBase.html" target="_top" xlink:title=" ">
<polygon fill="white" stroke="#666666" points="553.5,-656 337.5,-656 337.5,-604 553.5,-604 553.5,-656"/>
<text text-anchor="start" x="345.5" y="-644" font-family="Helvetica,sans-Serif" font-size="10.00">mlir::pdl_to_pdl_interp</text>
<text text-anchor="start" x="345.5" y="-633" font-family="Helvetica,sans-Serif" font-size="10.00">::PredicateBase&lt; ForEachPosition,</text>
<text text-anchor="start" x="345.5" y="-622" font-family="Helvetica,sans-Serif" font-size="10.00"> Position, std::pair&lt; Position</text>
<text text-anchor="middle" x="445.5" y="-611" font-family="Helvetica,sans-Serif" font-size="10.00"> *, unsigned &gt;, Predicates::ForEachPos &gt;</text>
</a>
</g>
</g>
<!-- Node1&#45;&gt;Node9 -->
<g id="edge8_Node000001_Node000009" class="edge">
<title>Node1&#45;&gt;Node9</title>
<g id="a_edge8_Node000001_Node000009"><a xlink:title=" ">
<path fill="none" stroke="#63b8ff" d="M226.25,-457.81C239.44,-493.6 268.71,-559.32 316,-595 322.55,-599.94 329.76,-604.19 337.31,-607.84"/>
<polygon fill="#63b8ff" stroke="#63b8ff" points="229.46,-456.39 222.81,-448.14 222.86,-458.74 229.46,-456.39"/>
</a>
</g>
</g>
<!-- Node11 -->
<g id="Node000011" class="node">
<title>Node11</title>
<g id="a_Node000011"><a xlink:href="classmlir_1_1pdl__to__pdl__interp_1_1PredicateBase.html" target="_top" xlink:title=" ">
<polygon fill="white" stroke="#666666" points="540.5,-586 350.5,-586 350.5,-512 540.5,-512 540.5,-586"/>
<text text-anchor="start" x="358.5" y="-574" font-family="Helvetica,sans-Serif" font-size="10.00">mlir::pdl_to_pdl_interp</text>
<text text-anchor="start" x="358.5" y="-563" font-family="Helvetica,sans-Serif" font-size="10.00">::PredicateBase&lt; OperandGroup</text>
<text text-anchor="start" x="358.5" y="-552" font-family="Helvetica,sans-Serif" font-size="10.00">Position, Position, std::tuple</text>
<text text-anchor="start" x="358.5" y="-541" font-family="Helvetica,sans-Serif" font-size="10.00">&lt; OperationPosition *, std::optional</text>
<text text-anchor="start" x="358.5" y="-530" font-family="Helvetica,sans-Serif" font-size="10.00">&lt; unsigned &gt;, bool &gt;, Predicates::</text>
<text text-anchor="middle" x="445.5" y="-519" font-family="Helvetica,sans-Serif" font-size="10.00">OperandGroupPos &gt;</text>
</a>
</g>
</g>
<!-- Node1&#45;&gt;Node11 -->
<g id="edge10_Node000001_Node000011" class="edge">
<title>Node1&#45;&gt;Node11</title>
<g id="a_edge10_Node000001_Node000011"><a xlink:title=" ">
<path fill="none" stroke="#63b8ff" d="M243.7,-454.38C262.76,-469.45 289.86,-489.32 316,-503 326.81,-508.66 338.48,-513.9 350.21,-518.67"/>
<polygon fill="#63b8ff" stroke="#63b8ff" points="245.79,-451.56 235.8,-448.03 241.4,-457.02 245.79,-451.56"/>
</a>
</g>
</g>
<!-- Node13 -->
<g id="Node000013" class="node">
<title>Node13</title>
<g id="a_Node000013"><a xlink:href="classmlir_1_1pdl__to__pdl__interp_1_1PredicateBase.html" target="_top" xlink:title=" ">
<polygon fill="white" stroke="#666666" points="555,-494 336,-494 336,-442 555,-442 555,-494"/>
<text text-anchor="start" x="344" y="-482" font-family="Helvetica,sans-Serif" font-size="10.00">mlir::pdl_to_pdl_interp</text>
<text text-anchor="start" x="344" y="-471" font-family="Helvetica,sans-Serif" font-size="10.00">::PredicateBase&lt; OperandPosition,</text>
<text text-anchor="start" x="344" y="-460" font-family="Helvetica,sans-Serif" font-size="10.00"> Position, std::pair&lt; OperationPosition</text>
<text text-anchor="middle" x="445.5" y="-449" font-family="Helvetica,sans-Serif" font-size="10.00"> *, unsigned &gt;, Predicates::OperandPos &gt;</text>
</a>
</g>
</g>
<!-- Node1&#45;&gt;Node13 -->
<g id="edge12_Node000001_Node000013" class="edge">
<title>Node1&#45;&gt;Node13</title>
<g id="a_edge12_Node000001_Node000013"><a xlink:title=" ">
<path fill="none" stroke="#63b8ff" d="M290.11,-444.14C304.71,-446.4 320.36,-448.82 335.89,-451.22"/>
<polygon fill="#63b8ff" stroke="#63b8ff" points="290.61,-440.68 280.19,-442.61 289.54,-447.6 290.61,-440.68"/>
</a>
</g>
</g>
<!-- Node15 -->
<g id="Node000015" class="node">
<title>Node15</title>
<g id="a_Node000015"><a xlink:href="classmlir_1_1pdl__to__pdl__interp_1_1PredicateBase.html" target="_top" xlink:title=" ">
<polygon fill="white" stroke="#666666" points="558.5,-424 332.5,-424 332.5,-372 558.5,-372 558.5,-424"/>
<text text-anchor="start" x="340.5" y="-412" font-family="Helvetica,sans-Serif" font-size="10.00">mlir::pdl_to_pdl_interp</text>
<text text-anchor="start" x="340.5" y="-401" font-family="Helvetica,sans-Serif" font-size="10.00">::PredicateBase&lt; OperationPosition,</text>
<text text-anchor="start" x="340.5" y="-390" font-family="Helvetica,sans-Serif" font-size="10.00"> Position, std::pair&lt; Position</text>
<text text-anchor="middle" x="445.5" y="-379" font-family="Helvetica,sans-Serif" font-size="10.00"> *, unsigned &gt;, Predicates::OperationPos &gt;</text>
</a>
</g>
</g>
<!-- Node1&#45;&gt;Node15 -->
<g id="edge14_Node000001_Node000015" class="edge">
<title>Node1&#45;&gt;Node15</title>
<g id="a_edge14_Node000001_Node000015"><a xlink:title=" ">
<path fill="none" stroke="#63b8ff" d="M290.29,-421.83C303.75,-419.75 318.09,-417.53 332.41,-415.32"/>
<polygon fill="#63b8ff" stroke="#63b8ff" points="289.54,-418.4 280.19,-423.39 290.61,-425.32 289.54,-418.4"/>
</a>
</g>
</g>
<!-- Node17 -->
<g id="Node000017" class="node">
<title>Node17</title>
<g id="a_Node000017"><a xlink:href="classmlir_1_1pdl__to__pdl__interp_1_1PredicateBase.html" target="_top" xlink:title=" ">
<polygon fill="white" stroke="#666666" points="540.5,-354 350.5,-354 350.5,-280 540.5,-280 540.5,-354"/>
<text text-anchor="start" x="358.5" y="-342" font-family="Helvetica,sans-Serif" font-size="10.00">mlir::pdl_to_pdl_interp</text>
<text text-anchor="start" x="358.5" y="-331" font-family="Helvetica,sans-Serif" font-size="10.00">::PredicateBase&lt; ResultGroup</text>
<text text-anchor="start" x="358.5" y="-320" font-family="Helvetica,sans-Serif" font-size="10.00">Position, Position, std::tuple</text>
<text text-anchor="start" x="358.5" y="-309" font-family="Helvetica,sans-Serif" font-size="10.00">&lt; OperationPosition *, std::optional</text>
<text text-anchor="start" x="358.5" y="-298" font-family="Helvetica,sans-Serif" font-size="10.00">&lt; unsigned &gt;, bool &gt;, Predicates::</text>
<text text-anchor="middle" x="445.5" y="-287" font-family="Helvetica,sans-Serif" font-size="10.00">ResultGroupPos &gt;</text>
</a>
</g>
</g>
<!-- Node1&#45;&gt;Node17 -->
<g id="edge16_Node000001_Node000017" class="edge">
<title>Node1&#45;&gt;Node17</title>
<g id="a_edge16_Node000001_Node000017"><a xlink:title=" ">
<path fill="none" stroke="#63b8ff" d="M243.7,-411.62C262.76,-396.55 289.86,-376.68 316,-363 326.81,-357.34 338.48,-352.1 350.21,-347.33"/>
<polygon fill="#63b8ff" stroke="#63b8ff" points="241.4,-408.98 235.8,-417.97 245.79,-414.44 241.4,-408.98"/>
</a>
</g>
</g>
<!-- Node19 -->
<g id="Node000019" class="node">
<title>Node19</title>
<g id="a_Node000019"><a xlink:href="classmlir_1_1pdl__to__pdl__interp_1_1PredicateBase.html" target="_top" xlink:title=" ">
<polygon fill="white" stroke="#666666" points="550,-262 341,-262 341,-210 550,-210 550,-262"/>
<text text-anchor="start" x="349" y="-250" font-family="Helvetica,sans-Serif" font-size="10.00">mlir::pdl_to_pdl_interp</text>
<text text-anchor="start" x="349" y="-239" font-family="Helvetica,sans-Serif" font-size="10.00">::PredicateBase&lt; ResultPosition,</text>
<text text-anchor="start" x="349" y="-228" font-family="Helvetica,sans-Serif" font-size="10.00"> Position, std::pair&lt; OperationPosition</text>
<text text-anchor="middle" x="445.5" y="-217" font-family="Helvetica,sans-Serif" font-size="10.00"> *, unsigned &gt;, Predicates::ResultPos &gt;</text>
</a>
</g>
</g>
<!-- Node1&#45;&gt;Node19 -->
<g id="edge18_Node000001_Node000019" class="edge">
<title>Node1&#45;&gt;Node19</title>
<g id="a_edge18_Node000001_Node000019"><a xlink:title=" ">
<path fill="none" stroke="#63b8ff" d="M226.25,-408.19C239.44,-372.4 268.71,-306.68 316,-271 323.57,-265.29 332.01,-260.51 340.85,-256.51"/>
<polygon fill="#63b8ff" stroke="#63b8ff" points="222.86,-407.26 222.81,-417.86 229.46,-409.61 222.86,-407.26"/>
</a>
</g>
</g>
<!-- Node21 -->
<g id="Node000021" class="node">
<title>Node21</title>
<g id="a_Node000021"><a xlink:href="classmlir_1_1pdl__to__pdl__interp_1_1PredicateBase.html" target="_top" xlink:title=" ">
<polygon fill="white" stroke="#666666" points="524.5,-192 366.5,-192 366.5,-140 524.5,-140 524.5,-192"/>
<text text-anchor="start" x="374.5" y="-180" font-family="Helvetica,sans-Serif" font-size="10.00">mlir::pdl_to_pdl_interp</text>
<text text-anchor="start" x="374.5" y="-169" font-family="Helvetica,sans-Serif" font-size="10.00">::PredicateBase&lt; TypeLiteral</text>
<text text-anchor="start" x="374.5" y="-158" font-family="Helvetica,sans-Serif" font-size="10.00">Position, Position, Attribute,</text>
<text text-anchor="middle" x="445.5" y="-147" font-family="Helvetica,sans-Serif" font-size="10.00"> Predicates::TypeLiteralPos &gt;</text>
</a>
</g>
</g>
<!-- Node1&#45;&gt;Node21 -->
<g id="edge20_Node000001_Node000021" class="edge">
<title>Node1&#45;&gt;Node21</title>
<g id="a_edge20_Node000001_Node000021"><a xlink:title=" ">
<path fill="none" stroke="#63b8ff" d="M221.35,-407.83C229.04,-360.17 252.49,-256.54 316,-201 330.1,-188.67 348.14,-180.64 366.22,-175.42"/>
<polygon fill="#63b8ff" stroke="#63b8ff" points="217.86,-407.49 219.82,-417.9 224.78,-408.54 217.86,-407.49"/>
</a>
</g>
</g>
<!-- Node23 -->
<g id="Node000023" class="node">
<title>Node23</title>
<g id="a_Node000023"><a xlink:href="classmlir_1_1pdl__to__pdl__interp_1_1PredicateBase.html" target="_top" xlink:title=" ">
<polygon fill="white" stroke="#666666" points="530,-122 361,-122 361,-70 530,-70 530,-122"/>
<text text-anchor="start" x="369" y="-110" font-family="Helvetica,sans-Serif" font-size="10.00">mlir::pdl_to_pdl_interp</text>
<text text-anchor="start" x="369" y="-99" font-family="Helvetica,sans-Serif" font-size="10.00">::PredicateBase&lt; TypePosition,</text>
<text text-anchor="start" x="369" y="-88" font-family="Helvetica,sans-Serif" font-size="10.00"> Position, Position *, Predicates</text>
<text text-anchor="middle" x="445.5" y="-77" font-family="Helvetica,sans-Serif" font-size="10.00">::TypePos &gt;</text>
</a>
</g>
</g>
<!-- Node1&#45;&gt;Node23 -->
<g id="edge22_Node000001_Node000023" class="edge">
<title>Node1&#45;&gt;Node23</title>
<g id="a_edge22_Node000001_Node000023"><a xlink:title=" ">
<path fill="none" stroke="#63b8ff" d="M218.52,-407.79C221.12,-350.08 235.79,-207.46 316,-131 328.38,-119.19 344.35,-111.29 360.78,-106.02"/>
<polygon fill="#63b8ff" stroke="#63b8ff" points="215.02,-407.73 218.15,-417.85 222.02,-407.99 215.02,-407.73"/>
</a>
</g>
</g>
<!-- Node25 -->
<g id="Node000025" class="node">
<title>Node25</title>
<g id="a_Node000025"><a xlink:href="classmlir_1_1pdl__to__pdl__interp_1_1PredicateBase.html" target="_top" xlink:title=" ">
<polygon fill="white" stroke="#666666" points="536.5,-52 354.5,-52 354.5,0 536.5,0 536.5,-52"/>
<text text-anchor="start" x="362.5" y="-40" font-family="Helvetica,sans-Serif" font-size="10.00">mlir::pdl_to_pdl_interp</text>
<text text-anchor="start" x="362.5" y="-29" font-family="Helvetica,sans-Serif" font-size="10.00">::PredicateBase&lt; UsersPosition,</text>
<text text-anchor="start" x="362.5" y="-18" font-family="Helvetica,sans-Serif" font-size="10.00"> Position, std::pair&lt; Position</text>
<text text-anchor="middle" x="445.5" y="-7" font-family="Helvetica,sans-Serif" font-size="10.00"> *, bool &gt;, Predicates::UsersPos &gt;</text>
</a>
</g>
</g>
<!-- Node1&#45;&gt;Node25 -->
<g id="edge24_Node000001_Node000025" class="edge">
<title>Node1&#45;&gt;Node25</title>
<g id="a_edge24_Node000001_Node000025"><a xlink:title=" ">
<path fill="none" stroke="#63b8ff" d="M221.33,-407.83C231.79,-332.54 266.25,-111.17 316,-61 326.58,-50.33 340.08,-42.82 354.32,-37.56"/>
<polygon fill="#63b8ff" stroke="#63b8ff" points="217.85,-407.46 219.96,-417.84 224.79,-408.41 217.85,-407.46"/>
</a>
</g>
</g>
<!-- Node2 -->
<g id="Node000002" class="node">
<title>Node2</title>
<g id="a_Node000002"><a xlink:href="classmlir_1_1StorageUniquer_1_1BaseStorage.html" target="_top" xlink:title="This class acts as the base storage that all storage classes must derived from.">
<polygon fill="white" stroke="#666666" points="118,-448 0,-448 0,-418 118,-418 118,-448"/>
<text text-anchor="start" x="8" y="-436" font-family="Helvetica,sans-Serif" font-size="10.00">mlir::StorageUniquer</text>
<text text-anchor="middle" x="59" y="-425" font-family="Helvetica,sans-Serif" font-size="10.00">::BaseStorage</text>
</a>
</g>
</g>
<!-- Node2&#45;&gt;Node1 -->
<g id="edge1_Node000001_Node000002" class="edge">
<title>Node2&#45;&gt;Node1</title>
<g id="a_edge1_Node000001_Node000002"><a xlink:title=" ">
<path fill="none" stroke="#63b8ff" d="M128.36,-433C136.87,-433 145.54,-433 153.94,-433"/>
<polygon fill="#63b8ff" stroke="#63b8ff" points="128.09,-429.5 118.09,-433 128.09,-436.5 128.09,-429.5"/>
</a>
</g>
</g>
<!-- Node4 -->
<g id="Node000004" class="node">
<title>Node4</title>
<g id="a_Node000004"><a xlink:href="structmlir_1_1pdl__to__pdl__interp_1_1AttributeLiteralPosition.html" target="_top" xlink:title="A position describing a literal attribute.">
<polygon fill="white" stroke="#666666" points="746,-855 611,-855 611,-825 746,-825 746,-855"/>
<text text-anchor="start" x="619" y="-843" font-family="Helvetica,sans-Serif" font-size="10.00">mlir::pdl_to_pdl_interp</text>
<text text-anchor="middle" x="678.5" y="-832" font-family="Helvetica,sans-Serif" font-size="10.00">::AttributeLiteralPosition</text>
</a>
</g>
</g>
<!-- Node3&#45;&gt;Node4 -->
<g id="edge3_Node000003_Node000004" class="edge">
<title>Node3&#45;&gt;Node4</title>
<g id="a_edge3_Node000003_Node000004"><a xlink:title=" ">
<path fill="none" stroke="#63b8ff" d="M545.27,-840C567.45,-840 590.48,-840 610.98,-840"/>
<polygon fill="#63b8ff" stroke="#63b8ff" points="545.15,-836.5 535.15,-840 545.15,-843.5 545.15,-836.5"/>
</a>
</g>
</g>
<!-- Node6 -->
<g id="Node000006" class="node">
<title>Node6</title>
<g id="a_Node000006"><a xlink:href="structmlir_1_1pdl__to__pdl__interp_1_1AttributePosition.html" target="_top" xlink:title="A position describing an attribute of an operation.">
<polygon fill="white" stroke="#666666" points="741.5,-785 615.5,-785 615.5,-755 741.5,-755 741.5,-785"/>
<text text-anchor="start" x="623.5" y="-773" font-family="Helvetica,sans-Serif" font-size="10.00">mlir::pdl_to_pdl_interp</text>
<text text-anchor="middle" x="678.5" y="-762" font-family="Helvetica,sans-Serif" font-size="10.00">::AttributePosition</text>
</a>
</g>
</g>
<!-- Node5&#45;&gt;Node6 -->
<g id="edge5_Node000005_Node000006" class="edge">
<title>Node5&#45;&gt;Node6</title>
<g id="a_edge5_Node000005_Node000006"><a xlink:title=" ">
<path fill="none" stroke="#63b8ff" d="M567.54,-770C584.03,-770 600.36,-770 615.2,-770"/>
<polygon fill="#63b8ff" stroke="#63b8ff" points="567.26,-766.5 557.26,-770 567.26,-773.5 567.26,-766.5"/>
</a>
</g>
</g>
<!-- Node8 -->
<g id="Node000008" class="node">
<title>Node8</title>
<g id="a_Node000008"><a xlink:href="structmlir_1_1pdl__to__pdl__interp_1_1ConstraintPosition.html" target="_top" xlink:title="A position describing the result of a native constraint.">
<polygon fill="white" stroke="#666666" points="741.5,-715 615.5,-715 615.5,-685 741.5,-685 741.5,-715"/>
<text text-anchor="start" x="623.5" y="-703" font-family="Helvetica,sans-Serif" font-size="10.00">mlir::pdl_to_pdl_interp</text>
<text text-anchor="middle" x="678.5" y="-692" font-family="Helvetica,sans-Serif" font-size="10.00">::ConstraintPosition</text>
</a>
</g>
</g>
<!-- Node7&#45;&gt;Node8 -->
<g id="edge7_Node000007_Node000008" class="edge">
<title>Node7&#45;&gt;Node8</title>
<g id="a_edge7_Node000007_Node000008"><a xlink:title=" ">
<path fill="none" stroke="#63b8ff" d="M585.2,-700C595.59,-700 605.72,-700 615.23,-700"/>
<polygon fill="#63b8ff" stroke="#63b8ff" points="585.17,-696.5 575.17,-700 585.17,-703.5 585.17,-696.5"/>
</a>
</g>
</g>
<!-- Node10 -->
<g id="Node000010" class="node">
<title>Node10</title>
<g id="a_Node000010"><a xlink:href="structmlir_1_1pdl__to__pdl__interp_1_1ForEachPosition.html" target="_top" xlink:title="A position describing an iterative choice of an operation.">
<polygon fill="white" stroke="#666666" points="741.5,-645 615.5,-645 615.5,-615 741.5,-615 741.5,-645"/>
<text text-anchor="start" x="623.5" y="-633" font-family="Helvetica,sans-Serif" font-size="10.00">mlir::pdl_to_pdl_interp</text>
<text text-anchor="middle" x="678.5" y="-622" font-family="Helvetica,sans-Serif" font-size="10.00">::ForEachPosition</text>
</a>
</g>
</g>
<!-- Node9&#45;&gt;Node10 -->
<g id="edge9_Node000009_Node000010" class="edge">
<title>Node9&#45;&gt;Node10</title>
<g id="a_edge9_Node000009_Node000010"><a xlink:title=" ">
<path fill="none" stroke="#63b8ff" d="M563.96,-630C581.66,-630 599.3,-630 615.21,-630"/>
<polygon fill="#63b8ff" stroke="#63b8ff" points="563.55,-626.5 553.55,-630 563.55,-633.5 563.55,-626.5"/>
</a>
</g>
</g>
<!-- Node12 -->
<g id="Node000012" class="node">
<title>Node12</title>
<g id="a_Node000012"><a xlink:href="structmlir_1_1pdl__to__pdl__interp_1_1OperandGroupPosition.html" target="_top" xlink:title="A position describing an operand group of an operation.">
<polygon fill="white" stroke="#666666" points="744.5,-564 612.5,-564 612.5,-534 744.5,-534 744.5,-564"/>
<text text-anchor="start" x="620.5" y="-552" font-family="Helvetica,sans-Serif" font-size="10.00">mlir::pdl_to_pdl_interp</text>
<text text-anchor="middle" x="678.5" y="-541" font-family="Helvetica,sans-Serif" font-size="10.00">::OperandGroupPosition</text>
</a>
</g>
</g>
<!-- Node11&#45;&gt;Node12 -->
<g id="edge11_Node000011_Node000012" class="edge">
<title>Node11&#45;&gt;Node12</title>
<g id="a_edge11_Node000011_Node000012"><a xlink:title=" ">
<path fill="none" stroke="#63b8ff" d="M551.01,-549C571.94,-549 593.35,-549 612.46,-549"/>
<polygon fill="#63b8ff" stroke="#63b8ff" points="550.79,-545.5 540.79,-549 550.79,-552.5 550.79,-545.5"/>
</a>
</g>
</g>
<!-- Node14 -->
<g id="Node000014" class="node">
<title>Node14</title>
<g id="a_Node000014"><a xlink:href="structmlir_1_1pdl__to__pdl__interp_1_1OperandPosition.html" target="_top" xlink:title="A position describing an operand of an operation.">
<polygon fill="white" stroke="#666666" points="741.5,-483 615.5,-483 615.5,-453 741.5,-453 741.5,-483"/>
<text text-anchor="start" x="623.5" y="-471" font-family="Helvetica,sans-Serif" font-size="10.00">mlir::pdl_to_pdl_interp</text>
<text text-anchor="middle" x="678.5" y="-460" font-family="Helvetica,sans-Serif" font-size="10.00">::OperandPosition</text>
</a>
</g>
</g>
<!-- Node13&#45;&gt;Node14 -->
<g id="edge13_Node000013_Node000014" class="edge">
<title>Node13&#45;&gt;Node14</title>
<g id="a_edge13_Node000013_Node000014"><a xlink:title=" ">
<path fill="none" stroke="#63b8ff" d="M565.38,-468C582.62,-468 599.76,-468 615.25,-468"/>
<polygon fill="#63b8ff" stroke="#63b8ff" points="565.24,-464.5 555.24,-468 565.24,-471.5 565.24,-464.5"/>
</a>
</g>
</g>
<!-- Node16 -->
<g id="Node000016" class="node">
<title>Node16</title>
<g id="a_Node000016"><a xlink:href="structmlir_1_1pdl__to__pdl__interp_1_1OperationPosition.html" target="_top" xlink:title="An operation position describes an operation node in the IR.">
<polygon fill="white" stroke="#666666" points="741.5,-413 615.5,-413 615.5,-383 741.5,-383 741.5,-413"/>
<text text-anchor="start" x="623.5" y="-401" font-family="Helvetica,sans-Serif" font-size="10.00">mlir::pdl_to_pdl_interp</text>
<text text-anchor="middle" x="678.5" y="-390" font-family="Helvetica,sans-Serif" font-size="10.00">::OperationPosition</text>
</a>
</g>
</g>
<!-- Node15&#45;&gt;Node16 -->
<g id="edge15_Node000015_Node000016" class="edge">
<title>Node15&#45;&gt;Node16</title>
<g id="a_edge15_Node000015_Node000016"><a xlink:title=" ">
<path fill="none" stroke="#63b8ff" d="M568.69,-398C584.86,-398 600.85,-398 615.39,-398"/>
<polygon fill="#63b8ff" stroke="#63b8ff" points="568.62,-394.5 558.62,-398 568.62,-401.5 568.62,-394.5"/>
</a>
</g>
</g>
<!-- Node18 -->
<g id="Node000018" class="node">
<title>Node18</title>
<g id="a_Node000018"><a xlink:href="structmlir_1_1pdl__to__pdl__interp_1_1ResultGroupPosition.html" target="_top" xlink:title="A position describing a result group of an operation.">
<polygon fill="white" stroke="#666666" points="741.5,-332 615.5,-332 615.5,-302 741.5,-302 741.5,-332"/>
<text text-anchor="start" x="623.5" y="-320" font-family="Helvetica,sans-Serif" font-size="10.00">mlir::pdl_to_pdl_interp</text>
<text text-anchor="middle" x="678.5" y="-309" font-family="Helvetica,sans-Serif" font-size="10.00">::ResultGroupPosition</text>
</a>
</g>
</g>
<!-- Node17&#45;&gt;Node18 -->
<g id="edge17_Node000017_Node000018" class="edge">
<title>Node17&#45;&gt;Node18</title>
<g id="a_edge17_Node000017_Node000018"><a xlink:title=" ">
<path fill="none" stroke="#63b8ff" d="M550.84,-317C572.83,-317 595.36,-317 615.21,-317"/>
<polygon fill="#63b8ff" stroke="#63b8ff" points="550.79,-313.5 540.79,-317 550.79,-320.5 550.79,-313.5"/>
</a>
</g>
</g>
<!-- Node20 -->
<g id="Node000020" class="node">
<title>Node20</title>
<g id="a_Node000020"><a xlink:href="structmlir_1_1pdl__to__pdl__interp_1_1ResultPosition.html" target="_top" xlink:title="A position describing a result of an operation.">
<polygon fill="white" stroke="#666666" points="741.5,-251 615.5,-251 615.5,-221 741.5,-221 741.5,-251"/>
<text text-anchor="start" x="623.5" y="-239" font-family="Helvetica,sans-Serif" font-size="10.00">mlir::pdl_to_pdl_interp</text>
<text text-anchor="middle" x="678.5" y="-228" font-family="Helvetica,sans-Serif" font-size="10.00">::ResultPosition</text>
</a>
</g>
</g>
<!-- Node19&#45;&gt;Node20 -->
<g id="edge19_Node000019_Node000020" class="edge">
<title>Node19&#45;&gt;Node20</title>
<g id="a_edge19_Node000019_Node000020"><a xlink:title=" ">
<path fill="none" stroke="#63b8ff" d="M560.35,-236C579.24,-236 598.19,-236 615.18,-236"/>
<polygon fill="#63b8ff" stroke="#63b8ff" points="560.18,-232.5 550.18,-236 560.18,-239.5 560.18,-232.5"/>
</a>
</g>
</g>
<!-- Node22 -->
<g id="Node000022" class="node">
<title>Node22</title>
<g id="a_Node000022"><a xlink:href="structmlir_1_1pdl__to__pdl__interp_1_1TypeLiteralPosition.html" target="_top" xlink:title="A position describing a literal type or type range.">
<polygon fill="white" stroke="#666666" points="741.5,-181 615.5,-181 615.5,-151 741.5,-151 741.5,-181"/>
<text text-anchor="start" x="623.5" y="-169" font-family="Helvetica,sans-Serif" font-size="10.00">mlir::pdl_to_pdl_interp</text>
<text text-anchor="middle" x="678.5" y="-158" font-family="Helvetica,sans-Serif" font-size="10.00">::TypeLiteralPosition</text>
</a>
</g>
</g>
<!-- Node21&#45;&gt;Node22 -->
<g id="edge21_Node000021_Node000022" class="edge">
<title>Node21&#45;&gt;Node22</title>
<g id="a_edge21_Node000021_Node000022"><a xlink:title=" ">
<path fill="none" stroke="#63b8ff" d="M534.89,-166C561.75,-166 590.68,-166 615.43,-166"/>
<polygon fill="#63b8ff" stroke="#63b8ff" points="534.71,-162.5 524.71,-166 534.71,-169.5 534.71,-162.5"/>
</a>
</g>
</g>
<!-- Node24 -->
<g id="Node000024" class="node">
<title>Node24</title>
<g id="a_Node000024"><a xlink:href="structmlir_1_1pdl__to__pdl__interp_1_1TypePosition.html" target="_top" xlink:title="A position describing the result type of an entity, i.e.">
<polygon fill="white" stroke="#666666" points="741.5,-111 615.5,-111 615.5,-81 741.5,-81 741.5,-111"/>
<text text-anchor="start" x="623.5" y="-99" font-family="Helvetica,sans-Serif" font-size="10.00">mlir::pdl_to_pdl_interp</text>
<text text-anchor="middle" x="678.5" y="-88" font-family="Helvetica,sans-Serif" font-size="10.00">::TypePosition</text>
</a>
</g>
</g>
<!-- Node23&#45;&gt;Node24 -->
<g id="edge23_Node000023_Node000024" class="edge">
<title>Node23&#45;&gt;Node24</title>
<g id="a_edge23_Node000023_Node000024"><a xlink:title=" ">
<path fill="none" stroke="#63b8ff" d="M540.56,-96C565.78,-96 592.42,-96 615.43,-96"/>
<polygon fill="#63b8ff" stroke="#63b8ff" points="540.22,-92.5 530.22,-96 540.22,-99.5 540.22,-92.5"/>
</a>
</g>
</g>
<!-- Node26 -->
<g id="Node000026" class="node">
<title>Node26</title>
<g id="a_Node000026"><a xlink:href="structmlir_1_1pdl__to__pdl__interp_1_1UsersPosition.html" target="_top" xlink:title="A position describing the users of a value or a range of values.">
<polygon fill="white" stroke="#666666" points="741.5,-41 615.5,-41 615.5,-11 741.5,-11 741.5,-41"/>
<text text-anchor="start" x="623.5" y="-29" font-family="Helvetica,sans-Serif" font-size="10.00">mlir::pdl_to_pdl_interp</text>
<text text-anchor="middle" x="678.5" y="-18" font-family="Helvetica,sans-Serif" font-size="10.00">::UsersPosition</text>
</a>
</g>
</g>
<!-- Node25&#45;&gt;Node26 -->
<g id="edge25_Node000025_Node000026" class="edge">
<title>Node25&#45;&gt;Node26</title>
<g id="a_edge25_Node000025_Node000026"><a xlink:title=" ">
<path fill="none" stroke="#63b8ff" d="M547.06,-26C570.32,-26 594.39,-26 615.43,-26"/>
<polygon fill="#63b8ff" stroke="#63b8ff" points="546.8,-22.5 536.8,-26 546.8,-29.5 546.8,-22.5"/>
</a>
</g>
</g>
</g>
</svg>
