<?xml version="1.0" encoding="UTF-8" standalone="no"?>
<!DOCTYPE svg PUBLIC "-//W3C//DTD SVG 1.1//EN"
 "http://www.w3.org/Graphics/SVG/1.1/DTD/svg11.dtd">
<!-- Generated by graphviz version 2.43.0 (0)
 -->
<!-- Title: mlir::SideEffects::Effect Pages: 1 -->
<svg width="462pt" height="186pt"
 viewBox="0.00 0.00 462.00 186.00" xmlns="http://www.w3.org/2000/svg" xmlns:xlink="http://www.w3.org/1999/xlink">
<g id="graph0" class="graph" transform="scale(1 1) rotate(0) translate(4 182)">
<title>mlir::SideEffects::Effect</title>
<!-- Node1 -->
<g id="node1" class="node">
<title>Node1</title>
<g id="a_node1"><a xlink:title="This class represents a base class for a specific effect type.">
<polygon fill="#bfbfbf" stroke="black" points="0,-100.5 0,-130.5 102,-130.5 102,-100.5 0,-100.5"/>
<text text-anchor="start" x="8" y="-118.5" font-family="Helvetica,sans-Serif" font-size="10.00">mlir::SideEffects::</text>
<text text-anchor="middle" x="51" y="-107.5" font-family="Helvetica,sans-Serif" font-size="10.00">Effect</text>
</a>
</g>
</g>
<!-- Node2 -->
<g id="node2" class="node">
<title>Node2</title>
<g id="a_node2"><a xlink:href="structmlir_1_1MemoryEffects_1_1Effect.html" target="_top" xlink:title="This class represents the base class used for memory effects.">
<polygon fill="none" stroke="black" points="157.5,-128.5 157.5,-158.5 273.5,-158.5 273.5,-128.5 157.5,-128.5"/>
<text text-anchor="start" x="165.5" y="-146.5" font-family="Helvetica,sans-Serif" font-size="10.00">mlir::MemoryEffects</text>
<text text-anchor="middle" x="215.5" y="-135.5" font-family="Helvetica,sans-Serif" font-size="10.00">::Effect</text>
</a>
</g>
</g>
<!-- Node1&#45;&gt;Node2 -->
<g id="edge1" class="edge">
<title>Node1&#45;&gt;Node2</title>
<path fill="none" stroke="midnightblue" d="M112.16,-125.87C126.98,-128.42 142.81,-131.15 157.48,-133.68"/>
<polygon fill="midnightblue" stroke="midnightblue" points="112.53,-122.38 102.08,-124.13 111.34,-129.28 112.53,-122.38"/>
</g>
<!-- Node3 -->
<g id="node3" class="node">
<title>Node3</title>
<g id="a_node3"><a xlink:href="classmlir_1_1SideEffects_1_1Effect_1_1Base.html" target="_top" xlink:title="This base class is used for derived effects that are non&#45;parametric.">
<polygon fill="none" stroke="black" points="138,-68 138,-109 293,-109 293,-68 138,-68"/>
<text text-anchor="start" x="146" y="-97" font-family="Helvetica,sans-Serif" font-size="10.00">mlir::SideEffects::</text>
<text text-anchor="start" x="146" y="-86" font-family="Helvetica,sans-Serif" font-size="10.00">Effect::Base&lt; DerivedEffect,</text>
<text text-anchor="middle" x="215.5" y="-75" font-family="Helvetica,sans-Serif" font-size="10.00"> BaseEffect &gt;</text>
</a>
</g>
</g>
<!-- Node1&#45;&gt;Node3 -->
<g id="edge2" class="edge">
<title>Node1&#45;&gt;Node3</title>
<path fill="none" stroke="midnightblue" d="M112.16,-105.5C120.58,-104.11 129.32,-102.65 137.99,-101.21"/>
<polygon fill="midnightblue" stroke="midnightblue" points="111.37,-102.09 102.08,-107.18 112.52,-108.99 111.37,-102.09"/>
</g>
<!-- Node4 -->
<g id="node4" class="node">
<title>Node4</title>
<g id="a_node4"><a xlink:href="structmlir_1_1MemoryEffects_1_1Allocate.html" target="_top" xlink:title="The following effect indicates that the operation allocates from some resource.">
<polygon fill="none" stroke="black" points="329,-147.5 329,-177.5 454,-177.5 454,-147.5 329,-147.5"/>
<text text-anchor="start" x="337" y="-165.5" font-family="Helvetica,sans-Serif" font-size="10.00">mlir::MemoryEffects</text>
<text text-anchor="middle" x="391.5" y="-154.5" font-family="Helvetica,sans-Serif" font-size="10.00">::Allocate&lt; Allocate &gt;</text>
</a>
</g>
</g>
<!-- Node3&#45;&gt;Node4 -->
<g id="edge3" class="edge">
<title>Node3&#45;&gt;Node4</title>
<path fill="none" stroke="midnightblue" d="M278.79,-113.13C283.62,-115.23 288.41,-117.36 293,-119.5 309.4,-127.13 312.55,-130.98 329,-138.5 335.67,-141.55 342.85,-144.58 349.87,-147.4"/>
<polygon fill="midnightblue" stroke="midnightblue" points="280.05,-109.86 269.47,-109.16 277.3,-116.3 280.05,-109.86"/>
</g>
<!-- Node5 -->
<g id="node5" class="node">
<title>Node5</title>
<g id="a_node5"><a xlink:href="structmlir_1_1MemoryEffects_1_1Free.html" target="_top" xlink:title="The following effect indicates that the operation frees some resource that has been allocated.">
<polygon fill="none" stroke="black" points="333.5,-98.5 333.5,-128.5 449.5,-128.5 449.5,-98.5 333.5,-98.5"/>
<text text-anchor="start" x="341.5" y="-116.5" font-family="Helvetica,sans-Serif" font-size="10.00">mlir::MemoryEffects</text>
<text text-anchor="middle" x="391.5" y="-105.5" font-family="Helvetica,sans-Serif" font-size="10.00">::Free&lt; Free &gt;</text>
</a>
</g>
</g>
<!-- Node3&#45;&gt;Node5 -->
<g id="edge4" class="edge">
<title>Node3&#45;&gt;Node5</title>
<path fill="none" stroke="midnightblue" d="M303.24,-100.96C313.42,-102.43 323.61,-103.89 333.25,-105.27"/>
<polygon fill="midnightblue" stroke="midnightblue" points="303.47,-97.46 293.07,-99.5 302.47,-104.39 303.47,-97.46"/>
</g>
<!-- Node6 -->
<g id="node6" class="node">
<title>Node6</title>
<g id="a_node6"><a xlink:href="structmlir_1_1MemoryEffects_1_1Read.html" target="_top" xlink:title="The following effect indicates that the operation reads from some resource.">
<polygon fill="none" stroke="black" points="333.5,-49.5 333.5,-79.5 449.5,-79.5 449.5,-49.5 333.5,-49.5"/>
<text text-anchor="start" x="341.5" y="-67.5" font-family="Helvetica,sans-Serif" font-size="10.00">mlir::MemoryEffects</text>
<text text-anchor="middle" x="391.5" y="-56.5" font-family="Helvetica,sans-Serif" font-size="10.00">::Read&lt; Read &gt;</text>
</a>
</g>
</g>
<!-- Node3&#45;&gt;Node6 -->
<g id="edge5" class="edge">
<title>Node3&#45;&gt;Node6</title>
<path fill="none" stroke="midnightblue" d="M303.24,-76.54C313.42,-75.13 323.61,-73.73 333.25,-72.4"/>
<polygon fill="midnightblue" stroke="midnightblue" points="302.5,-73.1 293.07,-77.94 303.46,-80.04 302.5,-73.1"/>
</g>
<!-- Node7 -->
<g id="node7" class="node">
<title>Node7</title>
<g id="a_node7"><a xlink:href="structmlir_1_1MemoryEffects_1_1Write.html" target="_top" xlink:title="The following effect indicates that the operation writes to some resource.">
<polygon fill="none" stroke="black" points="333.5,-0.5 333.5,-30.5 449.5,-30.5 449.5,-0.5 333.5,-0.5"/>
<text text-anchor="start" x="341.5" y="-18.5" font-family="Helvetica,sans-Serif" font-size="10.00">mlir::MemoryEffects</text>
<text text-anchor="middle" x="391.5" y="-7.5" font-family="Helvetica,sans-Serif" font-size="10.00">::Write&lt; Write &gt;</text>
</a>
</g>
</g>
<!-- Node3&#45;&gt;Node7 -->
<g id="edge6" class="edge">
<title>Node3&#45;&gt;Node7</title>
<path fill="none" stroke="midnightblue" d="M273.67,-63.88C291.38,-56.32 310.97,-48.01 329,-40.5 336.77,-37.26 345.1,-33.84 353.06,-30.6"/>
<polygon fill="midnightblue" stroke="midnightblue" points="271.86,-60.85 264.05,-68 274.62,-67.28 271.86,-60.85"/>
</g>
</g>
</svg>
