<?xml version="1.0" encoding="UTF-8" standalone="no"?>
<!DOCTYPE svg PUBLIC "-//W3C//DTD SVG 1.1//EN"
 "http://www.w3.org/Graphics/SVG/1.1/DTD/svg11.dtd">
<!-- Generated by graphviz version 2.43.0 (0)
 -->
<!-- Title: mlir::detail::StorageUserBase&lt; ConcreteT, BaseT, StorageT, UniquerT, Traits &gt; Pages: 1 -->
<svg width="1003pt" height="1613pt"
 viewBox="0.00 0.00 1003.00 1612.50" xmlns="http://www.w3.org/2000/svg" xmlns:xlink="http://www.w3.org/1999/xlink">
<g id="graph0" class="graph" transform="scale(1 1) rotate(0) translate(4 1608.5)">
<title>mlir::detail::StorageUserBase&lt; ConcreteT, BaseT, StorageT, UniquerT, Traits &gt;</title>
<!-- Node1 -->
<g id="Node000001" class="node">
<title>Node1</title>
<g id="a_Node000001"><a xlink:title="Utility class for implementing users of storage classes uniqued by a StorageUniquer.">
<polygon fill="#999999" stroke="#666666" points="309,-755 152,-755 152,-714 309,-714 309,-755"/>
<text text-anchor="start" x="160" y="-743" font-family="Helvetica,sans-Serif" font-size="10.00">mlir::detail::StorageUser</text>
<text text-anchor="start" x="160" y="-732" font-family="Helvetica,sans-Serif" font-size="10.00">Base&lt; ConcreteT, BaseT,</text>
<text text-anchor="middle" x="230.5" y="-721" font-family="Helvetica,sans-Serif" font-size="10.00"> StorageT, UniquerT, Traits &gt;</text>
</a>
</g>
</g>
<!-- Node4 -->
<g id="Node000004" class="node">
<title>Node4</title>
<g id="a_Node000004"><a xlink:href="classmlir_1_1detail_1_1StorageUserBase.html" target="_top" xlink:title=" ">
<polygon fill="white" stroke="#666666" points="727,-1469.5 524,-1469.5 524,-1417.5 727,-1417.5 727,-1469.5"/>
<text text-anchor="start" x="532" y="-1457.5" font-family="Helvetica,sans-Serif" font-size="10.00">mlir::detail::StorageUser</text>
<text text-anchor="start" x="532" y="-1446.5" font-family="Helvetica,sans-Serif" font-size="10.00">Base&lt; ConcreteType, BaseType,</text>
<text text-anchor="start" x="532" y="-1435.5" font-family="Helvetica,sans-Serif" font-size="10.00"> StorageType, detail::AttributeUniquer,</text>
<text text-anchor="middle" x="625.5" y="-1424.5" font-family="Helvetica,sans-Serif" font-size="10.00"> Traits... &gt;</text>
</a>
</g>
</g>
<!-- Node1&#45;&gt;Node4 -->
<g id="edge3_Node000001_Node000004" class="edge">
<title>Node1&#45;&gt;Node4</title>
<g id="a_edge3_Node000001_Node000004"><a xlink:title=" ">
<path fill="none" stroke="orange" stroke-dasharray="5,2" d="M247.91,-764.11C312.52,-880.66 548.73,-1306.81 609.94,-1417.23"/>
<polygon fill="orange" stroke="orange" points="250.96,-762.38 243.05,-755.34 244.84,-765.78 250.96,-762.38"/>
</a>
</g>
<text text-anchor="start" x="340.5" y="-1249" font-family="Helvetica,sans-Serif" font-size="10.00" fill="grey">&lt; ConcreteType, BaseType,</text>
<text text-anchor="start" x="340.5" y="-1234" font-family="Helvetica,sans-Serif" font-size="10.00" fill="grey">   StorageType, detail::Attribute</text>
<text text-anchor="start" x="340.5" y="-1219" font-family="Helvetica,sans-Serif" font-size="10.00" fill="grey">  Uniquer, Traits... &gt;</text>
</g>
<!-- Node9 -->
<g id="Node000009" class="node">
<title>Node9</title>
<g id="a_Node000009"><a xlink:href="classmlir_1_1detail_1_1StorageUserBase.html" target="_top" xlink:title=" ">
<polygon fill="white" stroke="#666666" points="708.5,-790 542.5,-790 542.5,-749 708.5,-749 708.5,-790"/>
<text text-anchor="start" x="550.5" y="-778" font-family="Helvetica,sans-Serif" font-size="10.00">mlir::detail::StorageUser</text>
<text text-anchor="start" x="550.5" y="-767" font-family="Helvetica,sans-Serif" font-size="10.00">Base&lt; ConcreteT, BaseT,</text>
<text text-anchor="middle" x="625.5" y="-756" font-family="Helvetica,sans-Serif" font-size="10.00"> StorageT, UniquerT, Traits... &gt;</text>
</a>
</g>
</g>
<!-- Node1&#45;&gt;Node9 -->
<g id="edge8_Node000001_Node000009" class="edge">
<title>Node1&#45;&gt;Node9</title>
<g id="a_edge8_Node000001_Node000009"><a xlink:title=" ">
<path fill="none" stroke="orange" stroke-dasharray="5,2" d="M319.26,-746.66C321.87,-746.95 324.45,-747.23 327,-747.5 399.63,-755.12 482.5,-761.02 542.3,-764.78"/>
<polygon fill="orange" stroke="orange" points="319.45,-743.16 309.11,-745.47 318.64,-750.11 319.45,-743.16"/>
</a>
</g>
<text text-anchor="start" x="363.5" y="-797" font-family="Helvetica,sans-Serif" font-size="10.00" fill="grey">&lt; ConcreteT, BaseT,</text>
<text text-anchor="start" x="363.5" y="-782" font-family="Helvetica,sans-Serif" font-size="10.00" fill="grey">   StorageT, UniquerT,</text>
<text text-anchor="start" x="363.5" y="-767" font-family="Helvetica,sans-Serif" font-size="10.00" fill="grey">   Traits... &gt;</text>
</g>
<!-- Node10 -->
<g id="Node000010" class="node">
<title>Node10</title>
<g id="a_Node000010"><a xlink:href="classmlir_1_1detail_1_1StorageUserBase.html" target="_top" xlink:title=" ">
<polygon fill="white" stroke="#666666" points="717,-725.5 534,-725.5 534,-673.5 717,-673.5 717,-725.5"/>
<text text-anchor="start" x="542" y="-713.5" font-family="Helvetica,sans-Serif" font-size="10.00">mlir::detail::StorageUser</text>
<text text-anchor="start" x="542" y="-702.5" font-family="Helvetica,sans-Serif" font-size="10.00">Base&lt; ConcreteType, BaseType,</text>
<text text-anchor="start" x="542" y="-691.5" font-family="Helvetica,sans-Serif" font-size="10.00"> StorageType, detail::TypeUniquer,</text>
<text text-anchor="middle" x="625.5" y="-680.5" font-family="Helvetica,sans-Serif" font-size="10.00"> Traits... &gt;</text>
</a>
</g>
</g>
<!-- Node1&#45;&gt;Node10 -->
<g id="edge9_Node000001_Node000010" class="edge">
<title>Node1&#45;&gt;Node10</title>
<g id="a_edge9_Node000001_Node000010"><a xlink:title=" ">
<path fill="none" stroke="orange" stroke-dasharray="5,2" d="M282.72,-710.01C296.75,-704.44 312.19,-699.34 327,-696.5 395.48,-683.38 474.47,-684.93 533.84,-689.33"/>
<polygon fill="orange" stroke="orange" points="281.16,-706.87 273.25,-713.91 283.83,-713.34 281.16,-706.87"/>
</a>
</g>
<text text-anchor="start" x="330.5" y="-732" font-family="Helvetica,sans-Serif" font-size="10.00" fill="grey">&lt; ConcreteType, BaseType,</text>
<text text-anchor="start" x="330.5" y="-717" font-family="Helvetica,sans-Serif" font-size="10.00" fill="grey">   StorageType, detail::TypeUniquer,</text>
<text text-anchor="start" x="330.5" y="-702" font-family="Helvetica,sans-Serif" font-size="10.00" fill="grey">   Traits... &gt;</text>
</g>
<!-- Node31 -->
<g id="Node000031" class="node">
<title>Node31</title>
<g id="a_Node000031"><a xlink:href="classmlir_1_1detail_1_1StorageUserBase.html" target="_top" xlink:title=" ">
<polygon fill="white" stroke="#666666" points="717,-326.5 534,-326.5 534,-274.5 717,-274.5 717,-326.5"/>
<text text-anchor="start" x="542" y="-314.5" font-family="Helvetica,sans-Serif" font-size="10.00">mlir::detail::StorageUser</text>
<text text-anchor="start" x="542" y="-303.5" font-family="Helvetica,sans-Serif" font-size="10.00">Base&lt; DistinctAttr, Attribute,</text>
<text text-anchor="start" x="542" y="-292.5" font-family="Helvetica,sans-Serif" font-size="10.00"> detail::DistinctAttrStorage,</text>
<text text-anchor="middle" x="625.5" y="-281.5" font-family="Helvetica,sans-Serif" font-size="10.00"> detail::DistinctAttributeUniquer &gt;</text>
</a>
</g>
</g>
<!-- Node1&#45;&gt;Node31 -->
<g id="edge30_Node000001_Node000031" class="edge">
<title>Node1&#45;&gt;Node31</title>
<g id="a_edge30_Node000001_Node000031"><a xlink:title=" ">
<path fill="none" stroke="orange" stroke-dasharray="5,2" d="M257.12,-706.21C328.94,-626.9 531.5,-403.2 600.86,-326.61"/>
<polygon fill="orange" stroke="orange" points="254.31,-704.1 250.19,-713.86 259.5,-708.8 254.31,-704.1"/>
</a>
</g>
<text text-anchor="start" x="330.5" y="-654" font-family="Helvetica,sans-Serif" font-size="10.00" fill="grey">&lt; DistinctAttr, Attribute,</text>
<text text-anchor="start" x="330.5" y="-639" font-family="Helvetica,sans-Serif" font-size="10.00" fill="grey">   detail::DistinctAttrStorage,</text>
<text text-anchor="start" x="330.5" y="-624" font-family="Helvetica,sans-Serif" font-size="10.00" fill="grey">   detail::DistinctAttributeUniquer &gt;</text>
</g>
<!-- Node2 -->
<g id="Node000002" class="node">
<title>Node2</title>
<g id="a_Node000002"><a xlink:title=" ">
<polygon fill="white" stroke="#666666" points="81,-763 34,-763 34,-744 81,-744 81,-763"/>
<text text-anchor="middle" x="57.5" y="-751" font-family="Helvetica,sans-Serif" font-size="10.00">BaseT</text>
</a>
</g>
</g>
<!-- Node2&#45;&gt;Node1 -->
<g id="edge1_Node000001_Node000002" class="edge">
<title>Node2&#45;&gt;Node1</title>
<g id="a_edge1_Node000001_Node000002"><a xlink:title=" ">
<path fill="none" stroke="#63b8ff" d="M91.28,-749.86C108.49,-747.95 130.39,-745.51 151.65,-743.15"/>
<polygon fill="#63b8ff" stroke="#63b8ff" points="90.76,-746.39 81.21,-750.98 91.53,-753.35 90.76,-746.39"/>
</a>
</g>
</g>
<!-- Node3 -->
<g id="Node000003" class="node">
<title>Node3</title>
<g id="a_Node000003"><a xlink:title=" ">
<polygon fill="white" stroke="#666666" points="115,-726 0,-726 0,-707 115,-707 115,-726"/>
<text text-anchor="middle" x="57.5" y="-714" font-family="Helvetica,sans-Serif" font-size="10.00">Traits&lt; ConcreteT &gt;</text>
</a>
</g>
</g>
<!-- Node3&#45;&gt;Node1 -->
<g id="edge2_Node000001_Node000003" class="edge">
<title>Node3&#45;&gt;Node1</title>
<g id="a_edge2_Node000001_Node000003"><a xlink:title=" ">
<path fill="none" stroke="#63b8ff" d="M125.44,-723.55C134.09,-724.46 143,-725.39 151.8,-726.32"/>
<polygon fill="#63b8ff" stroke="#63b8ff" points="125.75,-720.06 115.44,-722.49 125.02,-727.02 125.75,-720.06"/>
</a>
</g>
</g>
<!-- Node5 -->
<g id="Node000005" class="node">
<title>Node5</title>
<g id="a_Node000005"><a xlink:href="classmlir_1_1DynamicAttr.html" target="_top" xlink:title="A dynamic attribute instance.">
<polygon fill="white" stroke="#666666" points="964.5,-1604.5 794.5,-1604.5 794.5,-1552.5 964.5,-1552.5 964.5,-1604.5"/>
<text text-anchor="start" x="802.5" y="-1592.5" font-family="Helvetica,sans-Serif" font-size="10.00">mlir::DynamicAttr&lt;</text>
<text text-anchor="start" x="802.5" y="-1581.5" font-family="Helvetica,sans-Serif" font-size="10.00"> DynamicAttr, Attribute,</text>
<text text-anchor="start" x="802.5" y="-1570.5" font-family="Helvetica,sans-Serif" font-size="10.00"> detail::DynamicAttrStorage,</text>
<text text-anchor="middle" x="879.5" y="-1559.5" font-family="Helvetica,sans-Serif" font-size="10.00"> AttributeTrait::IsDynamicAttr &gt;</text>
</a>
</g>
</g>
<!-- Node4&#45;&gt;Node5 -->
<g id="edge4_Node000004_Node000005" class="edge">
<title>Node4&#45;&gt;Node5</title>
<g id="a_edge4_Node000004_Node000005"><a xlink:title=" ">
<path fill="none" stroke="#63b8ff" d="M664.12,-1476.18C690.58,-1497.78 727.62,-1525.35 764,-1543.5 773.58,-1548.28 783.94,-1552.55 794.38,-1556.33"/>
<polygon fill="#63b8ff" stroke="#63b8ff" points="666.2,-1473.36 656.26,-1469.69 661.74,-1478.75 666.2,-1473.36"/>
</a>
</g>
</g>
<!-- Node6 -->
<g id="Node000006" class="node">
<title>Node6</title>
<g id="a_Node000006"><a xlink:href="classmlir_1_1spirv_1_1InterfaceVarABIAttr.html" target="_top" xlink:title="An attribute that specifies the information regarding the interface variable: descriptor set,...">
<polygon fill="white" stroke="#666666" points="990,-1534.5 769,-1534.5 769,-1482.5 990,-1482.5 990,-1534.5"/>
<text text-anchor="start" x="777" y="-1522.5" font-family="Helvetica,sans-Serif" font-size="10.00">mlir::spirv::InterfaceVar</text>
<text text-anchor="start" x="777" y="-1511.5" font-family="Helvetica,sans-Serif" font-size="10.00">ABIAttr&lt; InterfaceVarABIAttr,</text>
<text text-anchor="start" x="777" y="-1500.5" font-family="Helvetica,sans-Serif" font-size="10.00"> Attribute, detail::InterfaceVarABIAttribute</text>
<text text-anchor="middle" x="879.5" y="-1489.5" font-family="Helvetica,sans-Serif" font-size="10.00">Storage &gt;</text>
</a>
</g>
</g>
<!-- Node4&#45;&gt;Node6 -->
<g id="edge5_Node000004_Node000006" class="edge">
<title>Node4&#45;&gt;Node6</title>
<g id="a_edge5_Node000004_Node000006"><a xlink:title=" ">
<path fill="none" stroke="#63b8ff" d="M736.96,-1471.99C750.47,-1475.48 764.21,-1479.02 777.57,-1482.47"/>
<polygon fill="#63b8ff" stroke="#63b8ff" points="737.74,-1468.58 727.18,-1469.47 735.99,-1475.36 737.74,-1468.58"/>
</a>
</g>
</g>
<!-- Node7 -->
<g id="Node000007" class="node">
<title>Node7</title>
<g id="a_Node000007"><a xlink:href="classmlir_1_1spirv_1_1TargetEnvAttr.html" target="_top" xlink:title="An attribute that specifies the target version, allowed extensions and capabilities,...">
<polygon fill="white" stroke="#666666" points="976,-1464 783,-1464 783,-1423 976,-1423 976,-1464"/>
<text text-anchor="start" x="791" y="-1452" font-family="Helvetica,sans-Serif" font-size="10.00">mlir::spirv::TargetEnvAttr</text>
<text text-anchor="start" x="791" y="-1441" font-family="Helvetica,sans-Serif" font-size="10.00">&lt; TargetEnvAttr, Attribute,</text>
<text text-anchor="middle" x="879.5" y="-1430" font-family="Helvetica,sans-Serif" font-size="10.00"> detail::TargetEnvAttributeStorage &gt;</text>
</a>
</g>
</g>
<!-- Node4&#45;&gt;Node7 -->
<g id="edge6_Node000004_Node000007" class="edge">
<title>Node4&#45;&gt;Node7</title>
<g id="a_edge6_Node000004_Node000007"><a xlink:title=" ">
<path fill="none" stroke="#63b8ff" d="M737.59,-1443.5C752.69,-1443.5 768.09,-1443.5 782.89,-1443.5"/>
<polygon fill="#63b8ff" stroke="#63b8ff" points="737.18,-1440 727.18,-1443.5 737.18,-1447 737.18,-1440"/>
</a>
</g>
</g>
<!-- Node8 -->
<g id="Node000008" class="node">
<title>Node8</title>
<g id="a_Node000008"><a xlink:href="classmlir_1_1spirv_1_1VerCapExtAttr.html" target="_top" xlink:title="An attribute that specifies the SPIR&#45;V (version, capabilities, extensions) triple.">
<polygon fill="white" stroke="#666666" points="977,-1405 782,-1405 782,-1364 977,-1364 977,-1405"/>
<text text-anchor="start" x="790" y="-1393" font-family="Helvetica,sans-Serif" font-size="10.00">mlir::spirv::VerCapExtAttr</text>
<text text-anchor="start" x="790" y="-1382" font-family="Helvetica,sans-Serif" font-size="10.00">&lt; VerCapExtAttr, Attribute,</text>
<text text-anchor="middle" x="879.5" y="-1371" font-family="Helvetica,sans-Serif" font-size="10.00"> detail::VerCapExtAttributeStorage &gt;</text>
</a>
</g>
</g>
<!-- Node4&#45;&gt;Node8 -->
<g id="edge7_Node000004_Node000008" class="edge">
<title>Node4&#45;&gt;Node8</title>
<g id="a_edge7_Node000004_Node000008"><a xlink:title=" ">
<path fill="none" stroke="#63b8ff" d="M737.08,-1417.61C754.98,-1413.42 773.31,-1409.13 790.58,-1405.08"/>
<polygon fill="#63b8ff" stroke="#63b8ff" points="736.12,-1414.24 727.18,-1419.93 737.72,-1421.06 736.12,-1414.24"/>
</a>
</g>
</g>
<!-- Node11 -->
<g id="Node000011" class="node">
<title>Node11</title>
<g id="a_Node000011"><a xlink:href="classmlir_1_1DynamicType.html" target="_top" xlink:title="A dynamic type instance.">
<polygon fill="white" stroke="#666666" points="959.5,-1345.5 799.5,-1345.5 799.5,-1293.5 959.5,-1293.5 959.5,-1345.5"/>
<text text-anchor="start" x="807.5" y="-1333.5" font-family="Helvetica,sans-Serif" font-size="10.00">mlir::DynamicType&lt;</text>
<text text-anchor="start" x="807.5" y="-1322.5" font-family="Helvetica,sans-Serif" font-size="10.00"> DynamicType, Type,</text>
<text text-anchor="start" x="807.5" y="-1311.5" font-family="Helvetica,sans-Serif" font-size="10.00"> detail::DynamicTypeStorage,</text>
<text text-anchor="middle" x="879.5" y="-1300.5" font-family="Helvetica,sans-Serif" font-size="10.00"> TypeTrait::IsDynamicType &gt;</text>
</a>
</g>
</g>
<!-- Node10&#45;&gt;Node11 -->
<g id="edge10_Node000010_Node000011" class="edge">
<title>Node10&#45;&gt;Node11</title>
<g id="a_edge10_Node000010_Node000011"><a xlink:title=" ">
<path fill="none" stroke="#63b8ff" d="M721.31,-732.61C723.36,-734.77 725.27,-737.06 727,-739.5 754.42,-778.14 740.26,-1118.36 745,-1165.5 750.36,-1218.79 728.84,-1244.1 764,-1284.5 773.35,-1295.24 785.89,-1302.74 799.25,-1307.96"/>
<polygon fill="#63b8ff" stroke="#63b8ff" points="723.58,-729.95 713.82,-725.82 718.88,-735.13 723.58,-729.95"/>
</a>
</g>
</g>
<!-- Node12 -->
<g id="Node000012" class="node">
<title>Node12</title>
<g id="a_Node000012"><a xlink:href="classmlir_1_1gpu_1_1AsyncTokenType.html" target="_top" xlink:title=" ">
<polygon fill="white" stroke="#666666" points="952.5,-1275 806.5,-1275 806.5,-1234 952.5,-1234 952.5,-1275"/>
<text text-anchor="start" x="814.5" y="-1263" font-family="Helvetica,sans-Serif" font-size="10.00">mlir::gpu::AsyncTokenType</text>
<text text-anchor="start" x="814.5" y="-1252" font-family="Helvetica,sans-Serif" font-size="10.00">&lt; AsyncTokenType, Type,</text>
<text text-anchor="middle" x="879.5" y="-1241" font-family="Helvetica,sans-Serif" font-size="10.00"> TypeStorage &gt;</text>
</a>
</g>
</g>
<!-- Node10&#45;&gt;Node12 -->
<g id="edge11_Node000010_Node000012" class="edge">
<title>Node10&#45;&gt;Node12</title>
<g id="a_edge11_Node000010_Node000012"><a xlink:title=" ">
<path fill="none" stroke="#63b8ff" d="M721.11,-732.44C723.23,-734.64 725.21,-736.99 727,-739.5 750.86,-772.9 740.7,-1067.68 745,-1108.5 750.51,-1160.89 728.41,-1186.66 764,-1225.5 775.08,-1237.59 790.42,-1244.96 806.27,-1249.37"/>
<polygon fill="#63b8ff" stroke="#63b8ff" points="723.13,-729.55 713.34,-725.5 718.47,-734.77 723.13,-729.55"/>
</a>
</g>
</g>
<!-- Node13 -->
<g id="Node000013" class="node">
<title>Node13</title>
<g id="a_Node000013"><a xlink:href="classmlir_1_1gpu_1_1MMAMatrixType.html" target="_top" xlink:title="MMAMatrix represents a matrix held by a subgroup for matrix&#45;matrix multiply accumulate operations.">
<polygon fill="white" stroke="#666666" points="953,-1216 806,-1216 806,-1175 953,-1175 953,-1216"/>
<text text-anchor="start" x="814" y="-1204" font-family="Helvetica,sans-Serif" font-size="10.00">mlir::gpu::MMAMatrixType</text>
<text text-anchor="start" x="814" y="-1193" font-family="Helvetica,sans-Serif" font-size="10.00">&lt; MMAMatrixType, Type,</text>
<text text-anchor="middle" x="879.5" y="-1182" font-family="Helvetica,sans-Serif" font-size="10.00"> MMAMatrixStorageType &gt;</text>
</a>
</g>
</g>
<!-- Node10&#45;&gt;Node13 -->
<g id="edge12_Node000010_Node000013" class="edge">
<title>Node10&#45;&gt;Node13</title>
<g id="a_edge12_Node000010_Node000013"><a xlink:title=" ">
<path fill="none" stroke="#63b8ff" d="M721.08,-732.46C723.22,-734.66 725.2,-737 727,-739.5 747.5,-767.94 741.06,-1019.66 745,-1054.5 750.67,-1104.67 729.76,-1129.4 764,-1166.5 774.99,-1178.4 790.1,-1185.72 805.74,-1190.15"/>
<polygon fill="#63b8ff" stroke="#63b8ff" points="723.09,-729.56 713.29,-725.54 718.44,-734.8 723.09,-729.56"/>
</a>
</g>
</g>
<!-- Node14 -->
<g id="Node000014" class="node">
<title>Node14</title>
<g id="a_Node000014"><a xlink:href="classmlir_1_1gpu_1_1SparseDnTensorHandleType.html" target="_top" xlink:title=" ">
<polygon fill="white" stroke="#666666" points="978,-1157 781,-1157 781,-1116 978,-1116 978,-1157"/>
<text text-anchor="start" x="789" y="-1145" font-family="Helvetica,sans-Serif" font-size="10.00">mlir::gpu::SparseDnTensor</text>
<text text-anchor="start" x="789" y="-1134" font-family="Helvetica,sans-Serif" font-size="10.00">HandleType&lt; SparseDnTensorHandle</text>
<text text-anchor="middle" x="879.5" y="-1123" font-family="Helvetica,sans-Serif" font-size="10.00">Type, Type, TypeStorage &gt;</text>
</a>
</g>
</g>
<!-- Node10&#45;&gt;Node14 -->
<g id="edge13_Node000010_Node000014" class="edge">
<title>Node10&#45;&gt;Node14</title>
<g id="a_edge13_Node000010_Node000014"><a xlink:title=" ">
<path fill="none" stroke="#63b8ff" d="M721.05,-732.48C723.19,-734.67 725.19,-737.01 727,-739.5 744.7,-763.81 741.13,-979.68 745,-1009.5 750.71,-1053.5 733.53,-1075.25 764,-1107.5 768.93,-1112.72 774.65,-1117.05 780.86,-1120.64"/>
<polygon fill="#63b8ff" stroke="#63b8ff" points="723.04,-729.57 713.23,-725.58 718.41,-734.82 723.04,-729.57"/>
</a>
</g>
</g>
<!-- Node15 -->
<g id="Node000015" class="node">
<title>Node15</title>
<g id="a_Node000015"><a xlink:href="classmlir_1_1gpu_1_1SparseSpGEMMOpHandleType.html" target="_top" xlink:title=" ">
<polygon fill="white" stroke="#666666" points="984,-1098 775,-1098 775,-1057 984,-1057 984,-1098"/>
<text text-anchor="start" x="783" y="-1086" font-family="Helvetica,sans-Serif" font-size="10.00">mlir::gpu::SparseSpGEMMOp</text>
<text text-anchor="start" x="783" y="-1075" font-family="Helvetica,sans-Serif" font-size="10.00">HandleType&lt; SparseSpGEMMOpHandle</text>
<text text-anchor="middle" x="879.5" y="-1064" font-family="Helvetica,sans-Serif" font-size="10.00">Type, Type, TypeStorage &gt;</text>
</a>
</g>
</g>
<!-- Node10&#45;&gt;Node15 -->
<g id="edge14_Node000010_Node000015" class="edge">
<title>Node10&#45;&gt;Node15</title>
<g id="a_edge14_Node000010_Node000015"><a xlink:title=" ">
<path fill="none" stroke="#63b8ff" d="M720.95,-732.55C723.12,-734.72 725.15,-737.04 727,-739.5 768.52,-794.81 717.44,-997.37 764,-1048.5 767.31,-1052.14 771.01,-1055.35 774.99,-1058.18"/>
<polygon fill="#63b8ff" stroke="#63b8ff" points="722.9,-729.61 713.06,-725.71 718.32,-734.9 722.9,-729.61"/>
</a>
</g>
</g>
<!-- Node16 -->
<g id="Node000016" class="node">
<title>Node16</title>
<g id="a_Node000016"><a xlink:href="classmlir_1_1gpu_1_1SparseSpMatHandleType.html" target="_top" xlink:title=" ">
<polygon fill="white" stroke="#666666" points="966.5,-1039 792.5,-1039 792.5,-998 966.5,-998 966.5,-1039"/>
<text text-anchor="start" x="800.5" y="-1027" font-family="Helvetica,sans-Serif" font-size="10.00">mlir::gpu::SparseSpMatHandle</text>
<text text-anchor="start" x="800.5" y="-1016" font-family="Helvetica,sans-Serif" font-size="10.00">Type&lt; SparseSpMatHandleType,</text>
<text text-anchor="middle" x="879.5" y="-1005" font-family="Helvetica,sans-Serif" font-size="10.00"> Type, TypeStorage &gt;</text>
</a>
</g>
</g>
<!-- Node10&#45;&gt;Node16 -->
<g id="edge15_Node000010_Node000016" class="edge">
<title>Node10&#45;&gt;Node16</title>
<g id="a_edge15_Node000010_Node000016"><a xlink:title=" ">
<path fill="none" stroke="#63b8ff" d="M720.14,-732.06C722.6,-734.37 724.9,-736.85 727,-739.5 761.73,-783.36 726.65,-946.85 764,-988.5 771.75,-997.14 781.66,-1003.43 792.39,-1007.99"/>
<polygon fill="#63b8ff" stroke="#63b8ff" points="722.24,-729.26 712.3,-725.61 717.79,-734.67 722.24,-729.26"/>
</a>
</g>
</g>
<!-- Node17 -->
<g id="Node000017" class="node">
<title>Node17</title>
<g id="a_Node000017"><a xlink:href="classmlir_1_1quant_1_1AnyQuantizedType.html" target="_top" xlink:title="A quantized type that maps storage to/from expressed types in an unspecified way.">
<polygon fill="white" stroke="#666666" points="957.5,-979.5 801.5,-979.5 801.5,-927.5 957.5,-927.5 957.5,-979.5"/>
<text text-anchor="start" x="809.5" y="-967.5" font-family="Helvetica,sans-Serif" font-size="10.00">mlir::quant::AnyQuantized</text>
<text text-anchor="start" x="809.5" y="-956.5" font-family="Helvetica,sans-Serif" font-size="10.00">Type&lt; AnyQuantizedType,</text>
<text text-anchor="start" x="809.5" y="-945.5" font-family="Helvetica,sans-Serif" font-size="10.00"> QuantizedType, detail::</text>
<text text-anchor="middle" x="879.5" y="-934.5" font-family="Helvetica,sans-Serif" font-size="10.00">AnyQuantizedTypeStorage &gt;</text>
</a>
</g>
</g>
<!-- Node10&#45;&gt;Node17 -->
<g id="edge16_Node000010_Node000017" class="edge">
<title>Node10&#45;&gt;Node17</title>
<g id="a_edge16_Node000010_Node000017"><a xlink:title=" ">
<path fill="none" stroke="#63b8ff" d="M719.74,-732.03C722.33,-734.35 724.77,-736.84 727,-739.5 753.1,-770.62 736.64,-888.48 764,-918.5 774.01,-929.49 787.36,-937.06 801.4,-942.28"/>
<polygon fill="#63b8ff" stroke="#63b8ff" points="721.53,-728.99 711.51,-725.55 717.2,-734.48 721.53,-728.99"/>
</a>
</g>
</g>
<!-- Node18 -->
<g id="Node000018" class="node">
<title>Node18</title>
<g id="a_Node000018"><a xlink:href="classmlir_1_1quant_1_1CalibratedQuantizedType.html" target="_top" xlink:title="A quantized type that infers its range from given min/max values.">
<polygon fill="white" stroke="#666666" points="995,-909.5 764,-909.5 764,-857.5 995,-857.5 995,-909.5"/>
<text text-anchor="start" x="772" y="-897.5" font-family="Helvetica,sans-Serif" font-size="10.00">mlir::quant::CalibratedQuantized</text>
<text text-anchor="start" x="772" y="-886.5" font-family="Helvetica,sans-Serif" font-size="10.00">Type&lt; CalibratedQuantizedType,</text>
<text text-anchor="start" x="772" y="-875.5" font-family="Helvetica,sans-Serif" font-size="10.00"> QuantizedType, detail::CalibratedQuantized</text>
<text text-anchor="middle" x="879.5" y="-864.5" font-family="Helvetica,sans-Serif" font-size="10.00">TypeStorage &gt;</text>
</a>
</g>
</g>
<!-- Node10&#45;&gt;Node18 -->
<g id="edge17_Node000010_Node000018" class="edge">
<title>Node10&#45;&gt;Node18</title>
<g id="a_edge17_Node000010_Node000018"><a xlink:title=" ">
<path fill="none" stroke="#63b8ff" d="M718.07,-731.39C721.25,-733.9 724.24,-736.6 727,-739.5 762.23,-776.6 727.28,-812.88 764,-848.5 767.36,-851.76 771.01,-854.71 774.88,-857.39"/>
<polygon fill="#63b8ff" stroke="#63b8ff" points="720.02,-728.49 709.84,-725.55 715.97,-734.19 720.02,-728.49"/>
</a>
</g>
</g>
<!-- Node19 -->
<g id="Node000019" class="node">
<title>Node19</title>
<g id="a_Node000019"><a xlink:href="classmlir_1_1quant_1_1UniformQuantizedPerAxisType.html" target="_top" xlink:title="Represents per&#45;axis (also known as per&#45;channel quantization).">
<polygon fill="white" stroke="#666666" points="989.5,-839.5 769.5,-839.5 769.5,-787.5 989.5,-787.5 989.5,-839.5"/>
<text text-anchor="start" x="777.5" y="-827.5" font-family="Helvetica,sans-Serif" font-size="10.00">mlir::quant::UniformQuantized</text>
<text text-anchor="start" x="777.5" y="-816.5" font-family="Helvetica,sans-Serif" font-size="10.00">PerAxisType&lt; UniformQuantizedPer</text>
<text text-anchor="start" x="777.5" y="-805.5" font-family="Helvetica,sans-Serif" font-size="10.00">AxisType, QuantizedType, detail</text>
<text text-anchor="middle" x="879.5" y="-794.5" font-family="Helvetica,sans-Serif" font-size="10.00">::UniformQuantizedPerAxisTypeStorage &gt;</text>
</a>
</g>
</g>
<!-- Node10&#45;&gt;Node19 -->
<g id="edge18_Node000010_Node000019" class="edge">
<title>Node10&#45;&gt;Node19</title>
<g id="a_edge18_Node000010_Node000019"><a xlink:title=" ">
<path fill="none" stroke="#63b8ff" d="M711.57,-730.21C716.92,-733.1 722.12,-736.19 727,-739.5 746.78,-752.9 743.68,-765.93 764,-778.5 769.21,-781.73 774.75,-784.67 780.46,-787.37"/>
<polygon fill="#63b8ff" stroke="#63b8ff" points="712.92,-726.97 702.42,-725.54 709.74,-733.21 712.92,-726.97"/>
</a>
</g>
</g>
<!-- Node20 -->
<g id="Node000020" class="node">
<title>Node20</title>
<g id="a_Node000020"><a xlink:href="classmlir_1_1quant_1_1UniformQuantizedSubChannelType.html" target="_top" xlink:title="Represents sub&#45;channel (also known as blockwise quantization).">
<polygon fill="white" stroke="#666666" points="991,-769 768,-769 768,-706 991,-706 991,-769"/>
<text text-anchor="start" x="776" y="-757" font-family="Helvetica,sans-Serif" font-size="10.00">mlir::quant::UniformQuantized</text>
<text text-anchor="start" x="776" y="-746" font-family="Helvetica,sans-Serif" font-size="10.00">SubChannelType&lt; UniformQuantized</text>
<text text-anchor="start" x="776" y="-735" font-family="Helvetica,sans-Serif" font-size="10.00">SubChannelType, QuantizedType,</text>
<text text-anchor="start" x="776" y="-724" font-family="Helvetica,sans-Serif" font-size="10.00"> detail::UniformQuantizedSubChannelType</text>
<text text-anchor="middle" x="879.5" y="-713" font-family="Helvetica,sans-Serif" font-size="10.00">Storage &gt;</text>
</a>
</g>
</g>
<!-- Node10&#45;&gt;Node20 -->
<g id="edge19_Node000010_Node000020" class="edge">
<title>Node10&#45;&gt;Node20</title>
<g id="a_edge19_Node000010_Node000020"><a xlink:title=" ">
<path fill="none" stroke="#63b8ff" d="M727.19,-714.68C740.48,-716.69 754.15,-718.75 767.59,-720.78"/>
<polygon fill="#63b8ff" stroke="#63b8ff" points="727.53,-711.2 717.12,-713.17 726.49,-718.12 727.53,-711.2"/>
</a>
</g>
</g>
<!-- Node21 -->
<g id="Node000021" class="node">
<title>Node21</title>
<g id="a_Node000021"><a xlink:href="classmlir_1_1quant_1_1UniformQuantizedType.html" target="_top" xlink:title="Represents a family of uniform, quantized types.">
<polygon fill="white" stroke="#666666" points="990,-687.5 769,-687.5 769,-635.5 990,-635.5 990,-687.5"/>
<text text-anchor="start" x="777" y="-675.5" font-family="Helvetica,sans-Serif" font-size="10.00">mlir::quant::UniformQuantized</text>
<text text-anchor="start" x="777" y="-664.5" font-family="Helvetica,sans-Serif" font-size="10.00">Type&lt; UniformQuantizedType,</text>
<text text-anchor="start" x="777" y="-653.5" font-family="Helvetica,sans-Serif" font-size="10.00"> QuantizedType, detail::UniformQuantized</text>
<text text-anchor="middle" x="879.5" y="-642.5" font-family="Helvetica,sans-Serif" font-size="10.00">TypeStorage &gt;</text>
</a>
</g>
</g>
<!-- Node10&#45;&gt;Node21 -->
<g id="edge20_Node000010_Node000021" class="edge">
<title>Node10&#45;&gt;Node21</title>
<g id="a_edge20_Node000010_Node000021"><a xlink:title=" ">
<path fill="none" stroke="#63b8ff" d="M727.06,-684.34C740.81,-682.26 754.99,-680.12 768.9,-678.03"/>
<polygon fill="#63b8ff" stroke="#63b8ff" points="726.49,-680.88 717.12,-685.83 727.53,-687.8 726.49,-680.88"/>
</a>
</g>
</g>
<!-- Node22 -->
<g id="Node000022" class="node">
<title>Node22</title>
<g id="a_Node000022"><a xlink:href="classmlir_1_1spirv_1_1ArrayType.html" target="_top" xlink:title=" ">
<polygon fill="white" stroke="#666666" points="960,-617 799,-617 799,-576 960,-576 960,-617"/>
<text text-anchor="start" x="807" y="-605" font-family="Helvetica,sans-Serif" font-size="10.00">mlir::spirv::ArrayType</text>
<text text-anchor="start" x="807" y="-594" font-family="Helvetica,sans-Serif" font-size="10.00">&lt; ArrayType, CompositeType,</text>
<text text-anchor="middle" x="879.5" y="-583" font-family="Helvetica,sans-Serif" font-size="10.00"> detail::ArrayTypeStorage &gt;</text>
</a>
</g>
</g>
<!-- Node10&#45;&gt;Node22 -->
<g id="edge21_Node000010_Node000022" class="edge">
<title>Node10&#45;&gt;Node22</title>
<g id="a_edge21_Node000010_Node000022"><a xlink:title=" ">
<path fill="none" stroke="#63b8ff" d="M678.25,-668.36C703.47,-654.14 734.63,-637.97 764,-626.5 775.1,-622.17 787.05,-618.26 798.89,-614.8"/>
<polygon fill="#63b8ff" stroke="#63b8ff" points="676.2,-665.5 669.24,-673.49 679.66,-671.58 676.2,-665.5"/>
</a>
</g>
</g>
<!-- Node23 -->
<g id="Node000023" class="node">
<title>Node23</title>
<g id="a_Node000023"><a xlink:href="classmlir_1_1spirv_1_1CooperativeMatrixType.html" target="_top" xlink:title=" ">
<polygon fill="white" stroke="#666666" points="967.5,-558 791.5,-558 791.5,-495 967.5,-495 967.5,-558"/>
<text text-anchor="start" x="799.5" y="-546" font-family="Helvetica,sans-Serif" font-size="10.00">mlir::spirv::Cooperative</text>
<text text-anchor="start" x="799.5" y="-535" font-family="Helvetica,sans-Serif" font-size="10.00">MatrixType&lt; CooperativeMatrix</text>
<text text-anchor="start" x="799.5" y="-524" font-family="Helvetica,sans-Serif" font-size="10.00">Type, CompositeType, detail</text>
<text text-anchor="start" x="799.5" y="-513" font-family="Helvetica,sans-Serif" font-size="10.00">::CooperativeMatrixTypeStorage,</text>
<text text-anchor="middle" x="879.5" y="-502" font-family="Helvetica,sans-Serif" font-size="10.00"> ShapedType::Trait &gt;</text>
</a>
</g>
</g>
<!-- Node10&#45;&gt;Node23 -->
<g id="edge22_Node000010_Node000023" class="edge">
<title>Node10&#45;&gt;Node23</title>
<g id="a_edge22_Node000010_Node000023"><a xlink:title=" ">
<path fill="none" stroke="#63b8ff" d="M653.98,-665.63C679.68,-635.88 720.53,-593.3 764,-566.5 772.51,-561.25 781.81,-556.57 791.31,-552.44"/>
<polygon fill="#63b8ff" stroke="#63b8ff" points="651.28,-663.39 647.46,-673.27 656.61,-667.93 651.28,-663.39"/>
</a>
</g>
</g>
<!-- Node24 -->
<g id="Node000024" class="node">
<title>Node24</title>
<g id="a_Node000024"><a xlink:href="classmlir_1_1spirv_1_1ImageType.html" target="_top" xlink:title=" ">
<polygon fill="white" stroke="#666666" points="957,-477 802,-477 802,-436 957,-436 957,-477"/>
<text text-anchor="start" x="810" y="-465" font-family="Helvetica,sans-Serif" font-size="10.00">mlir::spirv::ImageType</text>
<text text-anchor="start" x="810" y="-454" font-family="Helvetica,sans-Serif" font-size="10.00">&lt; ImageType, SPIRVType,</text>
<text text-anchor="middle" x="879.5" y="-443" font-family="Helvetica,sans-Serif" font-size="10.00"> detail::ImageTypeStorage &gt;</text>
</a>
</g>
</g>
<!-- Node10&#45;&gt;Node24 -->
<g id="edge23_Node000010_Node000024" class="edge">
<title>Node10&#45;&gt;Node24</title>
<g id="a_edge23_Node000010_Node000024"><a xlink:title=" ">
<path fill="none" stroke="#63b8ff" d="M639.64,-663.84C659.2,-615.81 700.63,-531.12 764,-485.5 775.23,-477.41 788.5,-471.58 801.96,-467.36"/>
<polygon fill="#63b8ff" stroke="#63b8ff" points="636.35,-662.63 635.9,-673.22 642.85,-665.22 636.35,-662.63"/>
</a>
</g>
</g>
<!-- Node25 -->
<g id="Node000025" class="node">
<title>Node25</title>
<g id="a_Node000025"><a xlink:href="classmlir_1_1spirv_1_1MatrixType.html" target="_top" xlink:title=" ">
<polygon fill="white" stroke="#666666" points="962.5,-418 796.5,-418 796.5,-377 962.5,-377 962.5,-418"/>
<text text-anchor="start" x="804.5" y="-406" font-family="Helvetica,sans-Serif" font-size="10.00">mlir::spirv::MatrixType</text>
<text text-anchor="start" x="804.5" y="-395" font-family="Helvetica,sans-Serif" font-size="10.00">&lt; MatrixType, CompositeType,</text>
<text text-anchor="middle" x="879.5" y="-384" font-family="Helvetica,sans-Serif" font-size="10.00"> detail::MatrixTypeStorage &gt;</text>
</a>
</g>
</g>
<!-- Node10&#45;&gt;Node25 -->
<g id="edge24_Node000010_Node000025" class="edge">
<title>Node10&#45;&gt;Node25</title>
<g id="a_edge24_Node000010_Node000025"><a xlink:title=" ">
<path fill="none" stroke="#63b8ff" d="M634.49,-663.13C649.37,-604.2 687.08,-488.22 764,-426.5 773.44,-418.93 784.61,-413.31 796.21,-409.14"/>
<polygon fill="#63b8ff" stroke="#63b8ff" points="631.02,-662.56 632.05,-673.11 637.82,-664.22 631.02,-662.56"/>
</a>
</g>
</g>
<!-- Node26 -->
<g id="Node000026" class="node">
<title>Node26</title>
<g id="a_Node000026"><a xlink:href="classmlir_1_1spirv_1_1PointerType.html" target="_top" xlink:title=" ">
<polygon fill="white" stroke="#666666" points="959,-359 800,-359 800,-318 959,-318 959,-359"/>
<text text-anchor="start" x="808" y="-347" font-family="Helvetica,sans-Serif" font-size="10.00">mlir::spirv::PointerType</text>
<text text-anchor="start" x="808" y="-336" font-family="Helvetica,sans-Serif" font-size="10.00">&lt; PointerType, SPIRVType,</text>
<text text-anchor="middle" x="879.5" y="-325" font-family="Helvetica,sans-Serif" font-size="10.00"> detail::PointerTypeStorage &gt;</text>
</a>
</g>
</g>
<!-- Node10&#45;&gt;Node26 -->
<g id="edge25_Node000010_Node000026" class="edge">
<title>Node10&#45;&gt;Node26</title>
<g id="a_edge25_Node000010_Node000026"><a xlink:title=" ">
<path fill="none" stroke="#63b8ff" d="M630.89,-663.06C641.13,-594.49 673.08,-446.14 764,-367.5 774.24,-358.65 786.81,-352.43 799.82,-348.08"/>
<polygon fill="#63b8ff" stroke="#63b8ff" points="627.37,-662.96 629.42,-673.35 634.3,-663.95 627.37,-662.96"/>
</a>
</g>
</g>
<!-- Node27 -->
<g id="Node000027" class="node">
<title>Node27</title>
<g id="a_Node000027"><a xlink:href="classmlir_1_1spirv_1_1RuntimeArrayType.html" target="_top" xlink:title=" ">
<polygon fill="white" stroke="#666666" points="968.5,-299.5 790.5,-299.5 790.5,-247.5 968.5,-247.5 968.5,-299.5"/>
<text text-anchor="start" x="798.5" y="-287.5" font-family="Helvetica,sans-Serif" font-size="10.00">mlir::spirv::RuntimeArray</text>
<text text-anchor="start" x="798.5" y="-276.5" font-family="Helvetica,sans-Serif" font-size="10.00">Type&lt; RuntimeArrayType,</text>
<text text-anchor="start" x="798.5" y="-265.5" font-family="Helvetica,sans-Serif" font-size="10.00"> SPIRVType, detail::RuntimeArray</text>
<text text-anchor="middle" x="879.5" y="-254.5" font-family="Helvetica,sans-Serif" font-size="10.00">TypeStorage &gt;</text>
</a>
</g>
</g>
<!-- Node10&#45;&gt;Node27 -->
<g id="edge26_Node000010_Node000027" class="edge">
<title>Node10&#45;&gt;Node27</title>
<g id="a_edge26_Node000010_Node000027"><a xlink:title=" ">
<path fill="none" stroke="#63b8ff" d="M628.67,-663.23C635.24,-586.55 661.34,-406.98 764,-308.5 771.58,-301.23 780.62,-295.47 790.25,-290.9"/>
<polygon fill="#63b8ff" stroke="#63b8ff" points="625.17,-663.1 627.87,-673.34 632.15,-663.65 625.17,-663.1"/>
</a>
</g>
</g>
<!-- Node28 -->
<g id="Node000028" class="node">
<title>Node28</title>
<g id="a_Node000028"><a xlink:href="classmlir_1_1spirv_1_1SampledImageType.html" target="_top" xlink:title=" ">
<polygon fill="white" stroke="#666666" points="971.5,-229.5 787.5,-229.5 787.5,-177.5 971.5,-177.5 971.5,-229.5"/>
<text text-anchor="start" x="795.5" y="-217.5" font-family="Helvetica,sans-Serif" font-size="10.00">mlir::spirv::SampledImage</text>
<text text-anchor="start" x="795.5" y="-206.5" font-family="Helvetica,sans-Serif" font-size="10.00">Type&lt; SampledImageType,</text>
<text text-anchor="start" x="795.5" y="-195.5" font-family="Helvetica,sans-Serif" font-size="10.00"> SPIRVType, detail::SampledImage</text>
<text text-anchor="middle" x="879.5" y="-184.5" font-family="Helvetica,sans-Serif" font-size="10.00">TypeStorage &gt;</text>
</a>
</g>
</g>
<!-- Node10&#45;&gt;Node28 -->
<g id="edge27_Node000010_Node000028" class="edge">
<title>Node10&#45;&gt;Node28</title>
<g id="a_edge27_Node000010_Node000028"><a xlink:title=" ">
<path fill="none" stroke="#63b8ff" d="M636.22,-663.55C664.96,-557.79 748.46,-254.15 764,-238.5 770.74,-231.72 778.75,-226.24 787.36,-221.82"/>
<polygon fill="#63b8ff" stroke="#63b8ff" points="632.78,-662.87 633.54,-673.44 639.54,-664.7 632.78,-662.87"/>
</a>
</g>
</g>
<!-- Node29 -->
<g id="Node000029" class="node">
<title>Node29</title>
<g id="a_Node000029"><a xlink:href="classmlir_1_1spirv_1_1StructType.html" target="_top" xlink:title="SPIR&#45;V struct type.">
<polygon fill="white" stroke="#666666" points="961,-159.5 798,-159.5 798,-107.5 961,-107.5 961,-159.5"/>
<text text-anchor="start" x="806" y="-147.5" font-family="Helvetica,sans-Serif" font-size="10.00">mlir::spirv::StructType</text>
<text text-anchor="start" x="806" y="-136.5" font-family="Helvetica,sans-Serif" font-size="10.00">&lt; StructType, CompositeType,</text>
<text text-anchor="start" x="806" y="-125.5" font-family="Helvetica,sans-Serif" font-size="10.00"> detail::StructTypeStorage,</text>
<text text-anchor="middle" x="879.5" y="-114.5" font-family="Helvetica,sans-Serif" font-size="10.00"> TypeTrait::IsMutable &gt;</text>
</a>
</g>
</g>
<!-- Node10&#45;&gt;Node29 -->
<g id="edge28_Node000010_Node000029" class="edge">
<title>Node10&#45;&gt;Node29</title>
<g id="a_edge28_Node000010_Node000029"><a xlink:title=" ">
<path fill="none" stroke="#63b8ff" d="M637.15,-663.34C656.21,-598.1 696.97,-456.28 727,-335.5 745.34,-261.72 712.4,-224.33 764,-168.5 773.17,-158.58 785.07,-151.44 797.71,-146.31"/>
<polygon fill="#63b8ff" stroke="#63b8ff" points="633.73,-662.55 634.28,-673.13 640.45,-664.52 633.73,-662.55"/>
</a>
</g>
</g>
<!-- Node30 -->
<g id="Node000030" class="node">
<title>Node30</title>
<g id="a_Node000030"><a xlink:href="classmlir_1_1spirv_1_1TensorArmType.html" target="_top" xlink:title="SPIR&#45;V TensorARM Type.">
<polygon fill="white" stroke="#666666" points="972.5,-89.5 786.5,-89.5 786.5,-37.5 972.5,-37.5 972.5,-89.5"/>
<text text-anchor="start" x="794.5" y="-77.5" font-family="Helvetica,sans-Serif" font-size="10.00">mlir::spirv::TensorArmType</text>
<text text-anchor="start" x="794.5" y="-66.5" font-family="Helvetica,sans-Serif" font-size="10.00">&lt; TensorArmType, CompositeType,</text>
<text text-anchor="start" x="794.5" y="-55.5" font-family="Helvetica,sans-Serif" font-size="10.00"> detail::TensorArmTypeStorage,</text>
<text text-anchor="middle" x="879.5" y="-44.5" font-family="Helvetica,sans-Serif" font-size="10.00"> ShapedType::Trait &gt;</text>
</a>
</g>
</g>
<!-- Node10&#45;&gt;Node30 -->
<g id="edge29_Node000010_Node000030" class="edge">
<title>Node10&#45;&gt;Node30</title>
<g id="a_edge29_Node000010_Node000030"><a xlink:title=" ">
<path fill="none" stroke="#63b8ff" d="M638.3,-663.59C659.18,-598.77 702.71,-457.57 727,-335.5 739.68,-271.81 734.42,-254.57 745,-190.5 751.8,-149.31 735.88,-129.36 764,-98.5 770.37,-91.51 778.09,-85.9 786.49,-81.4"/>
<polygon fill="#63b8ff" stroke="#63b8ff" points="634.9,-662.74 635.15,-673.33 641.56,-664.89 634.9,-662.74"/>
</a>
</g>
</g>
<!-- Node32 -->
<g id="Node000032" class="node">
<title>Node32</title>
<g id="a_Node000032"><a xlink:href="classmlir_1_1DistinctAttr.html" target="_top" xlink:title="An attribute that associates a referenced attribute with a unique identifier.">
<polygon fill="white" stroke="#666666" points="928.5,-19 830.5,-19 830.5,0 928.5,0 928.5,-19"/>
<text text-anchor="middle" x="879.5" y="-7" font-family="Helvetica,sans-Serif" font-size="10.00">mlir::DistinctAttr</text>
</a>
</g>
</g>
<!-- Node31&#45;&gt;Node32 -->
<g id="edge31_Node000031_Node000032" class="edge">
<title>Node31&#45;&gt;Node32</title>
<g id="a_edge31_Node000031_Node000032"><a xlink:title=" ">
<path fill="none" stroke="#63b8ff" d="M631.78,-264.27C643.09,-201.93 676.2,-76.45 764,-28.5 784.07,-17.54 808.85,-12.56 830.22,-10.42"/>
<polygon fill="#63b8ff" stroke="#63b8ff" points="628.28,-263.98 630.03,-274.43 635.18,-265.17 628.28,-263.98"/>
</a>
</g>
</g>
</g>
</svg>
