<?xml version="1.0" encoding="UTF-8" standalone="no"?>
<!DOCTYPE svg PUBLIC "-//W3C//DTD SVG 1.1//EN"
 "http://www.w3.org/Graphics/SVG/1.1/DTD/svg11.dtd">
<!-- Generated by graphviz version 2.43.0 (0)
 -->
<!-- Title: mlir::impl::RemoveShapeConstraintsPassBase&lt; DerivedT &gt; Pages: 1 -->
<svg width="238pt" height="244pt"
 viewBox="0.00 0.00 238.00 244.00" xmlns="http://www.w3.org/2000/svg" xmlns:xlink="http://www.w3.org/1999/xlink">
<g id="graph0" class="graph" transform="scale(1 1) rotate(0) translate(4 240)">
<title>mlir::impl::RemoveShapeConstraintsPassBase&lt; DerivedT &gt;</title>
<!-- Node1 -->
<g id="Node000001" class="node">
<title>Node1</title>
<g id="a_Node000001"><a xlink:title=" ">
<polygon fill="#999999" stroke="#666666" points="196,-30 0,-30 0,0 196,0 196,-30"/>
<text text-anchor="start" x="8" y="-18" font-family="Helvetica,sans-Serif" font-size="10.00">mlir::impl::RemoveShapeConstraints</text>
<text text-anchor="middle" x="98" y="-7" font-family="Helvetica,sans-Serif" font-size="10.00">PassBase&lt; DerivedT &gt;</text>
</a>
</g>
</g>
<!-- Node2 -->
<g id="Node000002" class="node">
<title>Node2</title>
<g id="a_Node000002"><a xlink:href="classmlir_1_1OperationPass.html" target="_top" xlink:title=" ">
<polygon fill="white" stroke="#666666" points="154,-97 42,-97 42,-67 154,-67 154,-97"/>
<text text-anchor="start" x="50" y="-85" font-family="Helvetica,sans-Serif" font-size="10.00">mlir::OperationPass</text>
<text text-anchor="middle" x="98" y="-74" font-family="Helvetica,sans-Serif" font-size="10.00">&lt; func::FuncOp &gt;</text>
</a>
</g>
</g>
<!-- Node2&#45;&gt;Node1 -->
<g id="edge1_Node000001_Node000002" class="edge">
<title>Node2&#45;&gt;Node1</title>
<g id="a_edge1_Node000001_Node000002"><a xlink:title=" ">
<path fill="none" stroke="#63b8ff" d="M98,-56.61C98,-47.65 98,-37.82 98,-30.08"/>
<polygon fill="#63b8ff" stroke="#63b8ff" points="94.5,-56.9 98,-66.9 101.5,-56.9 94.5,-56.9"/>
</a>
</g>
</g>
<!-- Node3 -->
<g id="Node000003" class="node">
<title>Node3</title>
<g id="a_Node000003"><a xlink:href="classmlir_1_1Pass.html" target="_top" xlink:title="The abstract base pass class.">
<polygon fill="white" stroke="#666666" points="126,-236 62,-236 62,-217 126,-217 126,-236"/>
<text text-anchor="middle" x="94" y="-224" font-family="Helvetica,sans-Serif" font-size="10.00">mlir::Pass</text>
</a>
</g>
</g>
<!-- Node3&#45;&gt;Node2 -->
<g id="edge2_Node000002_Node000003" class="edge">
<title>Node3&#45;&gt;Node2</title>
<g id="a_edge2_Node000002_Node000003"><a xlink:title=" ">
<path fill="none" stroke="#63b8ff" d="M94.53,-206.54C95.35,-177.58 96.88,-122.99 97.6,-97.19"/>
<polygon fill="#63b8ff" stroke="#63b8ff" points="91.03,-206.49 94.25,-216.59 98.03,-206.69 91.03,-206.49"/>
</a>
</g>
</g>
<!-- Node4 -->
<g id="Node000004" class="node">
<title>Node4</title>
<g id="a_Node000004"><a xlink:href="classmlir_1_1OperationPass.html" target="_top" xlink:title="Pass to transform an operation of a specific type.">
<polygon fill="white" stroke="#666666" points="222,-180 110,-180 110,-150 222,-150 222,-180"/>
<text text-anchor="start" x="118" y="-168" font-family="Helvetica,sans-Serif" font-size="10.00">mlir::OperationPass</text>
<text text-anchor="middle" x="166" y="-157" font-family="Helvetica,sans-Serif" font-size="10.00">&lt; OpT &gt;</text>
</a>
</g>
</g>
<!-- Node3&#45;&gt;Node4 -->
<g id="edge4_Node000004_Node000003" class="edge">
<title>Node3&#45;&gt;Node4</title>
<g id="a_edge4_Node000004_Node000003"><a xlink:title=" ">
<path fill="none" stroke="#63b8ff" d="M112.25,-210.42C123.55,-201.08 137.97,-189.16 149.03,-180.02"/>
<polygon fill="#63b8ff" stroke="#63b8ff" points="109.79,-207.91 104.32,-216.98 114.25,-213.3 109.79,-207.91"/>
</a>
</g>
</g>
<!-- Node4&#45;&gt;Node2 -->
<g id="edge3_Node000002_Node000004" class="edge">
<title>Node4&#45;&gt;Node2</title>
<g id="a_edge3_Node000002_Node000004"><a xlink:title=" ">
<path fill="none" stroke="orange" stroke-dasharray="5,2" d="M147.55,-142.02C135.58,-127.76 120.34,-109.61 109.94,-97.22"/>
<polygon fill="orange" stroke="orange" points="145.04,-144.48 154.16,-149.89 150.41,-139.98 145.04,-144.48"/>
</a>
</g>
<text text-anchor="start" x="141" y="-120.5" font-family="Helvetica,sans-Serif" font-size="10.00" fill="grey">&lt; func::FuncOp &gt;</text>
</g>
</g>
</svg>
