<?xml version="1.0" encoding="UTF-8" standalone="no"?>
<!DOCTYPE svg PUBLIC "-//W3C//DTD SVG 1.1//EN"
 "http://www.w3.org/Graphics/SVG/1.1/DTD/svg11.dtd">
<!-- Generated by graphviz version 2.43.0 (0)
 -->
<!-- Title: mlir::dataflow::AbstractSparseForwardDataFlowAnalysis Pages: 1 -->
<svg width="1180pt" height="342pt"
 viewBox="0.00 0.00 1180.00 342.00" xmlns="http://www.w3.org/2000/svg" xmlns:xlink="http://www.w3.org/1999/xlink">
<g id="graph0" class="graph" transform="scale(1 1) rotate(0) translate(4 338)">
<title>mlir::dataflow::AbstractSparseForwardDataFlowAnalysis</title>
<!-- Node1 -->
<g id="Node000001" class="node">
<title>Node1</title>
<g id="a_Node000001"><a xlink:title="Base class for sparse forward data&#45;flow analyses.">
<polygon fill="#999999" stroke="#666666" points="343,-142.5 167,-142.5 167,-112.5 343,-112.5 343,-142.5"/>
<text text-anchor="start" x="175" y="-130.5" font-family="Helvetica,sans-Serif" font-size="10.00">mlir::dataflow::Abstract</text>
<text text-anchor="middle" x="255" y="-119.5" font-family="Helvetica,sans-Serif" font-size="10.00">SparseForwardDataFlowAnalysis</text>
</a>
</g>
</g>
<!-- Node3 -->
<g id="Node000003" class="node">
<title>Node3</title>
<g id="a_Node000003"><a xlink:href="classmlir_1_1dataflow_1_1SparseForwardDataFlowAnalysis.html" target="_top" xlink:title=" ">
<polygon fill="white" stroke="#666666" points="956.5,-250 753.5,-250 753.5,-209 956.5,-209 956.5,-250"/>
<text text-anchor="start" x="761.5" y="-238" font-family="Helvetica,sans-Serif" font-size="10.00">mlir::dataflow::SparseForward</text>
<text text-anchor="start" x="761.5" y="-227" font-family="Helvetica,sans-Serif" font-size="10.00">DataFlowAnalysis&lt; IntegerDivisibility</text>
<text text-anchor="middle" x="855" y="-216" font-family="Helvetica,sans-Serif" font-size="10.00">Lattice &gt;</text>
</a>
</g>
</g>
<!-- Node1&#45;&gt;Node3 -->
<g id="edge2_Node000001_Node000003" class="edge">
<title>Node1&#45;&gt;Node3</title>
<g id="a_edge2_Node000001_Node000003"><a xlink:title=" ">
<path fill="none" stroke="#63b8ff" d="M285.94,-148.24C338.37,-183.16 451.48,-252.34 559,-277.5 634.3,-295.12 657.04,-292.02 733,-277.5 760.86,-272.18 790.48,-260.54 813.45,-250.05"/>
<polygon fill="#63b8ff" stroke="#63b8ff" points="287.71,-145.22 277.46,-142.54 283.8,-151.02 287.71,-145.22"/>
</a>
</g>
</g>
<!-- Node5 -->
<g id="Node000005" class="node">
<title>Node5</title>
<g id="a_Node000005"><a xlink:href="classmlir_1_1dataflow_1_1SparseForwardDataFlowAnalysis.html" target="_top" xlink:title=" ">
<polygon fill="white" stroke="#666666" points="959,-334 751,-334 751,-293 959,-293 959,-334"/>
<text text-anchor="start" x="759" y="-322" font-family="Helvetica,sans-Serif" font-size="10.00">mlir::dataflow::SparseForward</text>
<text text-anchor="start" x="759" y="-311" font-family="Helvetica,sans-Serif" font-size="10.00">DataFlowAnalysis&lt; IntegerValueRange</text>
<text text-anchor="middle" x="855" y="-300" font-family="Helvetica,sans-Serif" font-size="10.00">Lattice &gt;</text>
</a>
</g>
</g>
<!-- Node1&#45;&gt;Node5 -->
<g id="edge4_Node000001_Node000005" class="edge">
<title>Node1&#45;&gt;Node5</title>
<g id="a_edge4_Node000001_Node000005"><a xlink:title=" ">
<path fill="none" stroke="#63b8ff" d="M272.81,-150.99C294.38,-179.39 334.51,-226.58 380,-252.5 494.63,-317.8 649.71,-325.52 750.78,-321.99"/>
<polygon fill="#63b8ff" stroke="#63b8ff" points="275.5,-148.75 266.72,-142.83 269.89,-152.94 275.5,-148.75"/>
</a>
</g>
</g>
<!-- Node7 -->
<g id="Node000007" class="node">
<title>Node7</title>
<g id="a_Node000007"><a xlink:href="classmlir_1_1dataflow_1_1SparseForwardDataFlowAnalysis.html" target="_top" xlink:title=" ">
<polygon fill="white" stroke="#666666" points="935.5,-124 774.5,-124 774.5,-83 935.5,-83 935.5,-124"/>
<text text-anchor="start" x="782.5" y="-112" font-family="Helvetica,sans-Serif" font-size="10.00">mlir::dataflow::SparseForward</text>
<text text-anchor="start" x="782.5" y="-101" font-family="Helvetica,sans-Serif" font-size="10.00">DataFlowAnalysis&lt; Lattice</text>
<text text-anchor="middle" x="855" y="-90" font-family="Helvetica,sans-Serif" font-size="10.00">&lt; ConstantValue &gt; &gt;</text>
</a>
</g>
</g>
<!-- Node1&#45;&gt;Node7 -->
<g id="edge6_Node000001_Node000007" class="edge">
<title>Node1&#45;&gt;Node7</title>
<g id="a_edge6_Node000001_Node000007"><a xlink:title=" ">
<path fill="none" stroke="#63b8ff" d="M305.34,-109.05C392.16,-79.04 577.75,-25.83 733,-55.5 760.86,-60.82 790.48,-72.46 813.45,-82.95"/>
<polygon fill="#63b8ff" stroke="#63b8ff" points="304.03,-105.8 295.75,-112.41 306.35,-112.41 304.03,-105.8"/>
</a>
</g>
</g>
<!-- Node9 -->
<g id="Node000009" class="node">
<title>Node9</title>
<g id="a_Node000009"><a xlink:href="classmlir_1_1dataflow_1_1SparseForwardDataFlowAnalysis.html" target="_top" xlink:title=" ">
<polygon fill="white" stroke="#666666" points="953.5,-41 756.5,-41 756.5,0 953.5,0 953.5,-41"/>
<text text-anchor="start" x="764.5" y="-29" font-family="Helvetica,sans-Serif" font-size="10.00">mlir::dataflow::SparseForward</text>
<text text-anchor="start" x="764.5" y="-18" font-family="Helvetica,sans-Serif" font-size="10.00">DataFlowAnalysis&lt; StridedMetadata</text>
<text text-anchor="middle" x="855" y="-7" font-family="Helvetica,sans-Serif" font-size="10.00">RangeLattice &gt;</text>
</a>
</g>
</g>
<!-- Node1&#45;&gt;Node9 -->
<g id="edge8_Node000001_Node000009" class="edge">
<title>Node1&#45;&gt;Node9</title>
<g id="a_edge8_Node000001_Node000009"><a xlink:title=" ">
<path fill="none" stroke="#63b8ff" d="M281.26,-106.21C305.05,-87.54 342.53,-61.56 380,-49.5 505.18,-9.22 658.37,-7.88 756.08,-12.59"/>
<polygon fill="#63b8ff" stroke="#63b8ff" points="279.06,-103.49 273.44,-112.47 283.44,-108.95 279.06,-103.49"/>
</a>
</g>
</g>
<!-- Node11 -->
<g id="Node000011" class="node">
<title>Node11</title>
<g id="a_Node000011"><a xlink:href="classmlir_1_1dataflow_1_1SparseForwardDataFlowAnalysis.html" target="_top" xlink:title=" ">
<polygon fill="white" stroke="#666666" points="955,-184.5 755,-184.5 755,-154.5 955,-154.5 955,-184.5"/>
<text text-anchor="start" x="763" y="-172.5" font-family="Helvetica,sans-Serif" font-size="10.00">mlir::dataflow::SparseForward</text>
<text text-anchor="middle" x="855" y="-161.5" font-family="Helvetica,sans-Serif" font-size="10.00">DataFlowAnalysis&lt; AxisInfoLattice &gt;</text>
</a>
</g>
</g>
<!-- Node1&#45;&gt;Node11 -->
<g id="edge10_Node000001_Node000011" class="edge">
<title>Node1&#45;&gt;Node11</title>
<g id="a_edge10_Node000001_Node000011"><a xlink:title=" ">
<path fill="none" stroke="#63b8ff" d="M341.99,-110.84C439.21,-95.5 601.13,-80.57 733,-120.5 742.2,-123.29 742.41,-128.18 751,-132.5 767.89,-141 787.21,-148.48 804.52,-154.46"/>
<polygon fill="#63b8ff" stroke="#63b8ff" points="341.23,-107.42 331.91,-112.47 342.34,-114.33 341.23,-107.42"/>
</a>
</g>
</g>
<!-- Node13 -->
<g id="Node000013" class="node">
<title>Node13</title>
<g id="a_Node000013"><a xlink:href="classmlir_1_1dataflow_1_1SparseForwardDataFlowAnalysis.html" target="_top" xlink:title="A sparse forward data&#45;flow analysis for propagating SSA value lattices across the IR by implementing ...">
<polygon fill="white" stroke="#666666" points="541,-179.5 380,-179.5 380,-149.5 541,-149.5 541,-179.5"/>
<text text-anchor="start" x="388" y="-167.5" font-family="Helvetica,sans-Serif" font-size="10.00">mlir::dataflow::SparseForward</text>
<text text-anchor="middle" x="460.5" y="-156.5" font-family="Helvetica,sans-Serif" font-size="10.00">DataFlowAnalysis&lt; StateT &gt;</text>
</a>
</g>
</g>
<!-- Node1&#45;&gt;Node13 -->
<g id="edge12_Node000001_Node000013" class="edge">
<title>Node1&#45;&gt;Node13</title>
<g id="a_edge12_Node000001_Node000013"><a xlink:title=" ">
<path fill="none" stroke="#63b8ff" d="M348.67,-144.35C359.06,-146.24 369.57,-148.15 379.76,-150"/>
<polygon fill="#63b8ff" stroke="#63b8ff" points="349.24,-140.89 338.77,-142.55 347.98,-147.78 349.24,-140.89"/>
</a>
</g>
</g>
<!-- Node2 -->
<g id="Node000002" class="node">
<title>Node2</title>
<g id="a_Node000002"><a xlink:href="classmlir_1_1DataFlowAnalysis.html" target="_top" xlink:title="Base class for all data&#45;flow analyses.">
<polygon fill="white" stroke="#666666" points="130,-137 0,-137 0,-118 130,-118 130,-137"/>
<text text-anchor="middle" x="65" y="-125" font-family="Helvetica,sans-Serif" font-size="10.00">mlir::DataFlowAnalysis</text>
</a>
</g>
</g>
<!-- Node2&#45;&gt;Node1 -->
<g id="edge1_Node000001_Node000002" class="edge">
<title>Node2&#45;&gt;Node1</title>
<g id="a_edge1_Node000001_Node000002"><a xlink:title=" ">
<path fill="none" stroke="#63b8ff" d="M140.28,-127.5C149,-127.5 157.96,-127.5 166.84,-127.5"/>
<polygon fill="#63b8ff" stroke="#63b8ff" points="140.17,-124 130.17,-127.5 140.17,-131 140.17,-124"/>
</a>
</g>
</g>
<!-- Node4 -->
<g id="Node000004" class="node">
<title>Node4</title>
<g id="a_Node000004"><a xlink:href="classmlir_1_1dataflow_1_1IntegerDivisibilityAnalysis.html" target="_top" xlink:title="Integer divisibility analysis determines, for each integer&#45;typed SSA value, a divisor that the value ...">
<polygon fill="white" stroke="#666666" points="1172,-244.5 996,-244.5 996,-214.5 1172,-214.5 1172,-244.5"/>
<text text-anchor="start" x="1004" y="-232.5" font-family="Helvetica,sans-Serif" font-size="10.00">mlir::dataflow::IntegerDivisibility</text>
<text text-anchor="middle" x="1084" y="-221.5" font-family="Helvetica,sans-Serif" font-size="10.00">Analysis</text>
</a>
</g>
</g>
<!-- Node3&#45;&gt;Node4 -->
<g id="edge3_Node000003_Node000004" class="edge">
<title>Node3&#45;&gt;Node4</title>
<g id="a_edge3_Node000003_Node000004"><a xlink:title=" ">
<path fill="none" stroke="#63b8ff" d="M966.68,-229.5C976.42,-229.5 986.18,-229.5 995.68,-229.5"/>
<polygon fill="#63b8ff" stroke="#63b8ff" points="966.56,-226 956.56,-229.5 966.56,-233 966.56,-226"/>
</a>
</g>
</g>
<!-- Node6 -->
<g id="Node000006" class="node">
<title>Node6</title>
<g id="a_Node000006"><a xlink:href="classmlir_1_1dataflow_1_1IntegerRangeAnalysis.html" target="_top" xlink:title="Integer range analysis determines the integer value range of SSA values using operations that define ...">
<polygon fill="white" stroke="#666666" points="1161.5,-328.5 1006.5,-328.5 1006.5,-298.5 1161.5,-298.5 1161.5,-328.5"/>
<text text-anchor="start" x="1014.5" y="-316.5" font-family="Helvetica,sans-Serif" font-size="10.00">mlir::dataflow::IntegerRange</text>
<text text-anchor="middle" x="1084" y="-305.5" font-family="Helvetica,sans-Serif" font-size="10.00">Analysis</text>
</a>
</g>
</g>
<!-- Node5&#45;&gt;Node6 -->
<g id="edge5_Node000005_Node000006" class="edge">
<title>Node5&#45;&gt;Node6</title>
<g id="a_edge5_Node000005_Node000006"><a xlink:title=" ">
<path fill="none" stroke="#63b8ff" d="M969.23,-313.5C981.76,-313.5 994.28,-313.5 1006.2,-313.5"/>
<polygon fill="#63b8ff" stroke="#63b8ff" points="969.2,-310 959.2,-313.5 969.2,-317 969.2,-310"/>
</a>
</g>
</g>
<!-- Node8 -->
<g id="Node000008" class="node">
<title>Node8</title>
<g id="a_Node000008"><a xlink:href="classmlir_1_1dataflow_1_1SparseConstantPropagation.html" target="_top" xlink:title="This analysis implements sparse constant propagation, which attempts to determine constant&#45;valued res...">
<polygon fill="white" stroke="#666666" points="1167,-118.5 1001,-118.5 1001,-88.5 1167,-88.5 1167,-118.5"/>
<text text-anchor="start" x="1009" y="-106.5" font-family="Helvetica,sans-Serif" font-size="10.00">mlir::dataflow::SparseConstant</text>
<text text-anchor="middle" x="1084" y="-95.5" font-family="Helvetica,sans-Serif" font-size="10.00">Propagation</text>
</a>
</g>
</g>
<!-- Node7&#45;&gt;Node8 -->
<g id="edge7_Node000007_Node000008" class="edge">
<title>Node7&#45;&gt;Node8</title>
<g id="a_edge7_Node000007_Node000008"><a xlink:title=" ">
<path fill="none" stroke="#63b8ff" d="M945.96,-103.5C964.05,-103.5 982.98,-103.5 1000.79,-103.5"/>
<polygon fill="#63b8ff" stroke="#63b8ff" points="945.71,-100 935.71,-103.5 945.71,-107 945.71,-100"/>
</a>
</g>
</g>
<!-- Node10 -->
<g id="Node000010" class="node">
<title>Node10</title>
<g id="a_Node000010"><a xlink:href="classmlir_1_1dataflow_1_1StridedMetadataRangeAnalysis.html" target="_top" xlink:title="Strided metadata range analysis determines the strided metadata ranges of SSA values using operations...">
<polygon fill="white" stroke="#666666" points="1169,-35.5 999,-35.5 999,-5.5 1169,-5.5 1169,-35.5"/>
<text text-anchor="start" x="1007" y="-23.5" font-family="Helvetica,sans-Serif" font-size="10.00">mlir::dataflow::StridedMetadata</text>
<text text-anchor="middle" x="1084" y="-12.5" font-family="Helvetica,sans-Serif" font-size="10.00">RangeAnalysis</text>
</a>
</g>
</g>
<!-- Node9&#45;&gt;Node10 -->
<g id="edge9_Node000009_Node000010" class="edge">
<title>Node9&#45;&gt;Node10</title>
<g id="a_edge9_Node000009_Node000010"><a xlink:title=" ">
<path fill="none" stroke="#63b8ff" d="M963.84,-20.5C975.55,-20.5 987.34,-20.5 998.71,-20.5"/>
<polygon fill="#63b8ff" stroke="#63b8ff" points="963.59,-17 953.59,-20.5 963.59,-24 963.59,-17"/>
</a>
</g>
</g>
<!-- Node12 -->
<g id="Node000012" class="node">
<title>Node12</title>
<g id="a_Node000012"><a xlink:href="classmlir_1_1xegpu_1_1detail_1_1axis__dataflow_1_1AxisInfoAnalysis.html" target="_top" xlink:title="Sparse forward dataflow analysis that computes AxisInfo for vector values reachable from the entry of...">
<polygon fill="white" stroke="#666666" points="1172,-184.5 996,-184.5 996,-154.5 1172,-154.5 1172,-184.5"/>
<text text-anchor="start" x="1004" y="-172.5" font-family="Helvetica,sans-Serif" font-size="10.00">mlir::xegpu::detail</text>
<text text-anchor="middle" x="1084" y="-161.5" font-family="Helvetica,sans-Serif" font-size="10.00">::axis_dataflow::AxisInfoAnalysis</text>
</a>
</g>
</g>
<!-- Node11&#45;&gt;Node12 -->
<g id="edge11_Node000011_Node000012" class="edge">
<title>Node11&#45;&gt;Node12</title>
<g id="a_edge11_Node000011_Node000012"><a xlink:title=" ">
<path fill="none" stroke="#63b8ff" d="M965.39,-169.5C975.56,-169.5 985.78,-169.5 995.72,-169.5"/>
<polygon fill="#63b8ff" stroke="#63b8ff" points="965.24,-166 955.24,-169.5 965.24,-173 965.24,-166"/>
</a>
</g>
</g>
<!-- Node13&#45;&gt;Node3 -->
<g id="edge13_Node000013_Node000003" class="edge">
<title>Node13&#45;&gt;Node3</title>
<g id="a_edge13_Node000013_Node000003"><a xlink:title=" ">
<path fill="none" stroke="orange" stroke-dasharray="5,2" d="M525.14,-181.95C536.37,-184.71 547.99,-187.35 559,-189.5 623.17,-202.03 695.95,-211.95 753.17,-218.77"/>
<polygon fill="orange" stroke="orange" points="525.95,-178.54 515.4,-179.51 524.25,-185.34 525.95,-178.54"/>
</a>
</g>
<text text-anchor="start" x="575" y="-220" font-family="Helvetica,sans-Serif" font-size="10.00" fill="grey">&lt; IntegerDivisibilityLattice &gt;</text>
</g>
<!-- Node13&#45;&gt;Node5 -->
<g id="edge14_Node000013_Node000005" class="edge">
<title>Node13&#45;&gt;Node5</title>
<g id="a_edge14_Node000013_Node000005"><a xlink:title=" ">
<path fill="none" stroke="orange" stroke-dasharray="5,2" d="M485.97,-186.32C504.76,-202.03 531.99,-222.65 559,-235.5 619.64,-264.34 692.55,-283.74 750.71,-295.98"/>
<polygon fill="orange" stroke="orange" points="488.09,-183.53 478.21,-179.7 483.55,-188.85 488.09,-183.53"/>
</a>
</g>
<text text-anchor="start" x="572" y="-297" font-family="Helvetica,sans-Serif" font-size="10.00" fill="grey">&lt; IntegerValueRangeLattice &gt;</text>
</g>
<!-- Node13&#45;&gt;Node7 -->
<g id="edge15_Node000013_Node000007" class="edge">
<title>Node13&#45;&gt;Node7</title>
<g id="a_edge15_Node000013_Node000007"><a xlink:title=" ">
<path fill="none" stroke="orange" stroke-dasharray="5,2" d="M546.44,-147.68C550.68,-146.92 554.89,-146.19 559,-145.5 631.69,-133.25 714.86,-121.62 774.32,-113.72"/>
<polygon fill="orange" stroke="orange" points="545.7,-144.26 536.48,-149.49 546.95,-151.15 545.7,-144.26"/>
</a>
</g>
<text text-anchor="start" x="572" y="-151" font-family="Helvetica,sans-Serif" font-size="10.00" fill="grey">&lt; Lattice&lt; ConstantValue &gt; &gt;</text>
</g>
<!-- Node13&#45;&gt;Node9 -->
<g id="edge16_Node000013_Node000009" class="edge">
<title>Node13&#45;&gt;Node9</title>
<g id="a_edge16_Node000013_Node000009"><a xlink:title=" ">
<path fill="none" stroke="orange" stroke-dasharray="5,2" d="M488.29,-143.14C507.13,-129.03 533.44,-111.06 559,-99.5 622.04,-70.98 697.47,-51.01 756.27,-38.28"/>
<polygon fill="orange" stroke="orange" points="486.02,-140.47 480.19,-149.32 490.27,-146.04 486.02,-140.47"/>
</a>
</g>
<text text-anchor="start" x="562" y="-105" font-family="Helvetica,sans-Serif" font-size="10.00" fill="grey">&lt; StridedMetadataRangeLattice &gt;</text>
</g>
<!-- Node13&#45;&gt;Node11 -->
<g id="edge17_Node000013_Node000011" class="edge">
<title>Node13&#45;&gt;Node11</title>
<g id="a_edge17_Node000013_Node000011"><a xlink:title=" ">
<path fill="none" stroke="orange" stroke-dasharray="5,2" d="M551.72,-165.65C612.35,-166.42 692.26,-167.44 754.69,-168.23"/>
<polygon fill="orange" stroke="orange" points="551.45,-162.15 541.4,-165.52 551.36,-169.15 551.45,-162.15"/>
</a>
</g>
<text text-anchor="start" x="598" y="-174" font-family="Helvetica,sans-Serif" font-size="10.00" fill="grey">&lt; AxisInfoLattice &gt;</text>
</g>
</g>
</svg>
