<?xml version="1.0" encoding="UTF-8" standalone="no"?>
<!DOCTYPE svg PUBLIC "-//W3C//DTD SVG 1.1//EN"
 "http://www.w3.org/Graphics/SVG/1.1/DTD/svg11.dtd">
<!-- Generated by graphviz version 2.43.0 (0)
 -->
<!-- Title: mlir::Op&lt; ConcreteType, Traits &gt; Pages: 1 -->
<svg width="1654pt" height="381pt"
 viewBox="0.00 0.00 1654.00 381.00" xmlns="http://www.w3.org/2000/svg" xmlns:xlink="http://www.w3.org/1999/xlink">
<g id="graph0" class="graph" transform="scale(1 1) rotate(0) translate(4 377)">
<title>mlir::Op&lt; ConcreteType, Traits &gt;</title>
<!-- Node1 -->
<g id="Node000001" class="node">
<title>Node1</title>
<g id="a_Node000001"><a xlink:title="This provides public APIs that all operations should have.">
<polygon fill="#999999" stroke="#666666" points="304,-128 168,-128 168,-98 304,-98 304,-128"/>
<text text-anchor="start" x="176" y="-116" font-family="Helvetica,sans-Serif" font-size="10.00">mlir::Op&lt; ConcreteType,</text>
<text text-anchor="middle" x="236" y="-105" font-family="Helvetica,sans-Serif" font-size="10.00"> Traits &gt;</text>
</a>
</g>
</g>
<!-- Node4 -->
<g id="Node000004" class="node">
<title>Node4</title>
<g id="a_Node000004"><a xlink:href="classmlir_1_1detail_1_1Interface.html" target="_top" xlink:title=" ">
<polygon fill="white" stroke="#666666" points="797,-106 643,-106 643,-54 797,-54 797,-106"/>
<text text-anchor="start" x="651" y="-94" font-family="Helvetica,sans-Serif" font-size="10.00">mlir::detail::Interface</text>
<text text-anchor="start" x="651" y="-83" font-family="Helvetica,sans-Serif" font-size="10.00">&lt; ConcreteType, Operation</text>
<text text-anchor="start" x="651" y="-72" font-family="Helvetica,sans-Serif" font-size="10.00"> *, Traits, Op&lt; ConcreteType</text>
<text text-anchor="middle" x="720" y="-61" font-family="Helvetica,sans-Serif" font-size="10.00"> &gt;, OpTrait::TraitBase &gt;</text>
</a>
</g>
</g>
<!-- Node1&#45;&gt;Node4 -->
<g id="edge3_Node000001_Node000004" class="edge">
<title>Node1&#45;&gt;Node4</title>
<g id="a_edge3_Node000001_Node000004"><a xlink:title=" ">
<path fill="none" stroke="#63b8ff" d="M308.22,-96.08C312.87,-95.28 317.49,-94.58 322,-94 432.99,-79.76 562.76,-77.95 642.92,-78.53"/>
<polygon fill="#63b8ff" stroke="#63b8ff" points="307.25,-92.7 298.05,-97.94 308.51,-99.58 307.25,-92.7"/>
</a>
</g>
</g>
<!-- Node10 -->
<g id="Node000010" class="node">
<title>Node10</title>
<g id="a_Node000010"><a xlink:href="classmlir_1_1Op.html" target="_top" xlink:title=" ">
<polygon fill="white" stroke="#666666" points="829,-280 611,-280 611,-206 829,-206 829,-280"/>
<text text-anchor="start" x="619" y="-268" font-family="Helvetica,sans-Serif" font-size="10.00">mlir::Op&lt; AffineDmaStart</text>
<text text-anchor="start" x="619" y="-257" font-family="Helvetica,sans-Serif" font-size="10.00">Op, OpTrait::MemRefsNormalizable,</text>
<text text-anchor="start" x="619" y="-246" font-family="Helvetica,sans-Serif" font-size="10.00"> OpTrait::VariadicOperands,</text>
<text text-anchor="start" x="619" y="-235" font-family="Helvetica,sans-Serif" font-size="10.00"> OpTrait::ZeroResults, OpTrait</text>
<text text-anchor="start" x="619" y="-224" font-family="Helvetica,sans-Serif" font-size="10.00">::OpInvariants, AffineMapAccessInterface</text>
<text text-anchor="middle" x="720" y="-213" font-family="Helvetica,sans-Serif" font-size="10.00">::Trait, MemoryEffectOpInterface::Trait &gt;</text>
</a>
</g>
</g>
<!-- Node1&#45;&gt;Node10 -->
<g id="edge9_Node000001_Node000010" class="edge">
<title>Node1&#45;&gt;Node10</title>
<g id="a_edge9_Node000001_Node000010"><a xlink:title=" ">
<path fill="none" stroke="orange" stroke-dasharray="5,2" d="M254.78,-136.1C270.34,-154.43 294.68,-178.91 322,-191 373.42,-213.76 518.35,-205.92 574,-214 585.94,-215.73 598.38,-217.81 610.74,-220.04"/>
<polygon fill="orange" stroke="orange" points="257.33,-133.68 248.27,-128.18 251.92,-138.13 257.33,-133.68"/>
</a>
</g>
<text text-anchor="start" x="344" y="-295" font-family="Helvetica,sans-Serif" font-size="10.00" fill="grey">&lt; AffineDmaStartOp,</text>
<text text-anchor="start" x="344" y="-280" font-family="Helvetica,sans-Serif" font-size="10.00" fill="grey">   OpTrait::MemRefsNormalizable,</text>
<text text-anchor="start" x="344" y="-265" font-family="Helvetica,sans-Serif" font-size="10.00" fill="grey">   OpTrait::VariadicOperands,</text>
<text text-anchor="start" x="344" y="-250" font-family="Helvetica,sans-Serif" font-size="10.00" fill="grey">   OpTrait::ZeroResults, OpTrait</text>
<text text-anchor="start" x="344" y="-235" font-family="Helvetica,sans-Serif" font-size="10.00" fill="grey">  ::OpInvariants, AffineMapAccessInterface</text>
<text text-anchor="start" x="344" y="-220" font-family="Helvetica,sans-Serif" font-size="10.00" fill="grey">  ::Trait, MemoryEffectOpInterface::Trait &gt;</text>
</g>
<!-- Node12 -->
<g id="Node000012" class="node">
<title>Node12</title>
<g id="a_Node000012"><a xlink:href="classmlir_1_1Op.html" target="_top" xlink:title=" ">
<polygon fill="white" stroke="#666666" points="848,-187.5 592,-187.5 592,-124.5 848,-124.5 848,-187.5"/>
<text text-anchor="start" x="600" y="-175.5" font-family="Helvetica,sans-Serif" font-size="10.00">mlir::Op&lt; AffineDmaWaitOp,</text>
<text text-anchor="start" x="600" y="-164.5" font-family="Helvetica,sans-Serif" font-size="10.00"> OpTrait::MemRefsNormalizable,</text>
<text text-anchor="start" x="600" y="-153.5" font-family="Helvetica,sans-Serif" font-size="10.00"> OpTrait::VariadicOperands,</text>
<text text-anchor="start" x="600" y="-142.5" font-family="Helvetica,sans-Serif" font-size="10.00"> OpTrait::ZeroResults, OpTrait</text>
<text text-anchor="middle" x="720" y="-131.5" font-family="Helvetica,sans-Serif" font-size="10.00">::OpInvariants, AffineMapAccessInterface::Trait &gt;</text>
</a>
</g>
</g>
<!-- Node1&#45;&gt;Node12 -->
<g id="edge11_Node000001_Node000012" class="edge">
<title>Node1&#45;&gt;Node12</title>
<g id="a_edge11_Node000001_Node000012"><a xlink:title=" ">
<path fill="none" stroke="orange" stroke-dasharray="5,2" d="M314.5,-107.14C383.1,-103.4 485.72,-101.34 574,-114 590.47,-116.36 607.7,-120.14 624.28,-124.48"/>
<polygon fill="orange" stroke="orange" points="314,-103.66 304.22,-107.73 314.4,-110.65 314,-103.66"/>
</a>
</g>
<text text-anchor="start" x="325" y="-179.5" font-family="Helvetica,sans-Serif" font-size="10.00" fill="grey">&lt; AffineDmaWaitOp,</text>
<text text-anchor="start" x="325" y="-164.5" font-family="Helvetica,sans-Serif" font-size="10.00" fill="grey">   OpTrait::MemRefsNormalizable,</text>
<text text-anchor="start" x="325" y="-149.5" font-family="Helvetica,sans-Serif" font-size="10.00" fill="grey">   OpTrait::VariadicOperands,</text>
<text text-anchor="start" x="325" y="-134.5" font-family="Helvetica,sans-Serif" font-size="10.00" fill="grey">   OpTrait::ZeroResults, OpTrait</text>
<text text-anchor="start" x="325" y="-119.5" font-family="Helvetica,sans-Serif" font-size="10.00" fill="grey">  ::OpInvariants, AffineMapAccessInterface::Trait &gt;</text>
</g>
<!-- Node14 -->
<g id="Node000014" class="node">
<title>Node14</title>
<g id="a_Node000014"><a xlink:href="classmlir_1_1Op.html" target="_top" xlink:title=" ">
<polygon fill="white" stroke="#666666" points="817,-335.5 623,-335.5 623,-316.5 817,-316.5 817,-335.5"/>
<text text-anchor="middle" x="720" y="-323.5" font-family="Helvetica,sans-Serif" font-size="10.00">mlir::Op&lt; ArmSMETileOpInterface &gt;</text>
</a>
</g>
</g>
<!-- Node1&#45;&gt;Node14 -->
<g id="edge13_Node000001_Node000014" class="edge">
<title>Node1&#45;&gt;Node14</title>
<g id="a_edge13_Node000001_Node000014"><a xlink:title=" ">
<path fill="none" stroke="orange" stroke-dasharray="5,2" d="M239.79,-138.27C246.02,-181.06 265.28,-266.93 322,-306 434.11,-383.21 609.15,-353.31 683.58,-335.52"/>
<polygon fill="orange" stroke="orange" points="243.23,-137.59 238.45,-128.13 236.3,-138.51 243.23,-137.59"/>
</a>
</g>
<text text-anchor="start" x="379" y="-361.5" font-family="Helvetica,sans-Serif" font-size="10.00" fill="grey">&lt; ArmSMETileOpInterface &gt;</text>
</g>
<!-- Node16 -->
<g id="Node000016" class="node">
<title>Node16</title>
<g id="a_Node000016"><a xlink:href="classmlir_1_1Op.html" target="_top" xlink:title=" ">
<polygon fill="white" stroke="#666666" points="776.5,-35.5 663.5,-35.5 663.5,-16.5 776.5,-16.5 776.5,-35.5"/>
<text text-anchor="middle" x="720" y="-23.5" font-family="Helvetica,sans-Serif" font-size="10.00">mlir::Op&lt; TosaOp &gt;</text>
</a>
</g>
</g>
<!-- Node1&#45;&gt;Node16 -->
<g id="edge16_Node000001_Node000016" class="edge">
<title>Node1&#45;&gt;Node16</title>
<g id="a_edge16_Node000001_Node000016"><a xlink:title=" ">
<path fill="none" stroke="orange" stroke-dasharray="5,2" d="M262.8,-91.47C278.8,-79.4 300.37,-65.34 322,-58 438.55,-18.42 584.95,-18.41 663.35,-22.08"/>
<polygon fill="orange" stroke="orange" points="260.27,-89.01 254.52,-97.91 264.56,-94.53 260.27,-89.01"/>
</a>
</g>
<text text-anchor="start" x="419" y="-63.5" font-family="Helvetica,sans-Serif" font-size="10.00" fill="grey">&lt; TosaOp &gt;</text>
</g>
<!-- Node2 -->
<g id="Node000002" class="node">
<title>Node2</title>
<g id="a_Node000002"><a xlink:href="classmlir_1_1OpState.html" target="_top" xlink:title="This is the concrete base class that holds the operation pointer and has non&#45;generic methods that onl...">
<polygon fill="white" stroke="#666666" points="106,-141.5 25,-141.5 25,-122.5 106,-122.5 106,-141.5"/>
<text text-anchor="middle" x="65.5" y="-129.5" font-family="Helvetica,sans-Serif" font-size="10.00">mlir::OpState</text>
</a>
</g>
</g>
<!-- Node2&#45;&gt;Node1 -->
<g id="edge1_Node000001_Node000002" class="edge">
<title>Node2&#45;&gt;Node1</title>
<g id="a_edge1_Node000001_Node000002"><a xlink:title=" ">
<path fill="none" stroke="#63b8ff" d="M116.27,-126.39C132.39,-124.57 150.54,-122.52 167.71,-120.59"/>
<polygon fill="#63b8ff" stroke="#63b8ff" points="115.55,-122.95 106.01,-127.55 116.33,-129.9 115.55,-122.95"/>
</a>
</g>
</g>
<!-- Node3 -->
<g id="Node000003" class="node">
<title>Node3</title>
<g id="a_Node000003"><a xlink:title=" ">
<polygon fill="white" stroke="#666666" points="131,-104.5 0,-104.5 0,-85.5 131,-85.5 131,-104.5"/>
<text text-anchor="middle" x="65.5" y="-92.5" font-family="Helvetica,sans-Serif" font-size="10.00">Traits&lt; ConcreteType &gt;</text>
</a>
</g>
</g>
<!-- Node3&#45;&gt;Node1 -->
<g id="edge2_Node000001_Node000003" class="edge">
<title>Node3&#45;&gt;Node1</title>
<g id="a_edge2_Node000001_Node000003"><a xlink:title=" ">
<path fill="none" stroke="#63b8ff" d="M141.17,-102.98C150.1,-103.93 159.18,-104.9 168,-105.84"/>
<polygon fill="#63b8ff" stroke="#63b8ff" points="141.48,-99.49 131.16,-101.91 140.74,-106.45 141.48,-99.49"/>
</a>
</g>
</g>
<!-- Node5 -->
<g id="Node000005" class="node">
<title>Node5</title>
<g id="a_Node000005"><a xlink:href="classmlir_1_1OpInterface.html" target="_top" xlink:title="This class represents the base of an operation interface.">
<polygon fill="white" stroke="#666666" points="1047.5,-100 918.5,-100 918.5,-70 1047.5,-70 1047.5,-100"/>
<text text-anchor="start" x="926.5" y="-88" font-family="Helvetica,sans-Serif" font-size="10.00">mlir::OpInterface&lt;</text>
<text text-anchor="middle" x="983" y="-77" font-family="Helvetica,sans-Serif" font-size="10.00"> ConcreteType, Traits &gt;</text>
</a>
</g>
</g>
<!-- Node4&#45;&gt;Node5 -->
<g id="edge4_Node000004_Node000005" class="edge">
<title>Node4&#45;&gt;Node5</title>
<g id="a_edge4_Node000004_Node000005"><a xlink:title=" ">
<path fill="none" stroke="#63b8ff" d="M807.28,-81.65C843.58,-82.35 885.06,-83.14 918.49,-83.78"/>
<polygon fill="#63b8ff" stroke="#63b8ff" points="807.26,-78.15 797.19,-81.46 807.12,-85.15 807.26,-78.15"/>
</a>
</g>
</g>
<!-- Node6 -->
<g id="Node000006" class="node">
<title>Node6</title>
<g id="a_Node000006"><a xlink:href="classmlir_1_1OpInterface.html" target="_top" xlink:title=" ">
<polygon fill="white" stroke="#666666" points="1454.5,-174 1284.5,-174 1284.5,-122 1454.5,-122 1454.5,-174"/>
<text text-anchor="start" x="1292.5" y="-162" font-family="Helvetica,sans-Serif" font-size="10.00">mlir::OpInterface&lt;</text>
<text text-anchor="start" x="1292.5" y="-151" font-family="Helvetica,sans-Serif" font-size="10.00"> ArmSMETileOpInterface,</text>
<text text-anchor="start" x="1292.5" y="-140" font-family="Helvetica,sans-Serif" font-size="10.00"> detail::ArmSMETileOpInterface</text>
<text text-anchor="middle" x="1369.5" y="-129" font-family="Helvetica,sans-Serif" font-size="10.00">InterfaceTraits &gt;</text>
</a>
</g>
</g>
<!-- Node5&#45;&gt;Node6 -->
<g id="edge5_Node000005_Node000006" class="edge">
<title>Node5&#45;&gt;Node6</title>
<g id="a_edge5_Node000005_Node000006"><a xlink:title=" ">
<path fill="none" stroke="orange" stroke-dasharray="5,2" d="M1041.1,-102.79C1059.44,-108 1079.95,-113.28 1099,-117 1160.48,-129.01 1230.82,-136.91 1284.22,-141.73"/>
<polygon fill="orange" stroke="orange" points="1042.02,-99.41 1031.44,-100.01 1040.08,-106.14 1042.02,-99.41"/>
</a>
</g>
<text text-anchor="start" x="1102" y="-174.5" font-family="Helvetica,sans-Serif" font-size="10.00" fill="grey">&lt; ArmSMETileOpInterface,</text>
<text text-anchor="start" x="1102" y="-159.5" font-family="Helvetica,sans-Serif" font-size="10.00" fill="grey">   detail::ArmSMETileOpInterface</text>
<text text-anchor="start" x="1102" y="-144.5" font-family="Helvetica,sans-Serif" font-size="10.00" fill="grey">  InterfaceTraits &gt;</text>
</g>
<!-- Node8 -->
<g id="Node000008" class="node">
<title>Node8</title>
<g id="a_Node000008"><a xlink:href="classmlir_1_1OpInterface.html" target="_top" xlink:title=" ">
<polygon fill="white" stroke="#666666" points="1456,-92.5 1283,-92.5 1283,-51.5 1456,-51.5 1456,-92.5"/>
<text text-anchor="start" x="1291" y="-80.5" font-family="Helvetica,sans-Serif" font-size="10.00">mlir::OpInterface&lt;</text>
<text text-anchor="start" x="1291" y="-69.5" font-family="Helvetica,sans-Serif" font-size="10.00"> TosaOp, detail::TosaOpInterface</text>
<text text-anchor="middle" x="1369.5" y="-58.5" font-family="Helvetica,sans-Serif" font-size="10.00">Traits &gt;</text>
</a>
</g>
</g>
<!-- Node5&#45;&gt;Node8 -->
<g id="edge7_Node000005_Node000008" class="edge">
<title>Node5&#45;&gt;Node8</title>
<g id="a_edge7_Node000005_Node000008"><a xlink:title=" ">
<path fill="none" stroke="orange" stroke-dasharray="5,2" d="M1057.98,-82.5C1122.23,-80.33 1215.31,-77.18 1282.79,-74.9"/>
<polygon fill="orange" stroke="orange" points="1057.8,-79 1047.92,-82.84 1058.04,-86 1057.8,-79"/>
</a>
</g>
<text text-anchor="start" x="1121" y="-102" font-family="Helvetica,sans-Serif" font-size="10.00" fill="grey">&lt; TosaOp, detail::TosaOp</text>
<text text-anchor="start" x="1121" y="-87" font-family="Helvetica,sans-Serif" font-size="10.00" fill="grey">  InterfaceTraits &gt;</text>
</g>
<!-- Node7 -->
<g id="Node000007" class="node">
<title>Node7</title>
<g id="a_Node000007"><a xlink:href="classmlir_1_1arm__sme_1_1ArmSMETileOpInterface.html" target="_top" xlink:title=" ">
<polygon fill="white" stroke="#666666" points="1646,-163 1493,-163 1493,-133 1646,-133 1646,-163"/>
<text text-anchor="start" x="1501" y="-151" font-family="Helvetica,sans-Serif" font-size="10.00">mlir::arm_sme::ArmSMETile</text>
<text text-anchor="middle" x="1569.5" y="-140" font-family="Helvetica,sans-Serif" font-size="10.00">OpInterface</text>
</a>
</g>
</g>
<!-- Node6&#45;&gt;Node7 -->
<g id="edge6_Node000006_Node000007" class="edge">
<title>Node6&#45;&gt;Node7</title>
<g id="a_edge6_Node000006_Node000007"><a xlink:title=" ">
<path fill="none" stroke="#63b8ff" d="M1464.88,-148C1474.23,-148 1483.65,-148 1492.78,-148"/>
<polygon fill="#63b8ff" stroke="#63b8ff" points="1464.76,-144.5 1454.76,-148 1464.76,-151.5 1464.76,-144.5"/>
</a>
</g>
</g>
<!-- Node9 -->
<g id="Node000009" class="node">
<title>Node9</title>
<g id="a_Node000009"><a xlink:href="classmlir_1_1tosa_1_1TosaOp.html" target="_top" xlink:title=" ">
<polygon fill="white" stroke="#666666" points="1621.5,-81.5 1517.5,-81.5 1517.5,-62.5 1621.5,-62.5 1621.5,-81.5"/>
<text text-anchor="middle" x="1569.5" y="-69.5" font-family="Helvetica,sans-Serif" font-size="10.00">mlir::tosa::TosaOp</text>
</a>
</g>
</g>
<!-- Node8&#45;&gt;Node9 -->
<g id="edge8_Node000008_Node000009" class="edge">
<title>Node8&#45;&gt;Node9</title>
<g id="a_edge8_Node000008_Node000009"><a xlink:title=" ">
<path fill="none" stroke="#63b8ff" d="M1466.48,-72C1484,-72 1501.65,-72 1517.22,-72"/>
<polygon fill="#63b8ff" stroke="#63b8ff" points="1466.19,-68.5 1456.19,-72 1466.19,-75.5 1466.19,-68.5"/>
</a>
</g>
</g>
<!-- Node11 -->
<g id="Node000011" class="node">
<title>Node11</title>
<g id="a_Node000011"><a xlink:href="classmlir_1_1affine_1_1AffineDmaStartOp.html" target="_top" xlink:title="AffineDmaStartOp starts a non&#45;blocking DMA operation that transfers data from a source memref to a de...">
<polygon fill="white" stroke="#666666" points="1065,-252.5 901,-252.5 901,-233.5 1065,-233.5 1065,-252.5"/>
<text text-anchor="middle" x="983" y="-240.5" font-family="Helvetica,sans-Serif" font-size="10.00">mlir::affine::AffineDmaStartOp</text>
</a>
</g>
</g>
<!-- Node10&#45;&gt;Node11 -->
<g id="edge10_Node000010_Node000011" class="edge">
<title>Node10&#45;&gt;Node11</title>
<g id="a_edge10_Node000010_Node000011"><a xlink:title=" ">
<path fill="none" stroke="#63b8ff" d="M839.21,-243C860.02,-243 881.24,-243 900.74,-243"/>
<polygon fill="#63b8ff" stroke="#63b8ff" points="839.04,-239.5 829.04,-243 839.04,-246.5 839.04,-239.5"/>
</a>
</g>
</g>
<!-- Node13 -->
<g id="Node000013" class="node">
<title>Node13</title>
<g id="a_Node000013"><a xlink:href="classmlir_1_1affine_1_1AffineDmaWaitOp.html" target="_top" xlink:title="AffineDmaWaitOp blocks until the completion of a DMA operation associated with the tag element &#39;tag[i...">
<polygon fill="white" stroke="#666666" points="1064.5,-165.5 901.5,-165.5 901.5,-146.5 1064.5,-146.5 1064.5,-165.5"/>
<text text-anchor="middle" x="983" y="-153.5" font-family="Helvetica,sans-Serif" font-size="10.00">mlir::affine::AffineDmaWaitOp</text>
</a>
</g>
</g>
<!-- Node12&#45;&gt;Node13 -->
<g id="edge12_Node000012_Node000013" class="edge">
<title>Node12&#45;&gt;Node13</title>
<g id="a_edge12_Node000012_Node000013"><a xlink:title=" ">
<path fill="none" stroke="#63b8ff" d="M858.27,-156C873,-156 887.62,-156 901.37,-156"/>
<polygon fill="#63b8ff" stroke="#63b8ff" points="858.06,-152.5 848.06,-156 858.06,-159.5 858.06,-152.5"/>
</a>
</g>
</g>
<!-- Node15 -->
<g id="Node000015" class="node">
<title>Node15</title>
<g id="a_Node000015"><a xlink:href="classmlir_1_1detail_1_1Interface.html" target="_top" xlink:title=" ">
<polygon fill="white" stroke="#666666" points="1081,-355 885,-355 885,-281 1081,-281 1081,-355"/>
<text text-anchor="start" x="893" y="-343" font-family="Helvetica,sans-Serif" font-size="10.00">mlir::detail::Interface</text>
<text text-anchor="start" x="893" y="-332" font-family="Helvetica,sans-Serif" font-size="10.00">&lt; ArmSMETileOpInterface,</text>
<text text-anchor="start" x="893" y="-321" font-family="Helvetica,sans-Serif" font-size="10.00"> Operation *, detail::ArmSMETile</text>
<text text-anchor="start" x="893" y="-310" font-family="Helvetica,sans-Serif" font-size="10.00">OpInterfaceInterfaceTraits, Op</text>
<text text-anchor="start" x="893" y="-299" font-family="Helvetica,sans-Serif" font-size="10.00">&lt; ArmSMETileOpInterface &gt;, OpTrait</text>
<text text-anchor="middle" x="983" y="-288" font-family="Helvetica,sans-Serif" font-size="10.00">::TraitBase &gt;</text>
</a>
</g>
</g>
<!-- Node14&#45;&gt;Node15 -->
<g id="edge14_Node000014_Node000015" class="edge">
<title>Node14&#45;&gt;Node15</title>
<g id="a_edge14_Node000014_Node000015"><a xlink:title=" ">
<path fill="none" stroke="#63b8ff" d="M827.26,-322.74C846.3,-322.16 866.05,-321.55 884.82,-320.98"/>
<polygon fill="#63b8ff" stroke="#63b8ff" points="826.96,-319.25 817.07,-323.06 827.18,-326.25 826.96,-319.25"/>
</a>
</g>
</g>
<!-- Node15&#45;&gt;Node6 -->
<g id="edge15_Node000015_Node000006" class="edge">
<title>Node15&#45;&gt;Node6</title>
<g id="a_edge15_Node000015_Node000006"><a xlink:title=" ">
<path fill="none" stroke="#63b8ff" d="M1077.48,-276.67C1149.8,-244.69 1247.71,-201.41 1309.49,-174.09"/>
<polygon fill="#63b8ff" stroke="#63b8ff" points="1075.64,-273.66 1067.91,-280.9 1078.47,-280.06 1075.64,-273.66"/>
</a>
</g>
</g>
<!-- Node17 -->
<g id="Node000017" class="node">
<title>Node17</title>
<g id="a_Node000017"><a xlink:href="classmlir_1_1detail_1_1Interface.html" target="_top" xlink:title=" ">
<polygon fill="white" stroke="#666666" points="1080,-52 886,-52 886,0 1080,0 1080,-52"/>
<text text-anchor="start" x="894" y="-40" font-family="Helvetica,sans-Serif" font-size="10.00">mlir::detail::Interface</text>
<text text-anchor="start" x="894" y="-29" font-family="Helvetica,sans-Serif" font-size="10.00">&lt; TosaOp, Operation *,</text>
<text text-anchor="start" x="894" y="-18" font-family="Helvetica,sans-Serif" font-size="10.00"> detail::TosaOpInterfaceTraits,</text>
<text text-anchor="middle" x="983" y="-7" font-family="Helvetica,sans-Serif" font-size="10.00"> Op&lt; TosaOp &gt;, OpTrait::TraitBase &gt;</text>
</a>
</g>
</g>
<!-- Node16&#45;&gt;Node17 -->
<g id="edge17_Node000016_Node000017" class="edge">
<title>Node16&#45;&gt;Node17</title>
<g id="a_edge17_Node000016_Node000017"><a xlink:title=" ">
<path fill="none" stroke="#63b8ff" d="M787,-26C816.94,-26 852.94,-26 885.82,-26"/>
<polygon fill="#63b8ff" stroke="#63b8ff" points="786.67,-22.5 776.67,-26 786.67,-29.5 786.67,-22.5"/>
</a>
</g>
</g>
<!-- Node17&#45;&gt;Node8 -->
<g id="edge18_Node000017_Node000008" class="edge">
<title>Node17&#45;&gt;Node8</title>
<g id="a_edge18_Node000017_Node000008"><a xlink:title=" ">
<path fill="none" stroke="#63b8ff" d="M1090.03,-38.69C1150.74,-45.95 1225.92,-54.94 1282.85,-61.75"/>
<polygon fill="#63b8ff" stroke="#63b8ff" points="1090.38,-35.2 1080.03,-37.49 1089.55,-42.15 1090.38,-35.2"/>
</a>
</g>
</g>
</g>
</svg>
