<?xml version="1.0" encoding="UTF-8" standalone="no"?>
<!DOCTYPE svg PUBLIC "-//W3C//DTD SVG 1.1//EN"
 "http://www.w3.org/Graphics/SVG/1.1/DTD/svg11.dtd">
<!-- Generated by graphviz version 2.43.0 (0)
 -->
<!-- Title: mlir::python::MLIR_BINDINGS_PYTHON_DOMAIN::PyBF16Type Pages: 1 -->
<svg width="1642pt" height="93pt"
 viewBox="0.00 0.00 1642.00 92.50" xmlns="http://www.w3.org/2000/svg" xmlns:xlink="http://www.w3.org/1999/xlink">
<g id="graph0" class="graph" transform="scale(1 1) rotate(0) translate(4 88.5)">
<title>mlir::python::MLIR_BINDINGS_PYTHON_DOMAIN::PyBF16Type</title>
<!-- Node1 -->
<g id="Node000001" class="node">
<title>Node1</title>
<g id="a_Node000001"><a xlink:title="Floating Point Type subclass &#45; BF16Type.">
<polygon fill="#999999" stroke="#666666" points="1634,-47.5 1471,-47.5 1471,-6.5 1634,-6.5 1634,-47.5"/>
<text text-anchor="start" x="1479" y="-35.5" font-family="Helvetica,sans-Serif" font-size="10.00">mlir::python::MLIR</text>
<text text-anchor="start" x="1479" y="-24.5" font-family="Helvetica,sans-Serif" font-size="10.00">_BINDINGS_PYTHON_DOMAIN</text>
<text text-anchor="middle" x="1552.5" y="-13.5" font-family="Helvetica,sans-Serif" font-size="10.00">::PyBF16Type</text>
</a>
</g>
</g>
<!-- Node2 -->
<g id="Node000002" class="node">
<title>Node2</title>
<g id="a_Node000002"><a xlink:href="classmlir_1_1python_1_1MLIR__BINDINGS__PYTHON__DOMAIN_1_1PyConcreteType.html" target="_top" xlink:title=" ">
<polygon fill="white" stroke="#666666" points="1434,-53 1260,-53 1260,-1 1434,-1 1434,-53"/>
<text text-anchor="start" x="1268" y="-41" font-family="Helvetica,sans-Serif" font-size="10.00">mlir::python::MLIR</text>
<text text-anchor="start" x="1268" y="-30" font-family="Helvetica,sans-Serif" font-size="10.00">_BINDINGS_PYTHON_DOMAIN</text>
<text text-anchor="start" x="1268" y="-19" font-family="Helvetica,sans-Serif" font-size="10.00">::PyConcreteType&lt; PyBF16Type,</text>
<text text-anchor="middle" x="1347" y="-8" font-family="Helvetica,sans-Serif" font-size="10.00"> PyFloatType &gt;</text>
</a>
</g>
</g>
<!-- Node2&#45;&gt;Node1 -->
<g id="edge1_Node000001_Node000002" class="edge">
<title>Node2&#45;&gt;Node1</title>
<g id="a_edge1_Node000001_Node000002"><a xlink:title=" ">
<path fill="none" stroke="#63b8ff" d="M1444.12,-27C1453.11,-27 1462.16,-27 1470.98,-27"/>
<polygon fill="#63b8ff" stroke="#63b8ff" points="1444.01,-23.5 1434.01,-27 1444.01,-30.5 1444.01,-23.5"/>
</a>
</g>
</g>
<!-- Node3 -->
<g id="Node000003" class="node">
<title>Node3</title>
<g id="a_Node000003"><a xlink:href="classmlir_1_1python_1_1MLIR__BINDINGS__PYTHON__DOMAIN_1_1PyFloatType.html" target="_top" xlink:title=" ">
<polygon fill="white" stroke="#666666" points="1223,-84.5 1060,-84.5 1060,-43.5 1223,-43.5 1223,-84.5"/>
<text text-anchor="start" x="1068" y="-72.5" font-family="Helvetica,sans-Serif" font-size="10.00">mlir::python::MLIR</text>
<text text-anchor="start" x="1068" y="-61.5" font-family="Helvetica,sans-Serif" font-size="10.00">_BINDINGS_PYTHON_DOMAIN</text>
<text text-anchor="middle" x="1141.5" y="-50.5" font-family="Helvetica,sans-Serif" font-size="10.00">::PyFloatType</text>
</a>
</g>
</g>
<!-- Node3&#45;&gt;Node2 -->
<g id="edge2_Node000002_Node000003" class="edge">
<title>Node3&#45;&gt;Node2</title>
<g id="a_edge2_Node000002_Node000003"><a xlink:title=" ">
<path fill="none" stroke="#63b8ff" d="M1233.13,-47.52C1241.96,-45.92 1250.9,-44.29 1259.69,-42.69"/>
<polygon fill="#63b8ff" stroke="#63b8ff" points="1232.43,-44.09 1223.22,-49.32 1233.69,-50.98 1232.43,-44.09"/>
</a>
</g>
</g>
<!-- Node4 -->
<g id="Node000004" class="node">
<title>Node4</title>
<g id="a_Node000004"><a xlink:href="classmlir_1_1python_1_1MLIR__BINDINGS__PYTHON__DOMAIN_1_1PyConcreteType.html" target="_top" xlink:title=" ">
<polygon fill="white" stroke="#666666" points="870,-84.5 688,-84.5 688,-43.5 870,-43.5 870,-84.5"/>
<text text-anchor="start" x="696" y="-72.5" font-family="Helvetica,sans-Serif" font-size="10.00">mlir::python::MLIR</text>
<text text-anchor="start" x="696" y="-61.5" font-family="Helvetica,sans-Serif" font-size="10.00">_BINDINGS_PYTHON_DOMAIN</text>
<text text-anchor="middle" x="779" y="-50.5" font-family="Helvetica,sans-Serif" font-size="10.00">::PyConcreteType&lt; PyFloatType &gt;</text>
</a>
</g>
</g>
<!-- Node4&#45;&gt;Node3 -->
<g id="edge3_Node000003_Node000004" class="edge">
<title>Node4&#45;&gt;Node3</title>
<g id="a_edge3_Node000003_Node000004"><a xlink:title=" ">
<path fill="none" stroke="#63b8ff" d="M880.1,-64C936.79,-64 1006.77,-64 1059.9,-64"/>
<polygon fill="#63b8ff" stroke="#63b8ff" points="880.04,-60.5 870.04,-64 880.04,-67.5 880.04,-60.5"/>
</a>
</g>
</g>
<!-- Node5 -->
<g id="Node000005" class="node">
<title>Node5</title>
<g id="a_Node000005"><a xlink:href="classmlir_1_1python_1_1MLIR__BINDINGS__PYTHON__DOMAIN_1_1PyType.html" target="_top" xlink:title="Wrapper around the generic MlirType.">
<polygon fill="white" stroke="#666666" points="363,-73.5 200,-73.5 200,-32.5 363,-32.5 363,-73.5"/>
<text text-anchor="start" x="208" y="-61.5" font-family="Helvetica,sans-Serif" font-size="10.00">mlir::python::MLIR</text>
<text text-anchor="start" x="208" y="-50.5" font-family="Helvetica,sans-Serif" font-size="10.00">_BINDINGS_PYTHON_DOMAIN</text>
<text text-anchor="middle" x="281.5" y="-39.5" font-family="Helvetica,sans-Serif" font-size="10.00">::PyType</text>
</a>
</g>
</g>
<!-- Node5&#45;&gt;Node4 -->
<g id="edge4_Node000004_Node000005" class="edge">
<title>Node5&#45;&gt;Node4</title>
<g id="a_edge4_Node000004_Node000005"><a xlink:title=" ">
<path fill="none" stroke="#63b8ff" d="M373.25,-59.55C382.28,-60.09 391.32,-60.59 400,-61 519.88,-66.73 549.98,-67.11 670,-66 675.81,-65.95 681.8,-65.88 687.84,-65.79"/>
<polygon fill="#63b8ff" stroke="#63b8ff" points="373.26,-56.04 363.06,-58.92 372.83,-63.03 373.26,-56.04"/>
</a>
</g>
</g>
<!-- Node7 -->
<g id="Node000007" class="node">
<title>Node7</title>
<g id="a_Node000007"><a xlink:href="classmlir_1_1python_1_1MLIR__BINDINGS__PYTHON__DOMAIN_1_1PyConcreteType.html" target="_top" xlink:title="CRTP base classes for Python types that subclass Type and should be castable from it (i....">
<polygon fill="white" stroke="#666666" points="564,-52 400,-52 400,0 564,0 564,-52"/>
<text text-anchor="start" x="408" y="-40" font-family="Helvetica,sans-Serif" font-size="10.00">mlir::python::MLIR</text>
<text text-anchor="start" x="408" y="-29" font-family="Helvetica,sans-Serif" font-size="10.00">_BINDINGS_PYTHON_DOMAIN</text>
<text text-anchor="start" x="408" y="-18" font-family="Helvetica,sans-Serif" font-size="10.00">::PyConcreteType&lt; DerivedTy,</text>
<text text-anchor="middle" x="482" y="-7" font-family="Helvetica,sans-Serif" font-size="10.00"> BaseTy &gt;</text>
</a>
</g>
</g>
<!-- Node5&#45;&gt;Node7 -->
<g id="edge7_Node000007_Node000005" class="edge">
<title>Node5&#45;&gt;Node7</title>
<g id="a_edge7_Node000007_Node000005"><a xlink:title=" ">
<path fill="none" stroke="#63b8ff" d="M373.17,-40.67C382.01,-39.46 390.95,-38.25 399.69,-37.06"/>
<polygon fill="#63b8ff" stroke="#63b8ff" points="372.67,-37.2 363.24,-42.02 373.62,-44.14 372.67,-37.2"/>
</a>
</g>
</g>
<!-- Node6 -->
<g id="Node000006" class="node">
<title>Node6</title>
<g id="a_Node000006"><a xlink:href="classmlir_1_1python_1_1MLIR__BINDINGS__PYTHON__DOMAIN_1_1BaseContextObject.html" target="_top" xlink:title="Base class for all objects that directly or indirectly depend on an MlirContext.">
<polygon fill="white" stroke="#666666" points="163,-73.5 0,-73.5 0,-32.5 163,-32.5 163,-73.5"/>
<text text-anchor="start" x="8" y="-61.5" font-family="Helvetica,sans-Serif" font-size="10.00">mlir::python::MLIR</text>
<text text-anchor="start" x="8" y="-50.5" font-family="Helvetica,sans-Serif" font-size="10.00">_BINDINGS_PYTHON_DOMAIN</text>
<text text-anchor="middle" x="81.5" y="-39.5" font-family="Helvetica,sans-Serif" font-size="10.00">::BaseContextObject</text>
</a>
</g>
</g>
<!-- Node6&#45;&gt;Node5 -->
<g id="edge5_Node000005_Node000006" class="edge">
<title>Node6&#45;&gt;Node5</title>
<g id="a_edge5_Node000005_Node000006"><a xlink:title=" ">
<path fill="none" stroke="#63b8ff" d="M173.32,-53C182.12,-53 191.02,-53 199.72,-53"/>
<polygon fill="#63b8ff" stroke="#63b8ff" points="173.03,-49.5 163.03,-53 173.03,-56.5 173.03,-49.5"/>
</a>
</g>
</g>
<!-- Node7&#45;&gt;Node2 -->
<g id="edge8_Node000002_Node000007" class="edge">
<title>Node7&#45;&gt;Node2</title>
<g id="a_edge8_Node000002_Node000007"><a xlink:title=" ">
<path fill="none" stroke="orange" stroke-dasharray="5,2" d="M574.22,-26.11C741.77,-26.3 1096.31,-26.71 1259.93,-26.9"/>
<polygon fill="orange" stroke="orange" points="574.19,-22.61 564.19,-26.09 574.18,-29.61 574.19,-22.61"/>
</a>
</g>
<text text-anchor="start" x="891" y="-32.5" font-family="Helvetica,sans-Serif" font-size="10.00" fill="grey">&lt; PyBF16Type, PyFloatType &gt;</text>
</g>
<!-- Node7&#45;&gt;Node4 -->
<g id="edge6_Node000004_Node000007" class="edge">
<title>Node7&#45;&gt;Node4</title>
<g id="a_edge6_Node000004_Node000007"><a xlink:title=" ">
<path fill="none" stroke="orange" stroke-dasharray="5,2" d="M574.22,-36.93C604.69,-40.66 638.82,-44.92 670,-49 675.82,-49.76 681.81,-50.56 687.85,-51.37"/>
<polygon fill="orange" stroke="orange" points="574.39,-33.42 564.03,-35.69 573.54,-40.37 574.39,-33.42"/>
</a>
</g>
<text text-anchor="start" x="585" y="-54.5" font-family="Helvetica,sans-Serif" font-size="10.00" fill="grey">&lt; PyFloatType &gt;</text>
</g>
</g>
</svg>
