<?xml version="1.0" encoding="UTF-8" standalone="no"?>
<!DOCTYPE svg PUBLIC "-//W3C//DTD SVG 1.1//EN"
 "http://www.w3.org/Graphics/SVG/1.1/DTD/svg11.dtd">
<!-- Generated by graphviz version 2.43.0 (0)
 -->
<!-- Title: mlir::python::DefaultingPyMlirContext Pages: 1 -->
<svg width="225pt" height="214pt"
 viewBox="0.00 0.00 224.50 214.00" xmlns="http://www.w3.org/2000/svg" xmlns:xlink="http://www.w3.org/1999/xlink">
<g id="graph0" class="graph" transform="scale(1 1) rotate(0) translate(4 210)">
<title>mlir::python::DefaultingPyMlirContext</title>
<!-- Node1 -->
<g id="Node000001" class="node">
<title>Node1</title>
<g id="a_Node000001"><a xlink:title="Used in function arguments when None should resolve to the current context manager set instance.">
<polygon fill="#999999" stroke="#666666" points="142,-30 9,-30 9,0 142,0 142,-30"/>
<text text-anchor="start" x="17" y="-18" font-family="Helvetica,sans-Serif" font-size="10.00">mlir::python::Defaulting</text>
<text text-anchor="middle" x="75.5" y="-7" font-family="Helvetica,sans-Serif" font-size="10.00">PyMlirContext</text>
</a>
</g>
</g>
<!-- Node2 -->
<g id="Node000002" class="node">
<title>Node2</title>
<g id="a_Node000002"><a xlink:href="classmlir_1_1python_1_1Defaulting.html" target="_top" xlink:title=" ">
<polygon fill="white" stroke="#666666" points="151,-108 0,-108 0,-67 151,-67 151,-108"/>
<text text-anchor="start" x="8" y="-96" font-family="Helvetica,sans-Serif" font-size="10.00">mlir::python::Defaulting</text>
<text text-anchor="start" x="8" y="-85" font-family="Helvetica,sans-Serif" font-size="10.00">&lt; DefaultingPyMlirContext,</text>
<text text-anchor="middle" x="75.5" y="-74" font-family="Helvetica,sans-Serif" font-size="10.00"> PyMlirContext &gt;</text>
</a>
</g>
</g>
<!-- Node2&#45;&gt;Node1 -->
<g id="edge1_Node000001_Node000002" class="edge">
<title>Node2&#45;&gt;Node1</title>
<g id="a_edge1_Node000001_Node000002"><a xlink:title=" ">
<path fill="none" stroke="#63b8ff" d="M75.5,-56.58C75.5,-47.51 75.5,-37.95 75.5,-30.39"/>
<polygon fill="#63b8ff" stroke="#63b8ff" points="72,-56.86 75.5,-66.86 79,-56.86 72,-56.86"/>
</a>
</g>
</g>
<!-- Node3 -->
<g id="Node000003" class="node">
<title>Node3</title>
<g id="a_Node000003"><a xlink:href="classmlir_1_1python_1_1Defaulting.html" target="_top" xlink:title="CRTP template for special wrapper types that are allowed to be passed in as &#39;None&#39; function arguments...">
<polygon fill="white" stroke="#666666" points="142,-206 9,-206 9,-176 142,-176 142,-206"/>
<text text-anchor="start" x="17" y="-194" font-family="Helvetica,sans-Serif" font-size="10.00">mlir::python::Defaulting</text>
<text text-anchor="middle" x="75.5" y="-183" font-family="Helvetica,sans-Serif" font-size="10.00">&lt; DerivedTy, T &gt;</text>
</a>
</g>
</g>
<!-- Node3&#45;&gt;Node2 -->
<g id="edge2_Node000002_Node000003" class="edge">
<title>Node3&#45;&gt;Node2</title>
<g id="a_edge2_Node000002_Node000003"><a xlink:title=" ">
<path fill="none" stroke="orange" stroke-dasharray="5,2" d="M75.5,-165.78C75.5,-148.13 75.5,-124.52 75.5,-108.06"/>
<polygon fill="orange" stroke="orange" points="72,-165.89 75.5,-175.89 79,-165.89 72,-165.89"/>
</a>
</g>
<text text-anchor="start" x="79" y="-147" font-family="Helvetica,sans-Serif" font-size="10.00" fill="grey">&lt; DefaultingPyMlirContext,</text>
<text text-anchor="start" x="79" y="-132" font-family="Helvetica,sans-Serif" font-size="10.00" fill="grey">   PyMlirContext &gt;</text>
</g>
</g>
</svg>
