<?xml version="1.0" encoding="UTF-8" standalone="no"?>
<!DOCTYPE svg PUBLIC "-//W3C//DTD SVG 1.1//EN"
 "http://www.w3.org/Graphics/SVG/1.1/DTD/svg11.dtd">
<!-- Generated by graphviz version 2.43.0 (0)
 -->
<!-- Title: mlir::OwningOpRef&lt; OpTy &gt; Pages: 1 -->
<svg width="298pt" height="121pt"
 viewBox="0.00 0.00 297.50 121.00" xmlns="http://www.w3.org/2000/svg" xmlns:xlink="http://www.w3.org/1999/xlink">
<g id="graph0" class="graph" transform="scale(1 1) rotate(0) translate(4 117)">
<title>mlir::OwningOpRef&lt; OpTy &gt;</title>
<!-- Node1 -->
<g id="Node000001" class="node">
<title>Node1</title>
<g id="a_Node000001"><a xlink:title="This class acts as an owning reference to an op, and will automatically destroy the held op on destru...">
<polygon fill="#999999" stroke="#666666" points="184,-113 67,-113 67,-83 184,-83 184,-113"/>
<text text-anchor="start" x="75" y="-101" font-family="Helvetica,sans-Serif" font-size="10.00">mlir::OwningOpRef&lt;</text>
<text text-anchor="middle" x="125.5" y="-90" font-family="Helvetica,sans-Serif" font-size="10.00"> OpTy &gt;</text>
</a>
</g>
</g>
<!-- Node2 -->
<g id="Node000002" class="node">
<title>Node2</title>
<g id="a_Node000002"><a xlink:href="classmlir_1_1OwningOpRef.html" target="_top" xlink:title=" ">
<polygon fill="white" stroke="#666666" points="117,-30 0,-30 0,0 117,0 117,-30"/>
<text text-anchor="start" x="8" y="-18" font-family="Helvetica,sans-Serif" font-size="10.00">mlir::OwningOpRef&lt;</text>
<text text-anchor="middle" x="58.5" y="-7" font-family="Helvetica,sans-Serif" font-size="10.00"> ModuleOp &gt;</text>
</a>
</g>
</g>
<!-- Node1&#45;&gt;Node2 -->
<g id="edge1_Node000001_Node000002" class="edge">
<title>Node1&#45;&gt;Node2</title>
<g id="a_edge1_Node000001_Node000002"><a xlink:title=" ">
<path fill="none" stroke="orange" stroke-dasharray="5,2" d="M102.36,-75.69C98.94,-72.22 95.54,-68.59 92.5,-65 83.12,-53.95 73.83,-40.33 67.34,-30.26"/>
<polygon fill="orange" stroke="orange" points="100.16,-78.44 109.76,-82.93 105.06,-73.43 100.16,-78.44"/>
</a>
</g>
<text text-anchor="start" x="96" y="-53.5" font-family="Helvetica,sans-Serif" font-size="10.00" fill="grey">&lt; ModuleOp &gt;</text>
</g>
<!-- Node3 -->
<g id="Node000003" class="node">
<title>Node3</title>
<g id="a_Node000003"><a xlink:href="classmlir_1_1OwningOpRef.html" target="_top" xlink:title=" ">
<polygon fill="white" stroke="#666666" points="252,-30 135,-30 135,0 252,0 252,-30"/>
<text text-anchor="start" x="143" y="-18" font-family="Helvetica,sans-Serif" font-size="10.00">mlir::OwningOpRef&lt;</text>
<text text-anchor="middle" x="193.5" y="-7" font-family="Helvetica,sans-Serif" font-size="10.00"> spirv::ModuleOp &gt;</text>
</a>
</g>
</g>
<!-- Node1&#45;&gt;Node3 -->
<g id="edge2_Node000001_Node000003" class="edge">
<title>Node1&#45;&gt;Node3</title>
<g id="a_edge2_Node000001_Node000003"><a xlink:title=" ">
<path fill="none" stroke="orange" stroke-dasharray="5,2" d="M159.14,-76.88C163.64,-73.29 167.93,-69.31 171.5,-65 179.95,-54.81 185.8,-40.85 189.33,-30.43"/>
<polygon fill="orange" stroke="orange" points="156.91,-74.18 150.91,-82.91 161.05,-79.82 156.91,-74.18"/>
</a>
</g>
<text text-anchor="start" x="184.5" y="-53.5" font-family="Helvetica,sans-Serif" font-size="10.00" fill="grey">&lt; spirv::ModuleOp &gt;</text>
</g>
</g>
</svg>
