<?xml version="1.0" encoding="UTF-8" standalone="no"?>
<!DOCTYPE svg PUBLIC "-//W3C//DTD SVG 1.1//EN"
 "http://www.w3.org/Graphics/SVG/1.1/DTD/svg11.dtd">
<!-- Generated by graphviz version 2.43.0 (0)
 -->
<!-- Title: mlir::pdll::ast::OperationExpr Pages: 1 -->
<svg width="955pt" height="117pt"
 viewBox="0.00 0.00 955.00 117.00" xmlns="http://www.w3.org/2000/svg" xmlns:xlink="http://www.w3.org/1999/xlink">
<g id="graph0" class="graph" transform="scale(1 1) rotate(0) translate(4 113)">
<title>mlir::pdll::ast::OperationExpr</title>
<!-- Node1 -->
<g id="Node000001" class="node">
<title>Node1</title>
<g id="a_Node000001"><a xlink:title="This expression represents the structural form of an MLIR Operation.">
<polygon fill="#999999" stroke="#666666" points="947,-42 790,-42 790,-23 947,-23 947,-42"/>
<text text-anchor="middle" x="868.5" y="-30" font-family="Helvetica,sans-Serif" font-size="10.00">mlir::pdll::ast::OperationExpr</text>
</a>
</g>
</g>
<!-- Node2 -->
<g id="Node000002" class="node">
<title>Node2</title>
<g id="a_Node000002"><a xlink:href="classmlir_1_1pdll_1_1ast_1_1Node_1_1NodeBase.html" target="_top" xlink:title=" ">
<polygon fill="white" stroke="#666666" points="753,-100 597,-100 597,-59 753,-59 753,-100"/>
<text text-anchor="start" x="605" y="-88" font-family="Helvetica,sans-Serif" font-size="10.00">mlir::pdll::ast::Node</text>
<text text-anchor="start" x="605" y="-77" font-family="Helvetica,sans-Serif" font-size="10.00">::NodeBase&lt; OperationExpr,</text>
<text text-anchor="middle" x="675" y="-66" font-family="Helvetica,sans-Serif" font-size="10.00"> Expr &gt;</text>
</a>
</g>
</g>
<!-- Node2&#45;&gt;Node1 -->
<g id="edge1_Node000001_Node000002" class="edge">
<title>Node2&#45;&gt;Node1</title>
<g id="a_edge1_Node000001_Node000002"><a xlink:title=" ">
<path fill="none" stroke="#63b8ff" d="M762.88,-58.18C785.92,-52.52 809.66,-46.7 828.68,-42.03"/>
<polygon fill="#63b8ff" stroke="#63b8ff" points="761.94,-54.8 753.06,-60.59 763.61,-61.6 761.94,-54.8"/>
</a>
</g>
</g>
<!-- Node3 -->
<g id="Node000003" class="node">
<title>Node3</title>
<g id="a_Node000003"><a xlink:href="classmlir_1_1pdll_1_1ast_1_1Expr.html" target="_top" xlink:title="This class represents a base AST Expression node.">
<polygon fill="white" stroke="#666666" points="420,-109 311,-109 311,-90 420,-90 420,-109"/>
<text text-anchor="middle" x="365.5" y="-97" font-family="Helvetica,sans-Serif" font-size="10.00">mlir::pdll::ast::Expr</text>
</a>
</g>
</g>
<!-- Node3&#45;&gt;Node2 -->
<g id="edge2_Node000002_Node000003" class="edge">
<title>Node3&#45;&gt;Node2</title>
<g id="a_edge2_Node000002_Node000003"><a xlink:title=" ">
<path fill="none" stroke="#63b8ff" d="M430.1,-95.36C478.52,-92.21 545.38,-87.87 596.85,-84.52"/>
<polygon fill="#63b8ff" stroke="#63b8ff" points="429.81,-91.87 420.06,-96.02 430.27,-98.86 429.81,-91.87"/>
</a>
</g>
</g>
<!-- Node4 -->
<g id="Node000004" class="node">
<title>Node4</title>
<g id="a_Node000004"><a xlink:href="classmlir_1_1pdll_1_1ast_1_1Stmt.html" target="_top" xlink:title="This class represents a base AST Statement node.">
<polygon fill="white" stroke="#666666" points="260,-109 150,-109 150,-90 260,-90 260,-109"/>
<text text-anchor="middle" x="205" y="-97" font-family="Helvetica,sans-Serif" font-size="10.00">mlir::pdll::ast::Stmt</text>
</a>
</g>
</g>
<!-- Node4&#45;&gt;Node3 -->
<g id="edge3_Node000003_Node000004" class="edge">
<title>Node4&#45;&gt;Node3</title>
<g id="a_edge3_Node000003_Node000004"><a xlink:title=" ">
<path fill="none" stroke="#63b8ff" d="M270.28,-99.5C283.77,-99.5 297.86,-99.5 310.91,-99.5"/>
<polygon fill="#63b8ff" stroke="#63b8ff" points="270.1,-96 260.1,-99.5 270.1,-103 270.1,-96"/>
</a>
</g>
</g>
<!-- Node5 -->
<g id="Node000005" class="node">
<title>Node5</title>
<g id="a_Node000005"><a xlink:href="classmlir_1_1pdll_1_1ast_1_1Node.html" target="_top" xlink:title="This class represents a base AST node.">
<polygon fill="white" stroke="#666666" points="113,-109 0,-109 0,-90 113,-90 113,-109"/>
<text text-anchor="middle" x="56.5" y="-97" font-family="Helvetica,sans-Serif" font-size="10.00">mlir::pdll::ast::Node</text>
</a>
</g>
</g>
<!-- Node5&#45;&gt;Node4 -->
<g id="edge4_Node000004_Node000005" class="edge">
<title>Node5&#45;&gt;Node4</title>
<g id="a_edge4_Node000004_Node000005"><a xlink:title=" ">
<path fill="none" stroke="#63b8ff" d="M123.53,-99.5C132.32,-99.5 141.25,-99.5 149.8,-99.5"/>
<polygon fill="#63b8ff" stroke="#63b8ff" points="123.3,-96 113.3,-99.5 123.3,-103 123.3,-96"/>
</a>
</g>
</g>
<!-- Node6 -->
<g id="Node000006" class="node">
<title>Node6</title>
<g id="a_Node000006"><a xlink:href="classmlir_1_1pdll_1_1ast_1_1Node_1_1NodeBase.html" target="_top" xlink:title="This CRTP class provides several utilies when defining new AST nodes.">
<polygon fill="white" stroke="#666666" points="434,-71.5 297,-71.5 297,-41.5 434,-41.5 434,-71.5"/>
<text text-anchor="start" x="305" y="-59.5" font-family="Helvetica,sans-Serif" font-size="10.00">mlir::pdll::ast::Node</text>
<text text-anchor="middle" x="365.5" y="-48.5" font-family="Helvetica,sans-Serif" font-size="10.00">::NodeBase&lt; T, BaseT &gt;</text>
</a>
</g>
</g>
<!-- Node6&#45;&gt;Node2 -->
<g id="edge5_Node000002_Node000006" class="edge">
<title>Node6&#45;&gt;Node2</title>
<g id="a_edge5_Node000002_Node000006"><a xlink:title=" ">
<path fill="none" stroke="orange" stroke-dasharray="5,2" d="M444.14,-57.21C484.45,-58.14 534.46,-60.16 579,-64.5 584.82,-65.07 590.82,-65.76 596.85,-66.53"/>
<polygon fill="orange" stroke="orange" points="444.18,-53.71 434.11,-57 444.03,-60.71 444.18,-53.71"/>
</a>
</g>
<text text-anchor="start" x="455.5" y="-70" font-family="Helvetica,sans-Serif" font-size="10.00" fill="grey">&lt; OperationExpr, Expr &gt;</text>
</g>
<!-- Node7 -->
<g id="Node000007" class="node">
<title>Node7</title>
<g id="a_Node000007"><a xlink:title=" ">
<polygon fill="white" stroke="#666666" points="228.5,-66 181.5,-66 181.5,-47 228.5,-47 228.5,-66"/>
<text text-anchor="middle" x="205" y="-54" font-family="Helvetica,sans-Serif" font-size="10.00">BaseT</text>
</a>
</g>
</g>
<!-- Node7&#45;&gt;Node6 -->
<g id="edge6_Node000006_Node000007" class="edge">
<title>Node7&#45;&gt;Node6</title>
<g id="a_edge6_Node000006_Node000007"><a xlink:title=" ">
<path fill="none" stroke="#63b8ff" d="M239.07,-56.5C255.86,-56.5 276.9,-56.5 296.91,-56.5"/>
<polygon fill="#63b8ff" stroke="#63b8ff" points="238.71,-53 228.71,-56.5 238.71,-60 238.71,-53"/>
</a>
</g>
</g>
<!-- Node8 -->
<g id="Node000008" class="node">
<title>Node8</title>
<g id="a_Node000008"><a xlink:title=" ">
<polygon fill="white" stroke="#666666" points="750,-41 600,-41 600,0 750,0 750,-41"/>
<text text-anchor="start" x="608" y="-29" font-family="Helvetica,sans-Serif" font-size="10.00">llvm::TrailingObjects</text>
<text text-anchor="start" x="608" y="-18" font-family="Helvetica,sans-Serif" font-size="10.00">&lt; OperationExpr, Expr</text>
<text text-anchor="middle" x="675" y="-7" font-family="Helvetica,sans-Serif" font-size="10.00"> *, NamedAttributeDecl * &gt;</text>
</a>
</g>
</g>
<!-- Node8&#45;&gt;Node1 -->
<g id="edge7_Node000001_Node000008" class="edge">
<title>Node8&#45;&gt;Node1</title>
<g id="a_edge7_Node000001_Node000008"><a xlink:title=" ">
<path fill="none" stroke="#8b1a1a" d="M760.23,-25.78C770.08,-26.4 780.1,-27.02 789.86,-27.63"/>
<polygon fill="#8b1a1a" stroke="#8b1a1a" points="760.24,-22.27 750.04,-25.14 759.8,-29.26 760.24,-22.27"/>
</a>
</g>
</g>
</g>
</svg>
