<?xml version="1.0" encoding="UTF-8" standalone="no"?>
<!DOCTYPE svg PUBLIC "-//W3C//DTD SVG 1.1//EN"
 "http://www.w3.org/Graphics/SVG/1.1/DTD/svg11.dtd">
<!-- Generated by graphviz version 2.43.0 (0)
 -->
<!-- Title: mlir::DialectExtensionBase Pages: 1 -->
<svg width="1338pt" height="78pt"
 viewBox="0.00 0.00 1338.00 77.50" xmlns="http://www.w3.org/2000/svg" xmlns:xlink="http://www.w3.org/1999/xlink">
<g id="graph0" class="graph" transform="scale(1 1) rotate(0) translate(4 73.5)">
<title>mlir::DialectExtensionBase</title>
<!-- Node1 -->
<g id="node1" class="node">
<title>Node1</title>
<g id="a_node1"><a xlink:title="This class represents an opaque dialect extension.">
<polygon fill="#bfbfbf" stroke="black" points="0,-38 0,-57 149,-57 149,-38 0,-38"/>
<text text-anchor="middle" x="74.5" y="-45" font-family="Helvetica,sans-Serif" font-size="10.00">mlir::DialectExtensionBase</text>
</a>
</g>
</g>
<!-- Node2 -->
<g id="node2" class="node">
<title>Node2</title>
<g id="a_node2"><a xlink:href="classmlir_1_1DialectExtension.html" target="_top" xlink:title=" ">
<polygon fill="none" stroke="black" points="513,-28 513,-69 682,-69 682,-28 513,-28"/>
<text text-anchor="start" x="521" y="-57" font-family="Helvetica,sans-Serif" font-size="10.00">mlir::DialectExtension</text>
<text text-anchor="start" x="521" y="-46" font-family="Helvetica,sans-Serif" font-size="10.00">&lt; DerivedTy, TransformDialect,</text>
<text text-anchor="middle" x="597.5" y="-35" font-family="Helvetica,sans-Serif" font-size="10.00"> ExtraDialects... &gt;</text>
</a>
</g>
</g>
<!-- Node1&#45;&gt;Node2 -->
<g id="edge1" class="edge">
<title>Node1&#45;&gt;Node2</title>
<path fill="none" stroke="midnightblue" d="M159.1,-51.72C243.78,-55.38 378.52,-59.51 495,-55.5 500.83,-55.3 506.84,-55.03 512.89,-54.72"/>
<polygon fill="midnightblue" stroke="midnightblue" points="159.17,-48.22 149.02,-51.28 158.86,-55.22 159.17,-48.22"/>
</g>
<!-- Node6 -->
<g id="node6" class="node">
<title>Node6</title>
<g id="a_node6"><a xlink:href="classmlir_1_1DialectExtension.html" target="_top" xlink:title="This class represents a dialect extension anchored on the given set of dialects.">
<polygon fill="none" stroke="black" points="186,-10.5 186,-40.5 321,-40.5 321,-10.5 186,-10.5"/>
<text text-anchor="start" x="194" y="-28.5" font-family="Helvetica,sans-Serif" font-size="10.00">mlir::DialectExtension</text>
<text text-anchor="middle" x="253.5" y="-17.5" font-family="Helvetica,sans-Serif" font-size="10.00">&lt; DerivedT, DialectsT &gt;</text>
</a>
</g>
</g>
<!-- Node1&#45;&gt;Node6 -->
<g id="edge5" class="edge">
<title>Node1&#45;&gt;Node6</title>
<path fill="none" stroke="midnightblue" d="M159.15,-37.1C168.15,-35.98 177.22,-34.86 185.99,-33.77"/>
<polygon fill="midnightblue" stroke="midnightblue" points="158.52,-33.65 149.03,-38.36 159.38,-40.6 158.52,-33.65"/>
</g>
<!-- Node3 -->
<g id="node3" class="node">
<title>Node3</title>
<g id="a_node3"><a xlink:href="classmlir_1_1transform_1_1TransformDialectExtension.html" target="_top" xlink:title="Base class for extensions of the Transform dialect that supports injecting operations into the Transf...">
<polygon fill="none" stroke="black" points="719,-28 719,-69 881,-69 881,-28 719,-28"/>
<text text-anchor="start" x="727" y="-57" font-family="Helvetica,sans-Serif" font-size="10.00">mlir::transform::Transform</text>
<text text-anchor="start" x="727" y="-46" font-family="Helvetica,sans-Serif" font-size="10.00">DialectExtension&lt; DerivedTy,</text>
<text text-anchor="middle" x="800" y="-35" font-family="Helvetica,sans-Serif" font-size="10.00"> ExtraDialects &gt;</text>
</a>
</g>
</g>
<!-- Node2&#45;&gt;Node3 -->
<g id="edge2" class="edge">
<title>Node2&#45;&gt;Node3</title>
<path fill="none" stroke="midnightblue" d="M692.1,-48.5C701.01,-48.5 710,-48.5 718.77,-48.5"/>
<polygon fill="midnightblue" stroke="midnightblue" points="692.08,-45 682.08,-48.5 692.08,-52 692.08,-45"/>
</g>
<!-- Node4 -->
<g id="node4" class="node">
<title>Node4</title>
<g id="a_node4"><a xlink:href="classmlir_1_1transform_1_1TransformDialectExtension.html" target="_top" xlink:title=" ">
<polygon fill="none" stroke="black" points="1014,-0.5 1014,-30.5 1206,-30.5 1206,-0.5 1014,-0.5"/>
<text text-anchor="start" x="1022" y="-18.5" font-family="Helvetica,sans-Serif" font-size="10.00">mlir::transform::Transform</text>
<text text-anchor="middle" x="1110" y="-7.5" font-family="Helvetica,sans-Serif" font-size="10.00">DialectExtension&lt; TuneExtension &gt;</text>
</a>
</g>
</g>
<!-- Node3&#45;&gt;Node4 -->
<g id="edge3" class="edge">
<title>Node3&#45;&gt;Node4</title>
<path fill="none" stroke="orange" stroke-dasharray="5,2" d="M891.29,-38.83C929.85,-34.69 974.88,-29.87 1013.95,-25.68"/>
<polygon fill="orange" stroke="orange" points="890.69,-35.37 881.12,-39.92 891.44,-42.33 890.69,-35.37"/>
<text text-anchor="middle" x="947.5" y="-41.5" font-family="Helvetica,sans-Serif" font-size="10.00"> &lt; TuneExtension &gt;</text>
</g>
<!-- Node5 -->
<g id="node5" class="node">
<title>Node5</title>
<g id="a_node5"><a xlink:href="classTuneExtension.html" target="_top" xlink:title=" ">
<polygon fill="none" stroke="black" points="1243,-6 1243,-25 1330,-25 1330,-6 1243,-6"/>
<text text-anchor="middle" x="1286.5" y="-13" font-family="Helvetica,sans-Serif" font-size="10.00">TuneExtension</text>
</a>
</g>
</g>
<!-- Node4&#45;&gt;Node5 -->
<g id="edge4" class="edge">
<title>Node4&#45;&gt;Node5</title>
<path fill="none" stroke="midnightblue" d="M1216.26,-15.5C1225.49,-15.5 1234.43,-15.5 1242.66,-15.5"/>
<polygon fill="midnightblue" stroke="midnightblue" points="1216.16,-12 1206.16,-15.5 1216.16,-19 1216.16,-12"/>
</g>
<!-- Node6&#45;&gt;Node2 -->
<g id="edge7" class="edge">
<title>Node6&#45;&gt;Node2</title>
<path fill="none" stroke="orange" stroke-dasharray="5,2" d="M331.4,-25.84C378.67,-26.6 440.44,-28.58 495,-33.5 500.85,-34.03 506.89,-34.67 512.95,-35.39"/>
<polygon fill="orange" stroke="orange" points="331.28,-22.34 321.23,-25.69 331.18,-29.34 331.28,-22.34"/>
<text text-anchor="start" x="339" y="-47.5" font-family="Helvetica,sans-Serif" font-size="10.00"> &lt; DerivedTy, TransformDialect,</text>
<text text-anchor="middle" x="417" y="-36.5" font-family="Helvetica,sans-Serif" font-size="10.00"> ExtraDialects... &gt;</text>
</g>
<!-- Node6&#45;&gt;Node4 -->
<g id="edge6" class="edge">
<title>Node6&#45;&gt;Node4</title>
<path fill="none" stroke="midnightblue" d="M331.38,-22.73C333.95,-22.65 336.5,-22.57 339,-22.5 416.32,-20.24 435.65,-19.58 513,-18.5 689.79,-16.02 896.11,-15.52 1013.77,-15.45"/>
<polygon fill="midnightblue" stroke="midnightblue" points="331.26,-19.23 321.38,-23.05 331.49,-26.23 331.26,-19.23"/>
</g>
</g>
</svg>
