<?xml version="1.0" encoding="UTF-8" standalone="no"?>
<!DOCTYPE svg PUBLIC "-//W3C//DTD SVG 1.1//EN"
 "http://www.w3.org/Graphics/SVG/1.1/DTD/svg11.dtd">
<!-- Generated by graphviz version 2.43.0 (0)
 -->
<!-- Title: mlir::OpState Pages: 1 -->
<svg width="1435pt" height="218pt"
 viewBox="0.00 0.00 1435.00 218.00" xmlns="http://www.w3.org/2000/svg" xmlns:xlink="http://www.w3.org/1999/xlink">
<g id="graph0" class="graph" transform="scale(1 1) rotate(0) translate(4 214)">
<title>mlir::OpState</title>
<!-- Node1 -->
<g id="Node000001" class="node">
<title>Node1</title>
<g id="a_Node000001"><a xlink:title="This is the concrete base class that holds the operation pointer and has non&#45;generic methods that onl...">
<polygon fill="#999999" stroke="#666666" points="81,-111.5 0,-111.5 0,-92.5 81,-92.5 81,-111.5"/>
<text text-anchor="middle" x="40.5" y="-99.5" font-family="Helvetica,sans-Serif" font-size="10.00">mlir::OpState</text>
</a>
</g>
</g>
<!-- Node2 -->
<g id="Node000002" class="node">
<title>Node2</title>
<g id="a_Node000002"><a xlink:href="classmlir_1_1Op.html" target="_top" xlink:title=" ">
<polygon fill="white" stroke="#666666" points="629,-176.5 435,-176.5 435,-157.5 629,-157.5 629,-176.5"/>
<text text-anchor="middle" x="532" y="-164.5" font-family="Helvetica,sans-Serif" font-size="10.00">mlir::Op&lt; ArmSMETileOpInterface &gt;</text>
</a>
</g>
</g>
<!-- Node1&#45;&gt;Node2 -->
<g id="edge1_Node000001_Node000002" class="edge">
<title>Node1&#45;&gt;Node2</title>
<g id="a_edge1_Node000001_Node000002"><a xlink:title=" ">
<path fill="none" stroke="#63b8ff" d="M78.48,-114.67C90.94,-118.65 104.98,-122.83 118,-126 185.52,-142.44 202.96,-145.11 272,-153 325.69,-159.14 385.95,-162.59 434.83,-164.54"/>
<polygon fill="#63b8ff" stroke="#63b8ff" points="79.47,-111.31 68.88,-111.54 77.3,-117.97 79.47,-111.31"/>
</a>
</g>
</g>
<!-- Node6 -->
<g id="Node000006" class="node">
<title>Node6</title>
<g id="a_Node000006"><a xlink:href="classmlir_1_1Op.html" target="_top" xlink:title=" ">
<polygon fill="white" stroke="#666666" points="588.5,-46.5 475.5,-46.5 475.5,-27.5 588.5,-27.5 588.5,-46.5"/>
<text text-anchor="middle" x="532" y="-34.5" font-family="Helvetica,sans-Serif" font-size="10.00">mlir::Op&lt; TosaOp &gt;</text>
</a>
</g>
</g>
<!-- Node1&#45;&gt;Node6 -->
<g id="edge5_Node000001_Node000006" class="edge">
<title>Node1&#45;&gt;Node6</title>
<g id="a_edge5_Node000001_Node000006"><a xlink:title=" ">
<path fill="none" stroke="#63b8ff" d="M78.47,-89.28C90.92,-85.3 104.97,-81.13 118,-78 243.41,-47.89 395.36,-39.84 475.42,-37.72"/>
<polygon fill="#63b8ff" stroke="#63b8ff" points="77.29,-85.99 68.86,-92.42 79.46,-92.64 77.29,-85.99"/>
</a>
</g>
</g>
<!-- Node10 -->
<g id="Node000010" class="node">
<title>Node10</title>
<g id="a_Node000010"><a xlink:href="classmlir_1_1Op.html" target="_top" xlink:title="This provides public APIs that all operations should have.">
<polygon fill="white" stroke="#666666" points="254,-117 118,-117 118,-87 254,-87 254,-117"/>
<text text-anchor="start" x="126" y="-105" font-family="Helvetica,sans-Serif" font-size="10.00">mlir::Op&lt; ConcreteType,</text>
<text text-anchor="middle" x="186" y="-94" font-family="Helvetica,sans-Serif" font-size="10.00"> Traits &gt;</text>
</a>
</g>
</g>
<!-- Node1&#45;&gt;Node10 -->
<g id="edge9_Node000001_Node000010" class="edge">
<title>Node1&#45;&gt;Node10</title>
<g id="a_edge9_Node000001_Node000010"><a xlink:title=" ">
<path fill="none" stroke="#63b8ff" d="M91.33,-102C99.94,-102 109.02,-102 117.99,-102"/>
<polygon fill="#63b8ff" stroke="#63b8ff" points="91.09,-98.5 81.09,-102 91.09,-105.5 91.09,-98.5"/>
</a>
</g>
</g>
<!-- Node3 -->
<g id="Node000003" class="node">
<title>Node3</title>
<g id="a_Node000003"><a xlink:href="classmlir_1_1detail_1_1Interface.html" target="_top" xlink:title=" ">
<polygon fill="white" stroke="#666666" points="862,-210 666,-210 666,-136 862,-136 862,-210"/>
<text text-anchor="start" x="674" y="-198" font-family="Helvetica,sans-Serif" font-size="10.00">mlir::detail::Interface</text>
<text text-anchor="start" x="674" y="-187" font-family="Helvetica,sans-Serif" font-size="10.00">&lt; ArmSMETileOpInterface,</text>
<text text-anchor="start" x="674" y="-176" font-family="Helvetica,sans-Serif" font-size="10.00"> Operation *, detail::ArmSMETile</text>
<text text-anchor="start" x="674" y="-165" font-family="Helvetica,sans-Serif" font-size="10.00">OpInterfaceInterfaceTraits, Op</text>
<text text-anchor="start" x="674" y="-154" font-family="Helvetica,sans-Serif" font-size="10.00">&lt; ArmSMETileOpInterface &gt;, OpTrait</text>
<text text-anchor="middle" x="764" y="-143" font-family="Helvetica,sans-Serif" font-size="10.00">::TraitBase &gt;</text>
</a>
</g>
</g>
<!-- Node2&#45;&gt;Node3 -->
<g id="edge2_Node000002_Node000003" class="edge">
<title>Node2&#45;&gt;Node3</title>
<g id="a_edge2_Node000002_Node000003"><a xlink:title=" ">
<path fill="none" stroke="#63b8ff" d="M639.44,-169.78C648.2,-170.01 657.02,-170.24 665.7,-170.46"/>
<polygon fill="#63b8ff" stroke="#63b8ff" points="639.3,-166.27 629.21,-169.51 639.11,-173.27 639.3,-166.27"/>
</a>
</g>
</g>
<!-- Node4 -->
<g id="Node000004" class="node">
<title>Node4</title>
<g id="a_Node000004"><a xlink:href="classmlir_1_1OpInterface.html" target="_top" xlink:title=" ">
<polygon fill="white" stroke="#666666" points="1235.5,-148 1065.5,-148 1065.5,-96 1235.5,-96 1235.5,-148"/>
<text text-anchor="start" x="1073.5" y="-136" font-family="Helvetica,sans-Serif" font-size="10.00">mlir::OpInterface&lt;</text>
<text text-anchor="start" x="1073.5" y="-125" font-family="Helvetica,sans-Serif" font-size="10.00"> ArmSMETileOpInterface,</text>
<text text-anchor="start" x="1073.5" y="-114" font-family="Helvetica,sans-Serif" font-size="10.00"> detail::ArmSMETileOpInterface</text>
<text text-anchor="middle" x="1150.5" y="-103" font-family="Helvetica,sans-Serif" font-size="10.00">InterfaceTraits &gt;</text>
</a>
</g>
</g>
<!-- Node3&#45;&gt;Node4 -->
<g id="edge3_Node000003_Node000004" class="edge">
<title>Node3&#45;&gt;Node4</title>
<g id="a_edge3_Node000003_Node000004"><a xlink:title=" ">
<path fill="none" stroke="#63b8ff" d="M872.19,-175.68C924.99,-175.07 989.33,-171.43 1046,-160 1059.89,-157.2 1074.39,-152.84 1088,-148.06"/>
<polygon fill="#63b8ff" stroke="#63b8ff" points="872.1,-172.18 862.13,-175.76 872.16,-179.18 872.1,-172.18"/>
</a>
</g>
</g>
<!-- Node5 -->
<g id="Node000005" class="node">
<title>Node5</title>
<g id="a_Node000005"><a xlink:href="classmlir_1_1arm__sme_1_1ArmSMETileOpInterface.html" target="_top" xlink:title=" ">
<polygon fill="white" stroke="#666666" points="1427,-137 1274,-137 1274,-107 1427,-107 1427,-137"/>
<text text-anchor="start" x="1282" y="-125" font-family="Helvetica,sans-Serif" font-size="10.00">mlir::arm_sme::ArmSMETile</text>
<text text-anchor="middle" x="1350.5" y="-114" font-family="Helvetica,sans-Serif" font-size="10.00">OpInterface</text>
</a>
</g>
</g>
<!-- Node4&#45;&gt;Node5 -->
<g id="edge4_Node000004_Node000005" class="edge">
<title>Node4&#45;&gt;Node5</title>
<g id="a_edge4_Node000004_Node000005"><a xlink:title=" ">
<path fill="none" stroke="#63b8ff" d="M1245.88,-122C1255.23,-122 1264.65,-122 1273.78,-122"/>
<polygon fill="#63b8ff" stroke="#63b8ff" points="1245.76,-118.5 1235.76,-122 1245.76,-125.5 1245.76,-118.5"/>
</a>
</g>
</g>
<!-- Node7 -->
<g id="Node000007" class="node">
<title>Node7</title>
<g id="a_Node000007"><a xlink:href="classmlir_1_1detail_1_1Interface.html" target="_top" xlink:title=" ">
<polygon fill="white" stroke="#666666" points="861,-52 667,-52 667,0 861,0 861,-52"/>
<text text-anchor="start" x="675" y="-40" font-family="Helvetica,sans-Serif" font-size="10.00">mlir::detail::Interface</text>
<text text-anchor="start" x="675" y="-29" font-family="Helvetica,sans-Serif" font-size="10.00">&lt; TosaOp, Operation *,</text>
<text text-anchor="start" x="675" y="-18" font-family="Helvetica,sans-Serif" font-size="10.00"> detail::TosaOpInterfaceTraits,</text>
<text text-anchor="middle" x="764" y="-7" font-family="Helvetica,sans-Serif" font-size="10.00"> Op&lt; TosaOp &gt;, OpTrait::TraitBase &gt;</text>
</a>
</g>
</g>
<!-- Node6&#45;&gt;Node7 -->
<g id="edge6_Node000006_Node000007" class="edge">
<title>Node6&#45;&gt;Node7</title>
<g id="a_edge6_Node000006_Node000007"><a xlink:title=" ">
<path fill="none" stroke="#63b8ff" d="M598.86,-33.85C620.08,-32.84 644.06,-31.69 666.99,-30.59"/>
<polygon fill="#63b8ff" stroke="#63b8ff" points="598.5,-30.36 588.68,-34.34 598.83,-37.36 598.5,-30.36"/>
</a>
</g>
</g>
<!-- Node8 -->
<g id="Node000008" class="node">
<title>Node8</title>
<g id="a_Node000008"><a xlink:href="classmlir_1_1OpInterface.html" target="_top" xlink:title=" ">
<polygon fill="white" stroke="#666666" points="1237,-66.5 1064,-66.5 1064,-25.5 1237,-25.5 1237,-66.5"/>
<text text-anchor="start" x="1072" y="-54.5" font-family="Helvetica,sans-Serif" font-size="10.00">mlir::OpInterface&lt;</text>
<text text-anchor="start" x="1072" y="-43.5" font-family="Helvetica,sans-Serif" font-size="10.00"> TosaOp, detail::TosaOpInterface</text>
<text text-anchor="middle" x="1150.5" y="-32.5" font-family="Helvetica,sans-Serif" font-size="10.00">Traits &gt;</text>
</a>
</g>
</g>
<!-- Node7&#45;&gt;Node8 -->
<g id="edge7_Node000007_Node000008" class="edge">
<title>Node7&#45;&gt;Node8</title>
<g id="a_edge7_Node000007_Node000008"><a xlink:title=" ">
<path fill="none" stroke="#63b8ff" d="M871.3,-29.68C923.89,-31.71 988.3,-34.54 1046,-38 1051.85,-38.35 1057.88,-38.74 1063.95,-39.16"/>
<polygon fill="#63b8ff" stroke="#63b8ff" points="871.41,-26.18 861.28,-29.29 871.14,-33.17 871.41,-26.18"/>
</a>
</g>
</g>
<!-- Node9 -->
<g id="Node000009" class="node">
<title>Node9</title>
<g id="a_Node000009"><a xlink:href="classmlir_1_1tosa_1_1TosaOp.html" target="_top" xlink:title=" ">
<polygon fill="white" stroke="#666666" points="1402.5,-55.5 1298.5,-55.5 1298.5,-36.5 1402.5,-36.5 1402.5,-55.5"/>
<text text-anchor="middle" x="1350.5" y="-43.5" font-family="Helvetica,sans-Serif" font-size="10.00">mlir::tosa::TosaOp</text>
</a>
</g>
</g>
<!-- Node8&#45;&gt;Node9 -->
<g id="edge8_Node000008_Node000009" class="edge">
<title>Node8&#45;&gt;Node9</title>
<g id="a_edge8_Node000008_Node000009"><a xlink:title=" ">
<path fill="none" stroke="#63b8ff" d="M1247.48,-46C1265,-46 1282.65,-46 1298.22,-46"/>
<polygon fill="#63b8ff" stroke="#63b8ff" points="1247.19,-42.5 1237.19,-46 1247.19,-49.5 1247.19,-42.5"/>
</a>
</g>
</g>
<!-- Node10&#45;&gt;Node2 -->
<g id="edge14_Node000010_Node000002" class="edge">
<title>Node10&#45;&gt;Node2</title>
<g id="a_edge14_Node000010_Node000002"><a xlink:title=" ">
<path fill="none" stroke="orange" stroke-dasharray="5,2" d="M264.17,-112.41C319.3,-120.03 388.55,-130.05 417,-136 445.31,-141.92 477.02,-150.72 499.79,-157.44"/>
<polygon fill="orange" stroke="orange" points="264.44,-108.91 254.06,-111.01 263.49,-115.85 264.44,-108.91"/>
</a>
</g>
<text text-anchor="start" x="275.5" y="-141.5" font-family="Helvetica,sans-Serif" font-size="10.00" fill="grey">&lt; ArmSMETileOpInterface &gt;</text>
</g>
<!-- Node10&#45;&gt;Node6 -->
<g id="edge15_Node000010_Node000006" class="edge">
<title>Node10&#45;&gt;Node6</title>
<g id="a_edge15_Node000010_Node000006"><a xlink:title=" ">
<path fill="none" stroke="orange" stroke-dasharray="5,2" d="M255.44,-84.63C261.03,-83.35 266.61,-82.12 272,-81 341.77,-66.48 422.86,-53.29 475.45,-45.22"/>
<polygon fill="orange" stroke="orange" points="254.34,-81.29 245.4,-86.97 255.93,-88.11 254.34,-81.29"/>
</a>
</g>
<text text-anchor="start" x="315.5" y="-86.5" font-family="Helvetica,sans-Serif" font-size="10.00" fill="grey">&lt; TosaOp &gt;</text>
</g>
<!-- Node11 -->
<g id="Node000011" class="node">
<title>Node11</title>
<g id="a_Node000011"><a xlink:href="classmlir_1_1detail_1_1Interface.html" target="_top" xlink:title=" ">
<polygon fill="white" stroke="#666666" points="609,-128 455,-128 455,-76 609,-76 609,-128"/>
<text text-anchor="start" x="463" y="-116" font-family="Helvetica,sans-Serif" font-size="10.00">mlir::detail::Interface</text>
<text text-anchor="start" x="463" y="-105" font-family="Helvetica,sans-Serif" font-size="10.00">&lt; ConcreteType, Operation</text>
<text text-anchor="start" x="463" y="-94" font-family="Helvetica,sans-Serif" font-size="10.00"> *, Traits, Op&lt; ConcreteType</text>
<text text-anchor="middle" x="532" y="-83" font-family="Helvetica,sans-Serif" font-size="10.00"> &gt;, OpTrait::TraitBase &gt;</text>
</a>
</g>
</g>
<!-- Node10&#45;&gt;Node11 -->
<g id="edge10_Node000010_Node000011" class="edge">
<title>Node10&#45;&gt;Node11</title>
<g id="a_edge10_Node000010_Node000011"><a xlink:title=" ">
<path fill="none" stroke="#63b8ff" d="M264.16,-102C321.05,-102 398.07,-102 454.74,-102"/>
<polygon fill="#63b8ff" stroke="#63b8ff" points="264.14,-98.5 254.14,-102 264.14,-105.5 264.14,-98.5"/>
</a>
</g>
</g>
<!-- Node12 -->
<g id="Node000012" class="node">
<title>Node12</title>
<g id="a_Node000012"><a xlink:href="classmlir_1_1OpInterface.html" target="_top" xlink:title="This class represents the base of an operation interface.">
<polygon fill="white" stroke="#666666" points="828.5,-117 699.5,-117 699.5,-87 828.5,-87 828.5,-117"/>
<text text-anchor="start" x="707.5" y="-105" font-family="Helvetica,sans-Serif" font-size="10.00">mlir::OpInterface&lt;</text>
<text text-anchor="middle" x="764" y="-94" font-family="Helvetica,sans-Serif" font-size="10.00"> ConcreteType, Traits &gt;</text>
</a>
</g>
</g>
<!-- Node11&#45;&gt;Node12 -->
<g id="edge11_Node000011_Node000012" class="edge">
<title>Node11&#45;&gt;Node12</title>
<g id="a_edge11_Node000011_Node000012"><a xlink:title=" ">
<path fill="none" stroke="#63b8ff" d="M619.31,-102C645.82,-102 674.51,-102 699.23,-102"/>
<polygon fill="#63b8ff" stroke="#63b8ff" points="619.27,-98.5 609.27,-102 619.27,-105.5 619.27,-98.5"/>
</a>
</g>
</g>
<!-- Node12&#45;&gt;Node4 -->
<g id="edge12_Node000012_Node000004" class="edge">
<title>Node12&#45;&gt;Node4</title>
<g id="a_edge12_Node000012_Node000004"><a xlink:title=" ">
<path fill="none" stroke="orange" stroke-dasharray="5,2" d="M838.96,-103.93C895.66,-105.65 975.82,-108.58 1046,-113 1052.3,-113.4 1058.81,-113.85 1065.36,-114.35"/>
<polygon fill="orange" stroke="orange" points="838.76,-100.43 828.66,-103.63 838.55,-107.42 838.76,-100.43"/>
</a>
</g>
<text text-anchor="start" x="883" y="-148.5" font-family="Helvetica,sans-Serif" font-size="10.00" fill="grey">&lt; ArmSMETileOpInterface,</text>
<text text-anchor="start" x="883" y="-133.5" font-family="Helvetica,sans-Serif" font-size="10.00" fill="grey">   detail::ArmSMETileOpInterface</text>
<text text-anchor="start" x="883" y="-118.5" font-family="Helvetica,sans-Serif" font-size="10.00" fill="grey">  InterfaceTraits &gt;</text>
</g>
<!-- Node12&#45;&gt;Node8 -->
<g id="edge13_Node000012_Node000008" class="edge">
<title>Node12&#45;&gt;Node8</title>
<g id="a_edge13_Node000012_Node000008"><a xlink:title=" ">
<path fill="none" stroke="orange" stroke-dasharray="5,2" d="M819.51,-84.01C838.47,-78.38 860,-72.69 880,-69 940.96,-57.76 1010.7,-52 1063.97,-49.05"/>
<polygon fill="orange" stroke="orange" points="818.41,-80.69 809.85,-86.94 820.44,-87.39 818.41,-80.69"/>
</a>
</g>
<text text-anchor="start" x="902" y="-90" font-family="Helvetica,sans-Serif" font-size="10.00" fill="grey">&lt; TosaOp, detail::TosaOp</text>
<text text-anchor="start" x="902" y="-75" font-family="Helvetica,sans-Serif" font-size="10.00" fill="grey">  InterfaceTraits &gt;</text>
</g>
</g>
</svg>
