<?xml version="1.0" encoding="UTF-8" standalone="no"?>
<!DOCTYPE svg PUBLIC "-//W3C//DTD SVG 1.1//EN"
 "http://www.w3.org/Graphics/SVG/1.1/DTD/svg11.dtd">
<!-- Generated by graphviz version 2.43.0 (0)
 -->
<!-- Title: mlir::python::MLIR_BINDINGS_PYTHON_DOMAIN::PyBlockArgument Pages: 1 -->
<svg width="951pt" height="78pt"
 viewBox="0.00 0.00 951.00 78.00" xmlns="http://www.w3.org/2000/svg" xmlns:xlink="http://www.w3.org/1999/xlink">
<g id="graph0" class="graph" transform="scale(1 1) rotate(0) translate(4 74)">
<title>mlir::python::MLIR_BINDINGS_PYTHON_DOMAIN::PyBlockArgument</title>
<!-- Node1 -->
<g id="Node000001" class="node">
<title>Node1</title>
<g id="a_Node000001"><a xlink:title="Python wrapper for MlirBlockArgument.">
<polygon fill="#999999" stroke="#666666" points="943,-70 780,-70 780,-29 943,-29 943,-70"/>
<text text-anchor="start" x="788" y="-58" font-family="Helvetica,sans-Serif" font-size="10.00">mlir::python::MLIR</text>
<text text-anchor="start" x="788" y="-47" font-family="Helvetica,sans-Serif" font-size="10.00">_BINDINGS_PYTHON_DOMAIN</text>
<text text-anchor="middle" x="861.5" y="-36" font-family="Helvetica,sans-Serif" font-size="10.00">::PyBlockArgument</text>
</a>
</g>
</g>
<!-- Node2 -->
<g id="Node000002" class="node">
<title>Node2</title>
<g id="a_Node000002"><a xlink:href="classmlir_1_1python_1_1MLIR__BINDINGS__PYTHON__DOMAIN_1_1PyConcreteValue.html" target="_top" xlink:title=" ">
<polygon fill="white" stroke="#666666" points="743,-70 528,-70 528,-29 743,-29 743,-70"/>
<text text-anchor="start" x="536" y="-58" font-family="Helvetica,sans-Serif" font-size="10.00">mlir::python::MLIR</text>
<text text-anchor="start" x="536" y="-47" font-family="Helvetica,sans-Serif" font-size="10.00">_BINDINGS_PYTHON_DOMAIN</text>
<text text-anchor="middle" x="635.5" y="-36" font-family="Helvetica,sans-Serif" font-size="10.00">::PyConcreteValue&lt; PyBlockArgument &gt;</text>
</a>
</g>
</g>
<!-- Node2&#45;&gt;Node1 -->
<g id="edge1_Node000001_Node000002" class="edge">
<title>Node2&#45;&gt;Node1</title>
<g id="a_edge1_Node000001_Node000002"><a xlink:title=" ">
<path fill="none" stroke="#63b8ff" d="M753.33,-49.5C762.26,-49.5 771.14,-49.5 779.76,-49.5"/>
<polygon fill="#63b8ff" stroke="#63b8ff" points="753.25,-46 743.25,-49.5 753.25,-53 753.25,-46"/>
</a>
</g>
</g>
<!-- Node3 -->
<g id="Node000003" class="node">
<title>Node3</title>
<g id="a_Node000003"><a xlink:href="classmlir_1_1python_1_1MLIR__BINDINGS__PYTHON__DOMAIN_1_1PyValue.html" target="_top" xlink:title=" ">
<polygon fill="white" stroke="#666666" points="163,-65 0,-65 0,-24 163,-24 163,-65"/>
<text text-anchor="start" x="8" y="-53" font-family="Helvetica,sans-Serif" font-size="10.00">mlir::python::MLIR</text>
<text text-anchor="start" x="8" y="-42" font-family="Helvetica,sans-Serif" font-size="10.00">_BINDINGS_PYTHON_DOMAIN</text>
<text text-anchor="middle" x="81.5" y="-31" font-family="Helvetica,sans-Serif" font-size="10.00">::PyValue</text>
</a>
</g>
</g>
<!-- Node3&#45;&gt;Node2 -->
<g id="edge2_Node000002_Node000003" class="edge">
<title>Node3&#45;&gt;Node2</title>
<g id="a_edge2_Node000002_Node000003"><a xlink:title=" ">
<path fill="none" stroke="#63b8ff" d="M173.31,-49.46C259.85,-53.56 393.8,-58.3 510,-55.5 515.84,-55.36 521.83,-55.18 527.88,-54.98"/>
<polygon fill="#63b8ff" stroke="#63b8ff" points="173.42,-45.96 163.26,-48.97 173.08,-52.95 173.42,-45.96"/>
</a>
</g>
</g>
<!-- Node4 -->
<g id="Node000004" class="node">
<title>Node4</title>
<g id="a_Node000004"><a xlink:href="classmlir_1_1python_1_1MLIR__BINDINGS__PYTHON__DOMAIN_1_1PyConcreteValue.html" target="_top" xlink:title="CRTP base class for Python MLIR values that subclass Value and should be castable from it.">
<polygon fill="white" stroke="#666666" points="376,-41 200,-41 200,0 376,0 376,-41"/>
<text text-anchor="start" x="208" y="-29" font-family="Helvetica,sans-Serif" font-size="10.00">mlir::python::MLIR</text>
<text text-anchor="start" x="208" y="-18" font-family="Helvetica,sans-Serif" font-size="10.00">_BINDINGS_PYTHON_DOMAIN</text>
<text text-anchor="middle" x="288" y="-7" font-family="Helvetica,sans-Serif" font-size="10.00">::PyConcreteValue&lt; DerivedTy &gt;</text>
</a>
</g>
</g>
<!-- Node3&#45;&gt;Node4 -->
<g id="edge4_Node000004_Node000003" class="edge">
<title>Node3&#45;&gt;Node4</title>
<g id="a_edge4_Node000004_Node000003"><a xlink:title=" ">
<path fill="none" stroke="#63b8ff" d="M173.01,-33.88C181.91,-32.83 190.93,-31.77 199.8,-30.73"/>
<polygon fill="#63b8ff" stroke="#63b8ff" points="172.55,-30.41 163.03,-35.05 173.37,-37.36 172.55,-30.41"/>
</a>
</g>
</g>
<!-- Node4&#45;&gt;Node2 -->
<g id="edge3_Node000002_Node000004" class="edge">
<title>Node4&#45;&gt;Node2</title>
<g id="a_edge3_Node000002_Node000004"><a xlink:title=" ">
<path fill="none" stroke="orange" stroke-dasharray="5,2" d="M386.31,-28.28C424.83,-31.4 469.51,-35.06 510,-38.5 515.84,-39 521.83,-39.51 527.88,-40.03"/>
<polygon fill="orange" stroke="orange" points="386.38,-24.78 376.13,-27.46 385.82,-31.75 386.38,-24.78"/>
</a>
</g>
<text text-anchor="start" x="397" y="-44" font-family="Helvetica,sans-Serif" font-size="10.00" fill="grey">&lt; PyBlockArgument &gt;</text>
</g>
</g>
</svg>
