<?xml version="1.0" encoding="UTF-8" standalone="no"?>
<!DOCTYPE svg PUBLIC "-//W3C//DTD SVG 1.1//EN"
 "http://www.w3.org/Graphics/SVG/1.1/DTD/svg11.dtd">
<!-- Generated by graphviz version 2.43.0 (0)
 -->
<!-- Title: mlir::pdll::ast::VariableDecl Pages: 1 -->
<svg width="808pt" height="107pt"
 viewBox="0.00 0.00 808.00 106.50" xmlns="http://www.w3.org/2000/svg" xmlns:xlink="http://www.w3.org/1999/xlink">
<g id="graph0" class="graph" transform="scale(1 1) rotate(0) translate(4 102.5)">
<title>mlir::pdll::ast::VariableDecl</title>
<!-- Node1 -->
<g id="Node000001" class="node">
<title>Node1</title>
<g id="a_Node000001"><a xlink:title="This Decl represents the definition of a PDLL variable.">
<polygon fill="#999999" stroke="#666666" points="800,-36.5 651,-36.5 651,-17.5 800,-17.5 800,-36.5"/>
<text text-anchor="middle" x="725.5" y="-24.5" font-family="Helvetica,sans-Serif" font-size="10.00">mlir::pdll::ast::VariableDecl</text>
</a>
</g>
</g>
<!-- Node2 -->
<g id="Node000002" class="node">
<title>Node2</title>
<g id="a_Node000002"><a xlink:href="classmlir_1_1pdll_1_1ast_1_1Node_1_1NodeBase.html" target="_top" xlink:title=" ">
<polygon fill="white" stroke="#666666" points="601.5,-89.5 453.5,-89.5 453.5,-48.5 601.5,-48.5 601.5,-89.5"/>
<text text-anchor="start" x="461.5" y="-77.5" font-family="Helvetica,sans-Serif" font-size="10.00">mlir::pdll::ast::Node</text>
<text text-anchor="start" x="461.5" y="-66.5" font-family="Helvetica,sans-Serif" font-size="10.00">::NodeBase&lt; VariableDecl,</text>
<text text-anchor="middle" x="527.5" y="-55.5" font-family="Helvetica,sans-Serif" font-size="10.00"> Decl &gt;</text>
</a>
</g>
</g>
<!-- Node2&#45;&gt;Node1 -->
<g id="edge1_Node000001_Node000002" class="edge">
<title>Node2&#45;&gt;Node1</title>
<g id="a_edge1_Node000001_Node000002"><a xlink:title=" ">
<path fill="none" stroke="#63b8ff" d="M611.73,-51.16C635.2,-46.14 659.82,-40.86 680.05,-36.52"/>
<polygon fill="#63b8ff" stroke="#63b8ff" points="610.81,-47.78 601.76,-53.3 612.27,-54.63 610.81,-47.78"/>
</a>
</g>
</g>
<!-- Node3 -->
<g id="Node000003" class="node">
<title>Node3</title>
<g id="a_Node000003"><a xlink:href="classmlir_1_1pdll_1_1ast_1_1Decl.html" target="_top" xlink:title="This class represents the base Decl node.">
<polygon fill="white" stroke="#666666" points="273,-98.5 164,-98.5 164,-79.5 273,-79.5 273,-98.5"/>
<text text-anchor="middle" x="218.5" y="-86.5" font-family="Helvetica,sans-Serif" font-size="10.00">mlir::pdll::ast::Decl</text>
</a>
</g>
</g>
<!-- Node3&#45;&gt;Node2 -->
<g id="edge2_Node000002_Node000003" class="edge">
<title>Node3&#45;&gt;Node2</title>
<g id="a_edge2_Node000002_Node000003"><a xlink:title=" ">
<path fill="none" stroke="#63b8ff" d="M283.59,-84.82C333.13,-81.6 401.73,-77.13 453.4,-73.76"/>
<polygon fill="#63b8ff" stroke="#63b8ff" points="283.08,-81.35 273.33,-85.49 283.53,-88.34 283.08,-81.35"/>
</a>
</g>
</g>
<!-- Node4 -->
<g id="Node000004" class="node">
<title>Node4</title>
<g id="a_Node000004"><a xlink:href="classmlir_1_1pdll_1_1ast_1_1Node.html" target="_top" xlink:title="This class represents a base AST node.">
<polygon fill="white" stroke="#666666" points="113,-98.5 0,-98.5 0,-79.5 113,-79.5 113,-98.5"/>
<text text-anchor="middle" x="56.5" y="-86.5" font-family="Helvetica,sans-Serif" font-size="10.00">mlir::pdll::ast::Node</text>
</a>
</g>
</g>
<!-- Node4&#45;&gt;Node3 -->
<g id="edge3_Node000003_Node000004" class="edge">
<title>Node4&#45;&gt;Node3</title>
<g id="a_edge3_Node000003_Node000004"><a xlink:title=" ">
<path fill="none" stroke="#63b8ff" d="M123.24,-89C136.8,-89 150.92,-89 163.97,-89"/>
<polygon fill="#63b8ff" stroke="#63b8ff" points="123.01,-85.5 113.01,-89 123.01,-92.5 123.01,-85.5"/>
</a>
</g>
</g>
<!-- Node5 -->
<g id="Node000005" class="node">
<title>Node5</title>
<g id="a_Node000005"><a xlink:href="classmlir_1_1pdll_1_1ast_1_1Node_1_1NodeBase.html" target="_top" xlink:title="This CRTP class provides several utilies when defining new AST nodes.">
<polygon fill="white" stroke="#666666" points="287,-61 150,-61 150,-31 287,-31 287,-61"/>
<text text-anchor="start" x="158" y="-49" font-family="Helvetica,sans-Serif" font-size="10.00">mlir::pdll::ast::Node</text>
<text text-anchor="middle" x="218.5" y="-38" font-family="Helvetica,sans-Serif" font-size="10.00">::NodeBase&lt; T, BaseT &gt;</text>
</a>
</g>
</g>
<!-- Node5&#45;&gt;Node2 -->
<g id="edge4_Node000002_Node000005" class="edge">
<title>Node5&#45;&gt;Node2</title>
<g id="a_edge4_Node000002_Node000005"><a xlink:title=" ">
<path fill="none" stroke="orange" stroke-dasharray="5,2" d="M297.88,-47.81C335.74,-49.11 381.79,-51.31 423,-55 432.84,-55.88 443.19,-57.02 453.37,-58.27"/>
<polygon fill="orange" stroke="orange" points="297.54,-44.3 287.44,-47.47 297.32,-51.3 297.54,-44.3"/>
</a>
</g>
<text text-anchor="start" x="308" y="-60.5" font-family="Helvetica,sans-Serif" font-size="10.00" fill="grey">&lt; VariableDecl, Decl &gt;</text>
</g>
<!-- Node6 -->
<g id="Node000006" class="node">
<title>Node6</title>
<g id="a_Node000006"><a xlink:title=" ">
<polygon fill="white" stroke="#666666" points="80,-55.5 33,-55.5 33,-36.5 80,-36.5 80,-55.5"/>
<text text-anchor="middle" x="56.5" y="-43.5" font-family="Helvetica,sans-Serif" font-size="10.00">BaseT</text>
</a>
</g>
</g>
<!-- Node6&#45;&gt;Node5 -->
<g id="edge5_Node000005_Node000006" class="edge">
<title>Node6&#45;&gt;Node5</title>
<g id="a_edge5_Node000005_Node000006"><a xlink:title=" ">
<path fill="none" stroke="#63b8ff" d="M90.15,-46C107.33,-46 129.08,-46 149.71,-46"/>
<polygon fill="#63b8ff" stroke="#63b8ff" points="90.08,-42.5 80.08,-46 90.08,-49.5 90.08,-42.5"/>
</a>
</g>
</g>
<!-- Node7 -->
<g id="Node000007" class="node">
<title>Node7</title>
<g id="a_Node000007"><a xlink:title=" ">
<polygon fill="white" stroke="#666666" points="614,-30 441,-30 441,0 614,0 614,-30"/>
<text text-anchor="start" x="449" y="-18" font-family="Helvetica,sans-Serif" font-size="10.00">llvm::TrailingObjects</text>
<text text-anchor="middle" x="527.5" y="-7" font-family="Helvetica,sans-Serif" font-size="10.00">&lt; VariableDecl, ConstraintRef &gt;</text>
</a>
</g>
</g>
<!-- Node7&#45;&gt;Node1 -->
<g id="edge6_Node000001_Node000007" class="edge">
<title>Node7&#45;&gt;Node1</title>
<g id="a_edge6_Node000001_Node000007"><a xlink:title=" ">
<path fill="none" stroke="#8b1a1a" d="M624.28,-20.86C633.25,-21.41 642.24,-21.96 650.96,-22.5"/>
<polygon fill="#8b1a1a" stroke="#8b1a1a" points="624.38,-17.36 614.18,-20.25 623.95,-24.35 624.38,-17.36"/>
</a>
</g>
</g>
</g>
</svg>
