<?xml version="1.0" encoding="UTF-8" standalone="no"?>
<!DOCTYPE svg PUBLIC "-//W3C//DTD SVG 1.1//EN"
 "http://www.w3.org/Graphics/SVG/1.1/DTD/svg11.dtd">
<!-- Generated by graphviz version 2.43.0 (0)
 -->
<!-- Title: mlir::pdl_to_pdl_interp::Qualifier Pages: 1 -->
<svg width="801pt" height="1146pt"
 viewBox="0.00 0.00 801.00 1146.00" xmlns="http://www.w3.org/2000/svg" xmlns:xlink="http://www.w3.org/1999/xlink">
<g id="graph0" class="graph" transform="scale(1 1) rotate(0) translate(4 1142)">
<title>mlir::pdl_to_pdl_interp::Qualifier</title>
<!-- Node1 -->
<g id="Node000001" class="node">
<title>Node1</title>
<g id="a_Node000001"><a xlink:title="An ordinal predicate consists of a &quot;Question&quot; and a set of acceptable &quot;Answers&quot; (later converted to o...">
<polygon fill="#999999" stroke="#666666" points="280,-578 154,-578 154,-548 280,-548 280,-578"/>
<text text-anchor="start" x="162" y="-566" font-family="Helvetica,sans-Serif" font-size="10.00">mlir::pdl_to_pdl_interp</text>
<text text-anchor="middle" x="217" y="-555" font-family="Helvetica,sans-Serif" font-size="10.00">::Qualifier</text>
</a>
</g>
</g>
<!-- Node3 -->
<g id="Node000003" class="node">
<title>Node3</title>
<g id="a_Node000003"><a xlink:href="classmlir_1_1pdl__to__pdl__interp_1_1PredicateBase.html" target="_top" xlink:title=" ">
<polygon fill="white" stroke="#666666" points="542.5,-1138 357.5,-1138 357.5,-1086 542.5,-1086 542.5,-1138"/>
<text text-anchor="start" x="365.5" y="-1126" font-family="Helvetica,sans-Serif" font-size="10.00">mlir::pdl_to_pdl_interp</text>
<text text-anchor="start" x="365.5" y="-1115" font-family="Helvetica,sans-Serif" font-size="10.00">::PredicateBase&lt; AttributeAnswer,</text>
<text text-anchor="start" x="365.5" y="-1104" font-family="Helvetica,sans-Serif" font-size="10.00"> Qualifier, Attribute, Predicates</text>
<text text-anchor="middle" x="450" y="-1093" font-family="Helvetica,sans-Serif" font-size="10.00">::AttributeAnswer &gt;</text>
</a>
</g>
</g>
<!-- Node1&#45;&gt;Node3 -->
<g id="edge2_Node000001_Node000003" class="edge">
<title>Node1&#45;&gt;Node3</title>
<g id="a_edge2_Node000001_Node000003"><a xlink:title=" ">
<path fill="none" stroke="#63b8ff" d="M219.34,-588.35C224.8,-681.68 248.32,-1004.49 316,-1077 327.16,-1088.96 341.87,-1097.02 357.43,-1102.42"/>
<polygon fill="#63b8ff" stroke="#63b8ff" points="222.82,-587.92 218.77,-578.14 215.84,-588.32 222.82,-587.92"/>
</a>
</g>
</g>
<!-- Node5 -->
<g id="Node000005" class="node">
<title>Node5</title>
<g id="a_Node000005"><a xlink:href="classmlir_1_1pdl__to__pdl__interp_1_1PredicateBase.html" target="_top" xlink:title=" ">
<polygon fill="white" stroke="#666666" points="546.5,-1068 353.5,-1068 353.5,-1016 546.5,-1016 546.5,-1068"/>
<text text-anchor="start" x="361.5" y="-1056" font-family="Helvetica,sans-Serif" font-size="10.00">mlir::pdl_to_pdl_interp</text>
<text text-anchor="start" x="361.5" y="-1045" font-family="Helvetica,sans-Serif" font-size="10.00">::PredicateBase&lt; AttributeQuestion,</text>
<text text-anchor="start" x="361.5" y="-1034" font-family="Helvetica,sans-Serif" font-size="10.00"> Qualifier, void, Predicates</text>
<text text-anchor="middle" x="450" y="-1023" font-family="Helvetica,sans-Serif" font-size="10.00">::AttributeQuestion &gt;</text>
</a>
</g>
</g>
<!-- Node1&#45;&gt;Node5 -->
<g id="edge4_Node000001_Node000005" class="edge">
<title>Node1&#45;&gt;Node5</title>
<g id="a_edge4_Node000001_Node000005"><a xlink:title=" ">
<path fill="none" stroke="#63b8ff" d="M220.15,-588.16C227.9,-672.83 257.06,-945.65 316,-1007 326.26,-1017.68 339.34,-1025.23 353.29,-1030.56"/>
<polygon fill="#63b8ff" stroke="#63b8ff" points="223.63,-587.79 219.26,-578.14 216.66,-588.41 223.63,-587.79"/>
</a>
</g>
</g>
<!-- Node7 -->
<g id="Node000007" class="node">
<title>Node7</title>
<g id="a_Node000007"><a xlink:href="classmlir_1_1pdl__to__pdl__interp_1_1PredicateBase.html" target="_top" xlink:title=" ">
<polygon fill="white" stroke="#666666" points="584,-997.5 316,-997.5 316,-934.5 584,-934.5 584,-997.5"/>
<text text-anchor="start" x="324" y="-985.5" font-family="Helvetica,sans-Serif" font-size="10.00">mlir::pdl_to_pdl_interp</text>
<text text-anchor="start" x="324" y="-974.5" font-family="Helvetica,sans-Serif" font-size="10.00">::PredicateBase&lt; ConstraintQuestion,</text>
<text text-anchor="start" x="324" y="-963.5" font-family="Helvetica,sans-Serif" font-size="10.00"> Qualifier, std::tuple&lt; StringRef,</text>
<text text-anchor="start" x="324" y="-952.5" font-family="Helvetica,sans-Serif" font-size="10.00"> ArrayRef&lt; Position * &gt;, ArrayRef</text>
<text text-anchor="middle" x="450" y="-941.5" font-family="Helvetica,sans-Serif" font-size="10.00">&lt; Type &gt;, bool &gt;, Predicates::ConstraintQuestion &gt;</text>
</a>
</g>
</g>
<!-- Node1&#45;&gt;Node7 -->
<g id="edge6_Node000001_Node000007" class="edge">
<title>Node1&#45;&gt;Node7</title>
<g id="a_edge6_Node000001_Node000007"><a xlink:title=" ">
<path fill="none" stroke="#63b8ff" d="M217.09,-588.37C216.17,-653.59 222.99,-828.72 316,-925 319.27,-928.39 322.82,-931.5 326.58,-934.35"/>
<polygon fill="#63b8ff" stroke="#63b8ff" points="220.59,-588.26 217.31,-578.19 213.59,-588.11 220.59,-588.26"/>
</a>
</g>
</g>
<!-- Node9 -->
<g id="Node000009" class="node">
<title>Node9</title>
<g id="a_Node000009"><a xlink:href="classmlir_1_1pdl__to__pdl__interp_1_1PredicateBase.html" target="_top" xlink:title=" ">
<polygon fill="white" stroke="#666666" points="544,-916 356,-916 356,-864 544,-864 544,-916"/>
<text text-anchor="start" x="364" y="-904" font-family="Helvetica,sans-Serif" font-size="10.00">mlir::pdl_to_pdl_interp</text>
<text text-anchor="start" x="364" y="-893" font-family="Helvetica,sans-Serif" font-size="10.00">::PredicateBase&lt; EqualToQuestion,</text>
<text text-anchor="start" x="364" y="-882" font-family="Helvetica,sans-Serif" font-size="10.00"> Qualifier, Position *, Predicates</text>
<text text-anchor="middle" x="450" y="-871" font-family="Helvetica,sans-Serif" font-size="10.00">::EqualToQuestion &gt;</text>
</a>
</g>
</g>
<!-- Node1&#45;&gt;Node9 -->
<g id="edge8_Node000001_Node000009" class="edge">
<title>Node1&#45;&gt;Node9</title>
<g id="a_edge8_Node000001_Node000009"><a xlink:title=" ">
<path fill="none" stroke="#63b8ff" d="M218.8,-588.18C221.99,-644.6 237.84,-781.88 316,-855 327.25,-865.52 341.27,-872.96 355.95,-878.21"/>
<polygon fill="#63b8ff" stroke="#63b8ff" points="222.29,-587.84 218.31,-578.02 215.29,-588.18 222.29,-587.84"/>
</a>
</g>
</g>
<!-- Node11 -->
<g id="Node000011" class="node">
<title>Node11</title>
<g id="a_Node000011"><a xlink:href="classmlir_1_1pdl__to__pdl__interp_1_1PredicateBase.html" target="_top" xlink:title=" ">
<polygon fill="white" stroke="#666666" points="533.5,-846 366.5,-846 366.5,-794 533.5,-794 533.5,-846"/>
<text text-anchor="start" x="374.5" y="-834" font-family="Helvetica,sans-Serif" font-size="10.00">mlir::pdl_to_pdl_interp</text>
<text text-anchor="start" x="374.5" y="-823" font-family="Helvetica,sans-Serif" font-size="10.00">::PredicateBase&lt; FalseAnswer,</text>
<text text-anchor="start" x="374.5" y="-812" font-family="Helvetica,sans-Serif" font-size="10.00"> Qualifier, void, Predicates</text>
<text text-anchor="middle" x="450" y="-801" font-family="Helvetica,sans-Serif" font-size="10.00">::FalseAnswer &gt;</text>
</a>
</g>
</g>
<!-- Node1&#45;&gt;Node11 -->
<g id="edge10_Node000001_Node000011" class="edge">
<title>Node1&#45;&gt;Node11</title>
<g id="a_edge10_Node000001_Node000011"><a xlink:title=" ">
<path fill="none" stroke="#63b8ff" d="M221.82,-588.11C230.2,-634.25 254.57,-732.61 316,-785 330.26,-797.16 348.28,-805.16 366.41,-810.4"/>
<polygon fill="#63b8ff" stroke="#63b8ff" points="225.24,-587.33 220.1,-578.07 218.34,-588.51 225.24,-587.33"/>
</a>
</g>
</g>
<!-- Node13 -->
<g id="Node000013" class="node">
<title>Node13</title>
<g id="a_Node000013"><a xlink:href="classmlir_1_1pdl__to__pdl__interp_1_1PredicateBase.html" target="_top" xlink:title=" ">
<polygon fill="white" stroke="#666666" points="547.5,-776 352.5,-776 352.5,-724 547.5,-724 547.5,-776"/>
<text text-anchor="start" x="360.5" y="-764" font-family="Helvetica,sans-Serif" font-size="10.00">mlir::pdl_to_pdl_interp</text>
<text text-anchor="start" x="360.5" y="-753" font-family="Helvetica,sans-Serif" font-size="10.00">::PredicateBase&lt; IsNotNullQuestion,</text>
<text text-anchor="start" x="360.5" y="-742" font-family="Helvetica,sans-Serif" font-size="10.00"> Qualifier, void, Predicates</text>
<text text-anchor="middle" x="450" y="-731" font-family="Helvetica,sans-Serif" font-size="10.00">::IsNotNullQuestion &gt;</text>
</a>
</g>
</g>
<!-- Node1&#45;&gt;Node13 -->
<g id="edge12_Node000001_Node000013" class="edge">
<title>Node1&#45;&gt;Node13</title>
<g id="a_edge12_Node000001_Node000013"><a xlink:title=" ">
<path fill="none" stroke="#63b8ff" d="M227.24,-587.81C241.18,-621.77 270.86,-682.25 316,-715 326.92,-722.92 339.5,-729.05 352.47,-733.8"/>
<polygon fill="#63b8ff" stroke="#63b8ff" points="230.36,-586.18 223.42,-578.18 223.85,-588.76 230.36,-586.18"/>
</a>
</g>
</g>
<!-- Node15 -->
<g id="Node000015" class="node">
<title>Node15</title>
<g id="a_Node000015"><a xlink:href="classmlir_1_1pdl__to__pdl__interp_1_1PredicateBase.html" target="_top" xlink:title=" ">
<polygon fill="white" stroke="#666666" points="555,-705.5 345,-705.5 345,-642.5 555,-642.5 555,-705.5"/>
<text text-anchor="start" x="353" y="-693.5" font-family="Helvetica,sans-Serif" font-size="10.00">mlir::pdl_to_pdl_interp</text>
<text text-anchor="start" x="353" y="-682.5" font-family="Helvetica,sans-Serif" font-size="10.00">::PredicateBase&lt; OperandCount</text>
<text text-anchor="start" x="353" y="-671.5" font-family="Helvetica,sans-Serif" font-size="10.00">AtLeastQuestion, Qualifier,</text>
<text text-anchor="start" x="353" y="-660.5" font-family="Helvetica,sans-Serif" font-size="10.00"> void, Predicates::OperandCountAtLeast</text>
<text text-anchor="middle" x="450" y="-649.5" font-family="Helvetica,sans-Serif" font-size="10.00">Question &gt;</text>
</a>
</g>
</g>
<!-- Node1&#45;&gt;Node15 -->
<g id="edge14_Node000001_Node000015" class="edge">
<title>Node1&#45;&gt;Node15</title>
<g id="a_edge14_Node000001_Node000015"><a xlink:title=" ">
<path fill="none" stroke="#63b8ff" d="M243.17,-584.45C262.15,-599.74 289.39,-619.83 316,-633 325.2,-637.56 335.02,-641.73 344.98,-645.52"/>
<polygon fill="#63b8ff" stroke="#63b8ff" points="245.27,-581.64 235.31,-578.02 240.83,-587.06 245.27,-581.64"/>
</a>
</g>
</g>
<!-- Node17 -->
<g id="Node000017" class="node">
<title>Node17</title>
<g id="a_Node000017"><a xlink:href="classmlir_1_1pdl__to__pdl__interp_1_1PredicateBase.html" target="_top" xlink:title=" ">
<polygon fill="white" stroke="#666666" points="550.5,-624 349.5,-624 349.5,-572 550.5,-572 550.5,-624"/>
<text text-anchor="start" x="357.5" y="-612" font-family="Helvetica,sans-Serif" font-size="10.00">mlir::pdl_to_pdl_interp</text>
<text text-anchor="start" x="357.5" y="-601" font-family="Helvetica,sans-Serif" font-size="10.00">::PredicateBase&lt; OperandCount</text>
<text text-anchor="start" x="357.5" y="-590" font-family="Helvetica,sans-Serif" font-size="10.00">Question, Qualifier, void,</text>
<text text-anchor="middle" x="450" y="-579" font-family="Helvetica,sans-Serif" font-size="10.00"> Predicates::OperandCountQuestion &gt;</text>
</a>
</g>
</g>
<!-- Node1&#45;&gt;Node17 -->
<g id="edge16_Node000001_Node000017" class="edge">
<title>Node1&#45;&gt;Node17</title>
<g id="a_edge16_Node000001_Node000017"><a xlink:title=" ">
<path fill="none" stroke="#63b8ff" d="M290.12,-573.93C308.85,-576.76 329.36,-579.87 349.23,-582.88"/>
<polygon fill="#63b8ff" stroke="#63b8ff" points="290.62,-570.46 280.21,-572.43 289.57,-577.38 290.62,-570.46"/>
</a>
</g>
</g>
<!-- Node19 -->
<g id="Node000019" class="node">
<title>Node19</title>
<g id="a_Node000019"><a xlink:href="classmlir_1_1pdl__to__pdl__interp_1_1PredicateBase.html" target="_top" xlink:title=" ">
<polygon fill="white" stroke="#666666" points="550.5,-554 349.5,-554 349.5,-502 550.5,-502 550.5,-554"/>
<text text-anchor="start" x="357.5" y="-542" font-family="Helvetica,sans-Serif" font-size="10.00">mlir::pdl_to_pdl_interp</text>
<text text-anchor="start" x="357.5" y="-531" font-family="Helvetica,sans-Serif" font-size="10.00">::PredicateBase&lt; OperationName</text>
<text text-anchor="start" x="357.5" y="-520" font-family="Helvetica,sans-Serif" font-size="10.00">Answer, Qualifier, OperationName,</text>
<text text-anchor="middle" x="450" y="-509" font-family="Helvetica,sans-Serif" font-size="10.00"> Predicates::OperationNameAnswer &gt;</text>
</a>
</g>
</g>
<!-- Node1&#45;&gt;Node19 -->
<g id="edge18_Node000001_Node000019" class="edge">
<title>Node1&#45;&gt;Node19</title>
<g id="a_edge18_Node000001_Node000019"><a xlink:title=" ">
<path fill="none" stroke="#63b8ff" d="M290.12,-552.07C308.85,-549.24 329.36,-546.13 349.23,-543.12"/>
<polygon fill="#63b8ff" stroke="#63b8ff" points="289.57,-548.62 280.21,-553.57 290.62,-555.54 289.57,-548.62"/>
</a>
</g>
</g>
<!-- Node21 -->
<g id="Node000021" class="node">
<title>Node21</title>
<g id="a_Node000021"><a xlink:href="classmlir_1_1pdl__to__pdl__interp_1_1PredicateBase.html" target="_top" xlink:title=" ">
<polygon fill="white" stroke="#666666" points="554.5,-484 345.5,-484 345.5,-432 554.5,-432 554.5,-484"/>
<text text-anchor="start" x="353.5" y="-472" font-family="Helvetica,sans-Serif" font-size="10.00">mlir::pdl_to_pdl_interp</text>
<text text-anchor="start" x="353.5" y="-461" font-family="Helvetica,sans-Serif" font-size="10.00">::PredicateBase&lt; OperationName</text>
<text text-anchor="start" x="353.5" y="-450" font-family="Helvetica,sans-Serif" font-size="10.00">Question, Qualifier, void,</text>
<text text-anchor="middle" x="450" y="-439" font-family="Helvetica,sans-Serif" font-size="10.00"> Predicates::OperationNameQuestion &gt;</text>
</a>
</g>
</g>
<!-- Node1&#45;&gt;Node21 -->
<g id="edge20_Node000001_Node000021" class="edge">
<title>Node1&#45;&gt;Node21</title>
<g id="a_edge20_Node000001_Node000021"><a xlink:title=" ">
<path fill="none" stroke="#63b8ff" d="M243.01,-541.22C261.91,-525.77 289.12,-505.61 316,-493 325.29,-488.64 335.22,-484.75 345.3,-481.31"/>
<polygon fill="#63b8ff" stroke="#63b8ff" points="240.63,-538.64 235.19,-547.73 245.11,-544.02 240.63,-538.64"/>
</a>
</g>
</g>
<!-- Node23 -->
<g id="Node000023" class="node">
<title>Node23</title>
<g id="a_Node000023"><a xlink:href="classmlir_1_1pdl__to__pdl__interp_1_1PredicateBase.html" target="_top" xlink:title=" ">
<polygon fill="white" stroke="#666666" points="550,-413.5 350,-413.5 350,-350.5 550,-350.5 550,-413.5"/>
<text text-anchor="start" x="358" y="-401.5" font-family="Helvetica,sans-Serif" font-size="10.00">mlir::pdl_to_pdl_interp</text>
<text text-anchor="start" x="358" y="-390.5" font-family="Helvetica,sans-Serif" font-size="10.00">::PredicateBase&lt; ResultCount</text>
<text text-anchor="start" x="358" y="-379.5" font-family="Helvetica,sans-Serif" font-size="10.00">AtLeastQuestion, Qualifier,</text>
<text text-anchor="start" x="358" y="-368.5" font-family="Helvetica,sans-Serif" font-size="10.00"> void, Predicates::ResultCountAtLeast</text>
<text text-anchor="middle" x="450" y="-357.5" font-family="Helvetica,sans-Serif" font-size="10.00">Question &gt;</text>
</a>
</g>
</g>
<!-- Node1&#45;&gt;Node23 -->
<g id="edge22_Node000001_Node000023" class="edge">
<title>Node1&#45;&gt;Node23</title>
<g id="a_edge22_Node000001_Node000023"><a xlink:title=" ">
<path fill="none" stroke="#63b8ff" d="M228.84,-538.55C243.94,-507.24 274.24,-453.42 316,-423 326.25,-415.53 337.89,-409.4 349.92,-404.38"/>
<polygon fill="#63b8ff" stroke="#63b8ff" points="225.55,-537.32 224.48,-547.86 231.89,-540.29 225.55,-537.32"/>
</a>
</g>
</g>
<!-- Node25 -->
<g id="Node000025" class="node">
<title>Node25</title>
<g id="a_Node000025"><a xlink:href="classmlir_1_1pdl__to__pdl__interp_1_1PredicateBase.html" target="_top" xlink:title=" ">
<polygon fill="white" stroke="#666666" points="545.5,-332 354.5,-332 354.5,-280 545.5,-280 545.5,-332"/>
<text text-anchor="start" x="362.5" y="-320" font-family="Helvetica,sans-Serif" font-size="10.00">mlir::pdl_to_pdl_interp</text>
<text text-anchor="start" x="362.5" y="-309" font-family="Helvetica,sans-Serif" font-size="10.00">::PredicateBase&lt; ResultCount</text>
<text text-anchor="start" x="362.5" y="-298" font-family="Helvetica,sans-Serif" font-size="10.00">Question, Qualifier, void,</text>
<text text-anchor="middle" x="450" y="-287" font-family="Helvetica,sans-Serif" font-size="10.00"> Predicates::ResultCountQuestion &gt;</text>
</a>
</g>
</g>
<!-- Node1&#45;&gt;Node25 -->
<g id="edge24_Node000001_Node000025" class="edge">
<title>Node1&#45;&gt;Node25</title>
<g id="a_edge24_Node000001_Node000025"><a xlink:title=" ">
<path fill="none" stroke="#63b8ff" d="M221.82,-537.89C230.2,-491.75 254.57,-393.39 316,-341 327.08,-331.55 340.43,-324.61 354.34,-319.53"/>
<polygon fill="#63b8ff" stroke="#63b8ff" points="218.34,-537.49 220.1,-547.93 225.24,-538.67 218.34,-537.49"/>
</a>
</g>
</g>
<!-- Node27 -->
<g id="Node000027" class="node">
<title>Node27</title>
<g id="a_Node000027"><a xlink:href="classmlir_1_1pdl__to__pdl__interp_1_1PredicateBase.html" target="_top" xlink:title=" ">
<polygon fill="white" stroke="#666666" points="531.5,-262 368.5,-262 368.5,-210 531.5,-210 531.5,-262"/>
<text text-anchor="start" x="376.5" y="-250" font-family="Helvetica,sans-Serif" font-size="10.00">mlir::pdl_to_pdl_interp</text>
<text text-anchor="start" x="376.5" y="-239" font-family="Helvetica,sans-Serif" font-size="10.00">::PredicateBase&lt; TrueAnswer,</text>
<text text-anchor="start" x="376.5" y="-228" font-family="Helvetica,sans-Serif" font-size="10.00"> Qualifier, void, Predicates</text>
<text text-anchor="middle" x="450" y="-217" font-family="Helvetica,sans-Serif" font-size="10.00">::TrueAnswer &gt;</text>
</a>
</g>
</g>
<!-- Node1&#45;&gt;Node27 -->
<g id="edge26_Node000001_Node000027" class="edge">
<title>Node1&#45;&gt;Node27</title>
<g id="a_edge26_Node000001_Node000027"><a xlink:title=" ">
<path fill="none" stroke="#63b8ff" d="M218.8,-537.82C221.99,-481.4 237.84,-344.12 316,-271 330.38,-257.54 349.31,-249.12 368.36,-243.89"/>
<polygon fill="#63b8ff" stroke="#63b8ff" points="215.29,-537.82 218.31,-547.98 222.29,-538.16 215.29,-537.82"/>
</a>
</g>
</g>
<!-- Node29 -->
<g id="Node000029" class="node">
<title>Node29</title>
<g id="a_Node000029"><a xlink:href="classmlir_1_1pdl__to__pdl__interp_1_1PredicateBase.html" target="_top" xlink:title=" ">
<polygon fill="white" stroke="#666666" points="533.5,-192 366.5,-192 366.5,-140 533.5,-140 533.5,-192"/>
<text text-anchor="start" x="374.5" y="-180" font-family="Helvetica,sans-Serif" font-size="10.00">mlir::pdl_to_pdl_interp</text>
<text text-anchor="start" x="374.5" y="-169" font-family="Helvetica,sans-Serif" font-size="10.00">::PredicateBase&lt; TypeAnswer,</text>
<text text-anchor="start" x="374.5" y="-158" font-family="Helvetica,sans-Serif" font-size="10.00"> Qualifier, Attribute, Predicates</text>
<text text-anchor="middle" x="450" y="-147" font-family="Helvetica,sans-Serif" font-size="10.00">::TypeAnswer &gt;</text>
</a>
</g>
</g>
<!-- Node1&#45;&gt;Node29 -->
<g id="edge28_Node000001_Node000029" class="edge">
<title>Node1&#45;&gt;Node29</title>
<g id="a_edge28_Node000001_Node000029"><a xlink:title=" ">
<path fill="none" stroke="#63b8ff" d="M221.55,-537.53C232.39,-463.29 267.33,-249.33 316,-201 329.64,-187.46 347.85,-178.97 366.41,-173.7"/>
<polygon fill="#63b8ff" stroke="#63b8ff" points="218.03,-537.42 220.07,-547.82 224.96,-538.42 218.03,-537.42"/>
</a>
</g>
</g>
<!-- Node31 -->
<g id="Node000031" class="node">
<title>Node31</title>
<g id="a_Node000031"><a xlink:href="classmlir_1_1pdl__to__pdl__interp_1_1PredicateBase.html" target="_top" xlink:title=" ">
<polygon fill="white" stroke="#666666" points="536.5,-122 363.5,-122 363.5,-70 536.5,-70 536.5,-122"/>
<text text-anchor="start" x="371.5" y="-110" font-family="Helvetica,sans-Serif" font-size="10.00">mlir::pdl_to_pdl_interp</text>
<text text-anchor="start" x="371.5" y="-99" font-family="Helvetica,sans-Serif" font-size="10.00">::PredicateBase&lt; TypeQuestion,</text>
<text text-anchor="start" x="371.5" y="-88" font-family="Helvetica,sans-Serif" font-size="10.00"> Qualifier, void, Predicates</text>
<text text-anchor="middle" x="450" y="-77" font-family="Helvetica,sans-Serif" font-size="10.00">::TypeQuestion &gt;</text>
</a>
</g>
</g>
<!-- Node1&#45;&gt;Node31 -->
<g id="edge30_Node000001_Node000031" class="edge">
<title>Node1&#45;&gt;Node31</title>
<g id="a_edge30_Node000001_Node000031"><a xlink:title=" ">
<path fill="none" stroke="#63b8ff" d="M220.33,-537.71C228.52,-454.39 258.59,-190.41 316,-131 328.69,-117.87 345.68,-109.45 363.25,-104.12"/>
<polygon fill="#63b8ff" stroke="#63b8ff" points="216.83,-537.52 219.36,-547.81 223.8,-538.19 216.83,-537.52"/>
</a>
</g>
</g>
<!-- Node33 -->
<g id="Node000033" class="node">
<title>Node33</title>
<g id="a_Node000033"><a xlink:href="classmlir_1_1pdl__to__pdl__interp_1_1PredicateBase.html" target="_top" xlink:title=" ">
<polygon fill="white" stroke="#666666" points="544,-52 356,-52 356,0 544,0 544,-52"/>
<text text-anchor="start" x="364" y="-40" font-family="Helvetica,sans-Serif" font-size="10.00">mlir::pdl_to_pdl_interp</text>
<text text-anchor="start" x="364" y="-29" font-family="Helvetica,sans-Serif" font-size="10.00">::PredicateBase&lt; UnsignedAnswer,</text>
<text text-anchor="start" x="364" y="-18" font-family="Helvetica,sans-Serif" font-size="10.00"> Qualifier, unsigned, Predicates</text>
<text text-anchor="middle" x="450" y="-7" font-family="Helvetica,sans-Serif" font-size="10.00">::UnsignedAnswer &gt;</text>
</a>
</g>
</g>
<!-- Node1&#45;&gt;Node33 -->
<g id="edge32_Node000001_Node000033" class="edge">
<title>Node1&#45;&gt;Node33</title>
<g id="a_edge32_Node000001_Node000033"><a xlink:title=" ">
<path fill="none" stroke="#63b8ff" d="M219.45,-537.94C225.25,-446.38 249.76,-131.66 316,-61 326.78,-49.5 340.84,-41.61 355.77,-36.22"/>
<polygon fill="#63b8ff" stroke="#63b8ff" points="215.95,-537.77 218.83,-547.96 222.94,-538.2 215.95,-537.77"/>
</a>
</g>
</g>
<!-- Node2 -->
<g id="Node000002" class="node">
<title>Node2</title>
<g id="a_Node000002"><a xlink:href="classmlir_1_1StorageUniquer_1_1BaseStorage.html" target="_top" xlink:title="This class acts as the base storage that all storage classes must derived from.">
<polygon fill="white" stroke="#666666" points="118,-578 0,-578 0,-548 118,-548 118,-578"/>
<text text-anchor="start" x="8" y="-566" font-family="Helvetica,sans-Serif" font-size="10.00">mlir::StorageUniquer</text>
<text text-anchor="middle" x="59" y="-555" font-family="Helvetica,sans-Serif" font-size="10.00">::BaseStorage</text>
</a>
</g>
</g>
<!-- Node2&#45;&gt;Node1 -->
<g id="edge1_Node000001_Node000002" class="edge">
<title>Node2&#45;&gt;Node1</title>
<g id="a_edge1_Node000001_Node000002"><a xlink:title=" ">
<path fill="none" stroke="#63b8ff" d="M128.36,-563C136.87,-563 145.54,-563 153.94,-563"/>
<polygon fill="#63b8ff" stroke="#63b8ff" points="128.09,-559.5 118.09,-563 128.09,-566.5 128.09,-559.5"/>
</a>
</g>
</g>
<!-- Node4 -->
<g id="Node000004" class="node">
<title>Node4</title>
<g id="a_Node000004"><a xlink:href="structmlir_1_1pdl__to__pdl__interp_1_1AttributeAnswer.html" target="_top" xlink:title="An Answer representing an Attribute value.">
<polygon fill="white" stroke="#666666" points="769.5,-1127 643.5,-1127 643.5,-1097 769.5,-1097 769.5,-1127"/>
<text text-anchor="start" x="651.5" y="-1115" font-family="Helvetica,sans-Serif" font-size="10.00">mlir::pdl_to_pdl_interp</text>
<text text-anchor="middle" x="706.5" y="-1104" font-family="Helvetica,sans-Serif" font-size="10.00">::AttributeAnswer</text>
</a>
</g>
</g>
<!-- Node3&#45;&gt;Node4 -->
<g id="edge3_Node000003_Node000004" class="edge">
<title>Node3&#45;&gt;Node4</title>
<g id="a_edge3_Node000003_Node000004"><a xlink:title=" ">
<path fill="none" stroke="#63b8ff" d="M552.82,-1112C583.47,-1112 616.17,-1112 643.41,-1112"/>
<polygon fill="#63b8ff" stroke="#63b8ff" points="552.52,-1108.5 542.52,-1112 552.52,-1115.5 552.52,-1108.5"/>
</a>
</g>
</g>
<!-- Node6 -->
<g id="Node000006" class="node">
<title>Node6</title>
<g id="a_Node000006"><a xlink:href="structmlir_1_1pdl__to__pdl__interp_1_1AttributeQuestion.html" target="_top" xlink:title="Compare an Attribute to a constant value.">
<polygon fill="white" stroke="#666666" points="769.5,-1057 643.5,-1057 643.5,-1027 769.5,-1027 769.5,-1057"/>
<text text-anchor="start" x="651.5" y="-1045" font-family="Helvetica,sans-Serif" font-size="10.00">mlir::pdl_to_pdl_interp</text>
<text text-anchor="middle" x="706.5" y="-1034" font-family="Helvetica,sans-Serif" font-size="10.00">::AttributeQuestion</text>
</a>
</g>
</g>
<!-- Node5&#45;&gt;Node6 -->
<g id="edge5_Node000005_Node000006" class="edge">
<title>Node5&#45;&gt;Node6</title>
<g id="a_edge5_Node000005_Node000006"><a xlink:title=" ">
<path fill="none" stroke="#63b8ff" d="M557.15,-1042C586.46,-1042 617.32,-1042 643.25,-1042"/>
<polygon fill="#63b8ff" stroke="#63b8ff" points="556.85,-1038.5 546.85,-1042 556.85,-1045.5 556.85,-1038.5"/>
</a>
</g>
</g>
<!-- Node8 -->
<g id="Node000008" class="node">
<title>Node8</title>
<g id="a_Node000008"><a xlink:href="structmlir_1_1pdl__to__pdl__interp_1_1ConstraintQuestion.html" target="_top" xlink:title="Apply a parameterized constraint to multiple position values and possibly produce results.">
<polygon fill="white" stroke="#666666" points="769.5,-981 643.5,-981 643.5,-951 769.5,-951 769.5,-981"/>
<text text-anchor="start" x="651.5" y="-969" font-family="Helvetica,sans-Serif" font-size="10.00">mlir::pdl_to_pdl_interp</text>
<text text-anchor="middle" x="706.5" y="-958" font-family="Helvetica,sans-Serif" font-size="10.00">::ConstraintQuestion</text>
</a>
</g>
</g>
<!-- Node7&#45;&gt;Node8 -->
<g id="edge7_Node000007_Node000008" class="edge">
<title>Node7&#45;&gt;Node8</title>
<g id="a_edge7_Node000007_Node000008"><a xlink:title=" ">
<path fill="none" stroke="#63b8ff" d="M594.37,-966C611.55,-966 628.34,-966 643.45,-966"/>
<polygon fill="#63b8ff" stroke="#63b8ff" points="594.21,-962.5 584.21,-966 594.21,-969.5 594.21,-962.5"/>
</a>
</g>
</g>
<!-- Node10 -->
<g id="Node000010" class="node">
<title>Node10</title>
<g id="a_Node000010"><a xlink:href="structmlir_1_1pdl__to__pdl__interp_1_1EqualToQuestion.html" target="_top" xlink:title="Compare the equality of two values.">
<polygon fill="white" stroke="#666666" points="769.5,-905 643.5,-905 643.5,-875 769.5,-875 769.5,-905"/>
<text text-anchor="start" x="651.5" y="-893" font-family="Helvetica,sans-Serif" font-size="10.00">mlir::pdl_to_pdl_interp</text>
<text text-anchor="middle" x="706.5" y="-882" font-family="Helvetica,sans-Serif" font-size="10.00">::EqualToQuestion</text>
</a>
</g>
</g>
<!-- Node9&#45;&gt;Node10 -->
<g id="edge9_Node000009_Node000010" class="edge">
<title>Node9&#45;&gt;Node10</title>
<g id="a_edge9_Node000009_Node000010"><a xlink:title=" ">
<path fill="none" stroke="#63b8ff" d="M554.44,-890C584.52,-890 616.43,-890 643.14,-890"/>
<polygon fill="#63b8ff" stroke="#63b8ff" points="554.32,-886.5 544.32,-890 554.32,-893.5 554.32,-886.5"/>
</a>
</g>
</g>
<!-- Node12 -->
<g id="Node000012" class="node">
<title>Node12</title>
<g id="a_Node000012"><a xlink:href="structmlir_1_1pdl__to__pdl__interp_1_1FalseAnswer.html" target="_top" xlink:title="An Answer representing a boolean &#39;false&#39; value.">
<polygon fill="white" stroke="#666666" points="769.5,-835 643.5,-835 643.5,-805 769.5,-805 769.5,-835"/>
<text text-anchor="start" x="651.5" y="-823" font-family="Helvetica,sans-Serif" font-size="10.00">mlir::pdl_to_pdl_interp</text>
<text text-anchor="middle" x="706.5" y="-812" font-family="Helvetica,sans-Serif" font-size="10.00">::FalseAnswer</text>
</a>
</g>
</g>
<!-- Node11&#45;&gt;Node12 -->
<g id="edge11_Node000011_Node000012" class="edge">
<title>Node11&#45;&gt;Node12</title>
<g id="a_edge11_Node000011_Node000012"><a xlink:title=" ">
<path fill="none" stroke="#63b8ff" d="M543.8,-820C576.96,-820 613.5,-820 643.44,-820"/>
<polygon fill="#63b8ff" stroke="#63b8ff" points="543.63,-816.5 533.63,-820 543.63,-823.5 543.63,-816.5"/>
</a>
</g>
</g>
<!-- Node14 -->
<g id="Node000014" class="node">
<title>Node14</title>
<g id="a_Node000014"><a xlink:href="structmlir_1_1pdl__to__pdl__interp_1_1IsNotNullQuestion.html" target="_top" xlink:title="Compare a positional value with null, i.e. check if it exists.">
<polygon fill="white" stroke="#666666" points="769.5,-765 643.5,-765 643.5,-735 769.5,-735 769.5,-765"/>
<text text-anchor="start" x="651.5" y="-753" font-family="Helvetica,sans-Serif" font-size="10.00">mlir::pdl_to_pdl_interp</text>
<text text-anchor="middle" x="706.5" y="-742" font-family="Helvetica,sans-Serif" font-size="10.00">::IsNotNullQuestion</text>
</a>
</g>
</g>
<!-- Node13&#45;&gt;Node14 -->
<g id="edge13_Node000013_Node000014" class="edge">
<title>Node13&#45;&gt;Node14</title>
<g id="a_edge13_Node000013_Node000014"><a xlink:title=" ">
<path fill="none" stroke="#63b8ff" d="M557.8,-750C586.92,-750 617.5,-750 643.23,-750"/>
<polygon fill="#63b8ff" stroke="#63b8ff" points="557.58,-746.5 547.58,-750 557.58,-753.5 557.58,-746.5"/>
</a>
</g>
</g>
<!-- Node16 -->
<g id="Node000016" class="node">
<title>Node16</title>
<g id="a_Node000016"><a xlink:href="structmlir_1_1pdl__to__pdl__interp_1_1OperandCountAtLeastQuestion.html" target="_top" xlink:title=" ">
<polygon fill="white" stroke="#666666" points="793,-689 620,-689 620,-659 793,-659 793,-689"/>
<text text-anchor="start" x="628" y="-677" font-family="Helvetica,sans-Serif" font-size="10.00">mlir::pdl_to_pdl_interp</text>
<text text-anchor="middle" x="706.5" y="-666" font-family="Helvetica,sans-Serif" font-size="10.00">::OperandCountAtLeastQuestion</text>
</a>
</g>
</g>
<!-- Node15&#45;&gt;Node16 -->
<g id="edge15_Node000015_Node000016" class="edge">
<title>Node15&#45;&gt;Node16</title>
<g id="a_edge15_Node000015_Node000016"><a xlink:title=" ">
<path fill="none" stroke="#63b8ff" d="M565.34,-674C583.6,-674 602.21,-674 619.65,-674"/>
<polygon fill="#63b8ff" stroke="#63b8ff" points="565.25,-670.5 555.25,-674 565.25,-677.5 565.25,-670.5"/>
</a>
</g>
</g>
<!-- Node18 -->
<g id="Node000018" class="node">
<title>Node18</title>
<g id="a_Node000018"><a xlink:href="structmlir_1_1pdl__to__pdl__interp_1_1OperandCountQuestion.html" target="_top" xlink:title="Compare the number of operands of an operation with a known value.">
<polygon fill="white" stroke="#666666" points="774.5,-613 638.5,-613 638.5,-583 774.5,-583 774.5,-613"/>
<text text-anchor="start" x="646.5" y="-601" font-family="Helvetica,sans-Serif" font-size="10.00">mlir::pdl_to_pdl_interp</text>
<text text-anchor="middle" x="706.5" y="-590" font-family="Helvetica,sans-Serif" font-size="10.00">::OperandCountQuestion</text>
</a>
</g>
</g>
<!-- Node17&#45;&gt;Node18 -->
<g id="edge17_Node000017_Node000018" class="edge">
<title>Node17&#45;&gt;Node18</title>
<g id="a_edge17_Node000017_Node000018"><a xlink:title=" ">
<path fill="none" stroke="#63b8ff" d="M560.91,-598C587.3,-598 614.7,-598 638.47,-598"/>
<polygon fill="#63b8ff" stroke="#63b8ff" points="560.85,-594.5 550.85,-598 560.85,-601.5 560.85,-594.5"/>
</a>
</g>
</g>
<!-- Node20 -->
<g id="Node000020" class="node">
<title>Node20</title>
<g id="a_Node000020"><a xlink:href="structmlir_1_1pdl__to__pdl__interp_1_1OperationNameAnswer.html" target="_top" xlink:title="An Answer representing an OperationName value.">
<polygon fill="white" stroke="#666666" points="774.5,-543 638.5,-543 638.5,-513 774.5,-513 774.5,-543"/>
<text text-anchor="start" x="646.5" y="-531" font-family="Helvetica,sans-Serif" font-size="10.00">mlir::pdl_to_pdl_interp</text>
<text text-anchor="middle" x="706.5" y="-520" font-family="Helvetica,sans-Serif" font-size="10.00">::OperationNameAnswer</text>
</a>
</g>
</g>
<!-- Node19&#45;&gt;Node20 -->
<g id="edge19_Node000019_Node000020" class="edge">
<title>Node19&#45;&gt;Node20</title>
<g id="a_edge19_Node000019_Node000020"><a xlink:title=" ">
<path fill="none" stroke="#63b8ff" d="M560.91,-528C587.3,-528 614.7,-528 638.47,-528"/>
<polygon fill="#63b8ff" stroke="#63b8ff" points="560.85,-524.5 550.85,-528 560.85,-531.5 560.85,-524.5"/>
</a>
</g>
</g>
<!-- Node22 -->
<g id="Node000022" class="node">
<title>Node22</title>
<g id="a_Node000022"><a xlink:href="structmlir_1_1pdl__to__pdl__interp_1_1OperationNameQuestion.html" target="_top" xlink:title="Compare the name of an operation with a known value.">
<polygon fill="white" stroke="#666666" points="778,-473 635,-473 635,-443 778,-443 778,-473"/>
<text text-anchor="start" x="643" y="-461" font-family="Helvetica,sans-Serif" font-size="10.00">mlir::pdl_to_pdl_interp</text>
<text text-anchor="middle" x="706.5" y="-450" font-family="Helvetica,sans-Serif" font-size="10.00">::OperationNameQuestion</text>
</a>
</g>
</g>
<!-- Node21&#45;&gt;Node22 -->
<g id="edge21_Node000021_Node000022" class="edge">
<title>Node21&#45;&gt;Node22</title>
<g id="a_edge21_Node000021_Node000022"><a xlink:title=" ">
<path fill="none" stroke="#63b8ff" d="M564.69,-458C588.54,-458 613.04,-458 634.78,-458"/>
<polygon fill="#63b8ff" stroke="#63b8ff" points="564.51,-454.5 554.51,-458 564.51,-461.5 564.51,-454.5"/>
</a>
</g>
</g>
<!-- Node24 -->
<g id="Node000024" class="node">
<title>Node24</title>
<g id="a_Node000024"><a xlink:href="structmlir_1_1pdl__to__pdl__interp_1_1ResultCountAtLeastQuestion.html" target="_top" xlink:title=" ">
<polygon fill="white" stroke="#666666" points="787.5,-397 625.5,-397 625.5,-367 787.5,-367 787.5,-397"/>
<text text-anchor="start" x="633.5" y="-385" font-family="Helvetica,sans-Serif" font-size="10.00">mlir::pdl_to_pdl_interp</text>
<text text-anchor="middle" x="706.5" y="-374" font-family="Helvetica,sans-Serif" font-size="10.00">::ResultCountAtLeastQuestion</text>
</a>
</g>
</g>
<!-- Node23&#45;&gt;Node24 -->
<g id="edge23_Node000023_Node000024" class="edge">
<title>Node23&#45;&gt;Node24</title>
<g id="a_edge23_Node000023_Node000024"><a xlink:title=" ">
<path fill="none" stroke="#63b8ff" d="M560.39,-382C582.13,-382 604.57,-382 625.12,-382"/>
<polygon fill="#63b8ff" stroke="#63b8ff" points="560.13,-378.5 550.13,-382 560.13,-385.5 560.13,-378.5"/>
</a>
</g>
</g>
<!-- Node26 -->
<g id="Node000026" class="node">
<title>Node26</title>
<g id="a_Node000026"><a xlink:href="structmlir_1_1pdl__to__pdl__interp_1_1ResultCountQuestion.html" target="_top" xlink:title="Compare the number of results of an operation with a known value.">
<polygon fill="white" stroke="#666666" points="769.5,-321 643.5,-321 643.5,-291 769.5,-291 769.5,-321"/>
<text text-anchor="start" x="651.5" y="-309" font-family="Helvetica,sans-Serif" font-size="10.00">mlir::pdl_to_pdl_interp</text>
<text text-anchor="middle" x="706.5" y="-298" font-family="Helvetica,sans-Serif" font-size="10.00">::ResultCountQuestion</text>
</a>
</g>
</g>
<!-- Node25&#45;&gt;Node26 -->
<g id="edge25_Node000025_Node000026" class="edge">
<title>Node25&#45;&gt;Node26</title>
<g id="a_edge25_Node000025_Node000026"><a xlink:title=" ">
<path fill="none" stroke="#63b8ff" d="M555.8,-306C585.6,-306 617.1,-306 643.47,-306"/>
<polygon fill="#63b8ff" stroke="#63b8ff" points="555.77,-302.5 545.77,-306 555.77,-309.5 555.77,-302.5"/>
</a>
</g>
</g>
<!-- Node28 -->
<g id="Node000028" class="node">
<title>Node28</title>
<g id="a_Node000028"><a xlink:href="structmlir_1_1pdl__to__pdl__interp_1_1TrueAnswer.html" target="_top" xlink:title="An Answer representing a boolean true value.">
<polygon fill="white" stroke="#666666" points="769.5,-251 643.5,-251 643.5,-221 769.5,-221 769.5,-251"/>
<text text-anchor="start" x="651.5" y="-239" font-family="Helvetica,sans-Serif" font-size="10.00">mlir::pdl_to_pdl_interp</text>
<text text-anchor="middle" x="706.5" y="-228" font-family="Helvetica,sans-Serif" font-size="10.00">::TrueAnswer</text>
</a>
</g>
</g>
<!-- Node27&#45;&gt;Node28 -->
<g id="edge27_Node000027_Node000028" class="edge">
<title>Node27&#45;&gt;Node28</title>
<g id="a_edge27_Node000027_Node000028"><a xlink:title=" ">
<path fill="none" stroke="#63b8ff" d="M541.82,-236C575.43,-236 612.74,-236 643.24,-236"/>
<polygon fill="#63b8ff" stroke="#63b8ff" points="541.53,-232.5 531.53,-236 541.53,-239.5 541.53,-232.5"/>
</a>
</g>
</g>
<!-- Node30 -->
<g id="Node000030" class="node">
<title>Node30</title>
<g id="a_Node000030"><a xlink:href="structmlir_1_1pdl__to__pdl__interp_1_1TypeAnswer.html" target="_top" xlink:title="An Answer representing a Type value.">
<polygon fill="white" stroke="#666666" points="769.5,-181 643.5,-181 643.5,-151 769.5,-151 769.5,-181"/>
<text text-anchor="start" x="651.5" y="-169" font-family="Helvetica,sans-Serif" font-size="10.00">mlir::pdl_to_pdl_interp</text>
<text text-anchor="middle" x="706.5" y="-158" font-family="Helvetica,sans-Serif" font-size="10.00">::TypeAnswer</text>
</a>
</g>
</g>
<!-- Node29&#45;&gt;Node30 -->
<g id="edge29_Node000029_Node000030" class="edge">
<title>Node29&#45;&gt;Node30</title>
<g id="a_edge29_Node000029_Node000030"><a xlink:title=" ">
<path fill="none" stroke="#63b8ff" d="M543.8,-166C576.96,-166 613.5,-166 643.44,-166"/>
<polygon fill="#63b8ff" stroke="#63b8ff" points="543.63,-162.5 533.63,-166 543.63,-169.5 543.63,-162.5"/>
</a>
</g>
</g>
<!-- Node32 -->
<g id="Node000032" class="node">
<title>Node32</title>
<g id="a_Node000032"><a xlink:href="structmlir_1_1pdl__to__pdl__interp_1_1TypeQuestion.html" target="_top" xlink:title="Compare the type of an attribute or value with a known type.">
<polygon fill="white" stroke="#666666" points="769.5,-111 643.5,-111 643.5,-81 769.5,-81 769.5,-111"/>
<text text-anchor="start" x="651.5" y="-99" font-family="Helvetica,sans-Serif" font-size="10.00">mlir::pdl_to_pdl_interp</text>
<text text-anchor="middle" x="706.5" y="-88" font-family="Helvetica,sans-Serif" font-size="10.00">::TypeQuestion</text>
</a>
</g>
</g>
<!-- Node31&#45;&gt;Node32 -->
<g id="edge31_Node000031_Node000032" class="edge">
<title>Node31&#45;&gt;Node32</title>
<g id="a_edge31_Node000031_Node000032"><a xlink:title=" ">
<path fill="none" stroke="#63b8ff" d="M547.16,-96C579.39,-96 614.46,-96 643.38,-96"/>
<polygon fill="#63b8ff" stroke="#63b8ff" points="546.81,-92.5 536.81,-96 546.81,-99.5 546.81,-92.5"/>
</a>
</g>
</g>
<!-- Node34 -->
<g id="Node000034" class="node">
<title>Node34</title>
<g id="a_Node000034"><a xlink:href="structmlir_1_1pdl__to__pdl__interp_1_1UnsignedAnswer.html" target="_top" xlink:title="An Answer representing an unsigned value.">
<polygon fill="white" stroke="#666666" points="769.5,-41 643.5,-41 643.5,-11 769.5,-11 769.5,-41"/>
<text text-anchor="start" x="651.5" y="-29" font-family="Helvetica,sans-Serif" font-size="10.00">mlir::pdl_to_pdl_interp</text>
<text text-anchor="middle" x="706.5" y="-18" font-family="Helvetica,sans-Serif" font-size="10.00">::UnsignedAnswer</text>
</a>
</g>
</g>
<!-- Node33&#45;&gt;Node34 -->
<g id="edge33_Node000033_Node000034" class="edge">
<title>Node33&#45;&gt;Node34</title>
<g id="a_edge33_Node000033_Node000034"><a xlink:title=" ">
<path fill="none" stroke="#63b8ff" d="M554.44,-26C584.52,-26 616.43,-26 643.14,-26"/>
<polygon fill="#63b8ff" stroke="#63b8ff" points="554.32,-22.5 544.32,-26 554.32,-29.5 554.32,-22.5"/>
</a>
</g>
</g>
</g>
</svg>
