<?xml version="1.0" encoding="UTF-8" standalone="no"?>
<!DOCTYPE svg PUBLIC "-//W3C//DTD SVG 1.1//EN"
 "http://www.w3.org/Graphics/SVG/1.1/DTD/svg11.dtd">
<!-- Generated by graphviz version 2.43.0 (0)
 -->
<!-- Title: mlir::SimpleAffineExprFlattener Pages: 1 -->
<svg width="1359pt" height="90pt"
 viewBox="0.00 0.00 1359.00 90.00" xmlns="http://www.w3.org/2000/svg" xmlns:xlink="http://www.w3.org/1999/xlink">
<g id="graph0" class="graph" transform="scale(1 1) rotate(0) translate(4 86)">
<title>mlir::SimpleAffineExprFlattener</title>
<!-- Node1 -->
<g id="Node000001" class="node">
<title>Node1</title>
<g id="a_Node000001"><a xlink:title=" ">
<polygon fill="#999999" stroke="#666666" points="1351,-46.5 1181,-46.5 1181,-27.5 1351,-27.5 1351,-46.5"/>
<text text-anchor="middle" x="1266" y="-34.5" font-family="Helvetica,sans-Serif" font-size="10.00">mlir::SimpleAffineExprFlattener</text>
</a>
</g>
</g>
<!-- Node2 -->
<g id="Node000002" class="node">
<title>Node2</title>
<g id="a_Node000002"><a xlink:href="classmlir_1_1AffineExprVisitor.html" target="_top" xlink:title=" ">
<polygon fill="white" stroke="#666666" points="1144,-57.5 985,-57.5 985,-16.5 1144,-16.5 1144,-57.5"/>
<text text-anchor="start" x="993" y="-45.5" font-family="Helvetica,sans-Serif" font-size="10.00">mlir::AffineExprVisitor</text>
<text text-anchor="start" x="993" y="-34.5" font-family="Helvetica,sans-Serif" font-size="10.00">&lt; SimpleAffineExprFlattener,</text>
<text text-anchor="middle" x="1064.5" y="-23.5" font-family="Helvetica,sans-Serif" font-size="10.00"> LogicalResult &gt;</text>
</a>
</g>
</g>
<!-- Node2&#45;&gt;Node1 -->
<g id="edge1_Node000001_Node000002" class="edge">
<title>Node2&#45;&gt;Node1</title>
<g id="a_edge1_Node000001_Node000002"><a xlink:title=" ">
<path fill="none" stroke="#63b8ff" d="M1154.07,-37C1163,-37 1172.04,-37 1180.92,-37"/>
<polygon fill="#63b8ff" stroke="#63b8ff" points="1154.06,-33.5 1144.06,-37 1154.06,-40.5 1154.06,-33.5"/>
</a>
</g>
</g>
<!-- Node3 -->
<g id="Node000003" class="node">
<title>Node3</title>
<g id="a_Node000003"><a xlink:href="classmlir_1_1AffineExprVisitorBase.html" target="_top" xlink:title=" ">
<polygon fill="white" stroke="#666666" points="658,-81.5 499,-81.5 499,-40.5 658,-40.5 658,-81.5"/>
<text text-anchor="start" x="507" y="-69.5" font-family="Helvetica,sans-Serif" font-size="10.00">mlir::AffineExprVisitorBase</text>
<text text-anchor="start" x="507" y="-58.5" font-family="Helvetica,sans-Serif" font-size="10.00">&lt; SimpleAffineExprFlattener,</text>
<text text-anchor="middle" x="578.5" y="-47.5" font-family="Helvetica,sans-Serif" font-size="10.00"> LogicalResult &gt;</text>
</a>
</g>
</g>
<!-- Node3&#45;&gt;Node2 -->
<g id="edge2_Node000002_Node000003" class="edge">
<title>Node3&#45;&gt;Node2</title>
<g id="a_edge2_Node000002_Node000003"><a xlink:title=" ">
<path fill="none" stroke="#63b8ff" d="M668.6,-59.48C747.2,-57.73 864.81,-54.13 967,-47 972.8,-46.6 978.78,-46.12 984.8,-45.6"/>
<polygon fill="#63b8ff" stroke="#63b8ff" points="668.17,-55.99 658.25,-59.7 668.32,-62.99 668.17,-55.99"/>
</a>
</g>
</g>
<!-- Node4 -->
<g id="Node000004" class="node">
<title>Node4</title>
<g id="a_Node000004"><a xlink:href="classmlir_1_1AffineExprVisitorBase.html" target="_top" xlink:title="Base class for AffineExpr visitors/walkers.">
<polygon fill="white" stroke="#666666" points="148,-55 0,-55 0,-25 148,-25 148,-55"/>
<text text-anchor="start" x="8" y="-43" font-family="Helvetica,sans-Serif" font-size="10.00">mlir::AffineExprVisitorBase</text>
<text text-anchor="middle" x="74" y="-32" font-family="Helvetica,sans-Serif" font-size="10.00">&lt; SubClass, RetTy &gt;</text>
</a>
</g>
</g>
<!-- Node4&#45;&gt;Node3 -->
<g id="edge3_Node000003_Node000004" class="edge">
<title>Node4&#45;&gt;Node3</title>
<g id="a_edge3_Node000003_Node000004"><a xlink:title=" ">
<path fill="none" stroke="orange" stroke-dasharray="5,2" d="M158.17,-43.48C252.83,-47.43 406.28,-53.84 498.96,-57.72"/>
<polygon fill="orange" stroke="orange" points="158.21,-39.97 148.07,-43.05 157.91,-46.97 158.21,-39.97"/>
</a>
</g>
<text text-anchor="start" x="169.5" y="-71" font-family="Helvetica,sans-Serif" font-size="10.00" fill="grey">&lt; SimpleAffineExprFlattener,</text>
<text text-anchor="start" x="169.5" y="-56" font-family="Helvetica,sans-Serif" font-size="10.00" fill="grey">   LogicalResult &gt;</text>
</g>
<!-- Node6 -->
<g id="Node000006" class="node">
<title>Node6</title>
<g id="a_Node000006"><a xlink:href="classmlir_1_1AffineExprVisitorBase.html" target="_top" xlink:title=" ">
<polygon fill="white" stroke="#666666" points="481,-33 333,-33 333,-3 481,-3 481,-33"/>
<text text-anchor="start" x="341" y="-21" font-family="Helvetica,sans-Serif" font-size="10.00">mlir::AffineExprVisitorBase</text>
<text text-anchor="middle" x="407" y="-10" font-family="Helvetica,sans-Serif" font-size="10.00">&lt; SubClass, void &gt;</text>
</a>
</g>
</g>
<!-- Node4&#45;&gt;Node6 -->
<g id="edge6_Node000006_Node000004" class="edge">
<title>Node4&#45;&gt;Node6</title>
<g id="a_edge6_Node000006_Node000004"><a xlink:title=" ">
<path fill="none" stroke="orange" stroke-dasharray="5,2" d="M154.25,-23.46C158.21,-22.9 162.15,-22.41 166,-22 221.74,-16.07 285.15,-15.27 332.8,-15.84"/>
<polygon fill="orange" stroke="orange" points="153.73,-20 144.36,-24.95 154.77,-26.92 153.73,-20"/>
</a>
</g>
<text text-anchor="start" x="193.5" y="-27.5" font-family="Helvetica,sans-Serif" font-size="10.00" fill="grey">&lt; SubClass, void &gt;</text>
</g>
<!-- Node5 -->
<g id="Node000005" class="node">
<title>Node5</title>
<g id="a_Node000005"><a xlink:href="classmlir_1_1AffineExprVisitor.html" target="_top" xlink:title="See documentation for AffineExprVisitorBase.">
<polygon fill="white" stroke="#666666" points="800,-30 676,-30 676,0 800,0 800,-30"/>
<text text-anchor="start" x="684" y="-18" font-family="Helvetica,sans-Serif" font-size="10.00">mlir::AffineExprVisitor</text>
<text text-anchor="middle" x="738" y="-7" font-family="Helvetica,sans-Serif" font-size="10.00">&lt; SubClass, RetTy &gt;</text>
</a>
</g>
</g>
<!-- Node5&#45;&gt;Node2 -->
<g id="edge4_Node000002_Node000005" class="edge">
<title>Node5&#45;&gt;Node2</title>
<g id="a_edge4_Node000002_Node000005"><a xlink:title=" ">
<path fill="none" stroke="orange" stroke-dasharray="5,2" d="M810.43,-10.91C855.49,-9.34 914.82,-9.13 967,-15 972.81,-15.65 978.77,-16.52 984.75,-17.54"/>
<polygon fill="orange" stroke="orange" points="810.03,-7.42 800.17,-11.3 810.3,-14.42 810.03,-7.42"/>
</a>
</g>
<text text-anchor="start" x="821.5" y="-36" font-family="Helvetica,sans-Serif" font-size="10.00" fill="grey">&lt; SimpleAffineExprFlattener,</text>
<text text-anchor="start" x="821.5" y="-21" font-family="Helvetica,sans-Serif" font-size="10.00" fill="grey">   LogicalResult &gt;</text>
</g>
<!-- Node6&#45;&gt;Node5 -->
<g id="edge5_Node000005_Node000006" class="edge">
<title>Node6&#45;&gt;Node5</title>
<g id="a_edge5_Node000005_Node000006"><a xlink:title=" ">
<path fill="none" stroke="#63b8ff" d="M491.16,-17.24C548.62,-16.72 623.76,-16.03 675.77,-15.56"/>
<polygon fill="#63b8ff" stroke="#63b8ff" points="490.98,-13.74 481.02,-17.33 491.05,-20.74 490.98,-13.74"/>
</a>
</g>
</g>
</g>
</svg>
