<?xml version="1.0" encoding="UTF-8" standalone="no"?>
<!DOCTYPE svg PUBLIC "-//W3C//DTD SVG 1.1//EN"
 "http://www.w3.org/Graphics/SVG/1.1/DTD/svg11.dtd">
<!-- Generated by graphviz version 2.43.0 (0)
 -->
<!-- Title: mlir::impl::ConvertMathToLibmPassBase&lt; DerivedT &gt; Pages: 1 -->
<svg width="209pt" height="244pt"
 viewBox="0.00 0.00 208.50 244.00" xmlns="http://www.w3.org/2000/svg" xmlns:xlink="http://www.w3.org/1999/xlink">
<g id="graph0" class="graph" transform="scale(1 1) rotate(0) translate(4 240)">
<title>mlir::impl::ConvertMathToLibmPassBase&lt; DerivedT &gt;</title>
<!-- Node1 -->
<g id="Node000001" class="node">
<title>Node1</title>
<g id="a_Node000001"><a xlink:title=" ">
<polygon fill="#999999" stroke="#666666" points="153,-30 0,-30 0,0 153,0 153,-30"/>
<text text-anchor="start" x="8" y="-18" font-family="Helvetica,sans-Serif" font-size="10.00">mlir::impl::ConvertMathTo</text>
<text text-anchor="middle" x="76.5" y="-7" font-family="Helvetica,sans-Serif" font-size="10.00">LibmPassBase&lt; DerivedT &gt;</text>
</a>
</g>
</g>
<!-- Node2 -->
<g id="Node000002" class="node">
<title>Node2</title>
<g id="a_Node000002"><a xlink:href="classmlir_1_1OperationPass.html" target="_top" xlink:title=" ">
<polygon fill="white" stroke="#666666" points="132.5,-97 20.5,-97 20.5,-67 132.5,-67 132.5,-97"/>
<text text-anchor="start" x="28.5" y="-85" font-family="Helvetica,sans-Serif" font-size="10.00">mlir::OperationPass</text>
<text text-anchor="middle" x="76.5" y="-74" font-family="Helvetica,sans-Serif" font-size="10.00">&lt; ModuleOp &gt;</text>
</a>
</g>
</g>
<!-- Node2&#45;&gt;Node1 -->
<g id="edge1_Node000001_Node000002" class="edge">
<title>Node2&#45;&gt;Node1</title>
<g id="a_edge1_Node000001_Node000002"><a xlink:title=" ">
<path fill="none" stroke="#63b8ff" d="M76.5,-56.61C76.5,-47.65 76.5,-37.82 76.5,-30.08"/>
<polygon fill="#63b8ff" stroke="#63b8ff" points="73,-56.9 76.5,-66.9 80,-56.9 73,-56.9"/>
</a>
</g>
</g>
<!-- Node3 -->
<g id="Node000003" class="node">
<title>Node3</title>
<g id="a_Node000003"><a xlink:href="classmlir_1_1Pass.html" target="_top" xlink:title="The abstract base pass class.">
<polygon fill="white" stroke="#666666" points="104.5,-236 40.5,-236 40.5,-217 104.5,-217 104.5,-236"/>
<text text-anchor="middle" x="72.5" y="-224" font-family="Helvetica,sans-Serif" font-size="10.00">mlir::Pass</text>
</a>
</g>
</g>
<!-- Node3&#45;&gt;Node2 -->
<g id="edge2_Node000002_Node000003" class="edge">
<title>Node3&#45;&gt;Node2</title>
<g id="a_edge2_Node000002_Node000003"><a xlink:title=" ">
<path fill="none" stroke="#63b8ff" d="M73.03,-206.54C73.85,-177.58 75.38,-122.99 76.1,-97.19"/>
<polygon fill="#63b8ff" stroke="#63b8ff" points="69.53,-206.49 72.75,-216.59 76.53,-206.69 69.53,-206.49"/>
</a>
</g>
</g>
<!-- Node4 -->
<g id="Node000004" class="node">
<title>Node4</title>
<g id="a_Node000004"><a xlink:href="classmlir_1_1OperationPass.html" target="_top" xlink:title="Pass to transform an operation of a specific type.">
<polygon fill="white" stroke="#666666" points="200.5,-180 88.5,-180 88.5,-150 200.5,-150 200.5,-180"/>
<text text-anchor="start" x="96.5" y="-168" font-family="Helvetica,sans-Serif" font-size="10.00">mlir::OperationPass</text>
<text text-anchor="middle" x="144.5" y="-157" font-family="Helvetica,sans-Serif" font-size="10.00">&lt; OpT &gt;</text>
</a>
</g>
</g>
<!-- Node3&#45;&gt;Node4 -->
<g id="edge4_Node000004_Node000003" class="edge">
<title>Node3&#45;&gt;Node4</title>
<g id="a_edge4_Node000004_Node000003"><a xlink:title=" ">
<path fill="none" stroke="#63b8ff" d="M90.75,-210.42C102.05,-201.08 116.47,-189.16 127.53,-180.02"/>
<polygon fill="#63b8ff" stroke="#63b8ff" points="88.29,-207.91 82.82,-216.98 92.75,-213.3 88.29,-207.91"/>
</a>
</g>
</g>
<!-- Node4&#45;&gt;Node2 -->
<g id="edge3_Node000002_Node000004" class="edge">
<title>Node4&#45;&gt;Node2</title>
<g id="a_edge3_Node000002_Node000004"><a xlink:title=" ">
<path fill="none" stroke="orange" stroke-dasharray="5,2" d="M126.05,-142.02C114.08,-127.76 98.84,-109.61 88.44,-97.22"/>
<polygon fill="orange" stroke="orange" points="123.54,-144.48 132.66,-149.89 128.91,-139.98 123.54,-144.48"/>
</a>
</g>
<text text-anchor="start" x="120" y="-120.5" font-family="Helvetica,sans-Serif" font-size="10.00" fill="grey">&lt; ModuleOp &gt;</text>
</g>
</g>
</svg>
