<?xml version="1.0" encoding="UTF-8" standalone="no"?>
<!DOCTYPE svg PUBLIC "-//W3C//DTD SVG 1.1//EN"
 "http://www.w3.org/Graphics/SVG/1.1/DTD/svg11.dtd">
<!-- Generated by graphviz version 2.43.0 (0)
 -->
<!-- Title: mlir::presburger::LexSimplexBase Pages: 1 -->
<svg width="330pt" height="151pt"
 viewBox="0.00 0.00 330.00 151.00" xmlns="http://www.w3.org/2000/svg" xmlns:xlink="http://www.w3.org/1999/xlink">
<g id="graph0" class="graph" transform="scale(1 1) rotate(0) translate(4 147)">
<title>mlir::presburger::LexSimplexBase</title>
<!-- Node1 -->
<g id="node1" class="node">
<title>Node1</title>
<g id="a_node1"><a xlink:title="Simplex class using the lexicographic pivot rule.">
<polygon fill="#bfbfbf" stroke="black" points="73,-67.5 73,-86.5 255,-86.5 255,-67.5 73,-67.5"/>
<text text-anchor="middle" x="164" y="-74.5" font-family="Helvetica,sans-Serif" font-size="10.00">mlir::presburger::LexSimplexBase</text>
</a>
</g>
</g>
<!-- Node3 -->
<g id="node3" class="node">
<title>Node3</title>
<g id="a_node3"><a xlink:href="classmlir_1_1presburger_1_1LexSimplex.html" target="_top" xlink:title="A class for lexicographic optimization without any symbols.">
<polygon fill="none" stroke="black" points="0,-6 0,-25 158,-25 158,-6 0,-6"/>
<text text-anchor="middle" x="79" y="-13" font-family="Helvetica,sans-Serif" font-size="10.00">mlir::presburger::LexSimplex</text>
</a>
</g>
</g>
<!-- Node1&#45;&gt;Node3 -->
<g id="edge2" class="edge">
<title>Node1&#45;&gt;Node3</title>
<path fill="none" stroke="midnightblue" d="M143.45,-61.61C127.1,-50.17 104.78,-34.55 91.16,-25.01"/>
<polygon fill="midnightblue" stroke="midnightblue" points="141.62,-64.61 151.82,-67.48 145.64,-58.87 141.62,-64.61"/>
</g>
<!-- Node4 -->
<g id="node4" class="node">
<title>Node4</title>
<g id="a_node4"><a xlink:href="classmlir_1_1presburger_1_1SymbolicLexSimplex.html" target="_top" xlink:title="A class to perform symbolic lexicographic optimization, i.e., to find, for every assignment to the sy...">
<polygon fill="none" stroke="black" points="176,-0.5 176,-30.5 322,-30.5 322,-0.5 176,-0.5"/>
<text text-anchor="start" x="184" y="-18.5" font-family="Helvetica,sans-Serif" font-size="10.00">mlir::presburger::Symbolic</text>
<text text-anchor="middle" x="249" y="-7.5" font-family="Helvetica,sans-Serif" font-size="10.00">LexSimplex</text>
</a>
</g>
</g>
<!-- Node1&#45;&gt;Node4 -->
<g id="edge3" class="edge">
<title>Node1&#45;&gt;Node4</title>
<path fill="none" stroke="midnightblue" d="M184.37,-61.74C197.88,-52.28 215.53,-39.93 228.97,-30.52"/>
<polygon fill="midnightblue" stroke="midnightblue" points="182.36,-58.87 176.18,-67.48 186.38,-64.61 182.36,-58.87"/>
</g>
<!-- Node2 -->
<g id="node2" class="node">
<title>Node2</title>
<g id="a_node2"><a xlink:href="classmlir_1_1presburger_1_1SimplexBase.html" target="_top" xlink:title="The Simplex class implements a version of the Simplex and Generalized Basis Reduction algorithms,...">
<polygon fill="none" stroke="black" points="82,-123.5 82,-142.5 246,-142.5 246,-123.5 82,-123.5"/>
<text text-anchor="middle" x="164" y="-130.5" font-family="Helvetica,sans-Serif" font-size="10.00">mlir::presburger::SimplexBase</text>
</a>
</g>
</g>
<!-- Node2&#45;&gt;Node1 -->
<g id="edge1" class="edge">
<title>Node2&#45;&gt;Node1</title>
<path fill="none" stroke="midnightblue" d="M164,-112.8C164,-103.91 164,-93.78 164,-86.75"/>
<polygon fill="midnightblue" stroke="midnightblue" points="160.5,-113.08 164,-123.08 167.5,-113.08 160.5,-113.08"/>
</g>
</g>
</svg>
