<?xml version="1.0" encoding="UTF-8" standalone="no"?>
<!DOCTYPE svg PUBLIC "-//W3C//DTD SVG 1.1//EN"
 "http://www.w3.org/Graphics/SVG/1.1/DTD/svg11.dtd">
<!-- Generated by graphviz version 2.43.0 (0)
 -->
<!-- Title: mlir::transform::ReportTrackingListenerFailuresOpTrait&lt; OpTy &gt; Pages: 1 -->
<svg width="252pt" height="207pt"
 viewBox="0.00 0.00 252.00 207.00" xmlns="http://www.w3.org/2000/svg" xmlns:xlink="http://www.w3.org/1999/xlink">
<g id="graph0" class="graph" transform="scale(1 1) rotate(0) translate(4 203)">
<title>mlir::transform::ReportTrackingListenerFailuresOpTrait&lt; OpTy &gt;</title>
<!-- Node1 -->
<g id="node1" class="node">
<title>Node1</title>
<g id="a_node1"><a xlink:title="TrackingListener failures are reported only for ops that have this trait.">
<polygon fill="#bfbfbf" stroke="black" points="0,-0.5 0,-30.5 174,-30.5 174,-0.5 0,-0.5"/>
<text text-anchor="start" x="8" y="-18.5" font-family="Helvetica,sans-Serif" font-size="10.00">mlir::transform::ReportTracking</text>
<text text-anchor="middle" x="87" y="-7.5" font-family="Helvetica,sans-Serif" font-size="10.00">ListenerFailuresOpTrait&lt; OpTy &gt;</text>
</a>
</g>
</g>
<!-- Node2 -->
<g id="node2" class="node">
<title>Node2</title>
<g id="a_node2"><a xlink:href="classmlir_1_1OpTrait_1_1TraitBase.html" target="_top" xlink:title=" ">
<polygon fill="none" stroke="black" points="2,-68.5 2,-109.5 172,-109.5 172,-68.5 2,-68.5"/>
<text text-anchor="start" x="10" y="-97.5" font-family="Helvetica,sans-Serif" font-size="10.00">mlir::OpTrait::TraitBase</text>
<text text-anchor="start" x="10" y="-86.5" font-family="Helvetica,sans-Serif" font-size="10.00">&lt; OpTy, ReportTrackingListener</text>
<text text-anchor="middle" x="87" y="-75.5" font-family="Helvetica,sans-Serif" font-size="10.00">FailuresOpTrait &gt;</text>
</a>
</g>
</g>
<!-- Node2&#45;&gt;Node1 -->
<g id="edge1" class="edge">
<title>Node2&#45;&gt;Node1</title>
<path fill="none" stroke="midnightblue" d="M87,-58.16C87,-48.69 87,-38.65 87,-30.8"/>
<polygon fill="midnightblue" stroke="midnightblue" points="83.5,-58.46 87,-68.46 90.5,-58.46 83.5,-58.46"/>
</g>
<!-- Node3 -->
<g id="node3" class="node">
<title>Node3</title>
<g id="a_node3"><a xlink:href="classmlir_1_1OpTrait_1_1TraitBase.html" target="_top" xlink:title="Helper class for implementing traits.">
<polygon fill="none" stroke="black" points="9.5,-168.5 9.5,-198.5 164.5,-198.5 164.5,-168.5 9.5,-168.5"/>
<text text-anchor="start" x="17.5" y="-186.5" font-family="Helvetica,sans-Serif" font-size="10.00">mlir::OpTrait::TraitBase</text>
<text text-anchor="middle" x="87" y="-175.5" font-family="Helvetica,sans-Serif" font-size="10.00">&lt; ConcreteType, TraitType &gt;</text>
</a>
</g>
</g>
<!-- Node3&#45;&gt;Node2 -->
<g id="edge2" class="edge">
<title>Node3&#45;&gt;Node2</title>
<path fill="none" stroke="orange" stroke-dasharray="5,2" d="M87,-158.28C87,-143.14 87,-123.88 87,-109.68"/>
<polygon fill="orange" stroke="orange" points="83.5,-158.45 87,-168.45 90.5,-158.45 83.5,-158.45"/>
<text text-anchor="start" x="87" y="-142" font-family="Helvetica,sans-Serif" font-size="10.00"> &lt; OpTy, ReportTrackingListener</text>
<text text-anchor="middle" x="165.5" y="-131" font-family="Helvetica,sans-Serif" font-size="10.00">FailuresOpTrait &gt;</text>
</g>
</g>
</svg>
