<?xml version="1.0" encoding="UTF-8" standalone="no"?>
<!DOCTYPE svg PUBLIC "-//W3C//DTD SVG 1.1//EN"
 "http://www.w3.org/Graphics/SVG/1.1/DTD/svg11.dtd">
<!-- Generated by graphviz version 2.43.0 (0)
 -->
<!-- Title: mlir::impl::TosaToLinalgBase&lt; DerivedT &gt; Pages: 1 -->
<svg width="242pt" height="311pt"
 viewBox="0.00 0.00 241.50 311.00" xmlns="http://www.w3.org/2000/svg" xmlns:xlink="http://www.w3.org/1999/xlink">
<g id="graph0" class="graph" transform="scale(1 1) rotate(0) translate(4 307)">
<title>mlir::impl::TosaToLinalgBase&lt; DerivedT &gt;</title>
<!-- Node1 -->
<g id="Node000001" class="node">
<title>Node1</title>
<g id="a_Node000001"><a xlink:title=" ">
<polygon fill="#999999" stroke="#666666" points="134,-30 3,-30 3,0 134,0 134,-30"/>
<text text-anchor="start" x="11" y="-18" font-family="Helvetica,sans-Serif" font-size="10.00">mlir::impl::TosaToLinalg</text>
<text text-anchor="middle" x="68.5" y="-7" font-family="Helvetica,sans-Serif" font-size="10.00">Base&lt; DerivedT &gt;</text>
</a>
</g>
</g>
<!-- Node2 -->
<g id="Node000002" class="node">
<title>Node2</title>
<g id="a_Node000002"><a xlink:href="classmlir_1_1InterfacePass.html" target="_top" xlink:title=" ">
<polygon fill="white" stroke="#666666" points="137,-97 0,-97 0,-67 137,-67 137,-97"/>
<text text-anchor="start" x="8" y="-85" font-family="Helvetica,sans-Serif" font-size="10.00">mlir::InterfacePass</text>
<text text-anchor="middle" x="68.5" y="-74" font-family="Helvetica,sans-Serif" font-size="10.00">&lt; FunctionOpInterface &gt;</text>
</a>
</g>
</g>
<!-- Node2&#45;&gt;Node1 -->
<g id="edge1_Node000001_Node000002" class="edge">
<title>Node2&#45;&gt;Node1</title>
<g id="a_edge1_Node000001_Node000002"><a xlink:title=" ">
<path fill="none" stroke="#63b8ff" d="M68.5,-56.61C68.5,-47.65 68.5,-37.82 68.5,-30.08"/>
<polygon fill="#63b8ff" stroke="#63b8ff" points="65,-56.9 68.5,-66.9 72,-56.9 65,-56.9"/>
</a>
</g>
</g>
<!-- Node3 -->
<g id="Node000003" class="node">
<title>Node3</title>
<g id="a_Node000003"><a xlink:href="classmlir_1_1OperationPass.html" target="_top" xlink:title="Pass to transform an operation of a specific type.">
<polygon fill="white" stroke="#666666" points="120.5,-247 8.5,-247 8.5,-217 120.5,-217 120.5,-247"/>
<text text-anchor="start" x="16.5" y="-235" font-family="Helvetica,sans-Serif" font-size="10.00">mlir::OperationPass</text>
<text text-anchor="middle" x="64.5" y="-224" font-family="Helvetica,sans-Serif" font-size="10.00">&lt; OpT &gt;</text>
</a>
</g>
</g>
<!-- Node3&#45;&gt;Node2 -->
<g id="edge2_Node000002_Node000003" class="edge">
<title>Node3&#45;&gt;Node2</title>
<g id="a_edge2_Node000002_Node000003"><a xlink:title=" ">
<path fill="none" stroke="#63b8ff" d="M65.15,-206.81C65.99,-175.72 67.43,-122.73 68.11,-97.37"/>
<polygon fill="#63b8ff" stroke="#63b8ff" points="61.66,-206.72 64.88,-216.81 68.65,-206.91 61.66,-206.72"/>
</a>
</g>
</g>
<!-- Node5 -->
<g id="Node000005" class="node">
<title>Node5</title>
<g id="a_Node000005"><a xlink:href="classmlir_1_1InterfacePass.html" target="_top" xlink:title="Pass to transform an operation that implements the given interface.">
<polygon fill="white" stroke="#666666" points="188,-180 81,-180 81,-150 188,-150 188,-180"/>
<text text-anchor="start" x="89" y="-168" font-family="Helvetica,sans-Serif" font-size="10.00">mlir::InterfacePass</text>
<text text-anchor="middle" x="134.5" y="-157" font-family="Helvetica,sans-Serif" font-size="10.00">&lt; InterfaceT &gt;</text>
</a>
</g>
</g>
<!-- Node3&#45;&gt;Node5 -->
<g id="edge5_Node000005_Node000003" class="edge">
<title>Node3&#45;&gt;Node5</title>
<g id="a_edge5_Node000005_Node000003"><a xlink:title=" ">
<path fill="none" stroke="#63b8ff" d="M87.32,-209.81C97.82,-200.06 109.99,-188.76 119.34,-180.08"/>
<polygon fill="#63b8ff" stroke="#63b8ff" points="84.64,-207.53 79.69,-216.9 89.4,-212.66 84.64,-207.53"/>
</a>
</g>
</g>
<!-- Node4 -->
<g id="Node000004" class="node">
<title>Node4</title>
<g id="a_Node000004"><a xlink:href="classmlir_1_1Pass.html" target="_top" xlink:title="The abstract base pass class.">
<polygon fill="white" stroke="#666666" points="96.5,-303 32.5,-303 32.5,-284 96.5,-284 96.5,-303"/>
<text text-anchor="middle" x="64.5" y="-291" font-family="Helvetica,sans-Serif" font-size="10.00">mlir::Pass</text>
</a>
</g>
</g>
<!-- Node4&#45;&gt;Node3 -->
<g id="edge3_Node000003_Node000004" class="edge">
<title>Node4&#45;&gt;Node3</title>
<g id="a_edge3_Node000003_Node000004"><a xlink:title=" ">
<path fill="none" stroke="#63b8ff" d="M64.5,-273.73C64.5,-265.09 64.5,-255 64.5,-247.02"/>
<polygon fill="#63b8ff" stroke="#63b8ff" points="61,-273.98 64.5,-283.98 68,-273.98 61,-273.98"/>
</a>
</g>
</g>
<!-- Node5&#45;&gt;Node2 -->
<g id="edge4_Node000002_Node000005" class="edge">
<title>Node5&#45;&gt;Node2</title>
<g id="a_edge4_Node000002_Node000005"><a xlink:title=" ">
<path fill="none" stroke="orange" stroke-dasharray="5,2" d="M116.59,-142.02C104.97,-127.76 90.18,-109.61 80.09,-97.22"/>
<polygon fill="orange" stroke="orange" points="113.97,-144.35 123,-149.89 119.4,-139.93 113.97,-144.35"/>
</a>
</g>
<text text-anchor="start" x="110" y="-120.5" font-family="Helvetica,sans-Serif" font-size="10.00" fill="grey">&lt; FunctionOpInterface &gt;</text>
</g>
</g>
</svg>
