<?xml version="1.0" encoding="UTF-8" standalone="no"?>
<!DOCTYPE svg PUBLIC "-//W3C//DTD SVG 1.1//EN"
 "http://www.w3.org/Graphics/SVG/1.1/DTD/svg11.dtd">
<!-- Generated by graphviz version 2.43.0 (0)
 -->
<!-- Title: mlir::BaseMemRefType Pages: 1 -->
<svg width="210pt" height="95pt"
 viewBox="0.00 0.00 210.00 95.00" xmlns="http://www.w3.org/2000/svg" xmlns:xlink="http://www.w3.org/1999/xlink">
<g id="graph0" class="graph" transform="scale(1 1) rotate(0) translate(4 91)">
<title>mlir::BaseMemRefType</title>
<!-- Node1 -->
<g id="node1" class="node">
<title>Node1</title>
<g id="a_node1"><a xlink:title="This class provides a shared interface for ranked and unranked memref types.">
<polygon fill="#bfbfbf" stroke="black" points="22.5,-0.5 22.5,-19.5 152.5,-19.5 152.5,-0.5 22.5,-0.5"/>
<text text-anchor="middle" x="87.5" y="-7.5" font-family="Helvetica,sans-Serif" font-size="10.00">mlir::BaseMemRefType</text>
</a>
</g>
</g>
<!-- Node2 -->
<g id="node2" class="node">
<title>Node2</title>
<g id="a_node2"><a xlink:href="classmlir_1_1Type.html" target="_top" xlink:title="Instances of the Type class are uniqued, have an immutable identifier and an optional mutable compone...">
<polygon fill="none" stroke="black" points="0,-62 0,-81 65,-81 65,-62 0,-62"/>
<text text-anchor="middle" x="32.5" y="-69" font-family="Helvetica,sans-Serif" font-size="10.00">mlir::Type</text>
</a>
</g>
</g>
<!-- Node2&#45;&gt;Node1 -->
<g id="edge1" class="edge">
<title>Node2&#45;&gt;Node1</title>
<path fill="none" stroke="midnightblue" d="M47.29,-54.5C57.7,-43.24 71.23,-28.6 79.63,-19.51"/>
<polygon fill="midnightblue" stroke="midnightblue" points="44.6,-52.26 40.38,-61.98 49.74,-57.01 44.6,-52.26"/>
</g>
<!-- Node3 -->
<g id="node3" class="node">
<title>Node3</title>
<g id="a_node3"><a xlink:title=" ">
<polygon fill="none" stroke="#bfbfbf" points="83,-56.5 83,-86.5 202,-86.5 202,-56.5 83,-56.5"/>
<text text-anchor="start" x="91" y="-74.5" font-family="Helvetica,sans-Serif" font-size="10.00">ShapedType::Trait&lt;</text>
<text text-anchor="middle" x="142.5" y="-63.5" font-family="Helvetica,sans-Serif" font-size="10.00"> BaseMemRefType &gt;</text>
</a>
</g>
</g>
<!-- Node3&#45;&gt;Node1 -->
<g id="edge2" class="edge">
<title>Node3&#45;&gt;Node1</title>
<path fill="none" stroke="midnightblue" d="M122.63,-49C113.25,-38.86 102.6,-27.33 95.5,-19.66"/>
<polygon fill="midnightblue" stroke="midnightblue" points="120.11,-51.43 129.47,-56.4 125.25,-46.68 120.11,-51.43"/>
</g>
</g>
</svg>
