<?xml version="1.0" encoding="UTF-8" standalone="no"?>
<!DOCTYPE svg PUBLIC "-//W3C//DTD SVG 1.1//EN"
 "http://www.w3.org/Graphics/SVG/1.1/DTD/svg11.dtd">
<!-- Generated by graphviz version 2.43.0 (0)
 -->
<!-- Title: mlir::detail::AttrTypeReplacerBase&lt; Concrete &gt; Pages: 1 -->
<svg width="713pt" height="86pt"
 viewBox="0.00 0.00 713.00 86.00" xmlns="http://www.w3.org/2000/svg" xmlns:xlink="http://www.w3.org/1999/xlink">
<g id="graph0" class="graph" transform="scale(1 1) rotate(0) translate(4 82)">
<title>mlir::detail::AttrTypeReplacerBase&lt; Concrete &gt;</title>
<!-- Node1 -->
<g id="Node000001" class="node">
<title>Node1</title>
<g id="a_Node000001"><a xlink:title="This class provides a base utility for replacing attributes/types, and their sub elements.">
<polygon fill="#999999" stroke="#666666" points="159,-54 0,-54 0,-24 159,-24 159,-54"/>
<text text-anchor="start" x="8" y="-42" font-family="Helvetica,sans-Serif" font-size="10.00">mlir::detail::AttrTypeReplacer</text>
<text text-anchor="middle" x="79.5" y="-31" font-family="Helvetica,sans-Serif" font-size="10.00">Base&lt; Concrete &gt;</text>
</a>
</g>
</g>
<!-- Node2 -->
<g id="Node000002" class="node">
<title>Node2</title>
<g id="a_Node000002"><a xlink:href="classmlir_1_1detail_1_1AttrTypeReplacerBase.html" target="_top" xlink:title=" ">
<polygon fill="white" stroke="#666666" points="504.5,-78 345.5,-78 345.5,-48 504.5,-48 504.5,-78"/>
<text text-anchor="start" x="353.5" y="-66" font-family="Helvetica,sans-Serif" font-size="10.00">mlir::detail::AttrTypeReplacer</text>
<text text-anchor="middle" x="425" y="-55" font-family="Helvetica,sans-Serif" font-size="10.00">Base&lt; AttrTypeReplacer &gt;</text>
</a>
</g>
</g>
<!-- Node1&#45;&gt;Node2 -->
<g id="edge1_Node000001_Node000002" class="edge">
<title>Node1&#45;&gt;Node2</title>
<g id="a_edge1_Node000001_Node000002"><a xlink:title=" ">
<path fill="none" stroke="orange" stroke-dasharray="5,2" d="M169.29,-45.2C223.72,-49.01 292.79,-53.83 345.26,-57.5"/>
<polygon fill="orange" stroke="orange" points="169.53,-41.71 159.31,-44.51 169.04,-48.69 169.53,-41.71"/>
</a>
</g>
<text text-anchor="start" x="195" y="-60.5" font-family="Helvetica,sans-Serif" font-size="10.00" fill="grey">&lt; AttrTypeReplacer &gt;</text>
</g>
<!-- Node4 -->
<g id="Node000004" class="node">
<title>Node4</title>
<g id="a_Node000004"><a xlink:href="classmlir_1_1detail_1_1AttrTypeReplacerBase.html" target="_top" xlink:title=" ">
<polygon fill="white" stroke="#666666" points="513,-30 337,-30 337,0 513,0 513,-30"/>
<text text-anchor="start" x="345" y="-18" font-family="Helvetica,sans-Serif" font-size="10.00">mlir::detail::AttrTypeReplacer</text>
<text text-anchor="middle" x="425" y="-7" font-family="Helvetica,sans-Serif" font-size="10.00">Base&lt; CyclicAttrTypeReplacer &gt;</text>
</a>
</g>
</g>
<!-- Node1&#45;&gt;Node4 -->
<g id="edge3_Node000001_Node000004" class="edge">
<title>Node1&#45;&gt;Node4</title>
<g id="a_edge3_Node000001_Node000004"><a xlink:title=" ">
<path fill="none" stroke="orange" stroke-dasharray="5,2" d="M169.27,-25.77C171.88,-25.49 174.46,-25.24 177,-25 229.99,-20.1 289.6,-17.6 336.98,-16.32"/>
<polygon fill="orange" stroke="orange" points="168.7,-22.31 159.15,-26.9 169.48,-29.26 168.7,-22.31"/>
</a>
</g>
<text text-anchor="start" x="180" y="-30.5" font-family="Helvetica,sans-Serif" font-size="10.00" fill="grey">&lt; CyclicAttrTypeReplacer &gt;</text>
</g>
<!-- Node3 -->
<g id="Node000003" class="node">
<title>Node3</title>
<g id="a_Node000003"><a xlink:href="classmlir_1_1AttrTypeReplacer.html" target="_top" xlink:title="This is an attribute/type replacer that is naively cached.">
<polygon fill="white" stroke="#666666" points="690,-72.5 565,-72.5 565,-53.5 690,-53.5 690,-72.5"/>
<text text-anchor="middle" x="627.5" y="-60.5" font-family="Helvetica,sans-Serif" font-size="10.00">mlir::AttrTypeReplacer</text>
</a>
</g>
</g>
<!-- Node2&#45;&gt;Node3 -->
<g id="edge2_Node000002_Node000003" class="edge">
<title>Node2&#45;&gt;Node3</title>
<g id="a_edge2_Node000002_Node000003"><a xlink:title=" ">
<path fill="none" stroke="#63b8ff" d="M515.05,-63C531.85,-63 549.06,-63 564.79,-63"/>
<polygon fill="#63b8ff" stroke="#63b8ff" points="514.67,-59.5 504.67,-63 514.67,-66.5 514.67,-59.5"/>
</a>
</g>
</g>
<!-- Node5 -->
<g id="Node000005" class="node">
<title>Node5</title>
<g id="a_Node000005"><a xlink:href="classmlir_1_1CyclicAttrTypeReplacer.html" target="_top" xlink:title="This is an attribute/type replacer that supports custom handling of cycles in the replacer logic.">
<polygon fill="white" stroke="#666666" points="705,-24.5 550,-24.5 550,-5.5 705,-5.5 705,-24.5"/>
<text text-anchor="middle" x="627.5" y="-12.5" font-family="Helvetica,sans-Serif" font-size="10.00">mlir::CyclicAttrTypeReplacer</text>
</a>
</g>
</g>
<!-- Node4&#45;&gt;Node5 -->
<g id="edge4_Node000004_Node000005" class="edge">
<title>Node4&#45;&gt;Node5</title>
<g id="a_edge4_Node000004_Node000005"><a xlink:title=" ">
<path fill="none" stroke="#63b8ff" d="M523.17,-15C532.14,-15 541.15,-15 549.9,-15"/>
<polygon fill="#63b8ff" stroke="#63b8ff" points="523.07,-11.5 513.07,-15 523.07,-18.5 523.07,-11.5"/>
</a>
</g>
</g>
</g>
</svg>
