<?xml version="1.0" encoding="UTF-8" standalone="no"?>
<!DOCTYPE svg PUBLIC "-//W3C//DTD SVG 1.1//EN"
 "http://www.w3.org/Graphics/SVG/1.1/DTD/svg11.dtd">
<!-- Generated by graphviz version 2.43.0 (0)
 -->
<!-- Title: mlir::dataflow::AbstractSparseBackwardDataFlowAnalysis Pages: 1 -->
<svg width="1011pt" height="61pt"
 viewBox="0.00 0.00 1011.00 61.00" xmlns="http://www.w3.org/2000/svg" xmlns:xlink="http://www.w3.org/1999/xlink">
<g id="graph0" class="graph" transform="scale(1 1) rotate(0) translate(4 57)">
<title>mlir::dataflow::AbstractSparseBackwardDataFlowAnalysis</title>
<!-- Node1 -->
<g id="node1" class="node">
<title>Node1</title>
<g id="a_node1"><a xlink:title="Base class for sparse backward data&#45;flow analyses.">
<polygon fill="#bfbfbf" stroke="black" points="167,-22.5 167,-52.5 352,-52.5 352,-22.5 167,-22.5"/>
<text text-anchor="start" x="175" y="-40.5" font-family="Helvetica,sans-Serif" font-size="10.00">mlir::dataflow::Abstract</text>
<text text-anchor="middle" x="259.5" y="-29.5" font-family="Helvetica,sans-Serif" font-size="10.00">SparseBackwardDataFlowAnalysis</text>
</a>
</g>
</g>
<!-- Node3 -->
<g id="node3" class="node">
<title>Node3</title>
<g id="a_node3"><a xlink:href="classmlir_1_1dataflow_1_1SparseBackwardDataFlowAnalysis.html" target="_top" xlink:title=" ">
<polygon fill="none" stroke="black" points="664,-22.5 664,-52.5 834,-52.5 834,-22.5 664,-22.5"/>
<text text-anchor="start" x="672" y="-40.5" font-family="Helvetica,sans-Serif" font-size="10.00">mlir::dataflow::SparseBackward</text>
<text text-anchor="middle" x="749" y="-29.5" font-family="Helvetica,sans-Serif" font-size="10.00">DataFlowAnalysis&lt; Liveness &gt;</text>
</a>
</g>
</g>
<!-- Node1&#45;&gt;Node3 -->
<g id="edge2" class="edge">
<title>Node1&#45;&gt;Node3</title>
<path fill="none" stroke="midnightblue" d="M362.31,-42.26C440.05,-45.18 549.8,-47.8 646,-44.5 651.85,-44.3 657.89,-44.03 663.97,-43.72"/>
<polygon fill="midnightblue" stroke="midnightblue" points="362.17,-38.75 352.04,-41.86 361.9,-45.74 362.17,-38.75"/>
</g>
<!-- Node5 -->
<g id="node5" class="node">
<title>Node5</title>
<g id="a_node5"><a xlink:href="classmlir_1_1dataflow_1_1SparseBackwardDataFlowAnalysis.html" target="_top" xlink:title="A sparse (backward) data&#45;flow analysis for propagating SSA value lattices backwards across the IR by ...">
<polygon fill="none" stroke="black" points="389,-0.5 389,-30.5 559,-30.5 559,-0.5 389,-0.5"/>
<text text-anchor="start" x="397" y="-18.5" font-family="Helvetica,sans-Serif" font-size="10.00">mlir::dataflow::SparseBackward</text>
<text text-anchor="middle" x="474" y="-7.5" font-family="Helvetica,sans-Serif" font-size="10.00">DataFlowAnalysis&lt; StateT &gt;</text>
</a>
</g>
</g>
<!-- Node1&#45;&gt;Node5 -->
<g id="edge4" class="edge">
<title>Node1&#45;&gt;Node5</title>
<path fill="none" stroke="midnightblue" d="M362.16,-26.98C371.04,-26.06 379.96,-25.13 388.68,-24.23"/>
<polygon fill="midnightblue" stroke="midnightblue" points="361.75,-23.5 352.16,-28.01 362.47,-30.46 361.75,-23.5"/>
</g>
<!-- Node2 -->
<g id="node2" class="node">
<title>Node2</title>
<g id="a_node2"><a xlink:href="classmlir_1_1DataFlowAnalysis.html" target="_top" xlink:title="Base class for all data&#45;flow analyses.">
<polygon fill="none" stroke="black" points="0,-28 0,-47 130,-47 130,-28 0,-28"/>
<text text-anchor="middle" x="65" y="-35" font-family="Helvetica,sans-Serif" font-size="10.00">mlir::DataFlowAnalysis</text>
</a>
</g>
</g>
<!-- Node2&#45;&gt;Node1 -->
<g id="edge1" class="edge">
<title>Node2&#45;&gt;Node1</title>
<path fill="none" stroke="midnightblue" d="M140.22,-37.5C148.96,-37.5 157.95,-37.5 166.89,-37.5"/>
<polygon fill="midnightblue" stroke="midnightblue" points="140.1,-34 130.1,-37.5 140.1,-41 140.1,-34"/>
</g>
<!-- Node4 -->
<g id="node4" class="node">
<title>Node4</title>
<g id="a_node4"><a xlink:href="classmlir_1_1dataflow_1_1LivenessAnalysis.html" target="_top" xlink:title="An analysis that, by going backwards along the dataflow graph, annotates each value with a boolean st...">
<polygon fill="none" stroke="black" points="871,-22.5 871,-52.5 1003,-52.5 1003,-22.5 871,-22.5"/>
<text text-anchor="start" x="879" y="-40.5" font-family="Helvetica,sans-Serif" font-size="10.00">mlir::dataflow::Liveness</text>
<text text-anchor="middle" x="937" y="-29.5" font-family="Helvetica,sans-Serif" font-size="10.00">Analysis</text>
</a>
</g>
</g>
<!-- Node3&#45;&gt;Node4 -->
<g id="edge3" class="edge">
<title>Node3&#45;&gt;Node4</title>
<path fill="none" stroke="midnightblue" d="M844.16,-37.5C853.15,-37.5 862.13,-37.5 870.75,-37.5"/>
<polygon fill="midnightblue" stroke="midnightblue" points="844.02,-34 834.02,-37.5 844.02,-41 844.02,-34"/>
</g>
<!-- Node5&#45;&gt;Node3 -->
<g id="edge5" class="edge">
<title>Node5&#45;&gt;Node3</title>
<path fill="none" stroke="orange" stroke-dasharray="5,2" d="M569.4,-23.11C600.04,-25.58 633.81,-28.3 663.67,-30.7"/>
<polygon fill="orange" stroke="orange" points="569.39,-19.59 559.14,-22.28 568.82,-26.57 569.39,-19.59"/>
<text text-anchor="middle" x="611.5" y="-32.5" font-family="Helvetica,sans-Serif" font-size="10.00"> &lt; Liveness &gt;</text>
</g>
</g>
</svg>
