<?xml version="1.0" encoding="UTF-8" standalone="no"?>
<!DOCTYPE svg PUBLIC "-//W3C//DTD SVG 1.1//EN"
 "http://www.w3.org/Graphics/SVG/1.1/DTD/svg11.dtd">
<!-- Generated by graphviz version 2.43.0 (0)
 -->
<!-- Title: mlir::tracing::ActionImpl&lt; Derived &gt; Pages: 1 -->
<svg width="801pt" height="134pt"
 viewBox="0.00 0.00 801.00 134.00" xmlns="http://www.w3.org/2000/svg" xmlns:xlink="http://www.w3.org/1999/xlink">
<g id="graph0" class="graph" transform="scale(1 1) rotate(0) translate(4 130)">
<title>mlir::tracing::ActionImpl&lt; Derived &gt;</title>
<!-- Node1 -->
<g id="Node000001" class="node">
<title>Node1</title>
<g id="a_Node000001"><a xlink:title="CRTP Implementation of an action.">
<polygon fill="#999999" stroke="#666666" points="284,-78 150,-78 150,-48 284,-48 284,-78"/>
<text text-anchor="start" x="158" y="-66" font-family="Helvetica,sans-Serif" font-size="10.00">mlir::tracing::ActionImpl</text>
<text text-anchor="middle" x="217" y="-55" font-family="Helvetica,sans-Serif" font-size="10.00">&lt; Derived &gt;</text>
</a>
</g>
</g>
<!-- Node3 -->
<g id="Node000003" class="node">
<title>Node3</title>
<g id="a_Node000003"><a xlink:href="classmlir_1_1tracing_1_1ActionImpl.html" target="_top" xlink:title=" ">
<polygon fill="white" stroke="#666666" points="607.5,-126 468.5,-126 468.5,-96 607.5,-96 607.5,-126"/>
<text text-anchor="start" x="476.5" y="-114" font-family="Helvetica,sans-Serif" font-size="10.00">mlir::tracing::ActionImpl</text>
<text text-anchor="middle" x="538" y="-103" font-family="Helvetica,sans-Serif" font-size="10.00">&lt; PassExecutionAction &gt;</text>
</a>
</g>
</g>
<!-- Node1&#45;&gt;Node3 -->
<g id="edge2_Node000001_Node000003" class="edge">
<title>Node1&#45;&gt;Node3</title>
<g id="a_edge2_Node000001_Node000003"><a xlink:title=" ">
<path fill="none" stroke="orange" stroke-dasharray="5,2" d="M283.98,-80.36C290.05,-81.69 296.13,-82.93 302,-84 357.56,-94.09 421.23,-101.13 468.27,-105.49"/>
<polygon fill="orange" stroke="orange" points="284.34,-76.85 273.81,-78.03 282.78,-83.67 284.34,-76.85"/>
</a>
</g>
<text text-anchor="start" x="312" y="-107.5" font-family="Helvetica,sans-Serif" font-size="10.00" fill="grey">&lt; PassExecutionAction &gt;</text>
</g>
<!-- Node5 -->
<g id="Node000005" class="node">
<title>Node5</title>
<g id="a_Node000005"><a xlink:href="classmlir_1_1tracing_1_1ActionImpl.html" target="_top" xlink:title=" ">
<polygon fill="white" stroke="#666666" points="605,-78 471,-78 471,-48 605,-48 605,-78"/>
<text text-anchor="start" x="479" y="-66" font-family="Helvetica,sans-Serif" font-size="10.00">mlir::tracing::ActionImpl</text>
<text text-anchor="middle" x="538" y="-55" font-family="Helvetica,sans-Serif" font-size="10.00">&lt; ApplyPatternAction &gt;</text>
</a>
</g>
</g>
<!-- Node1&#45;&gt;Node5 -->
<g id="edge4_Node000001_Node000005" class="edge">
<title>Node1&#45;&gt;Node5</title>
<g id="a_edge4_Node000001_Node000005"><a xlink:title=" ">
<path fill="none" stroke="orange" stroke-dasharray="5,2" d="M294.28,-63C348.14,-63 419.58,-63 470.99,-63"/>
<polygon fill="orange" stroke="orange" points="294.1,-59.5 284.1,-63 294.1,-66.5 294.1,-59.5"/>
</a>
</g>
<text text-anchor="start" x="315" y="-68.5" font-family="Helvetica,sans-Serif" font-size="10.00" fill="grey">&lt; ApplyPatternAction &gt;</text>
</g>
<!-- Node7 -->
<g id="Node000007" class="node">
<title>Node7</title>
<g id="a_Node000007"><a xlink:href="classmlir_1_1tracing_1_1ActionImpl.html" target="_top" xlink:title=" ">
<polygon fill="white" stroke="#666666" points="614,-30 462,-30 462,0 614,0 614,-30"/>
<text text-anchor="start" x="470" y="-18" font-family="Helvetica,sans-Serif" font-size="10.00">mlir::tracing::ActionImpl</text>
<text text-anchor="middle" x="538" y="-7" font-family="Helvetica,sans-Serif" font-size="10.00">&lt; ApplyConversionAction &gt;</text>
</a>
</g>
</g>
<!-- Node1&#45;&gt;Node7 -->
<g id="edge6_Node000001_Node000007" class="edge">
<title>Node1&#45;&gt;Node7</title>
<g id="a_edge6_Node000001_Node000007"><a xlink:title=" ">
<path fill="none" stroke="orange" stroke-dasharray="5,2" d="M283.98,-45.64C290.05,-44.31 296.13,-43.07 302,-42 355.03,-32.37 415.46,-25.51 461.75,-21.12"/>
<polygon fill="orange" stroke="orange" points="282.78,-42.33 273.81,-47.97 284.34,-49.15 282.78,-42.33"/>
</a>
</g>
<text text-anchor="start" x="305" y="-47.5" font-family="Helvetica,sans-Serif" font-size="10.00" fill="grey">&lt; ApplyConversionAction &gt;</text>
</g>
<!-- Node2 -->
<g id="Node000002" class="node">
<title>Node2</title>
<g id="a_Node000002"><a xlink:href="classmlir_1_1tracing_1_1Action.html" target="_top" xlink:title="An action is a specific action that is to be taken by the compiler, that can be toggled and controlle...">
<polygon fill="white" stroke="#666666" points="113,-72.5 0,-72.5 0,-53.5 113,-53.5 113,-72.5"/>
<text text-anchor="middle" x="56.5" y="-60.5" font-family="Helvetica,sans-Serif" font-size="10.00">mlir::tracing::Action</text>
</a>
</g>
</g>
<!-- Node2&#45;&gt;Node1 -->
<g id="edge1_Node000001_Node000002" class="edge">
<title>Node2&#45;&gt;Node1</title>
<g id="a_edge1_Node000001_Node000002"><a xlink:title=" ">
<path fill="none" stroke="#63b8ff" d="M123.46,-63C132.16,-63 141.07,-63 149.77,-63"/>
<polygon fill="#63b8ff" stroke="#63b8ff" points="123.38,-59.5 113.38,-63 123.38,-66.5 123.38,-59.5"/>
</a>
</g>
</g>
<!-- Node4 -->
<g id="Node000004" class="node">
<title>Node4</title>
<g id="a_Node000004"><a xlink:href="classmlir_1_1PassExecutionAction.html" target="_top" xlink:title="This class encapsulates the &quot;action&quot; of executing a single pass.">
<polygon fill="white" stroke="#666666" points="793,-120.5 651,-120.5 651,-101.5 793,-101.5 793,-120.5"/>
<text text-anchor="middle" x="722" y="-108.5" font-family="Helvetica,sans-Serif" font-size="10.00">mlir::PassExecutionAction</text>
</a>
</g>
</g>
<!-- Node3&#45;&gt;Node4 -->
<g id="edge3_Node000003_Node000004" class="edge">
<title>Node3&#45;&gt;Node4</title>
<g id="a_edge3_Node000003_Node000004"><a xlink:title=" ">
<path fill="none" stroke="#63b8ff" d="M617.57,-111C628.59,-111 639.85,-111 650.7,-111"/>
<polygon fill="#63b8ff" stroke="#63b8ff" points="617.55,-107.5 607.55,-111 617.55,-114.5 617.55,-107.5"/>
</a>
</g>
</g>
<!-- Node6 -->
<g id="Node000006" class="node">
<title>Node6</title>
<g id="a_Node000006"><a xlink:href="classmlir_1_1ApplyPatternAction.html" target="_top" xlink:title="This is the type of Action that is dispatched when a pattern is applied.">
<polygon fill="white" stroke="#666666" points="789.5,-72.5 654.5,-72.5 654.5,-53.5 789.5,-53.5 789.5,-72.5"/>
<text text-anchor="middle" x="722" y="-60.5" font-family="Helvetica,sans-Serif" font-size="10.00">mlir::ApplyPatternAction</text>
</a>
</g>
</g>
<!-- Node5&#45;&gt;Node6 -->
<g id="edge5_Node000005_Node000006" class="edge">
<title>Node5&#45;&gt;Node6</title>
<g id="a_edge5_Node000005_Node000006"><a xlink:title=" ">
<path fill="none" stroke="#63b8ff" d="M615.45,-63C628.33,-63 641.61,-63 654.22,-63"/>
<polygon fill="#63b8ff" stroke="#63b8ff" points="615.22,-59.5 605.22,-63 615.22,-66.5 615.22,-59.5"/>
</a>
</g>
</g>
<!-- Node8 -->
<g id="Node000008" class="node">
<title>Node8</title>
<g id="a_Node000008"><a xlink:href="classApplyConversionAction.html" target="_top" xlink:title="This is the type of Action that is dispatched when a conversion is applied.">
<polygon fill="white" stroke="#666666" points="787,-24.5 657,-24.5 657,-5.5 787,-5.5 787,-24.5"/>
<text text-anchor="middle" x="722" y="-12.5" font-family="Helvetica,sans-Serif" font-size="10.00">ApplyConversionAction</text>
</a>
</g>
</g>
<!-- Node7&#45;&gt;Node8 -->
<g id="edge7_Node000007_Node000008" class="edge">
<title>Node7&#45;&gt;Node8</title>
<g id="a_edge7_Node000007_Node000008"><a xlink:title=" ">
<path fill="none" stroke="#63b8ff" d="M624.13,-15C635.13,-15 646.25,-15 656.83,-15"/>
<polygon fill="#63b8ff" stroke="#63b8ff" points="624.08,-11.5 614.08,-15 624.08,-18.5 624.08,-11.5"/>
</a>
</g>
</g>
</g>
</svg>
