<?xml version="1.0" encoding="UTF-8" standalone="no"?>
<!DOCTYPE svg PUBLIC "-//W3C//DTD SVG 1.1//EN"
 "http://www.w3.org/Graphics/SVG/1.1/DTD/svg11.dtd">
<!-- Generated by graphviz version 2.43.0 (0)
 -->
<!-- Title: mlir::TypeConverter Pages: 1 -->
<svg width="335pt" height="410pt"
 viewBox="0.00 0.00 335.00 409.50" xmlns="http://www.w3.org/2000/svg" xmlns:xlink="http://www.w3.org/1999/xlink">
<g id="graph0" class="graph" transform="scale(1 1) rotate(0) translate(4 405.5)">
<title>mlir::TypeConverter</title>
<!-- Node1 -->
<g id="node1" class="node">
<title>Node1</title>
<g id="a_node1"><a xlink:title="Type conversion class.">
<polygon fill="#bfbfbf" stroke="black" points="0,-202 0,-221 113,-221 113,-202 0,-202"/>
<text text-anchor="middle" x="56.5" y="-209" font-family="Helvetica,sans-Serif" font-size="10.00">mlir::TypeConverter</text>
</a>
</g>
</g>
<!-- Node2 -->
<g id="node2" class="node">
<title>Node2</title>
<g id="a_node2"><a xlink:href="classmlir_1_1LLVMTypeConverter.html" target="_top" xlink:title="Conversion from types to the LLVM IR dialect.">
<polygon fill="none" stroke="black" points="169,-382 169,-401 307,-401 307,-382 169,-382"/>
<text text-anchor="middle" x="238" y="-389" font-family="Helvetica,sans-Serif" font-size="10.00">mlir::LLVMTypeConverter</text>
</a>
</g>
</g>
<!-- Node1&#45;&gt;Node2 -->
<g id="edge1" class="edge">
<title>Node1&#45;&gt;Node2</title>
<path fill="none" stroke="midnightblue" d="M62.87,-231.15C73.35,-265.55 99.89,-336.44 149,-372.5 154.92,-376.85 161.63,-380.24 168.65,-382.88"/>
<polygon fill="midnightblue" stroke="midnightblue" points="66.18,-229.98 60.03,-221.36 59.46,-231.94 66.18,-229.98"/>
</g>
<!-- Node3 -->
<g id="node3" class="node">
<title>Node3</title>
<g id="a_node3"><a xlink:href="classmlir_1_1SPIRVTypeConverter.html" target="_top" xlink:title="Type conversion from builtin types to SPIR&#45;V types for shader interface.">
<polygon fill="none" stroke="black" points="167.5,-344 167.5,-363 308.5,-363 308.5,-344 167.5,-344"/>
<text text-anchor="middle" x="238" y="-351" font-family="Helvetica,sans-Serif" font-size="10.00">mlir::SPIRVTypeConverter</text>
</a>
</g>
</g>
<!-- Node1&#45;&gt;Node3 -->
<g id="edge2" class="edge">
<title>Node1&#45;&gt;Node3</title>
<path fill="none" stroke="midnightblue" d="M66.05,-230.32C79.56,-257.8 108.52,-308.44 149,-334.5 155.05,-338.39 161.76,-341.5 168.71,-343.98"/>
<polygon fill="midnightblue" stroke="midnightblue" points="69.09,-228.56 61.64,-221.03 62.77,-231.56 69.09,-228.56"/>
</g>
<!-- Node4 -->
<g id="node4" class="node">
<title>Node4</title>
<g id="a_node4"><a xlink:href="structmlir_1_1SparseIterationTypeConverter.html" target="_top" xlink:title="Type converter for iter_space and iterator.">
<polygon fill="none" stroke="black" points="168.5,-294.5 168.5,-324.5 307.5,-324.5 307.5,-294.5 168.5,-294.5"/>
<text text-anchor="start" x="176.5" y="-312.5" font-family="Helvetica,sans-Serif" font-size="10.00">mlir::SparseIterationType</text>
<text text-anchor="middle" x="238" y="-301.5" font-family="Helvetica,sans-Serif" font-size="10.00">Converter</text>
</a>
</g>
</g>
<!-- Node1&#45;&gt;Node4 -->
<g id="edge3" class="edge">
<title>Node1&#45;&gt;Node4</title>
<path fill="none" stroke="midnightblue" d="M74.23,-228.68C91.49,-245.47 119.93,-270.62 149,-285.5 155.63,-288.89 162.78,-291.85 170.06,-294.41"/>
<polygon fill="midnightblue" stroke="midnightblue" points="76.25,-225.76 66.7,-221.19 71.32,-230.72 76.25,-225.76"/>
</g>
<!-- Node5 -->
<g id="node5" class="node">
<title>Node5</title>
<g id="a_node5"><a xlink:href="classmlir_1_1SparseTensorTypeToBufferConverter.html" target="_top" xlink:title="Sparse tensor type converter into an actual buffer.">
<polygon fill="none" stroke="black" points="168,-245.5 168,-275.5 308,-275.5 308,-245.5 168,-245.5"/>
<text text-anchor="start" x="176" y="-263.5" font-family="Helvetica,sans-Serif" font-size="10.00">mlir::SparseTensorTypeTo</text>
<text text-anchor="middle" x="238" y="-252.5" font-family="Helvetica,sans-Serif" font-size="10.00">BufferConverter</text>
</a>
</g>
</g>
<!-- Node1&#45;&gt;Node5 -->
<g id="edge4" class="edge">
<title>Node1&#45;&gt;Node5</title>
<path fill="none" stroke="midnightblue" d="M102.23,-223.73C117.11,-227.79 133.77,-232.34 149,-236.5 159.54,-239.38 170.79,-242.45 181.61,-245.4"/>
<polygon fill="midnightblue" stroke="midnightblue" points="102.83,-220.26 92.26,-221 100.98,-227.01 102.83,-220.26"/>
</g>
<!-- Node6 -->
<g id="node6" class="node">
<title>Node6</title>
<g id="a_node6"><a xlink:href="classmlir_1_1SparseTensorTypeToPtrConverter.html" target="_top" xlink:title="Sparse tensor type converter into an opaque pointer.">
<polygon fill="none" stroke="black" points="168,-196.5 168,-226.5 308,-226.5 308,-196.5 168,-196.5"/>
<text text-anchor="start" x="176" y="-214.5" font-family="Helvetica,sans-Serif" font-size="10.00">mlir::SparseTensorTypeTo</text>
<text text-anchor="middle" x="238" y="-203.5" font-family="Helvetica,sans-Serif" font-size="10.00">PtrConverter</text>
</a>
</g>
</g>
<!-- Node1&#45;&gt;Node6 -->
<g id="edge5" class="edge">
<title>Node1&#45;&gt;Node6</title>
<path fill="none" stroke="midnightblue" d="M123.64,-211.5C138.08,-211.5 153.39,-211.5 167.94,-211.5"/>
<polygon fill="midnightblue" stroke="midnightblue" points="123.31,-208 113.31,-211.5 123.31,-215 123.31,-208"/>
</g>
<!-- Node7 -->
<g id="node7" class="node">
<title>Node7</title>
<g id="a_node7"><a xlink:href="classmlir_1_1StorageSpecifierToLLVMTypeConverter.html" target="_top" xlink:title=" ">
<polygon fill="none" stroke="black" points="172,-147.5 172,-177.5 304,-177.5 304,-147.5 172,-147.5"/>
<text text-anchor="start" x="180" y="-165.5" font-family="Helvetica,sans-Serif" font-size="10.00">mlir::StorageSpecifierTo</text>
<text text-anchor="middle" x="238" y="-154.5" font-family="Helvetica,sans-Serif" font-size="10.00">LLVMTypeConverter</text>
</a>
</g>
</g>
<!-- Node1&#45;&gt;Node7 -->
<g id="edge6" class="edge">
<title>Node1&#45;&gt;Node7</title>
<path fill="none" stroke="midnightblue" d="M102.48,-199.22C126.57,-192.65 156.44,-184.49 181.92,-177.54"/>
<polygon fill="midnightblue" stroke="midnightblue" points="101.26,-195.93 92.54,-201.94 103.1,-202.68 101.26,-195.93"/>
</g>
<!-- Node8 -->
<g id="node8" class="node">
<title>Node8</title>
<g id="a_node8"><a xlink:href="classmlir_1_1arith_1_1NarrowTypeEmulationConverter.html" target="_top" xlink:title="Converts narrow integer or float types that are not supported by the target hardware to wider types.">
<polygon fill="none" stroke="black" points="149,-98.5 149,-128.5 327,-128.5 327,-98.5 149,-98.5"/>
<text text-anchor="start" x="157" y="-116.5" font-family="Helvetica,sans-Serif" font-size="10.00">mlir::arith::NarrowTypeEmulation</text>
<text text-anchor="middle" x="238" y="-105.5" font-family="Helvetica,sans-Serif" font-size="10.00">Converter</text>
</a>
</g>
</g>
<!-- Node1&#45;&gt;Node8 -->
<g id="edge7" class="edge">
<title>Node1&#45;&gt;Node8</title>
<path fill="none" stroke="midnightblue" d="M74.3,-194.63C91.63,-178.12 120.11,-153.36 149,-138.5 156.34,-134.72 164.34,-131.45 172.41,-128.63"/>
<polygon fill="midnightblue" stroke="midnightblue" points="71.47,-192.51 66.74,-201.99 76.35,-197.52 71.47,-192.51"/>
</g>
<!-- Node9 -->
<g id="node9" class="node">
<title>Node9</title>
<g id="a_node9"><a xlink:href="classmlir_1_1arith_1_1WideIntEmulationConverter.html" target="_top" xlink:title="Converts integer types that are too wide for the target by splitting them in two halves and thus turn...">
<polygon fill="none" stroke="black" points="159,-49.5 159,-79.5 317,-79.5 317,-49.5 159,-49.5"/>
<text text-anchor="start" x="167" y="-67.5" font-family="Helvetica,sans-Serif" font-size="10.00">mlir::arith::WideIntEmulation</text>
<text text-anchor="middle" x="238" y="-56.5" font-family="Helvetica,sans-Serif" font-size="10.00">Converter</text>
</a>
</g>
</g>
<!-- Node1&#45;&gt;Node9 -->
<g id="edge8" class="edge">
<title>Node1&#45;&gt;Node9</title>
<path fill="none" stroke="midnightblue" d="M66.52,-192.76C80.44,-165.84 109.72,-116.49 149,-89.5 154.63,-85.63 160.85,-82.36 167.3,-79.59"/>
<polygon fill="midnightblue" stroke="midnightblue" points="63.3,-191.38 61.95,-201.89 69.55,-194.52 63.3,-191.38"/>
</g>
<!-- Node10 -->
<g id="node10" class="node">
<title>Node10</title>
<g id="a_node10"><a xlink:href="classmlir_1_1spirv_1_1MemorySpaceToStorageClassConverter.html" target="_top" xlink:title="Type converter for converting numeric MemRef memory spaces into SPIR&#45;V symbolic ones.">
<polygon fill="none" stroke="black" points="167.5,-0.5 167.5,-30.5 308.5,-30.5 308.5,-0.5 167.5,-0.5"/>
<text text-anchor="start" x="175.5" y="-18.5" font-family="Helvetica,sans-Serif" font-size="10.00">mlir::spirv::MemorySpace</text>
<text text-anchor="middle" x="238" y="-7.5" font-family="Helvetica,sans-Serif" font-size="10.00">ToStorageClassConverter</text>
</a>
</g>
</g>
<!-- Node1&#45;&gt;Node10 -->
<g id="edge9" class="edge">
<title>Node1&#45;&gt;Node10</title>
<path fill="none" stroke="midnightblue" d="M62.48,-191.95C72.57,-156.35 98.86,-80.89 149,-40.5 154.44,-36.12 160.61,-32.5 167.1,-29.52"/>
<polygon fill="midnightblue" stroke="midnightblue" points="59.09,-191.07 59.86,-201.64 65.85,-192.9 59.09,-191.07"/>
</g>
</g>
</svg>
