<?xml version="1.0" encoding="UTF-8" standalone="no"?>
<!DOCTYPE svg PUBLIC "-//W3C//DTD SVG 1.1//EN"
 "http://www.w3.org/Graphics/SVG/1.1/DTD/svg11.dtd">
<!-- Generated by graphviz version 2.43.0 (0)
 -->
<!-- Title: mlir::pdll::ast::ConstraintType Pages: 1 -->
<svg width="274pt" height="259pt"
 viewBox="0.00 0.00 274.00 259.00" xmlns="http://www.w3.org/2000/svg" xmlns:xlink="http://www.w3.org/1999/xlink">
<g id="graph0" class="graph" transform="scale(1 1) rotate(0) translate(4 255)">
<title>mlir::pdll::ast::ConstraintType</title>
<!-- Node1 -->
<g id="Node000001" class="node">
<title>Node1</title>
<g id="a_Node000001"><a xlink:title="This class represents a PDLL type that corresponds to a constraint.">
<polygon fill="#999999" stroke="#666666" points="162,-19 2,-19 2,0 162,0 162,-19"/>
<text text-anchor="middle" x="82" y="-7" font-family="Helvetica,sans-Serif" font-size="10.00">mlir::pdll::ast::ConstraintType</text>
</a>
</g>
</g>
<!-- Node2 -->
<g id="Node000002" class="node">
<title>Node2</title>
<g id="a_Node000002"><a xlink:href="classmlir_1_1pdll_1_1ast_1_1Type_1_1TypeBase.html" target="_top" xlink:title=" ">
<polygon fill="white" stroke="#666666" points="164,-97 0,-97 0,-56 164,-56 164,-97"/>
<text text-anchor="start" x="8" y="-85" font-family="Helvetica,sans-Serif" font-size="10.00">mlir::pdll::ast::Type</text>
<text text-anchor="start" x="8" y="-74" font-family="Helvetica,sans-Serif" font-size="10.00">::TypeBase&lt; detail::Constraint</text>
<text text-anchor="middle" x="82" y="-63" font-family="Helvetica,sans-Serif" font-size="10.00">TypeStorage &gt;</text>
</a>
</g>
</g>
<!-- Node2&#45;&gt;Node1 -->
<g id="edge1_Node000001_Node000002" class="edge">
<title>Node2&#45;&gt;Node1</title>
<g id="a_edge1_Node000001_Node000002"><a xlink:title=" ">
<path fill="none" stroke="#63b8ff" d="M82,-45.76C82,-36.06 82,-26.02 82,-19.15"/>
<polygon fill="#63b8ff" stroke="#63b8ff" points="78.5,-46 82,-56 85.5,-46 78.5,-46"/>
</a>
</g>
</g>
<!-- Node3 -->
<g id="Node000003" class="node">
<title>Node3</title>
<g id="a_Node000003"><a xlink:href="classmlir_1_1pdll_1_1ast_1_1Type.html" target="_top" xlink:title=" ">
<polygon fill="white" stroke="#666666" points="133,-251 23,-251 23,-232 133,-232 133,-251"/>
<text text-anchor="middle" x="78" y="-239" font-family="Helvetica,sans-Serif" font-size="10.00">mlir::pdll::ast::Type</text>
</a>
</g>
</g>
<!-- Node3&#45;&gt;Node2 -->
<g id="edge2_Node000002_Node000003" class="edge">
<title>Node3&#45;&gt;Node2</title>
<g id="a_edge2_Node000002_Node000003"><a xlink:title=" ">
<path fill="none" stroke="#63b8ff" d="M78.47,-221.39C79.23,-190.19 80.75,-128.64 81.52,-97.12"/>
<polygon fill="#63b8ff" stroke="#63b8ff" points="74.96,-221.65 78.22,-231.74 81.96,-221.83 74.96,-221.65"/>
</a>
</g>
</g>
<!-- Node4 -->
<g id="Node000004" class="node">
<title>Node4</title>
<g id="a_Node000004"><a xlink:href="classmlir_1_1pdll_1_1ast_1_1Type_1_1TypeBase.html" target="_top" xlink:title="This class provides several utilities when defining derived type classes.">
<polygon fill="white" stroke="#666666" points="249.5,-195 94.5,-195 94.5,-165 249.5,-165 249.5,-195"/>
<text text-anchor="start" x="102.5" y="-183" font-family="Helvetica,sans-Serif" font-size="10.00">mlir::pdll::ast::Type</text>
<text text-anchor="middle" x="172" y="-172" font-family="Helvetica,sans-Serif" font-size="10.00">::TypeBase&lt; ImplT, BaseT &gt;</text>
</a>
</g>
</g>
<!-- Node3&#45;&gt;Node4 -->
<g id="edge4_Node000004_Node000003" class="edge">
<title>Node3&#45;&gt;Node4</title>
<g id="a_edge4_Node000004_Node000003"><a xlink:title=" ">
<path fill="none" stroke="#63b8ff" d="M100.1,-226.51C115.1,-217.02 134.84,-204.52 149.85,-195.02"/>
<polygon fill="#63b8ff" stroke="#63b8ff" points="98.05,-223.67 91.47,-231.98 101.79,-229.58 98.05,-223.67"/>
</a>
</g>
</g>
<!-- Node4&#45;&gt;Node2 -->
<g id="edge3_Node000002_Node000004" class="edge">
<title>Node4&#45;&gt;Node2</title>
<g id="a_edge3_Node000002_Node000004"><a xlink:title=" ">
<path fill="none" stroke="orange" stroke-dasharray="5,2" d="M152.7,-157.24C136.86,-139.37 114.62,-114.29 99.34,-97.06"/>
<polygon fill="orange" stroke="orange" points="150.23,-159.73 159.49,-164.89 155.47,-155.08 150.23,-159.73"/>
</a>
</g>
<text text-anchor="start" x="145" y="-136" font-family="Helvetica,sans-Serif" font-size="10.00" fill="grey">&lt; detail::ConstraintType</text>
<text text-anchor="start" x="145" y="-121" font-family="Helvetica,sans-Serif" font-size="10.00" fill="grey">  Storage &gt;</text>
</g>
</g>
</svg>
