<?xml version="1.0" encoding="UTF-8" standalone="no"?>
<!DOCTYPE svg PUBLIC "-//W3C//DTD SVG 1.1//EN"
 "http://www.w3.org/Graphics/SVG/1.1/DTD/svg11.dtd">
<!-- Generated by graphviz version 2.43.0 (0)
 -->
<!-- Title: mlir::DialectExtension&lt; DerivedT, DialectsT &gt; Pages: 1 -->
<svg width="249pt" height="275pt"
 viewBox="0.00 0.00 248.50 275.00" xmlns="http://www.w3.org/2000/svg" xmlns:xlink="http://www.w3.org/1999/xlink">
<g id="graph0" class="graph" transform="scale(1 1) rotate(0) translate(4 271)">
<title>mlir::DialectExtension&lt; DerivedT, DialectsT &gt;</title>
<!-- Node1 -->
<g id="node1" class="node">
<title>Node1</title>
<g id="a_node1"><a xlink:title="This class represents a dialect extension anchored on the given set of dialects.">
<polygon fill="#bfbfbf" stroke="black" points="17,-179.5 17,-209.5 152,-209.5 152,-179.5 17,-179.5"/>
<text text-anchor="start" x="25" y="-197.5" font-family="Helvetica,sans-Serif" font-size="10.00">mlir::DialectExtension</text>
<text text-anchor="middle" x="84.5" y="-186.5" font-family="Helvetica,sans-Serif" font-size="10.00">&lt; DerivedT, DialectsT &gt;</text>
</a>
</g>
</g>
<!-- Node3 -->
<g id="node3" class="node">
<title>Node3</title>
<g id="a_node3"><a xlink:href="classmlir_1_1DialectExtension.html" target="_top" xlink:title=" ">
<polygon fill="none" stroke="black" points="0,-79.5 0,-120.5 169,-120.5 169,-79.5 0,-79.5"/>
<text text-anchor="start" x="8" y="-108.5" font-family="Helvetica,sans-Serif" font-size="10.00">mlir::DialectExtension</text>
<text text-anchor="start" x="8" y="-97.5" font-family="Helvetica,sans-Serif" font-size="10.00">&lt; DerivedTy, TransformDialect,</text>
<text text-anchor="middle" x="84.5" y="-86.5" font-family="Helvetica,sans-Serif" font-size="10.00"> ExtraDialects... &gt;</text>
</a>
</g>
</g>
<!-- Node1&#45;&gt;Node3 -->
<g id="edge2" class="edge">
<title>Node1&#45;&gt;Node3</title>
<path fill="none" stroke="orange" stroke-dasharray="5,2" d="M84.5,-169.28C84.5,-154.14 84.5,-134.88 84.5,-120.68"/>
<polygon fill="orange" stroke="orange" points="81,-169.45 84.5,-179.45 88,-169.45 81,-169.45"/>
<text text-anchor="start" x="84.5" y="-153" font-family="Helvetica,sans-Serif" font-size="10.00"> &lt; DerivedTy, TransformDialect,</text>
<text text-anchor="middle" x="162.5" y="-142" font-family="Helvetica,sans-Serif" font-size="10.00"> ExtraDialects... &gt;</text>
</g>
<!-- Node2 -->
<g id="node2" class="node">
<title>Node2</title>
<g id="a_node2"><a xlink:href="classmlir_1_1DialectExtensionBase.html" target="_top" xlink:title="This class represents an opaque dialect extension.">
<polygon fill="none" stroke="black" points="10,-247.5 10,-266.5 159,-266.5 159,-247.5 10,-247.5"/>
<text text-anchor="middle" x="84.5" y="-254.5" font-family="Helvetica,sans-Serif" font-size="10.00">mlir::DialectExtensionBase</text>
</a>
</g>
</g>
<!-- Node2&#45;&gt;Node1 -->
<g id="edge1" class="edge">
<title>Node2&#45;&gt;Node1</title>
<path fill="none" stroke="midnightblue" d="M84.5,-237.22C84.5,-228.36 84.5,-217.96 84.5,-209.76"/>
<polygon fill="midnightblue" stroke="midnightblue" points="81,-237.33 84.5,-247.33 88,-237.33 81,-237.33"/>
</g>
<!-- Node4 -->
<g id="node4" class="node">
<title>Node4</title>
<g id="a_node4"><a xlink:href="classmlir_1_1transform_1_1TransformDialectExtension.html" target="_top" xlink:title="Base class for extensions of the Transform dialect that supports injecting operations into the Transf...">
<polygon fill="none" stroke="black" points="3.5,-0.5 3.5,-41.5 165.5,-41.5 165.5,-0.5 3.5,-0.5"/>
<text text-anchor="start" x="11.5" y="-29.5" font-family="Helvetica,sans-Serif" font-size="10.00">mlir::transform::Transform</text>
<text text-anchor="start" x="11.5" y="-18.5" font-family="Helvetica,sans-Serif" font-size="10.00">DialectExtension&lt; DerivedTy,</text>
<text text-anchor="middle" x="84.5" y="-7.5" font-family="Helvetica,sans-Serif" font-size="10.00"> ExtraDialects &gt;</text>
</a>
</g>
</g>
<!-- Node3&#45;&gt;Node4 -->
<g id="edge3" class="edge">
<title>Node3&#45;&gt;Node4</title>
<path fill="none" stroke="midnightblue" d="M84.5,-68.91C84.5,-59.79 84.5,-50.02 84.5,-41.76"/>
<polygon fill="midnightblue" stroke="midnightblue" points="81,-69.17 84.5,-79.17 88,-69.17 81,-69.17"/>
</g>
</g>
</svg>
