<?xml version="1.0" encoding="UTF-8" standalone="no"?>
<!DOCTYPE svg PUBLIC "-//W3C//DTD SVG 1.1//EN"
 "http://www.w3.org/Graphics/SVG/1.1/DTD/svg11.dtd">
<!-- Generated by graphviz version 2.43.0 (0)
 -->
<!-- Title: mlir::InterfacePass&lt; InterfaceT &gt; Pages: 1 -->
<svg width="1533pt" height="710pt"
 viewBox="0.00 0.00 1533.00 710.45" xmlns="http://www.w3.org/2000/svg" xmlns:xlink="http://www.w3.org/1999/xlink">
<g id="graph0" class="graph" transform="scale(1 1) rotate(0) translate(4 706.45)">
<title>mlir::InterfacePass&lt; InterfaceT &gt;</title>
<!-- Node1 -->
<g id="Node000001" class="node">
<title>Node1</title>
<g id="a_Node000001"><a xlink:title="Pass to transform an operation that implements the given interface.">
<polygon fill="#999999" stroke="#666666" points="357,-460.45 250,-460.45 250,-430.45 357,-430.45 357,-460.45"/>
<text text-anchor="start" x="258" y="-448.45" font-family="Helvetica,sans-Serif" font-size="10.00">mlir::InterfacePass</text>
<text text-anchor="middle" x="303.5" y="-437.45" font-family="Helvetica,sans-Serif" font-size="10.00">&lt; InterfaceT &gt;</text>
</a>
</g>
</g>
<!-- Node4 -->
<g id="Node000004" class="node">
<title>Node4</title>
<g id="a_Node000004"><a xlink:href="classmlir_1_1InterfacePass.html" target="_top" xlink:title=" ">
<polygon fill="white" stroke="#666666" points="709,-599.45 546,-599.45 546,-569.45 709,-569.45 709,-599.45"/>
<text text-anchor="start" x="554" y="-587.45" font-family="Helvetica,sans-Serif" font-size="10.00">mlir::InterfacePass</text>
<text text-anchor="middle" x="627.5" y="-576.45" font-family="Helvetica,sans-Serif" font-size="10.00">&lt; mlir::FunctionOpInterface &gt;</text>
</a>
</g>
</g>
<!-- Node1&#45;&gt;Node4 -->
<g id="edge3_Node000001_Node000004" class="edge">
<title>Node1&#45;&gt;Node4</title>
<g id="a_edge3_Node000001_Node000004"><a xlink:title=" ">
<path fill="none" stroke="orange" stroke-dasharray="5,2" d="M348.78,-464.56C413.43,-492.47 532.38,-543.82 591.39,-569.29"/>
<polygon fill="orange" stroke="orange" points="349.83,-461.2 339.27,-460.45 347.06,-467.63 349.83,-461.2"/>
</a>
</g>
<text text-anchor="start" x="378.5" y="-545.95" font-family="Helvetica,sans-Serif" font-size="10.00" fill="grey">&lt; mlir::FunctionOpInterface &gt;</text>
</g>
<!-- Node10 -->
<g id="Node000010" class="node">
<title>Node10</title>
<g id="a_Node000010"><a xlink:href="classmlir_1_1InterfacePass.html" target="_top" xlink:title=" ">
<polygon fill="white" stroke="#666666" points="696,-321.45 559,-321.45 559,-291.45 696,-291.45 696,-321.45"/>
<text text-anchor="start" x="567" y="-309.45" font-family="Helvetica,sans-Serif" font-size="10.00">mlir::InterfacePass</text>
<text text-anchor="middle" x="627.5" y="-298.45" font-family="Helvetica,sans-Serif" font-size="10.00">&lt; FunctionOpInterface &gt;</text>
</a>
</g>
</g>
<!-- Node1&#45;&gt;Node10 -->
<g id="edge10_Node000001_Node000010" class="edge">
<title>Node1&#45;&gt;Node10</title>
<g id="a_edge10_Node000001_Node000010"><a xlink:title=" ">
<path fill="none" stroke="orange" stroke-dasharray="5,2" d="M348.78,-426.33C413.43,-398.42 532.38,-347.08 591.39,-321.6"/>
<polygon fill="orange" stroke="orange" points="347.06,-423.26 339.27,-430.44 349.83,-429.69 347.06,-423.26"/>
</a>
</g>
<text text-anchor="start" x="391.5" y="-417.95" font-family="Helvetica,sans-Serif" font-size="10.00" fill="grey">&lt; FunctionOpInterface &gt;</text>
</g>
<!-- Node2 -->
<g id="Node000002" class="node">
<title>Node2</title>
<g id="a_Node000002"><a xlink:href="classmlir_1_1OperationPass.html" target="_top" xlink:title="Pass to transform an operation of a specific type.">
<polygon fill="white" stroke="#666666" points="213,-460.45 101,-460.45 101,-430.45 213,-430.45 213,-460.45"/>
<text text-anchor="start" x="109" y="-448.45" font-family="Helvetica,sans-Serif" font-size="10.00">mlir::OperationPass</text>
<text text-anchor="middle" x="157" y="-437.45" font-family="Helvetica,sans-Serif" font-size="10.00">&lt; OpT &gt;</text>
</a>
</g>
</g>
<!-- Node2&#45;&gt;Node1 -->
<g id="edge1_Node000001_Node000002" class="edge">
<title>Node2&#45;&gt;Node1</title>
<g id="a_edge1_Node000001_Node000002"><a xlink:title=" ">
<path fill="none" stroke="#63b8ff" d="M223.11,-445.45C232.11,-445.45 241.26,-445.45 249.99,-445.45"/>
<polygon fill="#63b8ff" stroke="#63b8ff" points="223.04,-441.95 213.04,-445.45 223.04,-448.95 223.04,-441.95"/>
</a>
</g>
</g>
<!-- Node3 -->
<g id="Node000003" class="node">
<title>Node3</title>
<g id="a_Node000003"><a xlink:href="classmlir_1_1Pass.html" target="_top" xlink:title="The abstract base pass class.">
<polygon fill="white" stroke="#666666" points="64,-454.95 0,-454.95 0,-435.95 64,-435.95 64,-454.95"/>
<text text-anchor="middle" x="32" y="-442.95" font-family="Helvetica,sans-Serif" font-size="10.00">mlir::Pass</text>
</a>
</g>
</g>
<!-- Node3&#45;&gt;Node2 -->
<g id="edge2_Node000002_Node000003" class="edge">
<title>Node3&#45;&gt;Node2</title>
<g id="a_edge2_Node000002_Node000003"><a xlink:title=" ">
<path fill="none" stroke="#63b8ff" d="M74.06,-445.45C82.55,-445.45 91.64,-445.45 100.55,-445.45"/>
<polygon fill="#63b8ff" stroke="#63b8ff" points="74.04,-441.95 64.04,-445.45 74.04,-448.95 74.04,-441.95"/>
</a>
</g>
</g>
<!-- Node5 -->
<g id="Node000005" class="node">
<title>Node5</title>
<g id="a_Node000005"><a xlink:href="classmlir_1_1shard_1_1impl_1_1ShardingPropagationBase.html" target="_top" xlink:title=" ">
<polygon fill="white" stroke="#666666" points="1303,-624.95 1161,-624.95 1161,-583.95 1303,-583.95 1303,-624.95"/>
<text text-anchor="start" x="1169" y="-612.95" font-family="Helvetica,sans-Serif" font-size="10.00">mlir::shard::impl::</text>
<text text-anchor="start" x="1169" y="-601.95" font-family="Helvetica,sans-Serif" font-size="10.00">ShardingPropagationBase</text>
<text text-anchor="middle" x="1232" y="-590.95" font-family="Helvetica,sans-Serif" font-size="10.00">&lt; ShardingPropagation &gt;</text>
</a>
</g>
</g>
<!-- Node4&#45;&gt;Node5 -->
<g id="edge4_Node000004_Node000005" class="edge">
<title>Node4&#45;&gt;Node5</title>
<g id="a_edge4_Node000004_Node000005"><a xlink:title=" ">
<path fill="none" stroke="#63b8ff" d="M719.46,-587.47C840.32,-591.48 1051.26,-598.48 1160.67,-602.11"/>
<polygon fill="#63b8ff" stroke="#63b8ff" points="719.24,-583.96 709.13,-587.12 719.01,-590.95 719.24,-583.96"/>
</a>
</g>
</g>
<!-- Node7 -->
<g id="Node000007" class="node">
<title>Node7</title>
<g id="a_Node000007"><a xlink:href="classmlir_1_1acc_1_1impl_1_1ACCBindRoutineBase.html" target="_top" xlink:title=" ">
<polygon fill="white" stroke="#666666" points="906.5,-556.45 761.5,-556.45 761.5,-526.45 906.5,-526.45 906.5,-556.45"/>
<text text-anchor="start" x="769.5" y="-544.45" font-family="Helvetica,sans-Serif" font-size="10.00">mlir::acc::impl::ACCBind</text>
<text text-anchor="middle" x="834" y="-533.45" font-family="Helvetica,sans-Serif" font-size="10.00">RoutineBase&lt; DerivedT &gt;</text>
</a>
</g>
</g>
<!-- Node4&#45;&gt;Node7 -->
<g id="edge6_Node000004_Node000007" class="edge">
<title>Node4&#45;&gt;Node7</title>
<g id="a_edge6_Node000004_Node000007"><a xlink:title=" ">
<path fill="none" stroke="#63b8ff" d="M709.95,-567.32C727.01,-563.73 744.86,-559.98 761.52,-556.48"/>
<polygon fill="#63b8ff" stroke="#63b8ff" points="709.09,-563.93 700.02,-569.41 710.53,-570.78 709.09,-563.93"/>
</a>
</g>
</g>
<!-- Node8 -->
<g id="Node000008" class="node">
<title>Node8</title>
<g id="a_Node000008"><a xlink:href="classmlir_1_1shard_1_1impl_1_1PartitionBase.html" target="_top" xlink:title=" ">
<polygon fill="white" stroke="#666666" points="908,-702.45 760,-702.45 760,-672.45 908,-672.45 908,-702.45"/>
<text text-anchor="start" x="768" y="-690.45" font-family="Helvetica,sans-Serif" font-size="10.00">mlir::shard::impl::</text>
<text text-anchor="middle" x="834" y="-679.45" font-family="Helvetica,sans-Serif" font-size="10.00">PartitionBase&lt; DerivedT &gt;</text>
</a>
</g>
</g>
<!-- Node4&#45;&gt;Node8 -->
<g id="edge7_Node000004_Node000008" class="edge">
<title>Node4&#45;&gt;Node8</title>
<g id="a_edge7_Node000004_Node000008"><a xlink:title=" ">
<path fill="none" stroke="#63b8ff" d="M655.08,-606C677.98,-623.63 712.53,-648.07 746,-663.45 753.26,-666.78 761.08,-669.74 768.95,-672.34"/>
<polygon fill="#63b8ff" stroke="#63b8ff" points="656.94,-603.01 646.91,-599.61 652.63,-608.53 656.94,-603.01"/>
</a>
</g>
</g>
<!-- Node9 -->
<g id="Node000009" class="node">
<title>Node9</title>
<g id="a_Node000009"><a xlink:href="classmlir_1_1shard_1_1impl_1_1ShardingPropagationBase.html" target="_top" xlink:title=" ">
<polygon fill="white" stroke="#666666" points="905,-653.95 763,-653.95 763,-612.95 905,-612.95 905,-653.95"/>
<text text-anchor="start" x="771" y="-641.95" font-family="Helvetica,sans-Serif" font-size="10.00">mlir::shard::impl::</text>
<text text-anchor="start" x="771" y="-630.95" font-family="Helvetica,sans-Serif" font-size="10.00">ShardingPropagationBase</text>
<text text-anchor="middle" x="834" y="-619.95" font-family="Helvetica,sans-Serif" font-size="10.00">&lt; DerivedT &gt;</text>
</a>
</g>
</g>
<!-- Node4&#45;&gt;Node9 -->
<g id="edge8_Node000004_Node000009" class="edge">
<title>Node4&#45;&gt;Node9</title>
<g id="a_edge8_Node000004_Node000009"><a xlink:title=" ">
<path fill="none" stroke="#63b8ff" d="M700.97,-601.81C721.09,-606.63 742.9,-611.86 762.88,-616.65"/>
<polygon fill="#63b8ff" stroke="#63b8ff" points="701.79,-598.41 691.25,-599.48 700.16,-605.22 701.79,-598.41"/>
</a>
</g>
</g>
<!-- Node6 -->
<g id="Node000006" class="node">
<title>Node6</title>
<g id="a_Node000006"><a xlink:href="structShardingPropagation.html" target="_top" xlink:title=" ">
<polygon fill="white" stroke="#666666" points="1511,-613.95 1393,-613.95 1393,-594.95 1511,-594.95 1511,-613.95"/>
<text text-anchor="middle" x="1452" y="-601.95" font-family="Helvetica,sans-Serif" font-size="10.00">ShardingPropagation</text>
</a>
</g>
</g>
<!-- Node5&#45;&gt;Node6 -->
<g id="edge5_Node000005_Node000006" class="edge">
<title>Node5&#45;&gt;Node6</title>
<g id="a_edge5_Node000005_Node000006"><a xlink:title=" ">
<path fill="none" stroke="#63b8ff" d="M1313.18,-604.45C1339.63,-604.45 1368.52,-604.45 1392.99,-604.45"/>
<polygon fill="#63b8ff" stroke="#63b8ff" points="1313.18,-600.95 1303.18,-604.45 1313.18,-607.95 1313.18,-600.95"/>
</a>
</g>
</g>
<!-- Node9&#45;&gt;Node5 -->
<g id="edge9_Node000009_Node000005" class="edge">
<title>Node9&#45;&gt;Node5</title>
<g id="a_edge9_Node000009_Node000005"><a xlink:title=" ">
<path fill="none" stroke="orange" stroke-dasharray="5,2" d="M915.73,-627.54C987.83,-622.26 1092.35,-614.6 1160.98,-609.57"/>
<polygon fill="orange" stroke="orange" points="915.06,-624.08 905.34,-628.3 915.57,-631.06 915.06,-624.08"/>
</a>
</g>
<text text-anchor="start" x="960" y="-630.95" font-family="Helvetica,sans-Serif" font-size="10.00" fill="grey">&lt; ShardingPropagation &gt;</text>
</g>
<!-- Node11 -->
<g id="Node000011" class="node">
<title>Node11</title>
<g id="a_Node000011"><a xlink:href="classmlir_1_1affine_1_1impl_1_1SimplifyAffineMinMaxPassBase.html" target="_top" xlink:title=" ">
<polygon fill="white" stroke="#666666" points="1328,-302.95 1136,-302.95 1136,-261.95 1328,-261.95 1328,-302.95"/>
<text text-anchor="start" x="1144" y="-290.95" font-family="Helvetica,sans-Serif" font-size="10.00">mlir::affine::impl</text>
<text text-anchor="start" x="1144" y="-279.95" font-family="Helvetica,sans-Serif" font-size="10.00">::SimplifyAffineMinMaxPass</text>
<text text-anchor="middle" x="1232" y="-268.95" font-family="Helvetica,sans-Serif" font-size="10.00">Base&lt; SimplifyAffineMinMaxPass &gt;</text>
</a>
</g>
</g>
<!-- Node10&#45;&gt;Node11 -->
<g id="edge11_Node000010_Node000011" class="edge">
<title>Node10&#45;&gt;Node11</title>
<g id="a_edge11_Node000010_Node000011"><a xlink:title=" ">
<path fill="none" stroke="#63b8ff" d="M706.28,-305.33C800.48,-303.7 963.96,-300.02 1104,-292.45 1114.27,-291.89 1125,-291.21 1135.68,-290.46"/>
<polygon fill="#63b8ff" stroke="#63b8ff" points="706.2,-301.83 696.26,-305.5 706.32,-308.83 706.2,-301.83"/>
</a>
</g>
</g>
<!-- Node13 -->
<g id="Node000013" class="node">
<title>Node13</title>
<g id="a_Node000013"><a xlink:href="classmlir_1_1bufferization_1_1impl_1_1StaticMemoryPlannerAnalysisPassBase.html" target="_top" xlink:title=" ">
<polygon fill="white" stroke="#666666" points="1342,-82.45 1122,-82.45 1122,-30.45 1342,-30.45 1342,-82.45"/>
<text text-anchor="start" x="1130" y="-70.45" font-family="Helvetica,sans-Serif" font-size="10.00">mlir::bufferization</text>
<text text-anchor="start" x="1130" y="-59.45" font-family="Helvetica,sans-Serif" font-size="10.00">::impl::StaticMemoryPlanner</text>
<text text-anchor="start" x="1130" y="-48.45" font-family="Helvetica,sans-Serif" font-size="10.00">AnalysisPassBase&lt; StaticMemoryPlanner</text>
<text text-anchor="middle" x="1232" y="-37.45" font-family="Helvetica,sans-Serif" font-size="10.00">AnalysisPass &gt;</text>
</a>
</g>
</g>
<!-- Node10&#45;&gt;Node13 -->
<g id="edge13_Node000010_Node000013" class="edge">
<title>Node10&#45;&gt;Node13</title>
<g id="a_edge13_Node000010_Node000013"><a xlink:title=" ">
<path fill="none" stroke="#63b8ff" d="M631.27,-281.3C638.69,-227.7 664.36,-102.81 746,-50.45 868.98,28.42 1048.04,-2.37 1150.67,-30.41"/>
<polygon fill="#63b8ff" stroke="#63b8ff" points="627.79,-280.96 629.99,-291.32 634.73,-281.85 627.79,-280.96"/>
</a>
</g>
</g>
<!-- Node14 -->
<g id="Node000014" class="node">
<title>Node14</title>
<g id="a_Node000014"><a xlink:href="classmlir_1_1affine_1_1impl_1_1AffineLoopUnrollAndJamBase.html" target="_top" xlink:title=" ">
<polygon fill="white" stroke="#666666" points="916.5,-218.95 751.5,-218.95 751.5,-177.95 916.5,-177.95 916.5,-218.95"/>
<text text-anchor="start" x="759.5" y="-206.95" font-family="Helvetica,sans-Serif" font-size="10.00">mlir::affine::impl</text>
<text text-anchor="start" x="759.5" y="-195.95" font-family="Helvetica,sans-Serif" font-size="10.00">::AffineLoopUnrollAndJamBase</text>
<text text-anchor="middle" x="834" y="-184.95" font-family="Helvetica,sans-Serif" font-size="10.00">&lt; DerivedT &gt;</text>
</a>
</g>
</g>
<!-- Node10&#45;&gt;Node14 -->
<g id="edge14_Node000010_Node000014" class="edge">
<title>Node10&#45;&gt;Node14</title>
<g id="a_edge14_Node000010_Node000014"><a xlink:title=" ">
<path fill="none" stroke="#63b8ff" d="M655.71,-285.04C678.73,-267.7 713.14,-243.6 746,-227.45 752.14,-224.43 758.68,-221.6 765.3,-219"/>
<polygon fill="#63b8ff" stroke="#63b8ff" points="653.3,-282.47 647.47,-291.32 657.54,-288.04 653.3,-282.47"/>
</a>
</g>
</g>
<!-- Node15 -->
<g id="Node000015" class="node">
<title>Node15</title>
<g id="a_Node000015"><a xlink:href="classmlir_1_1affine_1_1impl_1_1AffineLoopUnrollBase.html" target="_top" xlink:title=" ">
<polygon fill="white" stroke="#666666" points="898,-159.95 770,-159.95 770,-118.95 898,-118.95 898,-159.95"/>
<text text-anchor="start" x="778" y="-147.95" font-family="Helvetica,sans-Serif" font-size="10.00">mlir::affine::impl</text>
<text text-anchor="start" x="778" y="-136.95" font-family="Helvetica,sans-Serif" font-size="10.00">::AffineLoopUnrollBase</text>
<text text-anchor="middle" x="834" y="-125.95" font-family="Helvetica,sans-Serif" font-size="10.00">&lt; DerivedT &gt;</text>
</a>
</g>
</g>
<!-- Node10&#45;&gt;Node15 -->
<g id="edge15_Node000010_Node000015" class="edge">
<title>Node10&#45;&gt;Node15</title>
<g id="a_edge15_Node000010_Node000015"><a xlink:title=" ">
<path fill="none" stroke="#63b8ff" d="M642.97,-282.47C662.64,-251.82 700.61,-199.07 746,-168.45 753.26,-163.55 761.41,-159.42 769.75,-155.95"/>
<polygon fill="#63b8ff" stroke="#63b8ff" points="639.83,-280.89 637.47,-291.22 645.76,-284.62 639.83,-280.89"/>
</a>
</g>
</g>
<!-- Node16 -->
<g id="Node000016" class="node">
<title>Node16</title>
<g id="a_Node000016"><a xlink:href="classmlir_1_1affine_1_1impl_1_1SimplifyAffineMinMaxPassBase.html" target="_top" xlink:title=" ">
<polygon fill="white" stroke="#666666" points="910,-277.95 758,-277.95 758,-236.95 910,-236.95 910,-277.95"/>
<text text-anchor="start" x="766" y="-265.95" font-family="Helvetica,sans-Serif" font-size="10.00">mlir::affine::impl</text>
<text text-anchor="start" x="766" y="-254.95" font-family="Helvetica,sans-Serif" font-size="10.00">::SimplifyAffineMinMaxPass</text>
<text text-anchor="middle" x="834" y="-243.95" font-family="Helvetica,sans-Serif" font-size="10.00">Base&lt; DerivedT &gt;</text>
</a>
</g>
</g>
<!-- Node10&#45;&gt;Node16 -->
<g id="edge16_Node000010_Node000016" class="edge">
<title>Node10&#45;&gt;Node16</title>
<g id="a_edge16_Node000010_Node000016"><a xlink:title=" ">
<path fill="none" stroke="#63b8ff" d="M701.02,-289.07C719.43,-284.66 739.24,-279.91 757.78,-275.47"/>
<polygon fill="#63b8ff" stroke="#63b8ff" points="700.16,-285.68 691.25,-291.41 701.79,-292.49 700.16,-285.68"/>
</a>
</g>
</g>
<!-- Node17 -->
<g id="Node000017" class="node">
<title>Node17</title>
<g id="a_Node000017"><a xlink:href="classmlir_1_1bufferization_1_1impl_1_1StaticMemoryPlannerAnalysisPassBase.html" target="_top" xlink:title=" ">
<polygon fill="white" stroke="#666666" points="919,-100.95 749,-100.95 749,-59.95 919,-59.95 919,-100.95"/>
<text text-anchor="start" x="757" y="-88.95" font-family="Helvetica,sans-Serif" font-size="10.00">mlir::bufferization</text>
<text text-anchor="start" x="757" y="-77.95" font-family="Helvetica,sans-Serif" font-size="10.00">::impl::StaticMemoryPlanner</text>
<text text-anchor="middle" x="834" y="-66.95" font-family="Helvetica,sans-Serif" font-size="10.00">AnalysisPassBase&lt; DerivedT &gt;</text>
</a>
</g>
</g>
<!-- Node10&#45;&gt;Node17 -->
<g id="edge18_Node000010_Node000017" class="edge">
<title>Node10&#45;&gt;Node17</title>
<g id="a_edge18_Node000010_Node000017"><a xlink:title=" ">
<path fill="none" stroke="#63b8ff" d="M636.71,-281.8C651.79,-240.26 687.79,-156.27 746,-109.45 749.85,-106.35 754.04,-103.58 758.43,-101.11"/>
<polygon fill="#63b8ff" stroke="#63b8ff" points="633.35,-280.8 633.33,-291.4 639.96,-283.13 633.35,-280.8"/>
</a>
</g>
</g>
<!-- Node18 -->
<g id="Node000018" class="node">
<title>Node18</title>
<g id="a_Node000018"><a xlink:href="classmlir_1_1impl_1_1ConvertAffineForToGPUPassBase.html" target="_top" xlink:title=" ">
<polygon fill="white" stroke="#666666" points="922,-508.45 746,-508.45 746,-478.45 922,-478.45 922,-508.45"/>
<text text-anchor="start" x="754" y="-496.45" font-family="Helvetica,sans-Serif" font-size="10.00">mlir::impl::ConvertAffine</text>
<text text-anchor="middle" x="834" y="-485.45" font-family="Helvetica,sans-Serif" font-size="10.00">ForToGPUPassBase&lt; DerivedT &gt;</text>
</a>
</g>
</g>
<!-- Node10&#45;&gt;Node18 -->
<g id="edge20_Node000010_Node000018" class="edge">
<title>Node10&#45;&gt;Node18</title>
<g id="a_edge20_Node000010_Node000018"><a xlink:title=" ">
<path fill="none" stroke="#63b8ff" d="M639.5,-330.95C656.9,-366.85 694.17,-433.4 746,-469.45 750.89,-472.85 756.24,-475.77 761.82,-478.27"/>
<polygon fill="#63b8ff" stroke="#63b8ff" points="642.56,-329.23 635.13,-321.68 636.23,-332.22 642.56,-329.23"/>
</a>
</g>
</g>
<!-- Node19 -->
<g id="Node000019" class="node">
<title>Node19</title>
<g id="a_Node000019"><a xlink:href="classmlir_1_1impl_1_1ConvertArmSMEToLLVMBase.html" target="_top" xlink:title=" ">
<polygon fill="white" stroke="#666666" points="914,-460.45 754,-460.45 754,-430.45 914,-430.45 914,-460.45"/>
<text text-anchor="start" x="762" y="-448.45" font-family="Helvetica,sans-Serif" font-size="10.00">mlir::impl::ConvertArmSMETo</text>
<text text-anchor="middle" x="834" y="-437.45" font-family="Helvetica,sans-Serif" font-size="10.00">LLVMBase&lt; DerivedT &gt;</text>
</a>
</g>
</g>
<!-- Node10&#45;&gt;Node19 -->
<g id="edge21_Node000010_Node000019" class="edge">
<title>Node10&#45;&gt;Node19</title>
<g id="a_edge21_Node000010_Node000019"><a xlink:title=" ">
<path fill="none" stroke="#63b8ff" d="M645.93,-329.47C666.89,-355.57 704.47,-397.56 746,-421.45 751.98,-424.88 758.47,-427.85 765.12,-430.4"/>
<polygon fill="#63b8ff" stroke="#63b8ff" points="648.67,-327.29 639.73,-321.6 643.17,-331.62 648.67,-327.29"/>
</a>
</g>
</g>
<!-- Node20 -->
<g id="Node000020" class="node">
<title>Node20</title>
<g id="a_Node000020"><a xlink:href="classmlir_1_1impl_1_1TosaToLinalgBase.html" target="_top" xlink:title=" ">
<polygon fill="white" stroke="#666666" points="899.5,-412.45 768.5,-412.45 768.5,-382.45 899.5,-382.45 899.5,-412.45"/>
<text text-anchor="start" x="776.5" y="-400.45" font-family="Helvetica,sans-Serif" font-size="10.00">mlir::impl::TosaToLinalg</text>
<text text-anchor="middle" x="834" y="-389.45" font-family="Helvetica,sans-Serif" font-size="10.00">Base&lt; DerivedT &gt;</text>
</a>
</g>
</g>
<!-- Node10&#45;&gt;Node20 -->
<g id="edge22_Node000010_Node000020" class="edge">
<title>Node10&#45;&gt;Node20</title>
<g id="a_edge22_Node000010_Node000020"><a xlink:title=" ">
<path fill="none" stroke="#63b8ff" d="M659.7,-327.09C682.77,-341.64 715.37,-360.72 746,-373.45 753.96,-376.75 762.51,-379.75 771.04,-382.41"/>
<polygon fill="#63b8ff" stroke="#63b8ff" points="661.35,-324 651.04,-321.57 657.58,-329.9 661.35,-324"/>
</a>
</g>
</g>
<!-- Node21 -->
<g id="Node000021" class="node">
<title>Node21</title>
<g id="a_Node000021"><a xlink:href="classmlir_1_1impl_1_1TosaToLinalgNamedBase.html" target="_top" xlink:title=" ">
<polygon fill="white" stroke="#666666" points="905.5,-364.45 762.5,-364.45 762.5,-334.45 905.5,-334.45 905.5,-364.45"/>
<text text-anchor="start" x="770.5" y="-352.45" font-family="Helvetica,sans-Serif" font-size="10.00">mlir::impl::TosaToLinalg</text>
<text text-anchor="middle" x="834" y="-341.45" font-family="Helvetica,sans-Serif" font-size="10.00">NamedBase&lt; DerivedT &gt;</text>
</a>
</g>
</g>
<!-- Node10&#45;&gt;Node21 -->
<g id="edge23_Node000010_Node000021" class="edge">
<title>Node10&#45;&gt;Node21</title>
<g id="a_edge23_Node000010_Node000021"><a xlink:title=" ">
<path fill="none" stroke="#63b8ff" d="M705.9,-322.72C724.45,-326.62 744.16,-330.77 762.39,-334.6"/>
<polygon fill="#63b8ff" stroke="#63b8ff" points="706.53,-319.28 696.03,-320.65 705.09,-326.13 706.53,-319.28"/>
</a>
</g>
</g>
<!-- Node12 -->
<g id="Node000012" class="node">
<title>Node12</title>
<g id="a_Node000012"><a xlink:href="structSimplifyAffineMinMaxPass.html" target="_top" xlink:title="Creates a simplification pass for affine min/max/apply.">
<polygon fill="white" stroke="#666666" points="1525,-291.95 1379,-291.95 1379,-272.95 1525,-272.95 1525,-291.95"/>
<text text-anchor="middle" x="1452" y="-279.95" font-family="Helvetica,sans-Serif" font-size="10.00">SimplifyAffineMinMaxPass</text>
</a>
</g>
</g>
<!-- Node11&#45;&gt;Node12 -->
<g id="edge12_Node000011_Node000012" class="edge">
<title>Node11&#45;&gt;Node12</title>
<g id="a_edge12_Node000011_Node000012"><a xlink:title=" ">
<path fill="none" stroke="#63b8ff" d="M1338.68,-282.45C1352.28,-282.45 1365.95,-282.45 1378.84,-282.45"/>
<polygon fill="#63b8ff" stroke="#63b8ff" points="1338.3,-278.95 1328.3,-282.45 1338.3,-285.95 1338.3,-278.95"/>
</a>
</g>
</g>
<!-- Node16&#45;&gt;Node11 -->
<g id="edge17_Node000016_Node000011" class="edge">
<title>Node16&#45;&gt;Node11</title>
<g id="a_edge17_Node000016_Node000011"><a xlink:title=" ">
<path fill="none" stroke="orange" stroke-dasharray="5,2" d="M920.78,-262.86C984.15,-266.86 1070.43,-272.31 1135.91,-276.44"/>
<polygon fill="orange" stroke="orange" points="920.62,-259.35 910.42,-262.21 920.18,-266.33 920.62,-259.35"/>
</a>
</g>
<text text-anchor="start" x="946" y="-279.95" font-family="Helvetica,sans-Serif" font-size="10.00" fill="grey">&lt; SimplifyAffineMinMaxPass &gt;</text>
</g>
<!-- Node17&#45;&gt;Node13 -->
<g id="edge19_Node000017_Node000013" class="edge">
<title>Node17&#45;&gt;Node13</title>
<g id="a_edge19_Node000017_Node000013"><a xlink:title=" ">
<path fill="none" stroke="orange" stroke-dasharray="5,2" d="M929.69,-74.71C987.47,-71.21 1061.56,-66.72 1121.8,-63.07"/>
<polygon fill="orange" stroke="orange" points="929.24,-71.23 919.47,-75.33 929.66,-78.22 929.24,-71.23"/>
</a>
</g>
<text text-anchor="start" x="943" y="-95.45" font-family="Helvetica,sans-Serif" font-size="10.00" fill="grey">&lt; StaticMemoryPlannerAnalysis</text>
<text text-anchor="start" x="943" y="-80.45" font-family="Helvetica,sans-Serif" font-size="10.00" fill="grey">  Pass &gt;</text>
</g>
</g>
</svg>
