<?xml version="1.0" encoding="UTF-8" standalone="no"?>
<!DOCTYPE svg PUBLIC "-//W3C//DTD SVG 1.1//EN"
 "http://www.w3.org/Graphics/SVG/1.1/DTD/svg11.dtd">
<!-- Generated by graphviz version 2.43.0 (0)
 -->
<!-- Title: mlir::ValueUseIterator&lt; OperandType &gt; Pages: 1 -->
<svg width="580pt" height="60pt"
 viewBox="0.00 0.00 580.00 60.00" xmlns="http://www.w3.org/2000/svg" xmlns:xlink="http://www.w3.org/1999/xlink">
<g id="graph0" class="graph" transform="scale(1 1) rotate(0) translate(4 56)">
<title>mlir::ValueUseIterator&lt; OperandType &gt;</title>
<!-- Node1 -->
<g id="Node000001" class="node">
<title>Node1</title>
<g id="a_Node000001"><a xlink:title="An iterator class that allows for iterating over the uses of an IR operand type.">
<polygon fill="#999999" stroke="#666666" points="328,-41 204,-41 204,-11 328,-11 328,-41"/>
<text text-anchor="start" x="212" y="-29" font-family="Helvetica,sans-Serif" font-size="10.00">mlir::ValueUseIterator</text>
<text text-anchor="middle" x="266" y="-18" font-family="Helvetica,sans-Serif" font-size="10.00">&lt; OperandType &gt;</text>
</a>
</g>
</g>
<!-- Node3 -->
<g id="Node000003" class="node">
<title>Node3</title>
<g id="a_Node000003"><a xlink:href="classmlir_1_1ValueUseIterator.html" target="_top" xlink:title=" ">
<polygon fill="white" stroke="#666666" points="572,-41 448,-41 448,-11 572,-11 572,-41"/>
<text text-anchor="start" x="456" y="-29" font-family="Helvetica,sans-Serif" font-size="10.00">mlir::ValueUseIterator</text>
<text text-anchor="middle" x="510" y="-18" font-family="Helvetica,sans-Serif" font-size="10.00">&lt; OpOperand &gt;</text>
</a>
</g>
</g>
<!-- Node1&#45;&gt;Node3 -->
<g id="edge2_Node000001_Node000003" class="edge">
<title>Node1&#45;&gt;Node3</title>
<g id="a_edge2_Node000001_Node000003"><a xlink:title=" ">
<path fill="none" stroke="orange" stroke-dasharray="5,2" d="M338.18,-26C373.03,-26 414.57,-26 447.95,-26"/>
<polygon fill="orange" stroke="orange" points="338.07,-22.5 328.07,-26 338.07,-29.5 338.07,-22.5"/>
</a>
</g>
<text text-anchor="start" x="349" y="-31.5" font-family="Helvetica,sans-Serif" font-size="10.00" fill="grey">&lt; OpOperand &gt;</text>
</g>
<!-- Node2 -->
<g id="Node000002" class="node">
<title>Node2</title>
<g id="a_Node000002"><a xlink:title=" ">
<polygon fill="white" stroke="#666666" points="167,-52 0,-52 0,0 167,0 167,-52"/>
<text text-anchor="start" x="8" y="-40" font-family="Helvetica,sans-Serif" font-size="10.00">llvm::iterator_facade</text>
<text text-anchor="start" x="8" y="-29" font-family="Helvetica,sans-Serif" font-size="10.00">_base&lt; ValueUseIterator</text>
<text text-anchor="start" x="8" y="-18" font-family="Helvetica,sans-Serif" font-size="10.00">&lt; OperandType &gt;, std::forward</text>
<text text-anchor="middle" x="83.5" y="-7" font-family="Helvetica,sans-Serif" font-size="10.00">_iterator_tag, OperandType &gt;</text>
</a>
</g>
</g>
<!-- Node2&#45;&gt;Node1 -->
<g id="edge1_Node000001_Node000002" class="edge">
<title>Node2&#45;&gt;Node1</title>
<g id="a_edge1_Node000001_Node000002"><a xlink:title=" ">
<path fill="none" stroke="#63b8ff" d="M177.24,-26C186.24,-26 195.2,-26 203.77,-26"/>
<polygon fill="#63b8ff" stroke="#63b8ff" points="177.09,-22.5 167.09,-26 177.09,-29.5 177.09,-22.5"/>
</a>
</g>
</g>
</g>
</svg>
