<?xml version="1.0" encoding="UTF-8" standalone="no"?>
<!DOCTYPE svg PUBLIC "-//W3C//DTD SVG 1.1//EN"
 "http://www.w3.org/Graphics/SVG/1.1/DTD/svg11.dtd">
<!-- Generated by graphviz version 2.43.0 (0)
 -->
<!-- Title: mlir::LLVMTranslationInterface Pages: 1 -->
<svg width="932pt" height="61pt"
 viewBox="0.00 0.00 932.00 61.00" xmlns="http://www.w3.org/2000/svg" xmlns:xlink="http://www.w3.org/1999/xlink">
<g id="graph0" class="graph" transform="scale(1 1) rotate(0) translate(4 57)">
<title>mlir::LLVMTranslationInterface</title>
<!-- Node1 -->
<g id="Node000001" class="node">
<title>Node1</title>
<g id="a_Node000001"><a xlink:title="Interface collection for translation to LLVM IR, dispatches to a concrete interface implementation ba...">
<polygon fill="#999999" stroke="#666666" points="924,-45.5 760,-45.5 760,-26.5 924,-26.5 924,-45.5"/>
<text text-anchor="middle" x="842" y="-33.5" font-family="Helvetica,sans-Serif" font-size="10.00">mlir::LLVMTranslationInterface</text>
</a>
</g>
</g>
<!-- Node2 -->
<g id="Node000002" class="node">
<title>Node2</title>
<g id="a_Node000002"><a xlink:href="classmlir_1_1DialectInterfaceCollection.html" target="_top" xlink:title=" ">
<polygon fill="white" stroke="#666666" points="723,-51 527,-51 527,-21 723,-21 723,-51"/>
<text text-anchor="start" x="535" y="-39" font-family="Helvetica,sans-Serif" font-size="10.00">mlir::DialectInterfaceCollection</text>
<text text-anchor="middle" x="625" y="-28" font-family="Helvetica,sans-Serif" font-size="10.00">&lt; LLVMTranslationDialectInterface &gt;</text>
</a>
</g>
</g>
<!-- Node2&#45;&gt;Node1 -->
<g id="edge1_Node000001_Node000002" class="edge">
<title>Node2&#45;&gt;Node1</title>
<g id="a_edge1_Node000001_Node000002"><a xlink:title=" ">
<path fill="none" stroke="#63b8ff" d="M733.19,-36C742.12,-36 751.06,-36 759.75,-36"/>
<polygon fill="#63b8ff" stroke="#63b8ff" points="733.12,-32.5 723.12,-36 733.12,-39.5 733.12,-32.5"/>
</a>
</g>
</g>
<!-- Node3 -->
<g id="Node000003" class="node">
<title>Node3</title>
<g id="a_Node000003"><a xlink:href="classmlir_1_1detail_1_1DialectInterfaceCollectionBase.html" target="_top" xlink:title="This class is the base class for a collection of instances for a specific interface kind.">
<polygon fill="white" stroke="#666666" points="154,-53 0,-53 0,-23 154,-23 154,-53"/>
<text text-anchor="start" x="8" y="-41" font-family="Helvetica,sans-Serif" font-size="10.00">mlir::detail::DialectInterface</text>
<text text-anchor="middle" x="77" y="-30" font-family="Helvetica,sans-Serif" font-size="10.00">CollectionBase</text>
</a>
</g>
</g>
<!-- Node3&#45;&gt;Node2 -->
<g id="edge2_Node000002_Node000003" class="edge">
<title>Node3&#45;&gt;Node2</title>
<g id="a_edge2_Node000002_Node000003"><a xlink:title=" ">
<path fill="none" stroke="#63b8ff" d="M164.43,-42.75C251.48,-46.79 389.61,-51.18 509,-46 514.81,-45.75 520.77,-45.42 526.79,-45.05"/>
<polygon fill="#63b8ff" stroke="#63b8ff" points="164.49,-39.24 154.33,-42.27 164.16,-46.24 164.49,-39.24"/>
</a>
</g>
</g>
<!-- Node4 -->
<g id="Node000004" class="node">
<title>Node4</title>
<g id="a_Node000004"><a xlink:href="classmlir_1_1DialectInterfaceCollection.html" target="_top" xlink:title="A collection of dialect interfaces within a context, for a given concrete interface type.">
<polygon fill="white" stroke="#666666" points="360,-30 191,-30 191,0 360,0 360,-30"/>
<text text-anchor="start" x="199" y="-18" font-family="Helvetica,sans-Serif" font-size="10.00">mlir::DialectInterfaceCollection</text>
<text text-anchor="middle" x="275.5" y="-7" font-family="Helvetica,sans-Serif" font-size="10.00">&lt; InterfaceType &gt;</text>
</a>
</g>
</g>
<!-- Node3&#45;&gt;Node4 -->
<g id="edge4_Node000004_Node000003" class="edge">
<title>Node3&#45;&gt;Node4</title>
<g id="a_edge4_Node000004_Node000003"><a xlink:title=" ">
<path fill="none" stroke="#63b8ff" d="M164.45,-27.88C173.2,-26.86 182.07,-25.82 190.79,-24.8"/>
<polygon fill="#63b8ff" stroke="#63b8ff" points="163.78,-24.44 154.25,-29.07 164.59,-31.39 163.78,-24.44"/>
</a>
</g>
</g>
<!-- Node4&#45;&gt;Node2 -->
<g id="edge3_Node000002_Node000004" class="edge">
<title>Node4&#45;&gt;Node2</title>
<g id="a_edge3_Node000002_Node000004"><a xlink:title=" ">
<path fill="none" stroke="orange" stroke-dasharray="5,2" d="M370.27,-14.04C372.88,-14.03 375.46,-14.01 378,-14 436.22,-13.71 451.04,-8.51 509,-14 524.68,-15.49 541.41,-18.09 557.11,-21"/>
<polygon fill="orange" stroke="orange" points="370.11,-10.54 360.14,-14.11 370.16,-17.54 370.11,-10.54"/>
</a>
</g>
<text text-anchor="start" x="381.5" y="-35" font-family="Helvetica,sans-Serif" font-size="10.00" fill="grey">&lt; LLVMTranslationDialect</text>
<text text-anchor="start" x="381.5" y="-20" font-family="Helvetica,sans-Serif" font-size="10.00" fill="grey">  Interface &gt;</text>
</g>
</g>
</svg>
