<?xml version="1.0" encoding="UTF-8" standalone="no"?>
<!DOCTYPE svg PUBLIC "-//W3C//DTD SVG 1.1//EN"
 "http://www.w3.org/Graphics/SVG/1.1/DTD/svg11.dtd">
<!-- Generated by graphviz version 2.43.0 (0)
 -->
<!-- Title: mlir::pdll::ast::TypeRangeConstraintDecl Pages: 1 -->
<svg width="394pt" height="382pt"
 viewBox="0.00 0.00 394.00 382.00" xmlns="http://www.w3.org/2000/svg" xmlns:xlink="http://www.w3.org/1999/xlink">
<g id="graph0" class="graph" transform="scale(1 1) rotate(0) translate(4 378)">
<title>mlir::pdll::ast::TypeRangeConstraintDecl</title>
<!-- Node1 -->
<g id="Node000001" class="node">
<title>Node1</title>
<g id="a_Node000001"><a xlink:title="The class represents a TypeRange constraint, and constrains a variable to be a TypeRange.">
<polygon fill="#999999" stroke="#666666" points="249,-30 109,-30 109,0 249,0 249,-30"/>
<text text-anchor="start" x="117" y="-18" font-family="Helvetica,sans-Serif" font-size="10.00">mlir::pdll::ast::TypeRange</text>
<text text-anchor="middle" x="179" y="-7" font-family="Helvetica,sans-Serif" font-size="10.00">ConstraintDecl</text>
</a>
</g>
</g>
<!-- Node2 -->
<g id="Node000002" class="node">
<title>Node2</title>
<g id="a_Node000002"><a xlink:href="classmlir_1_1pdll_1_1ast_1_1Node_1_1NodeBase.html" target="_top" xlink:title=" ">
<polygon fill="white" stroke="#666666" points="272.5,-108 85.5,-108 85.5,-67 272.5,-67 272.5,-108"/>
<text text-anchor="start" x="93.5" y="-96" font-family="Helvetica,sans-Serif" font-size="10.00">mlir::pdll::ast::Node</text>
<text text-anchor="start" x="93.5" y="-85" font-family="Helvetica,sans-Serif" font-size="10.00">::NodeBase&lt; TypeRangeConstraint</text>
<text text-anchor="middle" x="179" y="-74" font-family="Helvetica,sans-Serif" font-size="10.00">Decl, CoreConstraintDecl &gt;</text>
</a>
</g>
</g>
<!-- Node2&#45;&gt;Node1 -->
<g id="edge1_Node000001_Node000002" class="edge">
<title>Node2&#45;&gt;Node1</title>
<g id="a_edge1_Node000001_Node000002"><a xlink:title=" ">
<path fill="none" stroke="#63b8ff" d="M179,-56.58C179,-47.51 179,-37.95 179,-30.39"/>
<polygon fill="#63b8ff" stroke="#63b8ff" points="175.5,-56.86 179,-66.86 182.5,-56.86 175.5,-56.86"/>
</a>
</g>
</g>
<!-- Node3 -->
<g id="Node000003" class="node">
<title>Node3</title>
<g id="a_Node000003"><a xlink:href="classmlir_1_1pdll_1_1ast_1_1CoreConstraintDecl.html" target="_top" xlink:title="This class represents the base of all &quot;core&quot; constraints.">
<polygon fill="white" stroke="#666666" points="182,-200.5 0,-200.5 0,-181.5 182,-181.5 182,-200.5"/>
<text text-anchor="middle" x="91" y="-188.5" font-family="Helvetica,sans-Serif" font-size="10.00">mlir::pdll::ast::CoreConstraintDecl</text>
</a>
</g>
</g>
<!-- Node3&#45;&gt;Node2 -->
<g id="edge2_Node000002_Node000003" class="edge">
<title>Node3&#45;&gt;Node2</title>
<g id="a_edge2_Node000002_Node000003"><a xlink:title=" ">
<path fill="none" stroke="#63b8ff" d="M105.29,-173.52C120.77,-155.66 145.47,-127.17 161.95,-108.16"/>
<polygon fill="#63b8ff" stroke="#63b8ff" points="102.41,-171.5 98.5,-181.35 107.7,-176.08 102.41,-171.5"/>
</a>
</g>
</g>
<!-- Node4 -->
<g id="Node000004" class="node">
<title>Node4</title>
<g id="a_Node000004"><a xlink:href="classmlir_1_1pdll_1_1ast_1_1ConstraintDecl.html" target="_top" xlink:title="This class represents the base of all AST Constraint decls.">
<polygon fill="white" stroke="#666666" points="170.5,-262 11.5,-262 11.5,-243 170.5,-243 170.5,-262"/>
<text text-anchor="middle" x="91" y="-250" font-family="Helvetica,sans-Serif" font-size="10.00">mlir::pdll::ast::ConstraintDecl</text>
</a>
</g>
</g>
<!-- Node4&#45;&gt;Node3 -->
<g id="edge3_Node000003_Node000004" class="edge">
<title>Node4&#45;&gt;Node3</title>
<g id="a_edge3_Node000003_Node000004"><a xlink:title=" ">
<path fill="none" stroke="#63b8ff" d="M91,-232.82C91,-222 91,-208.9 91,-200.51"/>
<polygon fill="#63b8ff" stroke="#63b8ff" points="87.5,-232.98 91,-242.98 94.5,-232.98 87.5,-232.98"/>
</a>
</g>
</g>
<!-- Node5 -->
<g id="Node000005" class="node">
<title>Node5</title>
<g id="a_Node000005"><a xlink:href="classmlir_1_1pdll_1_1ast_1_1Decl.html" target="_top" xlink:title="This class represents the base Decl node.">
<polygon fill="white" stroke="#666666" points="145.5,-318 36.5,-318 36.5,-299 145.5,-299 145.5,-318"/>
<text text-anchor="middle" x="91" y="-306" font-family="Helvetica,sans-Serif" font-size="10.00">mlir::pdll::ast::Decl</text>
</a>
</g>
</g>
<!-- Node5&#45;&gt;Node4 -->
<g id="edge4_Node000004_Node000005" class="edge">
<title>Node5&#45;&gt;Node4</title>
<g id="a_edge4_Node000004_Node000005"><a xlink:title=" ">
<path fill="none" stroke="#63b8ff" d="M91,-288.3C91,-279.41 91,-269.28 91,-262.25"/>
<polygon fill="#63b8ff" stroke="#63b8ff" points="87.5,-288.58 91,-298.58 94.5,-288.58 87.5,-288.58"/>
</a>
</g>
</g>
<!-- Node6 -->
<g id="Node000006" class="node">
<title>Node6</title>
<g id="a_Node000006"><a xlink:href="classmlir_1_1pdll_1_1ast_1_1Node.html" target="_top" xlink:title="This class represents a base AST node.">
<polygon fill="white" stroke="#666666" points="147.5,-374 34.5,-374 34.5,-355 147.5,-355 147.5,-374"/>
<text text-anchor="middle" x="91" y="-362" font-family="Helvetica,sans-Serif" font-size="10.00">mlir::pdll::ast::Node</text>
</a>
</g>
</g>
<!-- Node6&#45;&gt;Node5 -->
<g id="edge5_Node000005_Node000006" class="edge">
<title>Node6&#45;&gt;Node5</title>
<g id="a_edge5_Node000005_Node000006"><a xlink:title=" ">
<path fill="none" stroke="#63b8ff" d="M91,-344.3C91,-335.41 91,-325.28 91,-318.25"/>
<polygon fill="#63b8ff" stroke="#63b8ff" points="87.5,-344.58 91,-354.58 94.5,-344.58 87.5,-344.58"/>
</a>
</g>
</g>
<!-- Node7 -->
<g id="Node000007" class="node">
<title>Node7</title>
<g id="a_Node000007"><a xlink:href="classmlir_1_1pdll_1_1ast_1_1Node_1_1NodeBase.html" target="_top" xlink:title="This CRTP class provides several utilies when defining new AST nodes.">
<polygon fill="white" stroke="#666666" points="337.5,-206 200.5,-206 200.5,-176 337.5,-176 337.5,-206"/>
<text text-anchor="start" x="208.5" y="-194" font-family="Helvetica,sans-Serif" font-size="10.00">mlir::pdll::ast::Node</text>
<text text-anchor="middle" x="269" y="-183" font-family="Helvetica,sans-Serif" font-size="10.00">::NodeBase&lt; T, BaseT &gt;</text>
</a>
</g>
</g>
<!-- Node7&#45;&gt;Node2 -->
<g id="edge6_Node000002_Node000007" class="edge">
<title>Node7&#45;&gt;Node2</title>
<g id="a_edge6_Node000002_Node000007"><a xlink:title=" ">
<path fill="none" stroke="orange" stroke-dasharray="5,2" d="M249.7,-168.24C233.86,-150.37 211.62,-125.29 196.34,-108.06"/>
<polygon fill="orange" stroke="orange" points="247.23,-170.73 256.49,-175.89 252.47,-166.08 247.23,-170.73"/>
</a>
</g>
<text text-anchor="start" x="243" y="-147" font-family="Helvetica,sans-Serif" font-size="10.00" fill="grey">&lt; TypeRangeConstraintDecl,</text>
<text text-anchor="start" x="243" y="-132" font-family="Helvetica,sans-Serif" font-size="10.00" fill="grey">   CoreConstraintDecl &gt;</text>
</g>
<!-- Node8 -->
<g id="Node000008" class="node">
<title>Node8</title>
<g id="a_Node000008"><a xlink:title=" ">
<polygon fill="white" stroke="#666666" points="292.5,-262 245.5,-262 245.5,-243 292.5,-243 292.5,-262"/>
<text text-anchor="middle" x="269" y="-250" font-family="Helvetica,sans-Serif" font-size="10.00">BaseT</text>
</a>
</g>
</g>
<!-- Node8&#45;&gt;Node7 -->
<g id="edge7_Node000007_Node000008" class="edge">
<title>Node8&#45;&gt;Node7</title>
<g id="a_edge7_Node000007_Node000008"><a xlink:title=" ">
<path fill="none" stroke="#63b8ff" d="M269,-232.73C269,-224.09 269,-214 269,-206.02"/>
<polygon fill="#63b8ff" stroke="#63b8ff" points="265.5,-232.98 269,-242.98 272.5,-232.98 265.5,-232.98"/>
</a>
</g>
</g>
</g>
</svg>
