<?xml version="1.0" encoding="UTF-8" standalone="no"?>
<!DOCTYPE svg PUBLIC "-//W3C//DTD SVG 1.1//EN"
 "http://www.w3.org/Graphics/SVG/1.1/DTD/svg11.dtd">
<!-- Generated by graphviz version 2.43.0 (0)
 -->
<!-- Title: mlir::dataflow::SparseForwardDataFlowAnalysis&lt; StateT &gt; Pages: 1 -->
<svg width="1148pt" height="110pt"
 viewBox="0.00 0.00 1148.00 110.00" xmlns="http://www.w3.org/2000/svg" xmlns:xlink="http://www.w3.org/1999/xlink">
<g id="graph0" class="graph" transform="scale(1 1) rotate(0) translate(4 106)">
<title>mlir::dataflow::SparseForwardDataFlowAnalysis&lt; StateT &gt;</title>
<!-- Node1 -->
<g id="node1" class="node">
<title>Node1</title>
<g id="a_node1"><a xlink:title="A sparse forward data&#45;flow analysis for propagating SSA value lattices across the IR by implementing ...">
<polygon fill="#bfbfbf" stroke="black" points="380,-36 380,-66 541,-66 541,-36 380,-36"/>
<text text-anchor="start" x="388" y="-54" font-family="Helvetica,sans-Serif" font-size="10.00">mlir::dataflow::SparseForward</text>
<text text-anchor="middle" x="460.5" y="-43" font-family="Helvetica,sans-Serif" font-size="10.00">DataFlowAnalysis&lt; StateT &gt;</text>
</a>
</g>
</g>
<!-- Node4 -->
<g id="node4" class="node">
<title>Node4</title>
<g id="a_node4"><a xlink:href="classmlir_1_1dataflow_1_1SparseForwardDataFlowAnalysis.html" target="_top" xlink:title=" ">
<polygon fill="none" stroke="black" points="729,-60.5 729,-101.5 937,-101.5 937,-60.5 729,-60.5"/>
<text text-anchor="start" x="737" y="-89.5" font-family="Helvetica,sans-Serif" font-size="10.00">mlir::dataflow::SparseForward</text>
<text text-anchor="start" x="737" y="-78.5" font-family="Helvetica,sans-Serif" font-size="10.00">DataFlowAnalysis&lt; IntegerValueRange</text>
<text text-anchor="middle" x="833" y="-67.5" font-family="Helvetica,sans-Serif" font-size="10.00">Lattice &gt;</text>
</a>
</g>
</g>
<!-- Node1&#45;&gt;Node4 -->
<g id="edge3" class="edge">
<title>Node1&#45;&gt;Node4</title>
<path fill="none" stroke="orange" stroke-dasharray="5,2" d="M551.6,-58.3C605.15,-62.63 673.26,-68.15 728.94,-72.66"/>
<polygon fill="orange" stroke="orange" points="551.69,-54.79 541.44,-57.47 551.12,-61.77 551.69,-54.79"/>
<text text-anchor="middle" x="635" y="-73" font-family="Helvetica,sans-Serif" font-size="10.00"> &lt; IntegerValueRangeLattice &gt;</text>
</g>
<!-- Node6 -->
<g id="node6" class="node">
<title>Node6</title>
<g id="a_node6"><a xlink:href="classmlir_1_1dataflow_1_1SparseForwardDataFlowAnalysis.html" target="_top" xlink:title=" ">
<polygon fill="none" stroke="black" points="752.5,-0.5 752.5,-41.5 913.5,-41.5 913.5,-0.5 752.5,-0.5"/>
<text text-anchor="start" x="760.5" y="-29.5" font-family="Helvetica,sans-Serif" font-size="10.00">mlir::dataflow::SparseForward</text>
<text text-anchor="start" x="760.5" y="-18.5" font-family="Helvetica,sans-Serif" font-size="10.00">DataFlowAnalysis&lt; Lattice</text>
<text text-anchor="middle" x="833" y="-7.5" font-family="Helvetica,sans-Serif" font-size="10.00">&lt; ConstantValue &gt; &gt;</text>
</a>
</g>
</g>
<!-- Node1&#45;&gt;Node6 -->
<g id="edge5" class="edge">
<title>Node1&#45;&gt;Node6</title>
<path fill="none" stroke="orange" stroke-dasharray="5,2" d="M551.49,-43.71C612.79,-38.75 693.2,-32.24 752.21,-27.46"/>
<polygon fill="orange" stroke="orange" points="551.12,-40.23 541.44,-44.53 551.69,-47.21 551.12,-40.23"/>
<text text-anchor="middle" x="635" y="-46" font-family="Helvetica,sans-Serif" font-size="10.00"> &lt; Lattice&lt; ConstantValue &gt; &gt;</text>
</g>
<!-- Node2 -->
<g id="node2" class="node">
<title>Node2</title>
<g id="a_node2"><a xlink:href="classmlir_1_1dataflow_1_1AbstractSparseForwardDataFlowAnalysis.html" target="_top" xlink:title="Base class for sparse forward data&#45;flow analyses.">
<polygon fill="none" stroke="black" points="167,-36 167,-66 343,-66 343,-36 167,-36"/>
<text text-anchor="start" x="175" y="-54" font-family="Helvetica,sans-Serif" font-size="10.00">mlir::dataflow::Abstract</text>
<text text-anchor="middle" x="255" y="-43" font-family="Helvetica,sans-Serif" font-size="10.00">SparseForwardDataFlowAnalysis</text>
</a>
</g>
</g>
<!-- Node2&#45;&gt;Node1 -->
<g id="edge1" class="edge">
<title>Node2&#45;&gt;Node1</title>
<path fill="none" stroke="midnightblue" d="M353.24,-51C362.17,-51 371.15,-51 379.89,-51"/>
<polygon fill="midnightblue" stroke="midnightblue" points="353.19,-47.5 343.19,-51 353.19,-54.5 353.19,-47.5"/>
</g>
<!-- Node3 -->
<g id="node3" class="node">
<title>Node3</title>
<g id="a_node3"><a xlink:href="classmlir_1_1DataFlowAnalysis.html" target="_top" xlink:title="Base class for all data&#45;flow analyses.">
<polygon fill="none" stroke="black" points="0,-41.5 0,-60.5 130,-60.5 130,-41.5 0,-41.5"/>
<text text-anchor="middle" x="65" y="-48.5" font-family="Helvetica,sans-Serif" font-size="10.00">mlir::DataFlowAnalysis</text>
</a>
</g>
</g>
<!-- Node3&#45;&gt;Node2 -->
<g id="edge2" class="edge">
<title>Node3&#45;&gt;Node2</title>
<path fill="none" stroke="midnightblue" d="M140.28,-51C149,-51 157.96,-51 166.84,-51"/>
<polygon fill="midnightblue" stroke="midnightblue" points="140.17,-47.5 130.17,-51 140.17,-54.5 140.17,-47.5"/>
</g>
<!-- Node5 -->
<g id="node5" class="node">
<title>Node5</title>
<g id="a_node5"><a xlink:href="classmlir_1_1dataflow_1_1IntegerRangeAnalysis.html" target="_top" xlink:title="Integer range analysis determines the integer value range of SSA values using operations that define ...">
<polygon fill="none" stroke="black" points="979.5,-66 979.5,-96 1134.5,-96 1134.5,-66 979.5,-66"/>
<text text-anchor="start" x="987.5" y="-84" font-family="Helvetica,sans-Serif" font-size="10.00">mlir::dataflow::IntegerRange</text>
<text text-anchor="middle" x="1057" y="-73" font-family="Helvetica,sans-Serif" font-size="10.00">Analysis</text>
</a>
</g>
</g>
<!-- Node4&#45;&gt;Node5 -->
<g id="edge4" class="edge">
<title>Node4&#45;&gt;Node5</title>
<path fill="none" stroke="midnightblue" d="M947.5,-81C958.25,-81 968.96,-81 979.25,-81"/>
<polygon fill="midnightblue" stroke="midnightblue" points="947.2,-77.5 937.2,-81 947.2,-84.5 947.2,-77.5"/>
</g>
<!-- Node7 -->
<g id="node7" class="node">
<title>Node7</title>
<g id="a_node7"><a xlink:href="classmlir_1_1dataflow_1_1SparseConstantPropagation.html" target="_top" xlink:title="This analysis implements sparse constant propagation, which attempts to determine constant&#45;valued res...">
<polygon fill="none" stroke="black" points="974,-6 974,-36 1140,-36 1140,-6 974,-6"/>
<text text-anchor="start" x="982" y="-24" font-family="Helvetica,sans-Serif" font-size="10.00">mlir::dataflow::SparseConstant</text>
<text text-anchor="middle" x="1057" y="-13" font-family="Helvetica,sans-Serif" font-size="10.00">Propagation</text>
</a>
</g>
</g>
<!-- Node6&#45;&gt;Node7 -->
<g id="edge6" class="edge">
<title>Node6&#45;&gt;Node7</title>
<path fill="none" stroke="midnightblue" d="M923.7,-21C940.22,-21 957.38,-21 973.67,-21"/>
<polygon fill="midnightblue" stroke="midnightblue" points="923.52,-17.5 913.52,-21 923.52,-24.5 923.52,-17.5"/>
</g>
</g>
</svg>
