<?xml version="1.0" encoding="UTF-8" standalone="no"?>
<!DOCTYPE svg PUBLIC "-//W3C//DTD SVG 1.1//EN"
 "http://www.w3.org/Graphics/SVG/1.1/DTD/svg11.dtd">
<!-- Generated by graphviz version 2.43.0 (0)
 -->
<!-- Title: mlir::affine::impl::AffineVectorizeBase&lt; DerivedT &gt; Pages: 1 -->
<svg width="200pt" height="255pt"
 viewBox="0.00 0.00 200.00 255.00" xmlns="http://www.w3.org/2000/svg" xmlns:xlink="http://www.w3.org/1999/xlink">
<g id="graph0" class="graph" transform="scale(1 1) rotate(0) translate(4 251)">
<title>mlir::affine::impl::AffineVectorizeBase&lt; DerivedT &gt;</title>
<!-- Node1 -->
<g id="Node000001" class="node">
<title>Node1</title>
<g id="a_Node000001"><a xlink:title=" ">
<polygon fill="#999999" stroke="#666666" points="120,-41 0,-41 0,0 120,0 120,-41"/>
<text text-anchor="start" x="8" y="-29" font-family="Helvetica,sans-Serif" font-size="10.00">mlir::affine::impl</text>
<text text-anchor="start" x="8" y="-18" font-family="Helvetica,sans-Serif" font-size="10.00">::AffineVectorizeBase</text>
<text text-anchor="middle" x="60" y="-7" font-family="Helvetica,sans-Serif" font-size="10.00">&lt; DerivedT &gt;</text>
</a>
</g>
</g>
<!-- Node2 -->
<g id="Node000002" class="node">
<title>Node2</title>
<g id="a_Node000002"><a xlink:href="classmlir_1_1OperationPass.html" target="_top" xlink:title=" ">
<polygon fill="white" stroke="#666666" points="116,-108 4,-108 4,-78 116,-78 116,-108"/>
<text text-anchor="start" x="12" y="-96" font-family="Helvetica,sans-Serif" font-size="10.00">mlir::OperationPass</text>
<text text-anchor="middle" x="60" y="-85" font-family="Helvetica,sans-Serif" font-size="10.00">&lt; func::FuncOp &gt;</text>
</a>
</g>
</g>
<!-- Node2&#45;&gt;Node1 -->
<g id="edge1_Node000001_Node000002" class="edge">
<title>Node2&#45;&gt;Node1</title>
<g id="a_edge1_Node000001_Node000002"><a xlink:title=" ">
<path fill="none" stroke="#63b8ff" d="M60,-67.48C60,-58.85 60,-49.26 60,-41.09"/>
<polygon fill="#63b8ff" stroke="#63b8ff" points="56.5,-67.73 60,-77.73 63.5,-67.73 56.5,-67.73"/>
</a>
</g>
</g>
<!-- Node3 -->
<g id="Node000003" class="node">
<title>Node3</title>
<g id="a_Node000003"><a xlink:href="classmlir_1_1Pass.html" target="_top" xlink:title="The abstract base pass class.">
<polygon fill="white" stroke="#666666" points="88,-247 24,-247 24,-228 88,-228 88,-247"/>
<text text-anchor="middle" x="56" y="-235" font-family="Helvetica,sans-Serif" font-size="10.00">mlir::Pass</text>
</a>
</g>
</g>
<!-- Node3&#45;&gt;Node2 -->
<g id="edge2_Node000002_Node000003" class="edge">
<title>Node3&#45;&gt;Node2</title>
<g id="a_edge2_Node000002_Node000003"><a xlink:title=" ">
<path fill="none" stroke="#63b8ff" d="M56.53,-217.54C57.35,-188.58 58.88,-133.99 59.6,-108.19"/>
<polygon fill="#63b8ff" stroke="#63b8ff" points="53.03,-217.49 56.25,-227.59 60.03,-217.69 53.03,-217.49"/>
</a>
</g>
</g>
<!-- Node4 -->
<g id="Node000004" class="node">
<title>Node4</title>
<g id="a_Node000004"><a xlink:href="classmlir_1_1OperationPass.html" target="_top" xlink:title="Pass to transform an operation of a specific type.">
<polygon fill="white" stroke="#666666" points="184,-191 72,-191 72,-161 184,-161 184,-191"/>
<text text-anchor="start" x="80" y="-179" font-family="Helvetica,sans-Serif" font-size="10.00">mlir::OperationPass</text>
<text text-anchor="middle" x="128" y="-168" font-family="Helvetica,sans-Serif" font-size="10.00">&lt; OpT &gt;</text>
</a>
</g>
</g>
<!-- Node3&#45;&gt;Node4 -->
<g id="edge4_Node000004_Node000003" class="edge">
<title>Node3&#45;&gt;Node4</title>
<g id="a_edge4_Node000004_Node000003"><a xlink:title=" ">
<path fill="none" stroke="#63b8ff" d="M74.25,-221.42C85.55,-212.08 99.97,-200.16 111.03,-191.02"/>
<polygon fill="#63b8ff" stroke="#63b8ff" points="71.79,-218.91 66.32,-227.98 76.25,-224.3 71.79,-218.91"/>
</a>
</g>
</g>
<!-- Node4&#45;&gt;Node2 -->
<g id="edge3_Node000002_Node000004" class="edge">
<title>Node4&#45;&gt;Node2</title>
<g id="a_edge3_Node000002_Node000004"><a xlink:title=" ">
<path fill="none" stroke="orange" stroke-dasharray="5,2" d="M109.55,-153.02C97.58,-138.76 82.34,-120.61 71.94,-108.22"/>
<polygon fill="orange" stroke="orange" points="107.04,-155.48 116.16,-160.89 112.41,-150.98 107.04,-155.48"/>
</a>
</g>
<text text-anchor="start" x="103" y="-131.5" font-family="Helvetica,sans-Serif" font-size="10.00" fill="grey">&lt; func::FuncOp &gt;</text>
</g>
</g>
</svg>
