<?xml version="1.0" encoding="UTF-8" standalone="no"?>
<!DOCTYPE svg PUBLIC "-//W3C//DTD SVG 1.1//EN"
 "http://www.w3.org/Graphics/SVG/1.1/DTD/svg11.dtd">
<!-- Generated by graphviz version 2.43.0 (0)
 -->
<!-- Title: mlir::OpTrait::IsIsolatedFromAbove&lt; ConcreteType &gt; Pages: 1 -->
<svg width="231pt" height="214pt"
 viewBox="0.00 0.00 231.00 214.00" xmlns="http://www.w3.org/2000/svg" xmlns:xlink="http://www.w3.org/1999/xlink">
<g id="graph0" class="graph" transform="scale(1 1) rotate(0) translate(4 210)">
<title>mlir::OpTrait::IsIsolatedFromAbove&lt; ConcreteType &gt;</title>
<!-- Node1 -->
<g id="Node000001" class="node">
<title>Node1</title>
<g id="a_Node000001"><a xlink:title="This class provides the API for ops that are known to be isolated from above.">
<polygon fill="#999999" stroke="#666666" points="166.5,-30 5.5,-30 5.5,0 166.5,0 166.5,-30"/>
<text text-anchor="start" x="13.5" y="-18" font-family="Helvetica,sans-Serif" font-size="10.00">mlir::OpTrait::IsIsolated</text>
<text text-anchor="middle" x="86" y="-7" font-family="Helvetica,sans-Serif" font-size="10.00">FromAbove&lt; ConcreteType &gt;</text>
</a>
</g>
</g>
<!-- Node2 -->
<g id="Node000002" class="node">
<title>Node2</title>
<g id="a_Node000002"><a xlink:href="classmlir_1_1OpTrait_1_1TraitBase.html" target="_top" xlink:title=" ">
<polygon fill="white" stroke="#666666" points="172,-108 0,-108 0,-67 172,-67 172,-108"/>
<text text-anchor="start" x="8" y="-96" font-family="Helvetica,sans-Serif" font-size="10.00">mlir::OpTrait::TraitBase</text>
<text text-anchor="start" x="8" y="-85" font-family="Helvetica,sans-Serif" font-size="10.00">&lt; ConcreteType, IsIsolatedFrom</text>
<text text-anchor="middle" x="86" y="-74" font-family="Helvetica,sans-Serif" font-size="10.00">Above &gt;</text>
</a>
</g>
</g>
<!-- Node2&#45;&gt;Node1 -->
<g id="edge1_Node000001_Node000002" class="edge">
<title>Node2&#45;&gt;Node1</title>
<g id="a_edge1_Node000001_Node000002"><a xlink:title=" ">
<path fill="none" stroke="#63b8ff" d="M86,-56.58C86,-47.51 86,-37.95 86,-30.39"/>
<polygon fill="#63b8ff" stroke="#63b8ff" points="82.5,-56.86 86,-66.86 89.5,-56.86 82.5,-56.86"/>
</a>
</g>
</g>
<!-- Node3 -->
<g id="Node000003" class="node">
<title>Node3</title>
<g id="a_Node000003"><a xlink:href="classmlir_1_1OpTrait_1_1TraitBase.html" target="_top" xlink:title="Helper class for implementing traits.">
<polygon fill="white" stroke="#666666" points="163.5,-206 8.5,-206 8.5,-176 163.5,-176 163.5,-206"/>
<text text-anchor="start" x="16.5" y="-194" font-family="Helvetica,sans-Serif" font-size="10.00">mlir::OpTrait::TraitBase</text>
<text text-anchor="middle" x="86" y="-183" font-family="Helvetica,sans-Serif" font-size="10.00">&lt; ConcreteType, TraitType &gt;</text>
</a>
</g>
</g>
<!-- Node3&#45;&gt;Node2 -->
<g id="edge2_Node000002_Node000003" class="edge">
<title>Node3&#45;&gt;Node2</title>
<g id="a_edge2_Node000002_Node000003"><a xlink:title=" ">
<path fill="none" stroke="orange" stroke-dasharray="5,2" d="M86,-165.78C86,-148.13 86,-124.52 86,-108.06"/>
<polygon fill="orange" stroke="orange" points="82.5,-165.89 86,-175.89 89.5,-165.89 82.5,-165.89"/>
</a>
</g>
<text text-anchor="start" x="89.5" y="-147" font-family="Helvetica,sans-Serif" font-size="10.00" fill="grey">&lt; ConcreteType, IsIsolated</text>
<text text-anchor="start" x="89.5" y="-132" font-family="Helvetica,sans-Serif" font-size="10.00" fill="grey">  FromAbove &gt;</text>
</g>
</g>
</svg>
