<?xml version="1.0" encoding="UTF-8" standalone="no"?>
<!DOCTYPE svg PUBLIC "-//W3C//DTD SVG 1.1//EN"
 "http://www.w3.org/Graphics/SVG/1.1/DTD/svg11.dtd">
<!-- Generated by graphviz version 2.43.0 (0)
 -->
<!-- Title: mlir::PassWrapper&lt; PassT, BaseT &gt; Pages: 1 -->
<svg width="194pt" height="270pt"
 viewBox="0.00 0.00 193.50 270.00" xmlns="http://www.w3.org/2000/svg" xmlns:xlink="http://www.w3.org/1999/xlink">
<g id="graph0" class="graph" transform="scale(1 1) rotate(0) translate(4 266)">
<title>mlir::PassWrapper&lt; PassT, BaseT &gt;</title>
<!-- Node1 -->
<g id="Node000001" class="node">
<title>Node1</title>
<g id="a_Node000001"><a xlink:title="This class provides a CRTP wrapper around a base pass class to define several necessary utility metho...">
<polygon fill="#999999" stroke="#666666" points="124,-206 11,-206 11,-176 124,-176 124,-206"/>
<text text-anchor="start" x="19" y="-194" font-family="Helvetica,sans-Serif" font-size="10.00">mlir::PassWrapper&lt;</text>
<text text-anchor="middle" x="67.5" y="-183" font-family="Helvetica,sans-Serif" font-size="10.00"> PassT, BaseT &gt;</text>
</a>
</g>
</g>
<!-- Node3 -->
<g id="Node000003" class="node">
<title>Node3</title>
<g id="a_Node000003"><a xlink:href="classmlir_1_1PassWrapper.html" target="_top" xlink:title=" ">
<polygon fill="white" stroke="#666666" points="127.5,-108 7.5,-108 7.5,-67 127.5,-67 127.5,-108"/>
<text text-anchor="start" x="15.5" y="-96" font-family="Helvetica,sans-Serif" font-size="10.00">mlir::PassWrapper&lt;</text>
<text text-anchor="start" x="15.5" y="-85" font-family="Helvetica,sans-Serif" font-size="10.00"> OpToOpPassAdaptor,</text>
<text text-anchor="middle" x="67.5" y="-74" font-family="Helvetica,sans-Serif" font-size="10.00"> OperationPass&lt;&gt; &gt;</text>
</a>
</g>
</g>
<!-- Node1&#45;&gt;Node3 -->
<g id="edge2_Node000001_Node000003" class="edge">
<title>Node1&#45;&gt;Node3</title>
<g id="a_edge2_Node000001_Node000003"><a xlink:title=" ">
<path fill="none" stroke="orange" stroke-dasharray="5,2" d="M67.5,-165.78C67.5,-148.13 67.5,-124.52 67.5,-108.06"/>
<polygon fill="orange" stroke="orange" points="64,-165.89 67.5,-175.89 71,-165.89 64,-165.89"/>
</a>
</g>
<text text-anchor="start" x="70.5" y="-147" font-family="Helvetica,sans-Serif" font-size="10.00" fill="grey">&lt; OpToOpPassAdaptor,</text>
<text text-anchor="start" x="70.5" y="-132" font-family="Helvetica,sans-Serif" font-size="10.00" fill="grey">   OperationPass&lt;&gt; &gt;</text>
</g>
<!-- Node2 -->
<g id="Node000002" class="node">
<title>Node2</title>
<g id="a_Node000002"><a xlink:title=" ">
<polygon fill="white" stroke="#666666" points="91,-262 44,-262 44,-243 91,-243 91,-262"/>
<text text-anchor="middle" x="67.5" y="-250" font-family="Helvetica,sans-Serif" font-size="10.00">BaseT</text>
</a>
</g>
</g>
<!-- Node2&#45;&gt;Node1 -->
<g id="edge1_Node000001_Node000002" class="edge">
<title>Node2&#45;&gt;Node1</title>
<g id="a_edge1_Node000001_Node000002"><a xlink:title=" ">
<path fill="none" stroke="#63b8ff" d="M67.5,-232.73C67.5,-224.09 67.5,-214 67.5,-206.02"/>
<polygon fill="#63b8ff" stroke="#63b8ff" points="64,-232.98 67.5,-242.98 71,-232.98 64,-232.98"/>
</a>
</g>
</g>
<!-- Node4 -->
<g id="Node000004" class="node">
<title>Node4</title>
<g id="a_Node000004"><a xlink:href="classmlir_1_1detail_1_1OpToOpPassAdaptor.html" target="_top" xlink:title="An adaptor pass used to run operation passes over nested operations.">
<polygon fill="white" stroke="#666666" points="135,-30 0,-30 0,0 135,0 135,-30"/>
<text text-anchor="start" x="8" y="-18" font-family="Helvetica,sans-Serif" font-size="10.00">mlir::detail::OpToOpPass</text>
<text text-anchor="middle" x="67.5" y="-7" font-family="Helvetica,sans-Serif" font-size="10.00">Adaptor</text>
</a>
</g>
</g>
<!-- Node3&#45;&gt;Node4 -->
<g id="edge3_Node000003_Node000004" class="edge">
<title>Node3&#45;&gt;Node4</title>
<g id="a_edge3_Node000003_Node000004"><a xlink:title=" ">
<path fill="none" stroke="#63b8ff" d="M67.5,-56.58C67.5,-47.51 67.5,-37.95 67.5,-30.39"/>
<polygon fill="#63b8ff" stroke="#63b8ff" points="64,-56.86 67.5,-66.86 71,-56.86 64,-56.86"/>
</a>
</g>
</g>
</g>
</svg>
