<?xml version="1.0" encoding="UTF-8" standalone="no"?>
<!DOCTYPE svg PUBLIC "-//W3C//DTD SVG 1.1//EN"
 "http://www.w3.org/Graphics/SVG/1.1/DTD/svg11.dtd">
<!-- Generated by graphviz version 2.43.0 (0)
 -->
<!-- Title: mlir::query::matcher::MatcherInterface Pages: 1 -->
<svg width="523pt" height="86pt"
 viewBox="0.00 0.00 523.00 86.00" xmlns="http://www.w3.org/2000/svg" xmlns:xlink="http://www.w3.org/1999/xlink">
<g id="graph0" class="graph" transform="scale(1 1) rotate(0) translate(4 82)">
<title>mlir::query::matcher::MatcherInterface</title>
<!-- Node1 -->
<g id="Node000001" class="node">
<title>Node1</title>
<g id="a_Node000001"><a xlink:title=" ">
<polygon fill="#999999" stroke="#666666" points="309,-54 193,-54 193,-24 309,-24 309,-54"/>
<text text-anchor="start" x="201" y="-42" font-family="Helvetica,sans-Serif" font-size="10.00">mlir::query::matcher</text>
<text text-anchor="middle" x="251" y="-31" font-family="Helvetica,sans-Serif" font-size="10.00">::MatcherInterface</text>
</a>
</g>
</g>
<!-- Node3 -->
<g id="Node000003" class="node">
<title>Node3</title>
<g id="a_Node000003"><a xlink:href="classmlir_1_1query_1_1matcher_1_1MatcherFnImpl.html" target="_top" xlink:title=" ">
<polygon fill="white" stroke="#666666" points="515,-78 345,-78 345,-48 515,-48 515,-78"/>
<text text-anchor="start" x="353" y="-66" font-family="Helvetica,sans-Serif" font-size="10.00">mlir::query::matcher</text>
<text text-anchor="middle" x="430" y="-55" font-family="Helvetica,sans-Serif" font-size="10.00">::MatcherFnImpl&lt; MatcherFn &gt;</text>
</a>
</g>
</g>
<!-- Node1&#45;&gt;Node3 -->
<g id="edge2_Node000001_Node000003" class="edge">
<title>Node1&#45;&gt;Node3</title>
<g id="a_edge2_Node000001_Node000003"><a xlink:title=" ">
<path fill="none" stroke="#63b8ff" d="M319.44,-48.14C327.75,-49.27 336.31,-50.43 344.83,-51.59"/>
<polygon fill="#63b8ff" stroke="#63b8ff" points="319.85,-44.67 309.47,-46.79 318.91,-51.6 319.85,-44.67"/>
</a>
</g>
</g>
<!-- Node4 -->
<g id="Node000004" class="node">
<title>Node4</title>
<g id="a_Node000004"><a xlink:href="classmlir_1_1query_1_1matcher_1_1VariadicMatcher.html" target="_top" xlink:title=" ">
<polygon fill="white" stroke="#666666" points="503,-30 357,-30 357,0 503,0 503,-30"/>
<text text-anchor="start" x="365" y="-18" font-family="Helvetica,sans-Serif" font-size="10.00">mlir::query::matcher</text>
<text text-anchor="middle" x="430" y="-7" font-family="Helvetica,sans-Serif" font-size="10.00">::VariadicMatcher&lt; Func &gt;</text>
</a>
</g>
</g>
<!-- Node1&#45;&gt;Node4 -->
<g id="edge3_Node000001_Node000004" class="edge">
<title>Node1&#45;&gt;Node4</title>
<g id="a_edge3_Node000001_Node000004"><a xlink:title=" ">
<path fill="none" stroke="#63b8ff" d="M319.58,-29.84C331.81,-28.18 344.59,-26.44 356.94,-24.77"/>
<polygon fill="#63b8ff" stroke="#63b8ff" points="318.91,-26.4 309.47,-31.21 319.85,-33.33 318.91,-26.4"/>
</a>
</g>
</g>
<!-- Node2 -->
<g id="Node000002" class="node">
<title>Node2</title>
<g id="a_Node000002"><a xlink:title=" ">
<polygon fill="white" stroke="#666666" points="157,-54 0,-54 0,-24 157,-24 157,-54"/>
<text text-anchor="start" x="8" y="-42" font-family="Helvetica,sans-Serif" font-size="10.00">llvm::ThreadSafeRefCounted</text>
<text text-anchor="middle" x="78.5" y="-31" font-family="Helvetica,sans-Serif" font-size="10.00">Base&lt; MatcherInterface &gt;</text>
</a>
</g>
</g>
<!-- Node2&#45;&gt;Node1 -->
<g id="edge1_Node000001_Node000002" class="edge">
<title>Node2&#45;&gt;Node1</title>
<g id="a_edge1_Node000001_Node000002"><a xlink:title=" ">
<path fill="none" stroke="#63b8ff" d="M167.44,-39C176.12,-39 184.76,-39 193,-39"/>
<polygon fill="#63b8ff" stroke="#63b8ff" points="167.27,-35.5 157.27,-39 167.27,-42.5 167.27,-35.5"/>
</a>
</g>
</g>
</g>
</svg>
