<?xml version="1.0" encoding="UTF-8" standalone="no"?>
<!DOCTYPE svg PUBLIC "-//W3C//DTD SVG 1.1//EN"
 "http://www.w3.org/Graphics/SVG/1.1/DTD/svg11.dtd">
<!-- Generated by graphviz version 2.43.0 (0)
 -->
<!-- Title: mlir::pdll::ast::UserRewriteDecl Pages: 1 -->
<svg width="451pt" height="100pt"
 viewBox="0.00 0.00 451.00 99.50" xmlns="http://www.w3.org/2000/svg" xmlns:xlink="http://www.w3.org/1999/xlink">
<g id="graph0" class="graph" transform="scale(1 1) rotate(0) translate(4 95.5)">
<title>mlir::pdll::ast::UserRewriteDecl</title>
<!-- Node1 -->
<g id="node1" class="node">
<title>Node1</title>
<g id="a_node1"><a xlink:title="This decl represents a user defined rewrite.">
<polygon fill="#bfbfbf" stroke="black" points="274,-38.5 274,-57.5 443,-57.5 443,-38.5 274,-38.5"/>
<text text-anchor="middle" x="358.5" y="-45.5" font-family="Helvetica,sans-Serif" font-size="10.00">mlir::pdll::ast::UserRewriteDecl</text>
</a>
</g>
</g>
<!-- Node2 -->
<g id="node2" class="node">
<title>Node2</title>
<g id="a_node2"><a xlink:href="classmlir_1_1pdll_1_1ast_1_1Node_1_1NodeBase.html" target="_top" xlink:title="This CRTP class provides several utilies when defining new AST nodes.">
<polygon fill="none" stroke="black" points="92,-61 92,-91 229,-91 229,-61 92,-61"/>
<text text-anchor="start" x="100" y="-79" font-family="Helvetica,sans-Serif" font-size="10.00">mlir::pdll::ast::Node</text>
<text text-anchor="middle" x="160.5" y="-68" font-family="Helvetica,sans-Serif" font-size="10.00">::NodeBase&lt; T, BaseT &gt;</text>
</a>
</g>
</g>
<!-- Node2&#45;&gt;Node1 -->
<g id="edge1" class="edge">
<title>Node2&#45;&gt;Node1</title>
<path fill="none" stroke="midnightblue" d="M239.16,-64.91C256.23,-62.47 274.17,-59.9 290.77,-57.53"/>
<polygon fill="midnightblue" stroke="midnightblue" points="238.63,-61.45 229.23,-66.32 239.62,-68.38 238.63,-61.45"/>
</g>
<!-- Node3 -->
<g id="node3" class="node">
<title>Node3</title>
<g id="a_node3"><a xlink:href="classBaseT.html" target="_top" xlink:title=" ">
<polygon fill="none" stroke="black" points="0,-66.5 0,-85.5 47,-85.5 47,-66.5 0,-66.5"/>
<text text-anchor="middle" x="23.5" y="-73.5" font-family="Helvetica,sans-Serif" font-size="10.00">BaseT</text>
</a>
</g>
</g>
<!-- Node3&#45;&gt;Node2 -->
<g id="edge2" class="edge">
<title>Node3&#45;&gt;Node2</title>
<path fill="none" stroke="midnightblue" d="M57.41,-76C67.91,-76 79.93,-76 91.95,-76"/>
<polygon fill="midnightblue" stroke="midnightblue" points="57.1,-72.5 47.1,-76 57.1,-79.5 57.1,-72.5"/>
</g>
<!-- Node4 -->
<g id="node4" class="node">
<title>Node4</title>
<g id="a_node4"><a xlink:title=" ">
<polygon fill="none" stroke="#bfbfbf" points="83,-0.5 83,-41.5 238,-41.5 238,-0.5 83,-0.5"/>
<text text-anchor="start" x="91" y="-29.5" font-family="Helvetica,sans-Serif" font-size="10.00">llvm::TrailingObjects</text>
<text text-anchor="start" x="91" y="-18.5" font-family="Helvetica,sans-Serif" font-size="10.00">&lt; UserRewriteDecl, Variable</text>
<text text-anchor="middle" x="160.5" y="-7.5" font-family="Helvetica,sans-Serif" font-size="10.00">Decl * &gt;</text>
</a>
</g>
</g>
<!-- Node4&#45;&gt;Node1 -->
<g id="edge3" class="edge">
<title>Node4&#45;&gt;Node1</title>
<path fill="none" stroke="#8b1a1a" d="M248.29,-32.96C261.67,-34.8 275.34,-36.68 288.28,-38.46"/>
<polygon fill="#8b1a1a" stroke="#8b1a1a" points="248.5,-29.45 238.12,-31.55 247.55,-36.39 248.5,-29.45"/>
</g>
</g>
</svg>
