<?xml version="1.0" encoding="UTF-8" standalone="no"?>
<!DOCTYPE svg PUBLIC "-//W3C//DTD SVG 1.1//EN"
 "http://www.w3.org/Graphics/SVG/1.1/DTD/svg11.dtd">
<!-- Generated by graphviz version 2.43.0 (0)
 -->
<!-- Title: mlir::Operation Pages: 1 -->
<svg width="297pt" height="122pt"
 viewBox="0.00 0.00 297.00 121.50" xmlns="http://www.w3.org/2000/svg" xmlns:xlink="http://www.w3.org/1999/xlink">
<g id="graph0" class="graph" transform="scale(1 1) rotate(0) translate(4 117.5)">
<title>mlir::Operation</title>
<!-- Node1 -->
<g id="node1" class="node">
<title>Node1</title>
<g id="a_node1"><a xlink:title="Operation is the basic unit of execution within MLIR.">
<polygon fill="#bfbfbf" stroke="black" points="199,-55.5 199,-74.5 289,-74.5 289,-55.5 199,-55.5"/>
<text text-anchor="middle" x="244" y="-62.5" font-family="Helvetica,sans-Serif" font-size="10.00">mlir::Operation</text>
</a>
</g>
</g>
<!-- Node2 -->
<g id="node2" class="node">
<title>Node2</title>
<g id="a_node2"><a xlink:title=" ">
<polygon fill="none" stroke="#bfbfbf" points="3,-83 3,-113 160,-113 160,-83 3,-83"/>
<text text-anchor="start" x="11" y="-101" font-family="Helvetica,sans-Serif" font-size="10.00">llvm::ilist_node_with</text>
<text text-anchor="middle" x="81.5" y="-90" font-family="Helvetica,sans-Serif" font-size="10.00">_parent&lt; Operation, Block &gt;</text>
</a>
</g>
</g>
<!-- Node2&#45;&gt;Node1 -->
<g id="edge1" class="edge">
<title>Node2&#45;&gt;Node1</title>
<path fill="none" stroke="midnightblue" d="M165.73,-80.89C177.15,-78.54 188.48,-76.21 198.81,-74.09"/>
<polygon fill="midnightblue" stroke="midnightblue" points="164.8,-77.51 155.7,-82.95 166.2,-84.36 164.8,-77.51"/>
</g>
<!-- Node3 -->
<g id="node3" class="node">
<title>Node3</title>
<g id="a_node3"><a xlink:title=" ">
<polygon fill="none" stroke="#bfbfbf" points="0,-0.5 0,-63.5 163,-63.5 163,-0.5 0,-0.5"/>
<text text-anchor="start" x="8" y="-51.5" font-family="Helvetica,sans-Serif" font-size="10.00">llvm::TrailingObjects</text>
<text text-anchor="start" x="8" y="-40.5" font-family="Helvetica,sans-Serif" font-size="10.00">&lt; Operation, detail::</text>
<text text-anchor="start" x="8" y="-29.5" font-family="Helvetica,sans-Serif" font-size="10.00">OperandStorage, detail</text>
<text text-anchor="start" x="8" y="-18.5" font-family="Helvetica,sans-Serif" font-size="10.00">::OpProperties, BlockOperand,</text>
<text text-anchor="middle" x="81.5" y="-7.5" font-family="Helvetica,sans-Serif" font-size="10.00"> Region, OpOperand &gt;</text>
</a>
</g>
</g>
<!-- Node3&#45;&gt;Node1 -->
<g id="edge2" class="edge">
<title>Node3&#45;&gt;Node1</title>
<path fill="none" stroke="#8b1a1a" d="M173.18,-50.65C181.96,-52.45 190.58,-54.22 198.59,-55.87"/>
<polygon fill="#8b1a1a" stroke="#8b1a1a" points="173.72,-47.18 163.22,-48.6 172.31,-54.04 173.72,-47.18"/>
</g>
</g>
</svg>
