<?xml version="1.0" encoding="UTF-8" standalone="no"?>
<!DOCTYPE svg PUBLIC "-//W3C//DTD SVG 1.1//EN"
 "http://www.w3.org/Graphics/SVG/1.1/DTD/svg11.dtd">
<!-- Generated by graphviz version 2.43.0 (0)
 -->
<!-- Title: mlir::ConvertOpToLLVMPattern&lt; SourceOp &gt; Pages: 1 -->
<svg width="1428pt" height="531pt"
 viewBox="0.00 0.00 1428.00 530.67" xmlns="http://www.w3.org/2000/svg" xmlns:xlink="http://www.w3.org/1999/xlink">
<g id="graph0" class="graph" transform="scale(1 1) rotate(0) translate(4 526.67)">
<title>mlir::ConvertOpToLLVMPattern&lt; SourceOp &gt;</title>
<!-- Node1 -->
<g id="node1" class="node">
<title>Node1</title>
<g id="a_node1"><a xlink:title="Utility class for operation conversions targeting the LLVM dialect that match exactly one source oper...">
<polygon fill="#bfbfbf" stroke="black" points="621,-247.17 621,-277.17 785,-277.17 785,-247.17 621,-247.17"/>
<text text-anchor="start" x="629" y="-265.17" font-family="Helvetica,sans-Serif" font-size="10.00">mlir::ConvertOpToLLVMPattern</text>
<text text-anchor="middle" x="703" y="-254.17" font-family="Helvetica,sans-Serif" font-size="10.00">&lt; SourceOp &gt;</text>
</a>
</g>
</g>
<!-- Node6 -->
<g id="node6" class="node">
<title>Node6</title>
<g id="a_node6"><a xlink:href="classmlir_1_1OneToOneConvertToLLVMPattern.html" target="_top" xlink:title="Generic implementation of one&#45;to&#45;one conversion from &quot;SourceOp&quot; to &quot;TargetOp&quot; where the latter belong...">
<polygon fill="none" stroke="black" points="1002,-492.17 1002,-522.17 1202,-522.17 1202,-492.17 1002,-492.17"/>
<text text-anchor="start" x="1010" y="-510.17" font-family="Helvetica,sans-Serif" font-size="10.00">mlir::OneToOneConvertToLLVMPattern</text>
<text text-anchor="middle" x="1102" y="-499.17" font-family="Helvetica,sans-Serif" font-size="10.00">&lt; SourceOp, TargetOp &gt;</text>
</a>
</g>
</g>
<!-- Node1&#45;&gt;Node6 -->
<g id="edge5" class="edge">
<title>Node1&#45;&gt;Node6</title>
<path fill="none" stroke="midnightblue" d="M711.98,-287.19C725.02,-323.95 754.41,-392.21 803,-429.17 860.14,-472.64 939.3,-491.97 1001.68,-500.52"/>
<polygon fill="midnightblue" stroke="midnightblue" points="715.14,-285.61 708.6,-277.28 708.52,-287.87 715.14,-285.61"/>
</g>
<!-- Node7 -->
<g id="node7" class="node">
<title>Node7</title>
<g id="a_node7"><a xlink:href="structmlir_1_1OpToFuncCallLowering.html" target="_top" xlink:title="Rewriting that replaces SourceOp with a CallOp to f32Func or f64Func or f32ApproxFunc or f16Func or i...">
<polygon fill="none" stroke="black" points="1026,-443.17 1026,-473.17 1178,-473.17 1178,-443.17 1026,-443.17"/>
<text text-anchor="start" x="1034" y="-461.17" font-family="Helvetica,sans-Serif" font-size="10.00">mlir::OpToFuncCallLowering</text>
<text text-anchor="middle" x="1102" y="-450.17" font-family="Helvetica,sans-Serif" font-size="10.00">&lt; SourceOp &gt;</text>
</a>
</g>
</g>
<!-- Node1&#45;&gt;Node7 -->
<g id="edge6" class="edge">
<title>Node1&#45;&gt;Node7</title>
<path fill="none" stroke="midnightblue" d="M716.76,-286.11C733.01,-314.21 763.74,-360.16 803,-385.17 870.83,-428.39 962.32,-446.02 1025.96,-453.21"/>
<polygon fill="midnightblue" stroke="midnightblue" points="719.77,-284.31 711.82,-277.31 713.67,-287.75 719.77,-284.31"/>
</g>
<!-- Node8 -->
<g id="node8" class="node">
<title>Node8</title>
<g id="a_node8"><a xlink:href="structmlir_1_1ScalarizeVectorOpLowering.html" target="_top" xlink:title="Unrolls SourceOp to array/vector elements.">
<polygon fill="none" stroke="black" points="1014.5,-394.17 1014.5,-424.17 1189.5,-424.17 1189.5,-394.17 1014.5,-394.17"/>
<text text-anchor="start" x="1022.5" y="-412.17" font-family="Helvetica,sans-Serif" font-size="10.00">mlir::ScalarizeVectorOpLowering</text>
<text text-anchor="middle" x="1102" y="-401.17" font-family="Helvetica,sans-Serif" font-size="10.00">&lt; SourceOp &gt;</text>
</a>
</g>
</g>
<!-- Node1&#45;&gt;Node8 -->
<g id="edge7" class="edge">
<title>Node1&#45;&gt;Node8</title>
<path fill="none" stroke="midnightblue" d="M724.56,-284.7C743.19,-303.73 772.36,-330.19 803,-345.17 869.68,-377.76 952.74,-393.85 1014.22,-401.74"/>
<polygon fill="midnightblue" stroke="midnightblue" points="726.92,-282.11 717.48,-277.31 721.87,-286.95 726.92,-282.11"/>
</g>
<!-- Node9 -->
<g id="node9" class="node">
<title>Node9</title>
<g id="a_node9"><a xlink:href="classmlir_1_1VectorConvertToLLVMPattern.html" target="_top" xlink:title="Basic lowering implementation to rewrite Ops with just one result to the LLVM Dialect.">
<polygon fill="none" stroke="black" points="1003.5,-345.17 1003.5,-375.17 1200.5,-375.17 1200.5,-345.17 1003.5,-345.17"/>
<text text-anchor="start" x="1011.5" y="-363.17" font-family="Helvetica,sans-Serif" font-size="10.00">mlir::VectorConvertToLLVMPattern</text>
<text text-anchor="middle" x="1102" y="-352.17" font-family="Helvetica,sans-Serif" font-size="10.00">&lt; SourceOp, TargetOp, AttrConvert &gt;</text>
</a>
</g>
</g>
<!-- Node1&#45;&gt;Node9 -->
<g id="edge8" class="edge">
<title>Node1&#45;&gt;Node9</title>
<path fill="none" stroke="midnightblue" d="M736.6,-282.32C755.37,-293.06 779.79,-305.58 803,-313.17 867.96,-334.41 944.13,-346.21 1003.2,-352.67"/>
<polygon fill="midnightblue" stroke="midnightblue" points="738.27,-279.25 727.87,-277.23 734.74,-285.29 738.27,-279.25"/>
</g>
<!-- Node10 -->
<g id="node10" class="node">
<title>Node10</title>
<g id="a_node10"><a xlink:href="classmlir_1_1ConvertOpToLLVMPattern.html" target="_top" xlink:title=" ">
<polygon fill="none" stroke="black" points="1020,-296.17 1020,-326.17 1184,-326.17 1184,-296.17 1020,-296.17"/>
<text text-anchor="start" x="1028" y="-314.17" font-family="Helvetica,sans-Serif" font-size="10.00">mlir::ConvertOpToLLVMPattern</text>
<text text-anchor="middle" x="1102" y="-303.17" font-family="Helvetica,sans-Serif" font-size="10.00">&lt; Op &gt;</text>
</a>
</g>
</g>
<!-- Node1&#45;&gt;Node10 -->
<g id="edge9" class="edge">
<title>Node1&#45;&gt;Node10</title>
<path fill="none" stroke="orange" stroke-dasharray="5,2" d="M794.93,-276.08C797.65,-276.45 800.35,-276.82 803,-277.17 876.3,-286.9 959.97,-296.3 1019.95,-302.74"/>
<polygon fill="orange" stroke="orange" points="795.4,-272.61 785.01,-274.69 794.43,-279.54 795.4,-272.61"/>
<text text-anchor="middle" x="893.5" y="-301.17" font-family="Helvetica,sans-Serif" font-size="10.00"> &lt; Op &gt;</text>
</g>
<!-- Node12 -->
<g id="node12" class="node">
<title>Node12</title>
<g id="a_node12"><a xlink:href="classmlir_1_1ConvertOpToLLVMPattern.html" target="_top" xlink:title=" ">
<polygon fill="none" stroke="black" points="1020,-247.17 1020,-277.17 1184,-277.17 1184,-247.17 1020,-247.17"/>
<text text-anchor="start" x="1028" y="-265.17" font-family="Helvetica,sans-Serif" font-size="10.00">mlir::ConvertOpToLLVMPattern</text>
<text text-anchor="middle" x="1102" y="-254.17" font-family="Helvetica,sans-Serif" font-size="10.00">&lt; gpu::PrintfOp &gt;</text>
</a>
</g>
</g>
<!-- Node1&#45;&gt;Node12 -->
<g id="edge11" class="edge">
<title>Node1&#45;&gt;Node12</title>
<path fill="none" stroke="orange" stroke-dasharray="5,2" d="M795.53,-262.17C863.26,-262.17 954.68,-262.17 1019.81,-262.17"/>
<polygon fill="orange" stroke="orange" points="795.3,-258.67 785.3,-262.17 795.3,-265.67 795.3,-258.67"/>
<text text-anchor="middle" x="893.5" y="-265.17" font-family="Helvetica,sans-Serif" font-size="10.00"> &lt; gpu::PrintfOp &gt;</text>
</g>
<!-- Node16 -->
<g id="node16" class="node">
<title>Node16</title>
<g id="a_node16"><a xlink:href="classmlir_1_1ConvertOpToLLVMPattern.html" target="_top" xlink:title=" ">
<polygon fill="none" stroke="black" points="1020,-198.17 1020,-228.17 1184,-228.17 1184,-198.17 1020,-198.17"/>
<text text-anchor="start" x="1028" y="-216.17" font-family="Helvetica,sans-Serif" font-size="10.00">mlir::ConvertOpToLLVMPattern</text>
<text text-anchor="middle" x="1102" y="-205.17" font-family="Helvetica,sans-Serif" font-size="10.00">&lt; gpu::GPUFuncOp &gt;</text>
</a>
</g>
</g>
<!-- Node1&#45;&gt;Node16 -->
<g id="edge15" class="edge">
<title>Node1&#45;&gt;Node16</title>
<path fill="none" stroke="orange" stroke-dasharray="5,2" d="M794.93,-248.26C797.65,-247.89 800.35,-247.52 803,-247.17 876.3,-237.44 959.97,-228.04 1019.95,-221.6"/>
<polygon fill="orange" stroke="orange" points="794.43,-244.8 785.01,-249.65 795.4,-251.73 794.43,-244.8"/>
<text text-anchor="middle" x="893.5" y="-250.17" font-family="Helvetica,sans-Serif" font-size="10.00"> &lt; gpu::GPUFuncOp &gt;</text>
</g>
<!-- Node18 -->
<g id="node18" class="node">
<title>Node18</title>
<g id="a_node18"><a xlink:href="classmlir_1_1ConvertOpToLLVMPattern.html" target="_top" xlink:title=" ">
<polygon fill="none" stroke="black" points="1020,-149.17 1020,-179.17 1184,-179.17 1184,-149.17 1020,-149.17"/>
<text text-anchor="start" x="1028" y="-167.17" font-family="Helvetica,sans-Serif" font-size="10.00">mlir::ConvertOpToLLVMPattern</text>
<text text-anchor="middle" x="1102" y="-156.17" font-family="Helvetica,sans-Serif" font-size="10.00">&lt; gpu::ReturnOp &gt;</text>
</a>
</g>
</g>
<!-- Node1&#45;&gt;Node18 -->
<g id="edge17" class="edge">
<title>Node1&#45;&gt;Node18</title>
<path fill="none" stroke="orange" stroke-dasharray="5,2" d="M736.6,-242.01C755.37,-231.28 779.79,-218.76 803,-211.17 874.19,-187.89 958.83,-175.95 1019.68,-169.95"/>
<polygon fill="orange" stroke="orange" points="734.74,-239.05 727.87,-247.11 738.27,-245.09 734.74,-239.05"/>
<text text-anchor="middle" x="893.5" y="-214.17" font-family="Helvetica,sans-Serif" font-size="10.00"> &lt; gpu::ReturnOp &gt;</text>
</g>
<!-- Node20 -->
<g id="node20" class="node">
<title>Node20</title>
<g id="a_node20"><a xlink:href="classmlir_1_1ConvertOpToLLVMPattern.html" target="_top" xlink:title=" ">
<polygon fill="none" stroke="black" points="1020,-100.17 1020,-130.17 1184,-130.17 1184,-100.17 1020,-100.17"/>
<text text-anchor="start" x="1028" y="-118.17" font-family="Helvetica,sans-Serif" font-size="10.00">mlir::ConvertOpToLLVMPattern</text>
<text text-anchor="middle" x="1102" y="-107.17" font-family="Helvetica,sans-Serif" font-size="10.00">&lt; memref::TransposeOp &gt;</text>
</a>
</g>
</g>
<!-- Node1&#45;&gt;Node20 -->
<g id="edge19" class="edge">
<title>Node1&#45;&gt;Node20</title>
<path fill="none" stroke="orange" stroke-dasharray="5,2" d="M719.55,-238.84C736.88,-214.88 767.23,-178.57 803,-160.17 870.58,-125.41 957.41,-115.6 1019.88,-113.63"/>
<polygon fill="orange" stroke="orange" points="716.66,-236.86 713.76,-247.06 722.38,-240.9 716.66,-236.86"/>
<text text-anchor="middle" x="893.5" y="-163.17" font-family="Helvetica,sans-Serif" font-size="10.00"> &lt; memref::TransposeOp &gt;</text>
</g>
<!-- Node22 -->
<g id="node22" class="node">
<title>Node22</title>
<g id="a_node22"><a xlink:href="classmlir_1_1ConvertOpToLLVMPattern.html" target="_top" xlink:title=" ">
<polygon fill="none" stroke="black" points="1005,-51.17 1005,-81.17 1199,-81.17 1199,-51.17 1005,-51.17"/>
<text text-anchor="start" x="1013" y="-69.17" font-family="Helvetica,sans-Serif" font-size="10.00">mlir::ConvertOpToLLVMPattern</text>
<text text-anchor="middle" x="1102" y="-58.17" font-family="Helvetica,sans-Serif" font-size="10.00">&lt; gpu::DynamicSharedMemoryOp &gt;</text>
</a>
</g>
</g>
<!-- Node1&#45;&gt;Node22 -->
<g id="edge21" class="edge">
<title>Node1&#45;&gt;Node22</title>
<path fill="none" stroke="orange" stroke-dasharray="5,2" d="M711.6,-237.11C724.14,-200.47 752.91,-133.15 803,-101.17 862.6,-63.12 942.79,-55.58 1004.97,-56.89"/>
<polygon fill="orange" stroke="orange" points="708.14,-236.41 708.35,-247 714.8,-238.59 708.14,-236.41"/>
<text text-anchor="middle" x="893.5" y="-104.17" font-family="Helvetica,sans-Serif" font-size="10.00"> &lt; gpu::DynamicSharedMemoryOp &gt;</text>
</g>
<!-- Node24 -->
<g id="node24" class="node">
<title>Node24</title>
<g id="a_node24"><a xlink:href="classmlir_1_1ConvertOpToLLVMPattern.html" target="_top" xlink:title=" ">
<polygon fill="none" stroke="black" points="1020,-2.17 1020,-32.17 1184,-32.17 1184,-2.17 1020,-2.17"/>
<text text-anchor="start" x="1028" y="-20.17" font-family="Helvetica,sans-Serif" font-size="10.00">mlir::ConvertOpToLLVMPattern</text>
<text text-anchor="middle" x="1102" y="-9.17" font-family="Helvetica,sans-Serif" font-size="10.00">&lt; cf::AssertOp &gt;</text>
</a>
</g>
</g>
<!-- Node1&#45;&gt;Node24 -->
<g id="edge23" class="edge">
<title>Node1&#45;&gt;Node24</title>
<path fill="none" stroke="orange" stroke-dasharray="5,2" d="M707.1,-236.88C714.37,-189.67 737.18,-88.74 803,-42.17 865.62,2.14 955.22,3.63 1019.8,-3.03"/>
<polygon fill="orange" stroke="orange" points="703.62,-236.48 705.67,-246.88 710.55,-237.47 703.62,-236.48"/>
<text text-anchor="middle" x="893.5" y="-45.17" font-family="Helvetica,sans-Serif" font-size="10.00"> &lt; cf::AssertOp &gt;</text>
</g>
<!-- Node2 -->
<g id="node2" class="node">
<title>Node2</title>
<g id="a_node2"><a xlink:href="classmlir_1_1ConvertToLLVMPattern.html" target="_top" xlink:title="Base class for operation conversions targeting the LLVM IR dialect.">
<polygon fill="none" stroke="black" points="433,-252.67 433,-271.67 584,-271.67 584,-252.67 433,-252.67"/>
<text text-anchor="middle" x="508.5" y="-259.67" font-family="Helvetica,sans-Serif" font-size="10.00">mlir::ConvertToLLVMPattern</text>
</a>
</g>
</g>
<!-- Node2&#45;&gt;Node1 -->
<g id="edge1" class="edge">
<title>Node2&#45;&gt;Node1</title>
<path fill="none" stroke="midnightblue" d="M594.46,-262.17C603.27,-262.17 612.2,-262.17 620.96,-262.17"/>
<polygon fill="midnightblue" stroke="midnightblue" points="594.2,-258.67 584.2,-262.17 594.2,-265.67 594.2,-258.67"/>
</g>
<!-- Node3 -->
<g id="node3" class="node">
<title>Node3</title>
<g id="a_node3"><a xlink:href="classmlir_1_1ConversionPattern.html" target="_top" xlink:title="Base class for the conversion patterns.">
<polygon fill="none" stroke="black" points="265,-252.67 265,-271.67 396,-271.67 396,-252.67 265,-252.67"/>
<text text-anchor="middle" x="330.5" y="-259.67" font-family="Helvetica,sans-Serif" font-size="10.00">mlir::ConversionPattern</text>
</a>
</g>
</g>
<!-- Node3&#45;&gt;Node2 -->
<g id="edge2" class="edge">
<title>Node3&#45;&gt;Node2</title>
<path fill="none" stroke="midnightblue" d="M406.26,-262.17C415.06,-262.17 424.04,-262.17 432.84,-262.17"/>
<polygon fill="midnightblue" stroke="midnightblue" points="406.04,-258.67 396.04,-262.17 406.04,-265.67 406.04,-258.67"/>
</g>
<!-- Node4 -->
<g id="node4" class="node">
<title>Node4</title>
<g id="a_node4"><a xlink:href="classmlir_1_1RewritePattern.html" target="_top" xlink:title="RewritePattern is the common base class for all DAG to DAG replacements.">
<polygon fill="none" stroke="black" points="114,-252.67 114,-271.67 228,-271.67 228,-252.67 114,-252.67"/>
<text text-anchor="middle" x="171" y="-259.67" font-family="Helvetica,sans-Serif" font-size="10.00">mlir::RewritePattern</text>
</a>
</g>
</g>
<!-- Node4&#45;&gt;Node3 -->
<g id="edge3" class="edge">
<title>Node4&#45;&gt;Node3</title>
<path fill="none" stroke="midnightblue" d="M238.54,-262.17C247.27,-262.17 256.21,-262.17 264.9,-262.17"/>
<polygon fill="midnightblue" stroke="midnightblue" points="238.42,-258.67 228.42,-262.17 238.42,-265.67 238.42,-258.67"/>
</g>
<!-- Node5 -->
<g id="node5" class="node">
<title>Node5</title>
<g id="a_node5"><a xlink:href="classmlir_1_1Pattern.html" target="_top" xlink:title="This class contains all of the data related to a pattern, but does not contain any methods or logic f...">
<polygon fill="none" stroke="black" points="0,-252.67 0,-271.67 77,-271.67 77,-252.67 0,-252.67"/>
<text text-anchor="middle" x="38.5" y="-259.67" font-family="Helvetica,sans-Serif" font-size="10.00">mlir::Pattern</text>
</a>
</g>
</g>
<!-- Node5&#45;&gt;Node4 -->
<g id="edge4" class="edge">
<title>Node5&#45;&gt;Node4</title>
<path fill="none" stroke="midnightblue" d="M87.47,-262.17C96.06,-262.17 105.09,-262.17 113.89,-262.17"/>
<polygon fill="midnightblue" stroke="midnightblue" points="87.25,-258.67 77.25,-262.17 87.25,-265.67 87.25,-258.67"/>
</g>
<!-- Node11 -->
<g id="node11" class="node">
<title>Node11</title>
<g id="a_node11"><a xlink:href="structmlir_1_1gpu_1_1index__lowering_1_1OpLowering.html" target="_top" xlink:title=" ">
<polygon fill="none" stroke="black" points="1259.5,-361.67 1259.5,-402.67 1399.5,-402.67 1399.5,-361.67 1259.5,-361.67"/>
<text text-anchor="start" x="1267.5" y="-390.67" font-family="Helvetica,sans-Serif" font-size="10.00">mlir::gpu::index_lowering</text>
<text text-anchor="start" x="1267.5" y="-379.67" font-family="Helvetica,sans-Serif" font-size="10.00">::OpLowering&lt; Op, XOp,</text>
<text text-anchor="middle" x="1329.5" y="-368.67" font-family="Helvetica,sans-Serif" font-size="10.00"> YOp, ZOp &gt;</text>
</a>
</g>
</g>
<!-- Node10&#45;&gt;Node11 -->
<g id="edge10" class="edge">
<title>Node10&#45;&gt;Node11</title>
<path fill="none" stroke="midnightblue" d="M1183.59,-329.33C1189.9,-331.41 1196.1,-333.69 1202,-336.17 1210.64,-339.8 1211.48,-343.26 1220,-347.17 1232.41,-352.87 1246.02,-358.03 1259.27,-362.55"/>
<polygon fill="midnightblue" stroke="midnightblue" points="1184.22,-325.86 1173.63,-326.22 1182.13,-332.54 1184.22,-325.86"/>
</g>
<!-- Node13 -->
<g id="node13" class="node">
<title>Node13</title>
<g id="a_node13"><a xlink:href="structmlir_1_1GPUPrintfOpToHIPLowering.html" target="_top" xlink:title="The lowering of gpu.printf to a call to HIP hostcalls.">
<polygon fill="none" stroke="black" points="1242.5,-323.67 1242.5,-342.67 1416.5,-342.67 1416.5,-323.67 1242.5,-323.67"/>
<text text-anchor="middle" x="1329.5" y="-330.67" font-family="Helvetica,sans-Serif" font-size="10.00">mlir::GPUPrintfOpToHIPLowering</text>
</a>
</g>
</g>
<!-- Node12&#45;&gt;Node13 -->
<g id="edge12" class="edge">
<title>Node12&#45;&gt;Node13</title>
<path fill="none" stroke="midnightblue" d="M1185.6,-280.43C1191.24,-282.47 1196.76,-284.71 1202,-287.17 1220.43,-295.82 1220.41,-305.87 1239,-314.17 1247.7,-318.05 1257.24,-321.16 1266.75,-323.64"/>
<polygon fill="midnightblue" stroke="midnightblue" points="1186.63,-277.08 1176.03,-277.2 1184.39,-283.72 1186.63,-277.08"/>
</g>
<!-- Node14 -->
<g id="node14" class="node">
<title>Node14</title>
<g id="a_node14"><a xlink:href="structmlir_1_1GPUPrintfOpToLLVMCallLowering.html" target="_top" xlink:title="The lowering of gpu.printf to a call to an external printf() function.">
<polygon fill="none" stroke="black" points="1250.5,-274.17 1250.5,-304.17 1408.5,-304.17 1408.5,-274.17 1250.5,-274.17"/>
<text text-anchor="start" x="1258.5" y="-292.17" font-family="Helvetica,sans-Serif" font-size="10.00">mlir::GPUPrintfOpToLLVMCall</text>
<text text-anchor="middle" x="1329.5" y="-281.17" font-family="Helvetica,sans-Serif" font-size="10.00">Lowering</text>
</a>
</g>
</g>
<!-- Node12&#45;&gt;Node14 -->
<g id="edge13" class="edge">
<title>Node12&#45;&gt;Node14</title>
<path fill="none" stroke="midnightblue" d="M1194.06,-273.07C1212.73,-275.31 1232.23,-277.64 1250.39,-279.82"/>
<polygon fill="midnightblue" stroke="midnightblue" points="1194.44,-269.59 1184.09,-271.88 1193.61,-276.54 1194.44,-269.59"/>
</g>
<!-- Node15 -->
<g id="node15" class="node">
<title>Node15</title>
<g id="a_node15"><a xlink:href="structmlir_1_1GPUPrintfOpToVPrintfLowering.html" target="_top" xlink:title="Lowering of gpu.printf to a vprintf standard library.">
<polygon fill="none" stroke="black" points="1256.5,-225.17 1256.5,-255.17 1402.5,-255.17 1402.5,-225.17 1256.5,-225.17"/>
<text text-anchor="start" x="1264.5" y="-243.17" font-family="Helvetica,sans-Serif" font-size="10.00">mlir::GPUPrintfOpToVPrintf</text>
<text text-anchor="middle" x="1329.5" y="-232.17" font-family="Helvetica,sans-Serif" font-size="10.00">Lowering</text>
</a>
</g>
</g>
<!-- Node12&#45;&gt;Node15 -->
<g id="edge14" class="edge">
<title>Node12&#45;&gt;Node15</title>
<path fill="none" stroke="midnightblue" d="M1194.16,-253.28C1214.86,-251.26 1236.57,-249.14 1256.35,-247.21"/>
<polygon fill="midnightblue" stroke="midnightblue" points="1193.7,-249.8 1184.09,-254.26 1194.38,-256.77 1193.7,-249.8"/>
</g>
<!-- Node17 -->
<g id="node17" class="node">
<title>Node17</title>
<g id="a_node17"><a xlink:href="structmlir_1_1GPUFuncOpLowering.html" target="_top" xlink:title=" ">
<polygon fill="none" stroke="black" points="1258,-186.67 1258,-205.67 1401,-205.67 1401,-186.67 1258,-186.67"/>
<text text-anchor="middle" x="1329.5" y="-193.67" font-family="Helvetica,sans-Serif" font-size="10.00">mlir::GPUFuncOpLowering</text>
</a>
</g>
</g>
<!-- Node16&#45;&gt;Node17 -->
<g id="edge16" class="edge">
<title>Node16&#45;&gt;Node17</title>
<path fill="none" stroke="midnightblue" d="M1194.09,-206.3C1215.33,-204.7 1237.63,-203.02 1257.83,-201.5"/>
<polygon fill="midnightblue" stroke="midnightblue" points="1193.8,-202.81 1184.09,-207.06 1194.33,-209.79 1193.8,-202.81"/>
</g>
<!-- Node19 -->
<g id="node19" class="node">
<title>Node19</title>
<g id="a_node19"><a xlink:href="structmlir_1_1GPUReturnOpLowering.html" target="_top" xlink:title=" ">
<polygon fill="none" stroke="black" points="1253,-148.67 1253,-167.67 1406,-167.67 1406,-148.67 1253,-148.67"/>
<text text-anchor="middle" x="1329.5" y="-155.67" font-family="Helvetica,sans-Serif" font-size="10.00">mlir::GPUReturnOpLowering</text>
</a>
</g>
</g>
<!-- Node18&#45;&gt;Node19 -->
<g id="edge18" class="edge">
<title>Node18&#45;&gt;Node19</title>
<path fill="none" stroke="midnightblue" d="M1194.15,-161.74C1213.57,-161.23 1233.87,-160.69 1252.64,-160.19"/>
<polygon fill="midnightblue" stroke="midnightblue" points="1194,-158.25 1184.09,-162.01 1194.18,-165.24 1194,-158.25"/>
</g>
<!-- Node21 -->
<g id="node21" class="node">
<title>Node21</title>
<g id="a_node21"><a xlink:href="classTransposeOpLowering.html" target="_top" xlink:title="Rewrite AVX2&#45;specific vector.transpose, for the supported cases and depending on the TransposeLowerin...">
<polygon fill="none" stroke="black" points="1268,-105.67 1268,-124.67 1391,-124.67 1391,-105.67 1268,-105.67"/>
<text text-anchor="middle" x="1329.5" y="-112.67" font-family="Helvetica,sans-Serif" font-size="10.00">TransposeOpLowering</text>
</a>
</g>
</g>
<!-- Node20&#45;&gt;Node21 -->
<g id="edge20" class="edge">
<title>Node20&#45;&gt;Node21</title>
<path fill="none" stroke="midnightblue" d="M1194.25,-115.17C1219.04,-115.17 1245.28,-115.17 1267.92,-115.17"/>
<polygon fill="midnightblue" stroke="midnightblue" points="1194.09,-111.67 1184.09,-115.17 1194.09,-118.67 1194.09,-111.67"/>
</g>
<!-- Node23 -->
<g id="node23" class="node">
<title>Node23</title>
<g id="a_node23"><a xlink:href="structmlir_1_1GPUDynamicSharedMemoryOpLowering.html" target="_top" xlink:title="Lowering for gpu.dynamic.shared.memory to LLVM dialect.">
<polygon fill="none" stroke="black" points="1239,-51.17 1239,-81.17 1420,-81.17 1420,-51.17 1239,-51.17"/>
<text text-anchor="start" x="1247" y="-69.17" font-family="Helvetica,sans-Serif" font-size="10.00">mlir::GPUDynamicSharedMemory</text>
<text text-anchor="middle" x="1329.5" y="-58.17" font-family="Helvetica,sans-Serif" font-size="10.00">OpLowering</text>
</a>
</g>
</g>
<!-- Node22&#45;&gt;Node23 -->
<g id="edge22" class="edge">
<title>Node22&#45;&gt;Node23</title>
<path fill="none" stroke="midnightblue" d="M1209.52,-66.17C1219.37,-66.17 1229.29,-66.17 1238.97,-66.17"/>
<polygon fill="midnightblue" stroke="midnightblue" points="1209.29,-62.67 1199.29,-66.17 1209.29,-69.67 1209.29,-62.67"/>
</g>
<!-- Node25 -->
<g id="node25" class="node">
<title>Node25</title>
<g id="a_node25"><a xlink:href="classAssertOpLowering.html" target="_top" xlink:title=" ">
<polygon fill="none" stroke="black" points="1277,-7.67 1277,-26.67 1382,-26.67 1382,-7.67 1277,-7.67"/>
<text text-anchor="middle" x="1329.5" y="-14.67" font-family="Helvetica,sans-Serif" font-size="10.00">AssertOpLowering</text>
</a>
</g>
</g>
<!-- Node24&#45;&gt;Node25 -->
<g id="edge24" class="edge">
<title>Node24&#45;&gt;Node25</title>
<path fill="none" stroke="midnightblue" d="M1194.35,-17.17C1222.47,-17.17 1252.43,-17.17 1276.88,-17.17"/>
<polygon fill="midnightblue" stroke="midnightblue" points="1194.09,-13.67 1184.09,-17.17 1194.09,-20.67 1194.09,-13.67"/>
</g>
</g>
</svg>
