<?xml version="1.0" encoding="UTF-8" standalone="no"?>
<!DOCTYPE svg PUBLIC "-//W3C//DTD SVG 1.1//EN"
 "http://www.w3.org/Graphics/SVG/1.1/DTD/svg11.dtd">
<!-- Generated by graphviz version 2.43.0 (0)
 -->
<!-- Title: mlir::tracing::Action Pages: 1 -->
<svg width="801pt" height="180pt"
 viewBox="0.00 0.00 801.00 179.79" xmlns="http://www.w3.org/2000/svg" xmlns:xlink="http://www.w3.org/1999/xlink">
<g id="graph0" class="graph" transform="scale(1 1) rotate(0) translate(4 175.79)">
<title>mlir::tracing::Action</title>
<!-- Node1 -->
<g id="Node000001" class="node">
<title>Node1</title>
<g id="a_Node000001"><a xlink:title="An action is a specific action that is to be taken by the compiler, that can be toggled and controlle...">
<polygon fill="#999999" stroke="#666666" points="113,-66.29 0,-66.29 0,-47.29 113,-47.29 113,-66.29"/>
<text text-anchor="middle" x="56.5" y="-54.29" font-family="Helvetica,sans-Serif" font-size="10.00">mlir::tracing::Action</text>
</a>
</g>
</g>
<!-- Node2 -->
<g id="Node000002" class="node">
<title>Node2</title>
<g id="a_Node000002"><a xlink:href="classmlir_1_1tracing_1_1ActionImpl.html" target="_top" xlink:title=" ">
<polygon fill="white" stroke="#666666" points="607.5,-171.79 468.5,-171.79 468.5,-141.79 607.5,-141.79 607.5,-171.79"/>
<text text-anchor="start" x="476.5" y="-159.79" font-family="Helvetica,sans-Serif" font-size="10.00">mlir::tracing::ActionImpl</text>
<text text-anchor="middle" x="538" y="-148.79" font-family="Helvetica,sans-Serif" font-size="10.00">&lt; PassExecutionAction &gt;</text>
</a>
</g>
</g>
<!-- Node1&#45;&gt;Node2 -->
<g id="edge1_Node000001_Node000002" class="edge">
<title>Node1&#45;&gt;Node2</title>
<g id="a_edge1_Node000001_Node000002"><a xlink:title=" ">
<path fill="none" stroke="#63b8ff" d="M77.41,-72.49C95.47,-86.08 123.28,-105.46 150,-117.79 269.96,-173.15 311.93,-165.34 444,-161.79 451.92,-161.58 460.22,-161.26 468.45,-160.89"/>
<polygon fill="#63b8ff" stroke="#63b8ff" points="79.44,-69.63 69.37,-66.33 75.18,-75.19 79.44,-69.63"/>
</a>
</g>
</g>
<!-- Node4 -->
<g id="Node000004" class="node">
<title>Node4</title>
<g id="a_Node000004"><a xlink:href="classmlir_1_1tracing_1_1ActionImpl.html" target="_top" xlink:title=" ">
<polygon fill="white" stroke="#666666" points="605,-109.79 471,-109.79 471,-79.79 605,-79.79 605,-109.79"/>
<text text-anchor="start" x="479" y="-97.79" font-family="Helvetica,sans-Serif" font-size="10.00">mlir::tracing::ActionImpl</text>
<text text-anchor="middle" x="538" y="-86.79" font-family="Helvetica,sans-Serif" font-size="10.00">&lt; ApplyPatternAction &gt;</text>
</a>
</g>
</g>
<!-- Node1&#45;&gt;Node4 -->
<g id="edge3_Node000001_Node000004" class="edge">
<title>Node1&#45;&gt;Node4</title>
<g id="a_edge3_Node000001_Node000004"><a xlink:title=" ">
<path fill="none" stroke="#63b8ff" d="M117.48,-45.67C194.35,-33.58 331.17,-19.39 444,-46.79 470.13,-53.13 497.13,-68.19 515.26,-79.76"/>
<polygon fill="#63b8ff" stroke="#63b8ff" points="116.81,-42.23 107.49,-47.28 117.92,-49.14 116.81,-42.23"/>
</a>
</g>
</g>
<!-- Node6 -->
<g id="Node000006" class="node">
<title>Node6</title>
<g id="a_Node000006"><a xlink:href="classmlir_1_1tracing_1_1ActionImpl.html" target="_top" xlink:title=" ">
<polygon fill="white" stroke="#666666" points="614,-34.79 462,-34.79 462,-4.79 614,-4.79 614,-34.79"/>
<text text-anchor="start" x="470" y="-22.79" font-family="Helvetica,sans-Serif" font-size="10.00">mlir::tracing::ActionImpl</text>
<text text-anchor="middle" x="538" y="-11.79" font-family="Helvetica,sans-Serif" font-size="10.00">&lt; ApplyConversionAction &gt;</text>
</a>
</g>
</g>
<!-- Node1&#45;&gt;Node6 -->
<g id="edge5_Node000001_Node000006" class="edge">
<title>Node1&#45;&gt;Node6</title>
<g id="a_edge5_Node000001_Node000006"><a xlink:title=" ">
<path fill="none" stroke="#63b8ff" d="M79.54,-41.85C93.59,-33.24 112.57,-23.27 131,-18.79 243.67,8.61 379.18,0.39 461.66,-8.99"/>
<polygon fill="#63b8ff" stroke="#63b8ff" points="77.63,-38.91 71.07,-47.23 81.39,-44.82 77.63,-38.91"/>
</a>
</g>
</g>
<!-- Node8 -->
<g id="Node000008" class="node">
<title>Node8</title>
<g id="a_Node000008"><a xlink:href="classmlir_1_1tracing_1_1ActionImpl.html" target="_top" xlink:title="CRTP Implementation of an action.">
<polygon fill="white" stroke="#666666" points="284,-108.79 150,-108.79 150,-78.79 284,-78.79 284,-108.79"/>
<text text-anchor="start" x="158" y="-96.79" font-family="Helvetica,sans-Serif" font-size="10.00">mlir::tracing::ActionImpl</text>
<text text-anchor="middle" x="217" y="-85.79" font-family="Helvetica,sans-Serif" font-size="10.00">&lt; Derived &gt;</text>
</a>
</g>
</g>
<!-- Node1&#45;&gt;Node8 -->
<g id="edge7_Node000001_Node000008" class="edge">
<title>Node1&#45;&gt;Node8</title>
<g id="a_edge7_Node000001_Node000008"><a xlink:title=" ">
<path fill="none" stroke="#63b8ff" d="M108.13,-68.61C121.96,-71.84 137.14,-75.38 151.64,-78.76"/>
<polygon fill="#63b8ff" stroke="#63b8ff" points="108.85,-65.18 98.32,-66.32 107.26,-72 108.85,-65.18"/>
</a>
</g>
</g>
<!-- Node3 -->
<g id="Node000003" class="node">
<title>Node3</title>
<g id="a_Node000003"><a xlink:href="classmlir_1_1PassExecutionAction.html" target="_top" xlink:title="This class encapsulates the &quot;action&quot; of executing a single pass.">
<polygon fill="white" stroke="#666666" points="793,-166.29 651,-166.29 651,-147.29 793,-147.29 793,-166.29"/>
<text text-anchor="middle" x="722" y="-154.29" font-family="Helvetica,sans-Serif" font-size="10.00">mlir::PassExecutionAction</text>
</a>
</g>
</g>
<!-- Node2&#45;&gt;Node3 -->
<g id="edge2_Node000002_Node000003" class="edge">
<title>Node2&#45;&gt;Node3</title>
<g id="a_edge2_Node000002_Node000003"><a xlink:title=" ">
<path fill="none" stroke="#63b8ff" d="M617.57,-156.79C628.59,-156.79 639.85,-156.79 650.7,-156.79"/>
<polygon fill="#63b8ff" stroke="#63b8ff" points="617.55,-153.29 607.55,-156.79 617.55,-160.29 617.55,-153.29"/>
</a>
</g>
</g>
<!-- Node5 -->
<g id="Node000005" class="node">
<title>Node5</title>
<g id="a_Node000005"><a xlink:href="classmlir_1_1ApplyPatternAction.html" target="_top" xlink:title="This is the type of Action that is dispatched when a pattern is applied.">
<polygon fill="white" stroke="#666666" points="789.5,-104.29 654.5,-104.29 654.5,-85.29 789.5,-85.29 789.5,-104.29"/>
<text text-anchor="middle" x="722" y="-92.29" font-family="Helvetica,sans-Serif" font-size="10.00">mlir::ApplyPatternAction</text>
</a>
</g>
</g>
<!-- Node4&#45;&gt;Node5 -->
<g id="edge4_Node000004_Node000005" class="edge">
<title>Node4&#45;&gt;Node5</title>
<g id="a_edge4_Node000004_Node000005"><a xlink:title=" ">
<path fill="none" stroke="#63b8ff" d="M615.45,-94.79C628.33,-94.79 641.61,-94.79 654.22,-94.79"/>
<polygon fill="#63b8ff" stroke="#63b8ff" points="615.22,-91.29 605.22,-94.79 615.22,-98.29 615.22,-91.29"/>
</a>
</g>
</g>
<!-- Node7 -->
<g id="Node000007" class="node">
<title>Node7</title>
<g id="a_Node000007"><a xlink:href="classApplyConversionAction.html" target="_top" xlink:title="This is the type of Action that is dispatched when a conversion is applied.">
<polygon fill="white" stroke="#666666" points="787,-29.29 657,-29.29 657,-10.29 787,-10.29 787,-29.29"/>
<text text-anchor="middle" x="722" y="-17.29" font-family="Helvetica,sans-Serif" font-size="10.00">ApplyConversionAction</text>
</a>
</g>
</g>
<!-- Node6&#45;&gt;Node7 -->
<g id="edge6_Node000006_Node000007" class="edge">
<title>Node6&#45;&gt;Node7</title>
<g id="a_edge6_Node000006_Node000007"><a xlink:title=" ">
<path fill="none" stroke="#63b8ff" d="M624.13,-19.79C635.13,-19.79 646.25,-19.79 656.83,-19.79"/>
<polygon fill="#63b8ff" stroke="#63b8ff" points="624.08,-16.29 614.08,-19.79 624.08,-23.29 624.08,-16.29"/>
</a>
</g>
</g>
<!-- Node8&#45;&gt;Node2 -->
<g id="edge8_Node000008_Node000002" class="edge">
<title>Node8&#45;&gt;Node2</title>
<g id="a_edge8_Node000008_Node000002"><a xlink:title=" ">
<path fill="none" stroke="orange" stroke-dasharray="5,2" d="M285.93,-111.19C291.36,-112.45 296.76,-113.67 302,-114.79 357.72,-126.72 421.38,-137.95 468.38,-145.79"/>
<polygon fill="orange" stroke="orange" points="286.71,-107.78 276.17,-108.88 285.1,-114.59 286.71,-107.78"/>
</a>
</g>
<text text-anchor="start" x="312" y="-146.29" font-family="Helvetica,sans-Serif" font-size="10.00" fill="grey">&lt; PassExecutionAction &gt;</text>
</g>
<!-- Node8&#45;&gt;Node4 -->
<g id="edge9_Node000008_Node000004" class="edge">
<title>Node8&#45;&gt;Node4</title>
<g id="a_edge9_Node000008_Node000004"><a xlink:title=" ">
<path fill="none" stroke="orange" stroke-dasharray="5,2" d="M294.28,-94.03C348.14,-94.2 419.58,-94.42 470.99,-94.58"/>
<polygon fill="orange" stroke="orange" points="294.11,-90.53 284.1,-94 294.09,-97.53 294.11,-90.53"/>
</a>
</g>
<text text-anchor="start" x="315" y="-99.29" font-family="Helvetica,sans-Serif" font-size="10.00" fill="grey">&lt; ApplyPatternAction &gt;</text>
</g>
<!-- Node8&#45;&gt;Node6 -->
<g id="edge10_Node000008_Node000006" class="edge">
<title>Node8&#45;&gt;Node6</title>
<g id="a_edge10_Node000008_Node000006"><a xlink:title=" ">
<path fill="none" stroke="orange" stroke-dasharray="5,2" d="M287.61,-76.25C292.48,-75.07 297.31,-73.9 302,-72.79 357.95,-59.49 421.59,-45.19 468.52,-34.79"/>
<polygon fill="orange" stroke="orange" points="286.49,-72.92 277.61,-78.7 288.16,-79.72 286.49,-72.92"/>
</a>
</g>
<text text-anchor="start" x="305" y="-78.29" font-family="Helvetica,sans-Serif" font-size="10.00" fill="grey">&lt; ApplyConversionAction &gt;</text>
</g>
</g>
</svg>
