<?xml version="1.0" encoding="UTF-8" standalone="no"?>
<!DOCTYPE svg PUBLIC "-//W3C//DTD SVG 1.1//EN"
 "http://www.w3.org/Graphics/SVG/1.1/DTD/svg11.dtd">
<!-- Generated by graphviz version 2.43.0 (0)
 -->
<!-- Title: mlir::DynamicOpTraitImpl&lt; Trait &gt; Pages: 1 -->
<svg width="787pt" height="86pt"
 viewBox="0.00 0.00 787.00 86.00" xmlns="http://www.w3.org/2000/svg" xmlns:xlink="http://www.w3.org/1999/xlink">
<g id="graph0" class="graph" transform="scale(1 1) rotate(0) translate(4 82)">
<title>mlir::DynamicOpTraitImpl&lt; Trait &gt;</title>
<!-- Node1 -->
<g id="Node000001" class="node">
<title>Node1</title>
<g id="a_Node000001"><a xlink:title=" ">
<polygon fill="#999999" stroke="#666666" points="299,-54 157,-54 157,-24 299,-24 299,-54"/>
<text text-anchor="start" x="165" y="-42" font-family="Helvetica,sans-Serif" font-size="10.00">mlir::DynamicOpTraitImpl</text>
<text text-anchor="middle" x="228" y="-31" font-family="Helvetica,sans-Serif" font-size="10.00">&lt; Trait &gt;</text>
</a>
</g>
</g>
<!-- Node3 -->
<g id="Node000003" class="node">
<title>Node3</title>
<g id="a_Node000003"><a xlink:href="classmlir_1_1DynamicOpTraitImpl.html" target="_top" xlink:title=" ">
<polygon fill="white" stroke="#666666" points="615,-78 473,-78 473,-48 615,-48 615,-78"/>
<text text-anchor="start" x="481" y="-66" font-family="Helvetica,sans-Serif" font-size="10.00">mlir::DynamicOpTraitImpl</text>
<text text-anchor="middle" x="544" y="-55" font-family="Helvetica,sans-Serif" font-size="10.00">&lt; OpTrait::IsTerminator &gt;</text>
</a>
</g>
</g>
<!-- Node1&#45;&gt;Node3 -->
<g id="edge2_Node000001_Node000003" class="edge">
<title>Node1&#45;&gt;Node3</title>
<g id="a_edge2_Node000001_Node000003"><a xlink:title=" ">
<path fill="none" stroke="orange" stroke-dasharray="5,2" d="M309.31,-45.14C359.83,-49 424.41,-53.94 472.87,-57.64"/>
<polygon fill="orange" stroke="orange" points="309.31,-41.63 299.08,-44.36 308.78,-48.61 309.31,-41.63"/>
</a>
</g>
<text text-anchor="start" x="323" y="-60.5" font-family="Helvetica,sans-Serif" font-size="10.00" fill="grey">&lt; OpTrait::IsTerminator &gt;</text>
</g>
<!-- Node5 -->
<g id="Node000005" class="node">
<title>Node5</title>
<g id="a_Node000005"><a xlink:href="classmlir_1_1DynamicOpTraitImpl.html" target="_top" xlink:title=" ">
<polygon fill="white" stroke="#666666" points="617,-30 471,-30 471,0 617,0 617,-30"/>
<text text-anchor="start" x="479" y="-18" font-family="Helvetica,sans-Serif" font-size="10.00">mlir::DynamicOpTraitImpl</text>
<text text-anchor="middle" x="544" y="-7" font-family="Helvetica,sans-Serif" font-size="10.00">&lt; OpTrait::NoTerminator &gt;</text>
</a>
</g>
</g>
<!-- Node1&#45;&gt;Node5 -->
<g id="edge4_Node000001_Node000005" class="edge">
<title>Node1&#45;&gt;Node5</title>
<g id="a_edge4_Node000001_Node000005"><a xlink:title=" ">
<path fill="none" stroke="orange" stroke-dasharray="5,2" d="M309.22,-25.85C311.84,-25.54 314.44,-25.26 317,-25 368.29,-19.8 426.39,-17.31 470.84,-16.11"/>
<polygon fill="orange" stroke="orange" points="308.52,-22.41 299.04,-27.12 309.39,-29.36 308.52,-22.41"/>
</a>
</g>
<text text-anchor="start" x="320" y="-30.5" font-family="Helvetica,sans-Serif" font-size="10.00" fill="grey">&lt; OpTrait::NoTerminator &gt;</text>
</g>
<!-- Node2 -->
<g id="Node000002" class="node">
<title>Node2</title>
<g id="a_Node000002"><a xlink:href="classmlir_1_1DynamicOpTrait.html" target="_top" xlink:title="Base class of traits for dynamic&#45;defined operations.">
<polygon fill="white" stroke="#666666" points="120,-48.5 0,-48.5 0,-29.5 120,-29.5 120,-48.5"/>
<text text-anchor="middle" x="60" y="-36.5" font-family="Helvetica,sans-Serif" font-size="10.00">mlir::DynamicOpTrait</text>
</a>
</g>
</g>
<!-- Node2&#45;&gt;Node1 -->
<g id="edge1_Node000001_Node000002" class="edge">
<title>Node2&#45;&gt;Node1</title>
<g id="a_edge1_Node000001_Node000002"><a xlink:title=" ">
<path fill="none" stroke="#63b8ff" d="M130.57,-39C139.28,-39 148.2,-39 156.92,-39"/>
<polygon fill="#63b8ff" stroke="#63b8ff" points="130.46,-35.5 120.46,-39 130.46,-42.5 130.46,-35.5"/>
</a>
</g>
</g>
<!-- Node4 -->
<g id="Node000004" class="node">
<title>Node4</title>
<g id="a_Node000004"><a xlink:href="classmlir_1_1DynamicOpTraits_1_1IsTerminator.html" target="_top" xlink:title=" ">
<polygon fill="white" stroke="#666666" points="779,-78 654,-78 654,-48 779,-48 779,-78"/>
<text text-anchor="start" x="662" y="-66" font-family="Helvetica,sans-Serif" font-size="10.00">mlir::DynamicOpTraits</text>
<text text-anchor="middle" x="716.5" y="-55" font-family="Helvetica,sans-Serif" font-size="10.00">::IsTerminator</text>
</a>
</g>
</g>
<!-- Node3&#45;&gt;Node4 -->
<g id="edge3_Node000003_Node000004" class="edge">
<title>Node3&#45;&gt;Node4</title>
<g id="a_edge3_Node000003_Node000004"><a xlink:title=" ">
<path fill="none" stroke="#63b8ff" d="M625.57,-63C635.05,-63 644.61,-63 653.77,-63"/>
<polygon fill="#63b8ff" stroke="#63b8ff" points="625.33,-59.5 615.33,-63 625.33,-66.5 625.33,-59.5"/>
</a>
</g>
</g>
<!-- Node6 -->
<g id="Node000006" class="node">
<title>Node6</title>
<g id="a_Node000006"><a xlink:href="classmlir_1_1DynamicOpTraits_1_1NoTerminator.html" target="_top" xlink:title=" ">
<polygon fill="white" stroke="#666666" points="779,-30 654,-30 654,0 779,0 779,-30"/>
<text text-anchor="start" x="662" y="-18" font-family="Helvetica,sans-Serif" font-size="10.00">mlir::DynamicOpTraits</text>
<text text-anchor="middle" x="716.5" y="-7" font-family="Helvetica,sans-Serif" font-size="10.00">::NoTerminator</text>
</a>
</g>
</g>
<!-- Node5&#45;&gt;Node6 -->
<g id="edge5_Node000005_Node000006" class="edge">
<title>Node5&#45;&gt;Node6</title>
<g id="a_edge5_Node000005_Node000006"><a xlink:title=" ">
<path fill="none" stroke="#63b8ff" d="M627.34,-15C636.27,-15 645.23,-15 653.85,-15"/>
<polygon fill="#63b8ff" stroke="#63b8ff" points="627.31,-11.5 617.31,-15 627.31,-18.5 627.31,-11.5"/>
</a>
</g>
</g>
</g>
</svg>
