<?xml version="1.0" encoding="UTF-8" standalone="no"?>
<!DOCTYPE svg PUBLIC "-//W3C//DTD SVG 1.1//EN"
 "http://www.w3.org/Graphics/SVG/1.1/DTD/svg11.dtd">
<!-- Generated by graphviz version 2.43.0 (0)
 -->
<!-- Title: llvm::DenseSet&lt; ValueT, ValueInfoT &gt; Pages: 1 -->
<svg width="521pt" height="531pt"
 viewBox="0.00 0.00 521.00 531.30" xmlns="http://www.w3.org/2000/svg" xmlns:xlink="http://www.w3.org/1999/xlink">
<g id="graph0" class="graph" transform="scale(1 1) rotate(0) translate(4 527.3)">
<title>llvm::DenseSet&lt; ValueT, ValueInfoT &gt;</title>
<!-- Node1 -->
<g id="node1" class="node">
<title>Node1</title>
<g id="a_node1"><a xlink:title=" ">
<polygon fill="#bfbfbf" stroke="black" points="0,-227.3 0,-257.3 138,-257.3 138,-227.3 0,-227.3"/>
<text text-anchor="start" x="8" y="-245.3" font-family="Helvetica,sans-Serif" font-size="10.00">llvm::DenseSet&lt; ValueT,</text>
<text text-anchor="middle" x="69" y="-234.3" font-family="Helvetica,sans-Serif" font-size="10.00"> ValueInfoT &gt;</text>
</a>
</g>
</g>
<!-- Node2 -->
<g id="node2" class="node">
<title>Node2</title>
<g id="a_node2"><a xlink:href="classllvm_1_1DenseSet.html" target="_top" xlink:title=" ">
<polygon fill="none" stroke="black" points="367,-484.3 367,-514.3 489,-514.3 489,-484.3 367,-484.3"/>
<text text-anchor="start" x="375" y="-502.3" font-family="Helvetica,sans-Serif" font-size="10.00">llvm::DenseSet&lt; mlir</text>
<text text-anchor="middle" x="428" y="-491.3" font-family="Helvetica,sans-Serif" font-size="10.00">::Value &gt;</text>
</a>
</g>
</g>
<!-- Node1&#45;&gt;Node2 -->
<g id="edge1" class="edge">
<title>Node1&#45;&gt;Node2</title>
<path fill="none" stroke="orange" stroke-dasharray="5,2" d="M71.38,-267.74C75.49,-315.78 91.73,-419.47 156,-469.3 215.95,-515.77 307.04,-515.82 366.79,-509.35"/>
<polygon fill="orange" stroke="orange" points="74.86,-267.29 70.63,-257.58 67.88,-267.81 74.86,-267.29"/>
<text text-anchor="middle" x="240.5" y="-515.3" font-family="Helvetica,sans-Serif" font-size="10.00"> &lt; mlir::Value &gt;</text>
</g>
<!-- Node3 -->
<g id="node3" class="node">
<title>Node3</title>
<g id="a_node3"><a xlink:href="classllvm_1_1DenseSet.html" target="_top" xlink:title=" ">
<polygon fill="none" stroke="black" points="369.5,-423.8 369.5,-464.8 486.5,-464.8 486.5,-423.8 369.5,-423.8"/>
<text text-anchor="start" x="377.5" y="-452.8" font-family="Helvetica,sans-Serif" font-size="10.00">llvm::DenseSet&lt; std</text>
<text text-anchor="start" x="377.5" y="-441.8" font-family="Helvetica,sans-Serif" font-size="10.00">::pair&lt; mlir::TypeID,</text>
<text text-anchor="middle" x="428" y="-430.8" font-family="Helvetica,sans-Serif" font-size="10.00"> mlir::TypeID &gt; &gt;</text>
</a>
</g>
</g>
<!-- Node1&#45;&gt;Node3 -->
<g id="edge2" class="edge">
<title>Node1&#45;&gt;Node3</title>
<path fill="none" stroke="orange" stroke-dasharray="5,2" d="M74.6,-267.46C83.15,-306.31 105.42,-380.09 156,-415.3 189.4,-438.54 300.25,-443.64 369.4,-444.49"/>
<polygon fill="orange" stroke="orange" points="77.99,-266.57 72.54,-257.49 71.13,-267.99 77.99,-266.57"/>
<text text-anchor="start" x="180" y="-457.3" font-family="Helvetica,sans-Serif" font-size="10.00"> &lt; std::pair&lt; mlir::</text>
<text text-anchor="middle" x="240.5" y="-446.3" font-family="Helvetica,sans-Serif" font-size="10.00">TypeID, mlir::TypeID &gt; &gt;</text>
</g>
<!-- Node4 -->
<g id="node4" class="node">
<title>Node4</title>
<g id="a_node4"><a xlink:href="classllvm_1_1DenseSet.html" target="_top" xlink:title=" ">
<polygon fill="none" stroke="black" points="343,-385.8 343,-404.8 513,-404.8 513,-385.8 343,-385.8"/>
<text text-anchor="middle" x="428" y="-392.8" font-family="Helvetica,sans-Serif" font-size="10.00">llvm::DenseSet&lt; Operation * &gt;</text>
</a>
</g>
</g>
<!-- Node1&#45;&gt;Node4 -->
<g id="edge3" class="edge">
<title>Node1&#45;&gt;Node4</title>
<path fill="none" stroke="orange" stroke-dasharray="5,2" d="M80.43,-266.69C93.67,-294.39 119.29,-338.55 156,-360.3 212.23,-393.6 286.41,-401.19 342.94,-401.11"/>
<polygon fill="orange" stroke="orange" points="83.47,-264.92 76.12,-257.3 77.11,-267.84 83.47,-264.92"/>
<text text-anchor="middle" x="240.5" y="-403.3" font-family="Helvetica,sans-Serif" font-size="10.00"> &lt; Operation * &gt;</text>
</g>
<!-- Node5 -->
<g id="node5" class="node">
<title>Node5</title>
<g id="a_node5"><a xlink:href="classllvm_1_1DenseSet.html" target="_top" xlink:title=" ">
<polygon fill="none" stroke="black" points="364,-325.8 364,-366.8 492,-366.8 492,-325.8 364,-325.8"/>
<text text-anchor="start" x="372" y="-354.8" font-family="Helvetica,sans-Serif" font-size="10.00">llvm::DenseSet&lt; const</text>
<text text-anchor="start" x="372" y="-343.8" font-family="Helvetica,sans-Serif" font-size="10.00"> DialectInterface *,</text>
<text text-anchor="middle" x="428" y="-332.8" font-family="Helvetica,sans-Serif" font-size="10.00"> InterfaceKeyInfo &gt;</text>
</a>
</g>
</g>
<!-- Node1&#45;&gt;Node5 -->
<g id="edge4" class="edge">
<title>Node1&#45;&gt;Node5</title>
<path fill="none" stroke="orange" stroke-dasharray="5,2" d="M98.57,-263.1C114.7,-273.92 135.66,-286.48 156,-294.3 224.42,-320.58 307.86,-334.02 363.92,-340.58"/>
<polygon fill="orange" stroke="orange" points="100.36,-260.08 90.13,-257.31 96.4,-265.86 100.36,-260.08"/>
<text text-anchor="start" x="179.5" y="-348.3" font-family="Helvetica,sans-Serif" font-size="10.00"> &lt; const DialectInterface</text>
<text text-anchor="middle" x="240.5" y="-337.3" font-family="Helvetica,sans-Serif" font-size="10.00"> *, InterfaceKeyInfo &gt;</text>
</g>
<!-- Node6 -->
<g id="node6" class="node">
<title>Node6</title>
<g id="a_node6"><a xlink:href="classllvm_1_1DenseSet.html" target="_top" xlink:title=" ">
<polygon fill="none" stroke="black" points="367,-276.3 367,-306.3 489,-306.3 489,-276.3 367,-276.3"/>
<text text-anchor="start" x="375" y="-294.3" font-family="Helvetica,sans-Serif" font-size="10.00">llvm::DenseSet&lt; mlir</text>
<text text-anchor="middle" x="428" y="-283.3" font-family="Helvetica,sans-Serif" font-size="10.00">::Block * &gt;</text>
</a>
</g>
</g>
<!-- Node1&#45;&gt;Node6 -->
<g id="edge5" class="edge">
<title>Node1&#45;&gt;Node6</title>
<path fill="none" stroke="orange" stroke-dasharray="5,2" d="M147.94,-256.06C150.66,-256.49 153.35,-256.9 156,-257.3 228.33,-268.14 311.89,-278.26 366.88,-284.59"/>
<polygon fill="orange" stroke="orange" points="148.45,-252.6 138.02,-254.47 147.34,-259.51 148.45,-252.6"/>
<text text-anchor="middle" x="240.5" y="-282.3" font-family="Helvetica,sans-Serif" font-size="10.00"> &lt; mlir::Block * &gt;</text>
</g>
<!-- Node7 -->
<g id="node7" class="node">
<title>Node7</title>
<g id="a_node7"><a xlink:href="classllvm_1_1DenseSet.html" target="_top" xlink:title=" ">
<polygon fill="none" stroke="black" points="367,-227.3 367,-257.3 489,-257.3 489,-227.3 367,-227.3"/>
<text text-anchor="start" x="375" y="-245.3" font-family="Helvetica,sans-Serif" font-size="10.00">llvm::DenseSet&lt; mlir</text>
<text text-anchor="middle" x="428" y="-234.3" font-family="Helvetica,sans-Serif" font-size="10.00">::OpOperand * &gt;</text>
</a>
</g>
</g>
<!-- Node1&#45;&gt;Node7 -->
<g id="edge6" class="edge">
<title>Node1&#45;&gt;Node7</title>
<path fill="none" stroke="orange" stroke-dasharray="5,2" d="M148.73,-242.3C214.49,-242.3 306.87,-242.3 366.84,-242.3"/>
<polygon fill="orange" stroke="orange" points="148.41,-238.8 138.41,-242.3 148.41,-245.8 148.41,-238.8"/>
<text text-anchor="middle" x="240.5" y="-245.3" font-family="Helvetica,sans-Serif" font-size="10.00"> &lt; mlir::OpOperand * &gt;</text>
</g>
<!-- Node8 -->
<g id="node8" class="node">
<title>Node8</title>
<g id="a_node8"><a xlink:href="classllvm_1_1DenseSet.html" target="_top" xlink:title=" ">
<polygon fill="none" stroke="black" points="367,-178.3 367,-208.3 489,-208.3 489,-178.3 367,-178.3"/>
<text text-anchor="start" x="375" y="-196.3" font-family="Helvetica,sans-Serif" font-size="10.00">llvm::DenseSet&lt; mlir</text>
<text text-anchor="middle" x="428" y="-185.3" font-family="Helvetica,sans-Serif" font-size="10.00">::BlockArgument &gt;</text>
</a>
</g>
</g>
<!-- Node1&#45;&gt;Node8 -->
<g id="edge7" class="edge">
<title>Node1&#45;&gt;Node8</title>
<path fill="none" stroke="orange" stroke-dasharray="5,2" d="M147.94,-228.53C150.66,-228.11 153.35,-227.69 156,-227.3 228.33,-216.46 311.89,-206.34 366.88,-200"/>
<polygon fill="orange" stroke="orange" points="147.34,-225.08 138.02,-230.12 148.45,-232 147.34,-225.08"/>
<text text-anchor="middle" x="240.5" y="-230.3" font-family="Helvetica,sans-Serif" font-size="10.00"> &lt; mlir::BlockArgument &gt;</text>
</g>
<!-- Node9 -->
<g id="node9" class="node">
<title>Node9</title>
<g id="a_node9"><a xlink:href="classllvm_1_1DenseSet.html" target="_top" xlink:title=" ">
<polygon fill="none" stroke="black" points="364,-139.8 364,-158.8 492,-158.8 492,-139.8 364,-139.8"/>
<text text-anchor="middle" x="428" y="-146.8" font-family="Helvetica,sans-Serif" font-size="10.00">llvm::DenseSet&lt; InT &gt;</text>
</a>
</g>
</g>
<!-- Node1&#45;&gt;Node9 -->
<g id="edge8" class="edge">
<title>Node1&#45;&gt;Node9</title>
<path fill="none" stroke="orange" stroke-dasharray="5,2" d="M97.73,-221.18C113.89,-209.94 135.14,-196.9 156,-189.3 224.37,-164.39 307.81,-154.96 363.89,-151.41"/>
<polygon fill="orange" stroke="orange" points="95.41,-218.53 89.31,-227.19 99.48,-224.23 95.41,-218.53"/>
<text text-anchor="middle" x="240.5" y="-192.3" font-family="Helvetica,sans-Serif" font-size="10.00"> &lt; InT &gt;</text>
</g>
<!-- Node10 -->
<g id="node10" class="node">
<title>Node10</title>
<g id="a_node10"><a xlink:href="classllvm_1_1DenseSet.html" target="_top" xlink:title=" ">
<polygon fill="none" stroke="black" points="356.5,-101.8 356.5,-120.8 499.5,-120.8 499.5,-101.8 356.5,-101.8"/>
<text text-anchor="middle" x="428" y="-108.8" font-family="Helvetica,sans-Serif" font-size="10.00">llvm::DenseSet&lt; void * &gt;</text>
</a>
</g>
</g>
<!-- Node1&#45;&gt;Node10 -->
<g id="edge9" class="edge">
<title>Node1&#45;&gt;Node10</title>
<path fill="none" stroke="orange" stroke-dasharray="5,2" d="M82.68,-218.2C96.96,-193.76 122.59,-157.07 156,-139.3 217.9,-106.36 298.99,-102.18 356.29,-104.5"/>
<polygon fill="orange" stroke="orange" points="79.46,-216.79 77.6,-227.22 85.56,-220.22 79.46,-216.79"/>
<text text-anchor="middle" x="240.5" y="-142.3" font-family="Helvetica,sans-Serif" font-size="10.00"> &lt; void * &gt;</text>
</g>
<!-- Node11 -->
<g id="node11" class="node">
<title>Node11</title>
<g id="a_node11"><a xlink:href="classllvm_1_1DenseSet.html" target="_top" xlink:title=" ">
<polygon fill="none" stroke="black" points="367,-52.3 367,-82.3 489,-82.3 489,-52.3 367,-52.3"/>
<text text-anchor="start" x="375" y="-70.3" font-family="Helvetica,sans-Serif" font-size="10.00">llvm::DenseSet&lt; mlir</text>
<text text-anchor="middle" x="428" y="-59.3" font-family="Helvetica,sans-Serif" font-size="10.00">::Operation * &gt;</text>
</a>
</g>
</g>
<!-- Node1&#45;&gt;Node11 -->
<g id="edge10" class="edge">
<title>Node1&#45;&gt;Node11</title>
<path fill="none" stroke="orange" stroke-dasharray="5,2" d="M76.06,-217.16C86.07,-181.68 109.72,-117.92 156,-88.3 219.19,-47.84 308.43,-49.54 366.98,-56.63"/>
<polygon fill="orange" stroke="orange" points="72.58,-216.63 73.38,-227.2 79.34,-218.44 72.58,-216.63"/>
<text text-anchor="middle" x="240.5" y="-91.3" font-family="Helvetica,sans-Serif" font-size="10.00"> &lt; mlir::Operation * &gt;</text>
</g>
<!-- Node12 -->
<g id="node12" class="node">
<title>Node12</title>
<g id="a_node12"><a xlink:href="classllvm_1_1DenseSet.html" target="_top" xlink:title=" ">
<polygon fill="none" stroke="black" points="350.5,-3.3 350.5,-33.3 505.5,-33.3 505.5,-3.3 350.5,-3.3"/>
<text text-anchor="start" x="358.5" y="-21.3" font-family="Helvetica,sans-Serif" font-size="10.00">llvm::DenseSet&lt; Unrealized</text>
<text text-anchor="middle" x="428" y="-10.3" font-family="Helvetica,sans-Serif" font-size="10.00">ConversionCastOp &gt;</text>
</a>
</g>
</g>
<!-- Node1&#45;&gt;Node12 -->
<g id="edge11" class="edge">
<title>Node1&#45;&gt;Node12</title>
<path fill="none" stroke="orange" stroke-dasharray="5,2" d="M72.29,-217.18C77.83,-172.54 96.3,-80.08 156,-37.3 211.78,2.68 291.7,3.35 350.29,-3.52"/>
<polygon fill="orange" stroke="orange" points="68.8,-216.86 71.16,-227.19 75.76,-217.64 68.8,-216.86"/>
<text text-anchor="middle" x="240.5" y="-40.3" font-family="Helvetica,sans-Serif" font-size="10.00"> &lt; UnrealizedConversionCastOp &gt;</text>
</g>
</g>
</svg>
