<?xml version="1.0" encoding="UTF-8" standalone="no"?>
<!DOCTYPE svg PUBLIC "-//W3C//DTD SVG 1.1//EN"
 "http://www.w3.org/Graphics/SVG/1.1/DTD/svg11.dtd">
<!-- Generated by graphviz version 2.43.0 (0)
 -->
<!-- Title: mlir::polynomial::FloatPolynomial Pages: 1 -->
<svg width="230pt" height="185pt"
 viewBox="0.00 0.00 230.00 185.00" xmlns="http://www.w3.org/2000/svg" xmlns:xlink="http://www.w3.org/1999/xlink">
<g id="graph0" class="graph" transform="scale(1 1) rotate(0) translate(4 181)">
<title>mlir::polynomial::FloatPolynomial</title>
<!-- Node1 -->
<g id="node1" class="node">
<title>Node1</title>
<g id="a_node1"><a xlink:title="A single&#45;variable polynomial with double coefficients.">
<polygon fill="#bfbfbf" stroke="black" points="20,-0.5 20,-19.5 202,-19.5 202,-0.5 20,-0.5"/>
<text text-anchor="middle" x="111" y="-7.5" font-family="Helvetica,sans-Serif" font-size="10.00">mlir::polynomial::FloatPolynomial</text>
</a>
</g>
</g>
<!-- Node2 -->
<g id="node2" class="node">
<title>Node2</title>
<g id="a_node2"><a xlink:href="classmlir_1_1polynomial_1_1PolynomialBase.html" target="_top" xlink:title=" ">
<polygon fill="none" stroke="black" points="0,-57.5 0,-87.5 222,-87.5 222,-57.5 0,-57.5"/>
<text text-anchor="start" x="8" y="-75.5" font-family="Helvetica,sans-Serif" font-size="10.00">mlir::polynomial::Polynomial</text>
<text text-anchor="middle" x="111" y="-64.5" font-family="Helvetica,sans-Serif" font-size="10.00">Base&lt; FloatPolynomial, FloatMonomial &gt;</text>
</a>
</g>
</g>
<!-- Node2&#45;&gt;Node1 -->
<g id="edge1" class="edge">
<title>Node2&#45;&gt;Node1</title>
<path fill="none" stroke="midnightblue" d="M111,-47.35C111,-37.51 111,-26.78 111,-19.54"/>
<polygon fill="midnightblue" stroke="midnightblue" points="107.5,-47.47 111,-57.47 114.5,-47.47 107.5,-47.47"/>
</g>
<!-- Node3 -->
<g id="node3" class="node">
<title>Node3</title>
<g id="a_node3"><a xlink:href="classmlir_1_1polynomial_1_1PolynomialBase.html" target="_top" xlink:title=" ">
<polygon fill="none" stroke="black" points="32,-146.5 32,-176.5 190,-176.5 190,-146.5 32,-146.5"/>
<text text-anchor="start" x="40" y="-164.5" font-family="Helvetica,sans-Serif" font-size="10.00">mlir::polynomial::Polynomial</text>
<text text-anchor="middle" x="111" y="-153.5" font-family="Helvetica,sans-Serif" font-size="10.00">Base&lt; Derived, Monomial &gt;</text>
</a>
</g>
</g>
<!-- Node3&#45;&gt;Node2 -->
<g id="edge2" class="edge">
<title>Node3&#45;&gt;Node2</title>
<path fill="none" stroke="orange" stroke-dasharray="5,2" d="M111,-136.09C111,-120.44 111,-100.68 111,-87.6"/>
<polygon fill="orange" stroke="orange" points="107.5,-136.13 111,-146.13 114.5,-136.13 107.5,-136.13"/>
<text text-anchor="start" x="111" y="-120" font-family="Helvetica,sans-Serif" font-size="10.00"> &lt; FloatPolynomial,</text>
<text text-anchor="middle" x="159.5" y="-109" font-family="Helvetica,sans-Serif" font-size="10.00"> FloatMonomial &gt;</text>
</g>
</g>
</svg>
