<?xml version="1.0" encoding="UTF-8" standalone="no"?>
<!DOCTYPE svg PUBLIC "-//W3C//DTD SVG 1.1//EN"
 "http://www.w3.org/Graphics/SVG/1.1/DTD/svg11.dtd">
<!-- Generated by graphviz version 2.43.0 (0)
 -->
<!-- Title: mlir::transform::TransformEachOpTrait&lt; OpTy &gt; Pages: 1 -->
<svg width="259pt" height="185pt"
 viewBox="0.00 0.00 259.00 185.00" xmlns="http://www.w3.org/2000/svg" xmlns:xlink="http://www.w3.org/1999/xlink">
<g id="graph0" class="graph" transform="scale(1 1) rotate(0) translate(4 181)">
<title>mlir::transform::TransformEachOpTrait&lt; OpTy &gt;</title>
<!-- Node1 -->
<g id="node1" class="node">
<title>Node1</title>
<g id="a_node1"><a xlink:title="Trait implementing the TransformOpInterface for operations applying a transformation to a single oper...">
<polygon fill="#bfbfbf" stroke="black" points="15.5,-0.5 15.5,-30.5 160.5,-30.5 160.5,-0.5 15.5,-0.5"/>
<text text-anchor="start" x="23.5" y="-18.5" font-family="Helvetica,sans-Serif" font-size="10.00">mlir::transform::Transform</text>
<text text-anchor="middle" x="88" y="-7.5" font-family="Helvetica,sans-Serif" font-size="10.00">EachOpTrait&lt; OpTy &gt;</text>
</a>
</g>
</g>
<!-- Node2 -->
<g id="node2" class="node">
<title>Node2</title>
<g id="a_node2"><a xlink:href="classmlir_1_1OpTrait_1_1TraitBase.html" target="_top" xlink:title=" ">
<polygon fill="none" stroke="black" points="0,-68.5 0,-98.5 176,-98.5 176,-68.5 0,-68.5"/>
<text text-anchor="start" x="8" y="-86.5" font-family="Helvetica,sans-Serif" font-size="10.00">mlir::OpTrait::TraitBase</text>
<text text-anchor="middle" x="88" y="-75.5" font-family="Helvetica,sans-Serif" font-size="10.00">&lt; OpTy, TransformEachOpTrait &gt;</text>
</a>
</g>
</g>
<!-- Node2&#45;&gt;Node1 -->
<g id="edge1" class="edge">
<title>Node2&#45;&gt;Node1</title>
<path fill="none" stroke="midnightblue" d="M88,-58.03C88,-48.86 88,-38.74 88,-30.79"/>
<polygon fill="midnightblue" stroke="midnightblue" points="84.5,-58.18 88,-68.18 91.5,-58.18 84.5,-58.18"/>
</g>
<!-- Node3 -->
<g id="node3" class="node">
<title>Node3</title>
<g id="a_node3"><a xlink:href="classmlir_1_1OpTrait_1_1TraitBase.html" target="_top" xlink:title="Helper class for implementing traits.">
<polygon fill="none" stroke="black" points="10.5,-146.5 10.5,-176.5 165.5,-176.5 165.5,-146.5 10.5,-146.5"/>
<text text-anchor="start" x="18.5" y="-164.5" font-family="Helvetica,sans-Serif" font-size="10.00">mlir::OpTrait::TraitBase</text>
<text text-anchor="middle" x="88" y="-153.5" font-family="Helvetica,sans-Serif" font-size="10.00">&lt; ConcreteType, TraitType &gt;</text>
</a>
</g>
</g>
<!-- Node3&#45;&gt;Node2 -->
<g id="edge2" class="edge">
<title>Node3&#45;&gt;Node2</title>
<path fill="none" stroke="orange" stroke-dasharray="5,2" d="M88,-136.09C88,-123.76 88,-109.22 88,-98.73"/>
<polygon fill="orange" stroke="orange" points="84.5,-136.2 88,-146.2 91.5,-136.21 84.5,-136.2"/>
<text text-anchor="middle" x="169.5" y="-120" font-family="Helvetica,sans-Serif" font-size="10.00"> &lt; OpTy, TransformEachOpTrait &gt;</text>
</g>
</g>
</svg>
