<?xml version="1.0" encoding="UTF-8" standalone="no"?>
<!DOCTYPE svg PUBLIC "-//W3C//DTD SVG 1.1//EN"
 "http://www.w3.org/Graphics/SVG/1.1/DTD/svg11.dtd">
<!-- Generated by graphviz version 2.43.0 (0)
 -->
<!-- Title: mlir::DialectExtensionBase Pages: 1 -->
<svg width="889pt" height="67pt"
 viewBox="0.00 0.00 889.00 66.50" xmlns="http://www.w3.org/2000/svg" xmlns:xlink="http://www.w3.org/1999/xlink">
<g id="graph0" class="graph" transform="scale(1 1) rotate(0) translate(4 62.5)">
<title>mlir::DialectExtensionBase</title>
<!-- Node1 -->
<g id="node1" class="node">
<title>Node1</title>
<g id="a_node1"><a xlink:title="This class represents an opaque dialect extension.">
<polygon fill="#bfbfbf" stroke="black" points="0,-28 0,-47 149,-47 149,-28 0,-28"/>
<text text-anchor="middle" x="74.5" y="-35" font-family="Helvetica,sans-Serif" font-size="10.00">mlir::DialectExtensionBase</text>
</a>
</g>
</g>
<!-- Node2 -->
<g id="node2" class="node">
<title>Node2</title>
<g id="a_node2"><a xlink:href="classmlir_1_1DialectExtension.html" target="_top" xlink:title=" ">
<polygon fill="none" stroke="black" points="513,-17 513,-58 682,-58 682,-17 513,-17"/>
<text text-anchor="start" x="521" y="-46" font-family="Helvetica,sans-Serif" font-size="10.00">mlir::DialectExtension</text>
<text text-anchor="start" x="521" y="-35" font-family="Helvetica,sans-Serif" font-size="10.00">&lt; DerivedTy, TransformDialect,</text>
<text text-anchor="middle" x="597.5" y="-24" font-family="Helvetica,sans-Serif" font-size="10.00"> ExtraDialects... &gt;</text>
</a>
</g>
</g>
<!-- Node1&#45;&gt;Node2 -->
<g id="edge1" class="edge">
<title>Node1&#45;&gt;Node2</title>
<path fill="none" stroke="midnightblue" d="M159.11,-41.96C243.8,-45.81 378.54,-50.08 495,-45.5 500.83,-45.27 506.84,-44.97 512.89,-44.61"/>
<polygon fill="midnightblue" stroke="midnightblue" points="159.18,-38.46 149.03,-41.5 158.86,-45.46 159.18,-38.46"/>
</g>
<!-- Node4 -->
<g id="node4" class="node">
<title>Node4</title>
<g id="a_node4"><a xlink:href="classmlir_1_1DialectExtension.html" target="_top" xlink:title="This class represents a dialect extension anchored on the given set of dialects.">
<polygon fill="none" stroke="black" points="186,-0.5 186,-30.5 321,-30.5 321,-0.5 186,-0.5"/>
<text text-anchor="start" x="194" y="-18.5" font-family="Helvetica,sans-Serif" font-size="10.00">mlir::DialectExtension</text>
<text text-anchor="middle" x="253.5" y="-7.5" font-family="Helvetica,sans-Serif" font-size="10.00">&lt; DerivedT, DialectsT &gt;</text>
</a>
</g>
</g>
<!-- Node1&#45;&gt;Node4 -->
<g id="edge3" class="edge">
<title>Node1&#45;&gt;Node4</title>
<path fill="none" stroke="midnightblue" d="M159.15,-27.1C168.15,-25.98 177.22,-24.86 185.99,-23.77"/>
<polygon fill="midnightblue" stroke="midnightblue" points="158.52,-23.65 149.03,-28.36 159.38,-30.6 158.52,-23.65"/>
</g>
<!-- Node3 -->
<g id="node3" class="node">
<title>Node3</title>
<g id="a_node3"><a xlink:href="classmlir_1_1transform_1_1TransformDialectExtension.html" target="_top" xlink:title="Base class for extensions of the Transform dialect that supports injecting operations into the Transf...">
<polygon fill="none" stroke="black" points="719,-17 719,-58 881,-58 881,-17 719,-17"/>
<text text-anchor="start" x="727" y="-46" font-family="Helvetica,sans-Serif" font-size="10.00">mlir::transform::Transform</text>
<text text-anchor="start" x="727" y="-35" font-family="Helvetica,sans-Serif" font-size="10.00">DialectExtension&lt; DerivedTy,</text>
<text text-anchor="middle" x="800" y="-24" font-family="Helvetica,sans-Serif" font-size="10.00"> ExtraDialects &gt;</text>
</a>
</g>
</g>
<!-- Node2&#45;&gt;Node3 -->
<g id="edge2" class="edge">
<title>Node2&#45;&gt;Node3</title>
<path fill="none" stroke="midnightblue" d="M692.1,-37.5C701.01,-37.5 710,-37.5 718.77,-37.5"/>
<polygon fill="midnightblue" stroke="midnightblue" points="692.08,-34 682.08,-37.5 692.08,-41 692.08,-34"/>
</g>
<!-- Node4&#45;&gt;Node2 -->
<g id="edge4" class="edge">
<title>Node4&#45;&gt;Node2</title>
<path fill="none" stroke="orange" stroke-dasharray="5,2" d="M331.38,-16.03C378.65,-16.86 440.42,-18.84 495,-23.5 500.85,-24 506.88,-24.6 512.94,-25.27"/>
<polygon fill="orange" stroke="orange" points="331.27,-12.53 321.22,-15.86 331.16,-19.52 331.27,-12.53"/>
<text text-anchor="start" x="339" y="-37.5" font-family="Helvetica,sans-Serif" font-size="10.00"> &lt; DerivedTy, TransformDialect,</text>
<text text-anchor="middle" x="417" y="-26.5" font-family="Helvetica,sans-Serif" font-size="10.00"> ExtraDialects... &gt;</text>
</g>
</g>
</svg>
