<?xml version="1.0" encoding="UTF-8" standalone="no"?>
<!DOCTYPE svg PUBLIC "-//W3C//DTD SVG 1.1//EN"
 "http://www.w3.org/Graphics/SVG/1.1/DTD/svg11.dtd">
<!-- Generated by graphviz version 2.43.0 (0)
 -->
<!-- Title: mlir::detail::StorageUserBase&lt; ConcreteT, BaseT, StorageT, UniquerT, Traits &gt; Pages: 1 -->
<svg width="886pt" height="1600pt"
 viewBox="0.00 0.00 886.00 1600.45" xmlns="http://www.w3.org/2000/svg" xmlns:xlink="http://www.w3.org/1999/xlink">
<g id="graph0" class="graph" transform="scale(1 1) rotate(0) translate(4 1596.45)">
<title>mlir::detail::StorageUserBase&lt; ConcreteT, BaseT, StorageT, UniquerT, Traits &gt;</title>
<!-- Node1 -->
<g id="node1" class="node">
<title>Node1</title>
<g id="a_node1"><a xlink:title="Utility class for implementing users of storage classes uniqued by a StorageUniquer.">
<polygon fill="#bfbfbf" stroke="black" points="152,-773.45 152,-814.45 309,-814.45 309,-773.45 152,-773.45"/>
<text text-anchor="start" x="160" y="-802.45" font-family="Helvetica,sans-Serif" font-size="10.00">mlir::detail::StorageUser</text>
<text text-anchor="start" x="160" y="-791.45" font-family="Helvetica,sans-Serif" font-size="10.00">Base&lt; ConcreteT, BaseT,</text>
<text text-anchor="middle" x="230.5" y="-780.45" font-family="Helvetica,sans-Serif" font-size="10.00"> StorageT, UniquerT, Traits &gt;</text>
</a>
</g>
</g>
<!-- Node4 -->
<g id="node4" class="node">
<title>Node4</title>
<g id="a_node4"><a xlink:href="classmlir_1_1DynamicAttr.html" target="_top" xlink:title="A dynamic attribute instance.">
<polygon fill="none" stroke="black" points="542.5,-1539.95 542.5,-1591.95 712.5,-1591.95 712.5,-1539.95 542.5,-1539.95"/>
<text text-anchor="start" x="550.5" y="-1579.95" font-family="Helvetica,sans-Serif" font-size="10.00">mlir::DynamicAttr&lt;</text>
<text text-anchor="start" x="550.5" y="-1568.95" font-family="Helvetica,sans-Serif" font-size="10.00"> DynamicAttr, Attribute,</text>
<text text-anchor="start" x="550.5" y="-1557.95" font-family="Helvetica,sans-Serif" font-size="10.00"> detail::DynamicAttrStorage,</text>
<text text-anchor="middle" x="627.5" y="-1546.95" font-family="Helvetica,sans-Serif" font-size="10.00"> AttributeTrait::IsDynamicAttr &gt;</text>
</a>
</g>
</g>
<!-- Node1&#45;&gt;Node4 -->
<g id="edge3" class="edge">
<title>Node1&#45;&gt;Node4</title>
<path fill="none" stroke="midnightblue" d="M232.47,-824.76C236.6,-938.58 255.9,-1333.94 327,-1433.95 376.88,-1504.12 472.61,-1537.46 542.46,-1553"/>
<polygon fill="midnightblue" stroke="midnightblue" points="235.97,-824.52 232.12,-814.64 228.97,-824.76 235.97,-824.52"/>
</g>
<!-- Node5 -->
<g id="node5" class="node">
<title>Node5</title>
<g id="a_node5"><a xlink:href="classmlir_1_1DynamicType.html" target="_top" xlink:title="A dynamic type instance.">
<polygon fill="none" stroke="black" points="547.5,-1468.95 547.5,-1520.95 707.5,-1520.95 707.5,-1468.95 547.5,-1468.95"/>
<text text-anchor="start" x="555.5" y="-1508.95" font-family="Helvetica,sans-Serif" font-size="10.00">mlir::DynamicType&lt;</text>
<text text-anchor="start" x="555.5" y="-1497.95" font-family="Helvetica,sans-Serif" font-size="10.00"> DynamicType, Type,</text>
<text text-anchor="start" x="555.5" y="-1486.95" font-family="Helvetica,sans-Serif" font-size="10.00"> detail::DynamicTypeStorage,</text>
<text text-anchor="middle" x="627.5" y="-1475.95" font-family="Helvetica,sans-Serif" font-size="10.00"> TypeTrait::IsDynamicType &gt;</text>
</a>
</g>
</g>
<!-- Node1&#45;&gt;Node5 -->
<g id="edge4" class="edge">
<title>Node1&#45;&gt;Node5</title>
<path fill="none" stroke="midnightblue" d="M232.95,-824.79C238.51,-931.2 261.52,-1281.25 327,-1368.95 379.14,-1438.79 477.43,-1470.22 547.18,-1484.17"/>
<polygon fill="midnightblue" stroke="midnightblue" points="236.44,-824.52 232.44,-814.71 229.45,-824.87 236.44,-824.52"/>
</g>
<!-- Node6 -->
<g id="node6" class="node">
<title>Node6</title>
<g id="a_node6"><a xlink:href="classmlir_1_1gpu_1_1AsyncTokenType.html" target="_top" xlink:title=" ">
<polygon fill="none" stroke="black" points="554.5,-1408.45 554.5,-1449.45 700.5,-1449.45 700.5,-1408.45 554.5,-1408.45"/>
<text text-anchor="start" x="562.5" y="-1437.45" font-family="Helvetica,sans-Serif" font-size="10.00">mlir::gpu::AsyncTokenType</text>
<text text-anchor="start" x="562.5" y="-1426.45" font-family="Helvetica,sans-Serif" font-size="10.00">&lt; AsyncTokenType, Type,</text>
<text text-anchor="middle" x="627.5" y="-1415.45" font-family="Helvetica,sans-Serif" font-size="10.00"> TypeStorage &gt;</text>
</a>
</g>
</g>
<!-- Node1&#45;&gt;Node6 -->
<g id="edge5" class="edge">
<title>Node1&#45;&gt;Node6</title>
<path fill="none" stroke="midnightblue" d="M233.72,-824.82C241.34,-923.25 269.19,-1227.75 327,-1304.95 380.89,-1376.92 484.15,-1407.35 554.18,-1420.07"/>
<polygon fill="midnightblue" stroke="midnightblue" points="237.2,-824.35 232.95,-814.64 230.22,-824.88 237.2,-824.35"/>
</g>
<!-- Node7 -->
<g id="node7" class="node">
<title>Node7</title>
<g id="a_node7"><a xlink:href="classmlir_1_1gpu_1_1MMAMatrixType.html" target="_top" xlink:title="MMAMatrix represents a matrix held by a subgroup for matrix&#45;matrix multiply accumulate operations.">
<polygon fill="none" stroke="black" points="554,-1348.45 554,-1389.45 701,-1389.45 701,-1348.45 554,-1348.45"/>
<text text-anchor="start" x="562" y="-1377.45" font-family="Helvetica,sans-Serif" font-size="10.00">mlir::gpu::MMAMatrixType</text>
<text text-anchor="start" x="562" y="-1366.45" font-family="Helvetica,sans-Serif" font-size="10.00">&lt; MMAMatrixType, Type,</text>
<text text-anchor="middle" x="627.5" y="-1355.45" font-family="Helvetica,sans-Serif" font-size="10.00"> MMAMatrixStorageType &gt;</text>
</a>
</g>
</g>
<!-- Node1&#45;&gt;Node7 -->
<g id="edge6" class="edge">
<title>Node1&#45;&gt;Node7</title>
<path fill="none" stroke="midnightblue" d="M234.7,-824.66C244.56,-914.28 276.84,-1173.3 327,-1239.95 381.22,-1311.99 483.88,-1344.32 553.73,-1358.47"/>
<polygon fill="midnightblue" stroke="midnightblue" points="238.17,-824.16 233.61,-814.6 231.21,-824.92 238.17,-824.16"/>
</g>
<!-- Node8 -->
<g id="node8" class="node">
<title>Node8</title>
<g id="a_node8"><a xlink:href="classmlir_1_1gpu_1_1SparseDnTensorHandleType.html" target="_top" xlink:title=" ">
<polygon fill="none" stroke="black" points="529,-1288.45 529,-1329.45 726,-1329.45 726,-1288.45 529,-1288.45"/>
<text text-anchor="start" x="537" y="-1317.45" font-family="Helvetica,sans-Serif" font-size="10.00">mlir::gpu::SparseDnTensor</text>
<text text-anchor="start" x="537" y="-1306.45" font-family="Helvetica,sans-Serif" font-size="10.00">HandleType&lt; SparseDnTensorHandle</text>
<text text-anchor="middle" x="627.5" y="-1295.45" font-family="Helvetica,sans-Serif" font-size="10.00">Type, Type, TypeStorage &gt;</text>
</a>
</g>
</g>
<!-- Node1&#45;&gt;Node8 -->
<g id="edge7" class="edge">
<title>Node1&#45;&gt;Node8</title>
<path fill="none" stroke="midnightblue" d="M231.32,-824.81C232.47,-894.5 244.11,-1066.4 327,-1174.95 375.74,-1238.79 461.65,-1272.96 528.99,-1290.77"/>
<polygon fill="midnightblue" stroke="midnightblue" points="234.82,-824.49 231.22,-814.53 227.82,-824.56 234.82,-824.49"/>
</g>
<!-- Node9 -->
<g id="node9" class="node">
<title>Node9</title>
<g id="a_node9"><a xlink:href="classmlir_1_1gpu_1_1SparseSpGEMMOpHandleType.html" target="_top" xlink:title=" ">
<polygon fill="none" stroke="black" points="523,-1228.45 523,-1269.45 732,-1269.45 732,-1228.45 523,-1228.45"/>
<text text-anchor="start" x="531" y="-1257.45" font-family="Helvetica,sans-Serif" font-size="10.00">mlir::gpu::SparseSpGEMMOp</text>
<text text-anchor="start" x="531" y="-1246.45" font-family="Helvetica,sans-Serif" font-size="10.00">HandleType&lt; SparseSpGEMMOpHandle</text>
<text text-anchor="middle" x="627.5" y="-1235.45" font-family="Helvetica,sans-Serif" font-size="10.00">Type, Type, TypeStorage &gt;</text>
</a>
</g>
</g>
<!-- Node1&#45;&gt;Node9 -->
<g id="edge8" class="edge">
<title>Node1&#45;&gt;Node9</title>
<path fill="none" stroke="midnightblue" d="M233.54,-824.76C238.98,-885.31 258.53,-1021.52 327,-1108.95 377.07,-1172.89 463.3,-1208.92 530.4,-1228.36"/>
<polygon fill="midnightblue" stroke="midnightblue" points="237.02,-824.38 232.7,-814.7 230.04,-824.96 237.02,-824.38"/>
</g>
<!-- Node10 -->
<g id="node10" class="node">
<title>Node10</title>
<g id="a_node10"><a xlink:href="classmlir_1_1gpu_1_1SparseSpMatHandleType.html" target="_top" xlink:title=" ">
<polygon fill="none" stroke="black" points="540.5,-1168.45 540.5,-1209.45 714.5,-1209.45 714.5,-1168.45 540.5,-1168.45"/>
<text text-anchor="start" x="548.5" y="-1197.45" font-family="Helvetica,sans-Serif" font-size="10.00">mlir::gpu::SparseSpMatHandle</text>
<text text-anchor="start" x="548.5" y="-1186.45" font-family="Helvetica,sans-Serif" font-size="10.00">Type&lt; SparseSpMatHandleType,</text>
<text text-anchor="middle" x="627.5" y="-1175.45" font-family="Helvetica,sans-Serif" font-size="10.00"> Type, TypeStorage &gt;</text>
</a>
</g>
</g>
<!-- Node1&#45;&gt;Node10 -->
<g id="edge9" class="edge">
<title>Node1&#45;&gt;Node10</title>
<path fill="none" stroke="midnightblue" d="M236.9,-824.59C247.02,-874.61 272.9,-974.86 327,-1040.95 388.77,-1116.42 422.64,-1119.9 512,-1158.95 521.04,-1162.9 530.71,-1166.43 540.47,-1169.54"/>
<polygon fill="midnightblue" stroke="midnightblue" points="240.32,-823.85 234.98,-814.71 233.45,-825.19 240.32,-823.85"/>
</g>
<!-- Node11 -->
<g id="node11" class="node">
<title>Node11</title>
<g id="a_node11"><a xlink:href="classmlir_1_1quant_1_1AnyQuantizedType.html" target="_top" xlink:title="A quantized type that maps storage to/from expressed types in an unspecified way.">
<polygon fill="none" stroke="black" points="549.5,-1096.95 549.5,-1148.95 705.5,-1148.95 705.5,-1096.95 549.5,-1096.95"/>
<text text-anchor="start" x="557.5" y="-1136.95" font-family="Helvetica,sans-Serif" font-size="10.00">mlir::quant::AnyQuantized</text>
<text text-anchor="start" x="557.5" y="-1125.95" font-family="Helvetica,sans-Serif" font-size="10.00">Type&lt; AnyQuantizedType,</text>
<text text-anchor="start" x="557.5" y="-1114.95" font-family="Helvetica,sans-Serif" font-size="10.00"> QuantizedType, detail::</text>
<text text-anchor="middle" x="627.5" y="-1103.95" font-family="Helvetica,sans-Serif" font-size="10.00">AnyQuantizedTypeStorage &gt;</text>
</a>
</g>
</g>
<!-- Node1&#45;&gt;Node11 -->
<g id="edge10" class="edge">
<title>Node1&#45;&gt;Node11</title>
<path fill="none" stroke="midnightblue" d="M241.78,-824.04C256.08,-862.42 285.02,-929.18 327,-973.95 387.67,-1038.67 482.57,-1079.2 549.25,-1101.37"/>
<polygon fill="midnightblue" stroke="midnightblue" points="245.01,-822.67 238.3,-814.46 238.43,-825.06 245.01,-822.67"/>
</g>
<!-- Node12 -->
<g id="node12" class="node">
<title>Node12</title>
<g id="a_node12"><a xlink:href="classmlir_1_1quant_1_1CalibratedQuantizedType.html" target="_top" xlink:title="A quantized type that infers its range from given min/max values.">
<polygon fill="none" stroke="black" points="512,-1025.95 512,-1077.95 743,-1077.95 743,-1025.95 512,-1025.95"/>
<text text-anchor="start" x="520" y="-1065.95" font-family="Helvetica,sans-Serif" font-size="10.00">mlir::quant::CalibratedQuantized</text>
<text text-anchor="start" x="520" y="-1054.95" font-family="Helvetica,sans-Serif" font-size="10.00">Type&lt; CalibratedQuantizedType,</text>
<text text-anchor="start" x="520" y="-1043.95" font-family="Helvetica,sans-Serif" font-size="10.00"> QuantizedType, detail::CalibratedQuantized</text>
<text text-anchor="middle" x="627.5" y="-1032.95" font-family="Helvetica,sans-Serif" font-size="10.00">TypeStorage &gt;</text>
</a>
</g>
</g>
<!-- Node1&#45;&gt;Node12 -->
<g id="edge11" class="edge">
<title>Node1&#45;&gt;Node12</title>
<path fill="none" stroke="midnightblue" d="M250.52,-823.24C268.15,-848.84 296.25,-885.88 327,-911.95 399.11,-973.1 425.16,-979.58 512,-1016.95 519.35,-1020.12 527.08,-1023.12 534.91,-1025.94"/>
<polygon fill="midnightblue" stroke="midnightblue" points="253.23,-821.01 244.73,-814.7 247.44,-824.94 253.23,-821.01"/>
</g>
<!-- Node13 -->
<g id="node13" class="node">
<title>Node13</title>
<g id="a_node13"><a xlink:href="classmlir_1_1quant_1_1UniformQuantizedPerAxisType.html" target="_top" xlink:title="Represents per&#45;axis (also known as per&#45;channel quantization).">
<polygon fill="none" stroke="black" points="517.5,-954.95 517.5,-1006.95 737.5,-1006.95 737.5,-954.95 517.5,-954.95"/>
<text text-anchor="start" x="525.5" y="-994.95" font-family="Helvetica,sans-Serif" font-size="10.00">mlir::quant::UniformQuantized</text>
<text text-anchor="start" x="525.5" y="-983.95" font-family="Helvetica,sans-Serif" font-size="10.00">PerAxisType&lt; UniformQuantizedPer</text>
<text text-anchor="start" x="525.5" y="-972.95" font-family="Helvetica,sans-Serif" font-size="10.00">AxisType, QuantizedType, detail</text>
<text text-anchor="middle" x="627.5" y="-961.95" font-family="Helvetica,sans-Serif" font-size="10.00">::UniformQuantizedPerAxisTypeStorage &gt;</text>
</a>
</g>
</g>
<!-- Node1&#45;&gt;Node13 -->
<g id="edge12" class="edge">
<title>Node1&#45;&gt;Node13</title>
<path fill="none" stroke="midnightblue" d="M267.4,-820.42C284.94,-832.83 306.62,-847.38 327,-858.95 405.85,-903.72 427.46,-912.17 512,-944.95 520.84,-948.38 530.15,-951.73 539.5,-954.91"/>
<polygon fill="midnightblue" stroke="midnightblue" points="269.32,-817.49 259.14,-814.53 265.25,-823.19 269.32,-817.49"/>
</g>
<!-- Node14 -->
<g id="node14" class="node">
<title>Node14</title>
<g id="a_node14"><a xlink:href="classmlir_1_1quant_1_1UniformQuantizedSubChannelType.html" target="_top" xlink:title="Represents sub&#45;channel (also known as blockwise quantization).">
<polygon fill="none" stroke="black" points="516,-872.45 516,-935.45 739,-935.45 739,-872.45 516,-872.45"/>
<text text-anchor="start" x="524" y="-923.45" font-family="Helvetica,sans-Serif" font-size="10.00">mlir::quant::UniformQuantized</text>
<text text-anchor="start" x="524" y="-912.45" font-family="Helvetica,sans-Serif" font-size="10.00">SubChannelType&lt; UniformQuantized</text>
<text text-anchor="start" x="524" y="-901.45" font-family="Helvetica,sans-Serif" font-size="10.00">SubChannelType, QuantizedType,</text>
<text text-anchor="start" x="524" y="-890.45" font-family="Helvetica,sans-Serif" font-size="10.00"> detail::UniformQuantizedSubChannelType</text>
<text text-anchor="middle" x="627.5" y="-879.45" font-family="Helvetica,sans-Serif" font-size="10.00">Storage &gt;</text>
</a>
</g>
</g>
<!-- Node1&#45;&gt;Node14 -->
<g id="edge13" class="edge">
<title>Node1&#45;&gt;Node14</title>
<path fill="none" stroke="midnightblue" d="M308.19,-817.47C314.55,-819.35 320.88,-821.2 327,-822.95 389.26,-840.82 459.11,-859.77 515.69,-874.85"/>
<polygon fill="midnightblue" stroke="midnightblue" points="308.79,-813.99 298.21,-814.5 306.8,-820.7 308.79,-813.99"/>
</g>
<!-- Node15 -->
<g id="node15" class="node">
<title>Node15</title>
<g id="a_node15"><a xlink:href="classmlir_1_1quant_1_1UniformQuantizedType.html" target="_top" xlink:title="Represents a family of uniform, quantized types.">
<polygon fill="none" stroke="black" points="517,-800.95 517,-852.95 738,-852.95 738,-800.95 517,-800.95"/>
<text text-anchor="start" x="525" y="-840.95" font-family="Helvetica,sans-Serif" font-size="10.00">mlir::quant::UniformQuantized</text>
<text text-anchor="start" x="525" y="-829.95" font-family="Helvetica,sans-Serif" font-size="10.00">Type&lt; UniformQuantizedType,</text>
<text text-anchor="start" x="525" y="-818.95" font-family="Helvetica,sans-Serif" font-size="10.00"> QuantizedType, detail::UniformQuantized</text>
<text text-anchor="middle" x="627.5" y="-807.95" font-family="Helvetica,sans-Serif" font-size="10.00">TypeStorage &gt;</text>
</a>
</g>
</g>
<!-- Node1&#45;&gt;Node15 -->
<g id="edge14" class="edge">
<title>Node1&#45;&gt;Node15</title>
<path fill="none" stroke="midnightblue" d="M319.36,-801.29C377.68,-806.16 454.67,-812.6 516.97,-817.8"/>
<polygon fill="midnightblue" stroke="midnightblue" points="319.32,-797.78 309.07,-800.43 318.74,-804.75 319.32,-797.78"/>
</g>
<!-- Node16 -->
<g id="node16" class="node">
<title>Node16</title>
<g id="a_node16"><a xlink:href="classmlir_1_1spirv_1_1ArrayType.html" target="_top" xlink:title=" ">
<polygon fill="none" stroke="black" points="547,-740.45 547,-781.45 708,-781.45 708,-740.45 547,-740.45"/>
<text text-anchor="start" x="555" y="-769.45" font-family="Helvetica,sans-Serif" font-size="10.00">mlir::spirv::ArrayType</text>
<text text-anchor="start" x="555" y="-758.45" font-family="Helvetica,sans-Serif" font-size="10.00">&lt; ArrayType, CompositeType,</text>
<text text-anchor="middle" x="627.5" y="-747.45" font-family="Helvetica,sans-Serif" font-size="10.00"> detail::ArrayTypeStorage &gt;</text>
</a>
</g>
</g>
<!-- Node1&#45;&gt;Node16 -->
<g id="edge15" class="edge">
<title>Node1&#45;&gt;Node16</title>
<path fill="none" stroke="midnightblue" d="M319.34,-786.61C387.37,-780.93 480.83,-773.12 546.74,-767.62"/>
<polygon fill="midnightblue" stroke="midnightblue" points="318.74,-783.15 309.07,-787.47 319.32,-790.13 318.74,-783.15"/>
</g>
<!-- Node17 -->
<g id="node17" class="node">
<title>Node17</title>
<g id="a_node17"><a xlink:href="classmlir_1_1spirv_1_1CooperativeMatrixType.html" target="_top" xlink:title=" ">
<polygon fill="none" stroke="black" points="539.5,-658.45 539.5,-721.45 715.5,-721.45 715.5,-658.45 539.5,-658.45"/>
<text text-anchor="start" x="547.5" y="-709.45" font-family="Helvetica,sans-Serif" font-size="10.00">mlir::spirv::Cooperative</text>
<text text-anchor="start" x="547.5" y="-698.45" font-family="Helvetica,sans-Serif" font-size="10.00">MatrixType&lt; CooperativeMatrix</text>
<text text-anchor="start" x="547.5" y="-687.45" font-family="Helvetica,sans-Serif" font-size="10.00">Type, CompositeType, detail</text>
<text text-anchor="start" x="547.5" y="-676.45" font-family="Helvetica,sans-Serif" font-size="10.00">::CooperativeMatrixTypeStorage,</text>
<text text-anchor="middle" x="627.5" y="-665.45" font-family="Helvetica,sans-Serif" font-size="10.00"> ShapedType::Trait &gt;</text>
</a>
</g>
</g>
<!-- Node1&#45;&gt;Node17 -->
<g id="edge16" class="edge">
<title>Node1&#45;&gt;Node17</title>
<path fill="none" stroke="midnightblue" d="M318.98,-770.92C384.59,-753.65 473.99,-730.11 539.49,-712.86"/>
<polygon fill="midnightblue" stroke="midnightblue" points="317.85,-767.6 309.07,-773.53 319.63,-774.37 317.85,-767.6"/>
</g>
<!-- Node18 -->
<g id="node18" class="node">
<title>Node18</title>
<g id="a_node18"><a xlink:href="classmlir_1_1spirv_1_1ImageType.html" target="_top" xlink:title=" ">
<polygon fill="none" stroke="black" points="550,-598.45 550,-639.45 705,-639.45 705,-598.45 550,-598.45"/>
<text text-anchor="start" x="558" y="-627.45" font-family="Helvetica,sans-Serif" font-size="10.00">mlir::spirv::ImageType</text>
<text text-anchor="start" x="558" y="-616.45" font-family="Helvetica,sans-Serif" font-size="10.00">&lt; ImageType, SPIRVType,</text>
<text text-anchor="middle" x="627.5" y="-605.45" font-family="Helvetica,sans-Serif" font-size="10.00"> detail::ImageTypeStorage &gt;</text>
</a>
</g>
</g>
<!-- Node1&#45;&gt;Node18 -->
<g id="edge17" class="edge">
<title>Node1&#45;&gt;Node18</title>
<path fill="none" stroke="midnightblue" d="M263.28,-767.06C281.21,-752.75 304.48,-735.54 327,-722.95 398.22,-683.12 487.39,-654.55 549.84,-637.55"/>
<polygon fill="midnightblue" stroke="midnightblue" points="261,-764.4 255.43,-773.41 265.41,-769.84 261,-764.4"/>
</g>
<!-- Node19 -->
<g id="node19" class="node">
<title>Node19</title>
<g id="a_node19"><a xlink:href="classmlir_1_1spirv_1_1InterfaceVarABIAttr.html" target="_top" xlink:title="An attribute that specifies the information regarding the interface variable: descriptor set,...">
<polygon fill="none" stroke="black" points="517,-526.95 517,-578.95 738,-578.95 738,-526.95 517,-526.95"/>
<text text-anchor="start" x="525" y="-566.95" font-family="Helvetica,sans-Serif" font-size="10.00">mlir::spirv::InterfaceVar</text>
<text text-anchor="start" x="525" y="-555.95" font-family="Helvetica,sans-Serif" font-size="10.00">ABIAttr&lt; InterfaceVarABIAttr,</text>
<text text-anchor="start" x="525" y="-544.95" font-family="Helvetica,sans-Serif" font-size="10.00"> Attribute, detail::InterfaceVarABIAttribute</text>
<text text-anchor="middle" x="627.5" y="-533.95" font-family="Helvetica,sans-Serif" font-size="10.00">Storage &gt;</text>
</a>
</g>
</g>
<!-- Node1&#45;&gt;Node19 -->
<g id="edge18" class="edge">
<title>Node1&#45;&gt;Node19</title>
<path fill="none" stroke="midnightblue" d="M244.31,-763.89C259.53,-731.59 287.88,-680.86 327,-650.95 382.09,-608.84 456.05,-584.4 516.69,-570.46"/>
<polygon fill="midnightblue" stroke="midnightblue" points="240.99,-762.74 240.01,-773.29 247.35,-765.65 240.99,-762.74"/>
</g>
<!-- Node20 -->
<g id="node20" class="node">
<title>Node20</title>
<g id="a_node20"><a xlink:href="classmlir_1_1spirv_1_1MatrixType.html" target="_top" xlink:title=" ">
<polygon fill="none" stroke="black" points="544.5,-466.45 544.5,-507.45 710.5,-507.45 710.5,-466.45 544.5,-466.45"/>
<text text-anchor="start" x="552.5" y="-495.45" font-family="Helvetica,sans-Serif" font-size="10.00">mlir::spirv::MatrixType</text>
<text text-anchor="start" x="552.5" y="-484.45" font-family="Helvetica,sans-Serif" font-size="10.00">&lt; MatrixType, CompositeType,</text>
<text text-anchor="middle" x="627.5" y="-473.45" font-family="Helvetica,sans-Serif" font-size="10.00"> detail::MatrixTypeStorage &gt;</text>
</a>
</g>
</g>
<!-- Node1&#45;&gt;Node20 -->
<g id="edge19" class="edge">
<title>Node1&#45;&gt;Node20</title>
<path fill="none" stroke="midnightblue" d="M236.42,-763.36C245.66,-715.96 270.03,-624.94 327,-573.95 387.01,-520.24 478.4,-499.57 544.45,-491.68"/>
<polygon fill="midnightblue" stroke="midnightblue" points="232.96,-762.86 234.58,-773.33 239.84,-764.13 232.96,-762.86"/>
</g>
<!-- Node21 -->
<g id="node21" class="node">
<title>Node21</title>
<g id="a_node21"><a xlink:href="classmlir_1_1spirv_1_1PointerType.html" target="_top" xlink:title=" ">
<polygon fill="none" stroke="black" points="548,-406.45 548,-447.45 707,-447.45 707,-406.45 548,-406.45"/>
<text text-anchor="start" x="556" y="-435.45" font-family="Helvetica,sans-Serif" font-size="10.00">mlir::spirv::PointerType</text>
<text text-anchor="start" x="556" y="-424.45" font-family="Helvetica,sans-Serif" font-size="10.00">&lt; PointerType, SPIRVType,</text>
<text text-anchor="middle" x="627.5" y="-413.45" font-family="Helvetica,sans-Serif" font-size="10.00"> detail::PointerTypeStorage &gt;</text>
</a>
</g>
</g>
<!-- Node1&#45;&gt;Node21 -->
<g id="edge20" class="edge">
<title>Node1&#45;&gt;Node21</title>
<path fill="none" stroke="midnightblue" d="M231.96,-763.41C234.61,-703.12 249.41,-568.46 327,-496.95 386.68,-441.95 481.08,-427.58 547.92,-424.99"/>
<polygon fill="midnightblue" stroke="midnightblue" points="228.46,-763.32 231.61,-773.44 235.46,-763.57 228.46,-763.32"/>
</g>
<!-- Node22 -->
<g id="node22" class="node">
<title>Node22</title>
<g id="a_node22"><a xlink:href="classmlir_1_1spirv_1_1RuntimeArrayType.html" target="_top" xlink:title=" ">
<polygon fill="none" stroke="black" points="538.5,-334.95 538.5,-386.95 716.5,-386.95 716.5,-334.95 538.5,-334.95"/>
<text text-anchor="start" x="546.5" y="-374.95" font-family="Helvetica,sans-Serif" font-size="10.00">mlir::spirv::RuntimeArray</text>
<text text-anchor="start" x="546.5" y="-363.95" font-family="Helvetica,sans-Serif" font-size="10.00">Type&lt; RuntimeArrayType,</text>
<text text-anchor="start" x="546.5" y="-352.95" font-family="Helvetica,sans-Serif" font-size="10.00"> SPIRVType, detail::RuntimeArray</text>
<text text-anchor="middle" x="627.5" y="-341.95" font-family="Helvetica,sans-Serif" font-size="10.00">TypeStorage &gt;</text>
</a>
</g>
</g>
<!-- Node1&#45;&gt;Node22 -->
<g id="edge21" class="edge">
<title>Node1&#45;&gt;Node22</title>
<path fill="none" stroke="midnightblue" d="M235.35,-763.06C245.92,-683.24 277.9,-473.12 327,-425.95 382.83,-372.32 471.95,-358.66 538.48,-356.85"/>
<polygon fill="midnightblue" stroke="midnightblue" points="231.82,-763.06 234,-773.42 238.76,-763.96 231.82,-763.06"/>
</g>
<!-- Node23 -->
<g id="node23" class="node">
<title>Node23</title>
<g id="a_node23"><a xlink:href="classmlir_1_1spirv_1_1SampledImageType.html" target="_top" xlink:title=" ">
<polygon fill="none" stroke="black" points="535.5,-263.95 535.5,-315.95 719.5,-315.95 719.5,-263.95 535.5,-263.95"/>
<text text-anchor="start" x="543.5" y="-303.95" font-family="Helvetica,sans-Serif" font-size="10.00">mlir::spirv::SampledImage</text>
<text text-anchor="start" x="543.5" y="-292.95" font-family="Helvetica,sans-Serif" font-size="10.00">Type&lt; SampledImageType,</text>
<text text-anchor="start" x="543.5" y="-281.95" font-family="Helvetica,sans-Serif" font-size="10.00"> SPIRVType, detail::SampledImage</text>
<text text-anchor="middle" x="627.5" y="-270.95" font-family="Helvetica,sans-Serif" font-size="10.00">TypeStorage &gt;</text>
</a>
</g>
</g>
<!-- Node1&#45;&gt;Node23 -->
<g id="edge22" class="edge">
<title>Node1&#45;&gt;Node23</title>
<path fill="none" stroke="midnightblue" d="M233.99,-763.17C241.89,-673.47 269.3,-414.94 327,-356.95 381.03,-302.66 468.81,-288.21 535.41,-285.99"/>
<polygon fill="midnightblue" stroke="midnightblue" points="230.5,-762.99 233.13,-773.25 237.47,-763.59 230.5,-762.99"/>
</g>
<!-- Node24 -->
<g id="node24" class="node">
<title>Node24</title>
<g id="a_node24"><a xlink:href="classmlir_1_1spirv_1_1StructType.html" target="_top" xlink:title="SPIR&#45;V struct type.">
<polygon fill="none" stroke="black" points="546,-192.95 546,-244.95 709,-244.95 709,-192.95 546,-192.95"/>
<text text-anchor="start" x="554" y="-232.95" font-family="Helvetica,sans-Serif" font-size="10.00">mlir::spirv::StructType</text>
<text text-anchor="start" x="554" y="-221.95" font-family="Helvetica,sans-Serif" font-size="10.00">&lt; StructType, CompositeType,</text>
<text text-anchor="start" x="554" y="-210.95" font-family="Helvetica,sans-Serif" font-size="10.00"> detail::StructTypeStorage,</text>
<text text-anchor="middle" x="627.5" y="-199.95" font-family="Helvetica,sans-Serif" font-size="10.00"> TypeTrait::IsMutable &gt;</text>
</a>
</g>
</g>
<!-- Node1&#45;&gt;Node24 -->
<g id="edge23" class="edge">
<title>Node1&#45;&gt;Node24</title>
<path fill="none" stroke="midnightblue" d="M232.98,-762.96C238.38,-663.53 260.28,-355 327,-285.95 383.19,-227.81 478,-215.05 545.9,-214.31"/>
<polygon fill="midnightblue" stroke="midnightblue" points="229.47,-763.07 232.44,-773.24 236.46,-763.44 229.47,-763.07"/>
</g>
<!-- Node25 -->
<g id="node25" class="node">
<title>Node25</title>
<g id="a_node25"><a xlink:href="classmlir_1_1spirv_1_1TargetEnvAttr.html" target="_top" xlink:title="An attribute that specifies the target version, allowed extensions and capabilities,...">
<polygon fill="none" stroke="black" points="531,-132.45 531,-173.45 724,-173.45 724,-132.45 531,-132.45"/>
<text text-anchor="start" x="539" y="-161.45" font-family="Helvetica,sans-Serif" font-size="10.00">mlir::spirv::TargetEnvAttr</text>
<text text-anchor="start" x="539" y="-150.45" font-family="Helvetica,sans-Serif" font-size="10.00">&lt; TargetEnvAttr, Attribute,</text>
<text text-anchor="middle" x="627.5" y="-139.45" font-family="Helvetica,sans-Serif" font-size="10.00"> detail::TargetEnvAttributeStorage &gt;</text>
</a>
</g>
</g>
<!-- Node1&#45;&gt;Node25 -->
<g id="edge24" class="edge">
<title>Node1&#45;&gt;Node25</title>
<path fill="none" stroke="midnightblue" d="M232.13,-762.93C235.01,-654.34 250.27,-293.64 327,-213.95 378.9,-160.06 464.48,-147.03 530.9,-146.19"/>
<polygon fill="midnightblue" stroke="midnightblue" points="228.63,-763.12 231.88,-773.2 235.63,-763.29 228.63,-763.12"/>
</g>
<!-- Node26 -->
<g id="node26" class="node">
<title>Node26</title>
<g id="a_node26"><a xlink:href="classmlir_1_1spirv_1_1VerCapExtAttr.html" target="_top" xlink:title="An attribute that specifies the SPIR&#45;V (version, capabilities, extensions) triple.">
<polygon fill="none" stroke="black" points="530,-72.45 530,-113.45 725,-113.45 725,-72.45 530,-72.45"/>
<text text-anchor="start" x="538" y="-101.45" font-family="Helvetica,sans-Serif" font-size="10.00">mlir::spirv::VerCapExtAttr</text>
<text text-anchor="start" x="538" y="-90.45" font-family="Helvetica,sans-Serif" font-size="10.00">&lt; VerCapExtAttr, Attribute,</text>
<text text-anchor="middle" x="627.5" y="-79.45" font-family="Helvetica,sans-Serif" font-size="10.00"> detail::VerCapExtAttributeStorage &gt;</text>
</a>
</g>
</g>
<!-- Node1&#45;&gt;Node26 -->
<g id="edge25" class="edge">
<title>Node1&#45;&gt;Node26</title>
<path fill="none" stroke="midnightblue" d="M231.45,-763.08C231.94,-646.4 239.89,-234.34 327,-144.95 378.66,-91.94 463.61,-81.41 529.86,-82.72"/>
<polygon fill="midnightblue" stroke="midnightblue" points="227.95,-763.42 231.43,-773.43 234.95,-763.44 227.95,-763.42"/>
</g>
<!-- Node27 -->
<g id="node27" class="node">
<title>Node27</title>
<g id="a_node27"><a xlink:href="classmlir_1_1detail_1_1StorageUserBase.html" target="_top" xlink:title=" ">
<polygon fill="none" stroke="black" points="536,-0.95 536,-52.95 719,-52.95 719,-0.95 536,-0.95"/>
<text text-anchor="start" x="544" y="-40.95" font-family="Helvetica,sans-Serif" font-size="10.00">mlir::detail::StorageUser</text>
<text text-anchor="start" x="544" y="-29.95" font-family="Helvetica,sans-Serif" font-size="10.00">Base&lt; DistinctAttr, Attribute,</text>
<text text-anchor="start" x="544" y="-18.95" font-family="Helvetica,sans-Serif" font-size="10.00"> detail::DistinctAttrStorage,</text>
<text text-anchor="middle" x="627.5" y="-7.95" font-family="Helvetica,sans-Serif" font-size="10.00"> detail::DistinctAttributeUniquer &gt;</text>
</a>
</g>
</g>
<!-- Node1&#45;&gt;Node27 -->
<g id="edge26" class="edge">
<title>Node1&#45;&gt;Node27</title>
<path fill="none" stroke="orange" stroke-dasharray="5,2" d="M233.16,-763.22C240.72,-628.79 273.82,-97.01 327,-46.95 381.55,4.39 469.27,4.38 535.71,-5.5"/>
<polygon fill="orange" stroke="orange" points="229.66,-763.07 232.6,-773.25 236.65,-763.46 229.66,-763.07"/>
<text text-anchor="start" x="327" y="-71.95" font-family="Helvetica,sans-Serif" font-size="10.00"> &lt; DistinctAttr, Attribute,</text>
<text text-anchor="start" x="327" y="-60.95" font-family="Helvetica,sans-Serif" font-size="10.00"> detail::DistinctAttrStorage,</text>
<text text-anchor="middle" x="410.5" y="-49.95" font-family="Helvetica,sans-Serif" font-size="10.00"> detail::DistinctAttributeUniquer &gt;</text>
</g>
<!-- Node2 -->
<g id="node2" class="node">
<title>Node2</title>
<g id="a_node2"><a xlink:href="classBaseT.html" target="_top" xlink:title=" ">
<polygon fill="none" stroke="black" points="34,-803.45 34,-822.45 81,-822.45 81,-803.45 34,-803.45"/>
<text text-anchor="middle" x="57.5" y="-810.45" font-family="Helvetica,sans-Serif" font-size="10.00">BaseT</text>
</a>
</g>
</g>
<!-- Node2&#45;&gt;Node1 -->
<g id="edge1" class="edge">
<title>Node2&#45;&gt;Node1</title>
<path fill="none" stroke="midnightblue" d="M91.28,-809.31C108.49,-807.4 130.39,-804.96 151.65,-802.6"/>
<polygon fill="midnightblue" stroke="midnightblue" points="90.76,-805.85 81.21,-810.43 91.53,-812.8 90.76,-805.85"/>
</g>
<!-- Node3 -->
<g id="node3" class="node">
<title>Node3</title>
<g id="a_node3"><a xlink:title=" ">
<polygon fill="none" stroke="#bfbfbf" points="0,-765.45 0,-784.45 115,-784.45 115,-765.45 0,-765.45"/>
<text text-anchor="middle" x="57.5" y="-772.45" font-family="Helvetica,sans-Serif" font-size="10.00">Traits&lt; ConcreteT &gt;</text>
</a>
</g>
</g>
<!-- Node3&#45;&gt;Node1 -->
<g id="edge2" class="edge">
<title>Node3&#45;&gt;Node1</title>
<path fill="none" stroke="midnightblue" d="M125.44,-782.39C134.09,-783.35 143,-784.34 151.8,-785.32"/>
<polygon fill="midnightblue" stroke="midnightblue" points="125.77,-778.9 115.44,-781.28 124.99,-785.86 125.77,-778.9"/>
</g>
<!-- Node28 -->
<g id="node28" class="node">
<title>Node28</title>
<g id="a_node28"><a xlink:href="classmlir_1_1DistinctAttr.html" target="_top" xlink:title="An attribute that associates a referenced attribute with a unique identifier.">
<polygon fill="none" stroke="black" points="780,-17.45 780,-36.45 878,-36.45 878,-17.45 780,-17.45"/>
<text text-anchor="middle" x="829" y="-24.45" font-family="Helvetica,sans-Serif" font-size="10.00">mlir::DistinctAttr</text>
</a>
</g>
</g>
<!-- Node27&#45;&gt;Node28 -->
<g id="edge27" class="edge">
<title>Node27&#45;&gt;Node28</title>
<path fill="none" stroke="midnightblue" d="M729.51,-26.95C747.04,-26.95 764.52,-26.95 779.78,-26.95"/>
<polygon fill="midnightblue" stroke="midnightblue" points="729.2,-23.45 719.2,-26.95 729.2,-30.45 729.2,-23.45"/>
</g>
</g>
</svg>
