<?xml version="1.0" encoding="UTF-8" standalone="no"?>
<!DOCTYPE svg PUBLIC "-//W3C//DTD SVG 1.1//EN"
 "http://www.w3.org/Graphics/SVG/1.1/DTD/svg11.dtd">
<!-- Generated by graphviz version 2.43.0 (0)
 -->
<!-- Title: AssertOpLowering Pages: 1 -->
<svg width="1304pt" height="116pt"
 viewBox="0.00 0.00 1304.00 115.50" xmlns="http://www.w3.org/2000/svg" xmlns:xlink="http://www.w3.org/1999/xlink">
<g id="graph0" class="graph" transform="scale(1 1) rotate(0) translate(4 111.5)">
<title>AssertOpLowering</title>
<!-- Node1 -->
<g id="node1" class="node">
<title>Node1</title>
<g id="a_node1"><a xlink:title=" ">
<polygon fill="#bfbfbf" stroke="black" points="1191,-33 1191,-52 1296,-52 1296,-33 1191,-33"/>
<text text-anchor="middle" x="1243.5" y="-40" font-family="Helvetica,sans-Serif" font-size="10.00">AssertOpLowering</text>
</a>
</g>
</g>
<!-- Node2 -->
<g id="node2" class="node">
<title>Node2</title>
<g id="a_node2"><a xlink:href="classmlir_1_1ConvertOpToLLVMPattern.html" target="_top" xlink:title=" ">
<polygon fill="none" stroke="black" points="990,-61.5 990,-91.5 1154,-91.5 1154,-61.5 990,-61.5"/>
<text text-anchor="start" x="998" y="-79.5" font-family="Helvetica,sans-Serif" font-size="10.00">mlir::ConvertOpToLLVMPattern</text>
<text text-anchor="middle" x="1072" y="-68.5" font-family="Helvetica,sans-Serif" font-size="10.00">&lt; cf::AssertOp &gt;</text>
</a>
</g>
</g>
<!-- Node2&#45;&gt;Node1 -->
<g id="edge1" class="edge">
<title>Node2&#45;&gt;Node1</title>
<path fill="none" stroke="midnightblue" d="M1157.98,-59.45C1170.66,-56.91 1183.32,-54.37 1194.85,-52.06"/>
<polygon fill="midnightblue" stroke="midnightblue" points="1156.95,-56.09 1147.84,-61.49 1158.33,-62.95 1156.95,-56.09"/>
</g>
<!-- Node3 -->
<g id="node3" class="node">
<title>Node3</title>
<g id="a_node3"><a xlink:href="classmlir_1_1ConvertToLLVMPattern.html" target="_top" xlink:title="Base class for operation conversions targeting the LLVM IR dialect.">
<polygon fill="none" stroke="black" points="433,-88 433,-107 584,-107 584,-88 433,-88"/>
<text text-anchor="middle" x="508.5" y="-95" font-family="Helvetica,sans-Serif" font-size="10.00">mlir::ConvertToLLVMPattern</text>
</a>
</g>
</g>
<!-- Node3&#45;&gt;Node2 -->
<g id="edge2" class="edge">
<title>Node3&#45;&gt;Node2</title>
<path fill="none" stroke="midnightblue" d="M594.31,-100.33C596.9,-100.39 599.47,-100.45 602,-100.5 766.46,-103.96 808.76,-111.78 972,-91.5 977.78,-90.78 983.74,-90 989.74,-89.17"/>
<polygon fill="midnightblue" stroke="midnightblue" points="594.3,-96.83 584.21,-100.07 594.12,-103.82 594.3,-96.83"/>
</g>
<!-- Node7 -->
<g id="node7" class="node">
<title>Node7</title>
<g id="a_node7"><a xlink:href="classmlir_1_1ConvertOpToLLVMPattern.html" target="_top" xlink:title="Utility class for operation conversions targeting the LLVM dialect that match exactly one source oper...">
<polygon fill="none" stroke="black" points="705,-61.5 705,-91.5 869,-91.5 869,-61.5 705,-61.5"/>
<text text-anchor="start" x="713" y="-79.5" font-family="Helvetica,sans-Serif" font-size="10.00">mlir::ConvertOpToLLVMPattern</text>
<text text-anchor="middle" x="787" y="-68.5" font-family="Helvetica,sans-Serif" font-size="10.00">&lt; SourceOp &gt;</text>
</a>
</g>
</g>
<!-- Node3&#45;&gt;Node7 -->
<g id="edge7" class="edge">
<title>Node3&#45;&gt;Node7</title>
<path fill="none" stroke="midnightblue" d="M594.55,-91.04C629.64,-88.38 670.13,-85.3 704.81,-82.67"/>
<polygon fill="midnightblue" stroke="midnightblue" points="594.03,-87.57 584.32,-91.82 594.56,-94.55 594.03,-87.57"/>
</g>
<!-- Node4 -->
<g id="node4" class="node">
<title>Node4</title>
<g id="a_node4"><a xlink:href="classmlir_1_1ConversionPattern.html" target="_top" xlink:title="Base class for the conversion patterns.">
<polygon fill="none" stroke="black" points="265,-50 265,-69 396,-69 396,-50 265,-50"/>
<text text-anchor="middle" x="330.5" y="-57" font-family="Helvetica,sans-Serif" font-size="10.00">mlir::ConversionPattern</text>
</a>
</g>
</g>
<!-- Node4&#45;&gt;Node3 -->
<g id="edge3" class="edge">
<title>Node4&#45;&gt;Node3</title>
<path fill="none" stroke="midnightblue" d="M385.93,-71.25C410.82,-76.63 439.92,-82.91 463.41,-87.98"/>
<polygon fill="midnightblue" stroke="midnightblue" points="386.43,-67.78 375.91,-69.09 384.95,-74.62 386.43,-67.78"/>
</g>
<!-- Node8 -->
<g id="node8" class="node">
<title>Node8</title>
<g id="a_node8"><a xlink:href="classmlir_1_1OpConversionPattern.html" target="_top" xlink:title=" ">
<polygon fill="none" stroke="black" points="714.5,-12.5 714.5,-42.5 859.5,-42.5 859.5,-12.5 714.5,-12.5"/>
<text text-anchor="start" x="722.5" y="-30.5" font-family="Helvetica,sans-Serif" font-size="10.00">mlir::OpConversionPattern</text>
<text text-anchor="middle" x="787" y="-19.5" font-family="Helvetica,sans-Serif" font-size="10.00">&lt; cf::AssertOp &gt;</text>
</a>
</g>
</g>
<!-- Node4&#45;&gt;Node8 -->
<g id="edge9" class="edge">
<title>Node4&#45;&gt;Node8</title>
<path fill="none" stroke="midnightblue" d="M406.45,-56.2C478.45,-52.76 590.26,-46.73 687,-38.5 695.87,-37.75 705.18,-36.85 714.4,-35.9"/>
<polygon fill="midnightblue" stroke="midnightblue" points="405.94,-52.72 396.12,-56.69 406.27,-59.71 405.94,-52.72"/>
</g>
<!-- Node9 -->
<g id="node9" class="node">
<title>Node9</title>
<g id="a_node9"><a xlink:href="classmlir_1_1OpConversionPattern.html" target="_top" xlink:title="OpConversionPattern is a wrapper around ConversionPattern that allows for matching and rewriting agai...">
<polygon fill="none" stroke="black" points="436,-0.5 436,-30.5 581,-30.5 581,-0.5 436,-0.5"/>
<text text-anchor="start" x="444" y="-18.5" font-family="Helvetica,sans-Serif" font-size="10.00">mlir::OpConversionPattern</text>
<text text-anchor="middle" x="508.5" y="-7.5" font-family="Helvetica,sans-Serif" font-size="10.00">&lt; SourceOp &gt;</text>
</a>
</g>
</g>
<!-- Node4&#45;&gt;Node9 -->
<g id="edge11" class="edge">
<title>Node4&#45;&gt;Node9</title>
<path fill="none" stroke="midnightblue" d="M379.6,-47.47C400.48,-42.25 425.16,-36.09 447.24,-30.57"/>
<polygon fill="midnightblue" stroke="midnightblue" points="378.54,-44.13 369.69,-49.95 380.24,-50.92 378.54,-44.13"/>
</g>
<!-- Node5 -->
<g id="node5" class="node">
<title>Node5</title>
<g id="a_node5"><a xlink:href="classmlir_1_1RewritePattern.html" target="_top" xlink:title="RewritePattern is the common base class for all DAG to DAG replacements.">
<polygon fill="none" stroke="black" points="114,-50 114,-69 228,-69 228,-50 114,-50"/>
<text text-anchor="middle" x="171" y="-57" font-family="Helvetica,sans-Serif" font-size="10.00">mlir::RewritePattern</text>
</a>
</g>
</g>
<!-- Node5&#45;&gt;Node4 -->
<g id="edge4" class="edge">
<title>Node5&#45;&gt;Node4</title>
<path fill="none" stroke="midnightblue" d="M238.54,-59.5C247.27,-59.5 256.21,-59.5 264.9,-59.5"/>
<polygon fill="midnightblue" stroke="midnightblue" points="238.42,-56 228.42,-59.5 238.42,-63 238.42,-56"/>
</g>
<!-- Node6 -->
<g id="node6" class="node">
<title>Node6</title>
<g id="a_node6"><a xlink:href="classmlir_1_1Pattern.html" target="_top" xlink:title="This class contains all of the data related to a pattern, but does not contain any methods or logic f...">
<polygon fill="none" stroke="black" points="0,-50 0,-69 77,-69 77,-50 0,-50"/>
<text text-anchor="middle" x="38.5" y="-57" font-family="Helvetica,sans-Serif" font-size="10.00">mlir::Pattern</text>
</a>
</g>
</g>
<!-- Node6&#45;&gt;Node5 -->
<g id="edge5" class="edge">
<title>Node6&#45;&gt;Node5</title>
<path fill="none" stroke="midnightblue" d="M87.47,-59.5C96.06,-59.5 105.09,-59.5 113.89,-59.5"/>
<polygon fill="midnightblue" stroke="midnightblue" points="87.25,-56 77.25,-59.5 87.25,-63 87.25,-56"/>
</g>
<!-- Node7&#45;&gt;Node2 -->
<g id="edge6" class="edge">
<title>Node7&#45;&gt;Node2</title>
<path fill="none" stroke="orange" stroke-dasharray="5,2" d="M879.47,-76.5C915.02,-76.5 955.4,-76.5 989.89,-76.5"/>
<polygon fill="orange" stroke="orange" points="879.1,-73 869.1,-76.5 879.1,-80 879.1,-73"/>
<text text-anchor="middle" x="929.5" y="-79.5" font-family="Helvetica,sans-Serif" font-size="10.00"> &lt; cf::AssertOp &gt;</text>
</g>
<!-- Node8&#45;&gt;Node1 -->
<g id="edge8" class="edge">
<title>Node8&#45;&gt;Node1</title>
<path fill="none" stroke="midnightblue" d="M869.75,-30.2C962.95,-33.27 1112.48,-38.21 1190.82,-40.79"/>
<polygon fill="midnightblue" stroke="midnightblue" points="869.63,-26.69 859.52,-29.86 869.39,-33.69 869.63,-26.69"/>
</g>
<!-- Node9&#45;&gt;Node8 -->
<g id="edge10" class="edge">
<title>Node9&#45;&gt;Node8</title>
<path fill="none" stroke="orange" stroke-dasharray="5,2" d="M591.34,-19.05C630.36,-20.75 676.62,-22.75 714.25,-24.39"/>
<polygon fill="orange" stroke="orange" points="591.21,-15.54 581.07,-18.61 590.9,-22.54 591.21,-15.54"/>
<text text-anchor="middle" x="644.5" y="-26.5" font-family="Helvetica,sans-Serif" font-size="10.00"> &lt; cf::AssertOp &gt;</text>
</g>
</g>
</svg>
