<?xml version="1.0" encoding="UTF-8" standalone="no"?>
<!DOCTYPE svg PUBLIC "-//W3C//DTD SVG 1.1//EN"
 "http://www.w3.org/Graphics/SVG/1.1/DTD/svg11.dtd">
<!-- Generated by graphviz version 2.43.0 (0)
 -->
<!-- Title: mlir::ApplyPatternAction Pages: 1 -->
<svg width="239pt" height="231pt"
 viewBox="0.00 0.00 238.50 231.00" xmlns="http://www.w3.org/2000/svg" xmlns:xlink="http://www.w3.org/1999/xlink">
<g id="graph0" class="graph" transform="scale(1 1) rotate(0) translate(4 227)">
<title>mlir::ApplyPatternAction</title>
<!-- Node1 -->
<g id="node1" class="node">
<title>Node1</title>
<g id="a_node1"><a xlink:title="This is the type of Action that is dispatched when a pattern is applied.">
<polygon fill="#bfbfbf" stroke="black" points="0,-0.5 0,-19.5 135,-19.5 135,-0.5 0,-0.5"/>
<text text-anchor="middle" x="67.5" y="-7.5" font-family="Helvetica,sans-Serif" font-size="10.00">mlir::ApplyPatternAction</text>
</a>
</g>
</g>
<!-- Node2 -->
<g id="node2" class="node">
<title>Node2</title>
<g id="a_node2"><a xlink:href="classmlir_1_1tracing_1_1ActionImpl.html" target="_top" xlink:title=" ">
<polygon fill="none" stroke="black" points="0.5,-57.5 0.5,-87.5 134.5,-87.5 134.5,-57.5 0.5,-57.5"/>
<text text-anchor="start" x="8.5" y="-75.5" font-family="Helvetica,sans-Serif" font-size="10.00">mlir::tracing::ActionImpl</text>
<text text-anchor="middle" x="67.5" y="-64.5" font-family="Helvetica,sans-Serif" font-size="10.00">&lt; ApplyPatternAction &gt;</text>
</a>
</g>
</g>
<!-- Node2&#45;&gt;Node1 -->
<g id="edge1" class="edge">
<title>Node2&#45;&gt;Node1</title>
<path fill="none" stroke="midnightblue" d="M67.5,-47.35C67.5,-37.51 67.5,-26.78 67.5,-19.54"/>
<polygon fill="midnightblue" stroke="midnightblue" points="64,-47.47 67.5,-57.47 71,-47.47 64,-47.47"/>
</g>
<!-- Node3 -->
<g id="node3" class="node">
<title>Node3</title>
<g id="a_node3"><a xlink:href="classmlir_1_1tracing_1_1Action.html" target="_top" xlink:title="An action is a specific action that is to be taken by the compiler, that can be toggled and controlle...">
<polygon fill="none" stroke="black" points="7,-203.5 7,-222.5 120,-222.5 120,-203.5 7,-203.5"/>
<text text-anchor="middle" x="63.5" y="-210.5" font-family="Helvetica,sans-Serif" font-size="10.00">mlir::tracing::Action</text>
</a>
</g>
</g>
<!-- Node3&#45;&gt;Node2 -->
<g id="edge2" class="edge">
<title>Node3&#45;&gt;Node2</title>
<path fill="none" stroke="midnightblue" d="M64.04,-193.25C64.85,-165.19 66.36,-112.88 67.09,-87.73"/>
<polygon fill="midnightblue" stroke="midnightblue" points="60.54,-193.24 63.75,-203.34 67.54,-193.44 60.54,-193.24"/>
</g>
<!-- Node4 -->
<g id="node4" class="node">
<title>Node4</title>
<g id="a_node4"><a xlink:href="classmlir_1_1tracing_1_1ActionImpl.html" target="_top" xlink:title="CRTP Implementation of an action.">
<polygon fill="none" stroke="black" points="79.5,-135.5 79.5,-165.5 213.5,-165.5 213.5,-135.5 79.5,-135.5"/>
<text text-anchor="start" x="87.5" y="-153.5" font-family="Helvetica,sans-Serif" font-size="10.00">mlir::tracing::ActionImpl</text>
<text text-anchor="middle" x="146.5" y="-142.5" font-family="Helvetica,sans-Serif" font-size="10.00">&lt; Derived &gt;</text>
</a>
</g>
</g>
<!-- Node3&#45;&gt;Node4 -->
<g id="edge4" class="edge">
<title>Node3&#45;&gt;Node4</title>
<path fill="none" stroke="midnightblue" d="M83.83,-197.18C97.07,-187.53 114.24,-175.01 127.26,-165.53"/>
<polygon fill="midnightblue" stroke="midnightblue" points="81.41,-194.61 75.39,-203.33 85.53,-200.27 81.41,-194.61"/>
</g>
<!-- Node4&#45;&gt;Node2 -->
<g id="edge3" class="edge">
<title>Node4&#45;&gt;Node2</title>
<path fill="none" stroke="orange" stroke-dasharray="5,2" d="M124.19,-128.03C110.77,-115.13 94.08,-99.07 82.29,-87.73"/>
<polygon fill="orange" stroke="orange" points="122.01,-130.79 131.64,-135.2 126.86,-125.75 122.01,-130.79"/>
<text text-anchor="middle" x="171" y="-109" font-family="Helvetica,sans-Serif" font-size="10.00"> &lt; ApplyPatternAction &gt;</text>
</g>
</g>
</svg>
