<?xml version="1.0" encoding="UTF-8" standalone="no"?>
<!DOCTYPE svg PUBLIC "-//W3C//DTD SVG 1.1//EN"
 "http://www.w3.org/Graphics/SVG/1.1/DTD/svg11.dtd">
<!-- Generated by graphviz version 2.43.0 (0)
 -->
<!-- Title: mlir::AttributeStorage Pages: 1 -->
<svg width="644pt" height="492pt"
 viewBox="0.00 0.00 644.00 492.00" xmlns="http://www.w3.org/2000/svg" xmlns:xlink="http://www.w3.org/1999/xlink">
<g id="graph0" class="graph" transform="scale(1 1) rotate(0) translate(4 488)">
<title>mlir::AttributeStorage</title>
<!-- Node1 -->
<g id="node1" class="node">
<title>Node1</title>
<g id="a_node1"><a xlink:title="Base storage class appearing in an attribute.">
<polygon fill="#bfbfbf" stroke="black" points="154,-238 154,-257 276,-257 276,-238 154,-238"/>
<text text-anchor="middle" x="215" y="-245" font-family="Helvetica,sans-Serif" font-size="10.00">mlir::AttributeStorage</text>
</a>
</g>
</g>
<!-- Node3 -->
<g id="node3" class="node">
<title>Node3</title>
<g id="a_node3"><a xlink:href="classmlir_1_1detail_1_1DataLayoutEntryAttrStorage.html" target="_top" xlink:title=" ">
<polygon fill="none" stroke="black" points="322.5,-453.5 322.5,-483.5 454.5,-483.5 454.5,-453.5 322.5,-453.5"/>
<text text-anchor="start" x="330.5" y="-471.5" font-family="Helvetica,sans-Serif" font-size="10.00">mlir::detail::DataLayout</text>
<text text-anchor="middle" x="388.5" y="-460.5" font-family="Helvetica,sans-Serif" font-size="10.00">EntryAttrStorage</text>
</a>
</g>
</g>
<!-- Node1&#45;&gt;Node3 -->
<g id="edge2" class="edge">
<title>Node1&#45;&gt;Node3</title>
<path fill="none" stroke="midnightblue" d="M220.24,-267.19C229.72,-306.45 256.28,-394.87 312,-443.5 316.47,-447.4 321.57,-450.7 326.96,-453.49"/>
<polygon fill="midnightblue" stroke="midnightblue" points="223.62,-266.25 217.97,-257.29 216.8,-267.82 223.62,-266.25"/>
</g>
<!-- Node4 -->
<g id="node4" class="node">
<title>Node4</title>
<g id="a_node4"><a xlink:href="structmlir_1_1detail_1_1DenseElementsAttributeStorage.html" target="_top" xlink:title="An attribute representing a reference to a dense vector or tensor object.">
<polygon fill="none" stroke="black" points="312.5,-404.5 312.5,-434.5 464.5,-434.5 464.5,-404.5 312.5,-404.5"/>
<text text-anchor="start" x="320.5" y="-422.5" font-family="Helvetica,sans-Serif" font-size="10.00">mlir::detail::DenseElements</text>
<text text-anchor="middle" x="388.5" y="-411.5" font-family="Helvetica,sans-Serif" font-size="10.00">AttributeStorage</text>
</a>
</g>
</g>
<!-- Node1&#45;&gt;Node4 -->
<g id="edge3" class="edge">
<title>Node1&#45;&gt;Node4</title>
<path fill="none" stroke="midnightblue" d="M223.54,-266.72C236.76,-298 267.08,-359.92 312,-394.5 317.03,-398.37 322.7,-401.66 328.6,-404.45"/>
<polygon fill="midnightblue" stroke="midnightblue" points="226.74,-265.3 219.71,-257.36 220.26,-267.95 226.74,-265.3"/>
</g>
<!-- Node7 -->
<g id="node7" class="node">
<title>Node7</title>
<g id="a_node7"><a xlink:href="structmlir_1_1detail_1_1DistinctAttrStorage.html" target="_top" xlink:title="An attribute to store a distinct reference to another attribute.">
<polygon fill="none" stroke="black" points="323,-355.5 323,-385.5 454,-385.5 454,-355.5 323,-355.5"/>
<text text-anchor="start" x="331" y="-373.5" font-family="Helvetica,sans-Serif" font-size="10.00">mlir::detail::DistinctAttr</text>
<text text-anchor="middle" x="388.5" y="-362.5" font-family="Helvetica,sans-Serif" font-size="10.00">Storage</text>
</a>
</g>
</g>
<!-- Node1&#45;&gt;Node7 -->
<g id="edge6" class="edge">
<title>Node1&#45;&gt;Node7</title>
<path fill="none" stroke="midnightblue" d="M228.92,-265.13C245.76,-286.92 277.19,-323.79 312,-345.5 318.09,-349.3 324.82,-352.59 331.68,-355.41"/>
<polygon fill="midnightblue" stroke="midnightblue" points="231.64,-262.92 222.82,-257.05 226.06,-267.14 231.64,-262.92"/>
</g>
<!-- Node8 -->
<g id="node8" class="node">
<title>Node8</title>
<g id="a_node8"><a xlink:href="structmlir_1_1detail_1_1DynamicAttrStorage.html" target="_top" xlink:title="Storage of DynamicAttr.">
<polygon fill="none" stroke="black" points="320,-306.5 320,-336.5 457,-336.5 457,-306.5 320,-306.5"/>
<text text-anchor="start" x="328" y="-324.5" font-family="Helvetica,sans-Serif" font-size="10.00">mlir::detail::DynamicAttr</text>
<text text-anchor="middle" x="388.5" y="-313.5" font-family="Helvetica,sans-Serif" font-size="10.00">Storage</text>
</a>
</g>
</g>
<!-- Node1&#45;&gt;Node8 -->
<g id="edge7" class="edge">
<title>Node1&#45;&gt;Node8</title>
<path fill="none" stroke="midnightblue" d="M241.91,-262.09C260.95,-272.47 287.63,-286.32 312,-296.5 320.41,-300.01 329.5,-303.38 338.36,-306.44"/>
<polygon fill="midnightblue" stroke="midnightblue" points="243.42,-258.92 232.97,-257.16 240.04,-265.05 243.42,-258.92"/>
</g>
<!-- Node9 -->
<g id="node9" class="node">
<title>Node9</title>
<g id="a_node9"><a xlink:href="structmlir_1_1detail_1_1FileLineColRangeAttrStorage.html" target="_top" xlink:title=" ">
<polygon fill="none" stroke="black" points="324,-257.5 324,-287.5 453,-287.5 453,-257.5 324,-257.5"/>
<text text-anchor="start" x="332" y="-275.5" font-family="Helvetica,sans-Serif" font-size="10.00">mlir::detail::FileLineCol</text>
<text text-anchor="middle" x="388.5" y="-264.5" font-family="Helvetica,sans-Serif" font-size="10.00">RangeAttrStorage</text>
</a>
</g>
</g>
<!-- Node1&#45;&gt;Node9 -->
<g id="edge8" class="edge">
<title>Node1&#45;&gt;Node9</title>
<path fill="none" stroke="midnightblue" d="M286.67,-257.8C298.98,-259.6 311.7,-261.45 323.8,-263.21"/>
<polygon fill="midnightblue" stroke="midnightblue" points="286.86,-254.29 276.46,-256.31 285.86,-261.22 286.86,-254.29"/>
</g>
<!-- Node10 -->
<g id="node10" class="node">
<title>Node10</title>
<g id="a_node10"><a xlink:href="structmlir_1_1detail_1_1StringAttrStorage.html" target="_top" xlink:title=" ">
<polygon fill="none" stroke="black" points="327.5,-208.5 327.5,-238.5 449.5,-238.5 449.5,-208.5 327.5,-208.5"/>
<text text-anchor="start" x="335.5" y="-226.5" font-family="Helvetica,sans-Serif" font-size="10.00">mlir::detail::StringAttr</text>
<text text-anchor="middle" x="388.5" y="-215.5" font-family="Helvetica,sans-Serif" font-size="10.00">Storage</text>
</a>
</g>
</g>
<!-- Node1&#45;&gt;Node10 -->
<g id="edge9" class="edge">
<title>Node1&#45;&gt;Node10</title>
<path fill="none" stroke="midnightblue" d="M286.66,-237.61C300.15,-235.72 314.16,-233.76 327.29,-231.93"/>
<polygon fill="midnightblue" stroke="midnightblue" points="285.88,-234.19 276.46,-239.04 286.85,-241.12 285.88,-234.19"/>
</g>
<!-- Node11 -->
<g id="node11" class="node">
<title>Node11</title>
<g id="a_node11"><a xlink:href="structmlir_1_1spirv_1_1detail_1_1InterfaceVarABIAttributeStorage.html" target="_top" xlink:title=" ">
<polygon fill="none" stroke="black" points="318,-148 318,-189 459,-189 459,-148 318,-148"/>
<text text-anchor="start" x="326" y="-177" font-family="Helvetica,sans-Serif" font-size="10.00">mlir::spirv::detail</text>
<text text-anchor="start" x="326" y="-166" font-family="Helvetica,sans-Serif" font-size="10.00">::InterfaceVarABIAttribute</text>
<text text-anchor="middle" x="388.5" y="-155" font-family="Helvetica,sans-Serif" font-size="10.00">Storage</text>
</a>
</g>
</g>
<!-- Node1&#45;&gt;Node11 -->
<g id="edge10" class="edge">
<title>Node1&#45;&gt;Node11</title>
<path fill="none" stroke="midnightblue" d="M242.45,-233.15C261.55,-223 288.08,-209.33 312,-198.5 319.07,-195.3 326.58,-192.09 334.03,-189.02"/>
<polygon fill="midnightblue" stroke="midnightblue" points="240.62,-230.16 233.45,-237.97 243.92,-236.34 240.62,-230.16"/>
</g>
<!-- Node12 -->
<g id="node12" class="node">
<title>Node12</title>
<g id="a_node12"><a xlink:href="structmlir_1_1spirv_1_1detail_1_1TargetEnvAttributeStorage.html" target="_top" xlink:title=" ">
<polygon fill="none" stroke="black" points="313,-98.5 313,-128.5 464,-128.5 464,-98.5 313,-98.5"/>
<text text-anchor="start" x="321" y="-116.5" font-family="Helvetica,sans-Serif" font-size="10.00">mlir::spirv::detail</text>
<text text-anchor="middle" x="388.5" y="-105.5" font-family="Helvetica,sans-Serif" font-size="10.00">::TargetEnvAttributeStorage</text>
</a>
</g>
</g>
<!-- Node1&#45;&gt;Node12 -->
<g id="edge11" class="edge">
<title>Node1&#45;&gt;Node12</title>
<path fill="none" stroke="midnightblue" d="M227.51,-229.26C243.6,-205.17 275.05,-162.93 312,-138.5 317.76,-134.69 324.15,-131.42 330.7,-128.61"/>
<polygon fill="midnightblue" stroke="midnightblue" points="224.46,-227.52 221.93,-237.81 230.33,-231.35 224.46,-227.52"/>
</g>
<!-- Node13 -->
<g id="node13" class="node">
<title>Node13</title>
<g id="a_node13"><a xlink:href="structmlir_1_1spirv_1_1detail_1_1VerCapExtAttributeStorage.html" target="_top" xlink:title=" ">
<polygon fill="none" stroke="black" points="312,-49.5 312,-79.5 465,-79.5 465,-49.5 312,-49.5"/>
<text text-anchor="start" x="320" y="-67.5" font-family="Helvetica,sans-Serif" font-size="10.00">mlir::spirv::detail</text>
<text text-anchor="middle" x="388.5" y="-56.5" font-family="Helvetica,sans-Serif" font-size="10.00">::VerCapExtAttributeStorage</text>
</a>
</g>
</g>
<!-- Node1&#45;&gt;Node13 -->
<g id="edge12" class="edge">
<title>Node1&#45;&gt;Node13</title>
<path fill="none" stroke="midnightblue" d="M222.53,-228.06C234.75,-194.62 264.25,-126.15 312,-88.5 316.32,-85.09 321.13,-82.17 326.18,-79.65"/>
<polygon fill="midnightblue" stroke="midnightblue" points="219.19,-227.01 219.17,-237.61 225.79,-229.34 219.19,-227.01"/>
</g>
<!-- Node14 -->
<g id="node14" class="node">
<title>Node14</title>
<g id="a_node14"><a xlink:href="structmlir_1_1vector_1_1detail_1_1BitmaskEnumStorage.html" target="_top" xlink:title=" ">
<polygon fill="none" stroke="black" points="324.5,-0.5 324.5,-30.5 452.5,-30.5 452.5,-0.5 324.5,-0.5"/>
<text text-anchor="start" x="332.5" y="-18.5" font-family="Helvetica,sans-Serif" font-size="10.00">mlir::vector::detail</text>
<text text-anchor="middle" x="388.5" y="-7.5" font-family="Helvetica,sans-Serif" font-size="10.00">::BitmaskEnumStorage</text>
</a>
</g>
</g>
<!-- Node1&#45;&gt;Node14 -->
<g id="edge13" class="edge">
<title>Node1&#45;&gt;Node14</title>
<path fill="none" stroke="midnightblue" d="M219.59,-227.67C228.09,-186.52 253.27,-91.33 312,-39.5 315.92,-36.04 320.34,-33.08 325.02,-30.55"/>
<polygon fill="midnightblue" stroke="midnightblue" points="216.15,-227.07 217.67,-237.56 223.02,-228.41 216.15,-227.07"/>
</g>
<!-- Node2 -->
<g id="node2" class="node">
<title>Node2</title>
<g id="a_node2"><a xlink:href="classmlir_1_1StorageUniquer_1_1BaseStorage.html" target="_top" xlink:title="This class acts as the base storage that all storage classes must derived from.">
<polygon fill="none" stroke="black" points="0,-232.5 0,-262.5 118,-262.5 118,-232.5 0,-232.5"/>
<text text-anchor="start" x="8" y="-250.5" font-family="Helvetica,sans-Serif" font-size="10.00">mlir::StorageUniquer</text>
<text text-anchor="middle" x="59" y="-239.5" font-family="Helvetica,sans-Serif" font-size="10.00">::BaseStorage</text>
</a>
</g>
</g>
<!-- Node2&#45;&gt;Node1 -->
<g id="edge1" class="edge">
<title>Node2&#45;&gt;Node1</title>
<path fill="none" stroke="midnightblue" d="M128.47,-247.5C136.94,-247.5 145.56,-247.5 153.9,-247.5"/>
<polygon fill="midnightblue" stroke="midnightblue" points="128.22,-244 118.22,-247.5 128.22,-251 128.22,-244"/>
</g>
<!-- Node5 -->
<g id="node5" class="node">
<title>Node5</title>
<g id="a_node5"><a xlink:href="structmlir_1_1detail_1_1DenseIntOrFPElementsAttrStorage.html" target="_top" xlink:title="An attribute representing a reference to a dense vector or tensor object.">
<polygon fill="none" stroke="black" points="503,-428.5 503,-458.5 634,-458.5 634,-428.5 503,-428.5"/>
<text text-anchor="start" x="511" y="-446.5" font-family="Helvetica,sans-Serif" font-size="10.00">mlir::detail::DenseIntOr</text>
<text text-anchor="middle" x="568.5" y="-435.5" font-family="Helvetica,sans-Serif" font-size="10.00">FPElementsAttrStorage</text>
</a>
</g>
</g>
<!-- Node4&#45;&gt;Node5 -->
<g id="edge4" class="edge">
<title>Node4&#45;&gt;Node5</title>
<path fill="none" stroke="midnightblue" d="M474.92,-431.02C484.35,-432.29 493.84,-433.57 502.95,-434.8"/>
<polygon fill="midnightblue" stroke="midnightblue" points="475.11,-427.51 464.73,-429.64 474.17,-434.45 475.11,-427.51"/>
</g>
<!-- Node6 -->
<g id="node6" class="node">
<title>Node6</title>
<g id="a_node6"><a xlink:href="structmlir_1_1detail_1_1DenseStringElementsAttrStorage.html" target="_top" xlink:title="An attribute representing a reference to a dense vector or tensor object containing strings.">
<polygon fill="none" stroke="black" points="501,-379.5 501,-409.5 636,-409.5 636,-379.5 501,-379.5"/>
<text text-anchor="start" x="509" y="-397.5" font-family="Helvetica,sans-Serif" font-size="10.00">mlir::detail::DenseString</text>
<text text-anchor="middle" x="568.5" y="-386.5" font-family="Helvetica,sans-Serif" font-size="10.00">ElementsAttrStorage</text>
</a>
</g>
</g>
<!-- Node4&#45;&gt;Node6 -->
<g id="edge5" class="edge">
<title>Node4&#45;&gt;Node6</title>
<path fill="none" stroke="midnightblue" d="M474.88,-407.51C483.56,-406.29 492.28,-405.06 500.72,-403.88"/>
<polygon fill="midnightblue" stroke="midnightblue" points="474.15,-404.08 464.73,-408.93 475.12,-411.01 474.15,-404.08"/>
</g>
</g>
</svg>
