<?xml version="1.0" encoding="UTF-8" standalone="no"?>
<!DOCTYPE svg PUBLIC "-//W3C//DTD SVG 1.1//EN"
 "http://www.w3.org/Graphics/SVG/1.1/DTD/svg11.dtd">
<!-- Generated by graphviz version 2.43.0 (0)
 -->
<!-- Title: mlir::OpTrait::OperandsAreFloatLike&lt; ConcreteType &gt; Pages: 1 -->
<svg width="235pt" height="207pt"
 viewBox="0.00 0.00 235.00 207.00" xmlns="http://www.w3.org/2000/svg" xmlns:xlink="http://www.w3.org/1999/xlink">
<g id="graph0" class="graph" transform="scale(1 1) rotate(0) translate(4 203)">
<title>mlir::OpTrait::OperandsAreFloatLike&lt; ConcreteType &gt;</title>
<!-- Node1 -->
<g id="node1" class="node">
<title>Node1</title>
<g id="a_node1"><a xlink:title="This class verifies that all operands of the specified op have a float type, a vector thereof,...">
<polygon fill="#bfbfbf" stroke="black" points="19.5,-0.5 19.5,-30.5 168.5,-30.5 168.5,-0.5 19.5,-0.5"/>
<text text-anchor="start" x="27.5" y="-18.5" font-family="Helvetica,sans-Serif" font-size="10.00">mlir::OpTrait::OperandsAre</text>
<text text-anchor="middle" x="94" y="-7.5" font-family="Helvetica,sans-Serif" font-size="10.00">FloatLike&lt; ConcreteType &gt;</text>
</a>
</g>
</g>
<!-- Node2 -->
<g id="node2" class="node">
<title>Node2</title>
<g id="a_node2"><a xlink:href="classmlir_1_1OpTrait_1_1TraitBase.html" target="_top" xlink:title=" ">
<polygon fill="none" stroke="black" points="0,-68.5 0,-109.5 188,-109.5 188,-68.5 0,-68.5"/>
<text text-anchor="start" x="8" y="-97.5" font-family="Helvetica,sans-Serif" font-size="10.00">mlir::OpTrait::TraitBase</text>
<text text-anchor="start" x="8" y="-86.5" font-family="Helvetica,sans-Serif" font-size="10.00">&lt; ConcreteType, OperandsAreFloat</text>
<text text-anchor="middle" x="94" y="-75.5" font-family="Helvetica,sans-Serif" font-size="10.00">Like &gt;</text>
</a>
</g>
</g>
<!-- Node2&#45;&gt;Node1 -->
<g id="edge1" class="edge">
<title>Node2&#45;&gt;Node1</title>
<path fill="none" stroke="midnightblue" d="M94,-58.16C94,-48.69 94,-38.65 94,-30.8"/>
<polygon fill="midnightblue" stroke="midnightblue" points="90.5,-58.46 94,-68.46 97.5,-58.46 90.5,-58.46"/>
</g>
<!-- Node3 -->
<g id="node3" class="node">
<title>Node3</title>
<g id="a_node3"><a xlink:href="classmlir_1_1OpTrait_1_1TraitBase.html" target="_top" xlink:title="Helper class for implementing traits.">
<polygon fill="none" stroke="black" points="16.5,-168.5 16.5,-198.5 171.5,-198.5 171.5,-168.5 16.5,-168.5"/>
<text text-anchor="start" x="24.5" y="-186.5" font-family="Helvetica,sans-Serif" font-size="10.00">mlir::OpTrait::TraitBase</text>
<text text-anchor="middle" x="94" y="-175.5" font-family="Helvetica,sans-Serif" font-size="10.00">&lt; ConcreteType, TraitType &gt;</text>
</a>
</g>
</g>
<!-- Node3&#45;&gt;Node2 -->
<g id="edge2" class="edge">
<title>Node3&#45;&gt;Node2</title>
<path fill="none" stroke="orange" stroke-dasharray="5,2" d="M94,-158.28C94,-143.14 94,-123.88 94,-109.68"/>
<polygon fill="orange" stroke="orange" points="90.5,-158.45 94,-168.45 97.5,-158.45 90.5,-158.45"/>
<text text-anchor="start" x="94" y="-142" font-family="Helvetica,sans-Serif" font-size="10.00"> &lt; ConcreteType, Operands</text>
<text text-anchor="middle" x="160.5" y="-131" font-family="Helvetica,sans-Serif" font-size="10.00">AreFloatLike &gt;</text>
</g>
</g>
</svg>
