<?xml version="1.0" encoding="UTF-8" standalone="no"?>
<!DOCTYPE svg PUBLIC "-//W3C//DTD SVG 1.1//EN"
 "http://www.w3.org/Graphics/SVG/1.1/DTD/svg11.dtd">
<!-- Generated by graphviz version 2.43.0 (0)
 -->
<!-- Title: mlir::python::PyConcreteType&lt; DerivedTy, BaseTy &gt; Pages: 1 -->
<svg width="181pt" height="299pt"
 viewBox="0.00 0.00 180.50 299.00" xmlns="http://www.w3.org/2000/svg" xmlns:xlink="http://www.w3.org/1999/xlink">
<g id="graph0" class="graph" transform="scale(1 1) rotate(0) translate(4 295)">
<title>mlir::python::PyConcreteType&lt; DerivedTy, BaseTy &gt;</title>
<!-- Node1 -->
<g id="node1" class="node">
<title>Node1</title>
<g id="a_node1"><a xlink:title="CRTP base classes for Python types that subclass Type and should be castable from it (i....">
<polygon fill="#bfbfbf" stroke="black" points="0,-135.5 0,-165.5 151,-165.5 151,-135.5 0,-135.5"/>
<text text-anchor="start" x="8" y="-153.5" font-family="Helvetica,sans-Serif" font-size="10.00">mlir::python::PyConcrete</text>
<text text-anchor="middle" x="75.5" y="-142.5" font-family="Helvetica,sans-Serif" font-size="10.00">Type&lt; DerivedTy, BaseTy &gt;</text>
</a>
</g>
</g>
<!-- Node4 -->
<g id="node4" class="node">
<title>Node4</title>
<g id="a_node4"><a xlink:href="classmlir_1_1python_1_1PyConcreteType.html" target="_top" xlink:title=" ">
<polygon fill="none" stroke="black" points="7,-57.5 7,-87.5 144,-87.5 144,-57.5 7,-57.5"/>
<text text-anchor="start" x="15" y="-75.5" font-family="Helvetica,sans-Serif" font-size="10.00">mlir::python::PyConcrete</text>
<text text-anchor="middle" x="75.5" y="-64.5" font-family="Helvetica,sans-Serif" font-size="10.00">Type&lt; PyShapedType &gt;</text>
</a>
</g>
</g>
<!-- Node1&#45;&gt;Node4 -->
<g id="edge3" class="edge">
<title>Node1&#45;&gt;Node4</title>
<path fill="none" stroke="orange" stroke-dasharray="5,2" d="M75.5,-125.09C75.5,-112.76 75.5,-98.22 75.5,-87.73"/>
<polygon fill="orange" stroke="orange" points="72,-125.2 75.5,-135.2 79,-125.21 72,-125.2"/>
<text text-anchor="middle" x="124" y="-109" font-family="Helvetica,sans-Serif" font-size="10.00"> &lt; PyShapedType &gt;</text>
</g>
<!-- Node2 -->
<g id="node2" class="node">
<title>Node2</title>
<g id="a_node2"><a xlink:href="classmlir_1_1python_1_1PyType.html" target="_top" xlink:title="Wrapper around the generic MlirType.">
<polygon fill="none" stroke="black" points="17.5,-203.5 17.5,-222.5 133.5,-222.5 133.5,-203.5 17.5,-203.5"/>
<text text-anchor="middle" x="75.5" y="-210.5" font-family="Helvetica,sans-Serif" font-size="10.00">mlir::python::PyType</text>
</a>
</g>
</g>
<!-- Node2&#45;&gt;Node1 -->
<g id="edge1" class="edge">
<title>Node2&#45;&gt;Node1</title>
<path fill="none" stroke="midnightblue" d="M75.5,-193.22C75.5,-184.36 75.5,-173.96 75.5,-165.76"/>
<polygon fill="midnightblue" stroke="midnightblue" points="72,-193.33 75.5,-203.33 79,-193.33 72,-193.33"/>
</g>
<!-- Node3 -->
<g id="node3" class="node">
<title>Node3</title>
<g id="a_node3"><a xlink:href="classmlir_1_1python_1_1BaseContextObject.html" target="_top" xlink:title="Base class for all objects that directly or indirectly depend on an MlirContext.">
<polygon fill="none" stroke="black" points="3.5,-260.5 3.5,-290.5 147.5,-290.5 147.5,-260.5 3.5,-260.5"/>
<text text-anchor="start" x="11.5" y="-278.5" font-family="Helvetica,sans-Serif" font-size="10.00">mlir::python::BaseContext</text>
<text text-anchor="middle" x="75.5" y="-267.5" font-family="Helvetica,sans-Serif" font-size="10.00">Object</text>
</a>
</g>
</g>
<!-- Node3&#45;&gt;Node2 -->
<g id="edge2" class="edge">
<title>Node3&#45;&gt;Node2</title>
<path fill="none" stroke="midnightblue" d="M75.5,-250.35C75.5,-240.51 75.5,-229.78 75.5,-222.54"/>
<polygon fill="midnightblue" stroke="midnightblue" points="72,-250.47 75.5,-260.47 79,-250.47 72,-250.47"/>
</g>
<!-- Node5 -->
<g id="node5" class="node">
<title>Node5</title>
<g id="a_node5"><a xlink:href="classmlir_1_1PyShapedType.html" target="_top" xlink:title="Shaped Type Interface &#45; ShapedType.">
<polygon fill="none" stroke="black" points="19,-0.5 19,-19.5 132,-19.5 132,-0.5 19,-0.5"/>
<text text-anchor="middle" x="75.5" y="-7.5" font-family="Helvetica,sans-Serif" font-size="10.00">mlir::PyShapedType</text>
</a>
</g>
</g>
<!-- Node4&#45;&gt;Node5 -->
<g id="edge4" class="edge">
<title>Node4&#45;&gt;Node5</title>
<path fill="none" stroke="midnightblue" d="M75.5,-47.35C75.5,-37.51 75.5,-26.78 75.5,-19.54"/>
<polygon fill="midnightblue" stroke="midnightblue" points="72,-47.47 75.5,-57.47 79,-47.47 72,-47.47"/>
</g>
</g>
</svg>
