<?xml version="1.0" encoding="UTF-8" standalone="no"?>
<!DOCTYPE svg PUBLIC "-//W3C//DTD SVG 1.1//EN"
 "http://www.w3.org/Graphics/SVG/1.1/DTD/svg11.dtd">
<!-- Generated by graphviz version 2.43.0 (0)
 -->
<!-- Title: llvm::function_ref&lt; Fn &gt; Pages: 1 -->
<svg width="488pt" height="1127pt"
 viewBox="0.00 0.00 488.00 1127.06" xmlns="http://www.w3.org/2000/svg" xmlns:xlink="http://www.w3.org/1999/xlink">
<g id="graph0" class="graph" transform="scale(1 1) rotate(0) translate(4 1123.06)">
<title>llvm::function_ref&lt; Fn &gt;</title>
<!-- Node1 -->
<g id="node1" class="node">
<title>Node1</title>
<g id="a_node1"><a xlink:title=" ">
<polygon fill="#bfbfbf" stroke="black" points="0,-543.06 0,-573.06 103,-573.06 103,-543.06 0,-543.06"/>
<text text-anchor="start" x="8" y="-561.06" font-family="Helvetica,sans-Serif" font-size="10.00">llvm::function_ref</text>
<text text-anchor="middle" x="51.5" y="-550.06" font-family="Helvetica,sans-Serif" font-size="10.00">&lt; Fn &gt;</text>
</a>
</g>
</g>
<!-- Node2 -->
<g id="node2" class="node">
<title>Node2</title>
<g id="a_node2"><a xlink:href="classllvm_1_1function__ref.html" target="_top" xlink:title=" ">
<polygon fill="none" stroke="black" points="305,-1056.56 305,-1097.56 478,-1097.56 478,-1056.56 305,-1056.56"/>
<text text-anchor="start" x="313" y="-1085.56" font-family="Helvetica,sans-Serif" font-size="10.00">llvm::function_ref</text>
<text text-anchor="start" x="313" y="-1074.56" font-family="Helvetica,sans-Serif" font-size="10.00">&lt; void(mlir::OpaqueProperties,</text>
<text text-anchor="middle" x="391.5" y="-1063.56" font-family="Helvetica,sans-Serif" font-size="10.00"> const mlir::OpaqueProperties)&gt;</text>
</a>
</g>
</g>
<!-- Node1&#45;&gt;Node2 -->
<g id="edge1" class="edge">
<title>Node1&#45;&gt;Node2</title>
<path fill="none" stroke="orange" stroke-dasharray="5,2" d="M52.06,-583.06C51,-674.36 52.48,-987.8 121,-1053.06 168.87,-1098.66 245.57,-1101.37 304.93,-1094.57"/>
<polygon fill="orange" stroke="orange" points="55.56,-583.11 52.19,-573.06 48.56,-583.01 55.56,-583.11"/>
<text text-anchor="start" x="124.5" y="-1111.06" font-family="Helvetica,sans-Serif" font-size="10.00"> &lt; void(mlir::OpaqueProperties,</text>
<text text-anchor="middle" x="203" y="-1100.06" font-family="Helvetica,sans-Serif" font-size="10.00"> const mlir::OpaqueProperties)&gt;</text>
</g>
<!-- Node3 -->
<g id="node3" class="node">
<title>Node3</title>
<g id="a_node3"><a xlink:href="classllvm_1_1function__ref.html" target="_top" xlink:title=" ">
<polygon fill="none" stroke="black" points="336.5,-1007.06 336.5,-1037.06 446.5,-1037.06 446.5,-1007.06 336.5,-1007.06"/>
<text text-anchor="start" x="344.5" y="-1025.06" font-family="Helvetica,sans-Serif" font-size="10.00">llvm::function_ref</text>
<text text-anchor="middle" x="391.5" y="-1014.06" font-family="Helvetica,sans-Serif" font-size="10.00">&lt; void(StringRef)&gt;</text>
</a>
</g>
</g>
<!-- Node1&#45;&gt;Node3 -->
<g id="edge2" class="edge">
<title>Node1&#45;&gt;Node3</title>
<path fill="none" stroke="orange" stroke-dasharray="5,2" d="M52.65,-583.7C53.7,-668.16 61.75,-935.45 121,-992.06 177.93,-1046.45 275.5,-1042.58 336.31,-1033.35"/>
<polygon fill="orange" stroke="orange" points="56.15,-583.43 52.54,-573.47 49.15,-583.5 56.15,-583.43"/>
<text text-anchor="middle" x="203" y="-1041.06" font-family="Helvetica,sans-Serif" font-size="10.00"> &lt; void(StringRef)&gt;</text>
</g>
<!-- Node4 -->
<g id="node4" class="node">
<title>Node4</title>
<g id="a_node4"><a xlink:href="classllvm_1_1function__ref.html" target="_top" xlink:title=" ">
<polygon fill="none" stroke="black" points="322,-958.06 322,-988.06 461,-988.06 461,-958.06 322,-958.06"/>
<text text-anchor="start" x="330" y="-976.06" font-family="Helvetica,sans-Serif" font-size="10.00">llvm::function_ref</text>
<text text-anchor="middle" x="391.5" y="-965.06" font-family="Helvetica,sans-Serif" font-size="10.00">&lt; void(llvm::Module &amp;)&gt;</text>
</a>
</g>
</g>
<!-- Node1&#45;&gt;Node4 -->
<g id="edge3" class="edge">
<title>Node1&#45;&gt;Node4</title>
<path fill="none" stroke="orange" stroke-dasharray="5,2" d="M53.04,-583.41C55.28,-662.33 66.53,-901.34 121,-951.06 149.39,-976.97 251.72,-978.74 321.79,-976.64"/>
<polygon fill="orange" stroke="orange" points="56.54,-583.28 52.78,-573.37 49.54,-583.46 56.54,-583.28"/>
<text text-anchor="middle" x="203" y="-980.06" font-family="Helvetica,sans-Serif" font-size="10.00"> &lt; void(llvm::Module &amp;)&gt;</text>
</g>
<!-- Node5 -->
<g id="node5" class="node">
<title>Node5</title>
<g id="a_node5"><a xlink:href="classllvm_1_1function__ref.html" target="_top" xlink:title=" ">
<polygon fill="none" stroke="black" points="323,-887.06 323,-939.06 460,-939.06 460,-887.06 323,-887.06"/>
<text text-anchor="start" x="331" y="-927.06" font-family="Helvetica,sans-Serif" font-size="10.00">llvm::function_ref</text>
<text text-anchor="start" x="331" y="-916.06" font-family="Helvetica,sans-Serif" font-size="10.00">&lt; LogicalResult(mlir</text>
<text text-anchor="start" x="331" y="-905.06" font-family="Helvetica,sans-Serif" font-size="10.00">::OpPassManager &amp;, mlir</text>
<text text-anchor="middle" x="391.5" y="-894.06" font-family="Helvetica,sans-Serif" font-size="10.00">::Operation *)&gt;</text>
</a>
</g>
</g>
<!-- Node1&#45;&gt;Node5 -->
<g id="edge4" class="edge">
<title>Node1&#45;&gt;Node5</title>
<path fill="none" stroke="orange" stroke-dasharray="5,2" d="M54.04,-583.15C58.85,-652.52 76.03,-844.5 121,-885.06 149.73,-910.97 252.82,-915.15 322.84,-914.82"/>
<polygon fill="orange" stroke="orange" points="57.53,-582.85 53.37,-573.11 50.54,-583.32 57.53,-582.85"/>
<text text-anchor="start" x="142.5" y="-939.06" font-family="Helvetica,sans-Serif" font-size="10.00"> &lt; LogicalResult(mlir</text>
<text text-anchor="start" x="142.5" y="-928.06" font-family="Helvetica,sans-Serif" font-size="10.00">::OpPassManager &amp;, mlir</text>
<text text-anchor="middle" x="203" y="-917.06" font-family="Helvetica,sans-Serif" font-size="10.00">::Operation *)&gt;</text>
</g>
<!-- Node6 -->
<g id="node6" class="node">
<title>Node6</title>
<g id="a_node6"><a xlink:href="classllvm_1_1function__ref.html" target="_top" xlink:title=" ">
<polygon fill="none" stroke="black" points="335,-838.06 335,-868.06 448,-868.06 448,-838.06 335,-838.06"/>
<text text-anchor="start" x="343" y="-856.06" font-family="Helvetica,sans-Serif" font-size="10.00">llvm::function_ref</text>
<text text-anchor="middle" x="391.5" y="-845.06" font-family="Helvetica,sans-Serif" font-size="10.00">&lt; void(mlir::Type)&gt;</text>
</a>
</g>
</g>
<!-- Node1&#45;&gt;Node6 -->
<g id="edge5" class="edge">
<title>Node1&#45;&gt;Node6</title>
<path fill="none" stroke="orange" stroke-dasharray="5,2" d="M55.26,-583.57C62.41,-644.56 83.63,-796.11 121,-828.06 179.93,-878.45 274.85,-874.27 334.89,-864.93"/>
<polygon fill="orange" stroke="orange" points="58.7,-582.83 54.09,-573.29 51.74,-583.62 58.7,-582.83"/>
<text text-anchor="middle" x="203" y="-873.06" font-family="Helvetica,sans-Serif" font-size="10.00"> &lt; void(mlir::Type)&gt;</text>
</g>
<!-- Node7 -->
<g id="node7" class="node">
<title>Node7</title>
<g id="a_node7"><a xlink:href="classllvm_1_1function__ref.html" target="_top" xlink:title=" ">
<polygon fill="none" stroke="black" points="310,-767.06 310,-819.06 473,-819.06 473,-767.06 310,-767.06"/>
<text text-anchor="start" x="318" y="-807.06" font-family="Helvetica,sans-Serif" font-size="10.00">llvm::function_ref</text>
<text text-anchor="start" x="318" y="-796.06" font-family="Helvetica,sans-Serif" font-size="10.00">&lt; llvm::LogicalResult</text>
<text text-anchor="start" x="318" y="-785.06" font-family="Helvetica,sans-Serif" font-size="10.00">(mlir::Operation *, mlir</text>
<text text-anchor="middle" x="391.5" y="-774.06" font-family="Helvetica,sans-Serif" font-size="10.00">::JitRunnerOptions &amp;options)&gt;</text>
</a>
</g>
</g>
<!-- Node1&#45;&gt;Node7 -->
<g id="edge6" class="edge">
<title>Node1&#45;&gt;Node7</title>
<path fill="none" stroke="orange" stroke-dasharray="5,2" d="M52.96,-583.26C55.24,-626.86 66.71,-715.9 121,-760.06 149.2,-783 241.26,-790.28 309.99,-792.44"/>
<polygon fill="orange" stroke="orange" points="56.46,-583.07 52.56,-573.21 49.46,-583.35 56.46,-583.07"/>
<text text-anchor="start" x="129.5" y="-816.06" font-family="Helvetica,sans-Serif" font-size="10.00"> &lt; llvm::LogicalResult</text>
<text text-anchor="start" x="129.5" y="-805.06" font-family="Helvetica,sans-Serif" font-size="10.00">(mlir::Operation *, mlir</text>
<text text-anchor="middle" x="203" y="-794.06" font-family="Helvetica,sans-Serif" font-size="10.00">::JitRunnerOptions &amp;options)&gt;</text>
</g>
<!-- Node8 -->
<g id="node8" class="node">
<title>Node8</title>
<g id="a_node8"><a xlink:href="classllvm_1_1function__ref.html" target="_top" xlink:title=" ">
<polygon fill="none" stroke="black" points="311,-696.06 311,-748.06 472,-748.06 472,-696.06 311,-696.06"/>
<text text-anchor="start" x="319" y="-736.06" font-family="Helvetica,sans-Serif" font-size="10.00">llvm::function_ref</text>
<text text-anchor="start" x="319" y="-725.06" font-family="Helvetica,sans-Serif" font-size="10.00">&lt; void(Attribute, function</text>
<text text-anchor="start" x="319" y="-714.06" font-family="Helvetica,sans-Serif" font-size="10.00">_ref&lt; void(Attribute)&gt;,</text>
<text text-anchor="middle" x="391.5" y="-703.06" font-family="Helvetica,sans-Serif" font-size="10.00"> function_ref&lt; void(Type)&gt;)&gt;</text>
</a>
</g>
</g>
<!-- Node1&#45;&gt;Node8 -->
<g id="edge7" class="edge">
<title>Node1&#45;&gt;Node8</title>
<path fill="none" stroke="orange" stroke-dasharray="5,2" d="M59.92,-582.67C69.47,-609.84 88.77,-652.68 121,-675.06 176.4,-713.52 253.26,-723.78 310.73,-725.28"/>
<polygon fill="orange" stroke="orange" points="63.22,-581.48 56.74,-573.1 56.58,-583.69 63.22,-581.48"/>
<text text-anchor="start" x="130.5" y="-748.06" font-family="Helvetica,sans-Serif" font-size="10.00"> &lt; void(Attribute, function</text>
<text text-anchor="start" x="130.5" y="-737.06" font-family="Helvetica,sans-Serif" font-size="10.00">_ref&lt; void(Attribute)&gt;,</text>
<text text-anchor="middle" x="203" y="-726.06" font-family="Helvetica,sans-Serif" font-size="10.00"> function_ref&lt; void(Type)&gt;)&gt;</text>
</g>
<!-- Node9 -->
<g id="node9" class="node">
<title>Node9</title>
<g id="a_node9"><a xlink:href="classllvm_1_1function__ref.html" target="_top" xlink:title=" ">
<polygon fill="none" stroke="black" points="322,-647.06 322,-677.06 461,-677.06 461,-647.06 322,-647.06"/>
<text text-anchor="start" x="330" y="-665.06" font-family="Helvetica,sans-Serif" font-size="10.00">llvm::function_ref</text>
<text text-anchor="middle" x="391.5" y="-654.06" font-family="Helvetica,sans-Serif" font-size="10.00">&lt; ShapeAdaptor(Value)&gt;</text>
</a>
</g>
</g>
<!-- Node1&#45;&gt;Node9 -->
<g id="edge8" class="edge">
<title>Node1&#45;&gt;Node9</title>
<path fill="none" stroke="orange" stroke-dasharray="5,2" d="M70.8,-581.17C83.35,-595.35 101.27,-612.54 121,-622.06 184.48,-652.68 265.36,-661.21 321.88,-662.98"/>
<polygon fill="orange" stroke="orange" points="73.2,-578.6 64.05,-573.26 67.87,-583.14 73.2,-578.6"/>
<text text-anchor="middle" x="203" y="-663.06" font-family="Helvetica,sans-Serif" font-size="10.00"> &lt; ShapeAdaptor(Value)&gt;</text>
</g>
<!-- Node10 -->
<g id="node10" class="node">
<title>Node10</title>
<g id="a_node10"><a xlink:href="classllvm_1_1function__ref.html" target="_top" xlink:title=" ">
<polygon fill="none" stroke="black" points="325,-598.06 325,-628.06 458,-628.06 458,-598.06 325,-598.06"/>
<text text-anchor="start" x="333" y="-616.06" font-family="Helvetica,sans-Serif" font-size="10.00">llvm::function_ref</text>
<text text-anchor="middle" x="391.5" y="-605.06" font-family="Helvetica,sans-Serif" font-size="10.00">&lt; void(mlir::Attribute)&gt;</text>
</a>
</g>
</g>
<!-- Node1&#45;&gt;Node10 -->
<g id="edge9" class="edge">
<title>Node1&#45;&gt;Node10</title>
<path fill="none" stroke="orange" stroke-dasharray="5,2" d="M96.68,-576.71C104.66,-579.54 113,-582.14 121,-584.06 189.42,-600.44 269.84,-607.58 324.9,-610.68"/>
<polygon fill="orange" stroke="orange" points="97.75,-573.37 87.16,-573.18 95.32,-579.94 97.75,-573.37"/>
<text text-anchor="middle" x="203" y="-610.06" font-family="Helvetica,sans-Serif" font-size="10.00"> &lt; void(mlir::Attribute)&gt;</text>
</g>
<!-- Node11 -->
<g id="node11" class="node">
<title>Node11</title>
<g id="a_node11"><a xlink:href="classllvm_1_1function__ref.html" target="_top" xlink:title=" ">
<polygon fill="none" stroke="black" points="312.5,-537.56 312.5,-578.56 470.5,-578.56 470.5,-537.56 312.5,-537.56"/>
<text text-anchor="start" x="320.5" y="-566.56" font-family="Helvetica,sans-Serif" font-size="10.00">llvm::function_ref</text>
<text text-anchor="start" x="320.5" y="-555.56" font-family="Helvetica,sans-Serif" font-size="10.00">&lt; Control(const ActionActive</text>
<text text-anchor="middle" x="391.5" y="-544.56" font-family="Helvetica,sans-Serif" font-size="10.00">Stack *)&gt;</text>
</a>
</g>
</g>
<!-- Node1&#45;&gt;Node11 -->
<g id="edge10" class="edge">
<title>Node1&#45;&gt;Node11</title>
<path fill="none" stroke="orange" stroke-dasharray="5,2" d="M113.17,-558.06C168.83,-558.06 251.6,-558.06 312.22,-558.06"/>
<polygon fill="orange" stroke="orange" points="113.1,-554.56 103.1,-558.06 113.1,-561.56 113.1,-554.56"/>
<text text-anchor="start" x="130.5" y="-572.06" font-family="Helvetica,sans-Serif" font-size="10.00"> &lt; Control(const ActionActive</text>
<text text-anchor="middle" x="203" y="-561.06" font-family="Helvetica,sans-Serif" font-size="10.00">Stack *)&gt;</text>
</g>
<!-- Node12 -->
<g id="node12" class="node">
<title>Node12</title>
<g id="a_node12"><a xlink:href="classllvm_1_1function__ref.html" target="_top" xlink:title=" ">
<polygon fill="none" stroke="black" points="304.5,-477.56 304.5,-518.56 478.5,-518.56 478.5,-477.56 304.5,-477.56"/>
<text text-anchor="start" x="312.5" y="-506.56" font-family="Helvetica,sans-Serif" font-size="10.00">llvm::function_ref</text>
<text text-anchor="start" x="312.5" y="-495.56" font-family="Helvetica,sans-Serif" font-size="10.00">&lt; llvm::orc::SymbolMap</text>
<text text-anchor="middle" x="391.5" y="-484.56" font-family="Helvetica,sans-Serif" font-size="10.00">(llvm::orc::MangleAndInterner)&gt;</text>
</a>
</g>
</g>
<!-- Node1&#45;&gt;Node12 -->
<g id="edge11" class="edge">
<title>Node1&#45;&gt;Node12</title>
<path fill="none" stroke="orange" stroke-dasharray="5,2" d="M96.97,-539.44C104.87,-536.64 113.1,-534.03 121,-532.06 181.29,-517.04 250.9,-508.48 304.28,-503.7"/>
<polygon fill="orange" stroke="orange" points="95.7,-536.18 87.54,-542.93 98.13,-542.74 95.7,-536.18"/>
<text text-anchor="start" x="124" y="-546.06" font-family="Helvetica,sans-Serif" font-size="10.00"> &lt; llvm::orc::SymbolMap</text>
<text text-anchor="middle" x="203" y="-535.06" font-family="Helvetica,sans-Serif" font-size="10.00">(llvm::orc::MangleAndInterner)&gt;</text>
</g>
<!-- Node13 -->
<g id="node13" class="node">
<title>Node13</title>
<g id="a_node13"><a xlink:href="classllvm_1_1function__ref.html" target="_top" xlink:title=" ">
<polygon fill="none" stroke="black" points="315.5,-428.06 315.5,-458.06 467.5,-458.06 467.5,-428.06 315.5,-428.06"/>
<text text-anchor="start" x="323.5" y="-446.06" font-family="Helvetica,sans-Serif" font-size="10.00">llvm::function_ref</text>
<text text-anchor="middle" x="391.5" y="-435.06" font-family="Helvetica,sans-Serif" font-size="10.00">&lt; void(mlir::Diagnostic &amp;)&gt;</text>
</a>
</g>
</g>
<!-- Node1&#45;&gt;Node13 -->
<g id="edge12" class="edge">
<title>Node1&#45;&gt;Node13</title>
<path fill="none" stroke="orange" stroke-dasharray="5,2" d="M69.55,-534.93C82.06,-519.71 100.4,-500.71 121,-490.06 181.65,-458.7 259.16,-447.74 315.48,-444.16"/>
<polygon fill="orange" stroke="orange" points="66.69,-532.9 63.22,-542.92 72.18,-537.25 66.69,-532.9"/>
<text text-anchor="middle" x="203" y="-493.06" font-family="Helvetica,sans-Serif" font-size="10.00"> &lt; void(mlir::Diagnostic &amp;)&gt;</text>
</g>
<!-- Node14 -->
<g id="node14" class="node">
<title>Node14</title>
<g id="a_node14"><a xlink:href="classllvm_1_1function__ref.html" target="_top" xlink:title=" ">
<polygon fill="none" stroke="black" points="309.5,-357.06 309.5,-409.06 473.5,-409.06 473.5,-357.06 309.5,-357.06"/>
<text text-anchor="start" x="317.5" y="-397.06" font-family="Helvetica,sans-Serif" font-size="10.00">llvm::function_ref</text>
<text text-anchor="start" x="317.5" y="-386.06" font-family="Helvetica,sans-Serif" font-size="10.00">&lt; void(Type, function</text>
<text text-anchor="start" x="317.5" y="-375.06" font-family="Helvetica,sans-Serif" font-size="10.00">_ref&lt; void(Attribute)&gt;</text>
<text text-anchor="middle" x="391.5" y="-364.06" font-family="Helvetica,sans-Serif" font-size="10.00">, function_ref&lt; void(Type)&gt;)&gt;</text>
</a>
</g>
</g>
<!-- Node1&#45;&gt;Node14 -->
<g id="edge13" class="edge">
<title>Node1&#45;&gt;Node14</title>
<path fill="none" stroke="orange" stroke-dasharray="5,2" d="M55.22,-532.59C60.62,-495.94 76.36,-429.32 121,-398.06 175.22,-360.09 251.65,-359.45 309.28,-366.51"/>
<polygon fill="orange" stroke="orange" points="51.69,-532.55 53.85,-542.93 58.63,-533.47 51.69,-532.55"/>
<text text-anchor="start" x="149" y="-434.06" font-family="Helvetica,sans-Serif" font-size="10.00"> &lt; void(Type, function</text>
<text text-anchor="start" x="149" y="-423.06" font-family="Helvetica,sans-Serif" font-size="10.00">_ref&lt; void(Attribute)</text>
<text text-anchor="start" x="149" y="-412.06" font-family="Helvetica,sans-Serif" font-size="10.00">&gt;, function_ref&lt; void</text>
<text text-anchor="middle" x="203" y="-401.06" font-family="Helvetica,sans-Serif" font-size="10.00">(Type)&gt;)&gt;</text>
</g>
<!-- Node15 -->
<g id="node15" class="node">
<title>Node15</title>
<g id="a_node15"><a xlink:href="classllvm_1_1function__ref.html" target="_top" xlink:title=" ">
<polygon fill="none" stroke="black" points="321.5,-308.06 321.5,-338.06 461.5,-338.06 461.5,-308.06 321.5,-308.06"/>
<text text-anchor="start" x="329.5" y="-326.06" font-family="Helvetica,sans-Serif" font-size="10.00">llvm::function_ref</text>
<text text-anchor="middle" x="391.5" y="-315.06" font-family="Helvetica,sans-Serif" font-size="10.00">&lt; mlir::SymbolTable *()&gt;</text>
</a>
</g>
</g>
<!-- Node1&#45;&gt;Node15 -->
<g id="edge14" class="edge">
<title>Node1&#45;&gt;Node15</title>
<path fill="none" stroke="orange" stroke-dasharray="5,2" d="M52.38,-532.86C53.68,-487.57 63.54,-392.85 121,-347.06 177.02,-302.42 261.93,-302.44 321.44,-309.77"/>
<polygon fill="orange" stroke="orange" points="48.88,-532.95 52.22,-543 55.88,-533.06 48.88,-532.95"/>
<text text-anchor="middle" x="203" y="-350.06" font-family="Helvetica,sans-Serif" font-size="10.00"> &lt; mlir::SymbolTable *()&gt;</text>
</g>
<!-- Node16 -->
<g id="node16" class="node">
<title>Node16</title>
<g id="a_node16"><a xlink:href="classllvm_1_1function__ref.html" target="_top" xlink:title=" ">
<polygon fill="none" stroke="black" points="303,-259.06 303,-289.06 480,-289.06 480,-259.06 303,-259.06"/>
<text text-anchor="start" x="311" y="-277.06" font-family="Helvetica,sans-Serif" font-size="10.00">llvm::function_ref</text>
<text text-anchor="middle" x="391.5" y="-266.06" font-family="Helvetica,sans-Serif" font-size="10.00">&lt; void(mlir::OpaqueProperties)&gt;</text>
</a>
</g>
</g>
<!-- Node1&#45;&gt;Node16 -->
<g id="edge15" class="edge">
<title>Node1&#45;&gt;Node16</title>
<path fill="none" stroke="orange" stroke-dasharray="5,2" d="M55.24,-532.76C62.36,-472.28 83.52,-322.08 121,-291.06 178.34,-243.61 268.2,-248.47 328.2,-259.01"/>
<polygon fill="orange" stroke="orange" points="51.74,-532.62 54.08,-542.96 58.69,-533.42 51.74,-532.62"/>
<text text-anchor="middle" x="203" y="-294.06" font-family="Helvetica,sans-Serif" font-size="10.00"> &lt; void(mlir::OpaqueProperties)&gt;</text>
</g>
<!-- Node17 -->
<g id="node17" class="node">
<title>Node17</title>
<g id="a_node17"><a xlink:href="classllvm_1_1function__ref.html" target="_top" xlink:title=" ">
<polygon fill="none" stroke="black" points="318.5,-210.06 318.5,-240.06 464.5,-240.06 464.5,-210.06 318.5,-210.06"/>
<text text-anchor="start" x="326.5" y="-228.06" font-family="Helvetica,sans-Serif" font-size="10.00">llvm::function_ref</text>
<text text-anchor="middle" x="391.5" y="-217.06" font-family="Helvetica,sans-Serif" font-size="10.00">&lt; bool(mlir::Operation *)&gt;</text>
</a>
</g>
</g>
<!-- Node1&#45;&gt;Node17 -->
<g id="edge16" class="edge">
<title>Node1&#45;&gt;Node17</title>
<path fill="none" stroke="orange" stroke-dasharray="5,2" d="M54.01,-532.74C58.69,-463.65 75.5,-274.46 121,-236.06 149.76,-211.79 248.67,-213.66 318.28,-218.41"/>
<polygon fill="orange" stroke="orange" points="50.51,-532.55 53.36,-542.76 57.5,-533 50.51,-532.55"/>
<text text-anchor="middle" x="203" y="-239.06" font-family="Helvetica,sans-Serif" font-size="10.00"> &lt; bool(mlir::Operation *)&gt;</text>
</g>
<!-- Node18 -->
<g id="node18" class="node">
<title>Node18</title>
<g id="a_node18"><a xlink:href="classllvm_1_1function__ref.html" target="_top" xlink:title=" ">
<polygon fill="none" stroke="black" points="327.5,-139.06 327.5,-191.06 455.5,-191.06 455.5,-139.06 327.5,-139.06"/>
<text text-anchor="start" x="335.5" y="-179.06" font-family="Helvetica,sans-Serif" font-size="10.00">llvm::function_ref</text>
<text text-anchor="start" x="335.5" y="-168.06" font-family="Helvetica,sans-Serif" font-size="10.00">&lt; Attribute(Attribute,</text>
<text text-anchor="start" x="335.5" y="-157.06" font-family="Helvetica,sans-Serif" font-size="10.00"> ArrayRef&lt; Attribute &gt;</text>
<text text-anchor="middle" x="391.5" y="-146.06" font-family="Helvetica,sans-Serif" font-size="10.00">, ArrayRef&lt; Type &gt;)&gt;</text>
</a>
</g>
</g>
<!-- Node1&#45;&gt;Node18 -->
<g id="edge17" class="edge">
<title>Node1&#45;&gt;Node18</title>
<path fill="none" stroke="orange" stroke-dasharray="5,2" d="M53.14,-532.47C55.66,-454.93 67.58,-224.95 121,-178.06 176.8,-129.09 266.81,-135.77 327.28,-147.97"/>
<polygon fill="orange" stroke="orange" points="49.63,-532.67 52.83,-542.77 56.63,-532.88 49.63,-532.67"/>
<text text-anchor="start" x="144" y="-203.06" font-family="Helvetica,sans-Serif" font-size="10.00"> &lt; Attribute(Attribute,</text>
<text text-anchor="start" x="144" y="-192.06" font-family="Helvetica,sans-Serif" font-size="10.00"> ArrayRef&lt; Attribute</text>
<text text-anchor="middle" x="203" y="-181.06" font-family="Helvetica,sans-Serif" font-size="10.00"> &gt;, ArrayRef&lt; Type &gt;)&gt;</text>
</g>
<!-- Node19 -->
<g id="node19" class="node">
<title>Node19</title>
<g id="a_node19"><a xlink:href="classllvm_1_1function__ref.html" target="_top" xlink:title=" ">
<polygon fill="none" stroke="black" points="336.5,-78.56 336.5,-119.56 446.5,-119.56 446.5,-78.56 336.5,-78.56"/>
<text text-anchor="start" x="344.5" y="-107.56" font-family="Helvetica,sans-Serif" font-size="10.00">llvm::function_ref</text>
<text text-anchor="start" x="344.5" y="-96.56" font-family="Helvetica,sans-Serif" font-size="10.00">&lt; llvm::Error(llvm::</text>
<text text-anchor="middle" x="391.5" y="-85.56" font-family="Helvetica,sans-Serif" font-size="10.00">Module *)&gt;</text>
</a>
</g>
</g>
<!-- Node1&#45;&gt;Node19 -->
<g id="edge18" class="edge">
<title>Node1&#45;&gt;Node19</title>
<path fill="none" stroke="orange" stroke-dasharray="5,2" d="M52.41,-532.47C52.69,-446.4 58.5,-169.55 121,-113.06 179.04,-60.59 276.04,-70.62 336.48,-83.94"/>
<polygon fill="orange" stroke="orange" points="48.91,-532.66 52.4,-542.66 55.91,-532.66 48.91,-532.66"/>
<text text-anchor="start" x="157.5" y="-127.06" font-family="Helvetica,sans-Serif" font-size="10.00"> &lt; llvm::Error(llvm</text>
<text text-anchor="middle" x="203" y="-116.06" font-family="Helvetica,sans-Serif" font-size="10.00">::Module *)&gt;</text>
</g>
<!-- Node20 -->
<g id="node20" class="node">
<title>Node20</title>
<g id="a_node20"><a xlink:href="classllvm_1_1function__ref.html" target="_top" xlink:title=" ">
<polygon fill="none" stroke="black" points="326,-7.06 326,-59.06 457,-59.06 457,-7.06 326,-7.06"/>
<text text-anchor="start" x="334" y="-47.06" font-family="Helvetica,sans-Serif" font-size="10.00">llvm::function_ref</text>
<text text-anchor="start" x="334" y="-36.06" font-family="Helvetica,sans-Serif" font-size="10.00">&lt; Type(Type, ArrayRef</text>
<text text-anchor="start" x="334" y="-25.06" font-family="Helvetica,sans-Serif" font-size="10.00">&lt; Attribute &gt;, ArrayRef</text>
<text text-anchor="middle" x="391.5" y="-14.06" font-family="Helvetica,sans-Serif" font-size="10.00">&lt; Type &gt;)&gt;</text>
</a>
</g>
</g>
<!-- Node1&#45;&gt;Node20 -->
<g id="edge19" class="edge">
<title>Node1&#45;&gt;Node20</title>
<path fill="none" stroke="orange" stroke-dasharray="5,2" d="M53.9,-533.02C59.72,-433.6 83.4,-70.54 121,-37.06 176.04,11.95 265.37,2.17 325.96,-12.62"/>
<polygon fill="orange" stroke="orange" points="50.4,-532.87 53.32,-543.06 57.39,-533.27 50.4,-532.87"/>
<text text-anchor="start" x="145.5" y="-62.06" font-family="Helvetica,sans-Serif" font-size="10.00"> &lt; Type(Type, ArrayRef</text>
<text text-anchor="start" x="145.5" y="-51.06" font-family="Helvetica,sans-Serif" font-size="10.00">&lt; Attribute &gt;, ArrayRef</text>
<text text-anchor="middle" x="203" y="-40.06" font-family="Helvetica,sans-Serif" font-size="10.00">&lt; Type &gt;)&gt;</text>
</g>
</g>
</svg>
