<?xml version="1.0" encoding="UTF-8" standalone="no"?>
<!DOCTYPE svg PUBLIC "-//W3C//DTD SVG 1.1//EN"
 "http://www.w3.org/Graphics/SVG/1.1/DTD/svg11.dtd">
<!-- Generated by graphviz version 2.43.0 (0)
 -->
<!-- Title: mlir::LLVM::impl::LLVMTargetToTargetFeaturesBase&lt; DerivedT &gt; Pages: 1 -->
<svg width="241pt" height="326pt"
 viewBox="0.00 0.00 240.50 326.00" xmlns="http://www.w3.org/2000/svg" xmlns:xlink="http://www.w3.org/1999/xlink">
<g id="graph0" class="graph" transform="scale(1 1) rotate(0) translate(4 322)">
<title>mlir::LLVM::impl::LLVMTargetToTargetFeaturesBase&lt; DerivedT &gt;</title>
<!-- Node1 -->
<g id="Node000001" class="node">
<title>Node1</title>
<g id="a_Node000001"><a xlink:title=" ">
<polygon fill="#999999" stroke="#666666" points="197.5,-195 7.5,-195 7.5,-165 197.5,-165 197.5,-195"/>
<text text-anchor="start" x="15.5" y="-183" font-family="Helvetica,sans-Serif" font-size="10.00">mlir::LLVM::impl::LLVMTarget</text>
<text text-anchor="middle" x="102.5" y="-172" font-family="Helvetica,sans-Serif" font-size="10.00">ToTargetFeaturesBase&lt; DerivedT &gt;</text>
</a>
</g>
</g>
<!-- Node4 -->
<g id="Node000004" class="node">
<title>Node4</title>
<g id="a_Node000004"><a xlink:href="classmlir_1_1LLVM_1_1impl_1_1LLVMTargetToTargetFeaturesBase.html" target="_top" xlink:title=" ">
<polygon fill="white" stroke="#666666" points="205,-97 0,-97 0,-56 205,-56 205,-97"/>
<text text-anchor="start" x="8" y="-85" font-family="Helvetica,sans-Serif" font-size="10.00">mlir::LLVM::impl::LLVMTarget</text>
<text text-anchor="start" x="8" y="-74" font-family="Helvetica,sans-Serif" font-size="10.00">ToTargetFeaturesBase&lt; TargetToTarget</text>
<text text-anchor="middle" x="102.5" y="-63" font-family="Helvetica,sans-Serif" font-size="10.00">FeaturesPass &gt;</text>
</a>
</g>
</g>
<!-- Node1&#45;&gt;Node4 -->
<g id="edge3_Node000001_Node000004" class="edge">
<title>Node1&#45;&gt;Node4</title>
<g id="a_edge3_Node000001_Node000004"><a xlink:title=" ">
<path fill="none" stroke="orange" stroke-dasharray="5,2" d="M102.5,-154.78C102.5,-137.13 102.5,-113.52 102.5,-97.06"/>
<polygon fill="orange" stroke="orange" points="99,-154.89 102.5,-164.89 106,-154.89 99,-154.89"/>
</a>
</g>
<text text-anchor="start" x="105.5" y="-136" font-family="Helvetica,sans-Serif" font-size="10.00" fill="grey">&lt; TargetToTargetFeatures</text>
<text text-anchor="start" x="105.5" y="-121" font-family="Helvetica,sans-Serif" font-size="10.00" fill="grey">  Pass &gt;</text>
</g>
<!-- Node2 -->
<g id="Node000002" class="node">
<title>Node2</title>
<g id="a_Node000002"><a xlink:href="classmlir_1_1OperationPass.html" target="_top" xlink:title="Pass to transform an operation of a specific type.">
<polygon fill="white" stroke="#666666" points="158.5,-262 46.5,-262 46.5,-232 158.5,-232 158.5,-262"/>
<text text-anchor="start" x="54.5" y="-250" font-family="Helvetica,sans-Serif" font-size="10.00">mlir::OperationPass</text>
<text text-anchor="middle" x="102.5" y="-239" font-family="Helvetica,sans-Serif" font-size="10.00">&lt; OpT &gt;</text>
</a>
</g>
</g>
<!-- Node2&#45;&gt;Node1 -->
<g id="edge1_Node000001_Node000002" class="edge">
<title>Node2&#45;&gt;Node1</title>
<g id="a_edge1_Node000001_Node000002"><a xlink:title=" ">
<path fill="none" stroke="#63b8ff" d="M102.5,-221.61C102.5,-212.65 102.5,-202.82 102.5,-195.08"/>
<polygon fill="#63b8ff" stroke="#63b8ff" points="99,-221.9 102.5,-231.9 106,-221.9 99,-221.9"/>
</a>
</g>
</g>
<!-- Node3 -->
<g id="Node000003" class="node">
<title>Node3</title>
<g id="a_Node000003"><a xlink:href="classmlir_1_1Pass.html" target="_top" xlink:title="The abstract base pass class.">
<polygon fill="white" stroke="#666666" points="134.5,-318 70.5,-318 70.5,-299 134.5,-299 134.5,-318"/>
<text text-anchor="middle" x="102.5" y="-306" font-family="Helvetica,sans-Serif" font-size="10.00">mlir::Pass</text>
</a>
</g>
</g>
<!-- Node3&#45;&gt;Node2 -->
<g id="edge2_Node000002_Node000003" class="edge">
<title>Node3&#45;&gt;Node2</title>
<g id="a_edge2_Node000002_Node000003"><a xlink:title=" ">
<path fill="none" stroke="#63b8ff" d="M102.5,-288.73C102.5,-280.09 102.5,-270 102.5,-262.02"/>
<polygon fill="#63b8ff" stroke="#63b8ff" points="99,-288.98 102.5,-298.98 106,-288.98 99,-288.98"/>
</a>
</g>
</g>
<!-- Node5 -->
<g id="Node000005" class="node">
<title>Node5</title>
<g id="a_Node000005"><a xlink:href="structTargetToTargetFeaturesPass.html" target="_top" xlink:title=" ">
<polygon fill="white" stroke="#666666" points="178,-19 27,-19 27,0 178,0 178,-19"/>
<text text-anchor="middle" x="102.5" y="-7" font-family="Helvetica,sans-Serif" font-size="10.00">TargetToTargetFeaturesPass</text>
</a>
</g>
</g>
<!-- Node4&#45;&gt;Node5 -->
<g id="edge4_Node000004_Node000005" class="edge">
<title>Node4&#45;&gt;Node5</title>
<g id="a_edge4_Node000004_Node000005"><a xlink:title=" ">
<path fill="none" stroke="#63b8ff" d="M102.5,-45.76C102.5,-36.06 102.5,-26.02 102.5,-19.15"/>
<polygon fill="#63b8ff" stroke="#63b8ff" points="99,-46 102.5,-56 106,-46 99,-46"/>
</a>
</g>
</g>
</g>
</svg>
