<?xml version="1.0" encoding="UTF-8" standalone="no"?>
<!DOCTYPE svg PUBLIC "-//W3C//DTD SVG 1.1//EN"
 "http://www.w3.org/Graphics/SVG/1.1/DTD/svg11.dtd">
<!-- Generated by graphviz version 2.43.0 (0)
 -->
<!-- Title: mlir::affine::AffineDmaWaitOp Pages: 1 -->
<svg width="2199pt" height="181pt"
 viewBox="0.00 0.00 2199.00 181.14" xmlns="http://www.w3.org/2000/svg" xmlns:xlink="http://www.w3.org/1999/xlink">
<g id="graph0" class="graph" transform="scale(1 1) rotate(0) translate(4 177.14)">
<title>mlir::affine::AffineDmaWaitOp</title>
<!-- Node1 -->
<g id="Node000001" class="node">
<title>Node1</title>
<g id="a_Node000001"><a xlink:title="AffineDmaWaitOp blocks until the completion of a DMA operation associated with the tag element &#39;tag[i...">
<polygon fill="#999999" stroke="#666666" points="2191,-67.5 2028,-67.5 2028,-48.5 2191,-48.5 2191,-67.5"/>
<text text-anchor="middle" x="2109.5" y="-55.5" font-family="Helvetica,sans-Serif" font-size="10.00">mlir::affine::AffineDmaWaitOp</text>
</a>
</g>
</g>
<!-- Node2 -->
<g id="Node000002" class="node">
<title>Node2</title>
<g id="a_Node000002"><a xlink:href="classmlir_1_1Op.html" target="_top" xlink:title=" ">
<polygon fill="white" stroke="#666666" points="1991,-89.5 1735,-89.5 1735,-26.5 1991,-26.5 1991,-89.5"/>
<text text-anchor="start" x="1743" y="-77.5" font-family="Helvetica,sans-Serif" font-size="10.00">mlir::Op&lt; AffineDmaWaitOp,</text>
<text text-anchor="start" x="1743" y="-66.5" font-family="Helvetica,sans-Serif" font-size="10.00"> OpTrait::MemRefsNormalizable,</text>
<text text-anchor="start" x="1743" y="-55.5" font-family="Helvetica,sans-Serif" font-size="10.00"> OpTrait::VariadicOperands,</text>
<text text-anchor="start" x="1743" y="-44.5" font-family="Helvetica,sans-Serif" font-size="10.00"> OpTrait::ZeroResults, OpTrait</text>
<text text-anchor="middle" x="1863" y="-33.5" font-family="Helvetica,sans-Serif" font-size="10.00">::OpInvariants, AffineMapAccessInterface::Trait &gt;</text>
</a>
</g>
</g>
<!-- Node2&#45;&gt;Node1 -->
<g id="edge1_Node000001_Node000002" class="edge">
<title>Node2&#45;&gt;Node1</title>
<g id="a_edge1_Node000001_Node000002"><a xlink:title=" ">
<path fill="none" stroke="#63b8ff" d="M2001.42,-58C2010.39,-58 2019.24,-58 2027.79,-58"/>
<polygon fill="#63b8ff" stroke="#63b8ff" points="2001.26,-54.5 1991.26,-58 2001.26,-61.5 2001.26,-54.5"/>
</a>
</g>
</g>
<!-- Node3 -->
<g id="Node000003" class="node">
<title>Node3</title>
<g id="a_Node000003"><a xlink:href="classmlir_1_1OpState.html" target="_top" xlink:title="This is the concrete base class that holds the operation pointer and has non&#45;generic methods that onl...">
<polygon fill="white" stroke="#666666" points="1044.5,-152.5 963.5,-152.5 963.5,-133.5 1044.5,-133.5 1044.5,-152.5"/>
<text text-anchor="middle" x="1004" y="-140.5" font-family="Helvetica,sans-Serif" font-size="10.00">mlir::OpState</text>
</a>
</g>
</g>
<!-- Node3&#45;&gt;Node2 -->
<g id="edge2_Node000002_Node000003" class="edge">
<title>Node3&#45;&gt;Node2</title>
<g id="a_edge2_Node000002_Node000003"><a xlink:title=" ">
<path fill="none" stroke="#63b8ff" d="M1054.98,-150.58C1172.68,-166.7 1475.56,-198.08 1717,-136 1752.85,-126.78 1789.54,-106.93 1817.04,-89.56"/>
<polygon fill="#63b8ff" stroke="#63b8ff" points="1055.22,-147.08 1044.84,-149.16 1054.26,-154.01 1055.22,-147.08"/>
</a>
</g>
</g>
<!-- Node9 -->
<g id="Node000009" class="node">
<title>Node9</title>
<g id="a_Node000009"><a xlink:href="classmlir_1_1Op.html" target="_top" xlink:title="This provides public APIs that all operations should have.">
<polygon fill="white" stroke="#666666" points="1418,-113 1282,-113 1282,-83 1418,-83 1418,-113"/>
<text text-anchor="start" x="1290" y="-101" font-family="Helvetica,sans-Serif" font-size="10.00">mlir::Op&lt; ConcreteType,</text>
<text text-anchor="middle" x="1350" y="-90" font-family="Helvetica,sans-Serif" font-size="10.00"> Traits &gt;</text>
</a>
</g>
</g>
<!-- Node3&#45;&gt;Node9 -->
<g id="edge10_Node000009_Node000003" class="edge">
<title>Node3&#45;&gt;Node9</title>
<g id="a_edge10_Node000009_Node000003"><a xlink:title=" ">
<path fill="none" stroke="#63b8ff" d="M1054.75,-136.49C1114.56,-128.67 1215.19,-115.5 1281.85,-106.78"/>
<polygon fill="#63b8ff" stroke="#63b8ff" points="1054.26,-133.03 1044.8,-137.79 1055.17,-139.97 1054.26,-133.03"/>
</a>
</g>
</g>
<!-- Node4 -->
<g id="Node000004" class="node">
<title>Node4</title>
<g id="a_Node000004"><a xlink:href="structmlir_1_1OpTrait_1_1MemRefsNormalizable.html" target="_top" xlink:title=" ">
<polygon fill="white" stroke="#666666" points="1447,-40 1253,-40 1253,-10 1447,-10 1447,-40"/>
<text text-anchor="start" x="1261" y="-28" font-family="Helvetica,sans-Serif" font-size="10.00">mlir::OpTrait::MemRefsNormalizable</text>
<text text-anchor="middle" x="1350" y="-17" font-family="Helvetica,sans-Serif" font-size="10.00">&lt; AffineDmaWaitOp &gt;</text>
</a>
</g>
</g>
<!-- Node4&#45;&gt;Node2 -->
<g id="edge3_Node000002_Node000004" class="edge">
<title>Node4&#45;&gt;Node2</title>
<g id="a_edge3_Node000002_Node000004"><a xlink:title=" ">
<path fill="none" stroke="#63b8ff" d="M1457.23,-26.48C1530.37,-28.13 1629.71,-31.63 1717,-39 1722.82,-39.49 1728.76,-40.05 1734.76,-40.65"/>
<polygon fill="#63b8ff" stroke="#63b8ff" points="1457.16,-22.98 1447.09,-26.26 1457.01,-29.98 1457.16,-22.98"/>
</a>
</g>
</g>
<!-- Node5 -->
<g id="Node000005" class="node">
<title>Node5</title>
<g id="a_Node000005"><a xlink:href="classmlir_1_1OpTrait_1_1TraitBase.html" target="_top" xlink:title=" ">
<polygon fill="white" stroke="#666666" points="889,-73 645,-73 645,-43 889,-43 889,-73"/>
<text text-anchor="start" x="653" y="-61" font-family="Helvetica,sans-Serif" font-size="10.00">mlir::OpTrait::TraitBase</text>
<text text-anchor="middle" x="767" y="-50" font-family="Helvetica,sans-Serif" font-size="10.00">&lt; AffineDmaWaitOp, MemRefsNormalizable &gt;</text>
</a>
</g>
</g>
<!-- Node5&#45;&gt;Node4 -->
<g id="edge4_Node000004_Node000005" class="edge">
<title>Node5&#45;&gt;Node4</title>
<g id="a_edge4_Node000004_Node000005"><a xlink:title=" ">
<path fill="none" stroke="#63b8ff" d="M899.32,-58.14C993.05,-57.18 1122.02,-53.69 1235,-43 1243.48,-42.2 1252.28,-41.17 1261.07,-40"/>
<polygon fill="#63b8ff" stroke="#63b8ff" points="899.18,-54.64 889.21,-58.24 899.24,-61.64 899.18,-54.64"/>
</a>
</g>
</g>
<!-- Node6 -->
<g id="Node000006" class="node">
<title>Node6</title>
<g id="a_Node000006"><a xlink:href="classmlir_1_1OpTrait_1_1TraitBase.html" target="_top" xlink:title="Helper class for implementing traits.">
<polygon fill="white" stroke="#666666" points="155,-52 0,-52 0,-22 155,-22 155,-52"/>
<text text-anchor="start" x="8" y="-40" font-family="Helvetica,sans-Serif" font-size="10.00">mlir::OpTrait::TraitBase</text>
<text text-anchor="middle" x="77.5" y="-29" font-family="Helvetica,sans-Serif" font-size="10.00">&lt; ConcreteType, TraitType &gt;</text>
</a>
</g>
</g>
<!-- Node6&#45;&gt;Node5 -->
<g id="edge5_Node000005_Node000006" class="edge">
<title>Node6&#45;&gt;Node5</title>
<g id="a_edge5_Node000005_Node000006"><a xlink:title=" ">
<path fill="none" stroke="orange" stroke-dasharray="5,2" d="M165.38,-39.65C286.71,-43.36 507.4,-50.1 644.83,-54.3"/>
<polygon fill="orange" stroke="orange" points="165.13,-36.14 155.03,-39.34 164.92,-43.14 165.13,-36.14"/>
</a>
</g>
<text text-anchor="start" x="213.5" y="-68" font-family="Helvetica,sans-Serif" font-size="10.00" fill="grey">&lt; AffineDmaWaitOp,</text>
<text text-anchor="start" x="213.5" y="-53" font-family="Helvetica,sans-Serif" font-size="10.00" fill="grey">   MemRefsNormalizable &gt;</text>
</g>
<!-- Node8 -->
<g id="Node000008" class="node">
<title>Node8</title>
<g id="a_Node000008"><a xlink:href="classmlir_1_1OpTrait_1_1TraitBase.html" target="_top" xlink:title=" ">
<polygon fill="white" stroke="#666666" points="627,-30 404,-30 404,0 627,0 627,-30"/>
<text text-anchor="start" x="412" y="-18" font-family="Helvetica,sans-Serif" font-size="10.00">mlir::OpTrait::TraitBase</text>
<text text-anchor="middle" x="515.5" y="-7" font-family="Helvetica,sans-Serif" font-size="10.00">&lt; ConcrentType, MemRefsNormalizable &gt;</text>
</a>
</g>
</g>
<!-- Node6&#45;&gt;Node8 -->
<g id="edge8_Node000008_Node000006" class="edge">
<title>Node6&#45;&gt;Node8</title>
<g id="a_edge8_Node000008_Node000006"><a xlink:title=" ">
<path fill="none" stroke="orange" stroke-dasharray="5,2" d="M160.31,-20.5C164.59,-19.92 168.84,-19.42 173,-19 249.84,-11.29 336.89,-10.39 403.88,-11.37"/>
<polygon fill="orange" stroke="orange" points="159.68,-17.06 150.28,-21.96 160.68,-23.98 159.68,-17.06"/>
</a>
</g>
<text text-anchor="start" x="176.5" y="-24.5" font-family="Helvetica,sans-Serif" font-size="10.00" fill="grey">&lt; ConcrentType, MemRefsNormalizable &gt;</text>
</g>
<!-- Node7 -->
<g id="Node000007" class="node">
<title>Node7</title>
<g id="a_Node000007"><a xlink:href="structmlir_1_1OpTrait_1_1MemRefsNormalizable.html" target="_top" xlink:title=" ">
<polygon fill="white" stroke="#666666" points="1101,-30 907,-30 907,0 1101,0 1101,-30"/>
<text text-anchor="start" x="915" y="-18" font-family="Helvetica,sans-Serif" font-size="10.00">mlir::OpTrait::MemRefsNormalizable</text>
<text text-anchor="middle" x="1004" y="-7" font-family="Helvetica,sans-Serif" font-size="10.00">&lt; ConcrentType &gt;</text>
</a>
</g>
</g>
<!-- Node7&#45;&gt;Node4 -->
<g id="edge6_Node000004_Node000007" class="edge">
<title>Node7&#45;&gt;Node4</title>
<g id="a_edge6_Node000004_Node000007"><a xlink:title=" ">
<path fill="none" stroke="orange" stroke-dasharray="5,2" d="M1111.39,-18.09C1156.53,-19.41 1208.77,-20.92 1252.74,-22.2"/>
<polygon fill="orange" stroke="orange" points="1111.38,-14.59 1101.28,-17.8 1111.17,-21.59 1111.38,-14.59"/>
</a>
</g>
<text text-anchor="start" x="1122" y="-27.5" font-family="Helvetica,sans-Serif" font-size="10.00" fill="grey">&lt; AffineDmaWaitOp &gt;</text>
</g>
<!-- Node8&#45;&gt;Node7 -->
<g id="edge7_Node000007_Node000008" class="edge">
<title>Node8&#45;&gt;Node7</title>
<g id="a_edge7_Node000007_Node000008"><a xlink:title=" ">
<path fill="none" stroke="#63b8ff" d="M637.21,-15C720.37,-15 829.41,-15 906.73,-15"/>
<polygon fill="#63b8ff" stroke="#63b8ff" points="637.2,-11.5 627.2,-15 637.2,-18.5 637.2,-11.5"/>
</a>
</g>
</g>
<!-- Node9&#45;&gt;Node2 -->
<g id="edge9_Node000002_Node000009" class="edge">
<title>Node9&#45;&gt;Node2</title>
<g id="a_edge9_Node000002_Node000009"><a xlink:title=" ">
<path fill="none" stroke="orange" stroke-dasharray="5,2" d="M1395.16,-79.12C1415.94,-71.22 1441.31,-62.97 1465,-59 1554.22,-44.05 1656.31,-44.16 1734.62,-47.83"/>
<polygon fill="orange" stroke="orange" points="1393.7,-75.93 1385.66,-82.83 1396.25,-82.45 1393.7,-75.93"/>
</a>
</g>
<text text-anchor="start" x="1468" y="-124.5" font-family="Helvetica,sans-Serif" font-size="10.00" fill="grey">&lt; AffineDmaWaitOp,</text>
<text text-anchor="start" x="1468" y="-109.5" font-family="Helvetica,sans-Serif" font-size="10.00" fill="grey">   OpTrait::MemRefsNormalizable,</text>
<text text-anchor="start" x="1468" y="-94.5" font-family="Helvetica,sans-Serif" font-size="10.00" fill="grey">   OpTrait::VariadicOperands,</text>
<text text-anchor="start" x="1468" y="-79.5" font-family="Helvetica,sans-Serif" font-size="10.00" fill="grey">   OpTrait::ZeroResults, OpTrait</text>
<text text-anchor="start" x="1468" y="-64.5" font-family="Helvetica,sans-Serif" font-size="10.00" fill="grey">  ::OpInvariants, AffineMapAccessInterface::Trait &gt;</text>
</g>
<!-- Node10 -->
<g id="Node000010" class="node">
<title>Node10</title>
<g id="a_Node000010"><a xlink:title=" ">
<polygon fill="white" stroke="#666666" points="1069.5,-107.5 938.5,-107.5 938.5,-88.5 1069.5,-88.5 1069.5,-107.5"/>
<text text-anchor="middle" x="1004" y="-95.5" font-family="Helvetica,sans-Serif" font-size="10.00">Traits&lt; ConcreteType &gt;</text>
</a>
</g>
</g>
<!-- Node10&#45;&gt;Node9 -->
<g id="edge11_Node000009_Node000010" class="edge">
<title>Node10&#45;&gt;Node9</title>
<g id="a_edge11_Node000009_Node000010"><a xlink:title=" ">
<path fill="none" stroke="#63b8ff" d="M1079.91,-98C1140.11,-98 1223.92,-98 1281.94,-98"/>
<polygon fill="#63b8ff" stroke="#63b8ff" points="1079.7,-94.5 1069.7,-98 1079.7,-101.5 1079.7,-94.5"/>
</a>
</g>
</g>
</g>
</svg>
