<?xml version="1.0" encoding="UTF-8" standalone="no"?>
<!DOCTYPE svg PUBLIC "-//W3C//DTD SVG 1.1//EN"
 "http://www.w3.org/Graphics/SVG/1.1/DTD/svg11.dtd">
<!-- Generated by graphviz version 2.43.0 (0)
 -->
<!-- Title: mlir::arm_sme::impl::EnableArmStreamingBase&lt; DerivedT &gt; Pages: 1 -->
<svg width="241pt" height="255pt"
 viewBox="0.00 0.00 241.00 255.00" xmlns="http://www.w3.org/2000/svg" xmlns:xlink="http://www.w3.org/1999/xlink">
<g id="graph0" class="graph" transform="scale(1 1) rotate(0) translate(4 251)">
<title>mlir::arm_sme::impl::EnableArmStreamingBase&lt; DerivedT &gt;</title>
<!-- Node1 -->
<g id="Node000001" class="node">
<title>Node1</title>
<g id="a_Node000001"><a xlink:title=" ">
<polygon fill="#999999" stroke="#666666" points="150,-41 0,-41 0,0 150,0 150,-41"/>
<text text-anchor="start" x="8" y="-29" font-family="Helvetica,sans-Serif" font-size="10.00">mlir::arm_sme::impl</text>
<text text-anchor="start" x="8" y="-18" font-family="Helvetica,sans-Serif" font-size="10.00">::EnableArmStreamingBase</text>
<text text-anchor="middle" x="75" y="-7" font-family="Helvetica,sans-Serif" font-size="10.00">&lt; DerivedT &gt;</text>
</a>
</g>
</g>
<!-- Node2 -->
<g id="Node000002" class="node">
<title>Node2</title>
<g id="a_Node000002"><a xlink:href="classmlir_1_1OperationPass.html" target="_top" xlink:title=" ">
<polygon fill="white" stroke="#666666" points="139,-108 11,-108 11,-78 139,-78 139,-108"/>
<text text-anchor="start" x="19" y="-96" font-family="Helvetica,sans-Serif" font-size="10.00">mlir::OperationPass</text>
<text text-anchor="middle" x="75" y="-85" font-family="Helvetica,sans-Serif" font-size="10.00">&lt; mlir::func::FuncOp &gt;</text>
</a>
</g>
</g>
<!-- Node2&#45;&gt;Node1 -->
<g id="edge1_Node000001_Node000002" class="edge">
<title>Node2&#45;&gt;Node1</title>
<g id="a_edge1_Node000001_Node000002"><a xlink:title=" ">
<path fill="none" stroke="#63b8ff" d="M75,-67.48C75,-58.85 75,-49.26 75,-41.09"/>
<polygon fill="#63b8ff" stroke="#63b8ff" points="71.5,-67.73 75,-77.73 78.5,-67.73 71.5,-67.73"/>
</a>
</g>
</g>
<!-- Node3 -->
<g id="Node000003" class="node">
<title>Node3</title>
<g id="a_Node000003"><a xlink:href="classmlir_1_1Pass.html" target="_top" xlink:title="The abstract base pass class.">
<polygon fill="white" stroke="#666666" points="103,-247 39,-247 39,-228 103,-228 103,-247"/>
<text text-anchor="middle" x="71" y="-235" font-family="Helvetica,sans-Serif" font-size="10.00">mlir::Pass</text>
</a>
</g>
</g>
<!-- Node3&#45;&gt;Node2 -->
<g id="edge2_Node000002_Node000003" class="edge">
<title>Node3&#45;&gt;Node2</title>
<g id="a_edge2_Node000002_Node000003"><a xlink:title=" ">
<path fill="none" stroke="#63b8ff" d="M71.53,-217.54C72.35,-188.58 73.88,-133.99 74.6,-108.19"/>
<polygon fill="#63b8ff" stroke="#63b8ff" points="68.03,-217.49 71.25,-227.59 75.03,-217.69 68.03,-217.49"/>
</a>
</g>
</g>
<!-- Node4 -->
<g id="Node000004" class="node">
<title>Node4</title>
<g id="a_Node000004"><a xlink:href="classmlir_1_1OperationPass.html" target="_top" xlink:title="Pass to transform an operation of a specific type.">
<polygon fill="white" stroke="#666666" points="199,-191 87,-191 87,-161 199,-161 199,-191"/>
<text text-anchor="start" x="95" y="-179" font-family="Helvetica,sans-Serif" font-size="10.00">mlir::OperationPass</text>
<text text-anchor="middle" x="143" y="-168" font-family="Helvetica,sans-Serif" font-size="10.00">&lt; OpT &gt;</text>
</a>
</g>
</g>
<!-- Node3&#45;&gt;Node4 -->
<g id="edge4_Node000004_Node000003" class="edge">
<title>Node3&#45;&gt;Node4</title>
<g id="a_edge4_Node000004_Node000003"><a xlink:title=" ">
<path fill="none" stroke="#63b8ff" d="M89.25,-221.42C100.55,-212.08 114.97,-200.16 126.03,-191.02"/>
<polygon fill="#63b8ff" stroke="#63b8ff" points="86.79,-218.91 81.32,-227.98 91.25,-224.3 86.79,-218.91"/>
</a>
</g>
</g>
<!-- Node4&#45;&gt;Node2 -->
<g id="edge3_Node000002_Node000004" class="edge">
<title>Node4&#45;&gt;Node2</title>
<g id="a_edge3_Node000002_Node000004"><a xlink:title=" ">
<path fill="none" stroke="orange" stroke-dasharray="5,2" d="M124.55,-153.02C112.58,-138.76 97.34,-120.61 86.94,-108.22"/>
<polygon fill="orange" stroke="orange" points="122.04,-155.48 131.16,-160.89 127.41,-150.98 122.04,-155.48"/>
</a>
</g>
<text text-anchor="start" x="118" y="-131.5" font-family="Helvetica,sans-Serif" font-size="10.00" fill="grey">&lt; mlir::func::FuncOp &gt;</text>
</g>
</g>
</svg>
