<?xml version="1.0" encoding="UTF-8" standalone="no"?>
<!DOCTYPE svg PUBLIC "-//W3C//DTD SVG 1.1//EN"
 "http://www.w3.org/Graphics/SVG/1.1/DTD/svg11.dtd">
<!-- Generated by graphviz version 2.43.0 (0)
 -->
<!-- Title: PassPipelineOptions Pages: 1 -->
<svg width="374pt" height="216pt"
 viewBox="0.00 0.00 374.00 215.50" xmlns="http://www.w3.org/2000/svg" xmlns:xlink="http://www.w3.org/1999/xlink">
<g id="graph0" class="graph" transform="scale(1 1) rotate(0) translate(4 211.5)">
<title>PassPipelineOptions</title>
<!-- Node1 -->
<g id="Node000001" class="node">
<title>Node1</title>
<g id="a_Node000001"><a xlink:title=" ">
<polygon fill="#999999" stroke="#666666" points="115,-108 0,-108 0,-89 115,-89 115,-108"/>
<text text-anchor="middle" x="57.5" y="-96" font-family="Helvetica,sans-Serif" font-size="10.00">PassPipelineOptions</text>
</a>
</g>
</g>
<!-- Node2 -->
<g id="Node000002" class="node">
<title>Node2</title>
<g id="a_Node000002"><a xlink:href="structmlir_1_1bufferization_1_1BufferDeallocationPipelineOptions.html" target="_top" xlink:title="Options for the buffer deallocation pipeline.">
<polygon fill="white" stroke="#666666" points="356,-207.5 161,-207.5 161,-155.5 356,-155.5 356,-207.5"/>
<text text-anchor="start" x="169" y="-195.5" font-family="Helvetica,sans-Serif" font-size="10.00">mlir::bufferization</text>
<text text-anchor="start" x="169" y="-184.5" font-family="Helvetica,sans-Serif" font-size="10.00">::BufferDeallocationPipeline</text>
<text text-anchor="start" x="169" y="-173.5" font-family="Helvetica,sans-Serif" font-size="10.00">Options&lt; BufferDeallocationPipeline</text>
<text text-anchor="middle" x="258.5" y="-162.5" font-family="Helvetica,sans-Serif" font-size="10.00">Options &gt;</text>
</a>
</g>
</g>
<!-- Node1&#45;&gt;Node2 -->
<g id="edge1_Node000001_Node000002" class="edge">
<title>Node1&#45;&gt;Node2</title>
<g id="a_edge1_Node000001_Node000002"><a xlink:title=" ">
<path fill="none" stroke="#63b8ff" d="M84.02,-113.16C102.3,-123.31 127.71,-136.7 151,-146.5 158.36,-149.59 166.09,-152.59 173.88,-155.45"/>
<polygon fill="#63b8ff" stroke="#63b8ff" points="85.59,-110.03 75.16,-108.19 82.16,-116.13 85.59,-110.03"/>
</a>
</g>
</g>
<!-- Node3 -->
<g id="Node000003" class="node">
<title>Node3</title>
<g id="a_Node000003"><a xlink:href="structmlir_1_1gpu_1_1GPUToNVVMPipelineOptions.html" target="_top" xlink:title="Options for the gpu to nvvm pipeline.">
<polygon fill="white" stroke="#666666" points="366,-137.5 151,-137.5 151,-107.5 366,-107.5 366,-137.5"/>
<text text-anchor="start" x="159" y="-125.5" font-family="Helvetica,sans-Serif" font-size="10.00">mlir::gpu::GPUToNVVMPipeline</text>
<text text-anchor="middle" x="258.5" y="-114.5" font-family="Helvetica,sans-Serif" font-size="10.00">Options&lt; GPUToNVVMPipelineOptions &gt;</text>
</a>
</g>
</g>
<!-- Node1&#45;&gt;Node3 -->
<g id="edge2_Node000001_Node000003" class="edge">
<title>Node1&#45;&gt;Node3</title>
<g id="a_edge2_Node000001_Node000003"><a xlink:title=" ">
<path fill="none" stroke="#63b8ff" d="M125.23,-106.55C133.56,-107.55 142.23,-108.6 150.98,-109.65"/>
<polygon fill="#63b8ff" stroke="#63b8ff" points="125.61,-103.07 115.26,-105.35 124.77,-110.02 125.61,-103.07"/>
</a>
</g>
</g>
<!-- Node4 -->
<g id="Node000004" class="node">
<title>Node4</title>
<g id="a_Node000004"><a xlink:href="structmlir_1_1gpu_1_1GPUToXeVMPipelineOptions.html" target="_top" xlink:title=" ">
<polygon fill="white" stroke="#666666" points="365,-89.5 152,-89.5 152,-59.5 365,-59.5 365,-89.5"/>
<text text-anchor="start" x="160" y="-77.5" font-family="Helvetica,sans-Serif" font-size="10.00">mlir::gpu::GPUToXeVMPipeline</text>
<text text-anchor="middle" x="258.5" y="-66.5" font-family="Helvetica,sans-Serif" font-size="10.00">Options&lt; GPUToXeVMPipelineOptions &gt;</text>
</a>
</g>
</g>
<!-- Node1&#45;&gt;Node4 -->
<g id="edge3_Node000001_Node000004" class="edge">
<title>Node1&#45;&gt;Node4</title>
<g id="a_edge3_Node000001_Node000004"><a xlink:title=" ">
<path fill="none" stroke="#63b8ff" d="M125.44,-90.43C133.94,-89.4 142.8,-88.33 151.73,-87.26"/>
<polygon fill="#63b8ff" stroke="#63b8ff" points="124.77,-86.98 115.26,-91.65 125.61,-93.93 124.77,-86.98"/>
</a>
</g>
</g>
<!-- Node5 -->
<g id="Node000005" class="node">
<title>Node5</title>
<g id="a_Node000005"><a xlink:href="structmlir_1_1sparse__tensor_1_1SparsifierOptions.html" target="_top" xlink:title="Options for the &quot;sparsifier&quot; pipeline.">
<polygon fill="white" stroke="#666666" points="319.5,-41 197.5,-41 197.5,0 319.5,0 319.5,-41"/>
<text text-anchor="start" x="205.5" y="-29" font-family="Helvetica,sans-Serif" font-size="10.00">mlir::sparse_tensor</text>
<text text-anchor="start" x="205.5" y="-18" font-family="Helvetica,sans-Serif" font-size="10.00">::SparsifierOptions</text>
<text text-anchor="middle" x="258.5" y="-7" font-family="Helvetica,sans-Serif" font-size="10.00">&lt; SparsifierOptions &gt;</text>
</a>
</g>
</g>
<!-- Node1&#45;&gt;Node5 -->
<g id="edge4_Node000001_Node000005" class="edge">
<title>Node1&#45;&gt;Node5</title>
<g id="a_edge4_Node000001_Node000005"><a xlink:title=" ">
<path fill="none" stroke="#63b8ff" d="M83.23,-83.9C101.5,-73.56 127.22,-59.91 151,-50.5 165.74,-44.67 182.04,-39.48 197.36,-35.13"/>
<polygon fill="#63b8ff" stroke="#63b8ff" points="81.33,-80.95 74.4,-88.97 84.82,-87.02 81.33,-80.95"/>
</a>
</g>
</g>
</g>
</svg>
