<?xml version="1.0" encoding="UTF-8" standalone="no"?>
<!DOCTYPE svg PUBLIC "-//W3C//DTD SVG 1.1//EN"
 "http://www.w3.org/Graphics/SVG/1.1/DTD/svg11.dtd">
<!-- Generated by graphviz version 2.43.0 (0)
 -->
<!-- Title: ConvInferShapeAdaptor&lt; Conv3DOp::Adaptor &gt; Pages: 1 -->
<svg width="340pt" height="121pt"
 viewBox="0.00 0.00 340.00 121.00" xmlns="http://www.w3.org/2000/svg" xmlns:xlink="http://www.w3.org/1999/xlink">
<g id="graph0" class="graph" transform="scale(1 1) rotate(0) translate(4 117)">
<title>ConvInferShapeAdaptor&lt; Conv3DOp::Adaptor &gt;</title>
<!-- Node1 -->
<g id="Node000001" class="node">
<title>Node1</title>
<g id="a_Node000001"><a xlink:title=" ">
<polygon fill="#999999" stroke="#666666" points="226.5,-30 91.5,-30 91.5,0 226.5,0 226.5,-30"/>
<text text-anchor="start" x="99.5" y="-18" font-family="Helvetica,sans-Serif" font-size="10.00">ConvInferShapeAdaptor</text>
<text text-anchor="middle" x="159" y="-7" font-family="Helvetica,sans-Serif" font-size="10.00">&lt; Conv3DOp::Adaptor &gt;</text>
</a>
</g>
</g>
<!-- Node2 -->
<g id="Node000002" class="node">
<title>Node2</title>
<g id="a_Node000002"><a xlink:href="classConvInferShapeAdaptorBase.html" target="_top" xlink:title=" ">
<polygon fill="white" stroke="#666666" points="156,-107.5 0,-107.5 0,-88.5 156,-88.5 156,-107.5"/>
<text text-anchor="middle" x="78" y="-95.5" font-family="Helvetica,sans-Serif" font-size="10.00">ConvInferShapeAdaptorBase</text>
</a>
</g>
</g>
<!-- Node2&#45;&gt;Node1 -->
<g id="edge1_Node000001_Node000002" class="edge">
<title>Node2&#45;&gt;Node1</title>
<g id="a_edge1_Node000001_Node000002"><a xlink:title=" ">
<path fill="none" stroke="#63b8ff" d="M94.12,-80.88C108.98,-66.02 130.83,-44.17 144.99,-30.01"/>
<polygon fill="#63b8ff" stroke="#63b8ff" points="91.26,-78.79 86.67,-88.33 96.21,-83.74 91.26,-78.79"/>
</a>
</g>
</g>
<!-- Node3 -->
<g id="Node000003" class="node">
<title>Node3</title>
<g id="a_Node000003"><a xlink:href="classConvInferShapeAdaptor.html" target="_top" xlink:title=" ">
<polygon fill="white" stroke="#666666" points="306,-113 174,-113 174,-83 306,-83 306,-113"/>
<text text-anchor="start" x="182" y="-101" font-family="Helvetica,sans-Serif" font-size="10.00">ConvInferShapeAdaptor</text>
<text text-anchor="middle" x="240" y="-90" font-family="Helvetica,sans-Serif" font-size="10.00">&lt; AdaptorT &gt;</text>
</a>
</g>
</g>
<!-- Node3&#45;&gt;Node1 -->
<g id="edge2_Node000001_Node000003" class="edge">
<title>Node3&#45;&gt;Node1</title>
<g id="a_edge2_Node000001_Node000003"><a xlink:title=" ">
<path fill="none" stroke="orange" stroke-dasharray="5,2" d="M218.82,-75.82C204.45,-61.45 185.84,-42.84 173.22,-30.22"/>
<polygon fill="orange" stroke="orange" points="216.34,-78.29 225.89,-82.89 221.29,-73.34 216.34,-78.29"/>
</a>
</g>
<text text-anchor="start" x="210.5" y="-53.5" font-family="Helvetica,sans-Serif" font-size="10.00" fill="grey">&lt; Conv3DOp::Adaptor &gt;</text>
</g>
</g>
</svg>
