<?xml version="1.0" encoding="UTF-8" standalone="no"?>
<!DOCTYPE svg PUBLIC "-//W3C//DTD SVG 1.1//EN"
 "http://www.w3.org/Graphics/SVG/1.1/DTD/svg11.dtd">
<!-- Generated by graphviz version 2.43.0 (0)
 -->
<!-- Title: mlir::polynomial::IntPolynomial Pages: 1 -->
<svg width="268pt" height="174pt"
 viewBox="0.00 0.00 268.00 174.00" xmlns="http://www.w3.org/2000/svg" xmlns:xlink="http://www.w3.org/1999/xlink">
<g id="graph0" class="graph" transform="scale(1 1) rotate(0) translate(4 170)">
<title>mlir::polynomial::IntPolynomial</title>
<!-- Node1 -->
<g id="node1" class="node">
<title>Node1</title>
<g id="a_node1"><a xlink:title="A single&#45;variable polynomial with integer coefficients.">
<polygon fill="#bfbfbf" stroke="black" points="14,-0.5 14,-19.5 184,-19.5 184,-0.5 14,-0.5"/>
<text text-anchor="middle" x="99" y="-7.5" font-family="Helvetica,sans-Serif" font-size="10.00">mlir::polynomial::IntPolynomial</text>
</a>
</g>
</g>
<!-- Node2 -->
<g id="node2" class="node">
<title>Node2</title>
<g id="a_node2"><a xlink:href="classmlir_1_1polynomial_1_1PolynomialBase.html" target="_top" xlink:title=" ">
<polygon fill="none" stroke="black" points="0,-57.5 0,-87.5 198,-87.5 198,-57.5 0,-57.5"/>
<text text-anchor="start" x="8" y="-75.5" font-family="Helvetica,sans-Serif" font-size="10.00">mlir::polynomial::Polynomial</text>
<text text-anchor="middle" x="99" y="-64.5" font-family="Helvetica,sans-Serif" font-size="10.00">Base&lt; IntPolynomial, IntMonomial &gt;</text>
</a>
</g>
</g>
<!-- Node2&#45;&gt;Node1 -->
<g id="edge1" class="edge">
<title>Node2&#45;&gt;Node1</title>
<path fill="none" stroke="midnightblue" d="M99,-47.35C99,-37.51 99,-26.78 99,-19.54"/>
<polygon fill="midnightblue" stroke="midnightblue" points="95.5,-47.47 99,-57.47 102.5,-47.47 95.5,-47.47"/>
</g>
<!-- Node3 -->
<g id="node3" class="node">
<title>Node3</title>
<g id="a_node3"><a xlink:href="classmlir_1_1polynomial_1_1PolynomialBase.html" target="_top" xlink:title=" ">
<polygon fill="none" stroke="black" points="20,-135.5 20,-165.5 178,-165.5 178,-135.5 20,-135.5"/>
<text text-anchor="start" x="28" y="-153.5" font-family="Helvetica,sans-Serif" font-size="10.00">mlir::polynomial::Polynomial</text>
<text text-anchor="middle" x="99" y="-142.5" font-family="Helvetica,sans-Serif" font-size="10.00">Base&lt; Derived, Monomial &gt;</text>
</a>
</g>
</g>
<!-- Node3&#45;&gt;Node2 -->
<g id="edge2" class="edge">
<title>Node3&#45;&gt;Node2</title>
<path fill="none" stroke="orange" stroke-dasharray="5,2" d="M99,-125.09C99,-112.76 99,-98.22 99,-87.73"/>
<polygon fill="orange" stroke="orange" points="95.5,-125.2 99,-135.2 102.5,-125.21 95.5,-125.2"/>
<text text-anchor="middle" x="179.5" y="-109" font-family="Helvetica,sans-Serif" font-size="10.00"> &lt; IntPolynomial, IntMonomial &gt;</text>
</g>
</g>
</svg>
