<?xml version="1.0" encoding="UTF-8" standalone="no"?>
<!DOCTYPE svg PUBLIC "-//W3C//DTD SVG 1.1//EN"
 "http://www.w3.org/Graphics/SVG/1.1/DTD/svg11.dtd">
<!-- Generated by graphviz version 2.43.0 (0)
 -->
<!-- Title: mlir::spirv::CooperativeMatrixType Pages: 1 -->
<svg width="907pt" height="144pt"
 viewBox="0.00 0.00 907.00 144.00" xmlns="http://www.w3.org/2000/svg" xmlns:xlink="http://www.w3.org/1999/xlink">
<g id="graph0" class="graph" transform="scale(1 1) rotate(0) translate(4 140)">
<title>mlir::spirv::CooperativeMatrixType</title>
<!-- Node1 -->
<g id="Node000001" class="node">
<title>Node1</title>
<g id="a_Node000001"><a xlink:title=" ">
<polygon fill="#999999" stroke="#666666" points="899,-104.5 768,-104.5 768,-74.5 899,-74.5 899,-104.5"/>
<text text-anchor="start" x="776" y="-92.5" font-family="Helvetica,sans-Serif" font-size="10.00">mlir::spirv::Cooperative</text>
<text text-anchor="middle" x="833.5" y="-81.5" font-family="Helvetica,sans-Serif" font-size="10.00">MatrixType</text>
</a>
</g>
</g>
<!-- Node2 -->
<g id="Node000002" class="node">
<title>Node2</title>
<g id="a_Node000002"><a xlink:href="classmlir_1_1detail_1_1StorageUserBase.html" target="_top" xlink:title=" ">
<polygon fill="white" stroke="#666666" points="731,-115.5 524,-115.5 524,-63.5 731,-63.5 731,-115.5"/>
<text text-anchor="start" x="532" y="-103.5" font-family="Helvetica,sans-Serif" font-size="10.00">Type::TypeBase&lt; Cooperative</text>
<text text-anchor="start" x="532" y="-92.5" font-family="Helvetica,sans-Serif" font-size="10.00">MatrixType, CompositeType,</text>
<text text-anchor="start" x="532" y="-81.5" font-family="Helvetica,sans-Serif" font-size="10.00"> detail::CooperativeMatrixTypeStorage,</text>
<text text-anchor="middle" x="627.5" y="-70.5" font-family="Helvetica,sans-Serif" font-size="10.00"> ShapedType::Trait &gt;</text>
</a>
</g>
</g>
<!-- Node2&#45;&gt;Node1 -->
<g id="edge1_Node000001_Node000002" class="edge">
<title>Node2&#45;&gt;Node1</title>
<g id="a_edge1_Node000001_Node000002"><a xlink:title=" ">
<path fill="none" stroke="#63b8ff" d="M741.33,-89.5C750.37,-89.5 759.3,-89.5 767.82,-89.5"/>
<polygon fill="#63b8ff" stroke="#63b8ff" points="741.1,-86 731.1,-89.5 741.1,-93 741.1,-86"/>
</a>
</g>
</g>
<!-- Node3 -->
<g id="Node000003" class="node">
<title>Node3</title>
<g id="a_Node000003"><a xlink:title=" ">
<polygon fill="white" stroke="#666666" points="262,-136 199,-136 199,-117 262,-117 262,-136"/>
<text text-anchor="middle" x="230.5" y="-124" font-family="Helvetica,sans-Serif" font-size="10.00">BaseType</text>
</a>
</g>
</g>
<!-- Node3&#45;&gt;Node2 -->
<g id="edge2_Node000002_Node000003" class="edge">
<title>Node3&#45;&gt;Node2</title>
<g id="a_edge2_Node000002_Node000003"><a xlink:title=" ">
<path fill="none" stroke="#63b8ff" d="M272.55,-123.47C326.25,-119.42 423.24,-111.77 506,-103.5 511.87,-102.91 517.89,-102.29 523.97,-101.64"/>
<polygon fill="#63b8ff" stroke="#63b8ff" points="272.11,-120 262.4,-124.24 272.64,-126.98 272.11,-120"/>
</a>
</g>
</g>
<!-- Node4 -->
<g id="Node000004" class="node">
<title>Node4</title>
<g id="a_Node000004"><a xlink:title=" ">
<polygon fill="white" stroke="#666666" points="296,-99 165,-99 165,-80 296,-80 296,-99"/>
<text text-anchor="middle" x="230.5" y="-87" font-family="Helvetica,sans-Serif" font-size="10.00">Traits&lt; ConcreteType &gt;</text>
</a>
</g>
</g>
<!-- Node4&#45;&gt;Node2 -->
<g id="edge3_Node000002_Node000004" class="edge">
<title>Node4&#45;&gt;Node2</title>
<g id="a_edge3_Node000002_Node000004"><a xlink:title=" ">
<path fill="none" stroke="#63b8ff" d="M306.31,-89.5C367.85,-89.5 455.7,-89.5 523.82,-89.5"/>
<polygon fill="#63b8ff" stroke="#63b8ff" points="306.28,-86 296.28,-89.5 306.28,-93 306.28,-86"/>
</a>
</g>
</g>
<!-- Node5 -->
<g id="Node000005" class="node">
<title>Node5</title>
<g id="a_Node000005"><a xlink:href="classmlir_1_1detail_1_1StorageUserBase.html" target="_top" xlink:title="Utility class for implementing users of storage classes uniqued by a StorageUniquer.">
<polygon fill="white" stroke="#666666" points="309,-48 152,-48 152,-7 309,-7 309,-48"/>
<text text-anchor="start" x="160" y="-36" font-family="Helvetica,sans-Serif" font-size="10.00">mlir::detail::StorageUser</text>
<text text-anchor="start" x="160" y="-25" font-family="Helvetica,sans-Serif" font-size="10.00">Base&lt; ConcreteT, BaseT,</text>
<text text-anchor="middle" x="230.5" y="-14" font-family="Helvetica,sans-Serif" font-size="10.00"> StorageT, UniquerT, Traits &gt;</text>
</a>
</g>
</g>
<!-- Node5&#45;&gt;Node2 -->
<g id="edge4_Node000002_Node000005" class="edge">
<title>Node5&#45;&gt;Node2</title>
<g id="a_edge4_Node000002_Node000005"><a xlink:title=" ">
<path fill="none" stroke="orange" stroke-dasharray="5,2" d="M319.38,-23.06C373.76,-22.26 444.68,-24.77 506,-38.5 529.94,-43.86 555.13,-53.77 576.25,-63.45"/>
<polygon fill="orange" stroke="orange" points="319.01,-19.56 309.07,-23.25 319.14,-26.56 319.01,-19.56"/>
</a>
</g>
<text text-anchor="start" x="330.5" y="-74" font-family="Helvetica,sans-Serif" font-size="10.00" fill="grey">&lt; ConcreteType, BaseType,</text>
<text text-anchor="start" x="330.5" y="-59" font-family="Helvetica,sans-Serif" font-size="10.00" fill="grey">   StorageType, detail::TypeUniquer,</text>
<text text-anchor="start" x="330.5" y="-44" font-family="Helvetica,sans-Serif" font-size="10.00" fill="grey">   Traits... &gt;</text>
</g>
<!-- Node6 -->
<g id="Node000006" class="node">
<title>Node6</title>
<g id="a_Node000006"><a xlink:title=" ">
<polygon fill="white" stroke="#666666" points="81,-56 34,-56 34,-37 81,-37 81,-56"/>
<text text-anchor="middle" x="57.5" y="-44" font-family="Helvetica,sans-Serif" font-size="10.00">BaseT</text>
</a>
</g>
</g>
<!-- Node6&#45;&gt;Node5 -->
<g id="edge5_Node000005_Node000006" class="edge">
<title>Node6&#45;&gt;Node5</title>
<g id="a_edge5_Node000005_Node000006"><a xlink:title=" ">
<path fill="none" stroke="#63b8ff" d="M91.28,-42.86C108.49,-40.95 130.39,-38.51 151.65,-36.15"/>
<polygon fill="#63b8ff" stroke="#63b8ff" points="90.76,-39.39 81.21,-43.98 91.53,-46.35 90.76,-39.39"/>
</a>
</g>
</g>
<!-- Node7 -->
<g id="Node000007" class="node">
<title>Node7</title>
<g id="a_Node000007"><a xlink:title=" ">
<polygon fill="white" stroke="#666666" points="115,-19 0,-19 0,0 115,0 115,-19"/>
<text text-anchor="middle" x="57.5" y="-7" font-family="Helvetica,sans-Serif" font-size="10.00">Traits&lt; ConcreteT &gt;</text>
</a>
</g>
</g>
<!-- Node7&#45;&gt;Node5 -->
<g id="edge6_Node000005_Node000007" class="edge">
<title>Node7&#45;&gt;Node5</title>
<g id="a_edge6_Node000005_Node000007"><a xlink:title=" ">
<path fill="none" stroke="#63b8ff" d="M125.44,-16.55C134.09,-17.46 143,-18.39 151.8,-19.32"/>
<polygon fill="#63b8ff" stroke="#63b8ff" points="125.75,-13.06 115.44,-15.49 125.02,-20.02 125.75,-13.06"/>
</a>
</g>
</g>
</g>
</svg>
