<?xml version="1.0" encoding="UTF-8" standalone="no"?>
<!DOCTYPE svg PUBLIC "-//W3C//DTD SVG 1.1//EN"
 "http://www.w3.org/Graphics/SVG/1.1/DTD/svg11.dtd">
<!-- Generated by graphviz version 2.43.0 (0)
 -->
<!-- Title: mlir::OpTrait::VariadicResults&lt; ConcreteType &gt; Pages: 1 -->
<svg width="898pt" height="77pt"
 viewBox="0.00 0.00 898.00 77.00" xmlns="http://www.w3.org/2000/svg" xmlns:xlink="http://www.w3.org/1999/xlink">
<g id="graph0" class="graph" transform="scale(1 1) rotate(0) translate(4 73)">
<title>mlir::OpTrait::VariadicResults&lt; ConcreteType &gt;</title>
<!-- Node1 -->
<g id="node1" class="node">
<title>Node1</title>
<g id="a_node1"><a xlink:title="This class provides the API for ops which have an unknown number of results.">
<polygon fill="#bfbfbf" stroke="black" points="732,-33 732,-63 890,-63 890,-33 732,-33"/>
<text text-anchor="start" x="740" y="-51" font-family="Helvetica,sans-Serif" font-size="10.00">mlir::OpTrait::VariadicResults</text>
<text text-anchor="middle" x="811" y="-40" font-family="Helvetica,sans-Serif" font-size="10.00">&lt; ConcreteType &gt;</text>
</a>
</g>
</g>
<!-- Node2 -->
<g id="node2" class="node">
<title>Node2</title>
<g id="a_node2"><a xlink:href="structmlir_1_1OpTrait_1_1detail_1_1MultiResultTraitBase.html" target="_top" xlink:title=" ">
<polygon fill="none" stroke="black" points="509,-27.5 509,-68.5 695,-68.5 695,-27.5 509,-27.5"/>
<text text-anchor="start" x="517" y="-56.5" font-family="Helvetica,sans-Serif" font-size="10.00">mlir::OpTrait::detail</text>
<text text-anchor="start" x="517" y="-45.5" font-family="Helvetica,sans-Serif" font-size="10.00">::MultiResultTraitBase</text>
<text text-anchor="middle" x="602" y="-34.5" font-family="Helvetica,sans-Serif" font-size="10.00">&lt; ConcreteType, VariadicResults &gt;</text>
</a>
</g>
</g>
<!-- Node2&#45;&gt;Node1 -->
<g id="edge1" class="edge">
<title>Node2&#45;&gt;Node1</title>
<path fill="none" stroke="midnightblue" d="M705.33,-48C714.22,-48 723.13,-48 731.79,-48"/>
<polygon fill="midnightblue" stroke="midnightblue" points="705.3,-44.5 695.3,-48 705.3,-51.5 705.3,-44.5"/>
</g>
<!-- Node3 -->
<g id="node3" class="node">
<title>Node3</title>
<g id="a_node3"><a xlink:href="classmlir_1_1OpTrait_1_1TraitBase.html" target="_top" xlink:title="Helper class for implementing traits.">
<polygon fill="none" stroke="black" points="0,-30 0,-60 155,-60 155,-30 0,-30"/>
<text text-anchor="start" x="8" y="-48" font-family="Helvetica,sans-Serif" font-size="10.00">mlir::OpTrait::TraitBase</text>
<text text-anchor="middle" x="77.5" y="-37" font-family="Helvetica,sans-Serif" font-size="10.00">&lt; ConcreteType, TraitType &gt;</text>
</a>
</g>
</g>
<!-- Node3&#45;&gt;Node2 -->
<g id="edge2" class="edge">
<title>Node3&#45;&gt;Node2</title>
<path fill="none" stroke="midnightblue" d="M165.5,-50.5C248.99,-55.02 378.63,-60.08 491,-56 496.84,-55.79 502.84,-55.51 508.9,-55.19"/>
<polygon fill="midnightblue" stroke="midnightblue" points="165.48,-46.99 155.3,-49.94 165.09,-53.98 165.48,-46.99"/>
</g>
<!-- Node4 -->
<g id="node4" class="node">
<title>Node4</title>
<g id="a_node4"><a xlink:href="structmlir_1_1OpTrait_1_1detail_1_1MultiResultTraitBase.html" target="_top" xlink:title="Utility trait base that provides accessors for derived traits that have multiple results.">
<polygon fill="none" stroke="black" points="192,-0.5 192,-41.5 347,-41.5 347,-0.5 192,-0.5"/>
<text text-anchor="start" x="200" y="-29.5" font-family="Helvetica,sans-Serif" font-size="10.00">mlir::OpTrait::detail</text>
<text text-anchor="start" x="200" y="-18.5" font-family="Helvetica,sans-Serif" font-size="10.00">::MultiResultTraitBase</text>
<text text-anchor="middle" x="269.5" y="-7.5" font-family="Helvetica,sans-Serif" font-size="10.00">&lt; ConcreteType, TraitType &gt;</text>
</a>
</g>
</g>
<!-- Node3&#45;&gt;Node4 -->
<g id="edge4" class="edge">
<title>Node3&#45;&gt;Node4</title>
<path fill="none" stroke="midnightblue" d="M165.19,-34.05C174.06,-32.93 183.04,-31.8 191.79,-30.69"/>
<polygon fill="midnightblue" stroke="midnightblue" points="164.72,-30.58 155.23,-35.31 165.59,-37.53 164.72,-30.58"/>
</g>
<!-- Node4&#45;&gt;Node2 -->
<g id="edge3" class="edge">
<title>Node4&#45;&gt;Node2</title>
<path fill="none" stroke="orange" stroke-dasharray="5,2" d="M357.28,-24.76C397.93,-26.87 447,-29.91 491,-34 496.85,-34.54 502.86,-35.16 508.92,-35.81"/>
<polygon fill="orange" stroke="orange" points="357.3,-21.25 347.13,-24.24 356.94,-28.24 357.3,-21.25"/>
<text text-anchor="start" x="365" y="-48" font-family="Helvetica,sans-Serif" font-size="10.00"> &lt; ConcreteType, Variadic</text>
<text text-anchor="middle" x="428" y="-37" font-family="Helvetica,sans-Serif" font-size="10.00">Results &gt;</text>
</g>
</g>
</svg>
