<?xml version="1.0" encoding="UTF-8" standalone="no"?>
<!DOCTYPE svg PUBLIC "-//W3C//DTD SVG 1.1//EN"
 "http://www.w3.org/Graphics/SVG/1.1/DTD/svg11.dtd">
<!-- Generated by graphviz version 2.43.0 (0)
 -->
<!-- Title: mlir::ConvertToLLVMPattern Pages: 1 -->
<svg width="1428pt" height="636pt"
 viewBox="0.00 0.00 1428.00 635.66" xmlns="http://www.w3.org/2000/svg" xmlns:xlink="http://www.w3.org/1999/xlink">
<g id="graph0" class="graph" transform="scale(1 1) rotate(0) translate(4 631.66)">
<title>mlir::ConvertToLLVMPattern</title>
<!-- Node1 -->
<g id="node1" class="node">
<title>Node1</title>
<g id="a_node1"><a xlink:title="Base class for operation conversions targeting the LLVM IR dialect.">
<polygon fill="#bfbfbf" stroke="black" points="433,-345.16 433,-364.16 584,-364.16 584,-345.16 433,-345.16"/>
<text text-anchor="middle" x="508.5" y="-352.16" font-family="Helvetica,sans-Serif" font-size="10.00">mlir::ConvertToLLVMPattern</text>
</a>
</g>
</g>
<!-- Node5 -->
<g id="node5" class="node">
<title>Node5</title>
<g id="a_node5"><a xlink:href="classmlir_1_1ConvertOpToLLVMPattern.html" target="_top" xlink:title=" ">
<polygon fill="none" stroke="black" points="1020,-547.66 1020,-577.66 1184,-577.66 1184,-547.66 1020,-547.66"/>
<text text-anchor="start" x="1028" y="-565.66" font-family="Helvetica,sans-Serif" font-size="10.00">mlir::ConvertOpToLLVMPattern</text>
<text text-anchor="middle" x="1102" y="-554.66" font-family="Helvetica,sans-Serif" font-size="10.00">&lt; Op &gt;</text>
</a>
</g>
</g>
<!-- Node1&#45;&gt;Node5 -->
<g id="edge4" class="edge">
<title>Node1&#45;&gt;Node5</title>
<path fill="none" stroke="midnightblue" d="M520.14,-373.09C537.49,-401.43 574.65,-455.4 621,-483.66 745.02,-559.29 919.07,-568.96 1019.93,-567.16"/>
<polygon fill="midnightblue" stroke="midnightblue" points="522.97,-371.01 514.84,-364.22 516.96,-374.6 522.97,-371.01"/>
</g>
<!-- Node7 -->
<g id="node7" class="node">
<title>Node7</title>
<g id="a_node7"><a xlink:href="classmlir_1_1ConvertOpToLLVMPattern.html" target="_top" xlink:title=" ">
<polygon fill="none" stroke="black" points="1020,-498.66 1020,-528.66 1184,-528.66 1184,-498.66 1020,-498.66"/>
<text text-anchor="start" x="1028" y="-516.66" font-family="Helvetica,sans-Serif" font-size="10.00">mlir::ConvertOpToLLVMPattern</text>
<text text-anchor="middle" x="1102" y="-505.66" font-family="Helvetica,sans-Serif" font-size="10.00">&lt; gpu::PrintfOp &gt;</text>
</a>
</g>
</g>
<!-- Node1&#45;&gt;Node7 -->
<g id="edge6" class="edge">
<title>Node1&#45;&gt;Node7</title>
<path fill="none" stroke="midnightblue" d="M528.21,-370.82C549.56,-388.67 586.06,-417.44 621,-436.66 697.07,-478.52 717.84,-490.75 803,-507.66 875.33,-522.02 959.47,-522.26 1019.86,-519.64"/>
<polygon fill="midnightblue" stroke="midnightblue" points="530.44,-368.12 520.54,-364.33 525.92,-373.47 530.44,-368.12"/>
</g>
<!-- Node11 -->
<g id="node11" class="node">
<title>Node11</title>
<g id="a_node11"><a xlink:href="classmlir_1_1ConvertOpToLLVMPattern.html" target="_top" xlink:title=" ">
<polygon fill="none" stroke="black" points="1020,-417.66 1020,-447.66 1184,-447.66 1184,-417.66 1020,-417.66"/>
<text text-anchor="start" x="1028" y="-435.66" font-family="Helvetica,sans-Serif" font-size="10.00">mlir::ConvertOpToLLVMPattern</text>
<text text-anchor="middle" x="1102" y="-424.66" font-family="Helvetica,sans-Serif" font-size="10.00">&lt; gpu::GPUFuncOp &gt;</text>
</a>
</g>
</g>
<!-- Node1&#45;&gt;Node11 -->
<g id="edge10" class="edge">
<title>Node1&#45;&gt;Node11</title>
<path fill="none" stroke="midnightblue" d="M540.87,-368.28C593.72,-390.42 704.42,-433.26 803,-448.66 882.48,-461.08 903.74,-454.12 984,-448.66 995.66,-447.87 1007.93,-446.63 1019.95,-445.2"/>
<polygon fill="midnightblue" stroke="midnightblue" points="541.96,-364.95 531.39,-364.28 539.23,-371.39 541.96,-364.95"/>
</g>
<!-- Node13 -->
<g id="node13" class="node">
<title>Node13</title>
<g id="a_node13"><a xlink:href="classmlir_1_1ConvertOpToLLVMPattern.html" target="_top" xlink:title=" ">
<polygon fill="none" stroke="black" points="1020,-368.66 1020,-398.66 1184,-398.66 1184,-368.66 1020,-368.66"/>
<text text-anchor="start" x="1028" y="-386.66" font-family="Helvetica,sans-Serif" font-size="10.00">mlir::ConvertOpToLLVMPattern</text>
<text text-anchor="middle" x="1102" y="-375.66" font-family="Helvetica,sans-Serif" font-size="10.00">&lt; gpu::ReturnOp &gt;</text>
</a>
</g>
</g>
<!-- Node1&#45;&gt;Node13 -->
<g id="edge12" class="edge">
<title>Node1&#45;&gt;Node13</title>
<path fill="none" stroke="midnightblue" d="M594.16,-358.81C707.79,-364.38 908.25,-374.21 1019.98,-379.69"/>
<polygon fill="midnightblue" stroke="midnightblue" points="594.27,-355.31 584.11,-358.32 593.93,-362.31 594.27,-355.31"/>
</g>
<!-- Node15 -->
<g id="node15" class="node">
<title>Node15</title>
<g id="a_node15"><a xlink:href="classmlir_1_1ConvertOpToLLVMPattern.html" target="_top" xlink:title=" ">
<polygon fill="none" stroke="black" points="1020,-123.66 1020,-153.66 1184,-153.66 1184,-123.66 1020,-123.66"/>
<text text-anchor="start" x="1028" y="-141.66" font-family="Helvetica,sans-Serif" font-size="10.00">mlir::ConvertOpToLLVMPattern</text>
<text text-anchor="middle" x="1102" y="-130.66" font-family="Helvetica,sans-Serif" font-size="10.00">&lt; memref::TransposeOp &gt;</text>
</a>
</g>
</g>
<!-- Node1&#45;&gt;Node15 -->
<g id="edge14" class="edge">
<title>Node1&#45;&gt;Node15</title>
<path fill="none" stroke="midnightblue" d="M523.86,-337.05C562.84,-290.86 676.2,-166.73 803,-122.66 884.24,-94.43 985.42,-109.54 1046.53,-123.65"/>
<polygon fill="midnightblue" stroke="midnightblue" points="520.98,-335.05 517.27,-344.97 526.36,-339.52 520.98,-335.05"/>
</g>
<!-- Node17 -->
<g id="node17" class="node">
<title>Node17</title>
<g id="a_node17"><a xlink:href="classmlir_1_1ConvertOpToLLVMPattern.html" target="_top" xlink:title=" ">
<polygon fill="none" stroke="black" points="1005,-74.66 1005,-104.66 1199,-104.66 1199,-74.66 1005,-74.66"/>
<text text-anchor="start" x="1013" y="-92.66" font-family="Helvetica,sans-Serif" font-size="10.00">mlir::ConvertOpToLLVMPattern</text>
<text text-anchor="middle" x="1102" y="-81.66" font-family="Helvetica,sans-Serif" font-size="10.00">&lt; gpu::DynamicSharedMemoryOp &gt;</text>
</a>
</g>
</g>
<!-- Node1&#45;&gt;Node17 -->
<g id="edge16" class="edge">
<title>Node1&#45;&gt;Node17</title>
<path fill="none" stroke="midnightblue" d="M512.71,-334.61C521.17,-288.96 548.62,-177.22 621,-125.66 744.36,-37.78 933.65,-56.29 1033.68,-74.6"/>
<polygon fill="midnightblue" stroke="midnightblue" points="509.22,-334.27 510.95,-344.72 516.11,-335.47 509.22,-334.27"/>
</g>
<!-- Node19 -->
<g id="node19" class="node">
<title>Node19</title>
<g id="a_node19"><a xlink:href="classmlir_1_1ConvertOpToLLVMPattern.html" target="_top" xlink:title=" ">
<polygon fill="none" stroke="black" points="1020,-25.66 1020,-55.66 1184,-55.66 1184,-25.66 1020,-25.66"/>
<text text-anchor="start" x="1028" y="-43.66" font-family="Helvetica,sans-Serif" font-size="10.00">mlir::ConvertOpToLLVMPattern</text>
<text text-anchor="middle" x="1102" y="-32.66" font-family="Helvetica,sans-Serif" font-size="10.00">&lt; cf::AssertOp &gt;</text>
</a>
</g>
</g>
<!-- Node1&#45;&gt;Node19 -->
<g id="edge18" class="edge">
<title>Node1&#45;&gt;Node19</title>
<path fill="none" stroke="midnightblue" d="M510.08,-335.13C512.87,-280.9 528.93,-128.15 621,-61.66 749.48,31.13 951.65,-2.25 1047.36,-25.63"/>
<polygon fill="midnightblue" stroke="midnightblue" points="506.59,-335 509.67,-345.14 513.58,-335.29 506.59,-335"/>
</g>
<!-- Node21 -->
<g id="node21" class="node">
<title>Node21</title>
<g id="a_node21"><a xlink:href="classmlir_1_1ConvertOpToLLVMPattern.html" target="_top" xlink:title="Utility class for operation conversions targeting the LLVM dialect that match exactly one source oper...">
<polygon fill="none" stroke="black" points="621,-282.66 621,-312.66 785,-312.66 785,-282.66 621,-282.66"/>
<text text-anchor="start" x="629" y="-300.66" font-family="Helvetica,sans-Serif" font-size="10.00">mlir::ConvertOpToLLVMPattern</text>
<text text-anchor="middle" x="703" y="-289.66" font-family="Helvetica,sans-Serif" font-size="10.00">&lt; SourceOp &gt;</text>
</a>
</g>
</g>
<!-- Node1&#45;&gt;Node21 -->
<g id="edge20" class="edge">
<title>Node1&#45;&gt;Node21</title>
<path fill="none" stroke="midnightblue" d="M551.64,-342.18C580.94,-333.51 620.15,-321.9 651.18,-312.71"/>
<polygon fill="midnightblue" stroke="midnightblue" points="550.31,-338.93 541.72,-345.12 552.3,-345.64 550.31,-338.93"/>
</g>
<!-- Node2 -->
<g id="node2" class="node">
<title>Node2</title>
<g id="a_node2"><a xlink:href="classmlir_1_1ConversionPattern.html" target="_top" xlink:title="Base class for the conversion patterns.">
<polygon fill="none" stroke="black" points="265,-345.16 265,-364.16 396,-364.16 396,-345.16 265,-345.16"/>
<text text-anchor="middle" x="330.5" y="-352.16" font-family="Helvetica,sans-Serif" font-size="10.00">mlir::ConversionPattern</text>
</a>
</g>
</g>
<!-- Node2&#45;&gt;Node1 -->
<g id="edge1" class="edge">
<title>Node2&#45;&gt;Node1</title>
<path fill="none" stroke="midnightblue" d="M406.26,-354.66C415.06,-354.66 424.04,-354.66 432.84,-354.66"/>
<polygon fill="midnightblue" stroke="midnightblue" points="406.04,-351.16 396.04,-354.66 406.04,-358.16 406.04,-351.16"/>
</g>
<!-- Node3 -->
<g id="node3" class="node">
<title>Node3</title>
<g id="a_node3"><a xlink:href="classmlir_1_1RewritePattern.html" target="_top" xlink:title="RewritePattern is the common base class for all DAG to DAG replacements.">
<polygon fill="none" stroke="black" points="114,-345.16 114,-364.16 228,-364.16 228,-345.16 114,-345.16"/>
<text text-anchor="middle" x="171" y="-352.16" font-family="Helvetica,sans-Serif" font-size="10.00">mlir::RewritePattern</text>
</a>
</g>
</g>
<!-- Node3&#45;&gt;Node2 -->
<g id="edge2" class="edge">
<title>Node3&#45;&gt;Node2</title>
<path fill="none" stroke="midnightblue" d="M238.54,-354.66C247.27,-354.66 256.21,-354.66 264.9,-354.66"/>
<polygon fill="midnightblue" stroke="midnightblue" points="238.42,-351.16 228.42,-354.66 238.42,-358.16 238.42,-351.16"/>
</g>
<!-- Node4 -->
<g id="node4" class="node">
<title>Node4</title>
<g id="a_node4"><a xlink:href="classmlir_1_1Pattern.html" target="_top" xlink:title="This class contains all of the data related to a pattern, but does not contain any methods or logic f...">
<polygon fill="none" stroke="black" points="0,-345.16 0,-364.16 77,-364.16 77,-345.16 0,-345.16"/>
<text text-anchor="middle" x="38.5" y="-352.16" font-family="Helvetica,sans-Serif" font-size="10.00">mlir::Pattern</text>
</a>
</g>
</g>
<!-- Node4&#45;&gt;Node3 -->
<g id="edge3" class="edge">
<title>Node4&#45;&gt;Node3</title>
<path fill="none" stroke="midnightblue" d="M87.47,-354.66C96.06,-354.66 105.09,-354.66 113.89,-354.66"/>
<polygon fill="midnightblue" stroke="midnightblue" points="87.25,-351.16 77.25,-354.66 87.25,-358.16 87.25,-351.16"/>
</g>
<!-- Node6 -->
<g id="node6" class="node">
<title>Node6</title>
<g id="a_node6"><a xlink:href="structmlir_1_1gpu_1_1index__lowering_1_1OpLowering.html" target="_top" xlink:title=" ">
<polygon fill="none" stroke="black" points="1259.5,-586.16 1259.5,-627.16 1399.5,-627.16 1399.5,-586.16 1259.5,-586.16"/>
<text text-anchor="start" x="1267.5" y="-615.16" font-family="Helvetica,sans-Serif" font-size="10.00">mlir::gpu::index_lowering</text>
<text text-anchor="start" x="1267.5" y="-604.16" font-family="Helvetica,sans-Serif" font-size="10.00">::OpLowering&lt; Op, XOp,</text>
<text text-anchor="middle" x="1329.5" y="-593.16" font-family="Helvetica,sans-Serif" font-size="10.00"> YOp, ZOp &gt;</text>
</a>
</g>
</g>
<!-- Node5&#45;&gt;Node6 -->
<g id="edge5" class="edge">
<title>Node5&#45;&gt;Node6</title>
<path fill="none" stroke="midnightblue" d="M1190.07,-579.65C1213.05,-584.13 1237.54,-588.91 1259.43,-593.18"/>
<polygon fill="midnightblue" stroke="midnightblue" points="1190.46,-576.16 1179.97,-577.68 1189.12,-583.03 1190.46,-576.16"/>
</g>
<!-- Node8 -->
<g id="node8" class="node">
<title>Node8</title>
<g id="a_node8"><a xlink:href="structmlir_1_1GPUPrintfOpToHIPLowering.html" target="_top" xlink:title="The lowering of gpu.printf to a call to HIP hostcalls.">
<polygon fill="none" stroke="black" points="1242.5,-548.16 1242.5,-567.16 1416.5,-567.16 1416.5,-548.16 1242.5,-548.16"/>
<text text-anchor="middle" x="1329.5" y="-555.16" font-family="Helvetica,sans-Serif" font-size="10.00">mlir::GPUPrintfOpToHIPLowering</text>
</a>
</g>
</g>
<!-- Node7&#45;&gt;Node8 -->
<g id="edge7" class="edge">
<title>Node7&#45;&gt;Node8</title>
<path fill="none" stroke="midnightblue" d="M1190.17,-530.67C1220.57,-536.6 1253.6,-543.05 1279.75,-548.15"/>
<polygon fill="midnightblue" stroke="midnightblue" points="1190.46,-527.16 1179.97,-528.68 1189.12,-534.03 1190.46,-527.16"/>
</g>
<!-- Node9 -->
<g id="node9" class="node">
<title>Node9</title>
<g id="a_node9"><a xlink:href="structmlir_1_1GPUPrintfOpToLLVMCallLowering.html" target="_top" xlink:title="The lowering of gpu.printf to a call to an external printf() function.">
<polygon fill="none" stroke="black" points="1250.5,-498.66 1250.5,-528.66 1408.5,-528.66 1408.5,-498.66 1250.5,-498.66"/>
<text text-anchor="start" x="1258.5" y="-516.66" font-family="Helvetica,sans-Serif" font-size="10.00">mlir::GPUPrintfOpToLLVMCall</text>
<text text-anchor="middle" x="1329.5" y="-505.66" font-family="Helvetica,sans-Serif" font-size="10.00">Lowering</text>
</a>
</g>
</g>
<!-- Node7&#45;&gt;Node9 -->
<g id="edge8" class="edge">
<title>Node7&#45;&gt;Node9</title>
<path fill="none" stroke="midnightblue" d="M1194.32,-513.66C1212.91,-513.66 1232.31,-513.66 1250.39,-513.66"/>
<polygon fill="midnightblue" stroke="midnightblue" points="1194.09,-510.16 1184.09,-513.66 1194.09,-517.16 1194.09,-510.16"/>
</g>
<!-- Node10 -->
<g id="node10" class="node">
<title>Node10</title>
<g id="a_node10"><a xlink:href="structmlir_1_1GPUPrintfOpToVPrintfLowering.html" target="_top" xlink:title="Lowering of gpu.printf to a vprintf standard library.">
<polygon fill="none" stroke="black" points="1256.5,-449.66 1256.5,-479.66 1402.5,-479.66 1402.5,-449.66 1256.5,-449.66"/>
<text text-anchor="start" x="1264.5" y="-467.66" font-family="Helvetica,sans-Serif" font-size="10.00">mlir::GPUPrintfOpToVPrintf</text>
<text text-anchor="middle" x="1329.5" y="-456.66" font-family="Helvetica,sans-Serif" font-size="10.00">Lowering</text>
</a>
</g>
</g>
<!-- Node7&#45;&gt;Node10 -->
<g id="edge9" class="edge">
<title>Node7&#45;&gt;Node10</title>
<path fill="none" stroke="midnightblue" d="M1182.09,-496.48C1207.3,-491 1234.99,-484.98 1259.44,-479.67"/>
<polygon fill="midnightblue" stroke="midnightblue" points="1181.22,-493.08 1172.19,-498.63 1182.71,-499.92 1181.22,-493.08"/>
</g>
<!-- Node12 -->
<g id="node12" class="node">
<title>Node12</title>
<g id="a_node12"><a xlink:href="structmlir_1_1GPUFuncOpLowering.html" target="_top" xlink:title=" ">
<polygon fill="none" stroke="black" points="1258,-411.16 1258,-430.16 1401,-430.16 1401,-411.16 1258,-411.16"/>
<text text-anchor="middle" x="1329.5" y="-418.16" font-family="Helvetica,sans-Serif" font-size="10.00">mlir::GPUFuncOpLowering</text>
</a>
</g>
</g>
<!-- Node11&#45;&gt;Node12 -->
<g id="edge11" class="edge">
<title>Node11&#45;&gt;Node12</title>
<path fill="none" stroke="midnightblue" d="M1194.09,-427.81C1215.33,-426.68 1237.63,-425.5 1257.83,-424.42"/>
<polygon fill="midnightblue" stroke="midnightblue" points="1193.89,-424.32 1184.09,-428.35 1194.26,-431.31 1193.89,-424.32"/>
</g>
<!-- Node14 -->
<g id="node14" class="node">
<title>Node14</title>
<g id="a_node14"><a xlink:href="structmlir_1_1GPUReturnOpLowering.html" target="_top" xlink:title=" ">
<polygon fill="none" stroke="black" points="1253,-373.16 1253,-392.16 1406,-392.16 1406,-373.16 1253,-373.16"/>
<text text-anchor="middle" x="1329.5" y="-380.16" font-family="Helvetica,sans-Serif" font-size="10.00">mlir::GPUReturnOpLowering</text>
</a>
</g>
</g>
<!-- Node13&#45;&gt;Node14 -->
<g id="edge13" class="edge">
<title>Node13&#45;&gt;Node14</title>
<path fill="none" stroke="midnightblue" d="M1194.15,-383.26C1213.57,-383.17 1233.87,-383.08 1252.64,-383"/>
<polygon fill="midnightblue" stroke="midnightblue" points="1194.08,-379.76 1184.09,-383.3 1194.11,-386.76 1194.08,-379.76"/>
</g>
<!-- Node16 -->
<g id="node16" class="node">
<title>Node16</title>
<g id="a_node16"><a xlink:href="classTransposeOpLowering.html" target="_top" xlink:title="Rewrite AVX2&#45;specific vector.transpose, for the supported cases and depending on the TransposeLowerin...">
<polygon fill="none" stroke="black" points="1268,-129.16 1268,-148.16 1391,-148.16 1391,-129.16 1268,-129.16"/>
<text text-anchor="middle" x="1329.5" y="-136.16" font-family="Helvetica,sans-Serif" font-size="10.00">TransposeOpLowering</text>
</a>
</g>
</g>
<!-- Node15&#45;&gt;Node16 -->
<g id="edge15" class="edge">
<title>Node15&#45;&gt;Node16</title>
<path fill="none" stroke="midnightblue" d="M1194.25,-138.66C1219.04,-138.66 1245.28,-138.66 1267.92,-138.66"/>
<polygon fill="midnightblue" stroke="midnightblue" points="1194.09,-135.16 1184.09,-138.66 1194.09,-142.16 1194.09,-135.16"/>
</g>
<!-- Node18 -->
<g id="node18" class="node">
<title>Node18</title>
<g id="a_node18"><a xlink:href="structmlir_1_1GPUDynamicSharedMemoryOpLowering.html" target="_top" xlink:title="Lowering for gpu.dynamic.shared.memory to LLVM dialect.">
<polygon fill="none" stroke="black" points="1239,-74.66 1239,-104.66 1420,-104.66 1420,-74.66 1239,-74.66"/>
<text text-anchor="start" x="1247" y="-92.66" font-family="Helvetica,sans-Serif" font-size="10.00">mlir::GPUDynamicSharedMemory</text>
<text text-anchor="middle" x="1329.5" y="-81.66" font-family="Helvetica,sans-Serif" font-size="10.00">OpLowering</text>
</a>
</g>
</g>
<!-- Node17&#45;&gt;Node18 -->
<g id="edge17" class="edge">
<title>Node17&#45;&gt;Node18</title>
<path fill="none" stroke="midnightblue" d="M1209.52,-89.66C1219.37,-89.66 1229.29,-89.66 1238.97,-89.66"/>
<polygon fill="midnightblue" stroke="midnightblue" points="1209.29,-86.16 1199.29,-89.66 1209.29,-93.16 1209.29,-86.16"/>
</g>
<!-- Node20 -->
<g id="node20" class="node">
<title>Node20</title>
<g id="a_node20"><a xlink:href="classAssertOpLowering.html" target="_top" xlink:title=" ">
<polygon fill="none" stroke="black" points="1277,-31.16 1277,-50.16 1382,-50.16 1382,-31.16 1277,-31.16"/>
<text text-anchor="middle" x="1329.5" y="-38.16" font-family="Helvetica,sans-Serif" font-size="10.00">AssertOpLowering</text>
</a>
</g>
</g>
<!-- Node19&#45;&gt;Node20 -->
<g id="edge19" class="edge">
<title>Node19&#45;&gt;Node20</title>
<path fill="none" stroke="midnightblue" d="M1194.35,-40.66C1222.47,-40.66 1252.43,-40.66 1276.88,-40.66"/>
<polygon fill="midnightblue" stroke="midnightblue" points="1194.09,-37.16 1184.09,-40.66 1194.09,-44.16 1194.09,-37.16"/>
</g>
<!-- Node21&#45;&gt;Node5 -->
<g id="edge25" class="edge">
<title>Node21&#45;&gt;Node5</title>
<path fill="none" stroke="orange" stroke-dasharray="5,2" d="M711.5,-322.62C724.18,-360.67 753.45,-433.01 803,-473.66 874.93,-532.68 912.5,-513.24 1002,-538.66 1012.89,-541.75 1024.52,-544.8 1035.84,-547.63"/>
<polygon fill="orange" stroke="orange" points="714.75,-321.31 708.36,-312.86 708.09,-323.45 714.75,-321.31"/>
<text text-anchor="middle" x="893.5" y="-535.66" font-family="Helvetica,sans-Serif" font-size="10.00"> &lt; Op &gt;</text>
</g>
<!-- Node21&#45;&gt;Node7 -->
<g id="edge26" class="edge">
<title>Node21&#45;&gt;Node7</title>
<path fill="none" stroke="orange" stroke-dasharray="5,2" d="M717.88,-321.51C734.65,-348.22 765.38,-390.87 803,-414.66 873.34,-459.14 905.41,-435.29 984,-462.66 1013.71,-473.01 1046.46,-487.57 1069.74,-498.48"/>
<polygon fill="orange" stroke="orange" points="720.74,-319.48 712.53,-312.78 714.77,-323.14 720.74,-319.48"/>
<text text-anchor="middle" x="893.5" y="-465.66" font-family="Helvetica,sans-Serif" font-size="10.00"> &lt; gpu::PrintfOp &gt;</text>
</g>
<!-- Node21&#45;&gt;Node11 -->
<g id="edge27" class="edge">
<title>Node21&#45;&gt;Node11</title>
<path fill="none" stroke="orange" stroke-dasharray="5,2" d="M732.05,-318.65C751.18,-332.08 777.56,-348.93 803,-359.66 879.28,-391.82 903.6,-383.92 984,-403.66 1002.39,-408.18 1022.4,-413.12 1040.59,-417.63"/>
<polygon fill="orange" stroke="orange" points="733.97,-315.72 723.8,-312.76 729.9,-321.42 733.97,-315.72"/>
<text text-anchor="middle" x="893.5" y="-406.66" font-family="Helvetica,sans-Serif" font-size="10.00"> &lt; gpu::GPUFuncOp &gt;</text>
</g>
<!-- Node21&#45;&gt;Node13 -->
<g id="edge28" class="edge">
<title>Node21&#45;&gt;Node13</title>
<path fill="none" stroke="orange" stroke-dasharray="5,2" d="M771.36,-315.05C781.91,-317.47 792.72,-319.77 803,-321.66 882.75,-336.35 909.11,-313.55 984,-344.66 993.36,-348.55 992.89,-354.21 1002,-358.66 1009.89,-362.51 1018.42,-365.81 1027.06,-368.62"/>
<polygon fill="orange" stroke="orange" points="771.89,-311.58 761.35,-312.71 770.29,-318.4 771.89,-311.58"/>
<text text-anchor="middle" x="893.5" y="-347.66" font-family="Helvetica,sans-Serif" font-size="10.00"> &lt; gpu::ReturnOp &gt;</text>
</g>
<!-- Node21&#45;&gt;Node15 -->
<g id="edge29" class="edge">
<title>Node21&#45;&gt;Node15</title>
<path fill="none" stroke="orange" stroke-dasharray="5,2" d="M722.08,-274.78C740.13,-253.73 769.9,-223.6 803,-208.66 876.82,-175.35 914.17,-228.68 984,-187.66 995.81,-180.73 990.64,-170.3 1002,-162.66 1007.5,-158.96 1013.52,-155.83 1019.78,-153.18"/>
<polygon fill="orange" stroke="orange" points="719.25,-272.7 715.53,-282.62 724.62,-277.19 719.25,-272.7"/>
<text text-anchor="middle" x="893.5" y="-211.66" font-family="Helvetica,sans-Serif" font-size="10.00"> &lt; memref::TransposeOp &gt;</text>
</g>
<!-- Node21&#45;&gt;Node17 -->
<g id="edge30" class="edge">
<title>Node21&#45;&gt;Node17</title>
<path fill="none" stroke="orange" stroke-dasharray="5,2" d="M716,-273.33C731.68,-244.42 762.03,-197.27 803,-174.66 873.9,-135.53 918.64,-201.49 984,-153.66 999.73,-142.15 987,-126.11 1002,-113.66 1006.08,-110.27 1010.57,-107.35 1015.3,-104.83"/>
<polygon fill="orange" stroke="orange" points="712.81,-271.89 711.26,-282.37 719,-275.14 712.81,-271.89"/>
<text text-anchor="middle" x="893.5" y="-177.66" font-family="Helvetica,sans-Serif" font-size="10.00"> &lt; gpu::DynamicSharedMemoryOp &gt;</text>
</g>
<!-- Node21&#45;&gt;Node19 -->
<g id="edge31" class="edge">
<title>Node21&#45;&gt;Node19</title>
<path fill="none" stroke="orange" stroke-dasharray="5,2" d="M713.52,-273.17C727.97,-238.99 758.54,-177.1 803,-140.66 865.47,-89.47 955.31,-64.04 1019.99,-51.7"/>
<polygon fill="orange" stroke="orange" points="710.28,-271.85 709.72,-282.43 716.75,-274.51 710.28,-271.85"/>
<text text-anchor="middle" x="893.5" y="-143.66" font-family="Helvetica,sans-Serif" font-size="10.00"> &lt; cf::AssertOp &gt;</text>
</g>
<!-- Node22 -->
<g id="node22" class="node">
<title>Node22</title>
<g id="a_node22"><a xlink:href="classmlir_1_1OneToOneConvertToLLVMPattern.html" target="_top" xlink:title="Generic implementation of one&#45;to&#45;one conversion from &quot;SourceOp&quot; to &quot;TargetOp&quot; where the latter belong...">
<polygon fill="none" stroke="black" points="1002,-319.66 1002,-349.66 1202,-349.66 1202,-319.66 1002,-319.66"/>
<text text-anchor="start" x="1010" y="-337.66" font-family="Helvetica,sans-Serif" font-size="10.00">mlir::OneToOneConvertToLLVMPattern</text>
<text text-anchor="middle" x="1102" y="-326.66" font-family="Helvetica,sans-Serif" font-size="10.00">&lt; SourceOp, TargetOp &gt;</text>
</a>
</g>
</g>
<!-- Node21&#45;&gt;Node22 -->
<g id="edge21" class="edge">
<title>Node21&#45;&gt;Node22</title>
<path fill="none" stroke="midnightblue" d="M795.42,-306.18C857.15,-311.93 938.59,-319.53 1001.88,-325.42"/>
<polygon fill="midnightblue" stroke="midnightblue" points="795.58,-302.68 785.3,-305.24 794.93,-309.65 795.58,-302.68"/>
</g>
<!-- Node23 -->
<g id="node23" class="node">
<title>Node23</title>
<g id="a_node23"><a xlink:href="structmlir_1_1OpToFuncCallLowering.html" target="_top" xlink:title="Rewriting that replaces SourceOp with a CallOp to f32Func or f64Func or f32ApproxFunc or f16Func or i...">
<polygon fill="none" stroke="black" points="1026,-270.66 1026,-300.66 1178,-300.66 1178,-270.66 1026,-270.66"/>
<text text-anchor="start" x="1034" y="-288.66" font-family="Helvetica,sans-Serif" font-size="10.00">mlir::OpToFuncCallLowering</text>
<text text-anchor="middle" x="1102" y="-277.66" font-family="Helvetica,sans-Serif" font-size="10.00">&lt; SourceOp &gt;</text>
</a>
</g>
</g>
<!-- Node21&#45;&gt;Node23 -->
<g id="edge22" class="edge">
<title>Node21&#45;&gt;Node23</title>
<path fill="none" stroke="midnightblue" d="M795.41,-294.9C865.27,-292.79 960.39,-289.91 1025.86,-287.93"/>
<polygon fill="midnightblue" stroke="midnightblue" points="795.19,-291.4 785.3,-295.2 795.4,-298.4 795.19,-291.4"/>
</g>
<!-- Node24 -->
<g id="node24" class="node">
<title>Node24</title>
<g id="a_node24"><a xlink:href="structmlir_1_1ScalarizeVectorOpLowering.html" target="_top" xlink:title="Unrolls SourceOp to array/vector elements.">
<polygon fill="none" stroke="black" points="1014.5,-221.66 1014.5,-251.66 1189.5,-251.66 1189.5,-221.66 1014.5,-221.66"/>
<text text-anchor="start" x="1022.5" y="-239.66" font-family="Helvetica,sans-Serif" font-size="10.00">mlir::ScalarizeVectorOpLowering</text>
<text text-anchor="middle" x="1102" y="-228.66" font-family="Helvetica,sans-Serif" font-size="10.00">&lt; SourceOp &gt;</text>
</a>
</g>
</g>
<!-- Node21&#45;&gt;Node24 -->
<g id="edge23" class="edge">
<title>Node21&#45;&gt;Node24</title>
<path fill="none" stroke="midnightblue" d="M795.26,-283.64C861.13,-273.52 949.51,-259.94 1014.31,-249.98"/>
<polygon fill="midnightblue" stroke="midnightblue" points="794.65,-280.19 785.3,-285.17 795.71,-287.11 794.65,-280.19"/>
</g>
<!-- Node25 -->
<g id="node25" class="node">
<title>Node25</title>
<g id="a_node25"><a xlink:href="classmlir_1_1VectorConvertToLLVMPattern.html" target="_top" xlink:title="Basic lowering implementation to rewrite Ops with just one result to the LLVM Dialect.">
<polygon fill="none" stroke="black" points="1003.5,-172.66 1003.5,-202.66 1200.5,-202.66 1200.5,-172.66 1003.5,-172.66"/>
<text text-anchor="start" x="1011.5" y="-190.66" font-family="Helvetica,sans-Serif" font-size="10.00">mlir::VectorConvertToLLVMPattern</text>
<text text-anchor="middle" x="1102" y="-179.66" font-family="Helvetica,sans-Serif" font-size="10.00">&lt; SourceOp, TargetOp, AttrConvert &gt;</text>
</a>
</g>
</g>
<!-- Node21&#45;&gt;Node25 -->
<g id="edge24" class="edge">
<title>Node21&#45;&gt;Node25</title>
<path fill="none" stroke="midnightblue" d="M740.49,-277.81C758.79,-268.61 781.57,-258.28 803,-251.66 880.91,-227.59 907.01,-248.52 984,-221.66 992.64,-218.65 993.48,-214.99 1002,-211.66 1010.57,-208.31 1019.74,-205.34 1028.91,-202.72"/>
<polygon fill="midnightblue" stroke="midnightblue" points="738.66,-274.81 731.36,-282.49 741.86,-281.04 738.66,-274.81"/>
</g>
</g>
</svg>
