<?xml version="1.0" encoding="UTF-8" standalone="no"?>
<!DOCTYPE svg PUBLIC "-//W3C//DTD SVG 1.1//EN"
 "http://www.w3.org/Graphics/SVG/1.1/DTD/svg11.dtd">
<!-- Generated by graphviz version 2.43.0 (0)
 -->
<!-- Title: mlir::dataflow::SparseBackwardDataFlowAnalysis&lt; StateT &gt; Pages: 1 -->
<svg width="193pt" height="310pt"
 viewBox="0.00 0.00 193.00 310.00" xmlns="http://www.w3.org/2000/svg" xmlns:xlink="http://www.w3.org/1999/xlink">
<g id="graph0" class="graph" transform="scale(1 1) rotate(0) translate(4 306)">
<title>mlir::dataflow::SparseBackwardDataFlowAnalysis&lt; StateT &gt;</title>
<!-- Node1 -->
<g id="node1" class="node">
<title>Node1</title>
<g id="a_node1"><a xlink:title="A sparse (backward) data&#45;flow analysis for propagating SSA value lattices backwards across the IR by ...">
<polygon fill="#bfbfbf" stroke="black" points="7.5,-146.5 7.5,-176.5 177.5,-176.5 177.5,-146.5 7.5,-146.5"/>
<text text-anchor="start" x="15.5" y="-164.5" font-family="Helvetica,sans-Serif" font-size="10.00">mlir::dataflow::SparseBackward</text>
<text text-anchor="middle" x="92.5" y="-153.5" font-family="Helvetica,sans-Serif" font-size="10.00">DataFlowAnalysis&lt; StateT &gt;</text>
</a>
</g>
</g>
<!-- Node4 -->
<g id="node4" class="node">
<title>Node4</title>
<g id="a_node4"><a xlink:href="classmlir_1_1dataflow_1_1SparseBackwardDataFlowAnalysis.html" target="_top" xlink:title=" ">
<polygon fill="none" stroke="black" points="7.5,-68.5 7.5,-98.5 177.5,-98.5 177.5,-68.5 7.5,-68.5"/>
<text text-anchor="start" x="15.5" y="-86.5" font-family="Helvetica,sans-Serif" font-size="10.00">mlir::dataflow::SparseBackward</text>
<text text-anchor="middle" x="92.5" y="-75.5" font-family="Helvetica,sans-Serif" font-size="10.00">DataFlowAnalysis&lt; Liveness &gt;</text>
</a>
</g>
</g>
<!-- Node1&#45;&gt;Node4 -->
<g id="edge3" class="edge">
<title>Node1&#45;&gt;Node4</title>
<path fill="none" stroke="orange" stroke-dasharray="5,2" d="M92.5,-136.09C92.5,-123.76 92.5,-109.22 92.5,-98.73"/>
<polygon fill="orange" stroke="orange" points="89,-136.2 92.5,-146.2 96,-136.21 89,-136.2"/>
<text text-anchor="middle" x="127" y="-120" font-family="Helvetica,sans-Serif" font-size="10.00"> &lt; Liveness &gt;</text>
</g>
<!-- Node2 -->
<g id="node2" class="node">
<title>Node2</title>
<g id="a_node2"><a xlink:href="classmlir_1_1dataflow_1_1AbstractSparseBackwardDataFlowAnalysis.html" target="_top" xlink:title="Base class for sparse backward data&#45;flow analyses.">
<polygon fill="none" stroke="black" points="0,-214.5 0,-244.5 185,-244.5 185,-214.5 0,-214.5"/>
<text text-anchor="start" x="8" y="-232.5" font-family="Helvetica,sans-Serif" font-size="10.00">mlir::dataflow::Abstract</text>
<text text-anchor="middle" x="92.5" y="-221.5" font-family="Helvetica,sans-Serif" font-size="10.00">SparseBackwardDataFlowAnalysis</text>
</a>
</g>
</g>
<!-- Node2&#45;&gt;Node1 -->
<g id="edge1" class="edge">
<title>Node2&#45;&gt;Node1</title>
<path fill="none" stroke="midnightblue" d="M92.5,-204.03C92.5,-194.86 92.5,-184.74 92.5,-176.79"/>
<polygon fill="midnightblue" stroke="midnightblue" points="89,-204.18 92.5,-214.18 96,-204.18 89,-204.18"/>
</g>
<!-- Node3 -->
<g id="node3" class="node">
<title>Node3</title>
<g id="a_node3"><a xlink:href="classmlir_1_1DataFlowAnalysis.html" target="_top" xlink:title="Base class for all data&#45;flow analyses.">
<polygon fill="none" stroke="black" points="27.5,-282.5 27.5,-301.5 157.5,-301.5 157.5,-282.5 27.5,-282.5"/>
<text text-anchor="middle" x="92.5" y="-289.5" font-family="Helvetica,sans-Serif" font-size="10.00">mlir::DataFlowAnalysis</text>
</a>
</g>
</g>
<!-- Node3&#45;&gt;Node2 -->
<g id="edge2" class="edge">
<title>Node3&#45;&gt;Node2</title>
<path fill="none" stroke="midnightblue" d="M92.5,-272.22C92.5,-263.36 92.5,-252.96 92.5,-244.76"/>
<polygon fill="midnightblue" stroke="midnightblue" points="89,-272.33 92.5,-282.33 96,-272.33 89,-272.33"/>
</g>
<!-- Node5 -->
<g id="node5" class="node">
<title>Node5</title>
<g id="a_node5"><a xlink:href="classmlir_1_1dataflow_1_1LivenessAnalysis.html" target="_top" xlink:title="An analysis that, by going backwards along the dataflow graph, annotates each value with a boolean st...">
<polygon fill="none" stroke="black" points="26.5,-0.5 26.5,-30.5 158.5,-30.5 158.5,-0.5 26.5,-0.5"/>
<text text-anchor="start" x="34.5" y="-18.5" font-family="Helvetica,sans-Serif" font-size="10.00">mlir::dataflow::Liveness</text>
<text text-anchor="middle" x="92.5" y="-7.5" font-family="Helvetica,sans-Serif" font-size="10.00">Analysis</text>
</a>
</g>
</g>
<!-- Node4&#45;&gt;Node5 -->
<g id="edge4" class="edge">
<title>Node4&#45;&gt;Node5</title>
<path fill="none" stroke="midnightblue" d="M92.5,-58.03C92.5,-48.86 92.5,-38.74 92.5,-30.79"/>
<polygon fill="midnightblue" stroke="midnightblue" points="89,-58.18 92.5,-68.18 96,-58.18 89,-58.18"/>
</g>
</g>
</svg>
