<?xml version="1.0" encoding="UTF-8" standalone="no"?>
<!DOCTYPE svg PUBLIC "-//W3C//DTD SVG 1.1//EN"
 "http://www.w3.org/Graphics/SVG/1.1/DTD/svg11.dtd">
<!-- Generated by graphviz version 2.43.0 (0)
 -->
<!-- Title: mlir::presburger::FracMatrix Pages: 1 -->
<svg width="169pt" height="166pt"
 viewBox="0.00 0.00 169.00 166.00" xmlns="http://www.w3.org/2000/svg" xmlns:xlink="http://www.w3.org/1999/xlink">
<g id="graph0" class="graph" transform="scale(1 1) rotate(0) translate(4 162)">
<title>mlir::presburger::FracMatrix</title>
<!-- Node1 -->
<g id="Node000001" class="node">
<title>Node1</title>
<g id="a_Node000001"><a xlink:title=" ">
<polygon fill="#999999" stroke="#666666" points="156.5,-19 4.5,-19 4.5,0 156.5,0 156.5,-19"/>
<text text-anchor="middle" x="80.5" y="-7" font-family="Helvetica,sans-Serif" font-size="10.00">mlir::presburger::FracMatrix</text>
</a>
</g>
</g>
<!-- Node2 -->
<g id="Node000002" class="node">
<title>Node2</title>
<g id="a_Node000002"><a xlink:href="classmlir_1_1presburger_1_1Matrix.html" target="_top" xlink:title=" ">
<polygon fill="white" stroke="#666666" points="146.5,-86 14.5,-86 14.5,-56 146.5,-56 146.5,-86"/>
<text text-anchor="start" x="22.5" y="-74" font-family="Helvetica,sans-Serif" font-size="10.00">mlir::presburger::Matrix</text>
<text text-anchor="middle" x="80.5" y="-63" font-family="Helvetica,sans-Serif" font-size="10.00">&lt; Fraction &gt;</text>
</a>
</g>
</g>
<!-- Node2&#45;&gt;Node1 -->
<g id="edge1_Node000001_Node000002" class="edge">
<title>Node2&#45;&gt;Node1</title>
<g id="a_edge1_Node000001_Node000002"><a xlink:title=" ">
<path fill="none" stroke="#63b8ff" d="M80.5,-45.79C80.5,-36.36 80.5,-26.15 80.5,-19.16"/>
<polygon fill="#63b8ff" stroke="#63b8ff" points="77,-45.9 80.5,-55.9 84,-45.9 77,-45.9"/>
</a>
</g>
</g>
<!-- Node3 -->
<g id="Node000003" class="node">
<title>Node3</title>
<g id="a_Node000003"><a xlink:href="classmlir_1_1presburger_1_1Matrix.html" target="_top" xlink:title="This is a class to represent a resizable matrix.">
<polygon fill="white" stroke="#666666" points="161,-158 0,-158 0,-139 161,-139 161,-158"/>
<text text-anchor="middle" x="80.5" y="-146" font-family="Helvetica,sans-Serif" font-size="10.00">mlir::presburger::Matrix&lt; T &gt;</text>
</a>
</g>
</g>
<!-- Node3&#45;&gt;Node2 -->
<g id="edge2_Node000002_Node000003" class="edge">
<title>Node3&#45;&gt;Node2</title>
<g id="a_edge2_Node000002_Node000003"><a xlink:title=" ">
<path fill="none" stroke="orange" stroke-dasharray="5,2" d="M80.5,-128.57C80.5,-115.43 80.5,-98.18 80.5,-86.21"/>
<polygon fill="orange" stroke="orange" points="77,-128.84 80.5,-138.84 84,-128.84 77,-128.84"/>
</a>
</g>
<text text-anchor="start" x="83.5" y="-109.5" font-family="Helvetica,sans-Serif" font-size="10.00" fill="grey">&lt; Fraction &gt;</text>
</g>
</g>
</svg>
