<?xml version="1.0" encoding="UTF-8" standalone="no"?>
<!DOCTYPE svg PUBLIC "-//W3C//DTD SVG 1.1//EN"
 "http://www.w3.org/Graphics/SVG/1.1/DTD/svg11.dtd">
<!-- Generated by graphviz version 2.43.0 (0)
 -->
<!-- Title: mlir::PyShapedType Pages: 1 -->
<svg width="248pt" height="299pt"
 viewBox="0.00 0.00 247.50 299.00" xmlns="http://www.w3.org/2000/svg" xmlns:xlink="http://www.w3.org/1999/xlink">
<g id="graph0" class="graph" transform="scale(1 1) rotate(0) translate(4 295)">
<title>mlir::PyShapedType</title>
<!-- Node1 -->
<g id="node1" class="node">
<title>Node1</title>
<g id="a_node1"><a xlink:title="Shaped Type Interface &#45; ShapedType.">
<polygon fill="#bfbfbf" stroke="black" points="19.5,-0.5 19.5,-19.5 132.5,-19.5 132.5,-0.5 19.5,-0.5"/>
<text text-anchor="middle" x="76" y="-7.5" font-family="Helvetica,sans-Serif" font-size="10.00">mlir::PyShapedType</text>
</a>
</g>
</g>
<!-- Node2 -->
<g id="node2" class="node">
<title>Node2</title>
<g id="a_node2"><a xlink:href="classmlir_1_1python_1_1PyConcreteType.html" target="_top" xlink:title=" ">
<polygon fill="none" stroke="black" points="7.5,-57.5 7.5,-87.5 144.5,-87.5 144.5,-57.5 7.5,-57.5"/>
<text text-anchor="start" x="15.5" y="-75.5" font-family="Helvetica,sans-Serif" font-size="10.00">mlir::python::PyConcrete</text>
<text text-anchor="middle" x="76" y="-64.5" font-family="Helvetica,sans-Serif" font-size="10.00">Type&lt; PyShapedType &gt;</text>
</a>
</g>
</g>
<!-- Node2&#45;&gt;Node1 -->
<g id="edge1" class="edge">
<title>Node2&#45;&gt;Node1</title>
<path fill="none" stroke="midnightblue" d="M76,-47.35C76,-37.51 76,-26.78 76,-19.54"/>
<polygon fill="midnightblue" stroke="midnightblue" points="72.5,-47.47 76,-57.47 79.5,-47.47 72.5,-47.47"/>
</g>
<!-- Node3 -->
<g id="node3" class="node">
<title>Node3</title>
<g id="a_node3"><a xlink:href="classmlir_1_1python_1_1PyType.html" target="_top" xlink:title="Wrapper around the generic MlirType.">
<polygon fill="none" stroke="black" points="14,-203.5 14,-222.5 130,-222.5 130,-203.5 14,-203.5"/>
<text text-anchor="middle" x="72" y="-210.5" font-family="Helvetica,sans-Serif" font-size="10.00">mlir::python::PyType</text>
</a>
</g>
</g>
<!-- Node3&#45;&gt;Node2 -->
<g id="edge2" class="edge">
<title>Node3&#45;&gt;Node2</title>
<path fill="none" stroke="midnightblue" d="M72.54,-193.25C73.35,-165.19 74.86,-112.88 75.59,-87.73"/>
<polygon fill="midnightblue" stroke="midnightblue" points="69.04,-193.24 72.25,-203.34 76.04,-193.44 69.04,-193.24"/>
</g>
<!-- Node5 -->
<g id="node5" class="node">
<title>Node5</title>
<g id="a_node5"><a xlink:href="classmlir_1_1python_1_1PyConcreteType.html" target="_top" xlink:title="CRTP base classes for Python types that subclass Type and should be castable from it (i....">
<polygon fill="none" stroke="black" points="88.5,-135.5 88.5,-165.5 239.5,-165.5 239.5,-135.5 88.5,-135.5"/>
<text text-anchor="start" x="96.5" y="-153.5" font-family="Helvetica,sans-Serif" font-size="10.00">mlir::python::PyConcrete</text>
<text text-anchor="middle" x="164" y="-142.5" font-family="Helvetica,sans-Serif" font-size="10.00">Type&lt; DerivedTy, BaseTy &gt;</text>
</a>
</g>
</g>
<!-- Node3&#45;&gt;Node5 -->
<g id="edge5" class="edge">
<title>Node3&#45;&gt;Node5</title>
<path fill="none" stroke="midnightblue" d="M93.7,-197.73C108.48,-188.01 127.96,-175.2 142.67,-165.53"/>
<polygon fill="midnightblue" stroke="midnightblue" points="91.61,-194.91 85.18,-203.33 95.46,-200.76 91.61,-194.91"/>
</g>
<!-- Node4 -->
<g id="node4" class="node">
<title>Node4</title>
<g id="a_node4"><a xlink:href="classmlir_1_1python_1_1BaseContextObject.html" target="_top" xlink:title="Base class for all objects that directly or indirectly depend on an MlirContext.">
<polygon fill="none" stroke="black" points="0,-260.5 0,-290.5 144,-290.5 144,-260.5 0,-260.5"/>
<text text-anchor="start" x="8" y="-278.5" font-family="Helvetica,sans-Serif" font-size="10.00">mlir::python::BaseContext</text>
<text text-anchor="middle" x="72" y="-267.5" font-family="Helvetica,sans-Serif" font-size="10.00">Object</text>
</a>
</g>
</g>
<!-- Node4&#45;&gt;Node3 -->
<g id="edge3" class="edge">
<title>Node4&#45;&gt;Node3</title>
<path fill="none" stroke="midnightblue" d="M72,-250.35C72,-240.51 72,-229.78 72,-222.54"/>
<polygon fill="midnightblue" stroke="midnightblue" points="68.5,-250.47 72,-260.47 75.5,-250.47 68.5,-250.47"/>
</g>
<!-- Node5&#45;&gt;Node2 -->
<g id="edge4" class="edge">
<title>Node5&#45;&gt;Node2</title>
<path fill="none" stroke="orange" stroke-dasharray="5,2" d="M139.56,-128.39C124.55,-115.43 105.73,-99.18 92.48,-87.73"/>
<polygon fill="orange" stroke="orange" points="137.59,-131.32 147.45,-135.2 142.17,-126.02 137.59,-131.32"/>
<text text-anchor="middle" x="173.5" y="-109" font-family="Helvetica,sans-Serif" font-size="10.00"> &lt; PyShapedType &gt;</text>
</g>
</g>
</svg>
