<?xml version="1.0" encoding="UTF-8" standalone="no"?>
<!DOCTYPE svg PUBLIC "-//W3C//DTD SVG 1.1//EN"
 "http://www.w3.org/Graphics/SVG/1.1/DTD/svg11.dtd">
<!-- Generated by graphviz version 2.43.0 (0)
 -->
<!-- Title: llvm::iterator_range&lt; IteratorT &gt; Pages: 1 -->
<svg width="907pt" height="753pt"
 viewBox="0.00 0.00 907.00 752.82" xmlns="http://www.w3.org/2000/svg" xmlns:xlink="http://www.w3.org/1999/xlink">
<g id="graph0" class="graph" transform="scale(1 1) rotate(0) translate(4 748.82)">
<title>llvm::iterator_range&lt; IteratorT &gt;</title>
<!-- Node1 -->
<g id="Node000001" class="node">
<title>Node1</title>
<g id="a_Node000001"><a xlink:title=" ">
<polygon fill="#999999" stroke="#666666" points="113,-350.64 0,-350.64 0,-320.64 113,-320.64 113,-350.64"/>
<text text-anchor="start" x="8" y="-338.64" font-family="Helvetica,sans-Serif" font-size="10.00">llvm::iterator_range</text>
<text text-anchor="middle" x="56.5" y="-327.64" font-family="Helvetica,sans-Serif" font-size="10.00">&lt; IteratorT &gt;</text>
</a>
</g>
</g>
<!-- Node2 -->
<g id="Node000002" class="node">
<title>Node2</title>
<g id="a_Node000002"><a xlink:href="classmlir_1_1ValueTypeRange.html" target="_top" xlink:title=" ">
<polygon fill="white" stroke="#666666" points="899,-687.64 777,-687.64 777,-657.64 899,-657.64 899,-687.64"/>
<text text-anchor="start" x="785" y="-675.64" font-family="Helvetica,sans-Serif" font-size="10.00">mlir::ValueTypeRange</text>
<text text-anchor="middle" x="838" y="-664.64" font-family="Helvetica,sans-Serif" font-size="10.00">&lt; ValueRange &gt;</text>
</a>
</g>
</g>
<!-- Node1&#45;&gt;Node2 -->
<g id="edge1_Node000001_Node000002" class="edge">
<title>Node1&#45;&gt;Node2</title>
<g id="a_edge1_Node000001_Node000002"><a xlink:title=" ">
<path fill="none" stroke="#63b8ff" d="M59.66,-361.04C65.96,-428.68 86.78,-610.53 131,-647.64 326.18,-811.42 669.53,-725.84 792.02,-687.76"/>
<polygon fill="#63b8ff" stroke="#63b8ff" points="63.12,-360.5 58.74,-350.85 56.15,-361.13 63.12,-360.5"/>
</a>
</g>
</g>
<!-- Node3 -->
<g id="Node000003" class="node">
<title>Node3</title>
<g id="a_Node000003"><a xlink:href="classmlir_1_1ValueTypeRange.html" target="_top" xlink:title=" ">
<polygon fill="white" stroke="#666666" points="899,-625.64 777,-625.64 777,-595.64 899,-595.64 899,-625.64"/>
<text text-anchor="start" x="785" y="-613.64" font-family="Helvetica,sans-Serif" font-size="10.00">mlir::ValueTypeRange</text>
<text text-anchor="middle" x="838" y="-602.64" font-family="Helvetica,sans-Serif" font-size="10.00">&lt; OperandRange &gt;</text>
</a>
</g>
</g>
<!-- Node1&#45;&gt;Node3 -->
<g id="edge2_Node000001_Node000003" class="edge">
<title>Node1&#45;&gt;Node3</title>
<g id="a_edge2_Node000001_Node000003"><a xlink:title=" ">
<path fill="none" stroke="#63b8ff" d="M60.96,-360.72C67.51,-397.8 85.4,-466.53 131,-500.64 243.3,-584.62 625.8,-518.77 759,-562.64 780.9,-569.85 803.01,-584.29 818.07,-595.46"/>
<polygon fill="#63b8ff" stroke="#63b8ff" points="64.4,-360.03 59.34,-350.73 57.49,-361.16 64.4,-360.03"/>
</a>
</g>
</g>
<!-- Node4 -->
<g id="Node000004" class="node">
<title>Node4</title>
<g id="a_Node000004"><a xlink:href="classmlir_1_1ValueTypeRange.html" target="_top" xlink:title=" ">
<polygon fill="white" stroke="#666666" points="899,-550.64 777,-550.64 777,-520.64 899,-520.64 899,-550.64"/>
<text text-anchor="start" x="785" y="-538.64" font-family="Helvetica,sans-Serif" font-size="10.00">mlir::ValueTypeRange</text>
<text text-anchor="middle" x="838" y="-527.64" font-family="Helvetica,sans-Serif" font-size="10.00">&lt; ResultRange &gt;</text>
</a>
</g>
</g>
<!-- Node1&#45;&gt;Node4 -->
<g id="edge3_Node000001_Node000004" class="edge">
<title>Node1&#45;&gt;Node4</title>
<g id="a_edge3_Node000001_Node000004"><a xlink:title=" ">
<path fill="none" stroke="#63b8ff" d="M63.46,-360.85C72.37,-392.46 92.41,-445.63 131,-471.64 184.01,-507.36 615.93,-527.25 776.86,-533.48"/>
<polygon fill="#63b8ff" stroke="#63b8ff" points="66.81,-359.8 60.86,-351.03 60.04,-361.6 66.81,-359.8"/>
</a>
</g>
</g>
<!-- Node5 -->
<g id="Node000005" class="node">
<title>Node5</title>
<g id="a_Node000005"><a xlink:href="classmlir_1_1detail_1_1ElementsAttrRange.html" target="_top" xlink:title="This class provides iterator utilities for an ElementsAttr range.">
<polygon fill="white" stroke="#666666" points="464,-482.64 324,-482.64 324,-452.64 464,-452.64 464,-482.64"/>
<text text-anchor="start" x="332" y="-470.64" font-family="Helvetica,sans-Serif" font-size="10.00">mlir::detail::ElementsAttr</text>
<text text-anchor="middle" x="394" y="-459.64" font-family="Helvetica,sans-Serif" font-size="10.00">Range&lt; IteratorT &gt;</text>
</a>
</g>
</g>
<!-- Node1&#45;&gt;Node5 -->
<g id="edge4_Node000001_Node000005" class="edge">
<title>Node1&#45;&gt;Node5</title>
<g id="a_edge4_Node000001_Node000005"><a xlink:title=" ">
<path fill="none" stroke="#63b8ff" d="M67.44,-360.45C78.82,-385.3 99.98,-422.4 131,-440.64 189.44,-474.99 268.06,-478.61 323.89,-475.57"/>
<polygon fill="#63b8ff" stroke="#63b8ff" points="70.5,-358.72 63.3,-350.96 64.09,-361.52 70.5,-358.72"/>
</a>
</g>
</g>
<!-- Node6 -->
<g id="Node000006" class="node">
<title>Node6</title>
<g id="a_Node000006"><a xlink:href="classllvm_1_1iterator__range.html" target="_top" xlink:title=" ">
<polygon fill="white" stroke="#666666" points="477,-434.14 311,-434.14 311,-393.14 477,-393.14 477,-434.14"/>
<text text-anchor="start" x="319" y="-422.14" font-family="Helvetica,sans-Serif" font-size="10.00">llvm::iterator_range</text>
<text text-anchor="start" x="319" y="-411.14" font-family="Helvetica,sans-Serif" font-size="10.00">&lt; llvm::EquivalenceClasses</text>
<text text-anchor="middle" x="394" y="-400.14" font-family="Helvetica,sans-Serif" font-size="10.00">&lt; Value &gt;::member_iterator &gt;</text>
</a>
</g>
</g>
<!-- Node1&#45;&gt;Node6 -->
<g id="edge5_Node000001_Node000006" class="edge">
<title>Node1&#45;&gt;Node6</title>
<g id="a_edge5_Node000001_Node000006"><a xlink:title=" ">
<path fill="none" stroke="orange" stroke-dasharray="5,2" d="M91.4,-355.47C103.54,-361.82 117.56,-368.32 131,-372.64 189.63,-391.47 258.51,-401.81 310.93,-407.4"/>
<polygon fill="orange" stroke="orange" points="92.98,-352.35 82.52,-350.68 89.66,-358.51 92.98,-352.35"/>
</a>
</g>
<text text-anchor="start" x="134" y="-425.64" font-family="Helvetica,sans-Serif" font-size="10.00" fill="grey">&lt; llvm::EquivalenceClasses</text>
<text text-anchor="start" x="134" y="-410.64" font-family="Helvetica,sans-Serif" font-size="10.00" fill="grey">  &lt; Value &gt;::member_iterator &gt;</text>
</g>
<!-- Node7 -->
<g id="Node000007" class="node">
<title>Node7</title>
<g id="a_Node000007"><a xlink:href="classllvm_1_1iterator__range.html" target="_top" xlink:title=" ">
<polygon fill="white" stroke="#666666" points="450.5,-374.64 337.5,-374.64 337.5,-344.64 450.5,-344.64 450.5,-374.64"/>
<text text-anchor="start" x="345.5" y="-362.64" font-family="Helvetica,sans-Serif" font-size="10.00">llvm::iterator_range</text>
<text text-anchor="middle" x="394" y="-351.64" font-family="Helvetica,sans-Serif" font-size="10.00">&lt; OpIterT &gt;</text>
</a>
</g>
</g>
<!-- Node1&#45;&gt;Node7 -->
<g id="edge6_Node000001_Node000007" class="edge">
<title>Node1&#45;&gt;Node7</title>
<g id="a_edge6_Node000001_Node000007"><a xlink:title=" ">
<path fill="none" stroke="orange" stroke-dasharray="5,2" d="M123.41,-340.35C185.85,-344.82 278.56,-351.45 337.37,-355.66"/>
<polygon fill="orange" stroke="orange" points="123.5,-336.85 113.28,-339.63 123,-343.83 123.5,-336.85"/>
</a>
</g>
<text text-anchor="start" x="183" y="-357.14" font-family="Helvetica,sans-Serif" font-size="10.00" fill="grey">&lt; OpIterT &gt;</text>
</g>
<!-- Node8 -->
<g id="Node000008" class="node">
<title>Node8</title>
<g id="a_Node000008"><a xlink:href="classllvm_1_1iterator__range.html" target="_top" xlink:title=" ">
<polygon fill="white" stroke="#666666" points="450.5,-326.64 337.5,-326.64 337.5,-296.64 450.5,-296.64 450.5,-326.64"/>
<text text-anchor="start" x="345.5" y="-314.64" font-family="Helvetica,sans-Serif" font-size="10.00">llvm::iterator_range</text>
<text text-anchor="middle" x="394" y="-303.64" font-family="Helvetica,sans-Serif" font-size="10.00">&lt; ext_iterator &gt;</text>
</a>
</g>
</g>
<!-- Node1&#45;&gt;Node8 -->
<g id="edge7_Node000001_Node000008" class="edge">
<title>Node1&#45;&gt;Node8</title>
<g id="a_edge7_Node000001_Node000008"><a xlink:title=" ">
<path fill="none" stroke="orange" stroke-dasharray="5,2" d="M123.24,-320.71C125.85,-320.31 128.45,-319.95 131,-319.64 201.8,-310.93 284.12,-309.88 337.32,-310.38"/>
<polygon fill="orange" stroke="orange" points="122.38,-317.3 113.1,-322.41 123.54,-324.21 122.38,-317.3"/>
</a>
</g>
<text text-anchor="start" x="172" y="-325.14" font-family="Helvetica,sans-Serif" font-size="10.00" fill="grey">&lt; ext_iterator &gt;</text>
</g>
<!-- Node9 -->
<g id="Node000009" class="node">
<title>Node9</title>
<g id="a_Node000009"><a xlink:href="classllvm_1_1iterator__range.html" target="_top" xlink:title=" ">
<polygon fill="white" stroke="#666666" points="450.5,-278.64 337.5,-278.64 337.5,-248.64 450.5,-248.64 450.5,-278.64"/>
<text text-anchor="start" x="345.5" y="-266.64" font-family="Helvetica,sans-Serif" font-size="10.00">llvm::iterator_range</text>
<text text-anchor="middle" x="394" y="-255.64" font-family="Helvetica,sans-Serif" font-size="10.00">&lt; cap_iterator &gt;</text>
</a>
</g>
</g>
<!-- Node1&#45;&gt;Node9 -->
<g id="edge8_Node000001_Node000009" class="edge">
<title>Node1&#45;&gt;Node9</title>
<g id="a_edge8_Node000001_Node000009"><a xlink:title=" ">
<path fill="none" stroke="orange" stroke-dasharray="5,2" d="M83.78,-314.5C97.13,-304.93 114.09,-294.47 131,-288.64 199.36,-265.07 283.32,-261.08 337.47,-261.48"/>
<polygon fill="orange" stroke="orange" points="81.5,-311.83 75.56,-320.6 85.67,-317.45 81.5,-311.83"/>
</a>
</g>
<text text-anchor="start" x="171" y="-294.14" font-family="Helvetica,sans-Serif" font-size="10.00" fill="grey">&lt; cap_iterator &gt;</text>
</g>
<!-- Node10 -->
<g id="Node000010" class="node">
<title>Node10</title>
<g id="a_Node000010"><a xlink:href="classllvm_1_1iterator__range.html" target="_top" xlink:title=" ">
<polygon fill="white" stroke="#666666" points="475.5,-230.64 312.5,-230.64 312.5,-200.64 475.5,-200.64 475.5,-230.64"/>
<text text-anchor="start" x="320.5" y="-218.64" font-family="Helvetica,sans-Serif" font-size="10.00">llvm::iterator_range</text>
<text text-anchor="middle" x="394" y="-207.64" font-family="Helvetica,sans-Serif" font-size="10.00">&lt; VariableDecoratorIterator &gt;</text>
</a>
</g>
</g>
<!-- Node1&#45;&gt;Node10 -->
<g id="edge9_Node000001_Node000010" class="edge">
<title>Node1&#45;&gt;Node10</title>
<g id="a_edge9_Node000001_Node000010"><a xlink:title=" ">
<path fill="none" stroke="orange" stroke-dasharray="5,2" d="M69,-311.31C81.04,-288.8 102.24,-256.49 131,-240.64 186.12,-210.26 257.78,-205.33 312.22,-207.26"/>
<polygon fill="orange" stroke="orange" points="65.84,-309.79 64.4,-320.28 72.07,-312.98 65.84,-309.79"/>
</a>
</g>
<text text-anchor="start" x="139" y="-246.14" font-family="Helvetica,sans-Serif" font-size="10.00" fill="grey">&lt; VariableDecoratorIterator &gt;</text>
</g>
<!-- Node11 -->
<g id="Node000011" class="node">
<title>Node11</title>
<g id="a_Node000011"><a xlink:href="classllvm_1_1iterator__range.html" target="_top" xlink:title=" ">
<polygon fill="white" stroke="#666666" points="450.5,-182.64 337.5,-182.64 337.5,-152.64 450.5,-152.64 450.5,-182.64"/>
<text text-anchor="start" x="345.5" y="-170.64" font-family="Helvetica,sans-Serif" font-size="10.00">llvm::iterator_range</text>
<text text-anchor="middle" x="394" y="-159.64" font-family="Helvetica,sans-Serif" font-size="10.00">&lt; value_iterator &gt;</text>
</a>
</g>
</g>
<!-- Node1&#45;&gt;Node11 -->
<g id="edge10_Node000001_Node000011" class="edge">
<title>Node1&#45;&gt;Node11</title>
<g id="a_edge10_Node000001_Node000011"><a xlink:title=" ">
<path fill="none" stroke="orange" stroke-dasharray="5,2" d="M61.81,-310.68C69.25,-276.07 88.03,-214.52 131,-185.64 192.2,-144.49 280.66,-148.15 337.5,-156.43"/>
<polygon fill="orange" stroke="orange" points="58.38,-310 59.86,-320.49 65.25,-311.36 58.38,-310"/>
</a>
</g>
<text text-anchor="start" x="167" y="-191.14" font-family="Helvetica,sans-Serif" font-size="10.00" fill="grey">&lt; value_iterator &gt;</text>
</g>
<!-- Node12 -->
<g id="Node000012" class="node">
<title>Node12</title>
<g id="a_Node000012"><a xlink:href="classllvm_1_1iterator__range.html" target="_top" xlink:title=" ">
<polygon fill="white" stroke="#666666" points="463.5,-134.64 324.5,-134.64 324.5,-104.64 463.5,-104.64 463.5,-134.64"/>
<text text-anchor="start" x="332.5" y="-122.64" font-family="Helvetica,sans-Serif" font-size="10.00">llvm::iterator_range</text>
<text text-anchor="middle" x="394" y="-111.64" font-family="Helvetica,sans-Serif" font-size="10.00">&lt; const_value_iterator &gt;</text>
</a>
</g>
</g>
<!-- Node1&#45;&gt;Node12 -->
<g id="edge11_Node000001_Node000012" class="edge">
<title>Node1&#45;&gt;Node12</title>
<g id="a_edge11_Node000001_Node000012"><a xlink:title=" ">
<path fill="none" stroke="orange" stroke-dasharray="5,2" d="M58.03,-310.35C60.48,-265.42 72.74,-172.39 131,-129.64 189.72,-86.55 277.38,-93.41 334.87,-104.62"/>
<polygon fill="orange" stroke="orange" points="54.53,-310.29 57.6,-320.43 61.52,-310.59 54.53,-310.29"/>
</a>
</g>
<text text-anchor="start" x="151" y="-135.14" font-family="Helvetica,sans-Serif" font-size="10.00" fill="grey">&lt; const_value_iterator &gt;</text>
</g>
<!-- Node13 -->
<g id="Node000013" class="node">
<title>Node13</title>
<g id="a_Node000013"><a xlink:href="classllvm_1_1iterator__range.html" target="_top" xlink:title=" ">
<polygon fill="white" stroke="#666666" points="450.5,-86.64 337.5,-86.64 337.5,-56.64 450.5,-56.64 450.5,-86.64"/>
<text text-anchor="start" x="345.5" y="-74.64" font-family="Helvetica,sans-Serif" font-size="10.00">llvm::iterator_range</text>
<text text-anchor="middle" x="394" y="-63.64" font-family="Helvetica,sans-Serif" font-size="10.00">&lt; arg_iterator &gt;</text>
</a>
</g>
</g>
<!-- Node1&#45;&gt;Node13 -->
<g id="edge12_Node000001_Node000013" class="edge">
<title>Node1&#45;&gt;Node13</title>
<g id="a_edge12_Node000001_Node000013"><a xlink:title=" ">
<path fill="none" stroke="orange" stroke-dasharray="5,2" d="M60.79,-310.33C69.11,-250.6 93.1,-103.68 131,-74.64 162.1,-50.81 269.96,-57.69 337.21,-64.74"/>
<polygon fill="orange" stroke="orange" points="57.29,-310.04 59.41,-320.42 64.23,-310.99 57.29,-310.04"/>
</a>
</g>
<text text-anchor="start" x="172" y="-80.14" font-family="Helvetica,sans-Serif" font-size="10.00" fill="grey">&lt; arg_iterator &gt;</text>
</g>
<!-- Node14 -->
<g id="Node000014" class="node">
<title>Node14</title>
<g id="a_Node000014"><a xlink:href="classllvm_1_1iterator__range.html" target="_top" xlink:title=" ">
<polygon fill="white" stroke="#666666" points="473.5,-38.64 314.5,-38.64 314.5,-8.64 473.5,-8.64 473.5,-38.64"/>
<text text-anchor="start" x="322.5" y="-26.64" font-family="Helvetica,sans-Serif" font-size="10.00">llvm::iterator_range</text>
<text text-anchor="middle" x="394" y="-15.64" font-family="Helvetica,sans-Serif" font-size="10.00">&lt; TypeRangeRangeIterator &gt;</text>
</a>
</g>
</g>
<!-- Node1&#45;&gt;Node14 -->
<g id="edge13_Node000001_Node000014" class="edge">
<title>Node1&#45;&gt;Node14</title>
<g id="a_edge13_Node000001_Node000014"><a xlink:title=" ">
<path fill="none" stroke="orange" stroke-dasharray="5,2" d="M59.97,-310.05C66.87,-244.4 88.7,-72.64 131,-37.64 187.42,9.04 276.29,2.62 334.61,-8.62"/>
<polygon fill="orange" stroke="orange" points="56.45,-310.03 58.92,-320.34 63.42,-310.74 56.45,-310.03"/>
</a>
</g>
<text text-anchor="start" x="141" y="-43.14" font-family="Helvetica,sans-Serif" font-size="10.00" fill="grey">&lt; TypeRangeRangeIterator &gt;</text>
</g>
<!-- Node16 -->
<g id="Node000016" class="node">
<title>Node16</title>
<g id="a_Node000016"><a xlink:href="classllvm_1_1iterator__range.html" target="_top" xlink:title=" ">
<polygon fill="white" stroke="#666666" points="467.5,-625.14 320.5,-625.14 320.5,-584.14 467.5,-584.14 467.5,-625.14"/>
<text text-anchor="start" x="328.5" y="-613.14" font-family="Helvetica,sans-Serif" font-size="10.00">llvm::iterator_range</text>
<text text-anchor="start" x="328.5" y="-602.14" font-family="Helvetica,sans-Serif" font-size="10.00">&lt; ValueTypeIterator&lt;</text>
<text text-anchor="middle" x="394" y="-591.14" font-family="Helvetica,sans-Serif" font-size="10.00"> ValueRangeT::iterator &gt; &gt;</text>
</a>
</g>
</g>
<!-- Node1&#45;&gt;Node16 -->
<g id="edge15_Node000001_Node000016" class="edge">
<title>Node1&#45;&gt;Node16</title>
<g id="a_edge15_Node000001_Node000016"><a xlink:title=" ">
<path fill="none" stroke="orange" stroke-dasharray="5,2" d="M57.63,-360.69C59.34,-408.05 70.29,-510.64 131,-562.64 182.87,-607.07 262.53,-614.12 320.39,-612.19"/>
<polygon fill="orange" stroke="orange" points="61.13,-360.58 57.38,-350.67 54.13,-360.76 61.13,-360.58"/>
</a>
</g>
<text text-anchor="start" x="140" y="-632.64" font-family="Helvetica,sans-Serif" font-size="10.00" fill="grey">&lt; ValueTypeIterator</text>
<text text-anchor="start" x="140" y="-617.64" font-family="Helvetica,sans-Serif" font-size="10.00" fill="grey">  &lt; ValueRangeT::iterator &gt; &gt;</text>
</g>
<!-- Node15 -->
<g id="Node000015" class="node">
<title>Node15</title>
<g id="a_Node000015"><a xlink:href="classmlir_1_1TypeRangeRange.html" target="_top" xlink:title="This class provides an abstraction for a range of TypeRange.">
<polygon fill="white" stroke="#666666" points="640,-33.14 514,-33.14 514,-14.14 640,-14.14 640,-33.14"/>
<text text-anchor="middle" x="577" y="-21.14" font-family="Helvetica,sans-Serif" font-size="10.00">mlir::TypeRangeRange</text>
</a>
</g>
</g>
<!-- Node14&#45;&gt;Node15 -->
<g id="edge14_Node000014_Node000015" class="edge">
<title>Node14&#45;&gt;Node15</title>
<g id="a_edge14_Node000014_Node000015"><a xlink:title=" ">
<path fill="none" stroke="#63b8ff" d="M483.74,-23.64C493.9,-23.64 504.1,-23.64 513.81,-23.64"/>
<polygon fill="#63b8ff" stroke="#63b8ff" points="483.6,-20.14 473.6,-23.64 483.6,-27.14 483.6,-20.14"/>
</a>
</g>
</g>
<!-- Node17 -->
<g id="Node000017" class="node">
<title>Node17</title>
<g id="a_Node000017"><a xlink:href="classmlir_1_1ValueTypeRange.html" target="_top" xlink:title="This class implements iteration on the types of a given range of values.">
<polygon fill="white" stroke="#666666" points="638,-634.64 516,-634.64 516,-604.64 638,-604.64 638,-634.64"/>
<text text-anchor="start" x="524" y="-622.64" font-family="Helvetica,sans-Serif" font-size="10.00">mlir::ValueTypeRange</text>
<text text-anchor="middle" x="577" y="-611.64" font-family="Helvetica,sans-Serif" font-size="10.00">&lt; ValueRangeT &gt;</text>
</a>
</g>
</g>
<!-- Node16&#45;&gt;Node17 -->
<g id="edge16_Node000016_Node000017" class="edge">
<title>Node16&#45;&gt;Node17</title>
<g id="a_edge16_Node000016_Node000017"><a xlink:title=" ">
<path fill="none" stroke="#63b8ff" d="M477.81,-611.5C490.64,-612.56 503.68,-613.64 515.89,-614.66"/>
<polygon fill="#63b8ff" stroke="#63b8ff" points="477.83,-607.99 467.58,-610.65 477.25,-614.97 477.83,-607.99"/>
</a>
</g>
</g>
<!-- Node17&#45;&gt;Node2 -->
<g id="edge17_Node000017_Node000002" class="edge">
<title>Node17&#45;&gt;Node2</title>
<g id="a_edge17_Node000017_Node000002"><a xlink:title=" ">
<path fill="none" stroke="orange" stroke-dasharray="5,2" d="M648.22,-635.55C651.52,-636.27 654.8,-636.96 658,-637.64 697.51,-645.94 742.06,-654.66 776.84,-661.31"/>
<polygon fill="orange" stroke="orange" points="648.76,-632.09 638.24,-633.38 647.27,-638.93 648.76,-632.09"/>
</a>
</g>
<text text-anchor="start" x="668.5" y="-662.14" font-family="Helvetica,sans-Serif" font-size="10.00" fill="grey">&lt; ValueRange &gt;</text>
</g>
<!-- Node17&#45;&gt;Node3 -->
<g id="edge18_Node000017_Node000003" class="edge">
<title>Node17&#45;&gt;Node3</title>
<g id="a_edge18_Node000017_Node000003"><a xlink:title=" ">
<path fill="none" stroke="orange" stroke-dasharray="5,2" d="M648.08,-617.2C688.32,-615.8 738.35,-614.07 776.81,-612.73"/>
<polygon fill="orange" stroke="orange" points="647.94,-613.7 638.07,-617.55 648.19,-620.7 647.94,-613.7"/>
</a>
</g>
<text text-anchor="start" x="661.5" y="-622.14" font-family="Helvetica,sans-Serif" font-size="10.00" fill="grey">&lt; OperandRange &gt;</text>
</g>
<!-- Node17&#45;&gt;Node4 -->
<g id="edge19_Node000017_Node000004" class="edge">
<title>Node17&#45;&gt;Node4</title>
<g id="a_edge19_Node000017_Node000004"><a xlink:title=" ">
<path fill="none" stroke="orange" stroke-dasharray="5,2" d="M629.85,-601.21C639.2,-597.96 648.88,-594.66 658,-591.64 701.58,-577.2 751.46,-561.68 787.47,-550.64"/>
<polygon fill="orange" stroke="orange" points="628.55,-597.95 620.26,-604.55 630.85,-604.56 628.55,-597.95"/>
</a>
</g>
<text text-anchor="start" x="666.5" y="-597.14" font-family="Helvetica,sans-Serif" font-size="10.00" fill="grey">&lt; ResultRange &gt;</text>
</g>
</g>
</svg>
