<?xml version="1.0" encoding="UTF-8" standalone="no"?>
<!DOCTYPE svg PUBLIC "-//W3C//DTD SVG 1.1//EN"
 "http://www.w3.org/Graphics/SVG/1.1/DTD/svg11.dtd">
<!-- Generated by graphviz version 2.43.0 (0)
 -->
<!-- Title: TransposeOpLowering Pages: 1 -->
<svg width="1317pt" height="144pt"
 viewBox="0.00 0.00 1317.00 144.13" xmlns="http://www.w3.org/2000/svg" xmlns:xlink="http://www.w3.org/1999/xlink">
<g id="graph0" class="graph" transform="scale(1 1) rotate(0) translate(4 140.13)">
<title>TransposeOpLowering</title>
<!-- Node1 -->
<g id="node1" class="node">
<title>Node1</title>
<g id="a_node1"><a xlink:title="Rewrite AVX2&#45;specific vector.transpose, for the supported cases and depending on the TransposeLowerin...">
<polygon fill="#bfbfbf" stroke="black" points="1186,-97 1186,-116 1309,-116 1309,-97 1186,-97"/>
<text text-anchor="middle" x="1247.5" y="-104" font-family="Helvetica,sans-Serif" font-size="10.00">TransposeOpLowering</text>
</a>
</g>
</g>
<!-- Node2 -->
<g id="node2" class="node">
<title>Node2</title>
<g id="a_node2"><a xlink:href="structmlir_1_1OpRewritePattern.html" target="_top" xlink:title=" ">
<polygon fill="none" stroke="black" points="998,-91.5 998,-121.5 1136,-121.5 1136,-91.5 998,-91.5"/>
<text text-anchor="start" x="1006" y="-109.5" font-family="Helvetica,sans-Serif" font-size="10.00">mlir::OpRewritePattern</text>
<text text-anchor="middle" x="1067" y="-98.5" font-family="Helvetica,sans-Serif" font-size="10.00">&lt; vector::TransposeOp &gt;</text>
</a>
</g>
</g>
<!-- Node2&#45;&gt;Node1 -->
<g id="edge1" class="edge">
<title>Node2&#45;&gt;Node1</title>
<path fill="none" stroke="midnightblue" d="M1146.31,-99.8C1159.57,-99.68 1173.16,-99.78 1185.88,-100.07"/>
<polygon fill="midnightblue" stroke="midnightblue" points="1146.2,-96.3 1136.25,-99.92 1146.29,-103.3 1146.2,-96.3"/>
</g>
<!-- Node2&#45;&gt;Node1 -->
<g id="edge13" class="edge">
<title>Node2&#45;&gt;Node1</title>
<path fill="none" stroke="midnightblue" d="M1146.31,-113.2C1159.57,-113.32 1173.16,-113.22 1185.88,-112.93"/>
<polygon fill="midnightblue" stroke="midnightblue" points="1146.29,-109.7 1136.25,-113.08 1146.2,-116.7 1146.29,-109.7"/>
</g>
<!-- Node3 -->
<g id="node3" class="node">
<title>Node3</title>
<g id="a_node3"><a xlink:href="structmlir_1_1detail_1_1OpOrInterfaceRewritePatternBase.html" target="_top" xlink:title="OpOrInterfaceRewritePatternBase is a wrapper around RewritePattern that allows for matching and rewri...">
<polygon fill="none" stroke="black" points="433,-88.5 433,-118.5 615,-118.5 615,-88.5 433,-88.5"/>
<text text-anchor="start" x="441" y="-106.5" font-family="Helvetica,sans-Serif" font-size="10.00">mlir::detail::OpOrInterface</text>
<text text-anchor="middle" x="524" y="-95.5" font-family="Helvetica,sans-Serif" font-size="10.00">RewritePatternBase&lt; SourceOp &gt;</text>
</a>
</g>
</g>
<!-- Node3&#45;&gt;Node2 -->
<g id="edge2" class="edge">
<title>Node3&#45;&gt;Node2</title>
<path fill="none" stroke="midnightblue" d="M598.69,-120.52C616.07,-123.83 634.61,-126.8 652,-128.5 791.37,-142.09 827.64,-135.25 967,-121.5 977.03,-120.51 987.6,-119.2 997.95,-117.76"/>
<polygon fill="midnightblue" stroke="midnightblue" points="599.09,-117.03 588.6,-118.53 597.73,-123.9 599.09,-117.03"/>
</g>
<!-- Node6 -->
<g id="node6" class="node">
<title>Node6</title>
<g id="a_node6"><a xlink:href="structmlir_1_1OpRewritePattern.html" target="_top" xlink:title="OpRewritePattern is a wrapper around RewritePattern that allows for matching and rewriting against an...">
<polygon fill="none" stroke="black" points="670,-88.5 670,-118.5 798,-118.5 798,-88.5 670,-88.5"/>
<text text-anchor="start" x="678" y="-106.5" font-family="Helvetica,sans-Serif" font-size="10.00">mlir::OpRewritePattern</text>
<text text-anchor="middle" x="734" y="-95.5" font-family="Helvetica,sans-Serif" font-size="10.00">&lt; SourceOp &gt;</text>
</a>
</g>
</g>
<!-- Node3&#45;&gt;Node6 -->
<g id="edge6" class="edge">
<title>Node3&#45;&gt;Node6</title>
<path fill="none" stroke="midnightblue" d="M625.44,-103.5C640.55,-103.5 655.75,-103.5 669.77,-103.5"/>
<polygon fill="midnightblue" stroke="midnightblue" points="625.02,-100 615.02,-103.5 625.02,-107 625.02,-100"/>
</g>
<!-- Node4 -->
<g id="node4" class="node">
<title>Node4</title>
<g id="a_node4"><a xlink:href="classmlir_1_1RewritePattern.html" target="_top" xlink:title="RewritePattern is the common base class for all DAG to DAG replacements.">
<polygon fill="none" stroke="black" points="114,-73 114,-92 228,-92 228,-73 114,-73"/>
<text text-anchor="middle" x="171" y="-80" font-family="Helvetica,sans-Serif" font-size="10.00">mlir::RewritePattern</text>
</a>
</g>
</g>
<!-- Node4&#45;&gt;Node3 -->
<g id="edge3" class="edge">
<title>Node4&#45;&gt;Node3</title>
<path fill="none" stroke="midnightblue" d="M238.28,-87.96C240.89,-88.15 243.47,-88.33 246,-88.5 308.35,-92.71 378.65,-96.51 432.83,-99.23"/>
<polygon fill="midnightblue" stroke="midnightblue" points="238.38,-84.46 228.15,-87.21 237.86,-91.44 238.38,-84.46"/>
</g>
<!-- Node9 -->
<g id="node9" class="node">
<title>Node9</title>
<g id="a_node9"><a xlink:href="classmlir_1_1ConversionPattern.html" target="_top" xlink:title="Base class for the conversion patterns.">
<polygon fill="none" stroke="black" points="265,-54 265,-73 396,-73 396,-54 265,-54"/>
<text text-anchor="middle" x="330.5" y="-61" font-family="Helvetica,sans-Serif" font-size="10.00">mlir::ConversionPattern</text>
</a>
</g>
</g>
<!-- Node4&#45;&gt;Node9 -->
<g id="edge10" class="edge">
<title>Node4&#45;&gt;Node9</title>
<path fill="none" stroke="midnightblue" d="M238.54,-74.47C247.27,-73.42 256.21,-72.34 264.9,-71.29"/>
<polygon fill="midnightblue" stroke="midnightblue" points="237.93,-71.02 228.42,-75.69 238.76,-77.97 237.93,-71.02"/>
</g>
<!-- Node5 -->
<g id="node5" class="node">
<title>Node5</title>
<g id="a_node5"><a xlink:href="classmlir_1_1Pattern.html" target="_top" xlink:title="This class contains all of the data related to a pattern, but does not contain any methods or logic f...">
<polygon fill="none" stroke="black" points="0,-73 0,-92 77,-92 77,-73 0,-73"/>
<text text-anchor="middle" x="38.5" y="-80" font-family="Helvetica,sans-Serif" font-size="10.00">mlir::Pattern</text>
</a>
</g>
</g>
<!-- Node5&#45;&gt;Node4 -->
<g id="edge4" class="edge">
<title>Node5&#45;&gt;Node4</title>
<path fill="none" stroke="midnightblue" d="M87.47,-82.5C96.06,-82.5 105.09,-82.5 113.89,-82.5"/>
<polygon fill="midnightblue" stroke="midnightblue" points="87.25,-79 77.25,-82.5 87.25,-86 87.25,-79"/>
</g>
<!-- Node6&#45;&gt;Node2 -->
<g id="edge5" class="edge">
<title>Node6&#45;&gt;Node2</title>
<path fill="none" stroke="orange" stroke-dasharray="5,2" d="M808.34,-104.16C864.91,-104.68 942.55,-105.38 997.78,-105.88"/>
<polygon fill="orange" stroke="orange" points="808.07,-100.66 798.04,-104.07 808.01,-107.66 808.07,-100.66"/>
<text text-anchor="middle" x="900.5" y="-109.5" font-family="Helvetica,sans-Serif" font-size="10.00"> &lt; vector::TransposeOp &gt;</text>
</g>
<!-- Node7 -->
<g id="node7" class="node">
<title>Node7</title>
<g id="a_node7"><a xlink:href="classmlir_1_1ConvertOpToLLVMPattern.html" target="_top" xlink:title=" ">
<polygon fill="none" stroke="black" points="985,-42.5 985,-72.5 1149,-72.5 1149,-42.5 985,-42.5"/>
<text text-anchor="start" x="993" y="-60.5" font-family="Helvetica,sans-Serif" font-size="10.00">mlir::ConvertOpToLLVMPattern</text>
<text text-anchor="middle" x="1067" y="-49.5" font-family="Helvetica,sans-Serif" font-size="10.00">&lt; memref::TransposeOp &gt;</text>
</a>
</g>
</g>
<!-- Node7&#45;&gt;Node1 -->
<g id="edge7" class="edge">
<title>Node7&#45;&gt;Node1</title>
<path fill="none" stroke="midnightblue" d="M1132.71,-75.26C1159.47,-82.61 1189.43,-90.83 1211.89,-97"/>
<polygon fill="midnightblue" stroke="midnightblue" points="1133.58,-71.87 1123.01,-72.6 1131.73,-78.62 1133.58,-71.87"/>
</g>
<!-- Node8 -->
<g id="node8" class="node">
<title>Node8</title>
<g id="a_node8"><a xlink:href="classmlir_1_1ConvertToLLVMPattern.html" target="_top" xlink:title="Base class for operation conversions targeting the LLVM IR dialect.">
<polygon fill="none" stroke="black" points="448.5,-50 448.5,-69 599.5,-69 599.5,-50 448.5,-50"/>
<text text-anchor="middle" x="524" y="-57" font-family="Helvetica,sans-Serif" font-size="10.00">mlir::ConvertToLLVMPattern</text>
</a>
</g>
</g>
<!-- Node8&#45;&gt;Node7 -->
<g id="edge8" class="edge">
<title>Node8&#45;&gt;Node7</title>
<path fill="none" stroke="midnightblue" d="M609.66,-59.19C712.17,-58.81 883.6,-58.17 984.61,-57.8"/>
<polygon fill="midnightblue" stroke="midnightblue" points="609.64,-55.69 599.66,-59.22 609.67,-62.69 609.64,-55.69"/>
</g>
<!-- Node10 -->
<g id="node10" class="node">
<title>Node10</title>
<g id="a_node10"><a xlink:href="classmlir_1_1ConvertOpToLLVMPattern.html" target="_top" xlink:title="Utility class for operation conversions targeting the LLVM dialect that match exactly one source oper...">
<polygon fill="none" stroke="black" points="652,-0.5 652,-30.5 816,-30.5 816,-0.5 652,-0.5"/>
<text text-anchor="start" x="660" y="-18.5" font-family="Helvetica,sans-Serif" font-size="10.00">mlir::ConvertOpToLLVMPattern</text>
<text text-anchor="middle" x="734" y="-7.5" font-family="Helvetica,sans-Serif" font-size="10.00">&lt; SourceOp &gt;</text>
</a>
</g>
</g>
<!-- Node8&#45;&gt;Node10 -->
<g id="edge12" class="edge">
<title>Node8&#45;&gt;Node10</title>
<path fill="none" stroke="midnightblue" d="M580.18,-47.83C605.2,-42.54 635.09,-36.21 661.78,-30.57"/>
<polygon fill="midnightblue" stroke="midnightblue" points="579.19,-44.46 570.13,-49.95 580.64,-51.31 579.19,-44.46"/>
</g>
<!-- Node9&#45;&gt;Node8 -->
<g id="edge9" class="edge">
<title>Node9&#45;&gt;Node8</title>
<path fill="none" stroke="midnightblue" d="M406.07,-61.94C420,-61.65 434.55,-61.35 448.47,-61.06"/>
<polygon fill="midnightblue" stroke="midnightblue" points="405.99,-58.44 396.07,-62.15 406.14,-65.44 405.99,-58.44"/>
</g>
<!-- Node10&#45;&gt;Node7 -->
<g id="edge11" class="edge">
<title>Node10&#45;&gt;Node7</title>
<path fill="none" stroke="orange" stroke-dasharray="5,2" d="M826.27,-19.88C869.16,-22.72 920.89,-27.29 967,-34.5 980.25,-36.57 994.36,-39.44 1007.65,-42.45"/>
<polygon fill="orange" stroke="orange" points="826.34,-16.37 816.14,-19.22 825.89,-23.36 826.34,-16.37"/>
<text text-anchor="middle" x="900.5" y="-37.5" font-family="Helvetica,sans-Serif" font-size="10.00"> &lt; memref::TransposeOp &gt;</text>
</g>
</g>
</svg>
