<?xml version="1.0" encoding="UTF-8" standalone="no"?>
<!DOCTYPE svg PUBLIC "-//W3C//DTD SVG 1.1//EN"
 "http://www.w3.org/Graphics/SVG/1.1/DTD/svg11.dtd">
<!-- Generated by graphviz version 2.43.0 (0)
 -->
<!-- Title: mlir::spirv::CooperativeMatrixType Pages: 1 -->
<svg width="533pt" height="66pt"
 viewBox="0.00 0.00 533.00 66.00" xmlns="http://www.w3.org/2000/svg" xmlns:xlink="http://www.w3.org/1999/xlink">
<g id="graph0" class="graph" transform="scale(1 1) rotate(0) translate(4 62)">
<title>mlir::spirv::CooperativeMatrixType</title>
<!-- Node1 -->
<g id="node1" class="node">
<title>Node1</title>
<g id="a_node1"><a xlink:title=" ">
<polygon fill="#bfbfbf" stroke="black" points="394,-14 394,-44 525,-44 525,-14 394,-14"/>
<text text-anchor="start" x="402" y="-32" font-family="Helvetica,sans-Serif" font-size="10.00">mlir::spirv::Cooperative</text>
<text text-anchor="middle" x="459.5" y="-21" font-family="Helvetica,sans-Serif" font-size="10.00">MatrixType</text>
</a>
</g>
</g>
<!-- Node2 -->
<g id="node2" class="node">
<title>Node2</title>
<g id="a_node2"><a xlink:href="classmlir_1_1detail_1_1StorageUserBase.html" target="_top" xlink:title="Utility class for implementing users of storage classes uniqued by a StorageUniquer.">
<polygon fill="none" stroke="black" points="151,-3 151,-55 358,-55 358,-3 151,-3"/>
<text text-anchor="start" x="159" y="-43" font-family="Helvetica,sans-Serif" font-size="10.00">Type::TypeBase&lt; Cooperative</text>
<text text-anchor="start" x="159" y="-32" font-family="Helvetica,sans-Serif" font-size="10.00">MatrixType, CompositeType,</text>
<text text-anchor="start" x="159" y="-21" font-family="Helvetica,sans-Serif" font-size="10.00"> detail::CooperativeMatrixTypeStorage,</text>
<text text-anchor="middle" x="254.5" y="-10" font-family="Helvetica,sans-Serif" font-size="10.00"> ShapedType::Trait &gt;</text>
</a>
</g>
</g>
<!-- Node2&#45;&gt;Node1 -->
<g id="edge1" class="edge">
<title>Node2&#45;&gt;Node1</title>
<path fill="none" stroke="midnightblue" d="M368.46,-29C377.17,-29 385.77,-29 394,-29"/>
<polygon fill="midnightblue" stroke="midnightblue" points="368.19,-25.5 358.19,-29 368.19,-32.5 368.19,-25.5"/>
</g>
<!-- Node3 -->
<g id="node3" class="node">
<title>Node3</title>
<g id="a_node3"><a xlink:href="classBaseT.html" target="_top" xlink:title=" ">
<polygon fill="none" stroke="black" points="34,-38.5 34,-57.5 81,-57.5 81,-38.5 34,-38.5"/>
<text text-anchor="middle" x="57.5" y="-45.5" font-family="Helvetica,sans-Serif" font-size="10.00">BaseT</text>
</a>
</g>
</g>
<!-- Node3&#45;&gt;Node2 -->
<g id="edge2" class="edge">
<title>Node3&#45;&gt;Node2</title>
<path fill="none" stroke="midnightblue" d="M91.47,-44.79C108.08,-43.17 129.23,-41.11 150.71,-39.01"/>
<polygon fill="midnightblue" stroke="midnightblue" points="90.86,-41.33 81.25,-45.78 91.54,-48.3 90.86,-41.33"/>
</g>
<!-- Node4 -->
<g id="node4" class="node">
<title>Node4</title>
<g id="a_node4"><a xlink:title=" ">
<polygon fill="none" stroke="#bfbfbf" points="0,-0.5 0,-19.5 115,-19.5 115,-0.5 0,-0.5"/>
<text text-anchor="middle" x="57.5" y="-7.5" font-family="Helvetica,sans-Serif" font-size="10.00">Traits&lt; ConcreteT &gt;</text>
</a>
</g>
</g>
<!-- Node4&#45;&gt;Node2 -->
<g id="edge3" class="edge">
<title>Node4&#45;&gt;Node2</title>
<path fill="none" stroke="midnightblue" d="M125.12,-16.49C133.43,-17.3 142.08,-18.14 150.78,-18.99"/>
<polygon fill="midnightblue" stroke="midnightblue" points="125.46,-13.01 115.16,-15.52 124.78,-19.97 125.46,-13.01"/>
</g>
</g>
</svg>
