<?xml version="1.0" encoding="UTF-8" standalone="no"?>
<!DOCTYPE svg PUBLIC "-//W3C//DTD SVG 1.1//EN"
 "http://www.w3.org/Graphics/SVG/1.1/DTD/svg11.dtd">
<!-- Generated by graphviz version 2.43.0 (0)
 -->
<!-- Title: mlir::python::MLIR_BINDINGS_PYTHON_DOMAIN::PyUnknownLocation Pages: 1 -->
<svg width="1142pt" height="87pt"
 viewBox="0.00 0.00 1142.00 87.00" xmlns="http://www.w3.org/2000/svg" xmlns:xlink="http://www.w3.org/1999/xlink">
<g id="graph0" class="graph" transform="scale(1 1) rotate(0) translate(4 83)">
<title>mlir::python::MLIR_BINDINGS_PYTHON_DOMAIN::PyUnknownLocation</title>
<!-- Node1 -->
<g id="Node000001" class="node">
<title>Node1</title>
<g id="a_Node000001"><a xlink:title=" ">
<polygon fill="#999999" stroke="#666666" points="1134,-73.5 971,-73.5 971,-32.5 1134,-32.5 1134,-73.5"/>
<text text-anchor="start" x="979" y="-61.5" font-family="Helvetica,sans-Serif" font-size="10.00">mlir::python::MLIR</text>
<text text-anchor="start" x="979" y="-50.5" font-family="Helvetica,sans-Serif" font-size="10.00">_BINDINGS_PYTHON_DOMAIN</text>
<text text-anchor="middle" x="1052.5" y="-39.5" font-family="Helvetica,sans-Serif" font-size="10.00">::PyUnknownLocation</text>
</a>
</g>
</g>
<!-- Node2 -->
<g id="Node000002" class="node">
<title>Node2</title>
<g id="a_Node000002"><a xlink:href="classmlir_1_1python_1_1MLIR__BINDINGS__PYTHON__DOMAIN_1_1PyConcreteLocation.html" target="_top" xlink:title=" ">
<polygon fill="white" stroke="#666666" points="934,-79 746,-79 746,-27 934,-27 934,-79"/>
<text text-anchor="start" x="754" y="-67" font-family="Helvetica,sans-Serif" font-size="10.00">mlir::python::MLIR</text>
<text text-anchor="start" x="754" y="-56" font-family="Helvetica,sans-Serif" font-size="10.00">_BINDINGS_PYTHON_DOMAIN</text>
<text text-anchor="start" x="754" y="-45" font-family="Helvetica,sans-Serif" font-size="10.00">::PyConcreteLocation&lt; PyUnknown</text>
<text text-anchor="middle" x="840" y="-34" font-family="Helvetica,sans-Serif" font-size="10.00">Location &gt;</text>
</a>
</g>
</g>
<!-- Node2&#45;&gt;Node1 -->
<g id="edge1_Node000001_Node000002" class="edge">
<title>Node2&#45;&gt;Node1</title>
<g id="a_edge1_Node000001_Node000002"><a xlink:title=" ">
<path fill="none" stroke="#63b8ff" d="M944.3,-53C953.22,-53 962.15,-53 970.85,-53"/>
<polygon fill="#63b8ff" stroke="#63b8ff" points="944.25,-49.5 934.25,-53 944.25,-56.5 944.25,-49.5"/>
</a>
</g>
</g>
<!-- Node3 -->
<g id="Node000003" class="node">
<title>Node3</title>
<g id="a_Node000003"><a xlink:href="classmlir_1_1python_1_1MLIR__BINDINGS__PYTHON__DOMAIN_1_1PyLocation.html" target="_top" xlink:title="Wrapper around an MlirLocation.">
<polygon fill="white" stroke="#666666" points="363,-73.5 200,-73.5 200,-32.5 363,-32.5 363,-73.5"/>
<text text-anchor="start" x="208" y="-61.5" font-family="Helvetica,sans-Serif" font-size="10.00">mlir::python::MLIR</text>
<text text-anchor="start" x="208" y="-50.5" font-family="Helvetica,sans-Serif" font-size="10.00">_BINDINGS_PYTHON_DOMAIN</text>
<text text-anchor="middle" x="281.5" y="-39.5" font-family="Helvetica,sans-Serif" font-size="10.00">::PyLocation</text>
</a>
</g>
</g>
<!-- Node3&#45;&gt;Node2 -->
<g id="edge2_Node000002_Node000003" class="edge">
<title>Node3&#45;&gt;Node2</title>
<g id="a_edge2_Node000002_Node000003"><a xlink:title=" ">
<path fill="none" stroke="#63b8ff" d="M373.22,-60.29C463.29,-66.43 605.28,-73.16 728,-66 733.81,-65.66 739.78,-65.22 745.8,-64.71"/>
<polygon fill="#63b8ff" stroke="#63b8ff" points="373.26,-56.78 363.04,-59.58 372.78,-63.76 373.26,-56.78"/>
</a>
</g>
</g>
<!-- Node5 -->
<g id="Node000005" class="node">
<title>Node5</title>
<g id="a_Node000005"><a xlink:href="classmlir_1_1python_1_1MLIR__BINDINGS__PYTHON__DOMAIN_1_1PyConcreteLocation.html" target="_top" xlink:title="CRTP base class for Python classes that subclass Location and should be castable from it (i....">
<polygon fill="white" stroke="#666666" points="582,-52 400,-52 400,0 582,0 582,-52"/>
<text text-anchor="start" x="408" y="-40" font-family="Helvetica,sans-Serif" font-size="10.00">mlir::python::MLIR</text>
<text text-anchor="start" x="408" y="-29" font-family="Helvetica,sans-Serif" font-size="10.00">_BINDINGS_PYTHON_DOMAIN</text>
<text text-anchor="start" x="408" y="-18" font-family="Helvetica,sans-Serif" font-size="10.00">::PyConcreteLocation&lt; DerivedTy,</text>
<text text-anchor="middle" x="491" y="-7" font-family="Helvetica,sans-Serif" font-size="10.00"> BaseTy &gt;</text>
</a>
</g>
</g>
<!-- Node3&#45;&gt;Node5 -->
<g id="edge5_Node000005_Node000003" class="edge">
<title>Node3&#45;&gt;Node5</title>
<g id="a_edge5_Node000005_Node000003"><a xlink:title=" ">
<path fill="none" stroke="#63b8ff" d="M373.01,-41.22C381.92,-40.06 390.97,-38.89 399.88,-37.73"/>
<polygon fill="#63b8ff" stroke="#63b8ff" points="372.49,-37.76 363.02,-42.52 373.39,-44.7 372.49,-37.76"/>
</a>
</g>
</g>
<!-- Node4 -->
<g id="Node000004" class="node">
<title>Node4</title>
<g id="a_Node000004"><a xlink:href="classmlir_1_1python_1_1MLIR__BINDINGS__PYTHON__DOMAIN_1_1BaseContextObject.html" target="_top" xlink:title="Base class for all objects that directly or indirectly depend on an MlirContext.">
<polygon fill="white" stroke="#666666" points="163,-73.5 0,-73.5 0,-32.5 163,-32.5 163,-73.5"/>
<text text-anchor="start" x="8" y="-61.5" font-family="Helvetica,sans-Serif" font-size="10.00">mlir::python::MLIR</text>
<text text-anchor="start" x="8" y="-50.5" font-family="Helvetica,sans-Serif" font-size="10.00">_BINDINGS_PYTHON_DOMAIN</text>
<text text-anchor="middle" x="81.5" y="-39.5" font-family="Helvetica,sans-Serif" font-size="10.00">::BaseContextObject</text>
</a>
</g>
</g>
<!-- Node4&#45;&gt;Node3 -->
<g id="edge3_Node000003_Node000004" class="edge">
<title>Node4&#45;&gt;Node3</title>
<g id="a_edge3_Node000003_Node000004"><a xlink:title=" ">
<path fill="none" stroke="#63b8ff" d="M173.32,-53C182.12,-53 191.02,-53 199.72,-53"/>
<polygon fill="#63b8ff" stroke="#63b8ff" points="173.03,-49.5 163.03,-53 173.03,-56.5 173.03,-49.5"/>
</a>
</g>
</g>
<!-- Node5&#45;&gt;Node2 -->
<g id="edge4_Node000002_Node000005" class="edge">
<title>Node5&#45;&gt;Node2</title>
<g id="a_edge4_Node000002_Node000005"><a xlink:title=" ">
<path fill="none" stroke="orange" stroke-dasharray="5,2" d="M592.44,-33.82C640.82,-37.58 698.47,-42.07 745.86,-45.75"/>
<polygon fill="orange" stroke="orange" points="592.51,-30.31 582.26,-33.02 591.96,-37.29 592.51,-30.31"/>
</a>
</g>
<text text-anchor="start" x="603" y="-50.5" font-family="Helvetica,sans-Serif" font-size="10.00" fill="grey">&lt; PyUnknownLocation &gt;</text>
</g>
</g>
</svg>
