<?xml version="1.0" encoding="UTF-8" standalone="no"?>
<!DOCTYPE svg PUBLIC "-//W3C//DTD SVG 1.1//EN"
 "http://www.w3.org/Graphics/SVG/1.1/DTD/svg11.dtd">
<!-- Generated by graphviz version 2.43.0 (0)
 -->
<!-- Title: mlir::ArrayRef&lt; T &gt; Pages: 1 -->
<svg width="479pt" height="898pt"
 viewBox="0.00 0.00 479.00 898.32" xmlns="http://www.w3.org/2000/svg" xmlns:xlink="http://www.w3.org/1999/xlink">
<g id="graph0" class="graph" transform="scale(1 1) rotate(0) translate(4 894.32)">
<title>mlir::ArrayRef&lt; T &gt;</title>
<!-- Node1 -->
<g id="Node000001" class="node">
<title>Node1</title>
<g id="a_Node000001"><a xlink:title=" ">
<polygon fill="#999999" stroke="#666666" points="113,-463.82 0,-463.82 0,-444.82 113,-444.82 113,-463.82"/>
<text text-anchor="middle" x="56.5" y="-451.82" font-family="Helvetica,sans-Serif" font-size="10.00">mlir::ArrayRef&lt; T &gt;</text>
</a>
</g>
</g>
<!-- Node2 -->
<g id="Node000002" class="node">
<title>Node2</title>
<g id="a_Node000002"><a xlink:href="classllvm_1_1ArrayRef.html" target="_top" xlink:title=" ">
<polygon fill="white" stroke="#666666" points="467.5,-871.32 312.5,-871.32 312.5,-841.32 467.5,-841.32 467.5,-871.32"/>
<text text-anchor="start" x="320.5" y="-859.32" font-family="Helvetica,sans-Serif" font-size="10.00">llvm::ArrayRef&lt; DataLayout</text>
<text text-anchor="middle" x="390" y="-848.32" font-family="Helvetica,sans-Serif" font-size="10.00">EntryInterface &gt;</text>
</a>
</g>
</g>
<!-- Node1&#45;&gt;Node2 -->
<g id="edge1_Node000001_Node000002" class="edge">
<title>Node1&#45;&gt;Node2</title>
<g id="a_edge1_Node000001_Node000002"><a xlink:title=" ">
<path fill="none" stroke="orange" stroke-dasharray="5,2" d="M58.33,-474.19C61.75,-545.02 77.13,-783.55 131,-832.32 179.44,-876.17 255.97,-877.99 313.12,-871.35"/>
<polygon fill="orange" stroke="orange" points="61.82,-473.81 57.87,-463.98 54.83,-474.13 61.82,-473.81"/>
</a>
</g>
<text text-anchor="start" x="137" y="-878.82" font-family="Helvetica,sans-Serif" font-size="10.00" fill="grey">&lt; DataLayoutEntryInterface &gt;</text>
</g>
<!-- Node3 -->
<g id="Node000003" class="node">
<title>Node3</title>
<g id="a_Node000003"><a xlink:href="classllvm_1_1ArrayRef.html" target="_top" xlink:title=" ">
<polygon fill="white" stroke="#666666" points="471,-823.32 309,-823.32 309,-793.32 471,-793.32 471,-823.32"/>
<text text-anchor="start" x="317" y="-811.32" font-family="Helvetica,sans-Serif" font-size="10.00">llvm::ArrayRef&lt; TargetDevice</text>
<text text-anchor="middle" x="390" y="-800.32" font-family="Helvetica,sans-Serif" font-size="10.00">SpecInterface &gt;</text>
</a>
</g>
</g>
<!-- Node1&#45;&gt;Node3 -->
<g id="edge2_Node000001_Node000003" class="edge">
<title>Node1&#45;&gt;Node3</title>
<g id="a_edge2_Node000001_Node000003"><a xlink:title=" ">
<path fill="none" stroke="orange" stroke-dasharray="5,2" d="M58.9,-474.27C63.93,-539.5 83.33,-744.6 131,-786.32 156.75,-808.86 243.13,-812.37 308.91,-811.52"/>
<polygon fill="orange" stroke="orange" points="62.38,-473.82 58.15,-464.11 55.4,-474.34 62.38,-473.82"/>
</a>
</g>
<text text-anchor="start" x="134" y="-816.82" font-family="Helvetica,sans-Serif" font-size="10.00" fill="grey">&lt; TargetDeviceSpecInterface &gt;</text>
</g>
<!-- Node4 -->
<g id="Node000004" class="node">
<title>Node4</title>
<g id="a_Node000004"><a xlink:href="classllvm_1_1ArrayRef.html" target="_top" xlink:title=" ">
<polygon fill="white" stroke="#666666" points="455.5,-774.82 324.5,-774.82 324.5,-755.82 455.5,-755.82 455.5,-774.82"/>
<text text-anchor="middle" x="390" y="-762.82" font-family="Helvetica,sans-Serif" font-size="10.00">llvm::ArrayRef&lt; char &gt;</text>
</a>
</g>
</g>
<!-- Node1&#45;&gt;Node4 -->
<g id="edge3_Node000001_Node000004" class="edge">
<title>Node1&#45;&gt;Node4</title>
<g id="a_edge3_Node000001_Node000004"><a xlink:title=" ">
<path fill="none" stroke="orange" stroke-dasharray="5,2" d="M59.61,-474.35C66.34,-533.9 89.27,-707.93 131,-743.32 159.2,-767.24 257.69,-769.5 324.49,-768.06"/>
<polygon fill="orange" stroke="orange" points="63.05,-473.6 58.49,-464.04 56.1,-474.36 63.05,-473.6"/>
</a>
</g>
<text text-anchor="start" x="189" y="-773.82" font-family="Helvetica,sans-Serif" font-size="10.00" fill="grey">&lt; char &gt;</text>
</g>
<!-- Node5 -->
<g id="Node000005" class="node">
<title>Node5</title>
<g id="a_Node000005"><a xlink:href="classllvm_1_1ArrayRef.html" target="_top" xlink:title=" ">
<polygon fill="white" stroke="#666666" points="449,-737.32 331,-737.32 331,-707.32 449,-707.32 449,-737.32"/>
<text text-anchor="start" x="339" y="-725.32" font-family="Helvetica,sans-Serif" font-size="10.00">llvm::ArrayRef&lt; mlir</text>
<text text-anchor="middle" x="390" y="-714.32" font-family="Helvetica,sans-Serif" font-size="10.00">::NamedAttribute &gt;</text>
</a>
</g>
</g>
<!-- Node1&#45;&gt;Node5 -->
<g id="edge4_Node000001_Node000005" class="edge">
<title>Node1&#45;&gt;Node5</title>
<g id="a_edge4_Node000001_Node000005"><a xlink:title=" ">
<path fill="none" stroke="orange" stroke-dasharray="5,2" d="M56.62,-474.08C55.7,-521.71 60.72,-643.16 131,-700.32 160.6,-724.39 264.38,-726.22 330.96,-724.71"/>
<polygon fill="orange" stroke="orange" points="60.13,-473.98 56.94,-463.88 53.13,-473.76 60.13,-473.98"/>
</a>
</g>
<text text-anchor="start" x="148" y="-729.82" font-family="Helvetica,sans-Serif" font-size="10.00" fill="grey">&lt; mlir::NamedAttribute &gt;</text>
</g>
<!-- Node6 -->
<g id="Node000006" class="node">
<title>Node6</title>
<g id="a_Node000006"><a xlink:href="classllvm_1_1ArrayRef.html" target="_top" xlink:title=" ">
<polygon fill="white" stroke="#666666" points="467.5,-688.82 312.5,-688.82 312.5,-669.82 467.5,-669.82 467.5,-688.82"/>
<text text-anchor="middle" x="390" y="-676.82" font-family="Helvetica,sans-Serif" font-size="10.00">llvm::ArrayRef&lt; StringRef &gt;</text>
</a>
</g>
</g>
<!-- Node1&#45;&gt;Node6 -->
<g id="edge5_Node000001_Node000006" class="edge">
<title>Node1&#45;&gt;Node6</title>
<g id="a_edge5_Node000001_Node000006"><a xlink:title=" ">
<path fill="none" stroke="orange" stroke-dasharray="5,2" d="M58.06,-474.26C60.41,-515.97 72.28,-612.29 131,-657.32 158.56,-678.45 246.82,-682.09 312.48,-681.65"/>
<polygon fill="orange" stroke="orange" points="61.55,-473.87 57.62,-464.03 54.55,-474.17 61.55,-473.87"/>
</a>
</g>
<text text-anchor="start" x="177" y="-686.82" font-family="Helvetica,sans-Serif" font-size="10.00" fill="grey">&lt; StringRef &gt;</text>
</g>
<!-- Node7 -->
<g id="Node000007" class="node">
<title>Node7</title>
<g id="a_Node000007"><a xlink:href="classllvm_1_1ArrayRef.html" target="_top" xlink:title=" ">
<polygon fill="white" stroke="#666666" points="461.5,-651.82 318.5,-651.82 318.5,-632.82 461.5,-632.82 461.5,-651.82"/>
<text text-anchor="middle" x="390" y="-639.82" font-family="Helvetica,sans-Serif" font-size="10.00">llvm::ArrayRef&lt; int32_t &gt;</text>
</a>
</g>
</g>
<!-- Node1&#45;&gt;Node7 -->
<g id="edge6_Node000001_Node000007" class="edge">
<title>Node1&#45;&gt;Node7</title>
<g id="a_edge6_Node000001_Node000007"><a xlink:title=" ">
<path fill="none" stroke="orange" stroke-dasharray="5,2" d="M60.04,-474.17C65.72,-509.51 82.96,-582.89 131,-617.32 145.97,-628.05 247.35,-635.28 318.47,-639.1"/>
<polygon fill="orange" stroke="orange" points="63.48,-473.51 58.58,-464.12 56.56,-474.52 63.48,-473.51"/>
</a>
</g>
<text text-anchor="start" x="183" y="-642.82" font-family="Helvetica,sans-Serif" font-size="10.00" fill="grey">&lt; int32_t &gt;</text>
</g>
<!-- Node8 -->
<g id="Node000008" class="node">
<title>Node8</title>
<g id="a_Node000008"><a xlink:href="classllvm_1_1ArrayRef.html" target="_top" xlink:title=" ">
<polygon fill="white" stroke="#666666" points="449,-614.32 331,-614.32 331,-584.32 449,-584.32 449,-614.32"/>
<text text-anchor="start" x="339" y="-602.32" font-family="Helvetica,sans-Serif" font-size="10.00">llvm::ArrayRef&lt; mlir</text>
<text text-anchor="middle" x="390" y="-591.32" font-family="Helvetica,sans-Serif" font-size="10.00">::Type &gt;</text>
</a>
</g>
</g>
<!-- Node1&#45;&gt;Node8 -->
<g id="edge7_Node000001_Node000008" class="edge">
<title>Node1&#45;&gt;Node8</title>
<g id="a_edge7_Node000001_Node000008"><a xlink:title=" ">
<path fill="none" stroke="orange" stroke-dasharray="5,2" d="M63.15,-473.74C72.37,-501.52 93.47,-551.85 131,-575.32 163.18,-595.45 265.04,-599.47 330.74,-599.87"/>
<polygon fill="orange" stroke="orange" points="66.43,-472.48 60.1,-463.98 59.75,-474.57 66.43,-472.48"/>
</a>
</g>
<text text-anchor="start" x="176" y="-603.82" font-family="Helvetica,sans-Serif" font-size="10.00" fill="grey">&lt; mlir::Type &gt;</text>
</g>
<!-- Node9 -->
<g id="Node000009" class="node">
<title>Node9</title>
<g id="a_Node000009"><a xlink:href="classllvm_1_1ArrayRef.html" target="_top" xlink:title=" ">
<polygon fill="white" stroke="#666666" points="461.5,-565.82 318.5,-565.82 318.5,-546.82 461.5,-546.82 461.5,-565.82"/>
<text text-anchor="middle" x="390" y="-553.82" font-family="Helvetica,sans-Serif" font-size="10.00">llvm::ArrayRef&lt; int64_t &gt;</text>
</a>
</g>
</g>
<!-- Node1&#45;&gt;Node9 -->
<g id="edge8_Node000001_Node000009" class="edge">
<title>Node1&#45;&gt;Node9</title>
<g id="a_edge8_Node000001_Node000009"><a xlink:title=" ">
<path fill="none" stroke="orange" stroke-dasharray="5,2" d="M68.34,-472.52C80.81,-491.6 103.19,-520.67 131,-534.32 162.83,-549.95 253.4,-554.67 318.23,-555.99"/>
<polygon fill="orange" stroke="orange" points="71.17,-470.44 62.89,-463.83 65.24,-474.16 71.17,-470.44"/>
</a>
</g>
<text text-anchor="start" x="183" y="-559.82" font-family="Helvetica,sans-Serif" font-size="10.00" fill="grey">&lt; int64_t &gt;</text>
</g>
<!-- Node10 -->
<g id="Node000010" class="node">
<title>Node10</title>
<g id="a_Node000010"><a xlink:href="classllvm_1_1ArrayRef.html" target="_top" xlink:title=" ">
<polygon fill="white" stroke="#666666" points="468,-528.82 312,-528.82 312,-509.82 468,-509.82 468,-528.82"/>
<text text-anchor="middle" x="390" y="-516.82" font-family="Helvetica,sans-Serif" font-size="10.00">llvm::ArrayRef&lt; StringAttr &gt;</text>
</a>
</g>
</g>
<!-- Node1&#45;&gt;Node10 -->
<g id="edge9_Node000001_Node000010" class="edge">
<title>Node1&#45;&gt;Node10</title>
<g id="a_edge9_Node000001_Node000010"><a xlink:title=" ">
<path fill="none" stroke="orange" stroke-dasharray="5,2" d="M82.43,-468.72C96.3,-476.07 114.12,-484.46 131,-489.32 190.26,-506.37 259.83,-513.76 311.78,-516.95"/>
<polygon fill="orange" stroke="orange" points="83.98,-465.58 73.53,-463.86 80.63,-471.72 83.98,-465.58"/>
</a>
</g>
<text text-anchor="start" x="176" y="-520.82" font-family="Helvetica,sans-Serif" font-size="10.00" fill="grey">&lt; StringAttr &gt;</text>
</g>
<!-- Node11 -->
<g id="Node000011" class="node">
<title>Node11</title>
<g id="a_Node000011"><a xlink:href="classllvm_1_1ArrayRef.html" target="_top" xlink:title=" ">
<polygon fill="white" stroke="#666666" points="446.5,-491.32 333.5,-491.32 333.5,-461.32 446.5,-461.32 446.5,-491.32"/>
<text text-anchor="start" x="341.5" y="-479.32" font-family="Helvetica,sans-Serif" font-size="10.00">llvm::ArrayRef&lt; std</text>
<text text-anchor="middle" x="390" y="-468.32" font-family="Helvetica,sans-Serif" font-size="10.00">::string &gt;</text>
</a>
</g>
</g>
<!-- Node1&#45;&gt;Node11 -->
<g id="edge10_Node000001_Node000011" class="edge">
<title>Node1&#45;&gt;Node11</title>
<g id="a_edge10_Node000001_Node000011"><a xlink:title=" ">
<path fill="none" stroke="orange" stroke-dasharray="5,2" d="M123.34,-458.69C184.82,-462.77 275.56,-468.79 333.46,-472.64"/>
<polygon fill="orange" stroke="orange" points="123.57,-455.2 113.36,-458.03 123.11,-462.18 123.57,-455.2"/>
</a>
</g>
<text text-anchor="start" x="175" y="-473.82" font-family="Helvetica,sans-Serif" font-size="10.00" fill="grey">&lt; std::string &gt;</text>
</g>
<!-- Node12 -->
<g id="Node000012" class="node">
<title>Node12</title>
<g id="a_Node000012"><a xlink:href="classllvm_1_1ArrayRef.html" target="_top" xlink:title=" ">
<polygon fill="white" stroke="#666666" points="455.5,-442.82 324.5,-442.82 324.5,-423.82 455.5,-423.82 455.5,-442.82"/>
<text text-anchor="middle" x="390" y="-430.82" font-family="Helvetica,sans-Serif" font-size="10.00">llvm::ArrayRef&lt; bool &gt;</text>
</a>
</g>
</g>
<!-- Node1&#45;&gt;Node12 -->
<g id="edge11_Node000001_Node000012" class="edge">
<title>Node1&#45;&gt;Node12</title>
<g id="a_edge11_Node000001_Node000012"><a xlink:title=" ">
<path fill="none" stroke="orange" stroke-dasharray="5,2" d="M102.05,-442.43C111.54,-440.34 121.55,-438.47 131,-437.32 196.48,-429.33 271.99,-429.21 324.33,-430.55"/>
<polygon fill="orange" stroke="orange" points="100.96,-439.09 92,-444.75 102.53,-445.91 100.96,-439.09"/>
</a>
</g>
<text text-anchor="start" x="189" y="-442.82" font-family="Helvetica,sans-Serif" font-size="10.00" fill="grey">&lt; bool &gt;</text>
</g>
<!-- Node13 -->
<g id="Node000013" class="node">
<title>Node13</title>
<g id="a_Node000013"><a xlink:href="classllvm_1_1ArrayRef.html" target="_top" xlink:title=" ">
<polygon fill="white" stroke="#666666" points="456,-405.32 324,-405.32 324,-375.32 456,-375.32 456,-405.32"/>
<text text-anchor="start" x="332" y="-393.32" font-family="Helvetica,sans-Serif" font-size="10.00">llvm::ArrayRef&lt; mlir</text>
<text text-anchor="middle" x="390" y="-382.32" font-family="Helvetica,sans-Serif" font-size="10.00">::affine::NestedMatch &gt;</text>
</a>
</g>
</g>
<!-- Node1&#45;&gt;Node13 -->
<g id="edge12_Node000001_Node000013" class="edge">
<title>Node1&#45;&gt;Node13</title>
<g id="a_edge12_Node000001_Node000013"><a xlink:title=" ">
<path fill="none" stroke="orange" stroke-dasharray="5,2" d="M77.02,-438.36C91.11,-427.82 111.08,-414.8 131,-408.32 194.3,-387.73 270.81,-384.95 324,-386.26"/>
<polygon fill="orange" stroke="orange" points="74.82,-435.63 69.06,-444.52 79.11,-441.17 74.82,-435.63"/>
</a>
</g>
<text text-anchor="start" x="138" y="-413.82" font-family="Helvetica,sans-Serif" font-size="10.00" fill="grey">&lt; mlir::affine::NestedMatch &gt;</text>
</g>
<!-- Node14 -->
<g id="Node000014" class="node">
<title>Node14</title>
<g id="a_Node000014"><a xlink:href="classllvm_1_1ArrayRef.html" target="_top" xlink:title=" ">
<polygon fill="white" stroke="#666666" points="458.5,-357.32 321.5,-357.32 321.5,-327.32 458.5,-327.32 458.5,-357.32"/>
<text text-anchor="start" x="329.5" y="-345.32" font-family="Helvetica,sans-Serif" font-size="10.00">llvm::ArrayRef&lt; mlir</text>
<text text-anchor="middle" x="390" y="-334.32" font-family="Helvetica,sans-Serif" font-size="10.00">::affine::NestedPattern &gt;</text>
</a>
</g>
</g>
<!-- Node1&#45;&gt;Node14 -->
<g id="edge13_Node000001_Node000014" class="edge">
<title>Node1&#45;&gt;Node14</title>
<g id="a_edge13_Node000001_Node000014"><a xlink:title=" ">
<path fill="none" stroke="orange" stroke-dasharray="5,2" d="M66.89,-435.46C78.65,-414.09 100.96,-380.17 131,-364.32 189.84,-333.27 266.88,-330.77 321.41,-334.19"/>
<polygon fill="orange" stroke="orange" points="63.66,-434.07 62.1,-444.55 69.86,-437.33 63.66,-434.07"/>
</a>
</g>
<text text-anchor="start" x="136" y="-369.82" font-family="Helvetica,sans-Serif" font-size="10.00" fill="grey">&lt; mlir::affine::NestedPattern &gt;</text>
</g>
<!-- Node15 -->
<g id="Node000015" class="node">
<title>Node15</title>
<g id="a_Node000015"><a xlink:href="classllvm_1_1ArrayRef.html" target="_top" xlink:title=" ">
<polygon fill="white" stroke="#666666" points="449,-309.32 331,-309.32 331,-279.32 449,-279.32 449,-309.32"/>
<text text-anchor="start" x="339" y="-297.32" font-family="Helvetica,sans-Serif" font-size="10.00">llvm::ArrayRef&lt; mlir</text>
<text text-anchor="middle" x="390" y="-286.32" font-family="Helvetica,sans-Serif" font-size="10.00">::Attribute &gt;</text>
</a>
</g>
</g>
<!-- Node1&#45;&gt;Node15 -->
<g id="edge14_Node000001_Node000015" class="edge">
<title>Node1&#45;&gt;Node15</title>
<g id="a_edge14_Node000001_Node000015"><a xlink:title=" ">
<path fill="none" stroke="orange" stroke-dasharray="5,2" d="M61.24,-434.52C68.45,-402.43 87.58,-339.82 131,-311.32 190.38,-272.34 274.94,-275.05 330.85,-282.81"/>
<polygon fill="orange" stroke="orange" points="57.77,-433.98 59.16,-444.49 64.63,-435.41 57.77,-433.98"/>
</a>
</g>
<text text-anchor="start" x="166" y="-316.82" font-family="Helvetica,sans-Serif" font-size="10.00" fill="grey">&lt; mlir::Attribute &gt;</text>
</g>
<!-- Node16 -->
<g id="Node000016" class="node">
<title>Node16</title>
<g id="a_Node000016"><a xlink:href="classllvm_1_1ArrayRef.html" target="_top" xlink:title=" ">
<polygon fill="white" stroke="#666666" points="449,-261.32 331,-261.32 331,-231.32 449,-231.32 449,-261.32"/>
<text text-anchor="start" x="339" y="-249.32" font-family="Helvetica,sans-Serif" font-size="10.00">llvm::ArrayRef&lt; mlir</text>
<text text-anchor="middle" x="390" y="-238.32" font-family="Helvetica,sans-Serif" font-size="10.00">::AffineExpr &gt;</text>
</a>
</g>
</g>
<!-- Node1&#45;&gt;Node16 -->
<g id="edge15_Node000001_Node000016" class="edge">
<title>Node1&#45;&gt;Node16</title>
<g id="a_edge15_Node000001_Node000016"><a xlink:title=" ">
<path fill="none" stroke="orange" stroke-dasharray="5,2" d="M58.08,-434.65C60.46,-393.53 72.38,-298.8 131,-256.32 161.72,-234.06 264.59,-236.87 330.78,-241.32"/>
<polygon fill="orange" stroke="orange" points="54.58,-434.59 57.63,-444.73 61.57,-434.9 54.58,-434.59"/>
</a>
</g>
<text text-anchor="start" x="162" y="-261.82" font-family="Helvetica,sans-Serif" font-size="10.00" fill="grey">&lt; mlir::AffineExpr &gt;</text>
</g>
<!-- Node17 -->
<g id="Node000017" class="node">
<title>Node17</title>
<g id="a_Node000017"><a xlink:href="classllvm_1_1ArrayRef.html" target="_top" xlink:title=" ">
<polygon fill="white" stroke="#666666" points="446.5,-212.82 333.5,-212.82 333.5,-171.82 446.5,-171.82 446.5,-212.82"/>
<text text-anchor="start" x="341.5" y="-200.82" font-family="Helvetica,sans-Serif" font-size="10.00">llvm::ArrayRef&lt; std</text>
<text text-anchor="start" x="341.5" y="-189.82" font-family="Helvetica,sans-Serif" font-size="10.00">::unique_ptr&lt; mlir::</text>
<text text-anchor="middle" x="390" y="-178.82" font-family="Helvetica,sans-Serif" font-size="10.00">irdl::Constraint &gt; &gt;</text>
</a>
</g>
</g>
<!-- Node1&#45;&gt;Node17 -->
<g id="edge16_Node000001_Node000017" class="edge">
<title>Node1&#45;&gt;Node17</title>
<g id="a_edge16_Node000001_Node000017"><a xlink:title=" ">
<path fill="none" stroke="orange" stroke-dasharray="5,2" d="M60.25,-434.57C68.24,-380.24 93.34,-230.63 131,-201.32 161.37,-177.68 267.12,-181.71 333.43,-186.92"/>
<polygon fill="orange" stroke="orange" points="56.76,-434.25 58.8,-444.64 63.69,-435.24 56.76,-434.25"/>
</a>
</g>
<text text-anchor="start" x="146" y="-222.32" font-family="Helvetica,sans-Serif" font-size="10.00" fill="grey">&lt; std::unique_ptr&lt;</text>
<text text-anchor="start" x="146" y="-207.32" font-family="Helvetica,sans-Serif" font-size="10.00" fill="grey">   mlir::irdl::Constraint &gt; &gt;</text>
</g>
<!-- Node18 -->
<g id="Node000018" class="node">
<title>Node18</title>
<g id="a_Node000018"><a xlink:href="classllvm_1_1ArrayRef.html" target="_top" xlink:title=" ">
<polygon fill="white" stroke="#666666" points="461.5,-153.82 318.5,-153.82 318.5,-134.82 461.5,-134.82 461.5,-153.82"/>
<text text-anchor="middle" x="390" y="-141.82" font-family="Helvetica,sans-Serif" font-size="10.00">llvm::ArrayRef&lt; double &gt;</text>
</a>
</g>
</g>
<!-- Node1&#45;&gt;Node18 -->
<g id="edge17_Node000001_Node000018" class="edge">
<title>Node1&#45;&gt;Node18</title>
<g id="a_edge17_Node000001_Node000018"><a xlink:title=" ">
<path fill="none" stroke="orange" stroke-dasharray="5,2" d="M59.46,-434.75C65.86,-375.03 88.25,-196.99 131,-161.32 158.49,-138.39 251.87,-137.43 318.37,-139.97"/>
<polygon fill="orange" stroke="orange" points="55.97,-434.45 58.42,-444.76 62.93,-435.17 55.97,-434.45"/>
</a>
</g>
<text text-anchor="start" x="183" y="-166.82" font-family="Helvetica,sans-Serif" font-size="10.00" fill="grey">&lt; double &gt;</text>
</g>
<!-- Node19 -->
<g id="Node000019" class="node">
<title>Node19</title>
<g id="a_Node000019"><a xlink:href="classllvm_1_1ArrayRef.html" target="_top" xlink:title=" ">
<polygon fill="white" stroke="#666666" points="464.5,-116.82 315.5,-116.82 315.5,-97.82 464.5,-97.82 464.5,-116.82"/>
<text text-anchor="middle" x="390" y="-104.82" font-family="Helvetica,sans-Serif" font-size="10.00">llvm::ArrayRef&lt; uint32_t &gt;</text>
</a>
</g>
</g>
<!-- Node1&#45;&gt;Node19 -->
<g id="edge18_Node000001_Node000019" class="edge">
<title>Node1&#45;&gt;Node19</title>
<g id="a_edge18_Node000001_Node000019"><a xlink:title=" ">
<path fill="none" stroke="orange" stroke-dasharray="5,2" d="M58.75,-434.42C63.34,-368.43 81.64,-158.68 131,-117.32 157.97,-94.72 248.9,-96.08 315.19,-100.51"/>
<polygon fill="orange" stroke="orange" points="55.24,-434.47 58.07,-444.68 62.22,-434.94 55.24,-434.47"/>
</a>
</g>
<text text-anchor="start" x="180" y="-122.82" font-family="Helvetica,sans-Serif" font-size="10.00" fill="grey">&lt; uint32_t &gt;</text>
</g>
<!-- Node20 -->
<g id="Node000020" class="node">
<title>Node20</title>
<g id="a_Node000020"><a xlink:href="classllvm_1_1ArrayRef.html" target="_top" xlink:title=" ">
<polygon fill="white" stroke="#666666" points="460.5,-78.82 319.5,-78.82 319.5,-59.82 460.5,-59.82 460.5,-78.82"/>
<text text-anchor="middle" x="390" y="-66.82" font-family="Helvetica,sans-Serif" font-size="10.00">llvm::ArrayRef&lt; SMLoc &gt;</text>
</a>
</g>
</g>
<!-- Node1&#45;&gt;Node20 -->
<g id="edge19_Node000001_Node000020" class="edge">
<title>Node1&#45;&gt;Node20</title>
<g id="a_edge19_Node000001_Node000020"><a xlink:title=" ">
<path fill="none" stroke="orange" stroke-dasharray="5,2" d="M58.23,-434.33C61.27,-363.09 75.56,-123.3 131,-76.32 158.39,-53.11 252.59,-56.22 319.22,-61.79"/>
<polygon fill="orange" stroke="orange" points="54.72,-434.47 57.82,-444.6 61.71,-434.75 54.72,-434.47"/>
</a>
</g>
<text text-anchor="start" x="184" y="-81.82" font-family="Helvetica,sans-Serif" font-size="10.00" fill="grey">&lt; SMLoc &gt;</text>
</g>
<!-- Node21 -->
<g id="Node000021" class="node">
<title>Node21</title>
<g id="a_Node000021"><a xlink:href="classllvm_1_1ArrayRef.html" target="_top" xlink:title=" ">
<polygon fill="white" stroke="#666666" points="449,-41.32 331,-41.32 331,-11.32 449,-11.32 449,-41.32"/>
<text text-anchor="start" x="339" y="-29.32" font-family="Helvetica,sans-Serif" font-size="10.00">llvm::ArrayRef&lt; mlir</text>
<text text-anchor="middle" x="390" y="-18.32" font-family="Helvetica,sans-Serif" font-size="10.00">::IRUnit &gt;</text>
</a>
</g>
</g>
<!-- Node1&#45;&gt;Node21 -->
<g id="edge20_Node000001_Node000021" class="edge">
<title>Node1&#45;&gt;Node21</title>
<g id="a_edge20_Node000001_Node000021"><a xlink:title=" ">
<path fill="none" stroke="orange" stroke-dasharray="5,2" d="M57.86,-434.31C59.68,-358.49 70.38,-90.43 131,-37.32 187.06,11.8 279.12,1.76 336.77,-11.32"/>
<polygon fill="orange" stroke="orange" points="54.35,-434.7 57.64,-444.77 61.35,-434.85 54.35,-434.7"/>
</a>
</g>
<text text-anchor="start" x="172" y="-42.82" font-family="Helvetica,sans-Serif" font-size="10.00" fill="grey">&lt; mlir::IRUnit &gt;</text>
</g>
</g>
</svg>
