<?xml version="1.0" encoding="UTF-8" standalone="no"?>
<!DOCTYPE svg PUBLIC "-//W3C//DTD SVG 1.1//EN"
 "http://www.w3.org/Graphics/SVG/1.1/DTD/svg11.dtd">
<!-- Generated by graphviz version 2.43.0 (0)
 -->
<!-- Title: mlir::pdll::ast::Stmt Pages: 1 -->
<svg width="683pt" height="650pt"
 viewBox="0.00 0.00 683.00 650.00" xmlns="http://www.w3.org/2000/svg" xmlns:xlink="http://www.w3.org/1999/xlink">
<g id="graph0" class="graph" transform="scale(1 1) rotate(0) translate(4 646)">
<title>mlir::pdll::ast::Stmt</title>
<!-- Node1 -->
<g id="node1" class="node">
<title>Node1</title>
<g id="a_node1"><a xlink:title="This class represents a base AST Statement node.">
<polygon fill="#bfbfbf" stroke="black" points="149,-420.5 149,-439.5 259,-439.5 259,-420.5 149,-420.5"/>
<text text-anchor="middle" x="204" y="-427.5" font-family="Helvetica,sans-Serif" font-size="10.00">mlir::pdll::ast::Stmt</text>
</a>
</g>
</g>
<!-- Node3 -->
<g id="node3" class="node">
<title>Node3</title>
<g id="a_node3"><a xlink:href="classmlir_1_1pdll_1_1ast_1_1Node_1_1NodeBase.html" target="_top" xlink:title=" ">
<polygon fill="none" stroke="black" points="305,-529.5 305,-570.5 447,-570.5 447,-529.5 305,-529.5"/>
<text text-anchor="start" x="313" y="-558.5" font-family="Helvetica,sans-Serif" font-size="10.00">mlir::pdll::ast::Node</text>
<text text-anchor="start" x="313" y="-547.5" font-family="Helvetica,sans-Serif" font-size="10.00">::NodeBase&lt; ReturnStmt,</text>
<text text-anchor="middle" x="376" y="-536.5" font-family="Helvetica,sans-Serif" font-size="10.00"> Stmt &gt;</text>
</a>
</g>
</g>
<!-- Node1&#45;&gt;Node3 -->
<g id="edge2" class="edge">
<title>Node1&#45;&gt;Node3</title>
<path fill="none" stroke="midnightblue" d="M218.75,-447.74C235.04,-467.71 263.93,-499.99 295,-520 300.36,-523.45 306.18,-526.59 312.15,-529.43"/>
<polygon fill="midnightblue" stroke="midnightblue" points="221.35,-445.39 212.37,-439.76 215.88,-449.75 221.35,-445.39"/>
</g>
<!-- Node4 -->
<g id="node4" class="node">
<title>Node4</title>
<g id="a_node4"><a xlink:href="classmlir_1_1pdll_1_1ast_1_1Node_1_1NodeBase.html" target="_top" xlink:title=" ">
<polygon fill="none" stroke="black" points="313.5,-469.5 313.5,-510.5 438.5,-510.5 438.5,-469.5 313.5,-469.5"/>
<text text-anchor="start" x="321.5" y="-498.5" font-family="Helvetica,sans-Serif" font-size="10.00">mlir::pdll::ast::Node</text>
<text text-anchor="start" x="321.5" y="-487.5" font-family="Helvetica,sans-Serif" font-size="10.00">::NodeBase&lt; LetStmt,</text>
<text text-anchor="middle" x="376" y="-476.5" font-family="Helvetica,sans-Serif" font-size="10.00"> Stmt &gt;</text>
</a>
</g>
</g>
<!-- Node1&#45;&gt;Node4 -->
<g id="edge3" class="edge">
<title>Node1&#45;&gt;Node4</title>
<path fill="none" stroke="midnightblue" d="M241.53,-442.89C263.47,-450.64 291.89,-460.67 316.86,-469.48"/>
<polygon fill="midnightblue" stroke="midnightblue" points="242.53,-439.53 231.94,-439.51 240.2,-446.14 242.53,-439.53"/>
</g>
<!-- Node5 -->
<g id="node5" class="node">
<title>Node5</title>
<g id="a_node5"><a xlink:href="classmlir_1_1pdll_1_1ast_1_1Node_1_1NodeBase.html" target="_top" xlink:title=" ">
<polygon fill="none" stroke="black" points="295,-409.5 295,-450.5 457,-450.5 457,-409.5 295,-409.5"/>
<text text-anchor="start" x="303" y="-438.5" font-family="Helvetica,sans-Serif" font-size="10.00">mlir::pdll::ast::Node</text>
<text text-anchor="start" x="303" y="-427.5" font-family="Helvetica,sans-Serif" font-size="10.00">::NodeBase&lt; CompoundStmt,</text>
<text text-anchor="middle" x="376" y="-416.5" font-family="Helvetica,sans-Serif" font-size="10.00"> Stmt &gt;</text>
</a>
</g>
</g>
<!-- Node1&#45;&gt;Node5 -->
<g id="edge4" class="edge">
<title>Node1&#45;&gt;Node5</title>
<path fill="none" stroke="midnightblue" d="M269.3,-430C277.68,-430 286.34,-430 294.93,-430"/>
<polygon fill="midnightblue" stroke="midnightblue" points="269.26,-426.5 259.26,-430 269.26,-433.5 269.26,-426.5"/>
</g>
<!-- Node6 -->
<g id="node6" class="node">
<title>Node6</title>
<g id="a_node6"><a xlink:href="classmlir_1_1pdll_1_1ast_1_1Expr.html" target="_top" xlink:title="This class represents a base AST Expression node.">
<polygon fill="none" stroke="black" points="321.5,-371.5 321.5,-390.5 430.5,-390.5 430.5,-371.5 321.5,-371.5"/>
<text text-anchor="middle" x="376" y="-378.5" font-family="Helvetica,sans-Serif" font-size="10.00">mlir::pdll::ast::Expr</text>
</a>
</g>
</g>
<!-- Node1&#45;&gt;Node6 -->
<g id="edge5" class="edge">
<title>Node1&#45;&gt;Node6</title>
<path fill="none" stroke="midnightblue" d="M241.28,-417.09C257.6,-411.5 277.16,-405.08 295,-400 306.81,-396.64 319.71,-393.39 331.64,-390.56"/>
<polygon fill="midnightblue" stroke="midnightblue" points="239.89,-413.87 231.59,-420.45 242.18,-420.48 239.89,-413.87"/>
</g>
<!-- Node15 -->
<g id="node15" class="node">
<title>Node15</title>
<g id="a_node15"><a xlink:href="classmlir_1_1pdll_1_1ast_1_1OpRewriteStmt.html" target="_top" xlink:title="This class represents a base operation rewrite statement.">
<polygon fill="none" stroke="black" points="295.5,-101.5 295.5,-120.5 456.5,-120.5 456.5,-101.5 295.5,-101.5"/>
<text text-anchor="middle" x="376" y="-108.5" font-family="Helvetica,sans-Serif" font-size="10.00">mlir::pdll::ast::OpRewriteStmt</text>
</a>
</g>
</g>
<!-- Node1&#45;&gt;Node15 -->
<g id="edge14" class="edge">
<title>Node1&#45;&gt;Node15</title>
<path fill="none" stroke="midnightblue" d="M214.93,-411.37C246.87,-351.43 346.32,-164.82 369.93,-120.51"/>
<polygon fill="midnightblue" stroke="midnightblue" points="211.7,-409.98 210.09,-420.45 217.88,-413.27 211.7,-409.98"/>
</g>
<!-- Node2 -->
<g id="node2" class="node">
<title>Node2</title>
<g id="a_node2"><a xlink:href="classmlir_1_1pdll_1_1ast_1_1Node.html" target="_top" xlink:title="This class represents a base AST node.">
<polygon fill="none" stroke="black" points="0,-420.5 0,-439.5 113,-439.5 113,-420.5 0,-420.5"/>
<text text-anchor="middle" x="56.5" y="-427.5" font-family="Helvetica,sans-Serif" font-size="10.00">mlir::pdll::ast::Node</text>
</a>
</g>
</g>
<!-- Node2&#45;&gt;Node1 -->
<g id="edge1" class="edge">
<title>Node2&#45;&gt;Node1</title>
<path fill="none" stroke="midnightblue" d="M123.61,-430C132.1,-430 140.72,-430 148.99,-430"/>
<polygon fill="midnightblue" stroke="midnightblue" points="123.34,-426.5 113.34,-430 123.34,-433.5 123.34,-426.5"/>
</g>
<!-- Node7 -->
<g id="node7" class="node">
<title>Node7</title>
<g id="a_node7"><a xlink:href="classmlir_1_1pdll_1_1ast_1_1Node_1_1NodeBase.html" target="_top" xlink:title=" ">
<polygon fill="none" stroke="black" points="511,-600.5 511,-641.5 657,-641.5 657,-600.5 511,-600.5"/>
<text text-anchor="start" x="519" y="-629.5" font-family="Helvetica,sans-Serif" font-size="10.00">mlir::pdll::ast::Node</text>
<text text-anchor="start" x="519" y="-618.5" font-family="Helvetica,sans-Serif" font-size="10.00">::NodeBase&lt; DeclRefExpr,</text>
<text text-anchor="middle" x="584" y="-607.5" font-family="Helvetica,sans-Serif" font-size="10.00"> Expr &gt;</text>
</a>
</g>
</g>
<!-- Node6&#45;&gt;Node7 -->
<g id="edge6" class="edge">
<title>Node6&#45;&gt;Node7</title>
<path fill="none" stroke="midnightblue" d="M440.1,-388.36C446.41,-391.22 452.23,-395 457,-400 516.63,-462.5 436.19,-525.92 493,-591 497.98,-596.71 504.08,-601.33 510.73,-605.08"/>
<polygon fill="midnightblue" stroke="midnightblue" points="441.17,-385.03 430.58,-384.81 438.73,-391.58 441.17,-385.03"/>
</g>
<!-- Node8 -->
<g id="node8" class="node">
<title>Node8</title>
<g id="a_node8"><a xlink:href="classmlir_1_1pdll_1_1ast_1_1Node_1_1NodeBase.html" target="_top" xlink:title=" ">
<polygon fill="none" stroke="black" points="506,-540.5 506,-581.5 662,-581.5 662,-540.5 506,-540.5"/>
<text text-anchor="start" x="514" y="-569.5" font-family="Helvetica,sans-Serif" font-size="10.00">mlir::pdll::ast::Node</text>
<text text-anchor="start" x="514" y="-558.5" font-family="Helvetica,sans-Serif" font-size="10.00">::NodeBase&lt; OperationExpr,</text>
<text text-anchor="middle" x="584" y="-547.5" font-family="Helvetica,sans-Serif" font-size="10.00"> Expr &gt;</text>
</a>
</g>
</g>
<!-- Node6&#45;&gt;Node8 -->
<g id="edge7" class="edge">
<title>Node6&#45;&gt;Node8</title>
<path fill="none" stroke="midnightblue" d="M439.97,-388.87C446.25,-391.64 452.1,-395.27 457,-400 500.44,-441.94 451.46,-487.18 493,-531 496.74,-534.94 501.01,-538.37 505.61,-541.35"/>
<polygon fill="midnightblue" stroke="midnightblue" points="441.12,-385.57 430.53,-385.4 438.71,-392.14 441.12,-385.57"/>
</g>
<!-- Node9 -->
<g id="node9" class="node">
<title>Node9</title>
<g id="a_node9"><a xlink:href="classmlir_1_1pdll_1_1ast_1_1Node_1_1NodeBase.html" target="_top" xlink:title=" ">
<polygon fill="none" stroke="black" points="517,-480.5 517,-521.5 651,-521.5 651,-480.5 517,-480.5"/>
<text text-anchor="start" x="525" y="-509.5" font-family="Helvetica,sans-Serif" font-size="10.00">mlir::pdll::ast::Node</text>
<text text-anchor="start" x="525" y="-498.5" font-family="Helvetica,sans-Serif" font-size="10.00">::NodeBase&lt; TupleExpr,</text>
<text text-anchor="middle" x="584" y="-487.5" font-family="Helvetica,sans-Serif" font-size="10.00"> Expr &gt;</text>
</a>
</g>
</g>
<!-- Node6&#45;&gt;Node9 -->
<g id="edge8" class="edge">
<title>Node6&#45;&gt;Node9</title>
<path fill="none" stroke="midnightblue" d="M440.32,-390.41C446.31,-392.91 452,-396.06 457,-400 484.79,-421.9 466.21,-447.89 493,-471 499.98,-477.02 508.22,-481.85 516.83,-485.71"/>
<polygon fill="midnightblue" stroke="midnightblue" points="441.32,-387.05 430.73,-386.97 438.96,-393.64 441.32,-387.05"/>
</g>
<!-- Node10 -->
<g id="node10" class="node">
<title>Node10</title>
<g id="a_node10"><a xlink:href="classmlir_1_1pdll_1_1ast_1_1Node_1_1NodeBase.html" target="_top" xlink:title=" ">
<polygon fill="none" stroke="black" points="508.5,-420.5 508.5,-461.5 659.5,-461.5 659.5,-420.5 508.5,-420.5"/>
<text text-anchor="start" x="516.5" y="-449.5" font-family="Helvetica,sans-Serif" font-size="10.00">mlir::pdll::ast::Node</text>
<text text-anchor="start" x="516.5" y="-438.5" font-family="Helvetica,sans-Serif" font-size="10.00">::NodeBase&lt; AttributeExpr,</text>
<text text-anchor="middle" x="584" y="-427.5" font-family="Helvetica,sans-Serif" font-size="10.00"> Expr &gt;</text>
</a>
</g>
</g>
<!-- Node6&#45;&gt;Node10 -->
<g id="edge9" class="edge">
<title>Node6&#45;&gt;Node10</title>
<path fill="none" stroke="midnightblue" d="M429.7,-392.87C438.84,-395.11 448.22,-397.53 457,-400 469.62,-403.55 495.99,-412.06 521.36,-420.42"/>
<polygon fill="midnightblue" stroke="midnightblue" points="430.47,-389.46 419.93,-390.52 428.83,-396.26 430.47,-389.46"/>
</g>
<!-- Node11 -->
<g id="node11" class="node">
<title>Node11</title>
<g id="a_node11"><a xlink:href="classmlir_1_1pdll_1_1ast_1_1Node_1_1NodeBase.html" target="_top" xlink:title=" ">
<polygon fill="none" stroke="black" points="493,-360.5 493,-401.5 675,-401.5 675,-360.5 493,-360.5"/>
<text text-anchor="start" x="501" y="-389.5" font-family="Helvetica,sans-Serif" font-size="10.00">mlir::pdll::ast::Node</text>
<text text-anchor="start" x="501" y="-378.5" font-family="Helvetica,sans-Serif" font-size="10.00">::NodeBase&lt; MemberAccessExpr,</text>
<text text-anchor="middle" x="584" y="-367.5" font-family="Helvetica,sans-Serif" font-size="10.00"> Expr &gt;</text>
</a>
</g>
</g>
<!-- Node6&#45;&gt;Node11 -->
<g id="edge10" class="edge">
<title>Node6&#45;&gt;Node11</title>
<path fill="none" stroke="midnightblue" d="M440.67,-381C457.21,-381 475.36,-381 492.98,-381"/>
<polygon fill="midnightblue" stroke="midnightblue" points="440.59,-377.5 430.59,-381 440.59,-384.5 440.59,-377.5"/>
</g>
<!-- Node12 -->
<g id="node12" class="node">
<title>Node12</title>
<g id="a_node12"><a xlink:href="classmlir_1_1pdll_1_1ast_1_1Node_1_1NodeBase.html" target="_top" xlink:title=" ">
<polygon fill="none" stroke="black" points="518.5,-300.5 518.5,-341.5 649.5,-341.5 649.5,-300.5 518.5,-300.5"/>
<text text-anchor="start" x="526.5" y="-329.5" font-family="Helvetica,sans-Serif" font-size="10.00">mlir::pdll::ast::Node</text>
<text text-anchor="start" x="526.5" y="-318.5" font-family="Helvetica,sans-Serif" font-size="10.00">::NodeBase&lt; TypeExpr,</text>
<text text-anchor="middle" x="584" y="-307.5" font-family="Helvetica,sans-Serif" font-size="10.00"> Expr &gt;</text>
</a>
</g>
</g>
<!-- Node6&#45;&gt;Node12 -->
<g id="edge11" class="edge">
<title>Node6&#45;&gt;Node12</title>
<path fill="none" stroke="midnightblue" d="M419.28,-368.68C447.75,-360.39 485.83,-349.3 518.1,-339.9"/>
<polygon fill="midnightblue" stroke="midnightblue" points="418.26,-365.34 409.64,-371.49 420.22,-372.06 418.26,-365.34"/>
</g>
<!-- Node13 -->
<g id="node13" class="node">
<title>Node13</title>
<g id="a_node13"><a xlink:href="classmlir_1_1pdll_1_1ast_1_1Node_1_1NodeBase.html" target="_top" xlink:title=" ">
<polygon fill="none" stroke="black" points="514.5,-240.5 514.5,-281.5 653.5,-281.5 653.5,-240.5 514.5,-240.5"/>
<text text-anchor="start" x="522.5" y="-269.5" font-family="Helvetica,sans-Serif" font-size="10.00">mlir::pdll::ast::Node</text>
<text text-anchor="start" x="522.5" y="-258.5" font-family="Helvetica,sans-Serif" font-size="10.00">::NodeBase&lt; RangeExpr,</text>
<text text-anchor="middle" x="584" y="-247.5" font-family="Helvetica,sans-Serif" font-size="10.00"> Expr &gt;</text>
</a>
</g>
</g>
<!-- Node6&#45;&gt;Node13 -->
<g id="edge12" class="edge">
<title>Node6&#45;&gt;Node13</title>
<path fill="none" stroke="midnightblue" d="M394.44,-364.36C416.06,-344.51 454.73,-311.45 493,-291 499.68,-287.43 506.87,-284.17 514.16,-281.23"/>
<polygon fill="midnightblue" stroke="midnightblue" points="391.96,-361.88 387.03,-371.26 396.73,-367.01 391.96,-361.88"/>
</g>
<!-- Node14 -->
<g id="node14" class="node">
<title>Node14</title>
<g id="a_node14"><a xlink:href="classmlir_1_1pdll_1_1ast_1_1Node_1_1NodeBase.html" target="_top" xlink:title=" ">
<polygon fill="none" stroke="black" points="520.5,-180.5 520.5,-221.5 647.5,-221.5 647.5,-180.5 520.5,-180.5"/>
<text text-anchor="start" x="528.5" y="-209.5" font-family="Helvetica,sans-Serif" font-size="10.00">mlir::pdll::ast::Node</text>
<text text-anchor="start" x="528.5" y="-198.5" font-family="Helvetica,sans-Serif" font-size="10.00">::NodeBase&lt; CallExpr,</text>
<text text-anchor="middle" x="584" y="-187.5" font-family="Helvetica,sans-Serif" font-size="10.00"> Expr &gt;</text>
</a>
</g>
</g>
<!-- Node6&#45;&gt;Node14 -->
<g id="edge13" class="edge">
<title>Node6&#45;&gt;Node14</title>
<path fill="none" stroke="midnightblue" d="M386.61,-362.3C403.76,-330.71 442.61,-266.76 493,-231 501.19,-225.19 510.59,-220.44 520.16,-216.58"/>
<polygon fill="midnightblue" stroke="midnightblue" points="383.41,-360.86 381.82,-371.34 389.59,-364.14 383.41,-360.86"/>
</g>
<!-- Node16 -->
<g id="node16" class="node">
<title>Node16</title>
<g id="a_node16"><a xlink:href="classmlir_1_1pdll_1_1ast_1_1Node_1_1NodeBase.html" target="_top" xlink:title=" ">
<polygon fill="none" stroke="black" points="509.5,-120.5 509.5,-161.5 658.5,-161.5 658.5,-120.5 509.5,-120.5"/>
<text text-anchor="start" x="517.5" y="-149.5" font-family="Helvetica,sans-Serif" font-size="10.00">mlir::pdll::ast::Node</text>
<text text-anchor="start" x="517.5" y="-138.5" font-family="Helvetica,sans-Serif" font-size="10.00">::NodeBase&lt; ReplaceStmt,</text>
<text text-anchor="middle" x="584" y="-127.5" font-family="Helvetica,sans-Serif" font-size="10.00"> OpRewriteStmt &gt;</text>
</a>
</g>
</g>
<!-- Node15&#45;&gt;Node16 -->
<g id="edge15" class="edge">
<title>Node15&#45;&gt;Node16</title>
<path fill="none" stroke="midnightblue" d="M452.37,-121.98C471,-124.69 490.93,-127.59 509.47,-130.29"/>
<polygon fill="midnightblue" stroke="midnightblue" points="452.86,-118.51 442.46,-120.53 451.85,-125.44 452.86,-118.51"/>
</g>
<!-- Node17 -->
<g id="node17" class="node">
<title>Node17</title>
<g id="a_node17"><a xlink:href="classmlir_1_1pdll_1_1ast_1_1Node_1_1NodeBase.html" target="_top" xlink:title=" ">
<polygon fill="none" stroke="black" points="515.5,-60.5 515.5,-101.5 652.5,-101.5 652.5,-60.5 515.5,-60.5"/>
<text text-anchor="start" x="523.5" y="-89.5" font-family="Helvetica,sans-Serif" font-size="10.00">mlir::pdll::ast::Node</text>
<text text-anchor="start" x="523.5" y="-78.5" font-family="Helvetica,sans-Serif" font-size="10.00">::NodeBase&lt; EraseStmt,</text>
<text text-anchor="middle" x="584" y="-67.5" font-family="Helvetica,sans-Serif" font-size="10.00"> OpRewriteStmt &gt;</text>
</a>
</g>
</g>
<!-- Node15&#45;&gt;Node17 -->
<g id="edge16" class="edge">
<title>Node15&#45;&gt;Node17</title>
<path fill="none" stroke="midnightblue" d="M452.41,-100.02C472.97,-97.02 495.12,-93.8 515.22,-90.87"/>
<polygon fill="midnightblue" stroke="midnightblue" points="451.85,-96.56 442.46,-101.47 452.86,-103.49 451.85,-96.56"/>
</g>
<!-- Node18 -->
<g id="node18" class="node">
<title>Node18</title>
<g id="a_node18"><a xlink:href="classmlir_1_1pdll_1_1ast_1_1Node_1_1NodeBase.html" target="_top" xlink:title=" ">
<polygon fill="none" stroke="black" points="510.5,-0.5 510.5,-41.5 657.5,-41.5 657.5,-0.5 510.5,-0.5"/>
<text text-anchor="start" x="518.5" y="-29.5" font-family="Helvetica,sans-Serif" font-size="10.00">mlir::pdll::ast::Node</text>
<text text-anchor="start" x="518.5" y="-18.5" font-family="Helvetica,sans-Serif" font-size="10.00">::NodeBase&lt; RewriteStmt,</text>
<text text-anchor="middle" x="584" y="-7.5" font-family="Helvetica,sans-Serif" font-size="10.00"> OpRewriteStmt &gt;</text>
</a>
</g>
</g>
<!-- Node15&#45;&gt;Node18 -->
<g id="edge17" class="edge">
<title>Node15&#45;&gt;Node18</title>
<path fill="none" stroke="midnightblue" d="M402.34,-96.44C425.48,-83.49 460.87,-64.57 493,-51 500.74,-47.73 508.97,-44.58 517.18,-41.62"/>
<polygon fill="midnightblue" stroke="midnightblue" points="400.5,-93.45 393.51,-101.42 403.94,-99.55 400.5,-93.45"/>
</g>
</g>
</svg>
