<?xml version="1.0" encoding="UTF-8" standalone="no"?>
<!DOCTYPE svg PUBLIC "-//W3C//DTD SVG 1.1//EN"
 "http://www.w3.org/Graphics/SVG/1.1/DTD/svg11.dtd">
<!-- Generated by graphviz version 2.43.0 (0)
 -->
<!-- Title: mlir::DenseElementsAttr::BoolElementIterator Pages: 1 -->
<svg width="864pt" height="127pt"
 viewBox="0.00 0.00 864.00 127.00" xmlns="http://www.w3.org/2000/svg" xmlns:xlink="http://www.w3.org/1999/xlink">
<g id="graph0" class="graph" transform="scale(1 1) rotate(0) translate(4 123)">
<title>mlir::DenseElementsAttr::BoolElementIterator</title>
<!-- Node1 -->
<g id="node1" class="node">
<title>Node1</title>
<g id="a_node1"><a xlink:title="A utility iterator that allows walking over the internal bool values.">
<polygon fill="#bfbfbf" stroke="black" points="719,-44.5 719,-74.5 856,-74.5 856,-44.5 719,-44.5"/>
<text text-anchor="start" x="727" y="-62.5" font-family="Helvetica,sans-Serif" font-size="10.00">mlir::DenseElementsAttr</text>
<text text-anchor="middle" x="787.5" y="-51.5" font-family="Helvetica,sans-Serif" font-size="10.00">::BoolElementIterator</text>
</a>
</g>
</g>
<!-- Node2 -->
<g id="node2" class="node">
<title>Node2</title>
<g id="a_node2"><a xlink:href="classmlir_1_1detail_1_1DenseElementIndexedIteratorImpl.html" target="_top" xlink:title=" ">
<polygon fill="none" stroke="black" points="496,-39 496,-80 682,-80 682,-39 496,-39"/>
<text text-anchor="start" x="504" y="-68" font-family="Helvetica,sans-Serif" font-size="10.00">mlir::detail::DenseElement</text>
<text text-anchor="start" x="504" y="-57" font-family="Helvetica,sans-Serif" font-size="10.00">IndexedIteratorImpl&lt; BoolElement</text>
<text text-anchor="middle" x="589" y="-46" font-family="Helvetica,sans-Serif" font-size="10.00">Iterator, bool, bool, bool &gt;</text>
</a>
</g>
</g>
<!-- Node2&#45;&gt;Node1 -->
<g id="edge1" class="edge">
<title>Node2&#45;&gt;Node1</title>
<path fill="none" stroke="midnightblue" d="M692.36,-59.5C701.36,-59.5 710.3,-59.5 718.9,-59.5"/>
<polygon fill="midnightblue" stroke="midnightblue" points="692.21,-56 682.21,-59.5 692.21,-63 692.21,-56"/>
</g>
<!-- Node3 -->
<g id="node3" class="node">
<title>Node3</title>
<g id="a_node3"><a xlink:title=" ">
<polygon fill="none" stroke="#bfbfbf" points="171,-66.5 171,-118.5 341,-118.5 341,-66.5 171,-66.5"/>
<text text-anchor="start" x="179" y="-106.5" font-family="Helvetica,sans-Serif" font-size="10.00">llvm::indexed_accessor</text>
<text text-anchor="start" x="179" y="-95.5" font-family="Helvetica,sans-Serif" font-size="10.00">_iterator&lt; BoolElementIterator,</text>
<text text-anchor="start" x="179" y="-84.5" font-family="Helvetica,sans-Serif" font-size="10.00"> DenseIterPtrAndSplat, bool,</text>
<text text-anchor="middle" x="256" y="-73.5" font-family="Helvetica,sans-Serif" font-size="10.00"> bool, bool &gt;</text>
</a>
</g>
</g>
<!-- Node3&#45;&gt;Node2 -->
<g id="edge2" class="edge">
<title>Node3&#45;&gt;Node2</title>
<path fill="none" stroke="midnightblue" d="M351.51,-83.08C396.83,-78.56 450.91,-73.17 495.92,-68.68"/>
<polygon fill="midnightblue" stroke="midnightblue" points="350.99,-79.61 341.38,-84.09 351.68,-86.58 350.99,-79.61"/>
</g>
<!-- Node4 -->
<g id="node4" class="node">
<title>Node4</title>
<g id="a_node4"><a xlink:href="classmlir_1_1detail_1_1DenseElementIndexedIteratorImpl.html" target="_top" xlink:title="Impl iterator for indexed DenseElementsAttr iterators that records a data pointer and data index that...">
<polygon fill="none" stroke="black" points="168,-6 168,-47 344,-47 344,-6 168,-6"/>
<text text-anchor="start" x="176" y="-35" font-family="Helvetica,sans-Serif" font-size="10.00">mlir::detail::DenseElement</text>
<text text-anchor="start" x="176" y="-24" font-family="Helvetica,sans-Serif" font-size="10.00">IndexedIteratorImpl&lt; ConcreteT,</text>
<text text-anchor="middle" x="256" y="-13" font-family="Helvetica,sans-Serif" font-size="10.00"> T, PointerT, ReferenceT &gt;</text>
</a>
</g>
</g>
<!-- Node4&#45;&gt;Node2 -->
<g id="edge3" class="edge">
<title>Node4&#45;&gt;Node2</title>
<path fill="none" stroke="orange" stroke-dasharray="5,2" d="M354.4,-33.29C392.94,-36.27 437.6,-40.1 478,-44.5 483.84,-45.14 489.86,-45.83 495.92,-46.57"/>
<polygon fill="orange" stroke="orange" points="354.46,-29.78 344.22,-32.51 353.93,-36.76 354.46,-29.78"/>
<text text-anchor="start" x="362" y="-58.5" font-family="Helvetica,sans-Serif" font-size="10.00"> &lt; BoolElementIterator,</text>
<text text-anchor="middle" x="420" y="-47.5" font-family="Helvetica,sans-Serif" font-size="10.00"> bool, bool, bool &gt;</text>
</g>
<!-- Node5 -->
<g id="node5" class="node">
<title>Node5</title>
<g id="a_node5"><a xlink:title=" ">
<polygon fill="none" stroke="#bfbfbf" points="0,-0.5 0,-52.5 131,-52.5 131,-0.5 0,-0.5"/>
<text text-anchor="start" x="8" y="-40.5" font-family="Helvetica,sans-Serif" font-size="10.00">llvm::indexed_accessor</text>
<text text-anchor="start" x="8" y="-29.5" font-family="Helvetica,sans-Serif" font-size="10.00">_iterator&lt; ConcreteT,</text>
<text text-anchor="start" x="8" y="-18.5" font-family="Helvetica,sans-Serif" font-size="10.00"> DenseIterPtrAndSplat,</text>
<text text-anchor="middle" x="65.5" y="-7.5" font-family="Helvetica,sans-Serif" font-size="10.00"> T, T *, T &amp; &gt;</text>
</a>
</g>
</g>
<!-- Node5&#45;&gt;Node4 -->
<g id="edge4" class="edge">
<title>Node5&#45;&gt;Node4</title>
<path fill="none" stroke="midnightblue" d="M141.23,-26.5C149.97,-26.5 158.94,-26.5 167.82,-26.5"/>
<polygon fill="midnightblue" stroke="midnightblue" points="141.11,-23 131.11,-26.5 141.11,-30 141.11,-23"/>
</g>
</g>
</svg>
