<?xml version="1.0" encoding="UTF-8" standalone="no"?>
<!DOCTYPE svg PUBLIC "-//W3C//DTD SVG 1.1//EN"
 "http://www.w3.org/Graphics/SVG/1.1/DTD/svg11.dtd">
<!-- Generated by graphviz version 2.43.0 (0)
 -->
<!-- Title: mlir::detail::DialectInterfaceBase&lt; ConcreteType, BaseT &gt; Pages: 1 -->
<svg width="1560pt" height="615pt"
 viewBox="0.00 0.00 1560.00 614.50" xmlns="http://www.w3.org/2000/svg" xmlns:xlink="http://www.w3.org/1999/xlink">
<g id="graph0" class="graph" transform="scale(1 1) rotate(0) translate(4 610.5)">
<title>mlir::detail::DialectInterfaceBase&lt; ConcreteType, BaseT &gt;</title>
<!-- Node1 -->
<g id="Node000001" class="node">
<title>Node1</title>
<g id="a_Node000001"><a xlink:title="The base class used for all derived interface types.">
<polygon fill="#999999" stroke="#666666" points="249,-343.5 84,-343.5 84,-313.5 249,-313.5 249,-343.5"/>
<text text-anchor="start" x="92" y="-331.5" font-family="Helvetica,sans-Serif" font-size="10.00">mlir::detail::DialectInterface</text>
<text text-anchor="middle" x="166.5" y="-320.5" font-family="Helvetica,sans-Serif" font-size="10.00">Base&lt; ConcreteType, BaseT &gt;</text>
</a>
</g>
</g>
<!-- Node3 -->
<g id="Node000003" class="node">
<title>Node3</title>
<g id="a_Node000003"><a xlink:href="classmlir_1_1detail_1_1DialectInterfaceBase.html" target="_top" xlink:title=" ">
<polygon fill="white" stroke="#666666" points="677,-343.5 464,-343.5 464,-313.5 677,-313.5 677,-343.5"/>
<text text-anchor="start" x="472" y="-331.5" font-family="Helvetica,sans-Serif" font-size="10.00">mlir::detail::DialectInterface</text>
<text text-anchor="middle" x="570.5" y="-320.5" font-family="Helvetica,sans-Serif" font-size="10.00">Base&lt; ConcreteType, DialectInterface &gt;</text>
</a>
</g>
</g>
<!-- Node1&#45;&gt;Node3 -->
<g id="edge2_Node000001_Node000003" class="edge">
<title>Node1&#45;&gt;Node3</title>
<g id="a_edge2_Node000001_Node000003"><a xlink:title=" ">
<path fill="none" stroke="orange" stroke-dasharray="5,2" d="M259.69,-328.5C320.49,-328.5 400.31,-328.5 463.71,-328.5"/>
<polygon fill="orange" stroke="orange" points="259.34,-325 249.34,-328.5 259.34,-332 259.34,-325"/>
</a>
</g>
<text text-anchor="start" x="270.5" y="-334" font-family="Helvetica,sans-Serif" font-size="10.00" fill="grey">&lt; ConcreteType, DialectInterface &gt;</text>
</g>
<!-- Node2 -->
<g id="Node000002" class="node">
<title>Node2</title>
<g id="a_Node000002"><a xlink:title=" ">
<polygon fill="white" stroke="#666666" points="47,-338 0,-338 0,-319 47,-319 47,-338"/>
<text text-anchor="middle" x="23.5" y="-326" font-family="Helvetica,sans-Serif" font-size="10.00">BaseT</text>
</a>
</g>
</g>
<!-- Node2&#45;&gt;Node1 -->
<g id="edge1_Node000001_Node000002" class="edge">
<title>Node2&#45;&gt;Node1</title>
<g id="a_edge1_Node000001_Node000002"><a xlink:title=" ">
<path fill="none" stroke="#63b8ff" d="M57.29,-328.5C65.46,-328.5 74.59,-328.5 83.98,-328.5"/>
<polygon fill="#63b8ff" stroke="#63b8ff" points="57.15,-325 47.15,-328.5 57.15,-332 57.15,-325"/>
</a>
</g>
</g>
<!-- Node4 -->
<g id="Node000004" class="node">
<title>Node4</title>
<g id="a_Node000004"><a xlink:href="classmlir_1_1BytecodeDialectInterface.html" target="_top" xlink:title=" ">
<polygon fill="white" stroke="#666666" points="891.5,-606.5 725.5,-606.5 725.5,-576.5 891.5,-576.5 891.5,-606.5"/>
<text text-anchor="start" x="733.5" y="-594.5" font-family="Helvetica,sans-Serif" font-size="10.00">mlir::BytecodeDialectInterface</text>
<text text-anchor="middle" x="808.5" y="-583.5" font-family="Helvetica,sans-Serif" font-size="10.00">&lt; BytecodeDialectInterface &gt;</text>
</a>
</g>
</g>
<!-- Node3&#45;&gt;Node4 -->
<g id="edge3_Node000003_Node000004" class="edge">
<title>Node3&#45;&gt;Node4</title>
<g id="a_edge3_Node000003_Node000004"><a xlink:title=" ">
<path fill="none" stroke="#63b8ff" d="M579.14,-353.35C595.5,-402.26 638.68,-511.16 714,-567.5 718.56,-570.91 723.56,-573.84 728.8,-576.36"/>
<polygon fill="#63b8ff" stroke="#63b8ff" points="582.39,-352.02 575.97,-343.59 575.73,-354.19 582.39,-352.02"/>
</a>
</g>
</g>
<!-- Node5 -->
<g id="Node000005" class="node">
<title>Node5</title>
<g id="a_Node000005"><a xlink:href="classmlir_1_1ConvertToEmitCPatternInterface.html" target="_top" xlink:title=" ">
<polygon fill="white" stroke="#666666" points="900.5,-558 716.5,-558 716.5,-517 900.5,-517 900.5,-558"/>
<text text-anchor="start" x="724.5" y="-546" font-family="Helvetica,sans-Serif" font-size="10.00">mlir::ConvertToEmitCPattern</text>
<text text-anchor="start" x="724.5" y="-535" font-family="Helvetica,sans-Serif" font-size="10.00">Interface&lt; ConvertToEmitCPattern</text>
<text text-anchor="middle" x="808.5" y="-524" font-family="Helvetica,sans-Serif" font-size="10.00">Interface &gt;</text>
</a>
</g>
</g>
<!-- Node3&#45;&gt;Node5 -->
<g id="edge4_Node000003_Node000005" class="edge">
<title>Node3&#45;&gt;Node5</title>
<g id="a_edge4_Node000003_Node000005"><a xlink:title=" ">
<path fill="none" stroke="#63b8ff" d="M584.17,-352.55C605.7,-391.13 653.09,-466.74 714,-508.5 718.49,-511.58 723.31,-514.33 728.32,-516.81"/>
<polygon fill="#63b8ff" stroke="#63b8ff" points="587.13,-350.67 579.26,-343.58 580.99,-354.03 587.13,-350.67"/>
</a>
</g>
</g>
<!-- Node6 -->
<g id="Node000006" class="node">
<title>Node6</title>
<g id="a_Node000006"><a xlink:href="classmlir_1_1ConvertToLLVMPatternInterface.html" target="_top" xlink:title="Base class for dialect interfaces providing translation to LLVM IR.">
<polygon fill="white" stroke="#666666" points="898.5,-499 718.5,-499 718.5,-458 898.5,-458 898.5,-499"/>
<text text-anchor="start" x="726.5" y="-487" font-family="Helvetica,sans-Serif" font-size="10.00">mlir::ConvertToLLVMPattern</text>
<text text-anchor="start" x="726.5" y="-476" font-family="Helvetica,sans-Serif" font-size="10.00">Interface&lt; ConvertToLLVMPattern</text>
<text text-anchor="middle" x="808.5" y="-465" font-family="Helvetica,sans-Serif" font-size="10.00">Interface &gt;</text>
</a>
</g>
</g>
<!-- Node3&#45;&gt;Node6 -->
<g id="edge5_Node000003_Node000006" class="edge">
<title>Node3&#45;&gt;Node6</title>
<g id="a_edge5_Node000003_Node000006"><a xlink:title=" ">
<path fill="none" stroke="#63b8ff" d="M592.56,-350.93C618.72,-377.6 665.83,-421.86 714,-448.5 720.27,-451.97 726.99,-455.1 733.86,-457.92"/>
<polygon fill="#63b8ff" stroke="#63b8ff" points="594.91,-348.32 585.44,-343.57 589.88,-353.19 594.91,-348.32"/>
</a>
</g>
</g>
<!-- Node7 -->
<g id="Node000007" class="node">
<title>Node7</title>
<g id="a_Node000007"><a xlink:href="classmlir_1_1DataLayoutDialectInterface.html" target="_top" xlink:title="An interface to be implemented by dialects that can have identifiers in the data layout specification...">
<polygon fill="white" stroke="#666666" points="896.5,-439.5 720.5,-439.5 720.5,-409.5 896.5,-409.5 896.5,-439.5"/>
<text text-anchor="start" x="728.5" y="-427.5" font-family="Helvetica,sans-Serif" font-size="10.00">mlir::DataLayoutDialectInterface</text>
<text text-anchor="middle" x="808.5" y="-416.5" font-family="Helvetica,sans-Serif" font-size="10.00">&lt; DataLayoutDialectInterface &gt;</text>
</a>
</g>
</g>
<!-- Node3&#45;&gt;Node7 -->
<g id="edge6_Node000003_Node000007" class="edge">
<title>Node3&#45;&gt;Node7</title>
<g id="a_edge6_Node000003_Node000007"><a xlink:title=" ">
<path fill="none" stroke="#63b8ff" d="M606.06,-348.64C634.34,-364.45 675.77,-386.13 714,-400.5 722.78,-403.8 732.2,-406.81 741.55,-409.49"/>
<polygon fill="#63b8ff" stroke="#63b8ff" points="607.43,-345.39 597,-343.52 603.98,-351.48 607.43,-345.39"/>
</a>
</g>
</g>
<!-- Node8 -->
<g id="Node000008" class="node">
<title>Node8</title>
<g id="a_Node000008"><a xlink:href="classmlir_1_1DialectFoldInterface.html" target="_top" xlink:title="Define a fold interface to allow for dialects to control specific aspects of the folding behavior for...">
<polygon fill="white" stroke="#666666" points="878.5,-391.5 738.5,-391.5 738.5,-361.5 878.5,-361.5 878.5,-391.5"/>
<text text-anchor="start" x="746.5" y="-379.5" font-family="Helvetica,sans-Serif" font-size="10.00">mlir::DialectFoldInterface</text>
<text text-anchor="middle" x="808.5" y="-368.5" font-family="Helvetica,sans-Serif" font-size="10.00">&lt; DialectFoldInterface &gt;</text>
</a>
</g>
</g>
<!-- Node3&#45;&gt;Node8 -->
<g id="edge7_Node000003_Node000008" class="edge">
<title>Node3&#45;&gt;Node8</title>
<g id="a_edge7_Node000003_Node000008"><a xlink:title=" ">
<path fill="none" stroke="#63b8ff" d="M655.38,-345.56C682.49,-351.07 712.23,-357.12 738.16,-362.4"/>
<polygon fill="#63b8ff" stroke="#63b8ff" points="656.02,-342.12 645.52,-343.56 654.63,-348.98 656.02,-342.12"/>
</a>
</g>
</g>
<!-- Node9 -->
<g id="Node000009" class="node">
<title>Node9</title>
<g id="a_Node000009"><a xlink:href="classmlir_1_1DialectInlinerInterface.html" target="_top" xlink:title="This is the interface that must be implemented by the dialects of operations to be inlined.">
<polygon fill="white" stroke="#666666" points="884,-343.5 733,-343.5 733,-313.5 884,-313.5 884,-343.5"/>
<text text-anchor="start" x="741" y="-331.5" font-family="Helvetica,sans-Serif" font-size="10.00">mlir::DialectInlinerInterface</text>
<text text-anchor="middle" x="808.5" y="-320.5" font-family="Helvetica,sans-Serif" font-size="10.00">&lt; DialectInlinerInterface &gt;</text>
</a>
</g>
</g>
<!-- Node3&#45;&gt;Node9 -->
<g id="edge8_Node000003_Node000009" class="edge">
<title>Node3&#45;&gt;Node9</title>
<g id="a_edge8_Node000003_Node000009"><a xlink:title=" ">
<path fill="none" stroke="#63b8ff" d="M687.23,-328.5C702.7,-328.5 718.23,-328.5 732.75,-328.5"/>
<polygon fill="#63b8ff" stroke="#63b8ff" points="687.08,-325 677.08,-328.5 687.08,-332 687.08,-325"/>
</a>
</g>
</g>
<!-- Node10 -->
<g id="Node000010" class="node">
<title>Node10</title>
<g id="a_Node000010"><a xlink:href="classmlir_1_1DialectReductionPatternInterface.html" target="_top" xlink:title="This is used to report the reduction patterns for a Dialect.">
<polygon fill="white" stroke="#666666" points="903,-295 714,-295 714,-254 903,-254 903,-295"/>
<text text-anchor="start" x="722" y="-283" font-family="Helvetica,sans-Serif" font-size="10.00">mlir::DialectReductionPattern</text>
<text text-anchor="start" x="722" y="-272" font-family="Helvetica,sans-Serif" font-size="10.00">Interface&lt; DialectReductionPattern</text>
<text text-anchor="middle" x="808.5" y="-261" font-family="Helvetica,sans-Serif" font-size="10.00">Interface &gt;</text>
</a>
</g>
</g>
<!-- Node3&#45;&gt;Node10 -->
<g id="edge9_Node000003_Node000010" class="edge">
<title>Node3&#45;&gt;Node10</title>
<g id="a_edge9_Node000003_Node000010"><a xlink:title=" ">
<path fill="none" stroke="#63b8ff" d="M647.07,-311.21C669.61,-306.05 694.52,-300.35 717.86,-295.01"/>
<polygon fill="#63b8ff" stroke="#63b8ff" points="646.21,-307.82 637.24,-313.46 647.77,-314.64 646.21,-307.82"/>
</a>
</g>
</g>
<!-- Node11 -->
<g id="Node000011" class="node">
<title>Node11</title>
<g id="a_Node000011"><a xlink:href="classmlir_1_1LLVMImportDialectInterface.html" target="_top" xlink:title="Base class for dialect interfaces used to import LLVM IR.">
<polygon fill="white" stroke="#666666" points="897.5,-235.5 719.5,-235.5 719.5,-205.5 897.5,-205.5 897.5,-235.5"/>
<text text-anchor="start" x="727.5" y="-223.5" font-family="Helvetica,sans-Serif" font-size="10.00">mlir::LLVMImportDialectInterface</text>
<text text-anchor="middle" x="808.5" y="-212.5" font-family="Helvetica,sans-Serif" font-size="10.00">&lt; LLVMImportDialectInterface &gt;</text>
</a>
</g>
</g>
<!-- Node3&#45;&gt;Node11 -->
<g id="edge10_Node000003_Node000011" class="edge">
<title>Node3&#45;&gt;Node11</title>
<g id="a_edge10_Node000003_Node000011"><a xlink:title=" ">
<path fill="none" stroke="#63b8ff" d="M601.22,-307.61C629.19,-288.78 672.81,-261.53 714,-244.5 722.05,-241.17 730.69,-238.2 739.35,-235.59"/>
<polygon fill="#63b8ff" stroke="#63b8ff" points="599.01,-304.88 592.71,-313.4 602.95,-310.66 599.01,-304.88"/>
</a>
</g>
</g>
<!-- Node12 -->
<g id="Node000012" class="node">
<title>Node12</title>
<g id="a_Node000012"><a xlink:href="classmlir_1_1LLVMTranslationDialectInterface.html" target="_top" xlink:title="Base class for dialect interfaces providing translation to LLVM IR.">
<polygon fill="white" stroke="#666666" points="901,-187 716,-187 716,-146 901,-146 901,-187"/>
<text text-anchor="start" x="724" y="-175" font-family="Helvetica,sans-Serif" font-size="10.00">mlir::LLVMTranslationDialect</text>
<text text-anchor="start" x="724" y="-164" font-family="Helvetica,sans-Serif" font-size="10.00">Interface&lt; LLVMTranslationDialect</text>
<text text-anchor="middle" x="808.5" y="-153" font-family="Helvetica,sans-Serif" font-size="10.00">Interface &gt;</text>
</a>
</g>
</g>
<!-- Node3&#45;&gt;Node12 -->
<g id="edge11_Node000003_Node000012" class="edge">
<title>Node3&#45;&gt;Node12</title>
<g id="a_edge11_Node000003_Node000012"><a xlink:title=" ">
<path fill="none" stroke="#63b8ff" d="M590.54,-305.49C615.89,-276.26 663.43,-226.05 714,-196.5 719.89,-193.06 726.22,-189.96 732.71,-187.18"/>
<polygon fill="#63b8ff" stroke="#63b8ff" points="587.84,-303.27 584,-313.15 593.16,-307.82 587.84,-303.27"/>
</a>
</g>
</g>
<!-- Node13 -->
<g id="Node000013" class="node">
<title>Node13</title>
<g id="a_Node000013"><a xlink:href="classmlir_1_1OpAsmDialectInterface.html" target="_top" xlink:title=" ">
<polygon fill="white" stroke="#666666" points="886,-127.5 731,-127.5 731,-97.5 886,-97.5 886,-127.5"/>
<text text-anchor="start" x="739" y="-115.5" font-family="Helvetica,sans-Serif" font-size="10.00">mlir::OpAsmDialectInterface</text>
<text text-anchor="middle" x="808.5" y="-104.5" font-family="Helvetica,sans-Serif" font-size="10.00">&lt; OpAsmDialectInterface &gt;</text>
</a>
</g>
</g>
<!-- Node3&#45;&gt;Node13 -->
<g id="edge12_Node000003_Node000013" class="edge">
<title>Node3&#45;&gt;Node13</title>
<g id="a_edge12_Node000003_Node000013"><a xlink:title=" ">
<path fill="none" stroke="#63b8ff" d="M582.63,-304.23C602.77,-263.12 649.25,-180.02 714,-136.5 719.15,-133.04 724.76,-130.08 730.59,-127.55"/>
<polygon fill="#63b8ff" stroke="#63b8ff" points="579.47,-302.73 578.3,-313.26 585.78,-305.76 579.47,-302.73"/>
</a>
</g>
</g>
<!-- Node14 -->
<g id="Node000014" class="node">
<title>Node14</title>
<g id="a_Node000014"><a xlink:href="classmlir_1_1ResourceBlobManagerDialectInterface.html" target="_top" xlink:title="This class implements a dialect interface that provides common functionality for interacting with a r...">
<polygon fill="white" stroke="#666666" points="895,-79 722,-79 722,-38 895,-38 895,-79"/>
<text text-anchor="start" x="730" y="-67" font-family="Helvetica,sans-Serif" font-size="10.00">mlir::ResourceBlobManager</text>
<text text-anchor="start" x="730" y="-56" font-family="Helvetica,sans-Serif" font-size="10.00">DialectInterface&lt; ResourceBlob</text>
<text text-anchor="middle" x="808.5" y="-45" font-family="Helvetica,sans-Serif" font-size="10.00">ManagerDialectInterface &gt;</text>
</a>
</g>
</g>
<!-- Node3&#45;&gt;Node14 -->
<g id="edge13_Node000003_Node000014" class="edge">
<title>Node3&#45;&gt;Node14</title>
<g id="a_edge13_Node000003_Node000014"><a xlink:title=" ">
<path fill="none" stroke="#63b8ff" d="M579.52,-303.58C596.44,-254.98 640.38,-147.15 714,-88.5 718.4,-84.99 723.22,-81.89 728.28,-79.15"/>
<polygon fill="#63b8ff" stroke="#63b8ff" points="576.13,-302.69 576.24,-313.28 582.76,-304.93 576.13,-302.69"/>
</a>
</g>
</g>
<!-- Node15 -->
<g id="Node000015" class="node">
<title>Node15</title>
<g id="a_Node000015"><a xlink:href="classmlir_1_1ResourceBlobManagerDialectInterfaceBase.html" target="_top" xlink:title=" ">
<polygon fill="white" stroke="#666666" points="1552,-107 1343,-107 1343,-66 1552,-66 1552,-107"/>
<text text-anchor="start" x="1351" y="-95" font-family="Helvetica,sans-Serif" font-size="10.00">mlir::ResourceBlobManager</text>
<text text-anchor="start" x="1351" y="-84" font-family="Helvetica,sans-Serif" font-size="10.00">DialectInterfaceBase&lt; DialectResource</text>
<text text-anchor="middle" x="1447.5" y="-73" font-family="Helvetica,sans-Serif" font-size="10.00">BlobHandle&lt; DialectT &gt; &gt;</text>
</a>
</g>
</g>
<!-- Node14&#45;&gt;Node15 -->
<g id="edge14_Node000014_Node000015" class="edge">
<title>Node14&#45;&gt;Node15</title>
<g id="a_edge14_Node000014_Node000015"><a xlink:title=" ">
<path fill="none" stroke="#63b8ff" d="M904.89,-76.75C916.69,-78.8 928.61,-80.77 940,-82.5 1109.5,-108.23 1154.13,-120.47 1325,-106.5 1330.86,-106.02 1336.86,-105.41 1342.91,-104.71"/>
<polygon fill="#63b8ff" stroke="#63b8ff" points="905.47,-73.3 895.01,-75.02 904.25,-80.2 905.47,-73.3"/>
</a>
</g>
</g>
<!-- Node16 -->
<g id="Node000016" class="node">
<title>Node16</title>
<g id="a_Node000016"><a xlink:href="classmlir_1_1ResourceBlobManagerDialectInterfaceBase.html" target="_top" xlink:title=" ">
<polygon fill="white" stroke="#666666" points="1550.5,-41 1344.5,-41 1344.5,0 1550.5,0 1550.5,-41"/>
<text text-anchor="start" x="1352.5" y="-29" font-family="Helvetica,sans-Serif" font-size="10.00">mlir::ResourceBlobManager</text>
<text text-anchor="start" x="1352.5" y="-18" font-family="Helvetica,sans-Serif" font-size="10.00">DialectInterfaceBase&lt; DenseResource</text>
<text text-anchor="middle" x="1447.5" y="-7" font-family="Helvetica,sans-Serif" font-size="10.00">ElementsHandle &gt;</text>
</a>
</g>
</g>
<!-- Node14&#45;&gt;Node16 -->
<g id="edge15_Node000014_Node000016" class="edge">
<title>Node14&#45;&gt;Node16</title>
<g id="a_edge15_Node000014_Node000016"><a xlink:title=" ">
<path fill="none" stroke="#63b8ff" d="M905.42,-39.43C917.04,-37.54 928.77,-35.84 940,-34.5 1079.33,-17.92 1241.66,-16.57 1344.24,-17.9"/>
<polygon fill="#63b8ff" stroke="#63b8ff" points="904.54,-36.03 895.26,-41.13 905.7,-42.93 904.54,-36.03"/>
</a>
</g>
</g>
<!-- Node17 -->
<g id="Node000017" class="node">
<title>Node17</title>
<g id="a_Node000017"><a xlink:href="classmlir_1_1ResourceBlobManagerDialectInterfaceBase.html" target="_top" xlink:title="This class provides a base class for dialects implementing the resource blob interface.">
<polygon fill="white" stroke="#666666" points="1122,-73.5 940,-73.5 940,-43.5 1122,-43.5 1122,-73.5"/>
<text text-anchor="start" x="948" y="-61.5" font-family="Helvetica,sans-Serif" font-size="10.00">mlir::ResourceBlobManager</text>
<text text-anchor="middle" x="1031" y="-50.5" font-family="Helvetica,sans-Serif" font-size="10.00">DialectInterfaceBase&lt; HandleT &gt;</text>
</a>
</g>
</g>
<!-- Node14&#45;&gt;Node17 -->
<g id="edge16_Node000014_Node000017" class="edge">
<title>Node14&#45;&gt;Node17</title>
<g id="a_edge16_Node000014_Node000017"><a xlink:title=" ">
<path fill="none" stroke="#63b8ff" d="M905.1,-58.5C916.6,-58.5 928.32,-58.5 939.74,-58.5"/>
<polygon fill="#63b8ff" stroke="#63b8ff" points="905.07,-55 895.07,-58.5 905.07,-62 905.07,-55"/>
</a>
</g>
</g>
<!-- Node17&#45;&gt;Node15 -->
<g id="edge17_Node000017_Node000015" class="edge">
<title>Node17&#45;&gt;Node15</title>
<g id="a_edge17_Node000017_Node000015"><a xlink:title=" ">
<path fill="none" stroke="orange" stroke-dasharray="5,2" d="M1132.19,-62.88C1188.82,-65.63 1260.91,-69.59 1325,-74.5 1330.81,-74.95 1336.78,-75.43 1342.8,-75.95"/>
<polygon fill="orange" stroke="orange" points="1132.31,-59.38 1122.16,-62.4 1131.98,-66.38 1132.31,-59.38"/>
</a>
</g>
<text text-anchor="start" x="1158.5" y="-95.5" font-family="Helvetica,sans-Serif" font-size="10.00" fill="grey">&lt; DialectResourceBlobHandle</text>
<text text-anchor="start" x="1158.5" y="-80.5" font-family="Helvetica,sans-Serif" font-size="10.00" fill="grey">  &lt; DialectT &gt; &gt;</text>
</g>
<!-- Node17&#45;&gt;Node16 -->
<g id="edge18_Node000017_Node000016" class="edge">
<title>Node17&#45;&gt;Node16</title>
<g id="a_edge18_Node000017_Node000016"><a xlink:title=" ">
<path fill="none" stroke="orange" stroke-dasharray="5,2" d="M1132.25,-43.38C1134.86,-43.08 1137.44,-42.78 1140,-42.5 1207.88,-35.05 1284.5,-29.55 1344.16,-25.91"/>
<polygon fill="orange" stroke="orange" points="1131.59,-39.94 1122.1,-44.63 1132.45,-46.89 1131.59,-39.94"/>
</a>
</g>
<text text-anchor="start" x="1143.5" y="-48" font-family="Helvetica,sans-Serif" font-size="10.00" fill="grey">&lt; DenseResourceElementsHandle &gt;</text>
</g>
</g>
</svg>
