<?xml version="1.0" encoding="UTF-8" standalone="no"?>
<!DOCTYPE svg PUBLIC "-//W3C//DTD SVG 1.1//EN"
 "http://www.w3.org/Graphics/SVG/1.1/DTD/svg11.dtd">
<!-- Generated by graphviz version 2.43.0 (0)
 -->
<!-- Title: mlir::tracing::Action Pages: 1 -->
<svg width="798pt" height="167pt"
 viewBox="0.00 0.00 798.00 167.00" xmlns="http://www.w3.org/2000/svg" xmlns:xlink="http://www.w3.org/1999/xlink">
<g id="graph0" class="graph" transform="scale(1 1) rotate(0) translate(4 163)">
<title>mlir::tracing::Action</title>
<!-- Node1 -->
<g id="node1" class="node">
<title>Node1</title>
<g id="a_node1"><a xlink:title="An action is a specific action that is to be taken by the compiler, that can be toggled and controlle...">
<polygon fill="#bfbfbf" stroke="black" points="0,-54 0,-73 113,-73 113,-54 0,-54"/>
<text text-anchor="middle" x="56.5" y="-61" font-family="Helvetica,sans-Serif" font-size="10.00">mlir::tracing::Action</text>
</a>
</g>
</g>
<!-- Node2 -->
<g id="node2" class="node">
<title>Node2</title>
<g id="a_node2"><a xlink:href="classmlir_1_1tracing_1_1ActionImpl.html" target="_top" xlink:title=" ">
<polygon fill="none" stroke="black" points="468,-128.5 468,-158.5 602,-158.5 602,-128.5 468,-128.5"/>
<text text-anchor="start" x="476" y="-146.5" font-family="Helvetica,sans-Serif" font-size="10.00">mlir::tracing::ActionImpl</text>
<text text-anchor="middle" x="535" y="-135.5" font-family="Helvetica,sans-Serif" font-size="10.00">&lt; ApplyPatternAction &gt;</text>
</a>
</g>
</g>
<!-- Node1&#45;&gt;Node2 -->
<g id="edge1" class="edge">
<title>Node1&#45;&gt;Node2</title>
<path fill="none" stroke="midnightblue" d="M80.24,-78.76C98.38,-90.25 124.85,-105.52 150,-114.5 256.41,-152.5 389.67,-152.97 467.96,-148.9"/>
<polygon fill="midnightblue" stroke="midnightblue" points="81.85,-75.64 71.55,-73.15 78.05,-81.51 81.85,-75.64"/>
</g>
<!-- Node4 -->
<g id="node4" class="node">
<title>Node4</title>
<g id="a_node4"><a xlink:href="classmlir_1_1tracing_1_1ActionImpl.html" target="_top" xlink:title=" ">
<polygon fill="none" stroke="black" points="459,-69.5 459,-99.5 611,-99.5 611,-69.5 459,-69.5"/>
<text text-anchor="start" x="467" y="-87.5" font-family="Helvetica,sans-Serif" font-size="10.00">mlir::tracing::ActionImpl</text>
<text text-anchor="middle" x="535" y="-76.5" font-family="Helvetica,sans-Serif" font-size="10.00">&lt; ApplyConversionAction &gt;</text>
</a>
</g>
</g>
<!-- Node1&#45;&gt;Node4 -->
<g id="edge3" class="edge">
<title>Node1&#45;&gt;Node4</title>
<path fill="none" stroke="midnightblue" d="M113.12,-52.1C188.33,-38.64 326.26,-20.87 441,-44.5 464.24,-49.29 488.83,-60.15 506.89,-69.35"/>
<polygon fill="midnightblue" stroke="midnightblue" points="112.14,-48.72 102.93,-53.97 113.4,-55.61 112.14,-48.72"/>
</g>
<!-- Node6 -->
<g id="node6" class="node">
<title>Node6</title>
<g id="a_node6"><a xlink:href="classmlir_1_1tracing_1_1ActionImpl.html" target="_top" xlink:title=" ">
<polygon fill="none" stroke="black" points="465.5,-0.5 465.5,-30.5 604.5,-30.5 604.5,-0.5 465.5,-0.5"/>
<text text-anchor="start" x="473.5" y="-18.5" font-family="Helvetica,sans-Serif" font-size="10.00">mlir::tracing::ActionImpl</text>
<text text-anchor="middle" x="535" y="-7.5" font-family="Helvetica,sans-Serif" font-size="10.00">&lt; PassExecutionAction &gt;</text>
</a>
</g>
</g>
<!-- Node1&#45;&gt;Node6 -->
<g id="edge5" class="edge">
<title>Node1&#45;&gt;Node6</title>
<path fill="none" stroke="midnightblue" d="M87.18,-49.86C104.99,-42.37 128.33,-33.77 150,-29.5 258.66,-8.11 387.86,-8.58 465.28,-11.54"/>
<polygon fill="midnightblue" stroke="midnightblue" points="85.69,-46.69 77.9,-53.87 88.47,-53.12 85.69,-46.69"/>
</g>
<!-- Node8 -->
<g id="node8" class="node">
<title>Node8</title>
<g id="a_node8"><a xlink:href="classmlir_1_1tracing_1_1ActionImpl.html" target="_top" xlink:title="CRTP Implementation of an action.">
<polygon fill="none" stroke="black" points="150,-74.5 150,-104.5 284,-104.5 284,-74.5 150,-74.5"/>
<text text-anchor="start" x="158" y="-92.5" font-family="Helvetica,sans-Serif" font-size="10.00">mlir::tracing::ActionImpl</text>
<text text-anchor="middle" x="217" y="-81.5" font-family="Helvetica,sans-Serif" font-size="10.00">&lt; Derived &gt;</text>
</a>
</g>
</g>
<!-- Node1&#45;&gt;Node8 -->
<g id="edge7" class="edge">
<title>Node1&#45;&gt;Node8</title>
<path fill="none" stroke="midnightblue" d="M123.46,-74.32C132.16,-75.75 141.07,-77.21 149.77,-78.64"/>
<polygon fill="midnightblue" stroke="midnightblue" points="123.82,-70.83 113.38,-72.67 122.68,-77.74 123.82,-70.83"/>
</g>
<!-- Node3 -->
<g id="node3" class="node">
<title>Node3</title>
<g id="a_node3"><a xlink:href="classmlir_1_1ApplyPatternAction.html" target="_top" xlink:title="This is the type of Action that is dispatched when a pattern is applied.">
<polygon fill="none" stroke="black" points="651.5,-134 651.5,-153 786.5,-153 786.5,-134 651.5,-134"/>
<text text-anchor="middle" x="719" y="-141" font-family="Helvetica,sans-Serif" font-size="10.00">mlir::ApplyPatternAction</text>
</a>
</g>
</g>
<!-- Node2&#45;&gt;Node3 -->
<g id="edge2" class="edge">
<title>Node2&#45;&gt;Node3</title>
<path fill="none" stroke="midnightblue" d="M612.45,-143.5C625.33,-143.5 638.61,-143.5 651.22,-143.5"/>
<polygon fill="midnightblue" stroke="midnightblue" points="612.22,-140 602.22,-143.5 612.22,-147 612.22,-140"/>
</g>
<!-- Node5 -->
<g id="node5" class="node">
<title>Node5</title>
<g id="a_node5"><a xlink:href="classApplyConversionAction.html" target="_top" xlink:title="This is the type of Action that is dispatched when a conversion is applied.">
<polygon fill="none" stroke="black" points="654,-75 654,-94 784,-94 784,-75 654,-75"/>
<text text-anchor="middle" x="719" y="-82" font-family="Helvetica,sans-Serif" font-size="10.00">ApplyConversionAction</text>
</a>
</g>
</g>
<!-- Node4&#45;&gt;Node5 -->
<g id="edge4" class="edge">
<title>Node4&#45;&gt;Node5</title>
<path fill="none" stroke="midnightblue" d="M621.13,-84.5C632.13,-84.5 643.25,-84.5 653.83,-84.5"/>
<polygon fill="midnightblue" stroke="midnightblue" points="621.08,-81 611.08,-84.5 621.08,-88 621.08,-81"/>
</g>
<!-- Node7 -->
<g id="node7" class="node">
<title>Node7</title>
<g id="a_node7"><a xlink:href="classmlir_1_1PassExecutionAction.html" target="_top" xlink:title="This class encapsulates the &quot;action&quot; of executing a single pass.">
<polygon fill="none" stroke="black" points="648,-6 648,-25 790,-25 790,-6 648,-6"/>
<text text-anchor="middle" x="719" y="-13" font-family="Helvetica,sans-Serif" font-size="10.00">mlir::PassExecutionAction</text>
</a>
</g>
</g>
<!-- Node6&#45;&gt;Node7 -->
<g id="edge6" class="edge">
<title>Node6&#45;&gt;Node7</title>
<path fill="none" stroke="midnightblue" d="M614.57,-15.5C625.59,-15.5 636.85,-15.5 647.7,-15.5"/>
<polygon fill="midnightblue" stroke="midnightblue" points="614.55,-12 604.55,-15.5 614.55,-19 614.55,-12"/>
</g>
<!-- Node8&#45;&gt;Node2 -->
<g id="edge8" class="edge">
<title>Node8&#45;&gt;Node2</title>
<path fill="none" stroke="orange" stroke-dasharray="5,2" d="M294.27,-102.53C347.27,-111.59 417.2,-123.54 467.84,-132.19"/>
<polygon fill="orange" stroke="orange" points="294.69,-99.05 284.24,-100.82 293.51,-105.95 294.69,-99.05"/>
<text text-anchor="middle" x="371.5" y="-130.5" font-family="Helvetica,sans-Serif" font-size="10.00"> &lt; ApplyPatternAction &gt;</text>
</g>
<!-- Node8&#45;&gt;Node4 -->
<g id="edge9" class="edge">
<title>Node8&#45;&gt;Node4</title>
<path fill="none" stroke="orange" stroke-dasharray="5,2" d="M294.35,-88.29C344.31,-87.5 409.29,-86.47 458.98,-85.69"/>
<polygon fill="orange" stroke="orange" points="294.19,-84.79 284.24,-88.45 294.3,-91.79 294.19,-84.79"/>
<text text-anchor="middle" x="371.5" y="-90.5" font-family="Helvetica,sans-Serif" font-size="10.00"> &lt; ApplyConversionAction &gt;</text>
</g>
<!-- Node8&#45;&gt;Node6 -->
<g id="edge10" class="edge">
<title>Node8&#45;&gt;Node6</title>
<path fill="none" stroke="orange" stroke-dasharray="5,2" d="M292.17,-72.13C346.08,-59.51 418.31,-42.59 469.76,-30.54"/>
<polygon fill="orange" stroke="orange" points="291.27,-68.75 282.33,-74.44 292.86,-75.56 291.27,-68.75"/>
<text text-anchor="middle" x="371.5" y="-72.5" font-family="Helvetica,sans-Serif" font-size="10.00"> &lt; PassExecutionAction &gt;</text>
</g>
</g>
</svg>
