<?xml version="1.0" encoding="UTF-8" standalone="no"?>
<!DOCTYPE svg PUBLIC "-//W3C//DTD SVG 1.1//EN"
 "http://www.w3.org/Graphics/SVG/1.1/DTD/svg11.dtd">
<!-- Generated by graphviz version 2.43.0 (0)
 -->
<!-- Title: mlir::tracing::FileLineColLocBreakpointManager Pages: 1 -->
<svg width="309pt" height="275pt"
 viewBox="0.00 0.00 309.00 275.00" xmlns="http://www.w3.org/2000/svg" xmlns:xlink="http://www.w3.org/1999/xlink">
<g id="graph0" class="graph" transform="scale(1 1) rotate(0) translate(4 271)">
<title>mlir::tracing::FileLineColLocBreakpointManager</title>
<!-- Node1 -->
<g id="node1" class="node">
<title>Node1</title>
<g id="a_node1"><a xlink:title="This breakpoint manager is responsible for matching FileLineColLocBreakpoint.">
<polygon fill="#bfbfbf" stroke="black" points="41.5,-0.5 41.5,-30.5 176.5,-30.5 176.5,-0.5 41.5,-0.5"/>
<text text-anchor="start" x="49.5" y="-18.5" font-family="Helvetica,sans-Serif" font-size="10.00">mlir::tracing::FileLineCol</text>
<text text-anchor="middle" x="109" y="-7.5" font-family="Helvetica,sans-Serif" font-size="10.00">LocBreakpointManager</text>
</a>
</g>
</g>
<!-- Node2 -->
<g id="node2" class="node">
<title>Node2</title>
<g id="a_node2"><a xlink:href="classmlir_1_1tracing_1_1BreakpointManagerBase.html" target="_top" xlink:title=" ">
<polygon fill="none" stroke="black" points="0,-68.5 0,-109.5 218,-109.5 218,-68.5 0,-68.5"/>
<text text-anchor="start" x="8" y="-97.5" font-family="Helvetica,sans-Serif" font-size="10.00">mlir::tracing::Breakpoint</text>
<text text-anchor="start" x="8" y="-86.5" font-family="Helvetica,sans-Serif" font-size="10.00">ManagerBase&lt; FileLineColLocBreakpoint</text>
<text text-anchor="middle" x="109" y="-75.5" font-family="Helvetica,sans-Serif" font-size="10.00">Manager &gt;</text>
</a>
</g>
</g>
<!-- Node2&#45;&gt;Node1 -->
<g id="edge1" class="edge">
<title>Node2&#45;&gt;Node1</title>
<path fill="none" stroke="midnightblue" d="M109,-58.16C109,-48.69 109,-38.65 109,-30.8"/>
<polygon fill="midnightblue" stroke="midnightblue" points="105.5,-58.46 109,-68.46 112.5,-58.46 105.5,-58.46"/>
</g>
<!-- Node3 -->
<g id="node3" class="node">
<title>Node3</title>
<g id="a_node3"><a xlink:href="classmlir_1_1tracing_1_1BreakpointManager.html" target="_top" xlink:title="A breakpoint manager is responsible for managing a set of breakpoints and matching them to a given ac...">
<polygon fill="none" stroke="black" points="37.5,-236.5 37.5,-266.5 172.5,-266.5 172.5,-236.5 37.5,-236.5"/>
<text text-anchor="start" x="45.5" y="-254.5" font-family="Helvetica,sans-Serif" font-size="10.00">mlir::tracing::Breakpoint</text>
<text text-anchor="middle" x="105" y="-243.5" font-family="Helvetica,sans-Serif" font-size="10.00">Manager</text>
</a>
</g>
</g>
<!-- Node3&#45;&gt;Node2 -->
<g id="edge2" class="edge">
<title>Node3&#45;&gt;Node2</title>
<path fill="none" stroke="midnightblue" d="M105.61,-226.02C106.41,-194.12 107.78,-138.95 108.51,-109.63"/>
<polygon fill="midnightblue" stroke="midnightblue" points="102.11,-226.17 105.35,-236.26 109.1,-226.35 102.11,-226.17"/>
</g>
<!-- Node4 -->
<g id="node4" class="node">
<title>Node4</title>
<g id="a_node4"><a xlink:href="classmlir_1_1tracing_1_1BreakpointManagerBase.html" target="_top" xlink:title="CRTP base class for BreakpointManager implementations.">
<polygon fill="none" stroke="black" points="121,-168.5 121,-198.5 265,-198.5 265,-168.5 121,-168.5"/>
<text text-anchor="start" x="129" y="-186.5" font-family="Helvetica,sans-Serif" font-size="10.00">mlir::tracing::Breakpoint</text>
<text text-anchor="middle" x="193" y="-175.5" font-family="Helvetica,sans-Serif" font-size="10.00">ManagerBase&lt; Derived &gt;</text>
</a>
</g>
</g>
<!-- Node3&#45;&gt;Node4 -->
<g id="edge4" class="edge">
<title>Node3&#45;&gt;Node4</title>
<path fill="none" stroke="midnightblue" d="M132.2,-230.1C145.84,-219.87 162.01,-207.74 174.24,-198.57"/>
<polygon fill="midnightblue" stroke="midnightblue" points="129.99,-227.38 124.09,-236.18 134.19,-232.98 129.99,-227.38"/>
</g>
<!-- Node4&#45;&gt;Node2 -->
<g id="edge3" class="edge">
<title>Node4&#45;&gt;Node2</title>
<path fill="none" stroke="orange" stroke-dasharray="5,2" d="M173.37,-160.88C159.31,-145.4 140.52,-124.71 126.87,-109.68"/>
<polygon fill="orange" stroke="orange" points="170.93,-163.4 180.24,-168.45 176.11,-158.7 170.93,-163.4"/>
<text text-anchor="start" x="163" y="-142" font-family="Helvetica,sans-Serif" font-size="10.00"> &lt; FileLineColLocBreakpoint</text>
<text text-anchor="middle" x="232" y="-131" font-family="Helvetica,sans-Serif" font-size="10.00">Manager &gt;</text>
</g>
</g>
</svg>
