<?xml version="1.0" encoding="UTF-8" standalone="no"?>
<!DOCTYPE svg PUBLIC "-//W3C//DTD SVG 1.1//EN"
 "http://www.w3.org/Graphics/SVG/1.1/DTD/svg11.dtd">
<!-- Generated by graphviz version 2.43.0 (0)
 -->
<!-- Title: mlir::OpTrait::AtLeastNResults&lt; N &gt;::Impl&lt; ConcreteType &gt; Pages: 1 -->
<svg width="1135pt" height="120pt"
 viewBox="0.00 0.00 1135.00 119.50" xmlns="http://www.w3.org/2000/svg" xmlns:xlink="http://www.w3.org/1999/xlink">
<g id="graph0" class="graph" transform="scale(1 1) rotate(0) translate(4 115.5)">
<title>mlir::OpTrait::AtLeastNResults&lt; N &gt;::Impl&lt; ConcreteType &gt;</title>
<!-- Node1 -->
<g id="Node000001" class="node">
<title>Node1</title>
<g id="a_Node000001"><a xlink:title=" ">
<polygon fill="#999999" stroke="#666666" points="1127,-64.5 964,-64.5 964,-34.5 1127,-34.5 1127,-64.5"/>
<text text-anchor="start" x="972" y="-52.5" font-family="Helvetica,sans-Serif" font-size="10.00">mlir::OpTrait::AtLeastNResults</text>
<text text-anchor="middle" x="1045.5" y="-41.5" font-family="Helvetica,sans-Serif" font-size="10.00">&lt; N &gt;::Impl&lt; ConcreteType &gt;</text>
</a>
</g>
</g>
<!-- Node2 -->
<g id="Node000002" class="node">
<title>Node2</title>
<g id="a_Node000002"><a xlink:href="structmlir_1_1OpTrait_1_1detail_1_1MultiResultTraitBase.html" target="_top" xlink:title=" ">
<polygon fill="white" stroke="#666666" points="927,-75.5 747,-75.5 747,-23.5 927,-23.5 927,-75.5"/>
<text text-anchor="start" x="755" y="-63.5" font-family="Helvetica,sans-Serif" font-size="10.00">mlir::OpTrait::detail</text>
<text text-anchor="start" x="755" y="-52.5" font-family="Helvetica,sans-Serif" font-size="10.00">::MultiResultTraitBase</text>
<text text-anchor="start" x="755" y="-41.5" font-family="Helvetica,sans-Serif" font-size="10.00">&lt; ConcreteType, AtLeastNResults</text>
<text text-anchor="middle" x="837" y="-30.5" font-family="Helvetica,sans-Serif" font-size="10.00">&lt; N &gt;::Impl &gt;</text>
</a>
</g>
</g>
<!-- Node2&#45;&gt;Node1 -->
<g id="edge1_Node000001_Node000002" class="edge">
<title>Node2&#45;&gt;Node1</title>
<g id="a_edge1_Node000001_Node000002"><a xlink:title=" ">
<path fill="none" stroke="#63b8ff" d="M937.15,-49.5C946.1,-49.5 955.09,-49.5 963.86,-49.5"/>
<polygon fill="#63b8ff" stroke="#63b8ff" points="937.07,-46 927.07,-49.5 937.07,-53 937.07,-46"/>
</a>
</g>
</g>
<!-- Node3 -->
<g id="Node000003" class="node">
<title>Node3</title>
<g id="a_Node000003"><a xlink:href="classmlir_1_1OpTrait_1_1TraitBase.html" target="_top" xlink:title=" ">
<polygon fill="white" stroke="#666666" points="541,-100 361,-100 361,-59 541,-59 541,-100"/>
<text text-anchor="start" x="369" y="-88" font-family="Helvetica,sans-Serif" font-size="10.00">mlir::OpTrait::TraitBase</text>
<text text-anchor="start" x="369" y="-77" font-family="Helvetica,sans-Serif" font-size="10.00">&lt; ConcreteType, AtLeastNResults</text>
<text text-anchor="middle" x="451" y="-66" font-family="Helvetica,sans-Serif" font-size="10.00">&lt; N &gt;::Impl &gt;</text>
</a>
</g>
</g>
<!-- Node3&#45;&gt;Node2 -->
<g id="edge2_Node000002_Node000003" class="edge">
<title>Node3&#45;&gt;Node2</title>
<g id="a_edge2_Node000002_Node000003"><a xlink:title=" ">
<path fill="none" stroke="#63b8ff" d="M551.34,-74.84C604.16,-72 670.18,-67.87 729,-62.5 734.78,-61.97 740.72,-61.38 746.71,-60.75"/>
<polygon fill="#63b8ff" stroke="#63b8ff" points="551.1,-71.35 541.3,-75.37 551.47,-78.34 551.1,-71.35"/>
</a>
</g>
</g>
<!-- Node4 -->
<g id="Node000004" class="node">
<title>Node4</title>
<g id="a_Node000004"><a xlink:href="classmlir_1_1OpTrait_1_1TraitBase.html" target="_top" xlink:title="Helper class for implementing traits.">
<polygon fill="white" stroke="#666666" points="155,-94.5 0,-94.5 0,-64.5 155,-64.5 155,-94.5"/>
<text text-anchor="start" x="8" y="-82.5" font-family="Helvetica,sans-Serif" font-size="10.00">mlir::OpTrait::TraitBase</text>
<text text-anchor="middle" x="77.5" y="-71.5" font-family="Helvetica,sans-Serif" font-size="10.00">&lt; ConcreteType, TraitType &gt;</text>
</a>
</g>
</g>
<!-- Node4&#45;&gt;Node3 -->
<g id="edge3_Node000003_Node000004" class="edge">
<title>Node4&#45;&gt;Node3</title>
<g id="a_edge3_Node000003_Node000004"><a xlink:title=" ">
<path fill="none" stroke="orange" stroke-dasharray="5,2" d="M165.04,-79.5C223.86,-79.5 301.46,-79.5 360.83,-79.5"/>
<polygon fill="orange" stroke="orange" points="165.02,-76 155.02,-79.5 165.02,-83 165.02,-76"/>
</a>
</g>
<text text-anchor="start" x="176" y="-100.5" font-family="Helvetica,sans-Serif" font-size="10.00" fill="grey">&lt; ConcreteType, AtLeastNResults</text>
<text text-anchor="start" x="176" y="-85.5" font-family="Helvetica,sans-Serif" font-size="10.00" fill="grey">  &lt; N &gt;::Impl &gt;</text>
</g>
<!-- Node5 -->
<g id="Node000005" class="node">
<title>Node5</title>
<g id="a_Node000005"><a xlink:href="structmlir_1_1OpTrait_1_1detail_1_1MultiResultTraitBase.html" target="_top" xlink:title="Utility trait base that provides accessors for derived traits that have multiple results.">
<polygon fill="white" stroke="#666666" points="528.5,-41 373.5,-41 373.5,0 528.5,0 528.5,-41"/>
<text text-anchor="start" x="381.5" y="-29" font-family="Helvetica,sans-Serif" font-size="10.00">mlir::OpTrait::detail</text>
<text text-anchor="start" x="381.5" y="-18" font-family="Helvetica,sans-Serif" font-size="10.00">::MultiResultTraitBase</text>
<text text-anchor="middle" x="451" y="-7" font-family="Helvetica,sans-Serif" font-size="10.00">&lt; ConcreteType, TraitType &gt;</text>
</a>
</g>
</g>
<!-- Node5&#45;&gt;Node2 -->
<g id="edge4_Node000002_Node000005" class="edge">
<title>Node5&#45;&gt;Node2</title>
<g id="a_edge4_Node000002_Node000005"><a xlink:title=" ">
<path fill="none" stroke="orange" stroke-dasharray="5,2" d="M538.64,-20.53C593.36,-21.31 665.48,-23.75 729,-30.5 734.82,-31.12 740.79,-31.87 746.81,-32.7"/>
<polygon fill="orange" stroke="orange" points="538.67,-17.03 528.63,-20.4 538.58,-24.03 538.67,-17.03"/>
</a>
</g>
<text text-anchor="start" x="562" y="-51.5" font-family="Helvetica,sans-Serif" font-size="10.00" fill="grey">&lt; ConcreteType, AtLeastNResults</text>
<text text-anchor="start" x="562" y="-36.5" font-family="Helvetica,sans-Serif" font-size="10.00" fill="grey">  &lt; N &gt;::Impl &gt;</text>
</g>
<!-- Node6 -->
<g id="Node000006" class="node">
<title>Node6</title>
<g id="a_Node000006"><a xlink:href="classmlir_1_1OpTrait_1_1TraitBase.html" target="_top" xlink:title="Helper class for implementing traits.">
<polygon fill="white" stroke="#666666" points="155,-35.5 0,-35.5 0,-5.5 155,-5.5 155,-35.5"/>
<text text-anchor="start" x="8" y="-23.5" font-family="Helvetica,sans-Serif" font-size="10.00">mlir::OpTrait::TraitBase</text>
<text text-anchor="middle" x="77.5" y="-12.5" font-family="Helvetica,sans-Serif" font-size="10.00">&lt; ConcreteType, TraitType &gt;</text>
</a>
</g>
</g>
<!-- Node6&#45;&gt;Node5 -->
<g id="edge5_Node000005_Node000006" class="edge">
<title>Node6&#45;&gt;Node5</title>
<g id="a_edge5_Node000005_Node000006"><a xlink:title=" ">
<path fill="none" stroke="#63b8ff" d="M165.34,-20.5C228.32,-20.5 312.74,-20.5 373.26,-20.5"/>
<polygon fill="#63b8ff" stroke="#63b8ff" points="165.02,-17 155.02,-20.5 165.02,-24 165.02,-17"/>
</a>
</g>
</g>
</g>
</svg>
