<?xml version="1.0" encoding="UTF-8" standalone="no"?>
<!DOCTYPE svg PUBLIC "-//W3C//DTD SVG 1.1//EN"
 "http://www.w3.org/Graphics/SVG/1.1/DTD/svg11.dtd">
<!-- Generated by graphviz version 2.43.0 (0)
 -->
<!-- Title: mlir::transform::TransformEachOpTrait&lt; OpTy &gt; Pages: 1 -->
<svg width="262pt" height="188pt"
 viewBox="0.00 0.00 262.00 188.00" xmlns="http://www.w3.org/2000/svg" xmlns:xlink="http://www.w3.org/1999/xlink">
<g id="graph0" class="graph" transform="scale(1 1) rotate(0) translate(4 184)">
<title>mlir::transform::TransformEachOpTrait&lt; OpTy &gt;</title>
<!-- Node1 -->
<g id="Node000001" class="node">
<title>Node1</title>
<g id="a_Node000001"><a xlink:title="Trait implementing the TransformOpInterface for operations applying a transformation to a single oper...">
<polygon fill="#999999" stroke="#666666" points="160.5,-30 15.5,-30 15.5,0 160.5,0 160.5,-30"/>
<text text-anchor="start" x="23.5" y="-18" font-family="Helvetica,sans-Serif" font-size="10.00">mlir::transform::Transform</text>
<text text-anchor="middle" x="88" y="-7" font-family="Helvetica,sans-Serif" font-size="10.00">EachOpTrait&lt; OpTy &gt;</text>
</a>
</g>
</g>
<!-- Node2 -->
<g id="Node000002" class="node">
<title>Node2</title>
<g id="a_Node000002"><a xlink:href="classmlir_1_1OpTrait_1_1TraitBase.html" target="_top" xlink:title=" ">
<polygon fill="white" stroke="#666666" points="176,-97 0,-97 0,-67 176,-67 176,-97"/>
<text text-anchor="start" x="8" y="-85" font-family="Helvetica,sans-Serif" font-size="10.00">mlir::OpTrait::TraitBase</text>
<text text-anchor="middle" x="88" y="-74" font-family="Helvetica,sans-Serif" font-size="10.00">&lt; OpTy, TransformEachOpTrait &gt;</text>
</a>
</g>
</g>
<!-- Node2&#45;&gt;Node1 -->
<g id="edge1_Node000001_Node000002" class="edge">
<title>Node2&#45;&gt;Node1</title>
<g id="a_edge1_Node000001_Node000002"><a xlink:title=" ">
<path fill="none" stroke="#63b8ff" d="M88,-56.61C88,-47.65 88,-37.82 88,-30.08"/>
<polygon fill="#63b8ff" stroke="#63b8ff" points="84.5,-56.9 88,-66.9 91.5,-56.9 84.5,-56.9"/>
</a>
</g>
</g>
<!-- Node3 -->
<g id="Node000003" class="node">
<title>Node3</title>
<g id="a_Node000003"><a xlink:href="classmlir_1_1OpTrait_1_1TraitBase.html" target="_top" xlink:title="Helper class for implementing traits.">
<polygon fill="white" stroke="#666666" points="165.5,-180 10.5,-180 10.5,-150 165.5,-150 165.5,-180"/>
<text text-anchor="start" x="18.5" y="-168" font-family="Helvetica,sans-Serif" font-size="10.00">mlir::OpTrait::TraitBase</text>
<text text-anchor="middle" x="88" y="-157" font-family="Helvetica,sans-Serif" font-size="10.00">&lt; ConcreteType, TraitType &gt;</text>
</a>
</g>
</g>
<!-- Node3&#45;&gt;Node2 -->
<g id="edge2_Node000002_Node000003" class="edge">
<title>Node3&#45;&gt;Node2</title>
<g id="a_edge2_Node000002_Node000003"><a xlink:title=" ">
<path fill="none" stroke="orange" stroke-dasharray="5,2" d="M88,-139.59C88,-125.75 88,-108.91 88,-97.22"/>
<polygon fill="orange" stroke="orange" points="84.5,-139.89 88,-149.89 91.5,-139.89 84.5,-139.89"/>
</a>
</g>
<text text-anchor="start" x="91" y="-120.5" font-family="Helvetica,sans-Serif" font-size="10.00" fill="grey">&lt; OpTy, TransformEachOpTrait &gt;</text>
</g>
</g>
</svg>
