<?xml version="1.0" encoding="UTF-8" standalone="no"?>
<!DOCTYPE svg PUBLIC "-//W3C//DTD SVG 1.1//EN"
 "http://www.w3.org/Graphics/SVG/1.1/DTD/svg11.dtd">
<!-- Generated by graphviz version 2.43.0 (0)
 -->
<!-- Title: mlir::python::MLIR_BINDINGS_PYTHON_DOMAIN::PyPatternRewriter Pages: 1 -->
<svg width="230pt" height="299pt"
 viewBox="0.00 0.00 230.00 299.00" xmlns="http://www.w3.org/2000/svg" xmlns:xlink="http://www.w3.org/1999/xlink">
<g id="graph0" class="graph" transform="scale(1 1) rotate(0) translate(4 295)">
<title>mlir::python::MLIR_BINDINGS_PYTHON_DOMAIN::PyPatternRewriter</title>
<!-- Node1 -->
<g id="Node000001" class="node">
<title>Node1</title>
<g id="a_Node000001"><a xlink:title=" ">
<polygon fill="#999999" stroke="#666666" points="186.5,-119 23.5,-119 23.5,-78 186.5,-78 186.5,-119"/>
<text text-anchor="start" x="31.5" y="-107" font-family="Helvetica,sans-Serif" font-size="10.00">mlir::python::MLIR</text>
<text text-anchor="start" x="31.5" y="-96" font-family="Helvetica,sans-Serif" font-size="10.00">_BINDINGS_PYTHON_DOMAIN</text>
<text text-anchor="middle" x="105" y="-85" font-family="Helvetica,sans-Serif" font-size="10.00">::PyPatternRewriter</text>
</a>
</g>
</g>
<!-- Node4 -->
<g id="Node000004" class="node">
<title>Node4</title>
<g id="a_Node000004"><a xlink:href="classmlir_1_1python_1_1MLIR__BINDINGS__PYTHON__DOMAIN_1_1PyConversionPatternRewriter.html" target="_top" xlink:title=" ">
<polygon fill="white" stroke="#666666" points="187.5,-41 22.5,-41 22.5,0 187.5,0 187.5,-41"/>
<text text-anchor="start" x="30.5" y="-29" font-family="Helvetica,sans-Serif" font-size="10.00">mlir::python::MLIR</text>
<text text-anchor="start" x="30.5" y="-18" font-family="Helvetica,sans-Serif" font-size="10.00">_BINDINGS_PYTHON_DOMAIN</text>
<text text-anchor="middle" x="105" y="-7" font-family="Helvetica,sans-Serif" font-size="10.00">::PyConversionPatternRewriter</text>
</a>
</g>
</g>
<!-- Node1&#45;&gt;Node4 -->
<g id="edge3_Node000001_Node000004" class="edge">
<title>Node1&#45;&gt;Node4</title>
<g id="a_edge3_Node000001_Node000004"><a xlink:title=" ">
<path fill="none" stroke="#63b8ff" d="M105,-67.8C105,-58.8 105,-49.15 105,-41.01"/>
<polygon fill="#63b8ff" stroke="#63b8ff" points="101.5,-67.93 105,-77.93 108.5,-67.93 101.5,-67.93"/>
</a>
</g>
</g>
<!-- Node2 -->
<g id="Node000002" class="node">
<title>Node2</title>
<g id="a_Node000002"><a xlink:href="classmlir_1_1python_1_1MLIR__BINDINGS__PYTHON__DOMAIN_1_1PyRewriterBase.html" target="_top" xlink:title=" ">
<polygon fill="white" stroke="#666666" points="210,-197 0,-197 0,-156 210,-156 210,-197"/>
<text text-anchor="start" x="8" y="-185" font-family="Helvetica,sans-Serif" font-size="10.00">mlir::python::MLIR</text>
<text text-anchor="start" x="8" y="-174" font-family="Helvetica,sans-Serif" font-size="10.00">_BINDINGS_PYTHON_DOMAIN</text>
<text text-anchor="middle" x="105" y="-163" font-family="Helvetica,sans-Serif" font-size="10.00">::PyRewriterBase&lt; PyPatternRewriter &gt;</text>
</a>
</g>
</g>
<!-- Node2&#45;&gt;Node1 -->
<g id="edge1_Node000001_Node000002" class="edge">
<title>Node2&#45;&gt;Node1</title>
<g id="a_edge1_Node000001_Node000002"><a xlink:title=" ">
<path fill="none" stroke="#63b8ff" d="M105,-145.8C105,-136.8 105,-127.15 105,-119.01"/>
<polygon fill="#63b8ff" stroke="#63b8ff" points="101.5,-145.93 105,-155.93 108.5,-145.93 101.5,-145.93"/>
</a>
</g>
</g>
<!-- Node3 -->
<g id="Node000003" class="node">
<title>Node3</title>
<g id="a_Node000003"><a xlink:href="classmlir_1_1python_1_1MLIR__BINDINGS__PYTHON__DOMAIN_1_1PyRewriterBase.html" target="_top" xlink:title="CRTP Base class for rewriter wrappers.">
<polygon fill="white" stroke="#666666" points="190.5,-291 19.5,-291 19.5,-250 190.5,-250 190.5,-291"/>
<text text-anchor="start" x="27.5" y="-279" font-family="Helvetica,sans-Serif" font-size="10.00">mlir::python::MLIR</text>
<text text-anchor="start" x="27.5" y="-268" font-family="Helvetica,sans-Serif" font-size="10.00">_BINDINGS_PYTHON_DOMAIN</text>
<text text-anchor="middle" x="105" y="-257" font-family="Helvetica,sans-Serif" font-size="10.00">::PyRewriterBase&lt; DerivedTy &gt;</text>
</a>
</g>
</g>
<!-- Node3&#45;&gt;Node2 -->
<g id="edge2_Node000002_Node000003" class="edge">
<title>Node3&#45;&gt;Node2</title>
<g id="a_edge2_Node000002_Node000003"><a xlink:title=" ">
<path fill="none" stroke="orange" stroke-dasharray="5,2" d="M105,-239.89C105,-225.96 105,-209.72 105,-197.3"/>
<polygon fill="orange" stroke="orange" points="101.5,-239.99 105,-249.99 108.5,-239.99 101.5,-239.99"/>
</a>
</g>
<text text-anchor="start" x="108.5" y="-220.5" font-family="Helvetica,sans-Serif" font-size="10.00" fill="grey">&lt; PyPatternRewriter &gt;</text>
</g>
</g>
</svg>
