<?xml version="1.0" encoding="UTF-8" standalone="no"?>
<!DOCTYPE svg PUBLIC "-//W3C//DTD SVG 1.1//EN"
 "http://www.w3.org/Graphics/SVG/1.1/DTD/svg11.dtd">
<!-- Generated by graphviz version 2.43.0 (0)
 -->
<!-- Title: mlir::python::PyAttribute Pages: 1 -->
<svg width="1012pt" height="70pt"
 viewBox="0.00 0.00 1012.00 69.50" xmlns="http://www.w3.org/2000/svg" xmlns:xlink="http://www.w3.org/1999/xlink">
<g id="graph0" class="graph" transform="scale(1 1) rotate(0) translate(4 65.5)">
<title>mlir::python::PyAttribute</title>
<!-- Node1 -->
<g id="node1" class="node">
<title>Node1</title>
<g id="a_node1"><a xlink:title="Wrapper around the generic MlirAttribute.">
<polygon fill="#bfbfbf" stroke="black" points="181,-35.5 181,-54.5 318,-54.5 318,-35.5 181,-35.5"/>
<text text-anchor="middle" x="249.5" y="-42.5" font-family="Helvetica,sans-Serif" font-size="10.00">mlir::python::PyAttribute</text>
</a>
</g>
</g>
<!-- Node3 -->
<g id="node3" class="node">
<title>Node3</title>
<g id="a_node3"><a xlink:href="classmlir_1_1python_1_1PyConcreteAttribute.html" target="_top" xlink:title=" ">
<polygon fill="none" stroke="black" points="637,-31 637,-61 802,-61 802,-31 637,-31"/>
<text text-anchor="start" x="645" y="-49" font-family="Helvetica,sans-Serif" font-size="10.00">mlir::python::PyConcrete</text>
<text text-anchor="middle" x="719.5" y="-38" font-family="Helvetica,sans-Serif" font-size="10.00">Attribute&lt; PyStringAttribute &gt;</text>
</a>
</g>
</g>
<!-- Node1&#45;&gt;Node3 -->
<g id="edge2" class="edge">
<title>Node1&#45;&gt;Node3</title>
<path fill="none" stroke="midnightblue" d="M328.32,-49.85C337.32,-50.3 346.36,-50.7 355,-51 472.26,-55.12 501.74,-57.12 619,-53 624.8,-52.8 630.78,-52.53 636.8,-52.21"/>
<polygon fill="midnightblue" stroke="midnightblue" points="328.38,-46.35 318.22,-49.33 328.02,-53.34 328.38,-46.35"/>
</g>
<!-- Node5 -->
<g id="node5" class="node">
<title>Node5</title>
<g id="a_node5"><a xlink:href="classmlir_1_1python_1_1PyConcreteAttribute.html" target="_top" xlink:title="CRTP base classes for Python attributes that subclass Attribute and should be castable from it (i....">
<polygon fill="none" stroke="black" points="355,-0.5 355,-41.5 492,-41.5 492,-0.5 355,-0.5"/>
<text text-anchor="start" x="363" y="-29.5" font-family="Helvetica,sans-Serif" font-size="10.00">mlir::python::PyConcrete</text>
<text text-anchor="start" x="363" y="-18.5" font-family="Helvetica,sans-Serif" font-size="10.00">Attribute&lt; DerivedTy,</text>
<text text-anchor="middle" x="423.5" y="-7.5" font-family="Helvetica,sans-Serif" font-size="10.00"> BaseTy &gt;</text>
</a>
</g>
</g>
<!-- Node1&#45;&gt;Node5 -->
<g id="edge4" class="edge">
<title>Node1&#45;&gt;Node5</title>
<path fill="none" stroke="midnightblue" d="M328.63,-34.1C337.35,-32.88 346.17,-31.65 354.73,-30.46"/>
<polygon fill="midnightblue" stroke="midnightblue" points="327.9,-30.67 318.48,-35.51 328.87,-37.6 327.9,-30.67"/>
</g>
<!-- Node2 -->
<g id="node2" class="node">
<title>Node2</title>
<g id="a_node2"><a xlink:href="classmlir_1_1python_1_1BaseContextObject.html" target="_top" xlink:title="Base class for all objects that directly or indirectly depend on an MlirContext.">
<polygon fill="none" stroke="black" points="0,-30 0,-60 144,-60 144,-30 0,-30"/>
<text text-anchor="start" x="8" y="-48" font-family="Helvetica,sans-Serif" font-size="10.00">mlir::python::BaseContext</text>
<text text-anchor="middle" x="72" y="-37" font-family="Helvetica,sans-Serif" font-size="10.00">Object</text>
</a>
</g>
</g>
<!-- Node2&#45;&gt;Node1 -->
<g id="edge1" class="edge">
<title>Node2&#45;&gt;Node1</title>
<path fill="none" stroke="midnightblue" d="M154.19,-45C163.14,-45 172.19,-45 180.96,-45"/>
<polygon fill="midnightblue" stroke="midnightblue" points="154.13,-41.5 144.13,-45 154.13,-48.5 154.13,-41.5"/>
</g>
<!-- Node4 -->
<g id="node4" class="node">
<title>Node4</title>
<g id="a_node4"><a xlink:href="classmlir_1_1python_1_1PyStringAttribute.html" target="_top" xlink:title=" ">
<polygon fill="none" stroke="black" points="839,-36.5 839,-55.5 1004,-55.5 1004,-36.5 839,-36.5"/>
<text text-anchor="middle" x="921.5" y="-43.5" font-family="Helvetica,sans-Serif" font-size="10.00">mlir::python::PyStringAttribute</text>
</a>
</g>
</g>
<!-- Node3&#45;&gt;Node4 -->
<g id="edge3" class="edge">
<title>Node3&#45;&gt;Node4</title>
<path fill="none" stroke="midnightblue" d="M812.41,-46C821.22,-46 830.1,-46 838.8,-46"/>
<polygon fill="midnightblue" stroke="midnightblue" points="812.14,-42.5 802.14,-46 812.14,-49.5 812.14,-42.5"/>
</g>
<!-- Node5&#45;&gt;Node3 -->
<g id="edge5" class="edge">
<title>Node5&#45;&gt;Node3</title>
<path fill="none" stroke="orange" stroke-dasharray="5,2" d="M502.38,-27.62C543.86,-31.15 594.86,-35.49 636.9,-39.06"/>
<polygon fill="orange" stroke="orange" points="502.58,-24.13 492.32,-26.77 501.99,-31.1 502.58,-24.13"/>
<text text-anchor="middle" x="564.5" y="-41" font-family="Helvetica,sans-Serif" font-size="10.00"> &lt; PyStringAttribute &gt;</text>
</g>
</g>
</svg>
