<?xml version="1.0" encoding="UTF-8" standalone="no"?>
<!DOCTYPE svg PUBLIC "-//W3C//DTD SVG 1.1//EN"
 "http://www.w3.org/Graphics/SVG/1.1/DTD/svg11.dtd">
<!-- Generated by graphviz version 2.43.0 (0)
 -->
<!-- Title: llvm::function_ref&lt; Fn &gt; Pages: 1 -->
<svg width="488pt" height="1200pt"
 viewBox="0.00 0.00 488.00 1200.46" xmlns="http://www.w3.org/2000/svg" xmlns:xlink="http://www.w3.org/1999/xlink">
<g id="graph0" class="graph" transform="scale(1 1) rotate(0) translate(4 1196.46)">
<title>llvm::function_ref&lt; Fn &gt;</title>
<!-- Node1 -->
<g id="node1" class="node">
<title>Node1</title>
<g id="a_node1"><a xlink:title=" ">
<polygon fill="#bfbfbf" stroke="black" points="0,-571.46 0,-601.46 103,-601.46 103,-571.46 0,-571.46"/>
<text text-anchor="start" x="8" y="-589.46" font-family="Helvetica,sans-Serif" font-size="10.00">llvm::function_ref</text>
<text text-anchor="middle" x="51.5" y="-578.46" font-family="Helvetica,sans-Serif" font-size="10.00">&lt; Fn &gt;</text>
</a>
</g>
</g>
<!-- Node2 -->
<g id="node2" class="node">
<title>Node2</title>
<g id="a_node2"><a xlink:href="classllvm_1_1function__ref.html" target="_top" xlink:title=" ">
<polygon fill="none" stroke="black" points="305,-1128.96 305,-1169.96 478,-1169.96 478,-1128.96 305,-1128.96"/>
<text text-anchor="start" x="313" y="-1157.96" font-family="Helvetica,sans-Serif" font-size="10.00">llvm::function_ref</text>
<text text-anchor="start" x="313" y="-1146.96" font-family="Helvetica,sans-Serif" font-size="10.00">&lt; void(mlir::OpaqueProperties,</text>
<text text-anchor="middle" x="391.5" y="-1135.96" font-family="Helvetica,sans-Serif" font-size="10.00"> const mlir::OpaqueProperties)&gt;</text>
</a>
</g>
</g>
<!-- Node1&#45;&gt;Node2 -->
<g id="edge1" class="edge">
<title>Node1&#45;&gt;Node2</title>
<path fill="none" stroke="orange" stroke-dasharray="5,2" d="M53.86,-611.69C59.61,-713.49 83.3,-1090.28 121,-1126.46 168.68,-1172.23 245.4,-1174.62 304.81,-1167.5"/>
<polygon fill="orange" stroke="orange" points="57.36,-611.48 53.31,-601.69 50.37,-611.87 57.36,-611.48"/>
<text text-anchor="start" x="124.5" y="-1184.46" font-family="Helvetica,sans-Serif" font-size="10.00"> &lt; void(mlir::OpaqueProperties,</text>
<text text-anchor="middle" x="203" y="-1173.46" font-family="Helvetica,sans-Serif" font-size="10.00"> const mlir::OpaqueProperties)&gt;</text>
</g>
<!-- Node3 -->
<g id="node3" class="node">
<title>Node3</title>
<g id="a_node3"><a xlink:href="classllvm_1_1function__ref.html" target="_top" xlink:title=" ">
<polygon fill="none" stroke="black" points="336.5,-1079.46 336.5,-1109.46 446.5,-1109.46 446.5,-1079.46 336.5,-1079.46"/>
<text text-anchor="start" x="344.5" y="-1097.46" font-family="Helvetica,sans-Serif" font-size="10.00">llvm::function_ref</text>
<text text-anchor="middle" x="391.5" y="-1086.46" font-family="Helvetica,sans-Serif" font-size="10.00">&lt; void(StringRef)&gt;</text>
</a>
</g>
</g>
<!-- Node1&#45;&gt;Node3 -->
<g id="edge2" class="edge">
<title>Node1&#45;&gt;Node3</title>
<path fill="none" stroke="orange" stroke-dasharray="5,2" d="M52.24,-612.02C51.88,-701.86 55.69,-1001.18 121,-1064.46 177.63,-1119.34 275.53,-1115.25 336.45,-1105.86"/>
<polygon fill="orange" stroke="orange" points="55.74,-611.92 52.3,-601.9 48.74,-611.88 55.74,-611.92"/>
<text text-anchor="middle" x="203" y="-1114.46" font-family="Helvetica,sans-Serif" font-size="10.00"> &lt; void(StringRef)&gt;</text>
</g>
<!-- Node4 -->
<g id="node4" class="node">
<title>Node4</title>
<g id="a_node4"><a xlink:href="classllvm_1_1function__ref.html" target="_top" xlink:title=" ">
<polygon fill="none" stroke="black" points="322,-1030.46 322,-1060.46 461,-1060.46 461,-1030.46 322,-1030.46"/>
<text text-anchor="start" x="330" y="-1048.46" font-family="Helvetica,sans-Serif" font-size="10.00">llvm::function_ref</text>
<text text-anchor="middle" x="391.5" y="-1037.46" font-family="Helvetica,sans-Serif" font-size="10.00">&lt; void(llvm::Module &amp;)&gt;</text>
</a>
</g>
</g>
<!-- Node1&#45;&gt;Node4 -->
<g id="edge3" class="edge">
<title>Node1&#45;&gt;Node4</title>
<path fill="none" stroke="orange" stroke-dasharray="5,2" d="M52.55,-611.78C53.29,-696.4 60.41,-967.2 121,-1023.46 149.17,-1049.62 251.56,-1051.31 321.71,-1049.14"/>
<polygon fill="orange" stroke="orange" points="56.05,-611.53 52.49,-601.55 49.05,-611.57 56.05,-611.53"/>
<text text-anchor="middle" x="203" y="-1052.46" font-family="Helvetica,sans-Serif" font-size="10.00"> &lt; void(llvm::Module &amp;)&gt;</text>
</g>
<!-- Node5 -->
<g id="node5" class="node">
<title>Node5</title>
<g id="a_node5"><a xlink:href="classllvm_1_1function__ref.html" target="_top" xlink:title=" ">
<polygon fill="none" stroke="black" points="323,-959.46 323,-1011.46 460,-1011.46 460,-959.46 323,-959.46"/>
<text text-anchor="start" x="331" y="-999.46" font-family="Helvetica,sans-Serif" font-size="10.00">llvm::function_ref</text>
<text text-anchor="start" x="331" y="-988.46" font-family="Helvetica,sans-Serif" font-size="10.00">&lt; LogicalResult(mlir</text>
<text text-anchor="start" x="331" y="-977.46" font-family="Helvetica,sans-Serif" font-size="10.00">::OpPassManager &amp;, mlir</text>
<text text-anchor="middle" x="391.5" y="-966.46" font-family="Helvetica,sans-Serif" font-size="10.00">::Operation *)&gt;</text>
</a>
</g>
</g>
<!-- Node1&#45;&gt;Node5 -->
<g id="edge4" class="edge">
<title>Node1&#45;&gt;Node5</title>
<path fill="none" stroke="orange" stroke-dasharray="5,2" d="M53.24,-611.77C56.05,-688.49 68.73,-916.1 121,-963.46 149.61,-989.39 252.73,-991.08 322.79,-988.98"/>
<polygon fill="orange" stroke="orange" points="56.73,-611.46 52.89,-601.59 49.74,-611.7 56.73,-611.46"/>
<text text-anchor="start" x="142.5" y="-1014.46" font-family="Helvetica,sans-Serif" font-size="10.00"> &lt; LogicalResult(mlir</text>
<text text-anchor="start" x="142.5" y="-1003.46" font-family="Helvetica,sans-Serif" font-size="10.00">::OpPassManager &amp;, mlir</text>
<text text-anchor="middle" x="203" y="-992.46" font-family="Helvetica,sans-Serif" font-size="10.00">::Operation *)&gt;</text>
</g>
<!-- Node6 -->
<g id="node6" class="node">
<title>Node6</title>
<g id="a_node6"><a xlink:href="classllvm_1_1function__ref.html" target="_top" xlink:title=" ">
<polygon fill="none" stroke="black" points="318,-888.46 318,-940.46 465,-940.46 465,-888.46 318,-888.46"/>
<text text-anchor="start" x="326" y="-928.46" font-family="Helvetica,sans-Serif" font-size="10.00">llvm::function_ref</text>
<text text-anchor="start" x="326" y="-917.46" font-family="Helvetica,sans-Serif" font-size="10.00">&lt; DialectRegistry &amp;</text>
<text text-anchor="start" x="326" y="-906.46" font-family="Helvetica,sans-Serif" font-size="10.00">(const llvm::lsp::URIForFile</text>
<text text-anchor="middle" x="391.5" y="-895.46" font-family="Helvetica,sans-Serif" font-size="10.00"> &amp;uri)&gt;</text>
</a>
</g>
</g>
<!-- Node1&#45;&gt;Node6 -->
<g id="edge5" class="edge">
<title>Node1&#45;&gt;Node6</title>
<path fill="none" stroke="orange" stroke-dasharray="5,2" d="M54.64,-611.89C60.68,-677.16 80.16,-848.07 121,-884.46 173.9,-931.6 257.74,-933.68 317.87,-927.39"/>
<polygon fill="orange" stroke="orange" points="58.1,-611.32 53.72,-601.67 51.13,-611.94 58.1,-611.32"/>
<text text-anchor="start" x="137.5" y="-954.46" font-family="Helvetica,sans-Serif" font-size="10.00"> &lt; DialectRegistry &amp;</text>
<text text-anchor="start" x="137.5" y="-943.46" font-family="Helvetica,sans-Serif" font-size="10.00">(const llvm::lsp::URIForFile</text>
<text text-anchor="middle" x="203" y="-932.46" font-family="Helvetica,sans-Serif" font-size="10.00"> &amp;uri)&gt;</text>
</g>
<!-- Node7 -->
<g id="node7" class="node">
<title>Node7</title>
<g id="a_node7"><a xlink:href="classllvm_1_1function__ref.html" target="_top" xlink:title=" ">
<polygon fill="none" stroke="black" points="335,-839.46 335,-869.46 448,-869.46 448,-839.46 335,-839.46"/>
<text text-anchor="start" x="343" y="-857.46" font-family="Helvetica,sans-Serif" font-size="10.00">llvm::function_ref</text>
<text text-anchor="middle" x="391.5" y="-846.46" font-family="Helvetica,sans-Serif" font-size="10.00">&lt; void(mlir::Type)&gt;</text>
</a>
</g>
</g>
<!-- Node1&#45;&gt;Node7 -->
<g id="edge6" class="edge">
<title>Node1&#45;&gt;Node7</title>
<path fill="none" stroke="orange" stroke-dasharray="5,2" d="M56.14,-611.65C64.7,-667.23 87.94,-797.65 121,-825.46 180.33,-875.37 274.91,-873.06 334.8,-865.06"/>
<polygon fill="orange" stroke="orange" points="59.57,-610.95 54.62,-601.58 52.65,-611.99 59.57,-610.95"/>
<text text-anchor="middle" x="203" y="-872.46" font-family="Helvetica,sans-Serif" font-size="10.00"> &lt; void(mlir::Type)&gt;</text>
</g>
<!-- Node8 -->
<g id="node8" class="node">
<title>Node8</title>
<g id="a_node8"><a xlink:href="classllvm_1_1function__ref.html" target="_top" xlink:title=" ">
<polygon fill="none" stroke="black" points="310,-768.46 310,-820.46 473,-820.46 473,-768.46 310,-768.46"/>
<text text-anchor="start" x="318" y="-808.46" font-family="Helvetica,sans-Serif" font-size="10.00">llvm::function_ref</text>
<text text-anchor="start" x="318" y="-797.46" font-family="Helvetica,sans-Serif" font-size="10.00">&lt; llvm::LogicalResult</text>
<text text-anchor="start" x="318" y="-786.46" font-family="Helvetica,sans-Serif" font-size="10.00">(mlir::Operation *, mlir</text>
<text text-anchor="middle" x="391.5" y="-775.46" font-family="Helvetica,sans-Serif" font-size="10.00">::JitRunnerOptions &amp;options)&gt;</text>
</a>
</g>
</g>
<!-- Node1&#45;&gt;Node8 -->
<g id="edge7" class="edge">
<title>Node1&#45;&gt;Node8</title>
<path fill="none" stroke="orange" stroke-dasharray="5,2" d="M55.16,-611.68C60.53,-649 76.27,-718.3 121,-753.46 149.65,-775.99 241.35,-786.25 309.89,-790.85"/>
<polygon fill="orange" stroke="orange" points="58.61,-611.1 53.86,-601.63 51.67,-612 58.61,-611.1"/>
<text text-anchor="start" x="129.5" y="-813.46" font-family="Helvetica,sans-Serif" font-size="10.00"> &lt; llvm::LogicalResult</text>
<text text-anchor="start" x="129.5" y="-802.46" font-family="Helvetica,sans-Serif" font-size="10.00">(mlir::Operation *, mlir</text>
<text text-anchor="middle" x="203" y="-791.46" font-family="Helvetica,sans-Serif" font-size="10.00">::JitRunnerOptions &amp;options)&gt;</text>
</g>
<!-- Node9 -->
<g id="node9" class="node">
<title>Node9</title>
<g id="a_node9"><a xlink:href="classllvm_1_1function__ref.html" target="_top" xlink:title=" ">
<polygon fill="none" stroke="black" points="311,-697.46 311,-749.46 472,-749.46 472,-697.46 311,-697.46"/>
<text text-anchor="start" x="319" y="-737.46" font-family="Helvetica,sans-Serif" font-size="10.00">llvm::function_ref</text>
<text text-anchor="start" x="319" y="-726.46" font-family="Helvetica,sans-Serif" font-size="10.00">&lt; void(Attribute, function</text>
<text text-anchor="start" x="319" y="-715.46" font-family="Helvetica,sans-Serif" font-size="10.00">_ref&lt; void(Attribute)&gt;,</text>
<text text-anchor="middle" x="391.5" y="-704.46" font-family="Helvetica,sans-Serif" font-size="10.00"> function_ref&lt; void(Type)&gt;)&gt;</text>
</a>
</g>
</g>
<!-- Node1&#45;&gt;Node9 -->
<g id="edge8" class="edge">
<title>Node1&#45;&gt;Node9</title>
<path fill="none" stroke="orange" stroke-dasharray="5,2" d="M66.33,-610.18C78.39,-628.69 97.61,-653.54 121,-667.46 178.8,-701.86 254.51,-715.36 310.96,-720.55"/>
<polygon fill="orange" stroke="orange" points="69.27,-608.28 60.99,-601.67 63.34,-612 69.27,-608.28"/>
<text text-anchor="start" x="130.5" y="-741.46" font-family="Helvetica,sans-Serif" font-size="10.00"> &lt; void(Attribute, function</text>
<text text-anchor="start" x="130.5" y="-730.46" font-family="Helvetica,sans-Serif" font-size="10.00">_ref&lt; void(Attribute)&gt;,</text>
<text text-anchor="middle" x="203" y="-719.46" font-family="Helvetica,sans-Serif" font-size="10.00"> function_ref&lt; void(Type)&gt;)&gt;</text>
</g>
<!-- Node10 -->
<g id="node10" class="node">
<title>Node10</title>
<g id="a_node10"><a xlink:href="classllvm_1_1function__ref.html" target="_top" xlink:title=" ">
<polygon fill="none" stroke="black" points="322,-648.46 322,-678.46 461,-678.46 461,-648.46 322,-648.46"/>
<text text-anchor="start" x="330" y="-666.46" font-family="Helvetica,sans-Serif" font-size="10.00">llvm::function_ref</text>
<text text-anchor="middle" x="391.5" y="-655.46" font-family="Helvetica,sans-Serif" font-size="10.00">&lt; ShapeAdaptor(Value)&gt;</text>
</a>
</g>
</g>
<!-- Node1&#45;&gt;Node10 -->
<g id="edge9" class="edge">
<title>Node1&#45;&gt;Node10</title>
<path fill="none" stroke="orange" stroke-dasharray="5,2" d="M87.02,-606.13C97.64,-611.48 109.56,-616.8 121,-620.46 187.45,-641.71 266.62,-652.74 321.89,-658.28"/>
<polygon fill="orange" stroke="orange" points="88.55,-602.98 78.07,-601.46 85.32,-609.19 88.55,-602.98"/>
<text text-anchor="middle" x="203" y="-655.46" font-family="Helvetica,sans-Serif" font-size="10.00"> &lt; ShapeAdaptor(Value)&gt;</text>
</g>
<!-- Node11 -->
<g id="node11" class="node">
<title>Node11</title>
<g id="a_node11"><a xlink:href="classllvm_1_1function__ref.html" target="_top" xlink:title=" ">
<polygon fill="none" stroke="black" points="325,-599.46 325,-629.46 458,-629.46 458,-599.46 325,-599.46"/>
<text text-anchor="start" x="333" y="-617.46" font-family="Helvetica,sans-Serif" font-size="10.00">llvm::function_ref</text>
<text text-anchor="middle" x="391.5" y="-606.46" font-family="Helvetica,sans-Serif" font-size="10.00">&lt; void(mlir::Attribute)&gt;</text>
</a>
</g>
</g>
<!-- Node1&#45;&gt;Node11 -->
<g id="edge10" class="edge">
<title>Node1&#45;&gt;Node11</title>
<path fill="none" stroke="orange" stroke-dasharray="5,2" d="M113.38,-591.81C115.95,-592.03 118.5,-592.25 121,-592.46 190.58,-598.35 270.29,-604.82 324.87,-609.21"/>
<polygon fill="orange" stroke="orange" points="113.63,-588.32 103.37,-590.95 113.03,-595.3 113.63,-588.32"/>
<text text-anchor="middle" x="203" y="-608.46" font-family="Helvetica,sans-Serif" font-size="10.00"> &lt; void(mlir::Attribute)&gt;</text>
</g>
<!-- Node12 -->
<g id="node12" class="node">
<title>Node12</title>
<g id="a_node12"><a xlink:href="classllvm_1_1function__ref.html" target="_top" xlink:title=" ">
<polygon fill="none" stroke="black" points="312.5,-538.96 312.5,-579.96 470.5,-579.96 470.5,-538.96 312.5,-538.96"/>
<text text-anchor="start" x="320.5" y="-567.96" font-family="Helvetica,sans-Serif" font-size="10.00">llvm::function_ref</text>
<text text-anchor="start" x="320.5" y="-556.96" font-family="Helvetica,sans-Serif" font-size="10.00">&lt; Control(const ActionActive</text>
<text text-anchor="middle" x="391.5" y="-545.96" font-family="Helvetica,sans-Serif" font-size="10.00">Stack *)&gt;</text>
</a>
</g>
</g>
<!-- Node1&#45;&gt;Node12 -->
<g id="edge11" class="edge">
<title>Node1&#45;&gt;Node12</title>
<path fill="none" stroke="orange" stroke-dasharray="5,2" d="M113.27,-571.64C115.87,-571.2 118.46,-570.81 121,-570.46 185.03,-561.76 258.34,-559.24 312.32,-558.77"/>
<polygon fill="orange" stroke="orange" points="112.37,-568.25 103.17,-573.5 113.64,-575.13 112.37,-568.25"/>
<text text-anchor="start" x="130.5" y="-584.46" font-family="Helvetica,sans-Serif" font-size="10.00"> &lt; Control(const ActionActive</text>
<text text-anchor="middle" x="203" y="-573.46" font-family="Helvetica,sans-Serif" font-size="10.00">Stack *)&gt;</text>
</g>
<!-- Node13 -->
<g id="node13" class="node">
<title>Node13</title>
<g id="a_node13"><a xlink:href="classllvm_1_1function__ref.html" target="_top" xlink:title=" ">
<polygon fill="none" stroke="black" points="304.5,-478.96 304.5,-519.96 478.5,-519.96 478.5,-478.96 304.5,-478.96"/>
<text text-anchor="start" x="312.5" y="-507.96" font-family="Helvetica,sans-Serif" font-size="10.00">llvm::function_ref</text>
<text text-anchor="start" x="312.5" y="-496.96" font-family="Helvetica,sans-Serif" font-size="10.00">&lt; llvm::orc::SymbolMap</text>
<text text-anchor="middle" x="391.5" y="-485.96" font-family="Helvetica,sans-Serif" font-size="10.00">(llvm::orc::MangleAndInterner)&gt;</text>
</a>
</g>
</g>
<!-- Node1&#45;&gt;Node13 -->
<g id="edge12" class="edge">
<title>Node1&#45;&gt;Node13</title>
<path fill="none" stroke="orange" stroke-dasharray="5,2" d="M74.32,-564.15C86.87,-552.72 103.57,-539.72 121,-532.46 179.09,-508.26 249.88,-500.33 304.33,-498.28"/>
<polygon fill="orange" stroke="orange" points="71.57,-561.93 66.71,-571.35 76.38,-567.02 71.57,-561.93"/>
<text text-anchor="start" x="124" y="-546.46" font-family="Helvetica,sans-Serif" font-size="10.00"> &lt; llvm::orc::SymbolMap</text>
<text text-anchor="middle" x="203" y="-535.46" font-family="Helvetica,sans-Serif" font-size="10.00">(llvm::orc::MangleAndInterner)&gt;</text>
</g>
<!-- Node14 -->
<g id="node14" class="node">
<title>Node14</title>
<g id="a_node14"><a xlink:href="classllvm_1_1function__ref.html" target="_top" xlink:title=" ">
<polygon fill="none" stroke="black" points="315.5,-429.46 315.5,-459.46 467.5,-459.46 467.5,-429.46 315.5,-429.46"/>
<text text-anchor="start" x="323.5" y="-447.46" font-family="Helvetica,sans-Serif" font-size="10.00">llvm::function_ref</text>
<text text-anchor="middle" x="391.5" y="-436.46" font-family="Helvetica,sans-Serif" font-size="10.00">&lt; void(mlir::Diagnostic &amp;)&gt;</text>
</a>
</g>
</g>
<!-- Node1&#45;&gt;Node14 -->
<g id="edge13" class="edge">
<title>Node1&#45;&gt;Node14</title>
<path fill="none" stroke="orange" stroke-dasharray="5,2" d="M61.9,-561.68C72.43,-537.53 91.93,-501.84 121,-483.46 179.04,-446.77 257.98,-439.16 315.41,-439.44"/>
<polygon fill="orange" stroke="orange" points="58.53,-560.66 57.93,-571.24 65,-563.34 58.53,-560.66"/>
<text text-anchor="middle" x="203" y="-486.46" font-family="Helvetica,sans-Serif" font-size="10.00"> &lt; void(mlir::Diagnostic &amp;)&gt;</text>
</g>
<!-- Node15 -->
<g id="node15" class="node">
<title>Node15</title>
<g id="a_node15"><a xlink:href="classllvm_1_1function__ref.html" target="_top" xlink:title=" ">
<polygon fill="none" stroke="black" points="309.5,-358.46 309.5,-410.46 473.5,-410.46 473.5,-358.46 309.5,-358.46"/>
<text text-anchor="start" x="317.5" y="-398.46" font-family="Helvetica,sans-Serif" font-size="10.00">llvm::function_ref</text>
<text text-anchor="start" x="317.5" y="-387.46" font-family="Helvetica,sans-Serif" font-size="10.00">&lt; void(Type, function</text>
<text text-anchor="start" x="317.5" y="-376.46" font-family="Helvetica,sans-Serif" font-size="10.00">_ref&lt; void(Attribute)&gt;</text>
<text text-anchor="middle" x="391.5" y="-365.46" font-family="Helvetica,sans-Serif" font-size="10.00">, function_ref&lt; void(Type)&gt;)&gt;</text>
</a>
</g>
</g>
<!-- Node1&#45;&gt;Node15 -->
<g id="edge14" class="edge">
<title>Node1&#45;&gt;Node15</title>
<path fill="none" stroke="orange" stroke-dasharray="5,2" d="M52.89,-560.99C55.07,-517.84 66.43,-431.2 121,-391.46 174.63,-352.4 251.5,-354.45 309.42,-364.06"/>
<polygon fill="orange" stroke="orange" points="49.38,-561.08 52.5,-571.21 56.37,-561.35 49.38,-561.08"/>
<text text-anchor="start" x="149" y="-427.46" font-family="Helvetica,sans-Serif" font-size="10.00"> &lt; void(Type, function</text>
<text text-anchor="start" x="149" y="-416.46" font-family="Helvetica,sans-Serif" font-size="10.00">_ref&lt; void(Attribute)</text>
<text text-anchor="start" x="149" y="-405.46" font-family="Helvetica,sans-Serif" font-size="10.00">&gt;, function_ref&lt; void</text>
<text text-anchor="middle" x="203" y="-394.46" font-family="Helvetica,sans-Serif" font-size="10.00">(Type)&gt;)&gt;</text>
</g>
<!-- Node16 -->
<g id="node16" class="node">
<title>Node16</title>
<g id="a_node16"><a xlink:href="classllvm_1_1function__ref.html" target="_top" xlink:title=" ">
<polygon fill="none" stroke="black" points="321.5,-309.46 321.5,-339.46 461.5,-339.46 461.5,-309.46 321.5,-309.46"/>
<text text-anchor="start" x="329.5" y="-327.46" font-family="Helvetica,sans-Serif" font-size="10.00">llvm::function_ref</text>
<text text-anchor="middle" x="391.5" y="-316.46" font-family="Helvetica,sans-Serif" font-size="10.00">&lt; mlir::SymbolTable *()&gt;</text>
</a>
</g>
</g>
<!-- Node1&#45;&gt;Node16 -->
<g id="edge15" class="edge">
<title>Node1&#45;&gt;Node16</title>
<path fill="none" stroke="orange" stroke-dasharray="5,2" d="M55.92,-561.06C64.1,-504.36 86.73,-370.28 121,-342.46 177.79,-296.36 265.45,-299.76 325.26,-309.45"/>
<polygon fill="orange" stroke="orange" points="52.4,-560.92 54.47,-571.31 59.34,-561.9 52.4,-560.92"/>
<text text-anchor="middle" x="203" y="-345.46" font-family="Helvetica,sans-Serif" font-size="10.00"> &lt; mlir::SymbolTable *()&gt;</text>
</g>
<!-- Node17 -->
<g id="node17" class="node">
<title>Node17</title>
<g id="a_node17"><a xlink:href="classllvm_1_1function__ref.html" target="_top" xlink:title=" ">
<polygon fill="none" stroke="black" points="303,-260.46 303,-290.46 480,-290.46 480,-260.46 303,-260.46"/>
<text text-anchor="start" x="311" y="-278.46" font-family="Helvetica,sans-Serif" font-size="10.00">llvm::function_ref</text>
<text text-anchor="middle" x="391.5" y="-267.46" font-family="Helvetica,sans-Serif" font-size="10.00">&lt; void(mlir::OpaqueProperties)&gt;</text>
</a>
</g>
</g>
<!-- Node1&#45;&gt;Node17 -->
<g id="edge16" class="edge">
<title>Node1&#45;&gt;Node17</title>
<path fill="none" stroke="orange" stroke-dasharray="5,2" d="M54.49,-560.8C60.17,-494.92 78.86,-322.6 121,-287.46 180.71,-237.67 276.3,-247.41 336.13,-260.41"/>
<polygon fill="orange" stroke="orange" points="50.97,-560.86 53.63,-571.11 57.95,-561.44 50.97,-560.86"/>
<text text-anchor="middle" x="203" y="-290.46" font-family="Helvetica,sans-Serif" font-size="10.00"> &lt; void(mlir::OpaqueProperties)&gt;</text>
</g>
<!-- Node18 -->
<g id="node18" class="node">
<title>Node18</title>
<g id="a_node18"><a xlink:href="classllvm_1_1function__ref.html" target="_top" xlink:title=" ">
<polygon fill="none" stroke="black" points="318.5,-211.46 318.5,-241.46 464.5,-241.46 464.5,-211.46 318.5,-211.46"/>
<text text-anchor="start" x="326.5" y="-229.46" font-family="Helvetica,sans-Serif" font-size="10.00">llvm::function_ref</text>
<text text-anchor="middle" x="391.5" y="-218.46" font-family="Helvetica,sans-Serif" font-size="10.00">&lt; bool(mlir::Operation *)&gt;</text>
</a>
</g>
</g>
<!-- Node1&#45;&gt;Node18 -->
<g id="edge17" class="edge">
<title>Node1&#45;&gt;Node18</title>
<path fill="none" stroke="orange" stroke-dasharray="5,2" d="M53.48,-561.27C56.91,-487.91 71.01,-276.92 121,-234.46 149.67,-210.11 248.6,-213.18 318.25,-218.85"/>
<polygon fill="orange" stroke="orange" points="49.98,-561.3 53.03,-571.44 56.97,-561.6 49.98,-561.3"/>
<text text-anchor="middle" x="203" y="-237.46" font-family="Helvetica,sans-Serif" font-size="10.00"> &lt; bool(mlir::Operation *)&gt;</text>
</g>
<!-- Node19 -->
<g id="node19" class="node">
<title>Node19</title>
<g id="a_node19"><a xlink:href="classllvm_1_1function__ref.html" target="_top" xlink:title=" ">
<polygon fill="none" stroke="black" points="327.5,-140.46 327.5,-192.46 455.5,-192.46 455.5,-140.46 327.5,-140.46"/>
<text text-anchor="start" x="335.5" y="-180.46" font-family="Helvetica,sans-Serif" font-size="10.00">llvm::function_ref</text>
<text text-anchor="start" x="335.5" y="-169.46" font-family="Helvetica,sans-Serif" font-size="10.00">&lt; Attribute(Attribute,</text>
<text text-anchor="start" x="335.5" y="-158.46" font-family="Helvetica,sans-Serif" font-size="10.00"> ArrayRef&lt; Attribute &gt;</text>
<text text-anchor="middle" x="391.5" y="-147.46" font-family="Helvetica,sans-Serif" font-size="10.00">, ArrayRef&lt; Type &gt;)&gt;</text>
</a>
</g>
</g>
<!-- Node1&#45;&gt;Node19 -->
<g id="edge18" class="edge">
<title>Node1&#45;&gt;Node19</title>
<path fill="none" stroke="orange" stroke-dasharray="5,2" d="M52.76,-561.09C54.18,-479.84 63.24,-228.41 121,-177.46 176.66,-128.37 266.71,-135.85 327.22,-148.67"/>
<polygon fill="orange" stroke="orange" points="49.26,-561.34 52.61,-571.39 56.26,-561.44 49.26,-561.34"/>
<text text-anchor="start" x="144" y="-202.46" font-family="Helvetica,sans-Serif" font-size="10.00"> &lt; Attribute(Attribute,</text>
<text text-anchor="start" x="144" y="-191.46" font-family="Helvetica,sans-Serif" font-size="10.00"> ArrayRef&lt; Attribute</text>
<text text-anchor="middle" x="203" y="-180.46" font-family="Helvetica,sans-Serif" font-size="10.00"> &gt;, ArrayRef&lt; Type &gt;)&gt;</text>
</g>
<!-- Node20 -->
<g id="node20" class="node">
<title>Node20</title>
<g id="a_node20"><a xlink:href="classllvm_1_1function__ref.html" target="_top" xlink:title=" ">
<polygon fill="none" stroke="black" points="336.5,-79.96 336.5,-120.96 446.5,-120.96 446.5,-79.96 336.5,-79.96"/>
<text text-anchor="start" x="344.5" y="-108.96" font-family="Helvetica,sans-Serif" font-size="10.00">llvm::function_ref</text>
<text text-anchor="start" x="344.5" y="-97.96" font-family="Helvetica,sans-Serif" font-size="10.00">&lt; llvm::Error(llvm::</text>
<text text-anchor="middle" x="391.5" y="-86.96" font-family="Helvetica,sans-Serif" font-size="10.00">Module *)&gt;</text>
</a>
</g>
</g>
<!-- Node1&#45;&gt;Node20 -->
<g id="edge19" class="edge">
<title>Node1&#45;&gt;Node20</title>
<path fill="none" stroke="orange" stroke-dasharray="5,2" d="M52.13,-560.97C51.41,-471.36 54.15,-173.01 121,-112.46 178.97,-59.96 276,-70.85 336.45,-84.77"/>
<polygon fill="orange" stroke="orange" points="48.63,-561.1 52.23,-571.06 55.63,-561.02 48.63,-561.1"/>
<text text-anchor="start" x="157.5" y="-126.46" font-family="Helvetica,sans-Serif" font-size="10.00"> &lt; llvm::Error(llvm</text>
<text text-anchor="middle" x="203" y="-115.46" font-family="Helvetica,sans-Serif" font-size="10.00">::Module *)&gt;</text>
</g>
<!-- Node21 -->
<g id="node21" class="node">
<title>Node21</title>
<g id="a_node21"><a xlink:href="classllvm_1_1function__ref.html" target="_top" xlink:title=" ">
<polygon fill="none" stroke="black" points="326,-8.46 326,-60.46 457,-60.46 457,-8.46 326,-8.46"/>
<text text-anchor="start" x="334" y="-48.46" font-family="Helvetica,sans-Serif" font-size="10.00">llvm::function_ref</text>
<text text-anchor="start" x="334" y="-37.46" font-family="Helvetica,sans-Serif" font-size="10.00">&lt; Type(Type, ArrayRef</text>
<text text-anchor="start" x="334" y="-26.46" font-family="Helvetica,sans-Serif" font-size="10.00">&lt; Attribute &gt;, ArrayRef</text>
<text text-anchor="middle" x="391.5" y="-15.46" font-family="Helvetica,sans-Serif" font-size="10.00">&lt; Type &gt;)&gt;</text>
</a>
</g>
</g>
<!-- Node1&#45;&gt;Node21 -->
<g id="edge20" class="edge">
<title>Node1&#45;&gt;Node21</title>
<path fill="none" stroke="orange" stroke-dasharray="5,2" d="M53.72,-561.36C58.95,-458.36 81.16,-71.91 121,-36.46 176.05,12.52 265.38,1.99 325.96,-13.37"/>
<polygon fill="orange" stroke="orange" points="50.21,-561.3 53.21,-571.46 57.21,-561.65 50.21,-561.3"/>
<text text-anchor="start" x="145.5" y="-61.46" font-family="Helvetica,sans-Serif" font-size="10.00"> &lt; Type(Type, ArrayRef</text>
<text text-anchor="start" x="145.5" y="-50.46" font-family="Helvetica,sans-Serif" font-size="10.00">&lt; Attribute &gt;, ArrayRef</text>
<text text-anchor="middle" x="203" y="-39.46" font-family="Helvetica,sans-Serif" font-size="10.00">&lt; Type &gt;)&gt;</text>
</g>
</g>
</svg>
