<?xml version="1.0" encoding="UTF-8" standalone="no"?>
<!DOCTYPE svg PUBLIC "-//W3C//DTD SVG 1.1//EN"
 "http://www.w3.org/Graphics/SVG/1.1/DTD/svg11.dtd">
<!-- Generated by graphviz version 2.43.0 (0)
 -->
<!-- Title: mlir::TypeInterface&lt; ConcreteType, Traits &gt; Pages: 1 -->
<svg width="716pt" height="88pt"
 viewBox="0.00 0.00 716.00 88.00" xmlns="http://www.w3.org/2000/svg" xmlns:xlink="http://www.w3.org/1999/xlink">
<g id="graph0" class="graph" transform="scale(1 1) rotate(0) translate(4 84)">
<title>mlir::TypeInterface&lt; ConcreteType, Traits &gt;</title>
<!-- Node1 -->
<g id="node1" class="node">
<title>Node1</title>
<g id="a_node1"><a xlink:title="This class represents the base of a type interface.">
<polygon fill="#bfbfbf" stroke="black" points="571,-31 571,-61 708,-61 708,-31 571,-31"/>
<text text-anchor="start" x="579" y="-49" font-family="Helvetica,sans-Serif" font-size="10.00">mlir::TypeInterface</text>
<text text-anchor="middle" x="639.5" y="-38" font-family="Helvetica,sans-Serif" font-size="10.00">&lt; ConcreteType, Traits &gt;</text>
</a>
</g>
</g>
<!-- Node2 -->
<g id="node2" class="node">
<title>Node2</title>
<g id="a_node2"><a xlink:href="classmlir_1_1detail_1_1Interface.html" target="_top" xlink:title=" ">
<polygon fill="none" stroke="black" points="409,-20 409,-72 534,-72 534,-20 409,-20"/>
<text text-anchor="start" x="417" y="-60" font-family="Helvetica,sans-Serif" font-size="10.00">mlir::detail::Interface</text>
<text text-anchor="start" x="417" y="-49" font-family="Helvetica,sans-Serif" font-size="10.00">&lt; ConcreteType, Type,</text>
<text text-anchor="start" x="417" y="-38" font-family="Helvetica,sans-Serif" font-size="10.00"> Traits, Type, TypeTrait</text>
<text text-anchor="middle" x="471.5" y="-27" font-family="Helvetica,sans-Serif" font-size="10.00">::TraitBase &gt;</text>
</a>
</g>
</g>
<!-- Node2&#45;&gt;Node1 -->
<g id="edge1" class="edge">
<title>Node2&#45;&gt;Node1</title>
<path fill="none" stroke="midnightblue" d="M544.47,-46C553.21,-46 562.11,-46 570.78,-46"/>
<polygon fill="midnightblue" stroke="midnightblue" points="544.31,-42.5 534.31,-46 544.31,-49.5 544.31,-42.5"/>
</g>
<!-- Node3 -->
<g id="node3" class="node">
<title>Node3</title>
<g id="a_node3"><a xlink:href="classmlir_1_1Type.html" target="_top" xlink:title="Instances of the Type class are uniqued, have an immutable identifier and an optional mutable compone...">
<polygon fill="none" stroke="black" points="148,-60.5 148,-79.5 213,-79.5 213,-60.5 148,-60.5"/>
<text text-anchor="middle" x="180.5" y="-67.5" font-family="Helvetica,sans-Serif" font-size="10.00">mlir::Type</text>
</a>
</g>
</g>
<!-- Node3&#45;&gt;Node2 -->
<g id="edge2" class="edge">
<title>Node3&#45;&gt;Node2</title>
<path fill="none" stroke="midnightblue" d="M223.34,-67.92C265.67,-65.66 332.96,-61.58 391,-56 396.82,-55.44 402.86,-54.8 408.91,-54.11"/>
<polygon fill="midnightblue" stroke="midnightblue" points="222.94,-64.44 213.13,-68.46 223.31,-71.43 222.94,-64.44"/>
</g>
<!-- Node4 -->
<g id="node4" class="node">
<title>Node4</title>
<g id="a_node4"><a xlink:href="classmlir_1_1detail_1_1Interface.html" target="_top" xlink:title="This class represents an abstract interface.">
<polygon fill="none" stroke="black" points="100,-0.5 100,-41.5 261,-41.5 261,-0.5 100,-0.5"/>
<text text-anchor="start" x="108" y="-29.5" font-family="Helvetica,sans-Serif" font-size="10.00">mlir::detail::Interface</text>
<text text-anchor="start" x="108" y="-18.5" font-family="Helvetica,sans-Serif" font-size="10.00">&lt; ConcreteType, ValueT,</text>
<text text-anchor="middle" x="180.5" y="-7.5" font-family="Helvetica,sans-Serif" font-size="10.00"> Traits, BaseType, BaseTrait &gt;</text>
</a>
</g>
</g>
<!-- Node4&#45;&gt;Node2 -->
<g id="edge3" class="edge">
<title>Node4&#45;&gt;Node2</title>
<path fill="none" stroke="orange" stroke-dasharray="5,2" d="M271.41,-13.36C308.65,-11.95 352.13,-12.58 391,-19 396.9,-19.97 402.94,-21.33 408.94,-22.92"/>
<polygon fill="orange" stroke="orange" points="270.92,-9.88 261.09,-13.81 271.23,-16.87 270.92,-9.88"/>
<text text-anchor="start" x="279" y="-44" font-family="Helvetica,sans-Serif" font-size="10.00"> &lt; ConcreteType, Type,</text>
<text text-anchor="start" x="279" y="-33" font-family="Helvetica,sans-Serif" font-size="10.00"> Traits, Type, TypeTrait</text>
<text text-anchor="middle" x="335" y="-22" font-family="Helvetica,sans-Serif" font-size="10.00">::TraitBase &gt;</text>
</g>
<!-- Node5 -->
<g id="node5" class="node">
<title>Node5</title>
<g id="a_node5"><a xlink:href="classBaseType.html" target="_top" xlink:title=" ">
<polygon fill="none" stroke="black" points="0,-11.5 0,-30.5 63,-30.5 63,-11.5 0,-11.5"/>
<text text-anchor="middle" x="31.5" y="-18.5" font-family="Helvetica,sans-Serif" font-size="10.00">BaseType</text>
</a>
</g>
</g>
<!-- Node5&#45;&gt;Node4 -->
<g id="edge4" class="edge">
<title>Node5&#45;&gt;Node4</title>
<path fill="none" stroke="midnightblue" d="M73.45,-21C81.78,-21 90.8,-21 99.96,-21"/>
<polygon fill="midnightblue" stroke="midnightblue" points="73.32,-17.5 63.32,-21 73.32,-24.5 73.32,-17.5"/>
</g>
</g>
</svg>
