<?xml version="1.0" encoding="UTF-8" standalone="no"?>
<!DOCTYPE svg PUBLIC "-//W3C//DTD SVG 1.1//EN"
 "http://www.w3.org/Graphics/SVG/1.1/DTD/svg11.dtd">
<!-- Generated by graphviz version 2.43.0 (0)
 -->
<!-- Title: llvm::iterator_range&lt; IteratorT &gt; Pages: 1 -->
<svg width="625pt" height="149pt"
 viewBox="0.00 0.00 625.00 149.00" xmlns="http://www.w3.org/2000/svg" xmlns:xlink="http://www.w3.org/1999/xlink">
<g id="graph0" class="graph" transform="scale(1 1) rotate(0) translate(4 145)">
<title>llvm::iterator_range&lt; IteratorT &gt;</title>
<!-- Node1 -->
<g id="node1" class="node">
<title>Node1</title>
<g id="a_node1"><a xlink:title=" ">
<polygon fill="#bfbfbf" stroke="black" points="0,-55.5 0,-85.5 113,-85.5 113,-55.5 0,-55.5"/>
<text text-anchor="start" x="8" y="-73.5" font-family="Helvetica,sans-Serif" font-size="10.00">llvm::iterator_range</text>
<text text-anchor="middle" x="56.5" y="-62.5" font-family="Helvetica,sans-Serif" font-size="10.00">&lt; IteratorT &gt;</text>
</a>
</g>
</g>
<!-- Node2 -->
<g id="node2" class="node">
<title>Node2</title>
<g id="a_node2"><a xlink:href="classmlir_1_1detail_1_1ElementsAttrRange.html" target="_top" xlink:title="This class provides iterator utilities for an ElementsAttr range.">
<polygon fill="none" stroke="black" points="304.5,-110.5 304.5,-140.5 444.5,-140.5 444.5,-110.5 304.5,-110.5"/>
<text text-anchor="start" x="312.5" y="-128.5" font-family="Helvetica,sans-Serif" font-size="10.00">mlir::detail::ElementsAttr</text>
<text text-anchor="middle" x="374.5" y="-117.5" font-family="Helvetica,sans-Serif" font-size="10.00">Range&lt; IteratorT &gt;</text>
</a>
</g>
</g>
<!-- Node1&#45;&gt;Node2 -->
<g id="edge1" class="edge">
<title>Node1&#45;&gt;Node2</title>
<path fill="none" stroke="midnightblue" d="M104.73,-88.93C113.37,-91.81 122.38,-94.49 131,-96.5 188.6,-109.96 255.43,-117.36 304.33,-121.31"/>
<polygon fill="midnightblue" stroke="midnightblue" points="105.77,-85.58 95.17,-85.62 103.48,-92.2 105.77,-85.58"/>
</g>
<!-- Node3 -->
<g id="node3" class="node">
<title>Node3</title>
<g id="a_node3"><a xlink:href="classllvm_1_1iterator__range.html" target="_top" xlink:title=" ">
<polygon fill="none" stroke="black" points="301,-50 301,-91 448,-91 448,-50 301,-50"/>
<text text-anchor="start" x="309" y="-79" font-family="Helvetica,sans-Serif" font-size="10.00">llvm::iterator_range</text>
<text text-anchor="start" x="309" y="-68" font-family="Helvetica,sans-Serif" font-size="10.00">&lt; ValueTypeIterator&lt;</text>
<text text-anchor="middle" x="374.5" y="-57" font-family="Helvetica,sans-Serif" font-size="10.00"> ValueRangeT::iterator &gt; &gt;</text>
</a>
</g>
</g>
<!-- Node1&#45;&gt;Node3 -->
<g id="edge2" class="edge">
<title>Node1&#45;&gt;Node3</title>
<path fill="none" stroke="orange" stroke-dasharray="5,2" d="M123.34,-70.5C175.15,-70.5 247.26,-70.5 300.76,-70.5"/>
<polygon fill="orange" stroke="orange" points="123.27,-67 113.27,-70.5 123.27,-74 123.27,-67"/>
<text text-anchor="start" x="134.5" y="-84.5" font-family="Helvetica,sans-Serif" font-size="10.00"> &lt; ValueTypeIterator</text>
<text text-anchor="middle" x="204" y="-73.5" font-family="Helvetica,sans-Serif" font-size="10.00">&lt; ValueRangeT::iterator &gt; &gt;</text>
</g>
<!-- Node5 -->
<g id="node5" class="node">
<title>Node5</title>
<g id="a_node5"><a xlink:href="classllvm_1_1iterator__range.html" target="_top" xlink:title=" ">
<polygon fill="none" stroke="black" points="295,-0.5 295,-30.5 454,-30.5 454,-0.5 295,-0.5"/>
<text text-anchor="start" x="303" y="-18.5" font-family="Helvetica,sans-Serif" font-size="10.00">llvm::iterator_range</text>
<text text-anchor="middle" x="374.5" y="-7.5" font-family="Helvetica,sans-Serif" font-size="10.00">&lt; TypeRangeRangeIterator &gt;</text>
</a>
</g>
</g>
<!-- Node1&#45;&gt;Node5 -->
<g id="edge4" class="edge">
<title>Node1&#45;&gt;Node5</title>
<path fill="none" stroke="orange" stroke-dasharray="5,2" d="M123.32,-56.94C125.91,-56.45 128.48,-55.97 131,-55.5 185.55,-45.44 247.23,-35.28 294.74,-27.72"/>
<polygon fill="orange" stroke="orange" points="122.39,-53.56 113.24,-58.89 123.72,-60.43 122.39,-53.56"/>
<text text-anchor="middle" x="204" y="-58.5" font-family="Helvetica,sans-Serif" font-size="10.00"> &lt; TypeRangeRangeIterator &gt;</text>
</g>
<!-- Node4 -->
<g id="node4" class="node">
<title>Node4</title>
<g id="a_node4"><a xlink:href="classmlir_1_1ValueTypeRange.html" target="_top" xlink:title="This class implements iteration on the types of a given range of values.">
<polygon fill="none" stroke="black" points="493,-55.5 493,-85.5 615,-85.5 615,-55.5 493,-55.5"/>
<text text-anchor="start" x="501" y="-73.5" font-family="Helvetica,sans-Serif" font-size="10.00">mlir::ValueTypeRange</text>
<text text-anchor="middle" x="554" y="-62.5" font-family="Helvetica,sans-Serif" font-size="10.00">&lt; ValueRangeT &gt;</text>
</a>
</g>
</g>
<!-- Node3&#45;&gt;Node4 -->
<g id="edge3" class="edge">
<title>Node3&#45;&gt;Node4</title>
<path fill="none" stroke="midnightblue" d="M458.37,-70.5C470,-70.5 481.76,-70.5 492.85,-70.5"/>
<polygon fill="midnightblue" stroke="midnightblue" points="458.21,-67 448.21,-70.5 458.21,-74 458.21,-67"/>
</g>
<!-- Node6 -->
<g id="node6" class="node">
<title>Node6</title>
<g id="a_node6"><a xlink:href="classmlir_1_1TypeRangeRange.html" target="_top" xlink:title="This class provides an abstraction for a range of TypeRange.">
<polygon fill="none" stroke="black" points="491,-6 491,-25 617,-25 617,-6 491,-6"/>
<text text-anchor="middle" x="554" y="-13" font-family="Helvetica,sans-Serif" font-size="10.00">mlir::TypeRangeRange</text>
</a>
</g>
</g>
<!-- Node5&#45;&gt;Node6 -->
<g id="edge5" class="edge">
<title>Node5&#45;&gt;Node6</title>
<path fill="none" stroke="midnightblue" d="M464.29,-15.5C473.3,-15.5 482.31,-15.5 490.95,-15.5"/>
<polygon fill="midnightblue" stroke="midnightblue" points="464.13,-12 454.13,-15.5 464.13,-19 464.13,-12"/>
</g>
</g>
</svg>
