<?xml version="1.0" encoding="UTF-8" standalone="no"?>
<!DOCTYPE svg PUBLIC "-//W3C//DTD SVG 1.1//EN"
 "http://www.w3.org/Graphics/SVG/1.1/DTD/svg11.dtd">
<!-- Generated by graphviz version 2.43.0 (0)
 -->
<!-- Title: mlir::pdll::ast::UserRewriteDecl Pages: 1 -->
<svg width="808pt" height="120pt"
 viewBox="0.00 0.00 808.00 120.00" xmlns="http://www.w3.org/2000/svg" xmlns:xlink="http://www.w3.org/1999/xlink">
<g id="graph0" class="graph" transform="scale(1 1) rotate(0) translate(4 116)">
<title>mlir::pdll::ast::UserRewriteDecl</title>
<!-- Node1 -->
<g id="Node000001" class="node">
<title>Node1</title>
<g id="a_Node000001"><a xlink:title="This decl represents a user defined rewrite.">
<polygon fill="#999999" stroke="#666666" points="800,-42 631,-42 631,-23 800,-23 800,-42"/>
<text text-anchor="middle" x="715.5" y="-30" font-family="Helvetica,sans-Serif" font-size="10.00">mlir::pdll::ast::UserRewriteDecl</text>
</a>
</g>
</g>
<!-- Node2 -->
<g id="Node000002" class="node">
<title>Node2</title>
<g id="a_Node000002"><a xlink:href="classmlir_1_1pdll_1_1ast_1_1Node_1_1NodeBase.html" target="_top" xlink:title=" ">
<polygon fill="white" stroke="#666666" points="594,-100 426,-100 426,-59 594,-59 594,-100"/>
<text text-anchor="start" x="434" y="-88" font-family="Helvetica,sans-Serif" font-size="10.00">mlir::pdll::ast::Node</text>
<text text-anchor="start" x="434" y="-77" font-family="Helvetica,sans-Serif" font-size="10.00">::NodeBase&lt; UserRewriteDecl,</text>
<text text-anchor="middle" x="510" y="-66" font-family="Helvetica,sans-Serif" font-size="10.00"> Decl &gt;</text>
</a>
</g>
</g>
<!-- Node2&#45;&gt;Node1 -->
<g id="edge1_Node000001_Node000002" class="edge">
<title>Node2&#45;&gt;Node1</title>
<g id="a_edge1_Node000001_Node000002"><a xlink:title=" ">
<path fill="none" stroke="#63b8ff" d="M604.03,-58.01C628.28,-52.41 653.19,-46.66 673.2,-42.04"/>
<polygon fill="#63b8ff" stroke="#63b8ff" points="603.02,-54.65 594.06,-60.32 604.6,-61.48 603.02,-54.65"/>
</a>
</g>
</g>
<!-- Node3 -->
<g id="Node000003" class="node">
<title>Node3</title>
<g id="a_Node000003"><a xlink:href="classmlir_1_1pdll_1_1ast_1_1Decl.html" target="_top" xlink:title="This class represents the base Decl node.">
<polygon fill="white" stroke="#666666" points="273,-112 164,-112 164,-93 273,-93 273,-112"/>
<text text-anchor="middle" x="218.5" y="-100" font-family="Helvetica,sans-Serif" font-size="10.00">mlir::pdll::ast::Decl</text>
</a>
</g>
</g>
<!-- Node3&#45;&gt;Node2 -->
<g id="edge2_Node000002_Node000003" class="edge">
<title>Node3&#45;&gt;Node2</title>
<g id="a_edge2_Node000002_Node000003"><a xlink:title=" ">
<path fill="none" stroke="#63b8ff" d="M283.17,-98.01C319.71,-95.37 366.44,-91.89 408,-88.5 413.79,-88.03 419.77,-87.53 425.78,-87.01"/>
<polygon fill="#63b8ff" stroke="#63b8ff" points="282.87,-94.52 273.14,-98.73 283.37,-101.5 282.87,-94.52"/>
</a>
</g>
</g>
<!-- Node4 -->
<g id="Node000004" class="node">
<title>Node4</title>
<g id="a_Node000004"><a xlink:href="classmlir_1_1pdll_1_1ast_1_1Node.html" target="_top" xlink:title="This class represents a base AST node.">
<polygon fill="white" stroke="#666666" points="113,-112 0,-112 0,-93 113,-93 113,-112"/>
<text text-anchor="middle" x="56.5" y="-100" font-family="Helvetica,sans-Serif" font-size="10.00">mlir::pdll::ast::Node</text>
</a>
</g>
</g>
<!-- Node4&#45;&gt;Node3 -->
<g id="edge3_Node000003_Node000004" class="edge">
<title>Node4&#45;&gt;Node3</title>
<g id="a_edge3_Node000003_Node000004"><a xlink:title=" ">
<path fill="none" stroke="#63b8ff" d="M123.24,-102.5C136.8,-102.5 150.92,-102.5 163.97,-102.5"/>
<polygon fill="#63b8ff" stroke="#63b8ff" points="123.01,-99 113.01,-102.5 123.01,-106 123.01,-99"/>
</a>
</g>
</g>
<!-- Node5 -->
<g id="Node000005" class="node">
<title>Node5</title>
<g id="a_Node000005"><a xlink:href="classmlir_1_1pdll_1_1ast_1_1Node_1_1NodeBase.html" target="_top" xlink:title="This CRTP class provides several utilies when defining new AST nodes.">
<polygon fill="white" stroke="#666666" points="287,-70.5 150,-70.5 150,-40.5 287,-40.5 287,-70.5"/>
<text text-anchor="start" x="158" y="-58.5" font-family="Helvetica,sans-Serif" font-size="10.00">mlir::pdll::ast::Node</text>
<text text-anchor="middle" x="218.5" y="-47.5" font-family="Helvetica,sans-Serif" font-size="10.00">::NodeBase&lt; T, BaseT &gt;</text>
</a>
</g>
</g>
<!-- Node5&#45;&gt;Node2 -->
<g id="edge4_Node000002_Node000005" class="edge">
<title>Node5&#45;&gt;Node2</title>
<g id="a_edge4_Node000002_Node000005"><a xlink:title=" ">
<path fill="none" stroke="orange" stroke-dasharray="5,2" d="M297.29,-52.65C299.89,-52.6 302.47,-52.54 305,-52.5 350.77,-51.7 362.61,-46.54 408,-52.5 419.07,-53.95 430.65,-56.27 441.85,-58.94"/>
<polygon fill="orange" stroke="orange" points="297.08,-49.16 287.17,-52.91 297.25,-56.16 297.08,-49.16"/>
</a>
</g>
<text text-anchor="start" x="308.5" y="-73.5" font-family="Helvetica,sans-Serif" font-size="10.00" fill="grey">&lt; UserRewriteDecl,</text>
<text text-anchor="start" x="308.5" y="-58.5" font-family="Helvetica,sans-Serif" font-size="10.00" fill="grey">   Decl &gt;</text>
</g>
<!-- Node6 -->
<g id="Node000006" class="node">
<title>Node6</title>
<g id="a_Node000006"><a xlink:title=" ">
<polygon fill="white" stroke="#666666" points="80,-65 33,-65 33,-46 80,-46 80,-65"/>
<text text-anchor="middle" x="56.5" y="-53" font-family="Helvetica,sans-Serif" font-size="10.00">BaseT</text>
</a>
</g>
</g>
<!-- Node6&#45;&gt;Node5 -->
<g id="edge5_Node000005_Node000006" class="edge">
<title>Node6&#45;&gt;Node5</title>
<g id="a_edge5_Node000005_Node000006"><a xlink:title=" ">
<path fill="none" stroke="#63b8ff" d="M90.15,-55.5C107.33,-55.5 129.08,-55.5 149.71,-55.5"/>
<polygon fill="#63b8ff" stroke="#63b8ff" points="90.08,-52 80.08,-55.5 90.08,-59 90.08,-52"/>
</a>
</g>
</g>
<!-- Node7 -->
<g id="Node000007" class="node">
<title>Node7</title>
<g id="a_Node000007"><a xlink:title=" ">
<polygon fill="white" stroke="#666666" points="587.5,-41 432.5,-41 432.5,0 587.5,0 587.5,-41"/>
<text text-anchor="start" x="440.5" y="-29" font-family="Helvetica,sans-Serif" font-size="10.00">llvm::TrailingObjects</text>
<text text-anchor="start" x="440.5" y="-18" font-family="Helvetica,sans-Serif" font-size="10.00">&lt; UserRewriteDecl, Variable</text>
<text text-anchor="middle" x="510" y="-7" font-family="Helvetica,sans-Serif" font-size="10.00">Decl * &gt;</text>
</a>
</g>
</g>
<!-- Node7&#45;&gt;Node1 -->
<g id="edge6_Node000001_Node000007" class="edge">
<title>Node7&#45;&gt;Node1</title>
<g id="a_edge6_Node000001_Node000007"><a xlink:title=" ">
<path fill="none" stroke="#8b1a1a" d="M597.64,-25.61C608.62,-26.26 619.84,-26.92 630.77,-27.56"/>
<polygon fill="#8b1a1a" stroke="#8b1a1a" points="597.83,-22.11 587.64,-25.02 597.42,-29.1 597.83,-22.11"/>
</a>
</g>
</g>
</g>
</svg>
