<?xml version="1.0" encoding="UTF-8" standalone="no"?>
<!DOCTYPE svg PUBLIC "-//W3C//DTD SVG 1.1//EN"
 "http://www.w3.org/Graphics/SVG/1.1/DTD/svg11.dtd">
<!-- Generated by graphviz version 2.43.0 (0)
 -->
<!-- Title: mlir::BaseMemRefType Pages: 1 -->
<svg width="328pt" height="124pt"
 viewBox="0.00 0.00 328.00 123.50" xmlns="http://www.w3.org/2000/svg" xmlns:xlink="http://www.w3.org/1999/xlink">
<g id="graph0" class="graph" transform="scale(1 1) rotate(0) translate(4 119.5)">
<title>mlir::BaseMemRefType</title>
<!-- Node1 -->
<g id="Node000001" class="node">
<title>Node1</title>
<g id="a_Node000001"><a xlink:title="This class provides a shared interface for ranked and unranked memref types.">
<polygon fill="#999999" stroke="#666666" points="320,-72.5 190,-72.5 190,-53.5 320,-53.5 320,-72.5"/>
<text text-anchor="middle" x="255" y="-60.5" font-family="Helvetica,sans-Serif" font-size="10.00">mlir::BaseMemRefType</text>
</a>
</g>
</g>
<!-- Node2 -->
<g id="Node000002" class="node">
<title>Node2</title>
<g id="a_Node000002"><a xlink:href="classmlir_1_1Type.html" target="_top" xlink:title="Instances of the Type class are uniqued, have an immutable identifier and an optional mutable compone...">
<polygon fill="white" stroke="#666666" points="109.5,-115.5 44.5,-115.5 44.5,-96.5 109.5,-96.5 109.5,-115.5"/>
<text text-anchor="middle" x="77" y="-103.5" font-family="Helvetica,sans-Serif" font-size="10.00">mlir::Type</text>
</a>
</g>
</g>
<!-- Node2&#45;&gt;Node1 -->
<g id="edge1_Node000001_Node000002" class="edge">
<title>Node2&#45;&gt;Node1</title>
<g id="a_edge1_Node000001_Node000002"><a xlink:title=" ">
<path fill="none" stroke="#63b8ff" d="M119.66,-95.82C148.53,-88.77 186.71,-79.44 214.98,-72.53"/>
<polygon fill="#63b8ff" stroke="#63b8ff" points="118.76,-92.44 109.87,-98.21 120.42,-99.24 118.76,-92.44"/>
</a>
</g>
</g>
<!-- Node3 -->
<g id="Node000003" class="node">
<title>Node3</title>
<g id="a_Node000003"><a xlink:title=" ">
<polygon fill="white" stroke="#666666" points="154,-78 0,-78 0,-48 154,-48 154,-78"/>
<text text-anchor="start" x="8" y="-66" font-family="Helvetica,sans-Serif" font-size="10.00">PtrLikeTypeInterface</text>
<text text-anchor="middle" x="77" y="-55" font-family="Helvetica,sans-Serif" font-size="10.00">::Trait&lt; BaseMemRefType &gt;</text>
</a>
</g>
</g>
<!-- Node3&#45;&gt;Node1 -->
<g id="edge2_Node000001_Node000003" class="edge">
<title>Node3&#45;&gt;Node1</title>
<g id="a_edge2_Node000001_Node000003"><a xlink:title=" ">
<path fill="none" stroke="#63b8ff" d="M164.26,-63C172.87,-63 181.51,-63 189.84,-63"/>
<polygon fill="#63b8ff" stroke="#63b8ff" points="164.17,-59.5 154.17,-63 164.17,-66.5 164.17,-59.5"/>
</a>
</g>
</g>
<!-- Node4 -->
<g id="Node000004" class="node">
<title>Node4</title>
<g id="a_Node000004"><a xlink:title=" ">
<polygon fill="white" stroke="#666666" points="136.5,-30 17.5,-30 17.5,0 136.5,0 136.5,-30"/>
<text text-anchor="start" x="25.5" y="-18" font-family="Helvetica,sans-Serif" font-size="10.00">ShapedType::Trait&lt;</text>
<text text-anchor="middle" x="77" y="-7" font-family="Helvetica,sans-Serif" font-size="10.00"> BaseMemRefType &gt;</text>
</a>
</g>
</g>
<!-- Node4&#45;&gt;Node1 -->
<g id="edge3_Node000001_Node000004" class="edge">
<title>Node4&#45;&gt;Node1</title>
<g id="a_edge3_Node000001_Node000004"><a xlink:title=" ">
<path fill="none" stroke="#63b8ff" d="M142.91,-32.7C168.64,-39.72 197.21,-47.51 218.93,-53.44"/>
<polygon fill="#63b8ff" stroke="#63b8ff" points="143.77,-29.31 133.2,-30.06 141.93,-36.06 143.77,-29.31"/>
</a>
</g>
</g>
</g>
</svg>
