<?xml version="1.0" encoding="UTF-8" standalone="no"?>
<!DOCTYPE svg PUBLIC "-//W3C//DTD SVG 1.1//EN"
 "http://www.w3.org/Graphics/SVG/1.1/DTD/svg11.dtd">
<!-- Generated by graphviz version 2.43.0 (0)
 -->
<!-- Title: mlir::spirv::impl::SPIRVLowerABIAttributesPassBase&lt; DerivedT &gt; Pages: 1 -->
<svg width="237pt" height="255pt"
 viewBox="0.00 0.00 236.50 255.00" xmlns="http://www.w3.org/2000/svg" xmlns:xlink="http://www.w3.org/1999/xlink">
<g id="graph0" class="graph" transform="scale(1 1) rotate(0) translate(4 251)">
<title>mlir::spirv::impl::SPIRVLowerABIAttributesPassBase&lt; DerivedT &gt;</title>
<!-- Node1 -->
<g id="Node000001" class="node">
<title>Node1</title>
<g id="a_Node000001"><a xlink:title=" ">
<polygon fill="#999999" stroke="#666666" points="161,-41 0,-41 0,0 161,0 161,-41"/>
<text text-anchor="start" x="8" y="-29" font-family="Helvetica,sans-Serif" font-size="10.00">mlir::spirv::impl::</text>
<text text-anchor="start" x="8" y="-18" font-family="Helvetica,sans-Serif" font-size="10.00">SPIRVLowerABIAttributesPass</text>
<text text-anchor="middle" x="80.5" y="-7" font-family="Helvetica,sans-Serif" font-size="10.00">Base&lt; DerivedT &gt;</text>
</a>
</g>
</g>
<!-- Node2 -->
<g id="Node000002" class="node">
<title>Node2</title>
<g id="a_Node000002"><a xlink:href="classmlir_1_1OperationPass.html" target="_top" xlink:title=" ">
<polygon fill="white" stroke="#666666" points="139.5,-108 21.5,-108 21.5,-78 139.5,-78 139.5,-108"/>
<text text-anchor="start" x="29.5" y="-96" font-family="Helvetica,sans-Serif" font-size="10.00">mlir::OperationPass</text>
<text text-anchor="middle" x="80.5" y="-85" font-family="Helvetica,sans-Serif" font-size="10.00">&lt; spirv::ModuleOp &gt;</text>
</a>
</g>
</g>
<!-- Node2&#45;&gt;Node1 -->
<g id="edge1_Node000001_Node000002" class="edge">
<title>Node2&#45;&gt;Node1</title>
<g id="a_edge1_Node000001_Node000002"><a xlink:title=" ">
<path fill="none" stroke="#63b8ff" d="M80.5,-67.48C80.5,-58.85 80.5,-49.26 80.5,-41.09"/>
<polygon fill="#63b8ff" stroke="#63b8ff" points="77,-67.73 80.5,-77.73 84,-67.73 77,-67.73"/>
</a>
</g>
</g>
<!-- Node3 -->
<g id="Node000003" class="node">
<title>Node3</title>
<g id="a_Node000003"><a xlink:href="classmlir_1_1Pass.html" target="_top" xlink:title="The abstract base pass class.">
<polygon fill="white" stroke="#666666" points="108.5,-247 44.5,-247 44.5,-228 108.5,-228 108.5,-247"/>
<text text-anchor="middle" x="76.5" y="-235" font-family="Helvetica,sans-Serif" font-size="10.00">mlir::Pass</text>
</a>
</g>
</g>
<!-- Node3&#45;&gt;Node2 -->
<g id="edge2_Node000002_Node000003" class="edge">
<title>Node3&#45;&gt;Node2</title>
<g id="a_edge2_Node000002_Node000003"><a xlink:title=" ">
<path fill="none" stroke="#63b8ff" d="M77.03,-217.54C77.85,-188.58 79.38,-133.99 80.1,-108.19"/>
<polygon fill="#63b8ff" stroke="#63b8ff" points="73.53,-217.49 76.75,-227.59 80.53,-217.69 73.53,-217.49"/>
</a>
</g>
</g>
<!-- Node4 -->
<g id="Node000004" class="node">
<title>Node4</title>
<g id="a_Node000004"><a xlink:href="classmlir_1_1OperationPass.html" target="_top" xlink:title="Pass to transform an operation of a specific type.">
<polygon fill="white" stroke="#666666" points="204.5,-191 92.5,-191 92.5,-161 204.5,-161 204.5,-191"/>
<text text-anchor="start" x="100.5" y="-179" font-family="Helvetica,sans-Serif" font-size="10.00">mlir::OperationPass</text>
<text text-anchor="middle" x="148.5" y="-168" font-family="Helvetica,sans-Serif" font-size="10.00">&lt; OpT &gt;</text>
</a>
</g>
</g>
<!-- Node3&#45;&gt;Node4 -->
<g id="edge4_Node000004_Node000003" class="edge">
<title>Node3&#45;&gt;Node4</title>
<g id="a_edge4_Node000004_Node000003"><a xlink:title=" ">
<path fill="none" stroke="#63b8ff" d="M94.75,-221.42C106.05,-212.08 120.47,-200.16 131.53,-191.02"/>
<polygon fill="#63b8ff" stroke="#63b8ff" points="92.29,-218.91 86.82,-227.98 96.75,-224.3 92.29,-218.91"/>
</a>
</g>
</g>
<!-- Node4&#45;&gt;Node2 -->
<g id="edge3_Node000002_Node000004" class="edge">
<title>Node4&#45;&gt;Node2</title>
<g id="a_edge3_Node000002_Node000004"><a xlink:title=" ">
<path fill="none" stroke="orange" stroke-dasharray="5,2" d="M130.05,-153.02C118.08,-138.76 102.84,-120.61 92.44,-108.22"/>
<polygon fill="orange" stroke="orange" points="127.54,-155.48 136.66,-160.89 132.91,-150.98 127.54,-155.48"/>
</a>
</g>
<text text-anchor="start" x="123.5" y="-131.5" font-family="Helvetica,sans-Serif" font-size="10.00" fill="grey">&lt; spirv::ModuleOp &gt;</text>
</g>
</g>
</svg>
