<?xml version="1.0" encoding="UTF-8" standalone="no"?>
<!DOCTYPE svg PUBLIC "-//W3C//DTD SVG 1.1//EN"
 "http://www.w3.org/Graphics/SVG/1.1/DTD/svg11.dtd">
<!-- Generated by graphviz version 2.43.0 (0)
 -->
<!-- Title: mlir::pdll::ods::Constraint Pages: 1 -->
<svg width="320pt" height="95pt"
 viewBox="0.00 0.00 320.00 95.00" xmlns="http://www.w3.org/2000/svg" xmlns:xlink="http://www.w3.org/1999/xlink">
<g id="graph0" class="graph" transform="scale(1 1) rotate(0) translate(4 91)">
<title>mlir::pdll::ods::Constraint</title>
<!-- Node1 -->
<g id="node1" class="node">
<title>Node1</title>
<g id="a_node1"><a xlink:title="This class represents a generic ODS constraint.">
<polygon fill="#bfbfbf" stroke="black" points="78,-67.5 78,-86.5 218,-86.5 218,-67.5 78,-67.5"/>
<text text-anchor="middle" x="148" y="-74.5" font-family="Helvetica,sans-Serif" font-size="10.00">mlir::pdll::ods::Constraint</text>
</a>
</g>
</g>
<!-- Node2 -->
<g id="node2" class="node">
<title>Node2</title>
<g id="a_node2"><a xlink:href="classmlir_1_1pdll_1_1ods_1_1AttributeConstraint.html" target="_top" xlink:title="This class represents a generic ODS Attribute constraint.">
<polygon fill="none" stroke="black" points="0,-0.5 0,-30.5 132,-30.5 132,-0.5 0,-0.5"/>
<text text-anchor="start" x="8" y="-18.5" font-family="Helvetica,sans-Serif" font-size="10.00">mlir::pdll::ods::Attribute</text>
<text text-anchor="middle" x="66" y="-7.5" font-family="Helvetica,sans-Serif" font-size="10.00">Constraint</text>
</a>
</g>
</g>
<!-- Node1&#45;&gt;Node2 -->
<g id="edge1" class="edge">
<title>Node1&#45;&gt;Node2</title>
<path fill="none" stroke="midnightblue" d="M127.97,-61.47C114.99,-52.05 98.17,-39.84 85.33,-30.52"/>
<polygon fill="midnightblue" stroke="midnightblue" points="126.1,-64.43 136.25,-67.48 130.21,-58.77 126.1,-64.43"/>
</g>
<!-- Node3 -->
<g id="node3" class="node">
<title>Node3</title>
<g id="a_node3"><a xlink:href="classmlir_1_1pdll_1_1ods_1_1TypeConstraint.html" target="_top" xlink:title="This class represents a generic ODS Type constraint.">
<polygon fill="none" stroke="black" points="150,-6 150,-25 312,-25 312,-6 150,-6"/>
<text text-anchor="middle" x="231" y="-13" font-family="Helvetica,sans-Serif" font-size="10.00">mlir::pdll::ods::TypeConstraint</text>
</a>
</g>
</g>
<!-- Node1&#45;&gt;Node3 -->
<g id="edge2" class="edge">
<title>Node1&#45;&gt;Node3</title>
<path fill="none" stroke="midnightblue" d="M168.07,-61.61C184.03,-50.17 205.83,-34.55 219.13,-25.01"/>
<polygon fill="midnightblue" stroke="midnightblue" points="165.98,-58.8 159.89,-67.48 170.06,-64.49 165.98,-58.8"/>
</g>
</g>
</svg>
