<?xml version="1.0" encoding="UTF-8" standalone="no"?>
<!DOCTYPE svg PUBLIC "-//W3C//DTD SVG 1.1//EN"
 "http://www.w3.org/Graphics/SVG/1.1/DTD/svg11.dtd">
<!-- Generated by graphviz version 2.43.0 (0)
 -->
<!-- Title: mlir::polynomial::IntMonomial Pages: 1 -->
<svg width="218pt" height="174pt"
 viewBox="0.00 0.00 218.00 174.00" xmlns="http://www.w3.org/2000/svg" xmlns:xlink="http://www.w3.org/1999/xlink">
<g id="graph0" class="graph" transform="scale(1 1) rotate(0) translate(4 170)">
<title>mlir::polynomial::IntMonomial</title>
<!-- Node1 -->
<g id="node1" class="node">
<title>Node1</title>
<g id="a_node1"><a xlink:title="A class representing a monomial of a single&#45;variable polynomial with integer coefficients.">
<polygon fill="#bfbfbf" stroke="black" points="9,-0.5 9,-19.5 173,-19.5 173,-0.5 9,-0.5"/>
<text text-anchor="middle" x="91" y="-7.5" font-family="Helvetica,sans-Serif" font-size="10.00">mlir::polynomial::IntMonomial</text>
</a>
</g>
</g>
<!-- Node2 -->
<g id="node2" class="node">
<title>Node2</title>
<g id="a_node2"><a xlink:href="classmlir_1_1polynomial_1_1MonomialBase.html" target="_top" xlink:title=" ">
<polygon fill="none" stroke="black" points="13,-57.5 13,-87.5 169,-87.5 169,-57.5 13,-57.5"/>
<text text-anchor="start" x="21" y="-75.5" font-family="Helvetica,sans-Serif" font-size="10.00">mlir::polynomial::Monomial</text>
<text text-anchor="middle" x="91" y="-64.5" font-family="Helvetica,sans-Serif" font-size="10.00">Base&lt; IntMonomial, APInt &gt;</text>
</a>
</g>
</g>
<!-- Node2&#45;&gt;Node1 -->
<g id="edge1" class="edge">
<title>Node2&#45;&gt;Node1</title>
<path fill="none" stroke="midnightblue" d="M91,-47.35C91,-37.51 91,-26.78 91,-19.54"/>
<polygon fill="midnightblue" stroke="midnightblue" points="87.5,-47.47 91,-57.47 94.5,-47.47 87.5,-47.47"/>
</g>
<!-- Node3 -->
<g id="node3" class="node">
<title>Node3</title>
<g id="a_node3"><a xlink:href="classmlir_1_1polynomial_1_1MonomialBase.html" target="_top" xlink:title=" ">
<polygon fill="none" stroke="black" points="0,-135.5 0,-165.5 182,-165.5 182,-135.5 0,-135.5"/>
<text text-anchor="start" x="8" y="-153.5" font-family="Helvetica,sans-Serif" font-size="10.00">mlir::polynomial::Monomial</text>
<text text-anchor="middle" x="91" y="-142.5" font-family="Helvetica,sans-Serif" font-size="10.00">Base&lt; Derived, CoefficientType &gt;</text>
</a>
</g>
</g>
<!-- Node3&#45;&gt;Node2 -->
<g id="edge2" class="edge">
<title>Node3&#45;&gt;Node2</title>
<path fill="none" stroke="orange" stroke-dasharray="5,2" d="M91,-125.09C91,-112.76 91,-98.22 91,-87.73"/>
<polygon fill="orange" stroke="orange" points="87.5,-125.2 91,-135.2 94.5,-125.21 87.5,-125.2"/>
<text text-anchor="middle" x="150.5" y="-109" font-family="Helvetica,sans-Serif" font-size="10.00"> &lt; IntMonomial, APInt &gt;</text>
</g>
</g>
</svg>
