<?xml version="1.0" encoding="UTF-8" standalone="no"?>
<!DOCTYPE svg PUBLIC "-//W3C//DTD SVG 1.1//EN"
 "http://www.w3.org/Graphics/SVG/1.1/DTD/svg11.dtd">
<!-- Generated by graphviz version 2.43.0 (0)
 -->
<!-- Title: mlir::OpTrait::TokenProducerTrait&lt; ConcreteType &gt; Pages: 1 -->
<svg width="270pt" height="203pt"
 viewBox="0.00 0.00 269.50 203.00" xmlns="http://www.w3.org/2000/svg" xmlns:xlink="http://www.w3.org/1999/xlink">
<g id="graph0" class="graph" transform="scale(1 1) rotate(0) translate(4 199)">
<title>mlir::OpTrait::TokenProducerTrait&lt; ConcreteType &gt;</title>
<!-- Node1 -->
<g id="Node000001" class="node">
<title>Node1</title>
<g id="a_Node000001"><a xlink:title="This trait marks operations that are allowed to produce builtin token values.">
<polygon fill="#999999" stroke="#666666" points="178,-30 25,-30 25,0 178,0 178,-30"/>
<text text-anchor="start" x="33" y="-18" font-family="Helvetica,sans-Serif" font-size="10.00">mlir::OpTrait::TokenProducer</text>
<text text-anchor="middle" x="101.5" y="-7" font-family="Helvetica,sans-Serif" font-size="10.00">Trait&lt; ConcreteType &gt;</text>
</a>
</g>
</g>
<!-- Node2 -->
<g id="Node000002" class="node">
<title>Node2</title>
<g id="a_Node000002"><a xlink:href="classmlir_1_1OpTrait_1_1TraitBase.html" target="_top" xlink:title=" ">
<polygon fill="white" stroke="#666666" points="203,-97 0,-97 0,-67 203,-67 203,-97"/>
<text text-anchor="start" x="8" y="-85" font-family="Helvetica,sans-Serif" font-size="10.00">mlir::OpTrait::TraitBase</text>
<text text-anchor="middle" x="101.5" y="-74" font-family="Helvetica,sans-Serif" font-size="10.00">&lt; ConcreteType, TokenProducerTrait &gt;</text>
</a>
</g>
</g>
<!-- Node2&#45;&gt;Node1 -->
<g id="edge1_Node000001_Node000002" class="edge">
<title>Node2&#45;&gt;Node1</title>
<g id="a_edge1_Node000001_Node000002"><a xlink:title=" ">
<path fill="none" stroke="#63b8ff" d="M101.5,-56.61C101.5,-47.65 101.5,-37.82 101.5,-30.08"/>
<polygon fill="#63b8ff" stroke="#63b8ff" points="98,-56.9 101.5,-66.9 105,-56.9 98,-56.9"/>
</a>
</g>
</g>
<!-- Node3 -->
<g id="Node000003" class="node">
<title>Node3</title>
<g id="a_Node000003"><a xlink:href="classmlir_1_1OpTrait_1_1TraitBase.html" target="_top" xlink:title="Helper class for implementing traits.">
<polygon fill="white" stroke="#666666" points="179,-195 24,-195 24,-165 179,-165 179,-195"/>
<text text-anchor="start" x="32" y="-183" font-family="Helvetica,sans-Serif" font-size="10.00">mlir::OpTrait::TraitBase</text>
<text text-anchor="middle" x="101.5" y="-172" font-family="Helvetica,sans-Serif" font-size="10.00">&lt; ConcreteType, TraitType &gt;</text>
</a>
</g>
</g>
<!-- Node3&#45;&gt;Node2 -->
<g id="edge2_Node000002_Node000003" class="edge">
<title>Node3&#45;&gt;Node2</title>
<g id="a_edge2_Node000002_Node000003"><a xlink:title=" ">
<path fill="none" stroke="orange" stroke-dasharray="5,2" d="M101.5,-154.7C101.5,-136.55 101.5,-112.35 101.5,-97.22"/>
<polygon fill="orange" stroke="orange" points="98,-154.83 101.5,-164.83 105,-154.83 98,-154.83"/>
</a>
</g>
<text text-anchor="start" x="104.5" y="-136" font-family="Helvetica,sans-Serif" font-size="10.00" fill="grey">&lt; ConcreteType, TokenProducer</text>
<text text-anchor="start" x="104.5" y="-121" font-family="Helvetica,sans-Serif" font-size="10.00" fill="grey">  Trait &gt;</text>
</g>
</g>
</svg>
