<?xml version="1.0" encoding="UTF-8" standalone="no"?>
<!DOCTYPE svg PUBLIC "-//W3C//DTD SVG 1.1//EN"
 "http://www.w3.org/Graphics/SVG/1.1/DTD/svg11.dtd">
<!-- Generated by graphviz version 2.43.0 (0)
 -->
<!-- Title: mlir::spirv::ImageType Pages: 1 -->
<svg width="222pt" height="151pt"
 viewBox="0.00 0.00 221.50 151.00" xmlns="http://www.w3.org/2000/svg" xmlns:xlink="http://www.w3.org/1999/xlink">
<g id="graph0" class="graph" transform="scale(1 1) rotate(0) translate(4 147)">
<title>mlir::spirv::ImageType</title>
<!-- Node1 -->
<g id="node1" class="node">
<title>Node1</title>
<g id="a_node1"><a xlink:title=" ">
<polygon fill="#bfbfbf" stroke="black" points="43.5,-0.5 43.5,-19.5 168.5,-19.5 168.5,-0.5 43.5,-0.5"/>
<text text-anchor="middle" x="106" y="-7.5" font-family="Helvetica,sans-Serif" font-size="10.00">mlir::spirv::ImageType</text>
</a>
</g>
</g>
<!-- Node2 -->
<g id="node2" class="node">
<title>Node2</title>
<g id="a_node2"><a xlink:href="classmlir_1_1detail_1_1StorageUserBase.html" target="_top" xlink:title="Utility class for implementing users of storage classes uniqued by a StorageUniquer.">
<polygon fill="none" stroke="black" points="0,-56.5 0,-86.5 212,-86.5 212,-56.5 0,-56.5"/>
<text text-anchor="start" x="8" y="-74.5" font-family="Helvetica,sans-Serif" font-size="10.00">Type::TypeBase&lt; ImageType,</text>
<text text-anchor="middle" x="106" y="-63.5" font-family="Helvetica,sans-Serif" font-size="10.00"> SPIRVType, detail::ImageTypeStorage &gt;</text>
</a>
</g>
</g>
<!-- Node2&#45;&gt;Node1 -->
<g id="edge1" class="edge">
<title>Node2&#45;&gt;Node1</title>
<path fill="none" stroke="midnightblue" d="M106,-46.29C106,-36.86 106,-26.65 106,-19.66"/>
<polygon fill="midnightblue" stroke="midnightblue" points="102.5,-46.4 106,-56.4 109.5,-46.4 102.5,-46.4"/>
</g>
<!-- Node3 -->
<g id="node3" class="node">
<title>Node3</title>
<g id="a_node3"><a xlink:href="classBaseT.html" target="_top" xlink:title=" ">
<polygon fill="none" stroke="black" points="33.5,-123.5 33.5,-142.5 80.5,-142.5 80.5,-123.5 33.5,-123.5"/>
<text text-anchor="middle" x="57" y="-130.5" font-family="Helvetica,sans-Serif" font-size="10.00">BaseT</text>
</a>
</g>
</g>
<!-- Node3&#45;&gt;Node2 -->
<g id="edge2" class="edge">
<title>Node3&#45;&gt;Node2</title>
<path fill="none" stroke="midnightblue" d="M70.56,-115.53C78.07,-106.42 87.29,-95.21 94.45,-86.52"/>
<polygon fill="midnightblue" stroke="midnightblue" points="67.68,-113.53 64.02,-123.48 73.08,-117.98 67.68,-113.53"/>
</g>
<!-- Node4 -->
<g id="node4" class="node">
<title>Node4</title>
<g id="a_node4"><a xlink:title=" ">
<polygon fill="none" stroke="#bfbfbf" points="98.5,-123.5 98.5,-142.5 213.5,-142.5 213.5,-123.5 98.5,-123.5"/>
<text text-anchor="middle" x="156" y="-130.5" font-family="Helvetica,sans-Serif" font-size="10.00">Traits&lt; ConcreteT &gt;</text>
</a>
</g>
</g>
<!-- Node4&#45;&gt;Node2 -->
<g id="edge3" class="edge">
<title>Node4&#45;&gt;Node2</title>
<path fill="none" stroke="midnightblue" d="M142.4,-115.81C134.7,-106.65 125.16,-95.3 117.78,-86.52"/>
<polygon fill="midnightblue" stroke="midnightblue" points="139.72,-118.07 148.84,-123.48 145.08,-113.57 139.72,-118.07"/>
</g>
</g>
</svg>
