<?xml version="1.0" encoding="UTF-8" standalone="no"?>
<!DOCTYPE svg PUBLIC "-//W3C//DTD SVG 1.1//EN"
 "http://www.w3.org/Graphics/SVG/1.1/DTD/svg11.dtd">
<!-- Generated by graphviz version 2.43.0 (0)
 -->
<!-- Title: mlir::python::PyConcreteOpInterface&lt; ConcreteIface &gt; Pages: 1 -->
<svg width="783pt" height="100pt"
 viewBox="0.00 0.00 783.00 99.50" xmlns="http://www.w3.org/2000/svg" xmlns:xlink="http://www.w3.org/1999/xlink">
<g id="graph0" class="graph" transform="scale(1 1) rotate(0) translate(4 95.5)">
<title>mlir::python::PyConcreteOpInterface&lt; ConcreteIface &gt;</title>
<!-- Node1 -->
<g id="node1" class="node">
<title>Node1</title>
<g id="a_node1"><a xlink:title="CRTP base class for Python classes representing MLIR Op interfaces.">
<polygon fill="#bfbfbf" stroke="black" points="0,-33 0,-63 164,-63 164,-33 0,-33"/>
<text text-anchor="start" x="8" y="-51" font-family="Helvetica,sans-Serif" font-size="10.00">mlir::python::PyConcrete</text>
<text text-anchor="middle" x="82" y="-40" font-family="Helvetica,sans-Serif" font-size="10.00">OpInterface&lt; ConcreteIface &gt;</text>
</a>
</g>
</g>
<!-- Node2 -->
<g id="node2" class="node">
<title>Node2</title>
<g id="a_node2"><a xlink:href="classmlir_1_1python_1_1PyConcreteOpInterface.html" target="_top" xlink:title=" ">
<polygon fill="none" stroke="black" points="376,-61 376,-91 586,-91 586,-61 376,-61"/>
<text text-anchor="start" x="384" y="-79" font-family="Helvetica,sans-Serif" font-size="10.00">mlir::python::PyConcrete</text>
<text text-anchor="middle" x="481" y="-68" font-family="Helvetica,sans-Serif" font-size="10.00">OpInterface&lt; PyInferTypeOpInterface &gt;</text>
</a>
</g>
</g>
<!-- Node1&#45;&gt;Node2 -->
<g id="edge1" class="edge">
<title>Node1&#45;&gt;Node2</title>
<path fill="none" stroke="orange" stroke-dasharray="5,2" d="M174.53,-54.46C234.59,-58.69 313.29,-64.24 375.77,-68.65"/>
<polygon fill="orange" stroke="orange" points="174.52,-50.95 164.3,-53.73 174.03,-57.93 174.52,-50.95"/>
<text text-anchor="middle" x="270" y="-69" font-family="Helvetica,sans-Serif" font-size="10.00"> &lt; PyInferTypeOpInterface &gt;</text>
</g>
<!-- Node4 -->
<g id="node4" class="node">
<title>Node4</title>
<g id="a_node4"><a xlink:href="classmlir_1_1python_1_1PyConcreteOpInterface.html" target="_top" xlink:title=" ">
<polygon fill="none" stroke="black" points="392,-0.5 392,-41.5 570,-41.5 570,-0.5 392,-0.5"/>
<text text-anchor="start" x="400" y="-29.5" font-family="Helvetica,sans-Serif" font-size="10.00">mlir::python::PyConcrete</text>
<text text-anchor="start" x="400" y="-18.5" font-family="Helvetica,sans-Serif" font-size="10.00">OpInterface&lt; PyInferShapedType</text>
<text text-anchor="middle" x="481" y="-7.5" font-family="Helvetica,sans-Serif" font-size="10.00">OpInterface &gt;</text>
</a>
</g>
</g>
<!-- Node1&#45;&gt;Node4 -->
<g id="edge3" class="edge">
<title>Node1&#45;&gt;Node4</title>
<path fill="none" stroke="orange" stroke-dasharray="5,2" d="M174.21,-37.67C176.84,-37.43 179.44,-37.21 182,-37 252.48,-31.2 332.53,-27.03 391.89,-24.41"/>
<polygon fill="orange" stroke="orange" points="173.64,-34.21 164,-38.62 174.29,-41.18 173.64,-34.21"/>
<text text-anchor="middle" x="270" y="-40" font-family="Helvetica,sans-Serif" font-size="10.00"> &lt; PyInferShapedTypeOpInterface &gt;</text>
</g>
<!-- Node3 -->
<g id="node3" class="node">
<title>Node3</title>
<g id="a_node3"><a xlink:href="classmlir_1_1python_1_1PyInferTypeOpInterface.html" target="_top" xlink:title="Python wrapper for InferTypeOpInterface.">
<polygon fill="none" stroke="black" points="629.5,-61 629.5,-91 768.5,-91 768.5,-61 629.5,-61"/>
<text text-anchor="start" x="637.5" y="-79" font-family="Helvetica,sans-Serif" font-size="10.00">mlir::python::PyInferType</text>
<text text-anchor="middle" x="699" y="-68" font-family="Helvetica,sans-Serif" font-size="10.00">OpInterface</text>
</a>
</g>
</g>
<!-- Node2&#45;&gt;Node3 -->
<g id="edge2" class="edge">
<title>Node2&#45;&gt;Node3</title>
<path fill="none" stroke="midnightblue" d="M596.52,-76C607.74,-76 618.87,-76 629.42,-76"/>
<polygon fill="midnightblue" stroke="midnightblue" points="596.2,-72.5 586.2,-76 596.2,-79.5 596.2,-72.5"/>
</g>
<!-- Node5 -->
<g id="node5" class="node">
<title>Node5</title>
<g id="a_node5"><a xlink:href="classmlir_1_1python_1_1PyInferShapedTypeOpInterface.html" target="_top" xlink:title="Python wrapper for InferShapedTypeOpInterface.">
<polygon fill="none" stroke="black" points="623,-6 623,-36 775,-36 775,-6 623,-6"/>
<text text-anchor="start" x="631" y="-24" font-family="Helvetica,sans-Serif" font-size="10.00">mlir::python::PyInferShaped</text>
<text text-anchor="middle" x="699" y="-13" font-family="Helvetica,sans-Serif" font-size="10.00">TypeOpInterface</text>
</a>
</g>
</g>
<!-- Node4&#45;&gt;Node5 -->
<g id="edge4" class="edge">
<title>Node4&#45;&gt;Node5</title>
<path fill="none" stroke="midnightblue" d="M580.49,-21C594.74,-21 609.21,-21 622.9,-21"/>
<polygon fill="midnightblue" stroke="midnightblue" points="580.17,-17.5 570.17,-21 580.17,-24.5 580.17,-17.5"/>
</g>
</g>
</svg>
