<?xml version="1.0" encoding="UTF-8" standalone="no"?>
<!DOCTYPE svg PUBLIC "-//W3C//DTD SVG 1.1//EN"
 "http://www.w3.org/Graphics/SVG/1.1/DTD/svg11.dtd">
<!-- Generated by graphviz version 2.43.0 (0)
 -->
<!-- Title: mlir::pdll::ast::Type Pages: 1 -->
<svg width="1085pt" height="618pt"
 viewBox="0.00 0.00 1085.00 618.21" xmlns="http://www.w3.org/2000/svg" xmlns:xlink="http://www.w3.org/1999/xlink">
<g id="graph0" class="graph" transform="scale(1 1) rotate(0) translate(4 614.21)">
<title>mlir::pdll::ast::Type</title>
<!-- Node1 -->
<g id="Node000001" class="node">
<title>Node1</title>
<g id="a_Node000001"><a xlink:title=" ">
<polygon fill="#999999" stroke="#666666" points="110,-308.21 0,-308.21 0,-289.21 110,-289.21 110,-308.21"/>
<text text-anchor="middle" x="55" y="-296.21" font-family="Helvetica,sans-Serif" font-size="10.00">mlir::pdll::ast::Type</text>
</a>
</g>
</g>
<!-- Node2 -->
<g id="Node000002" class="node">
<title>Node2</title>
<g id="a_Node000002"><a xlink:href="classmlir_1_1pdll_1_1ast_1_1Type_1_1TypeBase.html" target="_top" xlink:title=" ">
<polygon fill="white" stroke="#666666" points="671,-405.21 514,-405.21 514,-364.21 671,-364.21 671,-405.21"/>
<text text-anchor="start" x="522" y="-393.21" font-family="Helvetica,sans-Serif" font-size="10.00">mlir::pdll::ast::Type</text>
<text text-anchor="start" x="522" y="-382.21" font-family="Helvetica,sans-Serif" font-size="10.00">::TypeBase&lt; detail::Attribute</text>
<text text-anchor="middle" x="592.5" y="-371.21" font-family="Helvetica,sans-Serif" font-size="10.00">TypeStorage &gt;</text>
</a>
</g>
</g>
<!-- Node1&#45;&gt;Node2 -->
<g id="edge1_Node000001_Node000002" class="edge">
<title>Node1&#45;&gt;Node2</title>
<g id="a_edge1_Node000001_Node000002"><a xlink:title=" ">
<path fill="none" stroke="#63b8ff" d="M80.77,-313.39C126.25,-339.41 226.98,-392.64 320,-411.71 394.45,-426.98 415.65,-421.66 491,-411.71 502.02,-410.26 513.54,-407.95 524.69,-405.27"/>
<polygon fill="#63b8ff" stroke="#63b8ff" points="82.33,-310.25 71.92,-308.28 78.82,-316.31 82.33,-310.25"/>
</a>
</g>
</g>
<!-- Node4 -->
<g id="Node000004" class="node">
<title>Node4</title>
<g id="a_Node000004"><a xlink:href="classmlir_1_1pdll_1_1ast_1_1Type_1_1TypeBase.html" target="_top" xlink:title=" ">
<polygon fill="white" stroke="#666666" points="674.5,-480.21 510.5,-480.21 510.5,-439.21 674.5,-439.21 674.5,-480.21"/>
<text text-anchor="start" x="518.5" y="-468.21" font-family="Helvetica,sans-Serif" font-size="10.00">mlir::pdll::ast::Type</text>
<text text-anchor="start" x="518.5" y="-457.21" font-family="Helvetica,sans-Serif" font-size="10.00">::TypeBase&lt; detail::Constraint</text>
<text text-anchor="middle" x="592.5" y="-446.21" font-family="Helvetica,sans-Serif" font-size="10.00">TypeStorage &gt;</text>
</a>
</g>
</g>
<!-- Node1&#45;&gt;Node4 -->
<g id="edge3_Node000001_Node000004" class="edge">
<title>Node1&#45;&gt;Node4</title>
<g id="a_edge3_Node000001_Node000004"><a xlink:title=" ">
<path fill="none" stroke="#63b8ff" d="M69.65,-316.15C86.25,-336.49 115.93,-370.21 147,-392.71 216.22,-442.85 236.7,-457.56 320,-476.71 382.83,-491.16 455.84,-485.37 510.32,-476.81"/>
<polygon fill="#63b8ff" stroke="#63b8ff" points="72.36,-313.93 63.37,-308.32 66.9,-318.31 72.36,-313.93"/>
</a>
</g>
</g>
<!-- Node6 -->
<g id="Node000006" class="node">
<title>Node6</title>
<g id="a_Node000006"><a xlink:href="classmlir_1_1pdll_1_1ast_1_1Type_1_1TypeBase.html" target="_top" xlink:title=" ">
<polygon fill="white" stroke="#666666" points="673.5,-610.21 511.5,-610.21 511.5,-569.21 673.5,-569.21 673.5,-610.21"/>
<text text-anchor="start" x="519.5" y="-598.21" font-family="Helvetica,sans-Serif" font-size="10.00">mlir::pdll::ast::Type</text>
<text text-anchor="start" x="519.5" y="-587.21" font-family="Helvetica,sans-Serif" font-size="10.00">::TypeBase&lt; detail::Operation</text>
<text text-anchor="middle" x="592.5" y="-576.21" font-family="Helvetica,sans-Serif" font-size="10.00">TypeStorage &gt;</text>
</a>
</g>
</g>
<!-- Node1&#45;&gt;Node6 -->
<g id="edge5_Node000001_Node000006" class="edge">
<title>Node1&#45;&gt;Node6</title>
<g id="a_edge5_Node000001_Node000006"><a xlink:title=" ">
<path fill="none" stroke="#63b8ff" d="M59.21,-318.57C66.86,-359.4 89.95,-453.25 147,-504.71 247.2,-595.1 413.02,-602.46 511.32,-597.52"/>
<polygon fill="#63b8ff" stroke="#63b8ff" points="62.63,-317.78 57.45,-308.54 55.74,-318.99 62.63,-317.78"/>
</a>
</g>
</g>
<!-- Node8 -->
<g id="Node000008" class="node">
<title>Node8</title>
<g id="a_Node000008"><a xlink:href="classmlir_1_1pdll_1_1ast_1_1Type_1_1TypeBase.html" target="_top" xlink:title=" ">
<polygon fill="white" stroke="#666666" points="676,-547.21 509,-547.21 509,-506.21 676,-506.21 676,-547.21"/>
<text text-anchor="start" x="517" y="-535.21" font-family="Helvetica,sans-Serif" font-size="10.00">mlir::pdll::ast::Type</text>
<text text-anchor="start" x="517" y="-524.21" font-family="Helvetica,sans-Serif" font-size="10.00">::TypeBase&lt; detail::RangeType</text>
<text text-anchor="middle" x="592.5" y="-513.21" font-family="Helvetica,sans-Serif" font-size="10.00">Storage &gt;</text>
</a>
</g>
</g>
<!-- Node1&#45;&gt;Node8 -->
<g id="edge7_Node000001_Node000008" class="edge">
<title>Node1&#45;&gt;Node8</title>
<g id="a_edge7_Node000001_Node000008"><a xlink:title=" ">
<path fill="none" stroke="#63b8ff" d="M64,-317.88C77.42,-348.16 106.97,-407.55 147,-445.71 210.64,-506.39 234.87,-519.68 320,-541.71 381.92,-557.74 454.36,-552.6 508.83,-544.21"/>
<polygon fill="#63b8ff" stroke="#63b8ff" points="67.11,-316.26 59.94,-308.46 60.69,-319.03 67.11,-316.26"/>
</a>
</g>
</g>
<!-- Node12 -->
<g id="Node000012" class="node">
<title>Node12</title>
<g id="a_Node000012"><a xlink:href="classmlir_1_1pdll_1_1ast_1_1Type_1_1TypeBase.html" target="_top" xlink:title=" ">
<polygon fill="white" stroke="#666666" points="668.5,-42.21 516.5,-42.21 516.5,-1.21 668.5,-1.21 668.5,-42.21"/>
<text text-anchor="start" x="524.5" y="-30.21" font-family="Helvetica,sans-Serif" font-size="10.00">mlir::pdll::ast::Type</text>
<text text-anchor="start" x="524.5" y="-19.21" font-family="Helvetica,sans-Serif" font-size="10.00">::TypeBase&lt; detail::Rewrite</text>
<text text-anchor="middle" x="592.5" y="-8.21" font-family="Helvetica,sans-Serif" font-size="10.00">TypeStorage &gt;</text>
</a>
</g>
</g>
<!-- Node1&#45;&gt;Node12 -->
<g id="edge11_Node000001_Node000012" class="edge">
<title>Node1&#45;&gt;Node12</title>
<g id="a_edge11_Node000001_Node000012"><a xlink:title=" ">
<path fill="none" stroke="#63b8ff" d="M57.32,-278.73C61.49,-233.21 78.56,-121.75 147,-69.71 254.2,11.79 420.26,4.87 516.16,-8.06"/>
<polygon fill="#63b8ff" stroke="#63b8ff" points="53.82,-278.56 56.51,-288.81 60.8,-279.12 53.82,-278.56"/>
</a>
</g>
</g>
<!-- Node14 -->
<g id="Node000014" class="node">
<title>Node14</title>
<g id="a_Node000014"><a xlink:href="classmlir_1_1pdll_1_1ast_1_1Type_1_1TypeBase.html" target="_top" xlink:title=" ">
<polygon fill="white" stroke="#666666" points="673.5,-262.21 511.5,-262.21 511.5,-221.21 673.5,-221.21 673.5,-262.21"/>
<text text-anchor="start" x="519.5" y="-250.21" font-family="Helvetica,sans-Serif" font-size="10.00">mlir::pdll::ast::Type</text>
<text text-anchor="start" x="519.5" y="-239.21" font-family="Helvetica,sans-Serif" font-size="10.00">::TypeBase&lt; detail::TupleType</text>
<text text-anchor="middle" x="592.5" y="-228.21" font-family="Helvetica,sans-Serif" font-size="10.00">Storage &gt;</text>
</a>
</g>
</g>
<!-- Node1&#45;&gt;Node14 -->
<g id="edge13_Node000001_Node000014" class="edge">
<title>Node1&#45;&gt;Node14</title>
<g id="a_edge13_Node000001_Node000014"><a xlink:title=" ">
<path fill="none" stroke="#63b8ff" d="M83.78,-284.47C130.88,-261.21 230.07,-216.02 320,-199.71 394.78,-186.15 416.48,-184.77 491,-199.71 496.84,-200.88 521.28,-211.08 544.59,-221.13"/>
<polygon fill="#63b8ff" stroke="#63b8ff" points="81.93,-281.48 74.54,-289.08 85.05,-287.75 81.93,-281.48"/>
</a>
</g>
</g>
<!-- Node16 -->
<g id="Node000016" class="node">
<title>Node16</title>
<g id="a_Node000016"><a xlink:href="classmlir_1_1pdll_1_1ast_1_1Type_1_1TypeBase.html" target="_top" xlink:title=" ">
<polygon fill="white" stroke="#666666" points="672,-197.21 513,-197.21 513,-156.21 672,-156.21 672,-197.21"/>
<text text-anchor="start" x="521" y="-185.21" font-family="Helvetica,sans-Serif" font-size="10.00">mlir::pdll::ast::Type</text>
<text text-anchor="start" x="521" y="-174.21" font-family="Helvetica,sans-Serif" font-size="10.00">::TypeBase&lt; detail::TypeType</text>
<text text-anchor="middle" x="592.5" y="-163.21" font-family="Helvetica,sans-Serif" font-size="10.00">Storage &gt;</text>
</a>
</g>
</g>
<!-- Node1&#45;&gt;Node16 -->
<g id="edge15_Node000001_Node000016" class="edge">
<title>Node1&#45;&gt;Node16</title>
<g id="a_edge15_Node000001_Node000016"><a xlink:title=" ">
<path fill="none" stroke="#63b8ff" d="M68.65,-280.68C84.67,-259.02 114.16,-222.87 147,-200.71 215.22,-154.69 239.07,-149.63 320,-134.71 394.74,-120.94 416.48,-119.77 491,-134.71 512.14,-138.95 534.38,-147.74 552.55,-156.19"/>
<polygon fill="#63b8ff" stroke="#63b8ff" points="65.67,-278.83 62.64,-288.98 71.34,-282.93 65.67,-278.83"/>
</a>
</g>
</g>
<!-- Node18 -->
<g id="Node000018" class="node">
<title>Node18</title>
<g id="a_Node000018"><a xlink:href="classmlir_1_1pdll_1_1ast_1_1Type_1_1TypeBase.html" target="_top" xlink:title=" ">
<polygon fill="white" stroke="#666666" points="674.5,-126.21 510.5,-126.21 510.5,-85.21 674.5,-85.21 674.5,-126.21"/>
<text text-anchor="start" x="518.5" y="-114.21" font-family="Helvetica,sans-Serif" font-size="10.00">mlir::pdll::ast::Type</text>
<text text-anchor="start" x="518.5" y="-103.21" font-family="Helvetica,sans-Serif" font-size="10.00">::TypeBase&lt; detail::ValueType</text>
<text text-anchor="middle" x="592.5" y="-92.21" font-family="Helvetica,sans-Serif" font-size="10.00">Storage &gt;</text>
</a>
</g>
</g>
<!-- Node1&#45;&gt;Node18 -->
<g id="edge17_Node000001_Node000018" class="edge">
<title>Node1&#45;&gt;Node18</title>
<g id="a_edge17_Node000001_Node000018"><a xlink:title=" ">
<path fill="none" stroke="#63b8ff" d="M61.77,-279.42C72.87,-245.51 100.28,-175.02 147,-134.71 209.19,-81.06 239.19,-84.39 320,-69.71 394.78,-56.13 416.12,-56.71 491,-69.71 508.99,-72.84 528.01,-78.89 544.61,-85.15"/>
<polygon fill="#63b8ff" stroke="#63b8ff" points="58.4,-278.47 58.74,-289.06 65.08,-280.57 58.4,-278.47"/>
</a>
</g>
</g>
<!-- Node20 -->
<g id="Node000020" class="node">
<title>Node20</title>
<g id="a_Node000020"><a xlink:href="classmlir_1_1pdll_1_1ast_1_1Type_1_1TypeBase.html" target="_top" xlink:title="This class provides several utilities when defining derived type classes.">
<polygon fill="white" stroke="#666666" points="302,-313.71 147,-313.71 147,-283.71 302,-283.71 302,-313.71"/>
<text text-anchor="start" x="155" y="-301.71" font-family="Helvetica,sans-Serif" font-size="10.00">mlir::pdll::ast::Type</text>
<text text-anchor="middle" x="224.5" y="-290.71" font-family="Helvetica,sans-Serif" font-size="10.00">::TypeBase&lt; ImplT, BaseT &gt;</text>
</a>
</g>
</g>
<!-- Node1&#45;&gt;Node20 -->
<g id="edge19_Node000001_Node000020" class="edge">
<title>Node1&#45;&gt;Node20</title>
<g id="a_edge19_Node000001_Node000020"><a xlink:title=" ">
<path fill="none" stroke="#63b8ff" d="M120.4,-298.71C129.06,-298.71 138.02,-298.71 146.88,-298.71"/>
<polygon fill="#63b8ff" stroke="#63b8ff" points="120.38,-295.21 110.38,-298.71 120.38,-302.21 120.38,-295.21"/>
</a>
</g>
</g>
<!-- Node3 -->
<g id="Node000003" class="node">
<title>Node3</title>
<g id="a_Node000003"><a xlink:href="classmlir_1_1pdll_1_1ast_1_1AttributeType.html" target="_top" xlink:title="This class represents a PDLL type that corresponds to an mlir::Attribute.">
<polygon fill="white" stroke="#666666" points="869,-394.21 717,-394.21 717,-375.21 869,-375.21 869,-394.21"/>
<text text-anchor="middle" x="793" y="-382.21" font-family="Helvetica,sans-Serif" font-size="10.00">mlir::pdll::ast::AttributeType</text>
</a>
</g>
</g>
<!-- Node2&#45;&gt;Node3 -->
<g id="edge2_Node000002_Node000003" class="edge">
<title>Node2&#45;&gt;Node3</title>
<g id="a_edge2_Node000002_Node000003"><a xlink:title=" ">
<path fill="none" stroke="#63b8ff" d="M681.39,-384.71C693.18,-384.71 705.19,-384.71 716.73,-384.71"/>
<polygon fill="#63b8ff" stroke="#63b8ff" points="681.1,-381.21 671.1,-384.71 681.1,-388.21 681.1,-381.21"/>
</a>
</g>
</g>
<!-- Node5 -->
<g id="Node000005" class="node">
<title>Node5</title>
<g id="a_Node000005"><a xlink:href="classmlir_1_1pdll_1_1ast_1_1ConstraintType.html" target="_top" xlink:title="This class represents a PDLL type that corresponds to a constraint.">
<polygon fill="white" stroke="#666666" points="873,-469.21 713,-469.21 713,-450.21 873,-450.21 873,-469.21"/>
<text text-anchor="middle" x="793" y="-457.21" font-family="Helvetica,sans-Serif" font-size="10.00">mlir::pdll::ast::ConstraintType</text>
</a>
</g>
</g>
<!-- Node4&#45;&gt;Node5 -->
<g id="edge4_Node000004_Node000005" class="edge">
<title>Node4&#45;&gt;Node5</title>
<g id="a_edge4_Node000004_Node000005"><a xlink:title=" ">
<path fill="none" stroke="#63b8ff" d="M684.67,-459.71C694.08,-459.71 703.58,-459.71 712.84,-459.71"/>
<polygon fill="#63b8ff" stroke="#63b8ff" points="684.52,-456.21 674.52,-459.71 684.52,-463.21 684.52,-456.21"/>
</a>
</g>
</g>
<!-- Node7 -->
<g id="Node000007" class="node">
<title>Node7</title>
<g id="a_Node000007"><a xlink:href="classmlir_1_1pdll_1_1ast_1_1OperationType.html" target="_top" xlink:title="This class represents a PDLL type that corresponds to an mlir::Operation.">
<polygon fill="white" stroke="#666666" points="872,-599.21 714,-599.21 714,-580.21 872,-580.21 872,-599.21"/>
<text text-anchor="middle" x="793" y="-587.21" font-family="Helvetica,sans-Serif" font-size="10.00">mlir::pdll::ast::OperationType</text>
</a>
</g>
</g>
<!-- Node6&#45;&gt;Node7 -->
<g id="edge6_Node000006_Node000007" class="edge">
<title>Node6&#45;&gt;Node7</title>
<g id="a_edge6_Node000006_Node000007"><a xlink:title=" ">
<path fill="none" stroke="#63b8ff" d="M683.98,-589.71C693.93,-589.71 704,-589.71 713.79,-589.71"/>
<polygon fill="#63b8ff" stroke="#63b8ff" points="683.67,-586.21 673.67,-589.71 683.67,-593.21 683.67,-586.21"/>
</a>
</g>
</g>
<!-- Node9 -->
<g id="Node000009" class="node">
<title>Node9</title>
<g id="a_Node000009"><a xlink:href="classmlir_1_1pdll_1_1ast_1_1RangeType.html" target="_top" xlink:title="This class represents a PDLL type that corresponds to a range of elements with a given element type.">
<polygon fill="white" stroke="#666666" points="863,-536.21 723,-536.21 723,-517.21 863,-517.21 863,-536.21"/>
<text text-anchor="middle" x="793" y="-524.21" font-family="Helvetica,sans-Serif" font-size="10.00">mlir::pdll::ast::RangeType</text>
</a>
</g>
</g>
<!-- Node8&#45;&gt;Node9 -->
<g id="edge8_Node000008_Node000009" class="edge">
<title>Node8&#45;&gt;Node9</title>
<g id="a_edge8_Node000008_Node000009"><a xlink:title=" ">
<path fill="none" stroke="#63b8ff" d="M686.5,-526.71C698.76,-526.71 711.16,-526.71 722.92,-526.71"/>
<polygon fill="#63b8ff" stroke="#63b8ff" points="686.24,-523.21 676.24,-526.71 686.24,-530.21 686.24,-523.21"/>
</a>
</g>
</g>
<!-- Node10 -->
<g id="Node000010" class="node">
<title>Node10</title>
<g id="a_Node000010"><a xlink:href="classmlir_1_1pdll_1_1ast_1_1TypeRangeType.html" target="_top" xlink:title="This class represents a PDLL type that corresponds to an mlir::TypeRange.">
<polygon fill="white" stroke="#666666" points="1075,-554.21 912,-554.21 912,-535.21 1075,-535.21 1075,-554.21"/>
<text text-anchor="middle" x="993.5" y="-542.21" font-family="Helvetica,sans-Serif" font-size="10.00">mlir::pdll::ast::TypeRangeType</text>
</a>
</g>
</g>
<!-- Node9&#45;&gt;Node10 -->
<g id="edge9_Node000009_Node000010" class="edge">
<title>Node9&#45;&gt;Node10</title>
<g id="a_edge9_Node000009_Node000010"><a xlink:title=" ">
<path fill="none" stroke="#63b8ff" d="M873.19,-533.89C885.86,-535.04 898.98,-536.23 911.68,-537.38"/>
<polygon fill="#63b8ff" stroke="#63b8ff" points="873.42,-530.4 863.15,-532.98 872.79,-537.37 873.42,-530.4"/>
</a>
</g>
</g>
<!-- Node11 -->
<g id="Node000011" class="node">
<title>Node11</title>
<g id="a_Node000011"><a xlink:href="classmlir_1_1pdll_1_1ast_1_1ValueRangeType.html" target="_top" xlink:title="This class represents a PDLL type that corresponds to an mlir::ValueRange.">
<polygon fill="white" stroke="#666666" points="1077,-517.21 910,-517.21 910,-498.21 1077,-498.21 1077,-517.21"/>
<text text-anchor="middle" x="993.5" y="-505.21" font-family="Helvetica,sans-Serif" font-size="10.00">mlir::pdll::ast::ValueRangeType</text>
</a>
</g>
</g>
<!-- Node9&#45;&gt;Node11 -->
<g id="edge10_Node000009_Node000011" class="edge">
<title>Node9&#45;&gt;Node11</title>
<g id="a_edge10_Node000009_Node000011"><a xlink:title=" ">
<path fill="none" stroke="#63b8ff" d="M873.19,-519.13C885.28,-517.98 897.79,-516.78 909.95,-515.61"/>
<polygon fill="#63b8ff" stroke="#63b8ff" points="872.77,-515.66 863.15,-520.09 873.44,-522.63 872.77,-515.66"/>
</a>
</g>
</g>
<!-- Node13 -->
<g id="Node000013" class="node">
<title>Node13</title>
<g id="a_Node000013"><a xlink:href="classmlir_1_1pdll_1_1ast_1_1RewriteType.html" target="_top" xlink:title="This class represents a PDLL type that corresponds to a rewrite reference.">
<polygon fill="white" stroke="#666666" points="866.5,-31.21 719.5,-31.21 719.5,-12.21 866.5,-12.21 866.5,-31.21"/>
<text text-anchor="middle" x="793" y="-19.21" font-family="Helvetica,sans-Serif" font-size="10.00">mlir::pdll::ast::RewriteType</text>
</a>
</g>
</g>
<!-- Node12&#45;&gt;Node13 -->
<g id="edge12_Node000012_Node000013" class="edge">
<title>Node12&#45;&gt;Node13</title>
<g id="a_edge12_Node000012_Node000013"><a xlink:title=" ">
<path fill="none" stroke="#63b8ff" d="M678.82,-21.71C692.36,-21.71 706.26,-21.71 719.48,-21.71"/>
<polygon fill="#63b8ff" stroke="#63b8ff" points="678.54,-18.21 668.54,-21.71 678.54,-25.21 678.54,-18.21"/>
</a>
</g>
</g>
<!-- Node15 -->
<g id="Node000015" class="node">
<title>Node15</title>
<g id="a_Node000015"><a xlink:href="classmlir_1_1pdll_1_1ast_1_1TupleType.html" target="_top" xlink:title="This class represents a PDLL tuple type, i.e.">
<polygon fill="white" stroke="#666666" points="860.5,-251.21 725.5,-251.21 725.5,-232.21 860.5,-232.21 860.5,-251.21"/>
<text text-anchor="middle" x="793" y="-239.21" font-family="Helvetica,sans-Serif" font-size="10.00">mlir::pdll::ast::TupleType</text>
</a>
</g>
</g>
<!-- Node14&#45;&gt;Node15 -->
<g id="edge14_Node000014_Node000015" class="edge">
<title>Node14&#45;&gt;Node15</title>
<g id="a_edge14_Node000014_Node000015"><a xlink:title=" ">
<path fill="none" stroke="#63b8ff" d="M683.76,-241.71C697.71,-241.71 711.9,-241.71 725.21,-241.71"/>
<polygon fill="#63b8ff" stroke="#63b8ff" points="683.67,-238.21 673.67,-241.71 683.67,-245.21 683.67,-238.21"/>
</a>
</g>
</g>
<!-- Node17 -->
<g id="Node000017" class="node">
<title>Node17</title>
<g id="a_Node000017"><a xlink:href="classmlir_1_1pdll_1_1ast_1_1TypeType.html" target="_top" xlink:title="This class represents a PDLL type that corresponds to an mlir::Type.">
<polygon fill="white" stroke="#666666" points="859,-186.21 727,-186.21 727,-167.21 859,-167.21 859,-186.21"/>
<text text-anchor="middle" x="793" y="-174.21" font-family="Helvetica,sans-Serif" font-size="10.00">mlir::pdll::ast::TypeType</text>
</a>
</g>
</g>
<!-- Node16&#45;&gt;Node17 -->
<g id="edge16_Node000016_Node000017" class="edge">
<title>Node16&#45;&gt;Node17</title>
<g id="a_edge16_Node000016_Node000017"><a xlink:title=" ">
<path fill="none" stroke="#63b8ff" d="M682.49,-176.71C697.39,-176.71 712.61,-176.71 726.77,-176.71"/>
<polygon fill="#63b8ff" stroke="#63b8ff" points="682.24,-173.21 672.24,-176.71 682.24,-180.21 682.24,-173.21"/>
</a>
</g>
</g>
<!-- Node19 -->
<g id="Node000019" class="node">
<title>Node19</title>
<g id="a_Node000019"><a xlink:href="classmlir_1_1pdll_1_1ast_1_1ValueType.html" target="_top" xlink:title="This class represents a PDLL type that corresponds to an mlir::Value.">
<polygon fill="white" stroke="#666666" points="861.5,-115.21 724.5,-115.21 724.5,-96.21 861.5,-96.21 861.5,-115.21"/>
<text text-anchor="middle" x="793" y="-103.21" font-family="Helvetica,sans-Serif" font-size="10.00">mlir::pdll::ast::ValueType</text>
</a>
</g>
</g>
<!-- Node18&#45;&gt;Node19 -->
<g id="edge18_Node000018_Node000019" class="edge">
<title>Node18&#45;&gt;Node19</title>
<g id="a_edge18_Node000018_Node000019"><a xlink:title=" ">
<path fill="none" stroke="#63b8ff" d="M684.65,-105.71C697.97,-105.71 711.49,-105.71 724.23,-105.71"/>
<polygon fill="#63b8ff" stroke="#63b8ff" points="684.52,-102.21 674.52,-105.71 684.52,-109.21 684.52,-102.21"/>
</a>
</g>
</g>
<!-- Node20&#45;&gt;Node2 -->
<g id="edge21_Node000020_Node000002" class="edge">
<title>Node20&#45;&gt;Node2</title>
<g id="a_edge21_Node000020_Node000002"><a xlink:title=" ">
<path fill="none" stroke="orange" stroke-dasharray="5,2" d="M311.94,-315.37C314.66,-315.84 317.35,-316.28 320,-316.71 395.69,-329 417.25,-318.72 491,-339.71 511.96,-345.68 534.18,-355.26 552.39,-364.04"/>
<polygon fill="orange" stroke="orange" points="312.48,-311.92 302.03,-313.66 311.28,-318.81 312.48,-311.92"/>
</a>
</g>
<text text-anchor="start" x="325.5" y="-345.21" font-family="Helvetica,sans-Serif" font-size="10.00" fill="grey">&lt; detail::AttributeTypeStorage &gt;</text>
</g>
<!-- Node20&#45;&gt;Node4 -->
<g id="edge22_Node000020_Node000004" class="edge">
<title>Node20&#45;&gt;Node4</title>
<g id="a_edge22_Node000020_Node000004"><a xlink:title=" ">
<path fill="none" stroke="orange" stroke-dasharray="5,2" d="M254.72,-319.57C272.83,-331.75 296.96,-346.64 320,-356.71 392.33,-388.33 417.91,-374.91 491,-404.71 497.68,-407.44 529.03,-424.72 554.97,-439.19"/>
<polygon fill="orange" stroke="orange" points="256.57,-316.6 246.34,-313.85 252.62,-322.38 256.57,-316.6"/>
</a>
</g>
<text text-anchor="start" x="346.5" y="-425.71" font-family="Helvetica,sans-Serif" font-size="10.00" fill="grey">&lt; detail::ConstraintType</text>
<text text-anchor="start" x="346.5" y="-410.71" font-family="Helvetica,sans-Serif" font-size="10.00" fill="grey">  Storage &gt;</text>
</g>
<!-- Node20&#45;&gt;Node6 -->
<g id="edge23_Node000020_Node000006" class="edge">
<title>Node20&#45;&gt;Node6</title>
<g id="a_edge23_Node000020_Node000006"><a xlink:title=" ">
<path fill="none" stroke="orange" stroke-dasharray="5,2" d="M230.36,-323.78C239.94,-366.45 265.24,-453.27 320,-501.71 335.26,-515.21 443.01,-547.7 518.09,-569.2"/>
<polygon fill="orange" stroke="orange" points="233.77,-322.98 228.26,-313.93 226.93,-324.44 233.77,-322.98"/>
</a>
</g>
<text text-anchor="start" x="323.5" y="-565.21" font-family="Helvetica,sans-Serif" font-size="10.00" fill="grey">&lt; detail::OperationTypeStorage &gt;</text>
</g>
<!-- Node20&#45;&gt;Node8 -->
<g id="edge24_Node000020_Node000008" class="edge">
<title>Node20&#45;&gt;Node8</title>
<g id="a_edge24_Node000020_Node000008"><a xlink:title=" ">
<path fill="none" stroke="orange" stroke-dasharray="5,2" d="M235.7,-322.98C249.99,-354.01 278.9,-407.25 320,-436.71 384.15,-482.71 416.44,-458.78 491,-484.71 509.13,-491.02 528.68,-498.93 545.68,-506.18"/>
<polygon fill="orange" stroke="orange" points="238.85,-321.45 231.58,-313.74 232.46,-324.3 238.85,-321.45"/>
</a>
</g>
<text text-anchor="start" x="331.5" y="-490.21" font-family="Helvetica,sans-Serif" font-size="10.00" fill="grey">&lt; detail::RangeTypeStorage &gt;</text>
</g>
<!-- Node20&#45;&gt;Node12 -->
<g id="edge25_Node000020_Node000012" class="edge">
<title>Node20&#45;&gt;Node12</title>
<g id="a_edge25_Node000020_Node000012"><a xlink:title=" ">
<path fill="none" stroke="orange" stroke-dasharray="5,2" d="M229.77,-273.44C238.54,-229.63 262.77,-139.66 320,-91.71 349.57,-66.94 446.6,-46.01 516.22,-33.66"/>
<polygon fill="orange" stroke="orange" points="226.28,-273.06 227.87,-283.53 233.16,-274.36 226.28,-273.06"/>
</a>
</g>
<text text-anchor="start" x="328.5" y="-97.21" font-family="Helvetica,sans-Serif" font-size="10.00" fill="grey">&lt; detail::RewriteTypeStorage &gt;</text>
</g>
<!-- Node20&#45;&gt;Node14 -->
<g id="edge26_Node000020_Node000014" class="edge">
<title>Node20&#45;&gt;Node14</title>
<g id="a_edge26_Node000020_Node000014"><a xlink:title=" ">
<path fill="none" stroke="orange" stroke-dasharray="5,2" d="M299.67,-281.59C306.53,-280.2 313.38,-278.88 320,-277.71 384.03,-266.38 457.12,-256.88 511.33,-250.49"/>
<polygon fill="orange" stroke="orange" points="298.73,-278.21 289.65,-283.67 300.16,-285.07 298.73,-278.21"/>
</a>
</g>
<text text-anchor="start" x="334.5" y="-283.21" font-family="Helvetica,sans-Serif" font-size="10.00" fill="grey">&lt; detail::TupleTypeStorage &gt;</text>
</g>
<!-- Node20&#45;&gt;Node16 -->
<g id="edge27_Node000020_Node000016" class="edge">
<title>Node20&#45;&gt;Node16</title>
<g id="a_edge27_Node000020_Node000016"><a xlink:title=" ">
<path fill="none" stroke="orange" stroke-dasharray="5,2" d="M250.42,-277.04C268.56,-262.39 294.34,-243.76 320,-232.71 381.89,-206.07 457.28,-191.82 512.9,-184.38"/>
<polygon fill="orange" stroke="orange" points="248.14,-274.39 242.66,-283.46 252.6,-279.79 248.14,-274.39"/>
</a>
</g>
<text text-anchor="start" x="336.5" y="-238.21" font-family="Helvetica,sans-Serif" font-size="10.00" fill="grey">&lt; detail::TypeTypeStorage &gt;</text>
</g>
<!-- Node20&#45;&gt;Node18 -->
<g id="edge28_Node000020_Node000018" class="edge">
<title>Node20&#45;&gt;Node18</title>
<g id="a_edge28_Node000020_Node000018"><a xlink:title=" ">
<path fill="none" stroke="orange" stroke-dasharray="5,2" d="M236.46,-274.05C251.09,-244.1 279.88,-194.29 320,-167.71 376.73,-130.12 453.15,-115.13 510.46,-109.24"/>
<polygon fill="orange" stroke="orange" points="233.16,-272.85 232.05,-283.39 239.49,-275.84 233.16,-272.85"/>
</a>
</g>
<text text-anchor="start" x="333.5" y="-173.21" font-family="Helvetica,sans-Serif" font-size="10.00" fill="grey">&lt; detail::ValueTypeStorage &gt;</text>
</g>
<!-- Node21 -->
<g id="Node000021" class="node">
<title>Node21</title>
<g id="a_Node000021"><a xlink:href="classmlir_1_1pdll_1_1ast_1_1Type_1_1TypeBase.html" target="_top" xlink:title=" ">
<polygon fill="white" stroke="#666666" points="670,-313.71 515,-313.71 515,-283.71 670,-283.71 670,-313.71"/>
<text text-anchor="start" x="523" y="-301.71" font-family="Helvetica,sans-Serif" font-size="10.00">mlir::pdll::ast::Type</text>
<text text-anchor="middle" x="592.5" y="-290.71" font-family="Helvetica,sans-Serif" font-size="10.00">::TypeBase&lt; ImplT, BaseT &gt;</text>
</a>
</g>
</g>
<!-- Node20&#45;&gt;Node21 -->
<g id="edge20_Node000020_Node000021" class="edge">
<title>Node20&#45;&gt;Node21</title>
<g id="a_edge20_Node000020_Node000021"><a xlink:title=" ">
<path fill="none" stroke="orange" stroke-dasharray="5,2" d="M312.31,-298.71C373.88,-298.71 455.73,-298.71 514.88,-298.71"/>
<polygon fill="orange" stroke="orange" points="312.23,-295.21 302.23,-298.71 312.23,-302.21 312.23,-295.21"/>
</a>
</g>
<text text-anchor="start" x="362.5" y="-304.21" font-family="Helvetica,sans-Serif" font-size="10.00" fill="grey">&lt; ImplT, BaseT &gt;</text>
</g>
</g>
</svg>
