<?xml version="1.0" encoding="UTF-8" standalone="no"?>
<!DOCTYPE svg PUBLIC "-//W3C//DTD SVG 1.1//EN"
 "http://www.w3.org/Graphics/SVG/1.1/DTD/svg11.dtd">
<!-- Generated by graphviz version 2.43.0 (0)
 -->
<!-- Title: mlir::ValueBoundsConstraintSet Pages: 1 -->
<svg width="179pt" height="173pt"
 viewBox="0.00 0.00 179.00 173.00" xmlns="http://www.w3.org/2000/svg" xmlns:xlink="http://www.w3.org/1999/xlink">
<g id="graph0" class="graph" transform="scale(1 1) rotate(0) translate(4 169)">
<title>mlir::ValueBoundsConstraintSet</title>
<!-- Node1 -->
<g id="node1" class="node">
<title>Node1</title>
<g id="a_node1"><a xlink:title="A helper class to be used with ValueBoundsOpInterface.">
<polygon fill="#bfbfbf" stroke="black" points="0,-67.5 0,-86.5 171,-86.5 171,-67.5 0,-67.5"/>
<text text-anchor="middle" x="85.5" y="-74.5" font-family="Helvetica,sans-Serif" font-size="10.00">mlir::ValueBoundsConstraintSet</text>
</a>
</g>
</g>
<!-- Node3 -->
<g id="node3" class="node">
<title>Node3</title>
<g id="a_node3"><a xlink:href="structmlir_1_1vector_1_1detail_1_1ValueBoundsConstraintSet.html" target="_top" xlink:title="Parent class for the value bounds RTTIExtends.">
<polygon fill="none" stroke="black" points="9.5,-0.5 9.5,-30.5 161.5,-30.5 161.5,-0.5 9.5,-0.5"/>
<text text-anchor="start" x="17.5" y="-18.5" font-family="Helvetica,sans-Serif" font-size="10.00">mlir::vector::detail</text>
<text text-anchor="middle" x="85.5" y="-7.5" font-family="Helvetica,sans-Serif" font-size="10.00">::ValueBoundsConstraintSet</text>
</a>
</g>
</g>
<!-- Node1&#45;&gt;Node3 -->
<g id="edge2" class="edge">
<title>Node1&#45;&gt;Node3</title>
<path fill="none" stroke="darkgreen" d="M85.5,-57.23C85.5,-48.59 85.5,-38.5 85.5,-30.52"/>
<polygon fill="darkgreen" stroke="darkgreen" points="82,-57.48 85.5,-67.48 89,-57.48 82,-57.48"/>
</g>
<!-- Node2 -->
<g id="node2" class="node">
<title>Node2</title>
<g id="a_node2"><a xlink:title=" ">
<polygon fill="none" stroke="#bfbfbf" points="9.5,-123.5 9.5,-164.5 161.5,-164.5 161.5,-123.5 9.5,-123.5"/>
<text text-anchor="start" x="17.5" y="-152.5" font-family="Helvetica,sans-Serif" font-size="10.00">llvm::RTTIExtends&lt;</text>
<text text-anchor="start" x="17.5" y="-141.5" font-family="Helvetica,sans-Serif" font-size="10.00"> ValueBoundsConstraintSet,</text>
<text text-anchor="middle" x="85.5" y="-130.5" font-family="Helvetica,sans-Serif" font-size="10.00"> llvm::RTTIRoot &gt;</text>
</a>
</g>
</g>
<!-- Node2&#45;&gt;Node1 -->
<g id="edge1" class="edge">
<title>Node2&#45;&gt;Node1</title>
<path fill="none" stroke="midnightblue" d="M85.5,-113.26C85.5,-103.56 85.5,-93.52 85.5,-86.65"/>
<polygon fill="midnightblue" stroke="midnightblue" points="82,-113.5 85.5,-123.5 89,-113.5 82,-113.5"/>
</g>
</g>
</svg>
