<?xml version="1.0" encoding="UTF-8" standalone="no"?>
<!DOCTYPE svg PUBLIC "-//W3C//DTD SVG 1.1//EN"
 "http://www.w3.org/Graphics/SVG/1.1/DTD/svg11.dtd">
<!-- Generated by graphviz version 2.43.0 (0)
 -->
<!-- Title: mlir::python::PyType Pages: 1 -->
<svg width="916pt" height="60pt"
 viewBox="0.00 0.00 916.00 60.00" xmlns="http://www.w3.org/2000/svg" xmlns:xlink="http://www.w3.org/1999/xlink">
<g id="graph0" class="graph" transform="scale(1 1) rotate(0) translate(4 56)">
<title>mlir::python::PyType</title>
<!-- Node1 -->
<g id="Node000001" class="node">
<title>Node1</title>
<g id="a_Node000001"><a xlink:title="Wrapper around the generic MlirType.">
<polygon fill="#999999" stroke="#666666" points="297,-45.5 181,-45.5 181,-26.5 297,-26.5 297,-45.5"/>
<text text-anchor="middle" x="239" y="-33.5" font-family="Helvetica,sans-Serif" font-size="10.00">mlir::python::PyType</text>
</a>
</g>
</g>
<!-- Node3 -->
<g id="Node000003" class="node">
<title>Node3</title>
<g id="a_Node000003"><a xlink:href="classmlir_1_1python_1_1PyConcreteType.html" target="_top" xlink:title=" ">
<polygon fill="white" stroke="#666666" points="758,-52 621,-52 621,-22 758,-22 758,-52"/>
<text text-anchor="start" x="629" y="-40" font-family="Helvetica,sans-Serif" font-size="10.00">mlir::python::PyConcrete</text>
<text text-anchor="middle" x="689.5" y="-29" font-family="Helvetica,sans-Serif" font-size="10.00">Type&lt; PyShapedType &gt;</text>
</a>
</g>
</g>
<!-- Node1&#45;&gt;Node3 -->
<g id="edge2_Node000001_Node000003" class="edge">
<title>Node1&#45;&gt;Node3</title>
<g id="a_edge2_Node000001_Node000003"><a xlink:title=" ">
<path fill="none" stroke="#63b8ff" d="M307.35,-40.65C309.93,-40.78 312.49,-40.9 315,-41 442.9,-46.28 475.1,-49.23 603,-44 608.8,-43.76 614.82,-43.44 620.86,-43.05"/>
<polygon fill="#63b8ff" stroke="#63b8ff" points="307.48,-37.16 297.31,-40.12 307.11,-44.15 307.48,-37.16"/>
</a>
</g>
</g>
<!-- Node5 -->
<g id="Node000005" class="node">
<title>Node5</title>
<g id="a_Node000005"><a xlink:href="classmlir_1_1python_1_1PyConcreteType.html" target="_top" xlink:title="CRTP base classes for Python types that subclass Type and should be castable from it (i....">
<polygon fill="white" stroke="#666666" points="485,-30 334,-30 334,0 485,0 485,-30"/>
<text text-anchor="start" x="342" y="-18" font-family="Helvetica,sans-Serif" font-size="10.00">mlir::python::PyConcrete</text>
<text text-anchor="middle" x="409.5" y="-7" font-family="Helvetica,sans-Serif" font-size="10.00">Type&lt; DerivedTy, BaseTy &gt;</text>
</a>
</g>
</g>
<!-- Node1&#45;&gt;Node5 -->
<g id="edge4_Node000001_Node000005" class="edge">
<title>Node1&#45;&gt;Node5</title>
<g id="a_edge4_Node000001_Node000005"><a xlink:title=" ">
<path fill="none" stroke="#63b8ff" d="M307.2,-27.62C315.97,-26.53 325,-25.41 333.89,-24.3"/>
<polygon fill="#63b8ff" stroke="#63b8ff" points="306.54,-24.18 297.05,-28.89 307.4,-31.13 306.54,-24.18"/>
</a>
</g>
</g>
<!-- Node2 -->
<g id="Node000002" class="node">
<title>Node2</title>
<g id="a_Node000002"><a xlink:href="classmlir_1_1python_1_1BaseContextObject.html" target="_top" xlink:title="Base class for all objects that directly or indirectly depend on an MlirContext.">
<polygon fill="white" stroke="#666666" points="144,-51 0,-51 0,-21 144,-21 144,-51"/>
<text text-anchor="start" x="8" y="-39" font-family="Helvetica,sans-Serif" font-size="10.00">mlir::python::BaseContext</text>
<text text-anchor="middle" x="72" y="-28" font-family="Helvetica,sans-Serif" font-size="10.00">Object</text>
</a>
</g>
</g>
<!-- Node2&#45;&gt;Node1 -->
<g id="edge1_Node000001_Node000002" class="edge">
<title>Node2&#45;&gt;Node1</title>
<g id="a_edge1_Node000001_Node000002"><a xlink:title=" ">
<path fill="none" stroke="#63b8ff" d="M154.47,-36C163.4,-36 172.34,-36 180.89,-36"/>
<polygon fill="#63b8ff" stroke="#63b8ff" points="154.41,-32.5 144.41,-36 154.41,-39.5 154.41,-32.5"/>
</a>
</g>
</g>
<!-- Node4 -->
<g id="Node000004" class="node">
<title>Node4</title>
<g id="a_Node000004"><a xlink:href="classmlir_1_1PyShapedType.html" target="_top" xlink:title="Shaped Type Interface &#45; ShapedType.">
<polygon fill="white" stroke="#666666" points="908,-46.5 795,-46.5 795,-27.5 908,-27.5 908,-46.5"/>
<text text-anchor="middle" x="851.5" y="-34.5" font-family="Helvetica,sans-Serif" font-size="10.00">mlir::PyShapedType</text>
</a>
</g>
</g>
<!-- Node3&#45;&gt;Node4 -->
<g id="edge3_Node000003_Node000004" class="edge">
<title>Node3&#45;&gt;Node4</title>
<g id="a_edge3_Node000003_Node000004"><a xlink:title=" ">
<path fill="none" stroke="#63b8ff" d="M768.62,-37C777.4,-37 786.22,-37 794.63,-37"/>
<polygon fill="#63b8ff" stroke="#63b8ff" points="768.35,-33.5 758.35,-37 768.35,-40.5 768.35,-33.5"/>
</a>
</g>
</g>
<!-- Node5&#45;&gt;Node3 -->
<g id="edge5_Node000005_Node000003" class="edge">
<title>Node5&#45;&gt;Node3</title>
<g id="a_edge5_Node000005_Node000003"><a xlink:title=" ">
<path fill="none" stroke="orange" stroke-dasharray="5,2" d="M495.31,-19.29C528.88,-21.25 567.79,-23.85 603,-27 608.81,-27.52 614.83,-28.11 620.86,-28.75"/>
<polygon fill="orange" stroke="orange" points="495.26,-15.78 485.07,-18.71 494.86,-22.77 495.26,-15.78"/>
</a>
</g>
<text text-anchor="start" x="506" y="-32.5" font-family="Helvetica,sans-Serif" font-size="10.00" fill="grey">&lt; PyShapedType &gt;</text>
</g>
</g>
</svg>
