<?xml version="1.0" encoding="UTF-8" standalone="no"?>
<!DOCTYPE svg PUBLIC "-//W3C//DTD SVG 1.1//EN"
 "http://www.w3.org/Graphics/SVG/1.1/DTD/svg11.dtd">
<!-- Generated by graphviz version 2.43.0 (0)
 -->
<!-- Title: mlir::PointerUnion&lt; PT &gt; Pages: 1 -->
<svg width="509pt" height="1261pt"
 viewBox="0.00 0.00 509.00 1261.37" xmlns="http://www.w3.org/2000/svg" xmlns:xlink="http://www.w3.org/1999/xlink">
<g id="graph0" class="graph" transform="scale(1 1) rotate(0) translate(4 1257.37)">
<title>mlir::PointerUnion&lt; PT &gt;</title>
<!-- Node1 -->
<g id="Node000001" class="node">
<title>Node1</title>
<g id="a_Node000001"><a xlink:title=" ">
<polygon fill="#999999" stroke="#666666" points="105,-635.37 0,-635.37 0,-605.37 105,-605.37 105,-635.37"/>
<text text-anchor="start" x="8" y="-623.37" font-family="Helvetica,sans-Serif" font-size="10.00">mlir::PointerUnion</text>
<text text-anchor="middle" x="52.5" y="-612.37" font-family="Helvetica,sans-Serif" font-size="10.00">&lt; PT &gt;</text>
</a>
</g>
</g>
<!-- Node2 -->
<g id="Node000002" class="node">
<title>Node2</title>
<g id="a_Node000002"><a xlink:href="structmlir_1_1CallInterfaceCallable.html" target="_top" xlink:title="A callable is either a symbol, or an SSA value, that is referenced by a call&#45;like operation.">
<polygon fill="white" stroke="#666666" points="482,-1253.37 338,-1253.37 338,-1223.37 482,-1223.37 482,-1253.37"/>
<text text-anchor="start" x="346" y="-1241.37" font-family="Helvetica,sans-Serif" font-size="10.00">mlir::CallInterfaceCallable</text>
<text text-anchor="middle" x="410" y="-1230.37" font-family="Helvetica,sans-Serif" font-size="10.00">&lt; SymbolRefAttr, Value &gt;</text>
</a>
</g>
</g>
<!-- Node1&#45;&gt;Node2 -->
<g id="edge1_Node000001_Node000002" class="edge">
<title>Node1&#45;&gt;Node2</title>
<g id="a_edge1_Node000001_Node000002"><a xlink:title=" ">
<path fill="none" stroke="#63b8ff" d="M53.04,-645.55C51.78,-742.72 52.35,-1091.66 123,-1170.37 176.53,-1229.99 271.97,-1242.06 337.78,-1242.47"/>
<polygon fill="#63b8ff" stroke="#63b8ff" points="56.54,-645.52 53.19,-635.47 49.54,-645.42 56.54,-645.52"/>
</a>
</g>
</g>
<!-- Node3 -->
<g id="Node000003" class="node">
<title>Node3</title>
<g id="a_Node000003"><a xlink:href="classmlir_1_1IRUnit.html" target="_top" xlink:title="IRUnit is a union of the different types of IR objects that constitute the IR structure (other than T...">
<polygon fill="white" stroke="#666666" points="475.5,-1204.87 344.5,-1204.87 344.5,-1163.87 475.5,-1163.87 475.5,-1204.87"/>
<text text-anchor="start" x="352.5" y="-1192.87" font-family="Helvetica,sans-Serif" font-size="10.00">mlir::IRUnit&lt; Operation</text>
<text text-anchor="start" x="352.5" y="-1181.87" font-family="Helvetica,sans-Serif" font-size="10.00"> *, Region *, Block *,</text>
<text text-anchor="middle" x="410" y="-1170.87" font-family="Helvetica,sans-Serif" font-size="10.00"> Value &gt;</text>
</a>
</g>
</g>
<!-- Node1&#45;&gt;Node3 -->
<g id="edge2_Node000001_Node000003" class="edge">
<title>Node1&#45;&gt;Node3</title>
<g id="a_edge2_Node000001_Node000003"><a xlink:title=" ">
<path fill="none" stroke="#63b8ff" d="M53.31,-645.5C53.17,-737.33 57.53,-1052.95 123,-1123.37 179,-1183.6 278.66,-1192.03 344.29,-1190.1"/>
<polygon fill="#63b8ff" stroke="#63b8ff" points="56.81,-645.46 53.35,-635.45 49.81,-645.43 56.81,-645.46"/>
</a>
</g>
</g>
<!-- Node4 -->
<g id="Node000004" class="node">
<title>Node4</title>
<g id="a_Node000004"><a xlink:href="classmlir_1_1LLVM_1_1GEPArg.html" target="_top" xlink:title="Class used for building a &#39;llvm.getelementptr&#39;.">
<polygon fill="white" stroke="#666666" points="491,-1145.37 329,-1145.37 329,-1115.37 491,-1115.37 491,-1145.37"/>
<text text-anchor="start" x="337" y="-1133.37" font-family="Helvetica,sans-Serif" font-size="10.00">mlir::LLVM::GEPArg</text>
<text text-anchor="middle" x="410" y="-1122.37" font-family="Helvetica,sans-Serif" font-size="10.00">&lt; Value, GEPConstantIndex &gt;</text>
</a>
</g>
</g>
<!-- Node1&#45;&gt;Node4 -->
<g id="edge3_Node000001_Node000004" class="edge">
<title>Node1&#45;&gt;Node4</title>
<g id="a_edge3_Node000001_Node000004"><a xlink:title=" ">
<path fill="none" stroke="#63b8ff" d="M53.61,-645.61C54.52,-732.45 62.19,-1016.94 123,-1079.37 175.53,-1133.29 264.02,-1141.67 328.68,-1139.28"/>
<polygon fill="#63b8ff" stroke="#63b8ff" points="57.11,-645.56 53.52,-635.59 50.11,-645.62 57.11,-645.56"/>
</a>
</g>
</g>
<!-- Node5 -->
<g id="Node000005" class="node">
<title>Node5</title>
<g id="a_Node000005"><a xlink:href="structmlir_1_1LatticeAnchor.html" target="_top" xlink:title="Fundamental IR components are supported as first&#45;class lattice anchor.">
<polygon fill="white" stroke="#666666" points="484.5,-1096.87 335.5,-1096.87 335.5,-1055.87 484.5,-1055.87 484.5,-1096.87"/>
<text text-anchor="start" x="343.5" y="-1084.87" font-family="Helvetica,sans-Serif" font-size="10.00">mlir::LatticeAnchor</text>
<text text-anchor="start" x="343.5" y="-1073.87" font-family="Helvetica,sans-Serif" font-size="10.00">&lt; GenericLatticeAnchor</text>
<text text-anchor="middle" x="410" y="-1062.87" font-family="Helvetica,sans-Serif" font-size="10.00"> *, ProgramPoint *, Value &gt;</text>
</a>
</g>
</g>
<!-- Node1&#45;&gt;Node5 -->
<g id="edge4_Node000001_Node000005" class="edge">
<title>Node1&#45;&gt;Node5</title>
<g id="a_edge4_Node000001_Node000005"><a xlink:title=" ">
<path fill="none" stroke="#63b8ff" d="M53.89,-645.96C55.72,-728.51 65.97,-985.5 123,-1040.37 178.54,-1093.79 270.76,-1095.97 335.42,-1089.22"/>
<polygon fill="#63b8ff" stroke="#63b8ff" points="57.39,-645.65 53.69,-635.72 50.39,-645.79 57.39,-645.65"/>
</a>
</g>
</g>
<!-- Node6 -->
<g id="Node000006" class="node">
<title>Node6</title>
<g id="a_Node000006"><a xlink:href="classmlir_1_1OpFoldResult.html" target="_top" xlink:title="This class represents a single result from folding an operation.">
<polygon fill="white" stroke="#666666" points="467.5,-1037.37 352.5,-1037.37 352.5,-1007.37 467.5,-1007.37 467.5,-1037.37"/>
<text text-anchor="start" x="360.5" y="-1025.37" font-family="Helvetica,sans-Serif" font-size="10.00">mlir::OpFoldResult</text>
<text text-anchor="middle" x="410" y="-1014.37" font-family="Helvetica,sans-Serif" font-size="10.00">&lt; Attribute, Value &gt;</text>
</a>
</g>
</g>
<!-- Node1&#45;&gt;Node6 -->
<g id="edge5_Node000001_Node000006" class="edge">
<title>Node1&#45;&gt;Node6</title>
<g id="a_edge5_Node000001_Node000006"><a xlink:title=" ">
<path fill="none" stroke="#63b8ff" d="M54.16,-645.74C56.76,-723.71 69.01,-957.46 123,-1005.37 185.5,-1060.83 289.14,-1050.82 353.01,-1037.38"/>
<polygon fill="#63b8ff" stroke="#63b8ff" points="57.65,-645.29 53.84,-635.4 50.65,-645.51 57.65,-645.29"/>
</a>
</g>
</g>
<!-- Node7 -->
<g id="Node000007" class="node">
<title>Node7</title>
<g id="a_Node000007"><a xlink:href="classllvm_1_1PointerUnion.html" target="_top" xlink:title=" ">
<polygon fill="white" stroke="#666666" points="472,-988.87 348,-988.87 348,-947.87 472,-947.87 472,-988.87"/>
<text text-anchor="start" x="356" y="-976.87" font-family="Helvetica,sans-Serif" font-size="10.00">llvm::PointerUnion</text>
<text text-anchor="start" x="356" y="-965.87" font-family="Helvetica,sans-Serif" font-size="10.00">&lt; Operation *, Param,</text>
<text text-anchor="middle" x="410" y="-954.87" font-family="Helvetica,sans-Serif" font-size="10.00"> Value &gt;</text>
</a>
</g>
</g>
<!-- Node1&#45;&gt;Node7 -->
<g id="edge6_Node000001_Node000007" class="edge">
<title>Node1&#45;&gt;Node7</title>
<g id="a_edge6_Node000001_Node000007"><a xlink:title=" ">
<path fill="none" stroke="orange" stroke-dasharray="5,2" d="M55.28,-645.74C60.64,-714.19 79.04,-900.13 123,-939.37 155.11,-968.03 273.81,-971.23 347.82,-970.27"/>
<polygon fill="orange" stroke="orange" points="58.75,-645.15 54.51,-635.44 51.77,-645.68 58.75,-645.15"/>
</a>
</g>
<text text-anchor="start" x="158" y="-990.37" font-family="Helvetica,sans-Serif" font-size="10.00" fill="grey">&lt; Operation *, Param,</text>
<text text-anchor="start" x="158" y="-975.37" font-family="Helvetica,sans-Serif" font-size="10.00" fill="grey">   Value &gt;</text>
</g>
<!-- Node8 -->
<g id="Node000008" class="node">
<title>Node8</title>
<g id="a_Node000008"><a xlink:href="classllvm_1_1PointerUnion.html" target="_top" xlink:title=" ">
<polygon fill="white" stroke="#666666" points="467,-929.37 353,-929.37 353,-899.37 467,-899.37 467,-929.37"/>
<text text-anchor="start" x="361" y="-917.37" font-family="Helvetica,sans-Serif" font-size="10.00">llvm::PointerUnion</text>
<text text-anchor="middle" x="410" y="-906.37" font-family="Helvetica,sans-Serif" font-size="10.00">&lt; Type, StringAttr &gt;</text>
</a>
</g>
</g>
<!-- Node1&#45;&gt;Node8 -->
<g id="edge7_Node000001_Node000008" class="edge">
<title>Node1&#45;&gt;Node8</title>
<g id="a_edge7_Node000001_Node000008"><a xlink:title=" ">
<path fill="none" stroke="orange" stroke-dasharray="5,2" d="M56.25,-645.68C63.44,-706.93 84.97,-860.42 123,-892.37 156.6,-920.59 279.5,-920.38 352.81,-917.51"/>
<polygon fill="orange" stroke="orange" points="59.68,-644.91 55.07,-635.37 52.73,-645.7 59.68,-644.91"/>
</a>
</g>
<text text-anchor="start" x="163" y="-923.87" font-family="Helvetica,sans-Serif" font-size="10.00" fill="grey">&lt; Type, StringAttr &gt;</text>
</g>
<!-- Node9 -->
<g id="Node000009" class="node">
<title>Node9</title>
<g id="a_Node000009"><a xlink:href="classllvm_1_1PointerUnion.html" target="_top" xlink:title=" ">
<polygon fill="white" stroke="#666666" points="478.5,-880.87 341.5,-880.87 341.5,-839.87 478.5,-839.87 478.5,-880.87"/>
<text text-anchor="start" x="349.5" y="-868.87" font-family="Helvetica,sans-Serif" font-size="10.00">llvm::PointerUnion</text>
<text text-anchor="start" x="349.5" y="-857.87" font-family="Helvetica,sans-Serif" font-size="10.00">&lt; BlockOperand *, Block</text>
<text text-anchor="middle" x="410" y="-846.87" font-family="Helvetica,sans-Serif" font-size="10.00"> *const * &gt;</text>
</a>
</g>
</g>
<!-- Node1&#45;&gt;Node9 -->
<g id="edge8_Node000001_Node000009" class="edge">
<title>Node1&#45;&gt;Node9</title>
<g id="a_edge8_Node000001_Node000009"><a xlink:title=" ">
<path fill="none" stroke="orange" stroke-dasharray="5,2" d="M53.21,-645.68C54.19,-692.08 63.6,-790.26 123,-837.37 139.71,-850.62 262.04,-856.43 341.21,-858.83"/>
<polygon fill="orange" stroke="orange" points="56.71,-645.55 53.11,-635.58 49.71,-645.61 56.71,-645.55"/>
</a>
</g>
<text text-anchor="start" x="152" y="-878.37" font-family="Helvetica,sans-Serif" font-size="10.00" fill="grey">&lt; BlockOperand *, Block</text>
<text text-anchor="start" x="152" y="-863.37" font-family="Helvetica,sans-Serif" font-size="10.00" fill="grey">   *const * &gt;</text>
</g>
<!-- Node10 -->
<g id="Node000010" class="node">
<title>Node10</title>
<g id="a_Node000010"><a xlink:href="classllvm_1_1PointerUnion.html" target="_top" xlink:title=" ">
<polygon fill="white" stroke="#666666" points="498,-821.37 322,-821.37 322,-747.37 498,-747.37 498,-821.37"/>
<text text-anchor="start" x="330" y="-809.37" font-family="Helvetica,sans-Serif" font-size="10.00">llvm::PointerUnion</text>
<text text-anchor="start" x="330" y="-798.37" font-family="Helvetica,sans-Serif" font-size="10.00">&lt; const Value *, const</text>
<text text-anchor="start" x="330" y="-787.37" font-family="Helvetica,sans-Serif" font-size="10.00"> Type *, OpOperand *,</text>
<text text-anchor="start" x="330" y="-776.37" font-family="Helvetica,sans-Serif" font-size="10.00"> detail::OpResultImpl *,</text>
<text text-anchor="start" x="330" y="-765.37" font-family="Helvetica,sans-Serif" font-size="10.00"> const Repeated&lt; Type &gt;</text>
<text text-anchor="middle" x="410" y="-754.37" font-family="Helvetica,sans-Serif" font-size="10.00"> *, const Repeated&lt; Value &gt; * &gt;</text>
</a>
</g>
</g>
<!-- Node1&#45;&gt;Node10 -->
<g id="edge9_Node000001_Node000010" class="edge">
<title>Node1&#45;&gt;Node10</title>
<g id="a_edge9_Node000001_Node000010"><a xlink:title=" ">
<path fill="none" stroke="orange" stroke-dasharray="5,2" d="M60.96,-645.24C70.57,-672.66 90.09,-715.73 123,-737.37 156.33,-759.28 261.71,-753.48 301,-760.37 307.81,-761.56 314.84,-762.89 321.9,-764.3"/>
<polygon fill="orange" stroke="orange" points="64.22,-643.97 57.75,-635.58 57.58,-646.17 64.22,-643.97"/>
</a>
</g>
<text text-anchor="start" x="129" y="-825.87" font-family="Helvetica,sans-Serif" font-size="10.00" fill="grey">&lt; const Value *, const</text>
<text text-anchor="start" x="129" y="-810.87" font-family="Helvetica,sans-Serif" font-size="10.00" fill="grey">   Type *, OpOperand *,</text>
<text text-anchor="start" x="129" y="-795.87" font-family="Helvetica,sans-Serif" font-size="10.00" fill="grey">   detail::OpResultImpl *,</text>
<text text-anchor="start" x="129" y="-780.87" font-family="Helvetica,sans-Serif" font-size="10.00" fill="grey">   const Repeated&lt; Type &gt;</text>
<text text-anchor="start" x="129" y="-765.87" font-family="Helvetica,sans-Serif" font-size="10.00" fill="grey">   *, const Repeated&lt; Value &gt; * &gt;</text>
</g>
<!-- Node11 -->
<g id="Node000011" class="node">
<title>Node11</title>
<g id="a_Node000011"><a xlink:href="classllvm_1_1PointerUnion.html" target="_top" xlink:title=" ">
<polygon fill="white" stroke="#666666" points="494,-729.37 326,-729.37 326,-677.37 494,-677.37 494,-729.37"/>
<text text-anchor="start" x="334" y="-717.37" font-family="Helvetica,sans-Serif" font-size="10.00">llvm::PointerUnion</text>
<text text-anchor="start" x="334" y="-706.37" font-family="Helvetica,sans-Serif" font-size="10.00">&lt; NamedAttribute *,</text>
<text text-anchor="start" x="334" y="-695.37" font-family="Helvetica,sans-Serif" font-size="10.00"> NamedProperty *, NamedType</text>
<text text-anchor="middle" x="410" y="-684.37" font-family="Helvetica,sans-Serif" font-size="10.00">Constraint * &gt;</text>
</a>
</g>
</g>
<!-- Node1&#45;&gt;Node11 -->
<g id="edge10_Node000001_Node000011" class="edge">
<title>Node1&#45;&gt;Node11</title>
<g id="a_edge10_Node000001_Node000011"><a xlink:title=" ">
<path fill="none" stroke="orange" stroke-dasharray="5,2" d="M85.79,-640.4C97.18,-646.69 110.32,-653.1 123,-657.37 159.59,-669.67 255.12,-683.75 325.76,-693.06"/>
<polygon fill="orange" stroke="orange" points="87.48,-637.34 77.06,-635.42 84.01,-643.42 87.48,-637.34"/>
</a>
</g>
<text text-anchor="start" x="133" y="-723.87" font-family="Helvetica,sans-Serif" font-size="10.00" fill="grey">&lt; NamedAttribute *,</text>
<text text-anchor="start" x="133" y="-708.87" font-family="Helvetica,sans-Serif" font-size="10.00" fill="grey">   NamedProperty *, NamedType</text>
<text text-anchor="start" x="133" y="-693.87" font-family="Helvetica,sans-Serif" font-size="10.00" fill="grey">  Constraint * &gt;</text>
</g>
<!-- Node12 -->
<g id="Node000012" class="node">
<title>Node12</title>
<g id="a_Node000012"><a xlink:href="classllvm_1_1PointerUnion.html" target="_top" xlink:title=" ">
<polygon fill="white" stroke="#666666" points="498,-659.37 322,-659.37 322,-629.37 498,-629.37 498,-659.37"/>
<text text-anchor="start" x="330" y="-647.37" font-family="Helvetica,sans-Serif" font-size="10.00">llvm::PointerUnion</text>
<text text-anchor="middle" x="410" y="-636.37" font-family="Helvetica,sans-Serif" font-size="10.00">&lt; Operation *, BlockArgument &gt;</text>
</a>
</g>
</g>
<!-- Node1&#45;&gt;Node12 -->
<g id="edge11_Node000001_Node000012" class="edge">
<title>Node1&#45;&gt;Node12</title>
<g id="a_edge11_Node000001_Node000012"><a xlink:title=" ">
<path fill="none" stroke="orange" stroke-dasharray="5,2" d="M115.51,-624.55C172.6,-628.41 257.87,-634.16 321.81,-638.48"/>
<polygon fill="orange" stroke="orange" points="115.41,-621.04 105.19,-623.85 114.93,-628.02 115.41,-621.04"/>
</a>
</g>
<text text-anchor="start" x="132" y="-641.87" font-family="Helvetica,sans-Serif" font-size="10.00" fill="grey">&lt; Operation *, BlockArgument &gt;</text>
</g>
<!-- Node13 -->
<g id="Node000013" class="node">
<title>Node13</title>
<g id="a_Node000013"><a xlink:href="classllvm_1_1PointerUnion.html" target="_top" xlink:title=" ">
<polygon fill="white" stroke="#666666" points="478.5,-611.37 341.5,-611.37 341.5,-581.37 478.5,-581.37 478.5,-611.37"/>
<text text-anchor="start" x="349.5" y="-599.37" font-family="Helvetica,sans-Serif" font-size="10.00">llvm::PointerUnion</text>
<text text-anchor="middle" x="410" y="-588.37" font-family="Helvetica,sans-Serif" font-size="10.00">&lt; Operation *, Block * &gt;</text>
</a>
</g>
</g>
<!-- Node1&#45;&gt;Node13 -->
<g id="edge12_Node000001_Node000013" class="edge">
<title>Node1&#45;&gt;Node13</title>
<g id="a_edge12_Node000001_Node000013"><a xlink:title=" ">
<path fill="none" stroke="orange" stroke-dasharray="5,2" d="M115.32,-605.48C117.91,-605.06 120.47,-604.69 123,-604.37 197.28,-594.87 283.25,-593.79 341.39,-594.5"/>
<polygon fill="orange" stroke="orange" points="114.52,-602.06 105.29,-607.26 115.75,-608.96 114.52,-602.06"/>
</a>
</g>
<text text-anchor="start" x="152" y="-609.87" font-family="Helvetica,sans-Serif" font-size="10.00" fill="grey">&lt; Operation *, Block * &gt;</text>
</g>
<!-- Node14 -->
<g id="Node000014" class="node">
<title>Node14</title>
<g id="a_Node000014"><a xlink:href="classllvm_1_1PointerUnion.html" target="_top" xlink:title=" ">
<polygon fill="white" stroke="#666666" points="481.5,-563.37 338.5,-563.37 338.5,-533.37 481.5,-533.37 481.5,-563.37"/>
<text text-anchor="start" x="346.5" y="-551.37" font-family="Helvetica,sans-Serif" font-size="10.00">llvm::PointerUnion</text>
<text text-anchor="middle" x="410" y="-540.37" font-family="Helvetica,sans-Serif" font-size="10.00">&lt; SymbolRefAttr, Value &gt;</text>
</a>
</g>
</g>
<!-- Node1&#45;&gt;Node14 -->
<g id="edge13_Node000001_Node000014" class="edge">
<title>Node1&#45;&gt;Node14</title>
<g id="a_edge13_Node000001_Node000014"><a xlink:title=" ">
<path fill="none" stroke="orange" stroke-dasharray="5,2" d="M78.17,-598.6C90.72,-588.82 106.74,-578.19 123,-572.37 193.24,-547.2 279.17,-543.26 338.4,-544.33"/>
<polygon fill="orange" stroke="orange" points="75.64,-596.15 70.08,-605.16 80.05,-601.58 75.64,-596.15"/>
</a>
</g>
<text text-anchor="start" x="149" y="-577.87" font-family="Helvetica,sans-Serif" font-size="10.00" fill="grey">&lt; SymbolRefAttr, Value &gt;</text>
</g>
<!-- Node15 -->
<g id="Node000015" class="node">
<title>Node15</title>
<g id="a_Node000015"><a xlink:href="classllvm_1_1PointerUnion.html" target="_top" xlink:title=" ">
<polygon fill="white" stroke="#666666" points="472,-514.87 348,-514.87 348,-473.87 472,-473.87 472,-514.87"/>
<text text-anchor="start" x="356" y="-502.87" font-family="Helvetica,sans-Serif" font-size="10.00">llvm::PointerUnion</text>
<text text-anchor="start" x="356" y="-491.87" font-family="Helvetica,sans-Serif" font-size="10.00">&lt; Operation *, Region</text>
<text text-anchor="middle" x="410" y="-480.87" font-family="Helvetica,sans-Serif" font-size="10.00"> *, Block *, Value &gt;</text>
</a>
</g>
</g>
<!-- Node1&#45;&gt;Node15 -->
<g id="edge14_Node000001_Node000015" class="edge">
<title>Node1&#45;&gt;Node15</title>
<g id="a_edge14_Node000001_Node000015"><a xlink:title=" ">
<path fill="none" stroke="orange" stroke-dasharray="5,2" d="M61.25,-595.27C70.98,-568.56 90.45,-527.53 123,-508.37 191.75,-467.88 286.72,-472.66 348,-481.85"/>
<polygon fill="orange" stroke="orange" points="57.83,-594.48 57.89,-605.07 64.45,-596.75 57.83,-594.48"/>
</a>
</g>
<text text-anchor="start" x="158" y="-529.37" font-family="Helvetica,sans-Serif" font-size="10.00" fill="grey">&lt; Operation *, Region</text>
<text text-anchor="start" x="158" y="-514.37" font-family="Helvetica,sans-Serif" font-size="10.00" fill="grey">   *, Block *, Value &gt;</text>
</g>
<!-- Node16 -->
<g id="Node000016" class="node">
<title>Node16</title>
<g id="a_Node000016"><a xlink:href="classllvm_1_1PointerUnion.html" target="_top" xlink:title=" ">
<polygon fill="white" stroke="#666666" points="491,-455.37 329,-455.37 329,-425.37 491,-425.37 491,-455.37"/>
<text text-anchor="start" x="337" y="-443.37" font-family="Helvetica,sans-Serif" font-size="10.00">llvm::PointerUnion</text>
<text text-anchor="middle" x="410" y="-432.37" font-family="Helvetica,sans-Serif" font-size="10.00">&lt; Value, GEPConstantIndex &gt;</text>
</a>
</g>
</g>
<!-- Node1&#45;&gt;Node16 -->
<g id="edge15_Node000001_Node000016" class="edge">
<title>Node1&#45;&gt;Node16</title>
<g id="a_edge15_Node000001_Node000016"><a xlink:title=" ">
<path fill="none" stroke="orange" stroke-dasharray="5,2" d="M55.89,-594.98C60.95,-557.17 76.44,-487.02 123,-454.37 155.05,-431.89 255.92,-431.77 328.8,-435"/>
<polygon fill="orange" stroke="orange" points="52.39,-594.82 54.68,-605.16 59.34,-595.65 52.39,-594.82"/>
</a>
</g>
<text text-anchor="start" x="139" y="-459.87" font-family="Helvetica,sans-Serif" font-size="10.00" fill="grey">&lt; Value, GEPConstantIndex &gt;</text>
</g>
<!-- Node17 -->
<g id="Node000017" class="node">
<title>Node17</title>
<g id="a_Node000017"><a xlink:href="classllvm_1_1PointerUnion.html" target="_top" xlink:title=" ">
<polygon fill="white" stroke="#666666" points="484.5,-406.87 335.5,-406.87 335.5,-365.87 484.5,-365.87 484.5,-406.87"/>
<text text-anchor="start" x="343.5" y="-394.87" font-family="Helvetica,sans-Serif" font-size="10.00">llvm::PointerUnion</text>
<text text-anchor="start" x="343.5" y="-383.87" font-family="Helvetica,sans-Serif" font-size="10.00">&lt; GenericLatticeAnchor</text>
<text text-anchor="middle" x="410" y="-372.87" font-family="Helvetica,sans-Serif" font-size="10.00"> *, ProgramPoint *, Value &gt;</text>
</a>
</g>
</g>
<!-- Node1&#45;&gt;Node17 -->
<g id="edge16_Node000001_Node000017" class="edge">
<title>Node1&#45;&gt;Node17</title>
<g id="a_edge16_Node000001_Node000017"><a xlink:title=" ">
<path fill="none" stroke="orange" stroke-dasharray="5,2" d="M52.77,-595.12C52.92,-547.5 60.87,-444.94 123,-397.37 182.96,-351.44 272.55,-356.18 335.44,-367.6"/>
<polygon fill="orange" stroke="orange" points="49.27,-595.22 52.85,-605.19 56.27,-595.17 49.27,-595.22"/>
</a>
</g>
<text text-anchor="start" x="143" y="-418.37" font-family="Helvetica,sans-Serif" font-size="10.00" fill="grey">&lt; GenericLatticeAnchor</text>
<text text-anchor="start" x="143" y="-403.37" font-family="Helvetica,sans-Serif" font-size="10.00" fill="grey">   *, ProgramPoint *, Value &gt;</text>
</g>
<!-- Node18 -->
<g id="Node000018" class="node">
<title>Node18</title>
<g id="a_Node000018"><a xlink:href="classllvm_1_1PointerUnion.html" target="_top" xlink:title=" ">
<polygon fill="white" stroke="#666666" points="467.5,-347.37 352.5,-347.37 352.5,-317.37 467.5,-317.37 467.5,-347.37"/>
<text text-anchor="start" x="360.5" y="-335.37" font-family="Helvetica,sans-Serif" font-size="10.00">llvm::PointerUnion</text>
<text text-anchor="middle" x="410" y="-324.37" font-family="Helvetica,sans-Serif" font-size="10.00">&lt; Attribute, Value &gt;</text>
</a>
</g>
</g>
<!-- Node1&#45;&gt;Node18 -->
<g id="edge17_Node000001_Node000018" class="edge">
<title>Node1&#45;&gt;Node18</title>
<g id="a_edge17_Node000001_Node000018"><a xlink:title=" ">
<path fill="none" stroke="orange" stroke-dasharray="5,2" d="M55.9,-594.82C62.41,-531.61 82.71,-370.62 123,-338.37 157.07,-311.09 279.16,-318.44 352.35,-325.72"/>
<polygon fill="orange" stroke="orange" points="52.38,-594.81 54.87,-605.11 59.35,-595.5 52.38,-594.81"/>
</a>
</g>
<text text-anchor="start" x="163" y="-343.87" font-family="Helvetica,sans-Serif" font-size="10.00" fill="grey">&lt; Attribute, Value &gt;</text>
</g>
<!-- Node19 -->
<g id="Node000019" class="node">
<title>Node19</title>
<g id="a_Node000019"><a xlink:href="classllvm_1_1PointerUnion.html" target="_top" xlink:title=" ">
<polygon fill="white" stroke="#666666" points="470.5,-298.87 349.5,-298.87 349.5,-257.87 470.5,-257.87 470.5,-298.87"/>
<text text-anchor="start" x="357.5" y="-286.87" font-family="Helvetica,sans-Serif" font-size="10.00">llvm::PointerUnion</text>
<text text-anchor="start" x="357.5" y="-275.87" font-family="Helvetica,sans-Serif" font-size="10.00">&lt; mlir::Region *, mlir</text>
<text text-anchor="middle" x="410" y="-264.87" font-family="Helvetica,sans-Serif" font-size="10.00">::Operation * &gt;</text>
</a>
</g>
</g>
<!-- Node1&#45;&gt;Node19 -->
<g id="edge18_Node000001_Node000019" class="edge">
<title>Node1&#45;&gt;Node19</title>
<g id="a_edge18_Node000001_Node000019"><a xlink:title=" ">
<path fill="none" stroke="orange" stroke-dasharray="5,2" d="M54.77,-594.72C58.92,-522.88 74.69,-322.32 123,-282.37 156.2,-254.91 275.76,-262.83 349.38,-270.79"/>
<polygon fill="orange" stroke="orange" points="51.25,-594.92 54.2,-605.1 58.24,-595.3 51.25,-594.92"/>
</a>
</g>
<text text-anchor="start" x="160" y="-303.37" font-family="Helvetica,sans-Serif" font-size="10.00" fill="grey">&lt; mlir::Region *, mlir</text>
<text text-anchor="start" x="160" y="-288.37" font-family="Helvetica,sans-Serif" font-size="10.00" fill="grey">  ::Operation * &gt;</text>
</g>
<!-- Node20 -->
<g id="Node000020" class="node">
<title>Node20</title>
<g id="a_Node000020"><a xlink:href="classllvm_1_1PointerUnion.html" target="_top" xlink:title=" ">
<polygon fill="white" stroke="#666666" points="496.5,-239.87 323.5,-239.87 323.5,-198.87 496.5,-198.87 496.5,-239.87"/>
<text text-anchor="start" x="331.5" y="-227.87" font-family="Helvetica,sans-Serif" font-size="10.00">llvm::PointerUnion</text>
<text text-anchor="start" x="331.5" y="-216.87" font-family="Helvetica,sans-Serif" font-size="10.00">&lt; mlir::ShapedTypeComponents</text>
<text text-anchor="middle" x="410" y="-205.87" font-family="Helvetica,sans-Serif" font-size="10.00"> *, mlir::Type, mlir::Attribute &gt;</text>
</a>
</g>
</g>
<!-- Node1&#45;&gt;Node20 -->
<g id="edge19_Node000001_Node000020" class="edge">
<title>Node1&#45;&gt;Node20</title>
<g id="a_edge19_Node000001_Node000020"><a xlink:title=" ">
<path fill="none" stroke="orange" stroke-dasharray="5,2" d="M53.98,-594.81C56.05,-515.29 66.92,-274.6 123,-226.37 152.09,-201.35 250.24,-203.98 323.49,-209.99"/>
<polygon fill="orange" stroke="orange" points="50.48,-594.85 53.74,-604.93 57.47,-595.01 50.48,-594.85"/>
</a>
</g>
<text text-anchor="start" x="134" y="-247.37" font-family="Helvetica,sans-Serif" font-size="10.00" fill="grey">&lt; mlir::ShapedTypeComponents</text>
<text text-anchor="start" x="134" y="-232.37" font-family="Helvetica,sans-Serif" font-size="10.00" fill="grey">   *, mlir::Type, mlir::Attribute &gt;</text>
</g>
<!-- Node21 -->
<g id="Node000021" class="node">
<title>Node21</title>
<g id="a_Node000021"><a xlink:href="classllvm_1_1PointerUnion.html" target="_top" xlink:title=" ">
<polygon fill="white" stroke="#666666" points="492,-180.37 328,-180.37 328,-128.37 492,-128.37 492,-180.37"/>
<text text-anchor="start" x="336" y="-168.37" font-family="Helvetica,sans-Serif" font-size="10.00">llvm::PointerUnion</text>
<text text-anchor="start" x="336" y="-157.37" font-family="Helvetica,sans-Serif" font-size="10.00">&lt; SymbolRefAttr, mlir</text>
<text text-anchor="start" x="336" y="-146.37" font-family="Helvetica,sans-Serif" font-size="10.00">::OpOperand *, mlir::OpResult,</text>
<text text-anchor="middle" x="410" y="-135.37" font-family="Helvetica,sans-Serif" font-size="10.00"> mlir::BlockArgument &gt;</text>
</a>
</g>
</g>
<!-- Node1&#45;&gt;Node21 -->
<g id="edge20_Node000001_Node000021" class="edge">
<title>Node1&#45;&gt;Node21</title>
<g id="a_edge20_Node000001_Node000021"><a xlink:title=" ">
<path fill="none" stroke="orange" stroke-dasharray="5,2" d="M53.16,-594.92C52.59,-506.12 55.86,-212.24 123,-154.37 152.62,-128.84 254.05,-134.72 327.71,-143.03"/>
<polygon fill="orange" stroke="orange" points="49.67,-595.18 53.26,-605.15 56.67,-595.12 49.67,-595.18"/>
</a>
</g>
<text text-anchor="start" x="128" y="-189.87" font-family="Helvetica,sans-Serif" font-size="10.00" fill="grey">&lt; SymbolRefAttr, mlir</text>
<text text-anchor="start" x="128" y="-174.87" font-family="Helvetica,sans-Serif" font-size="10.00" fill="grey">  ::OpOperand *, mlir::</text>
<text text-anchor="start" x="128" y="-159.87" font-family="Helvetica,sans-Serif" font-size="10.00" fill="grey">  OpResult, mlir::BlockArgument &gt;</text>
</g>
<!-- Node22 -->
<g id="Node000022" class="node">
<title>Node22</title>
<g id="a_Node000022"><a xlink:href="classllvm_1_1PointerUnion.html" target="_top" xlink:title=" ">
<polygon fill="white" stroke="#666666" points="471,-109.87 349,-109.87 349,-68.87 471,-68.87 471,-109.87"/>
<text text-anchor="start" x="357" y="-97.87" font-family="Helvetica,sans-Serif" font-size="10.00">llvm::PointerUnion</text>
<text text-anchor="start" x="357" y="-86.87" font-family="Helvetica,sans-Serif" font-size="10.00">&lt; mlir::Attribute, mlir</text>
<text text-anchor="middle" x="410" y="-75.87" font-family="Helvetica,sans-Serif" font-size="10.00">::Type &gt;</text>
</a>
</g>
</g>
<!-- Node1&#45;&gt;Node22 -->
<g id="edge21_Node000001_Node000022" class="edge">
<title>Node1&#45;&gt;Node22</title>
<g id="a_edge21_Node000001_Node000022"><a xlink:title=" ">
<path fill="none" stroke="orange" stroke-dasharray="5,2" d="M54.99,-595.02C61.11,-495.21 85.74,-133.15 123,-99.37 154.93,-70.41 274.95,-76.11 348.98,-82.79"/>
<polygon fill="orange" stroke="orange" points="51.49,-594.91 54.38,-605.1 58.48,-595.33 51.49,-594.91"/>
</a>
</g>
<text text-anchor="start" x="171" y="-120.37" font-family="Helvetica,sans-Serif" font-size="10.00" fill="grey">&lt; mlir::Attribute,</text>
<text text-anchor="start" x="171" y="-105.37" font-family="Helvetica,sans-Serif" font-size="10.00" fill="grey">   mlir::Type &gt;</text>
</g>
<!-- Node23 -->
<g id="Node000023" class="node">
<title>Node23</title>
<g id="a_Node000023"><a xlink:href="classllvm_1_1PointerUnion.html" target="_top" xlink:title=" ">
<polygon fill="white" stroke="#666666" points="501,-50.87 319,-50.87 319,-9.87 501,-9.87 501,-50.87"/>
<text text-anchor="start" x="327" y="-38.87" font-family="Helvetica,sans-Serif" font-size="10.00">llvm::PointerUnion</text>
<text text-anchor="start" x="327" y="-27.87" font-family="Helvetica,sans-Serif" font-size="10.00">&lt; mlir::detail::NestedAnalysis</text>
<text text-anchor="middle" x="410" y="-16.87" font-family="Helvetica,sans-Serif" font-size="10.00">Map *, mlir::PassInstrumentor * &gt;</text>
</a>
</g>
</g>
<!-- Node1&#45;&gt;Node23 -->
<g id="edge22_Node000001_Node000023" class="edge">
<title>Node1&#45;&gt;Node23</title>
<g id="a_edge22_Node000001_Node000023"><a xlink:title=" ">
<path fill="none" stroke="orange" stroke-dasharray="5,2" d="M54.65,-595.05C59.72,-488.54 81.75,-80.52 123,-42.37 179.18,9.61 271.26,3.39 335.73,-9.81"/>
<polygon fill="orange" stroke="orange" points="51.14,-595.04 54.17,-605.2 58.14,-595.37 51.14,-595.04"/>
</a>
</g>
<text text-anchor="start" x="126" y="-63.37" font-family="Helvetica,sans-Serif" font-size="10.00" fill="grey">&lt; mlir::detail::NestedAnalysis</text>
<text text-anchor="start" x="126" y="-48.37" font-family="Helvetica,sans-Serif" font-size="10.00" fill="grey">  Map *, mlir::PassInstrumentor * &gt;</text>
</g>
</g>
</svg>
