<?xml version="1.0" encoding="UTF-8" standalone="no"?>
<!DOCTYPE svg PUBLIC "-//W3C//DTD SVG 1.1//EN"
 "http://www.w3.org/Graphics/SVG/1.1/DTD/svg11.dtd">
<!-- Generated by graphviz version 2.43.0 (0)
 -->
<!-- Title: SpecifierGetterSetterOpConverter&lt; Base, SourceOp &gt; Pages: 1 -->
<svg width="1416pt" height="110pt"
 viewBox="0.00 0.00 1416.00 110.00" xmlns="http://www.w3.org/2000/svg" xmlns:xlink="http://www.w3.org/1999/xlink">
<g id="graph0" class="graph" transform="scale(1 1) rotate(0) translate(4 106)">
<title>SpecifierGetterSetterOpConverter&lt; Base, SourceOp &gt;</title>
<!-- Node1 -->
<g id="node1" class="node">
<title>Node1</title>
<g id="a_node1"><a xlink:title=" ">
<polygon fill="#bfbfbf" stroke="black" points="615,-35 615,-65 795,-65 795,-35 615,-35"/>
<text text-anchor="start" x="623" y="-53" font-family="Helvetica,sans-Serif" font-size="10.00">SpecifierGetterSetterOpConverter</text>
<text text-anchor="middle" x="705" y="-42" font-family="Helvetica,sans-Serif" font-size="10.00">&lt; Base, SourceOp &gt;</text>
</a>
</g>
</g>
<!-- Node6 -->
<g id="node6" class="node">
<title>Node6</title>
<g id="a_node6"><a xlink:href="classSpecifierGetterSetterOpConverter.html" target="_top" xlink:title=" ">
<polygon fill="none" stroke="black" points="1007.5,-60.5 1007.5,-101.5 1195.5,-101.5 1195.5,-60.5 1007.5,-60.5"/>
<text text-anchor="start" x="1015.5" y="-89.5" font-family="Helvetica,sans-Serif" font-size="10.00">SpecifierGetterSetterOpConverter</text>
<text text-anchor="start" x="1015.5" y="-78.5" font-family="Helvetica,sans-Serif" font-size="10.00">&lt; StorageSpecifierSetOpConverter,</text>
<text text-anchor="middle" x="1101.5" y="-67.5" font-family="Helvetica,sans-Serif" font-size="10.00"> SetStorageSpecifierOp &gt;</text>
</a>
</g>
</g>
<!-- Node1&#45;&gt;Node6 -->
<g id="edge5" class="edge">
<title>Node1&#45;&gt;Node6</title>
<path fill="none" stroke="orange" stroke-dasharray="5,2" d="M805.21,-57.8C867.2,-62.67 946.52,-68.9 1007.34,-73.68"/>
<polygon fill="orange" stroke="orange" points="805.27,-54.29 795.03,-57 804.72,-61.27 805.27,-54.29"/>
<text text-anchor="start" x="813.5" y="-85" font-family="Helvetica,sans-Serif" font-size="10.00"> &lt; StorageSpecifierSetOpConverter,</text>
<text text-anchor="middle" x="901" y="-74" font-family="Helvetica,sans-Serif" font-size="10.00"> SetStorageSpecifierOp &gt;</text>
</g>
<!-- Node8 -->
<g id="node8" class="node">
<title>Node8</title>
<g id="a_node8"><a xlink:href="classSpecifierGetterSetterOpConverter.html" target="_top" xlink:title=" ">
<polygon fill="none" stroke="black" points="1007,-0.5 1007,-41.5 1196,-41.5 1196,-0.5 1007,-0.5"/>
<text text-anchor="start" x="1015" y="-29.5" font-family="Helvetica,sans-Serif" font-size="10.00">SpecifierGetterSetterOpConverter</text>
<text text-anchor="start" x="1015" y="-18.5" font-family="Helvetica,sans-Serif" font-size="10.00">&lt; StorageSpecifierGetOpConverter,</text>
<text text-anchor="middle" x="1101.5" y="-7.5" font-family="Helvetica,sans-Serif" font-size="10.00"> GetStorageSpecifierOp &gt;</text>
</a>
</g>
</g>
<!-- Node1&#45;&gt;Node8 -->
<g id="edge7" class="edge">
<title>Node1&#45;&gt;Node8</title>
<path fill="none" stroke="orange" stroke-dasharray="5,2" d="M805.3,-33.82C807.89,-33.53 810.46,-33.25 813,-33 877.5,-26.55 950.47,-23.56 1006.76,-22.17"/>
<polygon fill="orange" stroke="orange" points="804.74,-30.36 795.23,-35.03 805.57,-37.31 804.74,-30.36"/>
<text text-anchor="start" x="813" y="-47" font-family="Helvetica,sans-Serif" font-size="10.00"> &lt; StorageSpecifierGetOpConverter,</text>
<text text-anchor="middle" x="901" y="-36" font-family="Helvetica,sans-Serif" font-size="10.00"> GetStorageSpecifierOp &gt;</text>
</g>
<!-- Node2 -->
<g id="node2" class="node">
<title>Node2</title>
<g id="a_node2"><a xlink:href="classmlir_1_1OpConversionPattern.html" target="_top" xlink:title="OpConversionPattern is a wrapper around ConversionPattern that allows for matching and rewriting agai...">
<polygon fill="none" stroke="black" points="433,-35 433,-65 578,-65 578,-35 433,-35"/>
<text text-anchor="start" x="441" y="-53" font-family="Helvetica,sans-Serif" font-size="10.00">mlir::OpConversionPattern</text>
<text text-anchor="middle" x="505.5" y="-42" font-family="Helvetica,sans-Serif" font-size="10.00">&lt; SourceOp &gt;</text>
</a>
</g>
</g>
<!-- Node2&#45;&gt;Node1 -->
<g id="edge1" class="edge">
<title>Node2&#45;&gt;Node1</title>
<path fill="none" stroke="midnightblue" d="M588.26,-50C597.02,-50 605.96,-50 614.8,-50"/>
<polygon fill="midnightblue" stroke="midnightblue" points="588.08,-46.5 578.08,-50 588.08,-53.5 588.08,-46.5"/>
</g>
<!-- Node3 -->
<g id="node3" class="node">
<title>Node3</title>
<g id="a_node3"><a xlink:href="classmlir_1_1ConversionPattern.html" target="_top" xlink:title="Base class for the conversion patterns.">
<polygon fill="none" stroke="black" points="265,-40.5 265,-59.5 396,-59.5 396,-40.5 265,-40.5"/>
<text text-anchor="middle" x="330.5" y="-47.5" font-family="Helvetica,sans-Serif" font-size="10.00">mlir::ConversionPattern</text>
</a>
</g>
</g>
<!-- Node3&#45;&gt;Node2 -->
<g id="edge2" class="edge">
<title>Node3&#45;&gt;Node2</title>
<path fill="none" stroke="midnightblue" d="M406.56,-50C415.28,-50 424.17,-50 432.84,-50"/>
<polygon fill="midnightblue" stroke="midnightblue" points="406.41,-46.5 396.41,-50 406.41,-53.5 406.41,-46.5"/>
</g>
<!-- Node4 -->
<g id="node4" class="node">
<title>Node4</title>
<g id="a_node4"><a xlink:href="classmlir_1_1RewritePattern.html" target="_top" xlink:title="RewritePattern is the common base class for all DAG to DAG replacements.">
<polygon fill="none" stroke="black" points="114,-40.5 114,-59.5 228,-59.5 228,-40.5 114,-40.5"/>
<text text-anchor="middle" x="171" y="-47.5" font-family="Helvetica,sans-Serif" font-size="10.00">mlir::RewritePattern</text>
</a>
</g>
</g>
<!-- Node4&#45;&gt;Node3 -->
<g id="edge3" class="edge">
<title>Node4&#45;&gt;Node3</title>
<path fill="none" stroke="midnightblue" d="M238.54,-50C247.27,-50 256.21,-50 264.9,-50"/>
<polygon fill="midnightblue" stroke="midnightblue" points="238.42,-46.5 228.42,-50 238.42,-53.5 238.42,-46.5"/>
</g>
<!-- Node5 -->
<g id="node5" class="node">
<title>Node5</title>
<g id="a_node5"><a xlink:href="classmlir_1_1Pattern.html" target="_top" xlink:title="This class contains all of the data related to a pattern, but does not contain any methods or logic f...">
<polygon fill="none" stroke="black" points="0,-40.5 0,-59.5 77,-59.5 77,-40.5 0,-40.5"/>
<text text-anchor="middle" x="38.5" y="-47.5" font-family="Helvetica,sans-Serif" font-size="10.00">mlir::Pattern</text>
</a>
</g>
</g>
<!-- Node5&#45;&gt;Node4 -->
<g id="edge4" class="edge">
<title>Node5&#45;&gt;Node4</title>
<path fill="none" stroke="midnightblue" d="M87.47,-50C96.06,-50 105.09,-50 113.89,-50"/>
<polygon fill="midnightblue" stroke="midnightblue" points="87.25,-46.5 77.25,-50 87.25,-53.5 87.25,-46.5"/>
</g>
<!-- Node7 -->
<g id="node7" class="node">
<title>Node7</title>
<g id="a_node7"><a xlink:href="structStorageSpecifierSetOpConverter.html" target="_top" xlink:title=" ">
<polygon fill="none" stroke="black" points="1234,-71.5 1234,-90.5 1407,-90.5 1407,-71.5 1234,-71.5"/>
<text text-anchor="middle" x="1320.5" y="-78.5" font-family="Helvetica,sans-Serif" font-size="10.00">StorageSpecifierSetOpConverter</text>
</a>
</g>
</g>
<!-- Node6&#45;&gt;Node7 -->
<g id="edge6" class="edge">
<title>Node6&#45;&gt;Node7</title>
<path fill="none" stroke="midnightblue" d="M1205.9,-81C1215.25,-81 1224.66,-81 1233.83,-81"/>
<polygon fill="midnightblue" stroke="midnightblue" points="1205.79,-77.5 1195.79,-81 1205.79,-84.5 1205.79,-77.5"/>
</g>
<!-- Node9 -->
<g id="node9" class="node">
<title>Node9</title>
<g id="a_node9"><a xlink:href="structStorageSpecifierGetOpConverter.html" target="_top" xlink:title=" ">
<polygon fill="none" stroke="black" points="1233,-11.5 1233,-30.5 1408,-30.5 1408,-11.5 1233,-11.5"/>
<text text-anchor="middle" x="1320.5" y="-18.5" font-family="Helvetica,sans-Serif" font-size="10.00">StorageSpecifierGetOpConverter</text>
</a>
</g>
</g>
<!-- Node8&#45;&gt;Node9 -->
<g id="edge8" class="edge">
<title>Node8&#45;&gt;Node9</title>
<path fill="none" stroke="midnightblue" d="M1206.12,-21C1215.02,-21 1223.97,-21 1232.72,-21"/>
<polygon fill="midnightblue" stroke="midnightblue" points="1206.1,-17.5 1196.1,-21 1206.1,-24.5 1206.1,-17.5"/>
</g>
</g>
</svg>
