<?xml version="1.0" encoding="UTF-8" standalone="no"?>
<!DOCTYPE svg PUBLIC "-//W3C//DTD SVG 1.1//EN"
 "http://www.w3.org/Graphics/SVG/1.1/DTD/svg11.dtd">
<!-- Generated by graphviz version 2.43.0 (0)
 -->
<!-- Title: mlir::transform::NavigationTransformOpTrait&lt; OpTy &gt; Pages: 1 -->
<svg width="261pt" height="203pt"
 viewBox="0.00 0.00 261.00 203.00" xmlns="http://www.w3.org/2000/svg" xmlns:xlink="http://www.w3.org/1999/xlink">
<g id="graph0" class="graph" transform="scale(1 1) rotate(0) translate(4 199)">
<title>mlir::transform::NavigationTransformOpTrait&lt; OpTy &gt;</title>
<!-- Node1 -->
<g id="Node000001" class="node">
<title>Node1</title>
<g id="a_Node000001"><a xlink:title="Trait implementing the MemoryEffectOpInterface for operations that use their operands without consumi...">
<polygon fill="#999999" stroke="#666666" points="177.5,-30 28.5,-30 28.5,0 177.5,0 177.5,-30"/>
<text text-anchor="start" x="36.5" y="-18" font-family="Helvetica,sans-Serif" font-size="10.00">mlir::transform::Navigation</text>
<text text-anchor="middle" x="103" y="-7" font-family="Helvetica,sans-Serif" font-size="10.00">TransformOpTrait&lt; OpTy &gt;</text>
</a>
</g>
</g>
<!-- Node2 -->
<g id="Node000002" class="node">
<title>Node2</title>
<g id="a_Node000002"><a xlink:href="classmlir_1_1OpTrait_1_1TraitBase.html" target="_top" xlink:title=" ">
<polygon fill="white" stroke="#666666" points="206,-97 0,-97 0,-67 206,-67 206,-97"/>
<text text-anchor="start" x="8" y="-85" font-family="Helvetica,sans-Serif" font-size="10.00">mlir::OpTrait::TraitBase</text>
<text text-anchor="middle" x="103" y="-74" font-family="Helvetica,sans-Serif" font-size="10.00">&lt; OpTy, NavigationTransformOpTrait &gt;</text>
</a>
</g>
</g>
<!-- Node2&#45;&gt;Node1 -->
<g id="edge1_Node000001_Node000002" class="edge">
<title>Node2&#45;&gt;Node1</title>
<g id="a_edge1_Node000001_Node000002"><a xlink:title=" ">
<path fill="none" stroke="#63b8ff" d="M103,-56.61C103,-47.65 103,-37.82 103,-30.08"/>
<polygon fill="#63b8ff" stroke="#63b8ff" points="99.5,-56.9 103,-66.9 106.5,-56.9 99.5,-56.9"/>
</a>
</g>
</g>
<!-- Node3 -->
<g id="Node000003" class="node">
<title>Node3</title>
<g id="a_Node000003"><a xlink:href="classmlir_1_1OpTrait_1_1TraitBase.html" target="_top" xlink:title="Helper class for implementing traits.">
<polygon fill="white" stroke="#666666" points="180.5,-195 25.5,-195 25.5,-165 180.5,-165 180.5,-195"/>
<text text-anchor="start" x="33.5" y="-183" font-family="Helvetica,sans-Serif" font-size="10.00">mlir::OpTrait::TraitBase</text>
<text text-anchor="middle" x="103" y="-172" font-family="Helvetica,sans-Serif" font-size="10.00">&lt; ConcreteType, TraitType &gt;</text>
</a>
</g>
</g>
<!-- Node3&#45;&gt;Node2 -->
<g id="edge2_Node000002_Node000003" class="edge">
<title>Node3&#45;&gt;Node2</title>
<g id="a_edge2_Node000002_Node000003"><a xlink:title=" ">
<path fill="none" stroke="orange" stroke-dasharray="5,2" d="M103,-154.7C103,-136.55 103,-112.35 103,-97.22"/>
<polygon fill="orange" stroke="orange" points="99.5,-154.83 103,-164.83 106.5,-154.83 99.5,-154.83"/>
</a>
</g>
<text text-anchor="start" x="106" y="-136" font-family="Helvetica,sans-Serif" font-size="10.00" fill="grey">&lt; OpTy, NavigationTransform</text>
<text text-anchor="start" x="106" y="-121" font-family="Helvetica,sans-Serif" font-size="10.00" fill="grey">  OpTrait &gt;</text>
</g>
</g>
</svg>
