<?xml version="1.0" encoding="UTF-8" standalone="no"?>
<!DOCTYPE svg PUBLIC "-//W3C//DTD SVG 1.1//EN"
 "http://www.w3.org/Graphics/SVG/1.1/DTD/svg11.dtd">
<!-- Generated by graphviz version 2.43.0 (0)
 -->
<!-- Title: mlir::OpTrait::InferTypeOpAdaptor&lt; ConcreteType &gt; Pages: 1 -->
<svg width="247pt" height="203pt"
 viewBox="0.00 0.00 247.00 203.00" xmlns="http://www.w3.org/2000/svg" xmlns:xlink="http://www.w3.org/1999/xlink">
<g id="graph0" class="graph" transform="scale(1 1) rotate(0) translate(4 199)">
<title>mlir::OpTrait::InferTypeOpAdaptor&lt; ConcreteType &gt;</title>
<!-- Node1 -->
<g id="Node000001" class="node">
<title>Node1</title>
<g id="a_Node000001"><a xlink:title=" ">
<polygon fill="#999999" stroke="#666666" points="182.5,-30 25.5,-30 25.5,0 182.5,0 182.5,-30"/>
<text text-anchor="start" x="33.5" y="-18" font-family="Helvetica,sans-Serif" font-size="10.00">mlir::OpTrait::InferType</text>
<text text-anchor="middle" x="104" y="-7" font-family="Helvetica,sans-Serif" font-size="10.00">OpAdaptor&lt; ConcreteType &gt;</text>
</a>
</g>
</g>
<!-- Node2 -->
<g id="Node000002" class="node">
<title>Node2</title>
<g id="a_Node000002"><a xlink:href="classmlir_1_1OpTrait_1_1TraitBase.html" target="_top" xlink:title=" ">
<polygon fill="white" stroke="#666666" points="208,-97 0,-97 0,-67 208,-67 208,-97"/>
<text text-anchor="start" x="8" y="-85" font-family="Helvetica,sans-Serif" font-size="10.00">mlir::OpTrait::TraitBase</text>
<text text-anchor="middle" x="104" y="-74" font-family="Helvetica,sans-Serif" font-size="10.00">&lt; ConcreteType, InferTypeOpAdaptor &gt;</text>
</a>
</g>
</g>
<!-- Node2&#45;&gt;Node1 -->
<g id="edge1_Node000001_Node000002" class="edge">
<title>Node2&#45;&gt;Node1</title>
<g id="a_edge1_Node000001_Node000002"><a xlink:title=" ">
<path fill="none" stroke="#63b8ff" d="M104,-56.61C104,-47.65 104,-37.82 104,-30.08"/>
<polygon fill="#63b8ff" stroke="#63b8ff" points="100.5,-56.9 104,-66.9 107.5,-56.9 100.5,-56.9"/>
</a>
</g>
</g>
<!-- Node3 -->
<g id="Node000003" class="node">
<title>Node3</title>
<g id="a_Node000003"><a xlink:href="classmlir_1_1OpTrait_1_1TraitBase.html" target="_top" xlink:title="Helper class for implementing traits.">
<polygon fill="white" stroke="#666666" points="181.5,-195 26.5,-195 26.5,-165 181.5,-165 181.5,-195"/>
<text text-anchor="start" x="34.5" y="-183" font-family="Helvetica,sans-Serif" font-size="10.00">mlir::OpTrait::TraitBase</text>
<text text-anchor="middle" x="104" y="-172" font-family="Helvetica,sans-Serif" font-size="10.00">&lt; ConcreteType, TraitType &gt;</text>
</a>
</g>
</g>
<!-- Node3&#45;&gt;Node2 -->
<g id="edge2_Node000002_Node000003" class="edge">
<title>Node3&#45;&gt;Node2</title>
<g id="a_edge2_Node000002_Node000003"><a xlink:title=" ">
<path fill="none" stroke="orange" stroke-dasharray="5,2" d="M104,-154.7C104,-136.55 104,-112.35 104,-97.22"/>
<polygon fill="orange" stroke="orange" points="100.5,-154.83 104,-164.83 107.5,-154.83 100.5,-154.83"/>
</a>
</g>
<text text-anchor="start" x="107.5" y="-136" font-family="Helvetica,sans-Serif" font-size="10.00" fill="grey">&lt; ConcreteType, InferType</text>
<text text-anchor="start" x="107.5" y="-121" font-family="Helvetica,sans-Serif" font-size="10.00" fill="grey">  OpAdaptor &gt;</text>
</g>
</g>
</svg>
