<?xml version="1.0" encoding="UTF-8" standalone="no"?>
<!DOCTYPE svg PUBLIC "-//W3C//DTD SVG 1.1//EN"
 "http://www.w3.org/Graphics/SVG/1.1/DTD/svg11.dtd">
<!-- Generated by graphviz version 2.43.0 (0)
 -->
<!-- Title: mlir::python::MLIR_BINDINGS_PYTHON_DOMAIN::PyOpOperandList Pages: 1 -->
<svg width="195pt" height="214pt"
 viewBox="0.00 0.00 195.00 214.00" xmlns="http://www.w3.org/2000/svg" xmlns:xlink="http://www.w3.org/1999/xlink">
<g id="graph0" class="graph" transform="scale(1 1) rotate(0) translate(4 210)">
<title>mlir::python::MLIR_BINDINGS_PYTHON_DOMAIN::PyOpOperandList</title>
<!-- Node1 -->
<g id="Node000001" class="node">
<title>Node1</title>
<g id="a_Node000001"><a xlink:title="A list of operation operands.">
<polygon fill="#999999" stroke="#666666" points="163.5,-41 0.5,-41 0.5,0 163.5,0 163.5,-41"/>
<text text-anchor="start" x="8.5" y="-29" font-family="Helvetica,sans-Serif" font-size="10.00">mlir::python::MLIR</text>
<text text-anchor="start" x="8.5" y="-18" font-family="Helvetica,sans-Serif" font-size="10.00">_BINDINGS_PYTHON_DOMAIN</text>
<text text-anchor="middle" x="82" y="-7" font-family="Helvetica,sans-Serif" font-size="10.00">::PyOpOperandList</text>
</a>
</g>
</g>
<!-- Node2 -->
<g id="Node000002" class="node">
<title>Node2</title>
<g id="a_Node000002"><a xlink:href="classmlir_1_1Sliceable.html" target="_top" xlink:title=" ">
<polygon fill="white" stroke="#666666" points="164,-108 0,-108 0,-78 164,-78 164,-108"/>
<text text-anchor="start" x="8" y="-96" font-family="Helvetica,sans-Serif" font-size="10.00">mlir::Sliceable&lt; PyOpOperand</text>
<text text-anchor="middle" x="82" y="-85" font-family="Helvetica,sans-Serif" font-size="10.00">List, PyValue &gt;</text>
</a>
</g>
</g>
<!-- Node2&#45;&gt;Node1 -->
<g id="edge1_Node000001_Node000002" class="edge">
<title>Node2&#45;&gt;Node1</title>
<g id="a_edge1_Node000001_Node000002"><a xlink:title=" ">
<path fill="none" stroke="#63b8ff" d="M82,-67.48C82,-58.85 82,-49.26 82,-41.09"/>
<polygon fill="#63b8ff" stroke="#63b8ff" points="78.5,-67.73 82,-77.73 85.5,-67.73 78.5,-67.73"/>
</a>
</g>
</g>
<!-- Node3 -->
<g id="Node000003" class="node">
<title>Node3</title>
<g id="a_Node000003"><a xlink:href="classmlir_1_1Sliceable.html" target="_top" xlink:title="A CRTP base class for pseudo&#45;containers willing to support Python&#45;type slicing access on top of index...">
<polygon fill="white" stroke="#666666" points="151.5,-206 12.5,-206 12.5,-176 151.5,-176 151.5,-206"/>
<text text-anchor="start" x="20.5" y="-194" font-family="Helvetica,sans-Serif" font-size="10.00">mlir::Sliceable&lt; Derived,</text>
<text text-anchor="middle" x="82" y="-183" font-family="Helvetica,sans-Serif" font-size="10.00"> ElementTy &gt;</text>
</a>
</g>
</g>
<!-- Node3&#45;&gt;Node2 -->
<g id="edge2_Node000002_Node000003" class="edge">
<title>Node3&#45;&gt;Node2</title>
<g id="a_edge2_Node000002_Node000003"><a xlink:title=" ">
<path fill="none" stroke="orange" stroke-dasharray="5,2" d="M82,-165.7C82,-147.55 82,-123.35 82,-108.22"/>
<polygon fill="orange" stroke="orange" points="78.5,-165.83 82,-175.83 85.5,-165.83 78.5,-165.83"/>
</a>
</g>
<text text-anchor="start" x="85.5" y="-147" font-family="Helvetica,sans-Serif" font-size="10.00" fill="grey">&lt; PyOpOperandList,</text>
<text text-anchor="start" x="85.5" y="-132" font-family="Helvetica,sans-Serif" font-size="10.00" fill="grey">   PyValue &gt;</text>
</g>
</g>
</svg>
