<?xml version="1.0" encoding="UTF-8" standalone="no"?>
<!DOCTYPE svg PUBLIC "-//W3C//DTD SVG 1.1//EN"
 "http://www.w3.org/Graphics/SVG/1.1/DTD/svg11.dtd">
<!-- Generated by graphviz version 2.43.0 (0)
 -->
<!-- Title: mlir::python::DefaultingPyMlirContext Pages: 1 -->
<svg width="222pt" height="207pt"
 viewBox="0.00 0.00 221.50 207.00" xmlns="http://www.w3.org/2000/svg" xmlns:xlink="http://www.w3.org/1999/xlink">
<g id="graph0" class="graph" transform="scale(1 1) rotate(0) translate(4 203)">
<title>mlir::python::DefaultingPyMlirContext</title>
<!-- Node1 -->
<g id="node1" class="node">
<title>Node1</title>
<g id="a_node1"><a xlink:title="Used in function arguments when None should resolve to the current context manager set instance.">
<polygon fill="#bfbfbf" stroke="black" points="9,-0.5 9,-30.5 142,-30.5 142,-0.5 9,-0.5"/>
<text text-anchor="start" x="17" y="-18.5" font-family="Helvetica,sans-Serif" font-size="10.00">mlir::python::Defaulting</text>
<text text-anchor="middle" x="75.5" y="-7.5" font-family="Helvetica,sans-Serif" font-size="10.00">PyMlirContext</text>
</a>
</g>
</g>
<!-- Node2 -->
<g id="node2" class="node">
<title>Node2</title>
<g id="a_node2"><a xlink:href="classmlir_1_1python_1_1Defaulting.html" target="_top" xlink:title=" ">
<polygon fill="none" stroke="black" points="0,-68.5 0,-109.5 151,-109.5 151,-68.5 0,-68.5"/>
<text text-anchor="start" x="8" y="-97.5" font-family="Helvetica,sans-Serif" font-size="10.00">mlir::python::Defaulting</text>
<text text-anchor="start" x="8" y="-86.5" font-family="Helvetica,sans-Serif" font-size="10.00">&lt; DefaultingPyMlirContext,</text>
<text text-anchor="middle" x="75.5" y="-75.5" font-family="Helvetica,sans-Serif" font-size="10.00"> PyMlirContext &gt;</text>
</a>
</g>
</g>
<!-- Node2&#45;&gt;Node1 -->
<g id="edge1" class="edge">
<title>Node2&#45;&gt;Node1</title>
<path fill="none" stroke="midnightblue" d="M75.5,-58.16C75.5,-48.69 75.5,-38.65 75.5,-30.8"/>
<polygon fill="midnightblue" stroke="midnightblue" points="72,-58.46 75.5,-68.46 79,-58.46 72,-58.46"/>
</g>
<!-- Node3 -->
<g id="node3" class="node">
<title>Node3</title>
<g id="a_node3"><a xlink:href="classmlir_1_1python_1_1Defaulting.html" target="_top" xlink:title="CRTP template for special wrapper types that are allowed to be passed in as &#39;None&#39; function arguments...">
<polygon fill="none" stroke="black" points="9,-168.5 9,-198.5 142,-198.5 142,-168.5 9,-168.5"/>
<text text-anchor="start" x="17" y="-186.5" font-family="Helvetica,sans-Serif" font-size="10.00">mlir::python::Defaulting</text>
<text text-anchor="middle" x="75.5" y="-175.5" font-family="Helvetica,sans-Serif" font-size="10.00">&lt; DerivedTy, T &gt;</text>
</a>
</g>
</g>
<!-- Node3&#45;&gt;Node2 -->
<g id="edge2" class="edge">
<title>Node3&#45;&gt;Node2</title>
<path fill="none" stroke="orange" stroke-dasharray="5,2" d="M75.5,-158.28C75.5,-143.14 75.5,-123.88 75.5,-109.68"/>
<polygon fill="orange" stroke="orange" points="72,-158.45 75.5,-168.45 79,-158.45 72,-158.45"/>
<text text-anchor="start" x="75.5" y="-142" font-family="Helvetica,sans-Serif" font-size="10.00"> &lt; DefaultingPyMlirContext,</text>
<text text-anchor="middle" x="144.5" y="-131" font-family="Helvetica,sans-Serif" font-size="10.00"> PyMlirContext &gt;</text>
</g>
</g>
</svg>
