<?xml version="1.0" encoding="UTF-8" standalone="no"?>
<!DOCTYPE svg PUBLIC "-//W3C//DTD SVG 1.1//EN"
 "http://www.w3.org/Graphics/SVG/1.1/DTD/svg11.dtd">
<!-- Generated by graphviz version 2.43.0 (0)
 -->
<!-- Title: mlir::OpTrait::ResultsBroadcastableShape&lt; ConcreteType &gt; Pages: 1 -->
<svg width="304pt" height="207pt"
 viewBox="0.00 0.00 304.00 207.00" xmlns="http://www.w3.org/2000/svg" xmlns:xlink="http://www.w3.org/1999/xlink">
<g id="graph0" class="graph" transform="scale(1 1) rotate(0) translate(4 203)">
<title>mlir::OpTrait::ResultsBroadcastableShape&lt; ConcreteType &gt;</title>
<!-- Node1 -->
<g id="node1" class="node">
<title>Node1</title>
<g id="a_node1"><a xlink:title="Trait for ops that are known to have broadcast compatible operands and result types.">
<polygon fill="#bfbfbf" stroke="black" points="9,-0.5 9,-30.5 197,-30.5 197,-0.5 9,-0.5"/>
<text text-anchor="start" x="17" y="-18.5" font-family="Helvetica,sans-Serif" font-size="10.00">mlir::OpTrait::ResultsBroadcastable</text>
<text text-anchor="middle" x="103" y="-7.5" font-family="Helvetica,sans-Serif" font-size="10.00">Shape&lt; ConcreteType &gt;</text>
</a>
</g>
</g>
<!-- Node2 -->
<g id="node2" class="node">
<title>Node2</title>
<g id="a_node2"><a xlink:href="classmlir_1_1OpTrait_1_1TraitBase.html" target="_top" xlink:title=" ">
<polygon fill="none" stroke="black" points="0,-68.5 0,-109.5 206,-109.5 206,-68.5 0,-68.5"/>
<text text-anchor="start" x="8" y="-97.5" font-family="Helvetica,sans-Serif" font-size="10.00">mlir::OpTrait::TraitBase</text>
<text text-anchor="start" x="8" y="-86.5" font-family="Helvetica,sans-Serif" font-size="10.00">&lt; ConcreteType, ResultsBroadcastable</text>
<text text-anchor="middle" x="103" y="-75.5" font-family="Helvetica,sans-Serif" font-size="10.00">Shape &gt;</text>
</a>
</g>
</g>
<!-- Node2&#45;&gt;Node1 -->
<g id="edge1" class="edge">
<title>Node2&#45;&gt;Node1</title>
<path fill="none" stroke="midnightblue" d="M103,-58.16C103,-48.69 103,-38.65 103,-30.8"/>
<polygon fill="midnightblue" stroke="midnightblue" points="99.5,-58.46 103,-68.46 106.5,-58.46 99.5,-58.46"/>
</g>
<!-- Node3 -->
<g id="node3" class="node">
<title>Node3</title>
<g id="a_node3"><a xlink:href="classmlir_1_1OpTrait_1_1TraitBase.html" target="_top" xlink:title="Helper class for implementing traits.">
<polygon fill="none" stroke="black" points="25.5,-168.5 25.5,-198.5 180.5,-198.5 180.5,-168.5 25.5,-168.5"/>
<text text-anchor="start" x="33.5" y="-186.5" font-family="Helvetica,sans-Serif" font-size="10.00">mlir::OpTrait::TraitBase</text>
<text text-anchor="middle" x="103" y="-175.5" font-family="Helvetica,sans-Serif" font-size="10.00">&lt; ConcreteType, TraitType &gt;</text>
</a>
</g>
</g>
<!-- Node3&#45;&gt;Node2 -->
<g id="edge2" class="edge">
<title>Node3&#45;&gt;Node2</title>
<path fill="none" stroke="orange" stroke-dasharray="5,2" d="M103,-158.28C103,-143.14 103,-123.88 103,-109.68"/>
<polygon fill="orange" stroke="orange" points="99.5,-158.45 103,-168.45 106.5,-158.45 99.5,-158.45"/>
<text text-anchor="start" x="103" y="-142" font-family="Helvetica,sans-Serif" font-size="10.00"> &lt; ConcreteType, ResultsBroadcastable</text>
<text text-anchor="middle" x="199.5" y="-131" font-family="Helvetica,sans-Serif" font-size="10.00">Shape &gt;</text>
</g>
</g>
</svg>
