<?xml version="1.0" encoding="UTF-8" standalone="no"?>
<!DOCTYPE svg PUBLIC "-//W3C//DTD SVG 1.1//EN"
 "http://www.w3.org/Graphics/SVG/1.1/DTD/svg11.dtd">
<!-- Generated by graphviz version 2.43.0 (0)
 -->
<!-- Title: mlir::transform::detail::TransformDialectDataBase Pages: 1 -->
<svg width="847pt" height="60pt"
 viewBox="0.00 0.00 847.00 60.00" xmlns="http://www.w3.org/2000/svg" xmlns:xlink="http://www.w3.org/1999/xlink">
<g id="graph0" class="graph" transform="scale(1 1) rotate(0) translate(4 56)">
<title>mlir::transform::detail::TransformDialectDataBase</title>
<!-- Node1 -->
<g id="Node000001" class="node">
<title>Node1</title>
<g id="a_Node000001"><a xlink:title="Concrete base class for CRTP TransformDialectDataBase.">
<polygon fill="#999999" stroke="#666666" points="153,-51 0,-51 0,-21 153,-21 153,-51"/>
<text text-anchor="start" x="8" y="-39" font-family="Helvetica,sans-Serif" font-size="10.00">mlir::transform::detail</text>
<text text-anchor="middle" x="76.5" y="-28" font-family="Helvetica,sans-Serif" font-size="10.00">::TransformDialectDataBase</text>
</a>
</g>
</g>
<!-- Node2 -->
<g id="Node000002" class="node">
<title>Node2</title>
<g id="a_Node000002"><a xlink:href="classmlir_1_1transform_1_1TransformDialectData.html" target="_top" xlink:title=" ">
<polygon fill="white" stroke="#666666" points="657,-52 481,-52 481,-22 657,-22 657,-52"/>
<text text-anchor="start" x="489" y="-40" font-family="Helvetica,sans-Serif" font-size="10.00">mlir::transform::Transform</text>
<text text-anchor="middle" x="569" y="-29" font-family="Helvetica,sans-Serif" font-size="10.00">DialectData&lt; PDLMatchHooks &gt;</text>
</a>
</g>
</g>
<!-- Node1&#45;&gt;Node2 -->
<g id="edge1_Node000001_Node000002" class="edge">
<title>Node1&#45;&gt;Node2</title>
<g id="a_edge1_Node000001_Node000002"><a xlink:title=" ">
<path fill="none" stroke="#63b8ff" d="M163.5,-40.44C241.63,-43.85 360.07,-47.43 463,-44 468.84,-43.81 474.87,-43.55 480.93,-43.25"/>
<polygon fill="#63b8ff" stroke="#63b8ff" points="163.37,-36.93 153.22,-39.99 163.06,-43.93 163.37,-36.93"/>
</a>
</g>
</g>
<!-- Node4 -->
<g id="Node000004" class="node">
<title>Node4</title>
<g id="a_Node000004"><a xlink:href="classmlir_1_1transform_1_1TransformDialectData.html" target="_top" xlink:title="Base class for additional data owned by the Transform dialect.">
<polygon fill="white" stroke="#666666" points="336,-30 190,-30 190,0 336,0 336,-30"/>
<text text-anchor="start" x="198" y="-18" font-family="Helvetica,sans-Serif" font-size="10.00">mlir::transform::Transform</text>
<text text-anchor="middle" x="263" y="-7" font-family="Helvetica,sans-Serif" font-size="10.00">DialectData&lt; DerivedTy &gt;</text>
</a>
</g>
</g>
<!-- Node1&#45;&gt;Node4 -->
<g id="edge3_Node000001_Node000004" class="edge">
<title>Node1&#45;&gt;Node4</title>
<g id="a_edge3_Node000001_Node000004"><a xlink:title=" ">
<path fill="none" stroke="#63b8ff" d="M163.11,-26.26C172.04,-25.24 181.05,-24.21 189.81,-23.22"/>
<polygon fill="#63b8ff" stroke="#63b8ff" points="162.62,-22.79 153.08,-27.4 163.41,-29.74 162.62,-22.79"/>
</a>
</g>
</g>
<!-- Node3 -->
<g id="Node000003" class="node">
<title>Node3</title>
<g id="a_Node000003"><a xlink:href="classmlir_1_1transform_1_1PDLMatchHooks.html" target="_top" xlink:title="PDL constraint callbacks that can be used by the PDL extension of the Transform dialect.">
<polygon fill="white" stroke="#666666" points="839,-52 694,-52 694,-22 839,-22 839,-52"/>
<text text-anchor="start" x="702" y="-40" font-family="Helvetica,sans-Serif" font-size="10.00">mlir::transform::PDLMatch</text>
<text text-anchor="middle" x="766.5" y="-29" font-family="Helvetica,sans-Serif" font-size="10.00">Hooks</text>
</a>
</g>
</g>
<!-- Node2&#45;&gt;Node3 -->
<g id="edge2_Node000002_Node000003" class="edge">
<title>Node2&#45;&gt;Node3</title>
<g id="a_edge2_Node000002_Node000003"><a xlink:title=" ">
<path fill="none" stroke="#63b8ff" d="M667.23,-37C676.15,-37 685.08,-37 693.72,-37"/>
<polygon fill="#63b8ff" stroke="#63b8ff" points="667.17,-33.5 657.17,-37 667.17,-40.5 667.17,-33.5"/>
</a>
</g>
</g>
<!-- Node4&#45;&gt;Node2 -->
<g id="edge4_Node000004_Node000002" class="edge">
<title>Node4&#45;&gt;Node2</title>
<g id="a_edge4_Node000004_Node000002"><a xlink:title=" ">
<path fill="none" stroke="orange" stroke-dasharray="5,2" d="M346.74,-19.35C382.52,-21.39 424.84,-24.03 463,-27 468.84,-27.45 474.86,-27.95 480.93,-28.47"/>
<polygon fill="orange" stroke="orange" points="346.53,-15.83 336.35,-18.76 346.14,-22.82 346.53,-15.83"/>
</a>
</g>
<text text-anchor="start" x="357.5" y="-32.5" font-family="Helvetica,sans-Serif" font-size="10.00" fill="grey">&lt; PDLMatchHooks &gt;</text>
</g>
</g>
</svg>
