<?xml version="1.0" encoding="UTF-8" standalone="no"?>
<!DOCTYPE svg PUBLIC "-//W3C//DTD SVG 1.1//EN"
 "http://www.w3.org/Graphics/SVG/1.1/DTD/svg11.dtd">
<!-- Generated by graphviz version 2.43.0 (0)
 -->
<!-- Title: mlir::AffineExprVisitorBase&lt; SubClass, RetTy &gt; Pages: 1 -->
<svg width="1390pt" height="232pt"
 viewBox="0.00 0.00 1390.00 231.59" xmlns="http://www.w3.org/2000/svg" xmlns:xlink="http://www.w3.org/1999/xlink">
<g id="graph0" class="graph" transform="scale(1 1) rotate(0) translate(4 227.59)">
<title>mlir::AffineExprVisitorBase&lt; SubClass, RetTy &gt;</title>
<!-- Node1 -->
<g id="Node000001" class="node">
<title>Node1</title>
<g id="a_Node000001"><a xlink:title="Base class for AffineExpr visitors/walkers.">
<polygon fill="#999999" stroke="#666666" points="148,-110 0,-110 0,-80 148,-80 148,-110"/>
<text text-anchor="start" x="8" y="-98" font-family="Helvetica,sans-Serif" font-size="10.00">mlir::AffineExprVisitorBase</text>
<text text-anchor="middle" x="74" y="-87" font-family="Helvetica,sans-Serif" font-size="10.00">&lt; SubClass, RetTy &gt;</text>
</a>
</g>
</g>
<!-- Node2 -->
<g id="Node000002" class="node">
<title>Node2</title>
<g id="a_Node000002"><a xlink:href="classmlir_1_1AffineExprVisitorBase.html" target="_top" xlink:title=" ">
<polygon fill="white" stroke="#666666" points="654.5,-187.5 502.5,-187.5 502.5,-146.5 654.5,-146.5 654.5,-187.5"/>
<text text-anchor="start" x="510.5" y="-175.5" font-family="Helvetica,sans-Serif" font-size="10.00">mlir::AffineExprVisitorBase</text>
<text text-anchor="start" x="510.5" y="-164.5" font-family="Helvetica,sans-Serif" font-size="10.00">&lt; HasAffineDimExprVisitor,</text>
<text text-anchor="middle" x="578.5" y="-153.5" font-family="Helvetica,sans-Serif" font-size="10.00"> bool &gt;</text>
</a>
</g>
</g>
<!-- Node1&#45;&gt;Node2 -->
<g id="edge1_Node000001_Node000002" class="edge">
<title>Node1&#45;&gt;Node2</title>
<g id="a_edge1_Node000001_Node000002"><a xlink:title=" ">
<path fill="none" stroke="orange" stroke-dasharray="5,2" d="M111.92,-114.61C128.08,-122.29 147.53,-130.36 166,-135 280.85,-163.82 418.89,-168.77 502.33,-168.65"/>
<polygon fill="orange" stroke="orange" points="113.34,-111.41 102.82,-110.16 110.26,-117.7 113.34,-111.41"/>
</a>
</g>
<text text-anchor="start" x="172.5" y="-180" font-family="Helvetica,sans-Serif" font-size="10.00" fill="grey">&lt; HasAffineDimExprVisitor,</text>
<text text-anchor="start" x="172.5" y="-165" font-family="Helvetica,sans-Serif" font-size="10.00" fill="grey">   bool &gt;</text>
</g>
<!-- Node5 -->
<g id="Node000005" class="node">
<title>Node5</title>
<g id="a_Node000005"><a xlink:href="classmlir_1_1AffineExprVisitorBase.html" target="_top" xlink:title=" ">
<polygon fill="white" stroke="#666666" points="481,-138 333,-138 333,-108 481,-108 481,-138"/>
<text text-anchor="start" x="341" y="-126" font-family="Helvetica,sans-Serif" font-size="10.00">mlir::AffineExprVisitorBase</text>
<text text-anchor="middle" x="407" y="-115" font-family="Helvetica,sans-Serif" font-size="10.00">&lt; SubClass, void &gt;</text>
</a>
</g>
</g>
<!-- Node1&#45;&gt;Node5 -->
<g id="edge4_Node000001_Node000005" class="edge">
<title>Node1&#45;&gt;Node5</title>
<g id="a_edge4_Node000001_Node000005"><a xlink:title=" ">
<path fill="none" stroke="orange" stroke-dasharray="5,2" d="M158.24,-102.04C211.97,-106.59 281.23,-112.45 332.85,-116.81"/>
<polygon fill="orange" stroke="orange" points="158.31,-98.53 148.05,-101.18 157.72,-105.51 158.31,-98.53"/>
</a>
</g>
<text text-anchor="start" x="193.5" y="-119.5" font-family="Helvetica,sans-Serif" font-size="10.00" fill="grey">&lt; SubClass, void &gt;</text>
</g>
<!-- Node10 -->
<g id="Node000010" class="node">
<title>Node10</title>
<g id="a_Node000010"><a xlink:href="classmlir_1_1AffineExprVisitorBase.html" target="_top" xlink:title=" ">
<polygon fill="white" stroke="#666666" points="831,-30 676,-30 676,0 831,0 831,-30"/>
<text text-anchor="start" x="684" y="-18" font-family="Helvetica,sans-Serif" font-size="10.00">mlir::AffineExprVisitorBase</text>
<text text-anchor="middle" x="753.5" y="-7" font-family="Helvetica,sans-Serif" font-size="10.00">&lt; SubClass, LogicalResult &gt;</text>
</a>
</g>
</g>
<!-- Node1&#45;&gt;Node10 -->
<g id="edge10_Node000001_Node000010" class="edge">
<title>Node1&#45;&gt;Node10</title>
<g id="a_edge10_Node000001_Node000010"><a xlink:title=" ">
<path fill="none" stroke="orange" stroke-dasharray="5,2" d="M108.36,-74.97C125.09,-65.85 146.01,-55.82 166,-50 342.78,1.47 561.84,-2.24 675.68,-8.91"/>
<polygon fill="orange" stroke="orange" points="106.55,-71.97 99.53,-79.9 109.96,-78.08 106.55,-71.97"/>
</a>
</g>
<text text-anchor="start" x="338" y="-22.5" font-family="Helvetica,sans-Serif" font-size="10.00" fill="grey">&lt; SubClass, LogicalResult &gt;</text>
</g>
<!-- Node11 -->
<g id="Node000011" class="node">
<title>Node11</title>
<g id="a_Node000011"><a xlink:href="classmlir_1_1AffineExprVisitorBase.html" target="_top" xlink:title=" ">
<polygon fill="white" stroke="#666666" points="658,-80.5 499,-80.5 499,-39.5 658,-39.5 658,-80.5"/>
<text text-anchor="start" x="507" y="-68.5" font-family="Helvetica,sans-Serif" font-size="10.00">mlir::AffineExprVisitorBase</text>
<text text-anchor="start" x="507" y="-57.5" font-family="Helvetica,sans-Serif" font-size="10.00">&lt; SimpleAffineExprFlattener,</text>
<text text-anchor="middle" x="578.5" y="-46.5" font-family="Helvetica,sans-Serif" font-size="10.00"> LogicalResult &gt;</text>
</a>
</g>
</g>
<!-- Node1&#45;&gt;Node11 -->
<g id="edge13_Node000001_Node000011" class="edge">
<title>Node1&#45;&gt;Node11</title>
<g id="a_edge13_Node000001_Node000011"><a xlink:title=" ">
<path fill="none" stroke="orange" stroke-dasharray="5,2" d="M125,-76.86C138.16,-72.85 152.47,-69.15 166,-67 280.67,-48.76 415.57,-50.86 498.81,-54.82"/>
<polygon fill="orange" stroke="orange" points="123.67,-73.61 115.19,-79.96 125.78,-80.28 123.67,-73.61"/>
</a>
</g>
<text text-anchor="start" x="169.5" y="-88" font-family="Helvetica,sans-Serif" font-size="10.00" fill="grey">&lt; SimpleAffineExprFlattener,</text>
<text text-anchor="start" x="169.5" y="-73" font-family="Helvetica,sans-Serif" font-size="10.00" fill="grey">   LogicalResult &gt;</text>
</g>
<!-- Node3 -->
<g id="Node000003" class="node">
<title>Node3</title>
<g id="a_Node000003"><a xlink:href="classmlir_1_1AffineExprVisitor.html" target="_top" xlink:title=" ">
<polygon fill="white" stroke="#666666" points="1171.5,-222.5 1019.5,-222.5 1019.5,-181.5 1171.5,-181.5 1171.5,-222.5"/>
<text text-anchor="start" x="1027.5" y="-210.5" font-family="Helvetica,sans-Serif" font-size="10.00">mlir::AffineExprVisitor</text>
<text text-anchor="start" x="1027.5" y="-199.5" font-family="Helvetica,sans-Serif" font-size="10.00">&lt; HasAffineDimExprVisitor,</text>
<text text-anchor="middle" x="1095.5" y="-188.5" font-family="Helvetica,sans-Serif" font-size="10.00"> bool &gt;</text>
</a>
</g>
</g>
<!-- Node2&#45;&gt;Node3 -->
<g id="edge2_Node000002_Node000003" class="edge">
<title>Node2&#45;&gt;Node3</title>
<g id="a_edge2_Node000002_Node000003"><a xlink:title=" ">
<path fill="none" stroke="#63b8ff" d="M664.72,-187.76C717.44,-199.52 786.72,-213.05 849,-219 914.92,-225.3 932.03,-224.77 998,-219 1004.95,-218.39 1012.15,-217.54 1019.34,-216.55"/>
<polygon fill="#63b8ff" stroke="#63b8ff" points="665.26,-184.29 654.74,-185.51 663.72,-191.12 665.26,-184.29"/>
</a>
</g>
</g>
<!-- Node4 -->
<g id="Node000004" class="node">
<title>Node4</title>
<g id="a_Node000004"><a xlink:href="structHasAffineDimExprVisitor.html" target="_top" xlink:title="Visitor to check if any of the given set of positions from AffineDimExprs are used within an AffineEx...">
<polygon fill="white" stroke="#666666" points="1365.5,-211.5 1228.5,-211.5 1228.5,-192.5 1365.5,-192.5 1365.5,-211.5"/>
<text text-anchor="middle" x="1297" y="-199.5" font-family="Helvetica,sans-Serif" font-size="10.00">HasAffineDimExprVisitor</text>
</a>
</g>
</g>
<!-- Node3&#45;&gt;Node4 -->
<g id="edge3_Node000003_Node000004" class="edge">
<title>Node3&#45;&gt;Node4</title>
<g id="a_edge3_Node000003_Node000004"><a xlink:title=" ">
<path fill="none" stroke="#63b8ff" d="M1181.8,-202C1197.4,-202 1213.48,-202 1228.47,-202"/>
<polygon fill="#63b8ff" stroke="#63b8ff" points="1181.64,-198.5 1171.64,-202 1181.64,-205.5 1181.64,-198.5"/>
</a>
</g>
</g>
<!-- Node6 -->
<g id="Node000006" class="node">
<title>Node6</title>
<g id="a_Node000006"><a xlink:href="classmlir_1_1AffineExprVisitor.html" target="_top" xlink:title="See documentation for AffineExprVisitorBase.">
<polygon fill="white" stroke="#666666" points="815.5,-144 691.5,-144 691.5,-114 815.5,-114 815.5,-144"/>
<text text-anchor="start" x="699.5" y="-132" font-family="Helvetica,sans-Serif" font-size="10.00">mlir::AffineExprVisitor</text>
<text text-anchor="middle" x="753.5" y="-121" font-family="Helvetica,sans-Serif" font-size="10.00">&lt; SubClass, RetTy &gt;</text>
</a>
</g>
</g>
<!-- Node5&#45;&gt;Node6 -->
<g id="edge5_Node000005_Node000006" class="edge">
<title>Node5&#45;&gt;Node6</title>
<g id="a_edge5_Node000005_Node000006"><a xlink:title=" ">
<path fill="none" stroke="#63b8ff" d="M491.16,-124.45C552.87,-125.52 635.62,-126.96 691.34,-127.93"/>
<polygon fill="#63b8ff" stroke="#63b8ff" points="491.12,-120.95 481.06,-124.27 491,-127.95 491.12,-120.95"/>
</a>
</g>
</g>
<!-- Node6&#45;&gt;Node3 -->
<g id="edge6_Node000006_Node000003" class="edge">
<title>Node6&#45;&gt;Node3</title>
<g id="a_edge6_Node000006_Node000003"><a xlink:title=" ">
<path fill="none" stroke="orange" stroke-dasharray="5,2" d="M805.85,-147.37C819.73,-151.92 834.84,-156.49 849,-160 880.48,-167.81 959.35,-180.89 1019.27,-190.38"/>
<polygon fill="orange" stroke="orange" points="806.58,-143.92 795.98,-144.08 804.36,-150.56 806.58,-143.92"/>
</a>
</g>
<text text-anchor="start" x="855.5" y="-206" font-family="Helvetica,sans-Serif" font-size="10.00" fill="grey">&lt; HasAffineDimExprVisitor,</text>
<text text-anchor="start" x="855.5" y="-191" font-family="Helvetica,sans-Serif" font-size="10.00" fill="grey">   bool &gt;</text>
</g>
<!-- Node7 -->
<g id="Node000007" class="node">
<title>Node7</title>
<g id="a_Node000007"><a xlink:href="classmlir_1_1AffineExprVisitor.html" target="_top" xlink:title=" ">
<polygon fill="white" stroke="#666666" points="1175,-134.5 1016,-134.5 1016,-93.5 1175,-93.5 1175,-134.5"/>
<text text-anchor="start" x="1024" y="-122.5" font-family="Helvetica,sans-Serif" font-size="10.00">mlir::AffineExprVisitor</text>
<text text-anchor="start" x="1024" y="-111.5" font-family="Helvetica,sans-Serif" font-size="10.00">&lt; SimpleAffineExprFlattener,</text>
<text text-anchor="middle" x="1095.5" y="-100.5" font-family="Helvetica,sans-Serif" font-size="10.00"> LogicalResult &gt;</text>
</a>
</g>
</g>
<!-- Node6&#45;&gt;Node7 -->
<g id="edge7_Node000006_Node000007" class="edge">
<title>Node6&#45;&gt;Node7</title>
<g id="a_edge7_Node000006_Node000007"><a xlink:title=" ">
<path fill="none" stroke="orange" stroke-dasharray="5,2" d="M825.79,-125.85C881.37,-123.4 958.48,-120 1015.85,-117.47"/>
<polygon fill="orange" stroke="orange" points="825.51,-122.36 815.68,-126.3 825.82,-129.36 825.51,-122.36"/>
</a>
</g>
<text text-anchor="start" x="852.5" y="-145" font-family="Helvetica,sans-Serif" font-size="10.00" fill="grey">&lt; SimpleAffineExprFlattener,</text>
<text text-anchor="start" x="852.5" y="-130" font-family="Helvetica,sans-Serif" font-size="10.00" fill="grey">   LogicalResult &gt;</text>
</g>
<!-- Node9 -->
<g id="Node000009" class="node">
<title>Node9</title>
<g id="a_Node000009"><a xlink:href="classmlir_1_1AffineExprVisitor_3_01SubClass_00_01LogicalResult_01_4.html" target="_top" xlink:title=" ">
<polygon fill="white" stroke="#666666" points="1173,-30 1018,-30 1018,0 1173,0 1173,-30"/>
<text text-anchor="start" x="1026" y="-18" font-family="Helvetica,sans-Serif" font-size="10.00">mlir::AffineExprVisitor</text>
<text text-anchor="middle" x="1095.5" y="-7" font-family="Helvetica,sans-Serif" font-size="10.00">&lt; SubClass, LogicalResult &gt;</text>
</a>
</g>
</g>
<!-- Node6&#45;&gt;Node9 -->
<g id="edge9_Node000006_Node000009" class="edge">
<title>Node6&#45;&gt;Node9</title>
<g id="a_edge9_Node000006_Node000009"><a xlink:title=" ">
<path fill="none" stroke="orange" stroke-dasharray="5,2" d="M808.23,-110.76C821.55,-106.25 835.79,-101.44 849,-97 918.85,-73.51 999.96,-46.46 1049.23,-30.06"/>
<polygon fill="orange" stroke="orange" points="807.07,-107.46 798.72,-113.98 809.31,-114.09 807.07,-107.46"/>
</a>
</g>
<text text-anchor="start" x="854.5" y="-102.5" font-family="Helvetica,sans-Serif" font-size="10.00" fill="grey">&lt; SubClass, LogicalResult &gt;</text>
</g>
<!-- Node8 -->
<g id="Node000008" class="node">
<title>Node8</title>
<g id="a_Node000008"><a xlink:href="classmlir_1_1SimpleAffineExprFlattener.html" target="_top" xlink:title=" ">
<polygon fill="white" stroke="#666666" points="1382,-123.5 1212,-123.5 1212,-104.5 1382,-104.5 1382,-123.5"/>
<text text-anchor="middle" x="1297" y="-111.5" font-family="Helvetica,sans-Serif" font-size="10.00">mlir::SimpleAffineExprFlattener</text>
</a>
</g>
</g>
<!-- Node7&#45;&gt;Node8 -->
<g id="edge8_Node000007_Node000008" class="edge">
<title>Node7&#45;&gt;Node8</title>
<g id="a_edge8_Node000007_Node000008"><a xlink:title=" ">
<path fill="none" stroke="#63b8ff" d="M1185.07,-114C1194,-114 1203.04,-114 1211.92,-114"/>
<polygon fill="#63b8ff" stroke="#63b8ff" points="1185.06,-110.5 1175.06,-114 1185.06,-117.5 1185.06,-110.5"/>
</a>
</g>
</g>
<!-- Node10&#45;&gt;Node9 -->
<g id="edge11_Node000010_Node000009" class="edge">
<title>Node10&#45;&gt;Node9</title>
<g id="a_edge11_Node000010_Node000009"><a xlink:title=" ">
<path fill="none" stroke="#63b8ff" d="M841.55,-9.02C895.97,-7.92 965.41,-8 1017.76,-9.25"/>
<polygon fill="#63b8ff" stroke="#63b8ff" points="841.15,-5.53 831.23,-9.25 841.3,-12.53 841.15,-5.53"/>
</a>
</g>
</g>
<!-- Node10&#45;&gt;Node9 -->
<g id="edge12_Node000010_Node000009" class="edge">
<title>Node10&#45;&gt;Node9</title>
<g id="a_edge12_Node000010_Node000009"><a xlink:title=" ">
<path fill="none" stroke="#63b8ff" d="M841.55,-20.98C895.97,-22.08 965.41,-22 1017.76,-20.75"/>
<polygon fill="#63b8ff" stroke="#63b8ff" points="841.3,-17.47 831.23,-20.75 841.15,-24.47 841.3,-17.47"/>
</a>
</g>
</g>
<!-- Node11&#45;&gt;Node7 -->
<g id="edge14_Node000011_Node000007" class="edge">
<title>Node11&#45;&gt;Node7</title>
<g id="a_edge14_Node000011_Node000007"><a xlink:title=" ">
<path fill="none" stroke="#63b8ff" d="M668.31,-52.87C753.86,-48.27 886.37,-47.09 998,-72 1017.97,-76.46 1038.94,-85.05 1056.21,-93.31"/>
<polygon fill="#63b8ff" stroke="#63b8ff" points="667.9,-49.39 658.11,-53.45 668.29,-56.38 667.9,-49.39"/>
</a>
</g>
</g>
</g>
</svg>
