<?xml version="1.0" encoding="UTF-8" standalone="no"?>
<!DOCTYPE svg PUBLIC "-//W3C//DTD SVG 1.1//EN"
 "http://www.w3.org/Graphics/SVG/1.1/DTD/svg11.dtd">
<!-- Generated by graphviz version 2.43.0 (0)
 -->
<!-- Title: mlir::detail::StorageUserTraitBase&lt; ConcreteType, TraitType &gt; Pages: 1 -->
<svg width="733pt" height="338pt"
 viewBox="0.00 0.00 733.00 337.50" xmlns="http://www.w3.org/2000/svg" xmlns:xlink="http://www.w3.org/1999/xlink">
<g id="graph0" class="graph" transform="scale(1 1) rotate(0) translate(4 333.5)">
<title>mlir::detail::StorageUserTraitBase&lt; ConcreteType, TraitType &gt;</title>
<!-- Node1 -->
<g id="Node000001" class="node">
<title>Node1</title>
<g id="a_Node000001"><a xlink:title="Helper class for implementing traits for storage classes.">
<polygon fill="#999999" stroke="#666666" points="142,-191 0,-191 0,-150 142,-150 142,-191"/>
<text text-anchor="start" x="8" y="-179" font-family="Helvetica,sans-Serif" font-size="10.00">mlir::detail::StorageUser</text>
<text text-anchor="start" x="8" y="-168" font-family="Helvetica,sans-Serif" font-size="10.00">TraitBase&lt; ConcreteType,</text>
<text text-anchor="middle" x="71" y="-157" font-family="Helvetica,sans-Serif" font-size="10.00"> TraitType &gt;</text>
</a>
</g>
</g>
<!-- Node2 -->
<g id="Node000002" class="node">
<title>Node2</title>
<g id="a_Node000002"><a xlink:href="classmlir_1_1AttributeTrait_1_1IsDynamicAttr.html" target="_top" xlink:title=" ">
<polygon fill="white" stroke="#666666" points="508,-329.5 327,-329.5 327,-299.5 508,-299.5 508,-329.5"/>
<text text-anchor="start" x="335" y="-317.5" font-family="Helvetica,sans-Serif" font-size="10.00">mlir::AttributeTrait</text>
<text text-anchor="middle" x="417.5" y="-306.5" font-family="Helvetica,sans-Serif" font-size="10.00">::IsDynamicAttr&lt; ConcreteType &gt;</text>
</a>
</g>
</g>
<!-- Node1&#45;&gt;Node2 -->
<g id="edge1_Node000001_Node000002" class="edge">
<title>Node1&#45;&gt;Node2</title>
<g id="a_edge1_Node000001_Node000002"><a xlink:title=" ">
<path fill="none" stroke="#63b8ff" d="M101.14,-197.82C117.43,-211.9 138.7,-228.39 160,-239.5 215.54,-268.46 283.83,-287.73 335.98,-299.48"/>
<polygon fill="#63b8ff" stroke="#63b8ff" points="103.37,-195.13 93.56,-191.14 98.74,-200.38 103.37,-195.13"/>
</a>
</g>
</g>
<!-- Node3 -->
<g id="Node000003" class="node">
<title>Node3</title>
<g id="a_Node000003"><a xlink:href="structmlir_1_1AttributeTrait_1_1IsLocation.html" target="_top" xlink:title="This trait is used to determine if an attribute is a location or not.">
<polygon fill="white" stroke="#666666" points="498,-281.5 337,-281.5 337,-251.5 498,-251.5 498,-281.5"/>
<text text-anchor="start" x="345" y="-269.5" font-family="Helvetica,sans-Serif" font-size="10.00">mlir::AttributeTrait</text>
<text text-anchor="middle" x="417.5" y="-258.5" font-family="Helvetica,sans-Serif" font-size="10.00">::IsLocation&lt; ConcreteType &gt;</text>
</a>
</g>
</g>
<!-- Node1&#45;&gt;Node3 -->
<g id="edge2_Node000001_Node000003" class="edge">
<title>Node1&#45;&gt;Node3</title>
<g id="a_edge2_Node000001_Node000003"><a xlink:title=" ">
<path fill="none" stroke="#63b8ff" d="M126.19,-195C137.25,-199.51 148.9,-203.92 160,-207.5 218.27,-226.3 285.82,-241.58 336.96,-251.88"/>
<polygon fill="#63b8ff" stroke="#63b8ff" points="127.24,-191.64 116.66,-191.03 124.54,-198.1 127.24,-191.64"/>
</a>
</g>
</g>
<!-- Node4 -->
<g id="Node000004" class="node">
<title>Node4</title>
<g id="a_Node000004"><a xlink:href="classmlir_1_1TypeTrait_1_1IsDynamicType.html" target="_top" xlink:title=" ">
<polygon fill="white" stroke="#666666" points="489,-233.5 346,-233.5 346,-203.5 489,-203.5 489,-233.5"/>
<text text-anchor="start" x="354" y="-221.5" font-family="Helvetica,sans-Serif" font-size="10.00">mlir::TypeTrait::IsDynamic</text>
<text text-anchor="middle" x="417.5" y="-210.5" font-family="Helvetica,sans-Serif" font-size="10.00">Type&lt; ConcreteType &gt;</text>
</a>
</g>
</g>
<!-- Node1&#45;&gt;Node4 -->
<g id="edge3_Node000001_Node000004" class="edge">
<title>Node1&#45;&gt;Node4</title>
<g id="a_edge3_Node000001_Node000004"><a xlink:title=" ">
<path fill="none" stroke="#63b8ff" d="M152.26,-183.36C154.87,-183.75 157.46,-184.13 160,-184.5 222.79,-193.65 294.38,-203.06 345.94,-209.65"/>
<polygon fill="#63b8ff" stroke="#63b8ff" points="152.51,-179.86 142.1,-181.82 151.47,-186.78 152.51,-179.86"/>
</a>
</g>
</g>
<!-- Node5 -->
<g id="Node000005" class="node">
<title>Node5</title>
<g id="a_Node000005"><a xlink:href="classmlir_1_1ValueSemantics.html" target="_top" xlink:title="Type trait indicating that the type has value semantics.">
<polygon fill="white" stroke="#666666" points="477.5,-185.5 357.5,-185.5 357.5,-155.5 477.5,-155.5 477.5,-185.5"/>
<text text-anchor="start" x="365.5" y="-173.5" font-family="Helvetica,sans-Serif" font-size="10.00">mlir::ValueSemantics</text>
<text text-anchor="middle" x="417.5" y="-162.5" font-family="Helvetica,sans-Serif" font-size="10.00">&lt; ConcreteType &gt;</text>
</a>
</g>
</g>
<!-- Node1&#45;&gt;Node5 -->
<g id="edge4_Node000001_Node000005" class="edge">
<title>Node1&#45;&gt;Node5</title>
<g id="a_edge4_Node000001_Node000005"><a xlink:title=" ">
<path fill="none" stroke="#63b8ff" d="M152.38,-170.5C215.11,-170.5 300.81,-170.5 357.36,-170.5"/>
<polygon fill="#63b8ff" stroke="#63b8ff" points="152.13,-167 142.13,-170.5 152.13,-174 152.13,-167"/>
</a>
</g>
</g>
<!-- Node6 -->
<g id="Node000006" class="node">
<title>Node6</title>
<g id="a_Node000006"><a xlink:href="structmlir_1_1acc_1_1AttributeTrait_1_1IsVariableInfo.html" target="_top" xlink:title="Trait attached to attributes that are OpenACC variable info attributes.">
<polygon fill="white" stroke="#666666" points="506.5,-137.5 328.5,-137.5 328.5,-107.5 506.5,-107.5 506.5,-137.5"/>
<text text-anchor="start" x="336.5" y="-125.5" font-family="Helvetica,sans-Serif" font-size="10.00">mlir::acc::AttributeTrait</text>
<text text-anchor="middle" x="417.5" y="-114.5" font-family="Helvetica,sans-Serif" font-size="10.00">::IsVariableInfo&lt; ConcreteType &gt;</text>
</a>
</g>
</g>
<!-- Node1&#45;&gt;Node6 -->
<g id="edge5_Node000001_Node000006" class="edge">
<title>Node1&#45;&gt;Node6</title>
<g id="a_edge5_Node000001_Node000006"><a xlink:title=" ">
<path fill="none" stroke="#63b8ff" d="M152.12,-159.34C204.91,-151.98 274.05,-142.35 328.39,-134.78"/>
<polygon fill="#63b8ff" stroke="#63b8ff" points="151.55,-155.88 142.13,-160.73 152.52,-162.82 151.55,-155.88"/>
</a>
</g>
</g>
<!-- Node7 -->
<g id="Node000007" class="node">
<title>Node7</title>
<g id="a_Node000007"><a xlink:href="classmlir_1_1gpu_1_1OffloadingTranslationAttrTrait.html" target="_top" xlink:title="This class indicates that the attribute associated with this trait is a GPU offloading translation at...">
<polygon fill="white" stroke="#666666" points="502.5,-89.5 332.5,-89.5 332.5,-59.5 502.5,-59.5 502.5,-89.5"/>
<text text-anchor="start" x="340.5" y="-77.5" font-family="Helvetica,sans-Serif" font-size="10.00">mlir::gpu::OffloadingTranslation</text>
<text text-anchor="middle" x="417.5" y="-66.5" font-family="Helvetica,sans-Serif" font-size="10.00">AttrTrait&lt; ConcreteType &gt;</text>
</a>
</g>
</g>
<!-- Node1&#45;&gt;Node7 -->
<g id="edge6_Node000001_Node000007" class="edge">
<title>Node1&#45;&gt;Node7</title>
<g id="a_edge6_Node000001_Node000007"><a xlink:title=" ">
<path fill="none" stroke="#63b8ff" d="M126.19,-146C137.25,-141.49 148.9,-137.08 160,-133.5 217.51,-114.95 284.06,-99.82 334.95,-89.53"/>
<polygon fill="#63b8ff" stroke="#63b8ff" points="124.54,-142.9 116.66,-149.97 127.24,-149.36 124.54,-142.9"/>
</a>
</g>
</g>
<!-- Node8 -->
<g id="Node000008" class="node">
<title>Node8</title>
<g id="a_Node000008"><a xlink:href="classmlir_1_1detail_1_1StorageUserTraitBase.html" target="_top" xlink:title=" ">
<polygon fill="white" stroke="#666666" points="488.5,-41 346.5,-41 346.5,0 488.5,0 488.5,-41"/>
<text text-anchor="start" x="354.5" y="-29" font-family="Helvetica,sans-Serif" font-size="10.00">mlir::detail::StorageUser</text>
<text text-anchor="start" x="354.5" y="-18" font-family="Helvetica,sans-Serif" font-size="10.00">TraitBase&lt; ConcreteType,</text>
<text text-anchor="middle" x="417.5" y="-7" font-family="Helvetica,sans-Serif" font-size="10.00"> IsMutable &gt;</text>
</a>
</g>
</g>
<!-- Node1&#45;&gt;Node8 -->
<g id="edge7_Node000001_Node000008" class="edge">
<title>Node1&#45;&gt;Node8</title>
<g id="a_edge7_Node000001_Node000008"><a xlink:title=" ">
<path fill="none" stroke="orange" stroke-dasharray="5,2" d="M91.01,-141.46C106.85,-119.64 131.39,-90.81 160,-74.5 217.42,-41.76 292.26,-28.79 346.26,-23.69"/>
<polygon fill="orange" stroke="orange" points="88.07,-139.55 85.17,-149.74 93.79,-143.58 88.07,-139.55"/>
</a>
</g>
<text text-anchor="start" x="163.5" y="-80" font-family="Helvetica,sans-Serif" font-size="10.00" fill="grey">&lt; ConcreteType, IsMutable &gt;</text>
</g>
<!-- Node9 -->
<g id="Node000009" class="node">
<title>Node9</title>
<g id="a_Node000009"><a xlink:href="structmlir_1_1detail_1_1StorageUserTrait_1_1IsMutable.html" target="_top" xlink:title="This trait is used to determine if a storage user, like Type, is mutable or not.">
<polygon fill="white" stroke="#666666" points="725,-35.5 545,-35.5 545,-5.5 725,-5.5 725,-35.5"/>
<text text-anchor="start" x="553" y="-23.5" font-family="Helvetica,sans-Serif" font-size="10.00">mlir::detail::StorageUser</text>
<text text-anchor="middle" x="635" y="-12.5" font-family="Helvetica,sans-Serif" font-size="10.00">Trait::IsMutable&lt; ConcreteType &gt;</text>
</a>
</g>
</g>
<!-- Node8&#45;&gt;Node9 -->
<g id="edge8_Node000008_Node000009" class="edge">
<title>Node8&#45;&gt;Node9</title>
<g id="a_edge8_Node000008_Node000009"><a xlink:title=" ">
<path fill="none" stroke="#63b8ff" d="M499,-20.5C513.99,-20.5 529.73,-20.5 544.95,-20.5"/>
<polygon fill="#63b8ff" stroke="#63b8ff" points="498.76,-17 488.76,-20.5 498.76,-24 498.76,-17"/>
</a>
</g>
</g>
</g>
</svg>
