<?xml version="1.0" encoding="UTF-8" standalone="no"?>
<!DOCTYPE svg PUBLIC "-//W3C//DTD SVG 1.1//EN"
 "http://www.w3.org/Graphics/SVG/1.1/DTD/svg11.dtd">
<!-- Generated by graphviz version 2.43.0 (0)
 -->
<!-- Title: mlir::pdl_to_pdl_interp::Qualifier Pages: 1 -->
<svg width="801pt" height="1162pt"
 viewBox="0.00 0.00 801.00 1162.00" xmlns="http://www.w3.org/2000/svg" xmlns:xlink="http://www.w3.org/1999/xlink">
<g id="graph0" class="graph" transform="scale(1 1) rotate(0) translate(4 1158)">
<title>mlir::pdl_to_pdl_interp::Qualifier</title>
<!-- Node1 -->
<g id="node1" class="node">
<title>Node1</title>
<g id="a_node1"><a xlink:title="An ordinal predicate consists of a &quot;Question&quot; and a set of acceptable &quot;Answers&quot; (later converted to o...">
<polygon fill="#bfbfbf" stroke="black" points="154,-567.5 154,-597.5 280,-597.5 280,-567.5 154,-567.5"/>
<text text-anchor="start" x="162" y="-585.5" font-family="Helvetica,sans-Serif" font-size="10.00">mlir::pdl_to_pdl_interp</text>
<text text-anchor="middle" x="217" y="-574.5" font-family="Helvetica,sans-Serif" font-size="10.00">::Qualifier</text>
</a>
</g>
</g>
<!-- Node3 -->
<g id="node3" class="node">
<title>Node3</title>
<g id="a_node3"><a xlink:href="classmlir_1_1pdl__to__pdl__interp_1_1PredicateBase.html" target="_top" xlink:title=" ">
<polygon fill="none" stroke="black" points="368.5,-1101.5 368.5,-1153.5 531.5,-1153.5 531.5,-1101.5 368.5,-1101.5"/>
<text text-anchor="start" x="376.5" y="-1141.5" font-family="Helvetica,sans-Serif" font-size="10.00">mlir::pdl_to_pdl_interp</text>
<text text-anchor="start" x="376.5" y="-1130.5" font-family="Helvetica,sans-Serif" font-size="10.00">::PredicateBase&lt; TrueAnswer,</text>
<text text-anchor="start" x="376.5" y="-1119.5" font-family="Helvetica,sans-Serif" font-size="10.00"> Qualifier, void, Predicates</text>
<text text-anchor="middle" x="450" y="-1108.5" font-family="Helvetica,sans-Serif" font-size="10.00">::TrueAnswer &gt;</text>
</a>
</g>
</g>
<!-- Node1&#45;&gt;Node3 -->
<g id="edge2" class="edge">
<title>Node1&#45;&gt;Node3</title>
<path fill="none" stroke="midnightblue" d="M219.37,-607.65C224.93,-700.26 248.78,-1020.58 316,-1092.5 329.78,-1107.24 348.95,-1116.06 368.45,-1121.27"/>
<polygon fill="midnightblue" stroke="midnightblue" points="222.86,-607.3 218.78,-597.52 215.87,-607.71 222.86,-607.3"/>
</g>
<!-- Node5 -->
<g id="node5" class="node">
<title>Node5</title>
<g id="a_node5"><a xlink:href="classmlir_1_1pdl__to__pdl__interp_1_1PredicateBase.html" target="_top" xlink:title=" ">
<polygon fill="none" stroke="black" points="345.5,-1030.5 345.5,-1082.5 554.5,-1082.5 554.5,-1030.5 345.5,-1030.5"/>
<text text-anchor="start" x="353.5" y="-1070.5" font-family="Helvetica,sans-Serif" font-size="10.00">mlir::pdl_to_pdl_interp</text>
<text text-anchor="start" x="353.5" y="-1059.5" font-family="Helvetica,sans-Serif" font-size="10.00">::PredicateBase&lt; OperationName</text>
<text text-anchor="start" x="353.5" y="-1048.5" font-family="Helvetica,sans-Serif" font-size="10.00">Question, Qualifier, void,</text>
<text text-anchor="middle" x="450" y="-1037.5" font-family="Helvetica,sans-Serif" font-size="10.00"> Predicates::OperationNameQuestion &gt;</text>
</a>
</g>
</g>
<!-- Node1&#45;&gt;Node5 -->
<g id="edge4" class="edge">
<title>Node1&#45;&gt;Node5</title>
<path fill="none" stroke="midnightblue" d="M220.25,-607.94C228.2,-692.31 257.75,-961.01 316,-1021.5 324.28,-1030.1 334.4,-1036.67 345.33,-1041.69"/>
<polygon fill="midnightblue" stroke="midnightblue" points="223.73,-607.57 219.32,-597.94 216.76,-608.22 223.73,-607.57"/>
</g>
<!-- Node7 -->
<g id="node7" class="node">
<title>Node7</title>
<g id="a_node7"><a xlink:href="classmlir_1_1pdl__to__pdl__interp_1_1PredicateBase.html" target="_top" xlink:title=" ">
<polygon fill="none" stroke="black" points="349.5,-959.5 349.5,-1011.5 550.5,-1011.5 550.5,-959.5 349.5,-959.5"/>
<text text-anchor="start" x="357.5" y="-999.5" font-family="Helvetica,sans-Serif" font-size="10.00">mlir::pdl_to_pdl_interp</text>
<text text-anchor="start" x="357.5" y="-988.5" font-family="Helvetica,sans-Serif" font-size="10.00">::PredicateBase&lt; OperationName</text>
<text text-anchor="start" x="357.5" y="-977.5" font-family="Helvetica,sans-Serif" font-size="10.00">Answer, Qualifier, OperationName,</text>
<text text-anchor="middle" x="450" y="-966.5" font-family="Helvetica,sans-Serif" font-size="10.00"> Predicates::OperationNameAnswer &gt;</text>
</a>
</g>
</g>
<!-- Node1&#45;&gt;Node7 -->
<g id="edge6" class="edge">
<title>Node1&#45;&gt;Node7</title>
<path fill="none" stroke="midnightblue" d="M221.35,-607.42C231.87,-681.96 266.47,-901.11 316,-950.5 325.38,-959.86 336.95,-966.8 349.31,-971.94"/>
<polygon fill="midnightblue" stroke="midnightblue" points="224.82,-606.93 219.98,-597.51 217.88,-607.89 224.82,-606.93"/>
</g>
<!-- Node9 -->
<g id="node9" class="node">
<title>Node9</title>
<g id="a_node9"><a xlink:href="classmlir_1_1pdl__to__pdl__interp_1_1PredicateBase.html" target="_top" xlink:title=" ">
<polygon fill="none" stroke="black" points="356,-888.5 356,-940.5 544,-940.5 544,-888.5 356,-888.5"/>
<text text-anchor="start" x="364" y="-928.5" font-family="Helvetica,sans-Serif" font-size="10.00">mlir::pdl_to_pdl_interp</text>
<text text-anchor="start" x="364" y="-917.5" font-family="Helvetica,sans-Serif" font-size="10.00">::PredicateBase&lt; EqualToQuestion,</text>
<text text-anchor="start" x="364" y="-906.5" font-family="Helvetica,sans-Serif" font-size="10.00"> Qualifier, Position *, Predicates</text>
<text text-anchor="middle" x="450" y="-895.5" font-family="Helvetica,sans-Serif" font-size="10.00">::EqualToQuestion &gt;</text>
</a>
</g>
</g>
<!-- Node1&#45;&gt;Node9 -->
<g id="edge8" class="edge">
<title>Node1&#45;&gt;Node9</title>
<path fill="none" stroke="midnightblue" d="M218.65,-608.1C221.55,-665.46 236.83,-805.05 316,-879.5 327.22,-890.05 341.23,-897.51 355.91,-902.76"/>
<polygon fill="midnightblue" stroke="midnightblue" points="222.14,-607.62 218.22,-597.77 215.14,-607.91 222.14,-607.62"/>
</g>
<!-- Node11 -->
<g id="node11" class="node">
<title>Node11</title>
<g id="a_node11"><a xlink:href="classmlir_1_1pdl__to__pdl__interp_1_1PredicateBase.html" target="_top" xlink:title=" ">
<polygon fill="none" stroke="black" points="366.5,-817.5 366.5,-869.5 533.5,-869.5 533.5,-817.5 366.5,-817.5"/>
<text text-anchor="start" x="374.5" y="-857.5" font-family="Helvetica,sans-Serif" font-size="10.00">mlir::pdl_to_pdl_interp</text>
<text text-anchor="start" x="374.5" y="-846.5" font-family="Helvetica,sans-Serif" font-size="10.00">::PredicateBase&lt; TypeAnswer,</text>
<text text-anchor="start" x="374.5" y="-835.5" font-family="Helvetica,sans-Serif" font-size="10.00"> Qualifier, Attribute, Predicates</text>
<text text-anchor="middle" x="450" y="-824.5" font-family="Helvetica,sans-Serif" font-size="10.00">::TypeAnswer &gt;</text>
</a>
</g>
</g>
<!-- Node1&#45;&gt;Node11 -->
<g id="edge10" class="edge">
<title>Node1&#45;&gt;Node11</title>
<path fill="none" stroke="midnightblue" d="M221.57,-607.41C229.6,-654.1 253.54,-754.87 316,-808.5 330.22,-820.71 348.23,-828.72 366.36,-833.96"/>
<polygon fill="midnightblue" stroke="midnightblue" points="225.02,-606.85 219.97,-597.54 218.11,-607.97 225.02,-606.85"/>
</g>
<!-- Node13 -->
<g id="node13" class="node">
<title>Node13</title>
<g id="a_node13"><a xlink:href="classmlir_1_1pdl__to__pdl__interp_1_1PredicateBase.html" target="_top" xlink:title=" ">
<polygon fill="none" stroke="black" points="352.5,-746.5 352.5,-798.5 547.5,-798.5 547.5,-746.5 352.5,-746.5"/>
<text text-anchor="start" x="360.5" y="-786.5" font-family="Helvetica,sans-Serif" font-size="10.00">mlir::pdl_to_pdl_interp</text>
<text text-anchor="start" x="360.5" y="-775.5" font-family="Helvetica,sans-Serif" font-size="10.00">::PredicateBase&lt; IsNotNullQuestion,</text>
<text text-anchor="start" x="360.5" y="-764.5" font-family="Helvetica,sans-Serif" font-size="10.00"> Qualifier, void, Predicates</text>
<text text-anchor="middle" x="450" y="-753.5" font-family="Helvetica,sans-Serif" font-size="10.00">::IsNotNullQuestion &gt;</text>
</a>
</g>
</g>
<!-- Node1&#45;&gt;Node13 -->
<g id="edge12" class="edge">
<title>Node1&#45;&gt;Node13</title>
<path fill="none" stroke="midnightblue" d="M227.18,-607.59C241.06,-641.94 270.66,-703.15 316,-736.5 326.89,-744.51 339.45,-750.74 352.41,-755.58"/>
<polygon fill="midnightblue" stroke="midnightblue" points="230.28,-605.89 223.38,-597.85 223.76,-608.44 230.28,-605.89"/>
</g>
<!-- Node15 -->
<g id="node15" class="node">
<title>Node15</title>
<g id="a_node15"><a xlink:href="classmlir_1_1pdl__to__pdl__interp_1_1PredicateBase.html" target="_top" xlink:title=" ">
<polygon fill="none" stroke="black" points="350,-664 350,-727 550,-727 550,-664 350,-664"/>
<text text-anchor="start" x="358" y="-715" font-family="Helvetica,sans-Serif" font-size="10.00">mlir::pdl_to_pdl_interp</text>
<text text-anchor="start" x="358" y="-704" font-family="Helvetica,sans-Serif" font-size="10.00">::PredicateBase&lt; ResultCount</text>
<text text-anchor="start" x="358" y="-693" font-family="Helvetica,sans-Serif" font-size="10.00">AtLeastQuestion, Qualifier,</text>
<text text-anchor="start" x="358" y="-682" font-family="Helvetica,sans-Serif" font-size="10.00"> void, Predicates::ResultCountAtLeast</text>
<text text-anchor="middle" x="450" y="-671" font-family="Helvetica,sans-Serif" font-size="10.00">Question &gt;</text>
</a>
</g>
</g>
<!-- Node1&#45;&gt;Node15 -->
<g id="edge14" class="edge">
<title>Node1&#45;&gt;Node15</title>
<path fill="none" stroke="midnightblue" d="M243.15,-604.22C262.12,-619.71 289.36,-640.08 316,-653.5 326.71,-658.89 338.24,-663.77 349.89,-668.13"/>
<polygon fill="midnightblue" stroke="midnightblue" points="245.22,-601.4 235.29,-597.71 240.75,-606.78 245.22,-601.4"/>
</g>
<!-- Node17 -->
<g id="node17" class="node">
<title>Node17</title>
<g id="a_node17"><a xlink:href="classmlir_1_1pdl__to__pdl__interp_1_1PredicateBase.html" target="_top" xlink:title=" ">
<polygon fill="none" stroke="black" points="366.5,-592.5 366.5,-644.5 533.5,-644.5 533.5,-592.5 366.5,-592.5"/>
<text text-anchor="start" x="374.5" y="-632.5" font-family="Helvetica,sans-Serif" font-size="10.00">mlir::pdl_to_pdl_interp</text>
<text text-anchor="start" x="374.5" y="-621.5" font-family="Helvetica,sans-Serif" font-size="10.00">::PredicateBase&lt; FalseAnswer,</text>
<text text-anchor="start" x="374.5" y="-610.5" font-family="Helvetica,sans-Serif" font-size="10.00"> Qualifier, void, Predicates</text>
<text text-anchor="middle" x="450" y="-599.5" font-family="Helvetica,sans-Serif" font-size="10.00">::FalseAnswer &gt;</text>
</a>
</g>
</g>
<!-- Node1&#45;&gt;Node17 -->
<g id="edge16" class="edge">
<title>Node1&#45;&gt;Node17</title>
<path fill="none" stroke="midnightblue" d="M290.34,-593.77C314.43,-597.53 341.45,-601.74 366.27,-605.61"/>
<polygon fill="midnightblue" stroke="midnightblue" points="290.63,-590.28 280.21,-592.19 289.55,-597.19 290.63,-590.28"/>
</g>
<!-- Node19 -->
<g id="node19" class="node">
<title>Node19</title>
<g id="a_node19"><a xlink:href="classmlir_1_1pdl__to__pdl__interp_1_1PredicateBase.html" target="_top" xlink:title=" ">
<polygon fill="none" stroke="black" points="354.5,-521.5 354.5,-573.5 545.5,-573.5 545.5,-521.5 354.5,-521.5"/>
<text text-anchor="start" x="362.5" y="-561.5" font-family="Helvetica,sans-Serif" font-size="10.00">mlir::pdl_to_pdl_interp</text>
<text text-anchor="start" x="362.5" y="-550.5" font-family="Helvetica,sans-Serif" font-size="10.00">::PredicateBase&lt; ResultCount</text>
<text text-anchor="start" x="362.5" y="-539.5" font-family="Helvetica,sans-Serif" font-size="10.00">Question, Qualifier, void,</text>
<text text-anchor="middle" x="450" y="-528.5" font-family="Helvetica,sans-Serif" font-size="10.00"> Predicates::ResultCountQuestion &gt;</text>
</a>
</g>
</g>
<!-- Node1&#45;&gt;Node19 -->
<g id="edge18" class="edge">
<title>Node1&#45;&gt;Node19</title>
<path fill="none" stroke="midnightblue" d="M290.26,-571.55C310.48,-568.49 332.77,-565.11 354.08,-561.88"/>
<polygon fill="midnightblue" stroke="midnightblue" points="289.57,-568.12 280.21,-573.07 290.62,-575.04 289.57,-568.12"/>
</g>
<!-- Node21 -->
<g id="node21" class="node">
<title>Node21</title>
<g id="a_node21"><a xlink:href="classmlir_1_1pdl__to__pdl__interp_1_1PredicateBase.html" target="_top" xlink:title=" ">
<polygon fill="none" stroke="black" points="353.5,-450.5 353.5,-502.5 546.5,-502.5 546.5,-450.5 353.5,-450.5"/>
<text text-anchor="start" x="361.5" y="-490.5" font-family="Helvetica,sans-Serif" font-size="10.00">mlir::pdl_to_pdl_interp</text>
<text text-anchor="start" x="361.5" y="-479.5" font-family="Helvetica,sans-Serif" font-size="10.00">::PredicateBase&lt; AttributeQuestion,</text>
<text text-anchor="start" x="361.5" y="-468.5" font-family="Helvetica,sans-Serif" font-size="10.00"> Qualifier, void, Predicates</text>
<text text-anchor="middle" x="450" y="-457.5" font-family="Helvetica,sans-Serif" font-size="10.00">::AttributeQuestion &gt;</text>
</a>
</g>
</g>
<!-- Node1&#45;&gt;Node21 -->
<g id="edge20" class="edge">
<title>Node1&#45;&gt;Node21</title>
<path fill="none" stroke="midnightblue" d="M242.61,-560.68C261.5,-544.96 288.87,-524.34 316,-511.5 327.76,-505.93 340.54,-501.15 353.38,-497.07"/>
<polygon fill="midnightblue" stroke="midnightblue" points="240.17,-558.16 234.81,-567.29 244.7,-563.5 240.17,-558.16"/>
</g>
<!-- Node23 -->
<g id="node23" class="node">
<title>Node23</title>
<g id="a_node23"><a xlink:href="classmlir_1_1pdl__to__pdl__interp_1_1PredicateBase.html" target="_top" xlink:title=" ">
<polygon fill="none" stroke="black" points="356,-379.5 356,-431.5 544,-431.5 544,-379.5 356,-379.5"/>
<text text-anchor="start" x="364" y="-419.5" font-family="Helvetica,sans-Serif" font-size="10.00">mlir::pdl_to_pdl_interp</text>
<text text-anchor="start" x="364" y="-408.5" font-family="Helvetica,sans-Serif" font-size="10.00">::PredicateBase&lt; UnsignedAnswer,</text>
<text text-anchor="start" x="364" y="-397.5" font-family="Helvetica,sans-Serif" font-size="10.00"> Qualifier, unsigned, Predicates</text>
<text text-anchor="middle" x="450" y="-386.5" font-family="Helvetica,sans-Serif" font-size="10.00">::UnsignedAnswer &gt;</text>
</a>
</g>
</g>
<!-- Node1&#45;&gt;Node23 -->
<g id="edge22" class="edge">
<title>Node1&#45;&gt;Node23</title>
<path fill="none" stroke="midnightblue" d="M228.32,-557.92C243.04,-525.95 273.08,-470.63 316,-440.5 327.92,-432.13 341.71,-425.77 355.81,-420.92"/>
<polygon fill="midnightblue" stroke="midnightblue" points="224.97,-556.86 224.09,-567.42 231.36,-559.71 224.97,-556.86"/>
</g>
<!-- Node25 -->
<g id="node25" class="node">
<title>Node25</title>
<g id="a_node25"><a xlink:href="classmlir_1_1pdl__to__pdl__interp_1_1PredicateBase.html" target="_top" xlink:title=" ">
<polygon fill="none" stroke="black" points="316,-297 316,-360 584,-360 584,-297 316,-297"/>
<text text-anchor="start" x="324" y="-348" font-family="Helvetica,sans-Serif" font-size="10.00">mlir::pdl_to_pdl_interp</text>
<text text-anchor="start" x="324" y="-337" font-family="Helvetica,sans-Serif" font-size="10.00">::PredicateBase&lt; ConstraintQuestion,</text>
<text text-anchor="start" x="324" y="-326" font-family="Helvetica,sans-Serif" font-size="10.00"> Qualifier, std::tuple&lt; StringRef,</text>
<text text-anchor="start" x="324" y="-315" font-family="Helvetica,sans-Serif" font-size="10.00"> ArrayRef&lt; Position * &gt;, ArrayRef</text>
<text text-anchor="middle" x="450" y="-304" font-family="Helvetica,sans-Serif" font-size="10.00">&lt; Type &gt;, bool &gt;, Predicates::ConstraintQuestion &gt;</text>
</a>
</g>
</g>
<!-- Node1&#45;&gt;Node25 -->
<g id="edge24" class="edge">
<title>Node1&#45;&gt;Node25</title>
<path fill="none" stroke="midnightblue" d="M222.6,-557.38C232.06,-512.95 257.87,-420.42 316,-369.5 319.91,-366.08 324.1,-362.94 328.49,-360.07"/>
<polygon fill="midnightblue" stroke="midnightblue" points="219.14,-556.84 220.59,-567.34 226,-558.23 219.14,-556.84"/>
</g>
<!-- Node27 -->
<g id="node27" class="node">
<title>Node27</title>
<g id="a_node27"><a xlink:href="classmlir_1_1pdl__to__pdl__interp_1_1PredicateBase.html" target="_top" xlink:title=" ">
<polygon fill="none" stroke="black" points="349.5,-225.5 349.5,-277.5 550.5,-277.5 550.5,-225.5 349.5,-225.5"/>
<text text-anchor="start" x="357.5" y="-265.5" font-family="Helvetica,sans-Serif" font-size="10.00">mlir::pdl_to_pdl_interp</text>
<text text-anchor="start" x="357.5" y="-254.5" font-family="Helvetica,sans-Serif" font-size="10.00">::PredicateBase&lt; OperandCount</text>
<text text-anchor="start" x="357.5" y="-243.5" font-family="Helvetica,sans-Serif" font-size="10.00">Question, Qualifier, void,</text>
<text text-anchor="middle" x="450" y="-232.5" font-family="Helvetica,sans-Serif" font-size="10.00"> Predicates::OperandCountQuestion &gt;</text>
</a>
</g>
</g>
<!-- Node1&#45;&gt;Node27 -->
<g id="edge26" class="edge">
<title>Node1&#45;&gt;Node27</title>
<path fill="none" stroke="midnightblue" d="M218.75,-557.1C221.84,-500.21 237.5,-361.7 316,-287.5 325.56,-278.46 337.15,-271.65 349.46,-266.52"/>
<polygon fill="midnightblue" stroke="midnightblue" points="215.24,-557.2 218.28,-567.35 222.23,-557.52 215.24,-557.2"/>
</g>
<!-- Node29 -->
<g id="node29" class="node">
<title>Node29</title>
<g id="a_node29"><a xlink:href="classmlir_1_1pdl__to__pdl__interp_1_1PredicateBase.html" target="_top" xlink:title=" ">
<polygon fill="none" stroke="black" points="357.5,-154.5 357.5,-206.5 542.5,-206.5 542.5,-154.5 357.5,-154.5"/>
<text text-anchor="start" x="365.5" y="-194.5" font-family="Helvetica,sans-Serif" font-size="10.00">mlir::pdl_to_pdl_interp</text>
<text text-anchor="start" x="365.5" y="-183.5" font-family="Helvetica,sans-Serif" font-size="10.00">::PredicateBase&lt; AttributeAnswer,</text>
<text text-anchor="start" x="365.5" y="-172.5" font-family="Helvetica,sans-Serif" font-size="10.00"> Qualifier, Attribute, Predicates</text>
<text text-anchor="middle" x="450" y="-161.5" font-family="Helvetica,sans-Serif" font-size="10.00">::AttributeAnswer &gt;</text>
</a>
</g>
</g>
<!-- Node1&#45;&gt;Node29 -->
<g id="edge28" class="edge">
<title>Node1&#45;&gt;Node29</title>
<path fill="none" stroke="midnightblue" d="M221.43,-557.14C232.06,-482.32 266.69,-264.64 316,-215.5 327.42,-204.12 342.06,-196.31 357.43,-190.98"/>
<polygon fill="midnightblue" stroke="midnightblue" points="217.96,-556.72 220.04,-567.11 224.89,-557.69 217.96,-556.72"/>
</g>
<!-- Node31 -->
<g id="node31" class="node">
<title>Node31</title>
<g id="a_node31"><a xlink:href="classmlir_1_1pdl__to__pdl__interp_1_1PredicateBase.html" target="_top" xlink:title=" ">
<polygon fill="none" stroke="black" points="345,-72 345,-135 555,-135 555,-72 345,-72"/>
<text text-anchor="start" x="353" y="-123" font-family="Helvetica,sans-Serif" font-size="10.00">mlir::pdl_to_pdl_interp</text>
<text text-anchor="start" x="353" y="-112" font-family="Helvetica,sans-Serif" font-size="10.00">::PredicateBase&lt; OperandCount</text>
<text text-anchor="start" x="353" y="-101" font-family="Helvetica,sans-Serif" font-size="10.00">AtLeastQuestion, Qualifier,</text>
<text text-anchor="start" x="353" y="-90" font-family="Helvetica,sans-Serif" font-size="10.00"> void, Predicates::OperandCountAtLeast</text>
<text text-anchor="middle" x="450" y="-79" font-family="Helvetica,sans-Serif" font-size="10.00">Question &gt;</text>
</a>
</g>
</g>
<!-- Node1&#45;&gt;Node31 -->
<g id="edge30" class="edge">
<title>Node1&#45;&gt;Node31</title>
<path fill="none" stroke="midnightblue" d="M220.38,-556.96C228.71,-472.78 259.19,-205.98 316,-144.5 324.12,-135.72 334.07,-128.8 344.84,-123.35"/>
<polygon fill="midnightblue" stroke="midnightblue" points="216.87,-556.86 219.39,-567.16 223.84,-557.54 216.87,-556.86"/>
</g>
<!-- Node33 -->
<g id="node33" class="node">
<title>Node33</title>
<g id="a_node33"><a xlink:href="classmlir_1_1pdl__to__pdl__interp_1_1PredicateBase.html" target="_top" xlink:title=" ">
<polygon fill="none" stroke="black" points="363.5,-0.5 363.5,-52.5 536.5,-52.5 536.5,-0.5 363.5,-0.5"/>
<text text-anchor="start" x="371.5" y="-40.5" font-family="Helvetica,sans-Serif" font-size="10.00">mlir::pdl_to_pdl_interp</text>
<text text-anchor="start" x="371.5" y="-29.5" font-family="Helvetica,sans-Serif" font-size="10.00">::PredicateBase&lt; TypeQuestion,</text>
<text text-anchor="start" x="371.5" y="-18.5" font-family="Helvetica,sans-Serif" font-size="10.00"> Qualifier, void, Predicates</text>
<text text-anchor="middle" x="450" y="-7.5" font-family="Helvetica,sans-Serif" font-size="10.00">::TypeQuestion &gt;</text>
</a>
</g>
</g>
<!-- Node1&#45;&gt;Node33 -->
<g id="edge32" class="edge">
<title>Node1&#45;&gt;Node33</title>
<path fill="none" stroke="midnightblue" d="M219.3,-557.18C224.62,-463.24 247.82,-136.22 316,-62.5 328.51,-48.98 345.52,-40.33 363.2,-34.85"/>
<polygon fill="midnightblue" stroke="midnightblue" points="215.79,-557.28 218.74,-567.45 222.78,-557.66 215.79,-557.28"/>
</g>
<!-- Node2 -->
<g id="node2" class="node">
<title>Node2</title>
<g id="a_node2"><a xlink:href="classmlir_1_1StorageUniquer_1_1BaseStorage.html" target="_top" xlink:title="This class acts as the base storage that all storage classes must derived from.">
<polygon fill="none" stroke="black" points="0,-567.5 0,-597.5 118,-597.5 118,-567.5 0,-567.5"/>
<text text-anchor="start" x="8" y="-585.5" font-family="Helvetica,sans-Serif" font-size="10.00">mlir::StorageUniquer</text>
<text text-anchor="middle" x="59" y="-574.5" font-family="Helvetica,sans-Serif" font-size="10.00">::BaseStorage</text>
</a>
</g>
</g>
<!-- Node2&#45;&gt;Node1 -->
<g id="edge1" class="edge">
<title>Node2&#45;&gt;Node1</title>
<path fill="none" stroke="midnightblue" d="M128.36,-582.5C136.87,-582.5 145.54,-582.5 153.94,-582.5"/>
<polygon fill="midnightblue" stroke="midnightblue" points="128.09,-579 118.09,-582.5 128.09,-586 128.09,-579"/>
</g>
<!-- Node4 -->
<g id="node4" class="node">
<title>Node4</title>
<g id="a_node4"><a xlink:href="structmlir_1_1pdl__to__pdl__interp_1_1TrueAnswer.html" target="_top" xlink:title="An Answer representing a boolean true value.">
<polygon fill="none" stroke="black" points="643.5,-1112.5 643.5,-1142.5 769.5,-1142.5 769.5,-1112.5 643.5,-1112.5"/>
<text text-anchor="start" x="651.5" y="-1130.5" font-family="Helvetica,sans-Serif" font-size="10.00">mlir::pdl_to_pdl_interp</text>
<text text-anchor="middle" x="706.5" y="-1119.5" font-family="Helvetica,sans-Serif" font-size="10.00">::TrueAnswer</text>
</a>
</g>
</g>
<!-- Node3&#45;&gt;Node4 -->
<g id="edge3" class="edge">
<title>Node3&#45;&gt;Node4</title>
<path fill="none" stroke="midnightblue" d="M541.82,-1127.5C575.43,-1127.5 612.74,-1127.5 643.24,-1127.5"/>
<polygon fill="midnightblue" stroke="midnightblue" points="541.53,-1124 531.53,-1127.5 541.53,-1131 541.53,-1124"/>
</g>
<!-- Node6 -->
<g id="node6" class="node">
<title>Node6</title>
<g id="a_node6"><a xlink:href="structmlir_1_1pdl__to__pdl__interp_1_1OperationNameQuestion.html" target="_top" xlink:title="Compare the name of an operation with a known value.">
<polygon fill="none" stroke="black" points="635,-1041.5 635,-1071.5 778,-1071.5 778,-1041.5 635,-1041.5"/>
<text text-anchor="start" x="643" y="-1059.5" font-family="Helvetica,sans-Serif" font-size="10.00">mlir::pdl_to_pdl_interp</text>
<text text-anchor="middle" x="706.5" y="-1048.5" font-family="Helvetica,sans-Serif" font-size="10.00">::OperationNameQuestion</text>
</a>
</g>
</g>
<!-- Node5&#45;&gt;Node6 -->
<g id="edge5" class="edge">
<title>Node5&#45;&gt;Node6</title>
<path fill="none" stroke="midnightblue" d="M564.69,-1056.5C588.54,-1056.5 613.04,-1056.5 634.78,-1056.5"/>
<polygon fill="midnightblue" stroke="midnightblue" points="564.51,-1053 554.51,-1056.5 564.51,-1060 564.51,-1053"/>
</g>
<!-- Node8 -->
<g id="node8" class="node">
<title>Node8</title>
<g id="a_node8"><a xlink:href="structmlir_1_1pdl__to__pdl__interp_1_1OperationNameAnswer.html" target="_top" xlink:title="An Answer representing an OperationName value.">
<polygon fill="none" stroke="black" points="638.5,-970.5 638.5,-1000.5 774.5,-1000.5 774.5,-970.5 638.5,-970.5"/>
<text text-anchor="start" x="646.5" y="-988.5" font-family="Helvetica,sans-Serif" font-size="10.00">mlir::pdl_to_pdl_interp</text>
<text text-anchor="middle" x="706.5" y="-977.5" font-family="Helvetica,sans-Serif" font-size="10.00">::OperationNameAnswer</text>
</a>
</g>
</g>
<!-- Node7&#45;&gt;Node8 -->
<g id="edge7" class="edge">
<title>Node7&#45;&gt;Node8</title>
<path fill="none" stroke="midnightblue" d="M560.91,-985.5C587.3,-985.5 614.7,-985.5 638.47,-985.5"/>
<polygon fill="midnightblue" stroke="midnightblue" points="560.85,-982 550.85,-985.5 560.85,-989 560.85,-982"/>
</g>
<!-- Node10 -->
<g id="node10" class="node">
<title>Node10</title>
<g id="a_node10"><a xlink:href="structmlir_1_1pdl__to__pdl__interp_1_1EqualToQuestion.html" target="_top" xlink:title="Compare the equality of two values.">
<polygon fill="none" stroke="black" points="643.5,-899.5 643.5,-929.5 769.5,-929.5 769.5,-899.5 643.5,-899.5"/>
<text text-anchor="start" x="651.5" y="-917.5" font-family="Helvetica,sans-Serif" font-size="10.00">mlir::pdl_to_pdl_interp</text>
<text text-anchor="middle" x="706.5" y="-906.5" font-family="Helvetica,sans-Serif" font-size="10.00">::EqualToQuestion</text>
</a>
</g>
</g>
<!-- Node9&#45;&gt;Node10 -->
<g id="edge9" class="edge">
<title>Node9&#45;&gt;Node10</title>
<path fill="none" stroke="midnightblue" d="M554.44,-914.5C584.52,-914.5 616.43,-914.5 643.14,-914.5"/>
<polygon fill="midnightblue" stroke="midnightblue" points="554.32,-911 544.32,-914.5 554.32,-918 554.32,-911"/>
</g>
<!-- Node12 -->
<g id="node12" class="node">
<title>Node12</title>
<g id="a_node12"><a xlink:href="structmlir_1_1pdl__to__pdl__interp_1_1TypeAnswer.html" target="_top" xlink:title="An Answer representing a Type value.">
<polygon fill="none" stroke="black" points="643.5,-828.5 643.5,-858.5 769.5,-858.5 769.5,-828.5 643.5,-828.5"/>
<text text-anchor="start" x="651.5" y="-846.5" font-family="Helvetica,sans-Serif" font-size="10.00">mlir::pdl_to_pdl_interp</text>
<text text-anchor="middle" x="706.5" y="-835.5" font-family="Helvetica,sans-Serif" font-size="10.00">::TypeAnswer</text>
</a>
</g>
</g>
<!-- Node11&#45;&gt;Node12 -->
<g id="edge11" class="edge">
<title>Node11&#45;&gt;Node12</title>
<path fill="none" stroke="midnightblue" d="M543.8,-843.5C576.96,-843.5 613.5,-843.5 643.44,-843.5"/>
<polygon fill="midnightblue" stroke="midnightblue" points="543.63,-840 533.63,-843.5 543.63,-847 543.63,-840"/>
</g>
<!-- Node14 -->
<g id="node14" class="node">
<title>Node14</title>
<g id="a_node14"><a xlink:href="structmlir_1_1pdl__to__pdl__interp_1_1IsNotNullQuestion.html" target="_top" xlink:title="Compare a positional value with null, i.e. check if it exists.">
<polygon fill="none" stroke="black" points="643.5,-757.5 643.5,-787.5 769.5,-787.5 769.5,-757.5 643.5,-757.5"/>
<text text-anchor="start" x="651.5" y="-775.5" font-family="Helvetica,sans-Serif" font-size="10.00">mlir::pdl_to_pdl_interp</text>
<text text-anchor="middle" x="706.5" y="-764.5" font-family="Helvetica,sans-Serif" font-size="10.00">::IsNotNullQuestion</text>
</a>
</g>
</g>
<!-- Node13&#45;&gt;Node14 -->
<g id="edge13" class="edge">
<title>Node13&#45;&gt;Node14</title>
<path fill="none" stroke="midnightblue" d="M557.8,-772.5C586.92,-772.5 617.5,-772.5 643.23,-772.5"/>
<polygon fill="midnightblue" stroke="midnightblue" points="557.58,-769 547.58,-772.5 557.58,-776 557.58,-769"/>
</g>
<!-- Node16 -->
<g id="node16" class="node">
<title>Node16</title>
<g id="a_node16"><a xlink:href="structmlir_1_1pdl__to__pdl__interp_1_1ResultCountAtLeastQuestion.html" target="_top" xlink:title=" ">
<polygon fill="none" stroke="black" points="625.5,-680.5 625.5,-710.5 787.5,-710.5 787.5,-680.5 625.5,-680.5"/>
<text text-anchor="start" x="633.5" y="-698.5" font-family="Helvetica,sans-Serif" font-size="10.00">mlir::pdl_to_pdl_interp</text>
<text text-anchor="middle" x="706.5" y="-687.5" font-family="Helvetica,sans-Serif" font-size="10.00">::ResultCountAtLeastQuestion</text>
</a>
</g>
</g>
<!-- Node15&#45;&gt;Node16 -->
<g id="edge15" class="edge">
<title>Node15&#45;&gt;Node16</title>
<path fill="none" stroke="midnightblue" d="M560.39,-695.5C582.13,-695.5 604.57,-695.5 625.12,-695.5"/>
<polygon fill="midnightblue" stroke="midnightblue" points="560.13,-692 550.13,-695.5 560.13,-699 560.13,-692"/>
</g>
<!-- Node18 -->
<g id="node18" class="node">
<title>Node18</title>
<g id="a_node18"><a xlink:href="structmlir_1_1pdl__to__pdl__interp_1_1FalseAnswer.html" target="_top" xlink:title="An Answer representing a boolean &#39;false&#39; value.">
<polygon fill="none" stroke="black" points="643.5,-603.5 643.5,-633.5 769.5,-633.5 769.5,-603.5 643.5,-603.5"/>
<text text-anchor="start" x="651.5" y="-621.5" font-family="Helvetica,sans-Serif" font-size="10.00">mlir::pdl_to_pdl_interp</text>
<text text-anchor="middle" x="706.5" y="-610.5" font-family="Helvetica,sans-Serif" font-size="10.00">::FalseAnswer</text>
</a>
</g>
</g>
<!-- Node17&#45;&gt;Node18 -->
<g id="edge17" class="edge">
<title>Node17&#45;&gt;Node18</title>
<path fill="none" stroke="midnightblue" d="M543.8,-618.5C576.96,-618.5 613.5,-618.5 643.44,-618.5"/>
<polygon fill="midnightblue" stroke="midnightblue" points="543.63,-615 533.63,-618.5 543.63,-622 543.63,-615"/>
</g>
<!-- Node20 -->
<g id="node20" class="node">
<title>Node20</title>
<g id="a_node20"><a xlink:href="structmlir_1_1pdl__to__pdl__interp_1_1ResultCountQuestion.html" target="_top" xlink:title="Compare the number of results of an operation with a known value.">
<polygon fill="none" stroke="black" points="643.5,-532.5 643.5,-562.5 769.5,-562.5 769.5,-532.5 643.5,-532.5"/>
<text text-anchor="start" x="651.5" y="-550.5" font-family="Helvetica,sans-Serif" font-size="10.00">mlir::pdl_to_pdl_interp</text>
<text text-anchor="middle" x="706.5" y="-539.5" font-family="Helvetica,sans-Serif" font-size="10.00">::ResultCountQuestion</text>
</a>
</g>
</g>
<!-- Node19&#45;&gt;Node20 -->
<g id="edge19" class="edge">
<title>Node19&#45;&gt;Node20</title>
<path fill="none" stroke="midnightblue" d="M555.8,-547.5C585.6,-547.5 617.1,-547.5 643.47,-547.5"/>
<polygon fill="midnightblue" stroke="midnightblue" points="555.77,-544 545.77,-547.5 555.77,-551 555.77,-544"/>
</g>
<!-- Node22 -->
<g id="node22" class="node">
<title>Node22</title>
<g id="a_node22"><a xlink:href="structmlir_1_1pdl__to__pdl__interp_1_1AttributeQuestion.html" target="_top" xlink:title="Compare an Attribute to a constant value.">
<polygon fill="none" stroke="black" points="643.5,-461.5 643.5,-491.5 769.5,-491.5 769.5,-461.5 643.5,-461.5"/>
<text text-anchor="start" x="651.5" y="-479.5" font-family="Helvetica,sans-Serif" font-size="10.00">mlir::pdl_to_pdl_interp</text>
<text text-anchor="middle" x="706.5" y="-468.5" font-family="Helvetica,sans-Serif" font-size="10.00">::AttributeQuestion</text>
</a>
</g>
</g>
<!-- Node21&#45;&gt;Node22 -->
<g id="edge21" class="edge">
<title>Node21&#45;&gt;Node22</title>
<path fill="none" stroke="midnightblue" d="M557.15,-476.5C586.46,-476.5 617.32,-476.5 643.25,-476.5"/>
<polygon fill="midnightblue" stroke="midnightblue" points="556.85,-473 546.85,-476.5 556.85,-480 556.85,-473"/>
</g>
<!-- Node24 -->
<g id="node24" class="node">
<title>Node24</title>
<g id="a_node24"><a xlink:href="structmlir_1_1pdl__to__pdl__interp_1_1UnsignedAnswer.html" target="_top" xlink:title="An Answer representing an unsigned value.">
<polygon fill="none" stroke="black" points="643.5,-390.5 643.5,-420.5 769.5,-420.5 769.5,-390.5 643.5,-390.5"/>
<text text-anchor="start" x="651.5" y="-408.5" font-family="Helvetica,sans-Serif" font-size="10.00">mlir::pdl_to_pdl_interp</text>
<text text-anchor="middle" x="706.5" y="-397.5" font-family="Helvetica,sans-Serif" font-size="10.00">::UnsignedAnswer</text>
</a>
</g>
</g>
<!-- Node23&#45;&gt;Node24 -->
<g id="edge23" class="edge">
<title>Node23&#45;&gt;Node24</title>
<path fill="none" stroke="midnightblue" d="M554.44,-405.5C584.52,-405.5 616.43,-405.5 643.14,-405.5"/>
<polygon fill="midnightblue" stroke="midnightblue" points="554.32,-402 544.32,-405.5 554.32,-409 554.32,-402"/>
</g>
<!-- Node26 -->
<g id="node26" class="node">
<title>Node26</title>
<g id="a_node26"><a xlink:href="structmlir_1_1pdl__to__pdl__interp_1_1ConstraintQuestion.html" target="_top" xlink:title="Apply a parameterized constraint to multiple position values and possibly produce results.">
<polygon fill="none" stroke="black" points="643.5,-313.5 643.5,-343.5 769.5,-343.5 769.5,-313.5 643.5,-313.5"/>
<text text-anchor="start" x="651.5" y="-331.5" font-family="Helvetica,sans-Serif" font-size="10.00">mlir::pdl_to_pdl_interp</text>
<text text-anchor="middle" x="706.5" y="-320.5" font-family="Helvetica,sans-Serif" font-size="10.00">::ConstraintQuestion</text>
</a>
</g>
</g>
<!-- Node25&#45;&gt;Node26 -->
<g id="edge25" class="edge">
<title>Node25&#45;&gt;Node26</title>
<path fill="none" stroke="midnightblue" d="M594.37,-328.5C611.55,-328.5 628.34,-328.5 643.45,-328.5"/>
<polygon fill="midnightblue" stroke="midnightblue" points="594.21,-325 584.21,-328.5 594.21,-332 594.21,-325"/>
</g>
<!-- Node28 -->
<g id="node28" class="node">
<title>Node28</title>
<g id="a_node28"><a xlink:href="structmlir_1_1pdl__to__pdl__interp_1_1OperandCountQuestion.html" target="_top" xlink:title="Compare the number of operands of an operation with a known value.">
<polygon fill="none" stroke="black" points="638.5,-236.5 638.5,-266.5 774.5,-266.5 774.5,-236.5 638.5,-236.5"/>
<text text-anchor="start" x="646.5" y="-254.5" font-family="Helvetica,sans-Serif" font-size="10.00">mlir::pdl_to_pdl_interp</text>
<text text-anchor="middle" x="706.5" y="-243.5" font-family="Helvetica,sans-Serif" font-size="10.00">::OperandCountQuestion</text>
</a>
</g>
</g>
<!-- Node27&#45;&gt;Node28 -->
<g id="edge27" class="edge">
<title>Node27&#45;&gt;Node28</title>
<path fill="none" stroke="midnightblue" d="M560.91,-251.5C587.3,-251.5 614.7,-251.5 638.47,-251.5"/>
<polygon fill="midnightblue" stroke="midnightblue" points="560.85,-248 550.85,-251.5 560.85,-255 560.85,-248"/>
</g>
<!-- Node30 -->
<g id="node30" class="node">
<title>Node30</title>
<g id="a_node30"><a xlink:href="structmlir_1_1pdl__to__pdl__interp_1_1AttributeAnswer.html" target="_top" xlink:title="An Answer representing an Attribute value.">
<polygon fill="none" stroke="black" points="643.5,-165.5 643.5,-195.5 769.5,-195.5 769.5,-165.5 643.5,-165.5"/>
<text text-anchor="start" x="651.5" y="-183.5" font-family="Helvetica,sans-Serif" font-size="10.00">mlir::pdl_to_pdl_interp</text>
<text text-anchor="middle" x="706.5" y="-172.5" font-family="Helvetica,sans-Serif" font-size="10.00">::AttributeAnswer</text>
</a>
</g>
</g>
<!-- Node29&#45;&gt;Node30 -->
<g id="edge29" class="edge">
<title>Node29&#45;&gt;Node30</title>
<path fill="none" stroke="midnightblue" d="M552.82,-180.5C583.47,-180.5 616.17,-180.5 643.41,-180.5"/>
<polygon fill="midnightblue" stroke="midnightblue" points="552.52,-177 542.52,-180.5 552.52,-184 552.52,-177"/>
</g>
<!-- Node32 -->
<g id="node32" class="node">
<title>Node32</title>
<g id="a_node32"><a xlink:href="structmlir_1_1pdl__to__pdl__interp_1_1OperandCountAtLeastQuestion.html" target="_top" xlink:title=" ">
<polygon fill="none" stroke="black" points="620,-88.5 620,-118.5 793,-118.5 793,-88.5 620,-88.5"/>
<text text-anchor="start" x="628" y="-106.5" font-family="Helvetica,sans-Serif" font-size="10.00">mlir::pdl_to_pdl_interp</text>
<text text-anchor="middle" x="706.5" y="-95.5" font-family="Helvetica,sans-Serif" font-size="10.00">::OperandCountAtLeastQuestion</text>
</a>
</g>
</g>
<!-- Node31&#45;&gt;Node32 -->
<g id="edge31" class="edge">
<title>Node31&#45;&gt;Node32</title>
<path fill="none" stroke="midnightblue" d="M565.34,-103.5C583.6,-103.5 602.21,-103.5 619.65,-103.5"/>
<polygon fill="midnightblue" stroke="midnightblue" points="565.25,-100 555.25,-103.5 565.25,-107 565.25,-100"/>
</g>
<!-- Node34 -->
<g id="node34" class="node">
<title>Node34</title>
<g id="a_node34"><a xlink:href="structmlir_1_1pdl__to__pdl__interp_1_1TypeQuestion.html" target="_top" xlink:title="Compare the type of an attribute or value with a known type.">
<polygon fill="none" stroke="black" points="643.5,-11.5 643.5,-41.5 769.5,-41.5 769.5,-11.5 643.5,-11.5"/>
<text text-anchor="start" x="651.5" y="-29.5" font-family="Helvetica,sans-Serif" font-size="10.00">mlir::pdl_to_pdl_interp</text>
<text text-anchor="middle" x="706.5" y="-18.5" font-family="Helvetica,sans-Serif" font-size="10.00">::TypeQuestion</text>
</a>
</g>
</g>
<!-- Node33&#45;&gt;Node34 -->
<g id="edge33" class="edge">
<title>Node33&#45;&gt;Node34</title>
<path fill="none" stroke="midnightblue" d="M547.16,-26.5C579.39,-26.5 614.46,-26.5 643.38,-26.5"/>
<polygon fill="midnightblue" stroke="midnightblue" points="546.81,-23 536.81,-26.5 546.81,-30 546.81,-23"/>
</g>
</g>
</svg>
