<?xml version="1.0" encoding="UTF-8" standalone="no"?>
<!DOCTYPE svg PUBLIC "-//W3C//DTD SVG 1.1//EN"
 "http://www.w3.org/Graphics/SVG/1.1/DTD/svg11.dtd">
<!-- Generated by graphviz version 2.43.0 (0)
 -->
<!-- Title: mlir::quant::UniformQuantizedType Pages: 1 -->
<svg width="575pt" height="66pt"
 viewBox="0.00 0.00 575.00 66.00" xmlns="http://www.w3.org/2000/svg" xmlns:xlink="http://www.w3.org/1999/xlink">
<g id="graph0" class="graph" transform="scale(1 1) rotate(0) translate(4 62)">
<title>mlir::quant::UniformQuantizedType</title>
<!-- Node1 -->
<g id="node1" class="node">
<title>Node1</title>
<g id="a_node1"><a xlink:title="Represents a family of uniform, quantized types.">
<polygon fill="#bfbfbf" stroke="black" points="379,-19.5 379,-38.5 567,-38.5 567,-19.5 379,-19.5"/>
<text text-anchor="middle" x="473" y="-26.5" font-family="Helvetica,sans-Serif" font-size="10.00">mlir::quant::UniformQuantizedType</text>
</a>
</g>
</g>
<!-- Node2 -->
<g id="node2" class="node">
<title>Node2</title>
<g id="a_node2"><a xlink:href="classmlir_1_1detail_1_1StorageUserBase.html" target="_top" xlink:title="Utility class for implementing users of storage classes uniqued by a StorageUniquer.">
<polygon fill="none" stroke="black" points="151,-8.5 151,-49.5 343,-49.5 343,-8.5 151,-8.5"/>
<text text-anchor="start" x="159" y="-37.5" font-family="Helvetica,sans-Serif" font-size="10.00">Type::TypeBase&lt; UniformQuantized</text>
<text text-anchor="start" x="159" y="-26.5" font-family="Helvetica,sans-Serif" font-size="10.00">Type, QuantizedType, detail</text>
<text text-anchor="middle" x="247" y="-15.5" font-family="Helvetica,sans-Serif" font-size="10.00">::UniformQuantizedTypeStorage &gt;</text>
</a>
</g>
</g>
<!-- Node2&#45;&gt;Node1 -->
<g id="edge1" class="edge">
<title>Node2&#45;&gt;Node1</title>
<path fill="none" stroke="midnightblue" d="M353.59,-29C362.05,-29 370.55,-29 378.9,-29"/>
<polygon fill="midnightblue" stroke="midnightblue" points="353.32,-25.5 343.32,-29 353.32,-32.5 353.32,-25.5"/>
</g>
<!-- Node3 -->
<g id="node3" class="node">
<title>Node3</title>
<g id="a_node3"><a xlink:href="classBaseT.html" target="_top" xlink:title=" ">
<polygon fill="none" stroke="black" points="34,-38.5 34,-57.5 81,-57.5 81,-38.5 34,-38.5"/>
<text text-anchor="middle" x="57.5" y="-45.5" font-family="Helvetica,sans-Serif" font-size="10.00">BaseT</text>
</a>
</g>
</g>
<!-- Node3&#45;&gt;Node2 -->
<g id="edge2" class="edge">
<title>Node3&#45;&gt;Node2</title>
<path fill="none" stroke="midnightblue" d="M91.42,-44.66C108.18,-42.97 129.49,-40.81 150.9,-38.64"/>
<polygon fill="midnightblue" stroke="midnightblue" points="90.71,-41.22 81.12,-45.71 91.42,-48.18 90.71,-41.22"/>
</g>
<!-- Node4 -->
<g id="node4" class="node">
<title>Node4</title>
<g id="a_node4"><a xlink:title=" ">
<polygon fill="none" stroke="#bfbfbf" points="0,-0.5 0,-19.5 115,-19.5 115,-0.5 0,-0.5"/>
<text text-anchor="middle" x="57.5" y="-7.5" font-family="Helvetica,sans-Serif" font-size="10.00">Traits&lt; ConcreteT &gt;</text>
</a>
</g>
</g>
<!-- Node4&#45;&gt;Node2 -->
<g id="edge3" class="edge">
<title>Node4&#45;&gt;Node2</title>
<path fill="none" stroke="midnightblue" d="M125.03,-16.74C133.38,-17.59 142.05,-18.47 150.74,-19.35"/>
<polygon fill="midnightblue" stroke="midnightblue" points="125.31,-13.25 115.01,-15.73 124.61,-20.22 125.31,-13.25"/>
</g>
</g>
</svg>
