<?xml version="1.0" encoding="UTF-8" standalone="no"?>
<!DOCTYPE svg PUBLIC "-//W3C//DTD SVG 1.1//EN"
 "http://www.w3.org/Graphics/SVG/1.1/DTD/svg11.dtd">
<!-- Generated by graphviz version 2.43.0 (0)
 -->
<!-- Title: mlir::transform::TransformDialectExtension&lt; DerivedTy, ExtraDialects &gt; Pages: 1 -->
<svg width="1402pt" height="98pt"
 viewBox="0.00 0.00 1402.00 97.50" xmlns="http://www.w3.org/2000/svg" xmlns:xlink="http://www.w3.org/1999/xlink">
<g id="graph0" class="graph" transform="scale(1 1) rotate(0) translate(4 93.5)">
<title>mlir::transform::TransformDialectExtension&lt; DerivedTy, ExtraDialects &gt;</title>
<!-- Node1 -->
<g id="Node000001" class="node">
<title>Node1</title>
<g id="a_Node000001"><a xlink:title="Base class for extensions of the Transform dialect that supports injecting operations into the Transf...">
<polygon fill="#999999" stroke="#666666" points="884,-62.5 722,-62.5 722,-21.5 884,-21.5 884,-62.5"/>
<text text-anchor="start" x="730" y="-50.5" font-family="Helvetica,sans-Serif" font-size="10.00">mlir::transform::Transform</text>
<text text-anchor="start" x="730" y="-39.5" font-family="Helvetica,sans-Serif" font-size="10.00">DialectExtension&lt; DerivedTy,</text>
<text text-anchor="middle" x="803" y="-28.5" font-family="Helvetica,sans-Serif" font-size="10.00"> ExtraDialects &gt;</text>
</a>
</g>
</g>
<!-- Node5 -->
<g id="Node000005" class="node">
<title>Node5</title>
<g id="a_Node000005"><a xlink:href="classmlir_1_1transform_1_1TransformDialectExtension.html" target="_top" xlink:title=" ">
<polygon fill="white" stroke="#666666" points="1255,-89.5 1093,-89.5 1093,-48.5 1255,-48.5 1255,-89.5"/>
<text text-anchor="start" x="1101" y="-77.5" font-family="Helvetica,sans-Serif" font-size="10.00">mlir::transform::Transform</text>
<text text-anchor="start" x="1101" y="-66.5" font-family="Helvetica,sans-Serif" font-size="10.00">DialectExtension&lt; DerivedTy,</text>
<text text-anchor="middle" x="1174" y="-55.5" font-family="Helvetica,sans-Serif" font-size="10.00"> ExtraDialects... &gt;</text>
</a>
</g>
</g>
<!-- Node1&#45;&gt;Node5 -->
<g id="edge5_Node000001_Node000005" class="edge">
<title>Node1&#45;&gt;Node5</title>
<g id="a_edge5_Node000001_Node000005"><a xlink:title=" ">
<path fill="none" stroke="orange" stroke-dasharray="5,2" d="M894.41,-48.62C955.09,-53.06 1034.32,-58.85 1092.77,-63.13"/>
<polygon fill="orange" stroke="orange" points="894.3,-45.1 884.07,-47.86 893.79,-52.08 894.3,-45.1"/>
</a>
</g>
<text text-anchor="start" x="905" y="-65.5" font-family="Helvetica,sans-Serif" font-size="10.00" fill="grey">&lt; DerivedTy, ExtraDialects... &gt;</text>
</g>
<!-- Node6 -->
<g id="Node000006" class="node">
<title>Node6</title>
<g id="a_Node000006"><a xlink:href="classmlir_1_1transform_1_1TransformDialectExtension.html" target="_top" xlink:title=" ">
<polygon fill="white" stroke="#666666" points="1270,-30 1078,-30 1078,0 1270,0 1270,-30"/>
<text text-anchor="start" x="1086" y="-18" font-family="Helvetica,sans-Serif" font-size="10.00">mlir::transform::Transform</text>
<text text-anchor="middle" x="1174" y="-7" font-family="Helvetica,sans-Serif" font-size="10.00">DialectExtension&lt; TuneExtension &gt;</text>
</a>
</g>
</g>
<!-- Node1&#45;&gt;Node6 -->
<g id="edge6_Node000001_Node000006" class="edge">
<title>Node1&#45;&gt;Node6</title>
<g id="a_edge6_Node000001_Node000006"><a xlink:title=" ">
<path fill="none" stroke="orange" stroke-dasharray="5,2" d="M894.27,-28.78C896.87,-28.5 899.45,-28.24 902,-28 960.26,-22.45 1025.81,-19.23 1077.84,-17.38"/>
<polygon fill="orange" stroke="orange" points="893.69,-25.32 884.15,-29.92 894.48,-32.28 893.69,-25.32"/>
</a>
</g>
<text text-anchor="start" x="934" y="-33.5" font-family="Helvetica,sans-Serif" font-size="10.00" fill="grey">&lt; TuneExtension &gt;</text>
</g>
<!-- Node2 -->
<g id="Node000002" class="node">
<title>Node2</title>
<g id="a_Node000002"><a xlink:href="classmlir_1_1DialectExtension.html" target="_top" xlink:title=" ">
<polygon fill="white" stroke="#666666" points="685,-62.5 516,-62.5 516,-21.5 685,-21.5 685,-62.5"/>
<text text-anchor="start" x="524" y="-50.5" font-family="Helvetica,sans-Serif" font-size="10.00">mlir::DialectExtension</text>
<text text-anchor="start" x="524" y="-39.5" font-family="Helvetica,sans-Serif" font-size="10.00">&lt; DerivedTy, TransformDialect,</text>
<text text-anchor="middle" x="600.5" y="-28.5" font-family="Helvetica,sans-Serif" font-size="10.00"> ExtraDialects... &gt;</text>
</a>
</g>
</g>
<!-- Node2&#45;&gt;Node1 -->
<g id="edge1_Node000001_Node000002" class="edge">
<title>Node2&#45;&gt;Node1</title>
<g id="a_edge1_Node000001_Node000002"><a xlink:title=" ">
<path fill="none" stroke="#63b8ff" d="M695.1,-42C704.01,-42 713,-42 721.77,-42"/>
<polygon fill="#63b8ff" stroke="#63b8ff" points="695.08,-38.5 685.08,-42 695.08,-45.5 695.08,-38.5"/>
</a>
</g>
</g>
<!-- Node3 -->
<g id="Node000003" class="node">
<title>Node3</title>
<g id="a_Node000003"><a xlink:href="classmlir_1_1DialectExtensionBase.html" target="_top" xlink:title="This class represents an opaque dialect extension.">
<polygon fill="white" stroke="#666666" points="149,-53.5 0,-53.5 0,-34.5 149,-34.5 149,-53.5"/>
<text text-anchor="middle" x="74.5" y="-41.5" font-family="Helvetica,sans-Serif" font-size="10.00">mlir::DialectExtensionBase</text>
</a>
</g>
</g>
<!-- Node3&#45;&gt;Node2 -->
<g id="edge2_Node000002_Node000003" class="edge">
<title>Node3&#45;&gt;Node2</title>
<g id="a_edge2_Node000002_Node000003"><a xlink:title=" ">
<path fill="none" stroke="#63b8ff" d="M159.34,-48.94C244.63,-53.18 380.59,-57.77 498,-52 503.84,-51.71 509.85,-51.33 515.91,-50.89"/>
<polygon fill="#63b8ff" stroke="#63b8ff" points="159.36,-45.44 149.2,-48.43 159.01,-52.43 159.36,-45.44"/>
</a>
</g>
</g>
<!-- Node4 -->
<g id="Node000004" class="node">
<title>Node4</title>
<g id="a_Node000004"><a xlink:href="classmlir_1_1DialectExtension.html" target="_top" xlink:title="This class represents a dialect extension anchored on the given set of dialects.">
<polygon fill="white" stroke="#666666" points="321,-36 186,-36 186,-6 321,-6 321,-36"/>
<text text-anchor="start" x="194" y="-24" font-family="Helvetica,sans-Serif" font-size="10.00">mlir::DialectExtension</text>
<text text-anchor="middle" x="253.5" y="-13" font-family="Helvetica,sans-Serif" font-size="10.00">&lt; DerivedT, DialectsT &gt;</text>
</a>
</g>
</g>
<!-- Node3&#45;&gt;Node4 -->
<g id="edge4_Node000004_Node000003" class="edge">
<title>Node3&#45;&gt;Node4</title>
<g id="a_edge4_Node000004_Node000003"><a xlink:title=" ">
<path fill="none" stroke="#63b8ff" d="M158.9,-33.16C167.93,-31.99 177.02,-30.81 185.8,-29.67"/>
<polygon fill="#63b8ff" stroke="#63b8ff" points="158.24,-29.72 148.77,-34.48 159.14,-36.66 158.24,-29.72"/>
</a>
</g>
</g>
<!-- Node4&#45;&gt;Node2 -->
<g id="edge3_Node000002_Node000004" class="edge">
<title>Node4&#45;&gt;Node2</title>
<g id="a_edge3_Node000002_Node000004"><a xlink:title=" ">
<path fill="none" stroke="orange" stroke-dasharray="5,2" d="M331.38,-20.05C333.95,-20.03 336.5,-20.01 339,-20 409.67,-19.58 427.74,-12.47 498,-20 503.83,-20.62 509.81,-21.44 515.82,-22.4"/>
<polygon fill="orange" stroke="orange" points="331.35,-16.55 321.38,-20.14 331.41,-23.55 331.35,-16.55"/>
</a>
</g>
<text text-anchor="start" x="342.5" y="-41" font-family="Helvetica,sans-Serif" font-size="10.00" fill="grey">&lt; DerivedTy, TransformDialect,</text>
<text text-anchor="start" x="342.5" y="-26" font-family="Helvetica,sans-Serif" font-size="10.00" fill="grey">   ExtraDialects... &gt;</text>
</g>
<!-- Node7 -->
<g id="Node000007" class="node">
<title>Node7</title>
<g id="a_Node000007"><a xlink:href="classTuneExtension.html" target="_top" xlink:title=" ">
<polygon fill="white" stroke="#666666" points="1394,-24.5 1307,-24.5 1307,-5.5 1394,-5.5 1394,-24.5"/>
<text text-anchor="middle" x="1350.5" y="-12.5" font-family="Helvetica,sans-Serif" font-size="10.00">TuneExtension</text>
</a>
</g>
</g>
<!-- Node6&#45;&gt;Node7 -->
<g id="edge7_Node000006_Node000007" class="edge">
<title>Node6&#45;&gt;Node7</title>
<g id="a_edge7_Node000006_Node000007"><a xlink:title=" ">
<path fill="none" stroke="#63b8ff" d="M1280.26,-15C1289.49,-15 1298.43,-15 1306.66,-15"/>
<polygon fill="#63b8ff" stroke="#63b8ff" points="1280.16,-11.5 1270.16,-15 1280.16,-18.5 1280.16,-11.5"/>
</a>
</g>
</g>
</g>
</svg>
