<?xml version="1.0" encoding="UTF-8" standalone="no"?>
<!DOCTYPE svg PUBLIC "-//W3C//DTD SVG 1.1//EN"
 "http://www.w3.org/Graphics/SVG/1.1/DTD/svg11.dtd">
<!-- Generated by graphviz version 2.43.0 (0)
 -->
<!-- Title: mlir::OpTrait::AtLeastNResults&lt; N &gt;::Impl&lt; ConcreteType &gt; Pages: 1 -->
<svg width="938pt" height="83pt"
 viewBox="0.00 0.00 938.00 82.50" xmlns="http://www.w3.org/2000/svg" xmlns:xlink="http://www.w3.org/1999/xlink">
<g id="graph0" class="graph" transform="scale(1 1) rotate(0) translate(4 78.5)">
<title>mlir::OpTrait::AtLeastNResults&lt; N &gt;::Impl&lt; ConcreteType &gt;</title>
<!-- Node1 -->
<g id="node1" class="node">
<title>Node1</title>
<g id="a_node1"><a xlink:title=" ">
<polygon fill="#bfbfbf" stroke="black" points="767,-33 767,-63 930,-63 930,-33 767,-33"/>
<text text-anchor="start" x="775" y="-51" font-family="Helvetica,sans-Serif" font-size="10.00">mlir::OpTrait::AtLeastNResults</text>
<text text-anchor="middle" x="848.5" y="-40" font-family="Helvetica,sans-Serif" font-size="10.00">&lt; N &gt;::Impl&lt; ConcreteType &gt;</text>
</a>
</g>
</g>
<!-- Node2 -->
<g id="node2" class="node">
<title>Node2</title>
<g id="a_node2"><a xlink:href="structmlir_1_1OpTrait_1_1detail_1_1MultiResultTraitBase.html" target="_top" xlink:title=" ">
<polygon fill="none" stroke="black" points="550,-22 550,-74 730,-74 730,-22 550,-22"/>
<text text-anchor="start" x="558" y="-62" font-family="Helvetica,sans-Serif" font-size="10.00">mlir::OpTrait::detail</text>
<text text-anchor="start" x="558" y="-51" font-family="Helvetica,sans-Serif" font-size="10.00">::MultiResultTraitBase</text>
<text text-anchor="start" x="558" y="-40" font-family="Helvetica,sans-Serif" font-size="10.00">&lt; ConcreteType, AtLeastNResults</text>
<text text-anchor="middle" x="640" y="-29" font-family="Helvetica,sans-Serif" font-size="10.00">&lt; N &gt;::Impl &gt;</text>
</a>
</g>
</g>
<!-- Node2&#45;&gt;Node1 -->
<g id="edge1" class="edge">
<title>Node2&#45;&gt;Node1</title>
<path fill="none" stroke="midnightblue" d="M740.15,-48C749.1,-48 758.09,-48 766.86,-48"/>
<polygon fill="midnightblue" stroke="midnightblue" points="740.07,-44.5 730.07,-48 740.07,-51.5 740.07,-44.5"/>
</g>
<!-- Node3 -->
<g id="node3" class="node">
<title>Node3</title>
<g id="a_node3"><a xlink:href="classmlir_1_1OpTrait_1_1TraitBase.html" target="_top" xlink:title="Helper class for implementing traits.">
<polygon fill="none" stroke="black" points="0,-30 0,-60 155,-60 155,-30 0,-30"/>
<text text-anchor="start" x="8" y="-48" font-family="Helvetica,sans-Serif" font-size="10.00">mlir::OpTrait::TraitBase</text>
<text text-anchor="middle" x="77.5" y="-37" font-family="Helvetica,sans-Serif" font-size="10.00">&lt; ConcreteType, TraitType &gt;</text>
</a>
</g>
</g>
<!-- Node3&#45;&gt;Node2 -->
<g id="edge2" class="edge">
<title>Node3&#45;&gt;Node2</title>
<path fill="none" stroke="midnightblue" d="M165.27,-49.8C174.3,-50.24 183.33,-50.65 192,-51 343,-57.17 380.98,-61.64 532,-56 537.86,-55.78 543.9,-55.49 549.99,-55.16"/>
<polygon fill="midnightblue" stroke="midnightblue" points="165.27,-46.3 155.11,-49.3 164.93,-53.29 165.27,-46.3"/>
</g>
<!-- Node4 -->
<g id="node4" class="node">
<title>Node4</title>
<g id="a_node4"><a xlink:href="structmlir_1_1OpTrait_1_1detail_1_1MultiResultTraitBase.html" target="_top" xlink:title="Utility trait base that provides accessors for derived traits that have multiple results.">
<polygon fill="none" stroke="black" points="192,-0.5 192,-41.5 347,-41.5 347,-0.5 192,-0.5"/>
<text text-anchor="start" x="200" y="-29.5" font-family="Helvetica,sans-Serif" font-size="10.00">mlir::OpTrait::detail</text>
<text text-anchor="start" x="200" y="-18.5" font-family="Helvetica,sans-Serif" font-size="10.00">::MultiResultTraitBase</text>
<text text-anchor="middle" x="269.5" y="-7.5" font-family="Helvetica,sans-Serif" font-size="10.00">&lt; ConcreteType, TraitType &gt;</text>
</a>
</g>
</g>
<!-- Node3&#45;&gt;Node4 -->
<g id="edge4" class="edge">
<title>Node3&#45;&gt;Node4</title>
<path fill="none" stroke="midnightblue" d="M165.19,-34.05C174.06,-32.93 183.04,-31.8 191.79,-30.69"/>
<polygon fill="midnightblue" stroke="midnightblue" points="164.72,-30.58 155.23,-35.31 165.59,-37.53 164.72,-30.58"/>
</g>
<!-- Node4&#45;&gt;Node2 -->
<g id="edge3" class="edge">
<title>Node4&#45;&gt;Node2</title>
<path fill="none" stroke="orange" stroke-dasharray="5,2" d="M357.59,-23.58C408.5,-25.52 473.98,-28.77 532,-34 537.78,-34.52 543.74,-35.12 549.73,-35.77"/>
<polygon fill="orange" stroke="orange" points="357.4,-20.07 347.28,-23.19 357.14,-27.06 357.4,-20.07"/>
<text text-anchor="start" x="365" y="-48" font-family="Helvetica,sans-Serif" font-size="10.00"> &lt; ConcreteType, AtLeastNResults</text>
<text text-anchor="middle" x="448.5" y="-37" font-family="Helvetica,sans-Serif" font-size="10.00">&lt; N &gt;::Impl &gt;</text>
</g>
</g>
</svg>
