<?xml version="1.0" encoding="UTF-8" standalone="no"?>
<!DOCTYPE svg PUBLIC "-//W3C//DTD SVG 1.1//EN"
 "http://www.w3.org/Graphics/SVG/1.1/DTD/svg11.dtd">
<!-- Generated by graphviz version 2.43.0 (0)
 -->
<!-- Title: mlir::pdll::ast::TypeConstraintDecl Pages: 1 -->
<svg width="190pt" height="151pt"
 viewBox="0.00 0.00 190.00 151.00" xmlns="http://www.w3.org/2000/svg" xmlns:xlink="http://www.w3.org/1999/xlink">
<g id="graph0" class="graph" transform="scale(1 1) rotate(0) translate(4 147)">
<title>mlir::pdll::ast::TypeConstraintDecl</title>
<!-- Node1 -->
<g id="node1" class="node">
<title>Node1</title>
<g id="a_node1"><a xlink:title="The class represents a Type constraint, and constrains a variable to be a Type.">
<polygon fill="#bfbfbf" stroke="black" points="0,-0.5 0,-19.5 182,-19.5 182,-0.5 0,-0.5"/>
<text text-anchor="middle" x="91" y="-7.5" font-family="Helvetica,sans-Serif" font-size="10.00">mlir::pdll::ast::TypeConstraintDecl</text>
</a>
</g>
</g>
<!-- Node2 -->
<g id="node2" class="node">
<title>Node2</title>
<g id="a_node2"><a xlink:href="classmlir_1_1pdll_1_1ast_1_1Node_1_1NodeBase.html" target="_top" xlink:title="This CRTP class provides several utilies when defining new AST nodes.">
<polygon fill="none" stroke="black" points="22.5,-56.5 22.5,-86.5 159.5,-86.5 159.5,-56.5 22.5,-56.5"/>
<text text-anchor="start" x="30.5" y="-74.5" font-family="Helvetica,sans-Serif" font-size="10.00">mlir::pdll::ast::Node</text>
<text text-anchor="middle" x="91" y="-63.5" font-family="Helvetica,sans-Serif" font-size="10.00">::NodeBase&lt; T, BaseT &gt;</text>
</a>
</g>
</g>
<!-- Node2&#45;&gt;Node1 -->
<g id="edge1" class="edge">
<title>Node2&#45;&gt;Node1</title>
<path fill="none" stroke="midnightblue" d="M91,-46.29C91,-36.86 91,-26.65 91,-19.66"/>
<polygon fill="midnightblue" stroke="midnightblue" points="87.5,-46.4 91,-56.4 94.5,-46.4 87.5,-46.4"/>
</g>
<!-- Node3 -->
<g id="node3" class="node">
<title>Node3</title>
<g id="a_node3"><a xlink:href="classBaseT.html" target="_top" xlink:title=" ">
<polygon fill="none" stroke="black" points="67.5,-123.5 67.5,-142.5 114.5,-142.5 114.5,-123.5 67.5,-123.5"/>
<text text-anchor="middle" x="91" y="-130.5" font-family="Helvetica,sans-Serif" font-size="10.00">BaseT</text>
</a>
</g>
</g>
<!-- Node3&#45;&gt;Node2 -->
<g id="edge2" class="edge">
<title>Node3&#45;&gt;Node2</title>
<path fill="none" stroke="midnightblue" d="M91,-113.23C91,-104.59 91,-94.5 91,-86.52"/>
<polygon fill="midnightblue" stroke="midnightblue" points="87.5,-113.48 91,-123.48 94.5,-113.48 87.5,-113.48"/>
</g>
</g>
</svg>
