<?xml version="1.0" encoding="UTF-8" standalone="no"?>
<!DOCTYPE svg PUBLIC "-//W3C//DTD SVG 1.1//EN"
 "http://www.w3.org/Graphics/SVG/1.1/DTD/svg11.dtd">
<!-- Generated by graphviz version 2.43.0 (0)
 -->
<!-- Title: mlir::OpTrait::ConstantLike&lt; ConcreteType &gt; Pages: 1 -->
<svg width="228pt" height="203pt"
 viewBox="0.00 0.00 228.00 203.00" xmlns="http://www.w3.org/2000/svg" xmlns:xlink="http://www.w3.org/1999/xlink">
<g id="graph0" class="graph" transform="scale(1 1) rotate(0) translate(4 199)">
<title>mlir::OpTrait::ConstantLike&lt; ConcreteType &gt;</title>
<!-- Node1 -->
<g id="Node000001" class="node">
<title>Node1</title>
<g id="a_Node000001"><a xlink:title="This class provides the API for a sub&#45;set of ops that are known to be constant&#45;like.">
<polygon fill="#999999" stroke="#666666" points="160,-30 14,-30 14,0 160,0 160,-30"/>
<text text-anchor="start" x="22" y="-18" font-family="Helvetica,sans-Serif" font-size="10.00">mlir::OpTrait::ConstantLike</text>
<text text-anchor="middle" x="87" y="-7" font-family="Helvetica,sans-Serif" font-size="10.00">&lt; ConcreteType &gt;</text>
</a>
</g>
</g>
<!-- Node2 -->
<g id="Node000002" class="node">
<title>Node2</title>
<g id="a_Node000002"><a xlink:href="classmlir_1_1OpTrait_1_1TraitBase.html" target="_top" xlink:title=" ">
<polygon fill="white" stroke="#666666" points="174,-97 0,-97 0,-67 174,-67 174,-97"/>
<text text-anchor="start" x="8" y="-85" font-family="Helvetica,sans-Serif" font-size="10.00">mlir::OpTrait::TraitBase</text>
<text text-anchor="middle" x="87" y="-74" font-family="Helvetica,sans-Serif" font-size="10.00">&lt; ConcreteType, ConstantLike &gt;</text>
</a>
</g>
</g>
<!-- Node2&#45;&gt;Node1 -->
<g id="edge1_Node000001_Node000002" class="edge">
<title>Node2&#45;&gt;Node1</title>
<g id="a_edge1_Node000001_Node000002"><a xlink:title=" ">
<path fill="none" stroke="#63b8ff" d="M87,-56.61C87,-47.65 87,-37.82 87,-30.08"/>
<polygon fill="#63b8ff" stroke="#63b8ff" points="83.5,-56.9 87,-66.9 90.5,-56.9 83.5,-56.9"/>
</a>
</g>
</g>
<!-- Node3 -->
<g id="Node000003" class="node">
<title>Node3</title>
<g id="a_Node000003"><a xlink:href="classmlir_1_1OpTrait_1_1TraitBase.html" target="_top" xlink:title="Helper class for implementing traits.">
<polygon fill="white" stroke="#666666" points="164.5,-195 9.5,-195 9.5,-165 164.5,-165 164.5,-195"/>
<text text-anchor="start" x="17.5" y="-183" font-family="Helvetica,sans-Serif" font-size="10.00">mlir::OpTrait::TraitBase</text>
<text text-anchor="middle" x="87" y="-172" font-family="Helvetica,sans-Serif" font-size="10.00">&lt; ConcreteType, TraitType &gt;</text>
</a>
</g>
</g>
<!-- Node3&#45;&gt;Node2 -->
<g id="edge2_Node000002_Node000003" class="edge">
<title>Node3&#45;&gt;Node2</title>
<g id="a_edge2_Node000002_Node000003"><a xlink:title=" ">
<path fill="none" stroke="orange" stroke-dasharray="5,2" d="M87,-154.7C87,-136.55 87,-112.35 87,-97.22"/>
<polygon fill="orange" stroke="orange" points="83.5,-154.83 87,-164.83 90.5,-154.83 83.5,-154.83"/>
</a>
</g>
<text text-anchor="start" x="90.5" y="-136" font-family="Helvetica,sans-Serif" font-size="10.00" fill="grey">&lt; ConcreteType, Constant</text>
<text text-anchor="start" x="90.5" y="-121" font-family="Helvetica,sans-Serif" font-size="10.00" fill="grey">  Like &gt;</text>
</g>
</g>
</svg>
