<?xml version="1.0" encoding="UTF-8" standalone="no"?>
<!DOCTYPE svg PUBLIC "-//W3C//DTD SVG 1.1//EN"
 "http://www.w3.org/Graphics/SVG/1.1/DTD/svg11.dtd">
<!-- Generated by graphviz version 2.43.0 (0)
 -->
<!-- Title: mlir::affine::AffineDmaWaitOp Pages: 1 -->
<svg width="1938pt" height="180pt"
 viewBox="0.00 0.00 1938.00 179.51" xmlns="http://www.w3.org/2000/svg" xmlns:xlink="http://www.w3.org/1999/xlink">
<g id="graph0" class="graph" transform="scale(1 1) rotate(0) translate(4 175.51)">
<title>mlir::affine::AffineDmaWaitOp</title>
<!-- Node1 -->
<g id="node1" class="node">
<title>Node1</title>
<g id="a_node1"><a xlink:title="AffineDmaWaitOp blocks until the completion of a DMA operation associated with the tag element &#39;tag[i...">
<polygon fill="#bfbfbf" stroke="black" points="1767,-78 1767,-97 1930,-97 1930,-78 1767,-78"/>
<text text-anchor="middle" x="1848.5" y="-85" font-family="Helvetica,sans-Serif" font-size="10.00">mlir::affine::AffineDmaWaitOp</text>
</a>
</g>
</g>
<!-- Node2 -->
<g id="node2" class="node">
<title>Node2</title>
<g id="a_node2"><a xlink:href="classmlir_1_1Op.html" target="_top" xlink:title=" ">
<polygon fill="none" stroke="black" points="1474,-56 1474,-119 1730,-119 1730,-56 1474,-56"/>
<text text-anchor="start" x="1482" y="-107" font-family="Helvetica,sans-Serif" font-size="10.00">mlir::Op&lt; AffineDmaWaitOp,</text>
<text text-anchor="start" x="1482" y="-96" font-family="Helvetica,sans-Serif" font-size="10.00"> OpTrait::MemRefsNormalizable,</text>
<text text-anchor="start" x="1482" y="-85" font-family="Helvetica,sans-Serif" font-size="10.00"> OpTrait::VariadicOperands,</text>
<text text-anchor="start" x="1482" y="-74" font-family="Helvetica,sans-Serif" font-size="10.00"> OpTrait::ZeroResults, OpTrait</text>
<text text-anchor="middle" x="1602" y="-63" font-family="Helvetica,sans-Serif" font-size="10.00">::OpInvariants, AffineMapAccessInterface::Trait &gt;</text>
</a>
</g>
</g>
<!-- Node2&#45;&gt;Node1 -->
<g id="edge1" class="edge">
<title>Node2&#45;&gt;Node1</title>
<path fill="none" stroke="midnightblue" d="M1740.42,-87.5C1749.39,-87.5 1758.24,-87.5 1766.79,-87.5"/>
<polygon fill="midnightblue" stroke="midnightblue" points="1740.26,-84 1730.26,-87.5 1740.26,-91 1740.26,-84"/>
</g>
<!-- Node3 -->
<g id="node3" class="node">
<title>Node3</title>
<g id="a_node3"><a xlink:href="classmlir_1_1OpState.html" target="_top" xlink:title="This is the concrete base class that holds the operation pointer and has non&#45;generic methods that onl...">
<polygon fill="none" stroke="black" points="717.5,-141 717.5,-160 798.5,-160 798.5,-141 717.5,-141"/>
<text text-anchor="middle" x="758" y="-148" font-family="Helvetica,sans-Serif" font-size="10.00">mlir::OpState</text>
</a>
</g>
</g>
<!-- Node3&#45;&gt;Node2 -->
<g id="edge2" class="edge">
<title>Node3&#45;&gt;Node2</title>
<path fill="none" stroke="midnightblue" d="M809.07,-156.05C924.45,-167.54 1217.43,-189.21 1456,-143.5 1482.37,-138.45 1510.15,-128.86 1534.25,-119.03"/>
<polygon fill="midnightblue" stroke="midnightblue" points="809.09,-152.54 798.79,-155.01 808.39,-159.5 809.09,-152.54"/>
</g>
<!-- Node8 -->
<g id="node8" class="node">
<title>Node8</title>
<g id="a_node8"><a xlink:href="classmlir_1_1Op.html" target="_top" xlink:title="This provides public APIs that all operations should have.">
<polygon fill="none" stroke="black" points="1033,-89.5 1033,-119.5 1169,-119.5 1169,-89.5 1033,-89.5"/>
<text text-anchor="start" x="1041" y="-107.5" font-family="Helvetica,sans-Serif" font-size="10.00">mlir::Op&lt; ConcreteType,</text>
<text text-anchor="middle" x="1101" y="-96.5" font-family="Helvetica,sans-Serif" font-size="10.00"> Traits &gt;</text>
</a>
</g>
</g>
<!-- Node3&#45;&gt;Node8 -->
<g id="edge9" class="edge">
<title>Node3&#45;&gt;Node8</title>
<path fill="none" stroke="midnightblue" d="M809.01,-143.75C868.23,-135.77 967.12,-122.43 1032.94,-113.55"/>
<polygon fill="midnightblue" stroke="midnightblue" points="808.23,-140.33 798.78,-145.13 809.16,-147.26 808.23,-140.33"/>
</g>
<!-- Node4 -->
<g id="node4" class="node">
<title>Node4</title>
<g id="a_node4"><a xlink:href="structmlir_1_1OpTrait_1_1MemRefsNormalizable.html" target="_top" xlink:title=" ">
<polygon fill="none" stroke="black" points="1004,-39.5 1004,-69.5 1198,-69.5 1198,-39.5 1004,-39.5"/>
<text text-anchor="start" x="1012" y="-57.5" font-family="Helvetica,sans-Serif" font-size="10.00">mlir::OpTrait::MemRefsNormalizable</text>
<text text-anchor="middle" x="1101" y="-46.5" font-family="Helvetica,sans-Serif" font-size="10.00">&lt; AffineDmaWaitOp &gt;</text>
</a>
</g>
</g>
<!-- Node4&#45;&gt;Node2 -->
<g id="edge3" class="edge">
<title>Node4&#45;&gt;Node2</title>
<path fill="none" stroke="midnightblue" d="M1208.5,-61.54C1286.19,-66.68 1391.81,-73.67 1473.91,-79.1"/>
<polygon fill="midnightblue" stroke="midnightblue" points="1208.42,-58.03 1198.21,-60.86 1207.96,-65.02 1208.42,-58.03"/>
</g>
<!-- Node5 -->
<g id="node5" class="node">
<title>Node5</title>
<g id="a_node5"><a xlink:href="classmlir_1_1OpTrait_1_1TraitBase.html" target="_top" xlink:title="Helper class for implementing traits.">
<polygon fill="none" stroke="black" points="0,-22.5 0,-52.5 155,-52.5 155,-22.5 0,-22.5"/>
<text text-anchor="start" x="8" y="-40.5" font-family="Helvetica,sans-Serif" font-size="10.00">mlir::OpTrait::TraitBase</text>
<text text-anchor="middle" x="77.5" y="-29.5" font-family="Helvetica,sans-Serif" font-size="10.00">&lt; ConcreteType, TraitType &gt;</text>
</a>
</g>
</g>
<!-- Node5&#45;&gt;Node4 -->
<g id="edge4" class="edge">
<title>Node5&#45;&gt;Node4</title>
<path fill="none" stroke="midnightblue" d="M165.24,-45.1C167.85,-45.24 170.45,-45.38 173,-45.5 476.05,-59.78 835.41,-57.91 1003.85,-55.93"/>
<polygon fill="midnightblue" stroke="midnightblue" points="165.25,-41.59 155.06,-44.47 164.82,-48.58 165.25,-41.59"/>
</g>
<!-- Node7 -->
<g id="node7" class="node">
<title>Node7</title>
<g id="a_node7"><a xlink:href="classmlir_1_1OpTrait_1_1TraitBase.html" target="_top" xlink:title=" ">
<polygon fill="none" stroke="black" points="401,-0.5 401,-30.5 624,-30.5 624,-0.5 401,-0.5"/>
<text text-anchor="start" x="409" y="-18.5" font-family="Helvetica,sans-Serif" font-size="10.00">mlir::OpTrait::TraitBase</text>
<text text-anchor="middle" x="512.5" y="-7.5" font-family="Helvetica,sans-Serif" font-size="10.00">&lt; ConcrentType, MemRefsNormalizable &gt;</text>
</a>
</g>
</g>
<!-- Node5&#45;&gt;Node7 -->
<g id="edge7" class="edge">
<title>Node5&#45;&gt;Node7</title>
<path fill="none" stroke="orange" stroke-dasharray="5,2" d="M165.62,-33.07C233.32,-29.63 327.68,-24.84 400.75,-21.13"/>
<polygon fill="orange" stroke="orange" points="165.22,-29.59 155.41,-33.59 165.58,-36.58 165.22,-29.59"/>
<text text-anchor="middle" x="278" y="-35.5" font-family="Helvetica,sans-Serif" font-size="10.00"> &lt; ConcrentType, MemRefsNormalizable &gt;</text>
</g>
<!-- Node6 -->
<g id="node6" class="node">
<title>Node6</title>
<g id="a_node6"><a xlink:href="structmlir_1_1OpTrait_1_1MemRefsNormalizable.html" target="_top" xlink:title=" ">
<polygon fill="none" stroke="black" points="661,-0.5 661,-30.5 855,-30.5 855,-0.5 661,-0.5"/>
<text text-anchor="start" x="669" y="-18.5" font-family="Helvetica,sans-Serif" font-size="10.00">mlir::OpTrait::MemRefsNormalizable</text>
<text text-anchor="middle" x="758" y="-7.5" font-family="Helvetica,sans-Serif" font-size="10.00">&lt; ConcrentType &gt;</text>
</a>
</g>
</g>
<!-- Node6&#45;&gt;Node4 -->
<g id="edge5" class="edge">
<title>Node6&#45;&gt;Node4</title>
<path fill="none" stroke="orange" stroke-dasharray="5,2" d="M865.13,-22.39C903.31,-25.4 946.67,-29.41 986,-34.5 996.96,-35.92 1008.47,-37.65 1019.8,-39.49"/>
<polygon fill="orange" stroke="orange" points="865.26,-18.89 855.02,-21.61 864.72,-25.87 865.26,-18.89"/>
<text text-anchor="middle" x="929.5" y="-37.5" font-family="Helvetica,sans-Serif" font-size="10.00"> &lt; AffineDmaWaitOp &gt;</text>
</g>
<!-- Node7&#45;&gt;Node6 -->
<g id="edge6" class="edge">
<title>Node7&#45;&gt;Node6</title>
<path fill="none" stroke="midnightblue" d="M634.23,-15.5C643.11,-15.5 652.01,-15.5 660.72,-15.5"/>
<polygon fill="midnightblue" stroke="midnightblue" points="634.21,-12 624.21,-15.5 634.21,-19 634.21,-12"/>
</g>
<!-- Node8&#45;&gt;Node2 -->
<g id="edge8" class="edge">
<title>Node8&#45;&gt;Node2</title>
<path fill="none" stroke="orange" stroke-dasharray="5,2" d="M1179.26,-92.2C1191.52,-90.67 1204.09,-89.35 1216,-88.5 1301.84,-82.39 1398.72,-82.18 1473.82,-83.47"/>
<polygon fill="orange" stroke="orange" points="1178.52,-88.77 1169.05,-93.53 1179.42,-95.71 1178.52,-88.77"/>
<text text-anchor="start" x="1216" y="-135.5" font-family="Helvetica,sans-Serif" font-size="10.00"> &lt; AffineDmaWaitOp,</text>
<text text-anchor="start" x="1216" y="-124.5" font-family="Helvetica,sans-Serif" font-size="10.00"> OpTrait::MemRefsNormalizable,</text>
<text text-anchor="start" x="1216" y="-113.5" font-family="Helvetica,sans-Serif" font-size="10.00"> OpTrait::VariadicOperands,</text>
<text text-anchor="start" x="1216" y="-102.5" font-family="Helvetica,sans-Serif" font-size="10.00"> OpTrait::ZeroResults, OpTrait</text>
<text text-anchor="middle" x="1336" y="-91.5" font-family="Helvetica,sans-Serif" font-size="10.00">::OpInvariants, AffineMapAccessInterface::Trait &gt;</text>
</g>
<!-- Node9 -->
<g id="node9" class="node">
<title>Node9</title>
<g id="a_node9"><a xlink:title=" ">
<polygon fill="none" stroke="#bfbfbf" points="692.5,-95 692.5,-114 823.5,-114 823.5,-95 692.5,-95"/>
<text text-anchor="middle" x="758" y="-102" font-family="Helvetica,sans-Serif" font-size="10.00">Traits&lt; ConcreteType &gt;</text>
</a>
</g>
</g>
<!-- Node9&#45;&gt;Node8 -->
<g id="edge10" class="edge">
<title>Node9&#45;&gt;Node8</title>
<path fill="none" stroke="midnightblue" d="M833.61,-104.5C893.02,-104.5 975.44,-104.5 1032.81,-104.5"/>
<polygon fill="midnightblue" stroke="midnightblue" points="833.54,-101 823.54,-104.5 833.54,-108 833.54,-101"/>
</g>
</g>
</svg>
