<?xml version="1.0" encoding="UTF-8" standalone="no"?>
<!DOCTYPE svg PUBLIC "-//W3C//DTD SVG 1.1//EN"
 "http://www.w3.org/Graphics/SVG/1.1/DTD/svg11.dtd">
<!-- Generated by graphviz version 2.43.0 (0)
 -->
<!-- Title: mlir::AffineExprVisitor&lt; SubClass, RetTy &gt; Pages: 1 -->
<svg width="1146pt" height="110pt"
 viewBox="0.00 0.00 1146.00 110.00" xmlns="http://www.w3.org/2000/svg" xmlns:xlink="http://www.w3.org/1999/xlink">
<g id="graph0" class="graph" transform="scale(1 1) rotate(0) translate(4 106)">
<title>mlir::AffineExprVisitor&lt; SubClass, RetTy &gt;</title>
<!-- Node1 -->
<g id="node1" class="node">
<title>Node1</title>
<g id="a_node1"><a xlink:title="See documentation for AffineExprVisitorBase.">
<polygon fill="#bfbfbf" stroke="black" points="466,-35 466,-65 590,-65 590,-35 466,-35"/>
<text text-anchor="start" x="474" y="-53" font-family="Helvetica,sans-Serif" font-size="10.00">mlir::AffineExprVisitor</text>
<text text-anchor="middle" x="528" y="-42" font-family="Helvetica,sans-Serif" font-size="10.00">&lt; SubClass, RetTy &gt;</text>
</a>
</g>
</g>
<!-- Node4 -->
<g id="node4" class="node">
<title>Node4</title>
<g id="a_node4"><a xlink:href="classmlir_1_1AffineExprVisitor.html" target="_top" xlink:title=" ">
<polygon fill="none" stroke="black" points="772,-60.5 772,-101.5 931,-101.5 931,-60.5 772,-60.5"/>
<text text-anchor="start" x="780" y="-89.5" font-family="Helvetica,sans-Serif" font-size="10.00">mlir::AffineExprVisitor</text>
<text text-anchor="start" x="780" y="-78.5" font-family="Helvetica,sans-Serif" font-size="10.00">&lt; SimpleAffineExprFlattener,</text>
<text text-anchor="middle" x="851.5" y="-67.5" font-family="Helvetica,sans-Serif" font-size="10.00"> LogicalResult &gt;</text>
</a>
</g>
</g>
<!-- Node1&#45;&gt;Node4 -->
<g id="edge3" class="edge">
<title>Node1&#45;&gt;Node4</title>
<path fill="none" stroke="orange" stroke-dasharray="5,2" d="M600.47,-56.89C651.26,-61.79 719.47,-68.37 771.82,-73.41"/>
<polygon fill="orange" stroke="orange" points="600.52,-53.38 590.23,-55.9 599.85,-60.35 600.52,-53.38"/>
<text text-anchor="start" x="608" y="-84" font-family="Helvetica,sans-Serif" font-size="10.00"> &lt; SimpleAffineExprFlattener,</text>
<text text-anchor="middle" x="681" y="-73" font-family="Helvetica,sans-Serif" font-size="10.00"> LogicalResult &gt;</text>
</g>
<!-- Node6 -->
<g id="node6" class="node">
<title>Node6</title>
<g id="a_node6"><a xlink:href="classmlir_1_1AffineExprVisitor.html" target="_top" xlink:title=" ">
<polygon fill="none" stroke="black" points="775.5,-0.5 775.5,-41.5 927.5,-41.5 927.5,-0.5 775.5,-0.5"/>
<text text-anchor="start" x="783.5" y="-29.5" font-family="Helvetica,sans-Serif" font-size="10.00">mlir::AffineExprVisitor</text>
<text text-anchor="start" x="783.5" y="-18.5" font-family="Helvetica,sans-Serif" font-size="10.00">&lt; HasAffineDimExprVisitor,</text>
<text text-anchor="middle" x="851.5" y="-7.5" font-family="Helvetica,sans-Serif" font-size="10.00"> bool &gt;</text>
</a>
</g>
</g>
<!-- Node1&#45;&gt;Node6 -->
<g id="edge5" class="edge">
<title>Node1&#45;&gt;Node6</title>
<path fill="none" stroke="orange" stroke-dasharray="5,2" d="M599.95,-34.16C602.66,-33.74 605.35,-33.35 608,-33 663.79,-25.67 727.34,-22.72 775.39,-21.58"/>
<polygon fill="orange" stroke="orange" points="599.35,-30.71 590.07,-35.83 600.51,-37.62 599.35,-30.71"/>
<text text-anchor="start" x="611.5" y="-47" font-family="Helvetica,sans-Serif" font-size="10.00"> &lt; HasAffineDimExprVisitor,</text>
<text text-anchor="middle" x="681" y="-36" font-family="Helvetica,sans-Serif" font-size="10.00"> bool &gt;</text>
</g>
<!-- Node2 -->
<g id="node2" class="node">
<title>Node2</title>
<g id="a_node2"><a xlink:href="classmlir_1_1AffineExprVisitorBase.html" target="_top" xlink:title=" ">
<polygon fill="none" stroke="black" points="281,-35 281,-65 429,-65 429,-35 281,-35"/>
<text text-anchor="start" x="289" y="-53" font-family="Helvetica,sans-Serif" font-size="10.00">mlir::AffineExprVisitorBase</text>
<text text-anchor="middle" x="355" y="-42" font-family="Helvetica,sans-Serif" font-size="10.00">&lt; SubClass, void &gt;</text>
</a>
</g>
</g>
<!-- Node2&#45;&gt;Node1 -->
<g id="edge1" class="edge">
<title>Node2&#45;&gt;Node1</title>
<path fill="none" stroke="midnightblue" d="M439.13,-50C448.11,-50 457.13,-50 465.79,-50"/>
<polygon fill="midnightblue" stroke="midnightblue" points="439.02,-46.5 429.02,-50 439.02,-53.5 439.02,-46.5"/>
</g>
<!-- Node3 -->
<g id="node3" class="node">
<title>Node3</title>
<g id="a_node3"><a xlink:href="classmlir_1_1AffineExprVisitorBase.html" target="_top" xlink:title="Base class for AffineExpr visitors/walkers.">
<polygon fill="none" stroke="black" points="0,-35 0,-65 148,-65 148,-35 0,-35"/>
<text text-anchor="start" x="8" y="-53" font-family="Helvetica,sans-Serif" font-size="10.00">mlir::AffineExprVisitorBase</text>
<text text-anchor="middle" x="74" y="-42" font-family="Helvetica,sans-Serif" font-size="10.00">&lt; SubClass, RetTy &gt;</text>
</a>
</g>
</g>
<!-- Node3&#45;&gt;Node2 -->
<g id="edge2" class="edge">
<title>Node3&#45;&gt;Node2</title>
<path fill="none" stroke="orange" stroke-dasharray="5,2" d="M158.54,-50C197.4,-50 243.21,-50 280.7,-50"/>
<polygon fill="orange" stroke="orange" points="158.3,-46.5 148.3,-50 158.3,-53.5 158.3,-46.5"/>
<text text-anchor="middle" x="214.5" y="-53" font-family="Helvetica,sans-Serif" font-size="10.00"> &lt; SubClass, void &gt;</text>
</g>
<!-- Node5 -->
<g id="node5" class="node">
<title>Node5</title>
<g id="a_node5"><a xlink:href="classmlir_1_1SimpleAffineExprFlattener.html" target="_top" xlink:title=" ">
<polygon fill="none" stroke="black" points="968,-71.5 968,-90.5 1138,-90.5 1138,-71.5 968,-71.5"/>
<text text-anchor="middle" x="1053" y="-78.5" font-family="Helvetica,sans-Serif" font-size="10.00">mlir::SimpleAffineExprFlattener</text>
</a>
</g>
</g>
<!-- Node4&#45;&gt;Node5 -->
<g id="edge4" class="edge">
<title>Node4&#45;&gt;Node5</title>
<path fill="none" stroke="midnightblue" d="M941.07,-81C950,-81 959.04,-81 967.92,-81"/>
<polygon fill="midnightblue" stroke="midnightblue" points="941.06,-77.5 931.06,-81 941.06,-84.5 941.06,-77.5"/>
</g>
<!-- Node7 -->
<g id="node7" class="node">
<title>Node7</title>
<g id="a_node7"><a xlink:href="structHasAffineDimExprVisitor.html" target="_top" xlink:title="Visitor to check if any of the given set of positions from AffineDimExprs are used within an AffineEx...">
<polygon fill="none" stroke="black" points="984.5,-11.5 984.5,-30.5 1121.5,-30.5 1121.5,-11.5 984.5,-11.5"/>
<text text-anchor="middle" x="1053" y="-18.5" font-family="Helvetica,sans-Serif" font-size="10.00">HasAffineDimExprVisitor</text>
</a>
</g>
</g>
<!-- Node6&#45;&gt;Node7 -->
<g id="edge6" class="edge">
<title>Node6&#45;&gt;Node7</title>
<path fill="none" stroke="midnightblue" d="M937.8,-21C953.4,-21 969.48,-21 984.47,-21"/>
<polygon fill="midnightblue" stroke="midnightblue" points="937.64,-17.5 927.64,-21 937.64,-24.5 937.64,-17.5"/>
</g>
</g>
</svg>
