<?xml version="1.0" encoding="UTF-8" standalone="no"?>
<!DOCTYPE svg PUBLIC "-//W3C//DTD SVG 1.1//EN"
 "http://www.w3.org/Graphics/SVG/1.1/DTD/svg11.dtd">
<!-- Generated by graphviz version 2.43.0 (0)
 -->
<!-- Title: mlir::impl::SetLLVMModuleDataLayoutPassBase&lt; DerivedT &gt; Pages: 1 -->
<svg width="225pt" height="244pt"
 viewBox="0.00 0.00 224.50 244.00" xmlns="http://www.w3.org/2000/svg" xmlns:xlink="http://www.w3.org/1999/xlink">
<g id="graph0" class="graph" transform="scale(1 1) rotate(0) translate(4 240)">
<title>mlir::impl::SetLLVMModuleDataLayoutPassBase&lt; DerivedT &gt;</title>
<!-- Node1 -->
<g id="Node000001" class="node">
<title>Node1</title>
<g id="a_Node000001"><a xlink:title=" ">
<polygon fill="#999999" stroke="#666666" points="185,-30 0,-30 0,0 185,0 185,-30"/>
<text text-anchor="start" x="8" y="-18" font-family="Helvetica,sans-Serif" font-size="10.00">mlir::impl::SetLLVMModule</text>
<text text-anchor="middle" x="92.5" y="-7" font-family="Helvetica,sans-Serif" font-size="10.00">DataLayoutPassBase&lt; DerivedT &gt;</text>
</a>
</g>
</g>
<!-- Node2 -->
<g id="Node000002" class="node">
<title>Node2</title>
<g id="a_Node000002"><a xlink:href="classmlir_1_1OperationPass.html" target="_top" xlink:title=" ">
<polygon fill="white" stroke="#666666" points="148.5,-97 36.5,-97 36.5,-67 148.5,-67 148.5,-97"/>
<text text-anchor="start" x="44.5" y="-85" font-family="Helvetica,sans-Serif" font-size="10.00">mlir::OperationPass</text>
<text text-anchor="middle" x="92.5" y="-74" font-family="Helvetica,sans-Serif" font-size="10.00">&lt; ModuleOp &gt;</text>
</a>
</g>
</g>
<!-- Node2&#45;&gt;Node1 -->
<g id="edge1_Node000001_Node000002" class="edge">
<title>Node2&#45;&gt;Node1</title>
<g id="a_edge1_Node000001_Node000002"><a xlink:title=" ">
<path fill="none" stroke="#63b8ff" d="M92.5,-56.61C92.5,-47.65 92.5,-37.82 92.5,-30.08"/>
<polygon fill="#63b8ff" stroke="#63b8ff" points="89,-56.9 92.5,-66.9 96,-56.9 89,-56.9"/>
</a>
</g>
</g>
<!-- Node3 -->
<g id="Node000003" class="node">
<title>Node3</title>
<g id="a_Node000003"><a xlink:href="classmlir_1_1Pass.html" target="_top" xlink:title="The abstract base pass class.">
<polygon fill="white" stroke="#666666" points="120.5,-236 56.5,-236 56.5,-217 120.5,-217 120.5,-236"/>
<text text-anchor="middle" x="88.5" y="-224" font-family="Helvetica,sans-Serif" font-size="10.00">mlir::Pass</text>
</a>
</g>
</g>
<!-- Node3&#45;&gt;Node2 -->
<g id="edge2_Node000002_Node000003" class="edge">
<title>Node3&#45;&gt;Node2</title>
<g id="a_edge2_Node000002_Node000003"><a xlink:title=" ">
<path fill="none" stroke="#63b8ff" d="M89.03,-206.54C89.85,-177.58 91.38,-122.99 92.1,-97.19"/>
<polygon fill="#63b8ff" stroke="#63b8ff" points="85.53,-206.49 88.75,-216.59 92.53,-206.69 85.53,-206.49"/>
</a>
</g>
</g>
<!-- Node4 -->
<g id="Node000004" class="node">
<title>Node4</title>
<g id="a_Node000004"><a xlink:href="classmlir_1_1OperationPass.html" target="_top" xlink:title="Pass to transform an operation of a specific type.">
<polygon fill="white" stroke="#666666" points="216.5,-180 104.5,-180 104.5,-150 216.5,-150 216.5,-180"/>
<text text-anchor="start" x="112.5" y="-168" font-family="Helvetica,sans-Serif" font-size="10.00">mlir::OperationPass</text>
<text text-anchor="middle" x="160.5" y="-157" font-family="Helvetica,sans-Serif" font-size="10.00">&lt; OpT &gt;</text>
</a>
</g>
</g>
<!-- Node3&#45;&gt;Node4 -->
<g id="edge4_Node000004_Node000003" class="edge">
<title>Node3&#45;&gt;Node4</title>
<g id="a_edge4_Node000004_Node000003"><a xlink:title=" ">
<path fill="none" stroke="#63b8ff" d="M106.75,-210.42C118.05,-201.08 132.47,-189.16 143.53,-180.02"/>
<polygon fill="#63b8ff" stroke="#63b8ff" points="104.29,-207.91 98.82,-216.98 108.75,-213.3 104.29,-207.91"/>
</a>
</g>
</g>
<!-- Node4&#45;&gt;Node2 -->
<g id="edge3_Node000002_Node000004" class="edge">
<title>Node4&#45;&gt;Node2</title>
<g id="a_edge3_Node000002_Node000004"><a xlink:title=" ">
<path fill="none" stroke="orange" stroke-dasharray="5,2" d="M142.05,-142.02C130.08,-127.76 114.84,-109.61 104.44,-97.22"/>
<polygon fill="orange" stroke="orange" points="139.54,-144.48 148.66,-149.89 144.91,-139.98 139.54,-144.48"/>
</a>
</g>
<text text-anchor="start" x="136" y="-120.5" font-family="Helvetica,sans-Serif" font-size="10.00" fill="grey">&lt; ModuleOp &gt;</text>
</g>
</g>
</svg>
