<?xml version="1.0" encoding="UTF-8" standalone="no"?>
<!DOCTYPE svg PUBLIC "-//W3C//DTD SVG 1.1//EN"
 "http://www.w3.org/Graphics/SVG/1.1/DTD/svg11.dtd">
<!-- Generated by graphviz version 2.43.0 (0)
 -->
<!-- Title: mlir::OpState Pages: 1 -->
<svg width="1161pt" height="295pt"
 viewBox="0.00 0.00 1161.00 294.91" xmlns="http://www.w3.org/2000/svg" xmlns:xlink="http://www.w3.org/1999/xlink">
<g id="graph0" class="graph" transform="scale(1 1) rotate(0) translate(4 290.91)">
<title>mlir::OpState</title>
<!-- Node1 -->
<g id="node1" class="node">
<title>Node1</title>
<g id="a_node1"><a xlink:title="This is the concrete base class that holds the operation pointer and has non&#45;generic methods that onl...">
<polygon fill="#bfbfbf" stroke="black" points="0,-78 0,-97 81,-97 81,-78 0,-78"/>
<text text-anchor="middle" x="40.5" y="-85" font-family="Helvetica,sans-Serif" font-size="10.00">mlir::OpState</text>
</a>
</g>
</g>
<!-- Node2 -->
<g id="node2" class="node">
<title>Node2</title>
<g id="a_node2"><a xlink:href="classmlir_1_1Op.html" target="_top" xlink:title=" ">
<polygon fill="none" stroke="black" points="530,-214 530,-277 786,-277 786,-214 530,-214"/>
<text text-anchor="start" x="538" y="-265" font-family="Helvetica,sans-Serif" font-size="10.00">mlir::Op&lt; AffineDmaWaitOp,</text>
<text text-anchor="start" x="538" y="-254" font-family="Helvetica,sans-Serif" font-size="10.00"> OpTrait::MemRefsNormalizable,</text>
<text text-anchor="start" x="538" y="-243" font-family="Helvetica,sans-Serif" font-size="10.00"> OpTrait::VariadicOperands,</text>
<text text-anchor="start" x="538" y="-232" font-family="Helvetica,sans-Serif" font-size="10.00"> OpTrait::ZeroResults, OpTrait</text>
<text text-anchor="middle" x="658" y="-221" font-family="Helvetica,sans-Serif" font-size="10.00">::OpInvariants, AffineMapAccessInterface::Trait &gt;</text>
</a>
</g>
</g>
<!-- Node1&#45;&gt;Node2 -->
<g id="edge1" class="edge">
<title>Node1&#45;&gt;Node2</title>
<path fill="none" stroke="midnightblue" d="M56.06,-104.8C89.48,-142.98 176.19,-233.67 272,-266.5 354.64,-294.82 453.07,-288.81 529.72,-276.11"/>
<polygon fill="midnightblue" stroke="midnightblue" points="58.59,-102.38 49.41,-97.09 53.29,-106.95 58.59,-102.38"/>
</g>
<!-- Node4 -->
<g id="node4" class="node">
<title>Node4</title>
<g id="a_node4"><a xlink:href="classmlir_1_1Op.html" target="_top" xlink:title=" ">
<polygon fill="none" stroke="black" points="549,-65.5 549,-139.5 767,-139.5 767,-65.5 549,-65.5"/>
<text text-anchor="start" x="557" y="-127.5" font-family="Helvetica,sans-Serif" font-size="10.00">mlir::Op&lt; AffineDmaStart</text>
<text text-anchor="start" x="557" y="-116.5" font-family="Helvetica,sans-Serif" font-size="10.00">Op, OpTrait::MemRefsNormalizable,</text>
<text text-anchor="start" x="557" y="-105.5" font-family="Helvetica,sans-Serif" font-size="10.00"> OpTrait::VariadicOperands,</text>
<text text-anchor="start" x="557" y="-94.5" font-family="Helvetica,sans-Serif" font-size="10.00"> OpTrait::ZeroResults, OpTrait</text>
<text text-anchor="start" x="557" y="-83.5" font-family="Helvetica,sans-Serif" font-size="10.00">::OpInvariants, AffineMapAccessInterface</text>
<text text-anchor="middle" x="658" y="-72.5" font-family="Helvetica,sans-Serif" font-size="10.00">::Trait, MemoryEffectOpInterface::Trait &gt;</text>
</a>
</g>
</g>
<!-- Node1&#45;&gt;Node4 -->
<g id="edge3" class="edge">
<title>Node1&#45;&gt;Node4</title>
<path fill="none" stroke="midnightblue" d="M91,-80.47C176.95,-69.39 359.24,-50.83 512,-68.5 523.94,-69.88 536.33,-71.88 548.61,-74.23"/>
<polygon fill="midnightblue" stroke="midnightblue" points="90.46,-77.01 81,-81.78 91.37,-83.95 90.46,-77.01"/>
</g>
<!-- Node6 -->
<g id="node6" class="node">
<title>Node6</title>
<g id="a_node6"><a xlink:href="classmlir_1_1Op.html" target="_top" xlink:title=" ">
<polygon fill="none" stroke="black" points="586,-17 586,-36 730,-36 730,-17 586,-17"/>
<text text-anchor="middle" x="658" y="-24" font-family="Helvetica,sans-Serif" font-size="10.00">mlir::Op&lt; ConcreteType &gt;</text>
</a>
</g>
</g>
<!-- Node1&#45;&gt;Node6 -->
<g id="edge5" class="edge">
<title>Node1&#45;&gt;Node6</title>
<path fill="none" stroke="midnightblue" d="M72.86,-74.23C86.49,-69.04 102.79,-63.6 118,-60.5 283.14,-26.83 482.11,-23.68 585.98,-24.79"/>
<polygon fill="midnightblue" stroke="midnightblue" points="71.49,-71 63.47,-77.92 74.05,-77.52 71.49,-71"/>
</g>
<!-- Node9 -->
<g id="node9" class="node">
<title>Node9</title>
<g id="a_node9"><a xlink:href="classmlir_1_1Op.html" target="_top" xlink:title="This provides public APIs that all operations should have.">
<polygon fill="none" stroke="black" points="118,-98.5 118,-128.5 254,-128.5 254,-98.5 118,-98.5"/>
<text text-anchor="start" x="126" y="-116.5" font-family="Helvetica,sans-Serif" font-size="10.00">mlir::Op&lt; ConcreteType,</text>
<text text-anchor="middle" x="186" y="-105.5" font-family="Helvetica,sans-Serif" font-size="10.00"> Traits &gt;</text>
</a>
</g>
</g>
<!-- Node1&#45;&gt;Node9 -->
<g id="edge8" class="edge">
<title>Node1&#45;&gt;Node9</title>
<path fill="none" stroke="midnightblue" d="M91.04,-96.48C99.74,-98.05 108.92,-99.72 117.99,-101.36"/>
<polygon fill="midnightblue" stroke="midnightblue" points="91.56,-93.01 81.09,-94.67 90.31,-99.9 91.56,-93.01"/>
</g>
<!-- Node3 -->
<g id="node3" class="node">
<title>Node3</title>
<g id="a_node3"><a xlink:href="classmlir_1_1affine_1_1AffineDmaWaitOp.html" target="_top" xlink:title="AffineDmaWaitOp blocks until the completion of a DMA operation associated with the tag element &#39;tag[i...">
<polygon fill="none" stroke="black" points="823.5,-236 823.5,-255 986.5,-255 986.5,-236 823.5,-236"/>
<text text-anchor="middle" x="905" y="-243" font-family="Helvetica,sans-Serif" font-size="10.00">mlir::affine::AffineDmaWaitOp</text>
</a>
</g>
</g>
<!-- Node2&#45;&gt;Node3 -->
<g id="edge2" class="edge">
<title>Node2&#45;&gt;Node3</title>
<path fill="none" stroke="midnightblue" d="M796.17,-245.5C805.36,-245.5 814.43,-245.5 823.19,-245.5"/>
<polygon fill="midnightblue" stroke="midnightblue" points="796.16,-242 786.16,-245.5 796.16,-249 796.16,-242"/>
</g>
<!-- Node5 -->
<g id="node5" class="node">
<title>Node5</title>
<g id="a_node5"><a xlink:href="classmlir_1_1affine_1_1AffineDmaStartOp.html" target="_top" xlink:title="AffineDmaStartOp starts a non&#45;blocking DMA operation that transfers data from a source memref to a de...">
<polygon fill="none" stroke="black" points="823,-93 823,-112 987,-112 987,-93 823,-93"/>
<text text-anchor="middle" x="905" y="-100" font-family="Helvetica,sans-Serif" font-size="10.00">mlir::affine::AffineDmaStartOp</text>
</a>
</g>
</g>
<!-- Node4&#45;&gt;Node5 -->
<g id="edge4" class="edge">
<title>Node4&#45;&gt;Node5</title>
<path fill="none" stroke="midnightblue" d="M777.3,-102.5C792.73,-102.5 808.26,-102.5 822.9,-102.5"/>
<polygon fill="midnightblue" stroke="midnightblue" points="777.17,-99 767.17,-102.5 777.17,-106 777.17,-99"/>
</g>
<!-- Node7 -->
<g id="node7" class="node">
<title>Node7</title>
<g id="a_node7"><a xlink:href="classmlir_1_1detail_1_1Interface.html" target="_top" xlink:title=" ">
<polygon fill="none" stroke="black" points="828,-0.5 828,-52.5 982,-52.5 982,-0.5 828,-0.5"/>
<text text-anchor="start" x="836" y="-40.5" font-family="Helvetica,sans-Serif" font-size="10.00">mlir::detail::Interface</text>
<text text-anchor="start" x="836" y="-29.5" font-family="Helvetica,sans-Serif" font-size="10.00">&lt; ConcreteType, Operation</text>
<text text-anchor="start" x="836" y="-18.5" font-family="Helvetica,sans-Serif" font-size="10.00"> *, Traits, Op&lt; ConcreteType</text>
<text text-anchor="middle" x="905" y="-7.5" font-family="Helvetica,sans-Serif" font-size="10.00"> &gt;, OpTrait::TraitBase &gt;</text>
</a>
</g>
</g>
<!-- Node6&#45;&gt;Node7 -->
<g id="edge6" class="edge">
<title>Node6&#45;&gt;Node7</title>
<path fill="none" stroke="midnightblue" d="M740.43,-26.5C768.65,-26.5 800.15,-26.5 827.92,-26.5"/>
<polygon fill="midnightblue" stroke="midnightblue" points="740.19,-23 730.19,-26.5 740.19,-30 740.19,-23"/>
</g>
<!-- Node8 -->
<g id="node8" class="node">
<title>Node8</title>
<g id="a_node8"><a xlink:href="classmlir_1_1OpInterface.html" target="_top" xlink:title="This class represents the base of an operation interface.">
<polygon fill="none" stroke="black" points="1024,-11.5 1024,-41.5 1153,-41.5 1153,-11.5 1024,-11.5"/>
<text text-anchor="start" x="1032" y="-29.5" font-family="Helvetica,sans-Serif" font-size="10.00">mlir::OpInterface&lt;</text>
<text text-anchor="middle" x="1088.5" y="-18.5" font-family="Helvetica,sans-Serif" font-size="10.00"> ConcreteType, Traits &gt;</text>
</a>
</g>
</g>
<!-- Node7&#45;&gt;Node8 -->
<g id="edge7" class="edge">
<title>Node7&#45;&gt;Node8</title>
<path fill="none" stroke="midnightblue" d="M992.33,-26.5C1002.95,-26.5 1013.66,-26.5 1023.86,-26.5"/>
<polygon fill="midnightblue" stroke="midnightblue" points="992.18,-23 982.18,-26.5 992.18,-30 992.18,-23"/>
</g>
<!-- Node9&#45;&gt;Node2 -->
<g id="edge9" class="edge">
<title>Node9&#45;&gt;Node2</title>
<path fill="none" stroke="orange" stroke-dasharray="5,2" d="M208.28,-135.72C224.29,-150.97 247.59,-170.24 272,-180.5 371.15,-222.18 406.17,-192.31 512,-211.5 517.85,-212.56 523.82,-213.71 529.84,-214.91"/>
<polygon fill="orange" stroke="orange" points="210.63,-133.11 201.04,-128.61 205.73,-138.11 210.63,-133.11"/>
<text text-anchor="start" x="272" y="-258.5" font-family="Helvetica,sans-Serif" font-size="10.00"> &lt; AffineDmaWaitOp,</text>
<text text-anchor="start" x="272" y="-247.5" font-family="Helvetica,sans-Serif" font-size="10.00"> OpTrait::MemRefsNormalizable,</text>
<text text-anchor="start" x="272" y="-236.5" font-family="Helvetica,sans-Serif" font-size="10.00"> OpTrait::VariadicOperands,</text>
<text text-anchor="start" x="272" y="-225.5" font-family="Helvetica,sans-Serif" font-size="10.00"> OpTrait::ZeroResults, OpTrait</text>
<text text-anchor="middle" x="392" y="-214.5" font-family="Helvetica,sans-Serif" font-size="10.00">::OpInvariants, AffineMapAccessInterface::Trait &gt;</text>
</g>
<!-- Node9&#45;&gt;Node4 -->
<g id="edge10" class="edge">
<title>Node9&#45;&gt;Node4</title>
<path fill="none" stroke="orange" stroke-dasharray="5,2" d="M264.52,-111.69C342.09,-109.87 462.05,-107.06 548.94,-105.03"/>
<polygon fill="orange" stroke="orange" points="264.25,-108.19 254.34,-111.92 264.42,-115.19 264.25,-108.19"/>
<text text-anchor="start" x="291" y="-168.5" font-family="Helvetica,sans-Serif" font-size="10.00"> &lt; AffineDmaStartOp,</text>
<text text-anchor="start" x="291" y="-157.5" font-family="Helvetica,sans-Serif" font-size="10.00"> OpTrait::MemRefsNormalizable,</text>
<text text-anchor="start" x="291" y="-146.5" font-family="Helvetica,sans-Serif" font-size="10.00"> OpTrait::VariadicOperands,</text>
<text text-anchor="start" x="291" y="-135.5" font-family="Helvetica,sans-Serif" font-size="10.00"> OpTrait::ZeroResults, OpTrait</text>
<text text-anchor="start" x="291" y="-124.5" font-family="Helvetica,sans-Serif" font-size="10.00">::OpInvariants, AffineMapAccessInterface</text>
<text text-anchor="middle" x="392" y="-113.5" font-family="Helvetica,sans-Serif" font-size="10.00">::Trait, MemoryEffectOpInterface::Trait &gt;</text>
</g>
<!-- Node9&#45;&gt;Node6 -->
<g id="edge11" class="edge">
<title>Node9&#45;&gt;Node6</title>
<path fill="none" stroke="orange" stroke-dasharray="5,2" d="M249.32,-95.88C256.93,-93.95 264.63,-92.11 272,-90.5 381.07,-66.74 509.21,-47.05 586.7,-36.04"/>
<polygon fill="orange" stroke="orange" points="248.2,-92.55 239.4,-98.45 249.95,-99.33 248.2,-92.55"/>
<text text-anchor="middle" x="392" y="-93.5" font-family="Helvetica,sans-Serif" font-size="10.00"> &lt; ConcreteType &gt;</text>
</g>
</g>
</svg>
