<?xml version="1.0" encoding="UTF-8" standalone="no"?>
<!DOCTYPE svg PUBLIC "-//W3C//DTD SVG 1.1//EN"
 "http://www.w3.org/Graphics/SVG/1.1/DTD/svg11.dtd">
<!-- Generated by graphviz version 2.43.0 (0)
 -->
<!-- Title: mlir::dataflow::SparseBackwardDataFlowAnalysis&lt; StateT &gt; Pages: 1 -->
<svg width="193pt" height="311pt"
 viewBox="0.00 0.00 193.00 311.00" xmlns="http://www.w3.org/2000/svg" xmlns:xlink="http://www.w3.org/1999/xlink">
<g id="graph0" class="graph" transform="scale(1 1) rotate(0) translate(4 307)">
<title>mlir::dataflow::SparseBackwardDataFlowAnalysis&lt; StateT &gt;</title>
<!-- Node1 -->
<g id="Node000001" class="node">
<title>Node1</title>
<g id="a_Node000001"><a xlink:title="A sparse (backward) data&#45;flow analysis for propagating SSA value lattices backwards across the IR by ...">
<polygon fill="#999999" stroke="#666666" points="177.5,-180 7.5,-180 7.5,-150 177.5,-150 177.5,-180"/>
<text text-anchor="start" x="15.5" y="-168" font-family="Helvetica,sans-Serif" font-size="10.00">mlir::dataflow::SparseBackward</text>
<text text-anchor="middle" x="92.5" y="-157" font-family="Helvetica,sans-Serif" font-size="10.00">DataFlowAnalysis&lt; StateT &gt;</text>
</a>
</g>
</g>
<!-- Node4 -->
<g id="Node000004" class="node">
<title>Node4</title>
<g id="a_Node000004"><a xlink:href="classmlir_1_1dataflow_1_1SparseBackwardDataFlowAnalysis.html" target="_top" xlink:title=" ">
<polygon fill="white" stroke="#666666" points="177.5,-97 7.5,-97 7.5,-67 177.5,-67 177.5,-97"/>
<text text-anchor="start" x="15.5" y="-85" font-family="Helvetica,sans-Serif" font-size="10.00">mlir::dataflow::SparseBackward</text>
<text text-anchor="middle" x="92.5" y="-74" font-family="Helvetica,sans-Serif" font-size="10.00">DataFlowAnalysis&lt; Liveness &gt;</text>
</a>
</g>
</g>
<!-- Node1&#45;&gt;Node4 -->
<g id="edge3_Node000001_Node000004" class="edge">
<title>Node1&#45;&gt;Node4</title>
<g id="a_edge3_Node000001_Node000004"><a xlink:title=" ">
<path fill="none" stroke="orange" stroke-dasharray="5,2" d="M92.5,-139.59C92.5,-125.75 92.5,-108.91 92.5,-97.22"/>
<polygon fill="orange" stroke="orange" points="89,-139.89 92.5,-149.89 96,-139.89 89,-139.89"/>
</a>
</g>
<text text-anchor="start" x="95.5" y="-120.5" font-family="Helvetica,sans-Serif" font-size="10.00" fill="grey">&lt; Liveness &gt;</text>
</g>
<!-- Node2 -->
<g id="Node000002" class="node">
<title>Node2</title>
<g id="a_Node000002"><a xlink:href="classmlir_1_1dataflow_1_1AbstractSparseBackwardDataFlowAnalysis.html" target="_top" xlink:title="Base class for sparse backward data&#45;flow analyses.">
<polygon fill="white" stroke="#666666" points="185,-247 0,-247 0,-217 185,-217 185,-247"/>
<text text-anchor="start" x="8" y="-235" font-family="Helvetica,sans-Serif" font-size="10.00">mlir::dataflow::Abstract</text>
<text text-anchor="middle" x="92.5" y="-224" font-family="Helvetica,sans-Serif" font-size="10.00">SparseBackwardDataFlowAnalysis</text>
</a>
</g>
</g>
<!-- Node2&#45;&gt;Node1 -->
<g id="edge1_Node000001_Node000002" class="edge">
<title>Node2&#45;&gt;Node1</title>
<g id="a_edge1_Node000001_Node000002"><a xlink:title=" ">
<path fill="none" stroke="#63b8ff" d="M92.5,-206.61C92.5,-197.65 92.5,-187.82 92.5,-180.08"/>
<polygon fill="#63b8ff" stroke="#63b8ff" points="89,-206.9 92.5,-216.9 96,-206.9 89,-206.9"/>
</a>
</g>
</g>
<!-- Node3 -->
<g id="Node000003" class="node">
<title>Node3</title>
<g id="a_Node000003"><a xlink:href="classmlir_1_1DataFlowAnalysis.html" target="_top" xlink:title="Base class for all data&#45;flow analyses.">
<polygon fill="white" stroke="#666666" points="157.5,-303 27.5,-303 27.5,-284 157.5,-284 157.5,-303"/>
<text text-anchor="middle" x="92.5" y="-291" font-family="Helvetica,sans-Serif" font-size="10.00">mlir::DataFlowAnalysis</text>
</a>
</g>
</g>
<!-- Node3&#45;&gt;Node2 -->
<g id="edge2_Node000002_Node000003" class="edge">
<title>Node3&#45;&gt;Node2</title>
<g id="a_edge2_Node000002_Node000003"><a xlink:title=" ">
<path fill="none" stroke="#63b8ff" d="M92.5,-273.73C92.5,-265.09 92.5,-255 92.5,-247.02"/>
<polygon fill="#63b8ff" stroke="#63b8ff" points="89,-273.98 92.5,-283.98 96,-273.98 89,-273.98"/>
</a>
</g>
</g>
<!-- Node5 -->
<g id="Node000005" class="node">
<title>Node5</title>
<g id="a_Node000005"><a xlink:href="classmlir_1_1dataflow_1_1LivenessAnalysis.html" target="_top" xlink:title="An analysis that, by going backwards along the dataflow graph, annotates each value with a boolean st...">
<polygon fill="white" stroke="#666666" points="158.5,-30 26.5,-30 26.5,0 158.5,0 158.5,-30"/>
<text text-anchor="start" x="34.5" y="-18" font-family="Helvetica,sans-Serif" font-size="10.00">mlir::dataflow::Liveness</text>
<text text-anchor="middle" x="92.5" y="-7" font-family="Helvetica,sans-Serif" font-size="10.00">Analysis</text>
</a>
</g>
</g>
<!-- Node4&#45;&gt;Node5 -->
<g id="edge4_Node000004_Node000005" class="edge">
<title>Node4&#45;&gt;Node5</title>
<g id="a_edge4_Node000004_Node000005"><a xlink:title=" ">
<path fill="none" stroke="#63b8ff" d="M92.5,-56.61C92.5,-47.65 92.5,-37.82 92.5,-30.08"/>
<polygon fill="#63b8ff" stroke="#63b8ff" points="89,-56.9 92.5,-66.9 96,-56.9 89,-56.9"/>
</a>
</g>
</g>
</g>
</svg>
