<?xml version="1.0" encoding="UTF-8" standalone="no"?>
<!DOCTYPE svg PUBLIC "-//W3C//DTD SVG 1.1//EN"
 "http://www.w3.org/Graphics/SVG/1.1/DTD/svg11.dtd">
<!-- Generated by graphviz version 2.43.0 (0)
 -->
<!-- Title: mlir::OpTrait::TokenConsumerTrait&lt; ConcreteType &gt; Pages: 1 -->
<svg width="280pt" height="203pt"
 viewBox="0.00 0.00 279.50 203.00" xmlns="http://www.w3.org/2000/svg" xmlns:xlink="http://www.w3.org/1999/xlink">
<g id="graph0" class="graph" transform="scale(1 1) rotate(0) translate(4 199)">
<title>mlir::OpTrait::TokenConsumerTrait&lt; ConcreteType &gt;</title>
<!-- Node1 -->
<g id="Node000001" class="node">
<title>Node1</title>
<g id="a_Node000001"><a xlink:title="This trait marks operations that are allowed to consume builtin token values.">
<polygon fill="#999999" stroke="#666666" points="184.5,-30 24.5,-30 24.5,0 184.5,0 184.5,-30"/>
<text text-anchor="start" x="32.5" y="-18" font-family="Helvetica,sans-Serif" font-size="10.00">mlir::OpTrait::TokenConsumer</text>
<text text-anchor="middle" x="104.5" y="-7" font-family="Helvetica,sans-Serif" font-size="10.00">Trait&lt; ConcreteType &gt;</text>
</a>
</g>
</g>
<!-- Node2 -->
<g id="Node000002" class="node">
<title>Node2</title>
<g id="a_Node000002"><a xlink:href="classmlir_1_1OpTrait_1_1TraitBase.html" target="_top" xlink:title=" ">
<polygon fill="white" stroke="#666666" points="209,-97 0,-97 0,-67 209,-67 209,-97"/>
<text text-anchor="start" x="8" y="-85" font-family="Helvetica,sans-Serif" font-size="10.00">mlir::OpTrait::TraitBase</text>
<text text-anchor="middle" x="104.5" y="-74" font-family="Helvetica,sans-Serif" font-size="10.00">&lt; ConcreteType, TokenConsumerTrait &gt;</text>
</a>
</g>
</g>
<!-- Node2&#45;&gt;Node1 -->
<g id="edge1_Node000001_Node000002" class="edge">
<title>Node2&#45;&gt;Node1</title>
<g id="a_edge1_Node000001_Node000002"><a xlink:title=" ">
<path fill="none" stroke="#63b8ff" d="M104.5,-56.61C104.5,-47.65 104.5,-37.82 104.5,-30.08"/>
<polygon fill="#63b8ff" stroke="#63b8ff" points="101,-56.9 104.5,-66.9 108,-56.9 101,-56.9"/>
</a>
</g>
</g>
<!-- Node3 -->
<g id="Node000003" class="node">
<title>Node3</title>
<g id="a_Node000003"><a xlink:href="classmlir_1_1OpTrait_1_1TraitBase.html" target="_top" xlink:title="Helper class for implementing traits.">
<polygon fill="white" stroke="#666666" points="182,-195 27,-195 27,-165 182,-165 182,-195"/>
<text text-anchor="start" x="35" y="-183" font-family="Helvetica,sans-Serif" font-size="10.00">mlir::OpTrait::TraitBase</text>
<text text-anchor="middle" x="104.5" y="-172" font-family="Helvetica,sans-Serif" font-size="10.00">&lt; ConcreteType, TraitType &gt;</text>
</a>
</g>
</g>
<!-- Node3&#45;&gt;Node2 -->
<g id="edge2_Node000002_Node000003" class="edge">
<title>Node3&#45;&gt;Node2</title>
<g id="a_edge2_Node000002_Node000003"><a xlink:title=" ">
<path fill="none" stroke="orange" stroke-dasharray="5,2" d="M104.5,-154.7C104.5,-136.55 104.5,-112.35 104.5,-97.22"/>
<polygon fill="orange" stroke="orange" points="101,-154.83 104.5,-164.83 108,-154.83 101,-154.83"/>
</a>
</g>
<text text-anchor="start" x="108" y="-136" font-family="Helvetica,sans-Serif" font-size="10.00" fill="grey">&lt; ConcreteType, TokenConsumer</text>
<text text-anchor="start" x="108" y="-121" font-family="Helvetica,sans-Serif" font-size="10.00" fill="grey">  Trait &gt;</text>
</g>
</g>
</svg>
