<?xml version="1.0" encoding="UTF-8" standalone="no"?>
<!DOCTYPE svg PUBLIC "-//W3C//DTD SVG 1.1//EN"
 "http://www.w3.org/Graphics/SVG/1.1/DTD/svg11.dtd">
<!-- Generated by graphviz version 2.43.0 (0)
 -->
<!-- Title: mlir::OpTraitRewritePattern&lt; TraitType &gt; Pages: 1 -->
<svg width="157pt" height="151pt"
 viewBox="0.00 0.00 157.00 151.00" xmlns="http://www.w3.org/2000/svg" xmlns:xlink="http://www.w3.org/1999/xlink">
<g id="graph0" class="graph" transform="scale(1 1) rotate(0) translate(4 147)">
<title>mlir::OpTraitRewritePattern&lt; TraitType &gt;</title>
<!-- Node1 -->
<g id="node1" class="node">
<title>Node1</title>
<g id="a_node1"><a xlink:title="OpTraitRewritePattern is a wrapper around RewritePattern that allows for matching and rewriting again...">
<polygon fill="#bfbfbf" stroke="black" points="0,-0.5 0,-30.5 149,-30.5 149,-0.5 0,-0.5"/>
<text text-anchor="start" x="8" y="-18.5" font-family="Helvetica,sans-Serif" font-size="10.00">mlir::OpTraitRewritePattern</text>
<text text-anchor="middle" x="74.5" y="-7.5" font-family="Helvetica,sans-Serif" font-size="10.00">&lt; TraitType &gt;</text>
</a>
</g>
</g>
<!-- Node2 -->
<g id="node2" class="node">
<title>Node2</title>
<g id="a_node2"><a xlink:href="classmlir_1_1RewritePattern.html" target="_top" xlink:title="RewritePattern is the common base class for all DAG to DAG replacements.">
<polygon fill="none" stroke="black" points="17.5,-67.5 17.5,-86.5 131.5,-86.5 131.5,-67.5 17.5,-67.5"/>
<text text-anchor="middle" x="74.5" y="-74.5" font-family="Helvetica,sans-Serif" font-size="10.00">mlir::RewritePattern</text>
</a>
</g>
</g>
<!-- Node2&#45;&gt;Node1 -->
<g id="edge1" class="edge">
<title>Node2&#45;&gt;Node1</title>
<path fill="none" stroke="midnightblue" d="M74.5,-57.23C74.5,-48.59 74.5,-38.5 74.5,-30.52"/>
<polygon fill="midnightblue" stroke="midnightblue" points="71,-57.48 74.5,-67.48 78,-57.48 71,-57.48"/>
</g>
<!-- Node3 -->
<g id="node3" class="node">
<title>Node3</title>
<g id="a_node3"><a xlink:href="classmlir_1_1Pattern.html" target="_top" xlink:title="This class contains all of the data related to a pattern, but does not contain any methods or logic f...">
<polygon fill="none" stroke="black" points="36,-123.5 36,-142.5 113,-142.5 113,-123.5 36,-123.5"/>
<text text-anchor="middle" x="74.5" y="-130.5" font-family="Helvetica,sans-Serif" font-size="10.00">mlir::Pattern</text>
</a>
</g>
</g>
<!-- Node3&#45;&gt;Node2 -->
<g id="edge2" class="edge">
<title>Node3&#45;&gt;Node2</title>
<path fill="none" stroke="midnightblue" d="M74.5,-112.8C74.5,-103.91 74.5,-93.78 74.5,-86.75"/>
<polygon fill="midnightblue" stroke="midnightblue" points="71,-113.08 74.5,-123.08 78,-113.08 71,-113.08"/>
</g>
</g>
</svg>
