<?xml version="1.0" encoding="UTF-8" standalone="no"?>
<!DOCTYPE svg PUBLIC "-//W3C//DTD SVG 1.1//EN"
 "http://www.w3.org/Graphics/SVG/1.1/DTD/svg11.dtd">
<!-- Generated by graphviz version 2.43.0 (0)
 -->
<!-- Title: mlir::AffineExpr Pages: 1 -->
<svg width="273pt" height="142pt"
 viewBox="0.00 0.00 273.00 142.00" xmlns="http://www.w3.org/2000/svg" xmlns:xlink="http://www.w3.org/1999/xlink">
<g id="graph0" class="graph" transform="scale(1 1) rotate(0) translate(4 138)">
<title>mlir::AffineExpr</title>
<!-- Node1 -->
<g id="node1" class="node">
<title>Node1</title>
<g id="a_node1"><a xlink:title="Base type for affine expression.">
<polygon fill="#bfbfbf" stroke="black" points="0,-57.5 0,-76.5 92,-76.5 92,-57.5 0,-57.5"/>
<text text-anchor="middle" x="46" y="-64.5" font-family="Helvetica,sans-Serif" font-size="10.00">mlir::AffineExpr</text>
</a>
</g>
</g>
<!-- Node2 -->
<g id="node2" class="node">
<title>Node2</title>
<g id="a_node2"><a xlink:href="classmlir_1_1AffineBinaryOpExpr.html" target="_top" xlink:title="Affine binary operation expression.">
<polygon fill="none" stroke="black" points="128,-114.5 128,-133.5 265,-133.5 265,-114.5 128,-114.5"/>
<text text-anchor="middle" x="196.5" y="-121.5" font-family="Helvetica,sans-Serif" font-size="10.00">mlir::AffineBinaryOpExpr</text>
</a>
</g>
</g>
<!-- Node1&#45;&gt;Node2 -->
<g id="edge1" class="edge">
<title>Node1&#45;&gt;Node2</title>
<path fill="none" stroke="midnightblue" d="M74.31,-81.18C89.79,-88.88 109.68,-98.18 128,-105 137.36,-108.48 147.64,-111.69 157.31,-114.43"/>
<polygon fill="midnightblue" stroke="midnightblue" points="75.79,-78.01 65.29,-76.64 72.64,-84.26 75.79,-78.01"/>
</g>
<!-- Node3 -->
<g id="node3" class="node">
<title>Node3</title>
<g id="a_node3"><a xlink:href="classmlir_1_1AffineConstantExpr.html" target="_top" xlink:title="An integer constant appearing in affine expression.">
<polygon fill="none" stroke="black" points="128.5,-76.5 128.5,-95.5 264.5,-95.5 264.5,-76.5 128.5,-76.5"/>
<text text-anchor="middle" x="196.5" y="-83.5" font-family="Helvetica,sans-Serif" font-size="10.00">mlir::AffineConstantExpr</text>
</a>
</g>
</g>
<!-- Node1&#45;&gt;Node3 -->
<g id="edge2" class="edge">
<title>Node1&#45;&gt;Node3</title>
<path fill="none" stroke="midnightblue" d="M102.43,-74.09C110.86,-75.17 119.63,-76.29 128.27,-77.4"/>
<polygon fill="midnightblue" stroke="midnightblue" points="102.73,-70.6 92.36,-72.8 101.84,-77.54 102.73,-70.6"/>
</g>
<!-- Node4 -->
<g id="node4" class="node">
<title>Node4</title>
<g id="a_node4"><a xlink:href="classmlir_1_1AffineDimExpr.html" target="_top" xlink:title="A dimensional identifier appearing in an affine expression.">
<polygon fill="none" stroke="black" points="140,-38.5 140,-57.5 253,-57.5 253,-38.5 140,-38.5"/>
<text text-anchor="middle" x="196.5" y="-45.5" font-family="Helvetica,sans-Serif" font-size="10.00">mlir::AffineDimExpr</text>
</a>
</g>
</g>
<!-- Node1&#45;&gt;Node4 -->
<g id="edge3" class="edge">
<title>Node1&#45;&gt;Node4</title>
<path fill="none" stroke="midnightblue" d="M102.45,-59.91C114.7,-58.34 127.68,-56.68 139.94,-55.11"/>
<polygon fill="midnightblue" stroke="midnightblue" points="101.84,-56.46 92.36,-61.2 102.73,-63.4 101.84,-56.46"/>
</g>
<!-- Node5 -->
<g id="node5" class="node">
<title>Node5</title>
<g id="a_node5"><a xlink:href="classmlir_1_1AffineSymbolExpr.html" target="_top" xlink:title="A symbolic identifier appearing in an affine expression.">
<polygon fill="none" stroke="black" points="132,-0.5 132,-19.5 261,-19.5 261,-0.5 132,-0.5"/>
<text text-anchor="middle" x="196.5" y="-7.5" font-family="Helvetica,sans-Serif" font-size="10.00">mlir::AffineSymbolExpr</text>
</a>
</g>
</g>
<!-- Node1&#45;&gt;Node5 -->
<g id="edge4" class="edge">
<title>Node1&#45;&gt;Node5</title>
<path fill="none" stroke="midnightblue" d="M74.31,-52.82C89.79,-45.12 109.68,-35.82 128,-29 137.36,-25.52 147.64,-22.31 157.31,-19.57"/>
<polygon fill="midnightblue" stroke="midnightblue" points="72.64,-49.74 65.29,-57.36 75.79,-55.99 72.64,-49.74"/>
</g>
</g>
</svg>
