<?xml version="1.0" encoding="UTF-8" standalone="no"?>
<!DOCTYPE svg PUBLIC "-//W3C//DTD SVG 1.1//EN"
 "http://www.w3.org/Graphics/SVG/1.1/DTD/svg11.dtd">
<!-- Generated by graphviz version 2.43.0 (0)
 -->
<!-- Title: mlir::AffineExprVisitor&lt; SubClass, LogicalResult &gt; Pages: 1 -->
<svg width="968pt" height="88pt"
 viewBox="0.00 0.00 968.00 88.00" xmlns="http://www.w3.org/2000/svg" xmlns:xlink="http://www.w3.org/1999/xlink">
<g id="graph0" class="graph" transform="scale(1 1) rotate(0) translate(4 84)">
<title>mlir::AffineExprVisitor&lt; SubClass, LogicalResult &gt;</title>
<!-- Node1 -->
<g id="Node000001" class="node">
<title>Node1</title>
<g id="a_Node000001"><a xlink:title=" ">
<polygon fill="#999999" stroke="#666666" points="960,-80 805,-80 805,-50 960,-50 960,-80"/>
<text text-anchor="start" x="813" y="-68" font-family="Helvetica,sans-Serif" font-size="10.00">mlir::AffineExprVisitor</text>
<text text-anchor="middle" x="882.5" y="-57" font-family="Helvetica,sans-Serif" font-size="10.00">&lt; SubClass, LogicalResult &gt;</text>
</a>
</g>
</g>
<!-- Node2 -->
<g id="Node000002" class="node">
<title>Node2</title>
<g id="a_Node000002"><a xlink:href="classmlir_1_1AffineExprVisitorBase.html" target="_top" xlink:title=" ">
<polygon fill="white" stroke="#666666" points="624,-80 469,-80 469,-50 624,-50 624,-80"/>
<text text-anchor="start" x="477" y="-68" font-family="Helvetica,sans-Serif" font-size="10.00">mlir::AffineExprVisitorBase</text>
<text text-anchor="middle" x="546.5" y="-57" font-family="Helvetica,sans-Serif" font-size="10.00">&lt; SubClass, LogicalResult &gt;</text>
</a>
</g>
</g>
<!-- Node2&#45;&gt;Node1 -->
<g id="edge1_Node000001_Node000002" class="edge">
<title>Node2&#45;&gt;Node1</title>
<g id="a_edge1_Node000001_Node000002"><a xlink:title=" ">
<path fill="none" stroke="#63b8ff" d="M634.17,-59C687.04,-57.93 754.02,-58.01 804.94,-59.22"/>
<polygon fill="#63b8ff" stroke="#63b8ff" points="634.05,-55.5 624.13,-59.22 634.2,-62.5 634.05,-55.5"/>
</a>
</g>
</g>
<!-- Node2&#45;&gt;Node1 -->
<g id="edge3_Node000001_Node000002" class="edge">
<title>Node2&#45;&gt;Node1</title>
<g id="a_edge3_Node000001_Node000002"><a xlink:title=" ">
<path fill="none" stroke="#63b8ff" d="M634.17,-71C687.04,-72.07 754.02,-71.99 804.94,-70.78"/>
<polygon fill="#63b8ff" stroke="#63b8ff" points="634.2,-67.5 624.13,-70.78 634.05,-74.5 634.2,-67.5"/>
</a>
</g>
</g>
<!-- Node3 -->
<g id="Node000003" class="node">
<title>Node3</title>
<g id="a_Node000003"><a xlink:href="classmlir_1_1AffineExprVisitorBase.html" target="_top" xlink:title="Base class for AffineExpr visitors/walkers.">
<polygon fill="white" stroke="#666666" points="148,-56 0,-56 0,-26 148,-26 148,-56"/>
<text text-anchor="start" x="8" y="-44" font-family="Helvetica,sans-Serif" font-size="10.00">mlir::AffineExprVisitorBase</text>
<text text-anchor="middle" x="74" y="-33" font-family="Helvetica,sans-Serif" font-size="10.00">&lt; SubClass, RetTy &gt;</text>
</a>
</g>
</g>
<!-- Node3&#45;&gt;Node2 -->
<g id="edge2_Node000002_Node000003" class="edge">
<title>Node3&#45;&gt;Node2</title>
<g id="a_edge2_Node000002_Node000003"><a xlink:title=" ">
<path fill="none" stroke="orange" stroke-dasharray="5,2" d="M158.68,-51.39C161.15,-51.61 163.59,-51.81 166,-52 270.67,-60.1 391.97,-63.16 468.71,-64.31"/>
<polygon fill="orange" stroke="orange" points="158.74,-47.88 148.45,-50.43 158.08,-54.85 158.74,-47.88"/>
</a>
</g>
<text text-anchor="start" x="289" y="-68.5" font-family="Helvetica,sans-Serif" font-size="10.00" fill="grey">&lt; SubClass, LogicalResult &gt;</text>
</g>
<!-- Node5 -->
<g id="Node000005" class="node">
<title>Node5</title>
<g id="a_Node000005"><a xlink:href="classmlir_1_1AffineExprVisitorBase.html" target="_top" xlink:title=" ">
<polygon fill="white" stroke="#666666" points="432,-30 284,-30 284,0 432,0 432,-30"/>
<text text-anchor="start" x="292" y="-18" font-family="Helvetica,sans-Serif" font-size="10.00">mlir::AffineExprVisitorBase</text>
<text text-anchor="middle" x="358" y="-7" font-family="Helvetica,sans-Serif" font-size="10.00">&lt; SubClass, void &gt;</text>
</a>
</g>
</g>
<!-- Node3&#45;&gt;Node5 -->
<g id="edge6_Node000005_Node000003" class="edge">
<title>Node3&#45;&gt;Node5</title>
<g id="a_edge6_Node000005_Node000003"><a xlink:title=" ">
<path fill="none" stroke="orange" stroke-dasharray="5,2" d="M158.54,-33.3C198.22,-29.64 245.22,-25.31 283.52,-21.77"/>
<polygon fill="orange" stroke="orange" points="157.99,-29.83 148.36,-34.24 158.64,-36.8 157.99,-29.83"/>
</a>
</g>
<text text-anchor="start" x="169" y="-37.5" font-family="Helvetica,sans-Serif" font-size="10.00" fill="grey">&lt; SubClass, void &gt;</text>
</g>
<!-- Node4 -->
<g id="Node000004" class="node">
<title>Node4</title>
<g id="a_Node000004"><a xlink:href="classmlir_1_1AffineExprVisitor.html" target="_top" xlink:title="See documentation for AffineExprVisitorBase.">
<polygon fill="white" stroke="#666666" points="608.5,-32 484.5,-32 484.5,-2 608.5,-2 608.5,-32"/>
<text text-anchor="start" x="492.5" y="-20" font-family="Helvetica,sans-Serif" font-size="10.00">mlir::AffineExprVisitor</text>
<text text-anchor="middle" x="546.5" y="-9" font-family="Helvetica,sans-Serif" font-size="10.00">&lt; SubClass, RetTy &gt;</text>
</a>
</g>
</g>
<!-- Node4&#45;&gt;Node1 -->
<g id="edge4_Node000001_Node000004" class="edge">
<title>Node4&#45;&gt;Node1</title>
<g id="a_edge4_Node000001_Node000004"><a xlink:title=" ">
<path fill="none" stroke="orange" stroke-dasharray="5,2" d="M619.02,-23.06C666.77,-27.59 730.86,-34.63 787,-44 797.11,-45.69 807.77,-47.76 818.14,-49.95"/>
<polygon fill="orange" stroke="orange" points="619.06,-19.54 608.78,-22.1 618.41,-26.51 619.06,-19.54"/>
</a>
</g>
<text text-anchor="start" x="645.5" y="-49.5" font-family="Helvetica,sans-Serif" font-size="10.00" fill="grey">&lt; SubClass, LogicalResult &gt;</text>
</g>
<!-- Node5&#45;&gt;Node4 -->
<g id="edge5_Node000004_Node000005" class="edge">
<title>Node5&#45;&gt;Node4</title>
<g id="a_edge5_Node000004_Node000005"><a xlink:title=" ">
<path fill="none" stroke="#63b8ff" d="M442.37,-15.89C456.47,-16.05 470.88,-16.2 484.28,-16.34"/>
<polygon fill="#63b8ff" stroke="#63b8ff" points="442.21,-12.39 432.17,-15.78 442.14,-19.39 442.21,-12.39"/>
</a>
</g>
</g>
</g>
</svg>
