<?xml version="1.0" encoding="UTF-8" standalone="no"?>
<!DOCTYPE svg PUBLIC "-//W3C//DTD SVG 1.1//EN"
 "http://www.w3.org/Graphics/SVG/1.1/DTD/svg11.dtd">
<!-- Generated by graphviz version 2.43.0 (0)
 -->
<!-- Title: mlir::presburger::LexSimplexBase Pages: 1 -->
<svg width="330pt" height="148pt"
 viewBox="0.00 0.00 330.00 148.00" xmlns="http://www.w3.org/2000/svg" xmlns:xlink="http://www.w3.org/1999/xlink">
<g id="graph0" class="graph" transform="scale(1 1) rotate(0) translate(4 144)">
<title>mlir::presburger::LexSimplexBase</title>
<!-- Node1 -->
<g id="Node000001" class="node">
<title>Node1</title>
<g id="a_Node000001"><a xlink:title="Simplex class using the lexicographic pivot rule.">
<polygon fill="#999999" stroke="#666666" points="255,-85 73,-85 73,-66 255,-66 255,-85"/>
<text text-anchor="middle" x="164" y="-73" font-family="Helvetica,sans-Serif" font-size="10.00">mlir::presburger::LexSimplexBase</text>
</a>
</g>
</g>
<!-- Node3 -->
<g id="Node000003" class="node">
<title>Node3</title>
<g id="a_Node000003"><a xlink:href="classmlir_1_1presburger_1_1LexSimplex.html" target="_top" xlink:title="A class for lexicographic optimization without any symbols.">
<polygon fill="white" stroke="#666666" points="158,-24.5 0,-24.5 0,-5.5 158,-5.5 158,-24.5"/>
<text text-anchor="middle" x="79" y="-12.5" font-family="Helvetica,sans-Serif" font-size="10.00">mlir::presburger::LexSimplex</text>
</a>
</g>
</g>
<!-- Node1&#45;&gt;Node3 -->
<g id="edge2_Node000001_Node000003" class="edge">
<title>Node1&#45;&gt;Node3</title>
<g id="a_edge2_Node000001_Node000003"><a xlink:title=" ">
<path fill="none" stroke="#63b8ff" d="M143.16,-60.16C127.01,-49.05 105.17,-34.01 91.59,-24.67"/>
<polygon fill="#63b8ff" stroke="#63b8ff" points="141.24,-63.08 151.46,-65.87 145.2,-57.32 141.24,-63.08"/>
</a>
</g>
</g>
<!-- Node4 -->
<g id="Node000004" class="node">
<title>Node4</title>
<g id="a_Node000004"><a xlink:href="classmlir_1_1presburger_1_1SymbolicLexSimplex.html" target="_top" xlink:title="A class to perform symbolic lexicographic optimization, i.e., to find, for every assignment to the sy...">
<polygon fill="white" stroke="#666666" points="322,-30 176,-30 176,0 322,0 322,-30"/>
<text text-anchor="start" x="184" y="-18" font-family="Helvetica,sans-Serif" font-size="10.00">mlir::presburger::Symbolic</text>
<text text-anchor="middle" x="249" y="-7" font-family="Helvetica,sans-Serif" font-size="10.00">LexSimplex</text>
</a>
</g>
</g>
<!-- Node1&#45;&gt;Node4 -->
<g id="edge3_Node000001_Node000004" class="edge">
<title>Node1&#45;&gt;Node4</title>
<g id="a_edge3_Node000001_Node000004"><a xlink:title=" ">
<path fill="none" stroke="#63b8ff" d="M185.02,-60.03C198.29,-50.9 215.33,-39.17 228.49,-30.11"/>
<polygon fill="#63b8ff" stroke="#63b8ff" points="182.8,-57.32 176.54,-65.87 186.76,-63.08 182.8,-57.32"/>
</a>
</g>
</g>
<!-- Node2 -->
<g id="Node000002" class="node">
<title>Node2</title>
<g id="a_Node000002"><a xlink:href="classmlir_1_1presburger_1_1SimplexBase.html" target="_top" xlink:title="The Simplex class implements a version of the Simplex and Generalized Basis Reduction algorithms,...">
<polygon fill="white" stroke="#666666" points="246,-140 82,-140 82,-121 246,-121 246,-140"/>
<text text-anchor="middle" x="164" y="-128" font-family="Helvetica,sans-Serif" font-size="10.00">mlir::presburger::SimplexBase</text>
</a>
</g>
</g>
<!-- Node2&#45;&gt;Node1 -->
<g id="edge1_Node000001_Node000002" class="edge">
<title>Node2&#45;&gt;Node1</title>
<g id="a_edge1_Node000001_Node000002"><a xlink:title=" ">
<path fill="none" stroke="#63b8ff" d="M164,-110.66C164,-101.93 164,-91.99 164,-85.09"/>
<polygon fill="#63b8ff" stroke="#63b8ff" points="160.5,-110.75 164,-120.75 167.5,-110.75 160.5,-110.75"/>
</a>
</g>
</g>
</g>
</svg>
