<?xml version="1.0" encoding="UTF-8" standalone="no"?>
<!DOCTYPE svg PUBLIC "-//W3C//DTD SVG 1.1//EN"
 "http://www.w3.org/Graphics/SVG/1.1/DTD/svg11.dtd">
<!-- Generated by graphviz version 2.43.0 (0)
 -->
<!-- Title: mlir::SideEffects::Resource Pages: 1 -->
<svg width="971pt" height="476pt"
 viewBox="0.00 0.00 971.00 475.72" xmlns="http://www.w3.org/2000/svg" xmlns:xlink="http://www.w3.org/1999/xlink">
<g id="graph0" class="graph" transform="scale(1 1) rotate(0) translate(4 471.72)">
<title>mlir::SideEffects::Resource</title>
<!-- Node1 -->
<g id="Node000001" class="node">
<title>Node1</title>
<g id="a_Node000001"><a xlink:title="This class represents a specific resource that an effect applies to.">
<polygon fill="#999999" stroke="#666666" points="102,-224.8 0,-224.8 0,-194.8 102,-194.8 102,-224.8"/>
<text text-anchor="start" x="8" y="-212.8" font-family="Helvetica,sans-Serif" font-size="10.00">mlir::SideEffects::</text>
<text text-anchor="middle" x="51" y="-201.8" font-family="Helvetica,sans-Serif" font-size="10.00">Resource</text>
</a>
</g>
</g>
<!-- Node2 -->
<g id="Node000002" class="node">
<title>Node2</title>
<g id="a_Node000002"><a xlink:href="classmlir_1_1SideEffects_1_1Resource_1_1Base.html" target="_top" xlink:title=" ">
<polygon fill="white" stroke="#666666" points="733.5,-354.3 531.5,-354.3 531.5,-313.3 733.5,-313.3 733.5,-354.3"/>
<text text-anchor="start" x="539.5" y="-342.3" font-family="Helvetica,sans-Serif" font-size="10.00">mlir::SideEffects::</text>
<text text-anchor="start" x="539.5" y="-331.3" font-family="Helvetica,sans-Serif" font-size="10.00">Resource::Base&lt; AutomaticAllocation</text>
<text text-anchor="middle" x="632.5" y="-320.3" font-family="Helvetica,sans-Serif" font-size="10.00">ScopeResource &gt;</text>
</a>
</g>
</g>
<!-- Node1&#45;&gt;Node2 -->
<g id="edge1_Node000001_Node000002" class="edge">
<title>Node1&#45;&gt;Node2</title>
<g id="a_edge1_Node000001_Node000002"><a xlink:title=" ">
<path fill="none" stroke="#63b8ff" d="M80.43,-230.86C130.78,-266.58 240.29,-337.37 346,-359.8 413.31,-374.09 491.18,-365.36 548.58,-354.31"/>
<polygon fill="#63b8ff" stroke="#63b8ff" points="82.47,-228.01 72.3,-225.03 78.39,-233.7 82.47,-228.01"/>
</a>
</g>
</g>
<!-- Node4 -->
<g id="Node000004" class="node">
<title>Node4</title>
<g id="a_Node000004"><a xlink:href="classmlir_1_1SideEffects_1_1Resource_1_1Base.html" target="_top" xlink:title=" ">
<polygon fill="white" stroke="#666666" points="730,-406.8 535,-406.8 535,-376.8 730,-376.8 730,-406.8"/>
<text text-anchor="start" x="543" y="-394.8" font-family="Helvetica,sans-Serif" font-size="10.00">mlir::SideEffects::</text>
<text text-anchor="middle" x="632.5" y="-383.8" font-family="Helvetica,sans-Serif" font-size="10.00">Resource::Base&lt; DefaultResource &gt;</text>
</a>
</g>
</g>
<!-- Node1&#45;&gt;Node4 -->
<g id="edge3_Node000001_Node000004" class="edge">
<title>Node1&#45;&gt;Node4</title>
<g id="a_edge3_Node000001_Node000004"><a xlink:title=" ">
<path fill="none" stroke="#63b8ff" d="M64.98,-233.72C79.97,-259.49 106.75,-300.36 139,-326.8 217.71,-391.34 246.69,-402.48 346,-424.8 417.55,-440.88 438.92,-438.32 511,-424.8 519.44,-423.22 520.82,-420.42 529,-417.8 541.24,-413.89 554.45,-410.17 567.18,-406.83"/>
<polygon fill="#63b8ff" stroke="#63b8ff" points="67.99,-231.92 60.01,-224.96 61.91,-235.38 67.99,-231.92"/>
</a>
</g>
</g>
<!-- Node6 -->
<g id="Node000006" class="node">
<title>Node6</title>
<g id="a_Node000006"><a xlink:href="classmlir_1_1SideEffects_1_1Resource_1_1Base.html" target="_top" xlink:title=" ">
<polygon fill="white" stroke="#666666" points="735.5,-456.8 529.5,-456.8 529.5,-426.8 735.5,-426.8 735.5,-456.8"/>
<text text-anchor="start" x="537.5" y="-444.8" font-family="Helvetica,sans-Serif" font-size="10.00">mlir::SideEffects::</text>
<text text-anchor="middle" x="632.5" y="-433.8" font-family="Helvetica,sans-Serif" font-size="10.00">Resource::Base&lt; ConstructResource &gt;</text>
</a>
</g>
</g>
<!-- Node1&#45;&gt;Node6 -->
<g id="edge5_Node000001_Node000006" class="edge">
<title>Node1&#45;&gt;Node6</title>
<g id="a_edge5_Node000001_Node000006"><a xlink:title=" ">
<path fill="none" stroke="#63b8ff" d="M57.37,-234.86C66.94,-273.36 90.66,-346.79 139,-386.8 256.82,-484.3 448.46,-472.92 554.61,-456.86"/>
<polygon fill="#63b8ff" stroke="#63b8ff" points="60.74,-233.91 55.04,-224.98 53.93,-235.52 60.74,-233.91"/>
</a>
</g>
</g>
<!-- Node8 -->
<g id="Node000008" class="node">
<title>Node8</title>
<g id="a_Node000008"><a xlink:href="classmlir_1_1SideEffects_1_1Resource_1_1Base.html" target="_top" xlink:title=" ">
<polygon fill="white" stroke="#666666" points="719,-62.3 546,-62.3 546,-21.3 719,-21.3 719,-62.3"/>
<text text-anchor="start" x="554" y="-50.3" font-family="Helvetica,sans-Serif" font-size="10.00">mlir::SideEffects::</text>
<text text-anchor="start" x="554" y="-39.3" font-family="Helvetica,sans-Serif" font-size="10.00">Resource::Base&lt; CurrentDevice</text>
<text text-anchor="middle" x="632.5" y="-28.3" font-family="Helvetica,sans-Serif" font-size="10.00">IdResource &gt;</text>
</a>
</g>
</g>
<!-- Node1&#45;&gt;Node8 -->
<g id="edge7_Node000001_Node000008" class="edge">
<title>Node1&#45;&gt;Node8</title>
<g id="a_edge7_Node000001_Node000008"><a xlink:title=" ">
<path fill="none" stroke="#63b8ff" d="M58.16,-184.57C68.33,-148.96 92.3,-85.06 139,-55.8 265.86,23.67 449.42,1.03 552.88,-21.25"/>
<polygon fill="#63b8ff" stroke="#63b8ff" points="54.67,-184.07 55.44,-194.64 61.43,-185.9 54.67,-184.07"/>
</a>
</g>
</g>
<!-- Node10 -->
<g id="Node000010" class="node">
<title>Node10</title>
<g id="a_Node000010"><a xlink:href="classmlir_1_1SideEffects_1_1Resource_1_1Base.html" target="_top" xlink:title=" ">
<polygon fill="white" stroke="#666666" points="732,-257.8 533,-257.8 533,-227.8 732,-227.8 732,-257.8"/>
<text text-anchor="start" x="541" y="-245.8" font-family="Helvetica,sans-Serif" font-size="10.00">mlir::SideEffects::</text>
<text text-anchor="middle" x="632.5" y="-234.8" font-family="Helvetica,sans-Serif" font-size="10.00">Resource::Base&lt; RuntimeCounters &gt;</text>
</a>
</g>
</g>
<!-- Node1&#45;&gt;Node10 -->
<g id="edge9_Node000001_Node000010" class="edge">
<title>Node1&#45;&gt;Node10</title>
<g id="a_edge9_Node000001_Node000010"><a xlink:title=" ">
<path fill="none" stroke="#63b8ff" d="M112.43,-200.67C220.71,-185.44 442.86,-159.73 511,-193.8 522.93,-199.77 517.87,-210.46 529,-217.8 534.89,-221.69 541.32,-224.97 548,-227.74"/>
<polygon fill="#63b8ff" stroke="#63b8ff" points="111.72,-197.23 102.31,-202.11 112.71,-204.16 111.72,-197.23"/>
</a>
</g>
</g>
<!-- Node12 -->
<g id="Node000012" class="node">
<title>Node12</title>
<g id="a_Node000012"><a xlink:href="classmlir_1_1SideEffects_1_1Resource_1_1Base.html" target="_top" xlink:title=" ">
<polygon fill="white" stroke="#666666" points="736,-146.8 529,-146.8 529,-116.8 736,-116.8 736,-146.8"/>
<text text-anchor="start" x="537" y="-134.8" font-family="Helvetica,sans-Serif" font-size="10.00">mlir::SideEffects::</text>
<text text-anchor="middle" x="632.5" y="-123.8" font-family="Helvetica,sans-Serif" font-size="10.00">Resource::Base&lt; PayloadIRResource &gt;</text>
</a>
</g>
</g>
<!-- Node1&#45;&gt;Node12 -->
<g id="edge11_Node000001_Node000012" class="edge">
<title>Node1&#45;&gt;Node12</title>
<g id="a_edge11_Node000001_Node000012"><a xlink:title=" ">
<path fill="none" stroke="#63b8ff" d="M63.87,-185.78C78.04,-159.76 104.24,-119.14 139,-97.8 218.85,-48.78 252.72,-66.73 346,-57.8 419,-50.81 441.22,-35.24 511,-57.8 520.39,-60.84 520.75,-65.39 529,-70.8 554.1,-87.29 583.65,-104.67 604.55,-116.64"/>
<polygon fill="#63b8ff" stroke="#63b8ff" points="60.77,-184.16 59.2,-194.64 66.96,-187.42 60.77,-184.16"/>
</a>
</g>
</g>
<!-- Node14 -->
<g id="Node000014" class="node">
<title>Node14</title>
<g id="a_Node000014"><a xlink:href="classmlir_1_1SideEffects_1_1Resource_1_1Base.html" target="_top" xlink:title=" ">
<polygon fill="white" stroke="#666666" points="729.5,-208.3 535.5,-208.3 535.5,-167.3 729.5,-167.3 729.5,-208.3"/>
<text text-anchor="start" x="543.5" y="-196.3" font-family="Helvetica,sans-Serif" font-size="10.00">mlir::SideEffects::</text>
<text text-anchor="start" x="543.5" y="-185.3" font-family="Helvetica,sans-Serif" font-size="10.00">Resource::Base&lt; TransformMapping</text>
<text text-anchor="middle" x="632.5" y="-174.3" font-family="Helvetica,sans-Serif" font-size="10.00">Resource &gt;</text>
</a>
</g>
</g>
<!-- Node1&#45;&gt;Node14 -->
<g id="edge13_Node000001_Node000014" class="edge">
<title>Node1&#45;&gt;Node14</title>
<g id="a_edge13_Node000001_Node000014"><a xlink:title=" ">
<path fill="none" stroke="#63b8ff" d="M74.84,-188.12C87.22,-177.7 103.37,-166.13 120,-159.8 282.67,-97.95 349.28,-74.51 511,-138.8 521.23,-142.87 519.5,-150.24 529,-155.8 536.4,-160.14 544.45,-163.95 552.68,-167.28"/>
<polygon fill="#63b8ff" stroke="#63b8ff" points="72.5,-185.51 67.27,-194.73 77.1,-190.78 72.5,-185.51"/>
</a>
</g>
</g>
<!-- Node16 -->
<g id="Node000016" class="node">
<title>Node16</title>
<g id="a_Node000016"><a xlink:href="classmlir_1_1SideEffects_1_1Resource_1_1Base.html" target="_top" xlink:title="This base class is used for derived effects that are non&#45;parametric.">
<polygon fill="white" stroke="#666666" points="328,-258.3 139,-258.3 139,-217.3 328,-217.3 328,-258.3"/>
<text text-anchor="start" x="147" y="-246.3" font-family="Helvetica,sans-Serif" font-size="10.00">mlir::SideEffects::</text>
<text text-anchor="start" x="147" y="-235.3" font-family="Helvetica,sans-Serif" font-size="10.00">Resource::Base&lt; DerivedResource,</text>
<text text-anchor="middle" x="233.5" y="-224.3" font-family="Helvetica,sans-Serif" font-size="10.00"> BaseResource &gt;</text>
</a>
</g>
</g>
<!-- Node1&#45;&gt;Node16 -->
<g id="edge15_Node000001_Node000016" class="edge">
<title>Node1&#45;&gt;Node16</title>
<g id="a_edge15_Node000001_Node000016"><a xlink:title=" ">
<path fill="none" stroke="#63b8ff" d="M112.2,-219.14C120.82,-220.48 129.86,-221.88 138.95,-223.29"/>
<polygon fill="#63b8ff" stroke="#63b8ff" points="112.7,-215.68 102.28,-217.6 111.62,-222.59 112.7,-215.68"/>
</a>
</g>
</g>
<!-- Node3 -->
<g id="Node000003" class="node">
<title>Node3</title>
<g id="a_Node000003"><a xlink:href="structmlir_1_1SideEffects_1_1AutomaticAllocationScopeResource.html" target="_top" xlink:title="An automatic allocation&#45;scope resource that is valid in the context of a parent AutomaticAllocationSc...">
<polygon fill="white" stroke="#666666" points="963,-348.8 773,-348.8 773,-318.8 963,-318.8 963,-348.8"/>
<text text-anchor="start" x="781" y="-336.8" font-family="Helvetica,sans-Serif" font-size="10.00">mlir::SideEffects::</text>
<text text-anchor="middle" x="868" y="-325.8" font-family="Helvetica,sans-Serif" font-size="10.00">AutomaticAllocationScopeResource</text>
</a>
</g>
</g>
<!-- Node2&#45;&gt;Node3 -->
<g id="edge2_Node000002_Node000003" class="edge">
<title>Node2&#45;&gt;Node3</title>
<g id="a_edge2_Node000002_Node000003"><a xlink:title=" ">
<path fill="none" stroke="#63b8ff" d="M743.64,-333.8C753.36,-333.8 763.14,-333.8 772.72,-333.8"/>
<polygon fill="#63b8ff" stroke="#63b8ff" points="743.54,-330.3 733.54,-333.8 743.54,-337.3 743.54,-330.3"/>
</a>
</g>
</g>
<!-- Node5 -->
<g id="Node000005" class="node">
<title>Node5</title>
<g id="a_Node000005"><a xlink:href="structmlir_1_1SideEffects_1_1DefaultResource.html" target="_top" xlink:title="A conservative default resource kind.">
<polygon fill="white" stroke="#666666" points="919,-406.8 817,-406.8 817,-376.8 919,-376.8 919,-406.8"/>
<text text-anchor="start" x="825" y="-394.8" font-family="Helvetica,sans-Serif" font-size="10.00">mlir::SideEffects::</text>
<text text-anchor="middle" x="868" y="-383.8" font-family="Helvetica,sans-Serif" font-size="10.00">DefaultResource</text>
</a>
</g>
</g>
<!-- Node4&#45;&gt;Node5 -->
<g id="edge4_Node000004_Node000005" class="edge">
<title>Node4&#45;&gt;Node5</title>
<g id="a_edge4_Node000004_Node000005"><a xlink:title=" ">
<path fill="none" stroke="#63b8ff" d="M740.32,-391.8C766.96,-391.8 794.29,-391.8 816.71,-391.8"/>
<polygon fill="#63b8ff" stroke="#63b8ff" points="740.16,-388.3 730.16,-391.8 740.16,-395.3 740.16,-388.3"/>
</a>
</g>
</g>
<!-- Node7 -->
<g id="Node000007" class="node">
<title>Node7</title>
<g id="a_Node000007"><a xlink:href="structmlir_1_1acc_1_1ConstructResource.html" target="_top" xlink:title=" ">
<polygon fill="white" stroke="#666666" points="946,-451.3 790,-451.3 790,-432.3 946,-432.3 946,-451.3"/>
<text text-anchor="middle" x="868" y="-439.3" font-family="Helvetica,sans-Serif" font-size="10.00">mlir::acc::ConstructResource</text>
</a>
</g>
</g>
<!-- Node6&#45;&gt;Node7 -->
<g id="edge6_Node000006_Node000007" class="edge">
<title>Node6&#45;&gt;Node7</title>
<g id="a_edge6_Node000006_Node000007"><a xlink:title=" ">
<path fill="none" stroke="#63b8ff" d="M745.83,-441.8C760.68,-441.8 775.63,-441.8 789.71,-441.8"/>
<polygon fill="#63b8ff" stroke="#63b8ff" points="745.58,-438.3 735.58,-441.8 745.58,-445.3 745.58,-438.3"/>
</a>
</g>
</g>
<!-- Node9 -->
<g id="Node000009" class="node">
<title>Node9</title>
<g id="a_Node000009"><a xlink:href="structmlir_1_1acc_1_1CurrentDeviceIdResource.html" target="_top" xlink:title=" ">
<polygon fill="white" stroke="#666666" points="935,-56.8 801,-56.8 801,-26.8 935,-26.8 935,-56.8"/>
<text text-anchor="start" x="809" y="-44.8" font-family="Helvetica,sans-Serif" font-size="10.00">mlir::acc::CurrentDevice</text>
<text text-anchor="middle" x="868" y="-33.8" font-family="Helvetica,sans-Serif" font-size="10.00">IdResource</text>
</a>
</g>
</g>
<!-- Node8&#45;&gt;Node9 -->
<g id="edge8_Node000008_Node000009" class="edge">
<title>Node8&#45;&gt;Node9</title>
<g id="a_edge8_Node000008_Node000009"><a xlink:title=" ">
<path fill="none" stroke="#63b8ff" d="M729.32,-41.8C753.33,-41.8 778.56,-41.8 800.77,-41.8"/>
<polygon fill="#63b8ff" stroke="#63b8ff" points="729.12,-38.3 719.12,-41.8 729.12,-45.3 729.12,-38.3"/>
</a>
</g>
</g>
<!-- Node11 -->
<g id="Node000011" class="node">
<title>Node11</title>
<g id="a_Node000011"><a xlink:href="structmlir_1_1acc_1_1RuntimeCounters.html" target="_top" xlink:title=" ">
<polygon fill="white" stroke="#666666" points="942.5,-252.3 793.5,-252.3 793.5,-233.3 942.5,-233.3 942.5,-252.3"/>
<text text-anchor="middle" x="868" y="-240.3" font-family="Helvetica,sans-Serif" font-size="10.00">mlir::acc::RuntimeCounters</text>
</a>
</g>
</g>
<!-- Node10&#45;&gt;Node11 -->
<g id="edge10_Node000010_Node000011" class="edge">
<title>Node10&#45;&gt;Node11</title>
<g id="a_edge10_Node000010_Node000011"><a xlink:title=" ">
<path fill="none" stroke="#63b8ff" d="M742.34,-242.8C759.66,-242.8 777.21,-242.8 793.47,-242.8"/>
<polygon fill="#63b8ff" stroke="#63b8ff" points="742.19,-239.3 732.19,-242.8 742.19,-246.3 742.19,-239.3"/>
</a>
</g>
</g>
<!-- Node13 -->
<g id="Node000013" class="node">
<title>Node13</title>
<g id="a_Node000013"><a xlink:href="structmlir_1_1transform_1_1PayloadIRResource.html" target="_top" xlink:title="Side effect resource corresponding to the Payload IR itself.">
<polygon fill="white" stroke="#666666" points="935,-146.8 801,-146.8 801,-116.8 935,-116.8 935,-146.8"/>
<text text-anchor="start" x="809" y="-134.8" font-family="Helvetica,sans-Serif" font-size="10.00">mlir::transform::Payload</text>
<text text-anchor="middle" x="868" y="-123.8" font-family="Helvetica,sans-Serif" font-size="10.00">IRResource</text>
</a>
</g>
</g>
<!-- Node12&#45;&gt;Node13 -->
<g id="edge12_Node000012_Node000013" class="edge">
<title>Node12&#45;&gt;Node13</title>
<g id="a_edge12_Node000012_Node000013"><a xlink:title=" ">
<path fill="none" stroke="#63b8ff" d="M746.3,-131.8C764.98,-131.8 783.79,-131.8 800.82,-131.8"/>
<polygon fill="#63b8ff" stroke="#63b8ff" points="746.26,-128.3 736.26,-131.8 746.26,-135.3 746.26,-128.3"/>
</a>
</g>
</g>
<!-- Node15 -->
<g id="Node000015" class="node">
<title>Node15</title>
<g id="a_Node000015"><a xlink:href="structmlir_1_1transform_1_1TransformMappingResource.html" target="_top" xlink:title="Side effect resource corresponding to the mapping between Transform IR values and Payload IR operatio...">
<polygon fill="white" stroke="#666666" points="940.5,-202.8 795.5,-202.8 795.5,-172.8 940.5,-172.8 940.5,-202.8"/>
<text text-anchor="start" x="803.5" y="-190.8" font-family="Helvetica,sans-Serif" font-size="10.00">mlir::transform::Transform</text>
<text text-anchor="middle" x="868" y="-179.8" font-family="Helvetica,sans-Serif" font-size="10.00">MappingResource</text>
</a>
</g>
</g>
<!-- Node14&#45;&gt;Node15 -->
<g id="edge14_Node000014_Node000015" class="edge">
<title>Node14&#45;&gt;Node15</title>
<g id="a_edge14_Node000014_Node000015"><a xlink:title=" ">
<path fill="none" stroke="#63b8ff" d="M739.87,-187.8C758.59,-187.8 777.67,-187.8 795.16,-187.8"/>
<polygon fill="#63b8ff" stroke="#63b8ff" points="739.82,-184.3 729.82,-187.8 739.82,-191.3 739.82,-184.3"/>
</a>
</g>
</g>
<!-- Node16&#45;&gt;Node2 -->
<g id="edge16_Node000016_Node000002" class="edge">
<title>Node16&#45;&gt;Node2</title>
<g id="a_edge16_Node000016_Node000002"><a xlink:title=" ">
<path fill="none" stroke="orange" stroke-dasharray="5,2" d="M337.97,-260.28C340.67,-260.8 343.35,-261.31 346,-261.8 418.98,-275.4 439.27,-268.68 511,-287.8 535.77,-294.41 562.49,-304.31 584.46,-313.23"/>
<polygon fill="orange" stroke="orange" points="338.6,-256.84 328.11,-258.35 337.25,-263.71 338.6,-256.84"/>
</a>
</g>
<text text-anchor="start" x="358.5" y="-308.8" font-family="Helvetica,sans-Serif" font-size="10.00" fill="grey">&lt; AutomaticAllocationScope</text>
<text text-anchor="start" x="358.5" y="-293.8" font-family="Helvetica,sans-Serif" font-size="10.00" fill="grey">  Resource &gt;</text>
</g>
<!-- Node16&#45;&gt;Node4 -->
<g id="edge17_Node000016_Node000004" class="edge">
<title>Node16&#45;&gt;Node4</title>
<g id="a_edge17_Node000016_Node000004"><a xlink:title=" ">
<path fill="none" stroke="orange" stroke-dasharray="5,2" d="M264.87,-265.21C286.19,-283.12 316.13,-305.72 346,-319.8 383.28,-337.38 486.87,-361.38 558.44,-376.74"/>
<polygon fill="orange" stroke="orange" points="267.02,-262.44 257.14,-258.61 262.47,-267.76 267.02,-262.44"/>
</a>
</g>
<text text-anchor="start" x="376.5" y="-371.3" font-family="Helvetica,sans-Serif" font-size="10.00" fill="grey">&lt; DefaultResource &gt;</text>
</g>
<!-- Node16&#45;&gt;Node6 -->
<g id="edge18_Node000016_Node000006" class="edge">
<title>Node16&#45;&gt;Node6</title>
<g id="a_edge18_Node000016_Node000006"><a xlink:title=" ">
<path fill="none" stroke="orange" stroke-dasharray="5,2" d="M248.6,-267.46C266.37,-301.44 300.22,-356.13 346,-384.8 400.62,-419.01 471.65,-433.28 529.2,-438.99"/>
<polygon fill="orange" stroke="orange" points="251.67,-265.78 244.01,-258.46 245.43,-268.96 251.67,-265.78"/>
</a>
</g>
<text text-anchor="start" x="371.5" y="-441.3" font-family="Helvetica,sans-Serif" font-size="10.00" fill="grey">&lt; ConstructResource &gt;</text>
</g>
<!-- Node16&#45;&gt;Node8 -->
<g id="edge19_Node000016_Node000008" class="edge">
<title>Node16&#45;&gt;Node8</title>
<g id="a_edge19_Node000016_Node000008"><a xlink:title=" ">
<path fill="none" stroke="orange" stroke-dasharray="5,2" d="M255.09,-208.83C275.34,-182.41 308.58,-144.19 346,-121.8 407.51,-85 486.58,-64.56 545.9,-53.58"/>
<polygon fill="orange" stroke="orange" points="252.19,-206.86 248.98,-216.95 257.79,-211.06 252.19,-206.86"/>
</a>
</g>
<text text-anchor="start" x="355.5" y="-127.3" font-family="Helvetica,sans-Serif" font-size="10.00" fill="grey">&lt; CurrentDeviceIdResource &gt;</text>
</g>
<!-- Node16&#45;&gt;Node10 -->
<g id="edge20_Node000016_Node000010" class="edge">
<title>Node16&#45;&gt;Node10</title>
<g id="a_edge20_Node000016_Node000010"><a xlink:title=" ">
<path fill="none" stroke="orange" stroke-dasharray="5,2" d="M338.34,-239.11C398.38,-239.87 473.49,-240.81 532.66,-241.56"/>
<polygon fill="orange" stroke="orange" points="338.12,-235.61 328.08,-238.98 338.04,-242.61 338.12,-235.61"/>
</a>
</g>
<text text-anchor="start" x="374.5" y="-246.3" font-family="Helvetica,sans-Serif" font-size="10.00" fill="grey">&lt; RuntimeCounters &gt;</text>
</g>
<!-- Node16&#45;&gt;Node12 -->
<g id="edge21_Node000016_Node000012" class="edge">
<title>Node16&#45;&gt;Node12</title>
<g id="a_edge21_Node000016_Node000012"><a xlink:title=" ">
<path fill="none" stroke="orange" stroke-dasharray="5,2" d="M274.14,-211.74C294.78,-199.33 320.89,-185.36 346,-176.8 404.78,-156.77 473.44,-145.59 528.7,-139.39"/>
<polygon fill="orange" stroke="orange" points="272.05,-208.92 265.36,-217.13 275.71,-214.89 272.05,-208.92"/>
</a>
</g>
<text text-anchor="start" x="370.5" y="-182.3" font-family="Helvetica,sans-Serif" font-size="10.00" fill="grey">&lt; PayloadIRResource &gt;</text>
</g>
<!-- Node16&#45;&gt;Node14 -->
<g id="edge22_Node000016_Node000014" class="edge">
<title>Node16&#45;&gt;Node14</title>
<g id="a_edge22_Node000016_Node000014"><a xlink:title=" ">
<path fill="none" stroke="orange" stroke-dasharray="5,2" d="M338.25,-218.94C340.86,-218.54 343.44,-218.17 346,-217.8 408.91,-208.87 479.98,-201.39 535.47,-196.14"/>
<polygon fill="orange" stroke="orange" points="337.46,-215.52 328.11,-220.5 338.52,-222.43 337.46,-215.52"/>
</a>
</g>
<text text-anchor="start" x="349.5" y="-223.3" font-family="Helvetica,sans-Serif" font-size="10.00" fill="grey">&lt; TransformMappingResource &gt;</text>
</g>
</g>
</svg>
