<?xml version="1.0" encoding="UTF-8" standalone="no"?>
<!DOCTYPE svg PUBLIC "-//W3C//DTD SVG 1.1//EN"
 "http://www.w3.org/Graphics/SVG/1.1/DTD/svg11.dtd">
<!-- Generated by graphviz version 2.43.0 (0)
 -->
<!-- Title: TransposeOpLowering Pages: 1 -->
<svg width="1317pt" height="144pt"
 viewBox="0.00 0.00 1317.00 143.83" xmlns="http://www.w3.org/2000/svg" xmlns:xlink="http://www.w3.org/1999/xlink">
<g id="graph0" class="graph" transform="scale(1 1) rotate(0) translate(4 139.83)">
<title>TransposeOpLowering</title>
<!-- Node1 -->
<g id="node1" class="node">
<title>Node1</title>
<g id="a_node1"><a xlink:title="Rewrite AVX2&#45;specific vector.transpose, for the supported cases and depending on the TransposeLowerin...">
<polygon fill="#bfbfbf" stroke="black" points="1186,-48 1186,-67 1309,-67 1309,-48 1186,-48"/>
<text text-anchor="middle" x="1247.5" y="-55" font-family="Helvetica,sans-Serif" font-size="10.00">TransposeOpLowering</text>
</a>
</g>
</g>
<!-- Node2 -->
<g id="node2" class="node">
<title>Node2</title>
<g id="a_node2"><a xlink:href="classmlir_1_1ConvertOpToLLVMPattern.html" target="_top" xlink:title=" ">
<polygon fill="none" stroke="black" points="985,-91.5 985,-121.5 1149,-121.5 1149,-91.5 985,-91.5"/>
<text text-anchor="start" x="993" y="-109.5" font-family="Helvetica,sans-Serif" font-size="10.00">mlir::ConvertOpToLLVMPattern</text>
<text text-anchor="middle" x="1067" y="-98.5" font-family="Helvetica,sans-Serif" font-size="10.00">&lt; memref::TransposeOp &gt;</text>
</a>
</g>
</g>
<!-- Node2&#45;&gt;Node1 -->
<g id="edge1" class="edge">
<title>Node2&#45;&gt;Node1</title>
<path fill="none" stroke="midnightblue" d="M1136.94,-88.87C1147.36,-86.12 1157.98,-83.27 1168,-80.5 1183.47,-76.22 1200.58,-71.24 1214.86,-67.01"/>
<polygon fill="midnightblue" stroke="midnightblue" points="1135.82,-85.55 1127.04,-91.47 1137.6,-92.32 1135.82,-85.55"/>
</g>
<!-- Node3 -->
<g id="node3" class="node">
<title>Node3</title>
<g id="a_node3"><a xlink:href="classmlir_1_1ConvertToLLVMPattern.html" target="_top" xlink:title="Base class for operation conversions targeting the LLVM IR dialect.">
<polygon fill="none" stroke="black" points="448.5,-94 448.5,-113 599.5,-113 599.5,-94 448.5,-94"/>
<text text-anchor="middle" x="524" y="-101" font-family="Helvetica,sans-Serif" font-size="10.00">mlir::ConvertToLLVMPattern</text>
</a>
</g>
</g>
<!-- Node3&#45;&gt;Node2 -->
<g id="edge2" class="edge">
<title>Node3&#45;&gt;Node2</title>
<path fill="none" stroke="midnightblue" d="M572.84,-115.2C596.5,-120.4 625.58,-125.92 652,-128.5 791.38,-142.09 827.61,-134.02 967,-120.5 972.79,-119.94 978.76,-119.28 984.76,-118.57"/>
<polygon fill="midnightblue" stroke="midnightblue" points="573.58,-111.78 563.06,-113 572.05,-118.61 573.58,-111.78"/>
</g>
<!-- Node7 -->
<g id="node7" class="node">
<title>Node7</title>
<g id="a_node7"><a xlink:href="classmlir_1_1ConvertOpToLLVMPattern.html" target="_top" xlink:title="Utility class for operation conversions targeting the LLVM dialect that match exactly one source oper...">
<polygon fill="none" stroke="black" points="652,-88.5 652,-118.5 816,-118.5 816,-88.5 652,-88.5"/>
<text text-anchor="start" x="660" y="-106.5" font-family="Helvetica,sans-Serif" font-size="10.00">mlir::ConvertOpToLLVMPattern</text>
<text text-anchor="middle" x="734" y="-95.5" font-family="Helvetica,sans-Serif" font-size="10.00">&lt; SourceOp &gt;</text>
</a>
</g>
</g>
<!-- Node3&#45;&gt;Node7 -->
<g id="edge7" class="edge">
<title>Node3&#45;&gt;Node7</title>
<path fill="none" stroke="midnightblue" d="M609.59,-103.5C623.59,-103.5 638.07,-103.5 651.97,-103.5"/>
<polygon fill="midnightblue" stroke="midnightblue" points="609.51,-100 599.51,-103.5 609.51,-107 609.51,-100"/>
</g>
<!-- Node4 -->
<g id="node4" class="node">
<title>Node4</title>
<g id="a_node4"><a xlink:href="classmlir_1_1ConversionPattern.html" target="_top" xlink:title="Base class for the conversion patterns.">
<polygon fill="none" stroke="black" points="265,-92 265,-111 396,-111 396,-92 265,-92"/>
<text text-anchor="middle" x="330.5" y="-99" font-family="Helvetica,sans-Serif" font-size="10.00">mlir::ConversionPattern</text>
</a>
</g>
</g>
<!-- Node4&#45;&gt;Node3 -->
<g id="edge3" class="edge">
<title>Node4&#45;&gt;Node3</title>
<path fill="none" stroke="midnightblue" d="M406.07,-102.28C420,-102.42 434.55,-102.58 448.47,-102.72"/>
<polygon fill="midnightblue" stroke="midnightblue" points="406.1,-98.78 396.07,-102.17 406.03,-105.78 406.1,-98.78"/>
</g>
<!-- Node5 -->
<g id="node5" class="node">
<title>Node5</title>
<g id="a_node5"><a xlink:href="classmlir_1_1RewritePattern.html" target="_top" xlink:title="RewritePattern is the common base class for all DAG to DAG replacements.">
<polygon fill="none" stroke="black" points="114,-65 114,-84 228,-84 228,-65 114,-65"/>
<text text-anchor="middle" x="171" y="-72" font-family="Helvetica,sans-Serif" font-size="10.00">mlir::RewritePattern</text>
</a>
</g>
</g>
<!-- Node5&#45;&gt;Node4 -->
<g id="edge4" class="edge">
<title>Node5&#45;&gt;Node4</title>
<path fill="none" stroke="midnightblue" d="M237.56,-85.74C249.66,-87.81 262.18,-89.96 273.94,-91.98"/>
<polygon fill="midnightblue" stroke="midnightblue" points="237.98,-82.26 227.53,-84.02 236.79,-89.16 237.98,-82.26"/>
</g>
<!-- Node9 -->
<g id="node9" class="node">
<title>Node9</title>
<g id="a_node9"><a xlink:href="structmlir_1_1detail_1_1OpOrInterfaceRewritePatternBase.html" target="_top" xlink:title="OpOrInterfaceRewritePatternBase is a wrapper around RewritePattern that allows for matching and rewri...">
<polygon fill="none" stroke="black" points="433,-44.5 433,-74.5 615,-74.5 615,-44.5 433,-44.5"/>
<text text-anchor="start" x="441" y="-62.5" font-family="Helvetica,sans-Serif" font-size="10.00">mlir::detail::OpOrInterface</text>
<text text-anchor="middle" x="524" y="-51.5" font-family="Helvetica,sans-Serif" font-size="10.00">RewritePatternBase&lt; SourceOp &gt;</text>
</a>
</g>
</g>
<!-- Node5&#45;&gt;Node9 -->
<g id="edge10" class="edge">
<title>Node5&#45;&gt;Node9</title>
<path fill="none" stroke="midnightblue" d="M238,-71.68C293.08,-69.33 372.11,-65.95 432.99,-63.35"/>
<polygon fill="midnightblue" stroke="midnightblue" points="237.85,-68.18 228.01,-72.11 238.15,-75.18 237.85,-68.18"/>
</g>
<!-- Node6 -->
<g id="node6" class="node">
<title>Node6</title>
<g id="a_node6"><a xlink:href="classmlir_1_1Pattern.html" target="_top" xlink:title="This class contains all of the data related to a pattern, but does not contain any methods or logic f...">
<polygon fill="none" stroke="black" points="0,-65 0,-84 77,-84 77,-65 0,-65"/>
<text text-anchor="middle" x="38.5" y="-72" font-family="Helvetica,sans-Serif" font-size="10.00">mlir::Pattern</text>
</a>
</g>
</g>
<!-- Node6&#45;&gt;Node5 -->
<g id="edge5" class="edge">
<title>Node6&#45;&gt;Node5</title>
<path fill="none" stroke="midnightblue" d="M87.47,-74.5C96.06,-74.5 105.09,-74.5 113.89,-74.5"/>
<polygon fill="midnightblue" stroke="midnightblue" points="87.25,-71 77.25,-74.5 87.25,-78 87.25,-71"/>
</g>
<!-- Node7&#45;&gt;Node2 -->
<g id="edge6" class="edge">
<title>Node7&#45;&gt;Node2</title>
<path fill="none" stroke="orange" stroke-dasharray="5,2" d="M826.49,-104.33C876.14,-104.78 936.98,-105.33 984.92,-105.77"/>
<polygon fill="orange" stroke="orange" points="826.43,-100.83 816.4,-104.24 826.36,-107.83 826.43,-100.83"/>
<text text-anchor="middle" x="900.5" y="-108.5" font-family="Helvetica,sans-Serif" font-size="10.00"> &lt; memref::TransposeOp &gt;</text>
</g>
<!-- Node8 -->
<g id="node8" class="node">
<title>Node8</title>
<g id="a_node8"><a xlink:href="structmlir_1_1OpRewritePattern.html" target="_top" xlink:title=" ">
<polygon fill="none" stroke="black" points="998,-42.5 998,-72.5 1136,-72.5 1136,-42.5 998,-42.5"/>
<text text-anchor="start" x="1006" y="-60.5" font-family="Helvetica,sans-Serif" font-size="10.00">mlir::OpRewritePattern</text>
<text text-anchor="middle" x="1067" y="-49.5" font-family="Helvetica,sans-Serif" font-size="10.00">&lt; vector::TransposeOp &gt;</text>
</a>
</g>
</g>
<!-- Node8&#45;&gt;Node1 -->
<g id="edge8" class="edge">
<title>Node8&#45;&gt;Node1</title>
<path fill="none" stroke="midnightblue" d="M1146.31,-50.8C1159.57,-50.68 1173.16,-50.78 1185.88,-51.07"/>
<polygon fill="midnightblue" stroke="midnightblue" points="1146.2,-47.3 1136.25,-50.92 1146.29,-54.3 1146.2,-47.3"/>
</g>
<!-- Node8&#45;&gt;Node1 -->
<g id="edge13" class="edge">
<title>Node8&#45;&gt;Node1</title>
<path fill="none" stroke="midnightblue" d="M1146.31,-64.2C1159.57,-64.32 1173.16,-64.22 1185.88,-63.93"/>
<polygon fill="midnightblue" stroke="midnightblue" points="1146.29,-60.7 1136.25,-64.08 1146.2,-67.7 1146.29,-60.7"/>
</g>
<!-- Node9&#45;&gt;Node8 -->
<g id="edge9" class="edge">
<title>Node9&#45;&gt;Node8</title>
<path fill="none" stroke="midnightblue" d="M625.55,-59.13C734.06,-58.73 903.89,-58.1 997.81,-57.75"/>
<polygon fill="midnightblue" stroke="midnightblue" points="625.23,-55.63 615.25,-59.17 625.26,-62.63 625.23,-55.63"/>
</g>
<!-- Node10 -->
<g id="node10" class="node">
<title>Node10</title>
<g id="a_node10"><a xlink:href="structmlir_1_1OpRewritePattern.html" target="_top" xlink:title="OpRewritePattern is a wrapper around RewritePattern that allows for matching and rewriting against an...">
<polygon fill="none" stroke="black" points="670,-0.5 670,-30.5 798,-30.5 798,-0.5 670,-0.5"/>
<text text-anchor="start" x="678" y="-18.5" font-family="Helvetica,sans-Serif" font-size="10.00">mlir::OpRewritePattern</text>
<text text-anchor="middle" x="734" y="-7.5" font-family="Helvetica,sans-Serif" font-size="10.00">&lt; SourceOp &gt;</text>
</a>
</g>
</g>
<!-- Node9&#45;&gt;Node10 -->
<g id="edge12" class="edge">
<title>Node9&#45;&gt;Node10</title>
<path fill="none" stroke="midnightblue" d="M605.98,-42.37C627.23,-37.87 649.83,-33.09 669.98,-28.83"/>
<polygon fill="midnightblue" stroke="midnightblue" points="605.06,-38.99 596,-44.48 606.51,-45.84 605.06,-38.99"/>
</g>
<!-- Node10&#45;&gt;Node8 -->
<g id="edge11" class="edge">
<title>Node10&#45;&gt;Node8</title>
<path fill="none" stroke="orange" stroke-dasharray="5,2" d="M808.45,-18.76C854.25,-21.47 914.29,-26.26 967,-34.5 980.25,-36.57 994.36,-39.44 1007.65,-42.45"/>
<polygon fill="orange" stroke="orange" points="808.5,-15.25 798.31,-18.18 808.1,-22.24 808.5,-15.25"/>
<text text-anchor="middle" x="900.5" y="-37.5" font-family="Helvetica,sans-Serif" font-size="10.00"> &lt; vector::TransposeOp &gt;</text>
</g>
</g>
</svg>
