<?xml version="1.0" encoding="UTF-8" standalone="no"?>
<!DOCTYPE svg PUBLIC "-//W3C//DTD SVG 1.1//EN"
 "http://www.w3.org/Graphics/SVG/1.1/DTD/svg11.dtd">
<!-- Generated by graphviz version 2.43.0 (0)
 -->
<!-- Title: mlir::detail::ValueImpl Pages: 1 -->
<svg width="421pt" height="299pt"
 viewBox="0.00 0.00 420.50 299.00" xmlns="http://www.w3.org/2000/svg" xmlns:xlink="http://www.w3.org/1999/xlink">
<g id="graph0" class="graph" transform="scale(1 1) rotate(0) translate(4 295)">
<title>mlir::detail::ValueImpl</title>
<!-- Node1 -->
<g id="node1" class="node">
<title>Node1</title>
<g id="a_node1"><a xlink:title="The base class for all derived Value classes.">
<polygon fill="#bfbfbf" stroke="black" points="36,-125.5 36,-144.5 161,-144.5 161,-125.5 36,-125.5"/>
<text text-anchor="middle" x="98.5" y="-132.5" font-family="Helvetica,sans-Serif" font-size="10.00">mlir::detail::ValueImpl</text>
</a>
</g>
</g>
<!-- Node4 -->
<g id="node4" class="node">
<title>Node4</title>
<g id="a_node4"><a xlink:href="classmlir_1_1detail_1_1BlockArgumentImpl.html" target="_top" xlink:title="The internal implementation of a BlockArgument.">
<polygon fill="none" stroke="black" points="0,-68.5 0,-87.5 173,-87.5 173,-68.5 0,-68.5"/>
<text text-anchor="middle" x="86.5" y="-75.5" font-family="Helvetica,sans-Serif" font-size="10.00">mlir::detail::BlockArgumentImpl</text>
</a>
</g>
</g>
<!-- Node1&#45;&gt;Node4 -->
<g id="edge3" class="edge">
<title>Node1&#45;&gt;Node4</title>
<path fill="none" stroke="midnightblue" d="M94.45,-115.42C92.4,-106.05 90.02,-95.14 88.4,-87.71"/>
<polygon fill="midnightblue" stroke="midnightblue" points="91.07,-116.38 96.62,-125.41 97.91,-114.89 91.07,-116.38"/>
</g>
<!-- Node5 -->
<g id="node5" class="node">
<title>Node5</title>
<g id="a_node5"><a xlink:href="classmlir_1_1detail_1_1OpResultImpl.html" target="_top" xlink:title="This class provides the implementation for an operation result.">
<polygon fill="none" stroke="black" points="191.5,-68.5 191.5,-87.5 333.5,-87.5 333.5,-68.5 191.5,-68.5"/>
<text text-anchor="middle" x="262.5" y="-75.5" font-family="Helvetica,sans-Serif" font-size="10.00">mlir::detail::OpResultImpl</text>
</a>
</g>
</g>
<!-- Node1&#45;&gt;Node5 -->
<g id="edge4" class="edge">
<title>Node1&#45;&gt;Node5</title>
<path fill="none" stroke="midnightblue" d="M133.7,-122.19C164.78,-111.77 209.33,-96.83 237.05,-87.53"/>
<polygon fill="midnightblue" stroke="midnightblue" points="132.49,-118.91 124.12,-125.41 134.72,-125.54 132.49,-118.91"/>
</g>
<!-- Node2 -->
<g id="node2" class="node">
<title>Node2</title>
<g id="a_node2"><a xlink:href="classmlir_1_1IRObjectWithUseList.html" target="_top" xlink:title=" ">
<polygon fill="none" stroke="black" points="27.5,-182.5 27.5,-212.5 169.5,-212.5 169.5,-182.5 27.5,-182.5"/>
<text text-anchor="start" x="35.5" y="-200.5" font-family="Helvetica,sans-Serif" font-size="10.00">mlir::IRObjectWithUseList</text>
<text text-anchor="middle" x="98.5" y="-189.5" font-family="Helvetica,sans-Serif" font-size="10.00">&lt; OpOperand &gt;</text>
</a>
</g>
</g>
<!-- Node2&#45;&gt;Node1 -->
<g id="edge1" class="edge">
<title>Node2&#45;&gt;Node1</title>
<path fill="none" stroke="midnightblue" d="M98.5,-172.35C98.5,-162.51 98.5,-151.78 98.5,-144.54"/>
<polygon fill="midnightblue" stroke="midnightblue" points="95,-172.47 98.5,-182.47 102,-172.47 95,-172.47"/>
</g>
<!-- Node3 -->
<g id="node3" class="node">
<title>Node3</title>
<g id="a_node3"><a xlink:href="classmlir_1_1IRObjectWithUseList.html" target="_top" xlink:title="This class represents a single IR object that contains a use list.">
<polygon fill="none" stroke="black" points="27.5,-260.5 27.5,-290.5 169.5,-290.5 169.5,-260.5 27.5,-260.5"/>
<text text-anchor="start" x="35.5" y="-278.5" font-family="Helvetica,sans-Serif" font-size="10.00">mlir::IRObjectWithUseList</text>
<text text-anchor="middle" x="98.5" y="-267.5" font-family="Helvetica,sans-Serif" font-size="10.00">&lt; OperandType &gt;</text>
</a>
</g>
</g>
<!-- Node3&#45;&gt;Node2 -->
<g id="edge2" class="edge">
<title>Node3&#45;&gt;Node2</title>
<path fill="none" stroke="orange" stroke-dasharray="5,2" d="M98.5,-250.09C98.5,-237.76 98.5,-223.22 98.5,-212.73"/>
<polygon fill="orange" stroke="orange" points="95,-250.2 98.5,-260.2 102,-250.21 95,-250.2"/>
<text text-anchor="middle" x="139" y="-234" font-family="Helvetica,sans-Serif" font-size="10.00"> &lt; OpOperand &gt;</text>
</g>
<!-- Node6 -->
<g id="node6" class="node">
<title>Node6</title>
<g id="a_node6"><a xlink:href="structmlir_1_1detail_1_1InlineOpResult.html" target="_top" xlink:title="This class provides the implementation for an operation result whose index can be represented &quot;inline...">
<polygon fill="none" stroke="black" points="109,-6 109,-25 256,-25 256,-6 109,-6"/>
<text text-anchor="middle" x="182.5" y="-13" font-family="Helvetica,sans-Serif" font-size="10.00">mlir::detail::InlineOpResult</text>
</a>
</g>
</g>
<!-- Node5&#45;&gt;Node6 -->
<g id="edge5" class="edge">
<title>Node5&#45;&gt;Node6</title>
<path fill="none" stroke="midnightblue" d="M242.73,-62.05C227.38,-50.44 206.64,-34.76 193.94,-25.15"/>
<polygon fill="midnightblue" stroke="midnightblue" points="240.95,-65.09 251.04,-68.33 245.17,-59.51 240.95,-65.09"/>
</g>
<!-- Node7 -->
<g id="node7" class="node">
<title>Node7</title>
<g id="a_node7"><a xlink:href="classmlir_1_1detail_1_1OutOfLineOpResult.html" target="_top" xlink:title="This class provides the implementation for an operation result whose index cannot be represented &quot;inl...">
<polygon fill="none" stroke="black" points="274.5,-0.5 274.5,-30.5 412.5,-30.5 412.5,-0.5 274.5,-0.5"/>
<text text-anchor="start" x="282.5" y="-18.5" font-family="Helvetica,sans-Serif" font-size="10.00">mlir::detail::OutOfLineOp</text>
<text text-anchor="middle" x="343.5" y="-7.5" font-family="Helvetica,sans-Serif" font-size="10.00">Result</text>
</a>
</g>
</g>
<!-- Node5&#45;&gt;Node7 -->
<g id="edge6" class="edge">
<title>Node5&#45;&gt;Node7</title>
<path fill="none" stroke="midnightblue" d="M282.34,-62.18C295.26,-52.53 312.02,-40.01 324.72,-30.53"/>
<polygon fill="midnightblue" stroke="midnightblue" points="280.02,-59.54 274.11,-68.33 284.21,-65.15 280.02,-59.54"/>
</g>
</g>
</svg>
