<?xml version="1.0" encoding="UTF-8" standalone="no"?>
<!DOCTYPE svg PUBLIC "-//W3C//DTD SVG 1.1//EN"
 "http://www.w3.org/Graphics/SVG/1.1/DTD/svg11.dtd">
<!-- Generated by graphviz version 2.43.0 (0)
 -->
<!-- Title: include/mlir/Dialect/NVGPU/Utils Pages: 1 -->
<svg width="172pt" height="223pt"
 viewBox="0.00 0.00 172.00 223.00" xmlns="http://www.w3.org/2000/svg" xmlns:xlink="http://www.w3.org/1999/xlink">
<g id="graph0" class="graph" transform="scale(1 1) rotate(0) translate(4 219)">
<title>include/mlir/Dialect/NVGPU/Utils</title>
<g id="clust1" class="cluster">
<title>clusterdir_9d4bae939983f9814fa2cd5312959fbb</title>
<g id="a_clust1"><a xlink:href="dir_9d4bae939983f9814fa2cd5312959fbb.html" target="_top" xlink:title="NVGPU">
<polygon fill="#ddddee" stroke="black" points="47,-136 47,-207 117,-207 117,-136 47,-136"/>
<text text-anchor="middle" x="82" y="-195" font-family="Helvetica,sans-Serif" font-size="10.00">NVGPU</text>
</a>
</g>
</g>
<!-- dir_f47e052135a4fca7bbcf4c72412f93f5 -->
<g id="node1" class="node">
<title>dir_f47e052135a4fca7bbcf4c72412f93f5</title>
<g id="a_node1"><a xlink:href="dir_f47e052135a4fca7bbcf4c72412f93f5.html" target="_top" xlink:title="Utils">
<polygon fill="#eeeeff" stroke="black" points="109,-180 55,-180 55,-144 109,-144 109,-180"/>
<text text-anchor="middle" x="82" y="-159.5" font-family="Helvetica,sans-Serif" font-size="10.00">Utils</text>
</a>
</g>
</g>
<!-- dir_8363a04659a248511e559fc4df76a233 -->
<g id="node2" class="node">
<title>dir_8363a04659a248511e559fc4df76a233</title>
<g id="a_node2"><a xlink:href="dir_8363a04659a248511e559fc4df76a233.html" target="_top" xlink:title="LLVMIR">
<polygon fill="none" stroke="red" points="54,-108 0,-108 0,-72 54,-72 54,-108"/>
<text text-anchor="middle" x="27" y="-87.5" font-family="Helvetica,sans-Serif" font-size="10.00">LLVMIR</text>
</a>
</g>
</g>
<!-- dir_f47e052135a4fca7bbcf4c72412f93f5&#45;&gt;dir_8363a04659a248511e559fc4df76a233 -->
<g id="edge3" class="edge">
<title>dir_f47e052135a4fca7bbcf4c72412f93f5&#45;&gt;dir_8363a04659a248511e559fc4df76a233</title>
<path fill="none" stroke="black" d="M68.4,-143.7C61.88,-135.39 53.93,-125.28 46.75,-116.14"/>
<polygon fill="black" stroke="black" points="49.37,-113.81 40.44,-108.1 43.87,-118.13 49.37,-113.81"/>
<g id="a_edge3&#45;headlabel"><a xlink:href="dir_000237_000125.html" target="_top" xlink:title="1">
<text text-anchor="middle" x="53.82" y="-112.38" font-family="Helvetica,sans-Serif" font-size="10.00">1</text>
</a>
</g>
</g>
<!-- dir_84ef7c054b4edc3447cfba80cee80f65 -->
<g id="node3" class="node">
<title>dir_84ef7c054b4edc3447cfba80cee80f65</title>
<g id="a_node3"><a xlink:href="dir_84ef7c054b4edc3447cfba80cee80f65.html" target="_top" xlink:title="IR">
<polygon fill="none" stroke="black" points="109,-36 55,-36 55,0 109,0 109,-36"/>
<text text-anchor="middle" x="82" y="-15.5" font-family="Helvetica,sans-Serif" font-size="10.00">IR</text>
</a>
</g>
</g>
<!-- dir_f47e052135a4fca7bbcf4c72412f93f5&#45;&gt;dir_84ef7c054b4edc3447cfba80cee80f65 -->
<g id="edge4" class="edge">
<title>dir_f47e052135a4fca7bbcf4c72412f93f5&#45;&gt;dir_84ef7c054b4edc3447cfba80cee80f65</title>
<path fill="none" stroke="black" d="M82,-143.87C82,-119.67 82,-75.21 82,-46.39"/>
<polygon fill="black" stroke="black" points="85.5,-46.19 82,-36.19 78.5,-46.19 85.5,-46.19"/>
<g id="a_edge4&#45;headlabel"><a xlink:href="dir_000237_000046.html" target="_top" xlink:title="2">
<text text-anchor="middle" x="88.34" y="-47.28" font-family="Helvetica,sans-Serif" font-size="10.00">2</text>
</a>
</g>
</g>
<!-- dir_bfd3493254b3df47293537524626123b -->
<g id="node4" class="node">
<title>dir_bfd3493254b3df47293537524626123b</title>
<g id="a_node4"><a xlink:href="dir_bfd3493254b3df47293537524626123b.html" target="_top" xlink:title="Vector">
<polygon fill="none" stroke="red" points="164,-108 110,-108 110,-72 164,-72 164,-108"/>
<text text-anchor="middle" x="137" y="-87.5" font-family="Helvetica,sans-Serif" font-size="10.00">Vector</text>
</a>
</g>
</g>
<!-- dir_f47e052135a4fca7bbcf4c72412f93f5&#45;&gt;dir_bfd3493254b3df47293537524626123b -->
<g id="edge5" class="edge">
<title>dir_f47e052135a4fca7bbcf4c72412f93f5&#45;&gt;dir_bfd3493254b3df47293537524626123b</title>
<path fill="none" stroke="black" d="M95.6,-143.7C102.12,-135.39 110.07,-125.28 117.25,-116.14"/>
<polygon fill="black" stroke="black" points="120.13,-118.13 123.56,-108.1 114.63,-113.81 120.13,-118.13"/>
<g id="a_edge5&#45;headlabel"><a xlink:href="dir_000237_000151.html" target="_top" xlink:title="1">
<text text-anchor="middle" x="120.15" y="-120.21" font-family="Helvetica,sans-Serif" font-size="10.00">1</text>
</a>
</g>
</g>
<!-- dir_8363a04659a248511e559fc4df76a233&#45;&gt;dir_84ef7c054b4edc3447cfba80cee80f65 -->
<g id="edge2" class="edge">
<title>dir_8363a04659a248511e559fc4df76a233&#45;&gt;dir_84ef7c054b4edc3447cfba80cee80f65</title>
<path fill="none" stroke="black" d="M40.6,-71.7C47.12,-63.39 55.07,-53.28 62.25,-44.14"/>
<polygon fill="black" stroke="black" points="65.13,-46.13 68.56,-36.1 59.63,-41.81 65.13,-46.13"/>
<g id="a_edge2&#45;headlabel"><a xlink:href="dir_000125_000046.html" target="_top" xlink:title="22">
<text text-anchor="middle" x="65.15" y="-48.21" font-family="Helvetica,sans-Serif" font-size="10.00">22</text>
</a>
</g>
</g>
<!-- dir_bfd3493254b3df47293537524626123b&#45;&gt;dir_84ef7c054b4edc3447cfba80cee80f65 -->
<g id="edge1" class="edge">
<title>dir_bfd3493254b3df47293537524626123b&#45;&gt;dir_84ef7c054b4edc3447cfba80cee80f65</title>
<path fill="none" stroke="black" d="M123.4,-71.7C116.88,-63.39 108.93,-53.28 101.75,-44.14"/>
<polygon fill="black" stroke="black" points="104.37,-41.81 95.44,-36.1 98.87,-46.13 104.37,-41.81"/>
<g id="a_edge1&#45;headlabel"><a xlink:href="dir_000151_000046.html" target="_top" xlink:title="13">
<text text-anchor="middle" x="108.82" y="-40.38" font-family="Helvetica,sans-Serif" font-size="10.00">13</text>
</a>
</g>
</g>
</g>
</svg>
