<?xml version="1.0" encoding="UTF-8" standalone="no"?>
<!DOCTYPE svg PUBLIC "-//W3C//DTD SVG 1.1//EN"
 "http://www.w3.org/Graphics/SVG/1.1/DTD/svg11.dtd">
<!-- Generated by graphviz version 2.43.0 (0)
 -->
<!-- Title: include/mlir/Dialect/Shard/Interfaces Pages: 1 -->
<svg width="146pt" height="367pt"
 viewBox="0.00 0.00 145.59 367.00" xmlns="http://www.w3.org/2000/svg" xmlns:xlink="http://www.w3.org/1999/xlink">
<g id="graph0" class="graph" transform="scale(1 1) rotate(0) translate(4 363)">
<title>include/mlir/Dialect/Shard/Interfaces</title>
<g id="clust1" class="cluster">
<title>clusterdir_cb1a1b8070a3a3379167d0bf1fa352c5</title>
<g id="a_clust1"><a xlink:href="dir_cb1a1b8070a3a3379167d0bf1fa352c5.html" target="_top" xlink:title="Shard">
<polygon fill="#ddddee" stroke="black" points="27,-208 27,-351 109,-351 109,-208 27,-208"/>
<text text-anchor="middle" x="68" y="-339" font-family="Helvetica,sans-Serif" font-size="10.00">Shard</text>
</a>
</g>
</g>
<!-- dir_b03211178805fe656d23736d74b0fac6 -->
<g id="node1" class="node">
<title>dir_b03211178805fe656d23736d74b0fac6</title>
<g id="a_node1"><a xlink:href="dir_b03211178805fe656d23736d74b0fac6.html" target="_top" xlink:title="IR">
<polygon fill="none" stroke="black" points="92,-252 38,-252 38,-216 92,-216 92,-252"/>
<text text-anchor="middle" x="65" y="-231.5" font-family="Helvetica,sans-Serif" font-size="10.00">IR</text>
</a>
</g>
</g>
<!-- dir_84ef7c054b4edc3447cfba80cee80f65 -->
<g id="node3" class="node">
<title>dir_84ef7c054b4edc3447cfba80cee80f65</title>
<g id="a_node3"><a xlink:href="dir_84ef7c054b4edc3447cfba80cee80f65.html" target="_top" xlink:title="IR">
<polygon fill="none" stroke="black" points="109,-108 55,-108 55,-72 109,-72 109,-108"/>
<text text-anchor="middle" x="82" y="-87.5" font-family="Helvetica,sans-Serif" font-size="10.00">IR</text>
</a>
</g>
</g>
<!-- dir_b03211178805fe656d23736d74b0fac6&#45;&gt;dir_84ef7c054b4edc3447cfba80cee80f65 -->
<g id="edge1" class="edge">
<title>dir_b03211178805fe656d23736d74b0fac6&#45;&gt;dir_84ef7c054b4edc3447cfba80cee80f65</title>
<path fill="none" stroke="black" d="M67.05,-215.87C69.95,-191.67 75.27,-147.21 78.72,-118.39"/>
<polygon fill="black" stroke="black" points="82.23,-118.53 79.94,-108.19 75.28,-117.7 82.23,-118.53"/>
<g id="a_edge1&#45;headlabel"><a xlink:href="dir_000252_000046.html" target="_top" xlink:title="5">
<text text-anchor="middle" x="84.62" y="-119.94" font-family="Helvetica,sans-Serif" font-size="10.00">5</text>
</a>
</g>
</g>
<!-- dir_e4893b20171f621ff7a85b39656091a7 -->
<g id="node4" class="node">
<title>dir_e4893b20171f621ff7a85b39656091a7</title>
<g id="a_node4"><a xlink:href="dir_e4893b20171f621ff7a85b39656091a7.html" target="_top" xlink:title="Utils">
<polygon fill="none" stroke="black" points="54,-180 0,-180 0,-144 54,-144 54,-180"/>
<text text-anchor="middle" x="27" y="-159.5" font-family="Helvetica,sans-Serif" font-size="10.00">Utils</text>
</a>
</g>
</g>
<!-- dir_b03211178805fe656d23736d74b0fac6&#45;&gt;dir_e4893b20171f621ff7a85b39656091a7 -->
<g id="edge2" class="edge">
<title>dir_b03211178805fe656d23736d74b0fac6&#45;&gt;dir_e4893b20171f621ff7a85b39656091a7</title>
<path fill="none" stroke="black" d="M55.61,-215.7C51.24,-207.64 45.94,-197.89 41.1,-188.98"/>
<polygon fill="black" stroke="black" points="44.13,-187.22 36.29,-180.1 37.98,-190.56 44.13,-187.22"/>
<g id="a_edge2&#45;headlabel"><a xlink:href="dir_000252_000272.html" target="_top" xlink:title="1">
<text text-anchor="middle" x="48.34" y="-186.53" font-family="Helvetica,sans-Serif" font-size="10.00">1</text>
</a>
</g>
</g>
<!-- dir_955fe3903f74f8bfa16aa1e8a44a096a -->
<g id="node2" class="node">
<title>dir_955fe3903f74f8bfa16aa1e8a44a096a</title>
<g id="a_node2"><a xlink:href="dir_955fe3903f74f8bfa16aa1e8a44a096a.html" target="_top" xlink:title="Interfaces">
<polygon fill="#eeeeff" stroke="black" points="100.5,-324 35.5,-324 35.5,-288 100.5,-288 100.5,-324"/>
<text text-anchor="middle" x="68" y="-303.5" font-family="Helvetica,sans-Serif" font-size="10.00">Interfaces</text>
</a>
</g>
</g>
<!-- dir_955fe3903f74f8bfa16aa1e8a44a096a&#45;&gt;dir_b03211178805fe656d23736d74b0fac6 -->
<g id="edge5" class="edge">
<title>dir_955fe3903f74f8bfa16aa1e8a44a096a&#45;&gt;dir_b03211178805fe656d23736d74b0fac6</title>
<path fill="none" stroke="black" d="M67.26,-287.7C66.93,-279.98 66.53,-270.71 66.16,-262.11"/>
<polygon fill="black" stroke="black" points="69.66,-261.95 65.73,-252.1 62.66,-262.25 69.66,-261.95"/>
<g id="a_edge5&#45;headlabel"><a xlink:href="dir_000204_000252.html" target="_top" xlink:title="2">
<text text-anchor="middle" x="72.65" y="-262.92" font-family="Helvetica,sans-Serif" font-size="10.00">2</text>
</a>
</g>
</g>
<!-- dir_955fe3903f74f8bfa16aa1e8a44a096a&#45;&gt;dir_84ef7c054b4edc3447cfba80cee80f65 -->
<g id="edge4" class="edge">
<title>dir_955fe3903f74f8bfa16aa1e8a44a096a&#45;&gt;dir_84ef7c054b4edc3447cfba80cee80f65</title>
<path fill="none" stroke="black" d="M82.33,-287.57C89.45,-277.76 97.31,-264.92 101,-252 114.12,-206.09 101.51,-150.33 91.51,-117.93"/>
<polygon fill="black" stroke="black" points="94.79,-116.71 88.39,-108.28 88.13,-118.87 94.79,-116.71"/>
<g id="a_edge4&#45;headlabel"><a xlink:href="dir_000204_000046.html" target="_top" xlink:title="3">
<text text-anchor="middle" x="98.6" y="-116.76" font-family="Helvetica,sans-Serif" font-size="10.00">3</text>
</a>
</g>
</g>
<!-- dir_955fe3903f74f8bfa16aa1e8a44a096a&#45;&gt;dir_e4893b20171f621ff7a85b39656091a7 -->
<g id="edge6" class="edge">
<title>dir_955fe3903f74f8bfa16aa1e8a44a096a&#45;&gt;dir_e4893b20171f621ff7a85b39656091a7</title>
<path fill="none" stroke="black" d="M51.23,-287.95C42.86,-278.26 33.57,-265.41 29,-252 22.24,-232.16 22.08,-208.36 23.43,-190.37"/>
<polygon fill="black" stroke="black" points="26.92,-190.55 24.38,-180.26 19.96,-189.89 26.92,-190.55"/>
<g id="a_edge6&#45;headlabel"><a xlink:href="dir_000204_000272.html" target="_top" xlink:title="1">
<text text-anchor="middle" x="29.41" y="-191.89" font-family="Helvetica,sans-Serif" font-size="10.00">1</text>
</a>
</g>
</g>
<!-- dir_f61d47671007dfdb592580b61f960d39 -->
<g id="node5" class="node">
<title>dir_f61d47671007dfdb592580b61f960d39</title>
<g id="a_node5"><a xlink:href="dir_f61d47671007dfdb592580b61f960d39.html" target="_top" xlink:title="Support">
<polygon fill="none" stroke="black" points="109,-36 55,-36 55,0 109,0 109,-36"/>
<text text-anchor="middle" x="82" y="-15.5" font-family="Helvetica,sans-Serif" font-size="10.00">Support</text>
</a>
</g>
</g>
<!-- dir_955fe3903f74f8bfa16aa1e8a44a096a&#45;&gt;dir_f61d47671007dfdb592580b61f960d39 -->
<g id="edge7" class="edge">
<title>dir_955fe3903f74f8bfa16aa1e8a44a096a&#45;&gt;dir_f61d47671007dfdb592580b61f960d39</title>
<path fill="none" stroke="black" d="M90.11,-287.86C100.36,-278.5 111.47,-265.98 117,-252 146.42,-177.6 141.51,-148.47 118,-72 114.99,-62.22 109.49,-52.62 103.68,-44.33"/>
<polygon fill="black" stroke="black" points="106.41,-42.13 97.61,-36.23 100.81,-46.33 106.41,-42.13"/>
<g id="a_edge7&#45;headlabel"><a xlink:href="dir_000204_000288.html" target="_top" xlink:title="1">
<text text-anchor="middle" x="110.83" y="-40.8" font-family="Helvetica,sans-Serif" font-size="10.00">1</text>
</a>
</g>
</g>
<!-- dir_84ef7c054b4edc3447cfba80cee80f65&#45;&gt;dir_f61d47671007dfdb592580b61f960d39 -->
<g id="edge3" class="edge">
<title>dir_84ef7c054b4edc3447cfba80cee80f65&#45;&gt;dir_f61d47671007dfdb592580b61f960d39</title>
<path fill="none" stroke="black" d="M82,-71.7C82,-63.98 82,-54.71 82,-46.11"/>
<polygon fill="black" stroke="black" points="85.5,-46.1 82,-36.1 78.5,-46.1 85.5,-46.1"/>
<g id="a_edge3&#45;headlabel"><a xlink:href="dir_000046_000288.html" target="_top" xlink:title="23">
<text text-anchor="middle" x="88.34" y="-47.2" font-family="Helvetica,sans-Serif" font-size="10.00">23</text>
</a>
</g>
</g>
<!-- dir_e4893b20171f621ff7a85b39656091a7&#45;&gt;dir_84ef7c054b4edc3447cfba80cee80f65 -->
<g id="edge8" class="edge">
<title>dir_e4893b20171f621ff7a85b39656091a7&#45;&gt;dir_84ef7c054b4edc3447cfba80cee80f65</title>
<path fill="none" stroke="black" d="M40.6,-143.7C47.12,-135.39 55.07,-125.28 62.25,-116.14"/>
<polygon fill="black" stroke="black" points="65.13,-118.13 68.56,-108.1 59.63,-113.81 65.13,-118.13"/>
<g id="a_edge8&#45;headlabel"><a xlink:href="dir_000272_000046.html" target="_top" xlink:title="10">
<text text-anchor="middle" x="65.15" y="-120.21" font-family="Helvetica,sans-Serif" font-size="10.00">10</text>
</a>
</g>
</g>
<!-- dir_e4893b20171f621ff7a85b39656091a7&#45;&gt;dir_f61d47671007dfdb592580b61f960d39 -->
<g id="edge9" class="edge">
<title>dir_e4893b20171f621ff7a85b39656091a7&#45;&gt;dir_f61d47671007dfdb592580b61f960d39</title>
<path fill="none" stroke="black" d="M28.7,-143.67C30.95,-125.29 35.89,-95.69 46,-72 50.08,-62.43 55.99,-52.78 61.84,-44.39"/>
<polygon fill="black" stroke="black" points="64.78,-46.29 67.84,-36.15 59.12,-42.17 64.78,-46.29"/>
<g id="a_edge9&#45;headlabel"><a xlink:href="dir_000272_000288.html" target="_top" xlink:title="4">
<text text-anchor="middle" x="64.96" y="-48.37" font-family="Helvetica,sans-Serif" font-size="10.00">4</text>
</a>
</g>
</g>
</g>
</svg>
