<?xml version="1.0" encoding="UTF-8" standalone="no"?>
<!DOCTYPE svg PUBLIC "-//W3C//DTD SVG 1.1//EN"
 "http://www.w3.org/Graphics/SVG/1.1/DTD/svg11.dtd">
<!-- Generated by graphviz version 2.43.0 (0)
 -->
<!-- Title: include/mlir/Dialect/Vector/IR Pages: 1 -->
<svg width="256pt" height="367pt"
 viewBox="0.00 0.00 255.70 367.00" xmlns="http://www.w3.org/2000/svg" xmlns:xlink="http://www.w3.org/1999/xlink">
<g id="graph0" class="graph" transform="scale(1 1) rotate(0) translate(4 363)">
<title>include/mlir/Dialect/Vector/IR</title>
<g id="clust1" class="cluster">
<title>clusterdir_bfd3493254b3df47293537524626123b</title>
<g id="a_clust1"><a xlink:href="dir_bfd3493254b3df47293537524626123b.html" target="_top" xlink:title="Vector">
<polygon fill="#ddddee" stroke="black" points="8,-208 8,-351 90,-351 90,-208 8,-208"/>
<text text-anchor="middle" x="49" y="-339" font-family="Helvetica,sans-Serif" font-size="10.00">Vector</text>
</a>
</g>
</g>
<!-- dir_ee83b9dd739a634e8f4c82c8681e0a26 -->
<g id="node1" class="node">
<title>dir_ee83b9dd739a634e8f4c82c8681e0a26</title>
<g id="a_node1"><a xlink:href="dir_ee83b9dd739a634e8f4c82c8681e0a26.html" target="_top" xlink:title="Interfaces">
<polygon fill="none" stroke="black" points="81.5,-252 16.5,-252 16.5,-216 81.5,-216 81.5,-252"/>
<text text-anchor="middle" x="49" y="-231.5" font-family="Helvetica,sans-Serif" font-size="10.00">Interfaces</text>
</a>
</g>
</g>
<!-- dir_84ef7c054b4edc3447cfba80cee80f65 -->
<g id="node6" class="node">
<title>dir_84ef7c054b4edc3447cfba80cee80f65</title>
<g id="a_node6"><a xlink:href="dir_84ef7c054b4edc3447cfba80cee80f65.html" target="_top" xlink:title="IR">
<polygon fill="none" stroke="black" points="154,-180 100,-180 100,-144 154,-144 154,-180"/>
<text text-anchor="middle" x="127" y="-159.5" font-family="Helvetica,sans-Serif" font-size="10.00">IR</text>
</a>
</g>
</g>
<!-- dir_ee83b9dd739a634e8f4c82c8681e0a26&#45;&gt;dir_84ef7c054b4edc3447cfba80cee80f65 -->
<g id="edge17" class="edge">
<title>dir_ee83b9dd739a634e8f4c82c8681e0a26&#45;&gt;dir_84ef7c054b4edc3447cfba80cee80f65</title>
<path fill="none" stroke="black" d="M68.28,-215.7C77.92,-207.05 89.73,-196.45 100.23,-187.03"/>
<polygon fill="black" stroke="black" points="102.84,-189.39 107.94,-180.1 98.16,-184.18 102.84,-189.39"/>
<g id="a_edge17&#45;headlabel"><a xlink:href="dir_000273_000046.html" target="_top" xlink:title="4">
<text text-anchor="middle" x="102.06" y="-191.4" font-family="Helvetica,sans-Serif" font-size="10.00">4</text>
</a>
</g>
</g>
<!-- dir_c27dd260836732adecb74ef8f0bd7958 -->
<g id="node2" class="node">
<title>dir_c27dd260836732adecb74ef8f0bd7958</title>
<g id="a_node2"><a xlink:href="dir_c27dd260836732adecb74ef8f0bd7958.html" target="_top" xlink:title="IR">
<polygon fill="#eeeeff" stroke="black" points="82,-324 28,-324 28,-288 82,-288 82,-324"/>
<text text-anchor="middle" x="55" y="-303.5" font-family="Helvetica,sans-Serif" font-size="10.00">IR</text>
</a>
</g>
</g>
<!-- dir_c27dd260836732adecb74ef8f0bd7958&#45;&gt;dir_ee83b9dd739a634e8f4c82c8681e0a26 -->
<g id="edge13" class="edge">
<title>dir_c27dd260836732adecb74ef8f0bd7958&#45;&gt;dir_ee83b9dd739a634e8f4c82c8681e0a26</title>
<path fill="none" stroke="black" d="M53.52,-287.7C52.86,-279.98 52.06,-270.71 51.32,-262.11"/>
<polygon fill="black" stroke="black" points="54.81,-261.77 50.47,-252.1 47.83,-262.37 54.81,-261.77"/>
<g id="a_edge13&#45;headlabel"><a xlink:href="dir_000193_000273.html" target="_top" xlink:title="2">
<text text-anchor="middle" x="57.94" y="-262.61" font-family="Helvetica,sans-Serif" font-size="10.00">2</text>
</a>
</g>
</g>
<!-- dir_444b57698294f6a80104968315903582 -->
<g id="node3" class="node">
<title>dir_444b57698294f6a80104968315903582</title>
<g id="a_node3"><a xlink:href="dir_444b57698294f6a80104968315903582.html" target="_top" xlink:title="Analysis">
<polygon fill="none" stroke="red" points="218,-36 160,-36 160,0 218,0 218,-36"/>
<text text-anchor="middle" x="189" y="-15.5" font-family="Helvetica,sans-Serif" font-size="10.00">Analysis</text>
</a>
</g>
</g>
<!-- dir_c27dd260836732adecb74ef8f0bd7958&#45;&gt;dir_444b57698294f6a80104968315903582 -->
<g id="edge8" class="edge">
<title>dir_c27dd260836732adecb74ef8f0bd7958&#45;&gt;dir_444b57698294f6a80104968315903582</title>
<path fill="none" stroke="black" d="M82.25,-303.04C115.64,-299.11 171.52,-287.33 202,-252 254.93,-190.64 257.65,-148.53 231,-72 227.47,-61.86 221.09,-52.19 214.36,-43.96"/>
<polygon fill="black" stroke="black" points="216.83,-41.46 207.6,-36.24 211.56,-46.07 216.83,-41.46"/>
<g id="a_edge8&#45;headlabel"><a xlink:href="dir_000193_000009.html" target="_top" xlink:title="1">
<text text-anchor="middle" x="221.33" y="-39.79" font-family="Helvetica,sans-Serif" font-size="10.00">1</text>
</a>
</g>
</g>
<!-- dir_51020c1b0909ae629a35fe1c65c620b9 -->
<g id="node4" class="node">
<title>dir_51020c1b0909ae629a35fe1c65c620b9</title>
<g id="a_node4"><a xlink:href="dir_51020c1b0909ae629a35fe1c65c620b9.html" target="_top" xlink:title="Bytecode">
<polygon fill="none" stroke="black" points="100,-108 38,-108 38,-72 100,-72 100,-108"/>
<text text-anchor="middle" x="69" y="-87.5" font-family="Helvetica,sans-Serif" font-size="10.00">Bytecode</text>
</a>
</g>
</g>
<!-- dir_c27dd260836732adecb74ef8f0bd7958&#45;&gt;dir_51020c1b0909ae629a35fe1c65c620b9 -->
<g id="edge9" class="edge">
<title>dir_c27dd260836732adecb74ef8f0bd7958&#45;&gt;dir_51020c1b0909ae629a35fe1c65c620b9</title>
<path fill="none" stroke="black" d="M33.73,-287.7C23.89,-278.31 13.24,-265.8 8,-252 1.06,-233.72 3.35,-226.99 8,-208 16.28,-174.22 36.2,-139.35 51.03,-116.57"/>
<polygon fill="black" stroke="black" points="54,-118.43 56.64,-108.16 48.18,-114.54 54,-118.43"/>
<g id="a_edge9&#45;headlabel"><a xlink:href="dir_000193_000050.html" target="_top" xlink:title="1">
<text text-anchor="middle" x="54.37" y="-120.49" font-family="Helvetica,sans-Serif" font-size="10.00">1</text>
</a>
</g>
</g>
<!-- dir_687ef06ec02158f82af83f8ed0273ebe -->
<g id="node5" class="node">
<title>dir_687ef06ec02158f82af83f8ed0273ebe</title>
<g id="a_node5"><a xlink:href="dir_687ef06ec02158f82af83f8ed0273ebe.html" target="_top" xlink:title="Arith">
<polygon fill="none" stroke="red" points="154,-252 100,-252 100,-216 154,-216 154,-252"/>
<text text-anchor="middle" x="127" y="-231.5" font-family="Helvetica,sans-Serif" font-size="10.00">Arith</text>
</a>
</g>
</g>
<!-- dir_c27dd260836732adecb74ef8f0bd7958&#45;&gt;dir_687ef06ec02158f82af83f8ed0273ebe -->
<g id="edge10" class="edge">
<title>dir_c27dd260836732adecb74ef8f0bd7958&#45;&gt;dir_687ef06ec02158f82af83f8ed0273ebe</title>
<path fill="none" stroke="black" d="M72.8,-287.7C81.6,-279.14 92.38,-268.66 102,-259.3"/>
<polygon fill="black" stroke="black" points="104.68,-261.58 109.41,-252.1 99.8,-256.57 104.68,-261.58"/>
<g id="a_edge10&#45;headlabel"><a xlink:href="dir_000193_000017.html" target="_top" xlink:title="1">
<text text-anchor="middle" x="104.08" y="-263.63" font-family="Helvetica,sans-Serif" font-size="10.00">1</text>
</a>
</g>
</g>
<!-- dir_c27dd260836732adecb74ef8f0bd7958&#45;&gt;dir_84ef7c054b4edc3447cfba80cee80f65 -->
<g id="edge11" class="edge">
<title>dir_c27dd260836732adecb74ef8f0bd7958&#45;&gt;dir_84ef7c054b4edc3447cfba80cee80f65</title>
<path fill="none" stroke="black" d="M82.2,-300.08C108.03,-293.8 145.44,-280.18 163,-252 173.34,-235.4 169.47,-226.45 163,-208 160.5,-200.86 156.33,-194.01 151.7,-187.91"/>
<polygon fill="black" stroke="black" points="154.29,-185.55 145.22,-180.08 148.9,-190.01 154.29,-185.55"/>
<g id="a_edge11&#45;headlabel"><a xlink:href="dir_000193_000046.html" target="_top" xlink:title="6">
<text text-anchor="middle" x="158.77" y="-184" font-family="Helvetica,sans-Serif" font-size="10.00">6</text>
</a>
</g>
</g>
<!-- dir_cf63c3ddb21c79ef735682489f4c6a69 -->
<g id="node7" class="node">
<title>dir_cf63c3ddb21c79ef735682489f4c6a69</title>
<g id="a_node7"><a xlink:href="dir_cf63c3ddb21c79ef735682489f4c6a69.html" target="_top" xlink:title="Interfaces">
<polygon fill="none" stroke="red" points="221.5,-108 156.5,-108 156.5,-72 221.5,-72 221.5,-108"/>
<text text-anchor="middle" x="189" y="-87.5" font-family="Helvetica,sans-Serif" font-size="10.00">Interfaces</text>
</a>
</g>
</g>
<!-- dir_c27dd260836732adecb74ef8f0bd7958&#45;&gt;dir_cf63c3ddb21c79ef735682489f4c6a69 -->
<g id="edge12" class="edge">
<title>dir_c27dd260836732adecb74ef8f0bd7958&#45;&gt;dir_cf63c3ddb21c79ef735682489f4c6a69</title>
<path fill="none" stroke="black" d="M82.14,-301.82C111.62,-296.79 157.49,-284.01 180,-252 207.94,-212.26 202.14,-152.41 195.5,-117.98"/>
<polygon fill="black" stroke="black" points="198.92,-117.23 193.45,-108.16 192.06,-118.66 198.92,-117.23"/>
<g id="a_edge12&#45;headlabel"><a xlink:href="dir_000193_000279.html" target="_top" xlink:title="8">
<text text-anchor="middle" x="202.43" y="-117.67" font-family="Helvetica,sans-Serif" font-size="10.00">8</text>
</a>
</g>
</g>
<!-- dir_444b57698294f6a80104968315903582&#45;&gt;dir_84ef7c054b4edc3447cfba80cee80f65 -->
<g id="edge6" class="edge">
<title>dir_444b57698294f6a80104968315903582&#45;&gt;dir_84ef7c054b4edc3447cfba80cee80f65</title>
<path fill="none" stroke="black" d="M172.49,-36.36C164.02,-46.14 154.21,-58.98 148,-72 138.63,-91.64 133.27,-115.77 130.32,-133.95"/>
<polygon fill="black" stroke="black" points="126.85,-133.48 128.84,-143.88 133.77,-134.51 126.85,-133.48"/>
<g id="a_edge6&#45;headlabel"><a xlink:href="dir_000009_000046.html" target="_top" xlink:title="12">
<text text-anchor="middle" x="124.57" y="-127.01" font-family="Helvetica,sans-Serif" font-size="10.00">12</text>
</a>
</g>
</g>
<!-- dir_444b57698294f6a80104968315903582&#45;&gt;dir_cf63c3ddb21c79ef735682489f4c6a69 -->
<g id="edge7" class="edge">
<title>dir_444b57698294f6a80104968315903582&#45;&gt;dir_cf63c3ddb21c79ef735682489f4c6a69</title>
<path fill="none" stroke="black" d="M194.9,-36.1C195.7,-43.79 195.94,-53.05 195.6,-61.67"/>
<polygon fill="black" stroke="black" points="192.11,-61.48 194.92,-71.7 199.09,-61.96 192.11,-61.48"/>
<g id="a_edge7&#45;headlabel"><a xlink:href="dir_000009_000279.html" target="_top" xlink:title="5">
<text text-anchor="middle" x="189.52" y="-55.2" font-family="Helvetica,sans-Serif" font-size="10.00">5</text>
</a>
</g>
</g>
<!-- dir_51020c1b0909ae629a35fe1c65c620b9&#45;&gt;dir_84ef7c054b4edc3447cfba80cee80f65 -->
<g id="edge14" class="edge">
<title>dir_51020c1b0909ae629a35fe1c65c620b9&#45;&gt;dir_84ef7c054b4edc3447cfba80cee80f65</title>
<path fill="none" stroke="black" d="M89.07,-108.1C96.79,-116.38 105.37,-126.49 112.5,-135.64"/>
<polygon fill="black" stroke="black" points="109.76,-137.82 118.58,-143.7 115.35,-133.6 109.76,-137.82"/>
<g id="a_edge14&#45;headlabel"><a xlink:href="dir_000050_000046.html" target="_top" xlink:title="9">
<text text-anchor="middle" x="105.33" y="-134.16" font-family="Helvetica,sans-Serif" font-size="10.00">9</text>
</a>
</g>
</g>
<!-- dir_687ef06ec02158f82af83f8ed0273ebe&#45;&gt;dir_51020c1b0909ae629a35fe1c65c620b9 -->
<g id="edge3" class="edge">
<title>dir_687ef06ec02158f82af83f8ed0273ebe&#45;&gt;dir_51020c1b0909ae629a35fe1c65c620b9</title>
<path fill="none" stroke="black" d="M112.99,-215.78C105.52,-205.84 96.71,-192.8 91,-180 82.17,-160.19 76.5,-136.26 73.14,-118.2"/>
<polygon fill="black" stroke="black" points="76.58,-117.57 71.42,-108.32 69.69,-118.77 76.58,-117.57"/>
<g id="a_edge3&#45;headlabel"><a xlink:href="dir_000017_000050.html" target="_top" xlink:title="1">
<text text-anchor="middle" x="80" y="-118.13" font-family="Helvetica,sans-Serif" font-size="10.00">1</text>
</a>
</g>
</g>
<!-- dir_687ef06ec02158f82af83f8ed0273ebe&#45;&gt;dir_84ef7c054b4edc3447cfba80cee80f65 -->
<g id="edge4" class="edge">
<title>dir_687ef06ec02158f82af83f8ed0273ebe&#45;&gt;dir_84ef7c054b4edc3447cfba80cee80f65</title>
<path fill="none" stroke="black" d="M127,-215.7C127,-207.98 127,-198.71 127,-190.11"/>
<polygon fill="black" stroke="black" points="130.5,-190.1 127,-180.1 123.5,-190.1 130.5,-190.1"/>
<g id="a_edge4&#45;headlabel"><a xlink:href="dir_000017_000046.html" target="_top" xlink:title="6">
<text text-anchor="middle" x="133.34" y="-191.2" font-family="Helvetica,sans-Serif" font-size="10.00">6</text>
</a>
</g>
</g>
<!-- dir_687ef06ec02158f82af83f8ed0273ebe&#45;&gt;dir_cf63c3ddb21c79ef735682489f4c6a69 -->
<g id="edge5" class="edge">
<title>dir_687ef06ec02158f82af83f8ed0273ebe&#45;&gt;dir_cf63c3ddb21c79ef735682489f4c6a69</title>
<path fill="none" stroke="black" d="M140.8,-215.69C148.21,-205.72 157.02,-192.68 163,-180 172.35,-160.16 179.11,-136.23 183.39,-118.18"/>
<polygon fill="black" stroke="black" points="186.83,-118.83 185.63,-108.31 180.01,-117.29 186.83,-118.83"/>
<g id="a_edge5&#45;headlabel"><a xlink:href="dir_000017_000279.html" target="_top" xlink:title="7">
<text text-anchor="middle" x="188.81" y="-120.46" font-family="Helvetica,sans-Serif" font-size="10.00">7</text>
</a>
</g>
</g>
<!-- dir_84ef7c054b4edc3447cfba80cee80f65&#45;&gt;dir_51020c1b0909ae629a35fe1c65c620b9 -->
<g id="edge1" class="edge">
<title>dir_84ef7c054b4edc3447cfba80cee80f65&#45;&gt;dir_51020c1b0909ae629a35fe1c65c620b9</title>
<path fill="none" stroke="black" d="M106.75,-143.7C99.01,-135.39 90.43,-125.28 83.32,-116.14"/>
<polygon fill="black" stroke="black" points="86.09,-113.99 77.28,-108.1 80.49,-118.2 86.09,-113.99"/>
<g id="a_edge1&#45;headlabel"><a xlink:href="dir_000046_000050.html" target="_top" xlink:title="2">
<text text-anchor="middle" x="90.52" y="-112.66" font-family="Helvetica,sans-Serif" font-size="10.00">2</text>
</a>
</g>
</g>
<!-- dir_84ef7c054b4edc3447cfba80cee80f65&#45;&gt;dir_cf63c3ddb21c79ef735682489f4c6a69 -->
<g id="edge2" class="edge">
<title>dir_84ef7c054b4edc3447cfba80cee80f65&#45;&gt;dir_cf63c3ddb21c79ef735682489f4c6a69</title>
<path fill="none" stroke="black" d="M136.41,-143.7C143.11,-135.14 152.21,-124.66 161.01,-115.3"/>
<polygon fill="black" stroke="black" points="163.53,-117.73 167.96,-108.1 158.49,-112.87 163.53,-117.73"/>
<g id="a_edge2&#45;headlabel"><a xlink:href="dir_000046_000279.html" target="_top" xlink:title="3">
<text text-anchor="middle" x="163.08" y="-119.79" font-family="Helvetica,sans-Serif" font-size="10.00">3</text>
</a>
</g>
</g>
<!-- dir_cf63c3ddb21c79ef735682489f4c6a69&#45;&gt;dir_444b57698294f6a80104968315903582 -->
<g id="edge15" class="edge">
<title>dir_cf63c3ddb21c79ef735682489f4c6a69&#45;&gt;dir_444b57698294f6a80104968315903582</title>
<path fill="none" stroke="black" d="M183.08,-71.7C182.29,-63.98 182.06,-54.71 182.4,-46.11"/>
<polygon fill="black" stroke="black" points="185.9,-46.32 183.1,-36.1 178.92,-45.84 185.9,-46.32"/>
<g id="a_edge15&#45;headlabel"><a xlink:href="dir_000279_000009.html" target="_top" xlink:title="1">
<text text-anchor="middle" x="188.48" y="-47.61" font-family="Helvetica,sans-Serif" font-size="10.00">1</text>
</a>
</g>
</g>
<!-- dir_cf63c3ddb21c79ef735682489f4c6a69&#45;&gt;dir_84ef7c054b4edc3447cfba80cee80f65 -->
<g id="edge16" class="edge">
<title>dir_cf63c3ddb21c79ef735682489f4c6a69&#45;&gt;dir_84ef7c054b4edc3447cfba80cee80f65</title>
<path fill="none" stroke="black" d="M179.75,-108.1C173.08,-116.64 164,-127.11 155.19,-136.48"/>
<polygon fill="black" stroke="black" points="152.66,-134.07 148.24,-143.7 157.7,-138.92 152.66,-134.07"/>
<g id="a_edge16&#45;headlabel"><a xlink:href="dir_000279_000046.html" target="_top" xlink:title="54">
<text text-anchor="middle" x="153.11" y="-127.01" font-family="Helvetica,sans-Serif" font-size="10.00">54</text>
</a>
</g>
</g>
</g>
</svg>
