<?xml version="1.0" encoding="UTF-8" standalone="no"?>
<!DOCTYPE svg PUBLIC "-//W3C//DTD SVG 1.1//EN"
 "http://www.w3.org/Graphics/SVG/1.1/DTD/svg11.dtd">
<!-- Generated by graphviz version 2.43.0 (0)
 -->
<!-- Title: include/mlir/Conversion/LLVMCommon Pages: 1 -->
<svg width="149pt" height="295pt"
 viewBox="0.00 0.00 149.00 295.00" xmlns="http://www.w3.org/2000/svg" xmlns:xlink="http://www.w3.org/1999/xlink">
<g id="graph0" class="graph" transform="scale(1 1) rotate(0) translate(4 291)">
<title>include/mlir/Conversion/LLVMCommon</title>
<g id="clust1" class="cluster">
<title>clusterdir_37f3372f1e76d74ffd54613af9306e43</title>
<g id="a_clust1"><a xlink:href="dir_37f3372f1e76d74ffd54613af9306e43.html" target="_top" xlink:title="Conversion">
<polygon fill="#ddddee" stroke="black" points="8,-208 8,-279 110,-279 110,-208 8,-208"/>
<text text-anchor="middle" x="59" y="-267" font-family="Helvetica,sans-Serif" font-size="10.00">Conversion</text>
</a>
</g>
</g>
<!-- dir_020daa9eedd35e87ea47a7580500cbc6 -->
<g id="node1" class="node">
<title>dir_020daa9eedd35e87ea47a7580500cbc6</title>
<g id="a_node1"><a xlink:href="dir_020daa9eedd35e87ea47a7580500cbc6.html" target="_top" xlink:title="LLVMCommon">
<polygon fill="#eeeeff" stroke="black" points="102,-252 16,-252 16,-216 102,-216 102,-252"/>
<text text-anchor="middle" x="59" y="-231.5" font-family="Helvetica,sans-Serif" font-size="10.00">LLVMCommon</text>
</a>
</g>
</g>
<!-- dir_84ef7c054b4edc3447cfba80cee80f65 -->
<g id="node2" class="node">
<title>dir_84ef7c054b4edc3447cfba80cee80f65</title>
<g id="a_node2"><a xlink:href="dir_84ef7c054b4edc3447cfba80cee80f65.html" target="_top" xlink:title="IR">
<polygon fill="none" stroke="black" points="99,-36 45,-36 45,0 99,0 99,-36"/>
<text text-anchor="middle" x="72" y="-15.5" font-family="Helvetica,sans-Serif" font-size="10.00">IR</text>
</a>
</g>
</g>
<!-- dir_020daa9eedd35e87ea47a7580500cbc6&#45;&gt;dir_84ef7c054b4edc3447cfba80cee80f65 -->
<g id="edge2" class="edge">
<title>dir_020daa9eedd35e87ea47a7580500cbc6&#45;&gt;dir_84ef7c054b4edc3447cfba80cee80f65</title>
<path fill="none" stroke="black" d="M49.75,-215.61C35.07,-185.57 9.83,-122.33 28,-72 31.75,-61.6 38.54,-51.8 45.67,-43.52"/>
<polygon fill="black" stroke="black" points="48.32,-45.81 52.53,-36.08 43.17,-41.06 48.32,-45.81"/>
<g id="a_edge2&#45;headlabel"><a xlink:href="dir_000093_000046.html" target="_top" xlink:title="4">
<text text-anchor="middle" x="47.97" y="-47.87" font-family="Helvetica,sans-Serif" font-size="10.00">4</text>
</a>
</g>
</g>
<!-- dir_ca4d1f3bc4cd42ba07a57ca86d19a1d6 -->
<g id="node3" class="node">
<title>dir_ca4d1f3bc4cd42ba07a57ca86d19a1d6</title>
<g id="a_node3"><a xlink:href="dir_ca4d1f3bc4cd42ba07a57ca86d19a1d6.html" target="_top" xlink:title="Transforms">
<polygon fill="none" stroke="black" points="107.5,-108 36.5,-108 36.5,-72 107.5,-72 107.5,-108"/>
<text text-anchor="middle" x="72" y="-87.5" font-family="Helvetica,sans-Serif" font-size="10.00">Transforms</text>
</a>
</g>
</g>
<!-- dir_020daa9eedd35e87ea47a7580500cbc6&#45;&gt;dir_ca4d1f3bc4cd42ba07a57ca86d19a1d6 -->
<g id="edge3" class="edge">
<title>dir_020daa9eedd35e87ea47a7580500cbc6&#45;&gt;dir_ca4d1f3bc4cd42ba07a57ca86d19a1d6</title>
<path fill="none" stroke="black" d="M60.57,-215.87C62.78,-191.67 66.85,-147.21 69.49,-118.39"/>
<polygon fill="black" stroke="black" points="73,-118.47 70.43,-108.19 66.03,-117.83 73,-118.47"/>
<g id="a_edge3&#45;headlabel"><a xlink:href="dir_000093_000156.html" target="_top" xlink:title="4">
<text text-anchor="middle" x="75.5" y="-119.81" font-family="Helvetica,sans-Serif" font-size="10.00">4</text>
</a>
</g>
</g>
<!-- dir_d07a6fac82475a065a3b2953573f00a0 -->
<g id="node4" class="node">
<title>dir_d07a6fac82475a065a3b2953573f00a0</title>
<g id="a_node4"><a xlink:href="dir_d07a6fac82475a065a3b2953573f00a0.html" target="_top" xlink:title="Dialect">
<polygon fill="none" stroke="red" points="141,-180 87,-180 87,-144 141,-144 141,-180"/>
<text text-anchor="middle" x="114" y="-159.5" font-family="Helvetica,sans-Serif" font-size="10.00">Dialect</text>
</a>
</g>
</g>
<!-- dir_020daa9eedd35e87ea47a7580500cbc6&#45;&gt;dir_d07a6fac82475a065a3b2953573f00a0 -->
<g id="edge4" class="edge">
<title>dir_020daa9eedd35e87ea47a7580500cbc6&#45;&gt;dir_d07a6fac82475a065a3b2953573f00a0</title>
<path fill="none" stroke="black" d="M72.6,-215.7C79.12,-207.39 87.07,-197.28 94.25,-188.14"/>
<polygon fill="black" stroke="black" points="97.13,-190.13 100.56,-180.1 91.63,-185.81 97.13,-190.13"/>
<g id="a_edge4&#45;headlabel"><a xlink:href="dir_000093_000014.html" target="_top" xlink:title="2">
<text text-anchor="middle" x="97.15" y="-192.21" font-family="Helvetica,sans-Serif" font-size="10.00">2</text>
</a>
</g>
</g>
<!-- dir_ca4d1f3bc4cd42ba07a57ca86d19a1d6&#45;&gt;dir_84ef7c054b4edc3447cfba80cee80f65 -->
<g id="edge1" class="edge">
<title>dir_ca4d1f3bc4cd42ba07a57ca86d19a1d6&#45;&gt;dir_84ef7c054b4edc3447cfba80cee80f65</title>
<path fill="none" stroke="black" d="M72,-71.7C72,-63.98 72,-54.71 72,-46.11"/>
<polygon fill="black" stroke="black" points="75.5,-46.1 72,-36.1 68.5,-46.1 75.5,-46.1"/>
<g id="a_edge1&#45;headlabel"><a xlink:href="dir_000156_000046.html" target="_top" xlink:title="19">
<text text-anchor="middle" x="78.34" y="-47.2" font-family="Helvetica,sans-Serif" font-size="10.00">19</text>
</a>
</g>
</g>
<!-- dir_d07a6fac82475a065a3b2953573f00a0&#45;&gt;dir_84ef7c054b4edc3447cfba80cee80f65 -->
<g id="edge5" class="edge">
<title>dir_d07a6fac82475a065a3b2953573f00a0&#45;&gt;dir_84ef7c054b4edc3447cfba80cee80f65</title>
<path fill="none" stroke="black" d="M118.27,-144C122.05,-125.63 125.74,-95.8 117,-72 113.22,-61.7 106.44,-52.02 99.28,-43.84"/>
<polygon fill="black" stroke="black" points="101.77,-41.38 92.38,-36.47 96.66,-46.16 101.77,-41.38"/>
<g id="a_edge5&#45;headlabel"><a xlink:href="dir_000014_000046.html" target="_top" xlink:title="382">
<text text-anchor="middle" x="106.3" y="-39.56" font-family="Helvetica,sans-Serif" font-size="10.00">382</text>
</a>
</g>
</g>
<!-- dir_d07a6fac82475a065a3b2953573f00a0&#45;&gt;dir_ca4d1f3bc4cd42ba07a57ca86d19a1d6 -->
<g id="edge6" class="edge">
<title>dir_d07a6fac82475a065a3b2953573f00a0&#45;&gt;dir_ca4d1f3bc4cd42ba07a57ca86d19a1d6</title>
<path fill="none" stroke="black" d="M103.62,-143.7C98.74,-135.56 92.81,-125.69 87.42,-116.7"/>
<polygon fill="black" stroke="black" points="90.41,-114.88 82.26,-108.1 84.41,-118.48 90.41,-114.88"/>
<g id="a_edge6&#45;headlabel"><a xlink:href="dir_000014_000156.html" target="_top" xlink:title="12">
<text text-anchor="middle" x="94.69" y="-114" font-family="Helvetica,sans-Serif" font-size="10.00">12</text>
</a>
</g>
</g>
</g>
</svg>
