<?xml version="1.0" encoding="UTF-8" standalone="no"?>
<!DOCTYPE svg PUBLIC "-//W3C//DTD SVG 1.1//EN"
 "http://www.w3.org/Graphics/SVG/1.1/DTD/svg11.dtd">
<!-- Generated by graphviz version 2.43.0 (0)
 -->
<!-- Title: include/mlir/Dialect/Transform/PDLExtension Pages: 1 -->
<svg width="193pt" height="367pt"
 viewBox="0.00 0.00 193.36 367.00" xmlns="http://www.w3.org/2000/svg" xmlns:xlink="http://www.w3.org/1999/xlink">
<g id="graph0" class="graph" transform="scale(1 1) rotate(0) translate(4 363)">
<title>include/mlir/Dialect/Transform/PDLExtension</title>
<g id="clust1" class="cluster">
<title>clusterdir_832fe9af74a05d9f4772b8e442bafd02</title>
<g id="a_clust1"><a xlink:href="dir_832fe9af74a05d9f4772b8e442bafd02.html" target="_top" xlink:title="Transform">
<polygon fill="#ddddee" stroke="black" points="57,-136 57,-351 157,-351 157,-136 57,-136"/>
<text text-anchor="middle" x="107" y="-339" font-family="Helvetica,sans-Serif" font-size="10.00">Transform</text>
</a>
</g>
</g>
<!-- dir_3fcea5679c56f279a8c81b2ba929f91c -->
<g id="node1" class="node">
<title>dir_3fcea5679c56f279a8c81b2ba929f91c</title>
<g id="a_node1"><a xlink:href="dir_3fcea5679c56f279a8c81b2ba929f91c.html" target="_top" xlink:title="Interfaces">
<polygon fill="none" stroke="black" points="148.5,-180 83.5,-180 83.5,-144 148.5,-144 148.5,-180"/>
<text text-anchor="middle" x="116" y="-159.5" font-family="Helvetica,sans-Serif" font-size="10.00">Interfaces</text>
</a>
</g>
</g>
<!-- dir_84ef7c054b4edc3447cfba80cee80f65 -->
<g id="node5" class="node">
<title>dir_84ef7c054b4edc3447cfba80cee80f65</title>
<g id="a_node5"><a xlink:href="dir_84ef7c054b4edc3447cfba80cee80f65.html" target="_top" xlink:title="IR">
<polygon fill="none" stroke="black" points="99,-108 45,-108 45,-72 99,-72 99,-108"/>
<text text-anchor="middle" x="72" y="-87.5" font-family="Helvetica,sans-Serif" font-size="10.00">IR</text>
</a>
</g>
</g>
<!-- dir_3fcea5679c56f279a8c81b2ba929f91c&#45;&gt;dir_84ef7c054b4edc3447cfba80cee80f65 -->
<g id="edge14" class="edge">
<title>dir_3fcea5679c56f279a8c81b2ba929f91c&#45;&gt;dir_84ef7c054b4edc3447cfba80cee80f65</title>
<path fill="none" stroke="black" d="M105.12,-143.7C100.01,-135.56 93.8,-125.69 88.16,-116.7"/>
<polygon fill="black" stroke="black" points="91.04,-114.71 82.75,-108.1 85.11,-118.43 91.04,-114.71"/>
<g id="a_edge14&#45;headlabel"><a xlink:href="dir_000265_000046.html" target="_top" xlink:title="3">
<text text-anchor="middle" x="95.35" y="-113.74" font-family="Helvetica,sans-Serif" font-size="10.00">3</text>
</a>
</g>
</g>
<!-- dir_cf63c3ddb21c79ef735682489f4c6a69 -->
<g id="node6" class="node">
<title>dir_cf63c3ddb21c79ef735682489f4c6a69</title>
<g id="a_node6"><a xlink:href="dir_cf63c3ddb21c79ef735682489f4c6a69.html" target="_top" xlink:title="Interfaces">
<polygon fill="none" stroke="red" points="159.5,-36 94.5,-36 94.5,0 159.5,0 159.5,-36"/>
<text text-anchor="middle" x="127" y="-15.5" font-family="Helvetica,sans-Serif" font-size="10.00">Interfaces</text>
</a>
</g>
</g>
<!-- dir_3fcea5679c56f279a8c81b2ba929f91c&#45;&gt;dir_cf63c3ddb21c79ef735682489f4c6a69 -->
<g id="edge15" class="edge">
<title>dir_3fcea5679c56f279a8c81b2ba929f91c&#45;&gt;dir_cf63c3ddb21c79ef735682489f4c6a69</title>
<path fill="none" stroke="black" d="M117.33,-143.87C119.2,-119.67 122.65,-75.21 124.88,-46.39"/>
<polygon fill="black" stroke="black" points="128.39,-46.43 125.67,-36.19 121.41,-45.89 128.39,-46.43"/>
<g id="a_edge15&#45;headlabel"><a xlink:href="dir_000265_000279.html" target="_top" xlink:title="1">
<text text-anchor="middle" x="130.94" y="-47.73" font-family="Helvetica,sans-Serif" font-size="10.00">1</text>
</a>
</g>
</g>
<!-- dir_ea43e1e7e14805f092bc6e97f7b8cf52 -->
<g id="node2" class="node">
<title>dir_ea43e1e7e14805f092bc6e97f7b8cf52</title>
<g id="a_node2"><a xlink:href="dir_ea43e1e7e14805f092bc6e97f7b8cf52.html" target="_top" xlink:title="IR">
<polygon fill="none" stroke="black" points="119,-252 65,-252 65,-216 119,-216 119,-252"/>
<text text-anchor="middle" x="92" y="-231.5" font-family="Helvetica,sans-Serif" font-size="10.00">IR</text>
</a>
</g>
</g>
<!-- dir_ea43e1e7e14805f092bc6e97f7b8cf52&#45;&gt;dir_3fcea5679c56f279a8c81b2ba929f91c -->
<g id="edge10" class="edge">
<title>dir_ea43e1e7e14805f092bc6e97f7b8cf52&#45;&gt;dir_3fcea5679c56f279a8c81b2ba929f91c</title>
<path fill="none" stroke="black" d="M97.93,-215.7C100.61,-207.9 103.83,-198.51 106.8,-189.83"/>
<polygon fill="black" stroke="black" points="110.2,-190.7 110.14,-180.1 103.58,-188.43 110.2,-190.7"/>
<g id="a_edge10&#45;headlabel"><a xlink:href="dir_000034_000265.html" target="_top" xlink:title="3">
<text text-anchor="middle" x="111.72" y="-192.52" font-family="Helvetica,sans-Serif" font-size="10.00">3</text>
</a>
</g>
</g>
<!-- dir_51020c1b0909ae629a35fe1c65c620b9 -->
<g id="node4" class="node">
<title>dir_51020c1b0909ae629a35fe1c65c620b9</title>
<g id="a_node4"><a xlink:href="dir_51020c1b0909ae629a35fe1c65c620b9.html" target="_top" xlink:title="Bytecode">
<polygon fill="none" stroke="black" points="62,-36 0,-36 0,0 62,0 62,-36"/>
<text text-anchor="middle" x="31" y="-15.5" font-family="Helvetica,sans-Serif" font-size="10.00">Bytecode</text>
</a>
</g>
</g>
<!-- dir_ea43e1e7e14805f092bc6e97f7b8cf52&#45;&gt;dir_51020c1b0909ae629a35fe1c65c620b9 -->
<g id="edge11" class="edge">
<title>dir_ea43e1e7e14805f092bc6e97f7b8cf52&#45;&gt;dir_51020c1b0909ae629a35fe1c65c620b9</title>
<path fill="none" stroke="black" d="M83.74,-215.88C78.8,-205.54 72.44,-192.06 67,-180 52.68,-148.24 43.99,-141.91 36,-108 31.24,-87.79 30.1,-64.32 30.08,-46.56"/>
<polygon fill="black" stroke="black" points="33.59,-46.36 30.2,-36.32 26.59,-46.28 33.59,-46.36"/>
<g id="a_edge11&#45;headlabel"><a xlink:href="dir_000034_000050.html" target="_top" xlink:title="1">
<text text-anchor="middle" x="36.39" y="-47.48" font-family="Helvetica,sans-Serif" font-size="10.00">1</text>
</a>
</g>
</g>
<!-- dir_ea43e1e7e14805f092bc6e97f7b8cf52&#45;&gt;dir_84ef7c054b4edc3447cfba80cee80f65 -->
<g id="edge12" class="edge">
<title>dir_ea43e1e7e14805f092bc6e97f7b8cf52&#45;&gt;dir_84ef7c054b4edc3447cfba80cee80f65</title>
<path fill="none" stroke="black" d="M85.09,-215.64C81.37,-205.44 77.12,-192.19 75,-180 71.45,-159.57 70.8,-136.11 70.98,-118.4"/>
<polygon fill="black" stroke="black" points="74.48,-118.27 71.18,-108.21 67.48,-118.13 74.48,-118.27"/>
<g id="a_edge12&#45;headlabel"><a xlink:href="dir_000034_000046.html" target="_top" xlink:title="9">
<text text-anchor="middle" x="77.25" y="-119.42" font-family="Helvetica,sans-Serif" font-size="10.00">9</text>
</a>
</g>
</g>
<!-- dir_ea43e1e7e14805f092bc6e97f7b8cf52&#45;&gt;dir_cf63c3ddb21c79ef735682489f4c6a69 -->
<g id="edge13" class="edge">
<title>dir_ea43e1e7e14805f092bc6e97f7b8cf52&#45;&gt;dir_cf63c3ddb21c79ef735682489f4c6a69</title>
<path fill="none" stroke="black" d="M119.24,-219.01C133.62,-210 149.93,-196.83 158,-180 179.17,-135.85 157.89,-78.34 141.65,-45.36"/>
<polygon fill="black" stroke="black" points="144.71,-43.65 137.04,-36.34 138.48,-46.84 144.71,-43.65"/>
<g id="a_edge13&#45;headlabel"><a xlink:href="dir_000034_000279.html" target="_top" xlink:title="5">
<text text-anchor="middle" x="148.88" y="-43.05" font-family="Helvetica,sans-Serif" font-size="10.00">5</text>
</a>
</g>
</g>
<!-- dir_69b4b1db9d39c0eea2da7b8cc7876315 -->
<g id="node3" class="node">
<title>dir_69b4b1db9d39c0eea2da7b8cc7876315</title>
<g id="a_node3"><a xlink:href="dir_69b4b1db9d39c0eea2da7b8cc7876315.html" target="_top" xlink:title="PDLExtension">
<polygon fill="#eeeeff" stroke="black" points="148.5,-324 65.5,-324 65.5,-288 148.5,-288 148.5,-324"/>
<text text-anchor="middle" x="107" y="-303.5" font-family="Helvetica,sans-Serif" font-size="10.00">PDLExtension</text>
</a>
</g>
</g>
<!-- dir_69b4b1db9d39c0eea2da7b8cc7876315&#45;&gt;dir_3fcea5679c56f279a8c81b2ba929f91c -->
<g id="edge1" class="edge">
<title>dir_69b4b1db9d39c0eea2da7b8cc7876315&#45;&gt;dir_3fcea5679c56f279a8c81b2ba929f91c</title>
<path fill="none" stroke="black" d="M115.72,-287.83C120.37,-277.69 125.62,-264.44 128,-252 131.96,-231.26 128.37,-207.56 124.11,-189.83"/>
<polygon fill="black" stroke="black" points="127.5,-188.94 121.58,-180.15 120.73,-190.71 127.5,-188.94"/>
<g id="a_edge1&#45;headlabel"><a xlink:href="dir_000268_000265.html" target="_top" xlink:title="1">
<text text-anchor="middle" x="131.16" y="-189.2" font-family="Helvetica,sans-Serif" font-size="10.00">1</text>
</a>
</g>
</g>
<!-- dir_69b4b1db9d39c0eea2da7b8cc7876315&#45;&gt;dir_ea43e1e7e14805f092bc6e97f7b8cf52 -->
<g id="edge5" class="edge">
<title>dir_69b4b1db9d39c0eea2da7b8cc7876315&#45;&gt;dir_ea43e1e7e14805f092bc6e97f7b8cf52</title>
<path fill="none" stroke="black" d="M103.29,-287.7C101.64,-279.98 99.65,-270.71 97.81,-262.11"/>
<polygon fill="black" stroke="black" points="101.18,-261.15 95.67,-252.1 94.34,-262.62 101.18,-261.15"/>
<g id="a_edge5&#45;headlabel"><a xlink:href="dir_000268_000034.html" target="_top" xlink:title="1">
<text text-anchor="middle" x="104.71" y="-261.57" font-family="Helvetica,sans-Serif" font-size="10.00">1</text>
</a>
</g>
</g>
<!-- dir_69b4b1db9d39c0eea2da7b8cc7876315&#45;&gt;dir_51020c1b0909ae629a35fe1c65c620b9 -->
<g id="edge2" class="edge">
<title>dir_69b4b1db9d39c0eea2da7b8cc7876315&#45;&gt;dir_51020c1b0909ae629a35fe1c65c620b9</title>
<path fill="none" stroke="black" d="M78.14,-287.88C65.54,-278.84 51.87,-266.59 44,-252 8.05,-185.31 17.68,-91.72 25.49,-46.12"/>
<polygon fill="black" stroke="black" points="28.96,-46.58 27.31,-36.11 22.08,-45.33 28.96,-46.58"/>
<g id="a_edge2&#45;headlabel"><a xlink:href="dir_000268_000050.html" target="_top" xlink:title="1">
<text text-anchor="middle" x="31.11" y="-48.12" font-family="Helvetica,sans-Serif" font-size="10.00">1</text>
</a>
</g>
</g>
<!-- dir_69b4b1db9d39c0eea2da7b8cc7876315&#45;&gt;dir_84ef7c054b4edc3447cfba80cee80f65 -->
<g id="edge3" class="edge">
<title>dir_69b4b1db9d39c0eea2da7b8cc7876315&#45;&gt;dir_84ef7c054b4edc3447cfba80cee80f65</title>
<path fill="none" stroke="black" d="M83.7,-287.82C73.1,-278.54 61.68,-266.09 56,-252 38.09,-207.57 51.15,-150.88 61.86,-117.99"/>
<polygon fill="black" stroke="black" points="65.28,-118.79 65.21,-108.19 58.66,-116.52 65.28,-118.79"/>
<g id="a_edge3&#45;headlabel"><a xlink:href="dir_000268_000046.html" target="_top" xlink:title="3">
<text text-anchor="middle" x="66.8" y="-120.61" font-family="Helvetica,sans-Serif" font-size="10.00">3</text>
</a>
</g>
</g>
<!-- dir_69b4b1db9d39c0eea2da7b8cc7876315&#45;&gt;dir_cf63c3ddb21c79ef735682489f4c6a69 -->
<g id="edge4" class="edge">
<title>dir_69b4b1db9d39c0eea2da7b8cc7876315&#45;&gt;dir_cf63c3ddb21c79ef735682489f4c6a69</title>
<path fill="none" stroke="black" d="M120.1,-287.99C136.91,-265 165.18,-222.01 176,-180 187.99,-133.49 189.96,-116.55 172,-72 167.83,-61.65 160.8,-51.86 153.52,-43.58"/>
<polygon fill="black" stroke="black" points="155.94,-41.05 146.56,-36.14 150.83,-45.83 155.94,-41.05"/>
<g id="a_edge4&#45;headlabel"><a xlink:href="dir_000268_000279.html" target="_top" xlink:title="1">
<text text-anchor="middle" x="160.47" y="-39.23" font-family="Helvetica,sans-Serif" font-size="10.00">1</text>
</a>
</g>
</g>
<!-- dir_51020c1b0909ae629a35fe1c65c620b9&#45;&gt;dir_84ef7c054b4edc3447cfba80cee80f65 -->
<g id="edge8" class="edge">
<title>dir_51020c1b0909ae629a35fe1c65c620b9&#45;&gt;dir_84ef7c054b4edc3447cfba80cee80f65</title>
<path fill="none" stroke="black" d="M46.91,-36.1C52.45,-44.13 58.38,-53.87 63.21,-62.8"/>
<polygon fill="black" stroke="black" points="60.1,-64.4 67.78,-71.7 66.32,-61.2 60.1,-64.4"/>
<g id="a_edge8&#45;headlabel"><a xlink:href="dir_000050_000046.html" target="_top" xlink:title="9">
<text text-anchor="middle" x="55.93" y="-60" font-family="Helvetica,sans-Serif" font-size="10.00">9</text>
</a>
</g>
</g>
<!-- dir_84ef7c054b4edc3447cfba80cee80f65&#45;&gt;dir_51020c1b0909ae629a35fe1c65c620b9 -->
<g id="edge6" class="edge">
<title>dir_84ef7c054b4edc3447cfba80cee80f65&#45;&gt;dir_51020c1b0909ae629a35fe1c65c620b9</title>
<path fill="none" stroke="black" d="M55.95,-71.7C50.46,-63.73 44.61,-54.1 39.82,-45.26"/>
<polygon fill="black" stroke="black" points="42.8,-43.4 35.12,-36.1 36.57,-46.6 42.8,-43.4"/>
<g id="a_edge6&#45;headlabel"><a xlink:href="dir_000046_000050.html" target="_top" xlink:title="2">
<text text-anchor="middle" x="46.97" y="-42.81" font-family="Helvetica,sans-Serif" font-size="10.00">2</text>
</a>
</g>
</g>
<!-- dir_84ef7c054b4edc3447cfba80cee80f65&#45;&gt;dir_cf63c3ddb21c79ef735682489f4c6a69 -->
<g id="edge7" class="edge">
<title>dir_84ef7c054b4edc3447cfba80cee80f65&#45;&gt;dir_cf63c3ddb21c79ef735682489f4c6a69</title>
<path fill="none" stroke="black" d="M79.68,-71.7C85.41,-63.3 93.26,-53.07 100.97,-43.86"/>
<polygon fill="black" stroke="black" points="103.78,-45.96 107.67,-36.1 98.48,-41.39 103.78,-45.96"/>
<g id="a_edge7&#45;headlabel"><a xlink:href="dir_000046_000279.html" target="_top" xlink:title="3">
<text text-anchor="middle" x="103.59" y="-48.04" font-family="Helvetica,sans-Serif" font-size="10.00">3</text>
</a>
</g>
</g>
<!-- dir_cf63c3ddb21c79ef735682489f4c6a69&#45;&gt;dir_84ef7c054b4edc3447cfba80cee80f65 -->
<g id="edge9" class="edge">
<title>dir_cf63c3ddb21c79ef735682489f4c6a69&#45;&gt;dir_84ef7c054b4edc3447cfba80cee80f65</title>
<path fill="none" stroke="black" d="M119.46,-36.1C113.76,-44.47 105.93,-54.69 98.21,-63.92"/>
<polygon fill="black" stroke="black" points="95.38,-61.84 91.51,-71.7 100.69,-66.4 95.38,-61.84"/>
<g id="a_edge9&#45;headlabel"><a xlink:href="dir_000279_000046.html" target="_top" xlink:title="54">
<text text-anchor="middle" x="95.58" y="-54.76" font-family="Helvetica,sans-Serif" font-size="10.00">54</text>
</a>
</g>
</g>
</g>
</svg>
