<?xml version="1.0" encoding="UTF-8" standalone="no"?>
<!DOCTYPE svg PUBLIC "-//W3C//DTD SVG 1.1//EN"
 "http://www.w3.org/Graphics/SVG/1.1/DTD/svg11.dtd">
<!-- Generated by graphviz version 2.43.0 (0)
 -->
<!-- Title: include/mlir/Dialect/GPU/Transforms Pages: 1 -->
<svg width="308pt" height="367pt"
 viewBox="0.00 0.00 308.37 367.00" xmlns="http://www.w3.org/2000/svg" xmlns:xlink="http://www.w3.org/1999/xlink">
<g id="graph0" class="graph" transform="scale(1 1) rotate(0) translate(4 363)">
<title>include/mlir/Dialect/GPU/Transforms</title>
<g id="clust1" class="cluster">
<title>clusterdir_93cabfc07d4b6bdd370da47c980ee537</title>
<g id="a_clust1"><a xlink:href="dir_93cabfc07d4b6bdd370da47c980ee537.html" target="_top" xlink:title="GPU">
<polygon fill="#ddddee" stroke="black" points="14.37,-136 14.37,-351 104.37,-351 104.37,-136 14.37,-136"/>
<text text-anchor="middle" x="59.37" y="-339" font-family="Helvetica,sans-Serif" font-size="10.00">GPU</text>
</a>
</g>
</g>
<!-- dir_394047b3ac69ec3f084d8a2e36a805e7 -->
<g id="node1" class="node">
<title>dir_394047b3ac69ec3f084d8a2e36a805e7</title>
<g id="a_node1"><a xlink:href="dir_394047b3ac69ec3f084d8a2e36a805e7.html" target="_top" xlink:title="IR">
<polygon fill="none" stroke="black" points="76.37,-180 22.37,-180 22.37,-144 76.37,-144 76.37,-180"/>
<text text-anchor="middle" x="49.37" y="-159.5" font-family="Helvetica,sans-Serif" font-size="10.00">IR</text>
</a>
</g>
</g>
<!-- dir_84ef7c054b4edc3447cfba80cee80f65 -->
<g id="node4" class="node">
<title>dir_84ef7c054b4edc3447cfba80cee80f65</title>
<g id="a_node4"><a xlink:href="dir_84ef7c054b4edc3447cfba80cee80f65.html" target="_top" xlink:title="IR">
<polygon fill="none" stroke="black" points="169.37,-108 115.37,-108 115.37,-72 169.37,-72 169.37,-108"/>
<text text-anchor="middle" x="142.37" y="-87.5" font-family="Helvetica,sans-Serif" font-size="10.00">IR</text>
</a>
</g>
</g>
<!-- dir_394047b3ac69ec3f084d8a2e36a805e7&#45;&gt;dir_84ef7c054b4edc3447cfba80cee80f65 -->
<g id="edge2" class="edge">
<title>dir_394047b3ac69ec3f084d8a2e36a805e7&#45;&gt;dir_84ef7c054b4edc3447cfba80cee80f65</title>
<path fill="none" stroke="black" d="M72.36,-143.7C84.19,-134.8 98.77,-123.82 111.55,-114.2"/>
<polygon fill="black" stroke="black" points="113.76,-116.91 119.65,-108.1 109.56,-111.32 113.76,-116.91"/>
<g id="a_edge2&#45;headlabel"><a xlink:href="dir_000188_000046.html" target="_top" xlink:title="8">
<text text-anchor="middle" x="112.6" y="-118.84" font-family="Helvetica,sans-Serif" font-size="10.00">8</text>
</a>
</g>
</g>
<!-- dir_6855107fcc3ae0f1b3b64424186cba9d -->
<g id="node2" class="node">
<title>dir_6855107fcc3ae0f1b3b64424186cba9d</title>
<g id="a_node2"><a xlink:href="dir_6855107fcc3ae0f1b3b64424186cba9d.html" target="_top" xlink:title="Utils">
<polygon fill="none" stroke="black" points="96.37,-252 42.37,-252 42.37,-216 96.37,-216 96.37,-252"/>
<text text-anchor="middle" x="69.37" y="-231.5" font-family="Helvetica,sans-Serif" font-size="10.00">Utils</text>
</a>
</g>
</g>
<!-- dir_6855107fcc3ae0f1b3b64424186cba9d&#45;&gt;dir_394047b3ac69ec3f084d8a2e36a805e7 -->
<g id="edge12" class="edge">
<title>dir_6855107fcc3ae0f1b3b64424186cba9d&#45;&gt;dir_394047b3ac69ec3f084d8a2e36a805e7</title>
<path fill="none" stroke="black" d="M64.43,-215.7C62.2,-207.9 59.52,-198.51 57.04,-189.83"/>
<polygon fill="black" stroke="black" points="60.37,-188.76 54.26,-180.1 53.64,-190.68 60.37,-188.76"/>
<g id="a_edge12&#45;headlabel"><a xlink:href="dir_000223_000188.html" target="_top" xlink:title="2">
<text text-anchor="middle" x="64.09" y="-188.93" font-family="Helvetica,sans-Serif" font-size="10.00">2</text>
</a>
</g>
</g>
<!-- dir_6855107fcc3ae0f1b3b64424186cba9d&#45;&gt;dir_84ef7c054b4edc3447cfba80cee80f65 -->
<g id="edge13" class="edge">
<title>dir_6855107fcc3ae0f1b3b64424186cba9d&#45;&gt;dir_84ef7c054b4edc3447cfba80cee80f65</title>
<path fill="none" stroke="black" d="M78.18,-215.87C90.79,-191.35 114.08,-146.03 128.87,-117.26"/>
<polygon fill="black" stroke="black" points="132.08,-118.68 133.54,-108.19 125.85,-115.48 132.08,-118.68"/>
<g id="a_edge13&#45;headlabel"><a xlink:href="dir_000223_000046.html" target="_top" xlink:title="2">
<text text-anchor="middle" x="132.96" y="-120.68" font-family="Helvetica,sans-Serif" font-size="10.00">2</text>
</a>
</g>
</g>
<!-- dir_f61d47671007dfdb592580b61f960d39 -->
<g id="node7" class="node">
<title>dir_f61d47671007dfdb592580b61f960d39</title>
<g id="a_node7"><a xlink:href="dir_f61d47671007dfdb592580b61f960d39.html" target="_top" xlink:title="Support">
<polygon fill="none" stroke="black" points="169.37,-36 115.37,-36 115.37,0 169.37,0 169.37,-36"/>
<text text-anchor="middle" x="142.37" y="-15.5" font-family="Helvetica,sans-Serif" font-size="10.00">Support</text>
</a>
</g>
</g>
<!-- dir_6855107fcc3ae0f1b3b64424186cba9d&#45;&gt;dir_f61d47671007dfdb592580b61f960d39 -->
<g id="edge14" class="edge">
<title>dir_6855107fcc3ae0f1b3b64424186cba9d&#45;&gt;dir_f61d47671007dfdb592580b61f960d39</title>
<path fill="none" stroke="black" d="M43.25,-215.82C31.8,-206.69 19.57,-194.39 13.37,-180 5.64,-162.04 5.45,-153.88 13.37,-136 32.27,-93.35 75.24,-59.62 106.4,-39.54"/>
<polygon fill="black" stroke="black" points="108.64,-42.27 115.25,-34 104.92,-36.34 108.64,-42.27"/>
<g id="a_edge14&#45;headlabel"><a xlink:href="dir_000223_000288.html" target="_top" xlink:title="1">
<text text-anchor="middle" x="107.1" y="-44.09" font-family="Helvetica,sans-Serif" font-size="10.00">1</text>
</a>
</g>
</g>
<!-- dir_2a969f7a9bd6603b8741533dcd0d0155 -->
<g id="node3" class="node">
<title>dir_2a969f7a9bd6603b8741533dcd0d0155</title>
<g id="a_node3"><a xlink:href="dir_2a969f7a9bd6603b8741533dcd0d0155.html" target="_top" xlink:title="Transforms">
<polygon fill="#eeeeff" stroke="black" points="95.87,-324 24.87,-324 24.87,-288 95.87,-288 95.87,-324"/>
<text text-anchor="middle" x="60.37" y="-303.5" font-family="Helvetica,sans-Serif" font-size="10.00">Transforms</text>
</a>
</g>
</g>
<!-- dir_2a969f7a9bd6603b8741533dcd0d0155&#45;&gt;dir_394047b3ac69ec3f084d8a2e36a805e7 -->
<g id="edge3" class="edge">
<title>dir_2a969f7a9bd6603b8741533dcd0d0155&#45;&gt;dir_394047b3ac69ec3f084d8a2e36a805e7</title>
<path fill="none" stroke="black" d="M48.91,-287.67C43,-277.69 36.41,-264.65 33.37,-252 28.41,-231.33 33.18,-207.62 38.77,-189.88"/>
<polygon fill="black" stroke="black" points="42.16,-190.78 42.09,-180.18 35.53,-188.51 42.16,-190.78"/>
<g id="a_edge3&#45;headlabel"><a xlink:href="dir_000124_000188.html" target="_top" xlink:title="2">
<text text-anchor="middle" x="43.68" y="-192.6" font-family="Helvetica,sans-Serif" font-size="10.00">2</text>
</a>
</g>
</g>
<!-- dir_2a969f7a9bd6603b8741533dcd0d0155&#45;&gt;dir_6855107fcc3ae0f1b3b64424186cba9d -->
<g id="edge4" class="edge">
<title>dir_2a969f7a9bd6603b8741533dcd0d0155&#45;&gt;dir_6855107fcc3ae0f1b3b64424186cba9d</title>
<path fill="none" stroke="black" d="M62.6,-287.7C63.59,-279.98 64.78,-270.71 65.89,-262.11"/>
<polygon fill="black" stroke="black" points="69.37,-262.47 67.17,-252.1 62.43,-261.58 69.37,-262.47"/>
<g id="a_edge4&#45;headlabel"><a xlink:href="dir_000124_000223.html" target="_top" xlink:title="1">
<text text-anchor="middle" x="71.73" y="-263.9" font-family="Helvetica,sans-Serif" font-size="10.00">1</text>
</a>
</g>
</g>
<!-- dir_2a969f7a9bd6603b8741533dcd0d0155&#45;&gt;dir_84ef7c054b4edc3447cfba80cee80f65 -->
<g id="edge5" class="edge">
<title>dir_2a969f7a9bd6603b8741533dcd0d0155&#45;&gt;dir_84ef7c054b4edc3447cfba80cee80f65</title>
<path fill="none" stroke="black" d="M78.58,-287.93C87.9,-278.23 98.66,-265.38 105.37,-252 127.21,-208.47 136.36,-151.85 140.04,-118.66"/>
<polygon fill="black" stroke="black" points="143.56,-118.66 141.09,-108.36 136.6,-117.95 143.56,-118.66"/>
<g id="a_edge5&#45;headlabel"><a xlink:href="dir_000124_000046.html" target="_top" xlink:title="1">
<text text-anchor="middle" x="146.02" y="-120.02" font-family="Helvetica,sans-Serif" font-size="10.00">1</text>
</a>
</g>
</g>
<!-- dir_cab9f8330899b1cc9d753b1d9c5c5a3e -->
<g id="node5" class="node">
<title>dir_cab9f8330899b1cc9d753b1d9c5c5a3e</title>
<g id="a_node5"><a xlink:href="dir_cab9f8330899b1cc9d753b1d9c5c5a3e.html" target="_top" xlink:title="Pass">
<polygon fill="none" stroke="black" points="300.37,-180 246.37,-180 246.37,-144 300.37,-144 300.37,-180"/>
<text text-anchor="middle" x="273.37" y="-159.5" font-family="Helvetica,sans-Serif" font-size="10.00">Pass</text>
</a>
</g>
</g>
<!-- dir_2a969f7a9bd6603b8741533dcd0d0155&#45;&gt;dir_cab9f8330899b1cc9d753b1d9c5c5a3e -->
<g id="edge6" class="edge">
<title>dir_2a969f7a9bd6603b8741533dcd0d0155&#45;&gt;dir_cab9f8330899b1cc9d753b1d9c5c5a3e</title>
<path fill="none" stroke="black" d="M96.09,-304.73C137.95,-302.46 206.77,-292.28 247.37,-252 263.67,-235.83 269.88,-210.06 272.18,-190.41"/>
<polygon fill="black" stroke="black" points="275.69,-190.49 273.1,-180.21 268.72,-189.86 275.69,-190.49"/>
<g id="a_edge6&#45;headlabel"><a xlink:href="dir_000124_000053.html" target="_top" xlink:title="1">
<text text-anchor="middle" x="278.19" y="-191.82" font-family="Helvetica,sans-Serif" font-size="10.00">1</text>
</a>
</g>
</g>
<!-- dir_eb2ecbd073b9e3a96ec858ae570d025e -->
<g id="node6" class="node">
<title>dir_eb2ecbd073b9e3a96ec858ae570d025e</title>
<g id="a_node6"><a xlink:href="dir_eb2ecbd073b9e3a96ec858ae570d025e.html" target="_top" xlink:title="AMDGPU">
<polygon fill="none" stroke="red" points="237.87,-252 176.87,-252 176.87,-216 237.87,-216 237.87,-252"/>
<text text-anchor="middle" x="207.37" y="-231.5" font-family="Helvetica,sans-Serif" font-size="10.00">AMDGPU</text>
</a>
</g>
</g>
<!-- dir_2a969f7a9bd6603b8741533dcd0d0155&#45;&gt;dir_eb2ecbd073b9e3a96ec858ae570d025e -->
<g id="edge7" class="edge">
<title>dir_2a969f7a9bd6603b8741533dcd0d0155&#45;&gt;dir_eb2ecbd073b9e3a96ec858ae570d025e</title>
<path fill="none" stroke="black" d="M95.96,-288.05C117.52,-277.79 145.08,-264.67 167.39,-254.04"/>
<polygon fill="black" stroke="black" points="169.07,-257.12 176.6,-249.66 166.06,-250.8 169.07,-257.12"/>
<g id="a_edge7&#45;headlabel"><a xlink:href="dir_000124_000110.html" target="_top" xlink:title="1">
<text text-anchor="middle" x="167.05" y="-258.72" font-family="Helvetica,sans-Serif" font-size="10.00">1</text>
</a>
</g>
</g>
<!-- dir_2a969f7a9bd6603b8741533dcd0d0155&#45;&gt;dir_f61d47671007dfdb592580b61f960d39 -->
<g id="edge8" class="edge">
<title>dir_2a969f7a9bd6603b8741533dcd0d0155&#45;&gt;dir_f61d47671007dfdb592580b61f960d39</title>
<path fill="none" stroke="black" d="M47.84,-288C40.83,-277.91 32.33,-264.66 26.37,-252 4,-204.44 -5.65,-187.78 3.37,-136 8.56,-106.22 5.91,-94.25 26.37,-72 47.41,-49.12 80.25,-35.4 105.63,-27.67"/>
<polygon fill="black" stroke="black" points="106.65,-31.02 115.3,-24.9 104.72,-24.29 106.65,-31.02"/>
<g id="a_edge8&#45;headlabel"><a xlink:href="dir_000124_000288.html" target="_top" xlink:title="1">
<text text-anchor="middle" x="103.97" y="-32.24" font-family="Helvetica,sans-Serif" font-size="10.00">1</text>
</a>
</g>
</g>
<!-- dir_84ef7c054b4edc3447cfba80cee80f65&#45;&gt;dir_f61d47671007dfdb592580b61f960d39 -->
<g id="edge1" class="edge">
<title>dir_84ef7c054b4edc3447cfba80cee80f65&#45;&gt;dir_f61d47671007dfdb592580b61f960d39</title>
<path fill="none" stroke="black" d="M142.37,-71.7C142.37,-63.98 142.37,-54.71 142.37,-46.11"/>
<polygon fill="black" stroke="black" points="145.87,-46.1 142.37,-36.1 138.87,-46.1 145.87,-46.1"/>
<g id="a_edge1&#45;headlabel"><a xlink:href="dir_000046_000288.html" target="_top" xlink:title="23">
<text text-anchor="middle" x="148.71" y="-47.2" font-family="Helvetica,sans-Serif" font-size="10.00">23</text>
</a>
</g>
</g>
<!-- dir_cab9f8330899b1cc9d753b1d9c5c5a3e&#45;&gt;dir_84ef7c054b4edc3447cfba80cee80f65 -->
<g id="edge15" class="edge">
<title>dir_cab9f8330899b1cc9d753b1d9c5c5a3e&#45;&gt;dir_84ef7c054b4edc3447cfba80cee80f65</title>
<path fill="none" stroke="black" d="M246.23,-146.5C226.56,-135.98 199.76,-121.66 178.31,-110.2"/>
<polygon fill="black" stroke="black" points="179.95,-107.11 169.48,-105.49 176.65,-113.29 179.95,-107.11"/>
<g id="a_edge15&#45;headlabel"><a xlink:href="dir_000053_000046.html" target="_top" xlink:title="4">
<text text-anchor="middle" x="184.46" y="-103.8" font-family="Helvetica,sans-Serif" font-size="10.00">4</text>
</a>
</g>
</g>
<!-- dir_cab9f8330899b1cc9d753b1d9c5c5a3e&#45;&gt;dir_f61d47671007dfdb592580b61f960d39 -->
<g id="edge16" class="edge">
<title>dir_cab9f8330899b1cc9d753b1d9c5c5a3e&#45;&gt;dir_f61d47671007dfdb592580b61f960d39</title>
<path fill="none" stroke="black" d="M268.86,-143.85C263.07,-124.53 251.43,-93.07 232.37,-72 217.67,-55.74 196.77,-43.01 178.82,-34.11"/>
<polygon fill="black" stroke="black" points="180.28,-30.93 169.75,-29.81 177.28,-37.26 180.28,-30.93"/>
<g id="a_edge16&#45;headlabel"><a xlink:href="dir_000053_000288.html" target="_top" xlink:title="6">
<text text-anchor="middle" x="184.75" y="-27.41" font-family="Helvetica,sans-Serif" font-size="10.00">6</text>
</a>
</g>
</g>
<!-- dir_eb2ecbd073b9e3a96ec858ae570d025e&#45;&gt;dir_84ef7c054b4edc3447cfba80cee80f65 -->
<g id="edge9" class="edge">
<title>dir_eb2ecbd073b9e3a96ec858ae570d025e&#45;&gt;dir_84ef7c054b4edc3447cfba80cee80f65</title>
<path fill="none" stroke="black" d="M199.53,-215.87C188.36,-191.46 167.74,-146.43 154.57,-117.64"/>
<polygon fill="black" stroke="black" points="157.59,-115.83 150.24,-108.19 151.22,-118.74 157.59,-115.83"/>
<g id="a_edge9&#45;headlabel"><a xlink:href="dir_000110_000046.html" target="_top" xlink:title="4">
<text text-anchor="middle" x="161.66" y="-115.41" font-family="Helvetica,sans-Serif" font-size="10.00">4</text>
</a>
</g>
</g>
<!-- dir_eb2ecbd073b9e3a96ec858ae570d025e&#45;&gt;dir_cab9f8330899b1cc9d753b1d9c5c5a3e -->
<g id="edge10" class="edge">
<title>dir_eb2ecbd073b9e3a96ec858ae570d025e&#45;&gt;dir_cab9f8330899b1cc9d753b1d9c5c5a3e</title>
<path fill="none" stroke="black" d="M223.69,-215.7C231.68,-207.22 241.45,-196.86 250.2,-187.58"/>
<polygon fill="black" stroke="black" points="252.93,-189.78 257.25,-180.1 247.84,-184.98 252.93,-189.78"/>
<g id="a_edge10&#45;headlabel"><a xlink:href="dir_000110_000053.html" target="_top" xlink:title="1">
<text text-anchor="middle" x="252.53" y="-191.84" font-family="Helvetica,sans-Serif" font-size="10.00">1</text>
</a>
</g>
</g>
<!-- dir_eb2ecbd073b9e3a96ec858ae570d025e&#45;&gt;dir_f61d47671007dfdb592580b61f960d39 -->
<g id="edge11" class="edge">
<title>dir_eb2ecbd073b9e3a96ec858ae570d025e&#45;&gt;dir_f61d47671007dfdb592580b61f960d39</title>
<path fill="none" stroke="black" d="M206.62,-215.9C204.8,-185.77 198.65,-121.7 178.37,-72 174.44,-62.37 168.58,-52.7 162.72,-44.31"/>
<polygon fill="black" stroke="black" points="165.43,-42.08 156.7,-36.08 159.78,-46.22 165.43,-42.08"/>
<g id="a_edge11&#45;headlabel"><a xlink:href="dir_000110_000288.html" target="_top" xlink:title="1">
<text text-anchor="middle" x="169.84" y="-40.81" font-family="Helvetica,sans-Serif" font-size="10.00">1</text>
</a>
</g>
</g>
</g>
</svg>
