<?xml version="1.0" encoding="UTF-8" standalone="no"?>
<!DOCTYPE svg PUBLIC "-//W3C//DTD SVG 1.1//EN"
 "http://www.w3.org/Graphics/SVG/1.1/DTD/svg11.dtd">
<!-- Generated by graphviz version 2.43.0 (0)
 -->
<!-- Title: lib/Dialect/OpenACC Pages: 1 -->
<svg width="388pt" height="125pt"
 viewBox="0.00 0.00 388.00 125.00" xmlns="http://www.w3.org/2000/svg" xmlns:xlink="http://www.w3.org/1999/xlink">
<g id="graph0" class="graph" transform="scale(1 1) rotate(0) translate(4 121)">
<title>lib/Dialect/OpenACC</title>
<g id="clust1" class="cluster">
<title>clusterdir_1a25ec519b6c1121408b67cc33ce3f15</title>
<g id="a_clust1"><a xlink:href="dir_1a25ec519b6c1121408b67cc33ce3f15.html" target="_top" xlink:title="Dialect">
<polygon fill="#edf0f7" stroke="#7f7f7f" stroke-dasharray="5,2" points="8,-39 8,-109 372,-109 372,-39 8,-39"/>
<text text-anchor="middle" x="190" y="-97" font-family="Helvetica,sans-Serif" font-size="10.00">Dialect</text>
</a>
</g>
</g>
<g id="clust2" class="cluster">
<title>clusterdir_fdc94ffdafb51e9547192eaebf38a14f</title>
<g id="a_clust2"><a xlink:href="dir_fdc94ffdafb51e9547192eaebf38a14f.html" target="_top">
<polygon fill="#edf0f7" stroke="#404040" stroke-width="2" points="16,-47 16,-82 364,-82 364,-47 16,-47"/>
</a>
</g>
</g>
<!-- dir_fdc94ffdafb51e9547192eaebf38a14f -->
<g id="node1" class="node">
<title>dir_fdc94ffdafb51e9547192eaebf38a14f</title>
<text text-anchor="middle" x="325" y="-62" font-family="Helvetica,sans-Serif" font-size="10.00">OpenACC</text>
</g>
<!-- dir_1412c53daa62af26eb1e2cc6095806eb -->
<g id="node2" class="node">
<title>dir_1412c53daa62af26eb1e2cc6095806eb</title>
<g id="a_node2"><a xlink:href="dir_1412c53daa62af26eb1e2cc6095806eb.html" target="_top" xlink:title="Analysis">
<polygon fill="#a2b4d6" stroke="#404040" points="276,-74 218,-74 218,-55 276,-55 276,-74"/>
<text text-anchor="middle" x="247" y="-62" font-family="Helvetica,sans-Serif" font-size="10.00">Analysis</text>
</a>
</g>
</g>
<!-- dir_d44c64559bbebec7f509842c48db8b23 -->
<g id="node6" class="node">
<title>dir_d44c64559bbebec7f509842c48db8b23</title>
<g id="a_node6"><a xlink:href="dir_d44c64559bbebec7f509842c48db8b23.html" target="_top" xlink:title="include">
<polygon fill="#edf0f7" stroke="red" points="177,-19 125,-19 125,0 177,0 177,-19"/>
<text text-anchor="middle" x="151" y="-7" font-family="Helvetica,sans-Serif" font-size="10.00">include</text>
</a>
</g>
</g>
<!-- dir_1412c53daa62af26eb1e2cc6095806eb&#45;&gt;dir_d44c64559bbebec7f509842c48db8b23 -->
<g id="edge1" class="edge">
<title>dir_1412c53daa62af26eb1e2cc6095806eb&#45;&gt;dir_d44c64559bbebec7f509842c48db8b23</title>
<g id="a_edge1"><a xlink:href="dir_000018_000158.html" target="_top">
<path fill="none" stroke="#63b8ff" d="M234.56,-54.96C227.25,-50.07 217.75,-43.95 209,-39 199.41,-33.57 188.63,-28.11 179,-23.45"/>
<polygon fill="#63b8ff" stroke="#63b8ff" points="180.36,-20.22 169.83,-19.07 177.35,-26.54 180.36,-20.22"/>
</a>
</g>
<g id="a_edge1&#45;headlabel"><a xlink:href="dir_000018_000158.html" target="_top" xlink:title="2">
<text text-anchor="middle" x="184.83" y="-16.71" font-family="Helvetica,sans-Serif" font-size="10.00" fill="#63b8ff">2</text>
</a>
</g>
</g>
<!-- dir_ccb5bc11bedaf4bbb9b41a078cdfbfe2 -->
<g id="node3" class="node">
<title>dir_ccb5bc11bedaf4bbb9b41a078cdfbfe2</title>
<g id="a_node3"><a xlink:href="dir_ccb5bc11bedaf4bbb9b41a078cdfbfe2.html" target="_top" xlink:title="IR">
<polygon fill="#a2b4d6" stroke="#404040" points="199.5,-74 170.5,-74 170.5,-55 199.5,-55 199.5,-74"/>
<text text-anchor="middle" x="185" y="-62" font-family="Helvetica,sans-Serif" font-size="10.00">IR</text>
</a>
</g>
</g>
<!-- dir_ccb5bc11bedaf4bbb9b41a078cdfbfe2&#45;&gt;dir_d44c64559bbebec7f509842c48db8b23 -->
<g id="edge2" class="edge">
<title>dir_ccb5bc11bedaf4bbb9b41a078cdfbfe2&#45;&gt;dir_d44c64559bbebec7f509842c48db8b23</title>
<g id="a_edge2"><a xlink:href="dir_000240_000158.html" target="_top">
<path fill="none" stroke="#63b8ff" d="M179.39,-54.75C174.68,-47.42 167.83,-36.73 162.03,-27.7"/>
<polygon fill="#63b8ff" stroke="#63b8ff" points="164.86,-25.62 156.51,-19.09 158.96,-29.4 164.86,-25.62"/>
</a>
</g>
<g id="a_edge2&#45;headlabel"><a xlink:href="dir_000240_000158.html" target="_top" xlink:title="15">
<text text-anchor="middle" x="169.19" y="-24.61" font-family="Helvetica,sans-Serif" font-size="10.00" fill="#63b8ff">15</text>
</a>
</g>
</g>
<!-- dir_36adbca8c30e843c0e3395cd66eb2a41 -->
<g id="node4" class="node">
<title>dir_36adbca8c30e843c0e3395cd66eb2a41</title>
<g id="a_node4"><a xlink:href="dir_36adbca8c30e843c0e3395cd66eb2a41.html" target="_top" xlink:title="Transforms">
<polygon fill="#a2b4d6" stroke="#404040" points="152.5,-74 81.5,-74 81.5,-55 152.5,-55 152.5,-74"/>
<text text-anchor="middle" x="117" y="-62" font-family="Helvetica,sans-Serif" font-size="10.00">Transforms</text>
</a>
</g>
</g>
<!-- dir_36adbca8c30e843c0e3395cd66eb2a41&#45;&gt;dir_d44c64559bbebec7f509842c48db8b23 -->
<g id="edge3" class="edge">
<title>dir_36adbca8c30e843c0e3395cd66eb2a41&#45;&gt;dir_d44c64559bbebec7f509842c48db8b23</title>
<g id="a_edge3"><a xlink:href="dir_000576_000158.html" target="_top">
<path fill="none" stroke="#63b8ff" d="M122.61,-54.75C127.32,-47.42 134.17,-36.73 139.97,-27.7"/>
<polygon fill="#63b8ff" stroke="#63b8ff" points="143.04,-29.4 145.49,-19.09 137.14,-25.62 143.04,-29.4"/>
</a>
</g>
<g id="a_edge3&#45;headlabel"><a xlink:href="dir_000576_000158.html" target="_top" xlink:title="61">
<text text-anchor="middle" x="143.49" y="-31.45" font-family="Helvetica,sans-Serif" font-size="10.00" fill="#63b8ff">61</text>
</a>
</g>
</g>
<!-- dir_670dbcc22ebea9ee1bd54f1a26777a72 -->
<g id="node5" class="node">
<title>dir_670dbcc22ebea9ee1bd54f1a26777a72</title>
<g id="a_node5"><a xlink:href="dir_670dbcc22ebea9ee1bd54f1a26777a72.html" target="_top" xlink:title="Utils">
<polygon fill="#a2b4d6" stroke="#404040" points="63.5,-74 24.5,-74 24.5,-55 63.5,-55 63.5,-74"/>
<text text-anchor="middle" x="44" y="-62" font-family="Helvetica,sans-Serif" font-size="10.00">Utils</text>
</a>
</g>
</g>
<!-- dir_670dbcc22ebea9ee1bd54f1a26777a72&#45;&gt;dir_d44c64559bbebec7f509842c48db8b23 -->
<g id="edge4" class="edge">
<title>dir_670dbcc22ebea9ee1bd54f1a26777a72&#45;&gt;dir_d44c64559bbebec7f509842c48db8b23</title>
<g id="a_edge4"><a xlink:href="dir_000628_000158.html" target="_top">
<path fill="none" stroke="#63b8ff" d="M52.52,-54.9C58,-49.74 65.48,-43.37 73,-39 86.04,-31.43 101.45,-25.29 115.11,-20.67"/>
<polygon fill="#63b8ff" stroke="#63b8ff" points="116.25,-23.98 124.69,-17.58 114.1,-17.32 116.25,-23.98"/>
</a>
</g>
<g id="a_edge4&#45;headlabel"><a xlink:href="dir_000628_000158.html" target="_top" xlink:title="12">
<text text-anchor="middle" x="113.7" y="-25.29" font-family="Helvetica,sans-Serif" font-size="10.00" fill="#63b8ff">12</text>
</a>
</g>
</g>
</g>
</svg>
