<?xml version="1.0" encoding="UTF-8" standalone="no"?>
<!DOCTYPE svg PUBLIC "-//W3C//DTD SVG 1.1//EN"
 "http://www.w3.org/Graphics/SVG/1.1/DTD/svg11.dtd">
<!-- Generated by graphviz version 2.43.0 (0)
 -->
<!-- Title: lib/Dialect/Vector Pages: 1 -->
<svg width="482pt" height="125pt"
 viewBox="0.00 0.00 482.00 125.00" xmlns="http://www.w3.org/2000/svg" xmlns:xlink="http://www.w3.org/1999/xlink">
<g id="graph0" class="graph" transform="scale(1 1) rotate(0) translate(4 121)">
<title>lib/Dialect/Vector</title>
<g id="clust1" class="cluster">
<title>clusterdir_1a25ec519b6c1121408b67cc33ce3f15</title>
<g id="a_clust1"><a xlink:href="dir_1a25ec519b6c1121408b67cc33ce3f15.html" target="_top" xlink:title="Dialect">
<polygon fill="#edf0f7" stroke="#7f7f7f" stroke-dasharray="5,2" points="8,-39 8,-109 466,-109 466,-39 8,-39"/>
<text text-anchor="middle" x="237" y="-97" font-family="Helvetica,sans-Serif" font-size="10.00">Dialect</text>
</a>
</g>
</g>
<g id="clust2" class="cluster">
<title>clusterdir_84ad971b6ccc87b19bc57b4cf8f3f79f</title>
<g id="a_clust2"><a xlink:href="dir_84ad971b6ccc87b19bc57b4cf8f3f79f.html" target="_top">
<polygon fill="#edf0f7" stroke="#404040" stroke-width="2" points="16,-47 16,-82 458,-82 458,-47 16,-47"/>
</a>
</g>
</g>
<!-- dir_84ad971b6ccc87b19bc57b4cf8f3f79f -->
<g id="node1" class="node">
<title>dir_84ad971b6ccc87b19bc57b4cf8f3f79f</title>
<text text-anchor="middle" x="426" y="-62" font-family="Helvetica,sans-Serif" font-size="10.00">Vector</text>
</g>
<!-- dir_f4643df986c0890a5c8b8c2f11e6bc9e -->
<g id="node2" class="node">
<title>dir_f4643df986c0890a5c8b8c2f11e6bc9e</title>
<g id="a_node2"><a xlink:href="dir_f4643df986c0890a5c8b8c2f11e6bc9e.html" target="_top" xlink:title="Interfaces">
<polygon fill="#a2b4d6" stroke="#404040" points="384.5,-74 319.5,-74 319.5,-55 384.5,-55 384.5,-74"/>
<text text-anchor="middle" x="352" y="-62" font-family="Helvetica,sans-Serif" font-size="10.00">Interfaces</text>
</a>
</g>
</g>
<!-- dir_d44c64559bbebec7f509842c48db8b23 -->
<g id="node7" class="node">
<title>dir_d44c64559bbebec7f509842c48db8b23</title>
<g id="a_node7"><a xlink:href="dir_d44c64559bbebec7f509842c48db8b23.html" target="_top" xlink:title="include">
<polygon fill="#edf0f7" stroke="red" points="239,-19 187,-19 187,0 239,0 239,-19"/>
<text text-anchor="middle" x="213" y="-7" font-family="Helvetica,sans-Serif" font-size="10.00">include</text>
</a>
</g>
</g>
<!-- dir_f4643df986c0890a5c8b8c2f11e6bc9e&#45;&gt;dir_d44c64559bbebec7f509842c48db8b23 -->
<g id="edge1" class="edge">
<title>dir_f4643df986c0890a5c8b8c2f11e6bc9e&#45;&gt;dir_d44c64559bbebec7f509842c48db8b23</title>
<g id="a_edge1"><a xlink:href="dir_000176_000158.html" target="_top">
<path fill="none" stroke="#63b8ff" d="M339.52,-54.9C331.62,-49.75 321.03,-43.37 311,-39 291.03,-30.3 267.65,-23.39 248.73,-18.55"/>
<polygon fill="#63b8ff" stroke="#63b8ff" points="249.56,-15.15 239.01,-16.14 247.88,-21.94 249.56,-15.15"/>
</a>
</g>
<g id="a_edge1&#45;headlabel"><a xlink:href="dir_000176_000158.html" target="_top" xlink:title="2">
<text text-anchor="middle" x="253.73" y="-10.75" font-family="Helvetica,sans-Serif" font-size="10.00" fill="#63b8ff">2</text>
</a>
</g>
</g>
<!-- dir_0b76ba72563ac5c5fa9b64ea5a9ef22d -->
<g id="node3" class="node">
<title>dir_0b76ba72563ac5c5fa9b64ea5a9ef22d</title>
<g id="a_node3"><a xlink:href="dir_0b76ba72563ac5c5fa9b64ea5a9ef22d.html" target="_top" xlink:title="IR">
<polygon fill="#a2b4d6" stroke="#404040" points="301.5,-74 272.5,-74 272.5,-55 301.5,-55 301.5,-74"/>
<text text-anchor="middle" x="287" y="-62" font-family="Helvetica,sans-Serif" font-size="10.00">IR</text>
</a>
</g>
</g>
<!-- dir_0b76ba72563ac5c5fa9b64ea5a9ef22d&#45;&gt;dir_d44c64559bbebec7f509842c48db8b23 -->
<g id="edge2" class="edge">
<title>dir_0b76ba72563ac5c5fa9b64ea5a9ef22d&#45;&gt;dir_d44c64559bbebec7f509842c48db8b23</title>
<g id="a_edge2"><a xlink:href="dir_000256_000158.html" target="_top">
<path fill="none" stroke="#63b8ff" d="M279.91,-54.7C275.63,-49.72 269.88,-43.6 264,-39 256.88,-33.43 248.53,-28.29 240.68,-23.95"/>
<polygon fill="#63b8ff" stroke="#63b8ff" points="242.27,-20.83 231.79,-19.24 238.99,-27.01 242.27,-20.83"/>
</a>
</g>
<g id="a_edge2&#45;headlabel"><a xlink:href="dir_000256_000158.html" target="_top" xlink:title="31">
<text text-anchor="middle" x="246.77" y="-17.5" font-family="Helvetica,sans-Serif" font-size="10.00" fill="#63b8ff">31</text>
</a>
</g>
</g>
<!-- dir_c934201ce62ab415d339dae34bd45eb2 -->
<g id="node4" class="node">
<title>dir_c934201ce62ab415d339dae34bd45eb2</title>
<g id="a_node4"><a xlink:href="dir_c934201ce62ab415d339dae34bd45eb2.html" target="_top" xlink:title="TransformOps">
<polygon fill="#a2b4d6" stroke="#404040" points="255,-74 171,-74 171,-55 255,-55 255,-74"/>
<text text-anchor="middle" x="213" y="-62" font-family="Helvetica,sans-Serif" font-size="10.00">TransformOps</text>
</a>
</g>
</g>
<!-- dir_c934201ce62ab415d339dae34bd45eb2&#45;&gt;dir_d44c64559bbebec7f509842c48db8b23 -->
<g id="edge3" class="edge">
<title>dir_c934201ce62ab415d339dae34bd45eb2&#45;&gt;dir_d44c64559bbebec7f509842c48db8b23</title>
<g id="a_edge3"><a xlink:href="dir_000522_000158.html" target="_top">
<path fill="none" stroke="#63b8ff" d="M213,-54.75C213,-47.8 213,-37.85 213,-29.13"/>
<polygon fill="#63b8ff" stroke="#63b8ff" points="216.5,-29.09 213,-19.09 209.5,-29.09 216.5,-29.09"/>
</a>
</g>
<g id="a_edge3&#45;headlabel"><a xlink:href="dir_000522_000158.html" target="_top" xlink:title="12">
<text text-anchor="middle" x="219.34" y="-30.18" font-family="Helvetica,sans-Serif" font-size="10.00" fill="#63b8ff">12</text>
</a>
</g>
</g>
<!-- dir_7b47e7ae615a7c9f8246c22d2b9965e5 -->
<g id="node5" class="node">
<title>dir_7b47e7ae615a7c9f8246c22d2b9965e5</title>
<g id="a_node5"><a xlink:href="dir_7b47e7ae615a7c9f8246c22d2b9965e5.html" target="_top" xlink:title="Transforms">
<polygon fill="#a2b4d6" stroke="#404040" points="152.5,-74 81.5,-74 81.5,-55 152.5,-55 152.5,-74"/>
<text text-anchor="middle" x="117" y="-62" font-family="Helvetica,sans-Serif" font-size="10.00">Transforms</text>
</a>
</g>
</g>
<!-- dir_7b47e7ae615a7c9f8246c22d2b9965e5&#45;&gt;dir_d44c64559bbebec7f509842c48db8b23 -->
<g id="edge4" class="edge">
<title>dir_7b47e7ae615a7c9f8246c22d2b9965e5&#45;&gt;dir_d44c64559bbebec7f509842c48db8b23</title>
<g id="a_edge4"><a xlink:href="dir_000587_000158.html" target="_top">
<path fill="none" stroke="#63b8ff" d="M132.42,-54.98C147.45,-46.69 170.54,-33.94 188.16,-24.22"/>
<polygon fill="#63b8ff" stroke="#63b8ff" points="190.23,-27.07 197.3,-19.17 186.85,-20.94 190.23,-27.07"/>
</a>
</g>
<g id="a_edge4&#45;headlabel"><a xlink:href="dir_000587_000158.html" target="_top" xlink:title="218">
<text text-anchor="middle" x="188.46" y="-28.79" font-family="Helvetica,sans-Serif" font-size="10.00" fill="#63b8ff">218</text>
</a>
</g>
</g>
<!-- dir_c8f75156d2383e4b9fc513dd98a3ea10 -->
<g id="node6" class="node">
<title>dir_c8f75156d2383e4b9fc513dd98a3ea10</title>
<g id="a_node6"><a xlink:href="dir_c8f75156d2383e4b9fc513dd98a3ea10.html" target="_top" xlink:title="Utils">
<polygon fill="#a2b4d6" stroke="#404040" points="63.5,-74 24.5,-74 24.5,-55 63.5,-55 63.5,-74"/>
<text text-anchor="middle" x="44" y="-62" font-family="Helvetica,sans-Serif" font-size="10.00">Utils</text>
</a>
</g>
</g>
<!-- dir_c8f75156d2383e4b9fc513dd98a3ea10&#45;&gt;dir_d44c64559bbebec7f509842c48db8b23 -->
<g id="edge5" class="edge">
<title>dir_c8f75156d2383e4b9fc513dd98a3ea10&#45;&gt;dir_d44c64559bbebec7f509842c48db8b23</title>
<g id="a_edge5"><a xlink:href="dir_000638_000158.html" target="_top">
<path fill="none" stroke="#63b8ff" d="M51.82,-54.97C57.25,-49.58 64.93,-42.91 73,-39 106,-23.01 147.58,-15.98 176.82,-12.9"/>
<polygon fill="#63b8ff" stroke="#63b8ff" points="177.37,-16.36 187,-11.93 176.71,-9.4 177.37,-16.36"/>
</a>
</g>
<g id="a_edge5&#45;headlabel"><a xlink:href="dir_000638_000158.html" target="_top" xlink:title="14">
<text text-anchor="middle" x="174.06" y="-17.03" font-family="Helvetica,sans-Serif" font-size="10.00" fill="#63b8ff">14</text>
</a>
</g>
</g>
</g>
</svg>
