<?xml version="1.0" encoding="UTF-8" standalone="no"?>
<!DOCTYPE svg PUBLIC "-//W3C//DTD SVG 1.1//EN"
 "http://www.w3.org/Graphics/SVG/1.1/DTD/svg11.dtd">
<!-- Generated by graphviz version 2.43.0 (0)
 -->
<!-- Title: include/mlir/Dialect/XeGPU Pages: 1 -->
<svg width="423pt" height="447pt"
 viewBox="0.00 0.00 422.60 447.00" xmlns="http://www.w3.org/2000/svg" xmlns:xlink="http://www.w3.org/1999/xlink">
<g id="graph0" class="graph" transform="scale(1 1) rotate(0) translate(4 443)">
<title>include/mlir/Dialect/XeGPU</title>
<g id="clust1" class="cluster">
<title>clusterdir_d07a6fac82475a065a3b2953573f00a0</title>
<g id="a_clust1"><a xlink:href="dir_d07a6fac82475a065a3b2953573f00a0.html" target="_top" xlink:title="Dialect">
<polygon fill="#ddddee" stroke="black" points="86.6,-208 86.6,-431 406.6,-431 406.6,-208 86.6,-208"/>
<text text-anchor="middle" x="246.6" y="-419" font-family="Helvetica,sans-Serif" font-size="10.00">Dialect</text>
</a>
</g>
</g>
<g id="clust2" class="cluster">
<title>clusterdir_5af423df3a2327edcd5f90b3d7e3f636</title>
<g id="a_clust2"><a xlink:href="dir_5af423df3a2327edcd5f90b3d7e3f636.html" target="_top">
<polygon fill="#eeeeff" stroke="black" points="94.6,-352 94.6,-404 398.6,-404 398.6,-352 94.6,-352"/>
</a>
</g>
</g>
<!-- dir_687ef06ec02158f82af83f8ed0273ebe -->
<g id="node1" class="node">
<title>dir_687ef06ec02158f82af83f8ed0273ebe</title>
<g id="a_node1"><a xlink:href="dir_687ef06ec02158f82af83f8ed0273ebe.html" target="_top" xlink:title="Arith">
<polygon fill="none" stroke="red" points="283.6,-252 229.6,-252 229.6,-216 283.6,-216 283.6,-252"/>
<text text-anchor="middle" x="256.6" y="-231.5" font-family="Helvetica,sans-Serif" font-size="10.00">Arith</text>
</a>
</g>
</g>
<!-- dir_51020c1b0909ae629a35fe1c65c620b9 -->
<g id="node7" class="node">
<title>dir_51020c1b0909ae629a35fe1c65c620b9</title>
<g id="a_node7"><a xlink:href="dir_51020c1b0909ae629a35fe1c65c620b9.html" target="_top" xlink:title="Bytecode">
<polygon fill="none" stroke="black" points="135.6,-180 73.6,-180 73.6,-144 135.6,-144 135.6,-180"/>
<text text-anchor="middle" x="104.6" y="-159.5" font-family="Helvetica,sans-Serif" font-size="10.00">Bytecode</text>
</a>
</g>
</g>
<!-- dir_687ef06ec02158f82af83f8ed0273ebe&#45;&gt;dir_51020c1b0909ae629a35fe1c65c620b9 -->
<g id="edge4" class="edge">
<title>dir_687ef06ec02158f82af83f8ed0273ebe&#45;&gt;dir_51020c1b0909ae629a35fe1c65c620b9</title>
<path fill="none" stroke="black" d="M229.43,-220.49C205.9,-209.65 171.55,-193.83 144.84,-181.53"/>
<polygon fill="black" stroke="black" points="146.28,-178.34 135.74,-177.34 143.35,-184.7 146.28,-178.34"/>
<g id="a_edge4&#45;headlabel"><a xlink:href="dir_000017_000048.html" target="_top" xlink:title="1">
<text text-anchor="middle" x="150.74" y="-174.77" font-family="Helvetica,sans-Serif" font-size="10.00">1</text>
</a>
</g>
</g>
<!-- dir_84ef7c054b4edc3447cfba80cee80f65 -->
<g id="node8" class="node">
<title>dir_84ef7c054b4edc3447cfba80cee80f65</title>
<g id="a_node8"><a xlink:href="dir_84ef7c054b4edc3447cfba80cee80f65.html" target="_top" xlink:title="IR">
<polygon fill="none" stroke="black" points="173.6,-108 119.6,-108 119.6,-72 173.6,-72 173.6,-108"/>
<text text-anchor="middle" x="146.6" y="-87.5" font-family="Helvetica,sans-Serif" font-size="10.00">IR</text>
</a>
</g>
</g>
<!-- dir_687ef06ec02158f82af83f8ed0273ebe&#45;&gt;dir_84ef7c054b4edc3447cfba80cee80f65 -->
<g id="edge5" class="edge">
<title>dir_687ef06ec02158f82af83f8ed0273ebe&#45;&gt;dir_84ef7c054b4edc3447cfba80cee80f65</title>
<path fill="none" stroke="black" d="M243.34,-215.87C224.09,-191.03 188.32,-144.85 166.08,-116.14"/>
<polygon fill="black" stroke="black" points="168.81,-113.95 159.92,-108.19 163.28,-118.24 168.81,-113.95"/>
<g id="a_edge5&#45;headlabel"><a xlink:href="dir_000017_000044.html" target="_top" xlink:title="6">
<text text-anchor="middle" x="173.26" y="-112.55" font-family="Helvetica,sans-Serif" font-size="10.00">6</text>
</a>
</g>
</g>
<!-- dir_cab9f8330899b1cc9d753b1d9c5c5a3e -->
<g id="node9" class="node">
<title>dir_cab9f8330899b1cc9d753b1d9c5c5a3e</title>
<g id="a_node9"><a xlink:href="dir_cab9f8330899b1cc9d753b1d9c5c5a3e.html" target="_top" xlink:title="Pass">
<polygon fill="none" stroke="black" points="359.6,-180 305.6,-180 305.6,-144 359.6,-144 359.6,-180"/>
<text text-anchor="middle" x="332.6" y="-159.5" font-family="Helvetica,sans-Serif" font-size="10.00">Pass</text>
</a>
</g>
</g>
<!-- dir_687ef06ec02158f82af83f8ed0273ebe&#45;&gt;dir_cab9f8330899b1cc9d753b1d9c5c5a3e -->
<g id="edge7" class="edge">
<title>dir_687ef06ec02158f82af83f8ed0273ebe&#45;&gt;dir_cab9f8330899b1cc9d753b1d9c5c5a3e</title>
<path fill="none" stroke="black" d="M275.39,-215.7C284.78,-207.05 296.29,-196.45 306.52,-187.03"/>
<polygon fill="black" stroke="black" points="309.05,-189.45 314.03,-180.1 304.31,-184.3 309.05,-189.45"/>
<g id="a_edge7&#45;headlabel"><a xlink:href="dir_000017_000051.html" target="_top" xlink:title="1">
<text text-anchor="middle" x="308.33" y="-191.48" font-family="Helvetica,sans-Serif" font-size="10.00">1</text>
</a>
</g>
</g>
<!-- dir_cf63c3ddb21c79ef735682489f4c6a69 -->
<g id="node10" class="node">
<title>dir_cf63c3ddb21c79ef735682489f4c6a69</title>
<g id="a_node10"><a xlink:href="dir_cf63c3ddb21c79ef735682489f4c6a69.html" target="_top" xlink:title="Interfaces">
<polygon fill="none" stroke="red" points="234.1,-36 169.1,-36 169.1,0 234.1,0 234.1,-36"/>
<text text-anchor="middle" x="201.6" y="-15.5" font-family="Helvetica,sans-Serif" font-size="10.00">Interfaces</text>
</a>
</g>
</g>
<!-- dir_687ef06ec02158f82af83f8ed0273ebe&#45;&gt;dir_cf63c3ddb21c79ef735682489f4c6a69 -->
<g id="edge6" class="edge">
<title>dir_687ef06ec02158f82af83f8ed0273ebe&#45;&gt;dir_cf63c3ddb21c79ef735682489f4c6a69</title>
<path fill="none" stroke="black" d="M252.23,-215.6C244.78,-186.05 229.15,-124.21 215.6,-72 213.42,-63.58 211.01,-54.42 208.81,-46.11"/>
<polygon fill="black" stroke="black" points="212.13,-44.95 206.18,-36.18 205.36,-46.74 212.13,-44.95"/>
<g id="a_edge6&#45;headlabel"><a xlink:href="dir_000017_000275.html" target="_top" xlink:title="7">
<text text-anchor="middle" x="215.79" y="-45.19" font-family="Helvetica,sans-Serif" font-size="10.00">7</text>
</a>
</g>
</g>
<!-- dir_bfd3493254b3df47293537524626123b -->
<g id="node2" class="node">
<title>dir_bfd3493254b3df47293537524626123b</title>
<g id="a_node2"><a xlink:href="dir_bfd3493254b3df47293537524626123b.html" target="_top" xlink:title="Vector">
<polygon fill="none" stroke="red" points="228.6,-324 174.6,-324 174.6,-288 228.6,-288 228.6,-324"/>
<text text-anchor="middle" x="201.6" y="-303.5" font-family="Helvetica,sans-Serif" font-size="10.00">Vector</text>
</a>
</g>
</g>
<!-- dir_bfd3493254b3df47293537524626123b&#45;&gt;dir_687ef06ec02158f82af83f8ed0273ebe -->
<g id="edge15" class="edge">
<title>dir_bfd3493254b3df47293537524626123b&#45;&gt;dir_687ef06ec02158f82af83f8ed0273ebe</title>
<path fill="none" stroke="black" d="M215.2,-287.7C221.73,-279.39 229.67,-269.28 236.85,-260.14"/>
<polygon fill="black" stroke="black" points="239.74,-262.13 243.16,-252.1 234.23,-257.81 239.74,-262.13"/>
<g id="a_edge15&#45;headlabel"><a xlink:href="dir_000150_000017.html" target="_top" xlink:title="2">
<text text-anchor="middle" x="239.75" y="-264.21" font-family="Helvetica,sans-Serif" font-size="10.00">2</text>
</a>
</g>
</g>
<!-- dir_bfd3493254b3df47293537524626123b&#45;&gt;dir_51020c1b0909ae629a35fe1c65c620b9 -->
<g id="edge14" class="edge">
<title>dir_bfd3493254b3df47293537524626123b&#45;&gt;dir_51020c1b0909ae629a35fe1c65c620b9</title>
<path fill="none" stroke="black" d="M182.07,-287.86C171.61,-278.04 158.99,-265.1 149.6,-252 135.58,-232.44 123.52,-207.88 115.42,-189.52"/>
<polygon fill="black" stroke="black" points="118.62,-188.09 111.45,-180.28 112.18,-190.85 118.62,-188.09"/>
<g id="a_edge14&#45;headlabel"><a xlink:href="dir_000150_000048.html" target="_top" xlink:title="1">
<text text-anchor="middle" x="122.64" y="-187.77" font-family="Helvetica,sans-Serif" font-size="10.00">1</text>
</a>
</g>
</g>
<!-- dir_bfd3493254b3df47293537524626123b&#45;&gt;dir_84ef7c054b4edc3447cfba80cee80f65 -->
<g id="edge16" class="edge">
<title>dir_bfd3493254b3df47293537524626123b&#45;&gt;dir_84ef7c054b4edc3447cfba80cee80f65</title>
<path fill="none" stroke="black" d="M197.03,-287.82C194.27,-277.46 190.71,-263.98 187.6,-252 175.44,-205.09 161.58,-150.41 153.49,-118.36"/>
<polygon fill="black" stroke="black" points="156.82,-117.25 150.98,-108.4 150.03,-118.96 156.82,-117.25"/>
<g id="a_edge16&#45;headlabel"><a xlink:href="dir_000150_000044.html" target="_top" xlink:title="13">
<text text-anchor="middle" x="160.45" y="-117.54" font-family="Helvetica,sans-Serif" font-size="10.00">13</text>
</a>
</g>
</g>
<!-- dir_bfd3493254b3df47293537524626123b&#45;&gt;dir_cab9f8330899b1cc9d753b1d9c5c5a3e -->
<g id="edge17" class="edge">
<title>dir_bfd3493254b3df47293537524626123b&#45;&gt;dir_cab9f8330899b1cc9d753b1d9c5c5a3e</title>
<path fill="none" stroke="black" d="M228.92,-294.5C248.77,-285.69 275.11,-271.43 292.6,-252 308.65,-234.18 319.18,-208.85 325.39,-189.77"/>
<polygon fill="black" stroke="black" points="328.75,-190.75 328.32,-180.17 322.05,-188.71 328.75,-190.75"/>
<g id="a_edge17&#45;headlabel"><a xlink:href="dir_000150_000051.html" target="_top" xlink:title="1">
<text text-anchor="middle" x="330.41" y="-192.52" font-family="Helvetica,sans-Serif" font-size="10.00">1</text>
</a>
</g>
</g>
<!-- dir_bfd3493254b3df47293537524626123b&#45;&gt;dir_cf63c3ddb21c79ef735682489f4c6a69 -->
<g id="edge18" class="edge">
<title>dir_bfd3493254b3df47293537524626123b&#45;&gt;dir_cf63c3ddb21c79ef735682489f4c6a69</title>
<path fill="none" stroke="black" d="M201.6,-287.97C201.6,-240.29 201.6,-105.18 201.6,-46.63"/>
<polygon fill="black" stroke="black" points="205.1,-46.31 201.6,-36.31 198.1,-46.31 205.1,-46.31"/>
<g id="a_edge18&#45;headlabel"><a xlink:href="dir_000150_000275.html" target="_top" xlink:title="8">
<text text-anchor="middle" x="207.94" y="-47.4" font-family="Helvetica,sans-Serif" font-size="10.00">8</text>
</a>
</g>
</g>
<!-- dir_5af423df3a2327edcd5f90b3d7e3f636 -->
<g id="node3" class="node">
<title>dir_5af423df3a2327edcd5f90b3d7e3f636</title>
<text text-anchor="middle" x="363.6" y="-375.5" font-family="Helvetica,sans-Serif" font-size="10.00">XeGPU</text>
</g>
<!-- dir_af87213b2c87ceb3ff163e266458ce84 -->
<g id="node4" class="node">
<title>dir_af87213b2c87ceb3ff163e266458ce84</title>
<g id="a_node4"><a xlink:href="dir_af87213b2c87ceb3ff163e266458ce84.html" target="_top" xlink:title="IR">
<polygon fill="white" stroke="black" points="228.6,-396 174.6,-396 174.6,-360 228.6,-360 228.6,-396"/>
<text text-anchor="middle" x="201.6" y="-375.5" font-family="Helvetica,sans-Serif" font-size="10.00">IR</text>
</a>
</g>
</g>
<!-- dir_af87213b2c87ceb3ff163e266458ce84&#45;&gt;dir_687ef06ec02158f82af83f8ed0273ebe -->
<g id="edge9" class="edge">
<title>dir_af87213b2c87ceb3ff163e266458ce84&#45;&gt;dir_687ef06ec02158f82af83f8ed0273ebe</title>
<path fill="none" stroke="black" d="M215.77,-359.85C223.29,-349.93 232.1,-336.89 237.6,-324 246.02,-304.29 250.85,-280.49 253.53,-262.46"/>
<polygon fill="black" stroke="black" points="257.03,-262.71 254.91,-252.33 250.09,-261.76 257.03,-262.71"/>
<g id="a_edge9&#45;headlabel"><a xlink:href="dir_000272_000017.html" target="_top" xlink:title="1">
<text text-anchor="middle" x="259.36" y="-264.15" font-family="Helvetica,sans-Serif" font-size="10.00">1</text>
</a>
</g>
</g>
<!-- dir_af87213b2c87ceb3ff163e266458ce84&#45;&gt;dir_bfd3493254b3df47293537524626123b -->
<g id="edge11" class="edge">
<title>dir_af87213b2c87ceb3ff163e266458ce84&#45;&gt;dir_bfd3493254b3df47293537524626123b</title>
<path fill="none" stroke="black" d="M201.6,-359.7C201.6,-351.98 201.6,-342.71 201.6,-334.11"/>
<polygon fill="black" stroke="black" points="205.1,-334.1 201.6,-324.1 198.1,-334.1 205.1,-334.1"/>
<g id="a_edge11&#45;headlabel"><a xlink:href="dir_000272_000150.html" target="_top" xlink:title="1">
<text text-anchor="middle" x="207.94" y="-335.2" font-family="Helvetica,sans-Serif" font-size="10.00">1</text>
</a>
</g>
</g>
<!-- dir_af87213b2c87ceb3ff163e266458ce84&#45;&gt;dir_51020c1b0909ae629a35fe1c65c620b9 -->
<g id="edge8" class="edge">
<title>dir_af87213b2c87ceb3ff163e266458ce84&#45;&gt;dir_51020c1b0909ae629a35fe1c65c620b9</title>
<path fill="none" stroke="black" d="M178.4,-359.92C174.23,-357.13 169.85,-354.38 165.6,-352 138.5,-336.85 118.6,-349.98 101.6,-324 75.12,-283.5 85.82,-224.16 95.53,-189.98"/>
<polygon fill="black" stroke="black" points="98.93,-190.81 98.47,-180.22 92.23,-188.79 98.93,-190.81"/>
<g id="a_edge8&#45;headlabel"><a xlink:href="dir_000272_000048.html" target="_top" xlink:title="1">
<text text-anchor="middle" x="100.62" y="-192.57" font-family="Helvetica,sans-Serif" font-size="10.00">1</text>
</a>
</g>
</g>
<!-- dir_af87213b2c87ceb3ff163e266458ce84&#45;&gt;dir_84ef7c054b4edc3447cfba80cee80f65 -->
<g id="edge10" class="edge">
<title>dir_af87213b2c87ceb3ff163e266458ce84&#45;&gt;dir_84ef7c054b4edc3447cfba80cee80f65</title>
<path fill="none" stroke="black" d="M178.95,-359.87C174.65,-357.02 170.09,-354.27 165.6,-352 131.23,-334.63 108.01,-353.79 83.6,-324 32.62,-261.78 26.14,-214.65 64.6,-144 74.38,-126.04 93.16,-113.23 110.28,-104.72"/>
<polygon fill="black" stroke="black" points="111.95,-107.8 119.55,-100.42 109.01,-101.45 111.95,-107.8"/>
<g id="a_edge10&#45;headlabel"><a xlink:href="dir_000272_000044.html" target="_top" xlink:title="3">
<text text-anchor="middle" x="109.88" y="-109.39" font-family="Helvetica,sans-Serif" font-size="10.00">3</text>
</a>
</g>
</g>
<!-- dir_af87213b2c87ceb3ff163e266458ce84&#45;&gt;dir_cf63c3ddb21c79ef735682489f4c6a69 -->
<g id="edge12" class="edge">
<title>dir_af87213b2c87ceb3ff163e266458ce84&#45;&gt;dir_cf63c3ddb21c79ef735682489f4c6a69</title>
<path fill="none" stroke="black" d="M225.95,-359.79C230.11,-357.08 234.43,-354.38 238.6,-352 303.45,-314.99 344.1,-320.59 373.6,-252 379.77,-237.66 369.41,-145.47 368.6,-144 340.88,-93.63 283.31,-57.65 243.58,-37.6"/>
<polygon fill="black" stroke="black" points="244.91,-34.35 234.39,-33.08 241.82,-40.63 244.91,-34.35"/>
<g id="a_edge12&#45;headlabel"><a xlink:href="dir_000272_000275.html" target="_top" xlink:title="3">
<text text-anchor="middle" x="249.39" y="-30.89" font-family="Helvetica,sans-Serif" font-size="10.00">3</text>
</a>
</g>
</g>
<!-- dir_547ab28a9767e2fb877115ac393fa027 -->
<g id="node5" class="node">
<title>dir_547ab28a9767e2fb877115ac393fa027</title>
<g id="a_node5"><a xlink:href="dir_547ab28a9767e2fb877115ac393fa027.html" target="_top" xlink:title="Transforms">
<polygon fill="white" stroke="black" points="318.1,-396 247.1,-396 247.1,-360 318.1,-360 318.1,-396"/>
<text text-anchor="middle" x="282.6" y="-375.5" font-family="Helvetica,sans-Serif" font-size="10.00">Transforms</text>
</a>
</g>
</g>
<!-- dir_547ab28a9767e2fb877115ac393fa027&#45;&gt;dir_cab9f8330899b1cc9d753b1d9c5c5a3e -->
<g id="edge13" class="edge">
<title>dir_547ab28a9767e2fb877115ac393fa027&#45;&gt;dir_cab9f8330899b1cc9d753b1d9c5c5a3e</title>
<path fill="none" stroke="black" d="M307.08,-359.77C318.01,-350.56 329.73,-338.19 335.6,-324 353.85,-279.95 346.45,-223.14 339.48,-190.12"/>
<polygon fill="black" stroke="black" points="342.88,-189.27 337.27,-180.28 336.05,-190.8 342.88,-189.27"/>
<g id="a_edge13&#45;headlabel"><a xlink:href="dir_000153_000051.html" target="_top" xlink:title="1">
<text text-anchor="middle" x="346.44" y="-189.65" font-family="Helvetica,sans-Serif" font-size="10.00">1</text>
</a>
</g>
</g>
<!-- dir_5c40e114354cfd5eee371a627ce2bbef -->
<g id="node6" class="node">
<title>dir_5c40e114354cfd5eee371a627ce2bbef</title>
<g id="a_node6"><a xlink:href="dir_5c40e114354cfd5eee371a627ce2bbef.html" target="_top" xlink:title="Utils">
<polygon fill="white" stroke="black" points="156.6,-396 102.6,-396 102.6,-360 156.6,-360 156.6,-396"/>
<text text-anchor="middle" x="129.6" y="-375.5" font-family="Helvetica,sans-Serif" font-size="10.00">Utils</text>
</a>
</g>
</g>
<!-- dir_5c40e114354cfd5eee371a627ce2bbef&#45;&gt;dir_84ef7c054b4edc3447cfba80cee80f65 -->
<g id="edge1" class="edge">
<title>dir_5c40e114354cfd5eee371a627ce2bbef&#45;&gt;dir_84ef7c054b4edc3447cfba80cee80f65</title>
<path fill="none" stroke="black" d="M102.59,-370.65C79.22,-363.57 46.86,-349.59 31.6,-324 -9.36,-255.28 -11.53,-211.37 31.6,-144 48.68,-117.32 82.97,-103.89 109.68,-97.24"/>
<polygon fill="black" stroke="black" points="110.52,-100.63 119.5,-95.01 108.97,-93.81 110.52,-100.63"/>
<g id="a_edge1&#45;headlabel"><a xlink:href="dir_000273_000044.html" target="_top" xlink:title="1">
<text text-anchor="middle" x="107.64" y="-101.7" font-family="Helvetica,sans-Serif" font-size="10.00">1</text>
</a>
</g>
</g>
<!-- dir_51020c1b0909ae629a35fe1c65c620b9&#45;&gt;dir_84ef7c054b4edc3447cfba80cee80f65 -->
<g id="edge19" class="edge">
<title>dir_51020c1b0909ae629a35fe1c65c620b9&#45;&gt;dir_84ef7c054b4edc3447cfba80cee80f65</title>
<path fill="none" stroke="black" d="M109.07,-143.7C113.16,-135.47 118.95,-125.48 124.83,-116.42"/>
<polygon fill="black" stroke="black" points="127.75,-118.35 130.45,-108.1 121.95,-114.43 127.75,-118.35"/>
<g id="a_edge19&#45;headlabel"><a xlink:href="dir_000048_000044.html" target="_top" xlink:title="9">
<text text-anchor="middle" x="128.09" y="-120.42" font-family="Helvetica,sans-Serif" font-size="10.00">9</text>
</a>
</g>
</g>
<!-- dir_84ef7c054b4edc3447cfba80cee80f65&#45;&gt;dir_51020c1b0909ae629a35fe1c65c620b9 -->
<g id="edge2" class="edge">
<title>dir_84ef7c054b4edc3447cfba80cee80f65&#45;&gt;dir_51020c1b0909ae629a35fe1c65c620b9</title>
<path fill="none" stroke="black" d="M142.24,-108.1C138.18,-116.3 132.4,-126.28 126.52,-135.36"/>
<polygon fill="black" stroke="black" points="123.59,-133.45 120.9,-143.7 129.39,-137.36 123.59,-133.45"/>
<g id="a_edge2&#45;headlabel"><a xlink:href="dir_000044_000048.html" target="_top" xlink:title="2">
<text text-anchor="middle" x="123.24" y="-126.38" font-family="Helvetica,sans-Serif" font-size="10.00">2</text>
</a>
</g>
</g>
<!-- dir_84ef7c054b4edc3447cfba80cee80f65&#45;&gt;dir_cf63c3ddb21c79ef735682489f4c6a69 -->
<g id="edge3" class="edge">
<title>dir_84ef7c054b4edc3447cfba80cee80f65&#45;&gt;dir_cf63c3ddb21c79ef735682489f4c6a69</title>
<path fill="none" stroke="black" d="M154.28,-71.7C160.01,-63.3 167.86,-53.07 175.58,-43.86"/>
<polygon fill="black" stroke="black" points="178.39,-45.96 182.27,-36.1 173.09,-41.39 178.39,-45.96"/>
<g id="a_edge3&#45;headlabel"><a xlink:href="dir_000044_000275.html" target="_top" xlink:title="3">
<text text-anchor="middle" x="178.19" y="-48.04" font-family="Helvetica,sans-Serif" font-size="10.00">3</text>
</a>
</g>
</g>
<!-- dir_cab9f8330899b1cc9d753b1d9c5c5a3e&#45;&gt;dir_84ef7c054b4edc3447cfba80cee80f65 -->
<g id="edge21" class="edge">
<title>dir_cab9f8330899b1cc9d753b1d9c5c5a3e&#45;&gt;dir_84ef7c054b4edc3447cfba80cee80f65</title>
<path fill="none" stroke="black" d="M305.56,-150.82C273.32,-138.69 219.31,-118.36 183.32,-104.82"/>
<polygon fill="black" stroke="black" points="184.27,-101.44 173.68,-101.19 181.81,-107.99 184.27,-101.44"/>
<g id="a_edge21&#45;headlabel"><a xlink:href="dir_000051_000044.html" target="_top" xlink:title="4">
<text text-anchor="middle" x="188.64" y="-97.55" font-family="Helvetica,sans-Serif" font-size="10.00">4</text>
</a>
</g>
</g>
<!-- dir_cf63c3ddb21c79ef735682489f4c6a69&#45;&gt;dir_84ef7c054b4edc3447cfba80cee80f65 -->
<g id="edge20" class="edge">
<title>dir_cf63c3ddb21c79ef735682489f4c6a69&#45;&gt;dir_84ef7c054b4edc3447cfba80cee80f65</title>
<path fill="none" stroke="black" d="M194.06,-36.1C188.37,-44.47 180.53,-54.69 172.81,-63.92"/>
<polygon fill="black" stroke="black" points="169.99,-61.84 166.11,-71.7 175.29,-66.4 169.99,-61.84"/>
<g id="a_edge20&#45;headlabel"><a xlink:href="dir_000275_000044.html" target="_top" xlink:title="50">
<text text-anchor="middle" x="170.18" y="-54.76" font-family="Helvetica,sans-Serif" font-size="10.00">50</text>
</a>
</g>
</g>
</g>
</svg>
