<?xml version="1.0" encoding="UTF-8" standalone="no"?>
<!DOCTYPE svg PUBLIC "-//W3C//DTD SVG 1.1//EN"
 "http://www.w3.org/Graphics/SVG/1.1/DTD/svg11.dtd">
<!-- Generated by graphviz version 2.43.0 (0)
 -->
<!-- Title: lib/Dialect/SparseTensor Pages: 1 -->
<svg width="554pt" height="159pt"
 viewBox="0.00 0.00 554.00 159.00" xmlns="http://www.w3.org/2000/svg" xmlns:xlink="http://www.w3.org/1999/xlink">
<g id="graph0" class="graph" transform="scale(1 1) rotate(0) translate(4 155)">
<title>lib/Dialect/SparseTensor</title>
<g id="clust1" class="cluster">
<title>clusterdir_1a25ec519b6c1121408b67cc33ce3f15</title>
<g id="a_clust1"><a xlink:href="dir_1a25ec519b6c1121408b67cc33ce3f15.html" target="_top" xlink:title="Dialect">
<polygon fill="#ddddee" stroke="black" points="8,-56 8,-143 538,-143 538,-56 8,-56"/>
<text text-anchor="middle" x="273" y="-131" font-family="Helvetica,sans-Serif" font-size="10.00">Dialect</text>
</a>
</g>
</g>
<g id="clust2" class="cluster">
<title>clusterdir_13082a6f4e9874f56b186194ab02bcf7</title>
<g id="a_clust2"><a xlink:href="dir_13082a6f4e9874f56b186194ab02bcf7.html" target="_top">
<polygon fill="#eeeeff" stroke="black" points="16,-64 16,-116 530,-116 530,-64 16,-64"/>
</a>
</g>
</g>
<!-- dir_13082a6f4e9874f56b186194ab02bcf7 -->
<g id="node1" class="node">
<title>dir_13082a6f4e9874f56b186194ab02bcf7</title>
<text text-anchor="middle" x="481" y="-87.5" font-family="Helvetica,sans-Serif" font-size="10.00">SparseTensor</text>
</g>
<!-- dir_7cb4dfa84cc0f0a13947cd86297f5547 -->
<g id="node2" class="node">
<title>dir_7cb4dfa84cc0f0a13947cd86297f5547</title>
<g id="a_node2"><a xlink:href="dir_7cb4dfa84cc0f0a13947cd86297f5547.html" target="_top" xlink:title="IR">
<polygon fill="white" stroke="red" points="422,-108 368,-108 368,-72 422,-72 422,-108"/>
<text text-anchor="middle" x="395" y="-87.5" font-family="Helvetica,sans-Serif" font-size="10.00">IR</text>
</a>
</g>
</g>
<!-- dir_d44c64559bbebec7f509842c48db8b23 -->
<g id="node7" class="node">
<title>dir_d44c64559bbebec7f509842c48db8b23</title>
<g id="a_node7"><a xlink:href="dir_d44c64559bbebec7f509842c48db8b23.html" target="_top" xlink:title="include">
<polygon fill="none" stroke="red" points="255,-36 201,-36 201,0 255,0 255,-36"/>
<text text-anchor="middle" x="228" y="-15.5" font-family="Helvetica,sans-Serif" font-size="10.00">include</text>
</a>
</g>
</g>
<!-- dir_7cb4dfa84cc0f0a13947cd86297f5547&#45;&gt;dir_d44c64559bbebec7f509842c48db8b23 -->
<g id="edge2" class="edge">
<title>dir_7cb4dfa84cc0f0a13947cd86297f5547&#45;&gt;dir_d44c64559bbebec7f509842c48db8b23</title>
<path fill="none" stroke="black" d="M379.44,-71.77C373.52,-66.07 366.41,-60.13 359,-56 329.53,-39.57 292.19,-29.96 264.92,-24.67"/>
<polygon fill="black" stroke="black" points="265.47,-21.21 255,-22.85 264.21,-28.1 265.47,-21.21"/>
<g id="a_edge2&#45;headlabel"><a xlink:href="dir_000569_000001.html" target="_top" xlink:title="20">
<text text-anchor="middle" x="269.52" y="-16.57" font-family="Helvetica,sans-Serif" font-size="10.00">20</text>
</a>
</g>
</g>
<!-- dir_78c73fc76ed1eb05c86963ac0e7aea3d -->
<g id="node3" class="node">
<title>dir_78c73fc76ed1eb05c86963ac0e7aea3d</title>
<g id="a_node3"><a xlink:href="dir_78c73fc76ed1eb05c86963ac0e7aea3d.html" target="_top" xlink:title="Pipelines">
<polygon fill="white" stroke="black" points="349.5,-108 288.5,-108 288.5,-72 349.5,-72 349.5,-108"/>
<text text-anchor="middle" x="319" y="-87.5" font-family="Helvetica,sans-Serif" font-size="10.00">Pipelines</text>
</a>
</g>
</g>
<!-- dir_78c73fc76ed1eb05c86963ac0e7aea3d&#45;&gt;dir_d44c64559bbebec7f509842c48db8b23 -->
<g id="edge3" class="edge">
<title>dir_78c73fc76ed1eb05c86963ac0e7aea3d&#45;&gt;dir_d44c64559bbebec7f509842c48db8b23</title>
<path fill="none" stroke="black" d="M298.85,-71.96C292.56,-66.76 285.55,-61.07 279,-56 273.05,-51.4 266.62,-46.6 260.4,-42.04"/>
<polygon fill="black" stroke="black" points="262.25,-39.06 252.1,-36.01 258.13,-44.72 262.25,-39.06"/>
<g id="a_edge3&#45;headlabel"><a xlink:href="dir_000571_000001.html" target="_top" xlink:title="12">
<text text-anchor="middle" x="266.82" y="-36.37" font-family="Helvetica,sans-Serif" font-size="10.00">12</text>
</a>
</g>
</g>
<!-- dir_d21e3b4b0c31410a6067ec90a5326f5e -->
<g id="node4" class="node">
<title>dir_d21e3b4b0c31410a6067ec90a5326f5e</title>
<g id="a_node4"><a xlink:href="dir_d21e3b4b0c31410a6067ec90a5326f5e.html" target="_top" xlink:title="TransformOps">
<polygon fill="white" stroke="black" points="270,-108 186,-108 186,-72 270,-72 270,-108"/>
<text text-anchor="middle" x="228" y="-87.5" font-family="Helvetica,sans-Serif" font-size="10.00">TransformOps</text>
</a>
</g>
</g>
<!-- dir_d21e3b4b0c31410a6067ec90a5326f5e&#45;&gt;dir_d44c64559bbebec7f509842c48db8b23 -->
<g id="edge5" class="edge">
<title>dir_d21e3b4b0c31410a6067ec90a5326f5e&#45;&gt;dir_d44c64559bbebec7f509842c48db8b23</title>
<path fill="none" stroke="black" d="M228,-71.7C228,-63.98 228,-54.71 228,-46.11"/>
<polygon fill="black" stroke="black" points="231.5,-46.1 228,-36.1 224.5,-46.1 231.5,-46.1"/>
<g id="a_edge5&#45;headlabel"><a xlink:href="dir_000572_000001.html" target="_top" xlink:title="3">
<text text-anchor="middle" x="234.34" y="-47.2" font-family="Helvetica,sans-Serif" font-size="10.00">3</text>
</a>
</g>
</g>
<!-- dir_0d456967b90db7a1f4f87da272c6d374 -->
<g id="node5" class="node">
<title>dir_0d456967b90db7a1f4f87da272c6d374</title>
<g id="a_node5"><a xlink:href="dir_0d456967b90db7a1f4f87da272c6d374.html" target="_top" xlink:title="Transforms">
<polygon fill="white" stroke="red" points="167.5,-108 96.5,-108 96.5,-72 167.5,-72 167.5,-108"/>
<text text-anchor="middle" x="132" y="-87.5" font-family="Helvetica,sans-Serif" font-size="10.00">Transforms</text>
</a>
</g>
</g>
<!-- dir_0d456967b90db7a1f4f87da272c6d374&#45;&gt;dir_d44c64559bbebec7f509842c48db8b23 -->
<g id="edge4" class="edge">
<title>dir_0d456967b90db7a1f4f87da272c6d374&#45;&gt;dir_d44c64559bbebec7f509842c48db8b23</title>
<path fill="none" stroke="black" d="M155.34,-71.85C162.3,-66.74 169.96,-61.14 177,-56 183.14,-51.52 189.7,-46.75 196,-42.18"/>
<polygon fill="black" stroke="black" points="198.33,-44.81 204.37,-36.11 194.22,-39.15 198.33,-44.81"/>
<g id="a_edge4&#45;headlabel"><a xlink:href="dir_000367_000001.html" target="_top" xlink:title="203">
<text text-anchor="middle" x="197.09" y="-46.72" font-family="Helvetica,sans-Serif" font-size="10.00">203</text>
</a>
</g>
</g>
<!-- dir_a2eae8348127d75432c685f65a660427 -->
<g id="node6" class="node">
<title>dir_a2eae8348127d75432c685f65a660427</title>
<g id="a_node6"><a xlink:href="dir_a2eae8348127d75432c685f65a660427.html" target="_top" xlink:title="Utils">
<polygon fill="white" stroke="black" points="78,-108 24,-108 24,-72 78,-72 78,-108"/>
<text text-anchor="middle" x="51" y="-87.5" font-family="Helvetica,sans-Serif" font-size="10.00">Utils</text>
</a>
</g>
</g>
<!-- dir_a2eae8348127d75432c685f65a660427&#45;&gt;dir_d44c64559bbebec7f509842c48db8b23 -->
<g id="edge1" class="edge">
<title>dir_a2eae8348127d75432c685f65a660427&#45;&gt;dir_d44c64559bbebec7f509842c48db8b23</title>
<path fill="none" stroke="black" d="M67.03,-71.71C73.11,-66 80.42,-60.08 88,-56 120.34,-38.61 161.35,-29.02 190.61,-23.99"/>
<polygon fill="black" stroke="black" points="191.51,-27.39 200.82,-22.34 190.39,-20.48 191.51,-27.39"/>
<g id="a_edge1&#45;headlabel"><a xlink:href="dir_000574_000001.html" target="_top" xlink:title="6">
<text text-anchor="middle" x="188.42" y="-28.27" font-family="Helvetica,sans-Serif" font-size="10.00">6</text>
</a>
</g>
</g>
</g>
</svg>
