<?xml version="1.0" encoding="UTF-8" standalone="no"?>
<!DOCTYPE svg PUBLIC "-//W3C//DTD SVG 1.1//EN"
 "http://www.w3.org/Graphics/SVG/1.1/DTD/svg11.dtd">
<!-- Generated by graphviz version 2.43.0 (0)
 -->
<!-- Title: lib/Debug Pages: 1 -->
<svg width="330pt" height="159pt"
 viewBox="0.00 0.00 330.00 159.00" xmlns="http://www.w3.org/2000/svg" xmlns:xlink="http://www.w3.org/1999/xlink">
<g id="graph0" class="graph" transform="scale(1 1) rotate(0) translate(4 155)">
<title>lib/Debug</title>
<g id="clust1" class="cluster">
<title>clusterdir_97aefd0d527b934f1d99a682da8fe6a9</title>
<g id="a_clust1"><a xlink:href="dir_97aefd0d527b934f1d99a682da8fe6a9.html" target="_top" xlink:title="lib">
<polygon fill="#ddddee" stroke="black" points="8,-56 8,-143 314,-143 314,-56 8,-56"/>
<text text-anchor="middle" x="161" y="-131" font-family="Helvetica,sans-Serif" font-size="10.00">lib</text>
</a>
</g>
</g>
<g id="clust2" class="cluster">
<title>clusterdir_16b3056ea5a4b7dd24fe79c68bb88bcd</title>
<g id="a_clust2"><a xlink:href="dir_16b3056ea5a4b7dd24fe79c68bb88bcd.html" target="_top">
<polygon fill="#eeeeff" stroke="black" points="16,-64 16,-116 306,-116 306,-64 16,-64"/>
</a>
</g>
</g>
<!-- dir_16b3056ea5a4b7dd24fe79c68bb88bcd -->
<g id="node1" class="node">
<title>dir_16b3056ea5a4b7dd24fe79c68bb88bcd</title>
<text text-anchor="middle" x="271" y="-87.5" font-family="Helvetica,sans-Serif" font-size="10.00">Debug</text>
</g>
<!-- dir_420ae75160a9cd1b21f43a7ae3e3268f -->
<g id="node2" class="node">
<title>dir_420ae75160a9cd1b21f43a7ae3e3268f</title>
<g id="a_node2"><a xlink:href="dir_420ae75160a9cd1b21f43a7ae3e3268f.html" target="_top" xlink:title="BreakpointManagers">
<polygon fill="white" stroke="black" points="226,-108 108,-108 108,-72 226,-72 226,-108"/>
<text text-anchor="middle" x="167" y="-87.5" font-family="Helvetica,sans-Serif" font-size="10.00">BreakpointManagers</text>
</a>
</g>
</g>
<!-- dir_d44c64559bbebec7f509842c48db8b23 -->
<g id="node4" class="node">
<title>dir_d44c64559bbebec7f509842c48db8b23</title>
<g id="a_node4"><a xlink:href="dir_d44c64559bbebec7f509842c48db8b23.html" target="_top" xlink:title="include">
<polygon fill="none" stroke="red" points="139,-36 85,-36 85,0 139,0 139,-36"/>
<text text-anchor="middle" x="112" y="-15.5" font-family="Helvetica,sans-Serif" font-size="10.00">include</text>
</a>
</g>
</g>
<!-- dir_420ae75160a9cd1b21f43a7ae3e3268f&#45;&gt;dir_d44c64559bbebec7f509842c48db8b23 -->
<g id="edge1" class="edge">
<title>dir_420ae75160a9cd1b21f43a7ae3e3268f&#45;&gt;dir_d44c64559bbebec7f509842c48db8b23</title>
<path fill="none" stroke="black" d="M153.4,-71.7C146.88,-63.39 138.93,-53.28 131.75,-44.14"/>
<polygon fill="black" stroke="black" points="134.37,-41.81 125.44,-36.1 128.87,-46.13 134.37,-41.81"/>
<g id="a_edge1&#45;headlabel"><a xlink:href="dir_000466_000001.html" target="_top" xlink:title="1">
<text text-anchor="middle" x="138.82" y="-40.38" font-family="Helvetica,sans-Serif" font-size="10.00">1</text>
</a>
</g>
</g>
<!-- dir_556fcf53dfc70df5d1a8b49e75d011cc -->
<g id="node3" class="node">
<title>dir_556fcf53dfc70df5d1a8b49e75d011cc</title>
<g id="a_node3"><a xlink:href="dir_556fcf53dfc70df5d1a8b49e75d011cc.html" target="_top" xlink:title="Observers">
<polygon fill="white" stroke="black" points="90,-108 24,-108 24,-72 90,-72 90,-108"/>
<text text-anchor="middle" x="57" y="-87.5" font-family="Helvetica,sans-Serif" font-size="10.00">Observers</text>
</a>
</g>
</g>
<!-- dir_556fcf53dfc70df5d1a8b49e75d011cc&#45;&gt;dir_d44c64559bbebec7f509842c48db8b23 -->
<g id="edge2" class="edge">
<title>dir_556fcf53dfc70df5d1a8b49e75d011cc&#45;&gt;dir_d44c64559bbebec7f509842c48db8b23</title>
<path fill="none" stroke="black" d="M70.6,-71.7C77.12,-63.39 85.07,-53.28 92.25,-44.14"/>
<polygon fill="black" stroke="black" points="95.13,-46.13 98.56,-36.1 89.63,-41.81 95.13,-46.13"/>
<g id="a_edge2&#45;headlabel"><a xlink:href="dir_000467_000001.html" target="_top" xlink:title="6">
<text text-anchor="middle" x="95.15" y="-48.21" font-family="Helvetica,sans-Serif" font-size="10.00">6</text>
</a>
</g>
</g>
</g>
</svg>
