<?xml version="1.0" encoding="UTF-8" standalone="no"?>
<!DOCTYPE svg PUBLIC "-//W3C//DTD SVG 1.1//EN"
 "http://www.w3.org/Graphics/SVG/1.1/DTD/svg11.dtd">
<!-- Generated by graphviz version 2.43.0 (0)
 -->
<!-- Title: lib/Dialect/AMDGPU Pages: 1 -->
<svg width="352pt" height="159pt"
 viewBox="0.00 0.00 352.00 159.00" xmlns="http://www.w3.org/2000/svg" xmlns:xlink="http://www.w3.org/1999/xlink">
<g id="graph0" class="graph" transform="scale(1 1) rotate(0) translate(4 155)">
<title>lib/Dialect/AMDGPU</title>
<g id="clust1" class="cluster">
<title>clusterdir_1a25ec519b6c1121408b67cc33ce3f15</title>
<g id="a_clust1"><a xlink:href="dir_1a25ec519b6c1121408b67cc33ce3f15.html" target="_top" xlink:title="Dialect">
<polygon fill="#ddddee" stroke="black" points="8,-56 8,-143 336,-143 336,-56 8,-56"/>
<text text-anchor="middle" x="172" y="-131" font-family="Helvetica,sans-Serif" font-size="10.00">Dialect</text>
</a>
</g>
</g>
<g id="clust2" class="cluster">
<title>clusterdir_b7231f3eb617a250cb5fca91dcf2ee23</title>
<g id="a_clust2"><a xlink:href="dir_b7231f3eb617a250cb5fca91dcf2ee23.html" target="_top">
<polygon fill="#eeeeff" stroke="black" points="16,-64 16,-116 328,-116 328,-64 16,-64"/>
</a>
</g>
</g>
<!-- dir_b7231f3eb617a250cb5fca91dcf2ee23 -->
<g id="node1" class="node">
<title>dir_b7231f3eb617a250cb5fca91dcf2ee23</title>
<text text-anchor="middle" x="289" y="-87.5" font-family="Helvetica,sans-Serif" font-size="10.00">AMDGPU</text>
</g>
<!-- dir_eec20cdae5bfecb4b2f00ab033fc0b01 -->
<g id="node2" class="node">
<title>dir_eec20cdae5bfecb4b2f00ab033fc0b01</title>
<g id="a_node2"><a xlink:href="dir_eec20cdae5bfecb4b2f00ab033fc0b01.html" target="_top" xlink:title="IR">
<polygon fill="white" stroke="black" points="240,-108 186,-108 186,-72 240,-72 240,-108"/>
<text text-anchor="middle" x="213" y="-87.5" font-family="Helvetica,sans-Serif" font-size="10.00">IR</text>
</a>
</g>
</g>
<!-- dir_d44c64559bbebec7f509842c48db8b23 -->
<g id="node5" class="node">
<title>dir_d44c64559bbebec7f509842c48db8b23</title>
<g id="a_node5"><a xlink:href="dir_d44c64559bbebec7f509842c48db8b23.html" target="_top" xlink:title="include">
<polygon fill="none" stroke="red" points="159,-36 105,-36 105,0 159,0 159,-36"/>
<text text-anchor="middle" x="132" y="-15.5" font-family="Helvetica,sans-Serif" font-size="10.00">include</text>
</a>
</g>
</g>
<!-- dir_eec20cdae5bfecb4b2f00ab033fc0b01&#45;&gt;dir_d44c64559bbebec7f509842c48db8b23 -->
<g id="edge3" class="edge">
<title>dir_eec20cdae5bfecb4b2f00ab033fc0b01&#45;&gt;dir_d44c64559bbebec7f509842c48db8b23</title>
<path fill="none" stroke="black" d="M194.49,-71.68C188.92,-66.57 182.76,-61 177,-56 171.99,-51.65 166.59,-47.1 161.33,-42.73"/>
<polygon fill="black" stroke="black" points="163.2,-39.74 153.26,-36.09 158.75,-45.14 163.2,-39.74"/>
<g id="a_edge3&#45;headlabel"><a xlink:href="dir_000481_000001.html" target="_top" xlink:title="14">
<text text-anchor="middle" x="167.78" y="-37.33" font-family="Helvetica,sans-Serif" font-size="10.00">14</text>
</a>
</g>
</g>
<!-- dir_55af76766aa8de6c5f829e94b8cd99cf -->
<g id="node3" class="node">
<title>dir_55af76766aa8de6c5f829e94b8cd99cf</title>
<g id="a_node3"><a xlink:href="dir_55af76766aa8de6c5f829e94b8cd99cf.html" target="_top" xlink:title="Transforms">
<polygon fill="white" stroke="black" points="167.5,-108 96.5,-108 96.5,-72 167.5,-72 167.5,-108"/>
<text text-anchor="middle" x="132" y="-87.5" font-family="Helvetica,sans-Serif" font-size="10.00">Transforms</text>
</a>
</g>
</g>
<!-- dir_55af76766aa8de6c5f829e94b8cd99cf&#45;&gt;dir_d44c64559bbebec7f509842c48db8b23 -->
<g id="edge2" class="edge">
<title>dir_55af76766aa8de6c5f829e94b8cd99cf&#45;&gt;dir_d44c64559bbebec7f509842c48db8b23</title>
<path fill="none" stroke="black" d="M132,-71.7C132,-63.98 132,-54.71 132,-46.11"/>
<polygon fill="black" stroke="black" points="135.5,-46.1 132,-36.1 128.5,-46.1 135.5,-46.1"/>
<g id="a_edge2&#45;headlabel"><a xlink:href="dir_000482_000001.html" target="_top" xlink:title="33">
<text text-anchor="middle" x="138.34" y="-47.2" font-family="Helvetica,sans-Serif" font-size="10.00">33</text>
</a>
</g>
</g>
<!-- dir_d8b59e38dac7d5d661b703a1fcd6401f -->
<g id="node4" class="node">
<title>dir_d8b59e38dac7d5d661b703a1fcd6401f</title>
<g id="a_node4"><a xlink:href="dir_d8b59e38dac7d5d661b703a1fcd6401f.html" target="_top" xlink:title="Utils">
<polygon fill="white" stroke="black" points="78,-108 24,-108 24,-72 78,-72 78,-108"/>
<text text-anchor="middle" x="51" y="-87.5" font-family="Helvetica,sans-Serif" font-size="10.00">Utils</text>
</a>
</g>
</g>
<!-- dir_d8b59e38dac7d5d661b703a1fcd6401f&#45;&gt;dir_d44c64559bbebec7f509842c48db8b23 -->
<g id="edge1" class="edge">
<title>dir_d8b59e38dac7d5d661b703a1fcd6401f&#45;&gt;dir_d44c64559bbebec7f509842c48db8b23</title>
<path fill="none" stroke="black" d="M70.11,-71.77C75.83,-66.66 82.14,-61.07 88,-56 92.95,-51.71 98.26,-47.19 103.41,-42.84"/>
<polygon fill="black" stroke="black" points="105.9,-45.31 111.3,-36.19 101.4,-39.96 105.9,-45.31"/>
<g id="a_edge1&#45;headlabel"><a xlink:href="dir_000483_000001.html" target="_top" xlink:title="1">
<text text-anchor="middle" x="104.98" y="-47.3" font-family="Helvetica,sans-Serif" font-size="10.00">1</text>
</a>
</g>
</g>
</g>
</svg>
