<?xml version="1.0" encoding="UTF-8" standalone="no"?>
<!DOCTYPE svg PUBLIC "-//W3C//DTD SVG 1.1//EN"
 "http://www.w3.org/Graphics/SVG/1.1/DTD/svg11.dtd">
<!-- Generated by graphviz version 2.43.0 (0)
 -->
<!-- Title: lib/Conversion/ArithToSPIRV Pages: 1 -->
<svg width="131pt" height="223pt"
 viewBox="0.00 0.00 131.00 223.00" xmlns="http://www.w3.org/2000/svg" xmlns:xlink="http://www.w3.org/1999/xlink">
<g id="graph0" class="graph" transform="scale(1 1) rotate(0) translate(4 219)">
<title>lib/Conversion/ArithToSPIRV</title>
<g id="clust1" class="cluster">
<title>clusterdir_fb3681dc9150b247305e64d29dbc20b7</title>
<g id="a_clust1"><a xlink:href="dir_fb3681dc9150b247305e64d29dbc20b7.html" target="_top" xlink:title="Conversion">
<polygon fill="#ddddee" stroke="black" points="8,-64 8,-207 112,-207 112,-64 8,-64"/>
<text text-anchor="middle" x="60" y="-195" font-family="Helvetica,sans-Serif" font-size="10.00">Conversion</text>
</a>
</g>
</g>
<!-- dir_e58ecbc97fb23cd16c10c33a5276e2c7 -->
<g id="node1" class="node">
<title>dir_e58ecbc97fb23cd16c10c33a5276e2c7</title>
<g id="a_node1"><a xlink:href="dir_e58ecbc97fb23cd16c10c33a5276e2c7.html" target="_top" xlink:title="SPIRVCommon">
<polygon fill="none" stroke="black" points="104.5,-108 15.5,-108 15.5,-72 104.5,-72 104.5,-108"/>
<text text-anchor="middle" x="60" y="-87.5" font-family="Helvetica,sans-Serif" font-size="10.00">SPIRVCommon</text>
</a>
</g>
</g>
<!-- dir_d44c64559bbebec7f509842c48db8b23 -->
<g id="node3" class="node">
<title>dir_d44c64559bbebec7f509842c48db8b23</title>
<g id="a_node3"><a xlink:href="dir_d44c64559bbebec7f509842c48db8b23.html" target="_top" xlink:title="include">
<polygon fill="none" stroke="red" points="123,-36 69,-36 69,0 123,0 123,-36"/>
<text text-anchor="middle" x="96" y="-15.5" font-family="Helvetica,sans-Serif" font-size="10.00">include</text>
</a>
</g>
</g>
<!-- dir_e58ecbc97fb23cd16c10c33a5276e2c7&#45;&gt;dir_d44c64559bbebec7f509842c48db8b23 -->
<g id="edge3" class="edge">
<title>dir_e58ecbc97fb23cd16c10c33a5276e2c7&#45;&gt;dir_d44c64559bbebec7f509842c48db8b23</title>
<path fill="none" stroke="black" d="M68.9,-71.7C73,-63.73 77.95,-54.1 82.49,-45.26"/>
<polygon fill="black" stroke="black" points="85.74,-46.6 87.2,-36.1 79.52,-43.4 85.74,-46.6"/>
<g id="a_edge3&#45;headlabel"><a xlink:href="dir_000095_000001.html" target="_top" xlink:title="4">
<text text-anchor="middle" x="86.62" y="-48.59" font-family="Helvetica,sans-Serif" font-size="10.00">4</text>
</a>
</g>
</g>
<!-- dir_3c47d40bf15d2abcf2edfef873d76b22 -->
<g id="node2" class="node">
<title>dir_3c47d40bf15d2abcf2edfef873d76b22</title>
<g id="a_node2"><a xlink:href="dir_3c47d40bf15d2abcf2edfef873d76b22.html" target="_top" xlink:title="ArithToSPIRV">
<polygon fill="#eeeeff" stroke="black" points="101.5,-180 22.5,-180 22.5,-144 101.5,-144 101.5,-180"/>
<text text-anchor="middle" x="62" y="-159.5" font-family="Helvetica,sans-Serif" font-size="10.00">ArithToSPIRV</text>
</a>
</g>
</g>
<!-- dir_3c47d40bf15d2abcf2edfef873d76b22&#45;&gt;dir_e58ecbc97fb23cd16c10c33a5276e2c7 -->
<g id="edge2" class="edge">
<title>dir_3c47d40bf15d2abcf2edfef873d76b22&#45;&gt;dir_e58ecbc97fb23cd16c10c33a5276e2c7</title>
<path fill="none" stroke="black" d="M61.51,-143.7C61.29,-135.98 61.02,-126.71 60.77,-118.11"/>
<polygon fill="black" stroke="black" points="64.27,-118 60.49,-108.1 57.28,-118.2 64.27,-118"/>
<g id="a_edge2&#45;headlabel"><a xlink:href="dir_000397_000095.html" target="_top" xlink:title="1">
<text text-anchor="middle" x="67.21" y="-119.01" font-family="Helvetica,sans-Serif" font-size="10.00">1</text>
</a>
</g>
</g>
<!-- dir_3c47d40bf15d2abcf2edfef873d76b22&#45;&gt;dir_d44c64559bbebec7f509842c48db8b23 -->
<g id="edge1" class="edge">
<title>dir_3c47d40bf15d2abcf2edfef873d76b22&#45;&gt;dir_d44c64559bbebec7f509842c48db8b23</title>
<path fill="none" stroke="black" d="M85.3,-143.82C95.9,-134.54 107.32,-122.09 113,-108 121.09,-87.93 115.58,-63.74 108.75,-45.65"/>
<polygon fill="black" stroke="black" points="111.94,-44.2 104.9,-36.29 105.46,-46.87 111.94,-44.2"/>
<g id="a_edge1&#45;headlabel"><a xlink:href="dir_000397_000001.html" target="_top" xlink:title="10">
<text text-anchor="middle" x="115.93" y="-43.95" font-family="Helvetica,sans-Serif" font-size="10.00">10</text>
</a>
</g>
</g>
</g>
</svg>
