<?xml version="1.0" encoding="UTF-8" standalone="no"?>
<!DOCTYPE svg PUBLIC "-//W3C//DTD SVG 1.1//EN"
 "http://www.w3.org/Graphics/SVG/1.1/DTD/svg11.dtd">
<!-- Generated by graphviz version 2.43.0 (0)
 -->
<!-- Title: include/mlir/Analysis Pages: 1 -->
<svg width="378pt" height="343pt"
 viewBox="0.00 0.00 378.00 342.53" xmlns="http://www.w3.org/2000/svg" xmlns:xlink="http://www.w3.org/1999/xlink">
<g id="graph0" class="graph" transform="scale(1 1) rotate(0) translate(4 338.53)">
<title>include/mlir/Analysis</title>
<g id="clust1" class="cluster">
<title>clusterdir_5654f77406fb9ceec87e68ef828ceea2</title>
<g id="a_clust1"><a xlink:href="dir_5654f77406fb9ceec87e68ef828ceea2.html" target="_top" xlink:title="mlir">
<polygon fill="#ddddee" stroke="black" points="8,-8 8,-303 362,-303 362,-8 8,-8"/>
<text text-anchor="middle" x="185" y="-291" font-family="Helvetica,sans-Serif" font-size="10.00">mlir</text>
</a>
</g>
</g>
<g id="clust2" class="cluster">
<title>clusterdir_444b57698294f6a80104968315903582</title>
<g id="a_clust2"><a xlink:href="dir_444b57698294f6a80104968315903582.html" target="_top">
<polygon fill="#eeeeff" stroke="black" points="98,-152 98,-276 354,-276 354,-152 98,-152"/>
</a>
</g>
</g>
<!-- dir_84ef7c054b4edc3447cfba80cee80f65 -->
<g id="node1" class="node">
<title>dir_84ef7c054b4edc3447cfba80cee80f65</title>
<g id="a_node1"><a xlink:href="dir_84ef7c054b4edc3447cfba80cee80f65.html" target="_top" xlink:title="IR">
<polygon fill="none" stroke="black" points="90,-196 36,-196 36,-160 90,-160 90,-196"/>
<text text-anchor="middle" x="63" y="-175.5" font-family="Helvetica,sans-Serif" font-size="10.00">IR</text>
</a>
</g>
</g>
<!-- dir_f61d47671007dfdb592580b61f960d39 -->
<g id="node3" class="node">
<title>dir_f61d47671007dfdb592580b61f960d39</title>
<g id="a_node3"><a xlink:href="dir_f61d47671007dfdb592580b61f960d39.html" target="_top" xlink:title="Support">
<polygon fill="none" stroke="black" points="116,-52 62,-52 62,-16 116,-16 116,-52"/>
<text text-anchor="middle" x="89" y="-31.5" font-family="Helvetica,sans-Serif" font-size="10.00">Support</text>
</a>
</g>
</g>
<!-- dir_84ef7c054b4edc3447cfba80cee80f65&#45;&gt;dir_f61d47671007dfdb592580b61f960d39 -->
<g id="edge2" class="edge">
<title>dir_84ef7c054b4edc3447cfba80cee80f65&#45;&gt;dir_f61d47671007dfdb592580b61f960d39</title>
<path fill="none" stroke="black" d="M64.34,-159.81C65.93,-141.8 69,-112.72 74,-88 75.75,-79.34 78.19,-70.02 80.6,-61.65"/>
<polygon fill="black" stroke="black" points="83.97,-62.61 83.47,-52.02 77.26,-60.61 83.97,-62.61"/>
<g id="a_edge2&#45;headlabel"><a xlink:href="dir_000046_000288.html" target="_top" xlink:title="23">
<text text-anchor="middle" x="85.66" y="-64.36" font-family="Helvetica,sans-Serif" font-size="10.00">23</text>
</a>
</g>
</g>
<!-- dir_cf63c3ddb21c79ef735682489f4c6a69 -->
<g id="node4" class="node">
<title>dir_cf63c3ddb21c79ef735682489f4c6a69</title>
<g id="a_node4"><a xlink:href="dir_cf63c3ddb21c79ef735682489f4c6a69.html" target="_top" xlink:title="Interfaces">
<polygon fill="none" stroke="red" points="147.5,-124 82.5,-124 82.5,-88 147.5,-88 147.5,-124"/>
<text text-anchor="middle" x="115" y="-103.5" font-family="Helvetica,sans-Serif" font-size="10.00">Interfaces</text>
</a>
</g>
</g>
<!-- dir_84ef7c054b4edc3447cfba80cee80f65&#45;&gt;dir_cf63c3ddb21c79ef735682489f4c6a69 -->
<g id="edge1" class="edge">
<title>dir_84ef7c054b4edc3447cfba80cee80f65&#45;&gt;dir_cf63c3ddb21c79ef735682489f4c6a69</title>
<path fill="none" stroke="black" d="M69.94,-159.7C75.31,-151.3 82.72,-141.07 90.04,-131.86"/>
<polygon fill="black" stroke="black" points="92.77,-134.06 96.4,-124.1 87.35,-129.62 92.77,-134.06"/>
<g id="a_edge1&#45;headlabel"><a xlink:href="dir_000046_000279.html" target="_top" xlink:title="3">
<text text-anchor="middle" x="92.68" y="-136.14" font-family="Helvetica,sans-Serif" font-size="10.00">3</text>
</a>
</g>
</g>
<!-- dir_cab9f8330899b1cc9d753b1d9c5c5a3e -->
<g id="node2" class="node">
<title>dir_cab9f8330899b1cc9d753b1d9c5c5a3e</title>
<g id="a_node2"><a xlink:href="dir_cab9f8330899b1cc9d753b1d9c5c5a3e.html" target="_top" xlink:title="Pass">
<polygon fill="none" stroke="black" points="88,-268 34,-268 34,-232 88,-232 88,-268"/>
<text text-anchor="middle" x="61" y="-247.5" font-family="Helvetica,sans-Serif" font-size="10.00">Pass</text>
</a>
</g>
</g>
<!-- dir_cab9f8330899b1cc9d753b1d9c5c5a3e&#45;&gt;dir_84ef7c054b4edc3447cfba80cee80f65 -->
<g id="edge12" class="edge">
<title>dir_cab9f8330899b1cc9d753b1d9c5c5a3e&#45;&gt;dir_84ef7c054b4edc3447cfba80cee80f65</title>
<path fill="none" stroke="black" d="M61.49,-231.7C61.71,-223.98 61.98,-214.71 62.23,-206.11"/>
<polygon fill="black" stroke="black" points="65.72,-206.2 62.51,-196.1 58.73,-206 65.72,-206.2"/>
<g id="a_edge12&#45;headlabel"><a xlink:href="dir_000053_000046.html" target="_top" xlink:title="4">
<text text-anchor="middle" x="68.46" y="-207.37" font-family="Helvetica,sans-Serif" font-size="10.00">4</text>
</a>
</g>
</g>
<!-- dir_cab9f8330899b1cc9d753b1d9c5c5a3e&#45;&gt;dir_f61d47671007dfdb592580b61f960d39 -->
<g id="edge13" class="edge">
<title>dir_cab9f8330899b1cc9d753b1d9c5c5a3e&#45;&gt;dir_f61d47671007dfdb592580b61f960d39</title>
<path fill="none" stroke="black" d="M46.25,-231.63C38.91,-221.85 30.81,-209.01 27,-196 21.5,-177.23 22.28,-170.98 27,-152 35.42,-118.12 55.66,-83.27 70.74,-60.52"/>
<polygon fill="black" stroke="black" points="73.72,-62.37 76.44,-52.13 67.93,-58.44 73.72,-62.37"/>
<g id="a_edge13&#45;headlabel"><a xlink:href="dir_000053_000288.html" target="_top" xlink:title="6">
<text text-anchor="middle" x="74.05" y="-64.44" font-family="Helvetica,sans-Serif" font-size="10.00">6</text>
</a>
</g>
</g>
<!-- dir_cf63c3ddb21c79ef735682489f4c6a69&#45;&gt;dir_84ef7c054b4edc3447cfba80cee80f65 -->
<g id="edge10" class="edge">
<title>dir_cf63c3ddb21c79ef735682489f4c6a69&#45;&gt;dir_84ef7c054b4edc3447cfba80cee80f65</title>
<path fill="none" stroke="black" d="M108.19,-124.1C102.85,-132.47 95.46,-142.69 88.13,-151.92"/>
<polygon fill="black" stroke="black" points="85.39,-149.74 81.77,-159.7 90.81,-154.17 85.39,-149.74"/>
<g id="a_edge10&#45;headlabel"><a xlink:href="dir_000279_000046.html" target="_top" xlink:title="54">
<text text-anchor="middle" x="85.47" y="-142.66" font-family="Helvetica,sans-Serif" font-size="10.00">54</text>
</a>
</g>
</g>
<!-- dir_cf63c3ddb21c79ef735682489f4c6a69&#45;&gt;dir_f61d47671007dfdb592580b61f960d39 -->
<g id="edge11" class="edge">
<title>dir_cf63c3ddb21c79ef735682489f4c6a69&#45;&gt;dir_f61d47671007dfdb592580b61f960d39</title>
<path fill="none" stroke="black" d="M108.57,-87.7C105.64,-79.81 102.11,-70.3 98.86,-61.55"/>
<polygon fill="black" stroke="black" points="102.12,-60.26 95.35,-52.1 95.55,-62.7 102.12,-60.26"/>
<g id="a_edge11&#45;headlabel"><a xlink:href="dir_000279_000288.html" target="_top" xlink:title="2">
<text text-anchor="middle" x="106.03" y="-60.14" font-family="Helvetica,sans-Serif" font-size="10.00">2</text>
</a>
</g>
</g>
<!-- dir_444b57698294f6a80104968315903582 -->
<g id="node5" class="node">
<title>dir_444b57698294f6a80104968315903582</title>
<text text-anchor="middle" x="317" y="-247.5" font-family="Helvetica,sans-Serif" font-size="10.00">Analysis</text>
</g>
<!-- dir_cf63c3ddb21c79ef735682489f4c6a69&#45;&gt;dir_444b57698294f6a80104968315903582 -->
<g id="edge9" class="edge">
<title>dir_cf63c3ddb21c79ef735682489f4c6a69&#45;&gt;dir_444b57698294f6a80104968315903582</title>
<path fill="none" stroke="black" d="M147.62,-123.82C162.41,-131.83 179.93,-141.86 195,-152 229.09,-174.93 265.66,-204.78 289.78,-225.28"/>
<polygon fill="black" stroke="black" points="287.58,-228.01 297.45,-231.85 292.13,-222.69 287.58,-228.01"/>
<g id="a_edge9&#45;headlabel"><a xlink:href="dir_000279_000009.html" target="_top" xlink:title="1">
<text text-anchor="middle" x="283" y="-225.33" font-family="Helvetica,sans-Serif" font-size="10.00">1</text>
</a>
</g>
</g>
<!-- dir_444b57698294f6a80104968315903582&#45;&gt;dir_84ef7c054b4edc3447cfba80cee80f65 -->
<g id="edge3" class="edge">
<title>dir_444b57698294f6a80104968315903582&#45;&gt;dir_84ef7c054b4edc3447cfba80cee80f65</title>
<path fill="none" stroke="black" d="M287.8,-235.14C284.86,-233.99 281.89,-232.92 279,-232 202.41,-207.77 175.03,-223.1 100.06,-197.95"/>
<polygon fill="black" stroke="black" points="100.76,-194.49 90.17,-194.49 98.46,-201.1 100.76,-194.49"/>
<g id="a_edge3&#45;headlabel"><a xlink:href="dir_000009_000046.html" target="_top" xlink:title="12">
<text text-anchor="middle" x="105.09" y="-190.49" font-family="Helvetica,sans-Serif" font-size="10.00">12</text>
</a>
</g>
</g>
<!-- dir_444b57698294f6a80104968315903582&#45;&gt;dir_cab9f8330899b1cc9d753b1d9c5c5a3e -->
<g id="edge4" class="edge">
<title>dir_444b57698294f6a80104968315903582&#45;&gt;dir_cab9f8330899b1cc9d753b1d9c5c5a3e</title>
<path fill="none" stroke="black" d="M310.79,-268.06C303.82,-285.18 290.7,-309.88 270,-321 237.31,-338.56 135.24,-339.39 103,-321 86.88,-311.8 76.31,-293.72 69.81,-278.11"/>
<polygon fill="black" stroke="black" points="72.92,-276.43 66.11,-268.32 66.38,-278.91 72.92,-276.43"/>
<g id="a_edge4&#45;headlabel"><a xlink:href="dir_000009_000053.html" target="_top" xlink:title="1">
<text text-anchor="middle" x="76.85" y="-276.29" font-family="Helvetica,sans-Serif" font-size="10.00">1</text>
</a>
</g>
</g>
<!-- dir_444b57698294f6a80104968315903582&#45;&gt;dir_f61d47671007dfdb592580b61f960d39 -->
<g id="edge5" class="edge">
<title>dir_444b57698294f6a80104968315903582&#45;&gt;dir_f61d47671007dfdb592580b61f960d39</title>
<path fill="none" stroke="black" d="M302.27,-231.67C285.21,-211.85 255.99,-178.71 229,-152 198.57,-121.88 189.9,-115.4 157,-88 145.06,-78.06 131.62,-67.46 119.87,-58.38"/>
<polygon fill="black" stroke="black" points="121.71,-55.38 111.65,-52.07 117.44,-60.94 121.71,-55.38"/>
<g id="a_edge5&#45;headlabel"><a xlink:href="dir_000009_000288.html" target="_top" xlink:title="5">
<text text-anchor="middle" x="126.29" y="-52.82" font-family="Helvetica,sans-Serif" font-size="10.00">5</text>
</a>
</g>
</g>
<!-- dir_fc867c0964fa022c2396412aff7d9a51 -->
<g id="node8" class="node">
<title>dir_fc867c0964fa022c2396412aff7d9a51</title>
<g id="a_node8"><a xlink:href="dir_fc867c0964fa022c2396412aff7d9a51.html" target="_top" xlink:title="Presburger">
<polygon fill="white" stroke="black" points="177.5,-196 108.5,-196 108.5,-160 177.5,-160 177.5,-196"/>
<text text-anchor="middle" x="143" y="-175.5" font-family="Helvetica,sans-Serif" font-size="10.00">Presburger</text>
</a>
</g>
</g>
<!-- dir_444b57698294f6a80104968315903582&#45;&gt;dir_fc867c0964fa022c2396412aff7d9a51 -->
<g id="edge6" class="edge">
<title>dir_444b57698294f6a80104968315903582&#45;&gt;dir_fc867c0964fa022c2396412aff7d9a51</title>
<path fill="none" stroke="black" d="M287.62,-235.63C284.72,-234.38 281.81,-233.15 279,-232 239.43,-215.82 226.46,-213.47 187.21,-198.04"/>
<polygon fill="black" stroke="black" points="188.42,-194.75 177.83,-194.3 185.82,-201.25 188.42,-194.75"/>
<g id="a_edge6&#45;headlabel"><a xlink:href="dir_000009_000012.html" target="_top" xlink:title="2">
<text text-anchor="middle" x="192.81" y="-190.94" font-family="Helvetica,sans-Serif" font-size="10.00">2</text>
</a>
</g>
</g>
<!-- dir_c0555f780634181d530515feb9cd7844 -->
<g id="node6" class="node">
<title>dir_c0555f780634181d530515feb9cd7844</title>
<g id="a_node6"><a xlink:href="dir_c0555f780634181d530515feb9cd7844.html" target="_top" xlink:title="AliasAnalysis">
<polygon fill="white" stroke="black" points="270,-268 188,-268 188,-232 270,-232 270,-268"/>
<text text-anchor="middle" x="229" y="-247.5" font-family="Helvetica,sans-Serif" font-size="10.00">AliasAnalysis</text>
</a>
</g>
</g>
<!-- dir_c32e9b32f9d4b58f5210fd11b1927290 -->
<g id="node7" class="node">
<title>dir_c32e9b32f9d4b58f5210fd11b1927290</title>
<g id="a_node7"><a xlink:href="dir_c32e9b32f9d4b58f5210fd11b1927290.html" target="_top" xlink:title="DataFlow">
<polygon fill="white" stroke="black" points="169.5,-268 106.5,-268 106.5,-232 169.5,-232 169.5,-268"/>
<text text-anchor="middle" x="138" y="-247.5" font-family="Helvetica,sans-Serif" font-size="10.00">DataFlow</text>
</a>
</g>
</g>
<!-- dir_c32e9b32f9d4b58f5210fd11b1927290&#45;&gt;dir_84ef7c054b4edc3447cfba80cee80f65 -->
<g id="edge7" class="edge">
<title>dir_c32e9b32f9d4b58f5210fd11b1927290&#45;&gt;dir_84ef7c054b4edc3447cfba80cee80f65</title>
<path fill="none" stroke="black" d="M119.46,-231.7C110.2,-223.05 98.84,-212.45 88.74,-203.03"/>
<polygon fill="black" stroke="black" points="91.02,-200.37 81.33,-196.1 86.25,-205.49 91.02,-200.37"/>
<g id="a_edge7&#45;headlabel"><a xlink:href="dir_000011_000046.html" target="_top" xlink:title="3">
<text text-anchor="middle" x="95.59" y="-198.25" font-family="Helvetica,sans-Serif" font-size="10.00">3</text>
</a>
</g>
</g>
<!-- dir_c32e9b32f9d4b58f5210fd11b1927290&#45;&gt;dir_cf63c3ddb21c79ef735682489f4c6a69 -->
<g id="edge8" class="edge">
<title>dir_c32e9b32f9d4b58f5210fd11b1927290&#45;&gt;dir_cf63c3ddb21c79ef735682489f4c6a69</title>
<path fill="none" stroke="black" d="M160.15,-231.87C170.41,-222.52 181.52,-210 187,-196 194.13,-177.79 196.48,-169.1 187,-152 180.28,-139.88 168.78,-130.59 156.93,-123.69"/>
<polygon fill="black" stroke="black" points="158.33,-120.47 147.86,-118.87 155.05,-126.65 158.33,-120.47"/>
<g id="a_edge8&#45;headlabel"><a xlink:href="dir_000011_000279.html" target="_top" xlink:title="5">
<text text-anchor="middle" x="162.84" y="-117.15" font-family="Helvetica,sans-Serif" font-size="10.00">5</text>
</a>
</g>
</g>
</g>
</svg>
