<?xml version="1.0" encoding="UTF-8" standalone="no"?>
<!DOCTYPE svg PUBLIC "-//W3C//DTD SVG 1.1//EN"
 "http://www.w3.org/Graphics/SVG/1.1/DTD/svg11.dtd">
<!-- Generated by graphviz version 2.43.0 (0)
 -->
<!-- Title: include/mlir/Dialect/MLProgram/Transforms Pages: 1 -->
<svg width="142pt" height="295pt"
 viewBox="0.00 0.00 142.00 295.00" xmlns="http://www.w3.org/2000/svg" xmlns:xlink="http://www.w3.org/1999/xlink">
<g id="graph0" class="graph" transform="scale(1 1) rotate(0) translate(4 291)">
<title>include/mlir/Dialect/MLProgram/Transforms</title>
<g id="clust1" class="cluster">
<title>clusterdir_6c80726a73b688328e77ceb17b3e2d25</title>
<g id="a_clust1"><a xlink:href="dir_6c80726a73b688328e77ceb17b3e2d25.html" target="_top" xlink:title="MLProgram">
<polygon fill="#ddddee" stroke="black" points="38,-208 38,-279 126,-279 126,-208 38,-208"/>
<text text-anchor="middle" x="82" y="-267" font-family="Helvetica,sans-Serif" font-size="10.00">MLProgram</text>
</a>
</g>
</g>
<!-- dir_251d35077a4038baf2ff64ec15c82a24 -->
<g id="node1" class="node">
<title>dir_251d35077a4038baf2ff64ec15c82a24</title>
<g id="a_node1"><a xlink:href="dir_251d35077a4038baf2ff64ec15c82a24.html" target="_top" xlink:title="Transforms">
<polygon fill="#eeeeff" stroke="black" points="117.5,-252 46.5,-252 46.5,-216 117.5,-216 117.5,-252"/>
<text text-anchor="middle" x="82" y="-231.5" font-family="Helvetica,sans-Serif" font-size="10.00">Transforms</text>
</a>
</g>
</g>
<!-- dir_342ad3e7b83526a7f418520e380404a9 -->
<g id="node2" class="node">
<title>dir_342ad3e7b83526a7f418520e380404a9</title>
<g id="a_node2"><a xlink:href="dir_342ad3e7b83526a7f418520e380404a9.html" target="_top" xlink:title="Func">
<polygon fill="none" stroke="red" points="54,-180 0,-180 0,-144 54,-144 54,-180"/>
<text text-anchor="middle" x="27" y="-159.5" font-family="Helvetica,sans-Serif" font-size="10.00">Func</text>
</a>
</g>
</g>
<!-- dir_251d35077a4038baf2ff64ec15c82a24&#45;&gt;dir_342ad3e7b83526a7f418520e380404a9 -->
<g id="edge4" class="edge">
<title>dir_251d35077a4038baf2ff64ec15c82a24&#45;&gt;dir_342ad3e7b83526a7f418520e380404a9</title>
<path fill="none" stroke="black" d="M68.4,-215.7C61.88,-207.39 53.93,-197.28 46.75,-188.14"/>
<polygon fill="black" stroke="black" points="49.37,-185.81 40.44,-180.1 43.87,-190.13 49.37,-185.81"/>
<g id="a_edge4&#45;headlabel"><a xlink:href="dir_000132_000021.html" target="_top" xlink:title="1">
<text text-anchor="middle" x="53.82" y="-184.38" font-family="Helvetica,sans-Serif" font-size="10.00">1</text>
</a>
</g>
</g>
<!-- dir_84ef7c054b4edc3447cfba80cee80f65 -->
<g id="node3" class="node">
<title>dir_84ef7c054b4edc3447cfba80cee80f65</title>
<g id="a_node3"><a xlink:href="dir_84ef7c054b4edc3447cfba80cee80f65.html" target="_top" xlink:title="IR">
<polygon fill="none" stroke="black" points="100,-36 46,-36 46,0 100,0 100,-36"/>
<text text-anchor="middle" x="73" y="-15.5" font-family="Helvetica,sans-Serif" font-size="10.00">IR</text>
</a>
</g>
</g>
<!-- dir_251d35077a4038baf2ff64ec15c82a24&#45;&gt;dir_84ef7c054b4edc3447cfba80cee80f65 -->
<g id="edge5" class="edge">
<title>dir_251d35077a4038baf2ff64ec15c82a24&#45;&gt;dir_84ef7c054b4edc3447cfba80cee80f65</title>
<path fill="none" stroke="black" d="M90.02,-215.74C102.76,-185.88 124.66,-122.93 109,-72 105.99,-62.22 100.49,-52.62 94.68,-44.33"/>
<polygon fill="black" stroke="black" points="97.41,-42.13 88.61,-36.23 91.81,-46.33 97.41,-42.13"/>
<g id="a_edge5&#45;headlabel"><a xlink:href="dir_000132_000046.html" target="_top" xlink:title="1">
<text text-anchor="middle" x="101.83" y="-40.8" font-family="Helvetica,sans-Serif" font-size="10.00">1</text>
</a>
</g>
</g>
<!-- dir_cab9f8330899b1cc9d753b1d9c5c5a3e -->
<g id="node4" class="node">
<title>dir_cab9f8330899b1cc9d753b1d9c5c5a3e</title>
<g id="a_node4"><a xlink:href="dir_cab9f8330899b1cc9d753b1d9c5c5a3e.html" target="_top" xlink:title="Pass">
<polygon fill="none" stroke="black" points="100,-108 46,-108 46,-72 100,-72 100,-108"/>
<text text-anchor="middle" x="73" y="-87.5" font-family="Helvetica,sans-Serif" font-size="10.00">Pass</text>
</a>
</g>
</g>
<!-- dir_251d35077a4038baf2ff64ec15c82a24&#45;&gt;dir_cab9f8330899b1cc9d753b1d9c5c5a3e -->
<g id="edge6" class="edge">
<title>dir_251d35077a4038baf2ff64ec15c82a24&#45;&gt;dir_cab9f8330899b1cc9d753b1d9c5c5a3e</title>
<path fill="none" stroke="black" d="M80.91,-215.87C79.38,-191.67 76.56,-147.21 74.74,-118.39"/>
<polygon fill="black" stroke="black" points="78.22,-117.95 74.09,-108.19 71.23,-118.39 78.22,-117.95"/>
<g id="a_edge6&#45;headlabel"><a xlink:href="dir_000132_000053.html" target="_top" xlink:title="1">
<text text-anchor="middle" x="81.28" y="-118.86" font-family="Helvetica,sans-Serif" font-size="10.00">1</text>
</a>
</g>
</g>
<!-- dir_342ad3e7b83526a7f418520e380404a9&#45;&gt;dir_84ef7c054b4edc3447cfba80cee80f65 -->
<g id="edge1" class="edge">
<title>dir_342ad3e7b83526a7f418520e380404a9&#45;&gt;dir_84ef7c054b4edc3447cfba80cee80f65</title>
<path fill="none" stroke="black" d="M26.52,-143.71C26.56,-125.35 28.21,-95.77 37,-72 40.55,-62.4 46.2,-52.85 51.98,-44.56"/>
<polygon fill="black" stroke="black" points="54.86,-46.55 57.97,-36.42 49.23,-42.4 54.86,-46.55"/>
<g id="a_edge1&#45;headlabel"><a xlink:href="dir_000021_000046.html" target="_top" xlink:title="8">
<text text-anchor="middle" x="55.02" y="-48.63" font-family="Helvetica,sans-Serif" font-size="10.00">8</text>
</a>
</g>
</g>
<!-- dir_342ad3e7b83526a7f418520e380404a9&#45;&gt;dir_cab9f8330899b1cc9d753b1d9c5c5a3e -->
<g id="edge2" class="edge">
<title>dir_342ad3e7b83526a7f418520e380404a9&#45;&gt;dir_cab9f8330899b1cc9d753b1d9c5c5a3e</title>
<path fill="none" stroke="black" d="M38.37,-143.7C43.72,-135.56 50.2,-125.69 56.11,-116.7"/>
<polygon fill="black" stroke="black" points="59.19,-118.38 61.76,-108.1 53.34,-114.54 59.19,-118.38"/>
<g id="a_edge2&#45;headlabel"><a xlink:href="dir_000021_000053.html" target="_top" xlink:title="1">
<text text-anchor="middle" x="59.59" y="-120.45" font-family="Helvetica,sans-Serif" font-size="10.00">1</text>
</a>
</g>
</g>
<!-- dir_cab9f8330899b1cc9d753b1d9c5c5a3e&#45;&gt;dir_84ef7c054b4edc3447cfba80cee80f65 -->
<g id="edge3" class="edge">
<title>dir_cab9f8330899b1cc9d753b1d9c5c5a3e&#45;&gt;dir_84ef7c054b4edc3447cfba80cee80f65</title>
<path fill="none" stroke="black" d="M73,-71.7C73,-63.98 73,-54.71 73,-46.11"/>
<polygon fill="black" stroke="black" points="76.5,-46.1 73,-36.1 69.5,-46.1 76.5,-46.1"/>
<g id="a_edge3&#45;headlabel"><a xlink:href="dir_000053_000046.html" target="_top" xlink:title="4">
<text text-anchor="middle" x="79.34" y="-47.2" font-family="Helvetica,sans-Serif" font-size="10.00">4</text>
</a>
</g>
</g>
</g>
</svg>
