<?xml version="1.0" encoding="UTF-8" standalone="no"?>
<!DOCTYPE svg PUBLIC "-//W3C//DTD SVG 1.1//EN"
 "http://www.w3.org/Graphics/SVG/1.1/DTD/svg11.dtd">
<!-- Generated by graphviz version 2.43.0 (0)
 -->
<!-- Title: include/mlir/Dialect/NVGPU/TransformOps Pages: 1 -->
<svg width="130pt" height="223pt"
 viewBox="0.00 0.00 129.50 223.00" xmlns="http://www.w3.org/2000/svg" xmlns:xlink="http://www.w3.org/1999/xlink">
<g id="graph0" class="graph" transform="scale(1 1) rotate(0) translate(4 219)">
<title>include/mlir/Dialect/NVGPU/TransformOps</title>
<g id="clust1" class="cluster">
<title>clusterdir_9d4bae939983f9814fa2cd5312959fbb</title>
<g id="a_clust1"><a xlink:href="dir_9d4bae939983f9814fa2cd5312959fbb.html" target="_top" xlink:title="NVGPU">
<polygon fill="#ddddee" stroke="black" points="13.5,-136 13.5,-207 113.5,-207 113.5,-136 13.5,-136"/>
<text text-anchor="middle" x="63.5" y="-195" font-family="Helvetica,sans-Serif" font-size="10.00">NVGPU</text>
</a>
</g>
</g>
<!-- dir_5abfdba5435786897dd62249942c6aa2 -->
<g id="node1" class="node">
<title>dir_5abfdba5435786897dd62249942c6aa2</title>
<g id="a_node1"><a xlink:href="dir_5abfdba5435786897dd62249942c6aa2.html" target="_top" xlink:title="TransformOps">
<polygon fill="#eeeeff" stroke="black" points="105.5,-180 21.5,-180 21.5,-144 105.5,-144 105.5,-180"/>
<text text-anchor="middle" x="63.5" y="-159.5" font-family="Helvetica,sans-Serif" font-size="10.00">TransformOps</text>
</a>
</g>
</g>
<!-- dir_832fe9af74a05d9f4772b8e442bafd02 -->
<g id="node2" class="node">
<title>dir_832fe9af74a05d9f4772b8e442bafd02</title>
<g id="a_node2"><a xlink:href="dir_832fe9af74a05d9f4772b8e442bafd02.html" target="_top" xlink:title="Transform">
<polygon fill="none" stroke="red" points="65,-108 0,-108 0,-72 65,-72 65,-108"/>
<text text-anchor="middle" x="32.5" y="-87.5" font-family="Helvetica,sans-Serif" font-size="10.00">Transform</text>
</a>
</g>
</g>
<!-- dir_5abfdba5435786897dd62249942c6aa2&#45;&gt;dir_832fe9af74a05d9f4772b8e442bafd02 -->
<g id="edge1" class="edge">
<title>dir_5abfdba5435786897dd62249942c6aa2&#45;&gt;dir_832fe9af74a05d9f4772b8e442bafd02</title>
<path fill="none" stroke="black" d="M55.84,-143.7C52.31,-135.73 48.04,-126.1 44.13,-117.26"/>
<polygon fill="black" stroke="black" points="47.32,-115.83 40.07,-108.1 40.92,-118.67 47.32,-115.83"/>
<g id="a_edge1&#45;headlabel"><a xlink:href="dir_000236_000033.html" target="_top" xlink:title="3">
<text text-anchor="middle" x="51.38" y="-115.47" font-family="Helvetica,sans-Serif" font-size="10.00">3</text>
</a>
</g>
</g>
<!-- dir_84ef7c054b4edc3447cfba80cee80f65 -->
<g id="node3" class="node">
<title>dir_84ef7c054b4edc3447cfba80cee80f65</title>
<g id="a_node3"><a xlink:href="dir_84ef7c054b4edc3447cfba80cee80f65.html" target="_top" xlink:title="IR">
<polygon fill="none" stroke="black" points="89.5,-36 35.5,-36 35.5,0 89.5,0 89.5,-36"/>
<text text-anchor="middle" x="62.5" y="-15.5" font-family="Helvetica,sans-Serif" font-size="10.00">IR</text>
</a>
</g>
</g>
<!-- dir_5abfdba5435786897dd62249942c6aa2&#45;&gt;dir_84ef7c054b4edc3447cfba80cee80f65 -->
<g id="edge2" class="edge">
<title>dir_5abfdba5435786897dd62249942c6aa2&#45;&gt;dir_84ef7c054b4edc3447cfba80cee80f65</title>
<path fill="none" stroke="black" d="M67.96,-143.95C70.44,-133.63 73.25,-120.15 74.5,-108 76.13,-92.08 76.28,-87.9 74.5,-72 73.54,-63.43 71.74,-54.22 69.81,-45.93"/>
<polygon fill="black" stroke="black" points="73.16,-44.89 67.37,-36.02 66.37,-46.57 73.16,-44.89"/>
<g id="a_edge2&#45;headlabel"><a xlink:href="dir_000236_000046.html" target="_top" xlink:title="2">
<text text-anchor="middle" x="76.78" y="-45.2" font-family="Helvetica,sans-Serif" font-size="10.00">2</text>
</a>
</g>
</g>
<!-- dir_832fe9af74a05d9f4772b8e442bafd02&#45;&gt;dir_84ef7c054b4edc3447cfba80cee80f65 -->
<g id="edge3" class="edge">
<title>dir_832fe9af74a05d9f4772b8e442bafd02&#45;&gt;dir_84ef7c054b4edc3447cfba80cee80f65</title>
<path fill="none" stroke="black" d="M39.92,-71.7C43.29,-63.81 47.37,-54.3 51.12,-45.55"/>
<polygon fill="black" stroke="black" points="54.45,-46.67 55.17,-36.1 48.01,-43.92 54.45,-46.67"/>
<g id="a_edge3&#45;headlabel"><a xlink:href="dir_000033_000046.html" target="_top" xlink:title="27">
<text text-anchor="middle" x="55.64" y="-48.6" font-family="Helvetica,sans-Serif" font-size="10.00">27</text>
</a>
</g>
</g>
</g>
</svg>
