<?xml version="1.0" encoding="UTF-8" standalone="no"?>
<!DOCTYPE svg PUBLIC "-//W3C//DTD SVG 1.1//EN"
 "http://www.w3.org/Graphics/SVG/1.1/DTD/svg11.dtd">
<!-- Generated by graphviz version 2.43.0 (0)
 -->
<!-- Title: include/mlir/Dialect/Linalg/Transforms Pages: 1 -->
<svg width="778pt" height="511pt"
 viewBox="0.00 0.00 778.00 511.00" xmlns="http://www.w3.org/2000/svg" xmlns:xlink="http://www.w3.org/1999/xlink">
<g id="graph0" class="graph" transform="scale(1 1) rotate(0) translate(4 507)">
<title>include/mlir/Dialect/Linalg/Transforms</title>
<g id="clust1" class="cluster">
<title>clusterdir_7d4534fbf0715cf3ed7975990f2820c5</title>
<g id="a_clust1"><a xlink:href="dir_7d4534fbf0715cf3ed7975990f2820c5.html" target="_top" xlink:title="Linalg">
<polygon fill="#ddddee" stroke="black" points="116,-352 116,-495 204,-495 204,-352 116,-352"/>
<text text-anchor="middle" x="160" y="-483" font-family="Helvetica,sans-Serif" font-size="10.00">Linalg</text>
</a>
</g>
</g>
<!-- dir_13321debcaacdcb69201ab3fc5c493de -->
<g id="node1" class="node">
<title>dir_13321debcaacdcb69201ab3fc5c493de</title>
<g id="a_node1"><a xlink:href="dir_13321debcaacdcb69201ab3fc5c493de.html" target="_top" xlink:title="Utils">
<polygon fill="none" stroke="black" points="178,-396 124,-396 124,-360 178,-360 178,-396"/>
<text text-anchor="middle" x="151" y="-375.5" font-family="Helvetica,sans-Serif" font-size="10.00">Utils</text>
</a>
</g>
</g>
<!-- dir_47aca9e8d6a16a6d14cf434a05d15774 -->
<g id="node5" class="node">
<title>dir_47aca9e8d6a16a6d14cf434a05d15774</title>
<g id="a_node5"><a xlink:href="dir_47aca9e8d6a16a6d14cf434a05d15774.html" target="_top" xlink:title="SCF">
<polygon fill="none" stroke="red" points="179,-324 125,-324 125,-288 179,-288 179,-324"/>
<text text-anchor="middle" x="152" y="-303.5" font-family="Helvetica,sans-Serif" font-size="10.00">SCF</text>
</a>
</g>
</g>
<!-- dir_13321debcaacdcb69201ab3fc5c493de&#45;&gt;dir_47aca9e8d6a16a6d14cf434a05d15774 -->
<g id="edge25" class="edge">
<title>dir_13321debcaacdcb69201ab3fc5c493de&#45;&gt;dir_47aca9e8d6a16a6d14cf434a05d15774</title>
<path fill="none" stroke="black" d="M151.25,-359.7C151.36,-351.98 151.49,-342.71 151.61,-334.11"/>
<polygon fill="black" stroke="black" points="155.11,-334.15 151.76,-324.1 148.11,-334.05 155.11,-334.15"/>
<g id="a_edge25&#45;headlabel"><a xlink:href="dir_000026_000029.html" target="_top" xlink:title="1">
<text text-anchor="middle" x="157.9" y="-335.29" font-family="Helvetica,sans-Serif" font-size="10.00">1</text>
</a>
</g>
</g>
<!-- dir_e4893b20171f621ff7a85b39656091a7 -->
<g id="node13" class="node">
<title>dir_e4893b20171f621ff7a85b39656091a7</title>
<g id="a_node13"><a xlink:href="dir_e4893b20171f621ff7a85b39656091a7.html" target="_top" xlink:title="Utils">
<polygon fill="none" stroke="black" points="141,-36 87,-36 87,0 141,0 141,-36"/>
<text text-anchor="middle" x="114" y="-15.5" font-family="Helvetica,sans-Serif" font-size="10.00">Utils</text>
</a>
</g>
</g>
<!-- dir_13321debcaacdcb69201ab3fc5c493de&#45;&gt;dir_e4893b20171f621ff7a85b39656091a7 -->
<g id="edge26" class="edge">
<title>dir_13321debcaacdcb69201ab3fc5c493de&#45;&gt;dir_e4893b20171f621ff7a85b39656091a7</title>
<path fill="none" stroke="black" d="M124.22,-359.91C90.8,-336.25 38,-290.14 38,-235 38,-235 38,-235 38,-161 38,-115.64 68.52,-70.75 90.88,-43.95"/>
<polygon fill="black" stroke="black" points="93.64,-46.09 97.51,-36.23 88.34,-41.53 93.64,-46.09"/>
<g id="a_edge26&#45;headlabel"><a xlink:href="dir_000026_000272.html" target="_top" xlink:title="1">
<text text-anchor="middle" x="93.45" y="-48.17" font-family="Helvetica,sans-Serif" font-size="10.00">1</text>
</a>
</g>
</g>
<!-- dir_2bf7b27484b15c8c863e85164c5e8ee5 -->
<g id="node2" class="node">
<title>dir_2bf7b27484b15c8c863e85164c5e8ee5</title>
<g id="a_node2"><a xlink:href="dir_2bf7b27484b15c8c863e85164c5e8ee5.html" target="_top" xlink:title="Transforms">
<polygon fill="#eeeeff" stroke="black" points="195.5,-468 124.5,-468 124.5,-432 195.5,-432 195.5,-468"/>
<text text-anchor="middle" x="160" y="-447.5" font-family="Helvetica,sans-Serif" font-size="10.00">Transforms</text>
</a>
</g>
</g>
<!-- dir_2bf7b27484b15c8c863e85164c5e8ee5&#45;&gt;dir_13321debcaacdcb69201ab3fc5c493de -->
<g id="edge35" class="edge">
<title>dir_2bf7b27484b15c8c863e85164c5e8ee5&#45;&gt;dir_13321debcaacdcb69201ab3fc5c493de</title>
<path fill="none" stroke="black" d="M157.78,-431.7C156.78,-423.98 155.59,-414.71 154.49,-406.11"/>
<polygon fill="black" stroke="black" points="157.95,-405.58 153.2,-396.1 151,-406.47 157.95,-405.58"/>
<g id="a_edge35&#45;headlabel"><a xlink:href="dir_000198_000026.html" target="_top" xlink:title="1">
<text text-anchor="middle" x="161.22" y="-406.28" font-family="Helvetica,sans-Serif" font-size="10.00">1</text>
</a>
</g>
</g>
<!-- dir_1af55d3d38bdc22b737bcb481a4c2bf6 -->
<g id="node3" class="node">
<title>dir_1af55d3d38bdc22b737bcb481a4c2bf6</title>
<g id="a_node3"><a xlink:href="dir_1af55d3d38bdc22b737bcb481a4c2bf6.html" target="_top" xlink:title="X86Vector">
<polygon fill="none" stroke="black" points="704,-468 638,-468 638,-432 704,-432 704,-468"/>
<text text-anchor="middle" x="671" y="-447.5" font-family="Helvetica,sans-Serif" font-size="10.00">X86Vector</text>
</a>
</g>
</g>
<!-- dir_2bf7b27484b15c8c863e85164c5e8ee5&#45;&gt;dir_1af55d3d38bdc22b737bcb481a4c2bf6 -->
<g id="edge36" class="edge">
<title>dir_2bf7b27484b15c8c863e85164c5e8ee5&#45;&gt;dir_1af55d3d38bdc22b737bcb481a4c2bf6</title>
<path fill="none" stroke="black" d="M195.93,-450C339.7,-450 483.47,-450 627.25,-450"/>
<polygon fill="black" stroke="black" points="627.6,-453.5 637.6,-450 627.6,-446.5 627.6,-453.5"/>
<g id="a_edge36&#45;headlabel"><a xlink:href="dir_000198_000199.html" target="_top" xlink:title="1">
<text text-anchor="middle" x="624" y="-453.84" font-family="Helvetica,sans-Serif" font-size="10.00">1</text>
</a>
</g>
</g>
<!-- dir_37f3372f1e76d74ffd54613af9306e43 -->
<g id="node4" class="node">
<title>dir_37f3372f1e76d74ffd54613af9306e43</title>
<g id="a_node4"><a xlink:href="dir_37f3372f1e76d74ffd54613af9306e43.html" target="_top" xlink:title="Conversion">
<polygon fill="none" stroke="red" points="646.5,-396 575.5,-396 575.5,-360 646.5,-360 646.5,-396"/>
<text text-anchor="middle" x="611" y="-375.5" font-family="Helvetica,sans-Serif" font-size="10.00">Conversion</text>
</a>
</g>
</g>
<!-- dir_2bf7b27484b15c8c863e85164c5e8ee5&#45;&gt;dir_37f3372f1e76d74ffd54613af9306e43 -->
<g id="edge37" class="edge">
<title>dir_2bf7b27484b15c8c863e85164c5e8ee5&#45;&gt;dir_37f3372f1e76d74ffd54613af9306e43</title>
<path fill="none" stroke="black" d="M195.56,-445.68C264.17,-438.93 419.39,-422.02 548,-396 553.69,-394.85 559.63,-393.48 565.48,-392.02"/>
<polygon fill="black" stroke="black" points="566.4,-395.4 575.21,-389.51 564.65,-388.62 566.4,-395.4"/>
<g id="a_edge37&#45;headlabel"><a xlink:href="dir_000198_000056.html" target="_top" xlink:title="1">
<text text-anchor="middle" x="563.63" y="-396.55" font-family="Helvetica,sans-Serif" font-size="10.00">1</text>
</a>
</g>
</g>
<!-- dir_2bf7b27484b15c8c863e85164c5e8ee5&#45;&gt;dir_47aca9e8d6a16a6d14cf434a05d15774 -->
<g id="edge38" class="edge">
<title>dir_2bf7b27484b15c8c863e85164c5e8ee5&#45;&gt;dir_47aca9e8d6a16a6d14cf434a05d15774</title>
<path fill="none" stroke="black" d="M171.47,-431.67C177.37,-421.69 183.96,-408.65 187,-396 191.56,-376.98 193.35,-370.5 187,-352 184.57,-344.92 180.52,-338.1 176.02,-331.99"/>
<polygon fill="black" stroke="black" points="178.72,-329.76 169.72,-324.17 173.27,-334.15 178.72,-329.76"/>
<g id="a_edge38&#45;headlabel"><a xlink:href="dir_000198_000029.html" target="_top" xlink:title="1">
<text text-anchor="middle" x="183.18" y="-328.28" font-family="Helvetica,sans-Serif" font-size="10.00">1</text>
</a>
</g>
</g>
<!-- dir_762b59f238bc9709d1f8796a74c242af -->
<g id="node6" class="node">
<title>dir_762b59f238bc9709d1f8796a74c242af</title>
<g id="a_node6"><a xlink:href="dir_762b59f238bc9709d1f8796a74c242af.html" target="_top" xlink:title="Bufferization">
<polygon fill="none" stroke="red" points="461.5,-324 382.5,-324 382.5,-288 461.5,-288 461.5,-324"/>
<text text-anchor="middle" x="422" y="-303.5" font-family="Helvetica,sans-Serif" font-size="10.00">Bufferization</text>
</a>
</g>
</g>
<!-- dir_2bf7b27484b15c8c863e85164c5e8ee5&#45;&gt;dir_762b59f238bc9709d1f8796a74c242af -->
<g id="edge39" class="edge">
<title>dir_2bf7b27484b15c8c863e85164c5e8ee5&#45;&gt;dir_762b59f238bc9709d1f8796a74c242af</title>
<path fill="none" stroke="black" d="M195.79,-441.9C230.06,-434.09 282.41,-419.42 323,-396 352.87,-378.77 381.55,-351.39 400.28,-331.55"/>
<polygon fill="black" stroke="black" points="402.96,-333.8 407.19,-324.09 397.83,-329.04 402.96,-333.8"/>
<g id="a_edge39&#45;headlabel"><a xlink:href="dir_000198_000117.html" target="_top" xlink:title="1">
<text text-anchor="middle" x="402.6" y="-335.87" font-family="Helvetica,sans-Serif" font-size="10.00">1</text>
</a>
</g>
</g>
<!-- dir_83bd8be6e9490851e8e4007286e9f64b -->
<g id="node7" class="node">
<title>dir_83bd8be6e9490851e8e4007286e9f64b</title>
<g id="a_node7"><a xlink:href="dir_83bd8be6e9490851e8e4007286e9f64b.html" target="_top" xlink:title="Tensor">
<polygon fill="none" stroke="red" points="234,-252 180,-252 180,-216 234,-216 234,-252"/>
<text text-anchor="middle" x="207" y="-231.5" font-family="Helvetica,sans-Serif" font-size="10.00">Tensor</text>
</a>
</g>
</g>
<!-- dir_2bf7b27484b15c8c863e85164c5e8ee5&#45;&gt;dir_83bd8be6e9490851e8e4007286e9f64b -->
<g id="edge40" class="edge">
<title>dir_2bf7b27484b15c8c863e85164c5e8ee5&#45;&gt;dir_83bd8be6e9490851e8e4007286e9f64b</title>
<path fill="none" stroke="black" d="M179.37,-431.88C188.69,-422.35 198.92,-409.68 204,-396 220.53,-351.5 216.45,-295.2 211.83,-262.33"/>
<polygon fill="black" stroke="black" points="215.24,-261.49 210.27,-252.13 208.32,-262.55 215.24,-261.49"/>
<g id="a_edge40&#45;headlabel"><a xlink:href="dir_000198_000031.html" target="_top" xlink:title="1">
<text text-anchor="middle" x="218.59" y="-262.11" font-family="Helvetica,sans-Serif" font-size="10.00">1</text>
</a>
</g>
</g>
<!-- dir_84ef7c054b4edc3447cfba80cee80f65 -->
<g id="node8" class="node">
<title>dir_84ef7c054b4edc3447cfba80cee80f65</title>
<g id="a_node8"><a xlink:href="dir_84ef7c054b4edc3447cfba80cee80f65.html" target="_top" xlink:title="IR">
<polygon fill="none" stroke="black" points="422,-180 368,-180 368,-144 422,-144 422,-180"/>
<text text-anchor="middle" x="395" y="-159.5" font-family="Helvetica,sans-Serif" font-size="10.00">IR</text>
</a>
</g>
</g>
<!-- dir_2bf7b27484b15c8c863e85164c5e8ee5&#45;&gt;dir_84ef7c054b4edc3447cfba80cee80f65 -->
<g id="edge41" class="edge">
<title>dir_2bf7b27484b15c8c863e85164c5e8ee5&#45;&gt;dir_84ef7c054b4edc3447cfba80cee80f65</title>
<path fill="none" stroke="black" d="M195.74,-448.14C265.53,-444.21 417.74,-424.03 471,-324 496.28,-276.51 452.06,-219.18 421.15,-187.34"/>
<polygon fill="black" stroke="black" points="423.56,-184.79 414.02,-180.19 418.6,-189.74 423.56,-184.79"/>
<g id="a_edge41&#45;headlabel"><a xlink:href="dir_000198_000046.html" target="_top" xlink:title="2">
<text text-anchor="middle" x="428.11" y="-182.83" font-family="Helvetica,sans-Serif" font-size="10.00">2</text>
</a>
</g>
</g>
<!-- dir_bfd3493254b3df47293537524626123b -->
<g id="node9" class="node">
<title>dir_bfd3493254b3df47293537524626123b</title>
<g id="a_node9"><a xlink:href="dir_bfd3493254b3df47293537524626123b.html" target="_top" xlink:title="Vector">
<polygon fill="none" stroke="red" points="364,-324 310,-324 310,-288 364,-288 364,-324"/>
<text text-anchor="middle" x="337" y="-303.5" font-family="Helvetica,sans-Serif" font-size="10.00">Vector</text>
</a>
</g>
</g>
<!-- dir_2bf7b27484b15c8c863e85164c5e8ee5&#45;&gt;dir_bfd3493254b3df47293537524626123b -->
<g id="edge42" class="edge">
<title>dir_2bf7b27484b15c8c863e85164c5e8ee5&#45;&gt;dir_bfd3493254b3df47293537524626123b</title>
<path fill="none" stroke="black" d="M195.51,-442.87C225.55,-436.05 268.05,-422.32 296,-396 313.74,-379.29 324.47,-353.41 330.47,-333.86"/>
<polygon fill="black" stroke="black" points="333.9,-334.6 333.27,-324.02 327.17,-332.69 333.9,-334.6"/>
<g id="a_edge42&#45;headlabel"><a xlink:href="dir_000198_000151.html" target="_top" xlink:title="1">
<text text-anchor="middle" x="335.65" y="-336.33" font-family="Helvetica,sans-Serif" font-size="10.00">1</text>
</a>
</g>
</g>
<!-- dir_ca4d1f3bc4cd42ba07a57ca86d19a1d6 -->
<g id="node10" class="node">
<title>dir_ca4d1f3bc4cd42ba07a57ca86d19a1d6</title>
<g id="a_node10"><a xlink:href="dir_ca4d1f3bc4cd42ba07a57ca86d19a1d6.html" target="_top" xlink:title="Transforms">
<polygon fill="none" stroke="black" points="589.5,-252 518.5,-252 518.5,-216 589.5,-216 589.5,-252"/>
<text text-anchor="middle" x="554" y="-231.5" font-family="Helvetica,sans-Serif" font-size="10.00">Transforms</text>
</a>
</g>
</g>
<!-- dir_2bf7b27484b15c8c863e85164c5e8ee5&#45;&gt;dir_ca4d1f3bc4cd42ba07a57ca86d19a1d6 -->
<g id="edge43" class="edge">
<title>dir_2bf7b27484b15c8c863e85164c5e8ee5&#45;&gt;dir_ca4d1f3bc4cd42ba07a57ca86d19a1d6</title>
<path fill="none" stroke="black" d="M195.61,-448.16C274.01,-445.61 458.22,-435.45 504,-396 542.98,-362.41 552,-299.02 553.83,-262.61"/>
<polygon fill="black" stroke="black" points="557.34,-262.35 554.19,-252.23 550.34,-262.11 557.34,-262.35"/>
<g id="a_edge43&#45;headlabel"><a xlink:href="dir_000198_000156.html" target="_top" xlink:title="1">
<text text-anchor="middle" x="560.05" y="-263.54" font-family="Helvetica,sans-Serif" font-size="10.00">1</text>
</a>
</g>
</g>
<!-- dir_cf63c3ddb21c79ef735682489f4c6a69 -->
<g id="node11" class="node">
<title>dir_cf63c3ddb21c79ef735682489f4c6a69</title>
<g id="a_node11"><a xlink:href="dir_cf63c3ddb21c79ef735682489f4c6a69.html" target="_top" xlink:title="Interfaces">
<polygon fill="none" stroke="red" points="427.5,-108 362.5,-108 362.5,-72 427.5,-72 427.5,-108"/>
<text text-anchor="middle" x="395" y="-87.5" font-family="Helvetica,sans-Serif" font-size="10.00">Interfaces</text>
</a>
</g>
</g>
<!-- dir_2bf7b27484b15c8c863e85164c5e8ee5&#45;&gt;dir_cf63c3ddb21c79ef735682489f4c6a69 -->
<g id="edge44" class="edge">
<title>dir_2bf7b27484b15c8c863e85164c5e8ee5&#45;&gt;dir_cf63c3ddb21c79ef735682489f4c6a69</title>
<path fill="none" stroke="black" d="M195.82,-447.88C304.55,-444.11 625.28,-430.18 656,-396 734.38,-308.8 677.85,-205.44 578,-144 534.3,-117.11 476.36,-103.35 437.49,-96.68"/>
<polygon fill="black" stroke="black" points="437.98,-93.21 427.55,-95.05 436.85,-100.12 437.98,-93.21"/>
<g id="a_edge44&#45;headlabel"><a xlink:href="dir_000198_000279.html" target="_top" xlink:title="1">
<text text-anchor="middle" x="441.98" y="-88.49" font-family="Helvetica,sans-Serif" font-size="10.00">1</text>
</a>
</g>
</g>
<!-- dir_d0219b36a5ea27d6075e0b14c6f98d85 -->
<g id="node12" class="node">
<title>dir_d0219b36a5ea27d6075e0b14c6f98d85</title>
<g id="a_node12"><a xlink:href="dir_d0219b36a5ea27d6075e0b14c6f98d85.html" target="_top" xlink:title="MemRef">
<polygon fill="none" stroke="red" points="310,-252 252,-252 252,-216 310,-216 310,-252"/>
<text text-anchor="middle" x="281" y="-231.5" font-family="Helvetica,sans-Serif" font-size="10.00">MemRef</text>
</a>
</g>
</g>
<!-- dir_2bf7b27484b15c8c863e85164c5e8ee5&#45;&gt;dir_d0219b36a5ea27d6075e0b14c6f98d85 -->
<g id="edge45" class="edge">
<title>dir_2bf7b27484b15c8c863e85164c5e8ee5&#45;&gt;dir_d0219b36a5ea27d6075e0b14c6f98d85</title>
<path fill="none" stroke="black" d="M186.15,-431.93C198.74,-422.6 213.19,-410.07 223,-396 252.12,-354.21 268.25,-296.18 275.73,-262.41"/>
<polygon fill="black" stroke="black" points="279.21,-262.86 277.86,-252.35 272.36,-261.41 279.21,-262.86"/>
<g id="a_edge45&#45;headlabel"><a xlink:href="dir_000198_000129.html" target="_top" xlink:title="1">
<text text-anchor="middle" x="281.24" y="-264.46" font-family="Helvetica,sans-Serif" font-size="10.00">1</text>
</a>
</g>
</g>
<!-- dir_2bf7b27484b15c8c863e85164c5e8ee5&#45;&gt;dir_e4893b20171f621ff7a85b39656091a7 -->
<g id="edge46" class="edge">
<title>dir_2bf7b27484b15c8c863e85164c5e8ee5&#45;&gt;dir_e4893b20171f621ff7a85b39656091a7</title>
<path fill="none" stroke="black" d="M124.49,-435.9C77.35,-415.94 0,-373.11 0,-307 0,-307 0,-307 0,-161 0,-110 45.27,-66.88 78.76,-41.97"/>
<polygon fill="black" stroke="black" points="80.92,-44.73 86.98,-36.04 76.83,-39.05 80.92,-44.73"/>
<g id="a_edge46&#45;headlabel"><a xlink:href="dir_000198_000272.html" target="_top" xlink:title="1">
<text text-anchor="middle" x="79.67" y="-46.63" font-family="Helvetica,sans-Serif" font-size="10.00">1</text>
</a>
</g>
</g>
<!-- dir_1af55d3d38bdc22b737bcb481a4c2bf6&#45;&gt;dir_37f3372f1e76d74ffd54613af9306e43 -->
<g id="edge27" class="edge">
<title>dir_1af55d3d38bdc22b737bcb481a4c2bf6&#45;&gt;dir_37f3372f1e76d74ffd54613af9306e43</title>
<path fill="none" stroke="black" d="M656.17,-431.7C648.98,-423.3 640.2,-413.07 632.31,-403.86"/>
<polygon fill="black" stroke="black" points="634.83,-401.42 625.66,-396.1 629.51,-405.97 634.83,-401.42"/>
<g id="a_edge27&#45;headlabel"><a xlink:href="dir_000199_000056.html" target="_top" xlink:title="1">
<text text-anchor="middle" x="639.32" y="-399.8" font-family="Helvetica,sans-Serif" font-size="10.00">1</text>
</a>
</g>
</g>
<!-- dir_1af55d3d38bdc22b737bcb481a4c2bf6&#45;&gt;dir_84ef7c054b4edc3447cfba80cee80f65 -->
<g id="edge28" class="edge">
<title>dir_1af55d3d38bdc22b737bcb481a4c2bf6&#45;&gt;dir_84ef7c054b4edc3447cfba80cee80f65</title>
<path fill="none" stroke="black" d="M673.16,-431.71C677.5,-388.54 682.24,-275.31 622,-216 595.46,-189.87 489.76,-173.92 432.43,-167.02"/>
<polygon fill="black" stroke="black" points="432.66,-163.52 422.32,-165.83 431.84,-170.47 432.66,-163.52"/>
<g id="a_edge28&#45;headlabel"><a xlink:href="dir_000199_000046.html" target="_top" xlink:title="6">
<text text-anchor="middle" x="436.56" y="-158.62" font-family="Helvetica,sans-Serif" font-size="10.00">6</text>
</a>
</g>
</g>
<!-- dir_1af55d3d38bdc22b737bcb481a4c2bf6&#45;&gt;dir_cf63c3ddb21c79ef735682489f4c6a69 -->
<g id="edge29" class="edge">
<title>dir_1af55d3d38bdc22b737bcb481a4c2bf6&#45;&gt;dir_cf63c3ddb21c79ef735682489f4c6a69</title>
<path fill="none" stroke="black" d="M693.46,-431.97C722.67,-407.71 770,-360.19 770,-307 770,-307 770,-307 770,-233 770,-162.57 535.73,-114.76 437.52,-97.82"/>
<polygon fill="black" stroke="black" points="438.07,-94.36 427.62,-96.14 436.89,-101.26 438.07,-94.36"/>
<g id="a_edge29&#45;headlabel"><a xlink:href="dir_000199_000279.html" target="_top" xlink:title="2">
<text text-anchor="middle" x="442.09" y="-89.66" font-family="Helvetica,sans-Serif" font-size="10.00">2</text>
</a>
</g>
</g>
<!-- dir_37f3372f1e76d74ffd54613af9306e43&#45;&gt;dir_84ef7c054b4edc3447cfba80cee80f65 -->
<g id="edge5" class="edge">
<title>dir_37f3372f1e76d74ffd54613af9306e43&#45;&gt;dir_84ef7c054b4edc3447cfba80cee80f65</title>
<path fill="none" stroke="black" d="M615.59,-359.59C622.99,-327.22 633.48,-257.32 599,-216 577.84,-190.65 485.13,-174.7 432.27,-167.5"/>
<polygon fill="black" stroke="black" points="432.64,-164.02 422.26,-166.17 431.72,-170.96 432.64,-164.02"/>
<g id="a_edge5&#45;headlabel"><a xlink:href="dir_000056_000046.html" target="_top" xlink:title="23">
<text text-anchor="middle" x="436.57" y="-159.17" font-family="Helvetica,sans-Serif" font-size="10.00">23</text>
</a>
</g>
</g>
<!-- dir_37f3372f1e76d74ffd54613af9306e43&#45;&gt;dir_bfd3493254b3df47293537524626123b -->
<g id="edge8" class="edge">
<title>dir_37f3372f1e76d74ffd54613af9306e43&#45;&gt;dir_bfd3493254b3df47293537524626123b</title>
<path fill="none" stroke="black" d="M575.43,-371.46C528.51,-363.6 443.71,-347.52 374,-324 373.9,-323.97 373.8,-323.93 373.7,-323.9"/>
<polygon fill="black" stroke="black" points="374.81,-320.58 364.22,-320.28 372.31,-327.12 374.81,-320.58"/>
<g id="a_edge8&#45;headlabel"><a xlink:href="dir_000056_000151.html" target="_top" xlink:title="1">
<text text-anchor="middle" x="379.18" y="-316.7" font-family="Helvetica,sans-Serif" font-size="10.00">1</text>
</a>
</g>
</g>
<!-- dir_37f3372f1e76d74ffd54613af9306e43&#45;&gt;dir_ca4d1f3bc4cd42ba07a57ca86d19a1d6 -->
<g id="edge6" class="edge">
<title>dir_37f3372f1e76d74ffd54613af9306e43&#45;&gt;dir_ca4d1f3bc4cd42ba07a57ca86d19a1d6</title>
<path fill="none" stroke="black" d="M604.12,-359.87C594.32,-335.46 576.25,-290.43 564.69,-261.64"/>
<polygon fill="black" stroke="black" points="567.87,-260.17 560.9,-252.19 561.38,-262.77 567.87,-260.17"/>
<g id="a_edge6&#45;headlabel"><a xlink:href="dir_000056_000156.html" target="_top" xlink:title="19">
<text text-anchor="middle" x="571.85" y="-259.94" font-family="Helvetica,sans-Serif" font-size="10.00">19</text>
</a>
</g>
</g>
<!-- dir_37f3372f1e76d74ffd54613af9306e43&#45;&gt;dir_cf63c3ddb21c79ef735682489f4c6a69 -->
<g id="edge7" class="edge">
<title>dir_37f3372f1e76d74ffd54613af9306e43&#45;&gt;dir_cf63c3ddb21c79ef735682489f4c6a69</title>
<path fill="none" stroke="black" d="M621.63,-359.56C627.1,-349.54 633.2,-336.51 636,-324 646.58,-276.77 650.06,-255.44 622,-216 577.04,-152.8 489.69,-118.04 437.44,-102.07"/>
<polygon fill="black" stroke="black" points="438.37,-98.7 427.79,-99.21 436.39,-105.41 438.37,-98.7"/>
<g id="a_edge7&#45;headlabel"><a xlink:href="dir_000056_000279.html" target="_top" xlink:title="3">
<text text-anchor="middle" x="442.63" y="-94.49" font-family="Helvetica,sans-Serif" font-size="10.00">3</text>
</a>
</g>
</g>
<!-- dir_47aca9e8d6a16a6d14cf434a05d15774&#45;&gt;dir_83bd8be6e9490851e8e4007286e9f64b -->
<g id="edge32" class="edge">
<title>dir_47aca9e8d6a16a6d14cf434a05d15774&#45;&gt;dir_83bd8be6e9490851e8e4007286e9f64b</title>
<path fill="none" stroke="black" d="M165.6,-287.7C172.12,-279.39 180.07,-269.28 187.25,-260.14"/>
<polygon fill="black" stroke="black" points="190.13,-262.13 193.56,-252.1 184.63,-257.81 190.13,-262.13"/>
<g id="a_edge32&#45;headlabel"><a xlink:href="dir_000029_000031.html" target="_top" xlink:title="1">
<text text-anchor="middle" x="190.15" y="-264.21" font-family="Helvetica,sans-Serif" font-size="10.00">1</text>
</a>
</g>
</g>
<!-- dir_47aca9e8d6a16a6d14cf434a05d15774&#45;&gt;dir_84ef7c054b4edc3447cfba80cee80f65 -->
<g id="edge30" class="edge">
<title>dir_47aca9e8d6a16a6d14cf434a05d15774&#45;&gt;dir_84ef7c054b4edc3447cfba80cee80f65</title>
<path fill="none" stroke="black" d="M150.62,-287.76C150.03,-267.76 152.33,-235.09 171,-216 196.72,-189.71 301.23,-173.83 357.95,-166.98"/>
<polygon fill="black" stroke="black" points="358.43,-170.44 367.96,-165.8 357.62,-163.49 358.43,-170.44"/>
<g id="a_edge30&#45;headlabel"><a xlink:href="dir_000029_000046.html" target="_top" xlink:title="8">
<text text-anchor="middle" x="355.2" y="-171.18" font-family="Helvetica,sans-Serif" font-size="10.00">8</text>
</a>
</g>
</g>
<!-- dir_47aca9e8d6a16a6d14cf434a05d15774&#45;&gt;dir_cf63c3ddb21c79ef735682489f4c6a69 -->
<g id="edge31" class="edge">
<title>dir_47aca9e8d6a16a6d14cf434a05d15774&#45;&gt;dir_cf63c3ddb21c79ef735682489f4c6a69</title>
<path fill="none" stroke="black" d="M146.92,-287.81C142.38,-269.01 138.11,-238.56 150,-216 189.68,-140.68 292.93,-109.64 351.95,-97.74"/>
<polygon fill="black" stroke="black" points="352.92,-101.12 362.08,-95.8 351.6,-94.24 352.92,-101.12"/>
<g id="a_edge31&#45;headlabel"><a xlink:href="dir_000029_000279.html" target="_top" xlink:title="11">
<text text-anchor="middle" x="349.93" y="-102.08" font-family="Helvetica,sans-Serif" font-size="10.00">11</text>
</a>
</g>
</g>
<!-- dir_762b59f238bc9709d1f8796a74c242af&#45;&gt;dir_83bd8be6e9490851e8e4007286e9f64b -->
<g id="edge13" class="edge">
<title>dir_762b59f238bc9709d1f8796a74c242af&#45;&gt;dir_83bd8be6e9490851e8e4007286e9f64b</title>
<path fill="none" stroke="black" d="M382.49,-291.05C379.29,-289.99 376.09,-288.96 373,-288 318.67,-271.07 300.99,-272.65 243.83,-252"/>
<polygon fill="black" stroke="black" points="244.9,-248.66 234.31,-248.49 242.48,-255.23 244.9,-248.66"/>
<g id="a_edge13&#45;headlabel"><a xlink:href="dir_000117_000031.html" target="_top" xlink:title="1">
<text text-anchor="middle" x="249.26" y="-244.74" font-family="Helvetica,sans-Serif" font-size="10.00">1</text>
</a>
</g>
</g>
<!-- dir_762b59f238bc9709d1f8796a74c242af&#45;&gt;dir_84ef7c054b4edc3447cfba80cee80f65 -->
<g id="edge9" class="edge">
<title>dir_762b59f238bc9709d1f8796a74c242af&#45;&gt;dir_84ef7c054b4edc3447cfba80cee80f65</title>
<path fill="none" stroke="black" d="M418.74,-287.87C414.14,-263.67 405.69,-219.21 400.21,-190.39"/>
<polygon fill="black" stroke="black" points="403.57,-189.36 398.27,-180.19 396.7,-190.67 403.57,-189.36"/>
<g id="a_edge9&#45;headlabel"><a xlink:href="dir_000117_000046.html" target="_top" xlink:title="15">
<text text-anchor="middle" x="407.04" y="-189.86" font-family="Helvetica,sans-Serif" font-size="10.00">15</text>
</a>
</g>
</g>
<!-- dir_762b59f238bc9709d1f8796a74c242af&#45;&gt;dir_ca4d1f3bc4cd42ba07a57ca86d19a1d6 -->
<g id="edge11" class="edge">
<title>dir_762b59f238bc9709d1f8796a74c242af&#45;&gt;dir_ca4d1f3bc4cd42ba07a57ca86d19a1d6</title>
<path fill="none" stroke="black" d="M454.29,-287.88C471.87,-278.55 493.81,-266.92 512.63,-256.94"/>
<polygon fill="black" stroke="black" points="514.39,-259.97 521.59,-252.19 511.11,-253.78 514.39,-259.97"/>
<g id="a_edge11&#45;headlabel"><a xlink:href="dir_000117_000156.html" target="_top" xlink:title="2">
<text text-anchor="middle" x="512.54" y="-261.66" font-family="Helvetica,sans-Serif" font-size="10.00">2</text>
</a>
</g>
</g>
<!-- dir_762b59f238bc9709d1f8796a74c242af&#45;&gt;dir_cf63c3ddb21c79ef735682489f4c6a69 -->
<g id="edge10" class="edge">
<title>dir_762b59f238bc9709d1f8796a74c242af&#45;&gt;dir_cf63c3ddb21c79ef735682489f4c6a69</title>
<path fill="none" stroke="black" d="M426.84,-287.6C434.36,-257.55 446.47,-194.31 431,-144 427.99,-134.22 422.49,-124.62 416.68,-116.33"/>
<polygon fill="black" stroke="black" points="419.41,-114.13 410.61,-108.23 413.81,-118.33 419.41,-114.13"/>
<g id="a_edge10&#45;headlabel"><a xlink:href="dir_000117_000279.html" target="_top" xlink:title="7">
<text text-anchor="middle" x="423.83" y="-112.8" font-family="Helvetica,sans-Serif" font-size="10.00">7</text>
</a>
</g>
</g>
<!-- dir_762b59f238bc9709d1f8796a74c242af&#45;&gt;dir_d0219b36a5ea27d6075e0b14c6f98d85 -->
<g id="edge12" class="edge">
<title>dir_762b59f238bc9709d1f8796a74c242af&#45;&gt;dir_d0219b36a5ea27d6075e0b14c6f98d85</title>
<path fill="none" stroke="black" d="M387.51,-287.88C366.91,-277.65 340.71,-264.64 319.45,-254.09"/>
<polygon fill="black" stroke="black" points="320.89,-250.89 310.37,-249.58 317.77,-257.16 320.89,-250.89"/>
<g id="a_edge12&#45;headlabel"><a xlink:href="dir_000117_000129.html" target="_top" xlink:title="1">
<text text-anchor="middle" x="325.37" y="-247.45" font-family="Helvetica,sans-Serif" font-size="10.00">1</text>
</a>
</g>
</g>
<!-- dir_83bd8be6e9490851e8e4007286e9f64b&#45;&gt;dir_84ef7c054b4edc3447cfba80cee80f65 -->
<g id="edge14" class="edge">
<title>dir_83bd8be6e9490851e8e4007286e9f64b&#45;&gt;dir_84ef7c054b4edc3447cfba80cee80f65</title>
<path fill="none" stroke="black" d="M234.38,-219.7C237.27,-218.41 240.19,-217.15 243,-216 281.74,-200.15 327.19,-184.7 358.23,-174.61"/>
<polygon fill="black" stroke="black" points="359.33,-177.94 367.77,-171.53 357.18,-171.27 359.33,-177.94"/>
<g id="a_edge14&#45;headlabel"><a xlink:href="dir_000031_000046.html" target="_top" xlink:title="10">
<text text-anchor="middle" x="356.78" y="-179.24" font-family="Helvetica,sans-Serif" font-size="10.00">10</text>
</a>
</g>
</g>
<!-- dir_83bd8be6e9490851e8e4007286e9f64b&#45;&gt;dir_cf63c3ddb21c79ef735682489f4c6a69 -->
<g id="edge15" class="edge">
<title>dir_83bd8be6e9490851e8e4007286e9f64b&#45;&gt;dir_cf63c3ddb21c79ef735682489f4c6a69</title>
<path fill="none" stroke="black" d="M221.9,-215.83C239.01,-196.77 268.51,-165.82 298,-144 315.08,-131.36 335.52,-119.74 353.23,-110.62"/>
<polygon fill="black" stroke="black" points="354.86,-113.72 362.21,-106.09 351.7,-107.47 354.86,-113.72"/>
<g id="a_edge15&#45;headlabel"><a xlink:href="dir_000031_000279.html" target="_top" xlink:title="11">
<text text-anchor="middle" x="352.93" y="-115.38" font-family="Helvetica,sans-Serif" font-size="10.00">11</text>
</a>
</g>
</g>
<!-- dir_83bd8be6e9490851e8e4007286e9f64b&#45;&gt;dir_e4893b20171f621ff7a85b39656091a7 -->
<g id="edge16" class="edge">
<title>dir_83bd8be6e9490851e8e4007286e9f64b&#45;&gt;dir_e4893b20171f621ff7a85b39656091a7</title>
<path fill="none" stroke="black" d="M199.13,-215.85C194.4,-205.5 188.29,-192.02 183,-180 162.31,-133.04 138.92,-78.04 125.37,-46"/>
<polygon fill="black" stroke="black" points="128.45,-44.29 121.34,-36.44 122,-47.02 128.45,-44.29"/>
<g id="a_edge16&#45;headlabel"><a xlink:href="dir_000031_000272.html" target="_top" xlink:title="1">
<text text-anchor="middle" x="132.47" y="-44" font-family="Helvetica,sans-Serif" font-size="10.00">1</text>
</a>
</g>
</g>
<!-- dir_84ef7c054b4edc3447cfba80cee80f65&#45;&gt;dir_cf63c3ddb21c79ef735682489f4c6a69 -->
<g id="edge4" class="edge">
<title>dir_84ef7c054b4edc3447cfba80cee80f65&#45;&gt;dir_cf63c3ddb21c79ef735682489f4c6a69</title>
<path fill="none" stroke="black" d="M389.08,-143.7C388.29,-135.98 388.06,-126.71 388.4,-118.11"/>
<polygon fill="black" stroke="black" points="391.9,-118.32 389.1,-108.1 384.92,-117.84 391.9,-118.32"/>
<g id="a_edge4&#45;headlabel"><a xlink:href="dir_000046_000279.html" target="_top" xlink:title="3">
<text text-anchor="middle" x="394.48" y="-119.61" font-family="Helvetica,sans-Serif" font-size="10.00">3</text>
</a>
</g>
</g>
<!-- dir_bfd3493254b3df47293537524626123b&#45;&gt;dir_83bd8be6e9490851e8e4007286e9f64b -->
<g id="edge17" class="edge">
<title>dir_bfd3493254b3df47293537524626123b&#45;&gt;dir_83bd8be6e9490851e8e4007286e9f64b</title>
<path fill="none" stroke="black" d="M309.75,-290.33C290.42,-279.92 264.28,-265.84 243.2,-254.49"/>
<polygon fill="black" stroke="black" points="244.68,-251.31 234.22,-249.65 241.36,-257.48 244.68,-251.31"/>
<g id="a_edge17&#45;headlabel"><a xlink:href="dir_000151_000031.html" target="_top" xlink:title="1">
<text text-anchor="middle" x="249.19" y="-248.02" font-family="Helvetica,sans-Serif" font-size="10.00">1</text>
</a>
</g>
</g>
<!-- dir_bfd3493254b3df47293537524626123b&#45;&gt;dir_84ef7c054b4edc3447cfba80cee80f65 -->
<g id="edge18" class="edge">
<title>dir_bfd3493254b3df47293537524626123b&#45;&gt;dir_84ef7c054b4edc3447cfba80cee80f65</title>
<path fill="none" stroke="black" d="M344,-287.87C353.97,-263.46 372.36,-218.43 384.12,-189.64"/>
<polygon fill="black" stroke="black" points="387.44,-190.77 387.98,-180.19 380.96,-188.12 387.44,-190.77"/>
<g id="a_edge18&#45;headlabel"><a xlink:href="dir_000151_000046.html" target="_top" xlink:title="13">
<text text-anchor="middle" x="388.71" y="-192.67" font-family="Helvetica,sans-Serif" font-size="10.00">13</text>
</a>
</g>
</g>
<!-- dir_bfd3493254b3df47293537524626123b&#45;&gt;dir_cf63c3ddb21c79ef735682489f4c6a69 -->
<g id="edge19" class="edge">
<title>dir_bfd3493254b3df47293537524626123b&#45;&gt;dir_cf63c3ddb21c79ef735682489f4c6a69</title>
<path fill="none" stroke="black" d="M336.81,-287.92C337.01,-257.81 339.91,-193.78 359,-144 362.67,-134.44 368.35,-124.91 374.12,-116.61"/>
<polygon fill="black" stroke="black" points="377,-118.6 380.1,-108.47 371.36,-114.46 377,-118.6"/>
<g id="a_edge19&#45;headlabel"><a xlink:href="dir_000151_000279.html" target="_top" xlink:title="9">
<text text-anchor="middle" x="377.17" y="-120.68" font-family="Helvetica,sans-Serif" font-size="10.00">9</text>
</a>
</g>
</g>
<!-- dir_bfd3493254b3df47293537524626123b&#45;&gt;dir_d0219b36a5ea27d6075e0b14c6f98d85 -->
<g id="edge20" class="edge">
<title>dir_bfd3493254b3df47293537524626123b&#45;&gt;dir_d0219b36a5ea27d6075e0b14c6f98d85</title>
<path fill="none" stroke="black" d="M323.16,-287.7C316.51,-279.39 308.42,-269.28 301.11,-260.14"/>
<polygon fill="black" stroke="black" points="303.66,-257.73 294.68,-252.1 298.2,-262.1 303.66,-257.73"/>
<g id="a_edge20&#45;headlabel"><a xlink:href="dir_000151_000129.html" target="_top" xlink:title="1">
<text text-anchor="middle" x="308.13" y="-256.26" font-family="Helvetica,sans-Serif" font-size="10.00">1</text>
</a>
</g>
</g>
<!-- dir_bfd3493254b3df47293537524626123b&#45;&gt;dir_e4893b20171f621ff7a85b39656091a7 -->
<g id="edge21" class="edge">
<title>dir_bfd3493254b3df47293537524626123b&#45;&gt;dir_e4893b20171f621ff7a85b39656091a7</title>
<path fill="none" stroke="black" d="M309.87,-304.06C273.12,-301.29 207.89,-290.82 171,-252 116.71,-194.87 111.54,-94.86 112.53,-46.6"/>
<polygon fill="black" stroke="black" points="116.04,-46.42 112.86,-36.31 109.04,-46.2 116.04,-46.42"/>
<g id="a_edge21&#45;headlabel"><a xlink:href="dir_000151_000272.html" target="_top" xlink:title="1">
<text text-anchor="middle" x="118.76" y="-47.6" font-family="Helvetica,sans-Serif" font-size="10.00">1</text>
</a>
</g>
</g>
<!-- dir_ca4d1f3bc4cd42ba07a57ca86d19a1d6&#45;&gt;dir_84ef7c054b4edc3447cfba80cee80f65 -->
<g id="edge22" class="edge">
<title>dir_ca4d1f3bc4cd42ba07a57ca86d19a1d6&#45;&gt;dir_84ef7c054b4edc3447cfba80cee80f65</title>
<path fill="none" stroke="black" d="M518.32,-217.29C492.39,-205.87 457.41,-190.48 431.33,-178.99"/>
<polygon fill="black" stroke="black" points="432.72,-175.78 422.16,-174.96 429.9,-182.19 432.72,-175.78"/>
<g id="a_edge22&#45;headlabel"><a xlink:href="dir_000156_000046.html" target="_top" xlink:title="19">
<text text-anchor="middle" x="437.15" y="-172.13" font-family="Helvetica,sans-Serif" font-size="10.00">19</text>
</a>
</g>
</g>
<!-- dir_ca4d1f3bc4cd42ba07a57ca86d19a1d6&#45;&gt;dir_cf63c3ddb21c79ef735682489f4c6a69 -->
<g id="edge23" class="edge">
<title>dir_ca4d1f3bc4cd42ba07a57ca86d19a1d6&#45;&gt;dir_cf63c3ddb21c79ef735682489f4c6a69</title>
<path fill="none" stroke="black" d="M538.49,-215.84C521.44,-197.34 492.88,-167.39 466,-144 454.03,-133.58 440.17,-122.95 427.89,-113.97"/>
<polygon fill="black" stroke="black" points="429.85,-111.06 419.69,-108.04 425.75,-116.74 429.85,-111.06"/>
<g id="a_edge23&#45;headlabel"><a xlink:href="dir_000156_000279.html" target="_top" xlink:title="4">
<text text-anchor="middle" x="434.42" y="-108.37" font-family="Helvetica,sans-Serif" font-size="10.00">4</text>
</a>
</g>
</g>
<!-- dir_cf63c3ddb21c79ef735682489f4c6a69&#45;&gt;dir_84ef7c054b4edc3447cfba80cee80f65 -->
<g id="edge33" class="edge">
<title>dir_cf63c3ddb21c79ef735682489f4c6a69&#45;&gt;dir_84ef7c054b4edc3447cfba80cee80f65</title>
<path fill="none" stroke="black" d="M400.9,-108.1C401.7,-115.79 401.94,-125.05 401.6,-133.67"/>
<polygon fill="black" stroke="black" points="398.11,-133.48 400.92,-143.7 405.09,-133.96 398.11,-133.48"/>
<g id="a_edge33&#45;headlabel"><a xlink:href="dir_000279_000046.html" target="_top" xlink:title="54">
<text text-anchor="middle" x="395.52" y="-127.2" font-family="Helvetica,sans-Serif" font-size="10.00">54</text>
</a>
</g>
</g>
<!-- dir_cf63c3ddb21c79ef735682489f4c6a69&#45;&gt;dir_e4893b20171f621ff7a85b39656091a7 -->
<g id="edge34" class="edge">
<title>dir_cf63c3ddb21c79ef735682489f4c6a69&#45;&gt;dir_e4893b20171f621ff7a85b39656091a7</title>
<path fill="none" stroke="black" d="M362.49,-80.9C309.86,-67.79 206.31,-42 150.96,-28.21"/>
<polygon fill="black" stroke="black" points="151.75,-24.8 141.2,-25.78 150.06,-31.59 151.75,-24.8"/>
<g id="a_edge34&#45;headlabel"><a xlink:href="dir_000279_000272.html" target="_top" xlink:title="2">
<text text-anchor="middle" x="155.93" y="-20.41" font-family="Helvetica,sans-Serif" font-size="10.00">2</text>
</a>
</g>
</g>
<!-- dir_d0219b36a5ea27d6075e0b14c6f98d85&#45;&gt;dir_84ef7c054b4edc3447cfba80cee80f65 -->
<g id="edge1" class="edge">
<title>dir_d0219b36a5ea27d6075e0b14c6f98d85&#45;&gt;dir_84ef7c054b4edc3447cfba80cee80f65</title>
<path fill="none" stroke="black" d="M308.89,-215.88C324.02,-206.59 342.88,-195 359.1,-185.04"/>
<polygon fill="black" stroke="black" points="361.1,-187.92 367.79,-179.71 357.44,-181.96 361.1,-187.92"/>
<g id="a_edge1&#45;headlabel"><a xlink:href="dir_000129_000046.html" target="_top" xlink:title="2">
<text text-anchor="middle" x="359.53" y="-189.72" font-family="Helvetica,sans-Serif" font-size="10.00">2</text>
</a>
</g>
</g>
<!-- dir_d0219b36a5ea27d6075e0b14c6f98d85&#45;&gt;dir_cf63c3ddb21c79ef735682489f4c6a69 -->
<g id="edge2" class="edge">
<title>dir_d0219b36a5ea27d6075e0b14c6f98d85&#45;&gt;dir_cf63c3ddb21c79ef735682489f4c6a69</title>
<path fill="none" stroke="black" d="M286.49,-215.88C293.17,-196.87 305.87,-165.97 324,-144 333.37,-132.64 345.67,-122.36 357.39,-113.95"/>
<polygon fill="black" stroke="black" points="359.53,-116.72 365.77,-108.16 355.55,-110.96 359.53,-116.72"/>
<g id="a_edge2&#45;headlabel"><a xlink:href="dir_000129_000279.html" target="_top" xlink:title="10">
<text text-anchor="middle" x="358.18" y="-118.6" font-family="Helvetica,sans-Serif" font-size="10.00">10</text>
</a>
</g>
</g>
<!-- dir_d0219b36a5ea27d6075e0b14c6f98d85&#45;&gt;dir_e4893b20171f621ff7a85b39656091a7 -->
<g id="edge3" class="edge">
<title>dir_d0219b36a5ea27d6075e0b14c6f98d85&#45;&gt;dir_e4893b20171f621ff7a85b39656091a7</title>
<path fill="none" stroke="black" d="M268.48,-215.84C246.72,-186.15 200.26,-123.42 159,-72 151.6,-62.77 143.27,-52.84 135.81,-44.1"/>
<polygon fill="black" stroke="black" points="138.42,-41.77 129.25,-36.46 133.1,-46.33 138.42,-41.77"/>
<g id="a_edge3&#45;headlabel"><a xlink:href="dir_000129_000272.html" target="_top" xlink:title="1">
<text text-anchor="middle" x="142.91" y="-40.15" font-family="Helvetica,sans-Serif" font-size="10.00">1</text>
</a>
</g>
</g>
<!-- dir_e4893b20171f621ff7a85b39656091a7&#45;&gt;dir_84ef7c054b4edc3447cfba80cee80f65 -->
<g id="edge24" class="edge">
<title>dir_e4893b20171f621ff7a85b39656091a7&#45;&gt;dir_84ef7c054b4edc3447cfba80cee80f65</title>
<path fill="none" stroke="black" d="M141.21,-32.75C192.11,-58.47 301.7,-113.85 358.78,-142.69"/>
<polygon fill="black" stroke="black" points="357.3,-145.87 367.8,-147.26 360.45,-139.62 357.3,-145.87"/>
<g id="a_edge24&#45;headlabel"><a xlink:href="dir_000272_000046.html" target="_top" xlink:title="10">
<text text-anchor="middle" x="352.81" y="-144.28" font-family="Helvetica,sans-Serif" font-size="10.00">10</text>
</a>
</g>
</g>
</g>
</svg>
