<?xml version="1.0" encoding="UTF-8" standalone="no"?>
<!DOCTYPE svg PUBLIC "-//W3C//DTD SVG 1.1//EN"
 "http://www.w3.org/Graphics/SVG/1.1/DTD/svg11.dtd">
<!-- Generated by graphviz version 2.43.0 (0)
 -->
<!-- Title: include/mlir/Dialect/OpenMP Pages: 1 -->
<svg width="236pt" height="295pt"
 viewBox="0.00 0.00 235.95 295.00" xmlns="http://www.w3.org/2000/svg" xmlns:xlink="http://www.w3.org/1999/xlink">
<g id="graph0" class="graph" transform="scale(1 1) rotate(0) translate(4 291)">
<title>include/mlir/Dialect/OpenMP</title>
<g id="clust1" class="cluster">
<title>clusterdir_d07a6fac82475a065a3b2953573f00a0</title>
<g id="a_clust1"><a xlink:href="dir_d07a6fac82475a065a3b2953573f00a0.html" target="_top" xlink:title="Dialect">
<polygon fill="#ddddee" stroke="black" points="8.69,-136 8.69,-279 218.69,-279 218.69,-136 8.69,-136"/>
<text text-anchor="middle" x="113.69" y="-267" font-family="Helvetica,sans-Serif" font-size="10.00">Dialect</text>
</a>
</g>
</g>
<!-- dir_2dd94a2f24f714d3dc6340c37f136d19 -->
<g id="node1" class="node">
<title>dir_2dd94a2f24f714d3dc6340c37f136d19</title>
<g id="a_node1"><a xlink:href="dir_2dd94a2f24f714d3dc6340c37f136d19.html" target="_top" xlink:title="OpenACCMPCommon">
<polygon fill="none" stroke="red" points="138.69,-180 16.69,-180 16.69,-144 138.69,-144 138.69,-180"/>
<text text-anchor="middle" x="77.69" y="-159.5" font-family="Helvetica,sans-Serif" font-size="10.00">OpenACCMPCommon</text>
</a>
</g>
</g>
<!-- dir_84ef7c054b4edc3447cfba80cee80f65 -->
<g id="node4" class="node">
<title>dir_84ef7c054b4edc3447cfba80cee80f65</title>
<g id="a_node4"><a xlink:href="dir_84ef7c054b4edc3447cfba80cee80f65.html" target="_top" xlink:title="IR">
<polygon fill="none" stroke="black" points="108.69,-108 54.69,-108 54.69,-72 108.69,-72 108.69,-108"/>
<text text-anchor="middle" x="81.69" y="-87.5" font-family="Helvetica,sans-Serif" font-size="10.00">IR</text>
</a>
</g>
</g>
<!-- dir_2dd94a2f24f714d3dc6340c37f136d19&#45;&gt;dir_84ef7c054b4edc3447cfba80cee80f65 -->
<g id="edge6" class="edge">
<title>dir_2dd94a2f24f714d3dc6340c37f136d19&#45;&gt;dir_84ef7c054b4edc3447cfba80cee80f65</title>
<path fill="none" stroke="black" d="M78.68,-143.7C79.12,-135.98 79.65,-126.71 80.14,-118.11"/>
<polygon fill="black" stroke="black" points="83.63,-118.29 80.71,-108.1 76.64,-117.89 83.63,-118.29"/>
<g id="a_edge6&#45;headlabel"><a xlink:href="dir_000237_000046.html" target="_top" xlink:title="2">
<text text-anchor="middle" x="86.26" y="-119.54" font-family="Helvetica,sans-Serif" font-size="10.00">2</text>
</a>
</g>
</g>
<!-- dir_cf63c3ddb21c79ef735682489f4c6a69 -->
<g id="node5" class="node">
<title>dir_cf63c3ddb21c79ef735682489f4c6a69</title>
<g id="a_node5"><a xlink:href="dir_cf63c3ddb21c79ef735682489f4c6a69.html" target="_top" xlink:title="Interfaces">
<polygon fill="none" stroke="red" points="169.19,-36 104.19,-36 104.19,0 169.19,0 169.19,-36"/>
<text text-anchor="middle" x="136.69" y="-15.5" font-family="Helvetica,sans-Serif" font-size="10.00">Interfaces</text>
</a>
</g>
</g>
<!-- dir_2dd94a2f24f714d3dc6340c37f136d19&#45;&gt;dir_cf63c3ddb21c79ef735682489f4c6a69 -->
<g id="edge7" class="edge">
<title>dir_2dd94a2f24f714d3dc6340c37f136d19&#45;&gt;dir_cf63c3ddb21c79ef735682489f4c6a69</title>
<path fill="none" stroke="black" d="M93.89,-143.63C102.18,-133.84 111.75,-121 117.69,-108 126.69,-88.3 131.5,-64.17 134.02,-46.01"/>
<polygon fill="black" stroke="black" points="137.49,-46.45 135.26,-36.09 130.55,-45.58 137.49,-46.45"/>
<g id="a_edge7&#45;headlabel"><a xlink:href="dir_000237_000276.html" target="_top" xlink:title="1">
<text text-anchor="middle" x="139.87" y="-47.86" font-family="Helvetica,sans-Serif" font-size="10.00">1</text>
</a>
</g>
</g>
<!-- dir_8363a04659a248511e559fc4df76a233 -->
<g id="node2" class="node">
<title>dir_8363a04659a248511e559fc4df76a233</title>
<g id="a_node2"><a xlink:href="dir_8363a04659a248511e559fc4df76a233.html" target="_top" xlink:title="LLVMIR">
<polygon fill="none" stroke="red" points="210.69,-180 156.69,-180 156.69,-144 210.69,-144 210.69,-180"/>
<text text-anchor="middle" x="183.69" y="-159.5" font-family="Helvetica,sans-Serif" font-size="10.00">LLVMIR</text>
</a>
</g>
</g>
<!-- dir_8363a04659a248511e559fc4df76a233&#45;&gt;dir_84ef7c054b4edc3447cfba80cee80f65 -->
<g id="edge8" class="edge">
<title>dir_8363a04659a248511e559fc4df76a233&#45;&gt;dir_84ef7c054b4edc3447cfba80cee80f65</title>
<path fill="none" stroke="black" d="M158.92,-143.76C155.16,-141.15 151.32,-138.5 147.69,-136 137.16,-128.75 125.65,-120.89 115.24,-113.79"/>
<polygon fill="black" stroke="black" points="117.03,-110.78 106.79,-108.04 113.09,-116.57 117.03,-110.78"/>
<g id="a_edge8&#45;headlabel"><a xlink:href="dir_000125_000046.html" target="_top" xlink:title="20">
<text text-anchor="middle" x="121.6" y="-107.96" font-family="Helvetica,sans-Serif" font-size="10.00">20</text>
</a>
</g>
</g>
<!-- dir_8363a04659a248511e559fc4df76a233&#45;&gt;dir_cf63c3ddb21c79ef735682489f4c6a69 -->
<g id="edge9" class="edge">
<title>dir_8363a04659a248511e559fc4df76a233&#45;&gt;dir_cf63c3ddb21c79ef735682489f4c6a69</title>
<path fill="none" stroke="black" d="M178.02,-143.87C169.97,-119.56 155.16,-74.82 145.63,-46.01"/>
<polygon fill="black" stroke="black" points="148.84,-44.58 142.38,-36.19 142.2,-46.78 148.84,-44.58"/>
<g id="a_edge9&#45;headlabel"><a xlink:href="dir_000125_000276.html" target="_top" xlink:title="12">
<text text-anchor="middle" x="152.67" y="-44.6" font-family="Helvetica,sans-Serif" font-size="10.00">12</text>
</a>
</g>
</g>
<!-- dir_31e9289c1dff92b97d553a01923e6bad -->
<g id="node3" class="node">
<title>dir_31e9289c1dff92b97d553a01923e6bad</title>
<g id="a_node3"><a xlink:href="dir_31e9289c1dff92b97d553a01923e6bad.html" target="_top" xlink:title="OpenMP">
<polygon fill="#eeeeff" stroke="black" points="158.19,-252 101.19,-252 101.19,-216 158.19,-216 158.19,-252"/>
<text text-anchor="middle" x="129.69" y="-231.5" font-family="Helvetica,sans-Serif" font-size="10.00">OpenMP</text>
</a>
</g>
</g>
<!-- dir_31e9289c1dff92b97d553a01923e6bad&#45;&gt;dir_2dd94a2f24f714d3dc6340c37f136d19 -->
<g id="edge2" class="edge">
<title>dir_31e9289c1dff92b97d553a01923e6bad&#45;&gt;dir_2dd94a2f24f714d3dc6340c37f136d19</title>
<path fill="none" stroke="black" d="M116.83,-215.7C110.66,-207.39 103.15,-197.28 96.36,-188.14"/>
<polygon fill="black" stroke="black" points="99.17,-186.04 90.39,-180.1 93.55,-190.22 99.17,-186.04"/>
<g id="a_edge2&#45;headlabel"><a xlink:href="dir_000239_000237.html" target="_top" xlink:title="2">
<text text-anchor="middle" x="103.59" y="-184.74" font-family="Helvetica,sans-Serif" font-size="10.00">2</text>
</a>
</g>
</g>
<!-- dir_31e9289c1dff92b97d553a01923e6bad&#45;&gt;dir_8363a04659a248511e559fc4df76a233 -->
<g id="edge3" class="edge">
<title>dir_31e9289c1dff92b97d553a01923e6bad&#45;&gt;dir_8363a04659a248511e559fc4df76a233</title>
<path fill="none" stroke="black" d="M143.04,-215.7C149.44,-207.39 157.24,-197.28 164.29,-188.14"/>
<polygon fill="black" stroke="black" points="167.16,-190.16 170.49,-180.1 161.61,-185.88 167.16,-190.16"/>
<g id="a_edge3&#45;headlabel"><a xlink:href="dir_000239_000125.html" target="_top" xlink:title="2">
<text text-anchor="middle" x="167.21" y="-192.24" font-family="Helvetica,sans-Serif" font-size="10.00">2</text>
</a>
</g>
</g>
<!-- dir_31e9289c1dff92b97d553a01923e6bad&#45;&gt;dir_84ef7c054b4edc3447cfba80cee80f65 -->
<g id="edge4" class="edge">
<title>dir_31e9289c1dff92b97d553a01923e6bad&#45;&gt;dir_84ef7c054b4edc3447cfba80cee80f65</title>
<path fill="none" stroke="black" d="M100.99,-229.51C71.88,-224.28 28.27,-211.38 7.69,-180 -3.04,-163.65 -1.9,-153.05 7.69,-136 15.85,-121.49 30.8,-111.11 45.13,-104"/>
<polygon fill="black" stroke="black" points="46.73,-107.12 54.39,-99.8 43.84,-100.75 46.73,-107.12"/>
<g id="a_edge4&#45;headlabel"><a xlink:href="dir_000239_000046.html" target="_top" xlink:title="9">
<text text-anchor="middle" x="44.63" y="-108.69" font-family="Helvetica,sans-Serif" font-size="10.00">9</text>
</a>
</g>
</g>
<!-- dir_31e9289c1dff92b97d553a01923e6bad&#45;&gt;dir_cf63c3ddb21c79ef735682489f4c6a69 -->
<g id="edge5" class="edge">
<title>dir_31e9289c1dff92b97d553a01923e6bad&#45;&gt;dir_cf63c3ddb21c79ef735682489f4c6a69</title>
<path fill="none" stroke="black" d="M158.42,-224.62C179.5,-216.8 206.64,-202.83 219.69,-180 246.85,-132.48 198.71,-75.16 165.11,-43.33"/>
<polygon fill="black" stroke="black" points="167.08,-40.38 157.36,-36.18 162.34,-45.53 167.08,-40.38"/>
<g id="a_edge5&#45;headlabel"><a xlink:href="dir_000239_000276.html" target="_top" xlink:title="4">
<text text-anchor="middle" x="171.65" y="-38.23" font-family="Helvetica,sans-Serif" font-size="10.00">4</text>
</a>
</g>
</g>
<!-- dir_84ef7c054b4edc3447cfba80cee80f65&#45;&gt;dir_cf63c3ddb21c79ef735682489f4c6a69 -->
<g id="edge1" class="edge">
<title>dir_84ef7c054b4edc3447cfba80cee80f65&#45;&gt;dir_cf63c3ddb21c79ef735682489f4c6a69</title>
<path fill="none" stroke="black" d="M89.37,-71.7C95.1,-63.3 102.94,-53.07 110.66,-43.86"/>
<polygon fill="black" stroke="black" points="113.47,-45.96 117.35,-36.1 108.17,-41.39 113.47,-45.96"/>
<g id="a_edge1&#45;headlabel"><a xlink:href="dir_000046_000276.html" target="_top" xlink:title="3">
<text text-anchor="middle" x="113.27" y="-48.04" font-family="Helvetica,sans-Serif" font-size="10.00">3</text>
</a>
</g>
</g>
<!-- dir_cf63c3ddb21c79ef735682489f4c6a69&#45;&gt;dir_84ef7c054b4edc3447cfba80cee80f65 -->
<g id="edge10" class="edge">
<title>dir_cf63c3ddb21c79ef735682489f4c6a69&#45;&gt;dir_84ef7c054b4edc3447cfba80cee80f65</title>
<path fill="none" stroke="black" d="M129.14,-36.1C123.45,-44.47 115.62,-54.69 107.9,-63.92"/>
<polygon fill="black" stroke="black" points="105.07,-61.84 101.2,-71.7 110.38,-66.4 105.07,-61.84"/>
<g id="a_edge10&#45;headlabel"><a xlink:href="dir_000276_000046.html" target="_top" xlink:title="54">
<text text-anchor="middle" x="105.27" y="-54.76" font-family="Helvetica,sans-Serif" font-size="10.00">54</text>
</a>
</g>
</g>
</g>
</svg>
