<?xml version="1.0" encoding="UTF-8" standalone="no"?>
<!DOCTYPE svg PUBLIC "-//W3C//DTD SVG 1.1//EN"
 "http://www.w3.org/Graphics/SVG/1.1/DTD/svg11.dtd">
<!-- Generated by graphviz version 2.43.0 (0)
 -->
<!-- Title: include/mlir/Dialect/ArmNeon Pages: 1 -->
<svg width="226pt" height="375pt"
 viewBox="0.00 0.00 225.88 375.00" xmlns="http://www.w3.org/2000/svg" xmlns:xlink="http://www.w3.org/1999/xlink">
<g id="graph0" class="graph" transform="scale(1 1) rotate(0) translate(4 371)">
<title>include/mlir/Dialect/ArmNeon</title>
<g id="clust1" class="cluster">
<title>clusterdir_d07a6fac82475a065a3b2953573f00a0</title>
<g id="a_clust1"><a xlink:href="dir_d07a6fac82475a065a3b2953573f00a0.html" target="_top" xlink:title="Dialect">
<polygon fill="#ddddee" stroke="black" points="13.88,-208 13.88,-359 209.88,-359 209.88,-208 13.88,-208"/>
<text text-anchor="middle" x="111.88" y="-347" font-family="Helvetica,sans-Serif" font-size="10.00">Dialect</text>
</a>
</g>
</g>
<g id="clust2" class="cluster">
<title>clusterdir_529979e8d26b808111efeba1746d551d</title>
<g id="a_clust2"><a xlink:href="dir_529979e8d26b808111efeba1746d551d.html" target="_top">
<polygon fill="#eeeeff" stroke="black" points="21.88,-280 21.88,-332 201.88,-332 201.88,-280 21.88,-280"/>
</a>
</g>
</g>
<!-- dir_832fe9af74a05d9f4772b8e442bafd02 -->
<g id="node1" class="node">
<title>dir_832fe9af74a05d9f4772b8e442bafd02</title>
<g id="a_node1"><a xlink:href="dir_832fe9af74a05d9f4772b8e442bafd02.html" target="_top" xlink:title="Transform">
<polygon fill="none" stroke="red" points="87.38,-252 22.38,-252 22.38,-216 87.38,-216 87.38,-252"/>
<text text-anchor="middle" x="54.88" y="-231.5" font-family="Helvetica,sans-Serif" font-size="10.00">Transform</text>
</a>
</g>
</g>
<!-- dir_51020c1b0909ae629a35fe1c65c620b9 -->
<g id="node4" class="node">
<title>dir_51020c1b0909ae629a35fe1c65c620b9</title>
<g id="a_node4"><a xlink:href="dir_51020c1b0909ae629a35fe1c65c620b9.html" target="_top" xlink:title="Bytecode">
<polygon fill="none" stroke="black" points="144.88,-180 82.88,-180 82.88,-144 144.88,-144 144.88,-180"/>
<text text-anchor="middle" x="113.88" y="-159.5" font-family="Helvetica,sans-Serif" font-size="10.00">Bytecode</text>
</a>
</g>
</g>
<!-- dir_832fe9af74a05d9f4772b8e442bafd02&#45;&gt;dir_51020c1b0909ae629a35fe1c65c620b9 -->
<g id="edge10" class="edge">
<title>dir_832fe9af74a05d9f4772b8e442bafd02&#45;&gt;dir_51020c1b0909ae629a35fe1c65c620b9</title>
<path fill="none" stroke="black" d="M69.46,-215.7C76.54,-207.3 85.16,-197.07 92.92,-187.86"/>
<polygon fill="black" stroke="black" points="95.69,-190.01 99.46,-180.1 90.34,-185.49 95.69,-190.01"/>
<g id="a_edge10&#45;headlabel"><a xlink:href="dir_000033_000050.html" target="_top" xlink:title="5">
<text text-anchor="middle" x="95.55" y="-192.08" font-family="Helvetica,sans-Serif" font-size="10.00">5</text>
</a>
</g>
</g>
<!-- dir_84ef7c054b4edc3447cfba80cee80f65 -->
<g id="node5" class="node">
<title>dir_84ef7c054b4edc3447cfba80cee80f65</title>
<g id="a_node5"><a xlink:href="dir_84ef7c054b4edc3447cfba80cee80f65.html" target="_top" xlink:title="IR">
<polygon fill="none" stroke="black" points="140.88,-108 86.88,-108 86.88,-72 140.88,-72 140.88,-108"/>
<text text-anchor="middle" x="113.88" y="-87.5" font-family="Helvetica,sans-Serif" font-size="10.00">IR</text>
</a>
</g>
</g>
<!-- dir_832fe9af74a05d9f4772b8e442bafd02&#45;&gt;dir_84ef7c054b4edc3447cfba80cee80f65 -->
<g id="edge11" class="edge">
<title>dir_832fe9af74a05d9f4772b8e442bafd02&#45;&gt;dir_84ef7c054b4edc3447cfba80cee80f65</title>
<path fill="none" stroke="black" d="M56.31,-215.91C58.34,-197.47 63.11,-167.57 73.88,-144 78.33,-134.25 84.83,-124.59 91.3,-116.24"/>
<polygon fill="black" stroke="black" points="94.1,-118.34 97.68,-108.37 88.66,-113.93 94.1,-118.34"/>
<g id="a_edge11&#45;headlabel"><a xlink:href="dir_000033_000046.html" target="_top" xlink:title="27">
<text text-anchor="middle" x="94.04" y="-120.42" font-family="Helvetica,sans-Serif" font-size="10.00">27</text>
</a>
</g>
</g>
<!-- dir_cf63c3ddb21c79ef735682489f4c6a69 -->
<g id="node6" class="node">
<title>dir_cf63c3ddb21c79ef735682489f4c6a69</title>
<g id="a_node6"><a xlink:href="dir_cf63c3ddb21c79ef735682489f4c6a69.html" target="_top" xlink:title="Interfaces">
<polygon fill="none" stroke="red" points="97.38,-36 32.38,-36 32.38,0 97.38,0 97.38,-36"/>
<text text-anchor="middle" x="64.88" y="-15.5" font-family="Helvetica,sans-Serif" font-size="10.00">Interfaces</text>
</a>
</g>
</g>
<!-- dir_832fe9af74a05d9f4772b8e442bafd02&#45;&gt;dir_cf63c3ddb21c79ef735682489f4c6a69 -->
<g id="edge12" class="edge">
<title>dir_832fe9af74a05d9f4772b8e442bafd02&#45;&gt;dir_cf63c3ddb21c79ef735682489f4c6a69</title>
<path fill="none" stroke="black" d="M55.63,-215.94C56.42,-198.02 57.72,-169.03 58.88,-144 60.43,-110.54 62.29,-72.04 63.52,-46.71"/>
<polygon fill="black" stroke="black" points="67.04,-46.55 64.03,-36.39 60.05,-46.21 67.04,-46.55"/>
<g id="a_edge12&#45;headlabel"><a xlink:href="dir_000033_000279.html" target="_top" xlink:title="10">
<text text-anchor="middle" x="69.7" y="-47.78" font-family="Helvetica,sans-Serif" font-size="10.00">10</text>
</a>
</g>
</g>
<!-- dir_529979e8d26b808111efeba1746d551d -->
<g id="node2" class="node">
<title>dir_529979e8d26b808111efeba1746d551d</title>
<text text-anchor="middle" x="60.88" y="-303.5" font-family="Helvetica,sans-Serif" font-size="10.00">ArmNeon</text>
</g>
<!-- dir_529979e8d26b808111efeba1746d551d&#45;&gt;dir_51020c1b0909ae629a35fe1c65c620b9 -->
<g id="edge3" class="edge">
<title>dir_529979e8d26b808111efeba1746d551d&#45;&gt;dir_51020c1b0909ae629a35fe1c65c620b9</title>
<path fill="none" stroke="black" d="M77.9,-287.87C86.52,-278.16 96.31,-265.31 101.88,-252 110.09,-232.37 112.96,-208.38 113.84,-190.26"/>
<polygon fill="black" stroke="black" points="117.35,-190.19 114.17,-180.08 110.35,-189.97 117.35,-190.19"/>
<g id="a_edge3&#45;headlabel"><a xlink:href="dir_000197_000050.html" target="_top" xlink:title="1">
<text text-anchor="middle" x="120.07" y="-191.37" font-family="Helvetica,sans-Serif" font-size="10.00">1</text>
</a>
</g>
</g>
<!-- dir_529979e8d26b808111efeba1746d551d&#45;&gt;dir_84ef7c054b4edc3447cfba80cee80f65 -->
<g id="edge4" class="edge">
<title>dir_529979e8d26b808111efeba1746d551d&#45;&gt;dir_84ef7c054b4edc3447cfba80cee80f65</title>
<path fill="none" stroke="black" d="M84.68,-287.83C96.67,-278.29 110.77,-265.62 120.88,-252 141.86,-223.73 146.37,-214.39 153.88,-180 157.29,-164.37 158.96,-159.17 153.88,-144 150.53,-134 144.46,-124.38 138.05,-116.14"/>
<polygon fill="black" stroke="black" points="140.7,-113.85 131.61,-108.4 135.32,-118.33 140.7,-113.85"/>
<g id="a_edge4&#45;headlabel"><a xlink:href="dir_000197_000046.html" target="_top" xlink:title="4">
<text text-anchor="middle" x="145.18" y="-112.3" font-family="Helvetica,sans-Serif" font-size="10.00">4</text>
</a>
</g>
</g>
<!-- dir_529979e8d26b808111efeba1746d551d&#45;&gt;dir_cf63c3ddb21c79ef735682489f4c6a69 -->
<g id="edge5" class="edge">
<title>dir_529979e8d26b808111efeba1746d551d&#45;&gt;dir_cf63c3ddb21c79ef735682489f4c6a69</title>
<path fill="none" stroke="black" d="M37.57,-287.82C26.98,-278.54 15.56,-266.09 9.88,-252 -19.14,-179.99 23.47,-89.01 48.63,-45.09"/>
<polygon fill="black" stroke="black" points="51.8,-46.6 53.85,-36.21 45.77,-43.05 51.8,-46.6"/>
<g id="a_edge5&#45;headlabel"><a xlink:href="dir_000197_000279.html" target="_top" xlink:title="1">
<text text-anchor="middle" x="52.43" y="-48.64" font-family="Helvetica,sans-Serif" font-size="10.00">1</text>
</a>
</g>
</g>
<!-- dir_636053729569fc29bd31314af52560c2 -->
<g id="node3" class="node">
<title>dir_636053729569fc29bd31314af52560c2</title>
<g id="a_node3"><a xlink:href="dir_636053729569fc29bd31314af52560c2.html" target="_top" xlink:title="TransformOps">
<polygon fill="white" stroke="black" points="193.88,-324 109.88,-324 109.88,-288 193.88,-288 193.88,-324"/>
<text text-anchor="middle" x="151.88" y="-303.5" font-family="Helvetica,sans-Serif" font-size="10.00">TransformOps</text>
</a>
</g>
</g>
<!-- dir_636053729569fc29bd31314af52560c2&#45;&gt;dir_832fe9af74a05d9f4772b8e442bafd02 -->
<g id="edge7" class="edge">
<title>dir_636053729569fc29bd31314af52560c2&#45;&gt;dir_832fe9af74a05d9f4772b8e442bafd02</title>
<path fill="none" stroke="black" d="M127.9,-287.7C115.57,-278.8 100.36,-267.82 87.03,-258.2"/>
<polygon fill="black" stroke="black" points="88.74,-255.12 78.58,-252.1 84.64,-260.79 88.74,-255.12"/>
<g id="a_edge7&#45;headlabel"><a xlink:href="dir_000206_000033.html" target="_top" xlink:title="1">
<text text-anchor="middle" x="93.31" y="-252.42" font-family="Helvetica,sans-Serif" font-size="10.00">1</text>
</a>
</g>
</g>
<!-- dir_636053729569fc29bd31314af52560c2&#45;&gt;dir_84ef7c054b4edc3447cfba80cee80f65 -->
<g id="edge8" class="edge">
<title>dir_636053729569fc29bd31314af52560c2&#45;&gt;dir_84ef7c054b4edc3447cfba80cee80f65</title>
<path fill="none" stroke="black" d="M167.06,-287.7C174.61,-277.94 182.95,-265.1 186.88,-252 200.69,-206.03 208.68,-186.76 186.88,-144 178.93,-128.4 164,-116.32 149.7,-107.66"/>
<polygon fill="black" stroke="black" points="151.38,-104.58 140.95,-102.7 147.93,-110.67 151.38,-104.58"/>
<g id="a_edge8&#45;headlabel"><a xlink:href="dir_000206_000046.html" target="_top" xlink:title="1">
<text text-anchor="middle" x="155.91" y="-101.38" font-family="Helvetica,sans-Serif" font-size="10.00">1</text>
</a>
</g>
</g>
<!-- dir_51020c1b0909ae629a35fe1c65c620b9&#45;&gt;dir_84ef7c054b4edc3447cfba80cee80f65 -->
<g id="edge6" class="edge">
<title>dir_51020c1b0909ae629a35fe1c65c620b9&#45;&gt;dir_84ef7c054b4edc3447cfba80cee80f65</title>
<path fill="none" stroke="black" d="M107.96,-143.7C107.17,-135.98 106.94,-126.71 107.28,-118.11"/>
<polygon fill="black" stroke="black" points="110.78,-118.32 107.98,-108.1 103.79,-117.84 110.78,-118.32"/>
<g id="a_edge6&#45;headlabel"><a xlink:href="dir_000050_000046.html" target="_top" xlink:title="9">
<text text-anchor="middle" x="113.36" y="-119.61" font-family="Helvetica,sans-Serif" font-size="10.00">9</text>
</a>
</g>
</g>
<!-- dir_84ef7c054b4edc3447cfba80cee80f65&#45;&gt;dir_51020c1b0909ae629a35fe1c65c620b9 -->
<g id="edge1" class="edge">
<title>dir_84ef7c054b4edc3447cfba80cee80f65&#45;&gt;dir_51020c1b0909ae629a35fe1c65c620b9</title>
<path fill="none" stroke="black" d="M119.77,-108.1C120.58,-115.79 120.82,-125.05 120.48,-133.67"/>
<polygon fill="black" stroke="black" points="116.99,-133.48 119.79,-143.7 123.97,-133.96 116.99,-133.48"/>
<g id="a_edge1&#45;headlabel"><a xlink:href="dir_000046_000050.html" target="_top" xlink:title="2">
<text text-anchor="middle" x="114.4" y="-127.2" font-family="Helvetica,sans-Serif" font-size="10.00">2</text>
</a>
</g>
</g>
<!-- dir_84ef7c054b4edc3447cfba80cee80f65&#45;&gt;dir_cf63c3ddb21c79ef735682489f4c6a69 -->
<g id="edge2" class="edge">
<title>dir_84ef7c054b4edc3447cfba80cee80f65&#45;&gt;dir_cf63c3ddb21c79ef735682489f4c6a69</title>
<path fill="none" stroke="black" d="M95.85,-71.7C89.32,-63.56 82.2,-53.69 76.34,-44.7"/>
<polygon fill="black" stroke="black" points="79.23,-42.73 70.96,-36.1 73.29,-46.44 79.23,-42.73"/>
<g id="a_edge2&#45;headlabel"><a xlink:href="dir_000046_000279.html" target="_top" xlink:title="3">
<text text-anchor="middle" x="83.54" y="-41.77" font-family="Helvetica,sans-Serif" font-size="10.00">3</text>
</a>
</g>
</g>
<!-- dir_cf63c3ddb21c79ef735682489f4c6a69&#45;&gt;dir_84ef7c054b4edc3447cfba80cee80f65 -->
<g id="edge9" class="edge">
<title>dir_cf63c3ddb21c79ef735682489f4c6a69&#45;&gt;dir_84ef7c054b4edc3447cfba80cee80f65</title>
<path fill="none" stroke="black" d="M82.75,-36.1C89.27,-44.21 96.39,-54.08 102.28,-63.08"/>
<polygon fill="black" stroke="black" points="99.4,-65.08 107.68,-71.7 105.33,-61.37 99.4,-65.08"/>
<g id="a_edge9&#45;headlabel"><a xlink:href="dir_000279_000046.html" target="_top" xlink:title="54">
<text text-anchor="middle" x="95.09" y="-61.05" font-family="Helvetica,sans-Serif" font-size="10.00">54</text>
</a>
</g>
</g>
</g>
</svg>
