<?xml version="1.0" encoding="UTF-8" standalone="no"?>
<!DOCTYPE svg PUBLIC "-//W3C//DTD SVG 1.1//EN"
 "http://www.w3.org/Graphics/SVG/1.1/DTD/svg11.dtd">
<!-- Generated by graphviz version 2.43.0 (0)
 -->
<!-- Title: include/mlir/Dialect/Bufferization/Transforms Pages: 1 -->
<svg width="723pt" height="511pt"
 viewBox="0.00 0.00 723.00 511.00" xmlns="http://www.w3.org/2000/svg" xmlns:xlink="http://www.w3.org/1999/xlink">
<g id="graph0" class="graph" transform="scale(1 1) rotate(0) translate(4 507)">
<title>include/mlir/Dialect/Bufferization/Transforms</title>
<g id="clust1" class="cluster">
<title>clusterdir_762b59f238bc9709d1f8796a74c242af</title>
<g id="a_clust1"><a xlink:href="dir_762b59f238bc9709d1f8796a74c242af.html" target="_top" xlink:title="Bufferization">
<polygon fill="#ddddee" stroke="black" points="514,-352 514,-495 602,-495 602,-352 514,-352"/>
<text text-anchor="middle" x="558" y="-483" font-family="Helvetica,sans-Serif" font-size="10.00">Bufferization</text>
</a>
</g>
</g>
<!-- dir_9b91dca05981ef709e333703f5b9c9a3 -->
<g id="node1" class="node">
<title>dir_9b91dca05981ef709e333703f5b9c9a3</title>
<g id="a_node1"><a xlink:href="dir_9b91dca05981ef709e333703f5b9c9a3.html" target="_top" xlink:title="IR">
<polygon fill="none" stroke="black" points="594,-396 540,-396 540,-360 594,-360 594,-396"/>
<text text-anchor="middle" x="567" y="-375.5" font-family="Helvetica,sans-Serif" font-size="10.00">IR</text>
</a>
</g>
</g>
<!-- dir_444b57698294f6a80104968315903582 -->
<g id="node4" class="node">
<title>dir_444b57698294f6a80104968315903582</title>
<g id="a_node4"><a xlink:href="dir_444b57698294f6a80104968315903582.html" target="_top" xlink:title="Analysis">
<polygon fill="none" stroke="red" points="610,-252 552,-252 552,-216 610,-216 610,-252"/>
<text text-anchor="middle" x="581" y="-231.5" font-family="Helvetica,sans-Serif" font-size="10.00">Analysis</text>
</a>
</g>
</g>
<!-- dir_9b91dca05981ef709e333703f5b9c9a3&#45;&gt;dir_444b57698294f6a80104968315903582 -->
<g id="edge36" class="edge">
<title>dir_9b91dca05981ef709e333703f5b9c9a3&#45;&gt;dir_444b57698294f6a80104968315903582</title>
<path fill="none" stroke="black" d="M568.69,-359.87C571.07,-335.67 575.46,-291.21 578.3,-262.39"/>
<polygon fill="black" stroke="black" points="581.81,-262.48 579.31,-252.19 574.84,-261.8 581.81,-262.48"/>
<g id="a_edge36&#45;headlabel"><a xlink:href="dir_000211_000009.html" target="_top" xlink:title="1">
<text text-anchor="middle" x="584.28" y="-263.84" font-family="Helvetica,sans-Serif" font-size="10.00">1</text>
</a>
</g>
</g>
<!-- dir_84ef7c054b4edc3447cfba80cee80f65 -->
<g id="node7" class="node">
<title>dir_84ef7c054b4edc3447cfba80cee80f65</title>
<g id="a_node7"><a xlink:href="dir_84ef7c054b4edc3447cfba80cee80f65.html" target="_top" xlink:title="IR">
<polygon fill="none" stroke="black" points="430,-108 376,-108 376,-72 430,-72 430,-108"/>
<text text-anchor="middle" x="403" y="-87.5" font-family="Helvetica,sans-Serif" font-size="10.00">IR</text>
</a>
</g>
</g>
<!-- dir_9b91dca05981ef709e333703f5b9c9a3&#45;&gt;dir_84ef7c054b4edc3447cfba80cee80f65 -->
<g id="edge37" class="edge">
<title>dir_9b91dca05981ef709e333703f5b9c9a3&#45;&gt;dir_84ef7c054b4edc3447cfba80cee80f65</title>
<path fill="none" stroke="black" d="M581.31,-359.69C604.63,-329.23 645.7,-264.67 619,-216 611.84,-202.95 518.91,-151.41 506,-144 484.17,-131.46 459.06,-118.52 439.1,-108.56"/>
<polygon fill="black" stroke="black" points="440.55,-105.37 430.04,-104.06 437.44,-111.64 440.55,-105.37"/>
<g id="a_edge37&#45;headlabel"><a xlink:href="dir_000211_000046.html" target="_top" xlink:title="8">
<text text-anchor="middle" x="445.03" y="-101.92" font-family="Helvetica,sans-Serif" font-size="10.00">8</text>
</a>
</g>
</g>
<!-- dir_cf63c3ddb21c79ef735682489f4c6a69 -->
<g id="node10" class="node">
<title>dir_cf63c3ddb21c79ef735682489f4c6a69</title>
<g id="a_node10"><a xlink:href="dir_cf63c3ddb21c79ef735682489f4c6a69.html" target="_top" xlink:title="Interfaces">
<polygon fill="none" stroke="red" points="435.5,-36 370.5,-36 370.5,0 435.5,0 435.5,-36"/>
<text text-anchor="middle" x="403" y="-15.5" font-family="Helvetica,sans-Serif" font-size="10.00">Interfaces</text>
</a>
</g>
</g>
<!-- dir_9b91dca05981ef709e333703f5b9c9a3&#45;&gt;dir_cf63c3ddb21c79ef735682489f4c6a69 -->
<g id="edge38" class="edge">
<title>dir_9b91dca05981ef709e333703f5b9c9a3&#45;&gt;dir_cf63c3ddb21c79ef735682489f4c6a69</title>
<path fill="none" stroke="black" d="M594.15,-365.81C636.87,-346.18 715,-301.23 715,-235 715,-235 715,-235 715,-161 715,-115.85 702.4,-98.72 666,-72 631.52,-46.69 511.13,-30.42 445.86,-23.24"/>
<polygon fill="black" stroke="black" points="446.19,-19.76 435.88,-22.17 445.45,-26.72 446.19,-19.76"/>
<g id="a_edge38&#45;headlabel"><a xlink:href="dir_000211_000279.html" target="_top" xlink:title="6">
<text text-anchor="middle" x="450.07" y="-14.82" font-family="Helvetica,sans-Serif" font-size="10.00">6</text>
</a>
</g>
</g>
<!-- dir_009be52000dfc3d6283f0d9dd4dcca5e -->
<g id="node2" class="node">
<title>dir_009be52000dfc3d6283f0d9dd4dcca5e</title>
<g id="a_node2"><a xlink:href="dir_009be52000dfc3d6283f0d9dd4dcca5e.html" target="_top" xlink:title="Transforms">
<polygon fill="#eeeeff" stroke="black" points="593.5,-468 522.5,-468 522.5,-432 593.5,-432 593.5,-468"/>
<text text-anchor="middle" x="558" y="-447.5" font-family="Helvetica,sans-Serif" font-size="10.00">Transforms</text>
</a>
</g>
</g>
<!-- dir_009be52000dfc3d6283f0d9dd4dcca5e&#45;&gt;dir_9b91dca05981ef709e333703f5b9c9a3 -->
<g id="edge24" class="edge">
<title>dir_009be52000dfc3d6283f0d9dd4dcca5e&#45;&gt;dir_9b91dca05981ef709e333703f5b9c9a3</title>
<path fill="none" stroke="black" d="M560.22,-431.7C561.22,-423.98 562.41,-414.71 563.51,-406.11"/>
<polygon fill="black" stroke="black" points="567,-406.47 564.8,-396.1 560.05,-405.58 567,-406.47"/>
<g id="a_edge24&#45;headlabel"><a xlink:href="dir_000119_000211.html" target="_top" xlink:title="4">
<text text-anchor="middle" x="569.35" y="-407.9" font-family="Helvetica,sans-Serif" font-size="10.00">4</text>
</a>
</g>
</g>
<!-- dir_342ad3e7b83526a7f418520e380404a9 -->
<g id="node3" class="node">
<title>dir_342ad3e7b83526a7f418520e380404a9</title>
<g id="a_node3"><a xlink:href="dir_342ad3e7b83526a7f418520e380404a9.html" target="_top" xlink:title="Func">
<polygon fill="none" stroke="red" points="234,-252 180,-252 180,-216 234,-216 234,-252"/>
<text text-anchor="middle" x="207" y="-231.5" font-family="Helvetica,sans-Serif" font-size="10.00">Func</text>
</a>
</g>
</g>
<!-- dir_009be52000dfc3d6283f0d9dd4dcca5e&#45;&gt;dir_342ad3e7b83526a7f418520e380404a9 -->
<g id="edge19" class="edge">
<title>dir_009be52000dfc3d6283f0d9dd4dcca5e&#45;&gt;dir_342ad3e7b83526a7f418520e380404a9</title>
<path fill="none" stroke="black" d="M522.49,-448.56C473.86,-446.37 385.57,-436.56 324,-396 297.18,-378.33 247.6,-301.39 222.47,-260.61"/>
<polygon fill="black" stroke="black" points="225.41,-258.71 217.2,-252.01 219.44,-262.37 225.41,-258.71"/>
<g id="a_edge19&#45;headlabel"><a xlink:href="dir_000119_000021.html" target="_top" xlink:title="1">
<text text-anchor="middle" x="229.71" y="-257.8" font-family="Helvetica,sans-Serif" font-size="10.00">1</text>
</a>
</g>
</g>
<!-- dir_009be52000dfc3d6283f0d9dd4dcca5e&#45;&gt;dir_444b57698294f6a80104968315903582 -->
<g id="edge20" class="edge">
<title>dir_009be52000dfc3d6283f0d9dd4dcca5e&#45;&gt;dir_444b57698294f6a80104968315903582</title>
<path fill="none" stroke="black" d="M546.53,-431.67C540.63,-421.69 534.04,-408.65 531,-396 526.44,-376.98 527.08,-371.16 531,-352 537.74,-319.1 554.11,-284 566.3,-260.93"/>
<polygon fill="black" stroke="black" points="569.38,-262.58 571.06,-252.11 563.22,-259.25 569.38,-262.58"/>
<g id="a_edge20&#45;headlabel"><a xlink:href="dir_000119_000009.html" target="_top" xlink:title="1">
<text text-anchor="middle" x="570.17" y="-264.59" font-family="Helvetica,sans-Serif" font-size="10.00">1</text>
</a>
</g>
</g>
<!-- dir_687ef06ec02158f82af83f8ed0273ebe -->
<g id="node5" class="node">
<title>dir_687ef06ec02158f82af83f8ed0273ebe</title>
<g id="a_node5"><a xlink:href="dir_687ef06ec02158f82af83f8ed0273ebe.html" target="_top" xlink:title="Arith">
<polygon fill="none" stroke="red" points="272,-396 218,-396 218,-360 272,-360 272,-396"/>
<text text-anchor="middle" x="245" y="-375.5" font-family="Helvetica,sans-Serif" font-size="10.00">Arith</text>
</a>
</g>
</g>
<!-- dir_009be52000dfc3d6283f0d9dd4dcca5e&#45;&gt;dir_687ef06ec02158f82af83f8ed0273ebe -->
<g id="edge21" class="edge">
<title>dir_009be52000dfc3d6283f0d9dd4dcca5e&#45;&gt;dir_687ef06ec02158f82af83f8ed0273ebe</title>
<path fill="none" stroke="black" d="M522.24,-444.37C469.7,-437.04 368.91,-420.99 286,-396 284.57,-395.57 283.12,-395.11 281.67,-394.62"/>
<polygon fill="black" stroke="black" points="282.66,-391.26 272.07,-391.12 280.26,-397.83 282.66,-391.26"/>
<g id="a_edge21&#45;headlabel"><a xlink:href="dir_000119_000017.html" target="_top" xlink:title="1">
<text text-anchor="middle" x="287.01" y="-387.32" font-family="Helvetica,sans-Serif" font-size="10.00">1</text>
</a>
</g>
</g>
<!-- dir_83bd8be6e9490851e8e4007286e9f64b -->
<g id="node6" class="node">
<title>dir_83bd8be6e9490851e8e4007286e9f64b</title>
<g id="a_node6"><a xlink:href="dir_83bd8be6e9490851e8e4007286e9f64b.html" target="_top" xlink:title="Tensor">
<polygon fill="none" stroke="red" points="496,-252 442,-252 442,-216 496,-216 496,-252"/>
<text text-anchor="middle" x="469" y="-231.5" font-family="Helvetica,sans-Serif" font-size="10.00">Tensor</text>
</a>
</g>
</g>
<!-- dir_009be52000dfc3d6283f0d9dd4dcca5e&#45;&gt;dir_83bd8be6e9490851e8e4007286e9f64b -->
<g id="edge22" class="edge">
<title>dir_009be52000dfc3d6283f0d9dd4dcca5e&#45;&gt;dir_83bd8be6e9490851e8e4007286e9f64b</title>
<path fill="none" stroke="black" d="M544.8,-431.54C537.66,-421.52 529.09,-408.49 523,-396 500.97,-350.81 484.32,-294.38 475.67,-261.74"/>
<polygon fill="black" stroke="black" points="479.05,-260.82 473.14,-252.02 472.27,-262.58 479.05,-260.82"/>
<g id="a_edge22&#45;headlabel"><a xlink:href="dir_000119_000031.html" target="_top" xlink:title="1">
<text text-anchor="middle" x="482.7" y="-261.08" font-family="Helvetica,sans-Serif" font-size="10.00">1</text>
</a>
</g>
</g>
<!-- dir_009be52000dfc3d6283f0d9dd4dcca5e&#45;&gt;dir_84ef7c054b4edc3447cfba80cee80f65 -->
<g id="edge23" class="edge">
<title>dir_009be52000dfc3d6283f0d9dd4dcca5e&#45;&gt;dir_84ef7c054b4edc3447cfba80cee80f65</title>
<path fill="none" stroke="black" d="M575.7,-431.66C584.87,-421.88 595.66,-409.04 603,-396 642.95,-325.06 671.45,-289.77 637,-216 601.22,-139.39 496.43,-108.38 440,-96.96"/>
<polygon fill="black" stroke="black" points="440.53,-93.5 430.05,-95.05 439.21,-100.37 440.53,-93.5"/>
<g id="a_edge23&#45;headlabel"><a xlink:href="dir_000119_000046.html" target="_top" xlink:title="6">
<text text-anchor="middle" x="444.6" y="-88.89" font-family="Helvetica,sans-Serif" font-size="10.00">6</text>
</a>
</g>
</g>
<!-- dir_ca4d1f3bc4cd42ba07a57ca86d19a1d6 -->
<g id="node8" class="node">
<title>dir_ca4d1f3bc4cd42ba07a57ca86d19a1d6</title>
<g id="a_node8"><a xlink:href="dir_ca4d1f3bc4cd42ba07a57ca86d19a1d6.html" target="_top" xlink:title="Transforms">
<polygon fill="none" stroke="black" points="445.5,-324 374.5,-324 374.5,-288 445.5,-288 445.5,-324"/>
<text text-anchor="middle" x="410" y="-303.5" font-family="Helvetica,sans-Serif" font-size="10.00">Transforms</text>
</a>
</g>
</g>
<!-- dir_009be52000dfc3d6283f0d9dd4dcca5e&#45;&gt;dir_ca4d1f3bc4cd42ba07a57ca86d19a1d6 -->
<g id="edge25" class="edge">
<title>dir_009be52000dfc3d6283f0d9dd4dcca5e&#45;&gt;dir_ca4d1f3bc4cd42ba07a57ca86d19a1d6</title>
<path fill="none" stroke="black" d="M522.24,-435.52C502.15,-426.62 477.65,-413.37 460,-396 442.04,-378.32 428.6,-352.82 420.21,-333.64"/>
<polygon fill="black" stroke="black" points="423.37,-332.14 416.28,-324.26 416.91,-334.84 423.37,-332.14"/>
<g id="a_edge25&#45;headlabel"><a xlink:href="dir_000119_000156.html" target="_top" xlink:title="2">
<text text-anchor="middle" x="427.38" y="-331.85" font-family="Helvetica,sans-Serif" font-size="10.00">2</text>
</a>
</g>
</g>
<!-- dir_cab9f8330899b1cc9d753b1d9c5c5a3e -->
<g id="node9" class="node">
<title>dir_cab9f8330899b1cc9d753b1d9c5c5a3e</title>
<g id="a_node9"><a xlink:href="dir_cab9f8330899b1cc9d753b1d9c5c5a3e.html" target="_top" xlink:title="Pass">
<polygon fill="none" stroke="black" points="365,-180 311,-180 311,-144 365,-144 365,-180"/>
<text text-anchor="middle" x="338" y="-159.5" font-family="Helvetica,sans-Serif" font-size="10.00">Pass</text>
</a>
</g>
</g>
<!-- dir_009be52000dfc3d6283f0d9dd4dcca5e&#45;&gt;dir_cab9f8330899b1cc9d753b1d9c5c5a3e -->
<g id="edge26" class="edge">
<title>dir_009be52000dfc3d6283f0d9dd4dcca5e&#45;&gt;dir_cab9f8330899b1cc9d753b1d9c5c5a3e</title>
<path fill="none" stroke="black" d="M522.23,-440.09C493.96,-431.85 454.49,-417.58 425,-396 391.61,-371.57 383.22,-361.62 366,-324 345.95,-280.2 340.18,-223.67 338.56,-190.57"/>
<polygon fill="black" stroke="black" points="342.05,-190.15 338.16,-180.29 335.06,-190.42 342.05,-190.15"/>
<g id="a_edge26&#45;headlabel"><a xlink:href="dir_000119_000053.html" target="_top" xlink:title="1">
<text text-anchor="middle" x="345.03" y="-191.13" font-family="Helvetica,sans-Serif" font-size="10.00">1</text>
</a>
</g>
</g>
<!-- dir_009be52000dfc3d6283f0d9dd4dcca5e&#45;&gt;dir_cf63c3ddb21c79ef735682489f4c6a69 -->
<g id="edge27" class="edge">
<title>dir_009be52000dfc3d6283f0d9dd4dcca5e&#45;&gt;dir_cf63c3ddb21c79ef735682489f4c6a69</title>
<path fill="none" stroke="black" d="M522.28,-446.21C444.85,-439.76 264.11,-422.28 209,-396 114.78,-351.08 38,-339.38 38,-235 38,-235 38,-235 38,-161 38,-104.11 79.55,-98.29 130,-72 204.62,-33.13 304.15,-22.62 360.11,-19.87"/>
<polygon fill="black" stroke="black" points="360.52,-23.36 370.36,-19.43 360.22,-16.36 360.52,-23.36"/>
<g id="a_edge27&#45;headlabel"><a xlink:href="dir_000119_000279.html" target="_top" xlink:title="1">
<text text-anchor="middle" x="357.05" y="-23.85" font-family="Helvetica,sans-Serif" font-size="10.00">1</text>
</a>
</g>
</g>
<!-- dir_d0219b36a5ea27d6075e0b14c6f98d85 -->
<g id="node11" class="node">
<title>dir_d0219b36a5ea27d6075e0b14c6f98d85</title>
<g id="a_node11"><a xlink:href="dir_d0219b36a5ea27d6075e0b14c6f98d85.html" target="_top" xlink:title="MemRef">
<polygon fill="none" stroke="red" points="219,-468 161,-468 161,-432 219,-432 219,-468"/>
<text text-anchor="middle" x="190" y="-447.5" font-family="Helvetica,sans-Serif" font-size="10.00">MemRef</text>
</a>
</g>
</g>
<!-- dir_009be52000dfc3d6283f0d9dd4dcca5e&#45;&gt;dir_d0219b36a5ea27d6075e0b14c6f98d85 -->
<g id="edge28" class="edge">
<title>dir_009be52000dfc3d6283f0d9dd4dcca5e&#45;&gt;dir_d0219b36a5ea27d6075e0b14c6f98d85</title>
<path fill="none" stroke="black" d="M522.26,-450C424.56,-450 326.87,-450 229.17,-450"/>
<polygon fill="black" stroke="black" points="229.11,-446.5 219.11,-450 229.11,-453.5 229.11,-446.5"/>
<g id="a_edge28&#45;headlabel"><a xlink:href="dir_000119_000129.html" target="_top" xlink:title="1">
<text text-anchor="middle" x="232.7" y="-441.16" font-family="Helvetica,sans-Serif" font-size="10.00">1</text>
</a>
</g>
</g>
<!-- dir_342ad3e7b83526a7f418520e380404a9&#45;&gt;dir_84ef7c054b4edc3447cfba80cee80f65 -->
<g id="edge5" class="edge">
<title>dir_342ad3e7b83526a7f418520e380404a9&#45;&gt;dir_84ef7c054b4edc3447cfba80cee80f65</title>
<path fill="none" stroke="black" d="M222.63,-215.79C240.56,-196.71 271.42,-165.74 302,-144 322.11,-129.7 346.57,-116.77 366.39,-107.25"/>
<polygon fill="black" stroke="black" points="368.14,-110.29 375.7,-102.87 365.16,-103.96 368.14,-110.29"/>
<g id="a_edge5&#45;headlabel"><a xlink:href="dir_000021_000046.html" target="_top" xlink:title="8">
<text text-anchor="middle" x="366.1" y="-111.89" font-family="Helvetica,sans-Serif" font-size="10.00">8</text>
</a>
</g>
</g>
<!-- dir_342ad3e7b83526a7f418520e380404a9&#45;&gt;dir_cab9f8330899b1cc9d753b1d9c5c5a3e -->
<g id="edge7" class="edge">
<title>dir_342ad3e7b83526a7f418520e380404a9&#45;&gt;dir_cab9f8330899b1cc9d753b1d9c5c5a3e</title>
<path fill="none" stroke="black" d="M234.14,-218.5C253.82,-207.98 280.62,-193.66 302.06,-182.2"/>
<polygon fill="black" stroke="black" points="303.72,-185.29 310.89,-177.49 300.42,-179.11 303.72,-185.29"/>
<g id="a_edge7&#45;headlabel"><a xlink:href="dir_000021_000053.html" target="_top" xlink:title="1">
<text text-anchor="middle" x="301.89" y="-186.98" font-family="Helvetica,sans-Serif" font-size="10.00">1</text>
</a>
</g>
</g>
<!-- dir_342ad3e7b83526a7f418520e380404a9&#45;&gt;dir_cf63c3ddb21c79ef735682489f4c6a69 -->
<g id="edge6" class="edge">
<title>dir_342ad3e7b83526a7f418520e380404a9&#45;&gt;dir_cf63c3ddb21c79ef735682489f4c6a69</title>
<path fill="none" stroke="black" d="M214.43,-215.83C223.04,-197.04 238.45,-166.6 257,-144 290.38,-103.33 338.03,-65.34 369.7,-42.16"/>
<polygon fill="black" stroke="black" points="372.14,-44.72 378.19,-36.02 368.04,-39.04 372.14,-44.72"/>
<g id="a_edge6&#45;headlabel"><a xlink:href="dir_000021_000279.html" target="_top" xlink:title="5">
<text text-anchor="middle" x="370.89" y="-46.62" font-family="Helvetica,sans-Serif" font-size="10.00">5</text>
</a>
</g>
</g>
<!-- dir_444b57698294f6a80104968315903582&#45;&gt;dir_84ef7c054b4edc3447cfba80cee80f65 -->
<g id="edge13" class="edge">
<title>dir_444b57698294f6a80104968315903582&#45;&gt;dir_84ef7c054b4edc3447cfba80cee80f65</title>
<path fill="none" stroke="black" d="M559.53,-215.87C527.86,-190.6 468.5,-143.25 432.68,-114.68"/>
<polygon fill="black" stroke="black" points="434.55,-111.69 424.55,-108.19 430.18,-117.16 434.55,-111.69"/>
<g id="a_edge13&#45;headlabel"><a xlink:href="dir_000009_000046.html" target="_top" xlink:title="12">
<text text-anchor="middle" x="439.13" y="-109.21" font-family="Helvetica,sans-Serif" font-size="10.00">12</text>
</a>
</g>
</g>
<!-- dir_444b57698294f6a80104968315903582&#45;&gt;dir_cab9f8330899b1cc9d753b1d9c5c5a3e -->
<g id="edge14" class="edge">
<title>dir_444b57698294f6a80104968315903582&#45;&gt;dir_cab9f8330899b1cc9d753b1d9c5c5a3e</title>
<path fill="none" stroke="black" d="M551.69,-224.56C507.38,-211.79 423.38,-187.6 374.94,-173.64"/>
<polygon fill="black" stroke="black" points="375.75,-170.23 365.18,-170.83 373.82,-176.96 375.75,-170.23"/>
<g id="a_edge14&#45;headlabel"><a xlink:href="dir_000009_000053.html" target="_top" xlink:title="1">
<text text-anchor="middle" x="379.99" y="-166" font-family="Helvetica,sans-Serif" font-size="10.00">1</text>
</a>
</g>
</g>
<!-- dir_444b57698294f6a80104968315903582&#45;&gt;dir_cf63c3ddb21c79ef735682489f4c6a69 -->
<g id="edge15" class="edge">
<title>dir_444b57698294f6a80104968315903582&#45;&gt;dir_cf63c3ddb21c79ef735682489f4c6a69</title>
<path fill="none" stroke="black" d="M597.81,-215.86C608.06,-206.67 620,-194.29 626,-180 644.58,-135.74 655.92,-109.53 626,-72 603.52,-43.81 503.87,-29.42 445.57,-23.12"/>
<polygon fill="black" stroke="black" points="445.85,-19.63 435.54,-22.07 445.12,-26.59 445.85,-19.63"/>
<g id="a_edge15&#45;headlabel"><a xlink:href="dir_000009_000279.html" target="_top" xlink:title="5">
<text text-anchor="middle" x="449.72" y="-14.68" font-family="Helvetica,sans-Serif" font-size="10.00">5</text>
</a>
</g>
</g>
<!-- dir_687ef06ec02158f82af83f8ed0273ebe&#45;&gt;dir_84ef7c054b4edc3447cfba80cee80f65 -->
<g id="edge9" class="edge">
<title>dir_687ef06ec02158f82af83f8ed0273ebe&#45;&gt;dir_84ef7c054b4edc3447cfba80cee80f65</title>
<path fill="none" stroke="black" d="M226.47,-359.58C197.36,-330 146.66,-268.12 171,-216 206.45,-140.09 309.87,-108.82 365.9,-97.17"/>
<polygon fill="black" stroke="black" points="366.65,-100.59 375.78,-95.22 365.3,-93.72 366.65,-100.59"/>
<g id="a_edge9&#45;headlabel"><a xlink:href="dir_000017_000046.html" target="_top" xlink:title="6">
<text text-anchor="middle" x="363.68" y="-101.57" font-family="Helvetica,sans-Serif" font-size="10.00">6</text>
</a>
</g>
</g>
<!-- dir_687ef06ec02158f82af83f8ed0273ebe&#45;&gt;dir_ca4d1f3bc4cd42ba07a57ca86d19a1d6 -->
<g id="edge11" class="edge">
<title>dir_687ef06ec02158f82af83f8ed0273ebe&#45;&gt;dir_ca4d1f3bc4cd42ba07a57ca86d19a1d6</title>
<path fill="none" stroke="black" d="M272.25,-365.44C297.44,-354.75 335.35,-338.67 365.03,-326.08"/>
<polygon fill="black" stroke="black" points="366.51,-329.25 374.35,-322.13 363.77,-322.81 366.51,-329.25"/>
<g id="a_edge11&#45;headlabel"><a xlink:href="dir_000017_000156.html" target="_top" xlink:title="2">
<text text-anchor="middle" x="364.31" y="-330.77" font-family="Helvetica,sans-Serif" font-size="10.00">2</text>
</a>
</g>
</g>
<!-- dir_687ef06ec02158f82af83f8ed0273ebe&#45;&gt;dir_cab9f8330899b1cc9d753b1d9c5c5a3e -->
<g id="edge12" class="edge">
<title>dir_687ef06ec02158f82af83f8ed0273ebe&#45;&gt;dir_cab9f8330899b1cc9d753b1d9c5c5a3e</title>
<path fill="none" stroke="black" d="M252.45,-359.85C268.64,-322.6 307.12,-234.07 326.47,-189.54"/>
<polygon fill="black" stroke="black" points="329.74,-190.8 330.51,-180.23 323.32,-188.01 329.74,-190.8"/>
<g id="a_edge12&#45;headlabel"><a xlink:href="dir_000017_000053.html" target="_top" xlink:title="1">
<text text-anchor="middle" x="330.91" y="-192.73" font-family="Helvetica,sans-Serif" font-size="10.00">1</text>
</a>
</g>
</g>
<!-- dir_687ef06ec02158f82af83f8ed0273ebe&#45;&gt;dir_cf63c3ddb21c79ef735682489f4c6a69 -->
<g id="edge10" class="edge">
<title>dir_687ef06ec02158f82af83f8ed0273ebe&#45;&gt;dir_cf63c3ddb21c79ef735682489f4c6a69</title>
<path fill="none" stroke="black" d="M217.86,-363.21C179.49,-341.56 114,-295.71 114,-235 114,-235 114,-235 114,-161 114,-52.66 279.62,-26.97 360.11,-20.89"/>
<polygon fill="black" stroke="black" points="360.67,-24.36 370.41,-20.18 360.19,-17.37 360.67,-24.36"/>
<g id="a_edge10&#45;headlabel"><a xlink:href="dir_000017_000279.html" target="_top" xlink:title="7">
<text text-anchor="middle" x="357.28" y="-24.94" font-family="Helvetica,sans-Serif" font-size="10.00">7</text>
</a>
</g>
</g>
<!-- dir_83bd8be6e9490851e8e4007286e9f64b&#45;&gt;dir_84ef7c054b4edc3447cfba80cee80f65 -->
<g id="edge16" class="edge">
<title>dir_83bd8be6e9490851e8e4007286e9f64b&#45;&gt;dir_84ef7c054b4edc3447cfba80cee80f65</title>
<path fill="none" stroke="black" d="M461.04,-215.87C449.64,-191.35 428.58,-146.03 415.2,-117.26"/>
<polygon fill="black" stroke="black" points="418.38,-115.78 410.99,-108.19 412.03,-118.73 418.38,-115.78"/>
<g id="a_edge16&#45;headlabel"><a xlink:href="dir_000031_000046.html" target="_top" xlink:title="10">
<text text-anchor="middle" x="422.47" y="-115.35" font-family="Helvetica,sans-Serif" font-size="10.00">10</text>
</a>
</g>
</g>
<!-- dir_83bd8be6e9490851e8e4007286e9f64b&#45;&gt;dir_cab9f8330899b1cc9d753b1d9c5c5a3e -->
<g id="edge18" class="edge">
<title>dir_83bd8be6e9490851e8e4007286e9f64b&#45;&gt;dir_cab9f8330899b1cc9d753b1d9c5c5a3e</title>
<path fill="none" stroke="black" d="M441.86,-218.5C422.18,-207.98 395.38,-193.66 373.94,-182.2"/>
<polygon fill="black" stroke="black" points="375.58,-179.11 365.11,-177.49 372.28,-185.29 375.58,-179.11"/>
<g id="a_edge18&#45;headlabel"><a xlink:href="dir_000031_000053.html" target="_top" xlink:title="1">
<text text-anchor="middle" x="380.09" y="-175.8" font-family="Helvetica,sans-Serif" font-size="10.00">1</text>
</a>
</g>
</g>
<!-- dir_83bd8be6e9490851e8e4007286e9f64b&#45;&gt;dir_cf63c3ddb21c79ef735682489f4c6a69 -->
<g id="edge17" class="edge">
<title>dir_83bd8be6e9490851e8e4007286e9f64b&#45;&gt;dir_cf63c3ddb21c79ef735682489f4c6a69</title>
<path fill="none" stroke="black" d="M468.11,-215.9C466.06,-185.77 459.45,-121.69 439,-72 435.04,-62.38 429.17,-52.72 423.31,-44.32"/>
<polygon fill="black" stroke="black" points="426.02,-42.1 417.3,-36.09 420.37,-46.23 426.02,-42.1"/>
<g id="a_edge17&#45;headlabel"><a xlink:href="dir_000031_000279.html" target="_top" xlink:title="11">
<text text-anchor="middle" x="430.44" y="-40.83" font-family="Helvetica,sans-Serif" font-size="10.00">11</text>
</a>
</g>
</g>
<!-- dir_84ef7c054b4edc3447cfba80cee80f65&#45;&gt;dir_cf63c3ddb21c79ef735682489f4c6a69 -->
<g id="edge8" class="edge">
<title>dir_84ef7c054b4edc3447cfba80cee80f65&#45;&gt;dir_cf63c3ddb21c79ef735682489f4c6a69</title>
<path fill="none" stroke="black" d="M397.08,-71.7C396.29,-63.98 396.06,-54.71 396.4,-46.11"/>
<polygon fill="black" stroke="black" points="399.9,-46.32 397.1,-36.1 392.92,-45.84 399.9,-46.32"/>
<g id="a_edge8&#45;headlabel"><a xlink:href="dir_000046_000279.html" target="_top" xlink:title="3">
<text text-anchor="middle" x="402.48" y="-47.61" font-family="Helvetica,sans-Serif" font-size="10.00">3</text>
</a>
</g>
</g>
<!-- dir_ca4d1f3bc4cd42ba07a57ca86d19a1d6&#45;&gt;dir_444b57698294f6a80104968315903582 -->
<g id="edge29" class="edge">
<title>dir_ca4d1f3bc4cd42ba07a57ca86d19a1d6&#45;&gt;dir_444b57698294f6a80104968315903582</title>
<path fill="none" stroke="black" d="M445.85,-290.33C474.09,-278.76 513.4,-262.67 542.34,-250.82"/>
<polygon fill="black" stroke="black" points="543.8,-254.01 551.73,-246.98 541.15,-247.53 543.8,-254.01"/>
<g id="a_edge29&#45;headlabel"><a xlink:href="dir_000156_000009.html" target="_top" xlink:title="1">
<text text-anchor="middle" x="541.55" y="-255.5" font-family="Helvetica,sans-Serif" font-size="10.00">1</text>
</a>
</g>
</g>
<!-- dir_ca4d1f3bc4cd42ba07a57ca86d19a1d6&#45;&gt;dir_84ef7c054b4edc3447cfba80cee80f65 -->
<g id="edge30" class="edge">
<title>dir_ca4d1f3bc4cd42ba07a57ca86d19a1d6&#45;&gt;dir_84ef7c054b4edc3447cfba80cee80f65</title>
<path fill="none" stroke="black" d="M409.44,-287.85C408.23,-250.83 405.36,-163.18 403.9,-118.39"/>
<polygon fill="black" stroke="black" points="407.39,-118.11 403.56,-108.23 400.39,-118.34 407.39,-118.11"/>
<g id="a_edge30&#45;headlabel"><a xlink:href="dir_000156_000046.html" target="_top" xlink:title="19">
<text text-anchor="middle" x="410.34" y="-119.11" font-family="Helvetica,sans-Serif" font-size="10.00">19</text>
</a>
</g>
</g>
<!-- dir_ca4d1f3bc4cd42ba07a57ca86d19a1d6&#45;&gt;dir_cab9f8330899b1cc9d753b1d9c5c5a3e -->
<g id="edge31" class="edge">
<title>dir_ca4d1f3bc4cd42ba07a57ca86d19a1d6&#45;&gt;dir_cab9f8330899b1cc9d753b1d9c5c5a3e</title>
<path fill="none" stroke="black" d="M401.32,-287.87C388.88,-263.35 365.9,-218.03 351.31,-189.26"/>
<polygon fill="black" stroke="black" points="354.36,-187.53 346.72,-180.19 348.12,-190.69 354.36,-187.53"/>
<g id="a_edge31&#45;headlabel"><a xlink:href="dir_000156_000053.html" target="_top" xlink:title="4">
<text text-anchor="middle" x="358.52" y="-186.95" font-family="Helvetica,sans-Serif" font-size="10.00">4</text>
</a>
</g>
</g>
<!-- dir_ca4d1f3bc4cd42ba07a57ca86d19a1d6&#45;&gt;dir_cf63c3ddb21c79ef735682489f4c6a69 -->
<g id="edge32" class="edge">
<title>dir_ca4d1f3bc4cd42ba07a57ca86d19a1d6&#45;&gt;dir_cf63c3ddb21c79ef735682489f4c6a69</title>
<path fill="none" stroke="black" d="M445.91,-295.05C467.14,-287.12 492.28,-273.66 505,-252 513.1,-238.2 507.51,-231.8 505,-216 494.42,-149.51 493.74,-129.05 458,-72 451.29,-61.29 441.95,-51.21 432.87,-42.77"/>
<polygon fill="black" stroke="black" points="435.17,-40.13 425.37,-36.09 430.51,-45.36 435.17,-40.13"/>
<g id="a_edge32&#45;headlabel"><a xlink:href="dir_000156_000279.html" target="_top" xlink:title="4">
<text text-anchor="middle" x="439.74" y="-37.9" font-family="Helvetica,sans-Serif" font-size="10.00">4</text>
</a>
</g>
</g>
<!-- dir_cab9f8330899b1cc9d753b1d9c5c5a3e&#45;&gt;dir_84ef7c054b4edc3447cfba80cee80f65 -->
<g id="edge35" class="edge">
<title>dir_cab9f8330899b1cc9d753b1d9c5c5a3e&#45;&gt;dir_84ef7c054b4edc3447cfba80cee80f65</title>
<path fill="none" stroke="black" d="M354.07,-143.7C361.94,-135.22 371.56,-124.86 380.17,-115.58"/>
<polygon fill="black" stroke="black" points="382.88,-117.81 387.12,-108.1 377.75,-113.05 382.88,-117.81"/>
<g id="a_edge35&#45;headlabel"><a xlink:href="dir_000053_000046.html" target="_top" xlink:title="4">
<text text-anchor="middle" x="382.51" y="-119.88" font-family="Helvetica,sans-Serif" font-size="10.00">4</text>
</a>
</g>
</g>
<!-- dir_cf63c3ddb21c79ef735682489f4c6a69&#45;&gt;dir_444b57698294f6a80104968315903582 -->
<g id="edge33" class="edge">
<title>dir_cf63c3ddb21c79ef735682489f4c6a69&#45;&gt;dir_444b57698294f6a80104968315903582</title>
<path fill="none" stroke="black" d="M435.6,-21.11C495.55,-26.02 618.69,-40.26 644,-72 673.92,-109.53 662.58,-135.74 644,-180 638.69,-192.64 628.74,-203.79 618.19,-212.56"/>
<polygon fill="black" stroke="black" points="615.88,-209.92 610.08,-218.78 620.15,-215.47 615.88,-209.92"/>
<g id="a_edge33&#45;headlabel"><a xlink:href="dir_000279_000009.html" target="_top" xlink:title="1">
<text text-anchor="middle" x="617.01" y="-202.97" font-family="Helvetica,sans-Serif" font-size="10.00">1</text>
</a>
</g>
</g>
<!-- dir_cf63c3ddb21c79ef735682489f4c6a69&#45;&gt;dir_84ef7c054b4edc3447cfba80cee80f65 -->
<g id="edge34" class="edge">
<title>dir_cf63c3ddb21c79ef735682489f4c6a69&#45;&gt;dir_84ef7c054b4edc3447cfba80cee80f65</title>
<path fill="none" stroke="black" d="M408.9,-36.1C409.7,-43.79 409.94,-53.05 409.6,-61.67"/>
<polygon fill="black" stroke="black" points="406.11,-61.48 408.92,-71.7 413.09,-61.96 406.11,-61.48"/>
<g id="a_edge34&#45;headlabel"><a xlink:href="dir_000279_000046.html" target="_top" xlink:title="54">
<text text-anchor="middle" x="403.52" y="-55.2" font-family="Helvetica,sans-Serif" font-size="10.00">54</text>
</a>
</g>
</g>
<!-- dir_d0219b36a5ea27d6075e0b14c6f98d85&#45;&gt;dir_687ef06ec02158f82af83f8ed0273ebe -->
<g id="edge1" class="edge">
<title>dir_d0219b36a5ea27d6075e0b14c6f98d85&#45;&gt;dir_687ef06ec02158f82af83f8ed0273ebe</title>
<path fill="none" stroke="black" d="M203.6,-431.7C210.12,-423.39 218.07,-413.28 225.25,-404.14"/>
<polygon fill="black" stroke="black" points="228.13,-406.13 231.56,-396.1 222.63,-401.81 228.13,-406.13"/>
<g id="a_edge1&#45;headlabel"><a xlink:href="dir_000129_000017.html" target="_top" xlink:title="1">
<text text-anchor="middle" x="228.15" y="-408.21" font-family="Helvetica,sans-Serif" font-size="10.00">1</text>
</a>
</g>
</g>
<!-- dir_d0219b36a5ea27d6075e0b14c6f98d85&#45;&gt;dir_84ef7c054b4edc3447cfba80cee80f65 -->
<g id="edge2" class="edge">
<title>dir_d0219b36a5ea27d6075e0b14c6f98d85&#45;&gt;dir_84ef7c054b4edc3447cfba80cee80f65</title>
<path fill="none" stroke="black" d="M182.82,-431.81C161.86,-378.64 107.55,-216.04 194,-144 243.36,-102.87 320.47,-93.07 365.94,-91.07"/>
<polygon fill="black" stroke="black" points="366.09,-94.57 375.97,-90.74 365.85,-87.58 366.09,-94.57"/>
<g id="a_edge2&#45;headlabel"><a xlink:href="dir_000129_000046.html" target="_top" xlink:title="2">
<text text-anchor="middle" x="362.59" y="-95.03" font-family="Helvetica,sans-Serif" font-size="10.00">2</text>
</a>
</g>
</g>
<!-- dir_d0219b36a5ea27d6075e0b14c6f98d85&#45;&gt;dir_cab9f8330899b1cc9d753b1d9c5c5a3e -->
<g id="edge4" class="edge">
<title>dir_d0219b36a5ea27d6075e0b14c6f98d85&#45;&gt;dir_cab9f8330899b1cc9d753b1d9c5c5a3e</title>
<path fill="none" stroke="black" d="M191.39,-431.98C193.44,-412.17 198.27,-378.76 209,-352 235,-287.14 286.17,-222.18 315.65,-187.88"/>
<polygon fill="black" stroke="black" points="318.38,-190.08 322.3,-180.24 313.1,-185.49 318.38,-190.08"/>
<g id="a_edge4&#45;headlabel"><a xlink:href="dir_000129_000053.html" target="_top" xlink:title="1">
<text text-anchor="middle" x="318.16" y="-192.16" font-family="Helvetica,sans-Serif" font-size="10.00">1</text>
</a>
</g>
</g>
<!-- dir_d0219b36a5ea27d6075e0b14c6f98d85&#45;&gt;dir_cf63c3ddb21c79ef735682489f4c6a69 -->
<g id="edge3" class="edge">
<title>dir_d0219b36a5ea27d6075e0b14c6f98d85&#45;&gt;dir_cf63c3ddb21c79ef735682489f4c6a69</title>
<path fill="none" stroke="black" d="M160.73,-441.76C107.43,-426.62 0,-386.27 0,-307 0,-307 0,-307 0,-161 0,-113.79 18.32,-97.59 58,-72 107.22,-40.25 278.85,-26.23 359.93,-21.27"/>
<polygon fill="black" stroke="black" points="360.51,-24.74 370.29,-20.65 360.1,-17.75 360.51,-24.74"/>
<g id="a_edge3&#45;headlabel"><a xlink:href="dir_000129_000279.html" target="_top" xlink:title="10">
<text text-anchor="middle" x="357.09" y="-25.29" font-family="Helvetica,sans-Serif" font-size="10.00">10</text>
</a>
</g>
</g>
</g>
</svg>
