<?xml version="1.0" encoding="UTF-8" standalone="no"?>
<!DOCTYPE svg PUBLIC "-//W3C//DTD SVG 1.1//EN"
 "http://www.w3.org/Graphics/SVG/1.1/DTD/svg11.dtd">
<!-- Generated by graphviz version 2.43.0 (0)
 -->
<!-- Title: include/mlir/Dialect/Bufferization/TransformOps Pages: 1 -->
<svg width="219pt" height="295pt"
 viewBox="0.00 0.00 218.95 295.00" xmlns="http://www.w3.org/2000/svg" xmlns:xlink="http://www.w3.org/1999/xlink">
<g id="graph0" class="graph" transform="scale(1 1) rotate(0) translate(4 291)">
<title>include/mlir/Dialect/Bufferization/TransformOps</title>
<g id="clust1" class="cluster">
<title>clusterdir_762b59f238bc9709d1f8796a74c242af</title>
<g id="a_clust1"><a xlink:href="dir_762b59f238bc9709d1f8796a74c242af.html" target="_top" xlink:title="Bufferization">
<polygon fill="#ddddee" stroke="black" points="8,-136 8,-279 108,-279 108,-136 8,-136"/>
<text text-anchor="middle" x="58" y="-267" font-family="Helvetica,sans-Serif" font-size="10.00">Bufferization</text>
</a>
</g>
</g>
<!-- dir_9b91dca05981ef709e333703f5b9c9a3 -->
<g id="node1" class="node">
<title>dir_9b91dca05981ef709e333703f5b9c9a3</title>
<g id="a_node1"><a xlink:href="dir_9b91dca05981ef709e333703f5b9c9a3.html" target="_top" xlink:title="IR">
<polygon fill="none" stroke="black" points="70,-180 16,-180 16,-144 70,-144 70,-180"/>
<text text-anchor="middle" x="43" y="-159.5" font-family="Helvetica,sans-Serif" font-size="10.00">IR</text>
</a>
</g>
</g>
<!-- dir_51020c1b0909ae629a35fe1c65c620b9 -->
<g id="node3" class="node">
<title>dir_51020c1b0909ae629a35fe1c65c620b9</title>
<g id="a_node3"><a xlink:href="dir_51020c1b0909ae629a35fe1c65c620b9.html" target="_top" xlink:title="Bytecode">
<polygon fill="none" stroke="black" points="132,-108 70,-108 70,-72 132,-72 132,-108"/>
<text text-anchor="middle" x="101" y="-87.5" font-family="Helvetica,sans-Serif" font-size="10.00">Bytecode</text>
</a>
</g>
</g>
<!-- dir_9b91dca05981ef709e333703f5b9c9a3&#45;&gt;dir_51020c1b0909ae629a35fe1c65c620b9 -->
<g id="edge9" class="edge">
<title>dir_9b91dca05981ef709e333703f5b9c9a3&#45;&gt;dir_51020c1b0909ae629a35fe1c65c620b9</title>
<path fill="none" stroke="black" d="M57.34,-143.7C64.29,-135.3 72.77,-125.07 80.4,-115.86"/>
<polygon fill="black" stroke="black" points="83.14,-118.04 86.83,-108.1 77.75,-113.57 83.14,-118.04"/>
<g id="a_edge9&#45;headlabel"><a xlink:href="dir_000211_000050.html" target="_top" xlink:title="1">
<text text-anchor="middle" x="83.04" y="-120.12" font-family="Helvetica,sans-Serif" font-size="10.00">1</text>
</a>
</g>
</g>
<!-- dir_84ef7c054b4edc3447cfba80cee80f65 -->
<g id="node5" class="node">
<title>dir_84ef7c054b4edc3447cfba80cee80f65</title>
<g id="a_node5"><a xlink:href="dir_84ef7c054b4edc3447cfba80cee80f65.html" target="_top" xlink:title="IR">
<polygon fill="none" stroke="black" points="128,-36 74,-36 74,0 128,0 128,-36"/>
<text text-anchor="middle" x="101" y="-15.5" font-family="Helvetica,sans-Serif" font-size="10.00">IR</text>
</a>
</g>
</g>
<!-- dir_9b91dca05981ef709e333703f5b9c9a3&#45;&gt;dir_84ef7c054b4edc3447cfba80cee80f65 -->
<g id="edge10" class="edge">
<title>dir_9b91dca05981ef709e333703f5b9c9a3&#45;&gt;dir_84ef7c054b4edc3447cfba80cee80f65</title>
<path fill="none" stroke="black" d="M44.19,-143.91C45.98,-125.47 50.39,-95.57 61,-72 65.4,-62.22 71.88,-52.56 78.35,-44.21"/>
<polygon fill="black" stroke="black" points="81.15,-46.31 84.74,-36.35 75.72,-41.9 81.15,-46.31"/>
<g id="a_edge10&#45;headlabel"><a xlink:href="dir_000211_000046.html" target="_top" xlink:title="8">
<text text-anchor="middle" x="81.09" y="-48.39" font-family="Helvetica,sans-Serif" font-size="10.00">8</text>
</a>
</g>
</g>
<!-- dir_535d4e39b96f8b60c1377f921e550b9c -->
<g id="node2" class="node">
<title>dir_535d4e39b96f8b60c1377f921e550b9c</title>
<g id="a_node2"><a xlink:href="dir_535d4e39b96f8b60c1377f921e550b9c.html" target="_top" xlink:title="TransformOps">
<polygon fill="#eeeeff" stroke="black" points="100,-252 16,-252 16,-216 100,-216 100,-252"/>
<text text-anchor="middle" x="58" y="-231.5" font-family="Helvetica,sans-Serif" font-size="10.00">TransformOps</text>
</a>
</g>
</g>
<!-- dir_535d4e39b96f8b60c1377f921e550b9c&#45;&gt;dir_9b91dca05981ef709e333703f5b9c9a3 -->
<g id="edge5" class="edge">
<title>dir_535d4e39b96f8b60c1377f921e550b9c&#45;&gt;dir_9b91dca05981ef709e333703f5b9c9a3</title>
<path fill="none" stroke="black" d="M54.29,-215.7C52.64,-207.98 50.65,-198.71 48.81,-190.11"/>
<polygon fill="black" stroke="black" points="52.18,-189.15 46.67,-180.1 45.34,-190.62 52.18,-189.15"/>
<g id="a_edge5&#45;headlabel"><a xlink:href="dir_000212_000211.html" target="_top" xlink:title="1">
<text text-anchor="middle" x="55.71" y="-189.57" font-family="Helvetica,sans-Serif" font-size="10.00">1</text>
</a>
</g>
</g>
<!-- dir_535d4e39b96f8b60c1377f921e550b9c&#45;&gt;dir_51020c1b0909ae629a35fe1c65c620b9 -->
<g id="edge2" class="edge">
<title>dir_535d4e39b96f8b60c1377f921e550b9c&#45;&gt;dir_51020c1b0909ae629a35fe1c65c620b9</title>
<path fill="none" stroke="black" d="M65.6,-215.55C69.89,-205.32 75.14,-192.07 79,-180 85.54,-159.57 91.29,-135.98 95.27,-118.22"/>
<polygon fill="black" stroke="black" points="98.74,-118.77 97.46,-108.25 91.9,-117.27 98.74,-118.77"/>
<g id="a_edge2&#45;headlabel"><a xlink:href="dir_000212_000050.html" target="_top" xlink:title="1">
<text text-anchor="middle" x="100.74" y="-120.39" font-family="Helvetica,sans-Serif" font-size="10.00">1</text>
</a>
</g>
</g>
<!-- dir_832fe9af74a05d9f4772b8e442bafd02 -->
<g id="node4" class="node">
<title>dir_832fe9af74a05d9f4772b8e442bafd02</title>
<g id="a_node4"><a xlink:href="dir_832fe9af74a05d9f4772b8e442bafd02.html" target="_top" xlink:title="Transform">
<polygon fill="none" stroke="red" points="191.5,-180 126.5,-180 126.5,-144 191.5,-144 191.5,-180"/>
<text text-anchor="middle" x="159" y="-159.5" font-family="Helvetica,sans-Serif" font-size="10.00">Transform</text>
</a>
</g>
</g>
<!-- dir_535d4e39b96f8b60c1377f921e550b9c&#45;&gt;dir_832fe9af74a05d9f4772b8e442bafd02 -->
<g id="edge3" class="edge">
<title>dir_535d4e39b96f8b60c1377f921e550b9c&#45;&gt;dir_832fe9af74a05d9f4772b8e442bafd02</title>
<path fill="none" stroke="black" d="M82.71,-215.88C95.67,-206.89 111.73,-195.76 125.77,-186.03"/>
<polygon fill="black" stroke="black" points="127.97,-188.76 134.2,-180.19 123.98,-183.01 127.97,-188.76"/>
<g id="a_edge3&#45;headlabel"><a xlink:href="dir_000212_000033.html" target="_top" xlink:title="2">
<text text-anchor="middle" x="126.64" y="-190.64" font-family="Helvetica,sans-Serif" font-size="10.00">2</text>
</a>
</g>
</g>
<!-- dir_535d4e39b96f8b60c1377f921e550b9c&#45;&gt;dir_84ef7c054b4edc3447cfba80cee80f65 -->
<g id="edge4" class="edge">
<title>dir_535d4e39b96f8b60c1377f921e550b9c&#45;&gt;dir_84ef7c054b4edc3447cfba80cee80f65</title>
<path fill="none" stroke="black" d="M100.25,-229.93C133.72,-225.02 178.47,-212.38 201,-180 234.14,-132.37 174.17,-73.96 133.64,-42.23"/>
<polygon fill="black" stroke="black" points="135.65,-39.35 125.58,-36.06 131.4,-44.91 135.65,-39.35"/>
<g id="a_edge4&#45;headlabel"><a xlink:href="dir_000212_000046.html" target="_top" xlink:title="1">
<text text-anchor="middle" x="140.23" y="-36.78" font-family="Helvetica,sans-Serif" font-size="10.00">1</text>
</a>
</g>
</g>
<!-- dir_51020c1b0909ae629a35fe1c65c620b9&#45;&gt;dir_84ef7c054b4edc3447cfba80cee80f65 -->
<g id="edge6" class="edge">
<title>dir_51020c1b0909ae629a35fe1c65c620b9&#45;&gt;dir_84ef7c054b4edc3447cfba80cee80f65</title>
<path fill="none" stroke="black" d="M95.08,-71.7C94.29,-63.98 94.06,-54.71 94.4,-46.11"/>
<polygon fill="black" stroke="black" points="97.9,-46.32 95.1,-36.1 90.92,-45.84 97.9,-46.32"/>
<g id="a_edge6&#45;headlabel"><a xlink:href="dir_000050_000046.html" target="_top" xlink:title="9">
<text text-anchor="middle" x="100.48" y="-47.61" font-family="Helvetica,sans-Serif" font-size="10.00">9</text>
</a>
</g>
</g>
<!-- dir_832fe9af74a05d9f4772b8e442bafd02&#45;&gt;dir_51020c1b0909ae629a35fe1c65c620b9 -->
<g id="edge7" class="edge">
<title>dir_832fe9af74a05d9f4772b8e442bafd02&#45;&gt;dir_51020c1b0909ae629a35fe1c65c620b9</title>
<path fill="none" stroke="black" d="M144.66,-143.7C137.71,-135.3 129.23,-125.07 121.6,-115.86"/>
<polygon fill="black" stroke="black" points="124.25,-113.57 115.17,-108.1 118.86,-118.04 124.25,-113.57"/>
<g id="a_edge7&#45;headlabel"><a xlink:href="dir_000033_000050.html" target="_top" xlink:title="5">
<text text-anchor="middle" x="128.73" y="-112.03" font-family="Helvetica,sans-Serif" font-size="10.00">5</text>
</a>
</g>
</g>
<!-- dir_832fe9af74a05d9f4772b8e442bafd02&#45;&gt;dir_84ef7c054b4edc3447cfba80cee80f65 -->
<g id="edge8" class="edge">
<title>dir_832fe9af74a05d9f4772b8e442bafd02&#45;&gt;dir_84ef7c054b4edc3447cfba80cee80f65</title>
<path fill="none" stroke="black" d="M157.81,-143.91C156.02,-125.47 151.61,-95.57 141,-72 136.6,-62.22 130.12,-52.56 123.65,-44.21"/>
<polygon fill="black" stroke="black" points="126.28,-41.9 117.26,-36.35 120.85,-46.31 126.28,-41.9"/>
<g id="a_edge8&#45;headlabel"><a xlink:href="dir_000033_000046.html" target="_top" xlink:title="27">
<text text-anchor="middle" x="130.75" y="-40.4" font-family="Helvetica,sans-Serif" font-size="10.00">27</text>
</a>
</g>
</g>
<!-- dir_84ef7c054b4edc3447cfba80cee80f65&#45;&gt;dir_51020c1b0909ae629a35fe1c65c620b9 -->
<g id="edge1" class="edge">
<title>dir_84ef7c054b4edc3447cfba80cee80f65&#45;&gt;dir_51020c1b0909ae629a35fe1c65c620b9</title>
<path fill="none" stroke="black" d="M106.9,-36.1C107.7,-43.79 107.94,-53.05 107.6,-61.67"/>
<polygon fill="black" stroke="black" points="104.11,-61.48 106.92,-71.7 111.09,-61.96 104.11,-61.48"/>
<g id="a_edge1&#45;headlabel"><a xlink:href="dir_000046_000050.html" target="_top" xlink:title="2">
<text text-anchor="middle" x="101.52" y="-55.2" font-family="Helvetica,sans-Serif" font-size="10.00">2</text>
</a>
</g>
</g>
</g>
</svg>
