<?xml version="1.0" encoding="UTF-8" standalone="no"?>
<!DOCTYPE svg PUBLIC "-//W3C//DTD SVG 1.1//EN"
 "http://www.w3.org/Graphics/SVG/1.1/DTD/svg11.dtd">
<!-- Generated by graphviz version 2.43.0 (0)
 -->
<!-- Title: lib/Target/LLVM Pages: 1 -->
<svg width="296pt" height="125pt"
 viewBox="0.00 0.00 296.00 125.00" xmlns="http://www.w3.org/2000/svg" xmlns:xlink="http://www.w3.org/1999/xlink">
<g id="graph0" class="graph" transform="scale(1 1) rotate(0) translate(4 121)">
<title>lib/Target/LLVM</title>
<g id="clust1" class="cluster">
<title>clusterdir_794e483eb1cc7921d35fd149d9cc325b</title>
<g id="a_clust1"><a xlink:href="dir_794e483eb1cc7921d35fd149d9cc325b.html" target="_top" xlink:title="Target">
<polygon fill="#edf0f7" stroke="#7f7f7f" stroke-dasharray="5,2" points="8,-39 8,-109 280,-109 280,-39 8,-39"/>
<text text-anchor="middle" x="144" y="-97" font-family="Helvetica,sans-Serif" font-size="10.00">Target</text>
</a>
</g>
</g>
<g id="clust2" class="cluster">
<title>clusterdir_a87e7464e03b0817bf28c7f34239afc5</title>
<g id="a_clust2"><a xlink:href="dir_a87e7464e03b0817bf28c7f34239afc5.html" target="_top">
<polygon fill="#edf0f7" stroke="#404040" stroke-width="2" points="16,-47 16,-82 272,-82 272,-47 16,-47"/>
</a>
</g>
</g>
<!-- dir_a87e7464e03b0817bf28c7f34239afc5 -->
<g id="node1" class="node">
<title>dir_a87e7464e03b0817bf28c7f34239afc5</title>
<text text-anchor="middle" x="243" y="-62" font-family="Helvetica,sans-Serif" font-size="10.00">LLVM</text>
</g>
<!-- dir_d44c64559bbebec7f509842c48db8b23 -->
<g id="node5" class="node">
<title>dir_d44c64559bbebec7f509842c48db8b23</title>
<g id="a_node5"><a xlink:href="dir_d44c64559bbebec7f509842c48db8b23.html" target="_top" xlink:title="include">
<polygon fill="#edf0f7" stroke="red" points="172,-19 120,-19 120,0 172,0 172,-19"/>
<text text-anchor="middle" x="146" y="-7" font-family="Helvetica,sans-Serif" font-size="10.00">include</text>
</a>
</g>
</g>
<!-- dir_a87e7464e03b0817bf28c7f34239afc5&#45;&gt;dir_d44c64559bbebec7f509842c48db8b23 -->
<g id="edge1" class="edge">
<title>dir_a87e7464e03b0817bf28c7f34239afc5&#45;&gt;dir_d44c64559bbebec7f509842c48db8b23</title>
<g id="a_edge1"><a xlink:href="dir_000275_000158.html" target="_top">
<path fill="none" stroke="#63b8ff" d="M233.79,-54.82C228.1,-49.77 220.48,-43.52 213,-39 202.81,-32.84 191.05,-27.36 180.26,-22.89"/>
<polygon fill="#63b8ff" stroke="#63b8ff" points="181.27,-19.52 170.69,-19.07 178.68,-26.03 181.27,-19.52"/>
</a>
</g>
<g id="a_edge1&#45;headlabel"><a xlink:href="dir_000275_000158.html" target="_top" xlink:title="39">
<text text-anchor="middle" x="185.66" y="-15.72" font-family="Helvetica,sans-Serif" font-size="10.00" fill="#63b8ff">39</text>
</a>
</g>
</g>
<!-- dir_ce982e373080413ca9d0294e8887e042 -->
<g id="node2" class="node">
<title>dir_ce982e373080413ca9d0294e8887e042</title>
<g id="a_node2"><a xlink:href="dir_ce982e373080413ca9d0294e8887e042.html" target="_top" xlink:title="NVVM">
<polygon fill="#a2b4d6" stroke="#404040" points="203.5,-74 156.5,-74 156.5,-55 203.5,-55 203.5,-74"/>
<text text-anchor="middle" x="180" y="-62" font-family="Helvetica,sans-Serif" font-size="10.00">NVVM</text>
</a>
</g>
</g>
<!-- dir_ce982e373080413ca9d0294e8887e042&#45;&gt;dir_d44c64559bbebec7f509842c48db8b23 -->
<g id="edge2" class="edge">
<title>dir_ce982e373080413ca9d0294e8887e042&#45;&gt;dir_d44c64559bbebec7f509842c48db8b23</title>
<g id="a_edge2"><a xlink:href="dir_000343_000158.html" target="_top">
<path fill="none" stroke="#63b8ff" d="M174.39,-54.75C169.68,-47.42 162.83,-36.73 157.03,-27.7"/>
<polygon fill="#63b8ff" stroke="#63b8ff" points="159.86,-25.62 151.51,-19.09 153.96,-29.4 159.86,-25.62"/>
</a>
</g>
<g id="a_edge2&#45;headlabel"><a xlink:href="dir_000343_000158.html" target="_top" xlink:title="12">
<text text-anchor="middle" x="164.19" y="-24.61" font-family="Helvetica,sans-Serif" font-size="10.00" fill="#63b8ff">12</text>
</a>
</g>
</g>
<!-- dir_d90f6d9f533c9913319c2bef2313325f -->
<g id="node3" class="node">
<title>dir_d90f6d9f533c9913319c2bef2313325f</title>
<g id="a_node3"><a xlink:href="dir_d90f6d9f533c9913319c2bef2313325f.html" target="_top" xlink:title="ROCDL">
<polygon fill="#a2b4d6" stroke="#404040" points="138,-74 88,-74 88,-55 138,-55 138,-74"/>
<text text-anchor="middle" x="113" y="-62" font-family="Helvetica,sans-Serif" font-size="10.00">ROCDL</text>
</a>
</g>
</g>
<!-- dir_d90f6d9f533c9913319c2bef2313325f&#45;&gt;dir_d44c64559bbebec7f509842c48db8b23 -->
<g id="edge3" class="edge">
<title>dir_d90f6d9f533c9913319c2bef2313325f&#45;&gt;dir_d44c64559bbebec7f509842c48db8b23</title>
<g id="a_edge3"><a xlink:href="dir_000417_000158.html" target="_top">
<path fill="none" stroke="#63b8ff" d="M118.45,-54.75C123.01,-47.42 129.67,-36.73 135.29,-27.7"/>
<polygon fill="#63b8ff" stroke="#63b8ff" points="138.34,-29.43 140.65,-19.09 132.4,-25.73 138.34,-29.43"/>
</a>
</g>
<g id="a_edge3&#45;headlabel"><a xlink:href="dir_000417_000158.html" target="_top" xlink:title="8">
<text text-anchor="middle" x="138.85" y="-31.48" font-family="Helvetica,sans-Serif" font-size="10.00" fill="#63b8ff">8</text>
</a>
</g>
</g>
<!-- dir_70f07d586b3a5e1aaab27a4f417b7eb0 -->
<g id="node4" class="node">
<title>dir_70f07d586b3a5e1aaab27a4f417b7eb0</title>
<g id="a_node4"><a xlink:href="dir_70f07d586b3a5e1aaab27a4f417b7eb0.html" target="_top" xlink:title="XeVM">
<polygon fill="#a2b4d6" stroke="#404040" points="69.5,-74 24.5,-74 24.5,-55 69.5,-55 69.5,-74"/>
<text text-anchor="middle" x="47" y="-62" font-family="Helvetica,sans-Serif" font-size="10.00">XeVM</text>
</a>
</g>
</g>
<!-- dir_70f07d586b3a5e1aaab27a4f417b7eb0&#45;&gt;dir_d44c64559bbebec7f509842c48db8b23 -->
<g id="edge4" class="edge">
<title>dir_70f07d586b3a5e1aaab27a4f417b7eb0&#45;&gt;dir_d44c64559bbebec7f509842c48db8b23</title>
<g id="a_edge4"><a xlink:href="dir_000673_000158.html" target="_top">
<path fill="none" stroke="#63b8ff" d="M56.91,-54.87C63.01,-49.83 71.14,-43.58 79,-39 89.37,-32.96 101.26,-27.48 112.12,-22.97"/>
<polygon fill="#63b8ff" stroke="#63b8ff" points="113.75,-26.09 121.73,-19.12 111.15,-19.59 113.75,-26.09"/>
</a>
</g>
<g id="a_edge4&#45;headlabel"><a xlink:href="dir_000673_000158.html" target="_top" xlink:title="13">
<text text-anchor="middle" x="111.47" y="-27.56" font-family="Helvetica,sans-Serif" font-size="10.00" fill="#63b8ff">13</text>
</a>
</g>
</g>
</g>
</svg>
