<?xml version="1.0" encoding="UTF-8" standalone="no"?>
<!DOCTYPE svg PUBLIC "-//W3C//DTD SVG 1.1//EN"
 "http://www.w3.org/Graphics/SVG/1.1/DTD/svg11.dtd">
<!-- Generated by graphviz version 2.43.0 (0)
 -->
<!-- Title: include/mlir/Target Pages: 1 -->
<svg width="628pt" height="319pt"
 viewBox="0.00 0.00 628.00 319.00" xmlns="http://www.w3.org/2000/svg" xmlns:xlink="http://www.w3.org/1999/xlink">
<g id="graph0" class="graph" transform="scale(1 1) rotate(0) translate(4 315)">
<title>include/mlir/Target</title>
<g id="clust1" class="cluster">
<title>clusterdir_5654f77406fb9ceec87e68ef828ceea2</title>
<g id="a_clust1"><a xlink:href="dir_5654f77406fb9ceec87e68ef828ceea2.html" target="_top" xlink:title="mlir">
<polygon fill="#ddddee" stroke="black" points="8,-8 8,-303 612,-303 612,-8 8,-8"/>
<text text-anchor="middle" x="310" y="-291" font-family="Helvetica,sans-Serif" font-size="10.00">mlir</text>
</a>
</g>
</g>
<g id="clust2" class="cluster">
<title>clusterdir_e350390f37204b20a5be47a406c54ddd</title>
<g id="a_clust2"><a xlink:href="dir_e350390f37204b20a5be47a406c54ddd.html" target="_top">
<polygon fill="#eeeeff" stroke="black" points="16,-224 16,-276 604,-276 604,-224 16,-224"/>
</a>
</g>
</g>
<!-- dir_84ef7c054b4edc3447cfba80cee80f65 -->
<g id="node1" class="node">
<title>dir_84ef7c054b4edc3447cfba80cee80f65</title>
<g id="a_node1"><a xlink:href="dir_84ef7c054b4edc3447cfba80cee80f65.html" target="_top" xlink:title="IR">
<polygon fill="none" stroke="black" points="354,-124 300,-124 300,-88 354,-88 354,-124"/>
<text text-anchor="middle" x="327" y="-103.5" font-family="Helvetica,sans-Serif" font-size="10.00">IR</text>
</a>
</g>
</g>
<!-- dir_f61d47671007dfdb592580b61f960d39 -->
<g id="node3" class="node">
<title>dir_f61d47671007dfdb592580b61f960d39</title>
<g id="a_node3"><a xlink:href="dir_f61d47671007dfdb592580b61f960d39.html" target="_top" xlink:title="Support">
<polygon fill="none" stroke="black" points="308,-52 254,-52 254,-16 308,-16 308,-52"/>
<text text-anchor="middle" x="281" y="-31.5" font-family="Helvetica,sans-Serif" font-size="10.00">Support</text>
</a>
</g>
</g>
<!-- dir_84ef7c054b4edc3447cfba80cee80f65&#45;&gt;dir_f61d47671007dfdb592580b61f960d39 -->
<g id="edge2" class="edge">
<title>dir_84ef7c054b4edc3447cfba80cee80f65&#45;&gt;dir_f61d47671007dfdb592580b61f960d39</title>
<path fill="none" stroke="black" d="M315.63,-87.7C310.28,-79.56 303.8,-69.69 297.89,-60.7"/>
<polygon fill="black" stroke="black" points="300.66,-58.54 292.24,-52.1 294.81,-62.38 300.66,-58.54"/>
<g id="a_edge2&#45;headlabel"><a xlink:href="dir_000047_000292.html" target="_top" xlink:title="23">
<text text-anchor="middle" x="305" y="-57.48" font-family="Helvetica,sans-Serif" font-size="10.00">23</text>
</a>
</g>
</g>
<!-- dir_d07a6fac82475a065a3b2953573f00a0 -->
<g id="node2" class="node">
<title>dir_d07a6fac82475a065a3b2953573f00a0</title>
<g id="a_node2"><a xlink:href="dir_d07a6fac82475a065a3b2953573f00a0.html" target="_top" xlink:title="Dialect">
<polygon fill="none" stroke="red" points="262,-196 208,-196 208,-160 262,-160 262,-196"/>
<text text-anchor="middle" x="235" y="-175.5" font-family="Helvetica,sans-Serif" font-size="10.00">Dialect</text>
</a>
</g>
</g>
<!-- dir_d07a6fac82475a065a3b2953573f00a0&#45;&gt;dir_84ef7c054b4edc3447cfba80cee80f65 -->
<g id="edge10" class="edge">
<title>dir_d07a6fac82475a065a3b2953573f00a0&#45;&gt;dir_84ef7c054b4edc3447cfba80cee80f65</title>
<path fill="none" stroke="black" d="M257.74,-159.7C269.44,-150.8 283.86,-139.82 296.51,-130.2"/>
<polygon fill="black" stroke="black" points="298.68,-132.94 304.52,-124.1 294.44,-127.37 298.68,-132.94"/>
<g id="a_edge10&#45;headlabel"><a xlink:href="dir_000014_000047.html" target="_top" xlink:title="391">
<text text-anchor="middle" x="297.54" y="-134.88" font-family="Helvetica,sans-Serif" font-size="10.00">391</text>
</a>
</g>
</g>
<!-- dir_d07a6fac82475a065a3b2953573f00a0&#45;&gt;dir_f61d47671007dfdb592580b61f960d39 -->
<g id="edge11" class="edge">
<title>dir_d07a6fac82475a065a3b2953573f00a0&#45;&gt;dir_f61d47671007dfdb592580b61f960d39</title>
<path fill="none" stroke="black" d="M240.55,-159.87C248.42,-135.56 262.92,-90.82 272.25,-62.01"/>
<polygon fill="black" stroke="black" points="275.68,-62.78 275.43,-52.19 269.02,-60.62 275.68,-62.78"/>
<g id="a_edge11&#45;headlabel"><a xlink:href="dir_000014_000292.html" target="_top" xlink:title="42">
<text text-anchor="middle" x="277.27" y="-64.58" font-family="Helvetica,sans-Serif" font-size="10.00">42</text>
</a>
</g>
</g>
<!-- dir_b808e701192d909e8d445339c9bbdeb2 -->
<g id="node8" class="node">
<title>dir_b808e701192d909e8d445339c9bbdeb2</title>
<g id="a_node8"><a xlink:href="dir_b808e701192d909e8d445339c9bbdeb2.html" target="_top" xlink:title="LLVMIR">
<polygon fill="white" stroke="red" points="150,-268 96,-268 96,-232 150,-232 150,-268"/>
<text text-anchor="middle" x="123" y="-247.5" font-family="Helvetica,sans-Serif" font-size="10.00">LLVMIR</text>
</a>
</g>
</g>
<!-- dir_d07a6fac82475a065a3b2953573f00a0&#45;&gt;dir_b808e701192d909e8d445339c9bbdeb2 -->
<g id="edge12" class="edge">
<title>dir_d07a6fac82475a065a3b2953573f00a0&#45;&gt;dir_b808e701192d909e8d445339c9bbdeb2</title>
<path fill="none" stroke="black" d="M213.26,-196.03C199.98,-204.25 182.97,-214.39 168,-224 164.94,-225.97 161.76,-228.07 158.57,-230.19"/>
<polygon fill="black" stroke="black" points="156.54,-227.34 150.12,-235.76 160.39,-233.18 156.54,-227.34"/>
<g id="a_edge12&#45;headlabel"><a xlink:href="dir_000014_000297.html" target="_top" xlink:title="2">
<text text-anchor="middle" x="157.98" y="-220.49" font-family="Helvetica,sans-Serif" font-size="10.00">2</text>
</a>
</g>
</g>
<!-- dir_e350390f37204b20a5be47a406c54ddd -->
<g id="node4" class="node">
<title>dir_e350390f37204b20a5be47a406c54ddd</title>
<text text-anchor="middle" x="569" y="-247.5" font-family="Helvetica,sans-Serif" font-size="10.00">Target</text>
</g>
<!-- dir_4894b50e82c5441cba6d4e4106efe705 -->
<g id="node5" class="node">
<title>dir_4894b50e82c5441cba6d4e4106efe705</title>
<g id="a_node5"><a xlink:href="dir_4894b50e82c5441cba6d4e4106efe705.html" target="_top" xlink:title="Cpp">
<polygon fill="white" stroke="black" points="78,-268 24,-268 24,-232 78,-232 78,-268"/>
<text text-anchor="middle" x="51" y="-247.5" font-family="Helvetica,sans-Serif" font-size="10.00">Cpp</text>
</a>
</g>
</g>
<!-- dir_4894b50e82c5441cba6d4e4106efe705&#45;&gt;dir_f61d47671007dfdb592580b61f960d39 -->
<g id="edge6" class="edge">
<title>dir_4894b50e82c5441cba6d4e4106efe705&#45;&gt;dir_f61d47671007dfdb592580b61f960d39</title>
<path fill="none" stroke="black" d="M61.62,-231.85C81.87,-200.22 128.76,-131.91 182,-88 200.74,-72.54 224.69,-59.58 244.34,-50.34"/>
<polygon fill="black" stroke="black" points="245.96,-53.45 253.6,-46.11 243.05,-47.08 245.96,-53.45"/>
<g id="a_edge6&#45;headlabel"><a xlink:href="dir_000294_000292.html" target="_top" xlink:title="1">
<text text-anchor="middle" x="243.87" y="-55.02" font-family="Helvetica,sans-Serif" font-size="10.00">1</text>
</a>
</g>
</g>
<!-- dir_5623b1d7ca52e71d281308447e705f6d -->
<g id="node6" class="node">
<title>dir_5623b1d7ca52e71d281308447e705f6d</title>
<g id="a_node6"><a xlink:href="dir_5623b1d7ca52e71d281308447e705f6d.html" target="_top" xlink:title="IRDLToCpp">
<polygon fill="white" stroke="black" points="236,-268 168,-268 168,-232 236,-232 236,-268"/>
<text text-anchor="middle" x="202" y="-247.5" font-family="Helvetica,sans-Serif" font-size="10.00">IRDLToCpp</text>
</a>
</g>
</g>
<!-- dir_5623b1d7ca52e71d281308447e705f6d&#45;&gt;dir_d07a6fac82475a065a3b2953573f00a0 -->
<g id="edge18" class="edge">
<title>dir_5623b1d7ca52e71d281308447e705f6d&#45;&gt;dir_d07a6fac82475a065a3b2953573f00a0</title>
<path fill="none" stroke="black" d="M210.16,-231.7C213.91,-223.73 218.45,-214.1 222.62,-205.26"/>
<polygon fill="black" stroke="black" points="225.84,-206.64 226.94,-196.1 219.51,-203.66 225.84,-206.64"/>
<g id="a_edge18&#45;headlabel"><a xlink:href="dir_000295_000014.html" target="_top" xlink:title="1">
<text text-anchor="middle" x="226.87" y="-208.6" font-family="Helvetica,sans-Serif" font-size="10.00">1</text>
</a>
</g>
</g>
<!-- dir_130796cf6474a1216b97abf3cf6603a9 -->
<g id="node7" class="node">
<title>dir_130796cf6474a1216b97abf3cf6603a9</title>
<g id="a_node7"><a xlink:href="dir_130796cf6474a1216b97abf3cf6603a9.html" target="_top" xlink:title="LLVM">
<polygon fill="white" stroke="red" points="452,-268 398,-268 398,-232 452,-232 452,-268"/>
<text text-anchor="middle" x="425" y="-247.5" font-family="Helvetica,sans-Serif" font-size="10.00">LLVM</text>
</a>
</g>
</g>
<!-- dir_130796cf6474a1216b97abf3cf6603a9&#45;&gt;dir_84ef7c054b4edc3447cfba80cee80f65 -->
<g id="edge7" class="edge">
<title>dir_130796cf6474a1216b97abf3cf6603a9&#45;&gt;dir_84ef7c054b4edc3447cfba80cee80f65</title>
<path fill="none" stroke="black" d="M413.18,-231.87C396.11,-207.14 364.43,-161.24 344.61,-132.51"/>
<polygon fill="black" stroke="black" points="347.42,-130.43 338.86,-124.19 341.66,-134.41 347.42,-130.43"/>
<g id="a_edge7&#45;headlabel"><a xlink:href="dir_000037_000047.html" target="_top" xlink:title="3">
<text text-anchor="middle" x="351.8" y="-129.28" font-family="Helvetica,sans-Serif" font-size="10.00">3</text>
</a>
</g>
</g>
<!-- dir_130796cf6474a1216b97abf3cf6603a9&#45;&gt;dir_d07a6fac82475a065a3b2953573f00a0 -->
<g id="edge8" class="edge">
<title>dir_130796cf6474a1216b97abf3cf6603a9&#45;&gt;dir_d07a6fac82475a065a3b2953573f00a0</title>
<path fill="none" stroke="black" d="M402.82,-231.96C398.4,-229.04 393.67,-226.23 389,-224 350.9,-205.8 303.92,-193.37 271.94,-186.27"/>
<polygon fill="black" stroke="black" points="272.63,-182.84 262.11,-184.15 271.15,-189.68 272.63,-182.84"/>
<g id="a_edge8&#45;headlabel"><a xlink:href="dir_000037_000014.html" target="_top" xlink:title="8">
<text text-anchor="middle" x="276.74" y="-178.32" font-family="Helvetica,sans-Serif" font-size="10.00">8</text>
</a>
</g>
</g>
<!-- dir_130796cf6474a1216b97abf3cf6603a9&#45;&gt;dir_f61d47671007dfdb592580b61f960d39 -->
<g id="edge9" class="edge">
<title>dir_130796cf6474a1216b97abf3cf6603a9&#45;&gt;dir_f61d47671007dfdb592580b61f960d39</title>
<path fill="none" stroke="black" d="M422.02,-231.72C415.83,-200.17 399.07,-132.4 363,-88 350.76,-72.93 333.06,-60.74 317.24,-51.86"/>
<polygon fill="black" stroke="black" points="318.66,-48.66 308.19,-47.03 315.36,-54.83 318.66,-48.66"/>
<g id="a_edge9&#45;headlabel"><a xlink:href="dir_000037_000292.html" target="_top" xlink:title="1">
<text text-anchor="middle" x="323.17" y="-45.35" font-family="Helvetica,sans-Serif" font-size="10.00">1</text>
</a>
</g>
</g>
<!-- dir_b808e701192d909e8d445339c9bbdeb2&#45;&gt;dir_84ef7c054b4edc3447cfba80cee80f65 -->
<g id="edge3" class="edge">
<title>dir_b808e701192d909e8d445339c9bbdeb2&#45;&gt;dir_84ef7c054b4edc3447cfba80cee80f65</title>
<path fill="none" stroke="black" d="M133.98,-231.79C147.28,-212.12 171.38,-180.06 199,-160 226.69,-139.88 263.16,-125.75 290.08,-117.17"/>
<polygon fill="black" stroke="black" points="291.36,-120.44 299.89,-114.15 289.3,-113.75 291.36,-120.44"/>
<g id="a_edge3&#45;headlabel"><a xlink:href="dir_000297_000047.html" target="_top" xlink:title="14">
<text text-anchor="middle" x="288.76" y="-121.71" font-family="Helvetica,sans-Serif" font-size="10.00">14</text>
</a>
</g>
</g>
<!-- dir_b808e701192d909e8d445339c9bbdeb2&#45;&gt;dir_d07a6fac82475a065a3b2953573f00a0 -->
<g id="edge4" class="edge">
<title>dir_b808e701192d909e8d445339c9bbdeb2&#45;&gt;dir_d07a6fac82475a065a3b2953573f00a0</title>
<path fill="none" stroke="black" d="M138.35,-231.81C142.14,-229.15 146.16,-226.47 150,-224 165.49,-214.05 183.17,-203.54 198.51,-195.17"/>
<polygon fill="black" stroke="black" points="200.53,-198.06 207.71,-190.27 197.24,-191.88 200.53,-198.06"/>
<g id="a_edge4&#45;headlabel"><a xlink:href="dir_000297_000014.html" target="_top" xlink:title="5">
<text text-anchor="middle" x="198.7" y="-199.76" font-family="Helvetica,sans-Serif" font-size="10.00">5</text>
</a>
</g>
</g>
<!-- dir_b808e701192d909e8d445339c9bbdeb2&#45;&gt;dir_f61d47671007dfdb592580b61f960d39 -->
<g id="edge5" class="edge">
<title>dir_b808e701192d909e8d445339c9bbdeb2&#45;&gt;dir_f61d47671007dfdb592580b61f960d39</title>
<path fill="none" stroke="black" d="M127.22,-231.95C132.35,-213.27 142.2,-182.93 157,-160 182.95,-119.79 223.53,-82.02 251.15,-58.73"/>
<polygon fill="black" stroke="black" points="253.47,-61.36 258.92,-52.27 248.99,-55.97 253.47,-61.36"/>
<g id="a_edge5&#45;headlabel"><a xlink:href="dir_000297_000292.html" target="_top" xlink:title="2">
<text text-anchor="middle" x="252.52" y="-63.34" font-family="Helvetica,sans-Serif" font-size="10.00">2</text>
</a>
</g>
</g>
<!-- dir_4fbcc82ca97e950d35e51687420528b5 -->
<g id="node9" class="node">
<title>dir_4fbcc82ca97e950d35e51687420528b5</title>
<g id="a_node9"><a xlink:href="dir_4fbcc82ca97e950d35e51687420528b5.html" target="_top" xlink:title="SMTLIB">
<polygon fill="white" stroke="black" points="524,-268 470,-268 470,-232 524,-232 524,-268"/>
<text text-anchor="middle" x="497" y="-247.5" font-family="Helvetica,sans-Serif" font-size="10.00">SMTLIB</text>
</a>
</g>
</g>
<!-- dir_4fbcc82ca97e950d35e51687420528b5&#45;&gt;dir_84ef7c054b4edc3447cfba80cee80f65 -->
<g id="edge16" class="edge">
<title>dir_4fbcc82ca97e950d35e51687420528b5&#45;&gt;dir_84ef7c054b4edc3447cfba80cee80f65</title>
<path fill="none" stroke="black" d="M476.49,-231.87C446.24,-206.6 389.56,-159.25 355.35,-130.68"/>
<polygon fill="black" stroke="black" points="357.5,-127.91 347.58,-124.19 353.01,-133.29 357.5,-127.91"/>
<g id="a_edge16&#45;headlabel"><a xlink:href="dir_000312_000047.html" target="_top" xlink:title="2">
<text text-anchor="middle" x="362.08" y="-125.54" font-family="Helvetica,sans-Serif" font-size="10.00">2</text>
</a>
</g>
</g>
<!-- dir_4fbcc82ca97e950d35e51687420528b5&#45;&gt;dir_f61d47671007dfdb592580b61f960d39 -->
<g id="edge17" class="edge">
<title>dir_4fbcc82ca97e950d35e51687420528b5&#45;&gt;dir_f61d47671007dfdb592580b61f960d39</title>
<path fill="none" stroke="black" d="M487.7,-231.82C469.87,-200.14 428.16,-131.75 378,-88 359.98,-72.28 336.52,-59.31 317.18,-50.13"/>
<polygon fill="black" stroke="black" points="318.61,-46.94 308.07,-45.94 315.69,-53.3 318.61,-46.94"/>
<g id="a_edge17&#45;headlabel"><a xlink:href="dir_000312_000292.html" target="_top" xlink:title="1">
<text text-anchor="middle" x="323.07" y="-43.36" font-family="Helvetica,sans-Serif" font-size="10.00">1</text>
</a>
</g>
</g>
<!-- dir_b91217e6bbf14b41491c2e7ab65f56d9 -->
<g id="node10" class="node">
<title>dir_b91217e6bbf14b41491c2e7ab65f56d9</title>
<g id="a_node10"><a xlink:href="dir_b91217e6bbf14b41491c2e7ab65f56d9.html" target="_top" xlink:title="SPIRV">
<polygon fill="white" stroke="black" points="308,-268 254,-268 254,-232 308,-232 308,-268"/>
<text text-anchor="middle" x="281" y="-247.5" font-family="Helvetica,sans-Serif" font-size="10.00">SPIRV</text>
</a>
</g>
</g>
<!-- dir_b91217e6bbf14b41491c2e7ab65f56d9&#45;&gt;dir_84ef7c054b4edc3447cfba80cee80f65 -->
<g id="edge13" class="edge">
<title>dir_b91217e6bbf14b41491c2e7ab65f56d9&#45;&gt;dir_84ef7c054b4edc3447cfba80cee80f65</title>
<path fill="none" stroke="black" d="M286.55,-231.87C294.42,-207.56 308.92,-162.82 318.25,-134.01"/>
<polygon fill="black" stroke="black" points="321.68,-134.78 321.43,-124.19 315.02,-132.62 321.68,-134.78"/>
<g id="a_edge13&#45;headlabel"><a xlink:href="dir_000296_000047.html" target="_top" xlink:title="1">
<text text-anchor="middle" x="323.27" y="-136.58" font-family="Helvetica,sans-Serif" font-size="10.00">1</text>
</a>
</g>
</g>
<!-- dir_b91217e6bbf14b41491c2e7ab65f56d9&#45;&gt;dir_d07a6fac82475a065a3b2953573f00a0 -->
<g id="edge14" class="edge">
<title>dir_b91217e6bbf14b41491c2e7ab65f56d9&#45;&gt;dir_d07a6fac82475a065a3b2953573f00a0</title>
<path fill="none" stroke="black" d="M269.63,-231.7C264.28,-223.56 257.8,-213.69 251.89,-204.7"/>
<polygon fill="black" stroke="black" points="254.66,-202.54 246.24,-196.1 248.81,-206.38 254.66,-202.54"/>
<g id="a_edge14&#45;headlabel"><a xlink:href="dir_000296_000014.html" target="_top" xlink:title="1">
<text text-anchor="middle" x="259" y="-201.48" font-family="Helvetica,sans-Serif" font-size="10.00">1</text>
</a>
</g>
</g>
<!-- dir_b91217e6bbf14b41491c2e7ab65f56d9&#45;&gt;dir_f61d47671007dfdb592580b61f960d39 -->
<g id="edge15" class="edge">
<title>dir_b91217e6bbf14b41491c2e7ab65f56d9&#45;&gt;dir_f61d47671007dfdb592580b61f960d39</title>
<path fill="none" stroke="black" d="M281,-231.85C281,-194.83 281,-107.18 281,-62.39"/>
<polygon fill="black" stroke="black" points="284.5,-62.23 281,-52.23 277.5,-62.23 284.5,-62.23"/>
<g id="a_edge15&#45;headlabel"><a xlink:href="dir_000296_000292.html" target="_top" xlink:title="3">
<text text-anchor="middle" x="287.34" y="-63.33" font-family="Helvetica,sans-Serif" font-size="10.00">3</text>
</a>
</g>
</g>
<!-- dir_9b944693d61628550544bec671bba454 -->
<g id="node11" class="node">
<title>dir_9b944693d61628550544bec671bba454</title>
<g id="a_node11"><a xlink:href="dir_9b944693d61628550544bec671bba454.html" target="_top" xlink:title="Wasm">
<polygon fill="white" stroke="black" points="380,-268 326,-268 326,-232 380,-232 380,-268"/>
<text text-anchor="middle" x="353" y="-247.5" font-family="Helvetica,sans-Serif" font-size="10.00">Wasm</text>
</a>
</g>
</g>
<!-- dir_9b944693d61628550544bec671bba454&#45;&gt;dir_84ef7c054b4edc3447cfba80cee80f65 -->
<g id="edge1" class="edge">
<title>dir_9b944693d61628550544bec671bba454&#45;&gt;dir_84ef7c054b4edc3447cfba80cee80f65</title>
<path fill="none" stroke="black" d="M349.86,-231.87C345.43,-207.67 337.29,-163.21 332.02,-134.39"/>
<polygon fill="black" stroke="black" points="335.39,-133.4 330.15,-124.19 328.51,-134.66 335.39,-133.4"/>
<g id="a_edge1&#45;headlabel"><a xlink:href="dir_000313_000047.html" target="_top" xlink:title="3">
<text text-anchor="middle" x="338.83" y="-133.92" font-family="Helvetica,sans-Serif" font-size="10.00">3</text>
</a>
</g>
</g>
</g>
</svg>
