<?xml version="1.0" encoding="UTF-8" standalone="no"?>
<!DOCTYPE svg PUBLIC "-//W3C//DTD SVG 1.1//EN"
 "http://www.w3.org/Graphics/SVG/1.1/DTD/svg11.dtd">
<!-- Generated by graphviz version 2.43.0 (0)
 -->
<!-- Title: include/mlir/Dialect/Index Pages: 1 -->
<svg width="203pt" height="231pt"
 viewBox="0.00 0.00 203.00 231.00" xmlns="http://www.w3.org/2000/svg" xmlns:xlink="http://www.w3.org/1999/xlink">
<g id="graph0" class="graph" transform="scale(1 1) rotate(0) translate(4 227)">
<title>include/mlir/Dialect/Index</title>
<g id="clust1" class="cluster">
<title>clusterdir_d07a6fac82475a065a3b2953573f00a0</title>
<g id="a_clust1"><a xlink:href="dir_d07a6fac82475a065a3b2953573f00a0.html" target="_top" xlink:title="Dialect">
<polygon fill="#ddddee" stroke="black" points="29,-128 29,-215 187,-215 187,-128 29,-128"/>
<text text-anchor="middle" x="108" y="-203" font-family="Helvetica,sans-Serif" font-size="10.00">Dialect</text>
</a>
</g>
</g>
<g id="clust2" class="cluster">
<title>clusterdir_5dab95d019d369ffdf9a6587038f0bea</title>
<g id="a_clust2"><a xlink:href="dir_5dab95d019d369ffdf9a6587038f0bea.html" target="_top">
<polygon fill="#eeeeff" stroke="black" points="37,-136 37,-188 179,-188 179,-136 37,-136"/>
</a>
</g>
</g>
<!-- dir_5dab95d019d369ffdf9a6587038f0bea -->
<g id="node1" class="node">
<title>dir_5dab95d019d369ffdf9a6587038f0bea</title>
<text text-anchor="middle" x="144" y="-159.5" font-family="Helvetica,sans-Serif" font-size="10.00">Index</text>
</g>
<!-- dir_d8ec03ae08a1376d7320ebdcc6fe4203 -->
<g id="node2" class="node">
<title>dir_d8ec03ae08a1376d7320ebdcc6fe4203</title>
<g id="a_node2"><a xlink:href="dir_d8ec03ae08a1376d7320ebdcc6fe4203.html" target="_top" xlink:title="IR">
<polygon fill="white" stroke="black" points="99,-180 45,-180 45,-144 99,-144 99,-180"/>
<text text-anchor="middle" x="72" y="-159.5" font-family="Helvetica,sans-Serif" font-size="10.00">IR</text>
</a>
</g>
</g>
<!-- dir_84ef7c054b4edc3447cfba80cee80f65 -->
<g id="node3" class="node">
<title>dir_84ef7c054b4edc3447cfba80cee80f65</title>
<g id="a_node3"><a xlink:href="dir_84ef7c054b4edc3447cfba80cee80f65.html" target="_top" xlink:title="IR">
<polygon fill="none" stroke="black" points="99,-108 45,-108 45,-72 99,-72 99,-108"/>
<text text-anchor="middle" x="72" y="-87.5" font-family="Helvetica,sans-Serif" font-size="10.00">IR</text>
</a>
</g>
</g>
<!-- dir_d8ec03ae08a1376d7320ebdcc6fe4203&#45;&gt;dir_84ef7c054b4edc3447cfba80cee80f65 -->
<g id="edge4" class="edge">
<title>dir_d8ec03ae08a1376d7320ebdcc6fe4203&#45;&gt;dir_84ef7c054b4edc3447cfba80cee80f65</title>
<path fill="none" stroke="black" d="M72,-143.7C72,-135.98 72,-126.71 72,-118.11"/>
<polygon fill="black" stroke="black" points="75.5,-118.1 72,-108.1 68.5,-118.1 75.5,-118.1"/>
<g id="a_edge4&#45;headlabel"><a xlink:href="dir_000225_000046.html" target="_top" xlink:title="5">
<text text-anchor="middle" x="78.34" y="-119.2" font-family="Helvetica,sans-Serif" font-size="10.00">5</text>
</a>
</g>
</g>
<!-- dir_51020c1b0909ae629a35fe1c65c620b9 -->
<g id="node4" class="node">
<title>dir_51020c1b0909ae629a35fe1c65c620b9</title>
<g id="a_node4"><a xlink:href="dir_51020c1b0909ae629a35fe1c65c620b9.html" target="_top" xlink:title="Bytecode">
<polygon fill="none" stroke="black" points="62,-36 0,-36 0,0 62,0 62,-36"/>
<text text-anchor="middle" x="31" y="-15.5" font-family="Helvetica,sans-Serif" font-size="10.00">Bytecode</text>
</a>
</g>
</g>
<!-- dir_d8ec03ae08a1376d7320ebdcc6fe4203&#45;&gt;dir_51020c1b0909ae629a35fe1c65c620b9 -->
<g id="edge3" class="edge">
<title>dir_d8ec03ae08a1376d7320ebdcc6fe4203&#45;&gt;dir_51020c1b0909ae629a35fe1c65c620b9</title>
<path fill="none" stroke="black" d="M56.68,-143.68C49.01,-133.91 40.42,-121.06 36,-108 29.27,-88.12 28.27,-64.32 28.81,-46.34"/>
<polygon fill="black" stroke="black" points="32.31,-46.4 29.3,-36.24 25.32,-46.06 32.31,-46.4"/>
<g id="a_edge3&#45;headlabel"><a xlink:href="dir_000225_000050.html" target="_top" xlink:title="1">
<text text-anchor="middle" x="34.98" y="-47.63" font-family="Helvetica,sans-Serif" font-size="10.00">1</text>
</a>
</g>
</g>
<!-- dir_cf63c3ddb21c79ef735682489f4c6a69 -->
<g id="node5" class="node">
<title>dir_cf63c3ddb21c79ef735682489f4c6a69</title>
<g id="a_node5"><a xlink:href="dir_cf63c3ddb21c79ef735682489f4c6a69.html" target="_top" xlink:title="Interfaces">
<polygon fill="none" stroke="red" points="145.5,-36 80.5,-36 80.5,0 145.5,0 145.5,-36"/>
<text text-anchor="middle" x="113" y="-15.5" font-family="Helvetica,sans-Serif" font-size="10.00">Interfaces</text>
</a>
</g>
</g>
<!-- dir_d8ec03ae08a1376d7320ebdcc6fe4203&#45;&gt;dir_cf63c3ddb21c79ef735682489f4c6a69 -->
<g id="edge5" class="edge">
<title>dir_d8ec03ae08a1376d7320ebdcc6fe4203&#45;&gt;dir_cf63c3ddb21c79ef735682489f4c6a69</title>
<path fill="none" stroke="black" d="M87.32,-143.68C94.99,-133.91 103.58,-121.06 108,-108 114.73,-88.12 115.73,-64.32 115.19,-46.34"/>
<polygon fill="black" stroke="black" points="118.68,-46.06 114.7,-36.24 111.69,-46.4 118.68,-46.06"/>
<g id="a_edge5&#45;headlabel"><a xlink:href="dir_000225_000279.html" target="_top" xlink:title="4">
<text text-anchor="middle" x="121.69" y="-47.02" font-family="Helvetica,sans-Serif" font-size="10.00">4</text>
</a>
</g>
</g>
<!-- dir_84ef7c054b4edc3447cfba80cee80f65&#45;&gt;dir_51020c1b0909ae629a35fe1c65c620b9 -->
<g id="edge1" class="edge">
<title>dir_84ef7c054b4edc3447cfba80cee80f65&#45;&gt;dir_51020c1b0909ae629a35fe1c65c620b9</title>
<path fill="none" stroke="black" d="M55.95,-71.7C50.46,-63.73 44.61,-54.1 39.82,-45.26"/>
<polygon fill="black" stroke="black" points="42.8,-43.4 35.12,-36.1 36.57,-46.6 42.8,-43.4"/>
<g id="a_edge1&#45;headlabel"><a xlink:href="dir_000046_000050.html" target="_top" xlink:title="2">
<text text-anchor="middle" x="46.97" y="-42.81" font-family="Helvetica,sans-Serif" font-size="10.00">2</text>
</a>
</g>
</g>
<!-- dir_84ef7c054b4edc3447cfba80cee80f65&#45;&gt;dir_cf63c3ddb21c79ef735682489f4c6a69 -->
<g id="edge2" class="edge">
<title>dir_84ef7c054b4edc3447cfba80cee80f65&#45;&gt;dir_cf63c3ddb21c79ef735682489f4c6a69</title>
<path fill="none" stroke="black" d="M76.22,-71.7C80.15,-63.56 85.72,-53.69 91.41,-44.7"/>
<polygon fill="black" stroke="black" points="94.5,-46.38 97.09,-36.1 88.66,-42.52 94.5,-46.38"/>
<g id="a_edge2&#45;headlabel"><a xlink:href="dir_000046_000279.html" target="_top" xlink:title="3">
<text text-anchor="middle" x="94.89" y="-48.44" font-family="Helvetica,sans-Serif" font-size="10.00">3</text>
</a>
</g>
</g>
<!-- dir_51020c1b0909ae629a35fe1c65c620b9&#45;&gt;dir_84ef7c054b4edc3447cfba80cee80f65 -->
<g id="edge6" class="edge">
<title>dir_51020c1b0909ae629a35fe1c65c620b9&#45;&gt;dir_84ef7c054b4edc3447cfba80cee80f65</title>
<path fill="none" stroke="black" d="M46.91,-36.1C52.45,-44.13 58.38,-53.87 63.21,-62.8"/>
<polygon fill="black" stroke="black" points="60.1,-64.4 67.78,-71.7 66.32,-61.2 60.1,-64.4"/>
<g id="a_edge6&#45;headlabel"><a xlink:href="dir_000050_000046.html" target="_top" xlink:title="9">
<text text-anchor="middle" x="55.93" y="-60" font-family="Helvetica,sans-Serif" font-size="10.00">9</text>
</a>
</g>
</g>
<!-- dir_cf63c3ddb21c79ef735682489f4c6a69&#45;&gt;dir_84ef7c054b4edc3447cfba80cee80f65 -->
<g id="edge7" class="edge">
<title>dir_cf63c3ddb21c79ef735682489f4c6a69&#45;&gt;dir_84ef7c054b4edc3447cfba80cee80f65</title>
<path fill="none" stroke="black" d="M108.88,-36.1C104.98,-44.21 99.42,-54.08 93.73,-63.08"/>
<polygon fill="black" stroke="black" points="90.63,-61.42 88.05,-71.7 96.47,-65.27 90.63,-61.42"/>
<g id="a_edge7&#45;headlabel"><a xlink:href="dir_000279_000046.html" target="_top" xlink:title="54">
<text text-anchor="middle" x="90.23" y="-54.36" font-family="Helvetica,sans-Serif" font-size="10.00">54</text>
</a>
</g>
</g>
</g>
</svg>
