<?xml version="1.0" encoding="UTF-8" standalone="no"?>
<!DOCTYPE svg PUBLIC "-//W3C//DTD SVG 1.1//EN"
 "http://www.w3.org/Graphics/SVG/1.1/DTD/svg11.dtd">
<!-- Generated by graphviz version 2.43.0 (0)
 -->
<!-- Title: include/mlir/Dialect/Transform/IR Pages: 1 -->
<svg width="268pt" height="439pt"
 viewBox="0.00 0.00 267.50 439.00" xmlns="http://www.w3.org/2000/svg" xmlns:xlink="http://www.w3.org/1999/xlink">
<g id="graph0" class="graph" transform="scale(1 1) rotate(0) translate(4 435)">
<title>include/mlir/Dialect/Transform/IR</title>
<g id="clust1" class="cluster">
<title>clusterdir_832fe9af74a05d9f4772b8e442bafd02</title>
<g id="a_clust1"><a xlink:href="dir_832fe9af74a05d9f4772b8e442bafd02.html" target="_top" xlink:title="Transform">
<polygon fill="#ddddee" stroke="black" points="55.5,-208 55.5,-423 157.5,-423 157.5,-208 55.5,-208"/>
<text text-anchor="middle" x="106.5" y="-411" font-family="Helvetica,sans-Serif" font-size="10.00">Transform</text>
</a>
</g>
</g>
<!-- dir_1eaf8c35e65d819e073aecac4557fa0f -->
<g id="node1" class="node">
<title>dir_1eaf8c35e65d819e073aecac4557fa0f</title>
<g id="a_node1"><a xlink:href="dir_1eaf8c35e65d819e073aecac4557fa0f.html" target="_top" xlink:title="Utils">
<polygon fill="none" stroke="black" points="117.5,-252 63.5,-252 63.5,-216 117.5,-216 117.5,-252"/>
<text text-anchor="middle" x="90.5" y="-231.5" font-family="Helvetica,sans-Serif" font-size="10.00">Utils</text>
</a>
</g>
</g>
<!-- dir_84ef7c054b4edc3447cfba80cee80f65 -->
<g id="node5" class="node">
<title>dir_84ef7c054b4edc3447cfba80cee80f65</title>
<g id="a_node5"><a xlink:href="dir_84ef7c054b4edc3447cfba80cee80f65.html" target="_top" xlink:title="IR">
<polygon fill="none" stroke="black" points="175.5,-180 121.5,-180 121.5,-144 175.5,-144 175.5,-180"/>
<text text-anchor="middle" x="148.5" y="-159.5" font-family="Helvetica,sans-Serif" font-size="10.00">IR</text>
</a>
</g>
</g>
<!-- dir_1eaf8c35e65d819e073aecac4557fa0f&#45;&gt;dir_84ef7c054b4edc3447cfba80cee80f65 -->
<g id="edge4" class="edge">
<title>dir_1eaf8c35e65d819e073aecac4557fa0f&#45;&gt;dir_84ef7c054b4edc3447cfba80cee80f65</title>
<path fill="none" stroke="black" d="M104.84,-215.7C111.79,-207.3 120.27,-197.07 127.9,-187.86"/>
<polygon fill="black" stroke="black" points="130.64,-190.04 134.33,-180.1 125.25,-185.57 130.64,-190.04"/>
<g id="a_edge4&#45;headlabel"><a xlink:href="dir_000035_000046.html" target="_top" xlink:title="5">
<text text-anchor="middle" x="130.54" y="-192.12" font-family="Helvetica,sans-Serif" font-size="10.00">5</text>
</a>
</g>
</g>
<!-- dir_f61d47671007dfdb592580b61f960d39 -->
<g id="node7" class="node">
<title>dir_f61d47671007dfdb592580b61f960d39</title>
<g id="a_node7"><a xlink:href="dir_f61d47671007dfdb592580b61f960d39.html" target="_top" xlink:title="Support">
<polygon fill="none" stroke="black" points="158.5,-36 104.5,-36 104.5,0 158.5,0 158.5,-36"/>
<text text-anchor="middle" x="131.5" y="-15.5" font-family="Helvetica,sans-Serif" font-size="10.00">Support</text>
</a>
</g>
</g>
<!-- dir_1eaf8c35e65d819e073aecac4557fa0f&#45;&gt;dir_f61d47671007dfdb592580b61f960d39 -->
<g id="edge5" class="edge">
<title>dir_1eaf8c35e65d819e073aecac4557fa0f&#45;&gt;dir_f61d47671007dfdb592580b61f960d39</title>
<path fill="none" stroke="black" d="M93.79,-215.85C100.89,-178.75 117.74,-90.81 126.31,-46.1"/>
<polygon fill="black" stroke="black" points="129.75,-46.71 128.2,-36.23 122.88,-45.4 129.75,-46.71"/>
<g id="a_edge5&#45;headlabel"><a xlink:href="dir_000035_000288.html" target="_top" xlink:title="2">
<text text-anchor="middle" x="131.87" y="-48.28" font-family="Helvetica,sans-Serif" font-size="10.00">2</text>
</a>
</g>
</g>
<!-- dir_3fcea5679c56f279a8c81b2ba929f91c -->
<g id="node2" class="node">
<title>dir_3fcea5679c56f279a8c81b2ba929f91c</title>
<g id="a_node2"><a xlink:href="dir_3fcea5679c56f279a8c81b2ba929f91c.html" target="_top" xlink:title="Interfaces">
<polygon fill="none" stroke="black" points="149,-324 84,-324 84,-288 149,-288 149,-324"/>
<text text-anchor="middle" x="116.5" y="-303.5" font-family="Helvetica,sans-Serif" font-size="10.00">Interfaces</text>
</a>
</g>
</g>
<!-- dir_3fcea5679c56f279a8c81b2ba929f91c&#45;&gt;dir_1eaf8c35e65d819e073aecac4557fa0f -->
<g id="edge16" class="edge">
<title>dir_3fcea5679c56f279a8c81b2ba929f91c&#45;&gt;dir_1eaf8c35e65d819e073aecac4557fa0f</title>
<path fill="none" stroke="black" d="M110.07,-287.7C107.14,-279.81 103.61,-270.3 100.36,-261.55"/>
<polygon fill="black" stroke="black" points="103.62,-260.26 96.85,-252.1 97.05,-262.7 103.62,-260.26"/>
<g id="a_edge16&#45;headlabel"><a xlink:href="dir_000265_000035.html" target="_top" xlink:title="2">
<text text-anchor="middle" x="107.53" y="-260.14" font-family="Helvetica,sans-Serif" font-size="10.00">2</text>
</a>
</g>
</g>
<!-- dir_3fcea5679c56f279a8c81b2ba929f91c&#45;&gt;dir_84ef7c054b4edc3447cfba80cee80f65 -->
<g id="edge17" class="edge">
<title>dir_3fcea5679c56f279a8c81b2ba929f91c&#45;&gt;dir_84ef7c054b4edc3447cfba80cee80f65</title>
<path fill="none" stroke="black" d="M120.36,-287.87C125.84,-263.56 135.92,-218.82 142.41,-190.01"/>
<polygon fill="black" stroke="black" points="145.84,-190.71 144.63,-180.19 139.01,-189.18 145.84,-190.71"/>
<g id="a_edge17&#45;headlabel"><a xlink:href="dir_000265_000046.html" target="_top" xlink:title="3">
<text text-anchor="middle" x="147.82" y="-192.34" font-family="Helvetica,sans-Serif" font-size="10.00">3</text>
</a>
</g>
</g>
<!-- dir_cf63c3ddb21c79ef735682489f4c6a69 -->
<g id="node6" class="node">
<title>dir_cf63c3ddb21c79ef735682489f4c6a69</title>
<g id="a_node6"><a xlink:href="dir_cf63c3ddb21c79ef735682489f4c6a69.html" target="_top" xlink:title="Interfaces">
<polygon fill="none" stroke="red" points="65,-108 0,-108 0,-72 65,-72 65,-108"/>
<text text-anchor="middle" x="32.5" y="-87.5" font-family="Helvetica,sans-Serif" font-size="10.00">Interfaces</text>
</a>
</g>
</g>
<!-- dir_3fcea5679c56f279a8c81b2ba929f91c&#45;&gt;dir_cf63c3ddb21c79ef735682489f4c6a69 -->
<g id="edge18" class="edge">
<title>dir_3fcea5679c56f279a8c81b2ba929f91c&#45;&gt;dir_cf63c3ddb21c79ef735682489f4c6a69</title>
<path fill="none" stroke="black" d="M88.53,-287.95C76.07,-278.86 62.44,-266.54 54.5,-252 31.33,-209.55 29.32,-151.75 30.53,-118.2"/>
<polygon fill="black" stroke="black" points="34.03,-118.36 31.01,-108.2 27.03,-118.02 34.03,-118.36"/>
<g id="a_edge18&#45;headlabel"><a xlink:href="dir_000265_000279.html" target="_top" xlink:title="1">
<text text-anchor="middle" x="36.69" y="-119.59" font-family="Helvetica,sans-Serif" font-size="10.00">1</text>
</a>
</g>
</g>
<!-- dir_ea43e1e7e14805f092bc6e97f7b8cf52 -->
<g id="node3" class="node">
<title>dir_ea43e1e7e14805f092bc6e97f7b8cf52</title>
<g id="a_node3"><a xlink:href="dir_ea43e1e7e14805f092bc6e97f7b8cf52.html" target="_top" xlink:title="IR">
<polygon fill="#eeeeff" stroke="black" points="146.5,-396 92.5,-396 92.5,-360 146.5,-360 146.5,-396"/>
<text text-anchor="middle" x="119.5" y="-375.5" font-family="Helvetica,sans-Serif" font-size="10.00">IR</text>
</a>
</g>
</g>
<!-- dir_ea43e1e7e14805f092bc6e97f7b8cf52&#45;&gt;dir_1eaf8c35e65d819e073aecac4557fa0f -->
<g id="edge10" class="edge">
<title>dir_ea43e1e7e14805f092bc6e97f7b8cf52&#45;&gt;dir_1eaf8c35e65d819e073aecac4557fa0f</title>
<path fill="none" stroke="black" d="M100.03,-359.92C90.68,-350.4 80.45,-337.72 75.5,-324 68.22,-303.82 73.01,-279.78 79.05,-261.77"/>
<polygon fill="black" stroke="black" points="82.41,-262.79 82.57,-252.19 75.83,-260.37 82.41,-262.79"/>
<g id="a_edge10&#45;headlabel"><a xlink:href="dir_000034_000035.html" target="_top" xlink:title="1">
<text text-anchor="middle" x="83.83" y="-264.64" font-family="Helvetica,sans-Serif" font-size="10.00">1</text>
</a>
</g>
</g>
<!-- dir_ea43e1e7e14805f092bc6e97f7b8cf52&#45;&gt;dir_3fcea5679c56f279a8c81b2ba929f91c -->
<g id="edge11" class="edge">
<title>dir_ea43e1e7e14805f092bc6e97f7b8cf52&#45;&gt;dir_3fcea5679c56f279a8c81b2ba929f91c</title>
<path fill="none" stroke="black" d="M118.76,-359.7C118.43,-351.98 118.03,-342.71 117.66,-334.11"/>
<polygon fill="black" stroke="black" points="121.16,-333.95 117.23,-324.1 114.16,-334.25 121.16,-333.95"/>
<g id="a_edge11&#45;headlabel"><a xlink:href="dir_000034_000265.html" target="_top" xlink:title="3">
<text text-anchor="middle" x="124.15" y="-334.92" font-family="Helvetica,sans-Serif" font-size="10.00">3</text>
</a>
</g>
</g>
<!-- dir_51020c1b0909ae629a35fe1c65c620b9 -->
<g id="node4" class="node">
<title>dir_51020c1b0909ae629a35fe1c65c620b9</title>
<g id="a_node4"><a xlink:href="dir_51020c1b0909ae629a35fe1c65c620b9.html" target="_top" xlink:title="Bytecode">
<polygon fill="none" stroke="black" points="221.5,-108 159.5,-108 159.5,-72 221.5,-72 221.5,-108"/>
<text text-anchor="middle" x="190.5" y="-87.5" font-family="Helvetica,sans-Serif" font-size="10.00">Bytecode</text>
</a>
</g>
</g>
<!-- dir_ea43e1e7e14805f092bc6e97f7b8cf52&#45;&gt;dir_51020c1b0909ae629a35fe1c65c620b9 -->
<g id="edge12" class="edge">
<title>dir_ea43e1e7e14805f092bc6e97f7b8cf52&#45;&gt;dir_51020c1b0909ae629a35fe1c65c620b9</title>
<path fill="none" stroke="black" d="M144.93,-359.87C156.37,-350.68 168.79,-338.3 175.5,-324 207.54,-255.69 200.92,-163.52 194.92,-118.31"/>
<polygon fill="black" stroke="black" points="198.34,-117.54 193.47,-108.13 191.41,-118.52 198.34,-117.54"/>
<g id="a_edge12&#45;headlabel"><a xlink:href="dir_000034_000050.html" target="_top" xlink:title="1">
<text text-anchor="middle" x="201.66" y="-118.2" font-family="Helvetica,sans-Serif" font-size="10.00">1</text>
</a>
</g>
</g>
<!-- dir_ea43e1e7e14805f092bc6e97f7b8cf52&#45;&gt;dir_84ef7c054b4edc3447cfba80cee80f65 -->
<g id="edge13" class="edge">
<title>dir_ea43e1e7e14805f092bc6e97f7b8cf52&#45;&gt;dir_84ef7c054b4edc3447cfba80cee80f65</title>
<path fill="none" stroke="black" d="M136.39,-359.99C144.79,-350.31 154.08,-337.46 158.5,-324 173.32,-278.86 164.11,-222.85 156.2,-190.19"/>
<polygon fill="black" stroke="black" points="159.58,-189.28 153.72,-180.46 152.8,-191.01 159.58,-189.28"/>
<g id="a_edge13&#45;headlabel"><a xlink:href="dir_000034_000046.html" target="_top" xlink:title="9">
<text text-anchor="middle" x="163.22" y="-189.56" font-family="Helvetica,sans-Serif" font-size="10.00">9</text>
</a>
</g>
</g>
<!-- dir_ea43e1e7e14805f092bc6e97f7b8cf52&#45;&gt;dir_cf63c3ddb21c79ef735682489f4c6a69 -->
<g id="edge14" class="edge">
<title>dir_ea43e1e7e14805f092bc6e97f7b8cf52&#45;&gt;dir_cf63c3ddb21c79ef735682489f4c6a69</title>
<path fill="none" stroke="black" d="M99.76,-360C89.25,-350.22 76.64,-337.27 67.5,-324 47.54,-295 44.13,-285.86 34.5,-252 21.33,-205.67 22.34,-192.06 25.5,-144 26.06,-135.53 27.11,-126.36 28.23,-118.06"/>
<polygon fill="black" stroke="black" points="31.7,-118.53 29.66,-108.13 24.77,-117.53 31.7,-118.53"/>
<g id="a_edge14&#45;headlabel"><a xlink:href="dir_000034_000279.html" target="_top" xlink:title="5">
<text text-anchor="middle" x="34" y="-119.99" font-family="Helvetica,sans-Serif" font-size="10.00">5</text>
</a>
</g>
</g>
<!-- dir_ea43e1e7e14805f092bc6e97f7b8cf52&#45;&gt;dir_f61d47671007dfdb592580b61f960d39 -->
<g id="edge15" class="edge">
<title>dir_ea43e1e7e14805f092bc6e97f7b8cf52&#45;&gt;dir_f61d47671007dfdb592580b61f960d39</title>
<path fill="none" stroke="black" d="M146.83,-364.57C187.57,-343.94 259.5,-298.53 259.5,-235 259.5,-235 259.5,-235 259.5,-161 259.5,-119.4 257.21,-103.9 230.5,-72 214.29,-52.64 189.15,-39.31 168.26,-30.86"/>
<polygon fill="black" stroke="black" points="169.3,-27.51 158.71,-27.2 166.8,-34.04 169.3,-27.51"/>
<g id="a_edge15&#45;headlabel"><a xlink:href="dir_000034_000288.html" target="_top" xlink:title="3">
<text text-anchor="middle" x="173.67" y="-23.64" font-family="Helvetica,sans-Serif" font-size="10.00">3</text>
</a>
</g>
</g>
<!-- dir_51020c1b0909ae629a35fe1c65c620b9&#45;&gt;dir_84ef7c054b4edc3447cfba80cee80f65 -->
<g id="edge6" class="edge">
<title>dir_51020c1b0909ae629a35fe1c65c620b9&#45;&gt;dir_84ef7c054b4edc3447cfba80cee80f65</title>
<path fill="none" stroke="black" d="M186.13,-108.1C182.07,-116.3 176.3,-126.28 170.42,-135.36"/>
<polygon fill="black" stroke="black" points="167.48,-133.45 164.8,-143.7 173.29,-137.36 167.48,-133.45"/>
<g id="a_edge6&#45;headlabel"><a xlink:href="dir_000050_000046.html" target="_top" xlink:title="9">
<text text-anchor="middle" x="167.14" y="-126.38" font-family="Helvetica,sans-Serif" font-size="10.00">9</text>
</a>
</g>
</g>
<!-- dir_51020c1b0909ae629a35fe1c65c620b9&#45;&gt;dir_f61d47671007dfdb592580b61f960d39 -->
<g id="edge7" class="edge">
<title>dir_51020c1b0909ae629a35fe1c65c620b9&#45;&gt;dir_f61d47671007dfdb592580b61f960d39</title>
<path fill="none" stroke="black" d="M175.92,-71.7C168.84,-63.3 160.22,-53.07 152.45,-43.86"/>
<polygon fill="black" stroke="black" points="155.04,-41.49 145.92,-36.1 149.69,-46.01 155.04,-41.49"/>
<g id="a_edge7&#45;headlabel"><a xlink:href="dir_000050_000288.html" target="_top" xlink:title="2">
<text text-anchor="middle" x="159.53" y="-39.91" font-family="Helvetica,sans-Serif" font-size="10.00">2</text>
</a>
</g>
</g>
<!-- dir_84ef7c054b4edc3447cfba80cee80f65&#45;&gt;dir_51020c1b0909ae629a35fe1c65c620b9 -->
<g id="edge1" class="edge">
<title>dir_84ef7c054b4edc3447cfba80cee80f65&#45;&gt;dir_51020c1b0909ae629a35fe1c65c620b9</title>
<path fill="none" stroke="black" d="M152.97,-143.7C157.05,-135.47 162.84,-125.48 168.73,-116.42"/>
<polygon fill="black" stroke="black" points="171.65,-118.35 174.34,-108.1 165.85,-114.43 171.65,-118.35"/>
<g id="a_edge1&#45;headlabel"><a xlink:href="dir_000046_000050.html" target="_top" xlink:title="2">
<text text-anchor="middle" x="171.99" y="-120.42" font-family="Helvetica,sans-Serif" font-size="10.00">2</text>
</a>
</g>
</g>
<!-- dir_84ef7c054b4edc3447cfba80cee80f65&#45;&gt;dir_cf63c3ddb21c79ef735682489f4c6a69 -->
<g id="edge2" class="edge">
<title>dir_84ef7c054b4edc3447cfba80cee80f65&#45;&gt;dir_cf63c3ddb21c79ef735682489f4c6a69</title>
<path fill="none" stroke="black" d="M121.27,-147.83C103.87,-138.17 81.41,-124.8 63.37,-113.46"/>
<polygon fill="black" stroke="black" points="65.23,-110.5 54.91,-108.08 61.47,-116.4 65.23,-110.5"/>
<g id="a_edge2&#45;headlabel"><a xlink:href="dir_000046_000279.html" target="_top" xlink:title="3">
<text text-anchor="middle" x="69.79" y="-107.53" font-family="Helvetica,sans-Serif" font-size="10.00">3</text>
</a>
</g>
</g>
<!-- dir_84ef7c054b4edc3447cfba80cee80f65&#45;&gt;dir_f61d47671007dfdb592580b61f960d39 -->
<g id="edge3" class="edge">
<title>dir_84ef7c054b4edc3447cfba80cee80f65&#45;&gt;dir_f61d47671007dfdb592580b61f960d39</title>
<path fill="none" stroke="black" d="M146.45,-143.87C143.55,-119.67 138.23,-75.21 134.78,-46.39"/>
<polygon fill="black" stroke="black" points="138.22,-45.7 133.56,-36.19 131.27,-46.53 138.22,-45.7"/>
<g id="a_edge3&#45;headlabel"><a xlink:href="dir_000046_000288.html" target="_top" xlink:title="23">
<text text-anchor="middle" x="141.47" y="-46.43" font-family="Helvetica,sans-Serif" font-size="10.00">23</text>
</a>
</g>
</g>
<!-- dir_cf63c3ddb21c79ef735682489f4c6a69&#45;&gt;dir_84ef7c054b4edc3447cfba80cee80f65 -->
<g id="edge8" class="edge">
<title>dir_cf63c3ddb21c79ef735682489f4c6a69&#45;&gt;dir_84ef7c054b4edc3447cfba80cee80f65</title>
<path fill="none" stroke="black" d="M65.19,-107.23C81.59,-116.5 101.27,-128.26 117.44,-138.42"/>
<polygon fill="black" stroke="black" points="115.7,-141.46 126.02,-143.88 119.46,-135.56 115.7,-141.46"/>
<g id="a_edge8&#45;headlabel"><a xlink:href="dir_000279_000046.html" target="_top" xlink:title="54">
<text text-anchor="middle" x="111.15" y="-139.43" font-family="Helvetica,sans-Serif" font-size="10.00">54</text>
</a>
</g>
</g>
<!-- dir_cf63c3ddb21c79ef735682489f4c6a69&#45;&gt;dir_f61d47671007dfdb592580b61f960d39 -->
<g id="edge9" class="edge">
<title>dir_cf63c3ddb21c79ef735682489f4c6a69&#45;&gt;dir_f61d47671007dfdb592580b61f960d39</title>
<path fill="none" stroke="black" d="M56.72,-71.88C69.42,-62.89 85.16,-51.76 98.92,-42.03"/>
<polygon fill="black" stroke="black" points="101.04,-44.82 107.19,-36.19 97,-39.11 101.04,-44.82"/>
<g id="a_edge9&#45;headlabel"><a xlink:href="dir_000279_000288.html" target="_top" xlink:title="2">
<text text-anchor="middle" x="99.75" y="-46.71" font-family="Helvetica,sans-Serif" font-size="10.00">2</text>
</a>
</g>
</g>
</g>
</svg>
