<?xml version="1.0" encoding="UTF-8" standalone="no"?>
<!DOCTYPE svg PUBLIC "-//W3C//DTD SVG 1.1//EN"
 "http://www.w3.org/Graphics/SVG/1.1/DTD/svg11.dtd">
<!-- Generated by graphviz version 2.43.0 (0)
 -->
<!-- Title: include/mlir/Dialect/Linalg Pages: 1 -->
<svg width="866pt" height="306pt"
 viewBox="0.00 0.00 866.00 306.00" xmlns="http://www.w3.org/2000/svg" xmlns:xlink="http://www.w3.org/1999/xlink">
<g id="graph0" class="graph" transform="scale(1 1) rotate(0) translate(4 302)">
<title>include/mlir/Dialect/Linalg</title>
<g id="clust1" class="cluster">
<title>clusterdir_d07a6fac82475a065a3b2953573f00a0</title>
<g id="a_clust1"><a xlink:href="dir_d07a6fac82475a065a3b2953573f00a0.html" target="_top" xlink:title="Dialect">
<polygon fill="#edf0f7" stroke="#7f7f7f" stroke-dasharray="5,2" points="109.5,-8 109.5,-290 649.5,-290 649.5,-8 109.5,-8"/>
<text text-anchor="middle" x="379.5" y="-278" font-family="Helvetica,sans-Serif" font-size="10.00">Dialect</text>
</a>
</g>
</g>
<g id="clust2" class="cluster">
<title>clusterdir_7d4534fbf0715cf3ed7975990f2820c5</title>
<g id="a_clust2"><a xlink:href="dir_7d4534fbf0715cf3ed7975990f2820c5.html" target="_top">
<polygon fill="#edf0f7" stroke="#404040" stroke-width="2" points="205.5,-63 205.5,-263 363.5,-263 363.5,-63 205.5,-63"/>
</a>
</g>
</g>
<!-- dir_83bd8be6e9490851e8e4007286e9f64b -->
<g id="node1" class="node">
<title>dir_83bd8be6e9490851e8e4007286e9f64b</title>
<g id="a_node1"><a xlink:href="dir_83bd8be6e9490851e8e4007286e9f64b.html" target="_top" xlink:title="Tensor">
<polygon fill="#a2b4d6" stroke="red" points="345.5,-35 297.5,-35 297.5,-16 345.5,-16 345.5,-35"/>
<text text-anchor="middle" x="321.5" y="-23" font-family="Helvetica,sans-Serif" font-size="10.00">Tensor</text>
</a>
</g>
</g>
<!-- dir_e4893b20171f621ff7a85b39656091a7 -->
<g id="node2" class="node">
<title>dir_e4893b20171f621ff7a85b39656091a7</title>
<g id="a_node2"><a xlink:href="dir_e4893b20171f621ff7a85b39656091a7.html" target="_top" xlink:title="Utils">
<polygon fill="#a2b4d6" stroke="#404040" points="252,-35 213,-35 213,-16 252,-16 252,-35"/>
<text text-anchor="middle" x="232.5" y="-23" font-family="Helvetica,sans-Serif" font-size="10.00">Utils</text>
</a>
</g>
</g>
<!-- dir_832fe9af74a05d9f4772b8e442bafd02 -->
<g id="node3" class="node">
<title>dir_832fe9af74a05d9f4772b8e442bafd02</title>
<g id="a_node3"><a xlink:href="dir_832fe9af74a05d9f4772b8e442bafd02.html" target="_top" xlink:title="Transform">
<polygon fill="#a2b4d6" stroke="red" points="437,-90 372,-90 372,-71 437,-71 437,-90"/>
<text text-anchor="middle" x="404.5" y="-78" font-family="Helvetica,sans-Serif" font-size="10.00">Transform</text>
</a>
</g>
</g>
<!-- dir_762b59f238bc9709d1f8796a74c242af -->
<g id="node4" class="node">
<title>dir_762b59f238bc9709d1f8796a74c242af</title>
<g id="a_node4"><a xlink:href="dir_762b59f238bc9709d1f8796a74c242af.html" target="_top" xlink:title="Bufferization">
<polygon fill="#a2b4d6" stroke="red" points="534,-90 455,-90 455,-71 534,-71 534,-90"/>
<text text-anchor="middle" x="494.5" y="-78" font-family="Helvetica,sans-Serif" font-size="10.00">Bufferization</text>
</a>
</g>
</g>
<!-- dir_342ad3e7b83526a7f418520e380404a9 -->
<g id="node5" class="node">
<title>dir_342ad3e7b83526a7f418520e380404a9</title>
<g id="a_node5"><a xlink:href="dir_342ad3e7b83526a7f418520e380404a9.html" target="_top" xlink:title="Func">
<polygon fill="#a2b4d6" stroke="red" points="197,-90 158,-90 158,-71 197,-71 197,-90"/>
<text text-anchor="middle" x="177.5" y="-78" font-family="Helvetica,sans-Serif" font-size="10.00">Func</text>
</a>
</g>
</g>
<!-- dir_d0219b36a5ea27d6075e0b14c6f98d85 -->
<g id="node6" class="node">
<title>dir_d0219b36a5ea27d6075e0b14c6f98d85</title>
<g id="a_node6"><a xlink:href="dir_d0219b36a5ea27d6075e0b14c6f98d85.html" target="_top" xlink:title="MemRef">
<polygon fill="#a2b4d6" stroke="red" points="471.5,-145 413.5,-145 413.5,-126 471.5,-126 471.5,-145"/>
<text text-anchor="middle" x="442.5" y="-133" font-family="Helvetica,sans-Serif" font-size="10.00">MemRef</text>
</a>
</g>
</g>
<!-- dir_47aca9e8d6a16a6d14cf434a05d15774 -->
<g id="node7" class="node">
<title>dir_47aca9e8d6a16a6d14cf434a05d15774</title>
<g id="a_node7"><a xlink:href="dir_47aca9e8d6a16a6d14cf434a05d15774.html" target="_top" xlink:title="SCF">
<polygon fill="#a2b4d6" stroke="red" points="587,-90 552,-90 552,-71 587,-71 587,-90"/>
<text text-anchor="middle" x="569.5" y="-78" font-family="Helvetica,sans-Serif" font-size="10.00">SCF</text>
</a>
</g>
</g>
<!-- dir_bfd3493254b3df47293537524626123b -->
<g id="node8" class="node">
<title>dir_bfd3493254b3df47293537524626123b</title>
<g id="a_node8"><a xlink:href="dir_bfd3493254b3df47293537524626123b.html" target="_top" xlink:title="Vector">
<polygon fill="#a2b4d6" stroke="red" points="557,-145 510,-145 510,-126 557,-126 557,-145"/>
<text text-anchor="middle" x="533.5" y="-133" font-family="Helvetica,sans-Serif" font-size="10.00">Vector</text>
</a>
</g>
</g>
<!-- dir_1af55d3d38bdc22b737bcb481a4c2bf6 -->
<g id="node9" class="node">
<title>dir_1af55d3d38bdc22b737bcb481a4c2bf6</title>
<g id="a_node9"><a xlink:href="dir_1af55d3d38bdc22b737bcb481a4c2bf6.html" target="_top" xlink:title="X86Vector">
<polygon fill="#a2b4d6" stroke="red" points="641.5,-145 575.5,-145 575.5,-126 641.5,-126 641.5,-145"/>
<text text-anchor="middle" x="608.5" y="-133" font-family="Helvetica,sans-Serif" font-size="10.00">X86Vector</text>
</a>
</g>
</g>
<!-- dir_7d4534fbf0715cf3ed7975990f2820c5 -->
<g id="node10" class="node">
<title>dir_7d4534fbf0715cf3ed7975990f2820c5</title>
<text text-anchor="middle" x="319.5" y="-243" font-family="Helvetica,sans-Serif" font-size="10.00">Linalg</text>
</g>
<!-- dir_2bf7b27484b15c8c863e85164c5e8ee5 -->
<g id="node13" class="node">
<title>dir_2bf7b27484b15c8c863e85164c5e8ee5</title>
<g id="a_node13"><a xlink:href="dir_2bf7b27484b15c8c863e85164c5e8ee5.html" target="_top" xlink:title="Transforms">
<polygon fill="#a2b4d6" stroke="#404040" points="355,-200 284,-200 284,-181 355,-181 355,-200"/>
<text text-anchor="middle" x="319.5" y="-188" font-family="Helvetica,sans-Serif" font-size="10.00">Transforms</text>
</a>
</g>
</g>
<!-- dir_7d4534fbf0715cf3ed7975990f2820c5&#45;&gt;dir_2bf7b27484b15c8c863e85164c5e8ee5 -->
<g id="edge2" class="edge">
<title>dir_7d4534fbf0715cf3ed7975990f2820c5&#45;&gt;dir_2bf7b27484b15c8c863e85164c5e8ee5</title>
<g id="a_edge2"><a xlink:href="dir_000268_000535.html" target="_top">
<path fill="none" stroke="#63b8ff" d="M319.5,-235.75C319.5,-228.8 319.5,-218.85 319.5,-210.13"/>
<polygon fill="#63b8ff" stroke="#63b8ff" points="323,-210.09 319.5,-200.09 316,-210.09 323,-210.09"/>
</a>
</g>
<g id="a_edge2&#45;headlabel"><a xlink:href="dir_000268_000535.html" target="_top" xlink:title="1">
<text text-anchor="middle" x="325.84" y="-211.18" font-family="Helvetica,sans-Serif" font-size="10.00" fill="#63b8ff">1</text>
</a>
</g>
</g>
<!-- dir_13321debcaacdcb69201ab3fc5c493de -->
<g id="node14" class="node">
<title>dir_13321debcaacdcb69201ab3fc5c493de</title>
<g id="a_node14"><a xlink:href="dir_13321debcaacdcb69201ab3fc5c493de.html" target="_top" xlink:title="Utils">
<polygon fill="#a2b4d6" stroke="#404040" points="355,-145 316,-145 316,-126 355,-126 355,-145"/>
<text text-anchor="middle" x="335.5" y="-133" font-family="Helvetica,sans-Serif" font-size="10.00">Utils</text>
</a>
</g>
</g>
<!-- dir_7d4534fbf0715cf3ed7975990f2820c5&#45;&gt;dir_13321debcaacdcb69201ab3fc5c493de -->
<g id="edge1" class="edge">
<title>dir_7d4534fbf0715cf3ed7975990f2820c5&#45;&gt;dir_13321debcaacdcb69201ab3fc5c493de</title>
<g id="a_edge1"><a xlink:href="dir_000268_000606.html" target="_top">
<path fill="none" stroke="#63b8ff" d="M306.19,-235.95C289.66,-224.19 264.89,-202.09 275.5,-181 282.19,-167.71 294.94,-157.39 306.97,-150.05"/>
<polygon fill="#63b8ff" stroke="#63b8ff" points="308.92,-152.97 315.92,-145.02 305.49,-146.87 308.92,-152.97"/>
</a>
</g>
<g id="a_edge1&#45;headlabel"><a xlink:href="dir_000268_000606.html" target="_top" xlink:title="2">
<text text-anchor="middle" x="307.17" y="-154.71" font-family="Helvetica,sans-Serif" font-size="10.00" fill="#63b8ff">2</text>
</a>
</g>
</g>
<!-- dir_cab9f8330899b1cc9d753b1d9c5c5a3e -->
<g id="node17" class="node">
<title>dir_cab9f8330899b1cc9d753b1d9c5c5a3e</title>
<g id="a_node17"><a xlink:href="dir_cab9f8330899b1cc9d753b1d9c5c5a3e.html" target="_top" xlink:title="Pass">
<polygon fill="#edf0f7" stroke="#7f7f7f" points="695.5,-200 657.5,-200 657.5,-181 695.5,-181 695.5,-200"/>
<text text-anchor="middle" x="676.5" y="-188" font-family="Helvetica,sans-Serif" font-size="10.00">Pass</text>
</a>
</g>
</g>
<!-- dir_7d4534fbf0715cf3ed7975990f2820c5&#45;&gt;dir_cab9f8330899b1cc9d753b1d9c5c5a3e -->
<g id="edge3" class="edge">
<title>dir_7d4534fbf0715cf3ed7975990f2820c5&#45;&gt;dir_cab9f8330899b1cc9d753b1d9c5c5a3e</title>
<g id="a_edge3"><a xlink:href="dir_000268_000369.html" target="_top">
<path fill="none" stroke="#63b8ff" d="M342.65,-241.06C405.27,-231.77 577.97,-206.13 647.21,-195.85"/>
<polygon fill="#63b8ff" stroke="#63b8ff" points="648.03,-199.27 657.41,-194.33 647,-192.34 648.03,-199.27"/>
</a>
</g>
<g id="a_edge3&#45;headlabel"><a xlink:href="dir_000268_000369.html" target="_top" xlink:title="1">
<text text-anchor="middle" x="644.89" y="-200.1" font-family="Helvetica,sans-Serif" font-size="10.00" fill="#63b8ff">1</text>
</a>
</g>
</g>
<!-- dir_7d479de6bd48aed5be2b9b0bfd61f4ed -->
<g id="node11" class="node">
<title>dir_7d479de6bd48aed5be2b9b0bfd61f4ed</title>
<g id="a_node11"><a xlink:href="dir_7d479de6bd48aed5be2b9b0bfd61f4ed.html" target="_top" xlink:title="IR">
<polygon fill="#a2b4d6" stroke="#404040" points="310,-90 281,-90 281,-71 310,-71 310,-90"/>
<text text-anchor="middle" x="295.5" y="-78" font-family="Helvetica,sans-Serif" font-size="10.00">IR</text>
</a>
</g>
</g>
<!-- dir_7d479de6bd48aed5be2b9b0bfd61f4ed&#45;&gt;dir_83bd8be6e9490851e8e4007286e9f64b -->
<g id="edge5" class="edge">
<title>dir_7d479de6bd48aed5be2b9b0bfd61f4ed&#45;&gt;dir_83bd8be6e9490851e8e4007286e9f64b</title>
<g id="a_edge5"><a xlink:href="dir_000192_000470.html" target="_top">
<path fill="none" stroke="#63b8ff" d="M299.79,-70.75C303.31,-63.57 308.41,-53.18 312.78,-44.27"/>
<polygon fill="#63b8ff" stroke="#63b8ff" points="316.02,-45.61 317.29,-35.09 309.74,-42.53 316.02,-45.61"/>
</a>
</g>
<g id="a_edge5&#45;headlabel"><a xlink:href="dir_000192_000470.html" target="_top" xlink:title="1">
<text text-anchor="middle" x="316.99" y="-47.59" font-family="Helvetica,sans-Serif" font-size="10.00" fill="#63b8ff">1</text>
</a>
</g>
</g>
<!-- dir_7d479de6bd48aed5be2b9b0bfd61f4ed&#45;&gt;dir_e4893b20171f621ff7a85b39656091a7 -->
<g id="edge8" class="edge">
<title>dir_7d479de6bd48aed5be2b9b0bfd61f4ed&#45;&gt;dir_e4893b20171f621ff7a85b39656091a7</title>
<g id="a_edge8"><a xlink:href="dir_000192_000616.html" target="_top">
<path fill="none" stroke="#63b8ff" d="M286.44,-71C283.61,-68.39 280.45,-65.55 277.5,-63 269.02,-55.69 259.4,-47.83 251.25,-41.29"/>
<polygon fill="#63b8ff" stroke="#63b8ff" points="253.38,-38.51 243.38,-35.02 249.02,-43.99 253.38,-38.51"/>
</a>
</g>
<g id="a_edge8&#45;headlabel"><a xlink:href="dir_000192_000616.html" target="_top" xlink:title="3">
<text text-anchor="middle" x="257.96" y="-36.03" font-family="Helvetica,sans-Serif" font-size="10.00" fill="#63b8ff">3</text>
</a>
</g>
</g>
<!-- dir_51020c1b0909ae629a35fe1c65c620b9 -->
<g id="node15" class="node">
<title>dir_51020c1b0909ae629a35fe1c65c620b9</title>
<g id="a_node15"><a xlink:href="dir_51020c1b0909ae629a35fe1c65c620b9.html" target="_top" xlink:title="Bytecode">
<polygon fill="#edf0f7" stroke="#7f7f7f" points="719.5,-35 657.5,-35 657.5,-16 719.5,-16 719.5,-35"/>
<text text-anchor="middle" x="688.5" y="-23" font-family="Helvetica,sans-Serif" font-size="10.00">Bytecode</text>
</a>
</g>
</g>
<!-- dir_7d479de6bd48aed5be2b9b0bfd61f4ed&#45;&gt;dir_51020c1b0909ae629a35fe1c65c620b9 -->
<g id="edge4" class="edge">
<title>dir_7d479de6bd48aed5be2b9b0bfd61f4ed&#45;&gt;dir_51020c1b0909ae629a35fe1c65c620b9</title>
<g id="a_edge4"><a xlink:href="dir_000192_000072.html" target="_top">
<path fill="none" stroke="#63b8ff" d="M303.21,-70.82C306.39,-67.82 310.31,-64.76 314.5,-63 381.37,-34.83 563.49,-46.06 647.3,-35.75"/>
<polygon fill="#63b8ff" stroke="#63b8ff" points="647.84,-39.21 657.26,-34.34 646.86,-32.28 647.84,-39.21"/>
</a>
</g>
<g id="a_edge4&#45;headlabel"><a xlink:href="dir_000192_000072.html" target="_top" xlink:title="1">
<text text-anchor="middle" x="644.68" y="-40.02" font-family="Helvetica,sans-Serif" font-size="10.00" fill="#63b8ff">1</text>
</a>
</g>
</g>
<!-- dir_84ef7c054b4edc3447cfba80cee80f65 -->
<g id="node16" class="node">
<title>dir_84ef7c054b4edc3447cfba80cee80f65</title>
<g id="a_node16"><a xlink:href="dir_84ef7c054b4edc3447cfba80cee80f65.html" target="_top" xlink:title="IR">
<polygon fill="#edf0f7" stroke="#7f7f7f" points="29,-35 0,-35 0,-16 29,-16 29,-35"/>
<text text-anchor="middle" x="14.5" y="-23" font-family="Helvetica,sans-Serif" font-size="10.00">IR</text>
</a>
</g>
</g>
<!-- dir_7d479de6bd48aed5be2b9b0bfd61f4ed&#45;&gt;dir_84ef7c054b4edc3447cfba80cee80f65 -->
<g id="edge6" class="edge">
<title>dir_7d479de6bd48aed5be2b9b0bfd61f4ed&#45;&gt;dir_84ef7c054b4edc3447cfba80cee80f65</title>
<g id="a_edge6"><a xlink:href="dir_000192_000215.html" target="_top">
<path fill="none" stroke="#63b8ff" d="M288.24,-70.9C285.23,-67.9 281.51,-64.84 277.5,-63 183.1,-19.79 144.92,-56.91 38.86,-34.44"/>
<polygon fill="#63b8ff" stroke="#63b8ff" points="39.59,-31.02 29.07,-32.24 38.06,-37.85 39.59,-31.02"/>
</a>
</g>
<g id="a_edge6&#45;headlabel"><a xlink:href="dir_000192_000215.html" target="_top" xlink:title="14">
<text text-anchor="middle" x="43.72" y="-26.54" font-family="Helvetica,sans-Serif" font-size="10.00" fill="#63b8ff">14</text>
</a>
</g>
</g>
<!-- dir_cf63c3ddb21c79ef735682489f4c6a69 -->
<g id="node18" class="node">
<title>dir_cf63c3ddb21c79ef735682489f4c6a69</title>
<g id="a_node18"><a xlink:href="dir_cf63c3ddb21c79ef735682489f4c6a69.html" target="_top" xlink:title="Interfaces">
<polygon fill="#edf0f7" stroke="red" stroke-dasharray="5,2" points="803,-35 738,-35 738,-16 803,-16 803,-35"/>
<text text-anchor="middle" x="770.5" y="-23" font-family="Helvetica,sans-Serif" font-size="10.00">Interfaces</text>
</a>
</g>
</g>
<!-- dir_7d479de6bd48aed5be2b9b0bfd61f4ed&#45;&gt;dir_cf63c3ddb21c79ef735682489f4c6a69 -->
<g id="edge7" class="edge">
<title>dir_7d479de6bd48aed5be2b9b0bfd61f4ed&#45;&gt;dir_cf63c3ddb21c79ef735682489f4c6a69</title>
<g id="a_edge7"><a xlink:href="dir_000192_000170.html" target="_top">
<path fill="none" stroke="#63b8ff" d="M303.2,-70.79C306.38,-67.78 310.3,-64.73 314.5,-63 396.99,-28.96 621.97,-46.09 727.43,-34.82"/>
<polygon fill="#63b8ff" stroke="#63b8ff" points="728.05,-38.27 737.55,-33.6 727.21,-31.32 728.05,-38.27"/>
</a>
</g>
<g id="a_edge7&#45;headlabel"><a xlink:href="dir_000192_000170.html" target="_top" xlink:title="10">
<text text-anchor="middle" x="724.82" y="-39.02" font-family="Helvetica,sans-Serif" font-size="10.00" fill="#63b8ff">10</text>
</a>
</g>
</g>
<!-- dir_f61d47671007dfdb592580b61f960d39 -->
<g id="node19" class="node">
<title>dir_f61d47671007dfdb592580b61f960d39</title>
<g id="a_node19"><a xlink:href="dir_f61d47671007dfdb592580b61f960d39.html" target="_top" xlink:title="Support">
<polygon fill="#edf0f7" stroke="#7f7f7f" points="101.5,-35 47.5,-35 47.5,-16 101.5,-16 101.5,-35"/>
<text text-anchor="middle" x="74.5" y="-23" font-family="Helvetica,sans-Serif" font-size="10.00">Support</text>
</a>
</g>
</g>
<!-- dir_7d479de6bd48aed5be2b9b0bfd61f4ed&#45;&gt;dir_f61d47671007dfdb592580b61f960d39 -->
<g id="edge9" class="edge">
<title>dir_7d479de6bd48aed5be2b9b0bfd61f4ed&#45;&gt;dir_f61d47671007dfdb592580b61f960d39</title>
<g id="a_edge9"><a xlink:href="dir_000192_000460.html" target="_top">
<path fill="none" stroke="#63b8ff" d="M288.19,-70.99C285.18,-68.01 281.47,-64.92 277.5,-63 210.81,-30.65 183.54,-49.67 111.49,-36.12"/>
<polygon fill="#63b8ff" stroke="#63b8ff" points="112.01,-32.65 101.51,-34.09 110.61,-39.51 112.01,-32.65"/>
</a>
</g>
<g id="a_edge9&#45;headlabel"><a xlink:href="dir_000192_000460.html" target="_top" xlink:title="1">
<text text-anchor="middle" x="116.09" y="-28.08" font-family="Helvetica,sans-Serif" font-size="10.00" fill="#63b8ff">1</text>
</a>
</g>
</g>
<!-- dir_e6ac365749714580b87c7a484528e692 -->
<g id="node12" class="node">
<title>dir_e6ac365749714580b87c7a484528e692</title>
<g id="a_node12"><a xlink:href="dir_e6ac365749714580b87c7a484528e692.html" target="_top" xlink:title="TransformOps">
<polygon fill="#a2b4d6" stroke="#404040" points="297.5,-145 213.5,-145 213.5,-126 297.5,-126 297.5,-145"/>
<text text-anchor="middle" x="255.5" y="-133" font-family="Helvetica,sans-Serif" font-size="10.00">TransformOps</text>
</a>
</g>
</g>
<!-- dir_e6ac365749714580b87c7a484528e692&#45;&gt;dir_e4893b20171f621ff7a85b39656091a7 -->
<g id="edge15" class="edge">
<title>dir_e6ac365749714580b87c7a484528e692&#45;&gt;dir_e4893b20171f621ff7a85b39656091a7</title>
<g id="a_edge15"><a xlink:href="dir_000500_000616.html" target="_top">
<path fill="none" stroke="#63b8ff" d="M225.43,-125.95C197.29,-117.27 158.31,-103.26 149.5,-90 142.86,-80.01 142.94,-73.05 149.5,-63 161.26,-44.98 184.12,-35.8 202.88,-31.15"/>
<polygon fill="#63b8ff" stroke="#63b8ff" points="203.75,-34.55 212.78,-29.01 202.27,-27.7 203.75,-34.55"/>
</a>
</g>
<g id="a_edge15&#45;headlabel"><a xlink:href="dir_000500_000616.html" target="_top" xlink:title="1">
<text text-anchor="middle" x="200.84" y="-35.58" font-family="Helvetica,sans-Serif" font-size="10.00" fill="#63b8ff">1</text>
</a>
</g>
</g>
<!-- dir_e6ac365749714580b87c7a484528e692&#45;&gt;dir_832fe9af74a05d9f4772b8e442bafd02 -->
<g id="edge13" class="edge">
<title>dir_e6ac365749714580b87c7a484528e692&#45;&gt;dir_832fe9af74a05d9f4772b8e442bafd02</title>
<g id="a_edge13"><a xlink:href="dir_000500_000491.html" target="_top">
<path fill="none" stroke="#63b8ff" d="M279.44,-125.98C304.06,-117.23 342.62,-103.51 370.42,-93.62"/>
<polygon fill="#63b8ff" stroke="#63b8ff" points="371.88,-96.82 380.12,-90.17 369.53,-90.22 371.88,-96.82"/>
</a>
</g>
<g id="a_edge13&#45;headlabel"><a xlink:href="dir_000500_000491.html" target="_top" xlink:title="6">
<text text-anchor="middle" x="369.44" y="-98.2" font-family="Helvetica,sans-Serif" font-size="10.00" fill="#63b8ff">6</text>
</a>
</g>
</g>
<!-- dir_e6ac365749714580b87c7a484528e692&#45;&gt;dir_762b59f238bc9709d1f8796a74c242af -->
<g id="edge11" class="edge">
<title>dir_e6ac365749714580b87c7a484528e692&#45;&gt;dir_762b59f238bc9709d1f8796a74c242af</title>
<g id="a_edge11"><a xlink:href="dir_000500_000066.html" target="_top">
<path fill="none" stroke="#63b8ff" d="M293.9,-125.98C335.24,-116.82 401.1,-102.21 445.99,-92.26"/>
<polygon fill="#63b8ff" stroke="#63b8ff" points="446.79,-95.66 455.8,-90.08 445.28,-88.83 446.79,-95.66"/>
</a>
</g>
<g id="a_edge11&#45;headlabel"><a xlink:href="dir_000500_000066.html" target="_top" xlink:title="1">
<text text-anchor="middle" x="443.9" y="-96.71" font-family="Helvetica,sans-Serif" font-size="10.00" fill="#63b8ff">1</text>
</a>
</g>
</g>
<!-- dir_e6ac365749714580b87c7a484528e692&#45;&gt;dir_342ad3e7b83526a7f418520e380404a9 -->
<g id="edge10" class="edge">
<title>dir_e6ac365749714580b87c7a484528e692&#45;&gt;dir_342ad3e7b83526a7f418520e380404a9</title>
<g id="a_edge10"><a xlink:href="dir_000500_000136.html" target="_top">
<path fill="none" stroke="#63b8ff" d="M242.97,-125.98C231.1,-117.92 213.04,-105.65 198.89,-96.03"/>
<polygon fill="#63b8ff" stroke="#63b8ff" points="200.5,-92.9 190.26,-90.17 196.56,-98.69 200.5,-92.9"/>
</a>
</g>
<g id="a_edge10&#45;headlabel"><a xlink:href="dir_000500_000136.html" target="_top" xlink:title="1">
<text text-anchor="middle" x="205.07" y="-90.07" font-family="Helvetica,sans-Serif" font-size="10.00" fill="#63b8ff">1</text>
</a>
</g>
</g>
<!-- dir_e6ac365749714580b87c7a484528e692&#45;&gt;dir_7d479de6bd48aed5be2b9b0bfd61f4ed -->
<g id="edge12" class="edge">
<title>dir_e6ac365749714580b87c7a484528e692&#45;&gt;dir_7d479de6bd48aed5be2b9b0bfd61f4ed</title>
<g id="a_edge12"><a xlink:href="dir_000500_000192.html" target="_top">
<path fill="none" stroke="#63b8ff" d="M262.11,-125.75C267.76,-118.26 276.04,-107.28 282.95,-98.13"/>
<polygon fill="#63b8ff" stroke="#63b8ff" points="285.79,-100.18 289.02,-90.09 280.2,-95.96 285.79,-100.18"/>
</a>
</g>
<g id="a_edge12&#45;headlabel"><a xlink:href="dir_000500_000192.html" target="_top" xlink:title="2">
<text text-anchor="middle" x="285.89" y="-102.26" font-family="Helvetica,sans-Serif" font-size="10.00" fill="#63b8ff">2</text>
</a>
</g>
</g>
<!-- dir_e6ac365749714580b87c7a484528e692&#45;&gt;dir_84ef7c054b4edc3447cfba80cee80f65 -->
<g id="edge14" class="edge">
<title>dir_e6ac365749714580b87c7a484528e692&#45;&gt;dir_84ef7c054b4edc3447cfba80cee80f65</title>
<g id="a_edge14"><a xlink:href="dir_000500_000215.html" target="_top">
<path fill="none" stroke="#63b8ff" d="M213.43,-129.48C177.24,-123.83 124.54,-112.34 83.5,-90 61.51,-78.03 41.03,-57.52 28.19,-43.05"/>
<polygon fill="#63b8ff" stroke="#63b8ff" points="30.74,-40.64 21.56,-35.34 25.43,-45.21 30.74,-40.64"/>
</a>
</g>
<g id="a_edge14&#45;headlabel"><a xlink:href="dir_000500_000215.html" target="_top" xlink:title="4">
<text text-anchor="middle" x="35.23" y="-39.02" font-family="Helvetica,sans-Serif" font-size="10.00" fill="#63b8ff">4</text>
</a>
</g>
</g>
<!-- dir_e6ac365749714580b87c7a484528e692&#45;&gt;dir_f61d47671007dfdb592580b61f960d39 -->
<g id="edge16" class="edge">
<title>dir_e6ac365749714580b87c7a484528e692&#45;&gt;dir_f61d47671007dfdb592580b61f960d39</title>
<g id="a_edge16"><a xlink:href="dir_000500_000460.html" target="_top">
<path fill="none" stroke="#63b8ff" d="M213.32,-131.15C180.61,-126.57 135.87,-115.71 105.5,-90 91.77,-78.38 83.6,-59.24 79.12,-45"/>
<polygon fill="#63b8ff" stroke="#63b8ff" points="82.47,-43.96 76.39,-35.28 75.73,-45.86 82.47,-43.96"/>
</a>
</g>
<g id="a_edge16&#45;headlabel"><a xlink:href="dir_000500_000460.html" target="_top" xlink:title="1">
<text text-anchor="middle" x="86.17" y="-44.15" font-family="Helvetica,sans-Serif" font-size="10.00" fill="#63b8ff">1</text>
</a>
</g>
</g>
<!-- dir_2bf7b27484b15c8c863e85164c5e8ee5&#45;&gt;dir_83bd8be6e9490851e8e4007286e9f64b -->
<g id="edge22" class="edge">
<title>dir_2bf7b27484b15c8c863e85164c5e8ee5&#45;&gt;dir_83bd8be6e9490851e8e4007286e9f64b</title>
<g id="a_edge22"><a xlink:href="dir_000535_000470.html" target="_top">
<path fill="none" stroke="#63b8ff" d="M355.21,-184.52C389.09,-178.7 440.6,-166.93 480.5,-145 491.53,-138.94 490.76,-132.57 501.5,-126 540.02,-102.44 570.85,-127.16 596.5,-90 603.32,-80.13 604.41,-72.03 596.5,-63 565.61,-27.74 422.69,-25 355.98,-25.71"/>
<polygon fill="#63b8ff" stroke="#63b8ff" points="355.52,-22.22 345.58,-25.86 355.62,-29.21 355.52,-22.22"/>
</a>
</g>
<g id="a_edge22&#45;headlabel"><a xlink:href="dir_000535_000470.html" target="_top" xlink:title="1">
<text text-anchor="middle" x="359.08" y="-16.83" font-family="Helvetica,sans-Serif" font-size="10.00" fill="#63b8ff">1</text>
</a>
</g>
</g>
<!-- dir_2bf7b27484b15c8c863e85164c5e8ee5&#45;&gt;dir_e4893b20171f621ff7a85b39656091a7 -->
<g id="edge28" class="edge">
<title>dir_2bf7b27484b15c8c863e85164c5e8ee5&#45;&gt;dir_e4893b20171f621ff7a85b39656091a7</title>
<g id="a_edge28"><a xlink:href="dir_000535_000616.html" target="_top">
<path fill="none" stroke="#63b8ff" d="M283.73,-182.63C239.31,-171.84 166.24,-146.06 140.5,-90 135.49,-79.09 133.76,-72.93 140.5,-63 154.29,-42.69 181.34,-33.68 202.56,-29.69"/>
<polygon fill="#63b8ff" stroke="#63b8ff" points="203.4,-33.1 212.72,-28.06 202.29,-26.18 203.4,-33.1"/>
</a>
</g>
<g id="a_edge28&#45;headlabel"><a xlink:href="dir_000535_000616.html" target="_top" xlink:title="1">
<text text-anchor="middle" x="200.3" y="-33.97" font-family="Helvetica,sans-Serif" font-size="10.00" fill="#63b8ff">1</text>
</a>
</g>
</g>
<!-- dir_2bf7b27484b15c8c863e85164c5e8ee5&#45;&gt;dir_762b59f238bc9709d1f8796a74c242af -->
<g id="edge21" class="edge">
<title>dir_2bf7b27484b15c8c863e85164c5e8ee5&#45;&gt;dir_762b59f238bc9709d1f8796a74c242af</title>
<g id="a_edge21"><a xlink:href="dir_000535_000066.html" target="_top">
<path fill="none" stroke="#63b8ff" d="M328.19,-180.93C343.83,-165.63 376.3,-134.44 389.5,-126 410.81,-112.37 437.01,-101.27 457.9,-93.55"/>
<polygon fill="#63b8ff" stroke="#63b8ff" points="459.16,-96.82 467.39,-90.15 456.79,-90.23 459.16,-96.82"/>
</a>
</g>
<g id="a_edge21&#45;headlabel"><a xlink:href="dir_000535_000066.html" target="_top" xlink:title="1">
<text text-anchor="middle" x="456.73" y="-98.21" font-family="Helvetica,sans-Serif" font-size="10.00" fill="#63b8ff">1</text>
</a>
</g>
</g>
<!-- dir_2bf7b27484b15c8c863e85164c5e8ee5&#45;&gt;dir_d0219b36a5ea27d6075e0b14c6f98d85 -->
<g id="edge27" class="edge">
<title>dir_2bf7b27484b15c8c863e85164c5e8ee5&#45;&gt;dir_d0219b36a5ea27d6075e0b14c6f98d85</title>
<g id="a_edge27"><a xlink:href="dir_000535_000306.html" target="_top">
<path fill="none" stroke="#63b8ff" d="M339.26,-180.98C359.23,-172.38 390.3,-158.99 413.15,-149.15"/>
<polygon fill="#63b8ff" stroke="#63b8ff" points="414.58,-152.34 422.38,-145.17 411.81,-145.91 414.58,-152.34"/>
</a>
</g>
<g id="a_edge27&#45;headlabel"><a xlink:href="dir_000535_000306.html" target="_top" xlink:title="1">
<text text-anchor="middle" x="412.4" y="-153.87" font-family="Helvetica,sans-Serif" font-size="10.00" fill="#63b8ff">1</text>
</a>
</g>
</g>
<!-- dir_2bf7b27484b15c8c863e85164c5e8ee5&#45;&gt;dir_47aca9e8d6a16a6d14cf434a05d15774 -->
<g id="edge20" class="edge">
<title>dir_2bf7b27484b15c8c863e85164c5e8ee5&#45;&gt;dir_47aca9e8d6a16a6d14cf434a05d15774</title>
<g id="a_edge20"><a xlink:href="dir_000535_000419.html" target="_top">
<path fill="none" stroke="#63b8ff" d="M332.31,-180.99C345.23,-172.28 365.62,-158.2 382.5,-145 392.68,-137.04 393.06,-132 404.5,-126 458.26,-97.81 480.09,-106.89 542.06,-90.19"/>
<polygon fill="#63b8ff" stroke="#63b8ff" points="543.25,-93.49 551.92,-87.41 541.35,-86.76 543.25,-93.49"/>
</a>
</g>
<g id="a_edge20&#45;headlabel"><a xlink:href="dir_000535_000419.html" target="_top" xlink:title="1">
<text text-anchor="middle" x="540.56" y="-94.7" font-family="Helvetica,sans-Serif" font-size="10.00" fill="#63b8ff">1</text>
</a>
</g>
</g>
<!-- dir_2bf7b27484b15c8c863e85164c5e8ee5&#45;&gt;dir_bfd3493254b3df47293537524626123b -->
<g id="edge24" class="edge">
<title>dir_2bf7b27484b15c8c863e85164c5e8ee5&#45;&gt;dir_bfd3493254b3df47293537524626123b</title>
<g id="a_edge24"><a xlink:href="dir_000535_000644.html" target="_top">
<path fill="none" stroke="#63b8ff" d="M353.88,-180.98C394.1,-171.02 460.22,-154.65 500.04,-144.79"/>
<polygon fill="#63b8ff" stroke="#63b8ff" points="500.94,-148.17 509.8,-142.37 499.25,-141.38 500.94,-148.17"/>
</a>
</g>
<g id="a_edge24&#45;headlabel"><a xlink:href="dir_000535_000644.html" target="_top" xlink:title="1">
<text text-anchor="middle" x="498.13" y="-149.29" font-family="Helvetica,sans-Serif" font-size="10.00" fill="#63b8ff">1</text>
</a>
</g>
</g>
<!-- dir_2bf7b27484b15c8c863e85164c5e8ee5&#45;&gt;dir_1af55d3d38bdc22b737bcb481a4c2bf6 -->
<g id="edge18" class="edge">
<title>dir_2bf7b27484b15c8c863e85164c5e8ee5&#45;&gt;dir_1af55d3d38bdc22b737bcb481a4c2bf6</title>
<g id="a_edge18"><a xlink:href="dir_000535_000665.html" target="_top">
<path fill="none" stroke="#63b8ff" d="M355.13,-183.33C401.3,-175.28 484.56,-160.57 565.63,-145.13"/>
<polygon fill="#63b8ff" stroke="#63b8ff" points="566.33,-148.56 575.5,-143.25 565.02,-141.69 566.33,-148.56"/>
</a>
</g>
<g id="a_edge18&#45;headlabel"><a xlink:href="dir_000535_000665.html" target="_top" xlink:title="1">
<text text-anchor="middle" x="563.33" y="-149.53" font-family="Helvetica,sans-Serif" font-size="10.00" fill="#63b8ff">1</text>
</a>
</g>
</g>
<!-- dir_2bf7b27484b15c8c863e85164c5e8ee5&#45;&gt;dir_13321debcaacdcb69201ab3fc5c493de -->
<g id="edge17" class="edge">
<title>dir_2bf7b27484b15c8c863e85164c5e8ee5&#45;&gt;dir_13321debcaacdcb69201ab3fc5c493de</title>
<g id="a_edge17"><a xlink:href="dir_000535_000606.html" target="_top">
<path fill="none" stroke="#63b8ff" d="M322.14,-180.75C324.26,-173.72 327.31,-163.62 329.96,-154.84"/>
<polygon fill="#63b8ff" stroke="#63b8ff" points="333.37,-155.67 332.91,-145.09 326.67,-153.65 333.37,-155.67"/>
</a>
</g>
<g id="a_edge17&#45;headlabel"><a xlink:href="dir_000535_000606.html" target="_top" xlink:title="1">
<text text-anchor="middle" x="335.05" y="-157.44" font-family="Helvetica,sans-Serif" font-size="10.00" fill="#63b8ff">1</text>
</a>
</g>
</g>
<!-- dir_2bf7b27484b15c8c863e85164c5e8ee5&#45;&gt;dir_84ef7c054b4edc3447cfba80cee80f65 -->
<g id="edge23" class="edge">
<title>dir_2bf7b27484b15c8c863e85164c5e8ee5&#45;&gt;dir_84ef7c054b4edc3447cfba80cee80f65</title>
<g id="a_edge23"><a xlink:href="dir_000535_000215.html" target="_top">
<path fill="none" stroke="#63b8ff" d="M283.88,-187.86C239.78,-184.56 163.42,-174.68 105.5,-145 73.3,-128.5 67.15,-118.98 45.5,-90 35.07,-76.04 26.67,-58.02 21.26,-44.75"/>
<polygon fill="#63b8ff" stroke="#63b8ff" points="24.47,-43.34 17.58,-35.29 17.95,-45.88 24.47,-43.34"/>
</a>
</g>
<g id="a_edge23&#45;headlabel"><a xlink:href="dir_000535_000215.html" target="_top" xlink:title="2">
<text text-anchor="middle" x="28.42" y="-43.16" font-family="Helvetica,sans-Serif" font-size="10.00" fill="#63b8ff">2</text>
</a>
</g>
</g>
<!-- dir_2bf7b27484b15c8c863e85164c5e8ee5&#45;&gt;dir_cf63c3ddb21c79ef735682489f4c6a69 -->
<g id="edge26" class="edge">
<title>dir_2bf7b27484b15c8c863e85164c5e8ee5&#45;&gt;dir_cf63c3ddb21c79ef735682489f4c6a69</title>
<g id="a_edge26"><a xlink:href="dir_000535_000170.html" target="_top">
<path fill="none" stroke="#63b8ff" d="M355.18,-187.66C430.21,-183.32 601.66,-170.82 653.5,-145 701.19,-121.25 740.84,-70.29 759.32,-43.6"/>
<polygon fill="#63b8ff" stroke="#63b8ff" points="762.26,-45.5 764.95,-35.26 756.46,-41.59 762.26,-45.5"/>
</a>
</g>
<g id="a_edge26&#45;headlabel"><a xlink:href="dir_000535_000170.html" target="_top" xlink:title="1">
<text text-anchor="middle" x="762.6" y="-47.57" font-family="Helvetica,sans-Serif" font-size="10.00" fill="#63b8ff">1</text>
</a>
</g>
</g>
<!-- dir_37f3372f1e76d74ffd54613af9306e43 -->
<g id="node20" class="node">
<title>dir_37f3372f1e76d74ffd54613af9306e43</title>
<g id="a_node20"><a xlink:href="dir_37f3372f1e76d74ffd54613af9306e43.html" target="_top" xlink:title="Conversion">
<polygon fill="#edf0f7" stroke="red" stroke-dasharray="5,2" points="769,-145 698,-145 698,-126 769,-126 769,-145"/>
<text text-anchor="middle" x="733.5" y="-133" font-family="Helvetica,sans-Serif" font-size="10.00">Conversion</text>
</a>
</g>
</g>
<!-- dir_2bf7b27484b15c8c863e85164c5e8ee5&#45;&gt;dir_37f3372f1e76d74ffd54613af9306e43 -->
<g id="edge19" class="edge">
<title>dir_2bf7b27484b15c8c863e85164c5e8ee5&#45;&gt;dir_37f3372f1e76d74ffd54613af9306e43</title>
<g id="a_edge19"><a xlink:href="dir_000535_000100.html" target="_top">
<path fill="none" stroke="#63b8ff" d="M355.22,-185.69C420.53,-178.61 563.49,-162.53 683.5,-145 684.8,-144.81 686.12,-144.61 687.44,-144.41"/>
<polygon fill="#63b8ff" stroke="#63b8ff" points="688.42,-147.8 697.75,-142.79 687.33,-140.89 688.42,-147.8"/>
</a>
</g>
<g id="a_edge19&#45;headlabel"><a xlink:href="dir_000535_000100.html" target="_top" xlink:title="1">
<text text-anchor="middle" x="685.31" y="-148.67" font-family="Helvetica,sans-Serif" font-size="10.00" fill="#63b8ff">1</text>
</a>
</g>
</g>
<!-- dir_ca4d1f3bc4cd42ba07a57ca86d19a1d6 -->
<g id="node21" class="node">
<title>dir_ca4d1f3bc4cd42ba07a57ca86d19a1d6</title>
<g id="a_node21"><a xlink:href="dir_ca4d1f3bc4cd42ba07a57ca86d19a1d6.html" target="_top" xlink:title="Transforms">
<polygon fill="#edf0f7" stroke="#7f7f7f" points="858,-145 787,-145 787,-126 858,-126 858,-145"/>
<text text-anchor="middle" x="822.5" y="-133" font-family="Helvetica,sans-Serif" font-size="10.00">Transforms</text>
</a>
</g>
</g>
<!-- dir_2bf7b27484b15c8c863e85164c5e8ee5&#45;&gt;dir_ca4d1f3bc4cd42ba07a57ca86d19a1d6 -->
<g id="edge25" class="edge">
<title>dir_2bf7b27484b15c8c863e85164c5e8ee5&#45;&gt;dir_ca4d1f3bc4cd42ba07a57ca86d19a1d6</title>
<g id="a_edge25"><a xlink:href="dir_000535_000555.html" target="_top">
<path fill="none" stroke="#63b8ff" d="M355.05,-187.2C430.77,-182.05 613.71,-168.32 776.34,-145.2"/>
<polygon fill="#63b8ff" stroke="#63b8ff" points="777.13,-148.62 786.53,-143.74 776.13,-141.69 777.13,-148.62"/>
</a>
</g>
<g id="a_edge25&#45;headlabel"><a xlink:href="dir_000535_000555.html" target="_top" xlink:title="1">
<text text-anchor="middle" x="773.97" y="-149.44" font-family="Helvetica,sans-Serif" font-size="10.00" fill="#63b8ff">1</text>
</a>
</g>
</g>
<!-- dir_13321debcaacdcb69201ab3fc5c493de&#45;&gt;dir_e4893b20171f621ff7a85b39656091a7 -->
<g id="edge31" class="edge">
<title>dir_13321debcaacdcb69201ab3fc5c493de&#45;&gt;dir_e4893b20171f621ff7a85b39656091a7</title>
<g id="a_edge31"><a xlink:href="dir_000606_000616.html" target="_top">
<path fill="none" stroke="#63b8ff" d="M319.96,-125.9C306.35,-117.86 286.6,-104.86 272.5,-90 259.5,-76.29 248.39,-57.73 241.2,-44.22"/>
<polygon fill="#63b8ff" stroke="#63b8ff" points="244.17,-42.35 236.5,-35.04 237.94,-45.53 244.17,-42.35"/>
</a>
</g>
<g id="a_edge31&#45;headlabel"><a xlink:href="dir_000606_000616.html" target="_top" xlink:title="1">
<text text-anchor="middle" x="248.34" y="-41.75" font-family="Helvetica,sans-Serif" font-size="10.00" fill="#63b8ff">1</text>
</a>
</g>
</g>
<!-- dir_13321debcaacdcb69201ab3fc5c493de&#45;&gt;dir_47aca9e8d6a16a6d14cf434a05d15774 -->
<g id="edge29" class="edge">
<title>dir_13321debcaacdcb69201ab3fc5c493de&#45;&gt;dir_47aca9e8d6a16a6d14cf434a05d15774</title>
<g id="a_edge29"><a xlink:href="dir_000606_000419.html" target="_top">
<path fill="none" stroke="#63b8ff" d="M355.07,-127.3C356.56,-126.84 358.05,-126.4 359.5,-126 436.74,-104.89 460.97,-110.49 541.82,-90.17"/>
<polygon fill="#63b8ff" stroke="#63b8ff" points="543.15,-93.44 551.96,-87.56 541.41,-86.66 543.15,-93.44"/>
</a>
</g>
<g id="a_edge29&#45;headlabel"><a xlink:href="dir_000606_000419.html" target="_top" xlink:title="1">
<text text-anchor="middle" x="540.38" y="-94.58" font-family="Helvetica,sans-Serif" font-size="10.00" fill="#63b8ff">1</text>
</a>
</g>
</g>
<!-- dir_13321debcaacdcb69201ab3fc5c493de&#45;&gt;dir_7d479de6bd48aed5be2b9b0bfd61f4ed -->
<g id="edge30" class="edge">
<title>dir_13321debcaacdcb69201ab3fc5c493de&#45;&gt;dir_7d479de6bd48aed5be2b9b0bfd61f4ed</title>
<g id="a_edge30"><a xlink:href="dir_000606_000192.html" target="_top">
<path fill="none" stroke="#63b8ff" d="M328.89,-125.75C323.24,-118.26 314.96,-107.28 308.05,-98.13"/>
<polygon fill="#63b8ff" stroke="#63b8ff" points="310.8,-95.96 301.98,-90.09 305.21,-100.18 310.8,-95.96"/>
</a>
</g>
<g id="a_edge30&#45;headlabel"><a xlink:href="dir_000606_000192.html" target="_top" xlink:title="1">
<text text-anchor="middle" x="315.23" y="-94.62" font-family="Helvetica,sans-Serif" font-size="10.00" fill="#63b8ff">1</text>
</a>
</g>
</g>
</g>
</svg>
