<?xml version="1.0" encoding="UTF-8" standalone="no"?>
<!DOCTYPE svg PUBLIC "-//W3C//DTD SVG 1.1//EN"
 "http://www.w3.org/Graphics/SVG/1.1/DTD/svg11.dtd">
<!-- Generated by graphviz version 2.43.0 (0)
 -->
<!-- Title: include/mlir/Debug Pages: 1 -->
<svg width="248pt" height="247pt"
 viewBox="0.00 0.00 248.00 247.00" xmlns="http://www.w3.org/2000/svg" xmlns:xlink="http://www.w3.org/1999/xlink">
<g id="graph0" class="graph" transform="scale(1 1) rotate(0) translate(4 243)">
<title>include/mlir/Debug</title>
<g id="clust1" class="cluster">
<title>clusterdir_5654f77406fb9ceec87e68ef828ceea2</title>
<g id="a_clust1"><a xlink:href="dir_5654f77406fb9ceec87e68ef828ceea2.html" target="_top" xlink:title="mlir">
<polygon fill="#ddddee" stroke="black" points="8,-8 8,-231 178,-231 178,-8 8,-8"/>
<text text-anchor="middle" x="93" y="-219" font-family="Helvetica,sans-Serif" font-size="10.00">mlir</text>
</a>
</g>
</g>
<g id="clust2" class="cluster">
<title>clusterdir_87c9db4047ba42c619d125fbde5cb4d1</title>
<g id="a_clust2"><a xlink:href="dir_87c9db4047ba42c619d125fbde5cb4d1.html" target="_top">
<polygon fill="#eeeeff" stroke="black" points="16,-80 16,-204 170,-204 170,-80 16,-80"/>
</a>
</g>
</g>
<!-- dir_84ef7c054b4edc3447cfba80cee80f65 -->
<g id="node1" class="node">
<title>dir_84ef7c054b4edc3447cfba80cee80f65</title>
<g id="a_node1"><a xlink:href="dir_84ef7c054b4edc3447cfba80cee80f65.html" target="_top" xlink:title="IR">
<polygon fill="none" stroke="black" points="141,-52 87,-52 87,-16 141,-16 141,-52"/>
<text text-anchor="middle" x="114" y="-31.5" font-family="Helvetica,sans-Serif" font-size="10.00">IR</text>
</a>
</g>
</g>
<!-- dir_87c9db4047ba42c619d125fbde5cb4d1 -->
<g id="node2" class="node">
<title>dir_87c9db4047ba42c619d125fbde5cb4d1</title>
<text text-anchor="middle" x="135" y="-175.5" font-family="Helvetica,sans-Serif" font-size="10.00">Debug</text>
</g>
<!-- dir_0f4e027ab86a7d03f34e8b3799d7589d -->
<g id="node3" class="node">
<title>dir_0f4e027ab86a7d03f34e8b3799d7589d</title>
<g id="a_node3"><a xlink:href="dir_0f4e027ab86a7d03f34e8b3799d7589d.html" target="_top" xlink:title="BreakpointManagers">
<polygon fill="white" stroke="black" points="145,-124 27,-124 27,-88 145,-88 145,-124"/>
<text text-anchor="middle" x="86" y="-103.5" font-family="Helvetica,sans-Serif" font-size="10.00">BreakpointManagers</text>
</a>
</g>
</g>
<!-- dir_87c9db4047ba42c619d125fbde5cb4d1&#45;&gt;dir_0f4e027ab86a7d03f34e8b3799d7589d -->
<g id="edge2" class="edge">
<title>dir_87c9db4047ba42c619d125fbde5cb4d1&#45;&gt;dir_0f4e027ab86a7d03f34e8b3799d7589d</title>
<path fill="none" stroke="black" d="M122.89,-159.7C117.13,-151.47 110.14,-141.48 103.79,-132.42"/>
<polygon fill="black" stroke="black" points="106.58,-130.29 97.97,-124.1 100.84,-134.3 106.58,-130.29"/>
<g id="a_edge2&#45;headlabel"><a xlink:href="dir_000183_000184.html" target="_top" xlink:title="1">
<text text-anchor="middle" x="110.96" y="-129.11" font-family="Helvetica,sans-Serif" font-size="10.00">1</text>
</a>
</g>
</g>
<!-- dir_79e8035470b34d72c544e1d5f313f619 -->
<g id="node5" class="node">
<title>dir_79e8035470b34d72c544e1d5f313f619</title>
<g id="a_node5"><a xlink:href="dir_79e8035470b34d72c544e1d5f313f619.html" target="_top" xlink:title="mlir&#45;c">
<polygon fill="none" stroke="red" points="240,-124 186,-124 186,-88 240,-88 240,-124"/>
<text text-anchor="middle" x="213" y="-103.5" font-family="Helvetica,sans-Serif" font-size="10.00">mlir&#45;c</text>
</a>
</g>
</g>
<!-- dir_87c9db4047ba42c619d125fbde5cb4d1&#45;&gt;dir_79e8035470b34d72c544e1d5f313f619 -->
<g id="edge3" class="edge">
<title>dir_87c9db4047ba42c619d125fbde5cb4d1&#45;&gt;dir_79e8035470b34d72c544e1d5f313f619</title>
<path fill="none" stroke="black" d="M154.28,-159.7C163.92,-151.05 175.73,-140.45 186.23,-131.03"/>
<polygon fill="black" stroke="black" points="188.84,-133.39 193.94,-124.1 184.16,-128.18 188.84,-133.39"/>
<g id="a_edge3&#45;headlabel"><a xlink:href="dir_000183_000002.html" target="_top" xlink:title="1">
<text text-anchor="middle" x="188.06" y="-135.4" font-family="Helvetica,sans-Serif" font-size="10.00">1</text>
</a>
</g>
</g>
<!-- dir_0f4e027ab86a7d03f34e8b3799d7589d&#45;&gt;dir_84ef7c054b4edc3447cfba80cee80f65 -->
<g id="edge4" class="edge">
<title>dir_0f4e027ab86a7d03f34e8b3799d7589d&#45;&gt;dir_84ef7c054b4edc3447cfba80cee80f65</title>
<path fill="none" stroke="black" d="M92.92,-87.7C96.07,-79.81 99.88,-70.3 103.38,-61.55"/>
<polygon fill="black" stroke="black" points="106.69,-62.69 107.16,-52.1 100.19,-60.09 106.69,-62.69"/>
<g id="a_edge4&#45;headlabel"><a xlink:href="dir_000184_000046.html" target="_top" xlink:title="4">
<text text-anchor="middle" x="108" y="-64.58" font-family="Helvetica,sans-Serif" font-size="10.00">4</text>
</a>
</g>
</g>
<!-- dir_b5ce5523b7b346d94939f078ee083504 -->
<g id="node4" class="node">
<title>dir_b5ce5523b7b346d94939f078ee083504</title>
<g id="a_node4"><a xlink:href="dir_b5ce5523b7b346d94939f078ee083504.html" target="_top" xlink:title="Observers">
<polygon fill="white" stroke="black" points="90,-196 24,-196 24,-160 90,-160 90,-196"/>
<text text-anchor="middle" x="57" y="-175.5" font-family="Helvetica,sans-Serif" font-size="10.00">Observers</text>
</a>
</g>
</g>
<!-- dir_b5ce5523b7b346d94939f078ee083504&#45;&gt;dir_84ef7c054b4edc3447cfba80cee80f65 -->
<g id="edge1" class="edge">
<title>dir_b5ce5523b7b346d94939f078ee083504&#45;&gt;dir_84ef7c054b4edc3447cfba80cee80f65</title>
<path fill="none" stroke="black" d="M90.1,-163.29C115.26,-152.13 146.73,-136.26 154,-124 163.98,-107.18 160.95,-98.28 154,-80 151.24,-72.75 146.72,-65.91 141.69,-59.87"/>
<polygon fill="black" stroke="black" points="143.96,-57.17 134.63,-52.15 138.79,-61.89 143.96,-57.17"/>
<g id="a_edge1&#45;headlabel"><a xlink:href="dir_000185_000046.html" target="_top" xlink:title="1">
<text text-anchor="middle" x="148.48" y="-55.4" font-family="Helvetica,sans-Serif" font-size="10.00">1</text>
</a>
</g>
</g>
</g>
</svg>
