<?xml version="1.0" encoding="UTF-8" standalone="no"?>
<!DOCTYPE svg PUBLIC "-//W3C//DTD SVG 1.1//EN"
 "http://www.w3.org/Graphics/SVG/1.1/DTD/svg11.dtd">
<!-- Generated by graphviz version 2.43.0 (0)
 -->
<!-- Title: include/mlir/Dialect/IRDL Pages: 1 -->
<svg width="208pt" height="375pt"
 viewBox="0.00 0.00 207.50 375.00" xmlns="http://www.w3.org/2000/svg" xmlns:xlink="http://www.w3.org/1999/xlink">
<g id="graph0" class="graph" transform="scale(1 1) rotate(0) translate(4 371)">
<title>include/mlir/Dialect/IRDL</title>
<g id="clust1" class="cluster">
<title>clusterdir_d07a6fac82475a065a3b2953573f00a0</title>
<g id="a_clust1"><a xlink:href="dir_d07a6fac82475a065a3b2953573f00a0.html" target="_top" xlink:title="Dialect">
<polygon fill="#ddddee" stroke="black" points="8,-272 8,-359 166,-359 166,-272 8,-272"/>
<text text-anchor="middle" x="87" y="-347" font-family="Helvetica,sans-Serif" font-size="10.00">Dialect</text>
</a>
</g>
</g>
<g id="clust2" class="cluster">
<title>clusterdir_93f00ece3352293b6085a8ccdb678361</title>
<g id="a_clust2"><a xlink:href="dir_93f00ece3352293b6085a8ccdb678361.html" target="_top">
<polygon fill="#eeeeff" stroke="black" points="16,-280 16,-332 158,-332 158,-280 16,-280"/>
</a>
</g>
</g>
<!-- dir_93f00ece3352293b6085a8ccdb678361 -->
<g id="node1" class="node">
<title>dir_93f00ece3352293b6085a8ccdb678361</title>
<text text-anchor="middle" x="51" y="-303.5" font-family="Helvetica,sans-Serif" font-size="10.00">IRDL</text>
</g>
<!-- dir_f61d47671007dfdb592580b61f960d39 -->
<g id="node6" class="node">
<title>dir_f61d47671007dfdb592580b61f960d39</title>
<g id="a_node6"><a xlink:href="dir_f61d47671007dfdb592580b61f960d39.html" target="_top" xlink:title="Support">
<polygon fill="none" stroke="black" points="114,-36 60,-36 60,0 114,0 114,-36"/>
<text text-anchor="middle" x="87" y="-15.5" font-family="Helvetica,sans-Serif" font-size="10.00">Support</text>
</a>
</g>
</g>
<!-- dir_93f00ece3352293b6085a8ccdb678361&#45;&gt;dir_f61d47671007dfdb592580b61f960d39 -->
<g id="edge6" class="edge">
<title>dir_93f00ece3352293b6085a8ccdb678361&#45;&gt;dir_f61d47671007dfdb592580b61f960d39</title>
<path fill="none" stroke="black" d="M49.38,-287.83C48.48,-277.47 47.45,-263.99 47,-252 46.4,-236.01 45.4,-231.92 47,-216 53.19,-154.42 70,-83.63 79.74,-45.93"/>
<polygon fill="black" stroke="black" points="83.14,-46.77 82.29,-36.21 76.37,-45 83.14,-46.77"/>
<g id="a_edge6&#45;headlabel"><a xlink:href="dir_000226_000288.html" target="_top" xlink:title="1">
<text text-anchor="middle" x="84.98" y="-48.47" font-family="Helvetica,sans-Serif" font-size="10.00">1</text>
</a>
</g>
</g>
<!-- dir_7cc557358882d820e11ccdb06468711a -->
<g id="node2" class="node">
<title>dir_7cc557358882d820e11ccdb06468711a</title>
<g id="a_node2"><a xlink:href="dir_7cc557358882d820e11ccdb06468711a.html" target="_top" xlink:title="IR">
<polygon fill="white" stroke="black" points="150,-324 96,-324 96,-288 150,-288 150,-324"/>
<text text-anchor="middle" x="123" y="-303.5" font-family="Helvetica,sans-Serif" font-size="10.00">IR</text>
</a>
</g>
</g>
<!-- dir_51020c1b0909ae629a35fe1c65c620b9 -->
<g id="node3" class="node">
<title>dir_51020c1b0909ae629a35fe1c65c620b9</title>
<g id="a_node3"><a xlink:href="dir_51020c1b0909ae629a35fe1c65c620b9.html" target="_top" xlink:title="Bytecode">
<polygon fill="none" stroke="black" points="118,-252 56,-252 56,-216 118,-216 118,-252"/>
<text text-anchor="middle" x="87" y="-231.5" font-family="Helvetica,sans-Serif" font-size="10.00">Bytecode</text>
</a>
</g>
</g>
<!-- dir_7cc557358882d820e11ccdb06468711a&#45;&gt;dir_51020c1b0909ae629a35fe1c65c620b9 -->
<g id="edge7" class="edge">
<title>dir_7cc557358882d820e11ccdb06468711a&#45;&gt;dir_51020c1b0909ae629a35fe1c65c620b9</title>
<path fill="none" stroke="black" d="M114.1,-287.7C110,-279.73 105.05,-270.1 100.51,-261.26"/>
<polygon fill="black" stroke="black" points="103.48,-259.4 95.8,-252.1 97.26,-262.6 103.48,-259.4"/>
<g id="a_edge7&#45;headlabel"><a xlink:href="dir_000227_000050.html" target="_top" xlink:title="1">
<text text-anchor="middle" x="107.65" y="-258.79" font-family="Helvetica,sans-Serif" font-size="10.00">1</text>
</a>
</g>
</g>
<!-- dir_84ef7c054b4edc3447cfba80cee80f65 -->
<g id="node4" class="node">
<title>dir_84ef7c054b4edc3447cfba80cee80f65</title>
<g id="a_node4"><a xlink:href="dir_84ef7c054b4edc3447cfba80cee80f65.html" target="_top" xlink:title="IR">
<polygon fill="none" stroke="black" points="152,-180 98,-180 98,-144 152,-144 152,-180"/>
<text text-anchor="middle" x="125" y="-159.5" font-family="Helvetica,sans-Serif" font-size="10.00">IR</text>
</a>
</g>
</g>
<!-- dir_7cc557358882d820e11ccdb06468711a&#45;&gt;dir_84ef7c054b4edc3447cfba80cee80f65 -->
<g id="edge8" class="edge">
<title>dir_7cc557358882d820e11ccdb06468711a&#45;&gt;dir_84ef7c054b4edc3447cfba80cee80f65</title>
<path fill="none" stroke="black" d="M124.62,-287.83C125.52,-277.47 126.55,-263.99 127,-252 127.78,-231.28 127.19,-207.84 126.46,-190.21"/>
<polygon fill="black" stroke="black" points="129.95,-189.9 125.99,-180.07 122.96,-190.22 129.95,-189.9"/>
<g id="a_edge8&#45;headlabel"><a xlink:href="dir_000227_000046.html" target="_top" xlink:title="7">
<text text-anchor="middle" x="132.95" y="-190.86" font-family="Helvetica,sans-Serif" font-size="10.00">7</text>
</a>
</g>
</g>
<!-- dir_cf63c3ddb21c79ef735682489f4c6a69 -->
<g id="node5" class="node">
<title>dir_cf63c3ddb21c79ef735682489f4c6a69</title>
<g id="a_node5"><a xlink:href="dir_cf63c3ddb21c79ef735682489f4c6a69.html" target="_top" xlink:title="Interfaces">
<polygon fill="none" stroke="red" points="199.5,-108 134.5,-108 134.5,-72 199.5,-72 199.5,-108"/>
<text text-anchor="middle" x="167" y="-87.5" font-family="Helvetica,sans-Serif" font-size="10.00">Interfaces</text>
</a>
</g>
</g>
<!-- dir_7cc557358882d820e11ccdb06468711a&#45;&gt;dir_cf63c3ddb21c79ef735682489f4c6a69 -->
<g id="edge9" class="edge">
<title>dir_7cc557358882d820e11ccdb06468711a&#45;&gt;dir_cf63c3ddb21c79ef735682489f4c6a69</title>
<path fill="none" stroke="black" d="M129.54,-287.94C133.39,-277.61 138.23,-264.14 142,-252 151.82,-220.39 155.64,-212.66 161,-180 164.36,-159.5 165.85,-136.04 166.5,-118.36"/>
<polygon fill="black" stroke="black" points="170.01,-118.27 166.81,-108.17 163.01,-118.06 170.01,-118.27"/>
<g id="a_edge9&#45;headlabel"><a xlink:href="dir_000227_000279.html" target="_top" xlink:title="2">
<text text-anchor="middle" x="172.74" y="-119.45" font-family="Helvetica,sans-Serif" font-size="10.00">2</text>
</a>
</g>
</g>
<!-- dir_51020c1b0909ae629a35fe1c65c620b9&#45;&gt;dir_84ef7c054b4edc3447cfba80cee80f65 -->
<g id="edge4" class="edge">
<title>dir_51020c1b0909ae629a35fe1c65c620b9&#45;&gt;dir_84ef7c054b4edc3447cfba80cee80f65</title>
<path fill="none" stroke="black" d="M90.48,-215.7C94.06,-207.56 99.21,-197.69 104.51,-188.7"/>
<polygon fill="black" stroke="black" points="107.55,-190.45 109.82,-180.1 101.59,-186.78 107.55,-190.45"/>
<g id="a_edge4&#45;headlabel"><a xlink:href="dir_000050_000046.html" target="_top" xlink:title="9">
<text text-anchor="middle" x="108.07" y="-192.5" font-family="Helvetica,sans-Serif" font-size="10.00">9</text>
</a>
</g>
</g>
<!-- dir_51020c1b0909ae629a35fe1c65c620b9&#45;&gt;dir_f61d47671007dfdb592580b61f960d39 -->
<g id="edge5" class="edge">
<title>dir_51020c1b0909ae629a35fe1c65c620b9&#45;&gt;dir_f61d47671007dfdb592580b61f960d39</title>
<path fill="none" stroke="black" d="M87,-215.85C87,-178.83 87,-91.18 87,-46.39"/>
<polygon fill="black" stroke="black" points="90.5,-46.23 87,-36.23 83.5,-46.23 90.5,-46.23"/>
<g id="a_edge5&#45;headlabel"><a xlink:href="dir_000050_000288.html" target="_top" xlink:title="2">
<text text-anchor="middle" x="93.34" y="-47.33" font-family="Helvetica,sans-Serif" font-size="10.00">2</text>
</a>
</g>
</g>
<!-- dir_84ef7c054b4edc3447cfba80cee80f65&#45;&gt;dir_51020c1b0909ae629a35fe1c65c620b9 -->
<g id="edge1" class="edge">
<title>dir_84ef7c054b4edc3447cfba80cee80f65&#45;&gt;dir_51020c1b0909ae629a35fe1c65c620b9</title>
<path fill="none" stroke="black" d="M121.61,-180.1C118.06,-188.21 112.92,-198.08 107.62,-207.08"/>
<polygon fill="black" stroke="black" points="104.57,-205.35 102.31,-215.7 110.53,-209.02 104.57,-205.35"/>
<g id="a_edge1&#45;headlabel"><a xlink:href="dir_000046_000050.html" target="_top" xlink:title="2">
<text text-anchor="middle" x="104.04" y="-198.3" font-family="Helvetica,sans-Serif" font-size="10.00">2</text>
</a>
</g>
</g>
<!-- dir_84ef7c054b4edc3447cfba80cee80f65&#45;&gt;dir_cf63c3ddb21c79ef735682489f4c6a69 -->
<g id="edge2" class="edge">
<title>dir_84ef7c054b4edc3447cfba80cee80f65&#45;&gt;dir_cf63c3ddb21c79ef735682489f4c6a69</title>
<path fill="none" stroke="black" d="M129.47,-143.7C133.55,-135.47 139.34,-125.48 145.23,-116.42"/>
<polygon fill="black" stroke="black" points="148.15,-118.35 150.84,-108.1 142.35,-114.43 148.15,-118.35"/>
<g id="a_edge2&#45;headlabel"><a xlink:href="dir_000046_000279.html" target="_top" xlink:title="3">
<text text-anchor="middle" x="148.49" y="-120.42" font-family="Helvetica,sans-Serif" font-size="10.00">3</text>
</a>
</g>
</g>
<!-- dir_84ef7c054b4edc3447cfba80cee80f65&#45;&gt;dir_f61d47671007dfdb592580b61f960d39 -->
<g id="edge3" class="edge">
<title>dir_84ef7c054b4edc3447cfba80cee80f65&#45;&gt;dir_f61d47671007dfdb592580b61f960d39</title>
<path fill="none" stroke="black" d="M120.42,-143.87C113.91,-119.56 101.94,-74.82 94.23,-46.01"/>
<polygon fill="black" stroke="black" points="97.57,-44.94 91.6,-36.19 90.8,-46.75 97.57,-44.94"/>
<g id="a_edge3&#45;headlabel"><a xlink:href="dir_000046_000288.html" target="_top" xlink:title="23">
<text text-anchor="middle" x="101.24" y="-45.18" font-family="Helvetica,sans-Serif" font-size="10.00">23</text>
</a>
</g>
</g>
<!-- dir_cf63c3ddb21c79ef735682489f4c6a69&#45;&gt;dir_84ef7c054b4edc3447cfba80cee80f65 -->
<g id="edge10" class="edge">
<title>dir_cf63c3ddb21c79ef735682489f4c6a69&#45;&gt;dir_84ef7c054b4edc3447cfba80cee80f65</title>
<path fill="none" stroke="black" d="M162.63,-108.1C158.57,-116.3 152.8,-126.28 146.92,-135.36"/>
<polygon fill="black" stroke="black" points="143.98,-133.45 141.3,-143.7 149.79,-137.36 143.98,-133.45"/>
<g id="a_edge10&#45;headlabel"><a xlink:href="dir_000279_000046.html" target="_top" xlink:title="54">
<text text-anchor="middle" x="143.64" y="-126.38" font-family="Helvetica,sans-Serif" font-size="10.00">54</text>
</a>
</g>
</g>
<!-- dir_cf63c3ddb21c79ef735682489f4c6a69&#45;&gt;dir_f61d47671007dfdb592580b61f960d39 -->
<g id="edge11" class="edge">
<title>dir_cf63c3ddb21c79ef735682489f4c6a69&#45;&gt;dir_f61d47671007dfdb592580b61f960d39</title>
<path fill="none" stroke="black" d="M147.22,-71.7C137.25,-62.97 124.99,-52.24 114.14,-42.75"/>
<polygon fill="black" stroke="black" points="116.38,-40.06 106.55,-36.1 111.77,-45.32 116.38,-40.06"/>
<g id="a_edge11&#45;headlabel"><a xlink:href="dir_000279_000288.html" target="_top" xlink:title="2">
<text text-anchor="middle" x="120.95" y="-37.79" font-family="Helvetica,sans-Serif" font-size="10.00">2</text>
</a>
</g>
</g>
</g>
</svg>
