<?xml version="1.0" encoding="UTF-8" standalone="no"?>
<!DOCTYPE svg PUBLIC "-//W3C//DTD SVG 1.1//EN"
 "http://www.w3.org/Graphics/SVG/1.1/DTD/svg11.dtd">
<!-- Generated by graphviz version 2.43.0 (0)
 -->
<!-- Title: include/mlir/Dialect/Shard/Transforms Pages: 1 -->
<svg width="263pt" height="367pt"
 viewBox="0.00 0.00 263.00 367.00" xmlns="http://www.w3.org/2000/svg" xmlns:xlink="http://www.w3.org/1999/xlink">
<g id="graph0" class="graph" transform="scale(1 1) rotate(0) translate(4 363)">
<title>include/mlir/Dialect/Shard/Transforms</title>
<g id="clust1" class="cluster">
<title>clusterdir_cb1a1b8070a3a3379167d0bf1fa352c5</title>
<g id="a_clust1"><a xlink:href="dir_cb1a1b8070a3a3379167d0bf1fa352c5.html" target="_top" xlink:title="Shard">
<polygon fill="#ddddee" stroke="black" points="8,-208 8,-351 96,-351 96,-208 8,-208"/>
<text text-anchor="middle" x="52" y="-339" font-family="Helvetica,sans-Serif" font-size="10.00">Shard</text>
</a>
</g>
</g>
<!-- dir_b03211178805fe656d23736d74b0fac6 -->
<g id="node1" class="node">
<title>dir_b03211178805fe656d23736d74b0fac6</title>
<g id="a_node1"><a xlink:href="dir_b03211178805fe656d23736d74b0fac6.html" target="_top" xlink:title="IR">
<polygon fill="none" stroke="black" points="70,-252 16,-252 16,-216 70,-216 70,-252"/>
<text text-anchor="middle" x="43" y="-231.5" font-family="Helvetica,sans-Serif" font-size="10.00">IR</text>
</a>
</g>
</g>
<!-- dir_84ef7c054b4edc3447cfba80cee80f65 -->
<g id="node3" class="node">
<title>dir_84ef7c054b4edc3447cfba80cee80f65</title>
<g id="a_node3"><a xlink:href="dir_84ef7c054b4edc3447cfba80cee80f65.html" target="_top" xlink:title="IR">
<polygon fill="none" stroke="black" points="145,-108 91,-108 91,-72 145,-72 145,-108"/>
<text text-anchor="middle" x="118" y="-87.5" font-family="Helvetica,sans-Serif" font-size="10.00">IR</text>
</a>
</g>
</g>
<!-- dir_b03211178805fe656d23736d74b0fac6&#45;&gt;dir_84ef7c054b4edc3447cfba80cee80f65 -->
<g id="edge1" class="edge">
<title>dir_b03211178805fe656d23736d74b0fac6&#45;&gt;dir_84ef7c054b4edc3447cfba80cee80f65</title>
<path fill="none" stroke="black" d="M49.73,-215.88C57.11,-197.66 69.69,-168.19 83,-144 88.05,-134.82 94.17,-125.16 99.87,-116.63"/>
<polygon fill="black" stroke="black" points="102.86,-118.46 105.6,-108.23 97.08,-114.52 102.86,-118.46"/>
<g id="a_edge1&#45;headlabel"><a xlink:href="dir_000252_000046.html" target="_top" xlink:title="5">
<text text-anchor="middle" x="103.18" y="-120.53" font-family="Helvetica,sans-Serif" font-size="10.00">5</text>
</a>
</g>
</g>
<!-- dir_73550841bfdde0b46e83068adc541f24 -->
<g id="node2" class="node">
<title>dir_73550841bfdde0b46e83068adc541f24</title>
<g id="a_node2"><a xlink:href="dir_73550841bfdde0b46e83068adc541f24.html" target="_top" xlink:title="Transforms">
<polygon fill="#eeeeff" stroke="black" points="87.5,-324 16.5,-324 16.5,-288 87.5,-288 87.5,-324"/>
<text text-anchor="middle" x="52" y="-303.5" font-family="Helvetica,sans-Serif" font-size="10.00">Transforms</text>
</a>
</g>
</g>
<!-- dir_73550841bfdde0b46e83068adc541f24&#45;&gt;dir_b03211178805fe656d23736d74b0fac6 -->
<g id="edge4" class="edge">
<title>dir_73550841bfdde0b46e83068adc541f24&#45;&gt;dir_b03211178805fe656d23736d74b0fac6</title>
<path fill="none" stroke="black" d="M49.78,-287.7C48.78,-279.98 47.59,-270.71 46.49,-262.11"/>
<polygon fill="black" stroke="black" points="49.95,-261.58 45.2,-252.1 43,-262.47 49.95,-261.58"/>
<g id="a_edge4&#45;headlabel"><a xlink:href="dir_000141_000252.html" target="_top" xlink:title="3">
<text text-anchor="middle" x="53.22" y="-262.28" font-family="Helvetica,sans-Serif" font-size="10.00">3</text>
</a>
</g>
</g>
<!-- dir_73550841bfdde0b46e83068adc541f24&#45;&gt;dir_84ef7c054b4edc3447cfba80cee80f65 -->
<g id="edge3" class="edge">
<title>dir_73550841bfdde0b46e83068adc541f24&#45;&gt;dir_84ef7c054b4edc3447cfba80cee80f65</title>
<path fill="none" stroke="black" d="M62.06,-287.8C67.66,-277.65 74.41,-264.4 79,-252 95.86,-206.44 107.45,-150.91 113.38,-118.41"/>
<polygon fill="black" stroke="black" points="116.87,-118.77 115.18,-108.31 109.98,-117.54 116.87,-118.77"/>
<g id="a_edge3&#45;headlabel"><a xlink:href="dir_000141_000046.html" target="_top" xlink:title="4">
<text text-anchor="middle" x="119.04" y="-120.31" font-family="Helvetica,sans-Serif" font-size="10.00">4</text>
</a>
</g>
</g>
<!-- dir_ca4d1f3bc4cd42ba07a57ca86d19a1d6 -->
<g id="node4" class="node">
<title>dir_ca4d1f3bc4cd42ba07a57ca86d19a1d6</title>
<g id="a_node4"><a xlink:href="dir_ca4d1f3bc4cd42ba07a57ca86d19a1d6.html" target="_top" xlink:title="Transforms">
<polygon fill="none" stroke="black" points="198.5,-252 127.5,-252 127.5,-216 198.5,-216 198.5,-252"/>
<text text-anchor="middle" x="163" y="-231.5" font-family="Helvetica,sans-Serif" font-size="10.00">Transforms</text>
</a>
</g>
</g>
<!-- dir_73550841bfdde0b46e83068adc541f24&#45;&gt;dir_ca4d1f3bc4cd42ba07a57ca86d19a1d6 -->
<g id="edge5" class="edge">
<title>dir_73550841bfdde0b46e83068adc541f24&#45;&gt;dir_ca4d1f3bc4cd42ba07a57ca86d19a1d6</title>
<path fill="none" stroke="black" d="M79.15,-287.88C93.53,-278.81 111.38,-267.55 126.91,-257.76"/>
<polygon fill="black" stroke="black" points="129.15,-260.48 135.74,-252.19 125.42,-254.56 129.15,-260.48"/>
<g id="a_edge5&#45;headlabel"><a xlink:href="dir_000141_000156.html" target="_top" xlink:title="1">
<text text-anchor="middle" x="127.62" y="-262.3" font-family="Helvetica,sans-Serif" font-size="10.00">1</text>
</a>
</g>
</g>
<!-- dir_cab9f8330899b1cc9d753b1d9c5c5a3e -->
<g id="node5" class="node">
<title>dir_cab9f8330899b1cc9d753b1d9c5c5a3e</title>
<g id="a_node5"><a xlink:href="dir_cab9f8330899b1cc9d753b1d9c5c5a3e.html" target="_top" xlink:title="Pass">
<polygon fill="none" stroke="black" points="255,-180 201,-180 201,-144 255,-144 255,-180"/>
<text text-anchor="middle" x="228" y="-159.5" font-family="Helvetica,sans-Serif" font-size="10.00">Pass</text>
</a>
</g>
</g>
<!-- dir_73550841bfdde0b46e83068adc541f24&#45;&gt;dir_cab9f8330899b1cc9d753b1d9c5c5a3e -->
<g id="edge6" class="edge">
<title>dir_73550841bfdde0b46e83068adc541f24&#45;&gt;dir_cab9f8330899b1cc9d753b1d9c5c5a3e</title>
<path fill="none" stroke="black" d="M87.79,-302.67C123.45,-298.38 177.22,-286.25 208,-252 223.01,-235.3 227.53,-209.81 228.57,-190.38"/>
<polygon fill="black" stroke="black" points="232.07,-190.39 228.84,-180.31 225.08,-190.21 232.07,-190.39"/>
<g id="a_edge6&#45;headlabel"><a xlink:href="dir_000141_000053.html" target="_top" xlink:title="1">
<text text-anchor="middle" x="234.82" y="-191.56" font-family="Helvetica,sans-Serif" font-size="10.00">1</text>
</a>
</g>
</g>
<!-- dir_f61d47671007dfdb592580b61f960d39 -->
<g id="node6" class="node">
<title>dir_f61d47671007dfdb592580b61f960d39</title>
<g id="a_node6"><a xlink:href="dir_f61d47671007dfdb592580b61f960d39.html" target="_top" xlink:title="Support">
<polygon fill="none" stroke="black" points="172,-36 118,-36 118,0 172,0 172,-36"/>
<text text-anchor="middle" x="145" y="-15.5" font-family="Helvetica,sans-Serif" font-size="10.00">Support</text>
</a>
</g>
</g>
<!-- dir_73550841bfdde0b46e83068adc541f24&#45;&gt;dir_f61d47671007dfdb592580b61f960d39 -->
<g id="edge7" class="edge">
<title>dir_73550841bfdde0b46e83068adc541f24&#45;&gt;dir_f61d47671007dfdb592580b61f960d39</title>
<path fill="none" stroke="black" d="M31.62,-287.53C22.19,-278.09 11.99,-265.6 7,-252 0.26,-233.64 2.12,-226.94 7,-208 24.21,-141.15 38.19,-125.34 82,-72 90.89,-61.17 102.21,-50.87 112.79,-42.27"/>
<polygon fill="black" stroke="black" points="115,-44.99 120.69,-36.05 110.67,-39.49 115,-44.99"/>
<g id="a_edge7&#45;headlabel"><a xlink:href="dir_000141_000288.html" target="_top" xlink:title="1">
<text text-anchor="middle" x="113.93" y="-46.94" font-family="Helvetica,sans-Serif" font-size="10.00">1</text>
</a>
</g>
</g>
<!-- dir_84ef7c054b4edc3447cfba80cee80f65&#45;&gt;dir_f61d47671007dfdb592580b61f960d39 -->
<g id="edge2" class="edge">
<title>dir_84ef7c054b4edc3447cfba80cee80f65&#45;&gt;dir_f61d47671007dfdb592580b61f960d39</title>
<path fill="none" stroke="black" d="M124.67,-71.7C127.71,-63.81 131.38,-54.3 134.76,-45.55"/>
<polygon fill="black" stroke="black" points="138.07,-46.69 138.4,-36.1 131.54,-44.17 138.07,-46.69"/>
<g id="a_edge2&#45;headlabel"><a xlink:href="dir_000046_000288.html" target="_top" xlink:title="23">
<text text-anchor="middle" x="139.42" y="-48.57" font-family="Helvetica,sans-Serif" font-size="10.00">23</text>
</a>
</g>
</g>
<!-- dir_ca4d1f3bc4cd42ba07a57ca86d19a1d6&#45;&gt;dir_84ef7c054b4edc3447cfba80cee80f65 -->
<g id="edge8" class="edge">
<title>dir_ca4d1f3bc4cd42ba07a57ca86d19a1d6&#45;&gt;dir_84ef7c054b4edc3447cfba80cee80f65</title>
<path fill="none" stroke="black" d="M157.57,-215.87C149.87,-191.56 135.69,-146.82 126.56,-118.01"/>
<polygon fill="black" stroke="black" points="129.8,-116.66 123.45,-108.19 123.13,-118.78 129.8,-116.66"/>
<g id="a_edge8&#45;headlabel"><a xlink:href="dir_000156_000046.html" target="_top" xlink:title="19">
<text text-anchor="middle" x="133.6" y="-116.73" font-family="Helvetica,sans-Serif" font-size="10.00">19</text>
</a>
</g>
</g>
<!-- dir_ca4d1f3bc4cd42ba07a57ca86d19a1d6&#45;&gt;dir_cab9f8330899b1cc9d753b1d9c5c5a3e -->
<g id="edge9" class="edge">
<title>dir_ca4d1f3bc4cd42ba07a57ca86d19a1d6&#45;&gt;dir_cab9f8330899b1cc9d753b1d9c5c5a3e</title>
<path fill="none" stroke="black" d="M179.07,-215.7C186.94,-207.22 196.56,-196.86 205.17,-187.58"/>
<polygon fill="black" stroke="black" points="207.88,-189.81 212.12,-180.1 202.75,-185.05 207.88,-189.81"/>
<g id="a_edge9&#45;headlabel"><a xlink:href="dir_000156_000053.html" target="_top" xlink:title="4">
<text text-anchor="middle" x="207.51" y="-191.88" font-family="Helvetica,sans-Serif" font-size="10.00">4</text>
</a>
</g>
</g>
<!-- dir_ca4d1f3bc4cd42ba07a57ca86d19a1d6&#45;&gt;dir_f61d47671007dfdb592580b61f960d39 -->
<g id="edge10" class="edge">
<title>dir_ca4d1f3bc4cd42ba07a57ca86d19a1d6&#45;&gt;dir_f61d47671007dfdb592580b61f960d39</title>
<path fill="none" stroke="black" d="M162.67,-215.55C161.96,-185.95 159.85,-124.02 154,-72 153.05,-63.52 151.63,-54.34 150.19,-46.04"/>
<polygon fill="black" stroke="black" points="153.62,-45.34 148.41,-36.12 146.74,-46.58 153.62,-45.34"/>
<g id="a_edge10&#45;headlabel"><a xlink:href="dir_000156_000288.html" target="_top" xlink:title="6">
<text text-anchor="middle" x="157.06" y="-45.87" font-family="Helvetica,sans-Serif" font-size="10.00">6</text>
</a>
</g>
</g>
<!-- dir_cab9f8330899b1cc9d753b1d9c5c5a3e&#45;&gt;dir_84ef7c054b4edc3447cfba80cee80f65 -->
<g id="edge11" class="edge">
<title>dir_cab9f8330899b1cc9d753b1d9c5c5a3e&#45;&gt;dir_84ef7c054b4edc3447cfba80cee80f65</title>
<path fill="none" stroke="black" d="M201.09,-143.88C186.84,-134.81 169.15,-123.55 153.76,-113.76"/>
<polygon fill="black" stroke="black" points="155.33,-110.61 145.01,-108.19 151.57,-116.51 155.33,-110.61"/>
<g id="a_edge11&#45;headlabel"><a xlink:href="dir_000053_000046.html" target="_top" xlink:title="4">
<text text-anchor="middle" x="159.89" y="-107.64" font-family="Helvetica,sans-Serif" font-size="10.00">4</text>
</a>
</g>
</g>
<!-- dir_cab9f8330899b1cc9d753b1d9c5c5a3e&#45;&gt;dir_f61d47671007dfdb592580b61f960d39 -->
<g id="edge12" class="edge">
<title>dir_cab9f8330899b1cc9d753b1d9c5c5a3e&#45;&gt;dir_f61d47671007dfdb592580b61f960d39</title>
<path fill="none" stroke="black" d="M221.58,-143.99C214.32,-125.61 201.6,-95.77 187,-72 181.13,-62.45 173.8,-52.65 166.91,-44.11"/>
<polygon fill="black" stroke="black" points="169.57,-41.84 160.5,-36.37 164.18,-46.31 169.57,-41.84"/>
<g id="a_edge12&#45;headlabel"><a xlink:href="dir_000053_000288.html" target="_top" xlink:title="6">
<text text-anchor="middle" x="174.05" y="-40.3" font-family="Helvetica,sans-Serif" font-size="10.00">6</text>
</a>
</g>
</g>
</g>
</svg>
