<?xml version="1.0" encoding="UTF-8" standalone="no"?>
<!DOCTYPE svg PUBLIC "-//W3C//DTD SVG 1.1//EN"
 "http://www.w3.org/Graphics/SVG/1.1/DTD/svg11.dtd">
<!-- Generated by graphviz version 2.43.0 (0)
 -->
<!-- Title: include/mlir/Dialect/X86 Pages: 1 -->
<svg width="606pt" height="141pt"
 viewBox="0.00 0.00 605.50 141.00" xmlns="http://www.w3.org/2000/svg" xmlns:xlink="http://www.w3.org/1999/xlink">
<g id="graph0" class="graph" transform="scale(1 1) rotate(0) translate(4 137)">
<title>include/mlir/Dialect/X86</title>
<g id="clust1" class="cluster">
<title>clusterdir_d07a6fac82475a065a3b2953573f00a0</title>
<g id="a_clust1"><a xlink:href="dir_d07a6fac82475a065a3b2953573f00a0.html" target="_top" xlink:title="Dialect">
<polygon fill="#edf0f7" stroke="#7f7f7f" stroke-dasharray="5,2" points="8,-8 8,-125 235,-125 235,-8 8,-8"/>
<text text-anchor="middle" x="121.5" y="-113" font-family="Helvetica,sans-Serif" font-size="10.00">Dialect</text>
</a>
</g>
</g>
<g id="clust2" class="cluster">
<title>clusterdir_0ad2eb2ac4a8f550a4e62a01297a714b</title>
<g id="a_clust2"><a xlink:href="dir_0ad2eb2ac4a8f550a4e62a01297a714b.html" target="_top">
<polygon fill="#edf0f7" stroke="#404040" stroke-width="2" points="16,-63 16,-98 227,-98 227,-63 16,-63"/>
</a>
</g>
</g>
<!-- dir_832fe9af74a05d9f4772b8e442bafd02 -->
<g id="node1" class="node">
<title>dir_832fe9af74a05d9f4772b8e442bafd02</title>
<g id="a_node1"><a xlink:href="dir_832fe9af74a05d9f4772b8e442bafd02.html" target="_top" xlink:title="Transform">
<polygon fill="#a2b4d6" stroke="red" points="89.5,-35 24.5,-35 24.5,-16 89.5,-16 89.5,-35"/>
<text text-anchor="middle" x="57" y="-23" font-family="Helvetica,sans-Serif" font-size="10.00">Transform</text>
</a>
</g>
</g>
<!-- dir_8363a04659a248511e559fc4df76a233 -->
<g id="node2" class="node">
<title>dir_8363a04659a248511e559fc4df76a233</title>
<g id="a_node2"><a xlink:href="dir_8363a04659a248511e559fc4df76a233.html" target="_top" xlink:title="LLVMIR">
<polygon fill="#a2b4d6" stroke="red" points="225,-35 173,-35 173,-16 225,-16 225,-35"/>
<text text-anchor="middle" x="199" y="-23" font-family="Helvetica,sans-Serif" font-size="10.00">LLVMIR</text>
</a>
</g>
</g>
<!-- dir_bfd3493254b3df47293537524626123b -->
<g id="node3" class="node">
<title>dir_bfd3493254b3df47293537524626123b</title>
<g id="a_node3"><a xlink:href="dir_bfd3493254b3df47293537524626123b.html" target="_top" xlink:title="Vector">
<polygon fill="#a2b4d6" stroke="red" points="154.5,-35 107.5,-35 107.5,-16 154.5,-16 154.5,-35"/>
<text text-anchor="middle" x="131" y="-23" font-family="Helvetica,sans-Serif" font-size="10.00">Vector</text>
</a>
</g>
</g>
<!-- dir_0ad2eb2ac4a8f550a4e62a01297a714b -->
<g id="node4" class="node">
<title>dir_0ad2eb2ac4a8f550a4e62a01297a714b</title>
<text text-anchor="middle" x="201" y="-78" font-family="Helvetica,sans-Serif" font-size="10.00">X86</text>
</g>
<!-- dir_0ad2eb2ac4a8f550a4e62a01297a714b&#45;&gt;dir_8363a04659a248511e559fc4df76a233 -->
<g id="edge3" class="edge">
<title>dir_0ad2eb2ac4a8f550a4e62a01297a714b&#45;&gt;dir_8363a04659a248511e559fc4df76a233</title>
<g id="a_edge3"><a xlink:href="dir_000686_000282.html" target="_top">
<path fill="none" stroke="#63b8ff" d="M200.67,-70.75C200.41,-63.8 200.03,-53.85 199.7,-45.13"/>
<polygon fill="#63b8ff" stroke="#63b8ff" points="203.2,-44.95 199.32,-35.09 196.2,-45.21 203.2,-44.95"/>
</a>
</g>
<g id="a_edge3&#45;headlabel"><a xlink:href="dir_000686_000282.html" target="_top" xlink:title="1">
<text text-anchor="middle" x="206.17" y="-45.93" font-family="Helvetica,sans-Serif" font-size="10.00" fill="#63b8ff">1</text>
</a>
</g>
</g>
<!-- dir_37f3372f1e76d74ffd54613af9306e43 -->
<g id="node7" class="node">
<title>dir_37f3372f1e76d74ffd54613af9306e43</title>
<g id="a_node7"><a xlink:href="dir_37f3372f1e76d74ffd54613af9306e43.html" target="_top" xlink:title="Conversion">
<polygon fill="#edf0f7" stroke="red" stroke-dasharray="5,2" points="597.5,-35 526.5,-35 526.5,-16 597.5,-16 597.5,-35"/>
<text text-anchor="middle" x="562" y="-23" font-family="Helvetica,sans-Serif" font-size="10.00">Conversion</text>
</a>
</g>
</g>
<!-- dir_0ad2eb2ac4a8f550a4e62a01297a714b&#45;&gt;dir_37f3372f1e76d74ffd54613af9306e43 -->
<g id="edge1" class="edge">
<title>dir_0ad2eb2ac4a8f550a4e62a01297a714b&#45;&gt;dir_37f3372f1e76d74ffd54613af9306e43</title>
<g id="a_edge1"><a xlink:href="dir_000686_000100.html" target="_top">
<path fill="none" stroke="#63b8ff" d="M218.57,-77.35C265.32,-71.58 396.79,-54.9 516.43,-35.19"/>
<polygon fill="#63b8ff" stroke="#63b8ff" points="517.19,-38.61 526.49,-33.52 516.05,-31.71 517.19,-38.61"/>
</a>
</g>
<g id="a_edge1&#45;headlabel"><a xlink:href="dir_000686_000100.html" target="_top" xlink:title="1">
<text text-anchor="middle" x="514.11" y="-39.5" font-family="Helvetica,sans-Serif" font-size="10.00" fill="#63b8ff">1</text>
</a>
</g>
</g>
<!-- dir_51020c1b0909ae629a35fe1c65c620b9 -->
<g id="node8" class="node">
<title>dir_51020c1b0909ae629a35fe1c65c620b9</title>
<g id="a_node8"><a xlink:href="dir_51020c1b0909ae629a35fe1c65c620b9.html" target="_top" xlink:title="Bytecode">
<polygon fill="#edf0f7" stroke="#7f7f7f" points="425,-35 363,-35 363,-16 425,-16 425,-35"/>
<text text-anchor="middle" x="394" y="-23" font-family="Helvetica,sans-Serif" font-size="10.00">Bytecode</text>
</a>
</g>
</g>
<!-- dir_0ad2eb2ac4a8f550a4e62a01297a714b&#45;&gt;dir_51020c1b0909ae629a35fe1c65c620b9 -->
<g id="edge2" class="edge">
<title>dir_0ad2eb2ac4a8f550a4e62a01297a714b&#45;&gt;dir_51020c1b0909ae629a35fe1c65c620b9</title>
<g id="a_edge2"><a xlink:href="dir_000686_000072.html" target="_top">
<path fill="none" stroke="#63b8ff" d="M218.81,-74.61C249.16,-66.28 311.63,-49.12 353.17,-37.71"/>
<polygon fill="#63b8ff" stroke="#63b8ff" points="354.28,-41.04 362.99,-35.02 352.42,-34.29 354.28,-41.04"/>
</a>
</g>
<g id="a_edge2&#45;headlabel"><a xlink:href="dir_000686_000072.html" target="_top" xlink:title="1">
<text text-anchor="middle" x="351.56" y="-42.23" font-family="Helvetica,sans-Serif" font-size="10.00" fill="#63b8ff">1</text>
</a>
</g>
</g>
<!-- dir_84ef7c054b4edc3447cfba80cee80f65 -->
<g id="node9" class="node">
<title>dir_84ef7c054b4edc3447cfba80cee80f65</title>
<g id="a_node9"><a xlink:href="dir_84ef7c054b4edc3447cfba80cee80f65.html" target="_top" xlink:title="IR">
<polygon fill="#edf0f7" stroke="#7f7f7f" points="272.5,-35 243.5,-35 243.5,-16 272.5,-16 272.5,-35"/>
<text text-anchor="middle" x="258" y="-23" font-family="Helvetica,sans-Serif" font-size="10.00">IR</text>
</a>
</g>
</g>
<!-- dir_0ad2eb2ac4a8f550a4e62a01297a714b&#45;&gt;dir_84ef7c054b4edc3447cfba80cee80f65 -->
<g id="edge4" class="edge">
<title>dir_0ad2eb2ac4a8f550a4e62a01297a714b&#45;&gt;dir_84ef7c054b4edc3447cfba80cee80f65</title>
<g id="a_edge4"><a xlink:href="dir_000686_000220.html" target="_top">
<path fill="none" stroke="#63b8ff" d="M210.16,-70.98C218.5,-63.23 231.03,-51.58 241.18,-42.14"/>
<polygon fill="#63b8ff" stroke="#63b8ff" points="243.74,-44.54 248.68,-35.17 238.97,-39.42 243.74,-44.54"/>
</a>
</g>
<g id="a_edge4&#45;headlabel"><a xlink:href="dir_000686_000220.html" target="_top" xlink:title="9">
<text text-anchor="middle" x="243.04" y="-46.57" font-family="Helvetica,sans-Serif" font-size="10.00" fill="#63b8ff">9</text>
</a>
</g>
</g>
<!-- dir_cf63c3ddb21c79ef735682489f4c6a69 -->
<g id="node10" class="node">
<title>dir_cf63c3ddb21c79ef735682489f4c6a69</title>
<g id="a_node10"><a xlink:href="dir_cf63c3ddb21c79ef735682489f4c6a69.html" target="_top" xlink:title="Interfaces">
<polygon fill="#edf0f7" stroke="red" stroke-dasharray="5,2" points="508.5,-35 443.5,-35 443.5,-16 508.5,-16 508.5,-35"/>
<text text-anchor="middle" x="476" y="-23" font-family="Helvetica,sans-Serif" font-size="10.00">Interfaces</text>
</a>
</g>
</g>
<!-- dir_0ad2eb2ac4a8f550a4e62a01297a714b&#45;&gt;dir_cf63c3ddb21c79ef735682489f4c6a69 -->
<g id="edge5" class="edge">
<title>dir_0ad2eb2ac4a8f550a4e62a01297a714b&#45;&gt;dir_cf63c3ddb21c79ef735682489f4c6a69</title>
<g id="a_edge5"><a xlink:href="dir_000686_000175.html" target="_top">
<path fill="none" stroke="#63b8ff" d="M218.55,-76.22C255.96,-69.2 346.53,-52.15 433.42,-35.1"/>
<polygon fill="#63b8ff" stroke="#63b8ff" points="434.31,-38.49 443.45,-33.12 432.96,-31.62 434.31,-38.49"/>
</a>
</g>
<g id="a_edge5&#45;headlabel"><a xlink:href="dir_000686_000175.html" target="_top" xlink:title="2">
<text text-anchor="middle" x="431.33" y="-39.47" font-family="Helvetica,sans-Serif" font-size="10.00" fill="#63b8ff">2</text>
</a>
</g>
</g>
<!-- dir_95dfc1938901957e10b83fe308a93990 -->
<g id="node5" class="node">
<title>dir_95dfc1938901957e10b83fe308a93990</title>
<g id="a_node5"><a xlink:href="dir_95dfc1938901957e10b83fe308a93990.html" target="_top" xlink:title="TransformOps">
<polygon fill="#a2b4d6" stroke="#404040" points="108,-90 24,-90 24,-71 108,-71 108,-90"/>
<text text-anchor="middle" x="66" y="-78" font-family="Helvetica,sans-Serif" font-size="10.00">TransformOps</text>
</a>
</g>
</g>
<!-- dir_95dfc1938901957e10b83fe308a93990&#45;&gt;dir_832fe9af74a05d9f4772b8e442bafd02 -->
<g id="edge6" class="edge">
<title>dir_95dfc1938901957e10b83fe308a93990&#45;&gt;dir_832fe9af74a05d9f4772b8e442bafd02</title>
<g id="a_edge6"><a xlink:href="dir_000523_000507.html" target="_top">
<path fill="none" stroke="#63b8ff" d="M64.51,-70.75C63.33,-63.8 61.64,-53.85 60.16,-45.13"/>
<polygon fill="#63b8ff" stroke="#63b8ff" points="63.58,-44.36 58.46,-35.09 56.68,-45.53 63.58,-44.36"/>
</a>
</g>
<g id="a_edge6&#45;headlabel"><a xlink:href="dir_000523_000507.html" target="_top" xlink:title="1">
<text text-anchor="middle" x="66.98" y="-44.93" font-family="Helvetica,sans-Serif" font-size="10.00" fill="#63b8ff">1</text>
</a>
</g>
</g>
<!-- dir_95dfc1938901957e10b83fe308a93990&#45;&gt;dir_84ef7c054b4edc3447cfba80cee80f65 -->
<g id="edge7" class="edge">
<title>dir_95dfc1938901957e10b83fe308a93990&#45;&gt;dir_84ef7c054b4edc3447cfba80cee80f65</title>
<g id="a_edge7"><a xlink:href="dir_000523_000220.html" target="_top">
<path fill="none" stroke="#63b8ff" d="M91.03,-70.92C99.26,-68.23 108.48,-65.35 117,-63 167.49,-49.07 184.29,-52.21 233.58,-36.6"/>
<polygon fill="#63b8ff" stroke="#63b8ff" points="234.76,-39.9 243.17,-33.46 232.58,-33.25 234.76,-39.9"/>
</a>
</g>
<g id="a_edge7&#45;headlabel"><a xlink:href="dir_000523_000220.html" target="_top" xlink:title="1">
<text text-anchor="middle" x="232.23" y="-41.21" font-family="Helvetica,sans-Serif" font-size="10.00" fill="#63b8ff">1</text>
</a>
</g>
</g>
<!-- dir_dd41d464988943d96a40e5d0822f6606 -->
<g id="node6" class="node">
<title>dir_dd41d464988943d96a40e5d0822f6606</title>
<g id="a_node6"><a xlink:href="dir_dd41d464988943d96a40e5d0822f6606.html" target="_top" xlink:title="Utils">
<polygon fill="#a2b4d6" stroke="#404040" points="165.5,-90 126.5,-90 126.5,-71 165.5,-71 165.5,-90"/>
<text text-anchor="middle" x="146" y="-78" font-family="Helvetica,sans-Serif" font-size="10.00">Utils</text>
</a>
</g>
</g>
<!-- dir_dd41d464988943d96a40e5d0822f6606&#45;&gt;dir_bfd3493254b3df47293537524626123b -->
<g id="edge9" class="edge">
<title>dir_dd41d464988943d96a40e5d0822f6606&#45;&gt;dir_bfd3493254b3df47293537524626123b</title>
<g id="a_edge9"><a xlink:href="dir_000636_000665.html" target="_top">
<path fill="none" stroke="#63b8ff" d="M143.52,-70.75C141.54,-63.72 138.68,-53.62 136.19,-44.84"/>
<polygon fill="#63b8ff" stroke="#63b8ff" points="139.52,-43.76 133.43,-35.09 132.79,-45.66 139.52,-43.76"/>
</a>
</g>
<g id="a_edge9&#45;headlabel"><a xlink:href="dir_000636_000665.html" target="_top" xlink:title="1">
<text text-anchor="middle" x="143.23" y="-43.94" font-family="Helvetica,sans-Serif" font-size="10.00" fill="#63b8ff">1</text>
</a>
</g>
</g>
<!-- dir_dd41d464988943d96a40e5d0822f6606&#45;&gt;dir_84ef7c054b4edc3447cfba80cee80f65 -->
<g id="edge8" class="edge">
<title>dir_dd41d464988943d96a40e5d0822f6606&#45;&gt;dir_84ef7c054b4edc3447cfba80cee80f65</title>
<g id="a_edge8"><a xlink:href="dir_000636_000220.html" target="_top">
<path fill="none" stroke="#63b8ff" d="M160.29,-70.97C164.93,-68.31 170.13,-65.44 175,-63 199.93,-50.5 208.81,-48 234.19,-37.07"/>
<polygon fill="#63b8ff" stroke="#63b8ff" points="235.72,-40.22 243.48,-33.01 232.92,-33.8 235.72,-40.22"/>
</a>
</g>
<g id="a_edge8&#45;headlabel"><a xlink:href="dir_000636_000220.html" target="_top" xlink:title="2">
<text text-anchor="middle" x="233.56" y="-41.76" font-family="Helvetica,sans-Serif" font-size="10.00" fill="#63b8ff">2</text>
</a>
</g>
</g>
<!-- dir_f61d47671007dfdb592580b61f960d39 -->
<g id="node11" class="node">
<title>dir_f61d47671007dfdb592580b61f960d39</title>
<g id="a_node11"><a xlink:href="dir_f61d47671007dfdb592580b61f960d39.html" target="_top" xlink:title="Support">
<polygon fill="#edf0f7" stroke="#7f7f7f" points="345,-35 291,-35 291,-16 345,-16 345,-35"/>
<text text-anchor="middle" x="318" y="-23" font-family="Helvetica,sans-Serif" font-size="10.00">Support</text>
</a>
</g>
</g>
<!-- dir_dd41d464988943d96a40e5d0822f6606&#45;&gt;dir_f61d47671007dfdb592580b61f960d39 -->
<g id="edge10" class="edge">
<title>dir_dd41d464988943d96a40e5d0822f6606&#45;&gt;dir_f61d47671007dfdb592580b61f960d39</title>
<g id="a_edge10"><a xlink:href="dir_000636_000470.html" target="_top">
<path fill="none" stroke="#63b8ff" d="M159.49,-70.83C164.25,-68.04 169.74,-65.12 175,-63 184.84,-59.03 241.85,-44.91 280.84,-35.44"/>
<polygon fill="#63b8ff" stroke="#63b8ff" points="281.93,-38.78 290.82,-33.02 280.28,-31.97 281.93,-38.78"/>
</a>
</g>
<g id="a_edge10&#45;headlabel"><a xlink:href="dir_000636_000470.html" target="_top" xlink:title="1">
<text text-anchor="middle" x="279.1" y="-39.88" font-family="Helvetica,sans-Serif" font-size="10.00" fill="#63b8ff">1</text>
</a>
</g>
</g>
</g>
</svg>
