<?xml version="1.0" encoding="UTF-8" standalone="no"?>
<!DOCTYPE svg PUBLIC "-//W3C//DTD SVG 1.1//EN"
 "http://www.w3.org/Graphics/SVG/1.1/DTD/svg11.dtd">
<!-- Generated by graphviz version 2.43.0 (0)
 -->
<!-- Title: include/mlir/Dialect/Tosa Pages: 1 -->
<svg width="768pt" height="519pt"
 viewBox="0.00 0.00 768.32 519.00" xmlns="http://www.w3.org/2000/svg" xmlns:xlink="http://www.w3.org/1999/xlink">
<g id="graph0" class="graph" transform="scale(1 1) rotate(0) translate(4 515)">
<title>include/mlir/Dialect/Tosa</title>
<g id="clust1" class="cluster">
<title>clusterdir_d07a6fac82475a065a3b2953573f00a0</title>
<g id="a_clust1"><a xlink:href="dir_d07a6fac82475a065a3b2953573f00a0.html" target="_top" xlink:title="Dialect">
<polygon fill="#ddddee" stroke="black" points="8,-136 8,-503 330,-503 330,-136 8,-136"/>
<text text-anchor="middle" x="169" y="-491" font-family="Helvetica,sans-Serif" font-size="10.00">Dialect</text>
</a>
</g>
</g>
<g id="clust2" class="cluster">
<title>clusterdir_0c066842859b4d5e44c18f75dbb8ec7e</title>
<g id="a_clust2"><a xlink:href="dir_0c066842859b4d5e44c18f75dbb8ec7e.html" target="_top">
<polygon fill="#eeeeff" stroke="black" points="118,-280 118,-476 260,-476 260,-280 118,-280"/>
</a>
</g>
</g>
<!-- dir_fccfbabc762275c37b73fc38935ac34f -->
<g id="node1" class="node">
<title>dir_fccfbabc762275c37b73fc38935ac34f</title>
<g id="a_node1"><a xlink:href="dir_fccfbabc762275c37b73fc38935ac34f.html" target="_top" xlink:title="Quant">
<polygon fill="none" stroke="red" points="110,-324 56,-324 56,-288 110,-288 110,-324"/>
<text text-anchor="middle" x="83" y="-303.5" font-family="Helvetica,sans-Serif" font-size="10.00">Quant</text>
</a>
</g>
</g>
<!-- dir_84ef7c054b4edc3447cfba80cee80f65 -->
<g id="node10" class="node">
<title>dir_84ef7c054b4edc3447cfba80cee80f65</title>
<g id="a_node10"><a xlink:href="dir_84ef7c054b4edc3447cfba80cee80f65.html" target="_top" xlink:title="IR">
<polygon fill="none" stroke="black" points="502,-180 448,-180 448,-144 502,-144 502,-180"/>
<text text-anchor="middle" x="475" y="-159.5" font-family="Helvetica,sans-Serif" font-size="10.00">IR</text>
</a>
</g>
</g>
<!-- dir_fccfbabc762275c37b73fc38935ac34f&#45;&gt;dir_84ef7c054b4edc3447cfba80cee80f65 -->
<g id="edge4" class="edge">
<title>dir_fccfbabc762275c37b73fc38935ac34f&#45;&gt;dir_84ef7c054b4edc3447cfba80cee80f65</title>
<path fill="none" stroke="black" d="M101.39,-287.87C105.33,-284.88 109.63,-282.07 114,-280 168.99,-253.96 190.1,-270.68 248,-252 285.49,-239.9 292.46,-230.73 329,-216 365.85,-201.14 408.65,-185.83 438.34,-175.51"/>
<polygon fill="black" stroke="black" points="439.57,-178.79 447.88,-172.21 437.28,-172.17 439.57,-178.79"/>
<g id="a_edge4&#45;headlabel"><a xlink:href="dir_000136_000044.html" target="_top" xlink:title="14">
<text text-anchor="middle" x="437.1" y="-180.15" font-family="Helvetica,sans-Serif" font-size="10.00">14</text>
</a>
</g>
</g>
<!-- dir_cf63c3ddb21c79ef735682489f4c6a69 -->
<g id="node12" class="node">
<title>dir_cf63c3ddb21c79ef735682489f4c6a69</title>
<g id="a_node12"><a xlink:href="dir_cf63c3ddb21c79ef735682489f4c6a69.html" target="_top" xlink:title="Interfaces">
<polygon fill="none" stroke="red" points="452.5,-108 387.5,-108 387.5,-72 452.5,-72 452.5,-108"/>
<text text-anchor="middle" x="420" y="-87.5" font-family="Helvetica,sans-Serif" font-size="10.00">Interfaces</text>
</a>
</g>
</g>
<!-- dir_fccfbabc762275c37b73fc38935ac34f&#45;&gt;dir_cf63c3ddb21c79ef735682489f4c6a69 -->
<g id="edge5" class="edge">
<title>dir_fccfbabc762275c37b73fc38935ac34f&#45;&gt;dir_cf63c3ddb21c79ef735682489f4c6a69</title>
<path fill="none" stroke="black" d="M102.78,-287.8C106.4,-285.02 110.22,-282.31 114,-280 140.15,-264.03 151.26,-268.62 177,-252 242.05,-209.99 241.14,-176.72 307,-136 328.96,-122.42 355.72,-111.55 377.69,-103.89"/>
<polygon fill="black" stroke="black" points="379.06,-107.13 387.41,-100.6 376.81,-100.49 379.06,-107.13"/>
<g id="a_edge5&#45;headlabel"><a xlink:href="dir_000136_000275.html" target="_top" xlink:title="2">
<text text-anchor="middle" x="376.56" y="-108.47" font-family="Helvetica,sans-Serif" font-size="10.00">2</text>
</a>
</g>
</g>
<!-- dir_cab9f8330899b1cc9d753b1d9c5c5a3e -->
<g id="node14" class="node">
<title>dir_cab9f8330899b1cc9d753b1d9c5c5a3e</title>
<g id="a_node14"><a xlink:href="dir_cab9f8330899b1cc9d753b1d9c5c5a3e.html" target="_top" xlink:title="Pass">
<polygon fill="none" stroke="black" points="392,-252 338,-252 338,-216 392,-216 392,-252"/>
<text text-anchor="middle" x="365" y="-231.5" font-family="Helvetica,sans-Serif" font-size="10.00">Pass</text>
</a>
</g>
</g>
<!-- dir_fccfbabc762275c37b73fc38935ac34f&#45;&gt;dir_cab9f8330899b1cc9d753b1d9c5c5a3e -->
<g id="edge6" class="edge">
<title>dir_fccfbabc762275c37b73fc38935ac34f&#45;&gt;dir_cab9f8330899b1cc9d753b1d9c5c5a3e</title>
<path fill="none" stroke="black" d="M100.92,-287.84C104.96,-284.78 109.42,-281.95 114,-280 201.59,-242.7 237.76,-279.74 328.07,-253.62"/>
<polygon fill="black" stroke="black" points="329.34,-256.89 337.87,-250.6 327.28,-250.2 329.34,-256.89"/>
<g id="a_edge6&#45;headlabel"><a xlink:href="dir_000136_000051.html" target="_top" xlink:title="1">
<text text-anchor="middle" x="326.74" y="-258.16" font-family="Helvetica,sans-Serif" font-size="10.00">1</text>
</a>
</g>
</g>
<!-- dir_83bd8be6e9490851e8e4007286e9f64b -->
<g id="node2" class="node">
<title>dir_83bd8be6e9490851e8e4007286e9f64b</title>
<g id="a_node2"><a xlink:href="dir_83bd8be6e9490851e8e4007286e9f64b.html" target="_top" xlink:title="Tensor">
<polygon fill="none" stroke="red" points="168,-252 114,-252 114,-216 168,-216 168,-252"/>
<text text-anchor="middle" x="141" y="-231.5" font-family="Helvetica,sans-Serif" font-size="10.00">Tensor</text>
</a>
</g>
</g>
<!-- dir_e4893b20171f621ff7a85b39656091a7 -->
<g id="node4" class="node">
<title>dir_e4893b20171f621ff7a85b39656091a7</title>
<g id="a_node4"><a xlink:href="dir_e4893b20171f621ff7a85b39656091a7.html" target="_top" xlink:title="Utils">
<polygon fill="none" stroke="black" points="141,-180 87,-180 87,-144 141,-144 141,-180"/>
<text text-anchor="middle" x="114" y="-159.5" font-family="Helvetica,sans-Serif" font-size="10.00">Utils</text>
</a>
</g>
</g>
<!-- dir_83bd8be6e9490851e8e4007286e9f64b&#45;&gt;dir_e4893b20171f621ff7a85b39656091a7 -->
<g id="edge29" class="edge">
<title>dir_83bd8be6e9490851e8e4007286e9f64b&#45;&gt;dir_e4893b20171f621ff7a85b39656091a7</title>
<path fill="none" stroke="black" d="M134.33,-215.7C131.29,-207.81 127.62,-198.3 124.24,-189.55"/>
<polygon fill="black" stroke="black" points="127.46,-188.17 120.6,-180.1 120.93,-190.69 127.46,-188.17"/>
<g id="a_edge29&#45;headlabel"><a xlink:href="dir_000029_000268.html" target="_top" xlink:title="1">
<text text-anchor="middle" x="131.4" y="-188.01" font-family="Helvetica,sans-Serif" font-size="10.00">1</text>
</a>
</g>
</g>
<!-- dir_51020c1b0909ae629a35fe1c65c620b9 -->
<g id="node9" class="node">
<title>dir_51020c1b0909ae629a35fe1c65c620b9</title>
<g id="a_node9"><a xlink:href="dir_51020c1b0909ae629a35fe1c65c620b9.html" target="_top" xlink:title="Bytecode">
<polygon fill="none" stroke="black" points="571,-108 509,-108 509,-72 571,-72 571,-108"/>
<text text-anchor="middle" x="540" y="-87.5" font-family="Helvetica,sans-Serif" font-size="10.00">Bytecode</text>
</a>
</g>
</g>
<!-- dir_83bd8be6e9490851e8e4007286e9f64b&#45;&gt;dir_51020c1b0909ae629a35fe1c65c620b9 -->
<g id="edge26" class="edge">
<title>dir_83bd8be6e9490851e8e4007286e9f64b&#45;&gt;dir_51020c1b0909ae629a35fe1c65c620b9</title>
<path fill="none" stroke="black" d="M168.11,-223.35C236.72,-198.93 417.58,-134.57 499.11,-105.55"/>
<polygon fill="black" stroke="black" points="500.53,-108.76 508.78,-102.11 498.19,-102.17 500.53,-108.76"/>
<g id="a_edge26&#45;headlabel"><a xlink:href="dir_000029_000048.html" target="_top" xlink:title="1">
<text text-anchor="middle" x="498.1" y="-110.14" font-family="Helvetica,sans-Serif" font-size="10.00">1</text>
</a>
</g>
</g>
<!-- dir_83bd8be6e9490851e8e4007286e9f64b&#45;&gt;dir_84ef7c054b4edc3447cfba80cee80f65 -->
<g id="edge27" class="edge">
<title>dir_83bd8be6e9490851e8e4007286e9f64b&#45;&gt;dir_84ef7c054b4edc3447cfba80cee80f65</title>
<path fill="none" stroke="black" d="M168.05,-227.33C227.58,-214.85 370.02,-185 437.86,-170.78"/>
<polygon fill="black" stroke="black" points="438.63,-174.2 447.7,-168.72 437.19,-167.35 438.63,-174.2"/>
<g id="a_edge27&#45;headlabel"><a xlink:href="dir_000029_000044.html" target="_top" xlink:title="10">
<text text-anchor="middle" x="435.69" y="-175.22" font-family="Helvetica,sans-Serif" font-size="10.00">10</text>
</a>
</g>
</g>
<!-- dir_83bd8be6e9490851e8e4007286e9f64b&#45;&gt;dir_cf63c3ddb21c79ef735682489f4c6a69 -->
<g id="edge28" class="edge">
<title>dir_83bd8be6e9490851e8e4007286e9f64b&#45;&gt;dir_cf63c3ddb21c79ef735682489f4c6a69</title>
<path fill="none" stroke="black" d="M152.16,-215.72C167.31,-193.72 196.48,-156.15 231,-136 276.69,-109.33 337.34,-98.45 377.47,-94.02"/>
<polygon fill="black" stroke="black" points="377.86,-97.5 387.46,-93.01 377.15,-90.54 377.86,-97.5"/>
<g id="a_edge28&#45;headlabel"><a xlink:href="dir_000029_000275.html" target="_top" xlink:title="11">
<text text-anchor="middle" x="374.57" y="-98.19" font-family="Helvetica,sans-Serif" font-size="10.00">11</text>
</a>
</g>
</g>
<!-- dir_83bd8be6e9490851e8e4007286e9f64b&#45;&gt;dir_cab9f8330899b1cc9d753b1d9c5c5a3e -->
<g id="edge30" class="edge">
<title>dir_83bd8be6e9490851e8e4007286e9f64b&#45;&gt;dir_cab9f8330899b1cc9d753b1d9c5c5a3e</title>
<path fill="none" stroke="black" d="M168.12,-234C221.23,-234 274.33,-234 327.43,-234"/>
<polygon fill="black" stroke="black" points="327.7,-237.5 337.7,-234 327.7,-230.5 327.7,-237.5"/>
<g id="a_edge30&#45;headlabel"><a xlink:href="dir_000029_000051.html" target="_top" xlink:title="1">
<text text-anchor="middle" x="324.1" y="-237.84" font-family="Helvetica,sans-Serif" font-size="10.00">1</text>
</a>
</g>
</g>
<!-- dir_687ef06ec02158f82af83f8ed0273ebe -->
<g id="node3" class="node">
<title>dir_687ef06ec02158f82af83f8ed0273ebe</title>
<g id="a_node3"><a xlink:href="dir_687ef06ec02158f82af83f8ed0273ebe.html" target="_top" xlink:title="Arith">
<polygon fill="none" stroke="red" points="322,-396 268,-396 268,-360 322,-360 322,-396"/>
<text text-anchor="middle" x="295" y="-375.5" font-family="Helvetica,sans-Serif" font-size="10.00">Arith</text>
</a>
</g>
</g>
<!-- dir_687ef06ec02158f82af83f8ed0273ebe&#45;&gt;dir_51020c1b0909ae629a35fe1c65c620b9 -->
<g id="edge21" class="edge">
<title>dir_687ef06ec02158f82af83f8ed0273ebe&#45;&gt;dir_51020c1b0909ae629a35fe1c65c620b9</title>
<path fill="none" stroke="black" d="M322.27,-375.33C377.18,-371.33 504.37,-358.78 605,-324 668.53,-302.04 703.6,-309.75 738,-252 764.39,-207.71 770.16,-176.29 738,-136 718.77,-111.91 633.45,-99.74 581.28,-94.44"/>
<polygon fill="black" stroke="black" points="581.61,-90.95 571.32,-93.47 580.94,-97.92 581.61,-90.95"/>
<g id="a_edge21&#45;headlabel"><a xlink:href="dir_000017_000048.html" target="_top" xlink:title="1">
<text text-anchor="middle" x="585.47" y="-85.98" font-family="Helvetica,sans-Serif" font-size="10.00">1</text>
</a>
</g>
</g>
<!-- dir_687ef06ec02158f82af83f8ed0273ebe&#45;&gt;dir_84ef7c054b4edc3447cfba80cee80f65 -->
<g id="edge22" class="edge">
<title>dir_687ef06ec02158f82af83f8ed0273ebe&#45;&gt;dir_84ef7c054b4edc3447cfba80cee80f65</title>
<path fill="none" stroke="black" d="M322.05,-373.91C371.83,-367.62 474.8,-351.52 496,-324 526.19,-284.81 505.12,-223.69 488.88,-189.12"/>
<polygon fill="black" stroke="black" points="492.01,-187.56 484.47,-180.12 485.73,-190.64 492.01,-187.56"/>
<g id="a_edge22&#45;headlabel"><a xlink:href="dir_000017_000044.html" target="_top" xlink:title="6">
<text text-anchor="middle" x="496.14" y="-187.04" font-family="Helvetica,sans-Serif" font-size="10.00">6</text>
</a>
</g>
</g>
<!-- dir_ca4d1f3bc4cd42ba07a57ca86d19a1d6 -->
<g id="node11" class="node">
<title>dir_ca4d1f3bc4cd42ba07a57ca86d19a1d6</title>
<g id="a_node11"><a xlink:href="dir_ca4d1f3bc4cd42ba07a57ca86d19a1d6.html" target="_top" xlink:title="Transforms">
<polygon fill="none" stroke="black" points="486.5,-324 415.5,-324 415.5,-288 486.5,-288 486.5,-324"/>
<text text-anchor="middle" x="451" y="-303.5" font-family="Helvetica,sans-Serif" font-size="10.00">Transforms</text>
</a>
</g>
</g>
<!-- dir_687ef06ec02158f82af83f8ed0273ebe&#45;&gt;dir_ca4d1f3bc4cd42ba07a57ca86d19a1d6 -->
<g id="edge24" class="edge">
<title>dir_687ef06ec02158f82af83f8ed0273ebe&#45;&gt;dir_ca4d1f3bc4cd42ba07a57ca86d19a1d6</title>
<path fill="none" stroke="black" d="M322.17,-364.81C345.29,-354.44 378.95,-339.33 406.07,-327.16"/>
<polygon fill="black" stroke="black" points="407.67,-330.28 415.36,-322.99 404.8,-323.89 407.67,-330.28"/>
<g id="a_edge24&#45;headlabel"><a xlink:href="dir_000017_000155.html" target="_top" xlink:title="2">
<text text-anchor="middle" x="405.55" y="-331.84" font-family="Helvetica,sans-Serif" font-size="10.00">2</text>
</a>
</g>
</g>
<!-- dir_687ef06ec02158f82af83f8ed0273ebe&#45;&gt;dir_cf63c3ddb21c79ef735682489f4c6a69 -->
<g id="edge23" class="edge">
<title>dir_687ef06ec02158f82af83f8ed0273ebe&#45;&gt;dir_cf63c3ddb21c79ef735682489f4c6a69</title>
<path fill="none" stroke="black" d="M322.28,-374.58C376.09,-369.2 492.79,-354.24 517,-324 569.25,-258.74 558.16,-205.02 511,-136 499.67,-119.42 480.41,-108.69 462.52,-101.88"/>
<polygon fill="black" stroke="black" points="463.37,-98.47 452.77,-98.49 461.07,-105.08 463.37,-98.47"/>
<g id="a_edge23&#45;headlabel"><a xlink:href="dir_000017_000275.html" target="_top" xlink:title="7">
<text text-anchor="middle" x="467.7" y="-94.47" font-family="Helvetica,sans-Serif" font-size="10.00">7</text>
</a>
</g>
</g>
<!-- dir_687ef06ec02158f82af83f8ed0273ebe&#45;&gt;dir_cab9f8330899b1cc9d753b1d9c5c5a3e -->
<g id="edge25" class="edge">
<title>dir_687ef06ec02158f82af83f8ed0273ebe&#45;&gt;dir_cab9f8330899b1cc9d753b1d9c5c5a3e</title>
<path fill="none" stroke="black" d="M303.44,-359.87C315.53,-335.35 337.87,-290.03 352.06,-261.26"/>
<polygon fill="black" stroke="black" points="355.24,-262.71 356.53,-252.19 348.97,-259.61 355.24,-262.71"/>
<g id="a_edge25&#45;headlabel"><a xlink:href="dir_000017_000051.html" target="_top" xlink:title="1">
<text text-anchor="middle" x="356.2" y="-264.69" font-family="Helvetica,sans-Serif" font-size="10.00">1</text>
</a>
</g>
</g>
<!-- dir_e4893b20171f621ff7a85b39656091a7&#45;&gt;dir_84ef7c054b4edc3447cfba80cee80f65 -->
<g id="edge35" class="edge">
<title>dir_e4893b20171f621ff7a85b39656091a7&#45;&gt;dir_84ef7c054b4edc3447cfba80cee80f65</title>
<path fill="none" stroke="black" d="M141.15,-162C240.01,-162 338.88,-162 437.75,-162"/>
<polygon fill="black" stroke="black" points="437.94,-165.5 447.94,-162 437.94,-158.5 437.94,-165.5"/>
<g id="a_edge35&#45;headlabel"><a xlink:href="dir_000268_000044.html" target="_top" xlink:title="10">
<text text-anchor="middle" x="434.34" y="-165.84" font-family="Helvetica,sans-Serif" font-size="10.00">10</text>
</a>
</g>
</g>
<!-- dir_f61d47671007dfdb592580b61f960d39 -->
<g id="node13" class="node">
<title>dir_f61d47671007dfdb592580b61f960d39</title>
<g id="a_node13"><a xlink:href="dir_f61d47671007dfdb592580b61f960d39.html" target="_top" xlink:title="Support">
<polygon fill="none" stroke="black" points="447,-36 393,-36 393,0 447,0 447,-36"/>
<text text-anchor="middle" x="420" y="-15.5" font-family="Helvetica,sans-Serif" font-size="10.00">Support</text>
</a>
</g>
</g>
<!-- dir_e4893b20171f621ff7a85b39656091a7&#45;&gt;dir_f61d47671007dfdb592580b61f960d39 -->
<g id="edge36" class="edge">
<title>dir_e4893b20171f621ff7a85b39656091a7&#45;&gt;dir_f61d47671007dfdb592580b61f960d39</title>
<path fill="none" stroke="black" d="M117.09,-143.68C121.67,-123.29 132.3,-89.92 155,-72 189.88,-44.46 318.27,-28.66 382.66,-22.3"/>
<polygon fill="black" stroke="black" points="383.17,-25.77 392.79,-21.33 382.5,-18.8 383.17,-25.77"/>
<g id="a_edge36&#45;headlabel"><a xlink:href="dir_000268_000284.html" target="_top" xlink:title="4">
<text text-anchor="middle" x="379.87" y="-26.44" font-family="Helvetica,sans-Serif" font-size="10.00">4</text>
</a>
</g>
</g>
<!-- dir_0c066842859b4d5e44c18f75dbb8ec7e -->
<g id="node5" class="node">
<title>dir_0c066842859b4d5e44c18f75dbb8ec7e</title>
<text text-anchor="middle" x="225" y="-447.5" font-family="Helvetica,sans-Serif" font-size="10.00">Tosa</text>
</g>
<!-- dir_6780949e97c48b2366054554bf81c7c7 -->
<g id="node6" class="node">
<title>dir_6780949e97c48b2366054554bf81c7c7</title>
<g id="a_node6"><a xlink:href="dir_6780949e97c48b2366054554bf81c7c7.html" target="_top" xlink:title="IR">
<polygon fill="white" stroke="black" points="250,-396 196,-396 196,-360 250,-360 250,-396"/>
<text text-anchor="middle" x="223" y="-375.5" font-family="Helvetica,sans-Serif" font-size="10.00">IR</text>
</a>
</g>
</g>
<!-- dir_6780949e97c48b2366054554bf81c7c7&#45;&gt;dir_fccfbabc762275c37b73fc38935ac34f -->
<g id="edge20" class="edge">
<title>dir_6780949e97c48b2366054554bf81c7c7&#45;&gt;dir_fccfbabc762275c37b73fc38935ac34f</title>
<path fill="none" stroke="black" d="M195.67,-361.88C194.43,-361.24 193.21,-360.61 192,-360 160.84,-344.29 149.96,-341.58 119.48,-326.67"/>
<polygon fill="black" stroke="black" points="120.84,-323.44 110.33,-322.12 117.73,-329.71 120.84,-323.44"/>
<g id="a_edge20&#45;headlabel"><a xlink:href="dir_000202_000136.html" target="_top" xlink:title="1">
<text text-anchor="middle" x="125.33" y="-320" font-family="Helvetica,sans-Serif" font-size="10.00">1</text>
</a>
</g>
</g>
<!-- dir_92fd3ef5bf0765e4c0e935add5e237db -->
<g id="node7" class="node">
<title>dir_92fd3ef5bf0765e4c0e935add5e237db</title>
<g id="a_node7"><a xlink:href="dir_92fd3ef5bf0765e4c0e935add5e237db.html" target="_top" xlink:title="Transforms">
<polygon fill="white" stroke="black" points="199.5,-324 128.5,-324 128.5,-288 199.5,-288 199.5,-324"/>
<text text-anchor="middle" x="164" y="-303.5" font-family="Helvetica,sans-Serif" font-size="10.00">Transforms</text>
</a>
</g>
</g>
<!-- dir_6780949e97c48b2366054554bf81c7c7&#45;&gt;dir_92fd3ef5bf0765e4c0e935add5e237db -->
<g id="edge16" class="edge">
<title>dir_6780949e97c48b2366054554bf81c7c7&#45;&gt;dir_92fd3ef5bf0765e4c0e935add5e237db</title>
<path fill="none" stroke="black" d="M202.5,-359.7C194.64,-351.39 185.92,-341.28 178.68,-332.14"/>
<polygon fill="black" stroke="black" points="181.38,-329.91 172.52,-324.1 175.83,-334.17 181.38,-329.91"/>
<g id="a_edge16&#45;headlabel"><a xlink:href="dir_000202_000148.html" target="_top" xlink:title="1">
<text text-anchor="middle" x="185.82" y="-328.53" font-family="Helvetica,sans-Serif" font-size="10.00">1</text>
</a>
</g>
</g>
<!-- dir_6780949e97c48b2366054554bf81c7c7&#45;&gt;dir_51020c1b0909ae629a35fe1c65c620b9 -->
<g id="edge14" class="edge">
<title>dir_6780949e97c48b2366054554bf81c7c7&#45;&gt;dir_51020c1b0909ae629a35fe1c65c620b9</title>
<path fill="none" stroke="black" d="M250.14,-361.43C251.43,-360.91 252.72,-360.43 254,-360 357.06,-325.32 414.29,-395.75 496,-324 555.22,-272 550.47,-167.46 544.31,-118.05"/>
<polygon fill="black" stroke="black" points="547.78,-117.54 542.96,-108.11 540.84,-118.49 547.78,-117.54"/>
<g id="a_edge14&#45;headlabel"><a xlink:href="dir_000202_000048.html" target="_top" xlink:title="1">
<text text-anchor="middle" x="551.08" y="-118.22" font-family="Helvetica,sans-Serif" font-size="10.00">1</text>
</a>
</g>
</g>
<!-- dir_6780949e97c48b2366054554bf81c7c7&#45;&gt;dir_84ef7c054b4edc3447cfba80cee80f65 -->
<g id="edge15" class="edge">
<title>dir_6780949e97c48b2366054554bf81c7c7&#45;&gt;dir_84ef7c054b4edc3447cfba80cee80f65</title>
<path fill="none" stroke="black" d="M250.28,-361.02C286.7,-338.99 352.27,-296.92 401,-252 422.14,-232.51 442.77,-207.01 456.85,-188.3"/>
<polygon fill="black" stroke="black" points="459.69,-190.34 462.84,-180.22 454.07,-186.17 459.69,-190.34"/>
<g id="a_edge15&#45;headlabel"><a xlink:href="dir_000202_000044.html" target="_top" xlink:title="4">
<text text-anchor="middle" x="459.83" y="-192.42" font-family="Helvetica,sans-Serif" font-size="10.00">4</text>
</a>
</g>
</g>
<!-- dir_6780949e97c48b2366054554bf81c7c7&#45;&gt;dir_ca4d1f3bc4cd42ba07a57ca86d19a1d6 -->
<g id="edge17" class="edge">
<title>dir_6780949e97c48b2366054554bf81c7c7&#45;&gt;dir_ca4d1f3bc4cd42ba07a57ca86d19a1d6</title>
<path fill="none" stroke="black" d="M250.2,-361.58C251.47,-361.02 252.74,-360.49 254,-360 316.69,-335.62 336.43,-342.84 401,-324 402.46,-323.57 403.94,-323.13 405.43,-322.68"/>
<polygon fill="black" stroke="black" points="406.86,-325.9 415.34,-319.55 404.75,-319.22 406.86,-325.9"/>
<g id="a_edge17&#45;headlabel"><a xlink:href="dir_000202_000155.html" target="_top" xlink:title="1">
<text text-anchor="middle" x="404.29" y="-327.19" font-family="Helvetica,sans-Serif" font-size="10.00">1</text>
</a>
</g>
</g>
<!-- dir_6780949e97c48b2366054554bf81c7c7&#45;&gt;dir_cf63c3ddb21c79ef735682489f4c6a69 -->
<g id="edge18" class="edge">
<title>dir_6780949e97c48b2366054554bf81c7c7&#45;&gt;dir_cf63c3ddb21c79ef735682489f4c6a69</title>
<path fill="none" stroke="black" d="M233.88,-359.9C252.8,-330.3 293.18,-267.72 329,-216 353.2,-181.06 382.27,-141.53 400.94,-116.44"/>
<polygon fill="black" stroke="black" points="403.91,-118.31 407.08,-108.21 398.3,-114.13 403.91,-118.31"/>
<g id="a_edge18&#45;headlabel"><a xlink:href="dir_000202_000275.html" target="_top" xlink:title="4">
<text text-anchor="middle" x="404.04" y="-120.39" font-family="Helvetica,sans-Serif" font-size="10.00">4</text>
</a>
</g>
</g>
<!-- dir_6780949e97c48b2366054554bf81c7c7&#45;&gt;dir_f61d47671007dfdb592580b61f960d39 -->
<g id="edge19" class="edge">
<title>dir_6780949e97c48b2366054554bf81c7c7&#45;&gt;dir_f61d47671007dfdb592580b61f960d39</title>
<path fill="none" stroke="black" d="M227.47,-359.84C232.82,-340.19 242.51,-307.2 254,-280 294.78,-183.48 301.83,-155.6 365,-72 372.81,-61.67 382.66,-51.51 391.86,-42.89"/>
<polygon fill="black" stroke="black" points="394.35,-45.36 399.38,-36.04 389.63,-40.19 394.35,-45.36"/>
<g id="a_edge19&#45;headlabel"><a xlink:href="dir_000202_000284.html" target="_top" xlink:title="2">
<text text-anchor="middle" x="393.6" y="-47.38" font-family="Helvetica,sans-Serif" font-size="10.00">2</text>
</a>
</g>
</g>
<!-- dir_92fd3ef5bf0765e4c0e935add5e237db&#45;&gt;dir_83bd8be6e9490851e8e4007286e9f64b -->
<g id="edge43" class="edge">
<title>dir_92fd3ef5bf0765e4c0e935add5e237db&#45;&gt;dir_83bd8be6e9490851e8e4007286e9f64b</title>
<path fill="none" stroke="black" d="M158.31,-287.7C155.75,-279.9 152.67,-270.51 149.82,-261.83"/>
<polygon fill="black" stroke="black" points="153.07,-260.51 146.62,-252.1 146.42,-262.7 153.07,-260.51"/>
<g id="a_edge43&#45;headlabel"><a xlink:href="dir_000148_000029.html" target="_top" xlink:title="1">
<text text-anchor="middle" x="156.89" y="-260.54" font-family="Helvetica,sans-Serif" font-size="10.00">1</text>
</a>
</g>
</g>
<!-- dir_92fd3ef5bf0765e4c0e935add5e237db&#45;&gt;dir_6780949e97c48b2366054554bf81c7c7 -->
<g id="edge42" class="edge">
<title>dir_92fd3ef5bf0765e4c0e935add5e237db&#45;&gt;dir_6780949e97c48b2366054554bf81c7c7</title>
<path fill="none" stroke="black" d="M184.31,-324.1C192.16,-332.38 200.88,-342.49 208.14,-351.64"/>
<polygon fill="black" stroke="black" points="205.46,-353.9 214.33,-359.7 211.01,-349.63 205.46,-353.9"/>
<g id="a_edge42&#45;headlabel"><a xlink:href="dir_000148_000202.html" target="_top" xlink:title="1">
<text text-anchor="middle" x="201.02" y="-350.28" font-family="Helvetica,sans-Serif" font-size="10.00">1</text>
</a>
</g>
</g>
<!-- dir_92fd3ef5bf0765e4c0e935add5e237db&#45;&gt;dir_cab9f8330899b1cc9d753b1d9c5c5a3e -->
<g id="edge44" class="edge">
<title>dir_92fd3ef5bf0765e4c0e935add5e237db&#45;&gt;dir_cab9f8330899b1cc9d753b1d9c5c5a3e</title>
<path fill="none" stroke="black" d="M199.57,-296.13C232.23,-287.51 281.97,-273.17 328.25,-254.29"/>
<polygon fill="black" stroke="black" points="329.88,-257.4 337.76,-250.32 327.19,-250.94 329.88,-257.4"/>
<g id="a_edge44&#45;headlabel"><a xlink:href="dir_000148_000051.html" target="_top" xlink:title="1">
<text text-anchor="middle" x="327.66" y="-258.91" font-family="Helvetica,sans-Serif" font-size="10.00">1</text>
</a>
</g>
</g>
<!-- dir_83796671d96926cf863e5f36f2f40269 -->
<g id="node8" class="node">
<title>dir_83796671d96926cf863e5f36f2f40269</title>
<g id="a_node8"><a xlink:href="dir_83796671d96926cf863e5f36f2f40269.html" target="_top" xlink:title="Utils">
<polygon fill="white" stroke="black" points="180,-468 126,-468 126,-432 180,-432 180,-468"/>
<text text-anchor="middle" x="153" y="-447.5" font-family="Helvetica,sans-Serif" font-size="10.00">Utils</text>
</a>
</g>
</g>
<!-- dir_83796671d96926cf863e5f36f2f40269&#45;&gt;dir_fccfbabc762275c37b73fc38935ac34f -->
<g id="edge13" class="edge">
<title>dir_83796671d96926cf863e5f36f2f40269&#45;&gt;dir_fccfbabc762275c37b73fc38935ac34f</title>
<path fill="none" stroke="black" d="M144.56,-431.87C132.47,-407.35 110.13,-362.03 95.94,-333.26"/>
<polygon fill="black" stroke="black" points="99.03,-331.61 91.47,-324.19 92.76,-334.71 99.03,-331.61"/>
<g id="a_edge13&#45;headlabel"><a xlink:href="dir_000260_000136.html" target="_top" xlink:title="2">
<text text-anchor="middle" x="103.17" y="-331.08" font-family="Helvetica,sans-Serif" font-size="10.00">2</text>
</a>
</g>
</g>
<!-- dir_83796671d96926cf863e5f36f2f40269&#45;&gt;dir_83bd8be6e9490851e8e4007286e9f64b -->
<g id="edge9" class="edge">
<title>dir_83796671d96926cf863e5f36f2f40269&#45;&gt;dir_83bd8be6e9490851e8e4007286e9f64b</title>
<path fill="none" stroke="black" d="M131.12,-431.96C105.17,-410.2 63.37,-369.82 47,-324 40.42,-305.59 36.58,-296.55 47,-280 59.51,-260.13 83.49,-248.85 104.1,-242.54"/>
<polygon fill="black" stroke="black" points="105.18,-245.88 113.88,-239.83 103.31,-239.13 105.18,-245.88"/>
<g id="a_edge9&#45;headlabel"><a xlink:href="dir_000260_000029.html" target="_top" xlink:title="1">
<text text-anchor="middle" x="102.47" y="-247.07" font-family="Helvetica,sans-Serif" font-size="10.00">1</text>
</a>
</g>
</g>
<!-- dir_83796671d96926cf863e5f36f2f40269&#45;&gt;dir_687ef06ec02158f82af83f8ed0273ebe -->
<g id="edge8" class="edge">
<title>dir_83796671d96926cf863e5f36f2f40269&#45;&gt;dir_687ef06ec02158f82af83f8ed0273ebe</title>
<path fill="none" stroke="black" d="M180.23,-436.1C205.13,-424.28 240.45,-407.49 258.82,-398.49"/>
<polygon fill="black" stroke="black" points="260.61,-401.52 268,-393.92 257.48,-395.25 260.61,-401.52"/>
<g id="a_edge8&#45;headlabel"><a xlink:href="dir_000260_000017.html" target="_top" xlink:title="1">
<text text-anchor="middle" x="258.65" y="-403.16" font-family="Helvetica,sans-Serif" font-size="10.00">1</text>
</a>
</g>
</g>
<!-- dir_83796671d96926cf863e5f36f2f40269&#45;&gt;dir_e4893b20171f621ff7a85b39656091a7 -->
<g id="edge12" class="edge">
<title>dir_83796671d96926cf863e5f36f2f40269&#45;&gt;dir_e4893b20171f621ff7a85b39656091a7</title>
<path fill="none" stroke="black" d="M125.6,-439.11C105.44,-430.55 78.73,-416.32 62,-396 40.47,-369.85 42.63,-357.4 37,-324 33.75,-304.72 31.39,-298.73 37,-280 47.56,-244.73 72.57,-210.26 91.23,-187.97"/>
<polygon fill="black" stroke="black" points="93.93,-190.2 97.79,-180.33 88.62,-185.64 93.93,-190.2"/>
<g id="a_edge12&#45;headlabel"><a xlink:href="dir_000260_000268.html" target="_top" xlink:title="1">
<text text-anchor="middle" x="93.74" y="-192.28" font-family="Helvetica,sans-Serif" font-size="10.00">1</text>
</a>
</g>
</g>
<!-- dir_83796671d96926cf863e5f36f2f40269&#45;&gt;dir_6780949e97c48b2366054554bf81c7c7 -->
<g id="edge7" class="edge">
<title>dir_83796671d96926cf863e5f36f2f40269&#45;&gt;dir_6780949e97c48b2366054554bf81c7c7</title>
<path fill="none" stroke="black" d="M170.3,-431.7C178.86,-423.14 189.34,-412.66 198.7,-403.3"/>
<polygon fill="black" stroke="black" points="201.3,-405.65 205.9,-396.1 196.35,-400.7 201.3,-405.65"/>
<g id="a_edge7&#45;headlabel"><a xlink:href="dir_000260_000202.html" target="_top" xlink:title="1">
<text text-anchor="middle" x="200.77" y="-407.7" font-family="Helvetica,sans-Serif" font-size="10.00">1</text>
</a>
</g>
</g>
<!-- dir_83796671d96926cf863e5f36f2f40269&#45;&gt;dir_84ef7c054b4edc3447cfba80cee80f65 -->
<g id="edge10" class="edge">
<title>dir_83796671d96926cf863e5f36f2f40269&#45;&gt;dir_84ef7c054b4edc3447cfba80cee80f65</title>
<path fill="none" stroke="black" d="M180.28,-435.43C183.19,-434.19 186.14,-433.02 189,-432 333.57,-380.49 429.72,-450.24 517,-324 544.3,-284.52 534.04,-261.24 518,-216 514.34,-205.68 507.71,-195.9 500.74,-187.61"/>
<polygon fill="black" stroke="black" points="503.33,-185.26 494.04,-180.16 498.13,-189.94 503.33,-185.26"/>
<g id="a_edge10&#45;headlabel"><a xlink:href="dir_000260_000044.html" target="_top" xlink:title="4">
<text text-anchor="middle" x="507.84" y="-183.53" font-family="Helvetica,sans-Serif" font-size="10.00">4</text>
</a>
</g>
</g>
<!-- dir_83796671d96926cf863e5f36f2f40269&#45;&gt;dir_cf63c3ddb21c79ef735682489f4c6a69 -->
<g id="edge11" class="edge">
<title>dir_83796671d96926cf863e5f36f2f40269&#45;&gt;dir_cf63c3ddb21c79ef735682489f4c6a69</title>
<path fill="none" stroke="black" d="M180.17,-435.09C183.1,-433.91 186.08,-432.85 189,-432 309.86,-396.68 357.57,-452.69 470,-396 509.58,-376.04 522.48,-365.13 539,-324 554.12,-286.37 583.55,-202.79 537,-136 528.03,-123.13 492.04,-110.48 462.32,-101.89"/>
<polygon fill="black" stroke="black" points="463.1,-98.47 452.53,-99.13 461.21,-105.21 463.1,-98.47"/>
<g id="a_edge11&#45;headlabel"><a xlink:href="dir_000260_000275.html" target="_top" xlink:title="1">
<text text-anchor="middle" x="467.33" y="-94.21" font-family="Helvetica,sans-Serif" font-size="10.00">1</text>
</a>
</g>
</g>
<!-- dir_51020c1b0909ae629a35fe1c65c620b9&#45;&gt;dir_84ef7c054b4edc3447cfba80cee80f65 -->
<g id="edge37" class="edge">
<title>dir_51020c1b0909ae629a35fe1c65c620b9&#45;&gt;dir_84ef7c054b4edc3447cfba80cee80f65</title>
<path fill="none" stroke="black" d="M530.01,-108.1C522.98,-116.64 513.45,-127.11 504.24,-136.48"/>
<polygon fill="black" stroke="black" points="501.61,-134.16 496.98,-143.7 506.54,-139.13 501.61,-134.16"/>
<g id="a_edge37&#45;headlabel"><a xlink:href="dir_000048_000044.html" target="_top" xlink:title="9">
<text text-anchor="middle" x="502.15" y="-127.12" font-family="Helvetica,sans-Serif" font-size="10.00">9</text>
</a>
</g>
</g>
<!-- dir_51020c1b0909ae629a35fe1c65c620b9&#45;&gt;dir_f61d47671007dfdb592580b61f960d39 -->
<g id="edge38" class="edge">
<title>dir_51020c1b0909ae629a35fe1c65c620b9&#45;&gt;dir_f61d47671007dfdb592580b61f960d39</title>
<path fill="none" stroke="black" d="M510.64,-71.88C494.1,-62.23 473.31,-50.1 455.81,-39.89"/>
<polygon fill="black" stroke="black" points="457.4,-36.77 447,-34.75 453.87,-42.81 457.4,-36.77"/>
<g id="a_edge38&#45;headlabel"><a xlink:href="dir_000048_000284.html" target="_top" xlink:title="2">
<text text-anchor="middle" x="461.94" y="-33.62" font-family="Helvetica,sans-Serif" font-size="10.00">2</text>
</a>
</g>
</g>
<!-- dir_84ef7c054b4edc3447cfba80cee80f65&#45;&gt;dir_51020c1b0909ae629a35fe1c65c620b9 -->
<g id="edge1" class="edge">
<title>dir_84ef7c054b4edc3447cfba80cee80f65&#45;&gt;dir_51020c1b0909ae629a35fe1c65c620b9</title>
<path fill="none" stroke="black" d="M485.15,-143.7C492.22,-135.14 501.77,-124.66 510.97,-115.3"/>
<polygon fill="black" stroke="black" points="513.59,-117.63 518.22,-108.1 508.66,-112.67 513.59,-117.63"/>
<g id="a_edge1&#45;headlabel"><a xlink:href="dir_000044_000048.html" target="_top" xlink:title="2">
<text text-anchor="middle" x="513.04" y="-119.68" font-family="Helvetica,sans-Serif" font-size="10.00">2</text>
</a>
</g>
</g>
<!-- dir_84ef7c054b4edc3447cfba80cee80f65&#45;&gt;dir_cf63c3ddb21c79ef735682489f4c6a69 -->
<g id="edge2" class="edge">
<title>dir_84ef7c054b4edc3447cfba80cee80f65&#45;&gt;dir_cf63c3ddb21c79ef735682489f4c6a69</title>
<path fill="none" stroke="black" d="M455.49,-143.7C448.18,-135.47 440.13,-125.48 433.45,-116.42"/>
<polygon fill="black" stroke="black" points="436.19,-114.23 427.54,-108.1 430.48,-118.28 436.19,-114.23"/>
<g id="a_edge2&#45;headlabel"><a xlink:href="dir_000044_000275.html" target="_top" xlink:title="3">
<text text-anchor="middle" x="440.59" y="-113.01" font-family="Helvetica,sans-Serif" font-size="10.00">3</text>
</a>
</g>
</g>
<!-- dir_84ef7c054b4edc3447cfba80cee80f65&#45;&gt;dir_f61d47671007dfdb592580b61f960d39 -->
<g id="edge3" class="edge">
<title>dir_84ef7c054b4edc3447cfba80cee80f65&#45;&gt;dir_f61d47671007dfdb592580b61f960d39</title>
<path fill="none" stroke="black" d="M475.1,-143.89C474.63,-125.42 472.15,-95.51 462,-72 457.63,-61.87 450.81,-52.04 443.92,-43.65"/>
<polygon fill="black" stroke="black" points="446.57,-41.36 437.38,-36.08 441.27,-45.94 446.57,-41.36"/>
<g id="a_edge3&#45;headlabel"><a xlink:href="dir_000044_000284.html" target="_top" xlink:title="22">
<text text-anchor="middle" x="451.07" y="-39.72" font-family="Helvetica,sans-Serif" font-size="10.00">22</text>
</a>
</g>
</g>
<!-- dir_ca4d1f3bc4cd42ba07a57ca86d19a1d6&#45;&gt;dir_84ef7c054b4edc3447cfba80cee80f65 -->
<g id="edge31" class="edge">
<title>dir_ca4d1f3bc4cd42ba07a57ca86d19a1d6&#45;&gt;dir_84ef7c054b4edc3447cfba80cee80f65</title>
<path fill="none" stroke="black" d="M459.56,-287.8C464.17,-277.65 469.42,-264.4 472,-252 476.23,-231.7 476.85,-208.23 476.48,-190.49"/>
<polygon fill="black" stroke="black" points="479.97,-190.15 476.15,-180.27 472.98,-190.38 479.97,-190.15"/>
<g id="a_edge31&#45;headlabel"><a xlink:href="dir_000155_000044.html" target="_top" xlink:title="19">
<text text-anchor="middle" x="482.93" y="-191.15" font-family="Helvetica,sans-Serif" font-size="10.00">19</text>
</a>
</g>
</g>
<!-- dir_ca4d1f3bc4cd42ba07a57ca86d19a1d6&#45;&gt;dir_cf63c3ddb21c79ef735682489f4c6a69 -->
<g id="edge33" class="edge">
<title>dir_ca4d1f3bc4cd42ba07a57ca86d19a1d6&#45;&gt;dir_cf63c3ddb21c79ef735682489f4c6a69</title>
<path fill="none" stroke="black" d="M448.52,-287.85C443.15,-250.83 430.46,-163.18 423.97,-118.39"/>
<polygon fill="black" stroke="black" points="427.39,-117.63 422.5,-108.23 420.47,-118.63 427.39,-117.63"/>
<g id="a_edge33&#45;headlabel"><a xlink:href="dir_000155_000275.html" target="_top" xlink:title="4">
<text text-anchor="middle" x="430.72" y="-118.28" font-family="Helvetica,sans-Serif" font-size="10.00">4</text>
</a>
</g>
</g>
<!-- dir_ca4d1f3bc4cd42ba07a57ca86d19a1d6&#45;&gt;dir_f61d47671007dfdb592580b61f960d39 -->
<g id="edge34" class="edge">
<title>dir_ca4d1f3bc4cd42ba07a57ca86d19a1d6&#45;&gt;dir_f61d47671007dfdb592580b61f960d39</title>
<path fill="none" stroke="black" d="M473.84,-287.79C523.86,-248.01 634.41,-147.34 580,-72 552.13,-33.4 495.05,-22.46 457.16,-19.61"/>
<polygon fill="black" stroke="black" points="457.21,-16.1 447.02,-19 456.79,-23.09 457.21,-16.1"/>
<g id="a_edge34&#45;headlabel"><a xlink:href="dir_000155_000284.html" target="_top" xlink:title="6">
<text text-anchor="middle" x="460.96" y="-10.98" font-family="Helvetica,sans-Serif" font-size="10.00">6</text>
</a>
</g>
</g>
<!-- dir_ca4d1f3bc4cd42ba07a57ca86d19a1d6&#45;&gt;dir_cab9f8330899b1cc9d753b1d9c5c5a3e -->
<g id="edge32" class="edge">
<title>dir_ca4d1f3bc4cd42ba07a57ca86d19a1d6&#45;&gt;dir_cab9f8330899b1cc9d753b1d9c5c5a3e</title>
<path fill="none" stroke="black" d="M429.74,-287.7C418.91,-278.88 405.58,-268.03 393.84,-258.47"/>
<polygon fill="black" stroke="black" points="395.98,-255.7 386.01,-252.1 391.56,-261.13 395.98,-255.7"/>
<g id="a_edge32&#45;headlabel"><a xlink:href="dir_000155_000051.html" target="_top" xlink:title="4">
<text text-anchor="middle" x="400.56" y="-253.27" font-family="Helvetica,sans-Serif" font-size="10.00">4</text>
</a>
</g>
</g>
<!-- dir_cf63c3ddb21c79ef735682489f4c6a69&#45;&gt;dir_e4893b20171f621ff7a85b39656091a7 -->
<g id="edge40" class="edge">
<title>dir_cf63c3ddb21c79ef735682489f4c6a69&#45;&gt;dir_e4893b20171f621ff7a85b39656091a7</title>
<path fill="none" stroke="black" d="M387.42,-96.29C343.1,-103.75 261.49,-118.43 193,-136 179.12,-139.56 164.08,-144.13 150.89,-148.4"/>
<polygon fill="black" stroke="black" points="149.62,-145.13 141.21,-151.57 151.8,-151.78 149.62,-145.13"/>
<g id="a_edge40&#45;headlabel"><a xlink:href="dir_000275_000268.html" target="_top" xlink:title="2">
<text text-anchor="middle" x="152.15" y="-138.81" font-family="Helvetica,sans-Serif" font-size="10.00">2</text>
</a>
</g>
</g>
<!-- dir_cf63c3ddb21c79ef735682489f4c6a69&#45;&gt;dir_84ef7c054b4edc3447cfba80cee80f65 -->
<g id="edge39" class="edge">
<title>dir_cf63c3ddb21c79ef735682489f4c6a69&#45;&gt;dir_84ef7c054b4edc3447cfba80cee80f65</title>
<path fill="none" stroke="black" d="M439.33,-108.1C446.63,-116.3 454.69,-126.28 461.38,-135.36"/>
<polygon fill="black" stroke="black" points="458.67,-137.58 467.32,-143.7 464.37,-133.52 458.67,-137.58"/>
<g id="a_edge39&#45;headlabel"><a xlink:href="dir_000275_000044.html" target="_top" xlink:title="50">
<text text-anchor="middle" x="454.27" y="-133.8" font-family="Helvetica,sans-Serif" font-size="10.00">50</text>
</a>
</g>
</g>
<!-- dir_cf63c3ddb21c79ef735682489f4c6a69&#45;&gt;dir_f61d47671007dfdb592580b61f960d39 -->
<g id="edge41" class="edge">
<title>dir_cf63c3ddb21c79ef735682489f4c6a69&#45;&gt;dir_f61d47671007dfdb592580b61f960d39</title>
<path fill="none" stroke="black" d="M420,-71.7C420,-63.98 420,-54.71 420,-46.11"/>
<polygon fill="black" stroke="black" points="423.5,-46.1 420,-36.1 416.5,-46.1 423.5,-46.1"/>
<g id="a_edge41&#45;headlabel"><a xlink:href="dir_000275_000284.html" target="_top" xlink:title="2">
<text text-anchor="middle" x="426.34" y="-47.2" font-family="Helvetica,sans-Serif" font-size="10.00">2</text>
</a>
</g>
</g>
<!-- dir_cab9f8330899b1cc9d753b1d9c5c5a3e&#45;&gt;dir_84ef7c054b4edc3447cfba80cee80f65 -->
<g id="edge45" class="edge">
<title>dir_cab9f8330899b1cc9d753b1d9c5c5a3e&#45;&gt;dir_84ef7c054b4edc3447cfba80cee80f65</title>
<path fill="none" stroke="black" d="M391.91,-215.88C406.16,-206.81 423.85,-195.55 439.24,-185.76"/>
<polygon fill="black" stroke="black" points="441.43,-188.51 447.99,-180.19 437.67,-182.61 441.43,-188.51"/>
<g id="a_edge45&#45;headlabel"><a xlink:href="dir_000051_000044.html" target="_top" xlink:title="4">
<text text-anchor="middle" x="439.92" y="-190.34" font-family="Helvetica,sans-Serif" font-size="10.00">4</text>
</a>
</g>
</g>
<!-- dir_cab9f8330899b1cc9d753b1d9c5c5a3e&#45;&gt;dir_f61d47671007dfdb592580b61f960d39 -->
<g id="edge46" class="edge">
<title>dir_cab9f8330899b1cc9d753b1d9c5c5a3e&#45;&gt;dir_f61d47671007dfdb592580b61f960d39</title>
<path fill="none" stroke="black" d="M363.41,-215.84C361.27,-185.61 359.7,-121.39 379,-72 382.94,-61.92 389.43,-52.17 396.09,-43.84"/>
<polygon fill="black" stroke="black" points="398.92,-45.91 402.73,-36.03 393.59,-41.38 398.92,-45.91"/>
<g id="a_edge46&#45;headlabel"><a xlink:href="dir_000051_000284.html" target="_top" xlink:title="6">
<text text-anchor="middle" x="398.76" y="-47.99" font-family="Helvetica,sans-Serif" font-size="10.00">6</text>
</a>
</g>
</g>
</g>
</svg>
