<?xml version="1.0" encoding="UTF-8" standalone="no"?>
<!DOCTYPE svg PUBLIC "-//W3C//DTD SVG 1.1//EN"
 "http://www.w3.org/Graphics/SVG/1.1/DTD/svg11.dtd">
<!-- Generated by graphviz version 2.43.0 (0)
 -->
<!-- Title: lib Pages: 1 -->
<svg width="1739pt" height="132pt"
 viewBox="0.00 0.00 1739.00 132.00" xmlns="http://www.w3.org/2000/svg" xmlns:xlink="http://www.w3.org/1999/xlink">
<g id="graph0" class="graph" transform="scale(1 1) rotate(0) translate(4 128)">
<title>lib</title>
<g id="clust1" class="cluster">
<title>clusterdir_97aefd0d527b934f1d99a682da8fe6a9</title>
<g id="a_clust1"><a xlink:href="dir_97aefd0d527b934f1d99a682da8fe6a9.html" target="_top">
<polygon fill="#eeeeff" stroke="black" points="8,-64 8,-116 1723,-116 1723,-64 8,-64"/>
</a>
</g>
</g>
<!-- dir_97aefd0d527b934f1d99a682da8fe6a9 -->
<g id="node1" class="node">
<title>dir_97aefd0d527b934f1d99a682da8fe6a9</title>
<text text-anchor="middle" x="1688" y="-87.5" font-family="Helvetica,sans-Serif" font-size="10.00">lib</text>
</g>
<!-- dir_a25db018342d3ae6c7e6779086c18378 -->
<g id="node2" class="node">
<title>dir_a25db018342d3ae6c7e6779086c18378</title>
<g id="a_node2"><a xlink:href="dir_a25db018342d3ae6c7e6779086c18378.html" target="_top" xlink:title="Analysis">
<polygon fill="white" stroke="red" points="1643,-108 1585,-108 1585,-72 1643,-72 1643,-108"/>
<text text-anchor="middle" x="1614" y="-87.5" font-family="Helvetica,sans-Serif" font-size="10.00">Analysis</text>
</a>
</g>
</g>
<!-- dir_d44c64559bbebec7f509842c48db8b23 -->
<g id="node23" class="node">
<title>dir_d44c64559bbebec7f509842c48db8b23</title>
<g id="a_node23"><a xlink:href="dir_d44c64559bbebec7f509842c48db8b23.html" target="_top" xlink:title="include">
<polygon fill="none" stroke="red" points="857,-36 803,-36 803,0 857,0 857,-36"/>
<text text-anchor="middle" x="830" y="-15.5" font-family="Helvetica,sans-Serif" font-size="10.00">include</text>
</a>
</g>
</g>
<!-- dir_a25db018342d3ae6c7e6779086c18378&#45;&gt;dir_d44c64559bbebec7f509842c48db8b23 -->
<g id="edge18" class="edge">
<title>dir_a25db018342d3ae6c7e6779086c18378&#45;&gt;dir_d44c64559bbebec7f509842c48db8b23</title>
<path fill="none" stroke="black" d="M1592.1,-71.86C1587.06,-68.71 1581.55,-65.84 1576,-64 1442.48,-19.59 999.68,-18.13 867.54,-18.72"/>
<polygon fill="black" stroke="black" points="867.13,-15.22 857.15,-18.77 867.17,-22.22 867.13,-15.22"/>
<g id="a_edge18&#45;headlabel"><a xlink:href="dir_000323_000001.html" target="_top" xlink:title="167">
<text text-anchor="middle" x="870.71" y="-9.87" font-family="Helvetica,sans-Serif" font-size="10.00">167</text>
</a>
</g>
</g>
<!-- dir_8b9cad5bda480d7b1ec1cf16287f7d91 -->
<g id="node3" class="node">
<title>dir_8b9cad5bda480d7b1ec1cf16287f7d91</title>
<g id="a_node3"><a xlink:href="dir_8b9cad5bda480d7b1ec1cf16287f7d91.html" target="_top" xlink:title="AsmParser">
<polygon fill="white" stroke="black" points="1567,-108 1499,-108 1499,-72 1567,-72 1567,-108"/>
<text text-anchor="middle" x="1533" y="-87.5" font-family="Helvetica,sans-Serif" font-size="10.00">AsmParser</text>
</a>
</g>
</g>
<!-- dir_8b9cad5bda480d7b1ec1cf16287f7d91&#45;&gt;dir_d44c64559bbebec7f509842c48db8b23 -->
<g id="edge14" class="edge">
<title>dir_8b9cad5bda480d7b1ec1cf16287f7d91&#45;&gt;dir_d44c64559bbebec7f509842c48db8b23</title>
<path fill="none" stroke="black" d="M1507.97,-71.9C1502.28,-68.75 1496.11,-65.87 1490,-64 1372.35,-27.95 989.23,-20.72 867.49,-19.32"/>
<polygon fill="black" stroke="black" points="867.24,-15.82 857.2,-19.21 867.16,-22.82 867.24,-15.82"/>
<g id="a_edge14&#45;headlabel"><a xlink:href="dir_000284_000001.html" target="_top" xlink:title="81">
<text text-anchor="middle" x="870.86" y="-10.52" font-family="Helvetica,sans-Serif" font-size="10.00">81</text>
</a>
</g>
</g>
<!-- dir_9f56ffaf3d8f8de92886e7fdaecbdb83 -->
<g id="node4" class="node">
<title>dir_9f56ffaf3d8f8de92886e7fdaecbdb83</title>
<g id="a_node4"><a xlink:href="dir_9f56ffaf3d8f8de92886e7fdaecbdb83.html" target="_top" xlink:title="Bindings">
<polygon fill="white" stroke="red" points="1480.5,-108 1421.5,-108 1421.5,-72 1480.5,-72 1480.5,-108"/>
<text text-anchor="middle" x="1451" y="-87.5" font-family="Helvetica,sans-Serif" font-size="10.00">Bindings</text>
</a>
</g>
</g>
<!-- dir_9f56ffaf3d8f8de92886e7fdaecbdb83&#45;&gt;dir_d44c64559bbebec7f509842c48db8b23 -->
<g id="edge11" class="edge">
<title>dir_9f56ffaf3d8f8de92886e7fdaecbdb83&#45;&gt;dir_d44c64559bbebec7f509842c48db8b23</title>
<path fill="none" stroke="black" d="M1428.45,-71.93C1423.28,-68.78 1417.64,-65.89 1412,-64 1310.31,-29.89 978.89,-21.42 867.16,-19.51"/>
<polygon fill="black" stroke="black" points="867.1,-16.01 857.05,-19.35 866.99,-23.01 867.1,-16.01"/>
<g id="a_edge11&#45;headlabel"><a xlink:href="dir_000054_000001.html" target="_top" xlink:title="114">
<text text-anchor="middle" x="870.75" y="-10.73" font-family="Helvetica,sans-Serif" font-size="10.00">114</text>
</a>
</g>
</g>
<!-- dir_c7a2665fd92b285ef0bce5685e7336ad -->
<g id="node5" class="node">
<title>dir_c7a2665fd92b285ef0bce5685e7336ad</title>
<g id="a_node5"><a xlink:href="dir_c7a2665fd92b285ef0bce5685e7336ad.html" target="_top" xlink:title="Bytecode">
<polygon fill="white" stroke="red" points="1403,-108 1341,-108 1341,-72 1403,-72 1403,-108"/>
<text text-anchor="middle" x="1372" y="-87.5" font-family="Helvetica,sans-Serif" font-size="10.00">Bytecode</text>
</a>
</g>
</g>
<!-- dir_c7a2665fd92b285ef0bce5685e7336ad&#45;&gt;dir_d44c64559bbebec7f509842c48db8b23 -->
<g id="edge15" class="edge">
<title>dir_c7a2665fd92b285ef0bce5685e7336ad&#45;&gt;dir_d44c64559bbebec7f509842c48db8b23</title>
<path fill="none" stroke="black" d="M1348.81,-71.98C1343.51,-68.83 1337.74,-65.93 1332,-64 1245.68,-35.01 967.89,-23.41 867.03,-20.09"/>
<polygon fill="black" stroke="black" points="867.11,-16.59 857.01,-19.77 866.89,-23.59 867.11,-16.59"/>
<g id="a_edge15&#45;headlabel"><a xlink:href="dir_000368_000001.html" target="_top" xlink:title="27">
<text text-anchor="middle" x="870.8" y="-11.37" font-family="Helvetica,sans-Serif" font-size="10.00">27</text>
</a>
</g>
</g>
<!-- dir_2333218f17efae3e90b6d759a11695c8 -->
<g id="node6" class="node">
<title>dir_2333218f17efae3e90b6d759a11695c8</title>
<g id="a_node6"><a xlink:href="dir_2333218f17efae3e90b6d759a11695c8.html" target="_top" xlink:title="CAPI">
<polygon fill="white" stroke="red" points="1323,-108 1269,-108 1269,-72 1323,-72 1323,-108"/>
<text text-anchor="middle" x="1296" y="-87.5" font-family="Helvetica,sans-Serif" font-size="10.00">CAPI</text>
</a>
</g>
</g>
<!-- dir_2333218f17efae3e90b6d759a11695c8&#45;&gt;dir_d44c64559bbebec7f509842c48db8b23 -->
<g id="edge19" class="edge">
<title>dir_2333218f17efae3e90b6d759a11695c8&#45;&gt;dir_d44c64559bbebec7f509842c48db8b23</title>
<path fill="none" stroke="black" d="M1274.9,-71.78C1270.23,-68.72 1265.14,-65.91 1260,-64 1188.26,-37.35 957.96,-24.6 867.23,-20.52"/>
<polygon fill="black" stroke="black" points="867.28,-17.02 857.13,-20.08 866.97,-24.01 867.28,-17.02"/>
<g id="a_edge19&#45;headlabel"><a xlink:href="dir_000359_000001.html" target="_top" xlink:title="254">
<text text-anchor="middle" x="870.99" y="-11.84" font-family="Helvetica,sans-Serif" font-size="10.00">254</text>
</a>
</g>
</g>
<!-- dir_fb3681dc9150b247305e64d29dbc20b7 -->
<g id="node7" class="node">
<title>dir_fb3681dc9150b247305e64d29dbc20b7</title>
<g id="a_node7"><a xlink:href="dir_fb3681dc9150b247305e64d29dbc20b7.html" target="_top" xlink:title="Conversion">
<polygon fill="white" stroke="red" points="1250.5,-108 1179.5,-108 1179.5,-72 1250.5,-72 1250.5,-108"/>
<text text-anchor="middle" x="1215" y="-87.5" font-family="Helvetica,sans-Serif" font-size="10.00">Conversion</text>
</a>
</g>
</g>
<!-- dir_fb3681dc9150b247305e64d29dbc20b7&#45;&gt;dir_d44c64559bbebec7f509842c48db8b23 -->
<g id="edge12" class="edge">
<title>dir_fb3681dc9150b247305e64d29dbc20b7&#45;&gt;dir_d44c64559bbebec7f509842c48db8b23</title>
<path fill="none" stroke="black" d="M1188.14,-71.95C1182.34,-68.88 1176.11,-66.02 1170,-64 1064.19,-29.01 931.35,-21.13 867.57,-19.42"/>
<polygon fill="black" stroke="black" points="867.29,-15.91 857.21,-19.18 867.13,-22.91 867.29,-15.91"/>
<g id="a_edge12&#45;headlabel"><a xlink:href="dir_000094_000001.html" target="_top" xlink:title="1043">
<text text-anchor="middle" x="870.95" y="-10.66" font-family="Helvetica,sans-Serif" font-size="10.00">1043</text>
</a>
</g>
</g>
<!-- dir_16b3056ea5a4b7dd24fe79c68bb88bcd -->
<g id="node8" class="node">
<title>dir_16b3056ea5a4b7dd24fe79c68bb88bcd</title>
<g id="a_node8"><a xlink:href="dir_16b3056ea5a4b7dd24fe79c68bb88bcd.html" target="_top" xlink:title="Debug">
<polygon fill="white" stroke="red" points="1161,-108 1107,-108 1107,-72 1161,-72 1161,-108"/>
<text text-anchor="middle" x="1134" y="-87.5" font-family="Helvetica,sans-Serif" font-size="10.00">Debug</text>
</a>
</g>
</g>
<!-- dir_16b3056ea5a4b7dd24fe79c68bb88bcd&#45;&gt;dir_d44c64559bbebec7f509842c48db8b23 -->
<g id="edge3" class="edge">
<title>dir_16b3056ea5a4b7dd24fe79c68bb88bcd&#45;&gt;dir_d44c64559bbebec7f509842c48db8b23</title>
<path fill="none" stroke="black" d="M1112.42,-71.77C1107.86,-68.79 1102.93,-66.01 1098,-64 1020.12,-32.29 920.79,-22.92 867.62,-20.16"/>
<polygon fill="black" stroke="black" points="867.46,-16.65 857.31,-19.67 867.13,-23.64 867.46,-16.65"/>
<g id="a_edge3&#45;headlabel"><a xlink:href="dir_000465_000001.html" target="_top" xlink:title="20">
<text text-anchor="middle" x="871.18" y="-11.48" font-family="Helvetica,sans-Serif" font-size="10.00">20</text>
</a>
</g>
</g>
<!-- dir_1a25ec519b6c1121408b67cc33ce3f15 -->
<g id="node9" class="node">
<title>dir_1a25ec519b6c1121408b67cc33ce3f15</title>
<g id="a_node9"><a xlink:href="dir_1a25ec519b6c1121408b67cc33ce3f15.html" target="_top" xlink:title="Dialect">
<polygon fill="white" stroke="red" points="1089,-108 1035,-108 1035,-72 1089,-72 1089,-108"/>
<text text-anchor="middle" x="1062" y="-87.5" font-family="Helvetica,sans-Serif" font-size="10.00">Dialect</text>
</a>
</g>
</g>
<!-- dir_1a25ec519b6c1121408b67cc33ce3f15&#45;&gt;dir_d44c64559bbebec7f509842c48db8b23 -->
<g id="edge2" class="edge">
<title>dir_1a25ec519b6c1121408b67cc33ce3f15&#45;&gt;dir_d44c64559bbebec7f509842c48db8b23</title>
<path fill="none" stroke="black" d="M1040.32,-72C1035.77,-69 1030.87,-66.15 1026,-64 973.42,-40.75 907.39,-28.79 866.97,-23.22"/>
<polygon fill="black" stroke="black" points="867.39,-19.74 857.02,-21.9 866.47,-26.68 867.39,-19.74"/>
<g id="a_edge2&#45;headlabel"><a xlink:href="dir_000327_000001.html" target="_top" xlink:title="3634">
<text text-anchor="middle" x="871.32" y="-14.9" font-family="Helvetica,sans-Serif" font-size="10.00">3634</text>
</a>
</g>
</g>
<!-- dir_9ff4c6dc1720636682ab045c894e9bc5 -->
<g id="node10" class="node">
<title>dir_9ff4c6dc1720636682ab045c894e9bc5</title>
<g id="a_node10"><a xlink:href="dir_9ff4c6dc1720636682ab045c894e9bc5.html" target="_top" xlink:title="ExecutionEngine">
<polygon fill="white" stroke="red" points="1016.5,-108 919.5,-108 919.5,-72 1016.5,-72 1016.5,-108"/>
<text text-anchor="middle" x="968" y="-87.5" font-family="Helvetica,sans-Serif" font-size="10.00">ExecutionEngine</text>
</a>
</g>
</g>
<!-- dir_9ff4c6dc1720636682ab045c894e9bc5&#45;&gt;dir_d44c64559bbebec7f509842c48db8b23 -->
<g id="edge10" class="edge">
<title>dir_9ff4c6dc1720636682ab045c894e9bc5&#45;&gt;dir_d44c64559bbebec7f509842c48db8b23</title>
<path fill="none" stroke="black" d="M934.24,-71.88C913.67,-61.44 887.38,-48.1 866.35,-37.44"/>
<polygon fill="black" stroke="black" points="867.89,-34.3 857.39,-32.9 864.73,-40.54 867.89,-34.3"/>
<g id="a_edge10&#45;headlabel"><a xlink:href="dir_000385_000001.html" target="_top" xlink:title="29">
<text text-anchor="middle" x="872.39" y="-30.89" font-family="Helvetica,sans-Serif" font-size="10.00">29</text>
</a>
</g>
</g>
<!-- dir_245813bd18e50524b735948a806de767 -->
<g id="node11" class="node">
<title>dir_245813bd18e50524b735948a806de767</title>
<g id="a_node11"><a xlink:href="dir_245813bd18e50524b735948a806de767.html" target="_top" xlink:title="Interfaces">
<polygon fill="white" stroke="red" points="901.5,-108 836.5,-108 836.5,-72 901.5,-72 901.5,-108"/>
<text text-anchor="middle" x="869" y="-87.5" font-family="Helvetica,sans-Serif" font-size="10.00">Interfaces</text>
</a>
</g>
</g>
<!-- dir_245813bd18e50524b735948a806de767&#45;&gt;dir_d44c64559bbebec7f509842c48db8b23 -->
<g id="edge7" class="edge">
<title>dir_245813bd18e50524b735948a806de767&#45;&gt;dir_d44c64559bbebec7f509842c48db8b23</title>
<path fill="none" stroke="black" d="M859.36,-71.7C854.87,-63.64 849.44,-53.89 844.48,-44.98"/>
<polygon fill="black" stroke="black" points="847.45,-43.14 839.53,-36.1 841.34,-46.54 847.45,-43.14"/>
<g id="a_edge7&#45;headlabel"><a xlink:href="dir_000602_000001.html" target="_top" xlink:title="49">
<text text-anchor="middle" x="851.68" y="-42.39" font-family="Helvetica,sans-Serif" font-size="10.00">49</text>
</a>
</g>
</g>
<!-- dir_bfcfa2223a05221bedc89835a6573260 -->
<g id="node12" class="node">
<title>dir_bfcfa2223a05221bedc89835a6573260</title>
<g id="a_node12"><a xlink:href="dir_bfcfa2223a05221bedc89835a6573260.html" target="_top" xlink:title="IR">
<polygon fill="white" stroke="red" points="818,-108 764,-108 764,-72 818,-72 818,-108"/>
<text text-anchor="middle" x="791" y="-87.5" font-family="Helvetica,sans-Serif" font-size="10.00">IR</text>
</a>
</g>
</g>
<!-- dir_bfcfa2223a05221bedc89835a6573260&#45;&gt;dir_d44c64559bbebec7f509842c48db8b23 -->
<g id="edge8" class="edge">
<title>dir_bfcfa2223a05221bedc89835a6573260&#45;&gt;dir_d44c64559bbebec7f509842c48db8b23</title>
<path fill="none" stroke="black" d="M800.64,-71.7C805.13,-63.64 810.56,-53.89 815.52,-44.98"/>
<polygon fill="black" stroke="black" points="818.66,-46.54 820.47,-36.1 812.55,-43.14 818.66,-46.54"/>
<g id="a_edge8&#45;headlabel"><a xlink:href="dir_000387_000001.html" target="_top" xlink:title="202">
<text text-anchor="middle" x="819.39" y="-48.57" font-family="Helvetica,sans-Serif" font-size="10.00">202</text>
</a>
</g>
</g>
<!-- dir_99640a276a3556821bf5584138fc69f5 -->
<g id="node13" class="node">
<title>dir_99640a276a3556821bf5584138fc69f5</title>
<g id="a_node13"><a xlink:href="dir_99640a276a3556821bf5584138fc69f5.html" target="_top" xlink:title="Parser">
<polygon fill="white" stroke="black" points="746,-108 692,-108 692,-72 746,-72 746,-108"/>
<text text-anchor="middle" x="719" y="-87.5" font-family="Helvetica,sans-Serif" font-size="10.00">Parser</text>
</a>
</g>
</g>
<!-- dir_3ea98e05b8f742bc4c307dbc2eccb9b2 -->
<g id="node14" class="node">
<title>dir_3ea98e05b8f742bc4c307dbc2eccb9b2</title>
<g id="a_node14"><a xlink:href="dir_3ea98e05b8f742bc4c307dbc2eccb9b2.html" target="_top" xlink:title="Pass">
<polygon fill="white" stroke="black" points="674,-108 620,-108 620,-72 674,-72 674,-108"/>
<text text-anchor="middle" x="647" y="-87.5" font-family="Helvetica,sans-Serif" font-size="10.00">Pass</text>
</a>
</g>
</g>
<!-- dir_3ea98e05b8f742bc4c307dbc2eccb9b2&#45;&gt;dir_d44c64559bbebec7f509842c48db8b23 -->
<g id="edge4" class="edge">
<title>dir_3ea98e05b8f742bc4c307dbc2eccb9b2&#45;&gt;dir_d44c64559bbebec7f509842c48db8b23</title>
<path fill="none" stroke="black" d="M669.59,-71.75C673.9,-68.92 678.48,-66.19 683,-64 718.7,-46.67 762.52,-34.29 792.98,-26.95"/>
<polygon fill="black" stroke="black" points="793.84,-30.35 802.77,-24.66 792.24,-23.53 793.84,-30.35"/>
<g id="a_edge4&#45;headlabel"><a xlink:href="dir_000362_000001.html" target="_top" xlink:title="28">
<text text-anchor="middle" x="790.98" y="-31.43" font-family="Helvetica,sans-Serif" font-size="10.00">28</text>
</a>
</g>
</g>
<!-- dir_42c36725764a0e0af860c1afb7c770a9 -->
<g id="node15" class="node">
<title>dir_42c36725764a0e0af860c1afb7c770a9</title>
<g id="a_node15"><a xlink:href="dir_42c36725764a0e0af860c1afb7c770a9.html" target="_top" xlink:title="Query">
<polygon fill="white" stroke="red" points="602,-108 548,-108 548,-72 602,-72 602,-108"/>
<text text-anchor="middle" x="575" y="-87.5" font-family="Helvetica,sans-Serif" font-size="10.00">Query</text>
</a>
</g>
</g>
<!-- dir_42c36725764a0e0af860c1afb7c770a9&#45;&gt;dir_d44c64559bbebec7f509842c48db8b23 -->
<g id="edge16" class="edge">
<title>dir_42c36725764a0e0af860c1afb7c770a9&#45;&gt;dir_d44c64559bbebec7f509842c48db8b23</title>
<path fill="none" stroke="black" d="M596.64,-71.91C601.19,-68.92 606.1,-66.1 611,-64 671.44,-38.1 747.8,-26.77 792.53,-22.07"/>
<polygon fill="black" stroke="black" points="793.06,-25.54 802.66,-21.07 792.36,-18.57 793.06,-25.54"/>
<g id="a_edge16&#45;headlabel"><a xlink:href="dir_000048_000001.html" target="_top" xlink:title="18">
<text text-anchor="middle" x="789.76" y="-26.22" font-family="Helvetica,sans-Serif" font-size="10.00">18</text>
</a>
</g>
</g>
<!-- dir_7ef8f4f434f26620b3fad6cfad93e8c3 -->
<g id="node16" class="node">
<title>dir_7ef8f4f434f26620b3fad6cfad93e8c3</title>
<g id="a_node16"><a xlink:href="dir_7ef8f4f434f26620b3fad6cfad93e8c3.html" target="_top" xlink:title="Reducer">
<polygon fill="white" stroke="black" points="530,-108 474,-108 474,-72 530,-72 530,-108"/>
<text text-anchor="middle" x="502" y="-87.5" font-family="Helvetica,sans-Serif" font-size="10.00">Reducer</text>
</a>
</g>
</g>
<!-- dir_7ef8f4f434f26620b3fad6cfad93e8c3&#45;&gt;dir_d44c64559bbebec7f509842c48db8b23 -->
<g id="edge17" class="edge">
<title>dir_7ef8f4f434f26620b3fad6cfad93e8c3&#45;&gt;dir_d44c64559bbebec7f509842c48db8b23</title>
<path fill="none" stroke="black" d="M523.81,-71.98C528.6,-68.91 533.8,-66.04 539,-64 625.51,-30.06 735.89,-21.63 792.62,-19.6"/>
<polygon fill="black" stroke="black" points="793.01,-23.09 802.9,-19.28 792.8,-16.09 793.01,-23.09"/>
<g id="a_edge17&#45;headlabel"><a xlink:href="dir_000606_000001.html" target="_top" xlink:title="15">
<text text-anchor="middle" x="789.51" y="-23.54" font-family="Helvetica,sans-Serif" font-size="10.00">15</text>
</a>
</g>
</g>
<!-- dir_c79b3ca8dc7b7126169a5161d97c17bc -->
<g id="node17" class="node">
<title>dir_c79b3ca8dc7b7126169a5161d97c17bc</title>
<g id="a_node17"><a xlink:href="dir_c79b3ca8dc7b7126169a5161d97c17bc.html" target="_top" xlink:title="Rewrite">
<polygon fill="white" stroke="black" points="456,-108 402,-108 402,-72 456,-72 456,-108"/>
<text text-anchor="middle" x="429" y="-87.5" font-family="Helvetica,sans-Serif" font-size="10.00">Rewrite</text>
</a>
</g>
</g>
<!-- dir_c79b3ca8dc7b7126169a5161d97c17bc&#45;&gt;dir_d44c64559bbebec7f509842c48db8b23 -->
<g id="edge1" class="edge">
<title>dir_c79b3ca8dc7b7126169a5161d97c17bc&#45;&gt;dir_d44c64559bbebec7f509842c48db8b23</title>
<path fill="none" stroke="black" d="M450.13,-71.85C454.8,-68.79 459.88,-65.95 465,-64 524.37,-41.33 712.1,-26.71 792.68,-21.32"/>
<polygon fill="black" stroke="black" points="793.11,-24.8 802.86,-20.65 792.65,-17.82 793.11,-24.8"/>
<g id="a_edge1&#45;headlabel"><a xlink:href="dir_000607_000001.html" target="_top" xlink:title="10">
<text text-anchor="middle" x="789.71" y="-25.37" font-family="Helvetica,sans-Serif" font-size="10.00">10</text>
</a>
</g>
</g>
<!-- dir_f0dc79bace318df7ec0fa0bdb179ed95 -->
<g id="node18" class="node">
<title>dir_f0dc79bace318df7ec0fa0bdb179ed95</title>
<g id="a_node18"><a xlink:href="dir_f0dc79bace318df7ec0fa0bdb179ed95.html" target="_top" xlink:title="Support">
<polygon fill="white" stroke="black" points="384,-108 330,-108 330,-72 384,-72 384,-108"/>
<text text-anchor="middle" x="357" y="-87.5" font-family="Helvetica,sans-Serif" font-size="10.00">Support</text>
</a>
</g>
</g>
<!-- dir_f0dc79bace318df7ec0fa0bdb179ed95&#45;&gt;dir_d44c64559bbebec7f509842c48db8b23 -->
<g id="edge6" class="edge">
<title>dir_f0dc79bace318df7ec0fa0bdb179ed95&#45;&gt;dir_d44c64559bbebec7f509842c48db8b23</title>
<path fill="none" stroke="black" d="M378.1,-71.77C382.77,-68.71 387.86,-65.9 393,-64 466.01,-36.95 700.52,-24.42 792.49,-20.46"/>
<polygon fill="black" stroke="black" points="792.88,-23.95 802.72,-20.03 792.58,-16.95 792.88,-23.95"/>
<g id="a_edge6&#45;headlabel"><a xlink:href="dir_000608_000001.html" target="_top" xlink:title="14">
<text text-anchor="middle" x="789.41" y="-24.44" font-family="Helvetica,sans-Serif" font-size="10.00">14</text>
</a>
</g>
</g>
<!-- dir_c06f24fb33ff4a816b120f93e814fbca -->
<g id="node19" class="node">
<title>dir_c06f24fb33ff4a816b120f93e814fbca</title>
<g id="a_node19"><a xlink:href="dir_c06f24fb33ff4a816b120f93e814fbca.html" target="_top" xlink:title="TableGen">
<polygon fill="white" stroke="black" points="312,-108 250,-108 250,-72 312,-72 312,-108"/>
<text text-anchor="middle" x="281" y="-87.5" font-family="Helvetica,sans-Serif" font-size="10.00">TableGen</text>
</a>
</g>
</g>
<!-- dir_c06f24fb33ff4a816b120f93e814fbca&#45;&gt;dir_d44c64559bbebec7f509842c48db8b23 -->
<g id="edge20" class="edge">
<title>dir_c06f24fb33ff4a816b120f93e814fbca&#45;&gt;dir_d44c64559bbebec7f509842c48db8b23</title>
<path fill="none" stroke="black" d="M304.19,-71.98C309.49,-68.83 315.25,-65.93 321,-64 408.64,-34.63 690.84,-23.26 792.81,-20.04"/>
<polygon fill="black" stroke="black" points="793.05,-23.54 802.94,-19.73 792.84,-16.54 793.05,-23.54"/>
<g id="a_edge20&#45;headlabel"><a xlink:href="dir_000363_000001.html" target="_top" xlink:title="36">
<text text-anchor="middle" x="789.54" y="-23.99" font-family="Helvetica,sans-Serif" font-size="10.00">36</text>
</a>
</g>
</g>
<!-- dir_794e483eb1cc7921d35fd149d9cc325b -->
<g id="node20" class="node">
<title>dir_794e483eb1cc7921d35fd149d9cc325b</title>
<g id="a_node20"><a xlink:href="dir_794e483eb1cc7921d35fd149d9cc325b.html" target="_top" xlink:title="Target">
<polygon fill="white" stroke="red" points="232,-108 178,-108 178,-72 232,-72 232,-108"/>
<text text-anchor="middle" x="205" y="-87.5" font-family="Helvetica,sans-Serif" font-size="10.00">Target</text>
</a>
</g>
</g>
<!-- dir_794e483eb1cc7921d35fd149d9cc325b&#45;&gt;dir_d44c64559bbebec7f509842c48db8b23 -->
<g id="edge13" class="edge">
<title>dir_794e483eb1cc7921d35fd149d9cc325b&#45;&gt;dir_d44c64559bbebec7f509842c48db8b23</title>
<path fill="none" stroke="black" d="M225.67,-71.92C230.45,-68.77 235.69,-65.89 241,-64 343.38,-27.6 679.87,-20.63 792.72,-19.31"/>
<polygon fill="black" stroke="black" points="792.97,-22.8 802.93,-19.19 792.89,-15.8 792.97,-22.8"/>
<g id="a_edge13&#45;headlabel"><a xlink:href="dir_000351_000001.html" target="_top" xlink:title="252">
<text text-anchor="middle" x="789.41" y="-23.18" font-family="Helvetica,sans-Serif" font-size="10.00">252</text>
</a>
</g>
</g>
<!-- dir_5fe0fdc1a37a7d35ef071fa3f129cdb7 -->
<g id="node21" class="node">
<title>dir_5fe0fdc1a37a7d35ef071fa3f129cdb7</title>
<g id="a_node21"><a xlink:href="dir_5fe0fdc1a37a7d35ef071fa3f129cdb7.html" target="_top" xlink:title="Tools">
<polygon fill="white" stroke="red" points="160,-108 106,-108 106,-72 160,-72 160,-108"/>
<text text-anchor="middle" x="133" y="-87.5" font-family="Helvetica,sans-Serif" font-size="10.00">Tools</text>
</a>
</g>
</g>
<!-- dir_5fe0fdc1a37a7d35ef071fa3f129cdb7&#45;&gt;dir_d44c64559bbebec7f509842c48db8b23 -->
<g id="edge5" class="edge">
<title>dir_5fe0fdc1a37a7d35ef071fa3f129cdb7&#45;&gt;dir_d44c64559bbebec7f509842c48db8b23</title>
<path fill="none" stroke="black" d="M153.66,-71.89C158.44,-68.74 163.69,-65.86 169,-64 285.29,-23.19 670.02,-19.17 792.33,-18.94"/>
<polygon fill="black" stroke="black" points="792.67,-22.44 802.67,-18.93 792.66,-15.44 792.67,-22.44"/>
<g id="a_edge5&#45;headlabel"><a xlink:href="dir_000310_000001.html" target="_top" xlink:title="171">
<text text-anchor="middle" x="789.08" y="-22.79" font-family="Helvetica,sans-Serif" font-size="10.00">171</text>
</a>
</g>
</g>
<!-- dir_a72932e0778af28115095468f6286ff8 -->
<g id="node22" class="node">
<title>dir_a72932e0778af28115095468f6286ff8</title>
<g id="a_node22"><a xlink:href="dir_a72932e0778af28115095468f6286ff8.html" target="_top" xlink:title="Transforms">
<polygon fill="white" stroke="red" points="87.5,-108 16.5,-108 16.5,-72 87.5,-72 87.5,-108"/>
<text text-anchor="middle" x="52" y="-87.5" font-family="Helvetica,sans-Serif" font-size="10.00">Transforms</text>
</a>
</g>
</g>
<!-- dir_a72932e0778af28115095468f6286ff8&#45;&gt;dir_d44c64559bbebec7f509842c48db8b23 -->
<g id="edge9" class="edge">
<title>dir_a72932e0778af28115095468f6286ff8&#45;&gt;dir_d44c64559bbebec7f509842c48db8b23</title>
<path fill="none" stroke="black" d="M78.27,-71.87C84.21,-68.73 90.65,-65.85 97,-64 229.43,-25.32 661.8,-19.88 792.34,-19.12"/>
<polygon fill="black" stroke="black" points="792.64,-22.62 802.62,-19.07 792.61,-15.62 792.64,-22.62"/>
<g id="a_edge9&#45;headlabel"><a xlink:href="dir_000639_000001.html" target="_top" xlink:title="167">
<text text-anchor="middle" x="789.06" y="-22.98" font-family="Helvetica,sans-Serif" font-size="10.00">167</text>
</a>
</g>
</g>
</g>
</svg>
