<?xml version="1.0" encoding="UTF-8" standalone="no"?>
<!DOCTYPE svg PUBLIC "-//W3C//DTD SVG 1.1//EN"
 "http://www.w3.org/Graphics/SVG/1.1/DTD/svg11.dtd">
<!-- Generated by graphviz version 2.43.0 (0)
 -->
<!-- Title: include/mlir/Dialect/ArmSME Pages: 1 -->
<svg width="726pt" height="474pt"
 viewBox="0.00 0.00 726.00 474.17" xmlns="http://www.w3.org/2000/svg" xmlns:xlink="http://www.w3.org/1999/xlink">
<g id="graph0" class="graph" transform="scale(1 1) rotate(0) translate(4 470.17)">
<title>include/mlir/Dialect/ArmSME</title>
<g id="clust1" class="cluster">
<title>clusterdir_d07a6fac82475a065a3b2953573f00a0</title>
<g id="a_clust1"><a xlink:href="dir_d07a6fac82475a065a3b2953573f00a0.html" target="_top" xlink:title="Dialect">
<polygon fill="#ddddee" stroke="black" points="72,-208 72,-431 478,-431 478,-208 72,-208"/>
<text text-anchor="middle" x="275" y="-419" font-family="Helvetica,sans-Serif" font-size="10.00">Dialect</text>
</a>
</g>
</g>
<g id="clust2" class="cluster">
<title>clusterdir_e42d9d2b117d1272004d4481c3e91441</title>
<g id="a_clust2"><a xlink:href="dir_e42d9d2b117d1272004d4481c3e91441.html" target="_top">
<polygon fill="#eeeeff" stroke="black" points="80,-280 80,-404 316,-404 316,-280 80,-280"/>
</a>
</g>
</g>
<!-- dir_8363a04659a248511e559fc4df76a233 -->
<g id="node1" class="node">
<title>dir_8363a04659a248511e559fc4df76a233</title>
<g id="a_node1"><a xlink:href="dir_8363a04659a248511e559fc4df76a233.html" target="_top" xlink:title="LLVMIR">
<polygon fill="none" stroke="red" points="378,-324 324,-324 324,-288 378,-288 378,-324"/>
<text text-anchor="middle" x="351" y="-303.5" font-family="Helvetica,sans-Serif" font-size="10.00">LLVMIR</text>
</a>
</g>
</g>
<!-- dir_51020c1b0909ae629a35fe1c65c620b9 -->
<g id="node8" class="node">
<title>dir_51020c1b0909ae629a35fe1c65c620b9</title>
<g id="a_node8"><a xlink:href="dir_51020c1b0909ae629a35fe1c65c620b9.html" target="_top" xlink:title="Bytecode">
<polygon fill="none" stroke="black" points="318,-180 256,-180 256,-144 318,-144 318,-180"/>
<text text-anchor="middle" x="287" y="-159.5" font-family="Helvetica,sans-Serif" font-size="10.00">Bytecode</text>
</a>
</g>
</g>
<!-- dir_8363a04659a248511e559fc4df76a233&#45;&gt;dir_51020c1b0909ae629a35fe1c65c620b9 -->
<g id="edge17" class="edge">
<title>dir_8363a04659a248511e559fc4df76a233&#45;&gt;dir_51020c1b0909ae629a35fe1c65c620b9</title>
<path fill="none" stroke="black" d="M329.78,-287.98C313.09,-274.36 292.28,-256.78 290,-252 280.83,-232.75 280.67,-208.41 282.47,-190.05"/>
<polygon fill="black" stroke="black" points="285.96,-190.37 283.71,-180.01 279.01,-189.51 285.96,-190.37"/>
<g id="a_edge17&#45;headlabel"><a xlink:href="dir_000125_000050.html" target="_top" xlink:title="5">
<text text-anchor="middle" x="288.34" y="-191.78" font-family="Helvetica,sans-Serif" font-size="10.00">5</text>
</a>
</g>
</g>
<!-- dir_84ef7c054b4edc3447cfba80cee80f65 -->
<g id="node9" class="node">
<title>dir_84ef7c054b4edc3447cfba80cee80f65</title>
<g id="a_node9"><a xlink:href="dir_84ef7c054b4edc3447cfba80cee80f65.html" target="_top" xlink:title="IR">
<polygon fill="none" stroke="black" points="343,-108 289,-108 289,-72 343,-72 343,-108"/>
<text text-anchor="middle" x="316" y="-87.5" font-family="Helvetica,sans-Serif" font-size="10.00">IR</text>
</a>
</g>
</g>
<!-- dir_8363a04659a248511e559fc4df76a233&#45;&gt;dir_84ef7c054b4edc3447cfba80cee80f65 -->
<g id="edge18" class="edge">
<title>dir_8363a04659a248511e559fc4df76a233&#45;&gt;dir_84ef7c054b4edc3447cfba80cee80f65</title>
<path fill="none" stroke="black" d="M330.21,-287.76C326.84,-285.11 323.36,-282.44 320,-280 301.54,-266.6 291.59,-269.53 277,-252 254.82,-225.36 253.8,-213.99 247,-180 243.86,-164.31 239.93,-158.35 247,-144 254.11,-129.58 267.23,-117.99 280.14,-109.37"/>
<polygon fill="black" stroke="black" points="282.33,-112.13 288.97,-103.87 278.63,-106.18 282.33,-112.13"/>
<g id="a_edge18&#45;headlabel"><a xlink:href="dir_000125_000046.html" target="_top" xlink:title="22">
<text text-anchor="middle" x="280.78" y="-113.94" font-family="Helvetica,sans-Serif" font-size="10.00">22</text>
</a>
</g>
</g>
<!-- dir_cf63c3ddb21c79ef735682489f4c6a69 -->
<g id="node10" class="node">
<title>dir_cf63c3ddb21c79ef735682489f4c6a69</title>
<g id="a_node10"><a xlink:href="dir_cf63c3ddb21c79ef735682489f4c6a69.html" target="_top" xlink:title="Interfaces">
<polygon fill="none" stroke="red" points="348.5,-36 283.5,-36 283.5,0 348.5,0 348.5,-36"/>
<text text-anchor="middle" x="316" y="-15.5" font-family="Helvetica,sans-Serif" font-size="10.00">Interfaces</text>
</a>
</g>
</g>
<!-- dir_8363a04659a248511e559fc4df76a233&#45;&gt;dir_cf63c3ddb21c79ef735682489f4c6a69 -->
<g id="edge19" class="edge">
<title>dir_8363a04659a248511e559fc4df76a233&#45;&gt;dir_cf63c3ddb21c79ef735682489f4c6a69</title>
<path fill="none" stroke="black" d="M331.64,-287.92C327.91,-285.07 323.94,-282.3 320,-280 290.68,-262.94 269.97,-278.66 249,-252 229.02,-226.61 241.23,-212.23 239,-180 237.9,-164.04 234.9,-159.47 239,-144 248.43,-108.4 260.53,-103.26 280,-72 285.59,-63.03 291.99,-53.42 297.82,-44.88"/>
<polygon fill="black" stroke="black" points="300.85,-46.66 303.65,-36.44 295.09,-42.68 300.85,-46.66"/>
<g id="a_edge19&#45;headlabel"><a xlink:href="dir_000125_000279.html" target="_top" xlink:title="12">
<text text-anchor="middle" x="301.15" y="-48.73" font-family="Helvetica,sans-Serif" font-size="10.00">12</text>
</a>
</g>
</g>
<!-- dir_cab9f8330899b1cc9d753b1d9c5c5a3e -->
<g id="node12" class="node">
<title>dir_cab9f8330899b1cc9d753b1d9c5c5a3e</title>
<g id="a_node12"><a xlink:href="dir_cab9f8330899b1cc9d753b1d9c5c5a3e.html" target="_top" xlink:title="Pass">
<polygon fill="none" stroke="black" points="549,-180 495,-180 495,-144 549,-144 549,-180"/>
<text text-anchor="middle" x="522" y="-159.5" font-family="Helvetica,sans-Serif" font-size="10.00">Pass</text>
</a>
</g>
</g>
<!-- dir_8363a04659a248511e559fc4df76a233&#45;&gt;dir_cab9f8330899b1cc9d753b1d9c5c5a3e -->
<g id="edge20" class="edge">
<title>dir_8363a04659a248511e559fc4df76a233&#45;&gt;dir_cab9f8330899b1cc9d753b1d9c5c5a3e</title>
<path fill="none" stroke="black" d="M378.29,-292.66C411.72,-277.5 464.2,-253.58 466,-252 485.72,-234.69 500.94,-208.77 510.51,-189.35"/>
<polygon fill="black" stroke="black" points="513.75,-190.68 514.87,-180.15 507.43,-187.69 513.75,-190.68"/>
<g id="a_edge20&#45;headlabel"><a xlink:href="dir_000125_000053.html" target="_top" xlink:title="1">
<text text-anchor="middle" x="514.78" y="-192.65" font-family="Helvetica,sans-Serif" font-size="10.00">1</text>
</a>
</g>
</g>
<!-- dir_47aca9e8d6a16a6d14cf434a05d15774 -->
<g id="node2" class="node">
<title>dir_47aca9e8d6a16a6d14cf434a05d15774</title>
<g id="a_node2"><a xlink:href="dir_47aca9e8d6a16a6d14cf434a05d15774.html" target="_top" xlink:title="SCF">
<polygon fill="none" stroke="red" points="424,-252 370,-252 370,-216 424,-216 424,-252"/>
<text text-anchor="middle" x="397" y="-231.5" font-family="Helvetica,sans-Serif" font-size="10.00">SCF</text>
</a>
</g>
</g>
<!-- dir_47aca9e8d6a16a6d14cf434a05d15774&#45;&gt;dir_51020c1b0909ae629a35fe1c65c620b9 -->
<g id="edge24" class="edge">
<title>dir_47aca9e8d6a16a6d14cf434a05d15774&#45;&gt;dir_51020c1b0909ae629a35fe1c65c620b9</title>
<path fill="none" stroke="black" d="M370.09,-215.88C355.84,-206.81 338.15,-195.55 322.76,-185.76"/>
<polygon fill="black" stroke="black" points="324.33,-182.61 314.01,-180.19 320.57,-188.51 324.33,-182.61"/>
<g id="a_edge24&#45;headlabel"><a xlink:href="dir_000029_000050.html" target="_top" xlink:title="1">
<text text-anchor="middle" x="328.89" y="-179.64" font-family="Helvetica,sans-Serif" font-size="10.00">1</text>
</a>
</g>
</g>
<!-- dir_47aca9e8d6a16a6d14cf434a05d15774&#45;&gt;dir_84ef7c054b4edc3447cfba80cee80f65 -->
<g id="edge22" class="edge">
<title>dir_47aca9e8d6a16a6d14cf434a05d15774&#45;&gt;dir_84ef7c054b4edc3447cfba80cee80f65</title>
<path fill="none" stroke="black" d="M391.6,-215.88C385.38,-197.41 374.19,-167.49 360,-144 354.1,-134.23 346.47,-124.37 339.24,-115.85"/>
<polygon fill="black" stroke="black" points="341.71,-113.36 332.49,-108.14 336.44,-117.97 341.71,-113.36"/>
<g id="a_edge22&#45;headlabel"><a xlink:href="dir_000029_000046.html" target="_top" xlink:title="8">
<text text-anchor="middle" x="346.21" y="-111.69" font-family="Helvetica,sans-Serif" font-size="10.00">8</text>
</a>
</g>
</g>
<!-- dir_47aca9e8d6a16a6d14cf434a05d15774&#45;&gt;dir_cf63c3ddb21c79ef735682489f4c6a69 -->
<g id="edge23" class="edge">
<title>dir_47aca9e8d6a16a6d14cf434a05d15774&#45;&gt;dir_cf63c3ddb21c79ef735682489f4c6a69</title>
<path fill="none" stroke="black" d="M395.26,-215.68C393.17,-197.55 389.04,-168.39 382,-144 372.39,-110.69 368.49,-102.49 352,-72 346.97,-62.7 340.72,-53.01 334.84,-44.49"/>
<polygon fill="black" stroke="black" points="337.55,-42.26 328.92,-36.11 331.83,-46.29 337.55,-42.26"/>
<g id="a_edge23&#45;headlabel"><a xlink:href="dir_000029_000279.html" target="_top" xlink:title="11">
<text text-anchor="middle" x="341.94" y="-41.05" font-family="Helvetica,sans-Serif" font-size="10.00">11</text>
</a>
</g>
</g>
<!-- dir_47aca9e8d6a16a6d14cf434a05d15774&#45;&gt;dir_cab9f8330899b1cc9d753b1d9c5c5a3e -->
<g id="edge25" class="edge">
<title>dir_47aca9e8d6a16a6d14cf434a05d15774&#45;&gt;dir_cab9f8330899b1cc9d753b1d9c5c5a3e</title>
<path fill="none" stroke="black" d="M424.12,-217.81C442.31,-207.63 466.44,-194.11 486.2,-183.05"/>
<polygon fill="black" stroke="black" points="487.91,-186.1 494.93,-178.16 484.49,-179.99 487.91,-186.1"/>
<g id="a_edge25&#45;headlabel"><a xlink:href="dir_000029_000053.html" target="_top" xlink:title="1">
<text text-anchor="middle" x="486.17" y="-187.83" font-family="Helvetica,sans-Serif" font-size="10.00">1</text>
</a>
</g>
</g>
<!-- dir_bfd3493254b3df47293537524626123b -->
<g id="node3" class="node">
<title>dir_bfd3493254b3df47293537524626123b</title>
<g id="a_node3"><a xlink:href="dir_bfd3493254b3df47293537524626123b.html" target="_top" xlink:title="Vector">
<polygon fill="none" stroke="red" points="470,-324 416,-324 416,-288 470,-288 470,-324"/>
<text text-anchor="middle" x="443" y="-303.5" font-family="Helvetica,sans-Serif" font-size="10.00">Vector</text>
</a>
</g>
</g>
<!-- dir_bfd3493254b3df47293537524626123b&#45;&gt;dir_51020c1b0909ae629a35fe1c65c620b9 -->
<g id="edge13" class="edge">
<title>dir_bfd3493254b3df47293537524626123b&#45;&gt;dir_51020c1b0909ae629a35fe1c65c620b9</title>
<path fill="none" stroke="black" d="M415.97,-292.82C382.51,-277.71 329.7,-253.7 328,-252 310.87,-234.87 300.11,-209.26 293.94,-189.9"/>
<polygon fill="black" stroke="black" points="297.24,-188.74 291.04,-180.16 290.53,-190.74 297.24,-188.74"/>
<g id="a_edge13&#45;headlabel"><a xlink:href="dir_000151_000050.html" target="_top" xlink:title="1">
<text text-anchor="middle" x="300.99" y="-188.88" font-family="Helvetica,sans-Serif" font-size="10.00">1</text>
</a>
</g>
</g>
<!-- dir_bfd3493254b3df47293537524626123b&#45;&gt;dir_84ef7c054b4edc3447cfba80cee80f65 -->
<g id="edge14" class="edge">
<title>dir_bfd3493254b3df47293537524626123b&#45;&gt;dir_84ef7c054b4edc3447cfba80cee80f65</title>
<path fill="none" stroke="black" d="M415.64,-293.6C397.62,-284.77 374.87,-270.84 361,-252 352.99,-241.12 332.84,-160.94 322.43,-117.99"/>
<polygon fill="black" stroke="black" points="325.82,-117.09 320.07,-108.18 319.01,-118.72 325.82,-117.09"/>
<g id="a_edge14&#45;headlabel"><a xlink:href="dir_000151_000046.html" target="_top" xlink:title="13">
<text text-anchor="middle" x="329.42" y="-117.42" font-family="Helvetica,sans-Serif" font-size="10.00">13</text>
</a>
</g>
</g>
<!-- dir_bfd3493254b3df47293537524626123b&#45;&gt;dir_cf63c3ddb21c79ef735682489f4c6a69 -->
<g id="edge16" class="edge">
<title>dir_bfd3493254b3df47293537524626123b&#45;&gt;dir_cf63c3ddb21c79ef735682489f4c6a69</title>
<path fill="none" stroke="black" d="M470.22,-292.47C487.71,-283.3 509.91,-269.43 525,-252 557.84,-214.05 584.11,-186.87 558,-144 514.49,-72.56 415.58,-40.17 358.59,-26.97"/>
<polygon fill="black" stroke="black" points="359.32,-23.55 348.8,-24.79 357.81,-30.38 359.32,-23.55"/>
<g id="a_edge16&#45;headlabel"><a xlink:href="dir_000151_000279.html" target="_top" xlink:title="9">
<text text-anchor="middle" x="363.45" y="-19.05" font-family="Helvetica,sans-Serif" font-size="10.00">9</text>
</a>
</g>
</g>
<!-- dir_bfd3493254b3df47293537524626123b&#45;&gt;dir_cab9f8330899b1cc9d753b1d9c5c5a3e -->
<g id="edge15" class="edge">
<title>dir_bfd3493254b3df47293537524626123b&#45;&gt;dir_cab9f8330899b1cc9d753b1d9c5c5a3e</title>
<path fill="none" stroke="black" d="M469.8,-287.87C482.06,-278.68 495.67,-266.3 504,-252 514.95,-233.21 519.32,-208.83 521.03,-190.34"/>
<polygon fill="black" stroke="black" points="524.53,-190.45 521.76,-180.22 517.55,-189.95 524.53,-190.45"/>
<g id="a_edge15&#45;headlabel"><a xlink:href="dir_000151_000053.html" target="_top" xlink:title="1">
<text text-anchor="middle" x="527.11" y="-191.74" font-family="Helvetica,sans-Serif" font-size="10.00">1</text>
</a>
</g>
</g>
<!-- dir_e42d9d2b117d1272004d4481c3e91441 -->
<g id="node4" class="node">
<title>dir_e42d9d2b117d1272004d4481c3e91441</title>
<text text-anchor="middle" x="279" y="-375.5" font-family="Helvetica,sans-Serif" font-size="10.00">ArmSME</text>
</g>
<!-- dir_74f8b9178a6e50d7374c597d3528e343 -->
<g id="node5" class="node">
<title>dir_74f8b9178a6e50d7374c597d3528e343</title>
<g id="a_node5"><a xlink:href="dir_74f8b9178a6e50d7374c597d3528e343.html" target="_top" xlink:title="IR">
<polygon fill="white" stroke="black" points="142,-396 88,-396 88,-360 142,-360 142,-396"/>
<text text-anchor="middle" x="115" y="-375.5" font-family="Helvetica,sans-Serif" font-size="10.00">IR</text>
</a>
</g>
</g>
<!-- dir_74f8b9178a6e50d7374c597d3528e343&#45;&gt;dir_8363a04659a248511e559fc4df76a233 -->
<g id="edge34" class="edge">
<title>dir_74f8b9178a6e50d7374c597d3528e343&#45;&gt;dir_8363a04659a248511e559fc4df76a233</title>
<path fill="none" stroke="black" d="M142.21,-363.69C145.47,-362.34 148.78,-361.07 152,-360 221.35,-336.95 246.29,-349.45 314.38,-325.86"/>
<polygon fill="black" stroke="black" points="315.6,-329.15 323.82,-322.46 313.23,-322.56 315.6,-329.15"/>
<g id="a_edge34&#45;headlabel"><a xlink:href="dir_000207_000125.html" target="_top" xlink:title="1">
<text text-anchor="middle" x="313.18" y="-330.54" font-family="Helvetica,sans-Serif" font-size="10.00">1</text>
</a>
</g>
</g>
<!-- dir_74f8b9178a6e50d7374c597d3528e343&#45;&gt;dir_47aca9e8d6a16a6d14cf434a05d15774 -->
<g id="edge32" class="edge">
<title>dir_74f8b9178a6e50d7374c597d3528e343&#45;&gt;dir_47aca9e8d6a16a6d14cf434a05d15774</title>
<path fill="none" stroke="black" d="M142.15,-363.5C145.42,-362.18 148.75,-360.97 152,-360 202.6,-344.82 350.4,-362.1 387,-324 402.43,-307.94 403.72,-281.98 401.87,-262.24"/>
<polygon fill="black" stroke="black" points="405.34,-261.77 400.63,-252.28 398.39,-262.64 405.34,-261.77"/>
<g id="a_edge32&#45;headlabel"><a xlink:href="dir_000207_000029.html" target="_top" xlink:title="1">
<text text-anchor="middle" x="408.6" y="-262.49" font-family="Helvetica,sans-Serif" font-size="10.00">1</text>
</a>
</g>
</g>
<!-- dir_74f8b9178a6e50d7374c597d3528e343&#45;&gt;dir_bfd3493254b3df47293537524626123b -->
<g id="edge36" class="edge">
<title>dir_74f8b9178a6e50d7374c597d3528e343&#45;&gt;dir_bfd3493254b3df47293537524626123b</title>
<path fill="none" stroke="black" d="M142.14,-363.47C145.41,-362.16 148.75,-360.96 152,-360 259.67,-328.24 293.75,-353.73 402,-324 403.44,-323.6 404.9,-323.17 406.36,-322.71"/>
<polygon fill="black" stroke="black" points="407.72,-325.94 415.99,-319.31 405.39,-319.34 407.72,-325.94"/>
<g id="a_edge36&#45;headlabel"><a xlink:href="dir_000207_000151.html" target="_top" xlink:title="2">
<text text-anchor="middle" x="405.28" y="-327.31" font-family="Helvetica,sans-Serif" font-size="10.00">2</text>
</a>
</g>
</g>
<!-- dir_031e5175b9f471dbaec2522156ed612f -->
<g id="node7" class="node">
<title>dir_031e5175b9f471dbaec2522156ed612f</title>
<g id="a_node7"><a xlink:href="dir_031e5175b9f471dbaec2522156ed612f.html" target="_top" xlink:title="Utils">
<polygon fill="white" stroke="black" points="234,-324 180,-324 180,-288 234,-288 234,-324"/>
<text text-anchor="middle" x="207" y="-303.5" font-family="Helvetica,sans-Serif" font-size="10.00">Utils</text>
</a>
</g>
</g>
<!-- dir_74f8b9178a6e50d7374c597d3528e343&#45;&gt;dir_031e5175b9f471dbaec2522156ed612f -->
<g id="edge31" class="edge">
<title>dir_74f8b9178a6e50d7374c597d3528e343&#45;&gt;dir_031e5175b9f471dbaec2522156ed612f</title>
<path fill="none" stroke="black" d="M131.83,-359.7C143.03,-350.44 158,-338.95 171.68,-329.06"/>
<polygon fill="black" stroke="black" points="173.88,-331.8 179.99,-323.14 169.82,-326.09 173.88,-331.8"/>
<g id="a_edge31&#45;headlabel"><a xlink:href="dir_000207_000020.html" target="_top" xlink:title="1">
<text text-anchor="middle" x="172.59" y="-333.69" font-family="Helvetica,sans-Serif" font-size="10.00">1</text>
</a>
</g>
</g>
<!-- dir_74f8b9178a6e50d7374c597d3528e343&#45;&gt;dir_51020c1b0909ae629a35fe1c65c620b9 -->
<g id="edge33" class="edge">
<title>dir_74f8b9178a6e50d7374c597d3528e343&#45;&gt;dir_51020c1b0909ae629a35fe1c65c620b9</title>
<path fill="none" stroke="black" d="M110.56,-359.84C103.02,-326.45 91.84,-252.18 128,-208 142.9,-189.8 203.95,-176.45 245.91,-169.21"/>
<polygon fill="black" stroke="black" points="246.58,-172.64 255.87,-167.54 245.43,-165.74 246.58,-172.64"/>
<g id="a_edge33&#45;headlabel"><a xlink:href="dir_000207_000050.html" target="_top" xlink:title="1">
<text text-anchor="middle" x="243.5" y="-173.54" font-family="Helvetica,sans-Serif" font-size="10.00">1</text>
</a>
</g>
</g>
<!-- dir_74f8b9178a6e50d7374c597d3528e343&#45;&gt;dir_84ef7c054b4edc3447cfba80cee80f65 -->
<g id="edge35" class="edge">
<title>dir_74f8b9178a6e50d7374c597d3528e343&#45;&gt;dir_84ef7c054b4edc3447cfba80cee80f65</title>
<path fill="none" stroke="black" d="M108.18,-359.75C96.7,-327.79 77.16,-258.05 103,-208 137.58,-141.01 227.66,-110.53 278.92,-98.24"/>
<polygon fill="black" stroke="black" points="279.96,-101.59 288.93,-95.95 278.4,-94.77 279.96,-101.59"/>
<g id="a_edge35&#45;headlabel"><a xlink:href="dir_000207_000046.html" target="_top" xlink:title="4">
<text text-anchor="middle" x="277.09" y="-102.66" font-family="Helvetica,sans-Serif" font-size="10.00">4</text>
</a>
</g>
</g>
<!-- dir_74f8b9178a6e50d7374c597d3528e343&#45;&gt;dir_cf63c3ddb21c79ef735682489f4c6a69 -->
<g id="edge37" class="edge">
<title>dir_74f8b9178a6e50d7374c597d3528e343&#45;&gt;dir_cf63c3ddb21c79ef735682489f4c6a69</title>
<path fill="none" stroke="black" d="M87.75,-360.02C53.74,-336.49 0,-290.52 0,-235 0,-235 0,-235 0,-161 0,-42.52 187.11,-22.3 273.37,-19.27"/>
<polygon fill="black" stroke="black" points="273.48,-22.77 283.37,-18.98 273.28,-15.77 273.48,-22.77"/>
<g id="a_edge37&#45;headlabel"><a xlink:href="dir_000207_000279.html" target="_top" xlink:title="1">
<text text-anchor="middle" x="269.97" y="-23.21" font-family="Helvetica,sans-Serif" font-size="10.00">1</text>
</a>
</g>
</g>
<!-- dir_9432bf9be6086ca494805f45e0dd1246 -->
<g id="node6" class="node">
<title>dir_9432bf9be6086ca494805f45e0dd1246</title>
<g id="a_node6"><a xlink:href="dir_9432bf9be6086ca494805f45e0dd1246.html" target="_top" xlink:title="Transforms">
<polygon fill="white" stroke="black" points="231.5,-396 160.5,-396 160.5,-360 231.5,-360 231.5,-396"/>
<text text-anchor="middle" x="196" y="-375.5" font-family="Helvetica,sans-Serif" font-size="10.00">Transforms</text>
</a>
</g>
</g>
<!-- dir_9432bf9be6086ca494805f45e0dd1246&#45;&gt;dir_cf63c3ddb21c79ef735682489f4c6a69 -->
<g id="edge30" class="edge">
<title>dir_9432bf9be6086ca494805f45e0dd1246&#45;&gt;dir_cf63c3ddb21c79ef735682489f4c6a69</title>
<path fill="none" stroke="black" d="M186.6,-359.76C181.38,-349.6 175.13,-336.35 171,-324 154.5,-274.7 146.38,-259.09 156,-208 169.6,-135.79 195.82,-121.63 250,-72 261.07,-61.86 273.82,-51.36 285.15,-42.42"/>
<polygon fill="black" stroke="black" points="287.37,-45.12 293.1,-36.21 283.06,-39.61 287.37,-45.12"/>
<g id="a_edge30&#45;headlabel"><a xlink:href="dir_000113_000279.html" target="_top" xlink:title="1">
<text text-anchor="middle" x="286.29" y="-47.07" font-family="Helvetica,sans-Serif" font-size="10.00">1</text>
</a>
</g>
</g>
<!-- dir_37f3372f1e76d74ffd54613af9306e43 -->
<g id="node11" class="node">
<title>dir_37f3372f1e76d74ffd54613af9306e43</title>
<g id="a_node11"><a xlink:href="dir_37f3372f1e76d74ffd54613af9306e43.html" target="_top" xlink:title="Conversion">
<polygon fill="none" stroke="red" points="598.5,-396 527.5,-396 527.5,-360 598.5,-360 598.5,-396"/>
<text text-anchor="middle" x="563" y="-375.5" font-family="Helvetica,sans-Serif" font-size="10.00">Conversion</text>
</a>
</g>
</g>
<!-- dir_9432bf9be6086ca494805f45e0dd1246&#45;&gt;dir_37f3372f1e76d74ffd54613af9306e43 -->
<g id="edge28" class="edge">
<title>dir_9432bf9be6086ca494805f45e0dd1246&#45;&gt;dir_37f3372f1e76d74ffd54613af9306e43</title>
<path fill="none" stroke="black" d="M203.88,-396.14C212.45,-413.32 227.94,-438.06 250,-449 342.83,-495.03 465.95,-436.73 526.37,-401.38"/>
<polygon fill="black" stroke="black" points="528.37,-404.26 535.17,-396.13 524.79,-398.24 528.37,-404.26"/>
<g id="a_edge28&#45;headlabel"><a xlink:href="dir_000113_000056.html" target="_top" xlink:title="1">
<text text-anchor="middle" x="526.74" y="-406.04" font-family="Helvetica,sans-Serif" font-size="10.00">1</text>
</a>
</g>
</g>
<!-- dir_9432bf9be6086ca494805f45e0dd1246&#45;&gt;dir_cab9f8330899b1cc9d753b1d9c5c5a3e -->
<g id="edge29" class="edge">
<title>dir_9432bf9be6086ca494805f45e0dd1246&#45;&gt;dir_cab9f8330899b1cc9d753b1d9c5c5a3e</title>
<path fill="none" stroke="black" d="M231.64,-362.75C234.78,-361.74 237.93,-360.8 241,-360 345.8,-332.71 392.03,-384.29 482,-324 527.68,-293.39 526.83,-262.95 525,-208 524.81,-202.23 524.48,-196.05 524.1,-190.17"/>
<polygon fill="black" stroke="black" points="527.59,-189.82 523.41,-180.08 520.6,-190.3 527.59,-189.82"/>
<g id="a_edge29&#45;headlabel"><a xlink:href="dir_000113_000053.html" target="_top" xlink:title="1">
<text text-anchor="middle" x="530.67" y="-190.71" font-family="Helvetica,sans-Serif" font-size="10.00">1</text>
</a>
</g>
</g>
<!-- dir_031e5175b9f471dbaec2522156ed612f&#45;&gt;dir_47aca9e8d6a16a6d14cf434a05d15774 -->
<g id="edge9" class="edge">
<title>dir_031e5175b9f471dbaec2522156ed612f&#45;&gt;dir_47aca9e8d6a16a6d14cf434a05d15774</title>
<path fill="none" stroke="black" d="M225.84,-287.85C229.68,-284.94 233.82,-282.16 238,-280 277.09,-259.79 326.42,-247.64 359.69,-241.15"/>
<polygon fill="black" stroke="black" points="360.71,-244.52 369.89,-239.24 359.42,-237.64 360.71,-244.52"/>
<g id="a_edge9&#45;headlabel"><a xlink:href="dir_000020_000029.html" target="_top" xlink:title="1">
<text text-anchor="middle" x="357.7" y="-245.47" font-family="Helvetica,sans-Serif" font-size="10.00">1</text>
</a>
</g>
</g>
<!-- dir_031e5175b9f471dbaec2522156ed612f&#45;&gt;dir_74f8b9178a6e50d7374c597d3528e343 -->
<g id="edge10" class="edge">
<title>dir_031e5175b9f471dbaec2522156ed612f&#45;&gt;dir_74f8b9178a6e50d7374c597d3528e343</title>
<path fill="none" stroke="black" d="M190.39,-324.12C179.2,-333.37 164.2,-344.9 150.47,-354.82"/>
<polygon fill="black" stroke="black" points="148.25,-352.11 142.14,-360.76 152.31,-357.81 148.25,-352.11"/>
<g id="a_edge10&#45;headlabel"><a xlink:href="dir_000020_000207.html" target="_top" xlink:title="2">
<text text-anchor="middle" x="149.53" y="-345.21" font-family="Helvetica,sans-Serif" font-size="10.00">2</text>
</a>
</g>
</g>
<!-- dir_031e5175b9f471dbaec2522156ed612f&#45;&gt;dir_84ef7c054b4edc3447cfba80cee80f65 -->
<g id="edge11" class="edge">
<title>dir_031e5175b9f471dbaec2522156ed612f&#45;&gt;dir_84ef7c054b4edc3447cfba80cee80f65</title>
<path fill="none" stroke="black" d="M188.83,-287.68C180.12,-278.1 170.59,-265.43 166,-252 159.68,-233.49 157.93,-225.81 166,-208 188.15,-159.12 242.61,-125.16 279.44,-106.87"/>
<polygon fill="black" stroke="black" points="281.36,-109.83 288.86,-102.34 278.33,-103.52 281.36,-109.83"/>
<g id="a_edge11&#45;headlabel"><a xlink:href="dir_000020_000046.html" target="_top" xlink:title="1">
<text text-anchor="middle" x="279.35" y="-111.44" font-family="Helvetica,sans-Serif" font-size="10.00">1</text>
</a>
</g>
</g>
<!-- dir_031e5175b9f471dbaec2522156ed612f&#45;&gt;dir_cf63c3ddb21c79ef735682489f4c6a69 -->
<g id="edge12" class="edge">
<title>dir_031e5175b9f471dbaec2522156ed612f&#45;&gt;dir_cf63c3ddb21c79ef735682489f4c6a69</title>
<path fill="none" stroke="black" d="M224.94,-287.89C228.98,-284.82 233.43,-281.98 238,-280 279.18,-262.16 408.55,-285.86 438,-252 495.6,-185.78 397.92,-87.64 345.67,-42.85"/>
<polygon fill="black" stroke="black" points="347.61,-39.91 337.71,-36.13 343.1,-45.26 347.61,-39.91"/>
<g id="a_edge12&#45;headlabel"><a xlink:href="dir_000020_000279.html" target="_top" xlink:title="1">
<text text-anchor="middle" x="352.19" y="-37.55" font-family="Helvetica,sans-Serif" font-size="10.00">1</text>
</a>
</g>
</g>
<!-- dir_51020c1b0909ae629a35fe1c65c620b9&#45;&gt;dir_84ef7c054b4edc3447cfba80cee80f65 -->
<g id="edge21" class="edge">
<title>dir_51020c1b0909ae629a35fe1c65c620b9&#45;&gt;dir_84ef7c054b4edc3447cfba80cee80f65</title>
<path fill="none" stroke="black" d="M288.25,-143.7C290.73,-135.73 294.51,-126.1 298.56,-117.26"/>
<polygon fill="black" stroke="black" points="301.79,-118.63 303.02,-108.1 295.49,-115.56 301.79,-118.63"/>
<g id="a_edge21&#45;headlabel"><a xlink:href="dir_000050_000046.html" target="_top" xlink:title="9">
<text text-anchor="middle" x="302.77" y="-120.6" font-family="Helvetica,sans-Serif" font-size="10.00">9</text>
</a>
</g>
</g>
<!-- dir_84ef7c054b4edc3447cfba80cee80f65&#45;&gt;dir_51020c1b0909ae629a35fe1c65c620b9 -->
<g id="edge1" class="edge">
<title>dir_84ef7c054b4edc3447cfba80cee80f65&#45;&gt;dir_51020c1b0909ae629a35fe1c65c620b9</title>
<path fill="none" stroke="black" d="M314.81,-108.1C312.35,-116.04 308.59,-125.67 304.54,-134.51"/>
<polygon fill="black" stroke="black" points="301.3,-133.17 300.08,-143.7 307.6,-136.23 301.3,-133.17"/>
<g id="a_edge1&#45;headlabel"><a xlink:href="dir_000046_000050.html" target="_top" xlink:title="2">
<text text-anchor="middle" x="300.32" y="-126.2" font-family="Helvetica,sans-Serif" font-size="10.00">2</text>
</a>
</g>
</g>
<!-- dir_84ef7c054b4edc3447cfba80cee80f65&#45;&gt;dir_cf63c3ddb21c79ef735682489f4c6a69 -->
<g id="edge2" class="edge">
<title>dir_84ef7c054b4edc3447cfba80cee80f65&#45;&gt;dir_cf63c3ddb21c79ef735682489f4c6a69</title>
<path fill="none" stroke="black" d="M310.08,-71.7C309.29,-63.98 309.06,-54.71 309.4,-46.11"/>
<polygon fill="black" stroke="black" points="312.9,-46.32 310.1,-36.1 305.92,-45.84 312.9,-46.32"/>
<g id="a_edge2&#45;headlabel"><a xlink:href="dir_000046_000279.html" target="_top" xlink:title="3">
<text text-anchor="middle" x="315.48" y="-47.61" font-family="Helvetica,sans-Serif" font-size="10.00">3</text>
</a>
</g>
</g>
<!-- dir_cf63c3ddb21c79ef735682489f4c6a69&#45;&gt;dir_84ef7c054b4edc3447cfba80cee80f65 -->
<g id="edge26" class="edge">
<title>dir_cf63c3ddb21c79ef735682489f4c6a69&#45;&gt;dir_84ef7c054b4edc3447cfba80cee80f65</title>
<path fill="none" stroke="black" d="M321.9,-36.1C322.7,-43.79 322.94,-53.05 322.6,-61.67"/>
<polygon fill="black" stroke="black" points="319.11,-61.48 321.92,-71.7 326.09,-61.96 319.11,-61.48"/>
<g id="a_edge26&#45;headlabel"><a xlink:href="dir_000279_000046.html" target="_top" xlink:title="54">
<text text-anchor="middle" x="316.52" y="-55.2" font-family="Helvetica,sans-Serif" font-size="10.00">54</text>
</a>
</g>
</g>
<!-- dir_37f3372f1e76d74ffd54613af9306e43&#45;&gt;dir_8363a04659a248511e559fc4df76a233 -->
<g id="edge3" class="edge">
<title>dir_37f3372f1e76d74ffd54613af9306e43&#45;&gt;dir_8363a04659a248511e559fc4df76a233</title>
<path fill="none" stroke="black" d="M527.04,-365.13C488.24,-352.32 426.79,-332.02 387.7,-319.12"/>
<polygon fill="black" stroke="black" points="388.63,-315.74 378.04,-315.93 386.43,-322.39 388.63,-315.74"/>
<g id="a_edge3&#45;headlabel"><a xlink:href="dir_000056_000125.html" target="_top" xlink:title="6">
<text text-anchor="middle" x="392.93" y="-311.67" font-family="Helvetica,sans-Serif" font-size="10.00">6</text>
</a>
</g>
</g>
<!-- dir_37f3372f1e76d74ffd54613af9306e43&#45;&gt;dir_bfd3493254b3df47293537524626123b -->
<g id="edge8" class="edge">
<title>dir_37f3372f1e76d74ffd54613af9306e43&#45;&gt;dir_bfd3493254b3df47293537524626123b</title>
<path fill="none" stroke="black" d="M533.64,-359.88C517.1,-350.23 496.31,-338.1 478.81,-327.89"/>
<polygon fill="black" stroke="black" points="480.4,-324.77 470,-322.75 476.87,-330.81 480.4,-324.77"/>
<g id="a_edge8&#45;headlabel"><a xlink:href="dir_000056_000151.html" target="_top" xlink:title="1">
<text text-anchor="middle" x="484.94" y="-321.62" font-family="Helvetica,sans-Serif" font-size="10.00">1</text>
</a>
</g>
</g>
<!-- dir_37f3372f1e76d74ffd54613af9306e43&#45;&gt;dir_9432bf9be6086ca494805f45e0dd1246 -->
<g id="edge5" class="edge">
<title>dir_37f3372f1e76d74ffd54613af9306e43&#45;&gt;dir_9432bf9be6086ca494805f45e0dd1246</title>
<path fill="none" stroke="black" d="M535.17,-396.13C478.67,-430.46 347.6,-497.39 250,-449 231.56,-439.86 217.71,-421.07 208.66,-405.12"/>
<polygon fill="black" stroke="black" points="211.67,-403.33 203.88,-396.14 205.49,-406.62 211.67,-403.33"/>
<g id="a_edge5&#45;headlabel"><a xlink:href="dir_000056_000113.html" target="_top" xlink:title="1">
<text text-anchor="middle" x="215.86" y="-402.67" font-family="Helvetica,sans-Serif" font-size="10.00">1</text>
</a>
</g>
</g>
<!-- dir_37f3372f1e76d74ffd54613af9306e43&#45;&gt;dir_84ef7c054b4edc3447cfba80cee80f65 -->
<g id="edge4" class="edge">
<title>dir_37f3372f1e76d74ffd54613af9306e43&#45;&gt;dir_84ef7c054b4edc3447cfba80cee80f65</title>
<path fill="none" stroke="black" d="M579.04,-359.85C587.01,-350.12 595.83,-337.27 600,-324 624.65,-245.64 625.41,-190.95 558,-144 525.2,-121.16 412.49,-103.55 353.18,-95.61"/>
<polygon fill="black" stroke="black" points="353.47,-92.12 343.1,-94.29 352.56,-99.06 353.47,-92.12"/>
<g id="a_edge4&#45;headlabel"><a xlink:href="dir_000056_000046.html" target="_top" xlink:title="23">
<text text-anchor="middle" x="357.4" y="-87.28" font-family="Helvetica,sans-Serif" font-size="10.00">23</text>
</a>
</g>
</g>
<!-- dir_37f3372f1e76d74ffd54613af9306e43&#45;&gt;dir_cf63c3ddb21c79ef735682489f4c6a69 -->
<g id="edge7" class="edge">
<title>dir_37f3372f1e76d74ffd54613af9306e43&#45;&gt;dir_cf63c3ddb21c79ef735682489f4c6a69</title>
<path fill="none" stroke="black" d="M598.56,-363.06C644.32,-342.51 718,-299.41 718,-235 718,-235 718,-235 718,-161 718,-85.41 462.14,-40.05 358.66,-24.8"/>
<polygon fill="black" stroke="black" points="358.96,-21.3 348.56,-23.33 357.95,-28.23 358.96,-21.3"/>
<g id="a_edge7&#45;headlabel"><a xlink:href="dir_000056_000279.html" target="_top" xlink:title="3">
<text text-anchor="middle" x="362.92" y="-16.51" font-family="Helvetica,sans-Serif" font-size="10.00">3</text>
</a>
</g>
</g>
<!-- dir_37f3372f1e76d74ffd54613af9306e43&#45;&gt;dir_cab9f8330899b1cc9d753b1d9c5c5a3e -->
<g id="edge6" class="edge">
<title>dir_37f3372f1e76d74ffd54613af9306e43&#45;&gt;dir_cab9f8330899b1cc9d753b1d9c5c5a3e</title>
<path fill="none" stroke="black" d="M570.42,-359.88C583,-328.12 604.84,-258.71 580,-208 575.02,-197.83 566.52,-189.31 557.53,-182.5"/>
<polygon fill="black" stroke="black" points="559.44,-179.57 549.23,-176.74 555.45,-185.32 559.44,-179.57"/>
<g id="a_edge6&#45;headlabel"><a xlink:href="dir_000056_000053.html" target="_top" xlink:title="28">
<text text-anchor="middle" x="564.01" y="-176.79" font-family="Helvetica,sans-Serif" font-size="10.00">28</text>
</a>
</g>
</g>
<!-- dir_cab9f8330899b1cc9d753b1d9c5c5a3e&#45;&gt;dir_84ef7c054b4edc3447cfba80cee80f65 -->
<g id="edge27" class="edge">
<title>dir_cab9f8330899b1cc9d753b1d9c5c5a3e&#45;&gt;dir_84ef7c054b4edc3447cfba80cee80f65</title>
<path fill="none" stroke="black" d="M494.64,-151.7C458.14,-139.3 393.4,-117.3 352.69,-103.47"/>
<polygon fill="black" stroke="black" points="353.73,-100.13 343.14,-100.22 351.48,-106.75 353.73,-100.13"/>
<g id="a_edge27&#45;headlabel"><a xlink:href="dir_000053_000046.html" target="_top" xlink:title="4">
<text text-anchor="middle" x="358.05" y="-96.09" font-family="Helvetica,sans-Serif" font-size="10.00">4</text>
</a>
</g>
</g>
</g>
</svg>
