<?xml version="1.0" encoding="UTF-8" standalone="no"?>
<!DOCTYPE svg PUBLIC "-//W3C//DTD SVG 1.1//EN"
 "http://www.w3.org/Graphics/SVG/1.1/DTD/svg11.dtd">
<!-- Generated by graphviz version 2.43.0 (0)
 -->
<!-- Title: include/mlir/Conversion/TosaToMLProgram Pages: 1 -->
<svg width="144pt" height="223pt"
 viewBox="0.00 0.00 144.00 223.00" xmlns="http://www.w3.org/2000/svg" xmlns:xlink="http://www.w3.org/1999/xlink">
<g id="graph0" class="graph" transform="scale(1 1) rotate(0) translate(4 219)">
<title>include/mlir/Conversion/TosaToMLProgram</title>
<g id="clust1" class="cluster">
<title>clusterdir_37f3372f1e76d74ffd54613af9306e43</title>
<g id="a_clust1"><a xlink:href="dir_37f3372f1e76d74ffd54613af9306e43.html" target="_top" xlink:title="Conversion">
<polygon fill="#ddddee" stroke="black" points="8,-136 8,-207 128,-207 128,-136 8,-136"/>
<text text-anchor="middle" x="68" y="-195" font-family="Helvetica,sans-Serif" font-size="10.00">Conversion</text>
</a>
</g>
</g>
<!-- dir_4d00a20d7b326cc0bea3d8467d79c9a8 -->
<g id="node1" class="node">
<title>dir_4d00a20d7b326cc0bea3d8467d79c9a8</title>
<g id="a_node1"><a xlink:href="dir_4d00a20d7b326cc0bea3d8467d79c9a8.html" target="_top" xlink:title="TosaToMLProgram">
<polygon fill="#eeeeff" stroke="black" points="120,-180 16,-180 16,-144 120,-144 120,-180"/>
<text text-anchor="middle" x="68" y="-159.5" font-family="Helvetica,sans-Serif" font-size="10.00">TosaToMLProgram</text>
</a>
</g>
</g>
<!-- dir_ca4d1f3bc4cd42ba07a57ca86d19a1d6 -->
<g id="node2" class="node">
<title>dir_ca4d1f3bc4cd42ba07a57ca86d19a1d6</title>
<g id="a_node2"><a xlink:href="dir_ca4d1f3bc4cd42ba07a57ca86d19a1d6.html" target="_top" xlink:title="Transforms">
<polygon fill="none" stroke="black" points="71.5,-108 0.5,-108 0.5,-72 71.5,-72 71.5,-108"/>
<text text-anchor="middle" x="36" y="-87.5" font-family="Helvetica,sans-Serif" font-size="10.00">Transforms</text>
</a>
</g>
</g>
<!-- dir_4d00a20d7b326cc0bea3d8467d79c9a8&#45;&gt;dir_ca4d1f3bc4cd42ba07a57ca86d19a1d6 -->
<g id="edge1" class="edge">
<title>dir_4d00a20d7b326cc0bea3d8467d79c9a8&#45;&gt;dir_ca4d1f3bc4cd42ba07a57ca86d19a1d6</title>
<path fill="none" stroke="black" d="M60.09,-143.7C56.45,-135.73 52.05,-126.1 48.01,-117.26"/>
<polygon fill="black" stroke="black" points="51.16,-115.74 43.82,-108.1 44.79,-118.65 51.16,-115.74"/>
<g id="a_edge1&#45;headlabel"><a xlink:href="dir_000171_000156.html" target="_top" xlink:title="1">
<text text-anchor="middle" x="55.24" y="-115.33" font-family="Helvetica,sans-Serif" font-size="10.00">1</text>
</a>
</g>
</g>
<!-- dir_cab9f8330899b1cc9d753b1d9c5c5a3e -->
<g id="node3" class="node">
<title>dir_cab9f8330899b1cc9d753b1d9c5c5a3e</title>
<g id="a_node3"><a xlink:href="dir_cab9f8330899b1cc9d753b1d9c5c5a3e.html" target="_top" xlink:title="Pass">
<polygon fill="none" stroke="black" points="95,-36 41,-36 41,0 95,0 95,-36"/>
<text text-anchor="middle" x="68" y="-15.5" font-family="Helvetica,sans-Serif" font-size="10.00">Pass</text>
</a>
</g>
</g>
<!-- dir_4d00a20d7b326cc0bea3d8467d79c9a8&#45;&gt;dir_cab9f8330899b1cc9d753b1d9c5c5a3e -->
<g id="edge2" class="edge">
<title>dir_4d00a20d7b326cc0bea3d8467d79c9a8&#45;&gt;dir_cab9f8330899b1cc9d753b1d9c5c5a3e</title>
<path fill="none" stroke="black" d="M73.41,-143.53C76.3,-133.29 79.55,-120.04 81,-108 82.92,-92.12 82.92,-87.88 81,-72 79.98,-63.53 78.07,-54.47 76.02,-46.28"/>
<polygon fill="black" stroke="black" points="79.36,-45.23 73.41,-36.47 72.6,-47.03 79.36,-45.23"/>
<g id="a_edge2&#45;headlabel"><a xlink:href="dir_000171_000053.html" target="_top" xlink:title="1">
<text text-anchor="middle" x="83.03" y="-45.48" font-family="Helvetica,sans-Serif" font-size="10.00">1</text>
</a>
</g>
</g>
<!-- dir_ca4d1f3bc4cd42ba07a57ca86d19a1d6&#45;&gt;dir_cab9f8330899b1cc9d753b1d9c5c5a3e -->
<g id="edge3" class="edge">
<title>dir_ca4d1f3bc4cd42ba07a57ca86d19a1d6&#45;&gt;dir_cab9f8330899b1cc9d753b1d9c5c5a3e</title>
<path fill="none" stroke="black" d="M43.91,-71.7C47.55,-63.73 51.95,-54.1 55.99,-45.26"/>
<polygon fill="black" stroke="black" points="59.21,-46.65 60.18,-36.1 52.84,-43.74 59.21,-46.65"/>
<g id="a_edge3&#45;headlabel"><a xlink:href="dir_000156_000053.html" target="_top" xlink:title="4">
<text text-anchor="middle" x="60.29" y="-48.6" font-family="Helvetica,sans-Serif" font-size="10.00">4</text>
</a>
</g>
</g>
</g>
</svg>
