<?xml version="1.0" encoding="UTF-8" standalone="no"?>
<!DOCTYPE svg PUBLIC "-//W3C//DTD SVG 1.1//EN"
 "http://www.w3.org/Graphics/SVG/1.1/DTD/svg11.dtd">
<!-- Generated by graphviz version 2.43.0 (0)
 -->
<!-- Title: include/mlir/Dialect/NVGPU Pages: 1 -->
<svg width="598pt" height="447pt"
 viewBox="0.00 0.00 598.12 447.00" xmlns="http://www.w3.org/2000/svg" xmlns:xlink="http://www.w3.org/1999/xlink">
<g id="graph0" class="graph" transform="scale(1 1) rotate(0) translate(4 443)">
<title>include/mlir/Dialect/NVGPU</title>
<g id="clust1" class="cluster">
<title>clusterdir_d07a6fac82475a065a3b2953573f00a0</title>
<g id="a_clust1"><a xlink:href="dir_d07a6fac82475a065a3b2953573f00a0.html" target="_top" xlink:title="Dialect">
<polygon fill="#ddddee" stroke="black" points="146.12,-208 146.12,-431 568.12,-431 568.12,-208 146.12,-208"/>
<text text-anchor="middle" x="357.12" y="-419" font-family="Helvetica,sans-Serif" font-size="10.00">Dialect</text>
</a>
</g>
</g>
<g id="clust2" class="cluster">
<title>clusterdir_9d4bae939983f9814fa2cd5312959fbb</title>
<g id="a_clust2"><a xlink:href="dir_9d4bae939983f9814fa2cd5312959fbb.html" target="_top">
<polygon fill="#eeeeff" stroke="black" points="154.12,-352 154.12,-404 560.12,-404 560.12,-352 154.12,-352"/>
</a>
</g>
</g>
<!-- dir_832fe9af74a05d9f4772b8e442bafd02 -->
<g id="node1" class="node">
<title>dir_832fe9af74a05d9f4772b8e442bafd02</title>
<g id="a_node1"><a xlink:href="dir_832fe9af74a05d9f4772b8e442bafd02.html" target="_top" xlink:title="Transform">
<polygon fill="none" stroke="red" points="219.62,-252 154.62,-252 154.62,-216 219.62,-216 219.62,-252"/>
<text text-anchor="middle" x="187.12" y="-231.5" font-family="Helvetica,sans-Serif" font-size="10.00">Transform</text>
</a>
</g>
</g>
<!-- dir_51020c1b0909ae629a35fe1c65c620b9 -->
<g id="node9" class="node">
<title>dir_51020c1b0909ae629a35fe1c65c620b9</title>
<g id="a_node9"><a xlink:href="dir_51020c1b0909ae629a35fe1c65c620b9.html" target="_top" xlink:title="Bytecode">
<polygon fill="none" stroke="black" points="334.12,-180 272.12,-180 272.12,-144 334.12,-144 334.12,-180"/>
<text text-anchor="middle" x="303.12" y="-159.5" font-family="Helvetica,sans-Serif" font-size="10.00">Bytecode</text>
</a>
</g>
</g>
<!-- dir_832fe9af74a05d9f4772b8e442bafd02&#45;&gt;dir_51020c1b0909ae629a35fe1c65c620b9 -->
<g id="edge24" class="edge">
<title>dir_832fe9af74a05d9f4772b8e442bafd02&#45;&gt;dir_51020c1b0909ae629a35fe1c65c620b9</title>
<path fill="none" stroke="black" d="M215.5,-215.88C230.66,-206.72 249.52,-195.34 265.86,-185.48"/>
<polygon fill="black" stroke="black" points="267.88,-188.35 274.63,-180.19 264.26,-182.36 267.88,-188.35"/>
<g id="a_edge24&#45;headlabel"><a xlink:href="dir_000033_000050.html" target="_top" xlink:title="5">
<text text-anchor="middle" x="266.27" y="-190.14" font-family="Helvetica,sans-Serif" font-size="10.00">5</text>
</a>
</g>
</g>
<!-- dir_84ef7c054b4edc3447cfba80cee80f65 -->
<g id="node10" class="node">
<title>dir_84ef7c054b4edc3447cfba80cee80f65</title>
<g id="a_node10"><a xlink:href="dir_84ef7c054b4edc3447cfba80cee80f65.html" target="_top" xlink:title="IR">
<polygon fill="none" stroke="black" points="330.12,-108 276.12,-108 276.12,-72 330.12,-72 330.12,-108"/>
<text text-anchor="middle" x="303.12" y="-87.5" font-family="Helvetica,sans-Serif" font-size="10.00">IR</text>
</a>
</g>
</g>
<!-- dir_832fe9af74a05d9f4772b8e442bafd02&#45;&gt;dir_84ef7c054b4edc3447cfba80cee80f65 -->
<g id="edge25" class="edge">
<title>dir_832fe9af74a05d9f4772b8e442bafd02&#45;&gt;dir_84ef7c054b4edc3447cfba80cee80f65</title>
<path fill="none" stroke="black" d="M192.55,-215.84C199.19,-196.79 211.85,-165.85 230.12,-144 240.49,-131.6 254.36,-120.59 267.22,-111.86"/>
<polygon fill="black" stroke="black" points="269.45,-114.58 275.91,-106.19 265.62,-108.72 269.45,-114.58"/>
<g id="a_edge25&#45;headlabel"><a xlink:href="dir_000033_000046.html" target="_top" xlink:title="27">
<text text-anchor="middle" x="267.99" y="-116.42" font-family="Helvetica,sans-Serif" font-size="10.00">27</text>
</a>
</g>
</g>
<!-- dir_cf63c3ddb21c79ef735682489f4c6a69 -->
<g id="node11" class="node">
<title>dir_cf63c3ddb21c79ef735682489f4c6a69</title>
<g id="a_node11"><a xlink:href="dir_cf63c3ddb21c79ef735682489f4c6a69.html" target="_top" xlink:title="Interfaces">
<polygon fill="none" stroke="red" points="267.62,-36 202.62,-36 202.62,0 267.62,0 267.62,-36"/>
<text text-anchor="middle" x="235.12" y="-15.5" font-family="Helvetica,sans-Serif" font-size="10.00">Interfaces</text>
</a>
</g>
</g>
<!-- dir_832fe9af74a05d9f4772b8e442bafd02&#45;&gt;dir_cf63c3ddb21c79ef735682489f4c6a69 -->
<g id="edge26" class="edge">
<title>dir_832fe9af74a05d9f4772b8e442bafd02&#45;&gt;dir_cf63c3ddb21c79ef735682489f4c6a69</title>
<path fill="none" stroke="black" d="M190.39,-215.9C193.86,-197.95 199.61,-168.94 205.12,-144 212.58,-110.25 221.99,-71.59 228.27,-46.31"/>
<polygon fill="black" stroke="black" points="231.73,-46.89 230.75,-36.35 224.93,-45.2 231.73,-46.89"/>
<g id="a_edge26&#45;headlabel"><a xlink:href="dir_000033_000279.html" target="_top" xlink:title="10">
<text text-anchor="middle" x="233.61" y="-48.57" font-family="Helvetica,sans-Serif" font-size="10.00">10</text>
</a>
</g>
</g>
<!-- dir_cab9f8330899b1cc9d753b1d9c5c5a3e -->
<g id="node12" class="node">
<title>dir_cab9f8330899b1cc9d753b1d9c5c5a3e</title>
<g id="a_node12"><a xlink:href="dir_cab9f8330899b1cc9d753b1d9c5c5a3e.html" target="_top" xlink:title="Pass">
<polygon fill="none" stroke="black" points="140.12,-180 86.12,-180 86.12,-144 140.12,-144 140.12,-180"/>
<text text-anchor="middle" x="113.12" y="-159.5" font-family="Helvetica,sans-Serif" font-size="10.00">Pass</text>
</a>
</g>
</g>
<!-- dir_832fe9af74a05d9f4772b8e442bafd02&#45;&gt;dir_cab9f8330899b1cc9d753b1d9c5c5a3e -->
<g id="edge27" class="edge">
<title>dir_832fe9af74a05d9f4772b8e442bafd02&#45;&gt;dir_cab9f8330899b1cc9d753b1d9c5c5a3e</title>
<path fill="none" stroke="black" d="M168.83,-215.7C159.69,-207.05 148.48,-196.45 138.52,-187.03"/>
<polygon fill="black" stroke="black" points="140.87,-184.43 131.2,-180.1 136.06,-189.52 140.87,-184.43"/>
<g id="a_edge27&#45;headlabel"><a xlink:href="dir_000033_000053.html" target="_top" xlink:title="2">
<text text-anchor="middle" x="145.43" y="-182.34" font-family="Helvetica,sans-Serif" font-size="10.00">2</text>
</a>
</g>
</g>
<!-- dir_8363a04659a248511e559fc4df76a233 -->
<g id="node2" class="node">
<title>dir_8363a04659a248511e559fc4df76a233</title>
<g id="a_node2"><a xlink:href="dir_8363a04659a248511e559fc4df76a233.html" target="_top" xlink:title="LLVMIR">
<polygon fill="none" stroke="red" points="234.12,-324 180.12,-324 180.12,-288 234.12,-288 234.12,-324"/>
<text text-anchor="middle" x="207.12" y="-303.5" font-family="Helvetica,sans-Serif" font-size="10.00">LLVMIR</text>
</a>
</g>
</g>
<!-- dir_8363a04659a248511e559fc4df76a233&#45;&gt;dir_51020c1b0909ae629a35fe1c65c620b9 -->
<g id="edge13" class="edge">
<title>dir_8363a04659a248511e559fc4df76a233&#45;&gt;dir_51020c1b0909ae629a35fe1c65c620b9</title>
<path fill="none" stroke="black" d="M228.31,-287.95C239.39,-278.26 252.59,-265.4 262.12,-252 275.84,-232.69 286.76,-208.06 293.87,-189.61"/>
<polygon fill="black" stroke="black" points="297.22,-190.66 297.42,-180.07 290.66,-188.22 297.22,-190.66"/>
<g id="a_edge13&#45;headlabel"><a xlink:href="dir_000125_000050.html" target="_top" xlink:title="5">
<text text-anchor="middle" x="298.62" y="-192.52" font-family="Helvetica,sans-Serif" font-size="10.00">5</text>
</a>
</g>
</g>
<!-- dir_8363a04659a248511e559fc4df76a233&#45;&gt;dir_84ef7c054b4edc3447cfba80cee80f65 -->
<g id="edge14" class="edge">
<title>dir_8363a04659a248511e559fc4df76a233&#45;&gt;dir_84ef7c054b4edc3447cfba80cee80f65</title>
<path fill="none" stroke="black" d="M214.21,-287.92C218.42,-277.59 223.76,-264.11 228.12,-252 245.2,-204.52 239.82,-188.76 263.12,-144 268.15,-134.34 274.92,-124.59 281.45,-116.13"/>
<polygon fill="black" stroke="black" points="284.32,-118.15 287.84,-108.15 278.86,-113.77 284.32,-118.15"/>
<g id="a_edge14&#45;headlabel"><a xlink:href="dir_000125_000046.html" target="_top" xlink:title="22">
<text text-anchor="middle" x="284.29" y="-120.23" font-family="Helvetica,sans-Serif" font-size="10.00">22</text>
</a>
</g>
</g>
<!-- dir_8363a04659a248511e559fc4df76a233&#45;&gt;dir_cf63c3ddb21c79ef735682489f4c6a69 -->
<g id="edge15" class="edge">
<title>dir_8363a04659a248511e559fc4df76a233&#45;&gt;dir_cf63c3ddb21c79ef735682489f4c6a69</title>
<path fill="none" stroke="black" d="M179.96,-305.67C140.76,-304.99 69.4,-297.16 36.12,-252 -11.34,-187.6 -12.63,-135.43 36.12,-72 55.01,-47.42 139.65,-31.82 192.27,-24.31"/>
<polygon fill="black" stroke="black" points="192.91,-27.76 202.34,-22.92 191.95,-20.82 192.91,-27.76"/>
<g id="a_edge15&#45;headlabel"><a xlink:href="dir_000125_000279.html" target="_top" xlink:title="12">
<text text-anchor="middle" x="189.74" y="-28.56" font-family="Helvetica,sans-Serif" font-size="10.00">12</text>
</a>
</g>
</g>
<!-- dir_8363a04659a248511e559fc4df76a233&#45;&gt;dir_cab9f8330899b1cc9d753b1d9c5c5a3e -->
<g id="edge16" class="edge">
<title>dir_8363a04659a248511e559fc4df76a233&#45;&gt;dir_cab9f8330899b1cc9d753b1d9c5c5a3e</title>
<path fill="none" stroke="black" d="M180.02,-298.12C157.42,-290.8 126.66,-276.75 112.12,-252 101.21,-233.42 102.48,-208.68 105.9,-190"/>
<polygon fill="black" stroke="black" points="109.36,-190.57 108.02,-180.06 102.51,-189.11 109.36,-190.57"/>
<g id="a_edge16&#45;headlabel"><a xlink:href="dir_000125_000053.html" target="_top" xlink:title="1">
<text text-anchor="middle" x="111.38" y="-192.18" font-family="Helvetica,sans-Serif" font-size="10.00">1</text>
</a>
</g>
</g>
<!-- dir_bfd3493254b3df47293537524626123b -->
<g id="node3" class="node">
<title>dir_bfd3493254b3df47293537524626123b</title>
<g id="a_node3"><a xlink:href="dir_bfd3493254b3df47293537524626123b.html" target="_top" xlink:title="Vector">
<polygon fill="none" stroke="red" points="306.12,-324 252.12,-324 252.12,-288 306.12,-288 306.12,-324"/>
<text text-anchor="middle" x="279.12" y="-303.5" font-family="Helvetica,sans-Serif" font-size="10.00">Vector</text>
</a>
</g>
</g>
<!-- dir_bfd3493254b3df47293537524626123b&#45;&gt;dir_832fe9af74a05d9f4772b8e442bafd02 -->
<g id="edge9" class="edge">
<title>dir_bfd3493254b3df47293537524626123b&#45;&gt;dir_832fe9af74a05d9f4772b8e442bafd02</title>
<path fill="none" stroke="black" d="M256.38,-287.7C244.68,-278.8 230.26,-267.82 217.61,-258.2"/>
<polygon fill="black" stroke="black" points="219.68,-255.37 209.6,-252.1 215.44,-260.94 219.68,-255.37"/>
<g id="a_edge9&#45;headlabel"><a xlink:href="dir_000151_000033.html" target="_top" xlink:title="1">
<text text-anchor="middle" x="224.26" y="-252.79" font-family="Helvetica,sans-Serif" font-size="10.00">1</text>
</a>
</g>
</g>
<!-- dir_bfd3493254b3df47293537524626123b&#45;&gt;dir_51020c1b0909ae629a35fe1c65c620b9 -->
<g id="edge8" class="edge">
<title>dir_bfd3493254b3df47293537524626123b&#45;&gt;dir_51020c1b0909ae629a35fe1c65c620b9</title>
<path fill="none" stroke="black" d="M287.68,-287.8C292.28,-277.65 297.53,-264.4 300.12,-252 304.35,-231.7 304.97,-208.23 304.6,-190.49"/>
<polygon fill="black" stroke="black" points="308.09,-190.15 304.27,-180.27 301.1,-190.38 308.09,-190.15"/>
<g id="a_edge8&#45;headlabel"><a xlink:href="dir_000151_000050.html" target="_top" xlink:title="1">
<text text-anchor="middle" x="311.05" y="-191.15" font-family="Helvetica,sans-Serif" font-size="10.00">1</text>
</a>
</g>
</g>
<!-- dir_bfd3493254b3df47293537524626123b&#45;&gt;dir_84ef7c054b4edc3447cfba80cee80f65 -->
<g id="edge10" class="edge">
<title>dir_bfd3493254b3df47293537524626123b&#45;&gt;dir_84ef7c054b4edc3447cfba80cee80f65</title>
<path fill="none" stroke="black" d="M292.96,-287.56C300.47,-277.55 309.54,-264.51 316.12,-252 332.03,-221.75 337.02,-213.63 343.12,-180 345.97,-164.26 348.2,-159.17 343.12,-144 339.77,-134 333.7,-124.38 327.29,-116.14"/>
<polygon fill="black" stroke="black" points="329.94,-113.85 320.85,-108.4 324.56,-118.33 329.94,-113.85"/>
<g id="a_edge10&#45;headlabel"><a xlink:href="dir_000151_000046.html" target="_top" xlink:title="13">
<text text-anchor="middle" x="334.42" y="-112.3" font-family="Helvetica,sans-Serif" font-size="10.00">13</text>
</a>
</g>
</g>
<!-- dir_bfd3493254b3df47293537524626123b&#45;&gt;dir_cf63c3ddb21c79ef735682489f4c6a69 -->
<g id="edge12" class="edge">
<title>dir_bfd3493254b3df47293537524626123b&#45;&gt;dir_cf63c3ddb21c79ef735682489f4c6a69</title>
<path fill="none" stroke="black" d="M251.8,-291.54C248.9,-290.28 245.96,-289.07 243.12,-288 189.03,-267.59 163.55,-287.76 118.12,-252 89.18,-229.23 86.54,-215.6 77.12,-180 59.48,-113.39 140.71,-62.3 193.25,-36.85"/>
<polygon fill="black" stroke="black" points="194.82,-39.98 202.37,-32.54 191.84,-33.64 194.82,-39.98"/>
<g id="a_edge12&#45;headlabel"><a xlink:href="dir_000151_000279.html" target="_top" xlink:title="9">
<text text-anchor="middle" x="192.78" y="-41.58" font-family="Helvetica,sans-Serif" font-size="10.00">9</text>
</a>
</g>
</g>
<!-- dir_bfd3493254b3df47293537524626123b&#45;&gt;dir_cab9f8330899b1cc9d753b1d9c5c5a3e -->
<g id="edge11" class="edge">
<title>dir_bfd3493254b3df47293537524626123b&#45;&gt;dir_cab9f8330899b1cc9d753b1d9c5c5a3e</title>
<path fill="none" stroke="black" d="M252.11,-291.93C249.09,-290.56 246.05,-289.23 243.12,-288 200.32,-270.08 177.82,-284.92 145.12,-252 128.62,-235.39 120.57,-209.67 116.68,-190.14"/>
<polygon fill="black" stroke="black" points="120.08,-189.28 114.92,-180.03 113.19,-190.48 120.08,-189.28"/>
<g id="a_edge11&#45;headlabel"><a xlink:href="dir_000151_000053.html" target="_top" xlink:title="1">
<text text-anchor="middle" x="123.5" y="-189.83" font-family="Helvetica,sans-Serif" font-size="10.00">1</text>
</a>
</g>
</g>
<!-- dir_9d4bae939983f9814fa2cd5312959fbb -->
<g id="node4" class="node">
<title>dir_9d4bae939983f9814fa2cd5312959fbb</title>
<text text-anchor="middle" x="525.12" y="-375.5" font-family="Helvetica,sans-Serif" font-size="10.00">NVGPU</text>
</g>
<!-- dir_0a9271211181ab9de02f9f7ba75fdf99 -->
<g id="node5" class="node">
<title>dir_0a9271211181ab9de02f9f7ba75fdf99</title>
<g id="a_node5"><a xlink:href="dir_0a9271211181ab9de02f9f7ba75fdf99.html" target="_top" xlink:title="IR">
<polygon fill="white" stroke="black" points="480.12,-396 426.12,-396 426.12,-360 480.12,-360 480.12,-396"/>
<text text-anchor="middle" x="453.12" y="-375.5" font-family="Helvetica,sans-Serif" font-size="10.00">IR</text>
</a>
</g>
</g>
<!-- dir_0a9271211181ab9de02f9f7ba75fdf99&#45;&gt;dir_51020c1b0909ae629a35fe1c65c620b9 -->
<g id="edge5" class="edge">
<title>dir_0a9271211181ab9de02f9f7ba75fdf99&#45;&gt;dir_51020c1b0909ae629a35fe1c65c620b9</title>
<path fill="none" stroke="black" d="M456.77,-359.91C458.8,-349.57 461.1,-336.09 462.12,-324 466.68,-269.94 464.12,-244.65 424.12,-208 401.94,-187.68 369.77,-176.3 344.17,-170.07"/>
<polygon fill="black" stroke="black" points="344.89,-166.64 334.37,-167.85 343.35,-173.47 344.89,-166.64"/>
<g id="a_edge5&#45;headlabel"><a xlink:href="dir_000235_000050.html" target="_top" xlink:title="1">
<text text-anchor="middle" x="349.02" y="-162.17" font-family="Helvetica,sans-Serif" font-size="10.00">1</text>
</a>
</g>
</g>
<!-- dir_0a9271211181ab9de02f9f7ba75fdf99&#45;&gt;dir_84ef7c054b4edc3447cfba80cee80f65 -->
<g id="edge6" class="edge">
<title>dir_0a9271211181ab9de02f9f7ba75fdf99&#45;&gt;dir_84ef7c054b4edc3447cfba80cee80f65</title>
<path fill="none" stroke="black" d="M460.67,-359.89C478.23,-317.16 516.23,-204.83 460.12,-144 429.14,-110.42 376.17,-98.1 340.42,-93.6"/>
<polygon fill="black" stroke="black" points="340.7,-90.11 330.38,-92.48 339.93,-97.06 340.7,-90.11"/>
<g id="a_edge6&#45;headlabel"><a xlink:href="dir_000235_000046.html" target="_top" xlink:title="3">
<text text-anchor="middle" x="344.59" y="-85.18" font-family="Helvetica,sans-Serif" font-size="10.00">3</text>
</a>
</g>
</g>
<!-- dir_0a9271211181ab9de02f9f7ba75fdf99&#45;&gt;dir_cf63c3ddb21c79ef735682489f4c6a69 -->
<g id="edge7" class="edge">
<title>dir_0a9271211181ab9de02f9f7ba75fdf99&#45;&gt;dir_cf63c3ddb21c79ef735682489f4c6a69</title>
<path fill="none" stroke="black" d="M476.05,-359.8C515.05,-329.67 590.12,-267.46 590.12,-235 590.12,-235 590.12,-235 590.12,-161 590.12,-94.46 372.39,-45.05 277.96,-26.75"/>
<polygon fill="black" stroke="black" points="278.36,-23.26 267.88,-24.82 277.05,-30.14 278.36,-23.26"/>
<g id="a_edge7&#45;headlabel"><a xlink:href="dir_000235_000279.html" target="_top" xlink:title="2">
<text text-anchor="middle" x="282.42" y="-18.65" font-family="Helvetica,sans-Serif" font-size="10.00">2</text>
</a>
</g>
</g>
<!-- dir_5abfdba5435786897dd62249942c6aa2 -->
<g id="node6" class="node">
<title>dir_5abfdba5435786897dd62249942c6aa2</title>
<g id="a_node6"><a xlink:href="dir_5abfdba5435786897dd62249942c6aa2.html" target="_top" xlink:title="TransformOps">
<polygon fill="white" stroke="black" points="408.12,-396 324.12,-396 324.12,-360 408.12,-360 408.12,-396"/>
<text text-anchor="middle" x="366.12" y="-375.5" font-family="Helvetica,sans-Serif" font-size="10.00">TransformOps</text>
</a>
</g>
</g>
<!-- dir_5abfdba5435786897dd62249942c6aa2&#45;&gt;dir_832fe9af74a05d9f4772b8e442bafd02 -->
<g id="edge1" class="edge">
<title>dir_5abfdba5435786897dd62249942c6aa2&#45;&gt;dir_832fe9af74a05d9f4772b8e442bafd02</title>
<path fill="none" stroke="black" d="M360.15,-359.69C352.53,-339.92 337.58,-307.76 315.12,-288 290.78,-266.59 256.59,-253.03 229.67,-244.99"/>
<polygon fill="black" stroke="black" points="230.32,-241.54 219.74,-242.18 228.41,-248.27 230.32,-241.54"/>
<g id="a_edge1&#45;headlabel"><a xlink:href="dir_000236_000033.html" target="_top" xlink:title="3">
<text text-anchor="middle" x="234.55" y="-237.29" font-family="Helvetica,sans-Serif" font-size="10.00">3</text>
</a>
</g>
</g>
<!-- dir_5abfdba5435786897dd62249942c6aa2&#45;&gt;dir_84ef7c054b4edc3447cfba80cee80f65 -->
<g id="edge2" class="edge">
<title>dir_5abfdba5435786897dd62249942c6aa2&#45;&gt;dir_84ef7c054b4edc3447cfba80cee80f65</title>
<path fill="none" stroke="black" d="M397.83,-359.97C411.95,-350.95 427.71,-338.69 438.12,-324 468.45,-281.18 469.13,-259.7 460.12,-208 454.93,-178.22 458.15,-165.71 437.12,-144 411.19,-117.24 370.08,-103.68 340.22,-97.01"/>
<polygon fill="black" stroke="black" points="340.68,-93.53 330.17,-94.93 339.26,-100.39 340.68,-93.53"/>
<g id="a_edge2&#45;headlabel"><a xlink:href="dir_000236_000046.html" target="_top" xlink:title="2">
<text text-anchor="middle" x="344.77" y="-88.98" font-family="Helvetica,sans-Serif" font-size="10.00">2</text>
</a>
</g>
</g>
<!-- dir_ff679d335116386ae9baa1d95c843016 -->
<g id="node7" class="node">
<title>dir_ff679d335116386ae9baa1d95c843016</title>
<g id="a_node7"><a xlink:href="dir_ff679d335116386ae9baa1d95c843016.html" target="_top" xlink:title="Transforms">
<polygon fill="white" stroke="black" points="233.62,-396 162.62,-396 162.62,-360 233.62,-360 233.62,-396"/>
<text text-anchor="middle" x="198.12" y="-375.5" font-family="Helvetica,sans-Serif" font-size="10.00">Transforms</text>
</a>
</g>
</g>
<!-- dir_ff679d335116386ae9baa1d95c843016&#45;&gt;dir_84ef7c054b4edc3447cfba80cee80f65 -->
<g id="edge18" class="edge">
<title>dir_ff679d335116386ae9baa1d95c843016&#45;&gt;dir_84ef7c054b4edc3447cfba80cee80f65</title>
<path fill="none" stroke="black" d="M225.56,-359.98C231.22,-356.99 237.24,-354.15 243.12,-352 303.95,-329.78 344.96,-374 386.12,-324 437.57,-261.49 404.38,-210.45 358.12,-144 350.84,-133.54 341.27,-123.47 332.17,-114.96"/>
<polygon fill="black" stroke="black" points="334.45,-112.31 324.68,-108.21 329.77,-117.51 334.45,-112.31"/>
<g id="a_edge18&#45;headlabel"><a xlink:href="dir_000028_000046.html" target="_top" xlink:title="2">
<text text-anchor="middle" x="339.02" y="-110.11" font-family="Helvetica,sans-Serif" font-size="10.00">2</text>
</a>
</g>
</g>
<!-- dir_ff679d335116386ae9baa1d95c843016&#45;&gt;dir_cab9f8330899b1cc9d753b1d9c5c5a3e -->
<g id="edge19" class="edge">
<title>dir_ff679d335116386ae9baa1d95c843016&#45;&gt;dir_cab9f8330899b1cc9d753b1d9c5c5a3e</title>
<path fill="none" stroke="black" d="M176.95,-359.86C152.02,-338 112.43,-297.52 100.12,-252 94.6,-231.59 98.56,-207.86 103.51,-190.05"/>
<polygon fill="black" stroke="black" points="106.91,-190.9 106.48,-180.31 100.22,-188.85 106.91,-190.9"/>
<g id="a_edge19&#45;headlabel"><a xlink:href="dir_000028_000053.html" target="_top" xlink:title="1">
<text text-anchor="middle" x="108.58" y="-192.66" font-family="Helvetica,sans-Serif" font-size="10.00">1</text>
</a>
</g>
</g>
<!-- dir_f47e052135a4fca7bbcf4c72412f93f5 -->
<g id="node8" class="node">
<title>dir_f47e052135a4fca7bbcf4c72412f93f5</title>
<g id="a_node8"><a xlink:href="dir_f47e052135a4fca7bbcf4c72412f93f5.html" target="_top" xlink:title="Utils">
<polygon fill="white" stroke="black" points="306.12,-396 252.12,-396 252.12,-360 306.12,-360 306.12,-396"/>
<text text-anchor="middle" x="279.12" y="-375.5" font-family="Helvetica,sans-Serif" font-size="10.00">Utils</text>
</a>
</g>
</g>
<!-- dir_f47e052135a4fca7bbcf4c72412f93f5&#45;&gt;dir_8363a04659a248511e559fc4df76a233 -->
<g id="edge21" class="edge">
<title>dir_f47e052135a4fca7bbcf4c72412f93f5&#45;&gt;dir_8363a04659a248511e559fc4df76a233</title>
<path fill="none" stroke="black" d="M261.32,-359.7C252.52,-351.14 241.74,-340.66 232.12,-331.3"/>
<polygon fill="black" stroke="black" points="234.32,-328.57 224.71,-324.1 229.44,-333.58 234.32,-328.57"/>
<g id="a_edge21&#45;headlabel"><a xlink:href="dir_000237_000125.html" target="_top" xlink:title="1">
<text text-anchor="middle" x="238.88" y="-326.54" font-family="Helvetica,sans-Serif" font-size="10.00">1</text>
</a>
</g>
</g>
<!-- dir_f47e052135a4fca7bbcf4c72412f93f5&#45;&gt;dir_bfd3493254b3df47293537524626123b -->
<g id="edge23" class="edge">
<title>dir_f47e052135a4fca7bbcf4c72412f93f5&#45;&gt;dir_bfd3493254b3df47293537524626123b</title>
<path fill="none" stroke="black" d="M279.12,-359.7C279.12,-351.98 279.12,-342.71 279.12,-334.11"/>
<polygon fill="black" stroke="black" points="282.62,-334.1 279.12,-324.1 275.62,-334.1 282.62,-334.1"/>
<g id="a_edge23&#45;headlabel"><a xlink:href="dir_000237_000151.html" target="_top" xlink:title="1">
<text text-anchor="middle" x="285.46" y="-335.2" font-family="Helvetica,sans-Serif" font-size="10.00">1</text>
</a>
</g>
</g>
<!-- dir_f47e052135a4fca7bbcf4c72412f93f5&#45;&gt;dir_84ef7c054b4edc3447cfba80cee80f65 -->
<g id="edge22" class="edge">
<title>dir_f47e052135a4fca7bbcf4c72412f93f5&#45;&gt;dir_84ef7c054b4edc3447cfba80cee80f65</title>
<path fill="none" stroke="black" d="M301.28,-359.93C305.71,-357.01 310.44,-354.21 315.12,-352 356.46,-332.47 386.53,-360.47 414.12,-324 462.38,-260.2 456.79,-211.67 414.12,-144 398.03,-118.49 365.9,-104.99 340.33,-98.02"/>
<polygon fill="black" stroke="black" points="341.1,-94.61 330.55,-95.58 339.4,-101.4 341.1,-94.61"/>
<g id="a_edge22&#45;headlabel"><a xlink:href="dir_000237_000046.html" target="_top" xlink:title="2">
<text text-anchor="middle" x="345.28" y="-90.22" font-family="Helvetica,sans-Serif" font-size="10.00">2</text>
</a>
</g>
</g>
<!-- dir_51020c1b0909ae629a35fe1c65c620b9&#45;&gt;dir_84ef7c054b4edc3447cfba80cee80f65 -->
<g id="edge17" class="edge">
<title>dir_51020c1b0909ae629a35fe1c65c620b9&#45;&gt;dir_84ef7c054b4edc3447cfba80cee80f65</title>
<path fill="none" stroke="black" d="M297.2,-143.7C296.41,-135.98 296.18,-126.71 296.52,-118.11"/>
<polygon fill="black" stroke="black" points="300.02,-118.32 297.22,-108.1 293.03,-117.84 300.02,-118.32"/>
<g id="a_edge17&#45;headlabel"><a xlink:href="dir_000050_000046.html" target="_top" xlink:title="9">
<text text-anchor="middle" x="302.6" y="-119.61" font-family="Helvetica,sans-Serif" font-size="10.00">9</text>
</a>
</g>
</g>
<!-- dir_84ef7c054b4edc3447cfba80cee80f65&#45;&gt;dir_51020c1b0909ae629a35fe1c65c620b9 -->
<g id="edge3" class="edge">
<title>dir_84ef7c054b4edc3447cfba80cee80f65&#45;&gt;dir_51020c1b0909ae629a35fe1c65c620b9</title>
<path fill="none" stroke="black" d="M309.01,-108.1C309.82,-115.79 310.06,-125.05 309.72,-133.67"/>
<polygon fill="black" stroke="black" points="306.23,-133.48 309.04,-143.7 313.21,-133.96 306.23,-133.48"/>
<g id="a_edge3&#45;headlabel"><a xlink:href="dir_000046_000050.html" target="_top" xlink:title="2">
<text text-anchor="middle" x="303.64" y="-127.2" font-family="Helvetica,sans-Serif" font-size="10.00">2</text>
</a>
</g>
</g>
<!-- dir_84ef7c054b4edc3447cfba80cee80f65&#45;&gt;dir_cf63c3ddb21c79ef735682489f4c6a69 -->
<g id="edge4" class="edge">
<title>dir_84ef7c054b4edc3447cfba80cee80f65&#45;&gt;dir_cf63c3ddb21c79ef735682489f4c6a69</title>
<path fill="none" stroke="black" d="M280.39,-71.7C271.29,-63.22 261.04,-52.86 252.52,-43.58"/>
<polygon fill="black" stroke="black" points="255.11,-41.23 245.84,-36.1 249.89,-45.89 255.11,-41.23"/>
<g id="a_edge4&#45;headlabel"><a xlink:href="dir_000046_000279.html" target="_top" xlink:title="3">
<text text-anchor="middle" x="259.63" y="-39.52" font-family="Helvetica,sans-Serif" font-size="10.00">3</text>
</a>
</g>
</g>
<!-- dir_cf63c3ddb21c79ef735682489f4c6a69&#45;&gt;dir_84ef7c054b4edc3447cfba80cee80f65 -->
<g id="edge20" class="edge">
<title>dir_cf63c3ddb21c79ef735682489f4c6a69&#45;&gt;dir_84ef7c054b4edc3447cfba80cee80f65</title>
<path fill="none" stroke="black" d="M257.63,-36.1C266.72,-44.55 276.97,-54.9 285.52,-64.2"/>
<polygon fill="black" stroke="black" points="282.95,-66.58 292.23,-71.7 288.16,-61.91 282.95,-66.58"/>
<g id="a_edge20&#45;headlabel"><a xlink:href="dir_000279_000046.html" target="_top" xlink:title="54">
<text text-anchor="middle" x="278.44" y="-63.29" font-family="Helvetica,sans-Serif" font-size="10.00">54</text>
</a>
</g>
</g>
<!-- dir_cab9f8330899b1cc9d753b1d9c5c5a3e&#45;&gt;dir_84ef7c054b4edc3447cfba80cee80f65 -->
<g id="edge28" class="edge">
<title>dir_cab9f8330899b1cc9d753b1d9c5c5a3e&#45;&gt;dir_84ef7c054b4edc3447cfba80cee80f65</title>
<path fill="none" stroke="black" d="M140.34,-150.97C173.5,-138.76 229.64,-118.07 266.54,-104.48"/>
<polygon fill="black" stroke="black" points="267.77,-107.75 275.95,-101.01 265.35,-101.18 267.77,-107.75"/>
<g id="a_edge28&#45;headlabel"><a xlink:href="dir_000053_000046.html" target="_top" xlink:title="4">
<text text-anchor="middle" x="265.38" y="-109.16" font-family="Helvetica,sans-Serif" font-size="10.00">4</text>
</a>
</g>
</g>
</g>
</svg>
