<?xml version="1.0" encoding="UTF-8" standalone="no"?>
<!DOCTYPE svg PUBLIC "-//W3C//DTD SVG 1.1//EN"
 "http://www.w3.org/Graphics/SVG/1.1/DTD/svg11.dtd">
<!-- Generated by graphviz version 2.43.0 (0)
 -->
<!-- Title: lib/Target/LLVMIR Pages: 1 -->
<svg width="272pt" height="159pt"
 viewBox="0.00 0.00 272.00 159.00" xmlns="http://www.w3.org/2000/svg" xmlns:xlink="http://www.w3.org/1999/xlink">
<g id="graph0" class="graph" transform="scale(1 1) rotate(0) translate(4 155)">
<title>lib/Target/LLVMIR</title>
<g id="clust1" class="cluster">
<title>clusterdir_794e483eb1cc7921d35fd149d9cc325b</title>
<g id="a_clust1"><a xlink:href="dir_794e483eb1cc7921d35fd149d9cc325b.html" target="_top" xlink:title="Target">
<polygon fill="#ddddee" stroke="black" points="8,-56 8,-143 256,-143 256,-56 8,-56"/>
<text text-anchor="middle" x="132" y="-131" font-family="Helvetica,sans-Serif" font-size="10.00">Target</text>
</a>
</g>
</g>
<g id="clust2" class="cluster">
<title>clusterdir_12a96bdcc885ecacc799866a8efa56d5</title>
<g id="a_clust2"><a xlink:href="dir_12a96bdcc885ecacc799866a8efa56d5.html" target="_top">
<polygon fill="#eeeeff" stroke="black" points="16,-64 16,-116 248,-116 248,-64 16,-64"/>
</a>
</g>
</g>
<!-- dir_12a96bdcc885ecacc799866a8efa56d5 -->
<g id="node1" class="node">
<title>dir_12a96bdcc885ecacc799866a8efa56d5</title>
<text text-anchor="middle" x="213" y="-87.5" font-family="Helvetica,sans-Serif" font-size="10.00">LLVMIR</text>
</g>
<!-- dir_38c1dda222e2fa1f8060eb14e2940f7d -->
<g id="node2" class="node">
<title>dir_38c1dda222e2fa1f8060eb14e2940f7d</title>
<g id="a_node2"><a xlink:href="dir_38c1dda222e2fa1f8060eb14e2940f7d.html" target="_top" xlink:title="Dialect">
<polygon fill="white" stroke="red" points="168,-108 114,-108 114,-72 168,-72 168,-108"/>
<text text-anchor="middle" x="141" y="-87.5" font-family="Helvetica,sans-Serif" font-size="10.00">Dialect</text>
</a>
</g>
</g>
<!-- dir_d44c64559bbebec7f509842c48db8b23 -->
<g id="node4" class="node">
<title>dir_d44c64559bbebec7f509842c48db8b23</title>
<g id="a_node4"><a xlink:href="dir_d44c64559bbebec7f509842c48db8b23.html" target="_top" xlink:title="include">
<polygon fill="none" stroke="red" points="127,-36 73,-36 73,0 127,0 127,-36"/>
<text text-anchor="middle" x="100" y="-15.5" font-family="Helvetica,sans-Serif" font-size="10.00">include</text>
</a>
</g>
</g>
<!-- dir_38c1dda222e2fa1f8060eb14e2940f7d&#45;&gt;dir_d44c64559bbebec7f509842c48db8b23 -->
<g id="edge1" class="edge">
<title>dir_38c1dda222e2fa1f8060eb14e2940f7d&#45;&gt;dir_d44c64559bbebec7f509842c48db8b23</title>
<path fill="none" stroke="black" d="M130.87,-71.7C126.15,-63.64 120.44,-53.89 115.22,-44.98"/>
<polygon fill="black" stroke="black" points="118.09,-42.96 110.02,-36.1 112.05,-46.5 118.09,-42.96"/>
<g id="a_edge1&#45;headlabel"><a xlink:href="dir_000632_000001.html" target="_top" xlink:title="85">
<text text-anchor="middle" x="122.36" y="-42.13" font-family="Helvetica,sans-Serif" font-size="10.00">85</text>
</a>
</g>
</g>
<!-- dir_0654f6b9c5d65ad8376647d3adace252 -->
<g id="node3" class="node">
<title>dir_0654f6b9c5d65ad8376647d3adace252</title>
<g id="a_node3"><a xlink:href="dir_0654f6b9c5d65ad8376647d3adace252.html" target="_top" xlink:title="Transforms">
<polygon fill="white" stroke="black" points="95.5,-108 24.5,-108 24.5,-72 95.5,-72 95.5,-108"/>
<text text-anchor="middle" x="60" y="-87.5" font-family="Helvetica,sans-Serif" font-size="10.00">Transforms</text>
</a>
</g>
</g>
<!-- dir_0654f6b9c5d65ad8376647d3adace252&#45;&gt;dir_d44c64559bbebec7f509842c48db8b23 -->
<g id="edge2" class="edge">
<title>dir_0654f6b9c5d65ad8376647d3adace252&#45;&gt;dir_d44c64559bbebec7f509842c48db8b23</title>
<path fill="none" stroke="black" d="M69.89,-71.7C74.49,-63.64 80.06,-53.89 85.15,-44.98"/>
<polygon fill="black" stroke="black" points="88.3,-46.52 90.23,-36.1 82.23,-43.05 88.3,-46.52"/>
<g id="a_edge2&#45;headlabel"><a xlink:href="dir_000647_000001.html" target="_top" xlink:title="14">
<text text-anchor="middle" x="88.99" y="-48.55" font-family="Helvetica,sans-Serif" font-size="10.00">14</text>
</a>
</g>
</g>
</g>
</svg>
