<?xml version="1.0" encoding="UTF-8" standalone="no"?>
<!DOCTYPE svg PUBLIC "-//W3C//DTD SVG 1.1//EN"
 "http://www.w3.org/Graphics/SVG/1.1/DTD/svg11.dtd">
<!-- Generated by graphviz version 2.43.0 (0)
 -->
<!-- Title: lib/Dialect/ArmSVE Pages: 1 -->
<svg width="376pt" height="159pt"
 viewBox="0.00 0.00 376.00 159.00" xmlns="http://www.w3.org/2000/svg" xmlns:xlink="http://www.w3.org/1999/xlink">
<g id="graph0" class="graph" transform="scale(1 1) rotate(0) translate(4 155)">
<title>lib/Dialect/ArmSVE</title>
<g id="clust1" class="cluster">
<title>clusterdir_1a25ec519b6c1121408b67cc33ce3f15</title>
<g id="a_clust1"><a xlink:href="dir_1a25ec519b6c1121408b67cc33ce3f15.html" target="_top" xlink:title="Dialect">
<polygon fill="#ddddee" stroke="black" points="8,-56 8,-143 360,-143 360,-56 8,-56"/>
<text text-anchor="middle" x="184" y="-131" font-family="Helvetica,sans-Serif" font-size="10.00">Dialect</text>
</a>
</g>
</g>
<g id="clust2" class="cluster">
<title>clusterdir_1be12dace520489b7147db345ada512e</title>
<g id="a_clust2"><a xlink:href="dir_1be12dace520489b7147db345ada512e.html" target="_top">
<polygon fill="#eeeeff" stroke="black" points="16,-64 16,-116 352,-116 352,-64 16,-64"/>
</a>
</g>
</g>
<!-- dir_1be12dace520489b7147db345ada512e -->
<g id="node1" class="node">
<title>dir_1be12dace520489b7147db345ada512e</title>
<text text-anchor="middle" x="316" y="-87.5" font-family="Helvetica,sans-Serif" font-size="10.00">ArmSVE</text>
</g>
<!-- dir_8a9d948b62dd33d02f68011dfe3b5852 -->
<g id="node2" class="node">
<title>dir_8a9d948b62dd33d02f68011dfe3b5852</title>
<g id="a_node2"><a xlink:href="dir_8a9d948b62dd33d02f68011dfe3b5852.html" target="_top" xlink:title="IR">
<polygon fill="white" stroke="black" points="270,-108 216,-108 216,-72 270,-72 270,-108"/>
<text text-anchor="middle" x="243" y="-87.5" font-family="Helvetica,sans-Serif" font-size="10.00">IR</text>
</a>
</g>
</g>
<!-- dir_d44c64559bbebec7f509842c48db8b23 -->
<g id="node5" class="node">
<title>dir_d44c64559bbebec7f509842c48db8b23</title>
<g id="a_node5"><a xlink:href="dir_d44c64559bbebec7f509842c48db8b23.html" target="_top" xlink:title="include">
<polygon fill="none" stroke="red" points="183,-36 129,-36 129,0 183,0 183,-36"/>
<text text-anchor="middle" x="156" y="-15.5" font-family="Helvetica,sans-Serif" font-size="10.00">include</text>
</a>
</g>
</g>
<!-- dir_8a9d948b62dd33d02f68011dfe3b5852&#45;&gt;dir_d44c64559bbebec7f509842c48db8b23 -->
<g id="edge2" class="edge">
<title>dir_8a9d948b62dd33d02f68011dfe3b5852&#45;&gt;dir_d44c64559bbebec7f509842c48db8b23</title>
<path fill="none" stroke="black" d="M225.05,-71.8C219.39,-66.58 213.04,-60.93 207,-56 201.29,-51.34 195.06,-46.57 188.96,-42.07"/>
<polygon fill="black" stroke="black" points="190.96,-39.19 180.81,-36.14 186.84,-44.85 190.96,-39.19"/>
<g id="a_edge2&#45;headlabel"><a xlink:href="dir_000511_000001.html" target="_top" xlink:title="5">
<text text-anchor="middle" x="195.53" y="-36.51" font-family="Helvetica,sans-Serif" font-size="10.00">5</text>
</a>
</g>
</g>
<!-- dir_f6a1bc6016bcd29510feba8ff1f51cba -->
<g id="node3" class="node">
<title>dir_f6a1bc6016bcd29510feba8ff1f51cba</title>
<g id="a_node3"><a xlink:href="dir_f6a1bc6016bcd29510feba8ff1f51cba.html" target="_top" xlink:title="TransformOps">
<polygon fill="white" stroke="black" points="198,-108 114,-108 114,-72 198,-72 198,-108"/>
<text text-anchor="middle" x="156" y="-87.5" font-family="Helvetica,sans-Serif" font-size="10.00">TransformOps</text>
</a>
</g>
</g>
<!-- dir_f6a1bc6016bcd29510feba8ff1f51cba&#45;&gt;dir_d44c64559bbebec7f509842c48db8b23 -->
<g id="edge3" class="edge">
<title>dir_f6a1bc6016bcd29510feba8ff1f51cba&#45;&gt;dir_d44c64559bbebec7f509842c48db8b23</title>
<path fill="none" stroke="black" d="M156,-71.7C156,-63.98 156,-54.71 156,-46.11"/>
<polygon fill="black" stroke="black" points="159.5,-46.1 156,-36.1 152.5,-46.1 159.5,-46.1"/>
<g id="a_edge3&#45;headlabel"><a xlink:href="dir_000512_000001.html" target="_top" xlink:title="4">
<text text-anchor="middle" x="162.34" y="-47.2" font-family="Helvetica,sans-Serif" font-size="10.00">4</text>
</a>
</g>
</g>
<!-- dir_8a6b08187a9becbadcffd4fa362c89c4 -->
<g id="node4" class="node">
<title>dir_8a6b08187a9becbadcffd4fa362c89c4</title>
<g id="a_node4"><a xlink:href="dir_8a6b08187a9becbadcffd4fa362c89c4.html" target="_top" xlink:title="Transforms">
<polygon fill="white" stroke="black" points="95.5,-108 24.5,-108 24.5,-72 95.5,-72 95.5,-108"/>
<text text-anchor="middle" x="60" y="-87.5" font-family="Helvetica,sans-Serif" font-size="10.00">Transforms</text>
</a>
</g>
</g>
<!-- dir_8a6b08187a9becbadcffd4fa362c89c4&#45;&gt;dir_d44c64559bbebec7f509842c48db8b23 -->
<g id="edge1" class="edge">
<title>dir_8a6b08187a9becbadcffd4fa362c89c4&#45;&gt;dir_d44c64559bbebec7f509842c48db8b23</title>
<path fill="none" stroke="black" d="M83.34,-71.85C90.3,-66.74 97.96,-61.14 105,-56 111.14,-51.52 117.7,-46.75 124,-42.18"/>
<polygon fill="black" stroke="black" points="126.33,-44.81 132.37,-36.11 122.22,-39.15 126.33,-44.81"/>
<g id="a_edge1&#45;headlabel"><a xlink:href="dir_000488_000001.html" target="_top" xlink:title="22">
<text text-anchor="middle" x="125.09" y="-46.72" font-family="Helvetica,sans-Serif" font-size="10.00">22</text>
</a>
</g>
</g>
</g>
</svg>
