<?xml version="1.0" encoding="UTF-8" standalone="no"?>
<!DOCTYPE svg PUBLIC "-//W3C//DTD SVG 1.1//EN"
 "http://www.w3.org/Graphics/SVG/1.1/DTD/svg11.dtd">
<!-- Generated by graphviz version 2.43.0 (0)
 -->
<!-- Title: include/mlir/Dialect/SparseTensor Pages: 1 -->
<svg width="861pt" height="519pt"
 viewBox="0.00 0.00 861.50 519.00" xmlns="http://www.w3.org/2000/svg" xmlns:xlink="http://www.w3.org/1999/xlink">
<g id="graph0" class="graph" transform="scale(1 1) rotate(0) translate(4 515)">
<title>include/mlir/Dialect/SparseTensor</title>
<g id="clust1" class="cluster">
<title>clusterdir_d07a6fac82475a065a3b2953573f00a0</title>
<g id="a_clust1"><a xlink:href="dir_d07a6fac82475a065a3b2953573f00a0.html" target="_top" xlink:title="Dialect">
<polygon fill="#ddddee" stroke="black" points="301.89,-208 301.89,-503 731.89,-503 731.89,-208 301.89,-208"/>
<text text-anchor="middle" x="516.89" y="-491" font-family="Helvetica,sans-Serif" font-size="10.00">Dialect</text>
</a>
</g>
</g>
<g id="clust2" class="cluster">
<title>clusterdir_7c9e596b47e1c22c48d5e546122486f8</title>
<g id="a_clust2"><a xlink:href="dir_7c9e596b47e1c22c48d5e546122486f8.html" target="_top">
<polygon fill="#eeeeff" stroke="black" points="371.89,-352 371.89,-476 723.89,-476 723.89,-352 371.89,-352"/>
</a>
</g>
</g>
<!-- dir_832fe9af74a05d9f4772b8e442bafd02 -->
<g id="node1" class="node">
<title>dir_832fe9af74a05d9f4772b8e442bafd02</title>
<g id="a_node1"><a xlink:href="dir_832fe9af74a05d9f4772b8e442bafd02.html" target="_top" xlink:title="Transform">
<polygon fill="none" stroke="red" points="520.39,-252 455.39,-252 455.39,-216 520.39,-216 520.39,-252"/>
<text text-anchor="middle" x="487.89" y="-231.5" font-family="Helvetica,sans-Serif" font-size="10.00">Transform</text>
</a>
</g>
</g>
<!-- dir_51020c1b0909ae629a35fe1c65c620b9 -->
<g id="node11" class="node">
<title>dir_51020c1b0909ae629a35fe1c65c620b9</title>
<g id="a_node11"><a xlink:href="dir_51020c1b0909ae629a35fe1c65c620b9.html" target="_top" xlink:title="Bytecode">
<polygon fill="none" stroke="black" points="638.89,-180 576.89,-180 576.89,-144 638.89,-144 638.89,-180"/>
<text text-anchor="middle" x="607.89" y="-159.5" font-family="Helvetica,sans-Serif" font-size="10.00">Bytecode</text>
</a>
</g>
</g>
<!-- dir_832fe9af74a05d9f4772b8e442bafd02&#45;&gt;dir_51020c1b0909ae629a35fe1c65c620b9 -->
<g id="edge30" class="edge">
<title>dir_832fe9af74a05d9f4772b8e442bafd02&#45;&gt;dir_51020c1b0909ae629a35fe1c65c620b9</title>
<path fill="none" stroke="black" d="M517.24,-215.88C532.93,-206.72 552.44,-195.34 569.34,-185.48"/>
<polygon fill="black" stroke="black" points="571.55,-188.25 578.42,-180.19 568.02,-182.21 571.55,-188.25"/>
<g id="a_edge30&#45;headlabel"><a xlink:href="dir_000033_000050.html" target="_top" xlink:title="5">
<text text-anchor="middle" x="569.87" y="-190.02" font-family="Helvetica,sans-Serif" font-size="10.00">5</text>
</a>
</g>
</g>
<!-- dir_84ef7c054b4edc3447cfba80cee80f65 -->
<g id="node12" class="node">
<title>dir_84ef7c054b4edc3447cfba80cee80f65</title>
<g id="a_node12"><a xlink:href="dir_84ef7c054b4edc3447cfba80cee80f65.html" target="_top" xlink:title="IR">
<polygon fill="none" stroke="black" points="604.89,-108 550.89,-108 550.89,-72 604.89,-72 604.89,-108"/>
<text text-anchor="middle" x="577.89" y="-87.5" font-family="Helvetica,sans-Serif" font-size="10.00">IR</text>
</a>
</g>
</g>
<!-- dir_832fe9af74a05d9f4772b8e442bafd02&#45;&gt;dir_84ef7c054b4edc3447cfba80cee80f65 -->
<g id="edge31" class="edge">
<title>dir_832fe9af74a05d9f4772b8e442bafd02&#45;&gt;dir_84ef7c054b4edc3447cfba80cee80f65</title>
<path fill="none" stroke="black" d="M495.77,-215.71C504.43,-197.35 519.19,-167.77 534.89,-144 541.22,-134.41 548.93,-124.48 556.06,-115.84"/>
<polygon fill="black" stroke="black" points="558.89,-117.91 562.66,-108.01 553.54,-113.4 558.89,-117.91"/>
<g id="a_edge31&#45;headlabel"><a xlink:href="dir_000033_000046.html" target="_top" xlink:title="27">
<text text-anchor="middle" x="558.75" y="-119.99" font-family="Helvetica,sans-Serif" font-size="10.00">27</text>
</a>
</g>
</g>
<!-- dir_cab9f8330899b1cc9d753b1d9c5c5a3e -->
<g id="node13" class="node">
<title>dir_cab9f8330899b1cc9d753b1d9c5c5a3e</title>
<g id="a_node13"><a xlink:href="dir_cab9f8330899b1cc9d753b1d9c5c5a3e.html" target="_top" xlink:title="Pass">
<polygon fill="none" stroke="black" points="311.89,-180 257.89,-180 257.89,-144 311.89,-144 311.89,-180"/>
<text text-anchor="middle" x="284.89" y="-159.5" font-family="Helvetica,sans-Serif" font-size="10.00">Pass</text>
</a>
</g>
</g>
<!-- dir_832fe9af74a05d9f4772b8e442bafd02&#45;&gt;dir_cab9f8330899b1cc9d753b1d9c5c5a3e -->
<g id="edge34" class="edge">
<title>dir_832fe9af74a05d9f4772b8e442bafd02&#45;&gt;dir_cab9f8330899b1cc9d753b1d9c5c5a3e</title>
<path fill="none" stroke="black" d="M455.27,-221.75C418.75,-209.16 359.69,-188.8 321.59,-175.65"/>
<polygon fill="black" stroke="black" points="322.5,-172.27 311.9,-172.32 320.21,-178.88 322.5,-172.27"/>
<g id="a_edge34&#45;headlabel"><a xlink:href="dir_000033_000053.html" target="_top" xlink:title="2">
<text text-anchor="middle" x="326.82" y="-168.25" font-family="Helvetica,sans-Serif" font-size="10.00">2</text>
</a>
</g>
</g>
<!-- dir_cf63c3ddb21c79ef735682489f4c6a69 -->
<g id="node14" class="node">
<title>dir_cf63c3ddb21c79ef735682489f4c6a69</title>
<g id="a_node14"><a xlink:href="dir_cf63c3ddb21c79ef735682489f4c6a69.html" target="_top" xlink:title="Interfaces">
<polygon fill="none" stroke="red" points="421.39,-36 356.39,-36 356.39,0 421.39,0 421.39,-36"/>
<text text-anchor="middle" x="388.89" y="-15.5" font-family="Helvetica,sans-Serif" font-size="10.00">Interfaces</text>
</a>
</g>
</g>
<!-- dir_832fe9af74a05d9f4772b8e442bafd02&#45;&gt;dir_cf63c3ddb21c79ef735682489f4c6a69 -->
<g id="edge33" class="edge">
<title>dir_832fe9af74a05d9f4772b8e442bafd02&#45;&gt;dir_cf63c3ddb21c79ef735682489f4c6a69</title>
<path fill="none" stroke="black" d="M485.7,-215.93C481.2,-185.3 468.85,-119.74 440.89,-72 434.74,-61.51 426.06,-51.55 417.55,-43.15"/>
<polygon fill="black" stroke="black" points="419.86,-40.52 410.18,-36.21 415.06,-45.61 419.86,-40.52"/>
<g id="a_edge33&#45;headlabel"><a xlink:href="dir_000033_000279.html" target="_top" xlink:title="10">
<text text-anchor="middle" x="424.42" y="-38.42" font-family="Helvetica,sans-Serif" font-size="10.00">10</text>
</a>
</g>
</g>
<!-- dir_ca4d1f3bc4cd42ba07a57ca86d19a1d6 -->
<g id="node15" class="node">
<title>dir_ca4d1f3bc4cd42ba07a57ca86d19a1d6</title>
<g id="a_node15"><a xlink:href="dir_ca4d1f3bc4cd42ba07a57ca86d19a1d6.html" target="_top" xlink:title="Transforms">
<polygon fill="none" stroke="black" points="208.39,-252 137.39,-252 137.39,-216 208.39,-216 208.39,-252"/>
<text text-anchor="middle" x="172.89" y="-231.5" font-family="Helvetica,sans-Serif" font-size="10.00">Transforms</text>
</a>
</g>
</g>
<!-- dir_832fe9af74a05d9f4772b8e442bafd02&#45;&gt;dir_ca4d1f3bc4cd42ba07a57ca86d19a1d6 -->
<g id="edge32" class="edge">
<title>dir_832fe9af74a05d9f4772b8e442bafd02&#45;&gt;dir_ca4d1f3bc4cd42ba07a57ca86d19a1d6</title>
<path fill="none" stroke="black" d="M455.16,-234C376.33,-234 297.51,-234 218.68,-234"/>
<polygon fill="black" stroke="black" points="218.57,-230.5 208.57,-234 218.57,-237.5 218.57,-230.5"/>
<g id="a_edge32&#45;headlabel"><a xlink:href="dir_000033_000156.html" target="_top" xlink:title="1">
<text text-anchor="middle" x="222.17" y="-225.16" font-family="Helvetica,sans-Serif" font-size="10.00">1</text>
</a>
</g>
</g>
<!-- dir_762b59f238bc9709d1f8796a74c242af -->
<g id="node2" class="node">
<title>dir_762b59f238bc9709d1f8796a74c242af</title>
<g id="a_node2"><a xlink:href="dir_762b59f238bc9709d1f8796a74c242af.html" target="_top" xlink:title="Bufferization">
<polygon fill="none" stroke="red" points="489.39,-324 410.39,-324 410.39,-288 489.39,-288 489.39,-324"/>
<text text-anchor="middle" x="449.89" y="-303.5" font-family="Helvetica,sans-Serif" font-size="10.00">Bufferization</text>
</a>
</g>
</g>
<!-- dir_762b59f238bc9709d1f8796a74c242af&#45;&gt;dir_832fe9af74a05d9f4772b8e442bafd02 -->
<g id="edge12" class="edge">
<title>dir_762b59f238bc9709d1f8796a74c242af&#45;&gt;dir_832fe9af74a05d9f4772b8e442bafd02</title>
<path fill="none" stroke="black" d="M459.28,-287.7C463.65,-279.64 468.94,-269.89 473.78,-260.98"/>
<polygon fill="black" stroke="black" points="476.91,-262.56 478.6,-252.1 470.76,-259.22 476.91,-262.56"/>
<g id="a_edge12&#45;headlabel"><a xlink:href="dir_000117_000033.html" target="_top" xlink:title="2">
<text text-anchor="middle" x="477.69" y="-264.58" font-family="Helvetica,sans-Serif" font-size="10.00">2</text>
</a>
</g>
</g>
<!-- dir_762b59f238bc9709d1f8796a74c242af&#45;&gt;dir_51020c1b0909ae629a35fe1c65c620b9 -->
<g id="edge9" class="edge">
<title>dir_762b59f238bc9709d1f8796a74c242af&#45;&gt;dir_51020c1b0909ae629a35fe1c65c620b9</title>
<path fill="none" stroke="black" d="M489.56,-293.67C513.19,-285.29 542.44,-271.85 562.89,-252 580.66,-234.75 592.62,-208.98 599.72,-189.61"/>
<polygon fill="black" stroke="black" points="603.03,-190.73 602.99,-180.14 596.42,-188.45 603.03,-190.73"/>
<g id="a_edge9&#45;headlabel"><a xlink:href="dir_000117_000050.html" target="_top" xlink:title="2">
<text text-anchor="middle" x="604.54" y="-192.56" font-family="Helvetica,sans-Serif" font-size="10.00">2</text>
</a>
</g>
</g>
<!-- dir_762b59f238bc9709d1f8796a74c242af&#45;&gt;dir_84ef7c054b4edc3447cfba80cee80f65 -->
<g id="edge8" class="edge">
<title>dir_762b59f238bc9709d1f8796a74c242af&#45;&gt;dir_84ef7c054b4edc3447cfba80cee80f65</title>
<path fill="none" stroke="black" d="M486.8,-287.79C502.08,-279.01 518.78,-266.99 529.89,-252 545.71,-230.65 563.33,-158.12 572.17,-118.09"/>
<polygon fill="black" stroke="black" points="575.61,-118.71 574.32,-108.2 568.77,-117.23 575.61,-118.71"/>
<g id="a_edge8&#45;headlabel"><a xlink:href="dir_000117_000046.html" target="_top" xlink:title="15">
<text text-anchor="middle" x="577.62" y="-120.33" font-family="Helvetica,sans-Serif" font-size="10.00">15</text>
</a>
</g>
</g>
<!-- dir_762b59f238bc9709d1f8796a74c242af&#45;&gt;dir_cab9f8330899b1cc9d753b1d9c5c5a3e -->
<g id="edge11" class="edge">
<title>dir_762b59f238bc9709d1f8796a74c242af&#45;&gt;dir_cab9f8330899b1cc9d753b1d9c5c5a3e</title>
<path fill="none" stroke="black" d="M429.98,-287.87C400.75,-262.71 346.07,-215.65 312.82,-187.04"/>
<polygon fill="black" stroke="black" points="314.72,-184.06 304.86,-180.19 310.16,-189.37 314.72,-184.06"/>
<g id="a_edge11&#45;headlabel"><a xlink:href="dir_000117_000053.html" target="_top" xlink:title="2">
<text text-anchor="middle" x="319.3" y="-181.75" font-family="Helvetica,sans-Serif" font-size="10.00">2</text>
</a>
</g>
</g>
<!-- dir_762b59f238bc9709d1f8796a74c242af&#45;&gt;dir_cf63c3ddb21c79ef735682489f4c6a69 -->
<g id="edge10" class="edge">
<title>dir_762b59f238bc9709d1f8796a74c242af&#45;&gt;dir_cf63c3ddb21c79ef735682489f4c6a69</title>
<path fill="none" stroke="black" d="M446.25,-287.97C436.06,-240.19 407.15,-104.62 394.7,-46.27"/>
<polygon fill="black" stroke="black" points="398.09,-45.36 392.58,-36.31 391.24,-46.82 398.09,-45.36"/>
<g id="a_edge10&#45;headlabel"><a xlink:href="dir_000117_000279.html" target="_top" xlink:title="7">
<text text-anchor="middle" x="401.61" y="-45.78" font-family="Helvetica,sans-Serif" font-size="10.00">7</text>
</a>
</g>
</g>
<!-- dir_762b59f238bc9709d1f8796a74c242af&#45;&gt;dir_ca4d1f3bc4cd42ba07a57ca86d19a1d6 -->
<g id="edge13" class="edge">
<title>dir_762b59f238bc9709d1f8796a74c242af&#45;&gt;dir_ca4d1f3bc4cd42ba07a57ca86d19a1d6</title>
<path fill="none" stroke="black" d="M410.2,-294.97C359.47,-282.15 271.82,-260 218.42,-246.51"/>
<polygon fill="black" stroke="black" points="219.1,-243.07 208.54,-244.01 217.38,-249.85 219.1,-243.07"/>
<g id="a_edge13&#45;headlabel"><a xlink:href="dir_000117_000156.html" target="_top" xlink:title="2">
<text text-anchor="middle" x="223.28" y="-238.7" font-family="Helvetica,sans-Serif" font-size="10.00">2</text>
</a>
</g>
</g>
<!-- dir_7d4534fbf0715cf3ed7975990f2820c5 -->
<g id="node3" class="node">
<title>dir_7d4534fbf0715cf3ed7975990f2820c5</title>
<g id="a_node3"><a xlink:href="dir_7d4534fbf0715cf3ed7975990f2820c5.html" target="_top" xlink:title="Linalg">
<polygon fill="none" stroke="red" points="363.89,-396 309.89,-396 309.89,-360 363.89,-360 363.89,-396"/>
<text text-anchor="middle" x="336.89" y="-375.5" font-family="Helvetica,sans-Serif" font-size="10.00">Linalg</text>
</a>
</g>
</g>
<!-- dir_7d4534fbf0715cf3ed7975990f2820c5&#45;&gt;dir_832fe9af74a05d9f4772b8e442bafd02 -->
<g id="edge39" class="edge">
<title>dir_7d4534fbf0715cf3ed7975990f2820c5&#45;&gt;dir_832fe9af74a05d9f4772b8e442bafd02</title>
<path fill="none" stroke="black" d="M355.28,-359.88C359.22,-356.89 363.52,-354.08 367.89,-352 421.64,-326.39 461.45,-370.29 498.89,-324 512.89,-306.68 507.81,-280.93 500.6,-261.57"/>
<polygon fill="black" stroke="black" points="503.75,-260.04 496.72,-252.11 497.28,-262.69 503.75,-260.04"/>
<g id="a_edge39&#45;headlabel"><a xlink:href="dir_000025_000033.html" target="_top" xlink:title="6">
<text text-anchor="middle" x="507.74" y="-259.79" font-family="Helvetica,sans-Serif" font-size="10.00">6</text>
</a>
</g>
</g>
<!-- dir_7d4534fbf0715cf3ed7975990f2820c5&#45;&gt;dir_762b59f238bc9709d1f8796a74c242af -->
<g id="edge40" class="edge">
<title>dir_7d4534fbf0715cf3ed7975990f2820c5&#45;&gt;dir_762b59f238bc9709d1f8796a74c242af</title>
<path fill="none" stroke="black" d="M357.18,-359.8C360.67,-357.08 364.33,-354.39 367.89,-352 380.05,-343.85 393.81,-335.87 406.54,-328.94"/>
<polygon fill="black" stroke="black" points="408.42,-331.9 415.58,-324.09 405.12,-325.73 408.42,-331.9"/>
<g id="a_edge40&#45;headlabel"><a xlink:href="dir_000025_000117.html" target="_top" xlink:title="2">
<text text-anchor="middle" x="406.59" y="-333.6" font-family="Helvetica,sans-Serif" font-size="10.00">2</text>
</a>
</g>
</g>
<!-- dir_37f3372f1e76d74ffd54613af9306e43 -->
<g id="node10" class="node">
<title>dir_37f3372f1e76d74ffd54613af9306e43</title>
<g id="a_node10"><a xlink:href="dir_37f3372f1e76d74ffd54613af9306e43.html" target="_top" xlink:title="Conversion">
<polygon fill="none" stroke="red" points="150.39,-324 79.39,-324 79.39,-288 150.39,-288 150.39,-324"/>
<text text-anchor="middle" x="114.89" y="-303.5" font-family="Helvetica,sans-Serif" font-size="10.00">Conversion</text>
</a>
</g>
</g>
<!-- dir_7d4534fbf0715cf3ed7975990f2820c5&#45;&gt;dir_37f3372f1e76d74ffd54613af9306e43 -->
<g id="edge41" class="edge">
<title>dir_7d4534fbf0715cf3ed7975990f2820c5&#45;&gt;dir_37f3372f1e76d74ffd54613af9306e43</title>
<path fill="none" stroke="black" d="M309.88,-370.67C276.06,-361.45 216.92,-343.62 160.36,-325.42"/>
<polygon fill="black" stroke="black" points="161.17,-322.01 150.58,-322.26 159.02,-328.67 161.17,-322.01"/>
<g id="a_edge41&#45;headlabel"><a xlink:href="dir_000025_000056.html" target="_top" xlink:title="1">
<text text-anchor="middle" x="165.46" y="-317.91" font-family="Helvetica,sans-Serif" font-size="10.00">1</text>
</a>
</g>
</g>
<!-- dir_7d4534fbf0715cf3ed7975990f2820c5&#45;&gt;dir_51020c1b0909ae629a35fe1c65c620b9 -->
<g id="edge35" class="edge">
<title>dir_7d4534fbf0715cf3ed7975990f2820c5&#45;&gt;dir_51020c1b0909ae629a35fe1c65c620b9</title>
<path fill="none" stroke="black" d="M355.26,-359.84C359.2,-356.85 363.5,-354.05 367.89,-352 425.35,-325.09 450.92,-351.94 507.89,-324 551.73,-302.5 566.52,-294.32 590.89,-252 601.72,-233.2 605.81,-208.82 607.28,-190.33"/>
<polygon fill="black" stroke="black" points="610.79,-190.4 607.88,-180.22 603.8,-189.99 610.79,-190.4"/>
<g id="a_edge35&#45;headlabel"><a xlink:href="dir_000025_000050.html" target="_top" xlink:title="1">
<text text-anchor="middle" x="613.41" y="-191.66" font-family="Helvetica,sans-Serif" font-size="10.00">1</text>
</a>
</g>
</g>
<!-- dir_7d4534fbf0715cf3ed7975990f2820c5&#45;&gt;dir_84ef7c054b4edc3447cfba80cee80f65 -->
<g id="edge36" class="edge">
<title>dir_7d4534fbf0715cf3ed7975990f2820c5&#45;&gt;dir_84ef7c054b4edc3447cfba80cee80f65</title>
<path fill="none" stroke="black" d="M354.85,-359.94C358.89,-356.87 363.33,-354.01 367.89,-352 442.76,-318.95 478.31,-363.69 549.89,-324 617.59,-286.46 630.1,-255.34 647.89,-180 651.56,-164.43 655.01,-158.33 647.89,-144 640.54,-129.22 626.88,-117.46 613.57,-108.81"/>
<polygon fill="black" stroke="black" points="615.31,-105.77 604.94,-103.58 611.68,-111.76 615.31,-105.77"/>
<g id="a_edge36&#45;headlabel"><a xlink:href="dir_000025_000046.html" target="_top" xlink:title="20">
<text text-anchor="middle" x="619.85" y="-102.71" font-family="Helvetica,sans-Serif" font-size="10.00">20</text>
</a>
</g>
</g>
<!-- dir_7d4534fbf0715cf3ed7975990f2820c5&#45;&gt;dir_cab9f8330899b1cc9d753b1d9c5c5a3e -->
<g id="edge37" class="edge">
<title>dir_7d4534fbf0715cf3ed7975990f2820c5&#45;&gt;dir_cab9f8330899b1cc9d753b1d9c5c5a3e</title>
<path fill="none" stroke="black" d="M330.83,-359.81C322.6,-335.91 307.87,-291.13 298.89,-252 294.19,-231.55 290.58,-208.09 288.19,-190.39"/>
<polygon fill="black" stroke="black" points="291.63,-189.66 286.87,-180.2 284.69,-190.56 291.63,-189.66"/>
<g id="a_edge37&#45;headlabel"><a xlink:href="dir_000025_000053.html" target="_top" xlink:title="1">
<text text-anchor="middle" x="294.91" y="-190.36" font-family="Helvetica,sans-Serif" font-size="10.00">1</text>
</a>
</g>
</g>
<!-- dir_7d4534fbf0715cf3ed7975990f2820c5&#45;&gt;dir_cf63c3ddb21c79ef735682489f4c6a69 -->
<g id="edge38" class="edge">
<title>dir_7d4534fbf0715cf3ed7975990f2820c5&#45;&gt;dir_cf63c3ddb21c79ef735682489f4c6a69</title>
<path fill="none" stroke="black" d="M309.85,-374.84C249.56,-369.53 106.54,-354.02 69.89,-324 36.75,-296.85 32.89,-277.84 32.89,-235 32.89,-235 32.89,-235 32.89,-161 32.89,-94.22 251.75,-44.86 346.26,-26.66"/>
<polygon fill="black" stroke="black" points="347.18,-30.05 356.35,-24.75 345.87,-23.17 347.18,-30.05"/>
<g id="a_edge38&#45;headlabel"><a xlink:href="dir_000025_000279.html" target="_top" xlink:title="12">
<text text-anchor="middle" x="344.18" y="-31.01" font-family="Helvetica,sans-Serif" font-size="10.00">12</text>
</a>
</g>
</g>
<!-- dir_7d4534fbf0715cf3ed7975990f2820c5&#45;&gt;dir_ca4d1f3bc4cd42ba07a57ca86d19a1d6 -->
<g id="edge42" class="edge">
<title>dir_7d4534fbf0715cf3ed7975990f2820c5&#45;&gt;dir_ca4d1f3bc4cd42ba07a57ca86d19a1d6</title>
<path fill="none" stroke="black" d="M309.86,-362.2C293,-352.39 271.27,-338.65 253.89,-324 230.93,-304.65 208.22,-278.97 192.71,-260.17"/>
<polygon fill="black" stroke="black" points="195.35,-257.87 186.32,-252.32 189.92,-262.29 195.35,-257.87"/>
<g id="a_edge42&#45;headlabel"><a xlink:href="dir_000025_000156.html" target="_top" xlink:title="1">
<text text-anchor="middle" x="199.82" y="-256.37" font-family="Helvetica,sans-Serif" font-size="10.00">1</text>
</a>
</g>
</g>
<!-- dir_7c9e596b47e1c22c48d5e546122486f8 -->
<g id="node4" class="node">
<title>dir_7c9e596b47e1c22c48d5e546122486f8</title>
<text text-anchor="middle" x="674.89" y="-447.5" font-family="Helvetica,sans-Serif" font-size="10.00">SparseTensor</text>
</g>
<!-- dir_1d62783966c31f9bfe0b6de9057e0d76 -->
<g id="node5" class="node">
<title>dir_1d62783966c31f9bfe0b6de9057e0d76</title>
<g id="a_node5"><a xlink:href="dir_1d62783966c31f9bfe0b6de9057e0d76.html" target="_top" xlink:title="IR">
<polygon fill="white" stroke="black" points="533.89,-396 479.89,-396 479.89,-360 533.89,-360 533.89,-396"/>
<text text-anchor="middle" x="506.89" y="-375.5" font-family="Helvetica,sans-Serif" font-size="10.00">IR</text>
</a>
</g>
</g>
<!-- dir_1d62783966c31f9bfe0b6de9057e0d76&#45;&gt;dir_51020c1b0909ae629a35fe1c65c620b9 -->
<g id="edge14" class="edge">
<title>dir_1d62783966c31f9bfe0b6de9057e0d76&#45;&gt;dir_51020c1b0909ae629a35fe1c65c620b9</title>
<path fill="none" stroke="black" d="M533.99,-373.02C579.6,-365.7 668.5,-348.59 686.89,-324 719.83,-279.96 669.7,-220.04 635.45,-187.13"/>
<polygon fill="black" stroke="black" points="637.69,-184.42 628,-180.14 632.9,-189.53 637.69,-184.42"/>
<g id="a_edge14&#45;headlabel"><a xlink:href="dir_000255_000050.html" target="_top" xlink:title="1">
<text text-anchor="middle" x="642.25" y="-182.31" font-family="Helvetica,sans-Serif" font-size="10.00">1</text>
</a>
</g>
</g>
<!-- dir_1d62783966c31f9bfe0b6de9057e0d76&#45;&gt;dir_84ef7c054b4edc3447cfba80cee80f65 -->
<g id="edge15" class="edge">
<title>dir_1d62783966c31f9bfe0b6de9057e0d76&#45;&gt;dir_84ef7c054b4edc3447cfba80cee80f65</title>
<path fill="none" stroke="black" d="M533.98,-375.32C592.08,-371.09 725.58,-357.82 752.89,-324 803.15,-261.76 800.56,-208.25 752.89,-144 721.3,-101.43 656.48,-91.85 615.21,-90.33"/>
<polygon fill="black" stroke="black" points="615.08,-86.82 605,-90.1 614.92,-93.82 615.08,-86.82"/>
<g id="a_edge15&#45;headlabel"><a xlink:href="dir_000255_000046.html" target="_top" xlink:title="6">
<text text-anchor="middle" x="618.73" y="-81.57" font-family="Helvetica,sans-Serif" font-size="10.00">6</text>
</a>
</g>
</g>
<!-- dir_1d62783966c31f9bfe0b6de9057e0d76&#45;&gt;dir_cf63c3ddb21c79ef735682489f4c6a69 -->
<g id="edge16" class="edge">
<title>dir_1d62783966c31f9bfe0b6de9057e0d76&#45;&gt;dir_cf63c3ddb21c79ef735682489f4c6a69</title>
<path fill="none" stroke="black" d="M479.7,-360.88C474.2,-357.81 468.41,-354.71 462.89,-352 433.92,-337.78 418.83,-346.7 395.89,-324 371.12,-299.5 371.92,-286.12 364.89,-252 349.72,-178.41 368.95,-89.67 380.82,-45.99"/>
<polygon fill="black" stroke="black" points="384.26,-46.71 383.59,-36.14 377.52,-44.82 384.26,-46.71"/>
<g id="a_edge16&#45;headlabel"><a xlink:href="dir_000255_000279.html" target="_top" xlink:title="4">
<text text-anchor="middle" x="386.02" y="-48.44" font-family="Helvetica,sans-Serif" font-size="10.00">4</text>
</a>
</g>
</g>
<!-- dir_6d1cef63ab20cad681d9f3dd2894477c -->
<g id="node6" class="node">
<title>dir_6d1cef63ab20cad681d9f3dd2894477c</title>
<g id="a_node6"><a xlink:href="dir_6d1cef63ab20cad681d9f3dd2894477c.html" target="_top" xlink:title="Pipelines">
<polygon fill="white" stroke="black" points="441.39,-468 380.39,-468 380.39,-432 441.39,-432 441.39,-468"/>
<text text-anchor="middle" x="410.89" y="-447.5" font-family="Helvetica,sans-Serif" font-size="10.00">Pipelines</text>
</a>
</g>
</g>
<!-- dir_205858882c98b1a7adabcf1371456404 -->
<g id="node8" class="node">
<title>dir_205858882c98b1a7adabcf1371456404</title>
<g id="a_node8"><a xlink:href="dir_205858882c98b1a7adabcf1371456404.html" target="_top" xlink:title="Transforms">
<polygon fill="white" stroke="black" points="453.39,-396 382.39,-396 382.39,-360 453.39,-360 453.39,-396"/>
<text text-anchor="middle" x="417.89" y="-375.5" font-family="Helvetica,sans-Serif" font-size="10.00">Transforms</text>
</a>
</g>
</g>
<!-- dir_6d1cef63ab20cad681d9f3dd2894477c&#45;&gt;dir_205858882c98b1a7adabcf1371456404 -->
<g id="edge23" class="edge">
<title>dir_6d1cef63ab20cad681d9f3dd2894477c&#45;&gt;dir_205858882c98b1a7adabcf1371456404</title>
<path fill="none" stroke="black" d="M412.62,-431.7C413.39,-423.98 414.32,-414.71 415.18,-406.11"/>
<polygon fill="black" stroke="black" points="418.66,-406.4 416.18,-396.1 411.7,-405.71 418.66,-406.4"/>
<g id="a_edge23&#45;headlabel"><a xlink:href="dir_000143_000144.html" target="_top" xlink:title="1">
<text text-anchor="middle" x="421.13" y="-407.76" font-family="Helvetica,sans-Serif" font-size="10.00">1</text>
</a>
</g>
</g>
<!-- dir_6d1cef63ab20cad681d9f3dd2894477c&#45;&gt;dir_37f3372f1e76d74ffd54613af9306e43 -->
<g id="edge24" class="edge">
<title>dir_6d1cef63ab20cad681d9f3dd2894477c&#45;&gt;dir_37f3372f1e76d74ffd54613af9306e43</title>
<path fill="none" stroke="black" d="M380.23,-445.08C340.41,-439.02 269.64,-424.94 215.89,-396 185,-379.37 155.62,-351.65 136.59,-331.56"/>
<polygon fill="black" stroke="black" points="138.95,-328.96 129.58,-324.01 133.82,-333.72 138.95,-328.96"/>
<g id="a_edge24&#45;headlabel"><a xlink:href="dir_000143_000056.html" target="_top" xlink:title="1">
<text text-anchor="middle" x="143.47" y="-327.16" font-family="Helvetica,sans-Serif" font-size="10.00">1</text>
</a>
</g>
</g>
<!-- dir_6d1cef63ab20cad681d9f3dd2894477c&#45;&gt;dir_cab9f8330899b1cc9d753b1d9c5c5a3e -->
<g id="edge25" class="edge">
<title>dir_6d1cef63ab20cad681d9f3dd2894477c&#45;&gt;dir_cab9f8330899b1cc9d753b1d9c5c5a3e</title>
<path fill="none" stroke="black" d="M380.14,-443.48C353.65,-436.97 316.78,-423.37 297.89,-396 254.54,-333.21 267.93,-236.7 278.05,-190.07"/>
<polygon fill="black" stroke="black" points="281.5,-190.65 280.32,-180.12 274.68,-189.09 281.5,-190.65"/>
<g id="a_edge25&#45;headlabel"><a xlink:href="dir_000143_000053.html" target="_top" xlink:title="1">
<text text-anchor="middle" x="283.47" y="-192.29" font-family="Helvetica,sans-Serif" font-size="10.00">1</text>
</a>
</g>
</g>
<!-- dir_68b19070d29418d02e90bee04581b00d -->
<g id="node7" class="node">
<title>dir_68b19070d29418d02e90bee04581b00d</title>
<g id="a_node7"><a xlink:href="dir_68b19070d29418d02e90bee04581b00d.html" target="_top" xlink:title="TransformOps">
<polygon fill="white" stroke="black" points="615.89,-468 531.89,-468 531.89,-432 615.89,-432 615.89,-468"/>
<text text-anchor="middle" x="573.89" y="-447.5" font-family="Helvetica,sans-Serif" font-size="10.00">TransformOps</text>
</a>
</g>
</g>
<!-- dir_68b19070d29418d02e90bee04581b00d&#45;&gt;dir_832fe9af74a05d9f4772b8e442bafd02 -->
<g id="edge20" class="edge">
<title>dir_68b19070d29418d02e90bee04581b00d&#45;&gt;dir_832fe9af74a05d9f4772b8e442bafd02</title>
<path fill="none" stroke="black" d="M569.17,-431.94C563.59,-412.39 553.68,-379.48 542.89,-352 530.34,-320.05 513.15,-284.52 501.35,-261.09"/>
<polygon fill="black" stroke="black" points="504.45,-259.47 496.81,-252.13 498.21,-262.64 504.45,-259.47"/>
<g id="a_edge20&#45;headlabel"><a xlink:href="dir_000256_000033.html" target="_top" xlink:title="4">
<text text-anchor="middle" x="508.61" y="-258.89" font-family="Helvetica,sans-Serif" font-size="10.00">4</text>
</a>
</g>
</g>
<!-- dir_68b19070d29418d02e90bee04581b00d&#45;&gt;dir_84ef7c054b4edc3447cfba80cee80f65 -->
<g id="edge21" class="edge">
<title>dir_68b19070d29418d02e90bee04581b00d&#45;&gt;dir_84ef7c054b4edc3447cfba80cee80f65</title>
<path fill="none" stroke="black" d="M616.03,-434.67C619.35,-433.71 622.66,-432.81 625.89,-432 714.76,-409.71 761.31,-457.88 828.89,-396 859.1,-368.33 852.89,-347.97 852.89,-307 852.89,-307 852.89,-307 852.89,-233 852.89,-192.03 858.65,-172.16 828.89,-144 798.46,-115.21 677.22,-100.11 615.06,-94.13"/>
<polygon fill="black" stroke="black" points="615.17,-90.63 604.89,-93.18 614.52,-97.6 615.17,-90.63"/>
<g id="a_edge21&#45;headlabel"><a xlink:href="dir_000256_000046.html" target="_top" xlink:title="2">
<text text-anchor="middle" x="619.01" y="-85.63" font-family="Helvetica,sans-Serif" font-size="10.00">2</text>
</a>
</g>
</g>
<!-- dir_205858882c98b1a7adabcf1371456404&#45;&gt;dir_762b59f238bc9709d1f8796a74c242af -->
<g id="edge44" class="edge">
<title>dir_205858882c98b1a7adabcf1371456404&#45;&gt;dir_762b59f238bc9709d1f8796a74c242af</title>
<path fill="none" stroke="black" d="M425.8,-359.7C429.44,-351.73 433.84,-342.1 437.88,-333.26"/>
<polygon fill="black" stroke="black" points="441.09,-334.65 442.07,-324.1 434.73,-331.74 441.09,-334.65"/>
<g id="a_edge44&#45;headlabel"><a xlink:href="dir_000144_000117.html" target="_top" xlink:title="1">
<text text-anchor="middle" x="442.18" y="-336.6" font-family="Helvetica,sans-Serif" font-size="10.00">1</text>
</a>
</g>
</g>
<!-- dir_205858882c98b1a7adabcf1371456404&#45;&gt;dir_84ef7c054b4edc3447cfba80cee80f65 -->
<g id="edge45" class="edge">
<title>dir_205858882c98b1a7adabcf1371456404&#45;&gt;dir_84ef7c054b4edc3447cfba80cee80f65</title>
<path fill="none" stroke="black" d="M449.74,-359.91C456.56,-356.84 463.84,-353.99 470.89,-352 525.54,-336.56 687,-366.3 724.89,-324 778.35,-264.32 765.16,-206.39 714.89,-144 690.52,-113.76 646.66,-100.74 615.13,-95.16"/>
<polygon fill="black" stroke="black" points="615.38,-91.65 604.95,-93.54 614.27,-98.57 615.38,-91.65"/>
<g id="a_edge45&#45;headlabel"><a xlink:href="dir_000144_000046.html" target="_top" xlink:title="1">
<text text-anchor="middle" x="619.37" y="-86.92" font-family="Helvetica,sans-Serif" font-size="10.00">1</text>
</a>
</g>
</g>
<!-- dir_205858882c98b1a7adabcf1371456404&#45;&gt;dir_cab9f8330899b1cc9d753b1d9c5c5a3e -->
<g id="edge47" class="edge">
<title>dir_205858882c98b1a7adabcf1371456404&#45;&gt;dir_cab9f8330899b1cc9d753b1d9c5c5a3e</title>
<path fill="none" stroke="black" d="M399.43,-359.94C389.35,-350.05 377.1,-337.01 367.89,-324 336.76,-280.04 310.13,-222.83 295.91,-189.78"/>
<polygon fill="black" stroke="black" points="299.04,-188.18 291.91,-180.34 292.59,-190.92 299.04,-188.18"/>
<g id="a_edge47&#45;headlabel"><a xlink:href="dir_000144_000053.html" target="_top" xlink:title="1">
<text text-anchor="middle" x="303.05" y="-187.88" font-family="Helvetica,sans-Serif" font-size="10.00">1</text>
</a>
</g>
</g>
<!-- dir_205858882c98b1a7adabcf1371456404&#45;&gt;dir_ca4d1f3bc4cd42ba07a57ca86d19a1d6 -->
<g id="edge46" class="edge">
<title>dir_205858882c98b1a7adabcf1371456404&#45;&gt;dir_ca4d1f3bc4cd42ba07a57ca86d19a1d6</title>
<path fill="none" stroke="black" d="M391.57,-359.86C387.36,-357.19 383.02,-354.49 378.89,-352 370.85,-347.14 269.33,-289.61 211.88,-257.08"/>
<polygon fill="black" stroke="black" points="213.49,-253.96 203.06,-252.08 210.04,-260.05 213.49,-253.96"/>
<g id="a_edge46&#45;headlabel"><a xlink:href="dir_000144_000156.html" target="_top" xlink:title="1">
<text text-anchor="middle" x="218.01" y="-250.76" font-family="Helvetica,sans-Serif" font-size="10.00">1</text>
</a>
</g>
</g>
<!-- dir_a819a1380bbccb913d22930df867237e -->
<g id="node9" class="node">
<title>dir_a819a1380bbccb913d22930df867237e</title>
<g id="a_node9"><a xlink:href="dir_a819a1380bbccb913d22930df867237e.html" target="_top" xlink:title="Utils">
<polygon fill="white" stroke="black" points="513.89,-468 459.89,-468 459.89,-432 513.89,-432 513.89,-468"/>
<text text-anchor="middle" x="486.89" y="-447.5" font-family="Helvetica,sans-Serif" font-size="10.00">Utils</text>
</a>
</g>
</g>
<!-- dir_a819a1380bbccb913d22930df867237e&#45;&gt;dir_7d4534fbf0715cf3ed7975990f2820c5 -->
<g id="edge28" class="edge">
<title>dir_a819a1380bbccb913d22930df867237e&#45;&gt;dir_7d4534fbf0715cf3ed7975990f2820c5</title>
<path fill="none" stroke="black" d="M459.8,-436.1C456.8,-434.7 453.78,-433.31 450.89,-432 417.26,-416.77 405.86,-414.07 373.43,-398.62"/>
<polygon fill="black" stroke="black" points="374.73,-395.36 364.2,-394.16 371.68,-401.66 374.73,-395.36"/>
<g id="a_edge28&#45;headlabel"><a xlink:href="dir_000257_000025.html" target="_top" xlink:title="1">
<text text-anchor="middle" x="379.2" y="-391.87" font-family="Helvetica,sans-Serif" font-size="10.00">1</text>
</a>
</g>
</g>
<!-- dir_a819a1380bbccb913d22930df867237e&#45;&gt;dir_1d62783966c31f9bfe0b6de9057e0d76 -->
<g id="edge27" class="edge">
<title>dir_a819a1380bbccb913d22930df867237e&#45;&gt;dir_1d62783966c31f9bfe0b6de9057e0d76</title>
<path fill="none" stroke="black" d="M491.83,-431.7C494.06,-423.9 496.74,-414.51 499.22,-405.83"/>
<polygon fill="black" stroke="black" points="502.62,-406.68 502,-396.1 495.89,-404.76 502.62,-406.68"/>
<g id="a_edge27&#45;headlabel"><a xlink:href="dir_000257_000255.html" target="_top" xlink:title="2">
<text text-anchor="middle" x="504.36" y="-408.42" font-family="Helvetica,sans-Serif" font-size="10.00">2</text>
</a>
</g>
</g>
<!-- dir_a819a1380bbccb913d22930df867237e&#45;&gt;dir_84ef7c054b4edc3447cfba80cee80f65 -->
<g id="edge29" class="edge">
<title>dir_a819a1380bbccb913d22930df867237e&#45;&gt;dir_84ef7c054b4edc3447cfba80cee80f65</title>
<path fill="none" stroke="black" d="M513.96,-436.07C516.96,-434.68 519.99,-433.3 522.89,-432 651.74,-374.32 814.89,-448.17 814.89,-307 814.89,-307 814.89,-307 814.89,-233 814.89,-190.16 810.15,-172.18 777.89,-144 732.02,-103.94 659.2,-93.7 615.23,-91.34"/>
<polygon fill="black" stroke="black" points="615.12,-87.84 604.98,-90.91 614.82,-94.83 615.12,-87.84"/>
<g id="a_edge29&#45;headlabel"><a xlink:href="dir_000257_000046.html" target="_top" xlink:title="1">
<text text-anchor="middle" x="618.83" y="-82.65" font-family="Helvetica,sans-Serif" font-size="10.00">1</text>
</a>
</g>
</g>
<!-- dir_37f3372f1e76d74ffd54613af9306e43&#45;&gt;dir_7d4534fbf0715cf3ed7975990f2820c5 -->
<g id="edge7" class="edge">
<title>dir_37f3372f1e76d74ffd54613af9306e43&#45;&gt;dir_7d4534fbf0715cf3ed7975990f2820c5</title>
<path fill="none" stroke="black" d="M150.49,-316.32C158.28,-318.85 166.39,-321.57 173.89,-324 217.12,-338.01 266.75,-353.21 299.9,-363.72"/>
<polygon fill="black" stroke="black" points="299.05,-367.12 309.64,-366.83 301.18,-360.45 299.05,-367.12"/>
<g id="a_edge7&#45;headlabel"><a xlink:href="dir_000056_000025.html" target="_top" xlink:title="1">
<text text-anchor="middle" x="294.76" y="-366.24" font-family="Helvetica,sans-Serif" font-size="10.00">1</text>
</a>
</g>
</g>
<!-- dir_37f3372f1e76d74ffd54613af9306e43&#45;&gt;dir_84ef7c054b4edc3447cfba80cee80f65 -->
<g id="edge3" class="edge">
<title>dir_37f3372f1e76d74ffd54613af9306e43&#45;&gt;dir_84ef7c054b4edc3447cfba80cee80f65</title>
<path fill="none" stroke="black" d="M108.33,-287.71C101.75,-267.35 94.36,-233.13 107.89,-208 132.37,-162.52 156.59,-162.3 204.89,-144 321.58,-99.78 471.52,-92.04 540.33,-90.96"/>
<polygon fill="black" stroke="black" points="540.7,-94.45 550.66,-90.84 540.62,-87.45 540.7,-94.45"/>
<g id="a_edge3&#45;headlabel"><a xlink:href="dir_000056_000046.html" target="_top" xlink:title="23">
<text text-anchor="middle" x="537.14" y="-94.83" font-family="Helvetica,sans-Serif" font-size="10.00">23</text>
</a>
</g>
</g>
<!-- dir_37f3372f1e76d74ffd54613af9306e43&#45;&gt;dir_cab9f8330899b1cc9d753b1d9c5c5a3e -->
<g id="edge5" class="edge">
<title>dir_37f3372f1e76d74ffd54613af9306e43&#45;&gt;dir_cab9f8330899b1cc9d753b1d9c5c5a3e</title>
<path fill="none" stroke="black" d="M112,-287.67C109.48,-266.3 108.78,-230.12 127.89,-208 157.49,-173.72 211.28,-164.7 247.54,-162.76"/>
<polygon fill="black" stroke="black" points="247.87,-166.25 257.73,-162.38 247.6,-159.26 247.87,-166.25"/>
<g id="a_edge5&#45;headlabel"><a xlink:href="dir_000056_000053.html" target="_top" xlink:title="28">
<text text-anchor="middle" x="244.38" y="-166.73" font-family="Helvetica,sans-Serif" font-size="10.00">28</text>
</a>
</g>
</g>
<!-- dir_37f3372f1e76d74ffd54613af9306e43&#45;&gt;dir_cf63c3ddb21c79ef735682489f4c6a69 -->
<g id="edge6" class="edge">
<title>dir_37f3372f1e76d74ffd54613af9306e43&#45;&gt;dir_cf63c3ddb21c79ef735682489f4c6a69</title>
<path fill="none" stroke="black" d="M96.77,-287.8C55.16,-246.3 -39.29,-139.11 18.89,-72 60.81,-23.65 257.76,-18.34 345.97,-18.45"/>
<polygon fill="black" stroke="black" points="346.16,-21.95 356.17,-18.49 346.19,-14.95 346.16,-21.95"/>
<g id="a_edge6&#45;headlabel"><a xlink:href="dir_000056_000279.html" target="_top" xlink:title="3">
<text text-anchor="middle" x="342.56" y="-22.28" font-family="Helvetica,sans-Serif" font-size="10.00">3</text>
</a>
</g>
</g>
<!-- dir_37f3372f1e76d74ffd54613af9306e43&#45;&gt;dir_ca4d1f3bc4cd42ba07a57ca86d19a1d6 -->
<g id="edge4" class="edge">
<title>dir_37f3372f1e76d74ffd54613af9306e43&#45;&gt;dir_ca4d1f3bc4cd42ba07a57ca86d19a1d6</title>
<path fill="none" stroke="black" d="M129.22,-287.7C136.18,-279.3 144.66,-269.07 152.29,-259.86"/>
<polygon fill="black" stroke="black" points="155.03,-262.04 158.72,-252.1 149.64,-257.57 155.03,-262.04"/>
<g id="a_edge4&#45;headlabel"><a xlink:href="dir_000056_000156.html" target="_top" xlink:title="19">
<text text-anchor="middle" x="154.92" y="-264.12" font-family="Helvetica,sans-Serif" font-size="10.00">19</text>
</a>
</g>
</g>
<!-- dir_51020c1b0909ae629a35fe1c65c620b9&#45;&gt;dir_84ef7c054b4edc3447cfba80cee80f65 -->
<g id="edge22" class="edge">
<title>dir_51020c1b0909ae629a35fe1c65c620b9&#45;&gt;dir_84ef7c054b4edc3447cfba80cee80f65</title>
<path fill="none" stroke="black" d="M594.56,-143.7C590.36,-135.81 586.07,-126.3 582.69,-117.55"/>
<polygon fill="black" stroke="black" points="585.98,-116.35 579.32,-108.1 579.39,-118.7 585.98,-116.35"/>
<g id="a_edge22&#45;headlabel"><a xlink:href="dir_000050_000046.html" target="_top" xlink:title="9">
<text text-anchor="middle" x="589.86" y="-116.28" font-family="Helvetica,sans-Serif" font-size="10.00">9</text>
</a>
</g>
</g>
<!-- dir_84ef7c054b4edc3447cfba80cee80f65&#45;&gt;dir_51020c1b0909ae629a35fe1c65c620b9 -->
<g id="edge1" class="edge">
<title>dir_84ef7c054b4edc3447cfba80cee80f65&#45;&gt;dir_51020c1b0909ae629a35fe1c65c620b9</title>
<path fill="none" stroke="black" d="M591.11,-108.1C595.3,-115.96 599.6,-125.46 603,-134.23"/>
<polygon fill="black" stroke="black" points="599.72,-135.46 606.39,-143.7 606.31,-133.1 599.72,-135.46"/>
<g id="a_edge1&#45;headlabel"><a xlink:href="dir_000046_000050.html" target="_top" xlink:title="2">
<text text-anchor="middle" x="595.83" y="-130.54" font-family="Helvetica,sans-Serif" font-size="10.00">2</text>
</a>
</g>
</g>
<!-- dir_84ef7c054b4edc3447cfba80cee80f65&#45;&gt;dir_cf63c3ddb21c79ef735682489f4c6a69 -->
<g id="edge2" class="edge">
<title>dir_84ef7c054b4edc3447cfba80cee80f65&#45;&gt;dir_cf63c3ddb21c79ef735682489f4c6a69</title>
<path fill="none" stroke="black" d="M550.51,-80.56C519.08,-69.77 467.49,-50.84 430.99,-36.8"/>
<polygon fill="black" stroke="black" points="432.19,-33.51 421.6,-33.17 429.66,-40.04 432.19,-33.51"/>
<g id="a_edge2&#45;headlabel"><a xlink:href="dir_000046_000279.html" target="_top" xlink:title="3">
<text text-anchor="middle" x="436.56" y="-29.66" font-family="Helvetica,sans-Serif" font-size="10.00">3</text>
</a>
</g>
</g>
<!-- dir_cab9f8330899b1cc9d753b1d9c5c5a3e&#45;&gt;dir_84ef7c054b4edc3447cfba80cee80f65 -->
<g id="edge43" class="edge">
<title>dir_cab9f8330899b1cc9d753b1d9c5c5a3e&#45;&gt;dir_84ef7c054b4edc3447cfba80cee80f65</title>
<path fill="none" stroke="black" d="M311.93,-154.54C364.56,-141.97 480.84,-114.19 540.69,-99.89"/>
<polygon fill="black" stroke="black" points="541.57,-103.27 550.49,-97.55 539.95,-96.47 541.57,-103.27"/>
<g id="a_edge43&#45;headlabel"><a xlink:href="dir_000053_000046.html" target="_top" xlink:title="4">
<text text-anchor="middle" x="538.74" y="-104.37" font-family="Helvetica,sans-Serif" font-size="10.00">4</text>
</a>
</g>
</g>
<!-- dir_cf63c3ddb21c79ef735682489f4c6a69&#45;&gt;dir_84ef7c054b4edc3447cfba80cee80f65 -->
<g id="edge26" class="edge">
<title>dir_cf63c3ddb21c79ef735682489f4c6a69&#45;&gt;dir_84ef7c054b4edc3447cfba80cee80f65</title>
<path fill="none" stroke="black" d="M421.6,-29.28C455.03,-40.88 506.58,-59.88 541.32,-73.33"/>
<polygon fill="black" stroke="black" points="540.05,-76.59 550.64,-76.97 542.59,-70.07 540.05,-76.59"/>
<g id="a_edge26&#45;headlabel"><a xlink:href="dir_000279_000046.html" target="_top" xlink:title="54">
<text text-anchor="middle" x="535.67" y="-75.43" font-family="Helvetica,sans-Serif" font-size="10.00">54</text>
</a>
</g>
</g>
<!-- dir_ca4d1f3bc4cd42ba07a57ca86d19a1d6&#45;&gt;dir_84ef7c054b4edc3447cfba80cee80f65 -->
<g id="edge17" class="edge">
<title>dir_ca4d1f3bc4cd42ba07a57ca86d19a1d6&#45;&gt;dir_84ef7c054b4edc3447cfba80cee80f65</title>
<path fill="none" stroke="black" d="M182.44,-215.71C194.86,-195.01 218.6,-161.02 248.89,-144 298.34,-116.21 465.09,-99.9 540.41,-93.78"/>
<polygon fill="black" stroke="black" points="541.14,-97.24 550.83,-92.95 540.59,-90.26 541.14,-97.24"/>
<g id="a_edge17&#45;headlabel"><a xlink:href="dir_000156_000046.html" target="_top" xlink:title="19">
<text text-anchor="middle" x="537.78" y="-97.85" font-family="Helvetica,sans-Serif" font-size="10.00">19</text>
</a>
</g>
</g>
<!-- dir_ca4d1f3bc4cd42ba07a57ca86d19a1d6&#45;&gt;dir_cab9f8330899b1cc9d753b1d9c5c5a3e -->
<g id="edge18" class="edge">
<title>dir_ca4d1f3bc4cd42ba07a57ca86d19a1d6&#45;&gt;dir_cab9f8330899b1cc9d753b1d9c5c5a3e</title>
<path fill="none" stroke="black" d="M200.29,-215.88C215.04,-206.66 233.41,-195.17 249.26,-185.26"/>
<polygon fill="black" stroke="black" points="251.15,-188.22 257.77,-179.95 247.44,-182.28 251.15,-188.22"/>
<g id="a_edge18&#45;headlabel"><a xlink:href="dir_000156_000053.html" target="_top" xlink:title="4">
<text text-anchor="middle" x="249.6" y="-190.03" font-family="Helvetica,sans-Serif" font-size="10.00">4</text>
</a>
</g>
</g>
<!-- dir_ca4d1f3bc4cd42ba07a57ca86d19a1d6&#45;&gt;dir_cf63c3ddb21c79ef735682489f4c6a69 -->
<g id="edge19" class="edge">
<title>dir_ca4d1f3bc4cd42ba07a57ca86d19a1d6&#45;&gt;dir_cf63c3ddb21c79ef735682489f4c6a69</title>
<path fill="none" stroke="black" d="M175.78,-215.72C179.69,-196.57 188.18,-165.54 204.89,-144 242.95,-94.92 305.81,-58.17 347.29,-37.63"/>
<polygon fill="black" stroke="black" points="348.85,-40.77 356.32,-33.25 345.79,-34.47 348.85,-40.77"/>
<g id="a_edge19&#45;headlabel"><a xlink:href="dir_000156_000279.html" target="_top" xlink:title="4">
<text text-anchor="middle" x="346.85" y="-42.39" font-family="Helvetica,sans-Serif" font-size="10.00">4</text>
</a>
</g>
</g>
</g>
</svg>
