<?xml version="1.0" encoding="UTF-8" standalone="no"?>
<!DOCTYPE svg PUBLIC "-//W3C//DTD SVG 1.1//EN"
 "http://www.w3.org/Graphics/SVG/1.1/DTD/svg11.dtd">
<!-- Generated by graphviz version 2.43.0 (0)
 -->
<!-- Title: lib/Dialect/Linalg Pages: 1 -->
<svg width="446pt" height="159pt"
 viewBox="0.00 0.00 446.00 159.00" xmlns="http://www.w3.org/2000/svg" xmlns:xlink="http://www.w3.org/1999/xlink">
<g id="graph0" class="graph" transform="scale(1 1) rotate(0) translate(4 155)">
<title>lib/Dialect/Linalg</title>
<g id="clust1" class="cluster">
<title>clusterdir_1a25ec519b6c1121408b67cc33ce3f15</title>
<g id="a_clust1"><a xlink:href="dir_1a25ec519b6c1121408b67cc33ce3f15.html" target="_top" xlink:title="Dialect">
<polygon fill="#ddddee" stroke="black" points="8,-56 8,-143 430,-143 430,-56 8,-56"/>
<text text-anchor="middle" x="219" y="-131" font-family="Helvetica,sans-Serif" font-size="10.00">Dialect</text>
</a>
</g>
</g>
<g id="clust2" class="cluster">
<title>clusterdir_8edb792440615361a0811a7329611599</title>
<g id="a_clust2"><a xlink:href="dir_8edb792440615361a0811a7329611599.html" target="_top">
<polygon fill="#eeeeff" stroke="black" points="16,-64 16,-116 422,-116 422,-64 16,-64"/>
</a>
</g>
</g>
<!-- dir_8edb792440615361a0811a7329611599 -->
<g id="node1" class="node">
<title>dir_8edb792440615361a0811a7329611599</title>
<text text-anchor="middle" x="387" y="-87.5" font-family="Helvetica,sans-Serif" font-size="10.00">Linalg</text>
</g>
<!-- dir_3a23a4f6964fd1d6dffdd753e7d701b1 -->
<g id="node2" class="node">
<title>dir_3a23a4f6964fd1d6dffdd753e7d701b1</title>
<g id="a_node2"><a xlink:href="dir_3a23a4f6964fd1d6dffdd753e7d701b1.html" target="_top" xlink:title="IR">
<polygon fill="white" stroke="black" points="342,-108 288,-108 288,-72 342,-72 342,-108"/>
<text text-anchor="middle" x="315" y="-87.5" font-family="Helvetica,sans-Serif" font-size="10.00">IR</text>
</a>
</g>
</g>
<!-- dir_d44c64559bbebec7f509842c48db8b23 -->
<g id="node6" class="node">
<title>dir_d44c64559bbebec7f509842c48db8b23</title>
<g id="a_node6"><a xlink:href="dir_d44c64559bbebec7f509842c48db8b23.html" target="_top" xlink:title="include">
<polygon fill="none" stroke="red" points="207,-36 153,-36 153,0 207,0 207,-36"/>
<text text-anchor="middle" x="180" y="-15.5" font-family="Helvetica,sans-Serif" font-size="10.00">include</text>
</a>
</g>
</g>
<!-- dir_3a23a4f6964fd1d6dffdd753e7d701b1&#45;&gt;dir_d44c64559bbebec7f509842c48db8b23 -->
<g id="edge1" class="edge">
<title>dir_3a23a4f6964fd1d6dffdd753e7d701b1&#45;&gt;dir_d44c64559bbebec7f509842c48db8b23</title>
<path fill="none" stroke="black" d="M298.88,-71.77C293.02,-66.2 286.08,-60.34 279,-56 259.82,-44.24 236.3,-35.26 216.99,-29.09"/>
<polygon fill="black" stroke="black" points="217.92,-25.71 207.33,-26.12 215.86,-32.4 217.92,-25.71"/>
<g id="a_edge1&#45;headlabel"><a xlink:href="dir_000471_000001.html" target="_top" xlink:title="51">
<text text-anchor="middle" x="222.19" y="-21.56" font-family="Helvetica,sans-Serif" font-size="10.00">51</text>
</a>
</g>
</g>
<!-- dir_f9e3128f8fd04d612fb77df86abc94cb -->
<g id="node3" class="node">
<title>dir_f9e3128f8fd04d612fb77df86abc94cb</title>
<g id="a_node3"><a xlink:href="dir_f9e3128f8fd04d612fb77df86abc94cb.html" target="_top" xlink:title="TransformOps">
<polygon fill="white" stroke="black" points="270,-108 186,-108 186,-72 270,-72 270,-108"/>
<text text-anchor="middle" x="228" y="-87.5" font-family="Helvetica,sans-Serif" font-size="10.00">TransformOps</text>
</a>
</g>
</g>
<!-- dir_f9e3128f8fd04d612fb77df86abc94cb&#45;&gt;dir_d44c64559bbebec7f509842c48db8b23 -->
<g id="edge2" class="edge">
<title>dir_f9e3128f8fd04d612fb77df86abc94cb&#45;&gt;dir_d44c64559bbebec7f509842c48db8b23</title>
<path fill="none" stroke="black" d="M216.13,-71.7C210.5,-63.47 203.65,-53.48 197.43,-44.42"/>
<polygon fill="black" stroke="black" points="200.27,-42.37 191.73,-36.1 194.5,-46.33 200.27,-42.37"/>
<g id="a_edge2&#45;headlabel"><a xlink:href="dir_000535_000001.html" target="_top" xlink:title="54">
<text text-anchor="middle" x="204.65" y="-41.23" font-family="Helvetica,sans-Serif" font-size="10.00">54</text>
</a>
</g>
</g>
<!-- dir_7e2f808e77498894ca0efbd745da2201 -->
<g id="node4" class="node">
<title>dir_7e2f808e77498894ca0efbd745da2201</title>
<g id="a_node4"><a xlink:href="dir_7e2f808e77498894ca0efbd745da2201.html" target="_top" xlink:title="Transforms">
<polygon fill="white" stroke="black" points="167.5,-108 96.5,-108 96.5,-72 167.5,-72 167.5,-108"/>
<text text-anchor="middle" x="132" y="-87.5" font-family="Helvetica,sans-Serif" font-size="10.00">Transforms</text>
</a>
</g>
</g>
<!-- dir_7e2f808e77498894ca0efbd745da2201&#45;&gt;dir_d44c64559bbebec7f509842c48db8b23 -->
<g id="edge4" class="edge">
<title>dir_7e2f808e77498894ca0efbd745da2201&#45;&gt;dir_d44c64559bbebec7f509842c48db8b23</title>
<path fill="none" stroke="black" d="M143.87,-71.7C149.5,-63.47 156.35,-53.48 162.57,-44.42"/>
<polygon fill="black" stroke="black" points="165.5,-46.33 168.27,-36.1 159.73,-42.37 165.5,-46.33"/>
<g id="a_edge4&#45;headlabel"><a xlink:href="dir_000497_000001.html" target="_top" xlink:title="395">
<text text-anchor="middle" x="165.81" y="-48.4" font-family="Helvetica,sans-Serif" font-size="10.00">395</text>
</a>
</g>
</g>
<!-- dir_3153569183125c29d4955334214a40c4 -->
<g id="node5" class="node">
<title>dir_3153569183125c29d4955334214a40c4</title>
<g id="a_node5"><a xlink:href="dir_3153569183125c29d4955334214a40c4.html" target="_top" xlink:title="Utils">
<polygon fill="white" stroke="black" points="78,-108 24,-108 24,-72 78,-72 78,-108"/>
<text text-anchor="middle" x="51" y="-87.5" font-family="Helvetica,sans-Serif" font-size="10.00">Utils</text>
</a>
</g>
</g>
<!-- dir_3153569183125c29d4955334214a40c4&#45;&gt;dir_d44c64559bbebec7f509842c48db8b23 -->
<g id="edge3" class="edge">
<title>dir_3153569183125c29d4955334214a40c4&#45;&gt;dir_d44c64559bbebec7f509842c48db8b23</title>
<path fill="none" stroke="black" d="M67.69,-71.89C73.73,-66.33 80.83,-60.45 88,-56 105,-45.45 125.52,-36.86 142.86,-30.62"/>
<polygon fill="black" stroke="black" points="144.36,-33.8 152.66,-27.22 142.06,-27.19 144.36,-33.8"/>
<g id="a_edge3&#45;headlabel"><a xlink:href="dir_000341_000001.html" target="_top" xlink:title="19">
<text text-anchor="middle" x="141.89" y="-35.16" font-family="Helvetica,sans-Serif" font-size="10.00">19</text>
</a>
</g>
</g>
</g>
</svg>
