<?xml version="1.0" encoding="UTF-8" standalone="no"?>
<!DOCTYPE svg PUBLIC "-//W3C//DTD SVG 1.1//EN"
 "http://www.w3.org/Graphics/SVG/1.1/DTD/svg11.dtd">
<!-- Generated by graphviz version 2.43.0 (0)
 -->
<!-- Title: include/mlir/Dialect/Transform/SMTExtension Pages: 1 -->
<svg width="169pt" height="367pt"
 viewBox="0.00 0.00 168.61 367.00" xmlns="http://www.w3.org/2000/svg" xmlns:xlink="http://www.w3.org/1999/xlink">
<g id="graph0" class="graph" transform="scale(1 1) rotate(0) translate(4 363)">
<title>include/mlir/Dialect/Transform/SMTExtension</title>
<g id="clust1" class="cluster">
<title>clusterdir_832fe9af74a05d9f4772b8e442bafd02</title>
<g id="a_clust1"><a xlink:href="dir_832fe9af74a05d9f4772b8e442bafd02.html" target="_top" xlink:title="Transform">
<polygon fill="#ddddee" stroke="black" points="8,-136 8,-351 110,-351 110,-136 8,-136"/>
<text text-anchor="middle" x="59" y="-339" font-family="Helvetica,sans-Serif" font-size="10.00">Transform</text>
</a>
</g>
</g>
<!-- dir_3fcea5679c56f279a8c81b2ba929f91c -->
<g id="node1" class="node">
<title>dir_3fcea5679c56f279a8c81b2ba929f91c</title>
<g id="a_node1"><a xlink:href="dir_3fcea5679c56f279a8c81b2ba929f91c.html" target="_top" xlink:title="Interfaces">
<polygon fill="none" stroke="black" points="81.5,-180 16.5,-180 16.5,-144 81.5,-144 81.5,-180"/>
<text text-anchor="middle" x="49" y="-159.5" font-family="Helvetica,sans-Serif" font-size="10.00">Interfaces</text>
</a>
</g>
</g>
<!-- dir_84ef7c054b4edc3447cfba80cee80f65 -->
<g id="node5" class="node">
<title>dir_84ef7c054b4edc3447cfba80cee80f65</title>
<g id="a_node5"><a xlink:href="dir_84ef7c054b4edc3447cfba80cee80f65.html" target="_top" xlink:title="IR">
<polygon fill="none" stroke="black" points="137,-108 83,-108 83,-72 137,-72 137,-108"/>
<text text-anchor="middle" x="110" y="-87.5" font-family="Helvetica,sans-Serif" font-size="10.00">IR</text>
</a>
</g>
</g>
<!-- dir_3fcea5679c56f279a8c81b2ba929f91c&#45;&gt;dir_84ef7c054b4edc3447cfba80cee80f65 -->
<g id="edge10" class="edge">
<title>dir_3fcea5679c56f279a8c81b2ba929f91c&#45;&gt;dir_84ef7c054b4edc3447cfba80cee80f65</title>
<path fill="none" stroke="black" d="M64.08,-143.7C71.39,-135.3 80.31,-125.07 88.34,-115.86"/>
<polygon fill="black" stroke="black" points="91.16,-117.94 95.09,-108.1 85.89,-113.34 91.16,-117.94"/>
<g id="a_edge10&#45;headlabel"><a xlink:href="dir_000271_000047.html" target="_top" xlink:title="3">
<text text-anchor="middle" x="90.94" y="-120.02" font-family="Helvetica,sans-Serif" font-size="10.00">3</text>
</a>
</g>
</g>
<!-- dir_ea43e1e7e14805f092bc6e97f7b8cf52 -->
<g id="node2" class="node">
<title>dir_ea43e1e7e14805f092bc6e97f7b8cf52</title>
<g id="a_node2"><a xlink:href="dir_ea43e1e7e14805f092bc6e97f7b8cf52.html" target="_top" xlink:title="IR">
<polygon fill="none" stroke="black" points="96,-252 42,-252 42,-216 96,-216 96,-252"/>
<text text-anchor="middle" x="69" y="-231.5" font-family="Helvetica,sans-Serif" font-size="10.00">IR</text>
</a>
</g>
</g>
<!-- dir_ea43e1e7e14805f092bc6e97f7b8cf52&#45;&gt;dir_3fcea5679c56f279a8c81b2ba929f91c -->
<g id="edge7" class="edge">
<title>dir_ea43e1e7e14805f092bc6e97f7b8cf52&#45;&gt;dir_3fcea5679c56f279a8c81b2ba929f91c</title>
<path fill="none" stroke="black" d="M64.06,-215.7C61.83,-207.9 59.15,-198.51 56.67,-189.83"/>
<polygon fill="black" stroke="black" points="60,-188.76 53.89,-180.1 53.27,-190.68 60,-188.76"/>
<g id="a_edge7&#45;headlabel"><a xlink:href="dir_000034_000271.html" target="_top" xlink:title="3">
<text text-anchor="middle" x="63.72" y="-188.93" font-family="Helvetica,sans-Serif" font-size="10.00">3</text>
</a>
</g>
</g>
<!-- dir_51020c1b0909ae629a35fe1c65c620b9 -->
<g id="node4" class="node">
<title>dir_51020c1b0909ae629a35fe1c65c620b9</title>
<g id="a_node4"><a xlink:href="dir_51020c1b0909ae629a35fe1c65c620b9.html" target="_top" xlink:title="Bytecode">
<polygon fill="none" stroke="black" points="141,-36 79,-36 79,0 141,0 141,-36"/>
<text text-anchor="middle" x="110" y="-15.5" font-family="Helvetica,sans-Serif" font-size="10.00">Bytecode</text>
</a>
</g>
</g>
<!-- dir_ea43e1e7e14805f092bc6e97f7b8cf52&#45;&gt;dir_51020c1b0909ae629a35fe1c65c620b9 -->
<g id="edge8" class="edge">
<title>dir_ea43e1e7e14805f092bc6e97f7b8cf52&#45;&gt;dir_51020c1b0909ae629a35fe1c65c620b9</title>
<path fill="none" stroke="black" d="M41.76,-217.54C28.65,-208.46 14.23,-195.69 7,-180 -1.18,-162.24 0.09,-154.3 7,-136 21.4,-97.85 54.54,-64.07 79.36,-42.74"/>
<polygon fill="black" stroke="black" points="81.68,-45.36 87.1,-36.26 77.18,-40 81.68,-45.36"/>
<g id="a_edge8&#45;headlabel"><a xlink:href="dir_000034_000051.html" target="_top" xlink:title="1">
<text text-anchor="middle" x="80.75" y="-47.35" font-family="Helvetica,sans-Serif" font-size="10.00">1</text>
</a>
</g>
</g>
<!-- dir_ea43e1e7e14805f092bc6e97f7b8cf52&#45;&gt;dir_84ef7c054b4edc3447cfba80cee80f65 -->
<g id="edge9" class="edge">
<title>dir_ea43e1e7e14805f092bc6e97f7b8cf52&#45;&gt;dir_84ef7c054b4edc3447cfba80cee80f65</title>
<path fill="none" stroke="black" d="M77.16,-215.63C81.71,-205.43 87.21,-192.18 91,-180 97.33,-159.67 102.26,-136.07 105.51,-118.29"/>
<polygon fill="black" stroke="black" points="108.98,-118.76 107.27,-108.3 102.09,-117.54 108.98,-118.76"/>
<g id="a_edge9&#45;headlabel"><a xlink:href="dir_000034_000047.html" target="_top" xlink:title="9">
<text text-anchor="middle" x="111.16" y="-120.29" font-family="Helvetica,sans-Serif" font-size="10.00">9</text>
</a>
</g>
</g>
<!-- dir_774b5cb634d4ba90defe49f5a7009182 -->
<g id="node3" class="node">
<title>dir_774b5cb634d4ba90defe49f5a7009182</title>
<g id="a_node3"><a xlink:href="dir_774b5cb634d4ba90defe49f5a7009182.html" target="_top" xlink:title="SMTExtension">
<polygon fill="#eeeeff" stroke="black" points="102,-324 16,-324 16,-288 102,-288 102,-324"/>
<text text-anchor="middle" x="59" y="-303.5" font-family="Helvetica,sans-Serif" font-size="10.00">SMTExtension</text>
</a>
</g>
</g>
<!-- dir_774b5cb634d4ba90defe49f5a7009182&#45;&gt;dir_3fcea5679c56f279a8c81b2ba929f91c -->
<g id="edge2" class="edge">
<title>dir_774b5cb634d4ba90defe49f5a7009182&#45;&gt;dir_3fcea5679c56f279a8c81b2ba929f91c</title>
<path fill="none" stroke="black" d="M47.95,-287.61C42.26,-277.62 35.92,-264.58 33,-252 28.19,-231.29 32.95,-207.59 38.5,-189.85"/>
<polygon fill="black" stroke="black" points="41.88,-190.76 41.79,-180.17 35.26,-188.51 41.88,-190.76"/>
<g id="a_edge2&#45;headlabel"><a xlink:href="dir_000275_000271.html" target="_top" xlink:title="2">
<text text-anchor="middle" x="43.42" y="-192.58" font-family="Helvetica,sans-Serif" font-size="10.00">2</text>
</a>
</g>
</g>
<!-- dir_774b5cb634d4ba90defe49f5a7009182&#45;&gt;dir_ea43e1e7e14805f092bc6e97f7b8cf52 -->
<g id="edge5" class="edge">
<title>dir_774b5cb634d4ba90defe49f5a7009182&#45;&gt;dir_ea43e1e7e14805f092bc6e97f7b8cf52</title>
<path fill="none" stroke="black" d="M61.47,-287.7C62.57,-279.98 63.9,-270.71 65.13,-262.11"/>
<polygon fill="black" stroke="black" points="68.61,-262.5 66.56,-252.1 61.68,-261.51 68.61,-262.5"/>
<g id="a_edge5&#45;headlabel"><a xlink:href="dir_000275_000034.html" target="_top" xlink:title="2">
<text text-anchor="middle" x="70.91" y="-263.96" font-family="Helvetica,sans-Serif" font-size="10.00">2</text>
</a>
</g>
</g>
<!-- dir_774b5cb634d4ba90defe49f5a7009182&#45;&gt;dir_51020c1b0909ae629a35fe1c65c620b9 -->
<g id="edge3" class="edge">
<title>dir_774b5cb634d4ba90defe49f5a7009182&#45;&gt;dir_51020c1b0909ae629a35fe1c65c620b9</title>
<path fill="none" stroke="black" d="M88.54,-287.94C101.49,-278.92 115.62,-266.66 124,-252 163.99,-182.02 169.69,-149.04 146,-72 142.99,-62.22 137.49,-52.62 131.68,-44.33"/>
<polygon fill="black" stroke="black" points="134.41,-42.13 125.61,-36.23 128.81,-46.33 134.41,-42.13"/>
<g id="a_edge3&#45;headlabel"><a xlink:href="dir_000275_000051.html" target="_top" xlink:title="2">
<text text-anchor="middle" x="138.83" y="-40.8" font-family="Helvetica,sans-Serif" font-size="10.00">2</text>
</a>
</g>
</g>
<!-- dir_774b5cb634d4ba90defe49f5a7009182&#45;&gt;dir_84ef7c054b4edc3447cfba80cee80f65 -->
<g id="edge4" class="edge">
<title>dir_774b5cb634d4ba90defe49f5a7009182&#45;&gt;dir_84ef7c054b4edc3447cfba80cee80f65</title>
<path fill="none" stroke="black" d="M78.95,-287.93C88.61,-278.42 99.32,-265.74 105,-252 123.14,-208.12 119.42,-151.61 114.85,-118.54"/>
<polygon fill="black" stroke="black" points="118.26,-117.64 113.3,-108.27 111.33,-118.69 118.26,-117.64"/>
<g id="a_edge4&#45;headlabel"><a xlink:href="dir_000275_000047.html" target="_top" xlink:title="4">
<text text-anchor="middle" x="121.6" y="-118.27" font-family="Helvetica,sans-Serif" font-size="10.00">4</text>
</a>
</g>
</g>
<!-- dir_51020c1b0909ae629a35fe1c65c620b9&#45;&gt;dir_84ef7c054b4edc3447cfba80cee80f65 -->
<g id="edge6" class="edge">
<title>dir_51020c1b0909ae629a35fe1c65c620b9&#45;&gt;dir_84ef7c054b4edc3447cfba80cee80f65</title>
<path fill="none" stroke="black" d="M115.9,-36.1C116.7,-43.79 116.94,-53.05 116.6,-61.67"/>
<polygon fill="black" stroke="black" points="113.11,-61.48 115.92,-71.7 120.09,-61.96 113.11,-61.48"/>
<g id="a_edge6&#45;headlabel"><a xlink:href="dir_000051_000047.html" target="_top" xlink:title="9">
<text text-anchor="middle" x="110.52" y="-55.2" font-family="Helvetica,sans-Serif" font-size="10.00">9</text>
</a>
</g>
</g>
<!-- dir_84ef7c054b4edc3447cfba80cee80f65&#45;&gt;dir_51020c1b0909ae629a35fe1c65c620b9 -->
<g id="edge1" class="edge">
<title>dir_84ef7c054b4edc3447cfba80cee80f65&#45;&gt;dir_51020c1b0909ae629a35fe1c65c620b9</title>
<path fill="none" stroke="black" d="M104.08,-71.7C103.29,-63.98 103.06,-54.71 103.4,-46.11"/>
<polygon fill="black" stroke="black" points="106.9,-46.32 104.1,-36.1 99.92,-45.84 106.9,-46.32"/>
<g id="a_edge1&#45;headlabel"><a xlink:href="dir_000047_000051.html" target="_top" xlink:title="2">
<text text-anchor="middle" x="109.48" y="-47.61" font-family="Helvetica,sans-Serif" font-size="10.00">2</text>
</a>
</g>
</g>
</g>
</svg>
