<?xml version="1.0" encoding="UTF-8" standalone="no"?>
<!DOCTYPE svg PUBLIC "-//W3C//DTD SVG 1.1//EN"
 "http://www.w3.org/Graphics/SVG/1.1/DTD/svg11.dtd">
<!-- Generated by graphviz version 2.43.0 (0)
 -->
<!-- Title: lib/Conversion/AMDGPUToROCDL Pages: 1 -->
<svg width="146pt" height="223pt"
 viewBox="0.00 0.00 146.00 223.00" xmlns="http://www.w3.org/2000/svg" xmlns:xlink="http://www.w3.org/1999/xlink">
<g id="graph0" class="graph" transform="scale(1 1) rotate(0) translate(4 219)">
<title>lib/Conversion/AMDGPUToROCDL</title>
<g id="clust1" class="cluster">
<title>clusterdir_fb3681dc9150b247305e64d29dbc20b7</title>
<g id="a_clust1"><a xlink:href="dir_fb3681dc9150b247305e64d29dbc20b7.html" target="_top" xlink:title="Conversion">
<polygon fill="#ddddee" stroke="black" points="8,-64 8,-207 130,-207 130,-64 8,-64"/>
<text text-anchor="middle" x="69" y="-195" font-family="Helvetica,sans-Serif" font-size="10.00">Conversion</text>
</a>
</g>
</g>
<!-- dir_595ada6266273ce330d18902549abcb5 -->
<g id="node1" class="node">
<title>dir_595ada6266273ce330d18902549abcb5</title>
<g id="a_node1"><a xlink:href="dir_595ada6266273ce330d18902549abcb5.html" target="_top" xlink:title="LLVMCommon">
<polygon fill="none" stroke="black" points="107,-108 21,-108 21,-72 107,-72 107,-108"/>
<text text-anchor="middle" x="64" y="-87.5" font-family="Helvetica,sans-Serif" font-size="10.00">LLVMCommon</text>
</a>
</g>
</g>
<!-- dir_d44c64559bbebec7f509842c48db8b23 -->
<g id="node3" class="node">
<title>dir_d44c64559bbebec7f509842c48db8b23</title>
<g id="a_node3"><a xlink:href="dir_d44c64559bbebec7f509842c48db8b23.html" target="_top" xlink:title="include">
<polygon fill="none" stroke="red" points="126,-36 72,-36 72,0 126,0 126,-36"/>
<text text-anchor="middle" x="99" y="-15.5" font-family="Helvetica,sans-Serif" font-size="10.00">include</text>
</a>
</g>
</g>
<!-- dir_595ada6266273ce330d18902549abcb5&#45;&gt;dir_d44c64559bbebec7f509842c48db8b23 -->
<g id="edge3" class="edge">
<title>dir_595ada6266273ce330d18902549abcb5&#45;&gt;dir_d44c64559bbebec7f509842c48db8b23</title>
<path fill="none" stroke="black" d="M72.65,-71.7C76.64,-63.73 81.45,-54.1 85.87,-45.26"/>
<polygon fill="black" stroke="black" points="89.11,-46.61 90.45,-36.1 82.85,-43.48 89.11,-46.61"/>
<g id="a_edge3&#45;headlabel"><a xlink:href="dir_000425_000001.html" target="_top" xlink:title="32">
<text text-anchor="middle" x="90.04" y="-48.6" font-family="Helvetica,sans-Serif" font-size="10.00">32</text>
</a>
</g>
</g>
<!-- dir_d545f969a6d7d010efcb2e6cf62e33dd -->
<g id="node2" class="node">
<title>dir_d545f969a6d7d010efcb2e6cf62e33dd</title>
<g id="a_node2"><a xlink:href="dir_d545f969a6d7d010efcb2e6cf62e33dd.html" target="_top" xlink:title="AMDGPUToROCDL">
<polygon fill="#eeeeff" stroke="black" points="121.5,-180 16.5,-180 16.5,-144 121.5,-144 121.5,-180"/>
<text text-anchor="middle" x="69" y="-159.5" font-family="Helvetica,sans-Serif" font-size="10.00">AMDGPUToROCDL</text>
</a>
</g>
</g>
<!-- dir_d545f969a6d7d010efcb2e6cf62e33dd&#45;&gt;dir_595ada6266273ce330d18902549abcb5 -->
<g id="edge1" class="edge">
<title>dir_d545f969a6d7d010efcb2e6cf62e33dd&#45;&gt;dir_595ada6266273ce330d18902549abcb5</title>
<path fill="none" stroke="black" d="M67.76,-143.7C67.21,-135.98 66.55,-126.71 65.94,-118.11"/>
<polygon fill="black" stroke="black" points="69.43,-117.83 65.22,-108.1 62.44,-118.33 69.43,-117.83"/>
<g id="a_edge1&#45;headlabel"><a xlink:href="dir_000391_000425.html" target="_top" xlink:title="1">
<text text-anchor="middle" x="72.51" y="-118.71" font-family="Helvetica,sans-Serif" font-size="10.00">1</text>
</a>
</g>
</g>
<!-- dir_d545f969a6d7d010efcb2e6cf62e33dd&#45;&gt;dir_d44c64559bbebec7f509842c48db8b23 -->
<g id="edge2" class="edge">
<title>dir_d545f969a6d7d010efcb2e6cf62e33dd&#45;&gt;dir_d44c64559bbebec7f509842c48db8b23</title>
<path fill="none" stroke="black" d="M90.27,-143.7C100.11,-134.31 110.76,-121.8 116,-108 123.68,-87.77 118.2,-63.59 111.48,-45.54"/>
<polygon fill="black" stroke="black" points="114.7,-44.17 107.7,-36.21 108.21,-46.79 114.7,-44.17"/>
<g id="a_edge2&#45;headlabel"><a xlink:href="dir_000391_000001.html" target="_top" xlink:title="11">
<text text-anchor="middle" x="118.68" y="-43.93" font-family="Helvetica,sans-Serif" font-size="10.00">11</text>
</a>
</g>
</g>
</g>
</svg>
