<?xml version="1.0" encoding="UTF-8" standalone="no"?>
<!DOCTYPE svg PUBLIC "-//W3C//DTD SVG 1.1//EN"
 "http://www.w3.org/Graphics/SVG/1.1/DTD/svg11.dtd">
<!-- Generated by graphviz version 2.43.0 (0)
 -->
<!-- Title: include/mlir/Dialect/XeGPU/IR Pages: 1 -->
<svg width="261pt" height="439pt"
 viewBox="0.00 0.00 261.00 439.00" xmlns="http://www.w3.org/2000/svg" xmlns:xlink="http://www.w3.org/1999/xlink">
<g id="graph0" class="graph" transform="scale(1 1) rotate(0) translate(4 435)">
<title>include/mlir/Dialect/XeGPU/IR</title>
<g id="clust1" class="cluster">
<title>clusterdir_5af423df3a2327edcd5f90b3d7e3f636</title>
<g id="a_clust1"><a xlink:href="dir_5af423df3a2327edcd5f90b3d7e3f636.html" target="_top" xlink:title="XeGPU">
<polygon fill="#ddddee" stroke="black" points="81,-352 81,-423 151,-423 151,-352 81,-352"/>
<text text-anchor="middle" x="116" y="-411" font-family="Helvetica,sans-Serif" font-size="10.00">XeGPU</text>
</a>
</g>
</g>
<!-- dir_af87213b2c87ceb3ff163e266458ce84 -->
<g id="node1" class="node">
<title>dir_af87213b2c87ceb3ff163e266458ce84</title>
<g id="a_node1"><a xlink:href="dir_af87213b2c87ceb3ff163e266458ce84.html" target="_top" xlink:title="IR">
<polygon fill="#eeeeff" stroke="black" points="143,-396 89,-396 89,-360 143,-360 143,-396"/>
<text text-anchor="middle" x="116" y="-375.5" font-family="Helvetica,sans-Serif" font-size="10.00">IR</text>
</a>
</g>
</g>
<!-- dir_51020c1b0909ae629a35fe1c65c620b9 -->
<g id="node2" class="node">
<title>dir_51020c1b0909ae629a35fe1c65c620b9</title>
<g id="a_node2"><a xlink:href="dir_51020c1b0909ae629a35fe1c65c620b9.html" target="_top" xlink:title="Bytecode">
<polygon fill="none" stroke="black" points="204,-180 142,-180 142,-144 204,-144 204,-180"/>
<text text-anchor="middle" x="173" y="-159.5" font-family="Helvetica,sans-Serif" font-size="10.00">Bytecode</text>
</a>
</g>
</g>
<!-- dir_af87213b2c87ceb3ff163e266458ce84&#45;&gt;dir_51020c1b0909ae629a35fe1c65c620b9 -->
<g id="edge6" class="edge">
<title>dir_af87213b2c87ceb3ff163e266458ce84&#45;&gt;dir_51020c1b0909ae629a35fe1c65c620b9</title>
<path fill="none" stroke="black" d="M121.28,-359.68C128.54,-335.62 141.88,-290.67 152,-252 157.39,-231.4 162.9,-207.95 166.92,-190.29"/>
<polygon fill="black" stroke="black" points="170.43,-190.65 169.22,-180.12 163.6,-189.11 170.43,-190.65"/>
<g id="a_edge6&#45;headlabel"><a xlink:href="dir_000276_000050.html" target="_top" xlink:title="1">
<text text-anchor="middle" x="172.41" y="-192.28" font-family="Helvetica,sans-Serif" font-size="10.00">1</text>
</a>
</g>
</g>
<!-- dir_687ef06ec02158f82af83f8ed0273ebe -->
<g id="node3" class="node">
<title>dir_687ef06ec02158f82af83f8ed0273ebe</title>
<g id="a_node3"><a xlink:href="dir_687ef06ec02158f82af83f8ed0273ebe.html" target="_top" xlink:title="Arith">
<polygon fill="none" stroke="red" points="143,-252 89,-252 89,-216 143,-216 143,-252"/>
<text text-anchor="middle" x="116" y="-231.5" font-family="Helvetica,sans-Serif" font-size="10.00">Arith</text>
</a>
</g>
</g>
<!-- dir_af87213b2c87ceb3ff163e266458ce84&#45;&gt;dir_687ef06ec02158f82af83f8ed0273ebe -->
<g id="edge7" class="edge">
<title>dir_af87213b2c87ceb3ff163e266458ce84&#45;&gt;dir_687ef06ec02158f82af83f8ed0273ebe</title>
<path fill="none" stroke="black" d="M116,-359.87C116,-335.67 116,-291.21 116,-262.39"/>
<polygon fill="black" stroke="black" points="119.5,-262.19 116,-252.19 112.5,-262.19 119.5,-262.19"/>
<g id="a_edge7&#45;headlabel"><a xlink:href="dir_000276_000017.html" target="_top" xlink:title="1">
<text text-anchor="middle" x="122.34" y="-263.28" font-family="Helvetica,sans-Serif" font-size="10.00">1</text>
</a>
</g>
</g>
<!-- dir_84ef7c054b4edc3447cfba80cee80f65 -->
<g id="node4" class="node">
<title>dir_84ef7c054b4edc3447cfba80cee80f65</title>
<g id="a_node4"><a xlink:href="dir_84ef7c054b4edc3447cfba80cee80f65.html" target="_top" xlink:title="IR">
<polygon fill="none" stroke="black" points="170,-108 116,-108 116,-72 170,-72 170,-108"/>
<text text-anchor="middle" x="143" y="-87.5" font-family="Helvetica,sans-Serif" font-size="10.00">IR</text>
</a>
</g>
</g>
<!-- dir_af87213b2c87ceb3ff163e266458ce84&#45;&gt;dir_84ef7c054b4edc3447cfba80cee80f65 -->
<g id="edge8" class="edge">
<title>dir_af87213b2c87ceb3ff163e266458ce84&#45;&gt;dir_84ef7c054b4edc3447cfba80cee80f65</title>
<path fill="none" stroke="black" d="M106.86,-359.57C92.53,-330 67.61,-268.11 80,-216 88.72,-179.31 110.02,-141.17 125.44,-116.82"/>
<polygon fill="black" stroke="black" points="128.53,-118.49 131.02,-108.2 122.65,-114.69 128.53,-118.49"/>
<g id="a_edge8&#45;headlabel"><a xlink:href="dir_000276_000046.html" target="_top" xlink:title="3">
<text text-anchor="middle" x="128.96" y="-120.55" font-family="Helvetica,sans-Serif" font-size="10.00">3</text>
</a>
</g>
</g>
<!-- dir_bfd3493254b3df47293537524626123b -->
<g id="node5" class="node">
<title>dir_bfd3493254b3df47293537524626123b</title>
<g id="a_node5"><a xlink:href="dir_bfd3493254b3df47293537524626123b.html" target="_top" xlink:title="Vector">
<polygon fill="none" stroke="red" points="253,-324 199,-324 199,-288 253,-288 253,-324"/>
<text text-anchor="middle" x="226" y="-303.5" font-family="Helvetica,sans-Serif" font-size="10.00">Vector</text>
</a>
</g>
</g>
<!-- dir_af87213b2c87ceb3ff163e266458ce84&#45;&gt;dir_bfd3493254b3df47293537524626123b -->
<g id="edge9" class="edge">
<title>dir_af87213b2c87ceb3ff163e266458ce84&#45;&gt;dir_bfd3493254b3df47293537524626123b</title>
<path fill="none" stroke="black" d="M142.91,-359.88C157.16,-350.81 174.85,-339.55 190.24,-329.76"/>
<polygon fill="black" stroke="black" points="192.43,-332.51 198.99,-324.19 188.67,-326.61 192.43,-332.51"/>
<g id="a_edge9&#45;headlabel"><a xlink:href="dir_000276_000151.html" target="_top" xlink:title="1">
<text text-anchor="middle" x="190.92" y="-334.34" font-family="Helvetica,sans-Serif" font-size="10.00">1</text>
</a>
</g>
</g>
<!-- dir_cf63c3ddb21c79ef735682489f4c6a69 -->
<g id="node6" class="node">
<title>dir_cf63c3ddb21c79ef735682489f4c6a69</title>
<g id="a_node6"><a xlink:href="dir_cf63c3ddb21c79ef735682489f4c6a69.html" target="_top" xlink:title="Interfaces">
<polygon fill="none" stroke="red" points="175.5,-36 110.5,-36 110.5,0 175.5,0 175.5,-36"/>
<text text-anchor="middle" x="143" y="-15.5" font-family="Helvetica,sans-Serif" font-size="10.00">Interfaces</text>
</a>
</g>
</g>
<!-- dir_af87213b2c87ceb3ff163e266458ce84&#45;&gt;dir_cf63c3ddb21c79ef735682489f4c6a69 -->
<g id="edge10" class="edge">
<title>dir_af87213b2c87ceb3ff163e266458ce84&#45;&gt;dir_cf63c3ddb21c79ef735682489f4c6a69</title>
<path fill="none" stroke="black" d="M88.8,-360.28C54.52,-336.87 0,-290.87 0,-235 0,-235 0,-235 0,-161 0,-103.47 59,-61.26 101.2,-38.42"/>
<polygon fill="black" stroke="black" points="102.96,-41.45 110.19,-33.71 99.71,-35.25 102.96,-41.45"/>
<g id="a_edge10&#45;headlabel"><a xlink:href="dir_000276_000279.html" target="_top" xlink:title="3">
<text text-anchor="middle" x="101.1" y="-43.14" font-family="Helvetica,sans-Serif" font-size="10.00">3</text>
</a>
</g>
</g>
<!-- dir_51020c1b0909ae629a35fe1c65c620b9&#45;&gt;dir_84ef7c054b4edc3447cfba80cee80f65 -->
<g id="edge15" class="edge">
<title>dir_51020c1b0909ae629a35fe1c65c620b9&#45;&gt;dir_84ef7c054b4edc3447cfba80cee80f65</title>
<path fill="none" stroke="black" d="M159.67,-143.7C155.48,-135.81 151.18,-126.3 147.81,-117.55"/>
<polygon fill="black" stroke="black" points="151.09,-116.35 144.44,-108.1 144.5,-118.7 151.09,-116.35"/>
<g id="a_edge15&#45;headlabel"><a xlink:href="dir_000050_000046.html" target="_top" xlink:title="9">
<text text-anchor="middle" x="154.98" y="-116.28" font-family="Helvetica,sans-Serif" font-size="10.00">9</text>
</a>
</g>
</g>
<!-- dir_687ef06ec02158f82af83f8ed0273ebe&#45;&gt;dir_51020c1b0909ae629a35fe1c65c620b9 -->
<g id="edge3" class="edge">
<title>dir_687ef06ec02158f82af83f8ed0273ebe&#45;&gt;dir_51020c1b0909ae629a35fe1c65c620b9</title>
<path fill="none" stroke="black" d="M130.09,-215.7C136.92,-207.3 145.26,-197.07 152.76,-187.86"/>
<polygon fill="black" stroke="black" points="155.47,-190.07 159.07,-180.1 150.04,-185.65 155.47,-190.07"/>
<g id="a_edge3&#45;headlabel"><a xlink:href="dir_000017_000050.html" target="_top" xlink:title="1">
<text text-anchor="middle" x="155.4" y="-192.15" font-family="Helvetica,sans-Serif" font-size="10.00">1</text>
</a>
</g>
</g>
<!-- dir_687ef06ec02158f82af83f8ed0273ebe&#45;&gt;dir_84ef7c054b4edc3447cfba80cee80f65 -->
<g id="edge4" class="edge">
<title>dir_687ef06ec02158f82af83f8ed0273ebe&#45;&gt;dir_84ef7c054b4edc3447cfba80cee80f65</title>
<path fill="none" stroke="black" d="M119.26,-215.87C123.86,-191.67 132.31,-147.21 137.79,-118.39"/>
<polygon fill="black" stroke="black" points="141.3,-118.67 139.73,-108.19 134.43,-117.36 141.3,-118.67"/>
<g id="a_edge4&#45;headlabel"><a xlink:href="dir_000017_000046.html" target="_top" xlink:title="6">
<text text-anchor="middle" x="143.42" y="-120.23" font-family="Helvetica,sans-Serif" font-size="10.00">6</text>
</a>
</g>
</g>
<!-- dir_687ef06ec02158f82af83f8ed0273ebe&#45;&gt;dir_cf63c3ddb21c79ef735682489f4c6a69 -->
<g id="edge5" class="edge">
<title>dir_687ef06ec02158f82af83f8ed0273ebe&#45;&gt;dir_cf63c3ddb21c79ef735682489f4c6a69</title>
<path fill="none" stroke="black" d="M111.16,-215.6C103.64,-185.55 91.53,-122.31 107,-72 110.01,-62.22 115.51,-52.62 121.32,-44.33"/>
<polygon fill="black" stroke="black" points="124.19,-46.33 127.39,-36.23 118.59,-42.13 124.19,-46.33"/>
<g id="a_edge5&#45;headlabel"><a xlink:href="dir_000017_000279.html" target="_top" xlink:title="7">
<text text-anchor="middle" x="124.31" y="-48.41" font-family="Helvetica,sans-Serif" font-size="10.00">7</text>
</a>
</g>
</g>
<!-- dir_84ef7c054b4edc3447cfba80cee80f65&#45;&gt;dir_51020c1b0909ae629a35fe1c65c620b9 -->
<g id="edge1" class="edge">
<title>dir_84ef7c054b4edc3447cfba80cee80f65&#45;&gt;dir_51020c1b0909ae629a35fe1c65c620b9</title>
<path fill="none" stroke="black" d="M156.23,-108.1C160.42,-115.96 164.72,-125.46 168.11,-134.23"/>
<polygon fill="black" stroke="black" points="164.83,-135.46 171.5,-143.7 171.42,-133.1 164.83,-135.46"/>
<g id="a_edge1&#45;headlabel"><a xlink:href="dir_000046_000050.html" target="_top" xlink:title="2">
<text text-anchor="middle" x="160.95" y="-130.54" font-family="Helvetica,sans-Serif" font-size="10.00">2</text>
</a>
</g>
</g>
<!-- dir_84ef7c054b4edc3447cfba80cee80f65&#45;&gt;dir_cf63c3ddb21c79ef735682489f4c6a69 -->
<g id="edge2" class="edge">
<title>dir_84ef7c054b4edc3447cfba80cee80f65&#45;&gt;dir_cf63c3ddb21c79ef735682489f4c6a69</title>
<path fill="none" stroke="black" d="M137.08,-71.7C136.29,-63.98 136.06,-54.71 136.4,-46.11"/>
<polygon fill="black" stroke="black" points="139.9,-46.32 137.1,-36.1 132.92,-45.84 139.9,-46.32"/>
<g id="a_edge2&#45;headlabel"><a xlink:href="dir_000046_000279.html" target="_top" xlink:title="3">
<text text-anchor="middle" x="142.48" y="-47.61" font-family="Helvetica,sans-Serif" font-size="10.00">3</text>
</a>
</g>
</g>
<!-- dir_bfd3493254b3df47293537524626123b&#45;&gt;dir_51020c1b0909ae629a35fe1c65c620b9 -->
<g id="edge11" class="edge">
<title>dir_bfd3493254b3df47293537524626123b&#45;&gt;dir_51020c1b0909ae629a35fe1c65c620b9</title>
<path fill="none" stroke="black" d="M219.61,-287.87C210.49,-263.46 193.69,-218.43 182.94,-189.64"/>
<polygon fill="black" stroke="black" points="186.19,-188.33 179.42,-180.19 179.63,-190.78 186.19,-188.33"/>
<g id="a_edge11&#45;headlabel"><a xlink:href="dir_000151_000050.html" target="_top" xlink:title="1">
<text text-anchor="middle" x="190.11" y="-188.21" font-family="Helvetica,sans-Serif" font-size="10.00">1</text>
</a>
</g>
</g>
<!-- dir_bfd3493254b3df47293537524626123b&#45;&gt;dir_687ef06ec02158f82af83f8ed0273ebe -->
<g id="edge12" class="edge">
<title>dir_bfd3493254b3df47293537524626123b&#45;&gt;dir_687ef06ec02158f82af83f8ed0273ebe</title>
<path fill="none" stroke="black" d="M199.09,-287.88C184.84,-278.81 167.15,-267.55 151.76,-257.76"/>
<polygon fill="black" stroke="black" points="153.33,-254.61 143.01,-252.19 149.57,-260.51 153.33,-254.61"/>
<g id="a_edge12&#45;headlabel"><a xlink:href="dir_000151_000017.html" target="_top" xlink:title="2">
<text text-anchor="middle" x="157.89" y="-251.64" font-family="Helvetica,sans-Serif" font-size="10.00">2</text>
</a>
</g>
</g>
<!-- dir_bfd3493254b3df47293537524626123b&#45;&gt;dir_84ef7c054b4edc3447cfba80cee80f65 -->
<g id="edge13" class="edge">
<title>dir_bfd3493254b3df47293537524626123b&#45;&gt;dir_84ef7c054b4edc3447cfba80cee80f65</title>
<path fill="none" stroke="black" d="M228.96,-287.73C233.37,-256.77 238.62,-190.72 213,-144 205.26,-129.88 191.99,-118.39 179.07,-109.77"/>
<polygon fill="black" stroke="black" points="180.59,-106.59 170.25,-104.25 176.88,-112.52 180.59,-106.59"/>
<g id="a_edge13&#45;headlabel"><a xlink:href="dir_000151_000046.html" target="_top" xlink:title="13">
<text text-anchor="middle" x="185.14" y="-103.59" font-family="Helvetica,sans-Serif" font-size="10.00">13</text>
</a>
</g>
</g>
<!-- dir_bfd3493254b3df47293537524626123b&#45;&gt;dir_cf63c3ddb21c79ef735682489f4c6a69 -->
<g id="edge14" class="edge">
<title>dir_bfd3493254b3df47293537524626123b&#45;&gt;dir_cf63c3ddb21c79ef735682489f4c6a69</title>
<path fill="none" stroke="black" d="M234.31,-287.79C238.74,-277.63 243.74,-264.38 246,-252 254.68,-204.44 251.89,-188.51 233,-144 216.67,-105.52 186.72,-67.42 165.88,-43.59"/>
<polygon fill="black" stroke="black" points="168.45,-41.22 159.19,-36.08 163.22,-45.87 168.45,-41.22"/>
<g id="a_edge14&#45;headlabel"><a xlink:href="dir_000151_000279.html" target="_top" xlink:title="9">
<text text-anchor="middle" x="172.96" y="-39.52" font-family="Helvetica,sans-Serif" font-size="10.00">9</text>
</a>
</g>
</g>
<!-- dir_cf63c3ddb21c79ef735682489f4c6a69&#45;&gt;dir_84ef7c054b4edc3447cfba80cee80f65 -->
<g id="edge16" class="edge">
<title>dir_cf63c3ddb21c79ef735682489f4c6a69&#45;&gt;dir_84ef7c054b4edc3447cfba80cee80f65</title>
<path fill="none" stroke="black" d="M148.9,-36.1C149.7,-43.79 149.94,-53.05 149.6,-61.67"/>
<polygon fill="black" stroke="black" points="146.11,-61.48 148.92,-71.7 153.09,-61.96 146.11,-61.48"/>
<g id="a_edge16&#45;headlabel"><a xlink:href="dir_000279_000046.html" target="_top" xlink:title="54">
<text text-anchor="middle" x="143.52" y="-55.2" font-family="Helvetica,sans-Serif" font-size="10.00">54</text>
</a>
</g>
</g>
</g>
</svg>
