<?xml version="1.0" encoding="UTF-8" standalone="no"?>
<!DOCTYPE svg PUBLIC "-//W3C//DTD SVG 1.1//EN"
 "http://www.w3.org/Graphics/SVG/1.1/DTD/svg11.dtd">
<!-- Generated by graphviz version 2.43.0 (0)
 -->
<!-- Title: include/mlir/Query Pages: 1 -->
<svg width="112pt" height="247pt"
 viewBox="0.00 0.00 112.00 247.00" xmlns="http://www.w3.org/2000/svg" xmlns:xlink="http://www.w3.org/1999/xlink">
<g id="graph0" class="graph" transform="scale(1 1) rotate(0) translate(4 243)">
<title>include/mlir/Query</title>
<g id="clust1" class="cluster">
<title>clusterdir_5654f77406fb9ceec87e68ef828ceea2</title>
<g id="a_clust1"><a xlink:href="dir_5654f77406fb9ceec87e68ef828ceea2.html" target="_top" xlink:title="mlir">
<polygon fill="#ddddee" stroke="black" points="8,-8 8,-231 96,-231 96,-8 8,-8"/>
<text text-anchor="middle" x="52" y="-219" font-family="Helvetica,sans-Serif" font-size="10.00">mlir</text>
</a>
</g>
</g>
<g id="clust2" class="cluster">
<title>clusterdir_5d1f8339fdb663d87fec5cb8fbe66e7e</title>
<g id="a_clust2"><a xlink:href="dir_5d1f8339fdb663d87fec5cb8fbe66e7e.html" target="_top">
<polygon fill="#eeeeff" stroke="black" points="16,-80 16,-204 88,-204 88,-80 16,-80"/>
</a>
</g>
</g>
<!-- dir_84ef7c054b4edc3447cfba80cee80f65 -->
<g id="node1" class="node">
<title>dir_84ef7c054b4edc3447cfba80cee80f65</title>
<g id="a_node1"><a xlink:href="dir_84ef7c054b4edc3447cfba80cee80f65.html" target="_top" xlink:title="IR">
<polygon fill="none" stroke="black" points="79,-52 25,-52 25,-16 79,-16 79,-52"/>
<text text-anchor="middle" x="52" y="-31.5" font-family="Helvetica,sans-Serif" font-size="10.00">IR</text>
</a>
</g>
</g>
<!-- dir_5d1f8339fdb663d87fec5cb8fbe66e7e -->
<g id="node2" class="node">
<title>dir_5d1f8339fdb663d87fec5cb8fbe66e7e</title>
<text text-anchor="middle" x="52" y="-175.5" font-family="Helvetica,sans-Serif" font-size="10.00">Query</text>
</g>
<!-- dir_cf043a89de89c5008bcd9823b129c4b7 -->
<g id="node3" class="node">
<title>dir_cf043a89de89c5008bcd9823b129c4b7</title>
<g id="a_node3"><a xlink:href="dir_cf043a89de89c5008bcd9823b129c4b7.html" target="_top" xlink:title="Matcher">
<polygon fill="white" stroke="black" points="80,-124 24,-124 24,-88 80,-88 80,-124"/>
<text text-anchor="middle" x="52" y="-103.5" font-family="Helvetica,sans-Serif" font-size="10.00">Matcher</text>
</a>
</g>
</g>
<!-- dir_5d1f8339fdb663d87fec5cb8fbe66e7e&#45;&gt;dir_cf043a89de89c5008bcd9823b129c4b7 -->
<g id="edge2" class="edge">
<title>dir_5d1f8339fdb663d87fec5cb8fbe66e7e&#45;&gt;dir_cf043a89de89c5008bcd9823b129c4b7</title>
<path fill="none" stroke="black" d="M52,-159.7C52,-151.98 52,-142.71 52,-134.11"/>
<polygon fill="black" stroke="black" points="55.5,-134.1 52,-124.1 48.5,-134.1 55.5,-134.1"/>
<g id="a_edge2&#45;headlabel"><a xlink:href="dir_000281_000282.html" target="_top" xlink:title="2">
<text text-anchor="middle" x="58.34" y="-135.2" font-family="Helvetica,sans-Serif" font-size="10.00">2</text>
</a>
</g>
</g>
<!-- dir_cf043a89de89c5008bcd9823b129c4b7&#45;&gt;dir_84ef7c054b4edc3447cfba80cee80f65 -->
<g id="edge1" class="edge">
<title>dir_cf043a89de89c5008bcd9823b129c4b7&#45;&gt;dir_84ef7c054b4edc3447cfba80cee80f65</title>
<path fill="none" stroke="black" d="M52,-87.7C52,-79.98 52,-70.71 52,-62.11"/>
<polygon fill="black" stroke="black" points="55.5,-62.1 52,-52.1 48.5,-62.1 55.5,-62.1"/>
<g id="a_edge1&#45;headlabel"><a xlink:href="dir_000282_000044.html" target="_top" xlink:title="1">
<text text-anchor="middle" x="58.34" y="-63.2" font-family="Helvetica,sans-Serif" font-size="10.00">1</text>
</a>
</g>
</g>
</g>
</svg>
