<?xml version="1.0" encoding="UTF-8" standalone="no"?>
<!DOCTYPE svg PUBLIC "-//W3C//DTD SVG 1.1//EN"
 "http://www.w3.org/Graphics/SVG/1.1/DTD/svg11.dtd">
<!-- Generated by graphviz version 2.43.0 (0)
 -->
<!-- Title: include/mlir/Tools/mlir&#45;query Pages: 1 -->
<svg width="134pt" height="151pt"
 viewBox="0.00 0.00 134.00 151.00" xmlns="http://www.w3.org/2000/svg" xmlns:xlink="http://www.w3.org/1999/xlink">
<g id="graph0" class="graph" transform="scale(1 1) rotate(0) translate(4 147)">
<title>include/mlir/Tools/mlir&#45;query</title>
<g id="clust1" class="cluster">
<title>clusterdir_44b288db5d8d45ab6c634c8177d2adb4</title>
<g id="a_clust1"><a xlink:href="dir_44b288db5d8d45ab6c634c8177d2adb4.html" target="_top" xlink:title="Tools">
<polygon fill="#ddddee" stroke="black" points="21,-64 21,-135 105,-135 105,-64 21,-64"/>
<text text-anchor="middle" x="63" y="-123" font-family="Helvetica,sans-Serif" font-size="10.00">Tools</text>
</a>
</g>
</g>
<!-- dir_cc08d7054607d5c08be811579252d282 -->
<g id="node1" class="node">
<title>dir_cc08d7054607d5c08be811579252d282</title>
<g id="a_node1"><a xlink:href="dir_cc08d7054607d5c08be811579252d282.html" target="_top" xlink:title="mlir&#45;query">
<polygon fill="#eeeeff" stroke="black" points="97,-108 29,-108 29,-72 97,-72 97,-108"/>
<text text-anchor="middle" x="63" y="-87.5" font-family="Helvetica,sans-Serif" font-size="10.00">mlir&#45;query</text>
</a>
</g>
</g>
<!-- dir_5d1f8339fdb663d87fec5cb8fbe66e7e -->
<g id="node2" class="node">
<title>dir_5d1f8339fdb663d87fec5cb8fbe66e7e</title>
<g id="a_node2"><a xlink:href="dir_5d1f8339fdb663d87fec5cb8fbe66e7e.html" target="_top" xlink:title="Query">
<polygon fill="none" stroke="red" points="54,-36 0,-36 0,0 54,0 54,-36"/>
<text text-anchor="middle" x="27" y="-15.5" font-family="Helvetica,sans-Serif" font-size="10.00">Query</text>
</a>
</g>
</g>
<!-- dir_cc08d7054607d5c08be811579252d282&#45;&gt;dir_5d1f8339fdb663d87fec5cb8fbe66e7e -->
<g id="edge1" class="edge">
<title>dir_cc08d7054607d5c08be811579252d282&#45;&gt;dir_5d1f8339fdb663d87fec5cb8fbe66e7e</title>
<path fill="none" stroke="black" d="M54.1,-71.7C50,-63.73 45.05,-54.1 40.51,-45.26"/>
<polygon fill="black" stroke="black" points="43.48,-43.4 35.8,-36.1 37.26,-46.6 43.48,-43.4"/>
<g id="a_edge1&#45;headlabel"><a xlink:href="dir_000316_000285.html" target="_top" xlink:title="1">
<text text-anchor="middle" x="47.65" y="-42.79" font-family="Helvetica,sans-Serif" font-size="10.00">1</text>
</a>
</g>
</g>
<!-- dir_f61d47671007dfdb592580b61f960d39 -->
<g id="node3" class="node">
<title>dir_f61d47671007dfdb592580b61f960d39</title>
<g id="a_node3"><a xlink:href="dir_f61d47671007dfdb592580b61f960d39.html" target="_top" xlink:title="Support">
<polygon fill="none" stroke="black" points="126,-36 72,-36 72,0 126,0 126,-36"/>
<text text-anchor="middle" x="99" y="-15.5" font-family="Helvetica,sans-Serif" font-size="10.00">Support</text>
</a>
</g>
</g>
<!-- dir_cc08d7054607d5c08be811579252d282&#45;&gt;dir_f61d47671007dfdb592580b61f960d39 -->
<g id="edge2" class="edge">
<title>dir_cc08d7054607d5c08be811579252d282&#45;&gt;dir_f61d47671007dfdb592580b61f960d39</title>
<path fill="none" stroke="black" d="M71.9,-71.7C76,-63.73 80.95,-54.1 85.49,-45.26"/>
<polygon fill="black" stroke="black" points="88.74,-46.6 90.2,-36.1 82.52,-43.4 88.74,-46.6"/>
<g id="a_edge2&#45;headlabel"><a xlink:href="dir_000316_000288.html" target="_top" xlink:title="1">
<text text-anchor="middle" x="89.62" y="-48.59" font-family="Helvetica,sans-Serif" font-size="10.00">1</text>
</a>
</g>
</g>
</g>
</svg>
