<?xml version="1.0" encoding="UTF-8" standalone="no"?>
<!DOCTYPE svg PUBLIC "-//W3C//DTD SVG 1.1//EN"
 "http://www.w3.org/Graphics/SVG/1.1/DTD/svg11.dtd">
<!-- Generated by graphviz version 2.43.0 (0)
 -->
<!-- Title: include/mlir/Target/LLVMIR Pages: 1 -->
<svg width="303pt" height="447pt"
 viewBox="0.00 0.00 303.00 447.00" xmlns="http://www.w3.org/2000/svg" xmlns:xlink="http://www.w3.org/1999/xlink">
<g id="graph0" class="graph" transform="scale(1 1) rotate(0) translate(4 443)">
<title>include/mlir/Target/LLVMIR</title>
<g id="clust1" class="cluster">
<title>clusterdir_e350390f37204b20a5be47a406c54ddd</title>
<g id="a_clust1"><a xlink:href="dir_e350390f37204b20a5be47a406c54ddd.html" target="_top" xlink:title="Target">
<polygon fill="#ddddee" stroke="black" points="8,-344 8,-431 256,-431 256,-344 8,-344"/>
<text text-anchor="middle" x="132" y="-419" font-family="Helvetica,sans-Serif" font-size="10.00">Target</text>
</a>
</g>
</g>
<g id="clust2" class="cluster">
<title>clusterdir_b808e701192d909e8d445339c9bbdeb2</title>
<g id="a_clust2"><a xlink:href="dir_b808e701192d909e8d445339c9bbdeb2.html" target="_top">
<polygon fill="#eeeeff" stroke="black" points="16,-352 16,-404 248,-404 248,-352 16,-352"/>
</a>
</g>
</g>
<!-- dir_b808e701192d909e8d445339c9bbdeb2 -->
<g id="node1" class="node">
<title>dir_b808e701192d909e8d445339c9bbdeb2</title>
<text text-anchor="middle" x="123" y="-375.5" font-family="Helvetica,sans-Serif" font-size="10.00">LLVMIR</text>
</g>
<!-- dir_cf63c3ddb21c79ef735682489f4c6a69 -->
<g id="node5" class="node">
<title>dir_cf63c3ddb21c79ef735682489f4c6a69</title>
<g id="a_node5"><a xlink:href="dir_cf63c3ddb21c79ef735682489f4c6a69.html" target="_top" xlink:title="Interfaces">
<polygon fill="none" stroke="red" points="151.5,-324 86.5,-324 86.5,-288 151.5,-288 151.5,-324"/>
<text text-anchor="middle" x="119" y="-303.5" font-family="Helvetica,sans-Serif" font-size="10.00">Interfaces</text>
</a>
</g>
</g>
<!-- dir_b808e701192d909e8d445339c9bbdeb2&#45;&gt;dir_cf63c3ddb21c79ef735682489f4c6a69 -->
<g id="edge3" class="edge">
<title>dir_b808e701192d909e8d445339c9bbdeb2&#45;&gt;dir_cf63c3ddb21c79ef735682489f4c6a69</title>
<path fill="none" stroke="black" d="M122.01,-359.7C121.57,-351.98 121.04,-342.71 120.55,-334.11"/>
<polygon fill="black" stroke="black" points="124.04,-333.89 119.98,-324.1 117.05,-334.29 124.04,-333.89"/>
<g id="a_edge3&#45;headlabel"><a xlink:href="dir_000157_000288.html" target="_top" xlink:title="1">
<text text-anchor="middle" x="127.08" y="-334.82" font-family="Helvetica,sans-Serif" font-size="10.00">1</text>
</a>
</g>
</g>
<!-- dir_d07a6fac82475a065a3b2953573f00a0 -->
<g id="node6" class="node">
<title>dir_d07a6fac82475a065a3b2953573f00a0</title>
<g id="a_node6"><a xlink:href="dir_d07a6fac82475a065a3b2953573f00a0.html" target="_top" xlink:title="Dialect">
<polygon fill="none" stroke="red" points="240,-252 186,-252 186,-216 240,-216 240,-252"/>
<text text-anchor="middle" x="213" y="-231.5" font-family="Helvetica,sans-Serif" font-size="10.00">Dialect</text>
</a>
</g>
</g>
<!-- dir_b808e701192d909e8d445339c9bbdeb2&#45;&gt;dir_d07a6fac82475a065a3b2953573f00a0 -->
<g id="edge4" class="edge">
<title>dir_b808e701192d909e8d445339c9bbdeb2&#45;&gt;dir_d07a6fac82475a065a3b2953573f00a0</title>
<path fill="none" stroke="black" d="M136.09,-359.62C143.61,-349.41 153.11,-336.16 161,-324 174.52,-303.16 188.66,-278.75 198.78,-260.78"/>
<polygon fill="black" stroke="black" points="201.86,-262.45 203.68,-252.01 195.75,-259.03 201.86,-262.45"/>
<g id="a_edge4&#45;headlabel"><a xlink:href="dir_000157_000014.html" target="_top" xlink:title="7">
<text text-anchor="middle" x="202.58" y="-264.47" font-family="Helvetica,sans-Serif" font-size="10.00">7</text>
</a>
</g>
</g>
<!-- dir_b764a3e59a1de385d1ad0058af8eb900 -->
<g id="node2" class="node">
<title>dir_b764a3e59a1de385d1ad0058af8eb900</title>
<g id="a_node2"><a xlink:href="dir_b764a3e59a1de385d1ad0058af8eb900.html" target="_top" xlink:title="Dialect">
<polygon fill="white" stroke="red" points="78,-396 24,-396 24,-360 78,-360 78,-396"/>
<text text-anchor="middle" x="51" y="-375.5" font-family="Helvetica,sans-Serif" font-size="10.00">Dialect</text>
</a>
</g>
</g>
<!-- dir_84ef7c054b4edc3447cfba80cee80f65 -->
<g id="node4" class="node">
<title>dir_84ef7c054b4edc3447cfba80cee80f65</title>
<g id="a_node4"><a xlink:href="dir_84ef7c054b4edc3447cfba80cee80f65.html" target="_top" xlink:title="IR">
<polygon fill="none" stroke="black" points="132,-108 78,-108 78,-72 132,-72 132,-108"/>
<text text-anchor="middle" x="105" y="-87.5" font-family="Helvetica,sans-Serif" font-size="10.00">IR</text>
</a>
</g>
</g>
<!-- dir_b764a3e59a1de385d1ad0058af8eb900&#45;&gt;dir_84ef7c054b4edc3447cfba80cee80f65 -->
<g id="edge16" class="edge">
<title>dir_b764a3e59a1de385d1ad0058af8eb900&#45;&gt;dir_84ef7c054b4edc3447cfba80cee80f65</title>
<path fill="none" stroke="black" d="M54.22,-359.97C63.24,-312.19 88.83,-176.62 99.85,-118.27"/>
<polygon fill="black" stroke="black" points="103.32,-118.78 101.73,-108.31 96.44,-117.48 103.32,-118.78"/>
<g id="a_edge16&#45;headlabel"><a xlink:href="dir_000303_000047.html" target="_top" xlink:title="2">
<text text-anchor="middle" x="105.44" y="-120.34" font-family="Helvetica,sans-Serif" font-size="10.00">2</text>
</a>
</g>
</g>
<!-- dir_f61d47671007dfdb592580b61f960d39 -->
<g id="node7" class="node">
<title>dir_f61d47671007dfdb592580b61f960d39</title>
<g id="a_node7"><a xlink:href="dir_f61d47671007dfdb592580b61f960d39.html" target="_top" xlink:title="Support">
<polygon fill="none" stroke="black" points="202,-36 148,-36 148,0 202,0 202,-36"/>
<text text-anchor="middle" x="175" y="-15.5" font-family="Helvetica,sans-Serif" font-size="10.00">Support</text>
</a>
</g>
</g>
<!-- dir_b764a3e59a1de385d1ad0058af8eb900&#45;&gt;dir_f61d47671007dfdb592580b61f960d39 -->
<g id="edge17" class="edge">
<title>dir_b764a3e59a1de385d1ad0058af8eb900&#45;&gt;dir_f61d47671007dfdb592580b61f960d39</title>
<path fill="none" stroke="black" d="M41.47,-359.66C28,-333.47 5,-281.9 5,-235 5,-235 5,-235 5,-161 5,-92.14 88.17,-50.14 138.16,-31.11"/>
<polygon fill="black" stroke="black" points="139.51,-34.34 147.69,-27.61 137.09,-27.77 139.51,-34.34"/>
<g id="a_edge17&#45;headlabel"><a xlink:href="dir_000303_000298.html" target="_top" xlink:title="1">
<text text-anchor="middle" x="137.11" y="-35.75" font-family="Helvetica,sans-Serif" font-size="10.00">1</text>
</a>
</g>
</g>
<!-- dir_88b6fdb80840c1f458f1501ed2f2a01d -->
<g id="node3" class="node">
<title>dir_88b6fdb80840c1f458f1501ed2f2a01d</title>
<g id="a_node3"><a xlink:href="dir_88b6fdb80840c1f458f1501ed2f2a01d.html" target="_top" xlink:title="Transforms">
<polygon fill="white" stroke="black" points="239.5,-396 168.5,-396 168.5,-360 239.5,-360 239.5,-396"/>
<text text-anchor="middle" x="204" y="-375.5" font-family="Helvetica,sans-Serif" font-size="10.00">Transforms</text>
</a>
</g>
</g>
<!-- dir_88b6fdb80840c1f458f1501ed2f2a01d&#45;&gt;dir_d07a6fac82475a065a3b2953573f00a0 -->
<g id="edge15" class="edge">
<title>dir_88b6fdb80840c1f458f1501ed2f2a01d&#45;&gt;dir_d07a6fac82475a065a3b2953573f00a0</title>
<path fill="none" stroke="black" d="M205.09,-359.87C206.62,-335.67 209.44,-291.21 211.26,-262.39"/>
<polygon fill="black" stroke="black" points="214.77,-262.39 211.91,-252.19 207.78,-261.95 214.77,-262.39"/>
<g id="a_edge15&#45;headlabel"><a xlink:href="dir_000158_000014.html" target="_top" xlink:title="1">
<text text-anchor="middle" x="217.38" y="-263.66" font-family="Helvetica,sans-Serif" font-size="10.00">1</text>
</a>
</g>
</g>
<!-- dir_cab9f8330899b1cc9d753b1d9c5c5a3e -->
<g id="node8" class="node">
<title>dir_cab9f8330899b1cc9d753b1d9c5c5a3e</title>
<g id="a_node8"><a xlink:href="dir_cab9f8330899b1cc9d753b1d9c5c5a3e.html" target="_top" xlink:title="Pass">
<polygon fill="none" stroke="black" points="295,-180 241,-180 241,-144 295,-144 295,-180"/>
<text text-anchor="middle" x="268" y="-159.5" font-family="Helvetica,sans-Serif" font-size="10.00">Pass</text>
</a>
</g>
</g>
<!-- dir_88b6fdb80840c1f458f1501ed2f2a01d&#45;&gt;dir_cab9f8330899b1cc9d753b1d9c5c5a3e -->
<g id="edge14" class="edge">
<title>dir_88b6fdb80840c1f458f1501ed2f2a01d&#45;&gt;dir_cab9f8330899b1cc9d753b1d9c5c5a3e</title>
<path fill="none" stroke="black" d="M211.01,-359.85C220.57,-335.98 237.8,-291.26 249,-252 254.82,-231.62 259.75,-208.16 263.14,-190.44"/>
<polygon fill="black" stroke="black" points="266.65,-190.7 265.04,-180.23 259.77,-189.42 266.65,-190.7"/>
<g id="a_edge14&#45;headlabel"><a xlink:href="dir_000158_000054.html" target="_top" xlink:title="1">
<text text-anchor="middle" x="268.78" y="-192.26" font-family="Helvetica,sans-Serif" font-size="10.00">1</text>
</a>
</g>
</g>
<!-- dir_84ef7c054b4edc3447cfba80cee80f65&#45;&gt;dir_cf63c3ddb21c79ef735682489f4c6a69 -->
<g id="edge1" class="edge">
<title>dir_84ef7c054b4edc3447cfba80cee80f65&#45;&gt;dir_cf63c3ddb21c79ef735682489f4c6a69</title>
<path fill="none" stroke="black" d="M110.01,-108.23C115.97,-145.32 121.97,-232.98 121.9,-277.71"/>
<polygon fill="black" stroke="black" points="118.4,-277.8 121.76,-287.85 125.4,-277.9 118.4,-277.8"/>
<g id="a_edge1&#45;headlabel"><a xlink:href="dir_000047_000288.html" target="_top" xlink:title="3">
<text text-anchor="middle" x="115.61" y="-271.67" font-family="Helvetica,sans-Serif" font-size="10.00">3</text>
</a>
</g>
</g>
<!-- dir_84ef7c054b4edc3447cfba80cee80f65&#45;&gt;dir_f61d47671007dfdb592580b61f960d39 -->
<g id="edge2" class="edge">
<title>dir_84ef7c054b4edc3447cfba80cee80f65&#45;&gt;dir_f61d47671007dfdb592580b61f960d39</title>
<path fill="none" stroke="black" d="M122.3,-71.7C130.86,-63.14 141.34,-52.66 150.7,-43.3"/>
<polygon fill="black" stroke="black" points="153.3,-45.65 157.9,-36.1 148.35,-40.7 153.3,-45.65"/>
<g id="a_edge2&#45;headlabel"><a xlink:href="dir_000047_000298.html" target="_top" xlink:title="23">
<text text-anchor="middle" x="152.77" y="-47.7" font-family="Helvetica,sans-Serif" font-size="10.00">23</text>
</a>
</g>
</g>
<!-- dir_cf63c3ddb21c79ef735682489f4c6a69&#45;&gt;dir_84ef7c054b4edc3447cfba80cee80f65 -->
<g id="edge5" class="edge">
<title>dir_cf63c3ddb21c79ef735682489f4c6a69&#45;&gt;dir_84ef7c054b4edc3447cfba80cee80f65</title>
<path fill="none" stroke="black" d="M114,-287.85C108.04,-250.83 102.04,-163.18 102.1,-118.39"/>
<polygon fill="black" stroke="black" points="105.6,-118.28 102.24,-108.23 98.6,-118.18 105.6,-118.28"/>
<g id="a_edge5&#45;headlabel"><a xlink:href="dir_000288_000047.html" target="_top" xlink:title="54">
<text text-anchor="middle" x="108.39" y="-119.41" font-family="Helvetica,sans-Serif" font-size="10.00">54</text>
</a>
</g>
</g>
<!-- dir_cf63c3ddb21c79ef735682489f4c6a69&#45;&gt;dir_d07a6fac82475a065a3b2953573f00a0 -->
<g id="edge6" class="edge">
<title>dir_cf63c3ddb21c79ef735682489f4c6a69&#45;&gt;dir_d07a6fac82475a065a3b2953573f00a0</title>
<path fill="none" stroke="black" d="M136.32,-287.7C147.88,-278.38 163.31,-266.78 177.36,-256.85"/>
<polygon fill="black" stroke="black" points="179.67,-259.5 185.88,-250.91 175.67,-253.76 179.67,-259.5"/>
<g id="a_edge6&#45;headlabel"><a xlink:href="dir_000288_000014.html" target="_top" xlink:title="2">
<text text-anchor="middle" x="178.35" y="-261.38" font-family="Helvetica,sans-Serif" font-size="10.00">2</text>
</a>
</g>
</g>
<!-- dir_cf63c3ddb21c79ef735682489f4c6a69&#45;&gt;dir_f61d47671007dfdb592580b61f960d39 -->
<g id="edge7" class="edge">
<title>dir_cf63c3ddb21c79ef735682489f4c6a69&#45;&gt;dir_f61d47671007dfdb592580b61f960d39</title>
<path fill="none" stroke="black" d="M125.74,-287.55C129.49,-277.32 133.99,-264.07 137,-252 155.3,-178.68 166.95,-90.11 172.04,-46.29"/>
<polygon fill="black" stroke="black" points="175.54,-46.48 173.19,-36.15 168.58,-45.69 175.54,-46.48"/>
<g id="a_edge7&#45;headlabel"><a xlink:href="dir_000288_000298.html" target="_top" xlink:title="2">
<text text-anchor="middle" x="177.95" y="-47.88" font-family="Helvetica,sans-Serif" font-size="10.00">2</text>
</a>
</g>
</g>
<!-- dir_d07a6fac82475a065a3b2953573f00a0&#45;&gt;dir_84ef7c054b4edc3447cfba80cee80f65 -->
<g id="edge8" class="edge">
<title>dir_d07a6fac82475a065a3b2953573f00a0&#45;&gt;dir_84ef7c054b4edc3447cfba80cee80f65</title>
<path fill="none" stroke="black" d="M199.97,-215.87C181.16,-191.14 146.25,-145.24 124.4,-116.51"/>
<polygon fill="black" stroke="black" points="126.91,-114.03 118.07,-108.19 121.34,-118.27 126.91,-114.03"/>
<g id="a_edge8&#45;headlabel"><a xlink:href="dir_000014_000047.html" target="_top" xlink:title="399">
<text text-anchor="middle" x="131.35" y="-112.67" font-family="Helvetica,sans-Serif" font-size="10.00">399</text>
</a>
</g>
</g>
<!-- dir_d07a6fac82475a065a3b2953573f00a0&#45;&gt;dir_cf63c3ddb21c79ef735682489f4c6a69 -->
<g id="edge10" class="edge">
<title>dir_d07a6fac82475a065a3b2953573f00a0&#45;&gt;dir_cf63c3ddb21c79ef735682489f4c6a69</title>
<path fill="none" stroke="black" d="M195.82,-252.19C184.68,-261.18 169.89,-272.32 156.22,-282.04"/>
<polygon fill="black" stroke="black" points="154.07,-279.27 147.89,-287.88 158.09,-285 154.07,-279.27"/>
<g id="a_edge10&#45;headlabel"><a xlink:href="dir_000014_000288.html" target="_top" xlink:title="198">
<text text-anchor="middle" x="155.38" y="-272.38" font-family="Helvetica,sans-Serif" font-size="10.00">198</text>
</a>
</g>
</g>
<!-- dir_d07a6fac82475a065a3b2953573f00a0&#45;&gt;dir_f61d47671007dfdb592580b61f960d39 -->
<g id="edge11" class="edge">
<title>dir_d07a6fac82475a065a3b2953573f00a0&#45;&gt;dir_f61d47671007dfdb592580b61f960d39</title>
<path fill="none" stroke="black" d="M211.09,-215.97C207.64,-186.47 199.72,-124.04 189,-72 187.25,-63.48 184.96,-54.29 182.74,-45.99"/>
<polygon fill="black" stroke="black" points="186.04,-44.79 180.02,-36.07 179.29,-46.64 186.04,-44.79"/>
<g id="a_edge11&#45;headlabel"><a xlink:href="dir_000014_000298.html" target="_top" xlink:title="42">
<text text-anchor="middle" x="189.73" y="-45" font-family="Helvetica,sans-Serif" font-size="10.00">42</text>
</a>
</g>
</g>
<!-- dir_d07a6fac82475a065a3b2953573f00a0&#45;&gt;dir_cab9f8330899b1cc9d753b1d9c5c5a3e -->
<g id="edge9" class="edge">
<title>dir_d07a6fac82475a065a3b2953573f00a0&#45;&gt;dir_cab9f8330899b1cc9d753b1d9c5c5a3e</title>
<path fill="none" stroke="black" d="M226.6,-215.7C233.12,-207.39 241.07,-197.28 248.25,-188.14"/>
<polygon fill="black" stroke="black" points="251.13,-190.13 254.56,-180.1 245.63,-185.81 251.13,-190.13"/>
<g id="a_edge9&#45;headlabel"><a xlink:href="dir_000014_000054.html" target="_top" xlink:title="32">
<text text-anchor="middle" x="251.15" y="-192.21" font-family="Helvetica,sans-Serif" font-size="10.00">32</text>
</a>
</g>
</g>
<!-- dir_cab9f8330899b1cc9d753b1d9c5c5a3e&#45;&gt;dir_84ef7c054b4edc3447cfba80cee80f65 -->
<g id="edge12" class="edge">
<title>dir_cab9f8330899b1cc9d753b1d9c5c5a3e&#45;&gt;dir_84ef7c054b4edc3447cfba80cee80f65</title>
<path fill="none" stroke="black" d="M240.72,-149.28C213.49,-137.59 171.47,-119.55 141.41,-106.64"/>
<polygon fill="black" stroke="black" points="142.67,-103.37 132.1,-102.64 139.91,-109.8 142.67,-103.37"/>
<g id="a_edge12&#45;headlabel"><a xlink:href="dir_000054_000047.html" target="_top" xlink:title="4">
<text text-anchor="middle" x="147.09" y="-99.68" font-family="Helvetica,sans-Serif" font-size="10.00">4</text>
</a>
</g>
</g>
<!-- dir_cab9f8330899b1cc9d753b1d9c5c5a3e&#45;&gt;dir_f61d47671007dfdb592580b61f960d39 -->
<g id="edge13" class="edge">
<title>dir_cab9f8330899b1cc9d753b1d9c5c5a3e&#45;&gt;dir_f61d47671007dfdb592580b61f960d39</title>
<path fill="none" stroke="black" d="M262.06,-143.68C255.21,-125.03 242.84,-94.97 227,-72 219.92,-61.74 210.78,-51.67 202.13,-43.11"/>
<polygon fill="black" stroke="black" points="204.37,-40.41 194.73,-36.01 199.52,-45.46 204.37,-40.41"/>
<g id="a_edge13&#45;headlabel"><a xlink:href="dir_000054_000298.html" target="_top" xlink:title="6">
<text text-anchor="middle" x="208.93" y="-38.35" font-family="Helvetica,sans-Serif" font-size="10.00">6</text>
</a>
</g>
</g>
</g>
</svg>
