<?xml version="1.0" encoding="UTF-8" standalone="no"?>
<!DOCTYPE svg PUBLIC "-//W3C//DTD SVG 1.1//EN"
 "http://www.w3.org/Graphics/SVG/1.1/DTD/svg11.dtd">
<!-- Generated by graphviz version 2.43.0 (0)
 -->
<!-- Title: include/mlir/Dialect/XeGPU Pages: 1 -->
<svg width="586pt" height="519pt"
 viewBox="0.00 0.00 586.00 519.00" xmlns="http://www.w3.org/2000/svg" xmlns:xlink="http://www.w3.org/1999/xlink">
<g id="graph0" class="graph" transform="scale(1 1) rotate(0) translate(4 515)">
<title>include/mlir/Dialect/XeGPU</title>
<g id="clust1" class="cluster">
<title>clusterdir_d07a6fac82475a065a3b2953573f00a0</title>
<g id="a_clust1"><a xlink:href="dir_d07a6fac82475a065a3b2953573f00a0.html" target="_top" xlink:title="Dialect">
<polygon fill="#ddddee" stroke="black" points="8,-136 8,-503 256,-503 256,-136 8,-136"/>
<text text-anchor="middle" x="132" y="-491" font-family="Helvetica,sans-Serif" font-size="10.00">Dialect</text>
</a>
</g>
</g>
<g id="clust2" class="cluster">
<title>clusterdir_5af423df3a2327edcd5f90b3d7e3f636</title>
<g id="a_clust2"><a xlink:href="dir_5af423df3a2327edcd5f90b3d7e3f636.html" target="_top">
<polygon fill="#eeeeff" stroke="black" points="16,-352 16,-476 248,-476 248,-352 16,-352"/>
</a>
</g>
</g>
<!-- dir_687ef06ec02158f82af83f8ed0273ebe -->
<g id="node1" class="node">
<title>dir_687ef06ec02158f82af83f8ed0273ebe</title>
<g id="a_node1"><a xlink:href="dir_687ef06ec02158f82af83f8ed0273ebe.html" target="_top" xlink:title="Arith">
<polygon fill="none" stroke="red" points="170,-180 116,-180 116,-144 170,-144 170,-180"/>
<text text-anchor="middle" x="143" y="-159.5" font-family="Helvetica,sans-Serif" font-size="10.00">Arith</text>
</a>
</g>
</g>
<!-- dir_51020c1b0909ae629a35fe1c65c620b9 -->
<g id="node8" class="node">
<title>dir_51020c1b0909ae629a35fe1c65c620b9</title>
<g id="a_node8"><a xlink:href="dir_51020c1b0909ae629a35fe1c65c620b9.html" target="_top" xlink:title="Bytecode">
<polygon fill="none" stroke="black" points="326,-180 264,-180 264,-144 326,-144 326,-180"/>
<text text-anchor="middle" x="295" y="-159.5" font-family="Helvetica,sans-Serif" font-size="10.00">Bytecode</text>
</a>
</g>
</g>
<!-- dir_687ef06ec02158f82af83f8ed0273ebe&#45;&gt;dir_51020c1b0909ae629a35fe1c65c620b9 -->
<g id="edge5" class="edge">
<title>dir_687ef06ec02158f82af83f8ed0273ebe&#45;&gt;dir_51020c1b0909ae629a35fe1c65c620b9</title>
<path fill="none" stroke="black" d="M170.02,-162C197.84,-162 225.67,-162 253.5,-162"/>
<polygon fill="black" stroke="black" points="253.75,-165.5 263.75,-162 253.75,-158.5 253.75,-165.5"/>
<g id="a_edge5&#45;headlabel"><a xlink:href="dir_000017_000051.html" target="_top" xlink:title="1">
<text text-anchor="middle" x="250.16" y="-165.84" font-family="Helvetica,sans-Serif" font-size="10.00">1</text>
</a>
</g>
</g>
<!-- dir_84ef7c054b4edc3447cfba80cee80f65 -->
<g id="node9" class="node">
<title>dir_84ef7c054b4edc3447cfba80cee80f65</title>
<g id="a_node9"><a xlink:href="dir_84ef7c054b4edc3447cfba80cee80f65.html" target="_top" xlink:title="IR">
<polygon fill="none" stroke="black" points="322,-108 268,-108 268,-72 322,-72 322,-108"/>
<text text-anchor="middle" x="295" y="-87.5" font-family="Helvetica,sans-Serif" font-size="10.00">IR</text>
</a>
</g>
</g>
<!-- dir_687ef06ec02158f82af83f8ed0273ebe&#45;&gt;dir_84ef7c054b4edc3447cfba80cee80f65 -->
<g id="edge6" class="edge">
<title>dir_687ef06ec02158f82af83f8ed0273ebe&#45;&gt;dir_84ef7c054b4edc3447cfba80cee80f65</title>
<path fill="none" stroke="black" d="M169.55,-143.95C174.29,-141.16 179.23,-138.4 184,-136 208.16,-123.84 236.43,-112.42 258.39,-104.12"/>
<polygon fill="black" stroke="black" points="259.85,-107.31 268,-100.54 257.4,-100.76 259.85,-107.31"/>
<g id="a_edge6&#45;headlabel"><a xlink:href="dir_000017_000047.html" target="_top" xlink:title="6">
<text text-anchor="middle" x="257.47" y="-108.73" font-family="Helvetica,sans-Serif" font-size="10.00">6</text>
</a>
</g>
</g>
<!-- dir_cab9f8330899b1cc9d753b1d9c5c5a3e -->
<g id="node10" class="node">
<title>dir_cab9f8330899b1cc9d753b1d9c5c5a3e</title>
<g id="a_node10"><a xlink:href="dir_cab9f8330899b1cc9d753b1d9c5c5a3e.html" target="_top" xlink:title="Pass">
<polygon fill="none" stroke="black" points="398,-180 344,-180 344,-144 398,-144 398,-180"/>
<text text-anchor="middle" x="371" y="-159.5" font-family="Helvetica,sans-Serif" font-size="10.00">Pass</text>
</a>
</g>
</g>
<!-- dir_687ef06ec02158f82af83f8ed0273ebe&#45;&gt;dir_cab9f8330899b1cc9d753b1d9c5c5a3e -->
<g id="edge8" class="edge">
<title>dir_687ef06ec02158f82af83f8ed0273ebe&#45;&gt;dir_cab9f8330899b1cc9d753b1d9c5c5a3e</title>
<path fill="none" stroke="black" d="M170.31,-176.16C206.65,-193.05 272.53,-216.76 326,-198 333.14,-195.5 339.99,-191.33 346.09,-186.7"/>
<polygon fill="black" stroke="black" points="348.45,-189.29 353.92,-180.22 343.99,-183.9 348.45,-189.29"/>
<g id="a_edge8&#45;headlabel"><a xlink:href="dir_000017_000054.html" target="_top" xlink:title="1">
<text text-anchor="middle" x="347.5" y="-191.27" font-family="Helvetica,sans-Serif" font-size="10.00">1</text>
</a>
</g>
</g>
<!-- dir_cf63c3ddb21c79ef735682489f4c6a69 -->
<g id="node11" class="node">
<title>dir_cf63c3ddb21c79ef735682489f4c6a69</title>
<g id="a_node11"><a xlink:href="dir_cf63c3ddb21c79ef735682489f4c6a69.html" target="_top" xlink:title="Interfaces">
<polygon fill="none" stroke="red" points="289.5,-36 224.5,-36 224.5,0 289.5,0 289.5,-36"/>
<text text-anchor="middle" x="257" y="-15.5" font-family="Helvetica,sans-Serif" font-size="10.00">Interfaces</text>
</a>
</g>
</g>
<!-- dir_687ef06ec02158f82af83f8ed0273ebe&#45;&gt;dir_cf63c3ddb21c79ef735682489f4c6a69 -->
<g id="edge7" class="edge">
<title>dir_687ef06ec02158f82af83f8ed0273ebe&#45;&gt;dir_cf63c3ddb21c79ef735682489f4c6a69</title>
<path fill="none" stroke="black" d="M156.75,-143.87C176.69,-119.03 213.77,-72.85 236.82,-44.14"/>
<polygon fill="black" stroke="black" points="239.67,-46.18 243.2,-36.19 234.21,-41.8 239.67,-46.18"/>
<g id="a_edge7&#45;headlabel"><a xlink:href="dir_000017_000287.html" target="_top" xlink:title="7">
<text text-anchor="middle" x="239.63" y="-48.26" font-family="Helvetica,sans-Serif" font-size="10.00">7</text>
</a>
</g>
</g>
<!-- dir_bfd3493254b3df47293537524626123b -->
<g id="node2" class="node">
<title>dir_bfd3493254b3df47293537524626123b</title>
<g id="a_node2"><a xlink:href="dir_bfd3493254b3df47293537524626123b.html" target="_top" xlink:title="Vector">
<polygon fill="none" stroke="red" points="239,-324 185,-324 185,-288 239,-288 239,-324"/>
<text text-anchor="middle" x="212" y="-303.5" font-family="Helvetica,sans-Serif" font-size="10.00">Vector</text>
</a>
</g>
</g>
<!-- dir_bfd3493254b3df47293537524626123b&#45;&gt;dir_687ef06ec02158f82af83f8ed0273ebe -->
<g id="edge18" class="edge">
<title>dir_bfd3493254b3df47293537524626123b&#45;&gt;dir_687ef06ec02158f82af83f8ed0273ebe</title>
<path fill="none" stroke="black" d="M212.19,-287.95C211.73,-269.27 208.96,-238.92 197,-216 191.36,-205.19 182.71,-195.25 173.98,-186.98"/>
<polygon fill="black" stroke="black" points="176.14,-184.21 166.35,-180.15 171.47,-189.43 176.14,-184.21"/>
<g id="a_edge18&#45;headlabel"><a xlink:href="dir_000152_000017.html" target="_top" xlink:title="2">
<text text-anchor="middle" x="180.71" y="-181.99" font-family="Helvetica,sans-Serif" font-size="10.00">2</text>
</a>
</g>
</g>
<!-- dir_e4893b20171f621ff7a85b39656091a7 -->
<g id="node3" class="node">
<title>dir_e4893b20171f621ff7a85b39656091a7</title>
<g id="a_node3"><a xlink:href="dir_e4893b20171f621ff7a85b39656091a7.html" target="_top" xlink:title="Utils">
<polygon fill="none" stroke="black" points="188,-252 134,-252 134,-216 188,-216 188,-252"/>
<text text-anchor="middle" x="161" y="-231.5" font-family="Helvetica,sans-Serif" font-size="10.00">Utils</text>
</a>
</g>
</g>
<!-- dir_bfd3493254b3df47293537524626123b&#45;&gt;dir_e4893b20171f621ff7a85b39656091a7 -->
<g id="edge22" class="edge">
<title>dir_bfd3493254b3df47293537524626123b&#45;&gt;dir_e4893b20171f621ff7a85b39656091a7</title>
<path fill="none" stroke="black" d="M199.39,-287.7C193.4,-279.47 186.12,-269.48 179.52,-260.42"/>
<polygon fill="black" stroke="black" points="182.18,-258.13 173.46,-252.1 176.52,-262.25 182.18,-258.13"/>
<g id="a_edge22&#45;headlabel"><a xlink:href="dir_000152_000278.html" target="_top" xlink:title="1">
<text text-anchor="middle" x="186.59" y="-256.86" font-family="Helvetica,sans-Serif" font-size="10.00">1</text>
</a>
</g>
</g>
<!-- dir_bfd3493254b3df47293537524626123b&#45;&gt;dir_51020c1b0909ae629a35fe1c65c620b9 -->
<g id="edge17" class="edge">
<title>dir_bfd3493254b3df47293537524626123b&#45;&gt;dir_51020c1b0909ae629a35fe1c65c620b9</title>
<path fill="none" stroke="black" d="M225.36,-287.79C232.99,-277.64 242.49,-264.39 250,-252 262.35,-231.64 274.41,-207.47 282.94,-189.46"/>
<polygon fill="black" stroke="black" points="286.23,-190.69 287.29,-180.15 279.89,-187.73 286.23,-190.69"/>
<g id="a_edge17&#45;headlabel"><a xlink:href="dir_000152_000051.html" target="_top" xlink:title="1">
<text text-anchor="middle" x="287.28" y="-192.65" font-family="Helvetica,sans-Serif" font-size="10.00">1</text>
</a>
</g>
</g>
<!-- dir_bfd3493254b3df47293537524626123b&#45;&gt;dir_84ef7c054b4edc3447cfba80cee80f65 -->
<g id="edge19" class="edge">
<title>dir_bfd3493254b3df47293537524626123b&#45;&gt;dir_84ef7c054b4edc3447cfba80cee80f65</title>
<path fill="none" stroke="black" d="M213.64,-287.97C217.24,-256.37 227.82,-187.21 255,-136 258.79,-128.86 263.94,-121.93 269.28,-115.73"/>
<polygon fill="black" stroke="black" points="271.9,-118.05 276.07,-108.3 266.74,-113.32 271.9,-118.05"/>
<g id="a_edge19&#45;headlabel"><a xlink:href="dir_000152_000047.html" target="_top" xlink:title="13">
<text text-anchor="middle" x="271.57" y="-120.12" font-family="Helvetica,sans-Serif" font-size="10.00">13</text>
</a>
</g>
</g>
<!-- dir_bfd3493254b3df47293537524626123b&#45;&gt;dir_cab9f8330899b1cc9d753b1d9c5c5a3e -->
<g id="edge20" class="edge">
<title>dir_bfd3493254b3df47293537524626123b&#45;&gt;dir_cab9f8330899b1cc9d753b1d9c5c5a3e</title>
<path fill="none" stroke="black" d="M231.88,-287.92C243.85,-277.59 259.36,-264.11 273,-252 297.57,-230.17 325.28,-204.96 344.94,-186.95"/>
<polygon fill="black" stroke="black" points="347.32,-189.52 352.32,-180.18 342.59,-184.36 347.32,-189.52"/>
<g id="a_edge20&#45;headlabel"><a xlink:href="dir_000152_000054.html" target="_top" xlink:title="1">
<text text-anchor="middle" x="346.58" y="-191.54" font-family="Helvetica,sans-Serif" font-size="10.00">1</text>
</a>
</g>
</g>
<!-- dir_bfd3493254b3df47293537524626123b&#45;&gt;dir_cf63c3ddb21c79ef735682489f4c6a69 -->
<g id="edge21" class="edge">
<title>dir_bfd3493254b3df47293537524626123b&#45;&gt;dir_cf63c3ddb21c79ef735682489f4c6a69</title>
<path fill="none" stroke="black" d="M184.73,-294.16C165.67,-285.34 140.9,-271.21 125,-252 91.26,-211.22 88.56,-188.08 98,-136 103.42,-106.11 100.68,-93.65 122,-72 146.81,-46.8 185.03,-33.3 214.48,-26.25"/>
<polygon fill="black" stroke="black" points="215.49,-29.61 224.49,-24.01 213.97,-22.77 215.49,-29.61"/>
<g id="a_edge21&#45;headlabel"><a xlink:href="dir_000152_000287.html" target="_top" xlink:title="9">
<text text-anchor="middle" x="212.6" y="-30.66" font-family="Helvetica,sans-Serif" font-size="10.00">9</text>
</a>
</g>
</g>
<!-- dir_e4893b20171f621ff7a85b39656091a7&#45;&gt;dir_687ef06ec02158f82af83f8ed0273ebe -->
<g id="edge23" class="edge">
<title>dir_e4893b20171f621ff7a85b39656091a7&#45;&gt;dir_687ef06ec02158f82af83f8ed0273ebe</title>
<path fill="none" stroke="black" d="M156.55,-215.7C154.55,-207.9 152.13,-198.51 149.9,-189.83"/>
<polygon fill="black" stroke="black" points="153.28,-188.92 147.4,-180.1 146.5,-190.66 153.28,-188.92"/>
<g id="a_edge23&#45;headlabel"><a xlink:href="dir_000278_000017.html" target="_top" xlink:title="1">
<text text-anchor="middle" x="156.92" y="-189.19" font-family="Helvetica,sans-Serif" font-size="10.00">1</text>
</a>
</g>
</g>
<!-- dir_e4893b20171f621ff7a85b39656091a7&#45;&gt;dir_84ef7c054b4edc3447cfba80cee80f65 -->
<g id="edge24" class="edge">
<title>dir_e4893b20171f621ff7a85b39656091a7&#45;&gt;dir_84ef7c054b4edc3447cfba80cee80f65</title>
<path fill="none" stroke="black" d="M168.72,-215.94C178.74,-195.18 197.84,-159.95 222,-136 232.72,-125.37 246.4,-116.11 259.01,-108.79"/>
<polygon fill="black" stroke="black" points="260.92,-111.73 267.95,-103.81 257.51,-105.62 260.92,-111.73"/>
<g id="a_edge24&#45;headlabel"><a xlink:href="dir_000278_000047.html" target="_top" xlink:title="10">
<text text-anchor="middle" x="259.16" y="-113.46" font-family="Helvetica,sans-Serif" font-size="10.00">10</text>
</a>
</g>
</g>
<!-- dir_5af423df3a2327edcd5f90b3d7e3f636 -->
<g id="node4" class="node">
<title>dir_5af423df3a2327edcd5f90b3d7e3f636</title>
<text text-anchor="middle" x="213" y="-447.5" font-family="Helvetica,sans-Serif" font-size="10.00">XeGPU</text>
</g>
<!-- dir_af87213b2c87ceb3ff163e266458ce84 -->
<g id="node5" class="node">
<title>dir_af87213b2c87ceb3ff163e266458ce84</title>
<g id="a_node5"><a xlink:href="dir_af87213b2c87ceb3ff163e266458ce84.html" target="_top" xlink:title="IR">
<polygon fill="white" stroke="black" points="239,-396 185,-396 185,-360 239,-360 239,-396"/>
<text text-anchor="middle" x="212" y="-375.5" font-family="Helvetica,sans-Serif" font-size="10.00">IR</text>
</a>
</g>
</g>
<!-- dir_af87213b2c87ceb3ff163e266458ce84&#45;&gt;dir_687ef06ec02158f82af83f8ed0273ebe -->
<g id="edge10" class="edge">
<title>dir_af87213b2c87ceb3ff163e266458ce84&#45;&gt;dir_687ef06ec02158f82af83f8ed0273ebe</title>
<path fill="none" stroke="black" d="M193.53,-359.95C183.46,-350.06 171.2,-337.01 162,-324 141.23,-294.62 133.46,-286.97 125,-252 119.98,-231.25 125.31,-207.55 131.44,-189.82"/>
<polygon fill="black" stroke="black" points="134.84,-190.74 135.07,-180.15 128.28,-188.28 134.84,-190.74"/>
<g id="a_edge10&#45;headlabel"><a xlink:href="dir_000284_000017.html" target="_top" xlink:title="1">
<text text-anchor="middle" x="136.23" y="-192.6" font-family="Helvetica,sans-Serif" font-size="10.00">1</text>
</a>
</g>
</g>
<!-- dir_af87213b2c87ceb3ff163e266458ce84&#45;&gt;dir_bfd3493254b3df47293537524626123b -->
<g id="edge12" class="edge">
<title>dir_af87213b2c87ceb3ff163e266458ce84&#45;&gt;dir_bfd3493254b3df47293537524626123b</title>
<path fill="none" stroke="black" d="M212,-359.7C212,-351.98 212,-342.71 212,-334.11"/>
<polygon fill="black" stroke="black" points="215.5,-334.1 212,-324.1 208.5,-334.1 215.5,-334.1"/>
<g id="a_edge12&#45;headlabel"><a xlink:href="dir_000284_000152.html" target="_top" xlink:title="1">
<text text-anchor="middle" x="218.34" y="-335.2" font-family="Helvetica,sans-Serif" font-size="10.00">1</text>
</a>
</g>
</g>
<!-- dir_af87213b2c87ceb3ff163e266458ce84&#45;&gt;dir_e4893b20171f621ff7a85b39656091a7 -->
<g id="edge14" class="edge">
<title>dir_af87213b2c87ceb3ff163e266458ce84&#45;&gt;dir_e4893b20171f621ff7a85b39656091a7</title>
<path fill="none" stroke="black" d="M197.62,-359.94C190.02,-350.05 181.22,-337.01 176,-324 168.08,-304.28 164.34,-280.48 162.58,-262.45"/>
<polygon fill="black" stroke="black" points="166.05,-261.99 161.73,-252.32 159.08,-262.58 166.05,-261.99"/>
<g id="a_edge14&#45;headlabel"><a xlink:href="dir_000284_000278.html" target="_top" xlink:title="1">
<text text-anchor="middle" x="169.18" y="-262.84" font-family="Helvetica,sans-Serif" font-size="10.00">1</text>
</a>
</g>
</g>
<!-- dir_af87213b2c87ceb3ff163e266458ce84&#45;&gt;dir_51020c1b0909ae629a35fe1c65c620b9 -->
<g id="edge9" class="edge">
<title>dir_af87213b2c87ceb3ff163e266458ce84&#45;&gt;dir_51020c1b0909ae629a35fe1c65c620b9</title>
<path fill="none" stroke="black" d="M231.99,-359.71C241.85,-350.14 253.07,-337.47 260,-324 282.21,-280.81 290.36,-224.08 293.32,-190.77"/>
<polygon fill="black" stroke="black" points="296.84,-190.68 294.14,-180.43 289.86,-190.12 296.84,-190.68"/>
<g id="a_edge9&#45;headlabel"><a xlink:href="dir_000284_000051.html" target="_top" xlink:title="1">
<text text-anchor="middle" x="299.39" y="-191.99" font-family="Helvetica,sans-Serif" font-size="10.00">1</text>
</a>
</g>
</g>
<!-- dir_af87213b2c87ceb3ff163e266458ce84&#45;&gt;dir_84ef7c054b4edc3447cfba80cee80f65 -->
<g id="edge11" class="edge">
<title>dir_af87213b2c87ceb3ff163e266458ce84&#45;&gt;dir_84ef7c054b4edc3447cfba80cee80f65</title>
<path fill="none" stroke="black" d="M239.2,-374.81C294.12,-369.76 415.17,-355.27 440,-324 472.58,-282.98 500.35,-246.55 407,-136 388.23,-113.77 356.86,-102.41 332.09,-96.68"/>
<polygon fill="black" stroke="black" points="332.79,-93.25 322.28,-94.61 331.35,-100.1 332.79,-93.25"/>
<g id="a_edge11&#45;headlabel"><a xlink:href="dir_000284_000047.html" target="_top" xlink:title="4">
<text text-anchor="middle" x="336.89" y="-88.71" font-family="Helvetica,sans-Serif" font-size="10.00">4</text>
</a>
</g>
</g>
<!-- dir_af87213b2c87ceb3ff163e266458ce84&#45;&gt;dir_cf63c3ddb21c79ef735682489f4c6a69 -->
<g id="edge13" class="edge">
<title>dir_af87213b2c87ceb3ff163e266458ce84&#45;&gt;dir_cf63c3ddb21c79ef735682489f4c6a69</title>
<path fill="none" stroke="black" d="M239.1,-372.21C296.69,-360.32 426,-323.73 426,-235 426,-235 426,-235 426,-161 426,-94.89 349.27,-53.4 299.21,-33.37"/>
<polygon fill="black" stroke="black" points="300.17,-29.99 289.58,-29.65 297.65,-36.52 300.17,-29.99"/>
<g id="a_edge13&#45;headlabel"><a xlink:href="dir_000284_000287.html" target="_top" xlink:title="3">
<text text-anchor="middle" x="304.55" y="-26.14" font-family="Helvetica,sans-Serif" font-size="10.00">3</text>
</a>
</g>
</g>
<!-- dir_547ab28a9767e2fb877115ac393fa027 -->
<g id="node6" class="node">
<title>dir_547ab28a9767e2fb877115ac393fa027</title>
<g id="a_node6"><a xlink:href="dir_547ab28a9767e2fb877115ac393fa027.html" target="_top" xlink:title="Transforms">
<polygon fill="white" stroke="black" points="167.5,-468 96.5,-468 96.5,-432 167.5,-432 167.5,-468"/>
<text text-anchor="middle" x="132" y="-447.5" font-family="Helvetica,sans-Serif" font-size="10.00">Transforms</text>
</a>
</g>
</g>
<!-- dir_547ab28a9767e2fb877115ac393fa027&#45;&gt;dir_84ef7c054b4edc3447cfba80cee80f65 -->
<g id="edge15" class="edge">
<title>dir_547ab28a9767e2fb877115ac393fa027&#45;&gt;dir_84ef7c054b4edc3447cfba80cee80f65</title>
<path fill="none" stroke="black" d="M167.6,-434.59C170.75,-433.61 173.91,-432.72 177,-432 255.49,-413.6 472.57,-443.1 538,-396 573.2,-370.66 578,-350.37 578,-307 578,-307 578,-307 578,-233 578,-181.83 558.19,-164.95 516,-136 486.58,-115.81 387.04,-101.56 332.13,-95.02"/>
<polygon fill="black" stroke="black" points="332.44,-91.54 322.1,-93.86 331.63,-98.49 332.44,-91.54"/>
<g id="a_edge15&#45;headlabel"><a xlink:href="dir_000155_000047.html" target="_top" xlink:title="1">
<text text-anchor="middle" x="336.34" y="-86.63" font-family="Helvetica,sans-Serif" font-size="10.00">1</text>
</a>
</g>
</g>
<!-- dir_547ab28a9767e2fb877115ac393fa027&#45;&gt;dir_cab9f8330899b1cc9d753b1d9c5c5a3e -->
<g id="edge16" class="edge">
<title>dir_547ab28a9767e2fb877115ac393fa027&#45;&gt;dir_cab9f8330899b1cc9d753b1d9c5c5a3e</title>
<path fill="none" stroke="black" d="M167.6,-434.61C170.75,-433.63 173.91,-432.73 177,-432 250.7,-414.47 465.34,-452.33 516,-396 577.34,-327.8 464.4,-230.39 404.63,-186.29"/>
<polygon fill="black" stroke="black" points="406.37,-183.23 396.22,-180.18 402.25,-188.89 406.37,-183.23"/>
<g id="a_edge16&#45;headlabel"><a xlink:href="dir_000155_000054.html" target="_top" xlink:title="1">
<text text-anchor="middle" x="410.95" y="-180.54" font-family="Helvetica,sans-Serif" font-size="10.00">1</text>
</a>
</g>
</g>
<!-- dir_5c40e114354cfd5eee371a627ce2bbef -->
<g id="node7" class="node">
<title>dir_5c40e114354cfd5eee371a627ce2bbef</title>
<g id="a_node7"><a xlink:href="dir_5c40e114354cfd5eee371a627ce2bbef.html" target="_top" xlink:title="Utils">
<polygon fill="white" stroke="black" points="78,-468 24,-468 24,-432 78,-432 78,-468"/>
<text text-anchor="middle" x="51" y="-447.5" font-family="Helvetica,sans-Serif" font-size="10.00">Utils</text>
</a>
</g>
</g>
<!-- dir_5c40e114354cfd5eee371a627ce2bbef&#45;&gt;dir_af87213b2c87ceb3ff163e266458ce84 -->
<g id="edge2" class="edge">
<title>dir_5c40e114354cfd5eee371a627ce2bbef&#45;&gt;dir_af87213b2c87ceb3ff163e266458ce84</title>
<path fill="none" stroke="black" d="M78.07,-436.07C81.08,-434.68 84.1,-433.3 87,-432 116.44,-418.82 150.12,-404.58 175.1,-394.19"/>
<polygon fill="black" stroke="black" points="176.66,-397.33 184.55,-390.27 173.97,-390.87 176.66,-397.33"/>
<g id="a_edge2&#45;headlabel"><a xlink:href="dir_000285_000284.html" target="_top" xlink:title="1">
<text text-anchor="middle" x="174.43" y="-398.83" font-family="Helvetica,sans-Serif" font-size="10.00">1</text>
</a>
</g>
</g>
<!-- dir_5c40e114354cfd5eee371a627ce2bbef&#45;&gt;dir_84ef7c054b4edc3447cfba80cee80f65 -->
<g id="edge1" class="edge">
<title>dir_5c40e114354cfd5eee371a627ce2bbef&#45;&gt;dir_84ef7c054b4edc3447cfba80cee80f65</title>
<path fill="none" stroke="black" d="M78.26,-435.36C81.17,-434.14 84.12,-432.99 87,-432 269.2,-369.47 502,-499.63 502,-307 502,-307 502,-307 502,-233 502,-181.1 478.51,-167.14 437,-136 406.1,-112.82 362.91,-101.37 332.29,-95.85"/>
<polygon fill="black" stroke="black" points="332.47,-92.33 322.03,-94.14 331.32,-99.24 332.47,-92.33"/>
<g id="a_edge1&#45;headlabel"><a xlink:href="dir_000285_000047.html" target="_top" xlink:title="2">
<text text-anchor="middle" x="336.48" y="-87.62" font-family="Helvetica,sans-Serif" font-size="10.00">2</text>
</a>
</g>
</g>
<!-- dir_51020c1b0909ae629a35fe1c65c620b9&#45;&gt;dir_84ef7c054b4edc3447cfba80cee80f65 -->
<g id="edge25" class="edge">
<title>dir_51020c1b0909ae629a35fe1c65c620b9&#45;&gt;dir_84ef7c054b4edc3447cfba80cee80f65</title>
<path fill="none" stroke="black" d="M289.08,-143.7C288.29,-135.98 288.06,-126.71 288.4,-118.11"/>
<polygon fill="black" stroke="black" points="291.9,-118.32 289.1,-108.1 284.92,-117.84 291.9,-118.32"/>
<g id="a_edge25&#45;headlabel"><a xlink:href="dir_000051_000047.html" target="_top" xlink:title="9">
<text text-anchor="middle" x="294.48" y="-119.61" font-family="Helvetica,sans-Serif" font-size="10.00">9</text>
</a>
</g>
</g>
<!-- dir_84ef7c054b4edc3447cfba80cee80f65&#45;&gt;dir_51020c1b0909ae629a35fe1c65c620b9 -->
<g id="edge3" class="edge">
<title>dir_84ef7c054b4edc3447cfba80cee80f65&#45;&gt;dir_51020c1b0909ae629a35fe1c65c620b9</title>
<path fill="none" stroke="black" d="M300.9,-108.1C301.7,-115.79 301.94,-125.05 301.6,-133.67"/>
<polygon fill="black" stroke="black" points="298.11,-133.48 300.92,-143.7 305.09,-133.96 298.11,-133.48"/>
<g id="a_edge3&#45;headlabel"><a xlink:href="dir_000047_000051.html" target="_top" xlink:title="2">
<text text-anchor="middle" x="295.52" y="-127.2" font-family="Helvetica,sans-Serif" font-size="10.00">2</text>
</a>
</g>
</g>
<!-- dir_84ef7c054b4edc3447cfba80cee80f65&#45;&gt;dir_cf63c3ddb21c79ef735682489f4c6a69 -->
<g id="edge4" class="edge">
<title>dir_84ef7c054b4edc3447cfba80cee80f65&#45;&gt;dir_cf63c3ddb21c79ef735682489f4c6a69</title>
<path fill="none" stroke="black" d="M279.69,-71.7C274.54,-63.73 269.1,-54.1 264.7,-45.26"/>
<polygon fill="black" stroke="black" points="267.81,-43.66 260.39,-36.1 261.48,-46.64 267.81,-43.66"/>
<g id="a_edge4&#45;headlabel"><a xlink:href="dir_000047_000287.html" target="_top" xlink:title="3">
<text text-anchor="middle" x="271.91" y="-43.21" font-family="Helvetica,sans-Serif" font-size="10.00">3</text>
</a>
</g>
</g>
<!-- dir_cab9f8330899b1cc9d753b1d9c5c5a3e&#45;&gt;dir_84ef7c054b4edc3447cfba80cee80f65 -->
<g id="edge28" class="edge">
<title>dir_cab9f8330899b1cc9d753b1d9c5c5a3e&#45;&gt;dir_84ef7c054b4edc3447cfba80cee80f65</title>
<path fill="none" stroke="black" d="M352.21,-143.7C342.83,-135.05 331.32,-124.45 321.09,-115.03"/>
<polygon fill="black" stroke="black" points="323.3,-112.3 313.57,-108.1 318.55,-117.45 323.3,-112.3"/>
<g id="a_edge28&#45;headlabel"><a xlink:href="dir_000054_000047.html" target="_top" xlink:title="4">
<text text-anchor="middle" x="327.86" y="-110.15" font-family="Helvetica,sans-Serif" font-size="10.00">4</text>
</a>
</g>
</g>
<!-- dir_cf63c3ddb21c79ef735682489f4c6a69&#45;&gt;dir_e4893b20171f621ff7a85b39656091a7 -->
<g id="edge27" class="edge">
<title>dir_cf63c3ddb21c79ef735682489f4c6a69&#45;&gt;dir_e4893b20171f621ff7a85b39656091a7</title>
<path fill="none" stroke="black" d="M224.25,-33.11C187.58,-50.97 130.24,-85.62 107,-136 98.81,-153.76 99.43,-161.97 107,-180 111.64,-191.05 119.83,-200.96 128.46,-209.14"/>
<polygon fill="black" stroke="black" points="126.26,-211.86 136.07,-215.86 130.89,-206.62 126.26,-211.86"/>
<g id="a_edge27&#45;headlabel"><a xlink:href="dir_000287_000278.html" target="_top" xlink:title="2">
<text text-anchor="middle" x="121.69" y="-209.11" font-family="Helvetica,sans-Serif" font-size="10.00">2</text>
</a>
</g>
</g>
<!-- dir_cf63c3ddb21c79ef735682489f4c6a69&#45;&gt;dir_84ef7c054b4edc3447cfba80cee80f65 -->
<g id="edge26" class="edge">
<title>dir_cf63c3ddb21c79ef735682489f4c6a69&#45;&gt;dir_84ef7c054b4edc3447cfba80cee80f65</title>
<path fill="none" stroke="black" d="M272.18,-36.1C277.32,-44.04 282.77,-53.67 287.19,-62.51"/>
<polygon fill="black" stroke="black" points="284.09,-64.15 291.52,-71.7 290.42,-61.16 284.09,-64.15"/>
<g id="a_edge26&#45;headlabel"><a xlink:href="dir_000287_000047.html" target="_top" xlink:title="53">
<text text-anchor="middle" x="279.99" y="-59.61" font-family="Helvetica,sans-Serif" font-size="10.00">53</text>
</a>
</g>
</g>
</g>
</svg>
