<?xml version="1.0" encoding="UTF-8" standalone="no"?>
<!DOCTYPE svg PUBLIC "-//W3C//DTD SVG 1.1//EN"
 "http://www.w3.org/Graphics/SVG/1.1/DTD/svg11.dtd">
<!-- Generated by graphviz version 2.43.0 (0)
 -->
<!-- Title: include/mlir/Target Pages: 1 -->
<svg width="556pt" height="319pt"
 viewBox="0.00 0.00 556.00 319.00" xmlns="http://www.w3.org/2000/svg" xmlns:xlink="http://www.w3.org/1999/xlink">
<g id="graph0" class="graph" transform="scale(1 1) rotate(0) translate(4 315)">
<title>include/mlir/Target</title>
<g id="clust1" class="cluster">
<title>clusterdir_5654f77406fb9ceec87e68ef828ceea2</title>
<g id="a_clust1"><a xlink:href="dir_5654f77406fb9ceec87e68ef828ceea2.html" target="_top" xlink:title="mlir">
<polygon fill="#ddddee" stroke="black" points="8,-8 8,-303 540,-303 540,-8 8,-8"/>
<text text-anchor="middle" x="274" y="-291" font-family="Helvetica,sans-Serif" font-size="10.00">mlir</text>
</a>
</g>
</g>
<g id="clust2" class="cluster">
<title>clusterdir_e350390f37204b20a5be47a406c54ddd</title>
<g id="a_clust2"><a xlink:href="dir_e350390f37204b20a5be47a406c54ddd.html" target="_top">
<polygon fill="#eeeeff" stroke="black" points="16,-224 16,-276 532,-276 532,-224 16,-224"/>
</a>
</g>
</g>
<!-- dir_84ef7c054b4edc3447cfba80cee80f65 -->
<g id="node1" class="node">
<title>dir_84ef7c054b4edc3447cfba80cee80f65</title>
<g id="a_node1"><a xlink:href="dir_84ef7c054b4edc3447cfba80cee80f65.html" target="_top" xlink:title="IR">
<polygon fill="none" stroke="black" points="304,-124 250,-124 250,-88 304,-88 304,-124"/>
<text text-anchor="middle" x="277" y="-103.5" font-family="Helvetica,sans-Serif" font-size="10.00">IR</text>
</a>
</g>
</g>
<!-- dir_f61d47671007dfdb592580b61f960d39 -->
<g id="node3" class="node">
<title>dir_f61d47671007dfdb592580b61f960d39</title>
<g id="a_node3"><a xlink:href="dir_f61d47671007dfdb592580b61f960d39.html" target="_top" xlink:title="Support">
<polygon fill="none" stroke="black" points="304,-52 250,-52 250,-16 304,-16 304,-52"/>
<text text-anchor="middle" x="277" y="-31.5" font-family="Helvetica,sans-Serif" font-size="10.00">Support</text>
</a>
</g>
</g>
<!-- dir_84ef7c054b4edc3447cfba80cee80f65&#45;&gt;dir_f61d47671007dfdb592580b61f960d39 -->
<g id="edge1" class="edge">
<title>dir_84ef7c054b4edc3447cfba80cee80f65&#45;&gt;dir_f61d47671007dfdb592580b61f960d39</title>
<path fill="none" stroke="black" d="M277,-87.7C277,-79.98 277,-70.71 277,-62.11"/>
<polygon fill="black" stroke="black" points="280.5,-62.1 277,-52.1 273.5,-62.1 280.5,-62.1"/>
<g id="a_edge1&#45;headlabel"><a xlink:href="dir_000046_000288.html" target="_top" xlink:title="23">
<text text-anchor="middle" x="283.34" y="-63.2" font-family="Helvetica,sans-Serif" font-size="10.00">23</text>
</a>
</g>
</g>
<!-- dir_d07a6fac82475a065a3b2953573f00a0 -->
<g id="node2" class="node">
<title>dir_d07a6fac82475a065a3b2953573f00a0</title>
<g id="a_node2"><a xlink:href="dir_d07a6fac82475a065a3b2953573f00a0.html" target="_top" xlink:title="Dialect">
<polygon fill="none" stroke="red" points="258,-196 204,-196 204,-160 258,-160 258,-196"/>
<text text-anchor="middle" x="231" y="-175.5" font-family="Helvetica,sans-Serif" font-size="10.00">Dialect</text>
</a>
</g>
</g>
<!-- dir_d07a6fac82475a065a3b2953573f00a0&#45;&gt;dir_84ef7c054b4edc3447cfba80cee80f65 -->
<g id="edge9" class="edge">
<title>dir_d07a6fac82475a065a3b2953573f00a0&#45;&gt;dir_84ef7c054b4edc3447cfba80cee80f65</title>
<path fill="none" stroke="black" d="M242.37,-159.7C247.72,-151.56 254.2,-141.69 260.11,-132.7"/>
<polygon fill="black" stroke="black" points="263.19,-134.38 265.76,-124.1 257.34,-130.54 263.19,-134.38"/>
<g id="a_edge9&#45;headlabel"><a xlink:href="dir_000014_000046.html" target="_top" xlink:title="382">
<text text-anchor="middle" x="263.59" y="-136.45" font-family="Helvetica,sans-Serif" font-size="10.00">382</text>
</a>
</g>
</g>
<!-- dir_d07a6fac82475a065a3b2953573f00a0&#45;&gt;dir_f61d47671007dfdb592580b61f960d39 -->
<g id="edge10" class="edge">
<title>dir_d07a6fac82475a065a3b2953573f00a0&#45;&gt;dir_f61d47671007dfdb592580b61f960d39</title>
<path fill="none" stroke="black" d="M230.52,-159.71C230.56,-141.35 232.21,-111.77 241,-88 244.55,-78.4 250.2,-68.85 255.98,-60.56"/>
<polygon fill="black" stroke="black" points="258.86,-62.55 261.97,-52.42 253.23,-58.4 258.86,-62.55"/>
<g id="a_edge10&#45;headlabel"><a xlink:href="dir_000014_000288.html" target="_top" xlink:title="42">
<text text-anchor="middle" x="259.02" y="-64.63" font-family="Helvetica,sans-Serif" font-size="10.00">42</text>
</a>
</g>
</g>
<!-- dir_b808e701192d909e8d445339c9bbdeb2 -->
<g id="node8" class="node">
<title>dir_b808e701192d909e8d445339c9bbdeb2</title>
<g id="a_node8"><a xlink:href="dir_b808e701192d909e8d445339c9bbdeb2.html" target="_top" xlink:title="LLVMIR">
<polygon fill="white" stroke="red" points="308,-268 254,-268 254,-232 308,-232 308,-268"/>
<text text-anchor="middle" x="281" y="-247.5" font-family="Helvetica,sans-Serif" font-size="10.00">LLVMIR</text>
</a>
</g>
</g>
<!-- dir_d07a6fac82475a065a3b2953573f00a0&#45;&gt;dir_b808e701192d909e8d445339c9bbdeb2 -->
<g id="edge11" class="edge">
<title>dir_d07a6fac82475a065a3b2953573f00a0&#45;&gt;dir_b808e701192d909e8d445339c9bbdeb2</title>
<path fill="none" stroke="black" d="M249.11,-196.1C255.75,-204.21 263.02,-214.08 269.03,-223.08"/>
<polygon fill="black" stroke="black" points="266.21,-225.17 274.56,-231.7 272.1,-221.39 266.21,-225.17"/>
<g id="a_edge11&#45;headlabel"><a xlink:href="dir_000014_000293.html" target="_top" xlink:title="2">
<text text-anchor="middle" x="261.88" y="-221.18" font-family="Helvetica,sans-Serif" font-size="10.00">2</text>
</a>
</g>
</g>
<!-- dir_e350390f37204b20a5be47a406c54ddd -->
<g id="node4" class="node">
<title>dir_e350390f37204b20a5be47a406c54ddd</title>
<text text-anchor="middle" x="497" y="-247.5" font-family="Helvetica,sans-Serif" font-size="10.00">Target</text>
</g>
<!-- dir_4894b50e82c5441cba6d4e4106efe705 -->
<g id="node5" class="node">
<title>dir_4894b50e82c5441cba6d4e4106efe705</title>
<g id="a_node5"><a xlink:href="dir_4894b50e82c5441cba6d4e4106efe705.html" target="_top" xlink:title="Cpp">
<polygon fill="white" stroke="black" points="78,-268 24,-268 24,-232 78,-232 78,-268"/>
<text text-anchor="middle" x="51" y="-247.5" font-family="Helvetica,sans-Serif" font-size="10.00">Cpp</text>
</a>
</g>
</g>
<!-- dir_4894b50e82c5441cba6d4e4106efe705&#45;&gt;dir_f61d47671007dfdb592580b61f960d39 -->
<g id="edge5" class="edge">
<title>dir_4894b50e82c5441cba6d4e4106efe705&#45;&gt;dir_f61d47671007dfdb592580b61f960d39</title>
<path fill="none" stroke="black" d="M61.85,-231.69C82.31,-200.09 129.28,-132.25 182,-88 199.7,-73.15 222.17,-60.39 240.82,-51.11"/>
<polygon fill="black" stroke="black" points="242.43,-54.22 249.9,-46.71 239.38,-47.92 242.43,-54.22"/>
<g id="a_edge5&#45;headlabel"><a xlink:href="dir_000290_000288.html" target="_top" xlink:title="1">
<text text-anchor="middle" x="240.43" y="-55.84" font-family="Helvetica,sans-Serif" font-size="10.00">1</text>
</a>
</g>
</g>
<!-- dir_5623b1d7ca52e71d281308447e705f6d -->
<g id="node6" class="node">
<title>dir_5623b1d7ca52e71d281308447e705f6d</title>
<g id="a_node6"><a xlink:href="dir_5623b1d7ca52e71d281308447e705f6d.html" target="_top" xlink:title="IRDLToCpp">
<polygon fill="white" stroke="black" points="236,-268 168,-268 168,-232 236,-232 236,-268"/>
<text text-anchor="middle" x="202" y="-247.5" font-family="Helvetica,sans-Serif" font-size="10.00">IRDLToCpp</text>
</a>
</g>
</g>
<!-- dir_5623b1d7ca52e71d281308447e705f6d&#45;&gt;dir_d07a6fac82475a065a3b2953573f00a0 -->
<g id="edge17" class="edge">
<title>dir_5623b1d7ca52e71d281308447e705f6d&#45;&gt;dir_d07a6fac82475a065a3b2953573f00a0</title>
<path fill="none" stroke="black" d="M209.17,-231.7C212.43,-223.81 216.37,-214.3 220,-205.55"/>
<polygon fill="black" stroke="black" points="223.32,-206.68 223.91,-196.1 216.85,-204 223.32,-206.68"/>
<g id="a_edge17&#45;headlabel"><a xlink:href="dir_000291_000014.html" target="_top" xlink:title="1">
<text text-anchor="middle" x="224.57" y="-208.59" font-family="Helvetica,sans-Serif" font-size="10.00">1</text>
</a>
</g>
</g>
<!-- dir_130796cf6474a1216b97abf3cf6603a9 -->
<g id="node7" class="node">
<title>dir_130796cf6474a1216b97abf3cf6603a9</title>
<g id="a_node7"><a xlink:href="dir_130796cf6474a1216b97abf3cf6603a9.html" target="_top" xlink:title="LLVM">
<polygon fill="white" stroke="red" points="150,-268 96,-268 96,-232 150,-232 150,-268"/>
<text text-anchor="middle" x="123" y="-247.5" font-family="Helvetica,sans-Serif" font-size="10.00">LLVM</text>
</a>
</g>
</g>
<!-- dir_130796cf6474a1216b97abf3cf6603a9&#45;&gt;dir_84ef7c054b4edc3447cfba80cee80f65 -->
<g id="edge6" class="edge">
<title>dir_130796cf6474a1216b97abf3cf6603a9&#45;&gt;dir_84ef7c054b4edc3447cfba80cee80f65</title>
<path fill="none" stroke="black" d="M134.34,-231.91C147.47,-212.93 170.46,-182.06 195,-160 208.78,-147.61 225.74,-136.14 240.66,-127.06"/>
<polygon fill="black" stroke="black" points="242.82,-129.85 249.63,-121.73 239.25,-123.83 242.82,-129.85"/>
<g id="a_edge6&#45;headlabel"><a xlink:href="dir_000037_000046.html" target="_top" xlink:title="2">
<text text-anchor="middle" x="241.18" y="-131.62" font-family="Helvetica,sans-Serif" font-size="10.00">2</text>
</a>
</g>
</g>
<!-- dir_130796cf6474a1216b97abf3cf6603a9&#45;&gt;dir_d07a6fac82475a065a3b2953573f00a0 -->
<g id="edge7" class="edge">
<title>dir_130796cf6474a1216b97abf3cf6603a9&#45;&gt;dir_d07a6fac82475a065a3b2953573f00a0</title>
<path fill="none" stroke="black" d="M147.29,-231.89C151.19,-229.22 155.19,-226.51 159,-224 170.67,-216.31 183.57,-208.14 195.2,-200.9"/>
<polygon fill="black" stroke="black" points="197.14,-203.82 203.79,-195.57 193.45,-197.87 197.14,-203.82"/>
<g id="a_edge7&#45;headlabel"><a xlink:href="dir_000037_000014.html" target="_top" xlink:title="5">
<text text-anchor="middle" x="195.58" y="-205.63" font-family="Helvetica,sans-Serif" font-size="10.00">5</text>
</a>
</g>
</g>
<!-- dir_130796cf6474a1216b97abf3cf6603a9&#45;&gt;dir_f61d47671007dfdb592580b61f960d39 -->
<g id="edge8" class="edge">
<title>dir_130796cf6474a1216b97abf3cf6603a9&#45;&gt;dir_f61d47671007dfdb592580b61f960d39</title>
<path fill="none" stroke="black" d="M127.64,-231.67C133.11,-213.03 143.36,-182.96 158,-160 183.26,-120.39 222.21,-82.42 248.61,-58.93"/>
<polygon fill="black" stroke="black" points="251.17,-61.34 256.37,-52.12 246.55,-56.08 251.17,-61.34"/>
<g id="a_edge8&#45;headlabel"><a xlink:href="dir_000037_000288.html" target="_top" xlink:title="1">
<text text-anchor="middle" x="250.34" y="-63.35" font-family="Helvetica,sans-Serif" font-size="10.00">1</text>
</a>
</g>
</g>
<!-- dir_b808e701192d909e8d445339c9bbdeb2&#45;&gt;dir_84ef7c054b4edc3447cfba80cee80f65 -->
<g id="edge2" class="edge">
<title>dir_b808e701192d909e8d445339c9bbdeb2&#45;&gt;dir_84ef7c054b4edc3447cfba80cee80f65</title>
<path fill="none" stroke="black" d="M280.52,-231.87C279.84,-207.67 278.58,-163.21 277.77,-134.39"/>
<polygon fill="black" stroke="black" points="281.26,-134.09 277.48,-124.19 274.27,-134.28 281.26,-134.09"/>
<g id="a_edge2&#45;headlabel"><a xlink:href="dir_000293_000046.html" target="_top" xlink:title="14">
<text text-anchor="middle" x="284.2" y="-135.1" font-family="Helvetica,sans-Serif" font-size="10.00">14</text>
</a>
</g>
</g>
<!-- dir_b808e701192d909e8d445339c9bbdeb2&#45;&gt;dir_d07a6fac82475a065a3b2953573f00a0 -->
<g id="edge3" class="edge">
<title>dir_b808e701192d909e8d445339c9bbdeb2&#45;&gt;dir_d07a6fac82475a065a3b2953573f00a0</title>
<path fill="none" stroke="black" d="M262.72,-231.7C256.07,-223.56 248.82,-213.69 242.82,-204.7"/>
<polygon fill="black" stroke="black" points="245.66,-202.64 237.32,-196.1 239.76,-206.41 245.66,-202.64"/>
<g id="a_edge3&#45;headlabel"><a xlink:href="dir_000293_000014.html" target="_top" xlink:title="5">
<text text-anchor="middle" x="249.99" y="-201.64" font-family="Helvetica,sans-Serif" font-size="10.00">5</text>
</a>
</g>
</g>
<!-- dir_b808e701192d909e8d445339c9bbdeb2&#45;&gt;dir_f61d47671007dfdb592580b61f960d39 -->
<g id="edge4" class="edge">
<title>dir_b808e701192d909e8d445339c9bbdeb2&#45;&gt;dir_f61d47671007dfdb592580b61f960d39</title>
<path fill="none" stroke="black" d="M289.91,-231.8C304.11,-202.03 328.75,-139.21 313,-88 309.99,-78.22 304.49,-68.62 298.68,-60.33"/>
<polygon fill="black" stroke="black" points="301.41,-58.13 292.61,-52.23 295.81,-62.33 301.41,-58.13"/>
<g id="a_edge4&#45;headlabel"><a xlink:href="dir_000293_000288.html" target="_top" xlink:title="2">
<text text-anchor="middle" x="305.83" y="-56.8" font-family="Helvetica,sans-Serif" font-size="10.00">2</text>
</a>
</g>
</g>
<!-- dir_4fbcc82ca97e950d35e51687420528b5 -->
<g id="node9" class="node">
<title>dir_4fbcc82ca97e950d35e51687420528b5</title>
<g id="a_node9"><a xlink:href="dir_4fbcc82ca97e950d35e51687420528b5.html" target="_top" xlink:title="SMTLIB">
<polygon fill="white" stroke="black" points="452,-268 398,-268 398,-232 452,-232 452,-268"/>
<text text-anchor="middle" x="425" y="-247.5" font-family="Helvetica,sans-Serif" font-size="10.00">SMTLIB</text>
</a>
</g>
</g>
<!-- dir_4fbcc82ca97e950d35e51687420528b5&#45;&gt;dir_84ef7c054b4edc3447cfba80cee80f65 -->
<g id="edge15" class="edge">
<title>dir_4fbcc82ca97e950d35e51687420528b5&#45;&gt;dir_84ef7c054b4edc3447cfba80cee80f65</title>
<path fill="none" stroke="black" d="M407.15,-231.87C381.03,-206.82 332.29,-160.05 302.44,-131.41"/>
<polygon fill="black" stroke="black" points="304.55,-128.59 294.92,-124.19 299.71,-133.64 304.55,-128.59"/>
<g id="a_edge15&#45;headlabel"><a xlink:href="dir_000308_000046.html" target="_top" xlink:title="2">
<text text-anchor="middle" x="309.11" y="-126.53" font-family="Helvetica,sans-Serif" font-size="10.00">2</text>
</a>
</g>
</g>
<!-- dir_4fbcc82ca97e950d35e51687420528b5&#45;&gt;dir_f61d47671007dfdb592580b61f960d39 -->
<g id="edge16" class="edge">
<title>dir_4fbcc82ca97e950d35e51687420528b5&#45;&gt;dir_f61d47671007dfdb592580b61f960d39</title>
<path fill="none" stroke="black" d="M416.78,-231.61C401.91,-201.02 368.58,-136.27 331,-88 323.06,-77.8 313.24,-67.6 304.16,-58.92"/>
<polygon fill="black" stroke="black" points="306.46,-56.29 296.77,-52.02 301.69,-61.4 306.46,-56.29"/>
<g id="a_edge16&#45;headlabel"><a xlink:href="dir_000308_000288.html" target="_top" xlink:title="1">
<text text-anchor="middle" x="311.03" y="-54.16" font-family="Helvetica,sans-Serif" font-size="10.00">1</text>
</a>
</g>
</g>
<!-- dir_b91217e6bbf14b41491c2e7ab65f56d9 -->
<g id="node10" class="node">
<title>dir_b91217e6bbf14b41491c2e7ab65f56d9</title>
<g id="a_node10"><a xlink:href="dir_b91217e6bbf14b41491c2e7ab65f56d9.html" target="_top" xlink:title="SPIRV">
<polygon fill="white" stroke="black" points="380,-268 326,-268 326,-232 380,-232 380,-268"/>
<text text-anchor="middle" x="353" y="-247.5" font-family="Helvetica,sans-Serif" font-size="10.00">SPIRV</text>
</a>
</g>
</g>
<!-- dir_b91217e6bbf14b41491c2e7ab65f56d9&#45;&gt;dir_84ef7c054b4edc3447cfba80cee80f65 -->
<g id="edge12" class="edge">
<title>dir_b91217e6bbf14b41491c2e7ab65f56d9&#45;&gt;dir_84ef7c054b4edc3447cfba80cee80f65</title>
<path fill="none" stroke="black" d="M337.62,-231.74C329.28,-221.78 319.24,-208.75 312,-196 300.71,-176.12 291.43,-151.86 285.28,-133.7"/>
<polygon fill="black" stroke="black" points="288.55,-132.45 282.1,-124.05 281.9,-134.64 288.55,-132.45"/>
<g id="a_edge12&#45;headlabel"><a xlink:href="dir_000292_000046.html" target="_top" xlink:title="1">
<text text-anchor="middle" x="292.37" y="-132.48" font-family="Helvetica,sans-Serif" font-size="10.00">1</text>
</a>
</g>
</g>
<!-- dir_b91217e6bbf14b41491c2e7ab65f56d9&#45;&gt;dir_d07a6fac82475a065a3b2953573f00a0 -->
<g id="edge13" class="edge">
<title>dir_b91217e6bbf14b41491c2e7ab65f56d9&#45;&gt;dir_d07a6fac82475a065a3b2953573f00a0</title>
<path fill="none" stroke="black" d="M329.26,-231.9C325.23,-229.17 321.04,-226.44 317,-224 301.12,-214.39 282.99,-204.71 267.48,-196.82"/>
<polygon fill="black" stroke="black" points="268.71,-193.52 258.21,-192.14 265.56,-199.77 268.71,-193.52"/>
<g id="a_edge13&#45;headlabel"><a xlink:href="dir_000292_000014.html" target="_top" xlink:title="1">
<text text-anchor="middle" x="273.2" y="-190.1" font-family="Helvetica,sans-Serif" font-size="10.00">1</text>
</a>
</g>
</g>
<!-- dir_b91217e6bbf14b41491c2e7ab65f56d9&#45;&gt;dir_f61d47671007dfdb592580b61f960d39 -->
<g id="edge14" class="edge">
<title>dir_b91217e6bbf14b41491c2e7ab65f56d9&#45;&gt;dir_f61d47671007dfdb592580b61f960d39</title>
<path fill="none" stroke="black" d="M352.14,-231.71C350.06,-201.27 343.06,-136.75 320,-88 315.24,-77.94 308.18,-68.12 301.15,-59.72"/>
<polygon fill="black" stroke="black" points="303.73,-57.35 294.5,-52.15 298.47,-61.97 303.73,-57.35"/>
<g id="a_edge14&#45;headlabel"><a xlink:href="dir_000292_000288.html" target="_top" xlink:title="3">
<text text-anchor="middle" x="308.23" y="-55.68" font-family="Helvetica,sans-Serif" font-size="10.00">3</text>
</a>
</g>
</g>
</g>
</svg>
