<?xml version="1.0" encoding="UTF-8" standalone="no"?>
<!DOCTYPE svg PUBLIC "-//W3C//DTD SVG 1.1//EN"
 "http://www.w3.org/Graphics/SVG/1.1/DTD/svg11.dtd">
<!-- Generated by graphviz version 2.43.0 (0)
 -->
<!-- Title: include/mlir/Dialect/MemRef Pages: 1 -->
<svg width="690pt" height="519pt"
 viewBox="0.00 0.00 690.00 519.00" xmlns="http://www.w3.org/2000/svg" xmlns:xlink="http://www.w3.org/1999/xlink">
<g id="graph0" class="graph" transform="scale(1 1) rotate(0) translate(4 515)">
<title>include/mlir/Dialect/MemRef</title>
<g id="clust1" class="cluster">
<title>clusterdir_d07a6fac82475a065a3b2953573f00a0</title>
<g id="a_clust1"><a xlink:href="dir_d07a6fac82475a065a3b2953573f00a0.html" target="_top" xlink:title="Dialect">
<polygon fill="#ddddee" stroke="black" points="246,-208 246,-503 674,-503 674,-208 246,-208"/>
<text text-anchor="middle" x="460" y="-491" font-family="Helvetica,sans-Serif" font-size="10.00">Dialect</text>
</a>
</g>
</g>
<g id="clust2" class="cluster">
<title>clusterdir_d0219b36a5ea27d6075e0b14c6f98d85</title>
<g id="a_clust2"><a xlink:href="dir_d0219b36a5ea27d6075e0b14c6f98d85.html" target="_top">
<polygon fill="#eeeeff" stroke="black" points="328,-352 328,-476 666,-476 666,-352 328,-352"/>
</a>
</g>
</g>
<!-- dir_687ef06ec02158f82af83f8ed0273ebe -->
<g id="node1" class="node">
<title>dir_687ef06ec02158f82af83f8ed0273ebe</title>
<g id="a_node1"><a xlink:href="dir_687ef06ec02158f82af83f8ed0273ebe.html" target="_top" xlink:title="Arith">
<polygon fill="none" stroke="red" points="424,-252 370,-252 370,-216 424,-216 424,-252"/>
<text text-anchor="middle" x="397" y="-231.5" font-family="Helvetica,sans-Serif" font-size="10.00">Arith</text>
</a>
</g>
</g>
<!-- dir_51020c1b0909ae629a35fe1c65c620b9 -->
<g id="node9" class="node">
<title>dir_51020c1b0909ae629a35fe1c65c620b9</title>
<g id="a_node9"><a xlink:href="dir_51020c1b0909ae629a35fe1c65c620b9.html" target="_top" xlink:title="Bytecode">
<polygon fill="none" stroke="black" points="238,-252 176,-252 176,-216 238,-216 238,-252"/>
<text text-anchor="middle" x="207" y="-231.5" font-family="Helvetica,sans-Serif" font-size="10.00">Bytecode</text>
</a>
</g>
</g>
<!-- dir_687ef06ec02158f82af83f8ed0273ebe&#45;&gt;dir_51020c1b0909ae629a35fe1c65c620b9 -->
<g id="edge4" class="edge">
<title>dir_687ef06ec02158f82af83f8ed0273ebe&#45;&gt;dir_51020c1b0909ae629a35fe1c65c620b9</title>
<path fill="none" stroke="black" d="M369.7,-234C329.2,-234 288.69,-234 248.19,-234"/>
<polygon fill="black" stroke="black" points="248.17,-230.5 238.17,-234 248.17,-237.5 248.17,-230.5"/>
<g id="a_edge4&#45;headlabel"><a xlink:href="dir_000017_000050.html" target="_top" xlink:title="1">
<text text-anchor="middle" x="251.77" y="-225.16" font-family="Helvetica,sans-Serif" font-size="10.00">1</text>
</a>
</g>
</g>
<!-- dir_84ef7c054b4edc3447cfba80cee80f65 -->
<g id="node10" class="node">
<title>dir_84ef7c054b4edc3447cfba80cee80f65</title>
<g id="a_node10"><a xlink:href="dir_84ef7c054b4edc3447cfba80cee80f65.html" target="_top" xlink:title="IR">
<polygon fill="none" stroke="black" points="293,-180 239,-180 239,-144 293,-144 293,-180"/>
<text text-anchor="middle" x="266" y="-159.5" font-family="Helvetica,sans-Serif" font-size="10.00">IR</text>
</a>
</g>
</g>
<!-- dir_687ef06ec02158f82af83f8ed0273ebe&#45;&gt;dir_84ef7c054b4edc3447cfba80cee80f65 -->
<g id="edge5" class="edge">
<title>dir_687ef06ec02158f82af83f8ed0273ebe&#45;&gt;dir_84ef7c054b4edc3447cfba80cee80f65</title>
<path fill="none" stroke="black" d="M369.84,-216C365.26,-213.26 360.52,-210.5 356,-208 338.62,-198.38 318.93,-188.43 302.41,-180.34"/>
<polygon fill="black" stroke="black" points="303.61,-177.03 293.09,-175.81 300.55,-183.33 303.61,-177.03"/>
<g id="a_edge5&#45;headlabel"><a xlink:href="dir_000017_000046.html" target="_top" xlink:title="6">
<text text-anchor="middle" x="308.08" y="-173.55" font-family="Helvetica,sans-Serif" font-size="10.00">6</text>
</a>
</g>
</g>
<!-- dir_cf63c3ddb21c79ef735682489f4c6a69 -->
<g id="node11" class="node">
<title>dir_cf63c3ddb21c79ef735682489f4c6a69</title>
<g id="a_node11"><a xlink:href="dir_cf63c3ddb21c79ef735682489f4c6a69.html" target="_top" xlink:title="Interfaces">
<polygon fill="none" stroke="red" points="429.5,-108 364.5,-108 364.5,-72 429.5,-72 429.5,-108"/>
<text text-anchor="middle" x="397" y="-87.5" font-family="Helvetica,sans-Serif" font-size="10.00">Interfaces</text>
</a>
</g>
</g>
<!-- dir_687ef06ec02158f82af83f8ed0273ebe&#45;&gt;dir_cf63c3ddb21c79ef735682489f4c6a69 -->
<g id="edge6" class="edge">
<title>dir_687ef06ec02158f82af83f8ed0273ebe&#45;&gt;dir_cf63c3ddb21c79ef735682489f4c6a69</title>
<path fill="none" stroke="black" d="M397,-215.87C397,-191.67 397,-147.21 397,-118.39"/>
<polygon fill="black" stroke="black" points="400.5,-118.19 397,-108.19 393.5,-118.19 400.5,-118.19"/>
<g id="a_edge6&#45;headlabel"><a xlink:href="dir_000017_000279.html" target="_top" xlink:title="7">
<text text-anchor="middle" x="403.34" y="-119.28" font-family="Helvetica,sans-Serif" font-size="10.00">7</text>
</a>
</g>
</g>
<!-- dir_cab9f8330899b1cc9d753b1d9c5c5a3e -->
<g id="node12" class="node">
<title>dir_cab9f8330899b1cc9d753b1d9c5c5a3e</title>
<g id="a_node12"><a xlink:href="dir_cab9f8330899b1cc9d753b1d9c5c5a3e.html" target="_top" xlink:title="Pass">
<polygon fill="none" stroke="black" points="82,-252 28,-252 28,-216 82,-216 82,-252"/>
<text text-anchor="middle" x="55" y="-231.5" font-family="Helvetica,sans-Serif" font-size="10.00">Pass</text>
</a>
</g>
</g>
<!-- dir_687ef06ec02158f82af83f8ed0273ebe&#45;&gt;dir_cab9f8330899b1cc9d753b1d9c5c5a3e -->
<g id="edge7" class="edge">
<title>dir_687ef06ec02158f82af83f8ed0273ebe&#45;&gt;dir_cab9f8330899b1cc9d753b1d9c5c5a3e</title>
<path fill="none" stroke="black" d="M377.69,-252.25C369,-259.23 358.2,-266.39 347,-270 274.67,-293.33 251.21,-280.95 176,-270 147.15,-265.8 115.62,-256.25 91.98,-248.04"/>
<polygon fill="black" stroke="black" points="92.96,-244.67 82.36,-244.62 90.61,-251.27 92.96,-244.67"/>
<g id="a_edge7&#45;headlabel"><a xlink:href="dir_000017_000053.html" target="_top" xlink:title="1">
<text text-anchor="middle" x="97.29" y="-240.7" font-family="Helvetica,sans-Serif" font-size="10.00">1</text>
</a>
</g>
</g>
<!-- dir_e4893b20171f621ff7a85b39656091a7 -->
<g id="node2" class="node">
<title>dir_e4893b20171f621ff7a85b39656091a7</title>
<g id="a_node2"><a xlink:href="dir_e4893b20171f621ff7a85b39656091a7.html" target="_top" xlink:title="Utils">
<polygon fill="none" stroke="black" points="470,-324 416,-324 416,-288 470,-288 470,-324"/>
<text text-anchor="middle" x="443" y="-303.5" font-family="Helvetica,sans-Serif" font-size="10.00">Utils</text>
</a>
</g>
</g>
<!-- dir_e4893b20171f621ff7a85b39656091a7&#45;&gt;dir_687ef06ec02158f82af83f8ed0273ebe -->
<g id="edge11" class="edge">
<title>dir_e4893b20171f621ff7a85b39656091a7&#45;&gt;dir_687ef06ec02158f82af83f8ed0273ebe</title>
<path fill="none" stroke="black" d="M431.63,-287.7C426.28,-279.56 419.8,-269.69 413.89,-260.7"/>
<polygon fill="black" stroke="black" points="416.66,-258.54 408.24,-252.1 410.81,-262.38 416.66,-258.54"/>
<g id="a_edge11&#45;headlabel"><a xlink:href="dir_000272_000017.html" target="_top" xlink:title="1">
<text text-anchor="middle" x="421" y="-257.48" font-family="Helvetica,sans-Serif" font-size="10.00">1</text>
</a>
</g>
</g>
<!-- dir_e4893b20171f621ff7a85b39656091a7&#45;&gt;dir_84ef7c054b4edc3447cfba80cee80f65 -->
<g id="edge12" class="edge">
<title>dir_e4893b20171f621ff7a85b39656091a7&#45;&gt;dir_84ef7c054b4edc3447cfba80cee80f65</title>
<path fill="none" stroke="black" d="M415.74,-289.48C399.26,-279.6 378.19,-266.05 361,-252 339.83,-234.69 337.91,-226.74 318,-208 310.59,-201.03 302.36,-193.72 294.67,-187.06"/>
<polygon fill="black" stroke="black" points="296.47,-183.99 286.6,-180.14 291.91,-189.3 296.47,-183.99"/>
<g id="a_edge12&#45;headlabel"><a xlink:href="dir_000272_000046.html" target="_top" xlink:title="10">
<text text-anchor="middle" x="301.04" y="-181.68" font-family="Helvetica,sans-Serif" font-size="10.00">10</text>
</a>
</g>
</g>
<!-- dir_f61d47671007dfdb592580b61f960d39 -->
<g id="node13" class="node">
<title>dir_f61d47671007dfdb592580b61f960d39</title>
<g id="a_node13"><a xlink:href="dir_f61d47671007dfdb592580b61f960d39.html" target="_top" xlink:title="Support">
<polygon fill="none" stroke="black" points="234,-36 180,-36 180,0 234,0 234,-36"/>
<text text-anchor="middle" x="207" y="-15.5" font-family="Helvetica,sans-Serif" font-size="10.00">Support</text>
</a>
</g>
</g>
<!-- dir_e4893b20171f621ff7a85b39656091a7&#45;&gt;dir_f61d47671007dfdb592580b61f960d39 -->
<g id="edge13" class="edge">
<title>dir_e4893b20171f621ff7a85b39656091a7&#45;&gt;dir_f61d47671007dfdb592580b61f960d39</title>
<path fill="none" stroke="black" d="M449.26,-287.79C463.48,-245.31 493.01,-134.4 439,-72 413.88,-42.97 302.97,-28.16 244.06,-22.22"/>
<polygon fill="black" stroke="black" points="244.34,-18.73 234.04,-21.24 243.66,-25.7 244.34,-18.73"/>
<g id="a_edge13&#45;headlabel"><a xlink:href="dir_000272_000288.html" target="_top" xlink:title="4">
<text text-anchor="middle" x="248.19" y="-13.75" font-family="Helvetica,sans-Serif" font-size="10.00">4</text>
</a>
</g>
</g>
<!-- dir_832fe9af74a05d9f4772b8e442bafd02 -->
<g id="node3" class="node">
<title>dir_832fe9af74a05d9f4772b8e442bafd02</title>
<g id="a_node3"><a xlink:href="dir_832fe9af74a05d9f4772b8e442bafd02.html" target="_top" xlink:title="Transform">
<polygon fill="none" stroke="red" points="319.5,-396 254.5,-396 254.5,-360 319.5,-360 319.5,-396"/>
<text text-anchor="middle" x="287" y="-375.5" font-family="Helvetica,sans-Serif" font-size="10.00">Transform</text>
</a>
</g>
</g>
<!-- dir_832fe9af74a05d9f4772b8e442bafd02&#45;&gt;dir_51020c1b0909ae629a35fe1c65c620b9 -->
<g id="edge27" class="edge">
<title>dir_832fe9af74a05d9f4772b8e442bafd02&#45;&gt;dir_51020c1b0909ae629a35fe1c65c620b9</title>
<path fill="none" stroke="black" d="M277.35,-359.87C263.54,-335.35 238,-290.03 221.79,-261.26"/>
<polygon fill="black" stroke="black" points="224.64,-259.18 216.68,-252.19 218.54,-262.62 224.64,-259.18"/>
<g id="a_edge27&#45;headlabel"><a xlink:href="dir_000033_000050.html" target="_top" xlink:title="5">
<text text-anchor="middle" x="228.88" y="-258.42" font-family="Helvetica,sans-Serif" font-size="10.00">5</text>
</a>
</g>
</g>
<!-- dir_832fe9af74a05d9f4772b8e442bafd02&#45;&gt;dir_84ef7c054b4edc3447cfba80cee80f65 -->
<g id="edge28" class="edge">
<title>dir_832fe9af74a05d9f4772b8e442bafd02&#45;&gt;dir_84ef7c054b4edc3447cfba80cee80f65</title>
<path fill="none" stroke="black" d="M285.32,-359.85C281.68,-322.83 273.08,-235.18 268.69,-190.39"/>
<polygon fill="black" stroke="black" points="272.15,-189.84 267.69,-180.23 265.18,-190.53 272.15,-189.84"/>
<g id="a_edge28&#45;headlabel"><a xlink:href="dir_000033_000046.html" target="_top" xlink:title="27">
<text text-anchor="middle" x="275.33" y="-190.64" font-family="Helvetica,sans-Serif" font-size="10.00">27</text>
</a>
</g>
</g>
<!-- dir_832fe9af74a05d9f4772b8e442bafd02&#45;&gt;dir_cf63c3ddb21c79ef735682489f4c6a69 -->
<g id="edge29" class="edge">
<title>dir_832fe9af74a05d9f4772b8e442bafd02&#45;&gt;dir_cf63c3ddb21c79ef735682489f4c6a69</title>
<path fill="none" stroke="black" d="M309.25,-359.82C313.93,-356.84 318.97,-354.05 324,-352 388.84,-325.61 434.11,-377.72 479,-324 531.66,-260.98 459.65,-161.86 420.02,-115.92"/>
<polygon fill="black" stroke="black" points="422.5,-113.43 413.27,-108.24 417.24,-118.06 422.5,-113.43"/>
<g id="a_edge29&#45;headlabel"><a xlink:href="dir_000033_000279.html" target="_top" xlink:title="10">
<text text-anchor="middle" x="427" y="-111.76" font-family="Helvetica,sans-Serif" font-size="10.00">10</text>
</a>
</g>
</g>
<!-- dir_832fe9af74a05d9f4772b8e442bafd02&#45;&gt;dir_cab9f8330899b1cc9d753b1d9c5c5a3e -->
<g id="edge31" class="edge">
<title>dir_832fe9af74a05d9f4772b8e442bafd02&#45;&gt;dir_cab9f8330899b1cc9d753b1d9c5c5a3e</title>
<path fill="none" stroke="black" d="M254.41,-361.57C233.85,-351.51 206.95,-337.74 184,-324 149.61,-303.4 112.07,-277.03 86.4,-258.36"/>
<polygon fill="black" stroke="black" points="88.31,-255.42 78.17,-252.34 84.18,-261.07 88.31,-255.42"/>
<g id="a_edge31&#45;headlabel"><a xlink:href="dir_000033_000053.html" target="_top" xlink:title="2">
<text text-anchor="middle" x="92.89" y="-252.75" font-family="Helvetica,sans-Serif" font-size="10.00">2</text>
</a>
</g>
</g>
<!-- dir_832fe9af74a05d9f4772b8e442bafd02&#45;&gt;dir_f61d47671007dfdb592580b61f960d39 -->
<g id="edge30" class="edge">
<title>dir_832fe9af74a05d9f4772b8e442bafd02&#45;&gt;dir_f61d47671007dfdb592580b61f960d39</title>
<path fill="none" stroke="black" d="M261.29,-359.9C231.94,-338.63 185.61,-299.31 167,-252 138.93,-180.63 173.15,-89.3 193.68,-45.18"/>
<polygon fill="black" stroke="black" points="196.91,-46.54 198.07,-36.01 190.6,-43.52 196.91,-46.54"/>
<g id="a_edge30&#45;headlabel"><a xlink:href="dir_000033_000288.html" target="_top" xlink:title="6">
<text text-anchor="middle" x="197.92" y="-48.51" font-family="Helvetica,sans-Serif" font-size="10.00">6</text>
</a>
</g>
</g>
<!-- dir_d0219b36a5ea27d6075e0b14c6f98d85 -->
<g id="node4" class="node">
<title>dir_d0219b36a5ea27d6075e0b14c6f98d85</title>
<text text-anchor="middle" x="629" y="-447.5" font-family="Helvetica,sans-Serif" font-size="10.00">MemRef</text>
</g>
<!-- dir_a34132bbb3c1b54534a42e122402746d -->
<g id="node5" class="node">
<title>dir_a34132bbb3c1b54534a42e122402746d</title>
<g id="a_node5"><a xlink:href="dir_a34132bbb3c1b54534a42e122402746d.html" target="_top" xlink:title="IR">
<polygon fill="white" stroke="black" points="447,-396 393,-396 393,-360 447,-360 447,-396"/>
<text text-anchor="middle" x="420" y="-375.5" font-family="Helvetica,sans-Serif" font-size="10.00">IR</text>
</a>
</g>
</g>
<!-- dir_a34132bbb3c1b54534a42e122402746d&#45;&gt;dir_687ef06ec02158f82af83f8ed0273ebe -->
<g id="edge17" class="edge">
<title>dir_a34132bbb3c1b54534a42e122402746d&#45;&gt;dir_687ef06ec02158f82af83f8ed0273ebe</title>
<path fill="none" stroke="black" d="M415.22,-359.93C412.48,-349.6 409.16,-336.13 407,-324 403.34,-303.46 400.77,-280.01 399.15,-262.34"/>
<polygon fill="black" stroke="black" points="402.62,-261.81 398.27,-252.16 395.65,-262.42 402.62,-261.81"/>
<g id="a_edge17&#45;headlabel"><a xlink:href="dir_000190_000017.html" target="_top" xlink:title="1">
<text text-anchor="middle" x="405.76" y="-262.65" font-family="Helvetica,sans-Serif" font-size="10.00">1</text>
</a>
</g>
</g>
<!-- dir_a34132bbb3c1b54534a42e122402746d&#45;&gt;dir_e4893b20171f621ff7a85b39656091a7 -->
<g id="edge20" class="edge">
<title>dir_a34132bbb3c1b54534a42e122402746d&#45;&gt;dir_e4893b20171f621ff7a85b39656091a7</title>
<path fill="none" stroke="black" d="M425.69,-359.7C428.25,-351.9 431.33,-342.51 434.18,-333.83"/>
<polygon fill="black" stroke="black" points="437.58,-334.7 437.38,-324.1 430.93,-332.51 437.58,-334.7"/>
<g id="a_edge20&#45;headlabel"><a xlink:href="dir_000190_000272.html" target="_top" xlink:title="1">
<text text-anchor="middle" x="439.16" y="-336.5" font-family="Helvetica,sans-Serif" font-size="10.00">1</text>
</a>
</g>
</g>
<!-- dir_a34132bbb3c1b54534a42e122402746d&#45;&gt;dir_51020c1b0909ae629a35fe1c65c620b9 -->
<g id="edge16" class="edge">
<title>dir_a34132bbb3c1b54534a42e122402746d&#45;&gt;dir_51020c1b0909ae629a35fe1c65c620b9</title>
<path fill="none" stroke="black" d="M399.74,-359.75C396.24,-357.04 392.58,-354.36 389,-352 366.75,-337.35 357.65,-339.53 336,-324 317.1,-310.44 316.62,-301.95 298,-288 282.07,-276.07 263.24,-264.7 246.85,-255.58"/>
<polygon fill="black" stroke="black" points="248.48,-252.48 238.03,-250.75 245.12,-258.62 248.48,-252.48"/>
<g id="a_edge16&#45;headlabel"><a xlink:href="dir_000190_000050.html" target="_top" xlink:title="1">
<text text-anchor="middle" x="253" y="-249.22" font-family="Helvetica,sans-Serif" font-size="10.00">1</text>
</a>
</g>
</g>
<!-- dir_a34132bbb3c1b54534a42e122402746d&#45;&gt;dir_84ef7c054b4edc3447cfba80cee80f65 -->
<g id="edge18" class="edge">
<title>dir_a34132bbb3c1b54534a42e122402746d&#45;&gt;dir_84ef7c054b4edc3447cfba80cee80f65</title>
<path fill="none" stroke="black" d="M399.66,-359.94C388.48,-350.04 374.75,-337 364,-324 344.89,-300.88 302.9,-228.33 280.6,-188.98"/>
<polygon fill="black" stroke="black" points="283.6,-187.19 275.63,-180.2 277.51,-190.63 283.6,-187.19"/>
<g id="a_edge18&#45;headlabel"><a xlink:href="dir_000190_000046.html" target="_top" xlink:title="1">
<text text-anchor="middle" x="287.84" y="-186.42" font-family="Helvetica,sans-Serif" font-size="10.00">1</text>
</a>
</g>
</g>
<!-- dir_a34132bbb3c1b54534a42e122402746d&#45;&gt;dir_cf63c3ddb21c79ef735682489f4c6a69 -->
<g id="edge19" class="edge">
<title>dir_a34132bbb3c1b54534a42e122402746d&#45;&gt;dir_cf63c3ddb21c79ef735682489f4c6a69</title>
<path fill="none" stroke="black" d="M447.27,-374.78C478.59,-370.6 528.63,-358.57 552,-324 580.88,-281.29 555.99,-259.4 552,-208 549.77,-179.3 560.27,-166.25 542,-144 516.98,-113.54 472.84,-100.58 439.82,-95.08"/>
<polygon fill="black" stroke="black" points="439.93,-91.55 429.53,-93.54 438.9,-98.48 439.93,-91.55"/>
<g id="a_edge19&#45;headlabel"><a xlink:href="dir_000190_000279.html" target="_top" xlink:title="10">
<text text-anchor="middle" x="443.91" y="-86.78" font-family="Helvetica,sans-Serif" font-size="10.00">10</text>
</a>
</g>
</g>
<!-- dir_55f54e45ee9e4c252d1e6d439b2b580d -->
<g id="node6" class="node">
<title>dir_55f54e45ee9e4c252d1e6d439b2b580d</title>
<g id="a_node6"><a xlink:href="dir_55f54e45ee9e4c252d1e6d439b2b580d.html" target="_top" xlink:title="TransformOps">
<polygon fill="white" stroke="black" points="510,-468 426,-468 426,-432 510,-432 510,-468"/>
<text text-anchor="middle" x="468" y="-447.5" font-family="Helvetica,sans-Serif" font-size="10.00">TransformOps</text>
</a>
</g>
</g>
<!-- dir_55f54e45ee9e4c252d1e6d439b2b580d&#45;&gt;dir_832fe9af74a05d9f4772b8e442bafd02 -->
<g id="edge9" class="edge">
<title>dir_55f54e45ee9e4c252d1e6d439b2b580d&#45;&gt;dir_832fe9af74a05d9f4772b8e442bafd02</title>
<path fill="none" stroke="black" d="M425.76,-434.43C399.25,-425.07 364.19,-412.29 329.04,-398.02"/>
<polygon fill="black" stroke="black" points="330.2,-394.71 319.62,-394.16 327.55,-401.19 330.2,-394.71"/>
<g id="a_edge9&#45;headlabel"><a xlink:href="dir_000230_000033.html" target="_top" xlink:title="2">
<text text-anchor="middle" x="334.61" y="-390.95" font-family="Helvetica,sans-Serif" font-size="10.00">2</text>
</a>
</g>
</g>
<!-- dir_55f54e45ee9e4c252d1e6d439b2b580d&#45;&gt;dir_51020c1b0909ae629a35fe1c65c620b9 -->
<g id="edge8" class="edge">
<title>dir_55f54e45ee9e4c252d1e6d439b2b580d&#45;&gt;dir_51020c1b0909ae629a35fe1c65c620b9</title>
<path fill="none" stroke="black" d="M425.82,-434.51C422.84,-433.62 419.88,-432.77 417,-432 340.31,-411.41 298.46,-451.83 242,-396 206.33,-360.73 203.11,-298.24 204.61,-262.36"/>
<polygon fill="black" stroke="black" points="208.12,-262.33 205.2,-252.14 201.13,-261.93 208.12,-262.33"/>
<g id="a_edge8&#45;headlabel"><a xlink:href="dir_000230_000050.html" target="_top" xlink:title="1">
<text text-anchor="middle" x="210.75" y="-263.58" font-family="Helvetica,sans-Serif" font-size="10.00">1</text>
</a>
</g>
</g>
<!-- dir_55f54e45ee9e4c252d1e6d439b2b580d&#45;&gt;dir_84ef7c054b4edc3447cfba80cee80f65 -->
<g id="edge10" class="edge">
<title>dir_55f54e45ee9e4c252d1e6d439b2b580d&#45;&gt;dir_84ef7c054b4edc3447cfba80cee80f65</title>
<path fill="none" stroke="black" d="M425.84,-434.42C422.86,-433.55 419.9,-432.73 417,-432 327.75,-409.38 282.33,-456.58 213,-396 148.22,-339.4 120.43,-280.32 167,-208 180.65,-186.8 207,-175.47 229.09,-169.49"/>
<polygon fill="black" stroke="black" points="229.99,-172.87 238.87,-167.1 228.33,-166.07 229.99,-172.87"/>
<g id="a_edge10&#45;headlabel"><a xlink:href="dir_000230_000046.html" target="_top" xlink:title="1">
<text text-anchor="middle" x="227.17" y="-173.98" font-family="Helvetica,sans-Serif" font-size="10.00">1</text>
</a>
</g>
</g>
<!-- dir_1b42b1bbc06eb430eb98b59af3e5b9c5 -->
<g id="node7" class="node">
<title>dir_1b42b1bbc06eb430eb98b59af3e5b9c5</title>
<g id="a_node7"><a xlink:href="dir_1b42b1bbc06eb430eb98b59af3e5b9c5.html" target="_top" xlink:title="Transforms">
<polygon fill="white" stroke="black" points="407.5,-468 336.5,-468 336.5,-432 407.5,-432 407.5,-468"/>
<text text-anchor="middle" x="372" y="-447.5" font-family="Helvetica,sans-Serif" font-size="10.00">Transforms</text>
</a>
</g>
</g>
<!-- dir_1b42b1bbc06eb430eb98b59af3e5b9c5&#45;&gt;dir_cab9f8330899b1cc9d753b1d9c5c5a3e -->
<g id="edge21" class="edge">
<title>dir_1b42b1bbc06eb430eb98b59af3e5b9c5&#45;&gt;dir_cab9f8330899b1cc9d753b1d9c5c5a3e</title>
<path fill="none" stroke="black" d="M336.39,-447.97C264.41,-445.1 105.46,-434.45 70,-396 36.71,-359.91 41.91,-297.98 48.54,-262.37"/>
<polygon fill="black" stroke="black" points="52.04,-262.71 50.6,-252.22 45.18,-261.32 52.04,-262.71"/>
<g id="a_edge21&#45;headlabel"><a xlink:href="dir_000130_000053.html" target="_top" xlink:title="1">
<text text-anchor="middle" x="54.11" y="-264.3" font-family="Helvetica,sans-Serif" font-size="10.00">1</text>
</a>
</g>
</g>
<!-- dir_1b42b1bbc06eb430eb98b59af3e5b9c5&#45;&gt;dir_f61d47671007dfdb592580b61f960d39 -->
<g id="edge22" class="edge">
<title>dir_1b42b1bbc06eb430eb98b59af3e5b9c5&#45;&gt;dir_f61d47671007dfdb592580b61f960d39</title>
<path fill="none" stroke="black" d="M336.33,-447.25C261.43,-442.94 90.95,-429.62 45,-396 9.23,-369.83 0,-351.32 0,-307 0,-307 0,-307 0,-161 0,-79.43 110.66,-41.23 170.16,-26.59"/>
<polygon fill="black" stroke="black" points="171.01,-29.98 179.94,-24.28 169.4,-23.17 171.01,-29.98"/>
<g id="a_edge22&#45;headlabel"><a xlink:href="dir_000130_000288.html" target="_top" xlink:title="1">
<text text-anchor="middle" x="168.16" y="-31.07" font-family="Helvetica,sans-Serif" font-size="10.00">1</text>
</a>
</g>
</g>
<!-- dir_7bba808f6a00ce56eafd623e044b55a1 -->
<g id="node8" class="node">
<title>dir_7bba808f6a00ce56eafd623e044b55a1</title>
<g id="a_node8"><a xlink:href="dir_7bba808f6a00ce56eafd623e044b55a1.html" target="_top" xlink:title="Utils">
<polygon fill="white" stroke="black" points="582,-468 528,-468 528,-432 582,-432 582,-468"/>
<text text-anchor="middle" x="555" y="-447.5" font-family="Helvetica,sans-Serif" font-size="10.00">Utils</text>
</a>
</g>
</g>
<!-- dir_7bba808f6a00ce56eafd623e044b55a1&#45;&gt;dir_a34132bbb3c1b54534a42e122402746d -->
<g id="edge23" class="edge">
<title>dir_7bba808f6a00ce56eafd623e044b55a1&#45;&gt;dir_a34132bbb3c1b54534a42e122402746d</title>
<path fill="none" stroke="black" d="M527.68,-434.83C507.1,-424.16 478.67,-409.42 456.19,-397.77"/>
<polygon fill="black" stroke="black" points="457.77,-394.64 447.28,-393.14 454.55,-400.85 457.77,-394.64"/>
<g id="a_edge23&#45;headlabel"><a xlink:href="dir_000231_000190.html" target="_top" xlink:title="1">
<text text-anchor="middle" x="462.27" y="-391.27" font-family="Helvetica,sans-Serif" font-size="10.00">1</text>
</a>
</g>
</g>
<!-- dir_51020c1b0909ae629a35fe1c65c620b9&#45;&gt;dir_84ef7c054b4edc3447cfba80cee80f65 -->
<g id="edge14" class="edge">
<title>dir_51020c1b0909ae629a35fe1c65c620b9&#45;&gt;dir_84ef7c054b4edc3447cfba80cee80f65</title>
<path fill="none" stroke="black" d="M215.67,-215.7C221.94,-207.22 230.48,-196.86 238.8,-187.58"/>
<polygon fill="black" stroke="black" points="241.49,-189.83 245.69,-180.1 236.34,-185.09 241.49,-189.83"/>
<g id="a_edge14&#45;headlabel"><a xlink:href="dir_000050_000046.html" target="_top" xlink:title="9">
<text text-anchor="middle" x="241.14" y="-191.9" font-family="Helvetica,sans-Serif" font-size="10.00">9</text>
</a>
</g>
</g>
<!-- dir_51020c1b0909ae629a35fe1c65c620b9&#45;&gt;dir_f61d47671007dfdb592580b61f960d39 -->
<g id="edge15" class="edge">
<title>dir_51020c1b0909ae629a35fe1c65c620b9&#45;&gt;dir_f61d47671007dfdb592580b61f960d39</title>
<path fill="none" stroke="black" d="M207,-215.85C207,-178.83 207,-91.18 207,-46.39"/>
<polygon fill="black" stroke="black" points="210.5,-46.23 207,-36.23 203.5,-46.23 210.5,-46.23"/>
<g id="a_edge15&#45;headlabel"><a xlink:href="dir_000050_000288.html" target="_top" xlink:title="2">
<text text-anchor="middle" x="213.34" y="-47.33" font-family="Helvetica,sans-Serif" font-size="10.00">2</text>
</a>
</g>
</g>
<!-- dir_84ef7c054b4edc3447cfba80cee80f65&#45;&gt;dir_51020c1b0909ae629a35fe1c65c620b9 -->
<g id="edge1" class="edge">
<title>dir_84ef7c054b4edc3447cfba80cee80f65&#45;&gt;dir_51020c1b0909ae629a35fe1c65c620b9</title>
<path fill="none" stroke="black" d="M257.48,-180.1C251.24,-188.55 242.72,-198.9 234.39,-208.2"/>
<polygon fill="black" stroke="black" points="231.69,-205.97 227.5,-215.7 236.84,-210.7 231.69,-205.97"/>
<g id="a_edge1&#45;headlabel"><a xlink:href="dir_000046_000050.html" target="_top" xlink:title="2">
<text text-anchor="middle" x="232.03" y="-198.9" font-family="Helvetica,sans-Serif" font-size="10.00">2</text>
</a>
</g>
</g>
<!-- dir_84ef7c054b4edc3447cfba80cee80f65&#45;&gt;dir_cf63c3ddb21c79ef735682489f4c6a69 -->
<g id="edge2" class="edge">
<title>dir_84ef7c054b4edc3447cfba80cee80f65&#45;&gt;dir_cf63c3ddb21c79ef735682489f4c6a69</title>
<path fill="none" stroke="black" d="M292.15,-143.88C310.13,-133.7 334.28,-120.76 354.91,-110.23"/>
<polygon fill="black" stroke="black" points="356.76,-113.22 364.11,-105.58 353.6,-106.97 356.76,-113.22"/>
<g id="a_edge2&#45;headlabel"><a xlink:href="dir_000046_000279.html" target="_top" xlink:title="3">
<text text-anchor="middle" x="354.84" y="-114.87" font-family="Helvetica,sans-Serif" font-size="10.00">3</text>
</a>
</g>
</g>
<!-- dir_84ef7c054b4edc3447cfba80cee80f65&#45;&gt;dir_f61d47671007dfdb592580b61f960d39 -->
<g id="edge3" class="edge">
<title>dir_84ef7c054b4edc3447cfba80cee80f65&#45;&gt;dir_f61d47671007dfdb592580b61f960d39</title>
<path fill="none" stroke="black" d="M258.88,-143.87C248.74,-119.46 230.03,-74.43 218.07,-45.64"/>
<polygon fill="black" stroke="black" points="221.21,-44.08 214.14,-36.19 214.75,-46.77 221.21,-44.08"/>
<g id="a_edge3&#45;headlabel"><a xlink:href="dir_000046_000288.html" target="_top" xlink:title="23">
<text text-anchor="middle" x="225.21" y="-43.81" font-family="Helvetica,sans-Serif" font-size="10.00">23</text>
</a>
</g>
</g>
<!-- dir_cf63c3ddb21c79ef735682489f4c6a69&#45;&gt;dir_e4893b20171f621ff7a85b39656091a7 -->
<g id="edge25" class="edge">
<title>dir_cf63c3ddb21c79ef735682489f4c6a69&#45;&gt;dir_e4893b20171f621ff7a85b39656091a7</title>
<path fill="none" stroke="black" d="M403.45,-108.17C411.65,-130.73 425.63,-171.76 433,-208 437.73,-231.24 440.27,-258.08 441.61,-277.63"/>
<polygon fill="black" stroke="black" points="438.12,-277.91 442.24,-287.67 445.11,-277.48 438.12,-277.91"/>
<g id="a_edge25&#45;headlabel"><a xlink:href="dir_000279_000272.html" target="_top" xlink:title="2">
<text text-anchor="middle" x="435.07" y="-272" font-family="Helvetica,sans-Serif" font-size="10.00">2</text>
</a>
</g>
</g>
<!-- dir_cf63c3ddb21c79ef735682489f4c6a69&#45;&gt;dir_84ef7c054b4edc3447cfba80cee80f65 -->
<g id="edge24" class="edge">
<title>dir_cf63c3ddb21c79ef735682489f4c6a69&#45;&gt;dir_84ef7c054b4edc3447cfba80cee80f65</title>
<path fill="none" stroke="black" d="M371.06,-108C351.3,-119.2 324,-133.77 302.13,-144.79"/>
<polygon fill="black" stroke="black" points="300.51,-141.69 293.12,-149.28 303.63,-147.96 300.51,-141.69"/>
<g id="a_edge24&#45;headlabel"><a xlink:href="dir_000279_000046.html" target="_top" xlink:title="54">
<text text-anchor="middle" x="302.46" y="-135.05" font-family="Helvetica,sans-Serif" font-size="10.00">54</text>
</a>
</g>
</g>
<!-- dir_cf63c3ddb21c79ef735682489f4c6a69&#45;&gt;dir_f61d47671007dfdb592580b61f960d39 -->
<g id="edge26" class="edge">
<title>dir_cf63c3ddb21c79ef735682489f4c6a69&#45;&gt;dir_f61d47671007dfdb592580b61f960d39</title>
<path fill="none" stroke="black" d="M364.34,-76.97C330.83,-64.62 278.79,-45.45 243.84,-32.57"/>
<polygon fill="black" stroke="black" points="244.61,-29.13 234.02,-28.95 242.19,-35.7 244.61,-29.13"/>
<g id="a_edge26&#45;headlabel"><a xlink:href="dir_000279_000288.html" target="_top" xlink:title="2">
<text text-anchor="middle" x="248.97" y="-25.21" font-family="Helvetica,sans-Serif" font-size="10.00">2</text>
</a>
</g>
</g>
<!-- dir_cab9f8330899b1cc9d753b1d9c5c5a3e&#45;&gt;dir_84ef7c054b4edc3447cfba80cee80f65 -->
<g id="edge32" class="edge">
<title>dir_cab9f8330899b1cc9d753b1d9c5c5a3e&#45;&gt;dir_84ef7c054b4edc3447cfba80cee80f65</title>
<path fill="none" stroke="black" d="M80.42,-215.95C85.45,-213.03 90.79,-210.22 96,-208 139.96,-189.25 193.73,-176.6 228.87,-169.61"/>
<polygon fill="black" stroke="black" points="229.55,-173.04 238.7,-167.7 228.22,-166.17 229.55,-173.04"/>
<g id="a_edge32&#45;headlabel"><a xlink:href="dir_000053_000046.html" target="_top" xlink:title="4">
<text text-anchor="middle" x="226.56" y="-174.01" font-family="Helvetica,sans-Serif" font-size="10.00">4</text>
</a>
</g>
</g>
<!-- dir_cab9f8330899b1cc9d753b1d9c5c5a3e&#45;&gt;dir_f61d47671007dfdb592580b61f960d39 -->
<g id="edge33" class="edge">
<title>dir_cab9f8330899b1cc9d753b1d9c5c5a3e&#45;&gt;dir_f61d47671007dfdb592580b61f960d39</title>
<path fill="none" stroke="black" d="M60.29,-215.93C70.58,-184.73 95.71,-117.5 134,-72 144.4,-59.63 158.28,-48.63 171.14,-39.89"/>
<polygon fill="black" stroke="black" points="173.37,-42.62 179.83,-34.22 169.54,-36.76 173.37,-42.62"/>
<g id="a_edge33&#45;headlabel"><a xlink:href="dir_000053_000288.html" target="_top" xlink:title="6">
<text text-anchor="middle" x="171.91" y="-44.46" font-family="Helvetica,sans-Serif" font-size="10.00">6</text>
</a>
</g>
</g>
</g>
</svg>
