<?xml version="1.0" encoding="UTF-8" standalone="no"?>
<!DOCTYPE svg PUBLIC "-//W3C//DTD SVG 1.1//EN"
 "http://www.w3.org/Graphics/SVG/1.1/DTD/svg11.dtd">
<!-- Generated by graphviz version 2.43.0 (0)
 -->
<!-- Title: include/mlir/Dialect/Transform Pages: 1 -->
<svg width="1053pt" height="519pt"
 viewBox="0.00 0.00 1053.12 519.00" xmlns="http://www.w3.org/2000/svg" xmlns:xlink="http://www.w3.org/1999/xlink">
<g id="graph0" class="graph" transform="scale(1 1) rotate(0) translate(4 515)">
<title>include/mlir/Dialect/Transform</title>
<g id="clust1" class="cluster">
<title>clusterdir_d07a6fac82475a065a3b2953573f00a0</title>
<g id="a_clust1"><a xlink:href="dir_d07a6fac82475a065a3b2953573f00a0.html" target="_top" xlink:title="Dialect">
<polygon fill="#ddddee" stroke="black" points="112,-200 112,-503 727,-503 727,-200 112,-200"/>
<text text-anchor="middle" x="419.5" y="-491" font-family="Helvetica,sans-Serif" font-size="10.00">Dialect</text>
</a>
</g>
</g>
<g id="clust2" class="cluster">
<title>clusterdir_832fe9af74a05d9f4772b8e442bafd02</title>
<g id="a_clust2"><a xlink:href="dir_832fe9af74a05d9f4772b8e442bafd02.html" target="_top">
<polygon fill="#eeeeff" stroke="black" points="120,-208 120,-476 719,-476 719,-208 120,-208"/>
</a>
</g>
</g>
<!-- dir_832fe9af74a05d9f4772b8e442bafd02 -->
<g id="node1" class="node">
<title>dir_832fe9af74a05d9f4772b8e442bafd02</title>
<text text-anchor="middle" x="678" y="-447.5" font-family="Helvetica,sans-Serif" font-size="10.00">Transform</text>
</g>
<!-- dir_cf54375b211645f8e947d4bdcbe5e2f0 -->
<g id="node2" class="node">
<title>dir_cf54375b211645f8e947d4bdcbe5e2f0</title>
<g id="a_node2"><a xlink:href="dir_cf54375b211645f8e947d4bdcbe5e2f0.html" target="_top" xlink:title="DebugExtension">
<polygon fill="white" stroke="black" points="627,-468 531,-468 531,-432 627,-432 627,-468"/>
<text text-anchor="middle" x="579" y="-447.5" font-family="Helvetica,sans-Serif" font-size="10.00">DebugExtension</text>
</a>
</g>
</g>
<!-- dir_3fcea5679c56f279a8c81b2ba929f91c -->
<g id="node3" class="node">
<title>dir_3fcea5679c56f279a8c81b2ba929f91c</title>
<g id="a_node3"><a xlink:href="dir_3fcea5679c56f279a8c81b2ba929f91c.html" target="_top" xlink:title="Interfaces">
<polygon fill="white" stroke="black" points="470.5,-324 405.5,-324 405.5,-288 470.5,-288 470.5,-324"/>
<text text-anchor="middle" x="438" y="-303.5" font-family="Helvetica,sans-Serif" font-size="10.00">Interfaces</text>
</a>
</g>
</g>
<!-- dir_cf54375b211645f8e947d4bdcbe5e2f0&#45;&gt;dir_3fcea5679c56f279a8c81b2ba929f91c -->
<g id="edge1" class="edge">
<title>dir_cf54375b211645f8e947d4bdcbe5e2f0&#45;&gt;dir_3fcea5679c56f279a8c81b2ba929f91c</title>
<path fill="none" stroke="black" d="M530.98,-435.25C509.49,-426.95 485.37,-414.35 469,-396 464.69,-391.17 453.85,-358.25 446.2,-333.85"/>
<polygon fill="black" stroke="black" points="449.46,-332.53 443.15,-324.02 442.78,-334.61 449.46,-332.53"/>
<g id="a_edge1&#45;headlabel"><a xlink:href="dir_000264_000265.html" target="_top" xlink:title="2">
<text text-anchor="middle" x="453.24" y="-332.62" font-family="Helvetica,sans-Serif" font-size="10.00">2</text>
</a>
</g>
</g>
<!-- dir_ea43e1e7e14805f092bc6e97f7b8cf52 -->
<g id="node4" class="node">
<title>dir_ea43e1e7e14805f092bc6e97f7b8cf52</title>
<g id="a_node4"><a xlink:href="dir_ea43e1e7e14805f092bc6e97f7b8cf52.html" target="_top" xlink:title="IR">
<polygon fill="white" stroke="black" points="399,-396 345,-396 345,-360 399,-360 399,-396"/>
<text text-anchor="middle" x="372" y="-375.5" font-family="Helvetica,sans-Serif" font-size="10.00">IR</text>
</a>
</g>
</g>
<!-- dir_cf54375b211645f8e947d4bdcbe5e2f0&#45;&gt;dir_ea43e1e7e14805f092bc6e97f7b8cf52 -->
<g id="edge5" class="edge">
<title>dir_cf54375b211645f8e947d4bdcbe5e2f0&#45;&gt;dir_ea43e1e7e14805f092bc6e97f7b8cf52</title>
<path fill="none" stroke="black" d="M530.99,-432.76C493.7,-420.16 442.78,-402.93 408.71,-391.41"/>
<polygon fill="black" stroke="black" points="409.74,-388.07 399.14,-388.18 407.49,-394.7 409.74,-388.07"/>
<g id="a_edge5&#45;headlabel"><a xlink:href="dir_000264_000034.html" target="_top" xlink:title="1">
<text text-anchor="middle" x="414.05" y="-384.03" font-family="Helvetica,sans-Serif" font-size="10.00">1</text>
</a>
</g>
</g>
<!-- dir_51020c1b0909ae629a35fe1c65c620b9 -->
<g id="node11" class="node">
<title>dir_51020c1b0909ae629a35fe1c65c620b9</title>
<g id="a_node11"><a xlink:href="dir_51020c1b0909ae629a35fe1c65c620b9.html" target="_top" xlink:title="Bytecode">
<polygon fill="none" stroke="black" points="104,-324 42,-324 42,-288 104,-288 104,-324"/>
<text text-anchor="middle" x="73" y="-303.5" font-family="Helvetica,sans-Serif" font-size="10.00">Bytecode</text>
</a>
</g>
</g>
<!-- dir_cf54375b211645f8e947d4bdcbe5e2f0&#45;&gt;dir_51020c1b0909ae629a35fe1c65c620b9 -->
<g id="edge2" class="edge">
<title>dir_cf54375b211645f8e947d4bdcbe5e2f0&#45;&gt;dir_51020c1b0909ae629a35fe1c65c620b9</title>
<path fill="none" stroke="black" d="M530.89,-434.29C527.89,-433.48 524.91,-432.71 522,-432 440.22,-411.94 417.5,-417.14 336,-396 311.1,-389.54 140.19,-332.73 116,-324 115.29,-323.74 114.58,-323.48 113.86,-323.22"/>
<polygon fill="black" stroke="black" points="114.98,-319.9 104.39,-319.66 112.52,-326.46 114.98,-319.9"/>
<g id="a_edge2&#45;headlabel"><a xlink:href="dir_000264_000050.html" target="_top" xlink:title="1">
<text text-anchor="middle" x="119.34" y="-316.01" font-family="Helvetica,sans-Serif" font-size="10.00">1</text>
</a>
</g>
</g>
<!-- dir_84ef7c054b4edc3447cfba80cee80f65 -->
<g id="node12" class="node">
<title>dir_84ef7c054b4edc3447cfba80cee80f65</title>
<g id="a_node12"><a xlink:href="dir_84ef7c054b4edc3447cfba80cee80f65.html" target="_top" xlink:title="IR">
<polygon fill="none" stroke="black" points="620,-180 566,-180 566,-144 620,-144 620,-180"/>
<text text-anchor="middle" x="593" y="-159.5" font-family="Helvetica,sans-Serif" font-size="10.00">IR</text>
</a>
</g>
</g>
<!-- dir_cf54375b211645f8e947d4bdcbe5e2f0&#45;&gt;dir_84ef7c054b4edc3447cfba80cee80f65 -->
<g id="edge3" class="edge">
<title>dir_cf54375b211645f8e947d4bdcbe5e2f0&#45;&gt;dir_84ef7c054b4edc3447cfba80cee80f65</title>
<path fill="none" stroke="black" d="M623.36,-431.89C648.37,-421.24 675.99,-407.45 683,-396 728.51,-321.72 731.49,-272.37 683,-200 681.33,-197.51 653.77,-186.38 629.59,-176.97"/>
<polygon fill="black" stroke="black" points="630.79,-173.68 620.2,-173.34 628.26,-180.21 630.79,-173.68"/>
<g id="a_edge3&#45;headlabel"><a xlink:href="dir_000264_000046.html" target="_top" xlink:title="2">
<text text-anchor="middle" x="635.17" y="-169.83" font-family="Helvetica,sans-Serif" font-size="10.00">2</text>
</a>
</g>
</g>
<!-- dir_cf63c3ddb21c79ef735682489f4c6a69 -->
<g id="node14" class="node">
<title>dir_cf63c3ddb21c79ef735682489f4c6a69</title>
<g id="a_node14"><a xlink:href="dir_cf63c3ddb21c79ef735682489f4c6a69.html" target="_top" xlink:title="Interfaces">
<polygon fill="none" stroke="red" points="948.5,-108 883.5,-108 883.5,-72 948.5,-72 948.5,-108"/>
<text text-anchor="middle" x="916" y="-87.5" font-family="Helvetica,sans-Serif" font-size="10.00">Interfaces</text>
</a>
</g>
</g>
<!-- dir_cf54375b211645f8e947d4bdcbe5e2f0&#45;&gt;dir_cf63c3ddb21c79ef735682489f4c6a69 -->
<g id="edge4" class="edge">
<title>dir_cf54375b211645f8e947d4bdcbe5e2f0&#45;&gt;dir_cf63c3ddb21c79ef735682489f4c6a69</title>
<path fill="none" stroke="black" d="M627.1,-434.86C630.45,-433.89 633.77,-432.93 637,-432 819.29,-379.65 1045,-496.65 1045,-307 1045,-307 1045,-307 1045,-233 1045,-192.03 1046.87,-175.77 1021,-144 1005.01,-124.36 979.87,-111.32 958.2,-103.08"/>
<polygon fill="black" stroke="black" points="959.13,-99.69 948.54,-99.63 956.78,-106.29 959.13,-99.69"/>
<g id="a_edge4&#45;headlabel"><a xlink:href="dir_000264_000279.html" target="_top" xlink:title="1">
<text text-anchor="middle" x="963.47" y="-95.73" font-family="Helvetica,sans-Serif" font-size="10.00">1</text>
</a>
</g>
</g>
<!-- dir_1eaf8c35e65d819e073aecac4557fa0f -->
<g id="node10" class="node">
<title>dir_1eaf8c35e65d819e073aecac4557fa0f</title>
<g id="a_node10"><a xlink:href="dir_1eaf8c35e65d819e073aecac4557fa0f.html" target="_top" xlink:title="Utils">
<polygon fill="white" stroke="black" points="413,-252 359,-252 359,-216 413,-216 413,-252"/>
<text text-anchor="middle" x="386" y="-231.5" font-family="Helvetica,sans-Serif" font-size="10.00">Utils</text>
</a>
</g>
</g>
<!-- dir_3fcea5679c56f279a8c81b2ba929f91c&#45;&gt;dir_1eaf8c35e65d819e073aecac4557fa0f -->
<g id="edge47" class="edge">
<title>dir_3fcea5679c56f279a8c81b2ba929f91c&#45;&gt;dir_1eaf8c35e65d819e073aecac4557fa0f</title>
<path fill="none" stroke="black" d="M425.15,-287.7C418.97,-279.39 411.46,-269.28 404.68,-260.14"/>
<polygon fill="black" stroke="black" points="407.48,-258.04 398.71,-252.1 401.86,-262.22 407.48,-258.04"/>
<g id="a_edge47&#45;headlabel"><a xlink:href="dir_000265_000035.html" target="_top" xlink:title="2">
<text text-anchor="middle" x="411.9" y="-256.74" font-family="Helvetica,sans-Serif" font-size="10.00">2</text>
</a>
</g>
</g>
<!-- dir_3fcea5679c56f279a8c81b2ba929f91c&#45;&gt;dir_84ef7c054b4edc3447cfba80cee80f65 -->
<g id="edge48" class="edge">
<title>dir_3fcea5679c56f279a8c81b2ba929f91c&#45;&gt;dir_84ef7c054b4edc3447cfba80cee80f65</title>
<path fill="none" stroke="black" d="M444.64,-287.8C454.29,-264.88 474.22,-224.4 503,-200 518.19,-187.12 538.47,-178.26 555.93,-172.44"/>
<polygon fill="black" stroke="black" points="557.32,-175.68 565.83,-169.37 555.24,-168.99 557.32,-175.68"/>
<g id="a_edge48&#45;headlabel"><a xlink:href="dir_000265_000046.html" target="_top" xlink:title="3">
<text text-anchor="middle" x="554.73" y="-176.96" font-family="Helvetica,sans-Serif" font-size="10.00">3</text>
</a>
</g>
</g>
<!-- dir_ca4d1f3bc4cd42ba07a57ca86d19a1d6 -->
<g id="node13" class="node">
<title>dir_ca4d1f3bc4cd42ba07a57ca86d19a1d6</title>
<g id="a_node13"><a xlink:href="dir_ca4d1f3bc4cd42ba07a57ca86d19a1d6.html" target="_top" xlink:title="Transforms">
<polygon fill="none" stroke="black" points="852.5,-324 781.5,-324 781.5,-288 852.5,-288 852.5,-324"/>
<text text-anchor="middle" x="817" y="-303.5" font-family="Helvetica,sans-Serif" font-size="10.00">Transforms</text>
</a>
</g>
</g>
<!-- dir_3fcea5679c56f279a8c81b2ba929f91c&#45;&gt;dir_ca4d1f3bc4cd42ba07a57ca86d19a1d6 -->
<g id="edge49" class="edge">
<title>dir_3fcea5679c56f279a8c81b2ba929f91c&#45;&gt;dir_ca4d1f3bc4cd42ba07a57ca86d19a1d6</title>
<path fill="none" stroke="black" d="M470.57,-306C570.87,-306 671.16,-306 771.46,-306"/>
<polygon fill="black" stroke="black" points="771.48,-309.5 781.48,-306 771.48,-302.5 771.48,-309.5"/>
<g id="a_edge49&#45;headlabel"><a xlink:href="dir_000265_000156.html" target="_top" xlink:title="1">
<text text-anchor="middle" x="767.88" y="-309.84" font-family="Helvetica,sans-Serif" font-size="10.00">1</text>
</a>
</g>
</g>
<!-- dir_3fcea5679c56f279a8c81b2ba929f91c&#45;&gt;dir_cf63c3ddb21c79ef735682489f4c6a69 -->
<g id="edge50" class="edge">
<title>dir_3fcea5679c56f279a8c81b2ba929f91c&#45;&gt;dir_cf63c3ddb21c79ef735682489f4c6a69</title>
<path fill="none" stroke="black" d="M437.26,-287.66C437.18,-265.32 440.09,-226.24 459,-200 488.33,-159.3 509.59,-160.39 557,-144 666.65,-106.09 804.31,-95.3 872.95,-92.22"/>
<polygon fill="black" stroke="black" points="873.51,-95.7 883.35,-91.79 873.22,-88.71 873.51,-95.7"/>
<g id="a_edge50&#45;headlabel"><a xlink:href="dir_000265_000279.html" target="_top" xlink:title="1">
<text text-anchor="middle" x="870.03" y="-96.19" font-family="Helvetica,sans-Serif" font-size="10.00">1</text>
</a>
</g>
</g>
<!-- dir_ea43e1e7e14805f092bc6e97f7b8cf52&#45;&gt;dir_3fcea5679c56f279a8c81b2ba929f91c -->
<g id="edge37" class="edge">
<title>dir_ea43e1e7e14805f092bc6e97f7b8cf52&#45;&gt;dir_3fcea5679c56f279a8c81b2ba929f91c</title>
<path fill="none" stroke="black" d="M388.31,-359.7C396.31,-351.22 406.07,-340.86 414.82,-331.58"/>
<polygon fill="black" stroke="black" points="417.56,-333.78 421.87,-324.1 412.47,-328.98 417.56,-333.78"/>
<g id="a_edge37&#45;headlabel"><a xlink:href="dir_000034_000265.html" target="_top" xlink:title="3">
<text text-anchor="middle" x="417.16" y="-335.84" font-family="Helvetica,sans-Serif" font-size="10.00">3</text>
</a>
</g>
</g>
<!-- dir_ea43e1e7e14805f092bc6e97f7b8cf52&#45;&gt;dir_1eaf8c35e65d819e073aecac4557fa0f -->
<g id="edge36" class="edge">
<title>dir_ea43e1e7e14805f092bc6e97f7b8cf52&#45;&gt;dir_1eaf8c35e65d819e073aecac4557fa0f</title>
<path fill="none" stroke="black" d="M373.69,-359.87C376.07,-335.67 380.46,-291.21 383.3,-262.39"/>
<polygon fill="black" stroke="black" points="386.81,-262.48 384.31,-252.19 379.84,-261.8 386.81,-262.48"/>
<g id="a_edge36&#45;headlabel"><a xlink:href="dir_000034_000035.html" target="_top" xlink:title="1">
<text text-anchor="middle" x="389.28" y="-263.84" font-family="Helvetica,sans-Serif" font-size="10.00">1</text>
</a>
</g>
</g>
<!-- dir_ea43e1e7e14805f092bc6e97f7b8cf52&#45;&gt;dir_51020c1b0909ae629a35fe1c65c620b9 -->
<g id="edge38" class="edge">
<title>dir_ea43e1e7e14805f092bc6e97f7b8cf52&#45;&gt;dir_51020c1b0909ae629a35fe1c65c620b9</title>
<path fill="none" stroke="black" d="M344.73,-371.97C287.99,-361.41 158.94,-336.83 116,-324 115.28,-323.78 114.55,-323.56 113.82,-323.33"/>
<polygon fill="black" stroke="black" points="114.84,-319.98 104.25,-320.08 112.59,-326.61 114.84,-319.98"/>
<g id="a_edge38&#45;headlabel"><a xlink:href="dir_000034_000050.html" target="_top" xlink:title="1">
<text text-anchor="middle" x="119.16" y="-315.95" font-family="Helvetica,sans-Serif" font-size="10.00">1</text>
</a>
</g>
</g>
<!-- dir_ea43e1e7e14805f092bc6e97f7b8cf52&#45;&gt;dir_84ef7c054b4edc3447cfba80cee80f65 -->
<g id="edge39" class="edge">
<title>dir_ea43e1e7e14805f092bc6e97f7b8cf52&#45;&gt;dir_84ef7c054b4edc3447cfba80cee80f65</title>
<path fill="none" stroke="black" d="M399.34,-368.41C422.8,-359.99 456.46,-345.3 480,-324 528.1,-280.47 517.04,-251.1 557,-200 560.23,-195.87 563.86,-191.7 567.55,-187.71"/>
<polygon fill="black" stroke="black" points="570.21,-189.99 574.6,-180.35 565.16,-185.15 570.21,-189.99"/>
<g id="a_edge39&#45;headlabel"><a xlink:href="dir_000034_000046.html" target="_top" xlink:title="9">
<text text-anchor="middle" x="569.77" y="-192.05" font-family="Helvetica,sans-Serif" font-size="10.00">9</text>
</a>
</g>
</g>
<!-- dir_ea43e1e7e14805f092bc6e97f7b8cf52&#45;&gt;dir_cf63c3ddb21c79ef735682489f4c6a69 -->
<g id="edge40" class="edge">
<title>dir_ea43e1e7e14805f092bc6e97f7b8cf52&#45;&gt;dir_cf63c3ddb21c79ef735682489f4c6a69</title>
<path fill="none" stroke="black" d="M399.09,-371.64C418.49,-367.95 445.27,-363.16 469,-360 555.93,-348.42 790.72,-375.1 862,-324 926.93,-277.46 924.76,-169.28 919.68,-118.39"/>
<polygon fill="black" stroke="black" points="923.13,-117.71 918.54,-108.16 916.17,-118.49 923.13,-117.71"/>
<g id="a_edge40&#45;headlabel"><a xlink:href="dir_000034_000279.html" target="_top" xlink:title="5">
<text text-anchor="middle" x="926.35" y="-118.47" font-family="Helvetica,sans-Serif" font-size="10.00">5</text>
</a>
</g>
</g>
<!-- dir_f61d47671007dfdb592580b61f960d39 -->
<g id="node15" class="node">
<title>dir_f61d47671007dfdb592580b61f960d39</title>
<g id="a_node15"><a xlink:href="dir_f61d47671007dfdb592580b61f960d39.html" target="_top" xlink:title="Support">
<polygon fill="none" stroke="black" points="440,-36 386,-36 386,0 440,0 440,-36"/>
<text text-anchor="middle" x="413" y="-15.5" font-family="Helvetica,sans-Serif" font-size="10.00">Support</text>
</a>
</g>
</g>
<!-- dir_ea43e1e7e14805f092bc6e97f7b8cf52&#45;&gt;dir_f61d47671007dfdb592580b61f960d39 -->
<g id="edge41" class="edge">
<title>dir_ea43e1e7e14805f092bc6e97f7b8cf52&#45;&gt;dir_f61d47671007dfdb592580b61f960d39</title>
<path fill="none" stroke="black" d="M363.7,-359.97C351.72,-333.77 331,-281.7 331,-235 331,-235 331,-235 331,-161 331,-114.88 363.84,-70.26 387.96,-43.72"/>
<polygon fill="black" stroke="black" points="390.52,-46.1 394.8,-36.4 385.41,-41.31 390.52,-46.1"/>
<g id="a_edge41&#45;headlabel"><a xlink:href="dir_000034_000288.html" target="_top" xlink:title="3">
<text text-anchor="middle" x="390.14" y="-48.16" font-family="Helvetica,sans-Serif" font-size="10.00">3</text>
</a>
</g>
</g>
<!-- dir_001e35b183f04fdef4b395bb5573bdce -->
<g id="node5" class="node">
<title>dir_001e35b183f04fdef4b395bb5573bdce</title>
<g id="a_node5"><a xlink:href="dir_001e35b183f04fdef4b395bb5573bdce.html" target="_top" xlink:title="IRDLExtension">
<polygon fill="white" stroke="black" points="304.5,-468 217.5,-468 217.5,-432 304.5,-432 304.5,-468"/>
<text text-anchor="middle" x="261" y="-447.5" font-family="Helvetica,sans-Serif" font-size="10.00">IRDLExtension</text>
</a>
</g>
</g>
<!-- dir_001e35b183f04fdef4b395bb5573bdce&#45;&gt;dir_3fcea5679c56f279a8c81b2ba929f91c -->
<g id="edge16" class="edge">
<title>dir_001e35b183f04fdef4b395bb5573bdce&#45;&gt;dir_3fcea5679c56f279a8c81b2ba929f91c</title>
<path fill="none" stroke="black" d="M274.03,-432C291.53,-409.44 322.04,-371.17 336,-360 354.08,-345.53 376.72,-333.29 396.07,-324.23"/>
<polygon fill="black" stroke="black" points="397.62,-327.37 405.28,-320.05 394.73,-321 397.62,-327.37"/>
<g id="a_edge16&#45;headlabel"><a xlink:href="dir_000266_000265.html" target="_top" xlink:title="1">
<text text-anchor="middle" x="395.53" y="-328.95" font-family="Helvetica,sans-Serif" font-size="10.00">1</text>
</a>
</g>
</g>
<!-- dir_001e35b183f04fdef4b395bb5573bdce&#45;&gt;dir_ea43e1e7e14805f092bc6e97f7b8cf52 -->
<g id="edge19" class="edge">
<title>dir_001e35b183f04fdef4b395bb5573bdce&#45;&gt;dir_ea43e1e7e14805f092bc6e97f7b8cf52</title>
<path fill="none" stroke="black" d="M288.15,-431.88C302.53,-422.81 320.38,-411.55 335.91,-401.76"/>
<polygon fill="black" stroke="black" points="338.15,-404.48 344.74,-396.19 334.42,-398.56 338.15,-404.48"/>
<g id="a_edge19&#45;headlabel"><a xlink:href="dir_000266_000034.html" target="_top" xlink:title="1">
<text text-anchor="middle" x="336.62" y="-406.3" font-family="Helvetica,sans-Serif" font-size="10.00">1</text>
</a>
</g>
</g>
<!-- dir_001e35b183f04fdef4b395bb5573bdce&#45;&gt;dir_51020c1b0909ae629a35fe1c65c620b9 -->
<g id="edge17" class="edge">
<title>dir_001e35b183f04fdef4b395bb5573bdce&#45;&gt;dir_51020c1b0909ae629a35fe1c65c620b9</title>
<path fill="none" stroke="black" d="M217.1,-434.62C169.52,-419.02 100.27,-396.28 100,-396 83.91,-379.53 77.37,-353.79 74.73,-334.23"/>
<polygon fill="black" stroke="black" points="78.19,-333.65 73.63,-324.09 71.23,-334.41 78.19,-333.65"/>
<g id="a_edge17&#45;headlabel"><a xlink:href="dir_000266_000050.html" target="_top" xlink:title="1">
<text text-anchor="middle" x="81.4" y="-334.42" font-family="Helvetica,sans-Serif" font-size="10.00">1</text>
</a>
</g>
</g>
<!-- dir_001e35b183f04fdef4b395bb5573bdce&#45;&gt;dir_84ef7c054b4edc3447cfba80cee80f65 -->
<g id="edge18" class="edge">
<title>dir_001e35b183f04fdef4b395bb5573bdce&#45;&gt;dir_84ef7c054b4edc3447cfba80cee80f65</title>
<path fill="none" stroke="black" d="M304.51,-434.39C307.7,-433.52 310.89,-432.71 314,-432 370.87,-419.04 533.93,-438.39 574,-396 601.38,-367.04 597.93,-245.37 594.84,-190.29"/>
<polygon fill="black" stroke="black" points="598.33,-189.98 594.24,-180.21 591.34,-190.4 598.33,-189.98"/>
<g id="a_edge18&#45;headlabel"><a xlink:href="dir_000266_000046.html" target="_top" xlink:title="1">
<text text-anchor="middle" x="601.38" y="-190.9" font-family="Helvetica,sans-Serif" font-size="10.00">1</text>
</a>
</g>
</g>
<!-- dir_f6ffbc149f2201f1587cf728b254e369 -->
<g id="node6" class="node">
<title>dir_f6ffbc149f2201f1587cf728b254e369</title>
<g id="a_node6"><a xlink:href="dir_f6ffbc149f2201f1587cf728b254e369.html" target="_top" xlink:title="LoopExtension">
<polygon fill="white" stroke="black" points="411,-468 323,-468 323,-432 411,-432 411,-468"/>
<text text-anchor="middle" x="367" y="-447.5" font-family="Helvetica,sans-Serif" font-size="10.00">LoopExtension</text>
</a>
</g>
</g>
<!-- dir_f6ffbc149f2201f1587cf728b254e369&#45;&gt;dir_3fcea5679c56f279a8c81b2ba929f91c -->
<g id="edge42" class="edge">
<title>dir_f6ffbc149f2201f1587cf728b254e369&#45;&gt;dir_3fcea5679c56f279a8c81b2ba929f91c</title>
<path fill="none" stroke="black" d="M382.63,-431.87C391.04,-421.96 401.08,-408.92 408,-396 418.6,-376.2 426.48,-351.95 431.5,-333.76"/>
<polygon fill="black" stroke="black" points="434.88,-334.65 434.05,-324.09 428.11,-332.86 434.88,-334.65"/>
<g id="a_edge42&#45;headlabel"><a xlink:href="dir_000267_000265.html" target="_top" xlink:title="1">
<text text-anchor="middle" x="436.71" y="-336.35" font-family="Helvetica,sans-Serif" font-size="10.00">1</text>
</a>
</g>
</g>
<!-- dir_f6ffbc149f2201f1587cf728b254e369&#45;&gt;dir_ea43e1e7e14805f092bc6e97f7b8cf52 -->
<g id="edge46" class="edge">
<title>dir_f6ffbc149f2201f1587cf728b254e369&#45;&gt;dir_ea43e1e7e14805f092bc6e97f7b8cf52</title>
<path fill="none" stroke="black" d="M368.24,-431.7C368.79,-423.98 369.45,-414.71 370.06,-406.11"/>
<polygon fill="black" stroke="black" points="373.56,-406.33 370.78,-396.1 366.57,-405.83 373.56,-406.33"/>
<g id="a_edge46&#45;headlabel"><a xlink:href="dir_000267_000034.html" target="_top" xlink:title="1">
<text text-anchor="middle" x="376.13" y="-407.62" font-family="Helvetica,sans-Serif" font-size="10.00">1</text>
</a>
</g>
</g>
<!-- dir_f6ffbc149f2201f1587cf728b254e369&#45;&gt;dir_51020c1b0909ae629a35fe1c65c620b9 -->
<g id="edge43" class="edge">
<title>dir_f6ffbc149f2201f1587cf728b254e369&#45;&gt;dir_51020c1b0909ae629a35fe1c65c620b9</title>
<path fill="none" stroke="black" d="M322.8,-434.67C319.82,-433.75 316.87,-432.85 314,-432 256.13,-414.78 236.72,-423.57 183,-396 150.11,-379.12 117.87,-351.32 96.88,-331.28"/>
<polygon fill="black" stroke="black" points="99.29,-328.74 89.68,-324.28 94.41,-333.76 99.29,-328.74"/>
<g id="a_edge43&#45;headlabel"><a xlink:href="dir_000267_000050.html" target="_top" xlink:title="1">
<text text-anchor="middle" x="103.85" y="-326.71" font-family="Helvetica,sans-Serif" font-size="10.00">1</text>
</a>
</g>
</g>
<!-- dir_f6ffbc149f2201f1587cf728b254e369&#45;&gt;dir_84ef7c054b4edc3447cfba80cee80f65 -->
<g id="edge44" class="edge">
<title>dir_f6ffbc149f2201f1587cf728b254e369&#45;&gt;dir_84ef7c054b4edc3447cfba80cee80f65</title>
<path fill="none" stroke="black" d="M411.09,-434.67C414.43,-433.72 417.76,-432.82 421,-432 502.62,-411.32 553.42,-460.95 607,-396 656.12,-336.47 624.4,-236.55 604.94,-189.29"/>
<polygon fill="black" stroke="black" points="608.14,-187.88 601.01,-180.04 601.7,-190.61 608.14,-187.88"/>
<g id="a_edge44&#45;headlabel"><a xlink:href="dir_000267_000046.html" target="_top" xlink:title="2">
<text text-anchor="middle" x="612.16" y="-187.57" font-family="Helvetica,sans-Serif" font-size="10.00">2</text>
</a>
</g>
</g>
<!-- dir_f6ffbc149f2201f1587cf728b254e369&#45;&gt;dir_cf63c3ddb21c79ef735682489f4c6a69 -->
<g id="edge45" class="edge">
<title>dir_f6ffbc149f2201f1587cf728b254e369&#45;&gt;dir_cf63c3ddb21c79ef735682489f4c6a69</title>
<path fill="none" stroke="black" d="M411.08,-434.64C414.42,-433.7 417.76,-432.81 421,-432 629.44,-380.26 724.48,-458.39 892,-324 956.16,-272.53 949.09,-225.04 935,-144 933.48,-135.24 930.64,-126.01 927.61,-117.75"/>
<polygon fill="black" stroke="black" points="930.79,-116.29 923.89,-108.25 924.28,-118.84 930.79,-116.29"/>
<g id="a_edge45&#45;headlabel"><a xlink:href="dir_000267_000279.html" target="_top" xlink:title="2">
<text text-anchor="middle" x="934.75" y="-116.11" font-family="Helvetica,sans-Serif" font-size="10.00">2</text>
</a>
</g>
</g>
<!-- dir_69b4b1db9d39c0eea2da7b8cc7876315 -->
<g id="node7" class="node">
<title>dir_69b4b1db9d39c0eea2da7b8cc7876315</title>
<g id="a_node7"><a xlink:href="dir_69b4b1db9d39c0eea2da7b8cc7876315.html" target="_top" xlink:title="PDLExtension">
<polygon fill="white" stroke="black" points="512.5,-468 429.5,-468 429.5,-432 512.5,-432 512.5,-468"/>
<text text-anchor="middle" x="471" y="-447.5" font-family="Helvetica,sans-Serif" font-size="10.00">PDLExtension</text>
</a>
</g>
</g>
<!-- dir_69b4b1db9d39c0eea2da7b8cc7876315&#45;&gt;dir_3fcea5679c56f279a8c81b2ba929f91c -->
<g id="edge6" class="edge">
<title>dir_69b4b1db9d39c0eea2da7b8cc7876315&#45;&gt;dir_3fcea5679c56f279a8c81b2ba929f91c</title>
<path fill="none" stroke="black" d="M464.28,-431.55C460.54,-421.31 456.04,-408.06 453,-396 447.86,-375.62 443.98,-352.16 441.46,-334.44"/>
<polygon fill="black" stroke="black" points="444.89,-333.67 440.07,-324.23 437.96,-334.61 444.89,-333.67"/>
<g id="a_edge6&#45;headlabel"><a xlink:href="dir_000268_000265.html" target="_top" xlink:title="1">
<text text-anchor="middle" x="448.19" y="-334.34" font-family="Helvetica,sans-Serif" font-size="10.00">1</text>
</a>
</g>
</g>
<!-- dir_69b4b1db9d39c0eea2da7b8cc7876315&#45;&gt;dir_ea43e1e7e14805f092bc6e97f7b8cf52 -->
<g id="edge10" class="edge">
<title>dir_69b4b1db9d39c0eea2da7b8cc7876315&#45;&gt;dir_ea43e1e7e14805f092bc6e97f7b8cf52</title>
<path fill="none" stroke="black" d="M446.78,-431.88C434.08,-422.89 418.34,-411.76 404.58,-402.03"/>
<polygon fill="black" stroke="black" points="406.5,-399.11 396.31,-396.19 402.46,-404.82 406.5,-399.11"/>
<g id="a_edge10&#45;headlabel"><a xlink:href="dir_000268_000034.html" target="_top" xlink:title="1">
<text text-anchor="middle" x="411.07" y="-396.36" font-family="Helvetica,sans-Serif" font-size="10.00">1</text>
</a>
</g>
</g>
<!-- dir_69b4b1db9d39c0eea2da7b8cc7876315&#45;&gt;dir_51020c1b0909ae629a35fe1c65c620b9 -->
<g id="edge7" class="edge">
<title>dir_69b4b1db9d39c0eea2da7b8cc7876315&#45;&gt;dir_51020c1b0909ae629a35fe1c65c620b9</title>
<path fill="none" stroke="black" d="M429.38,-434.67C426.22,-433.72 423.07,-432.82 420,-432 342.45,-411.27 318.64,-422.88 243,-396 229.65,-391.25 158.94,-353.5 113.02,-328.71"/>
<polygon fill="black" stroke="black" points="114.66,-325.61 104.19,-323.94 111.33,-331.77 114.66,-325.61"/>
<g id="a_edge7&#45;headlabel"><a xlink:href="dir_000268_000050.html" target="_top" xlink:title="1">
<text text-anchor="middle" x="119.17" y="-322.33" font-family="Helvetica,sans-Serif" font-size="10.00">1</text>
</a>
</g>
</g>
<!-- dir_69b4b1db9d39c0eea2da7b8cc7876315&#45;&gt;dir_84ef7c054b4edc3447cfba80cee80f65 -->
<g id="edge8" class="edge">
<title>dir_69b4b1db9d39c0eea2da7b8cc7876315&#45;&gt;dir_84ef7c054b4edc3447cfba80cee80f65</title>
<path fill="none" stroke="black" d="M512.71,-434.96C515.85,-433.94 518.97,-432.95 522,-432 576.36,-414.99 610.85,-441.58 645,-396 697.23,-326.29 684.93,-277.42 645,-200 641.21,-192.66 635.23,-186.46 628.64,-181.35"/>
<polygon fill="black" stroke="black" points="630.31,-178.26 620.09,-175.47 626.34,-184.02 630.31,-178.26"/>
<g id="a_edge8&#45;headlabel"><a xlink:href="dir_000268_000046.html" target="_top" xlink:title="3">
<text text-anchor="middle" x="634.88" y="-175.46" font-family="Helvetica,sans-Serif" font-size="10.00">3</text>
</a>
</g>
</g>
<!-- dir_69b4b1db9d39c0eea2da7b8cc7876315&#45;&gt;dir_cf63c3ddb21c79ef735682489f4c6a69 -->
<g id="edge9" class="edge">
<title>dir_69b4b1db9d39c0eea2da7b8cc7876315&#45;&gt;dir_cf63c3ddb21c79ef735682489f4c6a69</title>
<path fill="none" stroke="black" d="M512.53,-434.27C515.71,-433.41 518.89,-432.64 522,-432 614.4,-412.95 866.35,-448.1 945,-396 1039.43,-333.45 1032.35,-245.95 983,-144 977.24,-132.1 967.36,-122.06 956.94,-114.02"/>
<polygon fill="black" stroke="black" points="958.7,-110.98 948.53,-108.02 954.63,-116.68 958.7,-110.98"/>
<g id="a_edge9&#45;headlabel"><a xlink:href="dir_000268_000279.html" target="_top" xlink:title="1">
<text text-anchor="middle" x="963.27" y="-108.26" font-family="Helvetica,sans-Serif" font-size="10.00">1</text>
</a>
</g>
</g>
<!-- dir_59e8b316da56f23ca4fe7a5b19a28252 -->
<g id="node8" class="node">
<title>dir_59e8b316da56f23ca4fe7a5b19a28252</title>
<g id="a_node8"><a xlink:href="dir_59e8b316da56f23ca4fe7a5b19a28252.html" target="_top" xlink:title="Transforms">
<polygon fill="white" stroke="black" points="199.5,-468 128.5,-468 128.5,-432 199.5,-432 199.5,-468"/>
<text text-anchor="middle" x="164" y="-447.5" font-family="Helvetica,sans-Serif" font-size="10.00">Transforms</text>
</a>
</g>
</g>
<!-- dir_59e8b316da56f23ca4fe7a5b19a28252&#45;&gt;dir_3fcea5679c56f279a8c81b2ba929f91c -->
<g id="edge30" class="edge">
<title>dir_59e8b316da56f23ca4fe7a5b19a28252&#45;&gt;dir_3fcea5679c56f279a8c81b2ba929f91c</title>
<path fill="none" stroke="black" d="M187.55,-431.72C214.34,-412.56 259.85,-381.53 302,-360 332.35,-344.5 368.34,-330.66 395.68,-321.01"/>
<polygon fill="black" stroke="black" points="397.04,-324.24 405.33,-317.65 394.73,-317.63 397.04,-324.24"/>
<g id="a_edge30&#45;headlabel"><a xlink:href="dir_000150_000265.html" target="_top" xlink:title="1">
<text text-anchor="middle" x="394.57" y="-325.61" font-family="Helvetica,sans-Serif" font-size="10.00">1</text>
</a>
</g>
</g>
<!-- dir_59e8b316da56f23ca4fe7a5b19a28252&#45;&gt;dir_ea43e1e7e14805f092bc6e97f7b8cf52 -->
<g id="edge32" class="edge">
<title>dir_59e8b316da56f23ca4fe7a5b19a28252&#45;&gt;dir_ea43e1e7e14805f092bc6e97f7b8cf52</title>
<path fill="none" stroke="black" d="M199.81,-435.3C202.91,-434.17 206.01,-433.05 209,-432 252,-416.9 301.89,-400.89 335.04,-390.48"/>
<polygon fill="black" stroke="black" points="336.26,-393.76 344.76,-387.43 334.17,-387.08 336.26,-393.76"/>
<g id="a_edge32&#45;headlabel"><a xlink:href="dir_000150_000034.html" target="_top" xlink:title="2">
<text text-anchor="middle" x="333.68" y="-395.04" font-family="Helvetica,sans-Serif" font-size="10.00">2</text>
</a>
</g>
</g>
<!-- dir_59e8b316da56f23ca4fe7a5b19a28252&#45;&gt;dir_f61d47671007dfdb592580b61f960d39 -->
<g id="edge33" class="edge">
<title>dir_59e8b316da56f23ca4fe7a5b19a28252&#45;&gt;dir_f61d47671007dfdb592580b61f960d39</title>
<path fill="none" stroke="black" d="M128.41,-436.49C80.18,-416.98 0,-374.41 0,-307 0,-307 0,-307 0,-161 0,-81.91 274.26,-37.42 375.79,-23.66"/>
<polygon fill="black" stroke="black" points="376.45,-27.11 385.9,-22.32 375.53,-20.17 376.45,-27.11"/>
<g id="a_edge33&#45;headlabel"><a xlink:href="dir_000150_000288.html" target="_top" xlink:title="1">
<text text-anchor="middle" x="373.26" y="-27.9" font-family="Helvetica,sans-Serif" font-size="10.00">1</text>
</a>
</g>
</g>
<!-- dir_cab9f8330899b1cc9d753b1d9c5c5a3e -->
<g id="node16" class="node">
<title>dir_cab9f8330899b1cc9d753b1d9c5c5a3e</title>
<g id="a_node16"><a xlink:href="dir_cab9f8330899b1cc9d753b1d9c5c5a3e.html" target="_top" xlink:title="Pass">
<polygon fill="none" stroke="black" points="789,-252 735,-252 735,-216 789,-216 789,-252"/>
<text text-anchor="middle" x="762" y="-231.5" font-family="Helvetica,sans-Serif" font-size="10.00">Pass</text>
</a>
</g>
</g>
<!-- dir_59e8b316da56f23ca4fe7a5b19a28252&#45;&gt;dir_cab9f8330899b1cc9d753b1d9c5c5a3e -->
<g id="edge31" class="edge">
<title>dir_59e8b316da56f23ca4fe7a5b19a28252&#45;&gt;dir_cab9f8330899b1cc9d753b1d9c5c5a3e</title>
<path fill="none" stroke="black" d="M199.6,-434.58C202.75,-433.61 205.91,-432.72 209,-432 367.73,-394.88 424.07,-459.97 574,-396 645.84,-365.35 710.43,-297.07 741.86,-260.04"/>
<polygon fill="black" stroke="black" points="744.68,-262.12 748.41,-252.2 739.31,-257.63 744.68,-262.12"/>
<g id="a_edge31&#45;headlabel"><a xlink:href="dir_000150_000053.html" target="_top" xlink:title="2">
<text text-anchor="middle" x="744.55" y="-264.2" font-family="Helvetica,sans-Serif" font-size="10.00">2</text>
</a>
</g>
</g>
<!-- dir_744a83d58ad6e49aee1bdb16a415021a -->
<g id="node9" class="node">
<title>dir_744a83d58ad6e49aee1bdb16a415021a</title>
<g id="a_node9"><a xlink:href="dir_744a83d58ad6e49aee1bdb16a415021a.html" target="_top" xlink:title="TuneExtension">
<polygon fill="white" stroke="black" points="564.5,-396 477.5,-396 477.5,-360 564.5,-360 564.5,-396"/>
<text text-anchor="middle" x="521" y="-375.5" font-family="Helvetica,sans-Serif" font-size="10.00">TuneExtension</text>
</a>
</g>
</g>
<!-- dir_744a83d58ad6e49aee1bdb16a415021a&#45;&gt;dir_3fcea5679c56f279a8c81b2ba929f91c -->
<g id="edge20" class="edge">
<title>dir_744a83d58ad6e49aee1bdb16a415021a&#45;&gt;dir_3fcea5679c56f279a8c81b2ba929f91c</title>
<path fill="none" stroke="black" d="M500.48,-359.7C490.13,-350.97 477.41,-340.24 466.16,-330.75"/>
<polygon fill="black" stroke="black" points="468.18,-327.88 458.28,-324.1 463.67,-333.23 468.18,-327.88"/>
<g id="a_edge20&#45;headlabel"><a xlink:href="dir_000269_000265.html" target="_top" xlink:title="1">
<text text-anchor="middle" x="472.76" y="-325.52" font-family="Helvetica,sans-Serif" font-size="10.00">1</text>
</a>
</g>
</g>
<!-- dir_744a83d58ad6e49aee1bdb16a415021a&#45;&gt;dir_84ef7c054b4edc3447cfba80cee80f65 -->
<g id="edge21" class="edge">
<title>dir_744a83d58ad6e49aee1bdb16a415021a&#45;&gt;dir_84ef7c054b4edc3447cfba80cee80f65</title>
<path fill="none" stroke="black" d="M526.34,-359.83C536.28,-328.11 558.45,-258.24 579,-200 580.18,-196.66 581.45,-193.17 582.73,-189.71"/>
<polygon fill="black" stroke="black" points="586.04,-190.85 586.29,-180.26 579.49,-188.39 586.04,-190.85"/>
<g id="a_edge21&#45;headlabel"><a xlink:href="dir_000269_000046.html" target="_top" xlink:title="2">
<text text-anchor="middle" x="587.43" y="-192.71" font-family="Helvetica,sans-Serif" font-size="10.00">2</text>
</a>
</g>
</g>
<!-- dir_1eaf8c35e65d819e073aecac4557fa0f&#45;&gt;dir_84ef7c054b4edc3447cfba80cee80f65 -->
<g id="edge14" class="edge">
<title>dir_1eaf8c35e65d819e073aecac4557fa0f&#45;&gt;dir_84ef7c054b4edc3447cfba80cee80f65</title>
<path fill="none" stroke="black" d="M413.12,-220.77C428.23,-214.18 447.47,-206.17 465,-200 495.24,-189.35 530.26,-179.39 556.01,-172.49"/>
<polygon fill="black" stroke="black" points="556.98,-175.85 565.75,-169.91 555.18,-169.09 556.98,-175.85"/>
<g id="a_edge14&#45;headlabel"><a xlink:href="dir_000035_000046.html" target="_top" xlink:title="5">
<text text-anchor="middle" x="554.23" y="-177.02" font-family="Helvetica,sans-Serif" font-size="10.00">5</text>
</a>
</g>
</g>
<!-- dir_1eaf8c35e65d819e073aecac4557fa0f&#45;&gt;dir_f61d47671007dfdb592580b61f960d39 -->
<g id="edge15" class="edge">
<title>dir_1eaf8c35e65d819e073aecac4557fa0f&#45;&gt;dir_f61d47671007dfdb592580b61f960d39</title>
<path fill="none" stroke="black" d="M388.16,-215.85C392.83,-178.83 403.89,-91.18 409.54,-46.39"/>
<polygon fill="black" stroke="black" points="413.05,-46.59 410.83,-36.23 406.1,-45.72 413.05,-46.59"/>
<g id="a_edge15&#45;headlabel"><a xlink:href="dir_000035_000288.html" target="_top" xlink:title="2">
<text text-anchor="middle" x="415.41" y="-48.01" font-family="Helvetica,sans-Serif" font-size="10.00">2</text>
</a>
</g>
</g>
<!-- dir_51020c1b0909ae629a35fe1c65c620b9&#45;&gt;dir_84ef7c054b4edc3447cfba80cee80f65 -->
<g id="edge26" class="edge">
<title>dir_51020c1b0909ae629a35fe1c65c620b9&#45;&gt;dir_84ef7c054b4edc3447cfba80cee80f65</title>
<path fill="none" stroke="black" d="M68.67,-287.85C68.83,-263.83 78.5,-220.77 107,-200 142.69,-173.99 448.27,-165.66 555.85,-163.59"/>
<polygon fill="black" stroke="black" points="555.99,-167.08 565.93,-163.4 555.86,-160.09 555.99,-167.08"/>
<g id="a_edge26&#45;headlabel"><a xlink:href="dir_000050_000046.html" target="_top" xlink:title="9">
<text text-anchor="middle" x="552.45" y="-167.49" font-family="Helvetica,sans-Serif" font-size="10.00">9</text>
</a>
</g>
</g>
<!-- dir_51020c1b0909ae629a35fe1c65c620b9&#45;&gt;dir_f61d47671007dfdb592580b61f960d39 -->
<g id="edge27" class="edge">
<title>dir_51020c1b0909ae629a35fe1c65c620b9&#45;&gt;dir_f61d47671007dfdb592580b61f960d39</title>
<path fill="none" stroke="black" d="M69.42,-287.82C65.78,-265.66 62.85,-226.77 80,-200 148.84,-92.53 304.53,-44.01 375.94,-26.8"/>
<polygon fill="black" stroke="black" points="376.9,-30.17 385.84,-24.49 375.31,-23.36 376.9,-30.17"/>
<g id="a_edge27&#45;headlabel"><a xlink:href="dir_000050_000288.html" target="_top" xlink:title="2">
<text text-anchor="middle" x="374.05" y="-31.26" font-family="Helvetica,sans-Serif" font-size="10.00">2</text>
</a>
</g>
</g>
<!-- dir_84ef7c054b4edc3447cfba80cee80f65&#45;&gt;dir_51020c1b0909ae629a35fe1c65c620b9 -->
<g id="edge11" class="edge">
<title>dir_84ef7c054b4edc3447cfba80cee80f65&#45;&gt;dir_51020c1b0909ae629a35fe1c65c620b9</title>
<path fill="none" stroke="black" d="M565.67,-163.54C470.83,-165.54 160.96,-173.8 125,-200 100.07,-218.17 89.55,-253.41 83.08,-278.03"/>
<polygon fill="black" stroke="black" points="79.65,-277.29 80.52,-287.85 86.43,-279.06 79.65,-277.29"/>
<g id="a_edge11&#45;headlabel"><a xlink:href="dir_000046_000050.html" target="_top" xlink:title="2">
<text text-anchor="middle" x="77.81" y="-270.6" font-family="Helvetica,sans-Serif" font-size="10.00">2</text>
</a>
</g>
</g>
<!-- dir_84ef7c054b4edc3447cfba80cee80f65&#45;&gt;dir_cf63c3ddb21c79ef735682489f4c6a69 -->
<g id="edge12" class="edge">
<title>dir_84ef7c054b4edc3447cfba80cee80f65&#45;&gt;dir_cf63c3ddb21c79ef735682489f4c6a69</title>
<path fill="none" stroke="black" d="M620.07,-154.22C676.41,-141.3 806.08,-113.17 873.59,-99.21"/>
<polygon fill="black" stroke="black" points="874.39,-102.62 883.48,-97.17 872.98,-95.76 874.39,-102.62"/>
<g id="a_edge12&#45;headlabel"><a xlink:href="dir_000046_000279.html" target="_top" xlink:title="3">
<text text-anchor="middle" x="871.44" y="-103.62" font-family="Helvetica,sans-Serif" font-size="10.00">3</text>
</a>
</g>
</g>
<!-- dir_84ef7c054b4edc3447cfba80cee80f65&#45;&gt;dir_f61d47671007dfdb592580b61f960d39 -->
<g id="edge13" class="edge">
<title>dir_84ef7c054b4edc3447cfba80cee80f65&#45;&gt;dir_f61d47671007dfdb592580b61f960d39</title>
<path fill="none" stroke="black" d="M571.29,-143.87C539.26,-118.6 479.24,-71.25 443.02,-42.68"/>
<polygon fill="black" stroke="black" points="444.81,-39.64 434.79,-36.19 440.47,-45.13 444.81,-39.64"/>
<g id="a_edge13&#45;headlabel"><a xlink:href="dir_000046_000288.html" target="_top" xlink:title="23">
<text text-anchor="middle" x="449.39" y="-37.13" font-family="Helvetica,sans-Serif" font-size="10.00">23</text>
</a>
</g>
</g>
<!-- dir_ca4d1f3bc4cd42ba07a57ca86d19a1d6&#45;&gt;dir_84ef7c054b4edc3447cfba80cee80f65 -->
<g id="edge22" class="edge">
<title>dir_ca4d1f3bc4cd42ba07a57ca86d19a1d6&#45;&gt;dir_84ef7c054b4edc3447cfba80cee80f65</title>
<path fill="none" stroke="black" d="M819.31,-287.8C821.4,-264.5 821.19,-223.18 798,-200 774.97,-176.98 682.89,-168.04 630.31,-164.76"/>
<polygon fill="black" stroke="black" points="630.22,-161.25 620.04,-164.16 629.82,-168.24 630.22,-161.25"/>
<g id="a_edge22&#45;headlabel"><a xlink:href="dir_000156_000046.html" target="_top" xlink:title="19">
<text text-anchor="middle" x="633.98" y="-156.12" font-family="Helvetica,sans-Serif" font-size="10.00">19</text>
</a>
</g>
</g>
<!-- dir_ca4d1f3bc4cd42ba07a57ca86d19a1d6&#45;&gt;dir_cf63c3ddb21c79ef735682489f4c6a69 -->
<g id="edge24" class="edge">
<title>dir_ca4d1f3bc4cd42ba07a57ca86d19a1d6&#45;&gt;dir_cf63c3ddb21c79ef735682489f4c6a69</title>
<path fill="none" stroke="black" d="M838.29,-287.79C848.87,-278.24 861.05,-265.57 869,-252 894.24,-208.93 906.75,-151.34 912.26,-117.99"/>
<polygon fill="black" stroke="black" points="915.73,-118.49 913.82,-108.07 908.81,-117.41 915.73,-118.49"/>
<g id="a_edge24&#45;headlabel"><a xlink:href="dir_000156_000279.html" target="_top" xlink:title="4">
<text text-anchor="middle" x="917.98" y="-119.98" font-family="Helvetica,sans-Serif" font-size="10.00">4</text>
</a>
</g>
</g>
<!-- dir_ca4d1f3bc4cd42ba07a57ca86d19a1d6&#45;&gt;dir_f61d47671007dfdb592580b61f960d39 -->
<g id="edge25" class="edge">
<title>dir_ca4d1f3bc4cd42ba07a57ca86d19a1d6&#45;&gt;dir_f61d47671007dfdb592580b61f960d39</title>
<path fill="none" stroke="black" d="M823.37,-287.88C830.44,-265.78 838.78,-226.96 822,-200 739.58,-67.55 534.62,-31.51 450.22,-22.14"/>
<polygon fill="black" stroke="black" points="450.38,-18.64 440.07,-21.08 449.65,-25.6 450.38,-18.64"/>
<g id="a_edge25&#45;headlabel"><a xlink:href="dir_000156_000288.html" target="_top" xlink:title="6">
<text text-anchor="middle" x="454.25" y="-13.69" font-family="Helvetica,sans-Serif" font-size="10.00">6</text>
</a>
</g>
</g>
<!-- dir_ca4d1f3bc4cd42ba07a57ca86d19a1d6&#45;&gt;dir_cab9f8330899b1cc9d753b1d9c5c5a3e -->
<g id="edge23" class="edge">
<title>dir_ca4d1f3bc4cd42ba07a57ca86d19a1d6&#45;&gt;dir_cab9f8330899b1cc9d753b1d9c5c5a3e</title>
<path fill="none" stroke="black" d="M803.4,-287.7C796.88,-279.39 788.93,-269.28 781.75,-260.14"/>
<polygon fill="black" stroke="black" points="784.37,-257.81 775.44,-252.1 778.87,-262.13 784.37,-257.81"/>
<g id="a_edge23&#45;headlabel"><a xlink:href="dir_000156_000053.html" target="_top" xlink:title="4">
<text text-anchor="middle" x="788.82" y="-256.38" font-family="Helvetica,sans-Serif" font-size="10.00">4</text>
</a>
</g>
</g>
<!-- dir_cf63c3ddb21c79ef735682489f4c6a69&#45;&gt;dir_84ef7c054b4edc3447cfba80cee80f65 -->
<g id="edge28" class="edge">
<title>dir_cf63c3ddb21c79ef735682489f4c6a69&#45;&gt;dir_84ef7c054b4edc3447cfba80cee80f65</title>
<path fill="none" stroke="black" d="M883.37,-99.05C822.85,-112.83 694.05,-140.73 630.24,-153.86"/>
<polygon fill="black" stroke="black" points="629.31,-150.48 620.21,-155.91 630.71,-157.33 629.31,-150.48"/>
<g id="a_edge28&#45;headlabel"><a xlink:href="dir_000279_000046.html" target="_top" xlink:title="54">
<text text-anchor="middle" x="632.26" y="-144.47" font-family="Helvetica,sans-Serif" font-size="10.00">54</text>
</a>
</g>
</g>
<!-- dir_cf63c3ddb21c79ef735682489f4c6a69&#45;&gt;dir_f61d47671007dfdb592580b61f960d39 -->
<g id="edge29" class="edge">
<title>dir_cf63c3ddb21c79ef735682489f4c6a69&#45;&gt;dir_f61d47671007dfdb592580b61f960d39</title>
<path fill="none" stroke="black" d="M883.42,-76.12C878.64,-74.55 873.73,-73.11 869,-72 716.37,-36.04 529.01,-24.05 450.45,-20.42"/>
<polygon fill="black" stroke="black" points="450.25,-16.91 440.1,-19.97 449.94,-23.91 450.25,-16.91"/>
<g id="a_edge29&#45;headlabel"><a xlink:href="dir_000279_000288.html" target="_top" xlink:title="2">
<text text-anchor="middle" x="453.96" y="-11.73" font-family="Helvetica,sans-Serif" font-size="10.00">2</text>
</a>
</g>
</g>
<!-- dir_cab9f8330899b1cc9d753b1d9c5c5a3e&#45;&gt;dir_84ef7c054b4edc3447cfba80cee80f65 -->
<g id="edge34" class="edge">
<title>dir_cab9f8330899b1cc9d753b1d9c5c5a3e&#45;&gt;dir_84ef7c054b4edc3447cfba80cee80f65</title>
<path fill="none" stroke="black" d="M744.92,-215.82C738.49,-210.12 730.83,-204.17 723,-200 693.75,-184.41 657.2,-174.76 630.31,-169.24"/>
<polygon fill="black" stroke="black" points="630.64,-165.74 620.16,-167.26 629.3,-172.61 630.64,-165.74"/>
<g id="a_edge34&#45;headlabel"><a xlink:href="dir_000053_000046.html" target="_top" xlink:title="4">
<text text-anchor="middle" x="634.71" y="-161.14" font-family="Helvetica,sans-Serif" font-size="10.00">4</text>
</a>
</g>
</g>
<!-- dir_cab9f8330899b1cc9d753b1d9c5c5a3e&#45;&gt;dir_f61d47671007dfdb592580b61f960d39 -->
<g id="edge35" class="edge">
<title>dir_cab9f8330899b1cc9d753b1d9c5c5a3e&#45;&gt;dir_f61d47671007dfdb592580b61f960d39</title>
<path fill="none" stroke="black" d="M743.01,-215.97C736.79,-210.66 729.74,-204.91 723,-200 635.85,-136.57 610.88,-124.96 517,-72 494.91,-59.54 469.55,-46.59 449.41,-36.61"/>
<polygon fill="black" stroke="black" points="450.78,-33.39 440.27,-32.11 447.69,-39.67 450.78,-33.39"/>
<g id="a_edge35&#45;headlabel"><a xlink:href="dir_000053_000288.html" target="_top" xlink:title="6">
<text text-anchor="middle" x="455.26" y="-29.93" font-family="Helvetica,sans-Serif" font-size="10.00">6</text>
</a>
</g>
</g>
</g>
</svg>
