<?xml version="1.0" encoding="UTF-8" standalone="no"?>
<!DOCTYPE svg PUBLIC "-//W3C//DTD SVG 1.1//EN"
 "http://www.w3.org/Graphics/SVG/1.1/DTD/svg11.dtd">
<!-- Generated by graphviz version 2.43.0 (0)
 -->
<!-- Title: include/mlir/Dialect/Affine/Analysis Pages: 1 -->
<svg width="242pt" height="367pt"
 viewBox="0.00 0.00 241.56 367.00" xmlns="http://www.w3.org/2000/svg" xmlns:xlink="http://www.w3.org/1999/xlink">
<g id="graph0" class="graph" transform="scale(1 1) rotate(0) translate(4 363)">
<title>include/mlir/Dialect/Affine/Analysis</title>
<g id="clust1" class="cluster">
<title>clusterdir_166398e1f0020b3d916a929c669bf538</title>
<g id="a_clust1"><a xlink:href="dir_166398e1f0020b3d916a929c669bf538.html" target="_top" xlink:title="Affine">
<polygon fill="#ddddee" stroke="black" points="101,-208 101,-351 175,-351 175,-208 101,-208"/>
<text text-anchor="middle" x="138" y="-339" font-family="Helvetica,sans-Serif" font-size="10.00">Affine</text>
</a>
</g>
</g>
<!-- dir_2fcdf6cc489b7ef54fc5651c07cab584 -->
<g id="node1" class="node">
<title>dir_2fcdf6cc489b7ef54fc5651c07cab584</title>
<g id="a_node1"><a xlink:href="dir_2fcdf6cc489b7ef54fc5651c07cab584.html" target="_top" xlink:title="IR">
<polygon fill="none" stroke="black" points="165,-252 111,-252 111,-216 165,-216 165,-252"/>
<text text-anchor="middle" x="138" y="-231.5" font-family="Helvetica,sans-Serif" font-size="10.00">IR</text>
</a>
</g>
</g>
<!-- dir_687ef06ec02158f82af83f8ed0273ebe -->
<g id="node4" class="node">
<title>dir_687ef06ec02158f82af83f8ed0273ebe</title>
<g id="a_node4"><a xlink:href="dir_687ef06ec02158f82af83f8ed0273ebe.html" target="_top" xlink:title="Arith">
<polygon fill="none" stroke="red" points="220,-180 166,-180 166,-144 220,-144 220,-180"/>
<text text-anchor="middle" x="193" y="-159.5" font-family="Helvetica,sans-Serif" font-size="10.00">Arith</text>
</a>
</g>
</g>
<!-- dir_2fcdf6cc489b7ef54fc5651c07cab584&#45;&gt;dir_687ef06ec02158f82af83f8ed0273ebe -->
<g id="edge10" class="edge">
<title>dir_2fcdf6cc489b7ef54fc5651c07cab584&#45;&gt;dir_687ef06ec02158f82af83f8ed0273ebe</title>
<path fill="none" stroke="black" d="M151.6,-215.7C158.13,-207.39 166.07,-197.28 173.25,-188.14"/>
<polygon fill="black" stroke="black" points="176.14,-190.13 179.56,-180.1 170.63,-185.81 176.14,-190.13"/>
<g id="a_edge10&#45;headlabel"><a xlink:href="dir_000186_000017.html" target="_top" xlink:title="1">
<text text-anchor="middle" x="176.15" y="-192.21" font-family="Helvetica,sans-Serif" font-size="10.00">1</text>
</a>
</g>
</g>
<!-- dir_84ef7c054b4edc3447cfba80cee80f65 -->
<g id="node5" class="node">
<title>dir_84ef7c054b4edc3447cfba80cee80f65</title>
<g id="a_node5"><a xlink:href="dir_84ef7c054b4edc3447cfba80cee80f65.html" target="_top" xlink:title="IR">
<polygon fill="none" stroke="black" points="182,-108 128,-108 128,-72 182,-72 182,-108"/>
<text text-anchor="middle" x="155" y="-87.5" font-family="Helvetica,sans-Serif" font-size="10.00">IR</text>
</a>
</g>
</g>
<!-- dir_2fcdf6cc489b7ef54fc5651c07cab584&#45;&gt;dir_84ef7c054b4edc3447cfba80cee80f65 -->
<g id="edge11" class="edge">
<title>dir_2fcdf6cc489b7ef54fc5651c07cab584&#45;&gt;dir_84ef7c054b4edc3447cfba80cee80f65</title>
<path fill="none" stroke="black" d="M140.05,-215.87C142.95,-191.67 148.27,-147.21 151.72,-118.39"/>
<polygon fill="black" stroke="black" points="155.23,-118.53 152.94,-108.19 148.28,-117.7 155.23,-118.53"/>
<g id="a_edge11&#45;headlabel"><a xlink:href="dir_000186_000046.html" target="_top" xlink:title="8">
<text text-anchor="middle" x="157.62" y="-119.94" font-family="Helvetica,sans-Serif" font-size="10.00">8</text>
</a>
</g>
</g>
<!-- dir_f61d47671007dfdb592580b61f960d39 -->
<g id="node6" class="node">
<title>dir_f61d47671007dfdb592580b61f960d39</title>
<g id="a_node6"><a xlink:href="dir_f61d47671007dfdb592580b61f960d39.html" target="_top" xlink:title="Support">
<polygon fill="none" stroke="black" points="107,-36 53,-36 53,0 107,0 107,-36"/>
<text text-anchor="middle" x="80" y="-15.5" font-family="Helvetica,sans-Serif" font-size="10.00">Support</text>
</a>
</g>
</g>
<!-- dir_2fcdf6cc489b7ef54fc5651c07cab584&#45;&gt;dir_f61d47671007dfdb592580b61f960d39 -->
<g id="edge12" class="edge">
<title>dir_2fcdf6cc489b7ef54fc5651c07cab584&#45;&gt;dir_f61d47671007dfdb592580b61f960d39</title>
<path fill="none" stroke="black" d="M133.35,-215.85C123.3,-178.75 99.46,-90.81 87.35,-46.1"/>
<polygon fill="black" stroke="black" points="90.67,-44.97 84.67,-36.23 83.91,-46.8 90.67,-44.97"/>
<g id="a_edge12&#45;headlabel"><a xlink:href="dir_000186_000288.html" target="_top" xlink:title="1">
<text text-anchor="middle" x="94.35" y="-45.2" font-family="Helvetica,sans-Serif" font-size="10.00">1</text>
</a>
</g>
</g>
<!-- dir_740c1a08dd185e22adde3d54ecb6f2ad -->
<g id="node2" class="node">
<title>dir_740c1a08dd185e22adde3d54ecb6f2ad</title>
<g id="a_node2"><a xlink:href="dir_740c1a08dd185e22adde3d54ecb6f2ad.html" target="_top" xlink:title="Analysis">
<polygon fill="#eeeeff" stroke="black" points="167,-324 109,-324 109,-288 167,-288 167,-324"/>
<text text-anchor="middle" x="138" y="-303.5" font-family="Helvetica,sans-Serif" font-size="10.00">Analysis</text>
</a>
</g>
</g>
<!-- dir_740c1a08dd185e22adde3d54ecb6f2ad&#45;&gt;dir_2fcdf6cc489b7ef54fc5651c07cab584 -->
<g id="edge2" class="edge">
<title>dir_740c1a08dd185e22adde3d54ecb6f2ad&#45;&gt;dir_2fcdf6cc489b7ef54fc5651c07cab584</title>
<path fill="none" stroke="black" d="M138,-287.7C138,-279.98 138,-270.71 138,-262.11"/>
<polygon fill="black" stroke="black" points="141.5,-262.1 138,-252.1 134.5,-262.1 141.5,-262.1"/>
<g id="a_edge2&#45;headlabel"><a xlink:href="dir_000016_000186.html" target="_top" xlink:title="1">
<text text-anchor="middle" x="144.34" y="-263.2" font-family="Helvetica,sans-Serif" font-size="10.00">1</text>
</a>
</g>
</g>
<!-- dir_444b57698294f6a80104968315903582 -->
<g id="node3" class="node">
<title>dir_444b57698294f6a80104968315903582</title>
<g id="a_node3"><a xlink:href="dir_444b57698294f6a80104968315903582.html" target="_top" xlink:title="Analysis">
<polygon fill="none" stroke="red" points="72,-180 14,-180 14,-144 72,-144 72,-180"/>
<text text-anchor="middle" x="43" y="-159.5" font-family="Helvetica,sans-Serif" font-size="10.00">Analysis</text>
</a>
</g>
</g>
<!-- dir_740c1a08dd185e22adde3d54ecb6f2ad&#45;&gt;dir_444b57698294f6a80104968315903582 -->
<g id="edge3" class="edge">
<title>dir_740c1a08dd185e22adde3d54ecb6f2ad&#45;&gt;dir_444b57698294f6a80104968315903582</title>
<path fill="none" stroke="black" d="M126.28,-287.85C119.22,-277.49 110.06,-264.01 102,-252 87.75,-230.76 71.73,-206.57 59.98,-188.77"/>
<polygon fill="black" stroke="black" points="62.68,-186.52 54.26,-180.1 56.84,-190.37 62.68,-186.52"/>
<g id="a_edge3&#45;headlabel"><a xlink:href="dir_000016_000009.html" target="_top" xlink:title="4">
<text text-anchor="middle" x="67.03" y="-185.46" font-family="Helvetica,sans-Serif" font-size="10.00">4</text>
</a>
</g>
</g>
<!-- dir_740c1a08dd185e22adde3d54ecb6f2ad&#45;&gt;dir_687ef06ec02158f82af83f8ed0273ebe -->
<g id="edge4" class="edge">
<title>dir_740c1a08dd185e22adde3d54ecb6f2ad&#45;&gt;dir_687ef06ec02158f82af83f8ed0273ebe</title>
<path fill="none" stroke="black" d="M152.17,-287.85C159.69,-277.93 168.5,-264.89 174,-252 182.42,-232.29 187.25,-208.49 189.93,-190.46"/>
<polygon fill="black" stroke="black" points="193.43,-190.71 191.31,-180.33 186.49,-189.76 193.43,-190.71"/>
<g id="a_edge4&#45;headlabel"><a xlink:href="dir_000016_000017.html" target="_top" xlink:title="1">
<text text-anchor="middle" x="195.76" y="-192.15" font-family="Helvetica,sans-Serif" font-size="10.00">1</text>
</a>
</g>
</g>
<!-- dir_740c1a08dd185e22adde3d54ecb6f2ad&#45;&gt;dir_84ef7c054b4edc3447cfba80cee80f65 -->
<g id="edge5" class="edge">
<title>dir_740c1a08dd185e22adde3d54ecb6f2ad&#45;&gt;dir_84ef7c054b4edc3447cfba80cee80f65</title>
<path fill="none" stroke="black" d="M159.49,-287.93C170.74,-278.24 184.19,-265.39 194,-252 215.04,-223.31 221.02,-214.67 229,-180 232.59,-164.41 236.31,-158.23 229,-144 220.87,-128.17 205.57,-116.01 190.98,-107.36"/>
<polygon fill="black" stroke="black" points="192.51,-104.2 182.06,-102.42 189.12,-110.32 192.51,-104.2"/>
<g id="a_edge5&#45;headlabel"><a xlink:href="dir_000016_000046.html" target="_top" xlink:title="5">
<text text-anchor="middle" x="197.03" y="-100.96" font-family="Helvetica,sans-Serif" font-size="10.00">5</text>
</a>
</g>
</g>
<!-- dir_740c1a08dd185e22adde3d54ecb6f2ad&#45;&gt;dir_f61d47671007dfdb592580b61f960d39 -->
<g id="edge6" class="edge">
<title>dir_740c1a08dd185e22adde3d54ecb6f2ad&#45;&gt;dir_f61d47671007dfdb592580b61f960d39</title>
<path fill="none" stroke="black" d="M108.89,-288.87C75.77,-268.55 23.84,-230.13 5,-180 -13.69,-130.24 26.8,-74.49 55.24,-43.38"/>
<polygon fill="black" stroke="black" points="57.87,-45.7 62.17,-36.02 52.77,-40.9 57.87,-45.7"/>
<g id="a_edge6&#45;headlabel"><a xlink:href="dir_000016_000288.html" target="_top" xlink:title="1">
<text text-anchor="middle" x="57.47" y="-47.76" font-family="Helvetica,sans-Serif" font-size="10.00">1</text>
</a>
</g>
</g>
<!-- dir_444b57698294f6a80104968315903582&#45;&gt;dir_84ef7c054b4edc3447cfba80cee80f65 -->
<g id="edge8" class="edge">
<title>dir_444b57698294f6a80104968315903582&#45;&gt;dir_84ef7c054b4edc3447cfba80cee80f65</title>
<path fill="none" stroke="black" d="M70.4,-143.88C85.15,-134.66 103.53,-123.17 119.38,-113.26"/>
<polygon fill="black" stroke="black" points="121.26,-116.22 127.89,-107.95 117.55,-110.28 121.26,-116.22"/>
<g id="a_edge8&#45;headlabel"><a xlink:href="dir_000009_000046.html" target="_top" xlink:title="12">
<text text-anchor="middle" x="119.72" y="-118.03" font-family="Helvetica,sans-Serif" font-size="10.00">12</text>
</a>
</g>
</g>
<!-- dir_444b57698294f6a80104968315903582&#45;&gt;dir_f61d47671007dfdb592580b61f960d39 -->
<g id="edge9" class="edge">
<title>dir_444b57698294f6a80104968315903582&#45;&gt;dir_f61d47671007dfdb592580b61f960d39</title>
<path fill="none" stroke="black" d="M47.47,-143.87C53.8,-119.56 65.46,-74.82 72.96,-46.01"/>
<polygon fill="black" stroke="black" points="76.39,-46.75 75.52,-36.19 69.62,-44.98 76.39,-46.75"/>
<g id="a_edge9&#45;headlabel"><a xlink:href="dir_000009_000288.html" target="_top" xlink:title="5">
<text text-anchor="middle" x="78.23" y="-48.44" font-family="Helvetica,sans-Serif" font-size="10.00">5</text>
</a>
</g>
</g>
<!-- dir_687ef06ec02158f82af83f8ed0273ebe&#45;&gt;dir_84ef7c054b4edc3447cfba80cee80f65 -->
<g id="edge7" class="edge">
<title>dir_687ef06ec02158f82af83f8ed0273ebe&#45;&gt;dir_84ef7c054b4edc3447cfba80cee80f65</title>
<path fill="none" stroke="black" d="M183.61,-143.7C179.24,-135.64 173.95,-125.89 169.11,-116.98"/>
<polygon fill="black" stroke="black" points="172.13,-115.22 164.29,-108.1 165.98,-118.56 172.13,-115.22"/>
<g id="a_edge7&#45;headlabel"><a xlink:href="dir_000017_000046.html" target="_top" xlink:title="6">
<text text-anchor="middle" x="176.34" y="-114.53" font-family="Helvetica,sans-Serif" font-size="10.00">6</text>
</a>
</g>
</g>
<!-- dir_84ef7c054b4edc3447cfba80cee80f65&#45;&gt;dir_f61d47671007dfdb592580b61f960d39 -->
<g id="edge1" class="edge">
<title>dir_84ef7c054b4edc3447cfba80cee80f65&#45;&gt;dir_f61d47671007dfdb592580b61f960d39</title>
<path fill="none" stroke="black" d="M136.46,-71.7C127.2,-63.05 115.84,-52.45 105.75,-43.03"/>
<polygon fill="black" stroke="black" points="108.03,-40.37 98.33,-36.1 103.25,-45.49 108.03,-40.37"/>
<g id="a_edge1&#45;headlabel"><a xlink:href="dir_000046_000288.html" target="_top" xlink:title="23">
<text text-anchor="middle" x="112.59" y="-38.25" font-family="Helvetica,sans-Serif" font-size="10.00">23</text>
</a>
</g>
</g>
</g>
</svg>
