<?xml version="1.0" encoding="UTF-8" standalone="no"?>
<!DOCTYPE svg PUBLIC "-//W3C//DTD SVG 1.1//EN"
 "http://www.w3.org/Graphics/SVG/1.1/DTD/svg11.dtd">
<!-- Generated by graphviz version 2.43.0 (0)
 -->
<!-- Title: lib/Tools/PDLL Pages: 1 -->
<svg width="352pt" height="125pt"
 viewBox="0.00 0.00 352.00 125.00" xmlns="http://www.w3.org/2000/svg" xmlns:xlink="http://www.w3.org/1999/xlink">
<g id="graph0" class="graph" transform="scale(1 1) rotate(0) translate(4 121)">
<title>lib/Tools/PDLL</title>
<g id="clust1" class="cluster">
<title>clusterdir_5fe0fdc1a37a7d35ef071fa3f129cdb7</title>
<g id="a_clust1"><a xlink:href="dir_5fe0fdc1a37a7d35ef071fa3f129cdb7.html" target="_top" xlink:title="Tools">
<polygon fill="#edf0f7" stroke="#7f7f7f" stroke-dasharray="5,2" points="8,-39 8,-109 336,-109 336,-39 8,-39"/>
<text text-anchor="middle" x="172" y="-97" font-family="Helvetica,sans-Serif" font-size="10.00">Tools</text>
</a>
</g>
</g>
<g id="clust2" class="cluster">
<title>clusterdir_4f385138bafa35b701c64a4cf969f03c</title>
<g id="a_clust2"><a xlink:href="dir_4f385138bafa35b701c64a4cf969f03c.html" target="_top">
<polygon fill="#edf0f7" stroke="#404040" stroke-width="2" points="16,-47 16,-82 328,-82 328,-47 16,-47"/>
</a>
</g>
</g>
<!-- dir_4f385138bafa35b701c64a4cf969f03c -->
<g id="node1" class="node">
<title>dir_4f385138bafa35b701c64a4cf969f03c</title>
<text text-anchor="middle" x="299" y="-62" font-family="Helvetica,sans-Serif" font-size="10.00">PDLL</text>
</g>
<!-- dir_24f84780552aa8ecef7e1581ab3f7486 -->
<g id="node2" class="node">
<title>dir_24f84780552aa8ecef7e1581ab3f7486</title>
<g id="a_node2"><a xlink:href="dir_24f84780552aa8ecef7e1581ab3f7486.html" target="_top" xlink:title="AST">
<polygon fill="#a2b4d6" stroke="#404040" points="260.5,-74 225.5,-74 225.5,-55 260.5,-55 260.5,-74"/>
<text text-anchor="middle" x="243" y="-62" font-family="Helvetica,sans-Serif" font-size="10.00">AST</text>
</a>
</g>
</g>
<!-- dir_d44c64559bbebec7f509842c48db8b23 -->
<g id="node6" class="node">
<title>dir_d44c64559bbebec7f509842c48db8b23</title>
<g id="a_node6"><a xlink:href="dir_d44c64559bbebec7f509842c48db8b23.html" target="_top" xlink:title="include">
<polygon fill="#edf0f7" stroke="red" points="169,-19 117,-19 117,0 169,0 169,-19"/>
<text text-anchor="middle" x="143" y="-7" font-family="Helvetica,sans-Serif" font-size="10.00">include</text>
</a>
</g>
</g>
<!-- dir_24f84780552aa8ecef7e1581ab3f7486&#45;&gt;dir_d44c64559bbebec7f509842c48db8b23 -->
<g id="edge1" class="edge">
<title>dir_24f84780552aa8ecef7e1581ab3f7486&#45;&gt;dir_d44c64559bbebec7f509842c48db8b23</title>
<g id="a_edge1"><a xlink:href="dir_000056_000158.html" target="_top">
<path fill="none" stroke="#63b8ff" d="M235.49,-54.89C230.63,-49.74 223.93,-43.36 217,-39 205.32,-31.65 191.45,-25.69 178.89,-21.15"/>
<polygon fill="#63b8ff" stroke="#63b8ff" points="179.76,-17.75 169.16,-17.82 177.49,-24.37 179.76,-17.75"/>
</a>
</g>
<g id="a_edge1&#45;headlabel"><a xlink:href="dir_000056_000158.html" target="_top" xlink:title="8">
<text text-anchor="middle" x="184.08" y="-13.73" font-family="Helvetica,sans-Serif" font-size="10.00" fill="#63b8ff">8</text>
</a>
</g>
</g>
<!-- dir_40e94f452292185b21c99897fefae49f -->
<g id="node3" class="node">
<title>dir_40e94f452292185b21c99897fefae49f</title>
<g id="a_node3"><a xlink:href="dir_40e94f452292185b21c99897fefae49f.html" target="_top" xlink:title="CodeGen">
<polygon fill="#a2b4d6" stroke="#404040" points="207.5,-74 146.5,-74 146.5,-55 207.5,-55 207.5,-74"/>
<text text-anchor="middle" x="177" y="-62" font-family="Helvetica,sans-Serif" font-size="10.00">CodeGen</text>
</a>
</g>
</g>
<!-- dir_40e94f452292185b21c99897fefae49f&#45;&gt;dir_d44c64559bbebec7f509842c48db8b23 -->
<g id="edge2" class="edge">
<title>dir_40e94f452292185b21c99897fefae49f&#45;&gt;dir_d44c64559bbebec7f509842c48db8b23</title>
<g id="a_edge2"><a xlink:href="dir_000077_000158.html" target="_top">
<path fill="none" stroke="#63b8ff" d="M171.39,-54.75C166.68,-47.42 159.83,-36.73 154.03,-27.7"/>
<polygon fill="#63b8ff" stroke="#63b8ff" points="156.86,-25.62 148.51,-19.09 150.96,-29.4 156.86,-25.62"/>
</a>
</g>
<g id="a_edge2&#45;headlabel"><a xlink:href="dir_000077_000158.html" target="_top" xlink:title="18">
<text text-anchor="middle" x="161.19" y="-24.61" font-family="Helvetica,sans-Serif" font-size="10.00" fill="#63b8ff">18</text>
</a>
</g>
</g>
<!-- dir_285ea46be2405dc337734c829d639c28 -->
<g id="node4" class="node">
<title>dir_285ea46be2405dc337734c829d639c28</title>
<g id="a_node4"><a xlink:href="dir_285ea46be2405dc337734c829d639c28.html" target="_top" xlink:title="ODS">
<polygon fill="#a2b4d6" stroke="#404040" points="128,-74 90,-74 90,-55 128,-55 128,-74"/>
<text text-anchor="middle" x="109" y="-62" font-family="Helvetica,sans-Serif" font-size="10.00">ODS</text>
</a>
</g>
</g>
<!-- dir_285ea46be2405dc337734c829d639c28&#45;&gt;dir_d44c64559bbebec7f509842c48db8b23 -->
<g id="edge3" class="edge">
<title>dir_285ea46be2405dc337734c829d639c28&#45;&gt;dir_d44c64559bbebec7f509842c48db8b23</title>
<g id="a_edge3"><a xlink:href="dir_000350_000158.html" target="_top">
<path fill="none" stroke="#63b8ff" d="M114.61,-54.75C119.32,-47.42 126.17,-36.73 131.97,-27.7"/>
<polygon fill="#63b8ff" stroke="#63b8ff" points="135.04,-29.4 137.49,-19.09 129.14,-25.62 135.04,-29.4"/>
</a>
</g>
<g id="a_edge3&#45;headlabel"><a xlink:href="dir_000350_000158.html" target="_top" xlink:title="8">
<text text-anchor="middle" x="135.49" y="-31.45" font-family="Helvetica,sans-Serif" font-size="10.00" fill="#63b8ff">8</text>
</a>
</g>
</g>
<!-- dir_08f250abffe46972cf1ae0851b6133d9 -->
<g id="node5" class="node">
<title>dir_08f250abffe46972cf1ae0851b6133d9</title>
<g id="a_node5"><a xlink:href="dir_08f250abffe46972cf1ae0851b6133d9.html" target="_top" xlink:title="Parser">
<polygon fill="#a2b4d6" stroke="#404040" points="71.5,-74 24.5,-74 24.5,-55 71.5,-55 71.5,-74"/>
<text text-anchor="middle" x="48" y="-62" font-family="Helvetica,sans-Serif" font-size="10.00">Parser</text>
</a>
</g>
</g>
<!-- dir_08f250abffe46972cf1ae0851b6133d9&#45;&gt;dir_d44c64559bbebec7f509842c48db8b23 -->
<g id="edge4" class="edge">
<title>dir_08f250abffe46972cf1ae0851b6133d9&#45;&gt;dir_d44c64559bbebec7f509842c48db8b23</title>
<g id="a_edge4"><a xlink:href="dir_000368_000158.html" target="_top">
<path fill="none" stroke="#63b8ff" d="M58.31,-54.97C64.63,-49.97 73.02,-43.73 81,-39 90.81,-33.19 102.01,-27.72 112.16,-23.16"/>
<polygon fill="#63b8ff" stroke="#63b8ff" points="113.74,-26.29 121.5,-19.08 110.93,-19.87 113.74,-26.29"/>
</a>
</g>
<g id="a_edge4&#45;headlabel"><a xlink:href="dir_000368_000158.html" target="_top" xlink:title="23">
<text text-anchor="middle" x="111.58" y="-27.83" font-family="Helvetica,sans-Serif" font-size="10.00" fill="#63b8ff">23</text>
</a>
</g>
</g>
</g>
</svg>
