<?xml version="1.0" encoding="UTF-8" standalone="no"?>
<!DOCTYPE svg PUBLIC "-//W3C//DTD SVG 1.1//EN"
 "http://www.w3.org/Graphics/SVG/1.1/DTD/svg11.dtd">
<!-- Generated by graphviz version 2.43.0 (0)
 -->
<!-- Title: include/mlir/Conversion/ComplexToROCDLLibraryCalls Pages: 1 -->
<svg width="202pt" height="223pt"
 viewBox="0.00 0.00 202.00 223.00" xmlns="http://www.w3.org/2000/svg" xmlns:xlink="http://www.w3.org/1999/xlink">
<g id="graph0" class="graph" transform="scale(1 1) rotate(0) translate(4 219)">
<title>include/mlir/Conversion/ComplexToROCDLLibraryCalls</title>
<g id="clust1" class="cluster">
<title>clusterdir_37f3372f1e76d74ffd54613af9306e43</title>
<g id="a_clust1"><a xlink:href="dir_37f3372f1e76d74ffd54613af9306e43.html" target="_top" xlink:title="Conversion">
<polygon fill="#ddddee" stroke="black" points="8,-136 8,-207 186,-207 186,-136 8,-136"/>
<text text-anchor="middle" x="97" y="-195" font-family="Helvetica,sans-Serif" font-size="10.00">Conversion</text>
</a>
</g>
</g>
<!-- dir_923f93f18452952421a74b8b70cd5afe -->
<g id="node1" class="node">
<title>dir_923f93f18452952421a74b8b70cd5afe</title>
<g id="a_node1"><a xlink:href="dir_923f93f18452952421a74b8b70cd5afe.html" target="_top" xlink:title="ComplexToROCDLLibraryCalls">
<polygon fill="#eeeeff" stroke="black" points="178,-180 16,-180 16,-144 178,-144 178,-180"/>
<text text-anchor="middle" x="97" y="-159.5" font-family="Helvetica,sans-Serif" font-size="10.00">ComplexToROCDLLibraryCalls</text>
</a>
</g>
</g>
<!-- dir_84ef7c054b4edc3447cfba80cee80f65 -->
<g id="node2" class="node">
<title>dir_84ef7c054b4edc3447cfba80cee80f65</title>
<g id="a_node2"><a xlink:href="dir_84ef7c054b4edc3447cfba80cee80f65.html" target="_top" xlink:title="IR">
<polygon fill="none" stroke="black" points="123,-36 69,-36 69,0 123,0 123,-36"/>
<text text-anchor="middle" x="96" y="-15.5" font-family="Helvetica,sans-Serif" font-size="10.00">IR</text>
</a>
</g>
</g>
<!-- dir_923f93f18452952421a74b8b70cd5afe&#45;&gt;dir_84ef7c054b4edc3447cfba80cee80f65 -->
<g id="edge2" class="edge">
<title>dir_923f93f18452952421a74b8b70cd5afe&#45;&gt;dir_84ef7c054b4edc3447cfba80cee80f65</title>
<path fill="none" stroke="black" d="M93.35,-143.91C91.32,-133.57 89.02,-120.09 88,-108 86.66,-92.06 86.8,-87.96 88,-72 88.64,-63.52 89.84,-54.34 91.12,-46.04"/>
<polygon fill="black" stroke="black" points="94.58,-46.55 92.75,-36.11 87.68,-45.41 94.58,-46.55"/>
<g id="a_edge2&#45;headlabel"><a xlink:href="dir_000074_000046.html" target="_top" xlink:title="1">
<text text-anchor="middle" x="96.8" y="-48.05" font-family="Helvetica,sans-Serif" font-size="10.00">1</text>
</a>
</g>
</g>
<!-- dir_cab9f8330899b1cc9d753b1d9c5c5a3e -->
<g id="node3" class="node">
<title>dir_cab9f8330899b1cc9d753b1d9c5c5a3e</title>
<g id="a_node3"><a xlink:href="dir_cab9f8330899b1cc9d753b1d9c5c5a3e.html" target="_top" xlink:title="Pass">
<polygon fill="none" stroke="black" points="151,-108 97,-108 97,-72 151,-72 151,-108"/>
<text text-anchor="middle" x="124" y="-87.5" font-family="Helvetica,sans-Serif" font-size="10.00">Pass</text>
</a>
</g>
</g>
<!-- dir_923f93f18452952421a74b8b70cd5afe&#45;&gt;dir_cab9f8330899b1cc9d753b1d9c5c5a3e -->
<g id="edge3" class="edge">
<title>dir_923f93f18452952421a74b8b70cd5afe&#45;&gt;dir_cab9f8330899b1cc9d753b1d9c5c5a3e</title>
<path fill="none" stroke="black" d="M103.67,-143.7C106.71,-135.81 110.38,-126.3 113.76,-117.55"/>
<polygon fill="black" stroke="black" points="117.07,-118.69 117.4,-108.1 110.54,-116.17 117.07,-118.69"/>
<g id="a_edge3&#45;headlabel"><a xlink:href="dir_000074_000053.html" target="_top" xlink:title="1">
<text text-anchor="middle" x="118.42" y="-120.57" font-family="Helvetica,sans-Serif" font-size="10.00">1</text>
</a>
</g>
</g>
<!-- dir_cab9f8330899b1cc9d753b1d9c5c5a3e&#45;&gt;dir_84ef7c054b4edc3447cfba80cee80f65 -->
<g id="edge1" class="edge">
<title>dir_cab9f8330899b1cc9d753b1d9c5c5a3e&#45;&gt;dir_84ef7c054b4edc3447cfba80cee80f65</title>
<path fill="none" stroke="black" d="M117.08,-71.7C113.93,-63.81 110.12,-54.3 106.62,-45.55"/>
<polygon fill="black" stroke="black" points="109.81,-44.09 102.84,-36.1 103.31,-46.69 109.81,-44.09"/>
<g id="a_edge1&#45;headlabel"><a xlink:href="dir_000053_000046.html" target="_top" xlink:title="4">
<text text-anchor="middle" x="113.78" y="-43.87" font-family="Helvetica,sans-Serif" font-size="10.00">4</text>
</a>
</g>
</g>
</g>
</svg>
