<?xml version="1.0" encoding="UTF-8" standalone="no"?>
<!DOCTYPE svg PUBLIC "-//W3C//DTD SVG 1.1//EN"
 "http://www.w3.org/Graphics/SVG/1.1/DTD/svg11.dtd">
<!-- Generated by graphviz version 2.43.0 (0)
 -->
<!-- Title: include/mlir/Conversion/SPIRVToLLVM Pages: 1 -->
<svg width="122pt" height="223pt"
 viewBox="0.00 0.00 122.00 223.00" xmlns="http://www.w3.org/2000/svg" xmlns:xlink="http://www.w3.org/1999/xlink">
<g id="graph0" class="graph" transform="scale(1 1) rotate(0) translate(4 219)">
<title>include/mlir/Conversion/SPIRVToLLVM</title>
<g id="clust1" class="cluster">
<title>clusterdir_37f3372f1e76d74ffd54613af9306e43</title>
<g id="a_clust1"><a xlink:href="dir_37f3372f1e76d74ffd54613af9306e43.html" target="_top" xlink:title="Conversion">
<polygon fill="#ddddee" stroke="black" points="8,-136 8,-207 106,-207 106,-136 8,-136"/>
<text text-anchor="middle" x="57" y="-195" font-family="Helvetica,sans-Serif" font-size="10.00">Conversion</text>
</a>
</g>
</g>
<!-- dir_1e00165d2179afddb7bd32edce77635f -->
<g id="node1" class="node">
<title>dir_1e00165d2179afddb7bd32edce77635f</title>
<g id="a_node1"><a xlink:href="dir_1e00165d2179afddb7bd32edce77635f.html" target="_top" xlink:title="SPIRVToLLVM">
<polygon fill="#eeeeff" stroke="black" points="97.5,-180 16.5,-180 16.5,-144 97.5,-144 97.5,-180"/>
<text text-anchor="middle" x="57" y="-159.5" font-family="Helvetica,sans-Serif" font-size="10.00">SPIRVToLLVM</text>
</a>
</g>
</g>
<!-- dir_ca4d1f3bc4cd42ba07a57ca86d19a1d6 -->
<g id="node2" class="node">
<title>dir_ca4d1f3bc4cd42ba07a57ca86d19a1d6</title>
<g id="a_node2"><a xlink:href="dir_ca4d1f3bc4cd42ba07a57ca86d19a1d6.html" target="_top" xlink:title="Transforms">
<polygon fill="none" stroke="black" points="91.5,-36 20.5,-36 20.5,0 91.5,0 91.5,-36"/>
<text text-anchor="middle" x="56" y="-15.5" font-family="Helvetica,sans-Serif" font-size="10.00">Transforms</text>
</a>
</g>
</g>
<!-- dir_1e00165d2179afddb7bd32edce77635f&#45;&gt;dir_ca4d1f3bc4cd42ba07a57ca86d19a1d6 -->
<g id="edge1" class="edge">
<title>dir_1e00165d2179afddb7bd32edce77635f&#45;&gt;dir_ca4d1f3bc4cd42ba07a57ca86d19a1d6</title>
<path fill="none" stroke="black" d="M53.35,-143.91C51.32,-133.57 49.02,-120.09 48,-108 46.66,-92.06 46.8,-87.96 48,-72 48.64,-63.52 49.84,-54.34 51.12,-46.04"/>
<polygon fill="black" stroke="black" points="54.58,-46.55 52.75,-36.11 47.68,-45.41 54.58,-46.55"/>
<g id="a_edge1&#45;headlabel"><a xlink:href="dir_000166_000156.html" target="_top" xlink:title="1">
<text text-anchor="middle" x="56.8" y="-48.05" font-family="Helvetica,sans-Serif" font-size="10.00">1</text>
</a>
</g>
</g>
<!-- dir_d07a6fac82475a065a3b2953573f00a0 -->
<g id="node3" class="node">
<title>dir_d07a6fac82475a065a3b2953573f00a0</title>
<g id="a_node3"><a xlink:href="dir_d07a6fac82475a065a3b2953573f00a0.html" target="_top" xlink:title="Dialect">
<polygon fill="none" stroke="red" points="111,-108 57,-108 57,-72 111,-72 111,-108"/>
<text text-anchor="middle" x="84" y="-87.5" font-family="Helvetica,sans-Serif" font-size="10.00">Dialect</text>
</a>
</g>
</g>
<!-- dir_1e00165d2179afddb7bd32edce77635f&#45;&gt;dir_d07a6fac82475a065a3b2953573f00a0 -->
<g id="edge2" class="edge">
<title>dir_1e00165d2179afddb7bd32edce77635f&#45;&gt;dir_d07a6fac82475a065a3b2953573f00a0</title>
<path fill="none" stroke="black" d="M63.67,-143.7C66.71,-135.81 70.38,-126.3 73.76,-117.55"/>
<polygon fill="black" stroke="black" points="77.07,-118.69 77.4,-108.1 70.54,-116.17 77.07,-118.69"/>
<g id="a_edge2&#45;headlabel"><a xlink:href="dir_000166_000014.html" target="_top" xlink:title="2">
<text text-anchor="middle" x="78.42" y="-120.57" font-family="Helvetica,sans-Serif" font-size="10.00">2</text>
</a>
</g>
</g>
<!-- dir_d07a6fac82475a065a3b2953573f00a0&#45;&gt;dir_ca4d1f3bc4cd42ba07a57ca86d19a1d6 -->
<g id="edge3" class="edge">
<title>dir_d07a6fac82475a065a3b2953573f00a0&#45;&gt;dir_ca4d1f3bc4cd42ba07a57ca86d19a1d6</title>
<path fill="none" stroke="black" d="M77.08,-71.7C73.93,-63.81 70.12,-54.3 66.62,-45.55"/>
<polygon fill="black" stroke="black" points="69.81,-44.09 62.84,-36.1 63.31,-46.69 69.81,-44.09"/>
<g id="a_edge3&#45;headlabel"><a xlink:href="dir_000014_000156.html" target="_top" xlink:title="12">
<text text-anchor="middle" x="73.78" y="-43.87" font-family="Helvetica,sans-Serif" font-size="10.00">12</text>
</a>
</g>
</g>
</g>
</svg>
