<?xml version="1.0" encoding="UTF-8" standalone="no"?>
<!DOCTYPE svg PUBLIC "-//W3C//DTD SVG 1.1//EN"
 "http://www.w3.org/Graphics/SVG/1.1/DTD/svg11.dtd">
<!-- Generated by graphviz version 2.43.0 (0)
 -->
<!-- Title: include/mlir/Dialect/PDLInterp/IR Pages: 1 -->
<svg width="158pt" height="367pt"
 viewBox="0.00 0.00 158.08 367.00" xmlns="http://www.w3.org/2000/svg" xmlns:xlink="http://www.w3.org/1999/xlink">
<g id="graph0" class="graph" transform="scale(1 1) rotate(0) translate(4 363)">
<title>include/mlir/Dialect/PDLInterp/IR</title>
<g id="clust1" class="cluster">
<title>clusterdir_482dadf2361c7e4973b791187b761f10</title>
<g id="a_clust1"><a xlink:href="dir_482dadf2361c7e4973b791187b761f10.html" target="_top" xlink:title="PDLInterp">
<polygon fill="#ddddee" stroke="black" points="38.32,-280 38.32,-351 108.32,-351 108.32,-280 38.32,-280"/>
<text text-anchor="middle" x="73.32" y="-339" font-family="Helvetica,sans-Serif" font-size="10.00">PDLInterp</text>
</a>
</g>
</g>
<!-- dir_a8c6f12efa228aa5a43c358b95a44d70 -->
<g id="node1" class="node">
<title>dir_a8c6f12efa228aa5a43c358b95a44d70</title>
<g id="a_node1"><a xlink:href="dir_a8c6f12efa228aa5a43c358b95a44d70.html" target="_top" xlink:title="IR">
<polygon fill="#eeeeff" stroke="black" points="100.32,-324 46.32,-324 46.32,-288 100.32,-288 100.32,-324"/>
<text text-anchor="middle" x="73.32" y="-303.5" font-family="Helvetica,sans-Serif" font-size="10.00">IR</text>
</a>
</g>
</g>
<!-- dir_51020c1b0909ae629a35fe1c65c620b9 -->
<g id="node2" class="node">
<title>dir_51020c1b0909ae629a35fe1c65c620b9</title>
<g id="a_node2"><a xlink:href="dir_51020c1b0909ae629a35fe1c65c620b9.html" target="_top" xlink:title="Bytecode">
<polygon fill="none" stroke="black" points="75.32,-180 13.32,-180 13.32,-144 75.32,-144 75.32,-180"/>
<text text-anchor="middle" x="44.32" y="-159.5" font-family="Helvetica,sans-Serif" font-size="10.00">Bytecode</text>
</a>
</g>
</g>
<!-- dir_a8c6f12efa228aa5a43c358b95a44d70&#45;&gt;dir_51020c1b0909ae629a35fe1c65c620b9 -->
<g id="edge1" class="edge">
<title>dir_a8c6f12efa228aa5a43c358b95a44d70&#45;&gt;dir_51020c1b0909ae629a35fe1c65c620b9</title>
<path fill="none" stroke="black" d="M69.82,-287.87C64.85,-263.56 55.72,-218.82 49.83,-190.01"/>
<polygon fill="black" stroke="black" points="53.26,-189.29 47.83,-180.19 46.4,-190.69 53.26,-189.29"/>
<g id="a_edge1&#45;headlabel"><a xlink:href="dir_000244_000050.html" target="_top" xlink:title="1">
<text text-anchor="middle" x="56.76" y="-189.74" font-family="Helvetica,sans-Serif" font-size="10.00">1</text>
</a>
</g>
</g>
<!-- dir_84ef7c054b4edc3447cfba80cee80f65 -->
<g id="node3" class="node">
<title>dir_84ef7c054b4edc3447cfba80cee80f65</title>
<g id="a_node3"><a xlink:href="dir_84ef7c054b4edc3447cfba80cee80f65.html" target="_top" xlink:title="IR">
<polygon fill="none" stroke="black" points="92.32,-108 38.32,-108 38.32,-72 92.32,-72 92.32,-108"/>
<text text-anchor="middle" x="65.32" y="-87.5" font-family="Helvetica,sans-Serif" font-size="10.00">IR</text>
</a>
</g>
</g>
<!-- dir_a8c6f12efa228aa5a43c358b95a44d70&#45;&gt;dir_84ef7c054b4edc3447cfba80cee80f65 -->
<g id="edge2" class="edge">
<title>dir_a8c6f12efa228aa5a43c358b95a44d70&#45;&gt;dir_84ef7c054b4edc3447cfba80cee80f65</title>
<path fill="none" stroke="black" d="M60.22,-287.99C43.41,-265 15.14,-222.01 4.32,-180 0.32,-164.51 -2.32,-158.56 4.32,-144 9.87,-131.81 19.77,-121.34 30,-113.01"/>
<polygon fill="black" stroke="black" points="32.34,-115.62 38.19,-106.79 28.11,-110.04 32.34,-115.62"/>
<g id="a_edge2&#45;headlabel"><a xlink:href="dir_000244_000046.html" target="_top" xlink:title="1">
<text text-anchor="middle" x="31.2" y="-117.55" font-family="Helvetica,sans-Serif" font-size="10.00">1</text>
</a>
</g>
</g>
<!-- dir_91f22b83301fe718ee2660008584b692 -->
<g id="node4" class="node">
<title>dir_91f22b83301fe718ee2660008584b692</title>
<g id="a_node4"><a xlink:href="dir_91f22b83301fe718ee2660008584b692.html" target="_top" xlink:title="PDL">
<polygon fill="none" stroke="red" points="128.32,-252 74.32,-252 74.32,-216 128.32,-216 128.32,-252"/>
<text text-anchor="middle" x="101.32" y="-231.5" font-family="Helvetica,sans-Serif" font-size="10.00">PDL</text>
</a>
</g>
</g>
<!-- dir_a8c6f12efa228aa5a43c358b95a44d70&#45;&gt;dir_91f22b83301fe718ee2660008584b692 -->
<g id="edge3" class="edge">
<title>dir_a8c6f12efa228aa5a43c358b95a44d70&#45;&gt;dir_91f22b83301fe718ee2660008584b692</title>
<path fill="none" stroke="black" d="M80.24,-287.7C83.39,-279.81 87.19,-270.3 90.7,-261.55"/>
<polygon fill="black" stroke="black" points="94.01,-262.69 94.47,-252.1 87.51,-260.09 94.01,-262.69"/>
<g id="a_edge3&#45;headlabel"><a xlink:href="dir_000244_000241.html" target="_top" xlink:title="2">
<text text-anchor="middle" x="95.31" y="-264.58" font-family="Helvetica,sans-Serif" font-size="10.00">2</text>
</a>
</g>
</g>
<!-- dir_cf63c3ddb21c79ef735682489f4c6a69 -->
<g id="node5" class="node">
<title>dir_cf63c3ddb21c79ef735682489f4c6a69</title>
<g id="a_node5"><a xlink:href="dir_cf63c3ddb21c79ef735682489f4c6a69.html" target="_top" xlink:title="Interfaces">
<polygon fill="none" stroke="red" points="124.82,-36 59.82,-36 59.82,0 124.82,0 124.82,-36"/>
<text text-anchor="middle" x="92.32" y="-15.5" font-family="Helvetica,sans-Serif" font-size="10.00">Interfaces</text>
</a>
</g>
</g>
<!-- dir_a8c6f12efa228aa5a43c358b95a44d70&#45;&gt;dir_cf63c3ddb21c79ef735682489f4c6a69 -->
<g id="edge4" class="edge">
<title>dir_a8c6f12efa228aa5a43c358b95a44d70&#45;&gt;dir_cf63c3ddb21c79ef735682489f4c6a69</title>
<path fill="none" stroke="black" d="M100.41,-290.39C114.2,-281.34 129.64,-268.32 137.32,-252 170.15,-182.19 130.87,-89.84 107.41,-45.28"/>
<polygon fill="black" stroke="black" points="110.37,-43.4 102.54,-36.27 104.22,-46.73 110.37,-43.4"/>
<g id="a_edge4&#45;headlabel"><a xlink:href="dir_000244_000279.html" target="_top" xlink:title="3">
<text text-anchor="middle" x="114.58" y="-42.71" font-family="Helvetica,sans-Serif" font-size="10.00">3</text>
</a>
</g>
</g>
<!-- dir_51020c1b0909ae629a35fe1c65c620b9&#45;&gt;dir_84ef7c054b4edc3447cfba80cee80f65 -->
<g id="edge10" class="edge">
<title>dir_51020c1b0909ae629a35fe1c65c620b9&#45;&gt;dir_84ef7c054b4edc3447cfba80cee80f65</title>
<path fill="none" stroke="black" d="M43.59,-143.7C45.14,-135.81 47.78,-126.3 50.78,-117.55"/>
<polygon fill="black" stroke="black" points="54.09,-118.7 54.29,-108.1 47.53,-116.26 54.09,-118.7"/>
<g id="a_edge10&#45;headlabel"><a xlink:href="dir_000050_000046.html" target="_top" xlink:title="9">
<text text-anchor="middle" x="55.5" y="-120.56" font-family="Helvetica,sans-Serif" font-size="10.00">9</text>
</a>
</g>
</g>
<!-- dir_84ef7c054b4edc3447cfba80cee80f65&#45;&gt;dir_51020c1b0909ae629a35fe1c65c620b9 -->
<g id="edge5" class="edge">
<title>dir_84ef7c054b4edc3447cfba80cee80f65&#45;&gt;dir_51020c1b0909ae629a35fe1c65c620b9</title>
<path fill="none" stroke="black" d="M66.08,-108.1C64.55,-115.96 61.93,-125.46 58.93,-134.23"/>
<polygon fill="black" stroke="black" points="55.61,-133.1 55.42,-143.7 62.18,-135.53 55.61,-133.1"/>
<g id="a_edge5&#45;headlabel"><a xlink:href="dir_000046_000050.html" target="_top" xlink:title="2">
<text text-anchor="middle" x="54.2" y="-126.25" font-family="Helvetica,sans-Serif" font-size="10.00">2</text>
</a>
</g>
</g>
<!-- dir_84ef7c054b4edc3447cfba80cee80f65&#45;&gt;dir_cf63c3ddb21c79ef735682489f4c6a69 -->
<g id="edge6" class="edge">
<title>dir_84ef7c054b4edc3447cfba80cee80f65&#45;&gt;dir_cf63c3ddb21c79ef735682489f4c6a69</title>
<path fill="none" stroke="black" d="M66.07,-71.7C68.33,-63.73 71.83,-54.1 75.63,-45.26"/>
<polygon fill="black" stroke="black" points="78.84,-46.65 79.82,-36.1 72.48,-43.74 78.84,-46.65"/>
<g id="a_edge6&#45;headlabel"><a xlink:href="dir_000046_000279.html" target="_top" xlink:title="3">
<text text-anchor="middle" x="79.92" y="-48.6" font-family="Helvetica,sans-Serif" font-size="10.00">3</text>
</a>
</g>
</g>
<!-- dir_91f22b83301fe718ee2660008584b692&#45;&gt;dir_51020c1b0909ae629a35fe1c65c620b9 -->
<g id="edge7" class="edge">
<title>dir_91f22b83301fe718ee2660008584b692&#45;&gt;dir_51020c1b0909ae629a35fe1c65c620b9</title>
<path fill="none" stroke="black" d="M87.23,-215.7C80.39,-207.3 72.06,-197.07 64.56,-187.86"/>
<polygon fill="black" stroke="black" points="67.27,-185.65 58.24,-180.1 61.84,-190.07 67.27,-185.65"/>
<g id="a_edge7&#45;headlabel"><a xlink:href="dir_000241_000050.html" target="_top" xlink:title="1">
<text text-anchor="middle" x="71.74" y="-184.14" font-family="Helvetica,sans-Serif" font-size="10.00">1</text>
</a>
</g>
</g>
<!-- dir_91f22b83301fe718ee2660008584b692&#45;&gt;dir_84ef7c054b4edc3447cfba80cee80f65 -->
<g id="edge8" class="edge">
<title>dir_91f22b83301fe718ee2660008584b692&#45;&gt;dir_84ef7c054b4edc3447cfba80cee80f65</title>
<path fill="none" stroke="black" d="M98.84,-215.76C96.05,-197.69 91.03,-168.58 84.32,-144 81.97,-135.42 78.9,-126.24 75.9,-117.98"/>
<polygon fill="black" stroke="black" points="79.12,-116.59 72.35,-108.45 72.56,-119.04 79.12,-116.59"/>
<g id="a_edge8&#45;headlabel"><a xlink:href="dir_000241_000046.html" target="_top" xlink:title="5">
<text text-anchor="middle" x="83.04" y="-116.47" font-family="Helvetica,sans-Serif" font-size="10.00">5</text>
</a>
</g>
</g>
<!-- dir_91f22b83301fe718ee2660008584b692&#45;&gt;dir_cf63c3ddb21c79ef735682489f4c6a69 -->
<g id="edge9" class="edge">
<title>dir_91f22b83301fe718ee2660008584b692&#45;&gt;dir_cf63c3ddb21c79ef735682489f4c6a69</title>
<path fill="none" stroke="black" d="M102.27,-215.57C103.68,-185.98 105.71,-124.08 101.32,-72 100.6,-63.5 99.25,-54.31 97.8,-46.01"/>
<polygon fill="black" stroke="black" points="101.23,-45.29 95.97,-36.09 94.35,-46.56 101.23,-45.29"/>
<g id="a_edge9&#45;headlabel"><a xlink:href="dir_000241_000279.html" target="_top" xlink:title="1">
<text text-anchor="middle" x="104.68" y="-45.81" font-family="Helvetica,sans-Serif" font-size="10.00">1</text>
</a>
</g>
</g>
<!-- dir_cf63c3ddb21c79ef735682489f4c6a69&#45;&gt;dir_84ef7c054b4edc3447cfba80cee80f65 -->
<g id="edge11" class="edge">
<title>dir_cf63c3ddb21c79ef735682489f4c6a69&#45;&gt;dir_84ef7c054b4edc3447cfba80cee80f65</title>
<path fill="none" stroke="black" d="M91.61,-36.1C89.38,-44.04 85.9,-53.67 82.1,-62.51"/>
<polygon fill="black" stroke="black" points="78.88,-61.15 77.91,-71.7 85.25,-64.06 78.88,-61.15"/>
<g id="a_edge11&#45;headlabel"><a xlink:href="dir_000279_000046.html" target="_top" xlink:title="54">
<text text-anchor="middle" x="77.79" y="-54.2" font-family="Helvetica,sans-Serif" font-size="10.00">54</text>
</a>
</g>
</g>
</g>
</svg>
