<?xml version="1.0" encoding="UTF-8" standalone="no"?>
<!DOCTYPE svg PUBLIC "-//W3C//DTD SVG 1.1//EN"
 "http://www.w3.org/Graphics/SVG/1.1/DTD/svg11.dtd">
<!-- Generated by graphviz version 2.43.0 (0)
 -->
<!-- Title: include/mlir/Conversion/MemRefToSPIRV Pages: 1 -->
<svg width="154pt" height="295pt"
 viewBox="0.00 0.00 154.00 295.00" xmlns="http://www.w3.org/2000/svg" xmlns:xlink="http://www.w3.org/1999/xlink">
<g id="graph0" class="graph" transform="scale(1 1) rotate(0) translate(4 291)">
<title>include/mlir/Conversion/MemRefToSPIRV</title>
<g id="clust1" class="cluster">
<title>clusterdir_37f3372f1e76d74ffd54613af9306e43</title>
<g id="a_clust1"><a xlink:href="dir_37f3372f1e76d74ffd54613af9306e43.html" target="_top" xlink:title="Conversion">
<polygon fill="#ddddee" stroke="black" points="8,-208 8,-279 120,-279 120,-208 8,-208"/>
<text text-anchor="middle" x="64" y="-267" font-family="Helvetica,sans-Serif" font-size="10.00">Conversion</text>
</a>
</g>
</g>
<!-- dir_1b7e2b2103350c0489bd4f97c093ae4c -->
<g id="node1" class="node">
<title>dir_1b7e2b2103350c0489bd4f97c093ae4c</title>
<g id="a_node1"><a xlink:href="dir_1b7e2b2103350c0489bd4f97c093ae4c.html" target="_top" xlink:title="MemRefToSPIRV">
<polygon fill="#eeeeff" stroke="black" points="112.5,-252 15.5,-252 15.5,-216 112.5,-216 112.5,-252"/>
<text text-anchor="middle" x="64" y="-231.5" font-family="Helvetica,sans-Serif" font-size="10.00">MemRefToSPIRV</text>
</a>
</g>
</g>
<!-- dir_ca4d1f3bc4cd42ba07a57ca86d19a1d6 -->
<g id="node2" class="node">
<title>dir_ca4d1f3bc4cd42ba07a57ca86d19a1d6</title>
<g id="a_node2"><a xlink:href="dir_ca4d1f3bc4cd42ba07a57ca86d19a1d6.html" target="_top" xlink:title="Transforms">
<polygon fill="none" stroke="black" points="112.5,-108 41.5,-108 41.5,-72 112.5,-72 112.5,-108"/>
<text text-anchor="middle" x="77" y="-87.5" font-family="Helvetica,sans-Serif" font-size="10.00">Transforms</text>
</a>
</g>
</g>
<!-- dir_1b7e2b2103350c0489bd4f97c093ae4c&#45;&gt;dir_ca4d1f3bc4cd42ba07a57ca86d19a1d6 -->
<g id="edge2" class="edge">
<title>dir_1b7e2b2103350c0489bd4f97c093ae4c&#45;&gt;dir_ca4d1f3bc4cd42ba07a57ca86d19a1d6</title>
<path fill="none" stroke="black" d="M65.57,-215.87C67.78,-191.67 71.85,-147.21 74.49,-118.39"/>
<polygon fill="black" stroke="black" points="78,-118.47 75.43,-108.19 71.03,-117.83 78,-118.47"/>
<g id="a_edge2&#45;headlabel"><a xlink:href="dir_000104_000156.html" target="_top" xlink:title="1">
<text text-anchor="middle" x="80.5" y="-119.81" font-family="Helvetica,sans-Serif" font-size="10.00">1</text>
</a>
</g>
</g>
<!-- dir_cab9f8330899b1cc9d753b1d9c5c5a3e -->
<g id="node3" class="node">
<title>dir_cab9f8330899b1cc9d753b1d9c5c5a3e</title>
<g id="a_node3"><a xlink:href="dir_cab9f8330899b1cc9d753b1d9c5c5a3e.html" target="_top" xlink:title="Pass">
<polygon fill="none" stroke="black" points="104,-36 50,-36 50,0 104,0 104,-36"/>
<text text-anchor="middle" x="77" y="-15.5" font-family="Helvetica,sans-Serif" font-size="10.00">Pass</text>
</a>
</g>
</g>
<!-- dir_1b7e2b2103350c0489bd4f97c093ae4c&#45;&gt;dir_cab9f8330899b1cc9d753b1d9c5c5a3e -->
<g id="edge3" class="edge">
<title>dir_1b7e2b2103350c0489bd4f97c093ae4c&#45;&gt;dir_cab9f8330899b1cc9d753b1d9c5c5a3e</title>
<path fill="none" stroke="black" d="M54.52,-215.6C39.45,-185.55 13.53,-122.29 32,-72 35.78,-61.7 42.56,-52.02 49.72,-43.84"/>
<polygon fill="black" stroke="black" points="52.34,-46.16 56.62,-36.47 47.23,-41.38 52.34,-46.16"/>
<g id="a_edge3&#45;headlabel"><a xlink:href="dir_000104_000053.html" target="_top" xlink:title="1">
<text text-anchor="middle" x="51.96" y="-48.22" font-family="Helvetica,sans-Serif" font-size="10.00">1</text>
</a>
</g>
</g>
<!-- dir_d07a6fac82475a065a3b2953573f00a0 -->
<g id="node4" class="node">
<title>dir_d07a6fac82475a065a3b2953573f00a0</title>
<g id="a_node4"><a xlink:href="dir_d07a6fac82475a065a3b2953573f00a0.html" target="_top" xlink:title="Dialect">
<polygon fill="none" stroke="red" points="146,-180 92,-180 92,-144 146,-144 146,-180"/>
<text text-anchor="middle" x="119" y="-159.5" font-family="Helvetica,sans-Serif" font-size="10.00">Dialect</text>
</a>
</g>
</g>
<!-- dir_1b7e2b2103350c0489bd4f97c093ae4c&#45;&gt;dir_d07a6fac82475a065a3b2953573f00a0 -->
<g id="edge4" class="edge">
<title>dir_1b7e2b2103350c0489bd4f97c093ae4c&#45;&gt;dir_d07a6fac82475a065a3b2953573f00a0</title>
<path fill="none" stroke="black" d="M77.6,-215.7C84.12,-207.39 92.07,-197.28 99.25,-188.14"/>
<polygon fill="black" stroke="black" points="102.13,-190.13 105.56,-180.1 96.63,-185.81 102.13,-190.13"/>
<g id="a_edge4&#45;headlabel"><a xlink:href="dir_000104_000014.html" target="_top" xlink:title="2">
<text text-anchor="middle" x="102.15" y="-192.21" font-family="Helvetica,sans-Serif" font-size="10.00">2</text>
</a>
</g>
</g>
<!-- dir_ca4d1f3bc4cd42ba07a57ca86d19a1d6&#45;&gt;dir_cab9f8330899b1cc9d753b1d9c5c5a3e -->
<g id="edge1" class="edge">
<title>dir_ca4d1f3bc4cd42ba07a57ca86d19a1d6&#45;&gt;dir_cab9f8330899b1cc9d753b1d9c5c5a3e</title>
<path fill="none" stroke="black" d="M77,-71.7C77,-63.98 77,-54.71 77,-46.11"/>
<polygon fill="black" stroke="black" points="80.5,-46.1 77,-36.1 73.5,-46.1 80.5,-46.1"/>
<g id="a_edge1&#45;headlabel"><a xlink:href="dir_000156_000053.html" target="_top" xlink:title="4">
<text text-anchor="middle" x="83.34" y="-47.2" font-family="Helvetica,sans-Serif" font-size="10.00">4</text>
</a>
</g>
</g>
<!-- dir_d07a6fac82475a065a3b2953573f00a0&#45;&gt;dir_ca4d1f3bc4cd42ba07a57ca86d19a1d6 -->
<g id="edge5" class="edge">
<title>dir_d07a6fac82475a065a3b2953573f00a0&#45;&gt;dir_ca4d1f3bc4cd42ba07a57ca86d19a1d6</title>
<path fill="none" stroke="black" d="M108.62,-143.7C103.74,-135.56 97.81,-125.69 92.42,-116.7"/>
<polygon fill="black" stroke="black" points="95.41,-114.88 87.26,-108.1 89.41,-118.48 95.41,-114.88"/>
<g id="a_edge5&#45;headlabel"><a xlink:href="dir_000014_000156.html" target="_top" xlink:title="12">
<text text-anchor="middle" x="99.69" y="-114" font-family="Helvetica,sans-Serif" font-size="10.00">12</text>
</a>
</g>
</g>
<!-- dir_d07a6fac82475a065a3b2953573f00a0&#45;&gt;dir_cab9f8330899b1cc9d753b1d9c5c5a3e -->
<g id="edge6" class="edge">
<title>dir_d07a6fac82475a065a3b2953573f00a0&#45;&gt;dir_cab9f8330899b1cc9d753b1d9c5c5a3e</title>
<path fill="none" stroke="black" d="M122.99,-143.68C126.4,-125.3 129.55,-95.7 121,-72 117.25,-61.6 110.46,-51.8 103.33,-43.52"/>
<polygon fill="black" stroke="black" points="105.83,-41.06 96.47,-36.08 100.68,-45.81 105.83,-41.06"/>
<g id="a_edge6&#45;headlabel"><a xlink:href="dir_000014_000053.html" target="_top" xlink:title="32">
<text text-anchor="middle" x="110.35" y="-39.28" font-family="Helvetica,sans-Serif" font-size="10.00">32</text>
</a>
</g>
</g>
</g>
</svg>
