<?xml version="1.0" encoding="UTF-8" standalone="no"?>
<!DOCTYPE svg PUBLIC "-//W3C//DTD SVG 1.1//EN"
 "http://www.w3.org/Graphics/SVG/1.1/DTD/svg11.dtd">
<!-- Generated by graphviz version 2.43.0 (0)
 -->
<!-- Title: include/mlir/Dialect/Arith/Utils Pages: 1 -->
<svg width="105pt" height="223pt"
 viewBox="0.00 0.00 105.00 223.00" xmlns="http://www.w3.org/2000/svg" xmlns:xlink="http://www.w3.org/1999/xlink">
<g id="graph0" class="graph" transform="scale(1 1) rotate(0) translate(4 219)">
<title>include/mlir/Dialect/Arith/Utils</title>
<g id="clust1" class="cluster">
<title>clusterdir_687ef06ec02158f82af83f8ed0273ebe</title>
<g id="a_clust1"><a xlink:href="dir_687ef06ec02158f82af83f8ed0273ebe.html" target="_top" xlink:title="Arith">
<polygon fill="#ddddee" stroke="black" points="8,-64 8,-207 78,-207 78,-64 8,-64"/>
<text text-anchor="middle" x="43" y="-195" font-family="Helvetica,sans-Serif" font-size="10.00">Arith</text>
</a>
</g>
</g>
<!-- dir_9d377a3d35ac5f67aff3c0397697ed6b -->
<g id="node1" class="node">
<title>dir_9d377a3d35ac5f67aff3c0397697ed6b</title>
<g id="a_node1"><a xlink:href="dir_9d377a3d35ac5f67aff3c0397697ed6b.html" target="_top" xlink:title="IR">
<polygon fill="none" stroke="black" points="70,-108 16,-108 16,-72 70,-72 70,-108"/>
<text text-anchor="middle" x="43" y="-87.5" font-family="Helvetica,sans-Serif" font-size="10.00">IR</text>
</a>
</g>
</g>
<!-- dir_84ef7c054b4edc3447cfba80cee80f65 -->
<g id="node3" class="node">
<title>dir_84ef7c054b4edc3447cfba80cee80f65</title>
<g id="a_node3"><a xlink:href="dir_84ef7c054b4edc3447cfba80cee80f65.html" target="_top" xlink:title="IR">
<polygon fill="none" stroke="black" points="97,-36 43,-36 43,0 97,0 97,-36"/>
<text text-anchor="middle" x="70" y="-15.5" font-family="Helvetica,sans-Serif" font-size="10.00">IR</text>
</a>
</g>
</g>
<!-- dir_9d377a3d35ac5f67aff3c0397697ed6b&#45;&gt;dir_84ef7c054b4edc3447cfba80cee80f65 -->
<g id="edge1" class="edge">
<title>dir_9d377a3d35ac5f67aff3c0397697ed6b&#45;&gt;dir_84ef7c054b4edc3447cfba80cee80f65</title>
<path fill="none" stroke="black" d="M49.67,-71.7C52.71,-63.81 56.38,-54.3 59.76,-45.55"/>
<polygon fill="black" stroke="black" points="63.07,-46.69 63.4,-36.1 56.54,-44.17 63.07,-46.69"/>
<g id="a_edge1&#45;headlabel"><a xlink:href="dir_000187_000046.html" target="_top" xlink:title="3">
<text text-anchor="middle" x="64.42" y="-48.57" font-family="Helvetica,sans-Serif" font-size="10.00">3</text>
</a>
</g>
</g>
<!-- dir_752a0fd0e9aac2f65917fe3327f62a3b -->
<g id="node2" class="node">
<title>dir_752a0fd0e9aac2f65917fe3327f62a3b</title>
<g id="a_node2"><a xlink:href="dir_752a0fd0e9aac2f65917fe3327f62a3b.html" target="_top" xlink:title="Utils">
<polygon fill="#eeeeff" stroke="black" points="70,-180 16,-180 16,-144 70,-144 70,-180"/>
<text text-anchor="middle" x="43" y="-159.5" font-family="Helvetica,sans-Serif" font-size="10.00">Utils</text>
</a>
</g>
</g>
<!-- dir_752a0fd0e9aac2f65917fe3327f62a3b&#45;&gt;dir_9d377a3d35ac5f67aff3c0397697ed6b -->
<g id="edge3" class="edge">
<title>dir_752a0fd0e9aac2f65917fe3327f62a3b&#45;&gt;dir_9d377a3d35ac5f67aff3c0397697ed6b</title>
<path fill="none" stroke="black" d="M43,-143.7C43,-135.98 43,-126.71 43,-118.11"/>
<polygon fill="black" stroke="black" points="46.5,-118.1 43,-108.1 39.5,-118.1 46.5,-118.1"/>
<g id="a_edge3&#45;headlabel"><a xlink:href="dir_000018_000187.html" target="_top" xlink:title="1">
<text text-anchor="middle" x="49.34" y="-119.2" font-family="Helvetica,sans-Serif" font-size="10.00">1</text>
</a>
</g>
</g>
<!-- dir_752a0fd0e9aac2f65917fe3327f62a3b&#45;&gt;dir_84ef7c054b4edc3447cfba80cee80f65 -->
<g id="edge2" class="edge">
<title>dir_752a0fd0e9aac2f65917fe3327f62a3b&#45;&gt;dir_84ef7c054b4edc3447cfba80cee80f65</title>
<path fill="none" stroke="black" d="M58.61,-143.77C66.37,-134.03 74.95,-121.18 79,-108 85.22,-87.77 82.27,-63.87 78.15,-45.92"/>
<polygon fill="black" stroke="black" points="81.51,-44.95 75.65,-36.12 74.73,-46.68 81.51,-44.95"/>
<g id="a_edge2&#45;headlabel"><a xlink:href="dir_000018_000046.html" target="_top" xlink:title="3">
<text text-anchor="middle" x="85.15" y="-45.23" font-family="Helvetica,sans-Serif" font-size="10.00">3</text>
</a>
</g>
</g>
</g>
</svg>
