<?xml version="1.0" encoding="UTF-8" standalone="no"?>
<!DOCTYPE svg PUBLIC "-//W3C//DTD SVG 1.1//EN"
 "http://www.w3.org/Graphics/SVG/1.1/DTD/svg11.dtd">
<!-- Generated by graphviz version 2.43.0 (0)
 -->
<!-- Title: include/mlir/Dialect/Polynomial Pages: 1 -->
<svg width="226pt" height="303pt"
 viewBox="0.00 0.00 225.50 303.00" xmlns="http://www.w3.org/2000/svg" xmlns:xlink="http://www.w3.org/1999/xlink">
<g id="graph0" class="graph" transform="scale(1 1) rotate(0) translate(4 299)">
<title>include/mlir/Dialect/Polynomial</title>
<g id="clust1" class="cluster">
<title>clusterdir_d07a6fac82475a065a3b2953573f00a0</title>
<g id="a_clust1"><a xlink:href="dir_d07a6fac82475a065a3b2953573f00a0.html" target="_top" xlink:title="Dialect">
<polygon fill="#ddddee" stroke="black" points="33.5,-200 33.5,-287 209.5,-287 209.5,-200 33.5,-200"/>
<text text-anchor="middle" x="121.5" y="-275" font-family="Helvetica,sans-Serif" font-size="10.00">Dialect</text>
</a>
</g>
</g>
<g id="clust2" class="cluster">
<title>clusterdir_46fb409cf8724da4c81d238ab2203c04</title>
<g id="a_clust2"><a xlink:href="dir_46fb409cf8724da4c81d238ab2203c04.html" target="_top">
<polygon fill="#eeeeff" stroke="black" points="41.5,-208 41.5,-260 201.5,-260 201.5,-208 41.5,-208"/>
</a>
</g>
</g>
<!-- dir_46fb409cf8724da4c81d238ab2203c04 -->
<g id="node1" class="node">
<title>dir_46fb409cf8724da4c81d238ab2203c04</title>
<text text-anchor="middle" x="157.5" y="-231.5" font-family="Helvetica,sans-Serif" font-size="10.00">Polynomial</text>
</g>
<!-- dir_d45f925359dd2023bb58ed4c38d755f1 -->
<g id="node2" class="node">
<title>dir_d45f925359dd2023bb58ed4c38d755f1</title>
<g id="a_node2"><a xlink:href="dir_d45f925359dd2023bb58ed4c38d755f1.html" target="_top" xlink:title="IR">
<polygon fill="white" stroke="black" points="103.5,-252 49.5,-252 49.5,-216 103.5,-216 103.5,-252"/>
<text text-anchor="middle" x="76.5" y="-231.5" font-family="Helvetica,sans-Serif" font-size="10.00">IR</text>
</a>
</g>
</g>
<!-- dir_84ef7c054b4edc3447cfba80cee80f65 -->
<g id="node3" class="node">
<title>dir_84ef7c054b4edc3447cfba80cee80f65</title>
<g id="a_node3"><a xlink:href="dir_84ef7c054b4edc3447cfba80cee80f65.html" target="_top" xlink:title="IR">
<polygon fill="none" stroke="black" points="103.5,-180 49.5,-180 49.5,-144 103.5,-144 103.5,-180"/>
<text text-anchor="middle" x="76.5" y="-159.5" font-family="Helvetica,sans-Serif" font-size="10.00">IR</text>
</a>
</g>
</g>
<!-- dir_d45f925359dd2023bb58ed4c38d755f1&#45;&gt;dir_84ef7c054b4edc3447cfba80cee80f65 -->
<g id="edge3" class="edge">
<title>dir_d45f925359dd2023bb58ed4c38d755f1&#45;&gt;dir_84ef7c054b4edc3447cfba80cee80f65</title>
<path fill="none" stroke="black" d="M76.5,-215.7C76.5,-207.98 76.5,-198.71 76.5,-190.11"/>
<polygon fill="black" stroke="black" points="80,-190.1 76.5,-180.1 73,-190.1 80,-190.1"/>
<g id="a_edge3&#45;headlabel"><a xlink:href="dir_000242_000044.html" target="_top" xlink:title="7">
<text text-anchor="middle" x="82.84" y="-191.2" font-family="Helvetica,sans-Serif" font-size="10.00">7</text>
</a>
</g>
</g>
<!-- dir_cf63c3ddb21c79ef735682489f4c6a69 -->
<g id="node4" class="node">
<title>dir_cf63c3ddb21c79ef735682489f4c6a69</title>
<g id="a_node4"><a xlink:href="dir_cf63c3ddb21c79ef735682489f4c6a69.html" target="_top" xlink:title="Interfaces">
<polygon fill="none" stroke="red" points="65,-108 0,-108 0,-72 65,-72 65,-108"/>
<text text-anchor="middle" x="32.5" y="-87.5" font-family="Helvetica,sans-Serif" font-size="10.00">Interfaces</text>
</a>
</g>
</g>
<!-- dir_d45f925359dd2023bb58ed4c38d755f1&#45;&gt;dir_cf63c3ddb21c79ef735682489f4c6a69 -->
<g id="edge4" class="edge">
<title>dir_d45f925359dd2023bb58ed4c38d755f1&#45;&gt;dir_cf63c3ddb21c79ef735682489f4c6a69</title>
<path fill="none" stroke="black" d="M61.36,-215.62C53.73,-205.83 45.14,-192.99 40.5,-180 33.42,-160.19 31.6,-136.39 31.45,-118.39"/>
<polygon fill="black" stroke="black" points="34.95,-118.3 31.53,-108.27 27.95,-118.25 34.95,-118.3"/>
<g id="a_edge4&#45;headlabel"><a xlink:href="dir_000242_000275.html" target="_top" xlink:title="1">
<text text-anchor="middle" x="37.76" y="-119.42" font-family="Helvetica,sans-Serif" font-size="10.00">1</text>
</a>
</g>
</g>
<!-- dir_f61d47671007dfdb592580b61f960d39 -->
<g id="node5" class="node">
<title>dir_f61d47671007dfdb592580b61f960d39</title>
<g id="a_node5"><a xlink:href="dir_f61d47671007dfdb592580b61f960d39.html" target="_top" xlink:title="Support">
<polygon fill="none" stroke="black" points="120.5,-36 66.5,-36 66.5,0 120.5,0 120.5,-36"/>
<text text-anchor="middle" x="93.5" y="-15.5" font-family="Helvetica,sans-Serif" font-size="10.00">Support</text>
</a>
</g>
</g>
<!-- dir_d45f925359dd2023bb58ed4c38d755f1&#45;&gt;dir_f61d47671007dfdb592580b61f960d39 -->
<g id="edge5" class="edge">
<title>dir_d45f925359dd2023bb58ed4c38d755f1&#45;&gt;dir_f61d47671007dfdb592580b61f960d39</title>
<path fill="none" stroke="black" d="M92.11,-215.77C99.87,-206.03 108.45,-193.18 112.5,-180 126.53,-134.36 113.63,-78.51 103.32,-46.02"/>
<polygon fill="black" stroke="black" points="106.58,-44.73 100.1,-36.34 99.93,-46.93 106.58,-44.73"/>
<g id="a_edge5&#45;headlabel"><a xlink:href="dir_000242_000284.html" target="_top" xlink:title="1">
<text text-anchor="middle" x="110.4" y="-44.74" font-family="Helvetica,sans-Serif" font-size="10.00">1</text>
</a>
</g>
</g>
<!-- dir_84ef7c054b4edc3447cfba80cee80f65&#45;&gt;dir_cf63c3ddb21c79ef735682489f4c6a69 -->
<g id="edge1" class="edge">
<title>dir_84ef7c054b4edc3447cfba80cee80f65&#45;&gt;dir_cf63c3ddb21c79ef735682489f4c6a69</title>
<path fill="none" stroke="black" d="M59.71,-143.7C53.82,-135.64 47.48,-125.89 42.29,-116.98"/>
<polygon fill="black" stroke="black" points="45.27,-115.15 37.36,-108.1 39.15,-118.55 45.27,-115.15"/>
<g id="a_edge1&#45;headlabel"><a xlink:href="dir_000044_000275.html" target="_top" xlink:title="3">
<text text-anchor="middle" x="49.5" y="-114.41" font-family="Helvetica,sans-Serif" font-size="10.00">3</text>
</a>
</g>
</g>
<!-- dir_84ef7c054b4edc3447cfba80cee80f65&#45;&gt;dir_f61d47671007dfdb592580b61f960d39 -->
<g id="edge2" class="edge">
<title>dir_84ef7c054b4edc3447cfba80cee80f65&#45;&gt;dir_f61d47671007dfdb592580b61f960d39</title>
<path fill="none" stroke="black" d="M78.55,-143.87C81.45,-119.67 86.77,-75.21 90.22,-46.39"/>
<polygon fill="black" stroke="black" points="93.73,-46.53 91.44,-36.19 86.78,-45.7 93.73,-46.53"/>
<g id="a_edge2&#45;headlabel"><a xlink:href="dir_000044_000284.html" target="_top" xlink:title="22">
<text text-anchor="middle" x="96.12" y="-47.94" font-family="Helvetica,sans-Serif" font-size="10.00">22</text>
</a>
</g>
</g>
<!-- dir_cf63c3ddb21c79ef735682489f4c6a69&#45;&gt;dir_84ef7c054b4edc3447cfba80cee80f65 -->
<g id="edge6" class="edge">
<title>dir_cf63c3ddb21c79ef735682489f4c6a69&#45;&gt;dir_84ef7c054b4edc3447cfba80cee80f65</title>
<path fill="none" stroke="black" d="M49.15,-108.1C55.03,-116.13 61.38,-125.87 66.59,-134.8"/>
<polygon fill="black" stroke="black" points="63.62,-136.66 71.54,-143.7 69.73,-133.26 63.62,-136.66"/>
<g id="a_edge6&#45;headlabel"><a xlink:href="dir_000275_000044.html" target="_top" xlink:title="50">
<text text-anchor="middle" x="59.39" y="-132.4" font-family="Helvetica,sans-Serif" font-size="10.00">50</text>
</a>
</g>
</g>
<!-- dir_cf63c3ddb21c79ef735682489f4c6a69&#45;&gt;dir_f61d47671007dfdb592580b61f960d39 -->
<g id="edge7" class="edge">
<title>dir_cf63c3ddb21c79ef735682489f4c6a69&#45;&gt;dir_f61d47671007dfdb592580b61f960d39</title>
<path fill="none" stroke="black" d="M47.58,-71.7C54.89,-63.3 63.81,-53.07 71.84,-43.86"/>
<polygon fill="black" stroke="black" points="74.66,-45.94 78.59,-36.1 69.39,-41.34 74.66,-45.94"/>
<g id="a_edge7&#45;headlabel"><a xlink:href="dir_000275_000284.html" target="_top" xlink:title="2">
<text text-anchor="middle" x="74.44" y="-48.02" font-family="Helvetica,sans-Serif" font-size="10.00">2</text>
</a>
</g>
</g>
</g>
</svg>
