<?xml version="1.0" encoding="UTF-8" standalone="no"?>
<!DOCTYPE svg PUBLIC "-//W3C//DTD SVG 1.1//EN"
 "http://www.w3.org/Graphics/SVG/1.1/DTD/svg11.dtd">
<!-- Generated by graphviz version 2.43.0 (0)
 -->
<!-- Title: lib/Dialect/X86 Pages: 1 -->
<svg width="387pt" height="125pt"
 viewBox="0.00 0.00 387.00 125.00" xmlns="http://www.w3.org/2000/svg" xmlns:xlink="http://www.w3.org/1999/xlink">
<g id="graph0" class="graph" transform="scale(1 1) rotate(0) translate(4 121)">
<title>lib/Dialect/X86</title>
<g id="clust1" class="cluster">
<title>clusterdir_1a25ec519b6c1121408b67cc33ce3f15</title>
<g id="a_clust1"><a xlink:href="dir_1a25ec519b6c1121408b67cc33ce3f15.html" target="_top" xlink:title="Dialect">
<polygon fill="#edf0f7" stroke="#7f7f7f" stroke-dasharray="5,2" points="8,-39 8,-109 371,-109 371,-39 8,-39"/>
<text text-anchor="middle" x="189.5" y="-97" font-family="Helvetica,sans-Serif" font-size="10.00">Dialect</text>
</a>
</g>
</g>
<g id="clust2" class="cluster">
<title>clusterdir_e0c04279d432b423afc3413943c43ecf</title>
<g id="a_clust2"><a xlink:href="dir_e0c04279d432b423afc3413943c43ecf.html" target="_top">
<polygon fill="#edf0f7" stroke="#404040" stroke-width="2" points="16,-47 16,-82 363,-82 363,-47 16,-47"/>
</a>
</g>
</g>
<!-- dir_e0c04279d432b423afc3413943c43ecf -->
<g id="node1" class="node">
<title>dir_e0c04279d432b423afc3413943c43ecf</title>
<text text-anchor="middle" x="337" y="-62" font-family="Helvetica,sans-Serif" font-size="10.00">X86</text>
</g>
<!-- dir_68abd6d11302afe52535dcc9ac1951ee -->
<g id="node2" class="node">
<title>dir_68abd6d11302afe52535dcc9ac1951ee</title>
<g id="a_node2"><a xlink:href="dir_68abd6d11302afe52535dcc9ac1951ee.html" target="_top" xlink:title="IR">
<polygon fill="#a2b4d6" stroke="#404040" points="301.5,-74 272.5,-74 272.5,-55 301.5,-55 301.5,-74"/>
<text text-anchor="middle" x="287" y="-62" font-family="Helvetica,sans-Serif" font-size="10.00">IR</text>
</a>
</g>
</g>
<!-- dir_d44c64559bbebec7f509842c48db8b23 -->
<g id="node6" class="node">
<title>dir_d44c64559bbebec7f509842c48db8b23</title>
<g id="a_node6"><a xlink:href="dir_d44c64559bbebec7f509842c48db8b23.html" target="_top" xlink:title="include">
<polygon fill="#edf0f7" stroke="red" points="191,-19 139,-19 139,0 191,0 191,-19"/>
<text text-anchor="middle" x="165" y="-7" font-family="Helvetica,sans-Serif" font-size="10.00">include</text>
</a>
</g>
</g>
<!-- dir_68abd6d11302afe52535dcc9ac1951ee&#45;&gt;dir_d44c64559bbebec7f509842c48db8b23 -->
<g id="edge1" class="edge">
<title>dir_68abd6d11302afe52535dcc9ac1951ee&#45;&gt;dir_d44c64559bbebec7f509842c48db8b23</title>
<g id="a_edge1"><a xlink:href="dir_000262_000163.html" target="_top">
<path fill="none" stroke="#63b8ff" d="M280.66,-54.65C276.48,-49.4 270.57,-43.02 264,-39 244.98,-27.38 221.03,-20.32 201.44,-16.13"/>
<polygon fill="#63b8ff" stroke="#63b8ff" points="201.85,-12.64 191.36,-14.14 200.49,-19.51 201.85,-12.64"/>
</a>
</g>
<g id="a_edge1&#45;headlabel"><a xlink:href="dir_000262_000163.html" target="_top" xlink:title="8">
<text text-anchor="middle" x="205.92" y="-8.05" font-family="Helvetica,sans-Serif" font-size="10.00" fill="#63b8ff">8</text>
</a>
</g>
</g>
<!-- dir_f0c87eb60eb5a3b7d355277379c35f74 -->
<g id="node3" class="node">
<title>dir_f0c87eb60eb5a3b7d355277379c35f74</title>
<g id="a_node3"><a xlink:href="dir_f0c87eb60eb5a3b7d355277379c35f74.html" target="_top" xlink:title="TransformOps">
<polygon fill="#a2b4d6" stroke="#404040" points="255,-74 171,-74 171,-55 255,-55 255,-74"/>
<text text-anchor="middle" x="213" y="-62" font-family="Helvetica,sans-Serif" font-size="10.00">TransformOps</text>
</a>
</g>
</g>
<!-- dir_f0c87eb60eb5a3b7d355277379c35f74&#45;&gt;dir_d44c64559bbebec7f509842c48db8b23 -->
<g id="edge2" class="edge">
<title>dir_f0c87eb60eb5a3b7d355277379c35f74&#45;&gt;dir_d44c64559bbebec7f509842c48db8b23</title>
<g id="a_edge2"><a xlink:href="dir_000539_000163.html" target="_top">
<path fill="none" stroke="#63b8ff" d="M205.07,-54.75C198.15,-47.11 187.93,-35.82 179.55,-26.56"/>
<polygon fill="#63b8ff" stroke="#63b8ff" points="182.09,-24.15 172.78,-19.09 176.9,-28.85 182.09,-24.15"/>
</a>
</g>
<g id="a_edge2&#45;headlabel"><a xlink:href="dir_000539_000163.html" target="_top" xlink:title="10">
<text text-anchor="middle" x="186.6" y="-22.41" font-family="Helvetica,sans-Serif" font-size="10.00" fill="#63b8ff">10</text>
</a>
</g>
</g>
<!-- dir_6222f8184a39f4524d65e0537a4b68eb -->
<g id="node4" class="node">
<title>dir_6222f8184a39f4524d65e0537a4b68eb</title>
<g id="a_node4"><a xlink:href="dir_6222f8184a39f4524d65e0537a4b68eb.html" target="_top" xlink:title="Transforms">
<polygon fill="#a2b4d6" stroke="#404040" points="152.5,-74 81.5,-74 81.5,-55 152.5,-55 152.5,-74"/>
<text text-anchor="middle" x="117" y="-62" font-family="Helvetica,sans-Serif" font-size="10.00">Transforms</text>
</a>
</g>
</g>
<!-- dir_6222f8184a39f4524d65e0537a4b68eb&#45;&gt;dir_d44c64559bbebec7f509842c48db8b23 -->
<g id="edge3" class="edge">
<title>dir_6222f8184a39f4524d65e0537a4b68eb&#45;&gt;dir_d44c64559bbebec7f509842c48db8b23</title>
<g id="a_edge3"><a xlink:href="dir_000605_000163.html" target="_top">
<path fill="none" stroke="#63b8ff" d="M124.93,-54.75C131.85,-47.11 142.07,-35.82 150.45,-26.56"/>
<polygon fill="#63b8ff" stroke="#63b8ff" points="153.1,-28.85 157.22,-19.09 147.91,-24.15 153.1,-28.85"/>
</a>
</g>
<g id="a_edge3&#45;headlabel"><a xlink:href="dir_000605_000163.html" target="_top" xlink:title="73">
<text text-anchor="middle" x="152.79" y="-30.92" font-family="Helvetica,sans-Serif" font-size="10.00" fill="#63b8ff">73</text>
</a>
</g>
</g>
<!-- dir_907b53a0146d385ecbe0e36d2a3785bc -->
<g id="node5" class="node">
<title>dir_907b53a0146d385ecbe0e36d2a3785bc</title>
<g id="a_node5"><a xlink:href="dir_907b53a0146d385ecbe0e36d2a3785bc.html" target="_top" xlink:title="Utils">
<polygon fill="#a2b4d6" stroke="#404040" points="63.5,-74 24.5,-74 24.5,-55 63.5,-55 63.5,-74"/>
<text text-anchor="middle" x="44" y="-62" font-family="Helvetica,sans-Serif" font-size="10.00">Utils</text>
</a>
</g>
</g>
<!-- dir_907b53a0146d385ecbe0e36d2a3785bc&#45;&gt;dir_d44c64559bbebec7f509842c48db8b23 -->
<g id="edge4" class="edge">
<title>dir_907b53a0146d385ecbe0e36d2a3785bc&#45;&gt;dir_d44c64559bbebec7f509842c48db8b23</title>
<g id="a_edge4"><a xlink:href="dir_000659_000163.html" target="_top">
<path fill="none" stroke="#63b8ff" d="M52.45,-54.76C57.9,-49.56 65.37,-43.18 73,-39 90.41,-29.47 111.45,-22.65 129.02,-18.07"/>
<polygon fill="#63b8ff" stroke="#63b8ff" points="130.03,-21.43 138.91,-15.64 128.36,-14.63 130.03,-21.43"/>
</a>
</g>
<g id="a_edge4&#45;headlabel"><a xlink:href="dir_000659_000163.html" target="_top" xlink:title="8">
<text text-anchor="middle" x="127.22" y="-22.55" font-family="Helvetica,sans-Serif" font-size="10.00" fill="#63b8ff">8</text>
</a>
</g>
</g>
</g>
</svg>
