<?xml version="1.0" encoding="UTF-8" standalone="no"?>
<!DOCTYPE svg PUBLIC "-//W3C//DTD SVG 1.1//EN"
 "http://www.w3.org/Graphics/SVG/1.1/DTD/svg11.dtd">
<!-- Generated by graphviz version 2.43.0 (0)
 -->
<!-- Title: include/mlir/Dialect/ArmSME/IR Pages: 1 -->
<svg width="372pt" height="439pt"
 viewBox="0.00 0.00 372.10 439.00" xmlns="http://www.w3.org/2000/svg" xmlns:xlink="http://www.w3.org/1999/xlink">
<g id="graph0" class="graph" transform="scale(1 1) rotate(0) translate(4 435)">
<title>include/mlir/Dialect/ArmSME/IR</title>
<g id="clust1" class="cluster">
<title>clusterdir_e42d9d2b117d1272004d4481c3e91441</title>
<g id="a_clust1"><a xlink:href="dir_e42d9d2b117d1272004d4481c3e91441.html" target="_top" xlink:title="ArmSME">
<polygon fill="#ddddee" stroke="black" points="133.1,-280 133.1,-423 203.1,-423 203.1,-280 133.1,-280"/>
<text text-anchor="middle" x="168.1" y="-411" font-family="Helvetica,sans-Serif" font-size="10.00">ArmSME</text>
</a>
</g>
</g>
<!-- dir_031e5175b9f471dbaec2522156ed612f -->
<g id="node1" class="node">
<title>dir_031e5175b9f471dbaec2522156ed612f</title>
<g id="a_node1"><a xlink:href="dir_031e5175b9f471dbaec2522156ed612f.html" target="_top" xlink:title="Utils">
<polygon fill="none" stroke="black" points="195.1,-396 141.1,-396 141.1,-360 195.1,-360 195.1,-396"/>
<text text-anchor="middle" x="168.1" y="-375.5" font-family="Helvetica,sans-Serif" font-size="10.00">Utils</text>
</a>
</g>
</g>
<!-- dir_74f8b9178a6e50d7374c597d3528e343 -->
<g id="node2" class="node">
<title>dir_74f8b9178a6e50d7374c597d3528e343</title>
<g id="a_node2"><a xlink:href="dir_74f8b9178a6e50d7374c597d3528e343.html" target="_top" xlink:title="IR">
<polygon fill="#eeeeff" stroke="black" points="195.1,-324 141.1,-324 141.1,-288 195.1,-288 195.1,-324"/>
<text text-anchor="middle" x="168.1" y="-303.5" font-family="Helvetica,sans-Serif" font-size="10.00">IR</text>
</a>
</g>
</g>
<!-- dir_031e5175b9f471dbaec2522156ed612f&#45;&gt;dir_74f8b9178a6e50d7374c597d3528e343 -->
<g id="edge4" class="edge">
<title>dir_031e5175b9f471dbaec2522156ed612f&#45;&gt;dir_74f8b9178a6e50d7374c597d3528e343</title>
<path fill="none" stroke="black" d="M162.18,-359.7C161.39,-351.98 161.16,-342.71 161.5,-334.11"/>
<polygon fill="black" stroke="black" points="165,-334.32 162.2,-324.1 158.01,-333.84 165,-334.32"/>
<g id="a_edge4&#45;headlabel"><a xlink:href="dir_000020_000207.html" target="_top" xlink:title="2">
<text text-anchor="middle" x="167.58" y="-335.61" font-family="Helvetica,sans-Serif" font-size="10.00">2</text>
</a>
</g>
</g>
<!-- dir_47aca9e8d6a16a6d14cf434a05d15774 -->
<g id="node3" class="node">
<title>dir_47aca9e8d6a16a6d14cf434a05d15774</title>
<g id="a_node3"><a xlink:href="dir_47aca9e8d6a16a6d14cf434a05d15774.html" target="_top" xlink:title="SCF">
<polygon fill="none" stroke="red" points="68.1,-252 14.1,-252 14.1,-216 68.1,-216 68.1,-252"/>
<text text-anchor="middle" x="41.1" y="-231.5" font-family="Helvetica,sans-Serif" font-size="10.00">SCF</text>
</a>
</g>
</g>
<!-- dir_031e5175b9f471dbaec2522156ed612f&#45;&gt;dir_47aca9e8d6a16a6d14cf434a05d15774 -->
<g id="edge3" class="edge">
<title>dir_031e5175b9f471dbaec2522156ed612f&#45;&gt;dir_47aca9e8d6a16a6d14cf434a05d15774</title>
<path fill="none" stroke="black" d="M152.78,-359.87C130.47,-334.92 88.9,-288.45 63.25,-259.77"/>
<polygon fill="black" stroke="black" points="65.75,-257.31 56.47,-252.19 60.53,-261.98 65.75,-257.31"/>
<g id="a_edge3&#45;headlabel"><a xlink:href="dir_000020_000029.html" target="_top" xlink:title="1">
<text text-anchor="middle" x="70.26" y="-255.6" font-family="Helvetica,sans-Serif" font-size="10.00">1</text>
</a>
</g>
</g>
<!-- dir_84ef7c054b4edc3447cfba80cee80f65 -->
<g id="node6" class="node">
<title>dir_84ef7c054b4edc3447cfba80cee80f65</title>
<g id="a_node6"><a xlink:href="dir_84ef7c054b4edc3447cfba80cee80f65.html" target="_top" xlink:title="IR">
<polygon fill="none" stroke="black" points="180.1,-108 126.1,-108 126.1,-72 180.1,-72 180.1,-108"/>
<text text-anchor="middle" x="153.1" y="-87.5" font-family="Helvetica,sans-Serif" font-size="10.00">IR</text>
</a>
</g>
</g>
<!-- dir_031e5175b9f471dbaec2522156ed612f&#45;&gt;dir_84ef7c054b4edc3447cfba80cee80f65 -->
<g id="edge5" class="edge">
<title>dir_031e5175b9f471dbaec2522156ed612f&#45;&gt;dir_84ef7c054b4edc3447cfba80cee80f65</title>
<path fill="none" stroke="black" d="M141.06,-366.57C101.57,-349.59 30.07,-311.71 5.1,-252 -21.59,-188.19 64.64,-133.67 116.6,-107.53"/>
<polygon fill="black" stroke="black" points="118.43,-110.53 125.87,-102.98 115.35,-104.25 118.43,-110.53"/>
<g id="a_edge5&#45;headlabel"><a xlink:href="dir_000020_000046.html" target="_top" xlink:title="1">
<text text-anchor="middle" x="116.46" y="-112.16" font-family="Helvetica,sans-Serif" font-size="10.00">1</text>
</a>
</g>
</g>
<!-- dir_cf63c3ddb21c79ef735682489f4c6a69 -->
<g id="node8" class="node">
<title>dir_cf63c3ddb21c79ef735682489f4c6a69</title>
<g id="a_node8"><a xlink:href="dir_cf63c3ddb21c79ef735682489f4c6a69.html" target="_top" xlink:title="Interfaces">
<polygon fill="none" stroke="red" points="185.6,-36 120.6,-36 120.6,0 185.6,0 185.6,-36"/>
<text text-anchor="middle" x="153.1" y="-15.5" font-family="Helvetica,sans-Serif" font-size="10.00">Interfaces</text>
</a>
</g>
</g>
<!-- dir_031e5175b9f471dbaec2522156ed612f&#45;&gt;dir_cf63c3ddb21c79ef735682489f4c6a69 -->
<g id="edge6" class="edge">
<title>dir_031e5175b9f471dbaec2522156ed612f&#45;&gt;dir_cf63c3ddb21c79ef735682489f4c6a69</title>
<path fill="none" stroke="black" d="M195.35,-370.83C249.21,-356.84 364.1,-317.36 364.1,-235 364.1,-235 364.1,-235 364.1,-161 364.1,-80.48 257.04,-42.62 195.44,-27.5"/>
<polygon fill="black" stroke="black" points="196.14,-24.07 185.6,-25.19 194.53,-30.89 196.14,-24.07"/>
<g id="a_edge6&#45;headlabel"><a xlink:href="dir_000020_000279.html" target="_top" xlink:title="1">
<text text-anchor="middle" x="200.29" y="-19.63" font-family="Helvetica,sans-Serif" font-size="10.00">1</text>
</a>
</g>
</g>
<!-- dir_74f8b9178a6e50d7374c597d3528e343&#45;&gt;dir_031e5175b9f471dbaec2522156ed612f -->
<g id="edge18" class="edge">
<title>dir_74f8b9178a6e50d7374c597d3528e343&#45;&gt;dir_031e5175b9f471dbaec2522156ed612f</title>
<path fill="none" stroke="black" d="M173.99,-324.1C174.8,-331.79 175.03,-341.05 174.7,-349.67"/>
<polygon fill="black" stroke="black" points="171.21,-349.48 174.01,-359.7 178.19,-349.96 171.21,-349.48"/>
<g id="a_edge18&#45;headlabel"><a xlink:href="dir_000207_000020.html" target="_top" xlink:title="1">
<text text-anchor="middle" x="168.62" y="-343.2" font-family="Helvetica,sans-Serif" font-size="10.00">1</text>
</a>
</g>
</g>
<!-- dir_74f8b9178a6e50d7374c597d3528e343&#45;&gt;dir_47aca9e8d6a16a6d14cf434a05d15774 -->
<g id="edge19" class="edge">
<title>dir_74f8b9178a6e50d7374c597d3528e343&#45;&gt;dir_47aca9e8d6a16a6d14cf434a05d15774</title>
<path fill="none" stroke="black" d="M140.85,-289.98C122.27,-279.74 97.46,-266.07 77.23,-254.92"/>
<polygon fill="black" stroke="black" points="78.74,-251.75 68.3,-249.99 75.36,-257.88 78.74,-251.75"/>
<g id="a_edge19&#45;headlabel"><a xlink:href="dir_000207_000029.html" target="_top" xlink:title="1">
<text text-anchor="middle" x="83.26" y="-248.5" font-family="Helvetica,sans-Serif" font-size="10.00">1</text>
</a>
</g>
</g>
<!-- dir_51020c1b0909ae629a35fe1c65c620b9 -->
<g id="node4" class="node">
<title>dir_51020c1b0909ae629a35fe1c65c620b9</title>
<g id="a_node4"><a xlink:href="dir_51020c1b0909ae629a35fe1c65c620b9.html" target="_top" xlink:title="Bytecode">
<polygon fill="none" stroke="black" points="184.1,-180 122.1,-180 122.1,-144 184.1,-144 184.1,-180"/>
<text text-anchor="middle" x="153.1" y="-159.5" font-family="Helvetica,sans-Serif" font-size="10.00">Bytecode</text>
</a>
</g>
</g>
<!-- dir_74f8b9178a6e50d7374c597d3528e343&#45;&gt;dir_51020c1b0909ae629a35fe1c65c620b9 -->
<g id="edge20" class="edge">
<title>dir_74f8b9178a6e50d7374c597d3528e343&#45;&gt;dir_51020c1b0909ae629a35fe1c65c620b9</title>
<path fill="none" stroke="black" d="M166.29,-287.87C163.73,-263.67 159.03,-219.21 155.99,-190.39"/>
<polygon fill="black" stroke="black" points="159.44,-189.77 154.91,-180.19 152.48,-190.5 159.44,-189.77"/>
<g id="a_edge20&#45;headlabel"><a xlink:href="dir_000207_000050.html" target="_top" xlink:title="1">
<text text-anchor="middle" x="162.64" y="-190.54" font-family="Helvetica,sans-Serif" font-size="10.00">1</text>
</a>
</g>
</g>
<!-- dir_8363a04659a248511e559fc4df76a233 -->
<g id="node5" class="node">
<title>dir_8363a04659a248511e559fc4df76a233</title>
<g id="a_node5"><a xlink:href="dir_8363a04659a248511e559fc4df76a233.html" target="_top" xlink:title="LLVMIR">
<polygon fill="none" stroke="red" points="294.1,-252 240.1,-252 240.1,-216 294.1,-216 294.1,-252"/>
<text text-anchor="middle" x="267.1" y="-231.5" font-family="Helvetica,sans-Serif" font-size="10.00">LLVMIR</text>
</a>
</g>
</g>
<!-- dir_74f8b9178a6e50d7374c597d3528e343&#45;&gt;dir_8363a04659a248511e559fc4df76a233 -->
<g id="edge21" class="edge">
<title>dir_74f8b9178a6e50d7374c597d3528e343&#45;&gt;dir_8363a04659a248511e559fc4df76a233</title>
<path fill="none" stroke="black" d="M192.31,-287.88C205.02,-278.89 220.76,-267.76 234.52,-258.03"/>
<polygon fill="black" stroke="black" points="236.64,-260.82 242.79,-252.19 232.6,-255.11 236.64,-260.82"/>
<g id="a_edge21&#45;headlabel"><a xlink:href="dir_000207_000125.html" target="_top" xlink:title="1">
<text text-anchor="middle" x="235.35" y="-262.71" font-family="Helvetica,sans-Serif" font-size="10.00">1</text>
</a>
</g>
</g>
<!-- dir_74f8b9178a6e50d7374c597d3528e343&#45;&gt;dir_84ef7c054b4edc3447cfba80cee80f65 -->
<g id="edge22" class="edge">
<title>dir_74f8b9178a6e50d7374c597d3528e343&#45;&gt;dir_84ef7c054b4edc3447cfba80cee80f65</title>
<path fill="none" stroke="black" d="M176.03,-287.63C188.59,-257.62 209.99,-194.42 193.1,-144 189.75,-134 183.68,-124.38 177.27,-116.14"/>
<polygon fill="black" stroke="black" points="179.92,-113.85 170.83,-108.4 174.54,-118.33 179.92,-113.85"/>
<g id="a_edge22&#45;headlabel"><a xlink:href="dir_000207_000046.html" target="_top" xlink:title="4">
<text text-anchor="middle" x="184.4" y="-112.3" font-family="Helvetica,sans-Serif" font-size="10.00">4</text>
</a>
</g>
</g>
<!-- dir_bfd3493254b3df47293537524626123b -->
<g id="node7" class="node">
<title>dir_bfd3493254b3df47293537524626123b</title>
<g id="a_node7"><a xlink:href="dir_bfd3493254b3df47293537524626123b.html" target="_top" xlink:title="Vector">
<polygon fill="none" stroke="red" points="140.1,-252 86.1,-252 86.1,-216 140.1,-216 140.1,-252"/>
<text text-anchor="middle" x="113.1" y="-231.5" font-family="Helvetica,sans-Serif" font-size="10.00">Vector</text>
</a>
</g>
</g>
<!-- dir_74f8b9178a6e50d7374c597d3528e343&#45;&gt;dir_bfd3493254b3df47293537524626123b -->
<g id="edge23" class="edge">
<title>dir_74f8b9178a6e50d7374c597d3528e343&#45;&gt;dir_bfd3493254b3df47293537524626123b</title>
<path fill="none" stroke="black" d="M154.5,-287.7C147.97,-279.39 140.03,-269.28 132.85,-260.14"/>
<polygon fill="black" stroke="black" points="135.47,-257.81 126.54,-252.1 129.96,-262.13 135.47,-257.81"/>
<g id="a_edge23&#45;headlabel"><a xlink:href="dir_000207_000151.html" target="_top" xlink:title="2">
<text text-anchor="middle" x="139.92" y="-256.38" font-family="Helvetica,sans-Serif" font-size="10.00">2</text>
</a>
</g>
</g>
<!-- dir_74f8b9178a6e50d7374c597d3528e343&#45;&gt;dir_cf63c3ddb21c79ef735682489f4c6a69 -->
<g id="edge24" class="edge">
<title>dir_74f8b9178a6e50d7374c597d3528e343&#45;&gt;dir_cf63c3ddb21c79ef735682489f4c6a69</title>
<path fill="none" stroke="black" d="M195.12,-303.08C227.06,-299.2 278.92,-287.47 303.1,-252 312.11,-238.78 306.6,-231.61 303.1,-216 287.4,-145.98 278.06,-125.36 230.1,-72 219.7,-60.43 206.29,-50.09 193.58,-41.69"/>
<polygon fill="black" stroke="black" points="195.25,-38.6 184.94,-36.18 191.49,-44.51 195.25,-38.6"/>
<g id="a_edge24&#45;headlabel"><a xlink:href="dir_000207_000279.html" target="_top" xlink:title="1">
<text text-anchor="middle" x="199.81" y="-35.64" font-family="Helvetica,sans-Serif" font-size="10.00">1</text>
</a>
</g>
</g>
<!-- dir_47aca9e8d6a16a6d14cf434a05d15774&#45;&gt;dir_51020c1b0909ae629a35fe1c65c620b9 -->
<g id="edge16" class="edge">
<title>dir_47aca9e8d6a16a6d14cf434a05d15774&#45;&gt;dir_51020c1b0909ae629a35fe1c65c620b9</title>
<path fill="none" stroke="black" d="M68.21,-216.05C82.96,-206.84 101.39,-195.32 117.3,-185.37"/>
<polygon fill="black" stroke="black" points="119.22,-188.3 125.85,-180.03 115.51,-182.36 119.22,-188.3"/>
<g id="a_edge16&#45;headlabel"><a xlink:href="dir_000029_000050.html" target="_top" xlink:title="1">
<text text-anchor="middle" x="117.68" y="-190.11" font-family="Helvetica,sans-Serif" font-size="10.00">1</text>
</a>
</g>
</g>
<!-- dir_47aca9e8d6a16a6d14cf434a05d15774&#45;&gt;dir_84ef7c054b4edc3447cfba80cee80f65 -->
<g id="edge14" class="edge">
<title>dir_47aca9e8d6a16a6d14cf434a05d15774&#45;&gt;dir_84ef7c054b4edc3447cfba80cee80f65</title>
<path fill="none" stroke="black" d="M52.04,-215.73C63.9,-197.39 83.74,-167.82 103.1,-144 110.99,-134.28 120.26,-124.15 128.66,-115.39"/>
<polygon fill="black" stroke="black" points="131.3,-117.69 135.76,-108.08 126.28,-112.81 131.3,-117.69"/>
<g id="a_edge14&#45;headlabel"><a xlink:href="dir_000029_000046.html" target="_top" xlink:title="8">
<text text-anchor="middle" x="130.83" y="-119.74" font-family="Helvetica,sans-Serif" font-size="10.00">8</text>
</a>
</g>
</g>
<!-- dir_47aca9e8d6a16a6d14cf434a05d15774&#45;&gt;dir_cf63c3ddb21c79ef735682489f4c6a69 -->
<g id="edge15" class="edge">
<title>dir_47aca9e8d6a16a6d14cf434a05d15774&#45;&gt;dir_cf63c3ddb21c79ef735682489f4c6a69</title>
<path fill="none" stroke="black" d="M44.68,-215.86C51.66,-185.11 69.19,-119.37 100.1,-72 106.86,-61.63 115.92,-51.65 124.63,-43.2"/>
<polygon fill="black" stroke="black" points="127.21,-45.58 132.13,-36.2 122.43,-40.47 127.21,-45.58"/>
<g id="a_edge15&#45;headlabel"><a xlink:href="dir_000029_000279.html" target="_top" xlink:title="11">
<text text-anchor="middle" x="126.52" y="-47.61" font-family="Helvetica,sans-Serif" font-size="10.00">11</text>
</a>
</g>
</g>
<!-- dir_51020c1b0909ae629a35fe1c65c620b9&#45;&gt;dir_84ef7c054b4edc3447cfba80cee80f65 -->
<g id="edge13" class="edge">
<title>dir_51020c1b0909ae629a35fe1c65c620b9&#45;&gt;dir_84ef7c054b4edc3447cfba80cee80f65</title>
<path fill="none" stroke="black" d="M147.18,-143.7C146.39,-135.98 146.16,-126.71 146.5,-118.11"/>
<polygon fill="black" stroke="black" points="150,-118.32 147.2,-108.1 143.01,-117.84 150,-118.32"/>
<g id="a_edge13&#45;headlabel"><a xlink:href="dir_000050_000046.html" target="_top" xlink:title="9">
<text text-anchor="middle" x="152.58" y="-119.61" font-family="Helvetica,sans-Serif" font-size="10.00">9</text>
</a>
</g>
</g>
<!-- dir_8363a04659a248511e559fc4df76a233&#45;&gt;dir_51020c1b0909ae629a35fe1c65c620b9 -->
<g id="edge10" class="edge">
<title>dir_8363a04659a248511e559fc4df76a233&#45;&gt;dir_51020c1b0909ae629a35fe1c65c620b9</title>
<path fill="none" stroke="black" d="M240.08,-216.41C225.08,-207.2 206.21,-195.61 189.88,-185.59"/>
<polygon fill="black" stroke="black" points="191.46,-182.45 181.11,-180.2 187.8,-188.42 191.46,-182.45"/>
<g id="a_edge10&#45;headlabel"><a xlink:href="dir_000125_000050.html" target="_top" xlink:title="5">
<text text-anchor="middle" x="196.01" y="-179.41" font-family="Helvetica,sans-Serif" font-size="10.00">5</text>
</a>
</g>
</g>
<!-- dir_8363a04659a248511e559fc4df76a233&#45;&gt;dir_84ef7c054b4edc3447cfba80cee80f65 -->
<g id="edge11" class="edge">
<title>dir_8363a04659a248511e559fc4df76a233&#45;&gt;dir_84ef7c054b4edc3447cfba80cee80f65</title>
<path fill="none" stroke="black" d="M262.1,-215.83C255.93,-196.77 244.01,-165.83 226.1,-144 215.84,-131.51 202,-120.48 189.12,-111.76"/>
<polygon fill="black" stroke="black" points="190.7,-108.61 180.41,-106.1 186.89,-114.48 190.7,-108.61"/>
<g id="a_edge11&#45;headlabel"><a xlink:href="dir_000125_000046.html" target="_top" xlink:title="22">
<text text-anchor="middle" x="195.27" y="-105.69" font-family="Helvetica,sans-Serif" font-size="10.00">22</text>
</a>
</g>
</g>
<!-- dir_8363a04659a248511e559fc4df76a233&#45;&gt;dir_cf63c3ddb21c79ef735682489f4c6a69 -->
<g id="edge12" class="edge">
<title>dir_8363a04659a248511e559fc4df76a233&#45;&gt;dir_cf63c3ddb21c79ef735682489f4c6a69</title>
<path fill="none" stroke="black" d="M266.2,-215.89C264.71,-197.42 260.72,-167.51 250.1,-144 232.52,-105.09 200.53,-67.35 178.11,-43.7"/>
<polygon fill="black" stroke="black" points="180.37,-41.01 170.9,-36.24 175.33,-45.87 180.37,-41.01"/>
<g id="a_edge12&#45;headlabel"><a xlink:href="dir_000125_000279.html" target="_top" xlink:title="12">
<text text-anchor="middle" x="184.91" y="-39.12" font-family="Helvetica,sans-Serif" font-size="10.00">12</text>
</a>
</g>
</g>
<!-- dir_84ef7c054b4edc3447cfba80cee80f65&#45;&gt;dir_51020c1b0909ae629a35fe1c65c620b9 -->
<g id="edge1" class="edge">
<title>dir_84ef7c054b4edc3447cfba80cee80f65&#45;&gt;dir_51020c1b0909ae629a35fe1c65c620b9</title>
<path fill="none" stroke="black" d="M158.99,-108.1C159.8,-115.79 160.03,-125.05 159.7,-133.67"/>
<polygon fill="black" stroke="black" points="156.21,-133.48 159.01,-143.7 163.19,-133.96 156.21,-133.48"/>
<g id="a_edge1&#45;headlabel"><a xlink:href="dir_000046_000050.html" target="_top" xlink:title="2">
<text text-anchor="middle" x="153.62" y="-127.2" font-family="Helvetica,sans-Serif" font-size="10.00">2</text>
</a>
</g>
</g>
<!-- dir_84ef7c054b4edc3447cfba80cee80f65&#45;&gt;dir_cf63c3ddb21c79ef735682489f4c6a69 -->
<g id="edge2" class="edge">
<title>dir_84ef7c054b4edc3447cfba80cee80f65&#45;&gt;dir_cf63c3ddb21c79ef735682489f4c6a69</title>
<path fill="none" stroke="black" d="M147.18,-71.7C146.39,-63.98 146.16,-54.71 146.5,-46.11"/>
<polygon fill="black" stroke="black" points="150,-46.32 147.2,-36.1 143.01,-45.84 150,-46.32"/>
<g id="a_edge2&#45;headlabel"><a xlink:href="dir_000046_000279.html" target="_top" xlink:title="3">
<text text-anchor="middle" x="152.58" y="-47.61" font-family="Helvetica,sans-Serif" font-size="10.00">3</text>
</a>
</g>
</g>
<!-- dir_bfd3493254b3df47293537524626123b&#45;&gt;dir_51020c1b0909ae629a35fe1c65c620b9 -->
<g id="edge7" class="edge">
<title>dir_bfd3493254b3df47293537524626123b&#45;&gt;dir_51020c1b0909ae629a35fe1c65c620b9</title>
<path fill="none" stroke="black" d="M122.98,-215.7C127.59,-207.64 133.16,-197.89 138.25,-188.98"/>
<polygon fill="black" stroke="black" points="141.4,-190.52 143.32,-180.1 135.32,-187.05 141.4,-190.52"/>
<g id="a_edge7&#45;headlabel"><a xlink:href="dir_000151_000050.html" target="_top" xlink:title="1">
<text text-anchor="middle" x="142.08" y="-192.55" font-family="Helvetica,sans-Serif" font-size="10.00">1</text>
</a>
</g>
</g>
<!-- dir_bfd3493254b3df47293537524626123b&#45;&gt;dir_84ef7c054b4edc3447cfba80cee80f65 -->
<g id="edge8" class="edge">
<title>dir_bfd3493254b3df47293537524626123b&#45;&gt;dir_84ef7c054b4edc3447cfba80cee80f65</title>
<path fill="none" stroke="black" d="M109.93,-215.75C107.28,-197.43 105.1,-167.88 113.1,-144 116.45,-134 122.51,-124.38 128.92,-116.14"/>
<polygon fill="black" stroke="black" points="131.66,-118.33 135.36,-108.4 126.28,-113.85 131.66,-118.33"/>
<g id="a_edge8&#45;headlabel"><a xlink:href="dir_000151_000046.html" target="_top" xlink:title="13">
<text text-anchor="middle" x="131.54" y="-120.41" font-family="Helvetica,sans-Serif" font-size="10.00">13</text>
</a>
</g>
</g>
<!-- dir_bfd3493254b3df47293537524626123b&#45;&gt;dir_cf63c3ddb21c79ef735682489f4c6a69 -->
<g id="edge9" class="edge">
<title>dir_bfd3493254b3df47293537524626123b&#45;&gt;dir_cf63c3ddb21c79ef735682489f4c6a69</title>
<path fill="none" stroke="black" d="M109.04,-215.93C106.79,-205.6 104.23,-192.12 103.1,-180 98.59,-131.81 98.5,-116.69 117.1,-72 121.09,-62.4 126.97,-52.74 132.83,-44.34"/>
<polygon fill="black" stroke="black" points="135.77,-46.25 138.84,-36.11 130.12,-42.12 135.77,-46.25"/>
<g id="a_edge9&#45;headlabel"><a xlink:href="dir_000151_000279.html" target="_top" xlink:title="9">
<text text-anchor="middle" x="135.94" y="-48.33" font-family="Helvetica,sans-Serif" font-size="10.00">9</text>
</a>
</g>
</g>
<!-- dir_cf63c3ddb21c79ef735682489f4c6a69&#45;&gt;dir_84ef7c054b4edc3447cfba80cee80f65 -->
<g id="edge17" class="edge">
<title>dir_cf63c3ddb21c79ef735682489f4c6a69&#45;&gt;dir_84ef7c054b4edc3447cfba80cee80f65</title>
<path fill="none" stroke="black" d="M158.99,-36.1C159.8,-43.79 160.03,-53.05 159.7,-61.67"/>
<polygon fill="black" stroke="black" points="156.21,-61.48 159.01,-71.7 163.19,-61.96 156.21,-61.48"/>
<g id="a_edge17&#45;headlabel"><a xlink:href="dir_000279_000046.html" target="_top" xlink:title="54">
<text text-anchor="middle" x="153.62" y="-55.2" font-family="Helvetica,sans-Serif" font-size="10.00">54</text>
</a>
</g>
</g>
</g>
</svg>
