<?xml version="1.0" encoding="UTF-8" standalone="no"?>
<!DOCTYPE svg PUBLIC "-//W3C//DTD SVG 1.1//EN"
 "http://www.w3.org/Graphics/SVG/1.1/DTD/svg11.dtd">
<!-- Generated by graphviz version 2.43.0 (0)
 -->
<!-- Title: include/mlir/Dialect/OpenACC Pages: 1 -->
<svg width="548pt" height="141pt"
 viewBox="0.00 0.00 547.50 141.00" xmlns="http://www.w3.org/2000/svg" xmlns:xlink="http://www.w3.org/1999/xlink">
<g id="graph0" class="graph" transform="scale(1 1) rotate(0) translate(4 137)">
<title>include/mlir/Dialect/OpenACC</title>
<g id="clust1" class="cluster">
<title>clusterdir_d07a6fac82475a065a3b2953573f00a0</title>
<g id="a_clust1"><a xlink:href="dir_d07a6fac82475a065a3b2953573f00a0.html" target="_top" xlink:title="Dialect">
<polygon fill="#edf0f7" stroke="#7f7f7f" stroke-dasharray="5,2" points="8,-8 8,-125 280,-125 280,-8 8,-8"/>
<text text-anchor="middle" x="144" y="-113" font-family="Helvetica,sans-Serif" font-size="10.00">Dialect</text>
</a>
</g>
</g>
<g id="clust2" class="cluster">
<title>clusterdir_3470b8adf5adfc2c11d5647775385d7f</title>
<g id="a_clust2"><a xlink:href="dir_3470b8adf5adfc2c11d5647775385d7f.html" target="_top">
<polygon fill="#edf0f7" stroke="#404040" stroke-width="2" points="28,-63 28,-98 272,-98 272,-63 28,-63"/>
</a>
</g>
</g>
<!-- dir_2dd94a2f24f714d3dc6340c37f136d19 -->
<g id="node1" class="node">
<title>dir_2dd94a2f24f714d3dc6340c37f136d19</title>
<g id="a_node1"><a xlink:href="dir_2dd94a2f24f714d3dc6340c37f136d19.html" target="_top" xlink:title="OpenACCMPCommon">
<polygon fill="#a2b4d6" stroke="red" points="272,-35 150,-35 150,-16 272,-16 272,-35"/>
<text text-anchor="middle" x="211" y="-23" font-family="Helvetica,sans-Serif" font-size="10.00">OpenACCMPCommon</text>
</a>
</g>
</g>
<!-- dir_687ef06ec02158f82af83f8ed0273ebe -->
<g id="node2" class="node">
<title>dir_687ef06ec02158f82af83f8ed0273ebe</title>
<g id="a_node2"><a xlink:href="dir_687ef06ec02158f82af83f8ed0273ebe.html" target="_top" xlink:title="Arith">
<polygon fill="#a2b4d6" stroke="red" points="56,-35 16,-35 16,-16 56,-16 56,-35"/>
<text text-anchor="middle" x="36" y="-23" font-family="Helvetica,sans-Serif" font-size="10.00">Arith</text>
</a>
</g>
</g>
<!-- dir_d0219b36a5ea27d6075e0b14c6f98d85 -->
<g id="node3" class="node">
<title>dir_d0219b36a5ea27d6075e0b14c6f98d85</title>
<g id="a_node3"><a xlink:href="dir_d0219b36a5ea27d6075e0b14c6f98d85.html" target="_top" xlink:title="MemRef">
<polygon fill="#a2b4d6" stroke="red" points="132,-35 74,-35 74,-16 132,-16 132,-35"/>
<text text-anchor="middle" x="103" y="-23" font-family="Helvetica,sans-Serif" font-size="10.00">MemRef</text>
</a>
</g>
</g>
<!-- dir_3470b8adf5adfc2c11d5647775385d7f -->
<g id="node4" class="node">
<title>dir_3470b8adf5adfc2c11d5647775385d7f</title>
<text text-anchor="middle" x="157" y="-78" font-family="Helvetica,sans-Serif" font-size="10.00">OpenACC</text>
</g>
<!-- dir_3470b8adf5adfc2c11d5647775385d7f&#45;&gt;dir_2dd94a2f24f714d3dc6340c37f136d19 -->
<g id="edge1" class="edge">
<title>dir_3470b8adf5adfc2c11d5647775385d7f&#45;&gt;dir_2dd94a2f24f714d3dc6340c37f136d19</title>
<g id="a_edge1"><a xlink:href="dir_000351_000355.html" target="_top">
<path fill="none" stroke="#63b8ff" d="M165.92,-70.75C173.78,-63.03 185.43,-51.6 194.92,-42.28"/>
<polygon fill="#63b8ff" stroke="#63b8ff" points="197.56,-44.59 202.25,-35.09 192.66,-39.6 197.56,-44.59"/>
</a>
</g>
<g id="a_edge1&#45;headlabel"><a xlink:href="dir_000351_000355.html" target="_top" xlink:title="2">
<text text-anchor="middle" x="196.99" y="-46.64" font-family="Helvetica,sans-Serif" font-size="10.00" fill="#63b8ff">2</text>
</a>
</g>
</g>
<!-- dir_51020c1b0909ae629a35fe1c65c620b9 -->
<g id="node7" class="node">
<title>dir_51020c1b0909ae629a35fe1c65c620b9</title>
<g id="a_node7"><a xlink:href="dir_51020c1b0909ae629a35fe1c65c620b9.html" target="_top" xlink:title="Bytecode">
<polygon fill="#edf0f7" stroke="#7f7f7f" points="352,-35 290,-35 290,-16 352,-16 352,-35"/>
<text text-anchor="middle" x="321" y="-23" font-family="Helvetica,sans-Serif" font-size="10.00">Bytecode</text>
</a>
</g>
</g>
<!-- dir_3470b8adf5adfc2c11d5647775385d7f&#45;&gt;dir_51020c1b0909ae629a35fe1c65c620b9 -->
<g id="edge2" class="edge">
<title>dir_3470b8adf5adfc2c11d5647775385d7f&#45;&gt;dir_51020c1b0909ae629a35fe1c65c620b9</title>
<g id="a_edge2"><a xlink:href="dir_000351_000072.html" target="_top">
<path fill="none" stroke="#63b8ff" d="M176.78,-70.86C183.18,-68.19 190.34,-65.35 197,-63 224.32,-53.38 255.61,-44.18 279.92,-37.42"/>
<polygon fill="#63b8ff" stroke="#63b8ff" points="281.17,-40.71 289.88,-34.68 279.31,-33.96 281.17,-40.71"/>
</a>
</g>
<g id="a_edge2&#45;headlabel"><a xlink:href="dir_000351_000072.html" target="_top" xlink:title="1">
<text text-anchor="middle" x="278.46" y="-41.9" font-family="Helvetica,sans-Serif" font-size="10.00" fill="#63b8ff">1</text>
</a>
</g>
</g>
<!-- dir_84ef7c054b4edc3447cfba80cee80f65 -->
<g id="node8" class="node">
<title>dir_84ef7c054b4edc3447cfba80cee80f65</title>
<g id="a_node8"><a xlink:href="dir_84ef7c054b4edc3447cfba80cee80f65.html" target="_top" xlink:title="IR">
<polygon fill="#edf0f7" stroke="#7f7f7f" points="539.5,-35 510.5,-35 510.5,-16 539.5,-16 539.5,-35"/>
<text text-anchor="middle" x="525" y="-23" font-family="Helvetica,sans-Serif" font-size="10.00">IR</text>
</a>
</g>
</g>
<!-- dir_3470b8adf5adfc2c11d5647775385d7f&#45;&gt;dir_84ef7c054b4edc3447cfba80cee80f65 -->
<g id="edge3" class="edge">
<title>dir_3470b8adf5adfc2c11d5647775385d7f&#45;&gt;dir_84ef7c054b4edc3447cfba80cee80f65</title>
<g id="a_edge3"><a xlink:href="dir_000351_000215.html" target="_top">
<path fill="none" stroke="#63b8ff" d="M174.54,-70.93C181.39,-67.94 189.41,-64.87 197,-63 325.66,-31.31 366.56,-62.56 500.63,-34.43"/>
<polygon fill="#63b8ff" stroke="#63b8ff" points="501.41,-37.84 510.45,-32.3 499.93,-31 501.41,-37.84"/>
</a>
</g>
<g id="a_edge3&#45;headlabel"><a xlink:href="dir_000351_000215.html" target="_top" xlink:title="10">
<text text-anchor="middle" x="498.5" y="-38.88" font-family="Helvetica,sans-Serif" font-size="10.00" fill="#63b8ff">10</text>
</a>
</g>
</g>
<!-- dir_cf63c3ddb21c79ef735682489f4c6a69 -->
<g id="node10" class="node">
<title>dir_cf63c3ddb21c79ef735682489f4c6a69</title>
<g id="a_node10"><a xlink:href="dir_cf63c3ddb21c79ef735682489f4c6a69.html" target="_top" xlink:title="Interfaces">
<polygon fill="#edf0f7" stroke="red" stroke-dasharray="5,2" points="435.5,-35 370.5,-35 370.5,-16 435.5,-16 435.5,-35"/>
<text text-anchor="middle" x="403" y="-23" font-family="Helvetica,sans-Serif" font-size="10.00">Interfaces</text>
</a>
</g>
</g>
<!-- dir_3470b8adf5adfc2c11d5647775385d7f&#45;&gt;dir_cf63c3ddb21c79ef735682489f4c6a69 -->
<g id="edge4" class="edge">
<title>dir_3470b8adf5adfc2c11d5647775385d7f&#45;&gt;dir_cf63c3ddb21c79ef735682489f4c6a69</title>
<g id="a_edge4"><a xlink:href="dir_000351_000170.html" target="_top">
<path fill="none" stroke="#63b8ff" d="M175.42,-70.9C182.1,-68.05 189.78,-65.08 197,-63 265.01,-43.43 286.48,-48.09 360.2,-35.05"/>
<polygon fill="#63b8ff" stroke="#63b8ff" points="361.25,-38.42 370.46,-33.19 359.99,-31.54 361.25,-38.42"/>
</a>
</g>
<g id="a_edge4&#45;headlabel"><a xlink:href="dir_000351_000170.html" target="_top" xlink:title="3">
<text text-anchor="middle" x="358.22" y="-39.36" font-family="Helvetica,sans-Serif" font-size="10.00" fill="#63b8ff">3</text>
</a>
</g>
</g>
<!-- dir_5e3e236af9645768fe9ef30136dd266a -->
<g id="node5" class="node">
<title>dir_5e3e236af9645768fe9ef30136dd266a</title>
<g id="a_node5"><a xlink:href="dir_5e3e236af9645768fe9ef30136dd266a.html" target="_top" xlink:title="Analysis">
<polygon fill="#a2b4d6" stroke="#404040" points="264,-90 206,-90 206,-71 264,-71 264,-90"/>
<text text-anchor="middle" x="235" y="-78" font-family="Helvetica,sans-Serif" font-size="10.00">Analysis</text>
</a>
</g>
</g>
<!-- dir_5e3e236af9645768fe9ef30136dd266a&#45;&gt;dir_84ef7c054b4edc3447cfba80cee80f65 -->
<g id="edge5" class="edge">
<title>dir_5e3e236af9645768fe9ef30136dd266a&#45;&gt;dir_84ef7c054b4edc3447cfba80cee80f65</title>
<g id="a_edge5"><a xlink:href="dir_000014_000215.html" target="_top">
<path fill="none" stroke="#63b8ff" d="M264.08,-76.32C311.69,-70.76 409.26,-57.85 500.72,-34.63"/>
<polygon fill="#63b8ff" stroke="#63b8ff" points="501.6,-38.02 510.4,-32.13 499.84,-31.24 501.6,-38.02"/>
</a>
</g>
<g id="a_edge5&#45;headlabel"><a xlink:href="dir_000014_000215.html" target="_top" xlink:title="2">
<text text-anchor="middle" x="498.83" y="-39.17" font-family="Helvetica,sans-Serif" font-size="10.00" fill="#63b8ff">2</text>
</a>
</g>
</g>
<!-- dir_cab9f8330899b1cc9d753b1d9c5c5a3e -->
<g id="node9" class="node">
<title>dir_cab9f8330899b1cc9d753b1d9c5c5a3e</title>
<g id="a_node9"><a xlink:href="dir_cab9f8330899b1cc9d753b1d9c5c5a3e.html" target="_top" xlink:title="Pass">
<polygon fill="#edf0f7" stroke="#7f7f7f" points="492,-35 454,-35 454,-16 492,-16 492,-35"/>
<text text-anchor="middle" x="473" y="-23" font-family="Helvetica,sans-Serif" font-size="10.00">Pass</text>
</a>
</g>
</g>
<!-- dir_5e3e236af9645768fe9ef30136dd266a&#45;&gt;dir_cab9f8330899b1cc9d753b1d9c5c5a3e -->
<g id="edge6" class="edge">
<title>dir_5e3e236af9645768fe9ef30136dd266a&#45;&gt;dir_cab9f8330899b1cc9d753b1d9c5c5a3e</title>
<g id="a_edge6"><a xlink:href="dir_000014_000369.html" target="_top">
<path fill="none" stroke="#63b8ff" d="M264.06,-74.16C302.93,-66.84 374.16,-52.81 443.95,-35.1"/>
<polygon fill="#63b8ff" stroke="#63b8ff" points="444.97,-38.45 453.78,-32.57 443.23,-31.67 444.97,-38.45"/>
</a>
</g>
<g id="a_edge6&#45;headlabel"><a xlink:href="dir_000014_000369.html" target="_top" xlink:title="1">
<text text-anchor="middle" x="442.19" y="-39.59" font-family="Helvetica,sans-Serif" font-size="10.00" fill="#63b8ff">1</text>
</a>
</g>
</g>
<!-- dir_bff18132f34bab82f9d35077db960748 -->
<g id="node6" class="node">
<title>dir_bff18132f34bab82f9d35077db960748</title>
<g id="a_node6"><a xlink:href="dir_bff18132f34bab82f9d35077db960748.html" target="_top" xlink:title="Transforms">
<polygon fill="#a2b4d6" stroke="#404040" points="107.5,-90 36.5,-90 36.5,-71 107.5,-71 107.5,-90"/>
<text text-anchor="middle" x="72" y="-78" font-family="Helvetica,sans-Serif" font-size="10.00">Transforms</text>
</a>
</g>
</g>
<!-- dir_bff18132f34bab82f9d35077db960748&#45;&gt;dir_687ef06ec02158f82af83f8ed0273ebe -->
<g id="edge7" class="edge">
<title>dir_bff18132f34bab82f9d35077db960748&#45;&gt;dir_687ef06ec02158f82af83f8ed0273ebe</title>
<g id="a_edge7"><a xlink:href="dir_000541_000019.html" target="_top">
<path fill="none" stroke="#63b8ff" d="M66.06,-70.75C61.02,-63.34 53.66,-52.5 47.49,-43.41"/>
<polygon fill="#63b8ff" stroke="#63b8ff" points="50.35,-41.39 41.83,-35.09 44.56,-45.33 50.35,-41.39"/>
</a>
</g>
<g id="a_edge7&#45;headlabel"><a xlink:href="dir_000541_000019.html" target="_top" xlink:title="1">
<text text-anchor="middle" x="54.72" y="-40.27" font-family="Helvetica,sans-Serif" font-size="10.00" fill="#63b8ff">1</text>
</a>
</g>
</g>
<!-- dir_bff18132f34bab82f9d35077db960748&#45;&gt;dir_d0219b36a5ea27d6075e0b14c6f98d85 -->
<g id="edge9" class="edge">
<title>dir_bff18132f34bab82f9d35077db960748&#45;&gt;dir_d0219b36a5ea27d6075e0b14c6f98d85</title>
<g id="a_edge9"><a xlink:href="dir_000541_000306.html" target="_top">
<path fill="none" stroke="#63b8ff" d="M77.12,-70.75C81.36,-63.49 87.53,-52.95 92.78,-43.98"/>
<polygon fill="#63b8ff" stroke="#63b8ff" points="95.95,-45.49 97.98,-35.09 89.91,-41.95 95.95,-45.49"/>
</a>
</g>
<g id="a_edge9&#45;headlabel"><a xlink:href="dir_000541_000306.html" target="_top" xlink:title="1">
<text text-anchor="middle" x="96.58" y="-47.52" font-family="Helvetica,sans-Serif" font-size="10.00" fill="#63b8ff">1</text>
</a>
</g>
</g>
<!-- dir_bff18132f34bab82f9d35077db960748&#45;&gt;dir_cab9f8330899b1cc9d753b1d9c5c5a3e -->
<g id="edge8" class="edge">
<title>dir_bff18132f34bab82f9d35077db960748&#45;&gt;dir_cab9f8330899b1cc9d753b1d9c5c5a3e</title>
<g id="a_edge8"><a xlink:href="dir_000541_000369.html" target="_top">
<path fill="none" stroke="#63b8ff" d="M91.82,-70.94C99.54,-67.95 108.55,-64.87 117,-63 256.63,-32.03 299.41,-61.25 443.74,-34.8"/>
<polygon fill="#63b8ff" stroke="#63b8ff" points="444.68,-38.19 453.85,-32.89 443.38,-31.31 444.68,-38.19"/>
</a>
</g>
<g id="a_edge8&#45;headlabel"><a xlink:href="dir_000541_000369.html" target="_top" xlink:title="1">
<text text-anchor="middle" x="441.67" y="-39.15" font-family="Helvetica,sans-Serif" font-size="10.00" fill="#63b8ff">1</text>
</a>
</g>
</g>
</g>
</svg>
