<?xml version="1.0" encoding="UTF-8" standalone="no"?>
<!DOCTYPE svg PUBLIC "-//W3C//DTD SVG 1.1//EN"
 "http://www.w3.org/Graphics/SVG/1.1/DTD/svg11.dtd">
<!-- Generated by graphviz version 2.43.0 (0)
 -->
<!-- Title: include/mlir/Dialect/SPIRV/IR Pages: 1 -->
<svg width="205pt" height="367pt"
 viewBox="0.00 0.00 204.88 367.00" xmlns="http://www.w3.org/2000/svg" xmlns:xlink="http://www.w3.org/1999/xlink">
<g id="graph0" class="graph" transform="scale(1 1) rotate(0) translate(4 363)">
<title>include/mlir/Dialect/SPIRV/IR</title>
<g id="clust1" class="cluster">
<title>clusterdir_98f2b89183a5728f9d4e9316326e5121</title>
<g id="a_clust1"><a xlink:href="dir_98f2b89183a5728f9d4e9316326e5121.html" target="_top" xlink:title="SPIRV">
<polygon fill="#ddddee" stroke="black" points="34,-208 34,-351 116,-351 116,-208 34,-208"/>
<text text-anchor="middle" x="75" y="-339" font-family="Helvetica,sans-Serif" font-size="10.00">SPIRV</text>
</a>
</g>
</g>
<!-- dir_9cdeb4cb7e7d1dc10e757e433fbfed49 -->
<g id="node1" class="node">
<title>dir_9cdeb4cb7e7d1dc10e757e433fbfed49</title>
<g id="a_node1"><a xlink:href="dir_9cdeb4cb7e7d1dc10e757e433fbfed49.html" target="_top" xlink:title="Interfaces">
<polygon fill="none" stroke="black" points="107.5,-252 42.5,-252 42.5,-216 107.5,-216 107.5,-252"/>
<text text-anchor="middle" x="75" y="-231.5" font-family="Helvetica,sans-Serif" font-size="10.00">Interfaces</text>
</a>
</g>
</g>
<!-- dir_84ef7c054b4edc3447cfba80cee80f65 -->
<g id="node4" class="node">
<title>dir_84ef7c054b4edc3447cfba80cee80f65</title>
<g id="a_node4"><a xlink:href="dir_84ef7c054b4edc3447cfba80cee80f65.html" target="_top" xlink:title="IR">
<polygon fill="none" stroke="black" points="117,-180 63,-180 63,-144 117,-144 117,-180"/>
<text text-anchor="middle" x="90" y="-159.5" font-family="Helvetica,sans-Serif" font-size="10.00">IR</text>
</a>
</g>
</g>
<!-- dir_9cdeb4cb7e7d1dc10e757e433fbfed49&#45;&gt;dir_84ef7c054b4edc3447cfba80cee80f65 -->
<g id="edge6" class="edge">
<title>dir_9cdeb4cb7e7d1dc10e757e433fbfed49&#45;&gt;dir_84ef7c054b4edc3447cfba80cee80f65</title>
<path fill="none" stroke="black" d="M78.71,-215.7C80.36,-207.98 82.35,-198.71 84.19,-190.11"/>
<polygon fill="black" stroke="black" points="87.66,-190.62 86.33,-180.1 80.82,-189.15 87.66,-190.62"/>
<g id="a_edge6&#45;headlabel"><a xlink:href="dir_000264_000047.html" target="_top" xlink:title="1">
<text text-anchor="middle" x="89.68" y="-192.23" font-family="Helvetica,sans-Serif" font-size="10.00">1</text>
</a>
</g>
</g>
<!-- dir_9e687c563d07114e1f35bb9eabc86a7f -->
<g id="node2" class="node">
<title>dir_9e687c563d07114e1f35bb9eabc86a7f</title>
<g id="a_node2"><a xlink:href="dir_9e687c563d07114e1f35bb9eabc86a7f.html" target="_top" xlink:title="IR">
<polygon fill="#eeeeff" stroke="black" points="108,-324 54,-324 54,-288 108,-288 108,-324"/>
<text text-anchor="middle" x="81" y="-303.5" font-family="Helvetica,sans-Serif" font-size="10.00">IR</text>
</a>
</g>
</g>
<!-- dir_9e687c563d07114e1f35bb9eabc86a7f&#45;&gt;dir_9cdeb4cb7e7d1dc10e757e433fbfed49 -->
<g id="edge11" class="edge">
<title>dir_9e687c563d07114e1f35bb9eabc86a7f&#45;&gt;dir_9cdeb4cb7e7d1dc10e757e433fbfed49</title>
<path fill="none" stroke="black" d="M79.52,-287.7C78.86,-279.98 78.06,-270.71 77.32,-262.11"/>
<polygon fill="black" stroke="black" points="80.81,-261.77 76.47,-252.1 73.83,-262.37 80.81,-261.77"/>
<g id="a_edge11&#45;headlabel"><a xlink:href="dir_000265_000264.html" target="_top" xlink:title="1">
<text text-anchor="middle" x="83.94" y="-262.61" font-family="Helvetica,sans-Serif" font-size="10.00">1</text>
</a>
</g>
</g>
<!-- dir_51020c1b0909ae629a35fe1c65c620b9 -->
<g id="node3" class="node">
<title>dir_51020c1b0909ae629a35fe1c65c620b9</title>
<g id="a_node3"><a xlink:href="dir_51020c1b0909ae629a35fe1c65c620b9.html" target="_top" xlink:title="Bytecode">
<polygon fill="none" stroke="black" points="62,-108 0,-108 0,-72 62,-72 62,-108"/>
<text text-anchor="middle" x="31" y="-87.5" font-family="Helvetica,sans-Serif" font-size="10.00">Bytecode</text>
</a>
</g>
</g>
<!-- dir_9e687c563d07114e1f35bb9eabc86a7f&#45;&gt;dir_51020c1b0909ae629a35fe1c65c620b9 -->
<g id="edge9" class="edge">
<title>dir_9e687c563d07114e1f35bb9eabc86a7f&#45;&gt;dir_51020c1b0909ae629a35fe1c65c620b9</title>
<path fill="none" stroke="black" d="M59.84,-287.66C50.03,-278.25 39.36,-265.75 34,-252 16.74,-207.78 21.06,-151.39 25.92,-118.42"/>
<polygon fill="black" stroke="black" points="29.43,-118.62 27.56,-108.2 22.52,-117.52 29.43,-118.62"/>
<g id="a_edge9&#45;headlabel"><a xlink:href="dir_000265_000051.html" target="_top" xlink:title="1">
<text text-anchor="middle" x="31.67" y="-120.12" font-family="Helvetica,sans-Serif" font-size="10.00">1</text>
</a>
</g>
</g>
<!-- dir_9e687c563d07114e1f35bb9eabc86a7f&#45;&gt;dir_84ef7c054b4edc3447cfba80cee80f65 -->
<g id="edge10" class="edge">
<title>dir_9e687c563d07114e1f35bb9eabc86a7f&#45;&gt;dir_84ef7c054b4edc3447cfba80cee80f65</title>
<path fill="none" stroke="black" d="M96.61,-287.77C104.37,-278.03 112.95,-265.18 117,-252 122.75,-233.31 122.22,-226.85 117,-208 115.21,-201.55 112.23,-195.09 108.88,-189.16"/>
<polygon fill="black" stroke="black" points="111.67,-187.03 103.43,-180.36 105.72,-190.71 111.67,-187.03"/>
<g id="a_edge10&#45;headlabel"><a xlink:href="dir_000265_000047.html" target="_top" xlink:title="13">
<text text-anchor="middle" x="115.98" y="-186.09" font-family="Helvetica,sans-Serif" font-size="10.00">13</text>
</a>
</g>
</g>
<!-- dir_cf63c3ddb21c79ef735682489f4c6a69 -->
<g id="node5" class="node">
<title>dir_cf63c3ddb21c79ef735682489f4c6a69</title>
<g id="a_node5"><a xlink:href="dir_cf63c3ddb21c79ef735682489f4c6a69.html" target="_top" xlink:title="Interfaces">
<polygon fill="none" stroke="red" points="183.5,-108 118.5,-108 118.5,-72 183.5,-72 183.5,-108"/>
<text text-anchor="middle" x="151" y="-87.5" font-family="Helvetica,sans-Serif" font-size="10.00">Interfaces</text>
</a>
</g>
</g>
<!-- dir_9e687c563d07114e1f35bb9eabc86a7f&#45;&gt;dir_cf63c3ddb21c79ef735682489f4c6a69 -->
<g id="edge12" class="edge">
<title>dir_9e687c563d07114e1f35bb9eabc86a7f&#45;&gt;dir_cf63c3ddb21c79ef735682489f4c6a69</title>
<path fill="none" stroke="black" d="M103.81,-287.85C114.52,-278.49 126.36,-265.97 133,-252 153.5,-208.86 154.72,-152.12 153.22,-118.79"/>
<polygon fill="black" stroke="black" points="156.7,-118.23 152.63,-108.45 149.71,-118.63 156.7,-118.23"/>
<g id="a_edge12&#45;headlabel"><a xlink:href="dir_000265_000287.html" target="_top" xlink:title="5">
<text text-anchor="middle" x="159.74" y="-119.16" font-family="Helvetica,sans-Serif" font-size="10.00">5</text>
</a>
</g>
</g>
<!-- dir_f61d47671007dfdb592580b61f960d39 -->
<g id="node6" class="node">
<title>dir_f61d47671007dfdb592580b61f960d39</title>
<g id="a_node6"><a xlink:href="dir_f61d47671007dfdb592580b61f960d39.html" target="_top" xlink:title="Support">
<polygon fill="none" stroke="black" points="147,-36 93,-36 93,0 147,0 147,-36"/>
<text text-anchor="middle" x="120" y="-15.5" font-family="Helvetica,sans-Serif" font-size="10.00">Support</text>
</a>
</g>
</g>
<!-- dir_9e687c563d07114e1f35bb9eabc86a7f&#45;&gt;dir_f61d47671007dfdb592580b61f960d39 -->
<g id="edge13" class="edge">
<title>dir_9e687c563d07114e1f35bb9eabc86a7f&#45;&gt;dir_f61d47671007dfdb592580b61f960d39</title>
<path fill="none" stroke="black" d="M108.19,-290.98C123.44,-281.81 141.64,-268.48 153,-252 190.7,-197.31 184.03,-173.81 193,-108 195.16,-92.15 200.27,-86.25 193,-72 185.05,-56.4 170.12,-44.32 155.82,-35.66"/>
<polygon fill="black" stroke="black" points="157.5,-32.58 147.07,-30.7 154.05,-38.67 157.5,-32.58"/>
<g id="a_edge13&#45;headlabel"><a xlink:href="dir_000265_000297.html" target="_top" xlink:title="3">
<text text-anchor="middle" x="162.03" y="-29.38" font-family="Helvetica,sans-Serif" font-size="10.00">3</text>
</a>
</g>
</g>
<!-- dir_51020c1b0909ae629a35fe1c65c620b9&#45;&gt;dir_84ef7c054b4edc3447cfba80cee80f65 -->
<g id="edge4" class="edge">
<title>dir_51020c1b0909ae629a35fe1c65c620b9&#45;&gt;dir_84ef7c054b4edc3447cfba80cee80f65</title>
<path fill="none" stroke="black" d="M51.31,-108.1C59.16,-116.38 67.88,-126.49 75.14,-135.64"/>
<polygon fill="black" stroke="black" points="72.46,-137.9 81.33,-143.7 78.01,-133.63 72.46,-137.9"/>
<g id="a_edge4&#45;headlabel"><a xlink:href="dir_000051_000047.html" target="_top" xlink:title="9">
<text text-anchor="middle" x="68.02" y="-134.28" font-family="Helvetica,sans-Serif" font-size="10.00">9</text>
</a>
</g>
</g>
<!-- dir_51020c1b0909ae629a35fe1c65c620b9&#45;&gt;dir_f61d47671007dfdb592580b61f960d39 -->
<g id="edge5" class="edge">
<title>dir_51020c1b0909ae629a35fe1c65c620b9&#45;&gt;dir_f61d47671007dfdb592580b61f960d39</title>
<path fill="none" stroke="black" d="M53,-71.7C64.21,-62.88 78,-52.03 90.15,-42.47"/>
<polygon fill="black" stroke="black" points="92.56,-45.04 98.25,-36.1 88.23,-39.54 92.56,-45.04"/>
<g id="a_edge5&#45;headlabel"><a xlink:href="dir_000051_000297.html" target="_top" xlink:title="2">
<text text-anchor="middle" x="91.49" y="-46.99" font-family="Helvetica,sans-Serif" font-size="10.00">2</text>
</a>
</g>
</g>
<!-- dir_84ef7c054b4edc3447cfba80cee80f65&#45;&gt;dir_51020c1b0909ae629a35fe1c65c620b9 -->
<g id="edge1" class="edge">
<title>dir_84ef7c054b4edc3447cfba80cee80f65&#45;&gt;dir_51020c1b0909ae629a35fe1c65c620b9</title>
<path fill="none" stroke="black" d="M69.5,-143.7C61.64,-135.39 52.92,-125.28 45.68,-116.14"/>
<polygon fill="black" stroke="black" points="48.38,-113.91 39.52,-108.1 42.83,-118.17 48.38,-113.91"/>
<g id="a_edge1&#45;headlabel"><a xlink:href="dir_000047_000051.html" target="_top" xlink:title="2">
<text text-anchor="middle" x="52.82" y="-112.53" font-family="Helvetica,sans-Serif" font-size="10.00">2</text>
</a>
</g>
</g>
<!-- dir_84ef7c054b4edc3447cfba80cee80f65&#45;&gt;dir_cf63c3ddb21c79ef735682489f4c6a69 -->
<g id="edge2" class="edge">
<title>dir_84ef7c054b4edc3447cfba80cee80f65&#45;&gt;dir_cf63c3ddb21c79ef735682489f4c6a69</title>
<path fill="none" stroke="black" d="M99.16,-143.7C105.68,-135.22 114.51,-124.86 123.1,-115.58"/>
<polygon fill="black" stroke="black" points="125.85,-117.77 130.2,-108.1 120.78,-112.95 125.85,-117.77"/>
<g id="a_edge2&#45;headlabel"><a xlink:href="dir_000047_000287.html" target="_top" xlink:title="3">
<text text-anchor="middle" x="125.44" y="-119.83" font-family="Helvetica,sans-Serif" font-size="10.00">3</text>
</a>
</g>
</g>
<!-- dir_84ef7c054b4edc3447cfba80cee80f65&#45;&gt;dir_f61d47671007dfdb592580b61f960d39 -->
<g id="edge3" class="edge">
<title>dir_84ef7c054b4edc3447cfba80cee80f65&#45;&gt;dir_f61d47671007dfdb592580b61f960d39</title>
<path fill="none" stroke="black" d="M93.62,-143.87C98.75,-119.56 108.21,-74.82 114.29,-46.01"/>
<polygon fill="black" stroke="black" points="117.73,-46.7 116.37,-36.19 110.88,-45.25 117.73,-46.7"/>
<g id="a_edge3&#45;headlabel"><a xlink:href="dir_000047_000297.html" target="_top" xlink:title="23">
<text text-anchor="middle" x="119.76" y="-48.3" font-family="Helvetica,sans-Serif" font-size="10.00">23</text>
</a>
</g>
</g>
<!-- dir_cf63c3ddb21c79ef735682489f4c6a69&#45;&gt;dir_84ef7c054b4edc3447cfba80cee80f65 -->
<g id="edge7" class="edge">
<title>dir_cf63c3ddb21c79ef735682489f4c6a69&#45;&gt;dir_84ef7c054b4edc3447cfba80cee80f65</title>
<path fill="none" stroke="black" d="M141.99,-108.1C135.51,-116.55 126.69,-126.9 118.1,-136.2"/>
<polygon fill="black" stroke="black" points="115.33,-134.03 110.99,-143.7 120.41,-138.85 115.33,-134.03"/>
<g id="a_edge7&#45;headlabel"><a xlink:href="dir_000287_000047.html" target="_top" xlink:title="53">
<text text-anchor="middle" x="115.75" y="-126.97" font-family="Helvetica,sans-Serif" font-size="10.00">53</text>
</a>
</g>
</g>
<!-- dir_cf63c3ddb21c79ef735682489f4c6a69&#45;&gt;dir_f61d47671007dfdb592580b61f960d39 -->
<g id="edge8" class="edge">
<title>dir_cf63c3ddb21c79ef735682489f4c6a69&#45;&gt;dir_f61d47671007dfdb592580b61f960d39</title>
<path fill="none" stroke="black" d="M143.34,-71.7C139.81,-63.73 135.54,-54.1 131.63,-45.26"/>
<polygon fill="black" stroke="black" points="134.82,-43.83 127.57,-36.1 128.42,-46.67 134.82,-43.83"/>
<g id="a_edge8&#45;headlabel"><a xlink:href="dir_000287_000297.html" target="_top" xlink:title="2">
<text text-anchor="middle" x="138.88" y="-43.47" font-family="Helvetica,sans-Serif" font-size="10.00">2</text>
</a>
</g>
</g>
</g>
</svg>
