<?xml version="1.0" encoding="UTF-8" standalone="no"?>
<!DOCTYPE svg PUBLIC "-//W3C//DTD SVG 1.1//EN"
 "http://www.w3.org/Graphics/SVG/1.1/DTD/svg11.dtd">
<!-- Generated by graphviz version 2.43.0 (0)
 -->
<!-- Title: lib Pages: 1 -->
<svg width="1689pt" height="99pt"
 viewBox="0.00 0.00 1689.00 99.18" xmlns="http://www.w3.org/2000/svg" xmlns:xlink="http://www.w3.org/1999/xlink">
<g id="graph0" class="graph" transform="scale(1 1) rotate(0) translate(4 95.18)">
<title>lib</title>
<g id="clust1" class="cluster">
<title>clusterdir_97aefd0d527b934f1d99a682da8fe6a9</title>
<g id="a_clust1"><a xlink:href="dir_97aefd0d527b934f1d99a682da8fe6a9.html" target="_top">
<polygon fill="#edf0f7" stroke="#404040" stroke-width="2" points="8,-48.18 8,-83.18 1673,-83.18 1673,-48.18 8,-48.18"/>
</a>
</g>
</g>
<!-- dir_97aefd0d527b934f1d99a682da8fe6a9 -->
<g id="node1" class="node">
<title>dir_97aefd0d527b934f1d99a682da8fe6a9</title>
<text text-anchor="middle" x="1650" y="-63.18" font-family="Helvetica,sans-Serif" font-size="10.00">lib</text>
</g>
<!-- dir_d44c64559bbebec7f509842c48db8b23 -->
<g id="node24" class="node">
<title>dir_d44c64559bbebec7f509842c48db8b23</title>
<g id="a_node24"><a xlink:href="dir_d44c64559bbebec7f509842c48db8b23.html" target="_top" xlink:title="include">
<polygon fill="#edf0f7" stroke="red" points="860,-20.18 808,-20.18 808,-1.18 860,-1.18 860,-20.18"/>
<text text-anchor="middle" x="834" y="-8.18" font-family="Helvetica,sans-Serif" font-size="10.00">include</text>
</a>
</g>
</g>
<!-- dir_97aefd0d527b934f1d99a682da8fe6a9&#45;&gt;dir_d44c64559bbebec7f509842c48db8b23 -->
<g id="edge1" class="edge">
<title>dir_97aefd0d527b934f1d99a682da8fe6a9&#45;&gt;dir_d44c64559bbebec7f509842c48db8b23</title>
<g id="a_edge1"><a xlink:href="dir_000267_000158.html" target="_top">
<path fill="none" stroke="#63b8ff" d="M1639.94,-55.91C1635.88,-52.89 1630.98,-49.85 1626,-48.18 1553.92,-23.96 1016.19,-14.36 870.38,-12.18"/>
<polygon fill="#63b8ff" stroke="#63b8ff" points="870.23,-8.68 860.18,-12.03 870.13,-15.68 870.23,-8.68"/>
</a>
</g>
<g id="a_edge1&#45;headlabel"><a xlink:href="dir_000267_000158.html" target="_top" xlink:title="7001">
<text text-anchor="middle" x="873.87" y="-3.39" font-family="Helvetica,sans-Serif" font-size="10.00" fill="#63b8ff">7001</text>
</a>
</g>
</g>
<!-- dir_a25db018342d3ae6c7e6779086c18378 -->
<g id="node2" class="node">
<title>dir_a25db018342d3ae6c7e6779086c18378</title>
<g id="a_node2"><a xlink:href="dir_a25db018342d3ae6c7e6779086c18378.html" target="_top" xlink:title="Analysis">
<polygon fill="#a2b4d6" stroke="#404040" points="1617,-75.18 1559,-75.18 1559,-56.18 1617,-56.18 1617,-75.18"/>
<text text-anchor="middle" x="1588" y="-63.18" font-family="Helvetica,sans-Serif" font-size="10.00">Analysis</text>
</a>
</g>
</g>
<!-- dir_a25db018342d3ae6c7e6779086c18378&#45;&gt;dir_d44c64559bbebec7f509842c48db8b23 -->
<g id="edge2" class="edge">
<title>dir_a25db018342d3ae6c7e6779086c18378&#45;&gt;dir_d44c64559bbebec7f509842c48db8b23</title>
<g id="a_edge2"><a xlink:href="dir_000016_000158.html" target="_top">
<path fill="none" stroke="#63b8ff" d="M1571.79,-56.11C1565.21,-53.05 1557.42,-49.92 1550,-48.18 1418.86,-17.43 997.65,-12.59 870.61,-11.82"/>
<polygon fill="#63b8ff" stroke="#63b8ff" points="870.29,-8.32 860.27,-11.76 870.25,-15.32 870.29,-8.32"/>
</a>
</g>
<g id="a_edge2&#45;headlabel"><a xlink:href="dir_000016_000158.html" target="_top" xlink:title="177">
<text text-anchor="middle" x="873.9" y="-3" font-family="Helvetica,sans-Serif" font-size="10.00" fill="#63b8ff">177</text>
</a>
</g>
</g>
<!-- dir_8b9cad5bda480d7b1ec1cf16287f7d91 -->
<g id="node3" class="node">
<title>dir_8b9cad5bda480d7b1ec1cf16287f7d91</title>
<g id="a_node3"><a xlink:href="dir_8b9cad5bda480d7b1ec1cf16287f7d91.html" target="_top" xlink:title="AsmParser">
<polygon fill="#a2b4d6" stroke="#404040" points="1541,-75.18 1473,-75.18 1473,-56.18 1541,-56.18 1541,-75.18"/>
<text text-anchor="middle" x="1507" y="-63.18" font-family="Helvetica,sans-Serif" font-size="10.00">AsmParser</text>
</a>
</g>
</g>
<!-- dir_8b9cad5bda480d7b1ec1cf16287f7d91&#45;&gt;dir_d44c64559bbebec7f509842c48db8b23 -->
<g id="edge3" class="edge">
<title>dir_8b9cad5bda480d7b1ec1cf16287f7d91&#45;&gt;dir_d44c64559bbebec7f509842c48db8b23</title>
<g id="a_edge3"><a xlink:href="dir_000054_000158.html" target="_top">
<path fill="none" stroke="#63b8ff" d="M1488.55,-56.16C1481.08,-53.1 1472.29,-49.96 1464,-48.18 1349.49,-23.52 986.75,-14.59 870.34,-12.32"/>
<polygon fill="#63b8ff" stroke="#63b8ff" points="870.24,-8.81 860.17,-12.12 870.1,-15.81 870.24,-8.81"/>
</a>
</g>
<g id="a_edge3&#45;headlabel"><a xlink:href="dir_000054_000158.html" target="_top" xlink:title="81">
<text text-anchor="middle" x="873.89" y="-3.54" font-family="Helvetica,sans-Serif" font-size="10.00" fill="#63b8ff">81</text>
</a>
</g>
</g>
<!-- dir_9f56ffaf3d8f8de92886e7fdaecbdb83 -->
<g id="node4" class="node">
<title>dir_9f56ffaf3d8f8de92886e7fdaecbdb83</title>
<g id="a_node4"><a xlink:href="dir_9f56ffaf3d8f8de92886e7fdaecbdb83.html" target="_top" xlink:title="Bindings">
<polygon fill="#a2b4d6" stroke="#404040" points="1454.5,-75.18 1395.5,-75.18 1395.5,-56.18 1454.5,-56.18 1454.5,-75.18"/>
<text text-anchor="middle" x="1425" y="-63.18" font-family="Helvetica,sans-Serif" font-size="10.00">Bindings</text>
</a>
</g>
</g>
<!-- dir_9f56ffaf3d8f8de92886e7fdaecbdb83&#45;&gt;dir_d44c64559bbebec7f509842c48db8b23 -->
<g id="edge4" class="edge">
<title>dir_9f56ffaf3d8f8de92886e7fdaecbdb83&#45;&gt;dir_d44c64559bbebec7f509842c48db8b23</title>
<g id="a_edge4"><a xlink:href="dir_000063_000158.html" target="_top">
<path fill="none" stroke="#63b8ff" d="M1408.33,-56.18C1401.57,-53.12 1393.58,-49.98 1386,-48.18 1287.53,-24.8 977.05,-15.17 870.39,-12.5"/>
<polygon fill="#63b8ff" stroke="#63b8ff" points="870.23,-9 860.14,-12.25 870.06,-16 870.23,-9"/>
</a>
</g>
<g id="a_edge4&#45;headlabel"><a xlink:href="dir_000063_000158.html" target="_top" xlink:title="124">
<text text-anchor="middle" x="873.89" y="-3.75" font-family="Helvetica,sans-Serif" font-size="10.00" fill="#63b8ff">124</text>
</a>
</g>
</g>
<!-- dir_c7a2665fd92b285ef0bce5685e7336ad -->
<g id="node5" class="node">
<title>dir_c7a2665fd92b285ef0bce5685e7336ad</title>
<g id="a_node5"><a xlink:href="dir_c7a2665fd92b285ef0bce5685e7336ad.html" target="_top" xlink:title="Bytecode">
<polygon fill="#a2b4d6" stroke="#404040" points="1377,-75.18 1315,-75.18 1315,-56.18 1377,-56.18 1377,-75.18"/>
<text text-anchor="middle" x="1346" y="-63.18" font-family="Helvetica,sans-Serif" font-size="10.00">Bytecode</text>
</a>
</g>
</g>
<!-- dir_c7a2665fd92b285ef0bce5685e7336ad&#45;&gt;dir_d44c64559bbebec7f509842c48db8b23 -->
<g id="edge5" class="edge">
<title>dir_c7a2665fd92b285ef0bce5685e7336ad&#45;&gt;dir_d44c64559bbebec7f509842c48db8b23</title>
<g id="a_edge5"><a xlink:href="dir_000073_000158.html" target="_top">
<path fill="none" stroke="#63b8ff" d="M1328.48,-56.05C1321.63,-53.05 1313.6,-49.99 1306,-48.18 1223.26,-28.44 965.74,-16.76 870.18,-13.01"/>
<polygon fill="#63b8ff" stroke="#63b8ff" points="870.26,-9.51 860.13,-12.62 869.99,-16.5 870.26,-9.51"/>
</a>
</g>
<g id="a_edge5&#45;headlabel"><a xlink:href="dir_000073_000158.html" target="_top" xlink:title="27">
<text text-anchor="middle" x="873.96" y="-4.31" font-family="Helvetica,sans-Serif" font-size="10.00" fill="#63b8ff">27</text>
</a>
</g>
</g>
<!-- dir_2333218f17efae3e90b6d759a11695c8 -->
<g id="node6" class="node">
<title>dir_2333218f17efae3e90b6d759a11695c8</title>
<g id="a_node6"><a xlink:href="dir_2333218f17efae3e90b6d759a11695c8.html" target="_top" xlink:title="CAPI">
<polygon fill="#a2b4d6" stroke="#404040" points="1296.5,-75.18 1257.5,-75.18 1257.5,-56.18 1296.5,-56.18 1296.5,-75.18"/>
<text text-anchor="middle" x="1277" y="-63.18" font-family="Helvetica,sans-Serif" font-size="10.00">CAPI</text>
</a>
</g>
</g>
<!-- dir_2333218f17efae3e90b6d759a11695c8&#45;&gt;dir_d44c64559bbebec7f509842c48db8b23 -->
<g id="edge6" class="edge">
<title>dir_2333218f17efae3e90b6d759a11695c8&#45;&gt;dir_d44c64559bbebec7f509842c48db8b23</title>
<g id="a_edge6"><a xlink:href="dir_000075_000158.html" target="_top">
<path fill="none" stroke="#63b8ff" d="M1265.02,-56.03C1260.26,-53.03 1254.59,-49.97 1249,-48.18 1178.91,-25.72 957.99,-15.9 870.34,-12.82"/>
<polygon fill="#63b8ff" stroke="#63b8ff" points="870.21,-9.31 860.09,-12.47 869.97,-16.31 870.21,-9.31"/>
</a>
</g>
<g id="a_edge6&#45;headlabel"><a xlink:href="dir_000075_000158.html" target="_top" xlink:title="257">
<text text-anchor="middle" x="873.9" y="-4.1" font-family="Helvetica,sans-Serif" font-size="10.00" fill="#63b8ff">257</text>
</a>
</g>
</g>
<!-- dir_fb3681dc9150b247305e64d29dbc20b7 -->
<g id="node7" class="node">
<title>dir_fb3681dc9150b247305e64d29dbc20b7</title>
<g id="a_node7"><a xlink:href="dir_fb3681dc9150b247305e64d29dbc20b7.html" target="_top" xlink:title="Conversion">
<polygon fill="#a2b4d6" stroke="#404040" points="1239.5,-75.18 1168.5,-75.18 1168.5,-56.18 1239.5,-56.18 1239.5,-75.18"/>
<text text-anchor="middle" x="1204" y="-63.18" font-family="Helvetica,sans-Serif" font-size="10.00">Conversion</text>
</a>
</g>
</g>
<!-- dir_fb3681dc9150b247305e64d29dbc20b7&#45;&gt;dir_d44c64559bbebec7f509842c48db8b23 -->
<g id="edge7" class="edge">
<title>dir_fb3681dc9150b247305e64d29dbc20b7&#45;&gt;dir_d44c64559bbebec7f509842c48db8b23</title>
<g id="a_edge7"><a xlink:href="dir_000102_000158.html" target="_top">
<path fill="none" stroke="#63b8ff" d="M1183.71,-56.06C1176.08,-53.14 1167.26,-50.13 1159,-48.18 1056.04,-23.89 930.8,-15.62 870.25,-12.92"/>
<polygon fill="#63b8ff" stroke="#63b8ff" points="870.2,-9.42 860.06,-12.49 869.9,-16.41 870.2,-9.42"/>
</a>
</g>
<g id="a_edge7&#45;headlabel"><a xlink:href="dir_000102_000158.html" target="_top" xlink:title="1117">
<text text-anchor="middle" x="873.91" y="-4.23" font-family="Helvetica,sans-Serif" font-size="10.00" fill="#63b8ff">1117</text>
</a>
</g>
</g>
<!-- dir_16b3056ea5a4b7dd24fe79c68bb88bcd -->
<g id="node8" class="node">
<title>dir_16b3056ea5a4b7dd24fe79c68bb88bcd</title>
<g id="a_node8"><a xlink:href="dir_16b3056ea5a4b7dd24fe79c68bb88bcd.html" target="_top" xlink:title="Debug">
<polygon fill="#a2b4d6" stroke="#404040" points="1150,-75.18 1102,-75.18 1102,-56.18 1150,-56.18 1150,-75.18"/>
<text text-anchor="middle" x="1126" y="-63.18" font-family="Helvetica,sans-Serif" font-size="10.00">Debug</text>
</a>
</g>
</g>
<!-- dir_16b3056ea5a4b7dd24fe79c68bb88bcd&#45;&gt;dir_d44c64559bbebec7f509842c48db8b23 -->
<g id="edge8" class="edge">
<title>dir_16b3056ea5a4b7dd24fe79c68bb88bcd&#45;&gt;dir_d44c64559bbebec7f509842c48db8b23</title>
<g id="a_edge8"><a xlink:href="dir_000113_000158.html" target="_top">
<path fill="none" stroke="#63b8ff" d="M1111.31,-56.06C1105.74,-53.13 1099.24,-50.12 1093,-48.18 1016.09,-24.23 921.41,-15.95 870.52,-13.12"/>
<polygon fill="#63b8ff" stroke="#63b8ff" points="870.51,-9.61 860.34,-12.59 870.15,-16.6 870.51,-9.61"/>
</a>
</g>
<g id="a_edge8&#45;headlabel"><a xlink:href="dir_000113_000158.html" target="_top" xlink:title="20">
<text text-anchor="middle" x="874.25" y="-4.46" font-family="Helvetica,sans-Serif" font-size="10.00" fill="#63b8ff">20</text>
</a>
</g>
</g>
<!-- dir_1a25ec519b6c1121408b67cc33ce3f15 -->
<g id="node9" class="node">
<title>dir_1a25ec519b6c1121408b67cc33ce3f15</title>
<g id="a_node9"><a xlink:href="dir_1a25ec519b6c1121408b67cc33ce3f15.html" target="_top" xlink:title="Dialect">
<polygon fill="#a2b4d6" stroke="#404040" points="1083.5,-75.18 1032.5,-75.18 1032.5,-56.18 1083.5,-56.18 1083.5,-75.18"/>
<text text-anchor="middle" x="1058" y="-63.18" font-family="Helvetica,sans-Serif" font-size="10.00">Dialect</text>
</a>
</g>
</g>
<!-- dir_1a25ec519b6c1121408b67cc33ce3f15&#45;&gt;dir_d44c64559bbebec7f509842c48db8b23 -->
<g id="edge9" class="edge">
<title>dir_1a25ec519b6c1121408b67cc33ce3f15&#45;&gt;dir_d44c64559bbebec7f509842c48db8b23</title>
<g id="a_edge9"><a xlink:href="dir_000122_000158.html" target="_top">
<path fill="none" stroke="#63b8ff" d="M1042.45,-56.07C1036.78,-53.22 1030.23,-50.25 1024,-48.18 971.99,-30.9 909.1,-20.82 870.32,-15.78"/>
<polygon fill="#63b8ff" stroke="#63b8ff" points="870.41,-12.26 860.05,-14.49 869.54,-19.21 870.41,-12.26"/>
</a>
</g>
<g id="a_edge9&#45;headlabel"><a xlink:href="dir_000122_000158.html" target="_top" xlink:title="3962">
<text text-anchor="middle" x="874.33" y="-7.39" font-family="Helvetica,sans-Serif" font-size="10.00" fill="#63b8ff">3962</text>
</a>
</g>
</g>
<!-- dir_9ff4c6dc1720636682ab045c894e9bc5 -->
<g id="node10" class="node">
<title>dir_9ff4c6dc1720636682ab045c894e9bc5</title>
<g id="a_node10"><a xlink:href="dir_9ff4c6dc1720636682ab045c894e9bc5.html" target="_top" xlink:title="ExecutionEngine">
<polygon fill="#a2b4d6" stroke="#404040" points="1014.5,-75.18 917.5,-75.18 917.5,-56.18 1014.5,-56.18 1014.5,-75.18"/>
<text text-anchor="middle" x="966" y="-63.18" font-family="Helvetica,sans-Serif" font-size="10.00">ExecutionEngine</text>
</a>
</g>
</g>
<!-- dir_9ff4c6dc1720636682ab045c894e9bc5&#45;&gt;dir_d44c64559bbebec7f509842c48db8b23 -->
<g id="edge10" class="edge">
<title>dir_9ff4c6dc1720636682ab045c894e9bc5&#45;&gt;dir_d44c64559bbebec7f509842c48db8b23</title>
<g id="a_edge10"><a xlink:href="dir_000131_000158.html" target="_top">
<path fill="none" stroke="#63b8ff" d="M944.79,-56.16C923.27,-47.52 889.72,-34.05 865.17,-24.19"/>
<polygon fill="#63b8ff" stroke="#63b8ff" points="866.18,-20.83 855.59,-20.35 863.57,-27.32 866.18,-20.83"/>
</a>
</g>
<g id="a_edge10&#45;headlabel"><a xlink:href="dir_000131_000158.html" target="_top" xlink:title="29">
<text text-anchor="middle" x="870.57" y="-17.03" font-family="Helvetica,sans-Serif" font-size="10.00" fill="#63b8ff">29</text>
</a>
</g>
</g>
<!-- dir_245813bd18e50524b735948a806de767 -->
<g id="node11" class="node">
<title>dir_245813bd18e50524b735948a806de767</title>
<g id="a_node11"><a xlink:href="dir_245813bd18e50524b735948a806de767.html" target="_top" xlink:title="Interfaces">
<polygon fill="#a2b4d6" stroke="#404040" points="899.5,-75.18 834.5,-75.18 834.5,-56.18 899.5,-56.18 899.5,-75.18"/>
<text text-anchor="middle" x="867" y="-63.18" font-family="Helvetica,sans-Serif" font-size="10.00">Interfaces</text>
</a>
</g>
</g>
<!-- dir_245813bd18e50524b735948a806de767&#45;&gt;dir_d44c64559bbebec7f509842c48db8b23 -->
<g id="edge11" class="edge">
<title>dir_245813bd18e50524b735948a806de767&#45;&gt;dir_d44c64559bbebec7f509842c48db8b23</title>
<g id="a_edge11"><a xlink:href="dir_000177_000158.html" target="_top">
<path fill="none" stroke="#63b8ff" d="M861.55,-55.93C856.99,-48.59 850.33,-37.91 844.71,-28.87"/>
<polygon fill="#63b8ff" stroke="#63b8ff" points="847.6,-26.91 839.35,-20.27 841.66,-30.61 847.6,-26.91"/>
</a>
</g>
<g id="a_edge11&#45;headlabel"><a xlink:href="dir_000177_000158.html" target="_top" xlink:title="58">
<text text-anchor="middle" x="851.91" y="-25.96" font-family="Helvetica,sans-Serif" font-size="10.00" fill="#63b8ff">58</text>
</a>
</g>
</g>
<!-- dir_bfcfa2223a05221bedc89835a6573260 -->
<g id="node12" class="node">
<title>dir_bfcfa2223a05221bedc89835a6573260</title>
<g id="a_node12"><a xlink:href="dir_bfcfa2223a05221bedc89835a6573260.html" target="_top" xlink:title="IR">
<polygon fill="#a2b4d6" stroke="#404040" points="816.5,-75.18 787.5,-75.18 787.5,-56.18 816.5,-56.18 816.5,-75.18"/>
<text text-anchor="middle" x="802" y="-63.18" font-family="Helvetica,sans-Serif" font-size="10.00">IR</text>
</a>
</g>
</g>
<!-- dir_bfcfa2223a05221bedc89835a6573260&#45;&gt;dir_d44c64559bbebec7f509842c48db8b23 -->
<g id="edge12" class="edge">
<title>dir_bfcfa2223a05221bedc89835a6573260&#45;&gt;dir_d44c64559bbebec7f509842c48db8b23</title>
<g id="a_edge12"><a xlink:href="dir_000260_000158.html" target="_top">
<path fill="none" stroke="#63b8ff" d="M807.28,-55.93C811.71,-48.59 818.16,-37.91 823.62,-28.87"/>
<polygon fill="#63b8ff" stroke="#63b8ff" points="826.64,-30.64 828.81,-20.27 820.65,-27.02 826.64,-30.64"/>
</a>
</g>
<g id="a_edge12&#45;headlabel"><a xlink:href="dir_000260_000158.html" target="_top" xlink:title="207">
<text text-anchor="middle" x="827.21" y="-32.68" font-family="Helvetica,sans-Serif" font-size="10.00" fill="#63b8ff">207</text>
</a>
</g>
</g>
<!-- dir_99640a276a3556821bf5584138fc69f5 -->
<g id="node13" class="node">
<title>dir_99640a276a3556821bf5584138fc69f5</title>
<g id="a_node13"><a xlink:href="dir_99640a276a3556821bf5584138fc69f5.html" target="_top" xlink:title="Parser">
<polygon fill="#a2b4d6" stroke="#404040" points="769.5,-75.18 722.5,-75.18 722.5,-56.18 769.5,-56.18 769.5,-75.18"/>
<text text-anchor="middle" x="746" y="-63.18" font-family="Helvetica,sans-Serif" font-size="10.00">Parser</text>
</a>
</g>
</g>
<!-- dir_3ea98e05b8f742bc4c307dbc2eccb9b2 -->
<g id="node14" class="node">
<title>dir_3ea98e05b8f742bc4c307dbc2eccb9b2</title>
<g id="a_node14"><a xlink:href="dir_3ea98e05b8f742bc4c307dbc2eccb9b2.html" target="_top" xlink:title="Pass">
<polygon fill="#a2b4d6" stroke="#404040" points="704,-75.18 666,-75.18 666,-56.18 704,-56.18 704,-75.18"/>
<text text-anchor="middle" x="685" y="-63.18" font-family="Helvetica,sans-Serif" font-size="10.00">Pass</text>
</a>
</g>
</g>
<!-- dir_3ea98e05b8f742bc4c307dbc2eccb9b2&#45;&gt;dir_d44c64559bbebec7f509842c48db8b23 -->
<g id="edge13" class="edge">
<title>dir_3ea98e05b8f742bc4c307dbc2eccb9b2&#45;&gt;dir_d44c64559bbebec7f509842c48db8b23</title>
<g id="a_edge13"><a xlink:href="dir_000370_000158.html" target="_top">
<path fill="none" stroke="#63b8ff" d="M698.55,-56.14C703.31,-53.37 708.79,-50.42 714,-48.18 741.3,-36.43 773.61,-26.83 797.82,-20.43"/>
<polygon fill="#63b8ff" stroke="#63b8ff" points="798.85,-23.78 807.66,-17.89 797.1,-17 798.85,-23.78"/>
</a>
</g>
<g id="a_edge13&#45;headlabel"><a xlink:href="dir_000370_000158.html" target="_top" xlink:title="28">
<text text-anchor="middle" x="796.08" y="-24.93" font-family="Helvetica,sans-Serif" font-size="10.00" fill="#63b8ff">28</text>
</a>
</g>
</g>
<!-- dir_42c36725764a0e0af860c1afb7c770a9 -->
<g id="node15" class="node">
<title>dir_42c36725764a0e0af860c1afb7c770a9</title>
<g id="a_node15"><a xlink:href="dir_42c36725764a0e0af860c1afb7c770a9.html" target="_top" xlink:title="Query">
<polygon fill="#a2b4d6" stroke="#404040" points="648,-75.18 602,-75.18 602,-56.18 648,-56.18 648,-75.18"/>
<text text-anchor="middle" x="625" y="-63.18" font-family="Helvetica,sans-Serif" font-size="10.00">Query</text>
</a>
</g>
</g>
<!-- dir_42c36725764a0e0af860c1afb7c770a9&#45;&gt;dir_d44c64559bbebec7f509842c48db8b23 -->
<g id="edge14" class="edge">
<title>dir_42c36725764a0e0af860c1afb7c770a9&#45;&gt;dir_d44c64559bbebec7f509842c48db8b23</title>
<g id="a_edge14"><a xlink:href="dir_000404_000158.html" target="_top">
<path fill="none" stroke="#63b8ff" d="M639.6,-56.08C644.93,-53.23 651.11,-50.26 657,-48.18 704.25,-31.48 761.45,-21.41 797.78,-16.2"/>
<polygon fill="#63b8ff" stroke="#63b8ff" points="798.48,-19.63 807.9,-14.79 797.52,-12.7 798.48,-19.63"/>
</a>
</g>
<g id="a_edge14&#45;headlabel"><a xlink:href="dir_000404_000158.html" target="_top" xlink:title="18">
<text text-anchor="middle" x="795.31" y="-20.44" font-family="Helvetica,sans-Serif" font-size="10.00" fill="#63b8ff">18</text>
</a>
</g>
</g>
<!-- dir_7ef8f4f434f26620b3fad6cfad93e8c3 -->
<g id="node16" class="node">
<title>dir_7ef8f4f434f26620b3fad6cfad93e8c3</title>
<g id="a_node16"><a xlink:href="dir_7ef8f4f434f26620b3fad6cfad93e8c3.html" target="_top" xlink:title="Reducer">
<polygon fill="#a2b4d6" stroke="#404040" points="584,-75.18 528,-75.18 528,-56.18 584,-56.18 584,-75.18"/>
<text text-anchor="middle" x="556" y="-63.18" font-family="Helvetica,sans-Serif" font-size="10.00">Reducer</text>
</a>
</g>
</g>
<!-- dir_7ef8f4f434f26620b3fad6cfad93e8c3&#45;&gt;dir_d44c64559bbebec7f509842c48db8b23 -->
<g id="edge15" class="edge">
<title>dir_7ef8f4f434f26620b3fad6cfad93e8c3&#45;&gt;dir_d44c64559bbebec7f509842c48db8b23</title>
<g id="a_edge15"><a xlink:href="dir_000409_000158.html" target="_top">
<path fill="none" stroke="#63b8ff" d="M572.58,-56.14C578.84,-53.22 586.12,-50.19 593,-48.18 663.79,-27.45 749.92,-18.02 797.67,-14.12"/>
<polygon fill="#63b8ff" stroke="#63b8ff" points="798.13,-17.6 807.82,-13.33 797.58,-10.62 798.13,-17.6"/>
</a>
</g>
<g id="a_edge15&#45;headlabel"><a xlink:href="dir_000409_000158.html" target="_top" xlink:title="15">
<text text-anchor="middle" x="794.76" y="-18.21" font-family="Helvetica,sans-Serif" font-size="10.00" fill="#63b8ff">15</text>
</a>
</g>
</g>
<!-- dir_dc79e1740c4e6097701f04068f89b443 -->
<g id="node17" class="node">
<title>dir_dc79e1740c4e6097701f04068f89b443</title>
<g id="a_node17"><a xlink:href="dir_dc79e1740c4e6097701f04068f89b443.html" target="_top" xlink:title="Remark">
<polygon fill="#a2b4d6" stroke="#404040" points="509.5,-75.18 454.5,-75.18 454.5,-56.18 509.5,-56.18 509.5,-75.18"/>
<text text-anchor="middle" x="482" y="-63.18" font-family="Helvetica,sans-Serif" font-size="10.00">Remark</text>
</a>
</g>
</g>
<!-- dir_dc79e1740c4e6097701f04068f89b443&#45;&gt;dir_d44c64559bbebec7f509842c48db8b23 -->
<g id="edge16" class="edge">
<title>dir_dc79e1740c4e6097701f04068f89b443&#45;&gt;dir_d44c64559bbebec7f509842c48db8b23</title>
<g id="a_edge16"><a xlink:href="dir_000412_000158.html" target="_top">
<path fill="none" stroke="#63b8ff" d="M498.55,-56.01C504.8,-53.08 512.08,-50.07 519,-48.18 617.22,-21.27 737.97,-14.19 797.4,-12.33"/>
<polygon fill="#63b8ff" stroke="#63b8ff" points="797.87,-15.82 807.77,-12.04 797.68,-8.83 797.87,-15.82"/>
</a>
</g>
<g id="a_edge16&#45;headlabel"><a xlink:href="dir_000412_000158.html" target="_top" xlink:title="3">
<text text-anchor="middle" x="794.36" y="-16.26" font-family="Helvetica,sans-Serif" font-size="10.00" fill="#63b8ff">3</text>
</a>
</g>
</g>
<!-- dir_c79b3ca8dc7b7126169a5161d97c17bc -->
<g id="node18" class="node">
<title>dir_c79b3ca8dc7b7126169a5161d97c17bc</title>
<g id="a_node18"><a xlink:href="dir_c79b3ca8dc7b7126169a5161d97c17bc.html" target="_top" xlink:title="Rewrite">
<polygon fill="#a2b4d6" stroke="#404040" points="436,-75.18 382,-75.18 382,-56.18 436,-56.18 436,-75.18"/>
<text text-anchor="middle" x="409" y="-63.18" font-family="Helvetica,sans-Serif" font-size="10.00">Rewrite</text>
</a>
</g>
</g>
<!-- dir_c79b3ca8dc7b7126169a5161d97c17bc&#45;&gt;dir_d44c64559bbebec7f509842c48db8b23 -->
<g id="edge17" class="edge">
<title>dir_c79b3ca8dc7b7126169a5161d97c17bc&#45;&gt;dir_d44c64559bbebec7f509842c48db8b23</title>
<g id="a_edge17"><a xlink:href="dir_000414_000158.html" target="_top">
<path fill="none" stroke="#63b8ff" d="M425.16,-56.1C431.49,-53.11 438.92,-50.04 446,-48.18 572.05,-15.1 728.07,-11.13 797.6,-11.2"/>
<polygon fill="#63b8ff" stroke="#63b8ff" points="797.6,-14.7 807.61,-11.24 797.62,-7.7 797.6,-14.7"/>
</a>
</g>
<g id="a_edge17&#45;headlabel"><a xlink:href="dir_000414_000158.html" target="_top" xlink:title="10">
<text text-anchor="middle" x="793.99" y="-15.03" font-family="Helvetica,sans-Serif" font-size="10.00" fill="#63b8ff">10</text>
</a>
</g>
</g>
<!-- dir_f0dc79bace318df7ec0fa0bdb179ed95 -->
<g id="node19" class="node">
<title>dir_f0dc79bace318df7ec0fa0bdb179ed95</title>
<g id="a_node19"><a xlink:href="dir_f0dc79bace318df7ec0fa0bdb179ed95.html" target="_top" xlink:title="Support">
<polygon fill="#a2b4d6" stroke="#404040" points="364,-75.18 310,-75.18 310,-56.18 364,-56.18 364,-75.18"/>
<text text-anchor="middle" x="337" y="-63.18" font-family="Helvetica,sans-Serif" font-size="10.00">Support</text>
</a>
</g>
</g>
<!-- dir_f0dc79bace318df7ec0fa0bdb179ed95&#45;&gt;dir_d44c64559bbebec7f509842c48db8b23 -->
<g id="edge18" class="edge">
<title>dir_f0dc79bace318df7ec0fa0bdb179ed95&#45;&gt;dir_d44c64559bbebec7f509842c48db8b23</title>
<g id="a_edge18"><a xlink:href="dir_000461_000158.html" target="_top">
<path fill="none" stroke="#63b8ff" d="M352.68,-56.04C358.84,-53.04 366.08,-49.98 373,-48.18 453.15,-27.34 703.5,-16.38 797.68,-12.92"/>
<polygon fill="#63b8ff" stroke="#63b8ff" points="797.99,-16.41 807.86,-12.55 797.74,-9.41 797.99,-16.41"/>
</a>
</g>
<g id="a_edge18&#45;headlabel"><a xlink:href="dir_000461_000158.html" target="_top" xlink:title="14">
<text text-anchor="middle" x="794.5" y="-16.87" font-family="Helvetica,sans-Serif" font-size="10.00" fill="#63b8ff">14</text>
</a>
</g>
</g>
<!-- dir_c06f24fb33ff4a816b120f93e814fbca -->
<g id="node20" class="node">
<title>dir_c06f24fb33ff4a816b120f93e814fbca</title>
<g id="a_node20"><a xlink:href="dir_c06f24fb33ff4a816b120f93e814fbca.html" target="_top" xlink:title="TableGen">
<polygon fill="#a2b4d6" stroke="#404040" points="292,-75.18 230,-75.18 230,-56.18 292,-56.18 292,-75.18"/>
<text text-anchor="middle" x="261" y="-63.18" font-family="Helvetica,sans-Serif" font-size="10.00">TableGen</text>
</a>
</g>
</g>
<!-- dir_c06f24fb33ff4a816b120f93e814fbca&#45;&gt;dir_d44c64559bbebec7f509842c48db8b23 -->
<g id="edge19" class="edge">
<title>dir_c06f24fb33ff4a816b120f93e814fbca&#45;&gt;dir_d44c64559bbebec7f509842c48db8b23</title>
<g id="a_edge19"><a xlink:href="dir_000463_000158.html" target="_top">
<path fill="none" stroke="#63b8ff" d="M278.51,-56.02C285.36,-53.01 293.39,-49.96 301,-48.18 395.85,-25.99 693.85,-15.64 797.8,-12.64"/>
<polygon fill="#63b8ff" stroke="#63b8ff" points="797.91,-16.14 807.8,-12.36 797.71,-9.14 797.91,-16.14"/>
</a>
</g>
<g id="a_edge19&#45;headlabel"><a xlink:href="dir_000463_000158.html" target="_top" xlink:title="43">
<text text-anchor="middle" x="794.39" y="-16.58" font-family="Helvetica,sans-Serif" font-size="10.00" fill="#63b8ff">43</text>
</a>
</g>
</g>
<!-- dir_794e483eb1cc7921d35fd149d9cc325b -->
<g id="node21" class="node">
<title>dir_794e483eb1cc7921d35fd149d9cc325b</title>
<g id="a_node21"><a xlink:href="dir_794e483eb1cc7921d35fd149d9cc325b.html" target="_top" xlink:title="Target">
<polygon fill="#a2b4d6" stroke="#404040" points="211.5,-75.18 164.5,-75.18 164.5,-56.18 211.5,-56.18 211.5,-75.18"/>
<text text-anchor="middle" x="188" y="-63.18" font-family="Helvetica,sans-Serif" font-size="10.00">Target</text>
</a>
</g>
</g>
<!-- dir_794e483eb1cc7921d35fd149d9cc325b&#45;&gt;dir_d44c64559bbebec7f509842c48db8b23 -->
<g id="edge20" class="edge">
<title>dir_794e483eb1cc7921d35fd149d9cc325b&#45;&gt;dir_d44c64559bbebec7f509842c48db8b23</title>
<g id="a_edge20"><a xlink:href="dir_000467_000158.html" target="_top">
<path fill="none" stroke="#63b8ff" d="M201.96,-56.13C207.66,-53.06 214.44,-49.93 221,-48.18 330.86,-18.77 683.33,-13.03 797.76,-11.93"/>
<polygon fill="#63b8ff" stroke="#63b8ff" points="797.8,-15.43 807.76,-11.84 797.73,-8.43 797.8,-15.43"/>
</a>
</g>
<g id="a_edge20&#45;headlabel"><a xlink:href="dir_000467_000158.html" target="_top" xlink:title="302">
<text text-anchor="middle" x="794.23" y="-15.8" font-family="Helvetica,sans-Serif" font-size="10.00" fill="#63b8ff">302</text>
</a>
</g>
</g>
<!-- dir_5fe0fdc1a37a7d35ef071fa3f129cdb7 -->
<g id="node22" class="node">
<title>dir_5fe0fdc1a37a7d35ef071fa3f129cdb7</title>
<g id="a_node22"><a xlink:href="dir_5fe0fdc1a37a7d35ef071fa3f129cdb7.html" target="_top" xlink:title="Tools">
<polygon fill="#a2b4d6" stroke="#404040" points="146.5,-75.18 105.5,-75.18 105.5,-56.18 146.5,-56.18 146.5,-75.18"/>
<text text-anchor="middle" x="126" y="-63.18" font-family="Helvetica,sans-Serif" font-size="10.00">Tools</text>
</a>
</g>
</g>
<!-- dir_5fe0fdc1a37a7d35ef071fa3f129cdb7&#45;&gt;dir_d44c64559bbebec7f509842c48db8b23 -->
<g id="edge21" class="edge">
<title>dir_5fe0fdc1a37a7d35ef071fa3f129cdb7&#45;&gt;dir_d44c64559bbebec7f509842c48db8b23</title>
<g id="a_edge21"><a xlink:href="dir_000477_000158.html" target="_top">
<path fill="none" stroke="#63b8ff" d="M138.59,-56.11C143.76,-53.04 149.94,-49.91 156,-48.18 278.12,-13.28 675.07,-11.27 797.62,-11.51"/>
<polygon fill="#63b8ff" stroke="#63b8ff" points="797.95,-15.01 807.96,-11.54 797.97,-8.01 797.95,-15.01"/>
</a>
</g>
<g id="a_edge21&#45;headlabel"><a xlink:href="dir_000477_000158.html" target="_top" xlink:title="147">
<text text-anchor="middle" x="794.35" y="-15.34" font-family="Helvetica,sans-Serif" font-size="10.00" fill="#63b8ff">147</text>
</a>
</g>
</g>
<!-- dir_a72932e0778af28115095468f6286ff8 -->
<g id="node23" class="node">
<title>dir_a72932e0778af28115095468f6286ff8</title>
<g id="a_node23"><a xlink:href="dir_a72932e0778af28115095468f6286ff8.html" target="_top" xlink:title="Transforms">
<polygon fill="#a2b4d6" stroke="#404040" points="87.5,-75.18 16.5,-75.18 16.5,-56.18 87.5,-56.18 87.5,-75.18"/>
<text text-anchor="middle" x="52" y="-63.18" font-family="Helvetica,sans-Serif" font-size="10.00">Transforms</text>
</a>
</g>
</g>
<!-- dir_a72932e0778af28115095468f6286ff8&#45;&gt;dir_d44c64559bbebec7f509842c48db8b23 -->
<g id="edge22" class="edge">
<title>dir_a72932e0778af28115095468f6286ff8&#45;&gt;dir_d44c64559bbebec7f509842c48db8b23</title>
<g id="a_edge22"><a xlink:href="dir_000591_000158.html" target="_top">
<path fill="none" stroke="#63b8ff" d="M71.34,-56.13C79.16,-53.07 88.36,-49.93 97,-48.18 233.31,-20.48 668.64,-13.51 797.64,-12.03"/>
<polygon fill="#63b8ff" stroke="#63b8ff" points="797.82,-15.53 807.78,-11.92 797.74,-8.53 797.82,-15.53"/>
</a>
</g>
<g id="a_edge22&#45;headlabel"><a xlink:href="dir_000591_000158.html" target="_top" xlink:title="183">
<text text-anchor="middle" x="794.26" y="-15.91" font-family="Helvetica,sans-Serif" font-size="10.00" fill="#63b8ff">183</text>
</a>
</g>
</g>
</g>
</svg>
