<?xml version="1.0" encoding="UTF-8" standalone="no"?>
<!DOCTYPE svg PUBLIC "-//W3C//DTD SVG 1.1//EN"
 "http://www.w3.org/Graphics/SVG/1.1/DTD/svg11.dtd">
<!-- Generated by graphviz version 2.43.0 (0)
 -->
<!-- Title: lib/Target/LLVMIR/Dialect Pages: 1 -->
<svg width="1144pt" height="159pt"
 viewBox="0.00 0.00 1144.00 159.00" xmlns="http://www.w3.org/2000/svg" xmlns:xlink="http://www.w3.org/1999/xlink">
<g id="graph0" class="graph" transform="scale(1 1) rotate(0) translate(4 155)">
<title>lib/Target/LLVMIR/Dialect</title>
<g id="clust1" class="cluster">
<title>clusterdir_12a96bdcc885ecacc799866a8efa56d5</title>
<g id="a_clust1"><a xlink:href="dir_12a96bdcc885ecacc799866a8efa56d5.html" target="_top" xlink:title="LLVMIR">
<polygon fill="#ddddee" stroke="black" points="8,-56 8,-143 1128,-143 1128,-56 8,-56"/>
<text text-anchor="middle" x="568" y="-131" font-family="Helvetica,sans-Serif" font-size="10.00">LLVMIR</text>
</a>
</g>
</g>
<g id="clust2" class="cluster">
<title>clusterdir_38c1dda222e2fa1f8060eb14e2940f7d</title>
<g id="a_clust2"><a xlink:href="dir_38c1dda222e2fa1f8060eb14e2940f7d.html" target="_top">
<polygon fill="#eeeeff" stroke="black" points="16,-64 16,-116 1120,-116 1120,-64 16,-64"/>
</a>
</g>
</g>
<!-- dir_38c1dda222e2fa1f8060eb14e2940f7d -->
<g id="node1" class="node">
<title>dir_38c1dda222e2fa1f8060eb14e2940f7d</title>
<text text-anchor="middle" x="1085" y="-87.5" font-family="Helvetica,sans-Serif" font-size="10.00">Dialect</text>
</g>
<!-- dir_08eae7bf99c59a1fb70d86c1f23b4cd4 -->
<g id="node2" class="node">
<title>dir_08eae7bf99c59a1fb70d86c1f23b4cd4</title>
<g id="a_node2"><a xlink:href="dir_08eae7bf99c59a1fb70d86c1f23b4cd4.html" target="_top" xlink:title="ArmNeon">
<polygon fill="white" stroke="black" points="1040,-108 978,-108 978,-72 1040,-72 1040,-108"/>
<text text-anchor="middle" x="1009" y="-87.5" font-family="Helvetica,sans-Serif" font-size="10.00">ArmNeon</text>
</a>
</g>
</g>
<!-- dir_d44c64559bbebec7f509842c48db8b23 -->
<g id="node16" class="node">
<title>dir_d44c64559bbebec7f509842c48db8b23</title>
<g id="a_node16"><a xlink:href="dir_d44c64559bbebec7f509842c48db8b23.html" target="_top" xlink:title="include">
<polygon fill="none" stroke="red" points="556,-36 502,-36 502,0 556,0 556,-36"/>
<text text-anchor="middle" x="529" y="-15.5" font-family="Helvetica,sans-Serif" font-size="10.00">include</text>
</a>
</g>
</g>
<!-- dir_08eae7bf99c59a1fb70d86c1f23b4cd4&#45;&gt;dir_d44c64559bbebec7f509842c48db8b23 -->
<g id="edge3" class="edge">
<title>dir_08eae7bf99c59a1fb70d86c1f23b4cd4&#45;&gt;dir_d44c64559bbebec7f509842c48db8b23</title>
<path fill="none" stroke="black" d="M993,-72C986.21,-65.88 977.84,-59.6 969,-56 896.37,-26.41 658.75,-20.48 566.29,-19.3"/>
<polygon fill="black" stroke="black" points="566.3,-15.8 556.26,-19.18 566.22,-22.8 566.3,-15.8"/>
<g id="a_edge3&#45;headlabel"><a xlink:href="dir_000633_000001.html" target="_top" xlink:title="4">
<text text-anchor="middle" x="569.93" y="-10.5" font-family="Helvetica,sans-Serif" font-size="10.00">4</text>
</a>
</g>
</g>
<!-- dir_97bc9e4d2063fbe2d0044b91188cf865 -->
<g id="node3" class="node">
<title>dir_97bc9e4d2063fbe2d0044b91188cf865</title>
<g id="a_node3"><a xlink:href="dir_97bc9e4d2063fbe2d0044b91188cf865.html" target="_top" xlink:title="ArmSME">
<polygon fill="white" stroke="black" points="960,-108 902,-108 902,-72 960,-72 960,-108"/>
<text text-anchor="middle" x="931" y="-87.5" font-family="Helvetica,sans-Serif" font-size="10.00">ArmSME</text>
</a>
</g>
</g>
<!-- dir_97bc9e4d2063fbe2d0044b91188cf865&#45;&gt;dir_d44c64559bbebec7f509842c48db8b23 -->
<g id="edge1" class="edge">
<title>dir_97bc9e4d2063fbe2d0044b91188cf865&#45;&gt;dir_d44c64559bbebec7f509842c48db8b23</title>
<path fill="none" stroke="black" d="M915.54,-71.73C909.18,-65.73 901.34,-59.61 893,-56 834.97,-30.9 647.1,-22.46 566.4,-19.95"/>
<polygon fill="black" stroke="black" points="566.3,-16.45 556.2,-19.65 566.09,-23.44 566.3,-16.45"/>
<g id="a_edge1&#45;headlabel"><a xlink:href="dir_000634_000001.html" target="_top" xlink:title="4">
<text text-anchor="middle" x="569.97" y="-11.22" font-family="Helvetica,sans-Serif" font-size="10.00">4</text>
</a>
</g>
</g>
<!-- dir_06655fa8276973cd9c81db75fa29de48 -->
<g id="node4" class="node">
<title>dir_06655fa8276973cd9c81db75fa29de48</title>
<g id="a_node4"><a xlink:href="dir_06655fa8276973cd9c81db75fa29de48.html" target="_top" xlink:title="ArmSVE">
<polygon fill="white" stroke="black" points="884,-108 828,-108 828,-72 884,-72 884,-108"/>
<text text-anchor="middle" x="856" y="-87.5" font-family="Helvetica,sans-Serif" font-size="10.00">ArmSVE</text>
</a>
</g>
</g>
<!-- dir_06655fa8276973cd9c81db75fa29de48&#45;&gt;dir_d44c64559bbebec7f509842c48db8b23 -->
<g id="edge8" class="edge">
<title>dir_06655fa8276973cd9c81db75fa29de48&#45;&gt;dir_d44c64559bbebec7f509842c48db8b23</title>
<path fill="none" stroke="black" d="M840.97,-71.84C834.78,-65.85 827.15,-59.71 819,-56 774.72,-35.82 634.08,-25.11 566.27,-21.01"/>
<polygon fill="black" stroke="black" points="566.23,-17.5 556.04,-20.41 565.82,-24.49 566.23,-17.5"/>
<g id="a_edge8&#45;headlabel"><a xlink:href="dir_000635_000001.html" target="_top" xlink:title="4">
<text text-anchor="middle" x="569.98" y="-12.38" font-family="Helvetica,sans-Serif" font-size="10.00">4</text>
</a>
</g>
</g>
<!-- dir_3763fa03ea1efc359300a441044249ae -->
<g id="node5" class="node">
<title>dir_3763fa03ea1efc359300a441044249ae</title>
<g id="a_node5"><a xlink:href="dir_3763fa03ea1efc359300a441044249ae.html" target="_top" xlink:title="Builtin">
<polygon fill="white" stroke="black" points="810,-108 756,-108 756,-72 810,-72 810,-108"/>
<text text-anchor="middle" x="783" y="-87.5" font-family="Helvetica,sans-Serif" font-size="10.00">Builtin</text>
</a>
</g>
</g>
<!-- dir_3763fa03ea1efc359300a441044249ae&#45;&gt;dir_d44c64559bbebec7f509842c48db8b23 -->
<g id="edge11" class="edge">
<title>dir_3763fa03ea1efc359300a441044249ae&#45;&gt;dir_d44c64559bbebec7f509842c48db8b23</title>
<path fill="none" stroke="black" d="M768.02,-71.67C762.06,-65.81 754.77,-59.8 747,-56 688.42,-27.34 611.59,-20.42 566.53,-19.01"/>
<polygon fill="black" stroke="black" points="566.41,-15.51 556.33,-18.77 566.24,-22.51 566.41,-15.51"/>
<g id="a_edge11&#45;headlabel"><a xlink:href="dir_000636_000001.html" target="_top" xlink:title="4">
<text text-anchor="middle" x="570.07" y="-10.26" font-family="Helvetica,sans-Serif" font-size="10.00">4</text>
</a>
</g>
</g>
<!-- dir_e7c02fc968838eb6e066014c606f1bb8 -->
<g id="node6" class="node">
<title>dir_e7c02fc968838eb6e066014c606f1bb8</title>
<g id="a_node6"><a xlink:href="dir_e7c02fc968838eb6e066014c606f1bb8.html" target="_top" xlink:title="GPU">
<polygon fill="white" stroke="black" points="738,-108 684,-108 684,-72 738,-72 738,-108"/>
<text text-anchor="middle" x="711" y="-87.5" font-family="Helvetica,sans-Serif" font-size="10.00">GPU</text>
</a>
</g>
</g>
<!-- dir_e7c02fc968838eb6e066014c606f1bb8&#45;&gt;dir_d44c64559bbebec7f509842c48db8b23 -->
<g id="edge2" class="edge">
<title>dir_e7c02fc968838eb6e066014c606f1bb8&#45;&gt;dir_d44c64559bbebec7f509842c48db8b23</title>
<path fill="none" stroke="black" d="M695.5,-71.66C689.59,-65.94 682.46,-60.03 675,-56 640.73,-37.5 596.92,-28 566.27,-23.29"/>
<polygon fill="black" stroke="black" points="566.41,-19.78 556.01,-21.82 565.41,-26.71 566.41,-19.78"/>
<g id="a_edge2&#45;headlabel"><a xlink:href="dir_000637_000001.html" target="_top" xlink:title="8">
<text text-anchor="middle" x="570.37" y="-14.98" font-family="Helvetica,sans-Serif" font-size="10.00">8</text>
</a>
</g>
</g>
<!-- dir_d68897ed9cc508da456282cb0b9cc418 -->
<g id="node7" class="node">
<title>dir_d68897ed9cc508da456282cb0b9cc418</title>
<g id="a_node7"><a xlink:href="dir_d68897ed9cc508da456282cb0b9cc418.html" target="_top" xlink:title="LLVMIR">
<polygon fill="white" stroke="black" points="666,-108 612,-108 612,-72 666,-72 666,-108"/>
<text text-anchor="middle" x="639" y="-87.5" font-family="Helvetica,sans-Serif" font-size="10.00">LLVMIR</text>
</a>
</g>
</g>
<!-- dir_d68897ed9cc508da456282cb0b9cc418&#45;&gt;dir_d44c64559bbebec7f509842c48db8b23 -->
<g id="edge10" class="edge">
<title>dir_d68897ed9cc508da456282cb0b9cc418&#45;&gt;dir_d44c64559bbebec7f509842c48db8b23</title>
<path fill="none" stroke="black" d="M622.25,-71.85C616.44,-66.41 609.7,-60.61 603,-56 591.31,-47.95 577.62,-40.61 565.21,-34.62"/>
<polygon fill="black" stroke="black" points="566.57,-31.39 556.03,-30.31 563.6,-37.73 566.57,-31.39"/>
<g id="a_edge10&#45;headlabel"><a xlink:href="dir_000638_000001.html" target="_top" xlink:title="12">
<text text-anchor="middle" x="571.03" y="-27.84" font-family="Helvetica,sans-Serif" font-size="10.00">12</text>
</a>
</g>
</g>
<!-- dir_a795060be2e7cdd0245232cf9cc4da49 -->
<g id="node8" class="node">
<title>dir_a795060be2e7cdd0245232cf9cc4da49</title>
<g id="a_node8"><a xlink:href="dir_a795060be2e7cdd0245232cf9cc4da49.html" target="_top" xlink:title="NVVM">
<polygon fill="white" stroke="black" points="594,-108 540,-108 540,-72 594,-72 594,-108"/>
<text text-anchor="middle" x="567" y="-87.5" font-family="Helvetica,sans-Serif" font-size="10.00">NVVM</text>
</a>
</g>
</g>
<!-- dir_a795060be2e7cdd0245232cf9cc4da49&#45;&gt;dir_d44c64559bbebec7f509842c48db8b23 -->
<g id="edge13" class="edge">
<title>dir_a795060be2e7cdd0245232cf9cc4da49&#45;&gt;dir_d44c64559bbebec7f509842c48db8b23</title>
<path fill="none" stroke="black" d="M557.61,-71.7C553.24,-63.64 547.94,-53.89 543.1,-44.98"/>
<polygon fill="black" stroke="black" points="546.13,-43.22 538.29,-36.1 539.98,-46.56 546.13,-43.22"/>
<g id="a_edge13&#45;headlabel"><a xlink:href="dir_000639_000001.html" target="_top" xlink:title="7">
<text text-anchor="middle" x="550.34" y="-42.53" font-family="Helvetica,sans-Serif" font-size="10.00">7</text>
</a>
</g>
</g>
<!-- dir_706eb0230d4dd0e741540824361e3b8f -->
<g id="node9" class="node">
<title>dir_706eb0230d4dd0e741540824361e3b8f</title>
<g id="a_node9"><a xlink:href="dir_706eb0230d4dd0e741540824361e3b8f.html" target="_top" xlink:title="OpenACC">
<polygon fill="white" stroke="black" points="522,-108 460,-108 460,-72 522,-72 522,-108"/>
<text text-anchor="middle" x="491" y="-87.5" font-family="Helvetica,sans-Serif" font-size="10.00">OpenACC</text>
</a>
</g>
</g>
<!-- dir_706eb0230d4dd0e741540824361e3b8f&#45;&gt;dir_d44c64559bbebec7f509842c48db8b23 -->
<g id="edge6" class="edge">
<title>dir_706eb0230d4dd0e741540824361e3b8f&#45;&gt;dir_d44c64559bbebec7f509842c48db8b23</title>
<path fill="none" stroke="black" d="M500.39,-71.7C504.76,-63.64 510.06,-53.89 514.9,-44.98"/>
<polygon fill="black" stroke="black" points="518.02,-46.56 519.71,-36.1 511.87,-43.22 518.02,-46.56"/>
<g id="a_edge6&#45;headlabel"><a xlink:href="dir_000640_000001.html" target="_top" xlink:title="8">
<text text-anchor="middle" x="518.8" y="-48.58" font-family="Helvetica,sans-Serif" font-size="10.00">8</text>
</a>
</g>
</g>
<!-- dir_d09a340c4a749dcbe74b34243f5130f5 -->
<g id="node10" class="node">
<title>dir_d09a340c4a749dcbe74b34243f5130f5</title>
<g id="a_node10"><a xlink:href="dir_d09a340c4a749dcbe74b34243f5130f5.html" target="_top" xlink:title="OpenMP">
<polygon fill="white" stroke="black" points="441.5,-108 384.5,-108 384.5,-72 441.5,-72 441.5,-108"/>
<text text-anchor="middle" x="413" y="-87.5" font-family="Helvetica,sans-Serif" font-size="10.00">OpenMP</text>
</a>
</g>
</g>
<!-- dir_d09a340c4a749dcbe74b34243f5130f5&#45;&gt;dir_d44c64559bbebec7f509842c48db8b23 -->
<g id="edge14" class="edge">
<title>dir_d09a340c4a749dcbe74b34243f5130f5&#45;&gt;dir_d44c64559bbebec7f509842c48db8b23</title>
<path fill="none" stroke="black" d="M430.75,-71.82C436.88,-66.38 443.98,-60.59 451,-56 463.82,-47.62 478.84,-40.03 492.25,-33.94"/>
<polygon fill="black" stroke="black" points="493.94,-37.02 501.68,-29.78 491.12,-30.62 493.94,-37.02"/>
<g id="a_edge14&#45;headlabel"><a xlink:href="dir_000641_000001.html" target="_top" xlink:title="10">
<text text-anchor="middle" x="491.8" y="-38.57" font-family="Helvetica,sans-Serif" font-size="10.00">10</text>
</a>
</g>
</g>
<!-- dir_35829c8310f07cd5ec012dcd3c5bcdc5 -->
<g id="node11" class="node">
<title>dir_35829c8310f07cd5ec012dcd3c5bcdc5</title>
<g id="a_node11"><a xlink:href="dir_35829c8310f07cd5ec012dcd3c5bcdc5.html" target="_top" xlink:title="Ptr">
<polygon fill="white" stroke="black" points="366,-108 312,-108 312,-72 366,-72 366,-108"/>
<text text-anchor="middle" x="339" y="-87.5" font-family="Helvetica,sans-Serif" font-size="10.00">Ptr</text>
</a>
</g>
</g>
<!-- dir_35829c8310f07cd5ec012dcd3c5bcdc5&#45;&gt;dir_d44c64559bbebec7f509842c48db8b23 -->
<g id="edge4" class="edge">
<title>dir_35829c8310f07cd5ec012dcd3c5bcdc5&#45;&gt;dir_d44c64559bbebec7f509842c48db8b23</title>
<path fill="none" stroke="black" d="M354.62,-71.97C360.77,-66.14 368.22,-60.08 376,-56 412.64,-36.79 459.45,-27.36 491.59,-22.86"/>
<polygon fill="black" stroke="black" points="492.43,-26.28 501.89,-21.52 491.52,-19.34 492.43,-26.28"/>
<g id="a_edge4&#45;headlabel"><a xlink:href="dir_000642_000001.html" target="_top" xlink:title="5">
<text text-anchor="middle" x="489.23" y="-27.06" font-family="Helvetica,sans-Serif" font-size="10.00">5</text>
</a>
</g>
</g>
<!-- dir_7bf144fdde12bc8b5f82e0b1e31d4c3b -->
<g id="node12" class="node">
<title>dir_7bf144fdde12bc8b5f82e0b1e31d4c3b</title>
<g id="a_node12"><a xlink:href="dir_7bf144fdde12bc8b5f82e0b1e31d4c3b.html" target="_top" xlink:title="ROCDL">
<polygon fill="white" stroke="black" points="294,-108 240,-108 240,-72 294,-72 294,-108"/>
<text text-anchor="middle" x="267" y="-87.5" font-family="Helvetica,sans-Serif" font-size="10.00">ROCDL</text>
</a>
</g>
</g>
<!-- dir_7bf144fdde12bc8b5f82e0b1e31d4c3b&#45;&gt;dir_d44c64559bbebec7f509842c48db8b23 -->
<g id="edge12" class="edge">
<title>dir_7bf144fdde12bc8b5f82e0b1e31d4c3b&#45;&gt;dir_d44c64559bbebec7f509842c48db8b23</title>
<path fill="none" stroke="black" d="M281.61,-71.99C287.64,-66.02 295.07,-59.85 303,-56 364.38,-26.19 445.04,-19.72 491.54,-18.69"/>
<polygon fill="black" stroke="black" points="491.81,-22.19 501.76,-18.54 491.71,-15.19 491.81,-22.19"/>
<g id="a_edge12&#45;headlabel"><a xlink:href="dir_000643_000001.html" target="_top" xlink:title="5">
<text text-anchor="middle" x="488.26" y="-22.58" font-family="Helvetica,sans-Serif" font-size="10.00">5</text>
</a>
</g>
</g>
<!-- dir_82b6fc42bb78236c6852c28ee0599f24 -->
<g id="node13" class="node">
<title>dir_82b6fc42bb78236c6852c28ee0599f24</title>
<g id="a_node13"><a xlink:href="dir_82b6fc42bb78236c6852c28ee0599f24.html" target="_top" xlink:title="SPIRV">
<polygon fill="white" stroke="black" points="222,-108 168,-108 168,-72 222,-72 222,-108"/>
<text text-anchor="middle" x="195" y="-87.5" font-family="Helvetica,sans-Serif" font-size="10.00">SPIRV</text>
</a>
</g>
</g>
<!-- dir_82b6fc42bb78236c6852c28ee0599f24&#45;&gt;dir_d44c64559bbebec7f509842c48db8b23 -->
<g id="edge9" class="edge">
<title>dir_82b6fc42bb78236c6852c28ee0599f24&#45;&gt;dir_d44c64559bbebec7f509842c48db8b23</title>
<path fill="none" stroke="black" d="M209.54,-71.82C215.55,-65.84 223,-59.7 231,-56 276.58,-34.95 422.27,-24.63 491.62,-20.81"/>
<polygon fill="black" stroke="black" points="491.87,-24.3 501.67,-20.27 491.5,-17.31 491.87,-24.3"/>
<g id="a_edge9&#45;headlabel"><a xlink:href="dir_000644_000001.html" target="_top" xlink:title="3">
<text text-anchor="middle" x="488.44" y="-24.83" font-family="Helvetica,sans-Serif" font-size="10.00">3</text>
</a>
</g>
</g>
<!-- dir_525eca5dd1bc88a09b7f0e80db16093c -->
<g id="node14" class="node">
<title>dir_525eca5dd1bc88a09b7f0e80db16093c</title>
<g id="a_node14"><a xlink:href="dir_525eca5dd1bc88a09b7f0e80db16093c.html" target="_top" xlink:title="VCIX">
<polygon fill="white" stroke="black" points="150,-108 96,-108 96,-72 150,-72 150,-108"/>
<text text-anchor="middle" x="123" y="-87.5" font-family="Helvetica,sans-Serif" font-size="10.00">VCIX</text>
</a>
</g>
</g>
<!-- dir_525eca5dd1bc88a09b7f0e80db16093c&#45;&gt;dir_d44c64559bbebec7f509842c48db8b23 -->
<g id="edge7" class="edge">
<title>dir_525eca5dd1bc88a09b7f0e80db16093c&#45;&gt;dir_d44c64559bbebec7f509842c48db8b23</title>
<path fill="none" stroke="black" d="M137.49,-71.72C143.5,-65.72 150.95,-59.6 159,-56 217.79,-29.69 409.73,-21.92 491.53,-19.77"/>
<polygon fill="black" stroke="black" points="491.95,-23.26 501.86,-19.51 491.77,-16.26 491.95,-23.26"/>
<g id="a_edge7&#45;headlabel"><a xlink:href="dir_000645_000001.html" target="_top" xlink:title="5">
<text text-anchor="middle" x="488.42" y="-23.68" font-family="Helvetica,sans-Serif" font-size="10.00">5</text>
</a>
</g>
</g>
<!-- dir_01593566338cdf829d9d1405d4ef079e -->
<g id="node15" class="node">
<title>dir_01593566338cdf829d9d1405d4ef079e</title>
<g id="a_node15"><a xlink:href="dir_01593566338cdf829d9d1405d4ef079e.html" target="_top" xlink:title="XeVM">
<polygon fill="white" stroke="black" points="78,-108 24,-108 24,-72 78,-72 78,-108"/>
<text text-anchor="middle" x="51" y="-87.5" font-family="Helvetica,sans-Serif" font-size="10.00">XeVM</text>
</a>
</g>
</g>
<!-- dir_01593566338cdf829d9d1405d4ef079e&#45;&gt;dir_d44c64559bbebec7f509842c48db8b23 -->
<g id="edge5" class="edge">
<title>dir_01593566338cdf829d9d1405d4ef079e&#45;&gt;dir_d44c64559bbebec7f509842c48db8b23</title>
<path fill="none" stroke="black" d="M65.46,-71.65C71.47,-65.65 78.92,-59.54 87,-56 159.25,-24.36 398.9,-19.67 491.77,-19.05"/>
<polygon fill="black" stroke="black" points="491.86,-22.55 501.84,-19 491.82,-15.55 491.86,-22.55"/>
<g id="a_edge5&#45;headlabel"><a xlink:href="dir_000646_000001.html" target="_top" xlink:title="5">
<text text-anchor="middle" x="488.28" y="-22.91" font-family="Helvetica,sans-Serif" font-size="10.00">5</text>
</a>
</g>
</g>
</g>
</svg>
