<?xml version="1.0" encoding="UTF-8" standalone="no"?>
<!DOCTYPE svg PUBLIC "-//W3C//DTD SVG 1.1//EN"
 "http://www.w3.org/Graphics/SVG/1.1/DTD/svg11.dtd">
<!-- Generated by graphviz version 2.43.0 (0)
 -->
<!-- Title: include/mlir/Target/LLVMIR Pages: 1 -->
<svg width="318pt" height="125pt"
 viewBox="0.00 0.00 318.00 125.00" xmlns="http://www.w3.org/2000/svg" xmlns:xlink="http://www.w3.org/1999/xlink">
<g id="graph0" class="graph" transform="scale(1 1) rotate(0) translate(4 121)">
<title>include/mlir/Target/LLVMIR</title>
<g id="clust1" class="cluster">
<title>clusterdir_e350390f37204b20a5be47a406c54ddd</title>
<g id="a_clust1"><a xlink:href="dir_e350390f37204b20a5be47a406c54ddd.html" target="_top" xlink:title="Target">
<polygon fill="#edf0f7" stroke="#7f7f7f" stroke-dasharray="5,2" points="38,-39 38,-109 282,-109 282,-39 38,-39"/>
<text text-anchor="middle" x="160" y="-97" font-family="Helvetica,sans-Serif" font-size="10.00">Target</text>
</a>
</g>
</g>
<g id="clust2" class="cluster">
<title>clusterdir_b808e701192d909e8d445339c9bbdeb2</title>
<g id="a_clust2"><a xlink:href="dir_b808e701192d909e8d445339c9bbdeb2.html" target="_top">
<polygon fill="#edf0f7" stroke="#404040" stroke-width="2" points="46,-47 46,-82 274,-82 274,-47 46,-47"/>
</a>
</g>
</g>
<!-- dir_b808e701192d909e8d445339c9bbdeb2 -->
<g id="node1" class="node">
<title>dir_b808e701192d909e8d445339c9bbdeb2</title>
<text text-anchor="middle" x="150" y="-62" font-family="Helvetica,sans-Serif" font-size="10.00">LLVMIR</text>
</g>
<!-- dir_84ef7c054b4edc3447cfba80cee80f65 -->
<g id="node4" class="node">
<title>dir_84ef7c054b4edc3447cfba80cee80f65</title>
<g id="a_node4"><a xlink:href="dir_84ef7c054b4edc3447cfba80cee80f65.html" target="_top" xlink:title="IR">
<polygon fill="#edf0f7" stroke="#7f7f7f" points="101.5,-19 72.5,-19 72.5,0 101.5,0 101.5,-19"/>
<text text-anchor="middle" x="87" y="-7" font-family="Helvetica,sans-Serif" font-size="10.00">IR</text>
</a>
</g>
</g>
<!-- dir_b808e701192d909e8d445339c9bbdeb2&#45;&gt;dir_84ef7c054b4edc3447cfba80cee80f65 -->
<g id="edge1" class="edge">
<title>dir_b808e701192d909e8d445339c9bbdeb2&#45;&gt;dir_84ef7c054b4edc3447cfba80cee80f65</title>
<g id="a_edge1"><a xlink:href="dir_000279_000215.html" target="_top">
<path fill="none" stroke="#63b8ff" d="M139.88,-54.98C130.56,-47.15 116.53,-35.34 105.26,-25.86"/>
<polygon fill="#63b8ff" stroke="#63b8ff" points="107.21,-22.93 97.31,-19.17 102.71,-28.29 107.21,-22.93"/>
</a>
</g>
<g id="a_edge1&#45;headlabel"><a xlink:href="dir_000279_000215.html" target="_top" xlink:title="15">
<text text-anchor="middle" x="111.79" y="-20.57" font-family="Helvetica,sans-Serif" font-size="10.00" fill="#63b8ff">15</text>
</a>
</g>
</g>
<!-- dir_cf63c3ddb21c79ef735682489f4c6a69 -->
<g id="node5" class="node">
<title>dir_cf63c3ddb21c79ef735682489f4c6a69</title>
<g id="a_node5"><a xlink:href="dir_cf63c3ddb21c79ef735682489f4c6a69.html" target="_top" xlink:title="Interfaces">
<polygon fill="#edf0f7" stroke="red" stroke-dasharray="5,2" points="184.5,-19 119.5,-19 119.5,0 184.5,0 184.5,-19"/>
<text text-anchor="middle" x="152" y="-7" font-family="Helvetica,sans-Serif" font-size="10.00">Interfaces</text>
</a>
</g>
</g>
<!-- dir_b808e701192d909e8d445339c9bbdeb2&#45;&gt;dir_cf63c3ddb21c79ef735682489f4c6a69 -->
<g id="edge2" class="edge">
<title>dir_b808e701192d909e8d445339c9bbdeb2&#45;&gt;dir_cf63c3ddb21c79ef735682489f4c6a69</title>
<g id="a_edge2"><a xlink:href="dir_000279_000170.html" target="_top">
<path fill="none" stroke="#63b8ff" d="M150.33,-54.75C150.59,-47.8 150.97,-37.85 151.3,-29.13"/>
<polygon fill="#63b8ff" stroke="#63b8ff" points="154.8,-29.21 151.68,-19.09 147.8,-28.95 154.8,-29.21"/>
</a>
</g>
<g id="a_edge2&#45;headlabel"><a xlink:href="dir_000279_000170.html" target="_top" xlink:title="1">
<text text-anchor="middle" x="157.5" y="-30.41" font-family="Helvetica,sans-Serif" font-size="10.00" fill="#63b8ff">1</text>
</a>
</g>
</g>
<!-- dir_d07a6fac82475a065a3b2953573f00a0 -->
<g id="node6" class="node">
<title>dir_d07a6fac82475a065a3b2953573f00a0</title>
<g id="a_node6"><a xlink:href="dir_d07a6fac82475a065a3b2953573f00a0.html" target="_top" xlink:title="Dialect">
<polygon fill="#edf0f7" stroke="red" stroke-dasharray="5,2" points="253.5,-19 202.5,-19 202.5,0 253.5,0 253.5,-19"/>
<text text-anchor="middle" x="228" y="-7" font-family="Helvetica,sans-Serif" font-size="10.00">Dialect</text>
</a>
</g>
</g>
<!-- dir_b808e701192d909e8d445339c9bbdeb2&#45;&gt;dir_d07a6fac82475a065a3b2953573f00a0 -->
<g id="edge3" class="edge">
<title>dir_b808e701192d909e8d445339c9bbdeb2&#45;&gt;dir_d07a6fac82475a065a3b2953573f00a0</title>
<g id="a_edge3"><a xlink:href="dir_000279_000119.html" target="_top">
<path fill="none" stroke="#63b8ff" d="M162.26,-54.81C168.95,-50.09 177.4,-44.18 185,-39 191.82,-34.35 199.3,-29.36 206.08,-24.87"/>
<polygon fill="#63b8ff" stroke="#63b8ff" points="208.35,-27.57 214.77,-19.15 204.49,-21.73 208.35,-27.57"/>
</a>
</g>
<g id="a_edge3&#45;headlabel"><a xlink:href="dir_000279_000119.html" target="_top" xlink:title="7">
<text text-anchor="middle" x="206.91" y="-29.42" font-family="Helvetica,sans-Serif" font-size="10.00" fill="#63b8ff">7</text>
</a>
</g>
</g>
<!-- dir_f61d47671007dfdb592580b61f960d39 -->
<g id="node7" class="node">
<title>dir_f61d47671007dfdb592580b61f960d39</title>
<g id="a_node7"><a xlink:href="dir_f61d47671007dfdb592580b61f960d39.html" target="_top" xlink:title="Support">
<polygon fill="#edf0f7" stroke="#7f7f7f" points="54,-19 0,-19 0,0 54,0 54,-19"/>
<text text-anchor="middle" x="27" y="-7" font-family="Helvetica,sans-Serif" font-size="10.00">Support</text>
</a>
</g>
</g>
<!-- dir_b808e701192d909e8d445339c9bbdeb2&#45;&gt;dir_f61d47671007dfdb592580b61f960d39 -->
<g id="edge4" class="edge">
<title>dir_b808e701192d909e8d445339c9bbdeb2&#45;&gt;dir_f61d47671007dfdb592580b61f960d39</title>
<g id="a_edge4"><a xlink:href="dir_000279_000460.html" target="_top">
<path fill="none" stroke="#63b8ff" d="M139.15,-54.92C132.25,-49.78 122.95,-43.4 114,-39 98.21,-31.23 79.8,-24.85 63.99,-20.11"/>
<polygon fill="#63b8ff" stroke="#63b8ff" points="64.61,-16.65 54.03,-17.24 62.67,-23.37 64.61,-16.65"/>
</a>
</g>
<g id="a_edge4&#45;headlabel"><a xlink:href="dir_000279_000460.html" target="_top" xlink:title="2">
<text text-anchor="middle" x="68.85" y="-12.42" font-family="Helvetica,sans-Serif" font-size="10.00" fill="#63b8ff">2</text>
</a>
</g>
</g>
<!-- dir_b764a3e59a1de385d1ad0058af8eb900 -->
<g id="node2" class="node">
<title>dir_b764a3e59a1de385d1ad0058af8eb900</title>
<g id="a_node2"><a xlink:href="dir_b764a3e59a1de385d1ad0058af8eb900.html" target="_top" xlink:title="Dialect">
<polygon fill="#a2b4d6" stroke="#404040" points="105.5,-74 54.5,-74 54.5,-55 105.5,-55 105.5,-74"/>
<text text-anchor="middle" x="80" y="-62" font-family="Helvetica,sans-Serif" font-size="10.00">Dialect</text>
</a>
</g>
</g>
<!-- dir_b764a3e59a1de385d1ad0058af8eb900&#45;&gt;dir_84ef7c054b4edc3447cfba80cee80f65 -->
<g id="edge5" class="edge">
<title>dir_b764a3e59a1de385d1ad0058af8eb900&#45;&gt;dir_84ef7c054b4edc3447cfba80cee80f65</title>
<g id="a_edge5"><a xlink:href="dir_000120_000215.html" target="_top">
<path fill="none" stroke="#63b8ff" d="M81.16,-54.75C82.07,-47.8 83.39,-37.85 84.54,-29.13"/>
<polygon fill="#63b8ff" stroke="#63b8ff" points="88.03,-29.46 85.87,-19.09 81.09,-28.54 88.03,-29.46"/>
</a>
</g>
<g id="a_edge5&#45;headlabel"><a xlink:href="dir_000120_000215.html" target="_top" xlink:title="2">
<text text-anchor="middle" x="90.37" y="-30.9" font-family="Helvetica,sans-Serif" font-size="10.00" fill="#63b8ff">2</text>
</a>
</g>
</g>
<!-- dir_b764a3e59a1de385d1ad0058af8eb900&#45;&gt;dir_f61d47671007dfdb592580b61f960d39 -->
<g id="edge6" class="edge">
<title>dir_b764a3e59a1de385d1ad0058af8eb900&#45;&gt;dir_f61d47671007dfdb592580b61f960d39</title>
<g id="a_edge6"><a xlink:href="dir_000120_000460.html" target="_top">
<path fill="none" stroke="#63b8ff" d="M71.25,-54.75C63.53,-47.03 52.1,-35.6 42.78,-26.28"/>
<polygon fill="#63b8ff" stroke="#63b8ff" points="45.14,-23.69 35.59,-19.09 40.19,-28.64 45.14,-23.69"/>
</a>
</g>
<g id="a_edge6&#45;headlabel"><a xlink:href="dir_000120_000460.html" target="_top" xlink:title="1">
<text text-anchor="middle" x="49.68" y="-21.72" font-family="Helvetica,sans-Serif" font-size="10.00" fill="#63b8ff">1</text>
</a>
</g>
</g>
<!-- dir_88b6fdb80840c1f458f1501ed2f2a01d -->
<g id="node3" class="node">
<title>dir_88b6fdb80840c1f458f1501ed2f2a01d</title>
<g id="a_node3"><a xlink:href="dir_88b6fdb80840c1f458f1501ed2f2a01d.html" target="_top" xlink:title="Transforms">
<polygon fill="#a2b4d6" stroke="#404040" points="265.5,-74 194.5,-74 194.5,-55 265.5,-55 265.5,-74"/>
<text text-anchor="middle" x="230" y="-62" font-family="Helvetica,sans-Serif" font-size="10.00">Transforms</text>
</a>
</g>
</g>
<!-- dir_88b6fdb80840c1f458f1501ed2f2a01d&#45;&gt;dir_d07a6fac82475a065a3b2953573f00a0 -->
<g id="edge8" class="edge">
<title>dir_88b6fdb80840c1f458f1501ed2f2a01d&#45;&gt;dir_d07a6fac82475a065a3b2953573f00a0</title>
<g id="a_edge8"><a xlink:href="dir_000554_000119.html" target="_top">
<path fill="none" stroke="#63b8ff" d="M229.67,-54.75C229.41,-47.8 229.03,-37.85 228.7,-29.13"/>
<polygon fill="#63b8ff" stroke="#63b8ff" points="232.2,-28.95 228.32,-19.09 225.2,-29.21 232.2,-28.95"/>
</a>
</g>
<g id="a_edge8&#45;headlabel"><a xlink:href="dir_000554_000119.html" target="_top" xlink:title="1">
<text text-anchor="middle" x="235.17" y="-29.93" font-family="Helvetica,sans-Serif" font-size="10.00" fill="#63b8ff">1</text>
</a>
</g>
</g>
<!-- dir_cab9f8330899b1cc9d753b1d9c5c5a3e -->
<g id="node8" class="node">
<title>dir_cab9f8330899b1cc9d753b1d9c5c5a3e</title>
<g id="a_node8"><a xlink:href="dir_cab9f8330899b1cc9d753b1d9c5c5a3e.html" target="_top" xlink:title="Pass">
<polygon fill="#edf0f7" stroke="#7f7f7f" points="310,-19 272,-19 272,0 310,0 310,-19"/>
<text text-anchor="middle" x="291" y="-7" font-family="Helvetica,sans-Serif" font-size="10.00">Pass</text>
</a>
</g>
</g>
<!-- dir_88b6fdb80840c1f458f1501ed2f2a01d&#45;&gt;dir_cab9f8330899b1cc9d753b1d9c5c5a3e -->
<g id="edge7" class="edge">
<title>dir_88b6fdb80840c1f458f1501ed2f2a01d&#45;&gt;dir_cab9f8330899b1cc9d753b1d9c5c5a3e</title>
<g id="a_edge7"><a xlink:href="dir_000554_000369.html" target="_top">
<path fill="none" stroke="#63b8ff" d="M239.8,-54.98C248.82,-47.15 262.41,-35.34 273.32,-25.86"/>
<polygon fill="#63b8ff" stroke="#63b8ff" points="275.77,-28.37 281.02,-19.17 271.18,-23.09 275.77,-28.37"/>
</a>
</g>
<g id="a_edge7&#45;headlabel"><a xlink:href="dir_000554_000369.html" target="_top" xlink:title="1">
<text text-anchor="middle" x="274.92" y="-30.37" font-family="Helvetica,sans-Serif" font-size="10.00" fill="#63b8ff">1</text>
</a>
</g>
</g>
</g>
</svg>
