<?xml version="1.0" encoding="UTF-8" standalone="no"?>
<!DOCTYPE svg PUBLIC "-//W3C//DTD SVG 1.1//EN"
 "http://www.w3.org/Graphics/SVG/1.1/DTD/svg11.dtd">
<!-- Generated by graphviz version 2.43.0 (0)
 -->
<!-- Title: include/mlir/Tools/PDLL Pages: 1 -->
<svg width="406pt" height="159pt"
 viewBox="0.00 0.00 406.00 159.00" xmlns="http://www.w3.org/2000/svg" xmlns:xlink="http://www.w3.org/1999/xlink">
<g id="graph0" class="graph" transform="scale(1 1) rotate(0) translate(4 155)">
<title>include/mlir/Tools/PDLL</title>
<g id="clust1" class="cluster">
<title>clusterdir_44b288db5d8d45ab6c634c8177d2adb4</title>
<g id="a_clust1"><a xlink:href="dir_44b288db5d8d45ab6c634c8177d2adb4.html" target="_top" xlink:title="Tools">
<polygon fill="#ddddee" stroke="black" points="8,-56 8,-143 390,-143 390,-56 8,-56"/>
<text text-anchor="middle" x="199" y="-131" font-family="Helvetica,sans-Serif" font-size="10.00">Tools</text>
</a>
</g>
</g>
<g id="clust2" class="cluster">
<title>clusterdir_cd520cac85f2c65b44b7333e2791c22c</title>
<g id="a_clust2"><a xlink:href="dir_cd520cac85f2c65b44b7333e2791c22c.html" target="_top">
<polygon fill="#eeeeff" stroke="black" points="16,-64 16,-116 382,-116 382,-64 16,-64"/>
</a>
</g>
</g>
<!-- dir_cd520cac85f2c65b44b7333e2791c22c -->
<g id="node1" class="node">
<title>dir_cd520cac85f2c65b44b7333e2791c22c</title>
<text text-anchor="middle" x="347" y="-87.5" font-family="Helvetica,sans-Serif" font-size="10.00">PDLL</text>
</g>
<!-- dir_988a55e81255b0c4d6705efd7d5e77e8 -->
<g id="node2" class="node">
<title>dir_988a55e81255b0c4d6705efd7d5e77e8</title>
<g id="a_node2"><a xlink:href="dir_988a55e81255b0c4d6705efd7d5e77e8.html" target="_top" xlink:title="AST">
<polygon fill="white" stroke="black" points="302,-108 248,-108 248,-72 302,-72 302,-108"/>
<text text-anchor="middle" x="275" y="-87.5" font-family="Helvetica,sans-Serif" font-size="10.00">AST</text>
</a>
</g>
</g>
<!-- dir_f61d47671007dfdb592580b61f960d39 -->
<g id="node6" class="node">
<title>dir_f61d47671007dfdb592580b61f960d39</title>
<g id="a_node6"><a xlink:href="dir_f61d47671007dfdb592580b61f960d39.html" target="_top" xlink:title="Support">
<polygon fill="none" stroke="black" points="188,-36 134,-36 134,0 188,0 188,-36"/>
<text text-anchor="middle" x="161" y="-15.5" font-family="Helvetica,sans-Serif" font-size="10.00">Support</text>
</a>
</g>
</g>
<!-- dir_988a55e81255b0c4d6705efd7d5e77e8&#45;&gt;dir_f61d47671007dfdb592580b61f960d39 -->
<g id="edge3" class="edge">
<title>dir_988a55e81255b0c4d6705efd7d5e77e8&#45;&gt;dir_f61d47671007dfdb592580b61f960d39</title>
<path fill="none" stroke="black" d="M258.3,-71.77C252.5,-66.32 245.75,-60.54 239,-56 226.19,-47.38 211.07,-39.71 197.56,-33.61"/>
<polygon fill="black" stroke="black" points="198.63,-30.26 188.06,-29.47 195.83,-36.68 198.63,-30.26"/>
<g id="a_edge3&#45;headlabel"><a xlink:href="dir_000282_000288.html" target="_top" xlink:title="5">
<text text-anchor="middle" x="203.06" y="-26.6" font-family="Helvetica,sans-Serif" font-size="10.00">5</text>
</a>
</g>
</g>
<!-- dir_bf9baed4f8add0894678655d71ce639b -->
<g id="node3" class="node">
<title>dir_bf9baed4f8add0894678655d71ce639b</title>
<g id="a_node3"><a xlink:href="dir_bf9baed4f8add0894678655d71ce639b.html" target="_top" xlink:title="CodeGen">
<polygon fill="white" stroke="black" points="229.5,-108 168.5,-108 168.5,-72 229.5,-72 229.5,-108"/>
<text text-anchor="middle" x="199" y="-87.5" font-family="Helvetica,sans-Serif" font-size="10.00">CodeGen</text>
</a>
</g>
</g>
<!-- dir_bf9baed4f8add0894678655d71ce639b&#45;&gt;dir_f61d47671007dfdb592580b61f960d39 -->
<g id="edge4" class="edge">
<title>dir_bf9baed4f8add0894678655d71ce639b&#45;&gt;dir_f61d47671007dfdb592580b61f960d39</title>
<path fill="none" stroke="black" d="M189.61,-71.7C185.24,-63.64 179.94,-53.89 175.1,-44.98"/>
<polygon fill="black" stroke="black" points="178.13,-43.22 170.29,-36.1 171.98,-46.56 178.13,-43.22"/>
<g id="a_edge4&#45;headlabel"><a xlink:href="dir_000320_000288.html" target="_top" xlink:title="1">
<text text-anchor="middle" x="182.34" y="-42.53" font-family="Helvetica,sans-Serif" font-size="10.00">1</text>
</a>
</g>
</g>
<!-- dir_f3ca13b9e471a64de6054eab1da4a1d3 -->
<g id="node4" class="node">
<title>dir_f3ca13b9e471a64de6054eab1da4a1d3</title>
<g id="a_node4"><a xlink:href="dir_f3ca13b9e471a64de6054eab1da4a1d3.html" target="_top" xlink:title="ODS">
<polygon fill="white" stroke="black" points="150,-108 96,-108 96,-72 150,-72 150,-108"/>
<text text-anchor="middle" x="123" y="-87.5" font-family="Helvetica,sans-Serif" font-size="10.00">ODS</text>
</a>
</g>
</g>
<!-- dir_f3ca13b9e471a64de6054eab1da4a1d3&#45;&gt;dir_f61d47671007dfdb592580b61f960d39 -->
<g id="edge2" class="edge">
<title>dir_f3ca13b9e471a64de6054eab1da4a1d3&#45;&gt;dir_f61d47671007dfdb592580b61f960d39</title>
<path fill="none" stroke="black" d="M132.39,-71.7C136.76,-63.64 142.06,-53.89 146.9,-44.98"/>
<polygon fill="black" stroke="black" points="150.02,-46.56 151.71,-36.1 143.87,-43.22 150.02,-46.56"/>
<g id="a_edge2&#45;headlabel"><a xlink:href="dir_000281_000288.html" target="_top" xlink:title="4">
<text text-anchor="middle" x="150.8" y="-48.58" font-family="Helvetica,sans-Serif" font-size="10.00">4</text>
</a>
</g>
</g>
<!-- dir_b8226c399f4ea86e10129d480090ad31 -->
<g id="node5" class="node">
<title>dir_b8226c399f4ea86e10129d480090ad31</title>
<g id="a_node5"><a xlink:href="dir_b8226c399f4ea86e10129d480090ad31.html" target="_top" xlink:title="Parser">
<polygon fill="white" stroke="black" points="78,-108 24,-108 24,-72 78,-72 78,-108"/>
<text text-anchor="middle" x="51" y="-87.5" font-family="Helvetica,sans-Serif" font-size="10.00">Parser</text>
</a>
</g>
</g>
<!-- dir_b8226c399f4ea86e10129d480090ad31&#45;&gt;dir_f61d47671007dfdb592580b61f960d39 -->
<g id="edge1" class="edge">
<title>dir_b8226c399f4ea86e10129d480090ad31&#45;&gt;dir_f61d47671007dfdb592580b61f960d39</title>
<path fill="none" stroke="black" d="M67.75,-71.85C73.56,-66.41 80.3,-60.61 87,-56 98.69,-47.95 112.38,-40.61 124.79,-34.62"/>
<polygon fill="black" stroke="black" points="126.4,-37.73 133.97,-30.31 123.43,-31.39 126.4,-37.73"/>
<g id="a_edge1&#45;headlabel"><a xlink:href="dir_000043_000288.html" target="_top" xlink:title="2">
<text text-anchor="middle" x="124.35" y="-39.32" font-family="Helvetica,sans-Serif" font-size="10.00">2</text>
</a>
</g>
</g>
</g>
</svg>
