<?xml version="1.0" encoding="UTF-8" standalone="no"?>
<!DOCTYPE svg PUBLIC "-//W3C//DTD SVG 1.1//EN"
 "http://www.w3.org/Graphics/SVG/1.1/DTD/svg11.dtd">
<!-- Generated by graphviz version 2.43.0 (0)
 -->
<!-- Title: include/mlir/Dialect/EmitC Pages: 1 -->
<svg width="254pt" height="375pt"
 viewBox="0.00 0.00 254.00 375.00" xmlns="http://www.w3.org/2000/svg" xmlns:xlink="http://www.w3.org/1999/xlink">
<g id="graph0" class="graph" transform="scale(1 1) rotate(0) translate(4 371)">
<title>include/mlir/Dialect/EmitC</title>
<g id="clust1" class="cluster">
<title>clusterdir_d07a6fac82475a065a3b2953573f00a0</title>
<g id="a_clust1"><a xlink:href="dir_d07a6fac82475a065a3b2953573f00a0.html" target="_top" xlink:title="Dialect">
<polygon fill="#ddddee" stroke="black" points="8,-200 8,-359 184,-359 184,-200 8,-200"/>
<text text-anchor="middle" x="96" y="-347" font-family="Helvetica,sans-Serif" font-size="10.00">Dialect</text>
</a>
</g>
</g>
<g id="clust2" class="cluster">
<title>clusterdir_06b5781ad427b83507fbf1c8fd14596d</title>
<g id="a_clust2"><a xlink:href="dir_06b5781ad427b83507fbf1c8fd14596d.html" target="_top">
<polygon fill="#eeeeff" stroke="black" points="16,-208 16,-332 176,-332 176,-208 16,-208"/>
</a>
</g>
</g>
<!-- dir_06b5781ad427b83507fbf1c8fd14596d -->
<g id="node1" class="node">
<title>dir_06b5781ad427b83507fbf1c8fd14596d</title>
<text text-anchor="middle" x="141" y="-303.5" font-family="Helvetica,sans-Serif" font-size="10.00">EmitC</text>
</g>
<!-- dir_93b46e355d145706f66a968121ed5cf0 -->
<g id="node2" class="node">
<title>dir_93b46e355d145706f66a968121ed5cf0</title>
<g id="a_node2"><a xlink:href="dir_93b46e355d145706f66a968121ed5cf0.html" target="_top" xlink:title="IR">
<polygon fill="white" stroke="black" points="87,-252 33,-252 33,-216 87,-216 87,-252"/>
<text text-anchor="middle" x="60" y="-231.5" font-family="Helvetica,sans-Serif" font-size="10.00">IR</text>
</a>
</g>
</g>
<!-- dir_51020c1b0909ae629a35fe1c65c620b9 -->
<g id="node4" class="node">
<title>dir_51020c1b0909ae629a35fe1c65c620b9</title>
<g id="a_node4"><a xlink:href="dir_51020c1b0909ae629a35fe1c65c620b9.html" target="_top" xlink:title="Bytecode">
<polygon fill="none" stroke="black" points="91,-180 29,-180 29,-144 91,-144 91,-180"/>
<text text-anchor="middle" x="60" y="-159.5" font-family="Helvetica,sans-Serif" font-size="10.00">Bytecode</text>
</a>
</g>
</g>
<!-- dir_93b46e355d145706f66a968121ed5cf0&#45;&gt;dir_51020c1b0909ae629a35fe1c65c620b9 -->
<g id="edge3" class="edge">
<title>dir_93b46e355d145706f66a968121ed5cf0&#45;&gt;dir_51020c1b0909ae629a35fe1c65c620b9</title>
<path fill="none" stroke="black" d="M60,-215.7C60,-207.98 60,-198.71 60,-190.11"/>
<polygon fill="black" stroke="black" points="63.5,-190.1 60,-180.1 56.5,-190.1 63.5,-190.1"/>
<g id="a_edge3&#45;headlabel"><a xlink:href="dir_000218_000050.html" target="_top" xlink:title="1">
<text text-anchor="middle" x="66.34" y="-191.2" font-family="Helvetica,sans-Serif" font-size="10.00">1</text>
</a>
</g>
</g>
<!-- dir_84ef7c054b4edc3447cfba80cee80f65 -->
<g id="node5" class="node">
<title>dir_84ef7c054b4edc3447cfba80cee80f65</title>
<g id="a_node5"><a xlink:href="dir_84ef7c054b4edc3447cfba80cee80f65.html" target="_top" xlink:title="IR">
<polygon fill="none" stroke="black" points="116,-108 62,-108 62,-72 116,-72 116,-108"/>
<text text-anchor="middle" x="89" y="-87.5" font-family="Helvetica,sans-Serif" font-size="10.00">IR</text>
</a>
</g>
</g>
<!-- dir_93b46e355d145706f66a968121ed5cf0&#45;&gt;dir_84ef7c054b4edc3447cfba80cee80f65 -->
<g id="edge4" class="edge">
<title>dir_93b46e355d145706f66a968121ed5cf0&#45;&gt;dir_84ef7c054b4edc3447cfba80cee80f65</title>
<path fill="none" stroke="black" d="M77.73,-215.6C86.24,-206 95.53,-193.34 100,-180 106.74,-159.88 103.19,-135.97 98.39,-118"/>
<polygon fill="black" stroke="black" points="101.68,-116.78 95.49,-108.18 94.97,-118.76 101.68,-116.78"/>
<g id="a_edge4&#45;headlabel"><a xlink:href="dir_000218_000046.html" target="_top" xlink:title="5">
<text text-anchor="middle" x="105.42" y="-116.92" font-family="Helvetica,sans-Serif" font-size="10.00">5</text>
</a>
</g>
</g>
<!-- dir_cf63c3ddb21c79ef735682489f4c6a69 -->
<g id="node6" class="node">
<title>dir_cf63c3ddb21c79ef735682489f4c6a69</title>
<g id="a_node6"><a xlink:href="dir_cf63c3ddb21c79ef735682489f4c6a69.html" target="_top" xlink:title="Interfaces">
<polygon fill="none" stroke="red" points="121.5,-36 56.5,-36 56.5,0 121.5,0 121.5,-36"/>
<text text-anchor="middle" x="89" y="-15.5" font-family="Helvetica,sans-Serif" font-size="10.00">Interfaces</text>
</a>
</g>
</g>
<!-- dir_93b46e355d145706f66a968121ed5cf0&#45;&gt;dir_cf63c3ddb21c79ef735682489f4c6a69 -->
<g id="edge5" class="edge">
<title>dir_93b46e355d145706f66a968121ed5cf0&#45;&gt;dir_cf63c3ddb21c79ef735682489f4c6a69</title>
<path fill="none" stroke="black" d="M42.27,-215.6C33.76,-206 24.47,-193.34 20,-180 14.92,-164.83 16.59,-159.63 20,-144 28.19,-106.47 51.75,-68.57 69.07,-44.5"/>
<polygon fill="black" stroke="black" points="72.01,-46.41 75.13,-36.29 66.38,-42.26 72.01,-46.41"/>
<g id="a_edge5&#45;headlabel"><a xlink:href="dir_000218_000279.html" target="_top" xlink:title="4">
<text text-anchor="middle" x="72.16" y="-48.49" font-family="Helvetica,sans-Serif" font-size="10.00">4</text>
</a>
</g>
</g>
<!-- dir_3464f2f6f3cb4f939fd744c47ed106cd -->
<g id="node3" class="node">
<title>dir_3464f2f6f3cb4f939fd744c47ed106cd</title>
<g id="a_node3"><a xlink:href="dir_3464f2f6f3cb4f939fd744c47ed106cd.html" target="_top" xlink:title="Transforms">
<polygon fill="white" stroke="black" points="95.5,-324 24.5,-324 24.5,-288 95.5,-288 95.5,-324"/>
<text text-anchor="middle" x="60" y="-303.5" font-family="Helvetica,sans-Serif" font-size="10.00">Transforms</text>
</a>
</g>
</g>
<!-- dir_3464f2f6f3cb4f939fd744c47ed106cd&#45;&gt;dir_93b46e355d145706f66a968121ed5cf0 -->
<g id="edge8" class="edge">
<title>dir_3464f2f6f3cb4f939fd744c47ed106cd&#45;&gt;dir_93b46e355d145706f66a968121ed5cf0</title>
<path fill="none" stroke="black" d="M60,-287.7C60,-279.98 60,-270.71 60,-262.11"/>
<polygon fill="black" stroke="black" points="63.5,-262.1 60,-252.1 56.5,-262.1 63.5,-262.1"/>
<g id="a_edge8&#45;headlabel"><a xlink:href="dir_000121_000218.html" target="_top" xlink:title="1">
<text text-anchor="middle" x="66.34" y="-263.2" font-family="Helvetica,sans-Serif" font-size="10.00">1</text>
</a>
</g>
</g>
<!-- dir_3464f2f6f3cb4f939fd744c47ed106cd&#45;&gt;dir_84ef7c054b4edc3447cfba80cee80f65 -->
<g id="edge7" class="edge">
<title>dir_3464f2f6f3cb4f939fd744c47ed106cd&#45;&gt;dir_84ef7c054b4edc3447cfba80cee80f65</title>
<path fill="none" stroke="black" d="M73.86,-287.72C81.3,-277.76 90.11,-264.72 96,-252 109.96,-221.86 111.51,-212.91 116,-180 118.16,-164.15 119.73,-159.56 116,-144 113.79,-134.81 109.71,-125.41 105.38,-117.13"/>
<polygon fill="black" stroke="black" points="108.4,-115.36 100.47,-108.33 102.28,-118.77 108.4,-115.36"/>
<g id="a_edge7&#45;headlabel"><a xlink:href="dir_000121_000046.html" target="_top" xlink:title="1">
<text text-anchor="middle" x="112.63" y="-114.61" font-family="Helvetica,sans-Serif" font-size="10.00">1</text>
</a>
</g>
</g>
<!-- dir_cab9f8330899b1cc9d753b1d9c5c5a3e -->
<g id="node7" class="node">
<title>dir_cab9f8330899b1cc9d753b1d9c5c5a3e</title>
<g id="a_node7"><a xlink:href="dir_cab9f8330899b1cc9d753b1d9c5c5a3e.html" target="_top" xlink:title="Pass">
<polygon fill="none" stroke="black" points="246,-252 192,-252 192,-216 246,-216 246,-252"/>
<text text-anchor="middle" x="219" y="-231.5" font-family="Helvetica,sans-Serif" font-size="10.00">Pass</text>
</a>
</g>
</g>
<!-- dir_3464f2f6f3cb4f939fd744c47ed106cd&#45;&gt;dir_cab9f8330899b1cc9d753b1d9c5c5a3e -->
<g id="edge9" class="edge">
<title>dir_3464f2f6f3cb4f939fd744c47ed106cd&#45;&gt;dir_cab9f8330899b1cc9d753b1d9c5c5a3e</title>
<path fill="none" stroke="black" d="M95.68,-289.29C121.61,-277.87 156.59,-262.48 182.67,-250.99"/>
<polygon fill="black" stroke="black" points="184.1,-254.19 191.84,-246.96 181.28,-247.78 184.1,-254.19"/>
<g id="a_edge9&#45;headlabel"><a xlink:href="dir_000121_000053.html" target="_top" xlink:title="1">
<text text-anchor="middle" x="181.96" y="-255.74" font-family="Helvetica,sans-Serif" font-size="10.00">1</text>
</a>
</g>
</g>
<!-- dir_51020c1b0909ae629a35fe1c65c620b9&#45;&gt;dir_84ef7c054b4edc3447cfba80cee80f65 -->
<g id="edge6" class="edge">
<title>dir_51020c1b0909ae629a35fe1c65c620b9&#45;&gt;dir_84ef7c054b4edc3447cfba80cee80f65</title>
<path fill="none" stroke="black" d="M61.25,-143.7C63.73,-135.73 67.51,-126.1 71.56,-117.26"/>
<polygon fill="black" stroke="black" points="74.79,-118.63 76.02,-108.1 68.49,-115.56 74.79,-118.63"/>
<g id="a_edge6&#45;headlabel"><a xlink:href="dir_000050_000046.html" target="_top" xlink:title="9">
<text text-anchor="middle" x="75.77" y="-120.6" font-family="Helvetica,sans-Serif" font-size="10.00">9</text>
</a>
</g>
</g>
<!-- dir_84ef7c054b4edc3447cfba80cee80f65&#45;&gt;dir_51020c1b0909ae629a35fe1c65c620b9 -->
<g id="edge1" class="edge">
<title>dir_84ef7c054b4edc3447cfba80cee80f65&#45;&gt;dir_51020c1b0909ae629a35fe1c65c620b9</title>
<path fill="none" stroke="black" d="M87.81,-108.1C85.35,-116.04 81.59,-125.67 77.54,-134.51"/>
<polygon fill="black" stroke="black" points="74.3,-133.17 73.08,-143.7 80.6,-136.23 74.3,-133.17"/>
<g id="a_edge1&#45;headlabel"><a xlink:href="dir_000046_000050.html" target="_top" xlink:title="2">
<text text-anchor="middle" x="73.32" y="-126.2" font-family="Helvetica,sans-Serif" font-size="10.00">2</text>
</a>
</g>
</g>
<!-- dir_84ef7c054b4edc3447cfba80cee80f65&#45;&gt;dir_cf63c3ddb21c79ef735682489f4c6a69 -->
<g id="edge2" class="edge">
<title>dir_84ef7c054b4edc3447cfba80cee80f65&#45;&gt;dir_cf63c3ddb21c79ef735682489f4c6a69</title>
<path fill="none" stroke="black" d="M83.08,-71.7C82.29,-63.98 82.06,-54.71 82.4,-46.11"/>
<polygon fill="black" stroke="black" points="85.9,-46.32 83.1,-36.1 78.92,-45.84 85.9,-46.32"/>
<g id="a_edge2&#45;headlabel"><a xlink:href="dir_000046_000279.html" target="_top" xlink:title="3">
<text text-anchor="middle" x="88.48" y="-47.61" font-family="Helvetica,sans-Serif" font-size="10.00">3</text>
</a>
</g>
</g>
<!-- dir_cf63c3ddb21c79ef735682489f4c6a69&#45;&gt;dir_84ef7c054b4edc3447cfba80cee80f65 -->
<g id="edge10" class="edge">
<title>dir_cf63c3ddb21c79ef735682489f4c6a69&#45;&gt;dir_84ef7c054b4edc3447cfba80cee80f65</title>
<path fill="none" stroke="black" d="M94.9,-36.1C95.7,-43.79 95.94,-53.05 95.6,-61.67"/>
<polygon fill="black" stroke="black" points="92.11,-61.48 94.92,-71.7 99.09,-61.96 92.11,-61.48"/>
<g id="a_edge10&#45;headlabel"><a xlink:href="dir_000279_000046.html" target="_top" xlink:title="54">
<text text-anchor="middle" x="89.52" y="-55.2" font-family="Helvetica,sans-Serif" font-size="10.00">54</text>
</a>
</g>
</g>
<!-- dir_cab9f8330899b1cc9d753b1d9c5c5a3e&#45;&gt;dir_84ef7c054b4edc3447cfba80cee80f65 -->
<g id="edge11" class="edge">
<title>dir_cab9f8330899b1cc9d753b1d9c5c5a3e&#45;&gt;dir_84ef7c054b4edc3447cfba80cee80f65</title>
<path fill="none" stroke="black" d="M212.71,-215.67C205.09,-196.47 190.77,-165.41 171,-144 158.02,-129.95 140.55,-117.99 125.07,-109"/>
<polygon fill="black" stroke="black" points="126.67,-105.89 116.23,-104.06 123.25,-112 126.67,-105.89"/>
<g id="a_edge11&#45;headlabel"><a xlink:href="dir_000053_000046.html" target="_top" xlink:title="4">
<text text-anchor="middle" x="131.19" y="-102.66" font-family="Helvetica,sans-Serif" font-size="10.00">4</text>
</a>
</g>
</g>
</g>
</svg>
