<?xml version="1.0" encoding="UTF-8" standalone="no"?>
<!DOCTYPE svg PUBLIC "-//W3C//DTD SVG 1.1//EN"
 "http://www.w3.org/Graphics/SVG/1.1/DTD/svg11.dtd">
<!-- Generated by graphviz version 2.43.0 (0)
 -->
<!-- Title: include/mlir/Dialect/Tosa/IR Pages: 1 -->
<svg width="313pt" height="439pt"
 viewBox="0.00 0.00 313.02 439.00" xmlns="http://www.w3.org/2000/svg" xmlns:xlink="http://www.w3.org/1999/xlink">
<g id="graph0" class="graph" transform="scale(1 1) rotate(0) translate(4 435)">
<title>include/mlir/Dialect/Tosa/IR</title>
<g id="clust1" class="cluster">
<title>clusterdir_0c066842859b4d5e44c18f75dbb8ec7e</title>
<g id="a_clust1"><a xlink:href="dir_0c066842859b4d5e44c18f75dbb8ec7e.html" target="_top" xlink:title="Tosa">
<polygon fill="#ddddee" stroke="black" points="96.9,-280 96.9,-423 184.9,-423 184.9,-280 96.9,-280"/>
<text text-anchor="middle" x="140.9" y="-411" font-family="Helvetica,sans-Serif" font-size="10.00">Tosa</text>
</a>
</g>
</g>
<!-- dir_92fd3ef5bf0765e4c0e935add5e237db -->
<g id="node1" class="node">
<title>dir_92fd3ef5bf0765e4c0e935add5e237db</title>
<g id="a_node1"><a xlink:href="dir_92fd3ef5bf0765e4c0e935add5e237db.html" target="_top" xlink:title="Transforms">
<polygon fill="none" stroke="black" points="176.4,-396 105.4,-396 105.4,-360 176.4,-360 176.4,-396"/>
<text text-anchor="middle" x="140.9" y="-375.5" font-family="Helvetica,sans-Serif" font-size="10.00">Transforms</text>
</a>
</g>
</g>
<!-- dir_6780949e97c48b2366054554bf81c7c7 -->
<g id="node2" class="node">
<title>dir_6780949e97c48b2366054554bf81c7c7</title>
<g id="a_node2"><a xlink:href="dir_6780949e97c48b2366054554bf81c7c7.html" target="_top" xlink:title="IR">
<polygon fill="#eeeeff" stroke="black" points="167.9,-324 113.9,-324 113.9,-288 167.9,-288 167.9,-324"/>
<text text-anchor="middle" x="140.9" y="-303.5" font-family="Helvetica,sans-Serif" font-size="10.00">IR</text>
</a>
</g>
</g>
<!-- dir_92fd3ef5bf0765e4c0e935add5e237db&#45;&gt;dir_6780949e97c48b2366054554bf81c7c7 -->
<g id="edge20" class="edge">
<title>dir_92fd3ef5bf0765e4c0e935add5e237db&#45;&gt;dir_6780949e97c48b2366054554bf81c7c7</title>
<path fill="none" stroke="black" d="M134.99,-359.7C134.19,-351.98 133.97,-342.71 134.31,-334.11"/>
<polygon fill="black" stroke="black" points="137.8,-334.32 135.01,-324.1 130.82,-333.84 137.8,-334.32"/>
<g id="a_edge20&#45;headlabel"><a xlink:href="dir_000149_000205.html" target="_top" xlink:title="1">
<text text-anchor="middle" x="140.38" y="-335.61" font-family="Helvetica,sans-Serif" font-size="10.00">1</text>
</a>
</g>
</g>
<!-- dir_6780949e97c48b2366054554bf81c7c7&#45;&gt;dir_92fd3ef5bf0765e4c0e935add5e237db -->
<g id="edge8" class="edge">
<title>dir_6780949e97c48b2366054554bf81c7c7&#45;&gt;dir_92fd3ef5bf0765e4c0e935add5e237db</title>
<path fill="none" stroke="black" d="M146.8,-324.1C147.6,-331.79 147.84,-341.05 147.51,-349.67"/>
<polygon fill="black" stroke="black" points="144.01,-349.48 146.82,-359.7 151,-349.96 144.01,-349.48"/>
<g id="a_edge8&#45;headlabel"><a xlink:href="dir_000205_000149.html" target="_top" xlink:title="1">
<text text-anchor="middle" x="141.43" y="-343.2" font-family="Helvetica,sans-Serif" font-size="10.00">1</text>
</a>
</g>
</g>
<!-- dir_51020c1b0909ae629a35fe1c65c620b9 -->
<g id="node3" class="node">
<title>dir_51020c1b0909ae629a35fe1c65c620b9</title>
<g id="a_node3"><a xlink:href="dir_51020c1b0909ae629a35fe1c65c620b9.html" target="_top" xlink:title="Bytecode">
<polygon fill="none" stroke="black" points="85.9,-252 23.9,-252 23.9,-216 85.9,-216 85.9,-252"/>
<text text-anchor="middle" x="54.9" y="-231.5" font-family="Helvetica,sans-Serif" font-size="10.00">Bytecode</text>
</a>
</g>
</g>
<!-- dir_6780949e97c48b2366054554bf81c7c7&#45;&gt;dir_51020c1b0909ae629a35fe1c65c620b9 -->
<g id="edge6" class="edge">
<title>dir_6780949e97c48b2366054554bf81c7c7&#45;&gt;dir_51020c1b0909ae629a35fe1c65c620b9</title>
<path fill="none" stroke="black" d="M119.65,-287.7C108.81,-278.88 95.49,-268.03 83.74,-258.47"/>
<polygon fill="black" stroke="black" points="85.88,-255.7 75.92,-252.1 81.46,-261.13 85.88,-255.7"/>
<g id="a_edge6&#45;headlabel"><a xlink:href="dir_000205_000050.html" target="_top" xlink:title="1">
<text text-anchor="middle" x="90.46" y="-253.27" font-family="Helvetica,sans-Serif" font-size="10.00">1</text>
</a>
</g>
</g>
<!-- dir_84ef7c054b4edc3447cfba80cee80f65 -->
<g id="node4" class="node">
<title>dir_84ef7c054b4edc3447cfba80cee80f65</title>
<g id="a_node4"><a xlink:href="dir_84ef7c054b4edc3447cfba80cee80f65.html" target="_top" xlink:title="IR">
<polygon fill="none" stroke="black" points="140.9,-180 86.9,-180 86.9,-144 140.9,-144 140.9,-180"/>
<text text-anchor="middle" x="113.9" y="-159.5" font-family="Helvetica,sans-Serif" font-size="10.00">IR</text>
</a>
</g>
</g>
<!-- dir_6780949e97c48b2366054554bf81c7c7&#45;&gt;dir_84ef7c054b4edc3447cfba80cee80f65 -->
<g id="edge7" class="edge">
<title>dir_6780949e97c48b2366054554bf81c7c7&#45;&gt;dir_84ef7c054b4edc3447cfba80cee80f65</title>
<path fill="none" stroke="black" d="M137.65,-287.87C133.05,-263.67 124.59,-219.21 119.11,-190.39"/>
<polygon fill="black" stroke="black" points="122.48,-189.36 117.17,-180.19 115.6,-190.67 122.48,-189.36"/>
<g id="a_edge7&#45;headlabel"><a xlink:href="dir_000205_000046.html" target="_top" xlink:title="4">
<text text-anchor="middle" x="125.94" y="-189.86" font-family="Helvetica,sans-Serif" font-size="10.00">4</text>
</a>
</g>
</g>
<!-- dir_ca4d1f3bc4cd42ba07a57ca86d19a1d6 -->
<g id="node5" class="node">
<title>dir_ca4d1f3bc4cd42ba07a57ca86d19a1d6</title>
<g id="a_node5"><a xlink:href="dir_ca4d1f3bc4cd42ba07a57ca86d19a1d6.html" target="_top" xlink:title="Transforms">
<polygon fill="none" stroke="black" points="285.4,-252 214.4,-252 214.4,-216 285.4,-216 285.4,-252"/>
<text text-anchor="middle" x="249.9" y="-231.5" font-family="Helvetica,sans-Serif" font-size="10.00">Transforms</text>
</a>
</g>
</g>
<!-- dir_6780949e97c48b2366054554bf81c7c7&#45;&gt;dir_ca4d1f3bc4cd42ba07a57ca86d19a1d6 -->
<g id="edge9" class="edge">
<title>dir_6780949e97c48b2366054554bf81c7c7&#45;&gt;dir_ca4d1f3bc4cd42ba07a57ca86d19a1d6</title>
<path fill="none" stroke="black" d="M167.57,-287.88C181.69,-278.81 199.22,-267.55 214.46,-257.76"/>
<polygon fill="black" stroke="black" points="216.61,-260.54 223.14,-252.19 212.83,-254.65 216.61,-260.54"/>
<g id="a_edge9&#45;headlabel"><a xlink:href="dir_000205_000156.html" target="_top" xlink:title="1">
<text text-anchor="middle" x="215.12" y="-262.37" font-family="Helvetica,sans-Serif" font-size="10.00">1</text>
</a>
</g>
</g>
<!-- dir_cf63c3ddb21c79ef735682489f4c6a69 -->
<g id="node6" class="node">
<title>dir_cf63c3ddb21c79ef735682489f4c6a69</title>
<g id="a_node6"><a xlink:href="dir_cf63c3ddb21c79ef735682489f4c6a69.html" target="_top" xlink:title="Interfaces">
<polygon fill="none" stroke="red" points="201.4,-108 136.4,-108 136.4,-72 201.4,-72 201.4,-108"/>
<text text-anchor="middle" x="168.9" y="-87.5" font-family="Helvetica,sans-Serif" font-size="10.00">Interfaces</text>
</a>
</g>
</g>
<!-- dir_6780949e97c48b2366054554bf81c7c7&#45;&gt;dir_cf63c3ddb21c79ef735682489f4c6a69 -->
<g id="edge10" class="edge">
<title>dir_6780949e97c48b2366054554bf81c7c7&#45;&gt;dir_cf63c3ddb21c79ef735682489f4c6a69</title>
<path fill="none" stroke="black" d="M168.15,-304.58C204.05,-302.37 266,-292.51 294.9,-252 331.27,-201.03 257.68,-143.85 208.41,-113.23"/>
<polygon fill="black" stroke="black" points="210.19,-110.22 199.83,-108.01 206.56,-116.2 210.19,-110.22"/>
<g id="a_edge10&#45;headlabel"><a xlink:href="dir_000205_000279.html" target="_top" xlink:title="4">
<text text-anchor="middle" x="214.74" y="-107.16" font-family="Helvetica,sans-Serif" font-size="10.00">4</text>
</a>
</g>
</g>
<!-- dir_f61d47671007dfdb592580b61f960d39 -->
<g id="node7" class="node">
<title>dir_f61d47671007dfdb592580b61f960d39</title>
<g id="a_node7"><a xlink:href="dir_f61d47671007dfdb592580b61f960d39.html" target="_top" xlink:title="Support">
<polygon fill="none" stroke="black" points="134.9,-36 80.9,-36 80.9,0 134.9,0 134.9,-36"/>
<text text-anchor="middle" x="107.9" y="-15.5" font-family="Helvetica,sans-Serif" font-size="10.00">Support</text>
</a>
</g>
</g>
<!-- dir_6780949e97c48b2366054554bf81c7c7&#45;&gt;dir_f61d47671007dfdb592580b61f960d39 -->
<g id="edge11" class="edge">
<title>dir_6780949e97c48b2366054554bf81c7c7&#45;&gt;dir_f61d47671007dfdb592580b61f960d39</title>
<path fill="none" stroke="black" d="M113.76,-302.21C83.77,-297.51 36.83,-285.01 14.9,-252 -30.9,-183.04 42.59,-88.02 83.47,-43.67"/>
<polygon fill="black" stroke="black" points="86.15,-45.93 90.45,-36.24 81.05,-41.13 86.15,-45.93"/>
<g id="a_edge11&#45;headlabel"><a xlink:href="dir_000205_000288.html" target="_top" xlink:title="2">
<text text-anchor="middle" x="85.76" y="-47.99" font-family="Helvetica,sans-Serif" font-size="10.00">2</text>
</a>
</g>
</g>
<!-- dir_fccfbabc762275c37b73fc38935ac34f -->
<g id="node8" class="node">
<title>dir_fccfbabc762275c37b73fc38935ac34f</title>
<g id="a_node8"><a xlink:href="dir_fccfbabc762275c37b73fc38935ac34f.html" target="_top" xlink:title="Quant">
<polygon fill="none" stroke="red" points="195.9,-252 141.9,-252 141.9,-216 195.9,-216 195.9,-252"/>
<text text-anchor="middle" x="168.9" y="-231.5" font-family="Helvetica,sans-Serif" font-size="10.00">Quant</text>
</a>
</g>
</g>
<!-- dir_6780949e97c48b2366054554bf81c7c7&#45;&gt;dir_fccfbabc762275c37b73fc38935ac34f -->
<g id="edge12" class="edge">
<title>dir_6780949e97c48b2366054554bf81c7c7&#45;&gt;dir_fccfbabc762275c37b73fc38935ac34f</title>
<path fill="none" stroke="black" d="M147.83,-287.7C150.98,-279.81 154.78,-270.3 158.29,-261.55"/>
<polygon fill="black" stroke="black" points="161.6,-262.69 162.06,-252.1 155.1,-260.09 161.6,-262.69"/>
<g id="a_edge12&#45;headlabel"><a xlink:href="dir_000205_000135.html" target="_top" xlink:title="1">
<text text-anchor="middle" x="162.9" y="-264.58" font-family="Helvetica,sans-Serif" font-size="10.00">1</text>
</a>
</g>
</g>
<!-- dir_51020c1b0909ae629a35fe1c65c620b9&#45;&gt;dir_84ef7c054b4edc3447cfba80cee80f65 -->
<g id="edge16" class="edge">
<title>dir_51020c1b0909ae629a35fe1c65c620b9&#45;&gt;dir_84ef7c054b4edc3447cfba80cee80f65</title>
<path fill="none" stroke="black" d="M63.57,-215.7C69.84,-207.22 78.38,-196.86 86.71,-187.58"/>
<polygon fill="black" stroke="black" points="89.39,-189.83 93.59,-180.1 84.24,-185.09 89.39,-189.83"/>
<g id="a_edge16&#45;headlabel"><a xlink:href="dir_000050_000046.html" target="_top" xlink:title="9">
<text text-anchor="middle" x="89.05" y="-191.9" font-family="Helvetica,sans-Serif" font-size="10.00">9</text>
</a>
</g>
</g>
<!-- dir_51020c1b0909ae629a35fe1c65c620b9&#45;&gt;dir_f61d47671007dfdb592580b61f960d39 -->
<g id="edge17" class="edge">
<title>dir_51020c1b0909ae629a35fe1c65c620b9&#45;&gt;dir_f61d47671007dfdb592580b61f960d39</title>
<path fill="none" stroke="black" d="M59.15,-215.85C68.34,-178.75 90.12,-90.81 101.19,-46.1"/>
<polygon fill="black" stroke="black" points="104.63,-46.78 103.64,-36.23 97.83,-45.1 104.63,-46.78"/>
<g id="a_edge17&#45;headlabel"><a xlink:href="dir_000050_000288.html" target="_top" xlink:title="2">
<text text-anchor="middle" x="106.52" y="-48.45" font-family="Helvetica,sans-Serif" font-size="10.00">2</text>
</a>
</g>
</g>
<!-- dir_84ef7c054b4edc3447cfba80cee80f65&#45;&gt;dir_51020c1b0909ae629a35fe1c65c620b9 -->
<g id="edge1" class="edge">
<title>dir_84ef7c054b4edc3447cfba80cee80f65&#45;&gt;dir_51020c1b0909ae629a35fe1c65c620b9</title>
<path fill="none" stroke="black" d="M105.38,-180.1C99.15,-188.55 90.62,-198.9 82.3,-208.2"/>
<polygon fill="black" stroke="black" points="79.59,-205.97 75.4,-215.7 84.75,-210.7 79.59,-205.97"/>
<g id="a_edge1&#45;headlabel"><a xlink:href="dir_000046_000050.html" target="_top" xlink:title="2">
<text text-anchor="middle" x="79.94" y="-198.9" font-family="Helvetica,sans-Serif" font-size="10.00">2</text>
</a>
</g>
</g>
<!-- dir_84ef7c054b4edc3447cfba80cee80f65&#45;&gt;dir_cf63c3ddb21c79ef735682489f4c6a69 -->
<g id="edge2" class="edge">
<title>dir_84ef7c054b4edc3447cfba80cee80f65&#45;&gt;dir_cf63c3ddb21c79ef735682489f4c6a69</title>
<path fill="none" stroke="black" d="M121.58,-143.7C127.31,-135.3 135.16,-125.07 142.88,-115.86"/>
<polygon fill="black" stroke="black" points="145.69,-117.96 149.57,-108.1 140.39,-113.39 145.69,-117.96"/>
<g id="a_edge2&#45;headlabel"><a xlink:href="dir_000046_000279.html" target="_top" xlink:title="3">
<text text-anchor="middle" x="145.49" y="-120.04" font-family="Helvetica,sans-Serif" font-size="10.00">3</text>
</a>
</g>
</g>
<!-- dir_84ef7c054b4edc3447cfba80cee80f65&#45;&gt;dir_f61d47671007dfdb592580b61f960d39 -->
<g id="edge3" class="edge">
<title>dir_84ef7c054b4edc3447cfba80cee80f65&#45;&gt;dir_f61d47671007dfdb592580b61f960d39</title>
<path fill="none" stroke="black" d="M113.18,-143.87C112.16,-119.67 110.28,-75.21 109.06,-46.39"/>
<polygon fill="black" stroke="black" points="112.55,-46.03 108.63,-36.19 105.56,-46.33 112.55,-46.03"/>
<g id="a_edge3&#45;headlabel"><a xlink:href="dir_000046_000288.html" target="_top" xlink:title="23">
<text text-anchor="middle" x="115.54" y="-47" font-family="Helvetica,sans-Serif" font-size="10.00">23</text>
</a>
</g>
</g>
<!-- dir_ca4d1f3bc4cd42ba07a57ca86d19a1d6&#45;&gt;dir_84ef7c054b4edc3447cfba80cee80f65 -->
<g id="edge13" class="edge">
<title>dir_ca4d1f3bc4cd42ba07a57ca86d19a1d6&#45;&gt;dir_84ef7c054b4edc3447cfba80cee80f65</title>
<path fill="none" stroke="black" d="M216.63,-215.88C196.59,-205.56 171.03,-192.4 150.42,-181.8"/>
<polygon fill="black" stroke="black" points="151.84,-178.59 141.34,-177.12 148.63,-184.81 151.84,-178.59"/>
<g id="a_edge13&#45;headlabel"><a xlink:href="dir_000156_000046.html" target="_top" xlink:title="19">
<text text-anchor="middle" x="156.33" y="-175.21" font-family="Helvetica,sans-Serif" font-size="10.00">19</text>
</a>
</g>
</g>
<!-- dir_ca4d1f3bc4cd42ba07a57ca86d19a1d6&#45;&gt;dir_cf63c3ddb21c79ef735682489f4c6a69 -->
<g id="edge14" class="edge">
<title>dir_ca4d1f3bc4cd42ba07a57ca86d19a1d6&#45;&gt;dir_cf63c3ddb21c79ef735682489f4c6a69</title>
<path fill="none" stroke="black" d="M240.13,-215.87C226.09,-191.24 200.07,-145.64 183.67,-116.88"/>
<polygon fill="black" stroke="black" points="186.7,-115.14 178.71,-108.19 180.62,-118.61 186.7,-115.14"/>
<g id="a_edge14&#45;headlabel"><a xlink:href="dir_000156_000279.html" target="_top" xlink:title="4">
<text text-anchor="middle" x="190.95" y="-114.36" font-family="Helvetica,sans-Serif" font-size="10.00">4</text>
</a>
</g>
</g>
<!-- dir_ca4d1f3bc4cd42ba07a57ca86d19a1d6&#45;&gt;dir_f61d47671007dfdb592580b61f960d39 -->
<g id="edge15" class="edge">
<title>dir_ca4d1f3bc4cd42ba07a57ca86d19a1d6&#45;&gt;dir_f61d47671007dfdb592580b61f960d39</title>
<path fill="none" stroke="black" d="M250.07,-215.99C249.52,-184.28 244.14,-115.43 209.9,-72 193.51,-51.21 166.71,-37.73 144.7,-29.57"/>
<polygon fill="black" stroke="black" points="145.57,-26.17 134.97,-26.19 143.27,-32.78 145.57,-26.17"/>
<g id="a_edge15&#45;headlabel"><a xlink:href="dir_000156_000288.html" target="_top" xlink:title="6">
<text text-anchor="middle" x="149.9" y="-22.17" font-family="Helvetica,sans-Serif" font-size="10.00">6</text>
</a>
</g>
</g>
<!-- dir_cf63c3ddb21c79ef735682489f4c6a69&#45;&gt;dir_84ef7c054b4edc3447cfba80cee80f65 -->
<g id="edge18" class="edge">
<title>dir_cf63c3ddb21c79ef735682489f4c6a69&#45;&gt;dir_84ef7c054b4edc3447cfba80cee80f65</title>
<path fill="none" stroke="black" d="M161.36,-108.1C155.67,-116.47 147.83,-126.69 140.11,-135.92"/>
<polygon fill="black" stroke="black" points="137.29,-133.84 133.42,-143.7 142.59,-138.4 137.29,-133.84"/>
<g id="a_edge18&#45;headlabel"><a xlink:href="dir_000279_000046.html" target="_top" xlink:title="54">
<text text-anchor="middle" x="137.48" y="-126.76" font-family="Helvetica,sans-Serif" font-size="10.00">54</text>
</a>
</g>
</g>
<!-- dir_cf63c3ddb21c79ef735682489f4c6a69&#45;&gt;dir_f61d47671007dfdb592580b61f960d39 -->
<g id="edge19" class="edge">
<title>dir_cf63c3ddb21c79ef735682489f4c6a69&#45;&gt;dir_f61d47671007dfdb592580b61f960d39</title>
<path fill="none" stroke="black" d="M153.83,-71.7C146.51,-63.3 137.59,-53.07 129.57,-43.86"/>
<polygon fill="black" stroke="black" points="132.02,-41.34 122.81,-36.1 126.74,-45.94 132.02,-41.34"/>
<g id="a_edge19&#45;headlabel"><a xlink:href="dir_000279_000288.html" target="_top" xlink:title="2">
<text text-anchor="middle" x="136.52" y="-39.69" font-family="Helvetica,sans-Serif" font-size="10.00">2</text>
</a>
</g>
</g>
<!-- dir_fccfbabc762275c37b73fc38935ac34f&#45;&gt;dir_84ef7c054b4edc3447cfba80cee80f65 -->
<g id="edge4" class="edge">
<title>dir_fccfbabc762275c37b73fc38935ac34f&#45;&gt;dir_84ef7c054b4edc3447cfba80cee80f65</title>
<path fill="none" stroke="black" d="M155.31,-215.7C148.78,-207.39 140.84,-197.28 133.66,-188.14"/>
<polygon fill="black" stroke="black" points="136.27,-185.81 127.34,-180.1 130.77,-190.13 136.27,-185.81"/>
<g id="a_edge4&#45;headlabel"><a xlink:href="dir_000135_000046.html" target="_top" xlink:title="14">
<text text-anchor="middle" x="140.73" y="-184.38" font-family="Helvetica,sans-Serif" font-size="10.00">14</text>
</a>
</g>
</g>
<!-- dir_fccfbabc762275c37b73fc38935ac34f&#45;&gt;dir_cf63c3ddb21c79ef735682489f4c6a69 -->
<g id="edge5" class="edge">
<title>dir_fccfbabc762275c37b73fc38935ac34f&#45;&gt;dir_cf63c3ddb21c79ef735682489f4c6a69</title>
<path fill="none" stroke="black" d="M168.9,-215.87C168.9,-191.67 168.9,-147.21 168.9,-118.39"/>
<polygon fill="black" stroke="black" points="172.4,-118.19 168.9,-108.19 165.4,-118.19 172.4,-118.19"/>
<g id="a_edge5&#45;headlabel"><a xlink:href="dir_000135_000279.html" target="_top" xlink:title="2">
<text text-anchor="middle" x="175.24" y="-119.28" font-family="Helvetica,sans-Serif" font-size="10.00">2</text>
</a>
</g>
</g>
</g>
</svg>
