<?xml version="1.0" encoding="UTF-8" standalone="no"?>
<!DOCTYPE svg PUBLIC "-//W3C//DTD SVG 1.1//EN"
 "http://www.w3.org/Graphics/SVG/1.1/DTD/svg11.dtd">
<!-- Generated by graphviz version 2.43.0 (0)
 -->
<!-- Title: include/mlir/Dialect/Vector/Transforms Pages: 1 -->
<svg width="314pt" height="367pt"
 viewBox="0.00 0.00 313.57 367.00" xmlns="http://www.w3.org/2000/svg" xmlns:xlink="http://www.w3.org/1999/xlink">
<g id="graph0" class="graph" transform="scale(1 1) rotate(0) translate(4 363)">
<title>include/mlir/Dialect/Vector/Transforms</title>
<g id="clust1" class="cluster">
<title>clusterdir_bfd3493254b3df47293537524626123b</title>
<g id="a_clust1"><a xlink:href="dir_bfd3493254b3df47293537524626123b.html" target="_top" xlink:title="Vector">
<polygon fill="#ddddee" stroke="black" points="205.95,-136 205.95,-351 295.95,-351 295.95,-136 205.95,-136"/>
<text text-anchor="middle" x="250.95" y="-339" font-family="Helvetica,sans-Serif" font-size="10.00">Vector</text>
</a>
</g>
</g>
<!-- dir_1dab9f9d0cf5266e7523ac32b5645f46 -->
<g id="node1" class="node">
<title>dir_1dab9f9d0cf5266e7523ac32b5645f46</title>
<g id="a_node1"><a xlink:href="dir_1dab9f9d0cf5266e7523ac32b5645f46.html" target="_top" xlink:title="Utils">
<polygon fill="none" stroke="black" points="267.95,-252 213.95,-252 213.95,-216 267.95,-216 267.95,-252"/>
<text text-anchor="middle" x="240.95" y="-231.5" font-family="Helvetica,sans-Serif" font-size="10.00">Utils</text>
</a>
</g>
</g>
<!-- dir_c27dd260836732adecb74ef8f0bd7958 -->
<g id="node2" class="node">
<title>dir_c27dd260836732adecb74ef8f0bd7958</title>
<g id="a_node2"><a xlink:href="dir_c27dd260836732adecb74ef8f0bd7958.html" target="_top" xlink:title="IR">
<polygon fill="none" stroke="black" points="287.95,-180 233.95,-180 233.95,-144 287.95,-144 287.95,-180"/>
<text text-anchor="middle" x="260.95" y="-159.5" font-family="Helvetica,sans-Serif" font-size="10.00">IR</text>
</a>
</g>
</g>
<!-- dir_1dab9f9d0cf5266e7523ac32b5645f46&#45;&gt;dir_c27dd260836732adecb74ef8f0bd7958 -->
<g id="edge12" class="edge">
<title>dir_1dab9f9d0cf5266e7523ac32b5645f46&#45;&gt;dir_c27dd260836732adecb74ef8f0bd7958</title>
<path fill="none" stroke="black" d="M245.89,-215.7C248.12,-207.9 250.8,-198.51 253.28,-189.83"/>
<polygon fill="black" stroke="black" points="256.68,-190.68 256.06,-180.1 249.95,-188.76 256.68,-190.68"/>
<g id="a_edge12&#45;headlabel"><a xlink:href="dir_000275_000193.html" target="_top" xlink:title="1">
<text text-anchor="middle" x="258.42" y="-192.42" font-family="Helvetica,sans-Serif" font-size="10.00">1</text>
</a>
</g>
</g>
<!-- dir_84ef7c054b4edc3447cfba80cee80f65 -->
<g id="node5" class="node">
<title>dir_84ef7c054b4edc3447cfba80cee80f65</title>
<g id="a_node5"><a xlink:href="dir_84ef7c054b4edc3447cfba80cee80f65.html" target="_top" xlink:title="IR">
<polygon fill="none" stroke="black" points="139.95,-108 85.95,-108 85.95,-72 139.95,-72 139.95,-108"/>
<text text-anchor="middle" x="112.95" y="-87.5" font-family="Helvetica,sans-Serif" font-size="10.00">IR</text>
</a>
</g>
</g>
<!-- dir_1dab9f9d0cf5266e7523ac32b5645f46&#45;&gt;dir_84ef7c054b4edc3447cfba80cee80f65 -->
<g id="edge11" class="edge">
<title>dir_1dab9f9d0cf5266e7523ac32b5645f46&#45;&gt;dir_84ef7c054b4edc3447cfba80cee80f65</title>
<path fill="none" stroke="black" d="M225.51,-215.87C203.02,-190.92 161.12,-144.45 135.28,-115.77"/>
<polygon fill="black" stroke="black" points="137.73,-113.27 128.44,-108.19 132.54,-117.96 137.73,-113.27"/>
<g id="a_edge11&#45;headlabel"><a xlink:href="dir_000275_000046.html" target="_top" xlink:title="1">
<text text-anchor="middle" x="142.25" y="-111.54" font-family="Helvetica,sans-Serif" font-size="10.00">1</text>
</a>
</g>
</g>
<!-- dir_c27dd260836732adecb74ef8f0bd7958&#45;&gt;dir_84ef7c054b4edc3447cfba80cee80f65 -->
<g id="edge5" class="edge">
<title>dir_c27dd260836732adecb74ef8f0bd7958&#45;&gt;dir_84ef7c054b4edc3447cfba80cee80f65</title>
<path fill="none" stroke="black" d="M233.92,-143.74C229.32,-141.03 224.55,-138.35 219.95,-136 197.18,-124.35 170.69,-113.2 149.76,-104.9"/>
<polygon fill="black" stroke="black" points="150.86,-101.58 140.28,-101.19 148.31,-108.09 150.86,-101.58"/>
<g id="a_edge5&#45;headlabel"><a xlink:href="dir_000193_000046.html" target="_top" xlink:title="6">
<text text-anchor="middle" x="155.25" y="-97.74" font-family="Helvetica,sans-Serif" font-size="10.00">6</text>
</a>
</g>
</g>
<!-- dir_cf63c3ddb21c79ef735682489f4c6a69 -->
<g id="node8" class="node">
<title>dir_cf63c3ddb21c79ef735682489f4c6a69</title>
<g id="a_node8"><a xlink:href="dir_cf63c3ddb21c79ef735682489f4c6a69.html" target="_top" xlink:title="Interfaces">
<polygon fill="none" stroke="red" points="172.45,-36 107.45,-36 107.45,0 172.45,0 172.45,-36"/>
<text text-anchor="middle" x="139.95" y="-15.5" font-family="Helvetica,sans-Serif" font-size="10.00">Interfaces</text>
</a>
</g>
</g>
<!-- dir_c27dd260836732adecb74ef8f0bd7958&#45;&gt;dir_cf63c3ddb21c79ef735682489f4c6a69 -->
<g id="edge6" class="edge">
<title>dir_c27dd260836732adecb74ef8f0bd7958&#45;&gt;dir_cf63c3ddb21c79ef735682489f4c6a69</title>
<path fill="none" stroke="black" d="M246.35,-143.87C225.18,-119.03 185.83,-72.85 161.37,-44.14"/>
<polygon fill="black" stroke="black" points="163.74,-41.53 154.59,-36.19 158.41,-46.07 163.74,-41.53"/>
<g id="a_edge6&#45;headlabel"><a xlink:href="dir_000193_000279.html" target="_top" xlink:title="8">
<text text-anchor="middle" x="168.23" y="-39.93" font-family="Helvetica,sans-Serif" font-size="10.00">8</text>
</a>
</g>
</g>
<!-- dir_7660300496de3c7eb5f7721e6dbc1ced -->
<g id="node3" class="node">
<title>dir_7660300496de3c7eb5f7721e6dbc1ced</title>
<g id="a_node3"><a xlink:href="dir_7660300496de3c7eb5f7721e6dbc1ced.html" target="_top" xlink:title="Transforms">
<polygon fill="#eeeeff" stroke="black" points="285.45,-324 214.45,-324 214.45,-288 285.45,-288 285.45,-324"/>
<text text-anchor="middle" x="249.95" y="-303.5" font-family="Helvetica,sans-Serif" font-size="10.00">Transforms</text>
</a>
</g>
</g>
<!-- dir_7660300496de3c7eb5f7721e6dbc1ced&#45;&gt;dir_1dab9f9d0cf5266e7523ac32b5645f46 -->
<g id="edge15" class="edge">
<title>dir_7660300496de3c7eb5f7721e6dbc1ced&#45;&gt;dir_1dab9f9d0cf5266e7523ac32b5645f46</title>
<path fill="none" stroke="black" d="M247.72,-287.7C246.73,-279.98 245.54,-270.71 244.43,-262.11"/>
<polygon fill="black" stroke="black" points="247.89,-261.58 243.14,-252.1 240.95,-262.47 247.89,-261.58"/>
<g id="a_edge15&#45;headlabel"><a xlink:href="dir_000152_000275.html" target="_top" xlink:title="2">
<text text-anchor="middle" x="251.17" y="-262.28" font-family="Helvetica,sans-Serif" font-size="10.00">2</text>
</a>
</g>
</g>
<!-- dir_7660300496de3c7eb5f7721e6dbc1ced&#45;&gt;dir_c27dd260836732adecb74ef8f0bd7958 -->
<g id="edge19" class="edge">
<title>dir_7660300496de3c7eb5f7721e6dbc1ced&#45;&gt;dir_c27dd260836732adecb74ef8f0bd7958</title>
<path fill="none" stroke="black" d="M261.41,-287.67C267.32,-277.69 273.91,-264.65 276.95,-252 281.91,-231.33 277.14,-207.62 271.55,-189.88"/>
<polygon fill="black" stroke="black" points="274.78,-188.51 268.23,-180.18 268.16,-190.78 274.78,-188.51"/>
<g id="a_edge19&#45;headlabel"><a xlink:href="dir_000152_000193.html" target="_top" xlink:title="2">
<text text-anchor="middle" x="278.64" y="-188.49" font-family="Helvetica,sans-Serif" font-size="10.00">2</text>
</a>
</g>
</g>
<!-- dir_342ad3e7b83526a7f418520e380404a9 -->
<g id="node4" class="node">
<title>dir_342ad3e7b83526a7f418520e380404a9</title>
<g id="a_node4"><a xlink:href="dir_342ad3e7b83526a7f418520e380404a9.html" target="_top" xlink:title="Func">
<polygon fill="none" stroke="red" points="69.95,-252 15.95,-252 15.95,-216 69.95,-216 69.95,-252"/>
<text text-anchor="middle" x="42.95" y="-231.5" font-family="Helvetica,sans-Serif" font-size="10.00">Func</text>
</a>
</g>
</g>
<!-- dir_7660300496de3c7eb5f7721e6dbc1ced&#45;&gt;dir_342ad3e7b83526a7f418520e380404a9 -->
<g id="edge16" class="edge">
<title>dir_7660300496de3c7eb5f7721e6dbc1ced&#45;&gt;dir_342ad3e7b83526a7f418520e380404a9</title>
<path fill="none" stroke="black" d="M214.36,-292.97C176.8,-280.26 117.86,-260.34 79.82,-247.47"/>
<polygon fill="black" stroke="black" points="80.75,-244.09 70.15,-244.2 78.5,-250.72 80.75,-244.09"/>
<g id="a_edge16&#45;headlabel"><a xlink:href="dir_000152_000021.html" target="_top" xlink:title="1">
<text text-anchor="middle" x="85.06" y="-240.05" font-family="Helvetica,sans-Serif" font-size="10.00">1</text>
</a>
</g>
</g>
<!-- dir_7660300496de3c7eb5f7721e6dbc1ced&#45;&gt;dir_84ef7c054b4edc3447cfba80cee80f65 -->
<g id="edge17" class="edge">
<title>dir_7660300496de3c7eb5f7721e6dbc1ced&#45;&gt;dir_84ef7c054b4edc3447cfba80cee80f65</title>
<path fill="none" stroke="black" d="M213.98,-302.54C152.79,-297.52 32.54,-283.78 6.95,-252 -12.26,-228.15 13.5,-153.09 26.95,-136 39.43,-120.14 59.07,-109.26 76.43,-102.19"/>
<polygon fill="black" stroke="black" points="77.67,-105.46 85.78,-98.64 75.19,-98.91 77.67,-105.46"/>
<g id="a_edge17&#45;headlabel"><a xlink:href="dir_000152_000046.html" target="_top" xlink:title="1">
<text text-anchor="middle" x="75.32" y="-106.89" font-family="Helvetica,sans-Serif" font-size="10.00">1</text>
</a>
</g>
</g>
<!-- dir_93cabfc07d4b6bdd370da47c980ee537 -->
<g id="node6" class="node">
<title>dir_93cabfc07d4b6bdd370da47c980ee537</title>
<g id="a_node6"><a xlink:href="dir_93cabfc07d4b6bdd370da47c980ee537.html" target="_top" xlink:title="GPU">
<polygon fill="none" stroke="red" points="194.95,-252 140.95,-252 140.95,-216 194.95,-216 194.95,-252"/>
<text text-anchor="middle" x="167.95" y="-231.5" font-family="Helvetica,sans-Serif" font-size="10.00">GPU</text>
</a>
</g>
</g>
<!-- dir_7660300496de3c7eb5f7721e6dbc1ced&#45;&gt;dir_93cabfc07d4b6bdd370da47c980ee537 -->
<g id="edge18" class="edge">
<title>dir_7660300496de3c7eb5f7721e6dbc1ced&#45;&gt;dir_93cabfc07d4b6bdd370da47c980ee537</title>
<path fill="none" stroke="black" d="M229.68,-287.7C219.45,-278.97 206.88,-268.24 195.77,-258.75"/>
<polygon fill="black" stroke="black" points="197.86,-255.94 187.98,-252.1 193.31,-261.26 197.86,-255.94"/>
<g id="a_edge18&#45;headlabel"><a xlink:href="dir_000152_000023.html" target="_top" xlink:title="1">
<text text-anchor="middle" x="202.44" y="-253.61" font-family="Helvetica,sans-Serif" font-size="10.00">1</text>
</a>
</g>
</g>
<!-- dir_cab9f8330899b1cc9d753b1d9c5c5a3e -->
<g id="node7" class="node">
<title>dir_cab9f8330899b1cc9d753b1d9c5c5a3e</title>
<g id="a_node7"><a xlink:href="dir_cab9f8330899b1cc9d753b1d9c5c5a3e.html" target="_top" xlink:title="Pass">
<polygon fill="none" stroke="black" points="101.95,-180 47.95,-180 47.95,-144 101.95,-144 101.95,-180"/>
<text text-anchor="middle" x="74.95" y="-159.5" font-family="Helvetica,sans-Serif" font-size="10.00">Pass</text>
</a>
</g>
</g>
<!-- dir_7660300496de3c7eb5f7721e6dbc1ced&#45;&gt;dir_cab9f8330899b1cc9d753b1d9c5c5a3e -->
<g id="edge20" class="edge">
<title>dir_7660300496de3c7eb5f7721e6dbc1ced&#45;&gt;dir_cab9f8330899b1cc9d753b1d9c5c5a3e</title>
<path fill="none" stroke="black" d="M214.42,-295.04C189.29,-286.66 155.92,-272.68 131.95,-252 111.98,-234.78 96.46,-208.84 86.7,-189.41"/>
<polygon fill="black" stroke="black" points="89.74,-187.67 82.25,-180.18 83.44,-190.71 89.74,-187.67"/>
<g id="a_edge20&#45;headlabel"><a xlink:href="dir_000152_000053.html" target="_top" xlink:title="1">
<text text-anchor="middle" x="93.86" y="-187.17" font-family="Helvetica,sans-Serif" font-size="10.00">1</text>
</a>
</g>
</g>
<!-- dir_7660300496de3c7eb5f7721e6dbc1ced&#45;&gt;dir_cf63c3ddb21c79ef735682489f4c6a69 -->
<g id="edge21" class="edge">
<title>dir_7660300496de3c7eb5f7721e6dbc1ced&#45;&gt;dir_cf63c3ddb21c79ef735682489f4c6a69</title>
<path fill="none" stroke="black" d="M262.46,-287.94C283.82,-256.58 322.61,-188.2 296.95,-136 273.44,-88.19 219.87,-55.07 181.86,-36.57"/>
<polygon fill="black" stroke="black" points="183.1,-33.28 172.56,-32.18 180.11,-39.62 183.1,-33.28"/>
<g id="a_edge21&#45;headlabel"><a xlink:href="dir_000152_000279.html" target="_top" xlink:title="1">
<text text-anchor="middle" x="187.56" y="-29.75" font-family="Helvetica,sans-Serif" font-size="10.00">1</text>
</a>
</g>
</g>
<!-- dir_342ad3e7b83526a7f418520e380404a9&#45;&gt;dir_84ef7c054b4edc3447cfba80cee80f65 -->
<g id="edge1" class="edge">
<title>dir_342ad3e7b83526a7f418520e380404a9&#45;&gt;dir_84ef7c054b4edc3447cfba80cee80f65</title>
<path fill="none" stroke="black" d="M37.14,-215.97C31.27,-195.56 24.9,-160.98 38.95,-136 47.11,-121.49 62.05,-111.11 76.39,-104"/>
<polygon fill="black" stroke="black" points="77.99,-107.12 85.64,-99.8 75.09,-100.75 77.99,-107.12"/>
<g id="a_edge1&#45;headlabel"><a xlink:href="dir_000021_000046.html" target="_top" xlink:title="8">
<text text-anchor="middle" x="75.89" y="-108.69" font-family="Helvetica,sans-Serif" font-size="10.00">8</text>
</a>
</g>
</g>
<!-- dir_342ad3e7b83526a7f418520e380404a9&#45;&gt;dir_cab9f8330899b1cc9d753b1d9c5c5a3e -->
<g id="edge3" class="edge">
<title>dir_342ad3e7b83526a7f418520e380404a9&#45;&gt;dir_cab9f8330899b1cc9d753b1d9c5c5a3e</title>
<path fill="none" stroke="black" d="M50.86,-215.7C54.5,-207.73 58.9,-198.1 62.94,-189.26"/>
<polygon fill="black" stroke="black" points="66.15,-190.65 67.13,-180.1 59.79,-187.74 66.15,-190.65"/>
<g id="a_edge3&#45;headlabel"><a xlink:href="dir_000021_000053.html" target="_top" xlink:title="1">
<text text-anchor="middle" x="67.24" y="-192.6" font-family="Helvetica,sans-Serif" font-size="10.00">1</text>
</a>
</g>
</g>
<!-- dir_342ad3e7b83526a7f418520e380404a9&#45;&gt;dir_cf63c3ddb21c79ef735682489f4c6a69 -->
<g id="edge2" class="edge">
<title>dir_342ad3e7b83526a7f418520e380404a9&#45;&gt;dir_cf63c3ddb21c79ef735682489f4c6a69</title>
<path fill="none" stroke="black" d="M35.12,-215.75C27.3,-196.02 17.67,-162.95 26.95,-136 40.69,-96.07 76.93,-62.87 104.7,-42.16"/>
<polygon fill="black" stroke="black" points="106.97,-44.84 113.01,-36.14 102.86,-39.17 106.97,-44.84"/>
<g id="a_edge2&#45;headlabel"><a xlink:href="dir_000021_000279.html" target="_top" xlink:title="5">
<text text-anchor="middle" x="105.72" y="-46.75" font-family="Helvetica,sans-Serif" font-size="10.00">5</text>
</a>
</g>
</g>
<!-- dir_84ef7c054b4edc3447cfba80cee80f65&#45;&gt;dir_cf63c3ddb21c79ef735682489f4c6a69 -->
<g id="edge4" class="edge">
<title>dir_84ef7c054b4edc3447cfba80cee80f65&#45;&gt;dir_cf63c3ddb21c79ef735682489f4c6a69</title>
<path fill="none" stroke="black" d="M113.7,-71.7C115.96,-63.73 119.45,-54.1 123.26,-45.26"/>
<polygon fill="black" stroke="black" points="126.47,-46.65 127.45,-36.1 120.1,-43.74 126.47,-46.65"/>
<g id="a_edge4&#45;headlabel"><a xlink:href="dir_000046_000279.html" target="_top" xlink:title="3">
<text text-anchor="middle" x="127.55" y="-48.6" font-family="Helvetica,sans-Serif" font-size="10.00">3</text>
</a>
</g>
</g>
<!-- dir_93cabfc07d4b6bdd370da47c980ee537&#45;&gt;dir_c27dd260836732adecb74ef8f0bd7958 -->
<g id="edge10" class="edge">
<title>dir_93cabfc07d4b6bdd370da47c980ee537&#45;&gt;dir_c27dd260836732adecb74ef8f0bd7958</title>
<path fill="none" stroke="black" d="M190.93,-215.7C202.76,-206.8 217.34,-195.82 230.12,-186.2"/>
<polygon fill="black" stroke="black" points="232.34,-188.91 238.22,-180.1 228.13,-183.32 232.34,-188.91"/>
<g id="a_edge10&#45;headlabel"><a xlink:href="dir_000023_000193.html" target="_top" xlink:title="1">
<text text-anchor="middle" x="231.17" y="-190.84" font-family="Helvetica,sans-Serif" font-size="10.00">1</text>
</a>
</g>
</g>
<!-- dir_93cabfc07d4b6bdd370da47c980ee537&#45;&gt;dir_84ef7c054b4edc3447cfba80cee80f65 -->
<g id="edge7" class="edge">
<title>dir_93cabfc07d4b6bdd370da47c980ee537&#45;&gt;dir_84ef7c054b4edc3447cfba80cee80f65</title>
<path fill="none" stroke="black" d="M161.31,-215.87C151.85,-191.46 134.41,-146.43 123.26,-117.64"/>
<polygon fill="black" stroke="black" points="126.48,-116.25 119.6,-108.19 119.95,-118.78 126.48,-116.25"/>
<g id="a_edge7&#45;headlabel"><a xlink:href="dir_000023_000046.html" target="_top" xlink:title="14">
<text text-anchor="middle" x="130.42" y="-116.08" font-family="Helvetica,sans-Serif" font-size="10.00">14</text>
</a>
</g>
</g>
<!-- dir_93cabfc07d4b6bdd370da47c980ee537&#45;&gt;dir_cab9f8330899b1cc9d753b1d9c5c5a3e -->
<g id="edge9" class="edge">
<title>dir_93cabfc07d4b6bdd370da47c980ee537&#45;&gt;dir_cab9f8330899b1cc9d753b1d9c5c5a3e</title>
<path fill="none" stroke="black" d="M144.96,-215.7C133.13,-206.8 118.55,-195.82 105.77,-186.2"/>
<polygon fill="black" stroke="black" points="107.76,-183.32 97.67,-180.1 103.55,-188.91 107.76,-183.32"/>
<g id="a_edge9&#45;headlabel"><a xlink:href="dir_000023_000053.html" target="_top" xlink:title="2">
<text text-anchor="middle" x="112.34" y="-180.71" font-family="Helvetica,sans-Serif" font-size="10.00">2</text>
</a>
</g>
</g>
<!-- dir_93cabfc07d4b6bdd370da47c980ee537&#45;&gt;dir_cf63c3ddb21c79ef735682489f4c6a69 -->
<g id="edge8" class="edge">
<title>dir_93cabfc07d4b6bdd370da47c980ee537&#45;&gt;dir_cf63c3ddb21c79ef735682489f4c6a69</title>
<path fill="none" stroke="black" d="M166.18,-215.57C163.12,-185.99 156.44,-124.1 148.95,-72 147.73,-63.56 146.24,-54.38 144.82,-46.08"/>
<polygon fill="black" stroke="black" points="148.25,-45.4 143.08,-36.15 141.35,-46.6 148.25,-45.4"/>
<g id="a_edge8&#45;headlabel"><a xlink:href="dir_000023_000279.html" target="_top" xlink:title="5">
<text text-anchor="middle" x="151.66" y="-45.95" font-family="Helvetica,sans-Serif" font-size="10.00">5</text>
</a>
</g>
</g>
<!-- dir_cab9f8330899b1cc9d753b1d9c5c5a3e&#45;&gt;dir_84ef7c054b4edc3447cfba80cee80f65 -->
<g id="edge14" class="edge">
<title>dir_cab9f8330899b1cc9d753b1d9c5c5a3e&#45;&gt;dir_84ef7c054b4edc3447cfba80cee80f65</title>
<path fill="none" stroke="black" d="M84.34,-143.7C88.71,-135.64 94,-125.89 98.84,-116.98"/>
<polygon fill="black" stroke="black" points="101.96,-118.56 103.66,-108.1 95.81,-115.22 101.96,-118.56"/>
<g id="a_edge14&#45;headlabel"><a xlink:href="dir_000053_000046.html" target="_top" xlink:title="4">
<text text-anchor="middle" x="102.75" y="-120.58" font-family="Helvetica,sans-Serif" font-size="10.00">4</text>
</a>
</g>
</g>
<!-- dir_cf63c3ddb21c79ef735682489f4c6a69&#45;&gt;dir_84ef7c054b4edc3447cfba80cee80f65 -->
<g id="edge13" class="edge">
<title>dir_cf63c3ddb21c79ef735682489f4c6a69&#45;&gt;dir_84ef7c054b4edc3447cfba80cee80f65</title>
<path fill="none" stroke="black" d="M139.24,-36.1C137.01,-44.04 133.53,-53.67 129.73,-62.51"/>
<polygon fill="black" stroke="black" points="126.51,-61.15 125.54,-71.7 132.87,-64.06 126.51,-61.15"/>
<g id="a_edge13&#45;headlabel"><a xlink:href="dir_000279_000046.html" target="_top" xlink:title="54">
<text text-anchor="middle" x="125.42" y="-54.2" font-family="Helvetica,sans-Serif" font-size="10.00">54</text>
</a>
</g>
</g>
</g>
</svg>
