<?xml version="1.0" encoding="UTF-8" standalone="no"?>
<!DOCTYPE svg PUBLIC "-//W3C//DTD SVG 1.1//EN"
 "http://www.w3.org/Graphics/SVG/1.1/DTD/svg11.dtd">
<!-- Generated by graphviz version 2.43.0 (0)
 -->
<!-- Title: include/mlir/Dialect/ArmSVE Pages: 1 -->
<svg width="292pt" height="375pt"
 viewBox="0.00 0.00 291.78 375.00" xmlns="http://www.w3.org/2000/svg" xmlns:xlink="http://www.w3.org/1999/xlink">
<g id="graph0" class="graph" transform="scale(1 1) rotate(0) translate(4 371)">
<title>include/mlir/Dialect/ArmSVE</title>
<g id="clust1" class="cluster">
<title>clusterdir_d07a6fac82475a065a3b2953573f00a0</title>
<g id="a_clust1"><a xlink:href="dir_d07a6fac82475a065a3b2953573f00a0.html" target="_top" xlink:title="Dialect">
<polygon fill="#ddddee" stroke="black" points="25.78,-272 25.78,-359 275.78,-359 275.78,-272 25.78,-272"/>
<text text-anchor="middle" x="150.78" y="-347" font-family="Helvetica,sans-Serif" font-size="10.00">Dialect</text>
</a>
</g>
</g>
<g id="clust2" class="cluster">
<title>clusterdir_6996313d7d68c9595cc4ed36538d6299</title>
<g id="a_clust2"><a xlink:href="dir_6996313d7d68c9595cc4ed36538d6299.html" target="_top">
<polygon fill="#eeeeff" stroke="black" points="33.78,-280 33.78,-332 267.78,-332 267.78,-280 33.78,-280"/>
</a>
</g>
</g>
<!-- dir_6996313d7d68c9595cc4ed36538d6299 -->
<g id="node1" class="node">
<title>dir_6996313d7d68c9595cc4ed36538d6299</title>
<text text-anchor="middle" x="231.78" y="-303.5" font-family="Helvetica,sans-Serif" font-size="10.00">ArmSVE</text>
</g>
<!-- dir_c55fa821c8d2c804082150ef8aab29bd -->
<g id="node2" class="node">
<title>dir_c55fa821c8d2c804082150ef8aab29bd</title>
<g id="a_node2"><a xlink:href="dir_c55fa821c8d2c804082150ef8aab29bd.html" target="_top" xlink:title="IR">
<polygon fill="white" stroke="black" points="95.78,-324 41.78,-324 41.78,-288 95.78,-288 95.78,-324"/>
<text text-anchor="middle" x="68.78" y="-303.5" font-family="Helvetica,sans-Serif" font-size="10.00">IR</text>
</a>
</g>
</g>
<!-- dir_51020c1b0909ae629a35fe1c65c620b9 -->
<g id="node4" class="node">
<title>dir_51020c1b0909ae629a35fe1c65c620b9</title>
<g id="a_node4"><a xlink:href="dir_51020c1b0909ae629a35fe1c65c620b9.html" target="_top" xlink:title="Bytecode">
<polygon fill="none" stroke="black" points="75.78,-180 13.78,-180 13.78,-144 75.78,-144 75.78,-180"/>
<text text-anchor="middle" x="44.78" y="-159.5" font-family="Helvetica,sans-Serif" font-size="10.00">Bytecode</text>
</a>
</g>
</g>
<!-- dir_c55fa821c8d2c804082150ef8aab29bd&#45;&gt;dir_51020c1b0909ae629a35fe1c65c620b9 -->
<g id="edge9" class="edge">
<title>dir_c55fa821c8d2c804082150ef8aab29bd&#45;&gt;dir_51020c1b0909ae629a35fe1c65c620b9</title>
<path fill="none" stroke="black" d="M65.88,-287.87C61.79,-263.67 54.28,-219.21 49.41,-190.39"/>
<polygon fill="black" stroke="black" points="52.8,-189.47 47.68,-180.19 45.9,-190.63 52.8,-189.47"/>
<g id="a_edge9&#45;headlabel"><a xlink:href="dir_000204_000048.html" target="_top" xlink:title="1">
<text text-anchor="middle" x="56.2" y="-190.04" font-family="Helvetica,sans-Serif" font-size="10.00">1</text>
</a>
</g>
</g>
<!-- dir_84ef7c054b4edc3447cfba80cee80f65 -->
<g id="node5" class="node">
<title>dir_84ef7c054b4edc3447cfba80cee80f65</title>
<g id="a_node5"><a xlink:href="dir_84ef7c054b4edc3447cfba80cee80f65.html" target="_top" xlink:title="IR">
<polygon fill="none" stroke="black" points="130.78,-108 76.78,-108 76.78,-72 130.78,-72 130.78,-108"/>
<text text-anchor="middle" x="103.78" y="-87.5" font-family="Helvetica,sans-Serif" font-size="10.00">IR</text>
</a>
</g>
</g>
<!-- dir_c55fa821c8d2c804082150ef8aab29bd&#45;&gt;dir_84ef7c054b4edc3447cfba80cee80f65 -->
<g id="edge10" class="edge">
<title>dir_c55fa821c8d2c804082150ef8aab29bd&#45;&gt;dir_84ef7c054b4edc3447cfba80cee80f65</title>
<path fill="none" stroke="black" d="M71.58,-287.85C77.65,-250.75 92.03,-162.81 99.34,-118.1"/>
<polygon fill="black" stroke="black" points="102.8,-118.67 100.96,-108.23 95.89,-117.54 102.8,-118.67"/>
<g id="a_edge10&#45;headlabel"><a xlink:href="dir_000204_000044.html" target="_top" xlink:title="3">
<text text-anchor="middle" x="105.02" y="-120.17" font-family="Helvetica,sans-Serif" font-size="10.00">3</text>
</a>
</g>
</g>
<!-- dir_cf63c3ddb21c79ef735682489f4c6a69 -->
<g id="node6" class="node">
<title>dir_cf63c3ddb21c79ef735682489f4c6a69</title>
<g id="a_node6"><a xlink:href="dir_cf63c3ddb21c79ef735682489f4c6a69.html" target="_top" xlink:title="Interfaces">
<polygon fill="none" stroke="red" points="136.28,-36 71.28,-36 71.28,0 136.28,0 136.28,-36"/>
<text text-anchor="middle" x="103.78" y="-15.5" font-family="Helvetica,sans-Serif" font-size="10.00">Interfaces</text>
</a>
</g>
</g>
<!-- dir_c55fa821c8d2c804082150ef8aab29bd&#45;&gt;dir_cf63c3ddb21c79ef735682489f4c6a69 -->
<g id="edge11" class="edge">
<title>dir_c55fa821c8d2c804082150ef8aab29bd&#45;&gt;dir_cf63c3ddb21c79ef735682489f4c6a69</title>
<path fill="none" stroke="black" d="M53.31,-287.79C28.96,-258.54 -13.71,-197.12 4.78,-144 18.9,-103.42 52.29,-66.1 76.39,-43"/>
<polygon fill="black" stroke="black" points="78.94,-45.41 83.85,-36.02 74.16,-40.3 78.94,-45.41"/>
<g id="a_edge11&#45;headlabel"><a xlink:href="dir_000204_000275.html" target="_top" xlink:title="1">
<text text-anchor="middle" x="78.26" y="-47.44" font-family="Helvetica,sans-Serif" font-size="10.00">1</text>
</a>
</g>
</g>
<!-- dir_bfe396ddd6fd528d172d364e8966b09d -->
<g id="node3" class="node">
<title>dir_bfe396ddd6fd528d172d364e8966b09d</title>
<g id="a_node3"><a xlink:href="dir_bfe396ddd6fd528d172d364e8966b09d.html" target="_top" xlink:title="Transforms">
<polygon fill="white" stroke="black" points="185.28,-324 114.28,-324 114.28,-288 185.28,-288 185.28,-324"/>
<text text-anchor="middle" x="149.78" y="-303.5" font-family="Helvetica,sans-Serif" font-size="10.00">Transforms</text>
</a>
</g>
</g>
<!-- dir_37f3372f1e76d74ffd54613af9306e43 -->
<g id="node7" class="node">
<title>dir_37f3372f1e76d74ffd54613af9306e43</title>
<g id="a_node7"><a xlink:href="dir_37f3372f1e76d74ffd54613af9306e43.html" target="_top" xlink:title="Conversion">
<polygon fill="none" stroke="red" points="249.28,-252 178.28,-252 178.28,-216 249.28,-216 249.28,-252"/>
<text text-anchor="middle" x="213.78" y="-231.5" font-family="Helvetica,sans-Serif" font-size="10.00">Conversion</text>
</a>
</g>
</g>
<!-- dir_bfe396ddd6fd528d172d364e8966b09d&#45;&gt;dir_37f3372f1e76d74ffd54613af9306e43 -->
<g id="edge6" class="edge">
<title>dir_bfe396ddd6fd528d172d364e8966b09d&#45;&gt;dir_37f3372f1e76d74ffd54613af9306e43</title>
<path fill="none" stroke="black" d="M165.6,-287.7C173.35,-279.22 182.82,-268.86 191.3,-259.58"/>
<polygon fill="black" stroke="black" points="193.97,-261.85 198.14,-252.1 188.81,-257.12 193.97,-261.85"/>
<g id="a_edge6&#45;headlabel"><a xlink:href="dir_000113_000054.html" target="_top" xlink:title="1">
<text text-anchor="middle" x="193.64" y="-263.92" font-family="Helvetica,sans-Serif" font-size="10.00">1</text>
</a>
</g>
</g>
<!-- dir_cab9f8330899b1cc9d753b1d9c5c5a3e -->
<g id="node8" class="node">
<title>dir_cab9f8330899b1cc9d753b1d9c5c5a3e</title>
<g id="a_node8"><a xlink:href="dir_cab9f8330899b1cc9d753b1d9c5c5a3e.html" target="_top" xlink:title="Pass">
<polygon fill="none" stroke="black" points="185.78,-180 131.78,-180 131.78,-144 185.78,-144 185.78,-180"/>
<text text-anchor="middle" x="158.78" y="-159.5" font-family="Helvetica,sans-Serif" font-size="10.00">Pass</text>
</a>
</g>
</g>
<!-- dir_bfe396ddd6fd528d172d364e8966b09d&#45;&gt;dir_cab9f8330899b1cc9d753b1d9c5c5a3e -->
<g id="edge7" class="edge">
<title>dir_bfe396ddd6fd528d172d364e8966b09d&#45;&gt;dir_cab9f8330899b1cc9d753b1d9c5c5a3e</title>
<path fill="none" stroke="black" d="M150.86,-287.87C152.4,-263.67 155.21,-219.21 157.04,-190.39"/>
<polygon fill="black" stroke="black" points="160.55,-190.39 157.69,-180.19 153.56,-189.95 160.55,-190.39"/>
<g id="a_edge7&#45;headlabel"><a xlink:href="dir_000113_000051.html" target="_top" xlink:title="1">
<text text-anchor="middle" x="163.15" y="-191.66" font-family="Helvetica,sans-Serif" font-size="10.00">1</text>
</a>
</g>
</g>
<!-- dir_51020c1b0909ae629a35fe1c65c620b9&#45;&gt;dir_84ef7c054b4edc3447cfba80cee80f65 -->
<g id="edge8" class="edge">
<title>dir_51020c1b0909ae629a35fe1c65c620b9&#45;&gt;dir_84ef7c054b4edc3447cfba80cee80f65</title>
<path fill="none" stroke="black" d="M53.45,-143.7C59.72,-135.22 68.26,-124.86 76.58,-115.58"/>
<polygon fill="black" stroke="black" points="79.27,-117.83 83.46,-108.1 74.12,-113.09 79.27,-117.83"/>
<g id="a_edge8&#45;headlabel"><a xlink:href="dir_000048_000044.html" target="_top" xlink:title="9">
<text text-anchor="middle" x="78.92" y="-119.9" font-family="Helvetica,sans-Serif" font-size="10.00">9</text>
</a>
</g>
</g>
<!-- dir_84ef7c054b4edc3447cfba80cee80f65&#45;&gt;dir_51020c1b0909ae629a35fe1c65c620b9 -->
<g id="edge1" class="edge">
<title>dir_84ef7c054b4edc3447cfba80cee80f65&#45;&gt;dir_51020c1b0909ae629a35fe1c65c620b9</title>
<path fill="none" stroke="black" d="M95.26,-108.1C89.02,-116.55 80.49,-126.9 72.17,-136.2"/>
<polygon fill="black" stroke="black" points="69.47,-133.97 65.28,-143.7 74.62,-138.7 69.47,-133.97"/>
<g id="a_edge1&#45;headlabel"><a xlink:href="dir_000044_000048.html" target="_top" xlink:title="2">
<text text-anchor="middle" x="69.81" y="-126.9" font-family="Helvetica,sans-Serif" font-size="10.00">2</text>
</a>
</g>
</g>
<!-- dir_84ef7c054b4edc3447cfba80cee80f65&#45;&gt;dir_cf63c3ddb21c79ef735682489f4c6a69 -->
<g id="edge2" class="edge">
<title>dir_84ef7c054b4edc3447cfba80cee80f65&#45;&gt;dir_cf63c3ddb21c79ef735682489f4c6a69</title>
<path fill="none" stroke="black" d="M97.86,-71.7C97.07,-63.98 96.84,-54.71 97.18,-46.11"/>
<polygon fill="black" stroke="black" points="100.67,-46.32 97.88,-36.1 93.69,-45.84 100.67,-46.32"/>
<g id="a_edge2&#45;headlabel"><a xlink:href="dir_000044_000275.html" target="_top" xlink:title="3">
<text text-anchor="middle" x="103.26" y="-47.61" font-family="Helvetica,sans-Serif" font-size="10.00">3</text>
</a>
</g>
</g>
<!-- dir_cf63c3ddb21c79ef735682489f4c6a69&#45;&gt;dir_84ef7c054b4edc3447cfba80cee80f65 -->
<g id="edge12" class="edge">
<title>dir_cf63c3ddb21c79ef735682489f4c6a69&#45;&gt;dir_84ef7c054b4edc3447cfba80cee80f65</title>
<path fill="none" stroke="black" d="M109.67,-36.1C110.48,-43.79 110.71,-53.05 110.38,-61.67"/>
<polygon fill="black" stroke="black" points="106.89,-61.48 109.69,-71.7 113.87,-61.96 106.89,-61.48"/>
<g id="a_edge12&#45;headlabel"><a xlink:href="dir_000275_000044.html" target="_top" xlink:title="50">
<text text-anchor="middle" x="104.3" y="-55.2" font-family="Helvetica,sans-Serif" font-size="10.00">50</text>
</a>
</g>
</g>
<!-- dir_37f3372f1e76d74ffd54613af9306e43&#45;&gt;dir_84ef7c054b4edc3447cfba80cee80f65 -->
<g id="edge5" class="edge">
<title>dir_37f3372f1e76d74ffd54613af9306e43&#45;&gt;dir_84ef7c054b4edc3447cfba80cee80f65</title>
<path fill="none" stroke="black" d="M214.1,-215.96C213.62,-196.73 210.25,-165.37 194.78,-144 181.38,-125.51 159.4,-112.44 140.39,-103.91"/>
<polygon fill="black" stroke="black" points="141.64,-100.64 131.07,-99.97 138.92,-107.09 141.64,-100.64"/>
<g id="a_edge5&#45;headlabel"><a xlink:href="dir_000054_000044.html" target="_top" xlink:title="21">
<text text-anchor="middle" x="146.06" y="-96.93" font-family="Helvetica,sans-Serif" font-size="10.00">21</text>
</a>
</g>
</g>
<!-- dir_37f3372f1e76d74ffd54613af9306e43&#45;&gt;dir_cf63c3ddb21c79ef735682489f4c6a69 -->
<g id="edge4" class="edge">
<title>dir_37f3372f1e76d74ffd54613af9306e43&#45;&gt;dir_cf63c3ddb21c79ef735682489f4c6a69</title>
<path fill="none" stroke="black" d="M217.87,-215.95C221.46,-197.54 224.83,-167.67 215.78,-144 199.74,-102.07 162.44,-65.34 135.28,-42.73"/>
<polygon fill="black" stroke="black" points="137.18,-39.76 127.21,-36.18 132.77,-45.2 137.18,-39.76"/>
<g id="a_edge4&#45;headlabel"><a xlink:href="dir_000054_000275.html" target="_top" xlink:title="3">
<text text-anchor="middle" x="141.76" y="-37.33" font-family="Helvetica,sans-Serif" font-size="10.00">3</text>
</a>
</g>
</g>
<!-- dir_37f3372f1e76d74ffd54613af9306e43&#45;&gt;dir_cab9f8330899b1cc9d753b1d9c5c5a3e -->
<g id="edge3" class="edge">
<title>dir_37f3372f1e76d74ffd54613af9306e43&#45;&gt;dir_cab9f8330899b1cc9d753b1d9c5c5a3e</title>
<path fill="none" stroke="black" d="M200.18,-215.7C193.65,-207.39 185.71,-197.28 178.53,-188.14"/>
<polygon fill="black" stroke="black" points="181.15,-185.81 172.22,-180.1 175.64,-190.13 181.15,-185.81"/>
<g id="a_edge3&#45;headlabel"><a xlink:href="dir_000054_000051.html" target="_top" xlink:title="27">
<text text-anchor="middle" x="185.6" y="-184.38" font-family="Helvetica,sans-Serif" font-size="10.00">27</text>
</a>
</g>
</g>
<!-- dir_cab9f8330899b1cc9d753b1d9c5c5a3e&#45;&gt;dir_84ef7c054b4edc3447cfba80cee80f65 -->
<g id="edge13" class="edge">
<title>dir_cab9f8330899b1cc9d753b1d9c5c5a3e&#45;&gt;dir_84ef7c054b4edc3447cfba80cee80f65</title>
<path fill="none" stroke="black" d="M145.18,-143.7C138.65,-135.39 130.71,-125.28 123.53,-116.14"/>
<polygon fill="black" stroke="black" points="126.15,-113.81 117.22,-108.1 120.64,-118.13 126.15,-113.81"/>
<g id="a_edge13&#45;headlabel"><a xlink:href="dir_000051_000044.html" target="_top" xlink:title="4">
<text text-anchor="middle" x="130.6" y="-112.38" font-family="Helvetica,sans-Serif" font-size="10.00">4</text>
</a>
</g>
</g>
</g>
</svg>
