<?xml version="1.0" encoding="UTF-8" standalone="no"?>
<!DOCTYPE svg PUBLIC "-//W3C//DTD SVG 1.1//EN"
 "http://www.w3.org/Graphics/SVG/1.1/DTD/svg11.dtd">
<!-- Generated by graphviz version 2.43.0 (0)
 -->
<!-- Title: include/mlir/Conversion/ComplexCommon Pages: 1 -->
<svg width="198pt" height="167pt"
 viewBox="0.00 0.00 198.00 167.00" xmlns="http://www.w3.org/2000/svg" xmlns:xlink="http://www.w3.org/1999/xlink">
<g id="graph0" class="graph" transform="scale(1 1) rotate(0) translate(4 163)">
<title>include/mlir/Conversion/ComplexCommon</title>
<g id="clust1" class="cluster">
<title>clusterdir_37f3372f1e76d74ffd54613af9306e43</title>
<g id="a_clust1"><a xlink:href="dir_37f3372f1e76d74ffd54613af9306e43.html" target="_top" xlink:title="Conversion">
<polygon fill="#ddddee" stroke="black" points="8,-8 8,-151 128,-151 128,-8 8,-8"/>
<text text-anchor="middle" x="68" y="-139" font-family="Helvetica,sans-Serif" font-size="10.00">Conversion</text>
</a>
</g>
</g>
<!-- dir_020daa9eedd35e87ea47a7580500cbc6 -->
<g id="node1" class="node">
<title>dir_020daa9eedd35e87ea47a7580500cbc6</title>
<g id="a_node1"><a xlink:href="dir_020daa9eedd35e87ea47a7580500cbc6.html" target="_top" xlink:title="LLVMCommon">
<polygon fill="none" stroke="black" points="114,-52 28,-52 28,-16 114,-16 114,-52"/>
<text text-anchor="middle" x="71" y="-31.5" font-family="Helvetica,sans-Serif" font-size="10.00">LLVMCommon</text>
</a>
</g>
</g>
<!-- dir_d07a6fac82475a065a3b2953573f00a0 -->
<g id="node3" class="node">
<title>dir_d07a6fac82475a065a3b2953573f00a0</title>
<g id="a_node3"><a xlink:href="dir_d07a6fac82475a065a3b2953573f00a0.html" target="_top" xlink:title="Dialect">
<polygon fill="none" stroke="red" points="190,-52 136,-52 136,-16 190,-16 190,-52"/>
<text text-anchor="middle" x="163" y="-31.5" font-family="Helvetica,sans-Serif" font-size="10.00">Dialect</text>
</a>
</g>
</g>
<!-- dir_020daa9eedd35e87ea47a7580500cbc6&#45;&gt;dir_d07a6fac82475a065a3b2953573f00a0 -->
<g id="edge3" class="edge">
<title>dir_020daa9eedd35e87ea47a7580500cbc6&#45;&gt;dir_d07a6fac82475a065a3b2953573f00a0</title>
<path fill="none" stroke="black" d="M114.12,-34C117.98,-34 121.83,-34 125.69,-34"/>
<polygon fill="black" stroke="black" points="125.89,-37.5 135.89,-34 125.89,-30.5 125.89,-37.5"/>
<g id="a_edge3&#45;headlabel"><a xlink:href="dir_000093_000014.html" target="_top" xlink:title="2">
<text text-anchor="middle" x="122.3" y="-37.84" font-family="Helvetica,sans-Serif" font-size="10.00">2</text>
</a>
</g>
</g>
<!-- dir_2de53102a1dd26a2befd47c9dc05ebd1 -->
<g id="node2" class="node">
<title>dir_2de53102a1dd26a2befd47c9dc05ebd1</title>
<g id="a_node2"><a xlink:href="dir_2de53102a1dd26a2befd47c9dc05ebd1.html" target="_top" xlink:title="ComplexCommon">
<polygon fill="#eeeeff" stroke="black" points="120,-124 16,-124 16,-88 120,-88 120,-124"/>
<text text-anchor="middle" x="68" y="-103.5" font-family="Helvetica,sans-Serif" font-size="10.00">ComplexCommon</text>
</a>
</g>
</g>
<!-- dir_2de53102a1dd26a2befd47c9dc05ebd1&#45;&gt;dir_020daa9eedd35e87ea47a7580500cbc6 -->
<g id="edge1" class="edge">
<title>dir_2de53102a1dd26a2befd47c9dc05ebd1&#45;&gt;dir_020daa9eedd35e87ea47a7580500cbc6</title>
<path fill="none" stroke="black" d="M68.74,-87.7C69.07,-79.98 69.47,-70.71 69.84,-62.11"/>
<polygon fill="black" stroke="black" points="73.34,-62.25 70.27,-52.1 66.34,-61.95 73.34,-62.25"/>
<g id="a_edge1&#45;headlabel"><a xlink:href="dir_000071_000093.html" target="_top" xlink:title="1">
<text text-anchor="middle" x="76.02" y="-63.46" font-family="Helvetica,sans-Serif" font-size="10.00">1</text>
</a>
</g>
</g>
<!-- dir_2de53102a1dd26a2befd47c9dc05ebd1&#45;&gt;dir_d07a6fac82475a065a3b2953573f00a0 -->
<g id="edge2" class="edge">
<title>dir_2de53102a1dd26a2befd47c9dc05ebd1&#45;&gt;dir_d07a6fac82475a065a3b2953573f00a0</title>
<path fill="none" stroke="black" d="M91.48,-87.7C103.56,-78.8 118.45,-67.82 131.52,-58.2"/>
<polygon fill="black" stroke="black" points="133.81,-60.85 139.79,-52.1 129.66,-55.22 133.81,-60.85"/>
<g id="a_edge2&#45;headlabel"><a xlink:href="dir_000071_000014.html" target="_top" xlink:title="2">
<text text-anchor="middle" x="132.6" y="-62.77" font-family="Helvetica,sans-Serif" font-size="10.00">2</text>
</a>
</g>
</g>
<!-- dir_d07a6fac82475a065a3b2953573f00a0&#45;&gt;dir_020daa9eedd35e87ea47a7580500cbc6 -->
<g id="edge4" class="edge">
<title>dir_d07a6fac82475a065a3b2953573f00a0&#45;&gt;dir_020daa9eedd35e87ea47a7580500cbc6</title>
<path fill="none" stroke="black" d="M135.89,-34C132.04,-34 128.18,-34 124.33,-34"/>
<polygon fill="black" stroke="black" points="124.13,-30.5 114.12,-34 124.12,-37.5 124.13,-30.5"/>
<g id="a_edge4&#45;headlabel"><a xlink:href="dir_000014_000093.html" target="_top" xlink:title="3">
<text text-anchor="middle" x="127.72" y="-25.16" font-family="Helvetica,sans-Serif" font-size="10.00">3</text>
</a>
</g>
</g>
</g>
</svg>
