<?xml version="1.0" encoding="UTF-8" standalone="no"?>
<!DOCTYPE svg PUBLIC "-//W3C//DTD SVG 1.1//EN"
 "http://www.w3.org/Graphics/SVG/1.1/DTD/svg11.dtd">
<!-- Generated by graphviz version 2.43.0 (0)
 -->
<!-- Title: lib/Tools Pages: 1 -->
<svg width="1146pt" height="127pt"
 viewBox="0.00 0.00 1146.00 127.28" xmlns="http://www.w3.org/2000/svg" xmlns:xlink="http://www.w3.org/1999/xlink">
<g id="graph0" class="graph" transform="scale(1 1) rotate(0) translate(4 123.28)">
<title>lib/Tools</title>
<g id="clust1" class="cluster">
<title>clusterdir_97aefd0d527b934f1d99a682da8fe6a9</title>
<g id="a_clust1"><a xlink:href="dir_97aefd0d527b934f1d99a682da8fe6a9.html" target="_top" xlink:title="lib">
<polygon fill="#edf0f7" stroke="#404040" stroke-dasharray="5,2" points="8,-41.28 8,-111.28 1130,-111.28 1130,-41.28 8,-41.28"/>
<text text-anchor="middle" x="569" y="-99.28" font-family="Helvetica,sans-Serif" font-size="10.00">lib</text>
</a>
</g>
</g>
<g id="clust2" class="cluster">
<title>clusterdir_5fe0fdc1a37a7d35ef071fa3f129cdb7</title>
<g id="a_clust2"><a xlink:href="dir_5fe0fdc1a37a7d35ef071fa3f129cdb7.html" target="_top">
<polygon fill="#edf0f7" stroke="#404040" stroke-width="2" points="16,-49.28 16,-84.28 1122,-84.28 1122,-49.28 16,-49.28"/>
</a>
</g>
</g>
<!-- dir_5fe0fdc1a37a7d35ef071fa3f129cdb7 -->
<g id="node1" class="node">
<title>dir_5fe0fdc1a37a7d35ef071fa3f129cdb7</title>
<text text-anchor="middle" x="1093" y="-64.28" font-family="Helvetica,sans-Serif" font-size="10.00">Tools</text>
</g>
<!-- dir_226855af425eb2567125b585c7ae59f3 -->
<g id="node2" class="node">
<title>dir_226855af425eb2567125b585c7ae59f3</title>
<g id="a_node2"><a xlink:href="dir_226855af425eb2567125b585c7ae59f3.html" target="_top" xlink:title="lsp&#45;server&#45;support">
<polygon fill="#a2b4d6" stroke="#404040" points="1054,-76.28 948,-76.28 948,-57.28 1054,-57.28 1054,-76.28"/>
<text text-anchor="middle" x="1001" y="-64.28" font-family="Helvetica,sans-Serif" font-size="10.00">lsp&#45;server&#45;support</text>
</a>
</g>
</g>
<!-- dir_d44c64559bbebec7f509842c48db8b23 -->
<g id="node13" class="node">
<title>dir_d44c64559bbebec7f509842c48db8b23</title>
<g id="a_node13"><a xlink:href="dir_d44c64559bbebec7f509842c48db8b23.html" target="_top" xlink:title="include">
<polygon fill="#edf0f7" stroke="red" points="524,-21.28 472,-21.28 472,-2.28 524,-2.28 524,-21.28"/>
<text text-anchor="middle" x="498" y="-9.28" font-family="Helvetica,sans-Serif" font-size="10.00">include</text>
</a>
</g>
</g>
<!-- dir_226855af425eb2567125b585c7ae59f3&#45;&gt;dir_d44c64559bbebec7f509842c48db8b23 -->
<g id="edge1" class="edge">
<title>dir_226855af425eb2567125b585c7ae59f3&#45;&gt;dir_d44c64559bbebec7f509842c48db8b23</title>
<g id="a_edge1"><a xlink:href="dir_000287_000158.html" target="_top">
<path fill="none" stroke="#63b8ff" d="M983.86,-57.19C971.88,-51.61 955.36,-44.77 940,-41.28 863.09,-23.83 625.65,-16.05 534.31,-13.64"/>
<polygon fill="#63b8ff" stroke="#63b8ff" points="534.26,-10.14 524.17,-13.38 534.08,-17.14 534.26,-10.14"/>
</a>
</g>
<g id="a_edge1&#45;headlabel"><a xlink:href="dir_000287_000158.html" target="_top" xlink:title="3">
<text text-anchor="middle" x="537.92" y="-4.89" font-family="Helvetica,sans-Serif" font-size="10.00" fill="#63b8ff">3</text>
</a>
</g>
</g>
<!-- dir_392451df496af73b56d10162ee31cf1b -->
<g id="node3" class="node">
<title>dir_392451df496af73b56d10162ee31cf1b</title>
<g id="a_node3"><a xlink:href="dir_392451df496af73b56d10162ee31cf1b.html" target="_top" xlink:title="mlir&#45;lsp&#45;server">
<polygon fill="#a2b4d6" stroke="#404040" points="930.5,-76.28 841.5,-76.28 841.5,-57.28 930.5,-57.28 930.5,-76.28"/>
<text text-anchor="middle" x="886" y="-64.28" font-family="Helvetica,sans-Serif" font-size="10.00">mlir&#45;lsp&#45;server</text>
</a>
</g>
</g>
<!-- dir_392451df496af73b56d10162ee31cf1b&#45;&gt;dir_d44c64559bbebec7f509842c48db8b23 -->
<g id="edge2" class="edge">
<title>dir_392451df496af73b56d10162ee31cf1b&#45;&gt;dir_d44c64559bbebec7f509842c48db8b23</title>
<g id="a_edge2"><a xlink:href="dir_000317_000158.html" target="_top">
<path fill="none" stroke="#63b8ff" d="M870.92,-57.25C860.36,-51.71 845.75,-44.87 832,-41.28 726.34,-13.68 596.13,-11.23 534.12,-11.89"/>
<polygon fill="#63b8ff" stroke="#63b8ff" points="534.01,-8.39 524.06,-12.03 534.11,-15.39 534.01,-8.39"/>
</a>
</g>
<g id="a_edge2&#45;headlabel"><a xlink:href="dir_000317_000158.html" target="_top" xlink:title="12">
<text text-anchor="middle" x="537.57" y="-3" font-family="Helvetica,sans-Serif" font-size="10.00" fill="#63b8ff">12</text>
</a>
</g>
</g>
<!-- dir_c91c57ebc13e90404af8d240ab8f5359 -->
<g id="node4" class="node">
<title>dir_c91c57ebc13e90404af8d240ab8f5359</title>
<g id="a_node4"><a xlink:href="dir_c91c57ebc13e90404af8d240ab8f5359.html" target="_top" xlink:title="mlir&#45;opt">
<polygon fill="#a2b4d6" stroke="#404040" points="823,-76.28 767,-76.28 767,-57.28 823,-57.28 823,-76.28"/>
<text text-anchor="middle" x="795" y="-64.28" font-family="Helvetica,sans-Serif" font-size="10.00">mlir&#45;opt</text>
</a>
</g>
</g>
<!-- dir_c91c57ebc13e90404af8d240ab8f5359&#45;&gt;dir_d44c64559bbebec7f509842c48db8b23 -->
<g id="edge3" class="edge">
<title>dir_c91c57ebc13e90404af8d240ab8f5359&#45;&gt;dir_d44c64559bbebec7f509842c48db8b23</title>
<g id="a_edge3"><a xlink:href="dir_000319_000158.html" target="_top">
<path fill="none" stroke="#63b8ff" d="M785.04,-57.27C777.97,-51.73 768,-44.9 758,-41.28 717.73,-26.72 595.69,-18.15 534.21,-14.64"/>
<polygon fill="#63b8ff" stroke="#63b8ff" points="534.36,-11.14 524.18,-14.08 533.97,-18.13 534.36,-11.14"/>
</a>
</g>
<g id="a_edge3&#45;headlabel"><a xlink:href="dir_000319_000158.html" target="_top" xlink:title="23">
<text text-anchor="middle" x="538.1" y="-6.01" font-family="Helvetica,sans-Serif" font-size="10.00" fill="#63b8ff">23</text>
</a>
</g>
</g>
<!-- dir_762695470d86fec7618c8ce8992f9820 -->
<g id="node5" class="node">
<title>dir_762695470d86fec7618c8ce8992f9820</title>
<g id="a_node5"><a xlink:href="dir_762695470d86fec7618c8ce8992f9820.html" target="_top" xlink:title="mlir&#45;pdll&#45;lsp&#45;server">
<polygon fill="#a2b4d6" stroke="#404040" points="749,-76.28 639,-76.28 639,-57.28 749,-57.28 749,-76.28"/>
<text text-anchor="middle" x="694" y="-64.28" font-family="Helvetica,sans-Serif" font-size="10.00">mlir&#45;pdll&#45;lsp&#45;server</text>
</a>
</g>
</g>
<!-- dir_762695470d86fec7618c8ce8992f9820&#45;&gt;dir_d44c64559bbebec7f509842c48db8b23 -->
<g id="edge4" class="edge">
<title>dir_762695470d86fec7618c8ce8992f9820&#45;&gt;dir_d44c64559bbebec7f509842c48db8b23</title>
<g id="a_edge4"><a xlink:href="dir_000321_000158.html" target="_top">
<path fill="none" stroke="#63b8ff" d="M674.09,-57.26C661.6,-52.13 645.05,-45.76 630,-41.28 598.06,-31.78 560.9,-24.04 534.16,-19.04"/>
<polygon fill="#63b8ff" stroke="#63b8ff" points="534.56,-15.56 524.1,-17.2 533.3,-22.44 534.56,-15.56"/>
</a>
</g>
<g id="a_edge4&#45;headlabel"><a xlink:href="dir_000321_000158.html" target="_top" xlink:title="18">
<text text-anchor="middle" x="538.61" y="-10.91" font-family="Helvetica,sans-Serif" font-size="10.00" fill="#63b8ff">18</text>
</a>
</g>
</g>
<!-- dir_0312c369fb6ad9f5a0e10d8e57ea30ad -->
<g id="node6" class="node">
<title>dir_0312c369fb6ad9f5a0e10d8e57ea30ad</title>
<g id="a_node6"><a xlink:href="dir_0312c369fb6ad9f5a0e10d8e57ea30ad.html" target="_top" xlink:title="mlir&#45;query">
<polygon fill="#a2b4d6" stroke="#404040" points="621,-76.28 553,-76.28 553,-57.28 621,-57.28 621,-76.28"/>
<text text-anchor="middle" x="587" y="-64.28" font-family="Helvetica,sans-Serif" font-size="10.00">mlir&#45;query</text>
</a>
</g>
</g>
<!-- dir_0312c369fb6ad9f5a0e10d8e57ea30ad&#45;&gt;dir_d44c64559bbebec7f509842c48db8b23 -->
<g id="edge5" class="edge">
<title>dir_0312c369fb6ad9f5a0e10d8e57ea30ad&#45;&gt;dir_d44c64559bbebec7f509842c48db8b23</title>
<g id="a_edge5"><a xlink:href="dir_000323_000158.html" target="_top">
<path fill="none" stroke="#63b8ff" d="M572.7,-57.27C558.9,-49.05 537.76,-36.46 521.49,-26.77"/>
<polygon fill="#63b8ff" stroke="#63b8ff" points="522.94,-23.56 512.56,-21.45 519.36,-29.58 522.94,-23.56"/>
</a>
</g>
<g id="a_edge5&#45;headlabel"><a xlink:href="dir_000323_000158.html" target="_top" xlink:title="6">
<text text-anchor="middle" x="527.48" y="-20.46" font-family="Helvetica,sans-Serif" font-size="10.00" fill="#63b8ff">6</text>
</a>
</g>
</g>
<!-- dir_dd5029a2a52db4f35070e71800b85be0 -->
<g id="node7" class="node">
<title>dir_dd5029a2a52db4f35070e71800b85be0</title>
<g id="a_node7"><a xlink:href="dir_dd5029a2a52db4f35070e71800b85be0.html" target="_top" xlink:title="mlir&#45;reduce">
<polygon fill="#a2b4d6" stroke="#404040" points="534.5,-76.28 461.5,-76.28 461.5,-57.28 534.5,-57.28 534.5,-76.28"/>
<text text-anchor="middle" x="498" y="-64.28" font-family="Helvetica,sans-Serif" font-size="10.00">mlir&#45;reduce</text>
</a>
</g>
</g>
<!-- dir_dd5029a2a52db4f35070e71800b85be0&#45;&gt;dir_d44c64559bbebec7f509842c48db8b23 -->
<g id="edge6" class="edge">
<title>dir_dd5029a2a52db4f35070e71800b85be0&#45;&gt;dir_d44c64559bbebec7f509842c48db8b23</title>
<g id="a_edge6"><a xlink:href="dir_000325_000158.html" target="_top">
<path fill="none" stroke="#63b8ff" d="M498,-57.03C498,-50.08 498,-40.13 498,-31.42"/>
<polygon fill="#63b8ff" stroke="#63b8ff" points="501.5,-31.37 498,-21.37 494.5,-31.37 501.5,-31.37"/>
</a>
</g>
<g id="a_edge6&#45;headlabel"><a xlink:href="dir_000325_000158.html" target="_top" xlink:title="6">
<text text-anchor="middle" x="504.34" y="-32.46" font-family="Helvetica,sans-Serif" font-size="10.00" fill="#63b8ff">6</text>
</a>
</g>
</g>
<!-- dir_add849a49420a91094c5549143746682 -->
<g id="node8" class="node">
<title>dir_add849a49420a91094c5549143746682</title>
<g id="a_node8"><a xlink:href="dir_add849a49420a91094c5549143746682.html" target="_top" xlink:title="mlir&#45;tblgen">
<polygon fill="#a2b4d6" stroke="#404040" points="443.5,-76.28 372.5,-76.28 372.5,-57.28 443.5,-57.28 443.5,-76.28"/>
<text text-anchor="middle" x="408" y="-64.28" font-family="Helvetica,sans-Serif" font-size="10.00">mlir&#45;tblgen</text>
</a>
</g>
</g>
<!-- dir_add849a49420a91094c5549143746682&#45;&gt;dir_d44c64559bbebec7f509842c48db8b23 -->
<g id="edge7" class="edge">
<title>dir_add849a49420a91094c5549143746682&#45;&gt;dir_d44c64559bbebec7f509842c48db8b23</title>
<g id="a_edge7"><a xlink:href="dir_000327_000158.html" target="_top">
<path fill="none" stroke="#63b8ff" d="M422.46,-57.27C436.42,-49.05 457.79,-36.46 474.25,-26.77"/>
<polygon fill="#63b8ff" stroke="#63b8ff" points="476.44,-29.54 483.28,-21.45 472.88,-23.51 476.44,-29.54"/>
</a>
</g>
<g id="a_edge7&#45;headlabel"><a xlink:href="dir_000327_000158.html" target="_top" xlink:title="3">
<text text-anchor="middle" x="474.78" y="-31.31" font-family="Helvetica,sans-Serif" font-size="10.00" fill="#63b8ff">3</text>
</a>
</g>
</g>
<!-- dir_6154a9e38a92bce93f9852302ff6c8a7 -->
<g id="node9" class="node">
<title>dir_6154a9e38a92bce93f9852302ff6c8a7</title>
<g id="a_node9"><a xlink:href="dir_6154a9e38a92bce93f9852302ff6c8a7.html" target="_top" xlink:title="mlir&#45;translate">
<polygon fill="#a2b4d6" stroke="#404040" points="354.5,-76.28 271.5,-76.28 271.5,-57.28 354.5,-57.28 354.5,-76.28"/>
<text text-anchor="middle" x="313" y="-64.28" font-family="Helvetica,sans-Serif" font-size="10.00">mlir&#45;translate</text>
</a>
</g>
</g>
<!-- dir_6154a9e38a92bce93f9852302ff6c8a7&#45;&gt;dir_d44c64559bbebec7f509842c48db8b23 -->
<g id="edge8" class="edge">
<title>dir_6154a9e38a92bce93f9852302ff6c8a7&#45;&gt;dir_d44c64559bbebec7f509842c48db8b23</title>
<g id="a_edge8"><a xlink:href="dir_000329_000158.html" target="_top">
<path fill="none" stroke="#63b8ff" d="M328.67,-57.05C338.55,-51.85 351.73,-45.47 364,-41.28 396.34,-30.25 434.57,-22.63 461.91,-18.06"/>
<polygon fill="#63b8ff" stroke="#63b8ff" points="462.5,-21.51 471.82,-16.46 461.39,-14.6 462.5,-21.51"/>
</a>
</g>
<g id="a_edge8&#45;headlabel"><a xlink:href="dir_000329_000158.html" target="_top" xlink:title="12">
<text text-anchor="middle" x="459.41" y="-22.38" font-family="Helvetica,sans-Serif" font-size="10.00" fill="#63b8ff">12</text>
</a>
</g>
</g>
<!-- dir_4f385138bafa35b701c64a4cf969f03c -->
<g id="node10" class="node">
<title>dir_4f385138bafa35b701c64a4cf969f03c</title>
<g id="a_node10"><a xlink:href="dir_4f385138bafa35b701c64a4cf969f03c.html" target="_top" xlink:title="PDLL">
<polygon fill="#a2b4d6" stroke="#404040" points="253.5,-76.28 212.5,-76.28 212.5,-57.28 253.5,-57.28 253.5,-76.28"/>
<text text-anchor="middle" x="233" y="-64.28" font-family="Helvetica,sans-Serif" font-size="10.00">PDLL</text>
</a>
</g>
</g>
<!-- dir_4f385138bafa35b701c64a4cf969f03c&#45;&gt;dir_d44c64559bbebec7f509842c48db8b23 -->
<g id="edge9" class="edge">
<title>dir_4f385138bafa35b701c64a4cf969f03c&#45;&gt;dir_d44c64559bbebec7f509842c48db8b23</title>
<g id="a_edge9"><a xlink:href="dir_000379_000158.html" target="_top">
<path fill="none" stroke="#63b8ff" d="M241.05,-57.04C246.65,-51.56 254.59,-44.87 263,-41.28 297.9,-26.41 404.66,-18.17 461.5,-14.73"/>
<polygon fill="#63b8ff" stroke="#63b8ff" points="462.06,-18.2 471.84,-14.12 461.65,-11.21 462.06,-18.2"/>
</a>
</g>
<g id="a_edge9&#45;headlabel"><a xlink:href="dir_000379_000158.html" target="_top" xlink:title="57">
<text text-anchor="middle" x="458.64" y="-18.74" font-family="Helvetica,sans-Serif" font-size="10.00" fill="#63b8ff">57</text>
</a>
</g>
</g>
<!-- dir_c2dbee3f215cf1fc3448e9107915507a -->
<g id="node11" class="node">
<title>dir_c2dbee3f215cf1fc3448e9107915507a</title>
<g id="a_node11"><a xlink:href="dir_c2dbee3f215cf1fc3448e9107915507a.html" target="_top" xlink:title="Plugins">
<polygon fill="#a2b4d6" stroke="#404040" points="194,-76.28 142,-76.28 142,-57.28 194,-57.28 194,-76.28"/>
<text text-anchor="middle" x="168" y="-64.28" font-family="Helvetica,sans-Serif" font-size="10.00">Plugins</text>
</a>
</g>
</g>
<!-- dir_c2dbee3f215cf1fc3448e9107915507a&#45;&gt;dir_d44c64559bbebec7f509842c48db8b23 -->
<g id="edge10" class="edge">
<title>dir_c2dbee3f215cf1fc3448e9107915507a&#45;&gt;dir_d44c64559bbebec7f509842c48db8b23</title>
<g id="a_edge10"><a xlink:href="dir_000389_000158.html" target="_top">
<path fill="none" stroke="#63b8ff" d="M177.64,-57.23C184.49,-51.67 194.19,-44.83 204,-41.28 250.46,-24.47 393.55,-16.82 461.48,-14.06"/>
<polygon fill="#63b8ff" stroke="#63b8ff" points="461.85,-17.55 471.71,-13.66 461.58,-10.56 461.85,-17.55"/>
</a>
</g>
<g id="a_edge10&#45;headlabel"><a xlink:href="dir_000389_000158.html" target="_top" xlink:title="2">
<text text-anchor="middle" x="458.37" y="-18.03" font-family="Helvetica,sans-Serif" font-size="10.00" fill="#63b8ff">2</text>
</a>
</g>
</g>
<!-- dir_dea1461af724965607419be398b3bcd0 -->
<g id="node12" class="node">
<title>dir_dea1461af724965607419be398b3bcd0</title>
<g id="a_node12"><a xlink:href="dir_dea1461af724965607419be398b3bcd0.html" target="_top" xlink:title="tblgen&#45;lsp&#45;server">
<polygon fill="#a2b4d6" stroke="#404040" points="124,-76.28 24,-76.28 24,-57.28 124,-57.28 124,-76.28"/>
<text text-anchor="middle" x="74" y="-64.28" font-family="Helvetica,sans-Serif" font-size="10.00">tblgen&#45;lsp&#45;server</text>
</a>
</g>
</g>
<!-- dir_dea1461af724965607419be398b3bcd0&#45;&gt;dir_d44c64559bbebec7f509842c48db8b23 -->
<g id="edge11" class="edge">
<title>dir_dea1461af724965607419be398b3bcd0&#45;&gt;dir_d44c64559bbebec7f509842c48db8b23</title>
<g id="a_edge11"><a xlink:href="dir_000469_000158.html" target="_top">
<path fill="none" stroke="#63b8ff" d="M90.56,-57.24C102.14,-51.7 118.12,-44.86 133,-41.28 194.73,-26.45 382.4,-17.41 461.85,-14.16"/>
<polygon fill="#63b8ff" stroke="#63b8ff" points="462.03,-17.65 471.88,-13.75 461.75,-10.66 462.03,-17.65"/>
</a>
</g>
<g id="a_edge11&#45;headlabel"><a xlink:href="dir_000469_000158.html" target="_top" xlink:title="5">
<text text-anchor="middle" x="458.55" y="-18.13" font-family="Helvetica,sans-Serif" font-size="10.00" fill="#63b8ff">5</text>
</a>
</g>
</g>
</g>
</svg>
