<?xml version="1.0" encoding="UTF-8" standalone="no"?>
<!DOCTYPE svg PUBLIC "-//W3C//DTD SVG 1.1//EN"
 "http://www.w3.org/Graphics/SVG/1.1/DTD/svg11.dtd">
<!-- Generated by graphviz version 2.43.0 (0)
 -->
<!-- Title: include/mlir/Conversion/ArithToAMDGPU Pages: 1 -->
<svg width="136pt" height="223pt"
 viewBox="0.00 0.00 136.00 223.00" xmlns="http://www.w3.org/2000/svg" xmlns:xlink="http://www.w3.org/1999/xlink">
<g id="graph0" class="graph" transform="scale(1 1) rotate(0) translate(4 219)">
<title>include/mlir/Conversion/ArithToAMDGPU</title>
<g id="clust1" class="cluster">
<title>clusterdir_37f3372f1e76d74ffd54613af9306e43</title>
<g id="a_clust1"><a xlink:href="dir_37f3372f1e76d74ffd54613af9306e43.html" target="_top" xlink:title="Conversion">
<polygon fill="#ddddee" stroke="black" points="8,-136 8,-207 120,-207 120,-136 8,-136"/>
<text text-anchor="middle" x="64" y="-195" font-family="Helvetica,sans-Serif" font-size="10.00">Conversion</text>
</a>
</g>
</g>
<!-- dir_a6df1667ea341d59627afbb8711824fd -->
<g id="node1" class="node">
<title>dir_a6df1667ea341d59627afbb8711824fd</title>
<g id="a_node1"><a xlink:href="dir_a6df1667ea341d59627afbb8711824fd.html" target="_top" xlink:title="ArithToAMDGPU">
<polygon fill="#eeeeff" stroke="black" points="111.5,-180 16.5,-180 16.5,-144 111.5,-144 111.5,-180"/>
<text text-anchor="middle" x="64" y="-159.5" font-family="Helvetica,sans-Serif" font-size="10.00">ArithToAMDGPU</text>
</a>
</g>
</g>
<!-- dir_84ef7c054b4edc3447cfba80cee80f65 -->
<g id="node2" class="node">
<title>dir_84ef7c054b4edc3447cfba80cee80f65</title>
<g id="a_node2"><a xlink:href="dir_84ef7c054b4edc3447cfba80cee80f65.html" target="_top" xlink:title="IR">
<polygon fill="none" stroke="black" points="90,-36 36,-36 36,0 90,0 90,-36"/>
<text text-anchor="middle" x="63" y="-15.5" font-family="Helvetica,sans-Serif" font-size="10.00">IR</text>
</a>
</g>
</g>
<!-- dir_a6df1667ea341d59627afbb8711824fd&#45;&gt;dir_84ef7c054b4edc3447cfba80cee80f65 -->
<g id="edge1" class="edge">
<title>dir_a6df1667ea341d59627afbb8711824fd&#45;&gt;dir_84ef7c054b4edc3447cfba80cee80f65</title>
<path fill="none" stroke="black" d="M60.35,-143.91C58.32,-133.57 56.02,-120.09 55,-108 53.66,-92.06 53.8,-87.96 55,-72 55.64,-63.52 56.84,-54.34 58.12,-46.04"/>
<polygon fill="black" stroke="black" points="61.58,-46.55 59.75,-36.11 54.68,-45.41 61.58,-46.55"/>
<g id="a_edge1&#45;headlabel"><a xlink:href="dir_000061_000046.html" target="_top" xlink:title="1">
<text text-anchor="middle" x="63.8" y="-48.05" font-family="Helvetica,sans-Serif" font-size="10.00">1</text>
</a>
</g>
</g>
<!-- dir_d07a6fac82475a065a3b2953573f00a0 -->
<g id="node3" class="node">
<title>dir_d07a6fac82475a065a3b2953573f00a0</title>
<g id="a_node3"><a xlink:href="dir_d07a6fac82475a065a3b2953573f00a0.html" target="_top" xlink:title="Dialect">
<polygon fill="none" stroke="red" points="118,-108 64,-108 64,-72 118,-72 118,-108"/>
<text text-anchor="middle" x="91" y="-87.5" font-family="Helvetica,sans-Serif" font-size="10.00">Dialect</text>
</a>
</g>
</g>
<!-- dir_a6df1667ea341d59627afbb8711824fd&#45;&gt;dir_d07a6fac82475a065a3b2953573f00a0 -->
<g id="edge2" class="edge">
<title>dir_a6df1667ea341d59627afbb8711824fd&#45;&gt;dir_d07a6fac82475a065a3b2953573f00a0</title>
<path fill="none" stroke="black" d="M70.67,-143.7C73.71,-135.81 77.38,-126.3 80.76,-117.55"/>
<polygon fill="black" stroke="black" points="84.07,-118.69 84.4,-108.1 77.54,-116.17 84.07,-118.69"/>
<g id="a_edge2&#45;headlabel"><a xlink:href="dir_000061_000014.html" target="_top" xlink:title="1">
<text text-anchor="middle" x="85.42" y="-120.57" font-family="Helvetica,sans-Serif" font-size="10.00">1</text>
</a>
</g>
</g>
<!-- dir_d07a6fac82475a065a3b2953573f00a0&#45;&gt;dir_84ef7c054b4edc3447cfba80cee80f65 -->
<g id="edge3" class="edge">
<title>dir_d07a6fac82475a065a3b2953573f00a0&#45;&gt;dir_84ef7c054b4edc3447cfba80cee80f65</title>
<path fill="none" stroke="black" d="M84.08,-71.7C80.93,-63.81 77.12,-54.3 73.62,-45.55"/>
<polygon fill="black" stroke="black" points="76.81,-44.09 69.84,-36.1 70.31,-46.69 76.81,-44.09"/>
<g id="a_edge3&#45;headlabel"><a xlink:href="dir_000014_000046.html" target="_top" xlink:title="382">
<text text-anchor="middle" x="80.78" y="-43.87" font-family="Helvetica,sans-Serif" font-size="10.00">382</text>
</a>
</g>
</g>
</g>
</svg>
