<?xml version="1.0" encoding="UTF-8" standalone="no"?>
<!DOCTYPE svg PUBLIC "-//W3C//DTD SVG 1.1//EN"
 "http://www.w3.org/Graphics/SVG/1.1/DTD/svg11.dtd">
<!-- Generated by graphviz version 2.43.0 (0)
 -->
<!-- Title: include/mlir/Dialect/SPIRV Pages: 1 -->
<svg width="824pt" height="447pt"
 viewBox="0.00 0.00 824.02 447.00" xmlns="http://www.w3.org/2000/svg" xmlns:xlink="http://www.w3.org/1999/xlink">
<g id="graph0" class="graph" transform="scale(1 1) rotate(0) translate(4 443)">
<title>include/mlir/Dialect/SPIRV</title>
<g id="clust1" class="cluster">
<title>clusterdir_d07a6fac82475a065a3b2953573f00a0</title>
<g id="a_clust1"><a xlink:href="dir_d07a6fac82475a065a3b2953573f00a0.html" target="_top" xlink:title="Dialect">
<polygon fill="#ddddee" stroke="black" points="124.02,-200 124.02,-431 506.02,-431 506.02,-200 124.02,-200"/>
<text text-anchor="middle" x="315.02" y="-419" font-family="Helvetica,sans-Serif" font-size="10.00">Dialect</text>
</a>
</g>
</g>
<g id="clust2" class="cluster">
<title>clusterdir_98f2b89183a5728f9d4e9316326e5121</title>
<g id="a_clust2"><a xlink:href="dir_98f2b89183a5728f9d4e9316326e5121.html" target="_top">
<polygon fill="#eeeeff" stroke="black" points="194.02,-208 194.02,-404 498.02,-404 498.02,-208 194.02,-208"/>
</a>
</g>
</g>
<!-- dir_bfd3493254b3df47293537524626123b -->
<g id="node1" class="node">
<title>dir_bfd3493254b3df47293537524626123b</title>
<g id="a_node1"><a xlink:href="dir_bfd3493254b3df47293537524626123b.html" target="_top" xlink:title="Vector">
<polygon fill="none" stroke="red" points="186.02,-324 132.02,-324 132.02,-288 186.02,-288 186.02,-324"/>
<text text-anchor="middle" x="159.02" y="-303.5" font-family="Helvetica,sans-Serif" font-size="10.00">Vector</text>
</a>
</g>
</g>
<!-- dir_51020c1b0909ae629a35fe1c65c620b9 -->
<g id="node8" class="node">
<title>dir_51020c1b0909ae629a35fe1c65c620b9</title>
<g id="a_node8"><a xlink:href="dir_51020c1b0909ae629a35fe1c65c620b9.html" target="_top" xlink:title="Bytecode">
<polygon fill="none" stroke="black" points="116.02,-252 54.02,-252 54.02,-216 116.02,-216 116.02,-252"/>
<text text-anchor="middle" x="85.02" y="-231.5" font-family="Helvetica,sans-Serif" font-size="10.00">Bytecode</text>
</a>
</g>
</g>
<!-- dir_bfd3493254b3df47293537524626123b&#45;&gt;dir_51020c1b0909ae629a35fe1c65c620b9 -->
<g id="edge4" class="edge">
<title>dir_bfd3493254b3df47293537524626123b&#45;&gt;dir_51020c1b0909ae629a35fe1c65c620b9</title>
<path fill="none" stroke="black" d="M140.73,-287.7C131.59,-279.05 120.38,-268.45 110.42,-259.03"/>
<polygon fill="black" stroke="black" points="112.77,-256.43 103.1,-252.1 107.96,-261.52 112.77,-256.43"/>
<g id="a_edge4&#45;headlabel"><a xlink:href="dir_000152_000051.html" target="_top" xlink:title="1">
<text text-anchor="middle" x="117.33" y="-254.34" font-family="Helvetica,sans-Serif" font-size="10.00">1</text>
</a>
</g>
</g>
<!-- dir_84ef7c054b4edc3447cfba80cee80f65 -->
<g id="node9" class="node">
<title>dir_84ef7c054b4edc3447cfba80cee80f65</title>
<g id="a_node9"><a xlink:href="dir_84ef7c054b4edc3447cfba80cee80f65.html" target="_top" xlink:title="IR">
<polygon fill="none" stroke="black" points="454.02,-180 400.02,-180 400.02,-144 454.02,-144 454.02,-180"/>
<text text-anchor="middle" x="427.02" y="-159.5" font-family="Helvetica,sans-Serif" font-size="10.00">IR</text>
</a>
</g>
</g>
<!-- dir_bfd3493254b3df47293537524626123b&#45;&gt;dir_84ef7c054b4edc3447cfba80cee80f65 -->
<g id="edge5" class="edge">
<title>dir_bfd3493254b3df47293537524626123b&#45;&gt;dir_84ef7c054b4edc3447cfba80cee80f65</title>
<path fill="none" stroke="black" d="M186.15,-289.38C187.44,-288.87 188.73,-288.41 190.02,-288 256.52,-266.83 455.58,-304.1 502.02,-252 517.4,-234.75 514.22,-219.63 502.02,-200 493.55,-186.38 478.42,-177.62 463.95,-172.07"/>
<polygon fill="black" stroke="black" points="464.73,-168.63 454.14,-168.71 462.47,-175.26 464.73,-168.63"/>
<g id="a_edge5&#45;headlabel"><a xlink:href="dir_000152_000047.html" target="_top" xlink:title="13">
<text text-anchor="middle" x="469.05" y="-164.61" font-family="Helvetica,sans-Serif" font-size="10.00">13</text>
</a>
</g>
</g>
<!-- dir_cf63c3ddb21c79ef735682489f4c6a69 -->
<g id="node10" class="node">
<title>dir_cf63c3ddb21c79ef735682489f4c6a69</title>
<g id="a_node10"><a xlink:href="dir_cf63c3ddb21c79ef735682489f4c6a69.html" target="_top" xlink:title="Interfaces">
<polygon fill="none" stroke="red" points="428.52,-108 363.52,-108 363.52,-72 428.52,-72 428.52,-108"/>
<text text-anchor="middle" x="396.02" y="-87.5" font-family="Helvetica,sans-Serif" font-size="10.00">Interfaces</text>
</a>
</g>
</g>
<!-- dir_bfd3493254b3df47293537524626123b&#45;&gt;dir_cf63c3ddb21c79ef735682489f4c6a69 -->
<g id="edge7" class="edge">
<title>dir_bfd3493254b3df47293537524626123b&#45;&gt;dir_cf63c3ddb21c79ef735682489f4c6a69</title>
<path fill="none" stroke="black" d="M132,-302.43C101.58,-297.92 53.47,-285.6 31.02,-252 2.91,-209.93 24.69,-171.71 67.02,-144 113.42,-113.62 274.87,-99.02 353,-93.6"/>
<polygon fill="black" stroke="black" points="353.71,-97.06 363.45,-92.9 353.24,-90.08 353.71,-97.06"/>
<g id="a_edge7&#45;headlabel"><a xlink:href="dir_000152_000288.html" target="_top" xlink:title="10">
<text text-anchor="middle" x="350.31" y="-97.64" font-family="Helvetica,sans-Serif" font-size="10.00">10</text>
</a>
</g>
</g>
<!-- dir_f61d47671007dfdb592580b61f960d39 -->
<g id="node11" class="node">
<title>dir_f61d47671007dfdb592580b61f960d39</title>
<g id="a_node11"><a xlink:href="dir_f61d47671007dfdb592580b61f960d39.html" target="_top" xlink:title="Support">
<polygon fill="none" stroke="black" points="453.02,-36 399.02,-36 399.02,0 453.02,0 453.02,-36"/>
<text text-anchor="middle" x="426.02" y="-15.5" font-family="Helvetica,sans-Serif" font-size="10.00">Support</text>
</a>
</g>
</g>
<!-- dir_bfd3493254b3df47293537524626123b&#45;&gt;dir_f61d47671007dfdb592580b61f960d39 -->
<g id="edge8" class="edge">
<title>dir_bfd3493254b3df47293537524626123b&#45;&gt;dir_f61d47671007dfdb592580b61f960d39</title>
<path fill="none" stroke="black" d="M131.74,-303.82C97.88,-300.71 41.39,-289.8 15.02,-252 -12.58,-212.43 3.94,-186.9 26.02,-144 46.17,-104.87 55.1,-92.56 94.02,-72 144.72,-45.21 313.21,-28.32 388.78,-21.92"/>
<polygon fill="black" stroke="black" points="389.13,-25.4 398.8,-21.08 388.55,-18.42 389.13,-25.4"/>
<g id="a_edge8&#45;headlabel"><a xlink:href="dir_000152_000298.html" target="_top" xlink:title="1">
<text text-anchor="middle" x="385.78" y="-26.03" font-family="Helvetica,sans-Serif" font-size="10.00">1</text>
</a>
</g>
</g>
<!-- dir_cab9f8330899b1cc9d753b1d9c5c5a3e -->
<g id="node12" class="node">
<title>dir_cab9f8330899b1cc9d753b1d9c5c5a3e</title>
<g id="a_node12"><a xlink:href="dir_cab9f8330899b1cc9d753b1d9c5c5a3e.html" target="_top" xlink:title="Pass">
<polygon fill="none" stroke="black" points="636.02,-252 582.02,-252 582.02,-216 636.02,-216 636.02,-252"/>
<text text-anchor="middle" x="609.02" y="-231.5" font-family="Helvetica,sans-Serif" font-size="10.00">Pass</text>
</a>
</g>
</g>
<!-- dir_bfd3493254b3df47293537524626123b&#45;&gt;dir_cab9f8330899b1cc9d753b1d9c5c5a3e -->
<g id="edge6" class="edge">
<title>dir_bfd3493254b3df47293537524626123b&#45;&gt;dir_cab9f8330899b1cc9d753b1d9c5c5a3e</title>
<path fill="none" stroke="black" d="M186.14,-289.37C187.43,-288.86 188.73,-288.4 190.02,-288 335.03,-242.58 379.97,-276.02 530.02,-252 543.68,-249.81 558.54,-246.79 571.65,-243.89"/>
<polygon fill="black" stroke="black" points="572.75,-247.24 581.73,-241.62 571.21,-240.41 572.75,-247.24"/>
<g id="a_edge6&#45;headlabel"><a xlink:href="dir_000152_000054.html" target="_top" xlink:title="1">
<text text-anchor="middle" x="569.87" y="-248.3" font-family="Helvetica,sans-Serif" font-size="10.00">1</text>
</a>
</g>
</g>
<!-- dir_98f2b89183a5728f9d4e9316326e5121 -->
<g id="node2" class="node">
<title>dir_98f2b89183a5728f9d4e9316326e5121</title>
<text text-anchor="middle" x="463.02" y="-375.5" font-family="Helvetica,sans-Serif" font-size="10.00">SPIRV</text>
</g>
<!-- dir_9cdeb4cb7e7d1dc10e757e433fbfed49 -->
<g id="node3" class="node">
<title>dir_9cdeb4cb7e7d1dc10e757e433fbfed49</title>
<g id="a_node3"><a xlink:href="dir_9cdeb4cb7e7d1dc10e757e433fbfed49.html" target="_top" xlink:title="Interfaces">
<polygon fill="white" stroke="black" points="424.52,-252 359.52,-252 359.52,-216 424.52,-216 424.52,-252"/>
<text text-anchor="middle" x="392.02" y="-231.5" font-family="Helvetica,sans-Serif" font-size="10.00">Interfaces</text>
</a>
</g>
</g>
<!-- dir_9cdeb4cb7e7d1dc10e757e433fbfed49&#45;&gt;dir_84ef7c054b4edc3447cfba80cee80f65 -->
<g id="edge22" class="edge">
<title>dir_9cdeb4cb7e7d1dc10e757e433fbfed49&#45;&gt;dir_84ef7c054b4edc3447cfba80cee80f65</title>
<path fill="none" stroke="black" d="M400.67,-215.7C404.66,-207.73 409.47,-198.1 413.89,-189.26"/>
<polygon fill="black" stroke="black" points="417.13,-190.61 418.47,-180.1 410.86,-187.48 417.13,-190.61"/>
<g id="a_edge22&#45;headlabel"><a xlink:href="dir_000264_000047.html" target="_top" xlink:title="1">
<text text-anchor="middle" x="418.06" y="-192.6" font-family="Helvetica,sans-Serif" font-size="10.00">1</text>
</a>
</g>
</g>
<!-- dir_9e687c563d07114e1f35bb9eabc86a7f -->
<g id="node4" class="node">
<title>dir_9e687c563d07114e1f35bb9eabc86a7f</title>
<g id="a_node4"><a xlink:href="dir_9e687c563d07114e1f35bb9eabc86a7f.html" target="_top" xlink:title="IR">
<polygon fill="white" stroke="black" points="298.02,-324 244.02,-324 244.02,-288 298.02,-288 298.02,-324"/>
<text text-anchor="middle" x="271.02" y="-303.5" font-family="Helvetica,sans-Serif" font-size="10.00">IR</text>
</a>
</g>
</g>
<!-- dir_9e687c563d07114e1f35bb9eabc86a7f&#45;&gt;dir_9cdeb4cb7e7d1dc10e757e433fbfed49 -->
<g id="edge27" class="edge">
<title>dir_9e687c563d07114e1f35bb9eabc86a7f&#45;&gt;dir_9cdeb4cb7e7d1dc10e757e433fbfed49</title>
<path fill="none" stroke="black" d="M298.17,-289.29C314.43,-279.89 335.36,-267.78 353.33,-257.38"/>
<polygon fill="black" stroke="black" points="355.51,-260.16 362.41,-252.13 352,-254.11 355.51,-260.16"/>
<g id="a_edge27&#45;headlabel"><a xlink:href="dir_000265_000264.html" target="_top" xlink:title="1">
<text text-anchor="middle" x="353.82" y="-261.92" font-family="Helvetica,sans-Serif" font-size="10.00">1</text>
</a>
</g>
</g>
<!-- dir_9e687c563d07114e1f35bb9eabc86a7f&#45;&gt;dir_51020c1b0909ae629a35fe1c65c620b9 -->
<g id="edge25" class="edge">
<title>dir_9e687c563d07114e1f35bb9eabc86a7f&#45;&gt;dir_51020c1b0909ae629a35fe1c65c620b9</title>
<path fill="none" stroke="black" d="M243.76,-289.72C242.51,-289.12 241.25,-288.55 240.02,-288 202.34,-271.37 157.68,-256.6 126.01,-246.9"/>
<polygon fill="black" stroke="black" points="126.79,-243.48 116.2,-243.93 124.76,-250.18 126.79,-243.48"/>
<g id="a_edge25&#45;headlabel"><a xlink:href="dir_000265_000051.html" target="_top" xlink:title="1">
<text text-anchor="middle" x="131.05" y="-239.3" font-family="Helvetica,sans-Serif" font-size="10.00">1</text>
</a>
</g>
</g>
<!-- dir_9e687c563d07114e1f35bb9eabc86a7f&#45;&gt;dir_84ef7c054b4edc3447cfba80cee80f65 -->
<g id="edge26" class="edge">
<title>dir_9e687c563d07114e1f35bb9eabc86a7f&#45;&gt;dir_84ef7c054b4edc3447cfba80cee80f65</title>
<path fill="none" stroke="black" d="M280.66,-287.75C294,-265.15 320,-225.42 351.02,-200 362.71,-190.42 377.3,-182.56 390.56,-176.59"/>
<polygon fill="black" stroke="black" points="392.11,-179.73 399.92,-172.57 389.35,-173.3 392.11,-179.73"/>
<g id="a_edge26&#45;headlabel"><a xlink:href="dir_000265_000047.html" target="_top" xlink:title="13">
<text text-anchor="middle" x="389.92" y="-181.26" font-family="Helvetica,sans-Serif" font-size="10.00">13</text>
</a>
</g>
</g>
<!-- dir_9e687c563d07114e1f35bb9eabc86a7f&#45;&gt;dir_cf63c3ddb21c79ef735682489f4c6a69 -->
<g id="edge28" class="edge">
<title>dir_9e687c563d07114e1f35bb9eabc86a7f&#45;&gt;dir_cf63c3ddb21c79ef735682489f4c6a69</title>
<path fill="none" stroke="black" d="M243.86,-289.49C242.57,-288.95 241.29,-288.45 240.02,-288 156.99,-258.44 101.4,-319.74 45.02,-252 30.24,-234.24 31.31,-218.61 45.02,-200 82.11,-149.64 268.21,-112.49 353.37,-97.85"/>
<polygon fill="black" stroke="black" points="353.96,-101.3 363.23,-96.18 352.79,-94.4 353.96,-101.3"/>
<g id="a_edge28&#45;headlabel"><a xlink:href="dir_000265_000288.html" target="_top" xlink:title="5">
<text text-anchor="middle" x="350.89" y="-102.2" font-family="Helvetica,sans-Serif" font-size="10.00">5</text>
</a>
</g>
</g>
<!-- dir_9e687c563d07114e1f35bb9eabc86a7f&#45;&gt;dir_f61d47671007dfdb592580b61f960d39 -->
<g id="edge29" class="edge">
<title>dir_9e687c563d07114e1f35bb9eabc86a7f&#45;&gt;dir_f61d47671007dfdb592580b61f960d39</title>
<path fill="none" stroke="black" d="M243.86,-289.47C242.58,-288.94 241.29,-288.45 240.02,-288 151.04,-256.91 91.75,-324.08 31.02,-252 16.13,-234.33 24.51,-222.17 31.02,-200 74.37,-52.41 299.3,-25.1 389.02,-20.1"/>
<polygon fill="black" stroke="black" points="389.2,-23.6 399.02,-19.6 388.86,-16.6 389.2,-23.6"/>
<g id="a_edge29&#45;headlabel"><a xlink:href="dir_000265_000298.html" target="_top" xlink:title="3">
<text text-anchor="middle" x="385.75" y="-24.11" font-family="Helvetica,sans-Serif" font-size="10.00">3</text>
</a>
</g>
</g>
<!-- dir_22d148667e9610cecad2c299f9e94af2 -->
<g id="node5" class="node">
<title>dir_22d148667e9610cecad2c299f9e94af2</title>
<g id="a_node5"><a xlink:href="dir_22d148667e9610cecad2c299f9e94af2.html" target="_top" xlink:title="Linking">
<polygon fill="white" stroke="black" points="418.02,-396 364.02,-396 364.02,-360 418.02,-360 418.02,-396"/>
<text text-anchor="middle" x="391.02" y="-375.5" font-family="Helvetica,sans-Serif" font-size="10.00">Linking</text>
</a>
</g>
</g>
<!-- dir_22d148667e9610cecad2c299f9e94af2&#45;&gt;dir_84ef7c054b4edc3447cfba80cee80f65 -->
<g id="edge9" class="edge">
<title>dir_22d148667e9610cecad2c299f9e94af2&#45;&gt;dir_84ef7c054b4edc3447cfba80cee80f65</title>
<path fill="none" stroke="black" d="M418.19,-363.09C421.12,-361.91 424.1,-360.85 427.02,-360 487.66,-342.29 667.27,-371.42 709.02,-324 740.05,-288.75 692.4,-217.7 669.02,-200 637.53,-176.16 524.23,-167.44 464.49,-164.44"/>
<polygon fill="black" stroke="black" points="464.49,-160.94 454.34,-163.96 464.16,-167.93 464.49,-160.94"/>
<g id="a_edge9&#45;headlabel"><a xlink:href="dir_000266_000047.html" target="_top" xlink:title="1">
<text text-anchor="middle" x="468.22" y="-155.77" font-family="Helvetica,sans-Serif" font-size="10.00">1</text>
</a>
</g>
</g>
<!-- dir_22d148667e9610cecad2c299f9e94af2&#45;&gt;dir_f61d47671007dfdb592580b61f960d39 -->
<g id="edge10" class="edge">
<title>dir_22d148667e9610cecad2c299f9e94af2&#45;&gt;dir_f61d47671007dfdb592580b61f960d39</title>
<path fill="none" stroke="black" d="M418.18,-363.06C421.12,-361.89 424.1,-360.84 427.02,-360 556.5,-322.75 607,-383.21 728.02,-324 777.99,-299.55 816.02,-290.63 816.02,-235 816.02,-235 816.02,-235 816.02,-161 816.02,-86.35 560.53,-39.52 463.13,-24.37"/>
<polygon fill="black" stroke="black" points="463.55,-20.9 453.13,-22.85 462.49,-27.82 463.55,-20.9"/>
<g id="a_edge10&#45;headlabel"><a xlink:href="dir_000266_000298.html" target="_top" xlink:title="1">
<text text-anchor="middle" x="467.53" y="-16.13" font-family="Helvetica,sans-Serif" font-size="10.00">1</text>
</a>
</g>
</g>
<!-- dir_0b8c605e3717abae20ac5f70977761f8 -->
<g id="node6" class="node">
<title>dir_0b8c605e3717abae20ac5f70977761f8</title>
<g id="a_node6"><a xlink:href="dir_0b8c605e3717abae20ac5f70977761f8.html" target="_top" xlink:title="Transforms">
<polygon fill="white" stroke="black" points="345.52,-396 274.52,-396 274.52,-360 345.52,-360 345.52,-396"/>
<text text-anchor="middle" x="310.02" y="-375.5" font-family="Helvetica,sans-Serif" font-size="10.00">Transforms</text>
</a>
</g>
</g>
<!-- dir_0b8c605e3717abae20ac5f70977761f8&#45;&gt;dir_bfd3493254b3df47293537524626123b -->
<g id="edge17" class="edge">
<title>dir_0b8c605e3717abae20ac5f70977761f8&#45;&gt;dir_bfd3493254b3df47293537524626123b</title>
<path fill="none" stroke="black" d="M274.47,-362.25C252.75,-353.02 224.24,-340.55 195.62,-326.69"/>
<polygon fill="black" stroke="black" points="196.86,-323.4 186.34,-322.15 193.78,-329.69 196.86,-323.4"/>
<g id="a_edge17&#45;headlabel"><a xlink:href="dir_000147_000152.html" target="_top" xlink:title="1">
<text text-anchor="middle" x="201.33" y="-319.93" font-family="Helvetica,sans-Serif" font-size="10.00">1</text>
</a>
</g>
</g>
<!-- dir_0b8c605e3717abae20ac5f70977761f8&#45;&gt;dir_9e687c563d07114e1f35bb9eabc86a7f -->
<g id="edge16" class="edge">
<title>dir_0b8c605e3717abae20ac5f70977761f8&#45;&gt;dir_9e687c563d07114e1f35bb9eabc86a7f</title>
<path fill="none" stroke="black" d="M300.38,-359.7C295.89,-351.64 290.46,-341.89 285.5,-332.98"/>
<polygon fill="black" stroke="black" points="288.47,-331.14 280.55,-324.1 282.36,-334.54 288.47,-331.14"/>
<g id="a_edge16&#45;headlabel"><a xlink:href="dir_000147_000265.html" target="_top" xlink:title="5">
<text text-anchor="middle" x="292.7" y="-330.39" font-family="Helvetica,sans-Serif" font-size="10.00">5</text>
</a>
</g>
</g>
<!-- dir_0b8c605e3717abae20ac5f70977761f8&#45;&gt;dir_84ef7c054b4edc3447cfba80cee80f65 -->
<g id="edge15" class="edge">
<title>dir_0b8c605e3717abae20ac5f70977761f8&#45;&gt;dir_84ef7c054b4edc3447cfba80cee80f65</title>
<path fill="none" stroke="black" d="M345.65,-361.18C400.56,-335.99 501.57,-286.13 521.02,-252 532.46,-231.92 534.03,-219.1 521.02,-200 508.35,-181.4 484.77,-172.15 464.39,-167.55"/>
<polygon fill="black" stroke="black" points="464.89,-164.08 454.4,-165.59 463.55,-170.95 464.89,-164.08"/>
<g id="a_edge15&#45;headlabel"><a xlink:href="dir_000147_000047.html" target="_top" xlink:title="1">
<text text-anchor="middle" x="468.96" y="-159.49" font-family="Helvetica,sans-Serif" font-size="10.00">1</text>
</a>
</g>
</g>
<!-- dir_0b8c605e3717abae20ac5f70977761f8&#45;&gt;dir_cab9f8330899b1cc9d753b1d9c5c5a3e -->
<g id="edge19" class="edge">
<title>dir_0b8c605e3717abae20ac5f70977761f8&#45;&gt;dir_cab9f8330899b1cc9d753b1d9c5c5a3e</title>
<path fill="none" stroke="black" d="M345.68,-362.82C348.81,-361.79 351.96,-360.83 355.02,-360 447.69,-334.92 491.78,-382.35 568.02,-324 587.69,-308.94 598.25,-282.22 603.7,-261.97"/>
<polygon fill="black" stroke="black" points="607.14,-262.62 606.1,-252.07 600.34,-260.96 607.14,-262.62"/>
<g id="a_edge19&#45;headlabel"><a xlink:href="dir_000147_000054.html" target="_top" xlink:title="1">
<text text-anchor="middle" x="609.05" y="-264.28" font-family="Helvetica,sans-Serif" font-size="10.00">1</text>
</a>
</g>
</g>
<!-- dir_ca4d1f3bc4cd42ba07a57ca86d19a1d6 -->
<g id="node13" class="node">
<title>dir_ca4d1f3bc4cd42ba07a57ca86d19a1d6</title>
<g id="a_node13"><a xlink:href="dir_ca4d1f3bc4cd42ba07a57ca86d19a1d6.html" target="_top" xlink:title="Transforms">
<polygon fill="none" stroke="black" points="699.52,-324 628.52,-324 628.52,-288 699.52,-288 699.52,-324"/>
<text text-anchor="middle" x="664.02" y="-303.5" font-family="Helvetica,sans-Serif" font-size="10.00">Transforms</text>
</a>
</g>
</g>
<!-- dir_0b8c605e3717abae20ac5f70977761f8&#45;&gt;dir_ca4d1f3bc4cd42ba07a57ca86d19a1d6 -->
<g id="edge18" class="edge">
<title>dir_0b8c605e3717abae20ac5f70977761f8&#45;&gt;dir_ca4d1f3bc4cd42ba07a57ca86d19a1d6</title>
<path fill="none" stroke="black" d="M345.65,-362.73C348.79,-361.72 351.95,-360.79 355.02,-360 465.9,-331.6 498.39,-349.27 610.02,-324 612.85,-323.36 615.75,-322.64 618.66,-321.87"/>
<polygon fill="black" stroke="black" points="619.84,-325.17 628.52,-319.09 617.94,-318.43 619.84,-325.17"/>
<g id="a_edge18&#45;headlabel"><a xlink:href="dir_000147_000159.html" target="_top" xlink:title="2">
<text text-anchor="middle" x="617.16" y="-326.38" font-family="Helvetica,sans-Serif" font-size="10.00">2</text>
</a>
</g>
</g>
<!-- dir_df2d92f850c9715053cd295e230b9095 -->
<g id="node7" class="node">
<title>dir_df2d92f850c9715053cd295e230b9095</title>
<g id="a_node7"><a xlink:href="dir_df2d92f850c9715053cd295e230b9095.html" target="_top" xlink:title="Utils">
<polygon fill="white" stroke="black" points="256.02,-396 202.02,-396 202.02,-360 256.02,-360 256.02,-396"/>
<text text-anchor="middle" x="229.02" y="-375.5" font-family="Helvetica,sans-Serif" font-size="10.00">Utils</text>
</a>
</g>
</g>
<!-- dir_51020c1b0909ae629a35fe1c65c620b9&#45;&gt;dir_84ef7c054b4edc3447cfba80cee80f65 -->
<g id="edge20" class="edge">
<title>dir_51020c1b0909ae629a35fe1c65c620b9&#45;&gt;dir_84ef7c054b4edc3447cfba80cee80f65</title>
<path fill="none" stroke="black" d="M116.4,-219.05C135.04,-212.55 159.06,-205.13 181.02,-200 253.74,-183 340.89,-171.66 389.65,-166.39"/>
<polygon fill="black" stroke="black" points="390.16,-169.86 399.74,-165.33 389.43,-162.9 390.16,-169.86"/>
<g id="a_edge20&#45;headlabel"><a xlink:href="dir_000051_000047.html" target="_top" xlink:title="9">
<text text-anchor="middle" x="386.89" y="-170.56" font-family="Helvetica,sans-Serif" font-size="10.00">9</text>
</a>
</g>
</g>
<!-- dir_51020c1b0909ae629a35fe1c65c620b9&#45;&gt;dir_f61d47671007dfdb592580b61f960d39 -->
<g id="edge21" class="edge">
<title>dir_51020c1b0909ae629a35fe1c65c620b9&#45;&gt;dir_f61d47671007dfdb592580b61f960d39</title>
<path fill="none" stroke="black" d="M112.35,-215.85C173.45,-177.5 321.15,-84.82 389.81,-41.73"/>
<polygon fill="black" stroke="black" points="391.95,-44.51 398.56,-36.23 388.23,-38.58 391.95,-44.51"/>
<g id="a_edge21&#45;headlabel"><a xlink:href="dir_000051_000298.html" target="_top" xlink:title="2">
<text text-anchor="middle" x="390.42" y="-46.33" font-family="Helvetica,sans-Serif" font-size="10.00">2</text>
</a>
</g>
</g>
<!-- dir_84ef7c054b4edc3447cfba80cee80f65&#45;&gt;dir_51020c1b0909ae629a35fe1c65c620b9 -->
<g id="edge1" class="edge">
<title>dir_84ef7c054b4edc3447cfba80cee80f65&#45;&gt;dir_51020c1b0909ae629a35fe1c65c620b9</title>
<path fill="none" stroke="black" d="M399.77,-166.6C356.61,-171.95 270.79,-183.22 199.02,-200 174.49,-205.73 147.39,-214.31 125.63,-221.29"/>
<polygon fill="black" stroke="black" points="124.49,-217.97 116.04,-224.36 126.63,-224.64 124.49,-217.97"/>
<g id="a_edge1&#45;headlabel"><a xlink:href="dir_000047_000051.html" target="_top" xlink:title="2">
<text text-anchor="middle" x="127.05" y="-211.67" font-family="Helvetica,sans-Serif" font-size="10.00">2</text>
</a>
</g>
</g>
<!-- dir_84ef7c054b4edc3447cfba80cee80f65&#45;&gt;dir_cf63c3ddb21c79ef735682489f4c6a69 -->
<g id="edge2" class="edge">
<title>dir_84ef7c054b4edc3447cfba80cee80f65&#45;&gt;dir_cf63c3ddb21c79ef735682489f4c6a69</title>
<path fill="none" stroke="black" d="M413.44,-143.7C409.14,-135.81 404.71,-126.3 401.2,-117.55"/>
<polygon fill="black" stroke="black" points="404.46,-116.26 397.7,-108.1 397.9,-118.7 404.46,-116.26"/>
<g id="a_edge2&#45;headlabel"><a xlink:href="dir_000047_000288.html" target="_top" xlink:title="3">
<text text-anchor="middle" x="408.37" y="-116.14" font-family="Helvetica,sans-Serif" font-size="10.00">3</text>
</a>
</g>
</g>
<!-- dir_84ef7c054b4edc3447cfba80cee80f65&#45;&gt;dir_f61d47671007dfdb592580b61f960d39 -->
<g id="edge3" class="edge">
<title>dir_84ef7c054b4edc3447cfba80cee80f65&#45;&gt;dir_f61d47671007dfdb592580b61f960d39</title>
<path fill="none" stroke="black" d="M431.48,-143.95C433.95,-133.63 436.77,-120.15 438.02,-108 439.65,-92.08 439.8,-87.9 438.02,-72 437.06,-63.43 435.26,-54.22 433.33,-45.93"/>
<polygon fill="black" stroke="black" points="436.68,-44.89 430.89,-36.02 429.89,-46.57 436.68,-44.89"/>
<g id="a_edge3&#45;headlabel"><a xlink:href="dir_000047_000298.html" target="_top" xlink:title="23">
<text text-anchor="middle" x="440.3" y="-45.2" font-family="Helvetica,sans-Serif" font-size="10.00">23</text>
</a>
</g>
</g>
<!-- dir_cf63c3ddb21c79ef735682489f4c6a69&#45;&gt;dir_84ef7c054b4edc3447cfba80cee80f65 -->
<g id="edge23" class="edge">
<title>dir_cf63c3ddb21c79ef735682489f4c6a69&#45;&gt;dir_84ef7c054b4edc3447cfba80cee80f65</title>
<path fill="none" stroke="black" d="M409.49,-108.1C413.79,-115.96 418.23,-125.46 421.75,-134.23"/>
<polygon fill="black" stroke="black" points="418.5,-135.55 425.27,-143.7 425.06,-133.1 418.5,-135.55"/>
<g id="a_edge23&#45;headlabel"><a xlink:href="dir_000288_000047.html" target="_top" xlink:title="54">
<text text-anchor="middle" x="414.59" y="-130.67" font-family="Helvetica,sans-Serif" font-size="10.00">54</text>
</a>
</g>
</g>
<!-- dir_cf63c3ddb21c79ef735682489f4c6a69&#45;&gt;dir_f61d47671007dfdb592580b61f960d39 -->
<g id="edge24" class="edge">
<title>dir_cf63c3ddb21c79ef735682489f4c6a69&#45;&gt;dir_f61d47671007dfdb592580b61f960d39</title>
<path fill="none" stroke="black" d="M403.44,-71.7C406.81,-63.81 410.89,-54.3 414.64,-45.55"/>
<polygon fill="black" stroke="black" points="417.97,-46.67 418.69,-36.1 411.53,-43.92 417.97,-46.67"/>
<g id="a_edge24&#45;headlabel"><a xlink:href="dir_000288_000298.html" target="_top" xlink:title="2">
<text text-anchor="middle" x="419.16" y="-48.6" font-family="Helvetica,sans-Serif" font-size="10.00">2</text>
</a>
</g>
</g>
<!-- dir_cab9f8330899b1cc9d753b1d9c5c5a3e&#45;&gt;dir_84ef7c054b4edc3447cfba80cee80f65 -->
<g id="edge30" class="edge">
<title>dir_cab9f8330899b1cc9d753b1d9c5c5a3e&#45;&gt;dir_84ef7c054b4edc3447cfba80cee80f65</title>
<path fill="none" stroke="black" d="M590.99,-215.76C584.22,-210.05 576.18,-204.12 568.02,-200 535.01,-183.35 493.77,-173.66 464.44,-168.4"/>
<polygon fill="black" stroke="black" points="464.65,-164.89 454.2,-166.66 463.47,-171.79 464.65,-164.89"/>
<g id="a_edge30&#45;headlabel"><a xlink:href="dir_000054_000047.html" target="_top" xlink:title="4">
<text text-anchor="middle" x="468.67" y="-160.19" font-family="Helvetica,sans-Serif" font-size="10.00">4</text>
</a>
</g>
</g>
<!-- dir_cab9f8330899b1cc9d753b1d9c5c5a3e&#45;&gt;dir_f61d47671007dfdb592580b61f960d39 -->
<g id="edge31" class="edge">
<title>dir_cab9f8330899b1cc9d753b1d9c5c5a3e&#45;&gt;dir_f61d47671007dfdb592580b61f960d39</title>
<path fill="none" stroke="black" d="M594.35,-215.85C562.1,-178.13 484.88,-87.83 447.29,-43.88"/>
<polygon fill="black" stroke="black" points="449.91,-41.56 440.76,-36.23 444.59,-46.11 449.91,-41.56"/>
<g id="a_edge31&#45;headlabel"><a xlink:href="dir_000054_000298.html" target="_top" xlink:title="6">
<text text-anchor="middle" x="454.41" y="-39.94" font-family="Helvetica,sans-Serif" font-size="10.00">6</text>
</a>
</g>
</g>
<!-- dir_ca4d1f3bc4cd42ba07a57ca86d19a1d6&#45;&gt;dir_84ef7c054b4edc3447cfba80cee80f65 -->
<g id="edge11" class="edge">
<title>dir_ca4d1f3bc4cd42ba07a57ca86d19a1d6&#45;&gt;dir_84ef7c054b4edc3447cfba80cee80f65</title>
<path fill="none" stroke="black" d="M666.37,-287.76C668.49,-264.43 668.33,-223.06 645.02,-200 620.08,-175.34 519.68,-167.03 464.25,-164.3"/>
<polygon fill="black" stroke="black" points="464.27,-160.79 454.12,-163.83 463.95,-167.79 464.27,-160.79"/>
<g id="a_edge11&#45;headlabel"><a xlink:href="dir_000159_000047.html" target="_top" xlink:title="19">
<text text-anchor="middle" x="467.99" y="-155.62" font-family="Helvetica,sans-Serif" font-size="10.00">19</text>
</a>
</g>
</g>
<!-- dir_ca4d1f3bc4cd42ba07a57ca86d19a1d6&#45;&gt;dir_cf63c3ddb21c79ef735682489f4c6a69 -->
<g id="edge13" class="edge">
<title>dir_ca4d1f3bc4cd42ba07a57ca86d19a1d6&#45;&gt;dir_cf63c3ddb21c79ef735682489f4c6a69</title>
<path fill="none" stroke="black" d="M670.71,-287.67C678.12,-265.35 686.83,-226.29 669.02,-200 617.09,-123.36 501.68,-100.6 438.83,-93.85"/>
<polygon fill="black" stroke="black" points="439.13,-90.36 428.84,-92.86 438.45,-97.33 439.13,-90.36"/>
<g id="a_edge13&#45;headlabel"><a xlink:href="dir_000159_000288.html" target="_top" xlink:title="4">
<text text-anchor="middle" x="442.99" y="-85.39" font-family="Helvetica,sans-Serif" font-size="10.00">4</text>
</a>
</g>
</g>
<!-- dir_ca4d1f3bc4cd42ba07a57ca86d19a1d6&#45;&gt;dir_f61d47671007dfdb592580b61f960d39 -->
<g id="edge14" class="edge">
<title>dir_ca4d1f3bc4cd42ba07a57ca86d19a1d6&#45;&gt;dir_f61d47671007dfdb592580b61f960d39</title>
<path fill="none" stroke="black" d="M673.97,-287.98C679.29,-277.89 685.29,-264.64 688.02,-252 692.9,-229.41 695.69,-221.8 688.02,-200 677.42,-169.88 667.27,-164.77 643.02,-144 586.14,-95.28 507.56,-55.54 462.24,-34.74"/>
<polygon fill="black" stroke="black" points="463.64,-31.53 453.09,-30.59 460.75,-37.91 463.64,-31.53"/>
<g id="a_edge14&#45;headlabel"><a xlink:href="dir_000159_000298.html" target="_top" xlink:title="6">
<text text-anchor="middle" x="468.09" y="-27.93" font-family="Helvetica,sans-Serif" font-size="10.00">6</text>
</a>
</g>
</g>
<!-- dir_ca4d1f3bc4cd42ba07a57ca86d19a1d6&#45;&gt;dir_cab9f8330899b1cc9d753b1d9c5c5a3e -->
<g id="edge12" class="edge">
<title>dir_ca4d1f3bc4cd42ba07a57ca86d19a1d6&#45;&gt;dir_cab9f8330899b1cc9d753b1d9c5c5a3e</title>
<path fill="none" stroke="black" d="M650.42,-287.7C643.9,-279.39 635.95,-269.28 628.77,-260.14"/>
<polygon fill="black" stroke="black" points="631.39,-257.81 622.46,-252.1 625.88,-262.13 631.39,-257.81"/>
<g id="a_edge12&#45;headlabel"><a xlink:href="dir_000159_000054.html" target="_top" xlink:title="4">
<text text-anchor="middle" x="635.84" y="-256.38" font-family="Helvetica,sans-Serif" font-size="10.00">4</text>
</a>
</g>
</g>
</g>
</svg>
