<?xml version="1.0" encoding="UTF-8" standalone="no"?>
<!DOCTYPE svg PUBLIC "-//W3C//DTD SVG 1.1//EN"
 "http://www.w3.org/Graphics/SVG/1.1/DTD/svg11.dtd">
<!-- Generated by graphviz version 2.43.0 (0)
 -->
<!-- Title: include/mlir/Dialect/LLVMIR Pages: 1 -->
<svg width="584pt" height="141pt"
 viewBox="0.00 0.00 584.00 141.00" xmlns="http://www.w3.org/2000/svg" xmlns:xlink="http://www.w3.org/1999/xlink">
<g id="graph0" class="graph" transform="scale(1 1) rotate(0) translate(4 137)">
<title>include/mlir/Dialect/LLVMIR</title>
<g id="clust1" class="cluster">
<title>clusterdir_d07a6fac82475a065a3b2953573f00a0</title>
<g id="a_clust1"><a xlink:href="dir_d07a6fac82475a065a3b2953573f00a0.html" target="_top" xlink:title="Dialect">
<polygon fill="#edf0f7" stroke="#7f7f7f" stroke-dasharray="5,2" points="8,-8 8,-125 182,-125 182,-8 8,-8"/>
<text text-anchor="middle" x="95" y="-113" font-family="Helvetica,sans-Serif" font-size="10.00">Dialect</text>
</a>
</g>
</g>
<g id="clust2" class="cluster">
<title>clusterdir_8363a04659a248511e559fc4df76a233</title>
<g id="a_clust2"><a xlink:href="dir_8363a04659a248511e559fc4df76a233.html" target="_top">
<polygon fill="#edf0f7" stroke="#404040" stroke-width="2" points="16,-63 16,-98 174,-98 174,-63 16,-63"/>
</a>
</g>
</g>
<!-- dir_0bd00e393ad9c325f5daa3e1d463506c -->
<g id="node1" class="node">
<title>dir_0bd00e393ad9c325f5daa3e1d463506c</title>
<g id="a_node1"><a xlink:href="dir_0bd00e393ad9c325f5daa3e1d463506c.html" target="_top" xlink:title="Ptr">
<polygon fill="#a2b4d6" stroke="red" points="55,-35 25,-35 25,-16 55,-16 55,-35"/>
<text text-anchor="middle" x="40" y="-23" font-family="Helvetica,sans-Serif" font-size="10.00">Ptr</text>
</a>
</g>
</g>
<!-- dir_93cabfc07d4b6bdd370da47c980ee537 -->
<g id="node2" class="node">
<title>dir_93cabfc07d4b6bdd370da47c980ee537</title>
<g id="a_node2"><a xlink:href="dir_93cabfc07d4b6bdd370da47c980ee537.html" target="_top" xlink:title="GPU">
<polygon fill="#a2b4d6" stroke="red" points="111,-35 73,-35 73,-16 111,-16 111,-35"/>
<text text-anchor="middle" x="92" y="-23" font-family="Helvetica,sans-Serif" font-size="10.00">GPU</text>
</a>
</g>
</g>
<!-- dir_8363a04659a248511e559fc4df76a233 -->
<g id="node3" class="node">
<title>dir_8363a04659a248511e559fc4df76a233</title>
<text text-anchor="middle" x="50" y="-78" font-family="Helvetica,sans-Serif" font-size="10.00">LLVMIR</text>
</g>
<!-- dir_8363a04659a248511e559fc4df76a233&#45;&gt;dir_0bd00e393ad9c325f5daa3e1d463506c -->
<g id="edge1" class="edge">
<title>dir_8363a04659a248511e559fc4df76a233&#45;&gt;dir_0bd00e393ad9c325f5daa3e1d463506c</title>
<g id="a_edge1"><a xlink:href="dir_000278_000392.html" target="_top">
<path fill="none" stroke="#63b8ff" d="M48.35,-70.75C47.04,-63.8 45.16,-53.85 43.52,-45.13"/>
<polygon fill="#63b8ff" stroke="#63b8ff" points="46.91,-44.27 41.62,-35.09 40.04,-45.56 46.91,-44.27"/>
</a>
</g>
<g id="a_edge1&#45;headlabel"><a xlink:href="dir_000278_000392.html" target="_top" xlink:title="2">
<text text-anchor="middle" x="50.37" y="-44.77" font-family="Helvetica,sans-Serif" font-size="10.00" fill="#63b8ff">2</text>
</a>
</g>
</g>
<!-- dir_8363a04659a248511e559fc4df76a233&#45;&gt;dir_93cabfc07d4b6bdd370da47c980ee537 -->
<g id="edge4" class="edge">
<title>dir_8363a04659a248511e559fc4df76a233&#45;&gt;dir_93cabfc07d4b6bdd370da47c980ee537</title>
<g id="a_edge4"><a xlink:href="dir_000278_000144.html" target="_top">
<path fill="none" stroke="#63b8ff" d="M56.94,-70.75C62.87,-63.26 71.57,-52.28 78.82,-43.13"/>
<polygon fill="#63b8ff" stroke="#63b8ff" points="81.73,-45.1 85.19,-35.09 76.24,-40.75 81.73,-45.1"/>
</a>
</g>
<g id="a_edge4&#45;headlabel"><a xlink:href="dir_000278_000144.html" target="_top" xlink:title="1">
<text text-anchor="middle" x="81.72" y="-47.18" font-family="Helvetica,sans-Serif" font-size="10.00" fill="#63b8ff">1</text>
</a>
</g>
</g>
<!-- dir_51020c1b0909ae629a35fe1c65c620b9 -->
<g id="node5" class="node">
<title>dir_51020c1b0909ae629a35fe1c65c620b9</title>
<g id="a_node5"><a xlink:href="dir_51020c1b0909ae629a35fe1c65c620b9.html" target="_top" xlink:title="Bytecode">
<polygon fill="#edf0f7" stroke="#7f7f7f" points="252,-35 190,-35 190,-16 252,-16 252,-35"/>
<text text-anchor="middle" x="221" y="-23" font-family="Helvetica,sans-Serif" font-size="10.00">Bytecode</text>
</a>
</g>
</g>
<!-- dir_8363a04659a248511e559fc4df76a233&#45;&gt;dir_51020c1b0909ae629a35fe1c65c620b9 -->
<g id="edge2" class="edge">
<title>dir_8363a04659a248511e559fc4df76a233&#45;&gt;dir_51020c1b0909ae629a35fe1c65c620b9</title>
<g id="a_edge2"><a xlink:href="dir_000278_000072.html" target="_top">
<path fill="none" stroke="#63b8ff" d="M66.48,-70.99C72.24,-68.21 78.82,-65.27 85,-63 102.32,-56.65 146.47,-45.11 179.8,-36.7"/>
<polygon fill="#63b8ff" stroke="#63b8ff" points="180.91,-40.03 189.76,-34.2 179.21,-33.24 180.91,-40.03"/>
</a>
</g>
<g id="a_edge2&#45;headlabel"><a xlink:href="dir_000278_000072.html" target="_top" xlink:title="5">
<text text-anchor="middle" x="178.12" y="-41.16" font-family="Helvetica,sans-Serif" font-size="10.00" fill="#63b8ff">5</text>
</a>
</g>
</g>
<!-- dir_84ef7c054b4edc3447cfba80cee80f65 -->
<g id="node6" class="node">
<title>dir_84ef7c054b4edc3447cfba80cee80f65</title>
<g id="a_node6"><a xlink:href="dir_84ef7c054b4edc3447cfba80cee80f65.html" target="_top" xlink:title="IR">
<polygon fill="#edf0f7" stroke="#7f7f7f" points="299.5,-35 270.5,-35 270.5,-16 299.5,-16 299.5,-35"/>
<text text-anchor="middle" x="285" y="-23" font-family="Helvetica,sans-Serif" font-size="10.00">IR</text>
</a>
</g>
</g>
<!-- dir_8363a04659a248511e559fc4df76a233&#45;&gt;dir_84ef7c054b4edc3447cfba80cee80f65 -->
<g id="edge3" class="edge">
<title>dir_8363a04659a248511e559fc4df76a233&#45;&gt;dir_84ef7c054b4edc3447cfba80cee80f65</title>
<g id="a_edge3"><a xlink:href="dir_000278_000215.html" target="_top">
<path fill="none" stroke="#63b8ff" d="M65.65,-70.96C71.57,-68.05 78.45,-65.02 85,-63 157.73,-40.57 182.32,-53.42 260.59,-34.6"/>
<polygon fill="#63b8ff" stroke="#63b8ff" points="261.56,-37.97 270.41,-32.15 259.86,-31.18 261.56,-37.97"/>
</a>
</g>
<g id="a_edge3&#45;headlabel"><a xlink:href="dir_000278_000215.html" target="_top" xlink:title="22">
<text text-anchor="middle" x="258.76" y="-39.09" font-family="Helvetica,sans-Serif" font-size="10.00" fill="#63b8ff">22</text>
</a>
</g>
</g>
<!-- dir_cf63c3ddb21c79ef735682489f4c6a69 -->
<g id="node7" class="node">
<title>dir_cf63c3ddb21c79ef735682489f4c6a69</title>
<g id="a_node7"><a xlink:href="dir_cf63c3ddb21c79ef735682489f4c6a69.html" target="_top" xlink:title="Interfaces">
<polygon fill="#edf0f7" stroke="red" stroke-dasharray="5,2" points="382.5,-35 317.5,-35 317.5,-16 382.5,-16 382.5,-35"/>
<text text-anchor="middle" x="350" y="-23" font-family="Helvetica,sans-Serif" font-size="10.00">Interfaces</text>
</a>
</g>
</g>
<!-- dir_8363a04659a248511e559fc4df76a233&#45;&gt;dir_cf63c3ddb21c79ef735682489f4c6a69 -->
<g id="edge5" class="edge">
<title>dir_8363a04659a248511e559fc4df76a233&#45;&gt;dir_cf63c3ddb21c79ef735682489f4c6a69</title>
<g id="a_edge5"><a xlink:href="dir_000278_000170.html" target="_top">
<path fill="none" stroke="#63b8ff" d="M65.61,-70.84C71.53,-67.92 78.42,-64.91 85,-63 178.25,-35.94 208.1,-50.41 307.23,-35.14"/>
<polygon fill="#63b8ff" stroke="#63b8ff" points="308.05,-38.55 317.37,-33.51 306.94,-31.64 308.05,-38.55"/>
</a>
</g>
<g id="a_edge5&#45;headlabel"><a xlink:href="dir_000278_000170.html" target="_top" xlink:title="13">
<text text-anchor="middle" x="304.95" y="-39.42" font-family="Helvetica,sans-Serif" font-size="10.00" fill="#63b8ff">13</text>
</a>
</g>
</g>
<!-- dir_e350390f37204b20a5be47a406c54ddd -->
<g id="node8" class="node">
<title>dir_e350390f37204b20a5be47a406c54ddd</title>
<g id="a_node8"><a xlink:href="dir_e350390f37204b20a5be47a406c54ddd.html" target="_top" xlink:title="Target">
<polygon fill="#edf0f7" stroke="red" stroke-dasharray="5,2" points="447.5,-35 400.5,-35 400.5,-16 447.5,-16 447.5,-35"/>
<text text-anchor="middle" x="424" y="-23" font-family="Helvetica,sans-Serif" font-size="10.00">Target</text>
</a>
</g>
</g>
<!-- dir_8363a04659a248511e559fc4df76a233&#45;&gt;dir_e350390f37204b20a5be47a406c54ddd -->
<g id="edge6" class="edge">
<title>dir_8363a04659a248511e559fc4df76a233&#45;&gt;dir_e350390f37204b20a5be47a406c54ddd</title>
<g id="a_edge6"><a xlink:href="dir_000278_000465.html" target="_top">
<path fill="none" stroke="#63b8ff" d="M65.23,-70.9C71.22,-67.9 78.26,-64.83 85,-63 214.1,-27.86 255.17,-57.44 390.43,-34.97"/>
<polygon fill="#63b8ff" stroke="#63b8ff" points="391.07,-38.41 400.33,-33.26 389.88,-31.51 391.07,-38.41"/>
</a>
</g>
<g id="a_edge6&#45;headlabel"><a xlink:href="dir_000278_000465.html" target="_top" xlink:title="2">
<text text-anchor="middle" x="388.02" y="-39.32" font-family="Helvetica,sans-Serif" font-size="10.00" fill="#63b8ff">2</text>
</a>
</g>
</g>
<!-- dir_f61d47671007dfdb592580b61f960d39 -->
<g id="node9" class="node">
<title>dir_f61d47671007dfdb592580b61f960d39</title>
<g id="a_node9"><a xlink:href="dir_f61d47671007dfdb592580b61f960d39.html" target="_top" xlink:title="Support">
<polygon fill="#edf0f7" stroke="#7f7f7f" points="520,-35 466,-35 466,-16 520,-16 520,-35"/>
<text text-anchor="middle" x="493" y="-23" font-family="Helvetica,sans-Serif" font-size="10.00">Support</text>
</a>
</g>
</g>
<!-- dir_8363a04659a248511e559fc4df76a233&#45;&gt;dir_f61d47671007dfdb592580b61f960d39 -->
<g id="edge7" class="edge">
<title>dir_8363a04659a248511e559fc4df76a233&#45;&gt;dir_f61d47671007dfdb592580b61f960d39</title>
<g id="a_edge7"><a xlink:href="dir_000278_000460.html" target="_top">
<path fill="none" stroke="#63b8ff" d="M65.22,-70.84C71.2,-67.84 78.24,-64.78 85,-63 242.19,-21.55 291.24,-58.83 455.98,-34.87"/>
<polygon fill="#63b8ff" stroke="#63b8ff" points="456.6,-38.32 465.96,-33.36 455.55,-31.39 456.6,-38.32"/>
</a>
</g>
<g id="a_edge7&#45;headlabel"><a xlink:href="dir_000278_000460.html" target="_top" xlink:title="2">
<text text-anchor="middle" x="453.47" y="-39.16" font-family="Helvetica,sans-Serif" font-size="10.00" fill="#63b8ff">2</text>
</a>
</g>
</g>
<!-- dir_9fc76c2c0169520bd6910194e2470755 -->
<g id="node4" class="node">
<title>dir_9fc76c2c0169520bd6910194e2470755</title>
<g id="a_node4"><a xlink:href="dir_9fc76c2c0169520bd6910194e2470755.html" target="_top" xlink:title="Transforms">
<polygon fill="#a2b4d6" stroke="#404040" points="165.5,-90 94.5,-90 94.5,-71 165.5,-71 165.5,-90"/>
<text text-anchor="middle" x="130" y="-78" font-family="Helvetica,sans-Serif" font-size="10.00">Transforms</text>
</a>
</g>
</g>
<!-- dir_cab9f8330899b1cc9d753b1d9c5c5a3e -->
<g id="node10" class="node">
<title>dir_cab9f8330899b1cc9d753b1d9c5c5a3e</title>
<g id="a_node10"><a xlink:href="dir_cab9f8330899b1cc9d753b1d9c5c5a3e.html" target="_top" xlink:title="Pass">
<polygon fill="#edf0f7" stroke="#7f7f7f" points="576,-35 538,-35 538,-16 576,-16 576,-35"/>
<text text-anchor="middle" x="557" y="-23" font-family="Helvetica,sans-Serif" font-size="10.00">Pass</text>
</a>
</g>
</g>
<!-- dir_9fc76c2c0169520bd6910194e2470755&#45;&gt;dir_cab9f8330899b1cc9d753b1d9c5c5a3e -->
<g id="edge8" class="edge">
<title>dir_9fc76c2c0169520bd6910194e2470755&#45;&gt;dir_cab9f8330899b1cc9d753b1d9c5c5a3e</title>
<g id="a_edge8"><a xlink:href="dir_000536_000369.html" target="_top">
<path fill="none" stroke="#63b8ff" d="M165.57,-77.73C234.07,-73.85 389.07,-62.78 527.87,-34.86"/>
<polygon fill="#63b8ff" stroke="#63b8ff" points="528.74,-38.26 537.84,-32.82 527.34,-31.4 528.74,-38.26"/>
</a>
</g>
<g id="a_edge8&#45;headlabel"><a xlink:href="dir_000536_000369.html" target="_top" xlink:title="1">
<text text-anchor="middle" x="525.79" y="-39.26" font-family="Helvetica,sans-Serif" font-size="10.00" fill="#63b8ff">1</text>
</a>
</g>
</g>
</g>
</svg>
