<?xml version="1.0" encoding="UTF-8" standalone="no"?>
<!DOCTYPE svg PUBLIC "-//W3C//DTD SVG 1.1//EN"
 "http://www.w3.org/Graphics/SVG/1.1/DTD/svg11.dtd">
<!-- Generated by graphviz version 2.43.0 (0)
 -->
<!-- Title: include/mlir/Dialect/LLVMIR Pages: 1 -->
<svg width="450pt" height="447pt"
 viewBox="0.00 0.00 450.01 447.00" xmlns="http://www.w3.org/2000/svg" xmlns:xlink="http://www.w3.org/1999/xlink">
<g id="graph0" class="graph" transform="scale(1 1) rotate(0) translate(4 443)">
<title>include/mlir/Dialect/LLVMIR</title>
<g id="clust1" class="cluster">
<title>clusterdir_d07a6fac82475a065a3b2953573f00a0</title>
<g id="a_clust1"><a xlink:href="dir_d07a6fac82475a065a3b2953573f00a0.html" target="_top" xlink:title="Dialect">
<polygon fill="#ddddee" stroke="black" points="79.01,-280 79.01,-431 255.01,-431 255.01,-280 79.01,-280"/>
<text text-anchor="middle" x="167.01" y="-419" font-family="Helvetica,sans-Serif" font-size="10.00">Dialect</text>
</a>
</g>
</g>
<g id="clust2" class="cluster">
<title>clusterdir_8363a04659a248511e559fc4df76a233</title>
<g id="a_clust2"><a xlink:href="dir_8363a04659a248511e559fc4df76a233.html" target="_top">
<polygon fill="#eeeeff" stroke="black" points="87.01,-352 87.01,-404 247.01,-404 247.01,-352 87.01,-352"/>
</a>
</g>
</g>
<!-- dir_93cabfc07d4b6bdd370da47c980ee537 -->
<g id="node1" class="node">
<title>dir_93cabfc07d4b6bdd370da47c980ee537</title>
<g id="a_node1"><a xlink:href="dir_93cabfc07d4b6bdd370da47c980ee537.html" target="_top" xlink:title="GPU">
<polygon fill="none" stroke="red" points="152.01,-324 98.01,-324 98.01,-288 152.01,-288 152.01,-324"/>
<text text-anchor="middle" x="125.01" y="-303.5" font-family="Helvetica,sans-Serif" font-size="10.00">GPU</text>
</a>
</g>
</g>
<!-- dir_51020c1b0909ae629a35fe1c65c620b9 -->
<g id="node4" class="node">
<title>dir_51020c1b0909ae629a35fe1c65c620b9</title>
<g id="a_node4"><a xlink:href="dir_51020c1b0909ae629a35fe1c65c620b9.html" target="_top" xlink:title="Bytecode">
<polygon fill="none" stroke="black" points="76.01,-252 14.01,-252 14.01,-216 76.01,-216 76.01,-252"/>
<text text-anchor="middle" x="45.01" y="-231.5" font-family="Helvetica,sans-Serif" font-size="10.00">Bytecode</text>
</a>
</g>
</g>
<!-- dir_93cabfc07d4b6bdd370da47c980ee537&#45;&gt;dir_51020c1b0909ae629a35fe1c65c620b9 -->
<g id="edge10" class="edge">
<title>dir_93cabfc07d4b6bdd370da47c980ee537&#45;&gt;dir_51020c1b0909ae629a35fe1c65c620b9</title>
<path fill="none" stroke="black" d="M105.23,-287.7C95.26,-278.97 83,-268.24 72.15,-258.75"/>
<polygon fill="black" stroke="black" points="74.39,-256.06 64.56,-252.1 69.78,-261.32 74.39,-256.06"/>
<g id="a_edge10&#45;headlabel"><a xlink:href="dir_000023_000051.html" target="_top" xlink:title="1">
<text text-anchor="middle" x="78.96" y="-253.79" font-family="Helvetica,sans-Serif" font-size="10.00">1</text>
</a>
</g>
</g>
<!-- dir_84ef7c054b4edc3447cfba80cee80f65 -->
<g id="node5" class="node">
<title>dir_84ef7c054b4edc3447cfba80cee80f65</title>
<g id="a_node5"><a xlink:href="dir_84ef7c054b4edc3447cfba80cee80f65.html" target="_top" xlink:title="IR">
<polygon fill="none" stroke="black" points="131.01,-180 77.01,-180 77.01,-144 131.01,-144 131.01,-180"/>
<text text-anchor="middle" x="104.01" y="-159.5" font-family="Helvetica,sans-Serif" font-size="10.00">IR</text>
</a>
</g>
</g>
<!-- dir_93cabfc07d4b6bdd370da47c980ee537&#45;&gt;dir_84ef7c054b4edc3447cfba80cee80f65 -->
<g id="edge9" class="edge">
<title>dir_93cabfc07d4b6bdd370da47c980ee537&#45;&gt;dir_84ef7c054b4edc3447cfba80cee80f65</title>
<path fill="none" stroke="black" d="M122.48,-287.87C118.9,-263.67 112.32,-219.21 108.06,-190.39"/>
<polygon fill="black" stroke="black" points="111.48,-189.57 106.55,-180.19 104.55,-190.59 111.48,-189.57"/>
<g id="a_edge9&#45;headlabel"><a xlink:href="dir_000023_000047.html" target="_top" xlink:title="14">
<text text-anchor="middle" x="114.81" y="-190.21" font-family="Helvetica,sans-Serif" font-size="10.00">14</text>
</a>
</g>
</g>
<!-- dir_cf63c3ddb21c79ef735682489f4c6a69 -->
<g id="node6" class="node">
<title>dir_cf63c3ddb21c79ef735682489f4c6a69</title>
<g id="a_node6"><a xlink:href="dir_cf63c3ddb21c79ef735682489f4c6a69.html" target="_top" xlink:title="Interfaces">
<polygon fill="none" stroke="red" points="197.51,-108 132.51,-108 132.51,-72 197.51,-72 197.51,-108"/>
<text text-anchor="middle" x="165.01" y="-87.5" font-family="Helvetica,sans-Serif" font-size="10.00">Interfaces</text>
</a>
</g>
</g>
<!-- dir_93cabfc07d4b6bdd370da47c980ee537&#45;&gt;dir_cf63c3ddb21c79ef735682489f4c6a69 -->
<g id="edge11" class="edge">
<title>dir_93cabfc07d4b6bdd370da47c980ee537&#45;&gt;dir_cf63c3ddb21c79ef735682489f4c6a69</title>
<path fill="none" stroke="black" d="M128.22,-287.85C135.15,-250.75 151.59,-162.81 159.94,-118.1"/>
<polygon fill="black" stroke="black" points="163.39,-118.71 161.79,-108.23 156.51,-117.42 163.39,-118.71"/>
<g id="a_edge11&#45;headlabel"><a xlink:href="dir_000023_000285.html" target="_top" xlink:title="5">
<text text-anchor="middle" x="165.52" y="-120.26" font-family="Helvetica,sans-Serif" font-size="10.00">5</text>
</a>
</g>
</g>
<!-- dir_f61d47671007dfdb592580b61f960d39 -->
<g id="node8" class="node">
<title>dir_f61d47671007dfdb592580b61f960d39</title>
<g id="a_node8"><a xlink:href="dir_f61d47671007dfdb592580b61f960d39.html" target="_top" xlink:title="Support">
<polygon fill="none" stroke="black" points="192.01,-36 138.01,-36 138.01,0 192.01,0 192.01,-36"/>
<text text-anchor="middle" x="165.01" y="-15.5" font-family="Helvetica,sans-Serif" font-size="10.00">Support</text>
</a>
</g>
</g>
<!-- dir_93cabfc07d4b6bdd370da47c980ee537&#45;&gt;dir_f61d47671007dfdb592580b61f960d39 -->
<g id="edge13" class="edge">
<title>dir_93cabfc07d4b6bdd370da47c980ee537&#45;&gt;dir_f61d47671007dfdb592580b61f960d39</title>
<path fill="none" stroke="black" d="M97.82,-301.56C69.18,-296.32 25.46,-283.39 5.01,-252 -3.72,-238.59 1.21,-231.54 5.01,-216 22.17,-145.91 31,-124.96 80.01,-72 93.64,-57.28 112.24,-45.06 128.57,-36.08"/>
<polygon fill="black" stroke="black" points="130.66,-38.94 137.87,-31.17 127.39,-32.75 130.66,-38.94"/>
<g id="a_edge13&#45;headlabel"><a xlink:href="dir_000023_000295.html" target="_top" xlink:title="2">
<text text-anchor="middle" x="128.81" y="-40.63" font-family="Helvetica,sans-Serif" font-size="10.00">2</text>
</a>
</g>
</g>
<!-- dir_cab9f8330899b1cc9d753b1d9c5c5a3e -->
<g id="node9" class="node">
<title>dir_cab9f8330899b1cc9d753b1d9c5c5a3e</title>
<g id="a_node9"><a xlink:href="dir_cab9f8330899b1cc9d753b1d9c5c5a3e.html" target="_top" xlink:title="Pass">
<polygon fill="none" stroke="black" points="262.01,-252 208.01,-252 208.01,-216 262.01,-216 262.01,-252"/>
<text text-anchor="middle" x="235.01" y="-231.5" font-family="Helvetica,sans-Serif" font-size="10.00">Pass</text>
</a>
</g>
</g>
<!-- dir_93cabfc07d4b6bdd370da47c980ee537&#45;&gt;dir_cab9f8330899b1cc9d753b1d9c5c5a3e -->
<g id="edge12" class="edge">
<title>dir_93cabfc07d4b6bdd370da47c980ee537&#45;&gt;dir_cab9f8330899b1cc9d753b1d9c5c5a3e</title>
<path fill="none" stroke="black" d="M151.92,-287.88C166.17,-278.81 183.86,-267.55 199.25,-257.76"/>
<polygon fill="black" stroke="black" points="201.44,-260.51 208,-252.19 197.68,-254.61 201.44,-260.51"/>
<g id="a_edge12&#45;headlabel"><a xlink:href="dir_000023_000054.html" target="_top" xlink:title="2">
<text text-anchor="middle" x="199.93" y="-262.34" font-family="Helvetica,sans-Serif" font-size="10.00">2</text>
</a>
</g>
</g>
<!-- dir_8363a04659a248511e559fc4df76a233 -->
<g id="node2" class="node">
<title>dir_8363a04659a248511e559fc4df76a233</title>
<text text-anchor="middle" x="212.01" y="-375.5" font-family="Helvetica,sans-Serif" font-size="10.00">LLVMIR</text>
</g>
<!-- dir_8363a04659a248511e559fc4df76a233&#45;&gt;dir_93cabfc07d4b6bdd370da47c980ee537 -->
<g id="edge16" class="edge">
<title>dir_8363a04659a248511e559fc4df76a233&#45;&gt;dir_93cabfc07d4b6bdd370da47c980ee537</title>
<path fill="none" stroke="black" d="M190.5,-359.7C179.55,-350.88 166.06,-340.03 154.19,-330.47"/>
<polygon fill="black" stroke="black" points="156.25,-327.65 146.27,-324.1 151.87,-333.1 156.25,-327.65"/>
<g id="a_edge16&#45;headlabel"><a xlink:href="dir_000126_000023.html" target="_top" xlink:title="1">
<text text-anchor="middle" x="160.83" y="-325.19" font-family="Helvetica,sans-Serif" font-size="10.00">1</text>
</a>
</g>
</g>
<!-- dir_8363a04659a248511e559fc4df76a233&#45;&gt;dir_51020c1b0909ae629a35fe1c65c620b9 -->
<g id="edge14" class="edge">
<title>dir_8363a04659a248511e559fc4df76a233&#45;&gt;dir_51020c1b0909ae629a35fe1c65c620b9</title>
<path fill="none" stroke="black" d="M189.86,-359.91C185.43,-356.99 180.69,-354.2 176.01,-352 133.84,-332.21 108.84,-356.03 75.01,-324 58.05,-307.94 50.68,-281.99 47.47,-262.24"/>
<polygon fill="black" stroke="black" points="50.93,-261.72 46.12,-252.29 44,-262.67 50.93,-261.72"/>
<g id="a_edge14&#45;headlabel"><a xlink:href="dir_000126_000051.html" target="_top" xlink:title="5">
<text text-anchor="middle" x="54.23" y="-262.4" font-family="Helvetica,sans-Serif" font-size="10.00">5</text>
</a>
</g>
</g>
<!-- dir_8363a04659a248511e559fc4df76a233&#45;&gt;dir_84ef7c054b4edc3447cfba80cee80f65 -->
<g id="edge15" class="edge">
<title>dir_8363a04659a248511e559fc4df76a233&#45;&gt;dir_84ef7c054b4edc3447cfba80cee80f65</title>
<path fill="none" stroke="black" d="M204.1,-359.72C195.11,-340.23 179.89,-307.65 166.01,-280 150.24,-248.58 131.19,-212.94 118.4,-189.34"/>
<polygon fill="black" stroke="black" points="121.35,-187.43 113.5,-180.32 115.2,-190.78 121.35,-187.43"/>
<g id="a_edge15&#45;headlabel"><a xlink:href="dir_000126_000047.html" target="_top" xlink:title="22">
<text text-anchor="middle" x="125.56" y="-186.74" font-family="Helvetica,sans-Serif" font-size="10.00">22</text>
</a>
</g>
</g>
<!-- dir_8363a04659a248511e559fc4df76a233&#45;&gt;dir_cf63c3ddb21c79ef735682489f4c6a69 -->
<g id="edge17" class="edge">
<title>dir_8363a04659a248511e559fc4df76a233&#45;&gt;dir_cf63c3ddb21c79ef735682489f4c6a69</title>
<path fill="none" stroke="black" d="M239.14,-372.87C266.39,-367.12 307,-353.81 326.01,-324 336.53,-307.51 328.4,-299.41 326.01,-280 317.98,-214.78 315.69,-189.22 268.01,-144 250.63,-127.51 227.12,-114.89 206.95,-106.11"/>
<polygon fill="black" stroke="black" points="208.23,-102.85 197.65,-102.23 205.53,-109.31 208.23,-102.85"/>
<g id="a_edge17&#45;headlabel"><a xlink:href="dir_000126_000285.html" target="_top" xlink:title="13">
<text text-anchor="middle" x="212.64" y="-99.12" font-family="Helvetica,sans-Serif" font-size="10.00">13</text>
</a>
</g>
</g>
<!-- dir_e350390f37204b20a5be47a406c54ddd -->
<g id="node7" class="node">
<title>dir_e350390f37204b20a5be47a406c54ddd</title>
<g id="a_node7"><a xlink:href="dir_e350390f37204b20a5be47a406c54ddd.html" target="_top" xlink:title="Target">
<polygon fill="none" stroke="red" points="317.01,-324 263.01,-324 263.01,-288 317.01,-288 317.01,-324"/>
<text text-anchor="middle" x="290.01" y="-303.5" font-family="Helvetica,sans-Serif" font-size="10.00">Target</text>
</a>
</g>
</g>
<!-- dir_8363a04659a248511e559fc4df76a233&#45;&gt;dir_e350390f37204b20a5be47a406c54ddd -->
<g id="edge18" class="edge">
<title>dir_8363a04659a248511e559fc4df76a233&#45;&gt;dir_e350390f37204b20a5be47a406c54ddd</title>
<path fill="none" stroke="black" d="M231.29,-359.7C240.93,-351.05 252.74,-340.45 263.24,-331.03"/>
<polygon fill="black" stroke="black" points="265.85,-333.39 270.95,-324.1 261.17,-328.18 265.85,-333.39"/>
<g id="a_edge18&#45;headlabel"><a xlink:href="dir_000126_000036.html" target="_top" xlink:title="2">
<text text-anchor="middle" x="265.07" y="-335.4" font-family="Helvetica,sans-Serif" font-size="10.00">2</text>
</a>
</g>
</g>
<!-- dir_8363a04659a248511e559fc4df76a233&#45;&gt;dir_f61d47671007dfdb592580b61f960d39 -->
<g id="edge19" class="edge">
<title>dir_8363a04659a248511e559fc4df76a233&#45;&gt;dir_f61d47671007dfdb592580b61f960d39</title>
<path fill="none" stroke="black" d="M239.3,-373.21C300.22,-363.07 442.01,-329.32 442.01,-235 442.01,-235 442.01,-235 442.01,-161 442.01,-54.42 277.6,-27.78 202.11,-21.16"/>
<polygon fill="black" stroke="black" points="202.32,-17.67 192.07,-20.36 201.76,-24.65 202.32,-17.67"/>
<g id="a_edge19&#45;headlabel"><a xlink:href="dir_000126_000295.html" target="_top" xlink:title="2">
<text text-anchor="middle" x="206.13" y="-12.63" font-family="Helvetica,sans-Serif" font-size="10.00">2</text>
</a>
</g>
</g>
<!-- dir_9fc76c2c0169520bd6910194e2470755 -->
<g id="node3" class="node">
<title>dir_9fc76c2c0169520bd6910194e2470755</title>
<g id="a_node3"><a xlink:href="dir_9fc76c2c0169520bd6910194e2470755.html" target="_top" xlink:title="Transforms">
<polygon fill="white" stroke="black" points="166.51,-396 95.51,-396 95.51,-360 166.51,-360 166.51,-396"/>
<text text-anchor="middle" x="131.01" y="-375.5" font-family="Helvetica,sans-Serif" font-size="10.00">Transforms</text>
</a>
</g>
</g>
<!-- dir_9fc76c2c0169520bd6910194e2470755&#45;&gt;dir_cab9f8330899b1cc9d753b1d9c5c5a3e -->
<g id="edge22" class="edge">
<title>dir_9fc76c2c0169520bd6910194e2470755&#45;&gt;dir_cab9f8330899b1cc9d753b1d9c5c5a3e</title>
<path fill="none" stroke="black" d="M162.04,-359.86C181.91,-348.3 205.2,-333.49 212.01,-324 224.98,-305.92 230.64,-281.14 233.11,-262.31"/>
<polygon fill="black" stroke="black" points="236.6,-262.6 234.21,-252.28 229.64,-261.85 236.6,-262.6"/>
<g id="a_edge22&#45;headlabel"><a xlink:href="dir_000127_000054.html" target="_top" xlink:title="1">
<text text-anchor="middle" x="239.03" y="-263.98" font-family="Helvetica,sans-Serif" font-size="10.00">1</text>
</a>
</g>
</g>
<!-- dir_51020c1b0909ae629a35fe1c65c620b9&#45;&gt;dir_84ef7c054b4edc3447cfba80cee80f65 -->
<g id="edge20" class="edge">
<title>dir_51020c1b0909ae629a35fe1c65c620b9&#45;&gt;dir_84ef7c054b4edc3447cfba80cee80f65</title>
<path fill="none" stroke="black" d="M53.68,-215.7C59.95,-207.22 68.49,-196.86 76.81,-187.58"/>
<polygon fill="black" stroke="black" points="79.5,-189.83 83.7,-180.1 74.35,-185.09 79.5,-189.83"/>
<g id="a_edge20&#45;headlabel"><a xlink:href="dir_000051_000047.html" target="_top" xlink:title="9">
<text text-anchor="middle" x="79.15" y="-191.9" font-family="Helvetica,sans-Serif" font-size="10.00">9</text>
</a>
</g>
</g>
<!-- dir_51020c1b0909ae629a35fe1c65c620b9&#45;&gt;dir_f61d47671007dfdb592580b61f960d39 -->
<g id="edge21" class="edge">
<title>dir_51020c1b0909ae629a35fe1c65c620b9&#45;&gt;dir_f61d47671007dfdb592580b61f960d39</title>
<path fill="none" stroke="black" d="M48.09,-215.86C51.68,-197.63 58.36,-168.16 68.01,-144 81.59,-110 85.44,-100.82 108.01,-72 116.08,-61.69 126.21,-51.6 135.68,-43.03"/>
<polygon fill="black" stroke="black" points="138.22,-45.45 143.42,-36.22 133.6,-40.2 138.22,-45.45"/>
<g id="a_edge21&#45;headlabel"><a xlink:href="dir_000051_000295.html" target="_top" xlink:title="2">
<text text-anchor="middle" x="137.4" y="-47.46" font-family="Helvetica,sans-Serif" font-size="10.00">2</text>
</a>
</g>
</g>
<!-- dir_84ef7c054b4edc3447cfba80cee80f65&#45;&gt;dir_51020c1b0909ae629a35fe1c65c620b9 -->
<g id="edge1" class="edge">
<title>dir_84ef7c054b4edc3447cfba80cee80f65&#45;&gt;dir_51020c1b0909ae629a35fe1c65c620b9</title>
<path fill="none" stroke="black" d="M95.49,-180.1C89.25,-188.55 80.73,-198.9 72.4,-208.2"/>
<polygon fill="black" stroke="black" points="69.7,-205.97 65.51,-215.7 74.85,-210.7 69.7,-205.97"/>
<g id="a_edge1&#45;headlabel"><a xlink:href="dir_000047_000051.html" target="_top" xlink:title="2">
<text text-anchor="middle" x="70.04" y="-198.9" font-family="Helvetica,sans-Serif" font-size="10.00">2</text>
</a>
</g>
</g>
<!-- dir_84ef7c054b4edc3447cfba80cee80f65&#45;&gt;dir_cf63c3ddb21c79ef735682489f4c6a69 -->
<g id="edge2" class="edge">
<title>dir_84ef7c054b4edc3447cfba80cee80f65&#45;&gt;dir_cf63c3ddb21c79ef735682489f4c6a69</title>
<path fill="none" stroke="black" d="M113.17,-143.7C119.69,-135.22 128.52,-124.86 137.11,-115.58"/>
<polygon fill="black" stroke="black" points="139.86,-117.77 144.21,-108.1 134.79,-112.95 139.86,-117.77"/>
<g id="a_edge2&#45;headlabel"><a xlink:href="dir_000047_000285.html" target="_top" xlink:title="3">
<text text-anchor="middle" x="139.45" y="-119.83" font-family="Helvetica,sans-Serif" font-size="10.00">3</text>
</a>
</g>
</g>
<!-- dir_84ef7c054b4edc3447cfba80cee80f65&#45;&gt;dir_f61d47671007dfdb592580b61f960d39 -->
<g id="edge3" class="edge">
<title>dir_84ef7c054b4edc3447cfba80cee80f65&#45;&gt;dir_f61d47671007dfdb592580b61f960d39</title>
<path fill="none" stroke="black" d="M105.33,-143.86C107.28,-125.37 111.97,-95.44 123.01,-72 127.66,-62.12 134.48,-52.43 141.27,-44.08"/>
<polygon fill="black" stroke="black" points="144.14,-46.11 147.97,-36.24 138.82,-41.57 144.14,-46.11"/>
<g id="a_edge3&#45;headlabel"><a xlink:href="dir_000047_000295.html" target="_top" xlink:title="23">
<text text-anchor="middle" x="143.96" y="-48.19" font-family="Helvetica,sans-Serif" font-size="10.00">23</text>
</a>
</g>
</g>
<!-- dir_cf63c3ddb21c79ef735682489f4c6a69&#45;&gt;dir_84ef7c054b4edc3447cfba80cee80f65 -->
<g id="edge23" class="edge">
<title>dir_cf63c3ddb21c79ef735682489f4c6a69&#45;&gt;dir_84ef7c054b4edc3447cfba80cee80f65</title>
<path fill="none" stroke="black" d="M156,-108.1C149.52,-116.55 140.7,-126.9 132.11,-136.2"/>
<polygon fill="black" stroke="black" points="129.34,-134.03 125,-143.7 134.42,-138.85 129.34,-134.03"/>
<g id="a_edge23&#45;headlabel"><a xlink:href="dir_000285_000047.html" target="_top" xlink:title="54">
<text text-anchor="middle" x="129.76" y="-126.97" font-family="Helvetica,sans-Serif" font-size="10.00">54</text>
</a>
</g>
</g>
<!-- dir_cf63c3ddb21c79ef735682489f4c6a69&#45;&gt;dir_f61d47671007dfdb592580b61f960d39 -->
<g id="edge24" class="edge">
<title>dir_cf63c3ddb21c79ef735682489f4c6a69&#45;&gt;dir_f61d47671007dfdb592580b61f960d39</title>
<path fill="none" stroke="black" d="M165.01,-71.7C165.01,-63.98 165.01,-54.71 165.01,-46.11"/>
<polygon fill="black" stroke="black" points="168.51,-46.1 165.01,-36.1 161.51,-46.1 168.51,-46.1"/>
<g id="a_edge24&#45;headlabel"><a xlink:href="dir_000285_000295.html" target="_top" xlink:title="2">
<text text-anchor="middle" x="171.35" y="-47.2" font-family="Helvetica,sans-Serif" font-size="10.00">2</text>
</a>
</g>
</g>
<!-- dir_e350390f37204b20a5be47a406c54ddd&#45;&gt;dir_93cabfc07d4b6bdd370da47c980ee537 -->
<g id="edge5" class="edge">
<title>dir_e350390f37204b20a5be47a406c54ddd&#45;&gt;dir_93cabfc07d4b6bdd370da47c980ee537</title>
<path fill="none" stroke="black" d="M262.8,-306C229.35,-306 195.91,-306 162.46,-306"/>
<polygon fill="black" stroke="black" points="162.08,-302.5 152.08,-306 162.08,-309.5 162.08,-302.5"/>
<g id="a_edge5&#45;headlabel"><a xlink:href="dir_000036_000023.html" target="_top" xlink:title="5">
<text text-anchor="middle" x="165.68" y="-297.16" font-family="Helvetica,sans-Serif" font-size="10.00">5</text>
</a>
</g>
</g>
<!-- dir_e350390f37204b20a5be47a406c54ddd&#45;&gt;dir_84ef7c054b4edc3447cfba80cee80f65 -->
<g id="edge4" class="edge">
<title>dir_e350390f37204b20a5be47a406c54ddd&#45;&gt;dir_84ef7c054b4edc3447cfba80cee80f65</title>
<path fill="none" stroke="black" d="M291.14,-287.65C291.46,-267.84 288.85,-235.66 271.01,-216 237.85,-179.45 179.64,-167.94 141.46,-164.41"/>
<polygon fill="black" stroke="black" points="141.5,-160.91 131.25,-163.62 140.95,-167.88 141.5,-160.91"/>
<g id="a_edge4&#45;headlabel"><a xlink:href="dir_000036_000047.html" target="_top" xlink:title="24">
<text text-anchor="middle" x="145.3" y="-155.86" font-family="Helvetica,sans-Serif" font-size="10.00">24</text>
</a>
</g>
</g>
<!-- dir_e350390f37204b20a5be47a406c54ddd&#45;&gt;dir_cf63c3ddb21c79ef735682489f4c6a69 -->
<g id="edge6" class="edge">
<title>dir_e350390f37204b20a5be47a406c54ddd&#45;&gt;dir_cf63c3ddb21c79ef735682489f4c6a69</title>
<path fill="none" stroke="black" d="M294.71,-287.83C298.85,-269.32 302.85,-239.37 293.01,-216 274.5,-172.04 232.14,-135.84 201.2,-113.91"/>
<polygon fill="black" stroke="black" points="203.02,-110.92 192.81,-108.11 199.04,-116.67 203.02,-110.92"/>
<g id="a_edge6&#45;headlabel"><a xlink:href="dir_000036_000285.html" target="_top" xlink:title="1">
<text text-anchor="middle" x="207.59" y="-108.12" font-family="Helvetica,sans-Serif" font-size="10.00">1</text>
</a>
</g>
</g>
<!-- dir_e350390f37204b20a5be47a406c54ddd&#45;&gt;dir_f61d47671007dfdb592580b61f960d39 -->
<g id="edge7" class="edge">
<title>dir_e350390f37204b20a5be47a406c54ddd&#45;&gt;dir_f61d47671007dfdb592580b61f960d39</title>
<path fill="none" stroke="black" d="M298.8,-287.84C306.87,-269.84 316.64,-240.78 310.01,-216 290.92,-144.64 274.21,-128.82 227.01,-72 218.23,-61.43 207.19,-51.25 196.88,-42.7"/>
<polygon fill="black" stroke="black" points="198.8,-39.75 188.81,-36.2 194.41,-45.2 198.8,-39.75"/>
<g id="a_edge7&#45;headlabel"><a xlink:href="dir_000036_000295.html" target="_top" xlink:title="8">
<text text-anchor="middle" x="203.38" y="-37.29" font-family="Helvetica,sans-Serif" font-size="10.00">8</text>
</a>
</g>
</g>
<!-- dir_e350390f37204b20a5be47a406c54ddd&#45;&gt;dir_cab9f8330899b1cc9d753b1d9c5c5a3e -->
<g id="edge8" class="edge">
<title>dir_e350390f37204b20a5be47a406c54ddd&#45;&gt;dir_cab9f8330899b1cc9d753b1d9c5c5a3e</title>
<path fill="none" stroke="black" d="M276.41,-287.7C269.89,-279.39 261.94,-269.28 254.76,-260.14"/>
<polygon fill="black" stroke="black" points="257.38,-257.81 248.45,-252.1 251.88,-262.13 257.38,-257.81"/>
<g id="a_edge8&#45;headlabel"><a xlink:href="dir_000036_000054.html" target="_top" xlink:title="1">
<text text-anchor="middle" x="261.83" y="-256.38" font-family="Helvetica,sans-Serif" font-size="10.00">1</text>
</a>
</g>
</g>
<!-- dir_cab9f8330899b1cc9d753b1d9c5c5a3e&#45;&gt;dir_84ef7c054b4edc3447cfba80cee80f65 -->
<g id="edge25" class="edge">
<title>dir_cab9f8330899b1cc9d753b1d9c5c5a3e&#45;&gt;dir_84ef7c054b4edc3447cfba80cee80f65</title>
<path fill="none" stroke="black" d="M207.87,-218.5C188.19,-207.98 161.39,-193.66 139.95,-182.2"/>
<polygon fill="black" stroke="black" points="141.59,-179.11 131.12,-177.49 138.29,-185.29 141.59,-179.11"/>
<g id="a_edge25&#45;headlabel"><a xlink:href="dir_000054_000047.html" target="_top" xlink:title="4">
<text text-anchor="middle" x="146.1" y="-175.8" font-family="Helvetica,sans-Serif" font-size="10.00">4</text>
</a>
</g>
</g>
<!-- dir_cab9f8330899b1cc9d753b1d9c5c5a3e&#45;&gt;dir_f61d47671007dfdb592580b61f960d39 -->
<g id="edge26" class="edge">
<title>dir_cab9f8330899b1cc9d753b1d9c5c5a3e&#45;&gt;dir_f61d47671007dfdb592580b61f960d39</title>
<path fill="none" stroke="black" d="M234.76,-215.74C233.75,-185.37 228.93,-120.94 207.01,-72 202.55,-62.04 195.78,-52.32 188.98,-43.98"/>
<polygon fill="black" stroke="black" points="191.42,-41.45 182.25,-36.14 186.11,-46.01 191.42,-41.45"/>
<g id="a_edge26&#45;headlabel"><a xlink:href="dir_000054_000295.html" target="_top" xlink:title="6">
<text text-anchor="middle" x="195.92" y="-39.82" font-family="Helvetica,sans-Serif" font-size="10.00">6</text>
</a>
</g>
</g>
</g>
</svg>
