<?xml version="1.0" encoding="UTF-8" standalone="no"?>
<!DOCTYPE svg PUBLIC "-//W3C//DTD SVG 1.1//EN"
 "http://www.w3.org/Graphics/SVG/1.1/DTD/svg11.dtd">
<!-- Generated by graphviz version 2.43.0 (0)
 -->
<!-- Title: include/mlir/Conversion/SCFToGPU Pages: 1 -->
<svg width="162pt" height="223pt"
 viewBox="0.00 0.00 162.00 223.00" xmlns="http://www.w3.org/2000/svg" xmlns:xlink="http://www.w3.org/1999/xlink">
<g id="graph0" class="graph" transform="scale(1 1) rotate(0) translate(4 219)">
<title>include/mlir/Conversion/SCFToGPU</title>
<g id="clust1" class="cluster">
<title>clusterdir_37f3372f1e76d74ffd54613af9306e43</title>
<g id="a_clust1"><a xlink:href="dir_37f3372f1e76d74ffd54613af9306e43.html" target="_top" xlink:title="Conversion">
<polygon fill="#ddddee" stroke="black" points="64,-136 64,-207 146,-207 146,-136 64,-136"/>
<text text-anchor="middle" x="105" y="-195" font-family="Helvetica,sans-Serif" font-size="10.00">Conversion</text>
</a>
</g>
</g>
<!-- dir_a27d3a62a992b3fbcff2720c9620db5f -->
<g id="node1" class="node">
<title>dir_a27d3a62a992b3fbcff2720c9620db5f</title>
<g id="a_node1"><a xlink:href="dir_a27d3a62a992b3fbcff2720c9620db5f.html" target="_top" xlink:title="SCFToGPU">
<polygon fill="#eeeeff" stroke="black" points="138,-180 72,-180 72,-144 138,-144 138,-180"/>
<text text-anchor="middle" x="105" y="-159.5" font-family="Helvetica,sans-Serif" font-size="10.00">SCFToGPU</text>
</a>
</g>
</g>
<!-- dir_cab9f8330899b1cc9d753b1d9c5c5a3e -->
<g id="node2" class="node">
<title>dir_cab9f8330899b1cc9d753b1d9c5c5a3e</title>
<g id="a_node2"><a xlink:href="dir_cab9f8330899b1cc9d753b1d9c5c5a3e.html" target="_top" xlink:title="Pass">
<polygon fill="none" stroke="black" points="54,-108 0,-108 0,-72 54,-72 54,-108"/>
<text text-anchor="middle" x="27" y="-87.5" font-family="Helvetica,sans-Serif" font-size="10.00">Pass</text>
</a>
</g>
</g>
<!-- dir_a27d3a62a992b3fbcff2720c9620db5f&#45;&gt;dir_cab9f8330899b1cc9d753b1d9c5c5a3e -->
<g id="edge3" class="edge">
<title>dir_a27d3a62a992b3fbcff2720c9620db5f&#45;&gt;dir_cab9f8330899b1cc9d753b1d9c5c5a3e</title>
<path fill="none" stroke="black" d="M85.72,-143.7C76.08,-135.05 64.27,-124.45 53.77,-115.03"/>
<polygon fill="black" stroke="black" points="55.84,-112.18 46.06,-108.1 51.16,-117.39 55.84,-112.18"/>
<g id="a_edge3&#45;headlabel"><a xlink:href="dir_000161_000053.html" target="_top" xlink:title="1">
<text text-anchor="middle" x="60.41" y="-109.97" font-family="Helvetica,sans-Serif" font-size="10.00">1</text>
</a>
</g>
</g>
<!-- dir_cf63c3ddb21c79ef735682489f4c6a69 -->
<g id="node3" class="node">
<title>dir_cf63c3ddb21c79ef735682489f4c6a69</title>
<g id="a_node3"><a xlink:href="dir_cf63c3ddb21c79ef735682489f4c6a69.html" target="_top" xlink:title="Interfaces">
<polygon fill="none" stroke="red" points="137.5,-108 72.5,-108 72.5,-72 137.5,-72 137.5,-108"/>
<text text-anchor="middle" x="105" y="-87.5" font-family="Helvetica,sans-Serif" font-size="10.00">Interfaces</text>
</a>
</g>
</g>
<!-- dir_a27d3a62a992b3fbcff2720c9620db5f&#45;&gt;dir_cf63c3ddb21c79ef735682489f4c6a69 -->
<g id="edge4" class="edge">
<title>dir_a27d3a62a992b3fbcff2720c9620db5f&#45;&gt;dir_cf63c3ddb21c79ef735682489f4c6a69</title>
<path fill="none" stroke="black" d="M105,-143.7C105,-135.98 105,-126.71 105,-118.11"/>
<polygon fill="black" stroke="black" points="108.5,-118.1 105,-108.1 101.5,-118.1 108.5,-118.1"/>
<g id="a_edge4&#45;headlabel"><a xlink:href="dir_000161_000279.html" target="_top" xlink:title="1">
<text text-anchor="middle" x="111.34" y="-119.2" font-family="Helvetica,sans-Serif" font-size="10.00">1</text>
</a>
</g>
</g>
<!-- dir_f61d47671007dfdb592580b61f960d39 -->
<g id="node4" class="node">
<title>dir_f61d47671007dfdb592580b61f960d39</title>
<g id="a_node4"><a xlink:href="dir_f61d47671007dfdb592580b61f960d39.html" target="_top" xlink:title="Support">
<polygon fill="none" stroke="black" points="132,-36 78,-36 78,0 132,0 132,-36"/>
<text text-anchor="middle" x="105" y="-15.5" font-family="Helvetica,sans-Serif" font-size="10.00">Support</text>
</a>
</g>
</g>
<!-- dir_a27d3a62a992b3fbcff2720c9620db5f&#45;&gt;dir_f61d47671007dfdb592580b61f960d39 -->
<g id="edge5" class="edge">
<title>dir_a27d3a62a992b3fbcff2720c9620db5f&#45;&gt;dir_f61d47671007dfdb592580b61f960d39</title>
<path fill="none" stroke="black" d="M123.6,-143.76C132.53,-134.2 142.29,-121.53 147,-108 152.26,-92.89 152.26,-87.11 147,-72 143.47,-61.86 137.09,-52.19 130.36,-43.96"/>
<polygon fill="black" stroke="black" points="132.83,-41.46 123.6,-36.24 127.56,-46.07 132.83,-41.46"/>
<g id="a_edge5&#45;headlabel"><a xlink:href="dir_000161_000288.html" target="_top" xlink:title="2">
<text text-anchor="middle" x="137.33" y="-39.79" font-family="Helvetica,sans-Serif" font-size="10.00">2</text>
</a>
</g>
</g>
<!-- dir_cab9f8330899b1cc9d753b1d9c5c5a3e&#45;&gt;dir_f61d47671007dfdb592580b61f960d39 -->
<g id="edge2" class="edge">
<title>dir_cab9f8330899b1cc9d753b1d9c5c5a3e&#45;&gt;dir_f61d47671007dfdb592580b61f960d39</title>
<path fill="none" stroke="black" d="M46.28,-71.7C55.92,-63.05 67.73,-52.45 78.23,-43.03"/>
<polygon fill="black" stroke="black" points="80.84,-45.39 85.94,-36.1 76.16,-40.18 80.84,-45.39"/>
<g id="a_edge2&#45;headlabel"><a xlink:href="dir_000053_000288.html" target="_top" xlink:title="6">
<text text-anchor="middle" x="80.06" y="-47.4" font-family="Helvetica,sans-Serif" font-size="10.00">6</text>
</a>
</g>
</g>
<!-- dir_cf63c3ddb21c79ef735682489f4c6a69&#45;&gt;dir_f61d47671007dfdb592580b61f960d39 -->
<g id="edge1" class="edge">
<title>dir_cf63c3ddb21c79ef735682489f4c6a69&#45;&gt;dir_f61d47671007dfdb592580b61f960d39</title>
<path fill="none" stroke="black" d="M105,-71.7C105,-63.98 105,-54.71 105,-46.11"/>
<polygon fill="black" stroke="black" points="108.5,-46.1 105,-36.1 101.5,-46.1 108.5,-46.1"/>
<g id="a_edge1&#45;headlabel"><a xlink:href="dir_000279_000288.html" target="_top" xlink:title="2">
<text text-anchor="middle" x="111.34" y="-47.2" font-family="Helvetica,sans-Serif" font-size="10.00">2</text>
</a>
</g>
</g>
</g>
</svg>
