<?xml version="1.0" encoding="UTF-8" standalone="no"?>
<!DOCTYPE svg PUBLIC "-//W3C//DTD SVG 1.1//EN"
 "http://www.w3.org/Graphics/SVG/1.1/DTD/svg11.dtd">
<!-- Generated by graphviz version 2.43.0 (0)
 -->
<!-- Title: include/mlir/Dialect/XeGPU Pages: 1 -->
<svg width="634pt" height="447pt"
 viewBox="0.00 0.00 633.70 447.00" xmlns="http://www.w3.org/2000/svg" xmlns:xlink="http://www.w3.org/1999/xlink">
<g id="graph0" class="graph" transform="scale(1 1) rotate(0) translate(4 443)">
<title>include/mlir/Dialect/XeGPU</title>
<g id="clust1" class="cluster">
<title>clusterdir_d07a6fac82475a065a3b2953573f00a0</title>
<g id="a_clust1"><a xlink:href="dir_d07a6fac82475a065a3b2953573f00a0.html" target="_top" xlink:title="Dialect">
<polygon fill="#ddddee" stroke="black" points="8,-136 8,-431 328,-431 328,-136 8,-136"/>
<text text-anchor="middle" x="168" y="-419" font-family="Helvetica,sans-Serif" font-size="10.00">Dialect</text>
</a>
</g>
</g>
<g id="clust2" class="cluster">
<title>clusterdir_5af423df3a2327edcd5f90b3d7e3f636</title>
<g id="a_clust2"><a xlink:href="dir_5af423df3a2327edcd5f90b3d7e3f636.html" target="_top">
<polygon fill="#eeeeff" stroke="black" points="16,-352 16,-404 320,-404 320,-352 16,-352"/>
</a>
</g>
</g>
<!-- dir_687ef06ec02158f82af83f8ed0273ebe -->
<g id="node1" class="node">
<title>dir_687ef06ec02158f82af83f8ed0273ebe</title>
<g id="a_node1"><a xlink:href="dir_687ef06ec02158f82af83f8ed0273ebe.html" target="_top" xlink:title="Arith">
<polygon fill="none" stroke="red" points="242,-180 188,-180 188,-144 242,-144 242,-180"/>
<text text-anchor="middle" x="215" y="-159.5" font-family="Helvetica,sans-Serif" font-size="10.00">Arith</text>
</a>
</g>
</g>
<!-- dir_51020c1b0909ae629a35fe1c65c620b9 -->
<g id="node8" class="node">
<title>dir_51020c1b0909ae629a35fe1c65c620b9</title>
<g id="a_node8"><a xlink:href="dir_51020c1b0909ae629a35fe1c65c620b9.html" target="_top" xlink:title="Bytecode">
<polygon fill="none" stroke="black" points="398,-180 336,-180 336,-144 398,-144 398,-180"/>
<text text-anchor="middle" x="367" y="-159.5" font-family="Helvetica,sans-Serif" font-size="10.00">Bytecode</text>
</a>
</g>
</g>
<!-- dir_687ef06ec02158f82af83f8ed0273ebe&#45;&gt;dir_51020c1b0909ae629a35fe1c65c620b9 -->
<g id="edge4" class="edge">
<title>dir_687ef06ec02158f82af83f8ed0273ebe&#45;&gt;dir_51020c1b0909ae629a35fe1c65c620b9</title>
<path fill="none" stroke="black" d="M242.02,-162C269.84,-162 297.67,-162 325.5,-162"/>
<polygon fill="black" stroke="black" points="325.75,-165.5 335.75,-162 325.75,-158.5 325.75,-165.5"/>
<g id="a_edge4&#45;headlabel"><a xlink:href="dir_000017_000051.html" target="_top" xlink:title="1">
<text text-anchor="middle" x="322.16" y="-165.84" font-family="Helvetica,sans-Serif" font-size="10.00">1</text>
</a>
</g>
</g>
<!-- dir_84ef7c054b4edc3447cfba80cee80f65 -->
<g id="node9" class="node">
<title>dir_84ef7c054b4edc3447cfba80cee80f65</title>
<g id="a_node9"><a xlink:href="dir_84ef7c054b4edc3447cfba80cee80f65.html" target="_top" xlink:title="IR">
<polygon fill="none" stroke="black" points="394,-108 340,-108 340,-72 394,-72 394,-108"/>
<text text-anchor="middle" x="367" y="-87.5" font-family="Helvetica,sans-Serif" font-size="10.00">IR</text>
</a>
</g>
</g>
<!-- dir_687ef06ec02158f82af83f8ed0273ebe&#45;&gt;dir_84ef7c054b4edc3447cfba80cee80f65 -->
<g id="edge5" class="edge">
<title>dir_687ef06ec02158f82af83f8ed0273ebe&#45;&gt;dir_84ef7c054b4edc3447cfba80cee80f65</title>
<path fill="none" stroke="black" d="M241.55,-143.95C246.29,-141.16 251.23,-138.4 256,-136 280.16,-123.84 308.43,-112.42 330.39,-104.12"/>
<polygon fill="black" stroke="black" points="331.85,-107.31 340,-100.54 329.4,-100.76 331.85,-107.31"/>
<g id="a_edge5&#45;headlabel"><a xlink:href="dir_000017_000047.html" target="_top" xlink:title="6">
<text text-anchor="middle" x="329.47" y="-108.73" font-family="Helvetica,sans-Serif" font-size="10.00">6</text>
</a>
</g>
</g>
<!-- dir_cab9f8330899b1cc9d753b1d9c5c5a3e -->
<g id="node10" class="node">
<title>dir_cab9f8330899b1cc9d753b1d9c5c5a3e</title>
<g id="a_node10"><a xlink:href="dir_cab9f8330899b1cc9d753b1d9c5c5a3e.html" target="_top" xlink:title="Pass">
<polygon fill="none" stroke="black" points="470,-180 416,-180 416,-144 470,-144 470,-180"/>
<text text-anchor="middle" x="443" y="-159.5" font-family="Helvetica,sans-Serif" font-size="10.00">Pass</text>
</a>
</g>
</g>
<!-- dir_687ef06ec02158f82af83f8ed0273ebe&#45;&gt;dir_cab9f8330899b1cc9d753b1d9c5c5a3e -->
<g id="edge7" class="edge">
<title>dir_687ef06ec02158f82af83f8ed0273ebe&#45;&gt;dir_cab9f8330899b1cc9d753b1d9c5c5a3e</title>
<path fill="none" stroke="black" d="M242.31,-176.16C278.65,-193.05 344.53,-216.76 398,-198 405.14,-195.5 411.99,-191.33 418.09,-186.7"/>
<polygon fill="black" stroke="black" points="420.45,-189.29 425.92,-180.22 415.99,-183.9 420.45,-189.29"/>
<g id="a_edge7&#45;headlabel"><a xlink:href="dir_000017_000054.html" target="_top" xlink:title="1">
<text text-anchor="middle" x="419.5" y="-191.27" font-family="Helvetica,sans-Serif" font-size="10.00">1</text>
</a>
</g>
</g>
<!-- dir_cf63c3ddb21c79ef735682489f4c6a69 -->
<g id="node11" class="node">
<title>dir_cf63c3ddb21c79ef735682489f4c6a69</title>
<g id="a_node11"><a xlink:href="dir_cf63c3ddb21c79ef735682489f4c6a69.html" target="_top" xlink:title="Interfaces">
<polygon fill="none" stroke="red" points="361.5,-36 296.5,-36 296.5,0 361.5,0 361.5,-36"/>
<text text-anchor="middle" x="329" y="-15.5" font-family="Helvetica,sans-Serif" font-size="10.00">Interfaces</text>
</a>
</g>
</g>
<!-- dir_687ef06ec02158f82af83f8ed0273ebe&#45;&gt;dir_cf63c3ddb21c79ef735682489f4c6a69 -->
<g id="edge6" class="edge">
<title>dir_687ef06ec02158f82af83f8ed0273ebe&#45;&gt;dir_cf63c3ddb21c79ef735682489f4c6a69</title>
<path fill="none" stroke="black" d="M228.75,-143.87C248.69,-119.03 285.77,-72.85 308.82,-44.14"/>
<polygon fill="black" stroke="black" points="311.67,-46.18 315.2,-36.19 306.21,-41.8 311.67,-46.18"/>
<g id="a_edge6&#45;headlabel"><a xlink:href="dir_000017_000285.html" target="_top" xlink:title="7">
<text text-anchor="middle" x="311.63" y="-48.26" font-family="Helvetica,sans-Serif" font-size="10.00">7</text>
</a>
</g>
</g>
<!-- dir_bfd3493254b3df47293537524626123b -->
<g id="node2" class="node">
<title>dir_bfd3493254b3df47293537524626123b</title>
<g id="a_node2"><a xlink:href="dir_bfd3493254b3df47293537524626123b.html" target="_top" xlink:title="Vector">
<polygon fill="none" stroke="red" points="279,-324 225,-324 225,-288 279,-288 279,-324"/>
<text text-anchor="middle" x="252" y="-303.5" font-family="Helvetica,sans-Serif" font-size="10.00">Vector</text>
</a>
</g>
</g>
<!-- dir_bfd3493254b3df47293537524626123b&#45;&gt;dir_687ef06ec02158f82af83f8ed0273ebe -->
<g id="edge17" class="edge">
<title>dir_bfd3493254b3df47293537524626123b&#45;&gt;dir_687ef06ec02158f82af83f8ed0273ebe</title>
<path fill="none" stroke="black" d="M251.88,-287.91C251.35,-269.72 249.28,-240.27 242,-216 239.24,-206.8 234.92,-197.29 230.54,-188.91"/>
<polygon fill="black" stroke="black" points="233.53,-187.08 225.65,-180 227.4,-190.45 233.53,-187.08"/>
<g id="a_edge17&#45;headlabel"><a xlink:href="dir_000152_000017.html" target="_top" xlink:title="2">
<text text-anchor="middle" x="237.75" y="-186.37" font-family="Helvetica,sans-Serif" font-size="10.00">2</text>
</a>
</g>
</g>
<!-- dir_e4893b20171f621ff7a85b39656091a7 -->
<g id="node3" class="node">
<title>dir_e4893b20171f621ff7a85b39656091a7</title>
<g id="a_node3"><a xlink:href="dir_e4893b20171f621ff7a85b39656091a7.html" target="_top" xlink:title="Utils">
<polygon fill="none" stroke="black" points="233,-252 179,-252 179,-216 233,-216 233,-252"/>
<text text-anchor="middle" x="206" y="-231.5" font-family="Helvetica,sans-Serif" font-size="10.00">Utils</text>
</a>
</g>
</g>
<!-- dir_bfd3493254b3df47293537524626123b&#45;&gt;dir_e4893b20171f621ff7a85b39656091a7 -->
<g id="edge21" class="edge">
<title>dir_bfd3493254b3df47293537524626123b&#45;&gt;dir_e4893b20171f621ff7a85b39656091a7</title>
<path fill="none" stroke="black" d="M240.63,-287.7C235.28,-279.56 228.8,-269.69 222.89,-260.7"/>
<polygon fill="black" stroke="black" points="225.66,-258.54 217.24,-252.1 219.81,-262.38 225.66,-258.54"/>
<g id="a_edge21&#45;headlabel"><a xlink:href="dir_000152_000276.html" target="_top" xlink:title="1">
<text text-anchor="middle" x="230" y="-257.48" font-family="Helvetica,sans-Serif" font-size="10.00">1</text>
</a>
</g>
</g>
<!-- dir_bfd3493254b3df47293537524626123b&#45;&gt;dir_51020c1b0909ae629a35fe1c65c620b9 -->
<g id="edge16" class="edge">
<title>dir_bfd3493254b3df47293537524626123b&#45;&gt;dir_51020c1b0909ae629a35fe1c65c620b9</title>
<path fill="none" stroke="black" d="M279.32,-288.6C293.36,-279.19 309.99,-266.4 322,-252 337.61,-233.29 349.65,-208.26 357.34,-189.51"/>
<polygon fill="black" stroke="black" points="360.64,-190.67 361.05,-180.08 354.13,-188.1 360.64,-190.67"/>
<g id="a_edge16&#45;headlabel"><a xlink:href="dir_000152_000051.html" target="_top" xlink:title="1">
<text text-anchor="middle" x="361.97" y="-192.56" font-family="Helvetica,sans-Serif" font-size="10.00">1</text>
</a>
</g>
</g>
<!-- dir_bfd3493254b3df47293537524626123b&#45;&gt;dir_84ef7c054b4edc3447cfba80cee80f65 -->
<g id="edge18" class="edge">
<title>dir_bfd3493254b3df47293537524626123b&#45;&gt;dir_84ef7c054b4edc3447cfba80cee80f65</title>
<path fill="none" stroke="black" d="M257.63,-287.82C268.39,-256.25 293.8,-187.55 327,-136 331.46,-129.08 336.96,-122.16 342.44,-115.89"/>
<polygon fill="black" stroke="black" points="345.15,-118.11 349.29,-108.35 339.97,-113.4 345.15,-118.11"/>
<g id="a_edge18&#45;headlabel"><a xlink:href="dir_000152_000047.html" target="_top" xlink:title="13">
<text text-anchor="middle" x="344.84" y="-120.18" font-family="Helvetica,sans-Serif" font-size="10.00">13</text>
</a>
</g>
</g>
<!-- dir_bfd3493254b3df47293537524626123b&#45;&gt;dir_cab9f8330899b1cc9d753b1d9c5c5a3e -->
<g id="edge19" class="edge">
<title>dir_bfd3493254b3df47293537524626123b&#45;&gt;dir_cab9f8330899b1cc9d753b1d9c5c5a3e</title>
<path fill="none" stroke="black" d="M279.25,-292C298.82,-282.14 325.45,-267.65 347,-252 373.83,-232.51 401.26,-206.33 419.89,-187.41"/>
<polygon fill="black" stroke="black" points="422.6,-189.65 427.06,-180.04 417.58,-184.77 422.6,-189.65"/>
<g id="a_edge19&#45;headlabel"><a xlink:href="dir_000152_000054.html" target="_top" xlink:title="1">
<text text-anchor="middle" x="422.12" y="-191.71" font-family="Helvetica,sans-Serif" font-size="10.00">1</text>
</a>
</g>
</g>
<!-- dir_bfd3493254b3df47293537524626123b&#45;&gt;dir_cf63c3ddb21c79ef735682489f4c6a69 -->
<g id="edge20" class="edge">
<title>dir_bfd3493254b3df47293537524626123b&#45;&gt;dir_cf63c3ddb21c79ef735682489f4c6a69</title>
<path fill="none" stroke="black" d="M224.95,-295.58C205.82,-287.33 181.59,-273.29 170,-252 145.35,-206.72 160.8,-186.73 170,-136 175.42,-106.11 172.68,-93.65 194,-72 218.81,-46.8 257.03,-33.3 286.48,-26.25"/>
<polygon fill="black" stroke="black" points="287.49,-29.61 296.49,-24.01 285.97,-22.77 287.49,-29.61"/>
<g id="a_edge20&#45;headlabel"><a xlink:href="dir_000152_000285.html" target="_top" xlink:title="9">
<text text-anchor="middle" x="284.6" y="-30.66" font-family="Helvetica,sans-Serif" font-size="10.00">9</text>
</a>
</g>
</g>
<!-- dir_e4893b20171f621ff7a85b39656091a7&#45;&gt;dir_687ef06ec02158f82af83f8ed0273ebe -->
<g id="edge22" class="edge">
<title>dir_e4893b20171f621ff7a85b39656091a7&#45;&gt;dir_687ef06ec02158f82af83f8ed0273ebe</title>
<path fill="none" stroke="black" d="M208.22,-215.7C209.22,-207.98 210.41,-198.71 211.51,-190.11"/>
<polygon fill="black" stroke="black" points="215,-190.47 212.8,-180.1 208.05,-189.58 215,-190.47"/>
<g id="a_edge22&#45;headlabel"><a xlink:href="dir_000276_000017.html" target="_top" xlink:title="1">
<text text-anchor="middle" x="217.35" y="-191.9" font-family="Helvetica,sans-Serif" font-size="10.00">1</text>
</a>
</g>
</g>
<!-- dir_e4893b20171f621ff7a85b39656091a7&#45;&gt;dir_84ef7c054b4edc3447cfba80cee80f65 -->
<g id="edge23" class="edge">
<title>dir_e4893b20171f621ff7a85b39656091a7&#45;&gt;dir_84ef7c054b4edc3447cfba80cee80f65</title>
<path fill="none" stroke="black" d="M220.5,-215.89C241.15,-191.72 278.26,-149.08 294,-136 305.33,-126.58 318.82,-117.72 331.09,-110.39"/>
<polygon fill="black" stroke="black" points="332.89,-113.4 339.77,-105.34 329.37,-107.35 332.89,-113.4"/>
<g id="a_edge23&#45;headlabel"><a xlink:href="dir_000276_000047.html" target="_top" xlink:title="10">
<text text-anchor="middle" x="331.21" y="-115.16" font-family="Helvetica,sans-Serif" font-size="10.00">10</text>
</a>
</g>
</g>
<!-- dir_5af423df3a2327edcd5f90b3d7e3f636 -->
<g id="node4" class="node">
<title>dir_5af423df3a2327edcd5f90b3d7e3f636</title>
<text text-anchor="middle" x="285" y="-375.5" font-family="Helvetica,sans-Serif" font-size="10.00">XeGPU</text>
</g>
<!-- dir_af87213b2c87ceb3ff163e266458ce84 -->
<g id="node5" class="node">
<title>dir_af87213b2c87ceb3ff163e266458ce84</title>
<g id="a_node5"><a xlink:href="dir_af87213b2c87ceb3ff163e266458ce84.html" target="_top" xlink:title="IR">
<polygon fill="white" stroke="black" points="78,-396 24,-396 24,-360 78,-360 78,-396"/>
<text text-anchor="middle" x="51" y="-375.5" font-family="Helvetica,sans-Serif" font-size="10.00">IR</text>
</a>
</g>
</g>
<!-- dir_af87213b2c87ceb3ff163e266458ce84&#45;&gt;dir_687ef06ec02158f82af83f8ed0273ebe -->
<g id="edge9" class="edge">
<title>dir_af87213b2c87ceb3ff163e266458ce84&#45;&gt;dir_687ef06ec02158f82af83f8ed0273ebe</title>
<path fill="none" stroke="black" d="M63.14,-359.8C84.26,-330.03 129.41,-267.21 170,-216 177.35,-206.73 185.66,-196.79 193.13,-188.05"/>
<polygon fill="black" stroke="black" points="195.83,-190.28 199.7,-180.42 190.52,-185.72 195.83,-190.28"/>
<g id="a_edge9&#45;headlabel"><a xlink:href="dir_000282_000017.html" target="_top" xlink:title="1">
<text text-anchor="middle" x="195.64" y="-192.36" font-family="Helvetica,sans-Serif" font-size="10.00">1</text>
</a>
</g>
</g>
<!-- dir_af87213b2c87ceb3ff163e266458ce84&#45;&gt;dir_bfd3493254b3df47293537524626123b -->
<g id="edge11" class="edge">
<title>dir_af87213b2c87ceb3ff163e266458ce84&#45;&gt;dir_bfd3493254b3df47293537524626123b</title>
<path fill="none" stroke="black" d="M73.11,-359.82C77.54,-356.91 82.29,-354.14 87,-352 133.31,-330.93 149.05,-337.87 198,-324 203.5,-322.44 209.28,-320.72 214.94,-318.98"/>
<polygon fill="black" stroke="black" points="216.4,-322.19 224.9,-315.87 214.31,-315.51 216.4,-322.19"/>
<g id="a_edge11&#45;headlabel"><a xlink:href="dir_000282_000152.html" target="_top" xlink:title="1">
<text text-anchor="middle" x="213.81" y="-323.47" font-family="Helvetica,sans-Serif" font-size="10.00">1</text>
</a>
</g>
</g>
<!-- dir_af87213b2c87ceb3ff163e266458ce84&#45;&gt;dir_e4893b20171f621ff7a85b39656091a7 -->
<g id="edge13" class="edge">
<title>dir_af87213b2c87ceb3ff163e266458ce84&#45;&gt;dir_e4893b20171f621ff7a85b39656091a7</title>
<path fill="none" stroke="black" d="M73.71,-359.99C78.01,-357.13 82.56,-354.34 87,-352 118.12,-335.63 134.85,-347.51 161,-324 179.53,-307.34 191.45,-281.29 198.33,-261.66"/>
<polygon fill="black" stroke="black" points="201.69,-262.67 201.48,-252.07 195.04,-260.48 201.69,-262.67"/>
<g id="a_edge13&#45;headlabel"><a xlink:href="dir_000282_000276.html" target="_top" xlink:title="1">
<text text-anchor="middle" x="203.26" y="-264.47" font-family="Helvetica,sans-Serif" font-size="10.00">1</text>
</a>
</g>
</g>
<!-- dir_af87213b2c87ceb3ff163e266458ce84&#45;&gt;dir_51020c1b0909ae629a35fe1c65c620b9 -->
<g id="edge8" class="edge">
<title>dir_af87213b2c87ceb3ff163e266458ce84&#45;&gt;dir_51020c1b0909ae629a35fe1c65c620b9</title>
<path fill="none" stroke="black" d="M72.11,-359.81C76.78,-356.75 81.87,-353.93 87,-352 138.28,-332.68 291.36,-360.76 332,-324 369.3,-290.27 371.87,-226.93 369.83,-190.56"/>
<polygon fill="black" stroke="black" points="373.29,-189.93 369.08,-180.21 366.31,-190.43 373.29,-189.93"/>
<g id="a_edge8&#45;headlabel"><a xlink:href="dir_000282_000051.html" target="_top" xlink:title="1">
<text text-anchor="middle" x="376.38" y="-190.81" font-family="Helvetica,sans-Serif" font-size="10.00">1</text>
</a>
</g>
</g>
<!-- dir_af87213b2c87ceb3ff163e266458ce84&#45;&gt;dir_84ef7c054b4edc3447cfba80cee80f65 -->
<g id="edge10" class="edge">
<title>dir_af87213b2c87ceb3ff163e266458ce84&#45;&gt;dir_84ef7c054b4edc3447cfba80cee80f65</title>
<path fill="none" stroke="black" d="M72.1,-359.77C76.77,-356.71 81.86,-353.9 87,-352 200.54,-309.92 251.02,-380.71 358,-324 445.79,-277.46 534.64,-218.32 479,-136 462.39,-111.43 429.93,-100.28 404.21,-95.21"/>
<polygon fill="black" stroke="black" points="404.47,-91.7 394.02,-93.44 403.27,-98.6 404.47,-91.7"/>
<g id="a_edge10&#45;headlabel"><a xlink:href="dir_000282_000047.html" target="_top" xlink:title="4">
<text text-anchor="middle" x="408.5" y="-87.02" font-family="Helvetica,sans-Serif" font-size="10.00">4</text>
</a>
</g>
</g>
<!-- dir_af87213b2c87ceb3ff163e266458ce84&#45;&gt;dir_cf63c3ddb21c79ef735682489f4c6a69 -->
<g id="edge12" class="edge">
<title>dir_af87213b2c87ceb3ff163e266458ce84&#45;&gt;dir_cf63c3ddb21c79ef735682489f4c6a69</title>
<path fill="none" stroke="black" d="M71.69,-359.97C76.47,-356.82 81.71,-353.92 87,-352 296.26,-276.1 574,-457.6 574,-235 574,-235 574,-235 574,-161 574,-68.64 442.07,-35.37 371.84,-24.2"/>
<polygon fill="black" stroke="black" points="371.94,-20.67 361.53,-22.65 370.9,-27.6 371.94,-20.67"/>
<g id="a_edge12&#45;headlabel"><a xlink:href="dir_000282_000285.html" target="_top" xlink:title="3">
<text text-anchor="middle" x="375.92" y="-15.9" font-family="Helvetica,sans-Serif" font-size="10.00">3</text>
</a>
</g>
</g>
<!-- dir_547ab28a9767e2fb877115ac393fa027 -->
<g id="node6" class="node">
<title>dir_547ab28a9767e2fb877115ac393fa027</title>
<g id="a_node6"><a xlink:href="dir_547ab28a9767e2fb877115ac393fa027.html" target="_top" xlink:title="Transforms">
<polygon fill="white" stroke="black" points="167.5,-396 96.5,-396 96.5,-360 167.5,-360 167.5,-396"/>
<text text-anchor="middle" x="132" y="-375.5" font-family="Helvetica,sans-Serif" font-size="10.00">Transforms</text>
</a>
</g>
</g>
<!-- dir_547ab28a9767e2fb877115ac393fa027&#45;&gt;dir_84ef7c054b4edc3447cfba80cee80f65 -->
<g id="edge14" class="edge">
<title>dir_547ab28a9767e2fb877115ac393fa027&#45;&gt;dir_84ef7c054b4edc3447cfba80cee80f65</title>
<path fill="none" stroke="black" d="M158.83,-359.86C164.63,-356.8 170.87,-353.96 177,-352 282.64,-318.19 331.61,-383.85 425,-324 502.52,-274.33 566.61,-210.13 512,-136 487.42,-102.63 438.33,-93.28 404.12,-91.03"/>
<polygon fill="black" stroke="black" points="404.18,-87.53 394.02,-90.54 403.84,-94.52 404.18,-87.53"/>
<g id="a_edge14&#45;headlabel"><a xlink:href="dir_000155_000047.html" target="_top" xlink:title="1">
<text text-anchor="middle" x="407.91" y="-82.36" font-family="Helvetica,sans-Serif" font-size="10.00">1</text>
</a>
</g>
</g>
<!-- dir_547ab28a9767e2fb877115ac393fa027&#45;&gt;dir_cab9f8330899b1cc9d753b1d9c5c5a3e -->
<g id="edge15" class="edge">
<title>dir_547ab28a9767e2fb877115ac393fa027&#45;&gt;dir_cab9f8330899b1cc9d753b1d9c5c5a3e</title>
<path fill="none" stroke="black" d="M158.85,-359.92C164.65,-356.86 170.88,-354 177,-352 224.04,-336.59 360.53,-356.35 398,-324 436.72,-290.57 443.46,-226.85 443.89,-190.4"/>
<polygon fill="black" stroke="black" points="447.39,-190.01 443.85,-180.02 440.39,-190.04 447.39,-190.01"/>
<g id="a_edge15&#45;headlabel"><a xlink:href="dir_000155_000054.html" target="_top" xlink:title="1">
<text text-anchor="middle" x="450.24" y="-191.1" font-family="Helvetica,sans-Serif" font-size="10.00">1</text>
</a>
</g>
</g>
<!-- dir_5c40e114354cfd5eee371a627ce2bbef -->
<g id="node7" class="node">
<title>dir_5c40e114354cfd5eee371a627ce2bbef</title>
<g id="a_node7"><a xlink:href="dir_5c40e114354cfd5eee371a627ce2bbef.html" target="_top" xlink:title="Utils">
<polygon fill="white" stroke="black" points="240,-396 186,-396 186,-360 240,-360 240,-396"/>
<text text-anchor="middle" x="213" y="-375.5" font-family="Helvetica,sans-Serif" font-size="10.00">Utils</text>
</a>
</g>
</g>
<!-- dir_5c40e114354cfd5eee371a627ce2bbef&#45;&gt;dir_84ef7c054b4edc3447cfba80cee80f65 -->
<g id="edge1" class="edge">
<title>dir_5c40e114354cfd5eee371a627ce2bbef&#45;&gt;dir_84ef7c054b4edc3447cfba80cee80f65</title>
<path fill="none" stroke="black" d="M233.68,-359.94C238.46,-356.79 243.7,-353.9 249,-352 320.14,-326.46 536.8,-379.61 588,-324 626.42,-282.28 662.64,-248.21 550,-136 529.74,-115.82 451.84,-102.22 404.45,-95.62"/>
<polygon fill="black" stroke="black" points="404.64,-92.11 394.26,-94.24 403.71,-99.05 404.64,-92.11"/>
<g id="a_edge1&#45;headlabel"><a xlink:href="dir_000283_000047.html" target="_top" xlink:title="2">
<text text-anchor="middle" x="408.59" y="-87.28" font-family="Helvetica,sans-Serif" font-size="10.00">2</text>
</a>
</g>
</g>
<!-- dir_51020c1b0909ae629a35fe1c65c620b9&#45;&gt;dir_84ef7c054b4edc3447cfba80cee80f65 -->
<g id="edge24" class="edge">
<title>dir_51020c1b0909ae629a35fe1c65c620b9&#45;&gt;dir_84ef7c054b4edc3447cfba80cee80f65</title>
<path fill="none" stroke="black" d="M361.08,-143.7C360.29,-135.98 360.06,-126.71 360.4,-118.11"/>
<polygon fill="black" stroke="black" points="363.9,-118.32 361.1,-108.1 356.92,-117.84 363.9,-118.32"/>
<g id="a_edge24&#45;headlabel"><a xlink:href="dir_000051_000047.html" target="_top" xlink:title="9">
<text text-anchor="middle" x="366.48" y="-119.61" font-family="Helvetica,sans-Serif" font-size="10.00">9</text>
</a>
</g>
</g>
<!-- dir_84ef7c054b4edc3447cfba80cee80f65&#45;&gt;dir_51020c1b0909ae629a35fe1c65c620b9 -->
<g id="edge2" class="edge">
<title>dir_84ef7c054b4edc3447cfba80cee80f65&#45;&gt;dir_51020c1b0909ae629a35fe1c65c620b9</title>
<path fill="none" stroke="black" d="M372.9,-108.1C373.7,-115.79 373.94,-125.05 373.6,-133.67"/>
<polygon fill="black" stroke="black" points="370.11,-133.48 372.92,-143.7 377.09,-133.96 370.11,-133.48"/>
<g id="a_edge2&#45;headlabel"><a xlink:href="dir_000047_000051.html" target="_top" xlink:title="2">
<text text-anchor="middle" x="367.52" y="-127.2" font-family="Helvetica,sans-Serif" font-size="10.00">2</text>
</a>
</g>
</g>
<!-- dir_84ef7c054b4edc3447cfba80cee80f65&#45;&gt;dir_cf63c3ddb21c79ef735682489f4c6a69 -->
<g id="edge3" class="edge">
<title>dir_84ef7c054b4edc3447cfba80cee80f65&#45;&gt;dir_cf63c3ddb21c79ef735682489f4c6a69</title>
<path fill="none" stroke="black" d="M351.69,-71.7C346.54,-63.73 341.1,-54.1 336.7,-45.26"/>
<polygon fill="black" stroke="black" points="339.81,-43.66 332.39,-36.1 333.48,-46.64 339.81,-43.66"/>
<g id="a_edge3&#45;headlabel"><a xlink:href="dir_000047_000285.html" target="_top" xlink:title="3">
<text text-anchor="middle" x="343.91" y="-43.21" font-family="Helvetica,sans-Serif" font-size="10.00">3</text>
</a>
</g>
</g>
<!-- dir_cab9f8330899b1cc9d753b1d9c5c5a3e&#45;&gt;dir_84ef7c054b4edc3447cfba80cee80f65 -->
<g id="edge27" class="edge">
<title>dir_cab9f8330899b1cc9d753b1d9c5c5a3e&#45;&gt;dir_84ef7c054b4edc3447cfba80cee80f65</title>
<path fill="none" stroke="black" d="M424.21,-143.7C414.83,-135.05 403.32,-124.45 393.09,-115.03"/>
<polygon fill="black" stroke="black" points="395.3,-112.3 385.57,-108.1 390.55,-117.45 395.3,-112.3"/>
<g id="a_edge27&#45;headlabel"><a xlink:href="dir_000054_000047.html" target="_top" xlink:title="4">
<text text-anchor="middle" x="399.86" y="-110.15" font-family="Helvetica,sans-Serif" font-size="10.00">4</text>
</a>
</g>
</g>
<!-- dir_cf63c3ddb21c79ef735682489f4c6a69&#45;&gt;dir_e4893b20171f621ff7a85b39656091a7 -->
<g id="edge26" class="edge">
<title>dir_cf63c3ddb21c79ef735682489f4c6a69&#45;&gt;dir_e4893b20171f621ff7a85b39656091a7</title>
<path fill="none" stroke="black" d="M296.25,-33.11C259.58,-50.97 202.24,-85.62 179,-136 168.38,-159.02 178.46,-187.09 189.19,-207.1"/>
<polygon fill="black" stroke="black" points="186.25,-209.01 194.26,-215.95 192.33,-205.53 186.25,-209.01"/>
<g id="a_edge26&#45;headlabel"><a xlink:href="dir_000285_000276.html" target="_top" xlink:title="2">
<text text-anchor="middle" x="182" y="-204.8" font-family="Helvetica,sans-Serif" font-size="10.00">2</text>
</a>
</g>
</g>
<!-- dir_cf63c3ddb21c79ef735682489f4c6a69&#45;&gt;dir_84ef7c054b4edc3447cfba80cee80f65 -->
<g id="edge25" class="edge">
<title>dir_cf63c3ddb21c79ef735682489f4c6a69&#45;&gt;dir_84ef7c054b4edc3447cfba80cee80f65</title>
<path fill="none" stroke="black" d="M344.18,-36.1C349.32,-44.04 354.77,-53.67 359.19,-62.51"/>
<polygon fill="black" stroke="black" points="356.09,-64.15 363.52,-71.7 362.42,-61.16 356.09,-64.15"/>
<g id="a_edge25&#45;headlabel"><a xlink:href="dir_000285_000047.html" target="_top" xlink:title="54">
<text text-anchor="middle" x="351.99" y="-59.61" font-family="Helvetica,sans-Serif" font-size="10.00">54</text>
</a>
</g>
</g>
</g>
</svg>
