<?xml version="1.0" encoding="UTF-8" standalone="no"?>
<!DOCTYPE svg PUBLIC "-//W3C//DTD SVG 1.1//EN"
 "http://www.w3.org/Graphics/SVG/1.1/DTD/svg11.dtd">
<!-- Generated by graphviz version 2.43.0 (0)
 -->
<!-- Title: include/mlir/Dialect/OpenMP Pages: 1 -->
<svg width="502pt" height="141pt"
 viewBox="0.00 0.00 502.00 141.00" xmlns="http://www.w3.org/2000/svg" xmlns:xlink="http://www.w3.org/1999/xlink">
<g id="graph0" class="graph" transform="scale(1 1) rotate(0) translate(4 137)">
<title>include/mlir/Dialect/OpenMP</title>
<g id="clust1" class="cluster">
<title>clusterdir_d07a6fac82475a065a3b2953573f00a0</title>
<g id="a_clust1"><a xlink:href="dir_d07a6fac82475a065a3b2953573f00a0.html" target="_top" xlink:title="Dialect">
<polygon fill="#edf0f7" stroke="#7f7f7f" stroke-dasharray="5,2" points="8,-8 8,-125 244,-125 244,-8 8,-8"/>
<text text-anchor="middle" x="126" y="-113" font-family="Helvetica,sans-Serif" font-size="10.00">Dialect</text>
</a>
</g>
</g>
<g id="clust2" class="cluster">
<title>clusterdir_31e9289c1dff92b97d553a01923e6bad</title>
<g id="a_clust2"><a xlink:href="dir_31e9289c1dff92b97d553a01923e6bad.html" target="_top">
<polygon fill="#edf0f7" stroke="#404040" stroke-width="2" points="16,-63 16,-98 236,-98 236,-63 16,-63"/>
</a>
</g>
</g>
<!-- dir_2dd94a2f24f714d3dc6340c37f136d19 -->
<g id="node1" class="node">
<title>dir_2dd94a2f24f714d3dc6340c37f136d19</title>
<g id="a_node1"><a xlink:href="dir_2dd94a2f24f714d3dc6340c37f136d19.html" target="_top" xlink:title="OpenACCMPCommon">
<polygon fill="#a2b4d6" stroke="red" points="138,-35 16,-35 16,-16 138,-16 138,-35"/>
<text text-anchor="middle" x="77" y="-23" font-family="Helvetica,sans-Serif" font-size="10.00">OpenACCMPCommon</text>
</a>
</g>
</g>
<!-- dir_8363a04659a248511e559fc4df76a233 -->
<g id="node2" class="node">
<title>dir_8363a04659a248511e559fc4df76a233</title>
<g id="a_node2"><a xlink:href="dir_8363a04659a248511e559fc4df76a233.html" target="_top" xlink:title="LLVMIR">
<polygon fill="#a2b4d6" stroke="red" points="208,-35 156,-35 156,-16 208,-16 208,-35"/>
<text text-anchor="middle" x="182" y="-23" font-family="Helvetica,sans-Serif" font-size="10.00">LLVMIR</text>
</a>
</g>
</g>
<!-- dir_31e9289c1dff92b97d553a01923e6bad -->
<g id="node3" class="node">
<title>dir_31e9289c1dff92b97d553a01923e6bad</title>
<text text-anchor="middle" x="53" y="-78" font-family="Helvetica,sans-Serif" font-size="10.00">OpenMP</text>
</g>
<!-- dir_31e9289c1dff92b97d553a01923e6bad&#45;&gt;dir_2dd94a2f24f714d3dc6340c37f136d19 -->
<g id="edge1" class="edge">
<title>dir_31e9289c1dff92b97d553a01923e6bad&#45;&gt;dir_2dd94a2f24f714d3dc6340c37f136d19</title>
<g id="a_edge1"><a xlink:href="dir_000367_000363.html" target="_top">
<path fill="none" stroke="#63b8ff" d="M56.96,-70.75C60.21,-63.57 64.92,-53.18 68.95,-44.27"/>
<polygon fill="#63b8ff" stroke="#63b8ff" points="72.17,-45.64 73.11,-35.09 65.8,-42.75 72.17,-45.64"/>
</a>
</g>
<g id="a_edge1&#45;headlabel"><a xlink:href="dir_000367_000363.html" target="_top" xlink:title="2">
<text text-anchor="middle" x="73.28" y="-47.59" font-family="Helvetica,sans-Serif" font-size="10.00" fill="#63b8ff">2</text>
</a>
</g>
</g>
<!-- dir_31e9289c1dff92b97d553a01923e6bad&#45;&gt;dir_8363a04659a248511e559fc4df76a233 -->
<g id="edge2" class="edge">
<title>dir_31e9289c1dff92b97d553a01923e6bad&#45;&gt;dir_8363a04659a248511e559fc4df76a233</title>
<g id="a_edge2"><a xlink:href="dir_000367_000282.html" target="_top">
<path fill="none" stroke="#63b8ff" d="M71.76,-70.95C77.58,-68.35 84.04,-65.51 90,-63 109.91,-54.62 132.45,-45.66 150.24,-38.72"/>
<polygon fill="#63b8ff" stroke="#63b8ff" points="151.53,-41.98 159.59,-35.09 149,-35.45 151.53,-41.98"/>
</a>
</g>
<g id="a_edge2&#45;headlabel"><a xlink:href="dir_000367_000282.html" target="_top" xlink:title="1">
<text text-anchor="middle" x="149.21" y="-43.42" font-family="Helvetica,sans-Serif" font-size="10.00" fill="#63b8ff">1</text>
</a>
</g>
</g>
<!-- dir_84ef7c054b4edc3447cfba80cee80f65 -->
<g id="node6" class="node">
<title>dir_84ef7c054b4edc3447cfba80cee80f65</title>
<g id="a_node6"><a xlink:href="dir_84ef7c054b4edc3447cfba80cee80f65.html" target="_top" xlink:title="IR">
<polygon fill="#edf0f7" stroke="#7f7f7f" points="437.5,-35 408.5,-35 408.5,-16 437.5,-16 437.5,-35"/>
<text text-anchor="middle" x="423" y="-23" font-family="Helvetica,sans-Serif" font-size="10.00">IR</text>
</a>
</g>
</g>
<!-- dir_31e9289c1dff92b97d553a01923e6bad&#45;&gt;dir_84ef7c054b4edc3447cfba80cee80f65 -->
<g id="edge3" class="edge">
<title>dir_31e9289c1dff92b97d553a01923e6bad&#45;&gt;dir_84ef7c054b4edc3447cfba80cee80f65</title>
<g id="a_edge3"><a xlink:href="dir_000367_000220.html" target="_top">
<path fill="none" stroke="#63b8ff" d="M69.16,-70.91C75.49,-67.91 82.92,-64.84 90,-63 220.31,-29.04 262.32,-62.81 398.48,-34.46"/>
<polygon fill="#63b8ff" stroke="#63b8ff" points="399.41,-37.84 408.45,-32.31 397.93,-30.99 399.41,-37.84"/>
</a>
</g>
<g id="a_edge3&#45;headlabel"><a xlink:href="dir_000367_000220.html" target="_top" xlink:title="13">
<text text-anchor="middle" x="396.49" y="-38.87" font-family="Helvetica,sans-Serif" font-size="10.00" fill="#63b8ff">13</text>
</a>
</g>
</g>
<!-- dir_cf63c3ddb21c79ef735682489f4c6a69 -->
<g id="node7" class="node">
<title>dir_cf63c3ddb21c79ef735682489f4c6a69</title>
<g id="a_node7"><a xlink:href="dir_cf63c3ddb21c79ef735682489f4c6a69.html" target="_top" xlink:title="Interfaces">
<polygon fill="#edf0f7" stroke="red" stroke-dasharray="5,2" points="317.5,-35 252.5,-35 252.5,-16 317.5,-16 317.5,-35"/>
<text text-anchor="middle" x="285" y="-23" font-family="Helvetica,sans-Serif" font-size="10.00">Interfaces</text>
</a>
</g>
</g>
<!-- dir_31e9289c1dff92b97d553a01923e6bad&#45;&gt;dir_cf63c3ddb21c79ef735682489f4c6a69 -->
<g id="edge4" class="edge">
<title>dir_31e9289c1dff92b97d553a01923e6bad&#45;&gt;dir_cf63c3ddb21c79ef735682489f4c6a69</title>
<g id="a_edge4"><a xlink:href="dir_000367_000175.html" target="_top">
<path fill="none" stroke="#63b8ff" d="M69.98,-70.88C76.16,-68.03 83.28,-65.06 90,-63 154.99,-43.08 176.14,-48.61 242.24,-36.08"/>
<polygon fill="#63b8ff" stroke="#63b8ff" points="243.2,-39.46 252.33,-34.1 241.85,-32.59 243.2,-39.46"/>
</a>
</g>
<g id="a_edge4&#45;headlabel"><a xlink:href="dir_000367_000175.html" target="_top" xlink:title="4">
<text text-anchor="middle" x="240.22" y="-40.44" font-family="Helvetica,sans-Serif" font-size="10.00" fill="#63b8ff">4</text>
</a>
</g>
</g>
<!-- dir_f61d47671007dfdb592580b61f960d39 -->
<g id="node8" class="node">
<title>dir_f61d47671007dfdb592580b61f960d39</title>
<g id="a_node8"><a xlink:href="dir_f61d47671007dfdb592580b61f960d39.html" target="_top" xlink:title="Support">
<polygon fill="#edf0f7" stroke="#7f7f7f" points="390,-35 336,-35 336,-16 390,-16 390,-35"/>
<text text-anchor="middle" x="363" y="-23" font-family="Helvetica,sans-Serif" font-size="10.00">Support</text>
</a>
</g>
</g>
<!-- dir_31e9289c1dff92b97d553a01923e6bad&#45;&gt;dir_f61d47671007dfdb592580b61f960d39 -->
<g id="edge5" class="edge">
<title>dir_31e9289c1dff92b97d553a01923e6bad&#45;&gt;dir_f61d47671007dfdb592580b61f960d39</title>
<g id="a_edge5"><a xlink:href="dir_000367_000470.html" target="_top">
<path fill="none" stroke="#63b8ff" d="M69.55,-70.84C75.8,-67.91 83.08,-64.9 90,-63 189.17,-35.71 220.65,-52.36 325.87,-34.97"/>
<polygon fill="#63b8ff" stroke="#63b8ff" points="326.68,-38.38 335.94,-33.24 325.49,-31.48 326.68,-38.38"/>
</a>
</g>
<g id="a_edge5&#45;headlabel"><a xlink:href="dir_000367_000470.html" target="_top" xlink:title="1">
<text text-anchor="middle" x="323.62" y="-39.29" font-family="Helvetica,sans-Serif" font-size="10.00" fill="#63b8ff">1</text>
</a>
</g>
</g>
<!-- dir_8d3cf807af1d10f65bbcf556df958023 -->
<g id="node4" class="node">
<title>dir_8d3cf807af1d10f65bbcf556df958023</title>
<g id="a_node4"><a xlink:href="dir_8d3cf807af1d10f65bbcf556df958023.html" target="_top" xlink:title="Transforms">
<polygon fill="#a2b4d6" stroke="#404040" points="227.5,-90 156.5,-90 156.5,-71 227.5,-71 227.5,-90"/>
<text text-anchor="middle" x="192" y="-78" font-family="Helvetica,sans-Serif" font-size="10.00">Transforms</text>
</a>
</g>
</g>
<!-- dir_cab9f8330899b1cc9d753b1d9c5c5a3e -->
<g id="node9" class="node">
<title>dir_cab9f8330899b1cc9d753b1d9c5c5a3e</title>
<g id="a_node9"><a xlink:href="dir_cab9f8330899b1cc9d753b1d9c5c5a3e.html" target="_top" xlink:title="Pass">
<polygon fill="#edf0f7" stroke="#7f7f7f" points="494,-35 456,-35 456,-16 494,-16 494,-35"/>
<text text-anchor="middle" x="475" y="-23" font-family="Helvetica,sans-Serif" font-size="10.00">Pass</text>
</a>
</g>
</g>
<!-- dir_8d3cf807af1d10f65bbcf556df958023&#45;&gt;dir_cab9f8330899b1cc9d753b1d9c5c5a3e -->
<g id="edge6" class="edge">
<title>dir_8d3cf807af1d10f65bbcf556df958023&#45;&gt;dir_cab9f8330899b1cc9d753b1d9c5c5a3e</title>
<g id="a_edge6"><a xlink:href="dir_000559_000377.html" target="_top">
<path fill="none" stroke="#63b8ff" d="M227.76,-74.67C275.45,-67.91 362.65,-54.5 445.93,-35.01"/>
<polygon fill="#63b8ff" stroke="#63b8ff" points="446.88,-38.38 455.8,-32.66 445.27,-31.57 446.88,-38.38"/>
</a>
</g>
<g id="a_edge6&#45;headlabel"><a xlink:href="dir_000559_000377.html" target="_top" xlink:title="1">
<text text-anchor="middle" x="444.04" y="-39.47" font-family="Helvetica,sans-Serif" font-size="10.00" fill="#63b8ff">1</text>
</a>
</g>
</g>
<!-- dir_2bce988d49fae6ee51921cddeb89985b -->
<g id="node5" class="node">
<title>dir_2bce988d49fae6ee51921cddeb89985b</title>
<g id="a_node5"><a xlink:href="dir_2bce988d49fae6ee51921cddeb89985b.html" target="_top" xlink:title="Utils">
<polygon fill="#a2b4d6" stroke="#404040" points="138.5,-90 99.5,-90 99.5,-71 138.5,-71 138.5,-90"/>
<text text-anchor="middle" x="119" y="-78" font-family="Helvetica,sans-Serif" font-size="10.00">Utils</text>
</a>
</g>
</g>
<!-- dir_2bce988d49fae6ee51921cddeb89985b&#45;&gt;dir_84ef7c054b4edc3447cfba80cee80f65 -->
<g id="edge7" class="edge">
<title>dir_2bce988d49fae6ee51921cddeb89985b&#45;&gt;dir_84ef7c054b4edc3447cfba80cee80f65</title>
<g id="a_edge7"><a xlink:href="dir_000626_000220.html" target="_top">
<path fill="none" stroke="#63b8ff" d="M131.47,-70.93C136.41,-67.93 142.27,-64.86 148,-63 251.73,-29.29 287.57,-58.38 398.54,-34.48"/>
<polygon fill="#63b8ff" stroke="#63b8ff" points="399.45,-37.87 408.43,-32.26 397.91,-31.04 399.45,-37.87"/>
</a>
</g>
<g id="a_edge7&#45;headlabel"><a xlink:href="dir_000626_000220.html" target="_top" xlink:title="2">
<text text-anchor="middle" x="396.56" y="-38.93" font-family="Helvetica,sans-Serif" font-size="10.00" fill="#63b8ff">2</text>
</a>
</g>
</g>
</g>
</svg>
