<?xml version="1.0" encoding="UTF-8" standalone="no"?>
<!DOCTYPE svg PUBLIC "-//W3C//DTD SVG 1.1//EN"
 "http://www.w3.org/Graphics/SVG/1.1/DTD/svg11.dtd">
<!-- Generated by graphviz version 2.43.0 (0)
 -->
<!-- Title: include/mlir/Dialect/ArmSME/Utils Pages: 1 -->
<svg width="185pt" height="367pt"
 viewBox="0.00 0.00 184.74 367.00" xmlns="http://www.w3.org/2000/svg" xmlns:xlink="http://www.w3.org/1999/xlink">
<g id="graph0" class="graph" transform="scale(1 1) rotate(0) translate(4 363)">
<title>include/mlir/Dialect/ArmSME/Utils</title>
<g id="clust1" class="cluster">
<title>clusterdir_e42d9d2b117d1272004d4481c3e91441</title>
<g id="a_clust1"><a xlink:href="dir_e42d9d2b117d1272004d4481c3e91441.html" target="_top" xlink:title="ArmSME">
<polygon fill="#ddddee" stroke="black" points="59.74,-208 59.74,-351 129.74,-351 129.74,-208 59.74,-208"/>
<text text-anchor="middle" x="94.74" y="-339" font-family="Helvetica,sans-Serif" font-size="10.00">ArmSME</text>
</a>
</g>
</g>
<!-- dir_74f8b9178a6e50d7374c597d3528e343 -->
<g id="node1" class="node">
<title>dir_74f8b9178a6e50d7374c597d3528e343</title>
<g id="a_node1"><a xlink:href="dir_74f8b9178a6e50d7374c597d3528e343.html" target="_top" xlink:title="IR">
<polygon fill="none" stroke="black" points="121.74,-324 67.74,-324 67.74,-288 121.74,-288 121.74,-324"/>
<text text-anchor="middle" x="94.74" y="-303.5" font-family="Helvetica,sans-Serif" font-size="10.00">IR</text>
</a>
</g>
</g>
<!-- dir_031e5175b9f471dbaec2522156ed612f -->
<g id="node2" class="node">
<title>dir_031e5175b9f471dbaec2522156ed612f</title>
<g id="a_node2"><a xlink:href="dir_031e5175b9f471dbaec2522156ed612f.html" target="_top" xlink:title="Utils">
<polygon fill="#eeeeff" stroke="black" points="121.74,-252 67.74,-252 67.74,-216 121.74,-216 121.74,-252"/>
<text text-anchor="middle" x="94.74" y="-231.5" font-family="Helvetica,sans-Serif" font-size="10.00">Utils</text>
</a>
</g>
</g>
<!-- dir_74f8b9178a6e50d7374c597d3528e343&#45;&gt;dir_031e5175b9f471dbaec2522156ed612f -->
<g id="edge9" class="edge">
<title>dir_74f8b9178a6e50d7374c597d3528e343&#45;&gt;dir_031e5175b9f471dbaec2522156ed612f</title>
<path fill="none" stroke="black" d="M88.82,-287.7C88.03,-279.98 87.8,-270.71 88.14,-262.11"/>
<polygon fill="black" stroke="black" points="91.64,-262.32 88.84,-252.1 84.65,-261.84 91.64,-262.32"/>
<g id="a_edge9&#45;headlabel"><a xlink:href="dir_000207_000020.html" target="_top" xlink:title="1">
<text text-anchor="middle" x="94.22" y="-263.61" font-family="Helvetica,sans-Serif" font-size="10.00">1</text>
</a>
</g>
</g>
<!-- dir_47aca9e8d6a16a6d14cf434a05d15774 -->
<g id="node3" class="node">
<title>dir_47aca9e8d6a16a6d14cf434a05d15774</title>
<g id="a_node3"><a xlink:href="dir_47aca9e8d6a16a6d14cf434a05d15774.html" target="_top" xlink:title="SCF">
<polygon fill="none" stroke="red" points="66.74,-180 12.74,-180 12.74,-144 66.74,-144 66.74,-180"/>
<text text-anchor="middle" x="39.74" y="-159.5" font-family="Helvetica,sans-Serif" font-size="10.00">SCF</text>
</a>
</g>
</g>
<!-- dir_74f8b9178a6e50d7374c597d3528e343&#45;&gt;dir_47aca9e8d6a16a6d14cf434a05d15774 -->
<g id="edge10" class="edge">
<title>dir_74f8b9178a6e50d7374c597d3528e343&#45;&gt;dir_47aca9e8d6a16a6d14cf434a05d15774</title>
<path fill="none" stroke="black" d="M80.57,-287.85C73.05,-277.93 64.24,-264.89 58.74,-252 50.32,-232.29 45.49,-208.49 42.81,-190.46"/>
<polygon fill="black" stroke="black" points="46.25,-189.76 41.44,-180.33 39.31,-190.71 46.25,-189.76"/>
<g id="a_edge10&#45;headlabel"><a xlink:href="dir_000207_000029.html" target="_top" xlink:title="1">
<text text-anchor="middle" x="49.54" y="-190.44" font-family="Helvetica,sans-Serif" font-size="10.00">1</text>
</a>
</g>
</g>
<!-- dir_84ef7c054b4edc3447cfba80cee80f65 -->
<g id="node4" class="node">
<title>dir_84ef7c054b4edc3447cfba80cee80f65</title>
<g id="a_node4"><a xlink:href="dir_84ef7c054b4edc3447cfba80cee80f65.html" target="_top" xlink:title="IR">
<polygon fill="none" stroke="black" points="176.74,-108 122.74,-108 122.74,-72 176.74,-72 176.74,-108"/>
<text text-anchor="middle" x="149.74" y="-87.5" font-family="Helvetica,sans-Serif" font-size="10.00">IR</text>
</a>
</g>
</g>
<!-- dir_74f8b9178a6e50d7374c597d3528e343&#45;&gt;dir_84ef7c054b4edc3447cfba80cee80f65 -->
<g id="edge11" class="edge">
<title>dir_74f8b9178a6e50d7374c597d3528e343&#45;&gt;dir_84ef7c054b4edc3447cfba80cee80f65</title>
<path fill="none" stroke="black" d="M109.74,-287.57C117.32,-277.76 125.92,-264.92 130.74,-252 147.44,-207.22 150.35,-151.01 150.41,-118.24"/>
<polygon fill="black" stroke="black" points="153.91,-118.04 150.34,-108.07 146.91,-118.09 153.91,-118.04"/>
<g id="a_edge11&#45;headlabel"><a xlink:href="dir_000207_000046.html" target="_top" xlink:title="4">
<text text-anchor="middle" x="156.77" y="-119.12" font-family="Helvetica,sans-Serif" font-size="10.00">4</text>
</a>
</g>
</g>
<!-- dir_cf63c3ddb21c79ef735682489f4c6a69 -->
<g id="node5" class="node">
<title>dir_cf63c3ddb21c79ef735682489f4c6a69</title>
<g id="a_node5"><a xlink:href="dir_cf63c3ddb21c79ef735682489f4c6a69.html" target="_top" xlink:title="Interfaces">
<polygon fill="none" stroke="red" points="127.24,-36 62.24,-36 62.24,0 127.24,0 127.24,-36"/>
<text text-anchor="middle" x="94.74" y="-15.5" font-family="Helvetica,sans-Serif" font-size="10.00">Interfaces</text>
</a>
</g>
</g>
<!-- dir_74f8b9178a6e50d7374c597d3528e343&#45;&gt;dir_cf63c3ddb21c79ef735682489f4c6a69 -->
<g id="edge12" class="edge">
<title>dir_74f8b9178a6e50d7374c597d3528e343&#45;&gt;dir_cf63c3ddb21c79ef735682489f4c6a69</title>
<path fill="none" stroke="black" d="M73.67,-287.99C41.43,-259.75 -14.59,-200.67 3.74,-144 16.5,-104.53 47.01,-67.16 69.2,-43.74"/>
<polygon fill="black" stroke="black" points="71.91,-45.97 76.36,-36.35 66.89,-41.1 71.91,-45.97"/>
<g id="a_edge12&#45;headlabel"><a xlink:href="dir_000207_000279.html" target="_top" xlink:title="1">
<text text-anchor="middle" x="71.45" y="-48.03" font-family="Helvetica,sans-Serif" font-size="10.00">1</text>
</a>
</g>
</g>
<!-- dir_031e5175b9f471dbaec2522156ed612f&#45;&gt;dir_74f8b9178a6e50d7374c597d3528e343 -->
<g id="edge3" class="edge">
<title>dir_031e5175b9f471dbaec2522156ed612f&#45;&gt;dir_74f8b9178a6e50d7374c597d3528e343</title>
<path fill="none" stroke="black" d="M100.63,-252.1C101.44,-259.79 101.67,-269.05 101.34,-277.67"/>
<polygon fill="black" stroke="black" points="97.85,-277.48 100.65,-287.7 104.83,-277.96 97.85,-277.48"/>
<g id="a_edge3&#45;headlabel"><a xlink:href="dir_000020_000207.html" target="_top" xlink:title="2">
<text text-anchor="middle" x="95.26" y="-271.2" font-family="Helvetica,sans-Serif" font-size="10.00">2</text>
</a>
</g>
</g>
<!-- dir_031e5175b9f471dbaec2522156ed612f&#45;&gt;dir_47aca9e8d6a16a6d14cf434a05d15774 -->
<g id="edge2" class="edge">
<title>dir_031e5175b9f471dbaec2522156ed612f&#45;&gt;dir_47aca9e8d6a16a6d14cf434a05d15774</title>
<path fill="none" stroke="black" d="M81.14,-215.7C74.62,-207.39 66.67,-197.28 59.49,-188.14"/>
<polygon fill="black" stroke="black" points="62.11,-185.81 53.18,-180.1 56.6,-190.13 62.11,-185.81"/>
<g id="a_edge2&#45;headlabel"><a xlink:href="dir_000020_000029.html" target="_top" xlink:title="1">
<text text-anchor="middle" x="66.56" y="-184.38" font-family="Helvetica,sans-Serif" font-size="10.00">1</text>
</a>
</g>
</g>
<!-- dir_031e5175b9f471dbaec2522156ed612f&#45;&gt;dir_84ef7c054b4edc3447cfba80cee80f65 -->
<g id="edge4" class="edge">
<title>dir_031e5175b9f471dbaec2522156ed612f&#45;&gt;dir_84ef7c054b4edc3447cfba80cee80f65</title>
<path fill="none" stroke="black" d="M101.37,-215.87C110.83,-191.46 128.27,-146.43 139.42,-117.64"/>
<polygon fill="black" stroke="black" points="142.73,-118.78 143.08,-108.19 136.2,-116.25 142.73,-118.78"/>
<g id="a_edge4&#45;headlabel"><a xlink:href="dir_000020_000046.html" target="_top" xlink:title="1">
<text text-anchor="middle" x="144.08" y="-120.66" font-family="Helvetica,sans-Serif" font-size="10.00">1</text>
</a>
</g>
</g>
<!-- dir_031e5175b9f471dbaec2522156ed612f&#45;&gt;dir_cf63c3ddb21c79ef735682489f4c6a69 -->
<g id="edge5" class="edge">
<title>dir_031e5175b9f471dbaec2522156ed612f&#45;&gt;dir_cf63c3ddb21c79ef735682489f4c6a69</title>
<path fill="none" stroke="black" d="M94.74,-215.85C94.74,-178.83 94.74,-91.18 94.74,-46.39"/>
<polygon fill="black" stroke="black" points="98.24,-46.23 94.74,-36.23 91.24,-46.23 98.24,-46.23"/>
<g id="a_edge5&#45;headlabel"><a xlink:href="dir_000020_000279.html" target="_top" xlink:title="1">
<text text-anchor="middle" x="101.08" y="-47.33" font-family="Helvetica,sans-Serif" font-size="10.00">1</text>
</a>
</g>
</g>
<!-- dir_47aca9e8d6a16a6d14cf434a05d15774&#45;&gt;dir_84ef7c054b4edc3447cfba80cee80f65 -->
<g id="edge6" class="edge">
<title>dir_47aca9e8d6a16a6d14cf434a05d15774&#45;&gt;dir_84ef7c054b4edc3447cfba80cee80f65</title>
<path fill="none" stroke="black" d="M66.65,-143.88C80.9,-134.81 98.58,-123.55 113.97,-113.76"/>
<polygon fill="black" stroke="black" points="116.17,-116.51 122.73,-108.19 112.41,-110.61 116.17,-116.51"/>
<g id="a_edge6&#45;headlabel"><a xlink:href="dir_000029_000046.html" target="_top" xlink:title="8">
<text text-anchor="middle" x="114.66" y="-118.34" font-family="Helvetica,sans-Serif" font-size="10.00">8</text>
</a>
</g>
</g>
<!-- dir_47aca9e8d6a16a6d14cf434a05d15774&#45;&gt;dir_cf63c3ddb21c79ef735682489f4c6a69 -->
<g id="edge7" class="edge">
<title>dir_47aca9e8d6a16a6d14cf434a05d15774&#45;&gt;dir_cf63c3ddb21c79ef735682489f4c6a69</title>
<path fill="none" stroke="black" d="M46.37,-143.87C55.83,-119.46 73.27,-74.43 84.42,-45.64"/>
<polygon fill="black" stroke="black" points="87.73,-46.78 88.08,-36.19 81.2,-44.25 87.73,-46.78"/>
<g id="a_edge7&#45;headlabel"><a xlink:href="dir_000029_000279.html" target="_top" xlink:title="11">
<text text-anchor="middle" x="89.08" y="-48.66" font-family="Helvetica,sans-Serif" font-size="10.00">11</text>
</a>
</g>
</g>
<!-- dir_84ef7c054b4edc3447cfba80cee80f65&#45;&gt;dir_cf63c3ddb21c79ef735682489f4c6a69 -->
<g id="edge1" class="edge">
<title>dir_84ef7c054b4edc3447cfba80cee80f65&#45;&gt;dir_cf63c3ddb21c79ef735682489f4c6a69</title>
<path fill="none" stroke="black" d="M130.23,-71.7C122.92,-63.47 114.87,-53.48 108.19,-44.42"/>
<polygon fill="black" stroke="black" points="110.93,-42.23 102.28,-36.1 105.22,-46.28 110.93,-42.23"/>
<g id="a_edge1&#45;headlabel"><a xlink:href="dir_000046_000279.html" target="_top" xlink:title="3">
<text text-anchor="middle" x="115.32" y="-41.01" font-family="Helvetica,sans-Serif" font-size="10.00">3</text>
</a>
</g>
</g>
<!-- dir_cf63c3ddb21c79ef735682489f4c6a69&#45;&gt;dir_84ef7c054b4edc3447cfba80cee80f65 -->
<g id="edge8" class="edge">
<title>dir_cf63c3ddb21c79ef735682489f4c6a69&#45;&gt;dir_84ef7c054b4edc3447cfba80cee80f65</title>
<path fill="none" stroke="black" d="M114.07,-36.1C121.37,-44.3 129.43,-54.28 136.12,-63.36"/>
<polygon fill="black" stroke="black" points="133.41,-65.58 142.06,-71.7 139.11,-61.52 133.41,-65.58"/>
<g id="a_edge8&#45;headlabel"><a xlink:href="dir_000279_000046.html" target="_top" xlink:title="54">
<text text-anchor="middle" x="129.01" y="-61.8" font-family="Helvetica,sans-Serif" font-size="10.00">54</text>
</a>
</g>
</g>
</g>
</svg>
