<?xml version="1.0" encoding="UTF-8" standalone="no"?>
<!DOCTYPE svg PUBLIC "-//W3C//DTD SVG 1.1//EN"
 "http://www.w3.org/Graphics/SVG/1.1/DTD/svg11.dtd">
<!-- Generated by graphviz version 2.43.0 (0)
 -->
<!-- Title: include/mlir/Dialect/AMDGPU/Transforms Pages: 1 -->
<svg width="188pt" height="223pt"
 viewBox="0.00 0.00 188.00 223.00" xmlns="http://www.w3.org/2000/svg" xmlns:xlink="http://www.w3.org/1999/xlink">
<g id="graph0" class="graph" transform="scale(1 1) rotate(0) translate(4 219)">
<title>include/mlir/Dialect/AMDGPU/Transforms</title>
<g id="clust1" class="cluster">
<title>clusterdir_eb2ecbd073b9e3a96ec858ae570d025e</title>
<g id="a_clust1"><a xlink:href="dir_eb2ecbd073b9e3a96ec858ae570d025e.html" target="_top" xlink:title="AMDGPU">
<polygon fill="#ddddee" stroke="black" points="8,-64 8,-207 96,-207 96,-64 8,-64"/>
<text text-anchor="middle" x="52" y="-195" font-family="Helvetica,sans-Serif" font-size="10.00">AMDGPU</text>
</a>
</g>
</g>
<!-- dir_1f5c6dd7d4360c86f108c0ddb5913dcf -->
<g id="node1" class="node">
<title>dir_1f5c6dd7d4360c86f108c0ddb5913dcf</title>
<g id="a_node1"><a xlink:href="dir_1f5c6dd7d4360c86f108c0ddb5913dcf.html" target="_top" xlink:title="Utils">
<polygon fill="none" stroke="black" points="70,-108 16,-108 16,-72 70,-72 70,-108"/>
<text text-anchor="middle" x="43" y="-87.5" font-family="Helvetica,sans-Serif" font-size="10.00">Utils</text>
</a>
</g>
</g>
<!-- dir_4e0ca19d3e8a5f28866e7e8a4110f101 -->
<g id="node2" class="node">
<title>dir_4e0ca19d3e8a5f28866e7e8a4110f101</title>
<g id="a_node2"><a xlink:href="dir_4e0ca19d3e8a5f28866e7e8a4110f101.html" target="_top" xlink:title="Transforms">
<polygon fill="#eeeeff" stroke="black" points="87.5,-180 16.5,-180 16.5,-144 87.5,-144 87.5,-180"/>
<text text-anchor="middle" x="52" y="-159.5" font-family="Helvetica,sans-Serif" font-size="10.00">Transforms</text>
</a>
</g>
</g>
<!-- dir_4e0ca19d3e8a5f28866e7e8a4110f101&#45;&gt;dir_1f5c6dd7d4360c86f108c0ddb5913dcf -->
<g id="edge2" class="edge">
<title>dir_4e0ca19d3e8a5f28866e7e8a4110f101&#45;&gt;dir_1f5c6dd7d4360c86f108c0ddb5913dcf</title>
<path fill="none" stroke="black" d="M49.78,-143.7C48.78,-135.98 47.59,-126.71 46.49,-118.11"/>
<polygon fill="black" stroke="black" points="49.95,-117.58 45.2,-108.1 43,-118.47 49.95,-117.58"/>
<g id="a_edge2&#45;headlabel"><a xlink:href="dir_000111_000201.html" target="_top" xlink:title="1">
<text text-anchor="middle" x="53.22" y="-118.28" font-family="Helvetica,sans-Serif" font-size="10.00">1</text>
</a>
</g>
</g>
<!-- dir_84ef7c054b4edc3447cfba80cee80f65 -->
<g id="node3" class="node">
<title>dir_84ef7c054b4edc3447cfba80cee80f65</title>
<g id="a_node3"><a xlink:href="dir_84ef7c054b4edc3447cfba80cee80f65.html" target="_top" xlink:title="IR">
<polygon fill="none" stroke="black" points="152,-36 98,-36 98,0 152,0 152,-36"/>
<text text-anchor="middle" x="125" y="-15.5" font-family="Helvetica,sans-Serif" font-size="10.00">IR</text>
</a>
</g>
</g>
<!-- dir_4e0ca19d3e8a5f28866e7e8a4110f101&#45;&gt;dir_84ef7c054b4edc3447cfba80cee80f65 -->
<g id="edge3" class="edge">
<title>dir_4e0ca19d3e8a5f28866e7e8a4110f101&#45;&gt;dir_84ef7c054b4edc3447cfba80cee80f65</title>
<path fill="none" stroke="black" d="M60.81,-143.87C73.41,-119.35 96.71,-74.03 111.5,-45.26"/>
<polygon fill="black" stroke="black" points="114.7,-46.68 116.16,-36.19 108.48,-43.48 114.7,-46.68"/>
<g id="a_edge3&#45;headlabel"><a xlink:href="dir_000111_000046.html" target="_top" xlink:title="1">
<text text-anchor="middle" x="115.59" y="-48.68" font-family="Helvetica,sans-Serif" font-size="10.00">1</text>
</a>
</g>
</g>
<!-- dir_cab9f8330899b1cc9d753b1d9c5c5a3e -->
<g id="node4" class="node">
<title>dir_cab9f8330899b1cc9d753b1d9c5c5a3e</title>
<g id="a_node4"><a xlink:href="dir_cab9f8330899b1cc9d753b1d9c5c5a3e.html" target="_top" xlink:title="Pass">
<polygon fill="none" stroke="black" points="180,-108 126,-108 126,-72 180,-72 180,-108"/>
<text text-anchor="middle" x="153" y="-87.5" font-family="Helvetica,sans-Serif" font-size="10.00">Pass</text>
</a>
</g>
</g>
<!-- dir_4e0ca19d3e8a5f28866e7e8a4110f101&#45;&gt;dir_cab9f8330899b1cc9d753b1d9c5c5a3e -->
<g id="edge4" class="edge">
<title>dir_4e0ca19d3e8a5f28866e7e8a4110f101&#45;&gt;dir_cab9f8330899b1cc9d753b1d9c5c5a3e</title>
<path fill="none" stroke="black" d="M76.71,-143.88C89.67,-134.89 105.73,-123.76 119.77,-114.03"/>
<polygon fill="black" stroke="black" points="121.97,-116.76 128.2,-108.19 117.98,-111.01 121.97,-116.76"/>
<g id="a_edge4&#45;headlabel"><a xlink:href="dir_000111_000053.html" target="_top" xlink:title="1">
<text text-anchor="middle" x="120.64" y="-118.64" font-family="Helvetica,sans-Serif" font-size="10.00">1</text>
</a>
</g>
</g>
<!-- dir_cab9f8330899b1cc9d753b1d9c5c5a3e&#45;&gt;dir_84ef7c054b4edc3447cfba80cee80f65 -->
<g id="edge1" class="edge">
<title>dir_cab9f8330899b1cc9d753b1d9c5c5a3e&#45;&gt;dir_84ef7c054b4edc3447cfba80cee80f65</title>
<path fill="none" stroke="black" d="M146.08,-71.7C142.93,-63.81 139.12,-54.3 135.62,-45.55"/>
<polygon fill="black" stroke="black" points="138.81,-44.09 131.84,-36.1 132.31,-46.69 138.81,-44.09"/>
<g id="a_edge1&#45;headlabel"><a xlink:href="dir_000053_000046.html" target="_top" xlink:title="4">
<text text-anchor="middle" x="142.78" y="-43.87" font-family="Helvetica,sans-Serif" font-size="10.00">4</text>
</a>
</g>
</g>
</g>
</svg>
