<?xml version="1.0" encoding="UTF-8" standalone="no"?>
<!DOCTYPE svg PUBLIC "-//W3C//DTD SVG 1.1//EN"
 "http://www.w3.org/Graphics/SVG/1.1/DTD/svg11.dtd">
<!-- Generated by graphviz version 2.43.0 (0)
 -->
<!-- Title: lib/Tools Pages: 1 -->
<svg width="1173pt" height="159pt"
 viewBox="0.00 0.00 1173.00 159.00" xmlns="http://www.w3.org/2000/svg" xmlns:xlink="http://www.w3.org/1999/xlink">
<g id="graph0" class="graph" transform="scale(1 1) rotate(0) translate(4 155)">
<title>lib/Tools</title>
<g id="clust1" class="cluster">
<title>clusterdir_97aefd0d527b934f1d99a682da8fe6a9</title>
<g id="a_clust1"><a xlink:href="dir_97aefd0d527b934f1d99a682da8fe6a9.html" target="_top" xlink:title="lib">
<polygon fill="#ddddee" stroke="black" points="8,-56 8,-143 1157,-143 1157,-56 8,-56"/>
<text text-anchor="middle" x="582.5" y="-131" font-family="Helvetica,sans-Serif" font-size="10.00">lib</text>
</a>
</g>
</g>
<g id="clust2" class="cluster">
<title>clusterdir_5fe0fdc1a37a7d35ef071fa3f129cdb7</title>
<g id="a_clust2"><a xlink:href="dir_5fe0fdc1a37a7d35ef071fa3f129cdb7.html" target="_top">
<polygon fill="#eeeeff" stroke="black" points="16,-64 16,-116 1149,-116 1149,-64 16,-64"/>
</a>
</g>
</g>
<!-- dir_5fe0fdc1a37a7d35ef071fa3f129cdb7 -->
<g id="node1" class="node">
<title>dir_5fe0fdc1a37a7d35ef071fa3f129cdb7</title>
<text text-anchor="middle" x="1114" y="-87.5" font-family="Helvetica,sans-Serif" font-size="10.00">Tools</text>
</g>
<!-- dir_226855af425eb2567125b585c7ae59f3 -->
<g id="node2" class="node">
<title>dir_226855af425eb2567125b585c7ae59f3</title>
<g id="a_node2"><a xlink:href="dir_226855af425eb2567125b585c7ae59f3.html" target="_top" xlink:title="lsp&#45;server&#45;support">
<polygon fill="white" stroke="black" points="1069,-108 963,-108 963,-72 1069,-72 1069,-108"/>
<text text-anchor="middle" x="1016" y="-87.5" font-family="Helvetica,sans-Serif" font-size="10.00">lsp&#45;server&#45;support</text>
</a>
</g>
</g>
<!-- dir_d44c64559bbebec7f509842c48db8b23 -->
<g id="node13" class="node">
<title>dir_d44c64559bbebec7f509842c48db8b23</title>
<g id="a_node13"><a xlink:href="dir_d44c64559bbebec7f509842c48db8b23.html" target="_top" xlink:title="include">
<polygon fill="none" stroke="red" points="540,-36 486,-36 486,0 540,0 540,-36"/>
<text text-anchor="middle" x="513" y="-15.5" font-family="Helvetica,sans-Serif" font-size="10.00">include</text>
</a>
</g>
</g>
<!-- dir_226855af425eb2567125b585c7ae59f3&#45;&gt;dir_d44c64559bbebec7f509842c48db8b23 -->
<g id="edge6" class="edge">
<title>dir_226855af425eb2567125b585c7ae59f3&#45;&gt;dir_d44c64559bbebec7f509842c48db8b23</title>
<path fill="none" stroke="black" d="M990.01,-71.87C979.55,-65.81 967.12,-59.61 955,-56 879.58,-33.52 642.8,-23.35 550.43,-20.16"/>
<polygon fill="black" stroke="black" points="550.27,-16.66 540.16,-19.82 550.03,-23.65 550.27,-16.66"/>
<g id="a_edge6&#45;headlabel"><a xlink:href="dir_000630_000001.html" target="_top" xlink:title="11">
<text text-anchor="middle" x="553.96" y="-11.44" font-family="Helvetica,sans-Serif" font-size="10.00">11</text>
</a>
</g>
</g>
<!-- dir_392451df496af73b56d10162ee31cf1b -->
<g id="node3" class="node">
<title>dir_392451df496af73b56d10162ee31cf1b</title>
<g id="a_node3"><a xlink:href="dir_392451df496af73b56d10162ee31cf1b.html" target="_top" xlink:title="mlir&#45;lsp&#45;server">
<polygon fill="white" stroke="black" points="945.5,-108 856.5,-108 856.5,-72 945.5,-72 945.5,-108"/>
<text text-anchor="middle" x="901" y="-87.5" font-family="Helvetica,sans-Serif" font-size="10.00">mlir&#45;lsp&#45;server</text>
</a>
</g>
</g>
<!-- dir_392451df496af73b56d10162ee31cf1b&#45;&gt;dir_d44c64559bbebec7f509842c48db8b23 -->
<g id="edge9" class="edge">
<title>dir_392451df496af73b56d10162ee31cf1b&#45;&gt;dir_d44c64559bbebec7f509842c48db8b23</title>
<path fill="none" stroke="black" d="M878.19,-72C868.96,-65.95 857.92,-59.73 847,-56 792.94,-37.52 626.08,-25.66 550.68,-21.11"/>
<polygon fill="black" stroke="black" points="550.43,-17.59 540.24,-20.49 550.02,-24.57 550.43,-17.59"/>
<g id="a_edge9&#45;headlabel"><a xlink:href="dir_000311_000001.html" target="_top" xlink:title="18">
<text text-anchor="middle" x="554.19" y="-12.46" font-family="Helvetica,sans-Serif" font-size="10.00">18</text>
</a>
</g>
</g>
<!-- dir_c91c57ebc13e90404af8d240ab8f5359 -->
<g id="node4" class="node">
<title>dir_c91c57ebc13e90404af8d240ab8f5359</title>
<g id="a_node4"><a xlink:href="dir_c91c57ebc13e90404af8d240ab8f5359.html" target="_top" xlink:title="mlir&#45;opt">
<polygon fill="white" stroke="black" points="838,-108 782,-108 782,-72 838,-72 838,-108"/>
<text text-anchor="middle" x="810" y="-87.5" font-family="Helvetica,sans-Serif" font-size="10.00">mlir&#45;opt</text>
</a>
</g>
</g>
<!-- dir_c91c57ebc13e90404af8d240ab8f5359&#45;&gt;dir_d44c64559bbebec7f509842c48db8b23 -->
<g id="edge10" class="edge">
<title>dir_c91c57ebc13e90404af8d240ab8f5359&#45;&gt;dir_d44c64559bbebec7f509842c48db8b23</title>
<path fill="none" stroke="black" d="M794.94,-71.9C788.75,-65.92 781.12,-59.77 773,-56 734.2,-37.98 612.59,-26.5 550.41,-21.65"/>
<polygon fill="black" stroke="black" points="550.48,-18.15 540.25,-20.88 549.95,-25.13 550.48,-18.15"/>
<g id="a_edge10&#45;headlabel"><a xlink:href="dir_000632_000001.html" target="_top" xlink:title="21">
<text text-anchor="middle" x="554.28" y="-13.09" font-family="Helvetica,sans-Serif" font-size="10.00">21</text>
</a>
</g>
</g>
<!-- dir_762695470d86fec7618c8ce8992f9820 -->
<g id="node5" class="node">
<title>dir_762695470d86fec7618c8ce8992f9820</title>
<g id="a_node5"><a xlink:href="dir_762695470d86fec7618c8ce8992f9820.html" target="_top" xlink:title="mlir&#45;pdll&#45;lsp&#45;server">
<polygon fill="white" stroke="black" points="764,-108 654,-108 654,-72 764,-72 764,-108"/>
<text text-anchor="middle" x="709" y="-87.5" font-family="Helvetica,sans-Serif" font-size="10.00">mlir&#45;pdll&#45;lsp&#45;server</text>
</a>
</g>
</g>
<!-- dir_762695470d86fec7618c8ce8992f9820&#45;&gt;dir_d44c64559bbebec7f509842c48db8b23 -->
<g id="edge8" class="edge">
<title>dir_762695470d86fec7618c8ce8992f9820&#45;&gt;dir_d44c64559bbebec7f509842c48db8b23</title>
<path fill="none" stroke="black" d="M678.98,-71.93C668.45,-66.37 656.4,-60.48 645,-56 613.67,-43.68 576.67,-33.68 549.83,-27.2"/>
<polygon fill="black" stroke="black" points="550.61,-23.78 540.07,-24.89 548.99,-30.6 550.61,-23.78"/>
<g id="a_edge8&#45;headlabel"><a xlink:href="dir_000312_000001.html" target="_top" xlink:title="23">
<text text-anchor="middle" x="554.76" y="-19.35" font-family="Helvetica,sans-Serif" font-size="10.00">23</text>
</a>
</g>
</g>
<!-- dir_0312c369fb6ad9f5a0e10d8e57ea30ad -->
<g id="node6" class="node">
<title>dir_0312c369fb6ad9f5a0e10d8e57ea30ad</title>
<g id="a_node6"><a xlink:href="dir_0312c369fb6ad9f5a0e10d8e57ea30ad.html" target="_top" xlink:title="mlir&#45;query">
<polygon fill="white" stroke="black" points="636,-108 568,-108 568,-72 636,-72 636,-108"/>
<text text-anchor="middle" x="602" y="-87.5" font-family="Helvetica,sans-Serif" font-size="10.00">mlir&#45;query</text>
</a>
</g>
</g>
<!-- dir_0312c369fb6ad9f5a0e10d8e57ea30ad&#45;&gt;dir_d44c64559bbebec7f509842c48db8b23 -->
<g id="edge2" class="edge">
<title>dir_0312c369fb6ad9f5a0e10d8e57ea30ad&#45;&gt;dir_d44c64559bbebec7f509842c48db8b23</title>
<path fill="none" stroke="black" d="M580,-71.7C568.79,-62.88 555,-52.03 542.85,-42.47"/>
<polygon fill="black" stroke="black" points="544.77,-39.54 534.75,-36.1 540.44,-45.04 544.77,-39.54"/>
<g id="a_edge2&#45;headlabel"><a xlink:href="dir_000633_000001.html" target="_top" xlink:title="6">
<text text-anchor="middle" x="549.35" y="-37.03" font-family="Helvetica,sans-Serif" font-size="10.00">6</text>
</a>
</g>
</g>
<!-- dir_dd5029a2a52db4f35070e71800b85be0 -->
<g id="node7" class="node">
<title>dir_dd5029a2a52db4f35070e71800b85be0</title>
<g id="a_node7"><a xlink:href="dir_dd5029a2a52db4f35070e71800b85be0.html" target="_top" xlink:title="mlir&#45;reduce">
<polygon fill="white" stroke="black" points="549.5,-108 476.5,-108 476.5,-72 549.5,-72 549.5,-108"/>
<text text-anchor="middle" x="513" y="-87.5" font-family="Helvetica,sans-Serif" font-size="10.00">mlir&#45;reduce</text>
</a>
</g>
</g>
<!-- dir_dd5029a2a52db4f35070e71800b85be0&#45;&gt;dir_d44c64559bbebec7f509842c48db8b23 -->
<g id="edge7" class="edge">
<title>dir_dd5029a2a52db4f35070e71800b85be0&#45;&gt;dir_d44c64559bbebec7f509842c48db8b23</title>
<path fill="none" stroke="black" d="M513,-71.7C513,-63.98 513,-54.71 513,-46.11"/>
<polygon fill="black" stroke="black" points="516.5,-46.1 513,-36.1 509.5,-46.1 516.5,-46.1"/>
<g id="a_edge7&#45;headlabel"><a xlink:href="dir_000634_000001.html" target="_top" xlink:title="6">
<text text-anchor="middle" x="519.34" y="-47.2" font-family="Helvetica,sans-Serif" font-size="10.00">6</text>
</a>
</g>
</g>
<!-- dir_add849a49420a91094c5549143746682 -->
<g id="node8" class="node">
<title>dir_add849a49420a91094c5549143746682</title>
<g id="a_node8"><a xlink:href="dir_add849a49420a91094c5549143746682.html" target="_top" xlink:title="mlir&#45;tblgen">
<polygon fill="white" stroke="black" points="458.5,-108 387.5,-108 387.5,-72 458.5,-72 458.5,-108"/>
<text text-anchor="middle" x="423" y="-87.5" font-family="Helvetica,sans-Serif" font-size="10.00">mlir&#45;tblgen</text>
</a>
</g>
</g>
<!-- dir_add849a49420a91094c5549143746682&#45;&gt;dir_d44c64559bbebec7f509842c48db8b23 -->
<g id="edge11" class="edge">
<title>dir_add849a49420a91094c5549143746682&#45;&gt;dir_d44c64559bbebec7f509842c48db8b23</title>
<path fill="none" stroke="black" d="M445.25,-71.7C456.58,-62.88 470.53,-52.03 482.82,-42.47"/>
<polygon fill="black" stroke="black" points="485.26,-45.01 491.01,-36.1 480.97,-39.48 485.26,-45.01"/>
<g id="a_edge11&#45;headlabel"><a xlink:href="dir_000635_000001.html" target="_top" xlink:title="3">
<text text-anchor="middle" x="484.17" y="-46.95" font-family="Helvetica,sans-Serif" font-size="10.00">3</text>
</a>
</g>
</g>
<!-- dir_6154a9e38a92bce93f9852302ff6c8a7 -->
<g id="node9" class="node">
<title>dir_6154a9e38a92bce93f9852302ff6c8a7</title>
<g id="a_node9"><a xlink:href="dir_6154a9e38a92bce93f9852302ff6c8a7.html" target="_top" xlink:title="mlir&#45;translate">
<polygon fill="white" stroke="black" points="369.5,-108 286.5,-108 286.5,-72 369.5,-72 369.5,-108"/>
<text text-anchor="middle" x="328" y="-87.5" font-family="Helvetica,sans-Serif" font-size="10.00">mlir&#45;translate</text>
</a>
</g>
</g>
<!-- dir_6154a9e38a92bce93f9852302ff6c8a7&#45;&gt;dir_d44c64559bbebec7f509842c48db8b23 -->
<g id="edge3" class="edge">
<title>dir_6154a9e38a92bce93f9852302ff6c8a7&#45;&gt;dir_d44c64559bbebec7f509842c48db8b23</title>
<path fill="none" stroke="black" d="M351.02,-71.98C359.49,-66.3 369.38,-60.32 379,-56 410.43,-41.89 448.48,-32.01 475.99,-26.03"/>
<polygon fill="black" stroke="black" points="476.92,-29.41 485.98,-23.93 475.48,-22.56 476.92,-29.41"/>
<g id="a_edge3&#45;headlabel"><a xlink:href="dir_000636_000001.html" target="_top" xlink:title="12">
<text text-anchor="middle" x="473.98" y="-30.43" font-family="Helvetica,sans-Serif" font-size="10.00">12</text>
</a>
</g>
</g>
<!-- dir_4f385138bafa35b701c64a4cf969f03c -->
<g id="node10" class="node">
<title>dir_4f385138bafa35b701c64a4cf969f03c</title>
<g id="a_node10"><a xlink:href="dir_4f385138bafa35b701c64a4cf969f03c.html" target="_top" xlink:title="PDLL">
<polygon fill="white" stroke="red" points="268,-108 214,-108 214,-72 268,-72 268,-108"/>
<text text-anchor="middle" x="241" y="-87.5" font-family="Helvetica,sans-Serif" font-size="10.00">PDLL</text>
</a>
</g>
</g>
<!-- dir_4f385138bafa35b701c64a4cf969f03c&#45;&gt;dir_d44c64559bbebec7f509842c48db8b23 -->
<g id="edge1" class="edge">
<title>dir_4f385138bafa35b701c64a4cf969f03c&#45;&gt;dir_d44c64559bbebec7f509842c48db8b23</title>
<path fill="none" stroke="black" d="M256.09,-71.97C262.29,-66 269.91,-59.83 278,-56 342.72,-25.35 427.57,-19.25 475.6,-18.5"/>
<polygon fill="black" stroke="black" points="475.87,-22 485.84,-18.41 475.81,-15 475.87,-22"/>
<g id="a_edge1&#45;headlabel"><a xlink:href="dir_000354_000001.html" target="_top" xlink:title="57">
<text text-anchor="middle" x="472.3" y="-22.37" font-family="Helvetica,sans-Serif" font-size="10.00">57</text>
</a>
</g>
</g>
<!-- dir_c2dbee3f215cf1fc3448e9107915507a -->
<g id="node11" class="node">
<title>dir_c2dbee3f215cf1fc3448e9107915507a</title>
<g id="a_node11"><a xlink:href="dir_c2dbee3f215cf1fc3448e9107915507a.html" target="_top" xlink:title="Plugins">
<polygon fill="white" stroke="black" points="196,-108 142,-108 142,-72 196,-72 196,-108"/>
<text text-anchor="middle" x="169" y="-87.5" font-family="Helvetica,sans-Serif" font-size="10.00">Plugins</text>
</a>
</g>
</g>
<!-- dir_c2dbee3f215cf1fc3448e9107915507a&#45;&gt;dir_d44c64559bbebec7f509842c48db8b23 -->
<g id="edge5" class="edge">
<title>dir_c2dbee3f215cf1fc3448e9107915507a&#45;&gt;dir_d44c64559bbebec7f509842c48db8b23</title>
<path fill="none" stroke="black" d="M183.53,-71.81C189.54,-65.82 196.99,-59.68 205,-56 252.36,-34.24 404.19,-24.23 475.43,-20.65"/>
<polygon fill="black" stroke="black" points="475.92,-24.13 485.73,-20.14 475.58,-17.13 475.92,-24.13"/>
<g id="a_edge5&#45;headlabel"><a xlink:href="dir_000638_000001.html" target="_top" xlink:title="2">
<text text-anchor="middle" x="472.46" y="-24.64" font-family="Helvetica,sans-Serif" font-size="10.00">2</text>
</a>
</g>
</g>
<!-- dir_dea1461af724965607419be398b3bcd0 -->
<g id="node12" class="node">
<title>dir_dea1461af724965607419be398b3bcd0</title>
<g id="a_node12"><a xlink:href="dir_dea1461af724965607419be398b3bcd0.html" target="_top" xlink:title="tblgen&#45;lsp&#45;server">
<polygon fill="white" stroke="black" points="124,-108 24,-108 24,-72 124,-72 124,-108"/>
<text text-anchor="middle" x="74" y="-87.5" font-family="Helvetica,sans-Serif" font-size="10.00">tblgen&#45;lsp&#45;server</text>
</a>
</g>
</g>
<!-- dir_dea1461af724965607419be398b3bcd0&#45;&gt;dir_d44c64559bbebec7f509842c48db8b23 -->
<g id="edge4" class="edge">
<title>dir_dea1461af724965607419be398b3bcd0&#45;&gt;dir_d44c64559bbebec7f509842c48db8b23</title>
<path fill="none" stroke="black" d="M99.09,-71.94C109.2,-65.9 121.24,-59.68 133,-56 196.33,-36.17 393.05,-24.72 475.76,-20.68"/>
<polygon fill="black" stroke="black" points="476.14,-24.17 485.96,-20.19 475.81,-17.17 476.14,-24.17"/>
<g id="a_edge4&#45;headlabel"><a xlink:href="dir_000631_000001.html" target="_top" xlink:title="12">
<text text-anchor="middle" x="472.69" y="-24.67" font-family="Helvetica,sans-Serif" font-size="10.00">12</text>
</a>
</g>
</g>
</g>
</svg>
