<?xml version="1.0" encoding="UTF-8" standalone="no"?>
<!DOCTYPE svg PUBLIC "-//W3C//DTD SVG 1.1//EN"
 "http://www.w3.org/Graphics/SVG/1.1/DTD/svg11.dtd">
<!-- Generated by graphviz version 2.43.0 (0)
 -->
<!-- Title: include/mlir/Interfaces Pages: 1 -->
<svg width="258pt" height="338pt"
 viewBox="0.00 0.00 258.00 338.10" xmlns="http://www.w3.org/2000/svg" xmlns:xlink="http://www.w3.org/1999/xlink">
<g id="graph0" class="graph" transform="scale(1 1) rotate(0) translate(4 334.1)">
<title>include/mlir/Interfaces</title>
<g id="clust1" class="cluster">
<title>clusterdir_5654f77406fb9ceec87e68ef828ceea2</title>
<g id="a_clust1"><a xlink:href="dir_5654f77406fb9ceec87e68ef828ceea2.html" target="_top" xlink:title="mlir">
<polygon fill="#ddddee" stroke="black" points="8,-8 8,-303 242,-303 242,-8 8,-8"/>
<text text-anchor="middle" x="125" y="-291" font-family="Helvetica,sans-Serif" font-size="10.00">mlir</text>
</a>
</g>
</g>
<g id="clust2" class="cluster">
<title>clusterdir_cf63c3ddb21c79ef735682489f4c6a69</title>
<g id="a_clust2"><a xlink:href="dir_cf63c3ddb21c79ef735682489f4c6a69.html" target="_top">
<polygon fill="#eeeeff" stroke="black" points="80,-224 80,-276 234,-276 234,-224 80,-224"/>
</a>
</g>
</g>
<!-- dir_444b57698294f6a80104968315903582 -->
<g id="node1" class="node">
<title>dir_444b57698294f6a80104968315903582</title>
<g id="a_node1"><a xlink:href="dir_444b57698294f6a80104968315903582.html" target="_top" xlink:title="Analysis">
<polygon fill="none" stroke="red" points="140,-196 82,-196 82,-160 140,-160 140,-196"/>
<text text-anchor="middle" x="111" y="-175.5" font-family="Helvetica,sans-Serif" font-size="10.00">Analysis</text>
</a>
</g>
</g>
<!-- dir_84ef7c054b4edc3447cfba80cee80f65 -->
<g id="node2" class="node">
<title>dir_84ef7c054b4edc3447cfba80cee80f65</title>
<g id="a_node2"><a xlink:href="dir_84ef7c054b4edc3447cfba80cee80f65.html" target="_top" xlink:title="IR">
<polygon fill="none" stroke="black" points="180,-124 126,-124 126,-88 180,-88 180,-124"/>
<text text-anchor="middle" x="153" y="-103.5" font-family="Helvetica,sans-Serif" font-size="10.00">IR</text>
</a>
</g>
</g>
<!-- dir_444b57698294f6a80104968315903582&#45;&gt;dir_84ef7c054b4edc3447cfba80cee80f65 -->
<g id="edge3" class="edge">
<title>dir_444b57698294f6a80104968315903582&#45;&gt;dir_84ef7c054b4edc3447cfba80cee80f65</title>
<path fill="none" stroke="black" d="M121.38,-159.7C126.26,-151.56 132.19,-141.69 137.58,-132.7"/>
<polygon fill="black" stroke="black" points="140.59,-134.48 142.74,-124.1 134.59,-130.88 140.59,-134.48"/>
<g id="a_edge3&#45;headlabel"><a xlink:href="dir_000009_000046.html" target="_top" xlink:title="12">
<text text-anchor="middle" x="141.18" y="-136.52" font-family="Helvetica,sans-Serif" font-size="10.00">12</text>
</a>
</g>
</g>
<!-- dir_f61d47671007dfdb592580b61f960d39 -->
<g id="node4" class="node">
<title>dir_f61d47671007dfdb592580b61f960d39</title>
<g id="a_node4"><a xlink:href="dir_f61d47671007dfdb592580b61f960d39.html" target="_top" xlink:title="Support">
<polygon fill="none" stroke="black" points="157,-52 103,-52 103,-16 157,-16 157,-52"/>
<text text-anchor="middle" x="130" y="-31.5" font-family="Helvetica,sans-Serif" font-size="10.00">Support</text>
</a>
</g>
</g>
<!-- dir_444b57698294f6a80104968315903582&#45;&gt;dir_f61d47671007dfdb592580b61f960d39 -->
<g id="edge4" class="edge">
<title>dir_444b57698294f6a80104968315903582&#45;&gt;dir_f61d47671007dfdb592580b61f960d39</title>
<path fill="none" stroke="black" d="M111.28,-159.84C111.77,-141.85 113.15,-112.79 117,-88 118.33,-79.44 120.36,-70.24 122.44,-61.94"/>
<polygon fill="black" stroke="black" points="125.88,-62.59 125.02,-52.03 119.11,-60.82 125.88,-62.59"/>
<g id="a_edge4&#45;headlabel"><a xlink:href="dir_000009_000288.html" target="_top" xlink:title="5">
<text text-anchor="middle" x="127.72" y="-64.29" font-family="Helvetica,sans-Serif" font-size="10.00">5</text>
</a>
</g>
</g>
<!-- dir_84ef7c054b4edc3447cfba80cee80f65&#45;&gt;dir_f61d47671007dfdb592580b61f960d39 -->
<g id="edge2" class="edge">
<title>dir_84ef7c054b4edc3447cfba80cee80f65&#45;&gt;dir_f61d47671007dfdb592580b61f960d39</title>
<path fill="none" stroke="black" d="M147.31,-87.7C144.75,-79.9 141.67,-70.51 138.82,-61.83"/>
<polygon fill="black" stroke="black" points="142.07,-60.51 135.62,-52.1 135.42,-62.7 142.07,-60.51"/>
<g id="a_edge2&#45;headlabel"><a xlink:href="dir_000046_000288.html" target="_top" xlink:title="23">
<text text-anchor="middle" x="145.89" y="-60.54" font-family="Helvetica,sans-Serif" font-size="10.00">23</text>
</a>
</g>
</g>
<!-- dir_cf63c3ddb21c79ef735682489f4c6a69 -->
<g id="node5" class="node">
<title>dir_cf63c3ddb21c79ef735682489f4c6a69</title>
<text text-anchor="middle" x="193" y="-247.5" font-family="Helvetica,sans-Serif" font-size="10.00">Interfaces</text>
</g>
<!-- dir_84ef7c054b4edc3447cfba80cee80f65&#45;&gt;dir_cf63c3ddb21c79ef735682489f4c6a69 -->
<g id="edge1" class="edge">
<title>dir_84ef7c054b4edc3447cfba80cee80f65&#45;&gt;dir_cf63c3ddb21c79ef735682489f4c6a69</title>
<path fill="none" stroke="black" d="M156.46,-124.21C160.23,-142.25 166.7,-171.34 174,-196 176.57,-204.66 179.76,-213.98 182.78,-222.35"/>
<polygon fill="black" stroke="black" points="179.59,-223.81 186.35,-231.98 186.16,-221.38 179.59,-223.81"/>
<g id="a_edge1&#45;headlabel"><a xlink:href="dir_000046_000279.html" target="_top" xlink:title="3">
<text text-anchor="middle" x="175.68" y="-218.92" font-family="Helvetica,sans-Serif" font-size="10.00">3</text>
</a>
</g>
</g>
<!-- dir_d07a6fac82475a065a3b2953573f00a0 -->
<g id="node3" class="node">
<title>dir_d07a6fac82475a065a3b2953573f00a0</title>
<g id="a_node3"><a xlink:href="dir_d07a6fac82475a065a3b2953573f00a0.html" target="_top" xlink:title="Dialect">
<polygon fill="none" stroke="red" points="70,-268 16,-268 16,-232 70,-232 70,-268"/>
<text text-anchor="middle" x="43" y="-247.5" font-family="Helvetica,sans-Serif" font-size="10.00">Dialect</text>
</a>
</g>
</g>
<!-- dir_d07a6fac82475a065a3b2953573f00a0&#45;&gt;dir_444b57698294f6a80104968315903582 -->
<g id="edge9" class="edge">
<title>dir_d07a6fac82475a065a3b2953573f00a0&#45;&gt;dir_444b57698294f6a80104968315903582</title>
<path fill="none" stroke="black" d="M59.81,-231.7C68.13,-223.14 78.31,-212.66 87.39,-203.3"/>
<polygon fill="black" stroke="black" points="89.93,-205.72 94.38,-196.1 84.91,-200.84 89.93,-205.72"/>
<g id="a_edge9&#45;headlabel"><a xlink:href="dir_000014_000009.html" target="_top" xlink:title="8">
<text text-anchor="middle" x="89.46" y="-207.77" font-family="Helvetica,sans-Serif" font-size="10.00">8</text>
</a>
</g>
</g>
<!-- dir_d07a6fac82475a065a3b2953573f00a0&#45;&gt;dir_84ef7c054b4edc3447cfba80cee80f65 -->
<g id="edge10" class="edge">
<title>dir_d07a6fac82475a065a3b2953573f00a0&#45;&gt;dir_84ef7c054b4edc3447cfba80cee80f65</title>
<path fill="none" stroke="black" d="M45.4,-231.69C48.79,-212.51 56.5,-181.46 73,-160 84.54,-144.98 101.61,-132.85 117.02,-124"/>
<polygon fill="black" stroke="black" points="118.75,-127.05 125.85,-119.18 115.39,-120.9 118.75,-127.05"/>
<g id="a_edge10&#45;headlabel"><a xlink:href="dir_000014_000046.html" target="_top" xlink:title="382">
<text text-anchor="middle" x="116.96" y="-128.76" font-family="Helvetica,sans-Serif" font-size="10.00">382</text>
</a>
</g>
</g>
<!-- dir_d07a6fac82475a065a3b2953573f00a0&#45;&gt;dir_f61d47671007dfdb592580b61f960d39 -->
<g id="edge11" class="edge">
<title>dir_d07a6fac82475a065a3b2953573f00a0&#45;&gt;dir_f61d47671007dfdb592580b61f960d39</title>
<path fill="none" stroke="black" d="M42.19,-231.78C41.86,-213.48 42.89,-183.95 51,-160 63.82,-122.15 90.26,-84.12 109.01,-60.12"/>
<polygon fill="black" stroke="black" points="111.79,-62.24 115.29,-52.24 106.32,-57.88 111.79,-62.24"/>
<g id="a_edge11&#45;headlabel"><a xlink:href="dir_000014_000288.html" target="_top" xlink:title="42">
<text text-anchor="middle" x="111.78" y="-64.32" font-family="Helvetica,sans-Serif" font-size="10.00">42</text>
</a>
</g>
</g>
<!-- dir_cf63c3ddb21c79ef735682489f4c6a69&#45;&gt;dir_444b57698294f6a80104968315903582 -->
<g id="edge5" class="edge">
<title>dir_cf63c3ddb21c79ef735682489f4c6a69&#45;&gt;dir_444b57698294f6a80104968315903582</title>
<path fill="none" stroke="black" d="M172.73,-231.7C162.5,-222.97 149.94,-212.24 138.82,-202.75"/>
<polygon fill="black" stroke="black" points="140.91,-199.94 131.04,-196.1 136.37,-205.26 140.91,-199.94"/>
<g id="a_edge5&#45;headlabel"><a xlink:href="dir_000279_000009.html" target="_top" xlink:title="1">
<text text-anchor="middle" x="145.49" y="-197.61" font-family="Helvetica,sans-Serif" font-size="10.00">1</text>
</a>
</g>
</g>
<!-- dir_cf63c3ddb21c79ef735682489f4c6a69&#45;&gt;dir_84ef7c054b4edc3447cfba80cee80f65 -->
<g id="edge6" class="edge">
<title>dir_cf63c3ddb21c79ef735682489f4c6a69&#45;&gt;dir_84ef7c054b4edc3447cfba80cee80f65</title>
<path fill="none" stroke="black" d="M190.19,-231.72C187.05,-213.63 181.41,-184.5 174,-160 171.36,-151.28 167.91,-141.99 164.57,-133.65"/>
<polygon fill="black" stroke="black" points="167.8,-132.31 160.75,-124.41 161.33,-134.98 167.8,-132.31"/>
<g id="a_edge6&#45;headlabel"><a xlink:href="dir_000279_000046.html" target="_top" xlink:title="54">
<text text-anchor="middle" x="171.8" y="-132.05" font-family="Helvetica,sans-Serif" font-size="10.00">54</text>
</a>
</g>
</g>
<!-- dir_cf63c3ddb21c79ef735682489f4c6a69&#45;&gt;dir_d07a6fac82475a065a3b2953573f00a0 -->
<g id="edge7" class="edge">
<title>dir_cf63c3ddb21c79ef735682489f4c6a69&#45;&gt;dir_d07a6fac82475a065a3b2953573f00a0</title>
<path fill="none" stroke="black" d="M185.83,-268.11C177.94,-285.27 163.47,-309.99 142,-321 119.46,-332.56 107.01,-333.55 85,-321 68.88,-311.8 58.31,-293.72 51.81,-278.11"/>
<polygon fill="black" stroke="black" points="54.92,-276.43 48.11,-268.32 48.38,-278.91 54.92,-276.43"/>
<g id="a_edge7&#45;headlabel"><a xlink:href="dir_000279_000014.html" target="_top" xlink:title="2">
<text text-anchor="middle" x="58.85" y="-276.29" font-family="Helvetica,sans-Serif" font-size="10.00">2</text>
</a>
</g>
</g>
<!-- dir_cf63c3ddb21c79ef735682489f4c6a69&#45;&gt;dir_f61d47671007dfdb592580b61f960d39 -->
<g id="edge8" class="edge">
<title>dir_cf63c3ddb21c79ef735682489f4c6a69&#45;&gt;dir_f61d47671007dfdb592580b61f960d39</title>
<path fill="none" stroke="black" d="M196.87,-231.55C202.76,-200.88 211.12,-135.99 189,-88 183.69,-76.47 174.55,-66.37 165.03,-58.17"/>
<polygon fill="black" stroke="black" points="167.01,-55.27 157.02,-51.74 162.62,-60.73 167.01,-55.27"/>
<g id="a_edge8&#45;headlabel"><a xlink:href="dir_000279_000288.html" target="_top" xlink:title="2">
<text text-anchor="middle" x="171.59" y="-52.81" font-family="Helvetica,sans-Serif" font-size="10.00">2</text>
</a>
</g>
</g>
<!-- dir_a185cafc86bde9601b0cb1d0f86282e3 -->
<g id="node6" class="node">
<title>dir_a185cafc86bde9601b0cb1d0f86282e3</title>
<g id="a_node6"><a xlink:href="dir_a185cafc86bde9601b0cb1d0f86282e3.html" target="_top" xlink:title="Utils">
<polygon fill="white" stroke="black" points="142,-268 88,-268 88,-232 142,-232 142,-268"/>
<text text-anchor="middle" x="115" y="-247.5" font-family="Helvetica,sans-Serif" font-size="10.00">Utils</text>
</a>
</g>
</g>
</g>
</svg>
