<?xml version="1.0" encoding="UTF-8" standalone="no"?>
<!DOCTYPE svg PUBLIC "-//W3C//DTD SVG 1.1//EN"
 "http://www.w3.org/Graphics/SVG/1.1/DTD/svg11.dtd">
<!-- Generated by graphviz version 2.43.0 (0)
 -->
<!-- Title: lib Pages: 1 -->
<svg width="1740pt" height="100pt"
 viewBox="0.00 0.00 1740.00 100.10" xmlns="http://www.w3.org/2000/svg" xmlns:xlink="http://www.w3.org/1999/xlink">
<g id="graph0" class="graph" transform="scale(1 1) rotate(0) translate(4 96.1)">
<title>lib</title>
<g id="clust1" class="cluster">
<title>clusterdir_97aefd0d527b934f1d99a682da8fe6a9</title>
<g id="a_clust1"><a xlink:href="dir_97aefd0d527b934f1d99a682da8fe6a9.html" target="_top">
<polygon fill="#edf0f7" stroke="#404040" stroke-width="2" points="8,-49.1 8,-84.1 1724,-84.1 1724,-49.1 8,-49.1"/>
</a>
</g>
</g>
<!-- dir_97aefd0d527b934f1d99a682da8fe6a9 -->
<g id="node1" class="node">
<title>dir_97aefd0d527b934f1d99a682da8fe6a9</title>
<text text-anchor="middle" x="1701" y="-64.1" font-family="Helvetica,sans-Serif" font-size="10.00">lib</text>
</g>
<!-- dir_d44c64559bbebec7f509842c48db8b23 -->
<g id="node25" class="node">
<title>dir_d44c64559bbebec7f509842c48db8b23</title>
<g id="a_node25"><a xlink:href="dir_d44c64559bbebec7f509842c48db8b23.html" target="_top" xlink:title="include">
<polygon fill="#edf0f7" stroke="red" points="893,-21.1 841,-21.1 841,-2.1 893,-2.1 893,-21.1"/>
<text text-anchor="middle" x="867" y="-9.1" font-family="Helvetica,sans-Serif" font-size="10.00">include</text>
</a>
</g>
</g>
<!-- dir_97aefd0d527b934f1d99a682da8fe6a9&#45;&gt;dir_d44c64559bbebec7f509842c48db8b23 -->
<g id="edge1" class="edge">
<title>dir_97aefd0d527b934f1d99a682da8fe6a9&#45;&gt;dir_d44c64559bbebec7f509842c48db8b23</title>
<g id="a_edge1"><a xlink:href="dir_000271_000163.html" target="_top">
<path fill="none" stroke="#63b8ff" d="M1691.41,-56.83C1687.53,-53.81 1682.83,-50.77 1678,-49.1 1604.35,-23.57 1052.41,-14.91 903.77,-13.02"/>
<polygon fill="#63b8ff" stroke="#63b8ff" points="903.43,-9.52 893.39,-12.89 903.34,-16.52 903.43,-9.52"/>
</a>
</g>
<g id="a_edge1&#45;headlabel"><a xlink:href="dir_000271_000163.html" target="_top" xlink:title="7766">
<text text-anchor="middle" x="907.06" y="-4.22" font-family="Helvetica,sans-Serif" font-size="10.00" fill="#63b8ff">7766</text>
</a>
</g>
</g>
<!-- dir_9818f9486d811ef3f2766ddf6783428e -->
<g id="node2" class="node">
<title>dir_9818f9486d811ef3f2766ddf6783428e</title>
<g id="a_node2"><a xlink:href="dir_9818f9486d811ef3f2766ddf6783428e.html" target="_top" xlink:title="ABI">
<polygon fill="#a2b4d6" stroke="#404040" points="1668.5,-76.1 1635.5,-76.1 1635.5,-57.1 1668.5,-57.1 1668.5,-76.1"/>
<text text-anchor="middle" x="1652" y="-64.1" font-family="Helvetica,sans-Serif" font-size="10.00">ABI</text>
</a>
</g>
</g>
<!-- dir_9818f9486d811ef3f2766ddf6783428e&#45;&gt;dir_d44c64559bbebec7f509842c48db8b23 -->
<g id="edge2" class="edge">
<title>dir_9818f9486d811ef3f2766ddf6783428e&#45;&gt;dir_d44c64559bbebec7f509842c48db8b23</title>
<g id="a_edge2"><a xlink:href="dir_000001_000163.html" target="_top">
<path fill="none" stroke="#63b8ff" d="M1641.25,-57.01C1636.79,-53.93 1631.4,-50.81 1626,-49.1 1556.82,-27.19 1045.92,-15.98 903.67,-13.26"/>
<polygon fill="#63b8ff" stroke="#63b8ff" points="903.38,-9.75 893.32,-13.07 903.25,-16.75 903.38,-9.75"/>
</a>
</g>
<g id="a_edge2&#45;headlabel"><a xlink:href="dir_000001_000163.html" target="_top" xlink:title="3">
<text text-anchor="middle" x="907.03" y="-4.48" font-family="Helvetica,sans-Serif" font-size="10.00" fill="#63b8ff">3</text>
</a>
</g>
</g>
<!-- dir_a25db018342d3ae6c7e6779086c18378 -->
<g id="node3" class="node">
<title>dir_a25db018342d3ae6c7e6779086c18378</title>
<g id="a_node3"><a xlink:href="dir_a25db018342d3ae6c7e6779086c18378.html" target="_top" xlink:title="Analysis">
<polygon fill="#a2b4d6" stroke="#404040" points="1617,-76.1 1559,-76.1 1559,-57.1 1617,-57.1 1617,-76.1"/>
<text text-anchor="middle" x="1588" y="-64.1" font-family="Helvetica,sans-Serif" font-size="10.00">Analysis</text>
</a>
</g>
</g>
<!-- dir_a25db018342d3ae6c7e6779086c18378&#45;&gt;dir_d44c64559bbebec7f509842c48db8b23 -->
<g id="edge3" class="edge">
<title>dir_a25db018342d3ae6c7e6779086c18378&#45;&gt;dir_d44c64559bbebec7f509842c48db8b23</title>
<g id="a_edge3"><a xlink:href="dir_000016_000163.html" target="_top">
<path fill="none" stroke="#63b8ff" d="M1571.79,-57.04C1565.21,-53.98 1557.42,-50.85 1550,-49.1 1425.34,-19.71 1025.82,-13.93 903.16,-12.84"/>
<polygon fill="#63b8ff" stroke="#63b8ff" points="903.18,-9.34 893.15,-12.76 903.12,-16.34 903.18,-9.34"/>
</a>
</g>
<g id="a_edge3&#45;headlabel"><a xlink:href="dir_000016_000163.html" target="_top" xlink:title="179">
<text text-anchor="middle" x="906.8" y="-4.03" font-family="Helvetica,sans-Serif" font-size="10.00" fill="#63b8ff">179</text>
</a>
</g>
</g>
<!-- dir_8b9cad5bda480d7b1ec1cf16287f7d91 -->
<g id="node4" class="node">
<title>dir_8b9cad5bda480d7b1ec1cf16287f7d91</title>
<g id="a_node4"><a xlink:href="dir_8b9cad5bda480d7b1ec1cf16287f7d91.html" target="_top" xlink:title="AsmParser">
<polygon fill="#a2b4d6" stroke="#404040" points="1541,-76.1 1473,-76.1 1473,-57.1 1541,-57.1 1541,-76.1"/>
<text text-anchor="middle" x="1507" y="-64.1" font-family="Helvetica,sans-Serif" font-size="10.00">AsmParser</text>
</a>
</g>
</g>
<!-- dir_8b9cad5bda480d7b1ec1cf16287f7d91&#45;&gt;dir_d44c64559bbebec7f509842c48db8b23 -->
<g id="edge4" class="edge">
<title>dir_8b9cad5bda480d7b1ec1cf16287f7d91&#45;&gt;dir_d44c64559bbebec7f509842c48db8b23</title>
<g id="a_edge4"><a xlink:href="dir_000054_000163.html" target="_top">
<path fill="none" stroke="#63b8ff" d="M1488.54,-57.09C1481.08,-54.03 1472.28,-50.9 1464,-49.1 1356.11,-25.68 1015.56,-15.98 903.29,-13.37"/>
<polygon fill="#63b8ff" stroke="#63b8ff" points="903.23,-9.87 893.16,-13.14 903.07,-16.87 903.23,-9.87"/>
</a>
</g>
<g id="a_edge4&#45;headlabel"><a xlink:href="dir_000054_000163.html" target="_top" xlink:title="82">
<text text-anchor="middle" x="906.89" y="-4.61" font-family="Helvetica,sans-Serif" font-size="10.00" fill="#63b8ff">82</text>
</a>
</g>
</g>
<!-- dir_9f56ffaf3d8f8de92886e7fdaecbdb83 -->
<g id="node5" class="node">
<title>dir_9f56ffaf3d8f8de92886e7fdaecbdb83</title>
<g id="a_node5"><a xlink:href="dir_9f56ffaf3d8f8de92886e7fdaecbdb83.html" target="_top" xlink:title="Bindings">
<polygon fill="#a2b4d6" stroke="#404040" points="1454.5,-76.1 1395.5,-76.1 1395.5,-57.1 1454.5,-57.1 1454.5,-76.1"/>
<text text-anchor="middle" x="1425" y="-64.1" font-family="Helvetica,sans-Serif" font-size="10.00">Bindings</text>
</a>
</g>
</g>
<!-- dir_9f56ffaf3d8f8de92886e7fdaecbdb83&#45;&gt;dir_d44c64559bbebec7f509842c48db8b23 -->
<g id="edge5" class="edge">
<title>dir_9f56ffaf3d8f8de92886e7fdaecbdb83&#45;&gt;dir_d44c64559bbebec7f509842c48db8b23</title>
<g id="a_edge5"><a xlink:href="dir_000063_000163.html" target="_top">
<path fill="none" stroke="#63b8ff" d="M1407.94,-56.94C1401.27,-53.94 1393.44,-50.88 1386,-49.1 1294.06,-27.06 1005.43,-16.66 903.27,-13.6"/>
<polygon fill="#63b8ff" stroke="#63b8ff" points="903.24,-10.1 893.15,-13.3 903.04,-17.09 903.24,-10.1"/>
</a>
</g>
<g id="a_edge5&#45;headlabel"><a xlink:href="dir_000063_000163.html" target="_top" xlink:title="154">
<text text-anchor="middle" x="906.92" y="-4.86" font-family="Helvetica,sans-Serif" font-size="10.00" fill="#63b8ff">154</text>
</a>
</g>
</g>
<!-- dir_c7a2665fd92b285ef0bce5685e7336ad -->
<g id="node6" class="node">
<title>dir_c7a2665fd92b285ef0bce5685e7336ad</title>
<g id="a_node6"><a xlink:href="dir_c7a2665fd92b285ef0bce5685e7336ad.html" target="_top" xlink:title="Bytecode">
<polygon fill="#a2b4d6" stroke="#404040" points="1377,-76.1 1315,-76.1 1315,-57.1 1377,-57.1 1377,-76.1"/>
<text text-anchor="middle" x="1346" y="-64.1" font-family="Helvetica,sans-Serif" font-size="10.00">Bytecode</text>
</a>
</g>
</g>
<!-- dir_c7a2665fd92b285ef0bce5685e7336ad&#45;&gt;dir_d44c64559bbebec7f509842c48db8b23 -->
<g id="edge6" class="edge">
<title>dir_c7a2665fd92b285ef0bce5685e7336ad&#45;&gt;dir_d44c64559bbebec7f509842c48db8b23</title>
<g id="a_edge6"><a xlink:href="dir_000073_000163.html" target="_top">
<path fill="none" stroke="#63b8ff" d="M1328.47,-57C1321.62,-54 1313.59,-50.93 1306,-49.1 1160.04,-13.83 979.74,-11.19 903.63,-11.88"/>
<polygon fill="#63b8ff" stroke="#63b8ff" points="903.13,-8.38 893.17,-12 903.21,-15.38 903.13,-8.38"/>
</a>
</g>
<g id="a_edge6&#45;headlabel"><a xlink:href="dir_000073_000163.html" target="_top" xlink:title="29">
<text text-anchor="middle" x="906.69" y="-3" font-family="Helvetica,sans-Serif" font-size="10.00" fill="#63b8ff">29</text>
</a>
</g>
</g>
<!-- dir_2333218f17efae3e90b6d759a11695c8 -->
<g id="node7" class="node">
<title>dir_2333218f17efae3e90b6d759a11695c8</title>
<g id="a_node7"><a xlink:href="dir_2333218f17efae3e90b6d759a11695c8.html" target="_top" xlink:title="CAPI">
<polygon fill="#a2b4d6" stroke="#404040" points="1296.5,-76.1 1257.5,-76.1 1257.5,-57.1 1296.5,-57.1 1296.5,-76.1"/>
<text text-anchor="middle" x="1277" y="-64.1" font-family="Helvetica,sans-Serif" font-size="10.00">CAPI</text>
</a>
</g>
</g>
<!-- dir_2333218f17efae3e90b6d759a11695c8&#45;&gt;dir_d44c64559bbebec7f509842c48db8b23 -->
<g id="edge7" class="edge">
<title>dir_2333218f17efae3e90b6d759a11695c8&#45;&gt;dir_d44c64559bbebec7f509842c48db8b23</title>
<g id="a_edge7"><a xlink:href="dir_000075_000163.html" target="_top">
<path fill="none" stroke="#63b8ff" d="M1265.01,-56.97C1260.25,-53.97 1254.58,-50.91 1249,-49.1 1185.26,-28.41 985.78,-17.7 903.28,-14.06"/>
<polygon fill="#63b8ff" stroke="#63b8ff" points="903.27,-10.55 893.12,-13.62 902.96,-17.55 903.27,-10.55"/>
</a>
</g>
<g id="a_edge7&#45;headlabel"><a xlink:href="dir_000075_000163.html" target="_top" xlink:title="399">
<text text-anchor="middle" x="906.98" y="-5.37" font-family="Helvetica,sans-Serif" font-size="10.00" fill="#63b8ff">399</text>
</a>
</g>
</g>
<!-- dir_fb3681dc9150b247305e64d29dbc20b7 -->
<g id="node8" class="node">
<title>dir_fb3681dc9150b247305e64d29dbc20b7</title>
<g id="a_node8"><a xlink:href="dir_fb3681dc9150b247305e64d29dbc20b7.html" target="_top" xlink:title="Conversion">
<polygon fill="#a2b4d6" stroke="#404040" points="1239.5,-76.1 1168.5,-76.1 1168.5,-57.1 1239.5,-57.1 1239.5,-76.1"/>
<text text-anchor="middle" x="1204" y="-64.1" font-family="Helvetica,sans-Serif" font-size="10.00">Conversion</text>
</a>
</g>
</g>
<!-- dir_fb3681dc9150b247305e64d29dbc20b7&#45;&gt;dir_d44c64559bbebec7f509842c48db8b23 -->
<g id="edge8" class="edge">
<title>dir_fb3681dc9150b247305e64d29dbc20b7&#45;&gt;dir_d44c64559bbebec7f509842c48db8b23</title>
<g id="a_edge8"><a xlink:href="dir_000102_000163.html" target="_top">
<path fill="none" stroke="#63b8ff" d="M1183.69,-57.04C1176.07,-54.12 1167.25,-51.1 1159,-49.1 1068.51,-27.16 958.87,-17.96 903.21,-14.48"/>
<polygon fill="#63b8ff" stroke="#63b8ff" points="903.33,-10.98 893.14,-13.87 902.91,-17.97 903.33,-10.98"/>
</a>
</g>
<g id="a_edge8&#45;headlabel"><a xlink:href="dir_000102_000163.html" target="_top" xlink:title="1222">
<text text-anchor="middle" x="907.09" y="-5.86" font-family="Helvetica,sans-Serif" font-size="10.00" fill="#63b8ff">1222</text>
</a>
</g>
</g>
<!-- dir_16b3056ea5a4b7dd24fe79c68bb88bcd -->
<g id="node9" class="node">
<title>dir_16b3056ea5a4b7dd24fe79c68bb88bcd</title>
<g id="a_node9"><a xlink:href="dir_16b3056ea5a4b7dd24fe79c68bb88bcd.html" target="_top" xlink:title="Debug">
<polygon fill="#a2b4d6" stroke="#404040" points="1150,-76.1 1102,-76.1 1102,-57.1 1150,-57.1 1150,-76.1"/>
<text text-anchor="middle" x="1126" y="-64.1" font-family="Helvetica,sans-Serif" font-size="10.00">Debug</text>
</a>
</g>
</g>
<!-- dir_16b3056ea5a4b7dd24fe79c68bb88bcd&#45;&gt;dir_d44c64559bbebec7f509842c48db8b23 -->
<g id="edge9" class="edge">
<title>dir_16b3056ea5a4b7dd24fe79c68bb88bcd&#45;&gt;dir_d44c64559bbebec7f509842c48db8b23</title>
<g id="a_edge9"><a xlink:href="dir_000113_000163.html" target="_top">
<path fill="none" stroke="#63b8ff" d="M1111.29,-57.05C1105.72,-54.13 1099.22,-51.1 1093,-49.1 1028.04,-28.15 948.53,-18.88 903.23,-15.05"/>
<polygon fill="#63b8ff" stroke="#63b8ff" points="903.26,-11.54 893.01,-14.23 902.7,-18.52 903.26,-11.54"/>
</a>
</g>
<g id="a_edge9&#45;headlabel"><a xlink:href="dir_000113_000163.html" target="_top" xlink:title="20">
<text text-anchor="middle" x="907.07" y="-6.5" font-family="Helvetica,sans-Serif" font-size="10.00" fill="#63b8ff">20</text>
</a>
</g>
</g>
<!-- dir_1a25ec519b6c1121408b67cc33ce3f15 -->
<g id="node10" class="node">
<title>dir_1a25ec519b6c1121408b67cc33ce3f15</title>
<g id="a_node10"><a xlink:href="dir_1a25ec519b6c1121408b67cc33ce3f15.html" target="_top" xlink:title="Dialect">
<polygon fill="#a2b4d6" stroke="#404040" points="1083.5,-76.1 1032.5,-76.1 1032.5,-57.1 1083.5,-57.1 1083.5,-76.1"/>
<text text-anchor="middle" x="1058" y="-64.1" font-family="Helvetica,sans-Serif" font-size="10.00">Dialect</text>
</a>
</g>
</g>
<!-- dir_1a25ec519b6c1121408b67cc33ce3f15&#45;&gt;dir_d44c64559bbebec7f509842c48db8b23 -->
<g id="edge10" class="edge">
<title>dir_1a25ec519b6c1121408b67cc33ce3f15&#45;&gt;dir_d44c64559bbebec7f509842c48db8b23</title>
<g id="a_edge10"><a xlink:href="dir_000123_000163.html" target="_top">
<path fill="none" stroke="#63b8ff" d="M1042.06,-56.95C1036.46,-54.16 1030.06,-51.24 1024,-49.1 983.53,-34.78 935.19,-24.51 902.94,-18.59"/>
<polygon fill="#63b8ff" stroke="#63b8ff" points="903.53,-15.14 893.07,-16.82 902.29,-22.03 903.53,-15.14"/>
</a>
</g>
<g id="a_edge10&#45;headlabel"><a xlink:href="dir_000123_000163.html" target="_top" xlink:title="4407">
<text text-anchor="middle" x="907.57" y="-10.48" font-family="Helvetica,sans-Serif" font-size="10.00" fill="#63b8ff">4407</text>
</a>
</g>
</g>
<!-- dir_9ff4c6dc1720636682ab045c894e9bc5 -->
<g id="node11" class="node">
<title>dir_9ff4c6dc1720636682ab045c894e9bc5</title>
<g id="a_node11"><a xlink:href="dir_9ff4c6dc1720636682ab045c894e9bc5.html" target="_top" xlink:title="ExecutionEngine">
<polygon fill="#a2b4d6" stroke="#404040" points="1014.5,-76.1 917.5,-76.1 917.5,-57.1 1014.5,-57.1 1014.5,-76.1"/>
<text text-anchor="middle" x="966" y="-64.1" font-family="Helvetica,sans-Serif" font-size="10.00">ExecutionEngine</text>
</a>
</g>
</g>
<!-- dir_9ff4c6dc1720636682ab045c894e9bc5&#45;&gt;dir_d44c64559bbebec7f509842c48db8b23 -->
<g id="edge11" class="edge">
<title>dir_9ff4c6dc1720636682ab045c894e9bc5&#45;&gt;dir_d44c64559bbebec7f509842c48db8b23</title>
<g id="a_edge11"><a xlink:href="dir_000134_000163.html" target="_top">
<path fill="none" stroke="#63b8ff" d="M950.09,-57.08C934.45,-48.71 910.34,-35.8 892.12,-26.04"/>
<polygon fill="#63b8ff" stroke="#63b8ff" points="893.66,-22.9 883.2,-21.27 890.36,-29.07 893.66,-22.9"/>
</a>
</g>
<g id="a_edge11&#45;headlabel"><a xlink:href="dir_000134_000163.html" target="_top" xlink:title="29">
<text text-anchor="middle" x="898.17" y="-19.6" font-family="Helvetica,sans-Serif" font-size="10.00" fill="#63b8ff">29</text>
</a>
</g>
</g>
<!-- dir_245813bd18e50524b735948a806de767 -->
<g id="node12" class="node">
<title>dir_245813bd18e50524b735948a806de767</title>
<g id="a_node12"><a xlink:href="dir_245813bd18e50524b735948a806de767.html" target="_top" xlink:title="Interfaces">
<polygon fill="#a2b4d6" stroke="#404040" points="899.5,-76.1 834.5,-76.1 834.5,-57.1 899.5,-57.1 899.5,-76.1"/>
<text text-anchor="middle" x="867" y="-64.1" font-family="Helvetica,sans-Serif" font-size="10.00">Interfaces</text>
</a>
</g>
</g>
<!-- dir_245813bd18e50524b735948a806de767&#45;&gt;dir_d44c64559bbebec7f509842c48db8b23 -->
<g id="edge12" class="edge">
<title>dir_245813bd18e50524b735948a806de767&#45;&gt;dir_d44c64559bbebec7f509842c48db8b23</title>
<g id="a_edge12"><a xlink:href="dir_000182_000163.html" target="_top">
<path fill="none" stroke="#63b8ff" d="M867,-56.85C867,-49.9 867,-39.94 867,-31.23"/>
<polygon fill="#63b8ff" stroke="#63b8ff" points="870.5,-31.19 867,-21.19 863.5,-31.19 870.5,-31.19"/>
</a>
</g>
<g id="a_edge12&#45;headlabel"><a xlink:href="dir_000182_000163.html" target="_top" xlink:title="64">
<text text-anchor="middle" x="873.34" y="-32.28" font-family="Helvetica,sans-Serif" font-size="10.00" fill="#63b8ff">64</text>
</a>
</g>
</g>
<!-- dir_bfcfa2223a05221bedc89835a6573260 -->
<g id="node13" class="node">
<title>dir_bfcfa2223a05221bedc89835a6573260</title>
<g id="a_node13"><a xlink:href="dir_bfcfa2223a05221bedc89835a6573260.html" target="_top" xlink:title="IR">
<polygon fill="#a2b4d6" stroke="#404040" points="816.5,-76.1 787.5,-76.1 787.5,-57.1 816.5,-57.1 816.5,-76.1"/>
<text text-anchor="middle" x="802" y="-64.1" font-family="Helvetica,sans-Serif" font-size="10.00">IR</text>
</a>
</g>
</g>
<!-- dir_bfcfa2223a05221bedc89835a6573260&#45;&gt;dir_d44c64559bbebec7f509842c48db8b23 -->
<g id="edge13" class="edge">
<title>dir_bfcfa2223a05221bedc89835a6573260&#45;&gt;dir_d44c64559bbebec7f509842c48db8b23</title>
<g id="a_edge13"><a xlink:href="dir_000264_000163.html" target="_top">
<path fill="none" stroke="#63b8ff" d="M812.44,-57.08C822.15,-49.17 836.82,-37.21 848.5,-27.68"/>
<polygon fill="#63b8ff" stroke="#63b8ff" points="850.83,-30.3 856.37,-21.27 846.4,-24.88 850.83,-30.3"/>
</a>
</g>
<g id="a_edge13&#45;headlabel"><a xlink:href="dir_000264_000163.html" target="_top" xlink:title="215">
<text text-anchor="middle" x="849.84" y="-32.27" font-family="Helvetica,sans-Serif" font-size="10.00" fill="#63b8ff">215</text>
</a>
</g>
</g>
<!-- dir_99640a276a3556821bf5584138fc69f5 -->
<g id="node14" class="node">
<title>dir_99640a276a3556821bf5584138fc69f5</title>
<g id="a_node14"><a xlink:href="dir_99640a276a3556821bf5584138fc69f5.html" target="_top" xlink:title="Parser">
<polygon fill="#a2b4d6" stroke="#404040" points="769.5,-76.1 722.5,-76.1 722.5,-57.1 769.5,-57.1 769.5,-76.1"/>
<text text-anchor="middle" x="746" y="-64.1" font-family="Helvetica,sans-Serif" font-size="10.00">Parser</text>
</a>
</g>
</g>
<!-- dir_3ea98e05b8f742bc4c307dbc2eccb9b2 -->
<g id="node15" class="node">
<title>dir_3ea98e05b8f742bc4c307dbc2eccb9b2</title>
<g id="a_node15"><a xlink:href="dir_3ea98e05b8f742bc4c307dbc2eccb9b2.html" target="_top" xlink:title="Pass">
<polygon fill="#a2b4d6" stroke="#404040" points="704,-76.1 666,-76.1 666,-57.1 704,-57.1 704,-76.1"/>
<text text-anchor="middle" x="685" y="-64.1" font-family="Helvetica,sans-Serif" font-size="10.00">Pass</text>
</a>
</g>
</g>
<!-- dir_3ea98e05b8f742bc4c307dbc2eccb9b2&#45;&gt;dir_d44c64559bbebec7f509842c48db8b23 -->
<g id="edge14" class="edge">
<title>dir_3ea98e05b8f742bc4c307dbc2eccb9b2&#45;&gt;dir_d44c64559bbebec7f509842c48db8b23</title>
<g id="a_edge14"><a xlink:href="dir_000378_000163.html" target="_top">
<path fill="none" stroke="#63b8ff" d="M698.18,-57.05C703.01,-54.21 708.61,-51.22 714,-49.1 752.57,-33.88 799.21,-23.88 830.78,-18.25"/>
<polygon fill="#63b8ff" stroke="#63b8ff" points="831.61,-21.66 840.87,-16.51 830.42,-14.76 831.61,-21.66"/>
</a>
</g>
<g id="a_edge14&#45;headlabel"><a xlink:href="dir_000378_000163.html" target="_top" xlink:title="28">
<text text-anchor="middle" x="828.55" y="-22.57" font-family="Helvetica,sans-Serif" font-size="10.00" fill="#63b8ff">28</text>
</a>
</g>
</g>
<!-- dir_42c36725764a0e0af860c1afb7c770a9 -->
<g id="node16" class="node">
<title>dir_42c36725764a0e0af860c1afb7c770a9</title>
<g id="a_node16"><a xlink:href="dir_42c36725764a0e0af860c1afb7c770a9.html" target="_top" xlink:title="Query">
<polygon fill="#a2b4d6" stroke="#404040" points="648,-76.1 602,-76.1 602,-57.1 648,-57.1 648,-76.1"/>
<text text-anchor="middle" x="625" y="-64.1" font-family="Helvetica,sans-Serif" font-size="10.00">Query</text>
</a>
</g>
</g>
<!-- dir_42c36725764a0e0af860c1afb7c770a9&#45;&gt;dir_d44c64559bbebec7f509842c48db8b23 -->
<g id="edge15" class="edge">
<title>dir_42c36725764a0e0af860c1afb7c770a9&#45;&gt;dir_d44c64559bbebec7f509842c48db8b23</title>
<g id="a_edge15"><a xlink:href="dir_000412_000163.html" target="_top">
<path fill="none" stroke="#63b8ff" d="M639.25,-57.07C644.65,-54.16 650.96,-51.13 657,-49.1 716.02,-29.27 788.16,-19.74 830.69,-15.54"/>
<polygon fill="#63b8ff" stroke="#63b8ff" points="831.21,-19 840.84,-14.58 830.55,-12.03 831.21,-19"/>
</a>
</g>
<g id="a_edge15&#45;headlabel"><a xlink:href="dir_000412_000163.html" target="_top" xlink:title="18">
<text text-anchor="middle" x="827.9" y="-19.67" font-family="Helvetica,sans-Serif" font-size="10.00" fill="#63b8ff">18</text>
</a>
</g>
</g>
<!-- dir_7ef8f4f434f26620b3fad6cfad93e8c3 -->
<g id="node17" class="node">
<title>dir_7ef8f4f434f26620b3fad6cfad93e8c3</title>
<g id="a_node17"><a xlink:href="dir_7ef8f4f434f26620b3fad6cfad93e8c3.html" target="_top" xlink:title="Reducer">
<polygon fill="#a2b4d6" stroke="#404040" points="584,-76.1 528,-76.1 528,-57.1 584,-57.1 584,-76.1"/>
<text text-anchor="middle" x="556" y="-64.1" font-family="Helvetica,sans-Serif" font-size="10.00">Reducer</text>
</a>
</g>
</g>
<!-- dir_7ef8f4f434f26620b3fad6cfad93e8c3&#45;&gt;dir_d44c64559bbebec7f509842c48db8b23 -->
<g id="edge16" class="edge">
<title>dir_7ef8f4f434f26620b3fad6cfad93e8c3&#45;&gt;dir_d44c64559bbebec7f509842c48db8b23</title>
<g id="a_edge16"><a xlink:href="dir_000419_000163.html" target="_top">
<path fill="none" stroke="#63b8ff" d="M572.57,-56.99C578.82,-54.07 586.1,-51.05 593,-49.1 675.94,-25.61 777.39,-17.11 830.53,-14.13"/>
<polygon fill="#63b8ff" stroke="#63b8ff" points="831.01,-17.62 840.81,-13.59 830.64,-10.62 831.01,-17.62"/>
</a>
</g>
<g id="a_edge16&#45;headlabel"><a xlink:href="dir_000419_000163.html" target="_top" xlink:title="15">
<text text-anchor="middle" x="827.57" y="-18.14" font-family="Helvetica,sans-Serif" font-size="10.00" fill="#63b8ff">15</text>
</a>
</g>
</g>
<!-- dir_dc79e1740c4e6097701f04068f89b443 -->
<g id="node18" class="node">
<title>dir_dc79e1740c4e6097701f04068f89b443</title>
<g id="a_node18"><a xlink:href="dir_dc79e1740c4e6097701f04068f89b443.html" target="_top" xlink:title="Remark">
<polygon fill="#a2b4d6" stroke="#404040" points="509.5,-76.1 454.5,-76.1 454.5,-57.1 509.5,-57.1 509.5,-76.1"/>
<text text-anchor="middle" x="482" y="-64.1" font-family="Helvetica,sans-Serif" font-size="10.00">Remark</text>
</a>
</g>
</g>
<!-- dir_dc79e1740c4e6097701f04068f89b443&#45;&gt;dir_d44c64559bbebec7f509842c48db8b23 -->
<g id="edge17" class="edge">
<title>dir_dc79e1740c4e6097701f04068f89b443&#45;&gt;dir_d44c64559bbebec7f509842c48db8b23</title>
<g id="a_edge17"><a xlink:href="dir_000422_000163.html" target="_top">
<path fill="none" stroke="#63b8ff" d="M498.17,-57.06C504.5,-54.07 511.93,-50.99 519,-49.1 629.88,-19.36 766.7,-13.64 830.73,-12.68"/>
<polygon fill="#63b8ff" stroke="#63b8ff" points="830.78,-16.18 840.73,-12.56 830.69,-9.18 830.78,-16.18"/>
</a>
</g>
<g id="a_edge17&#45;headlabel"><a xlink:href="dir_000422_000163.html" target="_top" xlink:title="3">
<text text-anchor="middle" x="827.22" y="-16.56" font-family="Helvetica,sans-Serif" font-size="10.00" fill="#63b8ff">3</text>
</a>
</g>
</g>
<!-- dir_c79b3ca8dc7b7126169a5161d97c17bc -->
<g id="node19" class="node">
<title>dir_c79b3ca8dc7b7126169a5161d97c17bc</title>
<g id="a_node19"><a xlink:href="dir_c79b3ca8dc7b7126169a5161d97c17bc.html" target="_top" xlink:title="Rewrite">
<polygon fill="#a2b4d6" stroke="#404040" points="436,-76.1 382,-76.1 382,-57.1 436,-57.1 436,-76.1"/>
<text text-anchor="middle" x="409" y="-64.1" font-family="Helvetica,sans-Serif" font-size="10.00">Rewrite</text>
</a>
</g>
</g>
<!-- dir_c79b3ca8dc7b7126169a5161d97c17bc&#45;&gt;dir_d44c64559bbebec7f509842c48db8b23 -->
<g id="edge18" class="edge">
<title>dir_c79b3ca8dc7b7126169a5161d97c17bc&#45;&gt;dir_d44c64559bbebec7f509842c48db8b23</title>
<g id="a_edge18"><a xlink:href="dir_000424_000163.html" target="_top">
<path fill="none" stroke="#63b8ff" d="M425.15,-56.99C431.48,-54 438.92,-50.93 446,-49.1 518.44,-30.37 742.68,-18.32 830.86,-14.19"/>
<polygon fill="#63b8ff" stroke="#63b8ff" points="831.09,-17.68 840.92,-13.72 830.77,-10.69 831.09,-17.68"/>
</a>
</g>
<g id="a_edge18&#45;headlabel"><a xlink:href="dir_000424_000163.html" target="_top" xlink:title="10">
<text text-anchor="middle" x="827.63" y="-18.18" font-family="Helvetica,sans-Serif" font-size="10.00" fill="#63b8ff">10</text>
</a>
</g>
</g>
<!-- dir_f0dc79bace318df7ec0fa0bdb179ed95 -->
<g id="node20" class="node">
<title>dir_f0dc79bace318df7ec0fa0bdb179ed95</title>
<g id="a_node20"><a xlink:href="dir_f0dc79bace318df7ec0fa0bdb179ed95.html" target="_top" xlink:title="Support">
<polygon fill="#a2b4d6" stroke="#404040" points="364,-76.1 310,-76.1 310,-57.1 364,-57.1 364,-76.1"/>
<text text-anchor="middle" x="337" y="-64.1" font-family="Helvetica,sans-Serif" font-size="10.00">Support</text>
</a>
</g>
</g>
<!-- dir_f0dc79bace318df7ec0fa0bdb179ed95&#45;&gt;dir_d44c64559bbebec7f509842c48db8b23 -->
<g id="edge19" class="edge">
<title>dir_f0dc79bace318df7ec0fa0bdb179ed95&#45;&gt;dir_d44c64559bbebec7f509842c48db8b23</title>
<g id="a_edge19"><a xlink:href="dir_000471_000163.html" target="_top">
<path fill="none" stroke="#63b8ff" d="M352.68,-56.94C358.84,-53.94 366.08,-50.88 373,-49.1 459.69,-26.8 732.03,-16.63 830.78,-13.61"/>
<polygon fill="#63b8ff" stroke="#63b8ff" points="830.98,-17.11 840.87,-13.31 830.77,-10.11 830.98,-17.11"/>
</a>
</g>
<g id="a_edge19&#45;headlabel"><a xlink:href="dir_000471_000163.html" target="_top" xlink:title="14">
<text text-anchor="middle" x="827.47" y="-17.55" font-family="Helvetica,sans-Serif" font-size="10.00" fill="#63b8ff">14</text>
</a>
</g>
</g>
<!-- dir_c06f24fb33ff4a816b120f93e814fbca -->
<g id="node21" class="node">
<title>dir_c06f24fb33ff4a816b120f93e814fbca</title>
<g id="a_node21"><a xlink:href="dir_c06f24fb33ff4a816b120f93e814fbca.html" target="_top" xlink:title="TableGen">
<polygon fill="#a2b4d6" stroke="#404040" points="292,-76.1 230,-76.1 230,-57.1 292,-57.1 292,-76.1"/>
<text text-anchor="middle" x="261" y="-64.1" font-family="Helvetica,sans-Serif" font-size="10.00">TableGen</text>
</a>
</g>
</g>
<!-- dir_c06f24fb33ff4a816b120f93e814fbca&#45;&gt;dir_d44c64559bbebec7f509842c48db8b23 -->
<g id="edge20" class="edge">
<title>dir_c06f24fb33ff4a816b120f93e814fbca&#45;&gt;dir_d44c64559bbebec7f509842c48db8b23</title>
<g id="a_edge20"><a xlink:href="dir_000473_000163.html" target="_top">
<path fill="none" stroke="#63b8ff" d="M278.12,-57.09C285.05,-54.04 293.24,-50.9 301,-49.1 402.42,-25.59 722.47,-16.01 830.77,-13.39"/>
<polygon fill="#63b8ff" stroke="#63b8ff" points="830.95,-16.89 840.87,-13.15 830.79,-9.89 830.95,-16.89"/>
</a>
</g>
<g id="a_edge20&#45;headlabel"><a xlink:href="dir_000473_000163.html" target="_top" xlink:title="43">
<text text-anchor="middle" x="827.43" y="-17.31" font-family="Helvetica,sans-Serif" font-size="10.00" fill="#63b8ff">43</text>
</a>
</g>
</g>
<!-- dir_794e483eb1cc7921d35fd149d9cc325b -->
<g id="node22" class="node">
<title>dir_794e483eb1cc7921d35fd149d9cc325b</title>
<g id="a_node22"><a xlink:href="dir_794e483eb1cc7921d35fd149d9cc325b.html" target="_top" xlink:title="Target">
<polygon fill="#a2b4d6" stroke="#404040" points="211.5,-76.1 164.5,-76.1 164.5,-57.1 211.5,-57.1 211.5,-76.1"/>
<text text-anchor="middle" x="188" y="-64.1" font-family="Helvetica,sans-Serif" font-size="10.00">Target</text>
</a>
</g>
</g>
<!-- dir_794e483eb1cc7921d35fd149d9cc325b&#45;&gt;dir_d44c64559bbebec7f509842c48db8b23 -->
<g id="edge21" class="edge">
<title>dir_794e483eb1cc7921d35fd149d9cc325b&#45;&gt;dir_d44c64559bbebec7f509842c48db8b23</title>
<g id="a_edge21"><a xlink:href="dir_000477_000163.html" target="_top">
<path fill="none" stroke="#63b8ff" d="M201.95,-57.04C207.65,-53.97 214.44,-50.84 221,-49.1 337.44,-18.12 712.37,-13.43 830.8,-12.72"/>
<polygon fill="#63b8ff" stroke="#63b8ff" points="830.82,-16.22 840.8,-12.67 830.78,-9.22 830.82,-16.22"/>
</a>
</g>
<g id="a_edge21&#45;headlabel"><a xlink:href="dir_000477_000163.html" target="_top" xlink:title="309">
<text text-anchor="middle" x="827.24" y="-16.58" font-family="Helvetica,sans-Serif" font-size="10.00" fill="#63b8ff">309</text>
</a>
</g>
</g>
<!-- dir_5fe0fdc1a37a7d35ef071fa3f129cdb7 -->
<g id="node23" class="node">
<title>dir_5fe0fdc1a37a7d35ef071fa3f129cdb7</title>
<g id="a_node23"><a xlink:href="dir_5fe0fdc1a37a7d35ef071fa3f129cdb7.html" target="_top" xlink:title="Tools">
<polygon fill="#a2b4d6" stroke="#404040" points="146.5,-76.1 105.5,-76.1 105.5,-57.1 146.5,-57.1 146.5,-76.1"/>
<text text-anchor="middle" x="126" y="-64.1" font-family="Helvetica,sans-Serif" font-size="10.00">Tools</text>
</a>
</g>
</g>
<!-- dir_5fe0fdc1a37a7d35ef071fa3f129cdb7&#45;&gt;dir_d44c64559bbebec7f509842c48db8b23 -->
<g id="edge22" class="edge">
<title>dir_5fe0fdc1a37a7d35ef071fa3f129cdb7&#45;&gt;dir_d44c64559bbebec7f509842c48db8b23</title>
<g id="a_edge22"><a xlink:href="dir_000491_000163.html" target="_top">
<path fill="none" stroke="#63b8ff" d="M138.59,-57.02C143.75,-53.95 149.94,-50.82 156,-49.1 284.66,-12.51 704.01,-11.7 830.53,-12.32"/>
<polygon fill="#63b8ff" stroke="#63b8ff" points="830.81,-15.82 840.83,-12.38 830.85,-8.82 830.81,-15.82"/>
</a>
</g>
<g id="a_edge22&#45;headlabel"><a xlink:href="dir_000491_000163.html" target="_top" xlink:title="148">
<text text-anchor="middle" x="827.2" y="-16.14" font-family="Helvetica,sans-Serif" font-size="10.00" fill="#63b8ff">148</text>
</a>
</g>
</g>
<!-- dir_a72932e0778af28115095468f6286ff8 -->
<g id="node24" class="node">
<title>dir_a72932e0778af28115095468f6286ff8</title>
<g id="a_node24"><a xlink:href="dir_a72932e0778af28115095468f6286ff8.html" target="_top" xlink:title="Transforms">
<polygon fill="#a2b4d6" stroke="#404040" points="87.5,-76.1 16.5,-76.1 16.5,-57.1 87.5,-57.1 87.5,-76.1"/>
<text text-anchor="middle" x="52" y="-64.1" font-family="Helvetica,sans-Serif" font-size="10.00">Transforms</text>
</a>
</g>
</g>
<!-- dir_a72932e0778af28115095468f6286ff8&#45;&gt;dir_d44c64559bbebec7f509842c48db8b23 -->
<g id="edge23" class="edge">
<title>dir_a72932e0778af28115095468f6286ff8&#45;&gt;dir_d44c64559bbebec7f509842c48db8b23</title>
<g id="a_edge23"><a xlink:href="dir_000608_000163.html" target="_top">
<path fill="none" stroke="#63b8ff" d="M71.34,-57.04C79.15,-53.98 88.35,-50.85 97,-49.1 240.05,-20.19 698.21,-14.05 830.76,-12.86"/>
<polygon fill="#63b8ff" stroke="#63b8ff" points="830.83,-16.36 840.8,-12.78 830.77,-9.36 830.83,-16.36"/>
</a>
</g>
<g id="a_edge23&#45;headlabel"><a xlink:href="dir_000608_000163.html" target="_top" xlink:title="192">
<text text-anchor="middle" x="827.26" y="-16.73" font-family="Helvetica,sans-Serif" font-size="10.00" fill="#63b8ff">192</text>
</a>
</g>
</g>
</g>
</svg>
