<?xml version="1.0" encoding="UTF-8" standalone="no"?>
<!DOCTYPE svg PUBLIC "-//W3C//DTD SVG 1.1//EN"
 "http://www.w3.org/Graphics/SVG/1.1/DTD/svg11.dtd">
<!-- Generated by graphviz version 2.43.0 (0)
 -->
<!-- Title: include/mlir/Remark Pages: 1 -->
<svg width="96pt" height="167pt"
 viewBox="0.00 0.00 96.00 167.00" xmlns="http://www.w3.org/2000/svg" xmlns:xlink="http://www.w3.org/1999/xlink">
<g id="graph0" class="graph" transform="scale(1 1) rotate(0) translate(4 163)">
<title>include/mlir/Remark</title>
<g id="clust1" class="cluster">
<title>clusterdir_5654f77406fb9ceec87e68ef828ceea2</title>
<g id="a_clust1"><a xlink:href="dir_5654f77406fb9ceec87e68ef828ceea2.html" target="_top" xlink:title="mlir">
<polygon fill="#ddddee" stroke="black" points="8,-8 8,-151 80,-151 80,-8 8,-8"/>
<text text-anchor="middle" x="44" y="-139" font-family="Helvetica,sans-Serif" font-size="10.00">mlir</text>
</a>
</g>
</g>
<!-- dir_84ef7c054b4edc3447cfba80cee80f65 -->
<g id="node1" class="node">
<title>dir_84ef7c054b4edc3447cfba80cee80f65</title>
<g id="a_node1"><a xlink:href="dir_84ef7c054b4edc3447cfba80cee80f65.html" target="_top" xlink:title="IR">
<polygon fill="none" stroke="black" points="71,-52 17,-52 17,-16 71,-16 71,-52"/>
<text text-anchor="middle" x="44" y="-31.5" font-family="Helvetica,sans-Serif" font-size="10.00">IR</text>
</a>
</g>
</g>
<!-- dir_da8213c45021a959fef56ca372e9132d -->
<g id="node2" class="node">
<title>dir_da8213c45021a959fef56ca372e9132d</title>
<g id="a_node2"><a xlink:href="dir_da8213c45021a959fef56ca372e9132d.html" target="_top" xlink:title="Remark">
<polygon fill="#eeeeff" stroke="black" points="71.5,-124 16.5,-124 16.5,-88 71.5,-88 71.5,-124"/>
<text text-anchor="middle" x="44" y="-103.5" font-family="Helvetica,sans-Serif" font-size="10.00">Remark</text>
</a>
</g>
</g>
<!-- dir_da8213c45021a959fef56ca372e9132d&#45;&gt;dir_84ef7c054b4edc3447cfba80cee80f65 -->
<g id="edge1" class="edge">
<title>dir_da8213c45021a959fef56ca372e9132d&#45;&gt;dir_84ef7c054b4edc3447cfba80cee80f65</title>
<path fill="none" stroke="black" d="M44,-87.7C44,-79.98 44,-70.71 44,-62.11"/>
<polygon fill="black" stroke="black" points="47.5,-62.1 44,-52.1 40.5,-62.1 47.5,-62.1"/>
<g id="a_edge1&#45;headlabel"><a xlink:href="dir_000296_000047.html" target="_top" xlink:title="1">
<text text-anchor="middle" x="50.34" y="-63.2" font-family="Helvetica,sans-Serif" font-size="10.00">1</text>
</a>
</g>
</g>
</g>
</svg>
