<?xml version="1.0" encoding="UTF-8" standalone="no"?>
<!DOCTYPE svg PUBLIC "-//W3C//DTD SVG 1.1//EN"
 "http://www.w3.org/Graphics/SVG/1.1/DTD/svg11.dtd">
<!-- Generated by graphviz version 2.43.0 (0)
 -->
<!-- Title: include/mlir/Dialect/XeGPU/IR Pages: 1 -->
<svg width="294pt" height="511pt"
 viewBox="0.00 0.00 294.38 511.00" xmlns="http://www.w3.org/2000/svg" xmlns:xlink="http://www.w3.org/1999/xlink">
<g id="graph0" class="graph" transform="scale(1 1) rotate(0) translate(4 507)">
<title>include/mlir/Dialect/XeGPU/IR</title>
<g id="clust1" class="cluster">
<title>clusterdir_5af423df3a2327edcd5f90b3d7e3f636</title>
<g id="a_clust1"><a xlink:href="dir_5af423df3a2327edcd5f90b3d7e3f636.html" target="_top" xlink:title="XeGPU">
<polygon fill="#ddddee" stroke="black" points="116,-424 116,-495 186,-495 186,-424 116,-424"/>
<text text-anchor="middle" x="151" y="-483" font-family="Helvetica,sans-Serif" font-size="10.00">XeGPU</text>
</a>
</g>
</g>
<!-- dir_af87213b2c87ceb3ff163e266458ce84 -->
<g id="node1" class="node">
<title>dir_af87213b2c87ceb3ff163e266458ce84</title>
<g id="a_node1"><a xlink:href="dir_af87213b2c87ceb3ff163e266458ce84.html" target="_top" xlink:title="IR">
<polygon fill="#eeeeff" stroke="black" points="178,-468 124,-468 124,-432 178,-432 178,-468"/>
<text text-anchor="middle" x="151" y="-447.5" font-family="Helvetica,sans-Serif" font-size="10.00">IR</text>
</a>
</g>
</g>
<!-- dir_51020c1b0909ae629a35fe1c65c620b9 -->
<g id="node2" class="node">
<title>dir_51020c1b0909ae629a35fe1c65c620b9</title>
<g id="a_node2"><a xlink:href="dir_51020c1b0909ae629a35fe1c65c620b9.html" target="_top" xlink:title="Bytecode">
<polygon fill="none" stroke="black" points="90,-324 28,-324 28,-288 90,-288 90,-324"/>
<text text-anchor="middle" x="59" y="-303.5" font-family="Helvetica,sans-Serif" font-size="10.00">Bytecode</text>
</a>
</g>
</g>
<!-- dir_af87213b2c87ceb3ff163e266458ce84&#45;&gt;dir_51020c1b0909ae629a35fe1c65c620b9 -->
<g id="edge6" class="edge">
<title>dir_af87213b2c87ceb3ff163e266458ce84&#45;&gt;dir_51020c1b0909ae629a35fe1c65c620b9</title>
<path fill="none" stroke="black" d="M133.69,-431.79C124.23,-421.86 112.71,-408.82 104,-396 90.47,-376.09 78.37,-351.56 70.13,-333.3"/>
<polygon fill="black" stroke="black" points="73.32,-331.85 66.08,-324.12 66.91,-334.68 73.32,-331.85"/>
<g id="a_edge6&#45;headlabel"><a xlink:href="dir_000282_000051.html" target="_top" xlink:title="1">
<text text-anchor="middle" x="77.37" y="-331.5" font-family="Helvetica,sans-Serif" font-size="10.00">1</text>
</a>
</g>
</g>
<!-- dir_687ef06ec02158f82af83f8ed0273ebe -->
<g id="node3" class="node">
<title>dir_687ef06ec02158f82af83f8ed0273ebe</title>
<g id="a_node3"><a xlink:href="dir_687ef06ec02158f82af83f8ed0273ebe.html" target="_top" xlink:title="Arith">
<polygon fill="none" stroke="red" points="146,-36 92,-36 92,0 146,0 146,-36"/>
<text text-anchor="middle" x="119" y="-15.5" font-family="Helvetica,sans-Serif" font-size="10.00">Arith</text>
</a>
</g>
</g>
<!-- dir_af87213b2c87ceb3ff163e266458ce84&#45;&gt;dir_687ef06ec02158f82af83f8ed0273ebe -->
<g id="edge7" class="edge">
<title>dir_af87213b2c87ceb3ff163e266458ce84&#45;&gt;dir_687ef06ec02158f82af83f8ed0273ebe</title>
<path fill="none" stroke="black" d="M123.66,-438.12C80.14,-418.81 0,-374.11 0,-307 0,-307 0,-307 0,-161 0,-108.52 48.35,-65.25 83.41,-40.77"/>
<polygon fill="black" stroke="black" points="85.68,-43.46 92,-34.96 81.75,-37.66 85.68,-43.46"/>
<g id="a_edge7&#45;headlabel"><a xlink:href="dir_000282_000017.html" target="_top" xlink:title="1">
<text text-anchor="middle" x="84.29" y="-45.33" font-family="Helvetica,sans-Serif" font-size="10.00">1</text>
</a>
</g>
</g>
<!-- dir_84ef7c054b4edc3447cfba80cee80f65 -->
<g id="node4" class="node">
<title>dir_84ef7c054b4edc3447cfba80cee80f65</title>
<g id="a_node4"><a xlink:href="dir_84ef7c054b4edc3447cfba80cee80f65.html" target="_top" xlink:title="IR">
<polygon fill="none" stroke="black" points="153,-252 99,-252 99,-216 153,-216 153,-252"/>
<text text-anchor="middle" x="126" y="-231.5" font-family="Helvetica,sans-Serif" font-size="10.00">IR</text>
</a>
</g>
</g>
<!-- dir_af87213b2c87ceb3ff163e266458ce84&#45;&gt;dir_84ef7c054b4edc3447cfba80cee80f65 -->
<g id="edge8" class="edge">
<title>dir_af87213b2c87ceb3ff163e266458ce84&#45;&gt;dir_84ef7c054b4edc3447cfba80cee80f65</title>
<path fill="none" stroke="black" d="M149,-431.85C144.67,-394.83 134.43,-307.18 129.2,-262.39"/>
<polygon fill="black" stroke="black" points="132.65,-261.76 128.01,-252.23 125.7,-262.57 132.65,-261.76"/>
<g id="a_edge8&#45;headlabel"><a xlink:href="dir_000282_000047.html" target="_top" xlink:title="4">
<text text-anchor="middle" x="135.89" y="-262.5" font-family="Helvetica,sans-Serif" font-size="10.00">4</text>
</a>
</g>
</g>
<!-- dir_bfd3493254b3df47293537524626123b -->
<g id="node5" class="node">
<title>dir_bfd3493254b3df47293537524626123b</title>
<g id="a_node5"><a xlink:href="dir_bfd3493254b3df47293537524626123b.html" target="_top" xlink:title="Vector">
<polygon fill="none" stroke="red" points="211,-396 157,-396 157,-360 211,-360 211,-396"/>
<text text-anchor="middle" x="184" y="-375.5" font-family="Helvetica,sans-Serif" font-size="10.00">Vector</text>
</a>
</g>
</g>
<!-- dir_af87213b2c87ceb3ff163e266458ce84&#45;&gt;dir_bfd3493254b3df47293537524626123b -->
<g id="edge9" class="edge">
<title>dir_af87213b2c87ceb3ff163e266458ce84&#45;&gt;dir_bfd3493254b3df47293537524626123b</title>
<path fill="none" stroke="black" d="M159.16,-431.7C162.91,-423.73 167.45,-414.1 171.62,-405.26"/>
<polygon fill="black" stroke="black" points="174.84,-406.64 175.94,-396.1 168.51,-403.66 174.84,-406.64"/>
<g id="a_edge9&#45;headlabel"><a xlink:href="dir_000282_000152.html" target="_top" xlink:title="1">
<text text-anchor="middle" x="175.87" y="-408.6" font-family="Helvetica,sans-Serif" font-size="10.00">1</text>
</a>
</g>
</g>
<!-- dir_cf63c3ddb21c79ef735682489f4c6a69 -->
<g id="node6" class="node">
<title>dir_cf63c3ddb21c79ef735682489f4c6a69</title>
<g id="a_node6"><a xlink:href="dir_cf63c3ddb21c79ef735682489f4c6a69.html" target="_top" xlink:title="Interfaces">
<polygon fill="none" stroke="red" points="228.5,-180 163.5,-180 163.5,-144 228.5,-144 228.5,-180"/>
<text text-anchor="middle" x="196" y="-159.5" font-family="Helvetica,sans-Serif" font-size="10.00">Interfaces</text>
</a>
</g>
</g>
<!-- dir_af87213b2c87ceb3ff163e266458ce84&#45;&gt;dir_cf63c3ddb21c79ef735682489f4c6a69 -->
<g id="edge10" class="edge">
<title>dir_af87213b2c87ceb3ff163e266458ce84&#45;&gt;dir_cf63c3ddb21c79ef735682489f4c6a69</title>
<path fill="none" stroke="black" d="M178.03,-436.13C193.39,-427.21 211.25,-413.75 220,-396 253.68,-327.67 225.21,-234.58 207.52,-189.55"/>
<polygon fill="black" stroke="black" points="210.73,-188.14 203.73,-180.19 204.24,-190.77 210.73,-188.14"/>
<g id="a_edge10&#45;headlabel"><a xlink:href="dir_000282_000285.html" target="_top" xlink:title="3">
<text text-anchor="middle" x="214.71" y="-187.9" font-family="Helvetica,sans-Serif" font-size="10.00">3</text>
</a>
</g>
</g>
<!-- dir_e4893b20171f621ff7a85b39656091a7 -->
<g id="node7" class="node">
<title>dir_e4893b20171f621ff7a85b39656091a7</title>
<g id="a_node7"><a xlink:href="dir_e4893b20171f621ff7a85b39656091a7.html" target="_top" xlink:title="Utils">
<polygon fill="none" stroke="black" points="223,-108 169,-108 169,-72 223,-72 223,-108"/>
<text text-anchor="middle" x="196" y="-87.5" font-family="Helvetica,sans-Serif" font-size="10.00">Utils</text>
</a>
</g>
</g>
<!-- dir_af87213b2c87ceb3ff163e266458ce84&#45;&gt;dir_e4893b20171f621ff7a85b39656091a7 -->
<g id="edge11" class="edge">
<title>dir_af87213b2c87ceb3ff163e266458ce84&#45;&gt;dir_e4893b20171f621ff7a85b39656091a7</title>
<path fill="none" stroke="black" d="M178.3,-440.28C198.83,-432.21 225.78,-418.07 240,-396 300.72,-301.71 297.79,-246.82 253,-144 248.07,-132.68 239.39,-122.68 230.27,-114.51"/>
<polygon fill="black" stroke="black" points="232.5,-111.81 222.58,-108.09 228.01,-117.19 232.5,-111.81"/>
<g id="a_edge11&#45;headlabel"><a xlink:href="dir_000282_000276.html" target="_top" xlink:title="1">
<text text-anchor="middle" x="237.08" y="-109.44" font-family="Helvetica,sans-Serif" font-size="10.00">1</text>
</a>
</g>
</g>
<!-- dir_51020c1b0909ae629a35fe1c65c620b9&#45;&gt;dir_84ef7c054b4edc3447cfba80cee80f65 -->
<g id="edge19" class="edge">
<title>dir_51020c1b0909ae629a35fe1c65c620b9&#45;&gt;dir_84ef7c054b4edc3447cfba80cee80f65</title>
<path fill="none" stroke="black" d="M69.65,-287.7C76.96,-279.14 86.81,-268.66 96.28,-259.3"/>
<polygon fill="black" stroke="black" points="98.97,-261.57 103.73,-252.1 94.11,-256.53 98.97,-261.57"/>
<g id="a_edge19&#45;headlabel"><a xlink:href="dir_000051_000047.html" target="_top" xlink:title="9">
<text text-anchor="middle" x="98.36" y="-263.61" font-family="Helvetica,sans-Serif" font-size="10.00">9</text>
</a>
</g>
</g>
<!-- dir_687ef06ec02158f82af83f8ed0273ebe&#45;&gt;dir_51020c1b0909ae629a35fe1c65c620b9 -->
<g id="edge3" class="edge">
<title>dir_687ef06ec02158f82af83f8ed0273ebe&#45;&gt;dir_51020c1b0909ae629a35fe1c65c620b9</title>
<path fill="none" stroke="black" d="M115.37,-36.31C105.28,-84.41 76.83,-220 64.65,-278.06"/>
<polygon fill="black" stroke="black" points="61.2,-277.46 62.57,-287.97 68.05,-278.9 61.2,-277.46"/>
<g id="a_edge3&#45;headlabel"><a xlink:href="dir_000017_000051.html" target="_top" xlink:title="1">
<text text-anchor="middle" x="59.16" y="-270.86" font-family="Helvetica,sans-Serif" font-size="10.00">1</text>
</a>
</g>
</g>
<!-- dir_687ef06ec02158f82af83f8ed0273ebe&#45;&gt;dir_84ef7c054b4edc3447cfba80cee80f65 -->
<g id="edge4" class="edge">
<title>dir_687ef06ec02158f82af83f8ed0273ebe&#45;&gt;dir_84ef7c054b4edc3447cfba80cee80f65</title>
<path fill="none" stroke="black" d="M119.56,-36.23C120.78,-73.32 123.64,-160.98 125.11,-205.71"/>
<polygon fill="black" stroke="black" points="121.61,-205.97 125.44,-215.85 128.61,-205.74 121.61,-205.97"/>
<g id="a_edge4&#45;headlabel"><a xlink:href="dir_000017_000047.html" target="_top" xlink:title="6">
<text text-anchor="middle" x="118.66" y="-199.97" font-family="Helvetica,sans-Serif" font-size="10.00">6</text>
</a>
</g>
</g>
<!-- dir_687ef06ec02158f82af83f8ed0273ebe&#45;&gt;dir_cf63c3ddb21c79ef735682489f4c6a69 -->
<g id="edge5" class="edge">
<title>dir_687ef06ec02158f82af83f8ed0273ebe&#45;&gt;dir_cf63c3ddb21c79ef735682489f4c6a69</title>
<path fill="none" stroke="black" d="M125.9,-36.14C133.47,-54.38 146.36,-83.86 160,-108 165.2,-117.2 171.49,-126.87 177.36,-135.4"/>
<polygon fill="black" stroke="black" points="174.64,-137.62 183.25,-143.8 180.38,-133.6 174.64,-137.62"/>
<g id="a_edge5&#45;headlabel"><a xlink:href="dir_000017_000285.html" target="_top" xlink:title="7">
<text text-anchor="middle" x="170.26" y="-133.81" font-family="Helvetica,sans-Serif" font-size="10.00">7</text>
</a>
</g>
</g>
<!-- dir_84ef7c054b4edc3447cfba80cee80f65&#45;&gt;dir_51020c1b0909ae629a35fe1c65c620b9 -->
<g id="edge1" class="edge">
<title>dir_84ef7c054b4edc3447cfba80cee80f65&#45;&gt;dir_51020c1b0909ae629a35fe1c65c620b9</title>
<path fill="none" stroke="black" d="M115.52,-252.1C108.25,-260.64 98.42,-271.11 88.95,-280.48"/>
<polygon fill="black" stroke="black" points="86.23,-278.23 81.48,-287.7 91.1,-283.26 86.23,-278.23"/>
<g id="a_edge1&#45;headlabel"><a xlink:href="dir_000047_000051.html" target="_top" xlink:title="2">
<text text-anchor="middle" x="86.85" y="-271.19" font-family="Helvetica,sans-Serif" font-size="10.00">2</text>
</a>
</g>
</g>
<!-- dir_84ef7c054b4edc3447cfba80cee80f65&#45;&gt;dir_cf63c3ddb21c79ef735682489f4c6a69 -->
<g id="edge2" class="edge">
<title>dir_84ef7c054b4edc3447cfba80cee80f65&#45;&gt;dir_cf63c3ddb21c79ef735682489f4c6a69</title>
<path fill="none" stroke="black" d="M137.39,-215.7C145.14,-207.05 155.57,-196.45 165.53,-187.03"/>
<polygon fill="black" stroke="black" points="168.04,-189.47 173,-180.1 163.29,-184.33 168.04,-189.47"/>
<g id="a_edge2&#45;headlabel"><a xlink:href="dir_000047_000285.html" target="_top" xlink:title="3">
<text text-anchor="middle" x="167.33" y="-191.49" font-family="Helvetica,sans-Serif" font-size="10.00">3</text>
</a>
</g>
</g>
<!-- dir_bfd3493254b3df47293537524626123b&#45;&gt;dir_51020c1b0909ae629a35fe1c65c620b9 -->
<g id="edge12" class="edge">
<title>dir_bfd3493254b3df47293537524626123b&#45;&gt;dir_51020c1b0909ae629a35fe1c65c620b9</title>
<path fill="none" stroke="black" d="M156.88,-361.81C139.77,-352.23 117.39,-339.7 98.34,-329.03"/>
<polygon fill="black" stroke="black" points="100.02,-325.96 89.58,-324.13 96.6,-332.07 100.02,-325.96"/>
<g id="a_edge12&#45;headlabel"><a xlink:href="dir_000152_000051.html" target="_top" xlink:title="1">
<text text-anchor="middle" x="104.54" y="-322.74" font-family="Helvetica,sans-Serif" font-size="10.00">1</text>
</a>
</g>
</g>
<!-- dir_bfd3493254b3df47293537524626123b&#45;&gt;dir_687ef06ec02158f82af83f8ed0273ebe -->
<g id="edge13" class="edge">
<title>dir_bfd3493254b3df47293537524626123b&#45;&gt;dir_687ef06ec02158f82af83f8ed0273ebe</title>
<path fill="none" stroke="black" d="M200.02,-359.55C208.26,-349.74 217.84,-336.9 224,-324 258.94,-250.89 264.46,-224.22 253,-144 248.29,-111 253.68,-97.32 232,-72 212.43,-49.14 180.84,-35.49 156.03,-27.78"/>
<polygon fill="black" stroke="black" points="156.79,-24.35 146.21,-24.92 154.84,-31.07 156.79,-24.35"/>
<g id="a_edge13&#45;headlabel"><a xlink:href="dir_000152_000017.html" target="_top" xlink:title="2">
<text text-anchor="middle" x="161.04" y="-20.13" font-family="Helvetica,sans-Serif" font-size="10.00">2</text>
</a>
</g>
</g>
<!-- dir_bfd3493254b3df47293537524626123b&#45;&gt;dir_84ef7c054b4edc3447cfba80cee80f65 -->
<g id="edge14" class="edge">
<title>dir_bfd3493254b3df47293537524626123b&#45;&gt;dir_84ef7c054b4edc3447cfba80cee80f65</title>
<path fill="none" stroke="black" d="M177,-359.87C167.03,-335.46 148.64,-290.43 136.88,-261.64"/>
<polygon fill="black" stroke="black" points="140.04,-260.12 133.02,-252.19 133.56,-262.77 140.04,-260.12"/>
<g id="a_edge14&#45;headlabel"><a xlink:href="dir_000152_000047.html" target="_top" xlink:title="13">
<text text-anchor="middle" x="144.03" y="-259.88" font-family="Helvetica,sans-Serif" font-size="10.00">13</text>
</a>
</g>
</g>
<!-- dir_bfd3493254b3df47293537524626123b&#45;&gt;dir_cf63c3ddb21c79ef735682489f4c6a69 -->
<g id="edge15" class="edge">
<title>dir_bfd3493254b3df47293537524626123b&#45;&gt;dir_cf63c3ddb21c79ef735682489f4c6a69</title>
<path fill="none" stroke="black" d="M184.96,-359.85C187.04,-322.83 191.95,-235.18 194.46,-190.39"/>
<polygon fill="black" stroke="black" points="197.97,-190.41 195.03,-180.23 190.98,-190.02 197.97,-190.41"/>
<g id="a_edge15&#45;headlabel"><a xlink:href="dir_000152_000285.html" target="_top" xlink:title="9">
<text text-anchor="middle" x="200.6" y="-191.66" font-family="Helvetica,sans-Serif" font-size="10.00">9</text>
</a>
</g>
</g>
<!-- dir_bfd3493254b3df47293537524626123b&#45;&gt;dir_e4893b20171f621ff7a85b39656091a7 -->
<g id="edge16" class="edge">
<title>dir_bfd3493254b3df47293537524626123b&#45;&gt;dir_e4893b20171f621ff7a85b39656091a7</title>
<path fill="none" stroke="black" d="M190.53,-359.95C203.03,-326.22 229.82,-248.31 238,-180 239.9,-164.11 243.26,-159.11 238,-144 234.47,-133.86 228.09,-124.19 221.36,-115.96"/>
<polygon fill="black" stroke="black" points="223.83,-113.46 214.6,-108.24 218.56,-118.07 223.83,-113.46"/>
<g id="a_edge16&#45;headlabel"><a xlink:href="dir_000152_000276.html" target="_top" xlink:title="1">
<text text-anchor="middle" x="228.33" y="-111.79" font-family="Helvetica,sans-Serif" font-size="10.00">1</text>
</a>
</g>
</g>
<!-- dir_cf63c3ddb21c79ef735682489f4c6a69&#45;&gt;dir_84ef7c054b4edc3447cfba80cee80f65 -->
<g id="edge20" class="edge">
<title>dir_cf63c3ddb21c79ef735682489f4c6a69&#45;&gt;dir_84ef7c054b4edc3447cfba80cee80f65</title>
<path fill="none" stroke="black" d="M184.79,-180.1C177.08,-188.72 166.67,-199.32 156.7,-208.76"/>
<polygon fill="black" stroke="black" points="154.17,-206.33 149.22,-215.7 158.93,-211.46 154.17,-206.33"/>
<g id="a_edge20&#45;headlabel"><a xlink:href="dir_000285_000047.html" target="_top" xlink:title="54">
<text text-anchor="middle" x="154.88" y="-199.3" font-family="Helvetica,sans-Serif" font-size="10.00">54</text>
</a>
</g>
</g>
<!-- dir_cf63c3ddb21c79ef735682489f4c6a69&#45;&gt;dir_e4893b20171f621ff7a85b39656091a7 -->
<g id="edge21" class="edge">
<title>dir_cf63c3ddb21c79ef735682489f4c6a69&#45;&gt;dir_e4893b20171f621ff7a85b39656091a7</title>
<path fill="none" stroke="black" d="M196,-143.7C196,-135.98 196,-126.71 196,-118.11"/>
<polygon fill="black" stroke="black" points="199.5,-118.1 196,-108.1 192.5,-118.1 199.5,-118.1"/>
<g id="a_edge21&#45;headlabel"><a xlink:href="dir_000285_000276.html" target="_top" xlink:title="2">
<text text-anchor="middle" x="202.34" y="-119.2" font-family="Helvetica,sans-Serif" font-size="10.00">2</text>
</a>
</g>
</g>
<!-- dir_e4893b20171f621ff7a85b39656091a7&#45;&gt;dir_687ef06ec02158f82af83f8ed0273ebe -->
<g id="edge17" class="edge">
<title>dir_e4893b20171f621ff7a85b39656091a7&#45;&gt;dir_687ef06ec02158f82af83f8ed0273ebe</title>
<path fill="none" stroke="black" d="M176.97,-71.7C167.46,-63.05 155.79,-52.45 145.43,-43.03"/>
<polygon fill="black" stroke="black" points="147.57,-40.24 137.81,-36.1 142.86,-45.42 147.57,-40.24"/>
<g id="a_edge17&#45;headlabel"><a xlink:href="dir_000276_000017.html" target="_top" xlink:title="1">
<text text-anchor="middle" x="152.14" y="-38.06" font-family="Helvetica,sans-Serif" font-size="10.00">1</text>
</a>
</g>
</g>
<!-- dir_e4893b20171f621ff7a85b39656091a7&#45;&gt;dir_84ef7c054b4edc3447cfba80cee80f65 -->
<g id="edge18" class="edge">
<title>dir_e4893b20171f621ff7a85b39656091a7&#45;&gt;dir_84ef7c054b4edc3447cfba80cee80f65</title>
<path fill="none" stroke="black" d="M179.87,-108.01C171.21,-117.89 160.93,-130.93 154,-144 143.6,-163.62 136.31,-187.75 131.78,-205.93"/>
<polygon fill="black" stroke="black" points="128.32,-205.34 129.43,-215.87 135.14,-206.95 128.32,-205.34"/>
<g id="a_edge18&#45;headlabel"><a xlink:href="dir_000276_000047.html" target="_top" xlink:title="10">
<text text-anchor="middle" x="126.39" y="-198.68" font-family="Helvetica,sans-Serif" font-size="10.00">10</text>
</a>
</g>
</g>
</g>
</svg>
