<?xml version="1.0" encoding="UTF-8" standalone="no"?>
<!DOCTYPE svg PUBLIC "-//W3C//DTD SVG 1.1//EN"
 "http://www.w3.org/Graphics/SVG/1.1/DTD/svg11.dtd">
<!-- Generated by graphviz version 2.43.0 (0)
 -->
<!-- Title: include/mlir/CAPI Pages: 1 -->
<svg width="754pt" height="141pt"
 viewBox="0.00 0.00 753.50 141.00" xmlns="http://www.w3.org/2000/svg" xmlns:xlink="http://www.w3.org/1999/xlink">
<g id="graph0" class="graph" transform="scale(1 1) rotate(0) translate(4 137)">
<title>include/mlir/CAPI</title>
<g id="clust1" class="cluster">
<title>clusterdir_5654f77406fb9ceec87e68ef828ceea2</title>
<g id="a_clust1"><a xlink:href="dir_5654f77406fb9ceec87e68ef828ceea2.html" target="_top" xlink:title="mlir">
<polygon fill="#edf0f7" stroke="#7f7f7f" stroke-dasharray="5,2" points="8,-8 8,-125 691,-125 691,-8 8,-8"/>
<text text-anchor="middle" x="349.5" y="-113" font-family="Helvetica,sans-Serif" font-size="10.00">mlir</text>
</a>
</g>
</g>
<g id="clust2" class="cluster">
<title>clusterdir_05ee78ff1b12ab1325c485419f519e72</title>
<g id="a_clust2"><a xlink:href="dir_05ee78ff1b12ab1325c485419f519e72.html" target="_top">
<polygon fill="#edf0f7" stroke="#404040" stroke-width="2" points="401,-63 401,-98 526,-98 526,-63 401,-63"/>
</a>
</g>
</g>
<!-- dir_51020c1b0909ae629a35fe1c65c620b9 -->
<g id="node1" class="node">
<title>dir_51020c1b0909ae629a35fe1c65c620b9</title>
<g id="a_node1"><a xlink:href="dir_51020c1b0909ae629a35fe1c65c620b9.html" target="_top" xlink:title="Bytecode">
<polygon fill="#a2b4d6" stroke="#404040" points="362,-35 300,-35 300,-16 362,-16 362,-35"/>
<text text-anchor="middle" x="331" y="-23" font-family="Helvetica,sans-Serif" font-size="10.00">Bytecode</text>
</a>
</g>
</g>
<!-- dir_5abf8a08a40a1bdc0bd62810e21e11be -->
<g id="node2" class="node">
<title>dir_5abf8a08a40a1bdc0bd62810e21e11be</title>
<g id="a_node2"><a xlink:href="dir_5abf8a08a40a1bdc0bd62810e21e11be.html" target="_top" xlink:title="ExecutionEngine">
<polygon fill="#a2b4d6" stroke="red" points="477.5,-35 380.5,-35 380.5,-16 477.5,-16 477.5,-35"/>
<text text-anchor="middle" x="429" y="-23" font-family="Helvetica,sans-Serif" font-size="10.00">ExecutionEngine</text>
</a>
</g>
</g>
<!-- dir_84ef7c054b4edc3447cfba80cee80f65 -->
<g id="node3" class="node">
<title>dir_84ef7c054b4edc3447cfba80cee80f65</title>
<g id="a_node3"><a xlink:href="dir_84ef7c054b4edc3447cfba80cee80f65.html" target="_top" xlink:title="IR">
<polygon fill="#a2b4d6" stroke="#404040" points="524.5,-35 495.5,-35 495.5,-16 524.5,-16 524.5,-35"/>
<text text-anchor="middle" x="510" y="-23" font-family="Helvetica,sans-Serif" font-size="10.00">IR</text>
</a>
</g>
</g>
<!-- dir_ca4d1f3bc4cd42ba07a57ca86d19a1d6 -->
<g id="node4" class="node">
<title>dir_ca4d1f3bc4cd42ba07a57ca86d19a1d6</title>
<g id="a_node4"><a xlink:href="dir_ca4d1f3bc4cd42ba07a57ca86d19a1d6.html" target="_top" xlink:title="Transforms">
<polygon fill="#a2b4d6" stroke="#404040" points="613.5,-35 542.5,-35 542.5,-16 613.5,-16 613.5,-35"/>
<text text-anchor="middle" x="578" y="-23" font-family="Helvetica,sans-Serif" font-size="10.00">Transforms</text>
</a>
</g>
</g>
<!-- dir_cab9f8330899b1cc9d753b1d9c5c5a3e -->
<g id="node5" class="node">
<title>dir_cab9f8330899b1cc9d753b1d9c5c5a3e</title>
<g id="a_node5"><a xlink:href="dir_cab9f8330899b1cc9d753b1d9c5c5a3e.html" target="_top" xlink:title="Pass">
<polygon fill="#a2b4d6" stroke="#404040" points="54,-35 16,-35 16,-16 54,-16 54,-35"/>
<text text-anchor="middle" x="35" y="-23" font-family="Helvetica,sans-Serif" font-size="10.00">Pass</text>
</a>
</g>
</g>
<!-- dir_cf63c3ddb21c79ef735682489f4c6a69 -->
<g id="node6" class="node">
<title>dir_cf63c3ddb21c79ef735682489f4c6a69</title>
<g id="a_node6"><a xlink:href="dir_cf63c3ddb21c79ef735682489f4c6a69.html" target="_top" xlink:title="Interfaces">
<polygon fill="#a2b4d6" stroke="red" points="137.5,-35 72.5,-35 72.5,-16 137.5,-16 137.5,-35"/>
<text text-anchor="middle" x="105" y="-23" font-family="Helvetica,sans-Serif" font-size="10.00">Interfaces</text>
</a>
</g>
</g>
<!-- dir_f61d47671007dfdb592580b61f960d39 -->
<g id="node7" class="node">
<title>dir_f61d47671007dfdb592580b61f960d39</title>
<g id="a_node7"><a xlink:href="dir_f61d47671007dfdb592580b61f960d39.html" target="_top" xlink:title="Support">
<polygon fill="#a2b4d6" stroke="#404040" points="210,-35 156,-35 156,-16 210,-16 210,-35"/>
<text text-anchor="middle" x="183" y="-23" font-family="Helvetica,sans-Serif" font-size="10.00">Support</text>
</a>
</g>
</g>
<!-- dir_f78573f92b19f911d08210d637df7171 -->
<g id="node8" class="node">
<title>dir_f78573f92b19f911d08210d637df7171</title>
<g id="a_node8"><a xlink:href="dir_f78573f92b19f911d08210d637df7171.html" target="_top" xlink:title="Rewrite">
<polygon fill="#a2b4d6" stroke="#404040" points="282,-35 228,-35 228,-16 282,-16 282,-35"/>
<text text-anchor="middle" x="255" y="-23" font-family="Helvetica,sans-Serif" font-size="10.00">Rewrite</text>
</a>
</g>
</g>
<!-- dir_d07a6fac82475a065a3b2953573f00a0 -->
<g id="node9" class="node">
<title>dir_d07a6fac82475a065a3b2953573f00a0</title>
<g id="a_node9"><a xlink:href="dir_d07a6fac82475a065a3b2953573f00a0.html" target="_top" xlink:title="Dialect">
<polygon fill="#a2b4d6" stroke="red" points="682.5,-35 631.5,-35 631.5,-16 682.5,-16 682.5,-35"/>
<text text-anchor="middle" x="657" y="-23" font-family="Helvetica,sans-Serif" font-size="10.00">Dialect</text>
</a>
</g>
</g>
<!-- dir_05ee78ff1b12ab1325c485419f519e72 -->
<g id="node10" class="node">
<title>dir_05ee78ff1b12ab1325c485419f519e72</title>
<text text-anchor="middle" x="429" y="-78" font-family="Helvetica,sans-Serif" font-size="10.00">CAPI</text>
</g>
<!-- dir_05ee78ff1b12ab1325c485419f519e72&#45;&gt;dir_51020c1b0909ae629a35fe1c65c620b9 -->
<g id="edge1" class="edge">
<title>dir_05ee78ff1b12ab1325c485419f519e72&#45;&gt;dir_51020c1b0909ae629a35fe1c65c620b9</title>
<g id="a_edge1"><a xlink:href="dir_000074_000072.html" target="_top">
<path fill="none" stroke="#63b8ff" d="M413.25,-70.98C397.77,-62.61 373.91,-49.7 355.86,-39.95"/>
<polygon fill="#63b8ff" stroke="#63b8ff" points="357.49,-36.85 347.03,-35.17 354.16,-43.01 357.49,-36.85"/>
</a>
</g>
<g id="a_edge1&#45;headlabel"><a xlink:href="dir_000074_000072.html" target="_top" xlink:title="1">
<text text-anchor="middle" x="362.01" y="-33.56" font-family="Helvetica,sans-Serif" font-size="10.00" fill="#63b8ff">1</text>
</a>
</g>
</g>
<!-- dir_05ee78ff1b12ab1325c485419f519e72&#45;&gt;dir_5abf8a08a40a1bdc0bd62810e21e11be -->
<g id="edge2" class="edge">
<title>dir_05ee78ff1b12ab1325c485419f519e72&#45;&gt;dir_5abf8a08a40a1bdc0bd62810e21e11be</title>
<g id="a_edge2"><a xlink:href="dir_000074_000132.html" target="_top">
<path fill="none" stroke="#63b8ff" d="M429,-70.75C429,-63.8 429,-53.85 429,-45.13"/>
<polygon fill="#63b8ff" stroke="#63b8ff" points="432.5,-45.09 429,-35.09 425.5,-45.09 432.5,-45.09"/>
</a>
</g>
<g id="a_edge2&#45;headlabel"><a xlink:href="dir_000074_000132.html" target="_top" xlink:title="1">
<text text-anchor="middle" x="435.34" y="-46.18" font-family="Helvetica,sans-Serif" font-size="10.00" fill="#63b8ff">1</text>
</a>
</g>
</g>
<!-- dir_05ee78ff1b12ab1325c485419f519e72&#45;&gt;dir_84ef7c054b4edc3447cfba80cee80f65 -->
<g id="edge4" class="edge">
<title>dir_05ee78ff1b12ab1325c485419f519e72&#45;&gt;dir_84ef7c054b4edc3447cfba80cee80f65</title>
<g id="a_edge4"><a xlink:href="dir_000074_000220.html" target="_top">
<path fill="none" stroke="#63b8ff" d="M442.01,-70.98C454.46,-62.84 473.46,-50.41 488.21,-40.76"/>
<polygon fill="#63b8ff" stroke="#63b8ff" points="490.3,-43.57 496.75,-35.17 486.46,-37.72 490.3,-43.57"/>
</a>
</g>
<g id="a_edge4&#45;headlabel"><a xlink:href="dir_000074_000220.html" target="_top" xlink:title="9">
<text text-anchor="middle" x="488.84" y="-45.42" font-family="Helvetica,sans-Serif" font-size="10.00" fill="#63b8ff">9</text>
</a>
</g>
</g>
<!-- dir_05ee78ff1b12ab1325c485419f519e72&#45;&gt;dir_ca4d1f3bc4cd42ba07a57ca86d19a1d6 -->
<g id="edge5" class="edge">
<title>dir_05ee78ff1b12ab1325c485419f519e72&#45;&gt;dir_ca4d1f3bc4cd42ba07a57ca86d19a1d6</title>
<g id="a_edge5"><a xlink:href="dir_000074_000572.html" target="_top">
<path fill="none" stroke="#63b8ff" d="M442.55,-70.97C447.31,-68.19 452.79,-65.24 458,-63 482.05,-52.66 509.97,-43.98 532.83,-37.68"/>
<polygon fill="#63b8ff" stroke="#63b8ff" points="533.87,-41.03 542.61,-35.05 532.05,-34.27 533.87,-41.03"/>
</a>
</g>
<g id="a_edge5&#45;headlabel"><a xlink:href="dir_000074_000572.html" target="_top" xlink:title="1">
<text text-anchor="middle" x="531.13" y="-42.2" font-family="Helvetica,sans-Serif" font-size="10.00" fill="#63b8ff">1</text>
</a>
</g>
</g>
<!-- dir_05ee78ff1b12ab1325c485419f519e72&#45;&gt;dir_cab9f8330899b1cc9d753b1d9c5c5a3e -->
<g id="edge6" class="edge">
<title>dir_05ee78ff1b12ab1325c485419f519e72&#45;&gt;dir_cab9f8330899b1cc9d753b1d9c5c5a3e</title>
<g id="a_edge6"><a xlink:href="dir_000074_000377.html" target="_top">
<path fill="none" stroke="#63b8ff" d="M409.36,-78.32C355.53,-74.82 201.06,-63.11 64,-34.86"/>
<polygon fill="#63b8ff" stroke="#63b8ff" points="64.67,-31.42 54.17,-32.8 63.23,-38.28 64.67,-31.42"/>
</a>
</g>
<g id="a_edge6&#45;headlabel"><a xlink:href="dir_000074_000377.html" target="_top" xlink:title="2">
<text text-anchor="middle" x="68.77" y="-26.88" font-family="Helvetica,sans-Serif" font-size="10.00" fill="#63b8ff">2</text>
</a>
</g>
</g>
<!-- dir_05ee78ff1b12ab1325c485419f519e72&#45;&gt;dir_cf63c3ddb21c79ef735682489f4c6a69 -->
<g id="edge7" class="edge">
<title>dir_05ee78ff1b12ab1325c485419f519e72&#45;&gt;dir_cf63c3ddb21c79ef735682489f4c6a69</title>
<g id="a_edge7"><a xlink:href="dir_000074_000175.html" target="_top">
<path fill="none" stroke="#63b8ff" d="M409.46,-76.71C365,-70.31 252.61,-53.77 147.66,-35.05"/>
<polygon fill="#63b8ff" stroke="#63b8ff" points="147.99,-31.55 137.53,-33.23 146.76,-38.44 147.99,-31.55"/>
</a>
</g>
<g id="a_edge7&#45;headlabel"><a xlink:href="dir_000074_000175.html" target="_top" xlink:title="1">
<text text-anchor="middle" x="152.03" y="-26.89" font-family="Helvetica,sans-Serif" font-size="10.00" fill="#63b8ff">1</text>
</a>
</g>
</g>
<!-- dir_05ee78ff1b12ab1325c485419f519e72&#45;&gt;dir_f61d47671007dfdb592580b61f960d39 -->
<g id="edge8" class="edge">
<title>dir_05ee78ff1b12ab1325c485419f519e72&#45;&gt;dir_f61d47671007dfdb592580b61f960d39</title>
<g id="a_edge8"><a xlink:href="dir_000074_000470.html" target="_top">
<path fill="none" stroke="#63b8ff" d="M409.28,-75.48C373.64,-68.18 295.89,-52.1 220.28,-35.25"/>
<polygon fill="#63b8ff" stroke="#63b8ff" points="220.63,-31.74 210.11,-32.97 219.11,-38.57 220.63,-31.74"/>
</a>
</g>
<g id="a_edge8&#45;headlabel"><a xlink:href="dir_000074_000470.html" target="_top" xlink:title="2">
<text text-anchor="middle" x="224.76" y="-27.25" font-family="Helvetica,sans-Serif" font-size="10.00" fill="#63b8ff">2</text>
</a>
</g>
</g>
<!-- dir_05ee78ff1b12ab1325c485419f519e72&#45;&gt;dir_f78573f92b19f911d08210d637df7171 -->
<g id="edge9" class="edge">
<title>dir_05ee78ff1b12ab1325c485419f519e72&#45;&gt;dir_f78573f92b19f911d08210d637df7171</title>
<g id="a_edge9"><a xlink:href="dir_000074_000423.html" target="_top">
<path fill="none" stroke="#63b8ff" d="M409.38,-73.52C380.94,-64.86 327.77,-48.67 291.87,-37.73"/>
<polygon fill="#63b8ff" stroke="#63b8ff" points="292.83,-34.36 282.24,-34.8 290.79,-41.06 292.83,-34.36"/>
</a>
</g>
<g id="a_edge9&#45;headlabel"><a xlink:href="dir_000074_000423.html" target="_top" xlink:title="1">
<text text-anchor="middle" x="297.09" y="-30.2" font-family="Helvetica,sans-Serif" font-size="10.00" fill="#63b8ff">1</text>
</a>
</g>
</g>
<!-- dir_79e8035470b34d72c544e1d5f313f619 -->
<g id="node12" class="node">
<title>dir_79e8035470b34d72c544e1d5f313f619</title>
<g id="a_node12"><a xlink:href="dir_79e8035470b34d72c544e1d5f313f619.html" target="_top" xlink:title="mlir&#45;c">
<polygon fill="#edf0f7" stroke="red" stroke-dasharray="5,2" points="745.5,-35 700.5,-35 700.5,-16 745.5,-16 745.5,-35"/>
<text text-anchor="middle" x="723" y="-23" font-family="Helvetica,sans-Serif" font-size="10.00">mlir&#45;c</text>
</a>
</g>
</g>
<!-- dir_05ee78ff1b12ab1325c485419f519e72&#45;&gt;dir_79e8035470b34d72c544e1d5f313f619 -->
<g id="edge3" class="edge">
<title>dir_05ee78ff1b12ab1325c485419f519e72&#45;&gt;dir_79e8035470b34d72c544e1d5f313f619</title>
<g id="a_edge3"><a xlink:href="dir_000074_000321.html" target="_top">
<path fill="none" stroke="#63b8ff" d="M441.48,-70.95C446.42,-67.96 452.28,-64.88 458,-63 555.62,-30.93 589.09,-55.09 690.45,-35.73"/>
<polygon fill="#63b8ff" stroke="#63b8ff" points="691.36,-39.11 700.47,-33.71 689.98,-32.25 691.36,-39.11"/>
</a>
</g>
<g id="a_edge3&#45;headlabel"><a xlink:href="dir_000074_000321.html" target="_top" xlink:title="15">
<text text-anchor="middle" x="688.39" y="-40.11" font-family="Helvetica,sans-Serif" font-size="10.00" fill="#63b8ff">15</text>
</a>
</g>
</g>
<!-- dir_99dd87b7d111035c414bc484a91d40d0 -->
<g id="node11" class="node">
<title>dir_99dd87b7d111035c414bc484a91d40d0</title>
<g id="a_node11"><a xlink:href="dir_99dd87b7d111035c414bc484a91d40d0.html" target="_top" xlink:title="Dialect">
<polygon fill="#a2b4d6" stroke="#404040" points="517.5,-90 466.5,-90 466.5,-71 517.5,-71 517.5,-90"/>
<text text-anchor="middle" x="492" y="-78" font-family="Helvetica,sans-Serif" font-size="10.00">Dialect</text>
</a>
</g>
</g>
<!-- dir_99dd87b7d111035c414bc484a91d40d0&#45;&gt;dir_d07a6fac82475a065a3b2953573f00a0 -->
<g id="edge11" class="edge">
<title>dir_99dd87b7d111035c414bc484a91d40d0&#45;&gt;dir_d07a6fac82475a065a3b2953573f00a0</title>
<g id="a_edge11"><a xlink:href="dir_000119_000120.html" target="_top">
<path fill="none" stroke="#63b8ff" d="M517.78,-71.22C545.75,-62.23 590.58,-47.83 621.79,-37.81"/>
<polygon fill="#63b8ff" stroke="#63b8ff" points="622.95,-41.11 631.4,-34.72 620.81,-34.45 622.95,-41.11"/>
</a>
</g>
<g id="a_edge11&#45;headlabel"><a xlink:href="dir_000119_000120.html" target="_top" xlink:title="1">
<text text-anchor="middle" x="620.4" y="-42.42" font-family="Helvetica,sans-Serif" font-size="10.00" fill="#63b8ff">1</text>
</a>
</g>
</g>
<!-- dir_99dd87b7d111035c414bc484a91d40d0&#45;&gt;dir_79e8035470b34d72c544e1d5f313f619 -->
<g id="edge10" class="edge">
<title>dir_99dd87b7d111035c414bc484a91d40d0&#45;&gt;dir_79e8035470b34d72c544e1d5f313f619</title>
<g id="a_edge10"><a xlink:href="dir_000119_000321.html" target="_top">
<path fill="none" stroke="#63b8ff" d="M517.79,-74.53C554.68,-67.26 624.83,-52.92 690.74,-36.03"/>
<polygon fill="#63b8ff" stroke="#63b8ff" points="691.62,-39.42 700.43,-33.52 689.87,-32.64 691.62,-39.42"/>
</a>
</g>
<g id="a_edge10&#45;headlabel"><a xlink:href="dir_000119_000321.html" target="_top" xlink:title="1">
<text text-anchor="middle" x="688.86" y="-40.57" font-family="Helvetica,sans-Serif" font-size="10.00" fill="#63b8ff">1</text>
</a>
</g>
</g>
</g>
</svg>
