<?xml version="1.0" encoding="UTF-8" standalone="no"?>
<!DOCTYPE svg PUBLIC "-//W3C//DTD SVG 1.1//EN"
 "http://www.w3.org/Graphics/SVG/1.1/DTD/svg11.dtd">
<!-- Generated by graphviz version 2.43.0 (0)
 -->
<!-- Title: include/mlir/Transforms Pages: 1 -->
<svg width="286pt" height="455pt"
 viewBox="0.00 0.00 286.00 455.00" xmlns="http://www.w3.org/2000/svg" xmlns:xlink="http://www.w3.org/1999/xlink">
<g id="graph0" class="graph" transform="scale(1 1) rotate(0) translate(4 451)">
<title>include/mlir/Transforms</title>
<g id="clust1" class="cluster">
<title>clusterdir_5654f77406fb9ceec87e68ef828ceea2</title>
<g id="a_clust1"><a xlink:href="dir_5654f77406fb9ceec87e68ef828ceea2.html" target="_top" xlink:title="mlir">
<polygon fill="#ddddee" stroke="black" points="8,-8 8,-439 270,-439 270,-8 8,-8"/>
<text text-anchor="middle" x="139" y="-427" font-family="Helvetica,sans-Serif" font-size="10.00">mlir</text>
</a>
</g>
</g>
<!-- dir_444b57698294f6a80104968315903582 -->
<g id="node1" class="node">
<title>dir_444b57698294f6a80104968315903582</title>
<g id="a_node1"><a xlink:href="dir_444b57698294f6a80104968315903582.html" target="_top" xlink:title="Analysis">
<polygon fill="none" stroke="red" points="222,-340 164,-340 164,-304 222,-304 222,-340"/>
<text text-anchor="middle" x="193" y="-319.5" font-family="Helvetica,sans-Serif" font-size="10.00">Analysis</text>
</a>
</g>
</g>
<!-- dir_84ef7c054b4edc3447cfba80cee80f65 -->
<g id="node2" class="node">
<title>dir_84ef7c054b4edc3447cfba80cee80f65</title>
<g id="a_node2"><a xlink:href="dir_84ef7c054b4edc3447cfba80cee80f65.html" target="_top" xlink:title="IR">
<polygon fill="none" stroke="black" points="182,-196 128,-196 128,-160 182,-160 182,-196"/>
<text text-anchor="middle" x="155" y="-175.5" font-family="Helvetica,sans-Serif" font-size="10.00">IR</text>
</a>
</g>
</g>
<!-- dir_444b57698294f6a80104968315903582&#45;&gt;dir_84ef7c054b4edc3447cfba80cee80f65 -->
<g id="edge4" class="edge">
<title>dir_444b57698294f6a80104968315903582&#45;&gt;dir_84ef7c054b4edc3447cfba80cee80f65</title>
<path fill="none" stroke="black" d="M188.42,-303.87C181.91,-279.56 169.94,-234.82 162.23,-206.01"/>
<polygon fill="black" stroke="black" points="165.57,-204.94 159.6,-196.19 158.8,-206.75 165.57,-204.94"/>
<g id="a_edge4&#45;headlabel"><a xlink:href="dir_000009_000046.html" target="_top" xlink:title="12">
<text text-anchor="middle" x="169.24" y="-205.18" font-family="Helvetica,sans-Serif" font-size="10.00">12</text>
</a>
</g>
</g>
<!-- dir_cab9f8330899b1cc9d753b1d9c5c5a3e -->
<g id="node3" class="node">
<title>dir_cab9f8330899b1cc9d753b1d9c5c5a3e</title>
<g id="a_node3"><a xlink:href="dir_cab9f8330899b1cc9d753b1d9c5c5a3e.html" target="_top" xlink:title="Pass">
<polygon fill="none" stroke="black" points="70,-268 16,-268 16,-232 70,-232 70,-268"/>
<text text-anchor="middle" x="43" y="-247.5" font-family="Helvetica,sans-Serif" font-size="10.00">Pass</text>
</a>
</g>
</g>
<!-- dir_444b57698294f6a80104968315903582&#45;&gt;dir_cab9f8330899b1cc9d753b1d9c5c5a3e -->
<g id="edge5" class="edge">
<title>dir_444b57698294f6a80104968315903582&#45;&gt;dir_cab9f8330899b1cc9d753b1d9c5c5a3e</title>
<path fill="none" stroke="black" d="M163.93,-307.54C142.77,-297.73 113.21,-284.01 79.31,-268.13"/>
<polygon fill="black" stroke="black" points="80.66,-264.9 70.12,-263.83 77.69,-271.24 80.66,-264.9"/>
<g id="a_edge5&#45;headlabel"><a xlink:href="dir_000009_000053.html" target="_top" xlink:title="1">
<text text-anchor="middle" x="85.12" y="-261.35" font-family="Helvetica,sans-Serif" font-size="10.00">1</text>
</a>
</g>
</g>
<!-- dir_cf63c3ddb21c79ef735682489f4c6a69 -->
<g id="node4" class="node">
<title>dir_cf63c3ddb21c79ef735682489f4c6a69</title>
<g id="a_node4"><a xlink:href="dir_cf63c3ddb21c79ef735682489f4c6a69.html" target="_top" xlink:title="Interfaces">
<polygon fill="none" stroke="red" points="201.5,-124 136.5,-124 136.5,-88 201.5,-88 201.5,-124"/>
<text text-anchor="middle" x="169" y="-103.5" font-family="Helvetica,sans-Serif" font-size="10.00">Interfaces</text>
</a>
</g>
</g>
<!-- dir_444b57698294f6a80104968315903582&#45;&gt;dir_cf63c3ddb21c79ef735682489f4c6a69 -->
<g id="edge7" class="edge">
<title>dir_444b57698294f6a80104968315903582&#45;&gt;dir_cf63c3ddb21c79ef735682489f4c6a69</title>
<path fill="none" stroke="black" d="M189.46,-303.85C188.71,-274.17 192.59,-211.47 182,-160 180.17,-151.12 176.86,-141.86 173.76,-133.6"/>
<polygon fill="black" stroke="black" points="177,-132.26 170.2,-124.13 170.45,-134.72 177,-132.26"/>
<g id="a_edge7&#45;headlabel"><a xlink:href="dir_000009_000279.html" target="_top" xlink:title="5">
<text text-anchor="middle" x="180.92" y="-132.12" font-family="Helvetica,sans-Serif" font-size="10.00">5</text>
</a>
</g>
</g>
<!-- dir_f61d47671007dfdb592580b61f960d39 -->
<g id="node5" class="node">
<title>dir_f61d47671007dfdb592580b61f960d39</title>
<g id="a_node5"><a xlink:href="dir_f61d47671007dfdb592580b61f960d39.html" target="_top" xlink:title="Support">
<polygon fill="none" stroke="black" points="196,-52 142,-52 142,-16 196,-16 196,-52"/>
<text text-anchor="middle" x="169" y="-31.5" font-family="Helvetica,sans-Serif" font-size="10.00">Support</text>
</a>
</g>
</g>
<!-- dir_444b57698294f6a80104968315903582&#45;&gt;dir_f61d47671007dfdb592580b61f960d39 -->
<g id="edge6" class="edge">
<title>dir_444b57698294f6a80104968315903582&#45;&gt;dir_f61d47671007dfdb592580b61f960d39</title>
<path fill="none" stroke="black" d="M198.94,-303.73C211.56,-264.23 237.75,-164.82 211,-88 207.47,-77.86 201.09,-68.19 194.36,-59.96"/>
<polygon fill="black" stroke="black" points="196.83,-57.46 187.6,-52.24 191.56,-62.07 196.83,-57.46"/>
<g id="a_edge6&#45;headlabel"><a xlink:href="dir_000009_000288.html" target="_top" xlink:title="5">
<text text-anchor="middle" x="201.33" y="-55.79" font-family="Helvetica,sans-Serif" font-size="10.00">5</text>
</a>
</g>
</g>
<!-- dir_84ef7c054b4edc3447cfba80cee80f65&#45;&gt;dir_cf63c3ddb21c79ef735682489f4c6a69 -->
<g id="edge1" class="edge">
<title>dir_84ef7c054b4edc3447cfba80cee80f65&#45;&gt;dir_cf63c3ddb21c79ef735682489f4c6a69</title>
<path fill="none" stroke="black" d="M152.54,-159.7C153.3,-151.9 154.96,-142.51 157.05,-133.83"/>
<polygon fill="black" stroke="black" points="160.45,-134.67 159.68,-124.1 153.69,-132.84 160.45,-134.67"/>
<g id="a_edge1&#45;headlabel"><a xlink:href="dir_000046_000279.html" target="_top" xlink:title="3">
<text text-anchor="middle" x="162.25" y="-136.38" font-family="Helvetica,sans-Serif" font-size="10.00">3</text>
</a>
</g>
</g>
<!-- dir_84ef7c054b4edc3447cfba80cee80f65&#45;&gt;dir_f61d47671007dfdb592580b61f960d39 -->
<g id="edge2" class="edge">
<title>dir_84ef7c054b4edc3447cfba80cee80f65&#45;&gt;dir_f61d47671007dfdb592580b61f960d39</title>
<path fill="none" stroke="black" d="M143.33,-159.83C132.6,-141.82 119.54,-112.75 128,-88 131.44,-77.93 137.66,-68.28 144.23,-60.05"/>
<polygon fill="black" stroke="black" points="147,-62.2 150.83,-52.32 141.68,-57.65 147,-62.2"/>
<g id="a_edge2&#45;headlabel"><a xlink:href="dir_000046_000288.html" target="_top" xlink:title="23">
<text text-anchor="middle" x="146.82" y="-64.28" font-family="Helvetica,sans-Serif" font-size="10.00">23</text>
</a>
</g>
</g>
<!-- dir_cab9f8330899b1cc9d753b1d9c5c5a3e&#45;&gt;dir_84ef7c054b4edc3447cfba80cee80f65 -->
<g id="edge17" class="edge">
<title>dir_cab9f8330899b1cc9d753b1d9c5c5a3e&#45;&gt;dir_84ef7c054b4edc3447cfba80cee80f65</title>
<path fill="none" stroke="black" d="M70.11,-232.05C84.86,-222.84 103.29,-211.32 119.21,-201.37"/>
<polygon fill="black" stroke="black" points="121.12,-204.3 127.75,-196.03 117.41,-198.36 121.12,-204.3"/>
<g id="a_edge17&#45;headlabel"><a xlink:href="dir_000053_000046.html" target="_top" xlink:title="4">
<text text-anchor="middle" x="119.58" y="-206.11" font-family="Helvetica,sans-Serif" font-size="10.00">4</text>
</a>
</g>
</g>
<!-- dir_cab9f8330899b1cc9d753b1d9c5c5a3e&#45;&gt;dir_f61d47671007dfdb592580b61f960d39 -->
<g id="edge18" class="edge">
<title>dir_cab9f8330899b1cc9d753b1d9c5c5a3e&#45;&gt;dir_f61d47671007dfdb592580b61f960d39</title>
<path fill="none" stroke="black" d="M49.49,-231.69C61.3,-201.23 88.17,-136.66 121,-88 127.7,-78.07 136.16,-68.1 144.11,-59.53"/>
<polygon fill="black" stroke="black" points="146.84,-61.74 151.21,-52.09 141.77,-56.91 146.84,-61.74"/>
<g id="a_edge18&#45;headlabel"><a xlink:href="dir_000053_000288.html" target="_top" xlink:title="6">
<text text-anchor="middle" x="146.41" y="-63.8" font-family="Helvetica,sans-Serif" font-size="10.00">6</text>
</a>
</g>
</g>
<!-- dir_cf63c3ddb21c79ef735682489f4c6a69&#45;&gt;dir_444b57698294f6a80104968315903582 -->
<g id="edge14" class="edge">
<title>dir_cf63c3ddb21c79ef735682489f4c6a69&#45;&gt;dir_444b57698294f6a80104968315903582</title>
<path fill="none" stroke="black" d="M185.95,-124.13C191.93,-134.26 197.43,-147.51 200,-160 209.52,-206.25 207.35,-261.55 202.18,-293.83"/>
<polygon fill="black" stroke="black" points="198.71,-293.38 200.33,-303.85 205.59,-294.66 198.71,-293.38"/>
<g id="a_edge14&#45;headlabel"><a xlink:href="dir_000279_000009.html" target="_top" xlink:title="1">
<text text-anchor="middle" x="196.57" y="-286.83" font-family="Helvetica,sans-Serif" font-size="10.00">1</text>
</a>
</g>
</g>
<!-- dir_cf63c3ddb21c79ef735682489f4c6a69&#45;&gt;dir_84ef7c054b4edc3447cfba80cee80f65 -->
<g id="edge15" class="edge">
<title>dir_cf63c3ddb21c79ef735682489f4c6a69&#45;&gt;dir_84ef7c054b4edc3447cfba80cee80f65</title>
<path fill="none" stroke="black" d="M171.47,-124.1C170.73,-131.88 169.09,-141.26 167,-149.95"/>
<polygon fill="black" stroke="black" points="163.6,-149.13 164.38,-159.7 170.36,-150.95 163.6,-149.13"/>
<g id="a_edge15&#45;headlabel"><a xlink:href="dir_000279_000046.html" target="_top" xlink:title="54">
<text text-anchor="middle" x="161.79" y="-142.42" font-family="Helvetica,sans-Serif" font-size="10.00">54</text>
</a>
</g>
</g>
<!-- dir_cf63c3ddb21c79ef735682489f4c6a69&#45;&gt;dir_f61d47671007dfdb592580b61f960d39 -->
<g id="edge16" class="edge">
<title>dir_cf63c3ddb21c79ef735682489f4c6a69&#45;&gt;dir_f61d47671007dfdb592580b61f960d39</title>
<path fill="none" stroke="black" d="M169,-87.7C169,-79.98 169,-70.71 169,-62.11"/>
<polygon fill="black" stroke="black" points="172.5,-62.1 169,-52.1 165.5,-62.1 172.5,-62.1"/>
<g id="a_edge16&#45;headlabel"><a xlink:href="dir_000279_000288.html" target="_top" xlink:title="2">
<text text-anchor="middle" x="175.34" y="-63.2" font-family="Helvetica,sans-Serif" font-size="10.00">2</text>
</a>
</g>
</g>
<!-- dir_f78573f92b19f911d08210d637df7171 -->
<g id="node6" class="node">
<title>dir_f78573f92b19f911d08210d637df7171</title>
<g id="a_node6"><a xlink:href="dir_f78573f92b19f911d08210d637df7171.html" target="_top" xlink:title="Rewrite">
<polygon fill="none" stroke="black" points="142,-268 88,-268 88,-232 142,-232 142,-268"/>
<text text-anchor="middle" x="115" y="-247.5" font-family="Helvetica,sans-Serif" font-size="10.00">Rewrite</text>
</a>
</g>
</g>
<!-- dir_f78573f92b19f911d08210d637df7171&#45;&gt;dir_84ef7c054b4edc3447cfba80cee80f65 -->
<g id="edge3" class="edge">
<title>dir_f78573f92b19f911d08210d637df7171&#45;&gt;dir_84ef7c054b4edc3447cfba80cee80f65</title>
<path fill="none" stroke="black" d="M124.89,-231.7C129.49,-223.64 135.06,-213.89 140.15,-204.98"/>
<polygon fill="black" stroke="black" points="143.3,-206.52 145.23,-196.1 137.23,-203.05 143.3,-206.52"/>
<g id="a_edge3&#45;headlabel"><a xlink:href="dir_000287_000046.html" target="_top" xlink:title="2">
<text text-anchor="middle" x="143.99" y="-208.55" font-family="Helvetica,sans-Serif" font-size="10.00">2</text>
</a>
</g>
</g>
<!-- dir_ca4d1f3bc4cd42ba07a57ca86d19a1d6 -->
<g id="node7" class="node">
<title>dir_ca4d1f3bc4cd42ba07a57ca86d19a1d6</title>
<g id="a_node7"><a xlink:href="dir_ca4d1f3bc4cd42ba07a57ca86d19a1d6.html" target="_top" xlink:title="Transforms">
<polygon fill="#eeeeff" stroke="black" points="204.5,-412 133.5,-412 133.5,-376 204.5,-376 204.5,-412"/>
<text text-anchor="middle" x="169" y="-391.5" font-family="Helvetica,sans-Serif" font-size="10.00">Transforms</text>
</a>
</g>
</g>
<!-- dir_ca4d1f3bc4cd42ba07a57ca86d19a1d6&#45;&gt;dir_444b57698294f6a80104968315903582 -->
<g id="edge8" class="edge">
<title>dir_ca4d1f3bc4cd42ba07a57ca86d19a1d6&#45;&gt;dir_444b57698294f6a80104968315903582</title>
<path fill="none" stroke="black" d="M174.93,-375.7C177.61,-367.9 180.83,-358.51 183.8,-349.83"/>
<polygon fill="black" stroke="black" points="187.2,-350.7 187.14,-340.1 180.58,-348.43 187.2,-350.7"/>
<g id="a_edge8&#45;headlabel"><a xlink:href="dir_000156_000009.html" target="_top" xlink:title="1">
<text text-anchor="middle" x="188.72" y="-352.52" font-family="Helvetica,sans-Serif" font-size="10.00">1</text>
</a>
</g>
</g>
<!-- dir_ca4d1f3bc4cd42ba07a57ca86d19a1d6&#45;&gt;dir_84ef7c054b4edc3447cfba80cee80f65 -->
<g id="edge9" class="edge">
<title>dir_ca4d1f3bc4cd42ba07a57ca86d19a1d6&#45;&gt;dir_84ef7c054b4edc3447cfba80cee80f65</title>
<path fill="none" stroke="black" d="M163.18,-375.56C160.07,-365.33 156.57,-352.08 155,-340 151.75,-314.98 153.08,-245.18 154.15,-206.21"/>
<polygon fill="black" stroke="black" points="157.65,-206.19 154.44,-196.09 150.66,-205.99 157.65,-206.19"/>
<g id="a_edge9&#45;headlabel"><a xlink:href="dir_000156_000046.html" target="_top" xlink:title="19">
<text text-anchor="middle" x="160.39" y="-207.36" font-family="Helvetica,sans-Serif" font-size="10.00">19</text>
</a>
</g>
</g>
<!-- dir_ca4d1f3bc4cd42ba07a57ca86d19a1d6&#45;&gt;dir_cab9f8330899b1cc9d753b1d9c5c5a3e -->
<g id="edge10" class="edge">
<title>dir_ca4d1f3bc4cd42ba07a57ca86d19a1d6&#45;&gt;dir_cab9f8330899b1cc9d753b1d9c5c5a3e</title>
<path fill="none" stroke="black" d="M153.8,-375.87C131.66,-350.92 90.43,-304.45 64.98,-275.77"/>
<polygon fill="black" stroke="black" points="67.51,-273.35 58.25,-268.19 62.27,-277.99 67.51,-273.35"/>
<g id="a_edge10&#45;headlabel"><a xlink:href="dir_000156_000053.html" target="_top" xlink:title="4">
<text text-anchor="middle" x="72.02" y="-271.65" font-family="Helvetica,sans-Serif" font-size="10.00">4</text>
</a>
</g>
</g>
<!-- dir_ca4d1f3bc4cd42ba07a57ca86d19a1d6&#45;&gt;dir_cf63c3ddb21c79ef735682489f4c6a69 -->
<g id="edge11" class="edge">
<title>dir_ca4d1f3bc4cd42ba07a57ca86d19a1d6&#45;&gt;dir_cf63c3ddb21c79ef735682489f4c6a69</title>
<path fill="none" stroke="black" d="M198.5,-375.94C210.98,-366.99 224.19,-354.79 231,-340 263.94,-268.51 215.03,-176.33 186.75,-132.43"/>
<polygon fill="black" stroke="black" points="189.66,-130.48 181.23,-124.06 183.82,-134.34 189.66,-130.48"/>
<g id="a_edge11&#45;headlabel"><a xlink:href="dir_000156_000279.html" target="_top" xlink:title="4">
<text text-anchor="middle" x="194.01" y="-129.42" font-family="Helvetica,sans-Serif" font-size="10.00">4</text>
</a>
</g>
</g>
<!-- dir_ca4d1f3bc4cd42ba07a57ca86d19a1d6&#45;&gt;dir_f61d47671007dfdb592580b61f960d39 -->
<g id="edge12" class="edge">
<title>dir_ca4d1f3bc4cd42ba07a57ca86d19a1d6&#45;&gt;dir_f61d47671007dfdb592580b61f960d39</title>
<path fill="none" stroke="black" d="M201.06,-375.94C214.98,-366.99 230.3,-354.79 240,-340 262.29,-306.02 261,-291.64 261,-251 261,-251 261,-251 261,-177 261,-129.47 224.25,-85.3 197.21,-59.23"/>
<polygon fill="black" stroke="black" points="199.57,-56.65 189.88,-52.37 194.79,-61.76 199.57,-56.65"/>
<g id="a_edge12&#45;headlabel"><a xlink:href="dir_000156_000288.html" target="_top" xlink:title="6">
<text text-anchor="middle" x="204.13" y="-54.53" font-family="Helvetica,sans-Serif" font-size="10.00">6</text>
</a>
</g>
</g>
<!-- dir_ca4d1f3bc4cd42ba07a57ca86d19a1d6&#45;&gt;dir_f78573f92b19f911d08210d637df7171 -->
<g id="edge13" class="edge">
<title>dir_ca4d1f3bc4cd42ba07a57ca86d19a1d6&#45;&gt;dir_f78573f92b19f911d08210d637df7171</title>
<path fill="none" stroke="black" d="M158.3,-375.82C152.32,-365.68 145.07,-352.43 140,-340 131.74,-319.75 125.19,-295.84 120.87,-277.91"/>
<polygon fill="black" stroke="black" points="124.27,-277.06 118.59,-268.11 117.45,-278.65 124.27,-277.06"/>
<g id="a_edge13&#45;headlabel"><a xlink:href="dir_000156_000287.html" target="_top" xlink:title="3">
<text text-anchor="middle" x="127.85" y="-277.41" font-family="Helvetica,sans-Serif" font-size="10.00">3</text>
</a>
</g>
</g>
</g>
</svg>
