<?xml version="1.0" encoding="UTF-8" standalone="no"?>
<!DOCTYPE svg PUBLIC "-//W3C//DTD SVG 1.1//EN"
 "http://www.w3.org/Graphics/SVG/1.1/DTD/svg11.dtd">
<!-- Generated by graphviz version 2.43.0 (0)
 -->
<!-- Title: include/mlir/Dialect/ArmSME/Transforms Pages: 1 -->
<svg width="158pt" height="223pt"
 viewBox="0.00 0.00 157.50 223.00" xmlns="http://www.w3.org/2000/svg" xmlns:xlink="http://www.w3.org/1999/xlink">
<g id="graph0" class="graph" transform="scale(1 1) rotate(0) translate(4 219)">
<title>include/mlir/Dialect/ArmSME/Transforms</title>
<g id="clust1" class="cluster">
<title>clusterdir_e42d9d2b117d1272004d4481c3e91441</title>
<g id="a_clust1"><a xlink:href="dir_e42d9d2b117d1272004d4481c3e91441.html" target="_top" xlink:title="ArmSME">
<polygon fill="#ddddee" stroke="black" points="22,-136 22,-207 110,-207 110,-136 22,-136"/>
<text text-anchor="middle" x="66" y="-195" font-family="Helvetica,sans-Serif" font-size="10.00">ArmSME</text>
</a>
</g>
</g>
<!-- dir_9432bf9be6086ca494805f45e0dd1246 -->
<g id="node1" class="node">
<title>dir_9432bf9be6086ca494805f45e0dd1246</title>
<g id="a_node1"><a xlink:href="dir_9432bf9be6086ca494805f45e0dd1246.html" target="_top" xlink:title="Transforms">
<polygon fill="#eeeeff" stroke="black" points="101.5,-180 30.5,-180 30.5,-144 101.5,-144 101.5,-180"/>
<text text-anchor="middle" x="66" y="-159.5" font-family="Helvetica,sans-Serif" font-size="10.00">Transforms</text>
</a>
</g>
</g>
<!-- dir_37f3372f1e76d74ffd54613af9306e43 -->
<g id="node2" class="node">
<title>dir_37f3372f1e76d74ffd54613af9306e43</title>
<g id="a_node2"><a xlink:href="dir_37f3372f1e76d74ffd54613af9306e43.html" target="_top" xlink:title="Conversion">
<polygon fill="none" stroke="red" points="101.5,-108 30.5,-108 30.5,-72 101.5,-72 101.5,-108"/>
<text text-anchor="middle" x="66" y="-87.5" font-family="Helvetica,sans-Serif" font-size="10.00">Conversion</text>
</a>
</g>
</g>
<!-- dir_9432bf9be6086ca494805f45e0dd1246&#45;&gt;dir_37f3372f1e76d74ffd54613af9306e43 -->
<g id="edge3" class="edge">
<title>dir_9432bf9be6086ca494805f45e0dd1246&#45;&gt;dir_37f3372f1e76d74ffd54613af9306e43</title>
<path fill="none" stroke="black" d="M66,-143.7C66,-135.98 66,-126.71 66,-118.11"/>
<polygon fill="black" stroke="black" points="69.5,-118.1 66,-108.1 62.5,-118.1 69.5,-118.1"/>
<g id="a_edge3&#45;headlabel"><a xlink:href="dir_000113_000056.html" target="_top" xlink:title="1">
<text text-anchor="middle" x="72.34" y="-119.2" font-family="Helvetica,sans-Serif" font-size="10.00">1</text>
</a>
</g>
</g>
<!-- dir_cab9f8330899b1cc9d753b1d9c5c5a3e -->
<g id="node3" class="node">
<title>dir_cab9f8330899b1cc9d753b1d9c5c5a3e</title>
<g id="a_node3"><a xlink:href="dir_cab9f8330899b1cc9d753b1d9c5c5a3e.html" target="_top" xlink:title="Pass">
<polygon fill="none" stroke="black" points="54,-36 0,-36 0,0 54,0 54,-36"/>
<text text-anchor="middle" x="27" y="-15.5" font-family="Helvetica,sans-Serif" font-size="10.00">Pass</text>
</a>
</g>
</g>
<!-- dir_9432bf9be6086ca494805f45e0dd1246&#45;&gt;dir_cab9f8330899b1cc9d753b1d9c5c5a3e -->
<g id="edge4" class="edge">
<title>dir_9432bf9be6086ca494805f45e0dd1246&#45;&gt;dir_cab9f8330899b1cc9d753b1d9c5c5a3e</title>
<path fill="none" stroke="black" d="M45.62,-143.53C36.19,-134.09 25.99,-121.6 21,-108 13.73,-88.19 15.89,-64.26 19.52,-46.2"/>
<polygon fill="black" stroke="black" points="22.96,-46.85 21.75,-36.32 16.13,-45.3 22.96,-46.85"/>
<g id="a_edge4&#45;headlabel"><a xlink:href="dir_000113_000053.html" target="_top" xlink:title="1">
<text text-anchor="middle" x="24.93" y="-48.48" font-family="Helvetica,sans-Serif" font-size="10.00">1</text>
</a>
</g>
</g>
<!-- dir_cf63c3ddb21c79ef735682489f4c6a69 -->
<g id="node4" class="node">
<title>dir_cf63c3ddb21c79ef735682489f4c6a69</title>
<g id="a_node4"><a xlink:href="dir_cf63c3ddb21c79ef735682489f4c6a69.html" target="_top" xlink:title="Interfaces">
<polygon fill="none" stroke="red" points="149.5,-36 84.5,-36 84.5,0 149.5,0 149.5,-36"/>
<text text-anchor="middle" x="117" y="-15.5" font-family="Helvetica,sans-Serif" font-size="10.00">Interfaces</text>
</a>
</g>
</g>
<!-- dir_9432bf9be6086ca494805f45e0dd1246&#45;&gt;dir_cf63c3ddb21c79ef735682489f4c6a69 -->
<g id="edge5" class="edge">
<title>dir_9432bf9be6086ca494805f45e0dd1246&#45;&gt;dir_cf63c3ddb21c79ef735682489f4c6a69</title>
<path fill="none" stroke="black" d="M85.03,-143.75C94.26,-134.19 104.51,-121.52 110,-108 117.96,-88.4 119.42,-64.41 119.05,-46.28"/>
<polygon fill="black" stroke="black" points="122.54,-45.95 118.64,-36.1 115.55,-46.23 122.54,-45.95"/>
<g id="a_edge5&#45;headlabel"><a xlink:href="dir_000113_000279.html" target="_top" xlink:title="1">
<text text-anchor="middle" x="125.52" y="-46.93" font-family="Helvetica,sans-Serif" font-size="10.00">1</text>
</a>
</g>
</g>
<!-- dir_37f3372f1e76d74ffd54613af9306e43&#45;&gt;dir_cab9f8330899b1cc9d753b1d9c5c5a3e -->
<g id="edge1" class="edge">
<title>dir_37f3372f1e76d74ffd54613af9306e43&#45;&gt;dir_cab9f8330899b1cc9d753b1d9c5c5a3e</title>
<path fill="none" stroke="black" d="M56.36,-71.7C51.87,-63.64 46.44,-53.89 41.48,-44.98"/>
<polygon fill="black" stroke="black" points="44.45,-43.14 36.53,-36.1 38.34,-46.54 44.45,-43.14"/>
<g id="a_edge1&#45;headlabel"><a xlink:href="dir_000056_000053.html" target="_top" xlink:title="28">
<text text-anchor="middle" x="48.68" y="-42.39" font-family="Helvetica,sans-Serif" font-size="10.00">28</text>
</a>
</g>
</g>
<!-- dir_37f3372f1e76d74ffd54613af9306e43&#45;&gt;dir_cf63c3ddb21c79ef735682489f4c6a69 -->
<g id="edge2" class="edge">
<title>dir_37f3372f1e76d74ffd54613af9306e43&#45;&gt;dir_cf63c3ddb21c79ef735682489f4c6a69</title>
<path fill="none" stroke="black" d="M78.61,-71.7C84.6,-63.47 91.88,-53.48 98.48,-44.42"/>
<polygon fill="black" stroke="black" points="101.48,-46.25 104.54,-36.1 95.82,-42.13 101.48,-46.25"/>
<g id="a_edge2&#45;headlabel"><a xlink:href="dir_000056_000279.html" target="_top" xlink:title="3">
<text text-anchor="middle" x="101.66" y="-48.32" font-family="Helvetica,sans-Serif" font-size="10.00">3</text>
</a>
</g>
</g>
</g>
</svg>
