<?xml version="1.0" encoding="UTF-8" standalone="no"?>
<!DOCTYPE svg PUBLIC "-//W3C//DTD SVG 1.1//EN"
 "http://www.w3.org/Graphics/SVG/1.1/DTD/svg11.dtd">
<!-- Generated by graphviz version 2.43.0 (0)
 -->
<!-- Title: include/mlir/Dialect/ArmSVE/Transforms Pages: 1 -->
<svg width="128pt" height="223pt"
 viewBox="0.00 0.00 127.50 223.00" xmlns="http://www.w3.org/2000/svg" xmlns:xlink="http://www.w3.org/1999/xlink">
<g id="graph0" class="graph" transform="scale(1 1) rotate(0) translate(4 219)">
<title>include/mlir/Dialect/ArmSVE/Transforms</title>
<g id="clust1" class="cluster">
<title>clusterdir_6996313d7d68c9595cc4ed36538d6299</title>
<g id="a_clust1"><a xlink:href="dir_6996313d7d68c9595cc4ed36538d6299.html" target="_top" xlink:title="ArmSVE">
<polygon fill="#ddddee" stroke="black" points="23.5,-136 23.5,-207 111.5,-207 111.5,-136 23.5,-136"/>
<text text-anchor="middle" x="67.5" y="-195" font-family="Helvetica,sans-Serif" font-size="10.00">ArmSVE</text>
</a>
</g>
</g>
<!-- dir_bfe396ddd6fd528d172d364e8966b09d -->
<g id="node1" class="node">
<title>dir_bfe396ddd6fd528d172d364e8966b09d</title>
<g id="a_node1"><a xlink:href="dir_bfe396ddd6fd528d172d364e8966b09d.html" target="_top" xlink:title="Transforms">
<polygon fill="#eeeeff" stroke="black" points="103,-180 32,-180 32,-144 103,-144 103,-180"/>
<text text-anchor="middle" x="67.5" y="-159.5" font-family="Helvetica,sans-Serif" font-size="10.00">Transforms</text>
</a>
</g>
</g>
<!-- dir_37f3372f1e76d74ffd54613af9306e43 -->
<g id="node2" class="node">
<title>dir_37f3372f1e76d74ffd54613af9306e43</title>
<g id="a_node2"><a xlink:href="dir_37f3372f1e76d74ffd54613af9306e43.html" target="_top" xlink:title="Conversion">
<polygon fill="none" stroke="red" points="71,-108 0,-108 0,-72 71,-72 71,-108"/>
<text text-anchor="middle" x="35.5" y="-87.5" font-family="Helvetica,sans-Serif" font-size="10.00">Conversion</text>
</a>
</g>
</g>
<!-- dir_bfe396ddd6fd528d172d364e8966b09d&#45;&gt;dir_37f3372f1e76d74ffd54613af9306e43 -->
<g id="edge2" class="edge">
<title>dir_bfe396ddd6fd528d172d364e8966b09d&#45;&gt;dir_37f3372f1e76d74ffd54613af9306e43</title>
<path fill="none" stroke="black" d="M59.59,-143.7C55.95,-135.73 51.55,-126.1 47.51,-117.26"/>
<polygon fill="black" stroke="black" points="50.66,-115.74 43.32,-108.1 44.29,-118.65 50.66,-115.74"/>
<g id="a_edge2&#45;headlabel"><a xlink:href="dir_000115_000056.html" target="_top" xlink:title="1">
<text text-anchor="middle" x="54.74" y="-115.33" font-family="Helvetica,sans-Serif" font-size="10.00">1</text>
</a>
</g>
</g>
<!-- dir_cab9f8330899b1cc9d753b1d9c5c5a3e -->
<g id="node3" class="node">
<title>dir_cab9f8330899b1cc9d753b1d9c5c5a3e</title>
<g id="a_node3"><a xlink:href="dir_cab9f8330899b1cc9d753b1d9c5c5a3e.html" target="_top" xlink:title="Pass">
<polygon fill="none" stroke="black" points="94.5,-36 40.5,-36 40.5,0 94.5,0 94.5,-36"/>
<text text-anchor="middle" x="67.5" y="-15.5" font-family="Helvetica,sans-Serif" font-size="10.00">Pass</text>
</a>
</g>
</g>
<!-- dir_bfe396ddd6fd528d172d364e8966b09d&#45;&gt;dir_cab9f8330899b1cc9d753b1d9c5c5a3e -->
<g id="edge3" class="edge">
<title>dir_bfe396ddd6fd528d172d364e8966b09d&#45;&gt;dir_cab9f8330899b1cc9d753b1d9c5c5a3e</title>
<path fill="none" stroke="black" d="M72.91,-143.53C75.8,-133.29 79.05,-120.04 80.5,-108 82.42,-92.12 82.42,-87.88 80.5,-72 79.48,-63.53 77.57,-54.47 75.52,-46.28"/>
<polygon fill="black" stroke="black" points="78.86,-45.23 72.91,-36.47 72.1,-47.03 78.86,-45.23"/>
<g id="a_edge3&#45;headlabel"><a xlink:href="dir_000115_000053.html" target="_top" xlink:title="1">
<text text-anchor="middle" x="82.53" y="-45.48" font-family="Helvetica,sans-Serif" font-size="10.00">1</text>
</a>
</g>
</g>
<!-- dir_37f3372f1e76d74ffd54613af9306e43&#45;&gt;dir_cab9f8330899b1cc9d753b1d9c5c5a3e -->
<g id="edge1" class="edge">
<title>dir_37f3372f1e76d74ffd54613af9306e43&#45;&gt;dir_cab9f8330899b1cc9d753b1d9c5c5a3e</title>
<path fill="none" stroke="black" d="M43.41,-71.7C47.05,-63.73 51.45,-54.1 55.49,-45.26"/>
<polygon fill="black" stroke="black" points="58.71,-46.65 59.68,-36.1 52.34,-43.74 58.71,-46.65"/>
<g id="a_edge1&#45;headlabel"><a xlink:href="dir_000056_000053.html" target="_top" xlink:title="28">
<text text-anchor="middle" x="59.79" y="-48.6" font-family="Helvetica,sans-Serif" font-size="10.00">28</text>
</a>
</g>
</g>
</g>
</svg>
