<?xml version="1.0" encoding="UTF-8" standalone="no"?>
<!DOCTYPE svg PUBLIC "-//W3C//DTD SVG 1.1//EN"
 "http://www.w3.org/Graphics/SVG/1.1/DTD/svg11.dtd">
<!-- Generated by graphviz version 2.43.0 (0)
 -->
<!-- Title: include/mlir/Dialect/GPU/IR Pages: 1 -->
<svg width="216pt" height="367pt"
 viewBox="0.00 0.00 216.14 367.00" xmlns="http://www.w3.org/2000/svg" xmlns:xlink="http://www.w3.org/1999/xlink">
<g id="graph0" class="graph" transform="scale(1 1) rotate(0) translate(4 363)">
<title>include/mlir/Dialect/GPU/IR</title>
<g id="clust1" class="cluster">
<title>clusterdir_93cabfc07d4b6bdd370da47c980ee537</title>
<g id="a_clust1"><a xlink:href="dir_93cabfc07d4b6bdd370da47c980ee537.html" target="_top" xlink:title="GPU">
<polygon fill="#ddddee" stroke="black" points="11.14,-280 11.14,-351 81.14,-351 81.14,-280 11.14,-280"/>
<text text-anchor="middle" x="46.14" y="-339" font-family="Helvetica,sans-Serif" font-size="10.00">GPU</text>
</a>
</g>
</g>
<!-- dir_394047b3ac69ec3f084d8a2e36a805e7 -->
<g id="node1" class="node">
<title>dir_394047b3ac69ec3f084d8a2e36a805e7</title>
<g id="a_node1"><a xlink:href="dir_394047b3ac69ec3f084d8a2e36a805e7.html" target="_top" xlink:title="IR">
<polygon fill="#eeeeff" stroke="black" points="73.14,-324 19.14,-324 19.14,-288 73.14,-288 73.14,-324"/>
<text text-anchor="middle" x="46.14" y="-303.5" font-family="Helvetica,sans-Serif" font-size="10.00">IR</text>
</a>
</g>
</g>
<!-- dir_47aca9e8d6a16a6d14cf434a05d15774 -->
<g id="node2" class="node">
<title>dir_47aca9e8d6a16a6d14cf434a05d15774</title>
<g id="a_node2"><a xlink:href="dir_47aca9e8d6a16a6d14cf434a05d15774.html" target="_top" xlink:title="SCF">
<polygon fill="none" stroke="red" points="73.14,-252 19.14,-252 19.14,-216 73.14,-216 73.14,-252"/>
<text text-anchor="middle" x="46.14" y="-231.5" font-family="Helvetica,sans-Serif" font-size="10.00">SCF</text>
</a>
</g>
</g>
<!-- dir_394047b3ac69ec3f084d8a2e36a805e7&#45;&gt;dir_47aca9e8d6a16a6d14cf434a05d15774 -->
<g id="edge5" class="edge">
<title>dir_394047b3ac69ec3f084d8a2e36a805e7&#45;&gt;dir_47aca9e8d6a16a6d14cf434a05d15774</title>
<path fill="none" stroke="black" d="M46.14,-287.7C46.14,-279.98 46.14,-270.71 46.14,-262.11"/>
<polygon fill="black" stroke="black" points="49.64,-262.1 46.14,-252.1 42.64,-262.1 49.64,-262.1"/>
<g id="a_edge5&#45;headlabel"><a xlink:href="dir_000188_000029.html" target="_top" xlink:title="1">
<text text-anchor="middle" x="52.48" y="-263.2" font-family="Helvetica,sans-Serif" font-size="10.00">1</text>
</a>
</g>
</g>
<!-- dir_51020c1b0909ae629a35fe1c65c620b9 -->
<g id="node3" class="node">
<title>dir_51020c1b0909ae629a35fe1c65c620b9</title>
<g id="a_node3"><a xlink:href="dir_51020c1b0909ae629a35fe1c65c620b9.html" target="_top" xlink:title="Bytecode">
<polygon fill="none" stroke="black" points="136.14,-180 74.14,-180 74.14,-144 136.14,-144 136.14,-180"/>
<text text-anchor="middle" x="105.14" y="-159.5" font-family="Helvetica,sans-Serif" font-size="10.00">Bytecode</text>
</a>
</g>
</g>
<!-- dir_394047b3ac69ec3f084d8a2e36a805e7&#45;&gt;dir_51020c1b0909ae629a35fe1c65c620b9 -->
<g id="edge6" class="edge">
<title>dir_394047b3ac69ec3f084d8a2e36a805e7&#45;&gt;dir_51020c1b0909ae629a35fe1c65c620b9</title>
<path fill="none" stroke="black" d="M60.09,-287.76C67.55,-277.81 76.36,-264.77 82.14,-252 91.1,-232.19 97.04,-208.25 100.63,-190.2"/>
<polygon fill="black" stroke="black" points="104.08,-190.79 102.48,-180.32 97.2,-189.5 104.08,-190.79"/>
<g id="a_edge6&#45;headlabel"><a xlink:href="dir_000188_000050.html" target="_top" xlink:title="1">
<text text-anchor="middle" x="106.21" y="-192.35" font-family="Helvetica,sans-Serif" font-size="10.00">1</text>
</a>
</g>
</g>
<!-- dir_84ef7c054b4edc3447cfba80cee80f65 -->
<g id="node4" class="node">
<title>dir_84ef7c054b4edc3447cfba80cee80f65</title>
<g id="a_node4"><a xlink:href="dir_84ef7c054b4edc3447cfba80cee80f65.html" target="_top" xlink:title="IR">
<polygon fill="none" stroke="black" points="111.14,-108 57.14,-108 57.14,-72 111.14,-72 111.14,-108"/>
<text text-anchor="middle" x="84.14" y="-87.5" font-family="Helvetica,sans-Serif" font-size="10.00">IR</text>
</a>
</g>
</g>
<!-- dir_394047b3ac69ec3f084d8a2e36a805e7&#45;&gt;dir_84ef7c054b4edc3447cfba80cee80f65 -->
<g id="edge7" class="edge">
<title>dir_394047b3ac69ec3f084d8a2e36a805e7&#45;&gt;dir_84ef7c054b4edc3447cfba80cee80f65</title>
<path fill="none" stroke="black" d="M30.53,-287.77C22.76,-278.03 14.19,-265.18 10.14,-252 5.43,-236.71 5.91,-231.43 10.14,-216 20.46,-178.31 45.4,-140.44 63.48,-116.43"/>
<polygon fill="black" stroke="black" points="66.46,-118.29 69.79,-108.23 60.92,-114.02 66.46,-118.29"/>
<g id="a_edge7&#45;headlabel"><a xlink:href="dir_000188_000046.html" target="_top" xlink:title="8">
<text text-anchor="middle" x="66.52" y="-120.37" font-family="Helvetica,sans-Serif" font-size="10.00">8</text>
</a>
</g>
</g>
<!-- dir_cf63c3ddb21c79ef735682489f4c6a69 -->
<g id="node5" class="node">
<title>dir_cf63c3ddb21c79ef735682489f4c6a69</title>
<g id="a_node5"><a xlink:href="dir_cf63c3ddb21c79ef735682489f4c6a69.html" target="_top" xlink:title="Interfaces">
<polygon fill="none" stroke="red" points="116.64,-36 51.64,-36 51.64,0 116.64,0 116.64,-36"/>
<text text-anchor="middle" x="84.14" y="-15.5" font-family="Helvetica,sans-Serif" font-size="10.00">Interfaces</text>
</a>
</g>
</g>
<!-- dir_394047b3ac69ec3f084d8a2e36a805e7&#45;&gt;dir_cf63c3ddb21c79ef735682489f4c6a69 -->
<g id="edge8" class="edge">
<title>dir_394047b3ac69ec3f084d8a2e36a805e7&#45;&gt;dir_cf63c3ddb21c79ef735682489f4c6a69</title>
<path fill="none" stroke="black" d="M27.1,-287.84C17.96,-278.3 7.97,-265.62 3.14,-252 -2.21,-236.92 1.29,-231.89 3.14,-216 10.74,-150.68 6.85,-130.37 37.14,-72 42.43,-61.8 50.11,-51.99 57.74,-43.64"/>
<polygon fill="black" stroke="black" points="60.28,-46.06 64.67,-36.42 55.22,-41.22 60.28,-46.06"/>
<g id="a_edge8&#45;headlabel"><a xlink:href="dir_000188_000279.html" target="_top" xlink:title="5">
<text text-anchor="middle" x="59.84" y="-48.12" font-family="Helvetica,sans-Serif" font-size="10.00">5</text>
</a>
</g>
</g>
<!-- dir_f27da86a7b97d666275b2e7f4237aac4 -->
<g id="node6" class="node">
<title>dir_f27da86a7b97d666275b2e7f4237aac4</title>
<g id="a_node6"><a xlink:href="dir_f27da86a7b97d666275b2e7f4237aac4.html" target="_top" xlink:title="DLTI">
<polygon fill="none" stroke="red" points="208.14,-180 154.14,-180 154.14,-144 208.14,-144 208.14,-180"/>
<text text-anchor="middle" x="181.14" y="-159.5" font-family="Helvetica,sans-Serif" font-size="10.00">DLTI</text>
</a>
</g>
</g>
<!-- dir_394047b3ac69ec3f084d8a2e36a805e7&#45;&gt;dir_f27da86a7b97d666275b2e7f4237aac4 -->
<g id="edge9" class="edge">
<title>dir_394047b3ac69ec3f084d8a2e36a805e7&#45;&gt;dir_f27da86a7b97d666275b2e7f4237aac4</title>
<path fill="none" stroke="black" d="M65.6,-287.81C76.84,-277.66 91.09,-264.41 103.14,-252 123.37,-231.16 145.04,-206.2 160.39,-188.03"/>
<polygon fill="black" stroke="black" points="163.22,-190.1 166.97,-180.19 157.86,-185.6 163.22,-190.1"/>
<g id="a_edge9&#45;headlabel"><a xlink:href="dir_000188_000216.html" target="_top" xlink:title="1">
<text text-anchor="middle" x="163.08" y="-192.18" font-family="Helvetica,sans-Serif" font-size="10.00">1</text>
</a>
</g>
</g>
<!-- dir_47aca9e8d6a16a6d14cf434a05d15774&#45;&gt;dir_51020c1b0909ae629a35fe1c65c620b9 -->
<g id="edge13" class="edge">
<title>dir_47aca9e8d6a16a6d14cf434a05d15774&#45;&gt;dir_51020c1b0909ae629a35fe1c65c620b9</title>
<path fill="none" stroke="black" d="M60.72,-215.7C67.79,-207.3 76.42,-197.07 84.18,-187.86"/>
<polygon fill="black" stroke="black" points="86.95,-190.01 90.72,-180.1 81.6,-185.49 86.95,-190.01"/>
<g id="a_edge13&#45;headlabel"><a xlink:href="dir_000029_000050.html" target="_top" xlink:title="1">
<text text-anchor="middle" x="86.81" y="-192.08" font-family="Helvetica,sans-Serif" font-size="10.00">1</text>
</a>
</g>
</g>
<!-- dir_47aca9e8d6a16a6d14cf434a05d15774&#45;&gt;dir_84ef7c054b4edc3447cfba80cee80f65 -->
<g id="edge11" class="edge">
<title>dir_47aca9e8d6a16a6d14cf434a05d15774&#45;&gt;dir_84ef7c054b4edc3447cfba80cee80f65</title>
<path fill="none" stroke="black" d="M49.11,-215.77C52.38,-197.72 58.13,-168.62 65.14,-144 67.57,-135.44 70.68,-126.27 73.67,-118.01"/>
<polygon fill="black" stroke="black" points="77.01,-119.07 77.21,-108.47 70.44,-116.63 77.01,-119.07"/>
<g id="a_edge11&#45;headlabel"><a xlink:href="dir_000029_000046.html" target="_top" xlink:title="8">
<text text-anchor="middle" x="78.42" y="-120.93" font-family="Helvetica,sans-Serif" font-size="10.00">8</text>
</a>
</g>
</g>
<!-- dir_47aca9e8d6a16a6d14cf434a05d15774&#45;&gt;dir_cf63c3ddb21c79ef735682489f4c6a69 -->
<g id="edge12" class="edge">
<title>dir_47aca9e8d6a16a6d14cf434a05d15774&#45;&gt;dir_cf63c3ddb21c79ef735682489f4c6a69</title>
<path fill="none" stroke="black" d="M43.15,-215.57C38.69,-185.46 32.38,-122.13 48.14,-72 51.21,-62.23 56.72,-52.64 62.53,-44.36"/>
<polygon fill="black" stroke="black" points="65.41,-46.35 68.59,-36.25 59.8,-42.16 65.41,-46.35"/>
<g id="a_edge12&#45;headlabel"><a xlink:href="dir_000029_000279.html" target="_top" xlink:title="11">
<text text-anchor="middle" x="65.53" y="-48.43" font-family="Helvetica,sans-Serif" font-size="10.00">11</text>
</a>
</g>
</g>
<!-- dir_51020c1b0909ae629a35fe1c65c620b9&#45;&gt;dir_84ef7c054b4edc3447cfba80cee80f65 -->
<g id="edge10" class="edge">
<title>dir_51020c1b0909ae629a35fe1c65c620b9&#45;&gt;dir_84ef7c054b4edc3447cfba80cee80f65</title>
<path fill="none" stroke="black" d="M94.03,-143.7C90.92,-135.98 87.91,-126.71 85.68,-118.11"/>
<polygon fill="black" stroke="black" points="89.03,-117.07 83.37,-108.1 82.2,-118.63 89.03,-117.07"/>
<g id="a_edge10&#45;headlabel"><a xlink:href="dir_000050_000046.html" target="_top" xlink:title="9">
<text text-anchor="middle" x="92.6" y="-117.43" font-family="Helvetica,sans-Serif" font-size="10.00">9</text>
</a>
</g>
</g>
<!-- dir_84ef7c054b4edc3447cfba80cee80f65&#45;&gt;dir_51020c1b0909ae629a35fe1c65c620b9 -->
<g id="edge1" class="edge">
<title>dir_84ef7c054b4edc3447cfba80cee80f65&#45;&gt;dir_51020c1b0909ae629a35fe1c65c620b9</title>
<path fill="none" stroke="black" d="M95.16,-108.1C98.31,-115.88 101.36,-125.26 103.61,-133.95"/>
<polygon fill="black" stroke="black" points="100.2,-134.74 105.86,-143.7 107.03,-133.17 100.2,-134.74"/>
<g id="a_edge1&#45;headlabel"><a xlink:href="dir_000046_000050.html" target="_top" xlink:title="2">
<text text-anchor="middle" x="96.63" y="-129.37" font-family="Helvetica,sans-Serif" font-size="10.00">2</text>
</a>
</g>
</g>
<!-- dir_84ef7c054b4edc3447cfba80cee80f65&#45;&gt;dir_cf63c3ddb21c79ef735682489f4c6a69 -->
<g id="edge2" class="edge">
<title>dir_84ef7c054b4edc3447cfba80cee80f65&#45;&gt;dir_cf63c3ddb21c79ef735682489f4c6a69</title>
<path fill="none" stroke="black" d="M78.22,-71.7C77.43,-63.98 77.2,-54.71 77.54,-46.11"/>
<polygon fill="black" stroke="black" points="81.04,-46.32 78.24,-36.1 74.05,-45.84 81.04,-46.32"/>
<g id="a_edge2&#45;headlabel"><a xlink:href="dir_000046_000279.html" target="_top" xlink:title="3">
<text text-anchor="middle" x="83.62" y="-47.61" font-family="Helvetica,sans-Serif" font-size="10.00">3</text>
</a>
</g>
</g>
<!-- dir_cf63c3ddb21c79ef735682489f4c6a69&#45;&gt;dir_84ef7c054b4edc3447cfba80cee80f65 -->
<g id="edge14" class="edge">
<title>dir_cf63c3ddb21c79ef735682489f4c6a69&#45;&gt;dir_84ef7c054b4edc3447cfba80cee80f65</title>
<path fill="none" stroke="black" d="M90.03,-36.1C90.84,-43.79 91.07,-53.05 90.74,-61.67"/>
<polygon fill="black" stroke="black" points="87.25,-61.48 90.05,-71.7 94.23,-61.96 87.25,-61.48"/>
<g id="a_edge14&#45;headlabel"><a xlink:href="dir_000279_000046.html" target="_top" xlink:title="54">
<text text-anchor="middle" x="84.66" y="-55.2" font-family="Helvetica,sans-Serif" font-size="10.00">54</text>
</a>
</g>
</g>
<!-- dir_f27da86a7b97d666275b2e7f4237aac4&#45;&gt;dir_84ef7c054b4edc3447cfba80cee80f65 -->
<g id="edge3" class="edge">
<title>dir_f27da86a7b97d666275b2e7f4237aac4&#45;&gt;dir_84ef7c054b4edc3447cfba80cee80f65</title>
<path fill="none" stroke="black" d="M157.16,-143.7C144.83,-134.8 129.62,-123.82 116.28,-114.2"/>
<polygon fill="black" stroke="black" points="118,-111.12 107.84,-108.1 113.9,-116.79 118,-111.12"/>
<g id="a_edge3&#45;headlabel"><a xlink:href="dir_000216_000046.html" target="_top" xlink:title="3">
<text text-anchor="middle" x="122.57" y="-108.42" font-family="Helvetica,sans-Serif" font-size="10.00">3</text>
</a>
</g>
</g>
<!-- dir_f27da86a7b97d666275b2e7f4237aac4&#45;&gt;dir_cf63c3ddb21c79ef735682489f4c6a69 -->
<g id="edge4" class="edge">
<title>dir_f27da86a7b97d666275b2e7f4237aac4&#45;&gt;dir_cf63c3ddb21c79ef735682489f4c6a69</title>
<path fill="none" stroke="black" d="M169.44,-143.87C152.54,-119.14 121.19,-73.24 101.56,-44.51"/>
<polygon fill="black" stroke="black" points="104.41,-42.47 95.88,-36.19 98.63,-46.42 104.41,-42.47"/>
<g id="a_edge4&#45;headlabel"><a xlink:href="dir_000216_000279.html" target="_top" xlink:title="2">
<text text-anchor="middle" x="108.78" y="-41.34" font-family="Helvetica,sans-Serif" font-size="10.00">2</text>
</a>
</g>
</g>
</g>
</svg>
