<?xml version="1.0" encoding="UTF-8" standalone="no"?>
<!DOCTYPE svg PUBLIC "-//W3C//DTD SVG 1.1//EN"
 "http://www.w3.org/Graphics/SVG/1.1/DTD/svg11.dtd">
<!-- Generated by graphviz version 2.43.0 (0)
 -->
<!-- Title: include/mlir/Dialect/AMDGPU/Transforms Pages: 1 -->
<svg width="166pt" height="167pt"
 viewBox="0.00 0.00 166.00 167.00" xmlns="http://www.w3.org/2000/svg" xmlns:xlink="http://www.w3.org/1999/xlink">
<g id="graph0" class="graph" transform="scale(1 1) rotate(0) translate(4 163)">
<title>include/mlir/Dialect/AMDGPU/Transforms</title>
<g id="clust1" class="cluster">
<title>clusterdir_eb2ecbd073b9e3a96ec858ae570d025e</title>
<g id="a_clust1"><a xlink:href="dir_eb2ecbd073b9e3a96ec858ae570d025e.html" target="_top" xlink:title="AMDGPU">
<polygon fill="#ddddee" stroke="black" points="8,-8 8,-151 96,-151 96,-8 8,-8"/>
<text text-anchor="middle" x="52" y="-139" font-family="Helvetica,sans-Serif" font-size="10.00">AMDGPU</text>
</a>
</g>
</g>
<!-- dir_1f5c6dd7d4360c86f108c0ddb5913dcf -->
<g id="node1" class="node">
<title>dir_1f5c6dd7d4360c86f108c0ddb5913dcf</title>
<g id="a_node1"><a xlink:href="dir_1f5c6dd7d4360c86f108c0ddb5913dcf.html" target="_top" xlink:title="Utils">
<polygon fill="none" stroke="black" points="79,-52 25,-52 25,-16 79,-16 79,-52"/>
<text text-anchor="middle" x="52" y="-31.5" font-family="Helvetica,sans-Serif" font-size="10.00">Utils</text>
</a>
</g>
</g>
<!-- dir_4e0ca19d3e8a5f28866e7e8a4110f101 -->
<g id="node2" class="node">
<title>dir_4e0ca19d3e8a5f28866e7e8a4110f101</title>
<g id="a_node2"><a xlink:href="dir_4e0ca19d3e8a5f28866e7e8a4110f101.html" target="_top" xlink:title="Transforms">
<polygon fill="#eeeeff" stroke="black" points="87.5,-124 16.5,-124 16.5,-88 87.5,-88 87.5,-124"/>
<text text-anchor="middle" x="52" y="-103.5" font-family="Helvetica,sans-Serif" font-size="10.00">Transforms</text>
</a>
</g>
</g>
<!-- dir_4e0ca19d3e8a5f28866e7e8a4110f101&#45;&gt;dir_1f5c6dd7d4360c86f108c0ddb5913dcf -->
<g id="edge1" class="edge">
<title>dir_4e0ca19d3e8a5f28866e7e8a4110f101&#45;&gt;dir_1f5c6dd7d4360c86f108c0ddb5913dcf</title>
<path fill="none" stroke="black" d="M52,-87.7C52,-79.98 52,-70.71 52,-62.11"/>
<polygon fill="black" stroke="black" points="55.5,-62.1 52,-52.1 48.5,-62.1 55.5,-62.1"/>
<g id="a_edge1&#45;headlabel"><a xlink:href="dir_000109_000198.html" target="_top" xlink:title="1">
<text text-anchor="middle" x="58.34" y="-63.2" font-family="Helvetica,sans-Serif" font-size="10.00">1</text>
</a>
</g>
</g>
<!-- dir_cab9f8330899b1cc9d753b1d9c5c5a3e -->
<g id="node3" class="node">
<title>dir_cab9f8330899b1cc9d753b1d9c5c5a3e</title>
<g id="a_node3"><a xlink:href="dir_cab9f8330899b1cc9d753b1d9c5c5a3e.html" target="_top" xlink:title="Pass">
<polygon fill="none" stroke="black" points="158,-52 104,-52 104,-16 158,-16 158,-52"/>
<text text-anchor="middle" x="131" y="-31.5" font-family="Helvetica,sans-Serif" font-size="10.00">Pass</text>
</a>
</g>
</g>
<!-- dir_4e0ca19d3e8a5f28866e7e8a4110f101&#45;&gt;dir_cab9f8330899b1cc9d753b1d9c5c5a3e -->
<g id="edge2" class="edge">
<title>dir_4e0ca19d3e8a5f28866e7e8a4110f101&#45;&gt;dir_cab9f8330899b1cc9d753b1d9c5c5a3e</title>
<path fill="none" stroke="black" d="M71.53,-87.7C81.38,-78.97 93.49,-68.24 104.2,-58.75"/>
<polygon fill="black" stroke="black" points="106.53,-61.36 111.7,-52.1 101.89,-56.12 106.53,-61.36"/>
<g id="a_edge2&#45;headlabel"><a xlink:href="dir_000109_000051.html" target="_top" xlink:title="1">
<text text-anchor="middle" x="105.73" y="-63.36" font-family="Helvetica,sans-Serif" font-size="10.00">1</text>
</a>
</g>
</g>
</g>
</svg>
