<?xml version="1.0" encoding="UTF-8" standalone="no"?>
<!DOCTYPE svg PUBLIC "-//W3C//DTD SVG 1.1//EN"
 "http://www.w3.org/Graphics/SVG/1.1/DTD/svg11.dtd">
<!-- Generated by graphviz version 2.43.0 (0)
 -->
<!-- Title: include/mlir/Conversion/LinalgToStandard Pages: 1 -->
<svg width="156pt" height="295pt"
 viewBox="0.00 0.00 156.00 295.00" xmlns="http://www.w3.org/2000/svg" xmlns:xlink="http://www.w3.org/1999/xlink">
<g id="graph0" class="graph" transform="scale(1 1) rotate(0) translate(4 291)">
<title>include/mlir/Conversion/LinalgToStandard</title>
<g id="clust1" class="cluster">
<title>clusterdir_37f3372f1e76d74ffd54613af9306e43</title>
<g id="a_clust1"><a xlink:href="dir_37f3372f1e76d74ffd54613af9306e43.html" target="_top" xlink:title="Conversion">
<polygon fill="#ddddee" stroke="black" points="8,-208 8,-279 124,-279 124,-208 8,-208"/>
<text text-anchor="middle" x="66" y="-267" font-family="Helvetica,sans-Serif" font-size="10.00">Conversion</text>
</a>
</g>
</g>
<!-- dir_141011715781f9abdce57e5699bd59b9 -->
<g id="node1" class="node">
<title>dir_141011715781f9abdce57e5699bd59b9</title>
<g id="a_node1"><a xlink:href="dir_141011715781f9abdce57e5699bd59b9.html" target="_top" xlink:title="LinalgToStandard">
<polygon fill="#eeeeff" stroke="black" points="116,-252 16,-252 16,-216 116,-216 116,-252"/>
<text text-anchor="middle" x="66" y="-231.5" font-family="Helvetica,sans-Serif" font-size="10.00">LinalgToStandard</text>
</a>
</g>
</g>
<!-- dir_ca4d1f3bc4cd42ba07a57ca86d19a1d6 -->
<g id="node2" class="node">
<title>dir_ca4d1f3bc4cd42ba07a57ca86d19a1d6</title>
<g id="a_node2"><a xlink:href="dir_ca4d1f3bc4cd42ba07a57ca86d19a1d6.html" target="_top" xlink:title="Transforms">
<polygon fill="none" stroke="black" points="114.5,-108 43.5,-108 43.5,-72 114.5,-72 114.5,-108"/>
<text text-anchor="middle" x="79" y="-87.5" font-family="Helvetica,sans-Serif" font-size="10.00">Transforms</text>
</a>
</g>
</g>
<!-- dir_141011715781f9abdce57e5699bd59b9&#45;&gt;dir_ca4d1f3bc4cd42ba07a57ca86d19a1d6 -->
<g id="edge4" class="edge">
<title>dir_141011715781f9abdce57e5699bd59b9&#45;&gt;dir_ca4d1f3bc4cd42ba07a57ca86d19a1d6</title>
<path fill="none" stroke="black" d="M67.57,-215.87C69.78,-191.67 73.85,-147.21 76.49,-118.39"/>
<polygon fill="black" stroke="black" points="80,-118.47 77.43,-108.19 73.03,-117.83 80,-118.47"/>
<g id="a_edge4&#45;headlabel"><a xlink:href="dir_000092_000156.html" target="_top" xlink:title="1">
<text text-anchor="middle" x="82.5" y="-119.81" font-family="Helvetica,sans-Serif" font-size="10.00">1</text>
</a>
</g>
</g>
<!-- dir_cab9f8330899b1cc9d753b1d9c5c5a3e -->
<g id="node3" class="node">
<title>dir_cab9f8330899b1cc9d753b1d9c5c5a3e</title>
<g id="a_node3"><a xlink:href="dir_cab9f8330899b1cc9d753b1d9c5c5a3e.html" target="_top" xlink:title="Pass">
<polygon fill="none" stroke="black" points="106,-36 52,-36 52,0 106,0 106,-36"/>
<text text-anchor="middle" x="79" y="-15.5" font-family="Helvetica,sans-Serif" font-size="10.00">Pass</text>
</a>
</g>
</g>
<!-- dir_141011715781f9abdce57e5699bd59b9&#45;&gt;dir_cab9f8330899b1cc9d753b1d9c5c5a3e -->
<g id="edge5" class="edge">
<title>dir_141011715781f9abdce57e5699bd59b9&#45;&gt;dir_cab9f8330899b1cc9d753b1d9c5c5a3e</title>
<path fill="none" stroke="black" d="M56.52,-215.6C41.45,-185.55 15.53,-122.29 34,-72 37.78,-61.7 44.56,-52.02 51.72,-43.84"/>
<polygon fill="black" stroke="black" points="54.34,-46.16 58.62,-36.47 49.23,-41.38 54.34,-46.16"/>
<g id="a_edge5&#45;headlabel"><a xlink:href="dir_000092_000053.html" target="_top" xlink:title="1">
<text text-anchor="middle" x="53.96" y="-48.22" font-family="Helvetica,sans-Serif" font-size="10.00">1</text>
</a>
</g>
</g>
<!-- dir_d07a6fac82475a065a3b2953573f00a0 -->
<g id="node4" class="node">
<title>dir_d07a6fac82475a065a3b2953573f00a0</title>
<g id="a_node4"><a xlink:href="dir_d07a6fac82475a065a3b2953573f00a0.html" target="_top" xlink:title="Dialect">
<polygon fill="none" stroke="red" points="148,-180 94,-180 94,-144 148,-144 148,-180"/>
<text text-anchor="middle" x="121" y="-159.5" font-family="Helvetica,sans-Serif" font-size="10.00">Dialect</text>
</a>
</g>
</g>
<!-- dir_141011715781f9abdce57e5699bd59b9&#45;&gt;dir_d07a6fac82475a065a3b2953573f00a0 -->
<g id="edge6" class="edge">
<title>dir_141011715781f9abdce57e5699bd59b9&#45;&gt;dir_d07a6fac82475a065a3b2953573f00a0</title>
<path fill="none" stroke="black" d="M79.6,-215.7C86.12,-207.39 94.07,-197.28 101.25,-188.14"/>
<polygon fill="black" stroke="black" points="104.13,-190.13 107.56,-180.1 98.63,-185.81 104.13,-190.13"/>
<g id="a_edge6&#45;headlabel"><a xlink:href="dir_000092_000014.html" target="_top" xlink:title="1">
<text text-anchor="middle" x="104.15" y="-192.21" font-family="Helvetica,sans-Serif" font-size="10.00">1</text>
</a>
</g>
</g>
<!-- dir_ca4d1f3bc4cd42ba07a57ca86d19a1d6&#45;&gt;dir_cab9f8330899b1cc9d753b1d9c5c5a3e -->
<g id="edge1" class="edge">
<title>dir_ca4d1f3bc4cd42ba07a57ca86d19a1d6&#45;&gt;dir_cab9f8330899b1cc9d753b1d9c5c5a3e</title>
<path fill="none" stroke="black" d="M79,-71.7C79,-63.98 79,-54.71 79,-46.11"/>
<polygon fill="black" stroke="black" points="82.5,-46.1 79,-36.1 75.5,-46.1 82.5,-46.1"/>
<g id="a_edge1&#45;headlabel"><a xlink:href="dir_000156_000053.html" target="_top" xlink:title="4">
<text text-anchor="middle" x="85.34" y="-47.2" font-family="Helvetica,sans-Serif" font-size="10.00">4</text>
</a>
</g>
</g>
<!-- dir_d07a6fac82475a065a3b2953573f00a0&#45;&gt;dir_ca4d1f3bc4cd42ba07a57ca86d19a1d6 -->
<g id="edge2" class="edge">
<title>dir_d07a6fac82475a065a3b2953573f00a0&#45;&gt;dir_ca4d1f3bc4cd42ba07a57ca86d19a1d6</title>
<path fill="none" stroke="black" d="M110.62,-143.7C105.74,-135.56 99.81,-125.69 94.42,-116.7"/>
<polygon fill="black" stroke="black" points="97.41,-114.88 89.26,-108.1 91.41,-118.48 97.41,-114.88"/>
<g id="a_edge2&#45;headlabel"><a xlink:href="dir_000014_000156.html" target="_top" xlink:title="12">
<text text-anchor="middle" x="101.69" y="-114" font-family="Helvetica,sans-Serif" font-size="10.00">12</text>
</a>
</g>
</g>
<!-- dir_d07a6fac82475a065a3b2953573f00a0&#45;&gt;dir_cab9f8330899b1cc9d753b1d9c5c5a3e -->
<g id="edge3" class="edge">
<title>dir_d07a6fac82475a065a3b2953573f00a0&#45;&gt;dir_cab9f8330899b1cc9d753b1d9c5c5a3e</title>
<path fill="none" stroke="black" d="M124.99,-143.68C128.4,-125.3 131.55,-95.7 123,-72 119.25,-61.6 112.46,-51.8 105.33,-43.52"/>
<polygon fill="black" stroke="black" points="107.83,-41.06 98.47,-36.08 102.68,-45.81 107.83,-41.06"/>
<g id="a_edge3&#45;headlabel"><a xlink:href="dir_000014_000053.html" target="_top" xlink:title="32">
<text text-anchor="middle" x="112.35" y="-39.28" font-family="Helvetica,sans-Serif" font-size="10.00">32</text>
</a>
</g>
</g>
</g>
</svg>
