<?xml version="1.0" encoding="UTF-8" standalone="no"?>
<!DOCTYPE svg PUBLIC "-//W3C//DTD SVG 1.1//EN"
 "http://www.w3.org/Graphics/SVG/1.1/DTD/svg11.dtd">
<!-- Generated by graphviz version 2.43.0 (0)
 -->
<!-- Title: lib/Dialect/Tosa Pages: 1 -->
<svg width="288pt" height="125pt"
 viewBox="0.00 0.00 288.00 125.00" xmlns="http://www.w3.org/2000/svg" xmlns:xlink="http://www.w3.org/1999/xlink">
<g id="graph0" class="graph" transform="scale(1 1) rotate(0) translate(4 121)">
<title>lib/Dialect/Tosa</title>
<g id="clust1" class="cluster">
<title>clusterdir_1a25ec519b6c1121408b67cc33ce3f15</title>
<g id="a_clust1"><a xlink:href="dir_1a25ec519b6c1121408b67cc33ce3f15.html" target="_top" xlink:title="Dialect">
<polygon fill="#edf0f7" stroke="#7f7f7f" stroke-dasharray="5,2" points="8,-39 8,-109 272,-109 272,-39 8,-39"/>
<text text-anchor="middle" x="140" y="-97" font-family="Helvetica,sans-Serif" font-size="10.00">Dialect</text>
</a>
</g>
</g>
<g id="clust2" class="cluster">
<title>clusterdir_b015d87a89b5dee21031eb04bc70664c</title>
<g id="a_clust2"><a xlink:href="dir_b015d87a89b5dee21031eb04bc70664c.html" target="_top">
<polygon fill="#edf0f7" stroke="#404040" stroke-width="2" points="16,-47 16,-82 264,-82 264,-47 16,-47"/>
</a>
</g>
</g>
<!-- dir_b015d87a89b5dee21031eb04bc70664c -->
<g id="node1" class="node">
<title>dir_b015d87a89b5dee21031eb04bc70664c</title>
<text text-anchor="middle" x="237" y="-62" font-family="Helvetica,sans-Serif" font-size="10.00">Tosa</text>
</g>
<!-- dir_811dafff50867a19cf450d48f5590e6e -->
<g id="node2" class="node">
<title>dir_811dafff50867a19cf450d48f5590e6e</title>
<g id="a_node2"><a xlink:href="dir_811dafff50867a19cf450d48f5590e6e.html" target="_top" xlink:title="IR">
<polygon fill="#a2b4d6" stroke="#404040" points="199.5,-74 170.5,-74 170.5,-55 199.5,-55 199.5,-74"/>
<text text-anchor="middle" x="185" y="-62" font-family="Helvetica,sans-Serif" font-size="10.00">IR</text>
</a>
</g>
</g>
<!-- dir_d44c64559bbebec7f509842c48db8b23 -->
<g id="node5" class="node">
<title>dir_d44c64559bbebec7f509842c48db8b23</title>
<g id="a_node5"><a xlink:href="dir_d44c64559bbebec7f509842c48db8b23.html" target="_top" xlink:title="include">
<polygon fill="#edf0f7" stroke="red" points="143,-19 91,-19 91,0 143,0 143,-19"/>
<text text-anchor="middle" x="117" y="-7" font-family="Helvetica,sans-Serif" font-size="10.00">include</text>
</a>
</g>
</g>
<!-- dir_811dafff50867a19cf450d48f5590e6e&#45;&gt;dir_d44c64559bbebec7f509842c48db8b23 -->
<g id="edge1" class="edge">
<title>dir_811dafff50867a19cf450d48f5590e6e&#45;&gt;dir_d44c64559bbebec7f509842c48db8b23</title>
<g id="a_edge1"><a xlink:href="dir_000253_000158.html" target="_top">
<path fill="none" stroke="#63b8ff" d="M177.82,-54.82C173.51,-49.88 167.76,-43.76 162,-39 155.73,-33.82 148.45,-28.83 141.6,-24.51"/>
<polygon fill="#63b8ff" stroke="#63b8ff" points="143.02,-21.28 132.66,-19.09 139.4,-27.27 143.02,-21.28"/>
</a>
</g>
<g id="a_edge1&#45;headlabel"><a xlink:href="dir_000253_000158.html" target="_top" xlink:title="33">
<text text-anchor="middle" x="147.57" y="-18.22" font-family="Helvetica,sans-Serif" font-size="10.00" fill="#63b8ff">33</text>
</a>
</g>
</g>
<!-- dir_28e79e63fe354b7ce3658f35e752222e -->
<g id="node3" class="node">
<title>dir_28e79e63fe354b7ce3658f35e752222e</title>
<g id="a_node3"><a xlink:href="dir_28e79e63fe354b7ce3658f35e752222e.html" target="_top" xlink:title="Transforms">
<polygon fill="#a2b4d6" stroke="#404040" points="152.5,-74 81.5,-74 81.5,-55 152.5,-55 152.5,-74"/>
<text text-anchor="middle" x="117" y="-62" font-family="Helvetica,sans-Serif" font-size="10.00">Transforms</text>
</a>
</g>
</g>
<!-- dir_28e79e63fe354b7ce3658f35e752222e&#45;&gt;dir_d44c64559bbebec7f509842c48db8b23 -->
<g id="edge2" class="edge">
<title>dir_28e79e63fe354b7ce3658f35e752222e&#45;&gt;dir_d44c64559bbebec7f509842c48db8b23</title>
<g id="a_edge2"><a xlink:href="dir_000585_000158.html" target="_top">
<path fill="none" stroke="#63b8ff" d="M117,-54.75C117,-47.8 117,-37.85 117,-29.13"/>
<polygon fill="#63b8ff" stroke="#63b8ff" points="120.5,-29.09 117,-19.09 113.5,-29.09 120.5,-29.09"/>
</a>
</g>
<g id="a_edge2&#45;headlabel"><a xlink:href="dir_000585_000158.html" target="_top" xlink:title="76">
<text text-anchor="middle" x="123.34" y="-30.18" font-family="Helvetica,sans-Serif" font-size="10.00" fill="#63b8ff">76</text>
</a>
</g>
</g>
<!-- dir_1e76fff88c595c745e3c1f9caa0dc3d6 -->
<g id="node4" class="node">
<title>dir_1e76fff88c595c745e3c1f9caa0dc3d6</title>
<g id="a_node4"><a xlink:href="dir_1e76fff88c595c745e3c1f9caa0dc3d6.html" target="_top" xlink:title="Utils">
<polygon fill="#a2b4d6" stroke="#404040" points="63.5,-74 24.5,-74 24.5,-55 63.5,-55 63.5,-74"/>
<text text-anchor="middle" x="44" y="-62" font-family="Helvetica,sans-Serif" font-size="10.00">Utils</text>
</a>
</g>
</g>
<!-- dir_1e76fff88c595c745e3c1f9caa0dc3d6&#45;&gt;dir_d44c64559bbebec7f509842c48db8b23 -->
<g id="edge3" class="edge">
<title>dir_1e76fff88c595c745e3c1f9caa0dc3d6&#45;&gt;dir_d44c64559bbebec7f509842c48db8b23</title>
<g id="a_edge3"><a xlink:href="dir_000635_000158.html" target="_top">
<path fill="none" stroke="#63b8ff" d="M53.68,-54.79C59.2,-49.96 66.33,-43.95 73,-39 79.63,-34.08 87.09,-29.07 93.96,-24.64"/>
<polygon fill="#63b8ff" stroke="#63b8ff" points="96.24,-27.35 102.82,-19.05 92.5,-21.43 96.24,-27.35"/>
</a>
</g>
<g id="a_edge3&#45;headlabel"><a xlink:href="dir_000635_000158.html" target="_top" xlink:title="3">
<text text-anchor="middle" x="94.72" y="-29.17" font-family="Helvetica,sans-Serif" font-size="10.00" fill="#63b8ff">3</text>
</a>
</g>
</g>
</g>
</svg>
