<?xml version="1.0" encoding="UTF-8" standalone="no"?>
<!DOCTYPE svg PUBLIC "-//W3C//DTD SVG 1.1//EN"
 "http://www.w3.org/Graphics/SVG/1.1/DTD/svg11.dtd">
<!-- Generated by graphviz version 2.43.0 (0)
 -->
<!-- Title: include/mlir/Target/LLVM Pages: 1 -->
<svg width="254pt" height="303pt"
 viewBox="0.00 0.00 254.00 303.00" xmlns="http://www.w3.org/2000/svg" xmlns:xlink="http://www.w3.org/1999/xlink">
<g id="graph0" class="graph" transform="scale(1 1) rotate(0) translate(4 299)">
<title>include/mlir/Target/LLVM</title>
<g id="clust1" class="cluster">
<title>clusterdir_e350390f37204b20a5be47a406c54ddd</title>
<g id="a_clust1"><a xlink:href="dir_e350390f37204b20a5be47a406c54ddd.html" target="_top" xlink:title="Target">
<polygon fill="#ddddee" stroke="black" points="8,-200 8,-287 238,-287 238,-200 8,-200"/>
<text text-anchor="middle" x="123" y="-275" font-family="Helvetica,sans-Serif" font-size="10.00">Target</text>
</a>
</g>
</g>
<g id="clust2" class="cluster">
<title>clusterdir_130796cf6474a1216b97abf3cf6603a9</title>
<g id="a_clust2"><a xlink:href="dir_130796cf6474a1216b97abf3cf6603a9.html" target="_top">
<polygon fill="#eeeeff" stroke="black" points="16,-208 16,-260 230,-260 230,-208 16,-208"/>
</a>
</g>
</g>
<!-- dir_130796cf6474a1216b97abf3cf6603a9 -->
<g id="node1" class="node">
<title>dir_130796cf6474a1216b97abf3cf6603a9</title>
<text text-anchor="middle" x="123" y="-231.5" font-family="Helvetica,sans-Serif" font-size="10.00">LLVM</text>
</g>
<!-- dir_84ef7c054b4edc3447cfba80cee80f65 -->
<g id="node4" class="node">
<title>dir_84ef7c054b4edc3447cfba80cee80f65</title>
<g id="a_node4"><a xlink:href="dir_84ef7c054b4edc3447cfba80cee80f65.html" target="_top" xlink:title="IR">
<polygon fill="none" stroke="black" points="150,-108 96,-108 96,-72 150,-72 150,-108"/>
<text text-anchor="middle" x="123" y="-87.5" font-family="Helvetica,sans-Serif" font-size="10.00">IR</text>
</a>
</g>
</g>
<!-- dir_130796cf6474a1216b97abf3cf6603a9&#45;&gt;dir_84ef7c054b4edc3447cfba80cee80f65 -->
<g id="edge2" class="edge">
<title>dir_130796cf6474a1216b97abf3cf6603a9&#45;&gt;dir_84ef7c054b4edc3447cfba80cee80f65</title>
<path fill="none" stroke="black" d="M123,-215.87C123,-191.67 123,-147.21 123,-118.39"/>
<polygon fill="black" stroke="black" points="126.5,-118.19 123,-108.19 119.5,-118.19 126.5,-118.19"/>
<g id="a_edge2&#45;headlabel"><a xlink:href="dir_000037_000046.html" target="_top" xlink:title="2">
<text text-anchor="middle" x="129.34" y="-119.28" font-family="Helvetica,sans-Serif" font-size="10.00">2</text>
</a>
</g>
</g>
<!-- dir_08a567366c255a106522a168d6dc24df -->
<g id="node2" class="node">
<title>dir_08a567366c255a106522a168d6dc24df</title>
<g id="a_node2"><a xlink:href="dir_08a567366c255a106522a168d6dc24df.html" target="_top" xlink:title="NVVM">
<polygon fill="white" stroke="black" points="78,-252 24,-252 24,-216 78,-216 78,-252"/>
<text text-anchor="middle" x="51" y="-231.5" font-family="Helvetica,sans-Serif" font-size="10.00">NVVM</text>
</a>
</g>
</g>
<!-- dir_d07a6fac82475a065a3b2953573f00a0 -->
<g id="node5" class="node">
<title>dir_d07a6fac82475a065a3b2953573f00a0</title>
<g id="a_node5"><a xlink:href="dir_d07a6fac82475a065a3b2953573f00a0.html" target="_top" xlink:title="Dialect">
<polygon fill="none" stroke="red" points="95,-180 41,-180 41,-144 95,-144 95,-180"/>
<text text-anchor="middle" x="68" y="-159.5" font-family="Helvetica,sans-Serif" font-size="10.00">Dialect</text>
</a>
</g>
</g>
<!-- dir_08a567366c255a106522a168d6dc24df&#45;&gt;dir_d07a6fac82475a065a3b2953573f00a0 -->
<g id="edge8" class="edge">
<title>dir_08a567366c255a106522a168d6dc24df&#45;&gt;dir_d07a6fac82475a065a3b2953573f00a0</title>
<path fill="none" stroke="black" d="M55.2,-215.7C57.1,-207.9 59.38,-198.51 61.48,-189.83"/>
<polygon fill="black" stroke="black" points="64.89,-190.65 63.85,-180.1 58.08,-189 64.89,-190.65"/>
<g id="a_edge8&#45;headlabel"><a xlink:href="dir_000038_000014.html" target="_top" xlink:title="2">
<text text-anchor="middle" x="66.8" y="-192.31" font-family="Helvetica,sans-Serif" font-size="10.00">2</text>
</a>
</g>
</g>
<!-- dir_e8a2c12b96ec12c8a40665f5f2a14f2d -->
<g id="node3" class="node">
<title>dir_e8a2c12b96ec12c8a40665f5f2a14f2d</title>
<g id="a_node3"><a xlink:href="dir_e8a2c12b96ec12c8a40665f5f2a14f2d.html" target="_top" xlink:title="ROCDL">
<polygon fill="white" stroke="black" points="222,-252 168,-252 168,-216 222,-216 222,-252"/>
<text text-anchor="middle" x="195" y="-231.5" font-family="Helvetica,sans-Serif" font-size="10.00">ROCDL</text>
</a>
</g>
</g>
<!-- dir_e8a2c12b96ec12c8a40665f5f2a14f2d&#45;&gt;dir_84ef7c054b4edc3447cfba80cee80f65 -->
<g id="edge3" class="edge">
<title>dir_e8a2c12b96ec12c8a40665f5f2a14f2d&#45;&gt;dir_84ef7c054b4edc3447cfba80cee80f65</title>
<path fill="none" stroke="black" d="M186.32,-215.87C173.88,-191.35 150.9,-146.03 136.31,-117.26"/>
<polygon fill="black" stroke="black" points="139.36,-115.53 131.72,-108.19 133.12,-118.69 139.36,-115.53"/>
<g id="a_edge3&#45;headlabel"><a xlink:href="dir_000039_000046.html" target="_top" xlink:title="1">
<text text-anchor="middle" x="143.52" y="-114.95" font-family="Helvetica,sans-Serif" font-size="10.00">1</text>
</a>
</g>
</g>
<!-- dir_e8a2c12b96ec12c8a40665f5f2a14f2d&#45;&gt;dir_d07a6fac82475a065a3b2953573f00a0 -->
<g id="edge4" class="edge">
<title>dir_e8a2c12b96ec12c8a40665f5f2a14f2d&#45;&gt;dir_d07a6fac82475a065a3b2953573f00a0</title>
<path fill="none" stroke="black" d="M178.81,-215.88C172.94,-210.32 166.02,-204.44 159,-200 142.25,-189.41 121.96,-180.81 104.79,-174.57"/>
<polygon fill="black" stroke="black" points="105.69,-171.18 95.1,-171.18 103.38,-177.79 105.69,-171.18"/>
<g id="a_edge4&#45;headlabel"><a xlink:href="dir_000039_000014.html" target="_top" xlink:title="3">
<text text-anchor="middle" x="110.02" y="-167.19" font-family="Helvetica,sans-Serif" font-size="10.00">3</text>
</a>
</g>
</g>
<!-- dir_f61d47671007dfdb592580b61f960d39 -->
<g id="node6" class="node">
<title>dir_f61d47671007dfdb592580b61f960d39</title>
<g id="a_node6"><a xlink:href="dir_f61d47671007dfdb592580b61f960d39.html" target="_top" xlink:title="Support">
<polygon fill="none" stroke="black" points="150,-36 96,-36 96,0 150,0 150,-36"/>
<text text-anchor="middle" x="123" y="-15.5" font-family="Helvetica,sans-Serif" font-size="10.00">Support</text>
</a>
</g>
</g>
<!-- dir_e8a2c12b96ec12c8a40665f5f2a14f2d&#45;&gt;dir_f61d47671007dfdb592580b61f960d39 -->
<g id="edge5" class="edge">
<title>dir_e8a2c12b96ec12c8a40665f5f2a14f2d&#45;&gt;dir_f61d47671007dfdb592580b61f960d39</title>
<path fill="none" stroke="black" d="M193.31,-215.9C189.87,-185.76 180.49,-121.68 159,-72 154.87,-62.45 148.95,-52.81 143.11,-44.41"/>
<polygon fill="black" stroke="black" points="145.83,-42.2 137.12,-36.17 140.16,-46.32 145.83,-42.2"/>
<g id="a_edge5&#45;headlabel"><a xlink:href="dir_000039_000288.html" target="_top" xlink:title="1">
<text text-anchor="middle" x="150.24" y="-40.94" font-family="Helvetica,sans-Serif" font-size="10.00">1</text>
</a>
</g>
</g>
<!-- dir_84ef7c054b4edc3447cfba80cee80f65&#45;&gt;dir_f61d47671007dfdb592580b61f960d39 -->
<g id="edge1" class="edge">
<title>dir_84ef7c054b4edc3447cfba80cee80f65&#45;&gt;dir_f61d47671007dfdb592580b61f960d39</title>
<path fill="none" stroke="black" d="M123,-71.7C123,-63.98 123,-54.71 123,-46.11"/>
<polygon fill="black" stroke="black" points="126.5,-46.1 123,-36.1 119.5,-46.1 126.5,-46.1"/>
<g id="a_edge1&#45;headlabel"><a xlink:href="dir_000046_000288.html" target="_top" xlink:title="23">
<text text-anchor="middle" x="129.34" y="-47.2" font-family="Helvetica,sans-Serif" font-size="10.00">23</text>
</a>
</g>
</g>
<!-- dir_d07a6fac82475a065a3b2953573f00a0&#45;&gt;dir_84ef7c054b4edc3447cfba80cee80f65 -->
<g id="edge6" class="edge">
<title>dir_d07a6fac82475a065a3b2953573f00a0&#45;&gt;dir_84ef7c054b4edc3447cfba80cee80f65</title>
<path fill="none" stroke="black" d="M81.6,-143.7C88.12,-135.39 96.07,-125.28 103.25,-116.14"/>
<polygon fill="black" stroke="black" points="106.13,-118.13 109.56,-108.1 100.63,-113.81 106.13,-118.13"/>
<g id="a_edge6&#45;headlabel"><a xlink:href="dir_000014_000046.html" target="_top" xlink:title="382">
<text text-anchor="middle" x="106.15" y="-120.21" font-family="Helvetica,sans-Serif" font-size="10.00">382</text>
</a>
</g>
</g>
<!-- dir_d07a6fac82475a065a3b2953573f00a0&#45;&gt;dir_f61d47671007dfdb592580b61f960d39 -->
<g id="edge7" class="edge">
<title>dir_d07a6fac82475a065a3b2953573f00a0&#45;&gt;dir_f61d47671007dfdb592580b61f960d39</title>
<path fill="none" stroke="black" d="M69.7,-143.67C71.95,-125.29 76.89,-95.69 87,-72 91.08,-62.43 96.99,-52.78 102.84,-44.39"/>
<polygon fill="black" stroke="black" points="105.78,-46.29 108.84,-36.15 100.12,-42.17 105.78,-46.29"/>
<g id="a_edge7&#45;headlabel"><a xlink:href="dir_000014_000288.html" target="_top" xlink:title="42">
<text text-anchor="middle" x="105.96" y="-48.37" font-family="Helvetica,sans-Serif" font-size="10.00">42</text>
</a>
</g>
</g>
</g>
</svg>
