<?xml version="1.0" encoding="UTF-8" standalone="no"?>
<!DOCTYPE svg PUBLIC "-//W3C//DTD SVG 1.1//EN"
 "http://www.w3.org/Graphics/SVG/1.1/DTD/svg11.dtd">
<!-- Generated by graphviz version 2.43.0 (0)
 -->
<!-- Title: include/mlir/Dialect/Bufferization/IR Pages: 1 -->
<svg width="250pt" height="367pt"
 viewBox="0.00 0.00 249.77 367.00" xmlns="http://www.w3.org/2000/svg" xmlns:xlink="http://www.w3.org/1999/xlink">
<g id="graph0" class="graph" transform="scale(1 1) rotate(0) translate(4 363)">
<title>include/mlir/Dialect/Bufferization/IR</title>
<g id="clust1" class="cluster">
<title>clusterdir_762b59f238bc9709d1f8796a74c242af</title>
<g id="a_clust1"><a xlink:href="dir_762b59f238bc9709d1f8796a74c242af.html" target="_top" xlink:title="Bufferization">
<polygon fill="#ddddee" stroke="black" points="79,-280 79,-351 158,-351 158,-280 79,-280"/>
<text text-anchor="middle" x="118.5" y="-339" font-family="Helvetica,sans-Serif" font-size="10.00">Bufferization</text>
</a>
</g>
</g>
<!-- dir_9b91dca05981ef709e333703f5b9c9a3 -->
<g id="node1" class="node">
<title>dir_9b91dca05981ef709e333703f5b9c9a3</title>
<g id="a_node1"><a xlink:href="dir_9b91dca05981ef709e333703f5b9c9a3.html" target="_top" xlink:title="IR">
<polygon fill="#eeeeff" stroke="black" points="145,-324 91,-324 91,-288 145,-288 145,-324"/>
<text text-anchor="middle" x="118" y="-303.5" font-family="Helvetica,sans-Serif" font-size="10.00">IR</text>
</a>
</g>
</g>
<!-- dir_444b57698294f6a80104968315903582 -->
<g id="node2" class="node">
<title>dir_444b57698294f6a80104968315903582</title>
<g id="a_node2"><a xlink:href="dir_444b57698294f6a80104968315903582.html" target="_top" xlink:title="Analysis">
<polygon fill="none" stroke="red" points="204,-252 146,-252 146,-216 204,-216 204,-252"/>
<text text-anchor="middle" x="175" y="-231.5" font-family="Helvetica,sans-Serif" font-size="10.00">Analysis</text>
</a>
</g>
</g>
<!-- dir_9b91dca05981ef709e333703f5b9c9a3&#45;&gt;dir_444b57698294f6a80104968315903582 -->
<g id="edge12" class="edge">
<title>dir_9b91dca05981ef709e333703f5b9c9a3&#45;&gt;dir_444b57698294f6a80104968315903582</title>
<path fill="none" stroke="black" d="M132.09,-287.7C138.92,-279.3 147.26,-269.07 154.76,-259.86"/>
<polygon fill="black" stroke="black" points="157.47,-262.07 161.07,-252.1 152.04,-257.65 157.47,-262.07"/>
<g id="a_edge12&#45;headlabel"><a xlink:href="dir_000211_000009.html" target="_top" xlink:title="1">
<text text-anchor="middle" x="157.4" y="-264.15" font-family="Helvetica,sans-Serif" font-size="10.00">1</text>
</a>
</g>
</g>
<!-- dir_51020c1b0909ae629a35fe1c65c620b9 -->
<g id="node3" class="node">
<title>dir_51020c1b0909ae629a35fe1c65c620b9</title>
<g id="a_node3"><a xlink:href="dir_51020c1b0909ae629a35fe1c65c620b9.html" target="_top" xlink:title="Bytecode">
<polygon fill="none" stroke="black" points="62,-108 0,-108 0,-72 62,-72 62,-108"/>
<text text-anchor="middle" x="31" y="-87.5" font-family="Helvetica,sans-Serif" font-size="10.00">Bytecode</text>
</a>
</g>
</g>
<!-- dir_9b91dca05981ef709e333703f5b9c9a3&#45;&gt;dir_51020c1b0909ae629a35fe1c65c620b9 -->
<g id="edge13" class="edge">
<title>dir_9b91dca05981ef709e333703f5b9c9a3&#45;&gt;dir_51020c1b0909ae629a35fe1c65c620b9</title>
<path fill="none" stroke="black" d="M99.65,-287.64C77.46,-265.24 41.29,-223.9 27,-180 20.51,-160.05 22.02,-136.26 24.87,-118.3"/>
<polygon fill="black" stroke="black" points="28.36,-118.68 26.71,-108.21 21.47,-117.42 28.36,-118.68"/>
<g id="a_edge13&#45;headlabel"><a xlink:href="dir_000211_000050.html" target="_top" xlink:title="1">
<text text-anchor="middle" x="30.51" y="-120.22" font-family="Helvetica,sans-Serif" font-size="10.00">1</text>
</a>
</g>
</g>
<!-- dir_84ef7c054b4edc3447cfba80cee80f65 -->
<g id="node4" class="node">
<title>dir_84ef7c054b4edc3447cfba80cee80f65</title>
<g id="a_node4"><a xlink:href="dir_84ef7c054b4edc3447cfba80cee80f65.html" target="_top" xlink:title="IR">
<polygon fill="none" stroke="black" points="90,-180 36,-180 36,-144 90,-144 90,-180"/>
<text text-anchor="middle" x="63" y="-159.5" font-family="Helvetica,sans-Serif" font-size="10.00">IR</text>
</a>
</g>
</g>
<!-- dir_9b91dca05981ef709e333703f5b9c9a3&#45;&gt;dir_84ef7c054b4edc3447cfba80cee80f65 -->
<g id="edge14" class="edge">
<title>dir_9b91dca05981ef709e333703f5b9c9a3&#45;&gt;dir_84ef7c054b4edc3447cfba80cee80f65</title>
<path fill="none" stroke="black" d="M111.37,-287.87C101.91,-263.46 84.47,-218.43 73.32,-189.64"/>
<polygon fill="black" stroke="black" points="76.53,-188.25 69.66,-180.19 70.01,-190.78 76.53,-188.25"/>
<g id="a_edge14&#45;headlabel"><a xlink:href="dir_000211_000046.html" target="_top" xlink:title="8">
<text text-anchor="middle" x="80.48" y="-188.08" font-family="Helvetica,sans-Serif" font-size="10.00">8</text>
</a>
</g>
</g>
<!-- dir_cf63c3ddb21c79ef735682489f4c6a69 -->
<g id="node5" class="node">
<title>dir_cf63c3ddb21c79ef735682489f4c6a69</title>
<g id="a_node5"><a xlink:href="dir_cf63c3ddb21c79ef735682489f4c6a69.html" target="_top" xlink:title="Interfaces">
<polygon fill="none" stroke="red" points="183.5,-108 118.5,-108 118.5,-72 183.5,-72 183.5,-108"/>
<text text-anchor="middle" x="151" y="-87.5" font-family="Helvetica,sans-Serif" font-size="10.00">Interfaces</text>
</a>
</g>
</g>
<!-- dir_9b91dca05981ef709e333703f5b9c9a3&#45;&gt;dir_cf63c3ddb21c79ef735682489f4c6a69 -->
<g id="edge15" class="edge">
<title>dir_9b91dca05981ef709e333703f5b9c9a3&#45;&gt;dir_cf63c3ddb21c79ef735682489f4c6a69</title>
<path fill="none" stroke="black" d="M120.64,-287.85C126.35,-250.83 139.87,-163.18 146.78,-118.39"/>
<polygon fill="black" stroke="black" points="150.28,-118.65 148.34,-108.23 143.36,-117.58 150.28,-118.65"/>
<g id="a_edge15&#45;headlabel"><a xlink:href="dir_000211_000279.html" target="_top" xlink:title="6">
<text text-anchor="middle" x="152.54" y="-120.13" font-family="Helvetica,sans-Serif" font-size="10.00">6</text>
</a>
</g>
</g>
<!-- dir_f61d47671007dfdb592580b61f960d39 -->
<g id="node6" class="node">
<title>dir_f61d47671007dfdb592580b61f960d39</title>
<g id="a_node6"><a xlink:href="dir_f61d47671007dfdb592580b61f960d39.html" target="_top" xlink:title="Support">
<polygon fill="none" stroke="black" points="178,-36 124,-36 124,0 178,0 178,-36"/>
<text text-anchor="middle" x="151" y="-15.5" font-family="Helvetica,sans-Serif" font-size="10.00">Support</text>
</a>
</g>
</g>
<!-- dir_9b91dca05981ef709e333703f5b9c9a3&#45;&gt;dir_f61d47671007dfdb592580b61f960d39 -->
<g id="edge16" class="edge">
<title>dir_9b91dca05981ef709e333703f5b9c9a3&#45;&gt;dir_f61d47671007dfdb592580b61f960d39</title>
<path fill="none" stroke="black" d="M145.1,-298.12C167.7,-290.8 198.46,-276.75 213,-252 229.06,-224.65 269.93,-202.72 210,-72 204.71,-60.46 195.58,-50.36 186.06,-42.16"/>
<polygon fill="black" stroke="black" points="188.04,-39.26 178.05,-35.72 183.65,-44.71 188.04,-39.26"/>
<g id="a_edge16&#45;headlabel"><a xlink:href="dir_000211_000288.html" target="_top" xlink:title="3">
<text text-anchor="middle" x="192.62" y="-36.79" font-family="Helvetica,sans-Serif" font-size="10.00">3</text>
</a>
</g>
</g>
<!-- dir_444b57698294f6a80104968315903582&#45;&gt;dir_84ef7c054b4edc3447cfba80cee80f65 -->
<g id="edge4" class="edge">
<title>dir_444b57698294f6a80104968315903582&#45;&gt;dir_84ef7c054b4edc3447cfba80cee80f65</title>
<path fill="none" stroke="black" d="M147.6,-215.88C132.85,-206.66 114.47,-195.17 98.62,-185.26"/>
<polygon fill="black" stroke="black" points="100.45,-182.28 90.12,-179.95 96.74,-188.22 100.45,-182.28"/>
<g id="a_edge4&#45;headlabel"><a xlink:href="dir_000009_000046.html" target="_top" xlink:title="12">
<text text-anchor="middle" x="105" y="-179.28" font-family="Helvetica,sans-Serif" font-size="10.00">12</text>
</a>
</g>
</g>
<!-- dir_444b57698294f6a80104968315903582&#45;&gt;dir_cf63c3ddb21c79ef735682489f4c6a69 -->
<g id="edge6" class="edge">
<title>dir_444b57698294f6a80104968315903582&#45;&gt;dir_cf63c3ddb21c79ef735682489f4c6a69</title>
<path fill="none" stroke="black" d="M167.52,-215.87C160.87,-191.67 153.07,-147.21 150.17,-118.39"/>
<polygon fill="black" stroke="black" points="153.64,-117.86 149.31,-108.19 146.66,-118.45 153.64,-117.86"/>
<g id="a_edge6&#45;headlabel"><a xlink:href="dir_000009_000279.html" target="_top" xlink:title="5">
<text text-anchor="middle" x="156.77" y="-118.71" font-family="Helvetica,sans-Serif" font-size="10.00">5</text>
</a>
</g>
</g>
<!-- dir_444b57698294f6a80104968315903582&#45;&gt;dir_f61d47671007dfdb592580b61f960d39 -->
<g id="edge5" class="edge">
<title>dir_444b57698294f6a80104968315903582&#45;&gt;dir_f61d47671007dfdb592580b61f960d39</title>
<path fill="none" stroke="black" d="M181.82,-215.53C192.53,-185.36 210.39,-121.94 193,-72 189.47,-61.86 183.09,-52.19 176.36,-43.96"/>
<polygon fill="black" stroke="black" points="178.83,-41.46 169.6,-36.24 173.56,-46.07 178.83,-41.46"/>
<g id="a_edge5&#45;headlabel"><a xlink:href="dir_000009_000288.html" target="_top" xlink:title="5">
<text text-anchor="middle" x="183.33" y="-39.79" font-family="Helvetica,sans-Serif" font-size="10.00">5</text>
</a>
</g>
</g>
<!-- dir_51020c1b0909ae629a35fe1c65c620b9&#45;&gt;dir_84ef7c054b4edc3447cfba80cee80f65 -->
<g id="edge7" class="edge">
<title>dir_51020c1b0909ae629a35fe1c65c620b9&#45;&gt;dir_84ef7c054b4edc3447cfba80cee80f65</title>
<path fill="none" stroke="black" d="M44.71,-108.1C49.13,-115.96 53.7,-125.46 57.34,-134.23"/>
<polygon fill="black" stroke="black" points="54.13,-135.63 61.01,-143.7 60.66,-133.11 54.13,-135.63"/>
<g id="a_edge7&#45;headlabel"><a xlink:href="dir_000050_000046.html" target="_top" xlink:title="9">
<text text-anchor="middle" x="50.19" y="-130.8" font-family="Helvetica,sans-Serif" font-size="10.00">9</text>
</a>
</g>
</g>
<!-- dir_51020c1b0909ae629a35fe1c65c620b9&#45;&gt;dir_f61d47671007dfdb592580b61f960d39 -->
<g id="edge8" class="edge">
<title>dir_51020c1b0909ae629a35fe1c65c620b9&#45;&gt;dir_f61d47671007dfdb592580b61f960d39</title>
<path fill="none" stroke="black" d="M60.36,-71.88C76.9,-62.23 97.69,-50.1 115.19,-39.89"/>
<polygon fill="black" stroke="black" points="117.13,-42.81 124,-34.75 113.6,-36.77 117.13,-42.81"/>
<g id="a_edge8&#45;headlabel"><a xlink:href="dir_000050_000288.html" target="_top" xlink:title="2">
<text text-anchor="middle" x="115.45" y="-44.58" font-family="Helvetica,sans-Serif" font-size="10.00">2</text>
</a>
</g>
</g>
<!-- dir_84ef7c054b4edc3447cfba80cee80f65&#45;&gt;dir_51020c1b0909ae629a35fe1c65c620b9 -->
<g id="edge1" class="edge">
<title>dir_84ef7c054b4edc3447cfba80cee80f65&#45;&gt;dir_51020c1b0909ae629a35fe1c65c620b9</title>
<path fill="none" stroke="black" d="M49.17,-143.7C44.76,-135.81 40.19,-126.3 36.56,-117.55"/>
<polygon fill="black" stroke="black" points="39.79,-116.18 32.92,-108.1 33.26,-118.69 39.79,-116.18"/>
<g id="a_edge1&#45;headlabel"><a xlink:href="dir_000046_000050.html" target="_top" xlink:title="2">
<text text-anchor="middle" x="43.73" y="-116.01" font-family="Helvetica,sans-Serif" font-size="10.00">2</text>
</a>
</g>
</g>
<!-- dir_84ef7c054b4edc3447cfba80cee80f65&#45;&gt;dir_cf63c3ddb21c79ef735682489f4c6a69 -->
<g id="edge2" class="edge">
<title>dir_84ef7c054b4edc3447cfba80cee80f65&#45;&gt;dir_cf63c3ddb21c79ef735682489f4c6a69</title>
<path fill="none" stroke="black" d="M78.84,-143.7C89.11,-134.8 102.74,-123.82 115.44,-114.2"/>
<polygon fill="black" stroke="black" points="117.68,-116.89 123.6,-108.1 113.5,-111.28 117.68,-116.89"/>
<g id="a_edge2&#45;headlabel"><a xlink:href="dir_000046_000279.html" target="_top" xlink:title="3">
<text text-anchor="middle" x="116.5" y="-118.82" font-family="Helvetica,sans-Serif" font-size="10.00">3</text>
</a>
</g>
</g>
<!-- dir_84ef7c054b4edc3447cfba80cee80f65&#45;&gt;dir_f61d47671007dfdb592580b61f960d39 -->
<g id="edge3" class="edge">
<title>dir_84ef7c054b4edc3447cfba80cee80f65&#45;&gt;dir_f61d47671007dfdb592580b61f960d39</title>
<path fill="none" stroke="black" d="M70.71,-143.73C79.17,-125.38 93.62,-95.81 109,-72 115.18,-62.43 122.71,-52.51 129.67,-43.87"/>
<polygon fill="black" stroke="black" points="132.47,-45.98 136.12,-36.03 127.06,-41.53 132.47,-45.98"/>
<g id="a_edge3&#45;headlabel"><a xlink:href="dir_000046_000288.html" target="_top" xlink:title="23">
<text text-anchor="middle" x="132.38" y="-48.06" font-family="Helvetica,sans-Serif" font-size="10.00">23</text>
</a>
</g>
</g>
<!-- dir_cf63c3ddb21c79ef735682489f4c6a69&#45;&gt;dir_444b57698294f6a80104968315903582 -->
<g id="edge9" class="edge">
<title>dir_cf63c3ddb21c79ef735682489f4c6a69&#45;&gt;dir_444b57698294f6a80104968315903582</title>
<path fill="none" stroke="black" d="M158.5,-108.19C165.15,-132.42 172.95,-176.89 175.84,-205.68"/>
<polygon fill="black" stroke="black" points="172.37,-206.2 176.69,-215.87 179.34,-205.61 172.37,-206.2"/>
<g id="a_edge9&#45;headlabel"><a xlink:href="dir_000279_000009.html" target="_top" xlink:title="1">
<text text-anchor="middle" x="169.24" y="-200.35" font-family="Helvetica,sans-Serif" font-size="10.00">1</text>
</a>
</g>
</g>
<!-- dir_cf63c3ddb21c79ef735682489f4c6a69&#45;&gt;dir_84ef7c054b4edc3447cfba80cee80f65 -->
<g id="edge10" class="edge">
<title>dir_cf63c3ddb21c79ef735682489f4c6a69&#45;&gt;dir_84ef7c054b4edc3447cfba80cee80f65</title>
<path fill="none" stroke="black" d="M135.48,-108.03C125.14,-117.01 111.3,-128.15 98.44,-137.89"/>
<polygon fill="black" stroke="black" points="96.1,-135.27 90.18,-144.05 100.29,-140.88 96.1,-135.27"/>
<g id="a_edge10&#45;headlabel"><a xlink:href="dir_000279_000046.html" target="_top" xlink:title="54">
<text text-anchor="middle" x="97.29" y="-128.34" font-family="Helvetica,sans-Serif" font-size="10.00">54</text>
</a>
</g>
</g>
<!-- dir_cf63c3ddb21c79ef735682489f4c6a69&#45;&gt;dir_f61d47671007dfdb592580b61f960d39 -->
<g id="edge11" class="edge">
<title>dir_cf63c3ddb21c79ef735682489f4c6a69&#45;&gt;dir_f61d47671007dfdb592580b61f960d39</title>
<path fill="none" stroke="black" d="M151,-71.7C151,-63.98 151,-54.71 151,-46.11"/>
<polygon fill="black" stroke="black" points="154.5,-46.1 151,-36.1 147.5,-46.1 154.5,-46.1"/>
<g id="a_edge11&#45;headlabel"><a xlink:href="dir_000279_000288.html" target="_top" xlink:title="2">
<text text-anchor="middle" x="157.34" y="-47.2" font-family="Helvetica,sans-Serif" font-size="10.00">2</text>
</a>
</g>
</g>
</g>
</svg>
