<?xml version="1.0" encoding="UTF-8" standalone="no"?>
<!DOCTYPE svg PUBLIC "-//W3C//DTD SVG 1.1//EN"
 "http://www.w3.org/Graphics/SVG/1.1/DTD/svg11.dtd">
<!-- Generated by graphviz version 2.43.0 (0)
 -->
<!-- Title: Graphical Class Hierarchy Pages: 1 -->
<svg width="941pt" height="324pt"
 viewBox="0.00 0.00 941.00 323.50" xmlns="http://www.w3.org/2000/svg" xmlns:xlink="http://www.w3.org/1999/xlink">
<g id="graph0" class="graph" transform="scale(1 1) rotate(0) translate(4 319.5)">
<title>Graphical Class Hierarchy</title>
<!-- Node0 -->
<g id="node1" class="node">
<title>Node0</title>
<g id="a_node1"><a xlink:href="classmlir_1_1Builder.html" target="_top" xlink:title="This class is a general helper class for creating context&#45;global objects like types,...">
<polygon fill="none" stroke="black" points="41,-255 41,-274 118,-274 118,-255 41,-255"/>
<text text-anchor="middle" x="79.5" y="-262" font-family="Helvetica,sans-Serif" font-size="10.00">mlir::Builder</text>
</a>
</g>
</g>
<!-- Node1 -->
<g id="node2" class="node">
<title>Node1</title>
<g id="a_node2"><a xlink:href="classmlir_1_1OpBuilder.html" target="_top" xlink:title="This class helps build Operations.">
<polygon fill="none" stroke="black" points="217.5,-255 217.5,-274 307.5,-274 307.5,-255 217.5,-255"/>
<text text-anchor="middle" x="262.5" y="-262" font-family="Helvetica,sans-Serif" font-size="10.00">mlir::OpBuilder</text>
</a>
</g>
</g>
<!-- Node0&#45;&gt;Node1 -->
<g id="edge1" class="edge">
<title>Node0&#45;&gt;Node1</title>
<path fill="none" stroke="midnightblue" d="M128.22,-264.5C155.84,-264.5 190.36,-264.5 217.34,-264.5"/>
<polygon fill="midnightblue" stroke="midnightblue" points="128,-261 118,-264.5 128,-268 128,-261"/>
</g>
<!-- Node2 -->
<g id="node3" class="node">
<title>Node2</title>
<g id="a_node3"><a xlink:href="classmlir_1_1ImplicitLocOpBuilder.html" target="_top" xlink:title="ImplicitLocOpBuilder maintains a &#39;current location&#39;, allowing use of the create&lt;&gt; method without spec...">
<polygon fill="none" stroke="black" points="367,-274 367,-293 510,-293 510,-274 367,-274"/>
<text text-anchor="middle" x="438.5" y="-281" font-family="Helvetica,sans-Serif" font-size="10.00">mlir::ImplicitLocOpBuilder</text>
</a>
</g>
</g>
<!-- Node1&#45;&gt;Node2 -->
<g id="edge2" class="edge">
<title>Node1&#45;&gt;Node2</title>
<path fill="none" stroke="midnightblue" d="M317.8,-270.43C333.34,-272.13 350.49,-274 366.85,-275.79"/>
<polygon fill="midnightblue" stroke="midnightblue" points="318.18,-266.95 307.86,-269.34 317.42,-273.91 318.18,-266.95"/>
</g>
<!-- Node3 -->
<g id="node4" class="node">
<title>Node3</title>
<g id="a_node4"><a xlink:href="classmlir_1_1RewriterBase.html" target="_top" xlink:title="This class coordinates the application of a rewrite on a set of IR, providing a way for clients to tr...">
<polygon fill="none" stroke="black" points="385,-236 385,-255 492,-255 492,-236 385,-236"/>
<text text-anchor="middle" x="438.5" y="-243" font-family="Helvetica,sans-Serif" font-size="10.00">mlir::RewriterBase</text>
</a>
</g>
</g>
<!-- Node1&#45;&gt;Node3 -->
<g id="edge3" class="edge">
<title>Node1&#45;&gt;Node3</title>
<path fill="none" stroke="midnightblue" d="M318.05,-258.54C339.38,-256.21 363.73,-253.56 384.87,-251.25"/>
<polygon fill="midnightblue" stroke="midnightblue" points="317.42,-255.09 307.86,-259.66 318.18,-262.05 317.42,-255.09"/>
</g>
<!-- Node4 -->
<g id="node5" class="node">
<title>Node4</title>
<g id="a_node5"><a xlink:href="classmlir_1_1IRRewriter.html" target="_top" xlink:title="This class coordinates rewriting a piece of IR outside of a pattern rewrite, providing a way to keep ...">
<polygon fill="none" stroke="black" points="589,-296 589,-315 682,-315 682,-296 589,-296"/>
<text text-anchor="middle" x="635.5" y="-303" font-family="Helvetica,sans-Serif" font-size="10.00">mlir::IRRewriter</text>
</a>
</g>
</g>
<!-- Node3&#45;&gt;Node4 -->
<g id="edge4" class="edge">
<title>Node3&#45;&gt;Node4</title>
<path fill="none" stroke="midnightblue" d="M493.65,-258.1C499.59,-260 505.48,-262.14 511,-264.5 528.24,-271.87 529.59,-279.52 547,-286.5 560.13,-291.76 574.98,-295.68 588.67,-298.55"/>
<polygon fill="midnightblue" stroke="midnightblue" points="494.24,-254.62 483.66,-255.09 492.23,-261.32 494.24,-254.62"/>
</g>
<!-- Node5 -->
<g id="node6" class="node">
<title>Node5</title>
<g id="a_node6"><a xlink:href="classmlir_1_1PatternRewriter.html" target="_top" xlink:title="A special type of RewriterBase that coordinates the application of a rewrite pattern on the current I...">
<polygon fill="none" stroke="black" points="576.5,-258 576.5,-277 694.5,-277 694.5,-258 576.5,-258"/>
<text text-anchor="middle" x="635.5" y="-265" font-family="Helvetica,sans-Serif" font-size="10.00">mlir::PatternRewriter</text>
</a>
</g>
</g>
<!-- Node3&#45;&gt;Node5 -->
<g id="edge5" class="edge">
<title>Node3&#45;&gt;Node5</title>
<path fill="none" stroke="midnightblue" d="M502.02,-252.55C525.88,-255.25 552.97,-258.3 576.4,-260.95"/>
<polygon fill="midnightblue" stroke="midnightblue" points="502.34,-249.07 492.01,-251.42 501.56,-256.02 502.34,-249.07"/>
</g>
<!-- Node7 -->
<g id="node8" class="node">
<title>Node7</title>
<g id="a_node8"><a xlink:href="structmlir_1_1detail_1_1ConversionPatternRewriterImpl_1_1SingleEraseRewriter.html" target="_top" xlink:title="A rewriter that keeps track of erased ops and blocks.">
<polygon fill="none" stroke="black" points="547,-148 547,-189 724,-189 724,-148 547,-148"/>
<text text-anchor="start" x="555" y="-177" font-family="Helvetica,sans-Serif" font-size="10.00">mlir::detail::Conversion</text>
<text text-anchor="start" x="555" y="-166" font-family="Helvetica,sans-Serif" font-size="10.00">PatternRewriterImpl::SingleErase</text>
<text text-anchor="middle" x="635.5" y="-155" font-family="Helvetica,sans-Serif" font-size="10.00">Rewriter</text>
</a>
</g>
</g>
<!-- Node3&#45;&gt;Node7 -->
<g id="edge7" class="edge">
<title>Node3&#45;&gt;Node7</title>
<path fill="none" stroke="midnightblue" d="M469.98,-231.84C491.39,-222.4 520.76,-209.75 547,-199.5 556.01,-195.98 565.6,-192.41 575.01,-189"/>
<polygon fill="midnightblue" stroke="midnightblue" points="468.48,-228.68 460.75,-235.93 471.31,-235.08 468.48,-228.68"/>
</g>
<!-- Node8 -->
<g id="node9" class="node">
<title>Node8</title>
<g id="a_node9"><a xlink:href="classmlir_1_1transform_1_1TransformRewriter.html" target="_top" xlink:title="This is a special rewriter to be used in transform op implementations, providing additional helper fu...">
<polygon fill="none" stroke="black" points="563,-208.5 563,-238.5 708,-238.5 708,-208.5 563,-208.5"/>
<text text-anchor="start" x="571" y="-226.5" font-family="Helvetica,sans-Serif" font-size="10.00">mlir::transform::Transform</text>
<text text-anchor="middle" x="635.5" y="-215.5" font-family="Helvetica,sans-Serif" font-size="10.00">Rewriter</text>
</a>
</g>
</g>
<!-- Node3&#45;&gt;Node8 -->
<g id="edge8" class="edge">
<title>Node3&#45;&gt;Node8</title>
<path fill="none" stroke="midnightblue" d="M502.21,-238.43C521.54,-236.24 542.96,-233.83 562.84,-231.58"/>
<polygon fill="midnightblue" stroke="midnightblue" points="501.56,-234.98 492.01,-239.58 502.34,-241.93 501.56,-234.98"/>
</g>
<!-- Node6 -->
<g id="node7" class="node">
<title>Node6</title>
<g id="a_node7"><a xlink:href="classmlir_1_1ConversionPatternRewriter.html" target="_top" xlink:title="This class implements a pattern rewriter for use with ConversionPatterns.">
<polygon fill="none" stroke="black" points="760,-258 760,-277 933,-277 933,-258 760,-258"/>
<text text-anchor="middle" x="846.5" y="-265" font-family="Helvetica,sans-Serif" font-size="10.00">mlir::ConversionPatternRewriter</text>
</a>
</g>
</g>
<!-- Node5&#45;&gt;Node6 -->
<g id="edge6" class="edge">
<title>Node5&#45;&gt;Node6</title>
<path fill="none" stroke="midnightblue" d="M704.86,-267.5C722.42,-267.5 741.54,-267.5 759.85,-267.5"/>
<polygon fill="midnightblue" stroke="midnightblue" points="704.72,-264 694.72,-267.5 704.72,-271 704.72,-264"/>
</g>
<!-- Node944 -->
<g id="node10" class="node">
<title>Node944</title>
<g id="a_node10"><a xlink:href="classmlir_1_1transform_1_1TransformState_1_1Extension.html" target="_top" xlink:title="Base class for TransformState extensions that allow TransformState to contain user&#45;specified informat...">
<polygon fill="none" stroke="black" points="366,-98.5 366,-128.5 511,-128.5 511,-98.5 366,-98.5"/>
<text text-anchor="start" x="374" y="-116.5" font-family="Helvetica,sans-Serif" font-size="10.00">mlir::transform::Transform</text>
<text text-anchor="middle" x="438.5" y="-105.5" font-family="Helvetica,sans-Serif" font-size="10.00">State::Extension</text>
</a>
</g>
</g>
<!-- Node945 -->
<g id="node11" class="node">
<title>Node945</title>
<g id="a_node11"><a xlink:href="classmlir_1_1transform_1_1TrackingListener.html" target="_top" xlink:title="A listener that updates a TransformState based on IR modifications.">
<polygon fill="none" stroke="black" points="567,-98.5 567,-128.5 704,-128.5 704,-98.5 567,-98.5"/>
<text text-anchor="start" x="575" y="-116.5" font-family="Helvetica,sans-Serif" font-size="10.00">mlir::transform::Tracking</text>
<text text-anchor="middle" x="635.5" y="-105.5" font-family="Helvetica,sans-Serif" font-size="10.00">Listener</text>
</a>
</g>
</g>
<!-- Node944&#45;&gt;Node945 -->
<g id="edge9" class="edge">
<title>Node944&#45;&gt;Node945</title>
<path fill="none" stroke="midnightblue" d="M521.4,-113.5C536.55,-113.5 552.22,-113.5 566.9,-113.5"/>
<polygon fill="midnightblue" stroke="midnightblue" points="521,-110 511,-113.5 521,-117 521,-110"/>
</g>
<!-- Node946 -->
<g id="node12" class="node">
<title>Node946</title>
<g id="a_node12"><a xlink:href="classmlir_1_1transform_1_1ErrorCheckingTrackingListener.html" target="_top" xlink:title="A specialized listener that keeps track of cases in which no replacement payload could be found.">
<polygon fill="none" stroke="black" points="764.5,-98.5 764.5,-128.5 928.5,-128.5 928.5,-98.5 764.5,-98.5"/>
<text text-anchor="start" x="772.5" y="-116.5" font-family="Helvetica,sans-Serif" font-size="10.00">mlir::transform::ErrorChecking</text>
<text text-anchor="middle" x="846.5" y="-105.5" font-family="Helvetica,sans-Serif" font-size="10.00">TrackingListener</text>
</a>
</g>
</g>
<!-- Node945&#45;&gt;Node946 -->
<g id="edge10" class="edge">
<title>Node945&#45;&gt;Node946</title>
<path fill="none" stroke="midnightblue" d="M714.12,-113.5C730.49,-113.5 747.8,-113.5 764.3,-113.5"/>
<polygon fill="midnightblue" stroke="midnightblue" points="714.07,-110 704.07,-113.5 714.07,-117 714.07,-110"/>
</g>
<!-- Node1231 -->
<g id="node13" class="node">
<title>Node1231</title>
<g id="a_node13"><a xlink:href="structmlir_1_1OpBuilder_1_1ListenerBase.html" target="_top" xlink:title="Base class for listeners.">
<polygon fill="none" stroke="black" points="0,-55 0,-74 159,-74 159,-55 0,-55"/>
<text text-anchor="middle" x="79.5" y="-62" font-family="Helvetica,sans-Serif" font-size="10.00">mlir::OpBuilder::ListenerBase</text>
</a>
</g>
</g>
<!-- Node1232 -->
<g id="node14" class="node">
<title>Node1232</title>
<g id="a_node14"><a xlink:href="structmlir_1_1OpBuilder_1_1Listener.html" target="_top" xlink:title="This class represents a listener that may be used to hook into various actions within an OpBuilder.">
<polygon fill="none" stroke="black" points="195,-55 195,-74 330,-74 330,-55 195,-55"/>
<text text-anchor="middle" x="262.5" y="-62" font-family="Helvetica,sans-Serif" font-size="10.00">mlir::OpBuilder::Listener</text>
</a>
</g>
</g>
<!-- Node1231&#45;&gt;Node1232 -->
<g id="edge11" class="edge">
<title>Node1231&#45;&gt;Node1232</title>
<path fill="none" stroke="midnightblue" d="M169.21,-64.5C177.85,-64.5 186.5,-64.5 194.87,-64.5"/>
<polygon fill="midnightblue" stroke="midnightblue" points="169.1,-61 159.1,-64.5 169.1,-68 169.1,-61"/>
</g>
<!-- Node1233 -->
<g id="node15" class="node">
<title>Node1233</title>
<g id="a_node15"><a xlink:href="structmlir_1_1RewriterBase_1_1Listener.html" target="_top" xlink:title=" ">
<polygon fill="none" stroke="black" points="385,-49.5 385,-79.5 492,-79.5 492,-49.5 385,-49.5"/>
<text text-anchor="start" x="393" y="-67.5" font-family="Helvetica,sans-Serif" font-size="10.00">mlir::RewriterBase</text>
<text text-anchor="middle" x="438.5" y="-56.5" font-family="Helvetica,sans-Serif" font-size="10.00">::Listener</text>
</a>
</g>
</g>
<!-- Node1232&#45;&gt;Node1233 -->
<g id="edge12" class="edge">
<title>Node1232&#45;&gt;Node1233</title>
<path fill="none" stroke="midnightblue" d="M340.57,-64.5C355.57,-64.5 370.97,-64.5 384.95,-64.5"/>
<polygon fill="midnightblue" stroke="midnightblue" points="340.28,-61 330.28,-64.5 340.28,-68 340.28,-61"/>
</g>
<!-- Node1233&#45;&gt;Node7 -->
<g id="edge16" class="edge">
<title>Node1233&#45;&gt;Node7</title>
<path fill="none" stroke="midnightblue" d="M501.36,-82.39C504.73,-84.24 507.98,-86.27 511,-88.5 533.04,-104.75 525.01,-122.18 547,-138.5 551.77,-142.04 556.99,-145.19 562.43,-147.97"/>
<polygon fill="midnightblue" stroke="midnightblue" points="502.69,-79.15 492.17,-77.91 499.62,-85.44 502.69,-79.15"/>
</g>
<!-- Node1233&#45;&gt;Node945 -->
<g id="edge17" class="edge">
<title>Node1233&#45;&gt;Node945</title>
<path fill="none" stroke="midnightblue" d="M501.8,-80.16C525.13,-86.02 551.56,-92.66 574.65,-98.46"/>
<polygon fill="midnightblue" stroke="midnightblue" points="502.56,-76.74 492.01,-77.7 500.86,-83.53 502.56,-76.74"/>
</g>
<!-- Node1234 -->
<g id="node16" class="node">
<title>Node1234</title>
<g id="a_node16"><a xlink:href="structmlir_1_1RewriterBase_1_1ForwardingListener.html" target="_top" xlink:title="A listener that forwards all notifications to another listener.">
<polygon fill="none" stroke="black" points="577.5,-0.5 577.5,-30.5 693.5,-30.5 693.5,-0.5 577.5,-0.5"/>
<text text-anchor="start" x="585.5" y="-18.5" font-family="Helvetica,sans-Serif" font-size="10.00">mlir::RewriterBase</text>
<text text-anchor="middle" x="635.5" y="-7.5" font-family="Helvetica,sans-Serif" font-size="10.00">::ForwardingListener</text>
</a>
</g>
</g>
<!-- Node1233&#45;&gt;Node1234 -->
<g id="edge13" class="edge">
<title>Node1233&#45;&gt;Node1234</title>
<path fill="none" stroke="midnightblue" d="M501.83,-48.84C526.09,-42.74 553.71,-35.8 577.44,-29.84"/>
<polygon fill="midnightblue" stroke="midnightblue" points="500.86,-45.47 492.01,-51.3 502.56,-52.26 500.86,-45.47"/>
</g>
<!-- Node1236 -->
<g id="node18" class="node">
<title>Node1236</title>
<g id="a_node18"><a xlink:href="structmlir_1_1detail_1_1ConversionPatternRewriterImpl.html" target="_top" xlink:title=" ">
<polygon fill="none" stroke="black" points="570,-49.5 570,-79.5 701,-79.5 701,-49.5 570,-49.5"/>
<text text-anchor="start" x="578" y="-67.5" font-family="Helvetica,sans-Serif" font-size="10.00">mlir::detail::Conversion</text>
<text text-anchor="middle" x="635.5" y="-56.5" font-family="Helvetica,sans-Serif" font-size="10.00">PatternRewriterImpl</text>
</a>
</g>
</g>
<!-- Node1233&#45;&gt;Node1236 -->
<g id="edge15" class="edge">
<title>Node1233&#45;&gt;Node1236</title>
<path fill="none" stroke="midnightblue" d="M502.06,-64.5C523.67,-64.5 547.92,-64.5 569.7,-64.5"/>
<polygon fill="midnightblue" stroke="midnightblue" points="502.01,-61 492.01,-64.5 502.01,-68 502.01,-61"/>
</g>
<!-- Node1235 -->
<g id="node17" class="node">
<title>Node1235</title>
<g id="a_node17"><a xlink:href="structmlir_1_1RewriterBase_1_1PatternLoggingListener.html" target="_top" xlink:title="A listener that logs notification events to llvm::dbgs() before forwarding to the base listener.">
<polygon fill="none" stroke="black" points="779.5,-0.5 779.5,-30.5 913.5,-30.5 913.5,-0.5 779.5,-0.5"/>
<text text-anchor="start" x="787.5" y="-18.5" font-family="Helvetica,sans-Serif" font-size="10.00">mlir::RewriterBase</text>
<text text-anchor="middle" x="846.5" y="-7.5" font-family="Helvetica,sans-Serif" font-size="10.00">::PatternLoggingListener</text>
</a>
</g>
</g>
<!-- Node1234&#45;&gt;Node1235 -->
<g id="edge14" class="edge">
<title>Node1234&#45;&gt;Node1235</title>
<path fill="none" stroke="midnightblue" d="M703.76,-15.5C727.92,-15.5 755.13,-15.5 779.21,-15.5"/>
<polygon fill="midnightblue" stroke="midnightblue" points="703.61,-12 693.61,-15.5 703.61,-19 703.61,-12"/>
</g>
</g>
</svg>
