<?xml version="1.0" encoding="UTF-8" standalone="no"?>
<!DOCTYPE svg PUBLIC "-//W3C//DTD SVG 1.1//EN"
 "http://www.w3.org/Graphics/SVG/1.1/DTD/svg11.dtd">
<!-- Generated by graphviz version 2.43.0 (0)
 -->
<!-- Title: Graphical Class Hierarchy Pages: 1 -->
<svg width="453pt" height="186pt"
 viewBox="0.00 0.00 453.00 186.00" xmlns="http://www.w3.org/2000/svg" xmlns:xlink="http://www.w3.org/1999/xlink">
<g id="graph0" class="graph" transform="scale(1 1) rotate(0) translate(4 182)">
<title>Graphical Class Hierarchy</title>
<!-- Node0 -->
<g id="node1" class="node">
<title>Node0</title>
<g id="a_node1"><a xlink:href="classmlir_1_1SideEffects_1_1Effect.html" target="_top" xlink:title="This class represents a base class for a specific effect type.">
<polygon fill="none" stroke="black" points="0,-100.5 0,-130.5 102,-130.5 102,-100.5 0,-100.5"/>
<text text-anchor="start" x="8" y="-118.5" font-family="Helvetica,sans-Serif" font-size="10.00">mlir::SideEffects::</text>
<text text-anchor="middle" x="51" y="-107.5" font-family="Helvetica,sans-Serif" font-size="10.00">Effect</text>
</a>
</g>
</g>
<!-- Node1 -->
<g id="node2" class="node">
<title>Node1</title>
<g id="a_node2"><a xlink:href="structmlir_1_1MemoryEffects_1_1Effect.html" target="_top" xlink:title="This class represents the base class used for memory effects.">
<polygon fill="none" stroke="black" points="157.5,-128.5 157.5,-158.5 273.5,-158.5 273.5,-128.5 157.5,-128.5"/>
<text text-anchor="start" x="165.5" y="-146.5" font-family="Helvetica,sans-Serif" font-size="10.00">mlir::MemoryEffects</text>
<text text-anchor="middle" x="215.5" y="-135.5" font-family="Helvetica,sans-Serif" font-size="10.00">::Effect</text>
</a>
</g>
</g>
<!-- Node0&#45;&gt;Node1 -->
<g id="edge1" class="edge">
<title>Node0&#45;&gt;Node1</title>
<path fill="none" stroke="midnightblue" d="M112.16,-125.87C126.98,-128.42 142.81,-131.15 157.48,-133.68"/>
<polygon fill="midnightblue" stroke="midnightblue" points="112.53,-122.38 102.08,-124.13 111.34,-129.28 112.53,-122.38"/>
</g>
<!-- Node2 -->
<g id="node3" class="node">
<title>Node2</title>
<g id="a_node3"><a xlink:href="classmlir_1_1SideEffects_1_1Effect_1_1Base.html" target="_top" xlink:title="This base class is used for derived effects that are non&#45;parametric.">
<polygon fill="none" stroke="black" points="138,-68 138,-109 293,-109 293,-68 138,-68"/>
<text text-anchor="start" x="146" y="-97" font-family="Helvetica,sans-Serif" font-size="10.00">mlir::SideEffects::</text>
<text text-anchor="start" x="146" y="-86" font-family="Helvetica,sans-Serif" font-size="10.00">Effect::Base&lt; DerivedEffect,</text>
<text text-anchor="middle" x="215.5" y="-75" font-family="Helvetica,sans-Serif" font-size="10.00"> BaseEffect &gt;</text>
</a>
</g>
</g>
<!-- Node0&#45;&gt;Node2 -->
<g id="edge2" class="edge">
<title>Node0&#45;&gt;Node2</title>
<path fill="none" stroke="midnightblue" d="M112.16,-105.5C120.58,-104.11 129.32,-102.65 137.99,-101.21"/>
<polygon fill="midnightblue" stroke="midnightblue" points="111.37,-102.09 102.08,-107.18 112.52,-108.99 111.37,-102.09"/>
</g>
<!-- Node3 -->
<g id="node4" class="node">
<title>Node3</title>
<g id="a_node4"><a xlink:href="structmlir_1_1MemoryEffects_1_1Allocate.html" target="_top" xlink:title="The following effect indicates that the operation allocates from some resource.">
<polygon fill="none" stroke="black" points="329,-147.5 329,-177.5 445,-177.5 445,-147.5 329,-147.5"/>
<text text-anchor="start" x="337" y="-165.5" font-family="Helvetica,sans-Serif" font-size="10.00">mlir::MemoryEffects</text>
<text text-anchor="middle" x="387" y="-154.5" font-family="Helvetica,sans-Serif" font-size="10.00">::Allocate</text>
</a>
</g>
</g>
<!-- Node2&#45;&gt;Node3 -->
<g id="edge3" class="edge">
<title>Node2&#45;&gt;Node3</title>
<path fill="none" stroke="midnightblue" d="M278.79,-113.13C283.62,-115.23 288.41,-117.36 293,-119.5 309.4,-127.13 312.65,-130.76 329,-138.5 335.41,-141.53 342.3,-144.6 349,-147.47"/>
<polygon fill="midnightblue" stroke="midnightblue" points="280.05,-109.86 269.47,-109.16 277.3,-116.3 280.05,-109.86"/>
</g>
<!-- Node4 -->
<g id="node5" class="node">
<title>Node4</title>
<g id="a_node5"><a xlink:href="structmlir_1_1MemoryEffects_1_1Free.html" target="_top" xlink:title="The following effect indicates that the operation frees some resource that has been allocated.">
<polygon fill="none" stroke="black" points="329,-98.5 329,-128.5 445,-128.5 445,-98.5 329,-98.5"/>
<text text-anchor="start" x="337" y="-116.5" font-family="Helvetica,sans-Serif" font-size="10.00">mlir::MemoryEffects</text>
<text text-anchor="middle" x="387" y="-105.5" font-family="Helvetica,sans-Serif" font-size="10.00">::Free</text>
</a>
</g>
</g>
<!-- Node2&#45;&gt;Node4 -->
<g id="edge4" class="edge">
<title>Node2&#45;&gt;Node4</title>
<path fill="none" stroke="midnightblue" d="M303.47,-101.33C312.13,-102.6 320.75,-103.88 328.98,-105.09"/>
<polygon fill="midnightblue" stroke="midnightblue" points="303.72,-97.83 293.32,-99.83 302.7,-104.75 303.72,-97.83"/>
</g>
<!-- Node5 -->
<g id="node6" class="node">
<title>Node5</title>
<g id="a_node6"><a xlink:href="structmlir_1_1MemoryEffects_1_1Read.html" target="_top" xlink:title="The following effect indicates that the operation reads from some resource.">
<polygon fill="none" stroke="black" points="329,-49.5 329,-79.5 445,-79.5 445,-49.5 329,-49.5"/>
<text text-anchor="start" x="337" y="-67.5" font-family="Helvetica,sans-Serif" font-size="10.00">mlir::MemoryEffects</text>
<text text-anchor="middle" x="387" y="-56.5" font-family="Helvetica,sans-Serif" font-size="10.00">::Read</text>
</a>
</g>
</g>
<!-- Node2&#45;&gt;Node5 -->
<g id="edge5" class="edge">
<title>Node2&#45;&gt;Node5</title>
<path fill="none" stroke="midnightblue" d="M303.47,-76.19C312.13,-74.96 320.75,-73.74 328.98,-72.57"/>
<polygon fill="midnightblue" stroke="midnightblue" points="302.73,-72.76 293.32,-77.62 303.71,-79.69 302.73,-72.76"/>
</g>
<!-- Node6 -->
<g id="node7" class="node">
<title>Node6</title>
<g id="a_node7"><a xlink:href="structmlir_1_1MemoryEffects_1_1Write.html" target="_top" xlink:title="The following effect indicates that the operation writes to some resource.">
<polygon fill="none" stroke="black" points="329,-0.5 329,-30.5 445,-30.5 445,-0.5 329,-0.5"/>
<text text-anchor="start" x="337" y="-18.5" font-family="Helvetica,sans-Serif" font-size="10.00">mlir::MemoryEffects</text>
<text text-anchor="middle" x="387" y="-7.5" font-family="Helvetica,sans-Serif" font-size="10.00">::Write</text>
</a>
</g>
</g>
<!-- Node2&#45;&gt;Node6 -->
<g id="edge6" class="edge">
<title>Node2&#45;&gt;Node6</title>
<path fill="none" stroke="midnightblue" d="M273.44,-63.98C299.14,-52.91 328.68,-40.19 351.05,-30.55"/>
<polygon fill="midnightblue" stroke="midnightblue" points="271.97,-60.8 264.17,-67.97 274.74,-67.23 271.97,-60.8"/>
</g>
</g>
</svg>
