<?xml version="1.0" encoding="UTF-8" standalone="no"?>
<!DOCTYPE svg PUBLIC "-//W3C//DTD SVG 1.1//EN"
 "http://www.w3.org/Graphics/SVG/1.1/DTD/svg11.dtd">
<!-- Generated by graphviz version 2.43.0 (0)
 -->
<!-- Title: Graphical Class Hierarchy Pages: 1 -->
<svg width="553pt" height="134pt"
 viewBox="0.00 0.00 553.00 134.00" xmlns="http://www.w3.org/2000/svg" xmlns:xlink="http://www.w3.org/1999/xlink">
<g id="graph0" class="graph" transform="scale(1 1) rotate(0) translate(4 130)">
<title>Graphical Class Hierarchy</title>
<!-- Node0 -->
<g id="Node000000" class="node">
<title>Node0</title>
<g id="a_Node000000"><a xlink:href="classmlir_1_1tracing_1_1Breakpoint.html" target="_top" xlink:title="This abstract class represents a breakpoint.">
<polygon fill="white" stroke="#666666" points="135,-72.5 0,-72.5 0,-53.5 135,-53.5 135,-72.5"/>
<text text-anchor="middle" x="67.5" y="-60.5" font-family="Helvetica,sans-Serif" font-size="10.00">mlir::tracing::Breakpoint</text>
</a>
</g>
</g>
<!-- Node1 -->
<g id="Node000001" class="node">
<title>Node1</title>
<g id="a_Node000001"><a xlink:href="classmlir_1_1tracing_1_1BreakpointBase.html" target="_top" xlink:title=" ">
<polygon fill="white" stroke="#666666" points="357,-126 171,-126 171,-96 357,-96 357,-126"/>
<text text-anchor="start" x="179" y="-114" font-family="Helvetica,sans-Serif" font-size="10.00">mlir::tracing::Breakpoint</text>
<text text-anchor="middle" x="264" y="-103" font-family="Helvetica,sans-Serif" font-size="10.00">Base&lt; FileLineColLocBreakpoint &gt;</text>
</a>
</g>
</g>
<!-- Node0&#45;&gt;Node1 -->
<g id="edge1613_Node000000_Node000001" class="edge">
<title>Node0&#45;&gt;Node1</title>
<g id="a_edge1613_Node000000_Node000001"><a xlink:title=" ">
<path fill="none" stroke="#63b8ff" d="M117.27,-75.04C142.94,-81.37 174.67,-89.2 201.96,-95.94"/>
<polygon fill="#63b8ff" stroke="#63b8ff" points="117.94,-71.6 107.39,-72.6 116.26,-78.39 117.94,-71.6"/>
</a>
</g>
</g>
<!-- Node3 -->
<g id="Node000003" class="node">
<title>Node3</title>
<g id="a_Node000003"><a xlink:href="classmlir_1_1tracing_1_1BreakpointBase.html" target="_top" xlink:title=" ">
<polygon fill="white" stroke="#666666" points="331.5,-78 196.5,-78 196.5,-48 331.5,-48 331.5,-78"/>
<text text-anchor="start" x="204.5" y="-66" font-family="Helvetica,sans-Serif" font-size="10.00">mlir::tracing::Breakpoint</text>
<text text-anchor="middle" x="264" y="-55" font-family="Helvetica,sans-Serif" font-size="10.00">Base&lt; TagBreakpoint &gt;</text>
</a>
</g>
</g>
<!-- Node0&#45;&gt;Node3 -->
<g id="edge1615_Node000000_Node000003" class="edge">
<title>Node0&#45;&gt;Node3</title>
<g id="a_edge1615_Node000000_Node000003"><a xlink:title=" ">
<path fill="none" stroke="#63b8ff" d="M145.52,-63C162.35,-63 180.04,-63 196.42,-63"/>
<polygon fill="#63b8ff" stroke="#63b8ff" points="145.16,-59.5 135.16,-63 145.16,-66.5 145.16,-59.5"/>
</a>
</g>
</g>
<!-- Node5 -->
<g id="Node000005" class="node">
<title>Node5</title>
<g id="a_Node000005"><a xlink:href="classmlir_1_1tracing_1_1BreakpointBase.html" target="_top" xlink:title="This class provides a CRTP wrapper around a base breakpoint class to define a few necessary utility m...">
<polygon fill="white" stroke="#666666" points="331.5,-30 196.5,-30 196.5,0 331.5,0 331.5,-30"/>
<text text-anchor="start" x="204.5" y="-18" font-family="Helvetica,sans-Serif" font-size="10.00">mlir::tracing::Breakpoint</text>
<text text-anchor="middle" x="264" y="-7" font-family="Helvetica,sans-Serif" font-size="10.00">Base&lt; Derived &gt;</text>
</a>
</g>
</g>
<!-- Node0&#45;&gt;Node5 -->
<g id="edge1617_Node000000_Node000005" class="edge">
<title>Node0&#45;&gt;Node5</title>
<g id="a_edge1617_Node000000_Node000005"><a xlink:title=" ">
<path fill="none" stroke="#63b8ff" d="M117.27,-50.96C142.94,-44.63 174.67,-36.8 201.96,-30.06"/>
<polygon fill="#63b8ff" stroke="#63b8ff" points="116.26,-47.61 107.39,-53.4 117.94,-54.4 116.26,-47.61"/>
</a>
</g>
</g>
<!-- Node2 -->
<g id="Node000002" class="node">
<title>Node2</title>
<g id="a_Node000002"><a xlink:href="classmlir_1_1tracing_1_1FileLineColLocBreakpoint.html" target="_top" xlink:title="This breakpoing intends to match a FileLineColLocation, that is a tuple of file name,...">
<polygon fill="white" stroke="#666666" points="536.5,-126 401.5,-126 401.5,-96 536.5,-96 536.5,-126"/>
<text text-anchor="start" x="409.5" y="-114" font-family="Helvetica,sans-Serif" font-size="10.00">mlir::tracing::FileLineCol</text>
<text text-anchor="middle" x="469" y="-103" font-family="Helvetica,sans-Serif" font-size="10.00">LocBreakpoint</text>
</a>
</g>
</g>
<!-- Node1&#45;&gt;Node2 -->
<g id="edge1614_Node000001_Node000002" class="edge">
<title>Node1&#45;&gt;Node2</title>
<g id="a_edge1614_Node000001_Node000002"><a xlink:title=" ">
<path fill="none" stroke="#63b8ff" d="M367.43,-111C378.97,-111 390.5,-111 401.42,-111"/>
<polygon fill="#63b8ff" stroke="#63b8ff" points="367.29,-107.5 357.29,-111 367.29,-114.5 367.29,-107.5"/>
</a>
</g>
</g>
<!-- Node4 -->
<g id="Node000004" class="node">
<title>Node4</title>
<g id="a_Node000004"><a xlink:href="classmlir_1_1tracing_1_1TagBreakpoint.html" target="_top" xlink:title="Simple breakpoint matching an action &quot;tag&quot;.">
<polygon fill="white" stroke="#666666" points="545,-72.5 393,-72.5 393,-53.5 545,-53.5 545,-72.5"/>
<text text-anchor="middle" x="469" y="-60.5" font-family="Helvetica,sans-Serif" font-size="10.00">mlir::tracing::TagBreakpoint</text>
</a>
</g>
</g>
<!-- Node3&#45;&gt;Node4 -->
<g id="edge1616_Node000003_Node000004" class="edge">
<title>Node3&#45;&gt;Node4</title>
<g id="a_edge1616_Node000003_Node000004"><a xlink:title=" ">
<path fill="none" stroke="#63b8ff" d="M341.98,-63C358.62,-63 376.2,-63 392.78,-63"/>
<polygon fill="#63b8ff" stroke="#63b8ff" points="341.75,-59.5 331.75,-63 341.75,-66.5 341.75,-59.5"/>
</a>
</g>
</g>
</g>
</svg>
