<?xml version="1.0" encoding="UTF-8" standalone="no"?>
<!DOCTYPE svg PUBLIC "-//W3C//DTD SVG 1.1//EN"
 "http://www.w3.org/Graphics/SVG/1.1/DTD/svg11.dtd">
<!-- Generated by graphviz version 2.43.0 (0)
 -->
<!-- Title: Graphical Class Hierarchy Pages: 1 -->
<svg width="443pt" height="101pt"
 viewBox="0.00 0.00 443.00 101.00" xmlns="http://www.w3.org/2000/svg" xmlns:xlink="http://www.w3.org/1999/xlink">
<g id="graph0" class="graph" transform="scale(1 1) rotate(0) translate(4 97)">
<title>Graphical Class Hierarchy</title>
<!-- Node0 -->
<g id="Node000000" class="node">
<title>Node0</title>
<g id="a_Node000000"><a xlink:href="classmlir_1_1Dialect.html" target="_top" xlink:title="Dialects are groups of MLIR operations, types and attributes, as well as behavior associated with the...">
<polygon fill="white" stroke="#666666" points="77,-93 0,-93 0,-74 77,-74 77,-93"/>
<text text-anchor="middle" x="38.5" y="-81" font-family="Helvetica,sans-Serif" font-size="10.00">mlir::Dialect</text>
</a>
</g>
</g>
<!-- Node1 -->
<g id="Node000001" class="node">
<title>Node1</title>
<g id="a_Node000001"><a xlink:href="classmlir_1_1ExtensibleDialect.html" target="_top" xlink:title="A dialect that can be extended with new operations/types/attributes at runtime.">
<polygon fill="white" stroke="#666666" points="242.5,-93 114.5,-93 114.5,-74 242.5,-74 242.5,-93"/>
<text text-anchor="middle" x="178.5" y="-81" font-family="Helvetica,sans-Serif" font-size="10.00">mlir::ExtensibleDialect</text>
</a>
</g>
</g>
<!-- Node0&#45;&gt;Node1 -->
<g id="edge765_Node000000_Node000001" class="edge">
<title>Node0&#45;&gt;Node1</title>
<g id="a_edge765_Node000000_Node000001"><a xlink:title=" ">
<path fill="none" stroke="#63b8ff" d="M87.22,-83.5C95.97,-83.5 105.23,-83.5 114.36,-83.5"/>
<polygon fill="#63b8ff" stroke="#63b8ff" points="87.21,-80 77.21,-83.5 87.21,-87 87.21,-80"/>
</a>
</g>
</g>
<!-- Node2 -->
<g id="Node000002" class="node">
<title>Node2</title>
<g id="a_Node000002"><a xlink:href="classmlir_1_1DynamicDialect.html" target="_top" xlink:title="A dialect that can be defined at runtime.">
<polygon fill="white" stroke="#666666" points="417.5,-93 297.5,-93 297.5,-74 417.5,-74 417.5,-93"/>
<text text-anchor="middle" x="357.5" y="-81" font-family="Helvetica,sans-Serif" font-size="10.00">mlir::DynamicDialect</text>
</a>
</g>
</g>
<!-- Node1&#45;&gt;Node2 -->
<g id="edge766_Node000001_Node000002" class="edge">
<title>Node1&#45;&gt;Node2</title>
<g id="a_edge766_Node000001_Node000002"><a xlink:title=" ">
<path fill="none" stroke="#63b8ff" d="M253.02,-83.5C267.81,-83.5 283.16,-83.5 297.38,-83.5"/>
<polygon fill="#63b8ff" stroke="#63b8ff" points="252.9,-80 242.9,-83.5 252.9,-87 252.9,-80"/>
</a>
</g>
</g>
<!-- Node3 -->
<g id="Node000003" class="node">
<title>Node3</title>
<g id="a_Node000003"><a xlink:href="classmlir_1_1SelfOwningTypeID.html" target="_top" xlink:title="Defines a TypeID for each instance of this class by using a pointer to the instance.">
<polygon fill="white" stroke="#666666" points="244,-56 113,-56 113,-37 244,-37 244,-56"/>
<text text-anchor="middle" x="178.5" y="-44" font-family="Helvetica,sans-Serif" font-size="10.00">mlir::SelfOwningTypeID</text>
</a>
</g>
</g>
<!-- Node3&#45;&gt;Node2 -->
<g id="edge768_Node000003_Node000002" class="edge">
<title>Node3&#45;&gt;Node2</title>
<g id="a_edge768_Node000003_Node000002"><a xlink:title=" ">
<path fill="none" stroke="#63b8ff" d="M234.92,-58.08C259.3,-63.18 287.61,-69.1 310.77,-73.94"/>
<polygon fill="#63b8ff" stroke="#63b8ff" points="235.59,-54.65 225.08,-56.03 234.15,-61.5 235.59,-54.65"/>
</a>
</g>
</g>
<!-- Node4 -->
<g id="Node000004" class="node">
<title>Node4</title>
<g id="a_Node000004"><a xlink:href="classmlir_1_1DynamicAttrDefinition.html" target="_top" xlink:title="The definition of a dynamic attribute.">
<polygon fill="white" stroke="#666666" points="433,-56 282,-56 282,-37 433,-37 433,-56"/>
<text text-anchor="middle" x="357.5" y="-44" font-family="Helvetica,sans-Serif" font-size="10.00">mlir::DynamicAttrDefinition</text>
</a>
</g>
</g>
<!-- Node3&#45;&gt;Node4 -->
<g id="edge767_Node000003_Node000004" class="edge">
<title>Node3&#45;&gt;Node4</title>
<g id="a_edge767_Node000003_Node000004"><a xlink:title=" ">
<path fill="none" stroke="#63b8ff" d="M254.32,-46.5C263.43,-46.5 272.73,-46.5 281.83,-46.5"/>
<polygon fill="#63b8ff" stroke="#63b8ff" points="254.15,-43 244.15,-46.5 254.15,-50 254.15,-43"/>
</a>
</g>
</g>
<!-- Node5 -->
<g id="Node000005" class="node">
<title>Node5</title>
<g id="a_Node000005"><a xlink:href="classmlir_1_1DynamicTypeDefinition.html" target="_top" xlink:title="The definition of a dynamic type.">
<polygon fill="white" stroke="#666666" points="435,-19 280,-19 280,0 435,0 435,-19"/>
<text text-anchor="middle" x="357.5" y="-7" font-family="Helvetica,sans-Serif" font-size="10.00">mlir::DynamicTypeDefinition</text>
</a>
</g>
</g>
<!-- Node3&#45;&gt;Node5 -->
<g id="edge769_Node000003_Node000005" class="edge">
<title>Node3&#45;&gt;Node5</title>
<g id="a_edge769_Node000003_Node000005"><a xlink:title=" ">
<path fill="none" stroke="#63b8ff" d="M234.92,-34.92C259.3,-29.82 287.61,-23.9 310.77,-19.06"/>
<polygon fill="#63b8ff" stroke="#63b8ff" points="234.15,-31.5 225.08,-36.97 235.59,-38.35 234.15,-31.5"/>
</a>
</g>
</g>
</g>
</svg>
