<?xml version="1.0" encoding="UTF-8" standalone="no"?>
<!DOCTYPE svg PUBLIC "-//W3C//DTD SVG 1.1//EN"
 "http://www.w3.org/Graphics/SVG/1.1/DTD/svg11.dtd">
<!-- Generated by graphviz version 2.43.0 (0)
 -->
<!-- Title: Graphical Class Hierarchy Pages: 1 -->
<svg width="836pt" height="473pt"
 viewBox="0.00 0.00 836.00 472.50" xmlns="http://www.w3.org/2000/svg" xmlns:xlink="http://www.w3.org/1999/xlink">
<g id="graph0" class="graph" transform="scale(1 1) rotate(0) translate(4 468.5)">
<title>Graphical Class Hierarchy</title>
<!-- Node0 -->
<g id="Node000000" class="node">
<title>Node0</title>
<g id="a_Node000000"><a xlink:href="classmlir_1_1DialectInterface.html" target="_top" xlink:title="This class represents an interface overridden for a single dialect.">
<polygon fill="white" stroke="#666666" points="120,-271.5 0,-271.5 0,-252.5 120,-252.5 120,-271.5"/>
<text text-anchor="middle" x="60" y="-259.5" font-family="Helvetica,sans-Serif" font-size="10.00">mlir::DialectInterface</text>
</a>
</g>
</g>
<!-- Node1 -->
<g id="Node000001" class="node">
<title>Node1</title>
<g id="a_Node000001"><a xlink:href="classmlir_1_1detail_1_1DialectInterfaceBase.html" target="_top" xlink:title=" ">
<polygon fill="white" stroke="#666666" points="369,-277 156,-277 156,-247 369,-247 369,-277"/>
<text text-anchor="start" x="164" y="-265" font-family="Helvetica,sans-Serif" font-size="10.00">mlir::detail::DialectInterface</text>
<text text-anchor="middle" x="262.5" y="-254" font-family="Helvetica,sans-Serif" font-size="10.00">Base&lt; ConcreteType, DialectInterface &gt;</text>
</a>
</g>
</g>
<!-- Node0&#45;&gt;Node1 -->
<g id="edge778_Node000000_Node000001" class="edge">
<title>Node0&#45;&gt;Node1</title>
<g id="a_edge778_Node000000_Node000001"><a xlink:title=" ">
<path fill="none" stroke="#63b8ff" d="M130.08,-262C138.44,-262 147.11,-262 155.84,-262"/>
<polygon fill="#63b8ff" stroke="#63b8ff" points="130.07,-258.5 120.07,-262 130.07,-265.5 130.07,-258.5"/>
</a>
</g>
</g>
<!-- Node2 -->
<g id="Node000002" class="node">
<title>Node2</title>
<g id="a_Node000002"><a xlink:href="classmlir_1_1BytecodeDialectInterface.html" target="_top" xlink:title=" ">
<polygon fill="white" stroke="#666666" points="577,-464.5 411,-464.5 411,-445.5 577,-445.5 577,-464.5"/>
<text text-anchor="middle" x="494" y="-452.5" font-family="Helvetica,sans-Serif" font-size="10.00">mlir::BytecodeDialectInterface</text>
</a>
</g>
</g>
<!-- Node1&#45;&gt;Node2 -->
<g id="edge779_Node000001_Node000002" class="edge">
<title>Node1&#45;&gt;Node2</title>
<g id="a_edge779_Node000001_Node000002"><a xlink:title=" ">
<path fill="none" stroke="#63b8ff" d="M276,-286.14C297.13,-324.37 343.66,-398.36 405,-436 411.26,-439.84 418.19,-442.91 425.33,-445.37"/>
<polygon fill="#63b8ff" stroke="#63b8ff" points="279.02,-284.36 271.19,-277.23 272.87,-287.69 279.02,-284.36"/>
</a>
</g>
</g>
<!-- Node3 -->
<g id="Node000003" class="node">
<title>Node3</title>
<g id="a_Node000003"><a xlink:href="classmlir_1_1ConvertToEmitCPatternInterface.html" target="_top" xlink:title=" ">
<polygon fill="white" stroke="#666666" points="571.5,-427 416.5,-427 416.5,-397 571.5,-397 571.5,-427"/>
<text text-anchor="start" x="424.5" y="-415" font-family="Helvetica,sans-Serif" font-size="10.00">mlir::ConvertToEmitCPattern</text>
<text text-anchor="middle" x="494" y="-404" font-family="Helvetica,sans-Serif" font-size="10.00">Interface</text>
</a>
</g>
</g>
<!-- Node1&#45;&gt;Node3 -->
<g id="edge780_Node000001_Node000003" class="edge">
<title>Node1&#45;&gt;Node3</title>
<g id="a_edge780_Node000001_Node000003"><a xlink:title=" ">
<path fill="none" stroke="#63b8ff" d="M283.13,-285.07C308.48,-313.41 355.26,-361.03 405,-388 411.26,-391.4 418.05,-394.34 424.97,-396.89"/>
<polygon fill="#63b8ff" stroke="#63b8ff" points="285.51,-282.48 276.27,-277.28 280.26,-287.1 285.51,-282.48"/>
</a>
</g>
</g>
<!-- Node4 -->
<g id="Node000004" class="node">
<title>Node4</title>
<g id="a_Node000004"><a xlink:href="classmlir_1_1ConvertToLLVMPatternInterface.html" target="_top" xlink:title="Base class for dialect interfaces providing translation to LLVM IR.">
<polygon fill="white" stroke="#666666" points="569.5,-379 418.5,-379 418.5,-349 569.5,-349 569.5,-379"/>
<text text-anchor="start" x="426.5" y="-367" font-family="Helvetica,sans-Serif" font-size="10.00">mlir::ConvertToLLVMPattern</text>
<text text-anchor="middle" x="494" y="-356" font-family="Helvetica,sans-Serif" font-size="10.00">Interface</text>
</a>
</g>
</g>
<!-- Node1&#45;&gt;Node4 -->
<g id="edge781_Node000001_Node000004" class="edge">
<title>Node1&#45;&gt;Node4</title>
<g id="a_edge781_Node000001_Node000004"><a xlink:title=" ">
<path fill="none" stroke="#63b8ff" d="M295.24,-282.37C323.24,-299.62 365.59,-324.03 405,-340 413.07,-343.27 421.74,-346.24 430.37,-348.9"/>
<polygon fill="#63b8ff" stroke="#63b8ff" points="297.02,-279.35 286.68,-277.04 293.32,-285.3 297.02,-279.35"/>
</a>
</g>
</g>
<!-- Node5 -->
<g id="Node000005" class="node">
<title>Node5</title>
<g id="a_Node000005"><a xlink:href="classmlir_1_1DataLayoutDialectInterface.html" target="_top" xlink:title="An interface to be implemented by dialects that can have identifiers in the data layout specification...">
<polygon fill="white" stroke="#666666" points="582,-330.5 406,-330.5 406,-311.5 582,-311.5 582,-330.5"/>
<text text-anchor="middle" x="494" y="-318.5" font-family="Helvetica,sans-Serif" font-size="10.00">mlir::DataLayoutDialectInterface</text>
</a>
</g>
</g>
<!-- Node1&#45;&gt;Node5 -->
<g id="edge782_Node000001_Node000005" class="edge">
<title>Node1&#45;&gt;Node5</title>
<g id="a_edge782_Node000001_Node000005"><a xlink:title=" ">
<path fill="none" stroke="#63b8ff" d="M321.57,-279.97C347.05,-287.55 377.38,-296.19 405,-303 417.11,-305.99 430.25,-308.87 442.58,-311.41"/>
<polygon fill="#63b8ff" stroke="#63b8ff" points="322.29,-276.53 311.7,-277.01 320.28,-283.23 322.29,-276.53"/>
</a>
</g>
</g>
<!-- Node6 -->
<g id="Node000006" class="node">
<title>Node6</title>
<g id="a_Node000006"><a xlink:href="classmlir_1_1DialectFoldInterface.html" target="_top" xlink:title="Define a fold interface to allow for dialects to control specific aspects of the folding behavior for...">
<polygon fill="white" stroke="#666666" points="564,-293.5 424,-293.5 424,-274.5 564,-274.5 564,-293.5"/>
<text text-anchor="middle" x="494" y="-281.5" font-family="Helvetica,sans-Serif" font-size="10.00">mlir::DialectFoldInterface</text>
</a>
</g>
</g>
<!-- Node1&#45;&gt;Node6 -->
<g id="edge783_Node000001_Node000006" class="edge">
<title>Node1&#45;&gt;Node6</title>
<g id="a_edge783_Node000001_Node000006"><a xlink:title=" ">
<path fill="none" stroke="#63b8ff" d="M379.22,-273.09C394.51,-274.56 409.78,-276.02 423.93,-277.38"/>
<polygon fill="#63b8ff" stroke="#63b8ff" points="379.47,-269.6 369.18,-272.13 378.8,-276.57 379.47,-269.6"/>
</a>
</g>
</g>
<!-- Node7 -->
<g id="Node000007" class="node">
<title>Node7</title>
<g id="a_Node000007"><a xlink:href="classmlir_1_1DialectReductionPatternInterface.html" target="_top" xlink:title="This is used to report the reduction patterns for a Dialect.">
<polygon fill="white" stroke="#666666" points="574,-256 414,-256 414,-226 574,-226 574,-256"/>
<text text-anchor="start" x="422" y="-244" font-family="Helvetica,sans-Serif" font-size="10.00">mlir::DialectReductionPattern</text>
<text text-anchor="middle" x="494" y="-233" font-family="Helvetica,sans-Serif" font-size="10.00">Interface</text>
</a>
</g>
</g>
<!-- Node1&#45;&gt;Node7 -->
<g id="edge784_Node000001_Node000007" class="edge">
<title>Node1&#45;&gt;Node7</title>
<g id="a_edge784_Node000001_Node000007"><a xlink:title=" ">
<path fill="none" stroke="#63b8ff" d="M379.44,-251.39C391.11,-250.32 402.78,-249.26 413.94,-248.23"/>
<polygon fill="#63b8ff" stroke="#63b8ff" points="378.82,-247.93 369.18,-252.33 379.46,-254.9 378.82,-247.93"/>
</a>
</g>
</g>
<!-- Node8 -->
<g id="Node000008" class="node">
<title>Node8</title>
<g id="a_Node000008"><a xlink:href="classmlir_1_1LLVMImportDialectInterface.html" target="_top" xlink:title="Base class for dialect interfaces used to import LLVM IR.">
<polygon fill="white" stroke="#666666" points="583,-207.5 405,-207.5 405,-188.5 583,-188.5 583,-207.5"/>
<text text-anchor="middle" x="494" y="-195.5" font-family="Helvetica,sans-Serif" font-size="10.00">mlir::LLVMImportDialectInterface</text>
</a>
</g>
</g>
<!-- Node1&#45;&gt;Node8 -->
<g id="edge785_Node000001_Node000008" class="edge">
<title>Node1&#45;&gt;Node8</title>
<g id="a_edge785_Node000001_Node000008"><a xlink:title=" ">
<path fill="none" stroke="#63b8ff" d="M316.94,-243.68C343.28,-234.99 375.62,-224.82 405,-217 417.84,-213.58 431.85,-210.34 444.85,-207.53"/>
<polygon fill="#63b8ff" stroke="#63b8ff" points="315.55,-240.45 307.16,-246.93 317.76,-247.1 315.55,-240.45"/>
</a>
</g>
</g>
<!-- Node9 -->
<g id="Node000009" class="node">
<title>Node9</title>
<g id="a_Node000009"><a xlink:href="classmlir_1_1LLVMTranslationDialectInterface.html" target="_top" xlink:title="Base class for dialect interfaces providing translation to LLVM IR.">
<polygon fill="white" stroke="#666666" points="571.5,-170 416.5,-170 416.5,-140 571.5,-140 571.5,-170"/>
<text text-anchor="start" x="424.5" y="-158" font-family="Helvetica,sans-Serif" font-size="10.00">mlir::LLVMTranslationDialect</text>
<text text-anchor="middle" x="494" y="-147" font-family="Helvetica,sans-Serif" font-size="10.00">Interface</text>
</a>
</g>
</g>
<!-- Node1&#45;&gt;Node9 -->
<g id="edge786_Node000001_Node000009" class="edge">
<title>Node1&#45;&gt;Node9</title>
<g id="a_edge786_Node000001_Node000009"><a xlink:title=" ">
<path fill="none" stroke="#63b8ff" d="M294.15,-241.24C322.05,-223.07 364.9,-197 405,-180 413.63,-176.34 422.95,-173.04 432.19,-170.13"/>
<polygon fill="#63b8ff" stroke="#63b8ff" points="292.06,-238.42 285.63,-246.83 295.91,-244.26 292.06,-238.42"/>
</a>
</g>
</g>
<!-- Node10 -->
<g id="Node000010" class="node">
<title>Node10</title>
<g id="a_Node000010"><a xlink:href="classmlir_1_1OpAsmDialectInterface.html" target="_top" xlink:title=" ">
<polygon fill="white" stroke="#666666" points="571.5,-121.5 416.5,-121.5 416.5,-102.5 571.5,-102.5 571.5,-121.5"/>
<text text-anchor="middle" x="494" y="-109.5" font-family="Helvetica,sans-Serif" font-size="10.00">mlir::OpAsmDialectInterface</text>
</a>
</g>
</g>
<!-- Node1&#45;&gt;Node10 -->
<g id="edge787_Node000001_Node000010" class="edge">
<title>Node1&#45;&gt;Node10</title>
<g id="a_edge787_Node000001_Node000010"><a xlink:title=" ">
<path fill="none" stroke="#63b8ff" d="M281.6,-238.86C306.21,-209.09 353.15,-157.98 405,-131 412.49,-127.1 420.73,-124.01 429.08,-121.54"/>
<polygon fill="#63b8ff" stroke="#63b8ff" points="278.85,-236.69 275.26,-246.66 284.29,-241.11 278.85,-236.69"/>
</a>
</g>
</g>
<!-- Node11 -->
<g id="Node000011" class="node">
<title>Node11</title>
<g id="a_Node000011"><a xlink:href="classmlir_1_1ResourceBlobManagerDialectInterface.html" target="_top" xlink:title="This class implements a dialect interface that provides common functionality for interacting with a r...">
<polygon fill="white" stroke="#666666" points="570,-84 418,-84 418,-54 570,-54 570,-84"/>
<text text-anchor="start" x="426" y="-72" font-family="Helvetica,sans-Serif" font-size="10.00">mlir::ResourceBlobManager</text>
<text text-anchor="middle" x="494" y="-61" font-family="Helvetica,sans-Serif" font-size="10.00">DialectInterface</text>
</a>
</g>
</g>
<!-- Node1&#45;&gt;Node11 -->
<g id="edge788_Node000001_Node000011" class="edge">
<title>Node1&#45;&gt;Node11</title>
<g id="a_edge788_Node000001_Node000011"><a xlink:title=" ">
<path fill="none" stroke="#63b8ff" d="M277.28,-237.85C299.44,-201.21 346.5,-131.81 405,-94 411,-90.12 417.61,-86.83 424.43,-84.05"/>
<polygon fill="#63b8ff" stroke="#63b8ff" points="274.03,-236.46 271.94,-246.85 280.05,-240.03 274.03,-236.46"/>
</a>
</g>
</g>
<!-- Node12 -->
<g id="Node000012" class="node">
<title>Node12</title>
<g id="a_Node000012"><a xlink:href="classmlir_1_1ResourceBlobManagerDialectInterfaceBase.html" target="_top" xlink:title=" ">
<polygon fill="white" stroke="#666666" points="828,-148.5 619,-148.5 619,-107.5 828,-107.5 828,-148.5"/>
<text text-anchor="start" x="627" y="-136.5" font-family="Helvetica,sans-Serif" font-size="10.00">mlir::ResourceBlobManager</text>
<text text-anchor="start" x="627" y="-125.5" font-family="Helvetica,sans-Serif" font-size="10.00">DialectInterfaceBase&lt; DialectResource</text>
<text text-anchor="middle" x="723.5" y="-114.5" font-family="Helvetica,sans-Serif" font-size="10.00">BlobHandle&lt; DialectT &gt; &gt;</text>
</a>
</g>
</g>
<!-- Node11&#45;&gt;Node12 -->
<g id="edge789_Node000011_Node000012" class="edge">
<title>Node11&#45;&gt;Node12</title>
<g id="a_edge789_Node000011_Node000012"><a xlink:title=" ">
<path fill="none" stroke="#63b8ff" d="M562.84,-86.59C588.09,-93.14 616.96,-100.63 643.15,-107.42"/>
<polygon fill="#63b8ff" stroke="#63b8ff" points="563.55,-83.16 553,-84.04 561.8,-89.94 563.55,-83.16"/>
</a>
</g>
</g>
<!-- Node13 -->
<g id="Node000013" class="node">
<title>Node13</title>
<g id="a_Node000013"><a xlink:href="classmlir_1_1ResourceBlobManagerDialectInterfaceBase.html" target="_top" xlink:title=" ">
<polygon fill="white" stroke="#666666" points="826.5,-89.5 620.5,-89.5 620.5,-48.5 826.5,-48.5 826.5,-89.5"/>
<text text-anchor="start" x="628.5" y="-77.5" font-family="Helvetica,sans-Serif" font-size="10.00">mlir::ResourceBlobManager</text>
<text text-anchor="start" x="628.5" y="-66.5" font-family="Helvetica,sans-Serif" font-size="10.00">DialectInterfaceBase&lt; DenseResource</text>
<text text-anchor="middle" x="723.5" y="-55.5" font-family="Helvetica,sans-Serif" font-size="10.00">ElementsHandle &gt;</text>
</a>
</g>
</g>
<!-- Node11&#45;&gt;Node13 -->
<g id="edge790_Node000011_Node000013" class="edge">
<title>Node11&#45;&gt;Node13</title>
<g id="a_edge790_Node000011_Node000013"><a xlink:title=" ">
<path fill="none" stroke="#63b8ff" d="M580.42,-69C593.42,-69 606.94,-69 620.26,-69"/>
<polygon fill="#63b8ff" stroke="#63b8ff" points="580.12,-65.5 570.12,-69 580.12,-72.5 580.12,-65.5"/>
</a>
</g>
</g>
<!-- Node14 -->
<g id="Node000014" class="node">
<title>Node14</title>
<g id="a_Node000014"><a xlink:href="classmlir_1_1ResourceBlobManagerDialectInterfaceBase.html" target="_top" xlink:title="This class provides a base class for dialects implementing the resource blob interface.">
<polygon fill="white" stroke="#666666" points="814.5,-30 632.5,-30 632.5,0 814.5,0 814.5,-30"/>
<text text-anchor="start" x="640.5" y="-18" font-family="Helvetica,sans-Serif" font-size="10.00">mlir::ResourceBlobManager</text>
<text text-anchor="middle" x="723.5" y="-7" font-family="Helvetica,sans-Serif" font-size="10.00">DialectInterfaceBase&lt; HandleT &gt;</text>
</a>
</g>
</g>
<!-- Node11&#45;&gt;Node14 -->
<g id="edge791_Node000011_Node000014" class="edge">
<title>Node11&#45;&gt;Node14</title>
<g id="a_edge791_Node000011_Node000014"><a xlink:title=" ">
<path fill="none" stroke="#63b8ff" d="M568.13,-51.64C597.42,-44.69 630.84,-36.76 659.07,-30.05"/>
<polygon fill="#63b8ff" stroke="#63b8ff" points="567.29,-48.24 558.37,-53.96 568.91,-55.05 567.29,-48.24"/>
</a>
</g>
</g>
</g>
</svg>
