<?xml version="1.0" encoding="UTF-8" standalone="no"?>
<!DOCTYPE svg PUBLIC "-//W3C//DTD SVG 1.1//EN"
 "http://www.w3.org/Graphics/SVG/1.1/DTD/svg11.dtd">
<!-- Generated by graphviz version 2.43.0 (0)
 -->
<!-- Title: Graphical Class Hierarchy Pages: 1 -->
<svg width="720pt" height="511pt"
 viewBox="0.00 0.00 720.00 510.50" xmlns="http://www.w3.org/2000/svg" xmlns:xlink="http://www.w3.org/1999/xlink">
<g id="graph0" class="graph" transform="scale(1 1) rotate(0) translate(4 506.5)">
<title>Graphical Class Hierarchy</title>
<!-- Node0 -->
<g id="Node000000" class="node">
<title>Node0</title>
<g id="a_Node000000"><a xlink:href="classmlir_1_1pdll_1_1ast_1_1Type.html" target="_top" xlink:title=" ">
<polygon fill="white" stroke="#666666" points="110,-255.5 0,-255.5 0,-236.5 110,-236.5 110,-255.5"/>
<text text-anchor="middle" x="55" y="-243.5" font-family="Helvetica,sans-Serif" font-size="10.00">mlir::pdll::ast::Type</text>
</a>
</g>
</g>
<!-- Node1 -->
<g id="Node000001" class="node">
<title>Node1</title>
<g id="a_Node000001"><a xlink:href="classmlir_1_1pdll_1_1ast_1_1Type_1_1TypeBase.html" target="_top" xlink:title=" ">
<polygon fill="white" stroke="#666666" points="308,-502.5 151,-502.5 151,-461.5 308,-461.5 308,-502.5"/>
<text text-anchor="start" x="159" y="-490.5" font-family="Helvetica,sans-Serif" font-size="10.00">mlir::pdll::ast::Type</text>
<text text-anchor="start" x="159" y="-479.5" font-family="Helvetica,sans-Serif" font-size="10.00">::TypeBase&lt; detail::Attribute</text>
<text text-anchor="middle" x="229.5" y="-468.5" font-family="Helvetica,sans-Serif" font-size="10.00">TypeStorage &gt;</text>
</a>
</g>
</g>
<!-- Node0&#45;&gt;Node1 -->
<g id="edge1246_Node000000_Node000001" class="edge">
<title>Node0&#45;&gt;Node1</title>
<g id="a_edge1246_Node000000_Node000001"><a xlink:title=" ">
<path fill="none" stroke="#63b8ff" d="M59.19,-265.83C66.76,-306.64 89.62,-400.54 146,-453 149.33,-456.1 153.02,-458.88 156.93,-461.36"/>
<polygon fill="#63b8ff" stroke="#63b8ff" points="62.6,-265.06 57.44,-255.81 55.71,-266.26 62.6,-265.06"/>
</a>
</g>
</g>
<!-- Node3 -->
<g id="Node000003" class="node">
<title>Node3</title>
<g id="a_Node000003"><a xlink:href="classmlir_1_1pdll_1_1ast_1_1Type_1_1TypeBase.html" target="_top" xlink:title=" ">
<polygon fill="white" stroke="#666666" points="311.5,-443.5 147.5,-443.5 147.5,-402.5 311.5,-402.5 311.5,-443.5"/>
<text text-anchor="start" x="155.5" y="-431.5" font-family="Helvetica,sans-Serif" font-size="10.00">mlir::pdll::ast::Type</text>
<text text-anchor="start" x="155.5" y="-420.5" font-family="Helvetica,sans-Serif" font-size="10.00">::TypeBase&lt; detail::Constraint</text>
<text text-anchor="middle" x="229.5" y="-409.5" font-family="Helvetica,sans-Serif" font-size="10.00">TypeStorage &gt;</text>
</a>
</g>
</g>
<!-- Node0&#45;&gt;Node3 -->
<g id="edge1248_Node000000_Node000003" class="edge">
<title>Node0&#45;&gt;Node3</title>
<g id="a_edge1248_Node000000_Node000003"><a xlink:title=" ">
<path fill="none" stroke="#63b8ff" d="M62.75,-265.21C74.71,-296.57 102.54,-358.76 146,-394 149.77,-397.06 153.89,-399.81 158.21,-402.27"/>
<polygon fill="#63b8ff" stroke="#63b8ff" points="65.92,-263.68 59.18,-255.5 59.35,-266.1 65.92,-263.68"/>
</a>
</g>
</g>
<!-- Node5 -->
<g id="Node000005" class="node">
<title>Node5</title>
<g id="a_Node000005"><a xlink:href="classmlir_1_1pdll_1_1ast_1_1Type_1_1TypeBase.html" target="_top" xlink:title=" ">
<polygon fill="white" stroke="#666666" points="310.5,-384.5 148.5,-384.5 148.5,-343.5 310.5,-343.5 310.5,-384.5"/>
<text text-anchor="start" x="156.5" y="-372.5" font-family="Helvetica,sans-Serif" font-size="10.00">mlir::pdll::ast::Type</text>
<text text-anchor="start" x="156.5" y="-361.5" font-family="Helvetica,sans-Serif" font-size="10.00">::TypeBase&lt; detail::Operation</text>
<text text-anchor="middle" x="229.5" y="-350.5" font-family="Helvetica,sans-Serif" font-size="10.00">TypeStorage &gt;</text>
</a>
</g>
</g>
<!-- Node0&#45;&gt;Node5 -->
<g id="edge1250_Node000000_Node000005" class="edge">
<title>Node0&#45;&gt;Node5</title>
<g id="a_edge1250_Node000000_Node000005"><a xlink:title=" ">
<path fill="none" stroke="#63b8ff" d="M69.72,-263.65C85.98,-283.5 114.84,-315.51 146,-335 150.89,-338.06 156.15,-340.85 161.55,-343.38"/>
<polygon fill="#63b8ff" stroke="#63b8ff" points="72.34,-261.33 63.36,-255.71 66.88,-265.7 72.34,-261.33"/>
</a>
</g>
</g>
<!-- Node7 -->
<g id="Node000007" class="node">
<title>Node7</title>
<g id="a_Node000007"><a xlink:href="classmlir_1_1pdll_1_1ast_1_1Type_1_1TypeBase.html" target="_top" xlink:title=" ">
<polygon fill="white" stroke="#666666" points="313,-325.5 146,-325.5 146,-284.5 313,-284.5 313,-325.5"/>
<text text-anchor="start" x="154" y="-313.5" font-family="Helvetica,sans-Serif" font-size="10.00">mlir::pdll::ast::Type</text>
<text text-anchor="start" x="154" y="-302.5" font-family="Helvetica,sans-Serif" font-size="10.00">::TypeBase&lt; detail::RangeType</text>
<text text-anchor="middle" x="229.5" y="-291.5" font-family="Helvetica,sans-Serif" font-size="10.00">Storage &gt;</text>
</a>
</g>
</g>
<!-- Node0&#45;&gt;Node7 -->
<g id="edge1252_Node000000_Node000007" class="edge">
<title>Node0&#45;&gt;Node7</title>
<g id="a_edge1252_Node000000_Node000007"><a xlink:title=" ">
<path fill="none" stroke="#63b8ff" d="M93.65,-258.88C115.46,-266.34 143.42,-275.9 168.22,-284.38"/>
<polygon fill="#63b8ff" stroke="#63b8ff" points="94.69,-255.54 84.1,-255.61 92.43,-262.16 94.69,-255.54"/>
</a>
</g>
</g>
<!-- Node11 -->
<g id="Node000011" class="node">
<title>Node11</title>
<g id="a_Node000011"><a xlink:href="classmlir_1_1pdll_1_1ast_1_1Type_1_1TypeBase.html" target="_top" xlink:title=" ">
<polygon fill="white" stroke="#666666" points="305.5,-266.5 153.5,-266.5 153.5,-225.5 305.5,-225.5 305.5,-266.5"/>
<text text-anchor="start" x="161.5" y="-254.5" font-family="Helvetica,sans-Serif" font-size="10.00">mlir::pdll::ast::Type</text>
<text text-anchor="start" x="161.5" y="-243.5" font-family="Helvetica,sans-Serif" font-size="10.00">::TypeBase&lt; detail::Rewrite</text>
<text text-anchor="middle" x="229.5" y="-232.5" font-family="Helvetica,sans-Serif" font-size="10.00">TypeStorage &gt;</text>
</a>
</g>
</g>
<!-- Node0&#45;&gt;Node11 -->
<g id="edge1256_Node000000_Node000011" class="edge">
<title>Node0&#45;&gt;Node11</title>
<g id="a_edge1256_Node000000_Node000011"><a xlink:title=" ">
<path fill="none" stroke="#63b8ff" d="M120.28,-246C131.08,-246 142.37,-246 153.41,-246"/>
<polygon fill="#63b8ff" stroke="#63b8ff" points="120.11,-242.5 110.11,-246 120.11,-249.5 120.11,-242.5"/>
</a>
</g>
</g>
<!-- Node13 -->
<g id="Node000013" class="node">
<title>Node13</title>
<g id="a_Node000013"><a xlink:href="classmlir_1_1pdll_1_1ast_1_1Type_1_1TypeBase.html" target="_top" xlink:title=" ">
<polygon fill="white" stroke="#666666" points="310.5,-207.5 148.5,-207.5 148.5,-166.5 310.5,-166.5 310.5,-207.5"/>
<text text-anchor="start" x="156.5" y="-195.5" font-family="Helvetica,sans-Serif" font-size="10.00">mlir::pdll::ast::Type</text>
<text text-anchor="start" x="156.5" y="-184.5" font-family="Helvetica,sans-Serif" font-size="10.00">::TypeBase&lt; detail::TupleType</text>
<text text-anchor="middle" x="229.5" y="-173.5" font-family="Helvetica,sans-Serif" font-size="10.00">Storage &gt;</text>
</a>
</g>
</g>
<!-- Node0&#45;&gt;Node13 -->
<g id="edge1258_Node000000_Node000013" class="edge">
<title>Node0&#45;&gt;Node13</title>
<g id="a_edge1258_Node000000_Node000013"><a xlink:title=" ">
<path fill="none" stroke="#63b8ff" d="M93.65,-233.12C115.46,-225.66 143.42,-216.1 168.22,-207.62"/>
<polygon fill="#63b8ff" stroke="#63b8ff" points="92.43,-229.84 84.1,-236.39 94.69,-236.46 92.43,-229.84"/>
</a>
</g>
</g>
<!-- Node15 -->
<g id="Node000015" class="node">
<title>Node15</title>
<g id="a_Node000015"><a xlink:href="classmlir_1_1pdll_1_1ast_1_1Type_1_1TypeBase.html" target="_top" xlink:title=" ">
<polygon fill="white" stroke="#666666" points="309,-148.5 150,-148.5 150,-107.5 309,-107.5 309,-148.5"/>
<text text-anchor="start" x="158" y="-136.5" font-family="Helvetica,sans-Serif" font-size="10.00">mlir::pdll::ast::Type</text>
<text text-anchor="start" x="158" y="-125.5" font-family="Helvetica,sans-Serif" font-size="10.00">::TypeBase&lt; detail::TypeType</text>
<text text-anchor="middle" x="229.5" y="-114.5" font-family="Helvetica,sans-Serif" font-size="10.00">Storage &gt;</text>
</a>
</g>
</g>
<!-- Node0&#45;&gt;Node15 -->
<g id="edge1260_Node000000_Node000015" class="edge">
<title>Node0&#45;&gt;Node15</title>
<g id="a_edge1260_Node000000_Node000015"><a xlink:title=" ">
<path fill="none" stroke="#63b8ff" d="M69.8,-228.62C86.13,-209.05 115.06,-177.46 146,-158 151.42,-154.59 157.28,-151.49 163.29,-148.7"/>
<polygon fill="#63b8ff" stroke="#63b8ff" points="67.02,-226.48 63.4,-236.44 72.44,-230.91 67.02,-226.48"/>
</a>
</g>
</g>
<!-- Node17 -->
<g id="Node000017" class="node">
<title>Node17</title>
<g id="a_Node000017"><a xlink:href="classmlir_1_1pdll_1_1ast_1_1Type_1_1TypeBase.html" target="_top" xlink:title=" ">
<polygon fill="white" stroke="#666666" points="311.5,-89.5 147.5,-89.5 147.5,-48.5 311.5,-48.5 311.5,-89.5"/>
<text text-anchor="start" x="155.5" y="-77.5" font-family="Helvetica,sans-Serif" font-size="10.00">mlir::pdll::ast::Type</text>
<text text-anchor="start" x="155.5" y="-66.5" font-family="Helvetica,sans-Serif" font-size="10.00">::TypeBase&lt; detail::ValueType</text>
<text text-anchor="middle" x="229.5" y="-55.5" font-family="Helvetica,sans-Serif" font-size="10.00">Storage &gt;</text>
</a>
</g>
</g>
<!-- Node0&#45;&gt;Node17 -->
<g id="edge1262_Node000000_Node000017" class="edge">
<title>Node0&#45;&gt;Node17</title>
<g id="a_edge1262_Node000000_Node000017"><a xlink:title=" ">
<path fill="none" stroke="#63b8ff" d="M62.75,-226.79C74.71,-195.43 102.54,-133.24 146,-98 149.77,-94.94 153.89,-92.19 158.21,-89.73"/>
<polygon fill="#63b8ff" stroke="#63b8ff" points="59.35,-225.9 59.18,-236.5 65.92,-228.32 59.35,-225.9"/>
</a>
</g>
</g>
<!-- Node19 -->
<g id="Node000019" class="node">
<title>Node19</title>
<g id="a_Node000019"><a xlink:href="classmlir_1_1pdll_1_1ast_1_1Type_1_1TypeBase.html" target="_top" xlink:title="This class provides several utilities when defining derived type classes.">
<polygon fill="white" stroke="#666666" points="307,-30 152,-30 152,0 307,0 307,-30"/>
<text text-anchor="start" x="160" y="-18" font-family="Helvetica,sans-Serif" font-size="10.00">mlir::pdll::ast::Type</text>
<text text-anchor="middle" x="229.5" y="-7" font-family="Helvetica,sans-Serif" font-size="10.00">::TypeBase&lt; ImplT, BaseT &gt;</text>
</a>
</g>
</g>
<!-- Node0&#45;&gt;Node19 -->
<g id="edge1264_Node000000_Node000019" class="edge">
<title>Node0&#45;&gt;Node19</title>
<g id="a_edge1264_Node000000_Node000019"><a xlink:title=" ">
<path fill="none" stroke="#63b8ff" d="M58.91,-226.18C66.01,-185.04 88.07,-90 146,-39 149.92,-35.55 154.31,-32.59 158.97,-30.06"/>
<polygon fill="#63b8ff" stroke="#63b8ff" points="55.45,-225.63 57.32,-236.06 62.37,-226.74 55.45,-225.63"/>
</a>
</g>
</g>
<!-- Node2 -->
<g id="Node000002" class="node">
<title>Node2</title>
<g id="a_Node000002"><a xlink:href="classmlir_1_1pdll_1_1ast_1_1AttributeType.html" target="_top" xlink:title="This class represents a PDLL type that corresponds to an mlir::Attribute.">
<polygon fill="white" stroke="#666666" points="505,-491.5 353,-491.5 353,-472.5 505,-472.5 505,-491.5"/>
<text text-anchor="middle" x="429" y="-479.5" font-family="Helvetica,sans-Serif" font-size="10.00">mlir::pdll::ast::AttributeType</text>
</a>
</g>
</g>
<!-- Node1&#45;&gt;Node2 -->
<g id="edge1247_Node000001_Node000002" class="edge">
<title>Node1&#45;&gt;Node2</title>
<g id="a_edge1247_Node000001_Node000002"><a xlink:title=" ">
<path fill="none" stroke="#63b8ff" d="M318.34,-482C329.86,-482 341.59,-482 352.88,-482"/>
<polygon fill="#63b8ff" stroke="#63b8ff" points="318.27,-478.5 308.27,-482 318.27,-485.5 318.27,-478.5"/>
</a>
</g>
</g>
<!-- Node4 -->
<g id="Node000004" class="node">
<title>Node4</title>
<g id="a_Node000004"><a xlink:href="classmlir_1_1pdll_1_1ast_1_1ConstraintType.html" target="_top" xlink:title="This class represents a PDLL type that corresponds to a constraint.">
<polygon fill="white" stroke="#666666" points="509,-432.5 349,-432.5 349,-413.5 509,-413.5 509,-432.5"/>
<text text-anchor="middle" x="429" y="-420.5" font-family="Helvetica,sans-Serif" font-size="10.00">mlir::pdll::ast::ConstraintType</text>
</a>
</g>
</g>
<!-- Node3&#45;&gt;Node4 -->
<g id="edge1249_Node000003_Node000004" class="edge">
<title>Node3&#45;&gt;Node4</title>
<g id="a_edge1249_Node000003_Node000004"><a xlink:title=" ">
<path fill="none" stroke="#63b8ff" d="M321.79,-423C330.78,-423 339.86,-423 348.72,-423"/>
<polygon fill="#63b8ff" stroke="#63b8ff" points="321.69,-419.5 311.69,-423 321.69,-426.5 321.69,-419.5"/>
</a>
</g>
</g>
<!-- Node6 -->
<g id="Node000006" class="node">
<title>Node6</title>
<g id="a_Node000006"><a xlink:href="classmlir_1_1pdll_1_1ast_1_1OperationType.html" target="_top" xlink:title="This class represents a PDLL type that corresponds to an mlir::Operation.">
<polygon fill="white" stroke="#666666" points="508,-373.5 350,-373.5 350,-354.5 508,-354.5 508,-373.5"/>
<text text-anchor="middle" x="429" y="-361.5" font-family="Helvetica,sans-Serif" font-size="10.00">mlir::pdll::ast::OperationType</text>
</a>
</g>
</g>
<!-- Node5&#45;&gt;Node6 -->
<g id="edge1251_Node000005_Node000006" class="edge">
<title>Node5&#45;&gt;Node6</title>
<g id="a_edge1251_Node000005_Node000006"><a xlink:title=" ">
<path fill="none" stroke="#63b8ff" d="M320.63,-364C330.35,-364 340.19,-364 349.76,-364"/>
<polygon fill="#63b8ff" stroke="#63b8ff" points="320.55,-360.5 310.55,-364 320.55,-367.5 320.55,-360.5"/>
</a>
</g>
</g>
<!-- Node8 -->
<g id="Node000008" class="node">
<title>Node8</title>
<g id="a_Node000008"><a xlink:href="classmlir_1_1pdll_1_1ast_1_1RangeType.html" target="_top" xlink:title="This class represents a PDLL type that corresponds to a range of elements with a given element type.">
<polygon fill="white" stroke="#666666" points="499,-314.5 359,-314.5 359,-295.5 499,-295.5 499,-314.5"/>
<text text-anchor="middle" x="429" y="-302.5" font-family="Helvetica,sans-Serif" font-size="10.00">mlir::pdll::ast::RangeType</text>
</a>
</g>
</g>
<!-- Node7&#45;&gt;Node8 -->
<g id="edge1253_Node000007_Node000008" class="edge">
<title>Node7&#45;&gt;Node8</title>
<g id="a_edge1253_Node000007_Node000008"><a xlink:title=" ">
<path fill="none" stroke="#63b8ff" d="M323.16,-305C335.18,-305 347.31,-305 358.85,-305"/>
<polygon fill="#63b8ff" stroke="#63b8ff" points="323.11,-301.5 313.11,-305 323.11,-308.5 323.11,-301.5"/>
</a>
</g>
</g>
<!-- Node9 -->
<g id="Node000009" class="node">
<title>Node9</title>
<g id="a_Node000009"><a xlink:href="classmlir_1_1pdll_1_1ast_1_1TypeRangeType.html" target="_top" xlink:title="This class represents a PDLL type that corresponds to an mlir::TypeRange.">
<polygon fill="white" stroke="#666666" points="710,-332.5 547,-332.5 547,-313.5 710,-313.5 710,-332.5"/>
<text text-anchor="middle" x="628.5" y="-320.5" font-family="Helvetica,sans-Serif" font-size="10.00">mlir::pdll::ast::TypeRangeType</text>
</a>
</g>
</g>
<!-- Node8&#45;&gt;Node9 -->
<g id="edge1254_Node000008_Node000009" class="edge">
<title>Node8&#45;&gt;Node9</title>
<g id="a_edge1254_Node000008_Node000009"><a xlink:title=" ">
<path fill="none" stroke="#63b8ff" d="M509.36,-312.23C521.74,-313.36 534.54,-314.53 546.95,-315.66"/>
<polygon fill="#63b8ff" stroke="#63b8ff" points="509.35,-308.72 499.08,-311.3 508.72,-315.69 509.35,-308.72"/>
</a>
</g>
</g>
<!-- Node10 -->
<g id="Node000010" class="node">
<title>Node10</title>
<g id="a_Node000010"><a xlink:href="classmlir_1_1pdll_1_1ast_1_1ValueRangeType.html" target="_top" xlink:title="This class represents a PDLL type that corresponds to an mlir::ValueRange.">
<polygon fill="white" stroke="#666666" points="712,-295.5 545,-295.5 545,-276.5 712,-276.5 712,-295.5"/>
<text text-anchor="middle" x="628.5" y="-283.5" font-family="Helvetica,sans-Serif" font-size="10.00">mlir::pdll::ast::ValueRangeType</text>
</a>
</g>
</g>
<!-- Node8&#45;&gt;Node10 -->
<g id="edge1255_Node000008_Node000010" class="edge">
<title>Node8&#45;&gt;Node10</title>
<g id="a_edge1255_Node000008_Node000010"><a xlink:title=" ">
<path fill="none" stroke="#63b8ff" d="M509.26,-297.37C520.99,-296.25 533.1,-295.08 544.89,-293.95"/>
<polygon fill="#63b8ff" stroke="#63b8ff" points="508.69,-293.91 499.08,-298.35 509.37,-300.88 508.69,-293.91"/>
</a>
</g>
</g>
<!-- Node12 -->
<g id="Node000012" class="node">
<title>Node12</title>
<g id="a_Node000012"><a xlink:href="classmlir_1_1pdll_1_1ast_1_1RewriteType.html" target="_top" xlink:title="This class represents a PDLL type that corresponds to a rewrite reference.">
<polygon fill="white" stroke="#666666" points="502.5,-255.5 355.5,-255.5 355.5,-236.5 502.5,-236.5 502.5,-255.5"/>
<text text-anchor="middle" x="429" y="-243.5" font-family="Helvetica,sans-Serif" font-size="10.00">mlir::pdll::ast::RewriteType</text>
</a>
</g>
</g>
<!-- Node11&#45;&gt;Node12 -->
<g id="edge1257_Node000011_Node000012" class="edge">
<title>Node11&#45;&gt;Node12</title>
<g id="a_edge1257_Node000011_Node000012"><a xlink:title=" ">
<path fill="none" stroke="#63b8ff" d="M316.11,-246C329.16,-246 342.52,-246 355.26,-246"/>
<polygon fill="#63b8ff" stroke="#63b8ff" points="315.73,-242.5 305.73,-246 315.73,-249.5 315.73,-242.5"/>
</a>
</g>
</g>
<!-- Node14 -->
<g id="Node000014" class="node">
<title>Node14</title>
<g id="a_Node000014"><a xlink:href="classmlir_1_1pdll_1_1ast_1_1TupleType.html" target="_top" xlink:title="This class represents a PDLL tuple type, i.e.">
<polygon fill="white" stroke="#666666" points="496.5,-196.5 361.5,-196.5 361.5,-177.5 496.5,-177.5 496.5,-196.5"/>
<text text-anchor="middle" x="429" y="-184.5" font-family="Helvetica,sans-Serif" font-size="10.00">mlir::pdll::ast::TupleType</text>
</a>
</g>
</g>
<!-- Node13&#45;&gt;Node14 -->
<g id="edge1259_Node000013_Node000014" class="edge">
<title>Node13&#45;&gt;Node14</title>
<g id="a_edge1259_Node000013_Node000014"><a xlink:title=" ">
<path fill="none" stroke="#63b8ff" d="M320.92,-187C334.56,-187 348.41,-187 361.43,-187"/>
<polygon fill="#63b8ff" stroke="#63b8ff" points="320.55,-183.5 310.55,-187 320.55,-190.5 320.55,-183.5"/>
</a>
</g>
</g>
<!-- Node16 -->
<g id="Node000016" class="node">
<title>Node16</title>
<g id="a_Node000016"><a xlink:href="classmlir_1_1pdll_1_1ast_1_1TypeType.html" target="_top" xlink:title="This class represents a PDLL type that corresponds to an mlir::Type.">
<polygon fill="white" stroke="#666666" points="495,-137.5 363,-137.5 363,-118.5 495,-118.5 495,-137.5"/>
<text text-anchor="middle" x="429" y="-125.5" font-family="Helvetica,sans-Serif" font-size="10.00">mlir::pdll::ast::TypeType</text>
</a>
</g>
</g>
<!-- Node15&#45;&gt;Node16 -->
<g id="edge1261_Node000015_Node000016" class="edge">
<title>Node15&#45;&gt;Node16</title>
<g id="a_edge1261_Node000015_Node000016"><a xlink:title=" ">
<path fill="none" stroke="#63b8ff" d="M319.25,-128C333.97,-128 348.98,-128 362.97,-128"/>
<polygon fill="#63b8ff" stroke="#63b8ff" points="319.12,-124.5 309.12,-128 319.12,-131.5 319.12,-124.5"/>
</a>
</g>
</g>
<!-- Node18 -->
<g id="Node000018" class="node">
<title>Node18</title>
<g id="a_Node000018"><a xlink:href="classmlir_1_1pdll_1_1ast_1_1ValueType.html" target="_top" xlink:title="This class represents a PDLL type that corresponds to an mlir::Value.">
<polygon fill="white" stroke="#666666" points="497.5,-78.5 360.5,-78.5 360.5,-59.5 497.5,-59.5 497.5,-78.5"/>
<text text-anchor="middle" x="429" y="-66.5" font-family="Helvetica,sans-Serif" font-size="10.00">mlir::pdll::ast::ValueType</text>
</a>
</g>
</g>
<!-- Node17&#45;&gt;Node18 -->
<g id="edge1263_Node000017_Node000018" class="edge">
<title>Node17&#45;&gt;Node18</title>
<g id="a_edge1263_Node000017_Node000018"><a xlink:title=" ">
<path fill="none" stroke="#63b8ff" d="M321.99,-69C334.9,-69 347.98,-69 360.34,-69"/>
<polygon fill="#63b8ff" stroke="#63b8ff" points="321.69,-65.5 311.69,-69 321.69,-72.5 321.69,-65.5"/>
</a>
</g>
</g>
</g>
</svg>
