<?xml version="1.0" encoding="UTF-8" standalone="no"?>
<!DOCTYPE svg PUBLIC "-//W3C//DTD SVG 1.1//EN"
 "http://www.w3.org/Graphics/SVG/1.1/DTD/svg11.dtd">
<!-- Generated by graphviz version 2.43.0 (0)
 -->
<!-- Title: Graphical Class Hierarchy Pages: 1 -->
<svg width="517pt" height="134pt"
 viewBox="0.00 0.00 517.00 134.00" xmlns="http://www.w3.org/2000/svg" xmlns:xlink="http://www.w3.org/1999/xlink">
<g id="graph0" class="graph" transform="scale(1 1) rotate(0) translate(4 130)">
<title>Graphical Class Hierarchy</title>
<!-- Node0 -->
<g id="Node000000" class="node">
<title>Node0</title>
<g id="a_Node000000"><a xlink:href="classmlir_1_1detail_1_1IROperandBase.html" target="_top" xlink:title="This class is the base for IROperand, and provides all of the non&#45;templated facilities for operand us...">
<polygon fill="white" stroke="#666666" points="151,-72.5 0,-72.5 0,-53.5 151,-53.5 151,-72.5"/>
<text text-anchor="middle" x="75.5" y="-60.5" font-family="Helvetica,sans-Serif" font-size="10.00">mlir::detail::IROperandBase</text>
</a>
</g>
</g>
<!-- Node1 -->
<g id="Node000001" class="node">
<title>Node1</title>
<g id="a_Node000001"><a xlink:href="classmlir_1_1IROperand.html" target="_top" xlink:title=" ">
<polygon fill="white" stroke="#666666" points="363,-126 187,-126 187,-96 363,-96 363,-126"/>
<text text-anchor="start" x="195" y="-114" font-family="Helvetica,sans-Serif" font-size="10.00">mlir::IROperand&lt; BlockOperand,</text>
<text text-anchor="middle" x="275" y="-103" font-family="Helvetica,sans-Serif" font-size="10.00"> Block * &gt;</text>
</a>
</g>
</g>
<!-- Node0&#45;&gt;Node1 -->
<g id="edge753_Node000000_Node000001" class="edge">
<title>Node0&#45;&gt;Node1</title>
<g id="a_edge753_Node000000_Node000001"><a xlink:title=" ">
<path fill="none" stroke="#63b8ff" d="M126.02,-75.04C152.09,-81.37 184.31,-89.2 212.02,-95.94"/>
<polygon fill="#63b8ff" stroke="#63b8ff" points="126.54,-71.56 115.99,-72.6 124.88,-78.36 126.54,-71.56"/>
</a>
</g>
</g>
<!-- Node3 -->
<g id="Node000003" class="node">
<title>Node3</title>
<g id="a_Node000003"><a xlink:href="classmlir_1_1IROperand.html" target="_top" xlink:title=" ">
<polygon fill="white" stroke="#666666" points="356,-78 194,-78 194,-48 356,-48 356,-78"/>
<text text-anchor="start" x="202" y="-66" font-family="Helvetica,sans-Serif" font-size="10.00">mlir::IROperand&lt; OpOperand,</text>
<text text-anchor="middle" x="275" y="-55" font-family="Helvetica,sans-Serif" font-size="10.00"> Value &gt;</text>
</a>
</g>
</g>
<!-- Node0&#45;&gt;Node3 -->
<g id="edge755_Node000000_Node000003" class="edge">
<title>Node0&#45;&gt;Node3</title>
<g id="a_edge755_Node000000_Node000003"><a xlink:title=" ">
<path fill="none" stroke="#63b8ff" d="M161.43,-63C172.22,-63 183.24,-63 193.95,-63"/>
<polygon fill="#63b8ff" stroke="#63b8ff" points="161.17,-59.5 151.17,-63 161.17,-66.5 161.17,-59.5"/>
</a>
</g>
</g>
<!-- Node5 -->
<g id="Node000005" class="node">
<title>Node5</title>
<g id="a_Node000005"><a xlink:href="classmlir_1_1IROperand.html" target="_top" xlink:title="A reference to a value, suitable for use as an operand of an operation.">
<polygon fill="white" stroke="#666666" points="346.5,-30 203.5,-30 203.5,0 346.5,0 346.5,-30"/>
<text text-anchor="start" x="211.5" y="-18" font-family="Helvetica,sans-Serif" font-size="10.00">mlir::IROperand&lt; Derived</text>
<text text-anchor="middle" x="275" y="-7" font-family="Helvetica,sans-Serif" font-size="10.00">T, IRValueT &gt;</text>
</a>
</g>
</g>
<!-- Node0&#45;&gt;Node5 -->
<g id="edge757_Node000000_Node000005" class="edge">
<title>Node0&#45;&gt;Node5</title>
<g id="a_edge757_Node000000_Node000005"><a xlink:title=" ">
<path fill="none" stroke="#63b8ff" d="M126.02,-50.96C152.09,-44.63 184.31,-36.8 212.02,-30.06"/>
<polygon fill="#63b8ff" stroke="#63b8ff" points="124.88,-47.64 115.99,-53.4 126.54,-54.44 124.88,-47.64"/>
</a>
</g>
</g>
<!-- Node2 -->
<g id="Node000002" class="node">
<title>Node2</title>
<g id="a_Node000002"><a xlink:href="classmlir_1_1BlockOperand.html" target="_top" xlink:title="A block operand represents an operand that holds a reference to a Block, e.g.">
<polygon fill="white" stroke="#666666" points="509,-120.5 399,-120.5 399,-101.5 509,-101.5 509,-120.5"/>
<text text-anchor="middle" x="454" y="-108.5" font-family="Helvetica,sans-Serif" font-size="10.00">mlir::BlockOperand</text>
</a>
</g>
</g>
<!-- Node1&#45;&gt;Node2 -->
<g id="edge754_Node000001_Node000002" class="edge">
<title>Node1&#45;&gt;Node2</title>
<g id="a_edge754_Node000001_Node000002"><a xlink:title=" ">
<path fill="none" stroke="#63b8ff" d="M373.35,-111C381.97,-111 390.47,-111 398.53,-111"/>
<polygon fill="#63b8ff" stroke="#63b8ff" points="373.2,-107.5 363.2,-111 373.2,-114.5 373.2,-107.5"/>
</a>
</g>
</g>
<!-- Node4 -->
<g id="Node000004" class="node">
<title>Node4</title>
<g id="a_Node000004"><a xlink:href="classmlir_1_1OpOperand.html" target="_top" xlink:title="This class represents an operand of an operation.">
<polygon fill="white" stroke="#666666" points="502.5,-72.5 405.5,-72.5 405.5,-53.5 502.5,-53.5 502.5,-72.5"/>
<text text-anchor="middle" x="454" y="-60.5" font-family="Helvetica,sans-Serif" font-size="10.00">mlir::OpOperand</text>
</a>
</g>
</g>
<!-- Node3&#45;&gt;Node4 -->
<g id="edge756_Node000003_Node000004" class="edge">
<title>Node3&#45;&gt;Node4</title>
<g id="a_edge756_Node000003_Node000004"><a xlink:title=" ">
<path fill="none" stroke="#63b8ff" d="M366.5,-63C379.96,-63 393.36,-63 405.45,-63"/>
<polygon fill="#63b8ff" stroke="#63b8ff" points="366.21,-59.5 356.21,-63 366.21,-66.5 366.21,-59.5"/>
</a>
</g>
</g>
</g>
</svg>
