<?xml version="1.0" encoding="UTF-8" standalone="no"?>
<!DOCTYPE svg PUBLIC "-//W3C//DTD SVG 1.1//EN"
 "http://www.w3.org/Graphics/SVG/1.1/DTD/svg11.dtd">
<!-- Generated by graphviz version 2.43.0 (0)
 -->
<!-- Title: Graphical Class Hierarchy Pages: 1 -->
<svg width="585pt" height="149pt"
 viewBox="0.00 0.00 585.00 149.00" xmlns="http://www.w3.org/2000/svg" xmlns:xlink="http://www.w3.org/1999/xlink">
<g id="graph0" class="graph" transform="scale(1 1) rotate(0) translate(4 145)">
<title>Graphical Class Hierarchy</title>
<!-- Node0 -->
<g id="node1" class="node">
<title>Node0</title>
<g id="a_node1"><a xlink:href="classmlir_1_1tracing_1_1BreakpointManager.html" target="_top" xlink:title="A breakpoint manager is responsible for managing a set of breakpoints and matching them to a given ac...">
<polygon fill="none" stroke="black" points="0,-55.5 0,-85.5 135,-85.5 135,-55.5 0,-55.5"/>
<text text-anchor="start" x="8" y="-73.5" font-family="Helvetica,sans-Serif" font-size="10.00">mlir::tracing::Breakpoint</text>
<text text-anchor="middle" x="67.5" y="-62.5" font-family="Helvetica,sans-Serif" font-size="10.00">Manager</text>
</a>
</g>
</g>
<!-- Node1 -->
<g id="node2" class="node">
<title>Node1</title>
<g id="a_node2"><a xlink:href="classmlir_1_1tracing_1_1BreakpointManagerBase.html" target="_top" xlink:title=" ">
<polygon fill="none" stroke="black" points="171,-110.5 171,-140.5 389,-140.5 389,-110.5 171,-110.5"/>
<text text-anchor="start" x="179" y="-128.5" font-family="Helvetica,sans-Serif" font-size="10.00">mlir::tracing::Breakpoint</text>
<text text-anchor="middle" x="280" y="-117.5" font-family="Helvetica,sans-Serif" font-size="10.00">ManagerBase&lt; TagBreakpointManager &gt;</text>
</a>
</g>
</g>
<!-- Node0&#45;&gt;Node1 -->
<g id="edge1" class="edge">
<title>Node0&#45;&gt;Node1</title>
<path fill="none" stroke="midnightblue" d="M127.52,-88.4C141.72,-92.53 156.86,-96.8 171,-100.5 184.03,-103.91 198.01,-107.33 211.45,-110.49"/>
<polygon fill="midnightblue" stroke="midnightblue" points="128.45,-85.03 117.87,-85.57 126.48,-91.74 128.45,-85.03"/>
</g>
<!-- Node3 -->
<g id="node4" class="node">
<title>Node3</title>
<g id="a_node4"><a xlink:href="classmlir_1_1tracing_1_1BreakpointManagerBase.html" target="_top" xlink:title=" ">
<polygon fill="none" stroke="black" points="171,-50 171,-91 389,-91 389,-50 171,-50"/>
<text text-anchor="start" x="179" y="-79" font-family="Helvetica,sans-Serif" font-size="10.00">mlir::tracing::Breakpoint</text>
<text text-anchor="start" x="179" y="-68" font-family="Helvetica,sans-Serif" font-size="10.00">ManagerBase&lt; FileLineColLocBreakpoint</text>
<text text-anchor="middle" x="280" y="-57" font-family="Helvetica,sans-Serif" font-size="10.00">Manager &gt;</text>
</a>
</g>
</g>
<!-- Node0&#45;&gt;Node3 -->
<g id="edge3" class="edge">
<title>Node0&#45;&gt;Node3</title>
<path fill="none" stroke="midnightblue" d="M145.19,-70.5C153.57,-70.5 162.22,-70.5 170.9,-70.5"/>
<polygon fill="midnightblue" stroke="midnightblue" points="145.1,-67 135.1,-70.5 145.1,-74 145.1,-67"/>
</g>
<!-- Node5 -->
<g id="node6" class="node">
<title>Node5</title>
<g id="a_node6"><a xlink:href="classmlir_1_1tracing_1_1BreakpointManagerBase.html" target="_top" xlink:title="CRTP base class for BreakpointManager implementations.">
<polygon fill="none" stroke="black" points="208,-0.5 208,-30.5 352,-30.5 352,-0.5 208,-0.5"/>
<text text-anchor="start" x="216" y="-18.5" font-family="Helvetica,sans-Serif" font-size="10.00">mlir::tracing::Breakpoint</text>
<text text-anchor="middle" x="280" y="-7.5" font-family="Helvetica,sans-Serif" font-size="10.00">ManagerBase&lt; Derived &gt;</text>
</a>
</g>
</g>
<!-- Node0&#45;&gt;Node5 -->
<g id="edge5" class="edge">
<title>Node0&#45;&gt;Node5</title>
<path fill="none" stroke="midnightblue" d="M127.52,-52.6C141.72,-48.47 156.86,-44.2 171,-40.5 184.03,-37.09 198.01,-33.67 211.45,-30.51"/>
<polygon fill="midnightblue" stroke="midnightblue" points="126.48,-49.26 117.87,-55.43 128.45,-55.97 126.48,-49.26"/>
</g>
<!-- Node2 -->
<g id="node3" class="node">
<title>Node2</title>
<g id="a_node3"><a xlink:href="classmlir_1_1tracing_1_1TagBreakpointManager.html" target="_top" xlink:title="This is a manager to store a collection of breakpoints that trigger on tags.">
<polygon fill="none" stroke="black" points="425,-110.5 425,-140.5 577,-140.5 577,-110.5 425,-110.5"/>
<text text-anchor="start" x="433" y="-128.5" font-family="Helvetica,sans-Serif" font-size="10.00">mlir::tracing::TagBreakpoint</text>
<text text-anchor="middle" x="501" y="-117.5" font-family="Helvetica,sans-Serif" font-size="10.00">Manager</text>
</a>
</g>
</g>
<!-- Node1&#45;&gt;Node2 -->
<g id="edge2" class="edge">
<title>Node1&#45;&gt;Node2</title>
<path fill="none" stroke="midnightblue" d="M399.39,-125.5C408.04,-125.5 416.62,-125.5 424.9,-125.5"/>
<polygon fill="midnightblue" stroke="midnightblue" points="399.22,-122 389.22,-125.5 399.22,-129 399.22,-122"/>
</g>
<!-- Node4 -->
<g id="node5" class="node">
<title>Node4</title>
<g id="a_node5"><a xlink:href="classmlir_1_1tracing_1_1FileLineColLocBreakpointManager.html" target="_top" xlink:title="This breakpoint manager is responsible for matching FileLineColLocBreakpoint.">
<polygon fill="none" stroke="black" points="433.5,-55.5 433.5,-85.5 568.5,-85.5 568.5,-55.5 433.5,-55.5"/>
<text text-anchor="start" x="441.5" y="-73.5" font-family="Helvetica,sans-Serif" font-size="10.00">mlir::tracing::FileLineCol</text>
<text text-anchor="middle" x="501" y="-62.5" font-family="Helvetica,sans-Serif" font-size="10.00">LocBreakpointManager</text>
</a>
</g>
</g>
<!-- Node3&#45;&gt;Node4 -->
<g id="edge4" class="edge">
<title>Node3&#45;&gt;Node4</title>
<path fill="none" stroke="midnightblue" d="M399.46,-70.5C411.1,-70.5 422.6,-70.5 433.43,-70.5"/>
<polygon fill="midnightblue" stroke="midnightblue" points="399.22,-67 389.22,-70.5 399.22,-74 399.22,-67"/>
</g>
</g>
</svg>
