<?xml version="1.0" encoding="UTF-8" standalone="no"?>
<!DOCTYPE svg PUBLIC "-//W3C//DTD SVG 1.1//EN"
 "http://www.w3.org/Graphics/SVG/1.1/DTD/svg11.dtd">
<!-- Generated by graphviz version 2.43.0 (0)
 -->
<!-- Title: Graphical Class Hierarchy Pages: 1 -->
<svg width="283pt" height="396pt"
 viewBox="0.00 0.00 283.00 395.50" xmlns="http://www.w3.org/2000/svg" xmlns:xlink="http://www.w3.org/1999/xlink">
<g id="graph0" class="graph" transform="scale(1 1) rotate(0) translate(4 391.5)">
<title>Graphical Class Hierarchy</title>
<!-- Node2517 -->
<g id="node1" class="node">
<title>Node2517</title>
<g id="a_node1"><a xlink:title=" ">
<polygon fill="none" stroke="#bfbfbf" points="0,-225.5 0,-244.5 84,-244.5 84,-225.5 0,-225.5"/>
<text text-anchor="middle" x="42" y="-232.5" font-family="Helvetica,sans-Serif" font-size="10.00">std::true_type</text>
</a>
</g>
</g>
<!-- Node0 -->
<g id="node2" class="node">
<title>Node0</title>
<g id="a_node2"><a xlink:href="structmlir_1_1detail_1_1is__complex__t_3_01std_1_1complex_3_01T_01_4_01_4.html" target="_top" xlink:title=" ">
<polygon fill="none" stroke="black" points="127.5,-357 127.5,-387 267.5,-387 267.5,-357 127.5,-357"/>
<text text-anchor="start" x="135.5" y="-375" font-family="Helvetica,sans-Serif" font-size="10.00">mlir::detail::is_complex</text>
<text text-anchor="middle" x="197.5" y="-364" font-family="Helvetica,sans-Serif" font-size="10.00">_t&lt; std::complex&lt; T &gt; &gt;</text>
</a>
</g>
</g>
<!-- Node2517&#45;&gt;Node0 -->
<g id="edge1" class="edge">
<title>Node2517&#45;&gt;Node0</title>
<path fill="none" stroke="midnightblue" d="M51.07,-254.01C62.69,-279.14 86.49,-323.14 120,-348 124.58,-351.4 129.66,-354.33 134.96,-356.85"/>
<polygon fill="midnightblue" stroke="midnightblue" points="54.23,-252.51 46.97,-244.79 47.84,-255.35 54.23,-252.51"/>
</g>
<!-- Node2519 -->
<g id="node3" class="node">
<title>Node2519</title>
<g id="a_node3"><a xlink:href="structmlir_1_1detail_1_1is__pair_3_01std_1_1pair_3_01Ts_8_8_8_01_4_01_4.html" target="_top" xlink:title=" ">
<polygon fill="none" stroke="black" points="137.5,-308 137.5,-338 257.5,-338 257.5,-308 137.5,-308"/>
<text text-anchor="start" x="145.5" y="-326" font-family="Helvetica,sans-Serif" font-size="10.00">mlir::detail::is_pair</text>
<text text-anchor="middle" x="197.5" y="-315" font-family="Helvetica,sans-Serif" font-size="10.00">&lt; std::pair&lt; Ts... &gt; &gt;</text>
</a>
</g>
</g>
<!-- Node2517&#45;&gt;Node2519 -->
<g id="edge2" class="edge">
<title>Node2517&#45;&gt;Node2519</title>
<path fill="none" stroke="midnightblue" d="M59.35,-251.88C74.04,-266.2 96.82,-286.37 120,-299 126.11,-302.33 132.75,-305.27 139.49,-307.86"/>
<polygon fill="midnightblue" stroke="midnightblue" points="61.61,-249.2 52.06,-244.62 56.67,-254.16 61.61,-249.2"/>
</g>
<!-- Node2520 -->
<g id="node4" class="node">
<title>Node2520</title>
<g id="a_node4"><a xlink:href="structmlir_1_1detail_1_1is__tuple_3_01std_1_1tuple_3_01Ts_8_8_8_01_4_01_4.html" target="_top" xlink:title=" ">
<polygon fill="none" stroke="black" points="134.5,-259 134.5,-289 260.5,-289 260.5,-259 134.5,-259"/>
<text text-anchor="start" x="142.5" y="-277" font-family="Helvetica,sans-Serif" font-size="10.00">mlir::detail::is_tuple</text>
<text text-anchor="middle" x="197.5" y="-266" font-family="Helvetica,sans-Serif" font-size="10.00">&lt; std::tuple&lt; Ts... &gt; &gt;</text>
</a>
</g>
</g>
<!-- Node2517&#45;&gt;Node2520 -->
<g id="edge3" class="edge">
<title>Node2517&#45;&gt;Node2520</title>
<path fill="none" stroke="midnightblue" d="M90.47,-247.06C105.25,-250.82 121.73,-255 137.21,-258.94"/>
<polygon fill="midnightblue" stroke="midnightblue" points="91.1,-243.61 80.55,-244.54 89.38,-250.4 91.1,-243.61"/>
</g>
<!-- Node2521 -->
<g id="node5" class="node">
<title>Node2521</title>
<g id="a_node5"><a xlink:href="structmlir_1_1query_1_1matcher_1_1has__bound__match_3_01T_00_01std_1_1void__t_3_01decltype_07stdcf2451b5d3c307db1c18067b2733ca2a.html" target="_top" xlink:title=" ">
<polygon fill="none" stroke="black" points="120,-154.5 120,-239.5 275,-239.5 275,-154.5 120,-154.5"/>
<text text-anchor="start" x="128" y="-227.5" font-family="Helvetica,sans-Serif" font-size="10.00">mlir::query::matcher</text>
<text text-anchor="start" x="128" y="-216.5" font-family="Helvetica,sans-Serif" font-size="10.00">::has_bound_match&lt; T,</text>
<text text-anchor="start" x="128" y="-205.5" font-family="Helvetica,sans-Serif" font-size="10.00"> std::void_t&lt; decltype</text>
<text text-anchor="start" x="128" y="-194.5" font-family="Helvetica,sans-Serif" font-size="10.00">(std::declval&lt; T &gt;().match</text>
<text text-anchor="start" x="128" y="-183.5" font-family="Helvetica,sans-Serif" font-size="10.00">(std::declval&lt; Operation *</text>
<text text-anchor="start" x="128" y="-172.5" font-family="Helvetica,sans-Serif" font-size="10.00"> &gt;(), std::declval&lt; SetVector</text>
<text text-anchor="middle" x="197.5" y="-161.5" font-family="Helvetica,sans-Serif" font-size="10.00">&lt; Operation * &gt; &amp; &gt;()))&gt; &gt;</text>
</a>
</g>
</g>
<!-- Node2517&#45;&gt;Node2521 -->
<g id="edge4" class="edge">
<title>Node2517&#45;&gt;Node2521</title>
<path fill="none" stroke="midnightblue" d="M91.6,-222.97C100.58,-220.74 110.17,-218.37 119.76,-216"/>
<polygon fill="midnightblue" stroke="midnightblue" points="90.6,-219.61 81.73,-225.41 92.28,-226.41 90.6,-219.61"/>
</g>
<!-- Node2522 -->
<g id="node6" class="node">
<title>Node2522</title>
<g id="a_node6"><a xlink:href="structmlir_1_1query_1_1matcher_1_1has__simple__match_3_01T_00_01std_1_1void__t_3_01decltype_07st1e0a0503d27a42df5b77d5f51e428c6a.html" target="_top" xlink:title=" ">
<polygon fill="none" stroke="black" points="124.5,-61 124.5,-135 270.5,-135 270.5,-61 124.5,-61"/>
<text text-anchor="start" x="132.5" y="-123" font-family="Helvetica,sans-Serif" font-size="10.00">mlir::query::matcher</text>
<text text-anchor="start" x="132.5" y="-112" font-family="Helvetica,sans-Serif" font-size="10.00">::has_simple_match&lt; T,</text>
<text text-anchor="start" x="132.5" y="-101" font-family="Helvetica,sans-Serif" font-size="10.00"> std::void_t&lt; decltype</text>
<text text-anchor="start" x="132.5" y="-90" font-family="Helvetica,sans-Serif" font-size="10.00">(std::declval&lt; T &gt;().match</text>
<text text-anchor="start" x="132.5" y="-79" font-family="Helvetica,sans-Serif" font-size="10.00">(std::declval&lt; Operation *</text>
<text text-anchor="middle" x="197.5" y="-68" font-family="Helvetica,sans-Serif" font-size="10.00"> &gt;()))&gt; &gt;</text>
</a>
</g>
</g>
<!-- Node2517&#45;&gt;Node2522 -->
<g id="edge5" class="edge">
<title>Node2517&#45;&gt;Node2522</title>
<path fill="none" stroke="midnightblue" d="M55.52,-217.28C69.71,-198.01 94.22,-167.02 120,-145 123.91,-141.66 128.08,-138.4 132.39,-135.25"/>
<polygon fill="midnightblue" stroke="midnightblue" points="52.62,-215.32 49.6,-225.47 58.29,-219.42 52.62,-215.32"/>
</g>
<!-- Node2523 -->
<g id="node7" class="node">
<title>Node2523</title>
<g id="a_node7"><a xlink:href="structmlir_1_1sparse__tensor_1_1detail_1_1is__complex_3_01std_1_1complex_3_01T_01_4_01_4.html" target="_top" xlink:title=" ">
<polygon fill="none" stroke="black" points="132,-0.5 132,-41.5 263,-41.5 263,-0.5 132,-0.5"/>
<text text-anchor="start" x="140" y="-29.5" font-family="Helvetica,sans-Serif" font-size="10.00">mlir::sparse_tensor</text>
<text text-anchor="start" x="140" y="-18.5" font-family="Helvetica,sans-Serif" font-size="10.00">::detail::is_complex</text>
<text text-anchor="middle" x="197.5" y="-7.5" font-family="Helvetica,sans-Serif" font-size="10.00">&lt; std::complex&lt; T &gt; &gt;</text>
</a>
</g>
</g>
<!-- Node2517&#45;&gt;Node2523 -->
<g id="edge6" class="edge">
<title>Node2517&#45;&gt;Node2523</title>
<path fill="none" stroke="midnightblue" d="M46.19,-215.19C53.11,-178.28 72.86,-98.51 120,-52 123.98,-48.07 128.52,-44.63 133.36,-41.6"/>
<polygon fill="midnightblue" stroke="midnightblue" points="42.71,-214.73 44.43,-225.19 49.61,-215.94 42.71,-214.73"/>
</g>
</g>
</svg>
