<?xml version="1.0" encoding="UTF-8" standalone="no"?>
<!DOCTYPE svg PUBLIC "-//W3C//DTD SVG 1.1//EN"
 "http://www.w3.org/Graphics/SVG/1.1/DTD/svg11.dtd">
<!-- Generated by graphviz version 2.43.0 (0)
 -->
<!-- Title: Graphical Class Hierarchy Pages: 1 -->
<svg width="725pt" height="408pt"
 viewBox="0.00 0.00 725.00 408.00" xmlns="http://www.w3.org/2000/svg" xmlns:xlink="http://www.w3.org/1999/xlink">
<g id="graph0" class="graph" transform="scale(1 1) rotate(0) translate(4 404)">
<title>Graphical Class Hierarchy</title>
<!-- Node0 -->
<g id="node1" class="node">
<title>Node0</title>
<g id="a_node1"><a xlink:href="classmlir_1_1python_1_1BaseContextObject.html" target="_top" xlink:title="Base class for all objects that directly or indirectly depend on an MlirContext.">
<polygon fill="none" stroke="black" points="11,-204 11,-234 155,-234 155,-204 11,-204"/>
<text text-anchor="start" x="19" y="-222" font-family="Helvetica,sans-Serif" font-size="10.00">mlir::python::BaseContext</text>
<text text-anchor="middle" x="83" y="-211" font-family="Helvetica,sans-Serif" font-size="10.00">Object</text>
</a>
</g>
</g>
<!-- Node1 -->
<g id="node2" class="node">
<title>Node1</title>
<g id="a_node2"><a xlink:href="classmlir_1_1python_1_1PyAffineExpr.html" target="_top" xlink:title="Wrapper around MlirAffineExpr. Affine expressions are owned by the context.">
<polygon fill="none" stroke="black" points="219.5,-380.5 219.5,-399.5 363.5,-399.5 363.5,-380.5 219.5,-380.5"/>
<text text-anchor="middle" x="291.5" y="-387.5" font-family="Helvetica,sans-Serif" font-size="10.00">mlir::python::PyAffineExpr</text>
</a>
</g>
</g>
<!-- Node0&#45;&gt;Node1 -->
<g id="edge1" class="edge">
<title>Node0&#45;&gt;Node1</title>
<path fill="none" stroke="midnightblue" d="M96.05,-243.7C114.11,-277.96 151.54,-339.29 202,-371 208.12,-374.85 214.9,-377.92 221.9,-380.38"/>
<polygon fill="midnightblue" stroke="midnightblue" points="98.95,-241.69 91.27,-234.39 92.72,-244.89 98.95,-241.69"/>
</g>
<!-- Node2 -->
<g id="node3" class="node">
<title>Node2</title>
<g id="a_node3"><a xlink:href="classmlir_1_1python_1_1PyAffineMap.html" target="_top" xlink:title=" ">
<polygon fill="none" stroke="black" points="220,-342.5 220,-361.5 363,-361.5 363,-342.5 220,-342.5"/>
<text text-anchor="middle" x="291.5" y="-349.5" font-family="Helvetica,sans-Serif" font-size="10.00">mlir::python::PyAffineMap</text>
</a>
</g>
</g>
<!-- Node0&#45;&gt;Node2 -->
<g id="edge2" class="edge">
<title>Node0&#45;&gt;Node2</title>
<path fill="none" stroke="midnightblue" d="M101.34,-242.25C122.22,-268.51 159.81,-310.51 202,-333 209.35,-336.92 217.45,-340.03 225.67,-342.5"/>
<polygon fill="midnightblue" stroke="midnightblue" points="104.06,-240.05 95.16,-234.32 98.54,-244.36 104.06,-240.05"/>
</g>
<!-- Node3 -->
<g id="node4" class="node">
<title>Node3</title>
<g id="a_node4"><a xlink:href="classmlir_1_1python_1_1PyAttribute.html" target="_top" xlink:title="Wrapper around the generic MlirAttribute.">
<polygon fill="none" stroke="black" points="223,-304.5 223,-323.5 360,-323.5 360,-304.5 223,-304.5"/>
<text text-anchor="middle" x="291.5" y="-311.5" font-family="Helvetica,sans-Serif" font-size="10.00">mlir::python::PyAttribute</text>
</a>
</g>
</g>
<!-- Node0&#45;&gt;Node3 -->
<g id="edge3" class="edge">
<title>Node0&#45;&gt;Node3</title>
<path fill="none" stroke="midnightblue" d="M111.04,-240.48C133.99,-257.67 168.45,-281.14 202,-295 211.3,-298.84 221.47,-301.95 231.51,-304.45"/>
<polygon fill="midnightblue" stroke="midnightblue" points="112.91,-237.5 102.83,-234.23 108.67,-243.07 112.91,-237.5"/>
</g>
<!-- Node5 -->
<g id="node6" class="node">
<title>Node5</title>
<g id="a_node6"><a xlink:href="classmlir_1_1python_1_1PyDialectDescriptor.html" target="_top" xlink:title="Wrapper around an MlirDialect.">
<polygon fill="none" stroke="black" points="202,-266.5 202,-285.5 381,-285.5 381,-266.5 202,-266.5"/>
<text text-anchor="middle" x="291.5" y="-273.5" font-family="Helvetica,sans-Serif" font-size="10.00">mlir::python::PyDialectDescriptor</text>
</a>
</g>
</g>
<!-- Node0&#45;&gt;Node5 -->
<g id="edge5" class="edge">
<title>Node0&#45;&gt;Node5</title>
<path fill="none" stroke="midnightblue" d="M136.79,-237.25C157.05,-243.92 180.47,-251.24 202,-257 214.75,-260.41 228.66,-263.63 241.6,-266.42"/>
<polygon fill="midnightblue" stroke="midnightblue" points="137.72,-233.87 127.12,-234.03 135.51,-240.51 137.72,-233.87"/>
</g>
<!-- Node6 -->
<g id="node7" class="node">
<title>Node6</title>
<g id="a_node7"><a xlink:href="classmlir_1_1python_1_1PyDialects.html" target="_top" xlink:title="User&#45;level object for accessing dialects with dotted syntax such as: ctx.dialect.std.">
<polygon fill="none" stroke="black" points="224.5,-228.5 224.5,-247.5 358.5,-247.5 358.5,-228.5 224.5,-228.5"/>
<text text-anchor="middle" x="291.5" y="-235.5" font-family="Helvetica,sans-Serif" font-size="10.00">mlir::python::PyDialects</text>
</a>
</g>
</g>
<!-- Node0&#45;&gt;Node6 -->
<g id="edge6" class="edge">
<title>Node0&#45;&gt;Node6</title>
<path fill="none" stroke="midnightblue" d="M165.17,-226.47C184.73,-228.27 205.38,-230.17 224.17,-231.9"/>
<polygon fill="midnightblue" stroke="midnightblue" points="165.34,-222.97 155.07,-225.54 164.7,-229.94 165.34,-222.97"/>
</g>
<!-- Node7 -->
<g id="node8" class="node">
<title>Node7</title>
<g id="a_node8"><a xlink:href="classmlir_1_1python_1_1PyIntegerSet.html" target="_top" xlink:title=" ">
<polygon fill="none" stroke="black" points="219.5,-190.5 219.5,-209.5 363.5,-209.5 363.5,-190.5 219.5,-190.5"/>
<text text-anchor="middle" x="291.5" y="-197.5" font-family="Helvetica,sans-Serif" font-size="10.00">mlir::python::PyIntegerSet</text>
</a>
</g>
</g>
<!-- Node0&#45;&gt;Node7 -->
<g id="edge7" class="edge">
<title>Node0&#45;&gt;Node7</title>
<path fill="none" stroke="midnightblue" d="M165.43,-211.51C183.23,-209.87 201.94,-208.15 219.3,-206.55"/>
<polygon fill="midnightblue" stroke="midnightblue" points="164.7,-208.06 155.07,-212.46 165.34,-215.03 164.7,-208.06"/>
</g>
<!-- Node8 -->
<g id="node9" class="node">
<title>Node8</title>
<g id="a_node9"><a xlink:href="classmlir_1_1python_1_1PyLocation.html" target="_top" xlink:title="Wrapper around an MlirLocation.">
<polygon fill="none" stroke="black" points="224,-152.5 224,-171.5 359,-171.5 359,-152.5 224,-152.5"/>
<text text-anchor="middle" x="291.5" y="-159.5" font-family="Helvetica,sans-Serif" font-size="10.00">mlir::python::PyLocation</text>
</a>
</g>
</g>
<!-- Node0&#45;&gt;Node8 -->
<g id="edge8" class="edge">
<title>Node0&#45;&gt;Node8</title>
<path fill="none" stroke="midnightblue" d="M136.79,-200.75C157.05,-194.08 180.47,-186.76 202,-181 214.75,-177.59 228.66,-174.37 241.6,-171.58"/>
<polygon fill="midnightblue" stroke="midnightblue" points="135.51,-197.49 127.12,-203.97 137.72,-204.13 135.51,-197.49"/>
</g>
<!-- Node9 -->
<g id="node10" class="node">
<title>Node9</title>
<g id="a_node10"><a xlink:href="classmlir_1_1python_1_1PyModule.html" target="_top" xlink:title=" ">
<polygon fill="none" stroke="black" points="226.5,-114.5 226.5,-133.5 356.5,-133.5 356.5,-114.5 226.5,-114.5"/>
<text text-anchor="middle" x="291.5" y="-121.5" font-family="Helvetica,sans-Serif" font-size="10.00">mlir::python::PyModule</text>
</a>
</g>
</g>
<!-- Node0&#45;&gt;Node9 -->
<g id="edge9" class="edge">
<title>Node0&#45;&gt;Node9</title>
<path fill="none" stroke="midnightblue" d="M111.04,-197.52C133.99,-180.33 168.45,-156.86 202,-143 211.3,-139.16 221.47,-136.05 231.51,-133.55"/>
<polygon fill="midnightblue" stroke="midnightblue" points="108.67,-194.93 102.83,-203.77 112.91,-200.5 108.67,-194.93"/>
</g>
<!-- Node10 -->
<g id="node11" class="node">
<title>Node10</title>
<g id="a_node11"><a xlink:href="classmlir_1_1python_1_1PyOperation.html" target="_top" xlink:title=" ">
<polygon fill="none" stroke="black" points="220.5,-38.5 220.5,-57.5 362.5,-57.5 362.5,-38.5 220.5,-38.5"/>
<text text-anchor="middle" x="291.5" y="-45.5" font-family="Helvetica,sans-Serif" font-size="10.00">mlir::python::PyOperation</text>
</a>
</g>
</g>
<!-- Node0&#45;&gt;Node10 -->
<g id="edge10" class="edge">
<title>Node0&#45;&gt;Node10</title>
<path fill="none" stroke="midnightblue" d="M96.05,-194.3C114.11,-160.04 151.54,-98.71 202,-67 208.12,-63.15 214.9,-60.08 221.9,-57.62"/>
<polygon fill="midnightblue" stroke="midnightblue" points="92.72,-193.11 91.27,-203.61 98.95,-196.31 92.72,-193.11"/>
</g>
<!-- Node11 -->
<g id="node12" class="node">
<title>Node11</title>
<g id="a_node12"><a xlink:href="classmlir_1_1python_1_1PyType.html" target="_top" xlink:title="Wrapper around the generic MlirType.">
<polygon fill="none" stroke="black" points="233.5,-76.5 233.5,-95.5 349.5,-95.5 349.5,-76.5 233.5,-76.5"/>
<text text-anchor="middle" x="291.5" y="-83.5" font-family="Helvetica,sans-Serif" font-size="10.00">mlir::python::PyType</text>
</a>
</g>
</g>
<!-- Node0&#45;&gt;Node11 -->
<g id="edge11" class="edge">
<title>Node0&#45;&gt;Node11</title>
<path fill="none" stroke="midnightblue" d="M101.34,-195.75C122.22,-169.49 159.81,-127.49 202,-105 211.57,-99.9 222.41,-96.17 233.14,-93.44"/>
<polygon fill="midnightblue" stroke="midnightblue" points="98.54,-193.64 95.16,-203.68 104.06,-197.95 98.54,-193.64"/>
</g>
<!-- Node4 -->
<g id="node5" class="node">
<title>Node4</title>
<g id="a_node5"><a xlink:href="classmlir_1_1python_1_1PyConcreteAttribute.html" target="_top" xlink:title="CRTP base classes for Python attributes that subclass Attribute and should be castable from it (i....">
<polygon fill="none" stroke="black" points="424,-293.5 424,-334.5 561,-334.5 561,-293.5 424,-293.5"/>
<text text-anchor="start" x="432" y="-322.5" font-family="Helvetica,sans-Serif" font-size="10.00">mlir::python::PyConcrete</text>
<text text-anchor="start" x="432" y="-311.5" font-family="Helvetica,sans-Serif" font-size="10.00">Attribute&lt; DerivedTy,</text>
<text text-anchor="middle" x="492.5" y="-300.5" font-family="Helvetica,sans-Serif" font-size="10.00"> BaseTy &gt;</text>
</a>
</g>
</g>
<!-- Node3&#45;&gt;Node4 -->
<g id="edge4" class="edge">
<title>Node3&#45;&gt;Node4</title>
<path fill="none" stroke="midnightblue" d="M370.39,-314C387.99,-314 406.55,-314 423.7,-314"/>
<polygon fill="midnightblue" stroke="midnightblue" points="370.15,-310.5 360.15,-314 370.15,-317.5 370.15,-310.5"/>
</g>
<!-- Node12 -->
<g id="node13" class="node">
<title>Node12</title>
<g id="a_node13"><a xlink:href="classmlir_1_1python_1_1PyConcreteType.html" target="_top" xlink:title=" ">
<polygon fill="none" stroke="black" points="424,-95 424,-125 561,-125 561,-95 424,-95"/>
<text text-anchor="start" x="432" y="-113" font-family="Helvetica,sans-Serif" font-size="10.00">mlir::python::PyConcrete</text>
<text text-anchor="middle" x="492.5" y="-102" font-family="Helvetica,sans-Serif" font-size="10.00">Type&lt; PyShapedType &gt;</text>
</a>
</g>
</g>
<!-- Node11&#45;&gt;Node12 -->
<g id="edge12" class="edge">
<title>Node11&#45;&gt;Node12</title>
<path fill="none" stroke="midnightblue" d="M359.52,-94.08C380.26,-96.58 403.12,-99.34 423.9,-101.85"/>
<polygon fill="midnightblue" stroke="midnightblue" points="359.87,-90.6 349.53,-92.88 359.03,-97.55 359.87,-90.6"/>
</g>
<!-- Node14 -->
<g id="node15" class="node">
<title>Node14</title>
<g id="a_node15"><a xlink:href="classmlir_1_1python_1_1PyConcreteType.html" target="_top" xlink:title="CRTP base classes for Python types that subclass Type and should be castable from it (i....">
<polygon fill="none" stroke="black" points="417,-46 417,-76 568,-76 568,-46 417,-46"/>
<text text-anchor="start" x="425" y="-64" font-family="Helvetica,sans-Serif" font-size="10.00">mlir::python::PyConcrete</text>
<text text-anchor="middle" x="492.5" y="-53" font-family="Helvetica,sans-Serif" font-size="10.00">Type&lt; DerivedTy, BaseTy &gt;</text>
</a>
</g>
</g>
<!-- Node11&#45;&gt;Node14 -->
<g id="edge14" class="edge">
<title>Node11&#45;&gt;Node14</title>
<path fill="none" stroke="midnightblue" d="M359.53,-77.58C377.88,-75.27 397.88,-72.76 416.64,-70.4"/>
<polygon fill="midnightblue" stroke="midnightblue" points="359.01,-74.12 349.53,-78.84 359.88,-81.06 359.01,-74.12"/>
</g>
<!-- Node13 -->
<g id="node14" class="node">
<title>Node13</title>
<g id="a_node14"><a xlink:href="classmlir_1_1PyShapedType.html" target="_top" xlink:title="Shaped Type Interface &#45; ShapedType.">
<polygon fill="none" stroke="black" points="604,-100.5 604,-119.5 717,-119.5 717,-100.5 604,-100.5"/>
<text text-anchor="middle" x="660.5" y="-107.5" font-family="Helvetica,sans-Serif" font-size="10.00">mlir::PyShapedType</text>
</a>
</g>
</g>
<!-- Node12&#45;&gt;Node13 -->
<g id="edge13" class="edge">
<title>Node12&#45;&gt;Node13</title>
<path fill="none" stroke="midnightblue" d="M571.14,-110C582.22,-110 593.42,-110 603.96,-110"/>
<polygon fill="midnightblue" stroke="midnightblue" points="571.02,-106.5 561.02,-110 571.02,-113.5 571.02,-106.5"/>
</g>
<!-- Node1854 -->
<g id="node16" class="node">
<title>Node1854</title>
<g id="a_node16"><a xlink:href="classmlir_1_1python_1_1PyOperationBase.html" target="_top" xlink:title="Base class for PyOperation and PyOpView which exposes the primary, user visible methods for manipulat...">
<polygon fill="none" stroke="black" points="0,-19.5 0,-38.5 166,-38.5 166,-19.5 0,-19.5"/>
<text text-anchor="middle" x="83" y="-26.5" font-family="Helvetica,sans-Serif" font-size="10.00">mlir::python::PyOperationBase</text>
</a>
</g>
</g>
<!-- Node1854&#45;&gt;Node10 -->
<g id="edge16" class="edge">
<title>Node1854&#45;&gt;Node10</title>
<path fill="none" stroke="midnightblue" d="M176.34,-37.5C191.08,-38.85 206.11,-40.24 220.22,-41.53"/>
<polygon fill="midnightblue" stroke="midnightblue" points="176.49,-33.99 166.21,-36.56 175.84,-40.97 176.49,-33.99"/>
</g>
<!-- Node1855 -->
<g id="node17" class="node">
<title>Node1855</title>
<g id="a_node17"><a xlink:href="classmlir_1_1python_1_1PyOpView.html" target="_top" xlink:title="A PyOpView is equivalent to the C++ &quot;Op&quot; wrappers: these are the basis for providing more instance&#45;sp...">
<polygon fill="none" stroke="black" points="226,-0.5 226,-19.5 357,-19.5 357,-0.5 226,-0.5"/>
<text text-anchor="middle" x="291.5" y="-7.5" font-family="Helvetica,sans-Serif" font-size="10.00">mlir::python::PyOpView</text>
</a>
</g>
</g>
<!-- Node1854&#45;&gt;Node1855 -->
<g id="edge15" class="edge">
<title>Node1854&#45;&gt;Node1855</title>
<path fill="none" stroke="midnightblue" d="M176.49,-20.49C193.12,-18.96 210.12,-17.4 225.75,-15.96"/>
<polygon fill="midnightblue" stroke="midnightblue" points="175.84,-17.03 166.21,-21.44 176.49,-24.01 175.84,-17.03"/>
</g>
</g>
</svg>
