<?xml version="1.0" encoding="UTF-8" standalone="no"?>
<!DOCTYPE svg PUBLIC "-//W3C//DTD SVG 1.1//EN"
 "http://www.w3.org/Graphics/SVG/1.1/DTD/svg11.dtd">
<!-- Generated by graphviz version 2.43.0 (0)
 -->
<!-- Title: Graphical Class Hierarchy Pages: 1 -->
<svg width="354pt" height="226pt"
 viewBox="0.00 0.00 354.00 226.00" xmlns="http://www.w3.org/2000/svg" xmlns:xlink="http://www.w3.org/1999/xlink">
<g id="graph0" class="graph" transform="scale(1 1) rotate(0) translate(4 222)">
<title>Graphical Class Hierarchy</title>
<!-- Node0 -->
<g id="Node000000" class="node">
<title>Node0</title>
<g id="a_Node000000"><a xlink:href="classmlir_1_1OpTrait_1_1TraitBase.html" target="_top" xlink:title="Helper class for implementing traits.">
<polygon fill="white" stroke="#666666" points="155,-123.5 0,-123.5 0,-93.5 155,-93.5 155,-123.5"/>
<text text-anchor="start" x="8" y="-111.5" font-family="Helvetica,sans-Serif" font-size="10.00">mlir::OpTrait::TraitBase</text>
<text text-anchor="middle" x="77.5" y="-100.5" font-family="Helvetica,sans-Serif" font-size="10.00">&lt; ConcreteType, TraitType &gt;</text>
</a>
</g>
</g>
<!-- Node1 -->
<g id="Node000001" class="node">
<title>Node1</title>
<g id="a_Node000001"><a xlink:href="structmlir_1_1OpTrait_1_1detail_1_1MultiOperandTraitBase.html" target="_top" xlink:title="Utility trait base that provides accessors for derived traits that have multiple operands.">
<polygon fill="white" stroke="#666666" points="346,-218 191,-218 191,-177 346,-177 346,-218"/>
<text text-anchor="start" x="199" y="-206" font-family="Helvetica,sans-Serif" font-size="10.00">mlir::OpTrait::detail</text>
<text text-anchor="start" x="199" y="-195" font-family="Helvetica,sans-Serif" font-size="10.00">::MultiOperandTraitBase</text>
<text text-anchor="middle" x="268.5" y="-184" font-family="Helvetica,sans-Serif" font-size="10.00">&lt; ConcreteType, TraitType &gt;</text>
</a>
</g>
</g>
<!-- Node0&#45;&gt;Node1 -->
<g id="edge897_Node000000_Node000001" class="edge">
<title>Node0&#45;&gt;Node1</title>
<g id="a_edge897_Node000000_Node000001"><a xlink:title=" ">
<path fill="none" stroke="#63b8ff" d="M113.33,-128.56C135.26,-140.82 164.37,-156.41 191,-168.5 197.34,-171.38 204.05,-174.22 210.77,-176.92"/>
<polygon fill="#63b8ff" stroke="#63b8ff" points="114.82,-125.38 104.39,-123.53 111.39,-131.48 114.82,-125.38"/>
</a>
</g>
</g>
<!-- Node2 -->
<g id="Node000002" class="node">
<title>Node2</title>
<g id="a_Node000002"><a xlink:href="structmlir_1_1OpTrait_1_1detail_1_1MultiRegionTraitBase.html" target="_top" xlink:title="Utility trait base that provides accessors for derived traits that have multiple regions.">
<polygon fill="white" stroke="#666666" points="346,-159 191,-159 191,-118 346,-118 346,-159"/>
<text text-anchor="start" x="199" y="-147" font-family="Helvetica,sans-Serif" font-size="10.00">mlir::OpTrait::detail</text>
<text text-anchor="start" x="199" y="-136" font-family="Helvetica,sans-Serif" font-size="10.00">::MultiRegionTraitBase</text>
<text text-anchor="middle" x="268.5" y="-125" font-family="Helvetica,sans-Serif" font-size="10.00">&lt; ConcreteType, TraitType &gt;</text>
</a>
</g>
</g>
<!-- Node0&#45;&gt;Node2 -->
<g id="edge898_Node000000_Node000002" class="edge">
<title>Node0&#45;&gt;Node2</title>
<g id="a_edge898_Node000000_Node000002"><a xlink:title=" ">
<path fill="none" stroke="#63b8ff" d="M165.1,-122.25C173.67,-123.61 182.33,-124.98 190.79,-126.32"/>
<polygon fill="#63b8ff" stroke="#63b8ff" points="165.53,-118.77 155.1,-120.66 164.43,-125.68 165.53,-118.77"/>
</a>
</g>
</g>
<!-- Node3 -->
<g id="Node000003" class="node">
<title>Node3</title>
<g id="a_Node000003"><a xlink:href="structmlir_1_1OpTrait_1_1detail_1_1MultiResultTraitBase.html" target="_top" xlink:title="Utility trait base that provides accessors for derived traits that have multiple results.">
<polygon fill="white" stroke="#666666" points="346,-100 191,-100 191,-59 346,-59 346,-100"/>
<text text-anchor="start" x="199" y="-88" font-family="Helvetica,sans-Serif" font-size="10.00">mlir::OpTrait::detail</text>
<text text-anchor="start" x="199" y="-77" font-family="Helvetica,sans-Serif" font-size="10.00">::MultiResultTraitBase</text>
<text text-anchor="middle" x="268.5" y="-66" font-family="Helvetica,sans-Serif" font-size="10.00">&lt; ConcreteType, TraitType &gt;</text>
</a>
</g>
</g>
<!-- Node0&#45;&gt;Node3 -->
<g id="edge899_Node000000_Node000003" class="edge">
<title>Node0&#45;&gt;Node3</title>
<g id="a_edge899_Node000000_Node000003"><a xlink:title=" ">
<path fill="none" stroke="#63b8ff" d="M165.1,-95.21C173.67,-93.9 182.33,-92.57 190.79,-91.27"/>
<polygon fill="#63b8ff" stroke="#63b8ff" points="164.45,-91.77 155.1,-96.75 165.52,-98.69 164.45,-91.77"/>
</a>
</g>
</g>
<!-- Node4 -->
<g id="Node000004" class="node">
<title>Node4</title>
<g id="a_Node000004"><a xlink:href="structmlir_1_1OpTrait_1_1detail_1_1MultiSuccessorTraitBase.html" target="_top" xlink:title="Utility trait base that provides accessors for derived traits that have multiple successors.">
<polygon fill="white" stroke="#666666" points="346,-41 191,-41 191,0 346,0 346,-41"/>
<text text-anchor="start" x="199" y="-29" font-family="Helvetica,sans-Serif" font-size="10.00">mlir::OpTrait::detail</text>
<text text-anchor="start" x="199" y="-18" font-family="Helvetica,sans-Serif" font-size="10.00">::MultiSuccessorTraitBase</text>
<text text-anchor="middle" x="268.5" y="-7" font-family="Helvetica,sans-Serif" font-size="10.00">&lt; ConcreteType, TraitType &gt;</text>
</a>
</g>
</g>
<!-- Node0&#45;&gt;Node4 -->
<g id="edge900_Node000000_Node000004" class="edge">
<title>Node0&#45;&gt;Node4</title>
<g id="a_edge900_Node000000_Node000004"><a xlink:title=" ">
<path fill="none" stroke="#63b8ff" d="M114.77,-88.6C136.59,-76.93 165.07,-62.23 191,-50.5 198.02,-47.32 205.48,-44.15 212.89,-41.13"/>
<polygon fill="#63b8ff" stroke="#63b8ff" points="113,-85.58 105.85,-93.4 116.32,-91.74 113,-85.58"/>
</a>
</g>
</g>
</g>
</svg>
