<?xml version="1.0" encoding="UTF-8" standalone="no"?>
<!DOCTYPE svg PUBLIC "-//W3C//DTD SVG 1.1//EN"
 "http://www.w3.org/Graphics/SVG/1.1/DTD/svg11.dtd">
<!-- Generated by graphviz version 2.43.0 (0)
 -->
<!-- Title: Graphical Class Hierarchy Pages: 1 -->
<svg width="311pt" height="66pt"
 viewBox="0.00 0.00 311.00 66.00" xmlns="http://www.w3.org/2000/svg" xmlns:xlink="http://www.w3.org/1999/xlink">
<g id="graph0" class="graph" transform="scale(1 1) rotate(0) translate(4 62)">
<title>Graphical Class Hierarchy</title>
<!-- Node0 -->
<g id="node1" class="node">
<title>Node0</title>
<g id="a_node1"><a xlink:href="classmlir_1_1tblgen_1_1AttrOrTypeDef.html" target="_top" xlink:title="Wrapper class that contains a TableGen AttrOrTypeDef&#39;s record and provides helper methods for accessi...">
<polygon fill="none" stroke="black" points="0,-19.5 0,-38.5 148,-38.5 148,-19.5 0,-19.5"/>
<text text-anchor="middle" x="74" y="-26.5" font-family="Helvetica,sans-Serif" font-size="10.00">mlir::tblgen::AttrOrTypeDef</text>
</a>
</g>
</g>
<!-- Node1 -->
<g id="node2" class="node">
<title>Node1</title>
<g id="a_node2"><a xlink:href="classmlir_1_1tblgen_1_1AttrDef.html" target="_top" xlink:title="This class represents a wrapper around a tablegen AttrDef record.">
<polygon fill="none" stroke="black" points="186.5,-38.5 186.5,-57.5 300.5,-57.5 300.5,-38.5 186.5,-38.5"/>
<text text-anchor="middle" x="243.5" y="-45.5" font-family="Helvetica,sans-Serif" font-size="10.00">mlir::tblgen::AttrDef</text>
</a>
</g>
</g>
<!-- Node0&#45;&gt;Node1 -->
<g id="edge1" class="edge">
<title>Node0&#45;&gt;Node1</title>
<path fill="none" stroke="midnightblue" d="M158.67,-38.49C168.09,-39.56 177.52,-40.63 186.47,-41.64"/>
<polygon fill="midnightblue" stroke="midnightblue" points="158.8,-34.98 148.47,-37.33 158.01,-41.94 158.8,-34.98"/>
</g>
<!-- Node2 -->
<g id="node3" class="node">
<title>Node2</title>
<g id="a_node3"><a xlink:href="classmlir_1_1tblgen_1_1TypeDef.html" target="_top" xlink:title="This class represents a wrapper around a tablegen TypeDef record.">
<polygon fill="none" stroke="black" points="184,-0.5 184,-19.5 303,-19.5 303,-0.5 184,-0.5"/>
<text text-anchor="middle" x="243.5" y="-7.5" font-family="Helvetica,sans-Serif" font-size="10.00">mlir::tblgen::TypeDef</text>
</a>
</g>
</g>
<!-- Node0&#45;&gt;Node2 -->
<g id="edge2" class="edge">
<title>Node0&#45;&gt;Node2</title>
<path fill="none" stroke="midnightblue" d="M158.53,-19.53C167.11,-18.55 175.7,-17.58 183.93,-16.64"/>
<polygon fill="midnightblue" stroke="midnightblue" points="158.01,-16.06 148.47,-20.67 158.8,-23.02 158.01,-16.06"/>
</g>
</g>
</svg>
