<?xml version="1.0" encoding="UTF-8" standalone="no"?>
<!DOCTYPE svg PUBLIC "-//W3C//DTD SVG 1.1//EN"
 "http://www.w3.org/Graphics/SVG/1.1/DTD/svg11.dtd">
<!-- Generated by graphviz version 2.43.0 (0)
 -->
<!-- Title: Graphical Class Hierarchy Pages: 1 -->
<svg width="1023pt" height="38pt"
 viewBox="0.00 0.00 1023.00 38.00" xmlns="http://www.w3.org/2000/svg" xmlns:xlink="http://www.w3.org/1999/xlink">
<g id="graph0" class="graph" transform="scale(1 1) rotate(0) translate(4 34)">
<title>Graphical Class Hierarchy</title>
<!-- Node0 -->
<g id="Node000000" class="node">
<title>Node0</title>
<g id="a_Node000000"><a xlink:href="classmlir_1_1presburger_1_1IntegerRelation.html" target="_top" xlink:title="An IntegerRelation represents the set of points from a PresburgerSpace that satisfy a list of affine ...">
<polygon fill="white" stroke="#666666" points="135,-30 0,-30 0,0 135,0 135,-30"/>
<text text-anchor="start" x="8" y="-18" font-family="Helvetica,sans-Serif" font-size="10.00">mlir::presburger::Integer</text>
<text text-anchor="middle" x="67.5" y="-7" font-family="Helvetica,sans-Serif" font-size="10.00">Relation</text>
</a>
</g>
</g>
<!-- Node1 -->
<g id="Node000001" class="node">
<title>Node1</title>
<g id="a_Node000001"><a xlink:href="classmlir_1_1presburger_1_1IntegerPolyhedron.html" target="_top" xlink:title="An IntegerPolyhedron represents the set of points from a PresburgerSpace that satisfy a list of affin...">
<polygon fill="white" stroke="#666666" points="306,-30 171,-30 171,0 306,0 306,-30"/>
<text text-anchor="start" x="179" y="-18" font-family="Helvetica,sans-Serif" font-size="10.00">mlir::presburger::Integer</text>
<text text-anchor="middle" x="238.5" y="-7" font-family="Helvetica,sans-Serif" font-size="10.00">Polyhedron</text>
</a>
</g>
</g>
<!-- Node0&#45;&gt;Node1 -->
<g id="edge1267_Node000000_Node000001" class="edge">
<title>Node0&#45;&gt;Node1</title>
<g id="a_edge1267_Node000000_Node000001"><a xlink:title=" ">
<path fill="none" stroke="#63b8ff" d="M145.55,-15C154.02,-15 162.59,-15 170.92,-15"/>
<polygon fill="#63b8ff" stroke="#63b8ff" points="145.29,-11.5 135.29,-15 145.29,-18.5 145.29,-11.5"/>
</a>
</g>
</g>
<!-- Node2 -->
<g id="Node000002" class="node">
<title>Node2</title>
<g id="a_Node000002"><a xlink:href="classmlir_1_1FlatLinearConstraints.html" target="_top" xlink:title="FlatLinearConstraints is an extension of IntegerPolyhedron.">
<polygon fill="white" stroke="#666666" points="488,-24.5 342,-24.5 342,-5.5 488,-5.5 488,-24.5"/>
<text text-anchor="middle" x="415" y="-12.5" font-family="Helvetica,sans-Serif" font-size="10.00">mlir::FlatLinearConstraints</text>
</a>
</g>
</g>
<!-- Node1&#45;&gt;Node2 -->
<g id="edge1268_Node000001_Node000002" class="edge">
<title>Node1&#45;&gt;Node2</title>
<g id="a_edge1268_Node000001_Node000002"><a xlink:title=" ">
<path fill="none" stroke="#63b8ff" d="M316.66,-15C325.08,-15 333.63,-15 341.99,-15"/>
<polygon fill="#63b8ff" stroke="#63b8ff" points="316.47,-11.5 306.47,-15 316.47,-18.5 316.47,-11.5"/>
</a>
</g>
</g>
<!-- Node3 -->
<g id="Node000003" class="node">
<title>Node3</title>
<g id="a_Node000003"><a xlink:href="classmlir_1_1FlatLinearValueConstraints.html" target="_top" xlink:title="FlatLinearValueConstraints represents an extension of FlatLinearConstraints where each non&#45;local vari...">
<polygon fill="white" stroke="#666666" points="697,-24.5 524,-24.5 524,-5.5 697,-5.5 697,-24.5"/>
<text text-anchor="middle" x="610.5" y="-12.5" font-family="Helvetica,sans-Serif" font-size="10.00">mlir::FlatLinearValueConstraints</text>
</a>
</g>
</g>
<!-- Node2&#45;&gt;Node3 -->
<g id="edge1269_Node000002_Node000003" class="edge">
<title>Node2&#45;&gt;Node3</title>
<g id="a_edge1269_Node000002_Node000003"><a xlink:title=" ">
<path fill="none" stroke="#63b8ff" d="M498.32,-15C506.82,-15 515.46,-15 523.99,-15"/>
<polygon fill="#63b8ff" stroke="#63b8ff" points="498.05,-11.5 488.05,-15 498.05,-18.5 498.05,-11.5"/>
</a>
</g>
</g>
<!-- Node4 -->
<g id="Node000004" class="node">
<title>Node4</title>
<g id="a_Node000004"><a xlink:href="classmlir_1_1affine_1_1FlatAffineValueConstraints.html" target="_top" xlink:title="FlatAffineValueConstraints is an extension of FlatLinearValueConstraints with helper functions for Af...">
<polygon fill="white" stroke="#666666" points="856,-30 733,-30 733,0 856,0 856,-30"/>
<text text-anchor="start" x="741" y="-18" font-family="Helvetica,sans-Serif" font-size="10.00">mlir::affine::FlatAffine</text>
<text text-anchor="middle" x="794.5" y="-7" font-family="Helvetica,sans-Serif" font-size="10.00">ValueConstraints</text>
</a>
</g>
</g>
<!-- Node3&#45;&gt;Node4 -->
<g id="edge1270_Node000003_Node000004" class="edge">
<title>Node3&#45;&gt;Node4</title>
<g id="a_edge1270_Node000003_Node000004"><a xlink:title=" ">
<path fill="none" stroke="#63b8ff" d="M707.37,-15C716.06,-15 724.68,-15 732.93,-15"/>
<polygon fill="#63b8ff" stroke="#63b8ff" points="707.17,-11.5 697.17,-15 707.17,-18.5 707.17,-11.5"/>
</a>
</g>
</g>
<!-- Node5 -->
<g id="Node000005" class="node">
<title>Node5</title>
<g id="a_Node000005"><a xlink:href="classmlir_1_1affine_1_1FlatAffineRelation.html" target="_top" xlink:title="A FlatAffineRelation represents a set of ordered pairs (domain &#45;&gt; range) where &quot;domain&quot; and &quot;range&quot; a...">
<polygon fill="white" stroke="#666666" points="1015,-30 892,-30 892,0 1015,0 1015,-30"/>
<text text-anchor="start" x="900" y="-18" font-family="Helvetica,sans-Serif" font-size="10.00">mlir::affine::FlatAffine</text>
<text text-anchor="middle" x="953.5" y="-7" font-family="Helvetica,sans-Serif" font-size="10.00">Relation</text>
</a>
</g>
</g>
<!-- Node4&#45;&gt;Node5 -->
<g id="edge1271_Node000004_Node000005" class="edge">
<title>Node4&#45;&gt;Node5</title>
<g id="a_edge1271_Node000004_Node000005"><a xlink:title=" ">
<path fill="none" stroke="#63b8ff" d="M866.21,-15C874.81,-15 883.53,-15 891.96,-15"/>
<polygon fill="#63b8ff" stroke="#63b8ff" points="866.2,-11.5 856.2,-15 866.2,-18.5 866.2,-11.5"/>
</a>
</g>
</g>
</g>
</svg>
