<?xml version="1.0" encoding="UTF-8" standalone="no"?>
<!DOCTYPE svg PUBLIC "-//W3C//DTD SVG 1.1//EN"
 "http://www.w3.org/Graphics/SVG/1.1/DTD/svg11.dtd">
<!-- Generated by graphviz version 2.43.0 (0)
 -->
<!-- Title: Graphical Class Hierarchy Pages: 1 -->
<svg width="301pt" height="101pt"
 viewBox="0.00 0.00 301.00 101.00" xmlns="http://www.w3.org/2000/svg" xmlns:xlink="http://www.w3.org/1999/xlink">
<g id="graph0" class="graph" transform="scale(1 1) rotate(0) translate(4 97)">
<title>Graphical Class Hierarchy</title>
<!-- Node0 -->
<g id="Node000000" class="node">
<title>Node0</title>
<g id="a_Node000000"><a xlink:title=" ">
<polygon fill="#e0e0e0" stroke="#999999" points="102,-56 0,-56 0,-37 102,-37 102,-56"/>
<text text-anchor="middle" x="51" y="-44" font-family="Helvetica,sans-Serif" font-size="10.00">arith::ConstantOp</text>
</a>
</g>
</g>
<!-- Node1 -->
<g id="Node000001" class="node">
<title>Node1</title>
<g id="a_Node000001"><a xlink:href="classmlir_1_1arith_1_1ConstantFloatOp.html" target="_top" xlink:title="Specialization of arith.constant op that returns a floating point value.">
<polygon fill="white" stroke="#666666" points="291.5,-93 139.5,-93 139.5,-74 291.5,-74 291.5,-93"/>
<text text-anchor="middle" x="215.5" y="-81" font-family="Helvetica,sans-Serif" font-size="10.00">mlir::arith::ConstantFloatOp</text>
</a>
</g>
</g>
<!-- Node0&#45;&gt;Node1 -->
<g id="edge1_Node000000_Node000001" class="edge">
<title>Node0&#45;&gt;Node1</title>
<g id="a_edge1_Node000000_Node000001"><a xlink:title=" ">
<path fill="none" stroke="#63b8ff" d="M103.77,-58.29C125.96,-63.34 151.53,-69.16 172.51,-73.94"/>
<polygon fill="#63b8ff" stroke="#63b8ff" points="104.38,-54.84 93.85,-56.03 102.82,-61.66 104.38,-54.84"/>
</a>
</g>
</g>
<!-- Node2 -->
<g id="Node000002" class="node">
<title>Node2</title>
<g id="a_Node000002"><a xlink:href="classmlir_1_1arith_1_1ConstantIndexOp.html" target="_top" xlink:title="Specialization of arith.constant op that returns an integer of index type.">
<polygon fill="white" stroke="#666666" points="293,-56 138,-56 138,-37 293,-37 293,-56"/>
<text text-anchor="middle" x="215.5" y="-44" font-family="Helvetica,sans-Serif" font-size="10.00">mlir::arith::ConstantIndexOp</text>
</a>
</g>
</g>
<!-- Node0&#45;&gt;Node2 -->
<g id="edge2_Node000000_Node000002" class="edge">
<title>Node0&#45;&gt;Node2</title>
<g id="a_edge2_Node000000_Node000002"><a xlink:title=" ">
<path fill="none" stroke="#63b8ff" d="M112.16,-46.5C120.58,-46.5 129.32,-46.5 137.99,-46.5"/>
<polygon fill="#63b8ff" stroke="#63b8ff" points="112.08,-43 102.08,-46.5 112.08,-50 112.08,-43"/>
</a>
</g>
</g>
<!-- Node3 -->
<g id="Node000003" class="node">
<title>Node3</title>
<g id="a_Node000003"><a xlink:href="classmlir_1_1arith_1_1ConstantIntOp.html" target="_top" xlink:title="Specialization of arith.constant op that returns an integer value.">
<polygon fill="white" stroke="#666666" points="285.5,-19 145.5,-19 145.5,0 285.5,0 285.5,-19"/>
<text text-anchor="middle" x="215.5" y="-7" font-family="Helvetica,sans-Serif" font-size="10.00">mlir::arith::ConstantIntOp</text>
</a>
</g>
</g>
<!-- Node0&#45;&gt;Node3 -->
<g id="edge3_Node000000_Node000003" class="edge">
<title>Node0&#45;&gt;Node3</title>
<g id="a_edge3_Node000000_Node000003"><a xlink:title=" ">
<path fill="none" stroke="#63b8ff" d="M103.77,-34.71C125.96,-29.66 151.53,-23.84 172.51,-19.06"/>
<polygon fill="#63b8ff" stroke="#63b8ff" points="102.82,-31.34 93.85,-36.97 104.38,-38.16 102.82,-31.34"/>
</a>
</g>
</g>
</g>
</svg>
