<?xml version="1.0" encoding="UTF-8" standalone="no"?>
<!DOCTYPE svg PUBLIC "-//W3C//DTD SVG 1.1//EN"
 "http://www.w3.org/Graphics/SVG/1.1/DTD/svg11.dtd">
<!-- Generated by graphviz version 2.43.0 (0)
 -->
<!-- Title: Graphical Class Hierarchy Pages: 1 -->
<svg width="356pt" height="146pt"
 viewBox="0.00 0.00 356.00 145.50" xmlns="http://www.w3.org/2000/svg" xmlns:xlink="http://www.w3.org/1999/xlink">
<g id="graph0" class="graph" transform="scale(1 1) rotate(0) translate(4 141.5)">
<title>Graphical Class Hierarchy</title>
<!-- Node0 -->
<g id="Node000000" class="node">
<title>Node0</title>
<g id="a_Node000000"><a xlink:href="classConstStrippingForwardingCast.html" target="_top" xlink:title=" ">
<polygon fill="white" stroke="#666666" points="164,-84 0,-84 0,-65 164,-65 164,-84"/>
<text text-anchor="middle" x="82" y="-72" font-family="Helvetica,sans-Serif" font-size="10.00">ConstStrippingForwardingCast</text>
</a>
</g>
</g>
<!-- Node1 -->
<g id="Node000001" class="node">
<title>Node1</title>
<g id="a_Node000001"><a xlink:href="structllvm_1_1CastInfo_3_01T_00_01const_01_1_1mlir_1_1Operation_01_5_01_4.html" target="_top" xlink:title=" ">
<polygon fill="white" stroke="#666666" points="348,-137.5 200,-137.5 200,-107.5 348,-107.5 348,-137.5"/>
<text text-anchor="start" x="208" y="-125.5" font-family="Helvetica,sans-Serif" font-size="10.00">llvm::CastInfo&lt; T,</text>
<text text-anchor="middle" x="274" y="-114.5" font-family="Helvetica,sans-Serif" font-size="10.00"> const ::mlir::Operation * &gt;</text>
</a>
</g>
</g>
<!-- Node0&#45;&gt;Node1 -->
<g id="edge26_Node000000_Node000001" class="edge">
<title>Node0&#45;&gt;Node1</title>
<g id="a_edge26_Node000000_Node000001"><a xlink:title=" ">
<path fill="none" stroke="#63b8ff" d="M130.98,-86.62C156,-92.94 186.83,-100.73 213.38,-107.44"/>
<polygon fill="#63b8ff" stroke="#63b8ff" points="131.55,-83.15 120.99,-84.1 129.83,-89.94 131.55,-83.15"/>
</a>
</g>
</g>
<!-- Node2 -->
<g id="Node000002" class="node">
<title>Node2</title>
<g id="a_Node000002"><a xlink:href="structllvm_1_1CastInfo_3_01T_00_01const_01_1_1mlir_1_1Operation_01_4.html" target="_top" xlink:title=" ">
<polygon fill="white" stroke="#666666" points="344,-89.5 204,-89.5 204,-59.5 344,-59.5 344,-89.5"/>
<text text-anchor="start" x="212" y="-77.5" font-family="Helvetica,sans-Serif" font-size="10.00">llvm::CastInfo&lt; T,</text>
<text text-anchor="middle" x="274" y="-66.5" font-family="Helvetica,sans-Serif" font-size="10.00"> const ::mlir::Operation &gt;</text>
</a>
</g>
</g>
<!-- Node0&#45;&gt;Node2 -->
<g id="edge27_Node000000_Node000002" class="edge">
<title>Node0&#45;&gt;Node2</title>
<g id="a_edge27_Node000000_Node000002"><a xlink:title=" ">
<path fill="none" stroke="#63b8ff" d="M174.4,-74.5C184.3,-74.5 194.24,-74.5 203.81,-74.5"/>
<polygon fill="#63b8ff" stroke="#63b8ff" points="174.13,-71 164.13,-74.5 174.13,-78 174.13,-71"/>
</a>
</g>
</g>
<!-- Node3 -->
<g id="Node000003" class="node">
<title>Node3</title>
<g id="a_Node000003"><a xlink:href="structllvm_1_1CastInfo_3_01const_01_1_1mlir_1_1Operation_01_5_00_01const_01_1_1mlir_1_1Operation_01_5_01_4.html" target="_top" xlink:title=" ">
<polygon fill="white" stroke="#666666" points="348,-41 200,-41 200,0 348,0 348,-41"/>
<text text-anchor="start" x="208" y="-29" font-family="Helvetica,sans-Serif" font-size="10.00">llvm::CastInfo&lt; const</text>
<text text-anchor="start" x="208" y="-18" font-family="Helvetica,sans-Serif" font-size="10.00"> ::mlir::Operation *,</text>
<text text-anchor="middle" x="274" y="-7" font-family="Helvetica,sans-Serif" font-size="10.00"> const ::mlir::Operation * &gt;</text>
</a>
</g>
</g>
<!-- Node0&#45;&gt;Node3 -->
<g id="edge28_Node000000_Node000003" class="edge">
<title>Node0&#45;&gt;Node3</title>
<g id="a_edge28_Node000000_Node000003"><a xlink:title=" ">
<path fill="none" stroke="#63b8ff" d="M126.26,-62.21C148.31,-55.94 175.71,-48.15 200.84,-41.01"/>
<polygon fill="#63b8ff" stroke="#63b8ff" points="125.19,-58.87 116.53,-64.97 127.11,-65.6 125.19,-58.87"/>
</a>
</g>
</g>
</g>
</svg>
