<?xml version="1.0" encoding="UTF-8" standalone="no"?>
<!DOCTYPE svg PUBLIC "-//W3C//DTD SVG 1.1//EN"
 "http://www.w3.org/Graphics/SVG/1.1/DTD/svg11.dtd">
<!-- Generated by graphviz version 2.43.0 (0)
 -->
<!-- Title: Graphical Class Hierarchy Pages: 1 -->
<svg width="664pt" height="49pt"
 viewBox="0.00 0.00 664.00 49.00" xmlns="http://www.w3.org/2000/svg" xmlns:xlink="http://www.w3.org/1999/xlink">
<g id="graph0" class="graph" transform="scale(1 1) rotate(0) translate(4 45)">
<title>Graphical Class Hierarchy</title>
<!-- Node0 -->
<g id="Node000000" class="node">
<title>Node0</title>
<g id="a_Node000000"><a xlink:href="classmlir_1_1OpTrait_1_1TraitBase.html" target="_top" xlink:title=" ">
<polygon fill="white" stroke="#666666" points="204,-35.5 0,-35.5 0,-5.5 204,-5.5 204,-35.5"/>
<text text-anchor="start" x="8" y="-23.5" font-family="Helvetica,sans-Serif" font-size="10.00">mlir::OpTrait::TraitBase</text>
<text text-anchor="middle" x="102" y="-12.5" font-family="Helvetica,sans-Serif" font-size="10.00">&lt; ConcreteType, VariadicSuccessors &gt;</text>
</a>
</g>
</g>
<!-- Node1 -->
<g id="Node000001" class="node">
<title>Node1</title>
<g id="a_Node000001"><a xlink:href="structmlir_1_1OpTrait_1_1detail_1_1MultiSuccessorTraitBase.html" target="_top" xlink:title=" ">
<polygon fill="white" stroke="#666666" points="444,-41 240,-41 240,0 444,0 444,-41"/>
<text text-anchor="start" x="248" y="-29" font-family="Helvetica,sans-Serif" font-size="10.00">mlir::OpTrait::detail</text>
<text text-anchor="start" x="248" y="-18" font-family="Helvetica,sans-Serif" font-size="10.00">::MultiSuccessorTraitBase</text>
<text text-anchor="middle" x="342" y="-7" font-family="Helvetica,sans-Serif" font-size="10.00">&lt; ConcreteType, VariadicSuccessors &gt;</text>
</a>
</g>
</g>
<!-- Node0&#45;&gt;Node1 -->
<g id="edge909_Node000000_Node000001" class="edge">
<title>Node0&#45;&gt;Node1</title>
<g id="a_edge909_Node000000_Node000001"><a xlink:title=" ">
<path fill="none" stroke="#63b8ff" d="M214.53,-20.5C222.96,-20.5 231.45,-20.5 239.81,-20.5"/>
<polygon fill="#63b8ff" stroke="#63b8ff" points="214.28,-17 204.28,-20.5 214.28,-24 214.28,-17"/>
</a>
</g>
</g>
<!-- Node2 -->
<g id="Node000002" class="node">
<title>Node2</title>
<g id="a_Node000002"><a xlink:href="classmlir_1_1OpTrait_1_1VariadicSuccessors.html" target="_top" xlink:title="This class provides the API for ops which have an unknown number of successors.">
<polygon fill="white" stroke="#666666" points="656,-35.5 480,-35.5 480,-5.5 656,-5.5 656,-35.5"/>
<text text-anchor="start" x="488" y="-23.5" font-family="Helvetica,sans-Serif" font-size="10.00">mlir::OpTrait::VariadicSuccessors</text>
<text text-anchor="middle" x="568" y="-12.5" font-family="Helvetica,sans-Serif" font-size="10.00">&lt; ConcreteType &gt;</text>
</a>
</g>
</g>
<!-- Node1&#45;&gt;Node2 -->
<g id="edge910_Node000001_Node000002" class="edge">
<title>Node1&#45;&gt;Node2</title>
<g id="a_edge910_Node000001_Node000002"><a xlink:title=" ">
<path fill="none" stroke="#63b8ff" d="M454.29,-20.5C462.91,-20.5 471.53,-20.5 479.96,-20.5"/>
<polygon fill="#63b8ff" stroke="#63b8ff" points="454.19,-17 444.19,-20.5 454.19,-24 454.19,-17"/>
</a>
</g>
</g>
</g>
</svg>
