<?xml version="1.0" encoding="UTF-8" standalone="no"?>
<!DOCTYPE svg PUBLIC "-//W3C//DTD SVG 1.1//EN"
 "http://www.w3.org/Graphics/SVG/1.1/DTD/svg11.dtd">
<!-- Generated by graphviz version 2.43.0 (0)
 -->
<!-- Title: Graphical Class Hierarchy Pages: 1 -->
<svg width="474pt" height="137pt"
 viewBox="0.00 0.00 474.00 137.00" xmlns="http://www.w3.org/2000/svg" xmlns:xlink="http://www.w3.org/1999/xlink">
<g id="graph0" class="graph" transform="scale(1 1) rotate(0) translate(4 133)">
<title>Graphical Class Hierarchy</title>
<!-- Node0 -->
<g id="node1" class="node">
<title>Node0</title>
<g id="a_node1"><a xlink:href="classmlir_1_1tracing_1_1Action.html" target="_top" xlink:title="An action is a specific action that is to be taken by the compiler, that can be toggled and controlle...">
<polygon fill="none" stroke="black" points="0,-55 0,-74 113,-74 113,-55 0,-55"/>
<text text-anchor="middle" x="56.5" y="-62" font-family="Helvetica,sans-Serif" font-size="10.00">mlir::tracing::Action</text>
</a>
</g>
</g>
<!-- Node1 -->
<g id="node2" class="node">
<title>Node1</title>
<g id="a_node2"><a xlink:href="classmlir_1_1tracing_1_1ActionImpl.html" target="_top" xlink:title=" ">
<polygon fill="none" stroke="black" points="151.5,-98.5 151.5,-128.5 285.5,-128.5 285.5,-98.5 151.5,-98.5"/>
<text text-anchor="start" x="159.5" y="-116.5" font-family="Helvetica,sans-Serif" font-size="10.00">mlir::tracing::ActionImpl</text>
<text text-anchor="middle" x="218.5" y="-105.5" font-family="Helvetica,sans-Serif" font-size="10.00">&lt; ApplyPatternAction &gt;</text>
</a>
</g>
</g>
<!-- Node0&#45;&gt;Node1 -->
<g id="edge1" class="edge">
<title>Node0&#45;&gt;Node1</title>
<path fill="none" stroke="midnightblue" d="M98.46,-77.04C119.78,-83.57 146,-91.6 168.4,-98.46"/>
<polygon fill="midnightblue" stroke="midnightblue" points="99.32,-73.65 88.73,-74.06 97.27,-80.34 99.32,-73.65"/>
</g>
<!-- Node3 -->
<g id="node4" class="node">
<title>Node3</title>
<g id="a_node4"><a xlink:href="classmlir_1_1tracing_1_1ActionImpl.html" target="_top" xlink:title=" ">
<polygon fill="none" stroke="black" points="149,-49.5 149,-79.5 288,-79.5 288,-49.5 149,-49.5"/>
<text text-anchor="start" x="157" y="-67.5" font-family="Helvetica,sans-Serif" font-size="10.00">mlir::tracing::ActionImpl</text>
<text text-anchor="middle" x="218.5" y="-56.5" font-family="Helvetica,sans-Serif" font-size="10.00">&lt; PassExecutionAction &gt;</text>
</a>
</g>
</g>
<!-- Node0&#45;&gt;Node3 -->
<g id="edge3" class="edge">
<title>Node0&#45;&gt;Node3</title>
<path fill="none" stroke="midnightblue" d="M123.19,-64.5C131.65,-64.5 140.33,-64.5 148.83,-64.5"/>
<polygon fill="midnightblue" stroke="midnightblue" points="123.01,-61 113.01,-64.5 123.01,-68 123.01,-61"/>
</g>
<!-- Node5 -->
<g id="node6" class="node">
<title>Node5</title>
<g id="a_node6"><a xlink:href="classmlir_1_1tracing_1_1ActionImpl.html" target="_top" xlink:title="CRTP Implementation of an action.">
<polygon fill="none" stroke="black" points="151.5,-0.5 151.5,-30.5 285.5,-30.5 285.5,-0.5 151.5,-0.5"/>
<text text-anchor="start" x="159.5" y="-18.5" font-family="Helvetica,sans-Serif" font-size="10.00">mlir::tracing::ActionImpl</text>
<text text-anchor="middle" x="218.5" y="-7.5" font-family="Helvetica,sans-Serif" font-size="10.00">&lt; Derived &gt;</text>
</a>
</g>
</g>
<!-- Node0&#45;&gt;Node5 -->
<g id="edge5" class="edge">
<title>Node0&#45;&gt;Node5</title>
<path fill="none" stroke="midnightblue" d="M98.46,-51.96C119.78,-45.43 146,-37.4 168.4,-30.54"/>
<polygon fill="midnightblue" stroke="midnightblue" points="97.27,-48.66 88.73,-54.94 99.32,-55.35 97.27,-48.66"/>
</g>
<!-- Node2 -->
<g id="node3" class="node">
<title>Node2</title>
<g id="a_node3"><a xlink:href="classmlir_1_1ApplyPatternAction.html" target="_top" xlink:title="This is the type of Action that is dispatched when a pattern is applied.">
<polygon fill="none" stroke="black" points="327.5,-104 327.5,-123 462.5,-123 462.5,-104 327.5,-104"/>
<text text-anchor="middle" x="395" y="-111" font-family="Helvetica,sans-Serif" font-size="10.00">mlir::ApplyPatternAction</text>
</a>
</g>
</g>
<!-- Node1&#45;&gt;Node2 -->
<g id="edge2" class="edge">
<title>Node1&#45;&gt;Node2</title>
<path fill="none" stroke="midnightblue" d="M296.27,-113.5C306.65,-113.5 317.24,-113.5 327.43,-113.5"/>
<polygon fill="midnightblue" stroke="midnightblue" points="295.97,-110 285.97,-113.5 295.97,-117 295.97,-110"/>
</g>
<!-- Node4 -->
<g id="node5" class="node">
<title>Node4</title>
<g id="a_node5"><a xlink:href="classmlir_1_1PassExecutionAction.html" target="_top" xlink:title="This class encapsulates the &quot;action&quot; of executing a single pass.">
<polygon fill="none" stroke="black" points="324,-55 324,-74 466,-74 466,-55 324,-55"/>
<text text-anchor="middle" x="395" y="-62" font-family="Helvetica,sans-Serif" font-size="10.00">mlir::PassExecutionAction</text>
</a>
</g>
</g>
<!-- Node3&#45;&gt;Node4 -->
<g id="edge4" class="edge">
<title>Node3&#45;&gt;Node4</title>
<path fill="none" stroke="midnightblue" d="M298.49,-64.5C306.96,-64.5 315.55,-64.5 323.91,-64.5"/>
<polygon fill="midnightblue" stroke="midnightblue" points="298.22,-61 288.22,-64.5 298.22,-68 298.22,-61"/>
</g>
</g>
</svg>
