<?xml version="1.0" encoding="UTF-8" standalone="no"?>
<!DOCTYPE svg PUBLIC "-//W3C//DTD SVG 1.1//EN"
 "http://www.w3.org/Graphics/SVG/1.1/DTD/svg11.dtd">
<!-- Generated by graphviz version 2.43.0 (0)
 -->
<!-- Title: Graphical Class Hierarchy Pages: 1 -->
<svg width="453pt" height="224pt"
 viewBox="0.00 0.00 453.00 223.50" xmlns="http://www.w3.org/2000/svg" xmlns:xlink="http://www.w3.org/1999/xlink">
<g id="graph0" class="graph" transform="scale(1 1) rotate(0) translate(4 219.5)">
<title>Graphical Class Hierarchy</title>
<!-- Node0 -->
<g id="Node000000" class="node">
<title>Node0</title>
<g id="a_Node000000"><a xlink:href="classmlir_1_1SideEffects_1_1Effect.html" target="_top" xlink:title="This class represents a base class for a specific effect type.">
<polygon fill="white" stroke="#666666" points="102,-89.5 0,-89.5 0,-59.5 102,-59.5 102,-89.5"/>
<text text-anchor="start" x="8" y="-77.5" font-family="Helvetica,sans-Serif" font-size="10.00">mlir::SideEffects::</text>
<text text-anchor="middle" x="51" y="-66.5" font-family="Helvetica,sans-Serif" font-size="10.00">Effect</text>
</a>
</g>
</g>
<!-- Node1 -->
<g id="Node000001" class="node">
<title>Node1</title>
<g id="a_Node000001"><a xlink:href="classmlir_1_1SideEffects_1_1Effect_1_1Base.html" target="_top" xlink:title=" ">
<polygon fill="white" stroke="#666666" points="293,-149 138,-149 138,-108 293,-108 293,-149"/>
<text text-anchor="start" x="146" y="-137" font-family="Helvetica,sans-Serif" font-size="10.00">mlir::SideEffects::</text>
<text text-anchor="start" x="146" y="-126" font-family="Helvetica,sans-Serif" font-size="10.00">Effect::Base&lt; DerivedEffect,</text>
<text text-anchor="middle" x="215.5" y="-115" font-family="Helvetica,sans-Serif" font-size="10.00"> Effect &gt;</text>
</a>
</g>
</g>
<!-- Node0&#45;&gt;Node1 -->
<g id="edge1322_Node000000_Node000001" class="edge">
<title>Node0&#45;&gt;Node1</title>
<g id="a_edge1322_Node000000_Node000001"><a xlink:title=" ">
<path fill="none" stroke="#63b8ff" d="M106.77,-92.7C121.55,-97.61 137.64,-102.96 152.78,-107.99"/>
<polygon fill="#63b8ff" stroke="#63b8ff" points="107.86,-89.37 97.27,-89.54 105.65,-96.02 107.86,-89.37"/>
</a>
</g>
</g>
<!-- Node6 -->
<g id="Node000006" class="node">
<title>Node6</title>
<g id="a_Node000006"><a xlink:href="structmlir_1_1MemoryEffects_1_1Effect.html" target="_top" xlink:title="This class represents the base class used for memory effects.">
<polygon fill="white" stroke="#666666" points="273.5,-89.5 157.5,-89.5 157.5,-59.5 273.5,-59.5 273.5,-89.5"/>
<text text-anchor="start" x="165.5" y="-77.5" font-family="Helvetica,sans-Serif" font-size="10.00">mlir::MemoryEffects</text>
<text text-anchor="middle" x="215.5" y="-66.5" font-family="Helvetica,sans-Serif" font-size="10.00">::Effect</text>
</a>
</g>
</g>
<!-- Node0&#45;&gt;Node6 -->
<g id="edge1327_Node000000_Node000006" class="edge">
<title>Node0&#45;&gt;Node6</title>
<g id="a_edge1327_Node000000_Node000006"><a xlink:title=" ">
<path fill="none" stroke="#63b8ff" d="M112.16,-74.5C126.98,-74.5 142.81,-74.5 157.48,-74.5"/>
<polygon fill="#63b8ff" stroke="#63b8ff" points="112.08,-71 102.08,-74.5 112.08,-78 112.08,-71"/>
</a>
</g>
</g>
<!-- Node7 -->
<g id="Node000007" class="node">
<title>Node7</title>
<g id="a_Node000007"><a xlink:href="classmlir_1_1SideEffects_1_1Effect_1_1Base.html" target="_top" xlink:title="This base class is used for derived effects that are non&#45;parametric.">
<polygon fill="white" stroke="#666666" points="293,-41 138,-41 138,0 293,0 293,-41"/>
<text text-anchor="start" x="146" y="-29" font-family="Helvetica,sans-Serif" font-size="10.00">mlir::SideEffects::</text>
<text text-anchor="start" x="146" y="-18" font-family="Helvetica,sans-Serif" font-size="10.00">Effect::Base&lt; DerivedEffect,</text>
<text text-anchor="middle" x="215.5" y="-7" font-family="Helvetica,sans-Serif" font-size="10.00"> BaseEffect &gt;</text>
</a>
</g>
</g>
<!-- Node0&#45;&gt;Node7 -->
<g id="edge1328_Node000000_Node000007" class="edge">
<title>Node0&#45;&gt;Node7</title>
<g id="a_edge1328_Node000000_Node000007"><a xlink:title=" ">
<path fill="none" stroke="#63b8ff" d="M106.77,-56.3C121.55,-51.39 137.64,-46.04 152.78,-41.01"/>
<polygon fill="#63b8ff" stroke="#63b8ff" points="105.65,-52.98 97.27,-59.46 107.86,-59.63 105.65,-52.98"/>
</a>
</g>
</g>
<!-- Node2 -->
<g id="Node000002" class="node">
<title>Node2</title>
<g id="a_Node000002"><a xlink:href="structmlir_1_1MemoryEffects_1_1Allocate.html" target="_top" xlink:title="The following effect indicates that the operation allocates from some resource.">
<polygon fill="white" stroke="#666666" points="445,-215.5 329,-215.5 329,-185.5 445,-185.5 445,-215.5"/>
<text text-anchor="start" x="337" y="-203.5" font-family="Helvetica,sans-Serif" font-size="10.00">mlir::MemoryEffects</text>
<text text-anchor="middle" x="387" y="-192.5" font-family="Helvetica,sans-Serif" font-size="10.00">::Allocate</text>
</a>
</g>
</g>
<!-- Node1&#45;&gt;Node2 -->
<g id="edge1323_Node000001_Node000002" class="edge">
<title>Node1&#45;&gt;Node2</title>
<g id="a_edge1323_Node000001_Node000002"><a xlink:title=" ">
<path fill="none" stroke="#63b8ff" d="M274.22,-153.19C291.8,-160.69 311.18,-168.95 329,-176.5 335.82,-179.39 343.11,-182.47 350.11,-185.42"/>
<polygon fill="#63b8ff" stroke="#63b8ff" points="275.23,-149.81 264.65,-149.11 272.48,-156.25 275.23,-149.81"/>
</a>
</g>
</g>
<!-- Node3 -->
<g id="Node000003" class="node">
<title>Node3</title>
<g id="a_Node000003"><a xlink:href="structmlir_1_1MemoryEffects_1_1Free.html" target="_top" xlink:title="The following effect indicates that the operation frees some resource that has been allocated.">
<polygon fill="white" stroke="#666666" points="445,-167.5 329,-167.5 329,-137.5 445,-137.5 445,-167.5"/>
<text text-anchor="start" x="337" y="-155.5" font-family="Helvetica,sans-Serif" font-size="10.00">mlir::MemoryEffects</text>
<text text-anchor="middle" x="387" y="-144.5" font-family="Helvetica,sans-Serif" font-size="10.00">::Free</text>
</a>
</g>
</g>
<!-- Node1&#45;&gt;Node3 -->
<g id="edge1324_Node000001_Node000003" class="edge">
<title>Node1&#45;&gt;Node3</title>
<g id="a_edge1324_Node000001_Node000003"><a xlink:title=" ">
<path fill="none" stroke="#63b8ff" d="M303.47,-140.81C312.13,-142.04 320.75,-143.26 328.98,-144.43"/>
<polygon fill="#63b8ff" stroke="#63b8ff" points="303.71,-137.31 293.32,-139.38 302.73,-144.24 303.71,-137.31"/>
</a>
</g>
</g>
<!-- Node4 -->
<g id="Node000004" class="node">
<title>Node4</title>
<g id="a_Node000004"><a xlink:href="structmlir_1_1MemoryEffects_1_1Read.html" target="_top" xlink:title="The following effect indicates that the operation reads from some resource.">
<polygon fill="white" stroke="#666666" points="445,-119.5 329,-119.5 329,-89.5 445,-89.5 445,-119.5"/>
<text text-anchor="start" x="337" y="-107.5" font-family="Helvetica,sans-Serif" font-size="10.00">mlir::MemoryEffects</text>
<text text-anchor="middle" x="387" y="-96.5" font-family="Helvetica,sans-Serif" font-size="10.00">::Read</text>
</a>
</g>
</g>
<!-- Node1&#45;&gt;Node4 -->
<g id="edge1325_Node000001_Node000004" class="edge">
<title>Node1&#45;&gt;Node4</title>
<g id="a_edge1325_Node000001_Node000004"><a xlink:title=" ">
<path fill="none" stroke="#63b8ff" d="M303.47,-116.19C312.13,-114.96 320.75,-113.74 328.98,-112.57"/>
<polygon fill="#63b8ff" stroke="#63b8ff" points="302.73,-112.76 293.32,-117.62 303.71,-119.69 302.73,-112.76"/>
</a>
</g>
</g>
<!-- Node5 -->
<g id="Node000005" class="node">
<title>Node5</title>
<g id="a_Node000005"><a xlink:href="structmlir_1_1MemoryEffects_1_1Write.html" target="_top" xlink:title="The following effect indicates that the operation writes to some resource.">
<polygon fill="white" stroke="#666666" points="445,-71.5 329,-71.5 329,-41.5 445,-41.5 445,-71.5"/>
<text text-anchor="start" x="337" y="-59.5" font-family="Helvetica,sans-Serif" font-size="10.00">mlir::MemoryEffects</text>
<text text-anchor="middle" x="387" y="-48.5" font-family="Helvetica,sans-Serif" font-size="10.00">::Write</text>
</a>
</g>
</g>
<!-- Node1&#45;&gt;Node5 -->
<g id="edge1326_Node000001_Node000005" class="edge">
<title>Node1&#45;&gt;Node5</title>
<g id="a_edge1326_Node000001_Node000005"><a xlink:title=" ">
<path fill="none" stroke="#63b8ff" d="M280.22,-104.02C284.56,-102.19 288.86,-100.34 293,-98.5 309.34,-91.23 312.75,-87.97 329,-80.5 335.54,-77.49 342.55,-74.42 349.36,-71.51"/>
<polygon fill="#63b8ff" stroke="#63b8ff" points="278.57,-100.91 270.67,-107.96 281.25,-107.38 278.57,-100.91"/>
</a>
</g>
</g>
</g>
</svg>
