<?xml version="1.0" encoding="UTF-8" standalone="no"?>
<!DOCTYPE svg PUBLIC "-//W3C//DTD SVG 1.1//EN"
 "http://www.w3.org/Graphics/SVG/1.1/DTD/svg11.dtd">
<!-- Generated by graphviz version 2.43.0 (0)
 -->
<!-- Title: Graphical Class Hierarchy Pages: 1 -->
<svg width="584pt" height="88pt"
 viewBox="0.00 0.00 584.00 88.00" xmlns="http://www.w3.org/2000/svg" xmlns:xlink="http://www.w3.org/1999/xlink">
<g id="graph0" class="graph" transform="scale(1 1) rotate(0) translate(4 84)">
<title>Graphical Class Hierarchy</title>
<!-- Node0 -->
<g id="node1" class="node">
<title>Node0</title>
<g id="a_node1"><a xlink:href="classmlir_1_1presburger_1_1SimplexBase.html" target="_top" xlink:title="The Simplex class implements a version of the Simplex and Generalized Basis Reduction algorithms,...">
<polygon fill="none" stroke="black" points="0,-19.5 0,-38.5 164,-38.5 164,-19.5 0,-19.5"/>
<text text-anchor="middle" x="82" y="-26.5" font-family="Helvetica,sans-Serif" font-size="10.00">mlir::presburger::SimplexBase</text>
</a>
</g>
</g>
<!-- Node1 -->
<g id="node2" class="node">
<title>Node1</title>
<g id="a_node2"><a xlink:href="classmlir_1_1presburger_1_1LexSimplexBase.html" target="_top" xlink:title="Simplex class using the lexicographic pivot rule.">
<polygon fill="none" stroke="black" points="200,-38.5 200,-57.5 382,-57.5 382,-38.5 200,-38.5"/>
<text text-anchor="middle" x="291" y="-45.5" font-family="Helvetica,sans-Serif" font-size="10.00">mlir::presburger::LexSimplexBase</text>
</a>
</g>
</g>
<!-- Node0&#45;&gt;Node1 -->
<g id="edge1" class="edge">
<title>Node0&#45;&gt;Node1</title>
<path fill="none" stroke="midnightblue" d="M174.42,-37.39C182.84,-38.16 191.37,-38.95 199.77,-39.72"/>
<polygon fill="midnightblue" stroke="midnightblue" points="174.5,-33.88 164.22,-36.45 173.86,-40.85 174.5,-33.88"/>
</g>
<!-- Node4 -->
<g id="node5" class="node">
<title>Node4</title>
<g id="a_node5"><a xlink:href="classmlir_1_1presburger_1_1Simplex.html" target="_top" xlink:title="The Simplex class uses the Normal pivot rule and supports integer emptiness checks as well as detecti...">
<polygon fill="none" stroke="black" points="221,-0.5 221,-19.5 361,-19.5 361,-0.5 221,-0.5"/>
<text text-anchor="middle" x="291" y="-7.5" font-family="Helvetica,sans-Serif" font-size="10.00">mlir::presburger::Simplex</text>
</a>
</g>
</g>
<!-- Node0&#45;&gt;Node4 -->
<g id="edge4" class="edge">
<title>Node0&#45;&gt;Node4</title>
<path fill="none" stroke="midnightblue" d="M174.38,-20.61C189.94,-19.18 205.87,-17.72 220.74,-16.36"/>
<polygon fill="midnightblue" stroke="midnightblue" points="173.86,-17.15 164.22,-21.55 174.5,-24.12 173.86,-17.15"/>
</g>
<!-- Node2 -->
<g id="node3" class="node">
<title>Node2</title>
<g id="a_node3"><a xlink:href="classmlir_1_1presburger_1_1LexSimplex.html" target="_top" xlink:title="A class for lexicographic optimization without any symbols.">
<polygon fill="none" stroke="black" points="418,-60.5 418,-79.5 576,-79.5 576,-60.5 418,-60.5"/>
<text text-anchor="middle" x="497" y="-67.5" font-family="Helvetica,sans-Serif" font-size="10.00">mlir::presburger::LexSimplex</text>
</a>
</g>
</g>
<!-- Node1&#45;&gt;Node2 -->
<g id="edge2" class="edge">
<title>Node1&#45;&gt;Node2</title>
<path fill="none" stroke="midnightblue" d="M390.29,-58.6C399.53,-59.6 408.81,-60.6 417.83,-61.57"/>
<polygon fill="midnightblue" stroke="midnightblue" points="390.61,-55.11 380.29,-57.52 389.86,-62.07 390.61,-55.11"/>
</g>
<!-- Node3 -->
<g id="node4" class="node">
<title>Node3</title>
<g id="a_node4"><a xlink:href="classmlir_1_1presburger_1_1SymbolicLexSimplex.html" target="_top" xlink:title="A class to perform symbolic lexicographic optimization, i.e., to find, for every assignment to the sy...">
<polygon fill="none" stroke="black" points="424,-11 424,-41 570,-41 570,-11 424,-11"/>
<text text-anchor="start" x="432" y="-29" font-family="Helvetica,sans-Serif" font-size="10.00">mlir::presburger::Symbolic</text>
<text text-anchor="middle" x="497" y="-18" font-family="Helvetica,sans-Serif" font-size="10.00">LexSimplex</text>
</a>
</g>
</g>
<!-- Node1&#45;&gt;Node3 -->
<g id="edge3" class="edge">
<title>Node1&#45;&gt;Node3</title>
<path fill="none" stroke="midnightblue" d="M390.56,-37.37C401.77,-36.16 413.04,-34.95 423.83,-33.78"/>
<polygon fill="midnightblue" stroke="midnightblue" points="389.86,-33.93 380.29,-38.48 390.61,-40.89 389.86,-33.93"/>
</g>
</g>
</svg>
