<?xml version="1.0" encoding="UTF-8" standalone="no"?>
<!DOCTYPE svg PUBLIC "-//W3C//DTD SVG 1.1//EN"
 "http://www.w3.org/Graphics/SVG/1.1/DTD/svg11.dtd">
<!-- Generated by graphviz version 2.43.0 (0)
 -->
<!-- Title: Graphical Class Hierarchy Pages: 1 -->
<svg width="490pt" height="258pt"
 viewBox="0.00 0.00 490.00 257.50" xmlns="http://www.w3.org/2000/svg" xmlns:xlink="http://www.w3.org/1999/xlink">
<g id="graph0" class="graph" transform="scale(1 1) rotate(0) translate(4 253.5)">
<title>Graphical Class Hierarchy</title>
<!-- Node0 -->
<g id="Node000000" class="node">
<title>Node0</title>
<g id="a_Node000000"><a xlink:title=" ">
<polygon fill="#e0e0e0" stroke="#999999" points="116,-249.5 0,-249.5 0,-219.5 116,-219.5 116,-249.5"/>
<text text-anchor="start" x="8" y="-237.5" font-family="Helvetica,sans-Serif" font-size="10.00">PtrLikeTypeInterface</text>
<text text-anchor="middle" x="58" y="-226.5" font-family="Helvetica,sans-Serif" font-size="10.00">::Trait</text>
</a>
</g>
</g>
<!-- Node1 -->
<g id="Node000001" class="node">
<title>Node1</title>
<g id="a_Node000001"><a xlink:href="classmlir_1_1BaseMemRefType.html" target="_top" xlink:title="This class provides a shared interface for ranked and unranked memref types.">
<polygon fill="white" stroke="#666666" points="291,-238 161,-238 161,-219 291,-219 291,-238"/>
<text text-anchor="middle" x="226" y="-226" font-family="Helvetica,sans-Serif" font-size="10.00">mlir::BaseMemRefType</text>
</a>
</g>
</g>
<!-- Node0&#45;&gt;Node1 -->
<g id="edge1655_Node000000_Node000001" class="edge">
<title>Node0&#45;&gt;Node1</title>
<g id="a_edge1655_Node000000_Node000001"><a xlink:title=" ">
<path fill="none" stroke="#63b8ff" d="M126.45,-232.06C137.84,-231.65 149.63,-231.22 160.94,-230.82"/>
<polygon fill="#63b8ff" stroke="#63b8ff" points="125.99,-228.58 116.13,-232.44 126.25,-235.57 125.99,-228.58"/>
</a>
</g>
</g>
<!-- Node2 -->
<g id="Node000002" class="node">
<title>Node2</title>
<g id="a_Node000002"><a xlink:title=" ">
<polygon fill="#e0e0e0" stroke="#999999" points="109,-201 7,-201 7,-182 109,-182 109,-201"/>
<text text-anchor="middle" x="58" y="-189" font-family="Helvetica,sans-Serif" font-size="10.00">ShapedType::Trait</text>
</a>
</g>
</g>
<!-- Node2&#45;&gt;Node1 -->
<g id="edge1656_Node000002_Node000001" class="edge">
<title>Node2&#45;&gt;Node1</title>
<g id="a_edge1656_Node000002_Node000001"><a xlink:title=" ">
<path fill="none" stroke="#63b8ff" d="M111.58,-203.22C134.31,-208.29 160.58,-214.14 182.11,-218.94"/>
<polygon fill="#63b8ff" stroke="#63b8ff" points="112.27,-199.79 101.75,-201.03 110.75,-206.62 112.27,-199.79"/>
</a>
</g>
</g>
<!-- Node3 -->
<g id="Node000003" class="node">
<title>Node3</title>
<g id="a_Node000003"><a xlink:href="classmlir_1_1TensorType.html" target="_top" xlink:title="Tensor types represent multi&#45;dimensional arrays, and have two variants: RankedTensorType and Unranked...">
<polygon fill="white" stroke="#666666" points="274,-201 178,-201 178,-182 274,-182 274,-201"/>
<text text-anchor="middle" x="226" y="-189" font-family="Helvetica,sans-Serif" font-size="10.00">mlir::TensorType</text>
</a>
</g>
</g>
<!-- Node2&#45;&gt;Node3 -->
<g id="edge1657_Node000002_Node000003" class="edge">
<title>Node2&#45;&gt;Node3</title>
<g id="a_edge1657_Node000002_Node000003"><a xlink:title=" ">
<path fill="none" stroke="#63b8ff" d="M119.42,-191.5C138.64,-191.5 159.61,-191.5 177.75,-191.5"/>
<polygon fill="#63b8ff" stroke="#63b8ff" points="119.26,-188 109.26,-191.5 119.26,-195 119.26,-188"/>
</a>
</g>
</g>
<!-- Node4 -->
<g id="Node000004" class="node">
<title>Node4</title>
<g id="a_Node000004"><a xlink:href="classmlir_1_1Type.html" target="_top" xlink:title="Instances of the Type class are uniqued, have an immutable identifier and an optional mutable compone...">
<polygon fill="white" stroke="#666666" points="90.5,-146 25.5,-146 25.5,-127 90.5,-127 90.5,-146"/>
<text text-anchor="middle" x="58" y="-134" font-family="Helvetica,sans-Serif" font-size="10.00">mlir::Type</text>
</a>
</g>
</g>
<!-- Node4&#45;&gt;Node1 -->
<g id="edge1660_Node000004_Node000001" class="edge">
<title>Node4&#45;&gt;Node1</title>
<g id="a_edge1660_Node000004_Node000001"><a xlink:title=" ">
<path fill="none" stroke="#63b8ff" d="M84.7,-151.47C94.81,-157.8 106.3,-165.53 116,-173.5 133.73,-188.06 132.09,-199.09 152,-210.5 158,-213.94 164.65,-216.73 171.41,-218.98"/>
<polygon fill="#63b8ff" stroke="#63b8ff" points="86.25,-148.32 75.89,-146.1 82.61,-154.3 86.25,-148.32"/>
</a>
</g>
</g>
<!-- Node4&#45;&gt;Node3 -->
<g id="edge1661_Node000004_Node000003" class="edge">
<title>Node4&#45;&gt;Node3</title>
<g id="a_edge1661_Node000004_Node000003"><a xlink:title=" ">
<path fill="none" stroke="#63b8ff" d="M89.86,-150.01C107.79,-157.55 130.92,-166.74 152,-173.5 161.57,-176.57 171.99,-179.42 181.88,-181.91"/>
<polygon fill="#63b8ff" stroke="#63b8ff" points="91.06,-146.72 80.49,-146.03 88.32,-153.16 91.06,-146.72"/>
</a>
</g>
</g>
<!-- Node5 -->
<g id="Node000005" class="node">
<title>Node5</title>
<g id="a_Node000005"><a xlink:href="classmlir_1_1detail_1_1Interface.html" target="_top" xlink:title=" ">
<polygon fill="white" stroke="#666666" points="288.5,-89.5 163.5,-89.5 163.5,-37.5 288.5,-37.5 288.5,-89.5"/>
<text text-anchor="start" x="171.5" y="-77.5" font-family="Helvetica,sans-Serif" font-size="10.00">mlir::detail::Interface</text>
<text text-anchor="start" x="171.5" y="-66.5" font-family="Helvetica,sans-Serif" font-size="10.00">&lt; ConcreteType, Type,</text>
<text text-anchor="start" x="171.5" y="-55.5" font-family="Helvetica,sans-Serif" font-size="10.00"> Traits, Type, TypeTrait</text>
<text text-anchor="middle" x="226" y="-44.5" font-family="Helvetica,sans-Serif" font-size="10.00">::TraitBase &gt;</text>
</a>
</g>
</g>
<!-- Node4&#45;&gt;Node5 -->
<g id="edge1658_Node000004_Node000005" class="edge">
<title>Node4&#45;&gt;Node5</title>
<g id="a_edge1658_Node000004_Node000005"><a xlink:title=" ">
<path fill="none" stroke="#63b8ff" d="M89.9,-122.91C111.18,-113.55 140.13,-100.82 165.77,-89.55"/>
<polygon fill="#63b8ff" stroke="#63b8ff" points="88.45,-119.73 80.7,-126.96 91.26,-126.13 88.45,-119.73"/>
</a>
</g>
</g>
<!-- Node7 -->
<g id="Node000007" class="node">
<title>Node7</title>
<g id="a_Node000007"><a xlink:href="classmlir_1_1pdl_1_1PDLType.html" target="_top" xlink:title="This class represents the base class of all PDL types.">
<polygon fill="white" stroke="#666666" points="278,-19 174,-19 174,0 278,0 278,-19"/>
<text text-anchor="middle" x="226" y="-7" font-family="Helvetica,sans-Serif" font-size="10.00">mlir::pdl::PDLType</text>
</a>
</g>
</g>
<!-- Node4&#45;&gt;Node7 -->
<g id="edge1662_Node000004_Node000007" class="edge">
<title>Node4&#45;&gt;Node7</title>
<g id="a_edge1662_Node000004_Node000007"><a xlink:title=" ">
<path fill="none" stroke="#63b8ff" d="M69.82,-118.07C85.05,-93.79 115.11,-51.49 152,-28.5 158.67,-24.34 166.22,-21.09 173.88,-18.55"/>
<polygon fill="#63b8ff" stroke="#63b8ff" points="66.78,-116.33 64.56,-126.69 72.76,-119.98 66.78,-116.33"/>
</a>
</g>
</g>
<!-- Node8 -->
<g id="Node000008" class="node">
<title>Node8</title>
<g id="a_Node000008"><a xlink:href="classmlir_1_1quant_1_1QuantizedType.html" target="_top" xlink:title="Base class for all quantized types known to this dialect.">
<polygon fill="white" stroke="#666666" points="300,-164 152,-164 152,-145 300,-145 300,-164"/>
<text text-anchor="middle" x="226" y="-152" font-family="Helvetica,sans-Serif" font-size="10.00">mlir::quant::QuantizedType</text>
</a>
</g>
</g>
<!-- Node4&#45;&gt;Node8 -->
<g id="edge1663_Node000004_Node000008" class="edge">
<title>Node4&#45;&gt;Node8</title>
<g id="a_edge1663_Node000004_Node000008"><a xlink:title=" ">
<path fill="none" stroke="#63b8ff" d="M100.89,-141.04C116.37,-142.72 134.42,-144.68 151.87,-146.57"/>
<polygon fill="#63b8ff" stroke="#63b8ff" points="100.93,-137.53 90.61,-139.93 100.18,-144.49 100.93,-137.53"/>
</a>
</g>
</g>
<!-- Node9 -->
<g id="Node000009" class="node">
<title>Node9</title>
<g id="a_Node000009"><a xlink:href="classmlir_1_1spirv_1_1SPIRVType.html" target="_top" xlink:title=" ">
<polygon fill="white" stroke="#666666" points="287,-127 165,-127 165,-108 287,-108 287,-127"/>
<text text-anchor="middle" x="226" y="-115" font-family="Helvetica,sans-Serif" font-size="10.00">mlir::spirv::SPIRVType</text>
</a>
</g>
</g>
<!-- Node4&#45;&gt;Node9 -->
<g id="edge1664_Node000004_Node000009" class="edge">
<title>Node4&#45;&gt;Node9</title>
<g id="a_edge1664_Node000004_Node000009"><a xlink:title=" ">
<path fill="none" stroke="#63b8ff" d="M100.67,-131.73C120.11,-129.51 143.62,-126.81 164.94,-124.37"/>
<polygon fill="#63b8ff" stroke="#63b8ff" points="100.15,-128.27 90.61,-132.88 100.95,-135.22 100.15,-128.27"/>
</a>
</g>
</g>
<!-- Node6 -->
<g id="Node000006" class="node">
<title>Node6</title>
<g id="a_Node000006"><a xlink:href="classmlir_1_1TypeInterface.html" target="_top" xlink:title="This class represents the base of a type interface.">
<polygon fill="white" stroke="#666666" points="477.5,-78.5 340.5,-78.5 340.5,-48.5 477.5,-48.5 477.5,-78.5"/>
<text text-anchor="start" x="348.5" y="-66.5" font-family="Helvetica,sans-Serif" font-size="10.00">mlir::TypeInterface</text>
<text text-anchor="middle" x="409" y="-55.5" font-family="Helvetica,sans-Serif" font-size="10.00">&lt; ConcreteType, Traits &gt;</text>
</a>
</g>
</g>
<!-- Node5&#45;&gt;Node6 -->
<g id="edge1659_Node000005_Node000006" class="edge">
<title>Node5&#45;&gt;Node6</title>
<g id="a_edge1659_Node000005_Node000006"><a xlink:title=" ">
<path fill="none" stroke="#63b8ff" d="M298.87,-63.5C312.57,-63.5 326.87,-63.5 340.43,-63.5"/>
<polygon fill="#63b8ff" stroke="#63b8ff" points="298.53,-60 288.53,-63.5 298.53,-67 298.53,-60"/>
</a>
</g>
</g>
<!-- Node10 -->
<g id="Node000010" class="node">
<title>Node10</title>
<g id="a_Node000010"><a xlink:href="classmlir_1_1spirv_1_1CompositeType.html" target="_top" xlink:title=" ">
<polygon fill="white" stroke="#666666" points="482,-158 336,-158 336,-139 482,-139 482,-158"/>
<text text-anchor="middle" x="409" y="-146" font-family="Helvetica,sans-Serif" font-size="10.00">mlir::spirv::CompositeType</text>
</a>
</g>
</g>
<!-- Node9&#45;&gt;Node10 -->
<g id="edge1665_Node000009_Node000010" class="edge">
<title>Node9&#45;&gt;Node10</title>
<g id="a_edge1665_Node000009_Node000010"><a xlink:title=" ">
<path fill="none" stroke="#63b8ff" d="M292.83,-128.77C312.37,-132.12 333.58,-135.75 352.4,-138.98"/>
<polygon fill="#63b8ff" stroke="#63b8ff" points="293.23,-125.29 282.78,-127.05 292.05,-132.19 293.23,-125.29"/>
</a>
</g>
</g>
<!-- Node11 -->
<g id="Node000011" class="node">
<title>Node11</title>
<g id="a_Node000011"><a xlink:href="classmlir_1_1spirv_1_1ScalarType.html" target="_top" xlink:title=" ">
<polygon fill="white" stroke="#666666" points="471,-121 347,-121 347,-102 471,-102 471,-121"/>
<text text-anchor="middle" x="409" y="-109" font-family="Helvetica,sans-Serif" font-size="10.00">mlir::spirv::ScalarType</text>
</a>
</g>
</g>
<!-- Node9&#45;&gt;Node11 -->
<g id="edge1666_Node000009_Node000011" class="edge">
<title>Node9&#45;&gt;Node11</title>
<g id="a_edge1666_Node000009_Node000011"><a xlink:title=" ">
<path fill="none" stroke="#63b8ff" d="M297.11,-115.18C313.53,-114.63 330.91,-114.06 346.91,-113.53"/>
<polygon fill="#63b8ff" stroke="#63b8ff" points="296.9,-111.68 287.02,-115.51 297.13,-118.68 296.9,-111.68"/>
</a>
</g>
</g>
</g>
</svg>
