<?xml version="1.0" encoding="UTF-8" standalone="no"?>
<!DOCTYPE svg PUBLIC "-//W3C//DTD SVG 1.1//EN"
 "http://www.w3.org/Graphics/SVG/1.1/DTD/svg11.dtd">
<!-- Generated by graphviz version 2.43.0 (0)
 -->
<!-- Title: Graphical Class Hierarchy Pages: 1 -->
<svg width="266pt" height="64pt"
 viewBox="0.00 0.00 266.00 64.00" xmlns="http://www.w3.org/2000/svg" xmlns:xlink="http://www.w3.org/1999/xlink">
<g id="graph0" class="graph" transform="scale(1 1) rotate(0) translate(4 60)">
<title>Graphical Class Hierarchy</title>
<!-- Node0 -->
<g id="Node000000" class="node">
<title>Node0</title>
<g id="a_Node000000"><a xlink:href="classmlir_1_1AsmParser.html" target="_top" xlink:title="This base class exposes generic asm parser hooks, usable across the various derived parsers.">
<polygon fill="white" stroke="#666666" points="94,-37 0,-37 0,-18 94,-18 94,-37"/>
<text text-anchor="middle" x="47" y="-25" font-family="Helvetica,sans-Serif" font-size="10.00">mlir::AsmParser</text>
</a>
</g>
</g>
<!-- Node1 -->
<g id="Node000001" class="node">
<title>Node1</title>
<g id="a_Node000001"><a xlink:href="classmlir_1_1DialectAsmParser.html" target="_top" xlink:title="The DialectAsmParser has methods for interacting with the asm parser when parsing attributes and type...">
<polygon fill="white" stroke="#666666" points="258,-56 130,-56 130,-37 258,-37 258,-56"/>
<text text-anchor="middle" x="194" y="-44" font-family="Helvetica,sans-Serif" font-size="10.00">mlir::DialectAsmParser</text>
</a>
</g>
</g>
<!-- Node0&#45;&gt;Node1 -->
<g id="edge615_Node000000_Node000001" class="edge">
<title>Node0&#45;&gt;Node1</title>
<g id="a_edge615_Node000000_Node000001"><a xlink:title=" ">
<path fill="none" stroke="#63b8ff" d="M104.34,-34.88C112.74,-35.98 121.45,-37.12 129.97,-38.24"/>
<polygon fill="#63b8ff" stroke="#63b8ff" points="104.65,-31.39 94.28,-33.56 103.74,-38.33 104.65,-31.39"/>
</a>
</g>
</g>
<!-- Node2 -->
<g id="Node000002" class="node">
<title>Node2</title>
<g id="a_Node000002"><a xlink:href="classmlir_1_1OpAsmParser.html" target="_top" xlink:title="The OpAsmParser has methods for interacting with the asm parser: parsing things from it,...">
<polygon fill="white" stroke="#666666" points="247.5,-19 140.5,-19 140.5,0 247.5,0 247.5,-19"/>
<text text-anchor="middle" x="194" y="-7" font-family="Helvetica,sans-Serif" font-size="10.00">mlir::OpAsmParser</text>
</a>
</g>
</g>
<!-- Node0&#45;&gt;Node2 -->
<g id="edge616_Node000000_Node000002" class="edge">
<title>Node0&#45;&gt;Node2</title>
<g id="a_edge616_Node000000_Node000002"><a xlink:title=" ">
<path fill="none" stroke="#63b8ff" d="M104.47,-20.49C116.28,-19.02 128.69,-17.48 140.36,-16.04"/>
<polygon fill="#63b8ff" stroke="#63b8ff" points="103.77,-17.05 94.28,-21.76 104.63,-24 103.77,-17.05"/>
</a>
</g>
</g>
</g>
</svg>
