<?xml version="1.0" encoding="UTF-8" standalone="no"?>
<!DOCTYPE svg PUBLIC "-//W3C//DTD SVG 1.1//EN"
 "http://www.w3.org/Graphics/SVG/1.1/DTD/svg11.dtd">
<!-- Generated by graphviz version 2.43.0 (0)
 -->
<!-- Title: Graphical Class Hierarchy Pages: 1 -->
<svg width="288pt" height="679pt"
 viewBox="0.00 0.00 288.00 679.00" xmlns="http://www.w3.org/2000/svg" xmlns:xlink="http://www.w3.org/1999/xlink">
<g id="graph0" class="graph" transform="scale(1 1) rotate(0) translate(4 675)">
<title>Graphical Class Hierarchy</title>
<!-- Node0 -->
<g id="Node000000" class="node">
<title>Node0</title>
<g id="a_Node000000"><a xlink:title=" ">
<polygon fill="#e0e0e0" stroke="#999999" points="89,-292.5 0,-292.5 0,-273.5 89,-273.5 89,-292.5"/>
<text text-anchor="middle" x="44.5" y="-280.5" font-family="Helvetica,sans-Serif" font-size="10.00">std::false_type</text>
</a>
</g>
</g>
<!-- Node1 -->
<g id="Node000001" class="node">
<title>Node1</title>
<g id="a_Node000001"><a xlink:href="structmlir_1_1detail_1_1is__complex__t_3_01std_1_1complex_3_01T_01_4_01_4.html" target="_top" xlink:title=" ">
<polygon fill="white" stroke="#666666" points="272.5,-671 132.5,-671 132.5,-641 272.5,-641 272.5,-671"/>
<text text-anchor="start" x="140.5" y="-659" font-family="Helvetica,sans-Serif" font-size="10.00">mlir::detail::is_complex</text>
<text text-anchor="middle" x="202.5" y="-648" font-family="Helvetica,sans-Serif" font-size="10.00">_t&lt; std::complex&lt; T &gt; &gt;</text>
</a>
</g>
</g>
<!-- Node0&#45;&gt;Node1 -->
<g id="edge1671_Node000000_Node000001" class="edge">
<title>Node0&#45;&gt;Node1</title>
<g id="a_edge1671_Node000000_Node000001"><a xlink:title=" ">
<path fill="none" stroke="#63b8ff" d="M49.41,-302.65C63.79,-374.51 113.5,-619.54 125,-632 128.12,-635.38 131.7,-638.28 135.58,-640.78"/>
<polygon fill="#63b8ff" stroke="#63b8ff" points="52.81,-301.78 47.42,-292.66 45.94,-303.15 52.81,-301.78"/>
</a>
</g>
</g>
<!-- Node3 -->
<g id="Node000003" class="node">
<title>Node3</title>
<g id="a_Node000003"><a xlink:href="structmlir_1_1detail_1_1is__pair_3_01std_1_1pair_3_01Ts_8_8_8_01_4_01_4.html" target="_top" xlink:title=" ">
<polygon fill="white" stroke="#666666" points="262.5,-623 142.5,-623 142.5,-593 262.5,-593 262.5,-623"/>
<text text-anchor="start" x="150.5" y="-611" font-family="Helvetica,sans-Serif" font-size="10.00">mlir::detail::is_pair</text>
<text text-anchor="middle" x="202.5" y="-600" font-family="Helvetica,sans-Serif" font-size="10.00">&lt; std::pair&lt; Ts... &gt; &gt;</text>
</a>
</g>
</g>
<!-- Node0&#45;&gt;Node3 -->
<g id="edge1672_Node000000_Node000003" class="edge">
<title>Node0&#45;&gt;Node3</title>
<g id="a_edge1672_Node000000_Node000003"><a xlink:title=" ">
<path fill="none" stroke="#63b8ff" d="M49.49,-302.41C62.65,-365.67 104.97,-563.03 125,-584 129.9,-589.13 135.89,-593.17 142.33,-596.35"/>
<polygon fill="#63b8ff" stroke="#63b8ff" points="52.9,-301.62 47.45,-292.53 46.05,-303.04 52.9,-301.62"/>
</a>
</g>
</g>
<!-- Node4 -->
<g id="Node000004" class="node">
<title>Node4</title>
<g id="a_Node000004"><a xlink:href="structmlir_1_1detail_1_1is__tuple_3_01std_1_1tuple_3_01Ts_8_8_8_01_4_01_4.html" target="_top" xlink:title=" ">
<polygon fill="white" stroke="#666666" points="265.5,-575 139.5,-575 139.5,-545 265.5,-545 265.5,-575"/>
<text text-anchor="start" x="147.5" y="-563" font-family="Helvetica,sans-Serif" font-size="10.00">mlir::detail::is_tuple</text>
<text text-anchor="middle" x="202.5" y="-552" font-family="Helvetica,sans-Serif" font-size="10.00">&lt; std::tuple&lt; Ts... &gt; &gt;</text>
</a>
</g>
</g>
<!-- Node0&#45;&gt;Node4 -->
<g id="edge1673_Node000000_Node000004" class="edge">
<title>Node0&#45;&gt;Node4</title>
<g id="a_edge1673_Node000000_Node000004"><a xlink:title=" ">
<path fill="none" stroke="#63b8ff" d="M45.82,-302.7C47.66,-349.82 58.97,-470 125,-536 129.13,-540.13 133.97,-543.56 139.17,-546.39"/>
<polygon fill="#63b8ff" stroke="#63b8ff" points="49.31,-302.5 45.53,-292.61 42.32,-302.7 49.31,-302.5"/>
</a>
</g>
</g>
<!-- Node5 -->
<g id="Node000005" class="node">
<title>Node5</title>
<g id="a_Node000005"><a xlink:href="structmlir_1_1query_1_1matcher_1_1has__bound__match_3_01T_00_01std_1_1void__t_3_01decltype_07stdcf2451b5d3c307db1c18067b2733ca2a.html" target="_top" xlink:title=" ">
<polygon fill="white" stroke="#666666" points="280,-526.5 125,-526.5 125,-441.5 280,-441.5 280,-526.5"/>
<text text-anchor="start" x="133" y="-514.5" font-family="Helvetica,sans-Serif" font-size="10.00">mlir::query::matcher</text>
<text text-anchor="start" x="133" y="-503.5" font-family="Helvetica,sans-Serif" font-size="10.00">::has_bound_match&lt; T,</text>
<text text-anchor="start" x="133" y="-492.5" font-family="Helvetica,sans-Serif" font-size="10.00"> std::void_t&lt; decltype</text>
<text text-anchor="start" x="133" y="-481.5" font-family="Helvetica,sans-Serif" font-size="10.00">(std::declval&lt; T &gt;().match</text>
<text text-anchor="start" x="133" y="-470.5" font-family="Helvetica,sans-Serif" font-size="10.00">(std::declval&lt; Operation *</text>
<text text-anchor="start" x="133" y="-459.5" font-family="Helvetica,sans-Serif" font-size="10.00"> &gt;(), std::declval&lt; SetVector</text>
<text text-anchor="middle" x="202.5" y="-448.5" font-family="Helvetica,sans-Serif" font-size="10.00">&lt; Operation * &gt; &amp; &gt;()))&gt; &gt;</text>
</a>
</g>
</g>
<!-- Node0&#45;&gt;Node5 -->
<g id="edge1674_Node000000_Node000005" class="edge">
<title>Node0&#45;&gt;Node5</title>
<g id="a_edge1674_Node000000_Node000005"><a xlink:title=" ">
<path fill="none" stroke="#63b8ff" d="M52.37,-302.47C63.8,-332.8 89.05,-391.99 125,-432 127.9,-435.23 131.04,-438.35 134.33,-441.36"/>
<polygon fill="#63b8ff" stroke="#63b8ff" points="55.52,-300.88 48.79,-292.69 48.94,-303.28 55.52,-300.88"/>
</a>
</g>
</g>
<!-- Node6 -->
<g id="Node000006" class="node">
<title>Node6</title>
<g id="a_Node000006"><a xlink:href="structmlir_1_1query_1_1matcher_1_1has__simple__match_3_01T_00_01std_1_1void__t_3_01decltype_07st1e0a0503d27a42df5b77d5f51e428c6a.html" target="_top" xlink:title=" ">
<polygon fill="white" stroke="#666666" points="275.5,-423 129.5,-423 129.5,-349 275.5,-349 275.5,-423"/>
<text text-anchor="start" x="137.5" y="-411" font-family="Helvetica,sans-Serif" font-size="10.00">mlir::query::matcher</text>
<text text-anchor="start" x="137.5" y="-400" font-family="Helvetica,sans-Serif" font-size="10.00">::has_simple_match&lt; T,</text>
<text text-anchor="start" x="137.5" y="-389" font-family="Helvetica,sans-Serif" font-size="10.00"> std::void_t&lt; decltype</text>
<text text-anchor="start" x="137.5" y="-378" font-family="Helvetica,sans-Serif" font-size="10.00">(std::declval&lt; T &gt;().match</text>
<text text-anchor="start" x="137.5" y="-367" font-family="Helvetica,sans-Serif" font-size="10.00">(std::declval&lt; Operation *</text>
<text text-anchor="middle" x="202.5" y="-356" font-family="Helvetica,sans-Serif" font-size="10.00"> &gt;()))&gt; &gt;</text>
</a>
</g>
</g>
<!-- Node0&#45;&gt;Node6 -->
<g id="edge1675_Node000000_Node000006" class="edge">
<title>Node0&#45;&gt;Node6</title>
<g id="a_edge1675_Node000000_Node000006"><a xlink:title=" ">
<path fill="none" stroke="#63b8ff" d="M66.29,-298.61C82.14,-310.34 104.65,-326.62 125,-340 129.4,-342.9 133.98,-345.83 138.62,-348.75"/>
<polygon fill="#63b8ff" stroke="#63b8ff" points="68.33,-295.76 58.22,-292.61 64.16,-301.38 68.33,-295.76"/>
</a>
</g>
</g>
<!-- Node7 -->
<g id="Node000007" class="node">
<title>Node7</title>
<g id="a_Node000007"><a xlink:href="structmlir_1_1sparse__tensor_1_1detail_1_1is__complex_3_01std_1_1complex_3_01T_01_4_01_4.html" target="_top" xlink:title=" ">
<polygon fill="white" stroke="#666666" points="268,-330.5 137,-330.5 137,-289.5 268,-289.5 268,-330.5"/>
<text text-anchor="start" x="145" y="-318.5" font-family="Helvetica,sans-Serif" font-size="10.00">mlir::sparse_tensor</text>
<text text-anchor="start" x="145" y="-307.5" font-family="Helvetica,sans-Serif" font-size="10.00">::detail::is_complex</text>
<text text-anchor="middle" x="202.5" y="-296.5" font-family="Helvetica,sans-Serif" font-size="10.00">&lt; std::complex&lt; T &gt; &gt;</text>
</a>
</g>
</g>
<!-- Node0&#45;&gt;Node7 -->
<g id="edge1676_Node000000_Node000007" class="edge">
<title>Node0&#45;&gt;Node7</title>
<g id="a_edge1676_Node000000_Node000007"><a xlink:title=" ">
<path fill="none" stroke="#63b8ff" d="M99.33,-292.32C111.47,-294.42 124.47,-296.67 137,-298.84"/>
<polygon fill="#63b8ff" stroke="#63b8ff" points="99.82,-288.85 89.37,-290.59 98.63,-295.75 99.82,-288.85"/>
</a>
</g>
</g>
<!-- Node8 -->
<g id="Node000008" class="node">
<title>Node8</title>
<g id="a_Node000008"><a xlink:href="structmlir_1_1detail_1_1is__complex__t.html" target="_top" xlink:title="Type trait detector that checks if a given type T is a complex type.">
<polygon fill="white" stroke="#666666" points="268,-271 137,-271 137,-241 268,-241 268,-271"/>
<text text-anchor="start" x="145" y="-259" font-family="Helvetica,sans-Serif" font-size="10.00">mlir::detail::is_complex</text>
<text text-anchor="middle" x="202.5" y="-248" font-family="Helvetica,sans-Serif" font-size="10.00">_t&lt; T &gt;</text>
</a>
</g>
</g>
<!-- Node0&#45;&gt;Node8 -->
<g id="edge1677_Node000000_Node000008" class="edge">
<title>Node0&#45;&gt;Node8</title>
<g id="a_edge1677_Node000000_Node000008"><a xlink:title=" ">
<path fill="none" stroke="#63b8ff" d="M99.33,-273.68C111.47,-271.58 124.47,-269.33 137,-267.16"/>
<polygon fill="#63b8ff" stroke="#63b8ff" points="98.63,-270.25 89.37,-275.41 99.82,-277.15 98.63,-270.25"/>
</a>
</g>
</g>
<!-- Node9 -->
<g id="Node000009" class="node">
<title>Node9</title>
<g id="a_Node000009"><a xlink:href="structmlir_1_1detail_1_1is__pair.html" target="_top" xlink:title=" ">
<polygon fill="white" stroke="#666666" points="271,-222.5 134,-222.5 134,-203.5 271,-203.5 271,-222.5"/>
<text text-anchor="middle" x="202.5" y="-210.5" font-family="Helvetica,sans-Serif" font-size="10.00">mlir::detail::is_pair&lt; T &gt;</text>
</a>
</g>
</g>
<!-- Node0&#45;&gt;Node9 -->
<g id="edge1678_Node000000_Node000009" class="edge">
<title>Node0&#45;&gt;Node9</title>
<g id="a_edge1678_Node000000_Node000009"><a xlink:title=" ">
<path fill="none" stroke="#63b8ff" d="M66,-267.18C81.46,-255.92 103.6,-241.22 125,-232 133.8,-228.21 143.5,-225.07 152.96,-222.51"/>
<polygon fill="#63b8ff" stroke="#63b8ff" points="63.65,-264.56 57.72,-273.34 67.83,-270.17 63.65,-264.56"/>
</a>
</g>
</g>
<!-- Node10 -->
<g id="Node000010" class="node">
<title>Node10</title>
<g id="a_Node000010"><a xlink:href="structmlir_1_1detail_1_1is__tuple.html" target="_top" xlink:title=" ">
<polygon fill="white" stroke="#666666" points="274,-185.5 131,-185.5 131,-166.5 274,-166.5 274,-185.5"/>
<text text-anchor="middle" x="202.5" y="-173.5" font-family="Helvetica,sans-Serif" font-size="10.00">mlir::detail::is_tuple&lt; T &gt;</text>
</a>
</g>
</g>
<!-- Node0&#45;&gt;Node10 -->
<g id="edge1679_Node000000_Node000010" class="edge">
<title>Node0&#45;&gt;Node10</title>
<g id="a_edge1679_Node000000_Node000010"><a xlink:title=" ">
<path fill="none" stroke="#63b8ff" d="M56.56,-265.07C70.12,-244.65 95.04,-211.81 125,-194 130.75,-190.58 137.1,-187.82 143.61,-185.57"/>
<polygon fill="#63b8ff" stroke="#63b8ff" points="53.62,-263.18 51.15,-273.48 59.5,-266.97 53.62,-263.18"/>
</a>
</g>
</g>
<!-- Node11 -->
<g id="Node000011" class="node">
<title>Node11</title>
<g id="a_Node000011"><a xlink:href="structmlir_1_1query_1_1matcher_1_1has__bound__match.html" target="_top" xlink:title=" ">
<polygon fill="white" stroke="#666666" points="268,-148.5 137,-148.5 137,-107.5 268,-107.5 268,-148.5"/>
<text text-anchor="start" x="145" y="-136.5" font-family="Helvetica,sans-Serif" font-size="10.00">mlir::query::matcher</text>
<text text-anchor="start" x="145" y="-125.5" font-family="Helvetica,sans-Serif" font-size="10.00">::has_bound_match&lt; T,</text>
<text text-anchor="middle" x="202.5" y="-114.5" font-family="Helvetica,sans-Serif" font-size="10.00"> typename &gt;</text>
</a>
</g>
</g>
<!-- Node0&#45;&gt;Node11 -->
<g id="edge1680_Node000000_Node000011" class="edge">
<title>Node0&#45;&gt;Node11</title>
<g id="a_edge1680_Node000000_Node000011"><a xlink:title=" ">
<path fill="none" stroke="#63b8ff" d="M52.98,-263.71C64.51,-236.34 89.11,-186.33 125,-157 128.74,-153.94 132.83,-151.19 137.13,-148.71"/>
<polygon fill="#63b8ff" stroke="#63b8ff" points="49.6,-262.72 49.08,-273.31 56.09,-265.36 49.6,-262.72"/>
</a>
</g>
</g>
<!-- Node12 -->
<g id="Node000012" class="node">
<title>Node12</title>
<g id="a_Node000012"><a xlink:href="structmlir_1_1query_1_1matcher_1_1has__simple__match.html" target="_top" xlink:title=" ">
<polygon fill="white" stroke="#666666" points="269.5,-89.5 135.5,-89.5 135.5,-48.5 269.5,-48.5 269.5,-89.5"/>
<text text-anchor="start" x="143.5" y="-77.5" font-family="Helvetica,sans-Serif" font-size="10.00">mlir::query::matcher</text>
<text text-anchor="start" x="143.5" y="-66.5" font-family="Helvetica,sans-Serif" font-size="10.00">::has_simple_match&lt; T,</text>
<text text-anchor="middle" x="202.5" y="-55.5" font-family="Helvetica,sans-Serif" font-size="10.00"> typename &gt;</text>
</a>
</g>
</g>
<!-- Node0&#45;&gt;Node12 -->
<g id="edge1681_Node000000_Node000012" class="edge">
<title>Node0&#45;&gt;Node12</title>
<g id="a_edge1681_Node000000_Node000012"><a xlink:title=" ">
<path fill="none" stroke="#63b8ff" d="M48.72,-263.4C55.82,-226.14 76.26,-144.67 125,-98 128.28,-94.86 131.94,-92.05 135.83,-89.53"/>
<polygon fill="#63b8ff" stroke="#63b8ff" points="45.23,-262.99 46.92,-273.45 52.12,-264.22 45.23,-262.99"/>
</a>
</g>
</g>
<!-- Node13 -->
<g id="Node000013" class="node">
<title>Node13</title>
<g id="a_Node000013"><a xlink:href="structmlir_1_1sparse__tensor_1_1detail_1_1is__complex.html" target="_top" xlink:title=" ">
<polygon fill="white" stroke="#666666" points="272.5,-30 132.5,-30 132.5,0 272.5,0 272.5,-30"/>
<text text-anchor="start" x="140.5" y="-18" font-family="Helvetica,sans-Serif" font-size="10.00">mlir::sparse_tensor</text>
<text text-anchor="middle" x="202.5" y="-7" font-family="Helvetica,sans-Serif" font-size="10.00">::detail::is_complex&lt; T &gt;</text>
</a>
</g>
</g>
<!-- Node0&#45;&gt;Node13 -->
<g id="edge1682_Node000000_Node000013" class="edge">
<title>Node0&#45;&gt;Node13</title>
<g id="a_edge1682_Node000000_Node000013"><a xlink:title=" ">
<path fill="none" stroke="#63b8ff" d="M46.08,-263.38C48.52,-217.49 61.05,-102.25 125,-39 128.46,-35.57 132.41,-32.64 136.64,-30.12"/>
<polygon fill="#63b8ff" stroke="#63b8ff" points="42.58,-263.34 45.65,-273.48 49.57,-263.64 42.58,-263.34"/>
</a>
</g>
</g>
<!-- Node2 -->
<g id="Node000002" class="node">
<title>Node2</title>
<g id="a_Node000002"><a xlink:title=" ">
<polygon fill="#e0e0e0" stroke="#999999" points="86.5,-531.5 2.5,-531.5 2.5,-512.5 86.5,-512.5 86.5,-531.5"/>
<text text-anchor="middle" x="44.5" y="-519.5" font-family="Helvetica,sans-Serif" font-size="10.00">std::true_type</text>
</a>
</g>
</g>
<!-- Node2&#45;&gt;Node1 -->
<g id="edge1683_Node000002_Node000001" class="edge">
<title>Node2&#45;&gt;Node1</title>
<g id="a_edge1683_Node000002_Node000001"><a xlink:title=" ">
<path fill="none" stroke="#63b8ff" d="M54.29,-540.83C66.68,-565.34 91.55,-607.89 125,-632 129.74,-635.42 134.99,-638.36 140.44,-640.89"/>
<polygon fill="#63b8ff" stroke="#63b8ff" points="57.29,-538.99 49.76,-531.53 51,-542.05 57.29,-538.99"/>
</a>
</g>
</g>
<!-- Node2&#45;&gt;Node3 -->
<g id="edge1684_Node000002_Node000003" class="edge">
<title>Node2&#45;&gt;Node3</title>
<g id="a_edge1684_Node000002_Node000003"><a xlink:title=" ">
<path fill="none" stroke="#63b8ff" d="M63.09,-538.76C78.39,-552.56 101.72,-571.79 125,-584 131.41,-587.36 138.37,-590.35 145.4,-592.97"/>
<polygon fill="#63b8ff" stroke="#63b8ff" points="65.18,-535.93 55.46,-531.73 60.44,-541.08 65.18,-535.93"/>
</a>
</g>
</g>
<!-- Node2&#45;&gt;Node4 -->
<g id="edge1685_Node000002_Node000004" class="edge">
<title>Node2&#45;&gt;Node4</title>
<g id="a_edge1685_Node000002_Node000004"><a xlink:title=" ">
<path fill="none" stroke="#63b8ff" d="M94.92,-534.04C109.13,-537.5 124.82,-541.32 139.68,-544.94"/>
<polygon fill="#63b8ff" stroke="#63b8ff" points="95.41,-530.56 84.87,-531.59 93.75,-537.36 95.41,-530.56"/>
</a>
</g>
</g>
<!-- Node2&#45;&gt;Node5 -->
<g id="edge1686_Node000002_Node000005" class="edge">
<title>Node2&#45;&gt;Node5</title>
<g id="a_edge1686_Node000002_Node000005"><a xlink:title=" ">
<path fill="none" stroke="#63b8ff" d="M94.6,-510.04C104.2,-507.7 114.48,-505.2 124.74,-502.7"/>
<polygon fill="#63b8ff" stroke="#63b8ff" points="93.75,-506.64 84.87,-512.41 95.41,-513.44 93.75,-506.64"/>
</a>
</g>
</g>
<!-- Node2&#45;&gt;Node6 -->
<g id="edge1687_Node000002_Node000006" class="edge">
<title>Node2&#45;&gt;Node6</title>
<g id="a_edge1687_Node000002_Node000006"><a xlink:title=" ">
<path fill="none" stroke="#63b8ff" d="M58.82,-504.23C73.63,-485.2 98.93,-454.8 125,-433 129.07,-429.6 133.4,-426.28 137.86,-423.06"/>
<polygon fill="#63b8ff" stroke="#63b8ff" points="55.91,-502.27 52.61,-512.34 61.47,-506.53 55.91,-502.27"/>
</a>
</g>
</g>
<!-- Node2&#45;&gt;Node7 -->
<g id="edge1688_Node000002_Node000007" class="edge">
<title>Node2&#45;&gt;Node7</title>
<g id="a_edge1688_Node000002_Node000007"><a xlink:title=" ">
<path fill="none" stroke="#63b8ff" d="M48.96,-502.24C56.41,-465.43 77.27,-385.94 125,-340 128.6,-336.54 132.64,-333.46 136.94,-330.73"/>
<polygon fill="#63b8ff" stroke="#63b8ff" points="45.5,-501.73 47.07,-512.21 52.38,-503.04 45.5,-501.73"/>
</a>
</g>
</g>
</g>
</svg>
