<?xml version="1.0" encoding="UTF-8" standalone="no"?>
<!DOCTYPE svg PUBLIC "-//W3C//DTD SVG 1.1//EN"
 "http://www.w3.org/Graphics/SVG/1.1/DTD/svg11.dtd">
<!-- Generated by graphviz version 2.43.0 (0)
 -->
<!-- Title: Graphical Class Hierarchy Pages: 1 -->
<svg width="244pt" height="116pt"
 viewBox="0.00 0.00 244.00 115.50" xmlns="http://www.w3.org/2000/svg" xmlns:xlink="http://www.w3.org/1999/xlink">
<g id="graph0" class="graph" transform="scale(1 1) rotate(0) translate(4 111.5)">
<title>Graphical Class Hierarchy</title>
<!-- Node0 -->
<g id="node1" class="node">
<title>Node0</title>
<g id="a_node1"><a xlink:href="classmlir_1_1Value.html" target="_top" xlink:title="This class represents an instance of an SSA value in the MLIR system, representing a computable value...">
<polygon fill="none" stroke="black" points="0,-50 0,-69 69,-69 69,-50 0,-50"/>
<text text-anchor="middle" x="34.5" y="-57" font-family="Helvetica,sans-Serif" font-size="10.00">mlir::Value</text>
</a>
</g>
</g>
<!-- Node1 -->
<g id="node2" class="node">
<title>Node1</title>
<g id="a_node2"><a xlink:href="classmlir_1_1BlockArgument.html" target="_top" xlink:title="This class represents an argument of a Block.">
<polygon fill="none" stroke="black" points="112,-88 112,-107 229,-107 229,-88 112,-88"/>
<text text-anchor="middle" x="170.5" y="-95" font-family="Helvetica,sans-Serif" font-size="10.00">mlir::BlockArgument</text>
</a>
</g>
</g>
<!-- Node0&#45;&gt;Node1 -->
<g id="edge1" class="edge">
<title>Node0&#45;&gt;Node1</title>
<path fill="none" stroke="midnightblue" d="M78.94,-71.82C97.35,-77.04 118.48,-83.03 135.7,-87.91"/>
<polygon fill="midnightblue" stroke="midnightblue" points="79.89,-68.45 69.31,-69.09 77.98,-75.18 79.89,-68.45"/>
</g>
<!-- Node2 -->
<g id="node3" class="node">
<title>Node2</title>
<g id="a_node3"><a xlink:href="classmlir_1_1OpResult.html" target="_top" xlink:title="This is a value defined by a result of an operation.">
<polygon fill="none" stroke="black" points="127.5,-50 127.5,-69 213.5,-69 213.5,-50 127.5,-50"/>
<text text-anchor="middle" x="170.5" y="-57" font-family="Helvetica,sans-Serif" font-size="10.00">mlir::OpResult</text>
</a>
</g>
</g>
<!-- Node0&#45;&gt;Node2 -->
<g id="edge2" class="edge">
<title>Node0&#45;&gt;Node2</title>
<path fill="none" stroke="midnightblue" d="M79.55,-59.5C94.82,-59.5 111.9,-59.5 127.04,-59.5"/>
<polygon fill="midnightblue" stroke="midnightblue" points="79.31,-56 69.31,-59.5 79.31,-63 79.31,-56"/>
</g>
<!-- Node3 -->
<g id="node4" class="node">
<title>Node3</title>
<g id="a_node4"><a xlink:href="structmlir_1_1detail_1_1TypedValue.html" target="_top" xlink:title="TypedValue is a Value with a statically know type.">
<polygon fill="none" stroke="black" points="105,-0.5 105,-30.5 236,-30.5 236,-0.5 105,-0.5"/>
<text text-anchor="start" x="113" y="-18.5" font-family="Helvetica,sans-Serif" font-size="10.00">mlir::detail::TypedValue</text>
<text text-anchor="middle" x="170.5" y="-7.5" font-family="Helvetica,sans-Serif" font-size="10.00">&lt; Ty &gt;</text>
</a>
</g>
</g>
<!-- Node0&#45;&gt;Node3 -->
<g id="edge3" class="edge">
<title>Node0&#45;&gt;Node3</title>
<path fill="none" stroke="midnightblue" d="M74.31,-46.76C89.72,-41.7 107.57,-35.83 123.62,-30.57"/>
<polygon fill="midnightblue" stroke="midnightblue" points="72.99,-43.51 64.58,-49.95 75.17,-50.16 72.99,-43.51"/>
</g>
</g>
</svg>
