<?xml version="1.0" encoding="UTF-8" standalone="no"?>
<!DOCTYPE svg PUBLIC "-//W3C//DTD SVG 1.1//EN"
 "http://www.w3.org/Graphics/SVG/1.1/DTD/svg11.dtd">
<!-- Generated by graphviz version 2.43.0 (0)
 -->
<!-- Title: Graphical Class Hierarchy Pages: 1 -->
<svg width="279pt" height="86pt"
 viewBox="0.00 0.00 279.00 86.00" xmlns="http://www.w3.org/2000/svg" xmlns:xlink="http://www.w3.org/1999/xlink">
<g id="graph0" class="graph" transform="scale(1 1) rotate(0) translate(4 82)">
<title>Graphical Class Hierarchy</title>
<!-- Node0 -->
<g id="Node000000" class="node">
<title>Node0</title>
<g id="a_Node000000"><a xlink:href="classBatchMatmulOp.html" target="_top" xlink:title=" ">
<polygon fill="white" stroke="#666666" points="95,-48.5 0,-48.5 0,-29.5 95,-29.5 95,-48.5"/>
<text text-anchor="middle" x="47.5" y="-36.5" font-family="Helvetica,sans-Serif" font-size="10.00">BatchMatmulOp</text>
</a>
</g>
</g>
<!-- Node1 -->
<g id="Node000001" class="node">
<title>Node1</title>
<g id="a_Node000001"><a xlink:href="classmlir_1_1linalg_1_1BatchMatmulTransposeAOp.html" target="_top" xlink:title="Specialization of linalg.batch_matmul op that has a transpose map on A.">
<polygon fill="white" stroke="#666666" points="271,-78 131,-78 131,-48 271,-48 271,-78"/>
<text text-anchor="start" x="139" y="-66" font-family="Helvetica,sans-Serif" font-size="10.00">mlir::linalg::BatchMatmul</text>
<text text-anchor="middle" x="201" y="-55" font-family="Helvetica,sans-Serif" font-size="10.00">TransposeAOp</text>
</a>
</g>
</g>
<!-- Node0&#45;&gt;Node1 -->
<g id="edge6_Node000000_Node000001" class="edge">
<title>Node0&#45;&gt;Node1</title>
<g id="a_edge6_Node000000_Node000001"><a xlink:title=" ">
<path fill="none" stroke="#63b8ff" d="M105.22,-47.98C113.6,-49.31 122.31,-50.69 130.91,-52.05"/>
<polygon fill="#63b8ff" stroke="#63b8ff" points="105.62,-44.5 95.19,-46.4 104.52,-51.42 105.62,-44.5"/>
</a>
</g>
</g>
<!-- Node2 -->
<g id="Node000002" class="node">
<title>Node2</title>
<g id="a_Node000002"><a xlink:href="classmlir_1_1linalg_1_1BatchMatmulTransposeBOp.html" target="_top" xlink:title="Specialization of linalg.batch_matmul op that has a transpose map on B.">
<polygon fill="white" stroke="#666666" points="271,-30 131,-30 131,0 271,0 271,-30"/>
<text text-anchor="start" x="139" y="-18" font-family="Helvetica,sans-Serif" font-size="10.00">mlir::linalg::BatchMatmul</text>
<text text-anchor="middle" x="201" y="-7" font-family="Helvetica,sans-Serif" font-size="10.00">TransposeBOp</text>
</a>
</g>
</g>
<!-- Node0&#45;&gt;Node2 -->
<g id="edge7_Node000000_Node000002" class="edge">
<title>Node0&#45;&gt;Node2</title>
<g id="a_edge7_Node000000_Node000002"><a xlink:title=" ">
<path fill="none" stroke="#63b8ff" d="M105.22,-30.02C113.6,-28.69 122.31,-27.31 130.91,-25.95"/>
<polygon fill="#63b8ff" stroke="#63b8ff" points="104.52,-26.58 95.19,-31.6 105.62,-33.5 104.52,-26.58"/>
</a>
</g>
</g>
</g>
</svg>
