<?xml version="1.0" encoding="UTF-8" standalone="no"?>
<!DOCTYPE svg PUBLIC "-//W3C//DTD SVG 1.1//EN"
 "http://www.w3.org/Graphics/SVG/1.1/DTD/svg11.dtd">
<!-- Generated by graphviz version 2.43.0 (0)
 -->
<!-- Title: Graphical Class Hierarchy Pages: 1 -->
<svg width="493pt" height="82pt"
 viewBox="0.00 0.00 493.00 82.00" xmlns="http://www.w3.org/2000/svg" xmlns:xlink="http://www.w3.org/1999/xlink">
<g id="graph0" class="graph" transform="scale(1 1) rotate(0) translate(4 78)">
<title>Graphical Class Hierarchy</title>
<!-- Node0 -->
<g id="Node000000" class="node">
<title>Node0</title>
<g id="a_Node000000"><a xlink:href="classmlir_1_1tblgen_1_1Pred.html" target="_top" xlink:title=" ">
<polygon fill="white" stroke="#666666" points="101,-55 0,-55 0,-36 101,-36 101,-55"/>
<text text-anchor="middle" x="50.5" y="-43" font-family="Helvetica,sans-Serif" font-size="10.00">mlir::tblgen::Pred</text>
</a>
</g>
</g>
<!-- Node1 -->
<g id="Node000001" class="node">
<title>Node1</title>
<g id="a_Node000001"><a xlink:href="classmlir_1_1tblgen_1_1CPred.html" target="_top" xlink:title=" ">
<polygon fill="white" stroke="#666666" points="265.5,-74 158.5,-74 158.5,-55 265.5,-55 265.5,-74"/>
<text text-anchor="middle" x="212" y="-62" font-family="Helvetica,sans-Serif" font-size="10.00">mlir::tblgen::CPred</text>
</a>
</g>
</g>
<!-- Node0&#45;&gt;Node1 -->
<g id="edge1592_Node000000_Node000001" class="edge">
<title>Node0&#45;&gt;Node1</title>
<g id="a_edge1592_Node000000_Node000001"><a xlink:title=" ">
<path fill="none" stroke="#63b8ff" d="M111.11,-52.6C126.64,-54.45 143.26,-56.43 158.4,-58.23"/>
<polygon fill="#63b8ff" stroke="#63b8ff" points="111.44,-49.12 101.09,-51.41 110.61,-56.07 111.44,-49.12"/>
</a>
</g>
</g>
<!-- Node2 -->
<g id="Node000002" class="node">
<title>Node2</title>
<g id="a_Node000002"><a xlink:href="classmlir_1_1tblgen_1_1CombinedPred.html" target="_top" xlink:title=" ">
<polygon fill="white" stroke="#666666" points="287,-37 137,-37 137,-18 287,-18 287,-37"/>
<text text-anchor="middle" x="212" y="-25" font-family="Helvetica,sans-Serif" font-size="10.00">mlir::tblgen::CombinedPred</text>
</a>
</g>
</g>
<!-- Node0&#45;&gt;Node2 -->
<g id="edge1593_Node000000_Node000002" class="edge">
<title>Node0&#45;&gt;Node2</title>
<g id="a_edge1593_Node000000_Node000002"><a xlink:title=" ">
<path fill="none" stroke="#63b8ff" d="M111.14,-38.77C119.52,-37.82 128.23,-36.84 136.85,-35.87"/>
<polygon fill="#63b8ff" stroke="#63b8ff" points="110.64,-35.3 101.09,-39.9 111.42,-42.26 110.64,-35.3"/>
</a>
</g>
</g>
<!-- Node3 -->
<g id="Node000003" class="node">
<title>Node3</title>
<g id="a_Node000003"><a xlink:href="classmlir_1_1tblgen_1_1ConcatPred.html" target="_top" xlink:title=" ">
<polygon fill="white" stroke="#666666" points="471,-56 337,-56 337,-37 471,-37 471,-56"/>
<text text-anchor="middle" x="404" y="-44" font-family="Helvetica,sans-Serif" font-size="10.00">mlir::tblgen::ConcatPred</text>
</a>
</g>
</g>
<!-- Node2&#45;&gt;Node3 -->
<g id="edge1594_Node000002_Node000003" class="edge">
<title>Node2&#45;&gt;Node3</title>
<g id="a_edge1594_Node000002_Node000003"><a xlink:title=" ">
<path fill="none" stroke="#63b8ff" d="M297.13,-35.91C310.46,-37.25 324.09,-38.61 336.93,-39.89"/>
<polygon fill="#63b8ff" stroke="#63b8ff" points="297.3,-32.41 287,-34.9 296.61,-39.38 297.3,-32.41"/>
</a>
</g>
</g>
<!-- Node4 -->
<g id="Node000004" class="node">
<title>Node4</title>
<g id="a_Node000004"><a xlink:href="classmlir_1_1tblgen_1_1SubstLeavesPred.html" target="_top" xlink:title=" ">
<polygon fill="white" stroke="#666666" points="485,-19 323,-19 323,0 485,0 485,-19"/>
<text text-anchor="middle" x="404" y="-7" font-family="Helvetica,sans-Serif" font-size="10.00">mlir::tblgen::SubstLeavesPred</text>
</a>
</g>
</g>
<!-- Node2&#45;&gt;Node4 -->
<g id="edge1595_Node000002_Node000004" class="edge">
<title>Node2&#45;&gt;Node4</title>
<g id="a_edge1595_Node000002_Node000004"><a xlink:title=" ">
<path fill="none" stroke="#63b8ff" d="M297.03,-19.54C305.63,-18.72 314.35,-17.9 322.91,-17.09"/>
<polygon fill="#63b8ff" stroke="#63b8ff" points="296.63,-16.06 287,-20.49 297.29,-23.03 296.63,-16.06"/>
</a>
</g>
</g>
</g>
</svg>
