<?xml version="1.0" encoding="UTF-8" standalone="no"?>
<!DOCTYPE svg PUBLIC "-//W3C//DTD SVG 1.1//EN"
 "http://www.w3.org/Graphics/SVG/1.1/DTD/svg11.dtd">
<!-- Generated by graphviz version 2.43.0 (0)
 -->
<!-- Title: Graphical Class Hierarchy Pages: 1 -->
<svg width="1023pt" height="39pt"
 viewBox="0.00 0.00 1023.00 39.00" xmlns="http://www.w3.org/2000/svg" xmlns:xlink="http://www.w3.org/1999/xlink">
<g id="graph0" class="graph" transform="scale(1 1) rotate(0) translate(4 35)">
<title>Graphical Class Hierarchy</title>
<!-- Node0 -->
<g id="node1" class="node">
<title>Node0</title>
<g id="a_node1"><a xlink:href="classmlir_1_1presburger_1_1IntegerRelation.html" target="_top" xlink:title="An IntegerRelation represents the set of points from a PresburgerSpace that satisfy a list of affine ...">
<polygon fill="none" stroke="black" points="0,-0.5 0,-30.5 135,-30.5 135,-0.5 0,-0.5"/>
<text text-anchor="start" x="8" y="-18.5" font-family="Helvetica,sans-Serif" font-size="10.00">mlir::presburger::Integer</text>
<text text-anchor="middle" x="67.5" y="-7.5" font-family="Helvetica,sans-Serif" font-size="10.00">Relation</text>
</a>
</g>
</g>
<!-- Node1 -->
<g id="node2" class="node">
<title>Node1</title>
<g id="a_node2"><a xlink:href="classmlir_1_1presburger_1_1IntegerPolyhedron.html" target="_top" xlink:title="An IntegerPolyhedron represents the set of points from a PresburgerSpace that satisfy a list of affin...">
<polygon fill="none" stroke="black" points="171,-0.5 171,-30.5 306,-30.5 306,-0.5 171,-0.5"/>
<text text-anchor="start" x="179" y="-18.5" font-family="Helvetica,sans-Serif" font-size="10.00">mlir::presburger::Integer</text>
<text text-anchor="middle" x="238.5" y="-7.5" font-family="Helvetica,sans-Serif" font-size="10.00">Polyhedron</text>
</a>
</g>
</g>
<!-- Node0&#45;&gt;Node1 -->
<g id="edge1" class="edge">
<title>Node0&#45;&gt;Node1</title>
<path fill="none" stroke="midnightblue" d="M145.55,-15.5C154.02,-15.5 162.59,-15.5 170.92,-15.5"/>
<polygon fill="midnightblue" stroke="midnightblue" points="145.29,-12 135.29,-15.5 145.29,-19 145.29,-12"/>
</g>
<!-- Node2 -->
<g id="node3" class="node">
<title>Node2</title>
<g id="a_node3"><a xlink:href="classmlir_1_1FlatLinearConstraints.html" target="_top" xlink:title="FlatLinearConstraints is an extension of IntegerPolyhedron.">
<polygon fill="none" stroke="black" points="342,-6 342,-25 488,-25 488,-6 342,-6"/>
<text text-anchor="middle" x="415" y="-13" font-family="Helvetica,sans-Serif" font-size="10.00">mlir::FlatLinearConstraints</text>
</a>
</g>
</g>
<!-- Node1&#45;&gt;Node2 -->
<g id="edge2" class="edge">
<title>Node1&#45;&gt;Node2</title>
<path fill="none" stroke="midnightblue" d="M316.66,-15.5C325.08,-15.5 333.63,-15.5 341.99,-15.5"/>
<polygon fill="midnightblue" stroke="midnightblue" points="316.47,-12 306.47,-15.5 316.47,-19 316.47,-12"/>
</g>
<!-- Node3 -->
<g id="node4" class="node">
<title>Node3</title>
<g id="a_node4"><a xlink:href="classmlir_1_1FlatLinearValueConstraints.html" target="_top" xlink:title="FlatLinearValueConstraints represents an extension of FlatLinearConstraints where each non&#45;local vari...">
<polygon fill="none" stroke="black" points="524,-6 524,-25 697,-25 697,-6 524,-6"/>
<text text-anchor="middle" x="610.5" y="-13" font-family="Helvetica,sans-Serif" font-size="10.00">mlir::FlatLinearValueConstraints</text>
</a>
</g>
</g>
<!-- Node2&#45;&gt;Node3 -->
<g id="edge3" class="edge">
<title>Node2&#45;&gt;Node3</title>
<path fill="none" stroke="midnightblue" d="M498.32,-15.5C506.82,-15.5 515.46,-15.5 523.99,-15.5"/>
<polygon fill="midnightblue" stroke="midnightblue" points="498.05,-12 488.05,-15.5 498.05,-19 498.05,-12"/>
</g>
<!-- Node4 -->
<g id="node5" class="node">
<title>Node4</title>
<g id="a_node5"><a xlink:href="classmlir_1_1affine_1_1FlatAffineValueConstraints.html" target="_top" xlink:title="FlatAffineValueConstraints is an extension of FlatLinearValueConstraints with helper functions for Af...">
<polygon fill="none" stroke="black" points="733,-0.5 733,-30.5 856,-30.5 856,-0.5 733,-0.5"/>
<text text-anchor="start" x="741" y="-18.5" font-family="Helvetica,sans-Serif" font-size="10.00">mlir::affine::FlatAffine</text>
<text text-anchor="middle" x="794.5" y="-7.5" font-family="Helvetica,sans-Serif" font-size="10.00">ValueConstraints</text>
</a>
</g>
</g>
<!-- Node3&#45;&gt;Node4 -->
<g id="edge4" class="edge">
<title>Node3&#45;&gt;Node4</title>
<path fill="none" stroke="midnightblue" d="M707.37,-15.5C716.06,-15.5 724.68,-15.5 732.93,-15.5"/>
<polygon fill="midnightblue" stroke="midnightblue" points="707.17,-12 697.17,-15.5 707.17,-19 707.17,-12"/>
</g>
<!-- Node5 -->
<g id="node6" class="node">
<title>Node5</title>
<g id="a_node6"><a xlink:href="classmlir_1_1affine_1_1FlatAffineRelation.html" target="_top" xlink:title="A FlatAffineRelation represents a set of ordered pairs (domain &#45;&gt; range) where &quot;domain&quot; and &quot;range&quot; a...">
<polygon fill="none" stroke="black" points="892,-0.5 892,-30.5 1015,-30.5 1015,-0.5 892,-0.5"/>
<text text-anchor="start" x="900" y="-18.5" font-family="Helvetica,sans-Serif" font-size="10.00">mlir::affine::FlatAffine</text>
<text text-anchor="middle" x="953.5" y="-7.5" font-family="Helvetica,sans-Serif" font-size="10.00">Relation</text>
</a>
</g>
</g>
<!-- Node4&#45;&gt;Node5 -->
<g id="edge5" class="edge">
<title>Node4&#45;&gt;Node5</title>
<path fill="none" stroke="midnightblue" d="M866.21,-15.5C874.81,-15.5 883.53,-15.5 891.96,-15.5"/>
<polygon fill="midnightblue" stroke="midnightblue" points="866.2,-12 856.2,-15.5 866.2,-19 866.2,-12"/>
</g>
</g>
</svg>
