<?xml version="1.0" encoding="UTF-8" standalone="no"?>
<!DOCTYPE svg PUBLIC "-//W3C//DTD SVG 1.1//EN"
 "http://www.w3.org/Graphics/SVG/1.1/DTD/svg11.dtd">
<!-- Generated by graphviz version 2.43.0 (0)
 -->
<!-- Title: Graphical Class Hierarchy Pages: 1 -->
<svg width="320pt" height="66pt"
 viewBox="0.00 0.00 320.00 66.00" xmlns="http://www.w3.org/2000/svg" xmlns:xlink="http://www.w3.org/1999/xlink">
<g id="graph0" class="graph" transform="scale(1 1) rotate(0) translate(4 62)">
<title>Graphical Class Hierarchy</title>
<!-- Node0 -->
<g id="node1" class="node">
<title>Node0</title>
<g id="a_node1"><a xlink:href="structmlir_1_1tracing_1_1ExecutionContext_1_1Observer.html" target="_top" xlink:title="This abstract class defines the interface used to observe an Action execution.">
<polygon fill="none" stroke="black" points="0,-14 0,-44 129,-44 129,-14 0,-14"/>
<text text-anchor="start" x="8" y="-32" font-family="Helvetica,sans-Serif" font-size="10.00">mlir::tracing::Execution</text>
<text text-anchor="middle" x="64.5" y="-21" font-family="Helvetica,sans-Serif" font-size="10.00">Context::Observer</text>
</a>
</g>
</g>
<!-- Node1 -->
<g id="node2" class="node">
<title>Node1</title>
<g id="a_node2"><a xlink:href="structmlir_1_1tracing_1_1ActionLogger.html" target="_top" xlink:title="This class defines an observer that print Actions before and after execution on the provided stream.">
<polygon fill="none" stroke="black" points="165.5,-38.5 165.5,-57.5 311.5,-57.5 311.5,-38.5 165.5,-38.5"/>
<text text-anchor="middle" x="238.5" y="-45.5" font-family="Helvetica,sans-Serif" font-size="10.00">mlir::tracing::ActionLogger</text>
</a>
</g>
</g>
<!-- Node0&#45;&gt;Node1 -->
<g id="edge1" class="edge">
<title>Node0&#45;&gt;Node1</title>
<path fill="none" stroke="midnightblue" d="M139.11,-37.13C147.76,-38.09 156.58,-39.06 165.21,-40.01"/>
<polygon fill="midnightblue" stroke="midnightblue" points="139.38,-33.64 129.06,-36.02 138.61,-40.6 139.38,-33.64"/>
</g>
<!-- Node2 -->
<g id="node3" class="node">
<title>Node2</title>
<g id="a_node3"><a xlink:href="structmlir_1_1tracing_1_1ActionProfiler.html" target="_top" xlink:title="This class defines an observer that profiles events before and after execution on the provided stream...">
<polygon fill="none" stroke="black" points="165,-0.5 165,-19.5 312,-19.5 312,-0.5 165,-0.5"/>
<text text-anchor="middle" x="238.5" y="-7.5" font-family="Helvetica,sans-Serif" font-size="10.00">mlir::tracing::ActionProfiler</text>
</a>
</g>
</g>
<!-- Node0&#45;&gt;Node2 -->
<g id="edge2" class="edge">
<title>Node0&#45;&gt;Node2</title>
<path fill="none" stroke="midnightblue" d="M139.03,-20.88C147.61,-19.93 156.35,-18.96 164.92,-18.02"/>
<polygon fill="midnightblue" stroke="midnightblue" points="138.61,-17.4 129.06,-21.98 139.38,-24.36 138.61,-17.4"/>
</g>
</g>
</svg>
