<?xml version="1.0" encoding="UTF-8" standalone="no"?>
<!DOCTYPE svg PUBLIC "-//W3C//DTD SVG 1.1//EN"
 "http://www.w3.org/Graphics/SVG/1.1/DTD/svg11.dtd">
<!-- Generated by graphviz version 2.43.0 (0)
 -->
<!-- Title: Graphical Class Hierarchy Pages: 1 -->
<svg width="268pt" height="198pt"
 viewBox="0.00 0.00 268.00 197.50" xmlns="http://www.w3.org/2000/svg" xmlns:xlink="http://www.w3.org/1999/xlink">
<g id="graph0" class="graph" transform="scale(1 1) rotate(0) translate(4 193.5)">
<title>Graphical Class Hierarchy</title>
<!-- Node2470 -->
<g id="node1" class="node">
<title>Node2470</title>
<g id="a_node1"><a xlink:title=" ">
<polygon fill="none" stroke="#bfbfbf" points="0,-90.5 0,-109.5 84,-109.5 84,-90.5 0,-90.5"/>
<text text-anchor="middle" x="42" y="-97.5" font-family="Helvetica,sans-Serif" font-size="10.00">std::true_type</text>
</a>
</g>
</g>
<!-- Node0 -->
<g id="node2" class="node">
<title>Node0</title>
<g id="a_node2"><a xlink:href="structmlir_1_1detail_1_1is__complex__t_3_01std_1_1complex_3_01T_01_4_01_4.html" target="_top" xlink:title=" ">
<polygon fill="none" stroke="black" points="120,-159 120,-189 260,-189 260,-159 120,-159"/>
<text text-anchor="start" x="128" y="-177" font-family="Helvetica,sans-Serif" font-size="10.00">mlir::detail::is_complex</text>
<text text-anchor="middle" x="190" y="-166" font-family="Helvetica,sans-Serif" font-size="10.00">_t&lt; std::complex&lt; T &gt; &gt;</text>
</a>
</g>
</g>
<!-- Node2470&#45;&gt;Node0 -->
<g id="edge1" class="edge">
<title>Node2470&#45;&gt;Node0</title>
<path fill="none" stroke="midnightblue" d="M63.89,-115.54C78.93,-126.23 100.02,-140.21 120,-150 126.61,-153.23 133.76,-156.24 140.88,-158.94"/>
<polygon fill="midnightblue" stroke="midnightblue" points="65.94,-112.7 55.78,-109.68 61.83,-118.38 65.94,-112.7"/>
</g>
<!-- Node2472 -->
<g id="node3" class="node">
<title>Node2472</title>
<g id="a_node3"><a xlink:href="structmlir_1_1detail_1_1is__pair_3_01std_1_1pair_3_01Ts_8_8_8_01_4_01_4.html" target="_top" xlink:title=" ">
<polygon fill="none" stroke="black" points="130,-110 130,-140 250,-140 250,-110 130,-110"/>
<text text-anchor="start" x="138" y="-128" font-family="Helvetica,sans-Serif" font-size="10.00">mlir::detail::is_pair</text>
<text text-anchor="middle" x="190" y="-117" font-family="Helvetica,sans-Serif" font-size="10.00">&lt; std::pair&lt; Ts... &gt; &gt;</text>
</a>
</g>
</g>
<!-- Node2470&#45;&gt;Node2472 -->
<g id="edge2" class="edge">
<title>Node2470&#45;&gt;Node2472</title>
<path fill="none" stroke="midnightblue" d="M93.96,-108.73C105.51,-110.7 117.87,-112.82 129.73,-114.85"/>
<polygon fill="midnightblue" stroke="midnightblue" points="94.5,-105.27 84.06,-107.03 93.32,-112.17 94.5,-105.27"/>
</g>
<!-- Node2473 -->
<g id="node4" class="node">
<title>Node2473</title>
<g id="a_node4"><a xlink:href="structmlir_1_1detail_1_1is__tuple_3_01std_1_1tuple_3_01Ts_8_8_8_01_4_01_4.html" target="_top" xlink:title=" ">
<polygon fill="none" stroke="black" points="127,-61 127,-91 253,-91 253,-61 127,-61"/>
<text text-anchor="start" x="135" y="-79" font-family="Helvetica,sans-Serif" font-size="10.00">mlir::detail::is_tuple</text>
<text text-anchor="middle" x="190" y="-68" font-family="Helvetica,sans-Serif" font-size="10.00">&lt; std::tuple&lt; Ts... &gt; &gt;</text>
</a>
</g>
</g>
<!-- Node2470&#45;&gt;Node2473 -->
<g id="edge3" class="edge">
<title>Node2470&#45;&gt;Node2473</title>
<path fill="none" stroke="midnightblue" d="M94.02,-91.61C104.66,-89.86 115.99,-88 126.98,-86.19"/>
<polygon fill="midnightblue" stroke="midnightblue" points="93.36,-88.17 84.06,-93.25 94.49,-95.08 93.36,-88.17"/>
</g>
<!-- Node2474 -->
<g id="node5" class="node">
<title>Node2474</title>
<g id="a_node5"><a xlink:href="structmlir_1_1sparse__tensor_1_1detail_1_1is__complex_3_01std_1_1complex_3_01T_01_4_01_4.html" target="_top" xlink:title=" ">
<polygon fill="none" stroke="black" points="124.5,-0.5 124.5,-41.5 255.5,-41.5 255.5,-0.5 124.5,-0.5"/>
<text text-anchor="start" x="132.5" y="-29.5" font-family="Helvetica,sans-Serif" font-size="10.00">mlir::sparse_tensor</text>
<text text-anchor="start" x="132.5" y="-18.5" font-family="Helvetica,sans-Serif" font-size="10.00">::detail::is_complex</text>
<text text-anchor="middle" x="190" y="-7.5" font-family="Helvetica,sans-Serif" font-size="10.00">&lt; std::complex&lt; T &gt; &gt;</text>
</a>
</g>
</g>
<!-- Node2470&#45;&gt;Node2474 -->
<g id="edge4" class="edge">
<title>Node2470&#45;&gt;Node2474</title>
<path fill="none" stroke="midnightblue" d="M65.77,-84.67C80.85,-74.8 101.24,-62 120,-52 126.72,-48.42 133.94,-44.87 141.08,-41.52"/>
<polygon fill="midnightblue" stroke="midnightblue" points="63.54,-81.95 57.13,-90.38 67.4,-87.79 63.54,-81.95"/>
</g>
</g>
</svg>
