<?xml version="1.0" encoding="UTF-8" standalone="no"?>
<!DOCTYPE svg PUBLIC "-//W3C//DTD SVG 1.1//EN"
 "http://www.w3.org/Graphics/SVG/1.1/DTD/svg11.dtd">
<!-- Generated by graphviz version 2.43.0 (0)
 -->
<!-- Title: Graphical Class Hierarchy Pages: 1 -->
<svg width="476pt" height="252pt"
 viewBox="0.00 0.00 476.00 252.00" xmlns="http://www.w3.org/2000/svg" xmlns:xlink="http://www.w3.org/1999/xlink">
<g id="graph0" class="graph" transform="scale(1 1) rotate(0) translate(4 248)">
<title>Graphical Class Hierarchy</title>
<!-- Node2274 -->
<g id="node1" class="node">
<title>Node2274</title>
<g id="a_node1"><a xlink:title=" ">
<polygon fill="none" stroke="#bfbfbf" points="0,-195.5 0,-214.5 102,-214.5 102,-195.5 0,-195.5"/>
<text text-anchor="middle" x="51" y="-202.5" font-family="Helvetica,sans-Serif" font-size="10.00">ShapedType::Trait</text>
</a>
</g>
</g>
<!-- Node0 -->
<g id="node2" class="node">
<title>Node0</title>
<g id="a_node2"><a xlink:href="classmlir_1_1BaseMemRefType.html" target="_top" xlink:title="This class provides a shared interface for ranked and unranked memref types.">
<polygon fill="none" stroke="black" points="147,-224.5 147,-243.5 277,-243.5 277,-224.5 147,-224.5"/>
<text text-anchor="middle" x="212" y="-231.5" font-family="Helvetica,sans-Serif" font-size="10.00">mlir::BaseMemRefType</text>
</a>
</g>
</g>
<!-- Node2274&#45;&gt;Node0 -->
<g id="edge1" class="edge">
<title>Node2274&#45;&gt;Node0</title>
<path fill="none" stroke="midnightblue" d="M112.22,-215.98C127.56,-218.78 143.92,-221.77 158.83,-224.48"/>
<polygon fill="midnightblue" stroke="midnightblue" points="112.77,-212.53 102.31,-214.18 111.52,-219.41 112.77,-212.53"/>
</g>
<!-- Node2276 -->
<g id="node3" class="node">
<title>Node2276</title>
<g id="a_node3"><a xlink:href="classmlir_1_1TensorType.html" target="_top" xlink:title="Tensor types represent multi&#45;dimensional arrays, and have two variants: RankedTensorType and Unranked...">
<polygon fill="none" stroke="black" points="164,-186.5 164,-205.5 260,-205.5 260,-186.5 164,-186.5"/>
<text text-anchor="middle" x="212" y="-193.5" font-family="Helvetica,sans-Serif" font-size="10.00">mlir::TensorType</text>
</a>
</g>
</g>
<!-- Node2274&#45;&gt;Node2276 -->
<g id="edge2" class="edge">
<title>Node2274&#45;&gt;Node2276</title>
<path fill="none" stroke="midnightblue" d="M112.71,-201.56C129.7,-200.6 147.92,-199.57 163.99,-198.66"/>
<polygon fill="midnightblue" stroke="midnightblue" points="112.09,-198.09 102.31,-202.15 112.49,-205.08 112.09,-198.09"/>
</g>
<!-- Node2495 -->
<g id="node4" class="node">
<title>Node2495</title>
<g id="a_node4"><a xlink:href="classmlir_1_1Type.html" target="_top" xlink:title="Instances of the Type class are uniqued, have an immutable identifier and an optional mutable compone...">
<polygon fill="none" stroke="black" points="18.5,-138.5 18.5,-157.5 83.5,-157.5 83.5,-138.5 18.5,-138.5"/>
<text text-anchor="middle" x="51" y="-145.5" font-family="Helvetica,sans-Serif" font-size="10.00">mlir::Type</text>
</a>
</g>
</g>
<!-- Node2495&#45;&gt;Node0 -->
<g id="edge5" class="edge">
<title>Node2495&#45;&gt;Node0</title>
<path fill="none" stroke="midnightblue" d="M72.87,-163.65C81.87,-170.46 92.5,-178.57 102,-186 118.18,-198.66 119.65,-205.76 138,-215 145.6,-218.83 154.05,-221.94 162.43,-224.44"/>
<polygon fill="midnightblue" stroke="midnightblue" points="74.91,-160.81 64.82,-157.58 70.7,-166.4 74.91,-160.81"/>
</g>
<!-- Node2495&#45;&gt;Node2276 -->
<g id="edge6" class="edge">
<title>Node2495&#45;&gt;Node2276</title>
<path fill="none" stroke="midnightblue" d="M88.18,-160.83C103.47,-166.09 121.53,-172.09 138,-177 149.04,-180.29 161.12,-183.57 172.22,-186.45"/>
<polygon fill="midnightblue" stroke="midnightblue" points="89.17,-157.47 78.57,-157.5 86.88,-164.08 89.17,-157.47"/>
</g>
<!-- Node2496 -->
<g id="node5" class="node">
<title>Node2496</title>
<g id="a_node5"><a xlink:href="classmlir_1_1detail_1_1Interface.html" target="_top" xlink:title=" ">
<polygon fill="none" stroke="black" points="149.5,-39 149.5,-91 274.5,-91 274.5,-39 149.5,-39"/>
<text text-anchor="start" x="157.5" y="-79" font-family="Helvetica,sans-Serif" font-size="10.00">mlir::detail::Interface</text>
<text text-anchor="start" x="157.5" y="-68" font-family="Helvetica,sans-Serif" font-size="10.00">&lt; ConcreteType, Type,</text>
<text text-anchor="start" x="157.5" y="-57" font-family="Helvetica,sans-Serif" font-size="10.00"> Traits, Type, TypeTrait</text>
<text text-anchor="middle" x="212" y="-46" font-family="Helvetica,sans-Serif" font-size="10.00">::TraitBase &gt;</text>
</a>
</g>
</g>
<!-- Node2495&#45;&gt;Node2496 -->
<g id="edge3" class="edge">
<title>Node2495&#45;&gt;Node2496</title>
<path fill="none" stroke="midnightblue" d="M77.82,-133.52C94.82,-124.08 117.62,-111.59 138,-101 144.27,-97.74 150.88,-94.38 157.45,-91.09"/>
<polygon fill="midnightblue" stroke="midnightblue" points="76.05,-130.5 69.02,-138.42 79.46,-136.61 76.05,-130.5"/>
</g>
<!-- Node2498 -->
<g id="node7" class="node">
<title>Node2498</title>
<g id="a_node7"><a xlink:href="classmlir_1_1pdl_1_1PDLType.html" target="_top" xlink:title="This class represents the base class of all PDL types.">
<polygon fill="none" stroke="black" points="160,-0.5 160,-19.5 264,-19.5 264,-0.5 160,-0.5"/>
<text text-anchor="middle" x="212" y="-7.5" font-family="Helvetica,sans-Serif" font-size="10.00">mlir::pdl::PDLType</text>
</a>
</g>
</g>
<!-- Node2495&#45;&gt;Node2498 -->
<g id="edge7" class="edge">
<title>Node2495&#45;&gt;Node2498</title>
<path fill="none" stroke="midnightblue" d="M60.58,-128.87C73.5,-102.31 100.48,-54.66 138,-29 144.59,-24.49 152.19,-21.05 159.94,-18.43"/>
<polygon fill="midnightblue" stroke="midnightblue" points="57.27,-127.69 56.19,-138.23 63.61,-130.66 57.27,-127.69"/>
</g>
<!-- Node2499 -->
<g id="node8" class="node">
<title>Node2499</title>
<g id="a_node8"><a xlink:href="classmlir_1_1quant_1_1QuantizedType.html" target="_top" xlink:title="Base class for all quantized types known to this dialect.">
<polygon fill="none" stroke="black" points="138,-148.5 138,-167.5 286,-167.5 286,-148.5 138,-148.5"/>
<text text-anchor="middle" x="212" y="-155.5" font-family="Helvetica,sans-Serif" font-size="10.00">mlir::quant::QuantizedType</text>
</a>
</g>
</g>
<!-- Node2495&#45;&gt;Node2499 -->
<g id="edge8" class="edge">
<title>Node2495&#45;&gt;Node2499</title>
<path fill="none" stroke="midnightblue" d="M94.14,-150.65C107.57,-151.5 122.86,-152.46 137.84,-153.4"/>
<polygon fill="midnightblue" stroke="midnightblue" points="93.99,-147.13 83.79,-150 93.55,-154.12 93.99,-147.13"/>
</g>
<!-- Node2500 -->
<g id="node9" class="node">
<title>Node2500</title>
<g id="a_node9"><a xlink:href="classmlir_1_1spirv_1_1SPIRVType.html" target="_top" xlink:title=" ">
<polygon fill="none" stroke="black" points="151,-110.5 151,-129.5 273,-129.5 273,-110.5 151,-110.5"/>
<text text-anchor="middle" x="212" y="-117.5" font-family="Helvetica,sans-Serif" font-size="10.00">mlir::spirv::SPIRVType</text>
</a>
</g>
</g>
<!-- Node2495&#45;&gt;Node2500 -->
<g id="edge9" class="edge">
<title>Node2495&#45;&gt;Node2500</title>
<path fill="none" stroke="midnightblue" d="M93.81,-140.64C113.16,-137.23 136.38,-133.14 157.03,-129.5"/>
<polygon fill="midnightblue" stroke="midnightblue" points="93.04,-137.22 83.79,-142.4 94.25,-144.11 93.04,-137.22"/>
</g>
<!-- Node2497 -->
<g id="node6" class="node">
<title>Node2497</title>
<g id="a_node6"><a xlink:href="classmlir_1_1TypeInterface.html" target="_top" xlink:title="This class represents the base of a type interface.">
<polygon fill="none" stroke="black" points="326.5,-50 326.5,-80 463.5,-80 463.5,-50 326.5,-50"/>
<text text-anchor="start" x="334.5" y="-68" font-family="Helvetica,sans-Serif" font-size="10.00">mlir::TypeInterface</text>
<text text-anchor="middle" x="395" y="-57" font-family="Helvetica,sans-Serif" font-size="10.00">&lt; ConcreteType, Traits &gt;</text>
</a>
</g>
</g>
<!-- Node2496&#45;&gt;Node2497 -->
<g id="edge4" class="edge">
<title>Node2496&#45;&gt;Node2497</title>
<path fill="none" stroke="midnightblue" d="M284.87,-65C298.57,-65 312.87,-65 326.43,-65"/>
<polygon fill="midnightblue" stroke="midnightblue" points="284.53,-61.5 274.53,-65 284.53,-68.5 284.53,-61.5"/>
</g>
<!-- Node2501 -->
<g id="node10" class="node">
<title>Node2501</title>
<g id="a_node10"><a xlink:href="classmlir_1_1spirv_1_1CompositeType.html" target="_top" xlink:title=" ">
<polygon fill="none" stroke="black" points="322,-142.5 322,-161.5 468,-161.5 468,-142.5 322,-142.5"/>
<text text-anchor="middle" x="395" y="-149.5" font-family="Helvetica,sans-Serif" font-size="10.00">mlir::spirv::CompositeType</text>
</a>
</g>
</g>
<!-- Node2500&#45;&gt;Node2501 -->
<g id="edge10" class="edge">
<title>Node2500&#45;&gt;Node2501</title>
<path fill="none" stroke="midnightblue" d="M276.78,-131.28C297.46,-134.93 320.19,-138.95 340.08,-142.47"/>
<polygon fill="midnightblue" stroke="midnightblue" points="277.27,-127.81 266.82,-129.51 276.05,-134.7 277.27,-127.81"/>
</g>
<!-- Node2502 -->
<g id="node11" class="node">
<title>Node2502</title>
<g id="a_node11"><a xlink:href="classmlir_1_1spirv_1_1ScalarType.html" target="_top" xlink:title=" ">
<polygon fill="none" stroke="black" points="333,-104.5 333,-123.5 457,-123.5 457,-104.5 333,-104.5"/>
<text text-anchor="middle" x="395" y="-111.5" font-family="Helvetica,sans-Serif" font-size="10.00">mlir::spirv::ScalarType</text>
</a>
</g>
</g>
<!-- Node2500&#45;&gt;Node2502 -->
<g id="edge11" class="edge">
<title>Node2500&#45;&gt;Node2502</title>
<path fill="none" stroke="midnightblue" d="M283.11,-117.68C299.53,-117.13 316.91,-116.56 332.91,-116.03"/>
<polygon fill="midnightblue" stroke="midnightblue" points="282.9,-114.18 273.02,-118.01 283.13,-121.18 282.9,-114.18"/>
</g>
</g>
</svg>
