<?xml version="1.0" encoding="UTF-8" standalone="no"?>
<!DOCTYPE svg PUBLIC "-//W3C//DTD SVG 1.1//EN"
 "http://www.w3.org/Graphics/SVG/1.1/DTD/svg11.dtd">
<!-- Generated by graphviz version 2.43.0 (0)
 -->
<!-- Title: Graphical Class Hierarchy Pages: 1 -->
<svg width="300pt" height="88pt"
 viewBox="0.00 0.00 300.00 88.00" xmlns="http://www.w3.org/2000/svg" xmlns:xlink="http://www.w3.org/1999/xlink">
<g id="graph0" class="graph" transform="scale(1 1) rotate(0) translate(4 84)">
<title>Graphical Class Hierarchy</title>
<!-- Node988 -->
<g id="node1" class="node">
<title>Node988</title>
<g id="a_node1"><a xlink:title=" ">
<polygon fill="none" stroke="#bfbfbf" points="0,-30 0,-49 108,-49 108,-30 0,-30"/>
<text text-anchor="middle" x="54" y="-37" font-family="Helvetica,sans-Serif" font-size="10.00">llvm::filter_iterator</text>
</a>
</g>
</g>
<!-- Node0 -->
<g id="node2" class="node">
<title>Node0</title>
<g id="a_node2"><a xlink:href="classmlir_1_1Operation_1_1dialect__attr__iterator.html" target="_top" xlink:title="A utility iterator that filters out non&#45;dialect attributes.">
<polygon fill="none" stroke="black" points="153.5,-49.5 153.5,-79.5 282.5,-79.5 282.5,-49.5 153.5,-49.5"/>
<text text-anchor="start" x="161.5" y="-67.5" font-family="Helvetica,sans-Serif" font-size="10.00">mlir::Operation::dialect</text>
<text text-anchor="middle" x="218" y="-56.5" font-family="Helvetica,sans-Serif" font-size="10.00">_attr_iterator</text>
</a>
</g>
</g>
<!-- Node988&#45;&gt;Node0 -->
<g id="edge1" class="edge">
<title>Node988&#45;&gt;Node0</title>
<path fill="none" stroke="midnightblue" d="M118.08,-49.23C129.67,-51.02 141.78,-52.89 153.39,-54.68"/>
<polygon fill="midnightblue" stroke="midnightblue" points="118.46,-45.75 108.04,-47.69 117.39,-52.67 118.46,-45.75"/>
</g>
<!-- Node990 -->
<g id="node3" class="node">
<title>Node990</title>
<g id="a_node3"><a xlink:href="classmlir_1_1detail_1_1op__filter__iterator.html" target="_top" xlink:title="A utility iterator that filters out operations that are not &#39;OpT&#39;.">
<polygon fill="none" stroke="black" points="144,-0.5 144,-30.5 292,-30.5 292,-0.5 144,-0.5"/>
<text text-anchor="start" x="152" y="-18.5" font-family="Helvetica,sans-Serif" font-size="10.00">mlir::detail::op_filter</text>
<text text-anchor="middle" x="218" y="-7.5" font-family="Helvetica,sans-Serif" font-size="10.00">_iterator&lt; OpT, IteratorT &gt;</text>
</a>
</g>
</g>
<!-- Node988&#45;&gt;Node990 -->
<g id="edge2" class="edge">
<title>Node988&#45;&gt;Node990</title>
<path fill="none" stroke="midnightblue" d="M118.15,-30.14C126.57,-28.9 135.26,-27.61 143.83,-26.34"/>
<polygon fill="midnightblue" stroke="midnightblue" points="117.42,-26.71 108.04,-31.64 118.45,-33.64 117.42,-26.71"/>
</g>
</g>
</svg>
