<?xml version="1.0" encoding="UTF-8" standalone="no"?>
<!DOCTYPE svg PUBLIC "-//W3C//DTD SVG 1.1//EN"
 "http://www.w3.org/Graphics/SVG/1.1/DTD/svg11.dtd">
<!-- Generated by graphviz version 2.43.0 (0)
 -->
<!-- Title: Graphical Class Hierarchy Pages: 1 -->
<svg width="479pt" height="124pt"
 viewBox="0.00 0.00 479.00 123.50" xmlns="http://www.w3.org/2000/svg" xmlns:xlink="http://www.w3.org/1999/xlink">
<g id="graph0" class="graph" transform="scale(1 1) rotate(0) translate(4 119.5)">
<title>Graphical Class Hierarchy</title>
<!-- Node0 -->
<g id="Node000000" class="node">
<title>Node0</title>
<g id="a_Node000000"><a xlink:href="structmlir_1_1OperationName_1_1InterfaceConcept.html" target="_top" xlink:title="This class represents a type erased version of an operation.">
<polygon fill="white" stroke="#666666" points="119,-78 0,-78 0,-48 119,-48 119,-78"/>
<text text-anchor="start" x="8" y="-66" font-family="Helvetica,sans-Serif" font-size="10.00">mlir::OperationName</text>
<text text-anchor="middle" x="59.5" y="-55" font-family="Helvetica,sans-Serif" font-size="10.00">::InterfaceConcept</text>
</a>
</g>
</g>
<!-- Node1 -->
<g id="Node000001" class="node">
<title>Node1</title>
<g id="a_Node000001"><a xlink:href="classmlir_1_1OperationName_1_1Impl.html" target="_top" xlink:title=" ">
<polygon fill="white" stroke="#666666" points="274,-78 155,-78 155,-48 274,-48 274,-78"/>
<text text-anchor="start" x="163" y="-66" font-family="Helvetica,sans-Serif" font-size="10.00">mlir::OperationName</text>
<text text-anchor="middle" x="214.5" y="-55" font-family="Helvetica,sans-Serif" font-size="10.00">::Impl</text>
</a>
</g>
</g>
<!-- Node0&#45;&gt;Node1 -->
<g id="edge819_Node000000_Node000001" class="edge">
<title>Node0&#45;&gt;Node1</title>
<g id="a_edge819_Node000000_Node000001"><a xlink:title=" ">
<path fill="none" stroke="#63b8ff" d="M129.49,-63C137.99,-63 146.62,-63 154.94,-63"/>
<polygon fill="#63b8ff" stroke="#63b8ff" points="129.22,-59.5 119.22,-63 129.22,-66.5 129.22,-59.5"/>
</a>
</g>
</g>
<!-- Node2 -->
<g id="Node000002" class="node">
<title>Node2</title>
<g id="a_Node000002"><a xlink:href="classmlir_1_1DynamicOpDefinition.html" target="_top" xlink:title="The definition of a dynamic op.">
<polygon fill="white" stroke="#666666" points="463.5,-115.5 317.5,-115.5 317.5,-96.5 463.5,-96.5 463.5,-115.5"/>
<text text-anchor="middle" x="390.5" y="-103.5" font-family="Helvetica,sans-Serif" font-size="10.00">mlir::DynamicOpDefinition</text>
</a>
</g>
</g>
<!-- Node1&#45;&gt;Node2 -->
<g id="edge820_Node000001_Node000002" class="edge">
<title>Node1&#45;&gt;Node2</title>
<g id="a_edge820_Node000001_Node000002"><a xlink:title=" ">
<path fill="none" stroke="#63b8ff" d="M284,-80.52C292.75,-82.72 301.58,-84.93 310,-87 322.68,-90.12 336.51,-93.46 349.03,-96.44"/>
<polygon fill="#63b8ff" stroke="#63b8ff" points="284.75,-77.1 274.2,-78.04 283.03,-83.88 284.75,-77.1"/>
</a>
</g>
</g>
<!-- Node3 -->
<g id="Node000003" class="node">
<title>Node3</title>
<g id="a_Node000003"><a xlink:href="structmlir_1_1OperationName_1_1UnregisteredOpModel.html" target="_top" xlink:title="Default implementation for unregistered operations.">
<polygon fill="white" stroke="#666666" points="455,-78 326,-78 326,-48 455,-48 455,-78"/>
<text text-anchor="start" x="334" y="-66" font-family="Helvetica,sans-Serif" font-size="10.00">mlir::OperationName</text>
<text text-anchor="middle" x="390.5" y="-55" font-family="Helvetica,sans-Serif" font-size="10.00">::UnregisteredOpModel</text>
</a>
</g>
</g>
<!-- Node1&#45;&gt;Node3 -->
<g id="edge821_Node000001_Node000003" class="edge">
<title>Node1&#45;&gt;Node3</title>
<g id="a_edge821_Node000001_Node000003"><a xlink:title=" ">
<path fill="none" stroke="#63b8ff" d="M284.67,-63C298.27,-63 312.47,-63 325.88,-63"/>
<polygon fill="#63b8ff" stroke="#63b8ff" points="284.41,-59.5 274.41,-63 284.41,-66.5 284.41,-59.5"/>
</a>
</g>
</g>
<!-- Node4 -->
<g id="Node000004" class="node">
<title>Node4</title>
<g id="a_Node000004"><a xlink:href="structmlir_1_1RegisteredOperationName_1_1Model.html" target="_top" xlink:title="Implementation of the InterfaceConcept for operation APIs that forwarded to a concrete op implementat...">
<polygon fill="white" stroke="#666666" points="471,-30 310,-30 310,0 471,0 471,-30"/>
<text text-anchor="start" x="318" y="-18" font-family="Helvetica,sans-Serif" font-size="10.00">mlir::RegisteredOperation</text>
<text text-anchor="middle" x="390.5" y="-7" font-family="Helvetica,sans-Serif" font-size="10.00">Name::Model&lt; ConcreteOp &gt;</text>
</a>
</g>
</g>
<!-- Node1&#45;&gt;Node4 -->
<g id="edge822_Node000001_Node000004" class="edge">
<title>Node1&#45;&gt;Node4</title>
<g id="a_edge822_Node000001_Node000004"><a xlink:title=" ">
<path fill="none" stroke="#63b8ff" d="M279.73,-45.28C297.93,-40.26 317.56,-34.85 335.12,-30"/>
<polygon fill="#63b8ff" stroke="#63b8ff" points="278.79,-41.91 270.08,-47.94 280.65,-48.66 278.79,-41.91"/>
</a>
</g>
</g>
</g>
</svg>
