<?xml version="1.0" encoding="UTF-8" standalone="no"?>
<!DOCTYPE svg PUBLIC "-//W3C//DTD SVG 1.1//EN"
 "http://www.w3.org/Graphics/SVG/1.1/DTD/svg11.dtd">
<!-- Generated by graphviz version 2.43.0 (0)
 -->
<!-- Title: Graphical Class Hierarchy Pages: 1 -->
<svg width="358pt" height="64pt"
 viewBox="0.00 0.00 358.00 64.00" xmlns="http://www.w3.org/2000/svg" xmlns:xlink="http://www.w3.org/1999/xlink">
<g id="graph0" class="graph" transform="scale(1 1) rotate(0) translate(4 60)">
<title>Graphical Class Hierarchy</title>
<!-- Node0 -->
<g id="Node000000" class="node">
<title>Node0</title>
<g id="a_Node000000"><a xlink:href="classDenseTypedElementsAttr.html" target="_top" xlink:title=" ">
<polygon fill="white" stroke="#666666" points="152.5,-56 12.5,-56 12.5,-37 152.5,-37 152.5,-56"/>
<text text-anchor="middle" x="82.5" y="-44" font-family="Helvetica,sans-Serif" font-size="10.00">DenseTypedElementsAttr</text>
</a>
</g>
</g>
<!-- Node1 -->
<g id="Node000001" class="node">
<title>Node1</title>
<g id="a_Node000001"><a xlink:href="classmlir_1_1DenseFPElementsAttr.html" target="_top" xlink:title="An attribute that represents a reference to a dense float vector or tensor object.">
<polygon fill="white" stroke="#666666" points="350,-56 201,-56 201,-37 350,-37 350,-56"/>
<text text-anchor="middle" x="275.5" y="-44" font-family="Helvetica,sans-Serif" font-size="10.00">mlir::DenseFPElementsAttr</text>
</a>
</g>
</g>
<!-- Node0&#45;&gt;Node1 -->
<g id="edge406_Node000000_Node000001" class="edge">
<title>Node0&#45;&gt;Node1</title>
<g id="a_edge406_Node000000_Node000001"><a xlink:title=" ">
<path fill="none" stroke="#63b8ff" d="M163.08,-46.5C175.53,-46.5 188.36,-46.5 200.68,-46.5"/>
<polygon fill="#63b8ff" stroke="#63b8ff" points="162.73,-43 152.73,-46.5 162.73,-50 162.73,-43"/>
</a>
</g>
</g>
<!-- Node3 -->
<g id="Node000003" class="node">
<title>Node3</title>
<g id="a_Node000003"><a xlink:href="classmlir_1_1DenseIntElementsAttr.html" target="_top" xlink:title="An attribute that represents a reference to a dense integer vector or tensor object.">
<polygon fill="white" stroke="#666666" points="350,-19 201,-19 201,0 350,0 350,-19"/>
<text text-anchor="middle" x="275.5" y="-7" font-family="Helvetica,sans-Serif" font-size="10.00">mlir::DenseIntElementsAttr</text>
</a>
</g>
</g>
<!-- Node0&#45;&gt;Node3 -->
<g id="edge407_Node000000_Node000003" class="edge">
<title>Node0&#45;&gt;Node3</title>
<g id="a_edge407_Node000000_Node000003"><a xlink:title=" ">
<path fill="none" stroke="#63b8ff" d="M142.6,-35.05C169.07,-29.92 199.93,-23.94 225.15,-19.06"/>
<polygon fill="#63b8ff" stroke="#63b8ff" points="141.84,-31.63 132.69,-36.97 143.17,-38.51 141.84,-31.63"/>
</a>
</g>
</g>
<!-- Node2 -->
<g id="Node000002" class="node">
<title>Node2</title>
<g id="a_Node000002"><a xlink:href="classmlir_1_1DenseTypedElementsAttr.html" target="_top" xlink:title=" ">
<polygon fill="white" stroke="#666666" points="165,-19 0,-19 0,0 165,0 165,-19"/>
<text text-anchor="middle" x="82.5" y="-7" font-family="Helvetica,sans-Serif" font-size="10.00">mlir::DenseTypedElementsAttr</text>
</a>
</g>
</g>
<!-- Node2&#45;&gt;Node1 -->
<g id="edge408_Node000002_Node000001" class="edge">
<title>Node2&#45;&gt;Node1</title>
<g id="a_edge408_Node000002_Node000001"><a xlink:title=" ">
<path fill="none" stroke="#63b8ff" d="M142.6,-20.95C169.07,-26.08 199.93,-32.06 225.15,-36.94"/>
<polygon fill="#63b8ff" stroke="#63b8ff" points="143.17,-17.49 132.69,-19.03 141.84,-24.37 143.17,-17.49"/>
</a>
</g>
</g>
<!-- Node2&#45;&gt;Node3 -->
<g id="edge409_Node000002_Node000003" class="edge">
<title>Node2&#45;&gt;Node3</title>
<g id="a_edge409_Node000002_Node000003"><a xlink:title=" ">
<path fill="none" stroke="#63b8ff" d="M175.12,-9.5C183.72,-9.5 192.36,-9.5 200.77,-9.5"/>
<polygon fill="#63b8ff" stroke="#63b8ff" points="175.06,-6 165.06,-9.5 175.06,-13 175.06,-6"/>
</a>
</g>
</g>
</g>
</svg>
