<?xml version="1.0" encoding="UTF-8" standalone="no"?>
<!DOCTYPE svg PUBLIC "-//W3C//DTD SVG 1.1//EN"
 "http://www.w3.org/Graphics/SVG/1.1/DTD/svg11.dtd">
<!-- Generated by graphviz version 2.43.0 (0)
 -->
<!-- Title: Graphical Class Hierarchy Pages: 1 -->
<svg width="539pt" height="38pt"
 viewBox="0.00 0.00 539.00 38.00" xmlns="http://www.w3.org/2000/svg" xmlns:xlink="http://www.w3.org/1999/xlink">
<g id="graph0" class="graph" transform="scale(1 1) rotate(0) translate(4 34)">
<title>Graphical Class Hierarchy</title>
<!-- Node0 -->
<g id="Node000000" class="node">
<title>Node0</title>
<g id="a_Node000000"><a xlink:href="classmlir_1_1ScopedDiagnosticHandler.html" target="_top" xlink:title="This diagnostic handler is a simple RAII class that registers and erases a diagnostic handler on a gi...">
<polygon fill="white" stroke="#666666" points="167,-24.5 0,-24.5 0,-5.5 167,-5.5 167,-24.5"/>
<text text-anchor="middle" x="83.5" y="-12.5" font-family="Helvetica,sans-Serif" font-size="10.00">mlir::ScopedDiagnosticHandler</text>
</a>
</g>
</g>
<!-- Node1 -->
<g id="Node000001" class="node">
<title>Node1</title>
<g id="a_Node000001"><a xlink:href="classmlir_1_1SourceMgrDiagnosticHandler.html" target="_top" xlink:title="This class is a utility diagnostic handler for use with llvm::SourceMgr.">
<polygon fill="white" stroke="#666666" points="349,-30 203,-30 203,0 349,0 349,-30"/>
<text text-anchor="start" x="211" y="-18" font-family="Helvetica,sans-Serif" font-size="10.00">mlir::SourceMgrDiagnostic</text>
<text text-anchor="middle" x="276" y="-7" font-family="Helvetica,sans-Serif" font-size="10.00">Handler</text>
</a>
</g>
</g>
<!-- Node0&#45;&gt;Node1 -->
<g id="edge1320_Node000000_Node000001" class="edge">
<title>Node0&#45;&gt;Node1</title>
<g id="a_edge1320_Node000000_Node000001"><a xlink:title=" ">
<path fill="none" stroke="#63b8ff" d="M177.27,-15C185.85,-15 194.45,-15 202.81,-15"/>
<polygon fill="#63b8ff" stroke="#63b8ff" points="177.22,-11.5 167.22,-15 177.22,-18.5 177.22,-11.5"/>
</a>
</g>
</g>
<!-- Node2 -->
<g id="Node000002" class="node">
<title>Node2</title>
<g id="a_Node000002"><a xlink:href="classmlir_1_1SourceMgrDiagnosticVerifierHandler.html" target="_top" xlink:title="This class is a utility diagnostic handler for use with llvm::SourceMgr that verifies that emitted di...">
<polygon fill="white" stroke="#666666" points="531,-30 385,-30 385,0 531,0 531,-30"/>
<text text-anchor="start" x="393" y="-18" font-family="Helvetica,sans-Serif" font-size="10.00">mlir::SourceMgrDiagnostic</text>
<text text-anchor="middle" x="458" y="-7" font-family="Helvetica,sans-Serif" font-size="10.00">VerifierHandler</text>
</a>
</g>
</g>
<!-- Node1&#45;&gt;Node2 -->
<g id="edge1321_Node000001_Node000002" class="edge">
<title>Node1&#45;&gt;Node2</title>
<g id="a_edge1321_Node000001_Node000002"><a xlink:title=" ">
<path fill="none" stroke="#63b8ff" d="M359.44,-15C367.91,-15 376.46,-15 384.81,-15"/>
<polygon fill="#63b8ff" stroke="#63b8ff" points="359.18,-11.5 349.18,-15 359.18,-18.5 359.18,-11.5"/>
</a>
</g>
</g>
</g>
</svg>
