<?xml version="1.0" encoding="UTF-8" standalone="no"?>
<!DOCTYPE svg PUBLIC "-//W3C//DTD SVG 1.1//EN"
 "http://www.w3.org/Graphics/SVG/1.1/DTD/svg11.dtd">
<!-- Generated by graphviz version 2.43.0 (0)
 -->
<!-- Title: Graphical Class Hierarchy Pages: 1 -->
<svg width="295pt" height="180pt"
 viewBox="0.00 0.00 295.00 180.00" xmlns="http://www.w3.org/2000/svg" xmlns:xlink="http://www.w3.org/1999/xlink">
<g id="graph0" class="graph" transform="scale(1 1) rotate(0) translate(4 176)">
<title>Graphical Class Hierarchy</title>
<!-- Node0 -->
<g id="node1" class="node">
<title>Node0</title>
<g id="a_node1"><a xlink:href="classllvm_1_1PointerUnion.html" target="_top" xlink:title=" ">
<polygon fill="none" stroke="black" points="0,-71 0,-101 107,-101 107,-71 0,-71"/>
<text text-anchor="start" x="8" y="-89" font-family="Helvetica,sans-Serif" font-size="10.00">llvm::PointerUnion</text>
<text text-anchor="middle" x="53.5" y="-78" font-family="Helvetica,sans-Serif" font-size="10.00">&lt; PT &gt;</text>
</a>
</g>
</g>
<!-- Node1 -->
<g id="node2" class="node">
<title>Node1</title>
<g id="a_node2"><a xlink:href="structmlir_1_1CallInterfaceCallable.html" target="_top" xlink:title="A callable is either a symbol, or an SSA value, that is referenced by a call&#45;like operation.">
<polygon fill="none" stroke="black" points="143,-152.5 143,-171.5 287,-171.5 287,-152.5 143,-152.5"/>
<text text-anchor="middle" x="215" y="-159.5" font-family="Helvetica,sans-Serif" font-size="10.00">mlir::CallInterfaceCallable</text>
</a>
</g>
</g>
<!-- Node0&#45;&gt;Node1 -->
<g id="edge1" class="edge">
<title>Node0&#45;&gt;Node1</title>
<path fill="none" stroke="midnightblue" d="M82.14,-107C98.99,-118.96 121.37,-133.42 143,-143 151.4,-146.72 160.69,-149.85 169.71,-152.43"/>
<polygon fill="midnightblue" stroke="midnightblue" points="84.03,-104.04 73.87,-101.01 79.92,-109.71 84.03,-104.04"/>
</g>
<!-- Node2 -->
<g id="node3" class="node">
<title>Node2</title>
<g id="a_node3"><a xlink:href="classmlir_1_1IRUnit.html" target="_top" xlink:title="IRUnit is a union of the different types of IR objects that constitute the IR structure (other than T...">
<polygon fill="none" stroke="black" points="179,-114.5 179,-133.5 251,-133.5 251,-114.5 179,-114.5"/>
<text text-anchor="middle" x="215" y="-121.5" font-family="Helvetica,sans-Serif" font-size="10.00">mlir::IRUnit</text>
</a>
</g>
</g>
<!-- Node0&#45;&gt;Node2 -->
<g id="edge2" class="edge">
<title>Node0&#45;&gt;Node2</title>
<path fill="none" stroke="midnightblue" d="M117.02,-100.9C138.08,-105.91 160.82,-111.33 178.98,-115.66"/>
<polygon fill="midnightblue" stroke="midnightblue" points="117.71,-97.46 107.17,-98.55 116.08,-104.27 117.71,-97.46"/>
</g>
<!-- Node3 -->
<g id="node4" class="node">
<title>Node3</title>
<g id="a_node4"><a xlink:href="classmlir_1_1LLVM_1_1GEPArg.html" target="_top" xlink:title="Class used for building a &#39;llvm.getelementptr&#39;.">
<polygon fill="none" stroke="black" points="160.5,-76.5 160.5,-95.5 269.5,-95.5 269.5,-76.5 160.5,-76.5"/>
<text text-anchor="middle" x="215" y="-83.5" font-family="Helvetica,sans-Serif" font-size="10.00">mlir::LLVM::GEPArg</text>
</a>
</g>
</g>
<!-- Node0&#45;&gt;Node3 -->
<g id="edge3" class="edge">
<title>Node0&#45;&gt;Node3</title>
<path fill="none" stroke="midnightblue" d="M117.35,-86C131.56,-86 146.51,-86 160.3,-86"/>
<polygon fill="midnightblue" stroke="midnightblue" points="117.17,-82.5 107.17,-86 117.17,-89.5 117.17,-82.5"/>
</g>
<!-- Node4 -->
<g id="node5" class="node">
<title>Node4</title>
<g id="a_node5"><a xlink:href="structmlir_1_1LatticeAnchor.html" target="_top" xlink:title="Fundamental IR components are supported as first&#45;class lattice anchor.">
<polygon fill="none" stroke="black" points="160.5,-38.5 160.5,-57.5 269.5,-57.5 269.5,-38.5 160.5,-38.5"/>
<text text-anchor="middle" x="215" y="-45.5" font-family="Helvetica,sans-Serif" font-size="10.00">mlir::LatticeAnchor</text>
</a>
</g>
</g>
<!-- Node0&#45;&gt;Node4 -->
<g id="edge4" class="edge">
<title>Node0&#45;&gt;Node4</title>
<path fill="none" stroke="midnightblue" d="M117.04,-71.1C136.22,-66.53 156.79,-61.63 174.02,-57.52"/>
<polygon fill="midnightblue" stroke="midnightblue" points="116.08,-67.73 107.17,-73.45 117.71,-74.54 116.08,-67.73"/>
</g>
<!-- Node5 -->
<g id="node6" class="node">
<title>Node5</title>
<g id="a_node6"><a xlink:href="classmlir_1_1OpFoldResult.html" target="_top" xlink:title="This class represents a single result from folding an operation.">
<polygon fill="none" stroke="black" points="161.5,-0.5 161.5,-19.5 268.5,-19.5 268.5,-0.5 161.5,-0.5"/>
<text text-anchor="middle" x="215" y="-7.5" font-family="Helvetica,sans-Serif" font-size="10.00">mlir::OpFoldResult</text>
</a>
</g>
</g>
<!-- Node0&#45;&gt;Node5 -->
<g id="edge5" class="edge">
<title>Node0&#45;&gt;Node5</title>
<path fill="none" stroke="midnightblue" d="M82.14,-65C98.99,-53.04 121.37,-38.58 143,-29 151.4,-25.28 160.69,-22.15 169.71,-19.57"/>
<polygon fill="midnightblue" stroke="midnightblue" points="79.92,-62.29 73.87,-70.99 84.03,-67.96 79.92,-62.29"/>
</g>
</g>
</svg>
