<?xml version="1.0" encoding="UTF-8" standalone="no"?>
<!DOCTYPE svg PUBLIC "-//W3C//DTD SVG 1.1//EN"
 "http://www.w3.org/Graphics/SVG/1.1/DTD/svg11.dtd">
<!-- Generated by graphviz version 2.43.0 (0)
 -->
<!-- Title: Graphical Class Hierarchy Pages: 1 -->
<svg width="359pt" height="78pt"
 viewBox="0.00 0.00 359.00 77.50" xmlns="http://www.w3.org/2000/svg" xmlns:xlink="http://www.w3.org/1999/xlink">
<g id="graph0" class="graph" transform="scale(1 1) rotate(0) translate(4 73.5)">
<title>Graphical Class Hierarchy</title>
<!-- Node0 -->
<g id="node1" class="node">
<title>Node0</title>
<g id="a_node1"><a xlink:href="classmlir_1_1tblgen_1_1FmtObjectBase.html" target="_top" xlink:title=" ">
<polygon fill="none" stroke="black" points="0,-22.5 0,-41.5 154,-41.5 154,-22.5 0,-22.5"/>
<text text-anchor="middle" x="77" y="-29.5" font-family="Helvetica,sans-Serif" font-size="10.00">mlir::tblgen::FmtObjectBase</text>
</a>
</g>
</g>
<!-- Node1 -->
<g id="node2" class="node">
<title>Node1</title>
<g id="a_node2"><a xlink:href="classmlir_1_1tblgen_1_1FmtObject.html" target="_top" xlink:title=" ">
<polygon fill="none" stroke="black" points="205.5,-39 205.5,-69 335.5,-69 335.5,-39 205.5,-39"/>
<text text-anchor="start" x="213.5" y="-57" font-family="Helvetica,sans-Serif" font-size="10.00">mlir::tblgen::FmtObject</text>
<text text-anchor="middle" x="270.5" y="-46" font-family="Helvetica,sans-Serif" font-size="10.00">&lt; Tuple &gt;</text>
</a>
</g>
</g>
<!-- Node0&#45;&gt;Node1 -->
<g id="edge1" class="edge">
<title>Node0&#45;&gt;Node1</title>
<path fill="none" stroke="midnightblue" d="M164.22,-41.9C178.01,-43.49 192.07,-45.1 205.24,-46.62"/>
<polygon fill="midnightblue" stroke="midnightblue" points="164.57,-38.42 154.24,-40.76 163.77,-45.38 164.57,-38.42"/>
</g>
<!-- Node2 -->
<g id="node3" class="node">
<title>Node2</title>
<g id="a_node3"><a xlink:href="classmlir_1_1tblgen_1_1FmtStrVecObject.html" target="_top" xlink:title=" ">
<polygon fill="none" stroke="black" points="190,-0.5 190,-19.5 351,-19.5 351,-0.5 190,-0.5"/>
<text text-anchor="middle" x="270.5" y="-7.5" font-family="Helvetica,sans-Serif" font-size="10.00">mlir::tblgen::FmtStrVecObject</text>
</a>
</g>
</g>
<!-- Node0&#45;&gt;Node2 -->
<g id="edge2" class="edge">
<title>Node0&#45;&gt;Node2</title>
<path fill="none" stroke="midnightblue" d="M164.17,-22.1C172.69,-21.12 181.31,-20.13 189.76,-19.16"/>
<polygon fill="midnightblue" stroke="midnightblue" points="163.77,-18.62 154.24,-23.24 164.57,-25.58 163.77,-18.62"/>
</g>
</g>
</svg>
