<?xml version="1.0" encoding="UTF-8" standalone="no"?>
<!DOCTYPE svg PUBLIC "-//W3C//DTD SVG 1.1//EN"
 "http://www.w3.org/Graphics/SVG/1.1/DTD/svg11.dtd">
<!-- Generated by graphviz version 2.43.0 (0)
 -->
<!-- Title: Graphical Class Hierarchy Pages: 1 -->
<svg width="446pt" height="175pt"
 viewBox="0.00 0.00 446.00 175.00" xmlns="http://www.w3.org/2000/svg" xmlns:xlink="http://www.w3.org/1999/xlink">
<g id="graph0" class="graph" transform="scale(1 1) rotate(0) translate(4 171)">
<title>Graphical Class Hierarchy</title>
<!-- Node0 -->
<g id="Node000000" class="node">
<title>Node0</title>
<g id="a_Node000000"><a xlink:title=" ">
<polygon fill="#e0e0e0" stroke="#999999" points="125,-93 0,-93 0,-74 125,-74 125,-93"/>
<text text-anchor="middle" x="62.5" y="-81" font-family="Helvetica,sans-Serif" font-size="10.00">llvm::RefCountedBase</text>
</a>
</g>
</g>
<!-- Node1 -->
<g id="Node000001" class="node">
<title>Node1</title>
<g id="a_Node000001"><a xlink:href="structmlir_1_1query_1_1Query.html" target="_top" xlink:title=" ">
<polygon fill="white" stroke="#666666" points="265,-93 161,-93 161,-74 265,-74 265,-93"/>
<text text-anchor="middle" x="213" y="-81" font-family="Helvetica,sans-Serif" font-size="10.00">mlir::query::Query</text>
</a>
</g>
</g>
<!-- Node0&#45;&gt;Node1 -->
<g id="edge569_Node000000_Node000001" class="edge">
<title>Node0&#45;&gt;Node1</title>
<g id="a_edge569_Node000000_Node000001"><a xlink:title=" ">
<path fill="none" stroke="#63b8ff" d="M135.21,-83.5C143.8,-83.5 152.42,-83.5 160.64,-83.5"/>
<polygon fill="#63b8ff" stroke="#63b8ff" points="135.19,-80 125.19,-83.5 135.19,-87 135.19,-80"/>
</a>
</g>
</g>
<!-- Node2 -->
<g id="Node000002" class="node">
<title>Node2</title>
<g id="a_Node000002"><a xlink:href="structmlir_1_1query_1_1HelpQuery.html" target="_top" xlink:title=" ">
<polygon fill="white" stroke="#666666" points="433,-167 306,-167 306,-148 433,-148 433,-167"/>
<text text-anchor="middle" x="369.5" y="-155" font-family="Helvetica,sans-Serif" font-size="10.00">mlir::query::HelpQuery</text>
</a>
</g>
</g>
<!-- Node1&#45;&gt;Node2 -->
<g id="edge570_Node000001_Node000002" class="edge">
<title>Node1&#45;&gt;Node2</title>
<g id="a_edge570_Node000001_Node000002"><a xlink:title=" ">
<path fill="none" stroke="#63b8ff" d="M234.35,-99.21C251.35,-111.67 276.66,-128.74 301,-139.5 308.43,-142.79 316.6,-145.58 324.6,-147.93"/>
<polygon fill="#63b8ff" stroke="#63b8ff" points="236.37,-96.35 226.26,-93.17 232.18,-101.96 236.37,-96.35"/>
</a>
</g>
</g>
<!-- Node3 -->
<g id="Node000003" class="node">
<title>Node3</title>
<g id="a_Node000003"><a xlink:href="structmlir_1_1query_1_1InvalidQuery.html" target="_top" xlink:title=" ">
<polygon fill="white" stroke="#666666" points="438,-130 301,-130 301,-111 438,-111 438,-130"/>
<text text-anchor="middle" x="369.5" y="-118" font-family="Helvetica,sans-Serif" font-size="10.00">mlir::query::InvalidQuery</text>
</a>
</g>
</g>
<!-- Node1&#45;&gt;Node3 -->
<g id="edge571_Node000001_Node000003" class="edge">
<title>Node1&#45;&gt;Node3</title>
<g id="a_edge571_Node000001_Node000003"><a xlink:title=" ">
<path fill="none" stroke="#63b8ff" d="M263.8,-95.43C284.75,-100.44 308.81,-106.21 328.58,-110.94"/>
<polygon fill="#63b8ff" stroke="#63b8ff" points="264.33,-91.95 253.79,-93.03 262.7,-98.76 264.33,-91.95"/>
</a>
</g>
</g>
<!-- Node4 -->
<g id="Node000004" class="node">
<title>Node4</title>
<g id="a_Node000004"><a xlink:href="structmlir_1_1query_1_1MatchQuery.html" target="_top" xlink:title=" ">
<polygon fill="white" stroke="#666666" points="436.5,-93 302.5,-93 302.5,-74 436.5,-74 436.5,-93"/>
<text text-anchor="middle" x="369.5" y="-81" font-family="Helvetica,sans-Serif" font-size="10.00">mlir::query::MatchQuery</text>
</a>
</g>
</g>
<!-- Node1&#45;&gt;Node4 -->
<g id="edge572_Node000001_Node000004" class="edge">
<title>Node1&#45;&gt;Node4</title>
<g id="a_edge572_Node000001_Node000004"><a xlink:title=" ">
<path fill="none" stroke="#63b8ff" d="M275.3,-83.5C284.2,-83.5 293.39,-83.5 302.38,-83.5"/>
<polygon fill="#63b8ff" stroke="#63b8ff" points="275.02,-80 265.02,-83.5 275.02,-87 275.02,-80"/>
</a>
</g>
</g>
<!-- Node5 -->
<g id="Node000005" class="node">
<title>Node5</title>
<g id="a_Node000005"><a xlink:href="structmlir_1_1query_1_1NoOpQuery.html" target="_top" xlink:title=" ">
<polygon fill="white" stroke="#666666" points="435,-56 304,-56 304,-37 435,-37 435,-56"/>
<text text-anchor="middle" x="369.5" y="-44" font-family="Helvetica,sans-Serif" font-size="10.00">mlir::query::NoOpQuery</text>
</a>
</g>
</g>
<!-- Node1&#45;&gt;Node5 -->
<g id="edge573_Node000001_Node000005" class="edge">
<title>Node1&#45;&gt;Node5</title>
<g id="a_edge573_Node000001_Node000005"><a xlink:title=" ">
<path fill="none" stroke="#63b8ff" d="M263.8,-71.57C284.75,-66.56 308.81,-60.79 328.58,-56.06"/>
<polygon fill="#63b8ff" stroke="#63b8ff" points="262.7,-68.24 253.79,-73.97 264.33,-75.05 262.7,-68.24"/>
</a>
</g>
</g>
<!-- Node6 -->
<g id="Node000006" class="node">
<title>Node6</title>
<g id="a_Node000006"><a xlink:href="structmlir_1_1query_1_1QuitQuery.html" target="_top" xlink:title=" ">
<polygon fill="white" stroke="#666666" points="432,-19 307,-19 307,0 432,0 432,-19"/>
<text text-anchor="middle" x="369.5" y="-7" font-family="Helvetica,sans-Serif" font-size="10.00">mlir::query::QuitQuery</text>
</a>
</g>
</g>
<!-- Node1&#45;&gt;Node6 -->
<g id="edge574_Node000001_Node000006" class="edge">
<title>Node1&#45;&gt;Node6</title>
<g id="a_edge574_Node000001_Node000006"><a xlink:title=" ">
<path fill="none" stroke="#63b8ff" d="M234.72,-67.97C251.77,-55.81 276.95,-39.21 301,-28.5 309.23,-24.83 318.34,-21.7 327.14,-19.1"/>
<polygon fill="#63b8ff" stroke="#63b8ff" points="232.63,-65.16 226.6,-73.87 236.75,-70.83 232.63,-65.16"/>
</a>
</g>
</g>
</g>
</svg>
