<?xml version="1.0" encoding="UTF-8" standalone="no"?>
<!DOCTYPE svg PUBLIC "-//W3C//DTD SVG 1.1//EN"
 "http://www.w3.org/Graphics/SVG/1.1/DTD/svg11.dtd">
<!-- Generated by graphviz version 2.43.0 (0)
 -->
<!-- Title: Graphical Class Hierarchy Pages: 1 -->
<svg width="367pt" height="235pt"
 viewBox="0.00 0.00 367.00 235.00" xmlns="http://www.w3.org/2000/svg" xmlns:xlink="http://www.w3.org/1999/xlink">
<g id="graph0" class="graph" transform="scale(1 1) rotate(0) translate(4 231)">
<title>Graphical Class Hierarchy</title>
<!-- Node0 -->
<g id="node1" class="node">
<title>Node0</title>
<g id="a_node1"><a xlink:href="classmlir_1_1detail_1_1StorageUserTraitBase.html" target="_top" xlink:title="Helper class for implementing traits for storage classes.">
<polygon fill="none" stroke="black" points="0,-93 0,-134 142,-134 142,-93 0,-93"/>
<text text-anchor="start" x="8" y="-122" font-family="Helvetica,sans-Serif" font-size="10.00">mlir::detail::StorageUser</text>
<text text-anchor="start" x="8" y="-111" font-family="Helvetica,sans-Serif" font-size="10.00">TraitBase&lt; ConcreteType,</text>
<text text-anchor="middle" x="71" y="-100" font-family="Helvetica,sans-Serif" font-size="10.00"> TraitType &gt;</text>
</a>
</g>
</g>
<!-- Node1 -->
<g id="node2" class="node">
<title>Node1</title>
<g id="a_node2"><a xlink:href="classmlir_1_1AttributeTrait_1_1IsDynamicAttr.html" target="_top" xlink:title=" ">
<polygon fill="none" stroke="black" points="178,-196.5 178,-226.5 359,-226.5 359,-196.5 178,-196.5"/>
<text text-anchor="start" x="186" y="-214.5" font-family="Helvetica,sans-Serif" font-size="10.00">mlir::AttributeTrait</text>
<text text-anchor="middle" x="268.5" y="-203.5" font-family="Helvetica,sans-Serif" font-size="10.00">::IsDynamicAttr&lt; ConcreteType &gt;</text>
</a>
</g>
</g>
<!-- Node0&#45;&gt;Node1 -->
<g id="edge1" class="edge">
<title>Node0&#45;&gt;Node1</title>
<path fill="none" stroke="midnightblue" d="M104.09,-140.34C124.23,-156.02 151.35,-175.09 178,-187.5 185.29,-190.89 193.15,-193.88 201.07,-196.48"/>
<polygon fill="midnightblue" stroke="midnightblue" points="106.2,-137.54 96.19,-134.08 101.85,-143.03 106.2,-137.54"/>
</g>
<!-- Node2 -->
<g id="node3" class="node">
<title>Node2</title>
<g id="a_node3"><a xlink:href="structmlir_1_1AttributeTrait_1_1IsLocation.html" target="_top" xlink:title="This trait is used to determine if an attribute is a location or not.">
<polygon fill="none" stroke="black" points="188,-147.5 188,-177.5 349,-177.5 349,-147.5 188,-147.5"/>
<text text-anchor="start" x="196" y="-165.5" font-family="Helvetica,sans-Serif" font-size="10.00">mlir::AttributeTrait</text>
<text text-anchor="middle" x="268.5" y="-154.5" font-family="Helvetica,sans-Serif" font-size="10.00">::IsLocation&lt; ConcreteType &gt;</text>
</a>
</g>
</g>
<!-- Node0&#45;&gt;Node2 -->
<g id="edge2" class="edge">
<title>Node0&#45;&gt;Node2</title>
<path fill="none" stroke="midnightblue" d="M151.96,-133.54C170.58,-138.21 190.08,-143.1 207.65,-147.5"/>
<polygon fill="midnightblue" stroke="midnightblue" points="152.58,-130.09 142.03,-131.05 150.88,-136.88 152.58,-130.09"/>
</g>
<!-- Node3 -->
<g id="node4" class="node">
<title>Node3</title>
<g id="a_node4"><a xlink:href="classmlir_1_1TypeTrait_1_1IsDynamicType.html" target="_top" xlink:title=" ">
<polygon fill="none" stroke="black" points="197,-98.5 197,-128.5 340,-128.5 340,-98.5 197,-98.5"/>
<text text-anchor="start" x="205" y="-116.5" font-family="Helvetica,sans-Serif" font-size="10.00">mlir::TypeTrait::IsDynamic</text>
<text text-anchor="middle" x="268.5" y="-105.5" font-family="Helvetica,sans-Serif" font-size="10.00">Type&lt; ConcreteType &gt;</text>
</a>
</g>
</g>
<!-- Node0&#45;&gt;Node3 -->
<g id="edge3" class="edge">
<title>Node0&#45;&gt;Node3</title>
<path fill="none" stroke="midnightblue" d="M152.2,-113.5C167.04,-113.5 182.44,-113.5 196.98,-113.5"/>
<polygon fill="midnightblue" stroke="midnightblue" points="152.03,-110 142.03,-113.5 152.03,-117 152.03,-110"/>
</g>
<!-- Node4 -->
<g id="node5" class="node">
<title>Node4</title>
<g id="a_node5"><a xlink:href="classmlir_1_1ValueSemantics.html" target="_top" xlink:title="Type trait indicating that the type has value semantics.">
<polygon fill="none" stroke="black" points="208.5,-49.5 208.5,-79.5 328.5,-79.5 328.5,-49.5 208.5,-49.5"/>
<text text-anchor="start" x="216.5" y="-67.5" font-family="Helvetica,sans-Serif" font-size="10.00">mlir::ValueSemantics</text>
<text text-anchor="middle" x="268.5" y="-56.5" font-family="Helvetica,sans-Serif" font-size="10.00">&lt; ConcreteType &gt;</text>
</a>
</g>
</g>
<!-- Node0&#45;&gt;Node4 -->
<g id="edge4" class="edge">
<title>Node0&#45;&gt;Node4</title>
<path fill="none" stroke="midnightblue" d="M151.8,-93.5C170.69,-88.76 190.5,-83.8 208.29,-79.34"/>
<polygon fill="midnightblue" stroke="midnightblue" points="150.88,-90.12 142.03,-95.95 152.58,-96.91 150.88,-90.12"/>
</g>
<!-- Node5 -->
<g id="node6" class="node">
<title>Node5</title>
<g id="a_node6"><a xlink:href="classmlir_1_1gpu_1_1OffloadingTranslationAttrTrait.html" target="_top" xlink:title="This class indicates that the attribute associated with this trait is a GPU offloading translation at...">
<polygon fill="none" stroke="black" points="183.5,-0.5 183.5,-30.5 353.5,-30.5 353.5,-0.5 183.5,-0.5"/>
<text text-anchor="start" x="191.5" y="-18.5" font-family="Helvetica,sans-Serif" font-size="10.00">mlir::gpu::OffloadingTranslation</text>
<text text-anchor="middle" x="268.5" y="-7.5" font-family="Helvetica,sans-Serif" font-size="10.00">AttrTrait&lt; ConcreteType &gt;</text>
</a>
</g>
</g>
<!-- Node0&#45;&gt;Node5 -->
<g id="edge5" class="edge">
<title>Node0&#45;&gt;Node5</title>
<path fill="none" stroke="midnightblue" d="M104.6,-86.83C124.73,-71.47 151.68,-52.82 178,-40.5 186.04,-36.74 194.75,-33.44 203.48,-30.58"/>
<polygon fill="midnightblue" stroke="midnightblue" points="102.44,-84.08 96.69,-92.97 106.73,-89.61 102.44,-84.08"/>
</g>
</g>
</svg>
