<?xml version="1.0" encoding="UTF-8" standalone="no"?>
<!DOCTYPE svg PUBLIC "-//W3C//DTD SVG 1.1//EN"
 "http://www.w3.org/Graphics/SVG/1.1/DTD/svg11.dtd">
<!-- Generated by graphviz version 2.43.0 (0)
 -->
<!-- Title: Graphical Class Hierarchy Pages: 1 -->
<svg width="407pt" height="580pt"
 viewBox="0.00 0.00 407.00 579.50" xmlns="http://www.w3.org/2000/svg" xmlns:xlink="http://www.w3.org/1999/xlink">
<g id="graph0" class="graph" transform="scale(1 1) rotate(0) translate(4 575.5)">
<title>Graphical Class Hierarchy</title>
<!-- Node0 -->
<g id="Node000000" class="node">
<title>Node0</title>
<g id="a_Node000000"><a xlink:title=" ">
<polygon fill="#e0e0e0" stroke="#999999" points="154,-290 0,-290 0,-271 154,-271 154,-290"/>
<text text-anchor="middle" x="77" y="-278" font-family="Helvetica,sans-Serif" font-size="10.00">llvm::mapped_iterator_base</text>
</a>
</g>
</g>
<!-- Node1 -->
<g id="Node000001" class="node">
<title>Node1</title>
<g id="a_Node000001"><a xlink:href="classmlir_1_1ValueTypeIterator.html" target="_top" xlink:title=" ">
<polygon fill="white" stroke="#666666" points="358.5,-571.5 230.5,-571.5 230.5,-541.5 358.5,-541.5 358.5,-571.5"/>
<text text-anchor="start" x="238.5" y="-559.5" font-family="Helvetica,sans-Serif" font-size="10.00">mlir::ValueTypeIterator</text>
<text text-anchor="middle" x="294.5" y="-548.5" font-family="Helvetica,sans-Serif" font-size="10.00">&lt; iterator &gt;</text>
</a>
</g>
</g>
<!-- Node0&#45;&gt;Node1 -->
<g id="edge535_Node000000_Node000001" class="edge">
<title>Node0&#45;&gt;Node1</title>
<g id="a_edge535_Node000000_Node000001"><a xlink:title=" ">
<path fill="none" stroke="#63b8ff" d="M80.7,-300C88.37,-347.61 114.81,-470.41 190,-532.5 201.45,-541.95 215.93,-547.84 230.41,-551.46"/>
<polygon fill="#63b8ff" stroke="#63b8ff" points="84.16,-299.44 79.2,-290.07 77.23,-300.48 84.16,-299.44"/>
</a>
</g>
</g>
<!-- Node2 -->
<g id="Node000002" class="node">
<title>Node2</title>
<g id="a_Node000002"><a xlink:href="classmlir_1_1ValueUserIterator.html" target="_top" xlink:title=" ">
<polygon fill="white" stroke="#666666" points="373.5,-523.5 215.5,-523.5 215.5,-493.5 373.5,-493.5 373.5,-523.5"/>
<text text-anchor="start" x="223.5" y="-511.5" font-family="Helvetica,sans-Serif" font-size="10.00">mlir::ValueUserIterator</text>
<text text-anchor="middle" x="294.5" y="-500.5" font-family="Helvetica,sans-Serif" font-size="10.00">&lt; use_iterator, OpOperand &gt;</text>
</a>
</g>
</g>
<!-- Node0&#45;&gt;Node2 -->
<g id="edge536_Node000000_Node000002" class="edge">
<title>Node0&#45;&gt;Node2</title>
<g id="a_edge536_Node000000_Node000002"><a xlink:title=" ">
<path fill="none" stroke="#63b8ff" d="M82.85,-299.82C94.15,-340.71 126.28,-436.23 190,-484.5 197.57,-490.24 206.29,-494.64 215.38,-498"/>
<polygon fill="#63b8ff" stroke="#63b8ff" points="86.2,-298.8 80.25,-290.03 79.43,-300.59 86.2,-298.8"/>
</a>
</g>
</g>
<!-- Node3 -->
<g id="Node000003" class="node">
<title>Node3</title>
<g id="a_Node000003"><a xlink:href="classmlir_1_1ValueUserIterator.html" target="_top" xlink:title=" ">
<polygon fill="white" stroke="#666666" points="378,-475.5 211,-475.5 211,-445.5 378,-445.5 378,-475.5"/>
<text text-anchor="start" x="219" y="-463.5" font-family="Helvetica,sans-Serif" font-size="10.00">mlir::ValueUserIterator</text>
<text text-anchor="middle" x="294.5" y="-452.5" font-family="Helvetica,sans-Serif" font-size="10.00">&lt; use_iterator, OperandType &gt;</text>
</a>
</g>
</g>
<!-- Node0&#45;&gt;Node3 -->
<g id="edge537_Node000000_Node000003" class="edge">
<title>Node0&#45;&gt;Node3</title>
<g id="a_edge537_Node000000_Node000003"><a xlink:title=" ">
<path fill="none" stroke="#63b8ff" d="M86.11,-299.52C101.32,-332.82 137.43,-401.46 190,-436.5 196.45,-440.8 203.56,-444.33 210.96,-447.23"/>
<polygon fill="#63b8ff" stroke="#63b8ff" points="89.16,-297.76 81.91,-290.04 82.76,-300.6 89.16,-297.76"/>
</a>
</g>
</g>
<!-- Node4 -->
<g id="Node000004" class="node">
<title>Node4</title>
<g id="a_Node000004"><a xlink:href="structmlir_1_1detail_1_1DialectInterfaceCollectionBase_1_1iterator.html" target="_top" xlink:title=" ">
<polygon fill="white" stroke="#666666" points="371.5,-427 217.5,-427 217.5,-386 371.5,-386 371.5,-427"/>
<text text-anchor="start" x="225.5" y="-415" font-family="Helvetica,sans-Serif" font-size="10.00">mlir::detail::DialectInterface</text>
<text text-anchor="start" x="225.5" y="-404" font-family="Helvetica,sans-Serif" font-size="10.00">CollectionBase::iterator</text>
<text text-anchor="middle" x="294.5" y="-393" font-family="Helvetica,sans-Serif" font-size="10.00">&lt; InterfaceType &gt;</text>
</a>
</g>
</g>
<!-- Node0&#45;&gt;Node4 -->
<g id="edge538_Node000000_Node000004" class="edge">
<title>Node0&#45;&gt;Node4</title>
<g id="a_edge538_Node000000_Node000004"><a xlink:title=" ">
<path fill="none" stroke="#63b8ff" d="M93.42,-297.62C113.62,-319.04 151.04,-355.45 190,-376.5 198.56,-381.12 207.91,-385.11 217.38,-388.52"/>
<polygon fill="#63b8ff" stroke="#63b8ff" points="95.93,-295.17 86.56,-290.21 90.79,-299.93 95.93,-295.17"/>
</a>
</g>
</g>
<!-- Node5 -->
<g id="Node000005" class="node">
<title>Node5</title>
<g id="a_Node000005"><a xlink:href="classmlir_1_1DenseElementsAttr_1_1ComplexFloatElementIterator.html" target="_top" xlink:title="Iterator for walking over complex APFloat values.">
<polygon fill="white" stroke="#666666" points="378,-367.5 211,-367.5 211,-337.5 378,-337.5 378,-367.5"/>
<text text-anchor="start" x="219" y="-355.5" font-family="Helvetica,sans-Serif" font-size="10.00">mlir::DenseElementsAttr</text>
<text text-anchor="middle" x="294.5" y="-344.5" font-family="Helvetica,sans-Serif" font-size="10.00">::ComplexFloatElementIterator</text>
</a>
</g>
</g>
<!-- Node0&#45;&gt;Node5 -->
<g id="edge539_Node000000_Node000005" class="edge">
<title>Node0&#45;&gt;Node5</title>
<g id="a_edge539_Node000000_Node000005"><a xlink:title=" ">
<path fill="none" stroke="#63b8ff" d="M106.65,-294.45C128.96,-304.9 160.93,-318.98 190,-328.5 199.99,-331.77 210.67,-334.78 221.22,-337.47"/>
<polygon fill="#63b8ff" stroke="#63b8ff" points="107.96,-291.2 97.42,-290.08 104.96,-297.52 107.96,-291.2"/>
</a>
</g>
</g>
<!-- Node6 -->
<g id="Node000006" class="node">
<title>Node6</title>
<g id="a_Node000006"><a xlink:href="structmlir_1_1DenseElementsAttr_1_1DerivedAttributeElementIterator.html" target="_top" xlink:title=" ">
<polygon fill="white" stroke="#666666" points="399,-319.5 190,-319.5 190,-289.5 399,-289.5 399,-319.5"/>
<text text-anchor="start" x="198" y="-307.5" font-family="Helvetica,sans-Serif" font-size="10.00">mlir::DenseElementsAttr</text>
<text text-anchor="middle" x="294.5" y="-296.5" font-family="Helvetica,sans-Serif" font-size="10.00">::DerivedAttributeElementIterator&lt; T &gt;</text>
</a>
</g>
</g>
<!-- Node0&#45;&gt;Node6 -->
<g id="edge540_Node000000_Node000006" class="edge">
<title>Node0&#45;&gt;Node6</title>
<g id="a_edge540_Node000000_Node000006"><a xlink:title=" ">
<path fill="none" stroke="#63b8ff" d="M164.37,-290.12C172.73,-291.05 181.27,-292 189.77,-292.95"/>
<polygon fill="#63b8ff" stroke="#63b8ff" points="164.61,-286.62 154.28,-289 163.83,-293.58 164.61,-286.62"/>
</a>
</g>
</g>
<!-- Node7 -->
<g id="Node000007" class="node">
<title>Node7</title>
<g id="a_Node000007"><a xlink:href="classmlir_1_1DenseElementsAttr_1_1FloatElementIterator.html" target="_top" xlink:title="Iterator for walking over APFloat values.">
<polygon fill="white" stroke="#666666" points="363,-271.5 226,-271.5 226,-241.5 363,-241.5 363,-271.5"/>
<text text-anchor="start" x="234" y="-259.5" font-family="Helvetica,sans-Serif" font-size="10.00">mlir::DenseElementsAttr</text>
<text text-anchor="middle" x="294.5" y="-248.5" font-family="Helvetica,sans-Serif" font-size="10.00">::FloatElementIterator</text>
</a>
</g>
</g>
<!-- Node0&#45;&gt;Node7 -->
<g id="edge541_Node000000_Node000007" class="edge">
<title>Node0&#45;&gt;Node7</title>
<g id="a_edge541_Node000000_Node000007"><a xlink:title=" ">
<path fill="none" stroke="#63b8ff" d="M164.25,-270.89C184.77,-268.61 206.38,-266.2 225.93,-264.03"/>
<polygon fill="#63b8ff" stroke="#63b8ff" points="163.83,-267.42 154.28,-272 164.61,-274.38 163.83,-267.42"/>
</a>
</g>
</g>
<!-- Node8 -->
<g id="Node000008" class="node">
<title>Node8</title>
<g id="a_Node000008"><a xlink:href="classmlir_1_1OperandElementTypeIterator.html" target="_top" xlink:title=" ">
<polygon fill="white" stroke="#666666" points="367.5,-223.5 221.5,-223.5 221.5,-193.5 367.5,-193.5 367.5,-223.5"/>
<text text-anchor="start" x="229.5" y="-211.5" font-family="Helvetica,sans-Serif" font-size="10.00">mlir::OperandElementType</text>
<text text-anchor="middle" x="294.5" y="-200.5" font-family="Helvetica,sans-Serif" font-size="10.00">Iterator</text>
</a>
</g>
</g>
<!-- Node0&#45;&gt;Node8 -->
<g id="edge542_Node000000_Node000008" class="edge">
<title>Node0&#45;&gt;Node8</title>
<g id="a_edge542_Node000000_Node000008"><a xlink:title=" ">
<path fill="none" stroke="#63b8ff" d="M106.65,-266.55C128.96,-256.1 160.93,-242.02 190,-232.5 200.08,-229.2 210.85,-226.17 221.5,-223.46"/>
<polygon fill="#63b8ff" stroke="#63b8ff" points="104.96,-263.48 97.42,-270.92 107.96,-269.8 104.96,-263.48"/>
</a>
</g>
</g>
<!-- Node9 -->
<g id="Node000009" class="node">
<title>Node9</title>
<g id="a_Node000009"><a xlink:href="classmlir_1_1ResultElementTypeIterator.html" target="_top" xlink:title=" ">
<polygon fill="white" stroke="#666666" points="380.5,-175 208.5,-175 208.5,-156 380.5,-156 380.5,-175"/>
<text text-anchor="middle" x="294.5" y="-163" font-family="Helvetica,sans-Serif" font-size="10.00">mlir::ResultElementTypeIterator</text>
</a>
</g>
</g>
<!-- Node0&#45;&gt;Node9 -->
<g id="edge543_Node000000_Node000009" class="edge">
<title>Node0&#45;&gt;Node9</title>
<g id="a_edge543_Node000000_Node000009"><a xlink:title=" ">
<path fill="none" stroke="#63b8ff" d="M92.8,-263.09C112.58,-241.05 149.83,-203.66 190,-184.5 198.16,-180.61 207.04,-177.51 216.04,-175.04"/>
<polygon fill="#63b8ff" stroke="#63b8ff" points="90.08,-260.89 86.11,-270.71 95.34,-265.51 90.08,-260.89"/>
</a>
</g>
</g>
<!-- Node10 -->
<g id="Node000010" class="node">
<title>Node10</title>
<g id="a_Node000010"><a xlink:href="classmlir_1_1ValueTypeIterator.html" target="_top" xlink:title="This class implements iteration on the types of a given range of values.">
<polygon fill="white" stroke="#666666" points="358.5,-137.5 230.5,-137.5 230.5,-107.5 358.5,-107.5 358.5,-137.5"/>
<text text-anchor="start" x="238.5" y="-125.5" font-family="Helvetica,sans-Serif" font-size="10.00">mlir::ValueTypeIterator</text>
<text text-anchor="middle" x="294.5" y="-114.5" font-family="Helvetica,sans-Serif" font-size="10.00">&lt; ValueIteratorT &gt;</text>
</a>
</g>
</g>
<!-- Node0&#45;&gt;Node10 -->
<g id="edge544_Node000000_Node000010" class="edge">
<title>Node0&#45;&gt;Node10</title>
<g id="a_edge544_Node000000_Node000010"><a xlink:title=" ">
<path fill="none" stroke="#63b8ff" d="M88.33,-261.88C105.5,-232.75 142.72,-176.75 190,-147.5 202.18,-139.96 216.48,-134.7 230.48,-131.02"/>
<polygon fill="#63b8ff" stroke="#63b8ff" points="85.24,-260.23 83.3,-270.64 91.31,-263.72 85.24,-260.23"/>
</a>
</g>
</g>
<!-- Node11 -->
<g id="Node000011" class="node">
<title>Node11</title>
<g id="a_Node000011"><a xlink:href="classmlir_1_1ValueUserIterator.html" target="_top" xlink:title="An iterator over the users of an IRObject.">
<polygon fill="white" stroke="#666666" points="379.5,-89.5 209.5,-89.5 209.5,-59.5 379.5,-59.5 379.5,-89.5"/>
<text text-anchor="start" x="217.5" y="-77.5" font-family="Helvetica,sans-Serif" font-size="10.00">mlir::ValueUserIterator</text>
<text text-anchor="middle" x="294.5" y="-66.5" font-family="Helvetica,sans-Serif" font-size="10.00">&lt; UseIteratorT, OperandType &gt;</text>
</a>
</g>
</g>
<!-- Node0&#45;&gt;Node11 -->
<g id="edge545_Node000000_Node000011" class="edge">
<title>Node0&#45;&gt;Node11</title>
<g id="a_edge545_Node000000_Node000011"><a xlink:title=" ">
<path fill="none" stroke="#63b8ff" d="M84.27,-260.96C97.43,-223.26 131.61,-140.5 190,-98.5 195.92,-94.25 202.47,-90.73 209.32,-87.83"/>
<polygon fill="#63b8ff" stroke="#63b8ff" points="80.86,-260.13 80.99,-270.73 87.49,-262.36 80.86,-260.13"/>
</a>
</g>
</g>
<!-- Node12 -->
<g id="Node000012" class="node">
<title>Node12</title>
<g id="a_Node000012"><a xlink:href="structmlir_1_1detail_1_1DialectInterfaceCollectionBase_1_1iterator.html" target="_top" xlink:title="An iterator class that iterates the held interface objects of the given derived interface type.">
<polygon fill="white" stroke="#666666" points="371.5,-41 217.5,-41 217.5,0 371.5,0 371.5,-41"/>
<text text-anchor="start" x="225.5" y="-29" font-family="Helvetica,sans-Serif" font-size="10.00">mlir::detail::DialectInterface</text>
<text text-anchor="start" x="225.5" y="-18" font-family="Helvetica,sans-Serif" font-size="10.00">CollectionBase::iterator</text>
<text text-anchor="middle" x="294.5" y="-7" font-family="Helvetica,sans-Serif" font-size="10.00">&lt; InterfaceT &gt;</text>
</a>
</g>
</g>
<!-- Node0&#45;&gt;Node12 -->
<g id="edge546_Node000000_Node000012" class="edge">
<title>Node0&#45;&gt;Node12</title>
<g id="a_edge546_Node000000_Node000012"><a xlink:title=" ">
<path fill="none" stroke="#63b8ff" d="M81.9,-260.87C91.75,-216.5 121.87,-107.87 190,-50.5 198.01,-43.75 207.47,-38.52 217.36,-34.46"/>
<polygon fill="#63b8ff" stroke="#63b8ff" points="78.42,-260.42 79.78,-270.92 85.27,-261.86 78.42,-260.42"/>
</a>
</g>
</g>
</g>
</svg>
