<?xml version="1.0" encoding="UTF-8" standalone="no"?>
<!DOCTYPE svg PUBLIC "-//W3C//DTD SVG 1.1//EN"
 "http://www.w3.org/Graphics/SVG/1.1/DTD/svg11.dtd">
<!-- Generated by graphviz version 2.43.0 (0)
 -->
<!-- Title: Graphical Class Hierarchy Pages: 1 -->
<svg width="311pt" height="64pt"
 viewBox="0.00 0.00 311.00 64.00" xmlns="http://www.w3.org/2000/svg" xmlns:xlink="http://www.w3.org/1999/xlink">
<g id="graph0" class="graph" transform="scale(1 1) rotate(0) translate(4 60)">
<title>Graphical Class Hierarchy</title>
<!-- Node0 -->
<g id="Node000000" class="node">
<title>Node0</title>
<g id="a_Node000000"><a xlink:href="classmlir_1_1tblgen_1_1AttrOrTypeDef.html" target="_top" xlink:title="Wrapper class that contains a TableGen AttrOrTypeDef&#39;s record and provides helper methods for accessi...">
<polygon fill="white" stroke="#666666" points="148,-37 0,-37 0,-18 148,-18 148,-37"/>
<text text-anchor="middle" x="74" y="-25" font-family="Helvetica,sans-Serif" font-size="10.00">mlir::tblgen::AttrOrTypeDef</text>
</a>
</g>
</g>
<!-- Node1 -->
<g id="Node000001" class="node">
<title>Node1</title>
<g id="a_Node000001"><a xlink:href="classmlir_1_1tblgen_1_1AttrDef.html" target="_top" xlink:title="This class represents a wrapper around a tablegen AttrDef record.">
<polygon fill="white" stroke="#666666" points="300.5,-56 186.5,-56 186.5,-37 300.5,-37 300.5,-56"/>
<text text-anchor="middle" x="243.5" y="-44" font-family="Helvetica,sans-Serif" font-size="10.00">mlir::tblgen::AttrDef</text>
</a>
</g>
</g>
<!-- Node0&#45;&gt;Node1 -->
<g id="edge1566_Node000000_Node000001" class="edge">
<title>Node0&#45;&gt;Node1</title>
<g id="a_edge1566_Node000000_Node000001"><a xlink:title=" ">
<path fill="none" stroke="#63b8ff" d="M158.67,-36.99C168.09,-38.06 177.52,-39.13 186.47,-40.14"/>
<polygon fill="#63b8ff" stroke="#63b8ff" points="158.8,-33.48 148.47,-35.83 158.01,-40.44 158.8,-33.48"/>
</a>
</g>
</g>
<!-- Node2 -->
<g id="Node000002" class="node">
<title>Node2</title>
<g id="a_Node000002"><a xlink:href="classmlir_1_1tblgen_1_1TypeDef.html" target="_top" xlink:title="This class represents a wrapper around a tablegen TypeDef record.">
<polygon fill="white" stroke="#666666" points="303,-19 184,-19 184,0 303,0 303,-19"/>
<text text-anchor="middle" x="243.5" y="-7" font-family="Helvetica,sans-Serif" font-size="10.00">mlir::tblgen::TypeDef</text>
</a>
</g>
</g>
<!-- Node0&#45;&gt;Node2 -->
<g id="edge1567_Node000000_Node000002" class="edge">
<title>Node0&#45;&gt;Node2</title>
<g id="a_edge1567_Node000000_Node000002"><a xlink:title=" ">
<path fill="none" stroke="#63b8ff" d="M158.53,-18.52C167.11,-17.6 175.7,-16.68 183.93,-15.79"/>
<polygon fill="#63b8ff" stroke="#63b8ff" points="158.04,-15.06 148.47,-19.6 158.78,-22.02 158.04,-15.06"/>
</a>
</g>
</g>
</g>
</svg>
