<?xml version="1.0" encoding="UTF-8" standalone="no"?>
<!DOCTYPE svg PUBLIC "-//W3C//DTD SVG 1.1//EN"
 "http://www.w3.org/Graphics/SVG/1.1/DTD/svg11.dtd">
<!-- Generated by graphviz version 2.43.0 (0)
 -->
<!-- Title: Graphical Class Hierarchy Pages: 1 -->
<svg width="507pt" height="408pt"
 viewBox="0.00 0.00 507.00 408.00" xmlns="http://www.w3.org/2000/svg" xmlns:xlink="http://www.w3.org/1999/xlink">
<g id="graph0" class="graph" transform="scale(1 1) rotate(0) translate(4 404)">
<title>Graphical Class Hierarchy</title>
<!-- Node0 -->
<g id="Node000000" class="node">
<title>Node0</title>
<g id="a_Node000000"><a xlink:title=" ">
<polygon fill="#e0e0e0" stroke="#999999" points="74,-192.5 0,-192.5 0,-173.5 74,-173.5 74,-192.5"/>
<text text-anchor="middle" x="37" y="-180.5" font-family="Helvetica,sans-Serif" font-size="10.00">llvm::cl::opt</text>
</a>
</g>
</g>
<!-- Node1 -->
<g id="Node000001" class="node">
<title>Node1</title>
<g id="a_Node000001"><a xlink:href="classmlir_1_1detail_1_1PassOptions_1_1Option.html" target="_top" xlink:title=" ">
<polygon fill="white" stroke="#666666" points="285,-400 135,-400 135,-348 285,-348 285,-400"/>
<text text-anchor="start" x="143" y="-388" font-family="Helvetica,sans-Serif" font-size="10.00">mlir::detail::PassOptions</text>
<text text-anchor="start" x="143" y="-377" font-family="Helvetica,sans-Serif" font-size="10.00">::Option&lt; DataType, detail</text>
<text text-anchor="start" x="143" y="-366" font-family="Helvetica,sans-Serif" font-size="10.00">::PassOptions::OptionParser</text>
<text text-anchor="middle" x="210" y="-355" font-family="Helvetica,sans-Serif" font-size="10.00">&lt; DataType &gt; &gt;</text>
</a>
</g>
</g>
<!-- Node0&#45;&gt;Node1 -->
<g id="edge432_Node000000_Node000001" class="edge">
<title>Node0&#45;&gt;Node1</title>
<g id="a_edge432_Node000000_Node000001"><a xlink:title=" ">
<path fill="none" stroke="#63b8ff" d="M41.89,-202.72C49.37,-235.54 68.78,-301.43 110,-339 117.28,-345.63 125.89,-351.02 134.95,-355.4"/>
<polygon fill="#63b8ff" stroke="#63b8ff" points="45.24,-201.65 39.73,-192.6 38.4,-203.11 45.24,-201.65"/>
</a>
</g>
</g>
<!-- Node2 -->
<g id="Node000002" class="node">
<title>Node2</title>
<g id="a_Node000002"><a xlink:href="classmlir_1_1detail_1_1PassOptions_1_1Option.html" target="_top" xlink:title=" ">
<polygon fill="white" stroke="#666666" points="307,-329.5 113,-329.5 113,-288.5 307,-288.5 307,-329.5"/>
<text text-anchor="start" x="121" y="-317.5" font-family="Helvetica,sans-Serif" font-size="10.00">mlir::detail::PassOptions</text>
<text text-anchor="start" x="121" y="-306.5" font-family="Helvetica,sans-Serif" font-size="10.00">::Option&lt; mlir::SparseParallelization</text>
<text text-anchor="middle" x="210" y="-295.5" font-family="Helvetica,sans-Serif" font-size="10.00">Strategy &gt;</text>
</a>
</g>
</g>
<!-- Node0&#45;&gt;Node2 -->
<g id="edge433_Node000000_Node000002" class="edge">
<title>Node0&#45;&gt;Node2</title>
<g id="a_edge433_Node000000_Node000002"><a xlink:title=" ">
<path fill="none" stroke="#63b8ff" d="M47.28,-201.69C58.99,-223.4 81.14,-258.8 110,-279 115,-282.5 120.42,-285.6 126.06,-288.35"/>
<polygon fill="#63b8ff" stroke="#63b8ff" points="50.37,-200.04 42.65,-192.79 44.16,-203.27 50.37,-200.04"/>
</a>
</g>
</g>
<!-- Node3 -->
<g id="Node000003" class="node">
<title>Node3</title>
<g id="a_Node000003"><a xlink:href="classmlir_1_1detail_1_1PassOptions_1_1Option.html" target="_top" xlink:title=" ">
<polygon fill="white" stroke="#666666" points="310,-270 110,-270 110,-240 310,-240 310,-270"/>
<text text-anchor="start" x="118" y="-258" font-family="Helvetica,sans-Serif" font-size="10.00">mlir::detail::PassOptions</text>
<text text-anchor="middle" x="210" y="-247" font-family="Helvetica,sans-Serif" font-size="10.00">::Option&lt; mlir::SparseEmitStrategy &gt;</text>
</a>
</g>
</g>
<!-- Node0&#45;&gt;Node3 -->
<g id="edge434_Node000000_Node000003" class="edge">
<title>Node0&#45;&gt;Node3</title>
<g id="a_edge434_Node000000_Node000003"><a xlink:title=" ">
<path fill="none" stroke="#63b8ff" d="M57.74,-198.93C71.62,-209.42 91.04,-222.69 110,-231 117.78,-234.41 126.12,-237.38 134.54,-239.96"/>
<polygon fill="#63b8ff" stroke="#63b8ff" points="59.53,-195.89 49.48,-192.53 55.24,-201.42 59.53,-195.89"/>
</a>
</g>
</g>
<!-- Node4 -->
<g id="Node000004" class="node">
<title>Node4</title>
<g id="a_Node000004"><a xlink:href="classmlir_1_1detail_1_1PassOptions_1_1Option.html" target="_top" xlink:title=" ">
<polygon fill="white" stroke="#666666" points="277.5,-222 142.5,-222 142.5,-192 277.5,-192 277.5,-222"/>
<text text-anchor="start" x="150.5" y="-210" font-family="Helvetica,sans-Serif" font-size="10.00">mlir::detail::PassOptions</text>
<text text-anchor="middle" x="210" y="-199" font-family="Helvetica,sans-Serif" font-size="10.00">::Option&lt; bool &gt;</text>
</a>
</g>
</g>
<!-- Node0&#45;&gt;Node4 -->
<g id="edge435_Node000000_Node000004" class="edge">
<title>Node0&#45;&gt;Node4</title>
<g id="a_edge435_Node000000_Node000004"><a xlink:title=" ">
<path fill="none" stroke="#63b8ff" d="M84.41,-189.51C102.27,-192.02 123.02,-194.93 142.41,-197.65"/>
<polygon fill="#63b8ff" stroke="#63b8ff" points="84.65,-186.01 74.26,-188.09 83.68,-192.95 84.65,-186.01"/>
</a>
</g>
</g>
<!-- Node5 -->
<g id="Node000005" class="node">
<title>Node5</title>
<g id="a_Node000005"><a xlink:href="classmlir_1_1detail_1_1PassOptions_1_1Option.html" target="_top" xlink:title=" ">
<polygon fill="white" stroke="#666666" points="277.5,-174 142.5,-174 142.5,-144 277.5,-144 277.5,-174"/>
<text text-anchor="start" x="150.5" y="-162" font-family="Helvetica,sans-Serif" font-size="10.00">mlir::detail::PassOptions</text>
<text text-anchor="middle" x="210" y="-151" font-family="Helvetica,sans-Serif" font-size="10.00">::Option&lt; int32_t &gt;</text>
</a>
</g>
</g>
<!-- Node0&#45;&gt;Node5 -->
<g id="edge436_Node000000_Node000005" class="edge">
<title>Node0&#45;&gt;Node5</title>
<g id="a_edge436_Node000000_Node000005"><a xlink:title=" ">
<path fill="none" stroke="#63b8ff" d="M84.41,-176.49C102.27,-173.98 123.02,-171.07 142.41,-168.35"/>
<polygon fill="#63b8ff" stroke="#63b8ff" points="83.68,-173.05 74.26,-177.91 84.65,-179.99 83.68,-173.05"/>
</a>
</g>
</g>
<!-- Node6 -->
<g id="Node000006" class="node">
<title>Node6</title>
<g id="a_Node000006"><a xlink:href="classmlir_1_1detail_1_1PassOptions_1_1Option.html" target="_top" xlink:title=" ">
<polygon fill="white" stroke="#666666" points="277.5,-126 142.5,-126 142.5,-96 277.5,-96 277.5,-126"/>
<text text-anchor="start" x="150.5" y="-114" font-family="Helvetica,sans-Serif" font-size="10.00">mlir::detail::PassOptions</text>
<text text-anchor="middle" x="210" y="-103" font-family="Helvetica,sans-Serif" font-size="10.00">::Option&lt; std::string &gt;</text>
</a>
</g>
</g>
<!-- Node0&#45;&gt;Node6 -->
<g id="edge437_Node000000_Node000006" class="edge">
<title>Node0&#45;&gt;Node6</title>
<g id="a_edge437_Node000000_Node000006"><a xlink:title=" ">
<path fill="none" stroke="#63b8ff" d="M57.74,-167.07C71.62,-156.58 91.04,-143.31 110,-135 120.21,-130.53 131.38,-126.81 142.44,-123.73"/>
<polygon fill="#63b8ff" stroke="#63b8ff" points="55.24,-164.58 49.48,-173.47 59.53,-170.11 55.24,-164.58"/>
</a>
</g>
</g>
<!-- Node7 -->
<g id="Node000007" class="node">
<title>Node7</title>
<g id="a_Node000007"><a xlink:href="classmlir_1_1detail_1_1PassOptions_1_1Option.html" target="_top" xlink:title=" ">
<polygon fill="white" stroke="#666666" points="277.5,-78 142.5,-78 142.5,-48 277.5,-48 277.5,-78"/>
<text text-anchor="start" x="150.5" y="-66" font-family="Helvetica,sans-Serif" font-size="10.00">mlir::detail::PassOptions</text>
<text text-anchor="middle" x="210" y="-55" font-family="Helvetica,sans-Serif" font-size="10.00">::Option&lt; unsigned &gt;</text>
</a>
</g>
</g>
<!-- Node0&#45;&gt;Node7 -->
<g id="edge438_Node000000_Node000007" class="edge">
<title>Node0&#45;&gt;Node7</title>
<g id="a_edge438_Node000000_Node000007"><a xlink:title=" ">
<path fill="none" stroke="#63b8ff" d="M46.91,-164.36C58.39,-142.41 80.43,-106.48 110,-87 119.75,-80.58 131.05,-75.87 142.46,-72.42"/>
<polygon fill="#63b8ff" stroke="#63b8ff" points="43.75,-162.85 42.39,-173.35 50.01,-165.99 43.75,-162.85"/>
</a>
</g>
</g>
<!-- Node8 -->
<g id="Node000008" class="node">
<title>Node8</title>
<g id="a_Node000008"><a xlink:href="classmlir_1_1detail_1_1PassOptions_1_1Option.html" target="_top" xlink:title="This class represents a specific pass option, with a provided data type.">
<polygon fill="white" stroke="#666666" points="305.5,-30 114.5,-30 114.5,0 305.5,0 305.5,-30"/>
<text text-anchor="start" x="122.5" y="-18" font-family="Helvetica,sans-Serif" font-size="10.00">mlir::detail::PassOptions</text>
<text text-anchor="middle" x="210" y="-7" font-family="Helvetica,sans-Serif" font-size="10.00">::Option&lt; DataType, OptionParser &gt;</text>
</a>
</g>
</g>
<!-- Node0&#45;&gt;Node8 -->
<g id="edge439_Node000000_Node000008" class="edge">
<title>Node0&#45;&gt;Node8</title>
<g id="a_edge439_Node000000_Node000008"><a xlink:title=" ">
<path fill="none" stroke="#63b8ff" d="M42.29,-163.02C50.1,-131.65 69.69,-71.1 110,-39 114.29,-35.58 118.99,-32.64 123.94,-30.11"/>
<polygon fill="#63b8ff" stroke="#63b8ff" points="38.79,-162.62 39.93,-173.15 45.61,-164.21 38.79,-162.62"/>
</a>
</g>
</g>
<!-- Node9 -->
<g id="Node000009" class="node">
<title>Node9</title>
<g id="a_Node000009"><a xlink:href="structmlir_1_1Pass_1_1Option.html" target="_top" xlink:title="This class represents a specific pass option, with a provided data type.">
<polygon fill="white" stroke="#666666" points="499,-30 346,-30 346,0 499,0 499,-30"/>
<text text-anchor="start" x="354" y="-18" font-family="Helvetica,sans-Serif" font-size="10.00">mlir::Pass::Option</text>
<text text-anchor="middle" x="422.5" y="-7" font-family="Helvetica,sans-Serif" font-size="10.00">&lt; DataType, OptionParser &gt;</text>
</a>
</g>
</g>
<!-- Node8&#45;&gt;Node9 -->
<g id="edge440_Node000008_Node000009" class="edge">
<title>Node8&#45;&gt;Node9</title>
<g id="a_edge440_Node000008_Node000009"><a xlink:title=" ">
<path fill="none" stroke="#63b8ff" d="M315.88,-15C325.99,-15 336.1,-15 345.85,-15"/>
<polygon fill="#63b8ff" stroke="#63b8ff" points="315.78,-11.5 305.78,-15 315.78,-18.5 315.78,-11.5"/>
</a>
</g>
</g>
</g>
</svg>
