<?xml version="1.0" encoding="UTF-8" standalone="no"?>
<!DOCTYPE svg PUBLIC "-//W3C//DTD SVG 1.1//EN"
 "http://www.w3.org/Graphics/SVG/1.1/DTD/svg11.dtd">
<!-- Generated by graphviz version 2.43.0 (0)
 -->
<!-- Title: Graphical Class Hierarchy Pages: 1 -->
<svg width="319pt" height="321pt"
 viewBox="0.00 0.00 319.00 321.00" xmlns="http://www.w3.org/2000/svg" xmlns:xlink="http://www.w3.org/1999/xlink">
<g id="graph0" class="graph" transform="scale(1 1) rotate(0) translate(4 317)">
<title>Graphical Class Hierarchy</title>
<!-- Node0 -->
<g id="Node000000" class="node">
<title>Node0</title>
<g id="a_Node000000"><a xlink:href="classmlir_1_1irdl_1_1Constraint.html" target="_top" xlink:title="Once turned into IRDL verifiers, all constraints are attribute constraints.">
<polygon fill="white" stroke="#666666" points="114,-171 0,-171 0,-152 114,-152 114,-171"/>
<text text-anchor="middle" x="57" y="-159" font-family="Helvetica,sans-Serif" font-size="10.00">mlir::irdl::Constraint</text>
</a>
</g>
</g>
<!-- Node1 -->
<g id="Node000001" class="node">
<title>Node1</title>
<g id="a_Node000001"><a xlink:href="classmlir_1_1irdl_1_1AllOfConstraint.html" target="_top" xlink:title="A constraint checking that all of the given constraints are satisfied.">
<polygon fill="white" stroke="#666666" points="299.5,-313 161.5,-313 161.5,-294 299.5,-294 299.5,-313"/>
<text text-anchor="middle" x="230.5" y="-301" font-family="Helvetica,sans-Serif" font-size="10.00">mlir::irdl::AllOfConstraint</text>
</a>
</g>
</g>
<!-- Node0&#45;&gt;Node1 -->
<g id="edge792_Node000000_Node000001" class="edge">
<title>Node0&#45;&gt;Node1</title>
<g id="a_edge792_Node000000_Node000001"><a xlink:title=" ">
<path fill="none" stroke="#63b8ff" d="M66.91,-180.61C80.7,-208.03 109.89,-258.13 150,-284.5 155.93,-288.4 162.57,-291.5 169.43,-293.96"/>
<polygon fill="#63b8ff" stroke="#63b8ff" points="69.9,-178.77 62.38,-171.31 63.61,-181.83 69.9,-178.77"/>
</a>
</g>
</g>
<!-- Node2 -->
<g id="Node000002" class="node">
<title>Node2</title>
<g id="a_Node000002"><a xlink:href="classmlir_1_1irdl_1_1AnyAttributeConstraint.html" target="_top" xlink:title="A constraint that is always satisfied.">
<polygon fill="white" stroke="#666666" points="293,-275.5 168,-275.5 168,-245.5 293,-245.5 293,-275.5"/>
<text text-anchor="start" x="176" y="-263.5" font-family="Helvetica,sans-Serif" font-size="10.00">mlir::irdl::AnyAttribute</text>
<text text-anchor="middle" x="230.5" y="-252.5" font-family="Helvetica,sans-Serif" font-size="10.00">Constraint</text>
</a>
</g>
</g>
<!-- Node0&#45;&gt;Node2 -->
<g id="edge793_Node000000_Node000002" class="edge">
<title>Node0&#45;&gt;Node2</title>
<g id="a_edge793_Node000000_Node000002"><a xlink:title=" ">
<path fill="none" stroke="#63b8ff" d="M74.41,-178.29C91.76,-195.18 120.65,-220.9 150,-236.5 156.37,-239.88 163.28,-242.86 170.28,-245.46"/>
<polygon fill="#63b8ff" stroke="#63b8ff" points="76.85,-175.78 67.28,-171.22 71.91,-180.75 76.85,-175.78"/>
</a>
</g>
</g>
<!-- Node3 -->
<g id="Node000003" class="node">
<title>Node3</title>
<g id="a_Node000003"><a xlink:href="classmlir_1_1irdl_1_1AnyOfConstraint.html" target="_top" xlink:title="A constraint checking that one of the given constraints is satisfied.">
<polygon fill="white" stroke="#666666" points="302.5,-227 158.5,-227 158.5,-208 302.5,-208 302.5,-227"/>
<text text-anchor="middle" x="230.5" y="-215" font-family="Helvetica,sans-Serif" font-size="10.00">mlir::irdl::AnyOfConstraint</text>
</a>
</g>
</g>
<!-- Node0&#45;&gt;Node3 -->
<g id="edge794_Node000000_Node000003" class="edge">
<title>Node0&#45;&gt;Node3</title>
<g id="a_edge794_Node000000_Node000003"><a xlink:title=" ">
<path fill="none" stroke="#63b8ff" d="M87.73,-175.28C105.52,-183.15 128.74,-192.75 150,-199.5 159.98,-202.67 170.84,-205.51 181.22,-207.94"/>
<polygon fill="#63b8ff" stroke="#63b8ff" points="89.01,-172.02 78.46,-171.12 86.15,-178.41 89.01,-172.02"/>
</a>
</g>
</g>
<!-- Node4 -->
<g id="Node000004" class="node">
<title>Node4</title>
<g id="a_Node000004"><a xlink:href="classmlir_1_1irdl_1_1BaseAttrConstraint.html" target="_top" xlink:title="A constraint that checks that an attribute is of a given attribute base (e.g.">
<polygon fill="white" stroke="#666666" points="308.5,-190 152.5,-190 152.5,-171 308.5,-171 308.5,-190"/>
<text text-anchor="middle" x="230.5" y="-178" font-family="Helvetica,sans-Serif" font-size="10.00">mlir::irdl::BaseAttrConstraint</text>
</a>
</g>
</g>
<!-- Node0&#45;&gt;Node4 -->
<g id="edge795_Node000000_Node000004" class="edge">
<title>Node0&#45;&gt;Node4</title>
<g id="a_edge795_Node000000_Node000004"><a xlink:title=" ">
<path fill="none" stroke="#63b8ff" d="M124.35,-168.85C133.52,-169.87 143.01,-170.92 152.35,-171.95"/>
<polygon fill="#63b8ff" stroke="#63b8ff" points="124.48,-165.34 114.16,-167.72 123.71,-172.3 124.48,-165.34"/>
</a>
</g>
</g>
<!-- Node5 -->
<g id="Node000005" class="node">
<title>Node5</title>
<g id="a_Node000005"><a xlink:href="classmlir_1_1irdl_1_1BaseTypeConstraint.html" target="_top" xlink:title="A constraint that checks that a type is of a given type base (e.g.">
<polygon fill="white" stroke="#666666" points="311,-153 150,-153 150,-134 311,-134 311,-153"/>
<text text-anchor="middle" x="230.5" y="-141" font-family="Helvetica,sans-Serif" font-size="10.00">mlir::irdl::BaseTypeConstraint</text>
</a>
</g>
</g>
<!-- Node0&#45;&gt;Node5 -->
<g id="edge796_Node000000_Node000005" class="edge">
<title>Node0&#45;&gt;Node5</title>
<g id="a_edge796_Node000000_Node000005"><a xlink:title=" ">
<path fill="none" stroke="#63b8ff" d="M124.24,-154.55C132.64,-153.67 141.3,-152.76 149.88,-151.86"/>
<polygon fill="#63b8ff" stroke="#63b8ff" points="123.74,-151.08 114.16,-155.61 124.47,-158.04 123.74,-151.08"/>
</a>
</g>
</g>
<!-- Node6 -->
<g id="Node000006" class="node">
<title>Node6</title>
<g id="a_Node000006"><a xlink:href="classmlir_1_1irdl_1_1DynParametricAttrConstraint.html" target="_top" xlink:title="A constraint that checks that an attribute is of a specific dynamic attribute definition,...">
<polygon fill="white" stroke="#666666" points="298.5,-115.5 162.5,-115.5 162.5,-85.5 298.5,-85.5 298.5,-115.5"/>
<text text-anchor="start" x="170.5" y="-103.5" font-family="Helvetica,sans-Serif" font-size="10.00">mlir::irdl::DynParametric</text>
<text text-anchor="middle" x="230.5" y="-92.5" font-family="Helvetica,sans-Serif" font-size="10.00">AttrConstraint</text>
</a>
</g>
</g>
<!-- Node0&#45;&gt;Node6 -->
<g id="edge797_Node000000_Node000006" class="edge">
<title>Node0&#45;&gt;Node6</title>
<g id="a_edge797_Node000000_Node000006"><a xlink:title=" ">
<path fill="none" stroke="#63b8ff" d="M90.99,-147.96C108.43,-140.96 130.26,-132.46 150,-125.5 159.55,-122.13 169.82,-118.74 179.71,-115.58"/>
<polygon fill="#63b8ff" stroke="#63b8ff" points="89.24,-144.89 81.28,-151.88 91.86,-151.38 89.24,-144.89"/>
</a>
</g>
</g>
<!-- Node7 -->
<g id="Node000007" class="node">
<title>Node7</title>
<g id="a_Node000007"><a xlink:href="classmlir_1_1irdl_1_1DynParametricTypeConstraint.html" target="_top" xlink:title="A constraint that checks that a type is of a specific dynamic type definition, and that all of its pa...">
<polygon fill="white" stroke="#666666" points="298.5,-67.5 162.5,-67.5 162.5,-37.5 298.5,-37.5 298.5,-67.5"/>
<text text-anchor="start" x="170.5" y="-55.5" font-family="Helvetica,sans-Serif" font-size="10.00">mlir::irdl::DynParametric</text>
<text text-anchor="middle" x="230.5" y="-44.5" font-family="Helvetica,sans-Serif" font-size="10.00">TypeConstraint</text>
</a>
</g>
</g>
<!-- Node0&#45;&gt;Node7 -->
<g id="edge798_Node000000_Node000007" class="edge">
<title>Node0&#45;&gt;Node7</title>
<g id="a_edge798_Node000000_Node000007"><a xlink:title=" ">
<path fill="none" stroke="#63b8ff" d="M72.38,-144.15C89.15,-124.98 118.59,-94.46 150,-76.5 155.88,-73.14 162.28,-70.2 168.82,-67.64"/>
<polygon fill="#63b8ff" stroke="#63b8ff" points="69.65,-141.96 65.81,-151.83 74.97,-146.51 69.65,-141.96"/>
</a>
</g>
</g>
<!-- Node8 -->
<g id="Node000008" class="node">
<title>Node8</title>
<g id="a_Node000008"><a xlink:href="classmlir_1_1irdl_1_1IsConstraint.html" target="_top" xlink:title="A constraint that checks that an attribute is equal to a given attribute.">
<polygon fill="white" stroke="#666666" points="291.5,-19 169.5,-19 169.5,0 291.5,0 291.5,-19"/>
<text text-anchor="middle" x="230.5" y="-7" font-family="Helvetica,sans-Serif" font-size="10.00">mlir::irdl::IsConstraint</text>
</a>
</g>
</g>
<!-- Node0&#45;&gt;Node8 -->
<g id="edge799_Node000000_Node000008" class="edge">
<title>Node0&#45;&gt;Node8</title>
<g id="a_edge799_Node000000_Node000008"><a xlink:title=" ">
<path fill="none" stroke="#63b8ff" d="M65.73,-142.53C78.66,-113.3 107.49,-57.59 150,-28.5 155.86,-24.49 162.46,-21.33 169.29,-18.82"/>
<polygon fill="#63b8ff" stroke="#63b8ff" points="62.4,-141.43 61.7,-152 68.84,-144.17 62.4,-141.43"/>
</a>
</g>
</g>
</g>
</svg>
