<?xml version="1.0" encoding="UTF-8" standalone="no"?>
<!DOCTYPE svg PUBLIC "-//W3C//DTD SVG 1.1//EN"
 "http://www.w3.org/Graphics/SVG/1.1/DTD/svg11.dtd">
<!-- Generated by graphviz version 2.43.0 (0)
 -->
<!-- Title: Graphical Class Hierarchy Pages: 1 -->
<svg width="566pt" height="356pt"
 viewBox="0.00 0.00 566.00 356.00" xmlns="http://www.w3.org/2000/svg" xmlns:xlink="http://www.w3.org/1999/xlink">
<g id="graph0" class="graph" transform="scale(1 1) rotate(0) translate(4 352)">
<title>Graphical Class Hierarchy</title>
<!-- Node0 -->
<g id="Node000000" class="node">
<title>Node0</title>
<g id="a_Node000000"><a xlink:title=" ">
<polygon fill="#e0e0e0" stroke="#999999" points="131,-172.5 0,-172.5 0,-142.5 131,-142.5 131,-172.5"/>
<text text-anchor="start" x="8" y="-160.5" font-family="Helvetica,sans-Serif" font-size="10.00">llvm::indexed_accessor</text>
<text text-anchor="middle" x="65.5" y="-149.5" font-family="Helvetica,sans-Serif" font-size="10.00">_iterator</text>
</a>
</g>
</g>
<!-- Node1 -->
<g id="Node000001" class="node">
<title>Node1</title>
<g id="a_Node000001"><a xlink:href="classmlir_1_1detail_1_1DenseElementIndexedIteratorImpl.html" target="_top" xlink:title=" ">
<polygon fill="white" stroke="#666666" points="360,-348 174,-348 174,-307 360,-307 360,-348"/>
<text text-anchor="start" x="182" y="-336" font-family="Helvetica,sans-Serif" font-size="10.00">mlir::detail::DenseElement</text>
<text text-anchor="start" x="182" y="-325" font-family="Helvetica,sans-Serif" font-size="10.00">IndexedIteratorImpl&lt; BoolElement</text>
<text text-anchor="middle" x="267" y="-314" font-family="Helvetica,sans-Serif" font-size="10.00">Iterator, bool, bool, bool &gt;</text>
</a>
</g>
</g>
<!-- Node0&#45;&gt;Node1 -->
<g id="edge493_Node000000_Node000001" class="edge">
<title>Node0&#45;&gt;Node1</title>
<g id="a_edge493_Node000000_Node000001"><a xlink:title=" ">
<path fill="none" stroke="#63b8ff" d="M77.67,-182.22C93.21,-213.84 124.34,-268.16 167,-298.5 171.38,-301.61 176.09,-304.4 181,-306.88"/>
<polygon fill="#63b8ff" stroke="#63b8ff" points="80.64,-180.32 73.17,-172.81 74.32,-183.34 80.64,-180.32"/>
</a>
</g>
</g>
<!-- Node3 -->
<g id="Node000003" class="node">
<title>Node3</title>
<g id="a_Node000003"><a xlink:href="classmlir_1_1detail_1_1DenseElementIndexedIteratorImpl.html" target="_top" xlink:title=" ">
<polygon fill="white" stroke="#666666" points="357,-289 177,-289 177,-226 357,-226 357,-289"/>
<text text-anchor="start" x="185" y="-277" font-family="Helvetica,sans-Serif" font-size="10.00">mlir::detail::DenseElement</text>
<text text-anchor="start" x="185" y="-266" font-family="Helvetica,sans-Serif" font-size="10.00">IndexedIteratorImpl&lt; ComplexInt</text>
<text text-anchor="start" x="185" y="-255" font-family="Helvetica,sans-Serif" font-size="10.00">ElementIterator, std::complex</text>
<text text-anchor="start" x="185" y="-244" font-family="Helvetica,sans-Serif" font-size="10.00">&lt; APInt &gt;, std::complex&lt; APInt</text>
<text text-anchor="middle" x="267" y="-233" font-family="Helvetica,sans-Serif" font-size="10.00"> &gt;, std::complex&lt; APInt &gt; &gt;</text>
</a>
</g>
</g>
<!-- Node0&#45;&gt;Node3 -->
<g id="edge495_Node000000_Node000003" class="edge">
<title>Node0&#45;&gt;Node3</title>
<g id="a_edge495_Node000000_Node000003"><a xlink:title=" ">
<path fill="none" stroke="#63b8ff" d="M97.96,-177.99C117.42,-190.23 143.17,-205.66 167,-217.5 172.81,-220.39 178.88,-223.23 185.04,-225.99"/>
<polygon fill="#63b8ff" stroke="#63b8ff" points="99.8,-175.01 89.48,-172.61 96.05,-180.92 99.8,-175.01"/>
</a>
</g>
</g>
<!-- Node5 -->
<g id="Node000005" class="node">
<title>Node5</title>
<g id="a_Node000005"><a xlink:href="classmlir_1_1detail_1_1DenseElementIndexedIteratorImpl.html" target="_top" xlink:title=" ">
<polygon fill="white" stroke="#666666" points="367,-208 167,-208 167,-167 367,-167 367,-208"/>
<text text-anchor="start" x="175" y="-196" font-family="Helvetica,sans-Serif" font-size="10.00">mlir::detail::DenseElement</text>
<text text-anchor="start" x="175" y="-185" font-family="Helvetica,sans-Serif" font-size="10.00">IndexedIteratorImpl&lt; ElementIterator</text>
<text text-anchor="middle" x="267" y="-174" font-family="Helvetica,sans-Serif" font-size="10.00">&lt; T &gt;, const T &gt;</text>
</a>
</g>
</g>
<!-- Node0&#45;&gt;Node5 -->
<g id="edge497_Node000000_Node000005" class="edge">
<title>Node0&#45;&gt;Node5</title>
<g id="a_edge497_Node000000_Node000005"><a xlink:title=" ">
<path fill="none" stroke="#63b8ff" d="M141.3,-168.75C149.63,-170 158.21,-171.29 166.78,-172.58"/>
<polygon fill="#63b8ff" stroke="#63b8ff" points="141.68,-165.27 131.27,-167.24 140.64,-172.19 141.68,-165.27"/>
</a>
</g>
</g>
<!-- Node7 -->
<g id="Node000007" class="node">
<title>Node7</title>
<g id="a_Node000007"><a xlink:href="classmlir_1_1detail_1_1DenseElementIndexedIteratorImpl.html" target="_top" xlink:title=" ">
<polygon fill="white" stroke="#666666" points="355.5,-149 178.5,-149 178.5,-108 355.5,-108 355.5,-149"/>
<text text-anchor="start" x="186.5" y="-137" font-family="Helvetica,sans-Serif" font-size="10.00">mlir::detail::DenseElement</text>
<text text-anchor="start" x="186.5" y="-126" font-family="Helvetica,sans-Serif" font-size="10.00">IndexedIteratorImpl&lt; IntElement</text>
<text text-anchor="middle" x="267" y="-115" font-family="Helvetica,sans-Serif" font-size="10.00">Iterator, APInt, APInt, APInt &gt;</text>
</a>
</g>
</g>
<!-- Node0&#45;&gt;Node7 -->
<g id="edge499_Node000000_Node000007" class="edge">
<title>Node0&#45;&gt;Node7</title>
<g id="a_edge499_Node000000_Node000007"><a xlink:title=" ">
<path fill="none" stroke="#63b8ff" d="M141.28,-146.63C153.37,-144.87 165.98,-143.04 178.34,-141.24"/>
<polygon fill="#63b8ff" stroke="#63b8ff" points="140.66,-143.18 131.27,-148.08 141.67,-150.11 140.66,-143.18"/>
</a>
</g>
</g>
<!-- Node9 -->
<g id="Node000009" class="node">
<title>Node9</title>
<g id="a_Node000009"><a xlink:href="classmlir_1_1DenseElementsAttr_1_1AttributeElementIterator.html" target="_top" xlink:title="A utility iterator that allows walking over the internal Attribute values of a DenseElementsAttr.">
<polygon fill="white" stroke="#666666" points="338,-89.5 196,-89.5 196,-59.5 338,-59.5 338,-89.5"/>
<text text-anchor="start" x="204" y="-77.5" font-family="Helvetica,sans-Serif" font-size="10.00">mlir::DenseElementsAttr</text>
<text text-anchor="middle" x="267" y="-66.5" font-family="Helvetica,sans-Serif" font-size="10.00">::AttributeElementIterator</text>
</a>
</g>
</g>
<!-- Node0&#45;&gt;Node9 -->
<g id="edge501_Node000000_Node000009" class="edge">
<title>Node0&#45;&gt;Node9</title>
<g id="a_edge501_Node000000_Node000009"><a xlink:title=" ">
<path fill="none" stroke="#63b8ff" d="M96.29,-136.87C115.69,-124.25 141.95,-108.63 167,-98.5 176.18,-94.79 186.08,-91.55 195.95,-88.76"/>
<polygon fill="#63b8ff" stroke="#63b8ff" points="94.3,-133.99 87.89,-142.43 98.16,-139.83 94.3,-133.99"/>
</a>
</g>
</g>
<!-- Node10 -->
<g id="Node000010" class="node">
<title>Node10</title>
<g id="a_Node000010"><a xlink:href="classmlir_1_1detail_1_1DenseElementIndexedIteratorImpl.html" target="_top" xlink:title="Impl iterator for indexed DenseElementsAttr iterators that records a data pointer and data index that...">
<polygon fill="white" stroke="#666666" points="355,-41 179,-41 179,0 355,0 355,-41"/>
<text text-anchor="start" x="187" y="-29" font-family="Helvetica,sans-Serif" font-size="10.00">mlir::detail::DenseElement</text>
<text text-anchor="start" x="187" y="-18" font-family="Helvetica,sans-Serif" font-size="10.00">IndexedIteratorImpl&lt; ConcreteT,</text>
<text text-anchor="middle" x="267" y="-7" font-family="Helvetica,sans-Serif" font-size="10.00"> T, PointerT, ReferenceT &gt;</text>
</a>
</g>
</g>
<!-- Node0&#45;&gt;Node10 -->
<g id="edge502_Node000000_Node000010" class="edge">
<title>Node0&#45;&gt;Node10</title>
<g id="a_edge502_Node000000_Node000010"><a xlink:title=" ">
<path fill="none" stroke="#63b8ff" d="M82.68,-134.06C100.62,-109.79 131.71,-72.4 167,-50.5 172.65,-47 178.73,-43.88 185,-41.11"/>
<polygon fill="#63b8ff" stroke="#63b8ff" points="79.71,-132.2 76.69,-142.36 85.38,-136.3 79.71,-132.2"/>
</a>
</g>
</g>
<!-- Node2 -->
<g id="Node000002" class="node">
<title>Node2</title>
<g id="a_Node000002"><a xlink:href="classmlir_1_1DenseElementsAttr_1_1BoolElementIterator.html" target="_top" xlink:title="A utility iterator that allows walking over the internal bool values.">
<polygon fill="white" stroke="#666666" points="549,-342.5 412,-342.5 412,-312.5 549,-312.5 549,-342.5"/>
<text text-anchor="start" x="420" y="-330.5" font-family="Helvetica,sans-Serif" font-size="10.00">mlir::DenseElementsAttr</text>
<text text-anchor="middle" x="480.5" y="-319.5" font-family="Helvetica,sans-Serif" font-size="10.00">::BoolElementIterator</text>
</a>
</g>
</g>
<!-- Node1&#45;&gt;Node2 -->
<g id="edge494_Node000001_Node000002" class="edge">
<title>Node1&#45;&gt;Node2</title>
<g id="a_edge494_Node000001_Node000002"><a xlink:title=" ">
<path fill="none" stroke="#63b8ff" d="M370.37,-327.5C384.44,-327.5 398.59,-327.5 411.83,-327.5"/>
<polygon fill="#63b8ff" stroke="#63b8ff" points="370.15,-324 360.15,-327.5 370.15,-331 370.15,-324"/>
</a>
</g>
</g>
<!-- Node4 -->
<g id="Node000004" class="node">
<title>Node4</title>
<g id="a_Node000004"><a xlink:href="classmlir_1_1DenseElementsAttr_1_1ComplexIntElementIterator.html" target="_top" xlink:title="A utility iterator that allows walking over the internal raw complex APInt values.">
<polygon fill="white" stroke="#666666" points="558,-272.5 403,-272.5 403,-242.5 558,-242.5 558,-272.5"/>
<text text-anchor="start" x="411" y="-260.5" font-family="Helvetica,sans-Serif" font-size="10.00">mlir::DenseElementsAttr</text>
<text text-anchor="middle" x="480.5" y="-249.5" font-family="Helvetica,sans-Serif" font-size="10.00">::ComplexIntElementIterator</text>
</a>
</g>
</g>
<!-- Node3&#45;&gt;Node4 -->
<g id="edge496_Node000003_Node000004" class="edge">
<title>Node3&#45;&gt;Node4</title>
<g id="a_edge496_Node000003_Node000004"><a xlink:title=" ">
<path fill="none" stroke="#63b8ff" d="M367.14,-257.5C379.16,-257.5 391.29,-257.5 402.92,-257.5"/>
<polygon fill="#63b8ff" stroke="#63b8ff" points="367.08,-254 357.08,-257.5 367.08,-261 367.08,-254"/>
</a>
</g>
</g>
<!-- Node6 -->
<g id="Node000006" class="node">
<title>Node6</title>
<g id="a_Node000006"><a xlink:href="classmlir_1_1DenseElementsAttr_1_1ElementIterator.html" target="_top" xlink:title="Iterator for walking raw element values of the specified type &#39;T&#39;, which may be any c++ data type mat...">
<polygon fill="white" stroke="#666666" points="549,-202.5 412,-202.5 412,-172.5 549,-172.5 549,-202.5"/>
<text text-anchor="start" x="420" y="-190.5" font-family="Helvetica,sans-Serif" font-size="10.00">mlir::DenseElementsAttr</text>
<text text-anchor="middle" x="480.5" y="-179.5" font-family="Helvetica,sans-Serif" font-size="10.00">::ElementIterator&lt; T &gt;</text>
</a>
</g>
</g>
<!-- Node5&#45;&gt;Node6 -->
<g id="edge498_Node000005_Node000006" class="edge">
<title>Node5&#45;&gt;Node6</title>
<g id="a_edge498_Node000005_Node000006"><a xlink:title=" ">
<path fill="none" stroke="#63b8ff" d="M377.55,-187.5C389.26,-187.5 400.92,-187.5 411.94,-187.5"/>
<polygon fill="#63b8ff" stroke="#63b8ff" points="377.25,-184 367.25,-187.5 377.25,-191 377.25,-184"/>
</a>
</g>
</g>
<!-- Node8 -->
<g id="Node000008" class="node">
<title>Node8</title>
<g id="a_Node000008"><a xlink:href="classmlir_1_1DenseElementsAttr_1_1IntElementIterator.html" target="_top" xlink:title="A utility iterator that allows walking over the internal raw APInt values.">
<polygon fill="white" stroke="#666666" points="549,-143.5 412,-143.5 412,-113.5 549,-113.5 549,-143.5"/>
<text text-anchor="start" x="420" y="-131.5" font-family="Helvetica,sans-Serif" font-size="10.00">mlir::DenseElementsAttr</text>
<text text-anchor="middle" x="480.5" y="-120.5" font-family="Helvetica,sans-Serif" font-size="10.00">::IntElementIterator</text>
</a>
</g>
</g>
<!-- Node7&#45;&gt;Node8 -->
<g id="edge500_Node000007_Node000008" class="edge">
<title>Node7&#45;&gt;Node8</title>
<g id="a_edge500_Node000007_Node000008"><a xlink:title=" ">
<path fill="none" stroke="#63b8ff" d="M365.72,-128.5C381.27,-128.5 397.05,-128.5 411.71,-128.5"/>
<polygon fill="#63b8ff" stroke="#63b8ff" points="365.55,-125 355.55,-128.5 365.55,-132 365.55,-125"/>
</a>
</g>
</g>
</g>
</svg>
