<?xml version="1.0" encoding="UTF-8" standalone="no"?>
<!DOCTYPE svg PUBLIC "-//W3C//DTD SVG 1.1//EN"
 "http://www.w3.org/Graphics/SVG/1.1/DTD/svg11.dtd">
<!-- Generated by graphviz version 2.43.0 (0)
 -->
<!-- Title: Graphical Class Hierarchy Pages: 1 -->
<svg width="713pt" height="100pt"
 viewBox="0.00 0.00 713.00 99.50" xmlns="http://www.w3.org/2000/svg" xmlns:xlink="http://www.w3.org/1999/xlink">
<g id="graph0" class="graph" transform="scale(1 1) rotate(0) translate(4 95.5)">
<title>Graphical Class Hierarchy</title>
<!-- Node0 -->
<g id="node1" class="node">
<title>Node0</title>
<g id="a_node1"><a xlink:href="classmlir_1_1DialectExtensionBase.html" target="_top" xlink:title="This class represents an opaque dialect extension.">
<polygon fill="none" stroke="black" points="0,-33 0,-52 149,-52 149,-33 0,-33"/>
<text text-anchor="middle" x="74.5" y="-40" font-family="Helvetica,sans-Serif" font-size="10.00">mlir::DialectExtensionBase</text>
</a>
</g>
</g>
<!-- Node1 -->
<g id="node2" class="node">
<title>Node1</title>
<g id="a_node2"><a xlink:href="classmlir_1_1DialectExtension.html" target="_top" xlink:title=" ">
<polygon fill="none" stroke="black" points="185,-50 185,-91 354,-91 354,-50 185,-50"/>
<text text-anchor="start" x="193" y="-79" font-family="Helvetica,sans-Serif" font-size="10.00">mlir::DialectExtension</text>
<text text-anchor="start" x="193" y="-68" font-family="Helvetica,sans-Serif" font-size="10.00">&lt; DerivedTy, TransformDialect,</text>
<text text-anchor="middle" x="269.5" y="-57" font-family="Helvetica,sans-Serif" font-size="10.00"> ExtraDialects... &gt;</text>
</a>
</g>
</g>
<!-- Node0&#45;&gt;Node1 -->
<g id="edge1" class="edge">
<title>Node0&#45;&gt;Node1</title>
<path fill="none" stroke="midnightblue" d="M151.17,-53.48C162.25,-55.09 173.73,-56.75 184.96,-58.38"/>
<polygon fill="midnightblue" stroke="midnightblue" points="151.51,-49.99 141.11,-52.02 150.5,-56.92 151.51,-49.99"/>
</g>
<!-- Node3 -->
<g id="node4" class="node">
<title>Node3</title>
<g id="a_node4"><a xlink:href="classmlir_1_1DialectExtension.html" target="_top" xlink:title="This class represents a dialect extension anchored on the given set of dialects.">
<polygon fill="none" stroke="black" points="202,-0.5 202,-30.5 337,-30.5 337,-0.5 202,-0.5"/>
<text text-anchor="start" x="210" y="-18.5" font-family="Helvetica,sans-Serif" font-size="10.00">mlir::DialectExtension</text>
<text text-anchor="middle" x="269.5" y="-7.5" font-family="Helvetica,sans-Serif" font-size="10.00">&lt; DerivedT, DialectsT &gt;</text>
</a>
</g>
</g>
<!-- Node0&#45;&gt;Node3 -->
<g id="edge3" class="edge">
<title>Node0&#45;&gt;Node3</title>
<path fill="none" stroke="midnightblue" d="M153.86,-31.54C169.73,-29.32 186.29,-27 201.72,-24.84"/>
<polygon fill="midnightblue" stroke="midnightblue" points="152.96,-28.13 143.54,-32.98 153.93,-35.06 152.96,-28.13"/>
</g>
<!-- Node2 -->
<g id="node3" class="node">
<title>Node2</title>
<g id="a_node3"><a xlink:href="classmlir_1_1transform_1_1TransformDialectExtension.html" target="_top" xlink:title="Base class for extensions of the Transform dialect that supports injecting operations into the Transf...">
<polygon fill="none" stroke="black" points="405,-50 405,-91 567,-91 567,-50 405,-50"/>
<text text-anchor="start" x="413" y="-79" font-family="Helvetica,sans-Serif" font-size="10.00">mlir::transform::Transform</text>
<text text-anchor="start" x="413" y="-68" font-family="Helvetica,sans-Serif" font-size="10.00">DialectExtension&lt; DerivedTy,</text>
<text text-anchor="middle" x="486" y="-57" font-family="Helvetica,sans-Serif" font-size="10.00"> ExtraDialects &gt;</text>
</a>
</g>
</g>
<!-- Node1&#45;&gt;Node2 -->
<g id="edge2" class="edge">
<title>Node1&#45;&gt;Node2</title>
<path fill="none" stroke="midnightblue" d="M364.31,-70.5C377.83,-70.5 391.63,-70.5 404.85,-70.5"/>
<polygon fill="midnightblue" stroke="midnightblue" points="364.05,-67 354.05,-70.5 364.05,-74 364.05,-67"/>
</g>
<!-- Node4 -->
<g id="node5" class="node">
<title>Node4</title>
<g id="a_node5"><a xlink:href="classmlir_1_1transform_1_1TransformDialectExtension.html" target="_top" xlink:title=" ">
<polygon fill="none" stroke="black" points="390,-0.5 390,-30.5 582,-30.5 582,-0.5 390,-0.5"/>
<text text-anchor="start" x="398" y="-18.5" font-family="Helvetica,sans-Serif" font-size="10.00">mlir::transform::Transform</text>
<text text-anchor="middle" x="486" y="-7.5" font-family="Helvetica,sans-Serif" font-size="10.00">DialectExtension&lt; TuneExtension &gt;</text>
</a>
</g>
</g>
<!-- Node3&#45;&gt;Node4 -->
<g id="edge4" class="edge">
<title>Node3&#45;&gt;Node4</title>
<path fill="none" stroke="midnightblue" d="M347.56,-15.5C361.32,-15.5 375.81,-15.5 390,-15.5"/>
<polygon fill="midnightblue" stroke="midnightblue" points="347.19,-12 337.19,-15.5 347.19,-19 347.19,-12"/>
</g>
<!-- Node5 -->
<g id="node6" class="node">
<title>Node5</title>
<g id="a_node6"><a xlink:href="classTuneExtension.html" target="_top" xlink:title=" ">
<polygon fill="none" stroke="black" points="618,-6 618,-25 705,-25 705,-6 618,-6"/>
<text text-anchor="middle" x="661.5" y="-13" font-family="Helvetica,sans-Serif" font-size="10.00">TuneExtension</text>
</a>
</g>
</g>
<!-- Node4&#45;&gt;Node5 -->
<g id="edge5" class="edge">
<title>Node4&#45;&gt;Node5</title>
<path fill="none" stroke="midnightblue" d="M592.28,-15.5C601.19,-15.5 609.83,-15.5 617.79,-15.5"/>
<polygon fill="midnightblue" stroke="midnightblue" points="592.13,-12 582.13,-15.5 592.13,-19 592.13,-12"/>
</g>
</g>
</svg>
