<?xml version="1.0" encoding="UTF-8" standalone="no"?>
<!DOCTYPE svg PUBLIC "-//W3C//DTD SVG 1.1//EN"
 "http://www.w3.org/Graphics/SVG/1.1/DTD/svg11.dtd">
<!-- Generated by graphviz version 2.43.0 (0)
 -->
<!-- Title: Graphical Class Hierarchy Pages: 1 -->
<svg width="483pt" height="142pt"
 viewBox="0.00 0.00 483.00 142.00" xmlns="http://www.w3.org/2000/svg" xmlns:xlink="http://www.w3.org/1999/xlink">
<g id="graph0" class="graph" transform="scale(1 1) rotate(0) translate(4 138)">
<title>Graphical Class Hierarchy</title>
<!-- Node0 -->
<g id="node1" class="node">
<title>Node0</title>
<g id="a_node1"><a xlink:href="classmlir_1_1tblgen_1_1Constraint.html" target="_top" xlink:title=" ">
<polygon fill="none" stroke="black" points="0,-57.5 0,-76.5 129,-76.5 129,-57.5 0,-57.5"/>
<text text-anchor="middle" x="64.5" y="-64.5" font-family="Helvetica,sans-Serif" font-size="10.00">mlir::tblgen::Constraint</text>
</a>
</g>
</g>
<!-- Node1 -->
<g id="node2" class="node">
<title>Node1</title>
<g id="a_node2"><a xlink:href="classmlir_1_1tblgen_1_1AttrConstraint.html" target="_top" xlink:title=" ">
<polygon fill="none" stroke="black" points="167.5,-114.5 167.5,-133.5 314.5,-133.5 314.5,-114.5 167.5,-114.5"/>
<text text-anchor="middle" x="241" y="-121.5" font-family="Helvetica,sans-Serif" font-size="10.00">mlir::tblgen::AttrConstraint</text>
</a>
</g>
</g>
<!-- Node0&#45;&gt;Node1 -->
<g id="edge1" class="edge">
<title>Node0&#45;&gt;Node1</title>
<path fill="none" stroke="midnightblue" d="M97.68,-80.39C117,-88.15 142.18,-97.78 165,-105 175.76,-108.4 187.53,-111.62 198.49,-114.4"/>
<polygon fill="midnightblue" stroke="midnightblue" points="98.74,-77.04 88.15,-76.52 96.1,-83.52 98.74,-77.04"/>
</g>
<!-- Node3 -->
<g id="node4" class="node">
<title>Node3</title>
<g id="a_node4"><a xlink:href="classmlir_1_1tblgen_1_1Region.html" target="_top" xlink:title=" ">
<polygon fill="none" stroke="black" points="184.5,-76.5 184.5,-95.5 297.5,-95.5 297.5,-76.5 184.5,-76.5"/>
<text text-anchor="middle" x="241" y="-83.5" font-family="Helvetica,sans-Serif" font-size="10.00">mlir::tblgen::Region</text>
</a>
</g>
</g>
<!-- Node0&#45;&gt;Node3 -->
<g id="edge3" class="edge">
<title>Node0&#45;&gt;Node3</title>
<path fill="none" stroke="midnightblue" d="M139.74,-75.08C154.69,-76.71 170.18,-78.4 184.37,-79.94"/>
<polygon fill="midnightblue" stroke="midnightblue" points="139.81,-71.57 129.49,-73.97 139.05,-78.53 139.81,-71.57"/>
</g>
<!-- Node4 -->
<g id="node5" class="node">
<title>Node4</title>
<g id="a_node5"><a xlink:href="classmlir_1_1tblgen_1_1Successor.html" target="_top" xlink:title=" ">
<polygon fill="none" stroke="black" points="177,-38.5 177,-57.5 305,-57.5 305,-38.5 177,-38.5"/>
<text text-anchor="middle" x="241" y="-45.5" font-family="Helvetica,sans-Serif" font-size="10.00">mlir::tblgen::Successor</text>
</a>
</g>
</g>
<!-- Node0&#45;&gt;Node4 -->
<g id="edge4" class="edge">
<title>Node0&#45;&gt;Node4</title>
<path fill="none" stroke="midnightblue" d="M139.76,-58.91C152.13,-57.57 164.84,-56.18 176.9,-54.87"/>
<polygon fill="midnightblue" stroke="midnightblue" points="139.05,-55.47 129.49,-60.03 139.81,-62.43 139.05,-55.47"/>
</g>
<!-- Node5 -->
<g id="node6" class="node">
<title>Node5</title>
<g id="a_node6"><a xlink:href="classmlir_1_1tblgen_1_1TypeConstraint.html" target="_top" xlink:title=" ">
<polygon fill="none" stroke="black" points="165,-0.5 165,-19.5 317,-19.5 317,-0.5 165,-0.5"/>
<text text-anchor="middle" x="241" y="-7.5" font-family="Helvetica,sans-Serif" font-size="10.00">mlir::tblgen::TypeConstraint</text>
</a>
</g>
</g>
<!-- Node0&#45;&gt;Node5 -->
<g id="edge5" class="edge">
<title>Node0&#45;&gt;Node5</title>
<path fill="none" stroke="midnightblue" d="M97.68,-53.61C117,-45.85 142.18,-36.22 165,-29 175.76,-25.6 187.53,-22.38 198.49,-19.6"/>
<polygon fill="midnightblue" stroke="midnightblue" points="96.1,-50.48 88.15,-57.48 98.74,-56.96 96.1,-50.48"/>
</g>
<!-- Node2 -->
<g id="node3" class="node">
<title>Node2</title>
<g id="a_node3"><a xlink:href="classmlir_1_1tblgen_1_1Attribute.html" target="_top" xlink:title=" ">
<polygon fill="none" stroke="black" points="353,-114.5 353,-133.5 475,-133.5 475,-114.5 353,-114.5"/>
<text text-anchor="middle" x="414" y="-121.5" font-family="Helvetica,sans-Serif" font-size="10.00">mlir::tblgen::Attribute</text>
</a>
</g>
</g>
<!-- Node1&#45;&gt;Node2 -->
<g id="edge2" class="edge">
<title>Node1&#45;&gt;Node2</title>
<path fill="none" stroke="midnightblue" d="M324.74,-124C334.19,-124 343.69,-124 352.76,-124"/>
<polygon fill="midnightblue" stroke="midnightblue" points="324.52,-120.5 314.52,-124 324.52,-127.5 324.52,-120.5"/>
</g>
<!-- Node6 -->
<g id="node7" class="node">
<title>Node6</title>
<g id="a_node7"><a xlink:href="classmlir_1_1tblgen_1_1Type.html" target="_top" xlink:title=" ">
<polygon fill="none" stroke="black" points="363.5,-0.5 363.5,-19.5 464.5,-19.5 464.5,-0.5 363.5,-0.5"/>
<text text-anchor="middle" x="414" y="-7.5" font-family="Helvetica,sans-Serif" font-size="10.00">mlir::tblgen::Type</text>
</a>
</g>
</g>
<!-- Node5&#45;&gt;Node6 -->
<g id="edge6" class="edge">
<title>Node5&#45;&gt;Node6</title>
<path fill="none" stroke="midnightblue" d="M327.3,-10C339.58,-10 351.86,-10 363.14,-10"/>
<polygon fill="midnightblue" stroke="midnightblue" points="327,-6.5 317,-10 327,-13.5 327,-6.5"/>
</g>
</g>
</svg>
