<?xml version="1.0" encoding="UTF-8" standalone="no"?>
<!DOCTYPE svg PUBLIC "-//W3C//DTD SVG 1.1//EN"
 "http://www.w3.org/Graphics/SVG/1.1/DTD/svg11.dtd">
<!-- Generated by graphviz version 2.43.0 (0)
 -->
<!-- Title: Graphical Class Hierarchy Pages: 1 -->
<svg width="329pt" height="242pt"
 viewBox="0.00 0.00 329.00 241.50" xmlns="http://www.w3.org/2000/svg" xmlns:xlink="http://www.w3.org/1999/xlink">
<g id="graph0" class="graph" transform="scale(1 1) rotate(0) translate(4 237.5)">
<title>Graphical Class Hierarchy</title>
<!-- Node0 -->
<g id="Node000000" class="node">
<title>Node0</title>
<g id="a_Node000000"><a xlink:href="classPassPipelineOptions.html" target="_top" xlink:title=" ">
<polygon fill="white" stroke="#666666" points="115,-120.5 0,-120.5 0,-101.5 115,-101.5 115,-120.5"/>
<text text-anchor="middle" x="57.5" y="-108.5" font-family="Helvetica,sans-Serif" font-size="10.00">PassPipelineOptions</text>
</a>
</g>
</g>
<!-- Node1 -->
<g id="Node000001" class="node">
<title>Node1</title>
<g id="a_Node000001"><a xlink:href="structmlir_1_1bufferization_1_1BufferDeallocationPipelineOptions.html" target="_top" xlink:title="Options for the buffer deallocation pipeline.">
<polygon fill="white" stroke="#666666" points="312,-233.5 160,-233.5 160,-192.5 312,-192.5 312,-233.5"/>
<text text-anchor="start" x="168" y="-221.5" font-family="Helvetica,sans-Serif" font-size="10.00">mlir::bufferization</text>
<text text-anchor="start" x="168" y="-210.5" font-family="Helvetica,sans-Serif" font-size="10.00">::BufferDeallocationPipeline</text>
<text text-anchor="middle" x="236" y="-199.5" font-family="Helvetica,sans-Serif" font-size="10.00">Options</text>
</a>
</g>
</g>
<!-- Node0&#45;&gt;Node1 -->
<g id="edge1973_Node000000_Node000001" class="edge">
<title>Node0&#45;&gt;Node1</title>
<g id="a_edge1973_Node000000_Node000001"><a xlink:title=" ">
<path fill="none" stroke="#63b8ff" d="M76.36,-127.73C94.14,-143.69 122.79,-167.51 151,-183 157.24,-186.43 163.96,-189.59 170.77,-192.48"/>
<polygon fill="#63b8ff" stroke="#63b8ff" points="78.29,-124.76 68.55,-120.6 73.57,-129.93 78.29,-124.76"/>
</a>
</g>
</g>
<!-- Node2 -->
<g id="Node000002" class="node">
<title>Node2</title>
<g id="a_Node000002"><a xlink:href="structmlir_1_1gpu_1_1GPUToNVVMPipelineOptions.html" target="_top" xlink:title="Options for the gpu to nvvm pipeline.">
<polygon fill="white" stroke="#666666" points="319.5,-174 152.5,-174 152.5,-144 319.5,-144 319.5,-174"/>
<text text-anchor="start" x="160.5" y="-162" font-family="Helvetica,sans-Serif" font-size="10.00">mlir::gpu::GPUToNVVMPipeline</text>
<text text-anchor="middle" x="236" y="-151" font-family="Helvetica,sans-Serif" font-size="10.00">Options</text>
</a>
</g>
</g>
<!-- Node0&#45;&gt;Node2 -->
<g id="edge1974_Node000000_Node000002" class="edge">
<title>Node0&#45;&gt;Node2</title>
<g id="a_edge1974_Node000000_Node000002"><a xlink:title=" ">
<path fill="none" stroke="#63b8ff" d="M103.69,-123.29C126.82,-129.58 155.18,-137.29 179.61,-143.94"/>
<polygon fill="#63b8ff" stroke="#63b8ff" points="104.36,-119.85 93.79,-120.6 102.52,-126.6 104.36,-119.85"/>
</a>
</g>
</g>
<!-- Node3 -->
<g id="Node000003" class="node">
<title>Node3</title>
<g id="a_Node000003"><a xlink:href="structmlir_1_1gpu_1_1GPUToROCDLPipelineOptions.html" target="_top" xlink:title="Options for the gpu to rocdl pipeline.">
<polygon fill="white" stroke="#666666" points="321,-126 151,-126 151,-96 321,-96 321,-126"/>
<text text-anchor="start" x="159" y="-114" font-family="Helvetica,sans-Serif" font-size="10.00">mlir::gpu::GPUToROCDLPipeline</text>
<text text-anchor="middle" x="236" y="-103" font-family="Helvetica,sans-Serif" font-size="10.00">Options</text>
</a>
</g>
</g>
<!-- Node0&#45;&gt;Node3 -->
<g id="edge1975_Node000000_Node000003" class="edge">
<title>Node0&#45;&gt;Node3</title>
<g id="a_edge1975_Node000000_Node000003"><a xlink:title=" ">
<path fill="none" stroke="#63b8ff" d="M125.37,-111C133.74,-111 142.39,-111 150.98,-111"/>
<polygon fill="#63b8ff" stroke="#63b8ff" points="125.32,-107.5 115.32,-111 125.32,-114.5 125.32,-107.5"/>
</a>
</g>
</g>
<!-- Node4 -->
<g id="Node000004" class="node">
<title>Node4</title>
<g id="a_Node000004"><a xlink:href="structmlir_1_1gpu_1_1GPUToXeVMPipelineOptions.html" target="_top" xlink:title=" ">
<polygon fill="white" stroke="#666666" points="318.5,-78 153.5,-78 153.5,-48 318.5,-48 318.5,-78"/>
<text text-anchor="start" x="161.5" y="-66" font-family="Helvetica,sans-Serif" font-size="10.00">mlir::gpu::GPUToXeVMPipeline</text>
<text text-anchor="middle" x="236" y="-55" font-family="Helvetica,sans-Serif" font-size="10.00">Options</text>
</a>
</g>
</g>
<!-- Node0&#45;&gt;Node4 -->
<g id="edge1976_Node000000_Node000004" class="edge">
<title>Node0&#45;&gt;Node4</title>
<g id="a_edge1976_Node000000_Node000004"><a xlink:title=" ">
<path fill="none" stroke="#63b8ff" d="M103.69,-98.71C126.82,-92.42 155.18,-84.71 179.61,-78.06"/>
<polygon fill="#63b8ff" stroke="#63b8ff" points="102.52,-95.4 93.79,-101.4 104.36,-102.15 102.52,-95.4"/>
</a>
</g>
</g>
<!-- Node5 -->
<g id="Node000005" class="node">
<title>Node5</title>
<g id="a_Node000005"><a xlink:href="structmlir_1_1sparse__tensor_1_1SparsifierOptions.html" target="_top" xlink:title="Options for the &quot;sparsifier&quot; pipeline.">
<polygon fill="white" stroke="#666666" points="291,-30 181,-30 181,0 291,0 291,-30"/>
<text text-anchor="start" x="189" y="-18" font-family="Helvetica,sans-Serif" font-size="10.00">mlir::sparse_tensor</text>
<text text-anchor="middle" x="236" y="-7" font-family="Helvetica,sans-Serif" font-size="10.00">::SparsifierOptions</text>
</a>
</g>
</g>
<!-- Node0&#45;&gt;Node5 -->
<g id="edge1977_Node000000_Node000005" class="edge">
<title>Node0&#45;&gt;Node5</title>
<g id="a_edge1977_Node000000_Node000005"><a xlink:title=" ">
<path fill="none" stroke="#63b8ff" d="M75.86,-94.13C93.46,-77.87 122.15,-53.65 151,-39 160.33,-34.26 170.73,-30.33 180.95,-27.12"/>
<polygon fill="#63b8ff" stroke="#63b8ff" points="73.03,-91.98 68.15,-101.39 77.83,-97.08 73.03,-91.98"/>
</a>
</g>
</g>
</g>
</svg>
