<?xml version="1.0" encoding="UTF-8" standalone="no"?>
<!DOCTYPE svg PUBLIC "-//W3C//DTD SVG 1.1//EN"
 "http://www.w3.org/Graphics/SVG/1.1/DTD/svg11.dtd">
<!-- Generated by graphviz version 2.43.0 (0)
 -->
<!-- Title: Graphical Class Hierarchy Pages: 1 -->
<svg width="366pt" height="88pt"
 viewBox="0.00 0.00 366.00 88.00" xmlns="http://www.w3.org/2000/svg" xmlns:xlink="http://www.w3.org/1999/xlink">
<g id="graph0" class="graph" transform="scale(1 1) rotate(0) translate(4 84)">
<title>Graphical Class Hierarchy</title>
<!-- Node957 -->
<g id="node1" class="node">
<title>Node957</title>
<g id="a_node1"><a xlink:title=" ">
<polygon fill="none" stroke="#bfbfbf" points="0,-24.5 0,-54.5 109,-54.5 109,-24.5 0,-24.5"/>
<text text-anchor="start" x="8" y="-42.5" font-family="Helvetica,sans-Serif" font-size="10.00">ShardingInterface::</text>
<text text-anchor="middle" x="54.5" y="-31.5" font-family="Helvetica,sans-Serif" font-size="10.00">ExternalModel</text>
</a>
</g>
</g>
<!-- Node0 -->
<g id="node2" class="node">
<title>Node0</title>
<g id="a_node2"><a xlink:href="structmlir_1_1mesh_1_1ElementwiseShardingInterface.html" target="_top" xlink:title=" ">
<polygon fill="none" stroke="black" points="161,-49.5 161,-79.5 342,-79.5 342,-49.5 161,-49.5"/>
<text text-anchor="start" x="169" y="-67.5" font-family="Helvetica,sans-Serif" font-size="10.00">mlir::mesh::ElementwiseSharding</text>
<text text-anchor="middle" x="251.5" y="-56.5" font-family="Helvetica,sans-Serif" font-size="10.00">Interface&lt; ElemwiseOp &gt;</text>
</a>
</g>
</g>
<!-- Node957&#45;&gt;Node0 -->
<g id="edge1" class="edge">
<title>Node957&#45;&gt;Node0</title>
<path fill="none" stroke="midnightblue" d="M119.03,-47.64C132.36,-49.35 146.65,-51.19 160.73,-52.99"/>
<polygon fill="midnightblue" stroke="midnightblue" points="119.41,-44.16 109.04,-46.36 118.52,-51.11 119.41,-44.16"/>
</g>
<!-- Node959 -->
<g id="node3" class="node">
<title>Node959</title>
<g id="a_node3"><a xlink:href="structmlir_1_1mesh_1_1IndependentParallelIteratorDomainShardingInterface.html" target="_top" xlink:title=" ">
<polygon fill="none" stroke="black" points="145,-0.5 145,-30.5 358,-30.5 358,-0.5 145,-0.5"/>
<text text-anchor="start" x="153" y="-18.5" font-family="Helvetica,sans-Serif" font-size="10.00">mlir::mesh::IndependentParallel</text>
<text text-anchor="middle" x="251.5" y="-7.5" font-family="Helvetica,sans-Serif" font-size="10.00">IteratorDomainShardingInterface&lt; Op &gt;</text>
</a>
</g>
</g>
<!-- Node957&#45;&gt;Node959 -->
<g id="edge2" class="edge">
<title>Node957&#45;&gt;Node959</title>
<path fill="none" stroke="midnightblue" d="M119.22,-31.66C127.43,-30.65 135.99,-29.59 144.65,-28.53"/>
<polygon fill="midnightblue" stroke="midnightblue" points="118.54,-28.21 109.04,-32.91 119.4,-35.16 118.54,-28.21"/>
</g>
</g>
</svg>
