<?xml version="1.0" encoding="UTF-8" standalone="no"?>
<!DOCTYPE svg PUBLIC "-//W3C//DTD SVG 1.1//EN"
 "http://www.w3.org/Graphics/SVG/1.1/DTD/svg11.dtd">
<!-- Generated by graphviz version 2.43.0 (0)
 -->
<!-- Title: Graphical Class Hierarchy Pages: 1 -->
<svg width="304pt" height="157pt"
 viewBox="0.00 0.00 304.00 156.50" xmlns="http://www.w3.org/2000/svg" xmlns:xlink="http://www.w3.org/1999/xlink">
<g id="graph0" class="graph" transform="scale(1 1) rotate(0) translate(4 152.5)">
<title>Graphical Class Hierarchy</title>
<!-- Node0 -->
<g id="Node000000" class="node">
<title>Node0</title>
<g id="a_Node000000"><a xlink:title=" ">
<polygon fill="#e0e0e0" stroke="#999999" points="122,-78.5 0,-78.5 0,-59.5 122,-59.5 122,-78.5"/>
<text text-anchor="middle" x="61" y="-66.5" font-family="Helvetica,sans-Serif" font-size="10.00">std::integral_constant</text>
</a>
</g>
</g>
<!-- Node1 -->
<g id="Node000001" class="node">
<title>Node1</title>
<g id="a_Node000001"><a xlink:href="structmlir_1_1detail_1_1count__if__t__impl.html" target="_top" xlink:title=" ">
<polygon fill="white" stroke="#666666" points="283.5,-148.5 170.5,-148.5 170.5,-107.5 283.5,-107.5 283.5,-148.5"/>
<text text-anchor="start" x="178.5" y="-136.5" font-family="Helvetica,sans-Serif" font-size="10.00">mlir::detail::count</text>
<text text-anchor="start" x="178.5" y="-125.5" font-family="Helvetica,sans-Serif" font-size="10.00">_if_t_impl&lt; Pred, 0,</text>
<text text-anchor="middle" x="227" y="-114.5" font-family="Helvetica,sans-Serif" font-size="10.00"> Ts... &gt;</text>
</a>
</g>
</g>
<!-- Node0&#45;&gt;Node1 -->
<g id="edge1689_Node000000_Node000001" class="edge">
<title>Node0&#45;&gt;Node1</title>
<g id="a_edge1689_Node000000_Node000001"><a xlink:title=" ">
<path fill="none" stroke="#63b8ff" d="M98.28,-82.05C119.45,-89.67 146.59,-99.43 170.4,-108"/>
<polygon fill="#63b8ff" stroke="#63b8ff" points="99.31,-78.7 88.71,-78.61 96.94,-85.29 99.31,-78.7"/>
</a>
</g>
</g>
<!-- Node2 -->
<g id="Node000002" class="node">
<title>Node2</title>
<g id="a_Node000002"><a xlink:href="structmlir_1_1detail_1_1count__if__t__impl_3_01Pred_00_01N_00_01T_00_01Us_8_8_8_01_4.html" target="_top" xlink:title=" ">
<polygon fill="white" stroke="#666666" points="284,-89.5 170,-89.5 170,-48.5 284,-48.5 284,-89.5"/>
<text text-anchor="start" x="178" y="-77.5" font-family="Helvetica,sans-Serif" font-size="10.00">mlir::detail::count</text>
<text text-anchor="start" x="178" y="-66.5" font-family="Helvetica,sans-Serif" font-size="10.00">_if_t_impl&lt; Pred, N,</text>
<text text-anchor="middle" x="227" y="-55.5" font-family="Helvetica,sans-Serif" font-size="10.00"> T, Us... &gt;</text>
</a>
</g>
</g>
<!-- Node0&#45;&gt;Node2 -->
<g id="edge1690_Node000000_Node000002" class="edge">
<title>Node0&#45;&gt;Node2</title>
<g id="a_edge1690_Node000000_Node000002"><a xlink:title=" ">
<path fill="none" stroke="#63b8ff" d="M132.16,-69C144.79,-69 157.8,-69 169.96,-69"/>
<polygon fill="#63b8ff" stroke="#63b8ff" points="132.14,-65.5 122.14,-69 132.14,-72.5 132.14,-65.5"/>
</a>
</g>
</g>
<!-- Node3 -->
<g id="Node000003" class="node">
<title>Node3</title>
<g id="a_Node000003"><a xlink:href="structmlir_1_1detail_1_1count__if__t__impl.html" target="_top" xlink:title="Template utility that computes the number of elements within T that satisfy the given predicate.">
<polygon fill="white" stroke="#666666" points="296,-30 158,-30 158,0 296,0 296,-30"/>
<text text-anchor="start" x="166" y="-18" font-family="Helvetica,sans-Serif" font-size="10.00">mlir::detail::count</text>
<text text-anchor="middle" x="227" y="-7" font-family="Helvetica,sans-Serif" font-size="10.00">_if_t_impl&lt; Pred, N, Ts &gt;</text>
</a>
</g>
</g>
<!-- Node0&#45;&gt;Node3 -->
<g id="edge1691_Node000000_Node000003" class="edge">
<title>Node0&#45;&gt;Node3</title>
<g id="a_edge1691_Node000000_Node000003"><a xlink:title=" ">
<path fill="none" stroke="#63b8ff" d="M100.71,-56.25C124.57,-48.4 155.28,-38.29 180.33,-30.04"/>
<polygon fill="#63b8ff" stroke="#63b8ff" points="99.35,-53.02 90.94,-59.47 101.54,-59.67 99.35,-53.02"/>
</a>
</g>
</g>
</g>
</svg>
