<?xml version="1.0" encoding="UTF-8" standalone="no"?>
<!DOCTYPE svg PUBLIC "-//W3C//DTD SVG 1.1//EN"
 "http://www.w3.org/Graphics/SVG/1.1/DTD/svg11.dtd">
<!-- Generated by graphviz version 2.43.0 (0)
 -->
<!-- Title: Graphical Class Hierarchy Pages: 1 -->
<svg width="367pt" height="278pt"
 viewBox="0.00 0.00 367.00 278.00" xmlns="http://www.w3.org/2000/svg" xmlns:xlink="http://www.w3.org/1999/xlink">
<g id="graph0" class="graph" transform="scale(1 1) rotate(0) translate(4 274)">
<title>Graphical Class Hierarchy</title>
<!-- Node0 -->
<g id="Node000000" class="node">
<title>Node0</title>
<g id="a_Node000000"><a xlink:href="classmlir_1_1detail_1_1StorageUserTraitBase.html" target="_top" xlink:title="Helper class for implementing traits for storage classes.">
<polygon fill="white" stroke="#666666" points="142,-155.5 0,-155.5 0,-114.5 142,-114.5 142,-155.5"/>
<text text-anchor="start" x="8" y="-143.5" font-family="Helvetica,sans-Serif" font-size="10.00">mlir::detail::StorageUser</text>
<text text-anchor="start" x="8" y="-132.5" font-family="Helvetica,sans-Serif" font-size="10.00">TraitBase&lt; ConcreteType,</text>
<text text-anchor="middle" x="71" y="-121.5" font-family="Helvetica,sans-Serif" font-size="10.00"> TraitType &gt;</text>
</a>
</g>
</g>
<!-- Node1 -->
<g id="Node000001" class="node">
<title>Node1</title>
<g id="a_Node000001"><a xlink:href="classmlir_1_1AttributeTrait_1_1IsDynamicAttr.html" target="_top" xlink:title=" ">
<polygon fill="white" stroke="#666666" points="359,-270 178,-270 178,-240 359,-240 359,-270"/>
<text text-anchor="start" x="186" y="-258" font-family="Helvetica,sans-Serif" font-size="10.00">mlir::AttributeTrait</text>
<text text-anchor="middle" x="268.5" y="-247" font-family="Helvetica,sans-Serif" font-size="10.00">::IsDynamicAttr&lt; ConcreteType &gt;</text>
</a>
</g>
</g>
<!-- Node0&#45;&gt;Node1 -->
<g id="edge799_Node000000_Node000001" class="edge">
<title>Node0&#45;&gt;Node1</title>
<g id="a_edge799_Node000000_Node000001"><a xlink:title=" ">
<path fill="none" stroke="#63b8ff" d="M96.24,-163.31C116.14,-184.84 146.16,-213.65 178,-231 184.22,-234.39 190.94,-237.32 197.81,-239.85"/>
<polygon fill="#63b8ff" stroke="#63b8ff" points="98.69,-160.79 89.38,-155.73 93.5,-165.5 98.69,-160.79"/>
</a>
</g>
</g>
<!-- Node2 -->
<g id="Node000002" class="node">
<title>Node2</title>
<g id="a_Node000002"><a xlink:href="structmlir_1_1AttributeTrait_1_1IsLocation.html" target="_top" xlink:title="This trait is used to determine if an attribute is a location or not.">
<polygon fill="white" stroke="#666666" points="349,-222 188,-222 188,-192 349,-192 349,-222"/>
<text text-anchor="start" x="196" y="-210" font-family="Helvetica,sans-Serif" font-size="10.00">mlir::AttributeTrait</text>
<text text-anchor="middle" x="268.5" y="-199" font-family="Helvetica,sans-Serif" font-size="10.00">::IsLocation&lt; ConcreteType &gt;</text>
</a>
</g>
</g>
<!-- Node0&#45;&gt;Node2 -->
<g id="edge800_Node000000_Node000002" class="edge">
<title>Node0&#45;&gt;Node2</title>
<g id="a_edge800_Node000000_Node000002"><a xlink:title=" ">
<path fill="none" stroke="#63b8ff" d="M122.51,-159.9C139.85,-167.9 159.54,-176.4 178,-183 186.94,-186.2 196.51,-189.2 205.95,-191.92"/>
<polygon fill="#63b8ff" stroke="#63b8ff" points="123.68,-156.59 113.14,-155.52 120.72,-162.93 123.68,-156.59"/>
</a>
</g>
</g>
<!-- Node3 -->
<g id="Node000003" class="node">
<title>Node3</title>
<g id="a_Node000003"><a xlink:href="classmlir_1_1TypeTrait_1_1IsDynamicType.html" target="_top" xlink:title=" ">
<polygon fill="white" stroke="#666666" points="340,-174 197,-174 197,-144 340,-144 340,-174"/>
<text text-anchor="start" x="205" y="-162" font-family="Helvetica,sans-Serif" font-size="10.00">mlir::TypeTrait::IsDynamic</text>
<text text-anchor="middle" x="268.5" y="-151" font-family="Helvetica,sans-Serif" font-size="10.00">Type&lt; ConcreteType &gt;</text>
</a>
</g>
</g>
<!-- Node0&#45;&gt;Node3 -->
<g id="edge801_Node000000_Node000003" class="edge">
<title>Node0&#45;&gt;Node3</title>
<g id="a_edge801_Node000000_Node000003"><a xlink:title=" ">
<path fill="none" stroke="#63b8ff" d="M152.2,-144.85C167.04,-146.67 182.44,-148.56 196.98,-150.34"/>
<polygon fill="#63b8ff" stroke="#63b8ff" points="152.38,-141.34 142.03,-143.6 151.53,-148.29 152.38,-141.34"/>
</a>
</g>
</g>
<!-- Node4 -->
<g id="Node000004" class="node">
<title>Node4</title>
<g id="a_Node000004"><a xlink:href="classmlir_1_1ValueSemantics.html" target="_top" xlink:title="Type trait indicating that the type has value semantics.">
<polygon fill="white" stroke="#666666" points="328.5,-126 208.5,-126 208.5,-96 328.5,-96 328.5,-126"/>
<text text-anchor="start" x="216.5" y="-114" font-family="Helvetica,sans-Serif" font-size="10.00">mlir::ValueSemantics</text>
<text text-anchor="middle" x="268.5" y="-103" font-family="Helvetica,sans-Serif" font-size="10.00">&lt; ConcreteType &gt;</text>
</a>
</g>
</g>
<!-- Node0&#45;&gt;Node4 -->
<g id="edge802_Node000000_Node000004" class="edge">
<title>Node0&#45;&gt;Node4</title>
<g id="a_edge802_Node000000_Node000004"><a xlink:title=" ">
<path fill="none" stroke="#63b8ff" d="M152.06,-125.17C170.87,-122.86 190.58,-120.44 208.29,-118.27"/>
<polygon fill="#63b8ff" stroke="#63b8ff" points="151.53,-121.71 142.03,-126.4 152.38,-128.66 151.53,-121.71"/>
</a>
</g>
</g>
<!-- Node5 -->
<g id="Node000005" class="node">
<title>Node5</title>
<g id="a_Node000005"><a xlink:href="structmlir_1_1acc_1_1AttributeTrait_1_1IsVariableInfo.html" target="_top" xlink:title="Trait attached to attributes that are OpenACC variable info attributes.">
<polygon fill="white" stroke="#666666" points="357.5,-78 179.5,-78 179.5,-48 357.5,-48 357.5,-78"/>
<text text-anchor="start" x="187.5" y="-66" font-family="Helvetica,sans-Serif" font-size="10.00">mlir::acc::AttributeTrait</text>
<text text-anchor="middle" x="268.5" y="-55" font-family="Helvetica,sans-Serif" font-size="10.00">::IsVariableInfo&lt; ConcreteType &gt;</text>
</a>
</g>
</g>
<!-- Node0&#45;&gt;Node5 -->
<g id="edge803_Node000000_Node000005" class="edge">
<title>Node0&#45;&gt;Node5</title>
<g id="a_edge803_Node000000_Node000005"><a xlink:title=" ">
<path fill="none" stroke="#63b8ff" d="M122.51,-110.1C139.85,-102.1 159.54,-93.6 178,-87 186.94,-83.8 196.51,-80.8 205.95,-78.08"/>
<polygon fill="#63b8ff" stroke="#63b8ff" points="120.72,-107.07 113.14,-114.48 123.68,-113.41 120.72,-107.07"/>
</a>
</g>
</g>
<!-- Node6 -->
<g id="Node000006" class="node">
<title>Node6</title>
<g id="a_Node000006"><a xlink:href="classmlir_1_1gpu_1_1OffloadingTranslationAttrTrait.html" target="_top" xlink:title="This class indicates that the attribute associated with this trait is a GPU offloading translation at...">
<polygon fill="white" stroke="#666666" points="353.5,-30 183.5,-30 183.5,0 353.5,0 353.5,-30"/>
<text text-anchor="start" x="191.5" y="-18" font-family="Helvetica,sans-Serif" font-size="10.00">mlir::gpu::OffloadingTranslation</text>
<text text-anchor="middle" x="268.5" y="-7" font-family="Helvetica,sans-Serif" font-size="10.00">AttrTrait&lt; ConcreteType &gt;</text>
</a>
</g>
</g>
<!-- Node0&#45;&gt;Node6 -->
<g id="edge804_Node000000_Node000006" class="edge">
<title>Node0&#45;&gt;Node6</title>
<g id="a_edge804_Node000000_Node000006"><a xlink:title=" ">
<path fill="none" stroke="#63b8ff" d="M96.24,-106.69C116.14,-85.16 146.16,-56.35 178,-39 184.22,-35.61 190.94,-32.68 197.81,-30.15"/>
<polygon fill="#63b8ff" stroke="#63b8ff" points="93.5,-104.5 89.38,-114.27 98.69,-109.21 93.5,-104.5"/>
</a>
</g>
</g>
</g>
</svg>
