<?xml version="1.0" encoding="UTF-8" standalone="no"?>
<!DOCTYPE svg PUBLIC "-//W3C//DTD SVG 1.1//EN"
 "http://www.w3.org/Graphics/SVG/1.1/DTD/svg11.dtd">
<!-- Generated by graphviz version 2.43.0 (0)
 -->
<!-- Title: Graphical Class Hierarchy Pages: 1 -->
<svg width="815pt" height="515pt"
 viewBox="0.00 0.00 815.00 515.00" xmlns="http://www.w3.org/2000/svg" xmlns:xlink="http://www.w3.org/1999/xlink">
<g id="graph0" class="graph" transform="scale(1 1) rotate(0) translate(4 511)">
<title>Graphical Class Hierarchy</title>
<!-- Node0 -->
<g id="Node000000" class="node">
<title>Node0</title>
<g id="a_Node000000"><a xlink:href="classmlir_1_1DataFlowAnalysis.html" target="_top" xlink:title="Base class for all data&#45;flow analyses.">
<polygon fill="white" stroke="#666666" points="130,-363.5 0,-363.5 0,-344.5 130,-344.5 130,-363.5"/>
<text text-anchor="middle" x="65" y="-351.5" font-family="Helvetica,sans-Serif" font-size="10.00">mlir::DataFlowAnalysis</text>
</a>
</g>
</g>
<!-- Node1 -->
<g id="Node000001" class="node">
<title>Node1</title>
<g id="a_Node000001"><a xlink:href="classmlir_1_1dataflow_1_1AbstractDenseBackwardDataFlowAnalysis.html" target="_top" xlink:title="Base class for dense backward dataflow analyses.">
<polygon fill="white" stroke="#666666" points="350,-501 167,-501 167,-471 350,-471 350,-501"/>
<text text-anchor="start" x="175" y="-489" font-family="Helvetica,sans-Serif" font-size="10.00">mlir::dataflow::Abstract</text>
<text text-anchor="middle" x="258.5" y="-478" font-family="Helvetica,sans-Serif" font-size="10.00">DenseBackwardDataFlowAnalysis</text>
</a>
</g>
</g>
<!-- Node0&#45;&gt;Node1 -->
<g id="edge751_Node000000_Node000001" class="edge">
<title>Node0&#45;&gt;Node1</title>
<g id="a_edge751_Node000000_Node000001"><a xlink:title=" ">
<path fill="none" stroke="#63b8ff" d="M80.45,-371.56C98.56,-392.62 131.45,-427.86 166,-450 179.08,-458.38 194.42,-465.35 208.77,-470.86"/>
<polygon fill="#63b8ff" stroke="#63b8ff" points="82.96,-369.11 73.84,-363.73 77.62,-373.63 82.96,-369.11"/>
</a>
</g>
</g>
<!-- Node3 -->
<g id="Node000003" class="node">
<title>Node3</title>
<g id="a_Node000003"><a xlink:href="classmlir_1_1dataflow_1_1AbstractDenseForwardDataFlowAnalysis.html" target="_top" xlink:title="Base class for dense forward data&#45;flow analyses.">
<polygon fill="white" stroke="#666666" points="345.5,-441 171.5,-441 171.5,-411 345.5,-411 345.5,-441"/>
<text text-anchor="start" x="179.5" y="-429" font-family="Helvetica,sans-Serif" font-size="10.00">mlir::dataflow::Abstract</text>
<text text-anchor="middle" x="258.5" y="-418" font-family="Helvetica,sans-Serif" font-size="10.00">DenseForwardDataFlowAnalysis</text>
</a>
</g>
</g>
<!-- Node0&#45;&gt;Node3 -->
<g id="edge753_Node000000_Node000003" class="edge">
<title>Node0&#45;&gt;Node3</title>
<g id="a_edge753_Node000000_Node000003"><a xlink:title=" ">
<path fill="none" stroke="#63b8ff" d="M101.06,-367.18C133.87,-379.52 182.86,-397.94 217.26,-410.87"/>
<polygon fill="#63b8ff" stroke="#63b8ff" points="102.02,-363.8 91.43,-363.56 99.56,-370.36 102.02,-363.8"/>
</a>
</g>
</g>
<!-- Node5 -->
<g id="Node000005" class="node">
<title>Node5</title>
<g id="a_Node000005"><a xlink:href="classmlir_1_1dataflow_1_1AbstractSparseBackwardDataFlowAnalysis.html" target="_top" xlink:title="Base class for sparse backward data&#45;flow analyses.">
<polygon fill="white" stroke="#666666" points="351,-369 166,-369 166,-339 351,-339 351,-369"/>
<text text-anchor="start" x="174" y="-357" font-family="Helvetica,sans-Serif" font-size="10.00">mlir::dataflow::Abstract</text>
<text text-anchor="middle" x="258.5" y="-346" font-family="Helvetica,sans-Serif" font-size="10.00">SparseBackwardDataFlowAnalysis</text>
</a>
</g>
</g>
<!-- Node0&#45;&gt;Node5 -->
<g id="edge755_Node000000_Node000005" class="edge">
<title>Node0&#45;&gt;Node5</title>
<g id="a_edge755_Node000000_Node000005"><a xlink:title=" ">
<path fill="none" stroke="#63b8ff" d="M140.18,-354C148.61,-354 157.28,-354 165.9,-354"/>
<polygon fill="#63b8ff" stroke="#63b8ff" points="140.03,-350.5 130.03,-354 140.03,-357.5 140.03,-350.5"/>
</a>
</g>
</g>
<!-- Node9 -->
<g id="Node000009" class="node">
<title>Node9</title>
<g id="a_Node000009"><a xlink:href="classmlir_1_1dataflow_1_1AbstractSparseForwardDataFlowAnalysis.html" target="_top" xlink:title="Base class for sparse forward data&#45;flow analyses.">
<polygon fill="white" stroke="#666666" points="346.5,-221 170.5,-221 170.5,-191 346.5,-191 346.5,-221"/>
<text text-anchor="start" x="178.5" y="-209" font-family="Helvetica,sans-Serif" font-size="10.00">mlir::dataflow::Abstract</text>
<text text-anchor="middle" x="258.5" y="-198" font-family="Helvetica,sans-Serif" font-size="10.00">SparseForwardDataFlowAnalysis</text>
</a>
</g>
</g>
<!-- Node0&#45;&gt;Node9 -->
<g id="edge759_Node000000_Node000009" class="edge">
<title>Node0&#45;&gt;Node9</title>
<g id="a_edge759_Node000000_Node000009"><a xlink:title=" ">
<path fill="none" stroke="#63b8ff" d="M86.69,-338.01C123.91,-309.24 201.66,-249.16 238,-221.07"/>
<polygon fill="#63b8ff" stroke="#63b8ff" points="84.34,-335.4 78.56,-344.29 88.62,-340.94 84.34,-335.4"/>
</a>
</g>
</g>
<!-- Node21 -->
<g id="Node000021" class="node">
<title>Node21</title>
<g id="a_Node000021"><a xlink:href="classmlir_1_1dataflow_1_1DeadCodeAnalysis.html" target="_top" xlink:title="Dead code analysis analyzes control&#45;flow, as understood by RegionBranchOpInterface and BranchOpInterf...">
<polygon fill="white" stroke="#666666" points="328.5,-173 188.5,-173 188.5,-143 328.5,-143 328.5,-173"/>
<text text-anchor="start" x="196.5" y="-161" font-family="Helvetica,sans-Serif" font-size="10.00">mlir::dataflow::DeadCode</text>
<text text-anchor="middle" x="258.5" y="-150" font-family="Helvetica,sans-Serif" font-size="10.00">Analysis</text>
</a>
</g>
</g>
<!-- Node0&#45;&gt;Node21 -->
<g id="edge771_Node000000_Node000021" class="edge">
<title>Node0&#45;&gt;Node21</title>
<g id="a_edge771_Node000000_Node000021"><a xlink:title=" ">
<path fill="none" stroke="#63b8ff" d="M71.71,-334.72C83.32,-298.93 113.18,-222.18 166,-182 172.67,-176.93 180.31,-172.93 188.27,-169.77"/>
<polygon fill="#63b8ff" stroke="#63b8ff" points="68.31,-333.84 68.68,-344.43 75,-335.93 68.31,-333.84"/>
</a>
</g>
</g>
<!-- Node2 -->
<g id="Node000002" class="node">
<title>Node2</title>
<g id="a_Node000002"><a xlink:href="classmlir_1_1dataflow_1_1DenseBackwardDataFlowAnalysis.html" target="_top" xlink:title="A dense backward dataflow analysis propagating lattices after and before the execution of every opera...">
<polygon fill="white" stroke="#666666" points="575,-507 407,-507 407,-477 575,-477 575,-507"/>
<text text-anchor="start" x="415" y="-495" font-family="Helvetica,sans-Serif" font-size="10.00">mlir::dataflow::DenseBackward</text>
<text text-anchor="middle" x="491" y="-484" font-family="Helvetica,sans-Serif" font-size="10.00">DataFlowAnalysis&lt; LatticeT &gt;</text>
</a>
</g>
</g>
<!-- Node1&#45;&gt;Node2 -->
<g id="edge752_Node000001_Node000002" class="edge">
<title>Node1&#45;&gt;Node2</title>
<g id="a_edge752_Node000001_Node000002"><a xlink:title=" ">
<path fill="none" stroke="#63b8ff" d="M360.39,-488.63C375.9,-489.03 391.75,-489.44 406.82,-489.83"/>
<polygon fill="#63b8ff" stroke="#63b8ff" points="360.36,-485.12 350.27,-488.36 360.17,-492.12 360.36,-485.12"/>
</a>
</g>
</g>
<!-- Node4 -->
<g id="Node000004" class="node">
<title>Node4</title>
<g id="a_Node000004"><a xlink:href="classmlir_1_1dataflow_1_1DenseForwardDataFlowAnalysis.html" target="_top" xlink:title="A dense forward data&#45;flow analysis for propagating lattices before and after the execution of every o...">
<polygon fill="white" stroke="#666666" points="574,-459 408,-459 408,-429 574,-429 574,-459"/>
<text text-anchor="start" x="416" y="-447" font-family="Helvetica,sans-Serif" font-size="10.00">mlir::dataflow::DenseForward</text>
<text text-anchor="middle" x="491" y="-436" font-family="Helvetica,sans-Serif" font-size="10.00">DataFlowAnalysis&lt; LatticeT &gt;</text>
</a>
</g>
</g>
<!-- Node3&#45;&gt;Node4 -->
<g id="edge754_Node000003_Node000004" class="edge">
<title>Node3&#45;&gt;Node4</title>
<g id="a_edge754_Node000003_Node000004"><a xlink:title=" ">
<path fill="none" stroke="#63b8ff" d="M355.76,-433.52C373.04,-434.87 390.92,-436.26 407.77,-437.58"/>
<polygon fill="#63b8ff" stroke="#63b8ff" points="355.9,-430.02 345.66,-432.73 355.35,-437 355.9,-430.02"/>
</a>
</g>
</g>
<!-- Node6 -->
<g id="Node000006" class="node">
<title>Node6</title>
<g id="a_Node000006"><a xlink:href="classmlir_1_1dataflow_1_1SparseBackwardDataFlowAnalysis.html" target="_top" xlink:title=" ">
<polygon fill="white" stroke="#666666" points="576,-411 406,-411 406,-381 576,-381 576,-411"/>
<text text-anchor="start" x="414" y="-399" font-family="Helvetica,sans-Serif" font-size="10.00">mlir::dataflow::SparseBackward</text>
<text text-anchor="middle" x="491" y="-388" font-family="Helvetica,sans-Serif" font-size="10.00">DataFlowAnalysis&lt; Liveness &gt;</text>
</a>
</g>
</g>
<!-- Node5&#45;&gt;Node6 -->
<g id="edge756_Node000005_Node000006" class="edge">
<title>Node5&#45;&gt;Node6</title>
<g id="a_edge756_Node000005_Node000006"><a xlink:title=" ">
<path fill="none" stroke="#63b8ff" d="M351.91,-370.84C370.33,-374.19 389.57,-377.7 407.62,-380.99"/>
<polygon fill="#63b8ff" stroke="#63b8ff" points="352.53,-367.39 342.06,-369.04 351.28,-374.28 352.53,-367.39"/>
</a>
</g>
</g>
<!-- Node8 -->
<g id="Node000008" class="node">
<title>Node8</title>
<g id="a_Node000008"><a xlink:href="classmlir_1_1dataflow_1_1SparseBackwardDataFlowAnalysis.html" target="_top" xlink:title="A sparse (backward) data&#45;flow analysis for propagating SSA value lattices backwards across the IR by ...">
<polygon fill="white" stroke="#666666" points="576,-363 406,-363 406,-333 576,-333 576,-363"/>
<text text-anchor="start" x="414" y="-351" font-family="Helvetica,sans-Serif" font-size="10.00">mlir::dataflow::SparseBackward</text>
<text text-anchor="middle" x="491" y="-340" font-family="Helvetica,sans-Serif" font-size="10.00">DataFlowAnalysis&lt; StateT &gt;</text>
</a>
</g>
</g>
<!-- Node5&#45;&gt;Node8 -->
<g id="edge758_Node000005_Node000008" class="edge">
<title>Node5&#45;&gt;Node8</title>
<g id="a_edge758_Node000005_Node000008"><a xlink:title=" ">
<path fill="none" stroke="#63b8ff" d="M361.43,-351.35C376.21,-350.96 391.28,-350.57 405.66,-350.2"/>
<polygon fill="#63b8ff" stroke="#63b8ff" points="361.17,-347.85 351.26,-351.61 361.35,-354.85 361.17,-347.85"/>
</a>
</g>
</g>
<!-- Node7 -->
<g id="Node000007" class="node">
<title>Node7</title>
<g id="a_Node000007"><a xlink:href="classmlir_1_1dataflow_1_1LivenessAnalysis.html" target="_top" xlink:title="An analysis that, by going backwards along the dataflow graph, annotates each value with a boolean st...">
<polygon fill="white" stroke="#666666" points="785,-411 653,-411 653,-381 785,-381 785,-411"/>
<text text-anchor="start" x="661" y="-399" font-family="Helvetica,sans-Serif" font-size="10.00">mlir::dataflow::Liveness</text>
<text text-anchor="middle" x="719" y="-388" font-family="Helvetica,sans-Serif" font-size="10.00">Analysis</text>
</a>
</g>
</g>
<!-- Node6&#45;&gt;Node7 -->
<g id="edge757_Node000006_Node000007" class="edge">
<title>Node6&#45;&gt;Node7</title>
<g id="a_edge757_Node000006_Node000007"><a xlink:title=" ">
<path fill="none" stroke="#63b8ff" d="M586.35,-396C608.73,-396 632.11,-396 652.85,-396"/>
<polygon fill="#63b8ff" stroke="#63b8ff" points="586.15,-392.5 576.15,-396 586.15,-399.5 586.15,-392.5"/>
</a>
</g>
</g>
<!-- Node10 -->
<g id="Node000010" class="node">
<title>Node10</title>
<g id="a_Node000010"><a xlink:href="classmlir_1_1dataflow_1_1SparseForwardDataFlowAnalysis.html" target="_top" xlink:title=" ">
<polygon fill="white" stroke="#666666" points="592.5,-314.5 389.5,-314.5 389.5,-273.5 592.5,-273.5 592.5,-314.5"/>
<text text-anchor="start" x="397.5" y="-302.5" font-family="Helvetica,sans-Serif" font-size="10.00">mlir::dataflow::SparseForward</text>
<text text-anchor="start" x="397.5" y="-291.5" font-family="Helvetica,sans-Serif" font-size="10.00">DataFlowAnalysis&lt; IntegerDivisibility</text>
<text text-anchor="middle" x="491" y="-280.5" font-family="Helvetica,sans-Serif" font-size="10.00">Lattice &gt;</text>
</a>
</g>
</g>
<!-- Node9&#45;&gt;Node10 -->
<g id="edge760_Node000009_Node000010" class="edge">
<title>Node9&#45;&gt;Node10</title>
<g id="a_edge760_Node000009_Node000010"><a xlink:title=" ">
<path fill="none" stroke="#63b8ff" d="M297.69,-225.62C322.68,-237.96 356.27,-253.64 387,-265 395.02,-267.96 403.48,-270.8 411.96,-273.45"/>
<polygon fill="#63b8ff" stroke="#63b8ff" points="299.08,-222.39 288.56,-221.07 295.95,-228.66 299.08,-222.39"/>
</a>
</g>
</g>
<!-- Node12 -->
<g id="Node000012" class="node">
<title>Node12</title>
<g id="a_Node000012"><a xlink:href="classmlir_1_1dataflow_1_1SparseForwardDataFlowAnalysis.html" target="_top" xlink:title=" ">
<polygon fill="white" stroke="#666666" points="595,-255.5 387,-255.5 387,-214.5 595,-214.5 595,-255.5"/>
<text text-anchor="start" x="395" y="-243.5" font-family="Helvetica,sans-Serif" font-size="10.00">mlir::dataflow::SparseForward</text>
<text text-anchor="start" x="395" y="-232.5" font-family="Helvetica,sans-Serif" font-size="10.00">DataFlowAnalysis&lt; IntegerValueRange</text>
<text text-anchor="middle" x="491" y="-221.5" font-family="Helvetica,sans-Serif" font-size="10.00">Lattice &gt;</text>
</a>
</g>
</g>
<!-- Node9&#45;&gt;Node12 -->
<g id="edge762_Node000009_Node000012" class="edge">
<title>Node9&#45;&gt;Node12</title>
<g id="a_edge762_Node000009_Node000012"><a xlink:title=" ">
<path fill="none" stroke="#63b8ff" d="M356.58,-218.21C366.58,-219.47 376.78,-220.76 386.85,-222.02"/>
<polygon fill="#63b8ff" stroke="#63b8ff" points="357,-214.74 346.64,-216.96 356.13,-221.68 357,-214.74"/>
</a>
</g>
</g>
<!-- Node14 -->
<g id="Node000014" class="node">
<title>Node14</title>
<g id="a_Node000014"><a xlink:href="classmlir_1_1dataflow_1_1SparseForwardDataFlowAnalysis.html" target="_top" xlink:title=" ">
<polygon fill="white" stroke="#666666" points="571.5,-196.5 410.5,-196.5 410.5,-155.5 571.5,-155.5 571.5,-196.5"/>
<text text-anchor="start" x="418.5" y="-184.5" font-family="Helvetica,sans-Serif" font-size="10.00">mlir::dataflow::SparseForward</text>
<text text-anchor="start" x="418.5" y="-173.5" font-family="Helvetica,sans-Serif" font-size="10.00">DataFlowAnalysis&lt; Lattice</text>
<text text-anchor="middle" x="491" y="-162.5" font-family="Helvetica,sans-Serif" font-size="10.00">&lt; ConstantValue &gt; &gt;</text>
</a>
</g>
</g>
<!-- Node9&#45;&gt;Node14 -->
<g id="edge764_Node000009_Node000014" class="edge">
<title>Node9&#45;&gt;Node14</title>
<g id="a_edge764_Node000009_Node000014"><a xlink:title=" ">
<path fill="none" stroke="#63b8ff" d="M357.03,-193.31C374.8,-190.99 393.14,-188.61 410.32,-186.37"/>
<polygon fill="#63b8ff" stroke="#63b8ff" points="356.11,-189.9 346.64,-194.66 357.01,-196.84 356.11,-189.9"/>
</a>
</g>
</g>
<!-- Node16 -->
<g id="Node000016" class="node">
<title>Node16</title>
<g id="a_Node000016"><a xlink:href="classmlir_1_1dataflow_1_1SparseForwardDataFlowAnalysis.html" target="_top" xlink:title=" ">
<polygon fill="white" stroke="#666666" points="589.5,-137.5 392.5,-137.5 392.5,-96.5 589.5,-96.5 589.5,-137.5"/>
<text text-anchor="start" x="400.5" y="-125.5" font-family="Helvetica,sans-Serif" font-size="10.00">mlir::dataflow::SparseForward</text>
<text text-anchor="start" x="400.5" y="-114.5" font-family="Helvetica,sans-Serif" font-size="10.00">DataFlowAnalysis&lt; StridedMetadata</text>
<text text-anchor="middle" x="491" y="-103.5" font-family="Helvetica,sans-Serif" font-size="10.00">RangeLattice &gt;</text>
</a>
</g>
</g>
<!-- Node9&#45;&gt;Node16 -->
<g id="edge766_Node000009_Node000016" class="edge">
<title>Node9&#45;&gt;Node16</title>
<g id="a_edge766_Node000009_Node000016"><a xlink:title=" ">
<path fill="none" stroke="#63b8ff" d="M341.36,-186.88C344.67,-185.37 347.9,-183.75 351,-182 370.43,-171.03 367.72,-158.23 387,-147 393.04,-143.49 399.51,-140.36 406.17,-137.58"/>
<polygon fill="#63b8ff" stroke="#63b8ff" points="339.72,-183.77 331.83,-190.83 342.41,-190.24 339.72,-183.77"/>
</a>
</g>
</g>
<!-- Node18 -->
<g id="Node000018" class="node">
<title>Node18</title>
<g id="a_Node000018"><a xlink:href="classmlir_1_1dataflow_1_1SparseForwardDataFlowAnalysis.html" target="_top" xlink:title=" ">
<polygon fill="white" stroke="#666666" points="591,-78 391,-78 391,-48 591,-48 591,-78"/>
<text text-anchor="start" x="399" y="-66" font-family="Helvetica,sans-Serif" font-size="10.00">mlir::dataflow::SparseForward</text>
<text text-anchor="middle" x="491" y="-55" font-family="Helvetica,sans-Serif" font-size="10.00">DataFlowAnalysis&lt; AxisInfoLattice &gt;</text>
</a>
</g>
</g>
<!-- Node9&#45;&gt;Node18 -->
<g id="edge768_Node000009_Node000018" class="edge">
<title>Node9&#45;&gt;Node18</title>
<g id="a_edge768_Node000009_Node000018"><a xlink:title=" ">
<path fill="none" stroke="#63b8ff" d="M346.95,-185.35C348.35,-184.28 349.7,-183.17 351,-182 384.57,-151.8 353.02,-116.73 387,-87 390.87,-83.61 395.12,-80.68 399.63,-78.15"/>
<polygon fill="#63b8ff" stroke="#63b8ff" points="344.98,-182.46 338.53,-190.86 348.81,-188.31 344.98,-182.46"/>
</a>
</g>
</g>
<!-- Node20 -->
<g id="Node000020" class="node">
<title>Node20</title>
<g id="a_Node000020"><a xlink:href="classmlir_1_1dataflow_1_1SparseForwardDataFlowAnalysis.html" target="_top" xlink:title="A sparse forward data&#45;flow analysis for propagating SSA value lattices across the IR by implementing ...">
<polygon fill="white" stroke="#666666" points="571.5,-30 410.5,-30 410.5,0 571.5,0 571.5,-30"/>
<text text-anchor="start" x="418.5" y="-18" font-family="Helvetica,sans-Serif" font-size="10.00">mlir::dataflow::SparseForward</text>
<text text-anchor="middle" x="491" y="-7" font-family="Helvetica,sans-Serif" font-size="10.00">DataFlowAnalysis&lt; StateT &gt;</text>
</a>
</g>
</g>
<!-- Node9&#45;&gt;Node20 -->
<g id="edge770_Node000009_Node000020" class="edge">
<title>Node9&#45;&gt;Node20</title>
<g id="a_edge770_Node000009_Node000020"><a xlink:title=" ">
<path fill="none" stroke="#63b8ff" d="M348.08,-184.75C349.08,-183.87 350.06,-182.95 351,-182 397.11,-135.43 340.25,-84.93 387,-39 393.68,-32.44 401.79,-27.54 410.49,-23.9"/>
<polygon fill="#63b8ff" stroke="#63b8ff" points="345.8,-182.08 339.84,-190.84 349.96,-187.71 345.8,-182.08"/>
</a>
</g>
</g>
<!-- Node11 -->
<g id="Node000011" class="node">
<title>Node11</title>
<g id="a_Node000011"><a xlink:href="classmlir_1_1dataflow_1_1IntegerDivisibilityAnalysis.html" target="_top" xlink:title="Integer divisibility analysis determines, for each integer&#45;typed SSA value, a divisor that the value ...">
<polygon fill="white" stroke="#666666" points="807,-309 631,-309 631,-279 807,-279 807,-309"/>
<text text-anchor="start" x="639" y="-297" font-family="Helvetica,sans-Serif" font-size="10.00">mlir::dataflow::IntegerDivisibility</text>
<text text-anchor="middle" x="719" y="-286" font-family="Helvetica,sans-Serif" font-size="10.00">Analysis</text>
</a>
</g>
</g>
<!-- Node10&#45;&gt;Node11 -->
<g id="edge761_Node000010_Node000011" class="edge">
<title>Node10&#45;&gt;Node11</title>
<g id="a_edge761_Node000010_Node000011"><a xlink:title=" ">
<path fill="none" stroke="#63b8ff" d="M602.93,-294C612.32,-294 621.72,-294 630.88,-294"/>
<polygon fill="#63b8ff" stroke="#63b8ff" points="602.77,-290.5 592.77,-294 602.77,-297.5 602.77,-290.5"/>
</a>
</g>
</g>
<!-- Node13 -->
<g id="Node000013" class="node">
<title>Node13</title>
<g id="a_Node000013"><a xlink:href="classmlir_1_1dataflow_1_1IntegerRangeAnalysis.html" target="_top" xlink:title="Integer range analysis determines the integer value range of SSA values using operations that define ...">
<polygon fill="white" stroke="#666666" points="796.5,-250 641.5,-250 641.5,-220 796.5,-220 796.5,-250"/>
<text text-anchor="start" x="649.5" y="-238" font-family="Helvetica,sans-Serif" font-size="10.00">mlir::dataflow::IntegerRange</text>
<text text-anchor="middle" x="719" y="-227" font-family="Helvetica,sans-Serif" font-size="10.00">Analysis</text>
</a>
</g>
</g>
<!-- Node12&#45;&gt;Node13 -->
<g id="edge763_Node000012_Node000013" class="edge">
<title>Node12&#45;&gt;Node13</title>
<g id="a_edge763_Node000012_Node000013"><a xlink:title=" ">
<path fill="none" stroke="#63b8ff" d="M605.34,-235C617.57,-235 629.79,-235 641.44,-235"/>
<polygon fill="#63b8ff" stroke="#63b8ff" points="605.08,-231.5 595.08,-235 605.08,-238.5 605.08,-231.5"/>
</a>
</g>
</g>
<!-- Node15 -->
<g id="Node000015" class="node">
<title>Node15</title>
<g id="a_Node000015"><a xlink:href="classmlir_1_1dataflow_1_1SparseConstantPropagation.html" target="_top" xlink:title="This analysis implements sparse constant propagation, which attempts to determine constant&#45;valued res...">
<polygon fill="white" stroke="#666666" points="802,-191 636,-191 636,-161 802,-161 802,-191"/>
<text text-anchor="start" x="644" y="-179" font-family="Helvetica,sans-Serif" font-size="10.00">mlir::dataflow::SparseConstant</text>
<text text-anchor="middle" x="719" y="-168" font-family="Helvetica,sans-Serif" font-size="10.00">Propagation</text>
</a>
</g>
</g>
<!-- Node14&#45;&gt;Node15 -->
<g id="edge765_Node000014_Node000015" class="edge">
<title>Node14&#45;&gt;Node15</title>
<g id="a_edge765_Node000014_Node000015"><a xlink:title=" ">
<path fill="none" stroke="#63b8ff" d="M582.06,-176C599.86,-176 618.46,-176 635.98,-176"/>
<polygon fill="#63b8ff" stroke="#63b8ff" points="581.68,-172.5 571.68,-176 581.68,-179.5 581.68,-172.5"/>
</a>
</g>
</g>
<!-- Node17 -->
<g id="Node000017" class="node">
<title>Node17</title>
<g id="a_Node000017"><a xlink:href="classmlir_1_1dataflow_1_1StridedMetadataRangeAnalysis.html" target="_top" xlink:title="Strided metadata range analysis determines the strided metadata ranges of SSA values using operations...">
<polygon fill="white" stroke="#666666" points="804,-132 634,-132 634,-102 804,-102 804,-132"/>
<text text-anchor="start" x="642" y="-120" font-family="Helvetica,sans-Serif" font-size="10.00">mlir::dataflow::StridedMetadata</text>
<text text-anchor="middle" x="719" y="-109" font-family="Helvetica,sans-Serif" font-size="10.00">RangeAnalysis</text>
</a>
</g>
</g>
<!-- Node16&#45;&gt;Node17 -->
<g id="edge767_Node000016_Node000017" class="edge">
<title>Node16&#45;&gt;Node17</title>
<g id="a_edge767_Node000016_Node000017"><a xlink:title=" ">
<path fill="none" stroke="#63b8ff" d="M599.83,-117C611.26,-117 622.76,-117 633.86,-117"/>
<polygon fill="#63b8ff" stroke="#63b8ff" points="599.81,-113.5 589.81,-117 599.81,-120.5 599.81,-113.5"/>
</a>
</g>
</g>
<!-- Node19 -->
<g id="Node000019" class="node">
<title>Node19</title>
<g id="a_Node000019"><a xlink:href="classmlir_1_1xegpu_1_1detail_1_1axis__dataflow_1_1AxisInfoAnalysis.html" target="_top" xlink:title="Sparse forward dataflow analysis that computes AxisInfo for vector values reachable from the entry of...">
<polygon fill="white" stroke="#666666" points="807,-78 631,-78 631,-48 807,-48 807,-78"/>
<text text-anchor="start" x="639" y="-66" font-family="Helvetica,sans-Serif" font-size="10.00">mlir::xegpu::detail</text>
<text text-anchor="middle" x="719" y="-55" font-family="Helvetica,sans-Serif" font-size="10.00">::axis_dataflow::AxisInfoAnalysis</text>
</a>
</g>
</g>
<!-- Node18&#45;&gt;Node19 -->
<g id="edge769_Node000018_Node000019" class="edge">
<title>Node18&#45;&gt;Node19</title>
<g id="a_edge769_Node000018_Node000019"><a xlink:title=" ">
<path fill="none" stroke="#63b8ff" d="M601.35,-63C611.18,-63 621.05,-63 630.66,-63"/>
<polygon fill="#63b8ff" stroke="#63b8ff" points="601.13,-59.5 591.13,-63 601.13,-66.5 601.13,-59.5"/>
</a>
</g>
</g>
</g>
</svg>
