<?xml version="1.0" encoding="UTF-8" standalone="no"?>
<!DOCTYPE svg PUBLIC "-//W3C//DTD SVG 1.1//EN"
 "http://www.w3.org/Graphics/SVG/1.1/DTD/svg11.dtd">
<!-- Generated by graphviz version 2.43.0 (0)
 -->
<!-- Title: Graphical Class Hierarchy Pages: 1 -->
<svg width="836pt" height="510pt"
 viewBox="0.00 0.00 836.00 509.50" xmlns="http://www.w3.org/2000/svg" xmlns:xlink="http://www.w3.org/1999/xlink">
<g id="graph0" class="graph" transform="scale(1 1) rotate(0) translate(4 505.5)">
<title>Graphical Class Hierarchy</title>
<!-- Node0 -->
<g id="Node000000" class="node">
<title>Node0</title>
<g id="a_Node000000"><a xlink:href="classmlir_1_1DialectInterface.html" target="_top" xlink:title="This class represents an interface overridden for a single dialect.">
<polygon fill="white" stroke="#666666" points="120,-293.5 0,-293.5 0,-274.5 120,-274.5 120,-293.5"/>
<text text-anchor="middle" x="60" y="-281.5" font-family="Helvetica,sans-Serif" font-size="10.00">mlir::DialectInterface</text>
</a>
</g>
</g>
<!-- Node1 -->
<g id="Node000001" class="node">
<title>Node1</title>
<g id="a_Node000001"><a xlink:href="classmlir_1_1detail_1_1DialectInterfaceBase.html" target="_top" xlink:title=" ">
<polygon fill="white" stroke="#666666" points="369,-299 156,-299 156,-269 369,-269 369,-299"/>
<text text-anchor="start" x="164" y="-287" font-family="Helvetica,sans-Serif" font-size="10.00">mlir::detail::DialectInterface</text>
<text text-anchor="middle" x="262.5" y="-276" font-family="Helvetica,sans-Serif" font-size="10.00">Base&lt; ConcreteType, DialectInterface &gt;</text>
</a>
</g>
</g>
<!-- Node0&#45;&gt;Node1 -->
<g id="edge759_Node000000_Node000001" class="edge">
<title>Node0&#45;&gt;Node1</title>
<g id="a_edge759_Node000000_Node000001"><a xlink:title=" ">
<path fill="none" stroke="#63b8ff" d="M130.08,-284C138.44,-284 147.11,-284 155.84,-284"/>
<polygon fill="#63b8ff" stroke="#63b8ff" points="130.07,-280.5 120.07,-284 130.07,-287.5 130.07,-280.5"/>
</a>
</g>
</g>
<!-- Node2 -->
<g id="Node000002" class="node">
<title>Node2</title>
<g id="a_Node000002"><a xlink:href="classmlir_1_1BytecodeDialectInterface.html" target="_top" xlink:title=" ">
<polygon fill="white" stroke="#666666" points="577,-501.5 411,-501.5 411,-482.5 577,-482.5 577,-501.5"/>
<text text-anchor="middle" x="494" y="-489.5" font-family="Helvetica,sans-Serif" font-size="10.00">mlir::BytecodeDialectInterface</text>
</a>
</g>
</g>
<!-- Node1&#45;&gt;Node2 -->
<g id="edge760_Node000001_Node000002" class="edge">
<title>Node1&#45;&gt;Node2</title>
<g id="a_edge760_Node000001_Node000002"><a xlink:title=" ">
<path fill="none" stroke="#63b8ff" d="M274.57,-308.42C294.46,-349.37 340.3,-431.49 405,-473 411.05,-476.88 417.77,-479.98 424.72,-482.46"/>
<polygon fill="#63b8ff" stroke="#63b8ff" points="277.63,-306.7 270.18,-299.17 271.3,-309.71 277.63,-306.7"/>
</a>
</g>
</g>
<!-- Node3 -->
<g id="Node000003" class="node">
<title>Node3</title>
<g id="a_Node000003"><a xlink:href="classmlir_1_1ConvertToEmitCPatternInterface.html" target="_top" xlink:title=" ">
<polygon fill="white" stroke="#666666" points="571.5,-464 416.5,-464 416.5,-434 571.5,-434 571.5,-464"/>
<text text-anchor="start" x="424.5" y="-452" font-family="Helvetica,sans-Serif" font-size="10.00">mlir::ConvertToEmitCPattern</text>
<text text-anchor="middle" x="494" y="-441" font-family="Helvetica,sans-Serif" font-size="10.00">Interface</text>
</a>
</g>
</g>
<!-- Node1&#45;&gt;Node3 -->
<g id="edge761_Node000001_Node000003" class="edge">
<title>Node1&#45;&gt;Node3</title>
<g id="a_edge761_Node000001_Node000003"><a xlink:title=" ">
<path fill="none" stroke="#63b8ff" d="M280.67,-307.52C304.89,-338.98 352.06,-394.34 405,-425 410.89,-428.41 417.29,-431.36 423.85,-433.89"/>
<polygon fill="#63b8ff" stroke="#63b8ff" points="283.29,-305.18 274.47,-299.32 277.71,-309.41 283.29,-305.18"/>
</a>
</g>
</g>
<!-- Node4 -->
<g id="Node000004" class="node">
<title>Node4</title>
<g id="a_Node000004"><a xlink:href="classmlir_1_1ConvertToLLVMPatternInterface.html" target="_top" xlink:title="Base class for dialect interfaces providing translation to LLVM IR.">
<polygon fill="white" stroke="#666666" points="569.5,-416 418.5,-416 418.5,-386 569.5,-386 569.5,-416"/>
<text text-anchor="start" x="426.5" y="-404" font-family="Helvetica,sans-Serif" font-size="10.00">mlir::ConvertToLLVMPattern</text>
<text text-anchor="middle" x="494" y="-393" font-family="Helvetica,sans-Serif" font-size="10.00">Interface</text>
</a>
</g>
</g>
<!-- Node1&#45;&gt;Node4 -->
<g id="edge762_Node000001_Node000004" class="edge">
<title>Node1&#45;&gt;Node4</title>
<g id="a_edge762_Node000001_Node000004"><a xlink:title=" ">
<path fill="none" stroke="#63b8ff" d="M290.44,-305.46C317.85,-326.36 362.26,-357.72 405,-377 412.36,-380.32 420.28,-383.27 428.25,-385.87"/>
<polygon fill="#63b8ff" stroke="#63b8ff" points="292.56,-302.67 282.5,-299.34 288.28,-308.22 292.56,-302.67"/>
</a>
</g>
</g>
<!-- Node5 -->
<g id="Node000005" class="node">
<title>Node5</title>
<g id="a_Node000005"><a xlink:href="classmlir_1_1DataLayoutDialectInterface.html" target="_top" xlink:title="An interface to be implemented by dialects that can have identifiers in the data layout specification...">
<polygon fill="white" stroke="#666666" points="582,-367.5 406,-367.5 406,-348.5 582,-348.5 582,-367.5"/>
<text text-anchor="middle" x="494" y="-355.5" font-family="Helvetica,sans-Serif" font-size="10.00">mlir::DataLayoutDialectInterface</text>
</a>
</g>
</g>
<!-- Node1&#45;&gt;Node5 -->
<g id="edge763_Node000001_Node000005" class="edge">
<title>Node1&#45;&gt;Node5</title>
<g id="a_edge763_Node000001_Node000005"><a xlink:title=" ">
<path fill="none" stroke="#63b8ff" d="M306.05,-303.1C333.79,-314.99 371.02,-329.89 405,-340 415.76,-343.2 427.43,-346.03 438.64,-348.43"/>
<polygon fill="#63b8ff" stroke="#63b8ff" points="307.22,-299.8 296.65,-299.04 304.44,-306.22 307.22,-299.8"/>
</a>
</g>
</g>
<!-- Node6 -->
<g id="Node000006" class="node">
<title>Node6</title>
<g id="a_Node000006"><a xlink:href="classmlir_1_1DialectFoldInterface.html" target="_top" xlink:title="Define a fold interface to allow for dialects to control specific aspects of the folding behavior for...">
<polygon fill="white" stroke="#666666" points="564,-330.5 424,-330.5 424,-311.5 564,-311.5 564,-330.5"/>
<text text-anchor="middle" x="494" y="-318.5" font-family="Helvetica,sans-Serif" font-size="10.00">mlir::DialectFoldInterface</text>
</a>
</g>
</g>
<!-- Node1&#45;&gt;Node6 -->
<g id="edge764_Node000001_Node000006" class="edge">
<title>Node1&#45;&gt;Node6</title>
<g id="a_edge764_Node000001_Node000006"><a xlink:title=" ">
<path fill="none" stroke="#63b8ff" d="M366.99,-300.68C389.95,-304.39 413.52,-308.19 433.97,-311.48"/>
<polygon fill="#63b8ff" stroke="#63b8ff" points="367.28,-297.19 356.85,-299.05 366.16,-304.1 367.28,-297.19"/>
</a>
</g>
</g>
<!-- Node7 -->
<g id="Node000007" class="node">
<title>Node7</title>
<g id="a_Node000007"><a xlink:href="classmlir_1_1DialectInlinerInterface.html" target="_top" xlink:title="This is the interface that must be implemented by the dialects of operations to be inlined.">
<polygon fill="white" stroke="#666666" points="569.5,-293.5 418.5,-293.5 418.5,-274.5 569.5,-274.5 569.5,-293.5"/>
<text text-anchor="middle" x="494" y="-281.5" font-family="Helvetica,sans-Serif" font-size="10.00">mlir::DialectInlinerInterface</text>
</a>
</g>
</g>
<!-- Node1&#45;&gt;Node7 -->
<g id="edge765_Node000001_Node000007" class="edge">
<title>Node1&#45;&gt;Node7</title>
<g id="a_edge765_Node000001_Node000007"><a xlink:title=" ">
<path fill="none" stroke="#63b8ff" d="M379.31,-284C392.56,-284 405.8,-284 418.31,-284"/>
<polygon fill="#63b8ff" stroke="#63b8ff" points="379.18,-280.5 369.18,-284 379.18,-287.5 379.18,-280.5"/>
</a>
</g>
</g>
<!-- Node8 -->
<g id="Node000008" class="node">
<title>Node8</title>
<g id="a_Node000008"><a xlink:href="classmlir_1_1DialectReductionPatternInterface.html" target="_top" xlink:title="This is used to report the reduction patterns for a Dialect.">
<polygon fill="white" stroke="#666666" points="574,-256 414,-256 414,-226 574,-226 574,-256"/>
<text text-anchor="start" x="422" y="-244" font-family="Helvetica,sans-Serif" font-size="10.00">mlir::DialectReductionPattern</text>
<text text-anchor="middle" x="494" y="-233" font-family="Helvetica,sans-Serif" font-size="10.00">Interface</text>
</a>
</g>
</g>
<!-- Node1&#45;&gt;Node8 -->
<g id="edge766_Node000001_Node000008" class="edge">
<title>Node1&#45;&gt;Node8</title>
<g id="a_edge766_Node000001_Node000008"><a xlink:title=" ">
<path fill="none" stroke="#63b8ff" d="M353.74,-267.09C373.63,-263.37 394.54,-259.45 413.94,-255.81"/>
<polygon fill="#63b8ff" stroke="#63b8ff" points="352.95,-263.68 343.77,-268.96 354.24,-270.56 352.95,-263.68"/>
</a>
</g>
</g>
<!-- Node9 -->
<g id="Node000009" class="node">
<title>Node9</title>
<g id="a_Node000009"><a xlink:href="classmlir_1_1LLVMImportDialectInterface.html" target="_top" xlink:title="Base class for dialect interfaces used to import LLVM IR.">
<polygon fill="white" stroke="#666666" points="583,-207.5 405,-207.5 405,-188.5 583,-188.5 583,-207.5"/>
<text text-anchor="middle" x="494" y="-195.5" font-family="Helvetica,sans-Serif" font-size="10.00">mlir::LLVMImportDialectInterface</text>
</a>
</g>
</g>
<!-- Node1&#45;&gt;Node9 -->
<g id="edge767_Node000001_Node000009" class="edge">
<title>Node1&#45;&gt;Node9</title>
<g id="a_edge767_Node000001_Node000009"><a xlink:title=" ">
<path fill="none" stroke="#63b8ff" d="M299.39,-264.18C327.44,-249.39 367.77,-229.64 405,-217 415.95,-213.28 427.92,-210.12 439.41,-207.51"/>
<polygon fill="#63b8ff" stroke="#63b8ff" points="297.56,-261.19 290.38,-268.98 300.85,-267.37 297.56,-261.19"/>
</a>
</g>
</g>
<!-- Node10 -->
<g id="Node000010" class="node">
<title>Node10</title>
<g id="a_Node000010"><a xlink:href="classmlir_1_1LLVMTranslationDialectInterface.html" target="_top" xlink:title="Base class for dialect interfaces providing translation to LLVM IR.">
<polygon fill="white" stroke="#666666" points="571.5,-170 416.5,-170 416.5,-140 571.5,-140 571.5,-170"/>
<text text-anchor="start" x="424.5" y="-158" font-family="Helvetica,sans-Serif" font-size="10.00">mlir::LLVMTranslationDialect</text>
<text text-anchor="middle" x="494" y="-147" font-family="Helvetica,sans-Serif" font-size="10.00">Interface</text>
</a>
</g>
</g>
<!-- Node1&#45;&gt;Node10 -->
<g id="edge768_Node000001_Node000010" class="edge">
<title>Node1&#45;&gt;Node10</title>
<g id="a_edge768_Node000001_Node000010"><a xlink:title=" ">
<path fill="none" stroke="#63b8ff" d="M287.78,-261.89C314.63,-238.5 360.09,-201.99 405,-180 412.7,-176.23 421.07,-172.94 429.48,-170.09"/>
<polygon fill="#63b8ff" stroke="#63b8ff" points="285.24,-259.46 280.06,-268.7 289.87,-264.71 285.24,-259.46"/>
</a>
</g>
</g>
<!-- Node11 -->
<g id="Node000011" class="node">
<title>Node11</title>
<g id="a_Node000011"><a xlink:href="classmlir_1_1OpAsmDialectInterface.html" target="_top" xlink:title=" ">
<polygon fill="white" stroke="#666666" points="571.5,-121.5 416.5,-121.5 416.5,-102.5 571.5,-102.5 571.5,-121.5"/>
<text text-anchor="middle" x="494" y="-109.5" font-family="Helvetica,sans-Serif" font-size="10.00">mlir::OpAsmDialectInterface</text>
</a>
</g>
</g>
<!-- Node1&#45;&gt;Node11 -->
<g id="edge769_Node000001_Node000011" class="edge">
<title>Node1&#45;&gt;Node11</title>
<g id="a_edge769_Node000001_Node000011"><a xlink:title=" ">
<path fill="none" stroke="#63b8ff" d="M278.23,-260.56C301.02,-226.39 348.17,-163.43 405,-131 411.79,-127.13 419.28,-124.04 426.94,-121.58"/>
<polygon fill="#63b8ff" stroke="#63b8ff" points="275.26,-258.71 272.72,-268.99 281.12,-262.54 275.26,-258.71"/>
</a>
</g>
</g>
<!-- Node12 -->
<g id="Node000012" class="node">
<title>Node12</title>
<g id="a_Node000012"><a xlink:href="classmlir_1_1ResourceBlobManagerDialectInterface.html" target="_top" xlink:title="This class implements a dialect interface that provides common functionality for interacting with a r...">
<polygon fill="white" stroke="#666666" points="570,-84 418,-84 418,-54 570,-54 570,-84"/>
<text text-anchor="start" x="426" y="-72" font-family="Helvetica,sans-Serif" font-size="10.00">mlir::ResourceBlobManager</text>
<text text-anchor="middle" x="494" y="-61" font-family="Helvetica,sans-Serif" font-size="10.00">DialectInterface</text>
</a>
</g>
</g>
<!-- Node1&#45;&gt;Node12 -->
<g id="edge770_Node000001_Node000012" class="edge">
<title>Node1&#45;&gt;Node12</title>
<g id="a_edge770_Node000001_Node000012"><a xlink:title=" ">
<path fill="none" stroke="#63b8ff" d="M274.97,-259.6C295.33,-218.98 341.66,-137.68 405,-94 410.62,-90.12 416.84,-86.84 423.29,-84.07"/>
<polygon fill="#63b8ff" stroke="#63b8ff" points="271.74,-258.25 270.47,-268.77 278.02,-261.33 271.74,-258.25"/>
</a>
</g>
</g>
<!-- Node13 -->
<g id="Node000013" class="node">
<title>Node13</title>
<g id="a_Node000013"><a xlink:href="classmlir_1_1ResourceBlobManagerDialectInterfaceBase.html" target="_top" xlink:title=" ">
<polygon fill="white" stroke="#666666" points="828,-148.5 619,-148.5 619,-107.5 828,-107.5 828,-148.5"/>
<text text-anchor="start" x="627" y="-136.5" font-family="Helvetica,sans-Serif" font-size="10.00">mlir::ResourceBlobManager</text>
<text text-anchor="start" x="627" y="-125.5" font-family="Helvetica,sans-Serif" font-size="10.00">DialectInterfaceBase&lt; DialectResource</text>
<text text-anchor="middle" x="723.5" y="-114.5" font-family="Helvetica,sans-Serif" font-size="10.00">BlobHandle&lt; DialectT &gt; &gt;</text>
</a>
</g>
</g>
<!-- Node12&#45;&gt;Node13 -->
<g id="edge771_Node000012_Node000013" class="edge">
<title>Node12&#45;&gt;Node13</title>
<g id="a_edge771_Node000012_Node000013"><a xlink:title=" ">
<path fill="none" stroke="#63b8ff" d="M562.84,-86.59C588.09,-93.14 616.96,-100.63 643.15,-107.42"/>
<polygon fill="#63b8ff" stroke="#63b8ff" points="563.55,-83.16 553,-84.04 561.8,-89.94 563.55,-83.16"/>
</a>
</g>
</g>
<!-- Node14 -->
<g id="Node000014" class="node">
<title>Node14</title>
<g id="a_Node000014"><a xlink:href="classmlir_1_1ResourceBlobManagerDialectInterfaceBase.html" target="_top" xlink:title=" ">
<polygon fill="white" stroke="#666666" points="826.5,-89.5 620.5,-89.5 620.5,-48.5 826.5,-48.5 826.5,-89.5"/>
<text text-anchor="start" x="628.5" y="-77.5" font-family="Helvetica,sans-Serif" font-size="10.00">mlir::ResourceBlobManager</text>
<text text-anchor="start" x="628.5" y="-66.5" font-family="Helvetica,sans-Serif" font-size="10.00">DialectInterfaceBase&lt; DenseResource</text>
<text text-anchor="middle" x="723.5" y="-55.5" font-family="Helvetica,sans-Serif" font-size="10.00">ElementsHandle &gt;</text>
</a>
</g>
</g>
<!-- Node12&#45;&gt;Node14 -->
<g id="edge772_Node000012_Node000014" class="edge">
<title>Node12&#45;&gt;Node14</title>
<g id="a_edge772_Node000012_Node000014"><a xlink:title=" ">
<path fill="none" stroke="#63b8ff" d="M580.42,-69C593.42,-69 606.94,-69 620.26,-69"/>
<polygon fill="#63b8ff" stroke="#63b8ff" points="580.12,-65.5 570.12,-69 580.12,-72.5 580.12,-65.5"/>
</a>
</g>
</g>
<!-- Node15 -->
<g id="Node000015" class="node">
<title>Node15</title>
<g id="a_Node000015"><a xlink:href="classmlir_1_1ResourceBlobManagerDialectInterfaceBase.html" target="_top" xlink:title="This class provides a base class for dialects implementing the resource blob interface.">
<polygon fill="white" stroke="#666666" points="814.5,-30 632.5,-30 632.5,0 814.5,0 814.5,-30"/>
<text text-anchor="start" x="640.5" y="-18" font-family="Helvetica,sans-Serif" font-size="10.00">mlir::ResourceBlobManager</text>
<text text-anchor="middle" x="723.5" y="-7" font-family="Helvetica,sans-Serif" font-size="10.00">DialectInterfaceBase&lt; HandleT &gt;</text>
</a>
</g>
</g>
<!-- Node12&#45;&gt;Node15 -->
<g id="edge773_Node000012_Node000015" class="edge">
<title>Node12&#45;&gt;Node15</title>
<g id="a_edge773_Node000012_Node000015"><a xlink:title=" ">
<path fill="none" stroke="#63b8ff" d="M568.13,-51.64C597.42,-44.69 630.84,-36.76 659.07,-30.05"/>
<polygon fill="#63b8ff" stroke="#63b8ff" points="567.29,-48.24 558.37,-53.96 568.91,-55.05 567.29,-48.24"/>
</a>
</g>
</g>
</g>
</svg>
