<?xml version="1.0" encoding="UTF-8" standalone="no"?>
<!DOCTYPE svg PUBLIC "-//W3C//DTD SVG 1.1//EN"
 "http://www.w3.org/Graphics/SVG/1.1/DTD/svg11.dtd">
<!-- Generated by graphviz version 2.43.0 (0)
 -->
<!-- Title: Graphical Class Hierarchy Pages: 1 -->
<svg width="791pt" height="397pt"
 viewBox="0.00 0.00 791.00 397.00" xmlns="http://www.w3.org/2000/svg" xmlns:xlink="http://www.w3.org/1999/xlink">
<g id="graph0" class="graph" transform="scale(1 1) rotate(0) translate(4 393)">
<title>Graphical Class Hierarchy</title>
<!-- Node0 -->
<g id="Node000000" class="node">
<title>Node0</title>
<g id="a_Node000000"><a xlink:href="classmlir_1_1python_1_1BaseContextObject.html" target="_top" xlink:title="Base class for all objects that directly or indirectly depend on an MlirContext.">
<polygon fill="white" stroke="#666666" points="155,-227.5 11,-227.5 11,-197.5 155,-197.5 155,-227.5"/>
<text text-anchor="start" x="19" y="-215.5" font-family="Helvetica,sans-Serif" font-size="10.00">mlir::python::BaseContext</text>
<text text-anchor="middle" x="83" y="-204.5" font-family="Helvetica,sans-Serif" font-size="10.00">Object</text>
</a>
</g>
</g>
<!-- Node1 -->
<g id="Node000001" class="node">
<title>Node1</title>
<g id="a_Node000001"><a xlink:href="classmlir_1_1python_1_1PyAffineExpr.html" target="_top" xlink:title="Wrapper around MlirAffineExpr. Affine expressions are owned by the context.">
<polygon fill="white" stroke="#666666" points="363.5,-389 219.5,-389 219.5,-370 363.5,-370 363.5,-389"/>
<text text-anchor="middle" x="291.5" y="-377" font-family="Helvetica,sans-Serif" font-size="10.00">mlir::python::PyAffineExpr</text>
</a>
</g>
</g>
<!-- Node0&#45;&gt;Node1 -->
<g id="edge1283_Node000000_Node000001" class="edge">
<title>Node0&#45;&gt;Node1</title>
<g id="a_edge1283_Node000000_Node000001"><a xlink:title=" ">
<path fill="none" stroke="#63b8ff" d="M96.13,-236.78C114.29,-270.47 151.84,-330.69 202,-361.5 207.48,-364.86 213.47,-367.61 219.67,-369.86"/>
<polygon fill="#63b8ff" stroke="#63b8ff" points="99.07,-234.86 91.33,-227.64 92.88,-238.12 99.07,-234.86"/>
</a>
</g>
</g>
<!-- Node2 -->
<g id="Node000002" class="node">
<title>Node2</title>
<g id="a_Node000002"><a xlink:href="classmlir_1_1python_1_1PyAffineMap.html" target="_top" xlink:title=" ">
<polygon fill="white" stroke="#666666" points="363,-352 220,-352 220,-333 363,-333 363,-352"/>
<text text-anchor="middle" x="291.5" y="-340" font-family="Helvetica,sans-Serif" font-size="10.00">mlir::python::PyAffineMap</text>
</a>
</g>
</g>
<!-- Node0&#45;&gt;Node2 -->
<g id="edge1284_Node000000_Node000002" class="edge">
<title>Node0&#45;&gt;Node2</title>
<g id="a_edge1284_Node000000_Node000002"><a xlink:title=" ">
<path fill="none" stroke="#63b8ff" d="M101.66,-235.75C122.64,-261.64 160.13,-302.7 202,-324.5 208.54,-327.9 215.66,-330.66 222.92,-332.9"/>
<polygon fill="#63b8ff" stroke="#63b8ff" points="104.15,-233.26 95.19,-227.6 98.67,-237.61 104.15,-233.26"/>
</a>
</g>
</g>
<!-- Node3 -->
<g id="Node000003" class="node">
<title>Node3</title>
<g id="a_Node000003"><a xlink:href="classmlir_1_1python_1_1PyAttribute.html" target="_top" xlink:title="Wrapper around the generic MlirAttribute.">
<polygon fill="white" stroke="#666666" points="360,-315 223,-315 223,-296 360,-296 360,-315"/>
<text text-anchor="middle" x="291.5" y="-303" font-family="Helvetica,sans-Serif" font-size="10.00">mlir::python::PyAttribute</text>
</a>
</g>
</g>
<!-- Node0&#45;&gt;Node3 -->
<g id="edge1285_Node000000_Node000003" class="edge">
<title>Node0&#45;&gt;Node3</title>
<g id="a_edge1285_Node000000_Node000003"><a xlink:title=" ">
<path fill="none" stroke="#63b8ff" d="M111.05,-233.77C134,-250.79 168.47,-273.97 202,-287.5 210.43,-290.9 219.59,-293.69 228.7,-295.96"/>
<polygon fill="#63b8ff" stroke="#63b8ff" points="112.93,-230.81 102.84,-227.59 108.72,-236.4 112.93,-230.81"/>
</a>
</g>
</g>
<!-- Node7 -->
<g id="Node000007" class="node">
<title>Node7</title>
<g id="a_Node000007"><a xlink:href="classmlir_1_1python_1_1PyDialectDescriptor.html" target="_top" xlink:title="Wrapper around an MlirDialect.">
<polygon fill="white" stroke="#666666" points="381,-278 202,-278 202,-259 381,-259 381,-278"/>
<text text-anchor="middle" x="291.5" y="-266" font-family="Helvetica,sans-Serif" font-size="10.00">mlir::python::PyDialectDescriptor</text>
</a>
</g>
</g>
<!-- Node0&#45;&gt;Node7 -->
<g id="edge1289_Node000000_Node000007" class="edge">
<title>Node0&#45;&gt;Node7</title>
<g id="a_edge1289_Node000000_Node000007"><a xlink:title=" ">
<path fill="none" stroke="#63b8ff" d="M136.51,-230.79C156.82,-237.5 180.35,-244.83 202,-250.5 213.83,-253.6 226.67,-256.48 238.8,-258.99"/>
<polygon fill="#63b8ff" stroke="#63b8ff" points="137.41,-227.4 126.82,-227.55 135.2,-234.04 137.41,-227.4"/>
</a>
</g>
</g>
<!-- Node8 -->
<g id="Node000008" class="node">
<title>Node8</title>
<g id="a_Node000008"><a xlink:href="classmlir_1_1python_1_1PyDialects.html" target="_top" xlink:title="User&#45;level object for accessing dialects with dotted syntax such as: ctx.dialect.std.">
<polygon fill="white" stroke="#666666" points="358.5,-241 224.5,-241 224.5,-222 358.5,-222 358.5,-241"/>
<text text-anchor="middle" x="291.5" y="-229" font-family="Helvetica,sans-Serif" font-size="10.00">mlir::python::PyDialects</text>
</a>
</g>
</g>
<!-- Node0&#45;&gt;Node8 -->
<g id="edge1290_Node000000_Node000008" class="edge">
<title>Node0&#45;&gt;Node8</title>
<g id="a_edge1290_Node000000_Node000008"><a xlink:title=" ">
<path fill="none" stroke="#63b8ff" d="M165.17,-219.97C184.73,-221.77 205.38,-223.67 224.17,-225.4"/>
<polygon fill="#63b8ff" stroke="#63b8ff" points="165.34,-216.47 155.07,-219.04 164.7,-223.44 165.34,-216.47"/>
</a>
</g>
</g>
<!-- Node9 -->
<g id="Node000009" class="node">
<title>Node9</title>
<g id="a_Node000009"><a xlink:href="classmlir_1_1python_1_1PyIntegerSet.html" target="_top" xlink:title=" ">
<polygon fill="white" stroke="#666666" points="363.5,-204 219.5,-204 219.5,-185 363.5,-185 363.5,-204"/>
<text text-anchor="middle" x="291.5" y="-192" font-family="Helvetica,sans-Serif" font-size="10.00">mlir::python::PyIntegerSet</text>
</a>
</g>
</g>
<!-- Node0&#45;&gt;Node9 -->
<g id="edge1291_Node000000_Node000009" class="edge">
<title>Node0&#45;&gt;Node9</title>
<g id="a_edge1291_Node000000_Node000009"><a xlink:title=" ">
<path fill="none" stroke="#63b8ff" d="M165.43,-205.4C183.23,-203.85 201.94,-202.22 219.3,-200.71"/>
<polygon fill="#63b8ff" stroke="#63b8ff" points="164.72,-201.95 155.07,-206.31 165.33,-208.92 164.72,-201.95"/>
</a>
</g>
</g>
<!-- Node10 -->
<g id="Node000010" class="node">
<title>Node10</title>
<g id="a_Node000010"><a xlink:href="classmlir_1_1python_1_1PyLocation.html" target="_top" xlink:title="Wrapper around an MlirLocation.">
<polygon fill="white" stroke="#666666" points="359,-167 224,-167 224,-148 359,-148 359,-167"/>
<text text-anchor="middle" x="291.5" y="-155" font-family="Helvetica,sans-Serif" font-size="10.00">mlir::python::PyLocation</text>
</a>
</g>
</g>
<!-- Node0&#45;&gt;Node10 -->
<g id="edge1292_Node000000_Node000010" class="edge">
<title>Node0&#45;&gt;Node10</title>
<g id="a_edge1292_Node000000_Node000010"><a xlink:title=" ">
<path fill="none" stroke="#63b8ff" d="M139.66,-194.46C159.27,-188.39 181.52,-181.81 202,-176.5 215.08,-173.11 229.36,-169.85 242.56,-167.02"/>
<polygon fill="#63b8ff" stroke="#63b8ff" points="138.48,-191.16 129.98,-197.48 140.57,-197.84 138.48,-191.16"/>
</a>
</g>
</g>
<!-- Node11 -->
<g id="Node000011" class="node">
<title>Node11</title>
<g id="a_Node000011"><a xlink:href="classmlir_1_1python_1_1PyModule.html" target="_top" xlink:title=" ">
<polygon fill="white" stroke="#666666" points="356.5,-130 226.5,-130 226.5,-111 356.5,-111 356.5,-130"/>
<text text-anchor="middle" x="291.5" y="-118" font-family="Helvetica,sans-Serif" font-size="10.00">mlir::python::PyModule</text>
</a>
</g>
</g>
<!-- Node0&#45;&gt;Node11 -->
<g id="edge1293_Node000000_Node000011" class="edge">
<title>Node0&#45;&gt;Node11</title>
<g id="a_edge1293_Node000000_Node000011"><a xlink:title=" ">
<path fill="none" stroke="#63b8ff" d="M111.5,-191.22C134.49,-174.47 168.75,-151.79 202,-138.5 210.44,-135.12 219.6,-132.35 228.72,-130.09"/>
<polygon fill="#63b8ff" stroke="#63b8ff" points="109.22,-188.56 103.27,-197.32 113.39,-194.18 109.22,-188.56"/>
</a>
</g>
</g>
<!-- Node12 -->
<g id="Node000012" class="node">
<title>Node12</title>
<g id="a_Node000012"><a xlink:href="classmlir_1_1python_1_1PyOperation.html" target="_top" xlink:title=" ">
<polygon fill="white" stroke="#666666" points="362.5,-56 220.5,-56 220.5,-37 362.5,-37 362.5,-56"/>
<text text-anchor="middle" x="291.5" y="-44" font-family="Helvetica,sans-Serif" font-size="10.00">mlir::python::PyOperation</text>
</a>
</g>
</g>
<!-- Node0&#45;&gt;Node12 -->
<g id="edge1294_Node000000_Node000012" class="edge">
<title>Node0&#45;&gt;Node12</title>
<g id="a_edge1294_Node000000_Node000012"><a xlink:title=" ">
<path fill="none" stroke="#63b8ff" d="M96.17,-188.38C114.38,-154.92 152,-95.1 202,-64.5 207.62,-61.06 213.77,-58.27 220.14,-56"/>
<polygon fill="#63b8ff" stroke="#63b8ff" points="92.95,-186.99 91.35,-197.46 99.13,-190.27 92.95,-186.99"/>
</a>
</g>
</g>
<!-- Node15 -->
<g id="Node000015" class="node">
<title>Node15</title>
<g id="a_Node000015"><a xlink:href="classmlir_1_1python_1_1PyType.html" target="_top" xlink:title="Wrapper around the generic MlirType.">
<polygon fill="white" stroke="#666666" points="349.5,-93 233.5,-93 233.5,-74 349.5,-74 349.5,-93"/>
<text text-anchor="middle" x="291.5" y="-81" font-family="Helvetica,sans-Serif" font-size="10.00">mlir::python::PyType</text>
</a>
</g>
</g>
<!-- Node0&#45;&gt;Node15 -->
<g id="edge1295_Node000000_Node000015" class="edge">
<title>Node0&#45;&gt;Node15</title>
<g id="a_edge1295_Node000000_Node000015"><a xlink:title=" ">
<path fill="none" stroke="#63b8ff" d="M102.04,-189.05C123.14,-163.37 160.49,-122.99 202,-101.5 211.61,-96.53 222.46,-92.93 233.2,-90.32"/>
<polygon fill="#63b8ff" stroke="#63b8ff" points="99.07,-187.16 95.53,-197.14 104.53,-191.54 99.07,-187.16"/>
</a>
</g>
</g>
<!-- Node4 -->
<g id="Node000004" class="node">
<title>Node4</title>
<g id="a_Node000004"><a xlink:href="classmlir_1_1python_1_1PyConcreteAttribute.html" target="_top" xlink:title=" ">
<polygon fill="white" stroke="#666666" points="582,-347.5 417,-347.5 417,-317.5 582,-317.5 582,-347.5"/>
<text text-anchor="start" x="425" y="-335.5" font-family="Helvetica,sans-Serif" font-size="10.00">mlir::python::PyConcrete</text>
<text text-anchor="middle" x="499.5" y="-324.5" font-family="Helvetica,sans-Serif" font-size="10.00">Attribute&lt; PyStringAttribute &gt;</text>
</a>
</g>
</g>
<!-- Node3&#45;&gt;Node4 -->
<g id="edge1286_Node000003_Node000004" class="edge">
<title>Node3&#45;&gt;Node4</title>
<g id="a_edge1286_Node000003_Node000004"><a xlink:title=" ">
<path fill="none" stroke="#63b8ff" d="M370.55,-315.73C385.65,-317.71 401.51,-319.79 416.73,-321.78"/>
<polygon fill="#63b8ff" stroke="#63b8ff" points="370.61,-312.21 360.24,-314.38 369.7,-319.15 370.61,-312.21"/>
</a>
</g>
</g>
<!-- Node6 -->
<g id="Node000006" class="node">
<title>Node6</title>
<g id="a_Node000006"><a xlink:href="classmlir_1_1python_1_1PyConcreteAttribute.html" target="_top" xlink:title="CRTP base classes for Python attributes that subclass Attribute and should be castable from it (i....">
<polygon fill="white" stroke="#666666" points="568,-299 431,-299 431,-258 568,-258 568,-299"/>
<text text-anchor="start" x="439" y="-287" font-family="Helvetica,sans-Serif" font-size="10.00">mlir::python::PyConcrete</text>
<text text-anchor="start" x="439" y="-276" font-family="Helvetica,sans-Serif" font-size="10.00">Attribute&lt; DerivedTy,</text>
<text text-anchor="middle" x="499.5" y="-265" font-family="Helvetica,sans-Serif" font-size="10.00"> BaseTy &gt;</text>
</a>
</g>
</g>
<!-- Node3&#45;&gt;Node6 -->
<g id="edge1288_Node000003_Node000006" class="edge">
<title>Node3&#45;&gt;Node6</title>
<g id="a_edge1288_Node000003_Node000006"><a xlink:title=" ">
<path fill="none" stroke="#63b8ff" d="M370.2,-295.32C390.11,-292.71 411.36,-289.92 430.72,-287.38"/>
<polygon fill="#63b8ff" stroke="#63b8ff" points="369.7,-291.85 360.24,-296.62 370.61,-298.79 369.7,-291.85"/>
</a>
</g>
</g>
<!-- Node5 -->
<g id="Node000005" class="node">
<title>Node5</title>
<g id="a_Node000005"><a xlink:href="classmlir_1_1python_1_1PyStringAttribute.html" target="_top" xlink:title=" ">
<polygon fill="white" stroke="#666666" points="783,-342 618,-342 618,-323 783,-323 783,-342"/>
<text text-anchor="middle" x="700.5" y="-330" font-family="Helvetica,sans-Serif" font-size="10.00">mlir::python::PyStringAttribute</text>
</a>
</g>
</g>
<!-- Node4&#45;&gt;Node5 -->
<g id="edge1287_Node000004_Node000005" class="edge">
<title>Node4&#45;&gt;Node5</title>
<g id="a_edge1287_Node000004_Node000005"><a xlink:title=" ">
<path fill="none" stroke="#63b8ff" d="M592.04,-332.5C600.63,-332.5 609.3,-332.5 617.79,-332.5"/>
<polygon fill="#63b8ff" stroke="#63b8ff" points="592.02,-329 582.02,-332.5 592.02,-336 592.02,-329"/>
</a>
</g>
</g>
<!-- Node16 -->
<g id="Node000016" class="node">
<title>Node16</title>
<g id="a_Node000016"><a xlink:href="classmlir_1_1python_1_1PyConcreteType.html" target="_top" xlink:title=" ">
<polygon fill="white" stroke="#666666" points="568,-122.5 431,-122.5 431,-92.5 568,-92.5 568,-122.5"/>
<text text-anchor="start" x="439" y="-110.5" font-family="Helvetica,sans-Serif" font-size="10.00">mlir::python::PyConcrete</text>
<text text-anchor="middle" x="499.5" y="-99.5" font-family="Helvetica,sans-Serif" font-size="10.00">Type&lt; PyShapedType &gt;</text>
</a>
</g>
</g>
<!-- Node15&#45;&gt;Node16 -->
<g id="edge1296_Node000015_Node000016" class="edge">
<title>Node15&#45;&gt;Node16</title>
<g id="a_edge1296_Node000015_Node000016"><a xlink:title=" ">
<path fill="none" stroke="#63b8ff" d="M359.84,-91.35C382.56,-93.99 407.92,-96.95 430.68,-99.6"/>
<polygon fill="#63b8ff" stroke="#63b8ff" points="359.95,-87.83 349.61,-90.15 359.14,-94.79 359.95,-87.83"/>
</a>
</g>
</g>
<!-- Node18 -->
<g id="Node000018" class="node">
<title>Node18</title>
<g id="a_Node000018"><a xlink:href="classmlir_1_1python_1_1PyConcreteType.html" target="_top" xlink:title="CRTP base classes for Python types that subclass Type and should be castable from it (i....">
<polygon fill="white" stroke="#666666" points="575,-74.5 424,-74.5 424,-44.5 575,-44.5 575,-74.5"/>
<text text-anchor="start" x="432" y="-62.5" font-family="Helvetica,sans-Serif" font-size="10.00">mlir::python::PyConcrete</text>
<text text-anchor="middle" x="499.5" y="-51.5" font-family="Helvetica,sans-Serif" font-size="10.00">Type&lt; DerivedTy, BaseTy &gt;</text>
</a>
</g>
</g>
<!-- Node15&#45;&gt;Node18 -->
<g id="edge1298_Node000015_Node000018" class="edge">
<title>Node15&#45;&gt;Node18</title>
<g id="a_edge1298_Node000015_Node000018"><a xlink:title=" ">
<path fill="none" stroke="#63b8ff" d="M359.79,-75.66C380.29,-73.27 402.94,-70.63 423.89,-68.19"/>
<polygon fill="#63b8ff" stroke="#63b8ff" points="359.14,-72.21 349.61,-76.85 359.95,-79.17 359.14,-72.21"/>
</a>
</g>
</g>
<!-- Node17 -->
<g id="Node000017" class="node">
<title>Node17</title>
<g id="a_Node000017"><a xlink:href="classmlir_1_1PyShapedType.html" target="_top" xlink:title="Shaped Type Interface &#45; ShapedType.">
<polygon fill="white" stroke="#666666" points="757,-117 644,-117 644,-98 757,-98 757,-117"/>
<text text-anchor="middle" x="700.5" y="-105" font-family="Helvetica,sans-Serif" font-size="10.00">mlir::PyShapedType</text>
</a>
</g>
</g>
<!-- Node16&#45;&gt;Node17 -->
<g id="edge1297_Node000016_Node000017" class="edge">
<title>Node16&#45;&gt;Node17</title>
<g id="a_edge1297_Node000016_Node000017"><a xlink:title=" ">
<path fill="none" stroke="#63b8ff" d="M578.42,-107.5C600.3,-107.5 623.64,-107.5 643.93,-107.5"/>
<polygon fill="#63b8ff" stroke="#63b8ff" points="578.15,-104 568.15,-107.5 578.15,-111 578.15,-104"/>
</a>
</g>
</g>
<!-- Node13 -->
<g id="Node000013" class="node">
<title>Node13</title>
<g id="a_Node000013"><a xlink:href="classmlir_1_1python_1_1PyOperationBase.html" target="_top" xlink:title="Base class for PyOperation and PyOpView which exposes the primary, user visible methods for manipulat...">
<polygon fill="white" stroke="#666666" points="166,-38 0,-38 0,-19 166,-19 166,-38"/>
<text text-anchor="middle" x="83" y="-26" font-family="Helvetica,sans-Serif" font-size="10.00">mlir::python::PyOperationBase</text>
</a>
</g>
</g>
<!-- Node13&#45;&gt;Node12 -->
<g id="edge1300_Node000013_Node000012" class="edge">
<title>Node13&#45;&gt;Node12</title>
<g id="a_edge1300_Node000013_Node000012"><a xlink:title=" ">
<path fill="none" stroke="#63b8ff" d="M176.34,-36.55C191.08,-37.83 206.11,-39.14 220.22,-40.37"/>
<polygon fill="#63b8ff" stroke="#63b8ff" points="176.47,-33.05 166.21,-35.67 175.87,-40.02 176.47,-33.05"/>
</a>
</g>
</g>
<!-- Node14 -->
<g id="Node000014" class="node">
<title>Node14</title>
<g id="a_Node000014"><a xlink:href="classmlir_1_1python_1_1PyOpView.html" target="_top" xlink:title="A PyOpView is equivalent to the C++ &quot;Op&quot; wrappers: these are the basis for providing more instance&#45;sp...">
<polygon fill="white" stroke="#666666" points="357,-19 226,-19 226,0 357,0 357,-19"/>
<text text-anchor="middle" x="291.5" y="-7" font-family="Helvetica,sans-Serif" font-size="10.00">mlir::python::PyOpView</text>
</a>
</g>
</g>
<!-- Node13&#45;&gt;Node14 -->
<g id="edge1299_Node000013_Node000014" class="edge">
<title>Node13&#45;&gt;Node14</title>
<g id="a_edge1299_Node000013_Node000014"><a xlink:title=" ">
<path fill="none" stroke="#63b8ff" d="M176.49,-19.99C193.12,-18.46 210.12,-16.9 225.75,-15.46"/>
<polygon fill="#63b8ff" stroke="#63b8ff" points="175.84,-16.53 166.21,-20.94 176.49,-23.51 175.84,-16.53"/>
</a>
</g>
</g>
</g>
</svg>
