<?xml version="1.0" encoding="UTF-8" standalone="no"?>
<!DOCTYPE svg PUBLIC "-//W3C//DTD SVG 1.1//EN"
 "http://www.w3.org/Graphics/SVG/1.1/DTD/svg11.dtd">
<!-- Generated by graphviz version 2.43.0 (0)
 -->
<!-- Title: Graphical Class Hierarchy Pages: 1 -->
<svg width="684pt" height="173pt"
 viewBox="0.00 0.00 684.00 172.50" xmlns="http://www.w3.org/2000/svg" xmlns:xlink="http://www.w3.org/1999/xlink">
<g id="graph0" class="graph" transform="scale(1 1) rotate(0) translate(4 168.5)">
<title>Graphical Class Hierarchy</title>
<!-- Node0 -->
<g id="Node000000" class="node">
<title>Node0</title>
<g id="a_Node000000"><a xlink:href="structmlir_1_1arm__sme_1_1detail_1_1ArmSMETileOpInterfaceInterfaceTraits_1_1Concept.html" target="_top" xlink:title=" ">
<polygon fill="white" stroke="#666666" points="182,-100 0,-100 0,-59 182,-59 182,-100"/>
<text text-anchor="start" x="8" y="-88" font-family="Helvetica,sans-Serif" font-size="10.00">mlir::arm_sme::detail</text>
<text text-anchor="start" x="8" y="-77" font-family="Helvetica,sans-Serif" font-size="10.00">::ArmSMETileOpInterfaceInterface</text>
<text text-anchor="middle" x="91" y="-66" font-family="Helvetica,sans-Serif" font-size="10.00">Traits::Concept</text>
</a>
</g>
</g>
<!-- Node1 -->
<g id="Node000001" class="node">
<title>Node1</title>
<g id="a_Node000001"><a xlink:href="classmlir_1_1arm__sme_1_1detail_1_1ArmSMETileOpInterfaceInterfaceTraits_1_1FallbackModel.html" target="_top" xlink:title=" ">
<polygon fill="white" stroke="#666666" points="433,-159 218,-159 218,-118 433,-118 433,-159"/>
<text text-anchor="start" x="226" y="-147" font-family="Helvetica,sans-Serif" font-size="10.00">mlir::arm_sme::detail</text>
<text text-anchor="start" x="226" y="-136" font-family="Helvetica,sans-Serif" font-size="10.00">::ArmSMETileOpInterfaceInterface</text>
<text text-anchor="middle" x="325.5" y="-125" font-family="Helvetica,sans-Serif" font-size="10.00">Traits::FallbackModel&lt; ConcreteModel &gt;</text>
</a>
</g>
</g>
<!-- Node0&#45;&gt;Node1 -->
<g id="edge607_Node000000_Node000001" class="edge">
<title>Node0&#45;&gt;Node1</title>
<g id="a_edge607_Node000000_Node000001"><a xlink:title=" ">
<path fill="none" stroke="#63b8ff" d="M182.72,-102.52C202.73,-107.6 223.8,-112.95 243.41,-117.92"/>
<polygon fill="#63b8ff" stroke="#63b8ff" points="183.54,-99.12 172.99,-100.05 181.82,-105.9 183.54,-99.12"/>
</a>
</g>
</g>
<!-- Node3 -->
<g id="Node000003" class="node">
<title>Node3</title>
<g id="a_Node000003"><a xlink:href="classmlir_1_1arm__sme_1_1detail_1_1ArmSMETileOpInterfaceInterfaceTraits_1_1FallbackModel.html" target="_top" xlink:title=" ">
<polygon fill="white" stroke="#666666" points="424.5,-100 226.5,-100 226.5,-59 424.5,-59 424.5,-100"/>
<text text-anchor="start" x="234.5" y="-88" font-family="Helvetica,sans-Serif" font-size="10.00">mlir::arm_sme::detail</text>
<text text-anchor="start" x="234.5" y="-77" font-family="Helvetica,sans-Serif" font-size="10.00">::ArmSMETileOpInterfaceInterface</text>
<text text-anchor="middle" x="325.5" y="-66" font-family="Helvetica,sans-Serif" font-size="10.00">Traits::FallbackModel&lt; ConcreteOp &gt;</text>
</a>
</g>
</g>
<!-- Node0&#45;&gt;Node3 -->
<g id="edge609_Node000000_Node000003" class="edge">
<title>Node0&#45;&gt;Node3</title>
<g id="a_edge609_Node000000_Node000003"><a xlink:title=" ">
<path fill="none" stroke="#63b8ff" d="M192.45,-79.5C203.65,-79.5 215.06,-79.5 226.23,-79.5"/>
<polygon fill="#63b8ff" stroke="#63b8ff" points="192.22,-76 182.22,-79.5 192.22,-83 192.22,-76"/>
</a>
</g>
</g>
<!-- Node4 -->
<g id="Node000004" class="node">
<title>Node4</title>
<g id="a_Node000004"><a xlink:href="classmlir_1_1arm__sme_1_1detail_1_1ArmSMETileOpInterfaceInterfaceTraits_1_1Model.html" target="_top" xlink:title=" ">
<polygon fill="white" stroke="#666666" points="416.5,-41 234.5,-41 234.5,0 416.5,0 416.5,-41"/>
<text text-anchor="start" x="242.5" y="-29" font-family="Helvetica,sans-Serif" font-size="10.00">mlir::arm_sme::detail</text>
<text text-anchor="start" x="242.5" y="-18" font-family="Helvetica,sans-Serif" font-size="10.00">::ArmSMETileOpInterfaceInterface</text>
<text text-anchor="middle" x="325.5" y="-7" font-family="Helvetica,sans-Serif" font-size="10.00">Traits::Model&lt; ConcreteOp &gt;</text>
</a>
</g>
</g>
<!-- Node0&#45;&gt;Node4 -->
<g id="edge610_Node000000_Node000004" class="edge">
<title>Node0&#45;&gt;Node4</title>
<g id="a_edge610_Node000000_Node000004"><a xlink:title=" ">
<path fill="none" stroke="#63b8ff" d="M182.72,-56.48C202.73,-51.4 223.8,-46.05 243.41,-41.08"/>
<polygon fill="#63b8ff" stroke="#63b8ff" points="181.82,-53.1 172.99,-58.95 183.54,-59.88 181.82,-53.1"/>
</a>
</g>
</g>
<!-- Node2 -->
<g id="Node000002" class="node">
<title>Node2</title>
<g id="a_Node000002"><a xlink:href="classmlir_1_1arm__sme_1_1detail_1_1ArmSMETileOpInterfaceInterfaceTraits_1_1ExternalModel.html" target="_top" xlink:title=" ">
<polygon fill="white" stroke="#666666" points="676,-164.5 469,-164.5 469,-112.5 676,-112.5 676,-164.5"/>
<text text-anchor="start" x="477" y="-152.5" font-family="Helvetica,sans-Serif" font-size="10.00">mlir::arm_sme::detail</text>
<text text-anchor="start" x="477" y="-141.5" font-family="Helvetica,sans-Serif" font-size="10.00">::ArmSMETileOpInterfaceInterface</text>
<text text-anchor="start" x="477" y="-130.5" font-family="Helvetica,sans-Serif" font-size="10.00">Traits::ExternalModel&lt; ConcreteModel,</text>
<text text-anchor="middle" x="572.5" y="-119.5" font-family="Helvetica,sans-Serif" font-size="10.00"> ConcreteOp &gt;</text>
</a>
</g>
</g>
<!-- Node1&#45;&gt;Node2 -->
<g id="edge608_Node000001_Node000002" class="edge">
<title>Node1&#45;&gt;Node2</title>
<g id="a_edge608_Node000001_Node000002"><a xlink:title=" ">
<path fill="none" stroke="#63b8ff" d="M443.3,-138.5C451.88,-138.5 460.5,-138.5 468.98,-138.5"/>
<polygon fill="#63b8ff" stroke="#63b8ff" points="443.25,-135 433.25,-138.5 443.25,-142 443.25,-135"/>
</a>
</g>
</g>
</g>
</svg>
