<?xml version="1.0" encoding="UTF-8" standalone="no"?>
<!DOCTYPE svg PUBLIC "-//W3C//DTD SVG 1.1//EN"
 "http://www.w3.org/Graphics/SVG/1.1/DTD/svg11.dtd">
<!-- Generated by graphviz version 2.43.0 (0)
 -->
<!-- Title: Graphical Class Hierarchy Pages: 1 -->
<svg width="578pt" height="98pt"
 viewBox="0.00 0.00 578.00 97.50" xmlns="http://www.w3.org/2000/svg" xmlns:xlink="http://www.w3.org/1999/xlink">
<g id="graph0" class="graph" transform="scale(1 1) rotate(0) translate(4 93.5)">
<title>Graphical Class Hierarchy</title>
<!-- Node0 -->
<g id="Node000000" class="node">
<title>Node0</title>
<g id="a_Node000000"><a xlink:title=" ">
<polygon fill="#e0e0e0" stroke="#999999" points="158,-68 0,-68 0,-16 158,-16 158,-68"/>
<text text-anchor="start" x="8" y="-56" font-family="Helvetica,sans-Serif" font-size="10.00">mlir::detail::Interface</text>
<text text-anchor="start" x="8" y="-45" font-family="Helvetica,sans-Serif" font-size="10.00">&lt; ConcreteType, Operation</text>
<text text-anchor="start" x="8" y="-34" font-family="Helvetica,sans-Serif" font-size="10.00"> *, Traits, Op&lt; ConcreteType</text>
<text text-anchor="middle" x="79" y="-23" font-family="Helvetica,sans-Serif" font-size="10.00"> &gt;, OpTrait::TraitBase &gt;::Trait</text>
</a>
</g>
</g>
<!-- Node1 -->
<g id="Node000001" class="node">
<title>Node1</title>
<g id="a_Node000001"><a xlink:href="structmlir_1_1arm__sme_1_1detail_1_1ArmSMETileOpInterfaceTrait.html" target="_top" xlink:title=" ">
<polygon fill="white" stroke="#666666" points="354,-89.5 194,-89.5 194,-48.5 354,-48.5 354,-89.5"/>
<text text-anchor="start" x="202" y="-77.5" font-family="Helvetica,sans-Serif" font-size="10.00">mlir::arm_sme::detail</text>
<text text-anchor="start" x="202" y="-66.5" font-family="Helvetica,sans-Serif" font-size="10.00">::ArmSMETileOpInterfaceTrait</text>
<text text-anchor="middle" x="274" y="-55.5" font-family="Helvetica,sans-Serif" font-size="10.00">&lt; ConcreteOp &gt;</text>
</a>
</g>
</g>
<!-- Node0&#45;&gt;Node1 -->
<g id="edge749_Node000000_Node000001" class="edge">
<title>Node0&#45;&gt;Node1</title>
<g id="a_edge749_Node000000_Node000001"><a xlink:title=" ">
<path fill="none" stroke="#63b8ff" d="M168.17,-54.33C176.69,-55.53 185.3,-56.73 193.72,-57.91"/>
<polygon fill="#63b8ff" stroke="#63b8ff" points="168.61,-50.86 158.22,-52.94 167.64,-57.79 168.61,-50.86"/>
</a>
</g>
</g>
<!-- Node3 -->
<g id="Node000003" class="node">
<title>Node3</title>
<g id="a_Node000003"><a xlink:href="structmlir_1_1tosa_1_1detail_1_1TosaOpTrait.html" target="_top" xlink:title=" ">
<polygon fill="white" stroke="#666666" points="353,-30 195,-30 195,0 353,0 353,-30"/>
<text text-anchor="start" x="203" y="-18" font-family="Helvetica,sans-Serif" font-size="10.00">mlir::tosa::detail</text>
<text text-anchor="middle" x="274" y="-7" font-family="Helvetica,sans-Serif" font-size="10.00">::TosaOpTrait&lt; ConcreteOp &gt;</text>
</a>
</g>
</g>
<!-- Node0&#45;&gt;Node3 -->
<g id="edge751_Node000000_Node000003" class="edge">
<title>Node0&#45;&gt;Node3</title>
<g id="a_edge751_Node000000_Node000003"><a xlink:title=" ">
<path fill="none" stroke="#63b8ff" d="M168.24,-29.66C177.16,-28.41 186.18,-27.15 194.98,-25.91"/>
<polygon fill="#63b8ff" stroke="#63b8ff" points="167.64,-26.21 158.22,-31.06 168.61,-33.14 167.64,-26.21"/>
</a>
</g>
</g>
<!-- Node2 -->
<g id="Node000002" class="node">
<title>Node2</title>
<g id="a_Node000002"><a xlink:href="structmlir_1_1arm__sme_1_1ArmSMETileOpInterface_1_1Trait.html" target="_top" xlink:title=" ">
<polygon fill="white" stroke="#666666" points="570,-84 390,-84 390,-54 570,-54 570,-84"/>
<text text-anchor="start" x="398" y="-72" font-family="Helvetica,sans-Serif" font-size="10.00">mlir::arm_sme::ArmSMETile</text>
<text text-anchor="middle" x="480" y="-61" font-family="Helvetica,sans-Serif" font-size="10.00">OpInterface::Trait&lt; ConcreteOp &gt;</text>
</a>
</g>
</g>
<!-- Node1&#45;&gt;Node2 -->
<g id="edge750_Node000001_Node000002" class="edge">
<title>Node1&#45;&gt;Node2</title>
<g id="a_edge750_Node000001_Node000002"><a xlink:title=" ">
<path fill="none" stroke="#63b8ff" d="M364.35,-69C372.77,-69 381.3,-69 389.71,-69"/>
<polygon fill="#63b8ff" stroke="#63b8ff" points="364.16,-65.5 354.16,-69 364.16,-72.5 364.16,-65.5"/>
</a>
</g>
</g>
<!-- Node4 -->
<g id="Node000004" class="node">
<title>Node4</title>
<g id="a_Node000004"><a xlink:href="structmlir_1_1tosa_1_1TosaOp_1_1Trait.html" target="_top" xlink:title=" ">
<polygon fill="white" stroke="#666666" points="541.5,-30 418.5,-30 418.5,0 541.5,0 541.5,-30"/>
<text text-anchor="start" x="426.5" y="-18" font-family="Helvetica,sans-Serif" font-size="10.00">mlir::tosa::TosaOp</text>
<text text-anchor="middle" x="480" y="-7" font-family="Helvetica,sans-Serif" font-size="10.00">::Trait&lt; ConcreteOp &gt;</text>
</a>
</g>
</g>
<!-- Node3&#45;&gt;Node4 -->
<g id="edge752_Node000003_Node000004" class="edge">
<title>Node3&#45;&gt;Node4</title>
<g id="a_edge752_Node000003_Node000004"><a xlink:title=" ">
<path fill="none" stroke="#63b8ff" d="M363.49,-15C382.01,-15 401.12,-15 418.35,-15"/>
<polygon fill="#63b8ff" stroke="#63b8ff" points="363.29,-11.5 353.29,-15 363.29,-18.5 363.29,-11.5"/>
</a>
</g>
</g>
</g>
</svg>
