<?xml version="1.0" encoding="UTF-8" standalone="no"?>
<!DOCTYPE svg PUBLIC "-//W3C//DTD SVG 1.1//EN"
 "http://www.w3.org/Graphics/SVG/1.1/DTD/svg11.dtd">
<!-- Generated by graphviz version 2.43.0 (0)
 -->
<!-- Title: Graphical Class Hierarchy Pages: 1 -->
<svg width="276pt" height="285pt"
 viewBox="0.00 0.00 276.00 285.00" xmlns="http://www.w3.org/2000/svg" xmlns:xlink="http://www.w3.org/1999/xlink">
<g id="graph0" class="graph" transform="scale(1 1) rotate(0) translate(4 281)">
<title>Graphical Class Hierarchy</title>
<!-- Node969 -->
<g id="node1" class="node">
<title>Node969</title>
<g id="a_node1"><a xlink:title=" ">
<polygon fill="none" stroke="#bfbfbf" points="0,-145 0,-164 89,-164 89,-145 0,-145"/>
<text text-anchor="middle" x="44.5" y="-152" font-family="Helvetica,sans-Serif" font-size="10.00">std::false_type</text>
</a>
</g>
</g>
<!-- Node0 -->
<g id="node2" class="node">
<title>Node0</title>
<g id="a_node2"><a xlink:href="structmlir_1_1detail_1_1is__complex__t.html" target="_top" xlink:title="Type trait detector that checks if a given type T is a complex type.">
<polygon fill="none" stroke="black" points="131,-246.5 131,-276.5 262,-276.5 262,-246.5 131,-246.5"/>
<text text-anchor="start" x="139" y="-264.5" font-family="Helvetica,sans-Serif" font-size="10.00">mlir::detail::is_complex</text>
<text text-anchor="middle" x="196.5" y="-253.5" font-family="Helvetica,sans-Serif" font-size="10.00">_t&lt; T &gt;</text>
</a>
</g>
</g>
<!-- Node969&#45;&gt;Node0 -->
<g id="edge1" class="edge">
<title>Node969&#45;&gt;Node0</title>
<path fill="none" stroke="midnightblue" d="M58.74,-172.38C73.19,-190.77 97.9,-219.1 125,-236.5 130.9,-240.29 137.45,-243.59 144.11,-246.45"/>
<polygon fill="midnightblue" stroke="midnightblue" points="61.37,-170.06 52.51,-164.25 55.81,-174.32 61.37,-170.06"/>
</g>
<!-- Node971 -->
<g id="node3" class="node">
<title>Node971</title>
<g id="a_node3"><a xlink:href="structmlir_1_1detail_1_1is__pair.html" target="_top" xlink:title=" ">
<polygon fill="none" stroke="black" points="128,-208 128,-227 265,-227 265,-208 128,-208"/>
<text text-anchor="middle" x="196.5" y="-215" font-family="Helvetica,sans-Serif" font-size="10.00">mlir::detail::is_pair&lt; T &gt;</text>
</a>
</g>
</g>
<!-- Node969&#45;&gt;Node971 -->
<g id="edge2" class="edge">
<title>Node969&#45;&gt;Node971</title>
<path fill="none" stroke="midnightblue" d="M69.05,-169.52C84.49,-178.86 105.38,-190.56 125,-198.5 134.05,-202.16 144.03,-205.34 153.57,-207.99"/>
<polygon fill="midnightblue" stroke="midnightblue" points="70.55,-166.33 60.2,-164.06 66.88,-172.29 70.55,-166.33"/>
</g>
<!-- Node972 -->
<g id="node4" class="node">
<title>Node972</title>
<g id="a_node4"><a xlink:href="structmlir_1_1detail_1_1is__tuple.html" target="_top" xlink:title=" ">
<polygon fill="none" stroke="black" points="125,-170 125,-189 268,-189 268,-170 125,-170"/>
<text text-anchor="middle" x="196.5" y="-177" font-family="Helvetica,sans-Serif" font-size="10.00">mlir::detail::is_tuple&lt; T &gt;</text>
</a>
</g>
</g>
<!-- Node969&#45;&gt;Node972 -->
<g id="edge3" class="edge">
<title>Node969&#45;&gt;Node972</title>
<path fill="none" stroke="midnightblue" d="M99.23,-163.45C111.89,-165.57 125.44,-167.82 138.25,-169.96"/>
<polygon fill="midnightblue" stroke="midnightblue" points="99.73,-159.99 89.29,-161.8 98.58,-166.89 99.73,-159.99"/>
</g>
<!-- Node973 -->
<g id="node5" class="node">
<title>Node973</title>
<g id="a_node5"><a xlink:href="structmlir_1_1query_1_1matcher_1_1has__bound__match.html" target="_top" xlink:title=" ">
<polygon fill="none" stroke="black" points="131,-110 131,-151 262,-151 262,-110 131,-110"/>
<text text-anchor="start" x="139" y="-139" font-family="Helvetica,sans-Serif" font-size="10.00">mlir::query::matcher</text>
<text text-anchor="start" x="139" y="-128" font-family="Helvetica,sans-Serif" font-size="10.00">::has_bound_match&lt; T,</text>
<text text-anchor="middle" x="196.5" y="-117" font-family="Helvetica,sans-Serif" font-size="10.00"> typename &gt;</text>
</a>
</g>
</g>
<!-- Node969&#45;&gt;Node973 -->
<g id="edge4" class="edge">
<title>Node969&#45;&gt;Node973</title>
<path fill="none" stroke="midnightblue" d="M99.27,-145.9C109.47,-144.26 120.25,-142.54 130.75,-140.86"/>
<polygon fill="midnightblue" stroke="midnightblue" points="98.61,-142.46 89.29,-147.49 99.72,-149.37 98.61,-142.46"/>
</g>
<!-- Node974 -->
<g id="node6" class="node">
<title>Node974</title>
<g id="a_node6"><a xlink:href="structmlir_1_1query_1_1matcher_1_1has__simple__match.html" target="_top" xlink:title=" ">
<polygon fill="none" stroke="black" points="129.5,-50 129.5,-91 263.5,-91 263.5,-50 129.5,-50"/>
<text text-anchor="start" x="137.5" y="-79" font-family="Helvetica,sans-Serif" font-size="10.00">mlir::query::matcher</text>
<text text-anchor="start" x="137.5" y="-68" font-family="Helvetica,sans-Serif" font-size="10.00">::has_simple_match&lt; T,</text>
<text text-anchor="middle" x="196.5" y="-57" font-family="Helvetica,sans-Serif" font-size="10.00"> typename &gt;</text>
</a>
</g>
</g>
<!-- Node969&#45;&gt;Node974 -->
<g id="edge5" class="edge">
<title>Node969&#45;&gt;Node974</title>
<path fill="none" stroke="midnightblue" d="M66.35,-138.69C81.98,-127.25 104.19,-111.86 125,-100.5 130.96,-97.25 137.34,-94.11 143.74,-91.15"/>
<polygon fill="midnightblue" stroke="midnightblue" points="63.9,-136.14 57.96,-144.91 68.07,-141.76 63.9,-136.14"/>
</g>
<!-- Node975 -->
<g id="node7" class="node">
<title>Node975</title>
<g id="a_node7"><a xlink:href="structmlir_1_1sparse__tensor_1_1detail_1_1is__complex.html" target="_top" xlink:title=" ">
<polygon fill="none" stroke="black" points="126.5,-0.5 126.5,-30.5 266.5,-30.5 266.5,-0.5 126.5,-0.5"/>
<text text-anchor="start" x="134.5" y="-18.5" font-family="Helvetica,sans-Serif" font-size="10.00">mlir::sparse_tensor</text>
<text text-anchor="middle" x="196.5" y="-7.5" font-family="Helvetica,sans-Serif" font-size="10.00">::detail::is_complex&lt; T &gt;</text>
</a>
</g>
</g>
<!-- Node969&#45;&gt;Node975 -->
<g id="edge6" class="edge">
<title>Node969&#45;&gt;Node975</title>
<path fill="none" stroke="midnightblue" d="M54.09,-135.51C66.38,-110.36 91.27,-66.21 125,-40.5 130.06,-36.64 135.77,-33.35 141.69,-30.54"/>
<polygon fill="midnightblue" stroke="midnightblue" points="50.84,-134.18 49.74,-144.72 57.17,-137.17 50.84,-134.18"/>
</g>
</g>
</svg>
