<?xml version="1.0" encoding="UTF-8" standalone="no"?>
<!DOCTYPE svg PUBLIC "-//W3C//DTD SVG 1.1//EN"
 "http://www.w3.org/Graphics/SVG/1.1/DTD/svg11.dtd">
<!-- Generated by graphviz version 2.43.0 (0)
 -->
<!-- Title: Graphical Class Hierarchy Pages: 1 -->
<svg width="292pt" height="249pt"
 viewBox="0.00 0.00 292.00 249.00" xmlns="http://www.w3.org/2000/svg" xmlns:xlink="http://www.w3.org/1999/xlink">
<g id="graph0" class="graph" transform="scale(1 1) rotate(0) translate(4 245)">
<title>Graphical Class Hierarchy</title>
<!-- Node0 -->
<g id="Node000000" class="node">
<title>Node0</title>
<g id="a_Node000000"><a xlink:href="classllvm_1_1detail_1_1indexed__accessor__range__base.html" target="_top" xlink:title=" ">
<polygon fill="white" stroke="#666666" points="126,-135.5 0,-135.5 0,-105.5 126,-105.5 126,-135.5"/>
<text text-anchor="start" x="8" y="-123.5" font-family="Helvetica,sans-Serif" font-size="10.00">llvm::detail::indexed</text>
<text text-anchor="middle" x="63" y="-112.5" font-family="Helvetica,sans-Serif" font-size="10.00">_accessor_range_base</text>
</a>
</g>
</g>
<!-- Node1 -->
<g id="Node000001" class="node">
<title>Node1</title>
<g id="a_Node000001"><a xlink:href="classmlir_1_1BlockRange.html" target="_top" xlink:title="This class provides an abstraction over the different types of ranges over Blocks.">
<polygon fill="white" stroke="#666666" points="273,-241 173,-241 173,-222 273,-222 273,-241"/>
<text text-anchor="middle" x="223" y="-229" font-family="Helvetica,sans-Serif" font-size="10.00">mlir::BlockRange</text>
</a>
</g>
</g>
<!-- Node0&#45;&gt;Node1 -->
<g id="edge481_Node000000_Node000001" class="edge">
<title>Node0&#45;&gt;Node1</title>
<g id="a_edge481_Node000000_Node000001"><a xlink:title=" ">
<path fill="none" stroke="#63b8ff" d="M82.6,-143.48C100.78,-164.53 130.29,-195.12 162,-213.5 167.83,-216.88 174.36,-219.68 180.9,-221.98"/>
<polygon fill="#63b8ff" stroke="#63b8ff" points="85.11,-141.03 75.98,-135.65 79.76,-145.55 85.11,-141.03"/>
</a>
</g>
</g>
<!-- Node2 -->
<g id="Node000002" class="node">
<title>Node2</title>
<g id="a_Node000002"><a xlink:href="classmlir_1_1OperandRange.html" target="_top" xlink:title="This class implements the operand iterators for the Operation class.">
<polygon fill="white" stroke="#666666" points="280,-204 166,-204 166,-185 280,-185 280,-204"/>
<text text-anchor="middle" x="223" y="-192" font-family="Helvetica,sans-Serif" font-size="10.00">mlir::OperandRange</text>
</a>
</g>
</g>
<!-- Node0&#45;&gt;Node2 -->
<g id="edge482_Node000000_Node000002" class="edge">
<title>Node0&#45;&gt;Node2</title>
<g id="a_edge482_Node000000_Node000002"><a xlink:title=" ">
<path fill="none" stroke="#63b8ff" d="M95.69,-141.07C114.43,-152.6 138.94,-166.61 162,-176.5 169.4,-179.67 177.53,-182.52 185.36,-184.95"/>
<polygon fill="#63b8ff" stroke="#63b8ff" points="97.32,-137.96 86.99,-135.64 93.62,-143.9 97.32,-137.96"/>
</a>
</g>
</g>
<!-- Node3 -->
<g id="Node000003" class="node">
<title>Node3</title>
<g id="a_Node000003"><a xlink:href="classmlir_1_1RegionRange.html" target="_top" xlink:title="This class provides an abstraction over the different types of ranges over Regions.">
<polygon fill="white" stroke="#666666" points="276.5,-167 169.5,-167 169.5,-148 276.5,-148 276.5,-167"/>
<text text-anchor="middle" x="223" y="-155" font-family="Helvetica,sans-Serif" font-size="10.00">mlir::RegionRange</text>
</a>
</g>
</g>
<!-- Node0&#45;&gt;Node3 -->
<g id="edge483_Node000000_Node000003" class="edge">
<title>Node0&#45;&gt;Node3</title>
<g id="a_edge483_Node000000_Node000003"><a xlink:title=" ">
<path fill="none" stroke="#63b8ff" d="M136.49,-137.48C151.89,-141.08 167.63,-144.77 181.33,-147.98"/>
<polygon fill="#63b8ff" stroke="#63b8ff" points="136.98,-134 126.45,-135.12 135.38,-140.81 136.98,-134"/>
</a>
</g>
</g>
<!-- Node4 -->
<g id="Node000004" class="node">
<title>Node4</title>
<g id="a_Node000004"><a xlink:href="classmlir_1_1ResultRange.html" target="_top" xlink:title="This class implements the result iterators for the Operation class.">
<polygon fill="white" stroke="#666666" points="275,-130 171,-130 171,-111 275,-111 275,-130"/>
<text text-anchor="middle" x="223" y="-118" font-family="Helvetica,sans-Serif" font-size="10.00">mlir::ResultRange</text>
</a>
</g>
</g>
<!-- Node0&#45;&gt;Node4 -->
<g id="edge484_Node000000_Node000004" class="edge">
<title>Node0&#45;&gt;Node4</title>
<g id="a_edge484_Node000000_Node000004"><a xlink:title=" ">
<path fill="none" stroke="#63b8ff" d="M136.51,-120.5C148.05,-120.5 159.77,-120.5 170.68,-120.5"/>
<polygon fill="#63b8ff" stroke="#63b8ff" points="136.45,-117 126.45,-120.5 136.45,-124 136.45,-117"/>
</a>
</g>
</g>
<!-- Node5 -->
<g id="Node000005" class="node">
<title>Node5</title>
<g id="a_Node000005"><a xlink:href="classmlir_1_1SuccessorRange.html" target="_top" xlink:title="This class implements the successor iterators for Block.">
<polygon fill="white" stroke="#666666" points="284,-93 162,-93 162,-74 284,-74 284,-93"/>
<text text-anchor="middle" x="223" y="-81" font-family="Helvetica,sans-Serif" font-size="10.00">mlir::SuccessorRange</text>
</a>
</g>
</g>
<!-- Node0&#45;&gt;Node5 -->
<g id="edge485_Node000000_Node000005" class="edge">
<title>Node0&#45;&gt;Node5</title>
<g id="a_edge485_Node000000_Node000005"><a xlink:title=" ">
<path fill="none" stroke="#63b8ff" d="M136.49,-103.52C151.89,-99.92 167.63,-96.23 181.33,-93.02"/>
<polygon fill="#63b8ff" stroke="#63b8ff" points="135.38,-100.19 126.45,-105.88 136.98,-107 135.38,-100.19"/>
</a>
</g>
</g>
<!-- Node6 -->
<g id="Node000006" class="node">
<title>Node6</title>
<g id="a_Node000006"><a xlink:href="classmlir_1_1TypeRange.html" target="_top" xlink:title="This class provides an abstraction over the various different ranges of value types.">
<polygon fill="white" stroke="#666666" points="270.5,-56 175.5,-56 175.5,-37 270.5,-37 270.5,-56"/>
<text text-anchor="middle" x="223" y="-44" font-family="Helvetica,sans-Serif" font-size="10.00">mlir::TypeRange</text>
</a>
</g>
</g>
<!-- Node0&#45;&gt;Node6 -->
<g id="edge486_Node000000_Node000006" class="edge">
<title>Node0&#45;&gt;Node6</title>
<g id="a_edge486_Node000000_Node000006"><a xlink:title=" ">
<path fill="none" stroke="#63b8ff" d="M96.55,-100.01C115.23,-88.82 139.39,-75.3 162,-65.5 170.12,-61.98 179.11,-58.79 187.6,-56.06"/>
<polygon fill="#63b8ff" stroke="#63b8ff" points="94.59,-97.1 87.86,-105.28 98.22,-103.09 94.59,-97.1"/>
</a>
</g>
</g>
<!-- Node7 -->
<g id="Node000007" class="node">
<title>Node7</title>
<g id="a_Node000007"><a xlink:href="classmlir_1_1ValueRange.html" target="_top" xlink:title="This class provides an abstraction over the different types of ranges over Values.">
<polygon fill="white" stroke="#666666" points="273,-19 173,-19 173,0 273,0 273,-19"/>
<text text-anchor="middle" x="223" y="-7" font-family="Helvetica,sans-Serif" font-size="10.00">mlir::ValueRange</text>
</a>
</g>
</g>
<!-- Node0&#45;&gt;Node7 -->
<g id="edge487_Node000000_Node000007" class="edge">
<title>Node0&#45;&gt;Node7</title>
<g id="a_edge487_Node000000_Node000007"><a xlink:title=" ">
<path fill="none" stroke="#63b8ff" d="M83.02,-97.53C101.31,-76.81 130.72,-46.84 162,-28.5 168.41,-24.74 175.65,-21.64 182.82,-19.11"/>
<polygon fill="#63b8ff" stroke="#63b8ff" points="80.24,-95.39 76.35,-105.25 85.54,-99.97 80.24,-95.39"/>
</a>
</g>
</g>
</g>
</svg>
