<?xml version="1.0" encoding="UTF-8" standalone="no"?>
<!DOCTYPE svg PUBLIC "-//W3C//DTD SVG 1.1//EN"
 "http://www.w3.org/Graphics/SVG/1.1/DTD/svg11.dtd">
<!-- Generated by graphviz version 2.43.0 (0)
 -->
<!-- Title: Graphical Class Hierarchy Pages: 1 -->
<svg width="568pt" height="366pt"
 viewBox="0.00 0.00 568.00 366.00" xmlns="http://www.w3.org/2000/svg" xmlns:xlink="http://www.w3.org/1999/xlink">
<g id="graph0" class="graph" transform="scale(1 1) rotate(0) translate(4 362)">
<title>Graphical Class Hierarchy</title>
<!-- Node0 -->
<g id="Node000000" class="node">
<title>Node0</title>
<g id="a_Node000000"><a xlink:title=" ">
<polygon fill="#e0e0e0" stroke="#999999" points="132,-172 0,-172 0,-142 132,-142 132,-172"/>
<text text-anchor="start" x="8" y="-160" font-family="Helvetica,sans-Serif" font-size="10.00">BufferizableOpInterface</text>
<text text-anchor="middle" x="66" y="-149" font-family="Helvetica,sans-Serif" font-size="10.00">::ExternalModel</text>
</a>
</g>
</g>
<!-- Node1 -->
<g id="Node000001" class="node">
<title>Node1</title>
<g id="a_Node000001"><a xlink:href="structmlir_1_1bufferization_1_1OpWithUnstructuredControlFlowBufferizableOpInterfaceExternalModel.html" target="_top" xlink:title=" ">
<polygon fill="white" stroke="#666666" points="369,-358 173,-358 173,-306 369,-306 369,-358"/>
<text text-anchor="start" x="181" y="-346" font-family="Helvetica,sans-Serif" font-size="10.00">mlir::bufferization</text>
<text text-anchor="start" x="181" y="-335" font-family="Helvetica,sans-Serif" font-size="10.00">::OpWithUnstructuredControl</text>
<text text-anchor="start" x="181" y="-324" font-family="Helvetica,sans-Serif" font-size="10.00">FlowBufferizableOpInterfaceExternal</text>
<text text-anchor="middle" x="271" y="-313" font-family="Helvetica,sans-Serif" font-size="10.00">Model&lt; FuncOpInterface, FuncOp &gt;</text>
</a>
</g>
</g>
<!-- Node0&#45;&gt;Node1 -->
<g id="edge8_Node000000_Node000001" class="edge">
<title>Node0&#45;&gt;Node1</title>
<g id="a_edge8_Node000000_Node000001"><a xlink:title=" ">
<path fill="none" stroke="#63b8ff" d="M78.52,-181.25C94.45,-212.33 126.08,-265.91 168,-297 172.36,-300.23 177.04,-303.19 181.92,-305.88"/>
<polygon fill="#63b8ff" stroke="#63b8ff" points="81.5,-179.38 73.9,-172 75.24,-182.51 81.5,-179.38"/>
</a>
</g>
</g>
<!-- Node3 -->
<g id="Node000003" class="node">
<title>Node3</title>
<g id="a_Node000003"><a xlink:href="structmlir_1_1bufferization_1_1BranchOpBufferizableOpInterfaceExternalModel.html" target="_top" xlink:title="A template that provides a default implementation of getAliasingValues for ops that implement the Bra...">
<polygon fill="white" stroke="#666666" points="363.5,-288 178.5,-288 178.5,-236 363.5,-236 363.5,-288"/>
<text text-anchor="start" x="186.5" y="-276" font-family="Helvetica,sans-Serif" font-size="10.00">mlir::bufferization</text>
<text text-anchor="start" x="186.5" y="-265" font-family="Helvetica,sans-Serif" font-size="10.00">::BranchOpBufferizableOpInterface</text>
<text text-anchor="start" x="186.5" y="-254" font-family="Helvetica,sans-Serif" font-size="10.00">ExternalModel&lt; ConcreteModel,</text>
<text text-anchor="middle" x="271" y="-243" font-family="Helvetica,sans-Serif" font-size="10.00"> ConcreteOp &gt;</text>
</a>
</g>
</g>
<!-- Node0&#45;&gt;Node3 -->
<g id="edge10_Node000000_Node000003" class="edge">
<title>Node0&#45;&gt;Node3</title>
<g id="a_edge10_Node000000_Node000003"><a xlink:title=" ">
<path fill="none" stroke="#63b8ff" d="M93.27,-178.23C112.95,-193.35 141.01,-213.35 168,-227 174.26,-230.17 180.88,-233.16 187.62,-235.96"/>
<polygon fill="#63b8ff" stroke="#63b8ff" points="95.42,-175.46 85.38,-172.07 91.11,-180.98 95.42,-175.46"/>
</a>
</g>
</g>
<!-- Node4 -->
<g id="Node000004" class="node">
<title>Node4</title>
<g id="a_Node000004"><a xlink:href="structmlir_1_1bufferization_1_1DstBufferizableOpInterfaceExternalModel.html" target="_top" xlink:title="Bufferizable ops that implement the DestinationStyleOpInterface can use this external model base clas...">
<polygon fill="white" stroke="#666666" points="358.5,-218 183.5,-218 183.5,-166 358.5,-166 358.5,-218"/>
<text text-anchor="start" x="191.5" y="-206" font-family="Helvetica,sans-Serif" font-size="10.00">mlir::bufferization</text>
<text text-anchor="start" x="191.5" y="-195" font-family="Helvetica,sans-Serif" font-size="10.00">::DstBufferizableOpInterface</text>
<text text-anchor="start" x="191.5" y="-184" font-family="Helvetica,sans-Serif" font-size="10.00">ExternalModel&lt; ConcreteModel,</text>
<text text-anchor="middle" x="271" y="-173" font-family="Helvetica,sans-Serif" font-size="10.00"> ConcreteOp &gt;</text>
</a>
</g>
</g>
<!-- Node0&#45;&gt;Node4 -->
<g id="edge11_Node000000_Node000004" class="edge">
<title>Node0&#45;&gt;Node4</title>
<g id="a_edge11_Node000000_Node000004"><a xlink:title=" ">
<path fill="none" stroke="#63b8ff" d="M142.2,-169.96C155.63,-172.28 169.72,-174.71 183.45,-177.08"/>
<polygon fill="#63b8ff" stroke="#63b8ff" points="142.52,-166.47 132.07,-168.22 141.33,-173.37 142.52,-166.47"/>
</a>
</g>
</g>
<!-- Node5 -->
<g id="Node000005" class="node">
<title>Node5</title>
<g id="a_Node000005"><a xlink:href="structmlir_1_1bufferization_1_1OpWithUnstructuredControlFlowBufferizableOpInterfaceExternalModel.html" target="_top" xlink:title="A template that provides a default implementation of getAliasingOpOperands for ops that support unstr...">
<polygon fill="white" stroke="#666666" points="374,-148 168,-148 168,-96 374,-96 374,-148"/>
<text text-anchor="start" x="176" y="-136" font-family="Helvetica,sans-Serif" font-size="10.00">mlir::bufferization</text>
<text text-anchor="start" x="176" y="-125" font-family="Helvetica,sans-Serif" font-size="10.00">::OpWithUnstructuredControl</text>
<text text-anchor="start" x="176" y="-114" font-family="Helvetica,sans-Serif" font-size="10.00">FlowBufferizableOpInterfaceExternal</text>
<text text-anchor="middle" x="271" y="-103" font-family="Helvetica,sans-Serif" font-size="10.00">Model&lt; ConcreteModel, ConcreteOp &gt;</text>
</a>
</g>
</g>
<!-- Node0&#45;&gt;Node5 -->
<g id="edge12_Node000000_Node000005" class="edge">
<title>Node0&#45;&gt;Node5</title>
<g id="a_edge12_Node000000_Node000005"><a xlink:title=" ">
<path fill="none" stroke="#63b8ff" d="M142.19,-144.04C150.6,-142.59 159.28,-141.09 167.96,-139.59"/>
<polygon fill="#63b8ff" stroke="#63b8ff" points="141.33,-140.63 132.07,-145.78 142.52,-147.53 141.33,-140.63"/>
</a>
</g>
</g>
<!-- Node6 -->
<g id="Node000006" class="node">
<title>Node6</title>
<g id="a_Node000006"><a xlink:href="structmlir_1_1bufferization_1_1func__ext_1_1CallOpInterface.html" target="_top" xlink:title=" ">
<polygon fill="white" stroke="#666666" points="344,-78 198,-78 198,-48 344,-48 344,-78"/>
<text text-anchor="start" x="206" y="-66" font-family="Helvetica,sans-Serif" font-size="10.00">mlir::bufferization</text>
<text text-anchor="middle" x="271" y="-55" font-family="Helvetica,sans-Serif" font-size="10.00">::func_ext::CallOpInterface</text>
</a>
</g>
</g>
<!-- Node0&#45;&gt;Node6 -->
<g id="edge13_Node000000_Node000006" class="edge">
<title>Node0&#45;&gt;Node6</title>
<g id="a_edge13_Node000000_Node000006"><a xlink:title=" ">
<path fill="none" stroke="#63b8ff" d="M92.17,-135.54C111.68,-119.93 140.03,-99.44 168,-87 177.39,-82.82 187.61,-79.32 197.82,-76.4"/>
<polygon fill="#63b8ff" stroke="#63b8ff" points="89.91,-132.86 84.37,-141.89 94.33,-138.28 89.91,-132.86"/>
</a>
</g>
</g>
<!-- Node7 -->
<g id="Node000007" class="node">
<title>Node7</title>
<g id="a_Node000007"><a xlink:href="structmlir_1_1bufferization_1_1func__ext_1_1ReturnOpInterface.html" target="_top" xlink:title=" ">
<polygon fill="white" stroke="#666666" points="351,-30 191,-30 191,0 351,0 351,-30"/>
<text text-anchor="start" x="199" y="-18" font-family="Helvetica,sans-Serif" font-size="10.00">mlir::bufferization</text>
<text text-anchor="middle" x="271" y="-7" font-family="Helvetica,sans-Serif" font-size="10.00">::func_ext::ReturnOpInterface</text>
</a>
</g>
</g>
<!-- Node0&#45;&gt;Node7 -->
<g id="edge14_Node000000_Node000007" class="edge">
<title>Node0&#45;&gt;Node7</title>
<g id="a_edge14_Node000000_Node000007"><a xlink:title=" ">
<path fill="none" stroke="#63b8ff" d="M81.1,-132.76C98.17,-105.64 129.47,-62.46 168,-39 175.07,-34.69 182.85,-31.16 190.86,-28.26"/>
<polygon fill="#63b8ff" stroke="#63b8ff" points="77.91,-131.27 75.67,-141.62 83.88,-134.92 77.91,-131.27"/>
</a>
</g>
</g>
<!-- Node2 -->
<g id="Node000002" class="node">
<title>Node2</title>
<g id="a_Node000002"><a xlink:href="structmlir_1_1bufferization_1_1func__ext_1_1FuncOpInterface.html" target="_top" xlink:title=" ">
<polygon fill="white" stroke="#666666" points="560,-347 410,-347 410,-317 560,-317 560,-347"/>
<text text-anchor="start" x="418" y="-335" font-family="Helvetica,sans-Serif" font-size="10.00">mlir::bufferization</text>
<text text-anchor="middle" x="485" y="-324" font-family="Helvetica,sans-Serif" font-size="10.00">::func_ext::FuncOpInterface</text>
</a>
</g>
</g>
<!-- Node1&#45;&gt;Node2 -->
<g id="edge9_Node000001_Node000002" class="edge">
<title>Node1&#45;&gt;Node2</title>
<g id="a_edge9_Node000001_Node000002"><a xlink:title=" ">
<path fill="none" stroke="#63b8ff" d="M379.01,-332C389.45,-332 399.88,-332 409.89,-332"/>
<polygon fill="#63b8ff" stroke="#63b8ff" points="379,-328.5 369,-332 379,-335.5 379,-328.5"/>
</a>
</g>
</g>
</g>
</svg>
