<?xml version="1.0" encoding="UTF-8" standalone="no"?>
<!DOCTYPE svg PUBLIC "-//W3C//DTD SVG 1.1//EN"
 "http://www.w3.org/Graphics/SVG/1.1/DTD/svg11.dtd">
<!-- Generated by graphviz version 2.43.0 (0)
 -->
<!-- Title: Graphical Class Hierarchy Pages: 1 -->
<svg width="350pt" height="703pt"
 viewBox="0.00 0.00 350.00 703.00" xmlns="http://www.w3.org/2000/svg" xmlns:xlink="http://www.w3.org/1999/xlink">
<g id="graph0" class="graph" transform="scale(1 1) rotate(0) translate(4 699)">
<title>Graphical Class Hierarchy</title>
<!-- Node0 -->
<g id="node1" class="node">
<title>Node0</title>
<g id="a_node1"><a xlink:href="classDefaultDoCastIfPossible.html" target="_top" xlink:title=" ">
<polygon fill="none" stroke="black" points="0,-357.5 0,-376.5 135,-376.5 135,-357.5 0,-357.5"/>
<text text-anchor="middle" x="67.5" y="-364.5" font-family="Helvetica,sans-Serif" font-size="10.00">DefaultDoCastIfPossible</text>
</a>
</g>
</g>
<!-- Node1 -->
<g id="node2" class="node">
<title>Node1</title>
<g id="a_node2"><a xlink:href="structllvm_1_1CastInfo_3_01T_00_01_1_1mlir_1_1Operation_01_4.html" target="_top" xlink:title="Cast from an (const) Operation &amp; to a derived operation type.">
<polygon fill="none" stroke="black" points="201.5,-500 201.5,-530 311.5,-530 311.5,-500 201.5,-500"/>
<text text-anchor="start" x="209.5" y="-518" font-family="Helvetica,sans-Serif" font-size="10.00">llvm::CastInfo&lt; T,</text>
<text text-anchor="middle" x="256.5" y="-507" font-family="Helvetica,sans-Serif" font-size="10.00"> ::mlir::Operation &gt;</text>
</a>
</g>
</g>
<!-- Node0&#45;&gt;Node1 -->
<g id="edge1" class="edge">
<title>Node0&#45;&gt;Node1</title>
<path fill="none" stroke="midnightblue" d="M92.82,-382.14C106.47,-391.52 123.09,-404.51 135,-419 157.47,-446.33 143.82,-467.35 171,-490 179.7,-497.25 190.43,-502.39 201.29,-506.05"/>
<polygon fill="midnightblue" stroke="midnightblue" points="94.63,-379.14 84.37,-376.52 90.76,-384.97 94.63,-379.14"/>
</g>
<!-- Node2 -->
<g id="node3" class="node">
<title>Node2</title>
<g id="a_node3"><a xlink:href="structllvm_1_1CastInfo_3_01To_00_01From_00_01std_1_1enable__if__t_3_01std_1_1is__same__v_3_01mli6b1a430db3146c196b022fb0da1dd755.html" target="_top" xlink:title="Add support for llvm style casts.">
<polygon fill="none" stroke="black" points="176,-395.5 176,-480.5 337,-480.5 337,-395.5 176,-395.5"/>
<text text-anchor="start" x="184" y="-468.5" font-family="Helvetica,sans-Serif" font-size="10.00">llvm::CastInfo&lt; To,</text>
<text text-anchor="start" x="184" y="-457.5" font-family="Helvetica,sans-Serif" font-size="10.00"> From, std::enable_if</text>
<text text-anchor="start" x="184" y="-446.5" font-family="Helvetica,sans-Serif" font-size="10.00">_t&lt; std::is_same_v&lt; mlir</text>
<text text-anchor="start" x="184" y="-435.5" font-family="Helvetica,sans-Serif" font-size="10.00">::AffineExpr, std::remove</text>
<text text-anchor="start" x="184" y="-424.5" font-family="Helvetica,sans-Serif" font-size="10.00">_const_t&lt; From &gt; &gt;||std::is</text>
<text text-anchor="start" x="184" y="-413.5" font-family="Helvetica,sans-Serif" font-size="10.00">_base_of_v&lt; mlir::AffineExpr,</text>
<text text-anchor="middle" x="256.5" y="-402.5" font-family="Helvetica,sans-Serif" font-size="10.00"> From &gt; &gt; &gt;</text>
</a>
</g>
</g>
<!-- Node0&#45;&gt;Node2 -->
<g id="edge2" class="edge">
<title>Node0&#45;&gt;Node2</title>
<path fill="none" stroke="midnightblue" d="M103.21,-380.18C123.64,-387.94 150.37,-398.09 175.73,-407.71"/>
<polygon fill="midnightblue" stroke="midnightblue" points="104.31,-376.85 93.72,-376.58 101.83,-383.4 104.31,-376.85"/>
</g>
<!-- Node3 -->
<g id="node4" class="node">
<title>Node3</title>
<g id="a_node4"><a xlink:href="structllvm_1_1CastInfo_3_01To_00_01From_00_01std_1_1enable__if__t_3_01std_1_1is__same__v_3_01mli774ff16a31cb722e154d89b18c1bd274.html" target="_top" xlink:title="Add support for llvm style casts.">
<polygon fill="none" stroke="black" points="175.5,-291.5 175.5,-376.5 337.5,-376.5 337.5,-291.5 175.5,-291.5"/>
<text text-anchor="start" x="183.5" y="-364.5" font-family="Helvetica,sans-Serif" font-size="10.00">llvm::CastInfo&lt; To,</text>
<text text-anchor="start" x="183.5" y="-353.5" font-family="Helvetica,sans-Serif" font-size="10.00"> From, std::enable_if</text>
<text text-anchor="start" x="183.5" y="-342.5" font-family="Helvetica,sans-Serif" font-size="10.00">_t&lt; std::is_same_v&lt; mlir</text>
<text text-anchor="start" x="183.5" y="-331.5" font-family="Helvetica,sans-Serif" font-size="10.00">::Attribute, std::remove</text>
<text text-anchor="start" x="183.5" y="-320.5" font-family="Helvetica,sans-Serif" font-size="10.00">_const_t&lt; From &gt; &gt;||std::</text>
<text text-anchor="start" x="183.5" y="-309.5" font-family="Helvetica,sans-Serif" font-size="10.00">is_base_of_v&lt; mlir::Attribute,</text>
<text text-anchor="middle" x="256.5" y="-298.5" font-family="Helvetica,sans-Serif" font-size="10.00"> From &gt; &gt; &gt;</text>
</a>
</g>
</g>
<!-- Node0&#45;&gt;Node3 -->
<g id="edge3" class="edge">
<title>Node0&#45;&gt;Node3</title>
<path fill="none" stroke="midnightblue" d="M132.22,-355.75C146.06,-353.31 160.87,-350.7 175.25,-348.16"/>
<polygon fill="midnightblue" stroke="midnightblue" points="131.58,-352.31 122.34,-357.5 132.79,-359.21 131.58,-352.31"/>
</g>
<!-- Node4 -->
<g id="node5" class="node">
<title>Node4</title>
<g id="a_node5"><a xlink:href="structllvm_1_1CastInfo_3_01To_00_01From_00_01std_1_1enable__if__t_3_01std_1_1is__same__v_3_01mli6a5e3ead6c5b460698f7884024a29008.html" target="_top" xlink:title="Add support for llvm style casts.">
<polygon fill="none" stroke="black" points="176,-0.5 176,-85.5 337,-85.5 337,-0.5 176,-0.5"/>
<text text-anchor="start" x="184" y="-73.5" font-family="Helvetica,sans-Serif" font-size="10.00">llvm::CastInfo&lt; To,</text>
<text text-anchor="start" x="184" y="-62.5" font-family="Helvetica,sans-Serif" font-size="10.00"> From, std::enable_if</text>
<text text-anchor="start" x="184" y="-51.5" font-family="Helvetica,sans-Serif" font-size="10.00">_t&lt; std::is_same_v&lt; mlir</text>
<text text-anchor="start" x="184" y="-40.5" font-family="Helvetica,sans-Serif" font-size="10.00">::Location, std::remove</text>
<text text-anchor="start" x="184" y="-29.5" font-family="Helvetica,sans-Serif" font-size="10.00">_const_t&lt; From &gt; &gt;||std::</text>
<text text-anchor="start" x="184" y="-18.5" font-family="Helvetica,sans-Serif" font-size="10.00">is_base_of_v&lt; mlir::Location,</text>
<text text-anchor="middle" x="256.5" y="-7.5" font-family="Helvetica,sans-Serif" font-size="10.00"> From &gt; &gt; &gt;</text>
</a>
</g>
</g>
<!-- Node0&#45;&gt;Node4 -->
<g id="edge4" class="edge">
<title>Node0&#45;&gt;Node4</title>
<path fill="none" stroke="midnightblue" d="M71.4,-347.49C79.38,-299.58 105.6,-174.28 171,-95 173.63,-91.81 176.51,-88.76 179.57,-85.86"/>
<polygon fill="midnightblue" stroke="midnightblue" points="67.93,-347.03 69.82,-357.46 74.84,-348.13 67.93,-347.03"/>
</g>
<!-- Node5 -->
<g id="node6" class="node">
<title>Node5</title>
<g id="a_node6"><a xlink:href="structllvm_1_1CastInfo_3_01To_00_01From_00_01std_1_1enable__if__t_3_01std_1_1is__same__v_3_01mlie03e405a48f00681f1cc8e16950ec198.html" target="_top" xlink:title="Add support for llvm style casts.">
<polygon fill="none" stroke="black" points="173,-198 173,-272 340,-272 340,-198 173,-198"/>
<text text-anchor="start" x="181" y="-260" font-family="Helvetica,sans-Serif" font-size="10.00">llvm::CastInfo&lt; To,</text>
<text text-anchor="start" x="181" y="-249" font-family="Helvetica,sans-Serif" font-size="10.00"> From, std::enable_if</text>
<text text-anchor="start" x="181" y="-238" font-family="Helvetica,sans-Serif" font-size="10.00">_t&lt; std::is_same_v&lt; mlir</text>
<text text-anchor="start" x="181" y="-227" font-family="Helvetica,sans-Serif" font-size="10.00">::Type, std::remove_const</text>
<text text-anchor="start" x="181" y="-216" font-family="Helvetica,sans-Serif" font-size="10.00">_t&lt; From &gt; &gt;||std::is_base</text>
<text text-anchor="middle" x="256.5" y="-205" font-family="Helvetica,sans-Serif" font-size="10.00">_of_v&lt; mlir::Type, From &gt; &gt; &gt;</text>
</a>
</g>
</g>
<!-- Node0&#45;&gt;Node5 -->
<g id="edge5" class="edge">
<title>Node0&#45;&gt;Node5</title>
<path fill="none" stroke="midnightblue" d="M86.39,-350.42C106.24,-332.45 139.61,-303.47 171,-282 175.85,-278.68 180.95,-275.39 186.15,-272.19"/>
<polygon fill="midnightblue" stroke="midnightblue" points="83.78,-348.06 78.76,-357.39 88.5,-353.23 83.78,-348.06"/>
</g>
<!-- Node6 -->
<g id="node7" class="node">
<title>Node6</title>
<g id="a_node7"><a xlink:href="structllvm_1_1CastInfo_3_01To_00_01From_00_01std_1_1enable__if__t_3_01std_1_1is__same__v_3_01mli5e51822f1eb56c00b332c0f6947c867d.html" target="_top" xlink:title="Add support for llvm style casts.">
<polygon fill="none" stroke="black" points="171,-105 171,-179 342,-179 342,-105 171,-105"/>
<text text-anchor="start" x="179" y="-167" font-family="Helvetica,sans-Serif" font-size="10.00">llvm::CastInfo&lt; To,</text>
<text text-anchor="start" x="179" y="-156" font-family="Helvetica,sans-Serif" font-size="10.00"> From, std::enable_if</text>
<text text-anchor="start" x="179" y="-145" font-family="Helvetica,sans-Serif" font-size="10.00">_t&lt; std::is_same_v&lt; mlir</text>
<text text-anchor="start" x="179" y="-134" font-family="Helvetica,sans-Serif" font-size="10.00">::Value, std::remove_const</text>
<text text-anchor="start" x="179" y="-123" font-family="Helvetica,sans-Serif" font-size="10.00">_t&lt; From &gt; &gt;||std::is_base</text>
<text text-anchor="middle" x="256.5" y="-112" font-family="Helvetica,sans-Serif" font-size="10.00">_of_v&lt; mlir::Value, From &gt; &gt; &gt;</text>
</a>
</g>
</g>
<!-- Node0&#45;&gt;Node6 -->
<g id="edge6" class="edge">
<title>Node0&#45;&gt;Node6</title>
<path fill="none" stroke="midnightblue" d="M75.47,-347.62C89.04,-312.11 122.06,-235.9 171,-188 174.22,-184.85 177.71,-181.84 181.36,-179"/>
<polygon fill="midnightblue" stroke="midnightblue" points="72.09,-346.66 71.88,-357.25 78.65,-349.1 72.09,-346.66"/>
</g>
<!-- Node7 -->
<g id="node8" class="node">
<title>Node7</title>
<g id="a_node8"><a xlink:href="structllvm_1_1CastInfo_3_01To_00_01From_00_01std_1_1enable__if__t_3_01std_1_1is__same__v_3_01mlia7e24ec0b86dd4ca24e1cbeb31f438b6.html" target="_top" xlink:title="Add support for llvm style casts.">
<polygon fill="none" stroke="black" points="178.5,-609.5 178.5,-694.5 334.5,-694.5 334.5,-609.5 178.5,-609.5"/>
<text text-anchor="start" x="186.5" y="-682.5" font-family="Helvetica,sans-Serif" font-size="10.00">llvm::CastInfo&lt; To,</text>
<text text-anchor="start" x="186.5" y="-671.5" font-family="Helvetica,sans-Serif" font-size="10.00"> From, std::enable_if</text>
<text text-anchor="start" x="186.5" y="-660.5" font-family="Helvetica,sans-Serif" font-size="10.00">_t&lt; std::is_same_v&lt; mlir</text>
<text text-anchor="start" x="186.5" y="-649.5" font-family="Helvetica,sans-Serif" font-size="10.00">::pdll::ast::Type, std::</text>
<text text-anchor="start" x="186.5" y="-638.5" font-family="Helvetica,sans-Serif" font-size="10.00">remove_const_t&lt; From &gt; &gt;|</text>
<text text-anchor="start" x="186.5" y="-627.5" font-family="Helvetica,sans-Serif" font-size="10.00">|std::is_base_of_v&lt; mlir::</text>
<text text-anchor="middle" x="256.5" y="-616.5" font-family="Helvetica,sans-Serif" font-size="10.00">pdll::ast::Type, From &gt; &gt; &gt;</text>
</a>
</g>
</g>
<!-- Node0&#45;&gt;Node7 -->
<g id="edge7" class="edge">
<title>Node0&#45;&gt;Node7</title>
<path fill="none" stroke="midnightblue" d="M95.75,-381.9C109.61,-390.87 125.48,-403.54 135,-419 177.99,-488.85 124.17,-532.67 171,-600 173.26,-603.25 175.8,-606.34 178.55,-609.27"/>
<polygon fill="midnightblue" stroke="midnightblue" points="97.39,-378.8 87.03,-376.56 93.73,-384.77 97.39,-378.8"/>
</g>
<!-- Node8 -->
<g id="node9" class="node">
<title>Node8</title>
<g id="a_node9"><a xlink:href="structllvm_1_1CastInfo_3_1_1mlir_1_1Operation_01_5_00_01_1_1mlir_1_1Operation_01_5_01_4.html" target="_top" xlink:title="Cast (const) Operation * to itself.">
<polygon fill="none" stroke="black" points="197,-549.5 197,-590.5 316,-590.5 316,-549.5 197,-549.5"/>
<text text-anchor="start" x="205" y="-578.5" font-family="Helvetica,sans-Serif" font-size="10.00">llvm::CastInfo&lt;::mlir</text>
<text text-anchor="start" x="205" y="-567.5" font-family="Helvetica,sans-Serif" font-size="10.00">::Operation *, ::mlir</text>
<text text-anchor="middle" x="256.5" y="-556.5" font-family="Helvetica,sans-Serif" font-size="10.00">::Operation * &gt;</text>
</a>
</g>
</g>
<!-- Node0&#45;&gt;Node8 -->
<g id="edge8" class="edge">
<title>Node0&#45;&gt;Node8</title>
<path fill="none" stroke="midnightblue" d="M94.92,-382.09C108.67,-391.17 124.71,-403.9 135,-419 166.6,-465.37 132.37,-499.31 171,-540 178.07,-547.45 187.12,-553.05 196.64,-557.27"/>
<polygon fill="midnightblue" stroke="midnightblue" points="96.62,-379.03 86.3,-376.66 92.89,-384.95 96.62,-379.03"/>
</g>
<!-- Node1426 -->
<g id="node10" class="node">
<title>Node1426</title>
<g id="a_node10"><a xlink:href="classNullableValueCastFailed.html" target="_top" xlink:title=" ">
<polygon fill="none" stroke="black" points="0.5,-428.5 0.5,-447.5 134.5,-447.5 134.5,-428.5 0.5,-428.5"/>
<text text-anchor="middle" x="67.5" y="-435.5" font-family="Helvetica,sans-Serif" font-size="10.00">NullableValueCastFailed</text>
</a>
</g>
</g>
<!-- Node1426&#45;&gt;Node1 -->
<g id="edge9" class="edge">
<title>Node1426&#45;&gt;Node1</title>
<path fill="none" stroke="midnightblue" d="M94.06,-452.61C114.44,-463.86 143.95,-479.24 171,-490 180.67,-493.84 191.16,-497.41 201.36,-500.58"/>
<polygon fill="midnightblue" stroke="midnightblue" points="95.55,-449.43 85.11,-447.62 92.14,-455.55 95.55,-449.43"/>
</g>
<!-- Node1426&#45;&gt;Node2 -->
<g id="edge10" class="edge">
<title>Node1426&#45;&gt;Node2</title>
<path fill="none" stroke="midnightblue" d="M144.83,-438C155.09,-438 165.63,-438 175.94,-438"/>
<polygon fill="midnightblue" stroke="midnightblue" points="144.69,-434.5 134.69,-438 144.69,-441.5 144.69,-434.5"/>
</g>
<!-- Node1426&#45;&gt;Node3 -->
<g id="edge11" class="edge">
<title>Node1426&#45;&gt;Node3</title>
<path fill="none" stroke="midnightblue" d="M94.74,-423.4C116.62,-411.24 148.94,-393.27 178.87,-376.62"/>
<polygon fill="midnightblue" stroke="midnightblue" points="92.8,-420.48 85.76,-428.4 96.2,-426.6 92.8,-420.48"/>
</g>
<!-- Node1426&#45;&gt;Node5 -->
<g id="edge12" class="edge">
<title>Node1426&#45;&gt;Node5</title>
<path fill="none" stroke="midnightblue" d="M94.39,-422.91C108.12,-413.76 124.31,-400.97 135,-386 163.43,-346.2 139.56,-319.47 171,-282 173.91,-278.53 177.15,-275.27 180.62,-272.21"/>
<polygon fill="midnightblue" stroke="midnightblue" points="92.35,-420.05 85.8,-428.38 96.12,-425.96 92.35,-420.05"/>
</g>
<!-- Node1426&#45;&gt;Node6 -->
<g id="edge13" class="edge">
<title>Node1426&#45;&gt;Node6</title>
<path fill="none" stroke="midnightblue" d="M95.86,-423.16C109.74,-414.21 125.61,-401.54 135,-386 181.25,-309.45 118.59,-260.48 171,-188 173.25,-184.89 175.78,-181.96 178.52,-179.22"/>
<polygon fill="midnightblue" stroke="midnightblue" points="93.83,-420.3 87.11,-428.49 97.47,-426.28 93.83,-420.3"/>
</g>
<!-- Node1426&#45;&gt;Node7 -->
<g id="edge14" class="edge">
<title>Node1426&#45;&gt;Node7</title>
<path fill="none" stroke="midnightblue" d="M77.01,-457.07C92.18,-489.5 126.56,-556.11 171,-600 174.31,-603.27 177.86,-606.43 181.57,-609.46"/>
<polygon fill="midnightblue" stroke="midnightblue" points="80.11,-455.45 72.76,-447.82 73.75,-458.37 80.11,-455.45"/>
</g>
<!-- Node1426&#45;&gt;Node8 -->
<g id="edge15" class="edge">
<title>Node1426&#45;&gt;Node8</title>
<path fill="none" stroke="midnightblue" d="M81.96,-455.56C100,-478 134.06,-516.73 171,-540 178.9,-544.98 187.74,-549.27 196.65,-552.92"/>
<polygon fill="midnightblue" stroke="midnightblue" points="84.59,-453.24 75.66,-447.56 79.1,-457.58 84.59,-453.24"/>
</g>
</g>
</svg>
