<?xml version="1.0" encoding="UTF-8" standalone="no"?>
<!DOCTYPE svg PUBLIC "-//W3C//DTD SVG 1.1//EN"
 "http://www.w3.org/Graphics/SVG/1.1/DTD/svg11.dtd">
<!-- Generated by graphviz version 2.43.0 (0)
 -->
<!-- Title: Graphical Class Hierarchy Pages: 1 -->
<svg width="376pt" height="110pt"
 viewBox="0.00 0.00 376.00 110.00" xmlns="http://www.w3.org/2000/svg" xmlns:xlink="http://www.w3.org/1999/xlink">
<g id="graph0" class="graph" transform="scale(1 1) rotate(0) translate(4 106)">
<title>Graphical Class Hierarchy</title>
<!-- Node0 -->
<g id="node1" class="node">
<title>Node0</title>
<g id="a_node1"><a xlink:href="classmlir_1_1query_1_1matcher_1_1internal_1_1MatcherDescriptor.html" target="_top" xlink:title=" ">
<polygon fill="none" stroke="black" points="0,-36 0,-66 156,-66 156,-36 0,-36"/>
<text text-anchor="start" x="8" y="-54" font-family="Helvetica,sans-Serif" font-size="10.00">mlir::query::matcher</text>
<text text-anchor="middle" x="78" y="-43" font-family="Helvetica,sans-Serif" font-size="10.00">::internal::MatcherDescriptor</text>
</a>
</g>
</g>
<!-- Node1 -->
<g id="node2" class="node">
<title>Node1</title>
<g id="a_node2"><a xlink:href="classmlir_1_1query_1_1matcher_1_1internal_1_1FixedArgCountMatcherDescriptor.html" target="_top" xlink:title=" ">
<polygon fill="none" stroke="black" points="192,-60.5 192,-101.5 368,-101.5 368,-60.5 192,-60.5"/>
<text text-anchor="start" x="200" y="-89.5" font-family="Helvetica,sans-Serif" font-size="10.00">mlir::query::matcher</text>
<text text-anchor="start" x="200" y="-78.5" font-family="Helvetica,sans-Serif" font-size="10.00">::internal::FixedArgCountMatcher</text>
<text text-anchor="middle" x="280" y="-67.5" font-family="Helvetica,sans-Serif" font-size="10.00">Descriptor</text>
</a>
</g>
</g>
<!-- Node0&#45;&gt;Node1 -->
<g id="edge1" class="edge">
<title>Node0&#45;&gt;Node1</title>
<path fill="none" stroke="midnightblue" d="M165.97,-64.05C174.49,-65.32 183.14,-66.62 191.67,-67.9"/>
<polygon fill="midnightblue" stroke="midnightblue" points="166.45,-60.58 156.04,-62.56 165.41,-67.5 166.45,-60.58"/>
</g>
<!-- Node2 -->
<g id="node3" class="node">
<title>Node2</title>
<g id="a_node3"><a xlink:href="classmlir_1_1query_1_1matcher_1_1internal_1_1VariadicOperatorMatcherDescriptor.html" target="_top" xlink:title=" ">
<polygon fill="none" stroke="black" points="206,-0.5 206,-41.5 354,-41.5 354,-0.5 206,-0.5"/>
<text text-anchor="start" x="214" y="-29.5" font-family="Helvetica,sans-Serif" font-size="10.00">mlir::query::matcher</text>
<text text-anchor="start" x="214" y="-18.5" font-family="Helvetica,sans-Serif" font-size="10.00">::internal::VariadicOperator</text>
<text text-anchor="middle" x="280" y="-7.5" font-family="Helvetica,sans-Serif" font-size="10.00">MatcherDescriptor</text>
</a>
</g>
</g>
<!-- Node0&#45;&gt;Node2 -->
<g id="edge2" class="edge">
<title>Node0&#45;&gt;Node2</title>
<path fill="none" stroke="midnightblue" d="M166.12,-37.93C179.41,-35.94 193,-33.9 205.94,-31.96"/>
<polygon fill="midnightblue" stroke="midnightblue" points="165.41,-34.5 156.04,-39.44 166.45,-41.42 165.41,-34.5"/>
</g>
</g>
</svg>
