<?xml version="1.0" encoding="UTF-8" standalone="no"?>
<!DOCTYPE svg PUBLIC "-//W3C//DTD SVG 1.1//EN"
 "http://www.w3.org/Graphics/SVG/1.1/DTD/svg11.dtd">
<!-- Generated by graphviz version 2.43.0 (0)
 -->
<!-- Title: Graphical Class Hierarchy Pages: 1 -->
<svg width="362pt" height="86pt"
 viewBox="0.00 0.00 362.00 86.00" xmlns="http://www.w3.org/2000/svg" xmlns:xlink="http://www.w3.org/1999/xlink">
<g id="graph0" class="graph" transform="scale(1 1) rotate(0) translate(4 82)">
<title>Graphical Class Hierarchy</title>
<!-- Node0 -->
<g id="Node000000" class="node">
<title>Node0</title>
<g id="a_Node000000"><a xlink:href="classmlir_1_1remark_1_1detail_1_1RemarkEmittingPolicyBase.html" target="_top" xlink:title="Base class for MLIR remark emitting policies that is used to emit optimization remarks to the underly...">
<polygon fill="white" stroke="#666666" points="155,-54 0,-54 0,-24 155,-24 155,-54"/>
<text text-anchor="start" x="8" y="-42" font-family="Helvetica,sans-Serif" font-size="10.00">mlir::remark::detail</text>
<text text-anchor="middle" x="77.5" y="-31" font-family="Helvetica,sans-Serif" font-size="10.00">::RemarkEmittingPolicyBase</text>
</a>
</g>
</g>
<!-- Node1 -->
<g id="Node000001" class="node">
<title>Node1</title>
<g id="a_Node000001"><a xlink:href="classmlir_1_1remark_1_1RemarkEmittingPolicyAll.html" target="_top" xlink:title="Policy that emits all remarks.">
<polygon fill="white" stroke="#666666" points="354,-78 191,-78 191,-48 354,-48 354,-78"/>
<text text-anchor="start" x="199" y="-66" font-family="Helvetica,sans-Serif" font-size="10.00">mlir::remark::RemarkEmitting</text>
<text text-anchor="middle" x="272.5" y="-55" font-family="Helvetica,sans-Serif" font-size="10.00">PolicyAll</text>
</a>
</g>
</g>
<!-- Node0&#45;&gt;Node1 -->
<g id="edge1318_Node000000_Node000001" class="edge">
<title>Node0&#45;&gt;Node1</title>
<g id="a_edge1318_Node000000_Node000001"><a xlink:title=" ">
<path fill="none" stroke="#63b8ff" d="M165.08,-49.77C173.68,-50.84 182.38,-51.92 190.92,-52.98"/>
<polygon fill="#63b8ff" stroke="#63b8ff" points="165.41,-46.28 155.06,-48.52 164.55,-53.23 165.41,-46.28"/>
</a>
</g>
</g>
<!-- Node2 -->
<g id="Node000002" class="node">
<title>Node2</title>
<g id="a_Node000002"><a xlink:href="classmlir_1_1remark_1_1RemarkEmittingPolicyFinal.html" target="_top" xlink:title="Policy that emits final remarks.">
<polygon fill="white" stroke="#666666" points="354,-30 191,-30 191,0 354,0 354,-30"/>
<text text-anchor="start" x="199" y="-18" font-family="Helvetica,sans-Serif" font-size="10.00">mlir::remark::RemarkEmitting</text>
<text text-anchor="middle" x="272.5" y="-7" font-family="Helvetica,sans-Serif" font-size="10.00">PolicyFinal</text>
</a>
</g>
</g>
<!-- Node0&#45;&gt;Node2 -->
<g id="edge1319_Node000000_Node000002" class="edge">
<title>Node0&#45;&gt;Node2</title>
<g id="a_edge1319_Node000000_Node000002"><a xlink:title=" ">
<path fill="none" stroke="#63b8ff" d="M165.08,-28.23C173.68,-27.16 182.38,-26.08 190.92,-25.02"/>
<polygon fill="#63b8ff" stroke="#63b8ff" points="164.55,-24.77 155.06,-29.48 165.41,-31.72 164.55,-24.77"/>
</a>
</g>
</g>
</g>
</svg>
