<?xml version="1.0" encoding="UTF-8" standalone="no"?>
<!DOCTYPE svg PUBLIC "-//W3C//DTD SVG 1.1//EN"
 "http://www.w3.org/Graphics/SVG/1.1/DTD/svg11.dtd">
<!-- Generated by graphviz version 2.43.0 (0)
 -->
<!-- Title: Graphical Class Hierarchy Pages: 1 -->
<svg width="451pt" height="148pt"
 viewBox="0.00 0.00 451.00 147.50" xmlns="http://www.w3.org/2000/svg" xmlns:xlink="http://www.w3.org/1999/xlink">
<g id="graph0" class="graph" transform="scale(1 1) rotate(0) translate(4 143.5)">
<title>Graphical Class Hierarchy</title>
<!-- Node0 -->
<g id="node1" class="node">
<title>Node0</title>
<g id="a_node1"><a xlink:href="classmlir_1_1tblgen_1_1Trait.html" target="_top" xlink:title=" ">
<polygon fill="none" stroke="black" points="0,-57.5 0,-76.5 100,-76.5 100,-57.5 0,-57.5"/>
<text text-anchor="middle" x="50" y="-64.5" font-family="Helvetica,sans-Serif" font-size="10.00">mlir::tblgen::Trait</text>
</a>
</g>
</g>
<!-- Node1 -->
<g id="node2" class="node">
<title>Node1</title>
<g id="a_node2"><a xlink:href="classmlir_1_1tblgen_1_1InterfaceTrait.html" target="_top" xlink:title=" ">
<polygon fill="none" stroke="black" points="136,-114.5 136,-133.5 279,-133.5 279,-114.5 136,-114.5"/>
<text text-anchor="middle" x="207.5" y="-121.5" font-family="Helvetica,sans-Serif" font-size="10.00">mlir::tblgen::InterfaceTrait</text>
</a>
</g>
</g>
<!-- Node0&#45;&gt;Node1 -->
<g id="edge1" class="edge">
<title>Node0&#45;&gt;Node1</title>
<path fill="none" stroke="midnightblue" d="M79.7,-81.19C95.96,-88.88 116.83,-98.18 136,-105 145.79,-108.48 156.55,-111.69 166.64,-114.43"/>
<polygon fill="midnightblue" stroke="midnightblue" points="80.76,-77.81 70.23,-76.64 77.73,-84.12 80.76,-77.81"/>
</g>
<!-- Node3 -->
<g id="node4" class="node">
<title>Node3</title>
<g id="a_node4"><a xlink:href="classmlir_1_1tblgen_1_1InternalTrait.html" target="_top" xlink:title=" ">
<polygon fill="none" stroke="black" points="139,-76.5 139,-95.5 276,-95.5 276,-76.5 139,-76.5"/>
<text text-anchor="middle" x="207.5" y="-83.5" font-family="Helvetica,sans-Serif" font-size="10.00">mlir::tblgen::InternalTrait</text>
</a>
</g>
</g>
<!-- Node0&#45;&gt;Node3 -->
<g id="edge3" class="edge">
<title>Node0&#45;&gt;Node3</title>
<path fill="none" stroke="midnightblue" d="M110.19,-74.23C119.56,-75.38 129.31,-76.57 138.86,-77.74"/>
<polygon fill="midnightblue" stroke="midnightblue" points="110.55,-70.75 100.2,-73.01 109.7,-77.7 110.55,-70.75"/>
</g>
<!-- Node4 -->
<g id="node5" class="node">
<title>Node4</title>
<g id="a_node5"><a xlink:href="classmlir_1_1tblgen_1_1NativeTrait.html" target="_top" xlink:title=" ">
<polygon fill="none" stroke="black" points="141.5,-38.5 141.5,-57.5 273.5,-57.5 273.5,-38.5 141.5,-38.5"/>
<text text-anchor="middle" x="207.5" y="-45.5" font-family="Helvetica,sans-Serif" font-size="10.00">mlir::tblgen::NativeTrait</text>
</a>
</g>
</g>
<!-- Node0&#45;&gt;Node4 -->
<g id="edge4" class="edge">
<title>Node0&#45;&gt;Node4</title>
<path fill="none" stroke="midnightblue" d="M110.22,-59.76C120.41,-58.52 131.06,-57.22 141.4,-55.95"/>
<polygon fill="midnightblue" stroke="midnightblue" points="109.7,-56.3 100.2,-60.99 110.55,-63.25 109.7,-56.3"/>
</g>
<!-- Node5 -->
<g id="node6" class="node">
<title>Node5</title>
<g id="a_node6"><a xlink:href="classmlir_1_1tblgen_1_1PredTrait.html" target="_top" xlink:title=" ">
<polygon fill="none" stroke="black" points="146.5,-0.5 146.5,-19.5 268.5,-19.5 268.5,-0.5 146.5,-0.5"/>
<text text-anchor="middle" x="207.5" y="-7.5" font-family="Helvetica,sans-Serif" font-size="10.00">mlir::tblgen::PredTrait</text>
</a>
</g>
</g>
<!-- Node0&#45;&gt;Node5 -->
<g id="edge5" class="edge">
<title>Node0&#45;&gt;Node5</title>
<path fill="none" stroke="midnightblue" d="M79.7,-52.81C95.96,-45.12 116.83,-35.82 136,-29 145.79,-25.52 156.55,-22.31 166.64,-19.57"/>
<polygon fill="midnightblue" stroke="midnightblue" points="77.73,-49.88 70.23,-57.36 80.76,-56.19 77.73,-49.88"/>
</g>
<!-- Node2 -->
<g id="node3" class="node">
<title>Node2</title>
<g id="a_node3"><a xlink:href="classmlir_1_1tblgen_1_1SideEffectTrait.html" target="_top" xlink:title=" ">
<polygon fill="none" stroke="black" points="315,-109 315,-139 443,-139 443,-109 315,-109"/>
<text text-anchor="start" x="323" y="-127" font-family="Helvetica,sans-Serif" font-size="10.00">mlir::tblgen::SideEffect</text>
<text text-anchor="middle" x="379" y="-116" font-family="Helvetica,sans-Serif" font-size="10.00">Trait</text>
</a>
</g>
</g>
<!-- Node1&#45;&gt;Node2 -->
<g id="edge2" class="edge">
<title>Node1&#45;&gt;Node2</title>
<path fill="none" stroke="midnightblue" d="M289.42,-124C297.99,-124 306.61,-124 314.94,-124"/>
<polygon fill="midnightblue" stroke="midnightblue" points="289.4,-120.5 279.4,-124 289.4,-127.5 289.4,-120.5"/>
</g>
</g>
</svg>
