<?xml version="1.0" encoding="UTF-8" standalone="no"?>
<!DOCTYPE svg PUBLIC "-//W3C//DTD SVG 1.1//EN"
 "http://www.w3.org/Graphics/SVG/1.1/DTD/svg11.dtd">
<!-- Generated by graphviz version 2.43.0 (0)
 -->
<!-- Title: Graphical Class Hierarchy Pages: 1 -->
<svg width="1009pt" height="366pt"
 viewBox="0.00 0.00 1009.00 366.00" xmlns="http://www.w3.org/2000/svg" xmlns:xlink="http://www.w3.org/1999/xlink">
<g id="graph0" class="graph" transform="scale(1 1) rotate(0) translate(4 362)">
<title>Graphical Class Hierarchy</title>
<!-- Node0 -->
<g id="Node000000" class="node">
<title>Node0</title>
<g id="a_Node000000"><a xlink:href="classmlir_1_1SideEffects_1_1Resource.html" target="_top" xlink:title="This class represents a specific resource that an effect applies to.">
<polygon fill="white" stroke="#666666" points="102,-196.5 0,-196.5 0,-166.5 102,-166.5 102,-196.5"/>
<text text-anchor="start" x="8" y="-184.5" font-family="Helvetica,sans-Serif" font-size="10.00">mlir::SideEffects::</text>
<text text-anchor="middle" x="51" y="-173.5" font-family="Helvetica,sans-Serif" font-size="10.00">Resource</text>
</a>
</g>
</g>
<!-- Node1 -->
<g id="Node000001" class="node">
<title>Node1</title>
<g id="a_Node000001"><a xlink:href="classmlir_1_1SideEffects_1_1Resource_1_1Base.html" target="_top" xlink:title=" ">
<polygon fill="white" stroke="#666666" points="339,-352.5 144,-352.5 144,-322.5 339,-322.5 339,-352.5"/>
<text text-anchor="start" x="152" y="-340.5" font-family="Helvetica,sans-Serif" font-size="10.00">mlir::SideEffects::</text>
<text text-anchor="middle" x="241.5" y="-329.5" font-family="Helvetica,sans-Serif" font-size="10.00">Resource::Base&lt; DefaultResource &gt;</text>
</a>
</g>
</g>
<!-- Node0&#45;&gt;Node1 -->
<g id="edge1622_Node000000_Node000001" class="edge">
<title>Node0&#45;&gt;Node1</title>
<g id="a_edge1622_Node000000_Node000001"><a xlink:title=" ">
<path fill="none" stroke="#63b8ff" d="M61.35,-206.29C74.02,-236.42 99.57,-286.55 138,-313.5 142.94,-316.96 148.31,-319.93 153.91,-322.48"/>
<polygon fill="#63b8ff" stroke="#63b8ff" points="64.55,-204.86 57.55,-196.91 58.06,-207.49 64.55,-204.86"/>
</a>
</g>
</g>
<!-- Node5 -->
<g id="Node000005" class="node">
<title>Node5</title>
<g id="a_Node000005"><a xlink:href="classmlir_1_1SideEffects_1_1Resource_1_1Base.html" target="_top" xlink:title=" ">
<polygon fill="white" stroke="#666666" points="344.5,-304.5 138.5,-304.5 138.5,-274.5 344.5,-274.5 344.5,-304.5"/>
<text text-anchor="start" x="146.5" y="-292.5" font-family="Helvetica,sans-Serif" font-size="10.00">mlir::SideEffects::</text>
<text text-anchor="middle" x="241.5" y="-281.5" font-family="Helvetica,sans-Serif" font-size="10.00">Resource::Base&lt; ConstructResource &gt;</text>
</a>
</g>
</g>
<!-- Node0&#45;&gt;Node5 -->
<g id="edge1626_Node000000_Node000005" class="edge">
<title>Node0&#45;&gt;Node5</title>
<g id="a_edge1626_Node000000_Node000005"><a xlink:title=" ">
<path fill="none" stroke="#63b8ff" d="M69.69,-204.77C85.51,-223.95 110.43,-250.37 138,-265.5 144.33,-268.97 151.15,-271.94 158.15,-274.49"/>
<polygon fill="#63b8ff" stroke="#63b8ff" points="72.27,-202.39 63.28,-196.79 66.81,-206.77 72.27,-202.39"/>
</a>
</g>
</g>
<!-- Node7 -->
<g id="Node000007" class="node">
<title>Node7</title>
<g id="a_Node000007"><a xlink:href="classmlir_1_1SideEffects_1_1Resource_1_1Base.html" target="_top" xlink:title=" ">
<polygon fill="white" stroke="#666666" points="328,-256 155,-256 155,-215 328,-215 328,-256"/>
<text text-anchor="start" x="163" y="-244" font-family="Helvetica,sans-Serif" font-size="10.00">mlir::SideEffects::</text>
<text text-anchor="start" x="163" y="-233" font-family="Helvetica,sans-Serif" font-size="10.00">Resource::Base&lt; CurrentDevice</text>
<text text-anchor="middle" x="241.5" y="-222" font-family="Helvetica,sans-Serif" font-size="10.00">IdResource &gt;</text>
</a>
</g>
</g>
<!-- Node0&#45;&gt;Node7 -->
<g id="edge1628_Node000000_Node000007" class="edge">
<title>Node0&#45;&gt;Node7</title>
<g id="a_edge1628_Node000000_Node000007"><a xlink:title=" ">
<path fill="none" stroke="#63b8ff" d="M111.82,-198.64C129.86,-203.81 149.86,-209.53 168.6,-214.9"/>
<polygon fill="#63b8ff" stroke="#63b8ff" points="112.6,-195.22 102.02,-195.83 110.67,-201.95 112.6,-195.22"/>
</a>
</g>
</g>
<!-- Node9 -->
<g id="Node000009" class="node">
<title>Node9</title>
<g id="a_Node000009"><a xlink:href="classmlir_1_1SideEffects_1_1Resource_1_1Base.html" target="_top" xlink:title=" ">
<polygon fill="white" stroke="#666666" points="341,-196.5 142,-196.5 142,-166.5 341,-166.5 341,-196.5"/>
<text text-anchor="start" x="150" y="-184.5" font-family="Helvetica,sans-Serif" font-size="10.00">mlir::SideEffects::</text>
<text text-anchor="middle" x="241.5" y="-173.5" font-family="Helvetica,sans-Serif" font-size="10.00">Resource::Base&lt; RuntimeCounters &gt;</text>
</a>
</g>
</g>
<!-- Node0&#45;&gt;Node9 -->
<g id="edge1630_Node000000_Node000009" class="edge">
<title>Node0&#45;&gt;Node9</title>
<g id="a_edge1630_Node000000_Node000009"><a xlink:title=" ">
<path fill="none" stroke="#63b8ff" d="M112.1,-181.5C121.59,-181.5 131.63,-181.5 141.73,-181.5"/>
<polygon fill="#63b8ff" stroke="#63b8ff" points="112.02,-178 102.02,-181.5 112.02,-185 112.02,-178"/>
</a>
</g>
</g>
<!-- Node11 -->
<g id="Node000011" class="node">
<title>Node11</title>
<g id="a_Node000011"><a xlink:href="classmlir_1_1SideEffects_1_1Resource_1_1Base.html" target="_top" xlink:title=" ">
<polygon fill="white" stroke="#666666" points="345,-148.5 138,-148.5 138,-118.5 345,-118.5 345,-148.5"/>
<text text-anchor="start" x="146" y="-136.5" font-family="Helvetica,sans-Serif" font-size="10.00">mlir::SideEffects::</text>
<text text-anchor="middle" x="241.5" y="-125.5" font-family="Helvetica,sans-Serif" font-size="10.00">Resource::Base&lt; PayloadIRResource &gt;</text>
</a>
</g>
</g>
<!-- Node0&#45;&gt;Node11 -->
<g id="edge1632_Node000000_Node000011" class="edge">
<title>Node0&#45;&gt;Node11</title>
<g id="a_edge1632_Node000000_Node000011"><a xlink:title=" ">
<path fill="none" stroke="#63b8ff" d="M112.08,-164.38C120.76,-162.01 129.6,-159.65 138,-157.5 149.77,-154.48 162.35,-151.41 174.51,-148.52"/>
<polygon fill="#63b8ff" stroke="#63b8ff" points="111.09,-161.03 102.38,-167.06 112.95,-167.78 111.09,-161.03"/>
</a>
</g>
</g>
<!-- Node13 -->
<g id="Node000013" class="node">
<title>Node13</title>
<g id="a_Node000013"><a xlink:href="classmlir_1_1SideEffects_1_1Resource_1_1Base.html" target="_top" xlink:title=" ">
<polygon fill="white" stroke="#666666" points="338.5,-100 144.5,-100 144.5,-59 338.5,-59 338.5,-100"/>
<text text-anchor="start" x="152.5" y="-88" font-family="Helvetica,sans-Serif" font-size="10.00">mlir::SideEffects::</text>
<text text-anchor="start" x="152.5" y="-77" font-family="Helvetica,sans-Serif" font-size="10.00">Resource::Base&lt; TransformMapping</text>
<text text-anchor="middle" x="241.5" y="-66" font-family="Helvetica,sans-Serif" font-size="10.00">Resource &gt;</text>
</a>
</g>
</g>
<!-- Node0&#45;&gt;Node13 -->
<g id="edge1634_Node000000_Node000013" class="edge">
<title>Node0&#45;&gt;Node13</title>
<g id="a_edge1634_Node000000_Node000013"><a xlink:title=" ">
<path fill="none" stroke="#63b8ff" d="M73.54,-159.07C89.89,-143.2 113.65,-122.52 138,-109.5 144.54,-106 151.54,-102.87 158.7,-100.06"/>
<polygon fill="#63b8ff" stroke="#63b8ff" points="70.77,-156.89 66.13,-166.42 75.7,-161.86 70.77,-156.89"/>
</a>
</g>
</g>
<!-- Node15 -->
<g id="Node000015" class="node">
<title>Node15</title>
<g id="a_Node000015"><a xlink:href="classmlir_1_1SideEffects_1_1Resource_1_1Base.html" target="_top" xlink:title="This base class is used for derived effects that are non&#45;parametric.">
<polygon fill="white" stroke="#666666" points="336,-41 147,-41 147,0 336,0 336,-41"/>
<text text-anchor="start" x="155" y="-29" font-family="Helvetica,sans-Serif" font-size="10.00">mlir::SideEffects::</text>
<text text-anchor="start" x="155" y="-18" font-family="Helvetica,sans-Serif" font-size="10.00">Resource::Base&lt; DerivedResource,</text>
<text text-anchor="middle" x="241.5" y="-7" font-family="Helvetica,sans-Serif" font-size="10.00"> BaseResource &gt;</text>
</a>
</g>
</g>
<!-- Node0&#45;&gt;Node15 -->
<g id="edge1636_Node000000_Node000015" class="edge">
<title>Node0&#45;&gt;Node15</title>
<g id="a_edge1636_Node000000_Node000015"><a xlink:title=" ">
<path fill="none" stroke="#63b8ff" d="M61.55,-156.99C74.43,-127.16 100.2,-77.32 138,-49.5 142.24,-46.38 146.81,-43.59 151.58,-41.1"/>
<polygon fill="#63b8ff" stroke="#63b8ff" points="58.3,-155.7 57.68,-166.28 64.76,-158.4 58.3,-155.7"/>
</a>
</g>
</g>
<!-- Node2 -->
<g id="Node000002" class="node">
<title>Node2</title>
<g id="a_Node000002"><a xlink:href="structmlir_1_1SideEffects_1_1DefaultResource.html" target="_top" xlink:title="The default resource kind.">
<polygon fill="white" stroke="#666666" points="510,-352.5 408,-352.5 408,-322.5 510,-322.5 510,-352.5"/>
<text text-anchor="start" x="416" y="-340.5" font-family="Helvetica,sans-Serif" font-size="10.00">mlir::SideEffects::</text>
<text text-anchor="middle" x="459" y="-329.5" font-family="Helvetica,sans-Serif" font-size="10.00">DefaultResource</text>
</a>
</g>
</g>
<!-- Node1&#45;&gt;Node2 -->
<g id="edge1623_Node000001_Node000002" class="edge">
<title>Node1&#45;&gt;Node2</title>
<g id="a_edge1623_Node000001_Node000002"><a xlink:title=" ">
<path fill="none" stroke="#63b8ff" d="M349.26,-337.5C369.74,-337.5 390.26,-337.5 407.88,-337.5"/>
<polygon fill="#63b8ff" stroke="#63b8ff" points="349.22,-334 339.22,-337.5 349.22,-341 349.22,-334"/>
</a>
</g>
</g>
<!-- Node3 -->
<g id="Node000003" class="node">
<title>Node3</title>
<g id="a_Node000003"><a xlink:href="classmlir_1_1SideEffects_1_1Resource_1_1Base.html" target="_top" xlink:title=" ">
<polygon fill="white" stroke="#666666" points="775,-358 573,-358 573,-317 775,-317 775,-358"/>
<text text-anchor="start" x="581" y="-346" font-family="Helvetica,sans-Serif" font-size="10.00">mlir::SideEffects::</text>
<text text-anchor="start" x="581" y="-335" font-family="Helvetica,sans-Serif" font-size="10.00">Resource::Base&lt; AutomaticAllocation</text>
<text text-anchor="middle" x="674" y="-324" font-family="Helvetica,sans-Serif" font-size="10.00">ScopeResource, DefaultResource &gt;</text>
</a>
</g>
</g>
<!-- Node2&#45;&gt;Node3 -->
<g id="edge1624_Node000002_Node000003" class="edge">
<title>Node2&#45;&gt;Node3</title>
<g id="a_edge1624_Node000002_Node000003"><a xlink:title=" ">
<path fill="none" stroke="#63b8ff" d="M520.65,-337.5C536.96,-337.5 555.04,-337.5 572.89,-337.5"/>
<polygon fill="#63b8ff" stroke="#63b8ff" points="520.21,-334 510.21,-337.5 520.21,-341 520.21,-334"/>
</a>
</g>
</g>
<!-- Node4 -->
<g id="Node000004" class="node">
<title>Node4</title>
<g id="a_Node000004"><a xlink:href="structmlir_1_1SideEffects_1_1AutomaticAllocationScopeResource.html" target="_top" xlink:title="An automatic allocation&#45;scope resource that is valid in the context of a parent AutomaticAllocationSc...">
<polygon fill="white" stroke="#666666" points="1001,-352.5 811,-352.5 811,-322.5 1001,-322.5 1001,-352.5"/>
<text text-anchor="start" x="819" y="-340.5" font-family="Helvetica,sans-Serif" font-size="10.00">mlir::SideEffects::</text>
<text text-anchor="middle" x="906" y="-329.5" font-family="Helvetica,sans-Serif" font-size="10.00">AutomaticAllocationScopeResource</text>
</a>
</g>
</g>
<!-- Node3&#45;&gt;Node4 -->
<g id="edge1625_Node000003_Node000004" class="edge">
<title>Node3&#45;&gt;Node4</title>
<g id="a_edge1625_Node000003_Node000004"><a xlink:title=" ">
<path fill="none" stroke="#63b8ff" d="M785.26,-337.5C793.84,-337.5 802.46,-337.5 810.93,-337.5"/>
<polygon fill="#63b8ff" stroke="#63b8ff" points="785.21,-334 775.21,-337.5 785.21,-341 785.21,-334"/>
</a>
</g>
</g>
<!-- Node6 -->
<g id="Node000006" class="node">
<title>Node6</title>
<g id="a_Node000006"><a xlink:href="structmlir_1_1acc_1_1ConstructResource.html" target="_top" xlink:title=" ">
<polygon fill="white" stroke="#666666" points="537,-299 381,-299 381,-280 537,-280 537,-299"/>
<text text-anchor="middle" x="459" y="-287" font-family="Helvetica,sans-Serif" font-size="10.00">mlir::acc::ConstructResource</text>
</a>
</g>
</g>
<!-- Node5&#45;&gt;Node6 -->
<g id="edge1627_Node000005_Node000006" class="edge">
<title>Node5&#45;&gt;Node6</title>
<g id="a_edge1627_Node000005_Node000006"><a xlink:title=" ">
<path fill="none" stroke="#63b8ff" d="M354.57,-289.5C363.43,-289.5 372.25,-289.5 380.79,-289.5"/>
<polygon fill="#63b8ff" stroke="#63b8ff" points="354.57,-286 344.57,-289.5 354.57,-293 354.57,-286"/>
</a>
</g>
</g>
<!-- Node8 -->
<g id="Node000008" class="node">
<title>Node8</title>
<g id="a_Node000008"><a xlink:href="structmlir_1_1acc_1_1CurrentDeviceIdResource.html" target="_top" xlink:title=" ">
<polygon fill="white" stroke="#666666" points="526,-250.5 392,-250.5 392,-220.5 526,-220.5 526,-250.5"/>
<text text-anchor="start" x="400" y="-238.5" font-family="Helvetica,sans-Serif" font-size="10.00">mlir::acc::CurrentDevice</text>
<text text-anchor="middle" x="459" y="-227.5" font-family="Helvetica,sans-Serif" font-size="10.00">IdResource</text>
</a>
</g>
</g>
<!-- Node7&#45;&gt;Node8 -->
<g id="edge1629_Node000007_Node000008" class="edge">
<title>Node7&#45;&gt;Node8</title>
<g id="a_edge1629_Node000007_Node000008"><a xlink:title=" ">
<path fill="none" stroke="#63b8ff" d="M338.52,-235.5C356.5,-235.5 374.93,-235.5 391.76,-235.5"/>
<polygon fill="#63b8ff" stroke="#63b8ff" points="338.29,-232 328.29,-235.5 338.29,-239 338.29,-232"/>
</a>
</g>
</g>
<!-- Node10 -->
<g id="Node000010" class="node">
<title>Node10</title>
<g id="a_Node000010"><a xlink:href="structmlir_1_1acc_1_1RuntimeCounters.html" target="_top" xlink:title=" ">
<polygon fill="white" stroke="#666666" points="533.5,-191 384.5,-191 384.5,-172 533.5,-172 533.5,-191"/>
<text text-anchor="middle" x="459" y="-179" font-family="Helvetica,sans-Serif" font-size="10.00">mlir::acc::RuntimeCounters</text>
</a>
</g>
</g>
<!-- Node9&#45;&gt;Node10 -->
<g id="edge1631_Node000009_Node000010" class="edge">
<title>Node9&#45;&gt;Node10</title>
<g id="a_edge1631_Node000009_Node000010"><a xlink:title=" ">
<path fill="none" stroke="#63b8ff" d="M351.34,-181.5C362.49,-181.5 373.62,-181.5 384.27,-181.5"/>
<polygon fill="#63b8ff" stroke="#63b8ff" points="351.11,-178 341.11,-181.5 351.11,-185 351.11,-178"/>
</a>
</g>
</g>
<!-- Node12 -->
<g id="Node000012" class="node">
<title>Node12</title>
<g id="a_Node000012"><a xlink:href="structmlir_1_1transform_1_1PayloadIRResource.html" target="_top" xlink:title="Side effect resource corresponding to the Payload IR itself.">
<polygon fill="white" stroke="#666666" points="526,-148.5 392,-148.5 392,-118.5 526,-118.5 526,-148.5"/>
<text text-anchor="start" x="400" y="-136.5" font-family="Helvetica,sans-Serif" font-size="10.00">mlir::transform::Payload</text>
<text text-anchor="middle" x="459" y="-125.5" font-family="Helvetica,sans-Serif" font-size="10.00">IRResource</text>
</a>
</g>
</g>
<!-- Node11&#45;&gt;Node12 -->
<g id="edge1633_Node000011_Node000012" class="edge">
<title>Node11&#45;&gt;Node12</title>
<g id="a_edge1633_Node000011_Node000012"><a xlink:title=" ">
<path fill="none" stroke="#63b8ff" d="M355.22,-133.5C367.71,-133.5 380.11,-133.5 391.75,-133.5"/>
<polygon fill="#63b8ff" stroke="#63b8ff" points="355.2,-130 345.2,-133.5 355.2,-137 355.2,-130"/>
</a>
</g>
</g>
<!-- Node14 -->
<g id="Node000014" class="node">
<title>Node14</title>
<g id="a_Node000014"><a xlink:href="structmlir_1_1transform_1_1TransformMappingResource.html" target="_top" xlink:title="Side effect resource corresponding to the mapping between Transform IR values and Payload IR operatio...">
<polygon fill="white" stroke="#666666" points="531.5,-94.5 386.5,-94.5 386.5,-64.5 531.5,-64.5 531.5,-94.5"/>
<text text-anchor="start" x="394.5" y="-82.5" font-family="Helvetica,sans-Serif" font-size="10.00">mlir::transform::Transform</text>
<text text-anchor="middle" x="459" y="-71.5" font-family="Helvetica,sans-Serif" font-size="10.00">MappingResource</text>
</a>
</g>
</g>
<!-- Node13&#45;&gt;Node14 -->
<g id="edge1635_Node000013_Node000014" class="edge">
<title>Node13&#45;&gt;Node14</title>
<g id="a_edge1635_Node000013_Node000014"><a xlink:title=" ">
<path fill="none" stroke="#63b8ff" d="M348.78,-79.5C361.51,-79.5 374.27,-79.5 386.34,-79.5"/>
<polygon fill="#63b8ff" stroke="#63b8ff" points="348.59,-76 338.59,-79.5 348.59,-83 348.59,-76"/>
</a>
</g>
</g>
</g>
</svg>
