<?xml version="1.0" encoding="UTF-8" standalone="no"?>
<!DOCTYPE svg PUBLIC "-//W3C//DTD SVG 1.1//EN"
 "http://www.w3.org/Graphics/SVG/1.1/DTD/svg11.dtd">
<!-- Generated by graphviz version 2.43.0 (0)
 -->
<!-- Title: Graphical Class Hierarchy Pages: 1 -->
<svg width="568pt" height="372pt"
 viewBox="0.00 0.00 568.00 372.00" xmlns="http://www.w3.org/2000/svg" xmlns:xlink="http://www.w3.org/1999/xlink">
<g id="graph0" class="graph" transform="scale(1 1) rotate(0) translate(4 368)">
<title>Graphical Class Hierarchy</title>
<!-- Node947 -->
<g id="node1" class="node">
<title>Node947</title>
<g id="a_node1"><a xlink:title=" ">
<polygon fill="none" stroke="#bfbfbf" points="0,-144.5 0,-174.5 132,-174.5 132,-144.5 0,-144.5"/>
<text text-anchor="start" x="8" y="-162.5" font-family="Helvetica,sans-Serif" font-size="10.00">BufferizableOpInterface</text>
<text text-anchor="middle" x="66" y="-151.5" font-family="Helvetica,sans-Serif" font-size="10.00">::ExternalModel</text>
</a>
</g>
</g>
<!-- Node0 -->
<g id="node2" class="node">
<title>Node0</title>
<g id="a_node2"><a xlink:href="structmlir_1_1bufferization_1_1OpWithUnstructuredControlFlowBufferizableOpInterfaceExternalModel.html" target="_top" xlink:title=" ">
<polygon fill="none" stroke="black" points="173,-311.5 173,-363.5 369,-363.5 369,-311.5 173,-311.5"/>
<text text-anchor="start" x="181" y="-351.5" font-family="Helvetica,sans-Serif" font-size="10.00">mlir::bufferization</text>
<text text-anchor="start" x="181" y="-340.5" font-family="Helvetica,sans-Serif" font-size="10.00">::OpWithUnstructuredControl</text>
<text text-anchor="start" x="181" y="-329.5" font-family="Helvetica,sans-Serif" font-size="10.00">FlowBufferizableOpInterfaceExternal</text>
<text text-anchor="middle" x="271" y="-318.5" font-family="Helvetica,sans-Serif" font-size="10.00">Model&lt; FuncOpInterface, FuncOp &gt;</text>
</a>
</g>
</g>
<!-- Node947&#45;&gt;Node0 -->
<g id="edge1" class="edge">
<title>Node947&#45;&gt;Node0</title>
<path fill="none" stroke="midnightblue" d="M78.18,-183.86C93.9,-215.55 125.46,-270.62 168,-302.5 172.34,-305.76 177.01,-308.72 181.88,-311.43"/>
<polygon fill="midnightblue" stroke="midnightblue" points="81.32,-182.31 73.81,-174.83 75.01,-185.35 81.32,-182.31"/>
</g>
<!-- Node950 -->
<g id="node4" class="node">
<title>Node950</title>
<g id="a_node4"><a xlink:href="structmlir_1_1bufferization_1_1BranchOpBufferizableOpInterfaceExternalModel.html" target="_top" xlink:title="A template that provides a default implementation of getAliasingValues for ops that implement the Bra...">
<polygon fill="none" stroke="black" points="178.5,-240.5 178.5,-292.5 363.5,-292.5 363.5,-240.5 178.5,-240.5"/>
<text text-anchor="start" x="186.5" y="-280.5" font-family="Helvetica,sans-Serif" font-size="10.00">mlir::bufferization</text>
<text text-anchor="start" x="186.5" y="-269.5" font-family="Helvetica,sans-Serif" font-size="10.00">::BranchOpBufferizableOpInterface</text>
<text text-anchor="start" x="186.5" y="-258.5" font-family="Helvetica,sans-Serif" font-size="10.00">ExternalModel&lt; ConcreteModel,</text>
<text text-anchor="middle" x="271" y="-247.5" font-family="Helvetica,sans-Serif" font-size="10.00"> ConcreteOp &gt;</text>
</a>
</g>
</g>
<!-- Node947&#45;&gt;Node950 -->
<g id="edge3" class="edge">
<title>Node947&#45;&gt;Node950</title>
<path fill="none" stroke="midnightblue" d="M92.81,-181.09C112.46,-196.71 140.69,-217.46 168,-231.5 174.16,-234.67 180.67,-237.65 187.3,-240.44"/>
<polygon fill="midnightblue" stroke="midnightblue" points="94.93,-178.3 84.94,-174.75 90.53,-183.75 94.93,-178.3"/>
</g>
<!-- Node951 -->
<g id="node5" class="node">
<title>Node951</title>
<g id="a_node5"><a xlink:href="structmlir_1_1bufferization_1_1DstBufferizableOpInterfaceExternalModel.html" target="_top" xlink:title="Bufferizable ops that implement the DestinationStyleOpInterface can use this external model base clas...">
<polygon fill="none" stroke="black" points="183.5,-169.5 183.5,-221.5 358.5,-221.5 358.5,-169.5 183.5,-169.5"/>
<text text-anchor="start" x="191.5" y="-209.5" font-family="Helvetica,sans-Serif" font-size="10.00">mlir::bufferization</text>
<text text-anchor="start" x="191.5" y="-198.5" font-family="Helvetica,sans-Serif" font-size="10.00">::DstBufferizableOpInterface</text>
<text text-anchor="start" x="191.5" y="-187.5" font-family="Helvetica,sans-Serif" font-size="10.00">ExternalModel&lt; ConcreteModel,</text>
<text text-anchor="middle" x="271" y="-176.5" font-family="Helvetica,sans-Serif" font-size="10.00"> ConcreteOp &gt;</text>
</a>
</g>
</g>
<!-- Node947&#45;&gt;Node951 -->
<g id="edge4" class="edge">
<title>Node947&#45;&gt;Node951</title>
<path fill="none" stroke="midnightblue" d="M142.2,-172.84C155.63,-175.22 169.72,-177.72 183.45,-180.15"/>
<polygon fill="midnightblue" stroke="midnightblue" points="142.53,-169.34 132.07,-171.04 141.3,-176.23 142.53,-169.34"/>
</g>
<!-- Node952 -->
<g id="node6" class="node">
<title>Node952</title>
<g id="a_node6"><a xlink:href="structmlir_1_1bufferization_1_1OpWithUnstructuredControlFlowBufferizableOpInterfaceExternalModel.html" target="_top" xlink:title="A template that provides a default implementation of getAliasingOpOperands for ops that support unstr...">
<polygon fill="none" stroke="black" points="168,-98.5 168,-150.5 374,-150.5 374,-98.5 168,-98.5"/>
<text text-anchor="start" x="176" y="-138.5" font-family="Helvetica,sans-Serif" font-size="10.00">mlir::bufferization</text>
<text text-anchor="start" x="176" y="-127.5" font-family="Helvetica,sans-Serif" font-size="10.00">::OpWithUnstructuredControl</text>
<text text-anchor="start" x="176" y="-116.5" font-family="Helvetica,sans-Serif" font-size="10.00">FlowBufferizableOpInterfaceExternal</text>
<text text-anchor="middle" x="271" y="-105.5" font-family="Helvetica,sans-Serif" font-size="10.00">Model&lt; ConcreteModel, ConcreteOp &gt;</text>
</a>
</g>
</g>
<!-- Node947&#45;&gt;Node952 -->
<g id="edge5" class="edge">
<title>Node947&#45;&gt;Node952</title>
<path fill="none" stroke="midnightblue" d="M142.19,-146.54C150.6,-145.09 159.28,-143.59 167.96,-142.09"/>
<polygon fill="midnightblue" stroke="midnightblue" points="141.33,-143.13 132.07,-148.28 142.52,-150.03 141.33,-143.13"/>
</g>
<!-- Node953 -->
<g id="node7" class="node">
<title>Node953</title>
<g id="a_node7"><a xlink:href="structmlir_1_1bufferization_1_1func__ext_1_1CallOpInterface.html" target="_top" xlink:title=" ">
<polygon fill="none" stroke="black" points="198,-49.5 198,-79.5 344,-79.5 344,-49.5 198,-49.5"/>
<text text-anchor="start" x="206" y="-67.5" font-family="Helvetica,sans-Serif" font-size="10.00">mlir::bufferization</text>
<text text-anchor="middle" x="271" y="-56.5" font-family="Helvetica,sans-Serif" font-size="10.00">::func_ext::CallOpInterface</text>
</a>
</g>
</g>
<!-- Node947&#45;&gt;Node953 -->
<g id="edge6" class="edge">
<title>Node947&#45;&gt;Node953</title>
<path fill="none" stroke="midnightblue" d="M92.2,-138.11C111.73,-122.55 140.09,-102.07 168,-89.5 177.39,-85.27 187.61,-81.69 197.82,-78.68"/>
<polygon fill="midnightblue" stroke="midnightblue" points="89.96,-135.42 84.4,-144.44 94.37,-140.86 89.96,-135.42"/>
</g>
<!-- Node954 -->
<g id="node8" class="node">
<title>Node954</title>
<g id="a_node8"><a xlink:href="structmlir_1_1bufferization_1_1func__ext_1_1ReturnOpInterface.html" target="_top" xlink:title=" ">
<polygon fill="none" stroke="black" points="191,-0.5 191,-30.5 351,-30.5 351,-0.5 191,-0.5"/>
<text text-anchor="start" x="199" y="-18.5" font-family="Helvetica,sans-Serif" font-size="10.00">mlir::bufferization</text>
<text text-anchor="middle" x="271" y="-7.5" font-family="Helvetica,sans-Serif" font-size="10.00">::func_ext::ReturnOpInterface</text>
</a>
</g>
</g>
<!-- Node947&#45;&gt;Node954 -->
<g id="edge7" class="edge">
<title>Node947&#45;&gt;Node954</title>
<path fill="none" stroke="midnightblue" d="M80.82,-135.55C97.82,-108.3 129.24,-64.46 168,-40.5 175.06,-36.14 182.83,-32.54 190.83,-29.56"/>
<polygon fill="midnightblue" stroke="midnightblue" points="77.62,-134.08 75.42,-144.44 83.6,-137.71 77.62,-134.08"/>
</g>
<!-- Node1 -->
<g id="node3" class="node">
<title>Node1</title>
<g id="a_node3"><a xlink:href="structmlir_1_1bufferization_1_1func__ext_1_1FuncOpInterface.html" target="_top" xlink:title=" ">
<polygon fill="none" stroke="black" points="410,-322.5 410,-352.5 560,-352.5 560,-322.5 410,-322.5"/>
<text text-anchor="start" x="418" y="-340.5" font-family="Helvetica,sans-Serif" font-size="10.00">mlir::bufferization</text>
<text text-anchor="middle" x="485" y="-329.5" font-family="Helvetica,sans-Serif" font-size="10.00">::func_ext::FuncOpInterface</text>
</a>
</g>
</g>
<!-- Node0&#45;&gt;Node1 -->
<g id="edge2" class="edge">
<title>Node0&#45;&gt;Node1</title>
<path fill="none" stroke="midnightblue" d="M379.01,-337.5C389.45,-337.5 399.88,-337.5 409.89,-337.5"/>
<polygon fill="midnightblue" stroke="midnightblue" points="379,-334 369,-337.5 379,-341 379,-334"/>
</g>
</g>
</svg>
