<?xml version="1.0" encoding="UTF-8" standalone="no"?>
<!DOCTYPE svg PUBLIC "-//W3C//DTD SVG 1.1//EN"
 "http://www.w3.org/Graphics/SVG/1.1/DTD/svg11.dtd">
<!-- Generated by graphviz version 2.43.0 (0)
 -->
<!-- Title: Graphical Class Hierarchy Pages: 1 -->
<svg width="397pt" height="108pt"
 viewBox="0.00 0.00 397.00 108.00" xmlns="http://www.w3.org/2000/svg" xmlns:xlink="http://www.w3.org/1999/xlink">
<g id="graph0" class="graph" transform="scale(1 1) rotate(0) translate(4 104)">
<title>Graphical Class Hierarchy</title>
<!-- Node0 -->
<g id="Node000000" class="node">
<title>Node0</title>
<g id="a_Node000000"><a xlink:href="classmlir_1_1python_1_1MLIR__BINDINGS__PYTHON__DOMAIN_1_1PyDynamicOpTrait.html" target="_top" xlink:title=" ">
<polygon fill="white" stroke="#666666" points="163,-70 0,-70 0,-29 163,-29 163,-70"/>
<text text-anchor="start" x="8" y="-58" font-family="Helvetica,sans-Serif" font-size="10.00">mlir::python::MLIR</text>
<text text-anchor="start" x="8" y="-47" font-family="Helvetica,sans-Serif" font-size="10.00">_BINDINGS_PYTHON_DOMAIN</text>
<text text-anchor="middle" x="81.5" y="-36" font-family="Helvetica,sans-Serif" font-size="10.00">::PyDynamicOpTrait</text>
</a>
</g>
</g>
<!-- Node1 -->
<g id="Node000001" class="node">
<title>Node1</title>
<g id="a_Node000001"><a xlink:href="classmlir_1_1python_1_1MLIR__BINDINGS__PYTHON__DOMAIN_1_1PyDynamicOpTraits_1_1IsTerminator.html" target="_top" xlink:title=" ">
<polygon fill="white" stroke="#666666" points="386.5,-100 201.5,-100 201.5,-59 386.5,-59 386.5,-100"/>
<text text-anchor="start" x="209.5" y="-88" font-family="Helvetica,sans-Serif" font-size="10.00">mlir::python::MLIR</text>
<text text-anchor="start" x="209.5" y="-77" font-family="Helvetica,sans-Serif" font-size="10.00">_BINDINGS_PYTHON_DOMAIN</text>
<text text-anchor="middle" x="294" y="-66" font-family="Helvetica,sans-Serif" font-size="10.00">::PyDynamicOpTraits::IsTerminator</text>
</a>
</g>
</g>
<!-- Node0&#45;&gt;Node1 -->
<g id="edge1584_Node000000_Node000001" class="edge">
<title>Node0&#45;&gt;Node1</title>
<g id="a_edge1584_Node000000_Node000001"><a xlink:title=" ">
<path fill="none" stroke="#63b8ff" d="M173.26,-62.43C182.52,-63.75 191.93,-65.1 201.2,-66.42"/>
<polygon fill="#63b8ff" stroke="#63b8ff" points="173.68,-58.96 163.28,-61.01 172.69,-65.89 173.68,-58.96"/>
</a>
</g>
</g>
<!-- Node2 -->
<g id="Node000002" class="node">
<title>Node2</title>
<g id="a_Node000002"><a xlink:href="classmlir_1_1python_1_1MLIR__BINDINGS__PYTHON__DOMAIN_1_1PyDynamicOpTraits_1_1NoTerminator.html" target="_top" xlink:title=" ">
<polygon fill="white" stroke="#666666" points="389,-41 199,-41 199,0 389,0 389,-41"/>
<text text-anchor="start" x="207" y="-29" font-family="Helvetica,sans-Serif" font-size="10.00">mlir::python::MLIR</text>
<text text-anchor="start" x="207" y="-18" font-family="Helvetica,sans-Serif" font-size="10.00">_BINDINGS_PYTHON_DOMAIN</text>
<text text-anchor="middle" x="294" y="-7" font-family="Helvetica,sans-Serif" font-size="10.00">::PyDynamicOpTraits::NoTerminator</text>
</a>
</g>
</g>
<!-- Node0&#45;&gt;Node2 -->
<g id="edge1585_Node000000_Node000002" class="edge">
<title>Node0&#45;&gt;Node2</title>
<g id="a_edge1585_Node000000_Node000002"><a xlink:title=" ">
<path fill="none" stroke="#63b8ff" d="M173.43,-36.97C181.81,-35.82 190.31,-34.65 198.72,-33.49"/>
<polygon fill="#63b8ff" stroke="#63b8ff" points="172.71,-33.54 163.28,-38.37 173.67,-40.47 172.71,-33.54"/>
</a>
</g>
</g>
</g>
</svg>
