<?xml version="1.0" encoding="UTF-8" standalone="no"?>
<!DOCTYPE svg PUBLIC "-//W3C//DTD SVG 1.1//EN"
 "http://www.w3.org/Graphics/SVG/1.1/DTD/svg11.dtd">
<!-- Generated by graphviz version 2.43.0 (0)
 -->
<!-- Title: Graphical Class Hierarchy Pages: 1 -->
<svg width="367pt" height="230pt"
 viewBox="0.00 0.00 367.00 230.00" xmlns="http://www.w3.org/2000/svg" xmlns:xlink="http://www.w3.org/1999/xlink">
<g id="graph0" class="graph" transform="scale(1 1) rotate(0) translate(4 226)">
<title>Graphical Class Hierarchy</title>
<!-- Node0 -->
<g id="Node000000" class="node">
<title>Node0</title>
<g id="a_Node000000"><a xlink:href="classmlir_1_1detail_1_1StorageUserTraitBase.html" target="_top" xlink:title="Helper class for implementing traits for storage classes.">
<polygon fill="white" stroke="#666666" points="142,-131.5 0,-131.5 0,-90.5 142,-90.5 142,-131.5"/>
<text text-anchor="start" x="8" y="-119.5" font-family="Helvetica,sans-Serif" font-size="10.00">mlir::detail::StorageUser</text>
<text text-anchor="start" x="8" y="-108.5" font-family="Helvetica,sans-Serif" font-size="10.00">TraitBase&lt; ConcreteType,</text>
<text text-anchor="middle" x="71" y="-97.5" font-family="Helvetica,sans-Serif" font-size="10.00"> TraitType &gt;</text>
</a>
</g>
</g>
<!-- Node1 -->
<g id="Node000001" class="node">
<title>Node1</title>
<g id="a_Node000001"><a xlink:href="classmlir_1_1AttributeTrait_1_1IsDynamicAttr.html" target="_top" xlink:title=" ">
<polygon fill="white" stroke="#666666" points="359,-222 178,-222 178,-192 359,-192 359,-222"/>
<text text-anchor="start" x="186" y="-210" font-family="Helvetica,sans-Serif" font-size="10.00">mlir::AttributeTrait</text>
<text text-anchor="middle" x="268.5" y="-199" font-family="Helvetica,sans-Serif" font-size="10.00">::IsDynamicAttr&lt; ConcreteType &gt;</text>
</a>
</g>
</g>
<!-- Node0&#45;&gt;Node1 -->
<g id="edge759_Node000000_Node000001" class="edge">
<title>Node0&#45;&gt;Node1</title>
<g id="a_edge759_Node000000_Node000001"><a xlink:title=" ">
<path fill="none" stroke="#63b8ff" d="M105.29,-137.89C125.35,-152.97 151.98,-171.09 178,-183 185.31,-186.35 193.18,-189.3 201.12,-191.89"/>
<polygon fill="#63b8ff" stroke="#63b8ff" points="107.18,-134.93 97.11,-131.64 102.93,-140.49 107.18,-134.93"/>
</a>
</g>
</g>
<!-- Node2 -->
<g id="Node000002" class="node">
<title>Node2</title>
<g id="a_Node000002"><a xlink:href="structmlir_1_1AttributeTrait_1_1IsLocation.html" target="_top" xlink:title="This trait is used to determine if an attribute is a location or not.">
<polygon fill="white" stroke="#666666" points="349,-174 188,-174 188,-144 349,-144 349,-174"/>
<text text-anchor="start" x="196" y="-162" font-family="Helvetica,sans-Serif" font-size="10.00">mlir::AttributeTrait</text>
<text text-anchor="middle" x="268.5" y="-151" font-family="Helvetica,sans-Serif" font-size="10.00">::IsLocation&lt; ConcreteType &gt;</text>
</a>
</g>
</g>
<!-- Node0&#45;&gt;Node2 -->
<g id="edge760_Node000000_Node000002" class="edge">
<title>Node0&#45;&gt;Node2</title>
<g id="a_edge760_Node000000_Node000002"><a xlink:title=" ">
<path fill="none" stroke="#63b8ff" d="M151.76,-130.58C169.98,-135.06 189.08,-139.75 206.38,-143.99"/>
<polygon fill="#63b8ff" stroke="#63b8ff" points="152.57,-127.18 142.03,-128.19 150.9,-133.98 152.57,-127.18"/>
</a>
</g>
</g>
<!-- Node3 -->
<g id="Node000003" class="node">
<title>Node3</title>
<g id="a_Node000003"><a xlink:href="classmlir_1_1TypeTrait_1_1IsDynamicType.html" target="_top" xlink:title=" ">
<polygon fill="white" stroke="#666666" points="340,-126 197,-126 197,-96 340,-96 340,-126"/>
<text text-anchor="start" x="205" y="-114" font-family="Helvetica,sans-Serif" font-size="10.00">mlir::TypeTrait::IsDynamic</text>
<text text-anchor="middle" x="268.5" y="-103" font-family="Helvetica,sans-Serif" font-size="10.00">Type&lt; ConcreteType &gt;</text>
</a>
</g>
</g>
<!-- Node0&#45;&gt;Node3 -->
<g id="edge761_Node000000_Node000003" class="edge">
<title>Node0&#45;&gt;Node3</title>
<g id="a_edge761_Node000000_Node000003"><a xlink:title=" ">
<path fill="none" stroke="#63b8ff" d="M152.2,-111C167.04,-111 182.44,-111 196.98,-111"/>
<polygon fill="#63b8ff" stroke="#63b8ff" points="152.03,-107.5 142.03,-111 152.03,-114.5 152.03,-107.5"/>
</a>
</g>
</g>
<!-- Node4 -->
<g id="Node000004" class="node">
<title>Node4</title>
<g id="a_Node000004"><a xlink:href="classmlir_1_1ValueSemantics.html" target="_top" xlink:title="Type trait indicating that the type has value semantics.">
<polygon fill="white" stroke="#666666" points="328.5,-78 208.5,-78 208.5,-48 328.5,-48 328.5,-78"/>
<text text-anchor="start" x="216.5" y="-66" font-family="Helvetica,sans-Serif" font-size="10.00">mlir::ValueSemantics</text>
<text text-anchor="middle" x="268.5" y="-55" font-family="Helvetica,sans-Serif" font-size="10.00">&lt; ConcreteType &gt;</text>
</a>
</g>
</g>
<!-- Node0&#45;&gt;Node4 -->
<g id="edge762_Node000000_Node000004" class="edge">
<title>Node0&#45;&gt;Node4</title>
<g id="a_edge762_Node000000_Node000004"><a xlink:title=" ">
<path fill="none" stroke="#63b8ff" d="M151.8,-91.41C170.69,-86.77 190.5,-81.91 208.29,-77.54"/>
<polygon fill="#63b8ff" stroke="#63b8ff" points="150.9,-88.02 142.03,-93.81 152.57,-94.82 150.9,-88.02"/>
</a>
</g>
</g>
<!-- Node5 -->
<g id="Node000005" class="node">
<title>Node5</title>
<g id="a_Node000005"><a xlink:href="classmlir_1_1gpu_1_1OffloadingTranslationAttrTrait.html" target="_top" xlink:title="This class indicates that the attribute associated with this trait is a GPU offloading translation at...">
<polygon fill="white" stroke="#666666" points="353.5,-30 183.5,-30 183.5,0 353.5,0 353.5,-30"/>
<text text-anchor="start" x="191.5" y="-18" font-family="Helvetica,sans-Serif" font-size="10.00">mlir::gpu::OffloadingTranslation</text>
<text text-anchor="middle" x="268.5" y="-7" font-family="Helvetica,sans-Serif" font-size="10.00">AttrTrait&lt; ConcreteType &gt;</text>
</a>
</g>
</g>
<!-- Node0&#45;&gt;Node5 -->
<g id="edge763_Node000000_Node000005" class="edge">
<title>Node0&#45;&gt;Node5</title>
<g id="a_edge763_Node000000_Node000005"><a xlink:title=" ">
<path fill="none" stroke="#63b8ff" d="M105.29,-84.11C125.35,-69.03 151.98,-50.91 178,-39 185.31,-35.65 193.18,-32.7 201.12,-30.11"/>
<polygon fill="#63b8ff" stroke="#63b8ff" points="102.93,-81.51 97.11,-90.36 107.18,-87.07 102.93,-81.51"/>
</a>
</g>
</g>
</g>
</svg>
