<?xml version="1.0" encoding="UTF-8" standalone="no"?>
<!DOCTYPE svg PUBLIC "-//W3C//DTD SVG 1.1//EN"
 "http://www.w3.org/Graphics/SVG/1.1/DTD/svg11.dtd">
<!-- Generated by graphviz version 2.43.0 (0)
 -->
<!-- Title: Graphical Class Hierarchy Pages: 1 -->
<svg width="359pt" height="76pt"
 viewBox="0.00 0.00 359.00 75.50" xmlns="http://www.w3.org/2000/svg" xmlns:xlink="http://www.w3.org/1999/xlink">
<g id="graph0" class="graph" transform="scale(1 1) rotate(0) translate(4 71.5)">
<title>Graphical Class Hierarchy</title>
<!-- Node0 -->
<g id="Node000000" class="node">
<title>Node0</title>
<g id="a_Node000000"><a xlink:href="classmlir_1_1tblgen_1_1FmtObjectBase.html" target="_top" xlink:title=" ">
<polygon fill="white" stroke="#666666" points="154,-40 0,-40 0,-21 154,-21 154,-40"/>
<text text-anchor="middle" x="77" y="-28" font-family="Helvetica,sans-Serif" font-size="10.00">mlir::tblgen::FmtObjectBase</text>
</a>
</g>
</g>
<!-- Node1 -->
<g id="Node000001" class="node">
<title>Node1</title>
<g id="a_Node000001"><a xlink:href="classmlir_1_1tblgen_1_1FmtObject.html" target="_top" xlink:title=" ">
<polygon fill="white" stroke="#666666" points="335.5,-67.5 205.5,-67.5 205.5,-37.5 335.5,-37.5 335.5,-67.5"/>
<text text-anchor="start" x="213.5" y="-55.5" font-family="Helvetica,sans-Serif" font-size="10.00">mlir::tblgen::FmtObject</text>
<text text-anchor="middle" x="270.5" y="-44.5" font-family="Helvetica,sans-Serif" font-size="10.00">&lt; Tuple &gt;</text>
</a>
</g>
</g>
<!-- Node0&#45;&gt;Node1 -->
<g id="edge1585_Node000000_Node000001" class="edge">
<title>Node0&#45;&gt;Node1</title>
<g id="a_edge1585_Node000000_Node000001"><a xlink:title=" ">
<path fill="none" stroke="#63b8ff" d="M164.22,-40.4C178.01,-41.99 192.07,-43.6 205.24,-45.12"/>
<polygon fill="#63b8ff" stroke="#63b8ff" points="164.57,-36.92 154.24,-39.26 163.77,-43.88 164.57,-36.92"/>
</a>
</g>
</g>
<!-- Node2 -->
<g id="Node000002" class="node">
<title>Node2</title>
<g id="a_Node000002"><a xlink:href="classmlir_1_1tblgen_1_1FmtStrVecObject.html" target="_top" xlink:title=" ">
<polygon fill="white" stroke="#666666" points="351,-19 190,-19 190,0 351,0 351,-19"/>
<text text-anchor="middle" x="270.5" y="-7" font-family="Helvetica,sans-Serif" font-size="10.00">mlir::tblgen::FmtStrVecObject</text>
</a>
</g>
</g>
<!-- Node0&#45;&gt;Node2 -->
<g id="edge1586_Node000000_Node000002" class="edge">
<title>Node0&#45;&gt;Node2</title>
<g id="a_edge1586_Node000000_Node000002"><a xlink:title=" ">
<path fill="none" stroke="#63b8ff" d="M164.45,-21.02C172.88,-20.1 181.4,-19.16 189.76,-18.24"/>
<polygon fill="#63b8ff" stroke="#63b8ff" points="163.79,-17.57 154.24,-22.14 164.56,-24.53 163.79,-17.57"/>
</a>
</g>
</g>
</g>
</svg>
