<?xml version="1.0" encoding="UTF-8" standalone="no"?>
<!DOCTYPE svg PUBLIC "-//W3C//DTD SVG 1.1//EN"
 "http://www.w3.org/Graphics/SVG/1.1/DTD/svg11.dtd">
<!-- Generated by graphviz version 2.43.0 (0)
 -->
<!-- Title: Graphical Class Hierarchy Pages: 1 -->
<svg width="258pt" height="64pt"
 viewBox="0.00 0.00 258.00 64.00" xmlns="http://www.w3.org/2000/svg" xmlns:xlink="http://www.w3.org/1999/xlink">
<g id="graph0" class="graph" transform="scale(1 1) rotate(0) translate(4 60)">
<title>Graphical Class Hierarchy</title>
<!-- Node0 -->
<g id="Node000000" class="node">
<title>Node0</title>
<g id="a_Node000000"><a xlink:href="classllvm_1_1cl_1_1parser.html" target="_top" xlink:title=" ">
<polygon fill="white" stroke="#666666" points="89,-37 0,-37 0,-18 89,-18 89,-37"/>
<text text-anchor="middle" x="44.5" y="-25" font-family="Helvetica,sans-Serif" font-size="10.00">llvm::cl::parser</text>
</a>
</g>
</g>
<!-- Node1 -->
<g id="Node000001" class="node">
<title>Node1</title>
<g id="a_Node000001"><a xlink:href="structmlir_1_1GenNameParser.html" target="_top" xlink:title="Adds command line option for each registered generator.">
<polygon fill="white" stroke="#666666" points="248,-56 127,-56 127,-37 248,-37 248,-56"/>
<text text-anchor="middle" x="187.5" y="-44" font-family="Helvetica,sans-Serif" font-size="10.00">mlir::GenNameParser</text>
</a>
</g>
</g>
<!-- Node0&#45;&gt;Node1 -->
<g id="edge470_Node000000_Node000001" class="edge">
<title>Node0&#45;&gt;Node1</title>
<g id="a_edge470_Node000000_Node000001"><a xlink:title=" ">
<path fill="none" stroke="#63b8ff" d="M99.32,-34.75C108.34,-35.97 117.74,-37.23 126.89,-38.47"/>
<polygon fill="#63b8ff" stroke="#63b8ff" points="99.72,-31.27 89.34,-33.41 98.78,-38.21 99.72,-31.27"/>
</a>
</g>
</g>
<!-- Node2 -->
<g id="Node000002" class="node">
<title>Node2</title>
<g id="a_Node000002"><a xlink:href="structmlir_1_1TranslationParser.html" target="_top" xlink:title="A command line parser for translation functions.">
<polygon fill="white" stroke="#666666" points="250,-19 125,-19 125,0 250,0 250,-19"/>
<text text-anchor="middle" x="187.5" y="-7" font-family="Helvetica,sans-Serif" font-size="10.00">mlir::TranslationParser</text>
</a>
</g>
</g>
<!-- Node0&#45;&gt;Node2 -->
<g id="edge471_Node000000_Node000002" class="edge">
<title>Node0&#45;&gt;Node2</title>
<g id="a_edge471_Node000000_Node000002"><a xlink:title=" ">
<path fill="none" stroke="#63b8ff" d="M99.32,-20.63C107.66,-19.56 116.33,-18.46 124.83,-17.37"/>
<polygon fill="#63b8ff" stroke="#63b8ff" points="98.82,-17.17 89.34,-21.9 99.7,-24.11 98.82,-17.17"/>
</a>
</g>
</g>
</g>
</svg>
