<?xml version="1.0" encoding="UTF-8" standalone="no"?>
<!DOCTYPE svg PUBLIC "-//W3C//DTD SVG 1.1//EN"
 "http://www.w3.org/Graphics/SVG/1.1/DTD/svg11.dtd">
<!-- Generated by graphviz version 2.43.0 (0)
 -->
<!-- Title: Graphical Class Hierarchy Pages: 1 -->
<svg width="341pt" height="927pt"
 viewBox="0.00 0.00 341.00 926.50" xmlns="http://www.w3.org/2000/svg" xmlns:xlink="http://www.w3.org/1999/xlink">
<g id="graph0" class="graph" transform="scale(1 1) rotate(0) translate(4 922.5)">
<title>Graphical Class Hierarchy</title>
<!-- Node0 -->
<g id="Node000000" class="node">
<title>Node0</title>
<g id="a_Node000000"><a xlink:title=" ">
<polygon fill="#e0e0e0" stroke="#999999" points="89,-412 0,-412 0,-393 89,-393 89,-412"/>
<text text-anchor="middle" x="44.5" y="-400" font-family="Helvetica,sans-Serif" font-size="10.00">std::false_type</text>
</a>
</g>
</g>
<!-- Node1 -->
<g id="Node000001" class="node">
<title>Node1</title>
<g id="a_Node000001"><a xlink:href="structmlir_1_1Sliceable_1_1has__maybe__downcast_3_01T_00_01std_1_1void__t_3_01decltype_07_6T_1_1maybeDownCast_08_4_01_4.html" target="_top" xlink:title=" ">
<polygon fill="white" stroke="#666666" points="333,-918.5 125,-918.5 125,-866.5 333,-866.5 333,-918.5"/>
<text text-anchor="start" x="133" y="-906.5" font-family="Helvetica,sans-Serif" font-size="10.00">mlir::Sliceable&lt; Derived,</text>
<text text-anchor="start" x="133" y="-895.5" font-family="Helvetica,sans-Serif" font-size="10.00"> ElementTy &gt;::has_maybe</text>
<text text-anchor="start" x="133" y="-884.5" font-family="Helvetica,sans-Serif" font-size="10.00">_downcast&lt; T, std::void</text>
<text text-anchor="middle" x="229" y="-873.5" font-family="Helvetica,sans-Serif" font-size="10.00">_t&lt; decltype(&amp;T::maybeDownCast)&gt; &gt;</text>
</a>
</g>
</g>
<!-- Node0&#45;&gt;Node1 -->
<g id="edge2006_Node000000_Node000001" class="edge">
<title>Node0&#45;&gt;Node1</title>
<g id="a_edge2006_Node000000_Node000001"><a xlink:title=" ">
<path fill="none" stroke="#63b8ff" d="M48.67,-422.26C62.57,-508.63 117.72,-848.99 125,-857.5 127.83,-860.8 130.97,-863.79 134.37,-866.5"/>
<polygon fill="#63b8ff" stroke="#63b8ff" points="52.1,-421.54 47.06,-412.22 45.19,-422.65 52.1,-421.54"/>
</a>
</g>
</g>
<!-- Node3 -->
<g id="Node000003" class="node">
<title>Node3</title>
<g id="a_Node000003"><a xlink:href="structmlir_1_1detail_1_1is__complex__t_3_01mlir_1_1NonFloatComplex_3_01T_01_4_01_4.html" target="_top" xlink:title=" ">
<polygon fill="white" stroke="#666666" points="324,-848.5 134,-848.5 134,-818.5 324,-818.5 324,-848.5"/>
<text text-anchor="start" x="142" y="-836.5" font-family="Helvetica,sans-Serif" font-size="10.00">mlir::detail::is_complex</text>
<text text-anchor="middle" x="229" y="-825.5" font-family="Helvetica,sans-Serif" font-size="10.00">_t&lt; mlir::NonFloatComplex&lt; T &gt; &gt;</text>
</a>
</g>
</g>
<!-- Node0&#45;&gt;Node3 -->
<g id="edge2007_Node000000_Node000003" class="edge">
<title>Node0&#45;&gt;Node3</title>
<g id="a_edge2007_Node000000_Node000003"><a xlink:title=" ">
<path fill="none" stroke="#63b8ff" d="M48.76,-422.3C61.92,-501.94 111.18,-795.18 125,-809.5 128.19,-812.8 131.73,-815.69 135.54,-818.21"/>
<polygon fill="#63b8ff" stroke="#63b8ff" points="52.16,-421.46 47.08,-412.16 45.26,-422.6 52.16,-421.46"/>
</a>
</g>
</g>
<!-- Node4 -->
<g id="Node000004" class="node">
<title>Node4</title>
<g id="a_Node000004"><a xlink:href="structmlir_1_1detail_1_1is__complex__t_3_01std_1_1complex_3_01T_01_4_01_4.html" target="_top" xlink:title=" ">
<polygon fill="white" stroke="#666666" points="299,-800.5 159,-800.5 159,-770.5 299,-770.5 299,-800.5"/>
<text text-anchor="start" x="167" y="-788.5" font-family="Helvetica,sans-Serif" font-size="10.00">mlir::detail::is_complex</text>
<text text-anchor="middle" x="229" y="-777.5" font-family="Helvetica,sans-Serif" font-size="10.00">_t&lt; std::complex&lt; T &gt; &gt;</text>
</a>
</g>
</g>
<!-- Node0&#45;&gt;Node4 -->
<g id="edge2008_Node000000_Node000004" class="edge">
<title>Node0&#45;&gt;Node4</title>
<g id="a_edge2008_Node000000_Node000004"><a xlink:title=" ">
<path fill="none" stroke="#63b8ff" d="M48.57,-421.93C59.97,-493.11 100.5,-736.73 125,-761.5 134.17,-770.77 146.17,-776.74 158.74,-780.54"/>
<polygon fill="#63b8ff" stroke="#63b8ff" points="52.02,-421.38 46.99,-412.05 45.11,-422.48 52.02,-421.38"/>
</a>
</g>
</g>
<!-- Node5 -->
<g id="Node000005" class="node">
<title>Node5</title>
<g id="a_Node000005"><a xlink:href="structmlir_1_1detail_1_1is__pair_3_01std_1_1pair_3_01Ts_8_8_8_01_4_01_4.html" target="_top" xlink:title=" ">
<polygon fill="white" stroke="#666666" points="289,-752.5 169,-752.5 169,-722.5 289,-722.5 289,-752.5"/>
<text text-anchor="start" x="177" y="-740.5" font-family="Helvetica,sans-Serif" font-size="10.00">mlir::detail::is_pair</text>
<text text-anchor="middle" x="229" y="-729.5" font-family="Helvetica,sans-Serif" font-size="10.00">&lt; std::pair&lt; Ts... &gt; &gt;</text>
</a>
</g>
</g>
<!-- Node0&#45;&gt;Node5 -->
<g id="edge2009_Node000000_Node000005" class="edge">
<title>Node0&#45;&gt;Node5</title>
<g id="a_edge2009_Node000000_Node000005"><a xlink:title=" ">
<path fill="none" stroke="#63b8ff" d="M47.86,-422.16C55.66,-483.85 82.54,-671.94 125,-713.5 136.74,-725 152.86,-731.39 168.87,-734.84"/>
<polygon fill="#63b8ff" stroke="#63b8ff" points="51.33,-421.67 46.63,-412.18 44.38,-422.53 51.33,-421.67"/>
</a>
</g>
</g>
<!-- Node6 -->
<g id="Node000006" class="node">
<title>Node6</title>
<g id="a_Node000006"><a xlink:href="structmlir_1_1detail_1_1is__tuple_3_01std_1_1tuple_3_01Ts_8_8_8_01_4_01_4.html" target="_top" xlink:title=" ">
<polygon fill="white" stroke="#666666" points="292,-704.5 166,-704.5 166,-674.5 292,-674.5 292,-704.5"/>
<text text-anchor="start" x="174" y="-692.5" font-family="Helvetica,sans-Serif" font-size="10.00">mlir::detail::is_tuple</text>
<text text-anchor="middle" x="229" y="-681.5" font-family="Helvetica,sans-Serif" font-size="10.00">&lt; std::tuple&lt; Ts... &gt; &gt;</text>
</a>
</g>
</g>
<!-- Node0&#45;&gt;Node6 -->
<g id="edge2010_Node000000_Node000006" class="edge">
<title>Node0&#45;&gt;Node6</title>
<g id="a_edge2010_Node000000_Node000006"><a xlink:title=" ">
<path fill="none" stroke="#63b8ff" d="M45.22,-422.31C45.66,-471.29 53.96,-598.91 125,-665.5 136.19,-675.99 151.03,-682.18 165.96,-685.78"/>
<polygon fill="#63b8ff" stroke="#63b8ff" points="48.72,-422.13 45.24,-412.12 41.72,-422.11 48.72,-422.13"/>
</a>
</g>
</g>
<!-- Node7 -->
<g id="Node000007" class="node">
<title>Node7</title>
<g id="a_Node000007"><a xlink:href="structmlir_1_1query_1_1matcher_1_1has__bound__match_3_01T_00_01std_1_1void__t_3_01decltype_07stdcf2451b5d3c307db1c18067b2733ca2a.html" target="_top" xlink:title=" ">
<polygon fill="white" stroke="#666666" points="306.5,-656 151.5,-656 151.5,-571 306.5,-571 306.5,-656"/>
<text text-anchor="start" x="159.5" y="-644" font-family="Helvetica,sans-Serif" font-size="10.00">mlir::query::matcher</text>
<text text-anchor="start" x="159.5" y="-633" font-family="Helvetica,sans-Serif" font-size="10.00">::has_bound_match&lt; T,</text>
<text text-anchor="start" x="159.5" y="-622" font-family="Helvetica,sans-Serif" font-size="10.00"> std::void_t&lt; decltype</text>
<text text-anchor="start" x="159.5" y="-611" font-family="Helvetica,sans-Serif" font-size="10.00">(std::declval&lt; T &gt;().match</text>
<text text-anchor="start" x="159.5" y="-600" font-family="Helvetica,sans-Serif" font-size="10.00">(std::declval&lt; Operation *</text>
<text text-anchor="start" x="159.5" y="-589" font-family="Helvetica,sans-Serif" font-size="10.00"> &gt;(), std::declval&lt; SetVector</text>
<text text-anchor="middle" x="229" y="-578" font-family="Helvetica,sans-Serif" font-size="10.00">&lt; Operation * &gt; &amp; &gt;()))&gt; &gt;</text>
</a>
</g>
</g>
<!-- Node0&#45;&gt;Node7 -->
<g id="edge2011_Node000000_Node000007" class="edge">
<title>Node0&#45;&gt;Node7</title>
<g id="a_edge2011_Node000000_Node000007"><a xlink:title=" ">
<path fill="none" stroke="#63b8ff" d="M50.86,-422.08C60.66,-454.71 84.3,-520.64 125,-561.5 132.7,-569.23 141.8,-576.03 151.34,-581.94"/>
<polygon fill="#63b8ff" stroke="#63b8ff" points="54.19,-421.02 48.06,-412.38 47.47,-422.95 54.19,-421.02"/>
</a>
</g>
</g>
<!-- Node8 -->
<g id="Node000008" class="node">
<title>Node8</title>
<g id="a_Node000008"><a xlink:href="structmlir_1_1query_1_1matcher_1_1has__simple__match_3_01T_00_01std_1_1void__t_3_01decltype_07st1e0a0503d27a42df5b77d5f51e428c6a.html" target="_top" xlink:title=" ">
<polygon fill="white" stroke="#666666" points="302,-552.5 156,-552.5 156,-478.5 302,-478.5 302,-552.5"/>
<text text-anchor="start" x="164" y="-540.5" font-family="Helvetica,sans-Serif" font-size="10.00">mlir::query::matcher</text>
<text text-anchor="start" x="164" y="-529.5" font-family="Helvetica,sans-Serif" font-size="10.00">::has_simple_match&lt; T,</text>
<text text-anchor="start" x="164" y="-518.5" font-family="Helvetica,sans-Serif" font-size="10.00"> std::void_t&lt; decltype</text>
<text text-anchor="start" x="164" y="-507.5" font-family="Helvetica,sans-Serif" font-size="10.00">(std::declval&lt; T &gt;().match</text>
<text text-anchor="start" x="164" y="-496.5" font-family="Helvetica,sans-Serif" font-size="10.00">(std::declval&lt; Operation *</text>
<text text-anchor="middle" x="229" y="-485.5" font-family="Helvetica,sans-Serif" font-size="10.00"> &gt;()))&gt; &gt;</text>
</a>
</g>
</g>
<!-- Node0&#45;&gt;Node8 -->
<g id="edge2012_Node000000_Node000008" class="edge">
<title>Node0&#45;&gt;Node8</title>
<g id="a_edge2012_Node000000_Node000008"><a xlink:title=" ">
<path fill="none" stroke="#63b8ff" d="M62.31,-419.1C77.69,-433.68 101.56,-454.8 125,-469.5 134.62,-475.54 145.17,-481.2 155.73,-486.34"/>
<polygon fill="#63b8ff" stroke="#63b8ff" points="64.71,-416.56 55.08,-412.14 59.86,-421.6 64.71,-416.56"/>
</a>
</g>
</g>
<!-- Node9 -->
<g id="Node000009" class="node">
<title>Node9</title>
<g id="a_Node000009"><a xlink:href="structmlir_1_1sparse__tensor_1_1detail_1_1is__complex_3_01mlir_1_1NonFloatComplex_3_01T_01_4_01_4.html" target="_top" xlink:title=" ">
<polygon fill="white" stroke="#666666" points="299.5,-460.5 158.5,-460.5 158.5,-408.5 299.5,-408.5 299.5,-460.5"/>
<text text-anchor="start" x="166.5" y="-448.5" font-family="Helvetica,sans-Serif" font-size="10.00">mlir::sparse_tensor</text>
<text text-anchor="start" x="166.5" y="-437.5" font-family="Helvetica,sans-Serif" font-size="10.00">::detail::is_complex</text>
<text text-anchor="start" x="166.5" y="-426.5" font-family="Helvetica,sans-Serif" font-size="10.00">&lt; mlir::NonFloatComplex</text>
<text text-anchor="middle" x="229" y="-415.5" font-family="Helvetica,sans-Serif" font-size="10.00">&lt; T &gt; &gt;</text>
</a>
</g>
</g>
<!-- Node0&#45;&gt;Node9 -->
<g id="edge2013_Node000000_Node000009" class="edge">
<title>Node0&#45;&gt;Node9</title>
<g id="a_edge2013_Node000000_Node000009"><a xlink:title=" ">
<path fill="none" stroke="#63b8ff" d="M99.21,-411.92C117.7,-415.16 138.69,-418.84 158.28,-422.27"/>
<polygon fill="#63b8ff" stroke="#63b8ff" points="99.67,-408.44 89.21,-410.16 98.46,-415.34 99.67,-408.44"/>
</a>
</g>
</g>
<!-- Node10 -->
<g id="Node000010" class="node">
<title>Node10</title>
<g id="a_Node000010"><a xlink:href="structmlir_1_1sparse__tensor_1_1detail_1_1is__complex_3_01std_1_1complex_3_01T_01_4_01_4.html" target="_top" xlink:title=" ">
<polygon fill="white" stroke="#666666" points="294.5,-390 163.5,-390 163.5,-349 294.5,-349 294.5,-390"/>
<text text-anchor="start" x="171.5" y="-378" font-family="Helvetica,sans-Serif" font-size="10.00">mlir::sparse_tensor</text>
<text text-anchor="start" x="171.5" y="-367" font-family="Helvetica,sans-Serif" font-size="10.00">::detail::is_complex</text>
<text text-anchor="middle" x="229" y="-356" font-family="Helvetica,sans-Serif" font-size="10.00">&lt; std::complex&lt; T &gt; &gt;</text>
</a>
</g>
</g>
<!-- Node0&#45;&gt;Node10 -->
<g id="edge2014_Node000000_Node000010" class="edge">
<title>Node0&#45;&gt;Node10</title>
<g id="a_edge2014_Node000000_Node000010"><a xlink:title=" ">
<path fill="none" stroke="#63b8ff" d="M99.12,-392.81C119.2,-389.17 142.23,-385.01 163.22,-381.21"/>
<polygon fill="#63b8ff" stroke="#63b8ff" points="98.43,-389.37 89.21,-394.6 99.68,-396.26 98.43,-389.37"/>
</a>
</g>
</g>
<!-- Node11 -->
<g id="Node000011" class="node">
<title>Node11</title>
<g id="a_Node000011"><a xlink:href="structmlir_1_1Sliceable_1_1has__maybe__downcast.html" target="_top" xlink:title="Trait to check if T provides a maybeDownCast method.">
<polygon fill="white" stroke="#666666" points="305,-41 153,-41 153,0 305,0 305,-41"/>
<text text-anchor="start" x="161" y="-29" font-family="Helvetica,sans-Serif" font-size="10.00">mlir::Sliceable&lt; Derived,</text>
<text text-anchor="start" x="161" y="-18" font-family="Helvetica,sans-Serif" font-size="10.00"> ElementTy &gt;::has_maybe</text>
<text text-anchor="middle" x="229" y="-7" font-family="Helvetica,sans-Serif" font-size="10.00">_downcast&lt; T, typename &gt;</text>
</a>
</g>
</g>
<!-- Node0&#45;&gt;Node11 -->
<g id="edge2015_Node000000_Node000011" class="edge">
<title>Node0&#45;&gt;Node11</title>
<g id="a_edge2015_Node000000_Node000011"><a xlink:title=" ">
<path fill="none" stroke="#63b8ff" d="M47.32,-383.02C53.92,-316.5 78.64,-99.79 125,-50.5 132.66,-42.36 142.38,-36.39 152.79,-32.01"/>
<polygon fill="#63b8ff" stroke="#63b8ff" points="43.83,-382.7 46.36,-392.99 50.8,-383.37 43.83,-382.7"/>
</a>
</g>
</g>
<!-- Node12 -->
<g id="Node000012" class="node">
<title>Node12</title>
<g id="a_Node000012"><a xlink:href="structmlir_1_1detail_1_1is__complex__t.html" target="_top" xlink:title="Type trait detector that checks if a given type T is a complex type.">
<polygon fill="white" stroke="#666666" points="294.5,-330.5 163.5,-330.5 163.5,-300.5 294.5,-300.5 294.5,-330.5"/>
<text text-anchor="start" x="171.5" y="-318.5" font-family="Helvetica,sans-Serif" font-size="10.00">mlir::detail::is_complex</text>
<text text-anchor="middle" x="229" y="-307.5" font-family="Helvetica,sans-Serif" font-size="10.00">_t&lt; T &gt;</text>
</a>
</g>
</g>
<!-- Node0&#45;&gt;Node12 -->
<g id="edge2016_Node000000_Node000012" class="edge">
<title>Node0&#45;&gt;Node12</title>
<g id="a_edge2016_Node000000_Node000012"><a xlink:title=" ">
<path fill="none" stroke="#63b8ff" d="M62.3,-385.48C77.42,-371.13 100.91,-351.12 125,-339.5 136.91,-333.76 150.26,-329.34 163.31,-325.97"/>
<polygon fill="#63b8ff" stroke="#63b8ff" points="59.53,-383.29 54.81,-392.78 64.42,-388.31 59.53,-383.29"/>
</a>
</g>
</g>
<!-- Node13 -->
<g id="Node000013" class="node">
<title>Node13</title>
<g id="a_Node000013"><a xlink:href="structmlir_1_1detail_1_1is__pair.html" target="_top" xlink:title=" ">
<polygon fill="white" stroke="#666666" points="297.5,-282 160.5,-282 160.5,-263 297.5,-263 297.5,-282"/>
<text text-anchor="middle" x="229" y="-270" font-family="Helvetica,sans-Serif" font-size="10.00">mlir::detail::is_pair&lt; T &gt;</text>
</a>
</g>
</g>
<!-- Node0&#45;&gt;Node13 -->
<g id="edge2017_Node000000_Node000013" class="edge">
<title>Node0&#45;&gt;Node13</title>
<g id="a_edge2017_Node000000_Node000013"><a xlink:title=" ">
<path fill="none" stroke="#63b8ff" d="M53.49,-383.59C65.23,-358.27 89.65,-313.95 125,-291.5 135.59,-284.77 147.96,-280.29 160.37,-277.34"/>
<polygon fill="#63b8ff" stroke="#63b8ff" points="50.23,-382.31 49.36,-392.87 56.63,-385.15 50.23,-382.31"/>
</a>
</g>
</g>
<!-- Node14 -->
<g id="Node000014" class="node">
<title>Node14</title>
<g id="a_Node000014"><a xlink:href="structmlir_1_1detail_1_1is__tuple.html" target="_top" xlink:title=" ">
<polygon fill="white" stroke="#666666" points="300.5,-245 157.5,-245 157.5,-226 300.5,-226 300.5,-245"/>
<text text-anchor="middle" x="229" y="-233" font-family="Helvetica,sans-Serif" font-size="10.00">mlir::detail::is_tuple&lt; T &gt;</text>
</a>
</g>
</g>
<!-- Node0&#45;&gt;Node14 -->
<g id="edge2018_Node000000_Node000014" class="edge">
<title>Node0&#45;&gt;Node14</title>
<g id="a_edge2018_Node000000_Node000014"><a xlink:title=" ">
<path fill="none" stroke="#63b8ff" d="M50.04,-382.85C58.65,-350.31 80.61,-285.65 125,-253.5 134.48,-246.63 145.73,-242.08 157.24,-239.12"/>
<polygon fill="#63b8ff" stroke="#63b8ff" points="46.56,-382.36 47.54,-392.91 53.35,-384.05 46.56,-382.36"/>
</a>
</g>
</g>
<!-- Node15 -->
<g id="Node000015" class="node">
<title>Node15</title>
<g id="a_Node000015"><a xlink:href="structmlir_1_1query_1_1matcher_1_1has__bound__match.html" target="_top" xlink:title=" ">
<polygon fill="white" stroke="#666666" points="294.5,-208 163.5,-208 163.5,-167 294.5,-167 294.5,-208"/>
<text text-anchor="start" x="171.5" y="-196" font-family="Helvetica,sans-Serif" font-size="10.00">mlir::query::matcher</text>
<text text-anchor="start" x="171.5" y="-185" font-family="Helvetica,sans-Serif" font-size="10.00">::has_bound_match&lt; T,</text>
<text text-anchor="middle" x="229" y="-174" font-family="Helvetica,sans-Serif" font-size="10.00"> typename &gt;</text>
</a>
</g>
</g>
<!-- Node0&#45;&gt;Node15 -->
<g id="edge2019_Node000000_Node000015" class="edge">
<title>Node0&#45;&gt;Node15</title>
<g id="a_edge2019_Node000000_Node000015"><a xlink:title=" ">
<path fill="none" stroke="#63b8ff" d="M48.32,-382.4C54.74,-344.26 74.07,-261.23 125,-216.5 135.82,-207 149.53,-200.59 163.38,-196.28"/>
<polygon fill="#63b8ff" stroke="#63b8ff" points="44.79,-382.28 46.72,-392.7 51.71,-383.35 44.79,-382.28"/>
</a>
</g>
</g>
<!-- Node16 -->
<g id="Node000016" class="node">
<title>Node16</title>
<g id="a_Node000016"><a xlink:href="structmlir_1_1query_1_1matcher_1_1has__simple__match.html" target="_top" xlink:title=" ">
<polygon fill="white" stroke="#666666" points="296,-149 162,-149 162,-108 296,-108 296,-149"/>
<text text-anchor="start" x="170" y="-137" font-family="Helvetica,sans-Serif" font-size="10.00">mlir::query::matcher</text>
<text text-anchor="start" x="170" y="-126" font-family="Helvetica,sans-Serif" font-size="10.00">::has_simple_match&lt; T,</text>
<text text-anchor="middle" x="229" y="-115" font-family="Helvetica,sans-Serif" font-size="10.00"> typename &gt;</text>
</a>
</g>
</g>
<!-- Node0&#45;&gt;Node16 -->
<g id="edge2020_Node000000_Node000016" class="edge">
<title>Node0&#45;&gt;Node16</title>
<g id="a_edge2020_Node000000_Node000016"><a xlink:title=" ">
<path fill="none" stroke="#63b8ff" d="M45.93,-382.68C48.04,-336.33 59.92,-220.07 125,-157.5 135.18,-147.71 148.39,-141.18 161.94,-136.84"/>
<polygon fill="#63b8ff" stroke="#63b8ff" points="42.43,-382.76 45.58,-392.88 49.42,-383.01 42.43,-382.76"/>
</a>
</g>
</g>
<!-- Node17 -->
<g id="Node000017" class="node">
<title>Node17</title>
<g id="a_Node000017"><a xlink:href="structmlir_1_1sparse__tensor_1_1detail_1_1is__complex.html" target="_top" xlink:title=" ">
<polygon fill="white" stroke="#666666" points="299,-89.5 159,-89.5 159,-59.5 299,-59.5 299,-89.5"/>
<text text-anchor="start" x="167" y="-77.5" font-family="Helvetica,sans-Serif" font-size="10.00">mlir::sparse_tensor</text>
<text text-anchor="middle" x="229" y="-66.5" font-family="Helvetica,sans-Serif" font-size="10.00">::detail::is_complex&lt; T &gt;</text>
</a>
</g>
</g>
<!-- Node0&#45;&gt;Node17 -->
<g id="edge2021_Node000000_Node000017" class="edge">
<title>Node0&#45;&gt;Node17</title>
<g id="a_edge2021_Node000000_Node000017"><a xlink:title=" ">
<path fill="none" stroke="#63b8ff" d="M48.03,-382.49C56.15,-321.39 83.5,-138.9 125,-98.5 134.28,-89.47 146.25,-83.59 158.74,-79.82"/>
<polygon fill="#63b8ff" stroke="#63b8ff" points="44.52,-382.36 46.7,-392.73 51.46,-383.26 44.52,-382.36"/>
</a>
</g>
</g>
<!-- Node2 -->
<g id="Node000002" class="node">
<title>Node2</title>
<g id="a_Node000002"><a xlink:title=" ">
<polygon fill="#e0e0e0" stroke="#999999" points="86.5,-699 2.5,-699 2.5,-680 86.5,-680 86.5,-699"/>
<text text-anchor="middle" x="44.5" y="-687" font-family="Helvetica,sans-Serif" font-size="10.00">std::true_type</text>
</a>
</g>
</g>
<!-- Node2&#45;&gt;Node1 -->
<g id="edge2022_Node000002_Node000001" class="edge">
<title>Node2&#45;&gt;Node1</title>
<g id="a_edge2022_Node000002_Node000001"><a xlink:title=" ">
<path fill="none" stroke="#63b8ff" d="M49.45,-708.89C57.52,-743.62 79.15,-816.61 125,-857.5 128.67,-860.77 132.65,-863.73 136.85,-866.42"/>
<polygon fill="#63b8ff" stroke="#63b8ff" points="52.86,-708.07 47.3,-699.05 46.02,-709.57 52.86,-708.07"/>
</a>
</g>
</g>
<!-- Node2&#45;&gt;Node3 -->
<g id="edge2023_Node000002_Node000003" class="edge">
<title>Node2&#45;&gt;Node3</title>
<g id="a_edge2023_Node000002_Node000003"><a xlink:title=" ">
<path fill="none" stroke="#63b8ff" d="M52.74,-708.52C63.98,-735.36 88.22,-783.94 125,-809.5 129.98,-812.96 135.38,-815.92 141.02,-818.46"/>
<polygon fill="#63b8ff" stroke="#63b8ff" points="55.93,-707.06 48.95,-699.08 49.43,-709.66 55.93,-707.06"/>
</a>
</g>
</g>
<!-- Node2&#45;&gt;Node4 -->
<g id="edge2024_Node000002_Node000004" class="edge">
<title>Node2&#45;&gt;Node4</title>
<g id="a_edge2024_Node000002_Node000004"><a xlink:title=" ">
<path fill="none" stroke="#63b8ff" d="M59.96,-706.95C74.64,-723.5 98.87,-747.82 125,-761.5 135.49,-766.99 147.23,-771.24 158.93,-774.53"/>
<polygon fill="#63b8ff" stroke="#63b8ff" points="62.38,-704.39 53.2,-699.1 57.08,-708.96 62.38,-704.39"/>
</a>
</g>
</g>
<!-- Node2&#45;&gt;Node5 -->
<g id="edge2025_Node000002_Node000005" class="edge">
<title>Node2&#45;&gt;Node5</title>
<g id="a_edge2025_Node000002_Node000005"><a xlink:title=" ">
<path fill="none" stroke="#63b8ff" d="M85.35,-702.08C97.98,-705.92 112.03,-710.04 125,-713.5 139.1,-717.27 154.38,-721.01 168.74,-724.38"/>
<polygon fill="#63b8ff" stroke="#63b8ff" points="86.16,-698.66 75.57,-699.08 84.1,-705.36 86.16,-698.66"/>
</a>
</g>
</g>
<!-- Node2&#45;&gt;Node6 -->
<g id="edge2026_Node000002_Node000006" class="edge">
<title>Node2&#45;&gt;Node6</title>
<g id="a_edge2026_Node000002_Node000006"><a xlink:title=" ">
<path fill="none" stroke="#63b8ff" d="M97.11,-689.5C118.52,-689.5 143.55,-689.5 165.96,-689.5"/>
<polygon fill="#63b8ff" stroke="#63b8ff" points="96.91,-686 86.91,-689.5 96.91,-693 96.91,-686"/>
</a>
</g>
</g>
<!-- Node2&#45;&gt;Node7 -->
<g id="edge2027_Node000002_Node000007" class="edge">
<title>Node2&#45;&gt;Node7</title>
<g id="a_edge2027_Node000002_Node000007"><a xlink:title=" ">
<path fill="none" stroke="#63b8ff" d="M78.06,-675.94C98.48,-667.44 125.72,-656.09 151.38,-645.41"/>
<polygon fill="#63b8ff" stroke="#63b8ff" points="76.5,-672.8 68.61,-679.87 79.19,-679.26 76.5,-672.8"/>
</a>
</g>
</g>
<!-- Node2&#45;&gt;Node8 -->
<g id="edge2028_Node000002_Node000008" class="edge">
<title>Node2&#45;&gt;Node8</title>
<g id="a_edge2028_Node000002_Node000008"><a xlink:title=" ">
<path fill="none" stroke="#63b8ff" d="M53.21,-670.37C65.01,-643.17 89.95,-593.23 125,-562.5 134.16,-554.47 144.93,-547.57 155.99,-541.72"/>
<polygon fill="#63b8ff" stroke="#63b8ff" points="49.85,-669.32 49.21,-679.9 56.3,-672.03 49.85,-669.32"/>
</a>
</g>
</g>
<!-- Node2&#45;&gt;Node9 -->
<g id="edge2029_Node000002_Node000009" class="edge">
<title>Node2&#45;&gt;Node9</title>
<g id="a_edge2029_Node000002_Node000009"><a xlink:title=" ">
<path fill="none" stroke="#63b8ff" d="M47.04,-669.59C51.39,-626.91 67.52,-525.89 125,-469.5 134.3,-460.37 146.07,-453.63 158.31,-448.63"/>
<polygon fill="#63b8ff" stroke="#63b8ff" points="43.55,-669.29 46.13,-679.56 50.52,-669.92 43.55,-669.29"/>
</a>
</g>
</g>
<!-- Node2&#45;&gt;Node10 -->
<g id="edge2030_Node000002_Node000010" class="edge">
<title>Node2&#45;&gt;Node10</title>
<g id="a_edge2030_Node000002_Node000010"><a xlink:title=" ">
<path fill="none" stroke="#63b8ff" d="M44.78,-669.7C44.03,-617.76 49.42,-476.29 125,-399.5 135.39,-388.95 149.26,-382.06 163.44,-377.57"/>
<polygon fill="#63b8ff" stroke="#63b8ff" points="41.29,-669.97 45.03,-679.88 48.29,-669.8 41.29,-669.97"/>
</a>
</g>
</g>
</g>
</svg>
