<?xml version="1.0" encoding="UTF-8" standalone="no"?>
<!DOCTYPE svg PUBLIC "-//W3C//DTD SVG 1.1//EN"
 "http://www.w3.org/Graphics/SVG/1.1/DTD/svg11.dtd">
<!-- Generated by graphviz version 2.43.0 (0)
 -->
<!-- Title: Graphical Class Hierarchy Pages: 1 -->
<svg width="329pt" height="101pt"
 viewBox="0.00 0.00 329.00 101.00" xmlns="http://www.w3.org/2000/svg" xmlns:xlink="http://www.w3.org/1999/xlink">
<g id="graph0" class="graph" transform="scale(1 1) rotate(0) translate(4 97)">
<title>Graphical Class Hierarchy</title>
<!-- Node0 -->
<g id="Node000000" class="node">
<title>Node0</title>
<g id="a_Node000000"><a xlink:href="classmlir_1_1StructBuilder.html" target="_top" xlink:title="Helper class to produce LLVM dialect operations extracting or inserting values to a struct.">
<polygon fill="white" stroke="#666666" points="105,-56 0,-56 0,-37 105,-37 105,-56"/>
<text text-anchor="middle" x="52.5" y="-44" font-family="Helvetica,sans-Serif" font-size="10.00">mlir::StructBuilder</text>
</a>
</g>
</g>
<!-- Node1 -->
<g id="Node000001" class="node">
<title>Node1</title>
<g id="a_Node000001"><a xlink:href="classmlir_1_1ComplexStructBuilder.html" target="_top" xlink:title=" ">
<polygon fill="white" stroke="#666666" points="305.5,-93 156.5,-93 156.5,-74 305.5,-74 305.5,-93"/>
<text text-anchor="middle" x="231" y="-81" font-family="Helvetica,sans-Serif" font-size="10.00">mlir::ComplexStructBuilder</text>
</a>
</g>
</g>
<!-- Node0&#45;&gt;Node1 -->
<g id="edge1559_Node000000_Node000001" class="edge">
<title>Node0&#45;&gt;Node1</title>
<g id="a_edge1559_Node000000_Node000001"><a xlink:title=" ">
<path fill="none" stroke="#63b8ff" d="M107.17,-58.28C118.34,-60.7 130.05,-63.2 141,-65.5 154.27,-68.28 168.67,-71.23 181.94,-73.91"/>
<polygon fill="#63b8ff" stroke="#63b8ff" points="107.61,-54.79 97.09,-56.09 106.12,-61.63 107.61,-54.79"/>
</a>
</g>
</g>
<!-- Node2 -->
<g id="Node000002" class="node">
<title>Node2</title>
<g id="a_Node000002"><a xlink:href="classmlir_1_1MemRefDescriptor.html" target="_top" xlink:title="Helper class to produce LLVM dialect operations extracting or inserting elements of a MemRef descript...">
<polygon fill="white" stroke="#666666" points="298,-56 164,-56 164,-37 298,-37 298,-56"/>
<text text-anchor="middle" x="231" y="-44" font-family="Helvetica,sans-Serif" font-size="10.00">mlir::MemRefDescriptor</text>
</a>
</g>
</g>
<!-- Node0&#45;&gt;Node2 -->
<g id="edge1560_Node000000_Node000002" class="edge">
<title>Node0&#45;&gt;Node2</title>
<g id="a_edge1560_Node000000_Node000002"><a xlink:title=" ">
<path fill="none" stroke="#63b8ff" d="M115.18,-46.5C130.94,-46.5 147.96,-46.5 163.93,-46.5"/>
<polygon fill="#63b8ff" stroke="#63b8ff" points="115.03,-43 105.03,-46.5 115.03,-50 115.03,-43"/>
</a>
</g>
</g>
<!-- Node3 -->
<g id="Node000003" class="node">
<title>Node3</title>
<g id="a_Node000003"><a xlink:href="classmlir_1_1UnrankedMemRefDescriptor.html" target="_top" xlink:title=" ">
<polygon fill="white" stroke="#666666" points="321,-19 141,-19 141,0 321,0 321,-19"/>
<text text-anchor="middle" x="231" y="-7" font-family="Helvetica,sans-Serif" font-size="10.00">mlir::UnrankedMemRefDescriptor</text>
</a>
</g>
</g>
<!-- Node0&#45;&gt;Node3 -->
<g id="edge1561_Node000000_Node000003" class="edge">
<title>Node0&#45;&gt;Node3</title>
<g id="a_edge1561_Node000000_Node000003"><a xlink:title=" ">
<path fill="none" stroke="#63b8ff" d="M108.76,-34.92C133.08,-29.82 161.3,-23.9 184.39,-19.06"/>
<polygon fill="#63b8ff" stroke="#63b8ff" points="108.02,-31.49 98.95,-36.97 109.46,-38.35 108.02,-31.49"/>
</a>
</g>
</g>
</g>
</svg>
