<?xml version="1.0" encoding="UTF-8" standalone="no"?>
<!DOCTYPE svg PUBLIC "-//W3C//DTD SVG 1.1//EN"
 "http://www.w3.org/Graphics/SVG/1.1/DTD/svg11.dtd">
<!-- Generated by graphviz version 2.43.0 (0)
 -->
<!-- Title: Graphical Class Hierarchy Pages: 1 -->
<svg width="319pt" height="329pt"
 viewBox="0.00 0.00 319.00 329.00" xmlns="http://www.w3.org/2000/svg" xmlns:xlink="http://www.w3.org/1999/xlink">
<g id="graph0" class="graph" transform="scale(1 1) rotate(0) translate(4 325)">
<title>Graphical Class Hierarchy</title>
<!-- Node0 -->
<g id="node1" class="node">
<title>Node0</title>
<g id="a_node1"><a xlink:href="classmlir_1_1irdl_1_1Constraint.html" target="_top" xlink:title="Once turned into IRDL verifiers, all constraints are attribute constraints.">
<polygon fill="none" stroke="black" points="0,-156.5 0,-175.5 114,-175.5 114,-156.5 0,-156.5"/>
<text text-anchor="middle" x="57" y="-163.5" font-family="Helvetica,sans-Serif" font-size="10.00">mlir::irdl::Constraint</text>
</a>
</g>
</g>
<!-- Node1 -->
<g id="node2" class="node">
<title>Node1</title>
<g id="a_node2"><a xlink:href="classmlir_1_1irdl_1_1AllOfConstraint.html" target="_top" xlink:title="A constraint checking that all of the given constraints are satisfied.">
<polygon fill="none" stroke="black" points="161.5,-301.5 161.5,-320.5 299.5,-320.5 299.5,-301.5 161.5,-301.5"/>
<text text-anchor="middle" x="230.5" y="-308.5" font-family="Helvetica,sans-Serif" font-size="10.00">mlir::irdl::AllOfConstraint</text>
</a>
</g>
</g>
<!-- Node0&#45;&gt;Node1 -->
<g id="edge1" class="edge">
<title>Node0&#45;&gt;Node1</title>
<path fill="none" stroke="midnightblue" d="M66.4,-184.79C79.88,-212.7 109.04,-264.73 150,-292 155.79,-295.85 162.27,-298.93 168.98,-301.38"/>
<polygon fill="midnightblue" stroke="midnightblue" points="69.55,-183.27 62.15,-175.69 63.21,-186.24 69.55,-183.27"/>
</g>
<!-- Node2 -->
<g id="node3" class="node">
<title>Node2</title>
<g id="a_node3"><a xlink:href="classmlir_1_1irdl_1_1AnyAttributeConstraint.html" target="_top" xlink:title="A constraint that is always satisfied.">
<polygon fill="none" stroke="black" points="168,-252 168,-282 293,-282 293,-252 168,-252"/>
<text text-anchor="start" x="176" y="-270" font-family="Helvetica,sans-Serif" font-size="10.00">mlir::irdl::AnyAttribute</text>
<text text-anchor="middle" x="230.5" y="-259" font-family="Helvetica,sans-Serif" font-size="10.00">Constraint</text>
</a>
</g>
</g>
<!-- Node0&#45;&gt;Node2 -->
<g id="edge2" class="edge">
<title>Node0&#45;&gt;Node2</title>
<path fill="none" stroke="midnightblue" d="M74.12,-182.68C91.44,-199.75 120.48,-225.97 150,-242 156.99,-245.8 164.65,-249.12 172.36,-251.99"/>
<polygon fill="midnightblue" stroke="midnightblue" points="76.56,-180.18 67.03,-175.56 71.6,-185.11 76.56,-180.18"/>
</g>
<!-- Node3 -->
<g id="node4" class="node">
<title>Node3</title>
<g id="a_node4"><a xlink:href="classmlir_1_1irdl_1_1AnyOfConstraint.html" target="_top" xlink:title="A constraint checking that one of the given constraints is satisfied.">
<polygon fill="none" stroke="black" points="158.5,-213.5 158.5,-232.5 302.5,-232.5 302.5,-213.5 158.5,-213.5"/>
<text text-anchor="middle" x="230.5" y="-220.5" font-family="Helvetica,sans-Serif" font-size="10.00">mlir::irdl::AnyOfConstraint</text>
</a>
</g>
</g>
<!-- Node0&#45;&gt;Node3 -->
<g id="edge3" class="edge">
<title>Node0&#45;&gt;Node3</title>
<path fill="none" stroke="midnightblue" d="M87.76,-179.69C105.56,-187.52 128.78,-197.13 150,-204 160.94,-207.54 172.91,-210.74 184.17,-213.47"/>
<polygon fill="midnightblue" stroke="midnightblue" points="89.04,-176.43 78.48,-175.55 86.19,-182.82 89.04,-176.43"/>
</g>
<!-- Node4 -->
<g id="node5" class="node">
<title>Node4</title>
<g id="a_node5"><a xlink:href="classmlir_1_1irdl_1_1BaseAttrConstraint.html" target="_top" xlink:title="A constraint that checks that an attribute is of a given attribute base (e.g.">
<polygon fill="none" stroke="black" points="152.5,-175.5 152.5,-194.5 308.5,-194.5 308.5,-175.5 152.5,-175.5"/>
<text text-anchor="middle" x="230.5" y="-182.5" font-family="Helvetica,sans-Serif" font-size="10.00">mlir::irdl::BaseAttrConstraint</text>
</a>
</g>
</g>
<!-- Node0&#45;&gt;Node4 -->
<g id="edge4" class="edge">
<title>Node0&#45;&gt;Node4</title>
<path fill="none" stroke="midnightblue" d="M124.35,-173.35C133.52,-174.37 143.01,-175.42 152.35,-176.45"/>
<polygon fill="midnightblue" stroke="midnightblue" points="124.48,-169.84 114.16,-172.22 123.71,-176.8 124.48,-169.84"/>
</g>
<!-- Node5 -->
<g id="node6" class="node">
<title>Node5</title>
<g id="a_node6"><a xlink:href="classmlir_1_1irdl_1_1BaseTypeConstraint.html" target="_top" xlink:title="A constraint that checks that a type is of a given type base (e.g.">
<polygon fill="none" stroke="black" points="150,-137.5 150,-156.5 311,-156.5 311,-137.5 150,-137.5"/>
<text text-anchor="middle" x="230.5" y="-144.5" font-family="Helvetica,sans-Serif" font-size="10.00">mlir::irdl::BaseTypeConstraint</text>
</a>
</g>
</g>
<!-- Node0&#45;&gt;Node5 -->
<g id="edge5" class="edge">
<title>Node0&#45;&gt;Node5</title>
<path fill="none" stroke="midnightblue" d="M124.24,-158.66C132.64,-157.73 141.3,-156.77 149.88,-155.82"/>
<polygon fill="midnightblue" stroke="midnightblue" points="123.71,-155.2 114.16,-159.78 124.48,-162.16 123.71,-155.2"/>
</g>
<!-- Node6 -->
<g id="node7" class="node">
<title>Node6</title>
<g id="a_node7"><a xlink:href="classmlir_1_1irdl_1_1DynParametricAttrConstraint.html" target="_top" xlink:title="A constraint that checks that an attribute is of a specific dynamic attribute definition,...">
<polygon fill="none" stroke="black" points="162.5,-88 162.5,-118 298.5,-118 298.5,-88 162.5,-88"/>
<text text-anchor="start" x="170.5" y="-106" font-family="Helvetica,sans-Serif" font-size="10.00">mlir::irdl::DynParametric</text>
<text text-anchor="middle" x="230.5" y="-95" font-family="Helvetica,sans-Serif" font-size="10.00">AttrConstraint</text>
</a>
</g>
</g>
<!-- Node0&#45;&gt;Node6 -->
<g id="edge6" class="edge">
<title>Node0&#45;&gt;Node6</title>
<path fill="none" stroke="midnightblue" d="M89.01,-152.4C106.72,-144.83 129.44,-135.46 150,-128 159.38,-124.59 169.49,-121.21 179.23,-118.08"/>
<polygon fill="midnightblue" stroke="midnightblue" points="87.53,-149.23 79.72,-156.4 90.29,-155.66 87.53,-149.23"/>
</g>
<!-- Node7 -->
<g id="node8" class="node">
<title>Node7</title>
<g id="a_node8"><a xlink:href="classmlir_1_1irdl_1_1DynParametricTypeConstraint.html" target="_top" xlink:title="A constraint that checks that a type is of a specific dynamic type definition, and that all of its pa...">
<polygon fill="none" stroke="black" points="162.5,-39 162.5,-69 298.5,-69 298.5,-39 162.5,-39"/>
<text text-anchor="start" x="170.5" y="-57" font-family="Helvetica,sans-Serif" font-size="10.00">mlir::irdl::DynParametric</text>
<text text-anchor="middle" x="230.5" y="-46" font-family="Helvetica,sans-Serif" font-size="10.00">TypeConstraint</text>
</a>
</g>
</g>
<!-- Node0&#45;&gt;Node7 -->
<g id="edge7" class="edge">
<title>Node0&#45;&gt;Node7</title>
<path fill="none" stroke="midnightblue" d="M72.07,-148.6C88.75,-129.04 118.3,-97.62 150,-79 156.49,-75.19 163.62,-71.9 170.87,-69.07"/>
<polygon fill="midnightblue" stroke="midnightblue" points="69.27,-146.49 65.55,-156.41 74.64,-150.98 69.27,-146.49"/>
</g>
<!-- Node8 -->
<g id="node9" class="node">
<title>Node8</title>
<g id="a_node9"><a xlink:href="classmlir_1_1irdl_1_1IsConstraint.html" target="_top" xlink:title="A constraint that checks that an attribute is equal to a given attribute.">
<polygon fill="none" stroke="black" points="169.5,-0.5 169.5,-19.5 291.5,-19.5 291.5,-0.5 169.5,-0.5"/>
<text text-anchor="middle" x="230.5" y="-7.5" font-family="Helvetica,sans-Serif" font-size="10.00">mlir::irdl::IsConstraint</text>
</a>
</g>
</g>
<!-- Node0&#45;&gt;Node8 -->
<g id="edge8" class="edge">
<title>Node0&#45;&gt;Node8</title>
<path fill="none" stroke="midnightblue" d="M65.49,-147.05C78.23,-117.36 106.98,-60.15 150,-30 156.18,-25.67 163.2,-22.28 170.46,-19.62"/>
<polygon fill="midnightblue" stroke="midnightblue" points="62.24,-145.74 61.65,-156.32 68.71,-148.42 62.24,-145.74"/>
</g>
</g>
</svg>
