<?xml version="1.0" encoding="UTF-8" standalone="no"?>
<!DOCTYPE svg PUBLIC "-//W3C//DTD SVG 1.1//EN"
 "http://www.w3.org/Graphics/SVG/1.1/DTD/svg11.dtd">
<!-- Generated by graphviz version 2.43.0 (0)
 -->
<!-- Title: Graphical Class Hierarchy Pages: 1 -->
<svg width="328pt" height="108pt"
 viewBox="0.00 0.00 328.00 108.00" xmlns="http://www.w3.org/2000/svg" xmlns:xlink="http://www.w3.org/1999/xlink">
<g id="graph0" class="graph" transform="scale(1 1) rotate(0) translate(4 104)">
<title>Graphical Class Hierarchy</title>
<!-- Node0 -->
<g id="Node000000" class="node">
<title>Node0</title>
<g id="a_Node000000"><a xlink:href="classmlir_1_1OpTrait_1_1TraitBase.html" target="_top" xlink:title=" ">
<polygon fill="white" stroke="#666666" points="133,-64.5 0,-64.5 0,-34.5 133,-34.5 133,-64.5"/>
<text text-anchor="start" x="8" y="-52.5" font-family="Helvetica,sans-Serif" font-size="10.00">mlir::OpTrait::TraitBase</text>
<text text-anchor="middle" x="66.5" y="-41.5" font-family="Helvetica,sans-Serif" font-size="10.00">&lt; ConcreteType, Impl &gt;</text>
</a>
</g>
</g>
<!-- Node1 -->
<g id="Node000001" class="node">
<title>Node1</title>
<g id="a_Node000001"><a xlink:href="classmlir_1_1OpTrait_1_1HasAncestor_1_1Impl.html" target="_top" xlink:title=" ">
<polygon fill="white" stroke="#666666" points="320,-100 169,-100 169,-59 320,-59 320,-100"/>
<text text-anchor="start" x="177" y="-88" font-family="Helvetica,sans-Serif" font-size="10.00">mlir::OpTrait::HasAncestor</text>
<text text-anchor="start" x="177" y="-77" font-family="Helvetica,sans-Serif" font-size="10.00">&lt; AncestorOpTypes &gt;::Impl</text>
<text text-anchor="middle" x="244.5" y="-66" font-family="Helvetica,sans-Serif" font-size="10.00">&lt; ConcreteType &gt;</text>
</a>
</g>
</g>
<!-- Node0&#45;&gt;Node1 -->
<g id="edge885_Node000000_Node000001" class="edge">
<title>Node0&#45;&gt;Node1</title>
<g id="a_edge885_Node000000_Node000001"><a xlink:title=" ">
<path fill="none" stroke="#63b8ff" d="M142.96,-62.36C151.5,-63.82 160.19,-65.3 168.72,-66.75"/>
<polygon fill="#63b8ff" stroke="#63b8ff" points="143.48,-58.9 133.04,-60.67 142.31,-65.8 143.48,-58.9"/>
</a>
</g>
</g>
<!-- Node2 -->
<g id="Node000002" class="node">
<title>Node2</title>
<g id="a_Node000002"><a xlink:href="classmlir_1_1OpTrait_1_1HasParent_1_1Impl.html" target="_top" xlink:title=" ">
<polygon fill="white" stroke="#666666" points="314,-41 175,-41 175,0 314,0 314,-41"/>
<text text-anchor="start" x="183" y="-29" font-family="Helvetica,sans-Serif" font-size="10.00">mlir::OpTrait::HasParent</text>
<text text-anchor="start" x="183" y="-18" font-family="Helvetica,sans-Serif" font-size="10.00">&lt; ParentOpTypes &gt;::Impl</text>
<text text-anchor="middle" x="244.5" y="-7" font-family="Helvetica,sans-Serif" font-size="10.00">&lt; ConcreteType &gt;</text>
</a>
</g>
</g>
<!-- Node0&#45;&gt;Node2 -->
<g id="edge886_Node000000_Node000002" class="edge">
<title>Node0&#45;&gt;Node2</title>
<g id="a_edge886_Node000000_Node000002"><a xlink:title=" ">
<path fill="none" stroke="#63b8ff" d="M143.09,-37.04C153.68,-35.3 164.52,-33.51 174.97,-31.79"/>
<polygon fill="#63b8ff" stroke="#63b8ff" points="142.33,-33.62 133.04,-38.7 143.47,-40.53 142.33,-33.62"/>
</a>
</g>
</g>
</g>
</svg>
