<?xml version="1.0" encoding="UTF-8" standalone="no"?>
<!DOCTYPE svg PUBLIC "-//W3C//DTD SVG 1.1//EN"
 "http://www.w3.org/Graphics/SVG/1.1/DTD/svg11.dtd">
<!-- Generated by graphviz version 2.43.0 (0)
 -->
<!-- Title: llvm::CastInfo&lt; T, ::mlir::Operation &gt; Pages: 1 -->
<svg width="317pt" height="98pt"
 viewBox="0.00 0.00 317.00 97.50" xmlns="http://www.w3.org/2000/svg" xmlns:xlink="http://www.w3.org/1999/xlink">
<g id="graph0" class="graph" transform="scale(1 1) rotate(0) translate(4 93.5)">
<title>llvm::CastInfo&lt; T, ::mlir::Operation &gt;</title>
<!-- Node1 -->
<g id="Node000001" class="node">
<title>Node1</title>
<g id="a_Node000001"><a xlink:title="Cast from an (const) Operation &amp; to a derived operation type.">
<polygon fill="#999999" stroke="#666666" points="309,-68 199,-68 199,-38 309,-38 309,-68"/>
<text text-anchor="start" x="207" y="-56" font-family="Helvetica,sans-Serif" font-size="10.00">llvm::CastInfo&lt; T,</text>
<text text-anchor="middle" x="254" y="-45" font-family="Helvetica,sans-Serif" font-size="10.00"> ::mlir::Operation &gt;</text>
</a>
</g>
</g>
<!-- Node2 -->
<g id="Node000002" class="node">
<title>Node2</title>
<g id="a_Node000002"><a xlink:href="classNullableValueCastFailed.html" target="_top" xlink:title=" ">
<polygon fill="white" stroke="#666666" points="163,-89.5 0,-89.5 0,-70.5 163,-70.5 163,-89.5"/>
<text text-anchor="middle" x="81.5" y="-77.5" font-family="Helvetica,sans-Serif" font-size="10.00">NullableValueCastFailed&lt; T &gt;</text>
</a>
</g>
</g>
<!-- Node2&#45;&gt;Node1 -->
<g id="edge1_Node000001_Node000002" class="edge">
<title>Node2&#45;&gt;Node1</title>
<g id="a_edge1_Node000001_Node000002"><a xlink:title=" ">
<path fill="none" stroke="#63b8ff" d="M152.63,-68.9C168.05,-66.45 184.15,-63.9 198.83,-61.58"/>
<polygon fill="#63b8ff" stroke="#63b8ff" points="151.94,-65.46 142.61,-70.48 153.04,-72.37 151.94,-65.46"/>
</a>
</g>
</g>
<!-- Node3 -->
<g id="Node000003" class="node">
<title>Node3</title>
<g id="a_Node000003"><a xlink:href="classDefaultDoCastIfPossible.html" target="_top" xlink:title=" ">
<polygon fill="white" stroke="#666666" points="149,-52 14,-52 14,0 149,0 149,-52"/>
<text text-anchor="start" x="22" y="-40" font-family="Helvetica,sans-Serif" font-size="10.00">DefaultDoCastIfPossible</text>
<text text-anchor="start" x="22" y="-29" font-family="Helvetica,sans-Serif" font-size="10.00">&lt; T, ::mlir::Operation</text>
<text text-anchor="start" x="22" y="-18" font-family="Helvetica,sans-Serif" font-size="10.00"> &amp;, CastInfo&lt; T, ::mlir</text>
<text text-anchor="middle" x="81.5" y="-7" font-family="Helvetica,sans-Serif" font-size="10.00">::Operation &gt; &gt;</text>
</a>
</g>
</g>
<!-- Node3&#45;&gt;Node1 -->
<g id="edge2_Node000001_Node000003" class="edge">
<title>Node3&#45;&gt;Node1</title>
<g id="a_edge2_Node000001_Node000003"><a xlink:title=" ">
<path fill="none" stroke="#63b8ff" d="M159.5,-38.19C172.81,-40.3 186.39,-42.45 198.92,-44.44"/>
<polygon fill="#63b8ff" stroke="#63b8ff" points="159.82,-34.7 149.4,-36.59 158.73,-41.61 159.82,-34.7"/>
</a>
</g>
</g>
</g>
</svg>
