<?xml version="1.0" encoding="UTF-8" standalone="no"?>
<!DOCTYPE svg PUBLIC "-//W3C//DTD SVG 1.1//EN"
 "http://www.w3.org/Graphics/SVG/1.1/DTD/svg11.dtd">
<!-- Generated by graphviz version 2.43.0 (0)
 -->
<!-- Title: mlir::math::ErfcPolynomialApproximation Pages: 1 -->
<svg width="1174pt" height="108pt"
 viewBox="0.00 0.00 1174.00 107.70" xmlns="http://www.w3.org/2000/svg" xmlns:xlink="http://www.w3.org/1999/xlink">
<g id="graph0" class="graph" transform="scale(1 1) rotate(0) translate(4 103.7)">
<title>mlir::math::ErfcPolynomialApproximation</title>
<!-- Node1 -->
<g id="Node000001" class="node">
<title>Node1</title>
<g id="a_Node000001"><a xlink:title=" ">
<polygon fill="#999999" stroke="#666666" points="1166,-57 1019,-57 1019,-27 1166,-27 1166,-57"/>
<text text-anchor="start" x="1027" y="-45" font-family="Helvetica,sans-Serif" font-size="10.00">mlir::math::ErfcPolynomial</text>
<text text-anchor="middle" x="1092.5" y="-34" font-family="Helvetica,sans-Serif" font-size="10.00">Approximation</text>
</a>
</g>
</g>
<!-- Node2 -->
<g id="Node000002" class="node">
<title>Node2</title>
<g id="a_Node000002"><a xlink:href="structmlir_1_1OpRewritePattern.html" target="_top" xlink:title=" ">
<polygon fill="white" stroke="#666666" points="982,-57 854,-57 854,-27 982,-27 982,-57"/>
<text text-anchor="start" x="862" y="-45" font-family="Helvetica,sans-Serif" font-size="10.00">mlir::OpRewritePattern</text>
<text text-anchor="middle" x="918" y="-34" font-family="Helvetica,sans-Serif" font-size="10.00">&lt; math::ErfcOp &gt;</text>
</a>
</g>
</g>
<!-- Node2&#45;&gt;Node1 -->
<g id="edge1_Node000001_Node000002" class="edge">
<title>Node2&#45;&gt;Node1</title>
<g id="a_edge1_Node000001_Node000002"><a xlink:title=" ">
<path fill="none" stroke="#63b8ff" d="M992.44,-42C1001.21,-42 1010.16,-42 1018.91,-42"/>
<polygon fill="#63b8ff" stroke="#63b8ff" points="992.25,-38.5 982.25,-42 992.25,-45.5 992.25,-38.5"/>
</a>
</g>
</g>
<!-- Node3 -->
<g id="Node000003" class="node">
<title>Node3</title>
<g id="a_Node000003"><a xlink:href="structmlir_1_1detail_1_1OpOrInterfaceRewritePatternBase.html" target="_top" xlink:title=" ">
<polygon fill="white" stroke="#666666" points="725,-89.5 576,-89.5 576,-48.5 725,-48.5 725,-89.5"/>
<text text-anchor="start" x="584" y="-77.5" font-family="Helvetica,sans-Serif" font-size="10.00">mlir::detail::OpOrInterface</text>
<text text-anchor="start" x="584" y="-66.5" font-family="Helvetica,sans-Serif" font-size="10.00">RewritePatternBase&lt; math</text>
<text text-anchor="middle" x="650.5" y="-55.5" font-family="Helvetica,sans-Serif" font-size="10.00">::ErfcOp &gt;</text>
</a>
</g>
</g>
<!-- Node3&#45;&gt;Node2 -->
<g id="edge2_Node000002_Node000003" class="edge">
<title>Node3&#45;&gt;Node2</title>
<g id="a_edge2_Node000002_Node000003"><a xlink:title=" ">
<path fill="none" stroke="#63b8ff" d="M735.21,-60.49C773.52,-56.59 818.16,-52.05 853.62,-48.44"/>
<polygon fill="#63b8ff" stroke="#63b8ff" points="734.7,-57.02 725.1,-61.51 735.41,-63.99 734.7,-57.02"/>
</a>
</g>
</g>
<!-- Node4 -->
<g id="Node000004" class="node">
<title>Node4</title>
<g id="a_Node000004"><a xlink:href="classmlir_1_1RewritePattern.html" target="_top" xlink:title="RewritePattern is the common base class for all DAG to DAG replacements.">
<polygon fill="white" stroke="#666666" points="228,-72.5 114,-72.5 114,-53.5 228,-53.5 228,-72.5"/>
<text text-anchor="middle" x="171" y="-60.5" font-family="Helvetica,sans-Serif" font-size="10.00">mlir::RewritePattern</text>
</a>
</g>
</g>
<!-- Node4&#45;&gt;Node3 -->
<g id="edge3_Node000003_Node000004" class="edge">
<title>Node4&#45;&gt;Node3</title>
<g id="a_edge3_Node000003_Node000004"><a xlink:title=" ">
<path fill="none" stroke="#63b8ff" d="M211.19,-75.36C227.63,-79.96 247.07,-84.63 265,-87 394.1,-104.05 428.53,-102.98 558,-89 563.82,-88.37 569.81,-87.52 575.81,-86.53"/>
<polygon fill="#63b8ff" stroke="#63b8ff" points="211.95,-71.94 201.38,-72.53 210.01,-78.67 211.95,-71.94"/>
</a>
</g>
</g>
<!-- Node6 -->
<g id="Node000006" class="node">
<title>Node6</title>
<g id="a_Node000006"><a xlink:href="structmlir_1_1detail_1_1OpOrInterfaceRewritePatternBase.html" target="_top" xlink:title="OpOrInterfaceRewritePatternBase is a wrapper around RewritePattern that allows for matching and rewri...">
<polygon fill="white" stroke="#666666" points="447,-78 265,-78 265,-48 447,-48 447,-78"/>
<text text-anchor="start" x="273" y="-66" font-family="Helvetica,sans-Serif" font-size="10.00">mlir::detail::OpOrInterface</text>
<text text-anchor="middle" x="356" y="-55" font-family="Helvetica,sans-Serif" font-size="10.00">RewritePatternBase&lt; SourceOp &gt;</text>
</a>
</g>
</g>
<!-- Node4&#45;&gt;Node6 -->
<g id="edge6_Node000006_Node000004" class="edge">
<title>Node4&#45;&gt;Node6</title>
<g id="a_edge6_Node000006_Node000004"><a xlink:title=" ">
<path fill="none" stroke="#63b8ff" d="M238.62,-63C247.14,-63 255.97,-63 264.78,-63"/>
<polygon fill="#63b8ff" stroke="#63b8ff" points="238.4,-59.5 228.4,-63 238.4,-66.5 238.4,-59.5"/>
</a>
</g>
</g>
<!-- Node8 -->
<g id="Node000008" class="node">
<title>Node8</title>
<g id="a_Node000008"><a xlink:href="structmlir_1_1detail_1_1OpOrInterfaceRewritePatternBase.html" target="_top" xlink:title="OpOrInterfaceRewritePatternBase is a wrapper around RewritePattern that allows for matching and rewri...">
<polygon fill="white" stroke="#666666" points="447,-30 265,-30 265,0 447,0 447,-30"/>
<text text-anchor="start" x="273" y="-18" font-family="Helvetica,sans-Serif" font-size="10.00">mlir::detail::OpOrInterface</text>
<text text-anchor="middle" x="356" y="-7" font-family="Helvetica,sans-Serif" font-size="10.00">RewritePatternBase&lt; SourceOp &gt;</text>
</a>
</g>
</g>
<!-- Node4&#45;&gt;Node8 -->
<g id="edge9_Node000008_Node000004" class="edge">
<title>Node4&#45;&gt;Node8</title>
<g id="a_edge9_Node000008_Node000004"><a xlink:title=" ">
<path fill="none" stroke="#63b8ff" d="M218.53,-50.8C242.57,-44.49 272.12,-36.74 297.57,-30.06"/>
<polygon fill="#63b8ff" stroke="#63b8ff" points="217.38,-47.48 208.59,-53.4 219.15,-54.25 217.38,-47.48"/>
</a>
</g>
</g>
<!-- Node5 -->
<g id="Node000005" class="node">
<title>Node5</title>
<g id="a_Node000005"><a xlink:href="classmlir_1_1Pattern.html" target="_top" xlink:title="This class contains all of the data related to a pattern, but does not contain any methods or logic f...">
<polygon fill="white" stroke="#666666" points="77,-72.5 0,-72.5 0,-53.5 77,-53.5 77,-72.5"/>
<text text-anchor="middle" x="38.5" y="-60.5" font-family="Helvetica,sans-Serif" font-size="10.00">mlir::Pattern</text>
</a>
</g>
</g>
<!-- Node5&#45;&gt;Node4 -->
<g id="edge4_Node000004_Node000005" class="edge">
<title>Node5&#45;&gt;Node4</title>
<g id="a_edge4_Node000004_Node000005"><a xlink:title=" ">
<path fill="none" stroke="#63b8ff" d="M87.47,-63C96.06,-63 105.09,-63 113.89,-63"/>
<polygon fill="#63b8ff" stroke="#63b8ff" points="87.25,-59.5 77.25,-63 87.25,-66.5 87.25,-59.5"/>
</a>
</g>
</g>
<!-- Node6&#45;&gt;Node3 -->
<g id="edge5_Node000003_Node000006" class="edge">
<title>Node6&#45;&gt;Node3</title>
<g id="a_edge5_Node000003_Node000006"><a xlink:title=" ">
<path fill="none" stroke="orange" stroke-dasharray="5,2" d="M457.44,-65.06C496.31,-65.86 539.97,-66.75 575.83,-67.49"/>
<polygon fill="orange" stroke="orange" points="457.22,-61.56 447.15,-64.85 457.07,-68.55 457.22,-61.56"/>
</a>
</g>
<text text-anchor="start" x="468.5" y="-73.5" font-family="Helvetica,sans-Serif" font-size="10.00" fill="grey">&lt; math::ErfcOp &gt;</text>
</g>
<!-- Node7 -->
<g id="Node000007" class="node">
<title>Node7</title>
<g id="a_Node000007"><a xlink:href="structmlir_1_1OpRewritePattern.html" target="_top" xlink:title="OpRewritePattern is a wrapper around RewritePattern that allows for matching and rewriting against an...">
<polygon fill="white" stroke="#666666" points="714.5,-30 586.5,-30 586.5,0 714.5,0 714.5,-30"/>
<text text-anchor="start" x="594.5" y="-18" font-family="Helvetica,sans-Serif" font-size="10.00">mlir::OpRewritePattern</text>
<text text-anchor="middle" x="650.5" y="-7" font-family="Helvetica,sans-Serif" font-size="10.00">&lt; SourceOp &gt;</text>
</a>
</g>
</g>
<!-- Node7&#45;&gt;Node2 -->
<g id="edge7_Node000002_Node000007" class="edge">
<title>Node7&#45;&gt;Node2</title>
<g id="a_edge7_Node000002_Node000007"><a xlink:title=" ">
<path fill="none" stroke="orange" stroke-dasharray="5,2" d="M725.06,-19.86C758.9,-22.39 799.54,-25.82 836,-30 841.79,-30.66 847.8,-31.42 853.82,-32.23"/>
<polygon fill="orange" stroke="orange" points="725.02,-16.35 714.79,-19.11 724.51,-23.33 725.02,-16.35"/>
</a>
</g>
<text text-anchor="start" x="746.5" y="-35.5" font-family="Helvetica,sans-Serif" font-size="10.00" fill="grey">&lt; math::ErfcOp &gt;</text>
</g>
<!-- Node8&#45;&gt;Node7 -->
<g id="edge8_Node000007_Node000008" class="edge">
<title>Node8&#45;&gt;Node7</title>
<g id="a_edge8_Node000007_Node000008"><a xlink:title=" ">
<path fill="none" stroke="#63b8ff" d="M457.29,-15C499.98,-15 548.48,-15 586.08,-15"/>
<polygon fill="#63b8ff" stroke="#63b8ff" points="457.15,-11.5 447.15,-15 457.15,-18.5 457.15,-11.5"/>
</a>
</g>
</g>
</g>
</svg>
