<?xml version="1.0" encoding="UTF-8" standalone="no"?>
<!DOCTYPE svg PUBLIC "-//W3C//DTD SVG 1.1//EN"
 "http://www.w3.org/Graphics/SVG/1.1/DTD/svg11.dtd">
<!-- Generated by graphviz version 2.43.0 (0)
 -->
<!-- Title: Vector&lt; T, Dim &gt; Pages: 1 -->
<svg width="657pt" height="113pt"
 viewBox="0.00 0.00 657.00 112.50" xmlns="http://www.w3.org/2000/svg" xmlns:xlink="http://www.w3.org/1999/xlink">
<g id="graph0" class="graph" transform="scale(1 1) rotate(0) translate(4 108.5)">
<title>Vector&lt; T, Dim &gt;</title>
<!-- Node1 -->
<g id="Node000001" class="node">
<title>Node1</title>
<g id="a_Node000001"><a xlink:title=" ">
<polygon fill="#999999" stroke="#666666" points="649,-35 547,-35 547,-16 649,-16 649,-35"/>
<text text-anchor="middle" x="598" y="-23" font-family="Helvetica,sans-Serif" font-size="10.00">Vector&lt; T, Dim &gt;</text>
</a>
</g>
</g>
<!-- Node2 -->
<g id="Node000002" class="node">
<title>Node2</title>
<g id="a_Node000002"><a xlink:href="structmlir_1_1detail_1_1Vector1D.html" target="_top" xlink:title=" ">
<polygon fill="white" stroke="#666666" points="450,-78 286,-78 286,-37 450,-37 450,-78"/>
<text text-anchor="start" x="294" y="-66" font-family="Helvetica,sans-Serif" font-size="10.00">mlir::detail::Vector1D</text>
<text text-anchor="start" x="294" y="-55" font-family="Helvetica,sans-Serif" font-size="10.00">&lt; T, Dim, mlir::detail</text>
<text text-anchor="middle" x="368" y="-44" font-family="Helvetica,sans-Serif" font-size="10.00">::isPowerOf2(sizeof(T[Dim]))&gt;</text>
</a>
</g>
</g>
<!-- Node2&#45;&gt;Node1 -->
<g id="edge1_Node000001_Node000002" class="edge">
<title>Node2&#45;&gt;Node1</title>
<g id="a_edge1_Node000001_Node000002"><a xlink:title=" ">
<path fill="none" stroke="#63b8ff" d="M459.92,-45.15C482.49,-42.04 506.63,-38.68 529,-35.5 534.79,-34.68 540.85,-33.8 546.87,-32.93"/>
<polygon fill="#63b8ff" stroke="#63b8ff" points="459.44,-41.68 450.01,-46.51 460.39,-48.62 459.44,-41.68"/>
</a>
</g>
</g>
<!-- Node3 -->
<g id="Node000003" class="node">
<title>Node3</title>
<g id="a_Node000003"><a xlink:href="structmlir_1_1detail_1_1Vector1D.html" target="_top" xlink:title=" ">
<polygon fill="white" stroke="#666666" points="133,-72.5 0,-72.5 0,-42.5 133,-42.5 133,-72.5"/>
<text text-anchor="start" x="8" y="-60.5" font-family="Helvetica,sans-Serif" font-size="10.00">mlir::detail::Vector1D</text>
<text text-anchor="middle" x="66.5" y="-49.5" font-family="Helvetica,sans-Serif" font-size="10.00">&lt; T, Dim, IsPowerOf2 &gt;</text>
</a>
</g>
</g>
<!-- Node3&#45;&gt;Node2 -->
<g id="edge2_Node000002_Node000003" class="edge">
<title>Node3&#45;&gt;Node2</title>
<g id="a_edge2_Node000002_Node000003"><a xlink:title=" ">
<path fill="none" stroke="orange" stroke-dasharray="5,2" d="M143.47,-57.5C186.99,-57.5 241.59,-57.5 285.94,-57.5"/>
<polygon fill="orange" stroke="orange" points="143.23,-54 133.23,-57.5 143.23,-61 143.23,-54"/>
</a>
</g>
<text text-anchor="start" x="154.5" y="-93" font-family="Helvetica,sans-Serif" font-size="10.00" fill="grey">&lt; T, Dim, mlir::detail</text>
<text text-anchor="start" x="154.5" y="-78" font-family="Helvetica,sans-Serif" font-size="10.00" fill="grey">  ::isPowerOf2(sizeof(T</text>
<text text-anchor="start" x="154.5" y="-63" font-family="Helvetica,sans-Serif" font-size="10.00" fill="grey">  [Dim]))&gt;</text>
</g>
<!-- Node4 -->
<g id="Node000004" class="node">
<title>Node4</title>
<g id="a_Node000004"><a xlink:href="structVector.html" target="_top" xlink:title=" ">
<polygon fill="white" stroke="#666666" points="435,-19 301,-19 301,0 435,0 435,-19"/>
<text text-anchor="middle" x="368" y="-7" font-family="Helvetica,sans-Serif" font-size="10.00">Vector&lt; T, Dim, Dims &gt;</text>
</a>
</g>
</g>
<!-- Node4&#45;&gt;Node1 -->
<g id="edge3_Node000001_Node000004" class="edge">
<title>Node4&#45;&gt;Node1</title>
<g id="a_edge3_Node000001_Node000004"><a xlink:title=" ">
<path fill="none" stroke="orange" stroke-dasharray="5,2" d="M445.21,-13.06C471.74,-14.5 501.7,-16.33 529,-18.5 534.8,-18.96 540.87,-19.5 546.89,-20.08"/>
<polygon fill="orange" stroke="orange" points="445.39,-9.57 435.22,-12.53 445.02,-16.56 445.39,-9.57"/>
</a>
</g>
<text text-anchor="start" x="471.5" y="-24" font-family="Helvetica,sans-Serif" font-size="10.00" fill="grey">&lt; T, Dim &gt;</text>
</g>
</g>
</svg>
