<?xml version="1.0" encoding="UTF-8" standalone="no"?>
<!DOCTYPE svg PUBLIC "-//W3C//DTD SVG 1.1//EN"
 "http://www.w3.org/Graphics/SVG/1.1/DTD/svg11.dtd">
<!-- Generated by graphviz version 2.43.0 (0)
 -->
<!-- Title: mlir::xegpu::uArch::Xe3 Pages: 1 -->
<svg width="138pt" height="159pt"
 viewBox="0.00 0.00 138.00 159.00" xmlns="http://www.w3.org/2000/svg" xmlns:xlink="http://www.w3.org/1999/xlink">
<g id="graph0" class="graph" transform="scale(1 1) rotate(0) translate(4 155)">
<title>mlir::xegpu::uArch::Xe3</title>
<!-- Node1 -->
<g id="Node000001" class="node">
<title>Node1</title>
<g id="a_Node000001"><a xlink:title=" ">
<polygon fill="#999999" stroke="#666666" points="130,-85 0,-85 0,-66 130,-66 130,-85"/>
<text text-anchor="middle" x="65" y="-73" font-family="Helvetica,sans-Serif" font-size="10.00">mlir::xegpu::uArch::Xe3</text>
</a>
</g>
</g>
<!-- Node3 -->
<g id="Node000003" class="node">
<title>Node3</title>
<g id="a_Node000003"><a xlink:href="structmlir_1_1xegpu_1_1uArch_1_1CRIuArch.html" target="_top" xlink:title=" ">
<polygon fill="white" stroke="#666666" points="117.5,-30 12.5,-30 12.5,0 117.5,0 117.5,-30"/>
<text text-anchor="start" x="20.5" y="-18" font-family="Helvetica,sans-Serif" font-size="10.00">mlir::xegpu::uArch</text>
<text text-anchor="middle" x="65" y="-7" font-family="Helvetica,sans-Serif" font-size="10.00">::CRIuArch</text>
</a>
</g>
</g>
<!-- Node1&#45;&gt;Node3 -->
<g id="edge2_Node000001_Node000003" class="edge">
<title>Node1&#45;&gt;Node3</title>
<g id="a_edge2_Node000001_Node000003"><a xlink:title=" ">
<path fill="none" stroke="#63b8ff" d="M65,-55.65C65,-47.36 65,-37.78 65,-30.11"/>
<polygon fill="#63b8ff" stroke="#63b8ff" points="61.5,-55.87 65,-65.87 68.5,-55.87 61.5,-55.87"/>
</a>
</g>
</g>
<!-- Node2 -->
<g id="Node000002" class="node">
<title>Node2</title>
<g id="a_Node000002"><a xlink:href="structmlir_1_1xegpu_1_1uArch_1_1uArch.html" target="_top" xlink:title=" ">
<polygon fill="white" stroke="#666666" points="117.5,-151 12.5,-151 12.5,-121 117.5,-121 117.5,-151"/>
<text text-anchor="start" x="20.5" y="-139" font-family="Helvetica,sans-Serif" font-size="10.00">mlir::xegpu::uArch</text>
<text text-anchor="middle" x="65" y="-128" font-family="Helvetica,sans-Serif" font-size="10.00">::uArch</text>
</a>
</g>
</g>
<!-- Node2&#45;&gt;Node1 -->
<g id="edge1_Node000001_Node000002" class="edge">
<title>Node2&#45;&gt;Node1</title>
<g id="a_edge1_Node000001_Node000002"><a xlink:title=" ">
<path fill="none" stroke="#63b8ff" d="M65,-110.75C65,-101.72 65,-92.03 65,-85.27"/>
<polygon fill="#63b8ff" stroke="#63b8ff" points="61.5,-110.84 65,-120.84 68.5,-110.84 61.5,-110.84"/>
</a>
</g>
</g>
</g>
</svg>
