<?xml version="1.0" encoding="UTF-8" standalone="no"?>
<!DOCTYPE svg PUBLIC "-//W3C//DTD SVG 1.1//EN"
 "http://www.w3.org/Graphics/SVG/1.1/DTD/svg11.dtd">
<!-- Generated by graphviz version 2.43.0 (0)
 -->
<!-- Title: mlir::OpTrait::detail::MultiSuccessorTraitBase&lt; ConcreteType, TraitType &gt; Pages: 1 -->
<svg width="1001pt" height="190pt"
 viewBox="0.00 0.00 1001.00 189.50" xmlns="http://www.w3.org/2000/svg" xmlns:xlink="http://www.w3.org/1999/xlink">
<g id="graph0" class="graph" transform="scale(1 1) rotate(0) translate(4 185.5)">
<title>mlir::OpTrait::detail::MultiSuccessorTraitBase&lt; ConcreteType, TraitType &gt;</title>
<!-- Node1 -->
<g id="Node000001" class="node">
<title>Node1</title>
<g id="a_Node000001"><a xlink:title="Utility trait base that provides accessors for derived traits that have multiple successors.">
<polygon fill="#999999" stroke="#666666" points="347,-106 192,-106 192,-65 347,-65 347,-106"/>
<text text-anchor="start" x="200" y="-94" font-family="Helvetica,sans-Serif" font-size="10.00">mlir::OpTrait::detail</text>
<text text-anchor="start" x="200" y="-83" font-family="Helvetica,sans-Serif" font-size="10.00">::MultiSuccessorTraitBase</text>
<text text-anchor="middle" x="269.5" y="-72" font-family="Helvetica,sans-Serif" font-size="10.00">&lt; ConcreteType, TraitType &gt;</text>
</a>
</g>
</g>
<!-- Node3 -->
<g id="Node000003" class="node">
<title>Node3</title>
<g id="a_Node000003"><a xlink:href="structmlir_1_1OpTrait_1_1detail_1_1MultiSuccessorTraitBase.html" target="_top" xlink:title=" ">
<polygon fill="white" stroke="#666666" points="772,-181.5 574,-181.5 574,-129.5 772,-129.5 772,-181.5"/>
<text text-anchor="start" x="582" y="-169.5" font-family="Helvetica,sans-Serif" font-size="10.00">mlir::OpTrait::detail</text>
<text text-anchor="start" x="582" y="-158.5" font-family="Helvetica,sans-Serif" font-size="10.00">::MultiSuccessorTraitBase</text>
<text text-anchor="start" x="582" y="-147.5" font-family="Helvetica,sans-Serif" font-size="10.00">&lt; ConcreteType, AtLeastNSuccessors</text>
<text text-anchor="middle" x="673" y="-136.5" font-family="Helvetica,sans-Serif" font-size="10.00">&lt; N &gt;::Impl &gt;</text>
</a>
</g>
</g>
<!-- Node1&#45;&gt;Node3 -->
<g id="edge2_Node000001_Node000003" class="edge">
<title>Node1&#45;&gt;Node3</title>
<g id="a_edge2_Node000001_Node000003"><a xlink:title=" ">
<path fill="none" stroke="orange" stroke-dasharray="5,2" d="M327.04,-109.7C339.37,-114.22 352.48,-118.47 365,-121.5 433.67,-138.1 512.97,-146.62 573.77,-150.98"/>
<polygon fill="orange" stroke="orange" points="327.94,-106.3 317.34,-106.03 325.46,-112.85 327.94,-106.3"/>
</a>
</g>
<text text-anchor="start" x="368" y="-169.5" font-family="Helvetica,sans-Serif" font-size="10.00" fill="grey">&lt; ConcreteType, AtLeastNSuccessors</text>
<text text-anchor="start" x="368" y="-154.5" font-family="Helvetica,sans-Serif" font-size="10.00" fill="grey">  &lt; N &gt;::Impl &gt;</text>
</g>
<!-- Node5 -->
<g id="Node000005" class="node">
<title>Node5</title>
<g id="a_Node000005"><a xlink:href="structmlir_1_1OpTrait_1_1detail_1_1MultiSuccessorTraitBase.html" target="_top" xlink:title=" ">
<polygon fill="white" stroke="#666666" points="753.5,-111.5 592.5,-111.5 592.5,-59.5 753.5,-59.5 753.5,-111.5"/>
<text text-anchor="start" x="600.5" y="-99.5" font-family="Helvetica,sans-Serif" font-size="10.00">mlir::OpTrait::detail</text>
<text text-anchor="start" x="600.5" y="-88.5" font-family="Helvetica,sans-Serif" font-size="10.00">::MultiSuccessorTraitBase</text>
<text text-anchor="start" x="600.5" y="-77.5" font-family="Helvetica,sans-Serif" font-size="10.00">&lt; ConcreteType, NSuccessors</text>
<text text-anchor="middle" x="673" y="-66.5" font-family="Helvetica,sans-Serif" font-size="10.00">&lt; N &gt;::Impl &gt;</text>
</a>
</g>
</g>
<!-- Node1&#45;&gt;Node5 -->
<g id="edge4_Node000001_Node000005" class="edge">
<title>Node1&#45;&gt;Node5</title>
<g id="a_edge4_Node000001_Node000005"><a xlink:title=" ">
<path fill="none" stroke="orange" stroke-dasharray="5,2" d="M357.53,-85.5C427.31,-85.5 524.44,-85.5 592.23,-85.5"/>
<polygon fill="orange" stroke="orange" points="357.44,-82 347.44,-85.5 357.44,-89 357.44,-82"/>
</a>
</g>
<text text-anchor="start" x="387" y="-106.5" font-family="Helvetica,sans-Serif" font-size="10.00" fill="grey">&lt; ConcreteType, NSuccessors</text>
<text text-anchor="start" x="387" y="-91.5" font-family="Helvetica,sans-Serif" font-size="10.00" fill="grey">  &lt; N &gt;::Impl &gt;</text>
</g>
<!-- Node7 -->
<g id="Node000007" class="node">
<title>Node7</title>
<g id="a_Node000007"><a xlink:href="structmlir_1_1OpTrait_1_1detail_1_1MultiSuccessorTraitBase.html" target="_top" xlink:title=" ">
<polygon fill="white" stroke="#666666" points="775,-41 571,-41 571,0 775,0 775,-41"/>
<text text-anchor="start" x="579" y="-29" font-family="Helvetica,sans-Serif" font-size="10.00">mlir::OpTrait::detail</text>
<text text-anchor="start" x="579" y="-18" font-family="Helvetica,sans-Serif" font-size="10.00">::MultiSuccessorTraitBase</text>
<text text-anchor="middle" x="673" y="-7" font-family="Helvetica,sans-Serif" font-size="10.00">&lt; ConcreteType, VariadicSuccessors &gt;</text>
</a>
</g>
</g>
<!-- Node1&#45;&gt;Node7 -->
<g id="edge6_Node000001_Node000007" class="edge">
<title>Node1&#45;&gt;Node7</title>
<g id="a_edge6_Node000001_Node000007"><a xlink:title=" ">
<path fill="none" stroke="orange" stroke-dasharray="5,2" d="M326.24,-61.43C338.79,-56.81 352.19,-52.49 365,-49.5 432.52,-33.76 510.29,-26.52 570.66,-23.21"/>
<polygon fill="orange" stroke="orange" points="324.93,-58.18 316.83,-65 327.42,-64.72 324.93,-58.18"/>
</a>
</g>
<text text-anchor="start" x="398" y="-70.5" font-family="Helvetica,sans-Serif" font-size="10.00" fill="grey">&lt; ConcreteType, Variadic</text>
<text text-anchor="start" x="398" y="-55.5" font-family="Helvetica,sans-Serif" font-size="10.00" fill="grey">  Successors &gt;</text>
</g>
<!-- Node2 -->
<g id="Node000002" class="node">
<title>Node2</title>
<g id="a_Node000002"><a xlink:href="classmlir_1_1OpTrait_1_1TraitBase.html" target="_top" xlink:title="Helper class for implementing traits.">
<polygon fill="white" stroke="#666666" points="155,-100.5 0,-100.5 0,-70.5 155,-70.5 155,-100.5"/>
<text text-anchor="start" x="8" y="-88.5" font-family="Helvetica,sans-Serif" font-size="10.00">mlir::OpTrait::TraitBase</text>
<text text-anchor="middle" x="77.5" y="-77.5" font-family="Helvetica,sans-Serif" font-size="10.00">&lt; ConcreteType, TraitType &gt;</text>
</a>
</g>
</g>
<!-- Node2&#45;&gt;Node1 -->
<g id="edge1_Node000001_Node000002" class="edge">
<title>Node2&#45;&gt;Node1</title>
<g id="a_edge1_Node000001_Node000002"><a xlink:title=" ">
<path fill="none" stroke="#63b8ff" d="M165.48,-85.5C174.26,-85.5 183.13,-85.5 191.79,-85.5"/>
<polygon fill="#63b8ff" stroke="#63b8ff" points="165.23,-82 155.23,-85.5 165.23,-89 165.23,-82"/>
</a>
</g>
</g>
<!-- Node4 -->
<g id="Node000004" class="node">
<title>Node4</title>
<g id="a_Node000004"><a xlink:href="classmlir_1_1OpTrait_1_1AtLeastNSuccessors_1_1Impl.html" target="_top" xlink:title=" ">
<polygon fill="white" stroke="#666666" points="993,-170.5 812,-170.5 812,-140.5 993,-140.5 993,-170.5"/>
<text text-anchor="start" x="820" y="-158.5" font-family="Helvetica,sans-Serif" font-size="10.00">mlir::OpTrait::AtLeastNSuccessors</text>
<text text-anchor="middle" x="902.5" y="-147.5" font-family="Helvetica,sans-Serif" font-size="10.00">&lt; N &gt;::Impl&lt; ConcreteType &gt;</text>
</a>
</g>
</g>
<!-- Node3&#45;&gt;Node4 -->
<g id="edge3_Node000003_Node000004" class="edge">
<title>Node3&#45;&gt;Node4</title>
<g id="a_edge3_Node000003_Node000004"><a xlink:title=" ">
<path fill="none" stroke="#63b8ff" d="M782.41,-155.5C792.3,-155.5 802.24,-155.5 811.94,-155.5"/>
<polygon fill="#63b8ff" stroke="#63b8ff" points="782.13,-152 772.13,-155.5 782.13,-159 782.13,-152"/>
</a>
</g>
</g>
<!-- Node6 -->
<g id="Node000006" class="node">
<title>Node6</title>
<g id="a_Node000006"><a xlink:href="classmlir_1_1OpTrait_1_1NSuccessors_1_1Impl.html" target="_top" xlink:title=" ">
<polygon fill="white" stroke="#666666" points="984,-100.5 821,-100.5 821,-70.5 984,-70.5 984,-100.5"/>
<text text-anchor="start" x="829" y="-88.5" font-family="Helvetica,sans-Serif" font-size="10.00">mlir::OpTrait::NSuccessors</text>
<text text-anchor="middle" x="902.5" y="-77.5" font-family="Helvetica,sans-Serif" font-size="10.00">&lt; N &gt;::Impl&lt; ConcreteType &gt;</text>
</a>
</g>
</g>
<!-- Node5&#45;&gt;Node6 -->
<g id="edge5_Node000005_Node000006" class="edge">
<title>Node5&#45;&gt;Node6</title>
<g id="a_edge5_Node000005_Node000006"><a xlink:title=" ">
<path fill="none" stroke="#63b8ff" d="M763.64,-85.5C782.51,-85.5 802.31,-85.5 820.82,-85.5"/>
<polygon fill="#63b8ff" stroke="#63b8ff" points="763.57,-82 753.57,-85.5 763.57,-89 763.57,-82"/>
</a>
</g>
</g>
<!-- Node8 -->
<g id="Node000008" class="node">
<title>Node8</title>
<g id="a_Node000008"><a xlink:href="classmlir_1_1OpTrait_1_1VariadicSuccessors.html" target="_top" xlink:title="This class provides the API for ops which have an unknown number of successors.">
<polygon fill="white" stroke="#666666" points="990.5,-35.5 814.5,-35.5 814.5,-5.5 990.5,-5.5 990.5,-35.5"/>
<text text-anchor="start" x="822.5" y="-23.5" font-family="Helvetica,sans-Serif" font-size="10.00">mlir::OpTrait::VariadicSuccessors</text>
<text text-anchor="middle" x="902.5" y="-12.5" font-family="Helvetica,sans-Serif" font-size="10.00">&lt; ConcreteType &gt;</text>
</a>
</g>
</g>
<!-- Node7&#45;&gt;Node8 -->
<g id="edge7_Node000007_Node000008" class="edge">
<title>Node7&#45;&gt;Node8</title>
<g id="a_edge7_Node000007_Node000008"><a xlink:title=" ">
<path fill="none" stroke="#63b8ff" d="M785.24,-20.5C794.98,-20.5 804.74,-20.5 814.25,-20.5"/>
<polygon fill="#63b8ff" stroke="#63b8ff" points="785.11,-17 775.11,-20.5 785.11,-24 785.11,-17"/>
</a>
</g>
</g>
</g>
</svg>
