<?xml version="1.0" encoding="UTF-8" standalone="no"?>
<!DOCTYPE svg PUBLIC "-//W3C//DTD SVG 1.1//EN"
 "http://www.w3.org/Graphics/SVG/1.1/DTD/svg11.dtd">
<!-- Generated by graphviz version 2.43.0 (0)
 -->
<!-- Title: mlir::OpInterfaceRewritePattern&lt; SourceOp &gt; Pages: 1 -->
<svg width="1257pt" height="131pt"
 viewBox="0.00 0.00 1257.00 131.00" xmlns="http://www.w3.org/2000/svg" xmlns:xlink="http://www.w3.org/1999/xlink">
<g id="graph0" class="graph" transform="scale(1 1) rotate(0) translate(4 127)">
<title>mlir::OpInterfaceRewritePattern&lt; SourceOp &gt;</title>
<!-- Node1 -->
<g id="Node000001" class="node">
<title>Node1</title>
<g id="a_Node000001"><a xlink:title="OpInterfaceRewritePattern is a wrapper around RewritePattern that allows for matching and rewriting a...">
<polygon fill="#999999" stroke="#666666" points="621,-99 484,-99 484,-69 621,-69 621,-99"/>
<text text-anchor="start" x="492" y="-87" font-family="Helvetica,sans-Serif" font-size="10.00">mlir::OpInterfaceRewrite</text>
<text text-anchor="middle" x="552.5" y="-76" font-family="Helvetica,sans-Serif" font-size="10.00">Pattern&lt; SourceOp &gt;</text>
</a>
</g>
</g>
<!-- Node5 -->
<g id="Node000005" class="node">
<title>Node5</title>
<g id="a_Node000005"><a xlink:href="structmlir_1_1OpInterfaceRewritePattern.html" target="_top" xlink:title=" ">
<polygon fill="white" stroke="#666666" points="1036,-123 824,-123 824,-93 1036,-93 1036,-123"/>
<text text-anchor="start" x="832" y="-111" font-family="Helvetica,sans-Serif" font-size="10.00">mlir::OpInterfaceRewrite</text>
<text text-anchor="middle" x="930" y="-100" font-family="Helvetica,sans-Serif" font-size="10.00">Pattern&lt; DestinationStyleOpInterface &gt;</text>
</a>
</g>
</g>
<!-- Node1&#45;&gt;Node5 -->
<g id="edge4_Node000001_Node000005" class="edge">
<title>Node1&#45;&gt;Node5</title>
<g id="a_edge4_Node000001_Node000005"><a xlink:title=" ">
<path fill="none" stroke="orange" stroke-dasharray="5,2" d="M631.22,-88.97C686.92,-92.53 762.57,-97.36 823.68,-101.27"/>
<polygon fill="orange" stroke="orange" points="631.27,-85.46 621.07,-88.32 630.82,-92.45 631.27,-85.46"/>
</a>
</g>
<text text-anchor="start" x="642.5" y="-105.5" font-family="Helvetica,sans-Serif" font-size="10.00" fill="grey">&lt; DestinationStyleOpInterface &gt;</text>
</g>
<!-- Node7 -->
<g id="Node000007" class="node">
<title>Node7</title>
<g id="a_Node000007"><a xlink:href="structmlir_1_1OpInterfaceRewritePattern.html" target="_top" xlink:title=" ">
<polygon fill="white" stroke="#666666" points="998.5,-75 861.5,-75 861.5,-45 998.5,-45 998.5,-75"/>
<text text-anchor="start" x="869.5" y="-63" font-family="Helvetica,sans-Serif" font-size="10.00">mlir::OpInterfaceRewrite</text>
<text text-anchor="middle" x="930" y="-52" font-family="Helvetica,sans-Serif" font-size="10.00">Pattern&lt; LinalgOp &gt;</text>
</a>
</g>
</g>
<!-- Node1&#45;&gt;Node7 -->
<g id="edge6_Node000001_Node000007" class="edge">
<title>Node1&#45;&gt;Node7</title>
<g id="a_edge6_Node000001_Node000007"><a xlink:title=" ">
<path fill="none" stroke="orange" stroke-dasharray="5,2" d="M631.23,-69.88C633.85,-69.56 636.44,-69.26 639,-69 714.91,-61.2 802.54,-59.48 861.43,-59.38"/>
<polygon fill="orange" stroke="orange" points="630.5,-66.44 621.05,-71.23 631.42,-73.38 630.5,-66.44"/>
</a>
</g>
<text text-anchor="start" x="689.5" y="-74.5" font-family="Helvetica,sans-Serif" font-size="10.00" fill="grey">&lt; LinalgOp &gt;</text>
</g>
<!-- Node2 -->
<g id="Node000002" class="node">
<title>Node2</title>
<g id="a_Node000002"><a xlink:href="structmlir_1_1detail_1_1OpOrInterfaceRewritePatternBase.html" target="_top" xlink:title="OpOrInterfaceRewritePatternBase is a wrapper around RewritePattern that allows for matching and rewri...">
<polygon fill="white" stroke="#666666" points="447,-99 265,-99 265,-69 447,-69 447,-99"/>
<text text-anchor="start" x="273" y="-87" font-family="Helvetica,sans-Serif" font-size="10.00">mlir::detail::OpOrInterface</text>
<text text-anchor="middle" x="356" y="-76" font-family="Helvetica,sans-Serif" font-size="10.00">RewritePatternBase&lt; SourceOp &gt;</text>
</a>
</g>
</g>
<!-- Node2&#45;&gt;Node1 -->
<g id="edge1_Node000001_Node000002" class="edge">
<title>Node2&#45;&gt;Node1</title>
<g id="a_edge1_Node000001_Node000002"><a xlink:title=" ">
<path fill="none" stroke="#63b8ff" d="M457.26,-84C466.23,-84 475.17,-84 483.76,-84"/>
<polygon fill="#63b8ff" stroke="#63b8ff" points="457.13,-80.5 447.13,-84 457.13,-87.5 457.13,-80.5"/>
</a>
</g>
</g>
<!-- Node3 -->
<g id="Node000003" class="node">
<title>Node3</title>
<g id="a_Node000003"><a xlink:href="classmlir_1_1RewritePattern.html" target="_top" xlink:title="RewritePattern is the common base class for all DAG to DAG replacements.">
<polygon fill="white" stroke="#666666" points="228,-93.5 114,-93.5 114,-74.5 228,-74.5 228,-93.5"/>
<text text-anchor="middle" x="171" y="-81.5" font-family="Helvetica,sans-Serif" font-size="10.00">mlir::RewritePattern</text>
</a>
</g>
</g>
<!-- Node3&#45;&gt;Node2 -->
<g id="edge2_Node000002_Node000003" class="edge">
<title>Node3&#45;&gt;Node2</title>
<g id="a_edge2_Node000002_Node000003"><a xlink:title=" ">
<path fill="none" stroke="#63b8ff" d="M238.62,-84C247.14,-84 255.97,-84 264.78,-84"/>
<polygon fill="#63b8ff" stroke="#63b8ff" points="238.4,-80.5 228.4,-84 238.4,-87.5 238.4,-80.5"/>
</a>
</g>
</g>
<!-- Node4 -->
<g id="Node000004" class="node">
<title>Node4</title>
<g id="a_Node000004"><a xlink:href="classmlir_1_1Pattern.html" target="_top" xlink:title="This class contains all of the data related to a pattern, but does not contain any methods or logic f...">
<polygon fill="white" stroke="#666666" points="77,-93.5 0,-93.5 0,-74.5 77,-74.5 77,-93.5"/>
<text text-anchor="middle" x="38.5" y="-81.5" font-family="Helvetica,sans-Serif" font-size="10.00">mlir::Pattern</text>
</a>
</g>
</g>
<!-- Node4&#45;&gt;Node3 -->
<g id="edge3_Node000003_Node000004" class="edge">
<title>Node4&#45;&gt;Node3</title>
<g id="a_edge3_Node000003_Node000004"><a xlink:title=" ">
<path fill="none" stroke="#63b8ff" d="M87.47,-84C96.06,-84 105.09,-84 113.89,-84"/>
<polygon fill="#63b8ff" stroke="#63b8ff" points="87.25,-80.5 77.25,-84 87.25,-87.5 87.25,-80.5"/>
</a>
</g>
</g>
<!-- Node6 -->
<g id="Node000006" class="node">
<title>Node6</title>
<g id="a_Node000006"><a xlink:href="structFoldTensorCastProducerOp.html" target="_top" xlink:title="Folds a tensor.cast op into a consuming DestinationStyleOpInterface op if the tensor....">
<polygon fill="white" stroke="#666666" points="1234,-117.5 1088,-117.5 1088,-98.5 1234,-98.5 1234,-117.5"/>
<text text-anchor="middle" x="1161" y="-105.5" font-family="Helvetica,sans-Serif" font-size="10.00">FoldTensorCastProducerOp</text>
</a>
</g>
</g>
<!-- Node5&#45;&gt;Node6 -->
<g id="edge5_Node000005_Node000006" class="edge">
<title>Node5&#45;&gt;Node6</title>
<g id="a_edge5_Node000005_Node000006"><a xlink:title=" ">
<path fill="none" stroke="#63b8ff" d="M1046.4,-108C1060.54,-108 1074.66,-108 1087.9,-108"/>
<polygon fill="#63b8ff" stroke="#63b8ff" points="1046.12,-104.5 1036.12,-108 1046.12,-111.5 1046.12,-104.5"/>
</a>
</g>
</g>
<!-- Node8 -->
<g id="Node000008" class="node">
<title>Node8</title>
<g id="a_Node000008"><a xlink:href="structmlir_1_1linalg_1_1LinalgGeneralizationPattern.html" target="_top" xlink:title="Linalg generalization pattern.">
<polygon fill="white" stroke="#666666" points="1249,-78 1073,-78 1073,-48 1249,-48 1249,-78"/>
<text text-anchor="start" x="1081" y="-66" font-family="Helvetica,sans-Serif" font-size="10.00">mlir::linalg::LinalgGeneralization</text>
<text text-anchor="middle" x="1161" y="-55" font-family="Helvetica,sans-Serif" font-size="10.00">Pattern</text>
</a>
</g>
</g>
<!-- Node7&#45;&gt;Node8 -->
<g id="edge7_Node000007_Node000008" class="edge">
<title>Node7&#45;&gt;Node8</title>
<g id="a_edge7_Node000007_Node000008"><a xlink:title=" ">
<path fill="none" stroke="#63b8ff" d="M1009.02,-61.02C1029.56,-61.29 1051.84,-61.58 1072.82,-61.86"/>
<polygon fill="#63b8ff" stroke="#63b8ff" points="1008.82,-57.52 998.78,-60.89 1008.73,-64.52 1008.82,-57.52"/>
</a>
</g>
</g>
<!-- Node9 -->
<g id="Node000009" class="node">
<title>Node9</title>
<g id="a_Node000009"><a xlink:href="classmlir_1_1linalg_1_1LinalgOpToLibraryCallRewrite.html" target="_top" xlink:title=" ">
<polygon fill="white" stroke="#666666" points="1225,-30 1097,-30 1097,0 1225,0 1225,-30"/>
<text text-anchor="start" x="1105" y="-18" font-family="Helvetica,sans-Serif" font-size="10.00">mlir::linalg::LinalgOpTo</text>
<text text-anchor="middle" x="1161" y="-7" font-family="Helvetica,sans-Serif" font-size="10.00">LibraryCallRewrite</text>
</a>
</g>
</g>
<!-- Node7&#45;&gt;Node9 -->
<g id="edge8_Node000007_Node000009" class="edge">
<title>Node7&#45;&gt;Node9</title>
<g id="a_edge8_Node000007_Node000009"><a xlink:title=" ">
<path fill="none" stroke="#63b8ff" d="M1008.76,-44.72C1037.4,-39.09 1069.49,-32.79 1096.71,-27.44"/>
<polygon fill="#63b8ff" stroke="#63b8ff" points="1007.92,-41.32 998.78,-46.68 1009.27,-48.19 1007.92,-41.32"/>
</a>
</g>
</g>
</g>
</svg>
