<?xml version="1.0" encoding="UTF-8" standalone="no"?>
<!DOCTYPE svg PUBLIC "-//W3C//DTD SVG 1.1//EN"
 "http://www.w3.org/Graphics/SVG/1.1/DTD/svg11.dtd">
<!-- Generated by graphviz version 2.43.0 (0)
 -->
<!-- Title: mlir::gpu::index_lowering::OpLowering&lt; Op, XOp, YOp, ZOp &gt; Pages: 1 -->
<svg width="266pt" height="311pt"
 viewBox="0.00 0.00 266.00 311.00" xmlns="http://www.w3.org/2000/svg" xmlns:xlink="http://www.w3.org/1999/xlink">
<g id="graph0" class="graph" transform="scale(1 1) rotate(0) translate(4 307)">
<title>mlir::gpu::index_lowering::OpLowering&lt; Op, XOp, YOp, ZOp &gt;</title>
<!-- Node1 -->
<g id="Node000001" class="node">
<title>Node1</title>
<g id="a_Node000001"><a xlink:title=" ">
<polygon fill="#999999" stroke="#666666" points="152,-41 12,-41 12,0 152,0 152,-41"/>
<text text-anchor="start" x="20" y="-29" font-family="Helvetica,sans-Serif" font-size="10.00">mlir::gpu::index_lowering</text>
<text text-anchor="start" x="20" y="-18" font-family="Helvetica,sans-Serif" font-size="10.00">::OpLowering&lt; Op, XOp,</text>
<text text-anchor="middle" x="82" y="-7" font-family="Helvetica,sans-Serif" font-size="10.00"> YOp, ZOp &gt;</text>
</a>
</g>
</g>
<!-- Node2 -->
<g id="Node000002" class="node">
<title>Node2</title>
<g id="a_Node000002"><a xlink:href="classmlir_1_1ConvertOpToLLVMPattern.html" target="_top" xlink:title=" ">
<polygon fill="white" stroke="#666666" points="164,-108 0,-108 0,-78 164,-78 164,-108"/>
<text text-anchor="start" x="8" y="-96" font-family="Helvetica,sans-Serif" font-size="10.00">mlir::ConvertOpToLLVMPattern</text>
<text text-anchor="middle" x="82" y="-85" font-family="Helvetica,sans-Serif" font-size="10.00">&lt; Op &gt;</text>
</a>
</g>
</g>
<!-- Node2&#45;&gt;Node1 -->
<g id="edge1_Node000001_Node000002" class="edge">
<title>Node2&#45;&gt;Node1</title>
<g id="a_edge1_Node000001_Node000002"><a xlink:title=" ">
<path fill="none" stroke="#63b8ff" d="M82,-67.48C82,-58.85 82,-49.26 82,-41.09"/>
<polygon fill="#63b8ff" stroke="#63b8ff" points="78.5,-67.73 82,-77.73 85.5,-67.73 78.5,-67.73"/>
</a>
</g>
</g>
<!-- Node3 -->
<g id="Node000003" class="node">
<title>Node3</title>
<g id="a_Node000003"><a xlink:href="classmlir_1_1ConvertToLLVMPattern.html" target="_top" xlink:title="Base class for operation conversions targeting the LLVM IR dialect.">
<polygon fill="white" stroke="#666666" points="153.5,-247 2.5,-247 2.5,-228 153.5,-228 153.5,-247"/>
<text text-anchor="middle" x="78" y="-235" font-family="Helvetica,sans-Serif" font-size="10.00">mlir::ConvertToLLVMPattern</text>
</a>
</g>
</g>
<!-- Node3&#45;&gt;Node2 -->
<g id="edge2_Node000002_Node000003" class="edge">
<title>Node3&#45;&gt;Node2</title>
<g id="a_edge2_Node000002_Node000003"><a xlink:title=" ">
<path fill="none" stroke="#63b8ff" d="M78.53,-217.54C79.35,-188.58 80.88,-133.99 81.6,-108.19"/>
<polygon fill="#63b8ff" stroke="#63b8ff" points="75.03,-217.49 78.25,-227.59 82.03,-217.69 75.03,-217.49"/>
</a>
</g>
</g>
<!-- Node5 -->
<g id="Node000005" class="node">
<title>Node5</title>
<g id="a_Node000005"><a xlink:href="classmlir_1_1ConvertOpToLLVMPattern.html" target="_top" xlink:title="Utility class for operation conversions targeting the LLVM dialect that match exactly one source oper...">
<polygon fill="white" stroke="#666666" points="258,-191 94,-191 94,-161 258,-161 258,-191"/>
<text text-anchor="start" x="102" y="-179" font-family="Helvetica,sans-Serif" font-size="10.00">mlir::ConvertOpToLLVMPattern</text>
<text text-anchor="middle" x="176" y="-168" font-family="Helvetica,sans-Serif" font-size="10.00">&lt; SourceOp &gt;</text>
</a>
</g>
</g>
<!-- Node3&#45;&gt;Node5 -->
<g id="edge5_Node000005_Node000003" class="edge">
<title>Node3&#45;&gt;Node5</title>
<g id="a_edge5_Node000005_Node000003"><a xlink:title=" ">
<path fill="none" stroke="#63b8ff" d="M100.6,-222.78C116.29,-213.25 137.11,-200.61 152.9,-191.02"/>
<polygon fill="#63b8ff" stroke="#63b8ff" points="98.77,-219.79 92.04,-227.98 102.41,-225.78 98.77,-219.79"/>
</a>
</g>
</g>
<!-- Node4 -->
<g id="Node000004" class="node">
<title>Node4</title>
<g id="a_Node000004"><a xlink:href="classConversionPattern.html" target="_top" xlink:title=" ">
<polygon fill="white" stroke="#666666" points="131,-303 25,-303 25,-284 131,-284 131,-303"/>
<text text-anchor="middle" x="78" y="-291" font-family="Helvetica,sans-Serif" font-size="10.00">ConversionPattern</text>
</a>
</g>
</g>
<!-- Node4&#45;&gt;Node3 -->
<g id="edge3_Node000003_Node000004" class="edge">
<title>Node4&#45;&gt;Node3</title>
<g id="a_edge3_Node000003_Node000004"><a xlink:title=" ">
<path fill="none" stroke="#63b8ff" d="M78,-273.3C78,-264.41 78,-254.28 78,-247.25"/>
<polygon fill="#63b8ff" stroke="#63b8ff" points="74.5,-273.58 78,-283.58 81.5,-273.58 74.5,-273.58"/>
</a>
</g>
</g>
<!-- Node5&#45;&gt;Node2 -->
<g id="edge4_Node000002_Node000005" class="edge">
<title>Node5&#45;&gt;Node2</title>
<g id="a_edge4_Node000002_Node000005"><a xlink:title=" ">
<path fill="none" stroke="orange" stroke-dasharray="5,2" d="M151.87,-154.21C135.14,-139.79 113.28,-120.95 98.5,-108.22"/>
<polygon fill="orange" stroke="orange" points="149.77,-157.01 159.63,-160.89 154.34,-151.71 149.77,-157.01"/>
</a>
</g>
<text text-anchor="start" x="140.5" y="-131.5" font-family="Helvetica,sans-Serif" font-size="10.00" fill="grey">&lt; Op &gt;</text>
</g>
</g>
</svg>
