<?xml version="1.0" encoding="UTF-8" standalone="no"?>
<!DOCTYPE svg PUBLIC "-//W3C//DTD SVG 1.1//EN"
 "http://www.w3.org/Graphics/SVG/1.1/DTD/svg11.dtd">
<!-- Generated by graphviz version 2.43.0 (0)
 -->
<!-- Title: mlir::spirv::ElementwiseOpPattern&lt; Op, SPIRVOp &gt; Pages: 1 -->
<svg width="240pt" height="356pt"
 viewBox="0.00 0.00 240.00 356.00" xmlns="http://www.w3.org/2000/svg" xmlns:xlink="http://www.w3.org/1999/xlink">
<g id="graph0" class="graph" transform="scale(1 1) rotate(0) translate(4 352)">
<title>mlir::spirv::ElementwiseOpPattern&lt; Op, SPIRVOp &gt;</title>
<!-- Node1 -->
<g id="node1" class="node">
<title>Node1</title>
<g id="a_node1"><a xlink:title="Converts elementwise unary, binary and ternary standard operations to SPIR&#45;V operations.">
<polygon fill="#bfbfbf" stroke="black" points="0,-0.5 0,-30.5 149,-30.5 149,-0.5 0,-0.5"/>
<text text-anchor="start" x="8" y="-18.5" font-family="Helvetica,sans-Serif" font-size="10.00">mlir::spirv::Elementwise</text>
<text text-anchor="middle" x="74.5" y="-7.5" font-family="Helvetica,sans-Serif" font-size="10.00">OpPattern&lt; Op, SPIRVOp &gt;</text>
</a>
</g>
</g>
<!-- Node2 -->
<g id="node2" class="node">
<title>Node2</title>
<g id="a_node2"><a xlink:href="classmlir_1_1OpConversionPattern.html" target="_top" xlink:title=" ">
<polygon fill="none" stroke="black" points="2,-68.5 2,-98.5 147,-98.5 147,-68.5 2,-68.5"/>
<text text-anchor="start" x="10" y="-86.5" font-family="Helvetica,sans-Serif" font-size="10.00">mlir::OpConversionPattern</text>
<text text-anchor="middle" x="74.5" y="-75.5" font-family="Helvetica,sans-Serif" font-size="10.00">&lt; Op &gt;</text>
</a>
</g>
</g>
<!-- Node2&#45;&gt;Node1 -->
<g id="edge1" class="edge">
<title>Node2&#45;&gt;Node1</title>
<path fill="none" stroke="midnightblue" d="M74.5,-58.03C74.5,-48.86 74.5,-38.74 74.5,-30.79"/>
<polygon fill="midnightblue" stroke="midnightblue" points="71,-58.18 74.5,-68.18 78,-58.18 71,-58.18"/>
</g>
<!-- Node3 -->
<g id="node3" class="node">
<title>Node3</title>
<g id="a_node3"><a xlink:href="classmlir_1_1ConversionPattern.html" target="_top" xlink:title="Base class for the conversion patterns.">
<polygon fill="none" stroke="black" points="5,-214.5 5,-233.5 136,-233.5 136,-214.5 5,-214.5"/>
<text text-anchor="middle" x="70.5" y="-221.5" font-family="Helvetica,sans-Serif" font-size="10.00">mlir::ConversionPattern</text>
</a>
</g>
</g>
<!-- Node3&#45;&gt;Node2 -->
<g id="edge2" class="edge">
<title>Node3&#45;&gt;Node2</title>
<path fill="none" stroke="midnightblue" d="M71.04,-204.25C71.85,-176.19 73.36,-123.88 74.09,-98.73"/>
<polygon fill="midnightblue" stroke="midnightblue" points="67.54,-204.24 70.75,-214.34 74.54,-204.44 67.54,-204.24"/>
</g>
<!-- Node6 -->
<g id="node6" class="node">
<title>Node6</title>
<g id="a_node6"><a xlink:href="classmlir_1_1OpConversionPattern.html" target="_top" xlink:title="OpConversionPattern is a wrapper around ConversionPattern that allows for matching and rewriting agai...">
<polygon fill="none" stroke="black" points="87,-146.5 87,-176.5 232,-176.5 232,-146.5 87,-146.5"/>
<text text-anchor="start" x="95" y="-164.5" font-family="Helvetica,sans-Serif" font-size="10.00">mlir::OpConversionPattern</text>
<text text-anchor="middle" x="159.5" y="-153.5" font-family="Helvetica,sans-Serif" font-size="10.00">&lt; SourceOp &gt;</text>
</a>
</g>
</g>
<!-- Node3&#45;&gt;Node6 -->
<g id="edge6" class="edge">
<title>Node3&#45;&gt;Node6</title>
<path fill="none" stroke="midnightblue" d="M91.89,-208.46C106.15,-198.77 124.77,-186.11 138.87,-176.53"/>
<polygon fill="midnightblue" stroke="midnightblue" points="89.55,-205.82 83.25,-214.33 93.49,-211.6 89.55,-205.82"/>
</g>
<!-- Node4 -->
<g id="node4" class="node">
<title>Node4</title>
<g id="a_node4"><a xlink:href="classmlir_1_1RewritePattern.html" target="_top" xlink:title="RewritePattern is the common base class for all DAG to DAG replacements.">
<polygon fill="none" stroke="black" points="13.5,-271.5 13.5,-290.5 127.5,-290.5 127.5,-271.5 13.5,-271.5"/>
<text text-anchor="middle" x="70.5" y="-278.5" font-family="Helvetica,sans-Serif" font-size="10.00">mlir::RewritePattern</text>
</a>
</g>
</g>
<!-- Node4&#45;&gt;Node3 -->
<g id="edge3" class="edge">
<title>Node4&#45;&gt;Node3</title>
<path fill="none" stroke="midnightblue" d="M70.5,-261.12C70.5,-251.82 70.5,-241.06 70.5,-233.71"/>
<polygon fill="midnightblue" stroke="midnightblue" points="67,-261.41 70.5,-271.41 74,-261.41 67,-261.41"/>
</g>
<!-- Node5 -->
<g id="node5" class="node">
<title>Node5</title>
<g id="a_node5"><a xlink:href="classmlir_1_1Pattern.html" target="_top" xlink:title="This class contains all of the data related to a pattern, but does not contain any methods or logic f...">
<polygon fill="none" stroke="black" points="32,-328.5 32,-347.5 109,-347.5 109,-328.5 32,-328.5"/>
<text text-anchor="middle" x="70.5" y="-335.5" font-family="Helvetica,sans-Serif" font-size="10.00">mlir::Pattern</text>
</a>
</g>
</g>
<!-- Node5&#45;&gt;Node4 -->
<g id="edge4" class="edge">
<title>Node5&#45;&gt;Node4</title>
<path fill="none" stroke="midnightblue" d="M70.5,-318.12C70.5,-308.82 70.5,-298.06 70.5,-290.71"/>
<polygon fill="midnightblue" stroke="midnightblue" points="67,-318.41 70.5,-328.41 74,-318.41 67,-318.41"/>
</g>
<!-- Node6&#45;&gt;Node2 -->
<g id="edge5" class="edge">
<title>Node6&#45;&gt;Node2</title>
<path fill="none" stroke="orange" stroke-dasharray="5,2" d="M135.89,-139.39C121.4,-126.43 103.22,-110.18 90.42,-98.73"/>
<polygon fill="orange" stroke="orange" points="133.72,-142.15 143.51,-146.2 138.39,-136.93 133.72,-142.15"/>
<text text-anchor="middle" x="141.5" y="-120" font-family="Helvetica,sans-Serif" font-size="10.00"> &lt; Op &gt;</text>
</g>
</g>
</svg>
