<?xml version="1.0" encoding="UTF-8" standalone="no"?>
<!DOCTYPE svg PUBLIC "-//W3C//DTD SVG 1.1//EN"
 "http://www.w3.org/Graphics/SVG/1.1/DTD/svg11.dtd">
<!-- Generated by graphviz version 2.43.0 (0)
 -->
<!-- Title: mlir::StructuredGenerator&lt; StructuredOpInterface, IteratorTypeT &gt;::IteratorType Pages: 1 -->
<svg width="345pt" height="108pt"
 viewBox="0.00 0.00 345.00 108.00" xmlns="http://www.w3.org/2000/svg" xmlns:xlink="http://www.w3.org/1999/xlink">
<g id="graph0" class="graph" transform="scale(1 1) rotate(0) translate(4 104)">
<title>mlir::StructuredGenerator&lt; StructuredOpInterface, IteratorTypeT &gt;::IteratorType</title>
<!-- Node1 -->
<g id="Node000001" class="node">
<title>Node1</title>
<g id="a_Node000001"><a xlink:title=" ">
<polygon fill="#999999" stroke="#666666" points="160,-70 0,-70 0,-29 160,-29 160,-70"/>
<text text-anchor="start" x="8" y="-58" font-family="Helvetica,sans-Serif" font-size="10.00">mlir::StructuredGenerator</text>
<text text-anchor="start" x="8" y="-47" font-family="Helvetica,sans-Serif" font-size="10.00">&lt; StructuredOpInterface,</text>
<text text-anchor="middle" x="80" y="-36" font-family="Helvetica,sans-Serif" font-size="10.00"> IteratorTypeT &gt;::IteratorType</text>
</a>
</g>
</g>
<!-- Node2 -->
<g id="Node000002" class="node">
<title>Node2</title>
<g id="a_Node000002"><a xlink:href="structmlir_1_1StructuredGenerator_1_1Par.html" target="_top" xlink:title=" ">
<polygon fill="white" stroke="#666666" points="337,-100 196,-100 196,-59 337,-59 337,-100"/>
<text text-anchor="start" x="204" y="-88" font-family="Helvetica,sans-Serif" font-size="10.00">mlir::StructuredGenerator</text>
<text text-anchor="start" x="204" y="-77" font-family="Helvetica,sans-Serif" font-size="10.00">&lt; StructuredOpInterface,</text>
<text text-anchor="middle" x="266.5" y="-66" font-family="Helvetica,sans-Serif" font-size="10.00"> IteratorTypeT &gt;::Par</text>
</a>
</g>
</g>
<!-- Node1&#45;&gt;Node2 -->
<g id="edge1_Node000001_Node000002" class="edge">
<title>Node1&#45;&gt;Node2</title>
<g id="a_edge1_Node000001_Node000002"><a xlink:title=" ">
<path fill="none" stroke="#63b8ff" d="M170.17,-64C178.82,-65.41 187.51,-66.82 195.93,-68.19"/>
<polygon fill="#63b8ff" stroke="#63b8ff" points="170.48,-60.5 160.05,-62.35 169.36,-67.41 170.48,-60.5"/>
</a>
</g>
</g>
<!-- Node3 -->
<g id="Node000003" class="node">
<title>Node3</title>
<g id="a_Node000003"><a xlink:href="structmlir_1_1StructuredGenerator_1_1Red.html" target="_top" xlink:title=" ">
<polygon fill="white" stroke="#666666" points="337,-41 196,-41 196,0 337,0 337,-41"/>
<text text-anchor="start" x="204" y="-29" font-family="Helvetica,sans-Serif" font-size="10.00">mlir::StructuredGenerator</text>
<text text-anchor="start" x="204" y="-18" font-family="Helvetica,sans-Serif" font-size="10.00">&lt; StructuredOpInterface,</text>
<text text-anchor="middle" x="266.5" y="-7" font-family="Helvetica,sans-Serif" font-size="10.00"> IteratorTypeT &gt;::Red</text>
</a>
</g>
</g>
<!-- Node1&#45;&gt;Node3 -->
<g id="edge2_Node000001_Node000003" class="edge">
<title>Node1&#45;&gt;Node3</title>
<g id="a_edge2_Node000001_Node000003"><a xlink:title=" ">
<path fill="none" stroke="#63b8ff" d="M170.17,-35.48C178.82,-34.12 187.51,-32.76 195.93,-31.44"/>
<polygon fill="#63b8ff" stroke="#63b8ff" points="169.38,-32.06 160.05,-37.08 170.47,-38.98 169.38,-32.06"/>
</a>
</g>
</g>
</g>
</svg>
