<?xml version="1.0" encoding="UTF-8" standalone="no"?>
<!DOCTYPE svg PUBLIC "-//W3C//DTD SVG 1.1//EN"
 "http://www.w3.org/Graphics/SVG/1.1/DTD/svg11.dtd">
<!-- Generated by graphviz version 2.43.0 (0)
 -->
<!-- Title: mlir::tracing::ExecutionContext::Observer Pages: 1 -->
<svg width="320pt" height="93pt"
 viewBox="0.00 0.00 319.50 93.00" xmlns="http://www.w3.org/2000/svg" xmlns:xlink="http://www.w3.org/1999/xlink">
<g id="graph0" class="graph" transform="scale(1 1) rotate(0) translate(4 89)">
<title>mlir::tracing::ExecutionContext::Observer</title>
<!-- Node1 -->
<g id="Node000001" class="node">
<title>Node1</title>
<g id="a_Node000001"><a xlink:title="This abstract class defines the interface used to observe an Action execution.">
<polygon fill="#999999" stroke="#666666" points="219.5,-85 90.5,-85 90.5,-55 219.5,-55 219.5,-85"/>
<text text-anchor="start" x="98.5" y="-73" font-family="Helvetica,sans-Serif" font-size="10.00">mlir::tracing::Execution</text>
<text text-anchor="middle" x="155" y="-62" font-family="Helvetica,sans-Serif" font-size="10.00">Context::Observer</text>
</a>
</g>
</g>
<!-- Node2 -->
<g id="Node000002" class="node">
<title>Node2</title>
<g id="a_Node000002"><a xlink:href="structmlir_1_1tracing_1_1ActionLogger.html" target="_top" xlink:title="This class defines an observer that print Actions before and after execution on the provided stream.">
<polygon fill="white" stroke="#666666" points="146,-19 0,-19 0,0 146,0 146,-19"/>
<text text-anchor="middle" x="73" y="-7" font-family="Helvetica,sans-Serif" font-size="10.00">mlir::tracing::ActionLogger</text>
</a>
</g>
</g>
<!-- Node1&#45;&gt;Node2 -->
<g id="edge1_Node000001_Node000002" class="edge">
<title>Node1&#45;&gt;Node2</title>
<g id="a_edge1_Node000001_Node000002"><a xlink:title=" ">
<path fill="none" stroke="#63b8ff" d="M126.71,-48.82C112.57,-38.73 96.2,-27.05 85.29,-19.27"/>
<polygon fill="#63b8ff" stroke="#63b8ff" points="124.98,-51.88 135.15,-54.84 129.04,-46.18 124.98,-51.88"/>
</a>
</g>
</g>
<!-- Node3 -->
<g id="Node000003" class="node">
<title>Node3</title>
<g id="a_Node000003"><a xlink:href="structmlir_1_1tracing_1_1ActionProfiler.html" target="_top" xlink:title="This class defines an observer that profiles events before and after execution on the provided stream...">
<polygon fill="white" stroke="#666666" points="311.5,-19 164.5,-19 164.5,0 311.5,0 311.5,-19"/>
<text text-anchor="middle" x="238" y="-7" font-family="Helvetica,sans-Serif" font-size="10.00">mlir::tracing::ActionProfiler</text>
</a>
</g>
</g>
<!-- Node1&#45;&gt;Node3 -->
<g id="edge2_Node000001_Node000003" class="edge">
<title>Node1&#45;&gt;Node3</title>
<g id="a_edge2_Node000001_Node000003"><a xlink:title=" ">
<path fill="none" stroke="#63b8ff" d="M183.64,-48.82C197.94,-38.73 214.51,-27.05 225.56,-19.27"/>
<polygon fill="#63b8ff" stroke="#63b8ff" points="181.25,-46.22 175.09,-54.84 185.28,-51.94 181.25,-46.22"/>
</a>
</g>
</g>
</g>
</svg>
