<?xml version="1.0" encoding="UTF-8" standalone="no"?>
<!DOCTYPE svg PUBLIC "-//W3C//DTD SVG 1.1//EN"
 "http://www.w3.org/Graphics/SVG/1.1/DTD/svg11.dtd">
<!-- Generated by graphviz version 2.43.0 (0)
 -->
<!-- Title: mlir::pdll::ast::detail::TypeTypeStorage Pages: 1 -->
<svg width="992pt" height="69pt"
 viewBox="0.00 0.00 992.00 68.50" xmlns="http://www.w3.org/2000/svg" xmlns:xlink="http://www.w3.org/1999/xlink">
<g id="graph0" class="graph" transform="scale(1 1) rotate(0) translate(4 64.5)">
<title>mlir::pdll::ast::detail::TypeTypeStorage</title>
<!-- Node1 -->
<g id="Node000001" class="node">
<title>Node1</title>
<g id="a_Node000001"><a xlink:title=" ">
<polygon fill="#999999" stroke="#666666" points="984,-60.5 869,-60.5 869,-30.5 984,-30.5 984,-60.5"/>
<text text-anchor="start" x="877" y="-48.5" font-family="Helvetica,sans-Serif" font-size="10.00">mlir::pdll::ast::detail</text>
<text text-anchor="middle" x="926.5" y="-37.5" font-family="Helvetica,sans-Serif" font-size="10.00">::TypeTypeStorage</text>
</a>
</g>
</g>
<!-- Node2 -->
<g id="Node000002" class="node">
<title>Node2</title>
<g id="a_Node000002"><a xlink:href="structmlir_1_1pdll_1_1ast_1_1detail_1_1TypeStorageBase.html" target="_top" xlink:title=" ">
<polygon fill="white" stroke="#666666" points="832,-60.5 620,-60.5 620,-30.5 832,-30.5 832,-60.5"/>
<text text-anchor="start" x="628" y="-48.5" font-family="Helvetica,sans-Serif" font-size="10.00">mlir::pdll::ast::detail</text>
<text text-anchor="middle" x="726" y="-37.5" font-family="Helvetica,sans-Serif" font-size="10.00">::TypeStorageBase&lt; TypeTypeStorage &gt;</text>
</a>
</g>
</g>
<!-- Node2&#45;&gt;Node1 -->
<g id="edge1_Node000001_Node000002" class="edge">
<title>Node2&#45;&gt;Node1</title>
<g id="a_edge1_Node000001_Node000002"><a xlink:title=" ">
<path fill="none" stroke="#63b8ff" d="M842.1,-45.5C851.29,-45.5 860.3,-45.5 868.8,-45.5"/>
<polygon fill="#63b8ff" stroke="#63b8ff" points="842.06,-42 832.06,-45.5 842.06,-49 842.06,-42"/>
</a>
</g>
</g>
<!-- Node3 -->
<g id="Node000003" class="node">
<title>Node3</title>
<g id="a_Node000003"><a xlink:href="structmlir_1_1pdll_1_1ast_1_1Type_1_1Storage.html" target="_top" xlink:title=" ">
<polygon fill="white" stroke="#666666" points="265,-59.5 155,-59.5 155,-29.5 265,-29.5 265,-59.5"/>
<text text-anchor="start" x="163" y="-47.5" font-family="Helvetica,sans-Serif" font-size="10.00">mlir::pdll::ast::Type</text>
<text text-anchor="middle" x="210" y="-36.5" font-family="Helvetica,sans-Serif" font-size="10.00">::Storage</text>
</a>
</g>
</g>
<!-- Node3&#45;&gt;Node2 -->
<g id="edge2_Node000002_Node000003" class="edge">
<title>Node3&#45;&gt;Node2</title>
<g id="a_edge2_Node000002_Node000003"><a xlink:title=" ">
<path fill="none" stroke="#63b8ff" d="M275.32,-49.1C277.91,-49.24 280.48,-49.38 283,-49.5 424.63,-56.47 460.31,-61.25 602,-55.5 607.78,-55.27 613.71,-54.97 619.69,-54.63"/>
<polygon fill="#63b8ff" stroke="#63b8ff" points="275.43,-45.6 265.24,-48.5 275.02,-52.58 275.43,-45.6"/>
</a>
</g>
</g>
<!-- Node5 -->
<g id="Node000005" class="node">
<title>Node5</title>
<g id="a_Node000005"><a xlink:href="structmlir_1_1pdll_1_1ast_1_1detail_1_1TypeStorageBase.html" target="_top" xlink:title="A utility CRTP base class that defines many of the necessary utilities for defining a PDLL AST Type.">
<polygon fill="white" stroke="#666666" points="472,-41 302,-41 302,0 472,0 472,-41"/>
<text text-anchor="start" x="310" y="-29" font-family="Helvetica,sans-Serif" font-size="10.00">mlir::pdll::ast::detail</text>
<text text-anchor="start" x="310" y="-18" font-family="Helvetica,sans-Serif" font-size="10.00">::TypeStorageBase&lt; ConcreteT,</text>
<text text-anchor="middle" x="387" y="-7" font-family="Helvetica,sans-Serif" font-size="10.00"> KeyT &gt;</text>
</a>
</g>
</g>
<!-- Node3&#45;&gt;Node5 -->
<g id="edge5_Node000005_Node000003" class="edge">
<title>Node3&#45;&gt;Node5</title>
<g id="a_edge5_Node000005_Node000003"><a xlink:title=" ">
<path fill="none" stroke="#63b8ff" d="M275.34,-35.68C283.94,-34.5 292.86,-33.27 301.74,-32.06"/>
<polygon fill="#63b8ff" stroke="#63b8ff" points="274.84,-32.21 265.41,-37.04 275.79,-39.15 274.84,-32.21"/>
</a>
</g>
</g>
<!-- Node4 -->
<g id="Node000004" class="node">
<title>Node4</title>
<g id="a_Node000004"><a xlink:href="classmlir_1_1StorageUniquer_1_1BaseStorage.html" target="_top" xlink:title="This class acts as the base storage that all storage classes must derived from.">
<polygon fill="white" stroke="#666666" points="118,-59.5 0,-59.5 0,-29.5 118,-29.5 118,-59.5"/>
<text text-anchor="start" x="8" y="-47.5" font-family="Helvetica,sans-Serif" font-size="10.00">mlir::StorageUniquer</text>
<text text-anchor="middle" x="59" y="-36.5" font-family="Helvetica,sans-Serif" font-size="10.00">::BaseStorage</text>
</a>
</g>
</g>
<!-- Node4&#45;&gt;Node3 -->
<g id="edge3_Node000003_Node000004" class="edge">
<title>Node4&#45;&gt;Node3</title>
<g id="a_edge3_Node000003_Node000004"><a xlink:title=" ">
<path fill="none" stroke="#63b8ff" d="M128.06,-44.5C137.02,-44.5 146.1,-44.5 154.78,-44.5"/>
<polygon fill="#63b8ff" stroke="#63b8ff" points="128.03,-41 118.03,-44.5 128.03,-48 128.03,-41"/>
</a>
</g>
</g>
<!-- Node5&#45;&gt;Node2 -->
<g id="edge4_Node000002_Node000005" class="edge">
<title>Node5&#45;&gt;Node2</title>
<g id="a_edge4_Node000002_Node000005"><a xlink:title=" ">
<path fill="none" stroke="orange" stroke-dasharray="5,2" d="M482.3,-27.5C525.1,-30.67 575.87,-34.44 619.89,-37.7"/>
<polygon fill="orange" stroke="orange" points="482.4,-23.99 472.17,-26.74 481.88,-30.97 482.4,-23.99"/>
</a>
</g>
<text text-anchor="start" x="493" y="-42" font-family="Helvetica,sans-Serif" font-size="10.00" fill="grey">&lt; TypeTypeStorage &gt;</text>
</g>
</g>
</svg>
