<?xml version="1.0" encoding="UTF-8" standalone="no"?>
<!DOCTYPE svg PUBLIC "-//W3C//DTD SVG 1.1//EN"
 "http://www.w3.org/Graphics/SVG/1.1/DTD/svg11.dtd">
<!-- Generated by graphviz version 2.43.0 (0)
 -->
<!-- Title: mlir::pdl_to_pdl_interp::OperandGroupPosition Pages: 1 -->
<svg width="926pt" height="115pt"
 viewBox="0.00 0.00 926.00 114.50" xmlns="http://www.w3.org/2000/svg" xmlns:xlink="http://www.w3.org/1999/xlink">
<g id="graph0" class="graph" transform="scale(1 1) rotate(0) translate(4 110.5)">
<title>mlir::pdl_to_pdl_interp::OperandGroupPosition</title>
<!-- Node1 -->
<g id="node1" class="node">
<title>Node1</title>
<g id="a_node1"><a xlink:title="A position describing an operand group of an operation.">
<polygon fill="#bfbfbf" stroke="black" points="786,-41 786,-71 918,-71 918,-41 786,-41"/>
<text text-anchor="start" x="794" y="-59" font-family="Helvetica,sans-Serif" font-size="10.00">mlir::pdl_to_pdl_interp</text>
<text text-anchor="middle" x="852" y="-48" font-family="Helvetica,sans-Serif" font-size="10.00">::OperandGroupPosition</text>
</a>
</g>
</g>
<!-- Node2 -->
<g id="node2" class="node">
<title>Node2</title>
<g id="a_node2"><a xlink:href="classmlir_1_1pdl__to__pdl__interp_1_1PredicateBase.html" target="_top" xlink:title=" ">
<polygon fill="none" stroke="black" points="559,-19 559,-93 749,-93 749,-19 559,-19"/>
<text text-anchor="start" x="567" y="-81" font-family="Helvetica,sans-Serif" font-size="10.00">mlir::pdl_to_pdl_interp</text>
<text text-anchor="start" x="567" y="-70" font-family="Helvetica,sans-Serif" font-size="10.00">::PredicateBase&lt; OperandGroup</text>
<text text-anchor="start" x="567" y="-59" font-family="Helvetica,sans-Serif" font-size="10.00">Position, Position, std::tuple</text>
<text text-anchor="start" x="567" y="-48" font-family="Helvetica,sans-Serif" font-size="10.00">&lt; OperationPosition *, std::optional</text>
<text text-anchor="start" x="567" y="-37" font-family="Helvetica,sans-Serif" font-size="10.00">&lt; unsigned &gt;, bool &gt;, Predicates::</text>
<text text-anchor="middle" x="654" y="-26" font-family="Helvetica,sans-Serif" font-size="10.00">OperandGroupPos &gt;</text>
</a>
</g>
</g>
<!-- Node2&#45;&gt;Node1 -->
<g id="edge1" class="edge">
<title>Node2&#45;&gt;Node1</title>
<path fill="none" stroke="midnightblue" d="M759.41,-56C768.37,-56 777.27,-56 785.79,-56"/>
<polygon fill="midnightblue" stroke="midnightblue" points="759.27,-52.5 749.27,-56 759.27,-59.5 759.27,-52.5"/>
</g>
<!-- Node3 -->
<g id="node3" class="node">
<title>Node3</title>
<g id="a_node3"><a xlink:href="classmlir_1_1pdl__to__pdl__interp_1_1Position.html" target="_top" xlink:title="A position describes a value on the input IR on which a predicate may be applied, such as an operatio...">
<polygon fill="none" stroke="black" points="170,-76 170,-106 296,-106 296,-76 170,-76"/>
<text text-anchor="start" x="178" y="-94" font-family="Helvetica,sans-Serif" font-size="10.00">mlir::pdl_to_pdl_interp</text>
<text text-anchor="middle" x="233" y="-83" font-family="Helvetica,sans-Serif" font-size="10.00">::Position</text>
</a>
</g>
</g>
<!-- Node3&#45;&gt;Node2 -->
<g id="edge2" class="edge">
<title>Node3&#45;&gt;Node2</title>
<path fill="none" stroke="midnightblue" d="M306.37,-90.55C368.72,-89.48 461.05,-86.27 541,-77 546.8,-76.33 552.75,-75.53 558.73,-74.65"/>
<polygon fill="midnightblue" stroke="midnightblue" points="306.18,-87.05 296.24,-90.71 306.29,-94.05 306.18,-87.05"/>
</g>
<!-- Node4 -->
<g id="node4" class="node">
<title>Node4</title>
<g id="a_node4"><a xlink:href="classmlir_1_1StorageUniquer_1_1BaseStorage.html" target="_top" xlink:title="This class acts as the base storage that all storage classes must derived from.">
<polygon fill="none" stroke="black" points="0,-76 0,-106 118,-106 118,-76 0,-76"/>
<text text-anchor="start" x="8" y="-94" font-family="Helvetica,sans-Serif" font-size="10.00">mlir::StorageUniquer</text>
<text text-anchor="middle" x="59" y="-83" font-family="Helvetica,sans-Serif" font-size="10.00">::BaseStorage</text>
</a>
</g>
</g>
<!-- Node4&#45;&gt;Node3 -->
<g id="edge3" class="edge">
<title>Node4&#45;&gt;Node3</title>
<path fill="none" stroke="midnightblue" d="M128.49,-91C142.1,-91 156.32,-91 169.71,-91"/>
<polygon fill="midnightblue" stroke="midnightblue" points="128.23,-87.5 118.23,-91 128.23,-94.5 128.23,-87.5"/>
</g>
<!-- Node5 -->
<g id="node5" class="node">
<title>Node5</title>
<g id="a_node5"><a xlink:href="classmlir_1_1pdl__to__pdl__interp_1_1PredicateBase.html" target="_top" xlink:title="Base class for all predicates, used to allow efficient pointer comparison.">
<polygon fill="none" stroke="black" points="155,-0.5 155,-41.5 311,-41.5 311,-0.5 155,-0.5"/>
<text text-anchor="start" x="163" y="-29.5" font-family="Helvetica,sans-Serif" font-size="10.00">mlir::pdl_to_pdl_interp</text>
<text text-anchor="start" x="163" y="-18.5" font-family="Helvetica,sans-Serif" font-size="10.00">::PredicateBase&lt; ConcreteT,</text>
<text text-anchor="middle" x="233" y="-7.5" font-family="Helvetica,sans-Serif" font-size="10.00"> BaseT, Key, Kind &gt;</text>
</a>
</g>
</g>
<!-- Node5&#45;&gt;Node2 -->
<g id="edge4" class="edge">
<title>Node5&#45;&gt;Node2</title>
<path fill="none" stroke="orange" stroke-dasharray="5,2" d="M321.31,-12.18C383.09,-7.87 467.65,-5.89 541,-18 546.88,-18.97 552.86,-20.21 558.84,-21.64"/>
<polygon fill="orange" stroke="orange" points="320.93,-8.7 311.21,-12.92 321.44,-15.68 320.93,-8.7"/>
<text text-anchor="start" x="329" y="-65" font-family="Helvetica,sans-Serif" font-size="10.00"> &lt; OperandGroupPosition,</text>
<text text-anchor="start" x="329" y="-54" font-family="Helvetica,sans-Serif" font-size="10.00"> Position, std::tuple</text>
<text text-anchor="start" x="329" y="-43" font-family="Helvetica,sans-Serif" font-size="10.00">&lt; OperationPosition *,</text>
<text text-anchor="start" x="329" y="-32" font-family="Helvetica,sans-Serif" font-size="10.00"> std::optional&lt; unsigned</text>
<text text-anchor="middle" x="435" y="-21" font-family="Helvetica,sans-Serif" font-size="10.00"> &gt;, bool &gt;, Predicates::OperandGroupPos &gt;</text>
</g>
<!-- Node6 -->
<g id="node6" class="node">
<title>Node6</title>
<g id="a_node6"><a xlink:href="classBaseT.html" target="_top" xlink:title=" ">
<polygon fill="none" stroke="black" points="35.5,-11.5 35.5,-30.5 82.5,-30.5 82.5,-11.5 35.5,-11.5"/>
<text text-anchor="middle" x="59" y="-18.5" font-family="Helvetica,sans-Serif" font-size="10.00">BaseT</text>
</a>
</g>
</g>
<!-- Node6&#45;&gt;Node5 -->
<g id="edge5" class="edge">
<title>Node6&#45;&gt;Node5</title>
<path fill="none" stroke="midnightblue" d="M93.13,-21C110.74,-21 133.18,-21 154.86,-21"/>
<polygon fill="midnightblue" stroke="midnightblue" points="92.84,-17.5 82.84,-21 92.84,-24.5 92.84,-17.5"/>
</g>
</g>
</svg>
