<?xml version="1.0" encoding="UTF-8" standalone="no"?>
<!DOCTYPE svg PUBLIC "-//W3C//DTD SVG 1.1//EN"
 "http://www.w3.org/Graphics/SVG/1.1/DTD/svg11.dtd">
<!-- Generated by graphviz version 2.43.0 (0)
 -->
<!-- Title: mlir::python::MLIR_BINDINGS_PYTHON_DOMAIN::nb_format_descriptor&lt; T &gt; Pages: 1 -->
<svg width="439pt" height="760pt"
 viewBox="0.00 0.00 439.00 760.00" xmlns="http://www.w3.org/2000/svg" xmlns:xlink="http://www.w3.org/1999/xlink">
<g id="graph0" class="graph" transform="scale(1 1) rotate(0) translate(4 756)">
<title>mlir::python::MLIR_BINDINGS_PYTHON_DOMAIN::nb_format_descriptor&lt; T &gt;</title>
<!-- Node1 -->
<g id="Node000001" class="node">
<title>Node1</title>
<g id="a_Node000001"><a xlink:title=" ">
<polygon fill="#999999" stroke="#666666" points="163,-396.5 0,-396.5 0,-355.5 163,-355.5 163,-396.5"/>
<text text-anchor="start" x="8" y="-384.5" font-family="Helvetica,sans-Serif" font-size="10.00">mlir::python::MLIR</text>
<text text-anchor="start" x="8" y="-373.5" font-family="Helvetica,sans-Serif" font-size="10.00">_BINDINGS_PYTHON_DOMAIN</text>
<text text-anchor="middle" x="81.5" y="-362.5" font-family="Helvetica,sans-Serif" font-size="10.00">::nb_format_descriptor&lt; T &gt;</text>
</a>
</g>
</g>
<!-- Node2 -->
<g id="Node000002" class="node">
<title>Node2</title>
<g id="a_Node000002"><a xlink:href="structmlir_1_1python_1_1MLIR__BINDINGS__PYTHON__DOMAIN_1_1nb__format__descriptor_3_01bool_01_4.html" target="_top" xlink:title=" ">
<polygon fill="white" stroke="#666666" points="431,-752 268,-752 268,-700 431,-700 431,-752"/>
<text text-anchor="start" x="276" y="-740" font-family="Helvetica,sans-Serif" font-size="10.00">mlir::python::MLIR</text>
<text text-anchor="start" x="276" y="-729" font-family="Helvetica,sans-Serif" font-size="10.00">_BINDINGS_PYTHON_DOMAIN</text>
<text text-anchor="start" x="276" y="-718" font-family="Helvetica,sans-Serif" font-size="10.00">::nb_format_descriptor</text>
<text text-anchor="middle" x="349.5" y="-707" font-family="Helvetica,sans-Serif" font-size="10.00">&lt; bool &gt;</text>
</a>
</g>
</g>
<!-- Node1&#45;&gt;Node2 -->
<g id="edge1_Node000001_Node000002" class="edge">
<title>Node1&#45;&gt;Node2</title>
<g id="a_edge1_Node000001_Node000002"><a xlink:title=" ">
<path fill="none" stroke="orange" stroke-dasharray="5,2" d="M87.93,-406.65C98.33,-458.12 125.17,-563.17 181,-633 204.99,-663.01 241.43,-684.87 274.2,-699.83"/>
<polygon fill="orange" stroke="orange" points="91.36,-405.94 86.01,-396.8 84.49,-407.28 91.36,-405.94"/>
</a>
</g>
<text text-anchor="start" x="193.5" y="-692.5" font-family="Helvetica,sans-Serif" font-size="10.00" fill="grey">&lt; bool &gt;</text>
</g>
<!-- Node3 -->
<g id="Node000003" class="node">
<title>Node3</title>
<g id="a_Node000003"><a xlink:href="structmlir_1_1python_1_1MLIR__BINDINGS__PYTHON__DOMAIN_1_1nb__format__descriptor_3_01double_01_4.html" target="_top" xlink:title=" ">
<polygon fill="white" stroke="#666666" points="431,-682 268,-682 268,-630 431,-630 431,-682"/>
<text text-anchor="start" x="276" y="-670" font-family="Helvetica,sans-Serif" font-size="10.00">mlir::python::MLIR</text>
<text text-anchor="start" x="276" y="-659" font-family="Helvetica,sans-Serif" font-size="10.00">_BINDINGS_PYTHON_DOMAIN</text>
<text text-anchor="start" x="276" y="-648" font-family="Helvetica,sans-Serif" font-size="10.00">::nb_format_descriptor</text>
<text text-anchor="middle" x="349.5" y="-637" font-family="Helvetica,sans-Serif" font-size="10.00">&lt; double &gt;</text>
</a>
</g>
</g>
<!-- Node1&#45;&gt;Node3 -->
<g id="edge2_Node000001_Node000003" class="edge">
<title>Node1&#45;&gt;Node3</title>
<g id="a_edge2_Node000001_Node000003"><a xlink:title=" ">
<path fill="none" stroke="orange" stroke-dasharray="5,2" d="M93.39,-406.27C108.52,-445.3 138.88,-513.75 181,-561 208.03,-591.32 247.13,-614.26 280.76,-629.99"/>
<polygon fill="orange" stroke="orange" points="96.52,-404.65 89.7,-396.55 89.97,-407.14 96.52,-404.65"/>
</a>
</g>
<text text-anchor="start" x="187.5" y="-617.5" font-family="Helvetica,sans-Serif" font-size="10.00" fill="grey">&lt; double &gt;</text>
</g>
<!-- Node4 -->
<g id="Node000004" class="node">
<title>Node4</title>
<g id="a_Node000004"><a xlink:href="structmlir_1_1python_1_1MLIR__BINDINGS__PYTHON__DOMAIN_1_1nb__format__descriptor_3_01float_01_4.html" target="_top" xlink:title=" ">
<polygon fill="white" stroke="#666666" points="431,-612 268,-612 268,-560 431,-560 431,-612"/>
<text text-anchor="start" x="276" y="-600" font-family="Helvetica,sans-Serif" font-size="10.00">mlir::python::MLIR</text>
<text text-anchor="start" x="276" y="-589" font-family="Helvetica,sans-Serif" font-size="10.00">_BINDINGS_PYTHON_DOMAIN</text>
<text text-anchor="start" x="276" y="-578" font-family="Helvetica,sans-Serif" font-size="10.00">::nb_format_descriptor</text>
<text text-anchor="middle" x="349.5" y="-567" font-family="Helvetica,sans-Serif" font-size="10.00">&lt; float &gt;</text>
</a>
</g>
</g>
<!-- Node1&#45;&gt;Node4 -->
<g id="edge3_Node000001_Node000004" class="edge">
<title>Node1&#45;&gt;Node4</title>
<g id="a_edge3_Node000001_Node000004"><a xlink:title=" ">
<path fill="none" stroke="orange" stroke-dasharray="5,2" d="M103.14,-404.89C121.8,-429.86 150.9,-466.09 181,-493 215.64,-523.97 227.2,-528.76 268,-551 273.62,-554.06 279.56,-557.06 285.57,-559.94"/>
<polygon fill="orange" stroke="orange" points="105.74,-402.52 96.99,-396.55 100.11,-406.68 105.74,-402.52"/>
</a>
</g>
<text text-anchor="start" x="193.5" y="-545.5" font-family="Helvetica,sans-Serif" font-size="10.00" fill="grey">&lt; float &gt;</text>
</g>
<!-- Node5 -->
<g id="Node000005" class="node">
<title>Node5</title>
<g id="a_Node000005"><a xlink:href="structmlir_1_1python_1_1MLIR__BINDINGS__PYTHON__DOMAIN_1_1nb__format__descriptor_3_01int16__t_01_4.html" target="_top" xlink:title=" ">
<polygon fill="white" stroke="#666666" points="431,-542 268,-542 268,-490 431,-490 431,-542"/>
<text text-anchor="start" x="276" y="-530" font-family="Helvetica,sans-Serif" font-size="10.00">mlir::python::MLIR</text>
<text text-anchor="start" x="276" y="-519" font-family="Helvetica,sans-Serif" font-size="10.00">_BINDINGS_PYTHON_DOMAIN</text>
<text text-anchor="start" x="276" y="-508" font-family="Helvetica,sans-Serif" font-size="10.00">::nb_format_descriptor</text>
<text text-anchor="middle" x="349.5" y="-497" font-family="Helvetica,sans-Serif" font-size="10.00">&lt; int16_t &gt;</text>
</a>
</g>
</g>
<!-- Node1&#45;&gt;Node5 -->
<g id="edge4_Node000001_Node000005" class="edge">
<title>Node1&#45;&gt;Node5</title>
<g id="a_edge4_Node000001_Node000005"><a xlink:title=" ">
<path fill="none" stroke="orange" stroke-dasharray="5,2" d="M120.51,-402.42C138.5,-414.47 160.48,-428.57 181,-440 218.34,-460.8 229.06,-463.37 268,-481 274.39,-483.89 281.08,-486.87 287.75,-489.82"/>
<polygon fill="orange" stroke="orange" points="122.27,-399.39 112.02,-396.69 118.35,-405.19 122.27,-399.39"/>
</a>
</g>
<text text-anchor="start" x="187.5" y="-477.5" font-family="Helvetica,sans-Serif" font-size="10.00" fill="grey">&lt; int16_t &gt;</text>
</g>
<!-- Node6 -->
<g id="Node000006" class="node">
<title>Node6</title>
<g id="a_Node000006"><a xlink:href="structmlir_1_1python_1_1MLIR__BINDINGS__PYTHON__DOMAIN_1_1nb__format__descriptor_3_01int32__t_01_4.html" target="_top" xlink:title=" ">
<polygon fill="white" stroke="#666666" points="431,-472 268,-472 268,-420 431,-420 431,-472"/>
<text text-anchor="start" x="276" y="-460" font-family="Helvetica,sans-Serif" font-size="10.00">mlir::python::MLIR</text>
<text text-anchor="start" x="276" y="-449" font-family="Helvetica,sans-Serif" font-size="10.00">_BINDINGS_PYTHON_DOMAIN</text>
<text text-anchor="start" x="276" y="-438" font-family="Helvetica,sans-Serif" font-size="10.00">::nb_format_descriptor</text>
<text text-anchor="middle" x="349.5" y="-427" font-family="Helvetica,sans-Serif" font-size="10.00">&lt; int32_t &gt;</text>
</a>
</g>
</g>
<!-- Node1&#45;&gt;Node6 -->
<g id="edge5_Node000001_Node000006" class="edge">
<title>Node1&#45;&gt;Node6</title>
<g id="a_edge5_Node000001_Node000006"><a xlink:title=" ">
<path fill="none" stroke="orange" stroke-dasharray="5,2" d="M170.55,-399.17C201.89,-407.42 237.01,-416.66 267.72,-424.74"/>
<polygon fill="orange" stroke="orange" points="171.07,-395.69 160.51,-396.53 169.29,-402.46 171.07,-395.69"/>
</a>
</g>
<text text-anchor="start" x="187.5" y="-424.5" font-family="Helvetica,sans-Serif" font-size="10.00" fill="grey">&lt; int32_t &gt;</text>
</g>
<!-- Node7 -->
<g id="Node000007" class="node">
<title>Node7</title>
<g id="a_Node000007"><a xlink:href="structmlir_1_1python_1_1MLIR__BINDINGS__PYTHON__DOMAIN_1_1nb__format__descriptor_3_01int64__t_01_4.html" target="_top" xlink:title=" ">
<polygon fill="white" stroke="#666666" points="431,-402 268,-402 268,-350 431,-350 431,-402"/>
<text text-anchor="start" x="276" y="-390" font-family="Helvetica,sans-Serif" font-size="10.00">mlir::python::MLIR</text>
<text text-anchor="start" x="276" y="-379" font-family="Helvetica,sans-Serif" font-size="10.00">_BINDINGS_PYTHON_DOMAIN</text>
<text text-anchor="start" x="276" y="-368" font-family="Helvetica,sans-Serif" font-size="10.00">::nb_format_descriptor</text>
<text text-anchor="middle" x="349.5" y="-357" font-family="Helvetica,sans-Serif" font-size="10.00">&lt; int64_t &gt;</text>
</a>
</g>
</g>
<!-- Node1&#45;&gt;Node7 -->
<g id="edge6_Node000001_Node000007" class="edge">
<title>Node1&#45;&gt;Node7</title>
<g id="a_edge6_Node000001_Node000007"><a xlink:title=" ">
<path fill="none" stroke="orange" stroke-dasharray="5,2" d="M173.29,-376C203.95,-376 237.96,-376 267.78,-376"/>
<polygon fill="orange" stroke="orange" points="173.03,-372.5 163.03,-376 173.03,-379.5 173.03,-372.5"/>
</a>
</g>
<text text-anchor="start" x="187.5" y="-381.5" font-family="Helvetica,sans-Serif" font-size="10.00" fill="grey">&lt; int64_t &gt;</text>
</g>
<!-- Node8 -->
<g id="Node000008" class="node">
<title>Node8</title>
<g id="a_Node000008"><a xlink:href="structmlir_1_1python_1_1MLIR__BINDINGS__PYTHON__DOMAIN_1_1nb__format__descriptor_3_01int8__t_01_4.html" target="_top" xlink:title=" ">
<polygon fill="white" stroke="#666666" points="431,-332 268,-332 268,-280 431,-280 431,-332"/>
<text text-anchor="start" x="276" y="-320" font-family="Helvetica,sans-Serif" font-size="10.00">mlir::python::MLIR</text>
<text text-anchor="start" x="276" y="-309" font-family="Helvetica,sans-Serif" font-size="10.00">_BINDINGS_PYTHON_DOMAIN</text>
<text text-anchor="start" x="276" y="-298" font-family="Helvetica,sans-Serif" font-size="10.00">::nb_format_descriptor</text>
<text text-anchor="middle" x="349.5" y="-287" font-family="Helvetica,sans-Serif" font-size="10.00">&lt; int8_t &gt;</text>
</a>
</g>
</g>
<!-- Node1&#45;&gt;Node8 -->
<g id="edge7_Node000001_Node000008" class="edge">
<title>Node1&#45;&gt;Node8</title>
<g id="a_edge7_Node000001_Node000008"><a xlink:title=" ">
<path fill="none" stroke="orange" stroke-dasharray="5,2" d="M170.55,-352.83C201.89,-344.58 237.01,-335.34 267.72,-327.26"/>
<polygon fill="orange" stroke="orange" points="169.29,-349.54 160.51,-355.47 171.07,-356.31 169.29,-349.54"/>
</a>
</g>
<text text-anchor="start" x="190.5" y="-354.5" font-family="Helvetica,sans-Serif" font-size="10.00" fill="grey">&lt; int8_t &gt;</text>
</g>
<!-- Node9 -->
<g id="Node000009" class="node">
<title>Node9</title>
<g id="a_Node000009"><a xlink:href="structmlir_1_1python_1_1MLIR__BINDINGS__PYTHON__DOMAIN_1_1nb__format__descriptor_3_01uint16__t_01_4.html" target="_top" xlink:title=" ">
<polygon fill="white" stroke="#666666" points="431,-262 268,-262 268,-210 431,-210 431,-262"/>
<text text-anchor="start" x="276" y="-250" font-family="Helvetica,sans-Serif" font-size="10.00">mlir::python::MLIR</text>
<text text-anchor="start" x="276" y="-239" font-family="Helvetica,sans-Serif" font-size="10.00">_BINDINGS_PYTHON_DOMAIN</text>
<text text-anchor="start" x="276" y="-228" font-family="Helvetica,sans-Serif" font-size="10.00">::nb_format_descriptor</text>
<text text-anchor="middle" x="349.5" y="-217" font-family="Helvetica,sans-Serif" font-size="10.00">&lt; uint16_t &gt;</text>
</a>
</g>
</g>
<!-- Node1&#45;&gt;Node9 -->
<g id="edge8_Node000001_Node000009" class="edge">
<title>Node1&#45;&gt;Node9</title>
<g id="a_edge8_Node000001_Node000009"><a xlink:title=" ">
<path fill="none" stroke="orange" stroke-dasharray="5,2" d="M119.61,-349.58C137.72,-337.19 160.07,-322.63 181,-311 218.2,-290.33 229.15,-288.37 268,-271 274.54,-268.08 281.39,-265.05 288.22,-262.05"/>
<polygon fill="orange" stroke="orange" points="117.32,-346.9 111.08,-355.46 121.3,-352.66 117.32,-346.9"/>
</a>
</g>
<text text-anchor="start" x="184.5" y="-316.5" font-family="Helvetica,sans-Serif" font-size="10.00" fill="grey">&lt; uint16_t &gt;</text>
</g>
<!-- Node10 -->
<g id="Node000010" class="node">
<title>Node10</title>
<g id="a_Node000010"><a xlink:href="structmlir_1_1python_1_1MLIR__BINDINGS__PYTHON__DOMAIN_1_1nb__format__descriptor_3_01uint32__t_01_4.html" target="_top" xlink:title=" ">
<polygon fill="white" stroke="#666666" points="431,-192 268,-192 268,-140 431,-140 431,-192"/>
<text text-anchor="start" x="276" y="-180" font-family="Helvetica,sans-Serif" font-size="10.00">mlir::python::MLIR</text>
<text text-anchor="start" x="276" y="-169" font-family="Helvetica,sans-Serif" font-size="10.00">_BINDINGS_PYTHON_DOMAIN</text>
<text text-anchor="start" x="276" y="-158" font-family="Helvetica,sans-Serif" font-size="10.00">::nb_format_descriptor</text>
<text text-anchor="middle" x="349.5" y="-147" font-family="Helvetica,sans-Serif" font-size="10.00">&lt; uint32_t &gt;</text>
</a>
</g>
</g>
<!-- Node1&#45;&gt;Node10 -->
<g id="edge9_Node000001_Node000010" class="edge">
<title>Node1&#45;&gt;Node10</title>
<g id="a_edge9_Node000001_Node000010"><a xlink:title=" ">
<path fill="none" stroke="orange" stroke-dasharray="5,2" d="M102.79,-347.12C121.38,-321.87 150.56,-285.11 181,-258 215.52,-227.26 227.32,-222.96 268,-201 273.63,-197.96 279.58,-194.97 285.6,-192.11"/>
<polygon fill="orange" stroke="orange" points="99.96,-345.07 96.91,-355.21 105.62,-349.18 99.96,-345.07"/>
</a>
</g>
<text text-anchor="start" x="184.5" y="-263.5" font-family="Helvetica,sans-Serif" font-size="10.00" fill="grey">&lt; uint32_t &gt;</text>
</g>
<!-- Node11 -->
<g id="Node000011" class="node">
<title>Node11</title>
<g id="a_Node000011"><a xlink:href="structmlir_1_1python_1_1MLIR__BINDINGS__PYTHON__DOMAIN_1_1nb__format__descriptor_3_01uint64__t_01_4.html" target="_top" xlink:title=" ">
<polygon fill="white" stroke="#666666" points="431,-122 268,-122 268,-70 431,-70 431,-122"/>
<text text-anchor="start" x="276" y="-110" font-family="Helvetica,sans-Serif" font-size="10.00">mlir::python::MLIR</text>
<text text-anchor="start" x="276" y="-99" font-family="Helvetica,sans-Serif" font-size="10.00">_BINDINGS_PYTHON_DOMAIN</text>
<text text-anchor="start" x="276" y="-88" font-family="Helvetica,sans-Serif" font-size="10.00">::nb_format_descriptor</text>
<text text-anchor="middle" x="349.5" y="-77" font-family="Helvetica,sans-Serif" font-size="10.00">&lt; uint64_t &gt;</text>
</a>
</g>
</g>
<!-- Node1&#45;&gt;Node11 -->
<g id="edge10_Node000001_Node000011" class="edge">
<title>Node1&#45;&gt;Node11</title>
<g id="a_edge10_Node000001_Node000011"><a xlink:title=" ">
<path fill="none" stroke="orange" stroke-dasharray="5,2" d="M93.2,-345.77C108.19,-306.51 138.48,-237.43 181,-190 207.71,-160.21 246.19,-137.69 279.53,-122.18"/>
<polygon fill="orange" stroke="orange" points="89.85,-344.71 89.63,-355.3 96.41,-347.16 89.85,-344.71"/>
</a>
</g>
<text text-anchor="start" x="184.5" y="-195.5" font-family="Helvetica,sans-Serif" font-size="10.00" fill="grey">&lt; uint64_t &gt;</text>
</g>
<!-- Node12 -->
<g id="Node000012" class="node">
<title>Node12</title>
<g id="a_Node000012"><a xlink:href="structmlir_1_1python_1_1MLIR__BINDINGS__PYTHON__DOMAIN_1_1nb__format__descriptor_3_01uint8__t_01_4.html" target="_top" xlink:title=" ">
<polygon fill="white" stroke="#666666" points="431,-52 268,-52 268,0 431,0 431,-52"/>
<text text-anchor="start" x="276" y="-40" font-family="Helvetica,sans-Serif" font-size="10.00">mlir::python::MLIR</text>
<text text-anchor="start" x="276" y="-29" font-family="Helvetica,sans-Serif" font-size="10.00">_BINDINGS_PYTHON_DOMAIN</text>
<text text-anchor="start" x="276" y="-18" font-family="Helvetica,sans-Serif" font-size="10.00">::nb_format_descriptor</text>
<text text-anchor="middle" x="349.5" y="-7" font-family="Helvetica,sans-Serif" font-size="10.00">&lt; uint8_t &gt;</text>
</a>
</g>
</g>
<!-- Node1&#45;&gt;Node12 -->
<g id="edge11_Node000001_Node000012" class="edge">
<title>Node1&#45;&gt;Node12</title>
<g id="a_edge11_Node000001_Node000012"><a xlink:title=" ">
<path fill="none" stroke="orange" stroke-dasharray="5,2" d="M87.76,-345.57C97.97,-293.97 124.61,-188.06 181,-118 204.82,-88.41 240.84,-66.88 273.38,-52.13"/>
<polygon fill="orange" stroke="orange" points="84.32,-344.96 85.88,-355.44 91.19,-346.27 84.32,-344.96"/>
</a>
</g>
<text text-anchor="start" x="187.5" y="-123.5" font-family="Helvetica,sans-Serif" font-size="10.00" fill="grey">&lt; uint8_t &gt;</text>
</g>
</g>
</svg>
