<?xml version="1.0" encoding="UTF-8" standalone="no"?>
<!DOCTYPE svg PUBLIC "-//W3C//DTD SVG 1.1//EN"
 "http://www.w3.org/Graphics/SVG/1.1/DTD/svg11.dtd">
<!-- Generated by graphviz version 2.43.0 (0)
 -->
<!-- Title: mlir::python::MLIR_BINDINGS_PYTHON_DOMAIN::quant::UniformQuantizedPerAxisType Pages: 1 -->
<svg width="1195pt" height="98pt"
 viewBox="0.00 0.00 1195.00 97.50" xmlns="http://www.w3.org/2000/svg" xmlns:xlink="http://www.w3.org/1999/xlink">
<g id="graph0" class="graph" transform="scale(1 1) rotate(0) translate(4 93.5)">
<title>mlir::python::MLIR_BINDINGS_PYTHON_DOMAIN::quant::UniformQuantizedPerAxisType</title>
<!-- Node1 -->
<g id="Node000001" class="node">
<title>Node1</title>
<g id="a_Node000001"><a xlink:title=" ">
<polygon fill="#999999" stroke="#666666" points="1187,-73.5 982,-73.5 982,-32.5 1187,-32.5 1187,-73.5"/>
<text text-anchor="start" x="990" y="-61.5" font-family="Helvetica,sans-Serif" font-size="10.00">mlir::python::MLIR</text>
<text text-anchor="start" x="990" y="-50.5" font-family="Helvetica,sans-Serif" font-size="10.00">_BINDINGS_PYTHON_DOMAIN</text>
<text text-anchor="middle" x="1084.5" y="-39.5" font-family="Helvetica,sans-Serif" font-size="10.00">::quant::UniformQuantizedPerAxisType</text>
</a>
</g>
</g>
<!-- Node2 -->
<g id="Node000002" class="node">
<title>Node2</title>
<g id="a_Node000002"><a xlink:href="classmlir_1_1python_1_1MLIR__BINDINGS__PYTHON__DOMAIN_1_1PyConcreteType.html" target="_top" xlink:title=" ">
<polygon fill="white" stroke="#666666" points="945,-79 744,-79 744,-27 945,-27 945,-79"/>
<text text-anchor="start" x="752" y="-67" font-family="Helvetica,sans-Serif" font-size="10.00">mlir::python::MLIR</text>
<text text-anchor="start" x="752" y="-56" font-family="Helvetica,sans-Serif" font-size="10.00">_BINDINGS_PYTHON_DOMAIN</text>
<text text-anchor="start" x="752" y="-45" font-family="Helvetica,sans-Serif" font-size="10.00">::PyConcreteType&lt; UniformQuantized</text>
<text text-anchor="middle" x="844.5" y="-34" font-family="Helvetica,sans-Serif" font-size="10.00">PerAxisType, QuantizedType &gt;</text>
</a>
</g>
</g>
<!-- Node2&#45;&gt;Node1 -->
<g id="edge1_Node000001_Node000002" class="edge">
<title>Node2&#45;&gt;Node1</title>
<g id="a_edge1_Node000001_Node000002"><a xlink:title=" ">
<path fill="none" stroke="#63b8ff" d="M955.32,-53C964.1,-53 972.94,-53 981.67,-53"/>
<polygon fill="#63b8ff" stroke="#63b8ff" points="955.05,-49.5 945.05,-53 955.05,-56.5 955.05,-49.5"/>
</a>
</g>
</g>
<!-- Node3 -->
<g id="Node000003" class="node">
<title>Node3</title>
<g id="a_Node000003"><a xlink:title=" ">
<polygon fill="white" stroke="#666666" points="526.5,-89.5 437.5,-89.5 437.5,-70.5 526.5,-70.5 526.5,-89.5"/>
<text text-anchor="middle" x="482" y="-77.5" font-family="Helvetica,sans-Serif" font-size="10.00">QuantizedType</text>
</a>
</g>
</g>
<!-- Node3&#45;&gt;Node2 -->
<g id="edge2_Node000002_Node000003" class="edge">
<title>Node3&#45;&gt;Node2</title>
<g id="a_edge2_Node000002_Node000003"><a xlink:title=" ">
<path fill="none" stroke="#63b8ff" d="M536.62,-77.72C585.89,-75.44 660.94,-71.47 726,-66 731.83,-65.51 737.82,-64.97 743.85,-64.39"/>
<polygon fill="#63b8ff" stroke="#63b8ff" points="536.34,-74.23 526.51,-78.18 536.66,-81.22 536.34,-74.23"/>
</a>
</g>
</g>
<!-- Node4 -->
<g id="Node000004" class="node">
<title>Node4</title>
<g id="a_Node000004"><a xlink:href="classmlir_1_1python_1_1MLIR__BINDINGS__PYTHON__DOMAIN_1_1PyConcreteType.html" target="_top" xlink:title="CRTP base classes for Python types that subclass Type and should be castable from it (i....">
<polygon fill="white" stroke="#666666" points="564,-52 400,-52 400,0 564,0 564,-52"/>
<text text-anchor="start" x="408" y="-40" font-family="Helvetica,sans-Serif" font-size="10.00">mlir::python::MLIR</text>
<text text-anchor="start" x="408" y="-29" font-family="Helvetica,sans-Serif" font-size="10.00">_BINDINGS_PYTHON_DOMAIN</text>
<text text-anchor="start" x="408" y="-18" font-family="Helvetica,sans-Serif" font-size="10.00">::PyConcreteType&lt; DerivedTy,</text>
<text text-anchor="middle" x="482" y="-7" font-family="Helvetica,sans-Serif" font-size="10.00"> BaseTy &gt;</text>
</a>
</g>
</g>
<!-- Node4&#45;&gt;Node2 -->
<g id="edge3_Node000002_Node000004" class="edge">
<title>Node4&#45;&gt;Node2</title>
<g id="a_edge3_Node000002_Node000004"><a xlink:title=" ">
<path fill="none" stroke="orange" stroke-dasharray="5,2" d="M574.39,-23.69C620.05,-23.51 676.07,-24.74 726,-30 731.79,-30.61 737.72,-31.36 743.68,-32.22"/>
<polygon fill="orange" stroke="orange" points="574.19,-20.2 564.22,-23.76 574.24,-27.2 574.19,-20.2"/>
</a>
</g>
<text text-anchor="start" x="585" y="-51" font-family="Helvetica,sans-Serif" font-size="10.00" fill="grey">&lt; UniformQuantizedPerAxis</text>
<text text-anchor="start" x="585" y="-36" font-family="Helvetica,sans-Serif" font-size="10.00" fill="grey">  Type, QuantizedType &gt;</text>
</g>
<!-- Node5 -->
<g id="Node000005" class="node">
<title>Node5</title>
<g id="a_Node000005"><a xlink:href="classmlir_1_1python_1_1MLIR__BINDINGS__PYTHON__DOMAIN_1_1PyType.html" target="_top" xlink:title="Wrapper around the generic MlirType.">
<polygon fill="white" stroke="#666666" points="363,-46.5 200,-46.5 200,-5.5 363,-5.5 363,-46.5"/>
<text text-anchor="start" x="208" y="-34.5" font-family="Helvetica,sans-Serif" font-size="10.00">mlir::python::MLIR</text>
<text text-anchor="start" x="208" y="-23.5" font-family="Helvetica,sans-Serif" font-size="10.00">_BINDINGS_PYTHON_DOMAIN</text>
<text text-anchor="middle" x="281.5" y="-12.5" font-family="Helvetica,sans-Serif" font-size="10.00">::PyType</text>
</a>
</g>
</g>
<!-- Node5&#45;&gt;Node4 -->
<g id="edge4_Node000004_Node000005" class="edge">
<title>Node5&#45;&gt;Node4</title>
<g id="a_edge4_Node000004_Node000005"><a xlink:title=" ">
<path fill="none" stroke="#63b8ff" d="M373.45,-26C382.2,-26 391.04,-26 399.69,-26"/>
<polygon fill="#63b8ff" stroke="#63b8ff" points="373.24,-22.5 363.24,-26 373.24,-29.5 373.24,-22.5"/>
</a>
</g>
</g>
<!-- Node6 -->
<g id="Node000006" class="node">
<title>Node6</title>
<g id="a_Node000006"><a xlink:href="classmlir_1_1python_1_1MLIR__BINDINGS__PYTHON__DOMAIN_1_1BaseContextObject.html" target="_top" xlink:title="Base class for all objects that directly or indirectly depend on an MlirContext.">
<polygon fill="white" stroke="#666666" points="163,-46.5 0,-46.5 0,-5.5 163,-5.5 163,-46.5"/>
<text text-anchor="start" x="8" y="-34.5" font-family="Helvetica,sans-Serif" font-size="10.00">mlir::python::MLIR</text>
<text text-anchor="start" x="8" y="-23.5" font-family="Helvetica,sans-Serif" font-size="10.00">_BINDINGS_PYTHON_DOMAIN</text>
<text text-anchor="middle" x="81.5" y="-12.5" font-family="Helvetica,sans-Serif" font-size="10.00">::BaseContextObject</text>
</a>
</g>
</g>
<!-- Node6&#45;&gt;Node5 -->
<g id="edge5_Node000005_Node000006" class="edge">
<title>Node6&#45;&gt;Node5</title>
<g id="a_edge5_Node000005_Node000006"><a xlink:title=" ">
<path fill="none" stroke="#63b8ff" d="M173.32,-26C182.12,-26 191.02,-26 199.72,-26"/>
<polygon fill="#63b8ff" stroke="#63b8ff" points="173.03,-22.5 163.03,-26 173.03,-29.5 173.03,-22.5"/>
</a>
</g>
</g>
</g>
</svg>
