<?xml version="1.0" encoding="UTF-8" standalone="no"?>
<!DOCTYPE svg PUBLIC "-//W3C//DTD SVG 1.1//EN"
 "http://www.w3.org/Graphics/SVG/1.1/DTD/svg11.dtd">
<!-- Generated by graphviz version 2.43.0 (0)
 -->
<!-- Title: VectorizePadOpUserPattern&lt; OpTy &gt; Pages: 1 -->
<svg width="1607pt" height="137pt"
 viewBox="0.00 0.00 1607.00 137.00" xmlns="http://www.w3.org/2000/svg" xmlns:xlink="http://www.w3.org/1999/xlink">
<g id="graph0" class="graph" transform="scale(1 1) rotate(0) translate(4 133)">
<title>VectorizePadOpUserPattern&lt; OpTy &gt;</title>
<!-- Node1 -->
<g id="node1" class="node">
<title>Node1</title>
<g id="a_node1"><a xlink:title="Base pattern for rewriting tensor::PadOps whose result is consumed by a given operation type OpTy.">
<polygon fill="#bfbfbf" stroke="black" points="907,-49.5 907,-79.5 1056,-79.5 1056,-49.5 907,-49.5"/>
<text text-anchor="start" x="915" y="-67.5" font-family="Helvetica,sans-Serif" font-size="10.00">VectorizePadOpUserPattern</text>
<text text-anchor="middle" x="981.5" y="-56.5" font-family="Helvetica,sans-Serif" font-size="10.00">&lt; OpTy &gt;</text>
</a>
</g>
</g>
<!-- Node7 -->
<g id="node7" class="node">
<title>Node7</title>
<g id="a_node7"><a xlink:href="structVectorizePadOpUserPattern.html" target="_top" xlink:title=" ">
<polygon fill="none" stroke="black" points="1237,-98.5 1237,-128.5 1386,-128.5 1386,-98.5 1237,-98.5"/>
<text text-anchor="start" x="1245" y="-116.5" font-family="Helvetica,sans-Serif" font-size="10.00">VectorizePadOpUserPattern</text>
<text text-anchor="middle" x="1311.5" y="-105.5" font-family="Helvetica,sans-Serif" font-size="10.00">&lt; tensor::InsertSliceOp &gt;</text>
</a>
</g>
</g>
<!-- Node1&#45;&gt;Node7 -->
<g id="edge7" class="edge">
<title>Node1&#45;&gt;Node7</title>
<path fill="none" stroke="orange" stroke-dasharray="5,2" d="M1066.38,-78.32C1068.95,-78.72 1071.49,-79.11 1074,-79.5 1128.53,-87.89 1190.23,-96.74 1236.94,-103.3"/>
<polygon fill="orange" stroke="orange" points="1066.81,-74.84 1056.39,-76.74 1065.72,-81.76 1066.81,-74.84"/>
<text text-anchor="middle" x="1145" y="-102.5" font-family="Helvetica,sans-Serif" font-size="10.00"> &lt; tensor::InsertSliceOp &gt;</text>
</g>
<!-- Node9 -->
<g id="node9" class="node">
<title>Node9</title>
<g id="a_node9"><a xlink:href="structVectorizePadOpUserPattern.html" target="_top" xlink:title=" ">
<polygon fill="none" stroke="black" points="1235,-49.5 1235,-79.5 1388,-79.5 1388,-49.5 1235,-49.5"/>
<text text-anchor="start" x="1243" y="-67.5" font-family="Helvetica,sans-Serif" font-size="10.00">VectorizePadOpUserPattern</text>
<text text-anchor="middle" x="1311.5" y="-56.5" font-family="Helvetica,sans-Serif" font-size="10.00">&lt; vector::TransferReadOp &gt;</text>
</a>
</g>
</g>
<!-- Node1&#45;&gt;Node9 -->
<g id="edge9" class="edge">
<title>Node1&#45;&gt;Node9</title>
<path fill="none" stroke="orange" stroke-dasharray="5,2" d="M1066.3,-64.5C1118.27,-64.5 1184.49,-64.5 1234.86,-64.5"/>
<polygon fill="orange" stroke="orange" points="1066.11,-61 1056.11,-64.5 1066.11,-68 1066.11,-61"/>
<text text-anchor="middle" x="1145" y="-67.5" font-family="Helvetica,sans-Serif" font-size="10.00"> &lt; vector::TransferReadOp &gt;</text>
</g>
<!-- Node11 -->
<g id="node11" class="node">
<title>Node11</title>
<g id="a_node11"><a xlink:href="structVectorizePadOpUserPattern.html" target="_top" xlink:title=" ">
<polygon fill="none" stroke="black" points="1234,-0.5 1234,-30.5 1389,-30.5 1389,-0.5 1234,-0.5"/>
<text text-anchor="start" x="1242" y="-18.5" font-family="Helvetica,sans-Serif" font-size="10.00">VectorizePadOpUserPattern</text>
<text text-anchor="middle" x="1311.5" y="-7.5" font-family="Helvetica,sans-Serif" font-size="10.00">&lt; vector::TransferWriteOp &gt;</text>
</a>
</g>
</g>
<!-- Node1&#45;&gt;Node11 -->
<g id="edge11" class="edge">
<title>Node1&#45;&gt;Node11</title>
<path fill="none" stroke="orange" stroke-dasharray="5,2" d="M1066.38,-50.68C1068.95,-50.28 1071.49,-49.89 1074,-49.5 1127.3,-41.3 1187.45,-32.66 1233.76,-26.14"/>
<polygon fill="orange" stroke="orange" points="1065.72,-47.24 1056.39,-52.26 1066.81,-54.16 1065.72,-47.24"/>
<text text-anchor="middle" x="1145" y="-52.5" font-family="Helvetica,sans-Serif" font-size="10.00"> &lt; vector::TransferWriteOp &gt;</text>
</g>
<!-- Node2 -->
<g id="node2" class="node">
<title>Node2</title>
<g id="a_node2"><a xlink:href="structmlir_1_1OpRewritePattern.html" target="_top" xlink:title=" ">
<polygon fill="none" stroke="black" points="742,-49.5 742,-79.5 870,-79.5 870,-49.5 742,-49.5"/>
<text text-anchor="start" x="750" y="-67.5" font-family="Helvetica,sans-Serif" font-size="10.00">mlir::OpRewritePattern</text>
<text text-anchor="middle" x="806" y="-56.5" font-family="Helvetica,sans-Serif" font-size="10.00">&lt; tensor::PadOp &gt;</text>
</a>
</g>
</g>
<!-- Node2&#45;&gt;Node1 -->
<g id="edge1" class="edge">
<title>Node2&#45;&gt;Node1</title>
<path fill="none" stroke="midnightblue" d="M880.31,-64.5C889.08,-64.5 898.04,-64.5 906.82,-64.5"/>
<polygon fill="midnightblue" stroke="midnightblue" points="880.13,-61 870.13,-64.5 880.13,-68 880.13,-61"/>
</g>
<!-- Node3 -->
<g id="node3" class="node">
<title>Node3</title>
<g id="a_node3"><a xlink:href="structmlir_1_1detail_1_1OpOrInterfaceRewritePatternBase.html" target="_top" xlink:title="OpOrInterfaceRewritePatternBase is a wrapper around RewritePattern that allows for matching and rewri...">
<polygon fill="none" stroke="black" points="265,-49.5 265,-79.5 447,-79.5 447,-49.5 265,-49.5"/>
<text text-anchor="start" x="273" y="-67.5" font-family="Helvetica,sans-Serif" font-size="10.00">mlir::detail::OpOrInterface</text>
<text text-anchor="middle" x="356" y="-56.5" font-family="Helvetica,sans-Serif" font-size="10.00">RewritePatternBase&lt; SourceOp &gt;</text>
</a>
</g>
</g>
<!-- Node3&#45;&gt;Node2 -->
<g id="edge2" class="edge">
<title>Node3&#45;&gt;Node2</title>
<path fill="none" stroke="midnightblue" d="M457.38,-70.53C531.18,-74.02 633.87,-76.94 724,-72.5 729.79,-72.21 735.8,-71.82 741.81,-71.35"/>
<polygon fill="midnightblue" stroke="midnightblue" points="457.32,-67.02 447.17,-70.03 456.98,-74.01 457.32,-67.02"/>
</g>
<!-- Node6 -->
<g id="node6" class="node">
<title>Node6</title>
<g id="a_node6"><a xlink:href="structmlir_1_1OpRewritePattern.html" target="_top" xlink:title="OpRewritePattern is a wrapper around RewritePattern that allows for matching and rewriting against an...">
<polygon fill="none" stroke="black" points="484,-27.5 484,-57.5 612,-57.5 612,-27.5 484,-27.5"/>
<text text-anchor="start" x="492" y="-45.5" font-family="Helvetica,sans-Serif" font-size="10.00">mlir::OpRewritePattern</text>
<text text-anchor="middle" x="548" y="-34.5" font-family="Helvetica,sans-Serif" font-size="10.00">&lt; SourceOp &gt;</text>
</a>
</g>
</g>
<!-- Node3&#45;&gt;Node6 -->
<g id="edge6" class="edge">
<title>Node3&#45;&gt;Node6</title>
<path fill="none" stroke="midnightblue" d="M457.41,-52.87C466.38,-51.83 475.29,-50.8 483.81,-49.82"/>
<polygon fill="midnightblue" stroke="midnightblue" points="456.8,-49.42 447.27,-54.05 457.61,-56.37 456.8,-49.42"/>
</g>
<!-- Node4 -->
<g id="node4" class="node">
<title>Node4</title>
<g id="a_node4"><a xlink:href="classmlir_1_1RewritePattern.html" target="_top" xlink:title="RewritePattern is the common base class for all DAG to DAG replacements.">
<polygon fill="none" stroke="black" points="114,-55 114,-74 228,-74 228,-55 114,-55"/>
<text text-anchor="middle" x="171" y="-62" font-family="Helvetica,sans-Serif" font-size="10.00">mlir::RewritePattern</text>
</a>
</g>
</g>
<!-- Node4&#45;&gt;Node3 -->
<g id="edge3" class="edge">
<title>Node4&#45;&gt;Node3</title>
<path fill="none" stroke="midnightblue" d="M238.62,-64.5C247.14,-64.5 255.97,-64.5 264.78,-64.5"/>
<polygon fill="midnightblue" stroke="midnightblue" points="238.4,-61 228.4,-64.5 238.4,-68 238.4,-61"/>
</g>
<!-- Node5 -->
<g id="node5" class="node">
<title>Node5</title>
<g id="a_node5"><a xlink:href="classmlir_1_1Pattern.html" target="_top" xlink:title="This class contains all of the data related to a pattern, but does not contain any methods or logic f...">
<polygon fill="none" stroke="black" points="0,-55 0,-74 77,-74 77,-55 0,-55"/>
<text text-anchor="middle" x="38.5" y="-62" font-family="Helvetica,sans-Serif" font-size="10.00">mlir::Pattern</text>
</a>
</g>
</g>
<!-- Node5&#45;&gt;Node4 -->
<g id="edge4" class="edge">
<title>Node5&#45;&gt;Node4</title>
<path fill="none" stroke="midnightblue" d="M87.47,-64.5C96.06,-64.5 105.09,-64.5 113.89,-64.5"/>
<polygon fill="midnightblue" stroke="midnightblue" points="87.25,-61 77.25,-64.5 87.25,-68 87.25,-61"/>
</g>
<!-- Node6&#45;&gt;Node2 -->
<g id="edge5" class="edge">
<title>Node6&#45;&gt;Node2</title>
<path fill="none" stroke="orange" stroke-dasharray="5,2" d="M622.67,-48.83C660.26,-52.06 705.53,-55.95 741.56,-59.05"/>
<polygon fill="orange" stroke="orange" points="622.54,-45.31 612.28,-47.94 621.94,-52.28 622.54,-45.31"/>
<text text-anchor="middle" x="677" y="-60.5" font-family="Helvetica,sans-Serif" font-size="10.00"> &lt; tensor::PadOp &gt;</text>
</g>
<!-- Node8 -->
<g id="node8" class="node">
<title>Node8</title>
<g id="a_node8"><a xlink:href="structPadOpVectorizationWithInsertSlicePattern.html" target="_top" xlink:title="Rewrite use of tensor::PadOp result in InsertSliceOp.">
<polygon fill="none" stroke="black" points="1432,-98.5 1432,-128.5 1593,-128.5 1593,-98.5 1432,-98.5"/>
<text text-anchor="start" x="1440" y="-116.5" font-family="Helvetica,sans-Serif" font-size="10.00">PadOpVectorizationWithInsert</text>
<text text-anchor="middle" x="1512.5" y="-105.5" font-family="Helvetica,sans-Serif" font-size="10.00">SlicePattern</text>
</a>
</g>
</g>
<!-- Node7&#45;&gt;Node8 -->
<g id="edge8" class="edge">
<title>Node7&#45;&gt;Node8</title>
<path fill="none" stroke="midnightblue" d="M1396.31,-113.5C1408.1,-113.5 1420.2,-113.5 1431.91,-113.5"/>
<polygon fill="midnightblue" stroke="midnightblue" points="1396.03,-110 1386.03,-113.5 1396.03,-117 1396.03,-110"/>
</g>
<!-- Node10 -->
<g id="node10" class="node">
<title>Node10</title>
<g id="a_node10"><a xlink:href="structPadOpVectorizationWithTransferReadPattern.html" target="_top" xlink:title="Rewrite use of tensor::PadOp result in TransferReadOp.">
<polygon fill="none" stroke="black" points="1426,-49.5 1426,-79.5 1599,-79.5 1599,-49.5 1426,-49.5"/>
<text text-anchor="start" x="1434" y="-67.5" font-family="Helvetica,sans-Serif" font-size="10.00">PadOpVectorizationWithTransfer</text>
<text text-anchor="middle" x="1512.5" y="-56.5" font-family="Helvetica,sans-Serif" font-size="10.00">ReadPattern</text>
</a>
</g>
</g>
<!-- Node9&#45;&gt;Node10 -->
<g id="edge10" class="edge">
<title>Node9&#45;&gt;Node10</title>
<path fill="none" stroke="midnightblue" d="M1398.22,-64.5C1407.33,-64.5 1416.6,-64.5 1425.71,-64.5"/>
<polygon fill="midnightblue" stroke="midnightblue" points="1398.02,-61 1388.02,-64.5 1398.02,-68 1398.02,-61"/>
</g>
<!-- Node12 -->
<g id="node12" class="node">
<title>Node12</title>
<g id="a_node12"><a xlink:href="structPadOpVectorizationWithTransferWritePattern.html" target="_top" xlink:title="Rewrite use of tensor::PadOp result in TransferWriteOp.">
<polygon fill="none" stroke="black" points="1426,-0.5 1426,-30.5 1599,-30.5 1599,-0.5 1426,-0.5"/>
<text text-anchor="start" x="1434" y="-18.5" font-family="Helvetica,sans-Serif" font-size="10.00">PadOpVectorizationWithTransfer</text>
<text text-anchor="middle" x="1512.5" y="-7.5" font-family="Helvetica,sans-Serif" font-size="10.00">WritePattern</text>
</a>
</g>
</g>
<!-- Node11&#45;&gt;Node12 -->
<g id="edge12" class="edge">
<title>Node11&#45;&gt;Node12</title>
<path fill="none" stroke="midnightblue" d="M1399.41,-15.5C1408.22,-15.5 1417.15,-15.5 1425.94,-15.5"/>
<polygon fill="midnightblue" stroke="midnightblue" points="1399.15,-12 1389.15,-15.5 1399.15,-19 1399.15,-12"/>
</g>
</g>
</svg>
