<?xml version="1.0" encoding="UTF-8" standalone="no"?>
<!DOCTYPE svg PUBLIC "-//W3C//DTD SVG 1.1//EN"
 "http://www.w3.org/Graphics/SVG/1.1/DTD/svg11.dtd">
<!-- Generated by graphviz version 2.43.0 (0)
 -->
<!-- Title: mlir::linalg::FoldTensorCastUnPackOp Pages: 1 -->
<svg width="1024pt" height="61pt"
 viewBox="0.00 0.00 1024.00 61.00" xmlns="http://www.w3.org/2000/svg" xmlns:xlink="http://www.w3.org/1999/xlink">
<g id="graph0" class="graph" transform="scale(1 1) rotate(0) translate(4 57)">
<title>mlir::linalg::FoldTensorCastUnPackOp</title>
<!-- Node1 -->
<g id="node1" class="node">
<title>Node1</title>
<g id="a_node1"><a xlink:title="Folds a tensor.cast op into a consuming UnPackOp op if the tensor.cast has source that is more static...">
<polygon fill="#bfbfbf" stroke="black" points="889,-22.5 889,-52.5 1016,-52.5 1016,-22.5 889,-22.5"/>
<text text-anchor="start" x="897" y="-40.5" font-family="Helvetica,sans-Serif" font-size="10.00">mlir::linalg::FoldTensor</text>
<text text-anchor="middle" x="952.5" y="-29.5" font-family="Helvetica,sans-Serif" font-size="10.00">CastUnPackOp</text>
</a>
</g>
</g>
<!-- Node2 -->
<g id="node2" class="node">
<title>Node2</title>
<g id="a_node2"><a xlink:href="structmlir_1_1OpRewritePattern.html" target="_top" xlink:title=" ">
<polygon fill="none" stroke="black" points="724,-22.5 724,-52.5 852,-52.5 852,-22.5 724,-22.5"/>
<text text-anchor="start" x="732" y="-40.5" font-family="Helvetica,sans-Serif" font-size="10.00">mlir::OpRewritePattern</text>
<text text-anchor="middle" x="788" y="-29.5" font-family="Helvetica,sans-Serif" font-size="10.00">&lt; UnPackOp &gt;</text>
</a>
</g>
</g>
<!-- Node2&#45;&gt;Node1 -->
<g id="edge1" class="edge">
<title>Node2&#45;&gt;Node1</title>
<path fill="none" stroke="midnightblue" d="M862.55,-37.5C871.36,-37.5 880.28,-37.5 888.91,-37.5"/>
<polygon fill="midnightblue" stroke="midnightblue" points="862.29,-34 852.29,-37.5 862.29,-41 862.29,-34"/>
</g>
<!-- Node3 -->
<g id="node3" class="node">
<title>Node3</title>
<g id="a_node3"><a xlink:href="structmlir_1_1detail_1_1OpOrInterfaceRewritePatternBase.html" target="_top" xlink:title="OpOrInterfaceRewritePatternBase is a wrapper around RewritePattern that allows for matching and rewri...">
<polygon fill="none" stroke="black" points="265,-22.5 265,-52.5 447,-52.5 447,-22.5 265,-22.5"/>
<text text-anchor="start" x="273" y="-40.5" font-family="Helvetica,sans-Serif" font-size="10.00">mlir::detail::OpOrInterface</text>
<text text-anchor="middle" x="356" y="-29.5" font-family="Helvetica,sans-Serif" font-size="10.00">RewritePatternBase&lt; SourceOp &gt;</text>
</a>
</g>
</g>
<!-- Node3&#45;&gt;Node2 -->
<g id="edge2" class="edge">
<title>Node3&#45;&gt;Node2</title>
<path fill="none" stroke="midnightblue" d="M457.18,-43.62C526.97,-46.95 622.2,-49.63 706,-45.5 711.79,-45.21 717.8,-44.82 723.81,-44.35"/>
<polygon fill="midnightblue" stroke="midnightblue" points="457.23,-40.12 447.07,-43.13 456.89,-47.11 457.23,-40.12"/>
</g>
<!-- Node6 -->
<g id="node6" class="node">
<title>Node6</title>
<g id="a_node6"><a xlink:href="structmlir_1_1OpRewritePattern.html" target="_top" xlink:title="OpRewritePattern is a wrapper around RewritePattern that allows for matching and rewriting against an...">
<polygon fill="none" stroke="black" points="484,-0.5 484,-30.5 612,-30.5 612,-0.5 484,-0.5"/>
<text text-anchor="start" x="492" y="-18.5" font-family="Helvetica,sans-Serif" font-size="10.00">mlir::OpRewritePattern</text>
<text text-anchor="middle" x="548" y="-7.5" font-family="Helvetica,sans-Serif" font-size="10.00">&lt; SourceOp &gt;</text>
</a>
</g>
</g>
<!-- Node3&#45;&gt;Node6 -->
<g id="edge6" class="edge">
<title>Node3&#45;&gt;Node6</title>
<path fill="none" stroke="midnightblue" d="M457.41,-25.87C466.38,-24.83 475.29,-23.8 483.81,-22.82"/>
<polygon fill="midnightblue" stroke="midnightblue" points="456.8,-22.42 447.27,-27.05 457.61,-29.37 456.8,-22.42"/>
</g>
<!-- Node4 -->
<g id="node4" class="node">
<title>Node4</title>
<g id="a_node4"><a xlink:href="classmlir_1_1RewritePattern.html" target="_top" xlink:title="RewritePattern is the common base class for all DAG to DAG replacements.">
<polygon fill="none" stroke="black" points="114,-28 114,-47 228,-47 228,-28 114,-28"/>
<text text-anchor="middle" x="171" y="-35" font-family="Helvetica,sans-Serif" font-size="10.00">mlir::RewritePattern</text>
</a>
</g>
</g>
<!-- Node4&#45;&gt;Node3 -->
<g id="edge3" class="edge">
<title>Node4&#45;&gt;Node3</title>
<path fill="none" stroke="midnightblue" d="M238.62,-37.5C247.14,-37.5 255.97,-37.5 264.78,-37.5"/>
<polygon fill="midnightblue" stroke="midnightblue" points="238.4,-34 228.4,-37.5 238.4,-41 238.4,-34"/>
</g>
<!-- Node5 -->
<g id="node5" class="node">
<title>Node5</title>
<g id="a_node5"><a xlink:href="classmlir_1_1Pattern.html" target="_top" xlink:title="This class contains all of the data related to a pattern, but does not contain any methods or logic f...">
<polygon fill="none" stroke="black" points="0,-28 0,-47 77,-47 77,-28 0,-28"/>
<text text-anchor="middle" x="38.5" y="-35" font-family="Helvetica,sans-Serif" font-size="10.00">mlir::Pattern</text>
</a>
</g>
</g>
<!-- Node5&#45;&gt;Node4 -->
<g id="edge4" class="edge">
<title>Node5&#45;&gt;Node4</title>
<path fill="none" stroke="midnightblue" d="M87.47,-37.5C96.06,-37.5 105.09,-37.5 113.89,-37.5"/>
<polygon fill="midnightblue" stroke="midnightblue" points="87.25,-34 77.25,-37.5 87.25,-41 87.25,-34"/>
</g>
<!-- Node6&#45;&gt;Node2 -->
<g id="edge5" class="edge">
<title>Node6&#45;&gt;Node2</title>
<path fill="none" stroke="orange" stroke-dasharray="5,2" d="M622.5,-22.29C654.98,-25.3 692.79,-28.79 723.96,-31.67"/>
<polygon fill="orange" stroke="orange" points="622.43,-18.77 612.15,-21.34 621.79,-25.74 622.43,-18.77"/>
<text text-anchor="middle" x="668" y="-33.5" font-family="Helvetica,sans-Serif" font-size="10.00"> &lt; UnPackOp &gt;</text>
</g>
</g>
</svg>
