<?xml version="1.0" encoding="UTF-8" standalone="no"?>
<!DOCTYPE svg PUBLIC "-//W3C//DTD SVG 1.1//EN"
 "http://www.w3.org/Graphics/SVG/1.1/DTD/svg11.dtd">
<!-- Generated by graphviz version 2.43.0 (0)
 -->
<!-- Title: mlir::pdl_to_pdl_interp::ForEachPosition Pages: 1 -->
<svg width="888pt" height="121pt"
 viewBox="0.00 0.00 888.00 120.50" xmlns="http://www.w3.org/2000/svg" xmlns:xlink="http://www.w3.org/1999/xlink">
<g id="graph0" class="graph" transform="scale(1 1) rotate(0) translate(4 116.5)">
<title>mlir::pdl_to_pdl_interp::ForEachPosition</title>
<!-- Node1 -->
<g id="Node000001" class="node">
<title>Node1</title>
<g id="a_Node000001"><a xlink:title="A position describing an iterative choice of an operation.">
<polygon fill="#999999" stroke="#666666" points="880,-73.5 754,-73.5 754,-43.5 880,-43.5 880,-73.5"/>
<text text-anchor="start" x="762" y="-61.5" font-family="Helvetica,sans-Serif" font-size="10.00">mlir::pdl_to_pdl_interp</text>
<text text-anchor="middle" x="817" y="-50.5" font-family="Helvetica,sans-Serif" font-size="10.00">::ForEachPosition</text>
</a>
</g>
</g>
<!-- Node2 -->
<g id="Node000002" class="node">
<title>Node2</title>
<g id="a_Node000002"><a xlink:href="classmlir_1_1pdl__to__pdl__interp_1_1PredicateBase.html" target="_top" xlink:title=" ">
<polygon fill="white" stroke="#666666" points="717,-84.5 501,-84.5 501,-32.5 717,-32.5 717,-84.5"/>
<text text-anchor="start" x="509" y="-72.5" font-family="Helvetica,sans-Serif" font-size="10.00">mlir::pdl_to_pdl_interp</text>
<text text-anchor="start" x="509" y="-61.5" font-family="Helvetica,sans-Serif" font-size="10.00">::PredicateBase&lt; ForEachPosition,</text>
<text text-anchor="start" x="509" y="-50.5" font-family="Helvetica,sans-Serif" font-size="10.00"> Position, std::pair&lt; Position</text>
<text text-anchor="middle" x="609" y="-39.5" font-family="Helvetica,sans-Serif" font-size="10.00"> *, unsigned &gt;, Predicates::ForEachPos &gt;</text>
</a>
</g>
</g>
<!-- Node2&#45;&gt;Node1 -->
<g id="edge1_Node000001_Node000002" class="edge">
<title>Node2&#45;&gt;Node1</title>
<g id="a_edge1_Node000001_Node000002"><a xlink:title=" ">
<path fill="none" stroke="#63b8ff" d="M727.45,-58.5C736.47,-58.5 745.34,-58.5 753.77,-58.5"/>
<polygon fill="#63b8ff" stroke="#63b8ff" points="727.22,-55 717.22,-58.5 727.22,-62 727.22,-55"/>
</a>
</g>
</g>
<!-- Node3 -->
<g id="Node000003" class="node">
<title>Node3</title>
<g id="a_Node000003"><a xlink:href="classmlir_1_1pdl__to__pdl__interp_1_1Position.html" target="_top" xlink:title="A position describes a value on the input IR on which a predicate may be applied, such as an operatio...">
<polygon fill="white" stroke="#666666" points="296,-112.5 170,-112.5 170,-82.5 296,-82.5 296,-112.5"/>
<text text-anchor="start" x="178" y="-100.5" font-family="Helvetica,sans-Serif" font-size="10.00">mlir::pdl_to_pdl_interp</text>
<text text-anchor="middle" x="233" y="-89.5" font-family="Helvetica,sans-Serif" font-size="10.00">::Position</text>
</a>
</g>
</g>
<!-- Node3&#45;&gt;Node2 -->
<g id="edge2_Node000002_Node000003" class="edge">
<title>Node3&#45;&gt;Node2</title>
<g id="a_edge2_Node000002_Node000003"><a xlink:title=" ">
<path fill="none" stroke="#63b8ff" d="M306.17,-96.13C356.01,-94.53 423.73,-91.05 483,-83.5 488.82,-82.76 494.77,-81.9 500.77,-80.96"/>
<polygon fill="#63b8ff" stroke="#63b8ff" points="306.02,-92.64 296.13,-96.44 306.23,-99.63 306.02,-92.64"/>
</a>
</g>
</g>
<!-- Node4 -->
<g id="Node000004" class="node">
<title>Node4</title>
<g id="a_Node000004"><a xlink:href="classmlir_1_1StorageUniquer_1_1BaseStorage.html" target="_top" xlink:title="This class acts as the base storage that all storage classes must derived from.">
<polygon fill="white" stroke="#666666" points="118,-112.5 0,-112.5 0,-82.5 118,-82.5 118,-112.5"/>
<text text-anchor="start" x="8" y="-100.5" font-family="Helvetica,sans-Serif" font-size="10.00">mlir::StorageUniquer</text>
<text text-anchor="middle" x="59" y="-89.5" font-family="Helvetica,sans-Serif" font-size="10.00">::BaseStorage</text>
</a>
</g>
</g>
<!-- Node4&#45;&gt;Node3 -->
<g id="edge3_Node000003_Node000004" class="edge">
<title>Node4&#45;&gt;Node3</title>
<g id="a_edge3_Node000003_Node000004"><a xlink:title=" ">
<path fill="none" stroke="#63b8ff" d="M128.49,-97.5C142.1,-97.5 156.32,-97.5 169.71,-97.5"/>
<polygon fill="#63b8ff" stroke="#63b8ff" points="128.23,-94 118.23,-97.5 128.23,-101 128.23,-94"/>
</a>
</g>
</g>
<!-- Node5 -->
<g id="Node000005" class="node">
<title>Node5</title>
<g id="a_Node000005"><a xlink:href="classmlir_1_1pdl__to__pdl__interp_1_1PredicateBase.html" target="_top" xlink:title="Base class for all predicates, used to allow efficient pointer comparison.">
<polygon fill="white" stroke="#666666" points="311,-41 155,-41 155,0 311,0 311,-41"/>
<text text-anchor="start" x="163" y="-29" font-family="Helvetica,sans-Serif" font-size="10.00">mlir::pdl_to_pdl_interp</text>
<text text-anchor="start" x="163" y="-18" font-family="Helvetica,sans-Serif" font-size="10.00">::PredicateBase&lt; ConcreteT,</text>
<text text-anchor="middle" x="233" y="-7" font-family="Helvetica,sans-Serif" font-size="10.00"> BaseT, Key, Kind &gt;</text>
</a>
</g>
</g>
<!-- Node5&#45;&gt;Node2 -->
<g id="edge4_Node000002_Node000005" class="edge">
<title>Node5&#45;&gt;Node2</title>
<g id="a_edge4_Node000002_Node000005"><a xlink:title=" ">
<path fill="none" stroke="orange" stroke-dasharray="5,2" d="M321.3,-14.83C369.27,-13.22 429.69,-13.67 483,-21.5 499.35,-23.9 516.53,-27.94 532.75,-32.49"/>
<polygon fill="orange" stroke="orange" points="321.12,-11.34 311.26,-15.2 321.38,-18.33 321.12,-11.34"/>
</a>
</g>
<text text-anchor="start" x="332" y="-72.5" font-family="Helvetica,sans-Serif" font-size="10.00" fill="grey">&lt; ForEachPosition,</text>
<text text-anchor="start" x="332" y="-57.5" font-family="Helvetica,sans-Serif" font-size="10.00" fill="grey">   Position, std::pair</text>
<text text-anchor="start" x="332" y="-42.5" font-family="Helvetica,sans-Serif" font-size="10.00" fill="grey">  &lt; Position *, unsigned</text>
<text text-anchor="start" x="332" y="-27.5" font-family="Helvetica,sans-Serif" font-size="10.00" fill="grey">   &gt;, Predicates::ForEachPos &gt;</text>
</g>
<!-- Node6 -->
<g id="Node000006" class="node">
<title>Node6</title>
<g id="a_Node000006"><a xlink:title=" ">
<polygon fill="white" stroke="#666666" points="82.5,-30 35.5,-30 35.5,-11 82.5,-11 82.5,-30"/>
<text text-anchor="middle" x="59" y="-18" font-family="Helvetica,sans-Serif" font-size="10.00">BaseT</text>
</a>
</g>
</g>
<!-- Node6&#45;&gt;Node5 -->
<g id="edge5_Node000005_Node000006" class="edge">
<title>Node6&#45;&gt;Node5</title>
<g id="a_edge5_Node000005_Node000006"><a xlink:title=" ">
<path fill="none" stroke="#63b8ff" d="M93.13,-20.5C110.74,-20.5 133.18,-20.5 154.86,-20.5"/>
<polygon fill="#63b8ff" stroke="#63b8ff" points="92.84,-17 82.84,-20.5 92.84,-24 92.84,-17"/>
</a>
</g>
</g>
</g>
</svg>
