<?xml version="1.0" encoding="UTF-8" standalone="no"?>
<!DOCTYPE svg PUBLIC "-//W3C//DTD SVG 1.1//EN"
 "http://www.w3.org/Graphics/SVG/1.1/DTD/svg11.dtd">
<!-- Generated by graphviz version 2.43.0 (0)
 -->
<!-- Title: mlir::detail::ConversionPatternRewriterImpl Pages: 1 -->
<svg width="167pt" height="214pt"
 viewBox="0.00 0.00 167.00 214.00" xmlns="http://www.w3.org/2000/svg" xmlns:xlink="http://www.w3.org/1999/xlink">
<g id="graph0" class="graph" transform="scale(1 1) rotate(0) translate(4 210)">
<title>mlir::detail::ConversionPatternRewriterImpl</title>
<!-- Node1 -->
<g id="Node000001" class="node">
<title>Node1</title>
<g id="a_Node000001"><a xlink:title=" ">
<polygon fill="#999999" stroke="#666666" points="145,-30 14,-30 14,0 145,0 145,-30"/>
<text text-anchor="start" x="22" y="-18" font-family="Helvetica,sans-Serif" font-size="10.00">mlir::detail::Conversion</text>
<text text-anchor="middle" x="79.5" y="-7" font-family="Helvetica,sans-Serif" font-size="10.00">PatternRewriterImpl</text>
</a>
</g>
</g>
<!-- Node2 -->
<g id="Node000002" class="node">
<title>Node2</title>
<g id="a_Node000002"><a xlink:href="structmlir_1_1RewriterBase_1_1Listener.html" target="_top" xlink:title=" ">
<polygon fill="white" stroke="#666666" points="133,-96 26,-96 26,-66 133,-66 133,-96"/>
<text text-anchor="start" x="34" y="-84" font-family="Helvetica,sans-Serif" font-size="10.00">mlir::RewriterBase</text>
<text text-anchor="middle" x="79.5" y="-73" font-family="Helvetica,sans-Serif" font-size="10.00">::Listener</text>
</a>
</g>
</g>
<!-- Node2&#45;&gt;Node1 -->
<g id="edge1_Node000001_Node000002" class="edge">
<title>Node2&#45;&gt;Node1</title>
<g id="a_edge1_Node000001_Node000002"><a xlink:title=" ">
<path fill="none" stroke="#63b8ff" d="M79.5,-55.54C79.5,-46.96 79.5,-37.61 79.5,-30.16"/>
<polygon fill="#63b8ff" stroke="#63b8ff" points="76,-55.8 79.5,-65.8 83,-55.8 76,-55.8"/>
</a>
</g>
</g>
<!-- Node3 -->
<g id="Node000003" class="node">
<title>Node3</title>
<g id="a_Node000003"><a xlink:href="structmlir_1_1OpBuilder_1_1Listener.html" target="_top" xlink:title="This class represents a listener that may be used to hook into various actions within an OpBuilder.">
<polygon fill="white" stroke="#666666" points="147,-151 12,-151 12,-132 147,-132 147,-151"/>
<text text-anchor="middle" x="79.5" y="-139" font-family="Helvetica,sans-Serif" font-size="10.00">mlir::OpBuilder::Listener</text>
</a>
</g>
</g>
<!-- Node3&#45;&gt;Node2 -->
<g id="edge2_Node000002_Node000003" class="edge">
<title>Node3&#45;&gt;Node2</title>
<g id="a_edge2_Node000002_Node000003"><a xlink:title=" ">
<path fill="none" stroke="#63b8ff" d="M79.5,-121.65C79.5,-113.36 79.5,-103.78 79.5,-96.11"/>
<polygon fill="#63b8ff" stroke="#63b8ff" points="76,-121.87 79.5,-131.87 83,-121.87 76,-121.87"/>
</a>
</g>
</g>
<!-- Node4 -->
<g id="Node000004" class="node">
<title>Node4</title>
<g id="a_Node000004"><a xlink:href="structmlir_1_1OpBuilder_1_1ListenerBase.html" target="_top" xlink:title="Base class for listeners.">
<polygon fill="white" stroke="#666666" points="159,-206 0,-206 0,-187 159,-187 159,-206"/>
<text text-anchor="middle" x="79.5" y="-194" font-family="Helvetica,sans-Serif" font-size="10.00">mlir::OpBuilder::ListenerBase</text>
</a>
</g>
</g>
<!-- Node4&#45;&gt;Node3 -->
<g id="edge3_Node000003_Node000004" class="edge">
<title>Node4&#45;&gt;Node3</title>
<g id="a_edge3_Node000003_Node000004"><a xlink:title=" ">
<path fill="none" stroke="#63b8ff" d="M79.5,-176.66C79.5,-167.93 79.5,-157.99 79.5,-151.09"/>
<polygon fill="#63b8ff" stroke="#63b8ff" points="76,-176.75 79.5,-186.75 83,-176.75 76,-176.75"/>
</a>
</g>
</g>
</g>
</svg>
