<?xml version="1.0" encoding="UTF-8" standalone="no"?>
<!DOCTYPE svg PUBLIC "-//W3C//DTD SVG 1.1//EN"
 "http://www.w3.org/Graphics/SVG/1.1/DTD/svg11.dtd">
<!-- Generated by graphviz version 2.43.0 (0)
 -->
<!-- Title: mlir::python::MLIR_BINDINGS_PYTHON_DOMAIN::llvm::PointerType Pages: 1 -->
<svg width="1074pt" height="82pt"
 viewBox="0.00 0.00 1074.00 81.50" xmlns="http://www.w3.org/2000/svg" xmlns:xlink="http://www.w3.org/1999/xlink">
<g id="graph0" class="graph" transform="scale(1 1) rotate(0) translate(4 77.5)">
<title>mlir::python::MLIR_BINDINGS_PYTHON_DOMAIN::llvm::PointerType</title>
<!-- Node1 -->
<g id="Node000001" class="node">
<title>Node1</title>
<g id="a_Node000001"><a xlink:title=" ">
<polygon fill="#999999" stroke="#666666" points="1066,-73.5 903,-73.5 903,-32.5 1066,-32.5 1066,-73.5"/>
<text text-anchor="start" x="911" y="-61.5" font-family="Helvetica,sans-Serif" font-size="10.00">mlir::python::MLIR</text>
<text text-anchor="start" x="911" y="-50.5" font-family="Helvetica,sans-Serif" font-size="10.00">_BINDINGS_PYTHON_DOMAIN</text>
<text text-anchor="middle" x="984.5" y="-39.5" font-family="Helvetica,sans-Serif" font-size="10.00">::llvm::PointerType</text>
</a>
</g>
</g>
<!-- Node2 -->
<g id="Node000002" class="node">
<title>Node2</title>
<g id="a_Node000002"><a xlink:href="classmlir_1_1python_1_1MLIR__BINDINGS__PYTHON__DOMAIN_1_1PyConcreteType.html" target="_top" xlink:title=" ">
<polygon fill="white" stroke="#666666" points="866,-73.5 686,-73.5 686,-32.5 866,-32.5 866,-73.5"/>
<text text-anchor="start" x="694" y="-61.5" font-family="Helvetica,sans-Serif" font-size="10.00">mlir::python::MLIR</text>
<text text-anchor="start" x="694" y="-50.5" font-family="Helvetica,sans-Serif" font-size="10.00">_BINDINGS_PYTHON_DOMAIN</text>
<text text-anchor="middle" x="776" y="-39.5" font-family="Helvetica,sans-Serif" font-size="10.00">::PyConcreteType&lt; PointerType &gt;</text>
</a>
</g>
</g>
<!-- Node2&#45;&gt;Node1 -->
<g id="edge1_Node000001_Node000002" class="edge">
<title>Node2&#45;&gt;Node1</title>
<g id="a_edge1_Node000001_Node000002"><a xlink:title=" ">
<path fill="none" stroke="#63b8ff" d="M876.15,-53C885.1,-53 894.09,-53 902.86,-53"/>
<polygon fill="#63b8ff" stroke="#63b8ff" points="876.07,-49.5 866.07,-53 876.07,-56.5 876.07,-49.5"/>
</a>
</g>
</g>
<!-- Node3 -->
<g id="Node000003" class="node">
<title>Node3</title>
<g id="a_Node000003"><a xlink:href="classmlir_1_1python_1_1MLIR__BINDINGS__PYTHON__DOMAIN_1_1PyType.html" target="_top" xlink:title="Wrapper around the generic MlirType.">
<polygon fill="white" stroke="#666666" points="363,-73.5 200,-73.5 200,-32.5 363,-32.5 363,-73.5"/>
<text text-anchor="start" x="208" y="-61.5" font-family="Helvetica,sans-Serif" font-size="10.00">mlir::python::MLIR</text>
<text text-anchor="start" x="208" y="-50.5" font-family="Helvetica,sans-Serif" font-size="10.00">_BINDINGS_PYTHON_DOMAIN</text>
<text text-anchor="middle" x="281.5" y="-39.5" font-family="Helvetica,sans-Serif" font-size="10.00">::PyType</text>
</a>
</g>
</g>
<!-- Node3&#45;&gt;Node2 -->
<g id="edge2_Node000002_Node000003" class="edge">
<title>Node3&#45;&gt;Node2</title>
<g id="a_edge2_Node000002_Node000003"><a xlink:title=" ">
<path fill="none" stroke="#63b8ff" d="M373.32,-59.67C451.46,-64.44 567.21,-69.17 668,-64 673.78,-63.7 679.73,-63.32 685.73,-62.87"/>
<polygon fill="#63b8ff" stroke="#63b8ff" points="373.22,-56.16 363.02,-59.03 372.78,-63.15 373.22,-56.16"/>
</a>
</g>
</g>
<!-- Node5 -->
<g id="Node000005" class="node">
<title>Node5</title>
<g id="a_Node000005"><a xlink:href="classmlir_1_1python_1_1MLIR__BINDINGS__PYTHON__DOMAIN_1_1PyConcreteType.html" target="_top" xlink:title="CRTP base classes for Python types that subclass Type and should be castable from it (i....">
<polygon fill="white" stroke="#666666" points="564,-52 400,-52 400,0 564,0 564,-52"/>
<text text-anchor="start" x="408" y="-40" font-family="Helvetica,sans-Serif" font-size="10.00">mlir::python::MLIR</text>
<text text-anchor="start" x="408" y="-29" font-family="Helvetica,sans-Serif" font-size="10.00">_BINDINGS_PYTHON_DOMAIN</text>
<text text-anchor="start" x="408" y="-18" font-family="Helvetica,sans-Serif" font-size="10.00">::PyConcreteType&lt; DerivedTy,</text>
<text text-anchor="middle" x="482" y="-7" font-family="Helvetica,sans-Serif" font-size="10.00"> BaseTy &gt;</text>
</a>
</g>
</g>
<!-- Node3&#45;&gt;Node5 -->
<g id="edge5_Node000005_Node000003" class="edge">
<title>Node3&#45;&gt;Node5</title>
<g id="a_edge5_Node000005_Node000003"><a xlink:title=" ">
<path fill="none" stroke="#63b8ff" d="M373.17,-40.67C382.01,-39.46 390.95,-38.25 399.69,-37.06"/>
<polygon fill="#63b8ff" stroke="#63b8ff" points="372.67,-37.2 363.24,-42.02 373.62,-44.14 372.67,-37.2"/>
</a>
</g>
</g>
<!-- Node4 -->
<g id="Node000004" class="node">
<title>Node4</title>
<g id="a_Node000004"><a xlink:href="classmlir_1_1python_1_1MLIR__BINDINGS__PYTHON__DOMAIN_1_1BaseContextObject.html" target="_top" xlink:title="Base class for all objects that directly or indirectly depend on an MlirContext.">
<polygon fill="white" stroke="#666666" points="163,-73.5 0,-73.5 0,-32.5 163,-32.5 163,-73.5"/>
<text text-anchor="start" x="8" y="-61.5" font-family="Helvetica,sans-Serif" font-size="10.00">mlir::python::MLIR</text>
<text text-anchor="start" x="8" y="-50.5" font-family="Helvetica,sans-Serif" font-size="10.00">_BINDINGS_PYTHON_DOMAIN</text>
<text text-anchor="middle" x="81.5" y="-39.5" font-family="Helvetica,sans-Serif" font-size="10.00">::BaseContextObject</text>
</a>
</g>
</g>
<!-- Node4&#45;&gt;Node3 -->
<g id="edge3_Node000003_Node000004" class="edge">
<title>Node4&#45;&gt;Node3</title>
<g id="a_edge3_Node000003_Node000004"><a xlink:title=" ">
<path fill="none" stroke="#63b8ff" d="M173.32,-53C182.12,-53 191.02,-53 199.72,-53"/>
<polygon fill="#63b8ff" stroke="#63b8ff" points="173.03,-49.5 163.03,-53 173.03,-56.5 173.03,-49.5"/>
</a>
</g>
</g>
<!-- Node5&#45;&gt;Node2 -->
<g id="edge4_Node000002_Node000005" class="edge">
<title>Node5&#45;&gt;Node2</title>
<g id="a_edge4_Node000002_Node000005"><a xlink:title=" ">
<path fill="none" stroke="orange" stroke-dasharray="5,2" d="M574.69,-34.48C610.18,-37.76 650.66,-41.5 685.9,-44.76"/>
<polygon fill="orange" stroke="orange" points="574.62,-30.96 564.34,-33.52 573.97,-37.93 574.62,-30.96"/>
</a>
</g>
<text text-anchor="start" x="585" y="-48.5" font-family="Helvetica,sans-Serif" font-size="10.00" fill="grey">&lt; PointerType &gt;</text>
</g>
</g>
</svg>
