<?xml version="1.0" encoding="UTF-8" standalone="no"?>
<!DOCTYPE svg PUBLIC "-//W3C//DTD SVG 1.1//EN"
 "http://www.w3.org/Graphics/SVG/1.1/DTD/svg11.dtd">
<!-- Generated by graphviz version 2.43.0 (0)
 -->
<!-- Title: llvm::DenseMapInfo&lt; mlir::Attribute &gt; Pages: 1 -->
<svg width="317pt" height="132pt"
 viewBox="0.00 0.00 317.00 132.00" xmlns="http://www.w3.org/2000/svg" xmlns:xlink="http://www.w3.org/1999/xlink">
<g id="graph0" class="graph" transform="scale(1 1) rotate(0) translate(4 128)">
<title>llvm::DenseMapInfo&lt; mlir::Attribute &gt;</title>
<!-- Node1 -->
<g id="node1" class="node">
<title>Node1</title>
<g id="a_node1"><a xlink:title=" ">
<polygon fill="#bfbfbf" stroke="black" points="0,-35.5 0,-65.5 115,-65.5 115,-35.5 0,-35.5"/>
<text text-anchor="start" x="8" y="-53.5" font-family="Helvetica,sans-Serif" font-size="10.00">llvm::DenseMapInfo</text>
<text text-anchor="middle" x="57.5" y="-42.5" font-family="Helvetica,sans-Serif" font-size="10.00">&lt; mlir::Attribute &gt;</text>
</a>
</g>
</g>
<!-- Node2 -->
<g id="node2" class="node">
<title>Node2</title>
<g id="a_node2"><a xlink:href="structllvm_1_1DenseMapInfo_3_01T_00_01std_1_1enable__if__t_3_01std_1_1is__base__of_3_01mlir_1_1Ac3a5802d23f0502d4df01dfb007d44c9.html" target="_top" xlink:title=" ">
<polygon fill="none" stroke="black" points="151,-49.5 151,-123.5 309,-123.5 309,-49.5 151,-49.5"/>
<text text-anchor="start" x="159" y="-111.5" font-family="Helvetica,sans-Serif" font-size="10.00">llvm::DenseMapInfo</text>
<text text-anchor="start" x="159" y="-100.5" font-family="Helvetica,sans-Serif" font-size="10.00">&lt; T, std::enable_if</text>
<text text-anchor="start" x="159" y="-89.5" font-family="Helvetica,sans-Serif" font-size="10.00">_t&lt; std::is_base_of&lt;</text>
<text text-anchor="start" x="159" y="-78.5" font-family="Helvetica,sans-Serif" font-size="10.00"> mlir::Attribute, T &gt;</text>
<text text-anchor="start" x="159" y="-67.5" font-family="Helvetica,sans-Serif" font-size="10.00">::value &amp;&amp;!mlir::detail</text>
<text text-anchor="middle" x="230" y="-56.5" font-family="Helvetica,sans-Serif" font-size="10.00">::IsInterface&lt; T &gt;::value &gt; &gt;</text>
</a>
</g>
</g>
<!-- Node1&#45;&gt;Node2 -->
<g id="edge1" class="edge">
<title>Node1&#45;&gt;Node2</title>
<path fill="none" stroke="midnightblue" d="M125.08,-64.56C133.55,-66.35 142.29,-68.19 150.92,-70.01"/>
<polygon fill="midnightblue" stroke="midnightblue" points="125.78,-61.13 115.27,-62.49 124.34,-67.98 125.78,-61.13"/>
</g>
<!-- Node3 -->
<g id="node3" class="node">
<title>Node3</title>
<g id="a_node3"><a xlink:href="structllvm_1_1DenseMapInfo_3_01mlir_1_1StringAttr_01_4.html" target="_top" xlink:title=" ">
<polygon fill="none" stroke="black" points="172.5,-0.5 172.5,-30.5 287.5,-30.5 287.5,-0.5 172.5,-0.5"/>
<text text-anchor="start" x="180.5" y="-18.5" font-family="Helvetica,sans-Serif" font-size="10.00">llvm::DenseMapInfo</text>
<text text-anchor="middle" x="230" y="-7.5" font-family="Helvetica,sans-Serif" font-size="10.00">&lt; mlir::StringAttr &gt;</text>
</a>
</g>
</g>
<!-- Node1&#45;&gt;Node3 -->
<g id="edge2" class="edge">
<title>Node1&#45;&gt;Node3</title>
<path fill="none" stroke="midnightblue" d="M125.37,-36.77C140.95,-33.58 157.39,-30.2 172.47,-27.1"/>
<polygon fill="midnightblue" stroke="midnightblue" points="124.37,-33.41 115.27,-38.85 125.77,-40.26 124.37,-33.41"/>
</g>
</g>
</svg>
