<?xml version="1.0" encoding="UTF-8" standalone="no"?>
<!DOCTYPE svg PUBLIC "-//W3C//DTD SVG 1.1//EN"
 "http://www.w3.org/Graphics/SVG/1.1/DTD/svg11.dtd">
<!-- Generated by graphviz version 2.43.0 (0)
 -->
<!-- Title: mlir::Pass::ListOption&lt; DataType, OptionParser &gt; Pages: 1 -->
<svg width="870pt" height="182pt"
 viewBox="0.00 0.00 870.00 182.00" xmlns="http://www.w3.org/2000/svg" xmlns:xlink="http://www.w3.org/1999/xlink">
<g id="graph0" class="graph" transform="scale(1 1) rotate(0) translate(4 178)">
<title>mlir::Pass::ListOption&lt; DataType, OptionParser &gt;</title>
<!-- Node1 -->
<g id="Node000001" class="node">
<title>Node1</title>
<g id="a_Node000001"><a xlink:title="This class represents a specific pass option that contains a list of values of the provided data type...">
<polygon fill="#999999" stroke="#666666" points="550,-102 397,-102 397,-72 550,-72 550,-102"/>
<text text-anchor="start" x="405" y="-90" font-family="Helvetica,sans-Serif" font-size="10.00">mlir::Pass::ListOption</text>
<text text-anchor="middle" x="473.5" y="-79" font-family="Helvetica,sans-Serif" font-size="10.00">&lt; DataType, OptionParser &gt;</text>
</a>
</g>
</g>
<!-- Node5 -->
<g id="Node000005" class="node">
<title>Node5</title>
<g id="a_Node000005"><a xlink:href="structmlir_1_1Pass_1_1ListOption.html" target="_top" xlink:title=" ">
<polygon fill="white" stroke="#666666" points="850,-174 731,-174 731,-144 850,-144 850,-174"/>
<text text-anchor="start" x="739" y="-162" font-family="Helvetica,sans-Serif" font-size="10.00">mlir::Pass::ListOption</text>
<text text-anchor="middle" x="790.5" y="-151" font-family="Helvetica,sans-Serif" font-size="10.00">&lt; unsigned &gt;</text>
</a>
</g>
</g>
<!-- Node1&#45;&gt;Node5 -->
<g id="edge4_Node000001_Node000005" class="edge">
<title>Node1&#45;&gt;Node5</title>
<g id="a_edge4_Node000001_Node000005"><a xlink:title=" ">
<path fill="none" stroke="orange" stroke-dasharray="5,2" d="M517.1,-106.15C532.84,-112.61 550.99,-119.35 568,-124 622.27,-138.83 685.84,-148.07 730.93,-153.3"/>
<polygon fill="orange" stroke="orange" points="518.22,-102.82 507.65,-102.18 515.52,-109.28 518.22,-102.82"/>
</a>
</g>
<text text-anchor="start" x="601.5" y="-154.5" font-family="Helvetica,sans-Serif" font-size="10.00" fill="grey">&lt; unsigned &gt;</text>
</g>
<!-- Node6 -->
<g id="Node000006" class="node">
<title>Node6</title>
<g id="a_Node000006"><a xlink:href="structmlir_1_1Pass_1_1ListOption.html" target="_top" xlink:title=" ">
<polygon fill="white" stroke="#666666" points="850,-126 731,-126 731,-96 850,-96 850,-126"/>
<text text-anchor="start" x="739" y="-114" font-family="Helvetica,sans-Serif" font-size="10.00">mlir::Pass::ListOption</text>
<text text-anchor="middle" x="790.5" y="-103" font-family="Helvetica,sans-Serif" font-size="10.00">&lt; int64_t &gt;</text>
</a>
</g>
</g>
<!-- Node1&#45;&gt;Node6 -->
<g id="edge5_Node000001_Node000006" class="edge">
<title>Node1&#45;&gt;Node6</title>
<g id="a_edge5_Node000001_Node000006"><a xlink:title=" ">
<path fill="none" stroke="orange" stroke-dasharray="5,2" d="M560.62,-93.56C614.67,-97.68 682.95,-102.88 730.81,-106.53"/>
<polygon fill="orange" stroke="orange" points="560.59,-90.05 550.35,-92.78 560.06,-97.03 560.59,-90.05"/>
</a>
</g>
<text text-anchor="start" x="606.5" y="-108.5" font-family="Helvetica,sans-Serif" font-size="10.00" fill="grey">&lt; int64_t &gt;</text>
</g>
<!-- Node7 -->
<g id="Node000007" class="node">
<title>Node7</title>
<g id="a_Node000007"><a xlink:href="structmlir_1_1Pass_1_1ListOption.html" target="_top" xlink:title=" ">
<polygon fill="white" stroke="#666666" points="850,-78 731,-78 731,-48 850,-48 850,-78"/>
<text text-anchor="start" x="739" y="-66" font-family="Helvetica,sans-Serif" font-size="10.00">mlir::Pass::ListOption</text>
<text text-anchor="middle" x="790.5" y="-55" font-family="Helvetica,sans-Serif" font-size="10.00">&lt; std::string &gt;</text>
</a>
</g>
</g>
<!-- Node1&#45;&gt;Node7 -->
<g id="edge6_Node000001_Node000007" class="edge">
<title>Node1&#45;&gt;Node7</title>
<g id="a_edge6_Node000001_Node000007"><a xlink:title=" ">
<path fill="none" stroke="orange" stroke-dasharray="5,2" d="M560.29,-73.8C562.89,-73.51 565.46,-73.25 568,-73 622.98,-67.66 685.92,-65.16 730.62,-64"/>
<polygon fill="orange" stroke="orange" points="559.72,-70.34 550.2,-74.99 560.54,-77.3 559.72,-70.34"/>
</a>
</g>
<text text-anchor="start" x="598.5" y="-78.5" font-family="Helvetica,sans-Serif" font-size="10.00" fill="grey">&lt; std::string &gt;</text>
</g>
<!-- Node8 -->
<g id="Node000008" class="node">
<title>Node8</title>
<g id="a_Node000008"><a xlink:href="structmlir_1_1Pass_1_1ListOption.html" target="_top" xlink:title=" ">
<polygon fill="white" stroke="#666666" points="862,-30 719,-30 719,0 862,0 862,-30"/>
<text text-anchor="start" x="727" y="-18" font-family="Helvetica,sans-Serif" font-size="10.00">mlir::Pass::ListOption</text>
<text text-anchor="middle" x="790.5" y="-7" font-family="Helvetica,sans-Serif" font-size="10.00">&lt; mlir::OpPassManager &gt;</text>
</a>
</g>
</g>
<!-- Node1&#45;&gt;Node8 -->
<g id="edge7_Node000001_Node000008" class="edge">
<title>Node1&#45;&gt;Node8</title>
<g id="a_edge7_Node000001_Node000008"><a xlink:title=" ">
<path fill="none" stroke="orange" stroke-dasharray="5,2" d="M509.68,-67.22C526.79,-58.46 547.94,-48.83 568,-43 617.13,-28.72 674.49,-21.72 718.52,-18.3"/>
<polygon fill="orange" stroke="orange" points="507.86,-64.23 500.63,-71.98 511.11,-70.43 507.86,-64.23"/>
</a>
</g>
<text text-anchor="start" x="571.5" y="-48.5" font-family="Helvetica,sans-Serif" font-size="10.00" fill="grey">&lt; mlir::OpPassManager &gt;</text>
</g>
<!-- Node2 -->
<g id="Node000002" class="node">
<title>Node2</title>
<g id="a_Node000002"><a xlink:href="classmlir_1_1detail_1_1PassOptions_1_1ListOption.html" target="_top" xlink:title="This class represents a specific pass option that contains a list of values of the provided data type...">
<polygon fill="white" stroke="#666666" points="360,-107.5 225,-107.5 225,-66.5 360,-66.5 360,-107.5"/>
<text text-anchor="start" x="233" y="-95.5" font-family="Helvetica,sans-Serif" font-size="10.00">mlir::detail::PassOptions</text>
<text text-anchor="start" x="233" y="-84.5" font-family="Helvetica,sans-Serif" font-size="10.00">::ListOption&lt; DataType,</text>
<text text-anchor="middle" x="292.5" y="-73.5" font-family="Helvetica,sans-Serif" font-size="10.00"> OptionParser &gt;</text>
</a>
</g>
</g>
<!-- Node2&#45;&gt;Node1 -->
<g id="edge1_Node000001_Node000002" class="edge">
<title>Node2&#45;&gt;Node1</title>
<g id="a_edge1_Node000001_Node000002"><a xlink:title=" ">
<path fill="none" stroke="#63b8ff" d="M370.33,-87C379.09,-87 388.01,-87 396.75,-87"/>
<polygon fill="#63b8ff" stroke="#63b8ff" points="370.15,-83.5 360.15,-87 370.15,-90.5 370.15,-83.5"/>
</a>
</g>
</g>
<!-- Node3 -->
<g id="Node000003" class="node">
<title>Node3</title>
<g id="a_Node000003"><a xlink:title=" ">
<polygon fill="white" stroke="#666666" points="188,-126 0,-126 0,-96 188,-96 188,-126"/>
<text text-anchor="start" x="8" y="-114" font-family="Helvetica,sans-Serif" font-size="10.00">llvm::cl::list&lt; DataType,</text>
<text text-anchor="middle" x="94" y="-103" font-family="Helvetica,sans-Serif" font-size="10.00"> bool, OptionParser&lt; DataType &gt; &gt;</text>
</a>
</g>
</g>
<!-- Node3&#45;&gt;Node2 -->
<g id="edge2_Node000002_Node000003" class="edge">
<title>Node3&#45;&gt;Node2</title>
<g id="a_edge2_Node000002_Node000003"><a xlink:title=" ">
<path fill="none" stroke="#63b8ff" d="M198.25,-98.39C207.26,-97.29 216.21,-96.2 224.81,-95.15"/>
<polygon fill="#63b8ff" stroke="#63b8ff" points="197.57,-94.95 188.07,-99.63 198.42,-101.89 197.57,-94.95"/>
</a>
</g>
</g>
<!-- Node4 -->
<g id="Node000004" class="node">
<title>Node4</title>
<g id="a_Node000004"><a xlink:title=" ">
<polygon fill="white" stroke="#666666" points="161.5,-78 26.5,-78 26.5,-48 161.5,-48 161.5,-78"/>
<text text-anchor="start" x="34.5" y="-66" font-family="Helvetica,sans-Serif" font-size="10.00">mlir::detail::PassOptions</text>
<text text-anchor="middle" x="94" y="-55" font-family="Helvetica,sans-Serif" font-size="10.00">::OptionBase</text>
</a>
</g>
</g>
<!-- Node4&#45;&gt;Node2 -->
<g id="edge3_Node000002_Node000004" class="edge">
<title>Node4&#45;&gt;Node2</title>
<g id="a_edge3_Node000002_Node000004"><a xlink:title=" ">
<path fill="none" stroke="#63b8ff" d="M171.7,-72.37C189.2,-74.51 207.66,-76.76 224.71,-78.84"/>
<polygon fill="#63b8ff" stroke="#63b8ff" points="171.88,-68.86 161.53,-71.13 171.03,-75.81 171.88,-68.86"/>
</a>
</g>
</g>
</g>
</svg>
