<?xml version="1.0" encoding="UTF-8" standalone="no"?>
<!DOCTYPE svg PUBLIC "-//W3C//DTD SVG 1.1//EN"
 "http://www.w3.org/Graphics/SVG/1.1/DTD/svg11.dtd">
<!-- Generated by graphviz version 2.43.0 (0)
 -->
<!-- Title: mlir::detail::InlineOpResult Pages: 1 -->
<svg width="166pt" height="289pt"
 viewBox="0.00 0.00 165.50 289.00" xmlns="http://www.w3.org/2000/svg" xmlns:xlink="http://www.w3.org/1999/xlink">
<g id="graph0" class="graph" transform="scale(1 1) rotate(0) translate(4 285)">
<title>mlir::detail::InlineOpResult</title>
<!-- Node1 -->
<g id="Node000001" class="node">
<title>Node1</title>
<g id="a_Node000001"><a xlink:title="This class provides the implementation for an operation result whose index can be represented &quot;inline...">
<polygon fill="#999999" stroke="#666666" points="147,-19 0,-19 0,0 147,0 147,-19"/>
<text text-anchor="middle" x="73.5" y="-7" font-family="Helvetica,sans-Serif" font-size="10.00">mlir::detail::InlineOpResult</text>
</a>
</g>
</g>
<!-- Node2 -->
<g id="Node000002" class="node">
<title>Node2</title>
<g id="a_Node000002"><a xlink:href="classmlir_1_1detail_1_1OpResultImpl.html" target="_top" xlink:title="This class provides the implementation for an operation result.">
<polygon fill="white" stroke="#666666" points="144.5,-75 2.5,-75 2.5,-56 144.5,-56 144.5,-75"/>
<text text-anchor="middle" x="73.5" y="-63" font-family="Helvetica,sans-Serif" font-size="10.00">mlir::detail::OpResultImpl</text>
</a>
</g>
</g>
<!-- Node2&#45;&gt;Node1 -->
<g id="edge1_Node000001_Node000002" class="edge">
<title>Node2&#45;&gt;Node1</title>
<g id="a_edge1_Node000001_Node000002"><a xlink:title=" ">
<path fill="none" stroke="#63b8ff" d="M73.5,-45.3C73.5,-36.41 73.5,-26.28 73.5,-19.25"/>
<polygon fill="#63b8ff" stroke="#63b8ff" points="70,-45.58 73.5,-55.58 77,-45.58 70,-45.58"/>
</a>
</g>
</g>
<!-- Node3 -->
<g id="Node000003" class="node">
<title>Node3</title>
<g id="a_Node000003"><a xlink:href="classmlir_1_1detail_1_1ValueImpl.html" target="_top" xlink:title="The base class for all derived Value classes.">
<polygon fill="white" stroke="#666666" points="136,-131 11,-131 11,-112 136,-112 136,-131"/>
<text text-anchor="middle" x="73.5" y="-119" font-family="Helvetica,sans-Serif" font-size="10.00">mlir::detail::ValueImpl</text>
</a>
</g>
</g>
<!-- Node3&#45;&gt;Node2 -->
<g id="edge2_Node000002_Node000003" class="edge">
<title>Node3&#45;&gt;Node2</title>
<g id="a_edge2_Node000002_Node000003"><a xlink:title=" ">
<path fill="none" stroke="#63b8ff" d="M73.5,-101.3C73.5,-92.41 73.5,-82.28 73.5,-75.25"/>
<polygon fill="#63b8ff" stroke="#63b8ff" points="70,-101.58 73.5,-111.58 77,-101.58 70,-101.58"/>
</a>
</g>
</g>
<!-- Node4 -->
<g id="Node000004" class="node">
<title>Node4</title>
<g id="a_Node000004"><a xlink:href="classmlir_1_1IRObjectWithUseList.html" target="_top" xlink:title=" ">
<polygon fill="white" stroke="#666666" points="144.5,-198 2.5,-198 2.5,-168 144.5,-168 144.5,-198"/>
<text text-anchor="start" x="10.5" y="-186" font-family="Helvetica,sans-Serif" font-size="10.00">mlir::IRObjectWithUseList</text>
<text text-anchor="middle" x="73.5" y="-175" font-family="Helvetica,sans-Serif" font-size="10.00">&lt; OpOperand &gt;</text>
</a>
</g>
</g>
<!-- Node4&#45;&gt;Node3 -->
<g id="edge3_Node000003_Node000004" class="edge">
<title>Node4&#45;&gt;Node3</title>
<g id="a_edge3_Node000003_Node000004"><a xlink:title=" ">
<path fill="none" stroke="#63b8ff" d="M73.5,-157.79C73.5,-148.36 73.5,-138.15 73.5,-131.16"/>
<polygon fill="#63b8ff" stroke="#63b8ff" points="70,-157.9 73.5,-167.9 77,-157.9 70,-157.9"/>
</a>
</g>
</g>
<!-- Node5 -->
<g id="Node000005" class="node">
<title>Node5</title>
<g id="a_Node000005"><a xlink:href="classmlir_1_1IRObjectWithUseList.html" target="_top" xlink:title="This class represents a single IR object that contains a use list.">
<polygon fill="white" stroke="#666666" points="144.5,-281 2.5,-281 2.5,-251 144.5,-251 144.5,-281"/>
<text text-anchor="start" x="10.5" y="-269" font-family="Helvetica,sans-Serif" font-size="10.00">mlir::IRObjectWithUseList</text>
<text text-anchor="middle" x="73.5" y="-258" font-family="Helvetica,sans-Serif" font-size="10.00">&lt; OperandType &gt;</text>
</a>
</g>
</g>
<!-- Node5&#45;&gt;Node4 -->
<g id="edge4_Node000004_Node000005" class="edge">
<title>Node5&#45;&gt;Node4</title>
<g id="a_edge4_Node000004_Node000005"><a xlink:title=" ">
<path fill="none" stroke="orange" stroke-dasharray="5,2" d="M73.5,-240.59C73.5,-226.75 73.5,-209.91 73.5,-198.22"/>
<polygon fill="orange" stroke="orange" points="70,-240.89 73.5,-250.89 77,-240.89 70,-240.89"/>
</a>
</g>
<text text-anchor="start" x="76.5" y="-221.5" font-family="Helvetica,sans-Serif" font-size="10.00" fill="grey">&lt; OpOperand &gt;</text>
</g>
</g>
</svg>
