<?xml version="1.0" encoding="UTF-8" standalone="no"?>
<!DOCTYPE svg PUBLIC "-//W3C//DTD SVG 1.1//EN"
 "http://www.w3.org/Graphics/SVG/1.1/DTD/svg11.dtd">
<!-- Generated by graphviz version 2.43.0 (0)
 -->
<!-- Title: mlir::detail::count_if_t_impl&lt; Pred, N, Ts &gt; Pages: 1 -->
<svg width="847pt" height="120pt"
 viewBox="0.00 0.00 847.00 119.50" xmlns="http://www.w3.org/2000/svg" xmlns:xlink="http://www.w3.org/1999/xlink">
<g id="graph0" class="graph" transform="scale(1 1) rotate(0) translate(4 115.5)">
<title>mlir::detail::count_if_t_impl&lt; Pred, N, Ts &gt;</title>
<!-- Node1 -->
<g id="Node000001" class="node">
<title>Node1</title>
<g id="a_Node000001"><a xlink:title="Template utility that computes the number of elements within T that satisfy the given predicate.">
<polygon fill="#999999" stroke="#666666" points="297,-55.5 159,-55.5 159,-25.5 297,-25.5 297,-55.5"/>
<text text-anchor="start" x="167" y="-43.5" font-family="Helvetica,sans-Serif" font-size="10.00">mlir::detail::count</text>
<text text-anchor="middle" x="228" y="-32.5" font-family="Helvetica,sans-Serif" font-size="10.00">_if_t_impl&lt; Pred, N, Ts &gt;</text>
</a>
</g>
</g>
<!-- Node3 -->
<g id="Node000003" class="node">
<title>Node3</title>
<g id="a_Node000003"><a xlink:href="structmlir_1_1detail_1_1count__if__t__impl.html" target="_top" xlink:title=" ">
<polygon fill="white" stroke="#666666" points="550.5,-100 437.5,-100 437.5,-59 550.5,-59 550.5,-100"/>
<text text-anchor="start" x="445.5" y="-88" font-family="Helvetica,sans-Serif" font-size="10.00">mlir::detail::count</text>
<text text-anchor="start" x="445.5" y="-77" font-family="Helvetica,sans-Serif" font-size="10.00">_if_t_impl&lt; Pred, 0,</text>
<text text-anchor="middle" x="494" y="-66" font-family="Helvetica,sans-Serif" font-size="10.00"> Ts... &gt;</text>
</a>
</g>
</g>
<!-- Node1&#45;&gt;Node3 -->
<g id="edge2_Node000001_Node000003" class="edge">
<title>Node1&#45;&gt;Node3</title>
<g id="a_edge2_Node000001_Node000003"><a xlink:title=" ">
<path fill="none" stroke="orange" stroke-dasharray="5,2" d="M307.48,-52.09C349.27,-58.27 399.68,-65.71 437.39,-71.29"/>
<polygon fill="orange" stroke="orange" points="307.73,-48.59 297.33,-50.59 306.71,-55.52 307.73,-48.59"/>
</a>
</g>
<text text-anchor="start" x="326" y="-74" font-family="Helvetica,sans-Serif" font-size="10.00" fill="grey">&lt; Pred, 0, Ts... &gt;</text>
</g>
<!-- Node5 -->
<g id="Node000005" class="node">
<title>Node5</title>
<g id="a_Node000005"><a xlink:href="structmlir_1_1detail_1_1count__if__t__impl_3_01Pred_00_01N_00_01T_00_01Us_8_8_8_01_4.html" target="_top" xlink:title=" ">
<polygon fill="white" stroke="#666666" points="551,-41 437,-41 437,0 551,0 551,-41"/>
<text text-anchor="start" x="445" y="-29" font-family="Helvetica,sans-Serif" font-size="10.00">mlir::detail::count</text>
<text text-anchor="start" x="445" y="-18" font-family="Helvetica,sans-Serif" font-size="10.00">_if_t_impl&lt; Pred, N,</text>
<text text-anchor="middle" x="494" y="-7" font-family="Helvetica,sans-Serif" font-size="10.00"> T, Us... &gt;</text>
</a>
</g>
</g>
<!-- Node1&#45;&gt;Node5 -->
<g id="edge4_Node000001_Node000005" class="edge">
<title>Node1&#45;&gt;Node5</title>
<g id="a_edge4_Node000001_Node000005"><a xlink:title=" ">
<path fill="none" stroke="orange" stroke-dasharray="5,2" d="M307.23,-31.2C309.85,-30.96 312.44,-30.72 315,-30.5 355.71,-26.99 401.76,-24.44 436.82,-22.8"/>
<polygon fill="orange" stroke="orange" points="306.64,-27.74 297.03,-32.21 307.33,-34.71 306.64,-27.74"/>
</a>
</g>
<text text-anchor="start" x="318" y="-36" font-family="Helvetica,sans-Serif" font-size="10.00" fill="grey">&lt; Pred, N, T, Us... &gt;</text>
</g>
<!-- Node2 -->
<g id="Node000002" class="node">
<title>Node2</title>
<g id="a_Node000002"><a xlink:title=" ">
<polygon fill="white" stroke="#666666" points="122,-55.5 0,-55.5 0,-25.5 122,-25.5 122,-55.5"/>
<text text-anchor="start" x="8" y="-43.5" font-family="Helvetica,sans-Serif" font-size="10.00">std::integral_constant</text>
<text text-anchor="middle" x="61" y="-32.5" font-family="Helvetica,sans-Serif" font-size="10.00">&lt; size_t, N &gt;</text>
</a>
</g>
</g>
<!-- Node2&#45;&gt;Node1 -->
<g id="edge1_Node000001_Node000002" class="edge">
<title>Node2&#45;&gt;Node1</title>
<g id="a_edge1_Node000001_Node000002"><a xlink:title=" ">
<path fill="none" stroke="#63b8ff" d="M132.28,-40.5C141.1,-40.5 150.12,-40.5 158.9,-40.5"/>
<polygon fill="#63b8ff" stroke="#63b8ff" points="132.04,-37 122.04,-40.5 132.04,-44 132.04,-37"/>
</a>
</g>
</g>
<!-- Node4 -->
<g id="Node000004" class="node">
<title>Node4</title>
<g id="a_Node000004"><a xlink:href="structmlir_1_1detail_1_1count__if__t__impl.html" target="_top" xlink:title=" ">
<polygon fill="white" stroke="#666666" points="839,-105.5 705,-105.5 705,-53.5 839,-53.5 839,-105.5"/>
<text text-anchor="start" x="713" y="-93.5" font-family="Helvetica,sans-Serif" font-size="10.00">mlir::detail::count</text>
<text text-anchor="start" x="713" y="-82.5" font-family="Helvetica,sans-Serif" font-size="10.00">_if_t_impl&lt; Pred, 0,</text>
<text text-anchor="start" x="713" y="-71.5" font-family="Helvetica,sans-Serif" font-size="10.00"> Ts... &gt;&lt; detect_get</text>
<text text-anchor="middle" x="772" y="-60.5" font-family="Helvetica,sans-Serif" font-size="10.00">_interface_id, Types... &gt;</text>
</a>
</g>
</g>
<!-- Node3&#45;&gt;Node4 -->
<g id="edge3_Node000003_Node000004" class="edge">
<title>Node3&#45;&gt;Node4</title>
<g id="a_edge3_Node000003_Node000004"><a xlink:title=" ">
<path fill="none" stroke="orange" stroke-dasharray="5,2" d="M560.73,-79.5C604.28,-79.5 661.23,-79.5 704.87,-79.5"/>
<polygon fill="orange" stroke="orange" points="560.52,-76 550.52,-79.5 560.52,-83 560.52,-76"/>
</a>
</g>
<text text-anchor="start" x="572" y="-100.5" font-family="Helvetica,sans-Serif" font-size="10.00" fill="grey">&lt; detect_get_interface</text>
<text text-anchor="start" x="572" y="-85.5" font-family="Helvetica,sans-Serif" font-size="10.00" fill="grey">  _id, Types... &gt;</text>
</g>
</g>
</svg>
