<?xml version="1.0" encoding="UTF-8" standalone="no"?>
<!DOCTYPE svg PUBLIC "-//W3C//DTD SVG 1.1//EN"
 "http://www.w3.org/Graphics/SVG/1.1/DTD/svg11.dtd">
<!-- Generated by graphviz version 2.43.0 (0)
 -->
<!-- Title: mlir::SideEffects::AutomaticAllocationScopeResource Pages: 1 -->
<svg width="947pt" height="74pt"
 viewBox="0.00 0.00 947.00 74.00" xmlns="http://www.w3.org/2000/svg" xmlns:xlink="http://www.w3.org/1999/xlink">
<g id="graph0" class="graph" transform="scale(1 1) rotate(0) translate(4 70)">
<title>mlir::SideEffects::AutomaticAllocationScopeResource</title>
<!-- Node1 -->
<g id="Node000001" class="node">
<title>Node1</title>
<g id="a_Node000001"><a xlink:title="An automatic allocation&#45;scope resource that is valid in the context of a parent AutomaticAllocationSc...">
<polygon fill="#999999" stroke="#666666" points="939,-60.5 749,-60.5 749,-30.5 939,-30.5 939,-60.5"/>
<text text-anchor="start" x="757" y="-48.5" font-family="Helvetica,sans-Serif" font-size="10.00">mlir::SideEffects::</text>
<text text-anchor="middle" x="844" y="-37.5" font-family="Helvetica,sans-Serif" font-size="10.00">AutomaticAllocationScopeResource</text>
</a>
</g>
</g>
<!-- Node2 -->
<g id="Node000002" class="node">
<title>Node2</title>
<g id="a_Node000002"><a xlink:href="classmlir_1_1SideEffects_1_1Resource_1_1Base.html" target="_top" xlink:title=" ">
<polygon fill="white" stroke="#666666" points="712,-66 510,-66 510,-25 712,-25 712,-66"/>
<text text-anchor="start" x="518" y="-54" font-family="Helvetica,sans-Serif" font-size="10.00">mlir::SideEffects::</text>
<text text-anchor="start" x="518" y="-43" font-family="Helvetica,sans-Serif" font-size="10.00">Resource::Base&lt; AutomaticAllocation</text>
<text text-anchor="middle" x="611" y="-32" font-family="Helvetica,sans-Serif" font-size="10.00">ScopeResource &gt;</text>
</a>
</g>
</g>
<!-- Node2&#45;&gt;Node1 -->
<g id="edge1_Node000001_Node000002" class="edge">
<title>Node2&#45;&gt;Node1</title>
<g id="a_edge1_Node000001_Node000002"><a xlink:title=" ">
<path fill="none" stroke="#63b8ff" d="M722.34,-45.5C731.25,-45.5 740.2,-45.5 748.97,-45.5"/>
<polygon fill="#63b8ff" stroke="#63b8ff" points="722.31,-42 712.31,-45.5 722.31,-49 722.31,-42"/>
</a>
</g>
</g>
<!-- Node3 -->
<g id="Node000003" class="node">
<title>Node3</title>
<g id="a_Node000003"><a xlink:href="classmlir_1_1SideEffects_1_1Resource.html" target="_top" xlink:title="This class represents a specific resource that an effect applies to.">
<polygon fill="white" stroke="#666666" points="102,-59.5 0,-59.5 0,-29.5 102,-29.5 102,-59.5"/>
<text text-anchor="start" x="8" y="-47.5" font-family="Helvetica,sans-Serif" font-size="10.00">mlir::SideEffects::</text>
<text text-anchor="middle" x="51" y="-36.5" font-family="Helvetica,sans-Serif" font-size="10.00">Resource</text>
</a>
</g>
</g>
<!-- Node3&#45;&gt;Node2 -->
<g id="edge2_Node000002_Node000003" class="edge">
<title>Node3&#45;&gt;Node2</title>
<g id="a_edge2_Node000002_Node000003"><a xlink:title=" ">
<path fill="none" stroke="#63b8ff" d="M112.16,-49.13C121.15,-49.68 130.32,-50.17 139,-50.5 295.79,-56.52 335.24,-62.13 492,-55.5 497.85,-55.25 503.87,-54.94 509.93,-54.57"/>
<polygon fill="#63b8ff" stroke="#63b8ff" points="112.32,-45.63 102.12,-48.48 111.87,-52.62 112.32,-45.63"/>
</a>
</g>
</g>
<!-- Node4 -->
<g id="Node000004" class="node">
<title>Node4</title>
<g id="a_Node000004"><a xlink:href="classmlir_1_1SideEffects_1_1Resource_1_1Base.html" target="_top" xlink:title="This base class is used for derived effects that are non&#45;parametric.">
<polygon fill="white" stroke="#666666" points="328,-41 139,-41 139,0 328,0 328,-41"/>
<text text-anchor="start" x="147" y="-29" font-family="Helvetica,sans-Serif" font-size="10.00">mlir::SideEffects::</text>
<text text-anchor="start" x="147" y="-18" font-family="Helvetica,sans-Serif" font-size="10.00">Resource::Base&lt; DerivedResource,</text>
<text text-anchor="middle" x="233.5" y="-7" font-family="Helvetica,sans-Serif" font-size="10.00"> BaseResource &gt;</text>
</a>
</g>
</g>
<!-- Node3&#45;&gt;Node4 -->
<g id="edge4_Node000004_Node000003" class="edge">
<title>Node3&#45;&gt;Node4</title>
<g id="a_edge4_Node000004_Node000003"><a xlink:title=" ">
<path fill="none" stroke="#63b8ff" d="M112.2,-36.5C120.82,-35.35 129.86,-34.15 138.95,-32.94"/>
<polygon fill="#63b8ff" stroke="#63b8ff" points="111.73,-33.03 102.28,-37.81 112.65,-39.97 111.73,-33.03"/>
</a>
</g>
</g>
<!-- Node4&#45;&gt;Node2 -->
<g id="edge3_Node000002_Node000004" class="edge">
<title>Node4&#45;&gt;Node2</title>
<g id="a_edge3_Node000002_Node000004"><a xlink:title=" ">
<path fill="none" stroke="orange" stroke-dasharray="5,2" d="M338.47,-17.64C385.47,-17.39 441.64,-18.55 492,-23.5 497.81,-24.07 503.76,-24.78 509.74,-25.59"/>
<polygon fill="orange" stroke="orange" points="338.26,-14.14 328.28,-17.71 338.31,-21.14 338.26,-14.14"/>
</a>
</g>
<text text-anchor="start" x="349" y="-44.5" font-family="Helvetica,sans-Serif" font-size="10.00" fill="grey">&lt; AutomaticAllocationScope</text>
<text text-anchor="start" x="349" y="-29.5" font-family="Helvetica,sans-Serif" font-size="10.00" fill="grey">  Resource &gt;</text>
</g>
</g>
</svg>
