<?xml version="1.0" encoding="UTF-8" standalone="no"?>
<!DOCTYPE svg PUBLIC "-//W3C//DTD SVG 1.1//EN"
 "http://www.w3.org/Graphics/SVG/1.1/DTD/svg11.dtd">
<!-- Generated by graphviz version 2.43.0 (0)
 -->
<!-- Title: llvm::CastInfo&lt; T, ::mlir::Operation &gt; Pages: 1 -->
<svg width="317pt" height="100pt"
 viewBox="0.00 0.00 317.00 99.50" xmlns="http://www.w3.org/2000/svg" xmlns:xlink="http://www.w3.org/1999/xlink">
<g id="graph0" class="graph" transform="scale(1 1) rotate(0) translate(4 95.5)">
<title>llvm::CastInfo&lt; T, ::mlir::Operation &gt;</title>
<!-- Node1 -->
<g id="node1" class="node">
<title>Node1</title>
<g id="a_node1"><a xlink:title="Cast from an (const) Operation &amp; to a derived operation type.">
<polygon fill="#bfbfbf" stroke="black" points="199,-38.5 199,-68.5 309,-68.5 309,-38.5 199,-38.5"/>
<text text-anchor="start" x="207" y="-56.5" font-family="Helvetica,sans-Serif" font-size="10.00">llvm::CastInfo&lt; T,</text>
<text text-anchor="middle" x="254" y="-45.5" font-family="Helvetica,sans-Serif" font-size="10.00"> ::mlir::Operation &gt;</text>
</a>
</g>
</g>
<!-- Node2 -->
<g id="node2" class="node">
<title>Node2</title>
<g id="a_node2"><a xlink:href="classNullableValueCastFailed.html" target="_top" xlink:title=" ">
<polygon fill="none" stroke="black" points="0,-72 0,-91 163,-91 163,-72 0,-72"/>
<text text-anchor="middle" x="81.5" y="-79" font-family="Helvetica,sans-Serif" font-size="10.00">NullableValueCastFailed&lt; T &gt;</text>
</a>
</g>
</g>
<!-- Node2&#45;&gt;Node1 -->
<g id="edge1" class="edge">
<title>Node2&#45;&gt;Node1</title>
<path fill="none" stroke="midnightblue" d="M151.01,-70.25C166.9,-67.64 183.61,-64.9 198.79,-62.4"/>
<polygon fill="midnightblue" stroke="midnightblue" points="150,-66.87 140.7,-71.94 151.13,-73.78 150,-66.87"/>
</g>
<!-- Node3 -->
<g id="node3" class="node">
<title>Node3</title>
<g id="a_node3"><a xlink:href="classDefaultDoCastIfPossible.html" target="_top" xlink:title=" ">
<polygon fill="none" stroke="black" points="14,-0.5 14,-52.5 149,-52.5 149,-0.5 14,-0.5"/>
<text text-anchor="start" x="22" y="-40.5" font-family="Helvetica,sans-Serif" font-size="10.00">DefaultDoCastIfPossible</text>
<text text-anchor="start" x="22" y="-29.5" font-family="Helvetica,sans-Serif" font-size="10.00">&lt; T, ::mlir::Operation</text>
<text text-anchor="start" x="22" y="-18.5" font-family="Helvetica,sans-Serif" font-size="10.00"> &amp;, CastInfo&lt; T, ::mlir</text>
<text text-anchor="middle" x="81.5" y="-7.5" font-family="Helvetica,sans-Serif" font-size="10.00">::Operation &gt; &gt;</text>
</a>
</g>
</g>
<!-- Node3&#45;&gt;Node1 -->
<g id="edge2" class="edge">
<title>Node3&#45;&gt;Node1</title>
<path fill="none" stroke="midnightblue" d="M159.5,-38.69C172.81,-40.8 186.39,-42.95 198.92,-44.94"/>
<polygon fill="midnightblue" stroke="midnightblue" points="159.82,-35.2 149.4,-37.09 158.73,-42.11 159.82,-35.2"/>
</g>
</g>
</svg>
