<?xml version="1.0" encoding="UTF-8" standalone="no"?>
<!DOCTYPE svg PUBLIC "-//W3C//DTD SVG 1.1//EN"
 "http://www.w3.org/Graphics/SVG/1.1/DTD/svg11.dtd">
<!-- Generated by graphviz version 2.43.0 (0)
 -->
<!-- Title: mlir::detail::is_pair&lt; T &gt; Pages: 1 -->
<svg width="187pt" height="166pt"
 viewBox="0.00 0.00 186.50 166.00" xmlns="http://www.w3.org/2000/svg" xmlns:xlink="http://www.w3.org/1999/xlink">
<g id="graph0" class="graph" transform="scale(1 1) rotate(0) translate(4 162)">
<title>mlir::detail::is_pair&lt; T &gt;</title>
<!-- Node1 -->
<g id="Node000001" class="node">
<title>Node1</title>
<g id="a_Node000001"><a xlink:title=" ">
<polygon fill="#999999" stroke="#666666" points="137,-102 0,-102 0,-83 137,-83 137,-102"/>
<text text-anchor="middle" x="68.5" y="-90" font-family="Helvetica,sans-Serif" font-size="10.00">mlir::detail::is_pair&lt; T &gt;</text>
</a>
</g>
</g>
<!-- Node3 -->
<g id="Node000003" class="node">
<title>Node3</title>
<g id="a_Node000003"><a xlink:href="structmlir_1_1detail_1_1is__pair_3_01std_1_1pair_3_01Ts_8_8_8_01_4_01_4.html" target="_top" xlink:title=" ">
<polygon fill="white" stroke="#666666" points="128.5,-30 8.5,-30 8.5,0 128.5,0 128.5,-30"/>
<text text-anchor="start" x="16.5" y="-18" font-family="Helvetica,sans-Serif" font-size="10.00">mlir::detail::is_pair</text>
<text text-anchor="middle" x="68.5" y="-7" font-family="Helvetica,sans-Serif" font-size="10.00">&lt; std::pair&lt; Ts... &gt; &gt;</text>
</a>
</g>
</g>
<!-- Node1&#45;&gt;Node3 -->
<g id="edge2_Node000001_Node000003" class="edge">
<title>Node1&#45;&gt;Node3</title>
<g id="a_edge2_Node000001_Node000003"><a xlink:title=" ">
<path fill="none" stroke="orange" stroke-dasharray="5,2" d="M68.5,-72.57C68.5,-59.43 68.5,-42.18 68.5,-30.21"/>
<polygon fill="orange" stroke="orange" points="65,-72.84 68.5,-82.84 72,-72.84 65,-72.84"/>
</a>
</g>
<text text-anchor="start" x="71.5" y="-53.5" font-family="Helvetica,sans-Serif" font-size="10.00" fill="grey">&lt; std::pair&lt; Ts... &gt; &gt;</text>
</g>
<!-- Node2 -->
<g id="Node000002" class="node">
<title>Node2</title>
<g id="a_Node000002"><a xlink:title=" ">
<polygon fill="white" stroke="#666666" points="113,-158 24,-158 24,-139 113,-139 113,-158"/>
<text text-anchor="middle" x="68.5" y="-146" font-family="Helvetica,sans-Serif" font-size="10.00">std::false_type</text>
</a>
</g>
</g>
<!-- Node2&#45;&gt;Node1 -->
<g id="edge1_Node000001_Node000002" class="edge">
<title>Node2&#45;&gt;Node1</title>
<g id="a_edge1_Node000001_Node000002"><a xlink:title=" ">
<path fill="none" stroke="#63b8ff" d="M68.5,-128.3C68.5,-119.41 68.5,-109.28 68.5,-102.25"/>
<polygon fill="#63b8ff" stroke="#63b8ff" points="65,-128.58 68.5,-138.58 72,-128.58 65,-128.58"/>
</a>
</g>
</g>
</g>
</svg>
