<?xml version="1.0" encoding="UTF-8" standalone="no"?>
<!DOCTYPE svg PUBLIC "-//W3C//DTD SVG 1.1//EN"
 "http://www.w3.org/Graphics/SVG/1.1/DTD/svg11.dtd">
<!-- Generated by graphviz version 2.43.0 (0)
 -->
<!-- Title: mlir::vector::detail::ValueBoundsConstraintSet Pages: 1 -->
<svg width="179pt" height="170pt"
 viewBox="0.00 0.00 179.00 170.00" xmlns="http://www.w3.org/2000/svg" xmlns:xlink="http://www.w3.org/1999/xlink">
<g id="graph0" class="graph" transform="scale(1 1) rotate(0) translate(4 166)">
<title>mlir::vector::detail::ValueBoundsConstraintSet</title>
<!-- Node1 -->
<g id="Node000001" class="node">
<title>Node1</title>
<g id="a_Node000001"><a xlink:title="Parent class for the value bounds RTTIExtends.">
<polygon fill="#999999" stroke="#666666" points="161.5,-30 9.5,-30 9.5,0 161.5,0 161.5,-30"/>
<text text-anchor="start" x="17.5" y="-18" font-family="Helvetica,sans-Serif" font-size="10.00">mlir::vector::detail</text>
<text text-anchor="middle" x="85.5" y="-7" font-family="Helvetica,sans-Serif" font-size="10.00">::ValueBoundsConstraintSet</text>
</a>
</g>
</g>
<!-- Node2 -->
<g id="Node000002" class="node">
<title>Node2</title>
<g id="a_Node000002"><a xlink:href="classmlir_1_1ValueBoundsConstraintSet.html" target="_top" xlink:title="A helper class to be used with ValueBoundsOpInterface.">
<polygon fill="white" stroke="#666666" points="171,-85 0,-85 0,-66 171,-66 171,-85"/>
<text text-anchor="middle" x="85.5" y="-73" font-family="Helvetica,sans-Serif" font-size="10.00">mlir::ValueBoundsConstraintSet</text>
</a>
</g>
</g>
<!-- Node2&#45;&gt;Node1 -->
<g id="edge1_Node000001_Node000002" class="edge">
<title>Node2&#45;&gt;Node1</title>
<g id="a_edge1_Node000001_Node000002"><a xlink:title=" ">
<path fill="none" stroke="darkgreen" d="M85.5,-55.65C85.5,-47.36 85.5,-37.78 85.5,-30.11"/>
<polygon fill="darkgreen" stroke="darkgreen" points="82,-55.87 85.5,-65.87 89,-55.87 82,-55.87"/>
</a>
</g>
</g>
<!-- Node3 -->
<g id="Node000003" class="node">
<title>Node3</title>
<g id="a_Node000003"><a xlink:title=" ">
<polygon fill="white" stroke="#666666" points="161.5,-162 9.5,-162 9.5,-121 161.5,-121 161.5,-162"/>
<text text-anchor="start" x="17.5" y="-150" font-family="Helvetica,sans-Serif" font-size="10.00">llvm::RTTIExtends&lt;</text>
<text text-anchor="start" x="17.5" y="-139" font-family="Helvetica,sans-Serif" font-size="10.00"> ValueBoundsConstraintSet,</text>
<text text-anchor="middle" x="85.5" y="-128" font-family="Helvetica,sans-Serif" font-size="10.00"> llvm::RTTIRoot &gt;</text>
</a>
</g>
</g>
<!-- Node3&#45;&gt;Node2 -->
<g id="edge2_Node000002_Node000003" class="edge">
<title>Node3&#45;&gt;Node2</title>
<g id="a_edge2_Node000002_Node000003"><a xlink:title=" ">
<path fill="none" stroke="#63b8ff" d="M85.5,-110.74C85.5,-101.45 85.5,-91.9 85.5,-85.26"/>
<polygon fill="#63b8ff" stroke="#63b8ff" points="82,-110.95 85.5,-120.95 89,-110.95 82,-110.95"/>
</a>
</g>
</g>
</g>
</svg>
