<?xml version="1.0" encoding="UTF-8" standalone="no"?>
<!DOCTYPE svg PUBLIC "-//W3C//DTD SVG 1.1//EN"
 "http://www.w3.org/Graphics/SVG/1.1/DTD/svg11.dtd">
<!-- Generated by graphviz version 2.43.0 (0)
 -->
<!-- Title: mlir::GPUPrintfOpToHIPLowering Pages: 1 -->
<svg width="271pt" height="289pt"
 viewBox="0.00 0.00 271.00 289.00" xmlns="http://www.w3.org/2000/svg" xmlns:xlink="http://www.w3.org/1999/xlink">
<g id="graph0" class="graph" transform="scale(1 1) rotate(0) translate(4 285)">
<title>mlir::GPUPrintfOpToHIPLowering</title>
<!-- Node1 -->
<g id="Node000001" class="node">
<title>Node1</title>
<g id="a_Node000001"><a xlink:title="The lowering of gpu.printf to a call to HIP hostcalls.">
<polygon fill="#999999" stroke="#666666" points="174,-19 0,-19 0,0 174,0 174,-19"/>
<text text-anchor="middle" x="87" y="-7" font-family="Helvetica,sans-Serif" font-size="10.00">mlir::GPUPrintfOpToHIPLowering</text>
</a>
</g>
</g>
<!-- Node2 -->
<g id="Node000002" class="node">
<title>Node2</title>
<g id="a_Node000002"><a xlink:href="classmlir_1_1ConvertOpToLLVMPattern.html" target="_top" xlink:title=" ">
<polygon fill="white" stroke="#666666" points="169,-86 5,-86 5,-56 169,-56 169,-86"/>
<text text-anchor="start" x="13" y="-74" font-family="Helvetica,sans-Serif" font-size="10.00">mlir::ConvertOpToLLVMPattern</text>
<text text-anchor="middle" x="87" y="-63" font-family="Helvetica,sans-Serif" font-size="10.00">&lt; gpu::PrintfOp &gt;</text>
</a>
</g>
</g>
<!-- Node2&#45;&gt;Node1 -->
<g id="edge1_Node000001_Node000002" class="edge">
<title>Node2&#45;&gt;Node1</title>
<g id="a_edge1_Node000001_Node000002"><a xlink:title=" ">
<path fill="none" stroke="#63b8ff" d="M87,-45.79C87,-36.36 87,-26.15 87,-19.16"/>
<polygon fill="#63b8ff" stroke="#63b8ff" points="83.5,-45.9 87,-55.9 90.5,-45.9 83.5,-45.9"/>
</a>
</g>
</g>
<!-- Node3 -->
<g id="Node000003" class="node">
<title>Node3</title>
<g id="a_Node000003"><a xlink:href="classmlir_1_1ConvertToLLVMPattern.html" target="_top" xlink:title="Base class for operation conversions targeting the LLVM IR dialect.">
<polygon fill="white" stroke="#666666" points="158.5,-225 7.5,-225 7.5,-206 158.5,-206 158.5,-225"/>
<text text-anchor="middle" x="83" y="-213" font-family="Helvetica,sans-Serif" font-size="10.00">mlir::ConvertToLLVMPattern</text>
</a>
</g>
</g>
<!-- Node3&#45;&gt;Node2 -->
<g id="edge2_Node000002_Node000003" class="edge">
<title>Node3&#45;&gt;Node2</title>
<g id="a_edge2_Node000002_Node000003"><a xlink:title=" ">
<path fill="none" stroke="#63b8ff" d="M83.53,-195.54C84.35,-166.58 85.88,-111.99 86.6,-86.19"/>
<polygon fill="#63b8ff" stroke="#63b8ff" points="80.03,-195.49 83.25,-205.59 87.03,-195.69 80.03,-195.49"/>
</a>
</g>
</g>
<!-- Node5 -->
<g id="Node000005" class="node">
<title>Node5</title>
<g id="a_Node000005"><a xlink:href="classmlir_1_1ConvertOpToLLVMPattern.html" target="_top" xlink:title="Utility class for operation conversions targeting the LLVM dialect that match exactly one source oper...">
<polygon fill="white" stroke="#666666" points="263,-169 99,-169 99,-139 263,-139 263,-169"/>
<text text-anchor="start" x="107" y="-157" font-family="Helvetica,sans-Serif" font-size="10.00">mlir::ConvertOpToLLVMPattern</text>
<text text-anchor="middle" x="181" y="-146" font-family="Helvetica,sans-Serif" font-size="10.00">&lt; SourceOp &gt;</text>
</a>
</g>
</g>
<!-- Node3&#45;&gt;Node5 -->
<g id="edge5_Node000005_Node000003" class="edge">
<title>Node3&#45;&gt;Node5</title>
<g id="a_edge5_Node000005_Node000003"><a xlink:title=" ">
<path fill="none" stroke="#63b8ff" d="M105.6,-200.78C121.29,-191.25 142.11,-178.61 157.9,-169.02"/>
<polygon fill="#63b8ff" stroke="#63b8ff" points="103.77,-197.79 97.04,-205.98 107.41,-203.78 103.77,-197.79"/>
</a>
</g>
</g>
<!-- Node4 -->
<g id="Node000004" class="node">
<title>Node4</title>
<g id="a_Node000004"><a xlink:href="classConversionPattern.html" target="_top" xlink:title=" ">
<polygon fill="white" stroke="#666666" points="136,-281 30,-281 30,-262 136,-262 136,-281"/>
<text text-anchor="middle" x="83" y="-269" font-family="Helvetica,sans-Serif" font-size="10.00">ConversionPattern</text>
</a>
</g>
</g>
<!-- Node4&#45;&gt;Node3 -->
<g id="edge3_Node000003_Node000004" class="edge">
<title>Node4&#45;&gt;Node3</title>
<g id="a_edge3_Node000003_Node000004"><a xlink:title=" ">
<path fill="none" stroke="#63b8ff" d="M83,-251.3C83,-242.41 83,-232.28 83,-225.25"/>
<polygon fill="#63b8ff" stroke="#63b8ff" points="79.5,-251.58 83,-261.58 86.5,-251.58 79.5,-251.58"/>
</a>
</g>
</g>
<!-- Node5&#45;&gt;Node2 -->
<g id="edge4_Node000002_Node000005" class="edge">
<title>Node5&#45;&gt;Node2</title>
<g id="a_edge4_Node000002_Node000005"><a xlink:title=" ">
<path fill="none" stroke="orange" stroke-dasharray="5,2" d="M156.87,-132.21C140.14,-117.79 118.28,-98.95 103.5,-86.22"/>
<polygon fill="orange" stroke="orange" points="154.77,-135.01 164.63,-138.89 159.34,-129.71 154.77,-135.01"/>
</a>
</g>
<text text-anchor="start" x="145.5" y="-109.5" font-family="Helvetica,sans-Serif" font-size="10.00" fill="grey">&lt; gpu::PrintfOp &gt;</text>
</g>
</g>
</svg>
