<?xml version="1.0" encoding="UTF-8" standalone="no"?>
<!DOCTYPE svg PUBLIC "-//W3C//DTD SVG 1.1//EN"
 "http://www.w3.org/Graphics/SVG/1.1/DTD/svg11.dtd">
<!-- Generated by graphviz version 2.43.0 (0)
 -->
<!-- Title: mlir::MemoryEffects::Read Pages: 1 -->
<svg width="130pt" height="162pt"
 viewBox="0.00 0.00 130.00 162.00" xmlns="http://www.w3.org/2000/svg" xmlns:xlink="http://www.w3.org/1999/xlink">
<g id="graph0" class="graph" transform="scale(1 1) rotate(0) translate(4 158)">
<title>mlir::MemoryEffects::Read</title>
<!-- Node1 -->
<g id="node1" class="node">
<title>Node1</title>
<g id="a_node1"><a xlink:title="The following effect indicates that the operation reads from some resource.">
<polygon fill="#bfbfbf" stroke="black" points="3,-0.5 3,-30.5 119,-30.5 119,-0.5 3,-0.5"/>
<text text-anchor="start" x="11" y="-18.5" font-family="Helvetica,sans-Serif" font-size="10.00">mlir::MemoryEffects</text>
<text text-anchor="middle" x="61" y="-7.5" font-family="Helvetica,sans-Serif" font-size="10.00">::Read</text>
</a>
</g>
</g>
<!-- Node2 -->
<g id="node2" class="node">
<title>Node2</title>
<g id="a_node2"><a xlink:href="classmlir_1_1SideEffects_1_1Effect_1_1Base.html" target="_top" xlink:title="This base class is used for derived effects that are non&#45;parametric.">
<polygon fill="none" stroke="black" points="0,-67.5 0,-86.5 122,-86.5 122,-67.5 0,-67.5"/>
<text text-anchor="middle" x="61" y="-74.5" font-family="Helvetica,sans-Serif" font-size="10.00">Effect::Base&lt; Read &gt;</text>
</a>
</g>
</g>
<!-- Node2&#45;&gt;Node1 -->
<g id="edge1" class="edge">
<title>Node2&#45;&gt;Node1</title>
<path fill="none" stroke="midnightblue" d="M61,-57.23C61,-48.59 61,-38.5 61,-30.52"/>
<polygon fill="midnightblue" stroke="midnightblue" points="57.5,-57.48 61,-67.48 64.5,-57.48 57.5,-57.48"/>
</g>
<!-- Node3 -->
<g id="node3" class="node">
<title>Node3</title>
<g id="a_node3"><a xlink:href="classmlir_1_1SideEffects_1_1Effect.html" target="_top" xlink:title="This class represents a base class for a specific effect type.">
<polygon fill="none" stroke="black" points="10,-123.5 10,-153.5 112,-153.5 112,-123.5 10,-123.5"/>
<text text-anchor="start" x="18" y="-141.5" font-family="Helvetica,sans-Serif" font-size="10.00">mlir::SideEffects::</text>
<text text-anchor="middle" x="61" y="-130.5" font-family="Helvetica,sans-Serif" font-size="10.00">Effect</text>
</a>
</g>
</g>
<!-- Node3&#45;&gt;Node2 -->
<g id="edge2" class="edge">
<title>Node3&#45;&gt;Node2</title>
<path fill="none" stroke="midnightblue" d="M61,-113.29C61,-103.86 61,-93.65 61,-86.66"/>
<polygon fill="midnightblue" stroke="midnightblue" points="57.5,-113.4 61,-123.4 64.5,-113.4 57.5,-113.4"/>
</g>
</g>
</svg>
