<?xml version="1.0" encoding="UTF-8" standalone="no"?>
<!DOCTYPE svg PUBLIC "-//W3C//DTD SVG 1.1//EN"
 "http://www.w3.org/Graphics/SVG/1.1/DTD/svg11.dtd">
<!-- Generated by graphviz version 2.43.0 (0)
 -->
<!-- Title: ContractOpToElementwise Pages: 1 -->
<svg width="1605pt" height="146pt"
 viewBox="0.00 0.00 1605.00 145.50" xmlns="http://www.w3.org/2000/svg" xmlns:xlink="http://www.w3.org/1999/xlink">
<g id="graph0" class="graph" transform="scale(1 1) rotate(0) translate(4 141.5)">
<title>ContractOpToElementwise</title>
<!-- Node1 -->
<g id="Node000001" class="node">
<title>Node1</title>
<g id="a_Node000001"><a xlink:title="Lower vector.contract with all size one reduction dimensions to elementwise ops when possible.">
<polygon fill="#999999" stroke="#666666" points="1597,-48.5 1452,-48.5 1452,-29.5 1597,-29.5 1597,-48.5"/>
<text text-anchor="middle" x="1524.5" y="-36.5" font-family="Helvetica,sans-Serif" font-size="10.00">ContractOpToElementwise</text>
</a>
</g>
</g>
<!-- Node2 -->
<g id="Node000002" class="node">
<title>Node2</title>
<g id="a_Node000002"><a xlink:href="structmlir_1_1vector_1_1MaskableOpRewritePattern.html" target="_top" xlink:title=" ">
<polygon fill="white" stroke="#666666" points="1415,-59.5 1276,-59.5 1276,-18.5 1415,-18.5 1415,-59.5"/>
<text text-anchor="start" x="1284" y="-47.5" font-family="Helvetica,sans-Serif" font-size="10.00">mlir::vector::MaskableOp</text>
<text text-anchor="start" x="1284" y="-36.5" font-family="Helvetica,sans-Serif" font-size="10.00">RewritePattern&lt; vector</text>
<text text-anchor="middle" x="1345.5" y="-25.5" font-family="Helvetica,sans-Serif" font-size="10.00">::ContractionOp &gt;</text>
</a>
</g>
</g>
<!-- Node2&#45;&gt;Node1 -->
<g id="edge1_Node000001_Node000002" class="edge">
<title>Node2&#45;&gt;Node1</title>
<g id="a_edge1_Node000001_Node000002"><a xlink:title=" ">
<path fill="none" stroke="#63b8ff" d="M1425.45,-39C1434.27,-39 1443.21,-39 1451.93,-39"/>
<polygon fill="#63b8ff" stroke="#63b8ff" points="1425.19,-35.5 1415.19,-39 1425.19,-42.5 1425.19,-35.5"/>
</a>
</g>
</g>
<!-- Node3 -->
<g id="Node000003" class="node">
<title>Node3</title>
<g id="a_Node000003"><a xlink:href="structmlir_1_1OpRewritePattern.html" target="_top" xlink:title=" ">
<polygon fill="white" stroke="#666666" points="1098,-78 952,-78 952,-48 1098,-48 1098,-78"/>
<text text-anchor="start" x="960" y="-66" font-family="Helvetica,sans-Serif" font-size="10.00">mlir::OpRewritePattern</text>
<text text-anchor="middle" x="1025" y="-55" font-family="Helvetica,sans-Serif" font-size="10.00">&lt; vector::ContractionOp &gt;</text>
</a>
</g>
</g>
<!-- Node3&#45;&gt;Node2 -->
<g id="edge2_Node000002_Node000003" class="edge">
<title>Node3&#45;&gt;Node2</title>
<g id="a_edge2_Node000002_Node000003"><a xlink:title=" ">
<path fill="none" stroke="#63b8ff" d="M1108.46,-56.79C1160.41,-52.87 1226.7,-47.88 1275.79,-44.18"/>
<polygon fill="#63b8ff" stroke="#63b8ff" points="1107.98,-53.31 1098.27,-57.55 1108.51,-60.29 1107.98,-53.31"/>
</a>
</g>
</g>
<!-- Node4 -->
<g id="Node000004" class="node">
<title>Node4</title>
<g id="a_Node000004"><a xlink:href="structmlir_1_1detail_1_1OpOrInterfaceRewritePatternBase.html" target="_top" xlink:title=" ">
<polygon fill="white" stroke="#666666" points="774,-137.5 619,-137.5 619,-96.5 774,-96.5 774,-137.5"/>
<text text-anchor="start" x="627" y="-125.5" font-family="Helvetica,sans-Serif" font-size="10.00">mlir::detail::OpOrInterface</text>
<text text-anchor="start" x="627" y="-114.5" font-family="Helvetica,sans-Serif" font-size="10.00">RewritePatternBase&lt; vector</text>
<text text-anchor="middle" x="696.5" y="-103.5" font-family="Helvetica,sans-Serif" font-size="10.00">::ContractionOp &gt;</text>
</a>
</g>
</g>
<!-- Node4&#45;&gt;Node3 -->
<g id="edge3_Node000003_Node000004" class="edge">
<title>Node4&#45;&gt;Node3</title>
<g id="a_edge3_Node000003_Node000004"><a xlink:title=" ">
<path fill="none" stroke="#63b8ff" d="M783.98,-106.14C827.33,-100.31 880.58,-92.57 928,-84 937.82,-82.23 948.17,-80.16 958.28,-78.04"/>
<polygon fill="#63b8ff" stroke="#63b8ff" points="783.48,-102.68 774.03,-107.47 784.41,-109.62 783.48,-102.68"/>
</a>
</g>
</g>
<!-- Node5 -->
<g id="Node000005" class="node">
<title>Node5</title>
<g id="a_Node000005"><a xlink:href="classmlir_1_1RewritePattern.html" target="_top" xlink:title="RewritePattern is the common base class for all DAG to DAG replacements.">
<polygon fill="white" stroke="#666666" points="228,-91.5 114,-91.5 114,-72.5 228,-72.5 228,-91.5"/>
<text text-anchor="middle" x="171" y="-79.5" font-family="Helvetica,sans-Serif" font-size="10.00">mlir::RewritePattern</text>
</a>
</g>
</g>
<!-- Node5&#45;&gt;Node4 -->
<g id="edge4_Node000004_Node000005" class="edge">
<title>Node5&#45;&gt;Node4</title>
<g id="a_edge4_Node000004_Node000005"><a xlink:title=" ">
<path fill="none" stroke="#63b8ff" d="M211.58,-94.33C227.95,-98.87 247.22,-103.51 265,-106 387.91,-123.2 532.43,-122.72 618.86,-120.26"/>
<polygon fill="#63b8ff" stroke="#63b8ff" points="212.39,-90.92 201.81,-91.54 210.46,-97.65 212.39,-90.92"/>
</a>
</g>
</g>
<!-- Node7 -->
<g id="Node000007" class="node">
<title>Node7</title>
<g id="a_Node000007"><a xlink:href="structmlir_1_1detail_1_1OpOrInterfaceRewritePatternBase.html" target="_top" xlink:title="OpOrInterfaceRewritePatternBase is a wrapper around RewritePattern that allows for matching and rewri...">
<polygon fill="white" stroke="#666666" points="447,-97 265,-97 265,-67 447,-67 447,-97"/>
<text text-anchor="start" x="273" y="-85" font-family="Helvetica,sans-Serif" font-size="10.00">mlir::detail::OpOrInterface</text>
<text text-anchor="middle" x="356" y="-74" font-family="Helvetica,sans-Serif" font-size="10.00">RewritePatternBase&lt; SourceOp &gt;</text>
</a>
</g>
</g>
<!-- Node5&#45;&gt;Node7 -->
<g id="edge7_Node000007_Node000005" class="edge">
<title>Node5&#45;&gt;Node7</title>
<g id="a_edge7_Node000007_Node000005"><a xlink:title=" ">
<path fill="none" stroke="#63b8ff" d="M238.62,-82C247.14,-82 255.97,-82 264.78,-82"/>
<polygon fill="#63b8ff" stroke="#63b8ff" points="238.4,-78.5 228.4,-82 238.4,-85.5 238.4,-78.5"/>
</a>
</g>
</g>
<!-- Node9 -->
<g id="Node000009" class="node">
<title>Node9</title>
<g id="a_Node000009"><a xlink:href="structmlir_1_1detail_1_1OpOrInterfaceRewritePatternBase.html" target="_top" xlink:title="OpOrInterfaceRewritePatternBase is a wrapper around RewritePattern that allows for matching and rewri...">
<polygon fill="white" stroke="#666666" points="447,-49 265,-49 265,-19 447,-19 447,-49"/>
<text text-anchor="start" x="273" y="-37" font-family="Helvetica,sans-Serif" font-size="10.00">mlir::detail::OpOrInterface</text>
<text text-anchor="middle" x="356" y="-26" font-family="Helvetica,sans-Serif" font-size="10.00">RewritePatternBase&lt; SourceOp &gt;</text>
</a>
</g>
</g>
<!-- Node5&#45;&gt;Node9 -->
<g id="edge10_Node000009_Node000005" class="edge">
<title>Node5&#45;&gt;Node9</title>
<g id="a_edge10_Node000009_Node000005"><a xlink:title=" ">
<path fill="none" stroke="#63b8ff" d="M218.53,-69.8C242.57,-63.49 272.12,-55.74 297.57,-49.06"/>
<polygon fill="#63b8ff" stroke="#63b8ff" points="217.38,-66.48 208.59,-72.4 219.15,-73.25 217.38,-66.48"/>
</a>
</g>
</g>
<!-- Node6 -->
<g id="Node000006" class="node">
<title>Node6</title>
<g id="a_Node000006"><a xlink:href="classmlir_1_1Pattern.html" target="_top" xlink:title="This class contains all of the data related to a pattern, but does not contain any methods or logic f...">
<polygon fill="white" stroke="#666666" points="77,-91.5 0,-91.5 0,-72.5 77,-72.5 77,-91.5"/>
<text text-anchor="middle" x="38.5" y="-79.5" font-family="Helvetica,sans-Serif" font-size="10.00">mlir::Pattern</text>
</a>
</g>
</g>
<!-- Node6&#45;&gt;Node5 -->
<g id="edge5_Node000005_Node000006" class="edge">
<title>Node6&#45;&gt;Node5</title>
<g id="a_edge5_Node000005_Node000006"><a xlink:title=" ">
<path fill="none" stroke="#63b8ff" d="M87.47,-82C96.06,-82 105.09,-82 113.89,-82"/>
<polygon fill="#63b8ff" stroke="#63b8ff" points="87.25,-78.5 77.25,-82 87.25,-85.5 87.25,-78.5"/>
</a>
</g>
</g>
<!-- Node7&#45;&gt;Node4 -->
<g id="edge6_Node000004_Node000007" class="edge">
<title>Node7&#45;&gt;Node4</title>
<g id="a_edge6_Node000004_Node000007"><a xlink:title=" ">
<path fill="none" stroke="orange" stroke-dasharray="5,2" d="M457.38,-82.66C501.61,-84.05 554.08,-87.2 601,-94 606.85,-94.85 612.86,-95.89 618.89,-97.07"/>
<polygon fill="orange" stroke="orange" points="457.3,-79.16 447.2,-82.37 457.1,-86.15 457.3,-79.16"/>
</a>
</g>
<text text-anchor="start" x="468" y="-99.5" font-family="Helvetica,sans-Serif" font-size="10.00" fill="grey">&lt; vector::ContractionOp &gt;</text>
</g>
<!-- Node8 -->
<g id="Node000008" class="node">
<title>Node8</title>
<g id="a_Node000008"><a xlink:href="structmlir_1_1OpRewritePattern.html" target="_top" xlink:title="OpRewritePattern is a wrapper around RewritePattern that allows for matching and rewriting against an...">
<polygon fill="white" stroke="#666666" points="760.5,-78 632.5,-78 632.5,-48 760.5,-48 760.5,-78"/>
<text text-anchor="start" x="640.5" y="-66" font-family="Helvetica,sans-Serif" font-size="10.00">mlir::OpRewritePattern</text>
<text text-anchor="middle" x="696.5" y="-55" font-family="Helvetica,sans-Serif" font-size="10.00">&lt; SourceOp &gt;</text>
</a>
</g>
</g>
<!-- Node8&#45;&gt;Node3 -->
<g id="edge8_Node000003_Node000008" class="edge">
<title>Node8&#45;&gt;Node3</title>
<g id="a_edge8_Node000003_Node000008"><a xlink:title=" ">
<path fill="none" stroke="orange" stroke-dasharray="5,2" d="M771.03,-63C825.04,-63 898.04,-63 951.74,-63"/>
<polygon fill="orange" stroke="orange" points="770.84,-59.5 760.84,-63 770.84,-66.5 770.84,-59.5"/>
</a>
</g>
<text text-anchor="start" x="795" y="-68.5" font-family="Helvetica,sans-Serif" font-size="10.00" fill="grey">&lt; vector::ContractionOp &gt;</text>
</g>
<!-- Node9&#45;&gt;Node8 -->
<g id="edge9_Node000008_Node000009" class="edge">
<title>Node9&#45;&gt;Node8</title>
<g id="a_edge9_Node000008_Node000009"><a xlink:title=" ">
<path fill="none" stroke="#63b8ff" d="M457.33,-42.6C514,-47.45 583.1,-53.37 632.24,-57.58"/>
<polygon fill="#63b8ff" stroke="#63b8ff" points="457.53,-39.1 447.27,-41.73 456.93,-46.07 457.53,-39.1"/>
</a>
</g>
</g>
<!-- Node11 -->
<g id="Node000011" class="node">
<title>Node11</title>
<g id="a_Node000011"><a xlink:href="structmlir_1_1OpRewritePattern.html" target="_top" xlink:title="OpRewritePattern is a wrapper around RewritePattern that allows for matching and rewriting against an...">
<polygon fill="white" stroke="#666666" points="760.5,-30 632.5,-30 632.5,0 760.5,0 760.5,-30"/>
<text text-anchor="start" x="640.5" y="-18" font-family="Helvetica,sans-Serif" font-size="10.00">mlir::OpRewritePattern</text>
<text text-anchor="middle" x="696.5" y="-7" font-family="Helvetica,sans-Serif" font-size="10.00">&lt; SourceOp &gt;</text>
</a>
</g>
</g>
<!-- Node9&#45;&gt;Node11 -->
<g id="edge13_Node000011_Node000009" class="edge">
<title>Node9&#45;&gt;Node11</title>
<g id="a_edge13_Node000011_Node000009"><a xlink:title=" ">
<path fill="none" stroke="#63b8ff" d="M457.33,-28.37C514,-25.19 583.1,-21.31 632.24,-18.55"/>
<polygon fill="#63b8ff" stroke="#63b8ff" points="457.06,-24.88 447.27,-28.93 457.45,-31.87 457.06,-24.88"/>
</a>
</g>
</g>
<!-- Node10 -->
<g id="Node000010" class="node">
<title>Node10</title>
<g id="a_Node000010"><a xlink:href="structmlir_1_1vector_1_1MaskableOpRewritePattern.html" target="_top" xlink:title="A pattern for ops that implement MaskableOpInterface and that might be masked (i.e.">
<polygon fill="white" stroke="#666666" points="1104,-30 946,-30 946,0 1104,0 1104,-30"/>
<text text-anchor="start" x="954" y="-18" font-family="Helvetica,sans-Serif" font-size="10.00">mlir::vector::MaskableOp</text>
<text text-anchor="middle" x="1025" y="-7" font-family="Helvetica,sans-Serif" font-size="10.00">RewritePattern&lt; SourceOp &gt;</text>
</a>
</g>
</g>
<!-- Node10&#45;&gt;Node2 -->
<g id="edge11_Node000002_Node000010" class="edge">
<title>Node10&#45;&gt;Node2</title>
<g id="a_edge11_Node000002_Node000010"><a xlink:title=" ">
<path fill="none" stroke="orange" stroke-dasharray="5,2" d="M1114.25,-17.07C1157.62,-18.63 1210.63,-21.33 1258,-26 1263.74,-26.57 1269.69,-27.25 1275.65,-28.01"/>
<polygon fill="orange" stroke="orange" points="1114.12,-13.57 1104.01,-16.72 1113.88,-20.56 1114.12,-13.57"/>
</a>
</g>
<text text-anchor="start" x="1125" y="-31.5" font-family="Helvetica,sans-Serif" font-size="10.00" fill="grey">&lt; vector::ContractionOp &gt;</text>
</g>
<!-- Node11&#45;&gt;Node10 -->
<g id="edge12_Node000010_Node000011" class="edge">
<title>Node11&#45;&gt;Node10</title>
<g id="a_edge12_Node000010_Node000011"><a xlink:title=" ">
<path fill="none" stroke="#63b8ff" d="M771.01,-15C823.06,-15 892.78,-15 945.85,-15"/>
<polygon fill="#63b8ff" stroke="#63b8ff" points="770.84,-11.5 760.84,-15 770.84,-18.5 770.84,-11.5"/>
</a>
</g>
</g>
</g>
</svg>
