<?xml version="1.0" encoding="UTF-8" standalone="no"?>
<!DOCTYPE svg PUBLIC "-//W3C//DTD SVG 1.1//EN"
 "http://www.w3.org/Graphics/SVG/1.1/DTD/svg11.dtd">
<!-- Generated by graphviz version 2.43.0 (0)
 -->
<!-- Title: mlir::python::MLIR_BINDINGS_PYTHON_DOMAIN::PyDenseI32ArrayAttribute Pages: 1 -->
<svg width="1710pt" height="130pt"
 viewBox="0.00 0.00 1710.00 130.00" xmlns="http://www.w3.org/2000/svg" xmlns:xlink="http://www.w3.org/1999/xlink">
<g id="graph0" class="graph" transform="scale(1 1) rotate(0) translate(4 126)">
<title>mlir::python::MLIR_BINDINGS_PYTHON_DOMAIN::PyDenseI32ArrayAttribute</title>
<!-- Node1 -->
<g id="Node000001" class="node">
<title>Node1</title>
<g id="a_Node000001"><a xlink:title=" ">
<polygon fill="#999999" stroke="#666666" points="1702,-87.5 1539,-87.5 1539,-46.5 1702,-46.5 1702,-87.5"/>
<text text-anchor="start" x="1547" y="-75.5" font-family="Helvetica,sans-Serif" font-size="10.00">mlir::python::MLIR</text>
<text text-anchor="start" x="1547" y="-64.5" font-family="Helvetica,sans-Serif" font-size="10.00">_BINDINGS_PYTHON_DOMAIN</text>
<text text-anchor="middle" x="1620.5" y="-53.5" font-family="Helvetica,sans-Serif" font-size="10.00">::PyDenseI32ArrayAttribute</text>
</a>
</g>
</g>
<!-- Node2 -->
<g id="Node000002" class="node">
<title>Node2</title>
<g id="a_Node000002"><a xlink:href="classmlir_1_1python_1_1MLIR__BINDINGS__PYTHON__DOMAIN_1_1PyDenseArrayAttribute.html" target="_top" xlink:title=" ">
<polygon fill="white" stroke="#666666" points="1502,-93 1296,-93 1296,-41 1502,-41 1502,-93"/>
<text text-anchor="start" x="1304" y="-81" font-family="Helvetica,sans-Serif" font-size="10.00">mlir::python::MLIR</text>
<text text-anchor="start" x="1304" y="-70" font-family="Helvetica,sans-Serif" font-size="10.00">_BINDINGS_PYTHON_DOMAIN</text>
<text text-anchor="start" x="1304" y="-59" font-family="Helvetica,sans-Serif" font-size="10.00">::PyDenseArrayAttribute</text>
<text text-anchor="middle" x="1399" y="-48" font-family="Helvetica,sans-Serif" font-size="10.00">&lt; int32_t, PyDenseI32ArrayAttribute &gt;</text>
</a>
</g>
</g>
<!-- Node2&#45;&gt;Node1 -->
<g id="edge1_Node000001_Node000002" class="edge">
<title>Node2&#45;&gt;Node1</title>
<g id="a_edge1_Node000001_Node000002"><a xlink:title=" ">
<path fill="none" stroke="#63b8ff" d="M1512.16,-67C1521.12,-67 1530.07,-67 1538.75,-67"/>
<polygon fill="#63b8ff" stroke="#63b8ff" points="1512.04,-63.5 1502.04,-67 1512.04,-70.5 1512.04,-63.5"/>
</a>
</g>
</g>
<!-- Node3 -->
<g id="Node000003" class="node">
<title>Node3</title>
<g id="a_Node000003"><a xlink:href="classmlir_1_1python_1_1MLIR__BINDINGS__PYTHON__DOMAIN_1_1PyConcreteAttribute.html" target="_top" xlink:title=" ">
<polygon fill="white" stroke="#666666" points="918,-122 755,-122 755,-70 918,-70 918,-122"/>
<text text-anchor="start" x="763" y="-110" font-family="Helvetica,sans-Serif" font-size="10.00">mlir::python::MLIR</text>
<text text-anchor="start" x="763" y="-99" font-family="Helvetica,sans-Serif" font-size="10.00">_BINDINGS_PYTHON_DOMAIN</text>
<text text-anchor="start" x="763" y="-88" font-family="Helvetica,sans-Serif" font-size="10.00">::PyConcreteAttribute&lt;</text>
<text text-anchor="middle" x="836.5" y="-77" font-family="Helvetica,sans-Serif" font-size="10.00"> PyDenseI32ArrayAttribute &gt;</text>
</a>
</g>
</g>
<!-- Node3&#45;&gt;Node2 -->
<g id="edge2_Node000002_Node000003" class="edge">
<title>Node3&#45;&gt;Node2</title>
<g id="a_edge2_Node000002_Node000003"><a xlink:title=" ">
<path fill="none" stroke="#63b8ff" d="M928.46,-94.6C1017.6,-92.77 1157.28,-88.72 1278,-80 1283.85,-79.58 1289.86,-79.09 1295.92,-78.56"/>
<polygon fill="#63b8ff" stroke="#63b8ff" points="928.31,-91.1 918.38,-94.8 928.45,-98.1 928.31,-91.1"/>
</a>
</g>
</g>
<!-- Node4 -->
<g id="Node000004" class="node">
<title>Node4</title>
<g id="a_Node000004"><a xlink:href="classmlir_1_1python_1_1MLIR__BINDINGS__PYTHON__DOMAIN_1_1PyAttribute.html" target="_top" xlink:title="Wrapper around the generic MlirAttribute.">
<polygon fill="white" stroke="#666666" points="363,-80.5 200,-80.5 200,-39.5 363,-39.5 363,-80.5"/>
<text text-anchor="start" x="208" y="-68.5" font-family="Helvetica,sans-Serif" font-size="10.00">mlir::python::MLIR</text>
<text text-anchor="start" x="208" y="-57.5" font-family="Helvetica,sans-Serif" font-size="10.00">_BINDINGS_PYTHON_DOMAIN</text>
<text text-anchor="middle" x="281.5" y="-46.5" font-family="Helvetica,sans-Serif" font-size="10.00">::PyAttribute</text>
</a>
</g>
</g>
<!-- Node4&#45;&gt;Node3 -->
<g id="edge3_Node000003_Node000004" class="edge">
<title>Node4&#45;&gt;Node3</title>
<g id="a_edge3_Node000003_Node000004"><a xlink:title=" ">
<path fill="none" stroke="#63b8ff" d="M350.24,-83.46C366.36,-88.12 383.64,-92.38 400,-95 522.44,-114.58 666.73,-109.48 754.63,-103.29"/>
<polygon fill="#63b8ff" stroke="#63b8ff" points="350.96,-80.02 340.37,-80.51 348.95,-86.73 350.96,-80.02"/>
</a>
</g>
</g>
<!-- Node6 -->
<g id="Node000006" class="node">
<title>Node6</title>
<g id="a_Node000006"><a xlink:href="classmlir_1_1python_1_1MLIR__BINDINGS__PYTHON__DOMAIN_1_1PyConcreteAttribute.html" target="_top" xlink:title="CRTP base classes for Python attributes that subclass Attribute and should be castable from it (i....">
<polygon fill="white" stroke="#666666" points="563,-86 400,-86 400,-34 563,-34 563,-86"/>
<text text-anchor="start" x="408" y="-74" font-family="Helvetica,sans-Serif" font-size="10.00">mlir::python::MLIR</text>
<text text-anchor="start" x="408" y="-63" font-family="Helvetica,sans-Serif" font-size="10.00">_BINDINGS_PYTHON_DOMAIN</text>
<text text-anchor="start" x="408" y="-52" font-family="Helvetica,sans-Serif" font-size="10.00">::PyConcreteAttribute&lt;</text>
<text text-anchor="middle" x="481.5" y="-41" font-family="Helvetica,sans-Serif" font-size="10.00"> DerivedTy, BaseTy &gt;</text>
</a>
</g>
</g>
<!-- Node4&#45;&gt;Node6 -->
<g id="edge6_Node000006_Node000004" class="edge">
<title>Node4&#45;&gt;Node6</title>
<g id="a_edge6_Node000006_Node000004"><a xlink:title=" ">
<path fill="none" stroke="#63b8ff" d="M373.32,-60C382.12,-60 391.02,-60 399.72,-60"/>
<polygon fill="#63b8ff" stroke="#63b8ff" points="373.03,-56.5 363.03,-60 373.03,-63.5 373.03,-56.5"/>
</a>
</g>
</g>
<!-- Node8 -->
<g id="Node000008" class="node">
<title>Node8</title>
<g id="a_Node000008"><a xlink:href="classmlir_1_1python_1_1MLIR__BINDINGS__PYTHON__DOMAIN_1_1PyConcreteAttribute.html" target="_top" xlink:title=" ">
<polygon fill="white" stroke="#666666" points="918,-52 755,-52 755,0 918,0 918,-52"/>
<text text-anchor="start" x="763" y="-40" font-family="Helvetica,sans-Serif" font-size="10.00">mlir::python::MLIR</text>
<text text-anchor="start" x="763" y="-29" font-family="Helvetica,sans-Serif" font-size="10.00">_BINDINGS_PYTHON_DOMAIN</text>
<text text-anchor="start" x="763" y="-18" font-family="Helvetica,sans-Serif" font-size="10.00">::PyConcreteAttribute&lt;</text>
<text text-anchor="middle" x="836.5" y="-7" font-family="Helvetica,sans-Serif" font-size="10.00"> DerivedT &gt;</text>
</a>
</g>
</g>
<!-- Node4&#45;&gt;Node8 -->
<g id="edge9_Node000008_Node000004" class="edge">
<title>Node4&#45;&gt;Node8</title>
<g id="a_edge9_Node000008_Node000004"><a xlink:title=" ">
<path fill="none" stroke="#63b8ff" d="M349.42,-36.44C365.76,-31.7 383.34,-27.43 400,-25 522.7,-7.11 666.92,-12.55 754.73,-18.78"/>
<polygon fill="#63b8ff" stroke="#63b8ff" points="348,-33.21 339.43,-39.44 350.01,-39.91 348,-33.21"/>
</a>
</g>
</g>
<!-- Node5 -->
<g id="Node000005" class="node">
<title>Node5</title>
<g id="a_Node000005"><a xlink:href="classmlir_1_1python_1_1MLIR__BINDINGS__PYTHON__DOMAIN_1_1BaseContextObject.html" target="_top" xlink:title="Base class for all objects that directly or indirectly depend on an MlirContext.">
<polygon fill="white" stroke="#666666" points="163,-80.5 0,-80.5 0,-39.5 163,-39.5 163,-80.5"/>
<text text-anchor="start" x="8" y="-68.5" font-family="Helvetica,sans-Serif" font-size="10.00">mlir::python::MLIR</text>
<text text-anchor="start" x="8" y="-57.5" font-family="Helvetica,sans-Serif" font-size="10.00">_BINDINGS_PYTHON_DOMAIN</text>
<text text-anchor="middle" x="81.5" y="-46.5" font-family="Helvetica,sans-Serif" font-size="10.00">::BaseContextObject</text>
</a>
</g>
</g>
<!-- Node5&#45;&gt;Node4 -->
<g id="edge4_Node000004_Node000005" class="edge">
<title>Node5&#45;&gt;Node4</title>
<g id="a_edge4_Node000004_Node000005"><a xlink:title=" ">
<path fill="none" stroke="#63b8ff" d="M173.32,-60C182.12,-60 191.02,-60 199.72,-60"/>
<polygon fill="#63b8ff" stroke="#63b8ff" points="173.03,-56.5 163.03,-60 173.03,-63.5 173.03,-56.5"/>
</a>
</g>
</g>
<!-- Node6&#45;&gt;Node3 -->
<g id="edge5_Node000003_Node000006" class="edge">
<title>Node6&#45;&gt;Node3</title>
<g id="a_edge5_Node000003_Node000006"><a xlink:title=" ">
<path fill="none" stroke="orange" stroke-dasharray="5,2" d="M573.29,-67.29C621.9,-71.43 682.77,-76.97 737,-83 742.83,-83.65 748.85,-84.35 754.9,-85.09"/>
<polygon fill="orange" stroke="orange" points="573.37,-63.79 563.11,-66.43 572.78,-70.76 573.37,-63.79"/>
</a>
</g>
<text text-anchor="start" x="584" y="-88.5" font-family="Helvetica,sans-Serif" font-size="10.00" fill="grey">&lt; PyDenseI32ArrayAttribute &gt;</text>
</g>
<!-- Node6&#45;&gt;Node8 -->
<g id="edge10_Node000008_Node000006" class="edge">
<title>Node6&#45;&gt;Node8</title>
<g id="a_edge10_Node000008_Node000006"><a xlink:title=" ">
<path fill="none" stroke="orange" stroke-dasharray="5,2" d="M572.93,-43.05C575.65,-42.68 578.34,-42.33 581,-42 638.9,-34.92 704.61,-30.88 754.76,-28.64"/>
<polygon fill="orange" stroke="orange" points="572.41,-39.59 563.01,-44.49 573.41,-46.52 572.41,-39.59"/>
</a>
</g>
<text text-anchor="start" x="626" y="-47.5" font-family="Helvetica,sans-Serif" font-size="10.00" fill="grey">&lt; DerivedT &gt;</text>
</g>
<!-- Node7 -->
<g id="Node000007" class="node">
<title>Node7</title>
<g id="a_Node000007"><a xlink:href="classmlir_1_1python_1_1MLIR__BINDINGS__PYTHON__DOMAIN_1_1PyDenseArrayAttribute.html" target="_top" xlink:title="A python&#45;wrapped dense array attribute with an element type and a derived implementation class.">
<polygon fill="white" stroke="#666666" points="1118,-64 955,-64 955,-12 1118,-12 1118,-64"/>
<text text-anchor="start" x="963" y="-52" font-family="Helvetica,sans-Serif" font-size="10.00">mlir::python::MLIR</text>
<text text-anchor="start" x="963" y="-41" font-family="Helvetica,sans-Serif" font-size="10.00">_BINDINGS_PYTHON_DOMAIN</text>
<text text-anchor="start" x="963" y="-30" font-family="Helvetica,sans-Serif" font-size="10.00">::PyDenseArrayAttribute</text>
<text text-anchor="middle" x="1036.5" y="-19" font-family="Helvetica,sans-Serif" font-size="10.00">&lt; EltTy, DerivedT &gt;</text>
</a>
</g>
</g>
<!-- Node7&#45;&gt;Node2 -->
<g id="edge7_Node000002_Node000007" class="edge">
<title>Node7&#45;&gt;Node2</title>
<g id="a_edge7_Node000002_Node000007"><a xlink:title=" ">
<path fill="none" stroke="orange" stroke-dasharray="5,2" d="M1128.16,-39.3C1173.29,-40.57 1228.61,-43.08 1278,-48 1283.88,-48.59 1289.9,-49.27 1295.98,-50.03"/>
<polygon fill="orange" stroke="orange" points="1128.19,-35.8 1118.1,-39.03 1128.01,-42.8 1128.19,-35.8"/>
</a>
</g>
<text text-anchor="start" x="1139" y="-69" font-family="Helvetica,sans-Serif" font-size="10.00" fill="grey">&lt; int32_t, PyDenseI32Array</text>
<text text-anchor="start" x="1139" y="-54" font-family="Helvetica,sans-Serif" font-size="10.00" fill="grey">  Attribute &gt;</text>
</g>
<!-- Node8&#45;&gt;Node7 -->
<g id="edge8_Node000007_Node000008" class="edge">
<title>Node8&#45;&gt;Node7</title>
<g id="a_edge8_Node000007_Node000008"><a xlink:title=" ">
<path fill="none" stroke="#63b8ff" d="M928.03,-31.49C936.93,-32.03 945.92,-32.57 954.72,-33.1"/>
<polygon fill="#63b8ff" stroke="#63b8ff" points="928.23,-27.99 918.03,-30.88 927.8,-34.98 928.23,-27.99"/>
</a>
</g>
</g>
</g>
</svg>
