<?xml version="1.0" encoding="UTF-8" standalone="no"?>
<!DOCTYPE svg PUBLIC "-//W3C//DTD SVG 1.1//EN"
 "http://www.w3.org/Graphics/SVG/1.1/DTD/svg11.dtd">
<!-- Generated by graphviz version 2.43.0 (0)
 -->
<!-- Title: mlir::SideEffects::AutomaticAllocationScopeResource Pages: 1 -->
<svg width="1437pt" height="75pt"
 viewBox="0.00 0.00 1437.00 74.50" xmlns="http://www.w3.org/2000/svg" xmlns:xlink="http://www.w3.org/1999/xlink">
<g id="graph0" class="graph" transform="scale(1 1) rotate(0) translate(4 70.5)">
<title>mlir::SideEffects::AutomaticAllocationScopeResource</title>
<!-- Node1 -->
<g id="Node000001" class="node">
<title>Node1</title>
<g id="a_Node000001"><a xlink:title="An automatic allocation&#45;scope resource that is valid in the context of a parent AutomaticAllocationSc...">
<polygon fill="#999999" stroke="#666666" points="1429,-36.5 1239,-36.5 1239,-6.5 1429,-6.5 1429,-36.5"/>
<text text-anchor="start" x="1247" y="-24.5" font-family="Helvetica,sans-Serif" font-size="10.00">mlir::SideEffects::</text>
<text text-anchor="middle" x="1334" y="-13.5" font-family="Helvetica,sans-Serif" font-size="10.00">AutomaticAllocationScopeResource</text>
</a>
</g>
</g>
<!-- Node2 -->
<g id="Node000002" class="node">
<title>Node2</title>
<g id="a_Node000002"><a xlink:href="classmlir_1_1SideEffects_1_1Resource_1_1Base.html" target="_top" xlink:title=" ">
<polygon fill="white" stroke="#666666" points="1202,-42 1000,-42 1000,-1 1202,-1 1202,-42"/>
<text text-anchor="start" x="1008" y="-30" font-family="Helvetica,sans-Serif" font-size="10.00">mlir::SideEffects::</text>
<text text-anchor="start" x="1008" y="-19" font-family="Helvetica,sans-Serif" font-size="10.00">Resource::Base&lt; AutomaticAllocation</text>
<text text-anchor="middle" x="1101" y="-8" font-family="Helvetica,sans-Serif" font-size="10.00">ScopeResource, DefaultResource &gt;</text>
</a>
</g>
</g>
<!-- Node2&#45;&gt;Node1 -->
<g id="edge1_Node000001_Node000002" class="edge">
<title>Node2&#45;&gt;Node1</title>
<g id="a_edge1_Node000001_Node000002"><a xlink:title=" ">
<path fill="none" stroke="#63b8ff" d="M1212.34,-21.5C1221.25,-21.5 1230.2,-21.5 1238.97,-21.5"/>
<polygon fill="#63b8ff" stroke="#63b8ff" points="1212.31,-18 1202.31,-21.5 1212.31,-25 1212.31,-18"/>
</a>
</g>
</g>
<!-- Node3 -->
<g id="Node000003" class="node">
<title>Node3</title>
<g id="a_Node000003"><a xlink:href="structmlir_1_1SideEffects_1_1DefaultResource.html" target="_top" xlink:title="The default resource kind.">
<polygon fill="white" stroke="#666666" points="963,-64.5 861,-64.5 861,-34.5 963,-34.5 963,-64.5"/>
<text text-anchor="start" x="869" y="-52.5" font-family="Helvetica,sans-Serif" font-size="10.00">mlir::SideEffects::</text>
<text text-anchor="middle" x="912" y="-41.5" font-family="Helvetica,sans-Serif" font-size="10.00">DefaultResource</text>
</a>
</g>
</g>
<!-- Node3&#45;&gt;Node2 -->
<g id="edge2_Node000002_Node000003" class="edge">
<title>Node3&#45;&gt;Node2</title>
<g id="a_edge2_Node000002_Node000003"><a xlink:title=" ">
<path fill="none" stroke="#63b8ff" d="M973.03,-40.51C981.67,-39.22 990.75,-37.86 999.92,-36.49"/>
<polygon fill="#63b8ff" stroke="#63b8ff" points="972.48,-37.05 963.11,-42 973.52,-43.98 972.48,-37.05"/>
</a>
</g>
</g>
<!-- Node4 -->
<g id="Node000004" class="node">
<title>Node4</title>
<g id="a_Node000004"><a xlink:href="classmlir_1_1SideEffects_1_1Resource_1_1Base.html" target="_top" xlink:title=" ">
<polygon fill="white" stroke="#666666" points="669,-66.5 474,-66.5 474,-36.5 669,-36.5 669,-66.5"/>
<text text-anchor="start" x="482" y="-54.5" font-family="Helvetica,sans-Serif" font-size="10.00">mlir::SideEffects::</text>
<text text-anchor="middle" x="571.5" y="-43.5" font-family="Helvetica,sans-Serif" font-size="10.00">Resource::Base&lt; DefaultResource &gt;</text>
</a>
</g>
</g>
<!-- Node4&#45;&gt;Node3 -->
<g id="edge3_Node000003_Node000004" class="edge">
<title>Node4&#45;&gt;Node3</title>
<g id="a_edge3_Node000003_Node000004"><a xlink:title=" ">
<path fill="none" stroke="#63b8ff" d="M679.07,-50.87C739.82,-50.51 813.12,-50.08 860.83,-49.8"/>
<polygon fill="#63b8ff" stroke="#63b8ff" points="679.03,-47.37 669.05,-50.93 679.07,-54.37 679.03,-47.37"/>
</a>
</g>
</g>
<!-- Node5 -->
<g id="Node000005" class="node">
<title>Node5</title>
<g id="a_Node000005"><a xlink:href="classmlir_1_1SideEffects_1_1Resource.html" target="_top" xlink:title="This class represents a specific resource that an effect applies to.">
<polygon fill="white" stroke="#666666" points="102,-59.5 0,-59.5 0,-29.5 102,-29.5 102,-59.5"/>
<text text-anchor="start" x="8" y="-47.5" font-family="Helvetica,sans-Serif" font-size="10.00">mlir::SideEffects::</text>
<text text-anchor="middle" x="51" y="-36.5" font-family="Helvetica,sans-Serif" font-size="10.00">Resource</text>
</a>
</g>
</g>
<!-- Node5&#45;&gt;Node4 -->
<g id="edge4_Node000004_Node000005" class="edge">
<title>Node5&#45;&gt;Node4</title>
<g id="a_edge4_Node000004_Node000005"><a xlink:title=" ">
<path fill="none" stroke="#63b8ff" d="M112.17,-49C121.16,-49.57 130.32,-50.1 139,-50.5 279.75,-57.05 315.12,-57.96 456,-55.5 461.87,-55.4 467.9,-55.27 473.99,-55.11"/>
<polygon fill="#63b8ff" stroke="#63b8ff" points="112.33,-45.5 102.12,-48.34 111.87,-52.49 112.33,-45.5"/>
</a>
</g>
</g>
<!-- Node6 -->
<g id="Node000006" class="node">
<title>Node6</title>
<g id="a_Node000006"><a xlink:href="classmlir_1_1SideEffects_1_1Resource_1_1Base.html" target="_top" xlink:title="This base class is used for derived effects that are non&#45;parametric.">
<polygon fill="white" stroke="#666666" points="328,-41 139,-41 139,0 328,0 328,-41"/>
<text text-anchor="start" x="147" y="-29" font-family="Helvetica,sans-Serif" font-size="10.00">mlir::SideEffects::</text>
<text text-anchor="start" x="147" y="-18" font-family="Helvetica,sans-Serif" font-size="10.00">Resource::Base&lt; DerivedResource,</text>
<text text-anchor="middle" x="233.5" y="-7" font-family="Helvetica,sans-Serif" font-size="10.00"> BaseResource &gt;</text>
</a>
</g>
</g>
<!-- Node5&#45;&gt;Node6 -->
<g id="edge6_Node000006_Node000005" class="edge">
<title>Node5&#45;&gt;Node6</title>
<g id="a_edge6_Node000006_Node000005"><a xlink:title=" ">
<path fill="none" stroke="#63b8ff" d="M112.2,-36.5C120.82,-35.35 129.86,-34.15 138.95,-32.94"/>
<polygon fill="#63b8ff" stroke="#63b8ff" points="111.73,-33.03 102.28,-37.81 112.65,-39.97 111.73,-33.03"/>
</a>
</g>
</g>
<!-- Node6&#45;&gt;Node2 -->
<g id="edge7_Node000002_Node000006" class="edge">
<title>Node6&#45;&gt;Node2</title>
<g id="a_edge7_Node000002_Node000006"><a xlink:title=" ">
<path fill="none" stroke="orange" stroke-dasharray="5,2" d="M338.07,-17.6C459.16,-14.61 665.63,-10.74 843,-13.5 894.78,-14.31 952.4,-16.02 999.94,-17.66"/>
<polygon fill="orange" stroke="orange" points="337.97,-14.1 328.06,-17.85 338.15,-21.1 337.97,-14.1"/>
</a>
</g>
<text text-anchor="start" x="690" y="-34.5" font-family="Helvetica,sans-Serif" font-size="10.00" fill="grey">&lt; AutomaticAllocationScope</text>
<text text-anchor="start" x="690" y="-19.5" font-family="Helvetica,sans-Serif" font-size="10.00" fill="grey">  Resource, DefaultResource &gt;</text>
</g>
<!-- Node6&#45;&gt;Node4 -->
<g id="edge5_Node000004_Node000006" class="edge">
<title>Node6&#45;&gt;Node4</title>
<g id="a_edge5_Node000004_Node000006"><a xlink:title=" ">
<path fill="none" stroke="orange" stroke-dasharray="5,2" d="M338.39,-28.25C375.52,-31.21 417.65,-34.77 456,-38.5 461.77,-39.06 467.71,-39.66 473.7,-40.29"/>
<polygon fill="orange" stroke="orange" points="338.3,-24.73 328.05,-27.44 337.75,-31.71 338.3,-24.73"/>
</a>
</g>
<text text-anchor="start" x="349" y="-44" font-family="Helvetica,sans-Serif" font-size="10.00" fill="grey">&lt; DefaultResource &gt;</text>
</g>
</g>
</svg>
