<?xml version="1.0" encoding="UTF-8" standalone="no"?>
<!DOCTYPE svg PUBLIC "-//W3C//DTD SVG 1.1//EN"
 "http://www.w3.org/Graphics/SVG/1.1/DTD/svg11.dtd">
<!-- Generated by graphviz version 2.43.0 (0)
 -->
<!-- Title: ShardingPropagation Pages: 1 -->
<svg width="1359pt" height="74pt"
 viewBox="0.00 0.00 1359.00 74.00" xmlns="http://www.w3.org/2000/svg" xmlns:xlink="http://www.w3.org/1999/xlink">
<g id="graph0" class="graph" transform="scale(1 1) rotate(0) translate(4 70)">
<title>ShardingPropagation</title>
<!-- Node1 -->
<g id="Node000001" class="node">
<title>Node1</title>
<g id="a_Node000001"><a xlink:title=" ">
<polygon fill="#999999" stroke="#666666" points="1351,-55 1233,-55 1233,-36 1351,-36 1351,-55"/>
<text text-anchor="middle" x="1292" y="-43" font-family="Helvetica,sans-Serif" font-size="10.00">ShardingPropagation</text>
</a>
</g>
</g>
<!-- Node2 -->
<g id="Node000002" class="node">
<title>Node2</title>
<g id="a_Node000002"><a xlink:href="classmlir_1_1shard_1_1impl_1_1ShardingPropagationBase.html" target="_top" xlink:title=" ">
<polygon fill="white" stroke="#666666" points="1196,-66 1054,-66 1054,-25 1196,-25 1196,-66"/>
<text text-anchor="start" x="1062" y="-54" font-family="Helvetica,sans-Serif" font-size="10.00">mlir::shard::impl::</text>
<text text-anchor="start" x="1062" y="-43" font-family="Helvetica,sans-Serif" font-size="10.00">ShardingPropagationBase</text>
<text text-anchor="middle" x="1125" y="-32" font-family="Helvetica,sans-Serif" font-size="10.00">&lt; ShardingPropagation &gt;</text>
</a>
</g>
</g>
<!-- Node2&#45;&gt;Node1 -->
<g id="edge1_Node000001_Node000002" class="edge">
<title>Node2&#45;&gt;Node1</title>
<g id="a_edge1_Node000001_Node000002"><a xlink:title=" ">
<path fill="none" stroke="#63b8ff" d="M1206.5,-45.5C1215.43,-45.5 1224.39,-45.5 1232.96,-45.5"/>
<polygon fill="#63b8ff" stroke="#63b8ff" points="1206.45,-42 1196.45,-45.5 1206.45,-49 1206.45,-42"/>
</a>
</g>
</g>
<!-- Node3 -->
<g id="Node000003" class="node">
<title>Node3</title>
<g id="a_Node000003"><a xlink:href="classmlir_1_1InterfacePass.html" target="_top" xlink:title=" ">
<polygon fill="white" stroke="#666666" points="709,-59.5 546,-59.5 546,-29.5 709,-29.5 709,-59.5"/>
<text text-anchor="start" x="554" y="-47.5" font-family="Helvetica,sans-Serif" font-size="10.00">mlir::InterfacePass</text>
<text text-anchor="middle" x="627.5" y="-36.5" font-family="Helvetica,sans-Serif" font-size="10.00">&lt; mlir::FunctionOpInterface &gt;</text>
</a>
</g>
</g>
<!-- Node3&#45;&gt;Node2 -->
<g id="edge2_Node000002_Node000003" class="edge">
<title>Node3&#45;&gt;Node2</title>
<g id="a_edge2_Node000002_Node000003"><a xlink:title=" ">
<path fill="none" stroke="#63b8ff" d="M719.27,-48.41C728.3,-48.78 737.33,-49.15 746,-49.5 874.81,-54.66 907.29,-62.79 1036,-55.5 1041.83,-55.17 1047.87,-54.72 1053.93,-54.19"/>
<polygon fill="#63b8ff" stroke="#63b8ff" points="719.22,-44.9 709.09,-47.98 718.93,-51.9 719.22,-44.9"/>
</a>
</g>
</g>
<!-- Node7 -->
<g id="Node000007" class="node">
<title>Node7</title>
<g id="a_Node000007"><a xlink:href="classmlir_1_1shard_1_1impl_1_1ShardingPropagationBase.html" target="_top" xlink:title=" ">
<polygon fill="white" stroke="#666666" points="888,-41 746,-41 746,0 888,0 888,-41"/>
<text text-anchor="start" x="754" y="-29" font-family="Helvetica,sans-Serif" font-size="10.00">mlir::shard::impl::</text>
<text text-anchor="start" x="754" y="-18" font-family="Helvetica,sans-Serif" font-size="10.00">ShardingPropagationBase</text>
<text text-anchor="middle" x="817" y="-7" font-family="Helvetica,sans-Serif" font-size="10.00">&lt; DerivedT &gt;</text>
</a>
</g>
</g>
<!-- Node3&#45;&gt;Node7 -->
<g id="edge8_Node000007_Node000003" class="edge">
<title>Node3&#45;&gt;Node7</title>
<g id="a_edge8_Node000007_Node000003"><a xlink:title=" ">
<path fill="none" stroke="#63b8ff" d="M719.17,-32.89C728.12,-31.75 737.1,-30.6 745.79,-29.49"/>
<polygon fill="#63b8ff" stroke="#63b8ff" points="718.58,-29.44 709.11,-34.18 719.47,-36.38 718.58,-29.44"/>
</a>
</g>
</g>
<!-- Node4 -->
<g id="Node000004" class="node">
<title>Node4</title>
<g id="a_Node000004"><a xlink:href="classmlir_1_1OperationPass.html" target="_top" xlink:title="Pass to transform an operation of a specific type.">
<polygon fill="white" stroke="#666666" points="213,-58.5 101,-58.5 101,-28.5 213,-28.5 213,-58.5"/>
<text text-anchor="start" x="109" y="-46.5" font-family="Helvetica,sans-Serif" font-size="10.00">mlir::OperationPass</text>
<text text-anchor="middle" x="157" y="-35.5" font-family="Helvetica,sans-Serif" font-size="10.00">&lt; OpT &gt;</text>
</a>
</g>
</g>
<!-- Node4&#45;&gt;Node3 -->
<g id="edge3_Node000003_Node000004" class="edge">
<title>Node4&#45;&gt;Node3</title>
<g id="a_edge3_Node000003_Node000004"><a xlink:title=" ">
<path fill="none" stroke="#63b8ff" d="M223.27,-47.16C297.21,-50.79 421.29,-55.29 528,-51.5 533.83,-51.29 539.84,-51.02 545.89,-50.7"/>
<polygon fill="#63b8ff" stroke="#63b8ff" points="223.34,-43.66 213.18,-46.66 222.99,-50.65 223.34,-43.66"/>
</a>
</g>
</g>
<!-- Node6 -->
<g id="Node000006" class="node">
<title>Node6</title>
<g id="a_Node000006"><a xlink:href="classmlir_1_1InterfacePass.html" target="_top" xlink:title="Pass to transform an operation that implements the given interface.">
<polygon fill="white" stroke="#666666" points="357,-37.5 250,-37.5 250,-7.5 357,-7.5 357,-37.5"/>
<text text-anchor="start" x="258" y="-25.5" font-family="Helvetica,sans-Serif" font-size="10.00">mlir::InterfacePass</text>
<text text-anchor="middle" x="303.5" y="-14.5" font-family="Helvetica,sans-Serif" font-size="10.00">&lt; InterfaceT &gt;</text>
</a>
</g>
</g>
<!-- Node4&#45;&gt;Node6 -->
<g id="edge6_Node000006_Node000004" class="edge">
<title>Node4&#45;&gt;Node6</title>
<g id="a_edge6_Node000006_Node000004"><a xlink:title=" ">
<path fill="none" stroke="#63b8ff" d="M223.11,-34.04C232.11,-32.73 241.26,-31.4 249.99,-30.13"/>
<polygon fill="#63b8ff" stroke="#63b8ff" points="222.43,-30.6 213.04,-35.5 223.44,-37.53 222.43,-30.6"/>
</a>
</g>
</g>
<!-- Node5 -->
<g id="Node000005" class="node">
<title>Node5</title>
<g id="a_Node000005"><a xlink:href="classmlir_1_1Pass.html" target="_top" xlink:title="The abstract base pass class.">
<polygon fill="white" stroke="#666666" points="64,-53 0,-53 0,-34 64,-34 64,-53"/>
<text text-anchor="middle" x="32" y="-41" font-family="Helvetica,sans-Serif" font-size="10.00">mlir::Pass</text>
</a>
</g>
</g>
<!-- Node5&#45;&gt;Node4 -->
<g id="edge4_Node000004_Node000005" class="edge">
<title>Node5&#45;&gt;Node4</title>
<g id="a_edge4_Node000004_Node000005"><a xlink:title=" ">
<path fill="none" stroke="#63b8ff" d="M74.06,-43.5C82.55,-43.5 91.64,-43.5 100.55,-43.5"/>
<polygon fill="#63b8ff" stroke="#63b8ff" points="74.04,-40 64.04,-43.5 74.04,-47 74.04,-40"/>
</a>
</g>
</g>
<!-- Node6&#45;&gt;Node3 -->
<g id="edge5_Node000003_Node000006" class="edge">
<title>Node6&#45;&gt;Node3</title>
<g id="a_edge5_Node000003_Node000006"><a xlink:title=" ">
<path fill="none" stroke="orange" stroke-dasharray="5,2" d="M367.53,-25.08C412.34,-27.12 473.91,-30.3 528,-34.5 533.83,-34.95 539.84,-35.46 545.9,-36"/>
<polygon fill="orange" stroke="orange" points="367.53,-21.58 357.38,-24.63 367.21,-28.57 367.53,-21.58"/>
</a>
</g>
<text text-anchor="start" x="378.5" y="-40" font-family="Helvetica,sans-Serif" font-size="10.00" fill="grey">&lt; mlir::FunctionOpInterface &gt;</text>
</g>
<!-- Node7&#45;&gt;Node2 -->
<g id="edge7_Node000002_Node000007" class="edge">
<title>Node7&#45;&gt;Node2</title>
<g id="a_edge7_Node000002_Node000007"><a xlink:title=" ">
<path fill="none" stroke="orange" stroke-dasharray="5,2" d="M898.31,-27.06C946.61,-31.01 1007.5,-35.98 1053.86,-39.77"/>
<polygon fill="orange" stroke="orange" points="898.45,-23.56 888.2,-26.24 897.88,-30.54 898.45,-23.56"/>
</a>
</g>
<text text-anchor="start" x="909" y="-44" font-family="Helvetica,sans-Serif" font-size="10.00" fill="grey">&lt; ShardingPropagation &gt;</text>
</g>
</g>
</svg>
