<?xml version="1.0" encoding="UTF-8" standalone="no"?>
<!DOCTYPE svg PUBLIC "-//W3C//DTD SVG 1.1//EN"
 "http://www.w3.org/Graphics/SVG/1.1/DTD/svg11.dtd">
<!-- Generated by graphviz version 2.43.0 (0)
 -->
<!-- Title: mlir::pdll::ast::detail::ValueTypeStorage Pages: 1 -->
<svg width="948pt" height="75pt"
 viewBox="0.00 0.00 948.00 75.00" xmlns="http://www.w3.org/2000/svg" xmlns:xlink="http://www.w3.org/1999/xlink">
<g id="graph0" class="graph" transform="scale(1 1) rotate(0) translate(4 71)">
<title>mlir::pdll::ast::detail::ValueTypeStorage</title>
<!-- Node1 -->
<g id="node1" class="node">
<title>Node1</title>
<g id="a_node1"><a xlink:title=" ">
<polygon fill="#bfbfbf" stroke="black" points="825,-31 825,-61 940,-61 940,-31 825,-31"/>
<text text-anchor="start" x="833" y="-49" font-family="Helvetica,sans-Serif" font-size="10.00">mlir::pdll::ast::detail</text>
<text text-anchor="middle" x="882.5" y="-38" font-family="Helvetica,sans-Serif" font-size="10.00">::ValueTypeStorage</text>
</a>
</g>
</g>
<!-- Node2 -->
<g id="node2" class="node">
<title>Node2</title>
<g id="a_node2"><a xlink:href="structmlir_1_1pdll_1_1ast_1_1detail_1_1TypeStorageBase.html" target="_top" xlink:title=" ">
<polygon fill="none" stroke="black" points="621,-25.5 621,-66.5 788,-66.5 788,-25.5 621,-25.5"/>
<text text-anchor="start" x="629" y="-54.5" font-family="Helvetica,sans-Serif" font-size="10.00">mlir::pdll::ast::detail</text>
<text text-anchor="start" x="629" y="-43.5" font-family="Helvetica,sans-Serif" font-size="10.00">::TypeStorageBase&lt; ValueType</text>
<text text-anchor="middle" x="704.5" y="-32.5" font-family="Helvetica,sans-Serif" font-size="10.00">Storage &gt;</text>
</a>
</g>
</g>
<!-- Node2&#45;&gt;Node1 -->
<g id="edge1" class="edge">
<title>Node2&#45;&gt;Node1</title>
<path fill="none" stroke="midnightblue" d="M798.28,-46C807.31,-46 816.26,-46 824.77,-46"/>
<polygon fill="midnightblue" stroke="midnightblue" points="798.09,-42.5 788.09,-46 798.09,-49.5 798.09,-42.5"/>
</g>
<!-- Node3 -->
<g id="node3" class="node">
<title>Node3</title>
<g id="a_node3"><a xlink:href="structmlir_1_1pdll_1_1ast_1_1Type_1_1Storage.html" target="_top" xlink:title=" ">
<polygon fill="none" stroke="black" points="155,-30 155,-60 265,-60 265,-30 155,-30"/>
<text text-anchor="start" x="163" y="-48" font-family="Helvetica,sans-Serif" font-size="10.00">mlir::pdll::ast::Type</text>
<text text-anchor="middle" x="210" y="-37" font-family="Helvetica,sans-Serif" font-size="10.00">::Storage</text>
</a>
</g>
</g>
<!-- Node3&#45;&gt;Node2 -->
<g id="edge2" class="edge">
<title>Node3&#45;&gt;Node2</title>
<path fill="none" stroke="midnightblue" d="M275.36,-49.79C284.3,-50.3 293.38,-50.73 302,-51 435.71,-55.23 469.3,-57.65 603,-53 608.86,-52.8 614.9,-52.53 620.98,-52.21"/>
<polygon fill="midnightblue" stroke="midnightblue" points="275.54,-46.3 265.35,-49.19 275.12,-53.29 275.54,-46.3"/>
</g>
<!-- Node5 -->
<g id="node5" class="node">
<title>Node5</title>
<g id="a_node5"><a xlink:href="structmlir_1_1pdll_1_1ast_1_1detail_1_1TypeStorageBase.html" target="_top" xlink:title="A utility CRTP base class that defines many of the necessary utilities for defining a PDLL AST Type.">
<polygon fill="none" stroke="black" points="302,-0.5 302,-41.5 472,-41.5 472,-0.5 302,-0.5"/>
<text text-anchor="start" x="310" y="-29.5" font-family="Helvetica,sans-Serif" font-size="10.00">mlir::pdll::ast::detail</text>
<text text-anchor="start" x="310" y="-18.5" font-family="Helvetica,sans-Serif" font-size="10.00">::TypeStorageBase&lt; ConcreteT,</text>
<text text-anchor="middle" x="387" y="-7.5" font-family="Helvetica,sans-Serif" font-size="10.00"> KeyT &gt;</text>
</a>
</g>
</g>
<!-- Node3&#45;&gt;Node5 -->
<g id="edge5" class="edge">
<title>Node3&#45;&gt;Node5</title>
<path fill="none" stroke="midnightblue" d="M275.34,-36.18C283.94,-35 292.86,-33.77 301.74,-32.56"/>
<polygon fill="midnightblue" stroke="midnightblue" points="274.84,-32.71 265.41,-37.54 275.79,-39.65 274.84,-32.71"/>
</g>
<!-- Node4 -->
<g id="node4" class="node">
<title>Node4</title>
<g id="a_node4"><a xlink:href="classmlir_1_1StorageUniquer_1_1BaseStorage.html" target="_top" xlink:title="This class acts as the base storage that all storage classes must derived from.">
<polygon fill="none" stroke="black" points="0,-30 0,-60 118,-60 118,-30 0,-30"/>
<text text-anchor="start" x="8" y="-48" font-family="Helvetica,sans-Serif" font-size="10.00">mlir::StorageUniquer</text>
<text text-anchor="middle" x="59" y="-37" font-family="Helvetica,sans-Serif" font-size="10.00">::BaseStorage</text>
</a>
</g>
</g>
<!-- Node4&#45;&gt;Node3 -->
<g id="edge3" class="edge">
<title>Node4&#45;&gt;Node3</title>
<path fill="none" stroke="midnightblue" d="M128.06,-45C137.02,-45 146.1,-45 154.78,-45"/>
<polygon fill="midnightblue" stroke="midnightblue" points="128.03,-41.5 118.03,-45 128.03,-48.5 128.03,-41.5"/>
</g>
<!-- Node5&#45;&gt;Node2 -->
<g id="edge4" class="edge">
<title>Node5&#45;&gt;Node2</title>
<path fill="none" stroke="orange" stroke-dasharray="5,2" d="M482.29,-28.47C526.39,-31.97 578.44,-36.09 620.97,-39.46"/>
<polygon fill="orange" stroke="orange" points="482.38,-24.97 472.13,-27.67 481.83,-31.95 482.38,-24.97"/>
<text text-anchor="middle" x="546.5" y="-41" font-family="Helvetica,sans-Serif" font-size="10.00"> &lt; ValueTypeStorage &gt;</text>
</g>
</g>
</svg>
