<?xml version="1.0" encoding="UTF-8" standalone="no"?>
<!DOCTYPE svg PUBLIC "-//W3C//DTD SVG 1.1//EN"
 "http://www.w3.org/Graphics/SVG/1.1/DTD/svg11.dtd">
<!-- Generated by graphviz version 2.43.0 (0)
 -->
<!-- Title: ConvertAddressOf Pages: 1 -->
<svg width="378pt" height="491pt"
 viewBox="0.00 0.00 377.50 491.00" xmlns="http://www.w3.org/2000/svg" xmlns:xlink="http://www.w3.org/1999/xlink">
<g id="graph0" class="graph" transform="scale(1 1) rotate(0) translate(4 487)">
<title>ConvertAddressOf</title>
<!-- Node1 -->
<g id="node1" class="node">
<title>Node1</title>
<g id="a_node1"><a xlink:title=" ">
<polygon fill="#bfbfbf" stroke="black" points="29.5,-0.5 29.5,-19.5 134.5,-19.5 134.5,-0.5 29.5,-0.5"/>
<text text-anchor="middle" x="82" y="-7.5" font-family="Helvetica,sans-Serif" font-size="10.00">ConvertAddressOf</text>
</a>
</g>
</g>
<!-- Node2 -->
<g id="node2" class="node">
<title>Node2</title>
<g id="a_node2"><a xlink:href="classConvertAliasResource.html" target="_top" xlink:title=" ">
<polygon fill="none" stroke="black" points="16,-57.5 16,-87.5 148,-87.5 148,-57.5 16,-57.5"/>
<text text-anchor="start" x="24" y="-75.5" font-family="Helvetica,sans-Serif" font-size="10.00">ConvertAliasResource</text>
<text text-anchor="middle" x="82" y="-64.5" font-family="Helvetica,sans-Serif" font-size="10.00">&lt; spirv::AddressOfOp &gt;</text>
</a>
</g>
</g>
<!-- Node2&#45;&gt;Node1 -->
<g id="edge1" class="edge">
<title>Node2&#45;&gt;Node1</title>
<path fill="none" stroke="midnightblue" d="M82,-47.35C82,-37.51 82,-26.78 82,-19.54"/>
<polygon fill="midnightblue" stroke="midnightblue" points="78.5,-47.47 82,-57.47 85.5,-47.47 78.5,-47.47"/>
</g>
<!-- Node3 -->
<g id="node3" class="node">
<title>Node3</title>
<g id="a_node3"><a xlink:title=" ">
<polygon fill="none" stroke="#bfbfbf" points="0,-135.5 0,-165.5 132,-165.5 132,-135.5 0,-135.5"/>
<text text-anchor="start" x="8" y="-153.5" font-family="Helvetica,sans-Serif" font-size="10.00">OpConversionPattern</text>
<text text-anchor="middle" x="66" y="-142.5" font-family="Helvetica,sans-Serif" font-size="10.00">&lt; spirv::AddressOfOp &gt;</text>
</a>
</g>
</g>
<!-- Node3&#45;&gt;Node2 -->
<g id="edge2" class="edge">
<title>Node3&#45;&gt;Node2</title>
<path fill="none" stroke="midnightblue" d="M71.14,-125.09C73.74,-112.76 76.8,-98.22 79,-87.73"/>
<polygon fill="midnightblue" stroke="midnightblue" points="67.64,-124.7 69.01,-135.2 74.49,-126.14 67.64,-124.7"/>
</g>
<!-- Node4 -->
<g id="node4" class="node">
<title>Node4</title>
<g id="a_node4"><a xlink:href="classConvertAliasResource.html" target="_top" xlink:title=" ">
<polygon fill="none" stroke="black" points="150,-135.5 150,-165.5 274,-165.5 274,-135.5 150,-135.5"/>
<text text-anchor="start" x="158" y="-153.5" font-family="Helvetica,sans-Serif" font-size="10.00">ConvertAliasResource</text>
<text text-anchor="middle" x="212" y="-142.5" font-family="Helvetica,sans-Serif" font-size="10.00">&lt; OpTy &gt;</text>
</a>
</g>
</g>
<!-- Node4&#45;&gt;Node2 -->
<g id="edge3" class="edge">
<title>Node4&#45;&gt;Node2</title>
<path fill="none" stroke="orange" stroke-dasharray="5,2" d="M179.19,-130.32C156.42,-117.01 126.59,-99.57 106.02,-87.54"/>
<polygon fill="orange" stroke="orange" points="177.45,-133.36 187.85,-135.38 180.99,-127.31 177.45,-133.36"/>
<text text-anchor="middle" x="214.5" y="-109" font-family="Helvetica,sans-Serif" font-size="10.00"> &lt; spirv::AddressOfOp &gt;</text>
</g>
<!-- Node5 -->
<g id="node5" class="node">
<title>Node5</title>
<g id="a_node5"><a xlink:href="classmlir_1_1OpConversionPattern.html" target="_top" xlink:title=" ">
<polygon fill="none" stroke="black" points="139.5,-203.5 139.5,-233.5 284.5,-233.5 284.5,-203.5 139.5,-203.5"/>
<text text-anchor="start" x="147.5" y="-221.5" font-family="Helvetica,sans-Serif" font-size="10.00">mlir::OpConversionPattern</text>
<text text-anchor="middle" x="212" y="-210.5" font-family="Helvetica,sans-Serif" font-size="10.00">&lt; OpTy &gt;</text>
</a>
</g>
</g>
<!-- Node5&#45;&gt;Node4 -->
<g id="edge4" class="edge">
<title>Node5&#45;&gt;Node4</title>
<path fill="none" stroke="midnightblue" d="M212,-193.03C212,-183.86 212,-173.74 212,-165.79"/>
<polygon fill="midnightblue" stroke="midnightblue" points="208.5,-193.18 212,-203.18 215.5,-193.18 208.5,-193.18"/>
</g>
<!-- Node6 -->
<g id="node6" class="node">
<title>Node6</title>
<g id="a_node6"><a xlink:href="classmlir_1_1ConversionPattern.html" target="_top" xlink:title="Base class for the conversion patterns.">
<polygon fill="none" stroke="black" points="142.5,-349.5 142.5,-368.5 273.5,-368.5 273.5,-349.5 142.5,-349.5"/>
<text text-anchor="middle" x="208" y="-356.5" font-family="Helvetica,sans-Serif" font-size="10.00">mlir::ConversionPattern</text>
</a>
</g>
</g>
<!-- Node6&#45;&gt;Node5 -->
<g id="edge5" class="edge">
<title>Node6&#45;&gt;Node5</title>
<path fill="none" stroke="midnightblue" d="M208.54,-339.25C209.35,-311.19 210.86,-258.88 211.59,-233.73"/>
<polygon fill="midnightblue" stroke="midnightblue" points="205.04,-339.24 208.25,-349.34 212.04,-339.44 205.04,-339.24"/>
</g>
<!-- Node9 -->
<g id="node9" class="node">
<title>Node9</title>
<g id="a_node9"><a xlink:href="classmlir_1_1OpConversionPattern.html" target="_top" xlink:title="OpConversionPattern is a wrapper around ConversionPattern that allows for matching and rewriting agai...">
<polygon fill="none" stroke="black" points="224.5,-281.5 224.5,-311.5 369.5,-311.5 369.5,-281.5 224.5,-281.5"/>
<text text-anchor="start" x="232.5" y="-299.5" font-family="Helvetica,sans-Serif" font-size="10.00">mlir::OpConversionPattern</text>
<text text-anchor="middle" x="297" y="-288.5" font-family="Helvetica,sans-Serif" font-size="10.00">&lt; SourceOp &gt;</text>
</a>
</g>
</g>
<!-- Node6&#45;&gt;Node9 -->
<g id="edge9" class="edge">
<title>Node6&#45;&gt;Node9</title>
<path fill="none" stroke="midnightblue" d="M229.39,-343.46C243.65,-333.77 262.27,-321.11 276.37,-311.53"/>
<polygon fill="midnightblue" stroke="midnightblue" points="227.05,-340.82 220.75,-349.33 230.99,-346.6 227.05,-340.82"/>
</g>
<!-- Node7 -->
<g id="node7" class="node">
<title>Node7</title>
<g id="a_node7"><a xlink:href="classmlir_1_1RewritePattern.html" target="_top" xlink:title="RewritePattern is the common base class for all DAG to DAG replacements.">
<polygon fill="none" stroke="black" points="151,-406.5 151,-425.5 265,-425.5 265,-406.5 151,-406.5"/>
<text text-anchor="middle" x="208" y="-413.5" font-family="Helvetica,sans-Serif" font-size="10.00">mlir::RewritePattern</text>
</a>
</g>
</g>
<!-- Node7&#45;&gt;Node6 -->
<g id="edge6" class="edge">
<title>Node7&#45;&gt;Node6</title>
<path fill="none" stroke="midnightblue" d="M208,-396.12C208,-386.82 208,-376.06 208,-368.71"/>
<polygon fill="midnightblue" stroke="midnightblue" points="204.5,-396.41 208,-406.41 211.5,-396.41 204.5,-396.41"/>
</g>
<!-- Node8 -->
<g id="node8" class="node">
<title>Node8</title>
<g id="a_node8"><a xlink:href="classmlir_1_1Pattern.html" target="_top" xlink:title="This class contains all of the data related to a pattern, but does not contain any methods or logic f...">
<polygon fill="none" stroke="black" points="169.5,-463.5 169.5,-482.5 246.5,-482.5 246.5,-463.5 169.5,-463.5"/>
<text text-anchor="middle" x="208" y="-470.5" font-family="Helvetica,sans-Serif" font-size="10.00">mlir::Pattern</text>
</a>
</g>
</g>
<!-- Node8&#45;&gt;Node7 -->
<g id="edge7" class="edge">
<title>Node8&#45;&gt;Node7</title>
<path fill="none" stroke="midnightblue" d="M208,-453.12C208,-443.82 208,-433.06 208,-425.71"/>
<polygon fill="midnightblue" stroke="midnightblue" points="204.5,-453.41 208,-463.41 211.5,-453.41 204.5,-453.41"/>
</g>
<!-- Node9&#45;&gt;Node5 -->
<g id="edge8" class="edge">
<title>Node9&#45;&gt;Node5</title>
<path fill="none" stroke="orange" stroke-dasharray="5,2" d="M273.39,-274.39C258.9,-261.43 240.72,-245.18 227.92,-233.73"/>
<polygon fill="orange" stroke="orange" points="271.22,-277.15 281.01,-281.2 275.89,-271.93 271.22,-277.15"/>
<text text-anchor="middle" x="284" y="-255" font-family="Helvetica,sans-Serif" font-size="10.00"> &lt; OpTy &gt;</text>
</g>
</g>
</svg>
