<?xml version="1.0" encoding="UTF-8" standalone="no"?>
<!DOCTYPE svg PUBLIC "-//W3C//DTD SVG 1.1//EN"
 "http://www.w3.org/Graphics/SVG/1.1/DTD/svg11.dtd">
<!-- Generated by graphviz version 2.43.0 (0)
 -->
<!-- Title: mlir::pdl_to_pdl_interp::ResultCountQuestion Pages: 1 -->
<svg width="850pt" height="106pt"
 viewBox="0.00 0.00 850.00 105.50" xmlns="http://www.w3.org/2000/svg" xmlns:xlink="http://www.w3.org/1999/xlink">
<g id="graph0" class="graph" transform="scale(1 1) rotate(0) translate(4 101.5)">
<title>mlir::pdl_to_pdl_interp::ResultCountQuestion</title>
<!-- Node1 -->
<g id="Node000001" class="node">
<title>Node1</title>
<g id="a_Node000001"><a xlink:title="Compare the number of results of an operation with a known value.">
<polygon fill="#999999" stroke="#666666" points="842,-66.5 716,-66.5 716,-36.5 842,-36.5 842,-66.5"/>
<text text-anchor="start" x="724" y="-54.5" font-family="Helvetica,sans-Serif" font-size="10.00">mlir::pdl_to_pdl_interp</text>
<text text-anchor="middle" x="779" y="-43.5" font-family="Helvetica,sans-Serif" font-size="10.00">::ResultCountQuestion</text>
</a>
</g>
</g>
<!-- Node2 -->
<g id="Node000002" class="node">
<title>Node2</title>
<g id="a_Node000002"><a xlink:href="classmlir_1_1pdl__to__pdl__interp_1_1PredicateBase.html" target="_top" xlink:title=" ">
<polygon fill="white" stroke="#666666" points="679,-77.5 488,-77.5 488,-25.5 679,-25.5 679,-77.5"/>
<text text-anchor="start" x="496" y="-65.5" font-family="Helvetica,sans-Serif" font-size="10.00">mlir::pdl_to_pdl_interp</text>
<text text-anchor="start" x="496" y="-54.5" font-family="Helvetica,sans-Serif" font-size="10.00">::PredicateBase&lt; ResultCount</text>
<text text-anchor="start" x="496" y="-43.5" font-family="Helvetica,sans-Serif" font-size="10.00">Question, Qualifier, void,</text>
<text text-anchor="middle" x="583.5" y="-32.5" font-family="Helvetica,sans-Serif" font-size="10.00"> Predicates::ResultCountQuestion &gt;</text>
</a>
</g>
</g>
<!-- Node2&#45;&gt;Node1 -->
<g id="edge1_Node000001_Node000002" class="edge">
<title>Node2&#45;&gt;Node1</title>
<g id="a_edge1_Node000001_Node000002"><a xlink:title=" ">
<path fill="none" stroke="#63b8ff" d="M689.47,-51.5C698.49,-51.5 707.41,-51.5 715.92,-51.5"/>
<polygon fill="#63b8ff" stroke="#63b8ff" points="689.27,-48 679.27,-51.5 689.27,-55 689.27,-48"/>
</a>
</g>
</g>
<!-- Node3 -->
<g id="Node000003" class="node">
<title>Node3</title>
<g id="a_Node000003"><a xlink:href="classmlir_1_1pdl__to__pdl__interp_1_1Qualifier.html" target="_top" xlink:title="An ordinal predicate consists of a &quot;Question&quot; and a set of acceptable &quot;Answers&quot; (later converted to o...">
<polygon fill="white" stroke="#666666" points="296,-97.5 170,-97.5 170,-67.5 296,-67.5 296,-97.5"/>
<text text-anchor="start" x="178" y="-85.5" font-family="Helvetica,sans-Serif" font-size="10.00">mlir::pdl_to_pdl_interp</text>
<text text-anchor="middle" x="233" y="-74.5" font-family="Helvetica,sans-Serif" font-size="10.00">::Qualifier</text>
</a>
</g>
</g>
<!-- Node3&#45;&gt;Node2 -->
<g id="edge2_Node000002_Node000003" class="edge">
<title>Node3&#45;&gt;Node2</title>
<g id="a_edge2_Node000002_Node000003"><a xlink:title=" ">
<path fill="none" stroke="#63b8ff" d="M306.28,-79.91C353.06,-77.82 415.24,-74.25 470,-68.5 475.8,-67.89 481.75,-67.2 487.75,-66.45"/>
<polygon fill="#63b8ff" stroke="#63b8ff" points="306.08,-76.42 296.24,-80.35 306.38,-83.41 306.08,-76.42"/>
</a>
</g>
</g>
<!-- Node4 -->
<g id="Node000004" class="node">
<title>Node4</title>
<g id="a_Node000004"><a xlink:href="classmlir_1_1StorageUniquer_1_1BaseStorage.html" target="_top" xlink:title="This class acts as the base storage that all storage classes must derived from.">
<polygon fill="white" stroke="#666666" points="118,-97.5 0,-97.5 0,-67.5 118,-67.5 118,-97.5"/>
<text text-anchor="start" x="8" y="-85.5" font-family="Helvetica,sans-Serif" font-size="10.00">mlir::StorageUniquer</text>
<text text-anchor="middle" x="59" y="-74.5" font-family="Helvetica,sans-Serif" font-size="10.00">::BaseStorage</text>
</a>
</g>
</g>
<!-- Node4&#45;&gt;Node3 -->
<g id="edge3_Node000003_Node000004" class="edge">
<title>Node4&#45;&gt;Node3</title>
<g id="a_edge3_Node000003_Node000004"><a xlink:title=" ">
<path fill="none" stroke="#63b8ff" d="M128.49,-82.5C142.1,-82.5 156.32,-82.5 169.71,-82.5"/>
<polygon fill="#63b8ff" stroke="#63b8ff" points="128.23,-79 118.23,-82.5 128.23,-86 128.23,-79"/>
</a>
</g>
</g>
<!-- Node5 -->
<g id="Node000005" class="node">
<title>Node5</title>
<g id="a_Node000005"><a xlink:href="classmlir_1_1pdl__to__pdl__interp_1_1PredicateBase.html" target="_top" xlink:title="Base class for all predicates, used to allow efficient pointer comparison.">
<polygon fill="white" stroke="#666666" points="311,-41 155,-41 155,0 311,0 311,-41"/>
<text text-anchor="start" x="163" y="-29" font-family="Helvetica,sans-Serif" font-size="10.00">mlir::pdl_to_pdl_interp</text>
<text text-anchor="start" x="163" y="-18" font-family="Helvetica,sans-Serif" font-size="10.00">::PredicateBase&lt; ConcreteT,</text>
<text text-anchor="middle" x="233" y="-7" font-family="Helvetica,sans-Serif" font-size="10.00"> BaseT, Key, Kind &gt;</text>
</a>
</g>
</g>
<!-- Node5&#45;&gt;Node2 -->
<g id="edge4_Node000002_Node000005" class="edge">
<title>Node5&#45;&gt;Node2</title>
<g id="a_edge4_Node000002_Node000005"><a xlink:title=" ">
<path fill="none" stroke="orange" stroke-dasharray="5,2" d="M321.45,-12.79C366.12,-10.52 421.21,-10.29 470,-17.5 482.21,-19.3 494.93,-22.16 507.25,-25.46"/>
<polygon fill="orange" stroke="orange" points="321,-9.31 311.21,-13.36 321.38,-16.3 321,-9.31"/>
</a>
</g>
<text text-anchor="start" x="332.5" y="-53" font-family="Helvetica,sans-Serif" font-size="10.00" fill="grey">&lt; ResultCountQuestion,</text>
<text text-anchor="start" x="332.5" y="-38" font-family="Helvetica,sans-Serif" font-size="10.00" fill="grey">   Qualifier, void, Predicates</text>
<text text-anchor="start" x="332.5" y="-23" font-family="Helvetica,sans-Serif" font-size="10.00" fill="grey">  ::ResultCountQuestion &gt;</text>
</g>
<!-- Node6 -->
<g id="Node000006" class="node">
<title>Node6</title>
<g id="a_Node000006"><a xlink:title=" ">
<polygon fill="white" stroke="#666666" points="82.5,-30 35.5,-30 35.5,-11 82.5,-11 82.5,-30"/>
<text text-anchor="middle" x="59" y="-18" font-family="Helvetica,sans-Serif" font-size="10.00">BaseT</text>
</a>
</g>
</g>
<!-- Node6&#45;&gt;Node5 -->
<g id="edge5_Node000005_Node000006" class="edge">
<title>Node6&#45;&gt;Node5</title>
<g id="a_edge5_Node000005_Node000006"><a xlink:title=" ">
<path fill="none" stroke="#63b8ff" d="M93.13,-20.5C110.74,-20.5 133.18,-20.5 154.86,-20.5"/>
<polygon fill="#63b8ff" stroke="#63b8ff" points="92.84,-17 82.84,-20.5 92.84,-24 92.84,-17"/>
</a>
</g>
</g>
</g>
</svg>
