<?xml version="1.0" encoding="UTF-8" standalone="no"?>
<!DOCTYPE svg PUBLIC "-//W3C//DTD SVG 1.1//EN"
 "http://www.w3.org/Graphics/SVG/1.1/DTD/svg11.dtd">
<!-- Generated by graphviz version 2.43.0 (0)
 -->
<!-- Title: DropUnitDimFromElementwiseOps Pages: 1 -->
<svg width="285pt" height="289pt"
 viewBox="0.00 0.00 284.50 289.00" xmlns="http://www.w3.org/2000/svg" xmlns:xlink="http://www.w3.org/1999/xlink">
<g id="graph0" class="graph" transform="scale(1 1) rotate(0) translate(4 285)">
<title>DropUnitDimFromElementwiseOps</title>
<!-- Node1 -->
<g id="Node000001" class="node">
<title>Node1</title>
<g id="a_Node000001"><a xlink:title="For vectors with at least one unit dim, replaces: elementwise(a, b) with: sc_a = shape_cast(a) sc_b =...">
<polygon fill="#999999" stroke="#666666" points="187,-19 0,-19 0,0 187,0 187,-19"/>
<text text-anchor="middle" x="93.5" y="-7" font-family="Helvetica,sans-Serif" font-size="10.00">DropUnitDimFromElementwiseOps</text>
</a>
</g>
</g>
<!-- Node2 -->
<g id="Node000002" class="node">
<title>Node2</title>
<g id="a_Node000002"><a xlink:href="classmlir_1_1OpTraitRewritePattern.html" target="_top" xlink:title=" ">
<polygon fill="white" stroke="#666666" points="168,-86 19,-86 19,-56 168,-56 168,-86"/>
<text text-anchor="start" x="27" y="-74" font-family="Helvetica,sans-Serif" font-size="10.00">mlir::OpTraitRewritePattern</text>
<text text-anchor="middle" x="93.5" y="-63" font-family="Helvetica,sans-Serif" font-size="10.00">&lt; OpTrait::Elementwise &gt;</text>
</a>
</g>
</g>
<!-- Node2&#45;&gt;Node1 -->
<g id="edge1_Node000001_Node000002" class="edge">
<title>Node2&#45;&gt;Node1</title>
<g id="a_edge1_Node000001_Node000002"><a xlink:title=" ">
<path fill="none" stroke="#63b8ff" d="M93.5,-45.79C93.5,-36.36 93.5,-26.15 93.5,-19.16"/>
<polygon fill="#63b8ff" stroke="#63b8ff" points="90,-45.9 93.5,-55.9 97,-45.9 90,-45.9"/>
</a>
</g>
</g>
<!-- Node3 -->
<g id="Node000003" class="node">
<title>Node3</title>
<g id="a_Node000003"><a xlink:href="classmlir_1_1RewritePattern.html" target="_top" xlink:title="RewritePattern is the common base class for all DAG to DAG replacements.">
<polygon fill="white" stroke="#666666" points="146.5,-225 32.5,-225 32.5,-206 146.5,-206 146.5,-225"/>
<text text-anchor="middle" x="89.5" y="-213" font-family="Helvetica,sans-Serif" font-size="10.00">mlir::RewritePattern</text>
</a>
</g>
</g>
<!-- Node3&#45;&gt;Node2 -->
<g id="edge2_Node000002_Node000003" class="edge">
<title>Node3&#45;&gt;Node2</title>
<g id="a_edge2_Node000002_Node000003"><a xlink:title=" ">
<path fill="none" stroke="#63b8ff" d="M90.03,-195.54C90.85,-166.58 92.38,-111.99 93.1,-86.19"/>
<polygon fill="#63b8ff" stroke="#63b8ff" points="86.53,-195.49 89.75,-205.59 93.53,-195.69 86.53,-195.49"/>
</a>
</g>
</g>
<!-- Node5 -->
<g id="Node000005" class="node">
<title>Node5</title>
<g id="a_Node000005"><a xlink:href="classmlir_1_1OpTraitRewritePattern.html" target="_top" xlink:title="OpTraitRewritePattern is a wrapper around RewritePattern that allows for matching and rewriting again...">
<polygon fill="white" stroke="#666666" points="254,-169 105,-169 105,-139 254,-139 254,-169"/>
<text text-anchor="start" x="113" y="-157" font-family="Helvetica,sans-Serif" font-size="10.00">mlir::OpTraitRewritePattern</text>
<text text-anchor="middle" x="179.5" y="-146" font-family="Helvetica,sans-Serif" font-size="10.00">&lt; TraitType &gt;</text>
</a>
</g>
</g>
<!-- Node3&#45;&gt;Node5 -->
<g id="edge5_Node000005_Node000003" class="edge">
<title>Node3&#45;&gt;Node5</title>
<g id="a_edge5_Node000005_Node000003"><a xlink:title=" ">
<path fill="none" stroke="#63b8ff" d="M111.07,-200.24C125.38,-190.78 144.06,-178.43 158.29,-169.02"/>
<polygon fill="#63b8ff" stroke="#63b8ff" points="108.81,-197.54 102.39,-205.98 112.67,-203.38 108.81,-197.54"/>
</a>
</g>
</g>
<!-- Node4 -->
<g id="Node000004" class="node">
<title>Node4</title>
<g id="a_Node000004"><a xlink:href="classmlir_1_1Pattern.html" target="_top" xlink:title="This class contains all of the data related to a pattern, but does not contain any methods or logic f...">
<polygon fill="white" stroke="#666666" points="128,-281 51,-281 51,-262 128,-262 128,-281"/>
<text text-anchor="middle" x="89.5" y="-269" font-family="Helvetica,sans-Serif" font-size="10.00">mlir::Pattern</text>
</a>
</g>
</g>
<!-- Node4&#45;&gt;Node3 -->
<g id="edge3_Node000003_Node000004" class="edge">
<title>Node4&#45;&gt;Node3</title>
<g id="a_edge3_Node000003_Node000004"><a xlink:title=" ">
<path fill="none" stroke="#63b8ff" d="M89.5,-251.3C89.5,-242.41 89.5,-232.28 89.5,-225.25"/>
<polygon fill="#63b8ff" stroke="#63b8ff" points="86,-251.58 89.5,-261.58 93,-251.58 86,-251.58"/>
</a>
</g>
</g>
<!-- Node5&#45;&gt;Node2 -->
<g id="edge4_Node000002_Node000005" class="edge">
<title>Node5&#45;&gt;Node2</title>
<g id="a_edge4_Node000002_Node000005"><a xlink:title=" ">
<path fill="none" stroke="orange" stroke-dasharray="5,2" d="M157.01,-131.82C141.75,-117.45 121.99,-98.84 108.6,-86.22"/>
<polygon fill="orange" stroke="orange" points="154.84,-134.58 164.52,-138.89 159.64,-129.49 154.84,-134.58"/>
</a>
</g>
<text text-anchor="start" x="147" y="-109.5" font-family="Helvetica,sans-Serif" font-size="10.00" fill="grey">&lt; OpTrait::Elementwise &gt;</text>
</g>
</g>
</svg>
