<?xml version="1.0" encoding="UTF-8" standalone="no"?>
<!DOCTYPE svg PUBLIC "-//W3C//DTD SVG 1.1//EN"
 "http://www.w3.org/Graphics/SVG/1.1/DTD/svg11.dtd">
<!-- Generated by graphviz version 2.43.0 (0)
 -->
<!-- Title: PadOpVectorizationWithTransferWritePattern Pages: 1 -->
<svg width="1607pt" height="61pt"
 viewBox="0.00 0.00 1607.00 61.00" xmlns="http://www.w3.org/2000/svg" xmlns:xlink="http://www.w3.org/1999/xlink">
<g id="graph0" class="graph" transform="scale(1 1) rotate(0) translate(4 57)">
<title>PadOpVectorizationWithTransferWritePattern</title>
<!-- Node1 -->
<g id="node1" class="node">
<title>Node1</title>
<g id="a_node1"><a xlink:title="Rewrite use of tensor::PadOp result in TransferWriteOp.">
<polygon fill="#bfbfbf" stroke="black" points="1426,-22.5 1426,-52.5 1599,-52.5 1599,-22.5 1426,-22.5"/>
<text text-anchor="start" x="1434" y="-40.5" font-family="Helvetica,sans-Serif" font-size="10.00">PadOpVectorizationWithTransfer</text>
<text text-anchor="middle" x="1512.5" y="-29.5" font-family="Helvetica,sans-Serif" font-size="10.00">WritePattern</text>
</a>
</g>
</g>
<!-- Node2 -->
<g id="node2" class="node">
<title>Node2</title>
<g id="a_node2"><a xlink:href="structVectorizePadOpUserPattern.html" target="_top" xlink:title=" ">
<polygon fill="none" stroke="black" points="1234,-22.5 1234,-52.5 1389,-52.5 1389,-22.5 1234,-22.5"/>
<text text-anchor="start" x="1242" y="-40.5" font-family="Helvetica,sans-Serif" font-size="10.00">VectorizePadOpUserPattern</text>
<text text-anchor="middle" x="1311.5" y="-29.5" font-family="Helvetica,sans-Serif" font-size="10.00">&lt; vector::TransferWriteOp &gt;</text>
</a>
</g>
</g>
<!-- Node2&#45;&gt;Node1 -->
<g id="edge1" class="edge">
<title>Node2&#45;&gt;Node1</title>
<path fill="none" stroke="midnightblue" d="M1399.41,-37.5C1408.22,-37.5 1417.15,-37.5 1425.94,-37.5"/>
<polygon fill="midnightblue" stroke="midnightblue" points="1399.15,-34 1389.15,-37.5 1399.15,-41 1399.15,-34"/>
</g>
<!-- Node3 -->
<g id="node3" class="node">
<title>Node3</title>
<g id="a_node3"><a xlink:href="structmlir_1_1OpRewritePattern.html" target="_top" xlink:title=" ">
<polygon fill="none" stroke="black" points="742,-22.5 742,-52.5 870,-52.5 870,-22.5 742,-22.5"/>
<text text-anchor="start" x="750" y="-40.5" font-family="Helvetica,sans-Serif" font-size="10.00">mlir::OpRewritePattern</text>
<text text-anchor="middle" x="806" y="-29.5" font-family="Helvetica,sans-Serif" font-size="10.00">&lt; tensor::PadOp &gt;</text>
</a>
</g>
</g>
<!-- Node3&#45;&gt;Node2 -->
<g id="edge2" class="edge">
<title>Node3&#45;&gt;Node2</title>
<path fill="none" stroke="midnightblue" d="M880.29,-41.66C962.16,-45.67 1098.62,-50.46 1216,-45.5 1221.84,-45.25 1227.88,-44.92 1233.95,-44.53"/>
<polygon fill="midnightblue" stroke="midnightblue" points="880.25,-38.15 870.09,-41.15 879.9,-45.14 880.25,-38.15"/>
</g>
<!-- Node8 -->
<g id="node8" class="node">
<title>Node8</title>
<g id="a_node8"><a xlink:href="structVectorizePadOpUserPattern.html" target="_top" xlink:title="Base pattern for rewriting tensor::PadOps whose result is consumed by a given operation type OpTy.">
<polygon fill="none" stroke="black" points="907,-0.5 907,-30.5 1056,-30.5 1056,-0.5 907,-0.5"/>
<text text-anchor="start" x="915" y="-18.5" font-family="Helvetica,sans-Serif" font-size="10.00">VectorizePadOpUserPattern</text>
<text text-anchor="middle" x="981.5" y="-7.5" font-family="Helvetica,sans-Serif" font-size="10.00">&lt; OpTy &gt;</text>
</a>
</g>
</g>
<!-- Node3&#45;&gt;Node8 -->
<g id="edge9" class="edge">
<title>Node3&#45;&gt;Node8</title>
<path fill="none" stroke="midnightblue" d="M880.31,-28.2C889.08,-27.09 898.04,-25.96 906.82,-24.84"/>
<polygon fill="midnightblue" stroke="midnightblue" points="879.61,-24.77 870.13,-29.5 880.49,-31.71 879.61,-24.77"/>
</g>
<!-- Node4 -->
<g id="node4" class="node">
<title>Node4</title>
<g id="a_node4"><a xlink:href="structmlir_1_1detail_1_1OpOrInterfaceRewritePatternBase.html" target="_top" xlink:title="OpOrInterfaceRewritePatternBase is a wrapper around RewritePattern that allows for matching and rewri...">
<polygon fill="none" stroke="black" points="265,-22.5 265,-52.5 447,-52.5 447,-22.5 265,-22.5"/>
<text text-anchor="start" x="273" y="-40.5" font-family="Helvetica,sans-Serif" font-size="10.00">mlir::detail::OpOrInterface</text>
<text text-anchor="middle" x="356" y="-29.5" font-family="Helvetica,sans-Serif" font-size="10.00">RewritePatternBase&lt; SourceOp &gt;</text>
</a>
</g>
</g>
<!-- Node4&#45;&gt;Node3 -->
<g id="edge3" class="edge">
<title>Node4&#45;&gt;Node3</title>
<path fill="none" stroke="midnightblue" d="M457.38,-43.53C531.18,-47.02 633.87,-49.94 724,-45.5 729.79,-45.21 735.8,-44.82 741.81,-44.35"/>
<polygon fill="midnightblue" stroke="midnightblue" points="457.32,-40.02 447.17,-43.03 456.98,-47.01 457.32,-40.02"/>
</g>
<!-- Node7 -->
<g id="node7" class="node">
<title>Node7</title>
<g id="a_node7"><a xlink:href="structmlir_1_1OpRewritePattern.html" target="_top" xlink:title="OpRewritePattern is a wrapper around RewritePattern that allows for matching and rewriting against an...">
<polygon fill="none" stroke="black" points="484,-0.5 484,-30.5 612,-30.5 612,-0.5 484,-0.5"/>
<text text-anchor="start" x="492" y="-18.5" font-family="Helvetica,sans-Serif" font-size="10.00">mlir::OpRewritePattern</text>
<text text-anchor="middle" x="548" y="-7.5" font-family="Helvetica,sans-Serif" font-size="10.00">&lt; SourceOp &gt;</text>
</a>
</g>
</g>
<!-- Node4&#45;&gt;Node7 -->
<g id="edge7" class="edge">
<title>Node4&#45;&gt;Node7</title>
<path fill="none" stroke="midnightblue" d="M457.41,-25.87C466.38,-24.83 475.29,-23.8 483.81,-22.82"/>
<polygon fill="midnightblue" stroke="midnightblue" points="456.8,-22.42 447.27,-27.05 457.61,-29.37 456.8,-22.42"/>
</g>
<!-- Node5 -->
<g id="node5" class="node">
<title>Node5</title>
<g id="a_node5"><a xlink:href="classmlir_1_1RewritePattern.html" target="_top" xlink:title="RewritePattern is the common base class for all DAG to DAG replacements.">
<polygon fill="none" stroke="black" points="114,-28 114,-47 228,-47 228,-28 114,-28"/>
<text text-anchor="middle" x="171" y="-35" font-family="Helvetica,sans-Serif" font-size="10.00">mlir::RewritePattern</text>
</a>
</g>
</g>
<!-- Node5&#45;&gt;Node4 -->
<g id="edge4" class="edge">
<title>Node5&#45;&gt;Node4</title>
<path fill="none" stroke="midnightblue" d="M238.62,-37.5C247.14,-37.5 255.97,-37.5 264.78,-37.5"/>
<polygon fill="midnightblue" stroke="midnightblue" points="238.4,-34 228.4,-37.5 238.4,-41 238.4,-34"/>
</g>
<!-- Node6 -->
<g id="node6" class="node">
<title>Node6</title>
<g id="a_node6"><a xlink:href="classmlir_1_1Pattern.html" target="_top" xlink:title="This class contains all of the data related to a pattern, but does not contain any methods or logic f...">
<polygon fill="none" stroke="black" points="0,-28 0,-47 77,-47 77,-28 0,-28"/>
<text text-anchor="middle" x="38.5" y="-35" font-family="Helvetica,sans-Serif" font-size="10.00">mlir::Pattern</text>
</a>
</g>
</g>
<!-- Node6&#45;&gt;Node5 -->
<g id="edge5" class="edge">
<title>Node6&#45;&gt;Node5</title>
<path fill="none" stroke="midnightblue" d="M87.47,-37.5C96.06,-37.5 105.09,-37.5 113.89,-37.5"/>
<polygon fill="midnightblue" stroke="midnightblue" points="87.25,-34 77.25,-37.5 87.25,-41 87.25,-34"/>
</g>
<!-- Node7&#45;&gt;Node3 -->
<g id="edge6" class="edge">
<title>Node7&#45;&gt;Node3</title>
<path fill="none" stroke="orange" stroke-dasharray="5,2" d="M622.67,-21.83C660.26,-25.06 705.53,-28.95 741.56,-32.05"/>
<polygon fill="orange" stroke="orange" points="622.54,-18.31 612.28,-20.94 621.94,-25.28 622.54,-18.31"/>
<text text-anchor="middle" x="677" y="-33.5" font-family="Helvetica,sans-Serif" font-size="10.00"> &lt; tensor::PadOp &gt;</text>
</g>
<!-- Node8&#45;&gt;Node2 -->
<g id="edge8" class="edge">
<title>Node8&#45;&gt;Node2</title>
<path fill="none" stroke="orange" stroke-dasharray="5,2" d="M1066.23,-21.12C1117.82,-24.58 1183.47,-28.98 1233.72,-32.35"/>
<polygon fill="orange" stroke="orange" points="1066.32,-17.61 1056.11,-20.44 1065.85,-24.6 1066.32,-17.61"/>
<text text-anchor="middle" x="1145" y="-34.5" font-family="Helvetica,sans-Serif" font-size="10.00"> &lt; vector::TransferWriteOp &gt;</text>
</g>
</g>
</svg>
