<?xml version="1.0" encoding="UTF-8" standalone="no"?>
<!DOCTYPE svg PUBLIC "-//W3C//DTD SVG 1.1//EN"
 "http://www.w3.org/Graphics/SVG/1.1/DTD/svg11.dtd">
<!-- Generated by graphviz version 2.43.0 (0)
 -->
<!-- Title: CanonicalizeContractAdd&lt; AddOpType &gt; Pages: 1 -->
<svg width="1041pt" height="61pt"
 viewBox="0.00 0.00 1041.00 61.00" xmlns="http://www.w3.org/2000/svg" xmlns:xlink="http://www.w3.org/1999/xlink">
<g id="graph0" class="graph" transform="scale(1 1) rotate(0) translate(4 57)">
<title>CanonicalizeContractAdd&lt; AddOpType &gt;</title>
<!-- Node1 -->
<g id="node1" class="node">
<title>Node1</title>
<g id="a_node1"><a xlink:title="Return a fused vector::ContractionOp which represents a patterns such as:">
<polygon fill="#bfbfbf" stroke="black" points="894,-22.5 894,-52.5 1033,-52.5 1033,-22.5 894,-22.5"/>
<text text-anchor="start" x="902" y="-40.5" font-family="Helvetica,sans-Serif" font-size="10.00">CanonicalizeContractAdd</text>
<text text-anchor="middle" x="963.5" y="-29.5" font-family="Helvetica,sans-Serif" font-size="10.00">&lt; AddOpType &gt;</text>
</a>
</g>
</g>
<!-- Node2 -->
<g id="node2" class="node">
<title>Node2</title>
<g id="a_node2"><a xlink:href="structmlir_1_1OpRewritePattern.html" target="_top" xlink:title=" ">
<polygon fill="none" stroke="black" points="729,-22.5 729,-52.5 857,-52.5 857,-22.5 729,-22.5"/>
<text text-anchor="start" x="737" y="-40.5" font-family="Helvetica,sans-Serif" font-size="10.00">mlir::OpRewritePattern</text>
<text text-anchor="middle" x="793" y="-29.5" font-family="Helvetica,sans-Serif" font-size="10.00">&lt; AddOpType &gt;</text>
</a>
</g>
</g>
<!-- Node2&#45;&gt;Node1 -->
<g id="edge1" class="edge">
<title>Node2&#45;&gt;Node1</title>
<path fill="none" stroke="midnightblue" d="M867.43,-37.5C876.2,-37.5 885.14,-37.5 893.84,-37.5"/>
<polygon fill="midnightblue" stroke="midnightblue" points="867.22,-34 857.22,-37.5 867.22,-41 867.22,-34"/>
</g>
<!-- Node3 -->
<g id="node3" class="node">
<title>Node3</title>
<g id="a_node3"><a xlink:href="structmlir_1_1detail_1_1OpOrInterfaceRewritePatternBase.html" target="_top" xlink:title="OpOrInterfaceRewritePatternBase is a wrapper around RewritePattern that allows for matching and rewri...">
<polygon fill="none" stroke="black" points="265,-22.5 265,-52.5 447,-52.5 447,-22.5 265,-22.5"/>
<text text-anchor="start" x="273" y="-40.5" font-family="Helvetica,sans-Serif" font-size="10.00">mlir::detail::OpOrInterface</text>
<text text-anchor="middle" x="356" y="-29.5" font-family="Helvetica,sans-Serif" font-size="10.00">RewritePatternBase&lt; SourceOp &gt;</text>
</a>
</g>
</g>
<!-- Node3&#45;&gt;Node2 -->
<g id="edge2" class="edge">
<title>Node3&#45;&gt;Node2</title>
<path fill="none" stroke="midnightblue" d="M457.52,-43.61C528.41,-46.98 625.56,-49.71 711,-45.5 716.79,-45.21 722.8,-44.82 728.81,-44.35"/>
<polygon fill="midnightblue" stroke="midnightblue" points="457.42,-40.1 447.26,-43.11 457.07,-47.09 457.42,-40.1"/>
</g>
<!-- Node6 -->
<g id="node6" class="node">
<title>Node6</title>
<g id="a_node6"><a xlink:href="structmlir_1_1OpRewritePattern.html" target="_top" xlink:title="OpRewritePattern is a wrapper around RewritePattern that allows for matching and rewriting against an...">
<polygon fill="none" stroke="black" points="484,-0.5 484,-30.5 612,-30.5 612,-0.5 484,-0.5"/>
<text text-anchor="start" x="492" y="-18.5" font-family="Helvetica,sans-Serif" font-size="10.00">mlir::OpRewritePattern</text>
<text text-anchor="middle" x="548" y="-7.5" font-family="Helvetica,sans-Serif" font-size="10.00">&lt; SourceOp &gt;</text>
</a>
</g>
</g>
<!-- Node3&#45;&gt;Node6 -->
<g id="edge6" class="edge">
<title>Node3&#45;&gt;Node6</title>
<path fill="none" stroke="midnightblue" d="M457.41,-25.87C466.38,-24.83 475.29,-23.8 483.81,-22.82"/>
<polygon fill="midnightblue" stroke="midnightblue" points="456.8,-22.42 447.27,-27.05 457.61,-29.37 456.8,-22.42"/>
</g>
<!-- Node4 -->
<g id="node4" class="node">
<title>Node4</title>
<g id="a_node4"><a xlink:href="classmlir_1_1RewritePattern.html" target="_top" xlink:title="RewritePattern is the common base class for all DAG to DAG replacements.">
<polygon fill="none" stroke="black" points="114,-28 114,-47 228,-47 228,-28 114,-28"/>
<text text-anchor="middle" x="171" y="-35" font-family="Helvetica,sans-Serif" font-size="10.00">mlir::RewritePattern</text>
</a>
</g>
</g>
<!-- Node4&#45;&gt;Node3 -->
<g id="edge3" class="edge">
<title>Node4&#45;&gt;Node3</title>
<path fill="none" stroke="midnightblue" d="M238.62,-37.5C247.14,-37.5 255.97,-37.5 264.78,-37.5"/>
<polygon fill="midnightblue" stroke="midnightblue" points="238.4,-34 228.4,-37.5 238.4,-41 238.4,-34"/>
</g>
<!-- Node5 -->
<g id="node5" class="node">
<title>Node5</title>
<g id="a_node5"><a xlink:href="classmlir_1_1Pattern.html" target="_top" xlink:title="This class contains all of the data related to a pattern, but does not contain any methods or logic f...">
<polygon fill="none" stroke="black" points="0,-28 0,-47 77,-47 77,-28 0,-28"/>
<text text-anchor="middle" x="38.5" y="-35" font-family="Helvetica,sans-Serif" font-size="10.00">mlir::Pattern</text>
</a>
</g>
</g>
<!-- Node5&#45;&gt;Node4 -->
<g id="edge4" class="edge">
<title>Node5&#45;&gt;Node4</title>
<path fill="none" stroke="midnightblue" d="M87.47,-37.5C96.06,-37.5 105.09,-37.5 113.89,-37.5"/>
<polygon fill="midnightblue" stroke="midnightblue" points="87.25,-34 77.25,-37.5 87.25,-41 87.25,-34"/>
</g>
<!-- Node6&#45;&gt;Node2 -->
<g id="edge5" class="edge">
<title>Node6&#45;&gt;Node2</title>
<path fill="none" stroke="orange" stroke-dasharray="5,2" d="M622.52,-22.16C656.38,-25.22 696.17,-28.82 728.68,-31.77"/>
<polygon fill="orange" stroke="orange" points="622.49,-18.64 612.21,-21.22 621.85,-25.61 622.49,-18.64"/>
<text text-anchor="middle" x="670.5" y="-33.5" font-family="Helvetica,sans-Serif" font-size="10.00"> &lt; AddOpType &gt;</text>
</g>
</g>
</svg>
