<?xml version="1.0" encoding="UTF-8" standalone="no"?>
<!DOCTYPE svg PUBLIC "-//W3C//DTD SVG 1.1//EN"
 "http://www.w3.org/Graphics/SVG/1.1/DTD/svg11.dtd">
<!-- Generated by graphviz version 2.43.0 (0)
 -->
<!-- Title: mlir::sparse_tensor::detail::is_complex&lt; std::complex&lt; T &gt; &gt; Pages: 1 -->
<svg width="314pt" height="188pt"
 viewBox="0.00 0.00 313.50 188.00" xmlns="http://www.w3.org/2000/svg" xmlns:xlink="http://www.w3.org/1999/xlink">
<g id="graph0" class="graph" transform="scale(1 1) rotate(0) translate(4 184)">
<title>mlir::sparse_tensor::detail::is_complex&lt; std::complex&lt; T &gt; &gt;</title>
<!-- Node1 -->
<g id="Node000001" class="node">
<title>Node1</title>
<g id="a_Node000001"><a xlink:title=" ">
<polygon fill="#999999" stroke="#666666" points="193,-41 62,-41 62,0 193,0 193,-41"/>
<text text-anchor="start" x="70" y="-29" font-family="Helvetica,sans-Serif" font-size="10.00">mlir::sparse_tensor</text>
<text text-anchor="start" x="70" y="-18" font-family="Helvetica,sans-Serif" font-size="10.00">::detail::is_complex</text>
<text text-anchor="middle" x="127.5" y="-7" font-family="Helvetica,sans-Serif" font-size="10.00">&lt; std::complex&lt; T &gt; &gt;</text>
</a>
</g>
</g>
<!-- Node2 -->
<g id="Node000002" class="node">
<title>Node2</title>
<g id="a_Node000002"><a xlink:title=" ">
<polygon fill="white" stroke="#666666" points="89,-180 0,-180 0,-161 89,-161 89,-180"/>
<text text-anchor="middle" x="44.5" y="-168" font-family="Helvetica,sans-Serif" font-size="10.00">std::false_type</text>
</a>
</g>
</g>
<!-- Node2&#45;&gt;Node1 -->
<g id="edge1_Node000001_Node000002" class="edge">
<title>Node2&#45;&gt;Node1</title>
<g id="a_edge1_Node000001_Node000002"><a xlink:title=" ">
<path fill="none" stroke="#63b8ff" d="M42.68,-150.42C41.98,-134.54 42.92,-111.74 51.5,-94 61.91,-72.5 81.56,-54.02 98.28,-41.1"/>
<polygon fill="#63b8ff" stroke="#63b8ff" points="39.2,-150.87 43.39,-160.6 46.18,-150.38 39.2,-150.87"/>
</a>
</g>
</g>
<!-- Node4 -->
<g id="Node000004" class="node">
<title>Node4</title>
<g id="a_Node000004"><a xlink:href="structmlir_1_1sparse__tensor_1_1detail_1_1is__complex.html" target="_top" xlink:title=" ">
<polygon fill="white" stroke="#666666" points="200.5,-124 60.5,-124 60.5,-94 200.5,-94 200.5,-124"/>
<text text-anchor="start" x="68.5" y="-112" font-family="Helvetica,sans-Serif" font-size="10.00">mlir::sparse_tensor</text>
<text text-anchor="middle" x="130.5" y="-101" font-family="Helvetica,sans-Serif" font-size="10.00">::detail::is_complex&lt; T &gt;</text>
</a>
</g>
</g>
<!-- Node2&#45;&gt;Node4 -->
<g id="edge4_Node000004_Node000002" class="edge">
<title>Node2&#45;&gt;Node4</title>
<g id="a_edge4_Node000004_Node000002"><a xlink:title=" ">
<path fill="none" stroke="#63b8ff" d="M65.11,-155.24C78.78,-145.78 96.63,-133.43 110.23,-124.02"/>
<polygon fill="#63b8ff" stroke="#63b8ff" points="63.05,-152.41 56.82,-160.98 67.04,-158.16 63.05,-152.41"/>
</a>
</g>
</g>
<!-- Node3 -->
<g id="Node000003" class="node">
<title>Node3</title>
<g id="a_Node000003"><a xlink:title=" ">
<polygon fill="white" stroke="#666666" points="305.5,-118.5 221.5,-118.5 221.5,-99.5 305.5,-99.5 305.5,-118.5"/>
<text text-anchor="middle" x="263.5" y="-106.5" font-family="Helvetica,sans-Serif" font-size="10.00">std::true_type</text>
</a>
</g>
</g>
<!-- Node3&#45;&gt;Node1 -->
<g id="edge2_Node000001_Node000003" class="edge">
<title>Node3&#45;&gt;Node1</title>
<g id="a_edge2_Node000001_Node000003"><a xlink:title=" ">
<path fill="none" stroke="#63b8ff" d="M262.38,-89.16C260.83,-79.01 257.32,-66.98 249.5,-59 234.53,-43.73 213.51,-34.64 193.13,-29.25"/>
<polygon fill="#63b8ff" stroke="#63b8ff" points="258.91,-89.55 263.41,-99.15 265.87,-88.84 258.91,-89.55"/>
</a>
</g>
</g>
<!-- Node4&#45;&gt;Node1 -->
<g id="edge3_Node000001_Node000004" class="edge">
<title>Node4&#45;&gt;Node1</title>
<g id="a_edge3_Node000001_Node000004"><a xlink:title=" ">
<path fill="none" stroke="orange" stroke-dasharray="5,2" d="M128.88,-83.96C128.74,-81.27 128.6,-78.58 128.5,-76 128.03,-64.46 127.78,-51.55 127.65,-41.18"/>
<polygon fill="orange" stroke="orange" points="125.39,-84.22 129.49,-93.99 132.38,-83.79 125.39,-84.22"/>
</a>
</g>
<text text-anchor="start" x="132" y="-64.5" font-family="Helvetica,sans-Serif" font-size="10.00" fill="grey">&lt; std::complex&lt; T &gt; &gt;</text>
</g>
</g>
</svg>
