<?xml version="1.0" encoding="UTF-8" standalone="no"?>
<!DOCTYPE svg PUBLIC "-//W3C//DTD SVG 1.1//EN"
 "http://www.w3.org/Graphics/SVG/1.1/DTD/svg11.dtd">
<!-- Generated by graphviz version 2.43.0 (0)
 -->
<!-- Title: mlir::amdgpu::AmdgpuFoldMemRefOpsPass Pages: 1 -->
<svg width="1030pt" height="74pt"
 viewBox="0.00 0.00 1030.00 74.00" xmlns="http://www.w3.org/2000/svg" xmlns:xlink="http://www.w3.org/1999/xlink">
<g id="graph0" class="graph" transform="scale(1 1) rotate(0) translate(4 70)">
<title>mlir::amdgpu::AmdgpuFoldMemRefOpsPass</title>
<!-- Node1 -->
<g id="Node000001" class="node">
<title>Node1</title>
<g id="a_Node000001"><a xlink:title=" ">
<polygon fill="#999999" stroke="#666666" points="1022,-60.5 873,-60.5 873,-30.5 1022,-30.5 1022,-60.5"/>
<text text-anchor="start" x="881" y="-48.5" font-family="Helvetica,sans-Serif" font-size="10.00">mlir::amdgpu::AmdgpuFold</text>
<text text-anchor="middle" x="947.5" y="-37.5" font-family="Helvetica,sans-Serif" font-size="10.00">MemRefOpsPass</text>
</a>
</g>
</g>
<!-- Node2 -->
<g id="Node000002" class="node">
<title>Node2</title>
<g id="a_Node000002"><a xlink:href="classmlir_1_1amdgpu_1_1impl_1_1AmdgpuFoldMemRefOpsPassBase.html" target="_top" xlink:title=" ">
<polygon fill="white" stroke="#666666" points="836,-66 647,-66 647,-25 836,-25 836,-66"/>
<text text-anchor="start" x="655" y="-54" font-family="Helvetica,sans-Serif" font-size="10.00">mlir::amdgpu::impl</text>
<text text-anchor="start" x="655" y="-43" font-family="Helvetica,sans-Serif" font-size="10.00">::AmdgpuFoldMemRefOpsPassBase</text>
<text text-anchor="middle" x="741.5" y="-32" font-family="Helvetica,sans-Serif" font-size="10.00">&lt; AmdgpuFoldMemRefOpsPass &gt;</text>
</a>
</g>
</g>
<!-- Node2&#45;&gt;Node1 -->
<g id="edge1_Node000001_Node000002" class="edge">
<title>Node2&#45;&gt;Node1</title>
<g id="a_edge1_Node000001_Node000002"><a xlink:title=" ">
<path fill="none" stroke="#63b8ff" d="M846.3,-45.5C855.31,-45.5 864.29,-45.5 872.98,-45.5"/>
<polygon fill="#63b8ff" stroke="#63b8ff" points="846.14,-42 836.14,-45.5 846.14,-49 846.14,-42"/>
</a>
</g>
</g>
<!-- Node3 -->
<g id="Node000003" class="node">
<title>Node3</title>
<g id="a_Node000003"><a xlink:href="classmlir_1_1OperationPass.html" target="_top" xlink:title="Pass to transform an operation of a specific type.">
<polygon fill="white" stroke="#666666" points="213,-59.5 101,-59.5 101,-29.5 213,-29.5 213,-59.5"/>
<text text-anchor="start" x="109" y="-47.5" font-family="Helvetica,sans-Serif" font-size="10.00">mlir::OperationPass</text>
<text text-anchor="middle" x="157" y="-36.5" font-family="Helvetica,sans-Serif" font-size="10.00">&lt; OpT &gt;</text>
</a>
</g>
</g>
<!-- Node3&#45;&gt;Node2 -->
<g id="edge2_Node000002_Node000003" class="edge">
<title>Node3&#45;&gt;Node2</title>
<g id="a_edge2_Node000002_Node000003"><a xlink:title=" ">
<path fill="none" stroke="#63b8ff" d="M223.39,-49.11C225.96,-49.25 228.5,-49.38 231,-49.5 407.71,-57.89 452.27,-63.41 629,-55.5 634.82,-55.24 640.82,-54.9 646.85,-54.51"/>
<polygon fill="#63b8ff" stroke="#63b8ff" points="223.57,-45.62 213.39,-48.54 223.17,-52.61 223.57,-45.62"/>
</a>
</g>
</g>
<!-- Node5 -->
<g id="Node000005" class="node">
<title>Node5</title>
<g id="a_Node000005"><a xlink:href="classmlir_1_1amdgpu_1_1impl_1_1AmdgpuFoldMemRefOpsPassBase.html" target="_top" xlink:title=" ">
<polygon fill="white" stroke="#666666" points="439,-41 250,-41 250,0 439,0 439,-41"/>
<text text-anchor="start" x="258" y="-29" font-family="Helvetica,sans-Serif" font-size="10.00">mlir::amdgpu::impl</text>
<text text-anchor="start" x="258" y="-18" font-family="Helvetica,sans-Serif" font-size="10.00">::AmdgpuFoldMemRefOpsPassBase</text>
<text text-anchor="middle" x="344.5" y="-7" font-family="Helvetica,sans-Serif" font-size="10.00">&lt; DerivedT &gt;</text>
</a>
</g>
</g>
<!-- Node3&#45;&gt;Node5 -->
<g id="edge5_Node000005_Node000003" class="edge">
<title>Node3&#45;&gt;Node5</title>
<g id="a_edge5_Node000005_Node000003"><a xlink:title=" ">
<path fill="none" stroke="#63b8ff" d="M223.18,-36.07C231.88,-34.94 240.93,-33.77 250,-32.6"/>
<polygon fill="#63b8ff" stroke="#63b8ff" points="222.62,-32.61 213.15,-37.36 223.52,-39.55 222.62,-32.61"/>
</a>
</g>
</g>
<!-- Node4 -->
<g id="Node000004" class="node">
<title>Node4</title>
<g id="a_Node000004"><a xlink:href="classmlir_1_1Pass.html" target="_top" xlink:title="The abstract base pass class.">
<polygon fill="white" stroke="#666666" points="64,-54 0,-54 0,-35 64,-35 64,-54"/>
<text text-anchor="middle" x="32" y="-42" font-family="Helvetica,sans-Serif" font-size="10.00">mlir::Pass</text>
</a>
</g>
</g>
<!-- Node4&#45;&gt;Node3 -->
<g id="edge3_Node000003_Node000004" class="edge">
<title>Node4&#45;&gt;Node3</title>
<g id="a_edge3_Node000003_Node000004"><a xlink:title=" ">
<path fill="none" stroke="#63b8ff" d="M74.06,-44.5C82.55,-44.5 91.64,-44.5 100.55,-44.5"/>
<polygon fill="#63b8ff" stroke="#63b8ff" points="74.04,-41 64.04,-44.5 74.04,-48 74.04,-41"/>
</a>
</g>
</g>
<!-- Node5&#45;&gt;Node2 -->
<g id="edge4_Node000002_Node000005" class="edge">
<title>Node5&#45;&gt;Node2</title>
<g id="a_edge4_Node000002_Node000005"><a xlink:title=" ">
<path fill="none" stroke="orange" stroke-dasharray="5,2" d="M449.19,-27.06C510.47,-30.94 587.45,-35.81 646.88,-39.57"/>
<polygon fill="orange" stroke="orange" points="449.31,-23.56 439.11,-26.42 448.87,-30.55 449.31,-23.56"/>
</a>
</g>
<text text-anchor="start" x="460" y="-44" font-family="Helvetica,sans-Serif" font-size="10.00" fill="grey">&lt; AmdgpuFoldMemRefOpsPass &gt;</text>
</g>
</g>
</svg>
