<?xml version="1.0" encoding="UTF-8" standalone="no"?>
<!DOCTYPE svg PUBLIC "-//W3C//DTD SVG 1.1//EN"
 "http://www.w3.org/Graphics/SVG/1.1/DTD/svg11.dtd">
<!-- Generated by graphviz version 2.43.0 (0)
 -->
<!-- Title: mlir::pdl_to_pdl_interp::OperationNameQuestion Pages: 1 -->
<svg width="883pt" height="100pt"
 viewBox="0.00 0.00 883.00 99.50" xmlns="http://www.w3.org/2000/svg" xmlns:xlink="http://www.w3.org/1999/xlink">
<g id="graph0" class="graph" transform="scale(1 1) rotate(0) translate(4 95.5)">
<title>mlir::pdl_to_pdl_interp::OperationNameQuestion</title>
<!-- Node1 -->
<g id="node1" class="node">
<title>Node1</title>
<g id="a_node1"><a xlink:title="Compare the name of an operation with a known value.">
<polygon fill="#bfbfbf" stroke="black" points="732,-33 732,-63 875,-63 875,-33 732,-33"/>
<text text-anchor="start" x="740" y="-51" font-family="Helvetica,sans-Serif" font-size="10.00">mlir::pdl_to_pdl_interp</text>
<text text-anchor="middle" x="803.5" y="-40" font-family="Helvetica,sans-Serif" font-size="10.00">::OperationNameQuestion</text>
</a>
</g>
</g>
<!-- Node2 -->
<g id="node2" class="node">
<title>Node2</title>
<g id="a_node2"><a xlink:href="classmlir_1_1pdl__to__pdl__interp_1_1PredicateBase.html" target="_top" xlink:title=" ">
<polygon fill="none" stroke="black" points="486,-22 486,-74 695,-74 695,-22 486,-22"/>
<text text-anchor="start" x="494" y="-62" font-family="Helvetica,sans-Serif" font-size="10.00">mlir::pdl_to_pdl_interp</text>
<text text-anchor="start" x="494" y="-51" font-family="Helvetica,sans-Serif" font-size="10.00">::PredicateBase&lt; OperationName</text>
<text text-anchor="start" x="494" y="-40" font-family="Helvetica,sans-Serif" font-size="10.00">Question, Qualifier, void,</text>
<text text-anchor="middle" x="590.5" y="-29" font-family="Helvetica,sans-Serif" font-size="10.00"> Predicates::OperationNameQuestion &gt;</text>
</a>
</g>
</g>
<!-- Node2&#45;&gt;Node1 -->
<g id="edge1" class="edge">
<title>Node2&#45;&gt;Node1</title>
<path fill="none" stroke="midnightblue" d="M705.31,-48C714.3,-48 723.21,-48 731.77,-48"/>
<polygon fill="midnightblue" stroke="midnightblue" points="705.15,-44.5 695.15,-48 705.15,-51.5 705.15,-44.5"/>
</g>
<!-- Node3 -->
<g id="node3" class="node">
<title>Node3</title>
<g id="a_node3"><a xlink:href="classmlir_1_1pdl__to__pdl__interp_1_1Qualifier.html" target="_top" xlink:title="An ordinal predicate consists of a &quot;Question&quot; and a set of acceptable &quot;Answers&quot; (later converted to o...">
<polygon fill="none" stroke="black" points="170,-61 170,-91 296,-91 296,-61 170,-61"/>
<text text-anchor="start" x="178" y="-79" font-family="Helvetica,sans-Serif" font-size="10.00">mlir::pdl_to_pdl_interp</text>
<text text-anchor="middle" x="233" y="-68" font-family="Helvetica,sans-Serif" font-size="10.00">::Qualifier</text>
</a>
</g>
</g>
<!-- Node3&#45;&gt;Node2 -->
<g id="edge2" class="edge">
<title>Node3&#45;&gt;Node2</title>
<path fill="none" stroke="midnightblue" d="M306.34,-71.62C352.6,-68.68 413.86,-64.52 468,-60 473.81,-59.51 479.77,-59 485.79,-58.45"/>
<polygon fill="midnightblue" stroke="midnightblue" points="305.88,-68.14 296.12,-72.26 306.32,-75.13 305.88,-68.14"/>
</g>
<!-- Node4 -->
<g id="node4" class="node">
<title>Node4</title>
<g id="a_node4"><a xlink:href="classmlir_1_1StorageUniquer_1_1BaseStorage.html" target="_top" xlink:title="This class acts as the base storage that all storage classes must derived from.">
<polygon fill="none" stroke="black" points="0,-61 0,-91 118,-91 118,-61 0,-61"/>
<text text-anchor="start" x="8" y="-79" font-family="Helvetica,sans-Serif" font-size="10.00">mlir::StorageUniquer</text>
<text text-anchor="middle" x="59" y="-68" font-family="Helvetica,sans-Serif" font-size="10.00">::BaseStorage</text>
</a>
</g>
</g>
<!-- Node4&#45;&gt;Node3 -->
<g id="edge3" class="edge">
<title>Node4&#45;&gt;Node3</title>
<path fill="none" stroke="midnightblue" d="M128.49,-76C142.1,-76 156.32,-76 169.71,-76"/>
<polygon fill="midnightblue" stroke="midnightblue" points="128.23,-72.5 118.23,-76 128.23,-79.5 128.23,-72.5"/>
</g>
<!-- Node5 -->
<g id="node5" class="node">
<title>Node5</title>
<g id="a_node5"><a xlink:href="classmlir_1_1pdl__to__pdl__interp_1_1PredicateBase.html" target="_top" xlink:title="Base class for all predicates, used to allow efficient pointer comparison.">
<polygon fill="none" stroke="black" points="155,-0.5 155,-41.5 311,-41.5 311,-0.5 155,-0.5"/>
<text text-anchor="start" x="163" y="-29.5" font-family="Helvetica,sans-Serif" font-size="10.00">mlir::pdl_to_pdl_interp</text>
<text text-anchor="start" x="163" y="-18.5" font-family="Helvetica,sans-Serif" font-size="10.00">::PredicateBase&lt; ConcreteT,</text>
<text text-anchor="middle" x="233" y="-7.5" font-family="Helvetica,sans-Serif" font-size="10.00"> BaseT, Key, Kind &gt;</text>
</a>
</g>
</g>
<!-- Node5&#45;&gt;Node2 -->
<g id="edge4" class="edge">
<title>Node5&#45;&gt;Node2</title>
<path fill="none" stroke="orange" stroke-dasharray="5,2" d="M321.22,-20.23C365.31,-20.6 419.6,-22.22 468,-27 473.86,-27.58 479.86,-28.27 485.91,-29.06"/>
<polygon fill="orange" stroke="orange" points="321.13,-16.73 311.11,-20.16 321.09,-23.73 321.13,-16.73"/>
<text text-anchor="start" x="329" y="-52" font-family="Helvetica,sans-Serif" font-size="10.00"> &lt; OperationNameQuestion,</text>
<text text-anchor="start" x="329" y="-41" font-family="Helvetica,sans-Serif" font-size="10.00"> Qualifier, void, Predicates</text>
<text text-anchor="middle" x="398.5" y="-30" font-family="Helvetica,sans-Serif" font-size="10.00">::OperationNameQuestion &gt;</text>
</g>
<!-- Node6 -->
<g id="node6" class="node">
<title>Node6</title>
<g id="a_node6"><a xlink:href="classBaseT.html" target="_top" xlink:title=" ">
<polygon fill="none" stroke="black" points="35.5,-11.5 35.5,-30.5 82.5,-30.5 82.5,-11.5 35.5,-11.5"/>
<text text-anchor="middle" x="59" y="-18.5" font-family="Helvetica,sans-Serif" font-size="10.00">BaseT</text>
</a>
</g>
</g>
<!-- Node6&#45;&gt;Node5 -->
<g id="edge5" class="edge">
<title>Node6&#45;&gt;Node5</title>
<path fill="none" stroke="midnightblue" d="M93.13,-21C110.74,-21 133.18,-21 154.86,-21"/>
<polygon fill="midnightblue" stroke="midnightblue" points="92.84,-17.5 82.84,-21 92.84,-24.5 92.84,-17.5"/>
</g>
</g>
</svg>
