<?xml version="1.0" encoding="UTF-8" standalone="no"?>
<!DOCTYPE svg PUBLIC "-//W3C//DTD SVG 1.1//EN"
 "http://www.w3.org/Graphics/SVG/1.1/DTD/svg11.dtd">
<!-- Generated by graphviz version 2.43.0 (0)
 -->
<!-- Title: mlir::tracing::ExecutionContext::Observer Pages: 1 -->
<svg width="320pt" height="95pt"
 viewBox="0.00 0.00 319.50 95.00" xmlns="http://www.w3.org/2000/svg" xmlns:xlink="http://www.w3.org/1999/xlink">
<g id="graph0" class="graph" transform="scale(1 1) rotate(0) translate(4 91)">
<title>mlir::tracing::ExecutionContext::Observer</title>
<!-- Node1 -->
<g id="node1" class="node">
<title>Node1</title>
<g id="a_node1"><a xlink:title="This abstract class defines the interface used to observe an Action execution.">
<polygon fill="#bfbfbf" stroke="black" points="90.5,-56.5 90.5,-86.5 219.5,-86.5 219.5,-56.5 90.5,-56.5"/>
<text text-anchor="start" x="98.5" y="-74.5" font-family="Helvetica,sans-Serif" font-size="10.00">mlir::tracing::Execution</text>
<text text-anchor="middle" x="155" y="-63.5" font-family="Helvetica,sans-Serif" font-size="10.00">Context::Observer</text>
</a>
</g>
</g>
<!-- Node2 -->
<g id="node2" class="node">
<title>Node2</title>
<g id="a_node2"><a xlink:href="structmlir_1_1tracing_1_1ActionLogger.html" target="_top" xlink:title="This class defines an observer that print Actions before and after execution on the provided stream.">
<polygon fill="none" stroke="black" points="0,-0.5 0,-19.5 146,-19.5 146,-0.5 0,-0.5"/>
<text text-anchor="middle" x="73" y="-7.5" font-family="Helvetica,sans-Serif" font-size="10.00">mlir::tracing::ActionLogger</text>
</a>
</g>
</g>
<!-- Node1&#45;&gt;Node2 -->
<g id="edge1" class="edge">
<title>Node1&#45;&gt;Node2</title>
<path fill="none" stroke="midnightblue" d="M127.41,-50.48C112.97,-40 96.03,-27.71 84.93,-19.66"/>
<polygon fill="midnightblue" stroke="midnightblue" points="125.42,-53.36 135.57,-56.4 129.53,-47.69 125.42,-53.36"/>
</g>
<!-- Node3 -->
<g id="node3" class="node">
<title>Node3</title>
<g id="a_node3"><a xlink:href="structmlir_1_1tracing_1_1ActionProfiler.html" target="_top" xlink:title="This class defines an observer that profiles events before and after execution on the provided stream...">
<polygon fill="none" stroke="black" points="164.5,-0.5 164.5,-19.5 311.5,-19.5 311.5,-0.5 164.5,-0.5"/>
<text text-anchor="middle" x="238" y="-7.5" font-family="Helvetica,sans-Serif" font-size="10.00">mlir::tracing::ActionProfiler</text>
</a>
</g>
</g>
<!-- Node1&#45;&gt;Node3 -->
<g id="edge2" class="edge">
<title>Node1&#45;&gt;Node3</title>
<path fill="none" stroke="midnightblue" d="M182.92,-50.48C197.54,-40 214.69,-27.71 225.92,-19.66"/>
<polygon fill="midnightblue" stroke="midnightblue" points="180.76,-47.73 174.67,-56.4 184.84,-53.42 180.76,-47.73"/>
</g>
</g>
</svg>
