<?xml version="1.0" encoding="UTF-8" standalone="no"?>
<!DOCTYPE svg PUBLIC "-//W3C//DTD SVG 1.1//EN"
 "http://www.w3.org/Graphics/SVG/1.1/DTD/svg11.dtd">
<!-- Generated by graphviz version 2.43.0 (0)
 -->
<!-- Title: mlir::gpu::MMAMatrixStorageType Pages: 1 -->
<svg width="190pt" height="151pt"
 viewBox="0.00 0.00 190.00 151.00" xmlns="http://www.w3.org/2000/svg" xmlns:xlink="http://www.w3.org/1999/xlink">
<g id="graph0" class="graph" transform="scale(1 1) rotate(0) translate(4 147)">
<title>mlir::gpu::MMAMatrixStorageType</title>
<!-- Node1 -->
<g id="node1" class="node">
<title>Node1</title>
<g id="a_node1"><a xlink:title="MMAMatrixType storage and uniquing.">
<polygon fill="#bfbfbf" stroke="black" points="0,-0.5 0,-19.5 182,-19.5 182,-0.5 0,-0.5"/>
<text text-anchor="middle" x="91" y="-7.5" font-family="Helvetica,sans-Serif" font-size="10.00">mlir::gpu::MMAMatrixStorageType</text>
</a>
</g>
</g>
<!-- Node2 -->
<g id="node2" class="node">
<title>Node2</title>
<g id="a_node2"><a xlink:href="classmlir_1_1TypeStorage.html" target="_top" xlink:title="Base storage class appearing in a Type.">
<polygon fill="none" stroke="black" points="40,-56.5 40,-75.5 142,-75.5 142,-56.5 40,-56.5"/>
<text text-anchor="middle" x="91" y="-63.5" font-family="Helvetica,sans-Serif" font-size="10.00">mlir::TypeStorage</text>
</a>
</g>
</g>
<!-- Node2&#45;&gt;Node1 -->
<g id="edge1" class="edge">
<title>Node2&#45;&gt;Node1</title>
<path fill="none" stroke="midnightblue" d="M91,-45.8C91,-36.91 91,-26.78 91,-19.75"/>
<polygon fill="midnightblue" stroke="midnightblue" points="87.5,-46.08 91,-56.08 94.5,-46.08 87.5,-46.08"/>
</g>
<!-- Node3 -->
<g id="node3" class="node">
<title>Node3</title>
<g id="a_node3"><a xlink:href="classmlir_1_1StorageUniquer_1_1BaseStorage.html" target="_top" xlink:title="This class acts as the base storage that all storage classes must derived from.">
<polygon fill="none" stroke="black" points="32,-112.5 32,-142.5 150,-142.5 150,-112.5 32,-112.5"/>
<text text-anchor="start" x="40" y="-130.5" font-family="Helvetica,sans-Serif" font-size="10.00">mlir::StorageUniquer</text>
<text text-anchor="middle" x="91" y="-119.5" font-family="Helvetica,sans-Serif" font-size="10.00">::BaseStorage</text>
</a>
</g>
</g>
<!-- Node3&#45;&gt;Node2 -->
<g id="edge2" class="edge">
<title>Node3&#45;&gt;Node2</title>
<path fill="none" stroke="midnightblue" d="M91,-102.29C91,-92.86 91,-82.65 91,-75.66"/>
<polygon fill="midnightblue" stroke="midnightblue" points="87.5,-102.4 91,-112.4 94.5,-102.4 87.5,-102.4"/>
</g>
</g>
</svg>
