<?xml version="1.0" encoding="UTF-8" standalone="no"?>
<!DOCTYPE svg PUBLIC "-//W3C//DTD SVG 1.1//EN"
 "http://www.w3.org/Graphics/SVG/1.1/DTD/svg11.dtd">
<!-- Generated by graphviz version 2.43.0 (0)
 -->
<!-- Title: ConvertAccessChain Pages: 1 -->
<svg width="389pt" height="491pt"
 viewBox="0.00 0.00 389.00 491.00" xmlns="http://www.w3.org/2000/svg" xmlns:xlink="http://www.w3.org/1999/xlink">
<g id="graph0" class="graph" transform="scale(1 1) rotate(0) translate(4 487)">
<title>ConvertAccessChain</title>
<!-- Node1 -->
<g id="node1" class="node">
<title>Node1</title>
<g id="a_node1"><a xlink:title=" ">
<polygon fill="#bfbfbf" stroke="black" points="29.5,-0.5 29.5,-19.5 145.5,-19.5 145.5,-0.5 29.5,-0.5"/>
<text text-anchor="middle" x="87.5" y="-7.5" font-family="Helvetica,sans-Serif" font-size="10.00">ConvertAccessChain</text>
</a>
</g>
</g>
<!-- Node2 -->
<g id="node2" class="node">
<title>Node2</title>
<g id="a_node2"><a xlink:href="classConvertAliasResource.html" target="_top" xlink:title=" ">
<polygon fill="none" stroke="black" points="16,-57.5 16,-87.5 159,-87.5 159,-57.5 16,-57.5"/>
<text text-anchor="start" x="24" y="-75.5" font-family="Helvetica,sans-Serif" font-size="10.00">ConvertAliasResource</text>
<text text-anchor="middle" x="87.5" y="-64.5" font-family="Helvetica,sans-Serif" font-size="10.00">&lt; spirv::AccessChainOp &gt;</text>
</a>
</g>
</g>
<!-- Node2&#45;&gt;Node1 -->
<g id="edge1" class="edge">
<title>Node2&#45;&gt;Node1</title>
<path fill="none" stroke="midnightblue" d="M87.5,-47.35C87.5,-37.51 87.5,-26.78 87.5,-19.54"/>
<polygon fill="midnightblue" stroke="midnightblue" points="84,-47.47 87.5,-57.47 91,-47.47 84,-47.47"/>
</g>
<!-- Node3 -->
<g id="node3" class="node">
<title>Node3</title>
<g id="a_node3"><a xlink:title=" ">
<polygon fill="none" stroke="#bfbfbf" points="0,-135.5 0,-165.5 143,-165.5 143,-135.5 0,-135.5"/>
<text text-anchor="start" x="8" y="-153.5" font-family="Helvetica,sans-Serif" font-size="10.00">OpConversionPattern</text>
<text text-anchor="middle" x="71.5" y="-142.5" font-family="Helvetica,sans-Serif" font-size="10.00">&lt; spirv::AccessChainOp &gt;</text>
</a>
</g>
</g>
<!-- Node3&#45;&gt;Node2 -->
<g id="edge2" class="edge">
<title>Node3&#45;&gt;Node2</title>
<path fill="none" stroke="midnightblue" d="M76.64,-125.09C79.24,-112.76 82.3,-98.22 84.5,-87.73"/>
<polygon fill="midnightblue" stroke="midnightblue" points="73.14,-124.7 74.51,-135.2 79.99,-126.14 73.14,-124.7"/>
</g>
<!-- Node4 -->
<g id="node4" class="node">
<title>Node4</title>
<g id="a_node4"><a xlink:href="classConvertAliasResource.html" target="_top" xlink:title=" ">
<polygon fill="none" stroke="black" points="161.5,-135.5 161.5,-165.5 285.5,-165.5 285.5,-135.5 161.5,-135.5"/>
<text text-anchor="start" x="169.5" y="-153.5" font-family="Helvetica,sans-Serif" font-size="10.00">ConvertAliasResource</text>
<text text-anchor="middle" x="223.5" y="-142.5" font-family="Helvetica,sans-Serif" font-size="10.00">&lt; OpTy &gt;</text>
</a>
</g>
</g>
<!-- Node4&#45;&gt;Node2 -->
<g id="edge3" class="edge">
<title>Node4&#45;&gt;Node2</title>
<path fill="none" stroke="orange" stroke-dasharray="5,2" d="M189.5,-130.5C165.63,-117.16 134.25,-99.62 112.63,-87.54"/>
<polygon fill="orange" stroke="orange" points="187.8,-133.56 198.24,-135.38 191.22,-127.45 187.8,-133.56"/>
<text text-anchor="middle" x="229.5" y="-109" font-family="Helvetica,sans-Serif" font-size="10.00"> &lt; spirv::AccessChainOp &gt;</text>
</g>
<!-- Node5 -->
<g id="node5" class="node">
<title>Node5</title>
<g id="a_node5"><a xlink:href="classmlir_1_1OpConversionPattern.html" target="_top" xlink:title=" ">
<polygon fill="none" stroke="black" points="151,-203.5 151,-233.5 296,-233.5 296,-203.5 151,-203.5"/>
<text text-anchor="start" x="159" y="-221.5" font-family="Helvetica,sans-Serif" font-size="10.00">mlir::OpConversionPattern</text>
<text text-anchor="middle" x="223.5" y="-210.5" font-family="Helvetica,sans-Serif" font-size="10.00">&lt; OpTy &gt;</text>
</a>
</g>
</g>
<!-- Node5&#45;&gt;Node4 -->
<g id="edge4" class="edge">
<title>Node5&#45;&gt;Node4</title>
<path fill="none" stroke="midnightblue" d="M223.5,-193.03C223.5,-183.86 223.5,-173.74 223.5,-165.79"/>
<polygon fill="midnightblue" stroke="midnightblue" points="220,-193.18 223.5,-203.18 227,-193.18 220,-193.18"/>
</g>
<!-- Node6 -->
<g id="node6" class="node">
<title>Node6</title>
<g id="a_node6"><a xlink:href="classmlir_1_1ConversionPattern.html" target="_top" xlink:title="Base class for the conversion patterns.">
<polygon fill="none" stroke="black" points="154,-349.5 154,-368.5 285,-368.5 285,-349.5 154,-349.5"/>
<text text-anchor="middle" x="219.5" y="-356.5" font-family="Helvetica,sans-Serif" font-size="10.00">mlir::ConversionPattern</text>
</a>
</g>
</g>
<!-- Node6&#45;&gt;Node5 -->
<g id="edge5" class="edge">
<title>Node6&#45;&gt;Node5</title>
<path fill="none" stroke="midnightblue" d="M220.04,-339.25C220.85,-311.19 222.36,-258.88 223.09,-233.73"/>
<polygon fill="midnightblue" stroke="midnightblue" points="216.54,-339.24 219.75,-349.34 223.54,-339.44 216.54,-339.24"/>
</g>
<!-- Node9 -->
<g id="node9" class="node">
<title>Node9</title>
<g id="a_node9"><a xlink:href="classmlir_1_1OpConversionPattern.html" target="_top" xlink:title="OpConversionPattern is a wrapper around ConversionPattern that allows for matching and rewriting agai...">
<polygon fill="none" stroke="black" points="236,-281.5 236,-311.5 381,-311.5 381,-281.5 236,-281.5"/>
<text text-anchor="start" x="244" y="-299.5" font-family="Helvetica,sans-Serif" font-size="10.00">mlir::OpConversionPattern</text>
<text text-anchor="middle" x="308.5" y="-288.5" font-family="Helvetica,sans-Serif" font-size="10.00">&lt; SourceOp &gt;</text>
</a>
</g>
</g>
<!-- Node6&#45;&gt;Node9 -->
<g id="edge9" class="edge">
<title>Node6&#45;&gt;Node9</title>
<path fill="none" stroke="midnightblue" d="M240.89,-343.46C255.15,-333.77 273.77,-321.11 287.87,-311.53"/>
<polygon fill="midnightblue" stroke="midnightblue" points="238.55,-340.82 232.25,-349.33 242.49,-346.6 238.55,-340.82"/>
</g>
<!-- Node7 -->
<g id="node7" class="node">
<title>Node7</title>
<g id="a_node7"><a xlink:href="classmlir_1_1RewritePattern.html" target="_top" xlink:title="RewritePattern is the common base class for all DAG to DAG replacements.">
<polygon fill="none" stroke="black" points="162.5,-406.5 162.5,-425.5 276.5,-425.5 276.5,-406.5 162.5,-406.5"/>
<text text-anchor="middle" x="219.5" y="-413.5" font-family="Helvetica,sans-Serif" font-size="10.00">mlir::RewritePattern</text>
</a>
</g>
</g>
<!-- Node7&#45;&gt;Node6 -->
<g id="edge6" class="edge">
<title>Node7&#45;&gt;Node6</title>
<path fill="none" stroke="midnightblue" d="M219.5,-396.12C219.5,-386.82 219.5,-376.06 219.5,-368.71"/>
<polygon fill="midnightblue" stroke="midnightblue" points="216,-396.41 219.5,-406.41 223,-396.41 216,-396.41"/>
</g>
<!-- Node8 -->
<g id="node8" class="node">
<title>Node8</title>
<g id="a_node8"><a xlink:href="classmlir_1_1Pattern.html" target="_top" xlink:title="This class contains all of the data related to a pattern, but does not contain any methods or logic f...">
<polygon fill="none" stroke="black" points="181,-463.5 181,-482.5 258,-482.5 258,-463.5 181,-463.5"/>
<text text-anchor="middle" x="219.5" y="-470.5" font-family="Helvetica,sans-Serif" font-size="10.00">mlir::Pattern</text>
</a>
</g>
</g>
<!-- Node8&#45;&gt;Node7 -->
<g id="edge7" class="edge">
<title>Node8&#45;&gt;Node7</title>
<path fill="none" stroke="midnightblue" d="M219.5,-453.12C219.5,-443.82 219.5,-433.06 219.5,-425.71"/>
<polygon fill="midnightblue" stroke="midnightblue" points="216,-453.41 219.5,-463.41 223,-453.41 216,-453.41"/>
</g>
<!-- Node9&#45;&gt;Node5 -->
<g id="edge8" class="edge">
<title>Node9&#45;&gt;Node5</title>
<path fill="none" stroke="orange" stroke-dasharray="5,2" d="M284.89,-274.39C270.4,-261.43 252.22,-245.18 239.42,-233.73"/>
<polygon fill="orange" stroke="orange" points="282.72,-277.15 292.51,-281.2 287.39,-271.93 282.72,-277.15"/>
<text text-anchor="middle" x="295.5" y="-255" font-family="Helvetica,sans-Serif" font-size="10.00"> &lt; OpTy &gt;</text>
</g>
</g>
</svg>
