<?xml version="1.0" encoding="UTF-8" standalone="no"?>
<!DOCTYPE svg PUBLIC "-//W3C//DTD SVG 1.1//EN"
 "http://www.w3.org/Graphics/SVG/1.1/DTD/svg11.dtd">
<!-- Generated by graphviz version 2.43.0 (0)
 -->
<!-- Title: mlir::python::MLIR_BINDINGS_PYTHON_DOMAIN::gpu::AsyncTokenType Pages: 1 -->
<svg width="1120pt" height="82pt"
 viewBox="0.00 0.00 1120.00 81.50" xmlns="http://www.w3.org/2000/svg" xmlns:xlink="http://www.w3.org/1999/xlink">
<g id="graph0" class="graph" transform="scale(1 1) rotate(0) translate(4 77.5)">
<title>mlir::python::MLIR_BINDINGS_PYTHON_DOMAIN::gpu::AsyncTokenType</title>
<!-- Node1 -->
<g id="Node000001" class="node">
<title>Node1</title>
<g id="a_Node000001"><a xlink:title=" ">
<polygon fill="#999999" stroke="#666666" points="1112,-73.5 949,-73.5 949,-32.5 1112,-32.5 1112,-73.5"/>
<text text-anchor="start" x="957" y="-61.5" font-family="Helvetica,sans-Serif" font-size="10.00">mlir::python::MLIR</text>
<text text-anchor="start" x="957" y="-50.5" font-family="Helvetica,sans-Serif" font-size="10.00">_BINDINGS_PYTHON_DOMAIN</text>
<text text-anchor="middle" x="1030.5" y="-39.5" font-family="Helvetica,sans-Serif" font-size="10.00">::gpu::AsyncTokenType</text>
</a>
</g>
</g>
<!-- Node2 -->
<g id="Node000002" class="node">
<title>Node2</title>
<g id="a_Node000002"><a xlink:href="classmlir_1_1python_1_1MLIR__BINDINGS__PYTHON__DOMAIN_1_1PyConcreteType.html" target="_top" xlink:title=" ">
<polygon fill="white" stroke="#666666" points="912,-73.5 709,-73.5 709,-32.5 912,-32.5 912,-73.5"/>
<text text-anchor="start" x="717" y="-61.5" font-family="Helvetica,sans-Serif" font-size="10.00">mlir::python::MLIR</text>
<text text-anchor="start" x="717" y="-50.5" font-family="Helvetica,sans-Serif" font-size="10.00">_BINDINGS_PYTHON_DOMAIN</text>
<text text-anchor="middle" x="810.5" y="-39.5" font-family="Helvetica,sans-Serif" font-size="10.00">::PyConcreteType&lt; AsyncTokenType &gt;</text>
</a>
</g>
</g>
<!-- Node2&#45;&gt;Node1 -->
<g id="edge1_Node000001_Node000002" class="edge">
<title>Node2&#45;&gt;Node1</title>
<g id="a_edge1_Node000001_Node000002"><a xlink:title=" ">
<path fill="none" stroke="#63b8ff" d="M922.29,-53C931.23,-53 940.15,-53 948.82,-53"/>
<polygon fill="#63b8ff" stroke="#63b8ff" points="922.2,-49.5 912.2,-53 922.2,-56.5 922.2,-49.5"/>
</a>
</g>
</g>
<!-- Node3 -->
<g id="Node000003" class="node">
<title>Node3</title>
<g id="a_Node000003"><a xlink:href="classmlir_1_1python_1_1MLIR__BINDINGS__PYTHON__DOMAIN_1_1PyType.html" target="_top" xlink:title="Wrapper around the generic MlirType.">
<polygon fill="white" stroke="#666666" points="363,-73.5 200,-73.5 200,-32.5 363,-32.5 363,-73.5"/>
<text text-anchor="start" x="208" y="-61.5" font-family="Helvetica,sans-Serif" font-size="10.00">mlir::python::MLIR</text>
<text text-anchor="start" x="208" y="-50.5" font-family="Helvetica,sans-Serif" font-size="10.00">_BINDINGS_PYTHON_DOMAIN</text>
<text text-anchor="middle" x="281.5" y="-39.5" font-family="Helvetica,sans-Serif" font-size="10.00">::PyType</text>
</a>
</g>
</g>
<!-- Node3&#45;&gt;Node2 -->
<g id="edge2_Node000002_Node000003" class="edge">
<title>Node3&#45;&gt;Node2</title>
<g id="a_edge2_Node000002_Node000003"><a xlink:title=" ">
<path fill="none" stroke="#63b8ff" d="M373.24,-59.65C382.28,-60.17 391.32,-60.63 400,-61 529.22,-66.46 561.8,-69.98 691,-64 696.78,-63.73 702.71,-63.39 708.69,-63"/>
<polygon fill="#63b8ff" stroke="#63b8ff" points="373.25,-56.14 363.06,-59.04 372.83,-63.13 373.25,-56.14"/>
</a>
</g>
</g>
<!-- Node5 -->
<g id="Node000005" class="node">
<title>Node5</title>
<g id="a_Node000005"><a xlink:href="classmlir_1_1python_1_1MLIR__BINDINGS__PYTHON__DOMAIN_1_1PyConcreteType.html" target="_top" xlink:title="CRTP base classes for Python types that subclass Type and should be castable from it (i....">
<polygon fill="white" stroke="#666666" points="564,-52 400,-52 400,0 564,0 564,-52"/>
<text text-anchor="start" x="408" y="-40" font-family="Helvetica,sans-Serif" font-size="10.00">mlir::python::MLIR</text>
<text text-anchor="start" x="408" y="-29" font-family="Helvetica,sans-Serif" font-size="10.00">_BINDINGS_PYTHON_DOMAIN</text>
<text text-anchor="start" x="408" y="-18" font-family="Helvetica,sans-Serif" font-size="10.00">::PyConcreteType&lt; DerivedTy,</text>
<text text-anchor="middle" x="482" y="-7" font-family="Helvetica,sans-Serif" font-size="10.00"> BaseTy &gt;</text>
</a>
</g>
</g>
<!-- Node3&#45;&gt;Node5 -->
<g id="edge5_Node000005_Node000003" class="edge">
<title>Node3&#45;&gt;Node5</title>
<g id="a_edge5_Node000005_Node000003"><a xlink:title=" ">
<path fill="none" stroke="#63b8ff" d="M373.17,-40.67C382.01,-39.46 390.95,-38.25 399.69,-37.06"/>
<polygon fill="#63b8ff" stroke="#63b8ff" points="372.67,-37.2 363.24,-42.02 373.62,-44.14 372.67,-37.2"/>
</a>
</g>
</g>
<!-- Node4 -->
<g id="Node000004" class="node">
<title>Node4</title>
<g id="a_Node000004"><a xlink:href="classmlir_1_1python_1_1MLIR__BINDINGS__PYTHON__DOMAIN_1_1BaseContextObject.html" target="_top" xlink:title="Base class for all objects that directly or indirectly depend on an MlirContext.">
<polygon fill="white" stroke="#666666" points="163,-73.5 0,-73.5 0,-32.5 163,-32.5 163,-73.5"/>
<text text-anchor="start" x="8" y="-61.5" font-family="Helvetica,sans-Serif" font-size="10.00">mlir::python::MLIR</text>
<text text-anchor="start" x="8" y="-50.5" font-family="Helvetica,sans-Serif" font-size="10.00">_BINDINGS_PYTHON_DOMAIN</text>
<text text-anchor="middle" x="81.5" y="-39.5" font-family="Helvetica,sans-Serif" font-size="10.00">::BaseContextObject</text>
</a>
</g>
</g>
<!-- Node4&#45;&gt;Node3 -->
<g id="edge3_Node000003_Node000004" class="edge">
<title>Node4&#45;&gt;Node3</title>
<g id="a_edge3_Node000003_Node000004"><a xlink:title=" ">
<path fill="none" stroke="#63b8ff" d="M173.32,-53C182.12,-53 191.02,-53 199.72,-53"/>
<polygon fill="#63b8ff" stroke="#63b8ff" points="173.03,-49.5 163.03,-53 173.03,-56.5 173.03,-49.5"/>
</a>
</g>
</g>
<!-- Node5&#45;&gt;Node2 -->
<g id="edge4_Node000002_Node000005" class="edge">
<title>Node5&#45;&gt;Node2</title>
<g id="a_edge4_Node000002_Node000005"><a xlink:title=" ">
<path fill="none" stroke="orange" stroke-dasharray="5,2" d="M574.32,-33.55C616.2,-37.01 665.97,-41.13 708.92,-44.68"/>
<polygon fill="orange" stroke="orange" points="574.38,-30.04 564.13,-32.71 573.8,-37.02 574.38,-30.04"/>
</a>
</g>
<text text-anchor="start" x="585.5" y="-48.5" font-family="Helvetica,sans-Serif" font-size="10.00" fill="grey">&lt; AsyncTokenType &gt;</text>
</g>
</g>
</svg>
