<?xml version="1.0" encoding="UTF-8" standalone="no"?>
<!DOCTYPE svg PUBLIC "-//W3C//DTD SVG 1.1//EN"
 "http://www.w3.org/Graphics/SVG/1.1/DTD/svg11.dtd">
<!-- Generated by graphviz version 2.43.0 (0)
 -->
<!-- Title: mlir::pdl_to_pdl_interp::ResultCountAtLeastQuestion Pages: 1 -->
<svg width="923pt" height="106pt"
 viewBox="0.00 0.00 923.00 105.50" xmlns="http://www.w3.org/2000/svg" xmlns:xlink="http://www.w3.org/1999/xlink">
<g id="graph0" class="graph" transform="scale(1 1) rotate(0) translate(4 101.5)">
<title>mlir::pdl_to_pdl_interp::ResultCountAtLeastQuestion</title>
<!-- Node1 -->
<g id="Node000001" class="node">
<title>Node1</title>
<g id="a_Node000001"><a xlink:title=" ">
<polygon fill="#999999" stroke="#666666" points="915,-66.5 753,-66.5 753,-36.5 915,-36.5 915,-66.5"/>
<text text-anchor="start" x="761" y="-54.5" font-family="Helvetica,sans-Serif" font-size="10.00">mlir::pdl_to_pdl_interp</text>
<text text-anchor="middle" x="834" y="-43.5" font-family="Helvetica,sans-Serif" font-size="10.00">::ResultCountAtLeastQuestion</text>
</a>
</g>
</g>
<!-- Node2 -->
<g id="Node000002" class="node">
<title>Node2</title>
<g id="a_Node000002"><a xlink:href="classmlir_1_1pdl__to__pdl__interp_1_1PredicateBase.html" target="_top" xlink:title=" ">
<polygon fill="white" stroke="#666666" points="716,-83 516,-83 516,-20 716,-20 716,-83"/>
<text text-anchor="start" x="524" y="-71" font-family="Helvetica,sans-Serif" font-size="10.00">mlir::pdl_to_pdl_interp</text>
<text text-anchor="start" x="524" y="-60" font-family="Helvetica,sans-Serif" font-size="10.00">::PredicateBase&lt; ResultCount</text>
<text text-anchor="start" x="524" y="-49" font-family="Helvetica,sans-Serif" font-size="10.00">AtLeastQuestion, Qualifier,</text>
<text text-anchor="start" x="524" y="-38" font-family="Helvetica,sans-Serif" font-size="10.00"> void, Predicates::ResultCountAtLeast</text>
<text text-anchor="middle" x="616" y="-27" font-family="Helvetica,sans-Serif" font-size="10.00">Question &gt;</text>
</a>
</g>
</g>
<!-- Node2&#45;&gt;Node1 -->
<g id="edge1_Node000001_Node000002" class="edge">
<title>Node2&#45;&gt;Node1</title>
<g id="a_edge1_Node000001_Node000002"><a xlink:title=" ">
<path fill="none" stroke="#63b8ff" d="M726.27,-51.5C735.24,-51.5 744.2,-51.5 752.9,-51.5"/>
<polygon fill="#63b8ff" stroke="#63b8ff" points="726.15,-48 716.15,-51.5 726.15,-55 726.15,-48"/>
</a>
</g>
</g>
<!-- Node3 -->
<g id="Node000003" class="node">
<title>Node3</title>
<g id="a_Node000003"><a xlink:href="classmlir_1_1pdl__to__pdl__interp_1_1Qualifier.html" target="_top" xlink:title="An ordinal predicate consists of a &quot;Question&quot; and a set of acceptable &quot;Answers&quot; (later converted to o...">
<polygon fill="white" stroke="#666666" points="296,-97.5 170,-97.5 170,-67.5 296,-67.5 296,-97.5"/>
<text text-anchor="start" x="178" y="-85.5" font-family="Helvetica,sans-Serif" font-size="10.00">mlir::pdl_to_pdl_interp</text>
<text text-anchor="middle" x="233" y="-74.5" font-family="Helvetica,sans-Serif" font-size="10.00">::Qualifier</text>
</a>
</g>
</g>
<!-- Node3&#45;&gt;Node2 -->
<g id="edge2_Node000002_Node000003" class="edge">
<title>Node3&#45;&gt;Node2</title>
<g id="a_edge2_Node000002_Node000003"><a xlink:title=" ">
<path fill="none" stroke="#63b8ff" d="M306.27,-80.45C359.4,-78.5 433.31,-74.9 498,-68.5 503.82,-67.92 509.8,-67.27 515.82,-66.55"/>
<polygon fill="#63b8ff" stroke="#63b8ff" points="306.13,-76.95 296.26,-80.8 306.38,-83.94 306.13,-76.95"/>
</a>
</g>
</g>
<!-- Node4 -->
<g id="Node000004" class="node">
<title>Node4</title>
<g id="a_Node000004"><a xlink:href="classmlir_1_1StorageUniquer_1_1BaseStorage.html" target="_top" xlink:title="This class acts as the base storage that all storage classes must derived from.">
<polygon fill="white" stroke="#666666" points="118,-97.5 0,-97.5 0,-67.5 118,-67.5 118,-97.5"/>
<text text-anchor="start" x="8" y="-85.5" font-family="Helvetica,sans-Serif" font-size="10.00">mlir::StorageUniquer</text>
<text text-anchor="middle" x="59" y="-74.5" font-family="Helvetica,sans-Serif" font-size="10.00">::BaseStorage</text>
</a>
</g>
</g>
<!-- Node4&#45;&gt;Node3 -->
<g id="edge3_Node000003_Node000004" class="edge">
<title>Node4&#45;&gt;Node3</title>
<g id="a_edge3_Node000003_Node000004"><a xlink:title=" ">
<path fill="none" stroke="#63b8ff" d="M128.49,-82.5C142.1,-82.5 156.32,-82.5 169.71,-82.5"/>
<polygon fill="#63b8ff" stroke="#63b8ff" points="128.23,-79 118.23,-82.5 128.23,-86 128.23,-79"/>
</a>
</g>
</g>
<!-- Node5 -->
<g id="Node000005" class="node">
<title>Node5</title>
<g id="a_Node000005"><a xlink:href="classmlir_1_1pdl__to__pdl__interp_1_1PredicateBase.html" target="_top" xlink:title="Base class for all predicates, used to allow efficient pointer comparison.">
<polygon fill="white" stroke="#666666" points="311,-41 155,-41 155,0 311,0 311,-41"/>
<text text-anchor="start" x="163" y="-29" font-family="Helvetica,sans-Serif" font-size="10.00">mlir::pdl_to_pdl_interp</text>
<text text-anchor="start" x="163" y="-18" font-family="Helvetica,sans-Serif" font-size="10.00">::PredicateBase&lt; ConcreteT,</text>
<text text-anchor="middle" x="233" y="-7" font-family="Helvetica,sans-Serif" font-size="10.00"> BaseT, Key, Kind &gt;</text>
</a>
</g>
</g>
<!-- Node5&#45;&gt;Node2 -->
<g id="edge4_Node000002_Node000005" class="edge">
<title>Node5&#45;&gt;Node2</title>
<g id="a_edge4_Node000002_Node000005"><a xlink:title=" ">
<path fill="none" stroke="orange" stroke-dasharray="5,2" d="M321.35,-12.86C372.98,-9.99 439.5,-9.17 498,-17.5 503.86,-18.33 509.84,-19.39 515.85,-20.62"/>
<polygon fill="orange" stroke="orange" points="321,-9.37 311.22,-13.46 321.41,-16.36 321,-9.37"/>
</a>
</g>
<text text-anchor="start" x="332.5" y="-53" font-family="Helvetica,sans-Serif" font-size="10.00" fill="grey">&lt; ResultCountAtLeastQuestion,</text>
<text text-anchor="start" x="332.5" y="-38" font-family="Helvetica,sans-Serif" font-size="10.00" fill="grey">   Qualifier, void, Predicates</text>
<text text-anchor="start" x="332.5" y="-23" font-family="Helvetica,sans-Serif" font-size="10.00" fill="grey">  ::ResultCountAtLeastQuestion &gt;</text>
</g>
<!-- Node6 -->
<g id="Node000006" class="node">
<title>Node6</title>
<g id="a_Node000006"><a xlink:title=" ">
<polygon fill="white" stroke="#666666" points="82.5,-30 35.5,-30 35.5,-11 82.5,-11 82.5,-30"/>
<text text-anchor="middle" x="59" y="-18" font-family="Helvetica,sans-Serif" font-size="10.00">BaseT</text>
</a>
</g>
</g>
<!-- Node6&#45;&gt;Node5 -->
<g id="edge5_Node000005_Node000006" class="edge">
<title>Node6&#45;&gt;Node5</title>
<g id="a_edge5_Node000005_Node000006"><a xlink:title=" ">
<path fill="none" stroke="#63b8ff" d="M93.13,-20.5C110.74,-20.5 133.18,-20.5 154.86,-20.5"/>
<polygon fill="#63b8ff" stroke="#63b8ff" points="92.84,-17 82.84,-20.5 92.84,-24 92.84,-17"/>
</a>
</g>
</g>
</g>
</svg>
