<?xml version="1.0" encoding="UTF-8" standalone="no"?>
<!DOCTYPE svg PUBLIC "-//W3C//DTD SVG 1.1//EN"
 "http://www.w3.org/Graphics/SVG/1.1/DTD/svg11.dtd">
<!-- Generated by graphviz version 2.43.0 (0)
 -->
<!-- Title: mlir::gpu::GPUToNVVMPipelineOptions Pages: 1 -->
<svg width="317pt" height="288pt"
 viewBox="0.00 0.00 316.50 288.00" xmlns="http://www.w3.org/2000/svg" xmlns:xlink="http://www.w3.org/1999/xlink">
<g id="graph0" class="graph" transform="scale(1 1) rotate(0) translate(4 284)">
<title>mlir::gpu::GPUToNVVMPipelineOptions</title>
<!-- Node1 -->
<g id="node1" class="node">
<title>Node1</title>
<g id="a_node1"><a xlink:title="Options for the gpu to nvvm pipeline.">
<polygon fill="#bfbfbf" stroke="black" points="5,-0.5 5,-30.5 172,-30.5 172,-0.5 5,-0.5"/>
<text text-anchor="start" x="13" y="-18.5" font-family="Helvetica,sans-Serif" font-size="10.00">mlir::gpu::GPUToNVVMPipeline</text>
<text text-anchor="middle" x="88.5" y="-7.5" font-family="Helvetica,sans-Serif" font-size="10.00">Options</text>
</a>
</g>
</g>
<!-- Node2 -->
<g id="node2" class="node">
<title>Node2</title>
<g id="a_node2"><a xlink:href="classmlir_1_1PassPipelineOptions.html" target="_top" xlink:title=" ">
<polygon fill="none" stroke="black" points="0,-68.5 0,-98.5 177,-98.5 177,-68.5 0,-68.5"/>
<text text-anchor="start" x="8" y="-86.5" font-family="Helvetica,sans-Serif" font-size="10.00">mlir::PassPipelineOptions</text>
<text text-anchor="middle" x="88.5" y="-75.5" font-family="Helvetica,sans-Serif" font-size="10.00">&lt; GPUToNVVMPipelineOptions &gt;</text>
</a>
</g>
</g>
<!-- Node2&#45;&gt;Node1 -->
<g id="edge1" class="edge">
<title>Node2&#45;&gt;Node1</title>
<path fill="none" stroke="midnightblue" d="M88.5,-58.03C88.5,-48.86 88.5,-38.74 88.5,-30.79"/>
<polygon fill="midnightblue" stroke="midnightblue" points="85,-58.18 88.5,-68.18 92,-58.18 85,-58.18"/>
</g>
<!-- Node3 -->
<g id="node3" class="node">
<title>Node3</title>
<g id="a_node3"><a xlink:href="classmlir_1_1detail_1_1PassOptions.html" target="_top" xlink:title="Base container class and manager for all pass options.">
<polygon fill="none" stroke="black" points="17,-203.5 17,-222.5 152,-222.5 152,-203.5 17,-203.5"/>
<text text-anchor="middle" x="84.5" y="-210.5" font-family="Helvetica,sans-Serif" font-size="10.00">mlir::detail::PassOptions</text>
</a>
</g>
</g>
<!-- Node3&#45;&gt;Node2 -->
<g id="edge2" class="edge">
<title>Node3&#45;&gt;Node2</title>
<path fill="none" stroke="midnightblue" d="M85.1,-192.9C85.91,-167.05 87.34,-121.54 88.06,-98.59"/>
<polygon fill="midnightblue" stroke="midnightblue" points="81.59,-193.13 84.77,-203.24 88.59,-193.35 81.59,-193.13"/>
</g>
<!-- Node5 -->
<g id="node5" class="node">
<title>Node5</title>
<g id="a_node5"><a xlink:href="classmlir_1_1PassPipelineOptions.html" target="_top" xlink:title="Subclasses of PassPipelineOptions provide a set of options that can be used to initialize a pass pipe...">
<polygon fill="none" stroke="black" points="100,-146.5 100,-165.5 269,-165.5 269,-146.5 100,-146.5"/>
<text text-anchor="middle" x="184.5" y="-153.5" font-family="Helvetica,sans-Serif" font-size="10.00">mlir::PassPipelineOptions&lt; T &gt;</text>
</a>
</g>
</g>
<!-- Node3&#45;&gt;Node5 -->
<g id="edge5" class="edge">
<title>Node3&#45;&gt;Node5</title>
<path fill="none" stroke="midnightblue" d="M108.98,-198.54C127.71,-188.24 152.96,-174.35 168.98,-165.53"/>
<polygon fill="midnightblue" stroke="midnightblue" points="107.2,-195.52 100.12,-203.41 110.57,-201.65 107.2,-195.52"/>
</g>
<!-- Node4 -->
<g id="node4" class="node">
<title>Node4</title>
<g id="a_node4"><a xlink:href="classllvm_1_1cl_1_1SubCommand.html" target="_top" xlink:title=" ">
<polygon fill="none" stroke="black" points="21,-260.5 21,-279.5 148,-279.5 148,-260.5 21,-260.5"/>
<text text-anchor="middle" x="84.5" y="-267.5" font-family="Helvetica,sans-Serif" font-size="10.00">llvm::cl::SubCommand</text>
</a>
</g>
</g>
<!-- Node4&#45;&gt;Node3 -->
<g id="edge3" class="edge">
<title>Node4&#45;&gt;Node3</title>
<path fill="none" stroke="darkgreen" d="M84.5,-250.12C84.5,-240.82 84.5,-230.06 84.5,-222.71"/>
<polygon fill="darkgreen" stroke="darkgreen" points="81,-250.41 84.5,-260.41 88,-250.41 81,-250.41"/>
</g>
<!-- Node5&#45;&gt;Node2 -->
<g id="edge4" class="edge">
<title>Node5&#45;&gt;Node2</title>
<path fill="none" stroke="orange" stroke-dasharray="5,2" d="M164.25,-140.13C147.56,-127.87 124.05,-110.61 107.67,-98.58"/>
<polygon fill="orange" stroke="orange" points="162.6,-143.26 172.73,-146.36 166.74,-137.62 162.6,-143.26"/>
<text text-anchor="middle" x="226.5" y="-120" font-family="Helvetica,sans-Serif" font-size="10.00"> &lt; GPUToNVVMPipelineOptions &gt;</text>
</g>
</g>
</svg>
