<?xml version="1.0" encoding="UTF-8" standalone="no"?>
<!DOCTYPE svg PUBLIC "-//W3C//DTD SVG 1.1//EN"
 "http://www.w3.org/Graphics/SVG/1.1/DTD/svg11.dtd">
<!-- Generated by graphviz version 2.43.0 (0)
 -->
<!-- Title: mlir::python::MLIR_BINDINGS_PYTHON_DOMAIN::nvgpu::TensorMapDescriptorType Pages: 1 -->
<svg width="1198pt" height="87pt"
 viewBox="0.00 0.00 1198.00 87.00" xmlns="http://www.w3.org/2000/svg" xmlns:xlink="http://www.w3.org/1999/xlink">
<g id="graph0" class="graph" transform="scale(1 1) rotate(0) translate(4 83)">
<title>mlir::python::MLIR_BINDINGS_PYTHON_DOMAIN::nvgpu::TensorMapDescriptorType</title>
<!-- Node1 -->
<g id="Node000001" class="node">
<title>Node1</title>
<g id="a_Node000001"><a xlink:title=" ">
<polygon fill="#999999" stroke="#666666" points="1190,-73.5 1006,-73.5 1006,-32.5 1190,-32.5 1190,-73.5"/>
<text text-anchor="start" x="1014" y="-61.5" font-family="Helvetica,sans-Serif" font-size="10.00">mlir::python::MLIR</text>
<text text-anchor="start" x="1014" y="-50.5" font-family="Helvetica,sans-Serif" font-size="10.00">_BINDINGS_PYTHON_DOMAIN</text>
<text text-anchor="middle" x="1098" y="-39.5" font-family="Helvetica,sans-Serif" font-size="10.00">::nvgpu::TensorMapDescriptorType</text>
</a>
</g>
</g>
<!-- Node2 -->
<g id="Node000002" class="node">
<title>Node2</title>
<g id="a_Node000002"><a xlink:href="classmlir_1_1python_1_1MLIR__BINDINGS__PYTHON__DOMAIN_1_1PyConcreteType.html" target="_top" xlink:title=" ">
<polygon fill="white" stroke="#666666" points="969,-79 754,-79 754,-27 969,-27 969,-79"/>
<text text-anchor="start" x="762" y="-67" font-family="Helvetica,sans-Serif" font-size="10.00">mlir::python::MLIR</text>
<text text-anchor="start" x="762" y="-56" font-family="Helvetica,sans-Serif" font-size="10.00">_BINDINGS_PYTHON_DOMAIN</text>
<text text-anchor="start" x="762" y="-45" font-family="Helvetica,sans-Serif" font-size="10.00">::PyConcreteType&lt; TensorMapDescriptor</text>
<text text-anchor="middle" x="861.5" y="-34" font-family="Helvetica,sans-Serif" font-size="10.00">Type &gt;</text>
</a>
</g>
</g>
<!-- Node2&#45;&gt;Node1 -->
<g id="edge1_Node000001_Node000002" class="edge">
<title>Node2&#45;&gt;Node1</title>
<g id="a_edge1_Node000001_Node000002"><a xlink:title=" ">
<path fill="none" stroke="#63b8ff" d="M979.16,-53C988.07,-53 996.99,-53 1005.7,-53"/>
<polygon fill="#63b8ff" stroke="#63b8ff" points="979.11,-49.5 969.11,-53 979.11,-56.5 979.11,-49.5"/>
</a>
</g>
</g>
<!-- Node3 -->
<g id="Node000003" class="node">
<title>Node3</title>
<g id="a_Node000003"><a xlink:href="classmlir_1_1python_1_1MLIR__BINDINGS__PYTHON__DOMAIN_1_1PyType.html" target="_top" xlink:title="Wrapper around the generic MlirType.">
<polygon fill="white" stroke="#666666" points="363,-73.5 200,-73.5 200,-32.5 363,-32.5 363,-73.5"/>
<text text-anchor="start" x="208" y="-61.5" font-family="Helvetica,sans-Serif" font-size="10.00">mlir::python::MLIR</text>
<text text-anchor="start" x="208" y="-50.5" font-family="Helvetica,sans-Serif" font-size="10.00">_BINDINGS_PYTHON_DOMAIN</text>
<text text-anchor="middle" x="281.5" y="-39.5" font-family="Helvetica,sans-Serif" font-size="10.00">::PyType</text>
</a>
</g>
</g>
<!-- Node3&#45;&gt;Node2 -->
<g id="edge2_Node000002_Node000003" class="edge">
<title>Node3&#45;&gt;Node2</title>
<g id="a_edge2_Node000002_Node000003"><a xlink:title=" ">
<path fill="none" stroke="#63b8ff" d="M373.24,-59.6C382.28,-60.13 391.32,-60.61 400,-61 549.19,-67.71 586.83,-72.17 736,-65 741.86,-64.72 747.86,-64.36 753.92,-63.95"/>
<polygon fill="#63b8ff" stroke="#63b8ff" points="373.25,-56.09 363.06,-58.98 372.83,-63.08 373.25,-56.09"/>
</a>
</g>
</g>
<!-- Node5 -->
<g id="Node000005" class="node">
<title>Node5</title>
<g id="a_Node000005"><a xlink:href="classmlir_1_1python_1_1MLIR__BINDINGS__PYTHON__DOMAIN_1_1PyConcreteType.html" target="_top" xlink:title="CRTP base classes for Python types that subclass Type and should be castable from it (i....">
<polygon fill="white" stroke="#666666" points="564,-52 400,-52 400,0 564,0 564,-52"/>
<text text-anchor="start" x="408" y="-40" font-family="Helvetica,sans-Serif" font-size="10.00">mlir::python::MLIR</text>
<text text-anchor="start" x="408" y="-29" font-family="Helvetica,sans-Serif" font-size="10.00">_BINDINGS_PYTHON_DOMAIN</text>
<text text-anchor="start" x="408" y="-18" font-family="Helvetica,sans-Serif" font-size="10.00">::PyConcreteType&lt; DerivedTy,</text>
<text text-anchor="middle" x="482" y="-7" font-family="Helvetica,sans-Serif" font-size="10.00"> BaseTy &gt;</text>
</a>
</g>
</g>
<!-- Node3&#45;&gt;Node5 -->
<g id="edge5_Node000005_Node000003" class="edge">
<title>Node3&#45;&gt;Node5</title>
<g id="a_edge5_Node000005_Node000003"><a xlink:title=" ">
<path fill="none" stroke="#63b8ff" d="M373.17,-40.67C382.01,-39.46 390.95,-38.25 399.69,-37.06"/>
<polygon fill="#63b8ff" stroke="#63b8ff" points="372.67,-37.2 363.24,-42.02 373.62,-44.14 372.67,-37.2"/>
</a>
</g>
</g>
<!-- Node4 -->
<g id="Node000004" class="node">
<title>Node4</title>
<g id="a_Node000004"><a xlink:href="classmlir_1_1python_1_1MLIR__BINDINGS__PYTHON__DOMAIN_1_1BaseContextObject.html" target="_top" xlink:title="Base class for all objects that directly or indirectly depend on an MlirContext.">
<polygon fill="white" stroke="#666666" points="163,-73.5 0,-73.5 0,-32.5 163,-32.5 163,-73.5"/>
<text text-anchor="start" x="8" y="-61.5" font-family="Helvetica,sans-Serif" font-size="10.00">mlir::python::MLIR</text>
<text text-anchor="start" x="8" y="-50.5" font-family="Helvetica,sans-Serif" font-size="10.00">_BINDINGS_PYTHON_DOMAIN</text>
<text text-anchor="middle" x="81.5" y="-39.5" font-family="Helvetica,sans-Serif" font-size="10.00">::BaseContextObject</text>
</a>
</g>
</g>
<!-- Node4&#45;&gt;Node3 -->
<g id="edge3_Node000003_Node000004" class="edge">
<title>Node4&#45;&gt;Node3</title>
<g id="a_edge3_Node000003_Node000004"><a xlink:title=" ">
<path fill="none" stroke="#63b8ff" d="M173.32,-53C182.12,-53 191.02,-53 199.72,-53"/>
<polygon fill="#63b8ff" stroke="#63b8ff" points="173.03,-49.5 163.03,-53 173.03,-56.5 173.03,-49.5"/>
</a>
</g>
</g>
<!-- Node5&#45;&gt;Node2 -->
<g id="edge4_Node000002_Node000005" class="edge">
<title>Node5&#45;&gt;Node2</title>
<g id="a_edge4_Node000002_Node000005"><a xlink:title=" ">
<path fill="none" stroke="orange" stroke-dasharray="5,2" d="M574.7,-32.56C628.72,-36.42 697.3,-41.33 753.74,-45.36"/>
<polygon fill="orange" stroke="orange" points="574.67,-29.05 564.45,-31.83 574.17,-36.03 574.67,-29.05"/>
</a>
</g>
<text text-anchor="start" x="585" y="-49.5" font-family="Helvetica,sans-Serif" font-size="10.00" fill="grey">&lt; TensorMapDescriptorType &gt;</text>
</g>
</g>
</svg>
