<?xml version="1.0" encoding="UTF-8" standalone="no"?>
<!DOCTYPE svg PUBLIC "-//W3C//DTD SVG 1.1//EN"
 "http://www.w3.org/Graphics/SVG/1.1/DTD/svg11.dtd">
<!-- Generated by graphviz version 2.43.0 (0)
 -->
<!-- Title: mlir::pdl_to_pdl_interp::ResultPosition Pages: 1 -->
<svg width="869pt" height="104pt"
 viewBox="0.00 0.00 869.00 103.50" xmlns="http://www.w3.org/2000/svg" xmlns:xlink="http://www.w3.org/1999/xlink">
<g id="graph0" class="graph" transform="scale(1 1) rotate(0) translate(4 99.5)">
<title>mlir::pdl_to_pdl_interp::ResultPosition</title>
<!-- Node1 -->
<g id="node1" class="node">
<title>Node1</title>
<g id="a_node1"><a xlink:title="A position describing a result of an operation.">
<polygon fill="#bfbfbf" stroke="black" points="735,-35 735,-65 861,-65 861,-35 735,-35"/>
<text text-anchor="start" x="743" y="-53" font-family="Helvetica,sans-Serif" font-size="10.00">mlir::pdl_to_pdl_interp</text>
<text text-anchor="middle" x="798" y="-42" font-family="Helvetica,sans-Serif" font-size="10.00">::ResultPosition</text>
</a>
</g>
</g>
<!-- Node2 -->
<g id="node2" class="node">
<title>Node2</title>
<g id="a_node2"><a xlink:href="classmlir_1_1pdl__to__pdl__interp_1_1PredicateBase.html" target="_top" xlink:title=" ">
<polygon fill="none" stroke="black" points="489,-24 489,-76 698,-76 698,-24 489,-24"/>
<text text-anchor="start" x="497" y="-64" font-family="Helvetica,sans-Serif" font-size="10.00">mlir::pdl_to_pdl_interp</text>
<text text-anchor="start" x="497" y="-53" font-family="Helvetica,sans-Serif" font-size="10.00">::PredicateBase&lt; ResultPosition,</text>
<text text-anchor="start" x="497" y="-42" font-family="Helvetica,sans-Serif" font-size="10.00"> Position, std::pair&lt; OperationPosition</text>
<text text-anchor="middle" x="593.5" y="-31" font-family="Helvetica,sans-Serif" font-size="10.00"> *, unsigned &gt;, Predicates::ResultPos &gt;</text>
</a>
</g>
</g>
<!-- Node2&#45;&gt;Node1 -->
<g id="edge1" class="edge">
<title>Node2&#45;&gt;Node1</title>
<path fill="none" stroke="midnightblue" d="M708.39,-50C717.45,-50 726.37,-50 734.86,-50"/>
<polygon fill="midnightblue" stroke="midnightblue" points="708.12,-46.5 698.12,-50 708.12,-53.5 708.12,-46.5"/>
</g>
<!-- Node3 -->
<g id="node3" class="node">
<title>Node3</title>
<g id="a_node3"><a xlink:href="classmlir_1_1pdl__to__pdl__interp_1_1Position.html" target="_top" xlink:title="A position describes a value on the input IR on which a predicate may be applied, such as an operatio...">
<polygon fill="none" stroke="black" points="170,-65 170,-95 296,-95 296,-65 170,-65"/>
<text text-anchor="start" x="178" y="-83" font-family="Helvetica,sans-Serif" font-size="10.00">mlir::pdl_to_pdl_interp</text>
<text text-anchor="middle" x="233" y="-72" font-family="Helvetica,sans-Serif" font-size="10.00">::Position</text>
</a>
</g>
</g>
<!-- Node3&#45;&gt;Node2 -->
<g id="edge2" class="edge">
<title>Node3&#45;&gt;Node2</title>
<path fill="none" stroke="midnightblue" d="M306.55,-77.07C353.51,-74.84 415.95,-71.24 471,-66 476.82,-65.45 482.8,-64.82 488.83,-64.16"/>
<polygon fill="midnightblue" stroke="midnightblue" points="306.3,-73.58 296.47,-77.54 306.62,-80.57 306.3,-73.58"/>
</g>
<!-- Node4 -->
<g id="node4" class="node">
<title>Node4</title>
<g id="a_node4"><a xlink:href="classmlir_1_1StorageUniquer_1_1BaseStorage.html" target="_top" xlink:title="This class acts as the base storage that all storage classes must derived from.">
<polygon fill="none" stroke="black" points="0,-65 0,-95 118,-95 118,-65 0,-65"/>
<text text-anchor="start" x="8" y="-83" font-family="Helvetica,sans-Serif" font-size="10.00">mlir::StorageUniquer</text>
<text text-anchor="middle" x="59" y="-72" font-family="Helvetica,sans-Serif" font-size="10.00">::BaseStorage</text>
</a>
</g>
</g>
<!-- Node4&#45;&gt;Node3 -->
<g id="edge3" class="edge">
<title>Node4&#45;&gt;Node3</title>
<path fill="none" stroke="midnightblue" d="M128.49,-80C142.1,-80 156.32,-80 169.71,-80"/>
<polygon fill="midnightblue" stroke="midnightblue" points="128.23,-76.5 118.23,-80 128.23,-83.5 128.23,-76.5"/>
</g>
<!-- Node5 -->
<g id="node5" class="node">
<title>Node5</title>
<g id="a_node5"><a xlink:href="classmlir_1_1pdl__to__pdl__interp_1_1PredicateBase.html" target="_top" xlink:title="Base class for all predicates, used to allow efficient pointer comparison.">
<polygon fill="none" stroke="black" points="155,-0.5 155,-41.5 311,-41.5 311,-0.5 155,-0.5"/>
<text text-anchor="start" x="163" y="-29.5" font-family="Helvetica,sans-Serif" font-size="10.00">mlir::pdl_to_pdl_interp</text>
<text text-anchor="start" x="163" y="-18.5" font-family="Helvetica,sans-Serif" font-size="10.00">::PredicateBase&lt; ConcreteT,</text>
<text text-anchor="middle" x="233" y="-7.5" font-family="Helvetica,sans-Serif" font-size="10.00"> BaseT, Key, Kind &gt;</text>
</a>
</g>
</g>
<!-- Node5&#45;&gt;Node2 -->
<g id="edge4" class="edge">
<title>Node5&#45;&gt;Node2</title>
<path fill="none" stroke="orange" stroke-dasharray="5,2" d="M321.11,-16.76C366.02,-15.73 421.6,-16.28 471,-22 476.81,-22.67 482.74,-23.52 488.71,-24.48"/>
<polygon fill="orange" stroke="orange" points="321.01,-13.26 311.11,-17.01 321.19,-20.26 321.01,-13.26"/>
<text text-anchor="start" x="329" y="-58" font-family="Helvetica,sans-Serif" font-size="10.00"> &lt; ResultPosition, Position,</text>
<text text-anchor="start" x="329" y="-47" font-family="Helvetica,sans-Serif" font-size="10.00"> std::pair&lt; OperationPosition</text>
<text text-anchor="start" x="329" y="-36" font-family="Helvetica,sans-Serif" font-size="10.00"> *, unsigned &gt;, Predicates::</text>
<text text-anchor="middle" x="400" y="-25" font-family="Helvetica,sans-Serif" font-size="10.00">ResultPos &gt;</text>
</g>
<!-- Node6 -->
<g id="node6" class="node">
<title>Node6</title>
<g id="a_node6"><a xlink:href="classBaseT.html" target="_top" xlink:title=" ">
<polygon fill="none" stroke="black" points="35.5,-11.5 35.5,-30.5 82.5,-30.5 82.5,-11.5 35.5,-11.5"/>
<text text-anchor="middle" x="59" y="-18.5" font-family="Helvetica,sans-Serif" font-size="10.00">BaseT</text>
</a>
</g>
</g>
<!-- Node6&#45;&gt;Node5 -->
<g id="edge5" class="edge">
<title>Node6&#45;&gt;Node5</title>
<path fill="none" stroke="midnightblue" d="M93.13,-21C110.74,-21 133.18,-21 154.86,-21"/>
<polygon fill="midnightblue" stroke="midnightblue" points="92.84,-17.5 82.84,-21 92.84,-24.5 92.84,-17.5"/>
</g>
</g>
</svg>
