<?xml version="1.0" encoding="UTF-8" standalone="no"?>
<!DOCTYPE svg PUBLIC "-//W3C//DTD SVG 1.1//EN"
 "http://www.w3.org/Graphics/SVG/1.1/DTD/svg11.dtd">
<!-- Generated by graphviz version 2.43.0 (0)
 -->
<!-- Title: ConvertVariable Pages: 1 -->
<svg width="399pt" height="491pt"
 viewBox="0.00 0.00 399.00 491.00" xmlns="http://www.w3.org/2000/svg" xmlns:xlink="http://www.w3.org/1999/xlink">
<g id="graph0" class="graph" transform="scale(1 1) rotate(0) translate(4 487)">
<title>ConvertVariable</title>
<!-- Node1 -->
<g id="node1" class="node">
<title>Node1</title>
<g id="a_node1"><a xlink:title=" ">
<polygon fill="#bfbfbf" stroke="black" points="45,-0.5 45,-19.5 140,-19.5 140,-0.5 45,-0.5"/>
<text text-anchor="middle" x="92.5" y="-7.5" font-family="Helvetica,sans-Serif" font-size="10.00">ConvertVariable</text>
</a>
</g>
</g>
<!-- Node2 -->
<g id="node2" class="node">
<title>Node2</title>
<g id="a_node2"><a xlink:href="classConvertAliasResource.html" target="_top" xlink:title=" ">
<polygon fill="none" stroke="black" points="16,-57.5 16,-87.5 169,-87.5 169,-57.5 16,-57.5"/>
<text text-anchor="start" x="24" y="-75.5" font-family="Helvetica,sans-Serif" font-size="10.00">ConvertAliasResource</text>
<text text-anchor="middle" x="92.5" y="-64.5" font-family="Helvetica,sans-Serif" font-size="10.00">&lt; spirv::GlobalVariableOp &gt;</text>
</a>
</g>
</g>
<!-- Node2&#45;&gt;Node1 -->
<g id="edge1" class="edge">
<title>Node2&#45;&gt;Node1</title>
<path fill="none" stroke="midnightblue" d="M92.5,-47.35C92.5,-37.51 92.5,-26.78 92.5,-19.54"/>
<polygon fill="midnightblue" stroke="midnightblue" points="89,-47.47 92.5,-57.47 96,-47.47 89,-47.47"/>
</g>
<!-- Node3 -->
<g id="node3" class="node">
<title>Node3</title>
<g id="a_node3"><a xlink:title=" ">
<polygon fill="none" stroke="#bfbfbf" points="0,-135.5 0,-165.5 153,-165.5 153,-135.5 0,-135.5"/>
<text text-anchor="start" x="8" y="-153.5" font-family="Helvetica,sans-Serif" font-size="10.00">OpConversionPattern</text>
<text text-anchor="middle" x="76.5" y="-142.5" font-family="Helvetica,sans-Serif" font-size="10.00">&lt; spirv::GlobalVariableOp &gt;</text>
</a>
</g>
</g>
<!-- Node3&#45;&gt;Node2 -->
<g id="edge2" class="edge">
<title>Node3&#45;&gt;Node2</title>
<path fill="none" stroke="midnightblue" d="M81.64,-125.09C84.24,-112.76 87.3,-98.22 89.5,-87.73"/>
<polygon fill="midnightblue" stroke="midnightblue" points="78.14,-124.7 79.51,-135.2 84.99,-126.14 78.14,-124.7"/>
</g>
<!-- Node4 -->
<g id="node4" class="node">
<title>Node4</title>
<g id="a_node4"><a xlink:href="classConvertAliasResource.html" target="_top" xlink:title=" ">
<polygon fill="none" stroke="black" points="171.5,-135.5 171.5,-165.5 295.5,-165.5 295.5,-135.5 171.5,-135.5"/>
<text text-anchor="start" x="179.5" y="-153.5" font-family="Helvetica,sans-Serif" font-size="10.00">ConvertAliasResource</text>
<text text-anchor="middle" x="233.5" y="-142.5" font-family="Helvetica,sans-Serif" font-size="10.00">&lt; OpTy &gt;</text>
</a>
</g>
</g>
<!-- Node4&#45;&gt;Node2 -->
<g id="edge3" class="edge">
<title>Node4&#45;&gt;Node2</title>
<path fill="none" stroke="orange" stroke-dasharray="5,2" d="M198.25,-130.5C173.5,-117.16 140.97,-99.62 118.55,-87.54"/>
<polygon fill="orange" stroke="orange" points="196.85,-133.72 207.31,-135.38 200.17,-127.56 196.85,-133.72"/>
<text text-anchor="middle" x="241.5" y="-109" font-family="Helvetica,sans-Serif" font-size="10.00"> &lt; spirv::GlobalVariableOp &gt;</text>
</g>
<!-- Node5 -->
<g id="node5" class="node">
<title>Node5</title>
<g id="a_node5"><a xlink:href="classmlir_1_1OpConversionPattern.html" target="_top" xlink:title=" ">
<polygon fill="none" stroke="black" points="161,-203.5 161,-233.5 306,-233.5 306,-203.5 161,-203.5"/>
<text text-anchor="start" x="169" y="-221.5" font-family="Helvetica,sans-Serif" font-size="10.00">mlir::OpConversionPattern</text>
<text text-anchor="middle" x="233.5" y="-210.5" font-family="Helvetica,sans-Serif" font-size="10.00">&lt; OpTy &gt;</text>
</a>
</g>
</g>
<!-- Node5&#45;&gt;Node4 -->
<g id="edge4" class="edge">
<title>Node5&#45;&gt;Node4</title>
<path fill="none" stroke="midnightblue" d="M233.5,-193.03C233.5,-183.86 233.5,-173.74 233.5,-165.79"/>
<polygon fill="midnightblue" stroke="midnightblue" points="230,-193.18 233.5,-203.18 237,-193.18 230,-193.18"/>
</g>
<!-- Node6 -->
<g id="node6" class="node">
<title>Node6</title>
<g id="a_node6"><a xlink:href="classmlir_1_1ConversionPattern.html" target="_top" xlink:title="Base class for the conversion patterns.">
<polygon fill="none" stroke="black" points="164,-349.5 164,-368.5 295,-368.5 295,-349.5 164,-349.5"/>
<text text-anchor="middle" x="229.5" y="-356.5" font-family="Helvetica,sans-Serif" font-size="10.00">mlir::ConversionPattern</text>
</a>
</g>
</g>
<!-- Node6&#45;&gt;Node5 -->
<g id="edge5" class="edge">
<title>Node6&#45;&gt;Node5</title>
<path fill="none" stroke="midnightblue" d="M230.04,-339.25C230.85,-311.19 232.36,-258.88 233.09,-233.73"/>
<polygon fill="midnightblue" stroke="midnightblue" points="226.54,-339.24 229.75,-349.34 233.54,-339.44 226.54,-339.24"/>
</g>
<!-- Node9 -->
<g id="node9" class="node">
<title>Node9</title>
<g id="a_node9"><a xlink:href="classmlir_1_1OpConversionPattern.html" target="_top" xlink:title="OpConversionPattern is a wrapper around ConversionPattern that allows for matching and rewriting agai...">
<polygon fill="none" stroke="black" points="246,-281.5 246,-311.5 391,-311.5 391,-281.5 246,-281.5"/>
<text text-anchor="start" x="254" y="-299.5" font-family="Helvetica,sans-Serif" font-size="10.00">mlir::OpConversionPattern</text>
<text text-anchor="middle" x="318.5" y="-288.5" font-family="Helvetica,sans-Serif" font-size="10.00">&lt; SourceOp &gt;</text>
</a>
</g>
</g>
<!-- Node6&#45;&gt;Node9 -->
<g id="edge9" class="edge">
<title>Node6&#45;&gt;Node9</title>
<path fill="none" stroke="midnightblue" d="M250.89,-343.46C265.15,-333.77 283.77,-321.11 297.87,-311.53"/>
<polygon fill="midnightblue" stroke="midnightblue" points="248.55,-340.82 242.25,-349.33 252.49,-346.6 248.55,-340.82"/>
</g>
<!-- Node7 -->
<g id="node7" class="node">
<title>Node7</title>
<g id="a_node7"><a xlink:href="classmlir_1_1RewritePattern.html" target="_top" xlink:title="RewritePattern is the common base class for all DAG to DAG replacements.">
<polygon fill="none" stroke="black" points="172.5,-406.5 172.5,-425.5 286.5,-425.5 286.5,-406.5 172.5,-406.5"/>
<text text-anchor="middle" x="229.5" y="-413.5" font-family="Helvetica,sans-Serif" font-size="10.00">mlir::RewritePattern</text>
</a>
</g>
</g>
<!-- Node7&#45;&gt;Node6 -->
<g id="edge6" class="edge">
<title>Node7&#45;&gt;Node6</title>
<path fill="none" stroke="midnightblue" d="M229.5,-396.12C229.5,-386.82 229.5,-376.06 229.5,-368.71"/>
<polygon fill="midnightblue" stroke="midnightblue" points="226,-396.41 229.5,-406.41 233,-396.41 226,-396.41"/>
</g>
<!-- Node8 -->
<g id="node8" class="node">
<title>Node8</title>
<g id="a_node8"><a xlink:href="classmlir_1_1Pattern.html" target="_top" xlink:title="This class contains all of the data related to a pattern, but does not contain any methods or logic f...">
<polygon fill="none" stroke="black" points="191,-463.5 191,-482.5 268,-482.5 268,-463.5 191,-463.5"/>
<text text-anchor="middle" x="229.5" y="-470.5" font-family="Helvetica,sans-Serif" font-size="10.00">mlir::Pattern</text>
</a>
</g>
</g>
<!-- Node8&#45;&gt;Node7 -->
<g id="edge7" class="edge">
<title>Node8&#45;&gt;Node7</title>
<path fill="none" stroke="midnightblue" d="M229.5,-453.12C229.5,-443.82 229.5,-433.06 229.5,-425.71"/>
<polygon fill="midnightblue" stroke="midnightblue" points="226,-453.41 229.5,-463.41 233,-453.41 226,-453.41"/>
</g>
<!-- Node9&#45;&gt;Node5 -->
<g id="edge8" class="edge">
<title>Node9&#45;&gt;Node5</title>
<path fill="none" stroke="orange" stroke-dasharray="5,2" d="M294.89,-274.39C280.4,-261.43 262.22,-245.18 249.42,-233.73"/>
<polygon fill="orange" stroke="orange" points="292.72,-277.15 302.51,-281.2 297.39,-271.93 292.72,-277.15"/>
<text text-anchor="middle" x="305.5" y="-255" font-family="Helvetica,sans-Serif" font-size="10.00"> &lt; OpTy &gt;</text>
</g>
</g>
</svg>
