<?xml version="1.0" encoding="UTF-8" standalone="no"?>
<!DOCTYPE svg PUBLIC "-//W3C//DTD SVG 1.1//EN"
 "http://www.w3.org/Graphics/SVG/1.1/DTD/svg11.dtd">
<!-- Generated by graphviz version 2.43.0 (0)
 -->
<!-- Title: mlir::pdl_to_pdl_interp::OperationNameQuestion Pages: 1 -->
<svg width="895pt" height="106pt"
 viewBox="0.00 0.00 895.00 105.50" xmlns="http://www.w3.org/2000/svg" xmlns:xlink="http://www.w3.org/1999/xlink">
<g id="graph0" class="graph" transform="scale(1 1) rotate(0) translate(4 101.5)">
<title>mlir::pdl_to_pdl_interp::OperationNameQuestion</title>
<!-- Node1 -->
<g id="Node000001" class="node">
<title>Node1</title>
<g id="a_Node000001"><a xlink:title="Compare the name of an operation with a known value.">
<polygon fill="#999999" stroke="#666666" points="887,-66.5 744,-66.5 744,-36.5 887,-36.5 887,-66.5"/>
<text text-anchor="start" x="752" y="-54.5" font-family="Helvetica,sans-Serif" font-size="10.00">mlir::pdl_to_pdl_interp</text>
<text text-anchor="middle" x="815.5" y="-43.5" font-family="Helvetica,sans-Serif" font-size="10.00">::OperationNameQuestion</text>
</a>
</g>
</g>
<!-- Node2 -->
<g id="Node000002" class="node">
<title>Node2</title>
<g id="a_Node000002"><a xlink:href="classmlir_1_1pdl__to__pdl__interp_1_1PredicateBase.html" target="_top" xlink:title=" ">
<polygon fill="white" stroke="#666666" points="707,-77.5 498,-77.5 498,-25.5 707,-25.5 707,-77.5"/>
<text text-anchor="start" x="506" y="-65.5" font-family="Helvetica,sans-Serif" font-size="10.00">mlir::pdl_to_pdl_interp</text>
<text text-anchor="start" x="506" y="-54.5" font-family="Helvetica,sans-Serif" font-size="10.00">::PredicateBase&lt; OperationName</text>
<text text-anchor="start" x="506" y="-43.5" font-family="Helvetica,sans-Serif" font-size="10.00">Question, Qualifier, void,</text>
<text text-anchor="middle" x="602.5" y="-32.5" font-family="Helvetica,sans-Serif" font-size="10.00"> Predicates::OperationNameQuestion &gt;</text>
</a>
</g>
</g>
<!-- Node2&#45;&gt;Node1 -->
<g id="edge1_Node000001_Node000002" class="edge">
<title>Node2&#45;&gt;Node1</title>
<g id="a_edge1_Node000001_Node000002"><a xlink:title=" ">
<path fill="none" stroke="#63b8ff" d="M717.31,-51.5C726.3,-51.5 735.21,-51.5 743.77,-51.5"/>
<polygon fill="#63b8ff" stroke="#63b8ff" points="717.15,-48 707.15,-51.5 717.15,-55 717.15,-48"/>
</a>
</g>
</g>
<!-- Node3 -->
<g id="Node000003" class="node">
<title>Node3</title>
<g id="a_Node000003"><a xlink:href="classmlir_1_1pdl__to__pdl__interp_1_1Qualifier.html" target="_top" xlink:title="An ordinal predicate consists of a &quot;Question&quot; and a set of acceptable &quot;Answers&quot; (later converted to o...">
<polygon fill="white" stroke="#666666" points="296,-97.5 170,-97.5 170,-67.5 296,-67.5 296,-97.5"/>
<text text-anchor="start" x="178" y="-85.5" font-family="Helvetica,sans-Serif" font-size="10.00">mlir::pdl_to_pdl_interp</text>
<text text-anchor="middle" x="233" y="-74.5" font-family="Helvetica,sans-Serif" font-size="10.00">::Qualifier</text>
</a>
</g>
</g>
<!-- Node3&#45;&gt;Node2 -->
<g id="edge2_Node000002_Node000003" class="edge">
<title>Node3&#45;&gt;Node2</title>
<g id="a_edge2_Node000002_Node000003"><a xlink:title=" ">
<path fill="none" stroke="#63b8ff" d="M306.24,-79.95C355.32,-77.84 421.67,-74.23 480,-68.5 485.83,-67.93 491.81,-67.28 497.84,-66.58"/>
<polygon fill="#63b8ff" stroke="#63b8ff" points="305.88,-76.46 296.03,-80.38 306.17,-83.46 305.88,-76.46"/>
</a>
</g>
</g>
<!-- Node4 -->
<g id="Node000004" class="node">
<title>Node4</title>
<g id="a_Node000004"><a xlink:href="classmlir_1_1StorageUniquer_1_1BaseStorage.html" target="_top" xlink:title="This class acts as the base storage that all storage classes must derived from.">
<polygon fill="white" stroke="#666666" points="118,-97.5 0,-97.5 0,-67.5 118,-67.5 118,-97.5"/>
<text text-anchor="start" x="8" y="-85.5" font-family="Helvetica,sans-Serif" font-size="10.00">mlir::StorageUniquer</text>
<text text-anchor="middle" x="59" y="-74.5" font-family="Helvetica,sans-Serif" font-size="10.00">::BaseStorage</text>
</a>
</g>
</g>
<!-- Node4&#45;&gt;Node3 -->
<g id="edge3_Node000003_Node000004" class="edge">
<title>Node4&#45;&gt;Node3</title>
<g id="a_edge3_Node000003_Node000004"><a xlink:title=" ">
<path fill="none" stroke="#63b8ff" d="M128.49,-82.5C142.1,-82.5 156.32,-82.5 169.71,-82.5"/>
<polygon fill="#63b8ff" stroke="#63b8ff" points="128.23,-79 118.23,-82.5 128.23,-86 128.23,-79"/>
</a>
</g>
</g>
<!-- Node5 -->
<g id="Node000005" class="node">
<title>Node5</title>
<g id="a_Node000005"><a xlink:href="classmlir_1_1pdl__to__pdl__interp_1_1PredicateBase.html" target="_top" xlink:title="Base class for all predicates, used to allow efficient pointer comparison.">
<polygon fill="white" stroke="#666666" points="311,-41 155,-41 155,0 311,0 311,-41"/>
<text text-anchor="start" x="163" y="-29" font-family="Helvetica,sans-Serif" font-size="10.00">mlir::pdl_to_pdl_interp</text>
<text text-anchor="start" x="163" y="-18" font-family="Helvetica,sans-Serif" font-size="10.00">::PredicateBase&lt; ConcreteT,</text>
<text text-anchor="middle" x="233" y="-7" font-family="Helvetica,sans-Serif" font-size="10.00"> BaseT, Key, Kind &gt;</text>
</a>
</g>
</g>
<!-- Node5&#45;&gt;Node2 -->
<g id="edge4_Node000002_Node000005" class="edge">
<title>Node5&#45;&gt;Node2</title>
<g id="a_edge4_Node000002_Node000005"><a xlink:title=" ">
<path fill="none" stroke="orange" stroke-dasharray="5,2" d="M321.32,-17.64C323.91,-17.59 326.47,-17.54 329,-17.5 396.1,-16.44 413.51,-8.37 480,-17.5 493.13,-19.3 506.84,-22.15 520.12,-25.45"/>
<polygon fill="orange" stroke="orange" points="321.17,-14.14 311.25,-17.86 321.32,-21.14 321.17,-14.14"/>
</a>
</g>
<text text-anchor="start" x="332.5" y="-53" font-family="Helvetica,sans-Serif" font-size="10.00" fill="grey">&lt; OperationNameQuestion,</text>
<text text-anchor="start" x="332.5" y="-38" font-family="Helvetica,sans-Serif" font-size="10.00" fill="grey">   Qualifier, void, Predicates</text>
<text text-anchor="start" x="332.5" y="-23" font-family="Helvetica,sans-Serif" font-size="10.00" fill="grey">  ::OperationNameQuestion &gt;</text>
</g>
<!-- Node6 -->
<g id="Node000006" class="node">
<title>Node6</title>
<g id="a_Node000006"><a xlink:title=" ">
<polygon fill="white" stroke="#666666" points="82.5,-30 35.5,-30 35.5,-11 82.5,-11 82.5,-30"/>
<text text-anchor="middle" x="59" y="-18" font-family="Helvetica,sans-Serif" font-size="10.00">BaseT</text>
</a>
</g>
</g>
<!-- Node6&#45;&gt;Node5 -->
<g id="edge5_Node000005_Node000006" class="edge">
<title>Node6&#45;&gt;Node5</title>
<g id="a_edge5_Node000005_Node000006"><a xlink:title=" ">
<path fill="none" stroke="#63b8ff" d="M93.13,-20.5C110.74,-20.5 133.18,-20.5 154.86,-20.5"/>
<polygon fill="#63b8ff" stroke="#63b8ff" points="92.84,-17 82.84,-20.5 92.84,-24 92.84,-17"/>
</a>
</g>
</g>
</g>
</svg>
