<?xml version="1.0" encoding="UTF-8" standalone="no"?>
<!DOCTYPE svg PUBLIC "-//W3C//DTD SVG 1.1//EN"
 "http://www.w3.org/Graphics/SVG/1.1/DTD/svg11.dtd">
<!-- Generated by graphviz version 2.43.0 (0)
 -->
<!-- Title: mlir::tosa::TosaOp::Trait&lt; ConcreteOp &gt; Pages: 1 -->
<svg width="519pt" height="60pt"
 viewBox="0.00 0.00 519.00 60.00" xmlns="http://www.w3.org/2000/svg" xmlns:xlink="http://www.w3.org/1999/xlink">
<g id="graph0" class="graph" transform="scale(1 1) rotate(0) translate(4 56)">
<title>mlir::tosa::TosaOp::Trait&lt; ConcreteOp &gt;</title>
<!-- Node1 -->
<g id="Node000001" class="node">
<title>Node1</title>
<g id="a_Node000001"><a xlink:title=" ">
<polygon fill="#999999" stroke="#666666" points="511,-41 388,-41 388,-11 511,-11 511,-41"/>
<text text-anchor="start" x="396" y="-29" font-family="Helvetica,sans-Serif" font-size="10.00">mlir::tosa::TosaOp</text>
<text text-anchor="middle" x="449.5" y="-18" font-family="Helvetica,sans-Serif" font-size="10.00">::Trait&lt; ConcreteOp &gt;</text>
</a>
</g>
</g>
<!-- Node2 -->
<g id="Node000002" class="node">
<title>Node2</title>
<g id="a_Node000002"><a xlink:href="structmlir_1_1tosa_1_1detail_1_1TosaOpTrait.html" target="_top" xlink:title=" ">
<polygon fill="white" stroke="#666666" points="352,-41 194,-41 194,-11 352,-11 352,-41"/>
<text text-anchor="start" x="202" y="-29" font-family="Helvetica,sans-Serif" font-size="10.00">mlir::tosa::detail</text>
<text text-anchor="middle" x="273" y="-18" font-family="Helvetica,sans-Serif" font-size="10.00">::TosaOpTrait&lt; ConcreteOp &gt;</text>
</a>
</g>
</g>
<!-- Node2&#45;&gt;Node1 -->
<g id="edge1_Node000001_Node000002" class="edge">
<title>Node2&#45;&gt;Node1</title>
<g id="a_edge1_Node000001_Node000002"><a xlink:title=" ">
<path fill="none" stroke="#63b8ff" d="M362.2,-26C370.86,-26 379.5,-26 387.78,-26"/>
<polygon fill="#63b8ff" stroke="#63b8ff" points="362.06,-22.5 352.06,-26 362.06,-29.5 362.06,-22.5"/>
</a>
</g>
</g>
<!-- Node3 -->
<g id="Node000003" class="node">
<title>Node3</title>
<g id="a_Node000003"><a xlink:title=" ">
<polygon fill="white" stroke="#666666" points="158,-52 0,-52 0,0 158,0 158,-52"/>
<text text-anchor="start" x="8" y="-40" font-family="Helvetica,sans-Serif" font-size="10.00">mlir::detail::Interface</text>
<text text-anchor="start" x="8" y="-29" font-family="Helvetica,sans-Serif" font-size="10.00">&lt; ConcreteType, Operation</text>
<text text-anchor="start" x="8" y="-18" font-family="Helvetica,sans-Serif" font-size="10.00"> *, Traits, Op&lt; ConcreteType</text>
<text text-anchor="middle" x="79" y="-7" font-family="Helvetica,sans-Serif" font-size="10.00"> &gt;, OpTrait::TraitBase &gt;::Trait</text>
</a>
</g>
</g>
<!-- Node3&#45;&gt;Node2 -->
<g id="edge2_Node000002_Node000003" class="edge">
<title>Node3&#45;&gt;Node2</title>
<g id="a_edge2_Node000002_Node000003"><a xlink:title=" ">
<path fill="none" stroke="#63b8ff" d="M168.15,-26C176.77,-26 185.47,-26 193.98,-26"/>
<polygon fill="#63b8ff" stroke="#63b8ff" points="168.09,-22.5 158.09,-26 168.09,-29.5 168.09,-22.5"/>
</a>
</g>
</g>
</g>
</svg>
