<?xml version="1.0" encoding="UTF-8" standalone="no"?>
<!DOCTYPE svg PUBLIC "-//W3C//DTD SVG 1.1//EN"
 "http://www.w3.org/Graphics/SVG/1.1/DTD/svg11.dtd">
<!-- Generated by graphviz version 2.43.0 (0)
 -->
<!-- Title: llvm::CastInfo&lt;::mlir::Operation *, ::mlir::Operation * &gt; Pages: 1 -->
<svg width="317pt" height="120pt"
 viewBox="0.00 0.00 317.00 119.50" xmlns="http://www.w3.org/2000/svg" xmlns:xlink="http://www.w3.org/1999/xlink">
<g id="graph0" class="graph" transform="scale(1 1) rotate(0) translate(4 115.5)">
<title>llvm::CastInfo&lt;::mlir::Operation *, ::mlir::Operation * &gt;</title>
<!-- Node1 -->
<g id="Node000001" class="node">
<title>Node1</title>
<g id="a_Node000001"><a xlink:title="Cast (const) Operation * to itself.">
<polygon fill="#999999" stroke="#666666" points="309,-84 190,-84 190,-43 309,-43 309,-84"/>
<text text-anchor="start" x="198" y="-72" font-family="Helvetica,sans-Serif" font-size="10.00">llvm::CastInfo&lt;::mlir</text>
<text text-anchor="start" x="198" y="-61" font-family="Helvetica,sans-Serif" font-size="10.00">::Operation *, ::mlir</text>
<text text-anchor="middle" x="249.5" y="-50" font-family="Helvetica,sans-Serif" font-size="10.00">::Operation * &gt;</text>
</a>
</g>
</g>
<!-- Node2 -->
<g id="Node000002" class="node">
<title>Node2</title>
<g id="a_Node000002"><a xlink:href="classNullableValueCastFailed.html" target="_top" xlink:title=" ">
<polygon fill="white" stroke="#666666" points="144,-111.5 10,-111.5 10,-81.5 144,-81.5 144,-111.5"/>
<text text-anchor="start" x="18" y="-99.5" font-family="Helvetica,sans-Serif" font-size="10.00">NullableValueCastFailed</text>
<text text-anchor="middle" x="77" y="-88.5" font-family="Helvetica,sans-Serif" font-size="10.00">&lt;::mlir::Operation * &gt;</text>
</a>
</g>
</g>
<!-- Node2&#45;&gt;Node1 -->
<g id="edge1_Node000001_Node000002" class="edge">
<title>Node2&#45;&gt;Node1</title>
<g id="a_edge1_Node000001_Node000002"><a xlink:title=" ">
<path fill="none" stroke="#63b8ff" d="M154.32,-81.73C166.21,-79.43 178.34,-77.08 189.76,-74.87"/>
<polygon fill="#63b8ff" stroke="#63b8ff" points="153.56,-78.31 144.41,-83.65 154.89,-85.18 153.56,-78.31"/>
</a>
</g>
</g>
<!-- Node3 -->
<g id="Node000003" class="node">
<title>Node3</title>
<g id="a_Node000003"><a xlink:href="classDefaultDoCastIfPossible.html" target="_top" xlink:title=" ">
<polygon fill="white" stroke="#666666" points="154,-63 0,-63 0,0 154,0 154,-63"/>
<text text-anchor="start" x="8" y="-51" font-family="Helvetica,sans-Serif" font-size="10.00">DefaultDoCastIfPossible</text>
<text text-anchor="start" x="8" y="-40" font-family="Helvetica,sans-Serif" font-size="10.00">&lt; ::mlir::Operation *,</text>
<text text-anchor="start" x="8" y="-29" font-family="Helvetica,sans-Serif" font-size="10.00"> ::mlir::Operation *, CastInfo</text>
<text text-anchor="start" x="8" y="-18" font-family="Helvetica,sans-Serif" font-size="10.00">&lt;::mlir::Operation *, ::mlir</text>
<text text-anchor="middle" x="77" y="-7" font-family="Helvetica,sans-Serif" font-size="10.00">::Operation * &gt; &gt;</text>
</a>
</g>
</g>
<!-- Node3&#45;&gt;Node1 -->
<g id="edge2_Node000001_Node000003" class="edge">
<title>Node3&#45;&gt;Node1</title>
<g id="a_edge2_Node000001_Node000003"><a xlink:title=" ">
<path fill="none" stroke="#63b8ff" d="M164.13,-47.66C172.87,-49.3 181.59,-50.94 189.94,-52.51"/>
<polygon fill="#63b8ff" stroke="#63b8ff" points="164.75,-44.22 154.27,-45.82 163.46,-51.1 164.75,-44.22"/>
</a>
</g>
</g>
</g>
</svg>
