<?xml version="1.0" encoding="UTF-8" standalone="no"?>
<!DOCTYPE svg PUBLIC "-//W3C//DTD SVG 1.1//EN"
 "http://www.w3.org/Graphics/SVG/1.1/DTD/svg11.dtd">
<!-- Generated by graphviz version 2.43.0 (0)
 -->
<!-- Title: mlir::quant::detail::UniformQuantizedPerAxisTypeStorage Pages: 1 -->
<svg width="179pt" height="236pt"
 viewBox="0.00 0.00 179.00 236.00" xmlns="http://www.w3.org/2000/svg" xmlns:xlink="http://www.w3.org/1999/xlink">
<g id="graph0" class="graph" transform="scale(1 1) rotate(0) translate(4 232)">
<title>mlir::quant::detail::UniformQuantizedPerAxisTypeStorage</title>
<!-- Node1 -->
<g id="Node000001" class="node">
<title>Node1</title>
<g id="a_Node000001"><a xlink:title=" ">
<polygon fill="#999999" stroke="#666666" points="171,-41 0,-41 0,0 171,0 171,-41"/>
<text text-anchor="start" x="8" y="-29" font-family="Helvetica,sans-Serif" font-size="10.00">mlir::quant::detail</text>
<text text-anchor="start" x="8" y="-18" font-family="Helvetica,sans-Serif" font-size="10.00">::UniformQuantizedPerAxisType</text>
<text text-anchor="middle" x="85.5" y="-7" font-family="Helvetica,sans-Serif" font-size="10.00">Storage</text>
</a>
</g>
</g>
<!-- Node2 -->
<g id="Node000002" class="node">
<title>Node2</title>
<g id="a_Node000002"><a xlink:href="structmlir_1_1quant_1_1detail_1_1QuantizedTypeStorage.html" target="_top" xlink:title=" ">
<polygon fill="white" stroke="#666666" points="151.5,-107 19.5,-107 19.5,-77 151.5,-77 151.5,-107"/>
<text text-anchor="start" x="27.5" y="-95" font-family="Helvetica,sans-Serif" font-size="10.00">mlir::quant::detail</text>
<text text-anchor="middle" x="85.5" y="-84" font-family="Helvetica,sans-Serif" font-size="10.00">::QuantizedTypeStorage</text>
</a>
</g>
</g>
<!-- Node2&#45;&gt;Node1 -->
<g id="edge1_Node000001_Node000002" class="edge">
<title>Node2&#45;&gt;Node1</title>
<g id="a_edge1_Node000001_Node000002"><a xlink:title=" ">
<path fill="none" stroke="#63b8ff" d="M85.5,-66.91C85.5,-58.47 85.5,-49.1 85.5,-41.07"/>
<polygon fill="#63b8ff" stroke="#63b8ff" points="82,-66.94 85.5,-76.94 89,-66.94 82,-66.94"/>
</a>
</g>
</g>
<!-- Node3 -->
<g id="Node000003" class="node">
<title>Node3</title>
<g id="a_Node000003"><a xlink:href="classmlir_1_1TypeStorage.html" target="_top" xlink:title="Base storage class appearing in a Type.">
<polygon fill="white" stroke="#666666" points="136.5,-162 34.5,-162 34.5,-143 136.5,-143 136.5,-162"/>
<text text-anchor="middle" x="85.5" y="-150" font-family="Helvetica,sans-Serif" font-size="10.00">mlir::TypeStorage</text>
</a>
</g>
</g>
<!-- Node3&#45;&gt;Node2 -->
<g id="edge2_Node000002_Node000003" class="edge">
<title>Node3&#45;&gt;Node2</title>
<g id="a_edge2_Node000002_Node000003"><a xlink:title=" ">
<path fill="none" stroke="#63b8ff" d="M85.5,-132.65C85.5,-124.36 85.5,-114.78 85.5,-107.11"/>
<polygon fill="#63b8ff" stroke="#63b8ff" points="82,-132.87 85.5,-142.87 89,-132.87 82,-132.87"/>
</a>
</g>
</g>
<!-- Node4 -->
<g id="Node000004" class="node">
<title>Node4</title>
<g id="a_Node000004"><a xlink:href="classmlir_1_1StorageUniquer_1_1BaseStorage.html" target="_top" xlink:title="This class acts as the base storage that all storage classes must derived from.">
<polygon fill="white" stroke="#666666" points="144.5,-228 26.5,-228 26.5,-198 144.5,-198 144.5,-228"/>
<text text-anchor="start" x="34.5" y="-216" font-family="Helvetica,sans-Serif" font-size="10.00">mlir::StorageUniquer</text>
<text text-anchor="middle" x="85.5" y="-205" font-family="Helvetica,sans-Serif" font-size="10.00">::BaseStorage</text>
</a>
</g>
</g>
<!-- Node4&#45;&gt;Node3 -->
<g id="edge3_Node000003_Node000004" class="edge">
<title>Node4&#45;&gt;Node3</title>
<g id="a_edge3_Node000003_Node000004"><a xlink:title=" ">
<path fill="none" stroke="#63b8ff" d="M85.5,-187.75C85.5,-178.72 85.5,-169.03 85.5,-162.27"/>
<polygon fill="#63b8ff" stroke="#63b8ff" points="82,-187.84 85.5,-197.84 89,-187.84 82,-187.84"/>
</a>
</g>
</g>
</g>
</svg>
