<?xml version="1.0" encoding="UTF-8" standalone="no"?>
<!DOCTYPE svg PUBLIC "-//W3C//DTD SVG 1.1//EN"
 "http://www.w3.org/Graphics/SVG/1.1/DTD/svg11.dtd">
<!-- Generated by graphviz version 2.43.0 (0)
 -->
<!-- Title: mlir::pdl_to_pdl_interp::TrueAnswer Pages: 1 -->
<svg width="848pt" height="98pt"
 viewBox="0.00 0.00 848.00 97.50" xmlns="http://www.w3.org/2000/svg" xmlns:xlink="http://www.w3.org/1999/xlink">
<g id="graph0" class="graph" transform="scale(1 1) rotate(0) translate(4 93.5)">
<title>mlir::pdl_to_pdl_interp::TrueAnswer</title>
<!-- Node1 -->
<g id="Node000001" class="node">
<title>Node1</title>
<g id="a_Node000001"><a xlink:title="An Answer representing a boolean true value.">
<polygon fill="#999999" stroke="#666666" points="840,-61.5 714,-61.5 714,-31.5 840,-31.5 840,-61.5"/>
<text text-anchor="start" x="722" y="-49.5" font-family="Helvetica,sans-Serif" font-size="10.00">mlir::pdl_to_pdl_interp</text>
<text text-anchor="middle" x="777" y="-38.5" font-family="Helvetica,sans-Serif" font-size="10.00">::TrueAnswer</text>
</a>
</g>
</g>
<!-- Node2 -->
<g id="Node000002" class="node">
<title>Node2</title>
<g id="a_Node000002"><a xlink:href="classmlir_1_1pdl__to__pdl__interp_1_1PredicateBase.html" target="_top" xlink:title=" ">
<polygon fill="white" stroke="#666666" points="677,-72.5 514,-72.5 514,-20.5 677,-20.5 677,-72.5"/>
<text text-anchor="start" x="522" y="-60.5" font-family="Helvetica,sans-Serif" font-size="10.00">mlir::pdl_to_pdl_interp</text>
<text text-anchor="start" x="522" y="-49.5" font-family="Helvetica,sans-Serif" font-size="10.00">::PredicateBase&lt; TrueAnswer,</text>
<text text-anchor="start" x="522" y="-38.5" font-family="Helvetica,sans-Serif" font-size="10.00"> Qualifier, void, Predicates</text>
<text text-anchor="middle" x="595.5" y="-27.5" font-family="Helvetica,sans-Serif" font-size="10.00">::TrueAnswer &gt;</text>
</a>
</g>
</g>
<!-- Node2&#45;&gt;Node1 -->
<g id="edge1_Node000001_Node000002" class="edge">
<title>Node2&#45;&gt;Node1</title>
<g id="a_edge1_Node000001_Node000002"><a xlink:title=" ">
<path fill="none" stroke="#63b8ff" d="M687.26,-46.5C696.31,-46.5 705.35,-46.5 714,-46.5"/>
<polygon fill="#63b8ff" stroke="#63b8ff" points="687.06,-43 677.06,-46.5 687.06,-50 687.06,-43"/>
</a>
</g>
</g>
<!-- Node3 -->
<g id="Node000003" class="node">
<title>Node3</title>
<g id="a_Node000003"><a xlink:href="classmlir_1_1pdl__to__pdl__interp_1_1Qualifier.html" target="_top" xlink:title="An ordinal predicate consists of a &quot;Question&quot; and a set of acceptable &quot;Answers&quot; (later converted to o...">
<polygon fill="white" stroke="#666666" points="296,-89.5 170,-89.5 170,-59.5 296,-59.5 296,-89.5"/>
<text text-anchor="start" x="178" y="-77.5" font-family="Helvetica,sans-Serif" font-size="10.00">mlir::pdl_to_pdl_interp</text>
<text text-anchor="middle" x="233" y="-66.5" font-family="Helvetica,sans-Serif" font-size="10.00">::Qualifier</text>
</a>
</g>
</g>
<!-- Node3&#45;&gt;Node2 -->
<g id="edge2_Node000002_Node000003" class="edge">
<title>Node3&#45;&gt;Node2</title>
<g id="a_edge2_Node000002_Node000003"><a xlink:title=" ">
<path fill="none" stroke="#63b8ff" d="M306.27,-71.26C358.93,-68.61 431.97,-64.35 496,-58.5 501.83,-57.97 507.85,-57.36 513.91,-56.72"/>
<polygon fill="#63b8ff" stroke="#63b8ff" points="305.83,-67.78 296.02,-71.77 306.18,-74.77 305.83,-67.78"/>
</a>
</g>
</g>
<!-- Node4 -->
<g id="Node000004" class="node">
<title>Node4</title>
<g id="a_Node000004"><a xlink:href="classmlir_1_1StorageUniquer_1_1BaseStorage.html" target="_top" xlink:title="This class acts as the base storage that all storage classes must derived from.">
<polygon fill="white" stroke="#666666" points="118,-89.5 0,-89.5 0,-59.5 118,-59.5 118,-89.5"/>
<text text-anchor="start" x="8" y="-77.5" font-family="Helvetica,sans-Serif" font-size="10.00">mlir::StorageUniquer</text>
<text text-anchor="middle" x="59" y="-66.5" font-family="Helvetica,sans-Serif" font-size="10.00">::BaseStorage</text>
</a>
</g>
</g>
<!-- Node4&#45;&gt;Node3 -->
<g id="edge3_Node000003_Node000004" class="edge">
<title>Node4&#45;&gt;Node3</title>
<g id="a_edge3_Node000003_Node000004"><a xlink:title=" ">
<path fill="none" stroke="#63b8ff" d="M128.49,-74.5C142.1,-74.5 156.32,-74.5 169.71,-74.5"/>
<polygon fill="#63b8ff" stroke="#63b8ff" points="128.23,-71 118.23,-74.5 128.23,-78 128.23,-71"/>
</a>
</g>
</g>
<!-- Node5 -->
<g id="Node000005" class="node">
<title>Node5</title>
<g id="a_Node000005"><a xlink:href="classmlir_1_1pdl__to__pdl__interp_1_1PredicateBase.html" target="_top" xlink:title="Base class for all predicates, used to allow efficient pointer comparison.">
<polygon fill="white" stroke="#666666" points="311,-41 155,-41 155,0 311,0 311,-41"/>
<text text-anchor="start" x="163" y="-29" font-family="Helvetica,sans-Serif" font-size="10.00">mlir::pdl_to_pdl_interp</text>
<text text-anchor="start" x="163" y="-18" font-family="Helvetica,sans-Serif" font-size="10.00">::PredicateBase&lt; ConcreteT,</text>
<text text-anchor="middle" x="233" y="-7" font-family="Helvetica,sans-Serif" font-size="10.00"> BaseT, Key, Kind &gt;</text>
</a>
</g>
</g>
<!-- Node5&#45;&gt;Node2 -->
<g id="edge4_Node000002_Node000005" class="edge">
<title>Node5&#45;&gt;Node2</title>
<g id="a_edge4_Node000002_Node000005"><a xlink:title=" ">
<path fill="none" stroke="orange" stroke-dasharray="5,2" d="M321.07,-18.64C372.18,-18.5 437.93,-19.99 496,-26.5 501.81,-27.15 507.78,-27.97 513.78,-28.91"/>
<polygon fill="orange" stroke="orange" points="321.03,-15.14 311.05,-18.68 321.07,-22.14 321.03,-15.14"/>
</a>
</g>
<text text-anchor="start" x="332.5" y="-47.5" font-family="Helvetica,sans-Serif" font-size="10.00" fill="grey">&lt; TrueAnswer, Qualifier,</text>
<text text-anchor="start" x="332.5" y="-32.5" font-family="Helvetica,sans-Serif" font-size="10.00" fill="grey">   void, Predicates::TrueAnswer &gt;</text>
</g>
<!-- Node6 -->
<g id="Node000006" class="node">
<title>Node6</title>
<g id="a_Node000006"><a xlink:title=" ">
<polygon fill="white" stroke="#666666" points="82.5,-30 35.5,-30 35.5,-11 82.5,-11 82.5,-30"/>
<text text-anchor="middle" x="59" y="-18" font-family="Helvetica,sans-Serif" font-size="10.00">BaseT</text>
</a>
</g>
</g>
<!-- Node6&#45;&gt;Node5 -->
<g id="edge5_Node000005_Node000006" class="edge">
<title>Node6&#45;&gt;Node5</title>
<g id="a_edge5_Node000005_Node000006"><a xlink:title=" ">
<path fill="none" stroke="#63b8ff" d="M93.13,-20.5C110.74,-20.5 133.18,-20.5 154.86,-20.5"/>
<polygon fill="#63b8ff" stroke="#63b8ff" points="92.84,-17 82.84,-20.5 92.84,-24 92.84,-17"/>
</a>
</g>
</g>
</g>
</svg>
