<?xml version="1.0" encoding="UTF-8" standalone="no"?>
<!DOCTYPE svg PUBLIC "-//W3C//DTD SVG 1.1//EN"
 "http://www.w3.org/Graphics/SVG/1.1/DTD/svg11.dtd">
<!-- Generated by graphviz version 2.43.0 (0)
 -->
<!-- Title: StorageSpecifierSetOpConverter Pages: 1 -->
<svg width="1412pt" height="88pt"
 viewBox="0.00 0.00 1412.00 88.00" xmlns="http://www.w3.org/2000/svg" xmlns:xlink="http://www.w3.org/1999/xlink">
<g id="graph0" class="graph" transform="scale(1 1) rotate(0) translate(4 84)">
<title>StorageSpecifierSetOpConverter</title>
<!-- Node1 -->
<g id="node1" class="node">
<title>Node1</title>
<g id="a_node1"><a xlink:title=" ">
<polygon fill="#bfbfbf" stroke="black" points="1231,-30 1231,-49 1404,-49 1404,-30 1231,-30"/>
<text text-anchor="middle" x="1317.5" y="-37" font-family="Helvetica,sans-Serif" font-size="10.00">StorageSpecifierSetOpConverter</text>
</a>
</g>
</g>
<!-- Node2 -->
<g id="node2" class="node">
<title>Node2</title>
<g id="a_node2"><a xlink:href="classSpecifierGetterSetterOpConverter.html" target="_top" xlink:title=" ">
<polygon fill="none" stroke="black" points="1006,-19 1006,-60 1194,-60 1194,-19 1006,-19"/>
<text text-anchor="start" x="1014" y="-48" font-family="Helvetica,sans-Serif" font-size="10.00">SpecifierGetterSetterOpConverter</text>
<text text-anchor="start" x="1014" y="-37" font-family="Helvetica,sans-Serif" font-size="10.00">&lt; StorageSpecifierSetOpConverter,</text>
<text text-anchor="middle" x="1100" y="-26" font-family="Helvetica,sans-Serif" font-size="10.00"> SetStorageSpecifierOp &gt;</text>
</a>
</g>
</g>
<!-- Node2&#45;&gt;Node1 -->
<g id="edge1" class="edge">
<title>Node2&#45;&gt;Node1</title>
<path fill="none" stroke="midnightblue" d="M1204.3,-39.5C1213.2,-39.5 1222.15,-39.5 1230.9,-39.5"/>
<polygon fill="midnightblue" stroke="midnightblue" points="1204.27,-36 1194.27,-39.5 1204.27,-43 1204.27,-36"/>
</g>
<!-- Node3 -->
<g id="node3" class="node">
<title>Node3</title>
<g id="a_node3"><a xlink:title=" ">
<polygon fill="none" stroke="#bfbfbf" points="631,-49.5 631,-79.5 779,-79.5 779,-49.5 631,-49.5"/>
<text text-anchor="start" x="639" y="-67.5" font-family="Helvetica,sans-Serif" font-size="10.00">OpConversionPattern</text>
<text text-anchor="middle" x="705" y="-56.5" font-family="Helvetica,sans-Serif" font-size="10.00">&lt; SetStorageSpecifierOp &gt;</text>
</a>
</g>
</g>
<!-- Node3&#45;&gt;Node2 -->
<g id="edge2" class="edge">
<title>Node3&#45;&gt;Node2</title>
<path fill="none" stroke="midnightblue" d="M789.35,-61.44C845.53,-59.11 921.27,-55.46 988,-50.5 993.79,-50.07 999.75,-49.59 1005.76,-49.08"/>
<polygon fill="midnightblue" stroke="midnightblue" points="788.95,-57.95 779.1,-61.86 789.23,-64.95 788.95,-57.95"/>
</g>
<!-- Node4 -->
<g id="node4" class="node">
<title>Node4</title>
<g id="a_node4"><a xlink:href="classSpecifierGetterSetterOpConverter.html" target="_top" xlink:title=" ">
<polygon fill="none" stroke="black" points="615,-0.5 615,-30.5 795,-30.5 795,-0.5 615,-0.5"/>
<text text-anchor="start" x="623" y="-18.5" font-family="Helvetica,sans-Serif" font-size="10.00">SpecifierGetterSetterOpConverter</text>
<text text-anchor="middle" x="705" y="-7.5" font-family="Helvetica,sans-Serif" font-size="10.00">&lt; Base, SourceOp &gt;</text>
</a>
</g>
</g>
<!-- Node4&#45;&gt;Node2 -->
<g id="edge3" class="edge">
<title>Node4&#45;&gt;Node2</title>
<path fill="none" stroke="orange" stroke-dasharray="5,2" d="M805.56,-18.81C859.58,-20.93 927.5,-24.11 988,-28.5 993.79,-28.92 999.75,-29.39 1005.76,-29.9"/>
<polygon fill="orange" stroke="orange" points="805.42,-15.3 795.29,-18.41 805.15,-22.3 805.42,-15.3"/>
<text text-anchor="start" x="813" y="-42.5" font-family="Helvetica,sans-Serif" font-size="10.00"> &lt; StorageSpecifierSetOpConverter,</text>
<text text-anchor="middle" x="900.5" y="-31.5" font-family="Helvetica,sans-Serif" font-size="10.00"> SetStorageSpecifierOp &gt;</text>
</g>
<!-- Node5 -->
<g id="node5" class="node">
<title>Node5</title>
<g id="a_node5"><a xlink:href="classmlir_1_1OpConversionPattern.html" target="_top" xlink:title="OpConversionPattern is a wrapper around ConversionPattern that allows for matching and rewriting agai...">
<polygon fill="none" stroke="black" points="433,-0.5 433,-30.5 578,-30.5 578,-0.5 433,-0.5"/>
<text text-anchor="start" x="441" y="-18.5" font-family="Helvetica,sans-Serif" font-size="10.00">mlir::OpConversionPattern</text>
<text text-anchor="middle" x="505.5" y="-7.5" font-family="Helvetica,sans-Serif" font-size="10.00">&lt; SourceOp &gt;</text>
</a>
</g>
</g>
<!-- Node5&#45;&gt;Node4 -->
<g id="edge4" class="edge">
<title>Node5&#45;&gt;Node4</title>
<path fill="none" stroke="midnightblue" d="M588.26,-15.5C597.02,-15.5 605.96,-15.5 614.8,-15.5"/>
<polygon fill="midnightblue" stroke="midnightblue" points="588.08,-12 578.08,-15.5 588.08,-19 588.08,-12"/>
</g>
<!-- Node6 -->
<g id="node6" class="node">
<title>Node6</title>
<g id="a_node6"><a xlink:href="classmlir_1_1ConversionPattern.html" target="_top" xlink:title="Base class for the conversion patterns.">
<polygon fill="none" stroke="black" points="265,-6 265,-25 396,-25 396,-6 265,-6"/>
<text text-anchor="middle" x="330.5" y="-13" font-family="Helvetica,sans-Serif" font-size="10.00">mlir::ConversionPattern</text>
</a>
</g>
</g>
<!-- Node6&#45;&gt;Node5 -->
<g id="edge5" class="edge">
<title>Node6&#45;&gt;Node5</title>
<path fill="none" stroke="midnightblue" d="M406.56,-15.5C415.28,-15.5 424.17,-15.5 432.84,-15.5"/>
<polygon fill="midnightblue" stroke="midnightblue" points="406.41,-12 396.41,-15.5 406.41,-19 406.41,-12"/>
</g>
<!-- Node7 -->
<g id="node7" class="node">
<title>Node7</title>
<g id="a_node7"><a xlink:href="classmlir_1_1RewritePattern.html" target="_top" xlink:title="RewritePattern is the common base class for all DAG to DAG replacements.">
<polygon fill="none" stroke="black" points="114,-6 114,-25 228,-25 228,-6 114,-6"/>
<text text-anchor="middle" x="171" y="-13" font-family="Helvetica,sans-Serif" font-size="10.00">mlir::RewritePattern</text>
</a>
</g>
</g>
<!-- Node7&#45;&gt;Node6 -->
<g id="edge6" class="edge">
<title>Node7&#45;&gt;Node6</title>
<path fill="none" stroke="midnightblue" d="M238.54,-15.5C247.27,-15.5 256.21,-15.5 264.9,-15.5"/>
<polygon fill="midnightblue" stroke="midnightblue" points="238.42,-12 228.42,-15.5 238.42,-19 238.42,-12"/>
</g>
<!-- Node8 -->
<g id="node8" class="node">
<title>Node8</title>
<g id="a_node8"><a xlink:href="classmlir_1_1Pattern.html" target="_top" xlink:title="This class contains all of the data related to a pattern, but does not contain any methods or logic f...">
<polygon fill="none" stroke="black" points="0,-6 0,-25 77,-25 77,-6 0,-6"/>
<text text-anchor="middle" x="38.5" y="-13" font-family="Helvetica,sans-Serif" font-size="10.00">mlir::Pattern</text>
</a>
</g>
</g>
<!-- Node8&#45;&gt;Node7 -->
<g id="edge7" class="edge">
<title>Node8&#45;&gt;Node7</title>
<path fill="none" stroke="midnightblue" d="M87.47,-15.5C96.06,-15.5 105.09,-15.5 113.89,-15.5"/>
<polygon fill="midnightblue" stroke="midnightblue" points="87.25,-12 77.25,-15.5 87.25,-19 87.25,-12"/>
</g>
</g>
</svg>
