<?xml version="1.0" encoding="UTF-8" standalone="no"?>
<!DOCTYPE svg PUBLIC "-//W3C//DTD SVG 1.1//EN"
 "http://www.w3.org/Graphics/SVG/1.1/DTD/svg11.dtd">
<!-- Generated by graphviz version 2.43.0 (0)
 -->
<!-- Title: mlir::OpTrait::detail::MultiOperandTraitBase&lt; ConcreteType, TraitType &gt; Pages: 1 -->
<svg width="979pt" height="190pt"
 viewBox="0.00 0.00 979.00 189.50" xmlns="http://www.w3.org/2000/svg" xmlns:xlink="http://www.w3.org/1999/xlink">
<g id="graph0" class="graph" transform="scale(1 1) rotate(0) translate(4 185.5)">
<title>mlir::OpTrait::detail::MultiOperandTraitBase&lt; ConcreteType, TraitType &gt;</title>
<!-- Node1 -->
<g id="Node000001" class="node">
<title>Node1</title>
<g id="a_Node000001"><a xlink:title="Utility trait base that provides accessors for derived traits that have multiple operands.">
<polygon fill="#999999" stroke="#666666" points="347,-106 192,-106 192,-65 347,-65 347,-106"/>
<text text-anchor="start" x="200" y="-94" font-family="Helvetica,sans-Serif" font-size="10.00">mlir::OpTrait::detail</text>
<text text-anchor="start" x="200" y="-83" font-family="Helvetica,sans-Serif" font-size="10.00">::MultiOperandTraitBase</text>
<text text-anchor="middle" x="269.5" y="-72" font-family="Helvetica,sans-Serif" font-size="10.00">&lt; ConcreteType, TraitType &gt;</text>
</a>
</g>
</g>
<!-- Node3 -->
<g id="Node000003" class="node">
<title>Node3</title>
<g id="a_Node000003"><a xlink:href="structmlir_1_1OpTrait_1_1detail_1_1MultiOperandTraitBase.html" target="_top" xlink:title=" ">
<polygon fill="white" stroke="#666666" points="758,-181.5 567,-181.5 567,-129.5 758,-129.5 758,-181.5"/>
<text text-anchor="start" x="575" y="-169.5" font-family="Helvetica,sans-Serif" font-size="10.00">mlir::OpTrait::detail</text>
<text text-anchor="start" x="575" y="-158.5" font-family="Helvetica,sans-Serif" font-size="10.00">::MultiOperandTraitBase</text>
<text text-anchor="start" x="575" y="-147.5" font-family="Helvetica,sans-Serif" font-size="10.00">&lt; ConcreteType, AtLeastNOperands</text>
<text text-anchor="middle" x="662.5" y="-136.5" font-family="Helvetica,sans-Serif" font-size="10.00">&lt; N &gt;::Impl &gt;</text>
</a>
</g>
</g>
<!-- Node1&#45;&gt;Node3 -->
<g id="edge2_Node000001_Node000003" class="edge">
<title>Node1&#45;&gt;Node3</title>
<g id="a_edge2_Node000001_Node000003"><a xlink:title=" ">
<path fill="none" stroke="orange" stroke-dasharray="5,2" d="M327.45,-109.81C339.66,-114.28 352.62,-118.48 365,-121.5 431.45,-137.7 508.2,-146.23 566.97,-150.7"/>
<polygon fill="orange" stroke="orange" points="328.43,-106.44 317.84,-106.18 325.96,-112.99 328.43,-106.44"/>
</a>
</g>
<text text-anchor="start" x="368.5" y="-168.5" font-family="Helvetica,sans-Serif" font-size="10.00" fill="grey">&lt; ConcreteType, AtLeastNOperands</text>
<text text-anchor="start" x="368.5" y="-153.5" font-family="Helvetica,sans-Serif" font-size="10.00" fill="grey">  &lt; N &gt;::Impl &gt;</text>
</g>
<!-- Node5 -->
<g id="Node000005" class="node">
<title>Node5</title>
<g id="a_Node000005"><a xlink:href="structmlir_1_1OpTrait_1_1detail_1_1MultiOperandTraitBase.html" target="_top" xlink:title=" ">
<polygon fill="white" stroke="#666666" points="739.5,-111.5 585.5,-111.5 585.5,-59.5 739.5,-59.5 739.5,-111.5"/>
<text text-anchor="start" x="593.5" y="-99.5" font-family="Helvetica,sans-Serif" font-size="10.00">mlir::OpTrait::detail</text>
<text text-anchor="start" x="593.5" y="-88.5" font-family="Helvetica,sans-Serif" font-size="10.00">::MultiOperandTraitBase</text>
<text text-anchor="start" x="593.5" y="-77.5" font-family="Helvetica,sans-Serif" font-size="10.00">&lt; ConcreteType, NOperands</text>
<text text-anchor="middle" x="662.5" y="-66.5" font-family="Helvetica,sans-Serif" font-size="10.00">&lt; N &gt;::Impl &gt;</text>
</a>
</g>
</g>
<!-- Node1&#45;&gt;Node5 -->
<g id="edge4_Node000001_Node000005" class="edge">
<title>Node1&#45;&gt;Node5</title>
<g id="a_edge4_Node000001_Node000005"><a xlink:title=" ">
<path fill="none" stroke="orange" stroke-dasharray="5,2" d="M357.58,-85.5C425.85,-85.5 519.9,-85.5 585.23,-85.5"/>
<polygon fill="orange" stroke="orange" points="357.28,-82 347.28,-85.5 357.28,-89 357.28,-82"/>
</a>
</g>
<text text-anchor="start" x="386.5" y="-106.5" font-family="Helvetica,sans-Serif" font-size="10.00" fill="grey">&lt; ConcreteType, NOperands</text>
<text text-anchor="start" x="386.5" y="-91.5" font-family="Helvetica,sans-Serif" font-size="10.00" fill="grey">  &lt; N &gt;::Impl &gt;</text>
</g>
<!-- Node7 -->
<g id="Node000007" class="node">
<title>Node7</title>
<g id="a_Node000007"><a xlink:href="structmlir_1_1OpTrait_1_1detail_1_1MultiOperandTraitBase.html" target="_top" xlink:title=" ">
<polygon fill="white" stroke="#666666" points="761,-41 564,-41 564,0 761,0 761,-41"/>
<text text-anchor="start" x="572" y="-29" font-family="Helvetica,sans-Serif" font-size="10.00">mlir::OpTrait::detail</text>
<text text-anchor="start" x="572" y="-18" font-family="Helvetica,sans-Serif" font-size="10.00">::MultiOperandTraitBase</text>
<text text-anchor="middle" x="662.5" y="-7" font-family="Helvetica,sans-Serif" font-size="10.00">&lt; ConcreteType, VariadicOperands &gt;</text>
</a>
</g>
</g>
<!-- Node1&#45;&gt;Node7 -->
<g id="edge6_Node000001_Node000007" class="edge">
<title>Node1&#45;&gt;Node7</title>
<g id="a_edge6_Node000001_Node000007"><a xlink:title=" ">
<path fill="none" stroke="orange" stroke-dasharray="5,2" d="M327.01,-61.18C339.34,-56.66 352.46,-52.45 365,-49.5 430.33,-34.15 505.6,-26.91 563.96,-23.5"/>
<polygon fill="orange" stroke="orange" points="325.43,-58.03 317.32,-64.84 327.91,-64.58 325.43,-58.03"/>
</a>
</g>
<text text-anchor="start" x="394.5" y="-70.5" font-family="Helvetica,sans-Serif" font-size="10.00" fill="grey">&lt; ConcreteType, Variadic</text>
<text text-anchor="start" x="394.5" y="-55.5" font-family="Helvetica,sans-Serif" font-size="10.00" fill="grey">  Operands &gt;</text>
</g>
<!-- Node2 -->
<g id="Node000002" class="node">
<title>Node2</title>
<g id="a_Node000002"><a xlink:href="classmlir_1_1OpTrait_1_1TraitBase.html" target="_top" xlink:title="Helper class for implementing traits.">
<polygon fill="white" stroke="#666666" points="155,-100.5 0,-100.5 0,-70.5 155,-70.5 155,-100.5"/>
<text text-anchor="start" x="8" y="-88.5" font-family="Helvetica,sans-Serif" font-size="10.00">mlir::OpTrait::TraitBase</text>
<text text-anchor="middle" x="77.5" y="-77.5" font-family="Helvetica,sans-Serif" font-size="10.00">&lt; ConcreteType, TraitType &gt;</text>
</a>
</g>
</g>
<!-- Node2&#45;&gt;Node1 -->
<g id="edge1_Node000001_Node000002" class="edge">
<title>Node2&#45;&gt;Node1</title>
<g id="a_edge1_Node000001_Node000002"><a xlink:title=" ">
<path fill="none" stroke="#63b8ff" d="M165.48,-85.5C174.26,-85.5 183.13,-85.5 191.79,-85.5"/>
<polygon fill="#63b8ff" stroke="#63b8ff" points="165.23,-82 155.23,-85.5 165.23,-89 165.23,-82"/>
</a>
</g>
</g>
<!-- Node4 -->
<g id="Node000004" class="node">
<title>Node4</title>
<g id="a_Node000004"><a xlink:href="classmlir_1_1OpTrait_1_1AtLeastNOperands_1_1Impl.html" target="_top" xlink:title=" ">
<polygon fill="white" stroke="#666666" points="971,-170.5 798,-170.5 798,-140.5 971,-140.5 971,-170.5"/>
<text text-anchor="start" x="806" y="-158.5" font-family="Helvetica,sans-Serif" font-size="10.00">mlir::OpTrait::AtLeastNOperands</text>
<text text-anchor="middle" x="884.5" y="-147.5" font-family="Helvetica,sans-Serif" font-size="10.00">&lt; N &gt;::Impl&lt; ConcreteType &gt;</text>
</a>
</g>
</g>
<!-- Node3&#45;&gt;Node4 -->
<g id="edge3_Node000003_Node000004" class="edge">
<title>Node3&#45;&gt;Node4</title>
<g id="a_edge3_Node000003_Node000004"><a xlink:title=" ">
<path fill="none" stroke="#63b8ff" d="M768.3,-155.5C778.15,-155.5 788.05,-155.5 797.68,-155.5"/>
<polygon fill="#63b8ff" stroke="#63b8ff" points="768.08,-152 758.08,-155.5 768.08,-159 768.08,-152"/>
</a>
</g>
</g>
<!-- Node6 -->
<g id="Node000006" class="node">
<title>Node6</title>
<g id="a_Node000006"><a xlink:href="classmlir_1_1OpTrait_1_1NOperands_1_1Impl.html" target="_top" xlink:title=" ">
<polygon fill="white" stroke="#666666" points="966,-100.5 803,-100.5 803,-70.5 966,-70.5 966,-100.5"/>
<text text-anchor="start" x="811" y="-88.5" font-family="Helvetica,sans-Serif" font-size="10.00">mlir::OpTrait::NOperands</text>
<text text-anchor="middle" x="884.5" y="-77.5" font-family="Helvetica,sans-Serif" font-size="10.00">&lt; N &gt;::Impl&lt; ConcreteType &gt;</text>
</a>
</g>
</g>
<!-- Node5&#45;&gt;Node6 -->
<g id="edge5_Node000005_Node000006" class="edge">
<title>Node5&#45;&gt;Node6</title>
<g id="a_edge5_Node000005_Node000006"><a xlink:title=" ">
<path fill="none" stroke="#63b8ff" d="M749.73,-85.5C767.27,-85.5 785.65,-85.5 802.98,-85.5"/>
<polygon fill="#63b8ff" stroke="#63b8ff" points="749.52,-82 739.52,-85.5 749.52,-89 749.52,-82"/>
</a>
</g>
</g>
<!-- Node8 -->
<g id="Node000008" class="node">
<title>Node8</title>
<g id="a_Node000008"><a xlink:href="classmlir_1_1OpTrait_1_1VariadicOperands.html" target="_top" xlink:title="This class provides the API for ops which have an unknown number of SSA operands.">
<polygon fill="white" stroke="#666666" points="968.5,-35.5 800.5,-35.5 800.5,-5.5 968.5,-5.5 968.5,-35.5"/>
<text text-anchor="start" x="808.5" y="-23.5" font-family="Helvetica,sans-Serif" font-size="10.00">mlir::OpTrait::VariadicOperands</text>
<text text-anchor="middle" x="884.5" y="-12.5" font-family="Helvetica,sans-Serif" font-size="10.00">&lt; ConcreteType &gt;</text>
</a>
</g>
</g>
<!-- Node7&#45;&gt;Node8 -->
<g id="edge7_Node000007_Node000008" class="edge">
<title>Node7&#45;&gt;Node8</title>
<g id="a_edge7_Node000007_Node000008"><a xlink:title=" ">
<path fill="none" stroke="#63b8ff" d="M771.43,-20.5C781.19,-20.5 790.97,-20.5 800.47,-20.5"/>
<polygon fill="#63b8ff" stroke="#63b8ff" points="771.28,-17 761.28,-20.5 771.28,-24 771.28,-17"/>
</a>
</g>
</g>
</g>
</svg>
