<?xml version="1.0" encoding="UTF-8" standalone="no"?>
<!DOCTYPE svg PUBLIC "-//W3C//DTD SVG 1.1//EN"
 "http://www.w3.org/Graphics/SVG/1.1/DTD/svg11.dtd">
<!-- Generated by graphviz version 2.43.0 (0)
 -->
<!-- Title: mlir::pdll::ast::detail::RewriteTypeStorage Pages: 1 -->
<svg width="978pt" height="74pt"
 viewBox="0.00 0.00 978.00 74.00" xmlns="http://www.w3.org/2000/svg" xmlns:xlink="http://www.w3.org/1999/xlink">
<g id="graph0" class="graph" transform="scale(1 1) rotate(0) translate(4 70)">
<title>mlir::pdll::ast::detail::RewriteTypeStorage</title>
<!-- Node1 -->
<g id="Node000001" class="node">
<title>Node1</title>
<g id="a_Node000001"><a xlink:title=" ">
<polygon fill="#999999" stroke="#666666" points="970,-60.5 850,-60.5 850,-30.5 970,-30.5 970,-60.5"/>
<text text-anchor="start" x="858" y="-48.5" font-family="Helvetica,sans-Serif" font-size="10.00">mlir::pdll::ast::detail</text>
<text text-anchor="middle" x="910" y="-37.5" font-family="Helvetica,sans-Serif" font-size="10.00">::RewriteTypeStorage</text>
</a>
</g>
</g>
<!-- Node2 -->
<g id="Node000002" class="node">
<title>Node2</title>
<g id="a_Node000002"><a xlink:href="structmlir_1_1pdll_1_1ast_1_1detail_1_1TypeStorageBase.html" target="_top" xlink:title=" ">
<polygon fill="white" stroke="#666666" points="813,-66 635,-66 635,-25 813,-25 813,-66"/>
<text text-anchor="start" x="643" y="-54" font-family="Helvetica,sans-Serif" font-size="10.00">mlir::pdll::ast::detail</text>
<text text-anchor="start" x="643" y="-43" font-family="Helvetica,sans-Serif" font-size="10.00">::TypeStorageBase&lt; RewriteType</text>
<text text-anchor="middle" x="724" y="-32" font-family="Helvetica,sans-Serif" font-size="10.00">Storage &gt;</text>
</a>
</g>
</g>
<!-- Node2&#45;&gt;Node1 -->
<g id="edge1_Node000001_Node000002" class="edge">
<title>Node2&#45;&gt;Node1</title>
<g id="a_edge1_Node000001_Node000002"><a xlink:title=" ">
<path fill="none" stroke="#63b8ff" d="M823.44,-45.5C832.48,-45.5 841.43,-45.5 849.94,-45.5"/>
<polygon fill="#63b8ff" stroke="#63b8ff" points="823.23,-42 813.23,-45.5 823.23,-49 823.23,-42"/>
</a>
</g>
</g>
<!-- Node3 -->
<g id="Node000003" class="node">
<title>Node3</title>
<g id="a_Node000003"><a xlink:href="structmlir_1_1pdll_1_1ast_1_1Type_1_1Storage.html" target="_top" xlink:title=" ">
<polygon fill="white" stroke="#666666" points="265,-59.5 155,-59.5 155,-29.5 265,-29.5 265,-59.5"/>
<text text-anchor="start" x="163" y="-47.5" font-family="Helvetica,sans-Serif" font-size="10.00">mlir::pdll::ast::Type</text>
<text text-anchor="middle" x="210" y="-36.5" font-family="Helvetica,sans-Serif" font-size="10.00">::Storage</text>
</a>
</g>
</g>
<!-- Node3&#45;&gt;Node2 -->
<g id="edge2_Node000002_Node000003" class="edge">
<title>Node3&#45;&gt;Node2</title>
<g id="a_edge2_Node000002_Node000003"><a xlink:title=" ">
<path fill="none" stroke="#63b8ff" d="M275.62,-49.2C355.75,-54.35 496.51,-61.17 617,-55.5 622.82,-55.23 628.81,-54.87 634.84,-54.45"/>
<polygon fill="#63b8ff" stroke="#63b8ff" points="275.41,-45.68 265.2,-48.52 274.95,-52.67 275.41,-45.68"/>
</a>
</g>
</g>
<!-- Node5 -->
<g id="Node000005" class="node">
<title>Node5</title>
<g id="a_Node000005"><a xlink:href="structmlir_1_1pdll_1_1ast_1_1detail_1_1TypeStorageBase.html" target="_top" xlink:title="A utility CRTP base class that defines many of the necessary utilities for defining a PDLL AST Type.">
<polygon fill="white" stroke="#666666" points="472,-41 302,-41 302,0 472,0 472,-41"/>
<text text-anchor="start" x="310" y="-29" font-family="Helvetica,sans-Serif" font-size="10.00">mlir::pdll::ast::detail</text>
<text text-anchor="start" x="310" y="-18" font-family="Helvetica,sans-Serif" font-size="10.00">::TypeStorageBase&lt; ConcreteT,</text>
<text text-anchor="middle" x="387" y="-7" font-family="Helvetica,sans-Serif" font-size="10.00"> KeyT &gt;</text>
</a>
</g>
</g>
<!-- Node3&#45;&gt;Node5 -->
<g id="edge5_Node000005_Node000003" class="edge">
<title>Node3&#45;&gt;Node5</title>
<g id="a_edge5_Node000005_Node000003"><a xlink:title=" ">
<path fill="none" stroke="#63b8ff" d="M275.34,-35.68C283.94,-34.5 292.86,-33.27 301.74,-32.06"/>
<polygon fill="#63b8ff" stroke="#63b8ff" points="274.84,-32.21 265.41,-37.04 275.79,-39.15 274.84,-32.21"/>
</a>
</g>
</g>
<!-- Node4 -->
<g id="Node000004" class="node">
<title>Node4</title>
<g id="a_Node000004"><a xlink:href="classmlir_1_1StorageUniquer_1_1BaseStorage.html" target="_top" xlink:title="This class acts as the base storage that all storage classes must derived from.">
<polygon fill="white" stroke="#666666" points="118,-59.5 0,-59.5 0,-29.5 118,-29.5 118,-59.5"/>
<text text-anchor="start" x="8" y="-47.5" font-family="Helvetica,sans-Serif" font-size="10.00">mlir::StorageUniquer</text>
<text text-anchor="middle" x="59" y="-36.5" font-family="Helvetica,sans-Serif" font-size="10.00">::BaseStorage</text>
</a>
</g>
</g>
<!-- Node4&#45;&gt;Node3 -->
<g id="edge3_Node000003_Node000004" class="edge">
<title>Node4&#45;&gt;Node3</title>
<g id="a_edge3_Node000003_Node000004"><a xlink:title=" ">
<path fill="none" stroke="#63b8ff" d="M128.06,-44.5C137.02,-44.5 146.1,-44.5 154.78,-44.5"/>
<polygon fill="#63b8ff" stroke="#63b8ff" points="128.03,-41 118.03,-44.5 128.03,-48 128.03,-41"/>
</a>
</g>
</g>
<!-- Node5&#45;&gt;Node2 -->
<g id="edge4_Node000002_Node000005" class="edge">
<title>Node5&#45;&gt;Node2</title>
<g id="a_edge4_Node000002_Node000005"><a xlink:title=" ">
<path fill="none" stroke="orange" stroke-dasharray="5,2" d="M482.15,-27.53C529.99,-31.1 587.78,-35.41 634.76,-38.92"/>
<polygon fill="orange" stroke="orange" points="482.34,-24.03 472.1,-26.78 481.81,-31.01 482.34,-24.03"/>
</a>
</g>
<text text-anchor="start" x="493.5" y="-43" font-family="Helvetica,sans-Serif" font-size="10.00" fill="grey">&lt; RewriteTypeStorage &gt;</text>
</g>
</g>
</svg>
