<?xml version="1.0" encoding="UTF-8" standalone="no"?>
<!DOCTYPE svg PUBLIC "-//W3C//DTD SVG 1.1//EN"
 "http://www.w3.org/Graphics/SVG/1.1/DTD/svg11.dtd">
<!-- Generated by graphviz version 2.43.0 (0)
 -->
<!-- Title: mlir::arm_sme::ArmSMETileOpInterface::Trait&lt; ConcreteOp &gt; Pages: 1 -->
<svg width="578pt" height="60pt"
 viewBox="0.00 0.00 578.00 60.00" xmlns="http://www.w3.org/2000/svg" xmlns:xlink="http://www.w3.org/1999/xlink">
<g id="graph0" class="graph" transform="scale(1 1) rotate(0) translate(4 56)">
<title>mlir::arm_sme::ArmSMETileOpInterface::Trait&lt; ConcreteOp &gt;</title>
<!-- Node1 -->
<g id="Node000001" class="node">
<title>Node1</title>
<g id="a_Node000001"><a xlink:title=" ">
<polygon fill="#999999" stroke="#666666" points="570,-41 390,-41 390,-11 570,-11 570,-41"/>
<text text-anchor="start" x="398" y="-29" font-family="Helvetica,sans-Serif" font-size="10.00">mlir::arm_sme::ArmSMETile</text>
<text text-anchor="middle" x="480" y="-18" font-family="Helvetica,sans-Serif" font-size="10.00">OpInterface::Trait&lt; ConcreteOp &gt;</text>
</a>
</g>
</g>
<!-- Node2 -->
<g id="Node000002" class="node">
<title>Node2</title>
<g id="a_Node000002"><a xlink:href="structmlir_1_1arm__sme_1_1detail_1_1ArmSMETileOpInterfaceTrait.html" target="_top" xlink:title=" ">
<polygon fill="white" stroke="#666666" points="354,-46.5 194,-46.5 194,-5.5 354,-5.5 354,-46.5"/>
<text text-anchor="start" x="202" y="-34.5" font-family="Helvetica,sans-Serif" font-size="10.00">mlir::arm_sme::detail</text>
<text text-anchor="start" x="202" y="-23.5" font-family="Helvetica,sans-Serif" font-size="10.00">::ArmSMETileOpInterfaceTrait</text>
<text text-anchor="middle" x="274" y="-12.5" font-family="Helvetica,sans-Serif" font-size="10.00">&lt; ConcreteOp &gt;</text>
</a>
</g>
</g>
<!-- Node2&#45;&gt;Node1 -->
<g id="edge1_Node000001_Node000002" class="edge">
<title>Node2&#45;&gt;Node1</title>
<g id="a_edge1_Node000001_Node000002"><a xlink:title=" ">
<path fill="none" stroke="#63b8ff" d="M364.35,-26C372.77,-26 381.3,-26 389.71,-26"/>
<polygon fill="#63b8ff" stroke="#63b8ff" points="364.16,-22.5 354.16,-26 364.16,-29.5 364.16,-22.5"/>
</a>
</g>
</g>
<!-- Node3 -->
<g id="Node000003" class="node">
<title>Node3</title>
<g id="a_Node000003"><a xlink:title=" ">
<polygon fill="white" stroke="#666666" points="158,-52 0,-52 0,0 158,0 158,-52"/>
<text text-anchor="start" x="8" y="-40" font-family="Helvetica,sans-Serif" font-size="10.00">mlir::detail::Interface</text>
<text text-anchor="start" x="8" y="-29" font-family="Helvetica,sans-Serif" font-size="10.00">&lt; ConcreteType, Operation</text>
<text text-anchor="start" x="8" y="-18" font-family="Helvetica,sans-Serif" font-size="10.00"> *, Traits, Op&lt; ConcreteType</text>
<text text-anchor="middle" x="79" y="-7" font-family="Helvetica,sans-Serif" font-size="10.00"> &gt;, OpTrait::TraitBase &gt;::Trait</text>
</a>
</g>
</g>
<!-- Node3&#45;&gt;Node2 -->
<g id="edge2_Node000002_Node000003" class="edge">
<title>Node3&#45;&gt;Node2</title>
<g id="a_edge2_Node000002_Node000003"><a xlink:title=" ">
<path fill="none" stroke="#63b8ff" d="M168.45,-26C176.88,-26 185.39,-26 193.72,-26"/>
<polygon fill="#63b8ff" stroke="#63b8ff" points="168.22,-22.5 158.22,-26 168.22,-29.5 168.22,-22.5"/>
</a>
</g>
</g>
</g>
</svg>
