<?xml version="1.0" encoding="UTF-8" standalone="no"?>
<!DOCTYPE svg PUBLIC "-//W3C//DTD SVG 1.1//EN"
 "http://www.w3.org/Graphics/SVG/1.1/DTD/svg11.dtd">
<!-- Generated by graphviz version 2.43.0 (0)
 -->
<!-- Title: mlir::xegpu::uArch::StoreScatterInstruction Pages: 1 -->
<svg width="794pt" height="74pt"
 viewBox="0.00 0.00 794.00 74.00" xmlns="http://www.w3.org/2000/svg" xmlns:xlink="http://www.w3.org/1999/xlink">
<g id="graph0" class="graph" transform="scale(1 1) rotate(0) translate(4 70)">
<title>mlir::xegpu::uArch::StoreScatterInstruction</title>
<!-- Node1 -->
<g id="Node000001" class="node">
<title>Node1</title>
<g id="a_Node000001"><a xlink:title=" ">
<polygon fill="#999999" stroke="#666666" points="786,-60.5 652,-60.5 652,-30.5 786,-30.5 786,-60.5"/>
<text text-anchor="start" x="660" y="-48.5" font-family="Helvetica,sans-Serif" font-size="10.00">mlir::xegpu::uArch</text>
<text text-anchor="middle" x="719" y="-37.5" font-family="Helvetica,sans-Serif" font-size="10.00">::StoreScatterInstruction</text>
</a>
</g>
</g>
<!-- Node2 -->
<g id="Node000002" class="node">
<title>Node2</title>
<g id="a_Node000002"><a xlink:href="structmlir_1_1xegpu_1_1uArch_1_1ScatterIoInstructionInterface.html" target="_top" xlink:title=" ">
<polygon fill="white" stroke="#666666" points="615,-66 436,-66 436,-25 615,-25 615,-66"/>
<text text-anchor="start" x="444" y="-54" font-family="Helvetica,sans-Serif" font-size="10.00">mlir::xegpu::uArch</text>
<text text-anchor="start" x="444" y="-43" font-family="Helvetica,sans-Serif" font-size="10.00">::ScatterIoInstructionInterface</text>
<text text-anchor="middle" x="525.5" y="-32" font-family="Helvetica,sans-Serif" font-size="10.00">&lt; InstructionKind::StoreScatter &gt;</text>
</a>
</g>
</g>
<!-- Node2&#45;&gt;Node1 -->
<g id="edge1_Node000001_Node000002" class="edge">
<title>Node2&#45;&gt;Node1</title>
<g id="a_edge1_Node000001_Node000002"><a xlink:title=" ">
<path fill="none" stroke="#63b8ff" d="M625.37,-45.5C634.35,-45.5 643.28,-45.5 651.87,-45.5"/>
<polygon fill="#63b8ff" stroke="#63b8ff" points="625.24,-42 615.24,-45.5 625.24,-49 625.24,-42"/>
</a>
</g>
</g>
<!-- Node3 -->
<g id="Node000003" class="node">
<title>Node3</title>
<g id="a_Node000003"><a xlink:href="structmlir_1_1xegpu_1_1uArch_1_1Instruction.html" target="_top" xlink:title=" ">
<polygon fill="white" stroke="#666666" points="105,-59.5 0,-59.5 0,-29.5 105,-29.5 105,-59.5"/>
<text text-anchor="start" x="8" y="-47.5" font-family="Helvetica,sans-Serif" font-size="10.00">mlir::xegpu::uArch</text>
<text text-anchor="middle" x="52.5" y="-36.5" font-family="Helvetica,sans-Serif" font-size="10.00">::Instruction</text>
</a>
</g>
</g>
<!-- Node3&#45;&gt;Node2 -->
<g id="edge2_Node000002_Node000003" class="edge">
<title>Node3&#45;&gt;Node2</title>
<g id="a_edge2_Node000002_Node000003"><a xlink:title=" ">
<path fill="none" stroke="#63b8ff" d="M115.45,-49.27C188,-54.19 311.76,-60.48 418,-55.5 423.84,-55.23 429.86,-54.87 435.92,-54.45"/>
<polygon fill="#63b8ff" stroke="#63b8ff" points="115.35,-45.76 105.13,-48.56 114.87,-52.74 115.35,-45.76"/>
</a>
</g>
</g>
<!-- Node4 -->
<g id="Node000004" class="node">
<title>Node4</title>
<g id="a_Node000004"><a xlink:href="structmlir_1_1xegpu_1_1uArch_1_1ScatterIoInstructionInterface.html" target="_top" xlink:title=" ">
<polygon fill="white" stroke="#666666" points="303,-41 142,-41 142,0 303,0 303,-41"/>
<text text-anchor="start" x="150" y="-29" font-family="Helvetica,sans-Serif" font-size="10.00">mlir::xegpu::uArch</text>
<text text-anchor="start" x="150" y="-18" font-family="Helvetica,sans-Serif" font-size="10.00">::ScatterIoInstructionInterface</text>
<text text-anchor="middle" x="222.5" y="-7" font-family="Helvetica,sans-Serif" font-size="10.00">&lt; Kind &gt;</text>
</a>
</g>
</g>
<!-- Node3&#45;&gt;Node4 -->
<g id="edge4_Node000004_Node000003" class="edge">
<title>Node3&#45;&gt;Node4</title>
<g id="a_edge4_Node000004_Node000003"><a xlink:title=" ">
<path fill="none" stroke="#63b8ff" d="M115.24,-35.68C123.88,-34.45 132.87,-33.16 141.78,-31.89"/>
<polygon fill="#63b8ff" stroke="#63b8ff" points="114.68,-32.22 105.28,-37.1 115.67,-39.15 114.68,-32.22"/>
</a>
</g>
</g>
<!-- Node4&#45;&gt;Node2 -->
<g id="edge3_Node000002_Node000004" class="edge">
<title>Node4&#45;&gt;Node2</title>
<g id="a_edge3_Node000002_Node000004"><a xlink:title=" ">
<path fill="none" stroke="orange" stroke-dasharray="5,2" d="M313.29,-18.36C346.3,-18.5 383.93,-19.75 418,-23.5 423.82,-24.14 429.79,-24.95 435.79,-25.87"/>
<polygon fill="orange" stroke="orange" points="313.2,-14.86 303.2,-18.35 313.2,-21.86 313.2,-14.86"/>
</a>
</g>
<text text-anchor="start" x="324.5" y="-44.5" font-family="Helvetica,sans-Serif" font-size="10.00" fill="grey">&lt; InstructionKind::</text>
<text text-anchor="start" x="324.5" y="-29.5" font-family="Helvetica,sans-Serif" font-size="10.00" fill="grey">  StoreScatter &gt;</text>
</g>
</g>
</svg>
