<?xml version="1.0" encoding="UTF-8" standalone="no"?>
<!DOCTYPE svg PUBLIC "-//W3C//DTD SVG 1.1//EN"
 "http://www.w3.org/Graphics/SVG/1.1/DTD/svg11.dtd">
<!-- Generated by graphviz version 2.43.0 (0)
 -->
<!-- Title: mlir::pdll::ast::detail::TypeStorageBase&lt; ConcreteT, KeyT &gt; Pages: 1 -->
<svg width="1082pt" height="482pt"
 viewBox="0.00 0.00 1082.00 481.50" xmlns="http://www.w3.org/2000/svg" xmlns:xlink="http://www.w3.org/1999/xlink">
<g id="graph0" class="graph" transform="scale(1 1) rotate(0) translate(4 477.5)">
<title>mlir::pdll::ast::detail::TypeStorageBase&lt; ConcreteT, KeyT &gt;</title>
<!-- Node1 -->
<g id="node1" class="node">
<title>Node1</title>
<g id="a_node1"><a xlink:title="A utility CRTP base class that defines many of the necessary utilities for defining a PDLL AST Type.">
<polygon fill="#bfbfbf" stroke="black" points="302,-215 302,-256 472,-256 472,-215 302,-215"/>
<text text-anchor="start" x="310" y="-244" font-family="Helvetica,sans-Serif" font-size="10.00">mlir::pdll::ast::detail</text>
<text text-anchor="start" x="310" y="-233" font-family="Helvetica,sans-Serif" font-size="10.00">::TypeStorageBase&lt; ConcreteT,</text>
<text text-anchor="middle" x="387" y="-222" font-family="Helvetica,sans-Serif" font-size="10.00"> KeyT &gt;</text>
</a>
</g>
</g>
<!-- Node4 -->
<g id="node4" class="node">
<title>Node4</title>
<g id="a_node4"><a xlink:href="structmlir_1_1pdll_1_1ast_1_1detail_1_1TypeStorageBase.html" target="_top" xlink:title=" ">
<polygon fill="none" stroke="black" points="714.5,-432 714.5,-473 881.5,-473 881.5,-432 714.5,-432"/>
<text text-anchor="start" x="722.5" y="-461" font-family="Helvetica,sans-Serif" font-size="10.00">mlir::pdll::ast::detail</text>
<text text-anchor="start" x="722.5" y="-450" font-family="Helvetica,sans-Serif" font-size="10.00">::TypeStorageBase&lt; ValueType</text>
<text text-anchor="middle" x="798" y="-439" font-family="Helvetica,sans-Serif" font-size="10.00">Storage &gt;</text>
</a>
</g>
</g>
<!-- Node1&#45;&gt;Node4 -->
<g id="edge3" class="edge">
<title>Node1&#45;&gt;Node4</title>
<path fill="none" stroke="orange" stroke-dasharray="5,2" d="M397.67,-265.6C411.61,-303.8 441.18,-368.66 490,-401.5 556.23,-446.06 648.28,-456.17 714.27,-456.76"/>
<polygon fill="orange" stroke="orange" points="400.93,-264.31 394.31,-256.04 394.33,-266.64 400.93,-264.31"/>
<text text-anchor="middle" x="582" y="-457.5" font-family="Helvetica,sans-Serif" font-size="10.00"> &lt; ValueTypeStorage &gt;</text>
</g>
<!-- Node6 -->
<g id="node6" class="node">
<title>Node6</title>
<g id="a_node6"><a xlink:href="structmlir_1_1pdll_1_1ast_1_1detail_1_1TypeStorageBase.html" target="_top" xlink:title=" ">
<polygon fill="none" stroke="black" points="709,-372 709,-413 887,-413 887,-372 709,-372"/>
<text text-anchor="start" x="717" y="-401" font-family="Helvetica,sans-Serif" font-size="10.00">mlir::pdll::ast::detail</text>
<text text-anchor="start" x="717" y="-390" font-family="Helvetica,sans-Serif" font-size="10.00">::TypeStorageBase&lt; RewriteType</text>
<text text-anchor="middle" x="798" y="-379" font-family="Helvetica,sans-Serif" font-size="10.00">Storage &gt;</text>
</a>
</g>
</g>
<!-- Node1&#45;&gt;Node6 -->
<g id="edge5" class="edge">
<title>Node1&#45;&gt;Node6</title>
<path fill="none" stroke="orange" stroke-dasharray="5,2" d="M408.42,-263.98C426.95,-287.58 456.44,-319.97 490,-337.5 558.03,-373.03 644.85,-386.08 708.79,-390.65"/>
<polygon fill="orange" stroke="orange" points="411.2,-261.85 402.34,-256.05 405.64,-266.11 411.2,-261.85"/>
<text text-anchor="middle" x="582" y="-389.5" font-family="Helvetica,sans-Serif" font-size="10.00"> &lt; RewriteTypeStorage &gt;</text>
</g>
<!-- Node8 -->
<g id="node8" class="node">
<title>Node8</title>
<g id="a_node8"><a xlink:href="structmlir_1_1pdll_1_1ast_1_1detail_1_1TypeStorageBase.html" target="_top" xlink:title=" ">
<polygon fill="none" stroke="black" points="717.5,-312 717.5,-353 878.5,-353 878.5,-312 717.5,-312"/>
<text text-anchor="start" x="725.5" y="-341" font-family="Helvetica,sans-Serif" font-size="10.00">mlir::pdll::ast::detail</text>
<text text-anchor="start" x="725.5" y="-330" font-family="Helvetica,sans-Serif" font-size="10.00">::TypeStorageBase&lt; Attribute</text>
<text text-anchor="middle" x="798" y="-319" font-family="Helvetica,sans-Serif" font-size="10.00">TypeStorage &gt;</text>
</a>
</g>
</g>
<!-- Node1&#45;&gt;Node8 -->
<g id="edge7" class="edge">
<title>Node1&#45;&gt;Node8</title>
<path fill="none" stroke="orange" stroke-dasharray="5,2" d="M431.19,-260.88C448.89,-270.26 469.91,-280.15 490,-286.5 565.02,-310.22 654.33,-321.84 717.22,-327.46"/>
<polygon fill="orange" stroke="orange" points="432.72,-257.72 422.26,-256.04 429.38,-263.88 432.72,-257.72"/>
<text text-anchor="middle" x="582" y="-325.5" font-family="Helvetica,sans-Serif" font-size="10.00"> &lt; AttributeTypeStorage &gt;</text>
</g>
<!-- Node10 -->
<g id="node10" class="node">
<title>Node10</title>
<g id="a_node10"><a xlink:href="structmlir_1_1pdll_1_1ast_1_1detail_1_1TypeStorageBase.html" target="_top" xlink:title=" ">
<polygon fill="none" stroke="black" points="712.5,-252 712.5,-293 883.5,-293 883.5,-252 712.5,-252"/>
<text text-anchor="start" x="720.5" y="-281" font-family="Helvetica,sans-Serif" font-size="10.00">mlir::pdll::ast::detail</text>
<text text-anchor="start" x="720.5" y="-270" font-family="Helvetica,sans-Serif" font-size="10.00">::TypeStorageBase&lt; RangeType</text>
<text text-anchor="middle" x="798" y="-259" font-family="Helvetica,sans-Serif" font-size="10.00">Storage, Type &gt;</text>
</a>
</g>
</g>
<!-- Node1&#45;&gt;Node10 -->
<g id="edge9" class="edge">
<title>Node1&#45;&gt;Node10</title>
<path fill="none" stroke="orange" stroke-dasharray="5,2" d="M482.3,-244.03C551.66,-250.31 645.14,-258.76 712.16,-264.82"/>
<polygon fill="orange" stroke="orange" points="482.52,-240.54 472.25,-243.12 481.89,-247.51 482.52,-240.54"/>
<text text-anchor="start" x="527.5" y="-274.5" font-family="Helvetica,sans-Serif" font-size="10.00"> &lt; RangeTypeStorage,</text>
<text text-anchor="middle" x="582" y="-263.5" font-family="Helvetica,sans-Serif" font-size="10.00"> Type &gt;</text>
</g>
<!-- Node12 -->
<g id="node12" class="node">
<title>Node12</title>
<g id="a_node12"><a xlink:href="structmlir_1_1pdll_1_1ast_1_1detail_1_1TypeStorageBase.html" target="_top" xlink:title=" ">
<polygon fill="none" stroke="black" points="714,-192 714,-233 882,-233 882,-192 714,-192"/>
<text text-anchor="start" x="722" y="-221" font-family="Helvetica,sans-Serif" font-size="10.00">mlir::pdll::ast::detail</text>
<text text-anchor="start" x="722" y="-210" font-family="Helvetica,sans-Serif" font-size="10.00">::TypeStorageBase&lt; Constraint</text>
<text text-anchor="middle" x="798" y="-199" font-family="Helvetica,sans-Serif" font-size="10.00">TypeStorage &gt;</text>
</a>
</g>
</g>
<!-- Node1&#45;&gt;Node12 -->
<g id="edge11" class="edge">
<title>Node1&#45;&gt;Node12</title>
<path fill="none" stroke="orange" stroke-dasharray="5,2" d="M482.39,-230.19C552.34,-226.26 646.8,-220.95 713.91,-217.17"/>
<polygon fill="orange" stroke="orange" points="482.04,-226.71 472.25,-230.76 482.43,-233.7 482.04,-226.71"/>
<text text-anchor="middle" x="582" y="-232.5" font-family="Helvetica,sans-Serif" font-size="10.00"> &lt; ConstraintTypeStorage &gt;</text>
</g>
<!-- Node14 -->
<g id="node14" class="node">
<title>Node14</title>
<g id="a_node14"><a xlink:href="structmlir_1_1pdll_1_1ast_1_1detail_1_1TypeStorageBase.html" target="_top" xlink:title=" ">
<polygon fill="none" stroke="black" points="698,-120.5 698,-172.5 898,-172.5 898,-120.5 698,-120.5"/>
<text text-anchor="start" x="706" y="-160.5" font-family="Helvetica,sans-Serif" font-size="10.00">mlir::pdll::ast::detail</text>
<text text-anchor="start" x="706" y="-149.5" font-family="Helvetica,sans-Serif" font-size="10.00">::TypeStorageBase&lt; TupleType</text>
<text text-anchor="start" x="706" y="-138.5" font-family="Helvetica,sans-Serif" font-size="10.00">Storage, std::pair&lt; ArrayRef</text>
<text text-anchor="middle" x="798" y="-127.5" font-family="Helvetica,sans-Serif" font-size="10.00">&lt; Type &gt;, ArrayRef&lt; StringRef &gt; &gt; &gt;</text>
</a>
</g>
</g>
<!-- Node1&#45;&gt;Node14 -->
<g id="edge13" class="edge">
<title>Node1&#45;&gt;Node14</title>
<path fill="none" stroke="orange" stroke-dasharray="5,2" d="M430.19,-209.77C448.04,-200.02 469.44,-189.76 490,-183.5 557.53,-162.93 636.69,-153.73 697.71,-149.64"/>
<polygon fill="orange" stroke="orange" points="428.22,-206.86 421.2,-214.8 431.64,-212.97 428.22,-206.86"/>
<text text-anchor="start" x="490" y="-208.5" font-family="Helvetica,sans-Serif" font-size="10.00"> &lt; TupleTypeStorage,</text>
<text text-anchor="start" x="490" y="-197.5" font-family="Helvetica,sans-Serif" font-size="10.00"> std::pair&lt; ArrayRef</text>
<text text-anchor="middle" x="582" y="-186.5" font-family="Helvetica,sans-Serif" font-size="10.00">&lt; Type &gt;, ArrayRef&lt; StringRef &gt; &gt; &gt;</text>
</g>
<!-- Node16 -->
<g id="node16" class="node">
<title>Node16</title>
<g id="a_node16"><a xlink:href="structmlir_1_1pdll_1_1ast_1_1detail_1_1TypeStorageBase.html" target="_top" xlink:title=" ">
<polygon fill="none" stroke="black" points="692,-71.5 692,-101.5 904,-101.5 904,-71.5 692,-71.5"/>
<text text-anchor="start" x="700" y="-89.5" font-family="Helvetica,sans-Serif" font-size="10.00">mlir::pdll::ast::detail</text>
<text text-anchor="middle" x="798" y="-78.5" font-family="Helvetica,sans-Serif" font-size="10.00">::TypeStorageBase&lt; TypeTypeStorage &gt;</text>
</a>
</g>
</g>
<!-- Node1&#45;&gt;Node16 -->
<g id="edge15" class="edge">
<title>Node1&#45;&gt;Node16</title>
<path fill="none" stroke="orange" stroke-dasharray="5,2" d="M409.52,-206.93C428.21,-184.31 457.35,-153.88 490,-137.5 552.42,-106.18 630.06,-93.49 691.65,-88.6"/>
<polygon fill="orange" stroke="orange" points="406.67,-204.89 403.12,-214.87 412.12,-209.28 406.67,-204.89"/>
<text text-anchor="middle" x="582" y="-140.5" font-family="Helvetica,sans-Serif" font-size="10.00"> &lt; TypeTypeStorage &gt;</text>
</g>
<!-- Node18 -->
<g id="node18" class="node">
<title>Node18</title>
<g id="a_node18"><a xlink:href="structmlir_1_1pdll_1_1ast_1_1detail_1_1TypeStorageBase.html" target="_top" xlink:title=" ">
<polygon fill="none" stroke="black" points="707,-0.5 707,-52.5 889,-52.5 889,-0.5 707,-0.5"/>
<text text-anchor="start" x="715" y="-40.5" font-family="Helvetica,sans-Serif" font-size="10.00">mlir::pdll::ast::detail</text>
<text text-anchor="start" x="715" y="-29.5" font-family="Helvetica,sans-Serif" font-size="10.00">::TypeStorageBase&lt; Operation</text>
<text text-anchor="start" x="715" y="-18.5" font-family="Helvetica,sans-Serif" font-size="10.00">TypeStorage, std::pair&lt; StringRef,</text>
<text text-anchor="middle" x="798" y="-7.5" font-family="Helvetica,sans-Serif" font-size="10.00"> const ods::Operation * &gt; &gt;</text>
</a>
</g>
</g>
<!-- Node1&#45;&gt;Node18 -->
<g id="edge17" class="edge">
<title>Node1&#45;&gt;Node18</title>
<path fill="none" stroke="orange" stroke-dasharray="5,2" d="M395.64,-204.99C407.86,-163.2 436.12,-89.36 490,-54.5 553.92,-13.14 641.59,-9.1 706.89,-13.68"/>
<polygon fill="orange" stroke="orange" points="392.2,-204.31 392.87,-214.88 398.94,-206.19 392.2,-204.31"/>
<text text-anchor="start" x="514.5" y="-79.5" font-family="Helvetica,sans-Serif" font-size="10.00"> &lt; OperationTypeStorage,</text>
<text text-anchor="start" x="514.5" y="-68.5" font-family="Helvetica,sans-Serif" font-size="10.00"> std::pair&lt; StringRef,</text>
<text text-anchor="middle" x="582" y="-57.5" font-family="Helvetica,sans-Serif" font-size="10.00"> const ods::Operation * &gt; &gt;</text>
</g>
<!-- Node2 -->
<g id="node2" class="node">
<title>Node2</title>
<g id="a_node2"><a xlink:href="structmlir_1_1pdll_1_1ast_1_1Type_1_1Storage.html" target="_top" xlink:title=" ">
<polygon fill="none" stroke="black" points="155,-220.5 155,-250.5 265,-250.5 265,-220.5 155,-220.5"/>
<text text-anchor="start" x="163" y="-238.5" font-family="Helvetica,sans-Serif" font-size="10.00">mlir::pdll::ast::Type</text>
<text text-anchor="middle" x="210" y="-227.5" font-family="Helvetica,sans-Serif" font-size="10.00">::Storage</text>
</a>
</g>
</g>
<!-- Node2&#45;&gt;Node1 -->
<g id="edge1" class="edge">
<title>Node2&#45;&gt;Node1</title>
<path fill="none" stroke="midnightblue" d="M275.62,-235.5C284.13,-235.5 292.96,-235.5 301.74,-235.5"/>
<polygon fill="midnightblue" stroke="midnightblue" points="275.41,-232 265.41,-235.5 275.41,-239 275.41,-232"/>
</g>
<!-- Node3 -->
<g id="node3" class="node">
<title>Node3</title>
<g id="a_node3"><a xlink:href="classmlir_1_1StorageUniquer_1_1BaseStorage.html" target="_top" xlink:title="This class acts as the base storage that all storage classes must derived from.">
<polygon fill="none" stroke="black" points="0,-220.5 0,-250.5 118,-250.5 118,-220.5 0,-220.5"/>
<text text-anchor="start" x="8" y="-238.5" font-family="Helvetica,sans-Serif" font-size="10.00">mlir::StorageUniquer</text>
<text text-anchor="middle" x="59" y="-227.5" font-family="Helvetica,sans-Serif" font-size="10.00">::BaseStorage</text>
</a>
</g>
</g>
<!-- Node3&#45;&gt;Node2 -->
<g id="edge2" class="edge">
<title>Node3&#45;&gt;Node2</title>
<path fill="none" stroke="midnightblue" d="M128.06,-235.5C137.02,-235.5 146.1,-235.5 154.78,-235.5"/>
<polygon fill="midnightblue" stroke="midnightblue" points="128.03,-232 118.03,-235.5 128.03,-239 128.03,-232"/>
</g>
<!-- Node5 -->
<g id="node5" class="node">
<title>Node5</title>
<g id="a_node5"><a xlink:href="structmlir_1_1pdll_1_1ast_1_1detail_1_1ValueTypeStorage.html" target="_top" xlink:title=" ">
<polygon fill="none" stroke="black" points="950,-437.5 950,-467.5 1065,-467.5 1065,-437.5 950,-437.5"/>
<text text-anchor="start" x="958" y="-455.5" font-family="Helvetica,sans-Serif" font-size="10.00">mlir::pdll::ast::detail</text>
<text text-anchor="middle" x="1007.5" y="-444.5" font-family="Helvetica,sans-Serif" font-size="10.00">::ValueTypeStorage</text>
</a>
</g>
</g>
<!-- Node4&#45;&gt;Node5 -->
<g id="edge4" class="edge">
<title>Node4&#45;&gt;Node5</title>
<path fill="none" stroke="midnightblue" d="M891.85,-452.5C911.56,-452.5 931.81,-452.5 949.69,-452.5"/>
<polygon fill="midnightblue" stroke="midnightblue" points="891.61,-449 881.61,-452.5 891.61,-456 891.61,-449"/>
</g>
<!-- Node7 -->
<g id="node7" class="node">
<title>Node7</title>
<g id="a_node7"><a xlink:href="structmlir_1_1pdll_1_1ast_1_1detail_1_1RewriteTypeStorage.html" target="_top" xlink:title=" ">
<polygon fill="none" stroke="black" points="947.5,-377.5 947.5,-407.5 1067.5,-407.5 1067.5,-377.5 947.5,-377.5"/>
<text text-anchor="start" x="955.5" y="-395.5" font-family="Helvetica,sans-Serif" font-size="10.00">mlir::pdll::ast::detail</text>
<text text-anchor="middle" x="1007.5" y="-384.5" font-family="Helvetica,sans-Serif" font-size="10.00">::RewriteTypeStorage</text>
</a>
</g>
</g>
<!-- Node6&#45;&gt;Node7 -->
<g id="edge6" class="edge">
<title>Node6&#45;&gt;Node7</title>
<path fill="none" stroke="midnightblue" d="M897.34,-392.5C914.46,-392.5 931.77,-392.5 947.41,-392.5"/>
<polygon fill="midnightblue" stroke="midnightblue" points="897.3,-389 887.3,-392.5 897.3,-396 897.3,-389"/>
</g>
<!-- Node9 -->
<g id="node9" class="node">
<title>Node9</title>
<g id="a_node9"><a xlink:href="structmlir_1_1pdll_1_1ast_1_1detail_1_1AttributeTypeStorage.html" target="_top" xlink:title=" ">
<polygon fill="none" stroke="black" points="945,-317.5 945,-347.5 1070,-347.5 1070,-317.5 945,-317.5"/>
<text text-anchor="start" x="953" y="-335.5" font-family="Helvetica,sans-Serif" font-size="10.00">mlir::pdll::ast::detail</text>
<text text-anchor="middle" x="1007.5" y="-324.5" font-family="Helvetica,sans-Serif" font-size="10.00">::AttributeTypeStorage</text>
</a>
</g>
</g>
<!-- Node8&#45;&gt;Node9 -->
<g id="edge8" class="edge">
<title>Node8&#45;&gt;Node9</title>
<path fill="none" stroke="midnightblue" d="M888.75,-332.5C907.66,-332.5 927.21,-332.5 944.8,-332.5"/>
<polygon fill="midnightblue" stroke="midnightblue" points="888.63,-329 878.63,-332.5 888.63,-336 888.63,-329"/>
</g>
<!-- Node11 -->
<g id="node11" class="node">
<title>Node11</title>
<g id="a_node11"><a xlink:href="structmlir_1_1pdll_1_1ast_1_1detail_1_1RangeTypeStorage.html" target="_top" xlink:title=" ">
<polygon fill="none" stroke="black" points="950,-257.5 950,-287.5 1065,-287.5 1065,-257.5 950,-257.5"/>
<text text-anchor="start" x="958" y="-275.5" font-family="Helvetica,sans-Serif" font-size="10.00">mlir::pdll::ast::detail</text>
<text text-anchor="middle" x="1007.5" y="-264.5" font-family="Helvetica,sans-Serif" font-size="10.00">::RangeTypeStorage</text>
</a>
</g>
</g>
<!-- Node10&#45;&gt;Node11 -->
<g id="edge10" class="edge">
<title>Node10&#45;&gt;Node11</title>
<path fill="none" stroke="midnightblue" d="M893.96,-272.5C913.09,-272.5 932.63,-272.5 949.93,-272.5"/>
<polygon fill="midnightblue" stroke="midnightblue" points="893.7,-269 883.7,-272.5 893.7,-276 893.7,-269"/>
</g>
<!-- Node13 -->
<g id="node13" class="node">
<title>Node13</title>
<g id="a_node13"><a xlink:href="structmlir_1_1pdll_1_1ast_1_1detail_1_1ConstraintTypeStorage.html" target="_top" xlink:title=" ">
<polygon fill="none" stroke="black" points="941,-197.5 941,-227.5 1074,-227.5 1074,-197.5 941,-197.5"/>
<text text-anchor="start" x="949" y="-215.5" font-family="Helvetica,sans-Serif" font-size="10.00">mlir::pdll::ast::detail</text>
<text text-anchor="middle" x="1007.5" y="-204.5" font-family="Helvetica,sans-Serif" font-size="10.00">::ConstraintTypeStorage</text>
</a>
</g>
</g>
<!-- Node12&#45;&gt;Node13 -->
<g id="edge12" class="edge">
<title>Node12&#45;&gt;Node13</title>
<path fill="none" stroke="midnightblue" d="M892.33,-212.5C908.7,-212.5 925.42,-212.5 940.84,-212.5"/>
<polygon fill="midnightblue" stroke="midnightblue" points="892.2,-209 882.2,-212.5 892.2,-216 892.2,-209"/>
</g>
<!-- Node15 -->
<g id="node15" class="node">
<title>Node15</title>
<g id="a_node15"><a xlink:href="structmlir_1_1pdll_1_1ast_1_1detail_1_1TupleTypeStorage.html" target="_top" xlink:title=" ">
<polygon fill="none" stroke="black" points="950,-131.5 950,-161.5 1065,-161.5 1065,-131.5 950,-131.5"/>
<text text-anchor="start" x="958" y="-149.5" font-family="Helvetica,sans-Serif" font-size="10.00">mlir::pdll::ast::detail</text>
<text text-anchor="middle" x="1007.5" y="-138.5" font-family="Helvetica,sans-Serif" font-size="10.00">::TupleTypeStorage</text>
</a>
</g>
</g>
<!-- Node14&#45;&gt;Node15 -->
<g id="edge14" class="edge">
<title>Node14&#45;&gt;Node15</title>
<path fill="none" stroke="midnightblue" d="M908.58,-146.5C922.82,-146.5 936.92,-146.5 949.79,-146.5"/>
<polygon fill="midnightblue" stroke="midnightblue" points="908.19,-143 898.19,-146.5 908.19,-150 908.19,-143"/>
</g>
<!-- Node17 -->
<g id="node17" class="node">
<title>Node17</title>
<g id="a_node17"><a xlink:href="structmlir_1_1pdll_1_1ast_1_1detail_1_1TypeTypeStorage.html" target="_top" xlink:title=" ">
<polygon fill="none" stroke="black" points="950,-71.5 950,-101.5 1065,-101.5 1065,-71.5 950,-71.5"/>
<text text-anchor="start" x="958" y="-89.5" font-family="Helvetica,sans-Serif" font-size="10.00">mlir::pdll::ast::detail</text>
<text text-anchor="middle" x="1007.5" y="-78.5" font-family="Helvetica,sans-Serif" font-size="10.00">::TypeTypeStorage</text>
</a>
</g>
</g>
<!-- Node16&#45;&gt;Node17 -->
<g id="edge16" class="edge">
<title>Node16&#45;&gt;Node17</title>
<path fill="none" stroke="midnightblue" d="M914.58,-86.5C926.82,-86.5 938.83,-86.5 949.93,-86.5"/>
<polygon fill="midnightblue" stroke="midnightblue" points="914.27,-83 904.27,-86.5 914.27,-90 914.27,-83"/>
</g>
<!-- Node19 -->
<g id="node19" class="node">
<title>Node19</title>
<g id="a_node19"><a xlink:href="structmlir_1_1pdll_1_1ast_1_1detail_1_1OperationTypeStorage.html" target="_top" xlink:title=" ">
<polygon fill="none" stroke="black" points="942,-11.5 942,-41.5 1073,-41.5 1073,-11.5 942,-11.5"/>
<text text-anchor="start" x="950" y="-29.5" font-family="Helvetica,sans-Serif" font-size="10.00">mlir::pdll::ast::detail</text>
<text text-anchor="middle" x="1007.5" y="-18.5" font-family="Helvetica,sans-Serif" font-size="10.00">::OperationTypeStorage</text>
</a>
</g>
</g>
<!-- Node18&#45;&gt;Node19 -->
<g id="edge18" class="edge">
<title>Node18&#45;&gt;Node19</title>
<path fill="none" stroke="midnightblue" d="M899.12,-26.5C913.62,-26.5 928.21,-26.5 941.77,-26.5"/>
<polygon fill="midnightblue" stroke="midnightblue" points="899.11,-23 889.11,-26.5 899.11,-30 899.11,-23"/>
</g>
</g>
</svg>
