<?xml version="1.0" encoding="UTF-8" standalone="no"?>
<!DOCTYPE svg PUBLIC "-//W3C//DTD SVG 1.1//EN"
 "http://www.w3.org/Graphics/SVG/1.1/DTD/svg11.dtd">
<!-- Generated by graphviz version 2.43.0 (0)
 -->
<!-- Title: mlir::pdl_to_pdl_interp::ResultGroupPosition Pages: 1 -->
<svg width="910pt" height="115pt"
 viewBox="0.00 0.00 910.00 114.50" xmlns="http://www.w3.org/2000/svg" xmlns:xlink="http://www.w3.org/1999/xlink">
<g id="graph0" class="graph" transform="scale(1 1) rotate(0) translate(4 110.5)">
<title>mlir::pdl_to_pdl_interp::ResultGroupPosition</title>
<!-- Node1 -->
<g id="node1" class="node">
<title>Node1</title>
<g id="a_node1"><a xlink:title="A position describing a result group of an operation.">
<polygon fill="#bfbfbf" stroke="black" points="776,-41 776,-71 902,-71 902,-41 776,-41"/>
<text text-anchor="start" x="784" y="-59" font-family="Helvetica,sans-Serif" font-size="10.00">mlir::pdl_to_pdl_interp</text>
<text text-anchor="middle" x="839" y="-48" font-family="Helvetica,sans-Serif" font-size="10.00">::ResultGroupPosition</text>
</a>
</g>
</g>
<!-- Node2 -->
<g id="node2" class="node">
<title>Node2</title>
<g id="a_node2"><a xlink:href="classmlir_1_1pdl__to__pdl__interp_1_1PredicateBase.html" target="_top" xlink:title=" ">
<polygon fill="none" stroke="black" points="549,-19 549,-93 739,-93 739,-19 549,-19"/>
<text text-anchor="start" x="557" y="-81" font-family="Helvetica,sans-Serif" font-size="10.00">mlir::pdl_to_pdl_interp</text>
<text text-anchor="start" x="557" y="-70" font-family="Helvetica,sans-Serif" font-size="10.00">::PredicateBase&lt; ResultGroup</text>
<text text-anchor="start" x="557" y="-59" font-family="Helvetica,sans-Serif" font-size="10.00">Position, Position, std::tuple</text>
<text text-anchor="start" x="557" y="-48" font-family="Helvetica,sans-Serif" font-size="10.00">&lt; OperationPosition *, std::optional</text>
<text text-anchor="start" x="557" y="-37" font-family="Helvetica,sans-Serif" font-size="10.00">&lt; unsigned &gt;, bool &gt;, Predicates::</text>
<text text-anchor="middle" x="644" y="-26" font-family="Helvetica,sans-Serif" font-size="10.00">ResultGroupPos &gt;</text>
</a>
</g>
</g>
<!-- Node2&#45;&gt;Node1 -->
<g id="edge1" class="edge">
<title>Node2&#45;&gt;Node1</title>
<path fill="none" stroke="midnightblue" d="M749.44,-56C758.45,-56 767.37,-56 775.88,-56"/>
<polygon fill="midnightblue" stroke="midnightblue" points="749.24,-52.5 739.24,-56 749.24,-59.5 749.24,-52.5"/>
</g>
<!-- Node3 -->
<g id="node3" class="node">
<title>Node3</title>
<g id="a_node3"><a xlink:href="classmlir_1_1pdl__to__pdl__interp_1_1Position.html" target="_top" xlink:title="A position describes a value on the input IR on which a predicate may be applied, such as an operatio...">
<polygon fill="none" stroke="black" points="170,-76 170,-106 296,-106 296,-76 170,-76"/>
<text text-anchor="start" x="178" y="-94" font-family="Helvetica,sans-Serif" font-size="10.00">mlir::pdl_to_pdl_interp</text>
<text text-anchor="middle" x="233" y="-83" font-family="Helvetica,sans-Serif" font-size="10.00">::Position</text>
</a>
</g>
</g>
<!-- Node3&#45;&gt;Node2 -->
<g id="edge2" class="edge">
<title>Node3&#45;&gt;Node2</title>
<path fill="none" stroke="midnightblue" d="M306.38,-90.38C366.66,-89.19 454.66,-85.91 531,-77 536.8,-76.32 542.74,-75.52 548.73,-74.64"/>
<polygon fill="midnightblue" stroke="midnightblue" points="306.14,-86.88 296.21,-90.56 306.27,-93.88 306.14,-86.88"/>
</g>
<!-- Node4 -->
<g id="node4" class="node">
<title>Node4</title>
<g id="a_node4"><a xlink:href="classmlir_1_1StorageUniquer_1_1BaseStorage.html" target="_top" xlink:title="This class acts as the base storage that all storage classes must derived from.">
<polygon fill="none" stroke="black" points="0,-76 0,-106 118,-106 118,-76 0,-76"/>
<text text-anchor="start" x="8" y="-94" font-family="Helvetica,sans-Serif" font-size="10.00">mlir::StorageUniquer</text>
<text text-anchor="middle" x="59" y="-83" font-family="Helvetica,sans-Serif" font-size="10.00">::BaseStorage</text>
</a>
</g>
</g>
<!-- Node4&#45;&gt;Node3 -->
<g id="edge3" class="edge">
<title>Node4&#45;&gt;Node3</title>
<path fill="none" stroke="midnightblue" d="M128.49,-91C142.1,-91 156.32,-91 169.71,-91"/>
<polygon fill="midnightblue" stroke="midnightblue" points="128.23,-87.5 118.23,-91 128.23,-94.5 128.23,-87.5"/>
</g>
<!-- Node5 -->
<g id="node5" class="node">
<title>Node5</title>
<g id="a_node5"><a xlink:href="classmlir_1_1pdl__to__pdl__interp_1_1PredicateBase.html" target="_top" xlink:title="Base class for all predicates, used to allow efficient pointer comparison.">
<polygon fill="none" stroke="black" points="155,-0.5 155,-41.5 311,-41.5 311,-0.5 155,-0.5"/>
<text text-anchor="start" x="163" y="-29.5" font-family="Helvetica,sans-Serif" font-size="10.00">mlir::pdl_to_pdl_interp</text>
<text text-anchor="start" x="163" y="-18.5" font-family="Helvetica,sans-Serif" font-size="10.00">::PredicateBase&lt; ConcreteT,</text>
<text text-anchor="middle" x="233" y="-7.5" font-family="Helvetica,sans-Serif" font-size="10.00"> BaseT, Key, Kind &gt;</text>
</a>
</g>
</g>
<!-- Node5&#45;&gt;Node2 -->
<g id="edge4" class="edge">
<title>Node5&#45;&gt;Node2</title>
<path fill="none" stroke="orange" stroke-dasharray="5,2" d="M321.28,-12.23C380.78,-8.17 461.14,-6.47 531,-18 536.88,-18.97 542.86,-20.21 548.84,-21.64"/>
<polygon fill="orange" stroke="orange" points="320.89,-8.75 311.17,-12.95 321.4,-15.73 320.89,-8.75"/>
<text text-anchor="start" x="329" y="-65" font-family="Helvetica,sans-Serif" font-size="10.00"> &lt; ResultGroupPosition,</text>
<text text-anchor="start" x="329" y="-54" font-family="Helvetica,sans-Serif" font-size="10.00"> Position, std::tuple</text>
<text text-anchor="start" x="329" y="-43" font-family="Helvetica,sans-Serif" font-size="10.00">&lt; OperationPosition *,</text>
<text text-anchor="start" x="329" y="-32" font-family="Helvetica,sans-Serif" font-size="10.00"> std::optional&lt; unsigned</text>
<text text-anchor="middle" x="430" y="-21" font-family="Helvetica,sans-Serif" font-size="10.00"> &gt;, bool &gt;, Predicates::ResultGroupPos &gt;</text>
</g>
<!-- Node6 -->
<g id="node6" class="node">
<title>Node6</title>
<g id="a_node6"><a xlink:href="classBaseT.html" target="_top" xlink:title=" ">
<polygon fill="none" stroke="black" points="35.5,-11.5 35.5,-30.5 82.5,-30.5 82.5,-11.5 35.5,-11.5"/>
<text text-anchor="middle" x="59" y="-18.5" font-family="Helvetica,sans-Serif" font-size="10.00">BaseT</text>
</a>
</g>
</g>
<!-- Node6&#45;&gt;Node5 -->
<g id="edge5" class="edge">
<title>Node6&#45;&gt;Node5</title>
<path fill="none" stroke="midnightblue" d="M93.13,-21C110.74,-21 133.18,-21 154.86,-21"/>
<polygon fill="midnightblue" stroke="midnightblue" points="92.84,-17.5 82.84,-21 92.84,-24.5 92.84,-17.5"/>
</g>
</g>
</svg>
