<?xml version="1.0" encoding="UTF-8" standalone="no"?>
<!DOCTYPE svg PUBLIC "-//W3C//DTD SVG 1.1//EN"
 "http://www.w3.org/Graphics/SVG/1.1/DTD/svg11.dtd">
<!-- Generated by graphviz version 2.43.0 (0)
 -->
<!-- Title: mlir::sparse_tensor::detail::is_complex&lt; T &gt; Pages: 1 -->
<svg width="582pt" height="120pt"
 viewBox="0.00 0.00 582.00 119.50" xmlns="http://www.w3.org/2000/svg" xmlns:xlink="http://www.w3.org/1999/xlink">
<g id="graph0" class="graph" transform="scale(1 1) rotate(0) translate(4 115.5)">
<title>mlir::sparse_tensor::detail::is_complex&lt; T &gt;</title>
<!-- Node1 -->
<g id="Node000001" class="node">
<title>Node1</title>
<g id="a_Node000001"><a xlink:title=" ">
<polygon fill="#999999" stroke="#666666" points="266,-67.5 126,-67.5 126,-37.5 266,-37.5 266,-67.5"/>
<text text-anchor="start" x="134" y="-55.5" font-family="Helvetica,sans-Serif" font-size="10.00">mlir::sparse_tensor</text>
<text text-anchor="middle" x="196" y="-44.5" font-family="Helvetica,sans-Serif" font-size="10.00">::detail::is_complex&lt; T &gt;</text>
</a>
</g>
</g>
<!-- Node3 -->
<g id="Node000003" class="node">
<title>Node3</title>
<g id="a_Node000003"><a xlink:href="structmlir_1_1sparse__tensor_1_1detail_1_1is__complex_3_01mlir_1_1NonFloatComplex_3_01T_01_4_01_4.html" target="_top" xlink:title=" ">
<polygon fill="white" stroke="#666666" points="574,-111.5 433,-111.5 433,-59.5 574,-59.5 574,-111.5"/>
<text text-anchor="start" x="441" y="-99.5" font-family="Helvetica,sans-Serif" font-size="10.00">mlir::sparse_tensor</text>
<text text-anchor="start" x="441" y="-88.5" font-family="Helvetica,sans-Serif" font-size="10.00">::detail::is_complex</text>
<text text-anchor="start" x="441" y="-77.5" font-family="Helvetica,sans-Serif" font-size="10.00">&lt; mlir::NonFloatComplex</text>
<text text-anchor="middle" x="503.5" y="-66.5" font-family="Helvetica,sans-Serif" font-size="10.00">&lt; T &gt; &gt;</text>
</a>
</g>
</g>
<!-- Node1&#45;&gt;Node3 -->
<g id="edge2_Node000001_Node000003" class="edge">
<title>Node1&#45;&gt;Node3</title>
<g id="a_edge2_Node000001_Node000003"><a xlink:title=" ">
<path fill="none" stroke="orange" stroke-dasharray="5,2" d="M276.35,-62.62C278.93,-62.92 281.49,-63.21 284,-63.5 333.63,-69.13 389.68,-74.76 432.59,-78.92"/>
<polygon fill="orange" stroke="orange" points="276.66,-59.13 266.31,-61.42 275.83,-66.08 276.66,-59.13"/>
</a>
</g>
<text text-anchor="start" x="287.5" y="-98.5" font-family="Helvetica,sans-Serif" font-size="10.00" fill="grey">&lt; mlir::NonFloatComplex</text>
<text text-anchor="start" x="287.5" y="-83.5" font-family="Helvetica,sans-Serif" font-size="10.00" fill="grey">  &lt; T &gt; &gt;</text>
</g>
<!-- Node4 -->
<g id="Node000004" class="node">
<title>Node4</title>
<g id="a_Node000004"><a xlink:href="structmlir_1_1sparse__tensor_1_1detail_1_1is__complex_3_01std_1_1complex_3_01T_01_4_01_4.html" target="_top" xlink:title=" ">
<polygon fill="white" stroke="#666666" points="569,-41 438,-41 438,0 569,0 569,-41"/>
<text text-anchor="start" x="446" y="-29" font-family="Helvetica,sans-Serif" font-size="10.00">mlir::sparse_tensor</text>
<text text-anchor="start" x="446" y="-18" font-family="Helvetica,sans-Serif" font-size="10.00">::detail::is_complex</text>
<text text-anchor="middle" x="503.5" y="-7" font-family="Helvetica,sans-Serif" font-size="10.00">&lt; std::complex&lt; T &gt; &gt;</text>
</a>
</g>
</g>
<!-- Node1&#45;&gt;Node4 -->
<g id="edge3_Node000001_Node000004" class="edge">
<title>Node1&#45;&gt;Node4</title>
<g id="a_edge3_Node000001_Node000004"><a xlink:title=" ">
<path fill="none" stroke="orange" stroke-dasharray="5,2" d="M276.5,-44.17C326.73,-38.91 390.8,-32.2 437.89,-27.27"/>
<polygon fill="orange" stroke="orange" points="275.9,-40.72 266.32,-45.24 276.63,-47.68 275.9,-40.72"/>
</a>
</g>
<text text-anchor="start" x="292.5" y="-49" font-family="Helvetica,sans-Serif" font-size="10.00" fill="grey">&lt; std::complex&lt; T &gt; &gt;</text>
</g>
<!-- Node2 -->
<g id="Node000002" class="node">
<title>Node2</title>
<g id="a_Node000002"><a xlink:title=" ">
<polygon fill="white" stroke="#666666" points="89,-62 0,-62 0,-43 89,-43 89,-62"/>
<text text-anchor="middle" x="44.5" y="-50" font-family="Helvetica,sans-Serif" font-size="10.00">std::false_type</text>
</a>
</g>
</g>
<!-- Node2&#45;&gt;Node1 -->
<g id="edge1_Node000001_Node000002" class="edge">
<title>Node2&#45;&gt;Node1</title>
<g id="a_edge1_Node000001_Node000002"><a xlink:title=" ">
<path fill="none" stroke="#63b8ff" d="M99.43,-52.5C108.05,-52.5 117.07,-52.5 125.99,-52.5"/>
<polygon fill="#63b8ff" stroke="#63b8ff" points="99.14,-49 89.14,-52.5 99.14,-56 99.14,-49"/>
</a>
</g>
</g>
</g>
</svg>
