<?xml version="1.0" encoding="UTF-8" standalone="no"?>
<!DOCTYPE svg PUBLIC "-//W3C//DTD SVG 1.1//EN"
 "http://www.w3.org/Graphics/SVG/1.1/DTD/svg11.dtd">
<!-- Generated by graphviz version 2.43.0 (0)
 -->
<!-- Title: llvm::DenseMapInfo&lt; mlir::Value &gt; Pages: 1 -->
<svg width="536pt" height="146pt"
 viewBox="0.00 0.00 536.00 145.50" xmlns="http://www.w3.org/2000/svg" xmlns:xlink="http://www.w3.org/1999/xlink">
<g id="graph0" class="graph" transform="scale(1 1) rotate(0) translate(4 141.5)">
<title>llvm::DenseMapInfo&lt; mlir::Value &gt;</title>
<!-- Node1 -->
<g id="Node000001" class="node">
<title>Node1</title>
<g id="a_Node000001"><a xlink:title=" ">
<polygon fill="#999999" stroke="#666666" points="348,-89.5 233,-89.5 233,-59.5 348,-59.5 348,-89.5"/>
<text text-anchor="start" x="241" y="-77.5" font-family="Helvetica,sans-Serif" font-size="10.00">llvm::DenseMapInfo</text>
<text text-anchor="middle" x="290.5" y="-66.5" font-family="Helvetica,sans-Serif" font-size="10.00">&lt; mlir::Value &gt;</text>
</a>
</g>
</g>
<!-- Node3 -->
<g id="Node000003" class="node">
<title>Node3</title>
<g id="a_Node000003"><a xlink:href="structllvm_1_1DenseMapInfo_3_01mlir_1_1BlockArgument_01_4.html" target="_top" xlink:title=" ">
<polygon fill="white" stroke="#666666" points="526.5,-137.5 386.5,-137.5 386.5,-107.5 526.5,-107.5 526.5,-137.5"/>
<text text-anchor="start" x="394.5" y="-125.5" font-family="Helvetica,sans-Serif" font-size="10.00">llvm::DenseMapInfo</text>
<text text-anchor="middle" x="456.5" y="-114.5" font-family="Helvetica,sans-Serif" font-size="10.00">&lt; mlir::BlockArgument &gt;</text>
</a>
</g>
</g>
<!-- Node1&#45;&gt;Node3 -->
<g id="edge2_Node000001_Node000003" class="edge">
<title>Node1&#45;&gt;Node3</title>
<g id="a_edge2_Node000001_Node000003"><a xlink:title=" ">
<path fill="none" stroke="#63b8ff" d="M352.75,-92.43C369.7,-97.39 387.92,-102.72 404.24,-107.5"/>
<polygon fill="#63b8ff" stroke="#63b8ff" points="353.52,-89.01 342.94,-89.56 351.55,-95.72 353.52,-89.01"/>
</a>
</g>
</g>
<!-- Node4 -->
<g id="Node000004" class="node">
<title>Node4</title>
<g id="a_Node000004"><a xlink:href="structllvm_1_1DenseMapInfo_3_01mlir_1_1OpResult_01_4.html" target="_top" xlink:title=" ">
<polygon fill="white" stroke="#666666" points="514,-89.5 399,-89.5 399,-59.5 514,-59.5 514,-89.5"/>
<text text-anchor="start" x="407" y="-77.5" font-family="Helvetica,sans-Serif" font-size="10.00">llvm::DenseMapInfo</text>
<text text-anchor="middle" x="456.5" y="-66.5" font-family="Helvetica,sans-Serif" font-size="10.00">&lt; mlir::OpResult &gt;</text>
</a>
</g>
</g>
<!-- Node1&#45;&gt;Node4 -->
<g id="edge3_Node000001_Node000004" class="edge">
<title>Node1&#45;&gt;Node4</title>
<g id="a_edge3_Node000001_Node000004"><a xlink:title=" ">
<path fill="none" stroke="#63b8ff" d="M358.54,-74.5C371.96,-74.5 385.95,-74.5 398.98,-74.5"/>
<polygon fill="#63b8ff" stroke="#63b8ff" points="358.4,-71 348.4,-74.5 358.4,-78 358.4,-71"/>
</a>
</g>
</g>
<!-- Node5 -->
<g id="Node000005" class="node">
<title>Node5</title>
<g id="a_Node000005"><a xlink:href="structllvm_1_1DenseMapInfo_3_01mlir_1_1detail_1_1TypedValue_3_01T_01_4_01_4.html" target="_top" xlink:title=" ">
<polygon fill="white" stroke="#666666" points="528,-41 385,-41 385,0 528,0 528,-41"/>
<text text-anchor="start" x="393" y="-29" font-family="Helvetica,sans-Serif" font-size="10.00">llvm::DenseMapInfo</text>
<text text-anchor="start" x="393" y="-18" font-family="Helvetica,sans-Serif" font-size="10.00">&lt; mlir::detail::TypedValue</text>
<text text-anchor="middle" x="456.5" y="-7" font-family="Helvetica,sans-Serif" font-size="10.00">&lt; T &gt; &gt;</text>
</a>
</g>
</g>
<!-- Node1&#45;&gt;Node5 -->
<g id="edge4_Node000001_Node000005" class="edge">
<title>Node1&#45;&gt;Node5</title>
<g id="a_edge4_Node000001_Node000005"><a xlink:title=" ">
<path fill="none" stroke="#63b8ff" d="M346.77,-56.3C361.69,-51.39 377.93,-46.04 393.21,-41.01"/>
<polygon fill="#63b8ff" stroke="#63b8ff" points="345.59,-53.01 337.18,-59.46 347.78,-59.65 345.59,-53.01"/>
</a>
</g>
</g>
<!-- Node2 -->
<g id="Node000002" class="node">
<title>Node2</title>
<g id="a_Node000002"><a xlink:href="structllvm_1_1DenseMapInfo.html" target="_top" xlink:title=" ">
<polygon fill="white" stroke="#666666" points="115,-89.5 0,-89.5 0,-59.5 115,-59.5 115,-89.5"/>
<text text-anchor="start" x="8" y="-77.5" font-family="Helvetica,sans-Serif" font-size="10.00">llvm::DenseMapInfo</text>
<text text-anchor="middle" x="57.5" y="-66.5" font-family="Helvetica,sans-Serif" font-size="10.00">&lt; T, Enable &gt;</text>
</a>
</g>
</g>
<!-- Node2&#45;&gt;Node1 -->
<g id="edge1_Node000001_Node000002" class="edge">
<title>Node2&#45;&gt;Node1</title>
<g id="a_edge1_Node000001_Node000002"><a xlink:title=" ">
<path fill="none" stroke="orange" stroke-dasharray="5,2" d="M125.33,-74.5C159.36,-74.5 200.3,-74.5 232.77,-74.5"/>
<polygon fill="orange" stroke="orange" points="125.01,-71 115.01,-74.5 125.01,-78 125.01,-71"/>
</a>
</g>
<text text-anchor="start" x="136" y="-80" font-family="Helvetica,sans-Serif" font-size="10.00" fill="grey">&lt; mlir::Value &gt;</text>
</g>
</g>
</svg>
