<?xml version="1.0" encoding="UTF-8" standalone="no"?>
<!DOCTYPE svg PUBLIC "-//W3C//DTD SVG 1.1//EN"
 "http://www.w3.org/Graphics/SVG/1.1/DTD/svg11.dtd">
<!-- Generated by graphviz version 2.43.0 (0)
 -->
<!-- Title: mlir::StructuredGenerator&lt; StructuredOpInterface, IteratorTypeT &gt;::IteratorType Pages: 1 -->
<svg width="345pt" height="110pt"
 viewBox="0.00 0.00 345.00 110.00" xmlns="http://www.w3.org/2000/svg" xmlns:xlink="http://www.w3.org/1999/xlink">
<g id="graph0" class="graph" transform="scale(1 1) rotate(0) translate(4 106)">
<title>mlir::StructuredGenerator&lt; StructuredOpInterface, IteratorTypeT &gt;::IteratorType</title>
<!-- Node1 -->
<g id="node1" class="node">
<title>Node1</title>
<g id="a_node1"><a xlink:title=" ">
<polygon fill="#bfbfbf" stroke="black" points="0,-30.5 0,-71.5 160,-71.5 160,-30.5 0,-30.5"/>
<text text-anchor="start" x="8" y="-59.5" font-family="Helvetica,sans-Serif" font-size="10.00">mlir::StructuredGenerator</text>
<text text-anchor="start" x="8" y="-48.5" font-family="Helvetica,sans-Serif" font-size="10.00">&lt; StructuredOpInterface,</text>
<text text-anchor="middle" x="80" y="-37.5" font-family="Helvetica,sans-Serif" font-size="10.00"> IteratorTypeT &gt;::IteratorType</text>
</a>
</g>
</g>
<!-- Node2 -->
<g id="node2" class="node">
<title>Node2</title>
<g id="a_node2"><a xlink:href="structmlir_1_1StructuredGenerator_1_1Par.html" target="_top" xlink:title=" ">
<polygon fill="none" stroke="black" points="196,-60.5 196,-101.5 337,-101.5 337,-60.5 196,-60.5"/>
<text text-anchor="start" x="204" y="-89.5" font-family="Helvetica,sans-Serif" font-size="10.00">mlir::StructuredGenerator</text>
<text text-anchor="start" x="204" y="-78.5" font-family="Helvetica,sans-Serif" font-size="10.00">&lt; StructuredOpInterface,</text>
<text text-anchor="middle" x="266.5" y="-67.5" font-family="Helvetica,sans-Serif" font-size="10.00"> IteratorTypeT &gt;::Par</text>
</a>
</g>
</g>
<!-- Node1&#45;&gt;Node2 -->
<g id="edge1" class="edge">
<title>Node1&#45;&gt;Node2</title>
<path fill="none" stroke="midnightblue" d="M170.17,-65.5C178.82,-66.91 187.51,-68.32 195.93,-69.69"/>
<polygon fill="midnightblue" stroke="midnightblue" points="170.48,-62 160.05,-63.85 169.36,-68.91 170.48,-62"/>
</g>
<!-- Node3 -->
<g id="node3" class="node">
<title>Node3</title>
<g id="a_node3"><a xlink:href="structmlir_1_1StructuredGenerator_1_1Red.html" target="_top" xlink:title=" ">
<polygon fill="none" stroke="black" points="196,-0.5 196,-41.5 337,-41.5 337,-0.5 196,-0.5"/>
<text text-anchor="start" x="204" y="-29.5" font-family="Helvetica,sans-Serif" font-size="10.00">mlir::StructuredGenerator</text>
<text text-anchor="start" x="204" y="-18.5" font-family="Helvetica,sans-Serif" font-size="10.00">&lt; StructuredOpInterface,</text>
<text text-anchor="middle" x="266.5" y="-7.5" font-family="Helvetica,sans-Serif" font-size="10.00"> IteratorTypeT &gt;::Red</text>
</a>
</g>
</g>
<!-- Node1&#45;&gt;Node3 -->
<g id="edge2" class="edge">
<title>Node1&#45;&gt;Node3</title>
<path fill="none" stroke="midnightblue" d="M170.17,-36.5C178.82,-35.09 187.51,-33.68 195.93,-32.31"/>
<polygon fill="midnightblue" stroke="midnightblue" points="169.36,-33.09 160.05,-38.15 170.48,-40 169.36,-33.09"/>
</g>
</g>
</svg>
