<?xml version="1.0" encoding="UTF-8" standalone="no"?>
<!DOCTYPE svg PUBLIC "-//W3C//DTD SVG 1.1//EN"
 "http://www.w3.org/Graphics/SVG/1.1/DTD/svg11.dtd">
<!-- Generated by graphviz version 2.43.0 (0)
 -->
<!-- Title: ClampFOpConversion Pages: 1 -->
<svg width="1006pt" height="60pt"
 viewBox="0.00 0.00 1006.00 60.00" xmlns="http://www.w3.org/2000/svg" xmlns:xlink="http://www.w3.org/1999/xlink">
<g id="graph0" class="graph" transform="scale(1 1) rotate(0) translate(4 56)">
<title>ClampFOpConversion</title>
<!-- Node1 -->
<g id="Node000001" class="node">
<title>Node1</title>
<g id="a_Node000001"><a xlink:title=" ">
<polygon fill="#999999" stroke="#666666" points="998,-46.5 876,-46.5 876,-27.5 998,-27.5 998,-46.5"/>
<text text-anchor="middle" x="937" y="-34.5" font-family="Helvetica,sans-Serif" font-size="10.00">ClampFOpConversion</text>
</a>
</g>
</g>
<!-- Node2 -->
<g id="Node000002" class="node">
<title>Node2</title>
<g id="a_Node000002"><a xlink:href="classmlir_1_1ConvertOpToLLVMPattern.html" target="_top" xlink:title=" ">
<polygon fill="white" stroke="#666666" points="839,-52 675,-52 675,-22 839,-22 839,-52"/>
<text text-anchor="start" x="683" y="-40" font-family="Helvetica,sans-Serif" font-size="10.00">mlir::ConvertOpToLLVMPattern</text>
<text text-anchor="middle" x="757" y="-29" font-family="Helvetica,sans-Serif" font-size="10.00">&lt; math::ClampFOp &gt;</text>
</a>
</g>
</g>
<!-- Node2&#45;&gt;Node1 -->
<g id="edge1_Node000001_Node000002" class="edge">
<title>Node2&#45;&gt;Node1</title>
<g id="a_edge1_Node000001_Node000002"><a xlink:title=" ">
<path fill="none" stroke="#63b8ff" d="M849.37,-37C858.39,-37 867.38,-37 875.96,-37"/>
<polygon fill="#63b8ff" stroke="#63b8ff" points="849.19,-33.5 839.19,-37 849.19,-40.5 849.19,-33.5"/>
</a>
</g>
</g>
<!-- Node3 -->
<g id="Node000003" class="node">
<title>Node3</title>
<g id="a_Node000003"><a xlink:href="classmlir_1_1ConvertToLLVMPattern.html" target="_top" xlink:title="Base class for operation conversions targeting the LLVM IR dialect.">
<polygon fill="white" stroke="#666666" points="294,-45.5 143,-45.5 143,-26.5 294,-26.5 294,-45.5"/>
<text text-anchor="middle" x="218.5" y="-33.5" font-family="Helvetica,sans-Serif" font-size="10.00">mlir::ConvertToLLVMPattern</text>
</a>
</g>
</g>
<!-- Node3&#45;&gt;Node2 -->
<g id="edge2_Node000002_Node000003" class="edge">
<title>Node3&#45;&gt;Node2</title>
<g id="a_edge2_Node000002_Node000003"><a xlink:title=" ">
<path fill="none" stroke="#63b8ff" d="M304.3,-40.72C306.9,-40.82 309.47,-40.92 312,-41 465.25,-46.13 503.76,-49.41 657,-44 662.85,-43.79 668.9,-43.52 674.98,-43.2"/>
<polygon fill="#63b8ff" stroke="#63b8ff" points="304.34,-37.22 294.21,-40.3 304.05,-44.21 304.34,-37.22"/>
</a>
</g>
</g>
<!-- Node5 -->
<g id="Node000005" class="node">
<title>Node5</title>
<g id="a_Node000005"><a xlink:href="classmlir_1_1ConvertOpToLLVMPattern.html" target="_top" xlink:title="Utility class for operation conversions targeting the LLVM dialect that match exactly one source oper...">
<polygon fill="white" stroke="#666666" points="527,-30 331,-30 331,0 527,0 527,-30"/>
<text text-anchor="start" x="339" y="-18" font-family="Helvetica,sans-Serif" font-size="10.00">mlir::ConvertOpToLLVMPattern</text>
<text text-anchor="middle" x="429" y="-7" font-family="Helvetica,sans-Serif" font-size="10.00">&lt; SourceOp, FailOnUnsupportedFP &gt;</text>
</a>
</g>
</g>
<!-- Node3&#45;&gt;Node5 -->
<g id="edge5_Node000005_Node000003" class="edge">
<title>Node3&#45;&gt;Node5</title>
<g id="a_edge5_Node000005_Node000003"><a xlink:title=" ">
<path fill="none" stroke="#63b8ff" d="M304.36,-27.45C313.11,-26.57 322.06,-25.67 330.93,-24.78"/>
<polygon fill="#63b8ff" stroke="#63b8ff" points="303.78,-23.99 294.18,-28.48 304.48,-30.96 303.78,-23.99"/>
</a>
</g>
</g>
<!-- Node4 -->
<g id="Node000004" class="node">
<title>Node4</title>
<g id="a_Node000004"><a xlink:href="classConversionPattern.html" target="_top" xlink:title=" ">
<polygon fill="white" stroke="#666666" points="106,-45.5 0,-45.5 0,-26.5 106,-26.5 106,-45.5"/>
<text text-anchor="middle" x="53" y="-33.5" font-family="Helvetica,sans-Serif" font-size="10.00">ConversionPattern</text>
</a>
</g>
</g>
<!-- Node4&#45;&gt;Node3 -->
<g id="edge3_Node000003_Node000004" class="edge">
<title>Node4&#45;&gt;Node3</title>
<g id="a_edge3_Node000003_Node000004"><a xlink:title=" ">
<path fill="none" stroke="#63b8ff" d="M116.23,-36C124.94,-36 133.96,-36 142.87,-36"/>
<polygon fill="#63b8ff" stroke="#63b8ff" points="116.18,-32.5 106.18,-36 116.18,-39.5 116.18,-32.5"/>
</a>
</g>
</g>
<!-- Node5&#45;&gt;Node2 -->
<g id="edge4_Node000002_Node000005" class="edge">
<title>Node5&#45;&gt;Node2</title>
<g id="a_edge4_Node000002_Node000005"><a xlink:title=" ">
<path fill="none" stroke="orange" stroke-dasharray="5,2" d="M537.3,-19.62C575.15,-21.52 617.99,-24 657,-27 662.86,-27.45 668.9,-27.96 674.99,-28.5"/>
<polygon fill="orange" stroke="orange" points="537.44,-16.12 527.27,-19.12 537.09,-23.11 537.44,-16.12"/>
</a>
</g>
<text text-anchor="start" x="548" y="-32.5" font-family="Helvetica,sans-Serif" font-size="10.00" fill="grey">&lt; math::ClampFOp &gt;</text>
</g>
</g>
</svg>
