<?xml version="1.0" encoding="UTF-8" standalone="no"?>
<!DOCTYPE svg PUBLIC "-//W3C//DTD SVG 1.1//EN"
 "http://www.w3.org/Graphics/SVG/1.1/DTD/svg11.dtd">
<!-- Generated by graphviz version 2.43.0 (0)
 -->
<!-- Title: mlir::Sliceable&lt; Derived, ElementTy &gt;::has_maybe_downcast&lt; T, std::void_t&lt; decltype(&amp;T::maybeDownCast)&gt; &gt; Pages: 1 -->
<svg width="672pt" height="109pt"
 viewBox="0.00 0.00 672.00 109.47" xmlns="http://www.w3.org/2000/svg" xmlns:xlink="http://www.w3.org/1999/xlink">
<g id="graph0" class="graph" transform="scale(1 1) rotate(0) translate(4 105.47)">
<title>mlir::Sliceable&lt; Derived, ElementTy &gt;::has_maybe_downcast&lt; T, std::void_t&lt; decltype(&amp;T::maybeDownCast)&gt; &gt;</title>
<!-- Node1 -->
<g id="Node000001" class="node">
<title>Node1</title>
<g id="a_Node000001"><a xlink:title=" ">
<polygon fill="#999999" stroke="#666666" points="664,-83.5 456,-83.5 456,-31.5 664,-31.5 664,-83.5"/>
<text text-anchor="start" x="464" y="-71.5" font-family="Helvetica,sans-Serif" font-size="10.00">mlir::Sliceable&lt; Derived,</text>
<text text-anchor="start" x="464" y="-60.5" font-family="Helvetica,sans-Serif" font-size="10.00"> ElementTy &gt;::has_maybe</text>
<text text-anchor="start" x="464" y="-49.5" font-family="Helvetica,sans-Serif" font-size="10.00">_downcast&lt; T, std::void</text>
<text text-anchor="middle" x="560" y="-38.5" font-family="Helvetica,sans-Serif" font-size="10.00">_t&lt; decltype(&amp;T::maybeDownCast)&gt; &gt;</text>
</a>
</g>
</g>
<!-- Node2 -->
<g id="Node000002" class="node">
<title>Node2</title>
<g id="a_Node000002"><a xlink:title=" ">
<polygon fill="white" stroke="#666666" points="89,-91 0,-91 0,-72 89,-72 89,-91"/>
<text text-anchor="middle" x="44.5" y="-79" font-family="Helvetica,sans-Serif" font-size="10.00">std::false_type</text>
</a>
</g>
</g>
<!-- Node2&#45;&gt;Node1 -->
<g id="edge1_Node000001_Node000002" class="edge">
<title>Node2&#45;&gt;Node1</title>
<g id="a_edge1_Node000001_Node000002"><a xlink:title=" ">
<path fill="none" stroke="#63b8ff" d="M99.3,-88.7C175.22,-97.57 317.94,-109.52 438,-92.5 452.07,-90.51 466.8,-87.27 480.94,-83.55"/>
<polygon fill="#63b8ff" stroke="#63b8ff" points="99.38,-85.19 89.04,-87.47 98.55,-92.14 99.38,-85.19"/>
</a>
</g>
</g>
<!-- Node4 -->
<g id="Node000004" class="node">
<title>Node4</title>
<g id="a_Node000004"><a xlink:href="structmlir_1_1Sliceable_1_1has__maybe__downcast.html" target="_top" xlink:title="Trait to check if T provides a maybeDownCast method.">
<polygon fill="white" stroke="#666666" points="278,-78 126,-78 126,-37 278,-37 278,-78"/>
<text text-anchor="start" x="134" y="-66" font-family="Helvetica,sans-Serif" font-size="10.00">mlir::Sliceable&lt; Derived,</text>
<text text-anchor="start" x="134" y="-55" font-family="Helvetica,sans-Serif" font-size="10.00"> ElementTy &gt;::has_maybe</text>
<text text-anchor="middle" x="202" y="-44" font-family="Helvetica,sans-Serif" font-size="10.00">_downcast&lt; T, typename &gt;</text>
</a>
</g>
</g>
<!-- Node2&#45;&gt;Node4 -->
<g id="edge4_Node000004_Node000002" class="edge">
<title>Node2&#45;&gt;Node4</title>
<g id="a_edge4_Node000004_Node000002"><a xlink:title=" ">
<path fill="none" stroke="#63b8ff" d="M99.11,-73.23C107.73,-71.89 116.79,-70.5 125.8,-69.11"/>
<polygon fill="#63b8ff" stroke="#63b8ff" points="98.58,-69.77 89.23,-74.75 99.65,-76.68 98.58,-69.77"/>
</a>
</g>
</g>
<!-- Node3 -->
<g id="Node000003" class="node">
<title>Node3</title>
<g id="a_Node000003"><a xlink:title=" ">
<polygon fill="white" stroke="#666666" points="244,-19 160,-19 160,0 244,0 244,-19"/>
<text text-anchor="middle" x="202" y="-7" font-family="Helvetica,sans-Serif" font-size="10.00">std::true_type</text>
</a>
</g>
</g>
<!-- Node3&#45;&gt;Node1 -->
<g id="edge2_Node000001_Node000003" class="edge">
<title>Node3&#45;&gt;Node1</title>
<g id="a_edge2_Node000001_Node000003"><a xlink:title=" ">
<path fill="none" stroke="#63b8ff" d="M254.26,-16.41C306.77,-23.49 389.83,-34.69 455.98,-43.61"/>
<polygon fill="#63b8ff" stroke="#63b8ff" points="254.56,-12.92 244.19,-15.05 253.63,-19.86 254.56,-12.92"/>
</a>
</g>
</g>
<!-- Node4&#45;&gt;Node1 -->
<g id="edge3_Node000001_Node000004" class="edge">
<title>Node4&#45;&gt;Node1</title>
<g id="a_edge3_Node000001_Node000004"><a xlink:title=" ">
<path fill="none" stroke="orange" stroke-dasharray="5,2" d="M288.25,-57.5C338.54,-57.5 402.54,-57.5 455.68,-57.5"/>
<polygon fill="orange" stroke="orange" points="288.06,-54 278.06,-57.5 288.06,-61 288.06,-54"/>
</a>
</g>
<text text-anchor="start" x="299" y="-78.5" font-family="Helvetica,sans-Serif" font-size="10.00" fill="grey">&lt; T, std::void_t&lt; decltype</text>
<text text-anchor="start" x="299" y="-63.5" font-family="Helvetica,sans-Serif" font-size="10.00" fill="grey">  (&amp;T::maybeDownCast)&gt; &gt;</text>
</g>
</g>
</svg>
