<?xml version="1.0" encoding="UTF-8" standalone="no"?>
<!DOCTYPE svg PUBLIC "-//W3C//DTD SVG 1.1//EN"
 "http://www.w3.org/Graphics/SVG/1.1/DTD/svg11.dtd">
<!-- Generated by graphviz version 2.43.0 (0)
 -->
<!-- Title: mlir::OpTrait::detail::MultiResultTraitBase&lt; ConcreteType, TraitType &gt; Pages: 1 -->
<svg width="944pt" height="193pt"
 viewBox="0.00 0.00 944.00 193.00" xmlns="http://www.w3.org/2000/svg" xmlns:xlink="http://www.w3.org/1999/xlink">
<g id="graph0" class="graph" transform="scale(1 1) rotate(0) translate(4 189)">
<title>mlir::OpTrait::detail::MultiResultTraitBase&lt; ConcreteType, TraitType &gt;</title>
<!-- Node1 -->
<g id="node1" class="node">
<title>Node1</title>
<g id="a_node1"><a xlink:title="Utility trait base that provides accessors for derived traits that have multiple results.">
<polygon fill="#bfbfbf" stroke="black" points="192,-72 192,-113 347,-113 347,-72 192,-72"/>
<text text-anchor="start" x="200" y="-101" font-family="Helvetica,sans-Serif" font-size="10.00">mlir::OpTrait::detail</text>
<text text-anchor="start" x="200" y="-90" font-family="Helvetica,sans-Serif" font-size="10.00">::MultiResultTraitBase</text>
<text text-anchor="middle" x="269.5" y="-79" font-family="Helvetica,sans-Serif" font-size="10.00">&lt; ConcreteType, TraitType &gt;</text>
</a>
</g>
</g>
<!-- Node3 -->
<g id="node3" class="node">
<title>Node3</title>
<g id="a_node3"><a xlink:href="structmlir_1_1OpTrait_1_1detail_1_1MultiResultTraitBase.html" target="_top" xlink:title=" ">
<polygon fill="none" stroke="black" points="553,-132.5 553,-184.5 733,-184.5 733,-132.5 553,-132.5"/>
<text text-anchor="start" x="561" y="-172.5" font-family="Helvetica,sans-Serif" font-size="10.00">mlir::OpTrait::detail</text>
<text text-anchor="start" x="561" y="-161.5" font-family="Helvetica,sans-Serif" font-size="10.00">::MultiResultTraitBase</text>
<text text-anchor="start" x="561" y="-150.5" font-family="Helvetica,sans-Serif" font-size="10.00">&lt; ConcreteType, AtLeastNResults</text>
<text text-anchor="middle" x="643" y="-139.5" font-family="Helvetica,sans-Serif" font-size="10.00">&lt; N &gt;::Impl &gt;</text>
</a>
</g>
</g>
<!-- Node1&#45;&gt;Node3 -->
<g id="edge2" class="edge">
<title>Node1&#45;&gt;Node3</title>
<path fill="none" stroke="orange" stroke-dasharray="5,2" d="M351.48,-115.49C356.04,-116.56 360.57,-117.57 365,-118.5 427.31,-131.52 498.38,-141.69 552.93,-148.51"/>
<polygon fill="orange" stroke="orange" points="352.02,-112.02 341.48,-113.05 350.36,-118.82 352.02,-112.02"/>
<text text-anchor="start" x="365" y="-158.5" font-family="Helvetica,sans-Serif" font-size="10.00"> &lt; ConcreteType, AtLeastNResults</text>
<text text-anchor="middle" x="448.5" y="-147.5" font-family="Helvetica,sans-Serif" font-size="10.00">&lt; N &gt;::Impl &gt;</text>
</g>
<!-- Node5 -->
<g id="node5" class="node">
<title>Node5</title>
<g id="a_node5"><a xlink:href="structmlir_1_1OpTrait_1_1detail_1_1MultiResultTraitBase.html" target="_top" xlink:title=" ">
<polygon fill="none" stroke="black" points="550,-72 550,-113 736,-113 736,-72 550,-72"/>
<text text-anchor="start" x="558" y="-101" font-family="Helvetica,sans-Serif" font-size="10.00">mlir::OpTrait::detail</text>
<text text-anchor="start" x="558" y="-90" font-family="Helvetica,sans-Serif" font-size="10.00">::MultiResultTraitBase</text>
<text text-anchor="middle" x="643" y="-79" font-family="Helvetica,sans-Serif" font-size="10.00">&lt; ConcreteType, VariadicResults &gt;</text>
</a>
</g>
</g>
<!-- Node1&#45;&gt;Node5 -->
<g id="edge4" class="edge">
<title>Node1&#45;&gt;Node5</title>
<path fill="none" stroke="orange" stroke-dasharray="5,2" d="M357.23,-92.5C415.03,-92.5 490.91,-92.5 549.8,-92.5"/>
<polygon fill="orange" stroke="orange" points="357.02,-89 347.02,-92.5 357.02,-96 357.02,-89"/>
<text text-anchor="start" x="385.5" y="-106.5" font-family="Helvetica,sans-Serif" font-size="10.00"> &lt; ConcreteType, Variadic</text>
<text text-anchor="middle" x="448.5" y="-95.5" font-family="Helvetica,sans-Serif" font-size="10.00">Results &gt;</text>
</g>
<!-- Node7 -->
<g id="node7" class="node">
<title>Node7</title>
<g id="a_node7"><a xlink:href="structmlir_1_1OpTrait_1_1detail_1_1MultiResultTraitBase.html" target="_top" xlink:title=" ">
<polygon fill="none" stroke="black" points="571.5,-0.5 571.5,-52.5 714.5,-52.5 714.5,-0.5 571.5,-0.5"/>
<text text-anchor="start" x="579.5" y="-40.5" font-family="Helvetica,sans-Serif" font-size="10.00">mlir::OpTrait::detail</text>
<text text-anchor="start" x="579.5" y="-29.5" font-family="Helvetica,sans-Serif" font-size="10.00">::MultiResultTraitBase</text>
<text text-anchor="start" x="579.5" y="-18.5" font-family="Helvetica,sans-Serif" font-size="10.00">&lt; ConcreteType, NResults</text>
<text text-anchor="middle" x="643" y="-7.5" font-family="Helvetica,sans-Serif" font-size="10.00">&lt; N &gt;::Impl &gt;</text>
</a>
</g>
</g>
<!-- Node1&#45;&gt;Node7 -->
<g id="edge6" class="edge">
<title>Node1&#45;&gt;Node7</title>
<path fill="none" stroke="orange" stroke-dasharray="5,2" d="M351.48,-69.51C356.04,-68.44 360.57,-67.43 365,-66.5 434.56,-51.97 515.05,-40.99 571.27,-34.24"/>
<polygon fill="orange" stroke="orange" points="350.36,-66.18 341.48,-71.95 352.02,-72.98 350.36,-66.18"/>
<text text-anchor="start" x="383.5" y="-80.5" font-family="Helvetica,sans-Serif" font-size="10.00"> &lt; ConcreteType, NResults</text>
<text text-anchor="middle" x="448.5" y="-69.5" font-family="Helvetica,sans-Serif" font-size="10.00">&lt; N &gt;::Impl &gt;</text>
</g>
<!-- Node2 -->
<g id="node2" class="node">
<title>Node2</title>
<g id="a_node2"><a xlink:href="classmlir_1_1OpTrait_1_1TraitBase.html" target="_top" xlink:title="Helper class for implementing traits.">
<polygon fill="none" stroke="black" points="0,-77.5 0,-107.5 155,-107.5 155,-77.5 0,-77.5"/>
<text text-anchor="start" x="8" y="-95.5" font-family="Helvetica,sans-Serif" font-size="10.00">mlir::OpTrait::TraitBase</text>
<text text-anchor="middle" x="77.5" y="-84.5" font-family="Helvetica,sans-Serif" font-size="10.00">&lt; ConcreteType, TraitType &gt;</text>
</a>
</g>
</g>
<!-- Node2&#45;&gt;Node1 -->
<g id="edge1" class="edge">
<title>Node2&#45;&gt;Node1</title>
<path fill="none" stroke="midnightblue" d="M165.48,-92.5C174.26,-92.5 183.13,-92.5 191.79,-92.5"/>
<polygon fill="midnightblue" stroke="midnightblue" points="165.23,-89 155.23,-92.5 165.23,-96 165.23,-89"/>
</g>
<!-- Node4 -->
<g id="node4" class="node">
<title>Node4</title>
<g id="a_node4"><a xlink:href="classmlir_1_1OpTrait_1_1AtLeastNResults_1_1Impl.html" target="_top" xlink:title=" ">
<polygon fill="none" stroke="black" points="773,-143.5 773,-173.5 936,-173.5 936,-143.5 773,-143.5"/>
<text text-anchor="start" x="781" y="-161.5" font-family="Helvetica,sans-Serif" font-size="10.00">mlir::OpTrait::AtLeastNResults</text>
<text text-anchor="middle" x="854.5" y="-150.5" font-family="Helvetica,sans-Serif" font-size="10.00">&lt; N &gt;::Impl&lt; ConcreteType &gt;</text>
</a>
</g>
</g>
<!-- Node3&#45;&gt;Node4 -->
<g id="edge3" class="edge">
<title>Node3&#45;&gt;Node4</title>
<path fill="none" stroke="midnightblue" d="M743.37,-158.5C753.21,-158.5 763.11,-158.5 772.73,-158.5"/>
<polygon fill="midnightblue" stroke="midnightblue" points="743.15,-155 733.15,-158.5 743.15,-162 743.15,-155"/>
</g>
<!-- Node6 -->
<g id="node6" class="node">
<title>Node6</title>
<g id="a_node6"><a xlink:href="classmlir_1_1OpTrait_1_1VariadicResults.html" target="_top" xlink:title="This class provides the API for ops which have an unknown number of results.">
<polygon fill="none" stroke="black" points="775.5,-77.5 775.5,-107.5 933.5,-107.5 933.5,-77.5 775.5,-77.5"/>
<text text-anchor="start" x="783.5" y="-95.5" font-family="Helvetica,sans-Serif" font-size="10.00">mlir::OpTrait::VariadicResults</text>
<text text-anchor="middle" x="854.5" y="-84.5" font-family="Helvetica,sans-Serif" font-size="10.00">&lt; ConcreteType &gt;</text>
</a>
</g>
</g>
<!-- Node5&#45;&gt;Node6 -->
<g id="edge5" class="edge">
<title>Node5&#45;&gt;Node6</title>
<path fill="none" stroke="midnightblue" d="M746.34,-92.5C756.09,-92.5 765.88,-92.5 775.35,-92.5"/>
<polygon fill="midnightblue" stroke="midnightblue" points="746.19,-89 736.19,-92.5 746.19,-96 746.19,-89"/>
</g>
<!-- Node8 -->
<g id="node8" class="node">
<title>Node8</title>
<g id="a_node8"><a xlink:href="classmlir_1_1OpTrait_1_1NResults_1_1Impl.html" target="_top" xlink:title=" ">
<polygon fill="none" stroke="black" points="773,-11.5 773,-41.5 936,-41.5 936,-11.5 773,-11.5"/>
<text text-anchor="start" x="781" y="-29.5" font-family="Helvetica,sans-Serif" font-size="10.00">mlir::OpTrait::NResults</text>
<text text-anchor="middle" x="854.5" y="-18.5" font-family="Helvetica,sans-Serif" font-size="10.00">&lt; N &gt;::Impl&lt; ConcreteType &gt;</text>
</a>
</g>
</g>
<!-- Node7&#45;&gt;Node8 -->
<g id="edge7" class="edge">
<title>Node7&#45;&gt;Node8</title>
<path fill="none" stroke="midnightblue" d="M724.83,-26.5C740.53,-26.5 756.99,-26.5 772.7,-26.5"/>
<polygon fill="midnightblue" stroke="midnightblue" points="724.64,-23 714.64,-26.5 724.64,-30 724.64,-23"/>
</g>
</g>
</svg>
