<?xml version="1.0" encoding="UTF-8" standalone="no"?>
<!DOCTYPE svg PUBLIC "-//W3C//DTD SVG 1.1//EN"
 "http://www.w3.org/Graphics/SVG/1.1/DTD/svg11.dtd">
<!-- Generated by graphviz version 2.43.0 (0)
 -->
<!-- Title: llvm::DenseMapInfo&lt; mlir::OpResult &gt; Pages: 1 -->
<svg width="282pt" height="188pt"
 viewBox="0.00 0.00 282.00 188.00" xmlns="http://www.w3.org/2000/svg" xmlns:xlink="http://www.w3.org/1999/xlink">
<g id="graph0" class="graph" transform="scale(1 1) rotate(0) translate(4 184)">
<title>llvm::DenseMapInfo&lt; mlir::OpResult &gt;</title>
<!-- Node1 -->
<g id="Node000001" class="node">
<title>Node1</title>
<g id="a_Node000001"><a xlink:title=" ">
<polygon fill="#999999" stroke="#666666" points="149,-30 34,-30 34,0 149,0 149,-30"/>
<text text-anchor="start" x="42" y="-18" font-family="Helvetica,sans-Serif" font-size="10.00">llvm::DenseMapInfo</text>
<text text-anchor="middle" x="91.5" y="-7" font-family="Helvetica,sans-Serif" font-size="10.00">&lt; mlir::OpResult &gt;</text>
</a>
</g>
</g>
<!-- Node2 -->
<g id="Node000002" class="node">
<title>Node2</title>
<g id="a_Node000002"><a xlink:href="structllvm_1_1DenseMapInfo_3_01mlir_1_1Value_01_4.html" target="_top" xlink:title=" ">
<polygon fill="white" stroke="#666666" points="274,-97 159,-97 159,-67 274,-67 274,-97"/>
<text text-anchor="start" x="167" y="-85" font-family="Helvetica,sans-Serif" font-size="10.00">llvm::DenseMapInfo</text>
<text text-anchor="middle" x="216.5" y="-74" font-family="Helvetica,sans-Serif" font-size="10.00">&lt; mlir::Value &gt;</text>
</a>
</g>
</g>
<!-- Node2&#45;&gt;Node1 -->
<g id="edge1_Node000001_Node000002" class="edge">
<title>Node2&#45;&gt;Node1</title>
<g id="a_edge1_Node000001_Node000002"><a xlink:title=" ">
<path fill="none" stroke="#63b8ff" d="M180.37,-62.21C160.66,-51.96 136.66,-39.48 118.57,-30.08"/>
<polygon fill="#63b8ff" stroke="#63b8ff" points="178.89,-65.39 189.38,-66.9 182.12,-59.18 178.89,-65.39"/>
</a>
</g>
</g>
<!-- Node3 -->
<g id="Node000003" class="node">
<title>Node3</title>
<g id="a_Node000003"><a xlink:href="structllvm_1_1DenseMapInfo.html" target="_top" xlink:title=" ">
<polygon fill="white" stroke="#666666" points="115,-180 0,-180 0,-150 115,-150 115,-180"/>
<text text-anchor="start" x="8" y="-168" font-family="Helvetica,sans-Serif" font-size="10.00">llvm::DenseMapInfo</text>
<text text-anchor="middle" x="57.5" y="-157" font-family="Helvetica,sans-Serif" font-size="10.00">&lt; T, Enable &gt;</text>
</a>
</g>
</g>
<!-- Node3&#45;&gt;Node1 -->
<g id="edge3_Node000001_Node000003" class="edge">
<title>Node3&#45;&gt;Node1</title>
<g id="a_edge3_Node000001_Node000003"><a xlink:title=" ">
<path fill="none" stroke="orange" stroke-dasharray="5,2" d="M50.95,-139.86C46.68,-119.8 43.28,-90.79 51.5,-67 56.35,-52.96 66.83,-39.84 75.85,-30.42"/>
<polygon fill="orange" stroke="orange" points="47.57,-140.79 53.27,-149.73 54.38,-139.19 47.57,-140.79"/>
</a>
</g>
<text text-anchor="start" x="55" y="-79" font-family="Helvetica,sans-Serif" font-size="10.00" fill="grey">&lt; mlir::OpResult &gt;</text>
</g>
<!-- Node3&#45;&gt;Node2 -->
<g id="edge2_Node000002_Node000003" class="edge">
<title>Node3&#45;&gt;Node2</title>
<g id="a_edge2_Node000002_Node000003"><a xlink:title=" ">
<path fill="none" stroke="orange" stroke-dasharray="5,2" d="M94.16,-145.33C123.02,-130.62 162.62,-110.45 188.86,-97.08"/>
<polygon fill="orange" stroke="orange" points="92.52,-142.23 85.2,-149.89 95.69,-148.47 92.52,-142.23"/>
</a>
</g>
<text text-anchor="start" x="153.5" y="-120.5" font-family="Helvetica,sans-Serif" font-size="10.00" fill="grey">&lt; mlir::Value &gt;</text>
</g>
</g>
</svg>
