<?xml version="1.0" encoding="UTF-8" standalone="no"?>
<!DOCTYPE svg PUBLIC "-//W3C//DTD SVG 1.1//EN"
 "http://www.w3.org/Graphics/SVG/1.1/DTD/svg11.dtd">
<!-- Generated by graphviz version 2.43.0 (0)
 -->
<!-- Title: mlir::detail::AffineConstantExprStorage Pages: 1 -->
<svg width="156pt" height="170pt"
 viewBox="0.00 0.00 156.00 170.00" xmlns="http://www.w3.org/2000/svg" xmlns:xlink="http://www.w3.org/1999/xlink">
<g id="graph0" class="graph" transform="scale(1 1) rotate(0) translate(4 166)">
<title>mlir::detail::AffineConstantExprStorage</title>
<!-- Node1 -->
<g id="Node000001" class="node">
<title>Node1</title>
<g id="a_Node000001"><a xlink:title="An integer constant appearing in affine expression.">
<polygon fill="#999999" stroke="#666666" points="148,-30 0,-30 0,0 148,0 148,-30"/>
<text text-anchor="start" x="8" y="-18" font-family="Helvetica,sans-Serif" font-size="10.00">mlir::detail::AffineConstant</text>
<text text-anchor="middle" x="74" y="-7" font-family="Helvetica,sans-Serif" font-size="10.00">ExprStorage</text>
</a>
</g>
</g>
<!-- Node2 -->
<g id="Node000002" class="node">
<title>Node2</title>
<g id="a_Node000002"><a xlink:href="structmlir_1_1detail_1_1AffineExprStorage.html" target="_top" xlink:title="Base storage class appearing in an affine expression.">
<polygon fill="white" stroke="#666666" points="137,-96 11,-96 11,-66 137,-66 137,-96"/>
<text text-anchor="start" x="19" y="-84" font-family="Helvetica,sans-Serif" font-size="10.00">mlir::detail::AffineExpr</text>
<text text-anchor="middle" x="74" y="-73" font-family="Helvetica,sans-Serif" font-size="10.00">Storage</text>
</a>
</g>
</g>
<!-- Node2&#45;&gt;Node1 -->
<g id="edge1_Node000001_Node000002" class="edge">
<title>Node2&#45;&gt;Node1</title>
<g id="a_edge1_Node000001_Node000002"><a xlink:title=" ">
<path fill="none" stroke="#63b8ff" d="M74,-55.54C74,-46.96 74,-37.61 74,-30.16"/>
<polygon fill="#63b8ff" stroke="#63b8ff" points="70.5,-55.8 74,-65.8 77.5,-55.8 70.5,-55.8"/>
</a>
</g>
</g>
<!-- Node3 -->
<g id="Node000003" class="node">
<title>Node3</title>
<g id="a_Node000003"><a xlink:href="classmlir_1_1StorageUniquer_1_1BaseStorage.html" target="_top" xlink:title="This class acts as the base storage that all storage classes must derived from.">
<polygon fill="white" stroke="#666666" points="133,-162 15,-162 15,-132 133,-132 133,-162"/>
<text text-anchor="start" x="23" y="-150" font-family="Helvetica,sans-Serif" font-size="10.00">mlir::StorageUniquer</text>
<text text-anchor="middle" x="74" y="-139" font-family="Helvetica,sans-Serif" font-size="10.00">::BaseStorage</text>
</a>
</g>
</g>
<!-- Node3&#45;&gt;Node2 -->
<g id="edge2_Node000002_Node000003" class="edge">
<title>Node3&#45;&gt;Node2</title>
<g id="a_edge2_Node000002_Node000003"><a xlink:title=" ">
<path fill="none" stroke="#63b8ff" d="M74,-121.54C74,-112.96 74,-103.61 74,-96.16"/>
<polygon fill="#63b8ff" stroke="#63b8ff" points="70.5,-121.8 74,-131.8 77.5,-121.8 70.5,-121.8"/>
</a>
</g>
</g>
</g>
</svg>
