<?xml version="1.0" encoding="UTF-8" standalone="no"?>
<!DOCTYPE svg PUBLIC "-//W3C//DTD SVG 1.1//EN"
 "http://www.w3.org/Graphics/SVG/1.1/DTD/svg11.dtd">
<!-- Generated by graphviz version 2.43.0 (0)
 -->
<!-- Title: mlir::xegpu::uArch::LoadGatherInstruction Pages: 1 -->
<svg width="787pt" height="74pt"
 viewBox="0.00 0.00 787.00 74.00" xmlns="http://www.w3.org/2000/svg" xmlns:xlink="http://www.w3.org/1999/xlink">
<g id="graph0" class="graph" transform="scale(1 1) rotate(0) translate(4 70)">
<title>mlir::xegpu::uArch::LoadGatherInstruction</title>
<!-- Node1 -->
<g id="Node000001" class="node">
<title>Node1</title>
<g id="a_Node000001"><a xlink:title=" ">
<polygon fill="#999999" stroke="#666666" points="779,-60.5 648,-60.5 648,-30.5 779,-30.5 779,-60.5"/>
<text text-anchor="start" x="656" y="-48.5" font-family="Helvetica,sans-Serif" font-size="10.00">mlir::xegpu::uArch</text>
<text text-anchor="middle" x="713.5" y="-37.5" font-family="Helvetica,sans-Serif" font-size="10.00">::LoadGatherInstruction</text>
</a>
</g>
</g>
<!-- Node2 -->
<g id="Node000002" class="node">
<title>Node2</title>
<g id="a_Node000002"><a xlink:href="structmlir_1_1xegpu_1_1uArch_1_1ScatterIoInstructionInterface.html" target="_top" xlink:title=" ">
<polygon fill="white" stroke="#666666" points="611,-66 436,-66 436,-25 611,-25 611,-66"/>
<text text-anchor="start" x="444" y="-54" font-family="Helvetica,sans-Serif" font-size="10.00">mlir::xegpu::uArch</text>
<text text-anchor="start" x="444" y="-43" font-family="Helvetica,sans-Serif" font-size="10.00">::ScatterIoInstructionInterface</text>
<text text-anchor="middle" x="523.5" y="-32" font-family="Helvetica,sans-Serif" font-size="10.00">&lt; InstructionKind::LoadGather &gt;</text>
</a>
</g>
</g>
<!-- Node2&#45;&gt;Node1 -->
<g id="edge1_Node000001_Node000002" class="edge">
<title>Node2&#45;&gt;Node1</title>
<g id="a_edge1_Node000001_Node000002"><a xlink:title=" ">
<path fill="none" stroke="#63b8ff" d="M621.21,-45.5C630.2,-45.5 639.15,-45.5 647.74,-45.5"/>
<polygon fill="#63b8ff" stroke="#63b8ff" points="621.07,-42 611.07,-45.5 621.07,-49 621.07,-42"/>
</a>
</g>
</g>
<!-- Node3 -->
<g id="Node000003" class="node">
<title>Node3</title>
<g id="a_Node000003"><a xlink:href="structmlir_1_1xegpu_1_1uArch_1_1Instruction.html" target="_top" xlink:title=" ">
<polygon fill="white" stroke="#666666" points="105,-59.5 0,-59.5 0,-29.5 105,-29.5 105,-59.5"/>
<text text-anchor="start" x="8" y="-47.5" font-family="Helvetica,sans-Serif" font-size="10.00">mlir::xegpu::uArch</text>
<text text-anchor="middle" x="52.5" y="-36.5" font-family="Helvetica,sans-Serif" font-size="10.00">::Instruction</text>
</a>
</g>
</g>
<!-- Node3&#45;&gt;Node2 -->
<g id="edge2_Node000002_Node000003" class="edge">
<title>Node3&#45;&gt;Node2</title>
<g id="a_edge2_Node000002_Node000003"><a xlink:title=" ">
<path fill="none" stroke="#63b8ff" d="M115.46,-49.3C188,-54.25 311.77,-60.57 418,-55.5 423.83,-55.22 429.83,-54.86 435.87,-54.43"/>
<polygon fill="#63b8ff" stroke="#63b8ff" points="115.35,-45.79 105.13,-48.59 114.86,-52.77 115.35,-45.79"/>
</a>
</g>
</g>
<!-- Node4 -->
<g id="Node000004" class="node">
<title>Node4</title>
<g id="a_Node000004"><a xlink:href="structmlir_1_1xegpu_1_1uArch_1_1ScatterIoInstructionInterface.html" target="_top" xlink:title=" ">
<polygon fill="white" stroke="#666666" points="303,-41 142,-41 142,0 303,0 303,-41"/>
<text text-anchor="start" x="150" y="-29" font-family="Helvetica,sans-Serif" font-size="10.00">mlir::xegpu::uArch</text>
<text text-anchor="start" x="150" y="-18" font-family="Helvetica,sans-Serif" font-size="10.00">::ScatterIoInstructionInterface</text>
<text text-anchor="middle" x="222.5" y="-7" font-family="Helvetica,sans-Serif" font-size="10.00">&lt; Kind &gt;</text>
</a>
</g>
</g>
<!-- Node3&#45;&gt;Node4 -->
<g id="edge4_Node000004_Node000003" class="edge">
<title>Node3&#45;&gt;Node4</title>
<g id="a_edge4_Node000004_Node000003"><a xlink:title=" ">
<path fill="none" stroke="#63b8ff" d="M115.24,-35.68C123.88,-34.45 132.87,-33.16 141.78,-31.89"/>
<polygon fill="#63b8ff" stroke="#63b8ff" points="114.68,-32.22 105.28,-37.1 115.67,-39.15 114.68,-32.22"/>
</a>
</g>
</g>
<!-- Node4&#45;&gt;Node2 -->
<g id="edge3_Node000002_Node000004" class="edge">
<title>Node4&#45;&gt;Node2</title>
<g id="a_edge3_Node000002_Node000004"><a xlink:title=" ">
<path fill="none" stroke="orange" stroke-dasharray="5,2" d="M313.3,-18.29C346.31,-18.43 383.93,-19.69 418,-23.5 423.8,-24.15 429.76,-24.97 435.75,-25.92"/>
<polygon fill="orange" stroke="orange" points="313.21,-14.79 303.21,-18.29 313.21,-21.79 313.21,-14.79"/>
</a>
</g>
<text text-anchor="start" x="324.5" y="-44.5" font-family="Helvetica,sans-Serif" font-size="10.00" fill="grey">&lt; InstructionKind::</text>
<text text-anchor="start" x="324.5" y="-29.5" font-family="Helvetica,sans-Serif" font-size="10.00" fill="grey">  LoadGather &gt;</text>
</g>
</g>
</svg>
