<?xml version="1.0" encoding="UTF-8" standalone="no"?>
<!DOCTYPE svg PUBLIC "-//W3C//DTD SVG 1.1//EN"
 "http://www.w3.org/Graphics/SVG/1.1/DTD/svg11.dtd">
<!-- Generated by graphviz version 2.43.0 (0)
 -->
<!-- Title: mlir::quant::detail::QuantizedTypeStorage Pages: 1 -->
<svg width="650pt" height="253pt"
 viewBox="0.00 0.00 650.00 253.00" xmlns="http://www.w3.org/2000/svg" xmlns:xlink="http://www.w3.org/1999/xlink">
<g id="graph0" class="graph" transform="scale(1 1) rotate(0) translate(4 249)">
<title>mlir::quant::detail::QuantizedTypeStorage</title>
<!-- Node1 -->
<g id="Node000001" class="node">
<title>Node1</title>
<g id="a_Node000001"><a xlink:title=" ">
<polygon fill="#999999" stroke="#666666" points="424,-143 292,-143 292,-113 424,-113 424,-143"/>
<text text-anchor="start" x="300" y="-131" font-family="Helvetica,sans-Serif" font-size="10.00">mlir::quant::detail</text>
<text text-anchor="middle" x="358" y="-120" font-family="Helvetica,sans-Serif" font-size="10.00">::QuantizedTypeStorage</text>
</a>
</g>
</g>
<!-- Node4 -->
<g id="Node000004" class="node">
<title>Node4</title>
<g id="a_Node000004"><a xlink:href="structmlir_1_1quant_1_1detail_1_1AnyQuantizedTypeStorage.html" target="_top" xlink:title=" ">
<polygon fill="white" stroke="#666666" points="626.5,-245 475.5,-245 475.5,-215 626.5,-215 626.5,-245"/>
<text text-anchor="start" x="483.5" y="-233" font-family="Helvetica,sans-Serif" font-size="10.00">mlir::quant::detail</text>
<text text-anchor="middle" x="551" y="-222" font-family="Helvetica,sans-Serif" font-size="10.00">::AnyQuantizedTypeStorage</text>
</a>
</g>
</g>
<!-- Node1&#45;&gt;Node4 -->
<g id="edge3_Node000001_Node000004" class="edge">
<title>Node1&#45;&gt;Node4</title>
<g id="a_edge3_Node000001_Node000004"><a xlink:title=" ">
<path fill="none" stroke="#63b8ff" d="M381.86,-149.99C401.23,-167.5 430.5,-191.42 460,-206 466.81,-209.37 474.16,-212.31 481.61,-214.86"/>
<polygon fill="#63b8ff" stroke="#63b8ff" points="384.16,-147.35 374.44,-143.15 379.42,-152.5 384.16,-147.35"/>
</a>
</g>
</g>
<!-- Node5 -->
<g id="Node000005" class="node">
<title>Node5</title>
<g id="a_Node000005"><a xlink:href="structmlir_1_1quant_1_1detail_1_1CalibratedQuantizedTypeStorage.html" target="_top" xlink:title=" ">
<polygon fill="white" stroke="#666666" points="642,-197 460,-197 460,-167 642,-167 642,-197"/>
<text text-anchor="start" x="468" y="-185" font-family="Helvetica,sans-Serif" font-size="10.00">mlir::quant::detail</text>
<text text-anchor="middle" x="551" y="-174" font-family="Helvetica,sans-Serif" font-size="10.00">::CalibratedQuantizedTypeStorage</text>
</a>
</g>
</g>
<!-- Node1&#45;&gt;Node5 -->
<g id="edge4_Node000001_Node000005" class="edge">
<title>Node1&#45;&gt;Node5</title>
<g id="a_edge4_Node000001_Node000005"><a xlink:title=" ">
<path fill="none" stroke="#63b8ff" d="M418.28,-145.91C431.96,-149.96 446.47,-154.19 460,-158 470.43,-160.94 481.56,-163.98 492.32,-166.88"/>
<polygon fill="#63b8ff" stroke="#63b8ff" points="419.08,-142.5 408.49,-143 417.08,-149.21 419.08,-142.5"/>
</a>
</g>
</g>
<!-- Node6 -->
<g id="Node000006" class="node">
<title>Node6</title>
<g id="a_Node000006"><a xlink:href="structmlir_1_1quant_1_1detail_1_1UniformQuantizedPerAxisTypeStorage.html" target="_top" xlink:title=" ">
<polygon fill="white" stroke="#666666" points="636.5,-148.5 465.5,-148.5 465.5,-107.5 636.5,-107.5 636.5,-148.5"/>
<text text-anchor="start" x="473.5" y="-136.5" font-family="Helvetica,sans-Serif" font-size="10.00">mlir::quant::detail</text>
<text text-anchor="start" x="473.5" y="-125.5" font-family="Helvetica,sans-Serif" font-size="10.00">::UniformQuantizedPerAxisType</text>
<text text-anchor="middle" x="551" y="-114.5" font-family="Helvetica,sans-Serif" font-size="10.00">Storage</text>
</a>
</g>
</g>
<!-- Node1&#45;&gt;Node6 -->
<g id="edge5_Node000001_Node000006" class="edge">
<title>Node1&#45;&gt;Node6</title>
<g id="a_edge5_Node000001_Node000006"><a xlink:title=" ">
<path fill="none" stroke="#63b8ff" d="M434.23,-128C444.38,-128 454.86,-128 465.17,-128"/>
<polygon fill="#63b8ff" stroke="#63b8ff" points="434.2,-124.5 424.2,-128 434.2,-131.5 434.2,-124.5"/>
</a>
</g>
</g>
<!-- Node7 -->
<g id="Node000007" class="node">
<title>Node7</title>
<g id="a_Node000007"><a xlink:href="structmlir_1_1quant_1_1detail_1_1UniformQuantizedSubChannelTypeStorage.html" target="_top" xlink:title=" ">
<polygon fill="white" stroke="#666666" points="636,-89.5 466,-89.5 466,-48.5 636,-48.5 636,-89.5"/>
<text text-anchor="start" x="474" y="-77.5" font-family="Helvetica,sans-Serif" font-size="10.00">mlir::quant::detail</text>
<text text-anchor="start" x="474" y="-66.5" font-family="Helvetica,sans-Serif" font-size="10.00">::UniformQuantizedSubChannel</text>
<text text-anchor="middle" x="551" y="-55.5" font-family="Helvetica,sans-Serif" font-size="10.00">TypeStorage</text>
</a>
</g>
</g>
<!-- Node1&#45;&gt;Node7 -->
<g id="edge6_Node000001_Node000007" class="edge">
<title>Node1&#45;&gt;Node7</title>
<g id="a_edge6_Node000001_Node000007"><a xlink:title=" ">
<path fill="none" stroke="#63b8ff" d="M417.37,-109.97C438.23,-103.53 461.88,-96.22 483.38,-89.58"/>
<polygon fill="#63b8ff" stroke="#63b8ff" points="416.21,-106.66 407.69,-112.96 418.28,-113.35 416.21,-106.66"/>
</a>
</g>
</g>
<!-- Node8 -->
<g id="Node000008" class="node">
<title>Node8</title>
<g id="a_Node000008"><a xlink:href="structmlir_1_1quant_1_1detail_1_1UniformQuantizedTypeStorage.html" target="_top" xlink:title=" ">
<polygon fill="white" stroke="#666666" points="637,-30 465,-30 465,0 637,0 637,-30"/>
<text text-anchor="start" x="473" y="-18" font-family="Helvetica,sans-Serif" font-size="10.00">mlir::quant::detail</text>
<text text-anchor="middle" x="551" y="-7" font-family="Helvetica,sans-Serif" font-size="10.00">::UniformQuantizedTypeStorage</text>
</a>
</g>
</g>
<!-- Node1&#45;&gt;Node8 -->
<g id="edge7_Node000001_Node000008" class="edge">
<title>Node1&#45;&gt;Node8</title>
<g id="a_edge7_Node000001_Node000008"><a xlink:title=" ">
<path fill="none" stroke="#63b8ff" d="M379.03,-105.15C397.97,-84.93 428.17,-56.04 460,-39 466.42,-35.57 473.36,-32.6 480.44,-30.04"/>
<polygon fill="#63b8ff" stroke="#63b8ff" points="376.29,-102.97 372.11,-112.71 381.44,-107.7 376.29,-102.97"/>
</a>
</g>
</g>
<!-- Node2 -->
<g id="Node000002" class="node">
<title>Node2</title>
<g id="a_Node000002"><a xlink:href="classmlir_1_1TypeStorage.html" target="_top" xlink:title="Base storage class appearing in a Type.">
<polygon fill="white" stroke="#666666" points="256,-137.5 154,-137.5 154,-118.5 256,-118.5 256,-137.5"/>
<text text-anchor="middle" x="205" y="-125.5" font-family="Helvetica,sans-Serif" font-size="10.00">mlir::TypeStorage</text>
</a>
</g>
</g>
<!-- Node2&#45;&gt;Node1 -->
<g id="edge1_Node000001_Node000002" class="edge">
<title>Node2&#45;&gt;Node1</title>
<g id="a_edge1_Node000001_Node000002"><a xlink:title=" ">
<path fill="none" stroke="#63b8ff" d="M266.36,-128C274.76,-128 283.42,-128 291.9,-128"/>
<polygon fill="#63b8ff" stroke="#63b8ff" points="266.28,-124.5 256.28,-128 266.28,-131.5 266.28,-124.5"/>
</a>
</g>
</g>
<!-- Node3 -->
<g id="Node000003" class="node">
<title>Node3</title>
<g id="a_Node000003"><a xlink:href="classmlir_1_1StorageUniquer_1_1BaseStorage.html" target="_top" xlink:title="This class acts as the base storage that all storage classes must derived from.">
<polygon fill="white" stroke="#666666" points="118,-143 0,-143 0,-113 118,-113 118,-143"/>
<text text-anchor="start" x="8" y="-131" font-family="Helvetica,sans-Serif" font-size="10.00">mlir::StorageUniquer</text>
<text text-anchor="middle" x="59" y="-120" font-family="Helvetica,sans-Serif" font-size="10.00">::BaseStorage</text>
</a>
</g>
</g>
<!-- Node3&#45;&gt;Node2 -->
<g id="edge2_Node000002_Node000003" class="edge">
<title>Node3&#45;&gt;Node2</title>
<g id="a_edge2_Node000002_Node000003"><a xlink:title=" ">
<path fill="none" stroke="#63b8ff" d="M128.26,-128C136.92,-128 145.65,-128 153.96,-128"/>
<polygon fill="#63b8ff" stroke="#63b8ff" points="128.16,-124.5 118.16,-128 128.16,-131.5 128.16,-124.5"/>
</a>
</g>
</g>
</g>
</svg>
