<?xml version="1.0" encoding="UTF-8" standalone="no"?>
<!DOCTYPE svg PUBLIC "-//W3C//DTD SVG 1.1//EN"
 "http://www.w3.org/Graphics/SVG/1.1/DTD/svg11.dtd">
<!-- Generated by graphviz version 2.43.0 (0)
 -->
<!-- Title: mlir::detail::FileLineColRangeAttrStorage Pages: 1 -->
<svg width="497pt" height="92pt"
 viewBox="0.00 0.00 497.00 91.50" xmlns="http://www.w3.org/2000/svg" xmlns:xlink="http://www.w3.org/1999/xlink">
<g id="graph0" class="graph" transform="scale(1 1) rotate(0) translate(4 87.5)">
<title>mlir::detail::FileLineColRangeAttrStorage</title>
<!-- Node1 -->
<g id="Node000001" class="node">
<title>Node1</title>
<g id="a_Node000001"><a xlink:title=" ">
<polygon fill="#999999" stroke="#666666" points="489,-59.5 360,-59.5 360,-29.5 489,-29.5 489,-59.5"/>
<text text-anchor="start" x="368" y="-47.5" font-family="Helvetica,sans-Serif" font-size="10.00">mlir::detail::FileLineCol</text>
<text text-anchor="middle" x="424.5" y="-36.5" font-family="Helvetica,sans-Serif" font-size="10.00">RangeAttrStorage</text>
</a>
</g>
</g>
<!-- Node2 -->
<g id="Node000002" class="node">
<title>Node2</title>
<g id="a_Node000002"><a xlink:href="classmlir_1_1AttributeStorage.html" target="_top" xlink:title="Base storage class appearing in an attribute.">
<polygon fill="white" stroke="#666666" points="300,-78 178,-78 178,-59 300,-59 300,-78"/>
<text text-anchor="middle" x="239" y="-66" font-family="Helvetica,sans-Serif" font-size="10.00">mlir::AttributeStorage</text>
</a>
</g>
</g>
<!-- Node2&#45;&gt;Node1 -->
<g id="edge1_Node000001_Node000002" class="edge">
<title>Node2&#45;&gt;Node1</title>
<g id="a_edge1_Node000001_Node000002"><a xlink:title=" ">
<path fill="none" stroke="#63b8ff" d="M310.11,-59.33C326.45,-57.19 343.76,-54.93 359.81,-52.83"/>
<polygon fill="#63b8ff" stroke="#63b8ff" points="309.55,-55.87 300.08,-60.64 310.45,-62.82 309.55,-55.87"/>
</a>
</g>
</g>
<!-- Node3 -->
<g id="Node000003" class="node">
<title>Node3</title>
<g id="a_Node000003"><a xlink:href="classmlir_1_1StorageUniquer_1_1BaseStorage.html" target="_top" xlink:title="This class acts as the base storage that all storage classes must derived from.">
<polygon fill="white" stroke="#666666" points="118,-83.5 0,-83.5 0,-53.5 118,-53.5 118,-83.5"/>
<text text-anchor="start" x="8" y="-71.5" font-family="Helvetica,sans-Serif" font-size="10.00">mlir::StorageUniquer</text>
<text text-anchor="middle" x="59" y="-60.5" font-family="Helvetica,sans-Serif" font-size="10.00">::BaseStorage</text>
</a>
</g>
</g>
<!-- Node3&#45;&gt;Node2 -->
<g id="edge2_Node000002_Node000003" class="edge">
<title>Node3&#45;&gt;Node2</title>
<g id="a_edge2_Node000002_Node000003"><a xlink:title=" ">
<path fill="none" stroke="#63b8ff" d="M128.74,-68.5C144.9,-68.5 162,-68.5 177.75,-68.5"/>
<polygon fill="#63b8ff" stroke="#63b8ff" points="128.28,-65 118.28,-68.5 128.28,-72 128.28,-65"/>
</a>
</g>
</g>
<!-- Node4 -->
<g id="Node000004" class="node">
<title>Node4</title>
<g id="a_Node000004"><a xlink:title=" ">
<polygon fill="white" stroke="#666666" points="324,-41 154,-41 154,0 324,0 324,-41"/>
<text text-anchor="start" x="162" y="-29" font-family="Helvetica,sans-Serif" font-size="10.00">llvm::TrailingObjects</text>
<text text-anchor="start" x="162" y="-18" font-family="Helvetica,sans-Serif" font-size="10.00">&lt; FileLineColRangeAttrStorage,</text>
<text text-anchor="middle" x="239" y="-7" font-family="Helvetica,sans-Serif" font-size="10.00"> unsigned &gt;</text>
</a>
</g>
</g>
<!-- Node4&#45;&gt;Node1 -->
<g id="edge3_Node000001_Node000004" class="edge">
<title>Node4&#45;&gt;Node1</title>
<g id="a_edge3_Node000001_Node000004"><a xlink:title=" ">
<path fill="none" stroke="#8b1a1a" d="M334.35,-32.84C342.97,-33.97 351.56,-35.09 359.82,-36.17"/>
<polygon fill="#8b1a1a" stroke="#8b1a1a" points="334.6,-29.34 324.23,-31.52 333.69,-36.28 334.6,-29.34"/>
</a>
</g>
</g>
</g>
</svg>
