<?xml version="1.0" encoding="UTF-8" standalone="no"?>
<!DOCTYPE svg PUBLIC "-//W3C//DTD SVG 1.1//EN"
 "http://www.w3.org/Graphics/SVG/1.1/DTD/svg11.dtd">
<!-- Generated by graphviz version 2.43.0 (0)
 -->
<!-- Title: mlir::acc::RuntimeCounters Pages: 1 -->
<svg width="871pt" height="73pt"
 viewBox="0.00 0.00 871.00 72.50" xmlns="http://www.w3.org/2000/svg" xmlns:xlink="http://www.w3.org/1999/xlink">
<g id="graph0" class="graph" transform="scale(1 1) rotate(0) translate(4 68.5)">
<title>mlir::acc::RuntimeCounters</title>
<!-- Node1 -->
<g id="Node000001" class="node">
<title>Node1</title>
<g id="a_Node000001"><a xlink:title=" ">
<polygon fill="#999999" stroke="#666666" points="863,-59 714,-59 714,-40 863,-40 863,-59"/>
<text text-anchor="middle" x="788.5" y="-47" font-family="Helvetica,sans-Serif" font-size="10.00">mlir::acc::RuntimeCounters</text>
</a>
</g>
</g>
<!-- Node2 -->
<g id="Node000002" class="node">
<title>Node2</title>
<g id="a_Node000002"><a xlink:href="classmlir_1_1SideEffects_1_1Resource_1_1Base.html" target="_top" xlink:title=" ">
<polygon fill="white" stroke="#666666" points="677,-64.5 478,-64.5 478,-34.5 677,-34.5 677,-64.5"/>
<text text-anchor="start" x="486" y="-52.5" font-family="Helvetica,sans-Serif" font-size="10.00">mlir::SideEffects::</text>
<text text-anchor="middle" x="577.5" y="-41.5" font-family="Helvetica,sans-Serif" font-size="10.00">Resource::Base&lt; RuntimeCounters &gt;</text>
</a>
</g>
</g>
<!-- Node2&#45;&gt;Node1 -->
<g id="edge1_Node000001_Node000002" class="edge">
<title>Node2&#45;&gt;Node1</title>
<g id="a_edge1_Node000001_Node000002"><a xlink:title=" ">
<path fill="none" stroke="#63b8ff" d="M687.34,-49.5C696.33,-49.5 705.28,-49.5 713.91,-49.5"/>
<polygon fill="#63b8ff" stroke="#63b8ff" points="687.19,-46 677.19,-49.5 687.19,-53 687.19,-46"/>
</a>
</g>
</g>
<!-- Node3 -->
<g id="Node000003" class="node">
<title>Node3</title>
<g id="a_Node000003"><a xlink:href="classmlir_1_1SideEffects_1_1Resource.html" target="_top" xlink:title="This class represents a specific resource that an effect applies to.">
<polygon fill="white" stroke="#666666" points="102,-59.5 0,-59.5 0,-29.5 102,-29.5 102,-59.5"/>
<text text-anchor="start" x="8" y="-47.5" font-family="Helvetica,sans-Serif" font-size="10.00">mlir::SideEffects::</text>
<text text-anchor="middle" x="51" y="-36.5" font-family="Helvetica,sans-Serif" font-size="10.00">Resource</text>
</a>
</g>
</g>
<!-- Node3&#45;&gt;Node2 -->
<g id="edge2_Node000002_Node000003" class="edge">
<title>Node3&#45;&gt;Node2</title>
<g id="a_edge2_Node000002_Node000003"><a xlink:title=" ">
<path fill="none" stroke="#63b8ff" d="M112.27,-49.08C114.88,-49.23 117.47,-49.37 120,-49.5 270.95,-57.05 308.92,-59.39 460,-55.5 465.87,-55.35 471.91,-55.16 478,-54.93"/>
<polygon fill="#63b8ff" stroke="#63b8ff" points="112.31,-45.58 102.12,-48.45 111.88,-52.56 112.31,-45.58"/>
</a>
</g>
</g>
<!-- Node4 -->
<g id="Node000004" class="node">
<title>Node4</title>
<g id="a_Node000004"><a xlink:href="classmlir_1_1SideEffects_1_1Resource_1_1Base.html" target="_top" xlink:title="This base class is used for derived effects that are non&#45;parametric.">
<polygon fill="white" stroke="#666666" points="328,-41 139,-41 139,0 328,0 328,-41"/>
<text text-anchor="start" x="147" y="-29" font-family="Helvetica,sans-Serif" font-size="10.00">mlir::SideEffects::</text>
<text text-anchor="start" x="147" y="-18" font-family="Helvetica,sans-Serif" font-size="10.00">Resource::Base&lt; DerivedResource,</text>
<text text-anchor="middle" x="233.5" y="-7" font-family="Helvetica,sans-Serif" font-size="10.00"> BaseResource &gt;</text>
</a>
</g>
</g>
<!-- Node3&#45;&gt;Node4 -->
<g id="edge4_Node000004_Node000003" class="edge">
<title>Node3&#45;&gt;Node4</title>
<g id="a_edge4_Node000004_Node000003"><a xlink:title=" ">
<path fill="none" stroke="#63b8ff" d="M112.2,-36.5C120.82,-35.35 129.86,-34.15 138.95,-32.94"/>
<polygon fill="#63b8ff" stroke="#63b8ff" points="111.73,-33.03 102.28,-37.81 112.65,-39.97 111.73,-33.03"/>
</a>
</g>
</g>
<!-- Node4&#45;&gt;Node2 -->
<g id="edge3_Node000002_Node000004" class="edge">
<title>Node4&#45;&gt;Node2</title>
<g id="a_edge3_Node000002_Node000004"><a xlink:title=" ">
<path fill="none" stroke="orange" stroke-dasharray="5,2" d="M338.18,-28.46C376.48,-31.48 420.22,-35.03 460,-38.5 465.87,-39.01 471.9,-39.55 477.99,-40.1"/>
<polygon fill="orange" stroke="orange" points="338.3,-24.96 328.06,-27.66 337.75,-31.94 338.3,-24.96"/>
</a>
</g>
<text text-anchor="start" x="349" y="-44" font-family="Helvetica,sans-Serif" font-size="10.00" fill="grey">&lt; RuntimeCounters &gt;</text>
</g>
</g>
</svg>
