<?xml version="1.0" encoding="UTF-8" standalone="no"?>
<!DOCTYPE svg PUBLIC "-//W3C//DTD SVG 1.1//EN"
 "http://www.w3.org/Graphics/SVG/1.1/DTD/svg11.dtd">
<!-- Generated by graphviz version 2.43.0 (0)
 -->
<!-- Title: MulExtendedFold&lt; MulOp, IsSigned &gt; Pages: 1 -->
<svg width="1447pt" height="108pt"
 viewBox="0.00 0.00 1447.00 107.68" xmlns="http://www.w3.org/2000/svg" xmlns:xlink="http://www.w3.org/1999/xlink">
<g id="graph0" class="graph" transform="scale(1 1) rotate(0) translate(4 103.68)">
<title>MulExtendedFold&lt; MulOp, IsSigned &gt;</title>
<!-- Node1 -->
<g id="Node000001" class="node">
<title>Node1</title>
<g id="a_Node000001"><a xlink:title=" ">
<polygon fill="#999999" stroke="#666666" points="1119,-57 973,-57 973,-27 1119,-27 1119,-57"/>
<text text-anchor="start" x="981" y="-45" font-family="Helvetica,sans-Serif" font-size="10.00">MulExtendedFold&lt; MulOp,</text>
<text text-anchor="middle" x="1046" y="-34" font-family="Helvetica,sans-Serif" font-size="10.00"> IsSigned &gt;</text>
</a>
</g>
</g>
<!-- Node9 -->
<g id="Node000009" class="node">
<title>Node9</title>
<g id="a_Node000009"><a xlink:href="structMulExtendedFold.html" target="_top" xlink:title=" ">
<polygon fill="white" stroke="#666666" points="1436,-85 1293,-85 1293,-55 1436,-55 1436,-85"/>
<text text-anchor="start" x="1301" y="-73" font-family="Helvetica,sans-Serif" font-size="10.00">MulExtendedFold&lt; spirv</text>
<text text-anchor="middle" x="1364.5" y="-62" font-family="Helvetica,sans-Serif" font-size="10.00">::SMulExtendedOp, true &gt;</text>
</a>
</g>
</g>
<!-- Node1&#45;&gt;Node9 -->
<g id="edge10_Node000001_Node000009" class="edge">
<title>Node1&#45;&gt;Node9</title>
<g id="a_edge10_Node000001_Node000009"><a xlink:title=" ">
<path fill="none" stroke="orange" stroke-dasharray="5,2" d="M1129.18,-49.27C1179.98,-53.76 1244.49,-59.47 1292.96,-63.76"/>
<polygon fill="orange" stroke="orange" points="1129.48,-45.78 1119.21,-48.39 1128.87,-52.76 1129.48,-45.78"/>
</a>
</g>
<text text-anchor="start" x="1141.5" y="-83" font-family="Helvetica,sans-Serif" font-size="10.00" fill="grey">&lt; spirv::SMulExtendedOp,</text>
<text text-anchor="start" x="1141.5" y="-68" font-family="Helvetica,sans-Serif" font-size="10.00" fill="grey">   true &gt;</text>
</g>
<!-- Node10 -->
<g id="Node000010" class="node">
<title>Node10</title>
<g id="a_Node000010"><a xlink:href="structMulExtendedFold.html" target="_top" xlink:title=" ">
<polygon fill="white" stroke="#666666" points="1439,-30 1290,-30 1290,0 1439,0 1439,-30"/>
<text text-anchor="start" x="1298" y="-18" font-family="Helvetica,sans-Serif" font-size="10.00">MulExtendedFold&lt; spirv</text>
<text text-anchor="middle" x="1364.5" y="-7" font-family="Helvetica,sans-Serif" font-size="10.00">::UMulExtendedOp, false &gt;</text>
</a>
</g>
</g>
<!-- Node1&#45;&gt;Node10 -->
<g id="edge11_Node000001_Node000010" class="edge">
<title>Node1&#45;&gt;Node10</title>
<g id="a_edge11_Node000001_Node000010"><a xlink:title=" ">
<path fill="none" stroke="orange" stroke-dasharray="5,2" d="M1099.87,-24.09C1111.94,-20.75 1124.8,-17.75 1137,-16 1187.7,-8.71 1245.44,-8.58 1289.93,-10.21"/>
<polygon fill="orange" stroke="orange" points="1098.59,-20.82 1089.96,-26.97 1100.54,-27.55 1098.59,-20.82"/>
</a>
</g>
<text text-anchor="start" x="1140.5" y="-37" font-family="Helvetica,sans-Serif" font-size="10.00" fill="grey">&lt; spirv::UMulExtendedOp,</text>
<text text-anchor="start" x="1140.5" y="-22" font-family="Helvetica,sans-Serif" font-size="10.00" fill="grey">   false &gt;</text>
</g>
<!-- Node2 -->
<g id="Node000002" class="node">
<title>Node2</title>
<g id="a_Node000002"><a xlink:href="structmlir_1_1OpRewritePattern.html" target="_top" xlink:title=" ">
<polygon fill="white" stroke="#666666" points="936,-57 808,-57 808,-27 936,-27 936,-57"/>
<text text-anchor="start" x="816" y="-45" font-family="Helvetica,sans-Serif" font-size="10.00">mlir::OpRewritePattern</text>
<text text-anchor="middle" x="872" y="-34" font-family="Helvetica,sans-Serif" font-size="10.00">&lt; MulOp &gt;</text>
</a>
</g>
</g>
<!-- Node2&#45;&gt;Node1 -->
<g id="edge1_Node000001_Node000002" class="edge">
<title>Node2&#45;&gt;Node1</title>
<g id="a_edge1_Node000001_Node000002"><a xlink:title=" ">
<path fill="none" stroke="#63b8ff" d="M946.31,-42C955.13,-42 964.12,-42 972.92,-42"/>
<polygon fill="#63b8ff" stroke="#63b8ff" points="946.07,-38.5 936.07,-42 946.07,-45.5 946.07,-38.5"/>
</a>
</g>
</g>
<!-- Node3 -->
<g id="Node000003" class="node">
<title>Node3</title>
<g id="a_Node000003"><a xlink:href="structmlir_1_1detail_1_1OpOrInterfaceRewritePatternBase.html" target="_top" xlink:title=" ">
<polygon fill="white" stroke="#666666" points="711,-81 544,-81 544,-51 711,-51 711,-81"/>
<text text-anchor="start" x="552" y="-69" font-family="Helvetica,sans-Serif" font-size="10.00">mlir::detail::OpOrInterface</text>
<text text-anchor="middle" x="627.5" y="-58" font-family="Helvetica,sans-Serif" font-size="10.00">RewritePatternBase&lt; MulOp &gt;</text>
</a>
</g>
</g>
<!-- Node3&#45;&gt;Node2 -->
<g id="edge2_Node000002_Node000003" class="edge">
<title>Node3&#45;&gt;Node2</title>
<g id="a_edge2_Node000002_Node000003"><a xlink:title=" ">
<path fill="none" stroke="#63b8ff" d="M721.38,-56.81C750.24,-53.95 781.38,-50.87 807.73,-48.26"/>
<polygon fill="#63b8ff" stroke="#63b8ff" points="720.88,-53.34 711.28,-57.81 721.57,-60.31 720.88,-53.34"/>
</a>
</g>
</g>
<!-- Node4 -->
<g id="Node000004" class="node">
<title>Node4</title>
<g id="a_Node000004"><a xlink:href="classmlir_1_1RewritePattern.html" target="_top" xlink:title="RewritePattern is the common base class for all DAG to DAG replacements.">
<polygon fill="white" stroke="#666666" points="228,-75.5 114,-75.5 114,-56.5 228,-56.5 228,-75.5"/>
<text text-anchor="middle" x="171" y="-63.5" font-family="Helvetica,sans-Serif" font-size="10.00">mlir::RewritePattern</text>
</a>
</g>
</g>
<!-- Node4&#45;&gt;Node3 -->
<g id="edge3_Node000003_Node000004" class="edge">
<title>Node4&#45;&gt;Node3</title>
<g id="a_edge3_Node000003_Node000004"><a xlink:title=" ">
<path fill="none" stroke="#63b8ff" d="M211.18,-78.45C227.62,-83.06 247.05,-87.72 265,-90 380.08,-104.61 410.85,-101.11 526,-87 537.94,-85.54 550.57,-83.38 562.7,-81.01"/>
<polygon fill="#63b8ff" stroke="#63b8ff" points="211.94,-75.03 201.37,-75.61 210,-81.76 211.94,-75.03"/>
</a>
</g>
</g>
<!-- Node6 -->
<g id="Node000006" class="node">
<title>Node6</title>
<g id="a_Node000006"><a xlink:href="structmlir_1_1detail_1_1OpOrInterfaceRewritePatternBase.html" target="_top" xlink:title="OpOrInterfaceRewritePatternBase is a wrapper around RewritePattern that allows for matching and rewri...">
<polygon fill="white" stroke="#666666" points="447,-81 265,-81 265,-51 447,-51 447,-81"/>
<text text-anchor="start" x="273" y="-69" font-family="Helvetica,sans-Serif" font-size="10.00">mlir::detail::OpOrInterface</text>
<text text-anchor="middle" x="356" y="-58" font-family="Helvetica,sans-Serif" font-size="10.00">RewritePatternBase&lt; SourceOp &gt;</text>
</a>
</g>
</g>
<!-- Node4&#45;&gt;Node6 -->
<g id="edge6_Node000006_Node000004" class="edge">
<title>Node4&#45;&gt;Node6</title>
<g id="a_edge6_Node000006_Node000004"><a xlink:title=" ">
<path fill="none" stroke="#63b8ff" d="M238.62,-66C247.14,-66 255.97,-66 264.78,-66"/>
<polygon fill="#63b8ff" stroke="#63b8ff" points="238.4,-62.5 228.4,-66 238.4,-69.5 238.4,-62.5"/>
</a>
</g>
</g>
<!-- Node8 -->
<g id="Node000008" class="node">
<title>Node8</title>
<g id="a_Node000008"><a xlink:href="structmlir_1_1detail_1_1OpOrInterfaceRewritePatternBase.html" target="_top" xlink:title="OpOrInterfaceRewritePatternBase is a wrapper around RewritePattern that allows for matching and rewri...">
<polygon fill="white" stroke="#666666" points="447,-33 265,-33 265,-3 447,-3 447,-33"/>
<text text-anchor="start" x="273" y="-21" font-family="Helvetica,sans-Serif" font-size="10.00">mlir::detail::OpOrInterface</text>
<text text-anchor="middle" x="356" y="-10" font-family="Helvetica,sans-Serif" font-size="10.00">RewritePatternBase&lt; SourceOp &gt;</text>
</a>
</g>
</g>
<!-- Node4&#45;&gt;Node8 -->
<g id="edge9_Node000008_Node000004" class="edge">
<title>Node4&#45;&gt;Node8</title>
<g id="a_edge9_Node000008_Node000004"><a xlink:title=" ">
<path fill="none" stroke="#63b8ff" d="M218.53,-53.8C242.57,-47.49 272.12,-39.74 297.57,-33.06"/>
<polygon fill="#63b8ff" stroke="#63b8ff" points="217.38,-50.48 208.59,-56.4 219.15,-57.25 217.38,-50.48"/>
</a>
</g>
</g>
<!-- Node5 -->
<g id="Node000005" class="node">
<title>Node5</title>
<g id="a_Node000005"><a xlink:href="classmlir_1_1Pattern.html" target="_top" xlink:title="This class contains all of the data related to a pattern, but does not contain any methods or logic f...">
<polygon fill="white" stroke="#666666" points="77,-75.5 0,-75.5 0,-56.5 77,-56.5 77,-75.5"/>
<text text-anchor="middle" x="38.5" y="-63.5" font-family="Helvetica,sans-Serif" font-size="10.00">mlir::Pattern</text>
</a>
</g>
</g>
<!-- Node5&#45;&gt;Node4 -->
<g id="edge4_Node000004_Node000005" class="edge">
<title>Node5&#45;&gt;Node4</title>
<g id="a_edge4_Node000004_Node000005"><a xlink:title=" ">
<path fill="none" stroke="#63b8ff" d="M87.47,-66C96.06,-66 105.09,-66 113.89,-66"/>
<polygon fill="#63b8ff" stroke="#63b8ff" points="87.25,-62.5 77.25,-66 87.25,-69.5 87.25,-62.5"/>
</a>
</g>
</g>
<!-- Node6&#45;&gt;Node3 -->
<g id="edge5_Node000003_Node000006" class="edge">
<title>Node6&#45;&gt;Node3</title>
<g id="a_edge5_Node000003_Node000006"><a xlink:title=" ">
<path fill="none" stroke="orange" stroke-dasharray="5,2" d="M457.48,-66C485.9,-66 516.5,-66 543.74,-66"/>
<polygon fill="orange" stroke="orange" points="457.11,-62.5 447.11,-66 457.11,-69.5 457.11,-62.5"/>
</a>
</g>
<text text-anchor="start" x="468.5" y="-71.5" font-family="Helvetica,sans-Serif" font-size="10.00" fill="grey">&lt; MulOp &gt;</text>
</g>
<!-- Node7 -->
<g id="Node000007" class="node">
<title>Node7</title>
<g id="a_Node000007"><a xlink:href="structmlir_1_1OpRewritePattern.html" target="_top" xlink:title="OpRewritePattern is a wrapper around RewritePattern that allows for matching and rewriting against an...">
<polygon fill="white" stroke="#666666" points="691.5,-33 563.5,-33 563.5,-3 691.5,-3 691.5,-33"/>
<text text-anchor="start" x="571.5" y="-21" font-family="Helvetica,sans-Serif" font-size="10.00">mlir::OpRewritePattern</text>
<text text-anchor="middle" x="627.5" y="-10" font-family="Helvetica,sans-Serif" font-size="10.00">&lt; SourceOp &gt;</text>
</a>
</g>
</g>
<!-- Node7&#45;&gt;Node2 -->
<g id="edge7_Node000002_Node000007" class="edge">
<title>Node7&#45;&gt;Node2</title>
<g id="a_edge7_Node000002_Node000007"><a xlink:title=" ">
<path fill="none" stroke="orange" stroke-dasharray="5,2" d="M701.87,-22.32C729.53,-24.24 761.26,-26.81 790,-30 795.79,-30.64 801.81,-31.39 807.83,-32.19"/>
<polygon fill="orange" stroke="orange" points="702.09,-18.82 691.88,-21.64 701.62,-25.81 702.09,-18.82"/>
</a>
</g>
<text text-anchor="start" x="732.5" y="-35.5" font-family="Helvetica,sans-Serif" font-size="10.00" fill="grey">&lt; MulOp &gt;</text>
</g>
<!-- Node8&#45;&gt;Node7 -->
<g id="edge8_Node000007_Node000008" class="edge">
<title>Node8&#45;&gt;Node7</title>
<g id="a_edge8_Node000007_Node000008"><a xlink:title=" ">
<path fill="none" stroke="#63b8ff" d="M457.5,-18C492.96,-18 531.79,-18 563.29,-18"/>
<polygon fill="#63b8ff" stroke="#63b8ff" points="457.11,-14.5 447.11,-18 457.11,-21.5 457.11,-14.5"/>
</a>
</g>
</g>
</g>
</svg>
