<?xml version="1.0" encoding="UTF-8" standalone="no"?>
<!DOCTYPE svg PUBLIC "-//W3C//DTD SVG 1.1//EN"
 "http://www.w3.org/Graphics/SVG/1.1/DTD/svg11.dtd">
<!-- Generated by graphviz version 2.43.0 (0)
 -->
<!-- Title: mlir::OpTrait::ReturnLike&lt; ConcreteType &gt; Pages: 1 -->
<svg width="243pt" height="188pt"
 viewBox="0.00 0.00 242.50 188.00" xmlns="http://www.w3.org/2000/svg" xmlns:xlink="http://www.w3.org/1999/xlink">
<g id="graph0" class="graph" transform="scale(1 1) rotate(0) translate(4 184)">
<title>mlir::OpTrait::ReturnLike&lt; ConcreteType &gt;</title>
<!-- Node1 -->
<g id="Node000001" class="node">
<title>Node1</title>
<g id="a_Node000001"><a xlink:title="This trait indicates that a terminator operation is &quot;return&#45;like&quot;.">
<polygon fill="#999999" stroke="#666666" points="148.5,-30 14.5,-30 14.5,0 148.5,0 148.5,-30"/>
<text text-anchor="start" x="22.5" y="-18" font-family="Helvetica,sans-Serif" font-size="10.00">mlir::OpTrait::ReturnLike</text>
<text text-anchor="middle" x="81.5" y="-7" font-family="Helvetica,sans-Serif" font-size="10.00">&lt; ConcreteType &gt;</text>
</a>
</g>
</g>
<!-- Node2 -->
<g id="Node000002" class="node">
<title>Node2</title>
<g id="a_Node000002"><a xlink:href="classmlir_1_1OpTrait_1_1TraitBase.html" target="_top" xlink:title=" ">
<polygon fill="white" stroke="#666666" points="163,-97 0,-97 0,-67 163,-67 163,-97"/>
<text text-anchor="start" x="8" y="-85" font-family="Helvetica,sans-Serif" font-size="10.00">mlir::OpTrait::TraitBase</text>
<text text-anchor="middle" x="81.5" y="-74" font-family="Helvetica,sans-Serif" font-size="10.00">&lt; ConcreteType, ReturnLike &gt;</text>
</a>
</g>
</g>
<!-- Node2&#45;&gt;Node1 -->
<g id="edge1_Node000001_Node000002" class="edge">
<title>Node2&#45;&gt;Node1</title>
<g id="a_edge1_Node000001_Node000002"><a xlink:title=" ">
<path fill="none" stroke="#63b8ff" d="M81.5,-56.61C81.5,-47.65 81.5,-37.82 81.5,-30.08"/>
<polygon fill="#63b8ff" stroke="#63b8ff" points="78,-56.9 81.5,-66.9 85,-56.9 78,-56.9"/>
</a>
</g>
</g>
<!-- Node3 -->
<g id="Node000003" class="node">
<title>Node3</title>
<g id="a_Node000003"><a xlink:href="classmlir_1_1OpTrait_1_1TraitBase.html" target="_top" xlink:title="Helper class for implementing traits.">
<polygon fill="white" stroke="#666666" points="159,-180 4,-180 4,-150 159,-150 159,-180"/>
<text text-anchor="start" x="12" y="-168" font-family="Helvetica,sans-Serif" font-size="10.00">mlir::OpTrait::TraitBase</text>
<text text-anchor="middle" x="81.5" y="-157" font-family="Helvetica,sans-Serif" font-size="10.00">&lt; ConcreteType, TraitType &gt;</text>
</a>
</g>
</g>
<!-- Node3&#45;&gt;Node2 -->
<g id="edge2_Node000002_Node000003" class="edge">
<title>Node3&#45;&gt;Node2</title>
<g id="a_edge2_Node000002_Node000003"><a xlink:title=" ">
<path fill="none" stroke="orange" stroke-dasharray="5,2" d="M81.5,-139.59C81.5,-125.75 81.5,-108.91 81.5,-97.22"/>
<polygon fill="orange" stroke="orange" points="78,-139.89 81.5,-149.89 85,-139.89 78,-139.89"/>
</a>
</g>
<text text-anchor="start" x="85" y="-120.5" font-family="Helvetica,sans-Serif" font-size="10.00" fill="grey">&lt; ConcreteType, ReturnLike &gt;</text>
</g>
</g>
</svg>
