<?xml version="1.0" encoding="UTF-8" standalone="no"?>
<!DOCTYPE svg PUBLIC "-//W3C//DTD SVG 1.1//EN"
 "http://www.w3.org/Graphics/SVG/1.1/DTD/svg11.dtd">
<!-- Generated by graphviz version 2.43.0 (0)
 -->
<!-- Title: ConvertAddressOf Pages: 1 -->
<svg width="300pt" height="244pt"
 viewBox="0.00 0.00 300.00 244.00" xmlns="http://www.w3.org/2000/svg" xmlns:xlink="http://www.w3.org/1999/xlink">
<g id="graph0" class="graph" transform="scale(1 1) rotate(0) translate(4 240)">
<title>ConvertAddressOf</title>
<!-- Node1 -->
<g id="Node000001" class="node">
<title>Node1</title>
<g id="a_Node000001"><a xlink:title=" ">
<polygon fill="#999999" stroke="#666666" points="162.5,-19 57.5,-19 57.5,0 162.5,0 162.5,-19"/>
<text text-anchor="middle" x="110" y="-7" font-family="Helvetica,sans-Serif" font-size="10.00">ConvertAddressOf</text>
</a>
</g>
</g>
<!-- Node2 -->
<g id="Node000002" class="node">
<title>Node2</title>
<g id="a_Node000002"><a xlink:href="classConvertAliasResource.html" target="_top" xlink:title=" ">
<polygon fill="white" stroke="#666666" points="176,-86 44,-86 44,-56 176,-56 176,-86"/>
<text text-anchor="start" x="52" y="-74" font-family="Helvetica,sans-Serif" font-size="10.00">ConvertAliasResource</text>
<text text-anchor="middle" x="110" y="-63" font-family="Helvetica,sans-Serif" font-size="10.00">&lt; spirv::AddressOfOp &gt;</text>
</a>
</g>
</g>
<!-- Node2&#45;&gt;Node1 -->
<g id="edge1_Node000001_Node000002" class="edge">
<title>Node2&#45;&gt;Node1</title>
<g id="a_edge1_Node000001_Node000002"><a xlink:title=" ">
<path fill="none" stroke="#63b8ff" d="M110,-45.79C110,-36.36 110,-26.15 110,-19.16"/>
<polygon fill="#63b8ff" stroke="#63b8ff" points="106.5,-45.9 110,-55.9 113.5,-45.9 106.5,-45.9"/>
</a>
</g>
</g>
<!-- Node3 -->
<g id="Node000003" class="node">
<title>Node3</title>
<g id="a_Node000003"><a xlink:title=" ">
<polygon fill="white" stroke="#666666" points="132,-169 0,-169 0,-139 132,-139 132,-169"/>
<text text-anchor="start" x="8" y="-157" font-family="Helvetica,sans-Serif" font-size="10.00">OpConversionPattern</text>
<text text-anchor="middle" x="66" y="-146" font-family="Helvetica,sans-Serif" font-size="10.00">&lt; spirv::AddressOfOp &gt;</text>
</a>
</g>
</g>
<!-- Node3&#45;&gt;Node2 -->
<g id="edge2_Node000002_Node000003" class="edge">
<title>Node3&#45;&gt;Node2</title>
<g id="a_edge2_Node000002_Node000003"><a xlink:title=" ">
<path fill="none" stroke="#63b8ff" d="M78.6,-129.81C86.23,-115.75 95.74,-98.26 102.28,-86.22"/>
<polygon fill="#63b8ff" stroke="#63b8ff" points="75.36,-128.43 73.66,-138.89 81.51,-131.77 75.36,-128.43"/>
</a>
</g>
</g>
<!-- Node4 -->
<g id="Node000004" class="node">
<title>Node4</title>
<g id="a_Node000004"><a xlink:href="classConvertAliasResource.html" target="_top" xlink:title=" ">
<polygon fill="white" stroke="#666666" points="274,-169 150,-169 150,-139 274,-139 274,-169"/>
<text text-anchor="start" x="158" y="-157" font-family="Helvetica,sans-Serif" font-size="10.00">ConvertAliasResource</text>
<text text-anchor="middle" x="212" y="-146" font-family="Helvetica,sans-Serif" font-size="10.00">&lt; OpTy &gt;</text>
</a>
</g>
</g>
<!-- Node4&#45;&gt;Node2 -->
<g id="edge3_Node000002_Node000004" class="edge">
<title>Node4&#45;&gt;Node2</title>
<g id="a_edge3_Node000002_Node000004"><a xlink:title=" ">
<path fill="none" stroke="orange" stroke-dasharray="5,2" d="M186.31,-132.6C168.09,-118.13 144.09,-99.07 127.91,-86.22"/>
<polygon fill="orange" stroke="orange" points="184.23,-135.41 194.23,-138.89 188.58,-129.93 184.23,-135.41"/>
</a>
</g>
<text text-anchor="start" x="173" y="-109.5" font-family="Helvetica,sans-Serif" font-size="10.00" fill="grey">&lt; spirv::AddressOfOp &gt;</text>
</g>
<!-- Node5 -->
<g id="Node000005" class="node">
<title>Node5</title>
<g id="a_Node000005"><a xlink:title=" ">
<polygon fill="white" stroke="#666666" points="271.5,-236 152.5,-236 152.5,-206 271.5,-206 271.5,-236"/>
<text text-anchor="start" x="160.5" y="-224" font-family="Helvetica,sans-Serif" font-size="10.00">OpConversionPattern</text>
<text text-anchor="middle" x="212" y="-213" font-family="Helvetica,sans-Serif" font-size="10.00">&lt; OpTy &gt;</text>
</a>
</g>
</g>
<!-- Node5&#45;&gt;Node4 -->
<g id="edge4_Node000004_Node000005" class="edge">
<title>Node5&#45;&gt;Node4</title>
<g id="a_edge4_Node000004_Node000005"><a xlink:title=" ">
<path fill="none" stroke="#63b8ff" d="M212,-195.61C212,-186.65 212,-176.82 212,-169.08"/>
<polygon fill="#63b8ff" stroke="#63b8ff" points="208.5,-195.9 212,-205.9 215.5,-195.9 208.5,-195.9"/>
</a>
</g>
</g>
</g>
</svg>
