<?xml version="1.0" encoding="UTF-8" standalone="no"?>
<!DOCTYPE svg PUBLIC "-//W3C//DTD SVG 1.1//EN"
 "http://www.w3.org/Graphics/SVG/1.1/DTD/svg11.dtd">
<!-- Generated by graphviz version 2.43.0 (0)
 -->
<!-- Title: mlir::detail::is_pair&lt; std::pair&lt; Ts... &gt; &gt; Pages: 1 -->
<svg width="309pt" height="166pt"
 viewBox="0.00 0.00 308.50 166.00" xmlns="http://www.w3.org/2000/svg" xmlns:xlink="http://www.w3.org/1999/xlink">
<g id="graph0" class="graph" transform="scale(1 1) rotate(0) translate(4 162)">
<title>mlir::detail::is_pair&lt; std::pair&lt; Ts... &gt; &gt;</title>
<!-- Node1 -->
<g id="Node000001" class="node">
<title>Node1</title>
<g id="a_Node000001"><a xlink:title=" ">
<polygon fill="#999999" stroke="#666666" points="189.5,-30 69.5,-30 69.5,0 189.5,0 189.5,-30"/>
<text text-anchor="start" x="77.5" y="-18" font-family="Helvetica,sans-Serif" font-size="10.00">mlir::detail::is_pair</text>
<text text-anchor="middle" x="129.5" y="-7" font-family="Helvetica,sans-Serif" font-size="10.00">&lt; std::pair&lt; Ts... &gt; &gt;</text>
</a>
</g>
</g>
<!-- Node2 -->
<g id="Node000002" class="node">
<title>Node2</title>
<g id="a_Node000002"><a xlink:title=" ">
<polygon fill="white" stroke="#666666" points="89,-158 0,-158 0,-139 89,-139 89,-158"/>
<text text-anchor="middle" x="44.5" y="-146" font-family="Helvetica,sans-Serif" font-size="10.00">std::false_type</text>
</a>
</g>
</g>
<!-- Node2&#45;&gt;Node1 -->
<g id="edge1_Node000001_Node000002" class="edge">
<title>Node2&#45;&gt;Node1</title>
<g id="a_edge1_Node000001_Node000002"><a xlink:title=" ">
<path fill="none" stroke="#63b8ff" d="M43,-128.99C42.71,-115.5 44.04,-97.17 51.5,-83 63.48,-60.25 86.66,-41.9 104.65,-30.19"/>
<polygon fill="#63b8ff" stroke="#63b8ff" points="39.5,-129.19 43.52,-138.99 46.49,-128.82 39.5,-129.19"/>
</a>
</g>
</g>
<!-- Node4 -->
<g id="Node000004" class="node">
<title>Node4</title>
<g id="a_Node000004"><a xlink:href="structmlir_1_1detail_1_1is__pair.html" target="_top" xlink:title=" ">
<polygon fill="white" stroke="#666666" points="198,-102 61,-102 61,-83 198,-83 198,-102"/>
<text text-anchor="middle" x="129.5" y="-90" font-family="Helvetica,sans-Serif" font-size="10.00">mlir::detail::is_pair&lt; T &gt;</text>
</a>
</g>
</g>
<!-- Node2&#45;&gt;Node4 -->
<g id="edge4_Node000004_Node000002" class="edge">
<title>Node2&#45;&gt;Node4</title>
<g id="a_edge4_Node000004_Node000002"><a xlink:title=" ">
<path fill="none" stroke="#63b8ff" d="M66.69,-133.4C82.28,-123.5 102.63,-110.57 115.88,-102.15"/>
<polygon fill="#63b8ff" stroke="#63b8ff" points="64.72,-130.51 58.16,-138.82 68.47,-136.42 64.72,-130.51"/>
</a>
</g>
</g>
<!-- Node3 -->
<g id="Node000003" class="node">
<title>Node3</title>
<g id="a_Node000003"><a xlink:title=" ">
<polygon fill="white" stroke="#666666" points="300.5,-102 216.5,-102 216.5,-83 300.5,-83 300.5,-102"/>
<text text-anchor="middle" x="258.5" y="-90" font-family="Helvetica,sans-Serif" font-size="10.00">std::true_type</text>
</a>
</g>
</g>
<!-- Node3&#45;&gt;Node1 -->
<g id="edge2_Node000001_Node000003" class="edge">
<title>Node3&#45;&gt;Node1</title>
<g id="a_edge2_Node000001_Node000003"><a xlink:title=" ">
<path fill="none" stroke="#63b8ff" d="M256.11,-72.87C254.09,-64.24 250.36,-54.47 243.5,-48 228.92,-34.25 208.91,-26.33 189.72,-21.8"/>
<polygon fill="#63b8ff" stroke="#63b8ff" points="252.69,-73.63 257.86,-82.88 259.58,-72.42 252.69,-73.63"/>
</a>
</g>
</g>
<!-- Node4&#45;&gt;Node1 -->
<g id="edge3_Node000001_Node000004" class="edge">
<title>Node4&#45;&gt;Node1</title>
<g id="a_edge3_Node000001_Node000004"><a xlink:title=" ">
<path fill="none" stroke="orange" stroke-dasharray="5,2" d="M129.5,-72.57C129.5,-59.43 129.5,-42.18 129.5,-30.21"/>
<polygon fill="orange" stroke="orange" points="126,-72.84 129.5,-82.84 133,-72.84 126,-72.84"/>
</a>
</g>
<text text-anchor="start" x="132.5" y="-53.5" font-family="Helvetica,sans-Serif" font-size="10.00" fill="grey">&lt; std::pair&lt; Ts... &gt; &gt;</text>
</g>
</g>
</svg>
