<?xml version="1.0" encoding="UTF-8" standalone="no"?>
<!DOCTYPE svg PUBLIC "-//W3C//DTD SVG 1.1//EN"
 "http://www.w3.org/Graphics/SVG/1.1/DTD/svg11.dtd">
<!-- Generated by graphviz version 2.43.0 (0)
 -->
<!-- Title: ConsolidateTransposeOptimization Pages: 1 -->
<svg width="1259pt" height="109pt"
 viewBox="0.00 0.00 1259.00 108.82" xmlns="http://www.w3.org/2000/svg" xmlns:xlink="http://www.w3.org/1999/xlink">
<g id="graph0" class="graph" transform="scale(1 1) rotate(0) translate(4 104.82)">
<title>ConsolidateTransposeOptimization</title>
<!-- Node1 -->
<g id="Node000001" class="node">
<title>Node1</title>
<g id="a_Node000001"><a xlink:title=" ">
<polygon fill="#999999" stroke="#666666" points="1251,-51.5 1065,-51.5 1065,-32.5 1251,-32.5 1251,-51.5"/>
<text text-anchor="middle" x="1158" y="-39.5" font-family="Helvetica,sans-Serif" font-size="10.00">ConsolidateTransposeOptimization</text>
</a>
</g>
</g>
<!-- Node2 -->
<g id="Node000002" class="node">
<title>Node2</title>
<g id="a_Node000002"><a xlink:href="structmlir_1_1OpRewritePattern.html" target="_top" xlink:title=" ">
<polygon fill="white" stroke="#666666" points="1028,-57 900,-57 900,-27 1028,-27 1028,-57"/>
<text text-anchor="start" x="908" y="-45" font-family="Helvetica,sans-Serif" font-size="10.00">mlir::OpRewritePattern</text>
<text text-anchor="middle" x="964" y="-34" font-family="Helvetica,sans-Serif" font-size="10.00">&lt; tosa::TransposeOp &gt;</text>
</a>
</g>
</g>
<!-- Node2&#45;&gt;Node1 -->
<g id="edge1_Node000001_Node000002" class="edge">
<title>Node2&#45;&gt;Node1</title>
<g id="a_edge1_Node000001_Node000002"><a xlink:title=" ">
<path fill="none" stroke="#63b8ff" d="M1038.25,-42C1046.99,-42 1056,-42 1064.97,-42"/>
<polygon fill="#63b8ff" stroke="#63b8ff" points="1038.13,-38.5 1028.13,-42 1038.13,-45.5 1038.13,-38.5"/>
</a>
</g>
</g>
<!-- Node3 -->
<g id="Node000003" class="node">
<title>Node3</title>
<g id="a_Node000003"><a xlink:href="structmlir_1_1detail_1_1OpOrInterfaceRewritePatternBase.html" target="_top" xlink:title=" ">
<polygon fill="white" stroke="#666666" points="746,-89.5 601,-89.5 601,-48.5 746,-48.5 746,-89.5"/>
<text text-anchor="start" x="609" y="-77.5" font-family="Helvetica,sans-Serif" font-size="10.00">mlir::detail::OpOrInterface</text>
<text text-anchor="start" x="609" y="-66.5" font-family="Helvetica,sans-Serif" font-size="10.00">RewritePatternBase&lt; tosa</text>
<text text-anchor="middle" x="673.5" y="-55.5" font-family="Helvetica,sans-Serif" font-size="10.00">::TransposeOp &gt;</text>
</a>
</g>
</g>
<!-- Node3&#45;&gt;Node2 -->
<g id="edge2_Node000002_Node000003" class="edge">
<title>Node3&#45;&gt;Node2</title>
<g id="a_edge2_Node000002_Node000003"><a xlink:title=" ">
<path fill="none" stroke="#63b8ff" d="M756.31,-61.34C801.75,-57.09 857.42,-51.88 899.54,-47.94"/>
<polygon fill="#63b8ff" stroke="#63b8ff" points="755.82,-57.87 746.19,-62.29 756.47,-64.84 755.82,-57.87"/>
</a>
</g>
</g>
<!-- Node4 -->
<g id="Node000004" class="node">
<title>Node4</title>
<g id="a_Node000004"><a xlink:href="classmlir_1_1RewritePattern.html" target="_top" xlink:title="RewritePattern is the common base class for all DAG to DAG replacements.">
<polygon fill="white" stroke="#666666" points="228,-72.5 114,-72.5 114,-53.5 228,-53.5 228,-72.5"/>
<text text-anchor="middle" x="171" y="-60.5" font-family="Helvetica,sans-Serif" font-size="10.00">mlir::RewritePattern</text>
</a>
</g>
</g>
<!-- Node4&#45;&gt;Node3 -->
<g id="edge3_Node000003_Node000004" class="edge">
<title>Node4&#45;&gt;Node3</title>
<g id="a_edge3_Node000003_Node000004"><a xlink:title=" ">
<path fill="none" stroke="#63b8ff" d="M211.19,-75.36C227.63,-79.96 247.07,-84.63 265,-87 405.12,-105.5 442.52,-104.51 583,-89 588.86,-88.35 594.89,-87.48 600.92,-86.45"/>
<polygon fill="#63b8ff" stroke="#63b8ff" points="211.95,-71.94 201.38,-72.53 210.01,-78.67 211.95,-71.94"/>
</a>
</g>
</g>
<!-- Node6 -->
<g id="Node000006" class="node">
<title>Node6</title>
<g id="a_Node000006"><a xlink:href="structmlir_1_1detail_1_1OpOrInterfaceRewritePatternBase.html" target="_top" xlink:title="OpOrInterfaceRewritePatternBase is a wrapper around RewritePattern that allows for matching and rewri...">
<polygon fill="white" stroke="#666666" points="447,-78 265,-78 265,-48 447,-48 447,-78"/>
<text text-anchor="start" x="273" y="-66" font-family="Helvetica,sans-Serif" font-size="10.00">mlir::detail::OpOrInterface</text>
<text text-anchor="middle" x="356" y="-55" font-family="Helvetica,sans-Serif" font-size="10.00">RewritePatternBase&lt; SourceOp &gt;</text>
</a>
</g>
</g>
<!-- Node4&#45;&gt;Node6 -->
<g id="edge6_Node000006_Node000004" class="edge">
<title>Node4&#45;&gt;Node6</title>
<g id="a_edge6_Node000006_Node000004"><a xlink:title=" ">
<path fill="none" stroke="#63b8ff" d="M238.62,-63C247.14,-63 255.97,-63 264.78,-63"/>
<polygon fill="#63b8ff" stroke="#63b8ff" points="238.4,-59.5 228.4,-63 238.4,-66.5 238.4,-59.5"/>
</a>
</g>
</g>
<!-- Node8 -->
<g id="Node000008" class="node">
<title>Node8</title>
<g id="a_Node000008"><a xlink:href="structmlir_1_1detail_1_1OpOrInterfaceRewritePatternBase.html" target="_top" xlink:title="OpOrInterfaceRewritePatternBase is a wrapper around RewritePattern that allows for matching and rewri...">
<polygon fill="white" stroke="#666666" points="447,-30 265,-30 265,0 447,0 447,-30"/>
<text text-anchor="start" x="273" y="-18" font-family="Helvetica,sans-Serif" font-size="10.00">mlir::detail::OpOrInterface</text>
<text text-anchor="middle" x="356" y="-7" font-family="Helvetica,sans-Serif" font-size="10.00">RewritePatternBase&lt; SourceOp &gt;</text>
</a>
</g>
</g>
<!-- Node4&#45;&gt;Node8 -->
<g id="edge9_Node000008_Node000004" class="edge">
<title>Node4&#45;&gt;Node8</title>
<g id="a_edge9_Node000008_Node000004"><a xlink:title=" ">
<path fill="none" stroke="#63b8ff" d="M218.53,-50.8C242.57,-44.49 272.12,-36.74 297.57,-30.06"/>
<polygon fill="#63b8ff" stroke="#63b8ff" points="217.38,-47.48 208.59,-53.4 219.15,-54.25 217.38,-47.48"/>
</a>
</g>
</g>
<!-- Node5 -->
<g id="Node000005" class="node">
<title>Node5</title>
<g id="a_Node000005"><a xlink:href="classmlir_1_1Pattern.html" target="_top" xlink:title="This class contains all of the data related to a pattern, but does not contain any methods or logic f...">
<polygon fill="white" stroke="#666666" points="77,-72.5 0,-72.5 0,-53.5 77,-53.5 77,-72.5"/>
<text text-anchor="middle" x="38.5" y="-60.5" font-family="Helvetica,sans-Serif" font-size="10.00">mlir::Pattern</text>
</a>
</g>
</g>
<!-- Node5&#45;&gt;Node4 -->
<g id="edge4_Node000004_Node000005" class="edge">
<title>Node5&#45;&gt;Node4</title>
<g id="a_edge4_Node000004_Node000005"><a xlink:title=" ">
<path fill="none" stroke="#63b8ff" d="M87.47,-63C96.06,-63 105.09,-63 113.89,-63"/>
<polygon fill="#63b8ff" stroke="#63b8ff" points="87.25,-59.5 77.25,-63 87.25,-66.5 87.25,-59.5"/>
</a>
</g>
</g>
<!-- Node6&#45;&gt;Node3 -->
<g id="edge5_Node000003_Node000006" class="edge">
<title>Node6&#45;&gt;Node3</title>
<g id="a_edge5_Node000003_Node000006"><a xlink:title=" ">
<path fill="none" stroke="orange" stroke-dasharray="5,2" d="M457.54,-64.91C504.16,-65.8 558.48,-66.83 600.86,-67.64"/>
<polygon fill="orange" stroke="orange" points="457.47,-61.41 447.41,-64.72 457.34,-68.41 457.47,-61.41"/>
</a>
</g>
<text text-anchor="start" x="468" y="-73.5" font-family="Helvetica,sans-Serif" font-size="10.00" fill="grey">&lt; tosa::TransposeOp &gt;</text>
</g>
<!-- Node7 -->
<g id="Node000007" class="node">
<title>Node7</title>
<g id="a_Node000007"><a xlink:href="structmlir_1_1OpRewritePattern.html" target="_top" xlink:title="OpRewritePattern is a wrapper around RewritePattern that allows for matching and rewriting against an...">
<polygon fill="white" stroke="#666666" points="737.5,-30 609.5,-30 609.5,0 737.5,0 737.5,-30"/>
<text text-anchor="start" x="617.5" y="-18" font-family="Helvetica,sans-Serif" font-size="10.00">mlir::OpRewritePattern</text>
<text text-anchor="middle" x="673.5" y="-7" font-family="Helvetica,sans-Serif" font-size="10.00">&lt; SourceOp &gt;</text>
</a>
</g>
</g>
<!-- Node7&#45;&gt;Node2 -->
<g id="edge7_Node000002_Node000007" class="edge">
<title>Node7&#45;&gt;Node2</title>
<g id="a_edge7_Node000002_Node000007"><a xlink:title=" ">
<path fill="none" stroke="orange" stroke-dasharray="5,2" d="M747.89,-18.31C787.66,-20.51 837.61,-23.95 882,-29 887.8,-29.66 893.82,-30.44 899.84,-31.29"/>
<polygon fill="orange" stroke="orange" points="747.92,-14.8 737.75,-17.76 747.54,-21.79 747.92,-14.8"/>
</a>
</g>
<text text-anchor="start" x="767" y="-34.5" font-family="Helvetica,sans-Serif" font-size="10.00" fill="grey">&lt; tosa::TransposeOp &gt;</text>
</g>
<!-- Node8&#45;&gt;Node7 -->
<g id="edge8_Node000007_Node000008" class="edge">
<title>Node8&#45;&gt;Node7</title>
<g id="a_edge8_Node000007_Node000008"><a xlink:title=" ">
<path fill="none" stroke="#63b8ff" d="M457.55,-15C507.25,-15 565.71,-15 609.11,-15"/>
<polygon fill="#63b8ff" stroke="#63b8ff" points="457.41,-11.5 447.41,-15 457.41,-18.5 457.41,-11.5"/>
</a>
</g>
</g>
</g>
</svg>
