<?xml version="1.0" encoding="UTF-8" standalone="no"?>
<!DOCTYPE svg PUBLIC "-//W3C//DTD SVG 1.1//EN"
 "http://www.w3.org/Graphics/SVG/1.1/DTD/svg11.dtd">
<!-- Generated by graphviz version 2.43.0 (0)
 -->
<!-- Title: MultiBlockExecuteInliner Pages: 1 -->
<svg width="1280pt" height="106pt"
 viewBox="0.00 0.00 1280.00 105.65" xmlns="http://www.w3.org/2000/svg" xmlns:xlink="http://www.w3.org/1999/xlink">
<g id="graph0" class="graph" transform="scale(1 1) rotate(0) translate(4 101.65)">
<title>MultiBlockExecuteInliner</title>
<!-- Node1 -->
<g id="Node000001" class="node">
<title>Node1</title>
<g id="a_Node000001"><a xlink:title=" ">
<polygon fill="#999999" stroke="#666666" points="1272,-48.5 1135,-48.5 1135,-29.5 1272,-29.5 1272,-48.5"/>
<text text-anchor="middle" x="1203.5" y="-36.5" font-family="Helvetica,sans-Serif" font-size="10.00">MultiBlockExecuteInliner</text>
</a>
</g>
</g>
<!-- Node2 -->
<g id="Node000002" class="node">
<title>Node2</title>
<g id="a_Node000002"><a xlink:href="structmlir_1_1OpRewritePattern.html" target="_top" xlink:title=" ">
<polygon fill="white" stroke="#666666" points="1098,-54 970,-54 970,-24 1098,-24 1098,-54"/>
<text text-anchor="start" x="978" y="-42" font-family="Helvetica,sans-Serif" font-size="10.00">mlir::OpRewritePattern</text>
<text text-anchor="middle" x="1034" y="-31" font-family="Helvetica,sans-Serif" font-size="10.00">&lt; ExecuteRegionOp &gt;</text>
</a>
</g>
</g>
<!-- Node2&#45;&gt;Node1 -->
<g id="edge1_Node000001_Node000002" class="edge">
<title>Node2&#45;&gt;Node1</title>
<g id="a_edge1_Node000001_Node000002"><a xlink:title=" ">
<path fill="none" stroke="#63b8ff" d="M1108.52,-39C1117.29,-39 1126.21,-39 1134.89,-39"/>
<polygon fill="#63b8ff" stroke="#63b8ff" points="1108.32,-35.5 1098.32,-39 1108.32,-42.5 1108.32,-35.5"/>
</a>
</g>
</g>
<!-- Node3 -->
<g id="Node000003" class="node">
<title>Node3</title>
<g id="a_Node000003"><a xlink:href="structmlir_1_1detail_1_1OpOrInterfaceRewritePatternBase.html" target="_top" xlink:title=" ">
<polygon fill="white" stroke="#666666" points="819,-78 598,-78 598,-48 819,-48 819,-78"/>
<text text-anchor="start" x="606" y="-66" font-family="Helvetica,sans-Serif" font-size="10.00">mlir::detail::OpOrInterface</text>
<text text-anchor="middle" x="708.5" y="-55" font-family="Helvetica,sans-Serif" font-size="10.00">RewritePatternBase&lt; ExecuteRegionOp &gt;</text>
</a>
</g>
</g>
<!-- Node3&#45;&gt;Node2 -->
<g id="edge2_Node000002_Node000003" class="edge">
<title>Node3&#45;&gt;Node2</title>
<g id="a_edge2_Node000002_Node000003"><a xlink:title=" ">
<path fill="none" stroke="#63b8ff" d="M829.12,-54.13C876.85,-50.58 929.84,-46.65 969.83,-43.69"/>
<polygon fill="#63b8ff" stroke="#63b8ff" points="828.74,-50.64 819.02,-54.87 829.25,-57.63 828.74,-50.64"/>
</a>
</g>
</g>
<!-- Node4 -->
<g id="Node000004" class="node">
<title>Node4</title>
<g id="a_Node000004"><a xlink:href="classmlir_1_1RewritePattern.html" target="_top" xlink:title="RewritePattern is the common base class for all DAG to DAG replacements.">
<polygon fill="white" stroke="#666666" points="228,-72.5 114,-72.5 114,-53.5 228,-53.5 228,-72.5"/>
<text text-anchor="middle" x="171" y="-60.5" font-family="Helvetica,sans-Serif" font-size="10.00">mlir::RewritePattern</text>
</a>
</g>
</g>
<!-- Node4&#45;&gt;Node3 -->
<g id="edge3_Node000003_Node000004" class="edge">
<title>Node4&#45;&gt;Node3</title>
<g id="a_edge3_Node000003_Node000004"><a xlink:title=" ">
<path fill="none" stroke="#63b8ff" d="M211.18,-75.45C227.62,-80.06 247.05,-84.72 265,-87 403.89,-104.63 440.6,-96.99 580,-84 595.19,-82.58 611.3,-80.44 626.78,-78.05"/>
<polygon fill="#63b8ff" stroke="#63b8ff" points="211.94,-72.03 201.37,-72.61 210,-78.76 211.94,-72.03"/>
</a>
</g>
</g>
<!-- Node6 -->
<g id="Node000006" class="node">
<title>Node6</title>
<g id="a_Node000006"><a xlink:href="structmlir_1_1detail_1_1OpOrInterfaceRewritePatternBase.html" target="_top" xlink:title="OpOrInterfaceRewritePatternBase is a wrapper around RewritePattern that allows for matching and rewri...">
<polygon fill="white" stroke="#666666" points="447,-78 265,-78 265,-48 447,-48 447,-78"/>
<text text-anchor="start" x="273" y="-66" font-family="Helvetica,sans-Serif" font-size="10.00">mlir::detail::OpOrInterface</text>
<text text-anchor="middle" x="356" y="-55" font-family="Helvetica,sans-Serif" font-size="10.00">RewritePatternBase&lt; SourceOp &gt;</text>
</a>
</g>
</g>
<!-- Node4&#45;&gt;Node6 -->
<g id="edge6_Node000006_Node000004" class="edge">
<title>Node4&#45;&gt;Node6</title>
<g id="a_edge6_Node000006_Node000004"><a xlink:title=" ">
<path fill="none" stroke="#63b8ff" d="M238.62,-63C247.14,-63 255.97,-63 264.78,-63"/>
<polygon fill="#63b8ff" stroke="#63b8ff" points="238.4,-59.5 228.4,-63 238.4,-66.5 238.4,-59.5"/>
</a>
</g>
</g>
<!-- Node8 -->
<g id="Node000008" class="node">
<title>Node8</title>
<g id="a_Node000008"><a xlink:href="structmlir_1_1detail_1_1OpOrInterfaceRewritePatternBase.html" target="_top" xlink:title="OpOrInterfaceRewritePatternBase is a wrapper around RewritePattern that allows for matching and rewri...">
<polygon fill="white" stroke="#666666" points="447,-30 265,-30 265,0 447,0 447,-30"/>
<text text-anchor="start" x="273" y="-18" font-family="Helvetica,sans-Serif" font-size="10.00">mlir::detail::OpOrInterface</text>
<text text-anchor="middle" x="356" y="-7" font-family="Helvetica,sans-Serif" font-size="10.00">RewritePatternBase&lt; SourceOp &gt;</text>
</a>
</g>
</g>
<!-- Node4&#45;&gt;Node8 -->
<g id="edge9_Node000008_Node000004" class="edge">
<title>Node4&#45;&gt;Node8</title>
<g id="a_edge9_Node000008_Node000004"><a xlink:title=" ">
<path fill="none" stroke="#63b8ff" d="M218.53,-50.8C242.57,-44.49 272.12,-36.74 297.57,-30.06"/>
<polygon fill="#63b8ff" stroke="#63b8ff" points="217.38,-47.48 208.59,-53.4 219.15,-54.25 217.38,-47.48"/>
</a>
</g>
</g>
<!-- Node5 -->
<g id="Node000005" class="node">
<title>Node5</title>
<g id="a_Node000005"><a xlink:href="classmlir_1_1Pattern.html" target="_top" xlink:title="This class contains all of the data related to a pattern, but does not contain any methods or logic f...">
<polygon fill="white" stroke="#666666" points="77,-72.5 0,-72.5 0,-53.5 77,-53.5 77,-72.5"/>
<text text-anchor="middle" x="38.5" y="-60.5" font-family="Helvetica,sans-Serif" font-size="10.00">mlir::Pattern</text>
</a>
</g>
</g>
<!-- Node5&#45;&gt;Node4 -->
<g id="edge4_Node000004_Node000005" class="edge">
<title>Node5&#45;&gt;Node4</title>
<g id="a_edge4_Node000004_Node000005"><a xlink:title=" ">
<path fill="none" stroke="#63b8ff" d="M87.47,-63C96.06,-63 105.09,-63 113.89,-63"/>
<polygon fill="#63b8ff" stroke="#63b8ff" points="87.25,-59.5 77.25,-63 87.25,-66.5 87.25,-59.5"/>
</a>
</g>
</g>
<!-- Node6&#45;&gt;Node3 -->
<g id="edge5_Node000003_Node000006" class="edge">
<title>Node6&#45;&gt;Node3</title>
<g id="a_edge5_Node000003_Node000006"><a xlink:title=" ">
<path fill="none" stroke="orange" stroke-dasharray="5,2" d="M457.38,-63C501.29,-63 552.93,-63 597.84,-63"/>
<polygon fill="orange" stroke="orange" points="457.26,-59.5 447.26,-63 457.26,-66.5 457.26,-59.5"/>
</a>
</g>
<text text-anchor="start" x="468.5" y="-68.5" font-family="Helvetica,sans-Serif" font-size="10.00" fill="grey">&lt; ExecuteRegionOp &gt;</text>
</g>
<!-- Node7 -->
<g id="Node000007" class="node">
<title>Node7</title>
<g id="a_Node000007"><a xlink:href="structmlir_1_1OpRewritePattern.html" target="_top" xlink:title="OpRewritePattern is a wrapper around RewritePattern that allows for matching and rewriting against an...">
<polygon fill="white" stroke="#666666" points="772.5,-30 644.5,-30 644.5,0 772.5,0 772.5,-30"/>
<text text-anchor="start" x="652.5" y="-18" font-family="Helvetica,sans-Serif" font-size="10.00">mlir::OpRewritePattern</text>
<text text-anchor="middle" x="708.5" y="-7" font-family="Helvetica,sans-Serif" font-size="10.00">&lt; SourceOp &gt;</text>
</a>
</g>
</g>
<!-- Node7&#45;&gt;Node2 -->
<g id="edge7_Node000002_Node000007" class="edge">
<title>Node7&#45;&gt;Node2</title>
<g id="a_edge7_Node000002_Node000007"><a xlink:title=" ">
<path fill="none" stroke="orange" stroke-dasharray="5,2" d="M782.76,-15.55C830.96,-16.52 895.38,-18.97 952,-25 957.82,-25.62 963.85,-26.4 969.88,-27.27"/>
<polygon fill="orange" stroke="orange" points="782.79,-12.05 772.72,-15.36 782.66,-19.05 782.79,-12.05"/>
</a>
</g>
<text text-anchor="start" x="840.5" y="-30.5" font-family="Helvetica,sans-Serif" font-size="10.00" fill="grey">&lt; ExecuteRegionOp &gt;</text>
</g>
<!-- Node8&#45;&gt;Node7 -->
<g id="edge8_Node000007_Node000008" class="edge">
<title>Node8&#45;&gt;Node7</title>
<g id="a_edge8_Node000007_Node000008"><a xlink:title=" ">
<path fill="none" stroke="#63b8ff" d="M457.55,-15C517.74,-15 592.38,-15 644.35,-15"/>
<polygon fill="#63b8ff" stroke="#63b8ff" points="457.26,-11.5 447.26,-15 457.26,-18.5 457.26,-11.5"/>
</a>
</g>
</g>
</g>
</svg>
