<?xml version="1.0" encoding="UTF-8" standalone="no"?>
<!DOCTYPE svg PUBLIC "-//W3C//DTD SVG 1.1//EN"
 "http://www.w3.org/Graphics/SVG/1.1/DTD/svg11.dtd">
<!-- Generated by graphviz version 2.43.0 (0)
 -->
<!-- Title: mlir::detail::is_complex_t&lt; T &gt; Pages: 1 -->
<svg width="622pt" height="94pt"
 viewBox="0.00 0.00 622.00 94.00" xmlns="http://www.w3.org/2000/svg" xmlns:xlink="http://www.w3.org/1999/xlink">
<g id="graph0" class="graph" transform="scale(1 1) rotate(0) translate(4 90)">
<title>mlir::detail::is_complex_t&lt; T &gt;</title>
<!-- Node1 -->
<g id="Node000001" class="node">
<title>Node1</title>
<g id="a_Node000001"><a xlink:title="Type trait detector that checks if a given type T is a complex type.">
<polygon fill="#999999" stroke="#666666" points="257,-54 126,-54 126,-24 257,-24 257,-54"/>
<text text-anchor="start" x="134" y="-42" font-family="Helvetica,sans-Serif" font-size="10.00">mlir::detail::is_complex</text>
<text text-anchor="middle" x="191.5" y="-31" font-family="Helvetica,sans-Serif" font-size="10.00">_t&lt; T &gt;</text>
</a>
</g>
</g>
<!-- Node3 -->
<g id="Node000003" class="node">
<title>Node3</title>
<g id="a_Node000003"><a xlink:href="structmlir_1_1detail_1_1is__complex__t_3_01mlir_1_1NonFloatComplex_3_01T_01_4_01_4.html" target="_top" xlink:title=" ">
<polygon fill="white" stroke="#666666" points="614,-78 424,-78 424,-48 614,-48 614,-78"/>
<text text-anchor="start" x="432" y="-66" font-family="Helvetica,sans-Serif" font-size="10.00">mlir::detail::is_complex</text>
<text text-anchor="middle" x="519" y="-55" font-family="Helvetica,sans-Serif" font-size="10.00">_t&lt; mlir::NonFloatComplex&lt; T &gt; &gt;</text>
</a>
</g>
</g>
<!-- Node1&#45;&gt;Node3 -->
<g id="edge2_Node000001_Node000003" class="edge">
<title>Node1&#45;&gt;Node3</title>
<g id="a_edge2_Node000001_Node000003"><a xlink:title=" ">
<path fill="none" stroke="orange" stroke-dasharray="5,2" d="M267.21,-44.51C313.75,-47.94 374.02,-52.38 423.82,-56.06"/>
<polygon fill="orange" stroke="orange" points="267.43,-41.02 257.2,-43.77 266.91,-48 267.43,-41.02"/>
</a>
</g>
<text text-anchor="start" x="278.5" y="-75" font-family="Helvetica,sans-Serif" font-size="10.00" fill="grey">&lt; mlir::NonFloatComplex</text>
<text text-anchor="start" x="278.5" y="-60" font-family="Helvetica,sans-Serif" font-size="10.00" fill="grey">  &lt; T &gt; &gt;</text>
</g>
<!-- Node4 -->
<g id="Node000004" class="node">
<title>Node4</title>
<g id="a_Node000004"><a xlink:href="structmlir_1_1detail_1_1is__complex__t_3_01std_1_1complex_3_01T_01_4_01_4.html" target="_top" xlink:title=" ">
<polygon fill="white" stroke="#666666" points="589,-30 449,-30 449,0 589,0 589,-30"/>
<text text-anchor="start" x="457" y="-18" font-family="Helvetica,sans-Serif" font-size="10.00">mlir::detail::is_complex</text>
<text text-anchor="middle" x="519" y="-7" font-family="Helvetica,sans-Serif" font-size="10.00">_t&lt; std::complex&lt; T &gt; &gt;</text>
</a>
</g>
</g>
<!-- Node1&#45;&gt;Node4 -->
<g id="edge3_Node000001_Node000004" class="edge">
<title>Node1&#45;&gt;Node4</title>
<g id="a_edge3_Node000001_Node000004"><a xlink:title=" ">
<path fill="none" stroke="orange" stroke-dasharray="5,2" d="M267.3,-24.92C269.9,-24.58 272.47,-24.28 275,-24 333.44,-17.64 400.2,-15.53 448.94,-14.94"/>
<polygon fill="orange" stroke="orange" points="266.64,-21.48 257.22,-26.33 267.61,-28.41 266.64,-21.48"/>
</a>
</g>
<text text-anchor="start" x="283.5" y="-29.5" font-family="Helvetica,sans-Serif" font-size="10.00" fill="grey">&lt; std::complex&lt; T &gt; &gt;</text>
</g>
<!-- Node2 -->
<g id="Node000002" class="node">
<title>Node2</title>
<g id="a_Node000002"><a xlink:title=" ">
<polygon fill="white" stroke="#666666" points="89,-48.5 0,-48.5 0,-29.5 89,-29.5 89,-48.5"/>
<text text-anchor="middle" x="44.5" y="-36.5" font-family="Helvetica,sans-Serif" font-size="10.00">std::false_type</text>
</a>
</g>
</g>
<!-- Node2&#45;&gt;Node1 -->
<g id="edge1_Node000001_Node000002" class="edge">
<title>Node2&#45;&gt;Node1</title>
<g id="a_edge1_Node000001_Node000002"><a xlink:title=" ">
<path fill="none" stroke="#63b8ff" d="M99.04,-39C107.76,-39 116.89,-39 125.85,-39"/>
<polygon fill="#63b8ff" stroke="#63b8ff" points="99,-35.5 89,-39 99,-42.5 99,-35.5"/>
</a>
</g>
</g>
</g>
</svg>
