<?xml version="1.0" encoding="UTF-8" standalone="no"?>
<!DOCTYPE svg PUBLIC "-//W3C//DTD SVG 1.1//EN"
 "http://www.w3.org/Graphics/SVG/1.1/DTD/svg11.dtd">
<!-- Generated by graphviz version 2.43.0 (0)
 -->
<!-- Title: mlir::quant::detail::QuantizedTypeStorage Pages: 1 -->
<svg width="650pt" height="258pt"
 viewBox="0.00 0.00 650.00 258.00" xmlns="http://www.w3.org/2000/svg" xmlns:xlink="http://www.w3.org/1999/xlink">
<g id="graph0" class="graph" transform="scale(1 1) rotate(0) translate(4 254)">
<title>mlir::quant::detail::QuantizedTypeStorage</title>
<!-- Node1 -->
<g id="node1" class="node">
<title>Node1</title>
<g id="a_node1"><a xlink:title=" ">
<polygon fill="#bfbfbf" stroke="black" points="292,-115.5 292,-145.5 424,-145.5 424,-115.5 292,-115.5"/>
<text text-anchor="start" x="300" y="-133.5" font-family="Helvetica,sans-Serif" font-size="10.00">mlir::quant::detail</text>
<text text-anchor="middle" x="358" y="-122.5" font-family="Helvetica,sans-Serif" font-size="10.00">::QuantizedTypeStorage</text>
</a>
</g>
</g>
<!-- Node4 -->
<g id="node4" class="node">
<title>Node4</title>
<g id="a_node4"><a xlink:href="structmlir_1_1quant_1_1detail_1_1AnyQuantizedTypeStorage.html" target="_top" xlink:title=" ">
<polygon fill="none" stroke="black" points="475.5,-219.5 475.5,-249.5 626.5,-249.5 626.5,-219.5 475.5,-219.5"/>
<text text-anchor="start" x="483.5" y="-237.5" font-family="Helvetica,sans-Serif" font-size="10.00">mlir::quant::detail</text>
<text text-anchor="middle" x="551" y="-226.5" font-family="Helvetica,sans-Serif" font-size="10.00">::AnyQuantizedTypeStorage</text>
</a>
</g>
</g>
<!-- Node1&#45;&gt;Node4 -->
<g id="edge3" class="edge">
<title>Node1&#45;&gt;Node4</title>
<path fill="none" stroke="midnightblue" d="M381.41,-152.76C400.72,-170.76 430.13,-195.51 460,-210.5 466.79,-213.91 474.12,-216.88 481.57,-219.45"/>
<polygon fill="midnightblue" stroke="midnightblue" points="383.69,-150.09 374.03,-145.74 378.87,-155.17 383.69,-150.09"/>
</g>
<!-- Node5 -->
<g id="node5" class="node">
<title>Node5</title>
<g id="a_node5"><a xlink:href="structmlir_1_1quant_1_1detail_1_1CalibratedQuantizedTypeStorage.html" target="_top" xlink:title=" ">
<polygon fill="none" stroke="black" points="460,-170.5 460,-200.5 642,-200.5 642,-170.5 460,-170.5"/>
<text text-anchor="start" x="468" y="-188.5" font-family="Helvetica,sans-Serif" font-size="10.00">mlir::quant::detail</text>
<text text-anchor="middle" x="551" y="-177.5" font-family="Helvetica,sans-Serif" font-size="10.00">::CalibratedQuantizedTypeStorage</text>
</a>
</g>
</g>
<!-- Node1&#45;&gt;Node5 -->
<g id="edge4" class="edge">
<title>Node1&#45;&gt;Node5</title>
<path fill="none" stroke="midnightblue" d="M418.74,-148.44C432.29,-152.45 446.63,-156.66 460,-160.5 471.38,-163.77 483.58,-167.21 495.22,-170.45"/>
<polygon fill="midnightblue" stroke="midnightblue" points="419.62,-145.05 409.04,-145.55 417.63,-151.76 419.62,-145.05"/>
</g>
<!-- Node6 -->
<g id="node6" class="node">
<title>Node6</title>
<g id="a_node6"><a xlink:href="structmlir_1_1quant_1_1detail_1_1UniformQuantizedPerAxisTypeStorage.html" target="_top" xlink:title=" ">
<polygon fill="none" stroke="black" points="465.5,-110 465.5,-151 636.5,-151 636.5,-110 465.5,-110"/>
<text text-anchor="start" x="473.5" y="-139" font-family="Helvetica,sans-Serif" font-size="10.00">mlir::quant::detail</text>
<text text-anchor="start" x="473.5" y="-128" font-family="Helvetica,sans-Serif" font-size="10.00">::UniformQuantizedPerAxisType</text>
<text text-anchor="middle" x="551" y="-117" font-family="Helvetica,sans-Serif" font-size="10.00">Storage</text>
</a>
</g>
</g>
<!-- Node1&#45;&gt;Node6 -->
<g id="edge5" class="edge">
<title>Node1&#45;&gt;Node6</title>
<path fill="none" stroke="midnightblue" d="M434.23,-130.5C444.38,-130.5 454.86,-130.5 465.17,-130.5"/>
<polygon fill="midnightblue" stroke="midnightblue" points="434.2,-127 424.2,-130.5 434.2,-134 434.2,-127"/>
</g>
<!-- Node7 -->
<g id="node7" class="node">
<title>Node7</title>
<g id="a_node7"><a xlink:href="structmlir_1_1quant_1_1detail_1_1UniformQuantizedSubChannelTypeStorage.html" target="_top" xlink:title=" ">
<polygon fill="none" stroke="black" points="466,-50 466,-91 636,-91 636,-50 466,-50"/>
<text text-anchor="start" x="474" y="-79" font-family="Helvetica,sans-Serif" font-size="10.00">mlir::quant::detail</text>
<text text-anchor="start" x="474" y="-68" font-family="Helvetica,sans-Serif" font-size="10.00">::UniformQuantizedSubChannel</text>
<text text-anchor="middle" x="551" y="-57" font-family="Helvetica,sans-Serif" font-size="10.00">TypeStorage</text>
</a>
</g>
</g>
<!-- Node1&#45;&gt;Node7 -->
<g id="edge6" class="edge">
<title>Node1&#45;&gt;Node7</title>
<path fill="none" stroke="midnightblue" d="M416.78,-112.35C438.14,-105.64 462.5,-97.99 484.5,-91.08"/>
<polygon fill="midnightblue" stroke="midnightblue" points="415.69,-109.02 407.2,-115.36 417.79,-115.7 415.69,-109.02"/>
</g>
<!-- Node8 -->
<g id="node8" class="node">
<title>Node8</title>
<g id="a_node8"><a xlink:href="structmlir_1_1quant_1_1detail_1_1UniformQuantizedTypeStorage.html" target="_top" xlink:title=" ">
<polygon fill="none" stroke="black" points="465,-0.5 465,-30.5 637,-30.5 637,-0.5 465,-0.5"/>
<text text-anchor="start" x="473" y="-18.5" font-family="Helvetica,sans-Serif" font-size="10.00">mlir::quant::detail</text>
<text text-anchor="middle" x="551" y="-7.5" font-family="Helvetica,sans-Serif" font-size="10.00">::UniformQuantizedTypeStorage</text>
</a>
</g>
</g>
<!-- Node1&#45;&gt;Node8 -->
<g id="edge7" class="edge">
<title>Node1&#45;&gt;Node8</title>
<path fill="none" stroke="midnightblue" d="M378.7,-107.82C397.61,-87.39 427.97,-57.98 460,-40.5 466.98,-36.69 474.58,-33.43 482.31,-30.64"/>
<polygon fill="midnightblue" stroke="midnightblue" points="375.92,-105.67 371.79,-115.43 381.11,-110.37 375.92,-105.67"/>
</g>
<!-- Node2 -->
<g id="node2" class="node">
<title>Node2</title>
<g id="a_node2"><a xlink:href="classmlir_1_1TypeStorage.html" target="_top" xlink:title="Base storage class appearing in a Type.">
<polygon fill="none" stroke="black" points="154,-121 154,-140 256,-140 256,-121 154,-121"/>
<text text-anchor="middle" x="205" y="-128" font-family="Helvetica,sans-Serif" font-size="10.00">mlir::TypeStorage</text>
</a>
</g>
</g>
<!-- Node2&#45;&gt;Node1 -->
<g id="edge1" class="edge">
<title>Node2&#45;&gt;Node1</title>
<path fill="none" stroke="midnightblue" d="M266.36,-130.5C274.76,-130.5 283.42,-130.5 291.9,-130.5"/>
<polygon fill="midnightblue" stroke="midnightblue" points="266.28,-127 256.28,-130.5 266.28,-134 266.28,-127"/>
</g>
<!-- Node3 -->
<g id="node3" class="node">
<title>Node3</title>
<g id="a_node3"><a xlink:href="classmlir_1_1StorageUniquer_1_1BaseStorage.html" target="_top" xlink:title="This class acts as the base storage that all storage classes must derived from.">
<polygon fill="none" stroke="black" points="0,-115.5 0,-145.5 118,-145.5 118,-115.5 0,-115.5"/>
<text text-anchor="start" x="8" y="-133.5" font-family="Helvetica,sans-Serif" font-size="10.00">mlir::StorageUniquer</text>
<text text-anchor="middle" x="59" y="-122.5" font-family="Helvetica,sans-Serif" font-size="10.00">::BaseStorage</text>
</a>
</g>
</g>
<!-- Node3&#45;&gt;Node2 -->
<g id="edge2" class="edge">
<title>Node3&#45;&gt;Node2</title>
<path fill="none" stroke="midnightblue" d="M128.26,-130.5C136.92,-130.5 145.65,-130.5 153.96,-130.5"/>
<polygon fill="midnightblue" stroke="midnightblue" points="128.16,-127 118.16,-130.5 128.16,-134 128.16,-127"/>
</g>
</g>
</svg>
