<?xml version="1.0" encoding="UTF-8" standalone="no"?>
<!DOCTYPE svg PUBLIC "-//W3C//DTD SVG 1.1//EN"
 "http://www.w3.org/Graphics/SVG/1.1/DTD/svg11.dtd">
<!-- Generated by graphviz version 2.43.0 (0)
 -->
<!-- Title: ConvertLoad Pages: 1 -->
<svg width="367pt" height="244pt"
 viewBox="0.00 0.00 367.00 244.00" xmlns="http://www.w3.org/2000/svg" xmlns:xlink="http://www.w3.org/1999/xlink">
<g id="graph0" class="graph" transform="scale(1 1) rotate(0) translate(4 240)">
<title>ConvertLoad</title>
<!-- Node1 -->
<g id="Node000001" class="node">
<title>Node1</title>
<g id="a_Node000001"><a xlink:title=" ">
<polygon fill="#999999" stroke="#666666" points="111,-19 33,-19 33,0 111,0 111,-19"/>
<text text-anchor="middle" x="72" y="-7" font-family="Helvetica,sans-Serif" font-size="10.00">ConvertLoad</text>
</a>
</g>
</g>
<!-- Node2 -->
<g id="Node000002" class="node">
<title>Node2</title>
<g id="a_Node000002"><a xlink:title=" ">
<polygon fill="white" stroke="#666666" points="120,-86 0,-86 0,-56 120,-56 120,-86"/>
<text text-anchor="start" x="8" y="-74" font-family="Helvetica,sans-Serif" font-size="10.00">OpConversionPattern</text>
<text text-anchor="middle" x="60" y="-63" font-family="Helvetica,sans-Serif" font-size="10.00">&lt; memref::LoadOp &gt;</text>
</a>
</g>
</g>
<!-- Node2&#45;&gt;Node1 -->
<g id="edge1_Node000001_Node000002" class="edge">
<title>Node2&#45;&gt;Node1</title>
<g id="a_edge1_Node000001_Node000002"><a xlink:title=" ">
<path fill="none" stroke="#63b8ff" d="M64.82,-46.09C66.74,-36.58 68.83,-26.23 70.25,-19.16"/>
<polygon fill="#63b8ff" stroke="#63b8ff" points="61.39,-45.4 62.84,-55.9 68.25,-46.79 61.39,-45.4"/>
</a>
</g>
</g>
<!-- Node3 -->
<g id="Node000003" class="node">
<title>Node3</title>
<g id="a_Node000003"><a xlink:href="classConvertAliasResource.html" target="_top" xlink:title=" ">
<polygon fill="white" stroke="#666666" points="262,-86 138,-86 138,-56 262,-56 262,-86"/>
<text text-anchor="start" x="146" y="-74" font-family="Helvetica,sans-Serif" font-size="10.00">ConvertAliasResource</text>
<text text-anchor="middle" x="200" y="-63" font-family="Helvetica,sans-Serif" font-size="10.00">&lt; spirv::LoadOp &gt;</text>
</a>
</g>
</g>
<!-- Node3&#45;&gt;Node1 -->
<g id="edge2_Node000001_Node000003" class="edge">
<title>Node3&#45;&gt;Node1</title>
<g id="a_edge2_Node000001_Node000003"><a xlink:title=" ">
<path fill="none" stroke="#63b8ff" d="M160.38,-51.58C137.13,-40.78 108.83,-27.62 90.63,-19.16"/>
<polygon fill="#63b8ff" stroke="#63b8ff" points="159.12,-54.86 169.67,-55.9 162.07,-48.51 159.12,-54.86"/>
</a>
</g>
</g>
<!-- Node4 -->
<g id="Node000004" class="node">
<title>Node4</title>
<g id="a_Node000004"><a xlink:title=" ">
<polygon fill="white" stroke="#666666" points="216.5,-169 97.5,-169 97.5,-139 216.5,-139 216.5,-169"/>
<text text-anchor="start" x="105.5" y="-157" font-family="Helvetica,sans-Serif" font-size="10.00">OpConversionPattern</text>
<text text-anchor="middle" x="157" y="-146" font-family="Helvetica,sans-Serif" font-size="10.00">&lt; spirv::LoadOp &gt;</text>
</a>
</g>
</g>
<!-- Node4&#45;&gt;Node3 -->
<g id="edge3_Node000003_Node000004" class="edge">
<title>Node4&#45;&gt;Node3</title>
<g id="a_edge3_Node000003_Node000004"><a xlink:title=" ">
<path fill="none" stroke="#63b8ff" d="M169.31,-129.81C176.77,-115.75 186.06,-98.26 192.45,-86.22"/>
<polygon fill="#63b8ff" stroke="#63b8ff" points="166.09,-128.42 164.49,-138.89 172.27,-131.7 166.09,-128.42"/>
</a>
</g>
</g>
<!-- Node5 -->
<g id="Node000005" class="node">
<title>Node5</title>
<g id="a_Node000005"><a xlink:href="classConvertAliasResource.html" target="_top" xlink:title=" ">
<polygon fill="white" stroke="#666666" points="359,-169 235,-169 235,-139 359,-139 359,-169"/>
<text text-anchor="start" x="243" y="-157" font-family="Helvetica,sans-Serif" font-size="10.00">ConvertAliasResource</text>
<text text-anchor="middle" x="297" y="-146" font-family="Helvetica,sans-Serif" font-size="10.00">&lt; OpTy &gt;</text>
</a>
</g>
</g>
<!-- Node5&#45;&gt;Node3 -->
<g id="edge4_Node000003_Node000005" class="edge">
<title>Node5&#45;&gt;Node3</title>
<g id="a_edge4_Node000003_Node000005"><a xlink:title=" ">
<path fill="none" stroke="orange" stroke-dasharray="5,2" d="M272.1,-132.21C254.83,-117.79 232.28,-98.95 217.03,-86.22"/>
<polygon fill="orange" stroke="orange" points="270.18,-135.17 280.1,-138.89 274.67,-129.79 270.18,-135.17"/>
</a>
</g>
<text text-anchor="start" x="260.5" y="-109.5" font-family="Helvetica,sans-Serif" font-size="10.00" fill="grey">&lt; spirv::LoadOp &gt;</text>
</g>
<!-- Node6 -->
<g id="Node000006" class="node">
<title>Node6</title>
<g id="a_Node000006"><a xlink:title=" ">
<polygon fill="white" stroke="#666666" points="356.5,-236 237.5,-236 237.5,-206 356.5,-206 356.5,-236"/>
<text text-anchor="start" x="245.5" y="-224" font-family="Helvetica,sans-Serif" font-size="10.00">OpConversionPattern</text>
<text text-anchor="middle" x="297" y="-213" font-family="Helvetica,sans-Serif" font-size="10.00">&lt; OpTy &gt;</text>
</a>
</g>
</g>
<!-- Node6&#45;&gt;Node5 -->
<g id="edge5_Node000005_Node000006" class="edge">
<title>Node6&#45;&gt;Node5</title>
<g id="a_edge5_Node000005_Node000006"><a xlink:title=" ">
<path fill="none" stroke="#63b8ff" d="M297,-195.61C297,-186.65 297,-176.82 297,-169.08"/>
<polygon fill="#63b8ff" stroke="#63b8ff" points="293.5,-195.9 297,-205.9 300.5,-195.9 293.5,-195.9"/>
</a>
</g>
</g>
</g>
</svg>
