<?xml version="1.0" encoding="UTF-8" standalone="no"?>
<!DOCTYPE svg PUBLIC "-//W3C//DTD SVG 1.1//EN"
 "http://www.w3.org/Graphics/SVG/1.1/DTD/svg11.dtd">
<!-- Generated by graphviz version 2.43.0 (0)
 -->
<!-- Title: mlir::spirv::detail::StructTypeStorage Pages: 1 -->
<svg width="126pt" height="162pt"
 viewBox="0.00 0.00 126.00 162.00" xmlns="http://www.w3.org/2000/svg" xmlns:xlink="http://www.w3.org/1999/xlink">
<g id="graph0" class="graph" transform="scale(1 1) rotate(0) translate(4 158)">
<title>mlir::spirv::detail::StructTypeStorage</title>
<!-- Node1 -->
<g id="node1" class="node">
<title>Node1</title>
<g id="a_node1"><a xlink:title="Type storage for SPIR&#45;V structure types:">
<polygon fill="#bfbfbf" stroke="black" points="3.5,-0.5 3.5,-30.5 114.5,-30.5 114.5,-0.5 3.5,-0.5"/>
<text text-anchor="start" x="11.5" y="-18.5" font-family="Helvetica,sans-Serif" font-size="10.00">mlir::spirv::detail</text>
<text text-anchor="middle" x="59" y="-7.5" font-family="Helvetica,sans-Serif" font-size="10.00">::StructTypeStorage</text>
</a>
</g>
</g>
<!-- Node2 -->
<g id="node2" class="node">
<title>Node2</title>
<g id="a_node2"><a xlink:href="classmlir_1_1TypeStorage.html" target="_top" xlink:title="Base storage class appearing in a Type.">
<polygon fill="none" stroke="black" points="8,-67.5 8,-86.5 110,-86.5 110,-67.5 8,-67.5"/>
<text text-anchor="middle" x="59" y="-74.5" font-family="Helvetica,sans-Serif" font-size="10.00">mlir::TypeStorage</text>
</a>
</g>
</g>
<!-- Node2&#45;&gt;Node1 -->
<g id="edge1" class="edge">
<title>Node2&#45;&gt;Node1</title>
<path fill="none" stroke="midnightblue" d="M59,-57.23C59,-48.59 59,-38.5 59,-30.52"/>
<polygon fill="midnightblue" stroke="midnightblue" points="55.5,-57.48 59,-67.48 62.5,-57.48 55.5,-57.48"/>
</g>
<!-- Node3 -->
<g id="node3" class="node">
<title>Node3</title>
<g id="a_node3"><a xlink:href="classmlir_1_1StorageUniquer_1_1BaseStorage.html" target="_top" xlink:title="This class acts as the base storage that all storage classes must derived from.">
<polygon fill="none" stroke="black" points="0,-123.5 0,-153.5 118,-153.5 118,-123.5 0,-123.5"/>
<text text-anchor="start" x="8" y="-141.5" font-family="Helvetica,sans-Serif" font-size="10.00">mlir::StorageUniquer</text>
<text text-anchor="middle" x="59" y="-130.5" font-family="Helvetica,sans-Serif" font-size="10.00">::BaseStorage</text>
</a>
</g>
</g>
<!-- Node3&#45;&gt;Node2 -->
<g id="edge2" class="edge">
<title>Node3&#45;&gt;Node2</title>
<path fill="none" stroke="midnightblue" d="M59,-113.29C59,-103.86 59,-93.65 59,-86.66"/>
<polygon fill="midnightblue" stroke="midnightblue" points="55.5,-113.4 59,-123.4 62.5,-113.4 55.5,-113.4"/>
</g>
</g>
</svg>
