<?xml version="1.0" encoding="UTF-8" standalone="no"?>
<!DOCTYPE svg PUBLIC "-//W3C//DTD SVG 1.1//EN"
 "http://www.w3.org/Graphics/SVG/1.1/DTD/svg11.dtd">
<!-- Generated by graphviz version 2.43.0 (0)
 -->
<!-- Title: mlir::xegpu::uArch::MMAInstructionInterface Pages: 1 -->
<svg width="376pt" height="86pt"
 viewBox="0.00 0.00 376.00 86.00" xmlns="http://www.w3.org/2000/svg" xmlns:xlink="http://www.w3.org/1999/xlink">
<g id="graph0" class="graph" transform="scale(1 1) rotate(0) translate(4 82)">
<title>mlir::xegpu::uArch::MMAInstructionInterface</title>
<!-- Node1 -->
<g id="Node000001" class="node">
<title>Node1</title>
<g id="a_Node000001"><a xlink:title=" ">
<polygon fill="#999999" stroke="#666666" points="143,-54 0,-54 0,-24 143,-24 143,-54"/>
<text text-anchor="start" x="8" y="-42" font-family="Helvetica,sans-Serif" font-size="10.00">mlir::xegpu::uArch</text>
<text text-anchor="middle" x="71.5" y="-31" font-family="Helvetica,sans-Serif" font-size="10.00">::MMAInstructionInterface</text>
</a>
</g>
</g>
<!-- Node2 -->
<g id="Node000002" class="node">
<title>Node2</title>
<g id="a_Node000002"><a xlink:href="structmlir_1_1xegpu_1_1uArch_1_1SubgroupMatrixMultiplyAcc.html" target="_top" xlink:title=" ">
<polygon fill="white" stroke="#666666" points="352,-78 195,-78 195,-48 352,-48 352,-78"/>
<text text-anchor="start" x="203" y="-66" font-family="Helvetica,sans-Serif" font-size="10.00">mlir::xegpu::uArch</text>
<text text-anchor="middle" x="273.5" y="-55" font-family="Helvetica,sans-Serif" font-size="10.00">::SubgroupMatrixMultiplyAcc</text>
</a>
</g>
</g>
<!-- Node1&#45;&gt;Node2 -->
<g id="edge1_Node000001_Node000002" class="edge">
<title>Node1&#45;&gt;Node2</title>
<g id="a_edge1_Node000001_Node000002"><a xlink:title=" ">
<path fill="none" stroke="#63b8ff" d="M152.95,-48.65C166.75,-50.31 181.07,-52.03 194.8,-53.68"/>
<polygon fill="#63b8ff" stroke="#63b8ff" points="153.36,-45.18 143.01,-47.46 152.52,-52.13 153.36,-45.18"/>
</a>
</g>
</g>
<!-- Node3 -->
<g id="Node000003" class="node">
<title>Node3</title>
<g id="a_Node000003"><a xlink:href="structmlir_1_1xegpu_1_1uArch_1_1SubgroupScaledMatrixMultiplyAcc.html" target="_top" xlink:title=" ">
<polygon fill="white" stroke="#666666" points="368,-30 179,-30 179,0 368,0 368,-30"/>
<text text-anchor="start" x="187" y="-18" font-family="Helvetica,sans-Serif" font-size="10.00">mlir::xegpu::uArch</text>
<text text-anchor="middle" x="273.5" y="-7" font-family="Helvetica,sans-Serif" font-size="10.00">::SubgroupScaledMatrixMultiplyAcc</text>
</a>
</g>
</g>
<!-- Node1&#45;&gt;Node3 -->
<g id="edge2_Node000001_Node000003" class="edge">
<title>Node1&#45;&gt;Node3</title>
<g id="a_edge2_Node000001_Node000003"><a xlink:title=" ">
<path fill="none" stroke="#63b8ff" d="M153.19,-29.32C161.62,-28.31 170.24,-27.27 178.8,-26.24"/>
<polygon fill="#63b8ff" stroke="#63b8ff" points="152.52,-25.87 143.01,-30.54 153.36,-32.82 152.52,-25.87"/>
</a>
</g>
</g>
</g>
</svg>
