<?xml version="1.0" encoding="UTF-8" standalone="no"?>
<!DOCTYPE svg PUBLIC "-//W3C//DTD SVG 1.1//EN"
 "http://www.w3.org/Graphics/SVG/1.1/DTD/svg11.dtd">
<!-- Generated by graphviz version 2.43.0 (0)
 -->
<!-- Title: mlir::xegpu::uArch::Instruction Pages: 1 -->
<svg width="834pt" height="389pt"
 viewBox="0.00 0.00 834.00 389.28" xmlns="http://www.w3.org/2000/svg" xmlns:xlink="http://www.w3.org/1999/xlink">
<g id="graph0" class="graph" transform="scale(1 1) rotate(0) translate(4 385.28)">
<title>mlir::xegpu::uArch::Instruction</title>
<!-- Node1 -->
<g id="Node000001" class="node">
<title>Node1</title>
<g id="a_Node000001"><a xlink:title=" ">
<polygon fill="#999999" stroke="#666666" points="105,-198 0,-198 0,-168 105,-168 105,-198"/>
<text text-anchor="start" x="8" y="-186" font-family="Helvetica,sans-Serif" font-size="10.00">mlir::xegpu::uArch</text>
<text text-anchor="middle" x="52.5" y="-175" font-family="Helvetica,sans-Serif" font-size="10.00">::Instruction</text>
</a>
</g>
</g>
<!-- Node2 -->
<g id="Node000002" class="node">
<title>Node2</title>
<g id="a_Node000002"><a xlink:href="structmlir_1_1xegpu_1_1uArch_1_1ScatterIoInstructionInterface.html" target="_top" xlink:title=" ">
<polygon fill="white" stroke="#666666" points="653,-367.5 478,-367.5 478,-326.5 653,-326.5 653,-367.5"/>
<text text-anchor="start" x="486" y="-355.5" font-family="Helvetica,sans-Serif" font-size="10.00">mlir::xegpu::uArch</text>
<text text-anchor="start" x="486" y="-344.5" font-family="Helvetica,sans-Serif" font-size="10.00">::ScatterIoInstructionInterface</text>
<text text-anchor="middle" x="565.5" y="-333.5" font-family="Helvetica,sans-Serif" font-size="10.00">&lt; InstructionKind::LoadGather &gt;</text>
</a>
</g>
</g>
<!-- Node1&#45;&gt;Node2 -->
<g id="edge1_Node000001_Node000002" class="edge">
<title>Node1&#45;&gt;Node2</title>
<g id="a_edge1_Node000001_Node000002"><a xlink:title=" ">
<path fill="none" stroke="#63b8ff" d="M61.24,-207.87C72.99,-241.2 98.67,-299.57 142,-329 242.36,-397.16 389.2,-384.83 480.7,-367.52"/>
<polygon fill="#63b8ff" stroke="#63b8ff" points="64.55,-206.74 58.04,-198.39 57.92,-208.98 64.55,-206.74"/>
</a>
</g>
</g>
<!-- Node4 -->
<g id="Node000004" class="node">
<title>Node4</title>
<g id="a_Node000004"><a xlink:href="structmlir_1_1xegpu_1_1uArch_1_1ScatterIoInstructionInterface.html" target="_top" xlink:title=" ">
<polygon fill="white" stroke="#666666" points="655,-294.5 476,-294.5 476,-253.5 655,-253.5 655,-294.5"/>
<text text-anchor="start" x="484" y="-282.5" font-family="Helvetica,sans-Serif" font-size="10.00">mlir::xegpu::uArch</text>
<text text-anchor="start" x="484" y="-271.5" font-family="Helvetica,sans-Serif" font-size="10.00">::ScatterIoInstructionInterface</text>
<text text-anchor="middle" x="565.5" y="-260.5" font-family="Helvetica,sans-Serif" font-size="10.00">&lt; InstructionKind::StoreScatter &gt;</text>
</a>
</g>
</g>
<!-- Node1&#45;&gt;Node4 -->
<g id="edge3_Node000001_Node000004" class="edge">
<title>Node1&#45;&gt;Node4</title>
<g id="a_edge3_Node000001_Node000004"><a xlink:title=" ">
<path fill="none" stroke="#63b8ff" d="M83.97,-203.44C100.45,-213.46 121.57,-224.7 142,-231 202.24,-249.58 370.51,-262.52 475.62,-269.07"/>
<polygon fill="#63b8ff" stroke="#63b8ff" points="85.66,-200.36 75.33,-198.03 81.95,-206.3 85.66,-200.36"/>
</a>
</g>
</g>
<!-- Node6 -->
<g id="Node000006" class="node">
<title>Node6</title>
<g id="a_Node000006"><a xlink:href="structmlir_1_1xegpu_1_1uArch_1_1ScatterIoInstructionInterface.html" target="_top" xlink:title=" ">
<polygon fill="white" stroke="#666666" points="323,-319.5 162,-319.5 162,-278.5 323,-278.5 323,-319.5"/>
<text text-anchor="start" x="170" y="-307.5" font-family="Helvetica,sans-Serif" font-size="10.00">mlir::xegpu::uArch</text>
<text text-anchor="start" x="170" y="-296.5" font-family="Helvetica,sans-Serif" font-size="10.00">::ScatterIoInstructionInterface</text>
<text text-anchor="middle" x="242.5" y="-285.5" font-family="Helvetica,sans-Serif" font-size="10.00">&lt; Kind &gt;</text>
</a>
</g>
</g>
<!-- Node1&#45;&gt;Node6 -->
<g id="edge5_Node000001_Node000006" class="edge">
<title>Node1&#45;&gt;Node6</title>
<g id="a_edge5_Node000001_Node000006"><a xlink:title=" ">
<path fill="none" stroke="#63b8ff" d="M68.14,-206.52C80.62,-224.7 100.14,-249.2 123,-264 134.8,-271.63 148.31,-277.65 161.9,-282.38"/>
<polygon fill="#63b8ff" stroke="#63b8ff" points="71.05,-204.56 62.6,-198.17 65.22,-208.43 71.05,-204.56"/>
</a>
</g>
</g>
<!-- Node7 -->
<g id="Node000007" class="node">
<title>Node7</title>
<g id="a_Node000007"><a xlink:href="structmlir_1_1xegpu_1_1uArch_1_1Subgroup2DBlockLoadInstruction.html" target="_top" xlink:title=" ">
<polygon fill="white" stroke="#666666" points="334.5,-222 150.5,-222 150.5,-192 334.5,-192 334.5,-222"/>
<text text-anchor="start" x="158.5" y="-210" font-family="Helvetica,sans-Serif" font-size="10.00">mlir::xegpu::uArch</text>
<text text-anchor="middle" x="242.5" y="-199" font-family="Helvetica,sans-Serif" font-size="10.00">::Subgroup2DBlockLoadInstruction</text>
</a>
</g>
</g>
<!-- Node1&#45;&gt;Node7 -->
<g id="edge8_Node000001_Node000007" class="edge">
<title>Node1&#45;&gt;Node7</title>
<g id="a_edge8_Node000001_Node000007"><a xlink:title=" ">
<path fill="none" stroke="#63b8ff" d="M115.47,-190.91C126.7,-192.34 138.62,-193.87 150.48,-195.38"/>
<polygon fill="#63b8ff" stroke="#63b8ff" points="115.73,-187.42 105.37,-189.62 114.85,-194.36 115.73,-187.42"/>
</a>
</g>
</g>
<!-- Node8 -->
<g id="Node000008" class="node">
<title>Node8</title>
<g id="a_Node000008"><a xlink:href="structmlir_1_1xegpu_1_1uArch_1_1Subgroup2DBlockPrefetchInstruction.html" target="_top" xlink:title=" ">
<polygon fill="white" stroke="#666666" points="343,-174 142,-174 142,-144 343,-144 343,-174"/>
<text text-anchor="start" x="150" y="-162" font-family="Helvetica,sans-Serif" font-size="10.00">mlir::xegpu::uArch</text>
<text text-anchor="middle" x="242.5" y="-151" font-family="Helvetica,sans-Serif" font-size="10.00">::Subgroup2DBlockPrefetchInstruction</text>
</a>
</g>
</g>
<!-- Node1&#45;&gt;Node8 -->
<g id="edge9_Node000001_Node000008" class="edge">
<title>Node1&#45;&gt;Node8</title>
<g id="a_edge9_Node000001_Node000008"><a xlink:title=" ">
<path fill="none" stroke="#63b8ff" d="M115.51,-175.08C123.99,-174 132.88,-172.87 141.83,-171.72"/>
<polygon fill="#63b8ff" stroke="#63b8ff" points="114.85,-171.64 105.37,-176.38 115.73,-178.58 114.85,-171.64"/>
</a>
</g>
</g>
<!-- Node9 -->
<g id="Node000009" class="node">
<title>Node9</title>
<g id="a_Node000009"><a xlink:href="structmlir_1_1xegpu_1_1uArch_1_1Subgroup2DBlockStoreInstruction.html" target="_top" xlink:title=" ">
<polygon fill="white" stroke="#666666" points="335.5,-126 149.5,-126 149.5,-96 335.5,-96 335.5,-126"/>
<text text-anchor="start" x="157.5" y="-114" font-family="Helvetica,sans-Serif" font-size="10.00">mlir::xegpu::uArch</text>
<text text-anchor="middle" x="242.5" y="-103" font-family="Helvetica,sans-Serif" font-size="10.00">::Subgroup2DBlockStoreInstruction</text>
</a>
</g>
</g>
<!-- Node1&#45;&gt;Node9 -->
<g id="edge10_Node000001_Node000009" class="edge">
<title>Node1&#45;&gt;Node9</title>
<g id="a_edge10_Node000001_Node000009"><a xlink:title=" ">
<path fill="none" stroke="#63b8ff" d="M85.74,-162.87C102.11,-153.35 122.59,-142.46 142,-135 150.71,-131.65 160.03,-128.67 169.35,-126.04"/>
<polygon fill="#63b8ff" stroke="#63b8ff" points="83.92,-159.88 77.1,-167.99 87.49,-165.91 83.92,-159.88"/>
</a>
</g>
</g>
<!-- Node10 -->
<g id="Node000010" class="node">
<title>Node10</title>
<g id="a_Node000010"><a xlink:href="structmlir_1_1xegpu_1_1uArch_1_1SubgroupMatrixMultiplyAcc.html" target="_top" xlink:title=" ">
<polygon fill="white" stroke="#666666" points="321,-78 164,-78 164,-48 321,-48 321,-78"/>
<text text-anchor="start" x="172" y="-66" font-family="Helvetica,sans-Serif" font-size="10.00">mlir::xegpu::uArch</text>
<text text-anchor="middle" x="242.5" y="-55" font-family="Helvetica,sans-Serif" font-size="10.00">::SubgroupMatrixMultiplyAcc</text>
</a>
</g>
</g>
<!-- Node1&#45;&gt;Node10 -->
<g id="edge11_Node000001_Node000010" class="edge">
<title>Node1&#45;&gt;Node10</title>
<g id="a_edge11_Node000001_Node000010"><a xlink:title=" ">
<path fill="none" stroke="#63b8ff" d="M69.11,-159.26C84.87,-137.19 111.25,-105.07 142,-87 148.82,-82.99 156.27,-79.65 163.93,-76.87"/>
<polygon fill="#63b8ff" stroke="#63b8ff" points="66.04,-157.54 63.21,-167.75 71.79,-161.53 66.04,-157.54"/>
</a>
</g>
</g>
<!-- Node11 -->
<g id="Node000011" class="node">
<title>Node11</title>
<g id="a_Node000011"><a xlink:href="structmlir_1_1xegpu_1_1uArch_1_1SubgroupScaledMatrixMultiplyAcc.html" target="_top" xlink:title=" ">
<polygon fill="white" stroke="#666666" points="337,-30 148,-30 148,0 337,0 337,-30"/>
<text text-anchor="start" x="156" y="-18" font-family="Helvetica,sans-Serif" font-size="10.00">mlir::xegpu::uArch</text>
<text text-anchor="middle" x="242.5" y="-7" font-family="Helvetica,sans-Serif" font-size="10.00">::SubgroupScaledMatrixMultiplyAcc</text>
</a>
</g>
</g>
<!-- Node1&#45;&gt;Node11 -->
<g id="edge12_Node000001_Node000011" class="edge">
<title>Node1&#45;&gt;Node11</title>
<g id="a_edge12_Node000001_Node000011"><a xlink:title=" ">
<path fill="none" stroke="#63b8ff" d="M61.98,-157.97C74.34,-125.42 100.44,-69.19 142,-39 146.74,-35.55 151.92,-32.6 157.33,-30.06"/>
<polygon fill="#63b8ff" stroke="#63b8ff" points="58.59,-157.05 58.45,-167.64 65.17,-159.45 58.59,-157.05"/>
</a>
</g>
</g>
<!-- Node3 -->
<g id="Node000003" class="node">
<title>Node3</title>
<g id="a_Node000003"><a xlink:href="structmlir_1_1xegpu_1_1uArch_1_1LoadGatherInstruction.html" target="_top" xlink:title=" ">
<polygon fill="white" stroke="#666666" points="824.5,-362 693.5,-362 693.5,-332 824.5,-332 824.5,-362"/>
<text text-anchor="start" x="701.5" y="-350" font-family="Helvetica,sans-Serif" font-size="10.00">mlir::xegpu::uArch</text>
<text text-anchor="middle" x="759" y="-339" font-family="Helvetica,sans-Serif" font-size="10.00">::LoadGatherInstruction</text>
</a>
</g>
</g>
<!-- Node2&#45;&gt;Node3 -->
<g id="edge2_Node000002_Node000003" class="edge">
<title>Node2&#45;&gt;Node3</title>
<g id="a_edge2_Node000002_Node000003"><a xlink:title=" ">
<path fill="none" stroke="#63b8ff" d="M663.22,-347C673.45,-347 683.66,-347 693.39,-347"/>
<polygon fill="#63b8ff" stroke="#63b8ff" points="663.01,-343.5 653.01,-347 663.01,-350.5 663.01,-343.5"/>
</a>
</g>
</g>
<!-- Node5 -->
<g id="Node000005" class="node">
<title>Node5</title>
<g id="a_Node000005"><a xlink:href="structmlir_1_1xegpu_1_1uArch_1_1StoreScatterInstruction.html" target="_top" xlink:title=" ">
<polygon fill="white" stroke="#666666" points="826,-289 692,-289 692,-259 826,-259 826,-289"/>
<text text-anchor="start" x="700" y="-277" font-family="Helvetica,sans-Serif" font-size="10.00">mlir::xegpu::uArch</text>
<text text-anchor="middle" x="759" y="-266" font-family="Helvetica,sans-Serif" font-size="10.00">::StoreScatterInstruction</text>
</a>
</g>
</g>
<!-- Node4&#45;&gt;Node5 -->
<g id="edge4_Node000004_Node000005" class="edge">
<title>Node4&#45;&gt;Node5</title>
<g id="a_edge4_Node000004_Node000005"><a xlink:title=" ">
<path fill="none" stroke="#63b8ff" d="M665.37,-274C674.35,-274 683.28,-274 691.87,-274"/>
<polygon fill="#63b8ff" stroke="#63b8ff" points="665.24,-270.5 655.24,-274 665.24,-277.5 665.24,-270.5"/>
</a>
</g>
</g>
<!-- Node6&#45;&gt;Node2 -->
<g id="edge6_Node000006_Node000002" class="edge">
<title>Node6&#45;&gt;Node2</title>
<g id="a_edge6_Node000006_Node000002"><a xlink:title=" ">
<path fill="none" stroke="orange" stroke-dasharray="5,2" d="M333.35,-312.44C378.54,-319.19 433.08,-327.35 477.82,-334.04"/>
<polygon fill="orange" stroke="orange" points="333.67,-308.94 323.26,-310.93 332.63,-315.87 333.67,-308.94"/>
</a>
</g>
<text text-anchor="start" x="364.5" y="-351" font-family="Helvetica,sans-Serif" font-size="10.00" fill="grey">&lt; InstructionKind::</text>
<text text-anchor="start" x="364.5" y="-336" font-family="Helvetica,sans-Serif" font-size="10.00" fill="grey">  LoadGather &gt;</text>
</g>
<!-- Node6&#45;&gt;Node4 -->
<g id="edge7_Node000006_Node000004" class="edge">
<title>Node6&#45;&gt;Node4</title>
<g id="a_edge7_Node000006_Node000004"><a xlink:title=" ">
<path fill="none" stroke="orange" stroke-dasharray="5,2" d="M333.2,-286.82C342.57,-285.76 351.97,-284.8 361,-284 398.61,-280.68 440.24,-278.39 476,-276.85"/>
<polygon fill="orange" stroke="orange" points="332.58,-283.37 323.05,-287.99 333.38,-290.32 332.58,-283.37"/>
</a>
</g>
<text text-anchor="start" x="364.5" y="-305" font-family="Helvetica,sans-Serif" font-size="10.00" fill="grey">&lt; InstructionKind::</text>
<text text-anchor="start" x="364.5" y="-290" font-family="Helvetica,sans-Serif" font-size="10.00" fill="grey">  StoreScatter &gt;</text>
</g>
</g>
</svg>
