<?xml version="1.0" encoding="UTF-8" standalone="no"?>
<!DOCTYPE svg PUBLIC "-//W3C//DTD SVG 1.1//EN"
 "http://www.w3.org/Graphics/SVG/1.1/DTD/svg11.dtd">
<!-- Generated by graphviz version 2.43.0 (0)
 -->
<!-- Title: mlir::linalg::detail::MultiSizeSpecificationBase&lt; T &gt; Pages: 1 -->
<svg width="662pt" height="108pt"
 viewBox="0.00 0.00 662.00 108.00" xmlns="http://www.w3.org/2000/svg" xmlns:xlink="http://www.w3.org/1999/xlink">
<g id="graph0" class="graph" transform="scale(1 1) rotate(0) translate(4 104)">
<title>mlir::linalg::detail::MultiSizeSpecificationBase&lt; T &gt;</title>
<!-- Node1 -->
<g id="Node000001" class="node">
<title>Node1</title>
<g id="a_Node000001"><a xlink:title=" ">
<polygon fill="#999999" stroke="#666666" points="182,-64.5 0,-64.5 0,-34.5 182,-34.5 182,-64.5"/>
<text text-anchor="start" x="8" y="-52.5" font-family="Helvetica,sans-Serif" font-size="10.00">mlir::linalg::detail</text>
<text text-anchor="middle" x="91" y="-41.5" font-family="Helvetica,sans-Serif" font-size="10.00">::MultiSizeSpecificationBase&lt; T &gt;</text>
</a>
</g>
</g>
<!-- Node2 -->
<g id="Node000002" class="node">
<title>Node2</title>
<g id="a_Node000002"><a xlink:href="structmlir_1_1linalg_1_1detail_1_1MultiSizeSpecificationBase.html" target="_top" xlink:title=" ">
<polygon fill="white" stroke="#666666" points="435,-100 281,-100 281,-59 435,-59 435,-100"/>
<text text-anchor="start" x="289" y="-88" font-family="Helvetica,sans-Serif" font-size="10.00">mlir::linalg::detail</text>
<text text-anchor="start" x="289" y="-77" font-family="Helvetica,sans-Serif" font-size="10.00">::MultiSizeSpecificationBase</text>
<text text-anchor="middle" x="358" y="-66" font-family="Helvetica,sans-Serif" font-size="10.00">&lt; Value &gt;</text>
</a>
</g>
</g>
<!-- Node1&#45;&gt;Node2 -->
<g id="edge1_Node000001_Node000002" class="edge">
<title>Node1&#45;&gt;Node2</title>
<g id="a_edge1_Node000001_Node000002"><a xlink:title=" ">
<path fill="none" stroke="orange" stroke-dasharray="5,2" d="M192.36,-60.86C221.7,-64.18 253.27,-67.76 280.85,-70.88"/>
<polygon fill="orange" stroke="orange" points="192.42,-57.35 182.09,-59.7 191.63,-64.3 192.42,-57.35"/>
</a>
</g>
<text text-anchor="start" x="206.5" y="-73" font-family="Helvetica,sans-Serif" font-size="10.00" fill="grey">&lt; Value &gt;</text>
</g>
<!-- Node4 -->
<g id="Node000004" class="node">
<title>Node4</title>
<g id="a_Node000004"><a xlink:href="structmlir_1_1linalg_1_1detail_1_1MultiSizeSpecificationBase.html" target="_top" xlink:title=" ">
<polygon fill="white" stroke="#666666" points="435,-41 281,-41 281,0 435,0 435,-41"/>
<text text-anchor="start" x="289" y="-29" font-family="Helvetica,sans-Serif" font-size="10.00">mlir::linalg::detail</text>
<text text-anchor="start" x="289" y="-18" font-family="Helvetica,sans-Serif" font-size="10.00">::MultiSizeSpecificationBase</text>
<text text-anchor="middle" x="358" y="-7" font-family="Helvetica,sans-Serif" font-size="10.00">&lt; int64_t &gt;</text>
</a>
</g>
</g>
<!-- Node1&#45;&gt;Node4 -->
<g id="edge3_Node000001_Node000004" class="edge">
<title>Node1&#45;&gt;Node4</title>
<g id="a_edge3_Node000001_Node000004"><a xlink:title=" ">
<path fill="none" stroke="orange" stroke-dasharray="5,2" d="M192.27,-36.39C194.87,-36.08 197.45,-35.79 200,-35.5 226.26,-32.54 255.03,-29.69 280.69,-27.27"/>
<polygon fill="orange" stroke="orange" points="191.65,-32.93 182.13,-37.59 192.48,-39.88 191.65,-32.93"/>
</a>
</g>
<text text-anchor="start" x="203.5" y="-41" font-family="Helvetica,sans-Serif" font-size="10.00" fill="grey">&lt; int64_t &gt;</text>
</g>
<!-- Node3 -->
<g id="Node000003" class="node">
<title>Node3</title>
<g id="a_Node000003"><a xlink:href="structmlir_1_1linalg_1_1MultiSizeSpecification.html" target="_top" xlink:title="A description of a multi&#45;size tiling comprising tile sizes and numbers of tiles, expressed as Values ...">
<polygon fill="white" stroke="#666666" points="654,-89 472,-89 472,-70 654,-70 654,-89"/>
<text text-anchor="middle" x="563" y="-77" font-family="Helvetica,sans-Serif" font-size="10.00">mlir::linalg::MultiSizeSpecification</text>
</a>
</g>
</g>
<!-- Node2&#45;&gt;Node3 -->
<g id="edge2_Node000002_Node000003" class="edge">
<title>Node2&#45;&gt;Node3</title>
<g id="a_edge2_Node000002_Node000003"><a xlink:title=" ">
<path fill="none" stroke="#63b8ff" d="M445.33,-79.5C454.06,-79.5 462.95,-79.5 471.72,-79.5"/>
<polygon fill="#63b8ff" stroke="#63b8ff" points="445.17,-76 435.17,-79.5 445.17,-83 445.17,-76"/>
</a>
</g>
</g>
<!-- Node5 -->
<g id="Node000005" class="node">
<title>Node5</title>
<g id="a_Node000005"><a xlink:href="structmlir_1_1linalg_1_1StaticMultiSizeSpecification.html" target="_top" xlink:title=" ">
<polygon fill="white" stroke="#666666" points="627,-35.5 499,-35.5 499,-5.5 627,-5.5 627,-35.5"/>
<text text-anchor="start" x="507" y="-23.5" font-family="Helvetica,sans-Serif" font-size="10.00">mlir::linalg::StaticMulti</text>
<text text-anchor="middle" x="563" y="-12.5" font-family="Helvetica,sans-Serif" font-size="10.00">SizeSpecification</text>
</a>
</g>
</g>
<!-- Node4&#45;&gt;Node5 -->
<g id="edge4_Node000004_Node000005" class="edge">
<title>Node4&#45;&gt;Node5</title>
<g id="a_edge4_Node000004_Node000005"><a xlink:title=" ">
<path fill="none" stroke="#63b8ff" d="M445.38,-20.5C463.38,-20.5 482.03,-20.5 499,-20.5"/>
<polygon fill="#63b8ff" stroke="#63b8ff" points="445.17,-17 435.17,-20.5 445.17,-24 445.17,-17"/>
</a>
</g>
</g>
</g>
</svg>
