<?xml version="1.0" encoding="UTF-8" standalone="no"?>
<!DOCTYPE svg PUBLIC "-//W3C//DTD SVG 1.1//EN"
 "http://www.w3.org/Graphics/SVG/1.1/DTD/svg11.dtd">
<!-- Generated by graphviz version 2.43.0 (0)
 -->
<!-- Title: mlir::SideEffects::DefaultResource Pages: 1 -->
<svg width="813pt" height="75pt"
 viewBox="0.00 0.00 813.00 74.50" xmlns="http://www.w3.org/2000/svg" xmlns:xlink="http://www.w3.org/1999/xlink">
<g id="graph0" class="graph" transform="scale(1 1) rotate(0) translate(4 70.5)">
<title>mlir::SideEffects::DefaultResource</title>
<!-- Node1 -->
<g id="node1" class="node">
<title>Node1</title>
<g id="a_node1"><a xlink:title="A conservative default resource kind.">
<polygon fill="#bfbfbf" stroke="black" points="703,-36 703,-66 805,-66 805,-36 703,-36"/>
<text text-anchor="start" x="711" y="-54" font-family="Helvetica,sans-Serif" font-size="10.00">mlir::SideEffects::</text>
<text text-anchor="middle" x="754" y="-43" font-family="Helvetica,sans-Serif" font-size="10.00">DefaultResource</text>
</a>
</g>
</g>
<!-- Node2 -->
<g id="node2" class="node">
<title>Node2</title>
<g id="a_node2"><a xlink:href="classmlir_1_1SideEffects_1_1Resource_1_1Base.html" target="_top" xlink:title=" ">
<polygon fill="none" stroke="black" points="471,-36 471,-66 666,-66 666,-36 471,-36"/>
<text text-anchor="start" x="479" y="-54" font-family="Helvetica,sans-Serif" font-size="10.00">mlir::SideEffects::</text>
<text text-anchor="middle" x="568.5" y="-43" font-family="Helvetica,sans-Serif" font-size="10.00">Resource::Base&lt; DefaultResource &gt;</text>
</a>
</g>
</g>
<!-- Node2&#45;&gt;Node1 -->
<g id="edge1" class="edge">
<title>Node2&#45;&gt;Node1</title>
<path fill="none" stroke="midnightblue" d="M676.09,-51C685.25,-51 694.21,-51 702.58,-51"/>
<polygon fill="midnightblue" stroke="midnightblue" points="676.09,-47.5 666.09,-51 676.09,-54.5 676.09,-47.5"/>
</g>
<!-- Node3 -->
<g id="node3" class="node">
<title>Node3</title>
<g id="a_node3"><a xlink:href="classmlir_1_1SideEffects_1_1Resource.html" target="_top" xlink:title="This class represents a specific resource that an effect applies to.">
<polygon fill="none" stroke="black" points="0,-30 0,-60 102,-60 102,-30 0,-30"/>
<text text-anchor="start" x="8" y="-48" font-family="Helvetica,sans-Serif" font-size="10.00">mlir::SideEffects::</text>
<text text-anchor="middle" x="51" y="-37" font-family="Helvetica,sans-Serif" font-size="10.00">Resource</text>
</a>
</g>
</g>
<!-- Node3&#45;&gt;Node2 -->
<g id="edge2" class="edge">
<title>Node3&#45;&gt;Node2</title>
<path fill="none" stroke="midnightblue" d="M112.17,-49.54C121.16,-50.1 130.32,-50.62 139,-51 278.43,-57.15 313.45,-57.44 453,-55 458.87,-54.9 464.9,-54.77 470.99,-54.61"/>
<polygon fill="midnightblue" stroke="midnightblue" points="112.33,-46.04 102.12,-48.88 111.87,-53.03 112.33,-46.04"/>
</g>
<!-- Node4 -->
<g id="node4" class="node">
<title>Node4</title>
<g id="a_node4"><a xlink:href="classmlir_1_1SideEffects_1_1Resource_1_1Base.html" target="_top" xlink:title="This base class is used for derived effects that are non&#45;parametric.">
<polygon fill="none" stroke="black" points="139,-0.5 139,-41.5 328,-41.5 328,-0.5 139,-0.5"/>
<text text-anchor="start" x="147" y="-29.5" font-family="Helvetica,sans-Serif" font-size="10.00">mlir::SideEffects::</text>
<text text-anchor="start" x="147" y="-18.5" font-family="Helvetica,sans-Serif" font-size="10.00">Resource::Base&lt; DerivedResource,</text>
<text text-anchor="middle" x="233.5" y="-7.5" font-family="Helvetica,sans-Serif" font-size="10.00"> BaseResource &gt;</text>
</a>
</g>
</g>
<!-- Node3&#45;&gt;Node4 -->
<g id="edge4" class="edge">
<title>Node3&#45;&gt;Node4</title>
<path fill="none" stroke="midnightblue" d="M112.2,-37C120.82,-35.85 129.86,-34.65 138.95,-33.44"/>
<polygon fill="midnightblue" stroke="midnightblue" points="111.73,-33.53 102.28,-38.31 112.65,-40.47 111.73,-33.53"/>
</g>
<!-- Node4&#45;&gt;Node2 -->
<g id="edge3" class="edge">
<title>Node4&#45;&gt;Node2</title>
<path fill="none" stroke="orange" stroke-dasharray="5,2" d="M338.2,-30.34C380.53,-34.16 429.21,-38.54 470.79,-42.29"/>
<polygon fill="orange" stroke="orange" points="338.42,-26.85 328.15,-29.44 337.79,-33.82 338.42,-26.85"/>
<text text-anchor="middle" x="399.5" y="-43" font-family="Helvetica,sans-Serif" font-size="10.00"> &lt; DefaultResource &gt;</text>
</g>
</g>
</svg>
