<?xml version="1.0" encoding="UTF-8" standalone="no"?>
<!DOCTYPE svg PUBLIC "-//W3C//DTD SVG 1.1//EN"
 "http://www.w3.org/Graphics/SVG/1.1/DTD/svg11.dtd">
<!-- Generated by graphviz version 2.43.0 (0)
 -->
<!-- Title: mlir::detail::AffineExprStorage Pages: 1 -->
<svg width="472pt" height="134pt"
 viewBox="0.00 0.00 472.00 134.00" xmlns="http://www.w3.org/2000/svg" xmlns:xlink="http://www.w3.org/1999/xlink">
<g id="graph0" class="graph" transform="scale(1 1) rotate(0) translate(4 130)">
<title>mlir::detail::AffineExprStorage</title>
<!-- Node1 -->
<g id="Node000001" class="node">
<title>Node1</title>
<g id="a_Node000001"><a xlink:title="Base storage class appearing in an affine expression.">
<polygon fill="#999999" stroke="#666666" points="280,-78 154,-78 154,-48 280,-48 280,-78"/>
<text text-anchor="start" x="162" y="-66" font-family="Helvetica,sans-Serif" font-size="10.00">mlir::detail::AffineExpr</text>
<text text-anchor="middle" x="217" y="-55" font-family="Helvetica,sans-Serif" font-size="10.00">Storage</text>
</a>
</g>
</g>
<!-- Node3 -->
<g id="Node000003" class="node">
<title>Node3</title>
<g id="a_Node000003"><a xlink:href="structmlir_1_1detail_1_1AffineBinaryOpExprStorage.html" target="_top" xlink:title="A binary operation appearing in an affine expression.">
<polygon fill="white" stroke="#666666" points="458,-126 322,-126 322,-96 458,-96 458,-126"/>
<text text-anchor="start" x="330" y="-114" font-family="Helvetica,sans-Serif" font-size="10.00">mlir::detail::AffineBinary</text>
<text text-anchor="middle" x="390" y="-103" font-family="Helvetica,sans-Serif" font-size="10.00">OpExprStorage</text>
</a>
</g>
</g>
<!-- Node1&#45;&gt;Node3 -->
<g id="edge2_Node000001_Node000003" class="edge">
<title>Node1&#45;&gt;Node3</title>
<g id="a_edge2_Node000001_Node000003"><a xlink:title=" ">
<path fill="none" stroke="#63b8ff" d="M281.37,-80.79C299.19,-85.79 318.38,-91.18 335.55,-96"/>
<polygon fill="#63b8ff" stroke="#63b8ff" points="282.21,-77.39 271.64,-78.06 280.32,-84.13 282.21,-77.39"/>
</a>
</g>
</g>
<!-- Node4 -->
<g id="Node000004" class="node">
<title>Node4</title>
<g id="a_Node000004"><a xlink:href="structmlir_1_1detail_1_1AffineConstantExprStorage.html" target="_top" xlink:title="An integer constant appearing in affine expression.">
<polygon fill="white" stroke="#666666" points="464,-78 316,-78 316,-48 464,-48 464,-78"/>
<text text-anchor="start" x="324" y="-66" font-family="Helvetica,sans-Serif" font-size="10.00">mlir::detail::AffineConstant</text>
<text text-anchor="middle" x="390" y="-55" font-family="Helvetica,sans-Serif" font-size="10.00">ExprStorage</text>
</a>
</g>
</g>
<!-- Node1&#45;&gt;Node4 -->
<g id="edge3_Node000001_Node000004" class="edge">
<title>Node1&#45;&gt;Node4</title>
<g id="a_edge3_Node000001_Node000004"><a xlink:title=" ">
<path fill="none" stroke="#63b8ff" d="M290.37,-63C298.78,-63 307.37,-63 315.79,-63"/>
<polygon fill="#63b8ff" stroke="#63b8ff" points="290.22,-59.5 280.22,-63 290.22,-66.5 290.22,-59.5"/>
</a>
</g>
</g>
<!-- Node5 -->
<g id="Node000005" class="node">
<title>Node5</title>
<g id="a_Node000005"><a xlink:href="structmlir_1_1detail_1_1AffineDimExprStorage.html" target="_top" xlink:title="A dimensional or symbolic identifier appearing in an affine expression.">
<polygon fill="white" stroke="#666666" points="463,-30 317,-30 317,0 463,0 463,-30"/>
<text text-anchor="start" x="325" y="-18" font-family="Helvetica,sans-Serif" font-size="10.00">mlir::detail::AffineDimExpr</text>
<text text-anchor="middle" x="390" y="-7" font-family="Helvetica,sans-Serif" font-size="10.00">Storage</text>
</a>
</g>
</g>
<!-- Node1&#45;&gt;Node5 -->
<g id="edge4_Node000001_Node000005" class="edge">
<title>Node1&#45;&gt;Node5</title>
<g id="a_edge4_Node000001_Node000005"><a xlink:title=" ">
<path fill="none" stroke="#63b8ff" d="M281.37,-45.21C299.19,-40.21 318.38,-34.82 335.55,-30"/>
<polygon fill="#63b8ff" stroke="#63b8ff" points="280.32,-41.87 271.64,-47.94 282.21,-48.61 280.32,-41.87"/>
</a>
</g>
</g>
<!-- Node2 -->
<g id="Node000002" class="node">
<title>Node2</title>
<g id="a_Node000002"><a xlink:href="classmlir_1_1StorageUniquer_1_1BaseStorage.html" target="_top" xlink:title="This class acts as the base storage that all storage classes must derived from.">
<polygon fill="white" stroke="#666666" points="118,-78 0,-78 0,-48 118,-48 118,-78"/>
<text text-anchor="start" x="8" y="-66" font-family="Helvetica,sans-Serif" font-size="10.00">mlir::StorageUniquer</text>
<text text-anchor="middle" x="59" y="-55" font-family="Helvetica,sans-Serif" font-size="10.00">::BaseStorage</text>
</a>
</g>
</g>
<!-- Node2&#45;&gt;Node1 -->
<g id="edge1_Node000001_Node000002" class="edge">
<title>Node2&#45;&gt;Node1</title>
<g id="a_edge1_Node000001_Node000002"><a xlink:title=" ">
<path fill="none" stroke="#63b8ff" d="M128.36,-63C136.87,-63 145.54,-63 153.94,-63"/>
<polygon fill="#63b8ff" stroke="#63b8ff" points="128.09,-59.5 118.09,-63 128.09,-66.5 128.09,-59.5"/>
</a>
</g>
</g>
</g>
</svg>
