<?xml version="1.0" encoding="UTF-8" standalone="no"?>
<!DOCTYPE svg PUBLIC "-//W3C//DTD SVG 1.1//EN"
 "http://www.w3.org/Graphics/SVG/1.1/DTD/svg11.dtd">
<!-- Generated by graphviz version 2.43.0 (0)
 -->
<!-- Title: TargetToTargetFeaturesPass Pages: 1 -->
<svg width="1007pt" height="65pt"
 viewBox="0.00 0.00 1007.00 64.50" xmlns="http://www.w3.org/2000/svg" xmlns:xlink="http://www.w3.org/1999/xlink">
<g id="graph0" class="graph" transform="scale(1 1) rotate(0) translate(4 60.5)">
<title>TargetToTargetFeaturesPass</title>
<!-- Node1 -->
<g id="Node000001" class="node">
<title>Node1</title>
<g id="a_Node000001"><a xlink:title=" ">
<polygon fill="#999999" stroke="#666666" points="999,-45.5 848,-45.5 848,-26.5 999,-26.5 999,-45.5"/>
<text text-anchor="middle" x="923.5" y="-33.5" font-family="Helvetica,sans-Serif" font-size="10.00">TargetToTargetFeaturesPass</text>
</a>
</g>
</g>
<!-- Node2 -->
<g id="Node000002" class="node">
<title>Node2</title>
<g id="a_Node000002"><a xlink:href="classmlir_1_1LLVM_1_1impl_1_1LLVMTargetToTargetFeaturesBase.html" target="_top" xlink:title=" ">
<polygon fill="white" stroke="#666666" points="811,-56.5 606,-56.5 606,-15.5 811,-15.5 811,-56.5"/>
<text text-anchor="start" x="614" y="-44.5" font-family="Helvetica,sans-Serif" font-size="10.00">mlir::LLVM::impl::LLVMTarget</text>
<text text-anchor="start" x="614" y="-33.5" font-family="Helvetica,sans-Serif" font-size="10.00">ToTargetFeaturesBase&lt; TargetToTarget</text>
<text text-anchor="middle" x="708.5" y="-22.5" font-family="Helvetica,sans-Serif" font-size="10.00">FeaturesPass &gt;</text>
</a>
</g>
</g>
<!-- Node2&#45;&gt;Node1 -->
<g id="edge1_Node000001_Node000002" class="edge">
<title>Node2&#45;&gt;Node1</title>
<g id="a_edge1_Node000001_Node000002"><a xlink:title=" ">
<path fill="none" stroke="#63b8ff" d="M821.21,-36C830.24,-36 839.22,-36 847.89,-36"/>
<polygon fill="#63b8ff" stroke="#63b8ff" points="821.01,-32.5 811.01,-36 821.01,-39.5 821.01,-32.5"/>
</a>
</g>
</g>
<!-- Node3 -->
<g id="Node000003" class="node">
<title>Node3</title>
<g id="a_Node000003"><a xlink:href="classmlir_1_1OperationPass.html" target="_top" xlink:title="Pass to transform an operation of a specific type.">
<polygon fill="white" stroke="#666666" points="213,-52 101,-52 101,-22 213,-22 213,-52"/>
<text text-anchor="start" x="109" y="-40" font-family="Helvetica,sans-Serif" font-size="10.00">mlir::OperationPass</text>
<text text-anchor="middle" x="157" y="-29" font-family="Helvetica,sans-Serif" font-size="10.00">&lt; OpT &gt;</text>
</a>
</g>
</g>
<!-- Node3&#45;&gt;Node2 -->
<g id="edge2_Node000002_Node000003" class="edge">
<title>Node3&#45;&gt;Node2</title>
<g id="a_edge2_Node000002_Node000003"><a xlink:title=" ">
<path fill="none" stroke="#63b8ff" d="M223.38,-42.59C225.95,-42.74 228.5,-42.88 231,-43 389.49,-50.55 429.47,-52.62 588,-46 593.82,-45.76 599.8,-45.45 605.84,-45.09"/>
<polygon fill="#63b8ff" stroke="#63b8ff" points="223.58,-39.1 213.38,-41.95 223.13,-46.09 223.58,-39.1"/>
</a>
</g>
</g>
<!-- Node5 -->
<g id="Node000005" class="node">
<title>Node5</title>
<g id="a_Node000005"><a xlink:href="classmlir_1_1LLVM_1_1impl_1_1LLVMTargetToTargetFeaturesBase.html" target="_top" xlink:title=" ">
<polygon fill="white" stroke="#666666" points="440,-30 250,-30 250,0 440,0 440,-30"/>
<text text-anchor="start" x="258" y="-18" font-family="Helvetica,sans-Serif" font-size="10.00">mlir::LLVM::impl::LLVMTarget</text>
<text text-anchor="middle" x="345" y="-7" font-family="Helvetica,sans-Serif" font-size="10.00">ToTargetFeaturesBase&lt; DerivedT &gt;</text>
</a>
</g>
</g>
<!-- Node3&#45;&gt;Node5 -->
<g id="edge5_Node000005_Node000003" class="edge">
<title>Node3&#45;&gt;Node5</title>
<g id="a_edge5_Node000005_Node000003"><a xlink:title=" ">
<path fill="none" stroke="#63b8ff" d="M223.02,-29.31C231.66,-28.29 240.66,-27.22 249.68,-26.16"/>
<polygon fill="#63b8ff" stroke="#63b8ff" points="222.57,-25.84 213.05,-30.49 223.39,-32.79 222.57,-25.84"/>
</a>
</g>
</g>
<!-- Node4 -->
<g id="Node000004" class="node">
<title>Node4</title>
<g id="a_Node000004"><a xlink:href="classmlir_1_1Pass.html" target="_top" xlink:title="The abstract base pass class.">
<polygon fill="white" stroke="#666666" points="64,-46.5 0,-46.5 0,-27.5 64,-27.5 64,-46.5"/>
<text text-anchor="middle" x="32" y="-34.5" font-family="Helvetica,sans-Serif" font-size="10.00">mlir::Pass</text>
</a>
</g>
</g>
<!-- Node4&#45;&gt;Node3 -->
<g id="edge3_Node000003_Node000004" class="edge">
<title>Node4&#45;&gt;Node3</title>
<g id="a_edge3_Node000003_Node000004"><a xlink:title=" ">
<path fill="none" stroke="#63b8ff" d="M74.06,-37C82.55,-37 91.64,-37 100.55,-37"/>
<polygon fill="#63b8ff" stroke="#63b8ff" points="74.04,-33.5 64.04,-37 74.04,-40.5 74.04,-33.5"/>
</a>
</g>
</g>
<!-- Node5&#45;&gt;Node2 -->
<g id="edge4_Node000002_Node000005" class="edge">
<title>Node5&#45;&gt;Node2</title>
<g id="a_edge4_Node000002_Node000005"><a xlink:title=" ">
<path fill="none" stroke="orange" stroke-dasharray="5,2" d="M450.26,-14.04C452.86,-14.02 455.45,-14.01 458,-14 515.78,-13.74 530.46,-8.75 588,-14 593.88,-14.54 599.91,-15.22 605.97,-16.01"/>
<polygon fill="orange" stroke="orange" points="450.09,-10.54 440.11,-14.1 450.13,-17.54 450.09,-10.54"/>
</a>
</g>
<text text-anchor="start" x="461" y="-35" font-family="Helvetica,sans-Serif" font-size="10.00" fill="grey">&lt; TargetToTargetFeatures</text>
<text text-anchor="start" x="461" y="-20" font-family="Helvetica,sans-Serif" font-size="10.00" fill="grey">  Pass &gt;</text>
</g>
</g>
</svg>
