<?xml version="1.0" encoding="UTF-8" standalone="no"?>
<!DOCTYPE svg PUBLIC "-//W3C//DTD SVG 1.1//EN"
 "http://www.w3.org/Graphics/SVG/1.1/DTD/svg11.dtd">
<!-- Generated by graphviz version 2.43.0 (0)
 -->
<!-- Title: mlir::pdll::ast::detail::TypeStorageBase&lt; ConcreteT, KeyT &gt; Pages: 1 -->
<svg width="1094pt" height="543pt"
 viewBox="0.00 0.00 1094.00 542.50" xmlns="http://www.w3.org/2000/svg" xmlns:xlink="http://www.w3.org/1999/xlink">
<g id="graph0" class="graph" transform="scale(1 1) rotate(0) translate(4 538.5)">
<title>mlir::pdll::ast::detail::TypeStorageBase&lt; ConcreteT, KeyT &gt;</title>
<!-- Node1 -->
<g id="Node000001" class="node">
<title>Node1</title>
<g id="a_Node000001"><a xlink:title="A utility CRTP base class that defines many of the necessary utilities for defining a PDLL AST Type.">
<polygon fill="#999999" stroke="#666666" points="472,-283 302,-283 302,-242 472,-242 472,-283"/>
<text text-anchor="start" x="310" y="-271" font-family="Helvetica,sans-Serif" font-size="10.00">mlir::pdll::ast::detail</text>
<text text-anchor="start" x="310" y="-260" font-family="Helvetica,sans-Serif" font-size="10.00">::TypeStorageBase&lt; ConcreteT,</text>
<text text-anchor="middle" x="387" y="-249" font-family="Helvetica,sans-Serif" font-size="10.00"> KeyT &gt;</text>
</a>
</g>
</g>
<!-- Node1&#45;&gt;Node1 -->
<g id="edge3_Node000001_Node000001" class="edge">
<title>Node1&#45;&gt;Node1</title>
<g id="a_edge3_Node000001_Node000001"><a xlink:title=" ">
<path fill="none" stroke="orange" stroke-dasharray="5,2" d="M378.33,-293.32C379.68,-297.9 382.57,-301 387,-301 394.27,-301 397.4,-292.65 396.37,-283.1"/>
<polygon fill="orange" stroke="orange" points="381.8,-292.83 377.63,-283.1 374.82,-293.31 381.8,-292.83"/>
</a>
</g>
<text text-anchor="start" x="336" y="-306.5" font-family="Helvetica,sans-Serif" font-size="10.00" fill="grey">&lt; ConcreteT, KeyT &gt;</text>
</g>
<!-- Node1&#45;&gt;Node1 -->
<g id="edge4_Node000001_Node000001" class="edge">
<title>Node1&#45;&gt;Node1</title>
<g id="a_edge4_Node000001_Node000001"><a xlink:title=" ">
<path fill="none" stroke="orange" stroke-dasharray="5,2" d="M368.23,-292.89C366.26,-306.84 372.51,-319 387,-319 404.83,-319 410.19,-300.58 403.09,-283.07"/>
<polygon fill="orange" stroke="orange" points="371.65,-293.64 370.91,-283.07 364.9,-291.79 371.65,-293.64"/>
</a>
</g>
<text text-anchor="start" x="336" y="-324.5" font-family="Helvetica,sans-Serif" font-size="10.00" fill="grey">&lt; ConcreteT, KeyT &gt;</text>
</g>
<!-- Node4 -->
<g id="Node000004" class="node">
<title>Node4</title>
<g id="a_Node000004"><a xlink:href="structmlir_1_1pdll_1_1ast_1_1detail_1_1TypeStorageBase.html" target="_top" xlink:title=" ">
<polygon fill="white" stroke="#666666" points="890.5,-526 729.5,-526 729.5,-485 890.5,-485 890.5,-526"/>
<text text-anchor="start" x="737.5" y="-514" font-family="Helvetica,sans-Serif" font-size="10.00">mlir::pdll::ast::detail</text>
<text text-anchor="start" x="737.5" y="-503" font-family="Helvetica,sans-Serif" font-size="10.00">::TypeStorageBase&lt; Attribute</text>
<text text-anchor="middle" x="810" y="-492" font-family="Helvetica,sans-Serif" font-size="10.00">TypeStorage &gt;</text>
</a>
</g>
</g>
<!-- Node1&#45;&gt;Node4 -->
<g id="edge5_Node000001_Node000004" class="edge">
<title>Node1&#45;&gt;Node4</title>
<g id="a_edge5_Node000001_Node000004"><a xlink:title=" ">
<path fill="none" stroke="orange" stroke-dasharray="5,2" d="M393.62,-293.13C403.89,-339.49 430.35,-426.52 490,-468.5 559.64,-517.51 659.75,-521.21 729.17,-516.22"/>
<polygon fill="orange" stroke="orange" points="396.99,-292.14 391.51,-283.07 390.14,-293.58 396.99,-292.14"/>
</a>
</g>
<text text-anchor="start" x="525" y="-523" font-family="Helvetica,sans-Serif" font-size="10.00" fill="grey">&lt; AttributeTypeStorage &gt;</text>
</g>
<!-- Node6 -->
<g id="Node000006" class="node">
<title>Node6</title>
<g id="a_Node000006"><a xlink:href="structmlir_1_1pdll_1_1ast_1_1detail_1_1TypeStorageBase.html" target="_top" xlink:title=" ">
<polygon fill="white" stroke="#666666" points="894,-467 726,-467 726,-426 894,-426 894,-467"/>
<text text-anchor="start" x="734" y="-455" font-family="Helvetica,sans-Serif" font-size="10.00">mlir::pdll::ast::detail</text>
<text text-anchor="start" x="734" y="-444" font-family="Helvetica,sans-Serif" font-size="10.00">::TypeStorageBase&lt; Constraint</text>
<text text-anchor="middle" x="810" y="-433" font-family="Helvetica,sans-Serif" font-size="10.00">TypeStorage &gt;</text>
</a>
</g>
</g>
<!-- Node1&#45;&gt;Node6 -->
<g id="edge7_Node000001_Node000006" class="edge">
<title>Node1&#45;&gt;Node6</title>
<g id="a_edge7_Node000001_Node000006"><a xlink:title=" ">
<path fill="none" stroke="orange" stroke-dasharray="5,2" d="M398.03,-293.07C412.09,-330.5 441.51,-392.48 490,-421.5 528.37,-444.47 644.65,-448.43 725.67,-448.21"/>
<polygon fill="orange" stroke="orange" points="401.16,-291.43 394.47,-283.21 394.58,-293.81 401.16,-291.43"/>
</a>
</g>
<text text-anchor="start" x="522" y="-453" font-family="Helvetica,sans-Serif" font-size="10.00" fill="grey">&lt; ConstraintTypeStorage &gt;</text>
</g>
<!-- Node8 -->
<g id="Node000008" class="node">
<title>Node8</title>
<g id="a_Node000008"><a xlink:href="structmlir_1_1pdll_1_1ast_1_1detail_1_1TypeStorageBase.html" target="_top" xlink:title=" ">
<polygon fill="white" stroke="#666666" points="901,-407.5 719,-407.5 719,-355.5 901,-355.5 901,-407.5"/>
<text text-anchor="start" x="727" y="-395.5" font-family="Helvetica,sans-Serif" font-size="10.00">mlir::pdll::ast::detail</text>
<text text-anchor="start" x="727" y="-384.5" font-family="Helvetica,sans-Serif" font-size="10.00">::TypeStorageBase&lt; Operation</text>
<text text-anchor="start" x="727" y="-373.5" font-family="Helvetica,sans-Serif" font-size="10.00">TypeStorage, std::pair&lt; StringRef,</text>
<text text-anchor="middle" x="810" y="-362.5" font-family="Helvetica,sans-Serif" font-size="10.00"> const ods::Operation * &gt; &gt;</text>
</a>
</g>
</g>
<!-- Node1&#45;&gt;Node8 -->
<g id="edge9_Node000001_Node000008" class="edge">
<title>Node1&#45;&gt;Node8</title>
<g id="a_edge9_Node000001_Node000008"><a xlink:title=" ">
<path fill="none" stroke="orange" stroke-dasharray="5,2" d="M415.2,-290.2C434.38,-307.94 461.62,-329.77 490,-341.5 530.11,-358.07 639.19,-369.27 718.65,-375.51"/>
<polygon fill="orange" stroke="orange" points="417.41,-287.48 407.75,-283.14 412.6,-292.56 417.41,-287.48"/>
</a>
</g>
<text text-anchor="start" x="518" y="-408" font-family="Helvetica,sans-Serif" font-size="10.00" fill="grey">&lt; OperationTypeStorage,</text>
<text text-anchor="start" x="518" y="-393" font-family="Helvetica,sans-Serif" font-size="10.00" fill="grey">   std::pair&lt; StringRef,</text>
<text text-anchor="start" x="518" y="-378" font-family="Helvetica,sans-Serif" font-size="10.00" fill="grey">   const ods::Operation * &gt; &gt;</text>
</g>
<!-- Node10 -->
<g id="Node000010" class="node">
<title>Node10</title>
<g id="a_Node000010"><a xlink:href="structmlir_1_1pdll_1_1ast_1_1detail_1_1TypeStorageBase.html" target="_top" xlink:title=" ">
<polygon fill="white" stroke="#666666" points="895.5,-337 724.5,-337 724.5,-296 895.5,-296 895.5,-337"/>
<text text-anchor="start" x="732.5" y="-325" font-family="Helvetica,sans-Serif" font-size="10.00">mlir::pdll::ast::detail</text>
<text text-anchor="start" x="732.5" y="-314" font-family="Helvetica,sans-Serif" font-size="10.00">::TypeStorageBase&lt; RangeType</text>
<text text-anchor="middle" x="810" y="-303" font-family="Helvetica,sans-Serif" font-size="10.00">Storage, Type &gt;</text>
</a>
</g>
</g>
<!-- Node1&#45;&gt;Node10 -->
<g id="edge11_Node000001_Node000010" class="edge">
<title>Node1&#45;&gt;Node10</title>
<g id="a_edge11_Node000001_Node000010"><a xlink:title=" ">
<path fill="none" stroke="orange" stroke-dasharray="5,2" d="M482.3,-281.3C484.89,-281.71 487.46,-282.12 490,-282.5 569.16,-294.46 660.01,-303.71 724.45,-309.52"/>
<polygon fill="orange" stroke="orange" points="482.67,-277.81 472.23,-279.61 481.51,-284.71 482.67,-277.81"/>
</a>
</g>
<text text-anchor="start" x="535" y="-326.5" font-family="Helvetica,sans-Serif" font-size="10.00" fill="grey">&lt; RangeTypeStorage,</text>
<text text-anchor="start" x="535" y="-311.5" font-family="Helvetica,sans-Serif" font-size="10.00" fill="grey">   Type &gt;</text>
</g>
<!-- Node12 -->
<g id="Node000012" class="node">
<title>Node12</title>
<g id="a_Node000012"><a xlink:href="structmlir_1_1pdll_1_1ast_1_1detail_1_1TypeStorageBase.html" target="_top" xlink:title=" ">
<polygon fill="white" stroke="#666666" points="899,-278 721,-278 721,-237 899,-237 899,-278"/>
<text text-anchor="start" x="729" y="-266" font-family="Helvetica,sans-Serif" font-size="10.00">mlir::pdll::ast::detail</text>
<text text-anchor="start" x="729" y="-255" font-family="Helvetica,sans-Serif" font-size="10.00">::TypeStorageBase&lt; RewriteType</text>
<text text-anchor="middle" x="810" y="-244" font-family="Helvetica,sans-Serif" font-size="10.00">Storage &gt;</text>
</a>
</g>
</g>
<!-- Node1&#45;&gt;Node12 -->
<g id="edge13_Node000001_Node000012" class="edge">
<title>Node1&#45;&gt;Node12</title>
<g id="a_edge13_Node000001_Node000012"><a xlink:title=" ">
<path fill="none" stroke="orange" stroke-dasharray="5,2" d="M482.52,-261.38C553.93,-260.53 651.21,-259.37 720.97,-258.55"/>
<polygon fill="orange" stroke="orange" points="482.14,-257.88 472.18,-261.5 482.22,-264.88 482.14,-257.88"/>
</a>
</g>
<text text-anchor="start" x="528" y="-267" font-family="Helvetica,sans-Serif" font-size="10.00" fill="grey">&lt; RewriteTypeStorage &gt;</text>
</g>
<!-- Node14 -->
<g id="Node000014" class="node">
<title>Node14</title>
<g id="a_Node000014"><a xlink:href="structmlir_1_1pdll_1_1ast_1_1detail_1_1TypeStorageBase.html" target="_top" xlink:title=" ">
<polygon fill="white" stroke="#666666" points="910,-218.5 710,-218.5 710,-166.5 910,-166.5 910,-218.5"/>
<text text-anchor="start" x="718" y="-206.5" font-family="Helvetica,sans-Serif" font-size="10.00">mlir::pdll::ast::detail</text>
<text text-anchor="start" x="718" y="-195.5" font-family="Helvetica,sans-Serif" font-size="10.00">::TypeStorageBase&lt; TupleType</text>
<text text-anchor="start" x="718" y="-184.5" font-family="Helvetica,sans-Serif" font-size="10.00">Storage, std::pair&lt; ArrayRef</text>
<text text-anchor="middle" x="810" y="-173.5" font-family="Helvetica,sans-Serif" font-size="10.00">&lt; Type &gt;, ArrayRef&lt; StringRef &gt; &gt; &gt;</text>
</a>
</g>
</g>
<!-- Node1&#45;&gt;Node14 -->
<g id="edge15_Node000001_Node000014" class="edge">
<title>Node1&#45;&gt;Node14</title>
<g id="a_edge15_Node000001_Node000014"><a xlink:title=" ">
<path fill="none" stroke="orange" stroke-dasharray="5,2" d="M426.86,-236.77C445.22,-225.99 467.92,-214.58 490,-208.5 561.78,-188.75 646,-185.31 709.88,-186.51"/>
<polygon fill="orange" stroke="orange" points="424.97,-233.82 418.22,-241.98 428.59,-239.81 424.97,-233.82"/>
</a>
</g>
<text text-anchor="start" x="493" y="-244" font-family="Helvetica,sans-Serif" font-size="10.00" fill="grey">&lt; TupleTypeStorage,</text>
<text text-anchor="start" x="493" y="-229" font-family="Helvetica,sans-Serif" font-size="10.00" fill="grey">   std::pair&lt; ArrayRef</text>
<text text-anchor="start" x="493" y="-214" font-family="Helvetica,sans-Serif" font-size="10.00" fill="grey">  &lt; Type &gt;, ArrayRef&lt; StringRef &gt; &gt; &gt;</text>
</g>
<!-- Node16 -->
<g id="Node000016" class="node">
<title>Node16</title>
<g id="a_Node000016"><a xlink:href="structmlir_1_1pdll_1_1ast_1_1detail_1_1TypeStorageBase.html" target="_top" xlink:title=" ">
<polygon fill="white" stroke="#666666" points="916,-148.5 704,-148.5 704,-118.5 916,-118.5 916,-148.5"/>
<text text-anchor="start" x="712" y="-136.5" font-family="Helvetica,sans-Serif" font-size="10.00">mlir::pdll::ast::detail</text>
<text text-anchor="middle" x="810" y="-125.5" font-family="Helvetica,sans-Serif" font-size="10.00">::TypeStorageBase&lt; TypeTypeStorage &gt;</text>
</a>
</g>
</g>
<!-- Node1&#45;&gt;Node16 -->
<g id="edge17_Node000001_Node000016" class="edge">
<title>Node1&#45;&gt;Node16</title>
<g id="a_edge17_Node000001_Node000016"><a xlink:title=" ">
<path fill="none" stroke="orange" stroke-dasharray="5,2" d="M409.32,-233.66C427.89,-210.94 456.96,-180.66 490,-165.5 556.78,-134.86 639.5,-127.31 703.98,-127.19"/>
<polygon fill="orange" stroke="orange" points="406.45,-231.65 402.96,-241.65 411.93,-236 406.45,-231.65"/>
</a>
</g>
<text text-anchor="start" x="535" y="-171" font-family="Helvetica,sans-Serif" font-size="10.00" fill="grey">&lt; TypeTypeStorage &gt;</text>
</g>
<!-- Node18 -->
<g id="Node000018" class="node">
<title>Node18</title>
<g id="a_Node000018"><a xlink:href="structmlir_1_1pdll_1_1ast_1_1detail_1_1TypeStorageBase.html" target="_top" xlink:title=" ">
<polygon fill="white" stroke="#666666" points="893.5,-100 726.5,-100 726.5,-59 893.5,-59 893.5,-100"/>
<text text-anchor="start" x="734.5" y="-88" font-family="Helvetica,sans-Serif" font-size="10.00">mlir::pdll::ast::detail</text>
<text text-anchor="start" x="734.5" y="-77" font-family="Helvetica,sans-Serif" font-size="10.00">::TypeStorageBase&lt; ValueType</text>
<text text-anchor="middle" x="810" y="-66" font-family="Helvetica,sans-Serif" font-size="10.00">Storage &gt;</text>
</a>
</g>
</g>
<!-- Node1&#45;&gt;Node18 -->
<g id="edge19_Node000001_Node000018" class="edge">
<title>Node1&#45;&gt;Node18</title>
<g id="a_edge19_Node000001_Node000018"><a xlink:title=" ">
<path fill="none" stroke="orange" stroke-dasharray="5,2" d="M398.53,-232.17C412.95,-195.68 442.59,-135.8 490,-107.5 561.37,-64.9 658.17,-62.51 726.36,-67.89"/>
<polygon fill="orange" stroke="orange" points="395.15,-231.2 394.86,-241.8 401.69,-233.7 395.15,-231.2"/>
</a>
</g>
<text text-anchor="start" x="533" y="-113" font-family="Helvetica,sans-Serif" font-size="10.00" fill="grey">&lt; ValueTypeStorage &gt;</text>
</g>
<!-- Node20 -->
<g id="Node000020" class="node">
<title>Node20</title>
<g id="a_Node000020"><a xlink:title=" ">
<polygon fill="white" stroke="#666666" points="895,-41 725,-41 725,0 895,0 895,-41"/>
<text text-anchor="start" x="733" y="-29" font-family="Helvetica,sans-Serif" font-size="10.00">mlir::pdll::ast::detail</text>
<text text-anchor="start" x="733" y="-18" font-family="Helvetica,sans-Serif" font-size="10.00">::TypeStorageBase&lt; ConcreteT,</text>
<text text-anchor="middle" x="810" y="-7" font-family="Helvetica,sans-Serif" font-size="10.00"> void &gt;</text>
</a>
</g>
</g>
<!-- Node1&#45;&gt;Node20 -->
<g id="edge21_Node000001_Node000020" class="edge">
<title>Node1&#45;&gt;Node20</title>
<g id="a_edge21_Node000001_Node000020"><a xlink:title=" ">
<path fill="none" stroke="orange" stroke-dasharray="5,2" d="M392.58,-231.73C401.61,-183.04 426.67,-89.27 490,-45.5 558.32,1.72 655.63,2.32 724.78,-5.36"/>
<polygon fill="orange" stroke="orange" points="389.11,-231.23 390.84,-241.69 396.01,-232.44 389.11,-231.23"/>
</a>
</g>
<text text-anchor="start" x="538" y="-51" font-family="Helvetica,sans-Serif" font-size="10.00" fill="grey">&lt; ConcreteT, void &gt;</text>
</g>
<!-- Node2 -->
<g id="Node000002" class="node">
<title>Node2</title>
<g id="a_Node000002"><a xlink:href="structmlir_1_1pdll_1_1ast_1_1Type_1_1Storage.html" target="_top" xlink:title=" ">
<polygon fill="white" stroke="#666666" points="265,-277.5 155,-277.5 155,-247.5 265,-247.5 265,-277.5"/>
<text text-anchor="start" x="163" y="-265.5" font-family="Helvetica,sans-Serif" font-size="10.00">mlir::pdll::ast::Type</text>
<text text-anchor="middle" x="210" y="-254.5" font-family="Helvetica,sans-Serif" font-size="10.00">::Storage</text>
</a>
</g>
</g>
<!-- Node2&#45;&gt;Node1 -->
<g id="edge1_Node000001_Node000002" class="edge">
<title>Node2&#45;&gt;Node1</title>
<g id="a_edge1_Node000001_Node000002"><a xlink:title=" ">
<path fill="none" stroke="#63b8ff" d="M275.62,-262.5C284.13,-262.5 292.96,-262.5 301.74,-262.5"/>
<polygon fill="#63b8ff" stroke="#63b8ff" points="275.41,-259 265.41,-262.5 275.41,-266 275.41,-259"/>
</a>
</g>
</g>
<!-- Node3 -->
<g id="Node000003" class="node">
<title>Node3</title>
<g id="a_Node000003"><a xlink:href="classmlir_1_1StorageUniquer_1_1BaseStorage.html" target="_top" xlink:title="This class acts as the base storage that all storage classes must derived from.">
<polygon fill="white" stroke="#666666" points="118,-277.5 0,-277.5 0,-247.5 118,-247.5 118,-277.5"/>
<text text-anchor="start" x="8" y="-265.5" font-family="Helvetica,sans-Serif" font-size="10.00">mlir::StorageUniquer</text>
<text text-anchor="middle" x="59" y="-254.5" font-family="Helvetica,sans-Serif" font-size="10.00">::BaseStorage</text>
</a>
</g>
</g>
<!-- Node3&#45;&gt;Node2 -->
<g id="edge2_Node000002_Node000003" class="edge">
<title>Node3&#45;&gt;Node2</title>
<g id="a_edge2_Node000002_Node000003"><a xlink:title=" ">
<path fill="none" stroke="#63b8ff" d="M128.06,-262.5C137.02,-262.5 146.1,-262.5 154.78,-262.5"/>
<polygon fill="#63b8ff" stroke="#63b8ff" points="128.03,-259 118.03,-262.5 128.03,-266 128.03,-259"/>
</a>
</g>
</g>
<!-- Node5 -->
<g id="Node000005" class="node">
<title>Node5</title>
<g id="a_Node000005"><a xlink:href="structmlir_1_1pdll_1_1ast_1_1detail_1_1AttributeTypeStorage.html" target="_top" xlink:title=" ">
<polygon fill="white" stroke="#666666" points="1082,-520.5 957,-520.5 957,-490.5 1082,-490.5 1082,-520.5"/>
<text text-anchor="start" x="965" y="-508.5" font-family="Helvetica,sans-Serif" font-size="10.00">mlir::pdll::ast::detail</text>
<text text-anchor="middle" x="1019.5" y="-497.5" font-family="Helvetica,sans-Serif" font-size="10.00">::AttributeTypeStorage</text>
</a>
</g>
</g>
<!-- Node4&#45;&gt;Node5 -->
<g id="edge6_Node000004_Node000005" class="edge">
<title>Node4&#45;&gt;Node5</title>
<g id="a_edge6_Node000004_Node000005"><a xlink:title=" ">
<path fill="none" stroke="#63b8ff" d="M900.75,-505.5C919.66,-505.5 939.21,-505.5 956.8,-505.5"/>
<polygon fill="#63b8ff" stroke="#63b8ff" points="900.63,-502 890.63,-505.5 900.63,-509 900.63,-502"/>
</a>
</g>
</g>
<!-- Node7 -->
<g id="Node000007" class="node">
<title>Node7</title>
<g id="a_Node000007"><a xlink:href="structmlir_1_1pdll_1_1ast_1_1detail_1_1ConstraintTypeStorage.html" target="_top" xlink:title=" ">
<polygon fill="white" stroke="#666666" points="1086,-461.5 953,-461.5 953,-431.5 1086,-431.5 1086,-461.5"/>
<text text-anchor="start" x="961" y="-449.5" font-family="Helvetica,sans-Serif" font-size="10.00">mlir::pdll::ast::detail</text>
<text text-anchor="middle" x="1019.5" y="-438.5" font-family="Helvetica,sans-Serif" font-size="10.00">::ConstraintTypeStorage</text>
</a>
</g>
</g>
<!-- Node6&#45;&gt;Node7 -->
<g id="edge8_Node000006_Node000007" class="edge">
<title>Node6&#45;&gt;Node7</title>
<g id="a_edge8_Node000006_Node000007"><a xlink:title=" ">
<path fill="none" stroke="#63b8ff" d="M904.33,-446.5C920.7,-446.5 937.42,-446.5 952.84,-446.5"/>
<polygon fill="#63b8ff" stroke="#63b8ff" points="904.2,-443 894.2,-446.5 904.2,-450 904.2,-443"/>
</a>
</g>
</g>
<!-- Node9 -->
<g id="Node000009" class="node">
<title>Node9</title>
<g id="a_Node000009"><a xlink:href="structmlir_1_1pdll_1_1ast_1_1detail_1_1OperationTypeStorage.html" target="_top" xlink:title=" ">
<polygon fill="white" stroke="#666666" points="1085,-396.5 954,-396.5 954,-366.5 1085,-366.5 1085,-396.5"/>
<text text-anchor="start" x="962" y="-384.5" font-family="Helvetica,sans-Serif" font-size="10.00">mlir::pdll::ast::detail</text>
<text text-anchor="middle" x="1019.5" y="-373.5" font-family="Helvetica,sans-Serif" font-size="10.00">::OperationTypeStorage</text>
</a>
</g>
</g>
<!-- Node8&#45;&gt;Node9 -->
<g id="edge10_Node000008_Node000009" class="edge">
<title>Node8&#45;&gt;Node9</title>
<g id="a_edge10_Node000008_Node000009"><a xlink:title=" ">
<path fill="none" stroke="#63b8ff" d="M911.12,-381.5C925.62,-381.5 940.21,-381.5 953.77,-381.5"/>
<polygon fill="#63b8ff" stroke="#63b8ff" points="911.11,-378 901.11,-381.5 911.11,-385 911.11,-378"/>
</a>
</g>
</g>
<!-- Node11 -->
<g id="Node000011" class="node">
<title>Node11</title>
<g id="a_Node000011"><a xlink:href="structmlir_1_1pdll_1_1ast_1_1detail_1_1RangeTypeStorage.html" target="_top" xlink:title=" ">
<polygon fill="white" stroke="#666666" points="1077,-331.5 962,-331.5 962,-301.5 1077,-301.5 1077,-331.5"/>
<text text-anchor="start" x="970" y="-319.5" font-family="Helvetica,sans-Serif" font-size="10.00">mlir::pdll::ast::detail</text>
<text text-anchor="middle" x="1019.5" y="-308.5" font-family="Helvetica,sans-Serif" font-size="10.00">::RangeTypeStorage</text>
</a>
</g>
</g>
<!-- Node10&#45;&gt;Node11 -->
<g id="edge12_Node000010_Node000011" class="edge">
<title>Node10&#45;&gt;Node11</title>
<g id="a_edge12_Node000010_Node000011"><a xlink:title=" ">
<path fill="none" stroke="#63b8ff" d="M905.96,-316.5C925.09,-316.5 944.63,-316.5 961.93,-316.5"/>
<polygon fill="#63b8ff" stroke="#63b8ff" points="905.7,-313 895.7,-316.5 905.7,-320 905.7,-313"/>
</a>
</g>
</g>
<!-- Node13 -->
<g id="Node000013" class="node">
<title>Node13</title>
<g id="a_Node000013"><a xlink:href="structmlir_1_1pdll_1_1ast_1_1detail_1_1RewriteTypeStorage.html" target="_top" xlink:title=" ">
<polygon fill="white" stroke="#666666" points="1079.5,-272.5 959.5,-272.5 959.5,-242.5 1079.5,-242.5 1079.5,-272.5"/>
<text text-anchor="start" x="967.5" y="-260.5" font-family="Helvetica,sans-Serif" font-size="10.00">mlir::pdll::ast::detail</text>
<text text-anchor="middle" x="1019.5" y="-249.5" font-family="Helvetica,sans-Serif" font-size="10.00">::RewriteTypeStorage</text>
</a>
</g>
</g>
<!-- Node12&#45;&gt;Node13 -->
<g id="edge14_Node000012_Node000013" class="edge">
<title>Node12&#45;&gt;Node13</title>
<g id="a_edge14_Node000012_Node000013"><a xlink:title=" ">
<path fill="none" stroke="#63b8ff" d="M909.34,-257.5C926.46,-257.5 943.77,-257.5 959.41,-257.5"/>
<polygon fill="#63b8ff" stroke="#63b8ff" points="909.3,-254 899.3,-257.5 909.3,-261 909.3,-254"/>
</a>
</g>
</g>
<!-- Node15 -->
<g id="Node000015" class="node">
<title>Node15</title>
<g id="a_Node000015"><a xlink:href="structmlir_1_1pdll_1_1ast_1_1detail_1_1TupleTypeStorage.html" target="_top" xlink:title=" ">
<polygon fill="white" stroke="#666666" points="1077,-207.5 962,-207.5 962,-177.5 1077,-177.5 1077,-207.5"/>
<text text-anchor="start" x="970" y="-195.5" font-family="Helvetica,sans-Serif" font-size="10.00">mlir::pdll::ast::detail</text>
<text text-anchor="middle" x="1019.5" y="-184.5" font-family="Helvetica,sans-Serif" font-size="10.00">::TupleTypeStorage</text>
</a>
</g>
</g>
<!-- Node14&#45;&gt;Node15 -->
<g id="edge16_Node000014_Node000015" class="edge">
<title>Node14&#45;&gt;Node15</title>
<g id="a_edge16_Node000014_Node000015"><a xlink:title=" ">
<path fill="none" stroke="#63b8ff" d="M920.58,-192.5C934.82,-192.5 948.92,-192.5 961.79,-192.5"/>
<polygon fill="#63b8ff" stroke="#63b8ff" points="920.19,-189 910.19,-192.5 920.19,-196 920.19,-189"/>
</a>
</g>
</g>
<!-- Node17 -->
<g id="Node000017" class="node">
<title>Node17</title>
<g id="a_Node000017"><a xlink:href="structmlir_1_1pdll_1_1ast_1_1detail_1_1TypeTypeStorage.html" target="_top" xlink:title=" ">
<polygon fill="white" stroke="#666666" points="1077,-148.5 962,-148.5 962,-118.5 1077,-118.5 1077,-148.5"/>
<text text-anchor="start" x="970" y="-136.5" font-family="Helvetica,sans-Serif" font-size="10.00">mlir::pdll::ast::detail</text>
<text text-anchor="middle" x="1019.5" y="-125.5" font-family="Helvetica,sans-Serif" font-size="10.00">::TypeTypeStorage</text>
</a>
</g>
</g>
<!-- Node16&#45;&gt;Node17 -->
<g id="edge18_Node000016_Node000017" class="edge">
<title>Node16&#45;&gt;Node17</title>
<g id="a_edge18_Node000016_Node000017"><a xlink:title=" ">
<path fill="none" stroke="#63b8ff" d="M926.58,-133.5C938.82,-133.5 950.83,-133.5 961.93,-133.5"/>
<polygon fill="#63b8ff" stroke="#63b8ff" points="926.27,-130 916.27,-133.5 926.27,-137 926.27,-130"/>
</a>
</g>
</g>
<!-- Node19 -->
<g id="Node000019" class="node">
<title>Node19</title>
<g id="a_Node000019"><a xlink:href="structmlir_1_1pdll_1_1ast_1_1detail_1_1ValueTypeStorage.html" target="_top" xlink:title=" ">
<polygon fill="white" stroke="#666666" points="1077,-94.5 962,-94.5 962,-64.5 1077,-64.5 1077,-94.5"/>
<text text-anchor="start" x="970" y="-82.5" font-family="Helvetica,sans-Serif" font-size="10.00">mlir::pdll::ast::detail</text>
<text text-anchor="middle" x="1019.5" y="-71.5" font-family="Helvetica,sans-Serif" font-size="10.00">::ValueTypeStorage</text>
</a>
</g>
</g>
<!-- Node18&#45;&gt;Node19 -->
<g id="edge20_Node000018_Node000019" class="edge">
<title>Node18&#45;&gt;Node19</title>
<g id="a_edge20_Node000018_Node000019"><a xlink:title=" ">
<path fill="none" stroke="#63b8ff" d="M903.85,-79.5C923.56,-79.5 943.81,-79.5 961.69,-79.5"/>
<polygon fill="#63b8ff" stroke="#63b8ff" points="903.61,-76 893.61,-79.5 903.61,-83 903.61,-76"/>
</a>
</g>
</g>
</g>
</svg>
